<svg xml:space="preserve" width="16" height="16" viewBox="0 0 128 128"><linearGradient id="a" x1="62.1" x2="62.1" y1="20.9" y2="126.2" gradientUnits="userSpaceOnUse"><stop offset="0" style="stop-color:#b2dfdb"/><stop offset="1" style="stop-color:#80cbc4"/></linearGradient><path d="M94.2 48.8c0-18.1-8.2-40.7-31.9-44.3C44.9 1.9 26.8 9 30.4 37.3c2.4 18.6 9.4 19 7.3 51.2-1.7 25.8 10 35.5 24.6 35.5s24.2-6.8 26.5-27.3c2.4-20.6 5.4-36.4 5.4-47.9" style="fill:url(#a)"/><linearGradient id="b" x1="64.8" x2="64.8" y1="90.7" y2="49.5" gradientUnits="userSpaceOnUse"><stop offset=".3" style="stop-color:#0277bd"/><stop offset="1" style="stop-color:#01579b"/></linearGradient><path d="M87.6 46.6c-5-13.2-24.2-21-30.6-22.5l-3.8-5.6q-2-3-4.3-1.6c-1.7 1-.8 2.5-.1 4.4l1.9 6A43 43 0 0 0 40.3 61c1.5 16 7.7 25 8 25.5.5 1.3 3 2.6 4.8 1.7s2-3 1.1-4.8L49 67.7q-2-6 0-11.8c2.2-6 5-15.2 9.5-20.2 0 0 10.1 6.4 17 12.8A18 18 0 0 1 81.7 64c-.7 5.9-1.7 13.8-2.5 17.8-.5 2.3-.7 4.5 1.5 5.4s3.6-1 4.4-3.2c.4-1 8.2-22.2 2.6-37.3" style="fill:url(#b)"/><radialGradient id="c" cx="59" cy="40.8" r="31" gradientTransform="rotate(-11.6 122.72 34.31)scale(1 .68)" gradientUnits="userSpaceOnUse"><stop offset="0" style="stop-color:#40bdf6"/><stop offset="1" style="stop-color:#039be5"/></radialGradient><path d="M87.6 46.6c-5-13.2-24.2-21-30.6-22.5l-3.8-5.6q-2-3-4.3-1.6c-1.7 1-.8 2.5-.1 4.4l1.9 6A43 43 0 0 0 40.3 61c.6 6 3 14.9 3 14.9 0-6 0-7.8 2.2-15.3 2.2-7.4 5.2-19 12.4-27 0 0 14 8 22.7 18C89.4 62 88.3 72 88.3 72a52 52 0 0 0-.7-25.3" style="fill:url(#c)"/></svg>