<svg xmlns:xlink="http://www.w3.org/1999/xlink" xml:space="preserve" width="16" height="16" viewBox="0 0 128 128"><path d="m19.7 85.2-12 .6c-2.6.2-2.4 4.6.2 4.5l12-.6c2.8-.3 2.5-4.7-.2-4.5m9.3 15-3.9 11.4c-.8 2.5 3.4 3.9 4.2 1.4l3.9-11.4c.8-2.5-3.4-3.9-4.2-1.4m82.4-81.8c-.9.8-8.2 6.7-9.2 7.7-2 1.7.8 5.1 2.8 3.4l9.2-7.7c2.1-1.8-.8-5.2-2.8-3.4M81 12.2l3.3 11.5c.7 2.5 5 1.3 4.3-1.2L85.3 11c-.8-2.6-5.1-1.4-4.3 1.2M23.1 93.1 7.9 103.8c-2.1 1.5.5 5.2 2.6 3.6l15.2-10.7c2.2-1.7-.5-5.3-2.6-3.6M99.6 5.8l-6.2 17.6c-.8 2.5 3.4 4 4.2 1.5l6.2-17.6c.8-2.6-3.4-4-4.2-1.5" style="fill:#bdccd4"/><path d="M99 44.7c1.9-4.5 5.5-7.7 9.7-6.7 2.9.6 3.5 3.3 3.3 4.9-2.3 15.9 1.1 28.1.2 39.9-1.1 14.9-10.5 30.3-30.2 31.7-12.5 3-26.4.9-37.6-10-6.2-6-11.6-10.6-19.1-22.8-3.1-5.1-7.9-13.2-7.9-18.5 0-4.5 4.5-5.9 6.8-3.8-3-4.8-4.4-8.3-4.5-12.4-.1-3.4 4.1-5.8 6.8-3.2-2.3-3.7-5.5-10.2-.7-13.5 1.5-1 5.3-2.3 9.9 3.5-1.2-2.3-2.5-6.2.7-8.8 1.7-1.4 5-1.8 7.8 1.4-.2-1.2 1.5-4.2 4.3-4.3 3.4-.2 6.1 2.9 8.1 5.2-2-8 6.3-10.3 10.9-4.9 2.4 2.7 8 9.5 16.4 23.5-.2-8.4 3.9-15.8 9.9-14.7 2.1.4 4.2 1.8 4.4 5.7z" style="fill:#f9ddbd"/><defs><path id="a" d="M99 44.7c1.9-4.5 5.5-7.7 9.7-6.7 2.9.6 3.5 3.3 3.3 4.9-2.3 15.9 1.1 28.1.2 39.9-1.1 14.9-10.5 30.3-30.2 31.7-12.5 3-26.4.9-37.6-10-6.2-6-11.6-10.6-19.1-22.8-3.1-5.1-7.9-13.2-7.9-18.5 0-4.5 4.5-5.9 6.8-3.8-3-4.8-4.4-8.3-4.5-12.4-.1-3.4 4.1-5.8 6.8-3.2-2.3-3.7-5.5-10.2-.7-13.5 1.5-1 5.3-2.3 9.9 3.5-1.2-2.3-2.5-6.2.7-8.8 1.7-1.4 5-1.8 7.8 1.4-.2-1.2 1.5-4.2 4.3-4.3 3.4-.2 6.1 2.9 8.1 5.2-2-8 6.3-10.3 10.9-4.9 2.4 2.7 8 9.5 16.4 23.5-.2-8.4 3.9-15.8 9.9-14.7 2.1.4 4.2 1.8 4.4 5.7z"/></defs><clipPath id="b"><use xlink:href="#a" style="overflow:visible"/></clipPath><path d="M75.7 114c-7.6-.2-20.6.3-37-17.9a112 112 0 0 1-19.4-31.3c-.5-1.2-.4-3.9 1.6-4.6s3.4 1.1 4.5 2.8c.8 1.2 5.1 8.3 7.6 11.2 1 1.1 1.5.3 1.7.1-5.7-9.7-13.3-22.1-13.3-26.8 0-2.6 2.8-4.3 4.8-1.7l9.6 12.1c.9 1.1 1.6.2 1.9 0-4.1-5.3-13.1-19.1-12.4-23.5.4-2.6 3.9-4.5 6.3-2.1 1.8 1.8 11.7 12.8 11.7 12.8s1 1.1 1.8.1c-4.8-6-11.5-15.3-7.5-18.6 1.6-1.3 3.7-1.9 8 2.7 2.8 3 21.6 20 38.2 31 1.6 1 2.7-.6 2.6-2.1-1.4-14.9.1-25.6 6.4-25.7 2.9 0 4.1 2.2 4.3 5.2.2 2.9 1.1 11 3.2 19.3s5.2 20.1 4.3 28.9-7.2 19.4-13.1 23c-6 3.6-10.1 4.5-10.8 4.7s-1.7 2.4.8 1.9 10.2-1.1 10.2-1.1l11.1-5.9 9.5-11.9 4.1-16.9-1.3-48.4L88 26.6l-25.6-12-42.1 11-7.2 40.2 17.3 30 21.5 19.9s22.4 1.6 24 1.4c1.5-.1 2.3-3-.2-3.1" style="clip-path:url(#b);fill:#efb682"/><defs><path id="c" d="M99 44.7c1.9-4.5 5.5-7.7 9.7-6.7 2.9.6 3.5 3.3 3.3 4.9-2.3 15.9 1.1 28.1.2 39.9-1.1 14.9-10.5 30.3-30.2 31.7-12.5 3-26.4.9-37.6-10-6.2-6-11.6-10.6-19.1-22.8-3.1-5.1-7.9-13.2-7.9-18.5 0-4.5 4.5-5.9 6.8-3.8-3-4.8-4.4-8.3-4.5-12.4-.1-3.4 4.1-5.8 6.8-3.2-2.3-3.7-5.5-10.2-.7-13.5 1.5-1 5.3-2.3 9.9 3.5-1.2-2.3-2.5-6.2.7-8.8 1.7-1.4 5-1.8 7.8 1.4-.2-1.2 1.5-4.2 4.3-4.3 3.4-.2 6.1 2.9 8.1 5.2-2-8 6.3-10.3 10.9-4.9 2.4 2.7 8 9.5 16.4 23.5-.2-8.4 3.9-15.8 9.9-14.7 2.1.4 4.2 1.8 4.4 5.7z"/></defs><clipPath id="d"><use xlink:href="#c" style="overflow:visible"/></clipPath><g style="clip-path:url(#d)"><path d="M96 30.2q-1 .6 0 2.2c.5.8.9 1.8.8 4.4-.4 20 6.8 28.3 6.4 47.2-.4 20.3-15.8 32.5-40.4 29.6-2.5-.3-1.7 2-1.7 2s6.5 1.4 8.9 1.2c8.5-.5 12.1-2.5 12.1-2.5a31.4 31.4 0 0 0 24.2-30.5c0-12.9-5.7-28.1-7.2-39.2-.5-3.7 1.1-7.4 1.4-9.3.3-3.1-2-6.5-4.5-5.1M24.3 59.3c-.6-1-1.5-.4-1 .6.6 1.2 5.7 12.5 16.6 24.7.5.5 1 1.5 1.1 1.9.3 1.4 2 1.2 2.3 0l.4-1.5q.3-.6-.4-1.6a124 124 0 0 1-19-24.1m2.2-15.6-.8-1.1c-.5.2-.8.5-.3 1.7 4.3 9.5 17.8 23.5 21.1 26.7q1 1 1.1 2c.7 2.6 2.3 2.3 2.9 1.2l.9-1.9q.3-.6-.4-1.4a198 198 0 0 1-24.5-27.2m9.3-10.1-1.4-2.1s-1.2.3-.4 1.8c4.8 9 17.4 23.2 22.3 27.2.5.4 1.3 1.5 1.6 2.4.6 1.9 2.1 1.8 2.9.8q.6-.7 1-1.6.5-.8-.7-1.9a204 204 0 0 1-25.3-26.6m22.7-14.2c-.5 1.5-1.6 4 .4 8.1 3.7 7.7 11.3 14.8 16.1 26.7L70.8 51c-3.5-8.4-13.3-19.5-14.1-24l-1.4-6.3z" style="fill:#b26830"/></g></svg>