<svg xml:space="preserve" width="16" height="16" viewBox="0 0 128 128"><path d="M13.5 98.6a17 17 0 0 1-.7-8c.8-9.2 7.2-39.1 54.2-39.1 46.4 0 54 28.4 55.2 37.2.9 6.1 0 8.7-.6 9.8l-5 5-98.7.6z" style="fill:#ffe36c"/><path d="M67 52.5a77 77 0 0 1 27 4.3A45 45 0 0 1 110.3 67c8.4 8.3 10.5 18 11 21.8.9 6 0 8.3-.4 9l-4.7 4.8-97.7.5-4.1-5q-.8-1.5-.6-7.4A40 40 0 0 1 23 68.6q13.9-16 44-16.1m0-2c-48.5 0-54.4 31.4-55.2 40-.2 1.3-.5 6.5.8 8.7l4.8 6 99.6-.6 5.3-5.5c.9-1.3 1.8-4.2.9-10.6-1.5-10.5-10.7-38-56.2-38m-53.5 52a2 2 0 0 1 2 1.9q.2.9-.4 1.5-.8.8-1.4.8h-.2a2 2 0 0 1-2-1.9 2 2 0 0 1 1.8-2.3zm0-3h-.6a5 5 0 0 0 .6 10.1h.6a5 5 0 0 0-.6-10.1" style="fill:#82aec0"/><path d="M118.5 95.9c-1-8.6-2.4-38.8-51-38.8S17.6 87.4 16.9 96c-.1 1.3-4.8 2.6-4.1 3.7L25.2 120c1.5 2.6 4.2 3.1 6.4 3.1l28.3-.6c5.4-.1 9.3-.2 14.7 0l29.3.6c3 .2 4.7-1.5 6-3.1l12.5-20.4c.9-1.1-3.8-2.4-4-3.7" style="fill:#ffc107"/><path d="m9.4 122.5-3.9-1.6a3.3 3.3 0 0 1-2-4.3l5.2-8a3.3 3.3 0 0 1 4-1.8c1.5.6 2.5 2.2 2 3.9l-1.2 9.6a3.2 3.2 0 0 1-4.1 2.2" style="fill:#82aec0"/><path d="M10.5 108.4s-4.5 7-5 8c-.4 1.1-1 2.8 2.4 4 .6 0 2.6-8 3-9.8.5-1.7-.4-2.2-.4-2.2" style="fill:#94d1e0"/><path d="M118.5 95.9c-.4-3.5-.8-10.3-4.3-17.3-2-3.8-5-3-6.4-.7-1.8 2.9-5.2 10.7-2.7 16q2.7 5.7 3.5 10.4A10 10 0 0 1 99 116H37a10 10 0 0 1-9.7-11.7q.9-4.7 2.8-10.5c2.2-6.2-.9-13.1-2.7-16-1.4-2.3-4.4-2.7-5.7-.4-4 7.4-4.5 14.9-4.8 18.5-.1 1.3-4.8 2.6-4.1 3.7L25.2 120c1.5 2.6 4.1 3.1 6.3 3.1l28.4-.6c5.4-.1 9.3-.2 14.7 0l29.3.6c3 .2 4.7-1.5 6-3.1l12.5-20.4c.9-1.1-3.8-2.4-4-3.7" style="fill:#f2a600"/></svg>