<svg xml:space="preserve" width="16" height="16" viewBox="0 0 128 128"><path d="M53.4 4.9C16.2 11.8 23 46 23 46.7c4 22.3 11.6 53.5 22.8 64.2 4.5 4.2 11.4 3.2 11.4 3.2l15.4-2.8 15.4-2.9s6.8-1.5 9.4-7c6.6-14 2.5-45.9-1.6-68.2C95.7 32.7 90.7-2 53.4 5" style="fill:#232020"/><radialGradient id="a" cx="65.1" cy="101.9" r="43.9" gradientTransform="rotate(169.5 1.6 94.2)scale(-1 1.19)" gradientUnits="userSpaceOnUse"><stop offset=".8" style="stop-color:#444140;stop-opacity:0"/><stop offset="1" style="stop-color:#444140"/></radialGradient><path d="M53.4 4.9C16.2 11.8 23 46 23 46.7c4 22.3 11.6 53.5 22.8 64.2 4.5 4.2 11.4 3.2 11.4 3.2l15.4-2.8 15.4-2.9s6.8-1.5 9.4-7c6.6-14 2.5-45.9-1.6-68.2C95.7 32.7 90.7-2 53.4 5" style="fill:url(#a)"/><linearGradient id="b" x1="16.4" x2="16.4" y1="59.4" y2="82.3" gradientTransform="matrix(1 0 0 -1 0 128)" gradientUnits="userSpaceOnUse"><stop offset=".5" style="stop-color:#70534a"/><stop offset="1" style="stop-color:#5c4037"/></linearGradient><path d="M26.3 62.4a38 38 0 0 1-6.1-5.7c-1-1-2.8-2.8-4.7-2.6q-.6 0-1.3.5a45 45 0 0 1-5.7-10q-1-1.6-2.3-1.2c-1.3.4-2 2-1.9 3.8.6 5.9 5.2 13 7 14.7A20 20 0 0 1 15 72.3q0 .8.8 1l9.5 1.5h.2a1 1 0 0 0 1-.6c.5-1.9 2-6.3 2-7.3a5 5 0 0 0-2.2-4.4" style="fill:url(#b)"/><linearGradient id="c" x1="111.8" x2="111.8" y1="59.4" y2="82.3" gradientTransform="matrix(1 0 0 -1 0 128)" gradientUnits="userSpaceOnUse"><stop offset=".5" style="stop-color:#70534a"/><stop offset="1" style="stop-color:#5c4037"/></linearGradient><path d="M122 43.5c-.6-.3-1.7 0-2.3 1.3a45 45 0 0 1-5.7 9.8q-.7-.5-1.3-.5c-1.9-.2-3.7 1.6-4.7 2.6q-2.8 3.2-6 5.7a5 5 0 0 0-2.3 4.4c0 1 1.5 5.4 2.1 7.3q.2.7 1 .7h.1l9.5-1.6q.8-.2.9-1.1s-.4-5.4 3.7-10.1a34 34 0 0 0 7-14.8c.2-1.7-.6-3.4-2-3.7" style="fill:url(#c)"/><linearGradient id="d" x1="64.1" x2="64.1" y1="46" y2=".9" gradientTransform="matrix(1 0 0 -1 0 128)" gradientUnits="userSpaceOnUse"><stop offset="0" style="stop-color:#651fff"/><stop offset=".7" style="stop-color:#5914f2"/><stop offset="1" style="stop-color:#530eeb"/></linearGradient><path d="M115.6 70.5q-.1-1.3-1.4-1.5l-12.8-.7h-.1q-1.3 0-1.6 1.3l-2.7 19a26 26 0 0 0-17.8-6.2L49 82.3c-8 0-13.7 2.6-18 6.2l-2.6-19q-.1-1.3-1.5-1.4h-.1L14 69q-1.4.2-1.5 1.5l-.1 40.5c-.1 7.1 5.6 13 12.7 13 4.9 0 8.8-3.7 9.4-8.3v8.4h59.1v-8.3a9.5 9.5 0 0 0 9.5 8.3c7 0 12.8-5.9 12.6-13z" style="fill:url(#d)"/><path d="m99 123.1-1.6-1a10 10 0 0 1-3.8-6.4l-.4-10.7s.6 9.2 5.8 18.1M34.9 105l-.4 10.6c-.4 3.3-2.5 6-5.4 7.4 5.2-9 5.8-18 5.8-18" style="fill:#4a00ed"/><path d="M55 78.3v10c0 4.5 3.5 8.2 9 8.2s9-3.7 9-8.2v-10z" style="fill:#3c2b24"/><path d="M55.5 15c-15.7 2.8-28.3 17-24 41.9A37 37 0 0 0 61 88.4q4 .7 7.4.1 3.3-.5 7-2.6a37 37 0 0 0 17-39.6c-4.4-24.8-21-34-36.8-31.3" style="fill:#70534a"/><path d="M71 75.7c.3 2.8-2.2 3.6-5.2 3.8-3 .3-5.6-.2-5.8-3s2.1-4.7 5.2-5c3-.2 5.6 1.3 5.8 4.2" style="fill:#1a1717"/><path d="M67.1 62.4h-.3l-6.4.7-.3.2q-1 .6-.5 1.5c.4.6 1.9 2.3 4.5 2a5 5 0 0 0 3.8-3q.2-1-.8-1.4" style="fill:#33251f"/><ellipse cx="47.5" cy="56.5" rx="4.5" ry="4.7" style="fill:#1a1717" transform="rotate(-6.9 47.55 56.45)"/><ellipse cx="77.3" cy="52.9" rx="4.5" ry="4.7" style="fill:#1a1717" transform="rotate(-6.9 77.32 52.87)"/><path d="M53.2 47.4c-1-1-3.2-2.5-7-2s-5.6 2.3-6.3 3.5q-.4.9.2 1.5.5.6 1.7.1c1.2-.5 2.2-1.3 4.8-1.7 2.6-.2 4.2.4 5 .5q1.4.1 1.8-.5t-.2-1.4M83 43.8c-1-1-3.2-2.4-7-2-3.8.5-5.6 2.3-6.3 3.6q-.4.8.2 1.4.5.6 1.7.1c.8-.3 2.2-1.3 4.8-1.6s4.2.3 5 .5q1.4 0 1.8-.6t-.2-1.4" style="fill:#1a1717"/><path d="M53.4 4.9C16.2 11.8 23 46 23 46.7c1.3 7 3 15 4.9 22.8l6.1-1.1c-.5-2.6-1.7-19.4 3.6-21.6a74 74 0 0 0 29-21.2c4.1 6 14.6 10.6 18.4 12.4 3.2 1.4 7.2 16 7.8 19.5l6.5-1.2v-.1c-1-8-2.2-16-3.5-23C95.7 32.7 90.7-2 53.4 5" style="fill:#232020"/><radialGradient id="e" cx="65.4" cy="98.2" r="46" gradientTransform="rotate(169.5 1.68 95)scale(-1 1.213)" gradientUnits="userSpaceOnUse"><stop offset=".8" style="stop-color:#444140;stop-opacity:0"/><stop offset="1" style="stop-color:#444140"/></radialGradient><path d="M53.4 4.9C16.2 11.8 23 46 23 46.7c1.3 7 3 15 4.9 22.8l6.1-1.1c-.5-2.6-1.7-19.4 3.6-21.6a74 74 0 0 0 29-21.2c4.1 6 14.6 10.6 18.4 12.4 3.2 1.4 7.2 16 7.8 19.5l6.5-1.2v-.1c-1-8-2.2-16-3.5-23C95.7 32.7 90.7-2 53.4 5" style="fill:url(#e)"/></svg>