<svg xml:space="preserve" width="16" height="16" viewBox="0 0 128 128"><path d="M30.9 27.3c-.3-7.4-4.6-11.9.1-17.5C34.1 6 40.3 7.6 41.4 9c2.1 2.8-1.5 5.3-2.3 6.7-1.2 2 1 10.4-2.7 16.4-5 8-10 6.8-10 6.8s4.7-4.6 4.5-11.6" style="fill:#3c2c23"/><radialGradient id="a" cx="-964.8" cy="627.8" r="1" gradientTransform="rotate(-173.6 -6206.7 -5480.16)scale(13.503 -16.326)" gradientUnits="userSpaceOnUse"><stop offset=".5" style="stop-color:#554138;stop-opacity:0"/><stop offset="1" style="stop-color:#554138"/></radialGradient><path d="M30.5 23.8c-1-5.4-3.4-9.3.5-14C34.1 6 40.3 7.6 41.4 9c2.1 2.8-1.5 5.3-2.3 6.7-1.2 2-8.7 8.1-8.7 8.1" style="fill:url(#a)"/><radialGradient id="b" cx="-828.3" cy="587.2" r="1" gradientTransform="rotate(189.8 5547.91 5757.08)scale(-14.44 17.815)" gradientUnits="userSpaceOnUse"><stop offset="0" style="stop-color:#554138"/><stop offset=".5" style="stop-color:#554138;stop-opacity:0"/></radialGradient><path d="M30.9 27.3a27 27 0 0 0-.9-5.5c-.4-1.6-.8-3 .2-4.4a7 7 0 0 1 7.5-2.3q1.3.4 1.2 1.5l-.2 1.7v4.2q.2 5.1-2.3 9.6c-5 8-10 6.8-10 6.8s4.7-4.6 4.5-11.6" style="fill:url(#b)"/><radialGradient id="c" cx="-773.3" cy="592.6" r="1" gradientTransform="rotate(190 2426.7 7760.9)scale(-7.918 25.257)" gradientUnits="userSpaceOnUse"><stop offset=".5" style="stop-color:#554138;stop-opacity:0"/><stop offset="1" style="stop-color:#554138"/></radialGradient><path d="M31 37.8s5.9-3.5 7.2-10.3q.7-4.1.5-6.6c0-1.3-.9-5.7.2-7.2" style="fill:url(#c)"/><path d="M41.2 13.6c2.5-4 8.2-7.2 13-6.4 5.2.8 8 4.6 8.8 9.4q.4 2.8 0 4.8l-.4 1.5c-.2 1.3 2.3 2.6 2.6 4 .2 1.1-2 1.8-2.2 2-.9 1 .5 5.6-5.7 6-2.3.2-1.9 0-2.6.3-1 .5-1 3.4-1 3.4s-.6 4.7-4.7 3.5c-4.6-1.5-4.8-4.8-4.8-4.8s1.7-4.6-1-9.4c-2.3-3.8-3.6-11.7-2-14.3" style="fill:#a56c43"/><path d="M62.4 31.5q-1.3 0-2.5-.7c-.8-.6-.2-1.3.7-.9q.8.4 2 .3z" style="fill:#473530"/><path d="M58.7 25.4q-1-.2-1-1.8.1-1.6 1.1-1.7 1 .1 1 1.8-.1 1.6-1 1.7m.8-4.4c1.2.3 1.4-.4 1-1q-.4-.7-2.3-.4c-1.2.3-1.6 1-2 1.5s-.2.8.1.9 1.9-1.3 3.2-1" style="fill:#42312c"/><path d="M40.7 10.4A14 14 0 0 1 51 5.6c3.5-.2 8.2.7 11.2 3.6a8 8 0 0 1 2.5 6.6c-.2 1.5-1.4 2.3-1.4 2.3s-1.5-3.5-5-2.6c-3.8 1-5.4.2-5.4.2 1.2 3 .1 4.6-.9 5.5l-1.3 1.6q-.3.2-.4 0l-.6-1.8c-.7-1.4-1.8-.9-1.8-.9-1.5.5-2 3.7.4 5.5l.1.5a5 5 0 0 1-4.4 3.4q-.9-.4-1-1.3c-.3-2-1.6-3-2.3-3.9-.8-1-1.6-2.2-2.1-5.5q-.7-4.7 2.2-8.4" style="fill:#3c2c23"/><radialGradient id="d" cx="-966.2" cy="642.8" r="1" gradientTransform="matrix(-12.565 0 0 12.565 -12089 -8059.17)" gradientUnits="userSpaceOnUse"><stop offset=".5" style="stop-color:#554138;stop-opacity:0"/><stop offset="1" style="stop-color:#554138"/></radialGradient><path d="M40.7 10.4A14 14 0 0 1 51 5.6c3.5-.2 8.2.7 11.2 3.6a8 8 0 0 1 2.5 6.6c-.2 1.5-1.4 2.3-1.4 2.3s-1.5-3.5-5-2.6c-3.8 1-5.4.2-5.4.2 1.2 3 .1 4.6-.9 5.5l-1.3 1.6q-.3.2-.4 0l-.6-1.8c-.7-1.4-1.8-.9-1.8-.9-1.5.5-2 3.7.4 5.5l.1.5a5 5 0 0 1-4.4 3.4q-.9-.4-1-1.3c-.3-2-1.6-3-2.3-3.9-.8-1-1.6-2.2-2.1-5.5q-.7-4.7 2.2-8.4" style="fill:url(#d)"/><linearGradient id="e" x1="70.1" x2="92.1" y1="47.7" y2="22.9" gradientTransform="matrix(1 0 0 -1 0 130)" gradientUnits="userSpaceOnUse"><stop offset=".5" style="stop-color:#e0e0e0"/><stop offset="1" style="stop-color:#bdbdbd"/></linearGradient><path d="m104.3 121.2 2.1-2-35.7-37.5-10-10.3-2 2 15.3 16z" style="fill:url(#e)"/><path d="m93.7 105.9 12.7 13.3-2.1 2L91.6 108z" style="fill:#ff3d00"/><linearGradient id="f" x1="103.6" x2="107.8" y1="11.3" y2="7.5" gradientTransform="matrix(1 0 0 -1 0 130)" gradientUnits="userSpaceOnUse"><stop offset=".5" style="stop-color:#e0e0e0"/><stop offset="1" style="stop-color:#bdbdbd"/></linearGradient><path d="M106.2 124a2.9 2.9 0 1 1 0-5.8 2.9 2.9 0 0 1 0 5.7" style="fill:url(#f)"/><path d="m70.7 81.7-2.2 2-11.8-12.3a1 1 0 0 1 0-1.4l.7-.7a1 1 0 0 1 1.5 0z" style="fill:#636262"/><path d="m23.6 108.8 14-16a6 6 0 0 0 1.5-3.6L40.5 67l15.4 1.7-4.9 23a16 16 0 0 1-5.9 9.4l-16.4 12.5z" style="fill:#646464"/><path d="m40.7 63.2 17.5 1.6L62.7 85q1.2 5.6.8 11.4L62 119.6h-6.7l-2.9-24.9-5.1-13.3c-3.3-1.6-7.4-4-7.4-9.7z" style="fill:#7c7c7c"/><path d="M54.2 124q-1.1 0-1.2-1.2v-2.7c0-2 2-4.1 2-4.1h6.9l6.2 2a4 4 0 0 1 2.6 3.7v1.3q-.1 1-1 1z" style="fill:#4568ad"/><path d="M19.3 111.9q-.7-.8 0-1.6l2-2c1.3-1.3 4.2-1.5 4.2-1.5l4.9 5 3 5.8a4 4 0 0 1-.9 4.4l-.9.9a1 1 0 0 1-1.4 0z" style="fill:#325599"/><radialGradient id="g" cx="-937.2" cy="627.4" r="1" gradientTransform="matrix(-21.188 0 0 21.188 -19804.14 -13241.22)" gradientUnits="userSpaceOnUse"><stop offset=".4" style="stop-color:#651fff"/><stop offset="1" style="stop-color:#530eeb"/></radialGradient><path d="M41.9 73.8h13.9c2.2 0 4-2.2 4-4.9l-2.1-22.4c-.4-4-1.9-8-4.7-9.6-4.8-3.4-8.5-1.3-10 .8a12 12 0 0 0-1.6 5.9L39 68.9c0 2.9.6 4.9 2.9 4.9" style="fill:url(#g)"/><linearGradient id="h" x1="49.8" x2="52.6" y1="63.5" y2="76.5" gradientTransform="matrix(1 0 0 -1 0 130)" gradientUnits="userSpaceOnUse"><stop offset=".6" style="stop-color:#a56c43"/><stop offset="1" style="stop-color:#8d5738"/></linearGradient><path d="m41.9 57.3 1.8-10 8 1-2.5 9.9 9.4 9.7c2.6 2.6-2.2 5.2-4 4.1l-8.4-6.9c-1.5-1.3-4.8-3.5-4.3-7.8" style="fill:url(#h)"/><linearGradient id="i" x1="55.5" x2="63.9" y1="61.3" y2="53.9" gradientTransform="matrix(1 0 0 -1 0 130)" gradientUnits="userSpaceOnUse"><stop offset=".6" style="stop-color:#a56c43"/><stop offset="1" style="stop-color:#8d5738"/></linearGradient><path d="m57.4 68.4-.1-.6q0-.4.6-.3l4.5 1.6c.4.2 1.9.7 2 2.5v3.6L62 72.8l.2 3.6q-.1 2-2.4 1c-2-1-3.2-1.3-4.1-2.8-.3-.5-.8-3.6-1-4.2z" style="fill:url(#i)"/><path d="m52.4 53.4-10.9-2 1.8-9.7c.5-3 3.4-5 6.3-4.4 3 .5 5 3.4 4.5 6.4z" style="fill:#3615af"/><path d="M50.7 73c1.1-3 5-6.5 8.1-6.2 2.3 0 2.2 1.8 2.2 1.8l-2.3-.8c-2.3-.3-6 3-7 5.6-.4 1-.6 2.4.7 3.2q.3.3.6.1c.6-.2 1.7-1.8 2.4-3 0 0 .1.7.3 1l.3.4a7 7 0 0 1-2.7 2.5l-.5.1-.9-.2Q49.7 76 50.7 73" style="fill:#504f4f"/></svg>