<svg xml:space="preserve" width="16" height="16" viewBox="0 0 128 128"><radialGradient id="a" cx="63.6" cy="1992.9" r="57" gradientTransform="translate(0 -1930)" gradientUnits="userSpaceOnUse"><stop offset=".5" style="stop-color:#fde030"/><stop offset=".9" style="stop-color:#f7c02b"/><stop offset="1" style="stop-color:#f4a223"/></radialGradient><path d="M63.6 118.8c-27.9 0-58-17.5-58-55.9S35.7 7 63.6 7c15.5 0 29.8 5.1 40.4 14.4 11.5 10.2 17.6 24.6 17.6 41.5s-6.1 31.2-17.6 41.4a61 61 0 0 1-40.4 14.5" style="fill:url(#a)"/><path d="M111.5 29.7a57 57 0 0 1 8.1 30.2c0 16.9-6.1 31.2-17.6 41.4a61 61 0 0 1-40.4 14.5 59 59 0 0 1-48.2-23 58 58 0 0 0 50.2 26c15.4 0 29.8-5.2 40.4-14.5a54 54 0 0 0 17.6-41.4q-.1-19.2-10.1-33.2" style="fill:#eb8f00"/><path d="M82.6 92.9c0 7.5-8.3 12-18.6 12s-18.6-4.5-18.6-12S53.8 77 64 77s18.6 8.3 18.6 15.8M46.3 56.6l8.4-7.9c1.2-1.5 1.4-3.5.2-4.7-1.6-1.6-4.4-1.2-6 .6l-.2.4-6 8.7-8-7.6-.4-.2c-1.9-1.5-4.7-1.2-5.9.7-1 1.4-.3 3.3 1.2 4.5L40 57.3l-8.8 8.2C30 67 29.8 69 31 70.2c1.6 1.6 4.4 1.3 6-.5l.2-.4 6.3-9.1 7.7 7.2.3.3c1.8 1.5 4.7 1.2 5.9-.7 1-1.4.3-3.3-1.2-4.5zm38.5 0-8.5-7.9c-1.2-1.5-1.4-3.5-.2-4.7 1.6-1.6 4.4-1.2 6 .6l.2.4 6 8.7 8.1-7.6.3-.2c2-1.5 4.7-1.2 6 .7.9 1.4.2 3.3-1.3 4.5L91 57.3l8.8 8.2c1.2 1.5 1.4 3.5.2 4.7-1.6 1.6-4.4 1.3-6-.5l-.2-.4-6.3-9.1-7.7 7.2-.3.3c-1.8 1.5-4.7 1.2-5.9-.7-1-1.4-.3-3.3 1.2-4.5zM45.6 28.9c2.3.2 3.2-2.9.8-3.6q-2.8-.7-5.8-.6c-5.3.2-10.3 2.4-14 6.2-1.7 1.8.7 4 2.5 2.7 4.8-3.4 10.6-5 16.5-4.7m36.6 0c5.9-.3 11.8 1.3 16.6 4.7 1.8 1.3 4.2-.9 2.5-2.7a21 21 0 0 0-19.8-5.6q-1.5.6-1.3 2.3.5 1.3 2 1.3" style="fill:#422b0d"/></svg>