<svg xml:space="preserve" width="16" height="16" viewBox="0 0 128 128"><path d="M63.9 56.6c-4 .4-7.6 3.8-7.3 8a8 8 0 0 0 7 7.6 7.9 7.9 0 1 0 .3-15.6m9.3 36.9q-.8-3.9-1.8-7.6-1-4.2-2.6-7.9c-1.6-3.5-5.4-4.7-7.7-1.7a29 29 0 0 0-4.1 9.6c-2.4 8.9-9.5 35.9 6 38.1 4 .5 8-2.1 9.8-5.8a30 30 0 0 0 1.6-15.4c-.2-2.6-.7-6.8-1.2-9.3M123.9 63c-2.1-15.6-29.1-8.5-38-6-3.1.8-7.1 2.2-9.6 4.1-3.1 2.3-1.8 6.2 1.7 7.7q3.9 1.6 7.9 2.6l7.6 1.8c2.5.5 6.7 1 9.3 1.2 5.2.5 10.6.7 15.4-1.6 3.6-1.7 6.3-5.8 5.7-9.8m-72.2-1.9a32 32 0 0 0-9.6-4.1c-8.9-2.4-35.9-9.5-38 6-.5 4 2.1 8 5.8 9.8a30 30 0 0 0 15.4 1.6c2.6-.2 6.8-.7 9.3-1.2q3.9-.8 7.6-1.8 4.2-1 7.9-2.6c3.5-1.5 4.7-5.3 1.6-7.7m29.7-10.9 1-.3c2.6-1.9 25.8-18.8 27.5-20.5.8-.8 2.2-2.4 3-4.4a6 6 0 0 0-1.4-6.6 6 6 0 0 0-4.4-1.9c-2.7 0-5.3 1.7-6.9 3.2A1140 1140 0 0 0 80 47.5q-.7 1.2.2 2.2.5.5 1.2.5M18.1 29.3C19.8 31 43 47.9 45.6 49.8q.5.3 1 .3.7 0 1.2-.5 1-1 .2-2.2a776 776 0 0 0-20.3-27.8 10 10 0 0 0-6.9-3.2q-2.6 0-4.4 1.9a6 6 0 0 0-1.4 6.6c.8 2 2.3 3.6 3.1 4.4m91.8 69.4C108.2 97 85 80.1 82.4 78.2q-1.2-.7-2.2.2c-1 .9-.7 1.5-.2 2.2 1.9 2.7 18.5 26.1 20.3 27.8 1.6 1.6 4.2 3.2 6.9 3.2q2.6 0 4.4-1.9a6 6 0 0 0 1.4-6.6c-.8-2-2.3-3.6-3.1-4.4M45.6 78.2C43 80.1 19.8 96.9 18.1 98.7c-.8.8-2.2 2.4-3 4.4a6 6 0 0 0 1.4 6.6 6 6 0 0 0 4.4 1.9c2.7 0 5.3-1.7 6.9-3.2 1.7-1.7 18.4-25.2 20.3-27.8q.7-1.2-.2-2.2-1.2-1-2.3-.2" style="fill:#7cb342"/><path d="M109.2 20c-.6-1.5-2.8-1.5-4.8-.4-1.7.9-3.2 2.7-2 4.2 1 1.5 2.7-.5 4.1-1.4 1.5-.9 3.2-1 2.7-2.4m-85.8-.2c-.6-1.5-2.8-1.5-4.8-.4-1.7.9-3.2 2.7-2 4.2 1 1.5 2.6-.5 4.1-1.4s3.2-1.1 2.7-2.4" style="opacity:.3;fill:#fff"/><path d="M61.1 51.7c2.3 3.1 6.2 1.8 7.7-1.7q1.6-3.9 2.6-7.9l1.8-7.6c.5-2.5 1-6.7 1.2-9.3.5-5.2.7-10.6-1.6-15.4A10 10 0 0 0 63 4c-15.6 2.1-8.5 29.1-6 38.1.9 3.2 2.2 7.2 4.1 9.6" style="fill:#7cb342"/><path d="M68 8.7c-.8-2.2-4-2.2-7.2-.6-2.5 1.4-4.8 4.2-3.1 6.4s4.1-.7 6.4-2c2.2-1.4 4.8-1.8 4-3.8" style="opacity:.3;fill:#fff"/></svg>