<svg xml:space="preserve" width="16" height="16" viewBox="0 0 128 128"><radialGradient id="a" cx="63.6" cy="2880.9" r="57" gradientTransform="translate(0 -2818)" gradientUnits="userSpaceOnUse"><stop offset=".5" style="stop-color:#fde030"/><stop offset=".9" style="stop-color:#f7c02b"/><stop offset="1" style="stop-color:#f4a223"/></radialGradient><path d="M63.6 118.8c-27.9 0-58-17.5-58-55.9S35.7 7 63.6 7c15.5 0 29.8 5.1 40.4 14.4 11.5 10.2 17.6 24.6 17.6 41.5s-6.1 31.2-17.6 41.4a61 61 0 0 1-40.4 14.5" style="fill:url(#a)"/><path d="M111.5 29.7a57 57 0 0 1 8.1 30.2c0 16.9-6.1 31.2-17.6 41.4a61 61 0 0 1-40.4 14.5 59 59 0 0 1-48.2-23 58 58 0 0 0 50.2 26c15.4 0 29.8-5.2 40.4-14.5a54 54 0 0 0 17.6-41.4q-.1-19.2-10.1-33.2" style="fill:#eb8f00"/><path d="m48.6 54.7-.2.2-.5.5-.7.6-1 .7-1.2.7-1.4.6a9 9 0 0 1-3.1.5h-.9l-.7-.1q-.7 0-1.5-.4l-1.4-.6-1.2-.7-1.7-1.3-.6-.6-.2-.2a3.6 3.6 0 0 0-4.6-.2q-1.5 1.3-.8 3.2l.2.3.4.8a14 14 0 0 0 4.1 4.4q1.2.9 2.5 1.4 1.5.7 3 1l1.7.3.8.1h.8l3.3-.3q1.5-.3 3-1a14 14 0 0 0 5.7-4.5l.5-.7.4-.6.4-.8.1-.2A3 3 0 0 0 52 54a3 3 0 0 0-3.4.7m44.9 0-.2.2-.5.5-.7.6-1 .7-1.2.7-1.4.6a9 9 0 0 1-3.1.5h-.9l-.7-.1q-.8 0-1.5-.4l-1.4-.6-1.2-.7-1.7-1.3-.6-.6-.2-.2a3.6 3.6 0 0 0-4.6-.2q-1.5 1.3-.8 3.2l.2.3.4.8a14 14 0 0 0 4.1 4.4l2.5 1.4q1.5.7 3 1l1.7.3.8.1h.8l3.3-.3q1.5-.3 3-1a14 14 0 0 0 5.7-4.5l.5-.7.4-.6.4-.8.1-.2a3 3 0 0 0-1.8-3.8 3 3 0 0 0-3.4.7" style="fill:#422b0d"/><path d="m77.2 21.6-1.1-.4-1.3-.5-2.1-.6-2.5-.8c-1.6-.5-3.6-1.8-4.6.5q-.4.7-.4 1.6.1 1.1 1.3 1.5l3.1 1q.4 0 .4.3t-.3.3q-.4.1-.6.4l-.3.2-1.7 1.1-1.3.9-.6.4-1.7 1.3-.2.2q-.9.6-1.1 1.7 0 1.2 1.4 1.7l.9.3 3.2 1 2.5.8c1.6.5 3.6 1.8 4.6-.5q.4-.7.4-1.6-.2-1.1-1.3-1.5l-2.3-.8-.5-.2-.4-.1c-.2-.2.2-.4.3-.5l1.2-.8 1.2-.9.6-.4 1.3-.9c1.1-.9 3.6-2 2.8-3.7q-.3-.6-.9-1m19.9-9.5-1.2-.4-1.5-.4-2.3-.5-2.8-.7c-1.8-.4-4.1-1.6-5 1l-.3 1.8q.3 1.3 1.6 1.5l2.5.7.9.2q.4 0 .4.3 0 .4-.3.4-.4.1-.6.5c-.2.4-.2.1-.3.2l-1.8 1.4-1.4 1.1-.6.4-1.7 1.5-.2.2a3 3 0 0 0-1.1 2q.2 1.4 1.7 1.8l1 .3q1.8.6 3.5.9l2.8.7c1.8.4 4.1 1.6 5-1q.4-.9.3-1.8-.3-1.3-1.6-1.5l-2.6-.7-.6-.1-.5-.1q0-.2.3-.5l1.3-1 1.3-1 .7-.5 1.4-1.1c1.1-1.1 3.8-2.4 2.7-4.3a2 2 0 0 0-1-1.3M123.6 9q-.7-1-1.6-1.5l-1.6-.5-2-.5-3.1-.7-3.7-1c-2.4-.6-5.4-2.2-6.7 1.3a5 5 0 0 0-.4 2.4q.4 1.7 2.1 2 1.7.6 3.4.9l1.1.3q.5 0 .6.4 0 .3-.4.5l-.8.6-.4.3-2.3 1.8-1.8 1.5-.8.6-2.3 2-.3.3q-1.2 1-1.4 2.6c0 1.3 1.1 1.9 2.3 2.4l1.3.4h.1q2.3.7 4.7 1.2l3.7.9c2.4.6 5.5 2.2 6.7-1.3a5 5 0 0 0 .4-2.4q-.4-1.7-2.1-2-1.6-.6-3.4-1l-.8-.2-.6-.2c-.3-.3.2-.6.4-.7l1.7-1.3 1.7-1.4.9-.7 1.8-1.5c1.5-1.3 5-3.1 3.6-5.5" style="fill:#5f7aff"/><path d="M55.7 99.3A7 7 0 0 1 50 88.6q4.8-7.2 14-7.3c9.2-.1 10.9 2.5 14 7.3a7 7 0 0 1 .3 7 7 7 0 0 1-6 3.7q-1.2 0-2.3-.4a18 18 0 0 0-12 0q-1 .4-2.3.4" style="fill:#422b0d"/></svg>