<svg xml:space="preserve" width="16" height="16" viewBox="0 0 128 128"><path d="M51.2 75.3S4 57.6 4 57.3l1.1-33.7q.1-.7 1-.6l46.3 17.1q.5.3.6 1l-1.2 33.8q0 .5-.6.4" style="fill:#2f7889"/><path d="m9.3 59.9 42 15.4q.4.2.5-.4L53 41l-7.6-2.8z" style="fill:#37474f"/><path d="M51.2 75.3 4.5 58.1a1 1 0 0 1-.5-.8l1.1-33.7q.1-.7 1-.6l46.3 17.1q.5.3.6 1l-1.2 33.8q0 .5-.6.4z" style="fill:none;stroke:#9dd4e0;stroke-width:2.0424;stroke-miterlimit:10"/><path d="M52.4 58 4.6 40.3m24.9-7.6-1.1 34M16.9 27.4l-1 35.2M42 36l-1 35.4" style="fill:none;stroke:#9dd4e0;stroke-width:1.0212;stroke-miterlimit:10"/><path d="m82.8 38.8 1.5-2.5q1-1.6 2.9-1.2a13 13 0 0 1 7.5 7A14 14 0 0 1 96 52q-.6 1.9-2.3 2h-2z" style="fill:#bf8904"/><path d="M91.2 40.3c-.7.8 0 4.6-.8 5.6-.4.4-1 .9-1.6.6l2.3 7.6h2.6q1.7-.1 2.3-1.9c.6-2 1-5.7-1.3-10.2-.3-.5-2-3.7-3.5-1.7" style="fill:#875d00"/><path d="m89.3 41.2-20.4-7.7-21.2 10 6 42.5 22.1-9.5 17-13.7z" style="fill:#ffca28"/><path d="M89.3 41.2 68 51.2 53.9 86.3 76 76.9l17-13.8z" style="fill:#e2a610"/><path d="m68 51.3-20.4-7.8-16.9 13.7 3.5 21.6 20.3 7.7 17-13.7z" style="fill:#bf8904"/><path d="m93.2 63.1-21.8 9.7-3.5 2.8c0-.1.6-6.8-4.9-15-4-6-12.9-9.2-12.9-9.2l4.5 35.3 22.1-9.5z" style="fill:#875d00"/><path d="M122.3 105S75 87.3 75 87l1.2-33.7q.1-.8.8-.6l46.4 17.1q.6.2.6 1l-1.1 33.8q0 .5-.6.4" style="fill:#2f7889"/><path d="m80.3 89.6 42 15.4q.4.2.6-.4L124 70l-7-2.5z" style="fill:#37474f"/><path d="M122.3 105 75.6 87.8a1 1 0 0 1-.6-.9l1.2-33.6q.1-.8.8-.6l46.4 17.1q.6.2.6 1l-1.1 33.8q0 .5-.6.4z" style="fill:none;stroke:#9dd4e0;stroke-width:2.0424;stroke-miterlimit:10"/><path d="M123.4 87.6 75.6 70m25-7.6-1.2 34M88 57.1l-1.1 35.2M113 65.6l-1 35.5" style="fill:none;stroke:#9dd4e0;stroke-width:1.0212;stroke-miterlimit:10"/><path d="M75 39.5c0-1.6-2.6-2.9-6-2.9-3.2 0-5.9 1.3-5.9 2.9v2.2c0 1.6 2.7 2.8 6 2.8s6-1.2 6-2.8z" style="fill:#e2a610"/><ellipse cx="69.1" cy="39.5" rx="6" ry="2.9" style="fill:#e2a610"/><ellipse cx="69.1" cy="39.3" rx="5" ry="2.2" style="fill:#ffca28"/><path d="M70 39.3s-.2.4-1 .4c-.7 0-.9-.4-.9-.4l.4-11c0-.6 1-.6 1 0z" style="fill:#e2a610"/><path d="M75 39.5s-.3 1.6-3.6 2.3c-2.5.4-4.2.3-4.6 1.5-.4 1 2 1.8 5.2.9 3-.8 3-2.3 3-2.5z" style="fill:#bf8904"/><path d="m54 92.4-17.4-46c7.6-2.7 21.6 3.7 26.4 16.4s-1.5 26.8-9 29.6" style="fill:#9dd4e0"/><path d="m51.7 86.5 2.2 6c7.6-3 13.9-17 9-29.7q-.5-1.5-1.3-3a28 28 0 0 1-9.9 26.7" style="fill:#2f7889"/><ellipse cx="45.2" cy="69.6" rx="13.3" ry="23.6" style="fill:#f5f5f5" transform="rotate(-20.7 45.23 69.56)"/><path d="M37 68c-3.5-6.5-5.7-16.3-1.4-20 4.6-3.8 11 .7 14.3 3.6 1.9 1.6 2.8 2.8 3.8 4.1 5.3 7.3 10 21.7 3.7 27C53.1 86.2 42.3 77.8 37 68" style="fill:#bdbdbd"/><path d="M33.5 73.9c-4.3-11.5-2.5-23.1 3.8-25.5S52.7 53.6 57 65s2.6 23.2-3.8 25.6-15.4-5.3-19.7-16.7m-1.3.5C37 87.1 46.9 95.1 54.5 92.2c7.5-2.8 9.8-15.4 5-28.1S44.7 43.4 37.2 46.3s-9.8 15.4-5 28.1" style="fill:#6392a5"/><path d="m26.7 76.3 26.1-11.5M26.7 76.3l15.2-17m-15.2 17L50 79.8" style="fill:none;stroke:#6392a5;stroke-width:1.5;stroke-linecap:round;stroke-miterlimit:10"/><path d="m28.4 74.5.8 2q.3.8-.5 1.2l-4.1 1.5q-.9.3-1.1-.5l-.8-2q-.3-.8.5-1.2l4.1-1.5q.8-.3 1.1.5" style="fill:#6392a5"/></svg>