<svg xml:space="preserve" width="16" height="16" viewBox="0 0 128 128"><linearGradient id="a" x1="64" x2="64" y1="155.6" y2="-.2" gradientUnits="userSpaceOnUse"><stop offset="0" style="stop-color:#3367d6"/><stop offset=".3" style="stop-color:#3446b3"/><stop offset=".5" style="stop-color:#352893"/><stop offset="1" style="stop-color:#1a237e"/></linearGradient><path d="M116 124H12a8 8 0 0 1-8-8V12a8 8 0 0 1 8-8h104a8 8 0 0 1 8 8v104a8 8 0 0 1-8 8" style="fill:url(#a)"/><path d="M116.5 13.9a9 9 0 0 1-5.7-6.1.4.4 0 0 0-.8 0 9 9 0 0 1-6 5.8c-.4.1-.4.6 0 .7a9 9 0 0 1 5.7 6q.3.7.8.1a9 9 0 0 1 6-5.8c.4 0 .4-.6 0-.7" style="fill-rule:evenodd;clip-rule:evenodd;fill:#fff176"/><path d="M16.4 20.5q-3.1-1.2-4.2-4.4-.2-.4-.5 0-1.1 3.2-4.4 4.2c-.3 0-.3.5 0 .5q3.1 1.2 4.2 4.4.2.4.5 0 1.1-3.2 4.4-4.1.4-.3 0-.6" style="fill-rule:evenodd;clip-rule:evenodd;fill:#fff9c4"/><circle cx="117.7" cy="45.3" r="3.2" style="fill-rule:evenodd;clip-rule:evenodd;fill:#7986cb"/><circle cx="112" cy="34" r="2.4" style="opacity:.58;fill-rule:evenodd;clip-rule:evenodd;fill:#7baaf7"/><circle cx="32.4" cy="94.4" r="2.4" style="opacity:.7;fill-rule:evenodd;clip-rule:evenodd;fill:#7baaf7"/><path d="M98 0h.2M98 0h.2" style="fill:none"/><circle cx="64" cy="53.6" r="44.6" style="fill:#ffe558"/><path d="M63 14c0 1.2-2.7 2.3-6 2.9-3.4.6-6.3.6-6.8-.6-.5-1.3 2-3.3 5.6-4 3.7-.7 7 .4 7.1 1.6M32 78c0-.2.8-.4 1.7.3l4.7 3.9c1 .8 0 1.7-.8 1.6-4-.5-6.5-4.4-5.6-5.9m13.3 10.3c0-.1.6-.5 1.5-.2l4.9 1.7c1.1.3.6 1.3-.1 1.4-3.4 1-6.6-1.4-6.3-2.9m6.8-4.2c.6.3 1.2.9 1 1.5q-.5.8-1.6.8-3 .3-6-1c-1.3-.6-4.7-2.5-4.4-4.3.5-2.5 9.6 2 11 3m50.5-36.7c-.2.2-2.5.2-3.2-1.3l-3.7-8c-.9-1.7 2-2.5 3.1-1.9 5 3 5.9 9.7 3.8 11.2m-5.9-14.4c-.1.2-1 .4-2-.6L90 27c-1.2-1.1 0-2 1-1.8 4.6 1 7 6 5.8 7.6M79.5 17.3c0 .2-.6.6-1.6.2l-5-2c-1.2-.4-.6-1.4.1-1.6 3.7-.8 6.8 1.9 6.5 3.4" style="fill:#ffcd40"/><radialGradient id="b" cx="64" cy="53.6" r="49.3" gradientUnits="userSpaceOnUse"><stop offset=".8" style="stop-color:#fff9c4;stop-opacity:0"/><stop offset="1" style="stop-color:#fff9c4"/></radialGradient><circle cx="64" cy="53.6" r="44.6" style="fill:url(#b)"/><path d="m105 124-2.5-29.6h-32L68.2 124z" style="fill:#ba793e"/><path d="M69.5 107h34.1l-.9-9.9H70.4zm0 0h34.1l-.8-9.9H70.4z" style="fill:#784d30"/><circle cx="86.4" cy="65.3" r="10.7" style="fill:#fff7eb"/><circle cx="77.3" cy="77.2" r="10.7" style="fill:#fff7eb"/><radialGradient id="c" cx="95.6" cy="77.2" r="10.7" gradientUnits="userSpaceOnUse"><stop offset=".5" style="stop-color:#fcebcd"/><stop offset=".7" style="stop-color:#fdf1d7"/><stop offset="1" style="stop-color:#fff8e1"/></radialGradient><circle cx="95.6" cy="77.2" r="10.7" style="fill:url(#c)"/><circle cx="95.6" cy="77.2" r="10.7" style="fill:#fff7eb"/><circle cx="71.2" cy="88.2" r="10.7" style="fill:#fff7eb"/><circle cx="101.7" cy="88.2" r="10.7" style="fill:#fff7eb"/><circle cx="86.4" cy="88.2" r="10.7" style="fill:#fff7eb"/><path d="M107 89.6c-3 0-5.2-1.3-7-3-2.7-3-.6-6.7 1.9-8 2-1 4.1-.2 4.1-.2-4.7-3.3-7.4.4-12.7-1.3-3.3-1.2-4-4.1-3.3-7 1-4.5 7-3.5 7-3.5s-.8-1.1-3-1.1q-4 .2-6 1.6-1.6.9-3 0a11 11 0 0 0-6.1-1.6c-2.2 0-3 1.1-3 1.1s6-1 7 3.4c.8 3 0 6-3.3 7-5.4 1.9-8-1.9-12.8 1.4 0 0 2.3-.9 4.2.2 2.5 1.4 4.6 5 1.8 8-1.7 1.7-4 3-7 3-4.4.2-5.3-1.3-5.3-1.3 0 2.2.6 3.4.6 3.4h50.7s.6-1.2.6-3.4c0 0-1 1.5-5.4 1.3m-20.4 0c-4.7 0-9.3-1.7-8.6-5.5.6-3.5 3.7-6.6 8.4-6.6s8.2 3 8.7 6.6c.5 3.8-3.8 5.5-8.5 5.5m20.4 0c-3 0-5.2-1.3-7-3-2.7-3-.6-6.7 1.9-8 2-1 4.1-.2 4.1-.2-4.7-3.3-7.4.4-12.7-1.3-3.3-1.2-4-4.1-3.3-7 1-4.5 7-3.5 7-3.5s-.8-1.1-3-1.1q-4 .2-6 1.6-1.6.9-3 0a11 11 0 0 0-6.1-1.6c-2.2 0-3 1.1-3 1.1s6-1 7 3.4c.8 3 0 6-3.3 7-5.4 1.9-8-1.9-12.8 1.4 0 0 2.3-.9 4.2.2 2.5 1.4 4.6 5 1.8 8-1.7 1.7-4 3-7 3-4.4.2-5.3-1.3-5.3-1.3 0 2.2.6 3.4.6 3.4h50.7s.6-1.2.6-3.4c0 0-1 1.5-5.4 1.3m-20.4 0c-4.7 0-9.3-1.7-8.6-5.5.6-3.5 3.7-6.6 8.4-6.6s8.2 3 8.7 6.6c.5 3.8-3.8 5.5-8.5 5.5" style="opacity:.26;fill:#ea7554"/><path d="M114.9 103H58.3a3 3 0 0 1-2.8-2.8v-8.5h62.2v8.5c0 1.5-1.3 2.8-2.8 2.8" style="fill:#ba793e"/><path d="M56.4 91.7h60.4" style="fill:none;stroke:#ffb74d;stroke-width:2;stroke-linecap:round;stroke-miterlimit:10"/><path d="m114 92.6-5.6-1.8c1.8-8.4-3.8-12-6.4-12.4v-1c0-3.9-1.1-10-7.5-10.7l.1-1a8 8 0 0 0-7.9-7.9h-.3a8 8 0 0 0-7.8 9c-6.3.6-7.5 6.7-7.5 10.7l.1 1c-2.6.3-8.2 3.9-6.4 12.3l-5.6 1.8v7.6c0 1.5 1 2.8 2.2 2.8h10.8L71 124h31.2l-1.3-21h10.8c1.3 0 2.3-1.3 2.3-2.8z" style="opacity:.38;fill:#1a237e"/><path d="M89.9 112.1c-.3-1.8-1.6-3.2-3.4-3.2s-3 1.3-3.3 3.2c-1.6.4-2.8.4-2.8 2.4 0 2.2 3.7 5.9 6.2 5.9s6-3.7 6-5.9c0-2-1-2-2.7-2.4" style="fill:#4e342e"/><path d="M89.2 112.3c-.2-1.4-1.3-2.5-2.7-2.5q-2.1.1-2.6 2.5c-1.2.3-2.2.3-2.2 2s3 4.6 5 4.6c1.9 0 4.7-3 4.7-4.7 0-1.5-1-1.5-2.2-1.9" style="fill:#212121"/><path d="M12.8 124c0-.3-1.9-31.4 15.9-68.9l1.9.3A155 155 0 0 0 16.3 124zm6.2 0h-2.7c0-.3 1.3-26.7 15.6-49.1l1.7 1A138 138 0 0 0 19 124" style="fill:#97a53b"/><path d="M32 102.4c2.3-1.7 5.8-3.6 8.5-2.6q2.3 1 4 3.2c2.9 3.4 4.9 7.9 7.9 11.3C56.4 119 64 121 64 121s-10 2-14.4-2.4c-4.7-4.7-4.7-5.8-7.1-9.5-1.1-1.7-4.8-6.1-7.3-5.9-2.6.3-8.6 18-11 20.9h-4.5s.9-6.9 3.4-12c2-3.9 5.3-7 8.9-9.6" style="fill:#668424"/><path d="M12.4 124H15s-5-38.4 3.4-64.5a112 112 0 0 1 15.2-27.3q.2-.8-.6-.5C-.7 60.5 9.4 111 12.4 124" style="fill:#97a53b"/><path d="M7.3 58c-1 13.8.3 29.9.3 29.9s.2-16.2 3.8-25.3c0 0 1-16.1 6-29.6 4.7-13 13-21.8 12.4-22-1.3-.7-20.3 13-22.5 47" style="fill:#668424"/><path d="M56 14.9a34 34 0 0 0-14.3 11 71 71 0 0 0-9 15.7c-2.5 5.5-5 12-5.4 17.3-.2 1.6 1.3 1.6 2.3.4 3.8-5 7.6-13.5 19.8-18.6 4-1.7 8.3-4.4 6.8-6.2-.5-.5-1.6-1.1-3.6-.6a28 28 0 0 0-6.3 2.6c-.3.2-.8.1 0-.5 1.4-1.2 5.2-3.7 11.5-5.3 1.3-.3 2.9-1.3 2-2.3q-1.3-1.5-4.6-.4c-8 2.6-13 5.9-17 11.2-.3.3-.8 0-.6-.4 2-3.8 4.4-6.6 8.6-9.5 5.3-3.6 19-6.7 20.4-7.5 2-1.2 2.4-2 2.4-2.8.2-1.8-1.8-2.1-3.2-1.8a46 46 0 0 0-22 10.6q-.5.1-.2-.2c6.2-7.8 12-9.8 15.5-11.4.8-.3 2-1 .8-1.8-1-.7-3 .2-3.8.5M29.7 83.2c-.9.5-2-.3-1.6-1.3a67 67 0 0 1 8.2-17C42 56 49.2 49.6 53 48.6c3.6-.8 3.2 1.4 2.2 2-3 1.8-6.8 4-9.4 6.5a33 33 0 0 0-6.3 8q-.2.6.2 0c5-6 13.4-12.1 21.5-14.2 1.6-.4 4-.8 5.5-.2q1.4.4 1.5 1.6.1 1.5-3.1 2.8a73 73 0 0 0-18.8 10s-.5.8 1.7-.5c1.7-1 5.5-3.5 9.7-3.7 3.5-.2 3.4 3.3-2.9 5.3q-5.8 2-10.6 4a33 33 0 0 0-7.8 4.8c-1.2 1-1 1.2-.5.8 0 0 5-2.9 5.7-1.3.4.9-.8 1.8-1.6 2.3-3 2-7.5 4.7-10.3 6.4" style="fill:#fff"/></svg>