<svg xml:space="preserve" width="16" height="16" viewBox="0 0 128 128"><path d="m31.2 4.8 92.2 92.1q1.2 1.7 0 3.2L101.5 122c-.8.8-2.3.8-3.1 0L6.2 29.8c-.9-.9-.9-2.3 0-3.2L28.1 4.8c.8-.9 2.2-.9 3.1 0" style="fill:#eaa700"/><path d="m31.2 4.8 88 88c1 .9-19 19.5-19.9 20.4l1 9.4s-1 .2-2-.7l-92-92.1a2 2 0 0 1 0-3.2L28 4.8c.8-.9 2.2-.9 3.1 0" style="fill:#bf8400"/><linearGradient id="a" x1="58.7" x2="58.7" y1="72.6" y2="40.3" gradientTransform="rotate(45 8.3 213.42)scale(-1 1)" gradientUnits="userSpaceOnUse"><stop offset=".5" style="stop-color:#fdd835"/><stop offset=".9" style="stop-color:#f9a825"/></linearGradient><path d="M31.2 4.8 121 94.5l2.9 2.8s-2.7.2-6 3.5l-16.4 16.4c-.9.8-2.3.8-3.2 0L8.5 27.5c-.9-.9-.9-2.3 0-3.2L28.1 4.8c.8-.9 2.2-.9 3.1 0" style="fill:url(#a)"/><path d="M72.2 56.9q-.5.4-1.2 0L69.4 55a1 1 0 0 1 0-1l5.2-5.2 2.8 2.8z" style="fill:#795548"/><linearGradient id="b" x1="74.4" x2="75.7" y1="51.8" y2="50.5" gradientUnits="userSpaceOnUse"><stop offset="0" style="stop-color:#5d4037;stop-opacity:0"/><stop offset="1" style="stop-color:#5d4037"/></linearGradient><path d="m77.7 51.3-2 2-2.8-2.8 2-2z" style="fill:url(#b)"/><path d="M53.3 38q-.6.4-1 0l-1.8-1.7a1 1 0 0 1 0-1.1l5.2-5.1 2.8 2.8z" style="fill:#795548"/><linearGradient id="c" x1="55.6" x2="56.8" y1="33" y2="31.7" gradientUnits="userSpaceOnUse"><stop offset="0" style="stop-color:#5d4037;stop-opacity:0"/><stop offset="1" style="stop-color:#5d4037"/></linearGradient><path d="m58.9 32.5-2 2-2.8-2.9 2-2z" style="fill:url(#c)"/><path d="M41.3 32q-.5.3-1.1 0l-2.4-2.5a1 1 0 0 1 0-1.1l8.5-8.5 3.5 3.5z" style="fill:#795548"/><linearGradient id="d" x1="46.2" x2="47.4" y1="23.6" y2="22.3" gradientUnits="userSpaceOnUse"><stop offset="0" style="stop-color:#5d4037;stop-opacity:0"/><stop offset="1" style="stop-color:#5d4037"/></linearGradient><path d="m49.8 23.4-2 2-3.5-3.5 2-2z" style="fill:url(#d)"/><path d="M91 75.7q-.5.5-1.1 0L88.2 74a1 1 0 0 1 0-1.2l5.1-5.1 2.8 2.8z" style="fill:#795548"/><linearGradient id="e" x1="93.3" x2="94.5" y1="70.6" y2="69.3" gradientUnits="userSpaceOnUse"><stop offset="0" style="stop-color:#5d4037;stop-opacity:0"/><stop offset="1" style="stop-color:#5d4037"/></linearGradient><path d="m96.6 70.1-2 2-2.9-2.8 2-2z" style="fill:url(#e)"/><path d="M109.8 94.5q-.5.4-1.1 0l-1.7-1.7a1 1 0 0 1 0-1.1l5.1-5.2 2.9 2.9z" style="fill:#795548"/><linearGradient id="f" x1="112.1" x2="113.3" y1="89.5" y2="88.2" gradientUnits="userSpaceOnUse"><stop offset="0" style="stop-color:#5d4037;stop-opacity:0"/><stop offset="1" style="stop-color:#5d4037"/></linearGradient><path d="m115.4 89-2 2-2.8-2.9 2-2z" style="fill:url(#f)"/><path d="M60.2 50.8q-.7.4-1.2 0l-2.4-2.5a1 1 0 0 1 0-1l8.5-8.6 3.6 3.5z" style="fill:#795548"/><linearGradient id="g" x1="65" x2="66.2" y1="42.4" y2="41.1" gradientUnits="userSpaceOnUse"><stop offset="0" style="stop-color:#5d4037;stop-opacity:0"/><stop offset="1" style="stop-color:#5d4037"/></linearGradient><path d="m68.7 42.2-2 2-3.6-3.5 2-2z" style="fill:url(#g)"/><path d="M79 69.6q-.5.4-1.1 0L75.4 67a1 1 0 0 1 0-1l8.6-8.6 3.5 3.5z" style="fill:#795548"/><linearGradient id="h" x1="83.8" x2="85.1" y1="61.2" y2="59.9" gradientUnits="userSpaceOnUse"><stop offset="0" style="stop-color:#5d4037;stop-opacity:0"/><stop offset="1" style="stop-color:#5d4037"/></linearGradient><path d="m87.5 61-2 2-3.5-3.5 2-2z" style="fill:url(#h)"/><path d="M97.8 88.4q-.5.5-1.1 0L94.3 86a1 1 0 0 1 0-1.1l8.5-8.6 3.5 3.6z" style="fill:#795548"/><linearGradient id="i" x1="102.7" x2="103.9" y1="80.1" y2="78.7" gradientUnits="userSpaceOnUse"><stop offset="0" style="stop-color:#5d4037;stop-opacity:0"/><stop offset="1" style="stop-color:#5d4037"/></linearGradient><path d="m106.3 79.9-2 2-3.5-3.6 2-2z" style="fill:url(#i)"/><path d="M34.5 19.2q-.5.4-1.1 0l-1.7-1.7a1 1 0 0 1 0-1.1l5.1-5.2 2.9 2.8z" style="fill:#795548"/><linearGradient id="j" x1="36.8" x2="38" y1="14.2" y2="12.9" gradientUnits="userSpaceOnUse"><stop offset="0" style="stop-color:#5d4037;stop-opacity:0"/><stop offset="1" style="stop-color:#5d4037"/></linearGradient><path d="m40 13.6-2 2-2.7-2.8 2-2z" style="fill:url(#j)"/><path d="M34.5 19.2q-.5.4-1.1 0l-1.7-1.7a1 1 0 0 1 0-1.1l5.1-5.2 2.9 2.8z" style="fill:#795548"/><linearGradient id="k" x1="36.8" x2="38" y1="14.2" y2="12.9" gradientUnits="userSpaceOnUse"><stop offset="0" style="stop-color:#5d4037;stop-opacity:0"/><stop offset="1" style="stop-color:#5d4037"/></linearGradient><path d="m40 13.6-2 2-2.7-2.8 2-2z" style="fill:url(#k)"/></svg>