<svg xml:space="preserve" width="16" height="16" viewBox="0 0 128 128"><path d="m106.9 23-3-3 14-14q.9-.9 1.8-.9l4 .2q.5.1.2.7z" style="fill:#848484"/><ellipse cx="18.7" cy="108.2" rx="3.1" ry="17.2" style="fill:#b9e4ea" transform="rotate(-45 18.69 108.2)"/><path d="M16.6 110.3c-5.2-5.2-10.9-12.8-10-14.2l-2 2c-2.2 2.1 2.4 8.4 9.1 15s13 11.4 15.1 9.2l2-2c-1 1-9-4.8-14.2-10" style="fill:#82aec0"/><path d="M27 114.5s-2.3-.5-8.2-6.4c-6-5.9-6.4-8.2-6.4-8.2l22.7-22.6 14.5 14.5zm35.6-25.9 43.3-43.4q.9-.9 0-1.9L83.5 21c-.5-.6-1.4-.6-1.9 0L38.3 64.3s-2.5.8-6-1.3c-2-1.2-3.6-2-5.4-.3 0 0-.8 3 16.6 20.4s20.8 16.7 20.8 16.7q1.3-1.4-.6-5.4c-1.5-3.2-1.1-5.8-1.1-5.8" style="fill:#b9e4ea"/><path d="M106.5 20.4a4 4 0 0 0-5.6 0l-9 9 5.6 5.7 9-9.1a4 4 0 0 0 0-5.6" style="fill:#00937a"/><path d="m94 30.7-1.3-1.4L100 22a1 1 0 0 1 1.4 0q.5.7 0 1.4z" style="fill:#12d8b7"/><path d="M55.9 85.5s-2.3-.4-8.2-6.3-6.4-8.2-6.4-8.2L59 53.5 73.4 68zm7.6 15.2 1-1.2h-.7L63 99l-4.3-3.6a274 274 0 0 1-29.5-29.9q-1-1-1.7-2.3-.2-.6 0-1-1.7 1.2-3.2 2.8-.4.7 0 1.2c1.4 2 6.5 8.3 17.3 19.1s17 15.7 18.9 17.2q.7.3 1.2-.1l1-1z" style="fill:#82aec0"/><path d="M83.5 25.8c1.9 1.8-.7 4-.7 4L45.2 67.1c-1.1 1.2-2.3 2.7-4 3-2.5.2-5-1.3-6.4-3.3q-.4-.5.2-.6c3.7.8 4.8-.1 7.2-2.7l37.4-37.2c1-1 2.4-2 4-.5" style="fill:#fff"/><path d="M81.5 66.8 60.2 45.6l-5.6 5.5 21.2 21.3z" style="fill:#455a64"/><path d="m59.8 52.7 1.9-2c1-1 2.6-1 3.7 0L78 63.4c1 1 1 2.7 0 3.8l-2 1.7c-1 1-2.7 1-3.7 0L59.8 56.3c-1-1-1-2.6 0-3.6" style="fill:#212121"/></svg>