<svg xml:space="preserve" width="16" height="16" viewBox="0 0 128 128"><path d="m102.3 125.4-76-.3a6.3 6.3 0 0 1-6.3-6.3l12.2-92.1 70.2-22.2c6.1-.3 6.5 2.5 6.5 6l-.4 108.7c0 3.4-2.8 6.2-6.2 6.2" style="fill:#d9cdc9"/><path d="M101.8 122s-57.7 1-76.4 0c-3.6-.2-5.4-1.6-5.4-3.2V10.3c0-3.4 2.8-6.2 6.2-6.2l75.6.3c3.5 0 4.8 2.9 4.8 6.3l-.6 105.4c0 3.5-.6 6-4 6" style="fill:#f1edec"/><path d="M29.8 12.6S31.3 9 32 9s2.3 3.6 2.3 3.6 3.5 0 3.8.6-2.5 3.7-2.5 3.7 1.2 4 .7 4.3-4.2-1.8-4.2-1.8-3.9 2-4.5 1.7c-.6-.5.7-4.6.7-4.6s-2.6-2.7-2.3-3.3 3.8-.6 3.8-.6m68.5 101s-1.5 3.5-2.2 3.6c-.7 0-2.4-3.6-2.4-3.6s-3.5 0-3.8-.5 2.3-3.8 2.3-3.8-.9-4-.4-4.3c.6-.5 4.1 1.8 4.1 1.8s3.9-2.1 4.5-1.7-.6 4.6-.6 4.6 2.5 2.6 2.3 3.3-3.8.6-3.8.6" style="fill:#da0e21"/><path d="M67.1 27.2c-1.5-.2-5.5 7.3-7.5 12-2.7 6.5-2.6 9.4-2.6 9.4V57l16.4-.2s.5-4.5.5-7.1-.5-7-1.8-11.5c-1.1-4.2-3.3-11-4.9-11.1" style="fill:#ffb803"/><path d="M67.8 20.4c-2.2 0-4.5.8-5 4.3-.3 3 2.4 4.8 4.5 5 3.4 0 5-2.5 5-5 0-2.4-2.3-4.2-4.5-4.3" style="fill:#fd8f01"/><path d="m72.5 57.6 7.6 3.2s1.1-8 4.9-11c4.2-3.5 7-2.3 7-2.3l2.7-2.9s-3.3-6.1-11-5c-7.3 1.1-10.2 6.1-10.2 6.1s.2 2.3-.2 6.2c-.3 3.2-.8 5.7-.8 5.7" style="fill:#00c1ec"/><path d="M91.7 45c-2 1.9-1.9 5.6.6 7.3 2.2 1.7 5.6 1.6 7.2-1 1.5-2.5.9-5.7-1.1-6.8-2.5-1.3-4.5-1.5-6.7.6" style="fill:#016aa9"/><path d="m35.8 45.7 2.6 2.4s4.5-2.6 8 1.4A23 23 0 0 1 50.7 60l8-4s-.2-7.9-1-10.3C57 43.8 54.2 39 46 39.2c-6.9 0-10.2 6.5-10.2 6.5" style="fill:#ff605e"/><path d="M32.7 52c1.8 2 5.3 1.9 6.7-.2 1.3-1.9 1.1-4.5-.5-6s-4-1.9-6.2.2c-1.8 1.8-1 4.8 0 6" style="fill:#da0e21"/><path d="M50.5 59.4s4.1-4.6 15-4.4 14.9 4.5 14.9 4.5 1.8 6.4 0 12.3-3.1 6.4-3 8 1.4 3.8 4.6 6c3.2 2 6.1 1.9 6.3 2.8.1 1-1.7 2.5-5.9 2.1s-7-2-7.2-1.6.6 3.5 2.5 5.8c2 2.4 4.6 3.8 4.2 4.7s-7 1.2-11-2.7c-4.2-3.8-5-6.7-5.8-6.6s-2.4 3.4-6.5 6.5c-4.6 3.6-8.6 4.2-9.4 2.8-1-1.6 2.9-3.1 4.3-6.4q2.1-5.2 1.8-5.8c-.3-.3-1.4 2.6-5.5 3.3s-6.9 0-7-1c0-1.1 2.7-1.3 6-4.4 3.2-3 4.2-4.6 4.2-6.1 0-2-2.2-2.7-3.1-9.2-.8-5.2.6-10.6.6-10.6" style="fill:#7958c2"/><path d="M53 61.3s2.2-3.9 12-3.8c10 0 13.1 4.2 13.1 4.2s2 19.7-12.6 19.4C50 80.8 53.1 61.3 53.1 61.3" style="fill:#f1edec"/><path d="M71.6 60.7q-1.2 0-1.3 4-.2 4.2 1.2 4.3c1.4 0 1.4-1.4 1.5-3.7q0-4.6-1.4-4.6m-3.4 4.1c0 .6 1.2 1.3 3.5 1.3q3.3 0 3.4-1.1c0-.7-.8-1.2-3.5-1.3s-3.4.3-3.4 1m-9.4-3.9q1.2 0 1.3 4 .2 4.2-1.2 4.3c-1.4.1-1.4-1.4-1.5-3.7q0-4.6 1.4-4.6m3.4 4.1q-.1 1-3.5 1.4-3.4 0-3.4-1.2c0-.6.8-1.2 3.5-1.3 2.7 0 3.4.4 3.4 1m-1.8 7.3c-.4.8.6 3.9 5 4s5.5-3 5.2-3.8c-.3-1-2.2-.4-5.2-.4s-4.6-.6-5 .2" style="fill:#4f322c"/></svg>