<svg xml:space="preserve" width="16" height="16" viewBox="0 0 128 128"><path d="M54.3 89h-9.1v7.1s8 1 8 11.1h2.7C56.2 96 63.3 96 63.3 96v-7z" style="fill:#99674f"/><linearGradient id="a" x1="11" x2="51.9" y1="28.7" y2="2.1" gradientTransform="matrix(1 0 0 -1 0 128)" gradientUnits="userSpaceOnUse"><stop offset=".5" style="stop-color:#ededed"/><stop offset=".7" style="stop-color:#ddd"/><stop offset="1" style="stop-color:#bdbdbd"/></linearGradient><path d="m54.4 106.7-.1 1-2.7.8-13 3.8a4 4 0 0 0-2.7 3.9v7.8H5.6v-3.5c0-12 13.6-19.2 30.5-22v-3.8q.1-1.3 1.1-1.4l10.3 2.1q1.1.3 2.1.9c2.3 1.3 4.1 4 4.5 7.7z" style="fill:url(#a)"/><path d="M103.1 120.5v3.5H36v-7.8q0-2.8 2.7-4l15.7-4.5.4-3.7q.8-5.7 4.4-7.7a7 7 0 0 1 2.2-.9l10.2-2.1q1.1.1 1.2 1.4v3.4c17 3 30.4 10.8 30.4 22.4" style="fill:#ededed"/><radialGradient id="b" cx="54.6" cy="-2.9" r="53.1" gradientTransform="matrix(1 0 0 -.786 0 128.61)" gradientUnits="userSpaceOnUse"><stop offset=".6" style="stop-color:#fafafa;stop-opacity:0"/><stop offset=".7" style="stop-color:#eaeaea;stop-opacity:.3206"/><stop offset=".9" style="stop-color:#c1c1c1;stop-opacity:.943"/><stop offset="1" style="stop-color:#bdbdbd"/></radialGradient><path d="M72.7 98.1v-3.4q0-1.3-1.2-1.4l-10.2 2.1-2.1.9q-3.7 2-4.5 7.7l-.4 3.7v-1l-.2-2.7c-.4-3.8-2.2-6.4-4.5-7.7q-1-.6-2-.9l-10.4-2.1q-1 .1-1.1 1.4v3.8c-17 2.8-30.5 10-30.5 22v3.5h97.5v-3.5c0-11.6-13.3-19.4-30.4-22.4" style="fill:url(#b)"/><circle cx="44.6" cy="118.4" r="2.3" style="fill:#757575"/><circle cx="72" cy="118.4" r="2.3" style="fill:#757575"/><path d="M81.3 50.5H26.6c-5.9 0-10.7 5.1-10.7 11.4s4.8 11.4 10.7 11.4h54.7c5.9 0 10.7-5.1 10.7-11.4s-4.8-11.4-10.7-11.4" style="fill:#99674f"/><path d="M54 11.1c-17.5 0-33.6 18.6-33.6 45.4S37 96.3 54 96.3s33.6-13.2 33.6-39.8c0-26.8-16.2-45.4-33.6-45.4" style="fill:#ba8d68"/><path d="M62.5 76.2a26 26 0 0 1-16.8 0c-1.9-1.1-3.7.6-3 2.2s6.5 5.4 11.4 5.4 10.5-3.7 11.3-5.4c.8-1.6-1.1-3.3-3-2.2" style="fill:#5d4037"/><path d="M30.8 50.7c3.2-4.5 10.6-4.6 14.4-.8.7.7 1.4 1.6.8 2.6s-1.7.7-2.6.3q-3.7-1.5-7.6-.8l-3.2 1.1c-1.4.4-2.6-1-1.8-2.4m44.4 2.4Q71.8 51.5 68 52q-1.6.3-3.1.8c-.9.4-1.8.9-2.6.3-2.5-1.7 1.9-4.4 3.2-5 2.7-1.2 5.9-1 8.5.3q2 .8 3 2.4c.8 1.4-.4 3-2 2.4" style="fill:#613e31"/><ellipse cx="38.4" cy="58.9" rx="4.9" ry="5.1" style="fill:#49362e"/><ellipse cx="69.5" cy="58.9" rx="4.9" ry="5.1" style="fill:#49362e"/><path d="M57.8 68.1h-7.7q-1.1.6-.7 1.6c.3.7 1.7 2.7 4.5 2.7s4.3-2 4.6-2.7q.4-1.1-.7-1.6" style="fill:#99674f"/><path d="M54 6.8C8 7 17.2 55.6 17.2 55.6l3 7.8q.5.5.8 0c1-4.4 4.5-20 6.3-24.8 1-2.8 4-4.4 6.9-3.9 4.5.9 11.7 1.9 19.6 1.9h.1c8 0 15.2-1 19.7-1.9 3-.5 5.8 1.1 6.9 4 1.7 4.6 5.3 20.1 6.2 24.6q.3.6.8 0l3-7.7S100 7 54 6.8" style="fill:#543930"/><radialGradient id="c" cx="53.9" cy="80.5" r="38.2" gradientTransform="matrix(1 0 0 -1.128 0 138.31)" gradientUnits="userSpaceOnUse"><stop offset=".8" style="stop-color:#6d4c41;stop-opacity:0"/><stop offset="1" style="stop-color:#6d4c41"/></radialGradient><path d="M90.5 55.6S100 7 54 6.8l-6 .3h-.4c-38.7 5-30.2 48.5-30.2 48.5l3 7.8c.1.3.6.3.7 0 1-4.5 4.5-20 6.3-24.8 1-2.8 4-4.4 7-3.8 4.4.8 11.6 1.8 19.5 1.8h.2c8 0 15.1-1 19.6-1.8 3-.6 5.9 1 7 3.8 1.7 4.8 5.2 20.4 6.2 24.8.1.3.6.4.7 0z" style="fill:url(#c)"/><radialGradient id="d" cx="54.7" cy="115.1" r="60.3" gradientTransform="matrix(1 0 0 -.455 0 65.27)" gradientUnits="userSpaceOnUse"><stop offset=".3" style="stop-color:#fafafa"/><stop offset=".5" style="stop-color:#eaeaea"/><stop offset="1" style="stop-color:#c1c1c1"/><stop offset="1" style="stop-color:#bdbdbd"/></radialGradient><path d="M94.9 14.5A88 88 0 0 0 54 4h-.2A88 88 0 0 0 13 14.5c-6.1 4-8.7 9.8-7.2 15.1 1 4 10.2 10.6 10.2 10.6 11.2 5.2 12.2-3.7 38-3.7 25.6 0 26.7 9 37.8 3.7 0 0 9.2-6.6 10.3-10.6 1.4-5.4-1.1-11.1-7.2-15.1" style="fill:url(#d)"/><radialGradient id="e" cx="54" cy="94.4" r="40.7" gradientTransform="matrix(1 .006 .006 -.976 -.6 125.4)" gradientUnits="userSpaceOnUse"><stop offset=".3" style="stop-color:#f8f8f7"/><stop offset=".5" style="stop-color:#e8e8e7"/><stop offset=".9" style="stop-color:#bfbfbf"/><stop offset="1" style="stop-color:#b3b3b3"/></radialGradient><path d="m16.3 47.8-1-8.2s6.9-11.3 39.2-11.3 38.2 11.2 38.2 11.2l-1.2 7.8a175 175 0 0 0-75.2.5" style="fill:url(#e)"/><linearGradient id="f" x1="29.4" x2="36.9" y1="118.9" y2="97.4" gradientTransform="matrix(1 0 0 -1 0 128)" gradientUnits="userSpaceOnUse"><stop offset="0" style="stop-color:#757575;stop-opacity:0"/><stop offset="1" style="stop-color:#757575;stop-opacity:.9"/></linearGradient><path d="M31.7 10.5s2.5 9.7 8.7 18.8c-11.4-.4-13.6-12.6-8.7-18.8" style="fill:url(#f)"/><linearGradient id="g" x1="11" x2="25.5" y1="110.3" y2="95.2" gradientTransform="matrix(1 0 0 -1 0 128)" gradientUnits="userSpaceOnUse"><stop offset="0" style="stop-color:#757575;stop-opacity:0"/><stop offset="1" style="stop-color:#757575;stop-opacity:.9"/></linearGradient><path d="M17 15.6c.6 5.1.2 10.5 9.5 16.9-12.6 3.8-17.9-8.1-9.4-17" style="fill:url(#g)"/><linearGradient id="h" x1="273" x2="280.5" y1="118.9" y2="97.4" gradientTransform="matrix(-1 0 0 -1 351.97 128)" gradientUnits="userSpaceOnUse"><stop offset="0" style="stop-color:#757575;stop-opacity:0"/><stop offset="1" style="stop-color:#757575;stop-opacity:.9"/></linearGradient><path d="M76.6 10.5s-2.5 9.7-8.7 18.8c11.3-.4 13.6-12.6 8.7-18.8" style="fill:url(#h)"/><linearGradient id="i" x1="254.7" x2="269.2" y1="110.3" y2="95.2" gradientTransform="matrix(-1 0 0 -1 351.97 128)" gradientUnits="userSpaceOnUse"><stop offset="0" style="stop-color:#757575;stop-opacity:0"/><stop offset="1" style="stop-color:#757575;stop-opacity:.9"/></linearGradient><path d="M91.2 15.6c-.5 5.1 0 10.5-9.4 16.9 12.6 3.8 17.9-8.1 9.4-17" style="fill:url(#i)"/><linearGradient id="j" x1="54.2" x2="54.2" y1="120.6" y2="99.8" gradientTransform="matrix(1 0 0 -1 0 128)" gradientUnits="userSpaceOnUse"><stop offset="0" style="stop-color:#757575;stop-opacity:0"/><stop offset="1" style="stop-color:#757575;stop-opacity:.9"/></linearGradient><path d="M54.2 7.4q2 2.5 2.7 5.2a18 18 0 0 1 0 10.4q-.7 2.5-2.7 5.1a14 14 0 0 1-2.8-5.1 18 18 0 0 1 2.8-15.6" style="fill:url(#j)"/><radialGradient id="k" cx="53.4" cy="89.2" r="66.1" gradientTransform="matrix(1 0 0 -.509 0 84.18)" gradientUnits="userSpaceOnUse"><stop offset=".8" style="stop-color:#fafafa;stop-opacity:0"/><stop offset=".8" style="stop-color:#eaeaea;stop-opacity:.3206"/><stop offset="1" style="stop-color:#c1c1c1;stop-opacity:.943"/><stop offset="1" style="stop-color:#bdbdbd"/></radialGradient><path d="M94.9 14.5A88 88 0 0 0 54 4h-.2A88 88 0 0 0 13 14.5c-6.1 4-8.7 9.8-7.2 15.1 1 4 10.2 10.6 10.2 10.6 11.2 5.2 12.2-3.7 38-3.7 25.6 0 26.7 9 37.8 3.7 0 0 9.2-6.6 10.3-10.6 1.4-5.4-1.1-11.1-7.2-15.1" style="fill:url(#k)"/><linearGradient id="l" x1="106.9" x2="102.7" y1="74.5" y2="28.9" gradientTransform="matrix(1 0 0 -1 0 128)" gradientUnits="userSpaceOnUse"><stop offset=".1" style="stop-color:#757575"/><stop offset=".2" style="stop-color:#7a7a7a"/><stop offset=".4" style="stop-color:#8a8a8a"/><stop offset=".5" style="stop-color:#9e9e9e"/><stop offset=".5" style="stop-color:#969696"/><stop offset=".5" style="stop-color:#7b7b7b"/><stop offset=".6" style="stop-color:#656565"/><stop offset=".6" style="stop-color:#545454"/><stop offset=".7" style="stop-color:#494949"/><stop offset=".8" style="stop-color:#424242"/><stop offset="1" style="stop-color:#404040"/></linearGradient><path d="M106.7 53.6a18.6 18.6 0 0 0-5.8 36.6l-1.3 9.8 7.2.8.8-10.2a18.6 18.6 0 0 0-1-37" style="fill:url(#l)"/><linearGradient id="m" x1="103" x2="108.5" y1="42" y2="71.7" gradientTransform="matrix(1 0 0 -1 0 128)" gradientUnits="userSpaceOnUse"><stop offset="0" style="stop-color:#212121"/><stop offset="1" style="stop-color:#404040"/></linearGradient><circle cx="105.4" cy="73.3" r="15.3" style="fill:url(#m)"/><path d="M116.2 72c2.1 7.4-3.3 15.2-10.4 10.5S92.4 79 94.7 72.3c2.2-6.7 4-12.5 9.2-11.4 5.3 1.2 10.2 3.6 12.3 11" style="fill:#fff"/><linearGradient id="n" x1="122.2" x2="122.2" y1="77" y2="67.5" gradientTransform="rotate(176.6 -8.52 75.22)scale(-1 1)" gradientUnits="userSpaceOnUse"><stop offset="0" style="stop-color:#ffca28"/><stop offset=".3" style="stop-color:#ffc825"/><stop offset=".6" style="stop-color:#ffc21a"/><stop offset=".9" style="stop-color:#ffb809"/><stop offset="1" style="stop-color:#ffb300"/></linearGradient><circle cx="105.2" cy="71.8" r="5.2" style="fill:url(#n)"/><path d="M116.2 72c1 2.9 1 6.3-.7 9.1a7 7 0 0 1-3.8 3 7 7 0 0 1-4.8-.4l-4-2.3-4.3-2c-1.3-.6-2.9-1.2-4-2.5q-.6-1-.5-2.3l.2-1.2.4-1-.3 1v1.2q0 1.2.6 2 1.6 1.5 4 2.2l4.3 1.7 4 2.3a6 6 0 0 0 4.2.5 6 6 0 0 0 3.3-2.6 10 10 0 0 0 1.6-4.2q.3-2.2-.2-4.5" style="fill:#f7cb4d"/><path d="m99.3 101.6 1.6-11.4h.2q3.1-1.5 6 .1l.5.3-.8 11.8z" style="fill:#757575"/><radialGradient id="o" cx="34.1" cy="138.9" r="19.8" gradientTransform="rotate(88 43.12 193.84)scale(-1 1.057)" gradientUnits="userSpaceOnUse"><stop offset=".3" style="stop-color:#ba8d68"/><stop offset="1" style="stop-color:#a47b62"/></radialGradient><path d="M97.4 102.7q-1.7.3-3.2 1c-1.4.5-8.2-1.5-8.6 5.1 0 1.9-.2 7.6 1.3 10.4 3.2 5.8 15.3 4.4 16.2 4.5 5.8 1 3.2-17.6 0-20l-1.7-.9c-1.2-.6-3-.3-4 0" style="fill:url(#o)"/><radialGradient id="p" cx="113.9" cy="15.1" r="14.5" gradientTransform="rotate(-20.6 456.77 56)scale(1 -1)" gradientUnits="userSpaceOnUse"><stop offset="0" style="stop-color:#a47b62"/><stop offset="1" style="stop-color:#ba8d68"/></radialGradient><path d="m105.4 119.8-6.5-.1q-1.3 0-1.6 1.2-.2 1.5 1.3 1.9l6.5 1c1 0 2-.6 2-1.6l.1-.5q0-1.7-1.8-2" style="fill:url(#p)"/><radialGradient id="q" cx="108.6" cy="26.6" r="14.5" gradientTransform="matrix(1.015 .168 .167 -.986 -7.66 110.58)" gradientUnits="userSpaceOnUse"><stop offset="0" style="stop-color:#a47b62"/><stop offset="1" style="stop-color:#ba8d68"/></radialGradient><path d="M85.6 113.3s1.3.9 3.3 1.7c6.1 2.4 6.9-5 7-6.2.8-6 6-4.6 10.5-5 .9 0 4-.5 4.9-2.6.9-3.4-2.7-3.4-10.2-3.8q-3-.2-6 .1c-9.7 1.4-9.8 11.3-9.5 15.8" style="fill:url(#q)"/><radialGradient id="r" cx="114.9" cy="16" r="16.5" gradientTransform="rotate(-3.8 2044.9 53.52)scale(1 -1)" gradientUnits="userSpaceOnUse"><stop offset="0" style="stop-color:#a47b62"/><stop offset="1" style="stop-color:#ba8d68"/></radialGradient><path d="m107.5 109.2-9.4.8c-1.2.1-1.2 1-1.3 2.3 0 1.2 0 2.3 1.4 2.4l9.4.5c1.6 0 3-1.1 2.9-2.7v-.7c0-1.6-1.4-2.7-3-2.6" style="fill:url(#r)"/><radialGradient id="s" cx="115.5" cy="16.5" r="15.8" gradientTransform="rotate(184.4 1.07 59.67)scale(-1 1)" gradientUnits="userSpaceOnUse"><stop offset="0" style="stop-color:#a47b62"/><stop offset="1" style="stop-color:#ba8d68"/></radialGradient><path d="m107.3 103.8-8 1q-1.8.5-2 2.3.1 2.1 2.4 2.3h8c1.6 0 2.8-1.2 2.7-2.6v-.8a2.5 2.5 0 0 0-3-2.2" style="fill:url(#s)"/><radialGradient id="t" cx="114" cy="16.2" r="15.8" gradientTransform="rotate(-13 670.2 52.1)scale(1 -1)" gradientUnits="userSpaceOnUse"><stop offset="0" style="stop-color:#a47b62"/><stop offset="1" style="stop-color:#ba8d68"/></radialGradient><path d="m106.6 114.9-7.4.4c-1 0-2 .8-2 1.9q0 1.8 2 2.2l7.3.7c1.4.1 2.6-.9 2.7-2.2v-.7c0-1.4-1.2-2.4-2.6-2.3" style="fill:url(#t)"/><path d="M107.8 115.2c0-1-8.3 0-9.3-.9a2 2 0 0 1 .4-3.5c1.6-.7 9.5-1 9.5-1.5 0-.8-10.3 1.6-10.3-2 0-2.4 2.3-2.3 4-2.6 1-.2 5.2-.5 5.2-.8s-1-.2-1.2-.2c-.8-.1-5.7.3-7 .6-2.3.5-2.8 1.7-2.8 2.7q-.2 1.8-.8 3.7c-.7 2.2-3.5 4.3-3.6 4.6 0 .4 1.8-.6 3-1.8.6-.7 1.6-.4 1.8.6l.2 1.4c0 .5 0 3.6-.2 4.6v1.2l.5 1c1 1.2 2.6 1.3 4 1.3.8 0 4.1.4 4.9 0-1.8 0-8.3.1-8-2.4.2-1.4 1.4-1 2.4-.9h4.2c.3 0 1.8 0 1.8-.2 0-.4-3.3-.4-3.6-.4-1.4 0-4.2.2-4.8-1.4q-.3-1 .2-1.8c1-1.2 9.4-.8 9.5-1.3" style="fill:#91674d"/></svg>