<svg xml:space="preserve" width="16" height="16" viewBox="0 0 128 128"><path d="M118.5 102.4H9.5l12-34.2h85z" style="fill:#a15d38"/><path d="M122.1 120.3V89.5L107 47.9H21.1L5.9 89.5v30.8L23.5 70h81z" style="fill:#4e342e"/><path d="M99.5 86.5c-6.3 0-5 11.4-17.1 11.4H43.3c-8.4 0-9.7-11.5-14.4-11.5H5v35.1q.2 2.3 2.5 2.5h113q2.3-.2 2.5-2.5v-35z" style="fill:#f29657"/><path d="M122.9 86 109 47.1q-.6-1.6-2.4-1.7H21.3q-1.7.1-2.4 1.7L5 86a2 2 0 0 0 1.8 2.5h21a4 4 0 0 1 3.5 2.2C33 94 37 100 44.3 100h39.5c7.2 0 11.2-6 12.8-9.3a4 4 0 0 1 3.6-2.2h21c1.2 0 2-1.2 1.7-2.5m-7.4-1.6h-15.3a8 8 0 0 0-7.1 4.4c-1.4 2.7-4.3 7.1-9.3 7.1H44.3c-5 0-8-4.4-9.4-7a8 8 0 0 0-7-4.5H12.4a2 2 0 0 1-1.8-2.5l11-30.8q.7-1.5 2.3-1.6h80q1.6.1 2.2 1.6L117.3 82a2 2 0 0 1-1.8 2.5" style="fill:#ffcc80"/><path d="M51.4 37.4v23.7q0 .9.9 1h23.4q.9-.1 1-1V37.4q0-.8.8-.9h12.1c.8 0 1.2-.9.7-1.4L64.7 4.3a1 1 0 0 0-1.4 0L37.7 35.1c-.5.6-.1 1.4.7 1.4h12q1 0 1 1" style="fill:#f44336"/></svg>