<svg xml:space="preserve" width="16" height="16" viewBox="0 0 128 128"><g style="opacity:.2"><path d="M64.7 20C19.5 20 5 61.3 5 61.3S17.4 101 64.7 101q11.2 0 21.7-3.2c6 8.5 18.7 12.5 25.3 13.3h.2a2 2 0 0 0 1.7-3c-3-4.4-7.6-12-9.2-19.7 9-7 15.8-16.5 19.7-27.2 0 0-14.1-41.3-59.4-41.3" style="fill:#fff"/></g><path d="M104.4 88.5c9-7 15.8-16.5 19.7-27.2 0 0-14.1-41.3-59.4-41.3S5 61.3 5 61.3 17.4 101 64.7 101q11.2 0 21.7-3.2c6 8.5 18.7 12.5 25.3 13.3a2 2 0 0 0 1.9-3 61 61 0 0 1-9.2-19.7" style="fill:#fff"/><circle cx="64.7" cy="60.5" r="28.8" style="fill:#3f474c"/><circle cx="64.7" cy="60.5" r="16" style="fill:#231f20"/><circle cx="81.9" cy="56.3" r="6.8" style="fill:#f5f8fa"/><g style="opacity:.2"><path d="M64.7 20C19.5 20 5 61.3 5 61.3S17.4 101 64.7 101q11.2 0 21.7-3.2c6 8.5 18.7 12.5 25.3 13.3h.2a2 2 0 0 0 1.7-3c-3-4.4-7.6-12-9.2-19.7 9-7 15.8-16.5 19.7-27.2 0 0-14.1-41.3-59.4-41.3" style="fill:none"/></g><path d="M104.4 88.5c9-7 15.8-16.5 19.7-27.2 0 0-14.1-41.3-59.4-41.3S5 61.3 5 61.3 17.4 101 64.7 101q11.2 0 21.7-3.2c6 8.5 18.7 12.5 25.3 13.3a2 2 0 0 0 1.9-3 61 61 0 0 1-9.2-19.7z" style="fill:none;stroke:#000;stroke-width:6;stroke-linejoin:round"/></svg>