<svg xml:space="preserve" width="16" height="16" viewBox="0 0 128 128"><radialGradient id="a" cx="63.6" cy="2288.9" r="57" gradientTransform="translate(0 -2226)" gradientUnits="userSpaceOnUse"><stop offset=".5" style="stop-color:#fde030"/><stop offset=".9" style="stop-color:#f7c02b"/><stop offset="1" style="stop-color:#f4a223"/></radialGradient><path d="M63.6 118.8c-27.9 0-58-17.5-58-55.9S35.7 7 63.6 7c15.5 0 29.8 5.1 40.4 14.4 11.5 10.2 17.6 24.6 17.6 41.5s-6.1 31.2-17.6 41.4a61 61 0 0 1-40.4 14.5" style="fill:url(#a)"/><path d="M111.5 29.7a57 57 0 0 1 8.1 30.2c0 16.9-6.1 31.2-17.6 41.4a61 61 0 0 1-40.4 14.5 59 59 0 0 1-48.2-23 58 58 0 0 0 50.2 26c15.4 0 29.8-5.2 40.4-14.5a54 54 0 0 0 17.6-41.4q-.1-19.2-10.1-33.2" style="fill:#eb8f00"/><g style="opacity:.9"><radialGradient id="b" cx="246.2" cy="-50.4" r="21.3" gradientTransform="matrix(.89 0 0 -.78 -117.55 32.61)" gradientUnits="userSpaceOnUse"><stop offset="0" style="stop-color:#ed7770"/><stop offset=".1" style="stop-color:#ed7770;stop-opacity:.97"/><stop offset=".2" style="stop-color:#ed7770;stop-opacity:.88"/><stop offset=".3" style="stop-color:#ed7770;stop-opacity:.74"/><stop offset=".5" style="stop-color:#ed7770;stop-opacity:.55"/><stop offset=".7" style="stop-color:#ed7770;stop-opacity:.29"/><stop offset=".9" style="stop-color:#ed7770;stop-opacity:0"/></radialGradient><ellipse cx="101.7" cy="71.8" rx="17.4" ry="16" style="fill:url(#b)"/></g><path d="M122.2 44a5 5 0 0 0-6.8 0L80.8 78.6l-5 4.9q5.7.9 11 2.7l3.5-3.4L111 62.3l1.2-1 10-10.5a5 5 0 0 0 0-6.8" style="fill:#e6e6e6"/><path d="M109 58a3 3 0 0 0-4.5 0L78 83.9q3.6.6 7 1.7l24-23a3 3 0 0 0 0-4.6" style="fill:red"/><path d="M64.1 76c-8-.1-16 1.9-23.1 5.8-2.6 1.4-.9 5 1.4 4.1q10.5-3.5 21.6-3.3 6 0 11.8.9l5-5Q72.7 76 64 76m26.9 10.3a2.3 2.3 0 0 0-.5-3.5l-3.5 3.4 1.5.6q1.4.6 2.5-.5" style="fill:#422b0d"/><path d="m86.8 86.2 3.5-3.5z" style="fill:#e6e6e6"/><path d="m118.7 54.5-2.8-2.7a.9.9 0 1 1 1.2-1.2l2.8 2.7zm-5.1 5.3-1.5-1.5a1 1 0 0 1 0-1.3q.6-.5 1.2 0l1.5 1.5zm-9.7 9.7-1.5-1.5a.9.9 0 1 1 1.2-1.2l1.5 1.4zM94 79.1l-1.4-1.4a.9.9 0 1 1 1.2-1.2l1.4 1.4zm15-14.7-2.7-2.7a.9.9 0 1 1 1.2-1.2l2.7 2.7zM99.2 74l-2.7-2.7a.9.9 0 1 1 1.2-1.2l2.8 2.7zm-9.8 9.7L86.7 81a.9.9 0 1 1 1.2-1.2l2.7 2.6z" style="fill:#404040"/><path d="M46 38.6a1.8 1.8 0 0 0 .1-3.7q-2.9-.3-5.8.3a21 21 0 0 0-13 8c-1.4 2.1 1.3 3.9 3 2.4a25 25 0 0 1 15.7-7m36 .2c-1 0-2-.8-2-1.8q.2-1.6 1.8-1.9 3-.3 5.8.3a21 21 0 0 1 13 8c1.4 2.1-1.2 4-2.9 2.4a26 26 0 0 0-15.8-7M44 46c-4.2 0-8 3.5-8 9.4s3.8 9.4 8 9.4 8-3.6 8-9.4-3.8-9.5-8-9.5" style="fill:#422b0d"/><path d="M43.7 49.9a3 3 0 0 0-3.9 1.3q-.7 1.8.6 3.3a3 3 0 0 0 3.9-1.3 3 3 0 0 0-.6-3.3" style="fill:#896024"/><path d="M82.4 46c-4.2 0-8 3.5-8 9.4s3.8 9.4 8 9.4 8-3.6 8-9.4-3.8-9.5-8-9.5" style="fill:#422b0d"/><path d="M82 49.9a3 3 0 0 0-3.8 1.3q-.7 1.8.6 3.3c1.4.7 3.1 0 3.8-1.3.5-1.1.3-2.5-.6-3.3" style="fill:#896024"/><g style="opacity:.9"><radialGradient id="c" cx="162.9" cy="-52.7" r="21.3" gradientTransform="matrix(.89 0 0 -.78 -117.55 33.44)" gradientUnits="userSpaceOnUse"><stop offset="0" style="stop-color:#ed7770"/><stop offset=".1" style="stop-color:#ed7770;stop-opacity:.97"/><stop offset=".2" style="stop-color:#ed7770;stop-opacity:.88"/><stop offset=".3" style="stop-color:#ed7770;stop-opacity:.74"/><stop offset=".5" style="stop-color:#ed7770;stop-opacity:.55"/><stop offset=".7" style="stop-color:#ed7770;stop-opacity:.29"/><stop offset=".9" style="stop-color:#ed7770;stop-opacity:0"/></radialGradient><ellipse cx="27.4" cy="74.4" rx="17.4" ry="16" style="fill:url(#c)"/></g></svg>