<svg xml:space="preserve" width="16" height="16" viewBox="0 0 128 128"><path d="M34.6 46.7S27.3 54.6 21.5 59C15 64 3 69.2 4.5 73.8c1 3.3 10.4 3.6 13.6 2.7s17.2 8.8 17.2 8.8 65.3-1.9 66-2.6a42 42 0 0 1 12.5-6.6c2.6.2 8.3-1.4 9.5-4.2 1-2.4-4.8-5.2-10.7-9-9.7-6.4-12.7-11.7-12.7-11.7s5.7-18.4-6.7-31.2C81.7 8 58 4.8 44 19.3c-11 11.2-9.3 27.4-9.3 27.4" style="fill:#ffb903"/><path d="M28.5 69.2 29 77l-5.6.5zm71.4 11 .4-8 5 4.9z" style="fill:#b0b1b3"/><path d="M65.8 122.6c27.2-.2 45.7-23.1 46.6-41.4.3-6-3.2-5.1-3.2-5.1l-5.4-2-7.8 6.2S82 70.3 80.6 70c-1.4-.2-16 9.5-16 9.5s-15.4-9.9-16.7-9.9-13.5 9.2-13.5 9.2l-9.1-6.4-5 3.8-3.7 1.3s1 45.3 49.2 45" style="fill:#dedede"/><path d="M28.8 98.7c4.2 6.4 7.7 9 9 10.2s3.3 2.4 4.7.8c1.3-1.5-.2-3-2.1-5s-6.3-6.5-8-9.1-3.7-8-4.1-9.1c-.4-1.2-1.9-3.4-3.9-2.5-2 1-1.3 3.4-.7 5 .6 1.4 1.6 4.4 5 9.7" style="fill:#fdfdfd"/><ellipse cx="49" cy="112.4" rx="2.6" ry="3.1" style="fill:#fdfdfd" transform="rotate(-73.2 48.98 112.38)"/><path d="M31.1 66c2.1 1.6-.7 4-1.7 5-.7.8-5.4 6.7-11.8 7.5-6.2.7-9.7-1.1-12.2-3.4-2-1.9-.8-3 .7-1.6 1 .8 5 2.6 10.3 1.7s8.8-4.4 10.3-6c.9-1 3-4.2 4.4-3.2m65.5 1.8c-1.2 1.4.3 3.3 2.7 5s8.3 6.3 17 5c6.8-1.2 7.9-6.9 6.7-6.3-1.2.5-3.9 3-7 3.2a18 18 0 0 1-11-2.4c-2.8-1.8-3.7-2.7-5.3-4-.5-.3-2-1.8-3-.5" style="fill:#ff8e01"/><path d="M57.5 31.5c-.3 2.8-1.9 5.7-4.8 5.2-3.1-.5-4-3.1-3.8-6s2.5-4.6 4.7-4.4 4.1 2.3 3.9 5.2m34.1 7.2c-.6 2.8-2.4 5.3-5.3 4.7-3.1-.6-3.8-3.5-3-7 .7-2.7 3.2-3.7 5.4-3.3s3.4 2.7 2.9 5.6" style="fill:#2e3030"/><path d="M71.4 34.7c-.7-.4-11.1 8.3-11.1 8.3s5.1 12 5.6 12.1S76.4 47 76.4 47s-4.5-12-5-12.2" style="fill:#ff8c00"/><path d="M58.3 42.1q-.7 2 2.6 3l3.6 1s1 3.7 2.6 4.1 4.2-2.4 4.2-2.4l3 .3c1 0 3.3.8 3.5-1 .3-2-2.3-1.7-3.2-2-.9-.1-3-.7-3-.7s-.5-3.8-2-4.2c-1.4-.4-4.2 2.9-4.2 2.9l-3.2-1c-.8-.3-3.3-1.3-3.9 0" style="fill:#ff5f02"/></svg>