<svg xml:space="preserve" width="16" height="16" viewBox="0 0 128 128"><circle cx="62.5" cy="112" r="12" style="fill:#bdbdbd"/><circle cx="60.9" cy="112" r="10.3" style="fill:#e0e0e0"/><path d="M55.1 108.4a10 10 0 0 1 6.5-3.7 4 4 0 0 1 1.9.1q.8.3.5 1-.4.5-1.1.6-4 1.2-6.2 4.4c-.5.8-1.4 2.9-2.4 2.4-1-.7-.8-2.6.8-4.8" style="fill:#fff"/><path d="M46.1 24.3q-3.1 3-4 7.4c-.3 1.9-2 3.2-3.9 3.2h6.9c1.9 0 3.6-1.3 3.9-3.2q.8-4.4 4-7.4 3.2-2.9 7.8-3.6-1.7-.3-3.5-.3a17 17 0 0 0-11.2 3.9m43.4-12.1A36 36 0 0 0 64.2 4l-3.4.1q13.7.8 21.8 8.1a29 29 0 0 1 9.1 23q0 13.2-12.2 25.9l-9.8 9.6-.3.3q-4.3 5-5.2 13.9a4 4 0 0 1-4 3.6h6.9a4 4 0 0 0 4-3.6A24 24 0 0 1 76.3 71l.3-.3 9.8-9.6q12.3-12.7 12.2-25.9a30 30 0 0 0-9.1-23" style="fill:#bdbdbd"/><path d="M64.2 85a24 24 0 0 1 5.2-13.9l.3-.3 9.8-9.6q12.3-12.7 12.2-25.9 0-14.7-9.1-23a34 34 0 0 0-21.8-8.1q-13.4.8-21.9 8.2a27 27 0 0 0-9.4 18.1 4 4 0 0 0 4 4.4h4.8c1.9 0 3.6-1.3 3.9-3.2q.8-4.5 4-7.4a16 16 0 0 1 11.2-3.9q1.8 0 3.5.3 1.6-.3 3.4-.3 7.2 0 11 4c3.8 4 3.8 6.5 3.8 11.5q0 5.7-3.2 10.6a75 75 0 0 1-10 10.9 45 45 0 0 0-10.5 14 38 38 0 0 0-2.5 12.9 4 4 0 0 0 4 4.2h3.5c1.8.1 3.6-1.5 3.8-3.5" style="fill:#e0e0e0"/><path d="M39.6 15.9C43 11.7 49.5 8.7 56 8.3q2.5-.2 4.5.7c1 .5 1.7 1.6 1 2.6q-1.1 1.1-2.8 1.3c-6.1 1.2-12 4.7-15.9 9.3-1.5 1.8-4 6.8-6.2 5.2-2.3-1.9-1.2-6.4 3-11.5" style="fill:#fff"/></svg>