<svg xml:space="preserve" width="16" height="16" viewBox="0 0 128 128"><path d="M116 4H12a8 8 0 0 0-8 8v104a8 8 0 0 0 8 8h104a8 8 0 0 0 8-8V12a8 8 0 0 0-8-8" style="fill:#bdbdbd"/><path d="M109.7 4H11.5A7.6 7.6 0 0 0 4 11.5v97.9c0 4.1 3.3 7.5 7.5 7.5h98.1c4.1 0 7.5-3.3 7.5-7.5V11.5c0-4-3.1-7.4-7.2-7.5z" style="fill:#e0e0e0"/><path d="M39.7 12.9c0-2.3-1.6-3-10.8-2.7-7.7.3-11.5 1.2-13.8 4-1.9 2.3-2.3 5.6-2.6 8.4-.2 2.2-2.2 14.9 3.5 11.2q1-.6 1.6-1.8c1.2-2.1 1.9-3.5 3.3-5.6 5.3-8.6 18.8-10.5 18.8-13.5" style="fill:#fff"/><path d="M81.8 46c-2-4-2-7.6-3-11.3a15.2 15.2 0 0 0-29.8 0c-1 3.7-1 7.3-3 11.2-1.6 3.4-3.3 3.2-3.3 5s2.5 3.1 5.7 3.5c2.6.4 5.4.1 7.5-.7a16 16 0 0 1-5.7-8.2c-.3-1.2-.6-2.2.1-2.3.8-.2.6 1.3 2.3 3.5 3.4 4.5 6.2 6 11.2 6s7.8-1.5 11.3-6c1.7-2.2 1.4-3.5 2.3-3.5s.3 1.3 0 2.4c-.4 1.8-2 5.6-5.5 8.1 2.1.8 4.9 1 7.5.7C82.5 54 85 52.6 85 51s-1.7-1.6-3.3-5M62.2 83.3q.2 1.5 1.7 1.6c1.5 0 1.6-.7 1.7-1.6.9-9 8.9-16 18.3-15-2.4-7.8-10.3-11.5-17.9-11.5h-6.3c-7.3 0-13.5 3.9-15.7 11.5 9.4-1 17.4 6 18.2 15"/><circle cx="82.2" cy="84.8" r="12.3"/><path d="M70 110.8c-1 0-1.7-1-1.5-1.9 1.4-5 7-9 13.7-9s12.3 4 13.7 9c.2 1-.5 2-1.5 2z"/><circle cx="45.6" cy="84.8" r="12.3"/><path d="M33.4 110.8c-1 0-1.7-1-1.5-1.9 1.4-5 7-9 13.7-9s12.3 4 13.7 9c.2 1-.5 2-1.5 2zm36.3-15.9c-.8-1-2.9-1.4-4.4-.2l-1.4 1.5-1.3-1.5c-1.6-1.2-3.7-.8-4.5.2q-2 2.4.5 5.5C61 103.2 64 106 64 106s3-2.7 5.2-5.5q2.6-3.1.6-5.5"/></svg>