<svg xml:space="preserve" width="16" height="16" viewBox="0 0 128 128"><path d="M24 104a17 17 0 0 1 0-23.8l18.7-18.8A17 17 0 0 1 58.6 57q4.3 1 7.6 4.2l.3.2a17 17 0 0 1 0 23.9L47.7 104a17 17 0 0 1-23.8 0m53-53a32 32 0 0 0-45 0L13.2 69.7c-12.3 12.4-12.3 32.7 0 45s32.7 12.4 45 0L77.1 96a32 32 0 0 0-.2-45" style="fill:#84b0c1"/><path d="M66.9 48.5c3.3-1.7 6.5-.5 6.5-.5-7-5.2-14.5-6.6-21-6.2l-.1.2a17 17 0 0 0-1.7 15A17 17 0 0 1 62 58.3s-.6-7 4.9-9.8m-20.1 10 .2-3a62 62 0 0 1 2.4-13.4q-4.6.8-9 2.9c-4.4 5.7-3 13.1 2.3 16.5q1.7-1.8 4-3" style="fill:#2f7889"/><path d="M104 24a17 17 0 0 1 0 23.8L85.4 66.6a17 17 0 0 1-16 4.4q-4.3-1.1-7.6-4.2l-.3-.2a17 17 0 0 1 0-23.9L80.3 24a17 17 0 0 1 23.8 0M51 77a32 32 0 0 0 45 0l18.7-18.7c12.3-12.4 12.3-32.7 0-45s-32.7-12.4-45 0L50.9 32a32 32 0 0 0 .2 45" style="fill:#84b0c1"/><path d="M50.5 39.4a4 4 0 0 1 1.9-1.1q1.2-.1 1.7.9.2.7-.1 1.5c-2.7 8-4.8 18-2.2 26.2.2.8.5 1.9-.2 2.4q-.7.4-1.4 0c-4.7-2.6-5.5-9.4-5.7-14.2a19 19 0 0 1 6-15.7" style="fill:#a8e3f0"/><path d="m71.3 71.3-1.3-.2s-.1 4.3-3.5 7.8c-3.8 4-7.6 3.9-7.6 3.9 2 1.1 6 2.3 7.4 2.6l.2-.1c3.8-3.8 5.4-9 4.8-14m19.5-10.1-5.4 5.3q2 9.1-1 18 3.8-1.5 7.3-3.9c3.9-6.5 3-14.3-1-19.4" style="fill:#2f7889"/><path d="M79.9 70c-.6-1.6-1.9-3.2-3.4-3-1 0-2.5 1-2.4 3.7.1 2.1 1 4.2-.2 7-1.7 4-1.4 5.2-1 5.8q.8 1 2.1 1c2 0 3.7-1.8 4.6-3.9 1.5-3.2 1.6-7.2.3-10.6m-30.6 38.2c.6-.5 2.3-2.3 3-1.2-.3 3-2.6 5.6-5.2 7.3a19 19 0 0 1-10.8 3.1c-3.2 0-8.4-1.3-10.3-4.3-1.5-2.3 1.7-2.7 3.5-2a19 19 0 0 0 19.8-3" style="fill:#a8e3f0"/></svg>