<svg xml:space="preserve" width="16" height="16" viewBox="0 0 128 128"><linearGradient id="a" x1="64" x2="64" y1="40" y2="5.7" gradientTransform="matrix(1 0 0 -1 0 128)" gradientUnits="userSpaceOnUse"><stop offset="0" style="stop-color:#f78c1f"/><stop offset=".5" style="stop-color:#f47f12"/><stop offset="1" style="stop-color:#ef6c00"/></linearGradient><path d="M80.7 88.5a346 346 0 0 0-33.4 0C29.3 92 16 101 16 118v6.1h96V118c0-17-13.2-26-31.3-29.4" style="fill:url(#a)"/><path d="M99 86.4c-1.2-2.3.4-4.5 3-7.3 4.4-4.5 9-14.8 4.7-25.3l-.8-1.9H104a3374 3374 0 0 0-80 0l-2.6 1.9a24 24 0 0 0 4.7 25.3c2.7 2.8 4.3 5 3 7.3-1.2 2.1-4.8 2.4-4.8 2.4s.8 2.3 2.8 3.4a12 12 0 0 0 5.8 1.4S39 102 55.2 102H73c16 0 22.2-8.4 22.2-8.4a12 12 0 0 0 5.7-1.4c2-1.1 2.8-3.4 2.8-3.4s-3.6-.3-4.8-2.4" style="fill:#543930"/><radialGradient id="b" cx="99.5" cy="37.9" r="23.4" gradientTransform="matrix(1 0 0 .482 -20.82 70.36)" gradientUnits="userSpaceOnUse"><stop offset=".7" style="stop-color:#6d4c41;stop-opacity:0"/><stop offset="1" style="stop-color:#6d4c41"/></radialGradient><path d="M64.1 102v-9.3l28.6-2.2 2.6 3.1S89 102 73 102z" style="fill:url(#b)"/><radialGradient id="c" cx="76.5" cy="41.4" r="6.9" gradientTransform="matrix(-.906 .416 -.314 -.659 184.02 80.68)" gradientUnits="userSpaceOnUse"><stop offset=".7" style="stop-color:#6d4c41"/><stop offset="1" style="stop-color:#6d4c41;stop-opacity:0"/></radialGradient><path d="M95.2 89.6c-4.3-6.4 5.2-8.7 5.2-8.7-1.6 2-2.4 3.7-1.4 5.5 1.2 2.1 4.8 2.4 4.8 2.4s-4.9 4.3-8.6.8" style="fill:url(#c)"/><radialGradient id="d" cx="94.4" cy="60.9" r="30.4" gradientTransform="matrix(-.075 -.978 .831 -.061 40.22 162.04)" gradientUnits="userSpaceOnUse"><stop offset=".7" style="stop-color:#6d4c41;stop-opacity:0"/><stop offset="1" style="stop-color:#6d4c41"/></radialGradient><path d="M106.7 53.8a25 25 0 0 1-4.4 25c-.5.6-3 3-3.5 4.8 0 0-9.6-13-12.4-20.7a16 16 0 0 1-1.2-4.8q-.2-2 .9-3.7c.9-1.3 20.1-1.7 20.1-1.7z" style="fill:url(#d)"/><radialGradient id="e" cx="44.4" cy="60.9" r="30.4" gradientTransform="matrix(.075 -.978 -.831 -.061 91.77 113.17)" gradientUnits="userSpaceOnUse"><stop offset=".7" style="stop-color:#6d4c41;stop-opacity:0"/><stop offset="1" style="stop-color:#6d4c41"/></radialGradient><path d="M21.5 53.8a25 25 0 0 0 4.4 25c.6.6 3 3 3.6 4.8 0 0 9.5-13 12.4-20.7q.9-2.2 1.2-4.8a6 6 0 0 0-1-3.7c-.8-1.3-1.8-1-3.3-1-3 0-15.5-.7-16.5-.7z" style="fill:url(#e)"/><radialGradient id="f" cx="49.6" cy="37.9" r="23.4" gradientTransform="matrix(-1 0 0 .482 99.12 70.36)" gradientUnits="userSpaceOnUse"><stop offset=".7" style="stop-color:#6d4c41;stop-opacity:0"/><stop offset="1" style="stop-color:#6d4c41"/></radialGradient><path d="M64.2 102v-9.3l-28.6-2.2-2.6 3.1s6 8.4 22.2 8.4z" style="fill:url(#f)"/><radialGradient id="g" cx="26.5" cy="41.4" r="6.9" gradientTransform="matrix(.906 .416 .314 -.659 -10.5 101.45)" gradientUnits="userSpaceOnUse"><stop offset=".7" style="stop-color:#6d4c41"/><stop offset="1" style="stop-color:#6d4c41;stop-opacity:0"/></radialGradient><path d="M33 89.6c4.3-6.4-5.2-8.7-5.2-8.7q2.7 2.9 1.4 5.5c-1.2 2.1-4.8 2.4-4.8 2.4s5 4.3 8.6.8" style="fill:url(#g)"/><path d="M55 93.9v10c0 4.4 4.3 8.1 9 8.1s9-3.7 9-8.2v-10zm36.3-35.5H36.7c-6 0-10.7 5.2-10.7 11.4s4.8 11.5 10.7 11.5h54.6c6 0 10.7-5.2 10.7-11.5s-4.8-11.4-10.7-11.4" style="fill:#99674f"/><path d="M64 19c-17.4 0-33.5 18.7-33.5 45.5C30.5 91 47 104.3 64 104.3S97.5 91 97.5 64.5C97.5 37.7 81.4 19 64 19" style="fill:#ba8d68"/><path d="M67.8 78h-7.6q-1.1.5-.7 1.7a5 5 0 0 0 4.5 2.6c2.8 0 4.2-2 4.5-2.6q.4-1.2-.7-1.6" style="fill:#99674f"/><path d="M56.7 91.8a26 26 0 0 1 14.6 0c.8.2 1.2-.6.7-1.4-.8-1.2-3.7-3.5-8-3.5s-7.2 2.3-8 3.5c-.5.8-.1 1.6.7 1.4" style="fill:#5d4037"/><path d="M43.3 68.3q0-.8.3-1.5l3.1-.7q2.5-.8 4-2.2a6 6 0 0 1 1.6 4.4c0 3-2.1 5.5-4.6 5.5s-4.4-2.5-4.4-5.5m41.4 0q0-.8-.3-1.5l-3.1-.7q-2.5-.8-4-2.2-1.6 1.6-1.6 4.4c0 3 2.1 5.5 4.6 5.5s4.4-2.5 4.4-5.5" style="fill:#49362e"/><path d="M55.3 58.4c-1.2-1-3.8-2.4-8.1-1.6-4.4.8-6.3 3-7.1 4.3q-.4 1 .2 1.5t2.1 0c.9-.4 2.5-1.5 5.4-2s4.9 0 5.9 0c.9.2 1.7-.3 1.9-.6q.4-.8-.3-1.6m32.6 2.7c-.8-1.3-2.7-3.5-7-4.3s-7 .6-8.2 1.7q-.7.7-.3 1.5.4.7 2 .7c.9-.1 2.8-.7 5.8-.2 3 .6 4.5 1.7 5.4 2.2s1.7.2 2 0q.7-.6.3-1.6" style="fill:#613e31"/><path d="M104.2 32.7c-2.5-3.7-8-8.5-12.8-8.8-.8-4.7-5.9-8.6-10.8-10.1a31 31 0 0 0-26.4 3c-1 .5-7.2 3.9-11.5 1.4-2.8-1.5-2.7-5.6-2.7-5.6s-8.5 3.2-5.6 12a10 10 0 0 0-8.8 5.4 13 13 0 0 0-.9 10.8A11 11 0 0 0 21.2 53c1.6 4.4 8.2 6.4 8.2 6.4-.5 7.9 1 12.7 1.8 14.7.1.3.6.3.7 0 1-4 4.4-17.5 4-20 0 0 11.4-2.1 22.2-10q3.3-2.3 7.1-3.9C78.8 34.9 81.7 44 81.7 44s9.4-1.8 12.2 11c1.1 4.8 1.8 12.5 2.4 18 0 .3.6.4.8 0 .9-2.1 2.8-6.3 3.3-10.7.1-1.5 4.3-3.5 6-10 2.5-8.7-.4-17.1-2.2-19.7" style="fill:#543930"/><radialGradient id="h" cx="82.1" cy="77" r="35.6" gradientTransform="matrix(.308 .933 .706 -.224 2.52 -9.16)" gradientUnits="userSpaceOnUse"><stop offset=".7" style="stop-color:#6d4c41;stop-opacity:0"/><stop offset="1" style="stop-color:#6d4c41"/></radialGradient><path d="M100.3 62.5c.2-1.5 4.4-3.6 6.2-10l.5-2.2a27 27 0 0 0-2.8-17.6A22 22 0 0 0 92.5 24h-1.2s.4 2-.5 3.7c-1.1 2.2-3.4 2.7-3.4 2.7 12 11.7 11.1 21.6 13 32" style="fill:url(#h)"/><radialGradient id="i" cx="47.4" cy="115.8" r="9.3" gradientTransform="matrix(.881 .464 .56 -1.025 -59.28 108.91)" gradientUnits="userSpaceOnUse"><stop offset=".6" style="stop-color:#6d4c41"/><stop offset="1" style="stop-color:#6d4c41;stop-opacity:0"/></radialGradient><path d="m57 15.3-2.8 1.5c-1 .5-7.2 3.9-11.5 1.5-2.7-1.5-2.7-5.5-2.7-5.7-1.2 1.6-5 12.6 6 13.3 4.6.3 7.5-3.7 9.2-7z" style="fill:url(#i)"/><radialGradient id="j" cx="167" cy="66.2" r="28.7" gradientTransform="matrix(-.938 -.387 -.218 .518 239.3 59.1)" gradientUnits="userSpaceOnUse"><stop offset=".7" style="stop-color:#6d4c41;stop-opacity:0"/><stop offset="1" style="stop-color:#6d4c41"/></radialGradient><path d="M79.3 13.4c7.3 2 10.9 5.6 12 10.5.4 1.4.8 14.8-25.2-.4-9.6-5.6-7-9.2-5.9-9.6a32 32 0 0 1 19-.5" style="fill:url(#j)"/><radialGradient id="k" cx="43.6" cy="107.3" r="8.6" gradientTransform="matrix(1 0 0 -1.2 0 149.28)" gradientUnits="userSpaceOnUse"><stop offset=".7" style="stop-color:#6d4c41;stop-opacity:0"/><stop offset="1" style="stop-color:#6d4c41"/></radialGradient><path d="M40 12.6h-.1c-1 .4-8.2 3.8-5.5 12l7.8 1.3c-7-6.8-2.2-13.3-2.2-13.3" style="fill:url(#k)"/><radialGradient id="l" cx="42.5" cy="92.2" r="16.1" gradientTransform="matrix(-.966 -.255 -.243 .886 105.9 -35.5)" gradientUnits="userSpaceOnUse"><stop offset=".7" style="stop-color:#6d4c41;stop-opacity:0"/><stop offset="1" style="stop-color:#6d4c41"/></radialGradient><path d="m39.2 25.4-4.8-.7h-1.2a10 10 0 0 0-7.6 5.3c-1.9 3.8-1.8 7-1.3 9.2l.4 1.6s2.4-2.2 8-2.4z" style="fill:url(#l)"/><radialGradient id="m" cx="38.7" cy="76.6" r="16.9" gradientTransform="matrix(.99 .134 .192 -1.365 -14.32 150.09)" gradientUnits="userSpaceOnUse"><stop offset=".6" style="stop-color:#6d4c41;stop-opacity:0"/><stop offset="1" style="stop-color:#6d4c41"/></radialGradient><path d="M24.5 41c-2.4 2-5.6 6.6-3.2 12.3 1.7 4.3 8 6.2 8 6.2s1.3.4 2 .4l1.5-21.5c-3 0-6 1-7.9 2.2z" style="fill:url(#m)"/></svg>