<svg xml:space="preserve" width="16" height="16" viewBox="0 0 128 128"><linearGradient id="a" x1="64" x2="64" y1="107" y2="4.5" gradientTransform="matrix(1 0 0 -1 0 128)" gradientUnits="userSpaceOnUse"><stop offset="0" style="stop-color:#00bfa5"/><stop offset=".5" style="stop-color:#00b29a"/><stop offset="1" style="stop-color:#009e89"/></linearGradient><path d="M108 124S96.5 95 96.2 95.6c-1.8 4.3-3.8 7.4-11.7 4.8a59 59 0 0 0-20.2-2.5h-.6c-8.3 0-13.8.4-20.1 2.5-8 2.6-10-.5-11.8-4.8C31.5 95 20 124 20 124z" style="fill:url(#a)"/><path d="M55 90v10c0 4.6 3.6 8.2 8.2 8.2h1.6c4.6 0 8.3-3.6 8.3-8.1V90zm36.1-39.6H36.5c-6 0-10.7 5.2-10.7 11.4s4.8 11.5 10.7 11.5H91c6 0 10.7-5.2 10.7-11.5S97 50.4 91.1 50.4" style="fill:#c48e6a"/><path d="M64 11c-17.4 0-33.5 18.7-33.5 45.5C30.5 83 47 96.3 64 96.3S97.5 83 97.5 56.5C97.5 29.7 81.4 11 64 11" style="fill:#e0bb95"/><path d="M67.9 68H60q-1 .5-.6 1.7c.3.7 1.7 2.7 4.5 2.7s4.3-2 4.6-2.7q.3-1.2-.7-1.6" style="fill:#c48e6a"/><path d="M72.4 76.1a26 26 0 0 1-16.8 0c-1.8-1-3.7.6-3 2.3s6.5 5.4 11.4 5.4 10.6-3.8 11.3-5.4-1-3.4-2.9-2.3" style="fill:#6d4c41"/><ellipse cx="47.6" cy="58.8" rx="4.9" ry="5.1" style="fill:#5d4037"/><ellipse cx="80.4" cy="58.8" rx="4.9" ry="5.1" style="fill:#5d4037"/><path d="M40 50.7c3.2-4.5 10.7-4.6 14.4-.8.7.7 1.4 1.5.9 2.5q-1 1.4-2.6.5a13 13 0 0 0-7.5-.9L42 53.1c-1.4.5-3-1-2-2.4m46 2.4q-3.2-1.6-6.9-1.2a13 13 0 0 0-3.2.8c-.9.3-1.8.9-2.6.3-2.5-1.7 1.9-4.4 3.2-5 2.7-1.2 6-1 8.7.3 1 .6 2.2 1.4 2.8 2.4.8 1.3-.4 3-2 2.4M64 4c-45.4.3-36.1 52.2-36.1 52.2l3 7.7c0 .3.6.3.6 0 1-4.4 4.5-19.8 6.3-24.5a6 6 0 0 1 6.7-3.8c4.5.8 11.6 1.8 19.4 1.8h.1c7.9 0 15-1 19.5-1.8a6 6 0 0 1 6.7 3.8c1.8 4.7 5.3 20 6.2 24.4q.3.5.8 0l3-7.6S109.4 4.2 64 4" style="fill:#ab872f"/><radialGradient id="b" cx="64" cy="80.9" r="38.1" gradientTransform="matrix(1 0 0 -1.128 0 138.37)" gradientUnits="userSpaceOnUse"><stop offset=".8" style="stop-color:#bfa055;stop-opacity:0"/><stop offset="1" style="stop-color:#bfa055"/></radialGradient><path d="M100.2 56.2S109.5 4.2 64 4l-6 .4h-.3C19.4 9.2 27.9 56.2 27.9 56.2l3 7.6c0 .4.6.4.6 0 1-4.4 4.5-19.7 6.3-24.4a6 6 0 0 1 6.7-3.8c4.5.8 11.6 1.8 19.4 1.8h.1c7.9 0 15-1 19.5-1.8a6 6 0 0 1 6.7 3.8c1.8 4.7 5.3 20.1 6.3 24.4q.2.6.7 0z" style="fill:url(#b)"/><linearGradient id="c" x1="183.2" x2="142.9" y1="108.1" y2="108.1" gradientTransform="matrix(1 0 0 -1 -117.67 128)" gradientUnits="userSpaceOnUse"><stop offset=".6" style="stop-color:#e0bb95"/><stop offset="1" style="stop-color:#cca47a"/></linearGradient><path d="M29.3 16.6c2.9-3.2 8-6.2 13.5-8.3 8.6-3.2 11.7-4 16.5-4q3.5 0 2.9 1.8c-.4 1.4-1.5 2.6-4.5 2.7-4.4.4-7 2-11.2 4.3-2 1-3.5 5.7-5.6 7.2a22 22 0 0 0-8 14c-.3 2.3-10.8 1-11-3.7a31 31 0 0 1 7.4-14" style="fill:url(#c)"/><linearGradient id="d" x1="21.1" x2="21.1" y1="107" y2="4.5" gradientTransform="matrix(1 0 0 -1 0 128)" gradientUnits="userSpaceOnUse"><stop offset="0" style="stop-color:#00bfa5"/><stop offset=".5" style="stop-color:#00b29a"/><stop offset="1" style="stop-color:#009e89"/></linearGradient><path d="M37.8 29.1q.6-1.7-1-2.9l-11.4-6-.8-.2q-1.5.1-2 1.4L6 64.2a18 18 0 0 0-1.5 10.3s9.1 46.2 10.3 49.5h22.5l-4.6-26c-7.3-20-7.3-26.7-6.7-29z" style="fill:url(#d)"/><linearGradient id="e" x1="147.1" x2="106.8" y1="108.1" y2="108.1" gradientTransform="matrix(-1 0 0 -1 212.89 128)" gradientUnits="userSpaceOnUse"><stop offset=".6" style="stop-color:#e0bb95"/><stop offset="1" style="stop-color:#cca47a"/></linearGradient><path d="M98.7 16.6c-2.9-3.2-8-6.2-13.5-8.3-8.6-3.2-11.7-4-16.5-4q-3.5 0-2.9 1.8c.4 1.4 1.5 2.6 4.5 2.7 4.4.4 7 2 11.2 4.4 2 .9 3.5 5.6 5.6 7.1 1.9 1.4 6.6 5.9 8 14 .3 2.4 10.8 1 11-3.7a30 30 0 0 0-7.4-14" style="fill:url(#e)"/><linearGradient id="f" x1="106.9" x2="106.9" y1="107" y2="4.5" gradientTransform="matrix(1 0 0 -1 0 128)" gradientUnits="userSpaceOnUse"><stop offset="0" style="stop-color:#00bfa5"/><stop offset=".5" style="stop-color:#00b29a"/><stop offset="1" style="stop-color:#009e89"/></linearGradient><path d="m122 64.2-16.5-42.8a2 2 0 0 0-2-1.4l-1 .2-11.3 6c-1.2.7-1.3 2-1 3l11.7 39.7c.7 2.4.7 9-6.5 29.1l-4.7 26h22.5c1.2-3.3 10.3-49.5 10.3-49.5a18 18 0 0 0-1.5-10.3" style="fill:url(#f)"/></svg>