<svg xml:space="preserve" width="16" height="16" viewBox="0 0 128 128"><path d="M18.6 114.3 102 16c2.6 0 7.5.3 7.5 6.8v94.5c0 2.6-2.2 4.8-4.8 4.8H24.4c-2.6 0-5.8-2.4-5.8-7.8" style="fill:#a15d38"/><path d="M18.6 114.4V20.5c0-2.5 2-4.5 4.6-4.5h78.6c2.5 0 4.5 2 4.5 4.5v93.9c0 2.5-2 4.5-4.5 4.5H23.2c-2.5 0-4.6-2-4.6-4.5" style="fill:#ba793e"/><path d="M28.5 109.7V25q.2-2.1 2.3-2.3h64.4c1.3 0 2.4 1 2.4 2.3v84.7c0 1.2-1.1 2.3-2.4 2.3H30.8c-1.3 0-2.4-1-2.4-2.3" style="fill:#fff"/><path d="M38.6 54.4h48.7M38.6 42.9h48.7M38.6 65.8h48.7M38.6 77.3h48.7M38.6 88.7h48.7m-48.7 11.5h20.9" style="fill:none;stroke:#b0bec5;stroke-width:3;stroke-linecap:round;stroke-miterlimit:10"/><path d="M87 28.4V16H73l8.7 12.4z" style="opacity:.35;fill:#212121"/><path d="M78 16.5h-3.2c-2.1 0-2.5-2-2.6-2.4l-.3-2c-.6-4.6-2.1-7.3-7.7-8-4.9-.5-8.4 4.5-8.4 9.2 0 2.2-1.6 4-3.7 4 0 0-6.3-1-10.8 4-.9 1-1.9 5-1.9 6.1 0 3.1 2.7 3.5 3.6 3.5h41.5c1.3 0 2.4-1.2 2.4-2.5v-1.8c0-5.1-3.8-10.1-8.9-10.1m-14.1.3a3.4 3.4 0 1 1 0-6.7 3.4 3.4 0 0 1 0 6.7" style="fill:#2f7889"/><path d="M76.2 16h-2c-2.1 0-3-1.7-3.2-2.3-.4-.8-.5-2.5-.6-3a8.1 8.1 0 0 0-16 1.3 4 4 0 0 1-3.8 4h-2a9.3 9.3 0 0 0-9.2 9.3V27c0 1.3 1 2.4 2.4 2.4H83q2.3-.1 2.5-2.4v-1.8c0-5.2-4.2-9.3-9.3-9.3m-13.8-.6a3.4 3.4 0 1 1 0-6.7 3.4 3.4 0 0 1 0 6.8" style="fill:#82aec0"/><path d="M79 22H44.9q-2 0-1-1.8c1-1.6 3.3-2.7 5.3-2.7l25.6-.4c2.6 0 4 .8 5.2 2.3.8 1.1.3 2.6-1 2.6" style="fill:#b9e4ea"/><path d="M57 9.5c.5-2.3 2.7-3 2.7-3" style="fill:none;stroke:#b9e4ea;stroke-width:2.1165;stroke-linecap:round;stroke-miterlimit:10"/></svg>