<svg xml:space="preserve" width="16" height="16" viewBox="0 0 128 128"><path d="M101.4 68.6H26.6c-8 0-14.6 6.4-14.6 14.1 0 7.8 6.6 14.1 14.6 14.1h74.8c8 0 14.6-6.3 14.6-14s-6.6-14.2-14.7-14.2" style="fill:#99674f"/><path d="M103.8 32.8c-9.6-14.6-22-19.6-40-19.6s-30.4 5-40 19.6c-7 10.7-8.8 27.6-6.6 45 2 16.6 3.8 25.8 14.2 35.1 9 8.1 21.2 9.9 31.7 9.9h1.4c10.4 0 22.7-1.8 31.7-9.9 10.3-9.3 12-18.5 14.1-35.2 2.2-17.3.5-34.2-6.5-45" style="fill:#ba8d68"/><path d="M78.7 34.4q0-.2.4-.5l.3-.3.6-.8.1-.1.6-.9.1-.2.5-1h.1l1-2.5q.9-2.7.9-6-.2-6.7-4-10.6l-.1-.1-.6-.6-.1-.1L77 9.6l-.1-.2-.7-.4v-.1l-2.6-1.4-.8-.4-.2-.1-.7-.3h-.2l-.7-.3-.7-.3H70l-.7-.2h-.2l-.7-.2h-.2l-1.8-.4h-4l-1.2.1a21 21 0 0 0-11.4 6 10 10 0 0 0-2.7 4Q52 14.1 59 13.6c6.2-.4 11.3 3.1 11.1 8.6l-.2 1.8v.2l-.5 1.4-.1.4-.7 1.1-.2.4-.6.7-.2.2-.6.5v.1l-.6.4h-.2l-.5.4h-.2l-1.4.6H64q-1.6.5-3.4.5c-3.6 0-7.3-1.3-9.4-3.2l-.6-.3h-.3l-.2.2-.2.1-.3.4v.5c.2 3 2.1 6.8 6.7 9.6 4.3 2.7 13.3 2.7 19.8-1.7h.1l.6-.5.3-.2.8-.7.4-.4z" style="fill:#543930"/><radialGradient id="a" cx="63.4" cy="87.9" r="35.5" gradientTransform="matrix(1 0 0 -1 0 128)" gradientUnits="userSpaceOnUse"><stop offset=".7" style="stop-color:#6d4c41;stop-opacity:0"/><stop offset="1" style="stop-color:#6d4c41"/></radialGradient><path d="M78.7 34.4q0-.2.4-.5l.3-.3.6-.8.1-.1.6-.9.1-.2.5-1h.1l1-2.5q.9-2.7.9-6-.2-6.7-4-10.6l-.1-.1-.6-.6-.1-.1L77 9.6l-.1-.2-.7-.4v-.1l-2.6-1.4-.8-.4-.2-.1-.7-.3h-.2l-.7-.3-.7-.3H70l-.7-.2h-.2l-.7-.2h-.2l-1.8-.4h-4l-1.2.1a21 21 0 0 0-11.4 6 10 10 0 0 0-2.7 4Q52 14.1 59 13.6c6.2-.4 11.3 3.1 11.1 8.6l-.2 1.8v.2l-.5 1.4-.1.4-.7 1.1-.2.4-.6.7-.2.2-.6.5v.1l-.6.4h-.2l-.5.4h-.2l-1.4.6H64q-1.6.5-3.4.5c-3.6 0-7.3-1.3-9.4-3.2l-.6-.3h-.3l-.2.2-.2.1-.3.4v.5c.2 3 2.1 6.8 6.7 9.6 4.3 2.7 13.3 2.7 19.8-1.7h.1l.6-.5.3-.2.8-.7.4-.4z" style="fill:url(#a)"/><path d="m69.2 82.7-.4-.1h-9.3l-.4.1q-1.4.6-1 2.1c.5 1 2.3 3.6 6 3.6s5.6-2.6 6-3.6q.5-1.5-.9-2" style="fill:#99674f"/><ellipse cx="42.3" cy="76.9" rx="6.5" ry="6.7" style="fill:#49362e"/><ellipse cx="86" cy="76.9" rx="6.5" ry="6.7" style="fill:#49362e"/><path d="M73.5 96.6a29 29 0 0 1-19 0c-2.1-1.2-4.2.7-3.4 2.6.9 1.8 7.3 6.1 12.9 6.1s12-4.3 12.8-6.1c.8-2-1.3-3.8-3.3-2.6" style="fill:#5d4037"/></svg>