<svg xml:space="preserve" width="16" height="16" viewBox="0 0 128 128"><path d="m34.4 78-5.8 15s.2 1.2 2.8.9 5.8-2.7 5.8-2.7 3-.1 4.6-.4c3.1-.6 5.4-1.4 5.4-1.4s-.1 2.1.4 3.5 3 4 3 7.5S47.1 110 48 112c1 2.1 3 5.3 7.7 5s10.6-2.5 10.6-2.5 1-10.6.6-13.6-3.2-6.7-3.7-8-.5-7.2-.5-7.2L66 87s19 2.7 21 2.7l4.6.2s.9 2.5.9 4.7-.9 4.4-2 5.4-2.4 4.1-1.6 5.4 3.1 3 8.8 3 10.3-1.9 10.3-1.9l-1.7-8.6s-2-1.7-2.2-3.2 2.4-9.7 2.4-9.7L122 63.5l-.3-5-57-7.2z" style="fill:#40727b"/><path d="M61 36.8s2-8.1-1.5-9c-3.3-.8-5.5 3.3-6.3 6.1-.6 2.2-.3 4.8-.3 4.8s-2.1-1-4.3-1c-2 .1-4 1-4 1s0-4.3-1.5-6.8-3.8-4.7-5.8-4.2-2.7 4.8-1.7 7.6c1.1 3.5 4.2 5.8 4.2 5.8s-3.7 4-4.7 5.5L27.7 58S23 65.6 21 67.2s-9.2 9.5-10 12.1-1.3 6.5-.6 9.1c.6 2 1.7 4.2 3.6 5.1 1.9 1 2.7.2 3.9.7 1 .4 3 1.8 5.7 1.9 2.6 0 5-1.5 5.4-2 .3-.6.8-2 1.5-2.7l4.4-4.2c.4-.4 1.4-.8 1.8-.3.6.7-1 2.1-1.6 2.5s-3.9 2.8-3.4 2.9c.5 0 4.2-1.5 5-2.6.2-.4 3.2 0 6.8-.9s8.6-3.7 9.8-5c1.2-1.4 4-4.7 5.1-6.6 1-2 2.9-5 3.4-8l1-5.2q-.1-.8 1-1c1-.2.8.6.7 1.5l-.8 5q-.3 2.2-1.6 5c-1 2.2-2 3.5-2 3.5s2.2 0 5-1.8a16 16 0 0 0 5.2-5.2c1-1.6 2-4.2 2.2-5q.1-1.1 1-1c.9 0 .7 1 .5 1.7s-1.1 3.7-2.2 5.4c-1 1.7-3.7 4.5-5.8 5.8a14 14 0 0 1-6.9 2.2s-3 2.8-2.8 4.3 1.9 2.1 4 2.3c2 .1 4.7.3 5.8.9 1.2.6 2.2 1.4 2.2 3.2s.1 3.2-.6 5.6l-1.8 6q-.4 2.2-.3 2.3c0 .1-1.8 1.3-3.1 4.6-1.3 3.4-1.6 6.3-1.2 6.9.4.5 2.5 3 8.8 3.3 6.2.2 9-.4 10.7-1a4 4 0 0 0 2.4-2.3c.7-1.4 0-4.5 0-6l.2-4c0-.6 2.4-2.9 3.3-5.1 1.6-4 .1-12 .4-12.5s5.7.8 9.5-1.5a34 34 0 0 0 9.5-12 90 90 0 0 1 5.6-9.6c1.7-2.5 4.7-5.8 6.4-5.8s3.5 1 3 1.9-2.3-.4-3.7.3c-1.4.8-3.9 3.6-4.9 5.5l-4.1 7.3-2.6 5.6s-.4 3.4.4 6.6q.5 1.4.4 5a28 28 0 0 1-2.3 7.8c-.8 1.6-1.7 4.4-1.5 6.8.2 2.5 1.1 3.8 3.4 4.8s9.3 1.2 11.6.9q3.6-.3 5-2.5c1.1-1.9 1-4.9.7-6-.5-2.4-1.3-2.3-1.4-3.8s.7-14.3.7-18 1-11.2 1-17.8-2-16.5-6.6-22.5c-2.6-3.3-6.6-5.4-9.6-7.6-2.8-2-4.4-3.4-6.7-3.5-2.3 0-7.6 1.4-11 3.6a16 16 0 0 1-7.1 3c-1.4.1-6.8-3.7-10.7-4.2s-11.2 4-11.2 4" style="fill:#6da3af"/><path d="M76.7 79.8c-6-.2-9 2.6-10.2 4s-1 1.9-.5 2.3 1-.1 1.8-.7 4.2-3.6 8.9-3.2 7.6 2.6 8.6 3.3 2.3 2.4 3 1.6.1-1.7-1-2.9-5.9-4.3-10.6-4.4" style="fill:#40727b"/><ellipse cx="43.7" cy="69.6" rx="4.1" ry="3.3" style="fill:#352a2d" transform="rotate(-74.1 43.68 69.6)"/><path d="M25.4 89.4c1.1 0 1.8-3.2 3-3.9s1.3.3 2-.5c.3-.3.7-3.8-2.6-3.8s-4 4.2-3.9 5.1c.1 1.3.4 3.2 1.5 3.1" style="fill:#45494f"/><radialGradient id="a" cx="17.8" cy="49.3" r="17.3" gradientUnits="userSpaceOnUse"><stop offset=".4" style="stop-color:#6da3af"/><stop offset=".6" style="stop-color:#659aa6"/><stop offset=".8" style="stop-color:#50838d"/><stop offset="1" style="stop-color:#40727b"/></radialGradient><path d="M21.6 48.6c-.5-.1-2.1 3.4-2 8.4.2 5.4 1.9 9.8 3.3 10s3.6-.2 5.5-1.7c2-1.5 3.3-4 3.3-4.7s-3.6-2.1-5.4-4.7c-2.2-3-4-7-4.7-7.3" style="fill:url(#a)"/><radialGradient id="b" cx="-.3" cy="43" r="36" gradientUnits="userSpaceOnUse"><stop offset=".6" style="stop-color:#6da3af"/><stop offset=".7" style="stop-color:#699eaa"/><stop offset=".8" style="stop-color:#5d919c"/><stop offset=".9" style="stop-color:#487b85"/><stop offset=".9" style="stop-color:#40727b"/></radialGradient><path d="M7.7 43.2c-1.3-.1-3.7 7.7-3.4 14A54 54 0 0 0 7 72c.6 1.8 3.1 7.3 4 7.5 1.7.2 4.8 0 7.6-2.8 3.3-3.2 2.7-8.1 1.7-9-1.8-1.4-4.8-3.5-6.6-7.3S10.2 50 9.7 48c-.5-1.8-1-4.6-2-4.7" style="fill:url(#b)"/><path d="M75.5 113.5c-3.4 0-4 3.2-4.3 3.2s-.3-3.2-3.5-3.6-4.8 4.5-4.8 4.5 1.2 1.6 7.6 2c6 .4 9.2-.8 9.2-.8s.3-5.2-4.2-5.3m45.9-2.5s-.7-4.9-4.1-5-4 2.5-4.2 2.4c-.2 0 .1-3.8-4.1-3.9-3.2 0-5.5 4.6-5.5 4.6s1.1 1.9 3.2 2.6c2.4.9 4.6 1 7.8 1 4.5 0 7-1.6 7-1.6" style="fill:#a6cdd1"/></svg>