<svg xml:space="preserve" width="16" height="16" viewBox="0 0 128 128"><radialGradient id="a" cx="63.6" cy="-2088.9" r="57" gradientTransform="matrix(1 0 0 -1 0 -2026)" gradientUnits="userSpaceOnUse"><stop offset=".5" style="stop-color:#fde030"/><stop offset=".9" style="stop-color:#f7c02b"/><stop offset="1" style="stop-color:#f4a223"/></radialGradient><path d="M63.6 118.8c-27.9 0-58-17.5-58-55.9S35.7 7 63.6 7c15.5 0 29.8 5.1 40.4 14.4 11.5 10.2 17.6 24.6 17.6 41.5s-6.1 31.2-17.6 41.4a61 61 0 0 1-40.4 14.5" style="fill:url(#a)"/><linearGradient id="b" x1="63.6" x2="63.6" y1="-2144.8" y2="-2033" gradientTransform="matrix(1 0 0 -1 0 -2026)" gradientUnits="userSpaceOnUse"><stop offset=".2" style="stop-color:#f4a223"/><stop offset=".3" style="stop-color:#f7c02b"/><stop offset=".8" style="stop-color:#fde030;stop-opacity:0"/></linearGradient><path d="M63.6 118.8c-27.9 0-58-17.5-58-55.9S35.7 7 63.6 7c15.5 0 29.8 5.1 40.4 14.4 11.5 10.2 17.6 24.6 17.6 41.5s-6.1 31.2-17.6 41.4a61 61 0 0 1-40.4 14.5" style="fill:url(#b)"/><path d="M111.5 29.7a57 57 0 0 1 8.1 30.2c0 16.9-6.1 31.2-17.6 41.4a61 61 0 0 1-40.4 14.5c-18 0-37-7.3-48.2-23a58 58 0 0 0 50.2 26c15.4 0 29.8-5.2 40.4-14.5a54 54 0 0 0 17.6-41.4q-.1-19.2-10.1-33.2" style="fill:#eb8f00"/><radialGradient id="c" cx="-143.1" cy="1415.9" r="18.1" gradientTransform="matrix(.962 -.18 .171 .914 -75.15 -1256.13)" gradientUnits="userSpaceOnUse"><stop offset="0" style="stop-color:#ed7770"/><stop offset=".9" style="stop-color:#ed7770;stop-opacity:0"/></radialGradient><circle cx="29.7" cy="64.1" r="16.3" style="opacity:.8;fill:url(#c)"/><radialGradient id="d" cx="-73.3" cy="1415.9" r="18.1" gradientTransform="matrix(.962 -.18 .171 .914 -75.15 -1256.13)" gradientUnits="userSpaceOnUse"><stop offset="0" style="stop-color:#ed7770"/><stop offset=".9" style="stop-color:#ed7770;stop-opacity:0"/></radialGradient><circle cx="96.9" cy="51.5" r="16.3" style="opacity:.8;fill:url(#d)"/><path d="M96.9 49.4a65 65 0 0 1-29.7 15.4 65 65 0 0 1-33.4-.9c-1.8-.6-3.1 1.8-1.5 3 10.1 7.5 23.6 10.7 37.1 7.5a45 45 0 0 0 30.1-23c1-1.7-1.2-3.3-2.6-2m-48.4-2.2-.2-.2-.5-.4-.6-.4-.8-.6-.9-.5-.9-.3-.6-.1h-.3.2l-.5.1h.1-.1l-.5.3-.7.6-.6.8-.9 1.5-.4.6-.2.4a4 4 0 0 1-5 1.5 4 4 0 0 1-2-2.9v-1.1q0-1 .6-2.9a9 9 0 0 1 2.4-4.1 10 10 0 0 1 2.5-2l.8-.4.9-.4.5-.2.5-.1.5-.1.3-.1h.4l.5-.1h.9l1.8.1q1.8.4 3.1 1 2.6 1.5 3.8 2.9l1 1.3.7 1.1.3.6.1.2c.7 1.8-.3 3.8-2.3 4.5q-2.2.7-3.9-.6m34.3-6.7-.2-.2-.5-.4-.6-.4-.8-.6-.9-.5-.9-.3-.5-.1h-.3.2l-.5.1h.1-.1l-.6.3-.7.6-.6.8-.9 1.5-.4.6-.2.3a4 4 0 0 1-5 1.5 4 4 0 0 1-2-2.9l.1-1.1q0-1 .6-2.9a9 9 0 0 1 2.4-4.1 10 10 0 0 1 2.5-2l.8-.4.9-.4.6-.2.5-.1.5-.1.3-.1h.4l.5-.1h.9l1.8.1q1.8.4 3.1 1 2.6 1.4 3.8 2.9l1 1.3.7 1.1.3.6.1.2c.7 1.8-.3 3.8-2.3 4.5q-2.5 1-4.1-.5" style="fill:#422b0d"/><radialGradient id="e" cx="32.4" cy="94.1" r="38.5" gradientUnits="userSpaceOnUse"><stop offset=".3" style="stop-color:#fff176"/><stop offset="1" style="stop-color:#ffc400"/></radialGradient><path d="M42.9 82.6c-.3-2.5-.2-3.9-2-4.3-2.2-.5-4.1 1-4.7 3.2a14 14 0 0 0 1 10c-3.6-.8-6.7-4.4-6.7-4.4-2-2.3-4.7-7.9-6.6-10.2-1.1-1.4-3-2.6-4.8-1.6-4.5 2.3.4 10.3 2.1 12.4 1.9 2.4-4.9-5.3-5.9-7q-3-4.7-6-2.3c-2 1.6-.4 5.7.4 7.2 5.4 9.4 10 11.7 10 11.7s-5-2.4-9.1-7.5c-4-4.9-7.8.2-5.2 4.5.6 1 1.7 3.3 5.1 6.2 2.6 2.3 1 1 0 0-3.5-3.4-7.3.3-6.1 3.3 1.3 3.5 5.5 6.7 8.4 8.9a33 33 0 0 0 19.8 7.2c7.9-.2 13.7-3.5 15.5-13.3.8-4.5-1.8-11.5-2.5-13.3C43 87.6 43 84 42.9 82.6" style="fill:url(#e)"/><path d="M35 107a13.5 13.5 0 0 1 1.5-15.6l1.6 1c-6.3 7.9-2 14.5-1.1 16 0 0-1 0-2-1.5m11.2-14.2a21 21 0 0 1-2.8-10c-.2-2-.4-4.5-2.7-5Q39 77 37 79c-3.2 3.5-.7 11.6-.7 11.6-4.5-2.1-5.3-4-8.5-8.8-1.4-2.1-3.6-6-5.7-7.2-1.4-.8-3.6-.2-4.7 1.2-2.4 3.3 2 10 2 10l-3.5-5.4c-1.8-3-5-4.8-7.4-2.6-3.9 3.5 3.7 13 3.7 13s-3.5-5.6-7-3.3C3.4 88.7 2.7 92 4.6 95c.8 1.4 3 3.8 3 3.8s-1-.5-2.3 0c-1.6.5-3 2.4-1.8 5.5 1.3 3.6 5.2 6.7 8.8 9.3a36 36 0 0 0 17.7 6.2s-10.4-2-17.1-8c-2.1-2-10.4-7.8-7.5-10.8.7-.7 2-1.1 3.9.4 6.6 5.3 9 4 9 4 .2-.9-.5-1.2-2.5-2.4q-2.3-1.3-4.6-3.1c-3.4-3-7.3-8.1-5.2-10.4q1.8-1.7 3.7.4c8.9 9 11 7.7 11 7.7s.2-1-2.6-3.4a34 34 0 0 1-8-9.9c-.8-1.5-1.3-4.1 0-5.2 1.7-1.4 3.2-.5 4.7 1.6 1.7 2.6 4.1 5.8 6.5 8.1 3 2.8 4.6 3.7 4.7 3.6.7-.8-2.3-3.7-3.7-5.6-4.7-6.5-4.6-8.6-3.6-10.3.6-1 2.3-1.6 4.3 1 4.5 5.1 6.7 13.5 15 15 0 0 .4-.6-.4-3.3q-1.3-4.2-.5-7.3c.5-2.3 2.3-3 3.4-2.8 1.3.4 1.2 2.7 1.2 2.7l.1 1.2c.2 1.7.5 5.2 2.8 10.6 1 2.2 6 11-.8 22.2l6.1 1.5s1.3-4.6.7-11.7c-.7-8.8-2.7-9.7-4.4-12.9" style="fill:#eb8f00"/><radialGradient id="f" cx="84.1" cy="94.1" r="38.5" gradientTransform="matrix(-1 0 0 1 178.85 0)" gradientUnits="userSpaceOnUse"><stop offset=".3" style="stop-color:#fff176"/><stop offset="1" style="stop-color:#ffc400"/></radialGradient><path d="M84.2 82.6c.3-2.5.2-3.8 2-4.3 2.1-.6 4 1 4.7 3.2 1.4 5.1-1.3 10-1.3 10a15 15 0 0 0 6.8-4.3c2-2.3 4.9-8 6.7-10.3 1.2-1.4 2.5-2.3 4.5-1.6 4 1.5-.2 9.7-1.8 11.8-2 2.4-.7 2 1.8-.8 2.6-2.8 4-4.4 5-6 1.8-3.1 4-3 5.2-1.9 2 1.6.4 5.7-.5 7.2-5.3 9.4-.8 4.2-.8 4.2 4-4.8 7.8.2 5.1 4.5-.5 1-1.6 3.3-5 6.3-2.7 2.2-1 .9 0 0 3.5-3.5 7.2.2 6.1 3.2-1.3 3.5-5.6 6.7-8.5 8.9a33 33 0 0 1-19.7 7.2c-7.9-.2-13.7-3.5-15.5-13.3a30 30 0 0 1 2.5-13.3c2.5-5.7 2.6-9.3 2.7-10.7" style="fill:url(#f)"/><path d="M92.2 107c1-1.6 4-8.5-1.6-15.6l-1.6 1c6.3 7.9 1.9 14.5 1.1 16 0 0 1 0 2-1.5M80.9 92.7c2.5-4.8 2.6-7.3 2.8-10 .2-2 .3-4.5 2.7-5q1.7-.6 3.7 1.3c3.2 3.5.7 11.6.7 11.6 4.5-2.1 5.3-4 8.5-8.8 1.4-2.1 3.6-6 5.7-7.2 1.4-.8 3.6-.2 4.7 1.2 2.4 3.3-2 10-2 10l3.5-5.4c1.8-3 5-4.8 7.4-2.6 3.9 3.5-3.7 13-3.7 13s3.5-5.6 7-3.3c1.8 1.2 2.5 4.4.6 7.5-.8 1.4-3 3.8-3 3.8s1-.5 2.3 0c1.6.5 3 2.4 1.8 5.5-1.3 3.6-5.2 6.7-8.8 9.3-8.2 5.9-17.8 6.2-17.8 6.2s10.5-2 17.2-8c2.1-2 10.4-7.8 7.5-10.8-.7-.7-2-1.1-4 .4-6.6 5.3-8.8 4-8.8 4-.3-.9.4-1.2 2.4-2.4 1.3-.8 3.2-2 4.6-3.1 3.4-3 7.3-8.1 5.2-10.4q-1.8-1.7-3.7.4c-8.9 9-11 7.7-11 7.7s-.2-1 2.6-3.4c2-1.9 4.7-4.2 8-9.9.8-1.5 1.3-4.1 0-5.2-1.7-1.4-3.3-.5-4.7 1.6a52 52 0 0 1-6.6 8.1c-2.9 2.8-4.5 3.7-4.6 3.6-.7-.8 2.3-3.7 3.7-5.6 4.7-6.5 4.6-8.6 3.6-10.3-.6-1-2.3-1.6-4.3 1-4.5 5.2-6.7 13.5-15.1 15 0 0-.3-.5.4-3.2q1.3-4.3.6-7.4c-.5-2.3-2.4-3-3.4-2.7-1.4.3-1.2 2.6-1.2 2.6l-.1 1.3c-.2 1.6-.5 5.1-2.8 10.5-1 2.2-6 11.2.8 22.2l-6.1 1.5s-1.3-4.6-.7-11.6c.7-9 2.7-9.8 4.4-13" style="fill:#eb8f00"/></svg>