<svg xmlns:xlink="http://www.w3.org/1999/xlink" xml:space="preserve" width="16" height="16" viewBox="0 0 128 128"><path d="M54.8 85.4q-.7.8-.1 1.7c2.3 2.7 9.5 11.3 10.7 13 1.4 1.8 0 3.1-.8 3.9-27.1 27.4-47 20.6-53.4 19.4-4.1-.8-6-2.8-6.6-6.7-1.2-8.3-5.1-27.7 21.3-53q2.2-1.8 4-.3L42 74.6q.7.5 1.4 0l3.2-3.1c3.6-3.1 14.7 7.6 11 11.1z" style="fill:#82aec0"/><defs><path id="a" d="M54.8 85.4q-.7.8-.1 1.7c2.3 2.7 9.5 11.3 10.7 13 1.4 1.8 0 3.1-.8 3.9-27.1 27.4-47 20.6-53.4 19.4-4.1-.8-6-2.8-6.6-6.7-1.2-8.3-5.1-27.7 21.3-53q2.2-1.8 4-.3L42 74.6q.7.5 1.4 0l3.2-3.1c3.6-3.1 14.7 7.6 11 11.1z"/></defs><clipPath id="b"><use xlink:href="#a" style="overflow:visible"/></clipPath><path d="m28.3 61.4-1.8 3.5q-.4 1 .3 1.9l13.8 13.4q.6.7 0 1.3l-2.4 2.3a1 1 0 0 1-1.4 0L22.9 70.1c-1-1-1.2-2.6-.3-3.8l4.1-5.8zm30.1 20.5a5 5 0 0 1-6.6.2q-.5-.4-1.1 0l-21.7 20c-.6.6-.1 1.3.6.8 9.8-7.3 17.5-8.4 18.8-6.9l9.1 10.3q.4.5 0 1.1A64 64 0 0 1 23.7 125c-1.4.2-1 1.3-.3 1.3h18.4l28.4-26.1-7 2.7q-1.1.4-1.9-.4l-12.9-14q-.4-.5 0-1c.8-.8 2.1-1.1 8.5-1.4 1.7-.1 1.5-4.2 1.5-4.2" style="clip-path:url(#b);fill:#2f7889"/><path d="M84.6 34.9 48.5 71.7c-2.6 2.8 6 11.6 8.9 8.9l37.4-35.8z" style="fill:#a06841"/><defs><path id="c" d="M84.6 34.9 48.5 71.7c-2.6 2.8 6 11.6 8.9 8.9l37.4-35.8z"/></defs><clipPath id="d"><use xlink:href="#c" style="overflow:visible"/></clipPath><path d="M86.5 56.3c-4.5-4.2-6.3-14.2-1.8-21.1l11.1 11z" style="clip-path:url(#d);fill:#7d5133"/><path d="m87.8 30.4-4.4 4.4c-3 3.1 8.2 14.3 11.3 11.3l4-3.9c4.7 4.2 10.2 3 13.3 1.5 4.8-2.3 14.8-10.7 13.1-13.2l-1.3-1.6s-.8-.8-1.8.1c0 0-8.7 7.9-10.2 9a7 7 0 0 1-8.1 0 74 74 0 0 1-11.4-12.2c-1.7-2.5-2.8-5-.9-7.7 1.5-2 9.9-10.2 10.5-11q1.2-1.6.2-2.6-.6-.7-1.5-1.3c-1.7-1.5-11 6.7-15.1 14.3-2.8 5 .3 10.2 2.3 12.9" style="fill:#82aec0"/><defs><path id="e" d="m87.8 30.4-4.4 4.4c-3 3.1 8.2 14.3 11.3 11.3l4-3.9c4.7 4.2 10.2 3 13.3 1.5 4.8-2.3 14.8-10.7 13.1-13.2l-1.3-1.6s-.8-.8-1.8.1c0 0-8.7 7.9-10.2 9a7 7 0 0 1-8.1 0 74 74 0 0 1-11.4-12.2c-1.7-2.5-2.8-5-.9-7.7 1.5-2 9.9-10.2 10.5-11q1.2-1.6.2-2.6-.6-.7-1.5-1.3c-1.7-1.5-11 6.7-15.1 14.3-2.8 5 .3 10.2 2.3 12.9"/></defs><clipPath id="f"><use xlink:href="#e" style="overflow:visible"/></clipPath><path d="m86.9 46.1 6.9-6.5q.9-.7 1.7 0l3.3 2.7.7 2.6-6.7 6.6zm16.5-41.4c-3.5-2.2-13.1 9.7-14.7 12.4-1.3 2.2-1.4 5.6.3 8.9a44 44 0 0 0 13.2 14.2c3 1.8 6.5 1.7 9 .4 3.2-1.6 13.4-9.9 12.2-12.7s-20-23.2-20-23.2" style="clip-path:url(#f);fill:#2f7889"/><path d="M100.9 6.4c7 3.7 17.9 16.7 21.2 22.8q.3.6 0 1.1a21 21 0 0 1-7 6.5q-.8.5-1.6-.1a82 82 0 0 1-20.4-22.3q-.4-.8 0-1.5c1.5-2.8 4.2-5.4 6.6-6.5q.7-.2 1.2 0" style="fill:#a06841"/><defs><path id="g" d="M100.9 6.4c7 3.7 17.9 16.7 21.2 22.8q.3.6 0 1.1a21 21 0 0 1-7 6.5q-.8.5-1.6-.1a82 82 0 0 1-20.4-22.3q-.4-.8 0-1.5c1.5-2.8 4.2-5.4 6.6-6.5q.7-.2 1.2 0"/></defs><clipPath id="h"><use xlink:href="#g" style="overflow:visible"/></clipPath><path d="M104.5 7.2c-2.5.4-9.3 5.1-8.6 12.6a22 22 0 0 1-7.2-6.3L99.9 2.6z" style="clip-path:url(#h);fill:#7d5133"/></svg>