<svg xml:space="preserve" width="16" height="16" viewBox="0 0 128 128"><path d="M124 5.5h-6.4c-33.5-.4-67-.8-68-.7 0 0-4.5 3.3-4.4 3.4-7.7 18 .1 36 7.3 43.9 4.6 4.9 7.2 8.8 5 12.7-2 3.7-8.2 4.2-8.2 4.2s1.4 3.8 4.8 6c3.1 1.9 7 2.4 9.6 2.5 0 0 10.3 14.6 37.6 15h15.2l7.5.2z" style="fill:#232020"/><radialGradient id="a" cx="84.5" cy="95.7" r="51.7" gradientTransform="rotate(95 23 132.39)scale(-1 .833)" gradientUnits="userSpaceOnUse"><stop offset=".7" style="stop-color:#444140;stop-opacity:0"/><stop offset="1" style="stop-color:#444140"/></radialGradient><path d="M45.2 8.2a43 43 0 0 0 7 43.5c1 1 5 5.1 6 8.4 0 0 16.4-22.4 21.4-35.7 1-2.6 2-5.4 2-8.2.2-2.2-.1-4.7-1.3-6.5C78.8 7.3 77 8 74.5 7.8c-5 0-26.3-1.5-28-1.6z" style="fill:url(#a)"/><radialGradient id="b" cx="92.4" cy="56.5" r="39.8" gradientTransform="matrix(-1 -.012 -.006 .491 184.8 42.46)" gradientUnits="userSpaceOnUse"><stop offset=".7" style="stop-color:#444140;stop-opacity:0"/><stop offset="1" style="stop-color:#444140"/></radialGradient><path d="m116.6 92.6.2-16L68.3 72l-4.5 5.4s10.3 14.6 37.6 15z" style="fill:url(#b)"/><radialGradient id="c" cx="53.2" cy="62.4" r="11.8" gradientTransform="rotate(205.8 1.78 42.39)scale(-1 .742)" gradientUnits="userSpaceOnUse"><stop offset=".7" style="stop-color:#444140"/><stop offset="1" style="stop-color:#444140;stop-opacity:0"/></radialGradient><path d="M64 70.5c7.4-11-8.7-15.3-8.7-15.3 2.8 3.5 4 6.6 2.3 9.6-2 3.7-8.2 4.2-8.2 4.2s8.3 7.5 14.6 1.5" style="fill:url(#c)"/><radialGradient id="d" cx="123.4" cy="3.7" r="57.2" gradientTransform="matrix(1 0 0 -.433 0 125.9)" gradientUnits="userSpaceOnUse"><stop offset=".4" style="stop-color:#ed6d23"/><stop offset="1" style="stop-color:#f78c1f"/></radialGradient><path d="M121.4 95.1c-19.9 0-59.4 10-74.6 28.9H124V95.1z" style="fill:url(#d)"/><path d="M104.4 75.9v18.5a15 15 0 0 0 14.8 15l4.8-.1V75.9zm16.5-64.8h-50c-10.6 0-19.2 9.2-19.2 20.3s8.6 20.3 19.1 20.3H121z" style="fill:#3c2b24"/><path d="M61.3 11.9a99 99 0 0 0 18.9 57.5 51 51 0 0 0 39.3 21.8l4.5-.2V4H61.4q-.3 3.9-.1 7.9" style="fill:#70534a"/><path d="M104.5 59.7c-3.2-2-6.5 1-5.2 4 1.3 2.8 11.5 9.6 20.3 9.6q2.2 0 4.4-.5V62c-7.3.5-16-.2-19.5-2.4" style="fill:#1a1717"/><path d="m113.2 45.1-.6.2q-1.8.8-1.2 2.9c.5 1.2 3 4.8 8 4.8q2.9 0 4.6-1.2v-6.7z" style="fill:#33251f"/><ellipse cx="90.2" cy="28.8" rx="8.8" ry="9.1" style="fill:#1a1717"/><path d="M103.4 12.8c-1.6-2.2-5.4-5.4-12.8-5.4s-11.3 3.2-13 5.4q-.9 1.6 0 2.7t3.4.7c1.6-.5 4.5-2 9.6-2s8 1.5 9.5 2 2.9 0 3.4-.7q.9-1.2 0-2.7" style="fill:#1a1717"/><path d="M42.1 4q0 3.1 1.2 6.8C46.6 19.7 58.8 21 58.8 21a49 49 0 0 0 7.3 22.3q.6.5 1-.2a170 170 0 0 0 1.3-31.2s9.5-1.6 21.6-8z" style="fill:#232020"/><radialGradient id="e" cx="63.2" cy="115.4" r="19.1" gradientTransform="rotate(7.8 -699.1 -39.6)scale(1 -.792)" gradientUnits="userSpaceOnUse"><stop offset=".6" style="stop-color:#444140;stop-opacity:0"/><stop offset="1" style="stop-color:#444140"/></radialGradient><path d="M43.3 10.8C46.6 19.7 58.8 21 58.8 21v.1l4.7-.1-.8-17H42q0 3.1 1.2 6.8" style="fill:url(#e)"/><linearGradient id="f" x1="75.2" x2="88.2" y1="16.4" y2="10.4" gradientTransform="matrix(1 0 0 -1 0 128)" gradientUnits="userSpaceOnUse"><stop offset=".2" style="stop-color:#262626"/><stop offset="1" style="stop-color:#262626;stop-opacity:0"/></linearGradient><path d="M96 98.6c-14.6 4-28.8 7.5-40 16.5l-3 8.9h29.3z" style="opacity:.35;fill:url(#f)"/><linearGradient id="g" x1="90.6" x2="97.4" y1="52.2" y2="54.7" gradientTransform="matrix(1 0 0 -1 0 128)" gradientUnits="userSpaceOnUse"><stop offset=".2" style="stop-color:#262626"/><stop offset="1" style="stop-color:#262626;stop-opacity:0"/></linearGradient><path d="M95 69.1c-3.4-5.5-7.5-3.8-9.9-2.6-2.3 1.2-1.8 6.9-1.8 6.9A61 61 0 0 0 97 84.8c-2.7-8.3.2-11.7-2.2-15.7" style="opacity:.35;fill:url(#g)"/><linearGradient id="h" x1="25.4" x2="59" y1="12.5" y2="12.5" gradientTransform="matrix(1 0 0 -1 0 128)" gradientUnits="userSpaceOnUse"><stop offset=".4" style="stop-color:#ed6d23"/><stop offset="1" style="stop-color:#f78c1f"/></linearGradient><path d="M66.8 116.7c-3.4-3-25.6-9.2-25.6-9.2Q40 107 39 107c-3.3 0-5.6 2.8-7.2 5.1L25.4 124h42.3c.9-2.8 1.4-5.2-1-7.3" style="fill:url(#h)"/><linearGradient id="i" x1="90.2" x2="44.5" y1="58.2" y2="14.9" gradientTransform="matrix(1 0 0 -1 0 128)" gradientUnits="userSpaceOnUse"><stop offset=".5" style="stop-color:#70534a"/><stop offset="1" style="stop-color:#5c4037"/></linearGradient><path d="M56.1 119.4c14.6.5 20-10 21-20 .6-5.8-.3-11.3-.3-11.3s7.4-4 12.7-13.6c1.2-2.1 1.7-5.7-.4-7.8-2.2-2.3-6.3-3-10 1.2a43 43 0 0 1-14.7 11C57.8 82.1 48.5 83 42.2 89c-12.2 11.7-1.6 29.7 14 30.3" style="fill:url(#i)"/><path d="M58.6 96.6q-1.7-7.5-7.9-9c-3-1-5-.9-1.4.8q5.6 3 6.9 8.7c1 4.4-1.1 7.4-3.6 8.4-1.5.6-3.5.7-4.6-1.1-1.8-3.2 1.6-5 1.6-5a1.3 1.3 0 0 0-1-2.3s-2.5 1.3-3.5 3.7.2 7.6 5.7 7.6q1.3 0 2.7-.6c6.5-3 5.6-9.2 5.1-11.2M68.9 94q-1.8-7.4-8-9c-3-1-5-.9-1.4.9 3.9 1.8 6 5 7 8.7 1 4.4-1.2 7.4-3.7 8.4-1.4.5-3.5.6-4.5-1.2v-.2l-1.7 2.5a6 6 0 0 0 4.5 1.7q1.3 0 2.6-.5c6.6-3 5.6-9.2 5.2-11.3m8.6-3.3q-1.7-7.4-7.9-9c-3-1-5-.9-1.4.9 3.8 1.8 6 5 6.9 8.7 1 4.4-1.1 7.3-3.6 8.3q-2 .9-3.8-.3l-1.2 2.4q1.2.8 3.2.8 1.4 0 2.7-.5c6.6-3.1 5.6-9.2 5.1-11.3" style="fill:#4a2f27"/><linearGradient id="j" x1="64.6" x2="79.1" y1="25.6" y2="25.6" gradientTransform="matrix(1 0 0 -1 0 128)" gradientUnits="userSpaceOnUse"><stop offset=".5" style="stop-color:#70534a"/><stop offset="1" style="stop-color:#5c4037"/></linearGradient><path d="M78.2 98.5c1.9 3 .8 7.4-3.9 9.4-4 1.7-7.2.8-8.7-1.3-2-3-1-7.2 2.8-9.3 3.9-2 8-1.6 9.8 1.2" style="fill:url(#j)"/><path d="M78.9 102.8a9 9 0 0 1-10.3 7A6 6 0 0 1 65 108q-.4-.4-.6-1l-.4-.7-.5-1.7a6 6 0 0 1 .4-3.6q1-1.7 2.4-2.4-.7 1.5-.8 2.9t.3 2.6l.5 1.2.3.7.2.3a4 4 0 0 0 2.1 1.1q1.3.3 2.7.1 1.4 0 2.7-.7 2.7-1.2 4.5-4" style="fill:#4a2f27"/><path d="M19.2 33.1c0 32 19.6 42.4 19.6 42.4" style="fill:none;stroke:#b0bec5;stroke-width:4;stroke-linejoin:round;stroke-miterlimit:10"/><path d="M41.1 66.3 31 77.9l13.6 3z" style="fill:#b0bec5"/></svg>