<svg xml:space="preserve" width="16" height="16" viewBox="0 0 128 128"><path d="M60.6 41.1 39 13.9a1 1 0 0 1 0-1.3q.7-.5 1.3.1l23.1 26q.5.7 0 1.3l-1.5 1.2a1 1 0 0 1-1.3-.1m5.6-.1L65 39.9a1 1 0 0 1-.1-1.5l23-25.8a1 1 0 0 1 1.3-.1q.6.7.2 1.4l-21.7 27a1 1 0 0 1-1.5 0m-18.5 1.6C47.7 39 55.5 36 65 36s17.3 2.9 17.3 6.4z" style="fill:#455a64"/><path d="M119.6 124H8.4C6 124 4 122 4 119.4V45.1c0-2.5 2-4.6 4.4-4.6h111.2c2.4 0 4.4 2 4.4 4.6v74.3c0 2.5-2 4.6-4.4 4.6" style="fill:#82aec0"/><path d="M116.4 119.6H12c-2 0-3.6-1.5-3.6-3.5V48c0-2 1.6-3.6 3.6-3.6h104.4c2 0 3.5 1.6 3.5 3.5v68c0 2-1.6 3.6-3.6 3.6" style="fill:#212121"/><path d="m15.4 109-4.8 7.5c-.8 1.3 0 3.1 1.6 3.1H95c1.8 0 3-1.8 2.2-3.4l-3-6.2z" style="fill:#b9e4ea"/><path d="M95.5 105.5a9 9 0 0 1-6.7 6.8 143 143 0 0 1-32.1 2.8c-17.5 0-29.2-1.7-35.5-3a9 9 0 0 1-7-7.2c-1.5-8.4-3.5-25.4.1-46.6a9 9 0 0 1 7.4-7.4 259 259 0 0 1 66.4-.1c3.6.5 6.5 3.4 7.2 7.2 4.4 22.3 2 39.3.2 47.5z" style="fill:#2f7889;stroke:#212121;stroke-width:4;stroke-miterlimit:10"/><path d="M114.9 116.5h-11.4a2 2 0 0 1-2-2.1V90.6q.1-1.8 2-2h11.4q1.8.2 2 2v23.8q-.2 1.8-2 2" style="fill:#455a64"/><circle cx="109.2" cy="58.3" r="6.9" style="fill:#455a64"/><path d="M109.2 52q-.8 0-1.1.8l-1 3.7a7 7 0 0 0 0 3.6l1 3.7q.3.8 1.1.8t1.1-.8l1-3.7q.3-1.8 0-3.6l-1-3.7q-.2-.8-1.1-.8" style="fill:#82aec0"/><circle cx="109.2" cy="76.1" r="6.9" style="fill:#455a64"/><path d="M104.3 72q-.4.8 0 1.5l2.3 3q1 1.5 2.7 2.3l3.4 1.6q.7.4 1.4-.3.4-.7 0-1.4l-2.3-3q-1-1.5-2.7-2.3l-3.4-1.6q-.8-.3-1.4.3" style="fill:#82aec0"/><linearGradient id="a" x1="29.4" x2="28.3" y1="35.1" y2="73.1" gradientUnits="userSpaceOnUse"><stop offset="0" style="stop-color:#fff"/><stop offset="1" style="stop-color:#fff;stop-opacity:0"/></linearGradient><path d="M31 55.8c1.8-.2 5 0 6 3.3s-1.3 4.4-2.6 5.4c-3.8 2.9-5.7 4-8 7.1-1.8 2.5-5 1.7-5.9 0-.8-1.3-1.3-5.6.3-8.4A14 14 0 0 1 31 55.8" style="fill:url(#a)"/></svg>