<svg xml:space="preserve" width="16" height="16" viewBox="0 0 128 128"><path d="M64 4s-36 7.2-36 59.2c0 51.6 36 60.8 36 60.8A60 60 0 1 0 64 4" style="fill:#fce5ac"/><path d="M30.5 64C30.5 17 64 4 64 4a60 60 0 1 0 0 120s-33.5-13-33.5-60" style="fill:#22404c"/><path d="M56.5 11.2c4-.2 7.4-1 7.5-2.3 0-1-1.9-2-4.7-2.5a54 54 0 0 0-6.6 4.8z" style="fill:#f1c688"/><path d="M56.1 6.3c-4.3.2-7.4 2-7.2 3.4q.5 1.2 3.8 1.5 3.8-3 6.6-4.8-1.4-.2-3.2-.1" style="fill:#1b2e35"/><path d="M119.4 59.5v-1.2c1.3-7.3 1.8-14-6.3-18.2q-1.4-.5-2.5-1.6c-1.3-1.3-1.2-3.4-1.5-5.2-1-5.5-7.2-9.5-12.6-8-1.8.5-3.7 1.5-5.4.8-1.4-.5-2.1-2-3-3.2-2.1-3.6-5.5-6.8-9.7-7.3s-9 2.3-9.2 6.5c0 1.8.2 4 1.6 5.1 6 5 9.6 1.4 12.3 4 3.2 3-3.4 3.8-2.3 11.4.5 3.8 4.3 7.4 8.2 7 1.7 0 4.3-.2 5.2 1.3.8 1.1.6 2.2.6 4 0 4.5.5 8.1 4.9 9.1q1 .3 1.7 0c1.2-.5 1.2-2 1-3.3-.3-5.7-4.2-6.8-5-9.9-.8-4 4.5-9.3 9-7.8 3.4 1.2.6 5.3 3.1 10 1.7 3 5 4.5 6.3 7 1.2 2.6 0 4.3.7 6 .9 2.5 2.4 2.5 3.2 1.6 1-1 .6-3 .4-4q-.5-2.1-.7-4.1" style="fill:#f1c688"/><path d="M26.3 102.6c-1-1-2-.7-2-.6-1.2 1.7 1.4 6.5 6.2 7.3 1 .2 2.2-.7 1-1.8zM42 114.4c-.4 2 3.7 5.5 8.5 4.6 1-.2 1.8-1.5.3-2l-6.7-2.8c-1.3-.6-2 0-2 .2" style="fill:#1b2e35"/><path d="M49.2 112.8c.3-.8-.3-1.5-.9-2l-3.5-2 4 4.4q.4 0 .4-.5" style="fill:#f1c688"/><path d="M36.4 106.9c-.6 2 3.1 4.3 4.5 5q3 1.8 6.6 1.7.7 0 1.3-.4l-4-4.5c-3.4-1.8-8-3.7-8.4-1.8" style="fill:#1b2e35"/><path d="M97.7 106c-.2-.1-.6-1.2.6-2.6l6-6.9c1.3-1.6 2.7-.2 2.5 1.1-.7 6.1-6.8 9.7-9 8.4M109 94.2c-.2 0-.8-.8-.2-2.1l2.9-6.9c.6-1.5 2-.8 2.2.2 1 4.9-2.8 9.2-4.9 8.8M86.5 13.3c0 .2-.8.8-2.1.3l-6.8-2.7c-1.6-.6-.8-2 .2-2.2 4.9-1.2 9.2 2.5 8.7 4.6M31.8 78.7l1.4-.8c2.3-.9 2.4.6 2.6 2.4 1 8 4.4 10.1 6.8 11 4.9 2 10.9.1 14-4 3.2-4.2 3.6-10.4.7-14.8-4.4-6.7-13-7-14.8-10.8-2-4.3 3.5-4.9 5.9-8.5 2.1-3.3 2.6-7.7.5-11-1-1.8-2.6-3.4-2.2-5.3.5-2.1 6.5-5.4 11-9.3 3.1-2.7 10.6-10-1.2-12.2-4-.7-7 0-9.2 1A68 68 0 0 0 30.5 64a87 87 0 0 0 1.3 14.7m5.6-30.1c.8 0 2.7-.3 3.4.2q1.3 1 .7 3-.2 1.3-.6 2c-.5 1.5-1.2 3-2.5 3.7q-1 .4-2 .5c-1.3.2-3 .3-3.8-.9q-.3-.7-.3-1.4c-.3-2.2-.4-4.7 1.2-6.2 1.2-1 2.5-1 3.9-1" style="fill:#f1c688"/><path d="M33.2 22.1c-5 3-3.1 5.2-3.6 7.8s-3.2 3.6-5.2 3.8c-2.3.2-2.5-1.2-1.4-3q1.1-1.1 1.6-2.6c.4-1.3.2-2.7 1-4 1-1.8 3.7-2 5.3-3.5 1.2-1 1.8-2.7 3-3.7q2.1-1.3 4.5-1.6c3.2-.5 6-3 4.5-3.1s-4-.6-6 1c-2.2 1.6-5.3 2-7.7 3.5-2.7 1.5-4.1 4.9-5 5.8-.8.9-3.4 1-5.2 2.9A54 54 0 0 0 8.9 48.7c0 5 2.1 9.7 7 11q1.3.3 2 1.1c1.1 1.4-1.6 5.5-2 7.2a11 11 0 0 0 2 10c4 5 8.2 4.4 12.3 1.8l1.5-1A87 87 0 0 1 30.6 64c0-23.5 8.4-38.5 16.8-47.6-3.1 1.4-5 3.6-6.6 4.3-2.4 1-4-.8-7.5 1.4M26 49q-.4 1-1.6 1.4-1 0-1.7-1-1.2-1.3-.5-3c.5-1.3 2.3-2.3 3.6-1.7q1 .5 1 1.8-.2 1.6-.8 2.5" style="fill:#1b2e35"/></svg>