<svg xml:space="preserve" width="16" height="16" viewBox="0 0 128 128"><path d="m42 115 11.4-10.7a23 23 0 0 0-8.5-3.2 7 7 0 0 0-3.7.2c-2 .8-2.8 3-3.3 5q-.8 3.4-.8 6.7" style="fill:#37474f"/><path d="m25.6 92.3 1.2 15q.2 1.3 1.2 2a46 46 0 0 0 12.7 6c.8.3 1.6-.4 1.6-1.2v-12.2z" style="fill:#a65f3e"/><path d="M31.7 68.6c-.9 6-8.3 15.7-4.8 25 2 5.2 14.9 9 22.5 14 5.4 3.8 16 13 23.4 15 7.7 2 11.9 1.7 24.2-1 12.4-2.7 12.6-10.8 12.6-10.8s-.4-8.3-3.4-10.8c-5-4.2-10.4-3.6-14.6-5.8-5.6-3-13-13-18.7-24.3s2.2-56.3 2.2-56.3l-45-6s2.6 55 1.6 61" style="fill:#de7340"/><path d="M109.6 110.8s-4.5 4.6-13.4 6.8c0 0-12 3.9-22.3 1a67 67 0 0 1-17-10.5l-5.3-3.8q-4.7-3-10.4-5.6C26.6 92 26.1 88.7 26 87.8c0 0-1.4 2 0 5.7 2 5.1 15.8 9 23.4 14.2 5.4 3.7 16.2 12.3 23.4 14.9 8.4 3 19.7.5 23.2-.5 11.7-3.4 14-6 14.6-8.7.4-2-1-2.6-1-2.6" style="fill:#a65f3e"/><path d="m40 77.4-2.7 5.4q-.5 1-1.4 2c-.9 1-1.5.7-2.1.3-.9-.5-1-1.7-1-2.7-.1-3.8 1-10.3 4.1-12.6 1.5-1.1 3.2-.6 4.2 1.1 1.1 2.1 0 4.6-1 6.5m45.8 37.1c-4.8-1.2-3.4-5 .3-5.8 3.2-.7 5.7.6 11.2-1.2 3.4-1 4.9 1.8 2.9 3.3a21 21 0 0 1-14.4 3.7" style="fill:#f29657"/><path d="M31 6.3c1.6-2.3 10.2-2.7 22.4-1s20.2 3.7 21 7.1c.9 3.8-8.3 3.7-19.3 3-5.3-.2-6.9 3.3-6.9 3.3s-1.2-4.4-3.6-5C35.8 12 29.3 9.3 31.1 6.4" style="fill:#263238"/><path d="m46 79.5-1.6-.6q-1-.4-.7-1.4c.6-2 1.9-6.6 2.5-9.4.9-4.3.9-46.1 0-49.4h4c1 7.4.6 45.1 0 50a74 74 0 0 1-2.7 10q-.4 1-1.4.8" style="fill:#874d36"/><path d="M41 4c-4.7 0-9 .6-10.6 2.4-1.5 2.3 2.5 4.2 4 4.8 8.6 3.2 11.1 2.3 11.8 7.4q.4 1.5 1.9 1.5.5 0 .9-.2c2.5-.9 1.4-3.8 7.8-3.8h1q4.8.4 8.8.4c5 0 8.7-.7 8.5-3.8-.2-4.8-9-6-21.7-7.8-3.2-.4-8-.9-12.4-.9m7.6 12.8s-.9-3-3.8-4.2c-2-.8-10.1-3.6-11.1-4.5C31.8 6.3 36 6 41 6c13 0 29.4 2.6 31.6 5.5.8 1.1-1.2 2.9-6.2 2.9H65q-4.5-.4-9.2-.6H55c-5.9 0-6.4 3-6.4 3" style="fill:#ffb685"/><path d="m46.7 25-.1-2.4 3.7-3.5.1 2.2z" style="fill:#3e2723"/><path d="m49.5 20.8-4.1 3.8c-.9.7-2.2.5-2.7-.5l-1.5-3c-.5-1 .2-2.2 1.3-2.4l5.8-.5q1.1 0 1.6.9.3 1-.4 1.7" style="fill:#874d36"/></svg>