<svg xml:space="preserve" width="16" height="16" viewBox="0 0 128 128"><path d="M116.5 4h-104a8 8 0 0 0-8 8v104a8 8 0 0 0 8 8h104a8 8 0 0 0 8-8V12a8 8 0 0 0-8-8" style="fill:#194fa5"/><path d="M110.2 4H12a7.6 7.6 0 0 0-7.5 7.5v97.9c0 4.1 3.3 7.5 7.4 7.5h98.2c4.1 0 7.4-3.4 7.5-7.5v-98c0-4-3.2-7.3-7.2-7.4z" style="fill:#2262dd"/><path d="M40.2 12.9c0-2.3-1.6-3-10.8-2.7-7.7.3-11.5 1.2-13.8 4s-3 8.5-3 15.3c0 4.8 0 9.3 2.5 9.3 3.4 0 3.4-8 6.2-12.3 5.4-8.7 18.9-10.6 18.9-13.6" style="fill:#68abe6"/><path d="M97.3 58.4a6 6 0 0 0-4.4-1.7l-19.6 1L84 45.6q2.3-2.9 1.4-6.2a6 6 0 0 0-2.5-3.6l-26-15a6 6 0 0 0-6.5.6L37.9 32.6a5.6 5.6 0 0 0 7.5 8.4l9.6-8.5 7.9 4.6-14 15.9q-8.9 1.5-15 7.4l7.2 7.3a18.5 18.5 0 0 1 26.2 26.2l7.3 7.3a29 29 0 0 0 4.9-32.5l7.6-.4L85.3 91a5.6 5.6 0 0 0 5.6 6.1c2.9 0 5.4-2.2 5.6-5.2l2.4-29.1q0-2.6-1.6-4.4M53.6 100a18.6 18.6 0 0 1-15.4-29L31 63.7q-6 7.5-6.2 17.7a28.8 28.8 0 0 0 46.7 22.8L64 96.8q-4.6 3.1-10.4 3.2m35.6-66a9.4 9.4 0 1 0 3.1-18.5A9.4 9.4 0 0 0 89.2 34" style="fill:#fafafa"/></svg>