<svg xml:space="preserve" width="16" height="16" viewBox="0 0 128 128"><path d="M112.4 23.6H15.6L6.9 88l52 11.7 3.6-20.3q.3-1.2 1.5-1.2t1.5 1.2L69 99.7 121 88z" style="fill:#29b6f6"/><path d="M113.1 12a4 4 0 0 0-4-4H19a4 4 0 0 0-4 4l.7 11.6h96.8z" style="fill:#1c3aa9"/><path d="M6.8 89.2 4 110.5c0 .8 1.2 1.7 1.2 1.7 19.2 9.8 48.1 9.8 48.1 9.8q1.5.1 1.8-1.3l1.2-6.6 2.4-13.6z" style="fill:#2a56c6"/><path d="M58.5 101.7c-3.4-2-4.8-11.6-8.8-12s-7.6 7.2-12.2 6.5C32.8 95.6 33 86 27.9 85c-4.7-1-9 7.7-13.8 6-3.3-1.2-2.3-6.5-6.5-8.2L5.8 96.4c1.1 2.5 3 5.5 7.2 6.4 5.3 1.3 7.8-2.3 10-4.3.5-.6 1.5-1.9 2.4-1.9 1.3.1 1.6 1.6 1.8 2.8.7 2.9 2.5 7.4 7.9 8.7 5.3 1.2 8.4-2 10.5-4 .6-.6 1.5-2.1 2.5-1.9s1 1.4 1.4 2.7c1 2.6 2.3 6.7 7 8.2z" style="fill:#4db6ac"/><path d="m58.3 103.2 1-5.4q-1.1-.8-2-3.5c-1-2.7-2.3-6.3-6.5-7.3s-7 1.7-9 3.6c-2 1.8-2.9 2.5-4 2.3-1.3-.3-1.8-1.4-2.7-3.9-1-2.6-2.3-6.2-6.5-7.2-4.1-1-7 1.7-9 3.6-1.9 1.8-2.8 2.5-4 2.2s-1.7-1.3-2.6-3.8c-.8-2.2-1.8-5-4.6-6.5l-1 7 .5 1.4c1 2.6 2.3 6.2 6.4 7.2s7-1.6 9-3.6c2-1.8 2.9-2.5 4.1-2.2s1.7 1.3 2.6 3.8c1 2.6 2.3 6.2 6.5 7.2s7-1.6 9-3.6c1.9-1.8 2.8-2.5 4-2.2s1.7 1.3 2.6 3.8c1 2.6 2.3 6 6.1 7.1" style="fill:#82e8b6"/><path d="m121.2 89.2 2.8 21.3c0 .8-1.2 1.7-1.2 1.7-19.2 9.8-48.1 9.8-48.1 9.8q-1.5.1-1.8-1.3l-1.2-6.6-2.4-13.6z" style="fill:#2a56c6"/><path d="M69.5 101.7c3.4-2 4.8-11.6 8.8-12s7.6 7.2 12.3 6.5C95.2 95.6 95 86 100 85c4.7-1 9 7.7 13.8 6 3.3-1.2 2.3-6.5 6.5-8.2l1.8 13.7c-1.1 2.6-3 5.5-7.1 6.4-5.4 1.3-8-2.3-10-4.3-.6-.6-1.6-1.9-2.5-1.8-1.3 0-1.5 1.5-1.8 2.7-.7 2.9-2.5 7.4-7.9 8.7-5.3 1.2-8.4-2-10.5-4-.6-.6-1.5-2.1-2.5-1.9s-1 1.4-1.4 2.7c-1 2.6-2.3 6.7-7 8.3z" style="fill:#4db6ac"/><path d="m69.8 103.2-1-5.4q1-.8 2-3.5c1-2.7 2.2-6.3 6.4-7.3s7 1.7 9 3.6c2 1.8 2.9 2.5 4 2.3 1.3-.3 1.8-1.4 2.7-3.9 1-2.6 2.3-6.2 6.4-7.2s7 1.7 9 3.6c2 1.8 2.9 2.5 4.1 2.2s1.7-1.3 2.6-3.8c.8-2.2 1.7-5 4.6-6.5l1 7-.5 1.4c-1 2.6-2.3 6.2-6.5 7.2-4.1 1-7-1.6-9-3.6-1.9-1.8-2.8-2.5-4-2.2s-1.7 1.3-2.6 3.8c-1 2.6-2.3 6.2-6.5 7.2s-7-1.6-9-3.6c-1.9-1.8-2.8-2.5-4-2.2s-1.7 1.3-2.6 3.8c-1 2.6-2.3 6-6.2 7.1" style="fill:#82e8b6"/><path d="M78.4 19H56.1a2.5 2.5 0 0 1-2.5-2.4v-2.2c0-1.4 1.2-2.5 2.5-2.5h22.3q2.3.1 2.5 2.5v2.2c0 1.4-1.1 2.5-2.5 2.5" style="opacity:.57;fill:#212121"/><path d="M59.3 15.6c9 1.2 26.5 15.3 22.4 25.2-1.2 3-8.5 5.3-12-8-1.3-5-.7-12.4-2-12.7s.4 29.2-9.7 32c-3.8 1-11-2.4-6.7-13.6 1.5-4 15.2-21.3 26-22.9" style="fill:none;stroke:#fafafa;stroke-width:4.059;stroke-linecap:round;stroke-miterlimit:10"/></svg>