<svg xml:space="preserve" width="16" height="16" viewBox="0 0 128 128"><path d="M54.6 8.2s-1.2 1.7-3.5 1.7q-2 .1-5-2.2c-2-1.7-2.9-2.6-5.3-3.4-2.2-.7-5-.5-6.7 1-3.5 3.6-2 7-1.7 7.9 0 0 3.5 4.6 12.6 4.6q2.9 0 5.5-1.2c5.7-3.1 4.1-8.4 4.1-8.4" style="fill:#2d2d2d"/><path d="M54.6 8.2s-1.2 1.7-3.5 1.7q-2 .1-5-2.2c-2-1.7-2.9-2.6-5.3-3.4-2.2-.7-5-.5-6.7 1-3.5 3.6-2 7-1.7 7.9 0 0 3.5 4.6 12.6 4.6q2.9 0 5.5-1.2c5.7-3.1 4.1-8.4 4.1-8.4" style="fill:#0f3b7c"/><radialGradient id="a" cx="42.2" cy="10.7" r="13.1" gradientTransform="matrix(1 0 0 .66 0 3.65)" gradientUnits="userSpaceOnUse"><stop offset=".6" style="stop-color:#00838f;stop-opacity:0"/><stop offset="1" style="stop-color:#00838f"/></radialGradient><path d="M54.6 8.2s-1.2 1.7-3.5 1.7c-1.3 0-19 2.4-18.7 3.3 0 0 3.5 4.6 12.6 4.6q2.9 0 5.5-1.2c5.7-3.1 4.1-8.4 4.1-8.4" style="fill:url(#a)"/><radialGradient id="b" cx="42.8" cy="12.2" r="8.3" gradientTransform="rotate(31 41.89 11.93)scale(1 .96)" gradientUnits="userSpaceOnUse"><stop offset=".6" style="stop-color:#00838f;stop-opacity:0"/><stop offset="1" style="stop-color:#00838f"/></radialGradient><path d="M46.1 7.7c-2-1.7-2.9-2.6-5.3-3.4-2.2-.7-5-.5-6.7 1-3.5 3.6-2 7-1.7 7.9 0 0 15.7-3.9 13.7-5.5" style="fill:url(#b)"/><radialGradient id="c" cx="44.2" cy="723.9" r="5.9" gradientTransform="rotate(1 39687.24 53.9)scale(1 .982)" gradientUnits="userSpaceOnUse"><stop offset="0" style="stop-color:#ffeb3b"/><stop offset="1" style="stop-color:#fbaa19"/></radialGradient><path d="M35.7 6.5h.4c2.2 0 3.9 1.8 3.8 4v.4c0 2.2-1.8 3.9-4 3.8h-.4a4 4 0 0 1-3.9-4v-.4a4 4 0 0 1 4.1-3.8" style="fill:url(#c)"/><circle cx="37.1" cy="9.4" r="1.2" style="fill:#fff"/><radialGradient id="d" cx="33" cy="113" r="61.2" gradientUnits="userSpaceOnUse"><stop offset="0" style="stop-color:#29b6f6"/><stop offset="1" style="stop-color:#0277bd"/></radialGradient><path d="M111.2 87.2c-1.6 1.2-13.7 3.2-6.2-1 5-2.8 7.5-12-3.7-14.8C90 68.6 77.7 88.4 76 92.6a44 44 0 0 1-21.6 24.2 33 33 0 0 1-32.5 0c-10-5-13.2-14-11.8-26l1-6.2c1.4-6.7 2.7-7.7.6-17l18.3-2 3-.3 25.7-2.9c0 6.7-.8 11.8-10.6 21.3-3.8 3.8-10.5 7-11.9 11.9-.4 1.6-.7 3.4.8 5.6 1.6 2.5 13.5 8.5 24.8-7.5L71 79.8a42 42 0 0 1 16-15.6c25-12.5 37 13.8 24.2 23" style="fill:url(#d)"/><linearGradient id="e" x1="47.9" x2="22.5" y1="47.9" y2="20.2" gradientTransform="matrix(1 0 0 -1 0 129.78)" gradientUnits="userSpaceOnUse"><stop offset="0" style="stop-color:#005584;stop-opacity:0"/><stop offset=".8" style="stop-color:#005584"/></linearGradient><path d="M37.8 79.6c-3.5 3.3-7.6 5.7-11.4 8.6s-7.4 6-9.5 10.3-2.5 9.6.1 13.6c1.2 1.8 4.5 5.4 13.1 7.7 0 0-13.4-6.5-5.7-17.6 2.4-3.5 12.4-9.3 15.7-12s2.5-1.7 5.5-4.8A46 46 0 0 0 55 72.2c1.2-3.2 3-8.3-2.4-8.3S40.9 76.8 37.8 79.6" style="fill:url(#e)"/><linearGradient id="f" x1="88.5" x2="116.4" y1="41.2" y2="41.2" gradientTransform="matrix(1 0 0 -1 0 129.78)" gradientUnits="userSpaceOnUse"><stop offset="0" style="stop-color:#54ccbe"/><stop offset=".2" style="stop-color:#45caba"/><stop offset=".7" style="stop-color:#1fc4ae"/><stop offset="1" style="stop-color:#00bfa5"/></linearGradient><path d="M91 103.9q-1-.3-1.4-.8a9.7 9.7 0 0 1 4-12.9 35 35 0 0 1 6.8-2.5l1.4-.4q10-3 13-9.2 1.3-2.9 1.1-4.8c.3 1.1.5 2.3.5 4.5 0 6.3-3.7 9.1-7.7 11.2a24 24 0 0 1-6.9 2q-3.6.6-7 2.2-3.6 1.8-4.4 4.6t.8 6.1z" style="fill:url(#f)"/><linearGradient id="g" x1="63.3" x2="77.6" y1="19.5" y2="56.9" gradientTransform="matrix(1 0 0 -1 0 129.78)" gradientUnits="userSpaceOnUse"><stop offset="0" style="stop-color:#00ab94"/><stop offset=".7" style="stop-color:#00bfa5"/></linearGradient><path d="M49.2 119a52 52 0 0 0 13.4-18.8c6.6-19.6 9.4-22.7 13.7-27.5q7.4-8.3 16.1-10.7c-5 3.8-8.3 10.4-11.2 18.3a98 98 0 0 1-12.9 26 37 37 0 0 1-19 12.8" style="fill:url(#g)"/><path d="M49.2 119C64 109 71 92 76.8 76.7A58 58 0 0 1 88 59q1.6-1.5 3.5-2.6a18 18 0 0 1 8.5-2.2q4.6 0 8.5 2c2.6 1.5 5 3.5 6.4 6.1q1.1 2 1.3 4.3a18 18 0 0 1-2.8 12.3q-1.2 1.7-2.8 3a34 34 0 0 1-10.6 6.3q1.8-.8 3.5-2 1.8-1 3.3-2.4c2-1.7 4.2-3.5 5.4-5.7a16 16 0 0 0 2-7.4 13 13 0 0 0-1.5-7.2q-2-3-5.4-4.8c-3.4-1.8-4.8-1.7-7.2-1.7A15 15 0 0 0 90 61.2q-1.5 1.3-2.6 2.8a74 74 0 0 0-4.4 6.6v.1A57 57 0 0 0 78.1 81a69 69 0 0 1-27 37q-1 .7-2 1" style="fill:#5cead6"/><path d="M64 68.7h-6.3l-19-.4h-3.4l-1-.1h-4.4l-1.2-.1-14.5-.3H10c1.2-6.6 4-9.4 7.3-11 2.7-1.4 5.7-1.8 8-2.8l.9-.4 1.5-1v-.1q1.6-1.4 1.8-4.8l11.7-.6q0 3.9 2.2 5.4l.3.2a10 10 0 0 0 2.9 1.4l.8.3h.2l.4.2h.3l5 1.4 2.7 1 .6.2.2.1c3.6 1.8 6.6 4.9 7 11.4" style="fill:#039be5"/><path d="M46.9 87.3a2 2 0 0 1-1.7 1q-1 0-1.3-.3s-11.8-7.4-9.6-19.8c.7-4.6 3.4-9.8 9.2-15.7l.3.2 2 1L44 56c-3.2 4-5.7 8-6.5 12.2q-.4 2.6 0 5.2c1 5.6 4.8 9.5 7 12z" style="opacity:.35;fill:#212121"/><linearGradient id="h" x1="37.2" x2="58.4" y1="71.1" y2="71.1" gradientUnits="userSpaceOnUse"><stop offset=".1" style="stop-color:#00ab94"/><stop offset=".4" style="stop-color:#00bfa5"/></linearGradient><path d="M56.6 73.5a30 30 0 0 1-2.6 4.3l-.5.7-.3.5-5.5 8-1.2 1.8-.3.4-1-.9c-2.4-2.3-7-7.6-7.9-15v-5c.6-6.8 3-10.2 7-15.2l2.4 1 6.7 2 3.4 1.2a20 20 0 0 1-.2 16.2" style="fill:url(#h)"/><path d="m47.7 87-1.2 1.8-.3.4-.3.5-2-1.7c-3.6-3.3-9.8-10.4-8.6-19.8.6-4.7 3-9.9 8.5-15.5a10 10 0 0 0 2.9 1.4L45.2 56c-3.2 4-5.7 8-6.4 12.3q-.5 2.6 0 5.1c1 5.7 4.8 9.5 7 12z" style="fill:#fcb316"/><path d="M33 68.2q0 1.8-.8 3.9c-1.9 5.4-5 14.6-21.5 14.8V86l.4-1.5q.6-.8 1.9-1c11-1 14.4-6.7 16-11.7a16 16 0 0 0 .3-10.2l-.3-.9c-.6-2.1-1.4-4.4-1.7-5l-1-2.2 1.5-1c2.5 2 3.9 6.8 4.3 8.2q.6 1.9 1 4.5z" style="opacity:.35;fill:#212121"/><linearGradient id="i" x1="31.2" x2="7.1" y1="69.5" y2="69.5" gradientUnits="userSpaceOnUse"><stop offset=".1" style="stop-color:#00ab94"/><stop offset=".4" style="stop-color:#00bfa5"/></linearGradient><path d="m31.2 68.2-.1.8c-.3 2.9-1.5 5.3-2 6.3-2.3 4.8-7 10-18.3 10.8l-3.3.1h-.4q.8-1 1.8-2.7a47 47 0 0 0 4.7-12v-.2l.6-3.5c.5-3 3-10.5 3.2-11 2.7-1.4 5.7-1.8 8-2.8l.9-.4 1.2-.8a30 30 0 0 1 3.7 15.4" style="fill:url(#i)"/><path d="M31.7 68.2a19 19 0 0 1-1 4.5c-1.7 5.1-5.7 12.9-20 13.9l-3.2.1h-.9c.2-.2 1.7-2 2.3-3.2h2.9c11-1.2 14.4-6.8 16-11.8a16 16 0 0 0 .3-10.2l-.3-.8c-.6-2.2-1.3-4.4-1.7-5l-.7-1.7.9-.4 1.5-1v-.1c1.8 2.6 2.8 7 3.1 8.2q1 2.6.8 7.5" style="fill:#fcb316"/><path d="M56.6 73.5a30 30 0 0 1-2.6 4.3 34 34 0 0 1-16-4.3l-.7-.3-1-.4-7.2 2.5c-5.2 1.6-11.7 3-17 1.8q1-2.9 1.5-5.5v-.2a43 43 0 0 1 13-2.4h10.7a74 74 0 0 1 19.3 4.5" style="opacity:.35;fill:#212121"/><path d="M63 63.9c.5.4 2.7 2.5 2.7 4.7 0 1.8-.8 4.1-3.2 5.3-6.6 3.2-18.9.7-24.5-2.9-7-4.4-11.8-7-11.8-7A17 17 0 0 1 15 62.3s-6.7 1.3-7.8 1.2c-1.7 0-2.2-2.4-.7-2.9 2.8-1 9.7-5 12.3-4.8a258 258 0 0 1 20.4 4c1.4.5 9.5 2 9.5 2M39.5 60s12.8-4.3 15.7-3.7A16 16 0 0 1 66 64.6c-.4 1.2-3 2-5.6 1.4-3.4-.9-7.3-3.4-11.7-4.3 0 0-9-1.6-9.2-1.8" style="fill:#4fc3f7"/><path d="M66 64.6q-.4 1-1.2 1.4l-1.8.7q-2 .3-3.8-.3-1.9-.8-3.2-2-1.4-1.3-2.6-1.4h-1.7a22 22 0 0 1-5.4-.7q-3.6-.8-6.8-2.4l7 .8 3.5.3h3.6q1.2 0 2 .7l1.6 1.2q1.2 1.3 2.6 2a7 7 0 0 0 4.8.6q.8-.2 1.4-.9" style="fill:#0277bd"/><path d="M36.7 70.2A45 45 0 0 1 12 74.5c-2.2-.5-5.1-1.1-5.8-3.7-.9-3.2 2.9-7.5 2.9-7.5l5.9-1 3.5 1.3q1.6.6 3.3.6l4.4-.2s11 6.2 10.5 6.2" style="fill:#4fc3f7"/><path d="M62.5 74q-4.6 2.1-9.7 2a36 36 0 0 1-14.4-3.6L36.2 71l-2-1.3-8.4-5 .6.1a17 17 0 0 1-11.7-2.2l.4.1-4 .5-2 .2H7.3q1 0 2-.3l1.9-.5 3.8-1h.2l.2.1q1.2.6 2.6 1a18 18 0 0 0 5.5.7q1.4 0 2.7-.4h.3l.3.1q4.3 2.3 8.5 5l2 1.2 2.1 1.3a31 31 0 0 0 9 3.2l4.6.8q4.9.6 9.6-.8" style="fill:#0277bd"/><path d="M20.8 40.7c-1-.3-3-.8-4.2-2.2-2.4-2.5-3-7.5-3.3-9.3 1.3.1 4.3.6 5.8 2.4z" style="fill:#039be5"/><path d="M18 38.4c-.1 1.7-1 3-2.2 3q-2-.2-2.3-2.9.1-2 1.4-2.8l.4 1q-.7.5-.7 1.8c0 1.1.7 2 1.2 1.9q1-.1 1.2-2 0-1.2-.4-1.7c-.4-.9.2-1.6.9-.7 0 0 .7.8.5 2.4" style="fill:#fcb316"/><path d="M51.3 31.6c1.5-1.8 4.5-2.3 5.8-2.4-.2 1.8-1 6.8-3.3 9.3a8 8 0 0 1-4.2 2.2z" style="fill:#039be5"/><path d="m33.7 52.1 1.2.1h1.6c9-.6 15-9 15.2-22.1s-7.9-19.8-16.2-19.9S19 16.5 18.7 29.6c-.2 13.2 6.4 21.8 15 22.5" style="fill:#4fc3f7"/><path d="M37.1 38.2H37l-3.5-.1h-.1q-.5.3-.4.8c.1.5.8 1.3 2.2 1.4s2-1 2.2-1.3 0-.7-.3-.8" style="fill:#0277bd"/><path d="M39.3 42.1c-1.5 1-6.6.9-8.1 0-.9-.6-1.8.2-1.4 1 .3.8 3 2.6 5.4 2.7s5.1-1.8 5.5-2.6-.5-1.6-1.4-1" style="fill:#4e342e"/><path d="M53 36c.6-.9 1.2-.2.8.7-.2.5-.3.8-.3 1.8s.5 1.9 1.1 1.9 1.2-.8 1.2-2q0-1.2-.7-1.7l.4-1q1.3.9 1.4 2.8c0 1.7-1 3-2.3 3s-2-1.4-2.2-3c-.1-1.7.6-2.5.6-2.5" style="fill:#fcb316"/><circle cx="27.3" cy="33.6" r="2.4" style="fill:#212121"/><circle cx="43.2" cy="33.6" r="2.4" style="fill:#212121"/><linearGradient id="j" x1="106.1" x2="102.1" y1="18.7" y2="7" gradientTransform="matrix(1 0 0 -1 0 129.78)" gradientUnits="userSpaceOnUse"><stop offset="0" style="stop-color:#00ab94"/><stop offset=".6" style="stop-color:#00bfa5"/></linearGradient><path d="M116.2 113.6c-5.5-1-5-2.6-5.6-4.2l-5.3-1.6c-1.2 1-2.4 3.2-7 1-1.4-.7-6.2-4.7-6.2-4.7l-3.5-1 7.7 9.7c4.1 5.3 6.6 6.3 8.4 6.8 2.8.8 6 .4 6 .4s5.3.6 9-.7c3.8-1.4 5.5-5 5.5-5zm2.8 4q-2.1.7-4.5.8 1.9-1.5 2.7-3l4.7.4a8 8 0 0 1-2.9 1.8" style="fill:url(#j)"/><radialGradient id="k" cx="110.2" cy="17.2" r="8.7" gradientTransform="matrix(.973 -.232 -.217 -.91 6.08 155)" gradientUnits="userSpaceOnUse"><stop offset=".3" style="stop-color:#febc12"/><stop offset=".5" style="stop-color:#fea709"/><stop offset=".8" style="stop-color:#ff9000"/></radialGradient><path d="M121.9 115.8q-1 1.1-2.9 1.8-2.1.7-4.5.8c1-.8 2.1-2.2 2.7-3a33 33 0 0 1-10.8-1.3A36 36 0 0 1 91.7 104l-3.2-.8c.5.4 4.4 5.4 7.7 9.6a21 21 0 0 0 6.5 6c-3.4 0-5.4 2-5.4 2l13.1 3.8s-.6-2.8-3.5-4.6c2 .2 3.7 0 3.7 0s5.4.6 9-.7c3.9-1.4 5.6-5 5.6-5z" style="fill:url(#k)"/><radialGradient id="l" cx="106.7" cy="28.8" r="3.8" gradientTransform="rotate(196.3 6.94 49.71)scale(-1 1)" gradientUnits="userSpaceOnUse"><stop offset="0" style="stop-color:#febc12"/><stop offset="1" style="stop-color:#ff8f00"/></radialGradient><path d="m108.3 105-3.2 3 5.6 1.7-1.5-4.5 1.2-1q.5-.3.4-1l-.2-2.4q-.2-.8-1-.3l-1.5 1.8q-.5.7-.3 1.3z" style="fill:url(#l)"/><radialGradient id="m" cx="106.6" cy="8.4" r="4.4" gradientTransform="rotate(196.3 6.94 49.71)scale(-1 1)" gradientUnits="userSpaceOnUse"><stop offset="0" style="stop-color:#fef59f"/><stop offset=".9" style="stop-color:#fac537"/><stop offset="1" style="stop-color:#f9bf2c"/></radialGradient><path d="M110 123.6 98.2 120l1.5-.8 9.5 2.8z" style="fill:url(#m)"/><path d="M30.8 29.8q-.5.3-1.2-.1-1.4-.6-2.9-.8-1.4 0-2.9.4c-.8.2-.3-1 .7-1.7.7-.5 1.4-.7 2.9-.7 1.3 0 2.7.5 3.4 1q.8 1.1 0 1.9m8.9 0q.5.3 1.2-.1 1.4-.6 2.9-.8 1.4 0 2.9.4c.8.2.3-1-.7-1.7-.7-.5-1.4-.7-2.9-.7-1.3 0-2.7.5-3.4 1q-.7 1.1 0 1.9" style="fill:#01579b"/></svg>