<svg xml:space="preserve" width="16" height="16" viewBox="0 0 128 128"><path d="M116.5 4h-104a8 8 0 0 0-8 8v104a8 8 0 0 0 8 8h104a8 8 0 0 0 8-8V12a8 8 0 0 0-8-8" style="fill:#f77e00"/><path d="M110.2 4H12a7.6 7.6 0 0 0-7.5 7.5v97.9c0 4.1 3.3 7.5 7.4 7.5h98.2c4.1 0 7.4-3.3 7.5-7.5V11.5c0-4-3.2-7.4-7.2-7.5z" style="fill:#ff9800"/><path d="M107.6 36H97.4c-1 0-2 .9-2 1.9v23.5l-35.8-25a2 2 0 0 0-3.1 2v22.3l-35-24.4c-1.4-.9-3 .2-3 2v51.4c0 1.8 1.7 2.9 3 2l35-24.4v22.3a2 2 0 0 0 3 2l36-25v23.5c0 1 .8 1.9 1.9 1.9h10.3q1.7-.1 1.9-1.9V37.9c0-1-1-1.9-2-1.9" style="fill:#fafafa"/><path d="M40.2 12.9c0-2.3-1.6-3-10.8-2.7-7.7.3-11.5 1.2-13.8 4s-3 8.5-3 15.3c0 4.8 0 9.3 2.5 9.3 3.4 0 3.4-7.9 6.2-12.3 5.4-8.7 18.9-10.6 18.9-13.6" style="opacity:.75;fill:#ffbd52"/></svg>