<svg xml:space="preserve" width="16" height="16" viewBox="0 0 128 128"><path d="M33.4 53.2S21.4 68 22 84.2s9.9 38.7 42.5 39.5a38.5 38.5 0 0 0 40.7-46.9C100.5 57 90.4 50.6 90.4 50.6z" style="fill:#865c52"/><path d="M32.6 54.3s0-1.7.7-3.7 1.7-3.8 1.7-3.8l16.2 10.8c.6.3 18.5 3.8 19.8 3.2l17.1-9c1.2-.3 2.7-5.6 2.7-5.6s1.7 2 2.5 5c.4 1.5.4 3.5.4 3.5s.6 5.8-10.8 13A43 43 0 0 1 41.1 66c-7.6-5.5-8.5-11.7-8.5-11.7" style="fill:#b0b0b0"/><path d="M63.3 33.2c-15-.2-28.6 6.3-28.8 16.2-.1 8.5 15.3 15.8 28 15.9 16.8 0 29-8 29-15.7 0-7.8-10-16.2-28.2-16.4" style="fill:#e0e0e0"/><path d="M78.9 42.1s-4.3-4.8-16.4-5c-11.4 0-18.8 4.1-18.7 10.3.2 7 9.2 7.9 9.2 7.9l23-3.6z" style="fill:#858585"/><path d="M75 47.2s-3.3-3-13-3-14.8 3.3-15.3 6.5c-.3 2 .3 2.4.3 2.4s5.4 4.1 16.5 4 12.8-2.2 12.8-2.2z" style="fill:#96a520"/><path d="M69.5 57.7s15-29 16.4-30.4l24-25.5 3.4 3-6.8 7.5s-16.7 18.5-17 19.3c-.2.8-9 18.8-9.4 19.4-.3.6-2 7-2.3 7-.4.1-8.3-.3-8.3-.3" style="fill:#e0e0e0"/><path d="M75.7 55.2 88.8 30l23.8-25.7 1.7 1.5-23 25.7c-.9 1.3-11.2 21.6-11.2 21.6l-1.8 1.1c-1.4.8-2.6 1-2.6 1m18.7-38.6c-.4 0-3.7 3.2-3.5 3.8s5.2 5.3 6 5.5 3.5-3.1 3.6-3.5c0-.3-5.3-5.6-6.1-5.8" style="fill:#b0b0b0"/><path d="M94.2 18.1c-1 0-1.5 1-1.5 2q0 1.7 1.5 1.8c1.5.1 1.5-1 1.5-2s-.5-1.8-1.5-1.8" style="fill:#fff"/><path d="M32.7 66c-1.4-.2-5.6 6.7-5.8 14.4S28.6 93.8 30 94c2 .2 3-6 5.4-11 2.5-4.8 6.5-8 6.4-9.5s-3-2.7-5-4.3-3.2-3.2-4-3.3" style="fill:#b78859"/></svg>