<svg xml:space="preserve" width="16" height="16" viewBox="0 0 128 128"><path d="M76.4 106.4c2.2-1.7 9-2 12-2.4 1.8-.2 5-.5 6.5-2a9 9 0 0 0 2.4-7.8c-.3-2.4-.8-4.8.1-6.3.5-.7 2.5-4.5.1-5.4-1.3-.5-2 0-7.3.1-2.5 0-4.3-.8-3.5-2.2.9-1 4.7-1.4 8.3-2.7 2.5-1 3.8-1.5 4.1-3.7.2-1.3-.8-2.1-1.3-3.8q-.5-2 .6-2.7c1-1 3.4-2.4 3.8-5 .5-4.7-7.1-7-9.6-11.8-1.2-2.2-.2-8.4-.2-10.4 0-8.2-4.1-21.8-17-29.6-11.5-7-26-7.8-39.1-4.5a43 43 0 0 0-16.8 9.5A45 45 0 0 0 6.7 42.3a49 49 0 0 0 7.4 35c8.2 13.1 20.1 21.5 22 29a115 115 0 0 1 0 16.6h37.8c0-6.2-.2-14.4 2.5-16.5" style="fill:#1976d2"/><path d="M104.8 71.4a2.2 2.2 0 0 1-1.2-4l15.1-10a2.2 2.2 0 0 1 2.4 3.6l-15 10zm15.2 27q-.7 0-1.3-.4l-15.1-10a2.2 2.2 0 1 1 2.4-3.7l15.2 10a2.2 2.2 0 0 1-1.3 4m-14.6-18.9a2.2 2.2 0 0 1 0-4.4l18-.3c1.3 0 2.3 1 2.3 2.1s-1 2.2-2.1 2.3z" style="fill:#b0bec5"/></svg>