<svg xml:space="preserve" width="16" height="16" viewBox="0 0 128 128"><path d="M123.4 119c-.4-2-2-2.4-2.9-4.4 0 0-6.5-14.6-9.6-23.7a146 146 0 0 1-4.4-16.4c-1.7-8.6-5.2-11-9.3-13.6A372 372 0 0 1 58.7 34a482 482 0 0 1-21.5-19L25.8 26.5 14.5 37.7s7.4 7.7 19 21.5a370 370 0 0 1 27 38.5c2.4 4.1 4.9 7.6 13.5 9.3a146 146 0 0 1 16.4 4.4c9 3 23.7 9.6 23.7 9.6 2 1 2.3 2.5 4.3 2.9 3 .6 3.3-1.7 3.3-1.7l-.6-.6.6.6s2.3-.2 1.7-3.3" style="fill:#84b0c1"/><path d="m118 119.2 3.7 3s-.7-2.1-4.6-7-28.9-28.9-28.9-28.9l-2 2s27.4 27.4 31.7 30.9"/><circle cx="85.3" cy="84.9" r="4.6"/><path d="M75.4 51.4c3.8 1.7 8.7 5.7 17.3 11.4 8.8 5.8 8.1 10.2 9.7 15.9 1.4 4.9 4.1 12.2 6 17.3.4 1-1.4 1-2.5-.7C94.6 76.1 74.2 60 73.4 56c-1-4.9 2-4.7 2-4.6" style="fill:#a8e3f0"/><path d="M56.7 54.6s-13.7 11-12.4 13C49.6 76 62.4 96.3 67 99.9a52 52 0 0 0 16.8 5.9c3.7 1 6.8 1.5 9.6 2.8 1 .5 2-1 1-1.7-9.1-6-24.8-15.3-37-33-7.3-10.4-.7-19.3-.7-19.3" style="fill:#2f7889"/><path d="M19.6 21C25.2 15.4 32.5 10 37 6.9a6 6 0 0 1 7.6.8 575 575 0 0 1 28.2 31.6 4 4 0 0 1-.3 5.4L43.1 73a4 4 0 0 1-5.4.4A575 575 0 0 1 6.4 45.9a6 6 0 0 1-.8-7.7c3.1-4.5 8.5-11.6 14-17.2" style="fill:#424242"/><path d="M34.3 70.6a157 157 0 0 1 17.1-20.7A79 79 0 0 1 70 35.8s2.8.6 3.7 2.5c1.3 2.6.3 5-1.2 6.4L43.1 73c-1.4 1.5-4.6 2.8-6.8 1.2-2.3-1.7-2-3.6-2-3.6" style="fill:#ffc107"/><path d="M61.1 42.7c-2.6 2.5-5.1 6-2.2 8.6 1.9 1.7 5.3-.5 6.6-1.8 2.6-2.5 8.7-6.3 5.1-9.8-3.4-3.3-7.4 1-9.5 3" style="fill:#ffee58"/><path d="M52.1 38.9a332 332 0 0 1-15-14.1C30.3 18 40 11 44.5 15.5c5 5 12.5 13.7 15.4 19.5 1.5 2.9-3.9 7.3-7.8 3.9" style="fill:#757575"/></svg>