<svg xml:space="preserve" width="16" height="16" viewBox="0 0 128 128"><path d="M85.5 24.1c17.8 1.1 21 .1 24.2 0 3.2 0 3 1.4 3 3.1l.5 40.4q0 1 .4 2.2l-7.9 25-2.6 1.6c-1.1.8-22.8 21-25.9 24-3 2.8-13.3 7-20-1.2-5.8-7-2.5-16 0-19s24.1-26.5 25.5-30.7c1.2-3.5 0-33-.3-42.2 0-1.7-.2-3.4 3-3.2" style="fill:#c9e3e6"/><path d="M117.6 84c.5-6.4-3.5-11.3-4.3-15.3a99 99 0 0 1-13.3 8.4c-1.4.7-1.8 2.4-1.3 3.8 1.4 3.7 4.2 10 6.5 14.2 0 0 1.6-1 4.1-2 2.6-.8 7.9-3.2 8.3-9.1m-62.2 19.4c-1.7 4.1-2.5 10.6 1.8 15.8 5.3 6.4 12.7 5.3 17.1 3 0 0-.3-5.3-5.8-11.8s-13.1-7-13.1-7" style="fill:#5fb2de"/><path d="M96 39c-6.3 0-10.9-.7-13.2-1l-.2-5.2c.1 0 12.4 2.8 30.2-.3v5Q103.4 39 96 39m0 9.2c-6 0-10.6-.6-13-1l-.1-5a91 91 0 0 0 30-.5v5q-9.5 1.5-16.9 1.4" style="fill:#f44336"/><path d="M39.9 4c17.8 1 20.9.1 24.1 0 3.3 0 3.1 1.4 3.1 3.1l.5 40.4.3 2.2-7.8 25q-1.8.9-2.7 1.6c-1 .8-22.8 21-25.8 24-3 2.8-13.3 7-20-1.2-5.8-7-2.5-16 0-19C14 77.4 35.7 53.7 37 49.5c1.1-3.5 0-33-.3-42.2-.1-1.7-.3-3.4 3-3.2" style="fill:#c9e3e6"/><path d="M72 63.9c.4-6.5-3.5-11.3-4.3-15.3A99 99 0 0 1 54.3 57c-1.3.6-1.8 2.3-1.2 3.8 1.3 3.7 4.1 10 6.5 14.1 0 0 1.5-1 4.1-1.8 2.6-1 7.9-3.3 8.3-9.2M9.7 83.3a15 15 0 0 0 1.9 15.8c5.2 6.4 12.7 5.3 17 3 0 0-.2-5.3-5.7-11.8s-13.2-7-13.2-7" style="fill:#5fb2de"/><path d="M50.4 18.8c-6.3 0-11-.6-13.3-1l-.2-5c.2 0 12.4 2.7 30.3-.4v5q-9.5 1.4-16.8 1.4m0 9.2q-9.2-.1-13-.9l-.2-5a91 91 0 0 0 30-.5l.1 5q-9.6 1.4-17 1.4" style="fill:#f44336"/></svg>