<svg xml:space="preserve" width="16" height="16" viewBox="0 0 128 128"><path d="M116.5 4h-104a8 8 0 0 0-8 8v104a8 8 0 0 0 8 8h104a8 8 0 0 0 8-8V12a8 8 0 0 0-8-8" style="fill:#689f38"/><path d="M110.2 4H12a7.6 7.6 0 0 0-7.5 7.5v97.9c0 4.1 3.3 7.5 7.4 7.5h98.2c4.1 0 7.4-3.4 7.5-7.5v-98c0-4-3.2-7.3-7.2-7.4z" style="fill:#7cb342"/><path d="m11.6 110.9 12-14.8 12 8.4L43.5 88l12-8 12 20 10-28 11.8 18 14-26 8-40.1" style="fill:none;stroke:#efebe9;stroke-width:5;stroke-linecap:round;stroke-linejoin:round"/><path d="M40.2 12.9c0-2.3-1.6-3-10.8-2.7-7.7.3-11.5 1.2-13.8 4s-3 8.5-3 15.3c0 4.8 0 9.3 2.5 9.3 3.4 0 3.4-8 6.2-12.3 5.4-8.7 18.9-10.6 18.9-13.6" style="opacity:.65;fill:#abc884"/><path d="m41.3 39.4 10.3-22.2q.5-1 1.6-1h5q1 0 1.2 1l-.1.5-12.2 24a1 1 0 0 0 .9 1.5h6.9q1 0 1.2 1v2.5q0 1-1.2 1.2h-10a1 1 0 0 0-1 1v4q.1 1 1 1h10q1 0 1.2 1.2v2.3q0 1-1.2 1.2h-10a1 1 0 0 0-1 1v9.7q0 1.1-1.2 1.3H38q-1.2-.1-1.3-1.3v-9.7q-.1-1-1-1H26q-1.1 0-1.2-1.2v-2.2q0-1.1 1-1.2h9.9q.9-.1 1-1v-4.1q-.1-1-1-1H26q-1.1 0-1.2-1.2v-2.3q0-1.1 1-1.2H33q.9-.1 1-1l-.1-.5-12.2-24a1 1 0 0 1 1-1.5H28q1 0 1.6 1l10.3 22.2q.3.5 1 .3z" style="fill:#efebe9"/><path d="M40.2 12.9c0-2.3-1.6-3-10.8-2.7-7.7.3-11.5 1.2-13.8 4s-3 8.5-3 15.3c0 4.8 0 9.3 2.5 9.3 3.4 0 3.4-8 6.2-12.3 5.4-8.7 18.9-10.6 18.9-13.6" style="opacity:.3;fill:#abc884"/></svg>