<svg xml:space="preserve" width="16" height="16" viewBox="0 0 128 128"><path d="M89.5 117a181 181 0 0 1-18.1-23.6s22-20.2 23.4-20.4c1.5-.2 26.4 12.9 26.4 12.9s-4 25.4-11 29.8c-7 4.3-20.7 1.3-20.7 1.3" style="fill:#a3a3a3"/><path d="M91.5 81s-5.8 6.9-8.3 15.5c-1.8 6-1.4 11.6-1.4 11.6L74.2 98l5.6-8z" style="fill:#646464"/><path d="M14.9 23.4c-6 14.4-6.2 33-6.2 33l29 13.5L64 113s11-16 13.7-22.2z" style="fill:#a3a3a3"/><path d="m95.6 89 16.7 22.8s15.9-23.7.7-34a53 53 0 0 0-19.8-4.3z" style="fill:#646464"/><path d="M59.6 113h-.2l-.4.3zm52.6-43.3c-3.2-2-63.5-36-70.7-41l-30.4 2.5-6.9 8.4 2.3 2.6L4 48l34.4 19.2c2 4.9 13.4 30.6 19 43.7 0 0 9.6-8.3 14-14.3L64 113l8.8 4.2s1.6-19.6 13.4-31.4c11.6-11.6 19.7-9.6 25-3.7 8.5 9.2 0 27.7-9.8 27-7.7-.6-2.6-12-3-19.5-.5-7-3.8-9.4-4.7-9.7s-4.3 4.6-5.4 9c-5.6 21.9-1 29.9 7.2 31.5 12.3 2.3 22-5.5 26.4-19.1 4.6-14 1.1-25-9.8-31.6" style="fill:#cfcfcf"/><path d="M93.7 86.5s1.9 7.2-.5 16.1a17 17 0 0 1-1-8.5c.3-3.7 1.5-7.6 1.5-7.6m3.5 26.5q1.7.5 3.3.6a12 12 0 0 0 8.8-3.2 32 32 0 0 0 4.6-4.7l4-5.4a23 23 0 0 1-7.3 11.7 13 13 0 0 1-6.6 2.9 10 10 0 0 1-6.8-1.9" style="fill:#a3a3a3"/><path d="M112.6 69.9S97.8 54.9 76.2 41c0 0-19.6-26.7-21.9-29.3C50 6.8 41.3 6.6 34 8 18.8 10.7 9.8 22 4 31l34 32 18.8 39.7C66.5 95 68.7 85 82.7 75.3c17.3-12 30-5.4 30-5.4" style="fill:#eee"/><path d="M81.2 84q1.4-2.2 3.3-4.1t4-3.4 4.7-2.7l2.5-1 1.4-.3 1.3-.3q1.3-.3 2.7-.4h2.8q2.8.3 5.4 1.2l1.2.6 1.3.6 2.2 1.6q2.1 1.8 3.2 4.3l-.2.1a12 12 0 0 0-3.6-3.5q-2.2-1.4-4.6-2.2-5-1.4-10-.4l-1.3.3-1.2.3-2.4.8q-2.3 1-4.5 2.3-2.3 1.4-4.2 3zm-77-44.5 20.2 16.6L5.7 44l.6-1.5z" style="fill:#a3a3a3"/><g style="opacity:.7"><path d="m46 11.2 10.4 13h1.9L48 11.2zm-9 .8 12.2 13.8 1.5-.5-12-13.6z" style="fill:#a3a3a3"/></g><g style="opacity:.7"><path d="M62.6 28.8 61 29a70 70 0 0 0 12.8 14.8l2-.3c-5-3.6-9.7-9.6-13-14.6m-7.5.9-1.5.4c2.9 4.4 7.5 11 12.2 15.8l1.5-.6a97 97 0 0 1-12.2-15.6M49 32.5l-1 .7-.2.1c2.6 4 7.5 11.1 12.2 16.3l1.2-.8c-4.6-5.1-9.6-12.4-12.2-16.3M42.9 38a233 233 0 0 0 11.9 16l1-1c-4-4.7-8.8-11.5-11.9-16zm-4.4 5.6c3 4.2 8 10.9 11.7 15.4l.8-1a430 430 0 0 1-11.7-15.5zm-4 6L46 64.8l.8-1.3-11.4-15.3z" style="fill:#a3a3a3"/></g><path d="m67.6 52.3-3.2 2.4L76 71.1s2.5-2.5 4.4-3.2z" style="fill:#a3a3a3"/><path d="M44.6 28a52 52 0 0 0-15.2 17.7L13.1 30.4s8.5-14 18.8-16.8z" style="fill:#c2c2c2"/><path d="m8 34.8-1.2 1.5L24 49.8zm5-4.4 16.4 15.3s2.4-5.3 8.2-11.5v-7L23.9 30v-5l-7.2.4z" style="fill:#a3a3a3"/><g style="opacity:.7"><path d="m71.8 50.3 14 15.4 2-.6-14-15.4zm9.4-1.3h-2.7l16 14.5s1.7-.5 2.7-.2zM59.6 59.8 70 77l1.4-1.6L61 58.3zm-5.3 5.6 9.8 19q.8-.7 1.3-1.6l-9.7-19zM49 71.5 57.7 92l1.4-1.7L50.4 70z" style="fill:#a3a3a3"/></g><path d="m38.2 72-1.5-2.3-.2-.6c.3-2.2 2.1-13.2 17.3-23.3 11.5-7.5 19.4-7 21.2-6.7q.4 0 .7.3l1.9 2.1q.2.5-.2.6c-2.6 0-11.5.4-21.5 7a39 39 0 0 0-17.3 22.7q-.1.4-.4.1" style="fill:#dea076"/><path d="M77.3 42q-3.2 0-6.4.9-3 .7-6 2A49 49 0 0 0 41 65.6q-1.5 2.9-2.3 6 1.3-6.5 5.2-11.9a44 44 0 0 1 20.7-15.5c4-1.5 8.4-2.5 12.7-2.2" style="fill:#c17e52"/></svg>