<svg width="16" height="16" viewBox="0 0 128 128"><path fill="currentColor" d="M94.9 71.4c-8-7.7-21.8-14-31-18.3l-4-1.9c-3.4-1.6-8.1-6.2-6.1-11.4q2-5.4 10.3-5.4 2.5 0 5.7.6c7 1.3 12.5 4 15.6 5.5q.5.3 1.2 0 .6-.1.9-.8l7-15.8q.4-1.2-.6-2a62 62 0 0 0-36.8-7.8c-11 1.2-21.9 4-28 17.7-3.7 8.4-3.7 18 0 24.9 4 7.5 10.7 10.8 19 15l1.2.6c6 3 13.3 6.4 18 8.6 7 3.4 9.7 9.5 8 13.1-2.5 5.9-8.3 7.2-18.3 4.3a54 54 0 0 1-19.2-11.1 1.6 1.6 0 0 0-2.3.3L24.6 104q-.6 1.1.2 2A64 64 0 0 0 43 118.6a50 50 0 0 0 21 4.2c8 0 27.9-1.9 36.6-19.2a27 27 0 0 0-5.7-32.3"/></svg>