<svg xml:space="preserve" width="16" height="16" viewBox="0 0 128 128"><path d="M24.3 82.4S17.2 72 17 66c0-3.3 1.6-7.1 4.9-9s7.8-3.4 7.8-3.4l72 .2s5.7-.3 8.1 6.4c2.2 5.8-2.6 16.7-2.6 16.7S70.3 90.3 60.4 89.6s-36.1-7.2-36.1-7.2" style="fill:#fbb75a"/><path d="m45.7 57.2-18-3.1s-3 1.1-4 1.7l-1.8 1s16 15.3 41.8 14.7c36-.8 42.5-16.4 42.5-16.4s-1.2-1-3-1.4c-2.7-.5-6.8-.2-6.8-.2zm-26 18-.4-3s.7-.3 3.6 1c7.5 3 22.6 8.9 38 8.9 20.1 0 35.5-6.5 43.2-10.6 3.5-1.9 5-2.2 5-2.2l-1.9 9.1-45.3 15-39-11.6z" style="fill:#cf6e21"/><path d="m32.7 78.6-9.2-1L18 74s4.4 8.3 5.2 12.2l5.3 26s6.4 11.6 34.2 11.5c29.9 0 39.5-13 39.5-13l2.9-24.4 2-7 2.2-8.4L99 76.5l-7.3 5h-8.5l-8.8 3.7-9.7-.9-7 3.2-9.6-4.1-7.8 1z" style="fill:#a9e7ff"/><path d="M40.7 88.2c-3.6-.6-3.6 4.3-3.1 8.2l2.2 23.9s1.4.7 3.4 1.2l4 1L45 97c-.1-2.1-.6-8.3-4.4-8.8M58 91.8q-4.3-.2-4 7.8l1.4 24 3.6.3h3.8l-.7-23.5c-.1-2.8 0-8.4-4-8.6m-33.8-9.4c-2.1.1-1.8 2.2-1 5.9l3.4 17.4L28 112s1.4 1.8 2.1 2.4l2.2 1.8S28.5 90.3 28 88s-1.1-5.7-3.7-5.6m51.3 8.5c-4.6 0-4 6.5-4 8l.2 24.5 3.8-.4 3.6-.6.1-24.1c0-2 .7-7.5-3.7-7.4m15.9-5.3c-3.8.3-4 4.5-4 9-.2 4.5-.4 25.6-.4 25.6l3.5-1.3 2.8-1.4 1-24.5c0-2.1.8-7.7-3-7.4m8.1 27.9c.9-.6 2.8-2.7 2.8-2.7l3.2-20.4 1.8-11.1s-1-.5-2.3 0-3 2.6-3.3 7z" style="fill:#4ec0f5"/><path d="M99.7 77.2c-3.8 1.7-8.3 7.1-8.3 7.1s-3.7-2.8-8-1.7c-5 1.3-7.8 6.7-7.8 6.7s-5.5-3.9-9.1-3.7c-3.7.2-8.3 4.5-8.3 4.5s-5.9-4.4-9.5-5-8.2 1.5-8.2 1.5-4.6-5.6-8.6-6.6-7.5 1.1-7.5 1.1-2-3.6-3.8-4.7-3.6-.8-3.2-3.2c.3-1.5 2.6-1.3 3.8-.8 3.2 1.4 4 4.2 4 4.2s2.3-1.5 7.6-.4c5.8 1.3 8.5 6 8.5 6s3.3-1.9 7.3-1.6c5.6.3 9 5.1 9 5.1s4-4 8.6-4.2 8.5 2.5 8.5 2.5 1.2-3.5 8.1-5.1c5.4-1.3 8.5 1 8.5 1s1.8-4.4 7-6.1c4.1-1.3 6.4-.4 6.4-.4s.2-3.4 3-4.3c1.4-.4 2.6 0 2.4 1.5-.2 1.2-1.5.4-2.4 2.4-.7 1.5-1.5 4-1.5 4s-3.3-1.2-6.5.2" style="fill:#d9eff2"/><path d="M61.6 4c-.5.8 1.1 4.6-.8 8-2 3.3-6 5.4-10.6 5.6s-7 1.2-9.3 3.5c-2.5 2.5-2.5 6.1-2.5 6.1s-4 1.5-5.5 5c-1.6 3.7-.6 6.7-.6 6.7s-5.9 1.8-7.2 7.2q-1.6 6.3 2 9.5c3.6 3.2 21.2 10.8 39.5 9.2s36.6-12.3 36.7-15.2c0-3 .5-7.5-3.6-9.9-4.1-2.3-7-2-7-2s1.5-6.3.2-8.4-2.6-3.4-5-4.6c-2.3-1.2-3.4-1.1-3.4-1.1s.3-5.2-2.3-7c-2.3-1.4-4.6-2.2-10.5-4.7-4.3-2-5.8-4.5-6.6-5.5-.9-1-3-3.4-3.5-2.4" style="fill:#ffe9c8"/><path d="M46.1 29.4c-.2.7 3.8 3 8.6 3.9 6 1 18.4.4 25.6-2.6 6.8-2.8 6.8-6.4 6.3-8.9-.9-3.7-4.4-5-4.4-5s-1.8 3.3-4.6 4.5A99 99 0 0 1 63 25.7c-5.3 1-16.7 3-16.9 3.7M37.5 45c0 .8 7.5 4 17.8 5.3 16.6 2.3 29.8-2 34.6-5.6s5.3-5.7 5.1-9.6-2-5.8-2-5.8-1 2.8-4 5.6-10.2 5.3-17 6.8c-7 1.5-15 2.3-20.2 2.7-4.6.4-14.3-.2-14.3.6" style="fill:#ffcb86"/><path d="M103 43.5s.8 2.8.8 5a13 13 0 0 1-1.3 5.7c-.6 1-7.9 11-28.8 13.1-21 2.2-32-2.2-38-5.1-5.7-3-10-7.3-10-8.3s3.6 2.3 9.1 4.1c4 1.4 20.5 6.4 37.6 2.6s24.8-8.8 27.1-11.4 3-5 3.5-5.7" style="fill:#ffcf86"/><path d="M40 34.6c1.5 2 2.7 4.3 4.5 3.2s.3-3.2-1-5.2-2.7-4.3-4.4-3.1 0 3.6 1 5" style="fill:#a681cb"/><path d="M68 25q-1.8 1.3 1.4 5.5c2 2.7 3.5 4.6 5 3.5s.3-3.3-1.6-5.9-3.2-4.3-4.8-3.2" style="fill:#49c0f5"/><path d="M77.8 52c-1.1 2.6-2.7 5.8-.5 6.4s3-2.5 4.2-5c1.2-2.6 1.7-4.4.2-5.1-2-1-2.8 1-4 3.7" style="fill:#a681cb"/><path d="M45 41.8c-1.2 2.6-2.3 5-.6 5.9 2 .9 3-.7 4.3-3.7 1.2-2.6 2.1-4.7.5-5.4-2-1-3 1-4.1 3.2" style="fill:#ed4889"/><path d="M42.9 55.3c-1.6 1.5 0 3.1 1.7 4.6s4.3 3 5.6 1.6c1.5-1.7-1.5-3.2-3-4.5-2-1.7-3-3-4.3-1.7M68.8 7.5c-2.1-.2-2 3.1-2 5s0 4 2 4.1c1.9 0 1.7-2.5 1.7-4.6-.1-2 .3-4.3-1.7-4.5" style="fill:#72e38d"/><path d="M77.7 27.7q-2 1 .8 5.5c1.7 2.8 3.2 5 5 3.9 2.3-1.4 0-3.6-1.4-5.8s-2-5-4.4-3.6" style="fill:#fd6660"/><path d="M53.7 32.2a4.3 4.3 0 0 0 5.6-4.8c-.3-2.7-3-3.4-3.3-3.4l-4.7 2.6c-.3.2-1 4.3 2.5 5.6m7.9 21.9c2.6 1.8 6.5-.3 6.5-3.6 0-2.7-2.4-4-2.6-4l-5.3 1.8c-.3.2-1.6 3.8 1.4 5.8m30.2-3.7c2.6.5 5.2-2 4.4-4.8-.7-2.5-3-3-3.2-3s-3.8 2.5-4 2.7-1 4.2 2.8 5m-61.2.4c3 1.1 6-1.6 5.5-4.5-.5-2.6-3-3.3-3.3-3.2l-4.4 2.4c-.3.3-1 4 2.2 5.3" style="fill:#ed4889"/><path d="M53.3 24.3c-1.6.8-2.5 2.3-2.3 3.4.3 1 2.5 1.7 4.5.7 2.1-.9 2.4-2.9 1.8-3.8-.4-.7-2.6-1-4-.3M30 43.4c-1.3.8-2 2.6-1.4 3.6.7 1.5 2.8 1.8 4.4.8 2-1.2 2-3.5 1.4-4.2-.7-.6-2.3-1.4-4.4-.2m32.3 3c-1.6.6-2.6 2.2-2.2 3.5.3 1.1 2.2 1.4 4 .8 2.5-1 3-3 2.4-3.6s-2-1.6-4.2-.7m30.9.3c-1.5 1.3-3.8 1-4.2 0-.4-1.1.3-2.7 1.4-3.5s2.8-1 3.7-.1c1.1.9.3 2.6-.9 3.6" style="fill:#ffa5aa"/></svg>