<svg xml:space="preserve" width="16" height="16" viewBox="0 0 128 128"><radialGradient id="a" cx="63.6" cy="1696.9" r="57" gradientTransform="translate(0 -1634)" gradientUnits="userSpaceOnUse"><stop offset=".5" style="stop-color:#fde030"/><stop offset=".9" style="stop-color:#f7c02b"/><stop offset="1" style="stop-color:#f4a223"/></radialGradient><path d="M63.6 118.8c-27.9 0-58-17.5-58-55.9S35.7 7 63.6 7c15.5 0 29.8 5.1 40.4 14.4 11.5 10.2 17.6 24.6 17.6 41.5s-6.1 31.2-17.6 41.4a61 61 0 0 1-40.4 14.5" style="fill:url(#a)"/><path d="M111.5 29.7a57 57 0 0 1 8.1 30.2c0 16.9-6.1 31.2-17.6 41.4a61 61 0 0 1-40.4 14.5 59 59 0 0 1-48.2-23 58 58 0 0 0 50.2 26c15.4 0 29.8-5.2 40.4-14.5a54 54 0 0 0 17.6-41.4q-.1-19.2-10.1-33.2" style="fill:#eb8f00"/><linearGradient id="b" x1="63.6" x2="63.6" y1="1752.8" y2="1641" gradientTransform="translate(0 -1634)" gradientUnits="userSpaceOnUse"><stop offset=".4" style="stop-color:#40c0e7;stop-opacity:0"/><stop offset="1" style="stop-color:#5f7aff"/></linearGradient><path d="M63.6 118.8c-27.9 0-58-17.5-58-55.9S35.7 7 63.6 7c15.5 0 29.8 5.1 40.4 14.4 11.5 10.2 17.6 24.6 17.6 41.5s-6.1 31.2-17.6 41.4a61 61 0 0 1-40.4 14.5" style="fill:url(#b)"/><path d="M44 50c-4.2 0-8 3.5-8 9.4s3.8 9.4 8 9.4 8-3.6 8-9.4-3.8-9.5-8-9.5" style="fill:#422b0d"/><path d="M43.7 53.9a3 3 0 0 0-3.9 1.3q-.7 1.8.6 3.3a3 3 0 0 0 3.9-1.3 3 3 0 0 0-.6-3.3" style="fill:#896024"/><path d="M82.4 50c-4.2 0-8 3.5-8 9.4s3.8 9.4 8 9.4 8-3.6 8-9.4-3.8-9.5-8-9.5" style="fill:#422b0d"/><path d="M82 53.9a3 3 0 0 0-3.8 1.3q-.7 1.8.6 3.3c1.4.7 3.1 0 3.8-1.3.5-1.1.3-2.5-.6-3.3" style="fill:#896024"/><path d="M52.7 103a10 10 0 0 1-8.2-4.6 8 8 0 0 1 .4-8.9q6.6-9.1 19.1-9.2c12.5-.1 14.8 3.2 19.1 9.2a8 8 0 0 1 .4 8.9 9.6 9.6 0 0 1-11.3 4.1q-8.1-2.6-16.4 0-1.5.5-3.1.5m30.7-71.7q-1.7-.1-2-1.7.1-1.7 1.7-2 3-.4 5.8 0c5.3.9 10 3.7 13.2 7.8 1.5 2-1.1 4-2.7 2.4q-6.9-6-15.9-6.5m-38.6 0h.1a1.8 1.8 0 0 0 .3-3.7q-3-.3-5.8.1c-5.3.8-10 3.6-13.3 7.7-1.4 2 1.2 4 2.8 2.4 4.4-3.8 10-6.1 15.9-6.5" style="fill:#422b0d"/></svg>