<svg xml:space="preserve" width="16" height="16" viewBox="0 0 128 128"><path d="M116 4H12a8 8 0 0 0-8 8v104a8 8 0 0 0 8 8h104a8 8 0 0 0 8-8V12a8 8 0 0 0-8-8" style="fill:#c33"/><path d="M109.7 4H11.5A7.6 7.6 0 0 0 4 11.5v97.9c0 4.1 3.3 7.5 7.5 7.5h98.1c4.1 0 7.5-3.3 7.5-7.5V11.5c0-4-3.1-7.4-7.2-7.5z" style="fill:#f44336"/><path d="M39.7 12.9c0-2.3-1.6-3-10.8-2.7-7.7.3-11.5 1.2-13.8 4s-2.9 8.5-3 15.3c0 4.8 0 9.3 2.5 9.3 3.4 0 3.4-7.9 6.2-12.3 5.4-8.7 18.9-10.6 18.9-13.6" style="fill:#ff8a80"/><path d="M28.3 89.2a28 28 0 0 1-14.2-24.9 29 29 0 0 1 14.2-24.9Q35 35.6 43 35.6q12.4 0 20.6 9l-7.3 7q-5.4-6-13.2-6.1a19 19 0 0 0-9.4 2.3 17 17 0 0 0-6.6 6.6 20 20 0 0 0-2.4 10q0 5.5 2.4 9.8a17 17 0 0 0 6.6 6.6 19 19 0 0 0 9.4 2.4A18 18 0 0 0 57.5 76l7.3 7A27 27 0 0 1 43 93q-8 0-14.6-3.8m46-52.3h10.4v45H108v9.9H74.4z" style="fill:#fafafa"/></svg>