<svg xml:space="preserve" width="16" height="16" viewBox="0 0 128 128"><path d="M49.6 28.2c-.4-.4-3.1 2.5-5.4 4.3-1.3 1.1-12.2 9-16 13.6S23.3 59 26.7 64a25 25 0 0 0 12 9.8l15.6 14s4.6 9 8.8 12.2c2.8 2.2 6.3 5 12.3 4.1 7.7-1 13.2-8.9 15.3-12 2.6-4 5.1-9 8.8-10.7s.4-7-2.7-4.3c-3.2 2.6-16 17.6-18.8 18.3s-7.4.7-9.8-1-5.2-6-5.2-8.4.7-5.1 3.4-6.2c4-1.6 6.2-.7 8.5-2.1 2.1-1.3 24-26 24-26s4.3 7 9.4 6.7c3.7-.2 4.7-19.5 4.7-19.5s0-7.6-1.6-10.7c-1.3-2.7-5.2-10-11.2-12.3-7.4-2.7-20.3-.5-20.3-.5s-9.4 3.3-9.6 5 .1 3.6 2.8 6.5c1.5 1.6 4.4 3 4.4 3l-23 22.8s-5 1.1-5 4.5q.2 2.6-.8 6.2c-.7 1.8-6.6 4.5-11 2s-7.3-5.3-6.7-11 26-17.5 18.5-26.2" style="fill:#a363af"/><path d="M111.3 16.6C109.8 15 98.5 18 79.6 27.5s-29.4 23-30 29c-.4 6 4.1 11.4 7.6 14.4 3.4 3 10.4 8.6 16.7 7.2s22.6-17 29.5-32.5c6.1-14.1 9.8-27.1 8-29" style="fill:#ee7fad"/><path d="M70.4 20.8c-.2 3.8 5.4 4.6 7.9 3.7 2.8-1 8.4-4.3 11.3-5.4s10.2-3.3 9.5-3.7a40 40 0 0 0-21.8-1c-5.7 1.4-6.8 4.2-6.9 6.4m41.6 8.9s-1.9 7.8-3 10.8-4.8 11.2-4.6 13.9c.2 3.4 3.4 5.7 7.4 2.6 4-3 3.7-13.1 3.4-15.3-.3-2.1-1.3-10.2-3.1-12M52.4 76.2c-2.7-3-8.8-8-8.8-8s-4.6 7-9 7c-4.4.1-7.8-8.5-11.1-12.8S15.2 57 12 57.7s-7.6 4-6 6.7c1.9 3.1 6.1-1.4 9.1-.8s5.3 4.4 7 7.5a33 33 0 0 0 6.5 7.7c3.2 2.7 7.7 2 7.7 2s-5 7.9-12.2 7.3c-8-.7-8.7-5.8-8.1-8.2s4.9-3.2 4.2-5.5c-.7-2.4-6.2-3.2-9.1 1.8-3 5-.1 10.7 3.6 13.8 3.8 3 10.5 4 14.7 3.4 4-.6 8-2.5 8.3-2.2.4.4-1.8 5.9-2 10.9-.2 4 .7 12.3 7 15 5.9 2.7 10.9.6 12.6-1 1.4-1.2 2.7-5.3.2-6.4-2.4-1-2.7 3.6-8.3 2.9-3.7-.5-6-6.3-6-9.2.1-6.6 6.4-10 6.4-10s-.2 3.5 1.8 6.7c2.3 4 7.7 6.4 10 7.9 1.7 1 6 3 6.3 6.7.3 3-2.9 4.9-1 7 1.7 2 6.6-2.2 7-6.2s-2.6-8-7-11.2c-4.4-3-10.5-3.7-11-9.8-.4-3.5 7.7-9 7.7-9zm14.9 17.4s3.9 2.6 7.4 1.7c6.8-1.7 10.7-9 12.4-11.5a38 38 0 0 1 14-13 20 20 0 0 1 15.7.4c3.4 1.7 7.4 5.5 6 6.9-1.4 1.3-6 1.6-9.8 3-4.2 1.6-5.5 4.1-8.5 3-1.8-.7-2-2.4-4.8-3.1-2-.6-5.7 1.7-8.6 5.2-3.3 3.8-8 10-13.7 11s-9.3-1.5-10-3.6m-19-78.4c-.7 2.8-3.7 6.5-3.5 8.6s4 4 2.2 6.3c-4.4 5.3-10.3 10.5-12.6 12.7A15 15 0 0 0 29.3 56c.5 5.3 6.5 8.2 6.3 8-1.5-1.6-4.2-4.4-3-8 1.5-4 5.4-8 13.5-14.3s14.2-10 13.7-21-5-16-7.8-15c-3.2 1-2.1 4.1-3.6 9.5" style="fill:#ee7fac"/><ellipse cx="69.7" cy="47.5" rx="2.5" ry="2.4" style="fill:#fea7a5"/><circle cx="85.5" cy="49.7" r="2.2" style="fill:#fea7a5"/><circle cx="80.3" cy="38" r="2" style="fill:#fea7a5"/><ellipse cx="90.7" cy="27.5" rx="2" ry="2.1" style="fill:#fea7a5"/><circle cx="94.5" cy="35.2" r="2" style="fill:#fea7a5"/><circle cx="104.5" cy="29.6" r="1.8" style="fill:#fea7a5"/><circle cx="96.5" cy="44.9" r="1.9" style="fill:#fea7a5" transform="rotate(-65.5 96.5 44.92)"/><circle cx="66.6" cy="62.2" r="2.1" style="fill:#fea7a5"/><ellipse cx="78.5" cy="61.6" rx="2" ry="2.2" style="fill:#fea7a5"/><path d="M50.3 68.3c.5 3.4-2.6 6.2-5.4 5.7-2.7-.4-4-2.4-4-5.1s1.9-4.7 4.6-4.7q4.3.1 4.8 4m14.9 14.2c.4 3.3-2.2 6-5.7 5.4-2.3-.4-4.1-2.4-4.1-5.1s2-4.5 4.8-4.5q4.2 0 5 4.2" style="fill:#2d2e31"/><path d="M52.5 15s2.1-.5 2.2-2.4-1-3-2.5-3-2.5 1.5-2.4 2.9c0 1.2 1 2 1 2s-1.5-.3-2.2 1.5c-.8 2 .9 2.8.9 2.8s-2-.3-2.8 1.2q-1.4 2.2 1 3.9c1.2.8 3.1-.3 3.6-1.6.5-1.5-.7-3-.7-3s1.9.4 2.5-1.6c.5-1.8-.6-2.6-.6-2.6M114.8 77s.1-1.8 2.4-2c1.4-.1 2.7.5 2.8 2q0 2.3-2 2.7c-1.6.4-2.7-.4-2.7-.4s-.2 1-1.7 1.7c-1.8.7-3-.5-3-.5s.1 1.7-1.1 2.3c-1.7 1-3.4.5-4-1q-1-2.5 1.4-3.7c2-.8 3 .7 3 .7s-.2-2 2-2.7c1.8-.6 3 .8 3 .8" style="fill:#a363af"/></svg>