<svg xml:space="preserve" width="16" height="16" viewBox="0 0 128 128"><path d="M9.7 87.9c-4 3.5-5.6 12.5-6 18.1 2.7 4.9 31.6 10.5 60.5 10.5 29 0 57.6-5.6 60.1-10.5-.4-5.6-2.5-14.5-6-18-3.9-4.2-104.2-4.1-108.6-.1" style="fill:#8b5738"/><ellipse cx="64" cy="90.1" rx="55.5" ry="10.5" style="fill:#cc8552"/><ellipse cx="64" cy="87.2" rx="50.6" ry="8.1" style="fill:#4e342e"/><path d="M105.2 72.9C96.5 69.4 78.7 68 64.5 68h-1c-14.2 0-31.7 2.6-40.7 4.9-4.3 1-9.6 4.2-9.6 7.7C13.2 86.4 35.4 91 64 91s50.8-4.5 50.8-10.3c0-3.5-4.3-5.6-9.6-7.7M64 31.7c-46.3 0-45.7 45.7-45.7 45.7a179 179 0 0 0 91.4 0s.6-45.7-45.7-45.7" style="fill:#ffca28"/><path d="M68.3 18.4h-8.6V33s.9 1.2 4.3 1.2 4.3-1.2 4.3-1.2zm8.7.4c-2.2-.9-13.7-.9-13.7-.9-3.5 0-10 .3-12.3 1l.4 4.8c1 1.5 5.5 2.6 12.5 2.6s11.5-1 12.6-2.6z" style="fill:#9e740b"/><path d="M64.1 11.5c-9.8 0-13 6.4-13 7.3 0 1.5 5.6 2.6 12.9 2.6s13-1.1 13-2.6c0-.9-3-7.3-12.9-7.3" style="fill:#ffca28"/><path d="M64.4 82.3c-35.3 0-46-7.7-46-7.7l.5-4.2c1 .4 11.9 7.8 45.5 7.8 33.5 0 44.6-7.7 44.7-7.7l.4 4.3s-9.9 7.5-45.1 7.5" style="fill:#e2a610"/><path d="M55.6 18q-.7-1 0-2 1.8-3 5.3-3c2.6.1 2.8 1.8 1.9 2.8-1 1-3.7 1.1-5.5 2.2q-1 .4-1.7 0M35.3 56.1l-1.8-2.4q-1-1.3-.4-2.9a22 22 0 0 1 15.1-12.2q2.1-.4 3 1.6l1.4 4.5c.5 1.5-.4 3-1.9 3.4a26 26 0 0 0-12.7 8c-.6 1-2 .9-2.7 0" style="fill:#fff59d"/></svg>