<svg xmlns:xlink="http://www.w3.org/1999/xlink" xml:space="preserve" width="16" height="16" viewBox="0 0 128 128"><linearGradient id="a" x1="60.5" x2="71.3" y1="44.7" y2="73.5" gradientTransform="matrix(1 0 0 -1 0 128)" gradientUnits="userSpaceOnUse"><stop offset="0" style="stop-color:#cca47a"/><stop offset=".5" style="stop-color:#e0bb95"/></linearGradient><path d="M109 91.3c0 .2-10.1 11.9-10.1 11.9l-7.2-5.7 5-7.6.5-.7-1-.4C94 88 88 85.5 85.2 85c-3.5-.8-4.3 1.1-5.6 4.2-2.7 6.7-6.2 16.3-6.2 16.3-12.5-1.4-25.4-3.7-38-4.3C39.6 94.3 44.8 79 45.5 77c1.4-3.6-1.5-4.2-6.3-5.6-3.4-1-7.7-2-11.7-3.7-5.3-2.2-5.3-7.7-4.3-10.5 2.1-6 8.9-15.3 9.2-16.1 1.2-3-2.3-3-4.2-7-.8-1.9 0-3.6 1-5.3 1.2-2 3.8-3 6.2-3.3q3.8-.7 7.1.7.8.2 1.5.8.4.5 1 .9c.5.2 1 0 1.7.3q.6.5 1 1.3c.2 1 .8 1.6.5 2.4-.8 2.7-3 4.7-4.6 7.6q-1.4 2.8-2.4 5.6-2.3 5-4.2 10.1l-.2.7.7.2 20 5c7.3 1.8 14 3.4 20.9 6 19.7 7.5 25.2 11.2 28 12.8 4 2.3 6.3 6.8 2.7 11.4" style="fill:url(#a)"/><linearGradient id="b" x1="75.2" x2="57.6" y1="80.3" y2="27.1" gradientTransform="matrix(1 0 0 -1 0 128)" gradientUnits="userSpaceOnUse"><stop offset="0" style="stop-color:#ffa000"/><stop offset=".3" style="stop-color:#ff9300"/><stop offset="1" style="stop-color:#ff7100"/><stop offset="1" style="stop-color:#ff6f00"/></linearGradient><path d="M106.5 80c-2.9-1.7-8.4-5.4-28.1-12.9-7-2.6-13.5-4.2-21-6l-20.6-5.2q1.4-4.3 3.4-8.5a15 15 0 0 1-9.5-3.6 74 74 0 0 0-7.4 13.4c-1 2.8-1 8.3 4.2 10.5 4 1.7 8.3 2.8 11.8 3.7 4.7 1.4 7.6 2 6.2 5.6-.7 2-5.9 17.3-10.1 24.1 12.6.6 25.5 3 38 4.4 0 0 4-9.4 7.1-15.9 1.5-3.2 2.7-5.5 6-4.3 3.2 1 10.7 4 10.7 4l-5.5 8.3 7.2 5.6 10.2-11.8c3.6-4.7 1.4-9.2-2.6-11.5" style="fill:url(#b)"/><path d="M112 92.2c-6.6 0-10 7.2-16 7.2s-9.4-7.2-16-7.2-10 7.2-16 7.2-9.4-7.2-16-7.2-10 7.2-16 7.2-9.4-7.2-16-7.2c-5 0-8.1 4.1-12 6.1V124h120V98.3c-3.9-2-7-6.1-12-6.1" style="fill:#039be5"/><path d="M112 111.9c-6.6 0-10-7.2-16-7.2s-9.4 7.2-16 7.2-10-7.2-16-7.2-9.4 7.2-16 7.2-10-7.2-16-7.2-9.4 7.2-16 7.2c-5 0-8.1-4.1-12-6.1V124h120v-18.2c-3.9 2-7 6.1-12 6.1" style="fill:#29b6f6"/><path d="m37.5 56-4.6 2.7h-.2v-.2l4.4-3.3-.3.7z" style="fill:#e66400"/><path d="M66.8 72.6a5 5 0 0 1-4.1-6.1l1-4.7 10.1 2-.9 4.7a5 5 0 0 1-6.1 4" style="fill:#c48e6a"/><circle cx="35.9" cy="20" r="16" style="fill:#ff9100"/><radialGradient id="c" cx="31.2" cy="113.1" r="17.7" gradientTransform="matrix(1 0 0 -1 0 128)" gradientUnits="userSpaceOnUse"><stop offset=".2" style="stop-color:#ffa726"/><stop offset=".8" style="stop-color:#b33f00"/></radialGradient><circle cx="35.9" cy="20" r="16" style="opacity:.4;fill:url(#c)"/><defs><circle id="d" cx="35.9" cy="20" r="16"/></defs><clipPath id="e"><use xlink:href="#d" style="overflow:visible"/></clipPath><g style="clip-path:url(#e)"><path d="M36 20a19 19 0 0 1 .5-16.3" style="fill:none;stroke:#6d4c41;stroke-width:.7869"/><path d="M35 7.5h1c6.5 0 12.2 3.2 15.7 8.1m-17.2-1.4H36a19 19 0 0 1 15.9 8.4" style="fill:none;stroke:#5d4037;stroke-width:.7869"/><path d="M35.9 20a19 19 0 0 1 13.9 8.7" style="fill:none;stroke:#4e342e;stroke-width:.7869"/><path d="m47.2 25.5-.5.9a19 19 0 0 1-14.9 9.5" style="fill:none;stroke:#3e2723;stroke-width:.7869"/><path d="m41.7 21.6-.8 1.4a19 19 0 0 1-15.2 9.6M36 20a19 19 0 0 1-14.5 7.7" style="fill:none;stroke:#4e342e;stroke-width:.7869"/><path d="m25.5 27-.5-.8a19 19 0 0 1-.8-17.6" style="fill:none;stroke:#6d4c41;stroke-width:.7869"/><path d="m31.6 24.2-.8-1.3a19 19 0 0 1-.6-18" style="fill:none;stroke:#795548;stroke-width:.7869"/></g><path d="M101.4 85.7 96.8 90l.4-.7-1-.4z" style="fill:#e66400"/><path d="M76.4 25.2C68.1 23.5 58.5 31 56 43.9s4.2 20.8 12.4 22.4 17.4-3.2 19.9-16c2.5-13-3.5-23.5-11.9-25.1" style="fill:#e0bb95"/><path d="M68.5 44q-.3-1.2-3.2-2.2c-2-.4-3.2.3-3.7.8q-.4.4-.2.7.2.4.9.4c.4 0 1.3-.3 2.7 0q1.9.5 2.4 1c.5.5.8.2 1 0q.2-.2 0-.7M84 47.2c-.3-.7-1.1-1.7-3.1-2.1s-3.2.2-3.8.7q-.3.3-.1.7t.8.4c.5 0 1.4-.3 2.7 0q1.9.5 2.4 1c.5.5.8.2 1 0q.3-.2.1-.7" style="fill:#ab872f"/><ellipse cx="63.9" cy="47.6" rx="2.5" ry="2.4" style="fill:#5d4037" transform="rotate(-79 63.88 47.6)"/><ellipse cx="79.7" cy="50.7" rx="2.5" ry="2.4" style="fill:#5d4037" transform="rotate(-79 79.72 50.72)"/><path d="M73.7 58.9c-1.8.6-6.8-.4-8.1-1.6-.8-.7-1.9-.1-1.7.8s2.6 3.2 5 3.6 5.4-.8 6-1.5-.2-1.7-1.2-1.4" style="fill:#6d4c41"/><path d="M72.5 53.8h-.2L69 53h-.1q-.6 0-.5.7c0 .4.5 1.5 2 1.7 1.3.3 2.1-.5 2.4-.8q.2-.6-.2-.9" style="fill:#c48e6a"/><radialGradient id="f" cx="77.3" cy="103.2" r="19.8" gradientTransform="matrix(1 0 0 -1 0 128)" gradientUnits="userSpaceOnUse"><stop offset="0" style="stop-color:#fb8c00"/><stop offset="1" style="stop-color:#ef6c00"/></radialGradient><path d="M91 51.8c.3.6.5 1.3-.5 3.3-2.1 4-5.8 4.7-6 4.8q-.3 0-.4-.2V59s3.3-6.5.8-12.2q-2.6-5.4-11.2-7.6-8.2-2-12.6 1.6c-5 4.2-4.7 12.4-4.7 12.5q0 .3-.2.4h-.5c-.1 0-3.8-1.9-3-8 .1-1.5.5-2 .9-2.4l.4-.2.2-.4a24 24 0 0 1 8.3-18.6Q69 19.3 78 21.3q8.4 2 12 8.6c4.5 8 1.8 17.5.8 20.2l-.1.6q-.1.7.2 1" style="fill:url(#f)"/><path d="m55.8 48.5-.9-3.1a5 5 0 0 0-1.3-2l.4-.2.2-.4q.3-.1 1.5 1.7c.7 1.4 0 4 0 4m35.2 3.3q-.3-.2-1.7.8c-1.2.8-2.7 2.9-2.7 2.9s.5-2.9 2.5-4q1.4-.8 1.7-.8-.1.7.2 1" style="fill:#db6300"/><linearGradient id="g" x1="222.6" x2="222.3" y1="-1980" y2="-1991.1" gradientTransform="rotate(215.4 281.4 -989.3)scale(-.885 1)" gradientUnits="userSpaceOnUse"><stop offset=".5" style="stop-color:#e0bb95"/><stop offset="1" style="stop-color:#cca47a"/></linearGradient><path d="m91.9 105.6-2.1-1.5a6 6 0 0 1-1.4-8.3l.2-.4A6 6 0 0 1 97 94l2.1 1.5a6 6 0 0 1 1.4 8.3l-.2.4a6 6 0 0 1-8.3 1.4" style="fill:url(#g)"/></svg>