<svg xmlns:xlink="http://www.w3.org/1999/xlink" xml:space="preserve" width="16" height="16" viewBox="0 0 128 128"><path d="M37.1 56.3c-.3-8-.4-17.6-.5-20.1l-.4-4.7c-.3-2.7-1.7-13.6 5.3-15.3.6-9.1 10.3-8.1 11.2-2.7A652 652 0 0 0 60.1 53c1.6 6.8 3.5 9.7 4.2 13.5.5 2.7 3.7 14.6 4.2 16.3 1.1 4 3.8 6.7 9.2 7.3 9.2.9 30.1-2.5 32.4-2.9q2.7-.3 2.9 1.6c1.8 7.6 2.1 24.9-1.2 29.4q-.8 1.2-2.7 1.3c-1.9.1-38.6.4-52.3-2.1-10.9-1.9-26.5-4.5-23.5-26 2.4-17.2-2-10.9-.3-27.5.3-2.9 2.2-6.7 4.1-7.6" style="fill:#a56c43"/><defs><path id="a" d="M37.1 56.3c-.3-8-.4-17.6-.5-20.1l-.4-4.7c-.3-2.7-1.7-13.6 5.3-15.3.6-9.1 10.3-8.1 11.2-2.7A652 652 0 0 0 60.1 53c1.6 6.8 3.5 9.7 4.2 13.5.5 2.7 3.7 14.6 4.2 16.3 1.1 4 3.8 6.7 9.2 7.3 9.2.9 30.1-2.5 32.4-2.9q2.7-.3 2.9 1.6c1.8 7.6 2.1 24.9-1.2 29.4q-.8 1.2-2.7 1.3c-1.9.1-38.6.4-52.3-2.1-10.9-1.9-26.5-4.5-23.5-26 2.4-17.2-2-10.9-.3-27.5.3-2.9 2.2-6.7 4.1-7.6"/></defs><clipPath id="b"><use xlink:href="#a" style="overflow:visible"/></clipPath><g style="clip-path:url(#b)"><path d="M115.8 105.6c-4.9.1-52.7 2.9-56.1 3.1-7 .6-19.7-2.1-19.7-14.7 0-4.1-.6-18.2-4.7-18.2h-7.2l.5 45.1c-.1-.2 87.6 1.3 87.6 1.3zm-78-80.3c.7.3 1.9.5 2.3 2.5L46 59.1s-2.8-3.3-7.1-2.2-3.9-3.5-3.9-3.5l-.3-28zm77.1 64.1c-2.8.3-29.1 3-32.5 3.2-11.9.5-15.5-5-16.6-10.5l-3.1-12.8c-1.2-5.5-3.9-10.9-5.2-16.4-1.4-6.1-5.8-31-7-38q-.3-1.9-1.4-2.6c-1.2-.7-2.7.3-2.6 1.7l.8 6.8s-.8-3.6-6.8-3.1l-1-9.7L54 7.1l21.2 78.2 39.1-.5z" style="fill:#824624"/></g><defs><path id="c" d="M37.1 56.3c-.3-8-.4-17.6-.5-20.1l-.4-4.7c-.3-2.7-1.7-13.6 5.3-15.3.6-9.1 10.3-8.1 11.2-2.7A652 652 0 0 0 60.1 53c1.6 6.8 3.5 9.7 4.2 13.5.5 2.7 3.7 14.6 4.2 16.3 1.1 4 3.8 6.7 9.2 7.3 9.2.9 30.1-2.5 32.4-2.9q2.7-.3 2.9 1.6c1.8 7.6 2.1 24.9-1.2 29.4q-.8 1.2-2.7 1.3c-1.9.1-38.6.4-52.3-2.1-10.9-1.9-26.5-4.5-23.5-26 2.4-17.2-2-10.9-.3-27.5.3-2.9 2.2-6.7 4.1-7.6"/></defs><clipPath id="d"><use xlink:href="#c" style="overflow:visible"/></clipPath><path d="M115.8 114.4s-46.2 2.3-63.2-.6c-6.4-1.1-18-6.1-16.6-18.4 2.3-19.8-2.1-18.7-.5-31.4 1.2-8.8 9.7-6.3 10.1-.8 0 0 1.2 10.3 1.2 13.4 0 5.4 1.4 7.7 2.9 10.9.6 1.2 2.2.8 1.7-.8l-1.3-3.9c-.3-.8-.7-3.7-.9-6.2-.9-9.7 1-21.2-9.4-20.9-.2-5.8-.3-16.3-.2-17.9.1-4-1.3-11.8-.5-15.5 1.1-5.6 6.9-4.2 7.2.1 2 23.5 6.1 34 7.2 41.6.2 1.6 1.6 1.4 1.6-.2-.2-6.4-4.9-21.7-6.6-41.7-.3-3.2-2.7-5.4-4.4-5.4q.3-4.8 2.7-6.3c.8-.5.7-1.3.7-1.6l-8.7.4-5.2 15.5-3.2 42.5.3 43.5 17.8 9.8 66.6.9z" style="clip-path:url(#d);fill:#422319"/></svg>