<svg xml:space="preserve" width="16" height="16" viewBox="0 0 128 128"><linearGradient id="a" x1="53" x2="53" y1="32" y2="4" gradientTransform="matrix(1 0 0 -1 0 128)" gradientUnits="userSpaceOnUse"><stop offset="0" style="stop-color:#616161"/><stop offset=".3" style="stop-color:#545454"/><stop offset=".8" style="stop-color:#323232"/><stop offset="1" style="stop-color:#212121"/></linearGradient><path d="M50.1 96H50c-18.2 0-36.8 3.6-46 12v16h98v-3c0-16.9-26.1-25-51.9-25" style="fill:url(#a)"/><path d="M84 110.3c-.3 0-5.2 3-12 5.5a75 75 0 0 1-56-5.9 35 35 0 0 1-7.1-5.3l-2 1.2c1.3 1.2 3.7 3.4 7.5 5.6A25 25 0 0 0 8.8 124h2c.4-2 1.6-7.7 5.4-11.6q3.9 2.3 9.5 4.2c-2.1 3.3-2.4 6.5-2.5 7.4h2c0-.8.4-3.8 2.4-6.8a82 82 0 0 0 44.8.7 14 14 0 0 1 2 6.1h2c0-.8-.4-3.7-2.1-6.8q5.6-2 9.5-4.4a25 25 0 0 1 5 11.2h2c-.3-2-1.5-7.8-5.3-12.3 3.6-2.3 5.9-4.6 7-5.9l-1.7-1a36 36 0 0 1-6.8 5.5" style="opacity:.19;fill:#fff"/><g style="opacity:.3"><linearGradient id="b" x1="53" x2="53" y1="4.6" y2="36.7" gradientTransform="matrix(1 0 0 -1 0 128)" gradientUnits="userSpaceOnUse"><stop offset="0" style="stop-color:#bfbebe"/><stop offset=".2" style="stop-color:#212121;stop-opacity:0"/></linearGradient><path d="M50.1 96H50c-18.2 0-36.8 3.6-46 12v16h98v-3c0-17-26.1-25-51.9-25" style="fill:url(#b)"/></g><path d="M84.9 79.7c-1.2-2.3.3-4.6 3-7.4 4.4-4.6 9-15.1 4.7-25.8 0 0-.9-1.9-.8-2H90a3378 3378 0 0 0-80 0l-2.6 2a25 25 0 0 0 4.7 25.8c2.7 2.8 4.3 5.1 3 7.4-1.2 2.2-4.8 2.5-4.8 2.5s.8 2.3 2.8 3.5a12 12 0 0 0 5.7 1.4s6.2 8.6 22.3 8.6H59c16 0 22.2-8.5 22.2-8.5 1.6 0 3.8-.3 5.7-1.5s2.8-3.5 2.8-3.5-3.6-.3-4.8-2.5" style="fill:#3c2c23"/><radialGradient id="c" cx="113.6" cy="46" r="23.4" gradientTransform="matrix(1 0 0 .491 -49.06 59.42)" gradientUnits="userSpaceOnUse"><stop offset=".7" style="stop-color:#554138;stop-opacity:0"/><stop offset="1" style="stop-color:#554138"/></radialGradient><path d="M50 95.7v-9.5L78.6 84l2.6 3.2s-6.2 8.5-22.3 8.5z" style="fill:url(#c)"/><radialGradient id="d" cx="90.6" cy="49.5" r="6.9" gradientTransform="rotate(155 84.46 57.29)scale(1 .742)" gradientUnits="userSpaceOnUse"><stop offset=".7" style="stop-color:#554138"/><stop offset="1" style="stop-color:#554138;stop-opacity:0"/></radialGradient><path d="M81.1 83c-4.3-6.5 5.2-9 5.2-9v.1c-1.6 2-2.4 3.8-1.4 5.6 1.2 2.2 4.8 2.5 4.8 2.5s-5 4.4-8.6.8" style="fill:url(#d)"/><radialGradient id="e" cx="108.5" cy="69" r="30.4" gradientTransform="rotate(-94.3 89.77 76.25)scale(1 .833)" gradientUnits="userSpaceOnUse"><stop offset=".7" style="stop-color:#554138;stop-opacity:0"/><stop offset="1" style="stop-color:#554138"/></radialGradient><path d="M92.6 46.5c4.3 10.4-.2 21-4.4 25.5-.6.6-3 3-3.6 5 0 0-9.5-13.4-12.3-21.2q-1-2.4-1.2-4.9-.2-2 .9-3.8a111 111 0 0 1 20-1.7z" style="fill:url(#e)"/><radialGradient id="f" cx="30.3" cy="69" r="30.4" gradientTransform="rotate(-85.7 93.08 .7)scale(1 -.833)" gradientUnits="userSpaceOnUse"><stop offset=".7" style="stop-color:#554138;stop-opacity:0"/><stop offset="1" style="stop-color:#554138"/></radialGradient><path d="M7.4 46.5c-4.2 10.4.2 21 4.4 25.5.6.6 3 3 3.6 5 0 0 9.5-13.4 12.4-21.2q1-2.4 1.1-4.9.1-2-.8-3.8c-1-1.3-2-1-3.5-1-2.8 0-15.5-.7-16.4-.7z" style="fill:url(#f)"/><radialGradient id="g" cx="35.4" cy="46" r="23.4" gradientTransform="matrix(-1 0 0 .491 70.88 59.42)" gradientUnits="userSpaceOnUse"><stop offset=".7" style="stop-color:#554138;stop-opacity:0"/><stop offset="1" style="stop-color:#554138"/></radialGradient><path d="M50 95.7v-9.5L21.5 84l-2.6 3.2S25 95.7 41 95.7z" style="fill:url(#g)"/><radialGradient id="h" cx="12.4" cy="49.5" r="6.9" gradientTransform="rotate(205 4.65 54.86)scale(-1 .742)" gradientUnits="userSpaceOnUse"><stop offset=".7" style="stop-color:#554138"/><stop offset="1" style="stop-color:#554138;stop-opacity:0"/></radialGradient><path d="M19 83c4.2-6.5-5.3-9-5.3-9v.1q2.7 3 1.4 5.6c-1.2 2.2-4.8 2.5-4.8 2.5s5 4.4 8.6.8" style="fill:url(#h)"/><path d="M50 90h-9v10a8 8 0 0 0 8.2 8h1.6c4.6 0 8.3-3.6 8.3-8V90zm27.3-39.7H22.7c-6 0-10.7 5.1-10.7 11.4s4.8 11.4 10.7 11.4h54.6c6 0 10.7-5.1 10.7-11.4s-4.8-11.4-10.7-11.4" style="fill:#7a4c32"/><path d="M50 11c-17.4 0-33.5 18.5-33.5 45.3S33 96.1 50 96.1 83.5 83 83.5 56.3C83.5 29.5 67.4 11 50 11" style="fill:#a56c43"/><path d="M40.8 49.7c-1-1.3-3-3-7.2-3s-6.3 1.8-7.3 3q-.5.8 0 1.5t2 .4c1.4-.3 2.5-1.1 5.3-1.2s4.5 1 5.3 1.2q1.5.3 2-.4t-.1-1.5m32.9 0c-1-1.3-3.1-3-7.3-3s-6.3 1.8-7.2 3q-.5.8 0 1.5t1.9.4c1.5-.3 2.5-1.1 5.3-1.2s4.5 1 5.4 1.2q1.3.3 1.9-.4t0-1.5" style="fill:#42312c"/><ellipse cx="33.6" cy="58.7" rx="4.9" ry="5.1" style="fill:#42312c"/><ellipse cx="66.4" cy="58.7" rx="4.9" ry="5.1" style="fill:#42312c"/><path d="m53.9 68-.4-.2h-7l-.4.1q-1 .6-.7 1.6c.4.8 1.8 2.7 4.6 2.7s4.3-2 4.6-2.7q.3-1.1-.7-1.6" style="fill:#875334"/><path d="M90 25c-2.4-3.7-7.8-8.7-12.8-9-.7-4.7-5.8-8.7-10.7-10.3a31 31 0 0 0-26.4 3c-1 .6-7.2 4-11.5 1.6-2.8-1.6-2.7-5.8-2.7-5.8s-8.5 3.3-5.6 12.3a10 10 0 0 0-8.8 5.5c-2.4 4.9-1.6 9-.9 11a11 11 0 0 0-3.5 12.6c1.6 4.4 8.2 6.5 8.2 6.5-.7 10.7 2.2 15.9 2.2 15.9s4.7-18.4 4.3-21.3c0 0 7.8-1.5 16.6-6.5 6-3.5 10-7.4 16.7-9 10.2-2.2 12.5 5.1 12.5 5.1S77 34.8 79.8 48c1.2 5.4 2 14.3 2.6 19.8 0-.5 3.2-6.4 3.9-12.4.1-1.5 4.3-3.6 6.1-10.2a28 28 0 0 0-2.3-20.1" style="fill:#3c2c23"/><radialGradient id="i" cx="68" cy="85.1" r="35.6" gradientTransform="rotate(72 -4.85 -10.1)scale(1 -.742)" gradientUnits="userSpaceOnUse"><stop offset=".7" style="stop-color:#554138;stop-opacity:0"/><stop offset="1" style="stop-color:#554138"/></radialGradient><path d="M86.2 55.4c.2-1.6 4.4-3.6 6.2-10.3l.5-2.1a28 28 0 0 0-2.8-18 22 22 0 0 0-11.7-8.8l-1.2-.1s.3 2.1-.5 3.8c-1.1 2.2-3.4 2.8-3.4 2.8 12 12 11 22 13 32.7" style="fill:url(#i)"/><radialGradient id="j" cx="33.3" cy="123.9" r="9.3" gradientTransform="rotate(208.2 -17.95 67.15)scale(-1 1.186)" gradientUnits="userSpaceOnUse"><stop offset=".6" style="stop-color:#554138"/><stop offset="1" style="stop-color:#554138;stop-opacity:0"/></radialGradient><path d="m43 7.3-3 1.5c-1 .5-7.1 4-11.5 1.5C26 8.7 26 4.7 26 4.5c-1.3 1.6-5 12.8 5.9 13.6 4.7.3 7.6-3.8 9.3-7.3z" style="fill:url(#j)"/><radialGradient id="k" cx="165.2" cy="50.3" r="28.7" gradientTransform="matrix(-.938 -.394 -.218 .528 220.1 59.64)" gradientUnits="userSpaceOnUse"><stop offset=".7" style="stop-color:#554138;stop-opacity:0"/><stop offset="1" style="stop-color:#554138"/></radialGradient><path d="M65.2 5.3c7.3 2 10.8 5.7 12 10.7.4 1.5.8 15-25.2-.4-9.7-5.8-7-9.4-5.9-9.8a31 31 0 0 1 19-.5" style="fill:url(#k)"/><radialGradient id="l" cx="29.5" cy="115.4" r="8.6" gradientTransform="matrix(1 0 0 -1.223 0 153.77)" gradientUnits="userSpaceOnUse"><stop offset=".7" style="stop-color:#554138;stop-opacity:0"/><stop offset="1" style="stop-color:#554138"/></radialGradient><path d="M25.8 4.5c-1 .5-8.3 3.9-5.5 12.3l7.8 1.3c-7-7-2.2-13.6-2.2-13.6" style="fill:url(#l)"/><radialGradient id="m" cx="28.3" cy="100.3" r="16.1" gradientTransform="rotate(15 250.07 275.22)scale(-1 .936)" gradientUnits="userSpaceOnUse"><stop offset=".7" style="stop-color:#554138;stop-opacity:0"/><stop offset="1" style="stop-color:#554138"/></radialGradient><path d="m25 17.6-4.7-.8-1.2.1a10 10 0 0 0-7.6 5.4 14 14 0 0 0-1.3 9.4l.4 1.6s2.4-2.3 8-2.4z" style="fill:url(#m)"/><radialGradient id="n" cx="24.5" cy="84.7" r="16.9" gradientTransform="rotate(7.8 -1161 -37.89)scale(1 -1.405)" gradientUnits="userSpaceOnUse"><stop offset=".6" style="stop-color:#554138;stop-opacity:0"/><stop offset="1" style="stop-color:#554138"/></radialGradient><path d="M10.4 33.4A11 11 0 0 0 7.2 46c1.7 4.4 8 6.3 8 6.3s1.3.4 2 .4l1.4-21.9c-3 0-5.9 1-7.8 2.3z" style="fill:url(#n)"/><path d="M50 118.3s6.1-3.3 10.5-10.2c-3.8-1-10.9-2.6-10.5-2.1l-10.5 2.3c4.3 6.7 10.5 10 10.5 10" style="fill:#d8d8d8"/><linearGradient id="o" x1="42.7" x2="42.7" y1="22" y2="31.2" gradientTransform="matrix(1 0 0 -1 0 128)" gradientUnits="userSpaceOnUse"><stop offset="0" style="stop-color:#fff"/><stop offset="1" style="stop-color:#bdbdbd"/></linearGradient><path d="m41 96.3-5.5.5c.6 7 4.1 12.4 7.5 16l7-6.8a27 27 0 0 1-9-9.7" style="fill:url(#o)"/><linearGradient id="p" x1="57.2" x2="57.2" y1="22" y2="31.2" gradientTransform="matrix(1 0 0 -1 0 128)" gradientUnits="userSpaceOnUse"><stop offset="0" style="stop-color:#fff"/><stop offset="1" style="stop-color:#bdbdbd"/></linearGradient><path d="M59 96.3c-.6 1.3-2.7 5-9 9.7l7 6.7c3.2-3.5 6.6-8.7 7.5-15.8z" style="fill:url(#p)"/><path d="M57.8 78.9H42.2c-3.3 0-2.7 2-1.1 2.6 2.5 1 6 1.4 8.9 1.4a24 24 0 0 0 8.9-1.4c1.6-.7 2.2-2.6-1.1-2.6" style="fill:#473530"/><path d="m99.2 119.6 4.6-24.9V94l-.7-8.9c-.1-2.3 1.7-2.6 4-2.4s4 1 3.4 3.2l-2.5 8.5-.1.8-.6 25.2zm7.2-43.6 2.3.2a3 3 0 0 1 2.8 3.5v.5c-.2 1.7-1.7 3-3.5 2.8l-2.3-.2c-1.7-.2-3-1.7-2.8-3.5v-.5c.2-1.7 1.8-3 3.5-2.8" style="fill:#dd8a3e"/><path d="M103 57.3h12.4v23.6H103z" style="fill:#995f33" transform="rotate(-84.1 109.27 69.06)"/><path d="m112.4 77-9.6-1a2.5 2.5 0 0 1-2.2-2.8l1-10.1a2.5 2.5 0 0 1 2.8-2.2l9.6 1c1.3 0 2.3 1.3 2.2 2.7l-1 10.1a2.5 2.5 0 0 1-2.8 2.3m-13-9c.5-5.8.6-8-1.7-8.2S93.3 63 93 67.3s1 8.1 3.2 8.4 2.7-2 3.3-7.7m17.9 1.9c.6-5.8 1-8 3.3-7.7s3.7 4 3.2 8.3-2.6 7.8-4.9 7.5-2.2-2.4-1.6-8.2" style="fill:#dd8a3e"/><radialGradient id="q" cx="33.3" cy="135.1" r="19.3" gradientTransform="rotate(88 43.12 193.84)scale(-1 1.057)" gradientUnits="userSpaceOnUse"><stop offset=".3" style="stop-color:#a56c43"/><stop offset="1" style="stop-color:#8d5738"/></radialGradient><path d="M101.1 103.7q-1.5.2-3 .8c-1.4.7-8-1.3-8.4 5.1 0 1.8-.3 7.4 1.2 10 3.2 5.8 15 4.4 15.8 4.5 5.6.9 3.1-17.1 0-19.4l-1.6-1c-1.1-.5-2.9-.2-4 0" style="fill:url(#q)"/><radialGradient id="r" cx="116.9" cy="13.2" r="14.1" gradientTransform="rotate(-20.6 456.77 56)scale(1 -1)" gradientUnits="userSpaceOnUse"><stop offset="0" style="stop-color:#8d5738"/><stop offset="1" style="stop-color:#a56c43"/></radialGradient><path d="m109 120.3-6.3-.2q-1.3.1-1.6 1.3-.2 1.3 1.3 1.8l6.2.9c1 .2 2-.5 2-1.5l.1-.5q0-1.7-1.7-1.8" style="fill:url(#r)"/><radialGradient id="s" cx="112.1" cy="26.2" r="14.1" gradientTransform="matrix(1.015 .168 .167 -.986 -7.66 110.58)" gradientUnits="userSpaceOnUse"><stop offset="0" style="stop-color:#8d5738"/><stop offset="1" style="stop-color:#a56c43"/></radialGradient><path d="m89.7 114 3.2 1.6c6 2.4 6.7-5 6.8-6 .8-5.8 5.9-4.5 10.2-4.8.9 0 4-.6 4.8-2.6.9-3.4-2.6-3.3-9.9-3.8l-6 .2c-9.3 1.4-9.4 11-9.1 15.3" style="fill:url(#s)"/><radialGradient id="t" cx="118.2" cy="15" r="16.1" gradientTransform="rotate(-3.8 2044.9 53.52)scale(1 -1)" gradientUnits="userSpaceOnUse"><stop offset="0" style="stop-color:#8d5738"/><stop offset="1" style="stop-color:#a56c43"/></radialGradient><path d="m111 110-9 .8c-1.3 0-1.3 1-1.4 2.1 0 1.3 0 2.4 1.4 2.4l9.1.5c1.6 0 2.9-1.1 2.8-2.6v-.7c0-1.5-1.4-2.7-3-2.5" style="fill:url(#t)"/><radialGradient id="u" cx="118.9" cy="16" r="15.4" gradientTransform="rotate(184.4 1.07 59.67)scale(-1 1)" gradientUnits="userSpaceOnUse"><stop offset="0" style="stop-color:#8d5738"/><stop offset="1" style="stop-color:#a56c43"/></radialGradient><path d="m110.9 104.7-7.8 1q-1.9.4-2 2.2.2 2 2.3 2.2h7.9c1.4 0 2.6-1.1 2.5-2.5v-.7a2.5 2.5 0 0 0-3-2.2" style="fill:url(#u)"/><radialGradient id="v" cx="117.1" cy="14.7" r="15.4" gradientTransform="rotate(-13 670.2 52.1)scale(1 -1)" gradientUnits="userSpaceOnUse"><stop offset="0" style="stop-color:#8d5738"/><stop offset="1" style="stop-color:#a56c43"/></radialGradient><path d="m110.2 115.5-7.2.4a2 2 0 0 0-2 1.8 2 2 0 0 0 1.9 2.2l7.2.7c1.3.1 2.5-.9 2.5-2.2v-.6q-.1-2.3-2.4-2.3" style="fill:url(#v)"/><path d="M111.3 115.8c.1-1-8 0-9-.8a2 2 0 0 1 .4-3.5c1.5-.7 9.2-1 9.2-1.4 0-.8-10 1.6-10-2-.1-2.3 2.2-2.3 3.8-2.6 1-.1 5-.4 5-.7s-1-.2-1-.2c-.8-.1-5.6.3-7 .6-2 .5-2.6 1.7-2.6 2.6 0 1.1-.4 2.6-.7 3.6-.8 2.2-3.4 4.2-3.5 4.5-.1.4 1.7-.5 2.8-1.7.7-.7 1.6-.4 1.8.5l.2 1.4c0 .5 0 3.5-.2 4.5v1.2l.5.9c.9 1.2 2.5 1.3 3.9 1.3.8 0 4 .4 4.8 0-1.8 0-8.1.1-7.9-2.3.2-1.4 1.5-1 2.4-1 1 .2 3 .2 4 0l1.9-.1c0-.4-3.3-.4-3.6-.4-1.3 0-4 .2-4.7-1.4q-.3-1 .3-1.8c.9-1.1 9.1-.7 9.2-1.2" style="fill:#875334"/></svg>