<svg xml:space="preserve" width="16" height="16" viewBox="0 0 128 128"><path d="M27.9 105.5h-19V54.9c5 0 15 4.2 15 4.2a6 6 0 0 1 4 5.7z" style="fill:#a65f3e"/><path d="M26.4 95.5V83.1a34 34 0 0 0-10.9 2c-3.4 2.4-2.5 6.7-2.5 10.4z" style="fill:#784d30"/><path d="M122 105.4H13V59a4 4 0 0 0-8.1 0v64.9h6l4.8-9.6h96.7l4.8 9.6h6v-17.2q-.1-1.2-1.3-1.3" style="fill:#c87d5e"/><path d="M120.5 108.4H16.3c-1.5 0-3-.7-3-2.3l107.8-.7c1.2 0 2 0 2 1.2 0 1-.1 1.8-2.6 1.8" style="fill:#784d30"/><path d="M110.5 107H14.9c-1.5 0-2-1.4-2-3v-8c0-1.1 1-2 2-2h94.7c2 0 3.6 1.7 3.6 4v6c0 1.6-1.2 3-2.7 3" style="fill:#e0f7fa"/><path d="M59.5 108.4s21.5 6 35.3 6h17.6l-.4-7.8zm52.9 5.9h4.8v9.6zm-96.7 0h-4.8v9.6z" style="fill:#784d30"/><path d="M27.3 94C16 94 14 88 14 88s3.6-6.6 13.2-6.6 14.5 5.9 14.8 7.9c.6 4.2-3.2 4.7-14.6 4.7" style="fill:#e0f7fa"/><path d="M14 88c.7 2 3.8 6 13.3 6H38l.4-5.6s-2.9 1.5-11.2 1.7c-5.7.2-10.6-.7-13.2-2.1" style="fill:#94d1e0"/><path d="M34.2 71.4c5.8-2.5 11.6 1.3 13.6 5.6 0 0-5 4.1-6.2 4.6z" style="fill:#a56c43"/><path d="M39.6 87c2.8-6 7-9 7-9h.3q-.5-.3-1-.3-1.7 0-3.3.5-2.2.6-3-1.1-.3-1 .4-2 1-.8 2-.2a6 6 0 0 0-6.3-4.4 9 9 0 0 0-7.8 5.7c-.9 2.4-.4 6.6 1 7.4l1 .3q.9 0 1.6.2a31 31 0 0 1 8 3.1z" style="fill:#3c2c23"/><radialGradient id="a" cx="38.9" cy="80.3" r="12.4" gradientTransform="matrix(1 -.011 .01 .892 -.8 9.1)" gradientUnits="userSpaceOnUse"><stop offset=".6" style="stop-color:#554138;stop-opacity:0"/><stop offset="1" style="stop-color:#554138"/></radialGradient><path d="M39.6 87c2.8-6 7-9 7-9h.3q-.5-.3-1-.3-1.7 0-3.3.5-2.2.6-3-1.1-.3-1 .4-2 1-.8 2-.2a6 6 0 0 0-6.3-4.4 9 9 0 0 0-7.8 5.7c-.9 2.4-.4 6.6 1 7.4l1 .3q.9 0 1.6.2a31 31 0 0 1 8 3.1z" style="fill:url(#a)"/><path d="M45.8 83.8c.5-1 3.7-5 10-7 8.3-2.5 13.5-2.8 27 1 7.9 2 20.5 6.1 28.4 7.8 5.8 1.2 13.2 6 12 12.8z" style="fill:#3daae0"/><path d="M51.1 83c.5-1 8.9-2.1 18.2 0a263 263 0 0 0 32.5 5.6c5.6.5 17 1.7 19.7 4.4 4 4 3.4 8.9.1 16.9-1.2 3-4.5 5.7-4.5 5.7-25.6-3-65.2-7.3-72.2-11 0 0-.1-10 6.2-21.7" style="fill:#188ad6"/><path d="m49.2 88.8 3-5c3.6-6.2 6.6-7 6.6-7.9s-9-.2-11.1 1.1c0 0-5.7 1.8-8.1 8.8-.5 1.3 9.6 3 9.6 3" style="fill:#b0e0ff"/><path d="M42 81.4s2.2-.6 6-.5c2.8 0 5.2 1.4 5.2 1.4a54 54 0 0 0-6.6 22.2c-.1 1.3-.5 1.3-1.7.9l-7.2-2c-1.5-.7-1.7-1.6-1.7-2.7 0-11.7 6-19.3 6-19.3" style="fill:#7dbbe3"/></svg>