<svg xml:space="preserve" width="16" height="16" viewBox="0 0 128 128"><path d="M57.9 96c-2.2 0-37.3 9.6-37.9 9.8s-1 1.2.3 1.6c1.2.3 59.5 16.4 60 16.4s32-14.5 32.5-14.8c.6-.2.3-1.9-1.3-2.3-1.1-.2-50.7-10.6-53.6-10.6" style="fill:#5e6268"/><path d="M33.2 111 72 98.6l6 1.4-38.6 12.7zm7.4-1c-1.2-.5-17.6-5-17.6-5l4.7-1.3s17.5 4.4 17 4.5zm8.4-3.3-16.7-4.2 4.8-1.3 17.7 4.3zm9.1-2.9-16-4 4.9-1.2 15.9 4zm-7.3-6.1 16 3.7 3.4-1.4L55 96.6zm39.1 13-5 2.2 6 1.4 5.3-2.1zm-10.5-2.3-5 2 6.8 1.6 4.7-2.2zm-3.4-.8-6.9-1.6-5 1.9 6.6 1.6z" style="fill:#c8c8c8"/><path d="M37.7 38.6s2.4-2.6 2.8-2.7l4-.2q1 .1.2 1.6l-3 5zm38.7 10.2 10.4-10.4s.2-4 .4-4.6c.1-.4 2.7 0 3 .3.7.4 3.2 5 3.2 5L88.8 52z" style="fill:#006ca8"/><path d="M74.1 67v6.3s-2 1.2-2 3.5a4 4 0 0 0 3.7 3.8c2 .2 4-1.2 4-3.5.1-2.3-1.4-3.2-1.4-3.2v-6.2zm14.6 2.2V71s-1.4 1-1.3 3q.5 3 3.4 3.1c3 .1 3.3-1.2 3.3-3.5 0-2.1-2.3-3.2-2.3-3.2zm14 4.3s0 4.4.3 4.6c.3.3 1.7.2 1.7.2s-2.1 1-2 3.3q.3 3.2 3.9 3.4 3.8 0 3.8-3.6c0-2.7-2.6-3.3-2.6-3.3s1 0 1-.3v-4.5z" style="fill:#5d6268"/><path d="M50 67.2c-3.8.2-5.1 2.4-5.1 4.4s0 4.3 2.8 6.1c3 2 7 4 11 5.4 3.6 1.3 8.4.3 8.4-5.4 0-3.1.3-6.8-4.1-7.5a27 27 0 0 1-6.9-2.6z" style="fill:#999b9a"/><path d="M63 71.8c-1.3 0-2.5 1.8-2.6 4.5 0 2.9.5 5.6 2.3 5.6s2.4-3 2.4-5.4-.4-4.7-2.1-4.7" style="fill:#5d6268"/><path d="M24.7 41.3c-.5 0-1.3 1-1 1.9.2.8 1.4 4.4 12 10.9s23.5 10.8 31 12.7 20.7 5.4 33 6.8c12.4 1.5 23.4 1.8 23.8-2.1s-6.3-7.8-6.3-7.8l-.9-1.6s0-2-2.8-4.3c-2.8-2.4-9.2-5.2-23.2-8.5s-37.1-7.6-46.8-8.2-17.8 0-18.8.2" style="fill:#c8c8c8"/><path d="M27 42.4c.7.7 3.8 1 10.3 1.6s10.8 1.2 10.8.8c0-.6-5-3.4-7-4.6-2-1-15.5-21.4-16-21.5s-4.7-1-5-.5c-.4.4 6.2 23.6 6.9 24.2" style="fill:#014eac"/><path d="m25.8 43.8-21 2.5Q3 46.5 3 47.7c0 1.1.8 1 3.4 1l23.9-.8c.7 0 1.3-1.7-.5-2.7s-4-1.4-4-1.4M11 69.2c.8.2 17.7-1.7 23-2.5a74 74 0 0 0 17.2-4.2c.4-.5 1-2 2.2-2s5.6.8 10.1 1.5a82 82 0 0 1 12.7 3c.9.4 1.2 2.8-2.6 3.5s-17.5 3.2-28.4 4.4c-11 1.3-34.5 4-37.4 1.7-1.2-1-2-8.7-1.3-9.4.1 0 2.7-.1 3.5.1.3.1 1 4 1 4" style="fill:#006ca8"/><path d="M52 44.3q-1.4 1.2 2.8 2.2c4.2 1 12.9 2.5 19.3 3.7s19.1 4 20.6 4.3q2.3.3 2.4-.8c.2-.6-.4-1.3-3.6-2-2.9-.5-10.3-2.3-19-4l-19.1-3.5c-1.3-.2-2.9-.5-3.5 0m47.4 10.4q-.4 1.4 2.4 2 3.4 1.2 3.7-.2c.4-1-1-1.7-2.8-2.3s-3.2-.5-3.3.5" style="fill:#e1e1e1"/><path d="M108.3 63.4q-1.6-.1-1.7 1c-.1 1.2.3 1.5 1.6 1.8s4.5.6 7.1-.2 2.7-1.9 2.7-1.9l-.8-1-1-1.2s-1 1-3.1 1.4q-3.3.2-4.8 0M39.6 49c-1-.1-1.3.8-1.3 1.6s.1 1.7 1.1 1.8q1.5-.2 1.4-1.6c-.1-1.4-.1-1.8-1.2-1.8m7.1 2.2q-1.2 0-1.4 1.6c-.2 1.6.4 1.9 1.2 2q1.3-.1 1.4-1.9 0-1.5-1.2-1.7m6.7 1.7q-1.2.2-1.2 1.6c0 .8.2 1.8 1.2 1.9q1.3 0 1.4-1.8 0-1.6-1.4-1.7m22.7 5c-1 0-1.3.8-1.3 1.6s.1 1.8 1.1 1.8c1 .1 1.4-.8 1.4-1.5s0-1.8-1.2-1.9m7.6 1.7q-1.2-.1-1.4 1.6 0 1.8 1.2 1.9 1.6 0 1.4-1.9 0-1.6-1.2-1.6m7.6 2q-1.2.2-1.2 1.6c0 .8.2 1.8 1.2 1.8q1.3 0 1.3-1.7c0-1.7-.3-1.7-1.3-1.7m-30.6-7q-1.4.2-1.3 1.6c0 .8 0 1.8 1 1.9s1.5-.9 1.5-1.6-.1-1.8-1.2-1.9m7.4 1.5q-1.2.2-1.2 1.7c0 .7.2 1.7 1.2 1.8q1.3-.1 1.4-1.7 0-1.7-1.4-1.8" style="fill:#385662"/></svg>