<svg xml:space="preserve" width="16" height="16" viewBox="0 0 128 128"><path d="m74.7 24.1-.8-.2-1.2 4.4.9.1q1.6.1 2.2-1.7c.5-1.8-1.1-2.6-1.1-2.6M55.9 19h-.1c-.4 0-1.8 0-2.2 1.6s.6 2.6 1.9 3l1.2-4.4zm12.7 9.7-3.6 10-8-1.8 4.4-20.7z" style="fill:#99674f"/><linearGradient id="a" x1="54.9" x2="75.4" y1="21.6" y2="21.6" gradientUnits="userSpaceOnUse"><stop offset=".5" style="stop-color:#ba8d68"/><stop offset="1" style="stop-color:#a47b62"/></linearGradient><path d="M68.6 9.4c-7.4-2-11 3.2-13.1 11.3-2.3 8.3 2.5 12 6.4 13 4 1.1 10 .5 12.3-7.9 2.2-8 1.8-14.4-5.6-16.4" style="fill:url(#a)"/><radialGradient id="b" cx="66.2" cy="-31.9" r="11.7" gradientTransform="rotate(19.4 -66.99 -3.7)scale(1 1.036)" gradientUnits="userSpaceOnUse"><stop offset="0" style="stop-color:#6d4c41"/><stop offset="1" style="stop-color:#543930"/></radialGradient><path d="M70 8.8h-.2l-.2-.2c-8-2.6-12 1.5-13.2 4.9-1.2 3.3-1 5.4-1 5.4l-.5 2.9c.7 2 2.3 3.3 1.7 6-.4 2.3 2.1 4 4.7 4.9s5.6 1.2 6.7-.9c1.3-2.5 3.3-2.3 5.2-3.6l1.3-2.6s1.5-1.5 2.7-4.8c1.2-3.4.6-9-7.2-12" style="fill:url(#b)"/><radialGradient id="c" cx="65.9" cy="-19" r="11.7" gradientTransform="rotate(-70.6 92.8 9.82)scale(1.036 .654)" gradientUnits="userSpaceOnUse"><stop offset=".6" style="stop-color:#6d4c41;stop-opacity:0"/><stop offset="1" style="stop-color:#6d4c41"/></radialGradient><path d="M70 8.8h-.2l-.2-.2c-8-2.6-12 1.5-13.2 4.9-1.2 3.3-1 5.4-1 5.4l-.5 2.9c.7 2 2.3 3.3 1.7 6-.4 2.3 2.1 4 4.7 4.9s5.6 1.2 6.7-.9c1.3-2.5 3.3-2.3 5.2-3.6l1.3-2.6s1.5-1.5 2.7-4.8c1.2-3.4.6-9-7.2-12" style="fill:url(#c)"/><ellipse cx="67.3" cy="12.6" rx="8.7" ry="10.6" style="fill:#1976d2" transform="rotate(-86 67.3 12.64)"/><radialGradient id="d" cx="67.8" cy="118" r="15.4" gradientTransform="matrix(1 0 0 -1 0 130)" gradientUnits="userSpaceOnUse"><stop offset=".2" style="stop-color:#42a5f5"/><stop offset=".5" style="stop-color:#3798eb"/><stop offset="1" style="stop-color:#1976d2"/></radialGradient><path d="M74.9 10.8c4.8 5.5 3.6 11.5 0 16.2-4 5-14 3-18.2-1.9S53.4 13.8 58 9.8s12.6-4 16.9 1" style="fill:url(#d)"/><ellipse cx="67.2" cy="13.3" rx="1.2" ry="1.4" style="fill:#0665b2" transform="rotate(-79.7 67.2 13.26)"/><path d="M41.9 22.4 39 20.7l1.6-2.5s3.9 1.8 4.2 2.4-.4 1.5-.4 1.5c-1 1.4-1.8.8-2.6.3" style="fill:#91674d"/><path d="M63.4 88.8q-1.5-1.4-2-3.5L60 74.2c1.3-3.7-.6-14.4-9.3-14.4q-1.6 0-3.6.6c-2.2.6-4.9 7.8-4.9 7.8l8.5 25.7a7 7 0 0 0 4 4.5l21.8 11.4 3.7-7z" style="fill:#616161"/><path d="m84.4 102.4-2.5-1.6q-1.7-.8-3.4-.8h-1.2l-4 6.1-2 6.6q-.4 2.7 1.7 4.4l1.1.7a1 1 0 0 0 1.5-.3l9-13.4q.6-1-.2-1.7" style="fill:#325599"/><path d="m41.2 62.3-4.7 22.2q-1.2 5.6-.4 11l3 22.2h7.2l2-24.8 6.2-19 .2-.3c2-2 2.7-6.9 2.7-6.9z" style="fill:#7c7c7c"/><path d="M47 115h-7.8l-7 2.3a5 5 0 0 0-3 4.2v1.4q.2 1 1.2 1.1h17.5q1.2-.1 1.3-1.3v-3.2c0-2.1-2.2-4.5-2.2-4.5" style="fill:#4568ad"/><path d="M96.7 58.7s4.6 2.6 5.2 3.8c.3.8.4 3.7.2 5.6s-1.1 2.3-1.1 2.3-1.6 1-3.3 1.3-1.8-1.3-1.8-1.3-.3-2.8-.2-3.7.9-2.6 1.8-3.7c.4-.5-.3-1-.3-1l-1.8-1.4z" style="fill:#504f4f"/><path d="m37.4 37.9 4.5-8.8-6.8-3.6-5.9 11.3a5 5 0 0 0 0 5q1.7 3.1 5.2 3.8l20.6 4 1.4-9.9z" style="fill:#04846c"/><radialGradient id="e" cx="57" cy="46.5" r="17.4" gradientUnits="userSpaceOnUse"><stop offset=".4" style="stop-color:#00bfa5"/><stop offset=".8" style="stop-color:#00b29a"/><stop offset="1" style="stop-color:#00ab94"/></radialGradient><path d="m67.9 44-.4 1.2A82 82 0 0 0 62 69.5q-.2 1.2-1.3 1.9a12 12 0 0 1-5.8 1.1 56 56 0 0 1-12-1.6 5 5 0 0 1-3-2.4 5 5 0 0 1-.4-3.9Q44 48 49.1 38.7a11 11 0 0 1 3.6-4.6l1.8-1 1.8-.6q1.3 0 2.5.3l6 2q1.5.5 2.4 2.6l.7 2.2q.5 2.2 0 4.4" style="fill:url(#e)"/><path d="m67.9 44-8.3-5.2-.5-.3-6.6-4.2.2-.2 1.8-1q1.1-.6 1.6-.6h.2l3.2 1.8.6.4c1.7 1 5 3 7.8 4.9q.5 2.2 0 4.4" style="opacity:.4;fill:#212121"/><path d="m95.4 60.6 1.3-1.9-50-34.7-1.8 2.5z" style="fill:#7c7d7d"/><path d="m45 26.5 1.7-2.5-15.2-10.4a1.5 1.5 0 0 0-1.7 2.5z" style="fill:#504f4f"/><path d="M46.7 21.8q-.5-.7-1.5-.6-.9.3-1.2 1l-.4.7q-.8 0-1.4.3l-3 1.3q-.4.2-.4.5v2.3c.2.6 1.4 1.5 2 1.7l.6.2.4-.1q.2 0 .7-1.3l.6-1.4c1-.5 2-.7 2-.7l.4-.2q.3-.1.3-.3l.1-.5.1-.3.8-1.4q.3-.5 0-1.2" style="fill:#91674d"/><linearGradient id="f" x1="39.9" x2="37.1" y1="16.4" y2="23.9" gradientUnits="userSpaceOnUse"><stop offset=".3" style="stop-color:#ba8d68"/><stop offset="1" style="stop-color:#a47b62"/></linearGradient><path d="M44 17.7c-.8-.8-1.1 0-1.7-.2s-.3-.7-.9-1c-.9-.3-1.2.3-1.7.1s-.3-.5-1-.7-1 .4-1.5.2-.4-.5-1-.6q-.8-.3-1.6.9c-1.6 2.3-2.5 7-2.5 7L39 27l5-6.4c.5-.8 1-2 .2-2.8" style="fill:url(#f)"/><path d="M59.3 40.6c0 2.8-2.1 4.8-4.2 5.3h-1.4l-23.2-.7q-1.8 0-3.2-1.1a4 4 0 0 1-1.3-4.8l5.5-16.8q0-.3.3-.4h.4l7.6 3.6q.3 0 .3.6L36.6 36l17-1h.3l1 .1a5.4 5.4 0 0 1 4.4 5.4" style="fill:#04a287"/><path d="m58.8 38.2-5-3H55q2.4.5 3.8 3" style="opacity:.4;fill:#212121"/></svg>