<svg xml:space="preserve" width="16" height="16" viewBox="0 0 128 128"><linearGradient id="a" x1="62.3" x2="62.3" y1="50.2" y2="8.6" gradientTransform="matrix(1 0 0 -1 0 128)" gradientUnits="userSpaceOnUse"><stop offset="0" style="stop-color:#00bfa5"/><stop offset=".5" style="stop-color:#00b29a"/><stop offset="1" style="stop-color:#009e89"/></linearGradient><path d="m101.3 124-45.3.1q-7.3-.2-9.6-.6c-7.1-1.3-14.8-2.6-20.6-6.6-4.5-3.1-9.2-8.9-4.5-19 6.4-15 12.1-29.7 25.4-31.5 4.4-.7 11-.6 18.3-.6s12 1.2 15.2 1.9c21.8 4.8 22.8 22 24.8 40.7 0 0 1.7 15.7-3.7 15.7" style="fill:url(#a)"/><linearGradient id="b" x1="78.2" x2="78.2" y1="-17.7" y2="54.1" gradientTransform="matrix(1 0 0 -1 0 128)" gradientUnits="userSpaceOnUse"><stop offset="0" style="stop-color:#212121;stop-opacity:.8"/><stop offset="1" style="stop-color:#212121;stop-opacity:0"/></linearGradient><path d="M101.8 109.4c-6.2-11-8-12.5-8.8-14.4-1.4-3.3-2.8-4.5-3.9-5q-.2-1.8-.8-4.5.8-.6 1.4-1.7.4-1.5 0-3l-3.2-7c-.4-1-32.5 12.7-32.5 12.7-1 1.8-1.5 3.3-.1 6.2.7 1.7 2.5 3 2.9 2.9l3-1.2q.6 1 1.7 1.4c.3.1 1.4.4 3 0l7.7-3.4a4 4 0 0 0 3.8 1.7 7 7 0 0 0 3 3.7c-1 1.6.8 4.7 1.8 6.7 1.5 3-1.9 14.2-.7 19.6l21.2.1c1.7-3.4 3.4-9.5.5-14.8" style="fill:url(#b)"/><linearGradient id="c" x1="82.9" x2="57" y1="50.8" y2="38.4" gradientTransform="matrix(1 0 0 -1 0 128)" gradientUnits="userSpaceOnUse"><stop offset="0" style="stop-color:#81d4fa"/><stop offset="1" style="stop-color:#0288d1"/></linearGradient><path d="m92.8 77.6-3-7.2q-.7-1.4-2.2-2t-2.9 0l-23.2 10c-2 .8-2.8 3-2 5l3.1 7a4 4 0 0 0 3 2.3q1 .1 2-.3L91 82.5q1.4-.6 2-2 .5-1.5 0-3" style="fill:url(#c)"/><path d="M60.7 78.8c-1.3.6-2 2.7-1.3 4.1l3.6 8.2c.6 1.4 3.2 2 4.6 1.4l23.3-10z" style="fill:#fffde7"/><path d="M57.7 85.2q.9-.3 1.4.3L60 87q.6 1.5.7 2.9l-.1.3-.3.1-1.6.1c-1.1 0-1.7-1-2-2q-.3-.8-.2-1.8.2-1 1-1.5z" style="fill:#c53929"/><path d="m63 91.1-1.1.5a2 2 0 0 1-2.2-.5q-.6-.8-.6-2-.2-1.6-1.2-2.6l-.6-.5c-.8-.9 0-2.4.9-2.8l1-.5c1.1-.5 3 .4 4.2 3.2 1.1 2.7.6 4.8-.4 5.2" style="fill:#e06055"/><path d="M55 93.3c-.6 5.2-4.8 9.6-9.8 11-5.2 1.4-11.8-1.6-15-6.2-6-8.4.4-15.4 1.8-17 3.4-3.9 8.5-3.8 12.5-3.5C52.8 78 56 86.3 55 93.3" style="fill:#c5e1a5"/><path d="M43.2 76c-2 0-5.3.1-7.5 1.4-1 .6-1.4 1.7-1.4 1.7q4-1.6 8.9 0c6.3 2.3 7.4 7.7 6.8 14.5-.3 4.9-3.6 8.8-7.5 10-1.9.7-1.7 1.6.7 1.7 8.6.6 14.7-6.6 14.7-14.7S52.5 75.8 43.2 76" style="fill:#fef6e0"/><path d="M58.5 96.4c12.4 1.2 16 8 16 8 12.4 2.8 15.7 11 14.7 14.8 0 0-5.7 3.4-9.3 3.4q-7.6.3-15.3 0s.8-5.7-1-7.3c-1.2-1-3.1 0-5-1.1l-12-7c-4-2.1-7.6-3.1-7.6-3.1 3.6-4.2 10-8.6 19.5-7.7" style="fill:#bdbdbd"/><linearGradient id="d" x1="57.9" x2="57.9" y1="5.7" y2="47.6" gradientTransform="matrix(1 0 0 -1 0 128)" gradientUnits="userSpaceOnUse"><stop offset=".1" style="stop-color:#212121;stop-opacity:.4"/><stop offset="1" style="stop-color:#252525;stop-opacity:0"/></linearGradient><path d="M28.7 86.1s1 6.7 7.2 8c8.6 1.7 14.3-2.4 14.3-2.4s.6 1 2.2.6c1.3-.3 4-1 4.6-2 .8-1.3.7-2.4.7-2.4l.1 1.5-.1 3.7c-.2 1.3-.9 3.1-.9 3.1-1.8.5-3.5 2.8-2.5 5.8a15.4 15.4 0 0 0 15.4 10q4.2-.3 8.3-1.3.8-.3 1.4 0c1.1 1.6-1.5 4.2-2.2 5 5.4 3 11.4.1 11.7.2s-3 3.7-9.1 3.7c-3 0-5.7-1.1-8.4-1.9s-6 .1-7.6-2.1c-1-1.4-3.4-.4-5.1-1.3-3.4-2-11.3-6.9-15.1-8.5l-5.2-1.9c-4.1-1.1-7.9 1.8-11-2.5-1.7-2.3 1-6.3 1-6.3-1.8-4.6.3-9 .3-9" style="fill:url(#d)"/><linearGradient id="e" x1="91.7" x2="101" y1="29" y2="6.2" gradientTransform="matrix(1 0 0 -1 0 128)" gradientUnits="userSpaceOnUse"><stop offset="0" style="stop-color:#00bfa5"/><stop offset=".5" style="stop-color:#00b29a"/><stop offset="1" style="stop-color:#009e89"/></linearGradient><path d="M83.4 93.7c-3 1.2-.6 5.2.6 7.5 1.8 3.5 3 13.5 5.4 17.4 3.2 5.5 11.6 7 15.2 4.4 3-2.2 4-10.2.4-16.8-6.1-11-7.9-12.5-8.7-14.5-2.9-6.3-5.7-5-5.7-5z" style="fill:url(#e)"/><linearGradient id="f" x1="62.5" x2="90.1" y1="10.6" y2="10.6" gradientTransform="matrix(1 0 0 -1 0 128)" gradientUnits="userSpaceOnUse"><stop offset="0" style="stop-color:#cca47a"/><stop offset=".5" style="stop-color:#e0bb95"/></linearGradient><path d="M90.1 116.8c0-.6-.2-1.3-1.8-.7-4 1.6-7 2.7-11.5 1 .5.4 6-4.2 2.8-6.5-1.4-.5-4.3 2.6-7.2 2.9-2.9-.2-6.4-.2-8.9 2.3l-1 8.3c2.6 0 14.8.4 19.5-.3 2.8-.7 7.5-3 8.1-7" style="fill:url(#f)"/><linearGradient id="g" x1="97.2" x2="84" y1="-46.8" y2="-30.6" gradientTransform="matrix(.99 .143 .143 -.99 .38 35)" gradientUnits="userSpaceOnUse"><stop offset="0" style="stop-color:#cca47a"/><stop offset=".5" style="stop-color:#e0bb95"/></linearGradient><path d="M79 70c-.9-.2-2.6-.1-2.9.7-.6 1.6 1.2 2.6 2.3 2.9l3.9.8 1.7 3s-3.8-1.1-5.5-1.2c-2.2 0-5 1.2-6.5 1.8-2 .9-.6 3.2 1.6 3.1a13 13 0 0 0 3.9-.8l2.5 1c-1 0-4 .3-4.6 2-.7 2 .6 3.5.6 3.5s-.8 1 0 2.7c.6 1.4 2.5 2.4 4.3 2.5a5 5 0 0 0 4.8 3.4c3 0 5.4-2 6.5-4 1.3-2.6 1.6-6-.7-11.1-1.3-3-3.6-7.8-5.6-8.7-2.5-1.2-2.8-1.1-6.3-1.6" style="fill:url(#g)"/><path d="m78.9 91.7 1.4.3q.6 1.7 1.8 2.4c-.3-.3-.8-1.2-.8-1.4-.3-1.3 0-1.8.3-2.6q.7-1.1.1-1.5c-.4-.3-2 .2-2.4.3 0 0 1 1 .6 1.8q-.3.6-1 .7M76 86.8s1.8-2 6.1-1.6c0 0-1.3-1-3.2-.7-2.2.3-2.9 2.3-2.9 2.3m4-5.5h2.7s-1.7-.7-2.7-.8l-2.5-.2z" style="fill:#ba8f63"/><path d="M64.7 59.6h-7.1v8c0 3.5 2.9 6.4 6.5 6.4h1.3c3.6 0 6.5-3 6.5-6.5v-7.9zM77.1 33l-33.3 4.6c-3.6.5-6 4-5.5 8s3.9 6.5 7.5 6L79 46.7c3.6-.5 6-4 5.5-7.8s-3.9-6.6-7.5-6" style="fill:#c48e6a"/><path d="M82 34a26 26 0 0 0-21.3-21.7 18 18 0 0 0-5.3.1q-2.3.5-4.8 2c-7 4.2-14 14.3-11.2 28.3 3.1 15.7 13 22.2 23 21.8q1.8 0 3.5-.4C77 61.8 85.5 51.5 82 34" style="fill:#e0bb95"/><path d="M54.3 35.2c-.7-.8-2.3-1.7-5-1.3s-3.9 1.8-4.4 2.7q-.2.7.3 1.3.4.4 1.2 0c.6-.2 1.6-1 3.4-1.2q2.7-.3 3.6.2 1-.1 1-.5c.3-.3.2-1 0-1.2m21-3.4c-.7-.7-2.3-1.6-5-1.2s-4 1.8-4.4 2.7q-.2.8.2 1.2t1.3.2c.5-.3 1.5-1 3.4-1.3q2.7-.3 3.5.2 1 0 1.3-.6.2-.6-.3-1.2" style="fill:#ab872f"/><path d="M68.3 50.5a17 17 0 0 1-10.8 1.7c-1.3-.5-2.3.7-1.7 1.7.7 1 4.7 2.8 7.9 2.3 3.1-.5 6.3-3.5 6.6-4.6.4-1.1-1-2-2-1.1" style="fill:#6d4c41"/><path d="M64.3 44.4h-.2l-4.5.7h-.2q-.7.5-.3 1.2c.2.4 1.3 1.5 3.2 1.3a3 3 0 0 0 2.6-2.2 1 1 0 0 0-.6-1" style="fill:#c48e6a"/><path d="M50.6 42.7q-2 .2-3.5-.3-.6-.3-.4.4c.5 1.6 2.3 2.6 4.3 2.3s3.4-1.9 3.4-3.5q0-.6-.6-.3-1 1-3.2 1.4m21.2-3.3q-2 .2-3.5-.3-.6-.2-.5.4c.5 1.5 2.4 2.5 4.4 2.2s3.4-1.8 3.4-3.4q0-.7-.6-.3-1.2 1-3.2 1.4" style="fill:#5d4037"/><path d="M55.5 6.7c-27.5 4.6-16.7 35-16.7 35l2.6 4.4c0 .2.4.1.4 0 .1-2.8.7-12.5 1.3-15.5a4 4 0 0 1 3.7-3 68 68 0 0 0 23.5-3.9 4 4 0 0 1 4.5 1.7C76.3 28.1 80 37 81 39.5c0 .2.4.2.4 0l1-5s.5-32.2-27-27.8" style="fill:#ab872f"/><radialGradient id="h" cx="61.1" cy="94.7" r="23.3" gradientTransform="rotate(-9.3 914 -29)scale(1 -1.128)" gradientUnits="userSpaceOnUse"><stop offset=".8" style="stop-color:#bfa055;stop-opacity:0"/><stop offset="1" style="stop-color:#bfa055"/></radialGradient><path d="M82.5 34.6s.4-32.3-27-28l-3.6.9h-.2c-22.6 6.8-12.9 34.3-12.9 34.3l2.6 4.3q.3.3.4-.1c.2-2.7.7-12.3 1.3-15.3.4-1.8 2-3 3.8-3 2.7 0 7.1 0 11.8-.9h.1c4.8-.8 9-2 11.6-3 1.7-.6 3.5 0 4.4 1.6 1.6 2.7 5.2 11.7 6.2 14.2q.3.3.5 0z" style="fill:url(#h)"/></svg>