<svg xml:space="preserve" width="16" height="16" viewBox="0 0 128 128"><path d="M98.3 44.3H29.7l4.5-27.8c0-2 1.6-3.5 3.5-3.5h53c1.8 0 3.4 1.6 3.4 3.5z" style="fill:#757575"/><path d="M93 41.9H35l3.8-23.5a3 3 0 0 1 3-3h44.7a3 3 0 0 1 2.9 3zM94.5 30h-61a5 5 0 0 0-5 4.1l-1.7 10.3h74.4l-1.7-10.2a5 5 0 0 0-5-4.3" style="fill:#424242"/><linearGradient id="a" x1="64.7" x2="64.7" y1="30.8" y2="2.1" gradientUnits="userSpaceOnUse"><stop offset=".6" style="stop-color:#eee"/><stop offset="1" style="stop-color:#e0e0e0"/></linearGradient><path d="M39.8 38.7h50.7s2.7-18-1.8-34.4H38c3.4 15.4 1.8 34.4 1.8 34.4" style="fill:url(#a)"/><path d="m39 43.6 51-.7.8-6H40.2z" style="fill:#bdbdbd"/><path d="M119.2 90.8H14.9c-5.6 0-6.3-10.2-6-16.7q0-2.2.8-4.5l6.9-23.2s1.9-6.9 8-6.9h77.5c4.7 0 6.6 5.3 6.6 5.3l9 23a19 19 0 0 1 1.3 6.9z" style="fill:#cfd8dc"/><path d="M110.9 111.2H17a8 8 0 0 1-8.2-8.3V76c0-3.5 2.8-6.3 6.3-6.3h97.6c3.5 0 6.3 2.8 6.3 6.3v27c0 4.5-3.7 8.2-8.2 8.2" style="fill:#90a4ae"/><path d="M92.1 39.5H36.4l-8.8 30.2V77c0 3.5 2.9 6.4 6.5 6.4H94c3.5 0 6.4-2.9 6.4-6.4v-7.3z" style="fill:#607d8b"/><path d="m31.5 65 6.6-25.5h52.4L96.7 65c.8 3.6-1.6 4.7-5 4.7H36.5c-3.3 0-5.8-1.2-4.9-4.8" style="fill:#90a4ae"/><circle cx="109.9" cy="79.8" r="3.5" style="fill:#424242"/><circle cx="109.9" cy="79.3" r="3.5" style="fill:#99d45b"/><path d="M106.2 118.6 99 94.3H29l-7.3 24.3c-.8 2.6 1.8 5.1 5 5.1h74.4c3.2 0 5.8-2.5 5-5.1" style="fill:#616161"/><path d="M96.5 101c-.4-1.8 1-2.4 1.6-2.5 1.1-.4 2 .2 2 .2L99 94.3H29.1l-1.3 4.4s1-.6 2.1-.3c.5.2 2 .7 1.6 2.5l-1.6 7.7-1.3 7.6c0 1.5 1.3 2.6 3 2.6h64.9c1.6 0 3-1.1 3-2.6l-1.4-7.6z" style="fill:#212121"/><path d="M55.4 106s-20 7.7 4.3 7.7 34.7-6.7 34.7-6.7l-5.6-5.4-28 2.6z" style="fill:#bdbdbd"/><path d="M93 97.6H37l-4.7 15.8s15.9.3 27.4.3 26-9.3 26-9.3 9.6 5.6 9 1.4c-.6-4.8-1.6-8.2-1.6-8.2" style="fill:#fff"/><path d="m93.5 99.1-.8-3-55.3.3-.8 2.7z" style="fill:#bdbdbd"/><path d="M81.7 106.7H38.4l-.3 1h41.6zm-41.9-4.3-.4 1h50.2l-.2-1z" style="fill:#9e9e9e"/><path d="M88.6 98.1H41l-.3 1h48.1z" style="fill:#757575"/><path d="M67 85.5h-6a2.5 2.5 0 0 1-2.4-2.5v-.4c0-1.3 1-2.4 2.4-2.4h6c1.3 0 2.4 1 2.4 2.4v.4q-.2 2.3-2.4 2.5" style="fill:#607d8b"/><path d="M93.9 90.4H34c-3 0-5.3 2.4-5.3 5.4h70.4c0-3-2.4-5.4-5.3-5.4" style="fill:#212121"/></svg>