<svg xmlns:xlink="http://www.w3.org/1999/xlink" xml:space="preserve" width="16" height="16" viewBox="0 0 128 128"><path d="M64.7 10.7a14 14 0 0 0-13-5.9c-5.2.5-9.6 3.7-11.5 8.4a22 22 0 0 0-1.1 10.2c.3 4 .1 5-2.5 6.9-3.9 2.9-5.4 6.8-4 10.3 1.2 3.4 4.8 5.4 9.2 5.4H43q14.1-1.3 20.4-12.7l.3-.4c3.6-6 5.2-15.7.9-22.2" style="fill:#543930"/><radialGradient id="a" cx="50.3" cy="96.7" r="20.3" gradientTransform="rotate(147.2 36.61 -15.34)scale(1 -.64)" gradientUnits="userSpaceOnUse"><stop offset=".8" style="stop-color:#6d4c41;stop-opacity:0"/><stop offset="1" style="stop-color:#6d4c41"/></radialGradient><path d="M67 23.7c-.3 3.7-2.4 7.7-3.3 9.2l-.2.4A24 24 0 0 1 41.8 46c-4.5 0-8.2-2-9.3-5.3C31 36 34 32.4 35.7 31c2.7-2 3.8-3 3.4-6.8 2.3 14.8 27.2 3.3 27.8.2z" style="fill:url(#a)"/><linearGradient id="b" x1="57" x2="55.7" y1="78" y2="92.5" gradientTransform="matrix(1 0 0 -1 0 128)" gradientUnits="userSpaceOnUse"><stop offset=".1" style="stop-color:#ffca28"/><stop offset="1" style="stop-color:#ffb300"/></linearGradient><path d="M68.4 33.7a12 12 0 0 1-7.5 1.4q-2.7-.5-5-.5c-8.7 0-13 4.5-13 4.5l6 9.2q4.3 1.4 8.4 1.4a15 15 0 0 0 3.5-.4c6-1.4 8.8-5.9 8.8-5.9z" style="fill:url(#b)"/><linearGradient id="c" x1="75.8" x2="67.7" y1="104" y2="98.6" gradientTransform="matrix(1 0 0 -1 0 128)" gradientUnits="userSpaceOnUse"><stop offset=".2" style="stop-color:#ffca28"/><stop offset="1" style="stop-color:#ffb300"/></linearGradient><path d="M85 27.9c-2.2-6.4-5.4-9.9-7.5-14.9l-.1-.2 1.4-1.3s2.9-3.1 5-4.7c.5-.4.3-1.2-.4-1.2-1.5.3-5 3.3-5 3.3q-.3-.7-1-.6-.8 0-1.5.7l-3 2.7q-1.3 1.2-.5 2.4l.1.5 3.4 10.2 1 3.2c-3.7 2.6-12.2 7.5-12.2 7.5S67.1 43 68 43c1.1 0 3-.6 3.9-1.3 4.7-3.6 9.6-7.7 12-9.6a4 4 0 0 0 1.1-4.2" style="fill:url(#c)"/><linearGradient id="d" x1="37.3" x2="48.4" y1="64.4" y2="75.4" gradientTransform="matrix(1 0 0 -1 0 128)" gradientUnits="userSpaceOnUse"><stop offset=".2" style="stop-color:#ffca28"/><stop offset="1" style="stop-color:#ffb300"/></linearGradient><path d="m47.8 64.4-.4.3zl-.1-.2-.1-.1-.2-.3L40 56l-1.4-1.6C42 51 49 45.9 49 45.9S45.7 39 44.9 39a7 7 0 0 0-3.7 1.7c-4.2 4.2-8.6 8.8-10.6 11q-.9.7-1 1.9-.4 1.9.9 3.2l.1.1c4.5 4.8 8.7 6.6 12.6 10.3l.4.3-.4 2s-.5 4.2-1.2 6.8q-.1.8.6.9l.4-.2c1-1.1 2.1-5.6 2.1-5.6l.6.1c.7 0 1.2-1 1.3-1.7l1-4v-.6z" style="fill:url(#d)"/><linearGradient id="e" x1="94.3" x2="93.7" y1="60.9" y2="60.5" gradientTransform="matrix(1 0 0 -1 0 128)" gradientUnits="userSpaceOnUse"><stop offset="0" style="stop-color:#bc1b00"/><stop offset=".3" style="stop-color:#e31c00"/><stop offset=".7" style="stop-color:#bc1b00"/><stop offset=".9" style="stop-color:#dd1c00"/></linearGradient><path d="M94 67v.4q.4-.3 0-.4" style="fill:url(#e)"/><linearGradient id="f" x1="50.6" x2="58.6" y1="88.1" y2="47.2" gradientTransform="matrix(1 0 0 -1 0 128)" gradientUnits="userSpaceOnUse"><stop offset="0" style="stop-color:#bc1b00"/><stop offset=".2" style="stop-color:#e31c00"/><stop offset=".5" style="stop-color:#bc1b00"/><stop offset=".9" style="stop-color:#dd1c00"/></linearGradient><path d="M94 67.4c-1.2 1.2-9.2 4-19.6-1.7q-6.1-3.4-7-9c-.9-5.6 1.9-6 2.1-9.2q0-1.6-.2-2.8c1.5-.7 3.3-2.2 3.3-2.5q-.2-2.3-1.5-4.1-1.2-2-3-3.5-.7-.6-1.5-.6c-3.4 1-4 1-7 1l-.8-.2c1.5 1.8 5.3 9.9 1.7 11.6S48.9 35.7 48.9 35.7c-2.5.7-7.6 3.6-10 6.5q-.2.3.2.6a22 22 0 0 0 6.3 6.8l1.6-.9q2.2 2.4 3.4 4.1c.8 1 3 5 2.2 8.3-5.8 12.3-.2 14.7.4 19 1.3 9-9 30.7-26.5 30.7l8.2 4.7 15.7-1 8.7-7.5 11.9-1.8 4.2-8.6L79.3 85l15.2-10z" style="fill:url(#f)"/><defs><path id="g" d="M94 67c1.7.2-7.3 5.6-19.6-1.3q-6.1-3.4-7-9c-.9-5.6 1.9-6 2.1-9.2.4-5.3-3.5-6.3-5.5-8.6s-4.4-4.5-4.4-4.5h-1.2c1.6 1.8 5.7 10.3 2 12s-11.7-11-11.7-11l-1.4.5a17 17 0 0 0-7.1 4.9c0 .4 7.8 8.7 10.2 12 .8 1 3 5 2.3 8.3-6 12.4-.3 14.8.3 19 1.3 9-9 30.7-26.5 30.7l8.2 4.7 15.7-1 8.7-7.5 11.9-1.8 4.2-8.6L79.3 85l15.2-10z"/></defs><clipPath id="h"><use xlink:href="#g" style="overflow:visible"/></clipPath><g style="clip-path:url(#h)"><path d="M53.2 96.6q-2.1 1.1-4.4 4.9c-1.3 2.2-4.4 7.8-6.8 8.2-2.2.5-5.4-.6-6.5-2.6l-.5-.9-1.7 1 .4.8c1.4 2.5 4.3 3.6 7 3.6l1.7-.1c3.4-.7 6-6 7.3-8.3q1.5-2.4 3-3.6-.2-1.5.5-3M74 70.3c2.2 0 4.1.6 4.1.6l-.7-.5c-1.2-.6-3.7-1.9-6-1.7q1.3 1.2 2.6 1.6M65.8 85c2 4.7 5.6 12.8 2.3 15.2q-1.1.7-4.1-.8l-4.9-2.9q.4 1.2.5 2.4 2.1.8 4 2c2.2 1.1 4 1.8 5.7.3 4.3-3.7.2-10-1.8-15-2-4.8-1.8-8.3-.2-11.1l-2.4-.8q-1.6 5.1.8 10.7" style="fill:#ff8f00"/><path d="M70.5 71.5q1.6-1 3.5-1.2-1.3-.4-2.5-1.6-.9 0-1.6.4a10 10 0 0 0-5 5.2l2.4.8q1-2 3.2-3.6M53.2 96.6q-.6 1.5-.6 3c2.4-1.9 4.8-1.6 7-.7q-.1-1.2-.5-2.4c-1.8-.8-3.8-1.2-5.9 0" style="fill:#ffb600"/></g><defs><path id="i" d="M94 67c1.7.2-7.3 5.6-19.6-1.3q-6.1-3.4-7-9c-.9-5.6 1.9-6 2.1-9.2.4-5.3-3.5-6.3-5.5-8.6s-4.4-4.5-4.4-4.5h-1.2c1.6 1.8 5.7 10.3 2 12s-11.7-11-11.7-11l-1.4.5a17 17 0 0 0-7.1 4.9c0 .4 7.8 8.7 10.2 12 .8 1 3 5 2.3 8.3-6 12.4-.3 14.8.3 19 1.3 9-9 30.7-26.5 30.7l8.2 4.7 15.7-1 8.7-7.5 11.9-1.8 4.2-8.6L79.3 85l15.2-10z"/></defs><clipPath id="j"><use xlink:href="#i" style="overflow:visible"/></clipPath><g style="clip-path:url(#j)"><path d="M85 74.3v-.5c3-.5 2.1-4.6 2-5.3l2-.3c0 .4.6 3.6-1 5.4-.6.5-3 .7-3 .7" style="fill:#ff8f00"/></g><radialGradient id="k" cx="67.2" cy="-633.2" r="47.4" gradientTransform="matrix(1 0 0 -1 0 -534)" gradientUnits="userSpaceOnUse"><stop offset="0" style="stop-color:#892002"/><stop offset=".5" style="stop-color:#b42002"/><stop offset="1" style="stop-color:#892002"/></radialGradient><path d="M98 64.4c5.5-.7 9.8 5.2 7.7 10.5a6 6 0 0 1-3.2 3.3c-1 .4-1 2 .1 2.3.8.2 2.2-.6 3.5.1a5 5 0 0 1 2.8 4.7c0 2.7-1.2 5.4-3.8 6.1-3.8 1-4.6 4.5-4.7 8.7 0 1.8-.5 4.5-2.7 6-7.4 5-12.1-2-17.8 1-9.8 5.3-3.7 16.1-28.3 8.8-5.9-1.7-15.6 10.5-24 5.4-6.7-4-4.7-9-2.1-10.8 5.2-3.5 6 3.7 17.7 3 6.1-.3 4.6-10.5 12.8-13 6.4-2 9 7.3 14 3 7.7-6.7-3.5-17.2-.5-24.7 1.8-4.7 5.7-7.3 9.7-6.3s3.7 4 6.3 4.8c2.8.9 4.5-2 5.2-4 1-3.4 1.7-8.2 7.2-8.9" style="fill:url(#k)"/><path d="M100.2 115.6c1.7 1 4.8 4.2 5.7 5.9.2.5.5 1.6.1 2-.2.4-6.5.8-11-1.7l-1-1.4q-.7-1-.9 0h-1.6c-.4-4.1-1.1-3.7-1-6.6 0-2.3 1.6-2.8 2.3-3 0 0 5 3 7.4 4.8" style="fill:#dd2c00"/><linearGradient id="l" x1="83.4" x2="95.3" y1="40.5" y2="18.1" gradientTransform="matrix(1 0 0 -1 0 128)" gradientUnits="userSpaceOnUse"><stop offset="0" style="stop-color:#ffb300"/><stop offset=".4" style="stop-color:#ffca28"/></linearGradient><path d="M100.3 113.6q-1.4-3-2.7-6.3a362 362 0 0 0-9-20Q88 86 86.7 86q-1.8.1-3.6 1.3c-2 1.2-3.9 2.4-2.5 4.7 2.8 4.4 9.2 11.7 11.4 16.5 1.2 2.6 1.2 5.4 3.1 7.6.9 1 1.5 1.6 2.8 1.8l1.2.1q1.6.1 1.9-1.1c.1-.8-.4-2.6-.7-3.4" style="fill:url(#l)"/><path d="M60 121.4c-.3-2.6-2.5-6.8-4.8-6.8s-4.6 4.2-5 6.8L50 123q0 .8 1 .9h8q1-.2 1-1z" style="fill:#b41301"/><path d="M57.6 107.6q-2 0-2.5.9c-.4 1.4-1.5 5.1-1.8 7.1q-1 2.8 2.1 3.2h.6q2-.1 2.4-2.5l2.8-6.9c.3-1.1-1.8-1.8-3.7-1.8" style="fill:#eda600"/><path d="m57.6 33.1-6 .6.4 3.2a3 3 0 0 0 2.7 2.5h.2l.5-.1a2.7 2.7 0 0 0 2.5-3z" style="fill:#e59600"/><path d="M64.5 21.3C63.8 12.9 58.8 9 53.5 9h-1c-5.6.6-10.4 5.2-9.7 14a13 13 0 0 0 9.4 12l2 .3h.6a8 8 0 0 0 2.6-.7 13 13 0 0 0 7.1-13.4" style="fill:#ffca28"/><path d="m52.8 26.3 2.4-.2q.5.1.3.5c-.2.4-.4 1-1.4 1q-1.4-.2-1.5-.7t.2-.6" style="fill:#e59600"/><circle cx="59.1" cy="22.7" r="1.6" style="fill:#404040" transform="rotate(-5 59.06 22.73)"/><circle cx="48.4" cy="23.7" r="1.6" style="fill:#404040" transform="rotate(-5 48.44 23.66)"/><path d="M56.4 20q.4-.7 2.3-1.2c2-.5 2.1.4 2.5.8v.5l-.6.2q-.5-.2-1.8-.3-1.3.3-1.7.6l-.6-.1zm-10.6 1q.4-1 2.3-1.3c1.9-.3 2.1.4 2.5.8v.5q0 .3-.6.2c-.6-.1-.9-.3-1.8-.2q-1.4.2-1.7.5h-.6q-.2-.3 0-.6" style="fill:#6d4c41"/><path d="M51.5 29c1.1.6 4.5.3 5.5-.4.5-.4 1.2 0 1 .6s-2 2-3.6 2.1-3.5-1-3.8-1.4c-.2-.5.3-1.1 1-.8" style="fill:#795548"/><path d="M40.6 27.5c.4-5-.2-6.7 0-8.5 0-1.6.5-11.8 11.7-12.7a11.5 11.5 0 0 1 13.4 10.5L66 21s-.1 2.4-1.2 5.4-2 4.2-1.7 2.7q.6-2.7.4-6.2c0-1 0-4.5-2-4.7-7.5-1-12-4.6-12-4.6-.9 2.5-4 5-5.2 6-.9.8-.5 3.8-.4 5l1 5.7c-1.3-.7-3.6-1.5-4.3-2.8" style="fill:#543930"/><radialGradient id="m" cx="52.7" cy="105.8" r="17.7" gradientTransform="matrix(0 1 .917 0 -44.39 -30.5)" gradientUnits="userSpaceOnUse"><stop offset=".9" style="stop-color:#6d4c41;stop-opacity:0"/><stop offset="1" style="stop-color:#6d4c41"/></radialGradient><path d="m67 23.7-.1.7c-.6 3-25.5 14.6-27.8-.2v-1.5q-.6-5.7 1.1-9.5c1.9-4.7 6.3-7.9 11.5-8.4s10.2 1.7 13 5.9c2.4 3.7 3 8.5 2.3 13" style="fill:url(#m)"/></svg>