<svg xml:space="preserve" width="16" height="16" viewBox="0 0 128 128"><path d="M58.3 54.2c0-1.4-.2-2.1-4.3-2.8C51 51 11.7 53 9.3 53c-4.6.3-6.3 2.2-6.3 5.5 0 3 3.4 5.5 4.2 6.7q1.2 1.7-.3 3.6c-.7 1-4 2.3-4 6 0 4.5 3 6.8 6.4 7.1 5.3.5 29.6.9 35.8 1.3 3 .2 4.9 1.6 7.9 1.8 1.3 0 5.3-3.3 5.3-4.7z" style="fill:#92cbeb"/><path d="M123 62.4c0-29.3-17.7-30.7-17.7-30.7 0-.3 1-17.3-16-21-13.7-3-22.5 2.6-27 7.6-8.2-4.3-20-3-25.5 6-2.9 4.8-2.5 12-.6 17.3s5.7 8.6 9.4 12.7c10.7 12 7 16.7 1.4 24.1-3.5 4.6-11 18.4.6 31.2 8.2 9 26.3 4 26.3 4 1.3.4 13.2 9.6 26.3.8 14-9.3 8.6-26.7 8.6-26.7s14.3-7.1 14.3-25.3" style="fill:#d5ebf5"/><path d="M70.2 86.7c.8-.2.8-1.3 0-1.6A27 27 0 0 1 56.7 76c-3.7-5.2-5.9-17.5 1.6-23 11-8.3 9.3-17.6 6.5-21-2.9-3.6-10.6-3-10.5 3.4q.1 1.7.8 3.3c1.3 2.8 3.3 7 .5 9.6a6 6 0 0 1-5 1.4c-4.3-.9-7.6-4.2-9.3-8.1-4.9-11.2-.7-18 5.2-23.9q.4-.7-.5-.7a16 16 0 0 0-11.3 15.2q-.4 7.7 3.4 14c2 3.3 5.5 6 7.7 9.1 1.8 2.4 5.3 5.4 4.8 8.6s-3 6-4.9 8.4a29 29 0 0 0-6 24.7c4.2 15.7 16.4 17.6 20.4 17.8q.5-.2.2-.5a28 28 0 0 1-7.5-4c-7.7-6.2-9.5-17-5.9-26.3a4 4 0 0 1 1.3-1.7c2.5-2 4.3 1.7 8.5 3.8a19 19 0 0 0 13.5.6m33.4-51.1c3-3 1.4-13.5-3-18.4-1.3-1.3-3.6-.3-3.4 1.6.3 3.1.8 7.7-1 12.3-1 2.8-.1 5 1.6 5.9.9.4 3.3 1 5.8-1.4" style="fill:#92cbeb"/><path d="M122.2 68.5q.7-2.8.8-5.2c0-.8-1-1-1.2-.3a21 21 0 0 1-10.3 13l-6.3 2.7c-2.6 1.3-6.1 2.6-6 6.1 0 4.8 7.7 5.2 13.4.5a31 31 0 0 0 9.6-16.7m-19.6 44.2c.5-.5 0-1.3-.6-1.1a24 24 0 0 1-19.2-1.7c-1.2-.7-4.4-3-7.6-3.3-2.1-.1-4 1.5-3.8 3.5q.2 2.2 2 3.7c2.7 2.5 7 3.6 10.6 4a26 26 0 0 0 18.6-5.1" style="fill:#61bfe8"/><path d="M18.6 43.3c3.7-1.5 7.1-4 9.1-7.3 2-3.4 2.4-8 .4-11.3s-6.8-5.2-10.3-3.4q-4 2.1-2 6.8c1 2.4 2.9 2.8 2.5 6-.5 4-5.5 7.5-7.9 8.5-2 .8-5.5 3.4-1.1 3 3-.1 6.5-1.2 9.3-2.3" style="fill:#92cbeb"/><path d="M29.4 101c1 2.5 2.4 9-3.4 9.8-4.7.7-7.4-4.4-8.5-9-1.4-6-6.7-9.2-9-11.4a.8.8 0 0 1 .4-1.4c4.4-.3 15.8 0 20.5 12" style="fill:#61bfe8"/><path d="M70.5 15.4q-2 1.8-3.8 3.8c-.4.4-2.4 3-4.4 1.4-.9-.8 0-2.8.3-3.3 1.2-2.2 4.7-6 12.2-7.6 2.4-.5 9.5-.4 9.5.3 0 1-8.2.9-13.8 5.4" style="fill:#92cbeb"/><path d="M34.7 60.3H3.4a11 11 0 0 0 2 3h29.3a1.5 1.5 0 1 0 0-3m8.7 8.8H6.6c-1 .9-3 1.7-3.4 4.2h40.2q2.3-.2 2.5-2.5c0-1.4-1.1-1.7-2.5-1.7" style="fill:#039be5"/></svg>