<svg xml:space="preserve" width="16" height="16" viewBox="0 0 128 128"><linearGradient id="a" x1="64" x2="64" y1="32.2" y2="5.4" gradientTransform="matrix(1 0 0 -1 0 128)" gradientUnits="userSpaceOnUse"><stop offset="0" style="stop-color:#00bfa5"/><stop offset=".5" style="stop-color:#00b29a"/><stop offset="1" style="stop-color:#009e89"/></linearGradient><path d="M64.1 96c-25.5 0-52 7.3-52 25v3h104v-3c0-16.7-26.3-25-51.9-25" style="fill:url(#a)"/><path d="M91.3 50.4H36.7c-6 0-10.7 5.2-10.7 11.4s4.8 11.5 10.7 11.5h54.6c6 0 10.7-5.2 10.7-11.5s-4.8-11.4-10.7-11.4M55 90v10c0 4.6 3.4 8.2 9 8.2s9-3.6 9-8.1V90z" style="fill:#c48e6a"/><path d="M64 11c-17.4 0-33.5 18.7-33.5 45.5C30.5 83 47 96.3 64 96.3S97.5 83 97.5 56.5C97.5 29.7 81.4 11 64 11" style="fill:#e0bb95"/><path d="M72.3 76.1a25 25 0 0 1-16.6 0c-1.8-1-3.6.6-2.9 2.3s6.4 5.3 11.2 5.3 10.5-3.7 11.2-5.4c.8-1.6-1-3.2-2.9-2.2" style="fill:#6d4c41"/><path d="M67.9 68H60q-1 .5-.6 1.7c.3.7 1.7 2.7 4.5 2.7s4.3-2 4.6-2.7q.3-1.2-.7-1.6" style="fill:#c48e6a"/><path d="M47.6 60.3q-3.1 0-5.1-1.3-1-.4-.8.5c.3 2.5 2.9 4.4 6 4.4 3 0 5.5-2 5.9-4.4q0-1-.8-.5a10 10 0 0 1-5.2 1.3m32.7 0Q77 60.3 75 59q-1-.4-.8.5c.4 2.5 2.9 4.4 6 4.4s5.5-2 5.9-4.4q.1-1-.8-.5a10 10 0 0 1-5.2 1.3" style="fill:#5d4037"/><path d="M40 50.7c3.2-4.5 10.7-4.6 14.4-.8.7.7 1.4 1.5.9 2.5q-1 1.4-2.6.5a13 13 0 0 0-7.5-.9L42 53.1c-1.4.5-3-1-2-2.4m46 2.4q-3.2-1.6-6.9-1.2a13 13 0 0 0-3.2.8c-.9.3-1.8.9-2.6.3-2.5-1.7 1.9-4.4 3.2-5 2.7-1.2 6-1 8.7.3 1 .6 2.2 1.4 2.8 2.4.8 1.3-.4 3-2 2.4M64 4.2c-45.4.3-36.1 52.2-36.1 52.2l3 7.7c0 .3.6.3.6 0 1-4.4 4.5-16.8 6.3-21.5a6 6 0 0 1 6.7-3.8A111 111 0 0 0 64 40.6h.2c7.8 0 14.9-1 19.3-1.8a6 6 0 0 1 6.8 3.8A212 212 0 0 1 96.5 64c.1.3.6.4.7 0l3-7.6s9.4-52-36-52.2" style="fill:#ab872f"/><radialGradient id="b" cx="64" cy="80.7" r="38.1" gradientTransform="matrix(1 0 0 -1.128 0 138.35)" gradientUnits="userSpaceOnUse"><stop offset=".8" style="stop-color:#bfa055;stop-opacity:0"/><stop offset="1" style="stop-color:#bfa055"/></radialGradient><path d="M100.2 56.4s9.3-52-36.2-52.2l-6 .4h-.3C19.4 9.4 27.9 56.4 27.9 56.4l3 7.6c0 .4.6.3.6 0a243 243 0 0 1 6.3-21.4 6 6 0 0 1 6.7-3.8A111 111 0 0 0 64 40.6h.2c7.8 0 14.9-1 19.3-1.8a6 6 0 0 1 6.8 3.8c1.8 4.7 5.3 17.1 6.2 21.4.1.4.6.4.7 0z" style="fill:url(#b)"/><linearGradient id="c" x1="31.2" x2="31.2" y1="124.3" y2="65.7" gradientTransform="matrix(1 0 0 -1 0 128)" gradientUnits="userSpaceOnUse"><stop offset=".6" style="stop-color:#e0bb95"/><stop offset="1" style="stop-color:#cca47a"/></linearGradient><path d="M43.3 35.4c-.9 1.5-3 2.4-4.8 2.4l-1-.1q-2-.6-4.3-.8-1 0-2 .4-3 1.6-3.1 4.9l-.3 16c-.2 3.3-1 5.6-3.8 5.6-2.1 0-2.9-1.3-3-2.6l-2-18.7-.6-15.5 2-11.8.5-11.2h13.9l-2.4 14.2c-.4 3 1 6.4 2.4 8.3 2.3 3.1 5.2 3.5 5.9 3.7 1.9.3 2.5 1 3 1.7q.7 1.4-.4 3.5" style="fill:url(#c)"/><linearGradient id="d" x1="96.8" x2="96.8" y1="124.2" y2="65.7" gradientTransform="matrix(1 0 0 -1 0 128)" gradientUnits="userSpaceOnUse"><stop offset=".6" style="stop-color:#e0bb95"/><stop offset="1" style="stop-color:#cca47a"/></linearGradient><path d="m109.6 27-.5 15.6L107 61c-.1 1.4-.9 2.7-3 2.7-2.8 0-3.6-2.3-3.8-5.6l-.3-16q-.1-3.4-3.1-4.9-1-.4-2-.4-2.3.2-4.4.8l-.9.1c-1.8 0-3.9-1-4.8-2.4q-1.1-2.1-.3-3.5c.4-.8 1-1.4 2.9-1.7.7-.1 3.6-.5 6-3.7 1.3-1.9 2.7-5.3 2.3-8.3L93.2 4h14l.4 11.2z" style="fill:url(#d)"/></svg>