<svg xml:space="preserve" width="16" height="16" viewBox="0 0 128 128"><path d="M64.6 2.9c-41 0-40.7 37.9-40.7 38.5 0 24.6 1.9 59.2 11.7 72.9C39.5 119.7 47 120 47 120h34s7.5-.3 11.4-5.7c9.8-13.7 11.7-48.3 11.7-73 0-.5 1.5-38.4-39.5-38.4" style="fill:#ab872f"/><radialGradient id="a" cx="64" cy="69.6" r="47.5" gradientTransform="matrix(1 0 0 -1.19 0 141.22)" gradientUnits="userSpaceOnUse"><stop offset=".8" style="stop-color:#bfa055;stop-opacity:0"/><stop offset="1" style="stop-color:#bfa055"/></radialGradient><path d="M64.6 2.9c-41 0-40.7 37.9-40.7 38.5 0 24.6 1.9 59.2 11.7 72.9C39.5 119.7 47 120 47 120h34s7.5-.3 11.4-5.7c9.8-13.7 11.7-48.3 11.7-73 0-.5 1.5-38.4-39.5-38.4" style="fill:url(#a)"/><path d="M112 124v-4.4c0-13.4-23.7-19.9-47.2-19.8-23.2 0-47.2 5.6-47.2 19.8v4.3z"/><path d="M64 90h-9v10c0 4.6 3.6 8.2 8.2 8.2h1.6c4.6 0 8.3-3.6 8.3-8.1V90z" style="fill:#c48e6a"/><path d="M97.1 56A40 40 0 0 1 72 94.8a24 24 0 0 1-7.9 1.5 24 24 0 0 1-7.9-1.5 37 37 0 0 1-17.8-14 40 40 0 0 1-5.6-11.6Q31 63.2 31 56c0-27.2 15.9-40 33.1-40s33.1 12.8 33.1 40" style="fill:#e0bb95"/><linearGradient id="b" x1="53.2" x2="53.2" y1="91.2" y2="48.4" gradientTransform="matrix(1 0 0 -1 0 128)" gradientUnits="userSpaceOnUse"><stop offset="0" style="stop-color:#ec008c"/><stop offset=".2" style="stop-color:#ea0188"/><stop offset=".4" style="stop-color:#e5057d"/><stop offset=".6" style="stop-color:#dc0b6b"/><stop offset=".8" style="stop-color:#cf1351"/><stop offset="1" style="stop-color:#bf1d2f"/><stop offset="1" style="stop-color:#be1e2d"/></linearGradient><path d="m58.3 48 10-2.1-29.5 35.6-.5-.6L40 67l-7 3-.3-.8 13-35.9 27.9-5.4z" style="fill:url(#b)"/><ellipse cx="47.6" cy="58.8" rx="4.9" ry="5.1" style="fill:#5d4037"/><ellipse cx="80.4" cy="58.8" rx="4.9" ry="5.1" style="fill:#5d4037"/><path d="M55 49.8c-1-1.2-3-3-7.2-3s-6.3 1.8-7.3 3q-.5 1 0 1.6t2 .4c1.4-.2 2.4-1.2 5.3-1.2 2.8 0 4.5.9 5.3 1.2q1.4.3 2-.4.4-.6-.1-1.6m32.5 0c-1-1.2-3-3-7.2-3s-6.4 1.8-7.3 3q-.5 1 0 1.6t1.9.4c1.4-.2 2.5-1.2 5.4-1.2 2.8 0 4.4.9 5.3 1.2q1.4.3 1.9-.4t0-1.6" style="fill:#ab872f"/><path d="M67.9 68H60q-1 .5-.6 1.7c.3.7 1.7 2.7 4.5 2.7s4.3-2 4.6-2.7q.3-1.2-.7-1.6" style="fill:#c48e6a"/><path d="M72.4 76.1a26 26 0 0 1-16.8 0c-1.8-1-3.7.6-3 2.3s6.5 5.4 11.4 5.4 10.6-3.8 11.3-5.4-1-3.4-2.9-2.3" style="fill:#6d4c41"/><path d="M64.6 2.9c-41 0-40.7 37.9-40.7 38.5q0 11.9.7 25.3h6.8c-.1-3 2-21 8-22.3 22.4-5 35-17 35-17 3.3 7.2 13.6 14.3 17.3 17 3 2.1 4.3 18.5 4.2 22.3h7.4v-.2c.6-8.7.8-17.4.8-25.1 0-.6 1.5-38.5-39.5-38.5" style="fill:#ab872f"/><radialGradient id="c" cx="64.3" cy="65.5" r="49.8" gradientTransform="matrix(1 0 0 -1.214 0 142)" gradientUnits="userSpaceOnUse"><stop offset=".8" style="stop-color:#bfa055;stop-opacity:0"/><stop offset="1" style="stop-color:#bfa055"/></radialGradient><path d="M64.6 2.9c-41 0-40.7 37.9-40.7 38.5q0 11.9.7 25.3h6.8c-.1-3 2-21 8-22.3 22.4-5 35-17 35-17 3.3 7.2 13.6 14.3 17.3 17 3 2.1 4.3 18.5 4.2 22.3h7.4v-.2c.6-8.7.8-17.4.8-25.1 0-.6 1.5-38.5-39.5-38.5" style="fill:url(#c)"/><linearGradient id="d" x1="111.2" x2="118.3" y1="46.9" y2="46.9" gradientTransform="matrix(1 0 0 -1 0 128)" gradientUnits="userSpaceOnUse"><stop offset=".5" style="stop-color:#e0bb95"/><stop offset="1" style="stop-color:#cca47a"/></linearGradient><path d="M113.9 86.8c1.8.2 3.3-.9 3.5-2.4l.9-6c.2-1.5-1-2.8-2.8-3s-3.2.8-3.4 2.3l-.9 6c-.2 1.5 1 3 2.7 3.1" style="fill:url(#d)"/><linearGradient id="e" x1="99.2" x2="123.8" y1="47.1" y2="47.1" gradientTransform="matrix(1 0 0 -1 0 128)" gradientUnits="userSpaceOnUse"><stop offset=".5" style="stop-color:#e0bb95"/><stop offset="1" style="stop-color:#cca47a"/></linearGradient><path d="M112.2 100c-5 .2-10.4-.8-12-5.9-1-2.7-.7-5.4-.1-8 .6-2.9.6-4.3.4-6.6L99.3 65s-.6-2.4 1.5-3c2.3-1 3.2 1.6 3.2 1.6l2.5 17.9 11 1.2q.1.1.7-2.5v-3l1.4-9.6c.1-.8.9-1.8 2.4-1.6s1.9 1.3 1.8 2l-.6 6.6q-.4 4.4 0 8.7l.2 2.2c.3 3.6-.2 7.4-1.8 10.2-1.6 3-4.4 4.3-9.4 4.5" style="fill:url(#e)"/><linearGradient id="f" x1="105.7" x2="112.5" y1="47.1" y2="47.1" gradientTransform="rotate(178.7 -.26 65.22)scale(-1 1)" gradientUnits="userSpaceOnUse"><stop offset=".5" style="stop-color:#e0bb95"/><stop offset="1" style="stop-color:#cca47a"/></linearGradient><path d="M108.7 87c1.7 0 3.1-1.1 3.2-2.6l.4-7c0-1.4-1.3-2.7-3-2.7-1.8 0-3.2 1.1-3.3 2.6l-.3 7c-.1 1.4 1.2 2.7 3 2.7" style="fill:url(#f)"/><linearGradient id="g" x1="108.7" x2="106.7" y1="44.1" y2="28.7" gradientTransform="matrix(1 0 0 -1 0 128)" gradientUnits="userSpaceOnUse"><stop offset=".5" style="stop-color:#e0bb95"/><stop offset="1" style="stop-color:#cca47a"/></linearGradient><path d="M113.9 82.8q-3-.6-6.6-.9h-1q-4.6-.2-6.3 5.4v.3l-.2.8-.2 1a8 8 0 0 0 .2 3.5c.8 3.4 3.2 5 3.2 5s6.3 3.2 7.7 0-.6-7.5-.6-7.5l-3-1.7q.9-1.1 3.3-1l2 .2 1.2.1q1.6 0 2.7-1c.8-1 .7-2.7.8-3.5q-1.4-.2-3.2-.7" style="fill:url(#g)"/><linearGradient id="h" x1="35.8" x2="35.8" y1="25.4" y2="-.3" gradientTransform="matrix(1 0 0 -1 0 128)" gradientUnits="userSpaceOnUse"><stop offset="0" style="stop-color:#666"/><stop offset="0" style="stop-color:#656565"/><stop offset=".3" style="stop-color:#484747"/><stop offset=".5" style="stop-color:#343131"/><stop offset=".8" style="stop-color:#272324"/><stop offset="1" style="stop-color:#231f20"/></linearGradient><path d="m54.2 124-.8-21.7a27 27 0 0 1-10.5 2.1c-5.9 0-11-1.9-15.2-3.4-2.9-1-5.3-2-7.2-2-2.2 0-3.1 2-3.1 6.9v18z" style="fill:url(#h)"/><linearGradient id="i" x1="3073.2" x2="3073.2" y1="25.4" y2="-.3" gradientTransform="matrix(-1 0 0 -1 3166.25 128)" gradientUnits="userSpaceOnUse"><stop offset="0" style="stop-color:#666"/><stop offset="0" style="stop-color:#656565"/><stop offset=".3" style="stop-color:#484747"/><stop offset=".5" style="stop-color:#343131"/><stop offset=".8" style="stop-color:#272324"/><stop offset="1" style="stop-color:#231f20"/></linearGradient><path d="M111.7 124v-18.1c0-4.9-1-6.8-3.2-6.8q-2.9.1-7.4 1.9a48 48 0 0 1-16 3.4q-5.5 0-10.6-2v21.5z" style="fill:url(#i)"/><linearGradient id="j" x1="40.4" x2="40.4" y1="13.7" y2="0" gradientTransform="matrix(1 0 0 -1 0 128)" gradientUnits="userSpaceOnUse"><stop offset="0" style="stop-color:#651fff"/><stop offset=".9" style="stop-color:#540fed"/><stop offset="1" style="stop-color:#530eeb"/></linearGradient><path d="m57.8 124-1.7-12-33.1 6.2 4 5.7z" style="fill:url(#j)"/><linearGradient id="k" x1="41.5" x2="41.5" y1="28.9" y2="1.3" gradientTransform="matrix(1 0 0 -1 0 128)" gradientUnits="userSpaceOnUse"><stop offset="0" style="stop-color:#ab47bc"/><stop offset=".2" style="stop-color:#a745b8"/><stop offset=".5" style="stop-color:#9c3eae"/><stop offset=".7" style="stop-color:#8a329c"/><stop offset=".9" style="stop-color:#702282"/><stop offset="1" style="stop-color:#621975"/></linearGradient><path d="M39.5 124h18.2L55 96.8 25.2 104 38 121.8z" style="fill:url(#k)"/><linearGradient id="l" x1="87.1" x2="87.1" y1="13.7" y2="0" gradientTransform="matrix(1 0 0 -1 0 128)" gradientUnits="userSpaceOnUse"><stop offset="0" style="stop-color:#651fff"/><stop offset=".9" style="stop-color:#540fed"/><stop offset="1" style="stop-color:#530eeb"/></linearGradient><path d="m100.7 124 4-5.7-33.5-6.3-1.7 12z" style="fill:url(#l)"/><linearGradient id="m" x1="86" x2="86" y1="28.8" y2="1.3" gradientTransform="matrix(1 0 0 -1 0 128)" gradientUnits="userSpaceOnUse"><stop offset="0" style="stop-color:#ab47bc"/><stop offset=".2" style="stop-color:#a745b8"/><stop offset=".5" style="stop-color:#9c3eae"/><stop offset=".7" style="stop-color:#8a329c"/><stop offset=".9" style="stop-color:#702282"/><stop offset="1" style="stop-color:#621975"/></linearGradient><path d="m87 124 2.5-3.7 12.8-17.7-29.2-5.7-3.5 27z" style="fill:url(#m)"/><linearGradient id="n" x1="110.2" x2="110.2" y1="30" y2="-8.4" gradientTransform="matrix(1 0 0 -1 0 128)" gradientUnits="userSpaceOnUse"><stop offset="0" style="stop-color:#666"/><stop offset=".6" style="stop-color:#393637"/><stop offset="1" style="stop-color:#231f20"/></linearGradient><path d="m121.6 124-.2-26H98.7v26z" style="fill:url(#n)"/><circle cx="99.5" cy="108" r="4.1" style="fill:#e1bee7"/><circle cx="110.2" cy="107.9" r="4.1" style="fill:#d81b60"/><circle cx="120.8" cy="107.9" r="4.1" style="fill:#651fff"/><path d="m34.3 87.9-22.8 9.4-.3-.7-.2.2-1.3.7V124H6.6V99.3a1.8 1.8 0 0 1-1.7-3.1l4.3-2.5.4-.2-.6-1.2 21.2-12.8v1.1a9 9 0 0 0 4 7.3" style="fill:#5d5f61"/><circle cx="39.1" cy="80.3" r="8" style="fill:#434444"/><path d="m35.4 87.4-1.1.5a9 9 0 0 1-4.1-8.4l1-.6v1.7a8 8 0 0 0 4.2 6.8" style="fill:#727475"/><path d="M42.8 87.4q-.6.4-1.3.6l-1.2-.9a16 16 0 0 1-3.9-4.8l-.2-.5a15 15 0 0 1-2-7.8 8 8 0 0 1 4.7-1.6h1.4a8 8 0 0 1 2.5 15" style="fill:#434444"/><path d="M40.9 86.4q-2.2-1.9-3.8-5c-1.8-3.4-2.2-6.5-1.7-8.1l-1.1.7a15 15 0 0 0 2.1 8.3q1.7 3 3.9 4.9l1.2.8 1.3-.5q-.9-.3-2-1.1" style="fill:#5d5f61"/><path d="M118.2 77.7c-.1 1.3-1.3 5.2-1.3 5.2l-4.1-1.4-.6-4.3-1.1 4q-2.7-.4-4.5 0l-.6-3.8-.3 2.5-.4 1.5q-1.9.7-3 1.4-.7.6-1.2 1.4l-.1.1a8 8 0 0 1 3.5-1.6c3.4-.8 7.9-.5 11 .9q2.1 1 .8 2.7c-1.3 1.7-3.5 1-5.2.8-1.5-.1-4 0-4.5 2 3.4.4 4.6 4.2 4.5 7.2 1.3-2.8.5-5.8-2.6-7.8 2-1 8.4 2 9.3-2.9.4-2.2.5-6.9.4-8" style="fill:#ba8f63"/></svg>