<svg xml:space="preserve" width="16" height="16" viewBox="0 0 128 128"><path d="M116 4H12a8 8 0 0 0-8 8v104a8 8 0 0 0 8 8h104a8 8 0 0 0 8-8V12a8 8 0 0 0-8-8" style="fill:#f77e00"/><path d="M109.7 4H11.5A7.6 7.6 0 0 0 4 11.5v97.9c0 4.1 3.3 7.5 7.5 7.5h98.1c4.1 0 7.5-3.3 7.5-7.5V11.5c0-4-3.1-7.4-7.2-7.5z" style="fill:#ff9800"/><path d="M39.7 12.9c0-2.3-1.6-3-10.8-2.7-7.7.3-11.5 1.2-13.8 4s-2.9 8.5-3 15.3c0 4.8 0 9.3 2.5 9.3 3.4 0 3.4-7.9 6.2-12.3 5.4-8.7 18.9-10.6 18.9-13.6" style="opacity:.75;fill:#ffbd52"/><path d="M38.2 38.4q-3.6 4.5-7.9 8.2a3 3 0 0 1-4.5-.5l-1.3-1.8c-1-1.3-.7-3.1.5-4.2q9.4-7.6 15.3-18.1a3 3 0 0 1 3.5-1.4l1.7.5a3 3 0 0 1 1.7 4.3L45 29a1 1 0 0 0 .8 1.6h52.6a3 3 0 0 1 3 3V35a3 3 0 0 1-3 3H38.9q-.5.1-.7.4m65.9 36.5v3.6a2 2 0 0 1-2 2H26.5a2 2 0 0 1-2-2v-3.6q.2-1.8 2-2h10.1q1 0 1-1V60.3q-.1-.9-1-1h-7.3a2 2 0 0 1-2-2v-3.6q.2-1.8 2-2h7.3q.9-.1 1-1v-6.1q.2-1.8 2-2h3.5a2 2 0 0 1 2 2v6.1q.1.9 1 1h6q.9-.1 1-1v-6.1q.2-1.8 2-2h3.1a2 2 0 0 1 2 2v6.1q.1.9 1 1h6.9q1-.1 1-1v-6.1q.2-1.8 2-2h3.1a2 2 0 0 1 2 2v6.1q.1.9 1 1h6.5q1-.1 1-1v-6.1q.2-1.8 2-2h3.8a2 2 0 0 1 2 2v6.1q.1.9 1 1h6.7a2 2 0 0 1 2 2v3.6a2 2 0 0 1-2 2h-6.7a1 1 0 0 0-1 1v11.6q0 .9.9 1h8.6a2 2 0 0 1 2.1 1.9zM26.4 98.6q4.3-6.6 7.5-13.8a2 2 0 0 1 2.3-1.1l4.2 1.1a2 2 0 0 1 1.3 2.7q-3.3 7.8-7.7 15a2 2 0 0 1-2.4.8l-4.3-1.7a2 2 0 0 1-.9-3m19.7-25.7h6q1 0 1-1V60.3q-.1-.9-1-1h-6a1 1 0 0 0-1 1v11.6q.1.9 1 1m11.8 14.4a104 104 0 0 1 1.7 12.8c.1 1-.6 2-1.7 2.1l-4.2.6a2 2 0 0 1-2.3-1.9c-.2-3.6-.7-8.3-1.3-12.5a2 2 0 0 1 1.7-2.3l3.9-.4q1.7 0 2.2 1.6m2.4-27v11.6q.1.9 1 1h6.9q.9 0 1-.9V60.3q0-.9-1-1h-6.9a1 1 0 0 0-1 1m16.2 25.9q2.7 6.4 4.4 13 .3 1.7-1.3 2.4h-.3l-4.3.8a2 2 0 0 1-2.3-1.5q-1.5-6.5-3.8-12.6a2 2 0 0 1 1.3-2.6l.2-.1 3.9-.7q1.5 0 2.2 1.3m-.2-25.9v11.6q0 .9.9 1h6.6q.9 0 1-.9V60.3q0-.9-1-1h-6.5a1 1 0 0 0-1 1M95 84.2a164 164 0 0 1 8.2 14.1 2 2 0 0 1-.8 2.6l-.2.1-4.5 2a2 2 0 0 1-2.6-1c-1.8-4-4.7-9.5-7.4-14.2a2 2 0 0 1 1-2.9l4-1.6q1.5-.2 2.3.9" style="fill:#fafafa"/></svg>