<svg xml:space="preserve" width="16" height="16" viewBox="0 0 128 128"><path d="M17.3 121.3 13 118c-3.1-3-5.1-7.4-2.9-10L53 53c.7-.8 2.8-2.8 4.7-4.2L79 33.3l12.5 10.8-22 18.2c-1.3.8-2.7 2.7-2.7 2.7L28 121.8c-2.3 3.1-7.3 2.9-10.8-.5" style="fill:#26a69a"/><path d="M64.6 43.8s-2.6 5.7-2.7 9.4c0 2.4 3.7 7.2 6 10.4l13.8-11.4L69.5 40z" style="fill:#00796b"/><path d="M97 72 53 29.4c-2.3-2.2-2-6.3.8-9.1L67.1 6.5c2.8-2.8 6.8-3.3 9-1.1L120.5 48c2.3 2.2 1.9 6.2-.8 9l-13.5 14c-2.8 2.9-6.8 3.4-9.1 1.1" style="fill:#26a69a"/><path d="M101.5 64.8q-.7 0-1.6-.6l-39.2-38q-.7-.6-.6-1.8t1-2.1l4.7-5L108.6 59l-4.7 4.9q-1 1-2.4 1m3.7-3.7q-1 0-1.8-.7l-39-37.8c-1-1-1-2.7 0-3.7l1.4-2 43.4 42.3s-3.3 2-4 2" style="fill:#e0e0e0"/><path d="M97.8 62 74.1 38.2l1-4.6 23.7 23.7zm-2.4-10.1L71.6 28.6l1-5 23.7 23.2z" style="fill:#fff"/><path d="M88.7 2.5h8v61h-8z" style="fill:#bae2fd" transform="rotate(-46 92.65 33)"/><path d="M105.7 60c-1.2.2-2.8-1.5-3.8-2.4L67.2 24c-1.3-1.3-3-2.7-2.3-4.4.3-.8 1.4-2.3 1.5-2.6q.1-.9-.5-.3l-1.9 2a3.6 3.6 0 0 0 .1 5L102.8 61q1.1 1 2.6 1c1.5 0 3.3-2 3.8-2.4q1.2-1.6-.7-.9c-.3.2-1.5 1.2-2.8 1.3m-3.9 3.9c-1.2 0-2.7-1.6-3.6-2.5L63.4 27.8c-1-1.1-3-2.6-2.2-4.4.3-.8 1.3-2.3 1.4-2.6q.3-.9-.5-.3l-1.8 1.9a3.6 3.6 0 0 0 0 5L99 65q1.1 1 2.5 1c1.6 0 3.5-2 3.9-2.4q1.3-1.6-.7-.9c-.3.2-1.5 1.2-2.9 1.3" style="fill:#424242"/></svg>