<svg xml:space="preserve" width="16" height="16" viewBox="0 0 128 128"><radialGradient id="a" cx="63.6" cy="512.9" r="57" gradientTransform="translate(0 -450)" gradientUnits="userSpaceOnUse"><stop offset=".5" style="stop-color:#fde030"/><stop offset=".9" style="stop-color:#f7c02b"/><stop offset="1" style="stop-color:#f4a223"/></radialGradient><path d="M63.6 118.8c-27.9 0-58-17.5-58-55.9S35.7 7 63.6 7c15.5 0 29.8 5.1 40.4 14.4 11.5 10.2 17.6 24.6 17.6 41.5s-6.1 31.2-17.6 41.4a61 61 0 0 1-40.4 14.5" style="fill:url(#a)"/><radialGradient id="b" cx="24.3" cy="-274.5" r="19.5" gradientTransform="matrix(.98 0 0 -.93 3.46 -181.12)" gradientUnits="userSpaceOnUse"><stop offset="0" style="stop-color:#ed7770"/><stop offset=".1" style="stop-color:#ed7770;stop-opacity:.96"/><stop offset=".2" style="stop-color:#ed7770;stop-opacity:.85"/><stop offset=".4" style="stop-color:#ed7770;stop-opacity:.68"/><stop offset=".6" style="stop-color:#ed7770;stop-opacity:.43"/><stop offset=".8" style="stop-color:#ed7770;stop-opacity:.13"/><stop offset=".9" style="stop-color:#ed7770;stop-opacity:0"/></radialGradient><circle cx="27.3" cy="74.2" r="17.5" style="opacity:.8;fill:url(#b)"/><path d="m50.2 59.1-.2-.2-.2-.3-.3-.3-.6-.6-.8-.8-2.2-1.4a6 6 0 0 0-2.5-.5h-1.2l-1.3.5-2.1 1.4-1.6 1.4-.5.7-.3.3a3.3 3.3 0 0 1-5.7-3.3l.1-.3.4-1q.7-1.5 1.8-3a13 13 0 0 1 8.7-5.1h1.7a14 14 0 0 1 6.3 1.6 14 14 0 0 1 5.9 6.7l.2.5.1.3.1.3c.6 1.8-.4 3.7-2.2 4.2-1.3.5-2.8 0-3.6-1.1m43.3 0-.2-.2-.2-.3-.3-.3-.6-.6-.9-.8-2.2-1.4a6 6 0 0 0-2.4-.5h-1.2l-1.3.5Q83 56 82 56.9l-1.5 1.5-.5.6-.3.3a3.3 3.3 0 0 1-4.7.6 3 3 0 0 1-1-3.9l.1-.3.4-1q.6-1.5 1.8-3a13 13 0 0 1 8.7-5.1l.9-.1h.7a14 14 0 0 1 6.4 1.7 14 14 0 0 1 5.9 6.7l.2.5v.3l.2.3a3.4 3.4 0 0 1-5.9 3.1M72.9 85a9 9 0 0 0 3-6c.1-3.5-.8-4.8-2-6.3-2.7-3.7-10.4-2.8-10.4-2.8-2 0-4.4 1-4.1 3.4a4 4 0 0 0 2.9 2.7c3 .7 7.3 0 7.5 3 .1 3.6-5.2 2-5.6 5.8s5.6 3.2 5.6 5.7c0 2-2 2.3-4.1 2.7-1.8.4-5.2 1-5.5 3s.9 4.6 5.7 3.8c7.6-1.1 10.2-5.3 10.2-7.8 0-2.8-1.1-5.5-3.2-7.3M47.2 32.6c2.3 0 3-3.1.5-3.6q-3-.6-5.8-.2c-5.3.6-10.1 3.2-13.5 7.2-1.6 2 1 4 2.7 2.5a26 26 0 0 1 16-5.9m32.9.7c-2.3.3-3.3-2.8-.9-3.6Q82 29 85 29c5.3 0 10.4 2.2 14.2 5.9 1.7 1.7-.6 4-2.4 2.7q-7.7-5-16.7-4.3" style="fill:#422b0d"/><path d="M111.5 29.7a57 57 0 0 1 8.1 30.2c0 16.9-6.1 31.2-17.6 41.4a61 61 0 0 1-40.4 14.5 59 59 0 0 1-48.2-23 58 58 0 0 0 50.2 26c15.4 0 29.8-5.2 40.4-14.5a54 54 0 0 0 17.6-41.4q-.1-19.2-10.1-33.2" style="fill:#eb8f00"/><radialGradient id="c" cx="99.2" cy="-274.5" r="19.5" gradientTransform="matrix(.98 0 0 -.93 3.46 -181.12)" gradientUnits="userSpaceOnUse"><stop offset="0" style="stop-color:#ed7770"/><stop offset=".1" style="stop-color:#ed7770;stop-opacity:.96"/><stop offset=".2" style="stop-color:#ed7770;stop-opacity:.85"/><stop offset=".4" style="stop-color:#ed7770;stop-opacity:.68"/><stop offset=".6" style="stop-color:#ed7770;stop-opacity:.43"/><stop offset=".8" style="stop-color:#ed7770;stop-opacity:.13"/><stop offset=".9" style="stop-color:#ed7770;stop-opacity:0"/></radialGradient><circle cx="100.6" cy="74.2" r="17.5" style="opacity:.8;fill:url(#c)"/></svg>