<svg xml:space="preserve" width="16" height="16" viewBox="0 0 128 128"><path d="M97.2 86c-1.2-2 .3-3.9 3-6.3a19 19 0 0 0 4.4-21.7s-.9-1.5-.8-1.6H102a3592 3592 0 0 0-76.4 0L23.2 58c-4.2 9 .3 17.9 4.4 21.7 2.6 2.4 4.1 4.3 3 6.2-1.2 1.9-4.7 2.2-4.7 2.2s.8 1.9 2.7 2.9c1.8 1 4 1.2 5.5 1.2 0 0 5.9 7.2 21.2 7.2h17.1c15.4 0 21.3-7.2 21.3-7.2 1.5 0 3.6-.3 5.4-1.2 2-1 2.7-3 2.7-3s-3.5-.2-4.6-2" style="fill:#543930"/><radialGradient id="a" cx="59.3" cy="33.3" r="19.2" gradientTransform="matrix(1.168 0 0 .505 8.55 71.07)" gradientUnits="userSpaceOnUse"><stop offset=".7" style="stop-color:#6d4c41;stop-opacity:0"/><stop offset="1" style="stop-color:#6d4c41"/></radialGradient><path d="M63.9 99.4v-8L91 89.5l2.5 2.7s-5.9 7.2-21.2 7.2z" style="fill:url(#a)"/><radialGradient id="b" cx="40.4" cy="36.1" r="5.7" gradientTransform="matrix(-1.058 .436 -.367 -.69 155.86 92.3)" gradientUnits="userSpaceOnUse"><stop offset=".7" style="stop-color:#6d4c41"/><stop offset="1" style="stop-color:#6d4c41;stop-opacity:0"/></radialGradient><path d="M93.6 88.7c-4.1-5.4 5-7.5 5-7.5Q96 83.8 97.2 86c1.1 1.8 4.6 2 4.6 2s-4.7 3.7-8.2.7" style="fill:url(#b)"/><radialGradient id="c" cx="55.1" cy="52.1" r="24.9" gradientTransform="matrix(-.087 -1.025 .97 -.064 36.88 128.31)" gradientUnits="userSpaceOnUse"><stop offset=".7" style="stop-color:#6d4c41;stop-opacity:0"/><stop offset="1" style="stop-color:#6d4c41"/></radialGradient><path d="M104.6 58c4 8.7-.2 17.7-4.2 21.5-.6.5-3 2.5-3.5 4.1 0 0-9-11.2-11.8-17.7q-.9-2-1.1-4.2-.1-1.7.8-3.2c.9-1 19.3-1.4 19.3-1.4z" style="fill:url(#c)"/><radialGradient id="d" cx="90.9" cy="52.1" r="24.9" gradientTransform="matrix(.087 -1.025 -.97 -.064 87.74 165.05)" gradientUnits="userSpaceOnUse"><stop offset=".7" style="stop-color:#6d4c41;stop-opacity:0"/><stop offset="1" style="stop-color:#6d4c41"/></radialGradient><path d="M23.2 58c-4 8.7.2 17.7 4.2 21.5.5.5 2.9 2.5 3.4 4.1 0 0 9.1-11.2 11.8-17.7q.9-2 1.2-4.2a5 5 0 0 0-.9-3.2c-.8-1-1.8-.8-3.3-.8-2.7 0-14.7-.6-15.7-.6z" style="fill:url(#d)"/><radialGradient id="e" cx="95.1" cy="33.3" r="19.2" gradientTransform="matrix(-1.168 0 0 .505 161.05 71.07)" gradientUnits="userSpaceOnUse"><stop offset=".7" style="stop-color:#6d4c41;stop-opacity:0"/><stop offset="1" style="stop-color:#6d4c41"/></radialGradient><path d="M63.9 99.4v-8l-27.3-1.9-2.5 2.7s5.9 7.2 21.3 7.2z" style="fill:url(#e)"/><radialGradient id="f" cx="76.2" cy="36.1" r="5.7" gradientTransform="matrix(1.058 .436 .367 -.69 -66.02 76.68)" gradientUnits="userSpaceOnUse"><stop offset=".7" style="stop-color:#6d4c41"/><stop offset="1" style="stop-color:#6d4c41;stop-opacity:0"/></radialGradient><path d="M34.2 88.7c4-5.4-5-7.5-5-7.5q2.6 2.6 1.4 4.8c-1.2 1.8-4.6 2-4.6 2s4.6 3.7 8.2.7" style="fill:url(#f)"/><path d="M90.2 60.4H37.8c-5.6 0-10.2 4.5-10.2 10s4.6 10 10.2 10h52.4c5.6 0 10.2-4.6 10.2-10s-4.6-10-10.2-10" style="fill:#99674f"/><linearGradient id="g" x1="64.2" x2="64.2" y1="52.5" y2="1.7" gradientTransform="matrix(1 0 0 -1 0 128)" gradientUnits="userSpaceOnUse"><stop offset="0" style="stop-color:#f78c1f"/><stop offset=".5" style="stop-color:#f47f12"/><stop offset="1" style="stop-color:#ef6c00"/></linearGradient><path d="M113 91.9C99 77.4 68.9 76.3 64.6 76.3H64c-4.4 0-34.6 1-48.6 15.6-10.2 10.5-8 20.8-5.9 23.8 4 5.7 14.8 8.2 14.8 8.2h79.9s10.7-2.5 14.7-8.2c2.1-3 4.4-13.3-5.9-23.8" style="fill:url(#g)"/><radialGradient id="h" cx="63.9" cy="19.7" r="38.7" gradientTransform="matrix(1 0 0 -.414 0 116.48)" gradientUnits="userSpaceOnUse"><stop offset=".8" style="stop-color:#000"/><stop offset="1" style="stop-color:#000;stop-opacity:0"/></radialGradient><path d="M64 92.7c-27.3 0-36.2 11-36.2 11l11 6.2a2 2 0 0 1 .7 2.4l-.5 1.2L54 124h20l15-10.5-.5-1.2a2 2 0 0 1 .7-2.4l10.8-6.3s-8.7-11-36-11" style="opacity:.2;fill:url(#h)"/><path d="M64 87h-9v10c0 4.5 4.2 8.2 9 8.2s9-3.7 9-8.2V87z" style="fill:#99674f"/><linearGradient id="i" x1="61.8" x2="40.4" y1="9.3" y2="9.3" gradientTransform="matrix(1 0 0 -1 0 128)" gradientUnits="userSpaceOnUse"><stop offset=".5" style="stop-color:#ba8d68"/><stop offset="1" style="stop-color:#a47b62"/></linearGradient><path d="m39 113.5 3.3.2q1.8 0 3.6.6c3.6 1 11.5 3.8 15.8 5q1.7.5 1.8 2.3A2.4 2.4 0 0 1 61 124H34.6z" style="fill:url(#i)"/><linearGradient id="j" x1="67.8" x2="88.3" y1="9.3" y2="9.3" gradientTransform="matrix(1 0 0 -1 0 128)" gradientUnits="userSpaceOnUse"><stop offset=".5" style="stop-color:#ba8d68"/><stop offset="1" style="stop-color:#a47b62"/></linearGradient><path d="m89 113.5-3.3.2q-1.8 0-3.5.6c-3.6 1-11.6 3.8-15.9 5q-1.6.5-1.8 2.3A2.4 2.4 0 0 0 67 124h26.5z" style="fill:url(#j)"/><path d="M64 25.3c-16.7 0-32.1 16.2-32.1 39.5C31.9 88 47.8 99.5 64 99.5S96.1 88 96.1 64.8 80.7 25.3 64 25.3" style="fill:#ba8d68"/><path d="M67.7 83.7h-7.4q-1 .5-.7 1.5c.3 1 1.7 2.3 4.4 2.3s4-1.7 4.4-2.3q.4-1-.7-1.5" style="fill:#99674f"/><ellipse cx="47.6" cy="74.8" rx="4.9" ry="4" style="fill:#49362e"/><ellipse cx="80.4" cy="74.8" rx="4.9" ry="4" style="fill:#49362e"/><path d="M55 65.8c-1-1.2-3-3-7.2-3s-6.3 1.8-7.3 3q-.5.9 0 1.5t2 .4c1.4-.3 2.4-1.1 5.3-1.1 2.8 0 4.5.8 5.3 1.1q1.4.3 2-.4.4-.6-.1-1.5m32.5 0c-1-1.2-3-3-7.2-3s-6.4 1.8-7.3 3q-.5.9 0 1.5t1.9.4c1.4-.3 2.5-1.1 5.4-1.1 2.8 0 4.4.8 5.3 1.1q1.4.3 1.9-.4t0-1.5" style="fill:#613e31"/><path d="M52.6 16 49.9 5.9M37 22.6 30.3 16m60 7.4 7.4-7.4m-22.3 0 2.7-10.1" style="fill:none;stroke:#b0bec5;stroke-width:4;stroke-linecap:round;stroke-miterlimit:10"/><path d="M105.3 44.4c-3.4-11-13.9-11-13.9-11-1.7-4-8.8-18-29.4-11.6q-7.3 2.2-10.6-.1c-3.3-2.6-3-6-3-6s-8.1 2-6.9 9.7a13 13 0 0 0-10.1 6c-2.8 4-2.8 8.2-2.6 10.4-2.4 1-5.8 3.5-6.3 8.8q-.2 2 .3 3.6a12 12 0 0 0 4.8 6.9l3.1 2.1s-.1 7.6 2.4 12.4c0 0 3.2-8.9 5-12.7 7.6.7 17-1.8 24.5-7.3 2.3-1.7 8.1-4.2 11-4.5 7-.6 9.3 6.1 9.3 6.1s5.2-.6 7.5 3.5c1.4 2.6 4 15.2 4 15.2s1.9-5 2.6-10.6c4.6-1.6 8-5.5 8.8-10.3.6-3.1.7-6.8-.5-10.6" style="fill:#543930"/><radialGradient id="k" cx="114.6" cy="41.9" r="31.8" gradientTransform="matrix(.287 .963 .85 -.16 10.23 -49.76)" gradientUnits="userSpaceOnUse"><stop offset=".7" style="stop-color:#6d4c41;stop-opacity:0"/><stop offset="1" style="stop-color:#6d4c41"/></radialGradient><path d="M97 65.3c1.7-.7 10.4-3.5 9.2-16.5a15.5 15.5 0 0 0-14.8-15.4s-.3 1.8-1.2 3.1c-1.2 1.7-4.5 2.3-4.5 2.3C96.5 49.3 96 56.6 97 65.3" style="fill:url(#k)"/><radialGradient id="l" cx="81.4" cy="49.9" r="7.6" gradientTransform="matrix(.933 .65 .807 -1.002 -61.06 13.35)" gradientUnits="userSpaceOnUse"><stop offset=".6" style="stop-color:#6d4c41"/><stop offset="1" style="stop-color:#6d4c41;stop-opacity:0"/></radialGradient><path d="M63.3 21.4c-1 .3-8.2 3-12 .3a7 7 0 0 1-2.8-6C47 16.8 42.2 25.9 52.2 28c4.4 1 7.6-2.2 9.7-4.9z" style="fill:url(#l)"/><radialGradient id="m" cx="185.9" cy="113.5" r="24.9" gradientTransform="matrix(-1.085 -.454 -.359 .607 308.8 52.73)" gradientUnits="userSpaceOnUse"><stop offset=".7" style="stop-color:#6d4c41;stop-opacity:0"/><stop offset="1" style="stop-color:#6d4c41"/></radialGradient><path d="M78.8 21.1c7 2 11 8.5 12.6 12.3.6 1.3-3.2 12.9-27.2-1.7-8.9-5.4-5.7-8.8-4.5-9.2 4.6-1.4 10.6-3.8 19-1.4" style="fill:url(#m)"/><radialGradient id="n" cx="78.6" cy="42.9" r="7" gradientTransform="rotate(8.6 -453.98 -283)scale(1.157 -1.3)" gradientUnits="userSpaceOnUse"><stop offset=".7" style="stop-color:#6d4c41;stop-opacity:0"/><stop offset="1" style="stop-color:#6d4c41"/></radialGradient><path d="M48.4 15.6c-.4.2-8 2.2-6.9 9.8l7.2 2.2c-5.5-7-.2-12-.2-12" style="fill:url(#n)"/><radialGradient id="o" cx="97.2" cy="89.2" r="15" gradientTransform="matrix(-1.129 -.224 -.236 .973 179.5 -30.3)" gradientUnits="userSpaceOnUse"><stop offset=".7" style="stop-color:#6d4c41;stop-opacity:0"/><stop offset="1" style="stop-color:#6d4c41"/></radialGradient><path d="M46 26.3s-6-3.6-13 3.2c-5.4 5.1-4.2 12.3-4.2 12.3s2.3-1.3 7.9-.8z" style="fill:url(#o)"/><radialGradient id="p" cx="64" cy="-9" r="14" gradientTransform="matrix(1.08 .386 .551 -1.683 -24.22 14.9)" gradientUnits="userSpaceOnUse"><stop offset=".6" style="stop-color:#6d4c41;stop-opacity:0"/><stop offset="1" style="stop-color:#6d4c41"/></radialGradient><path d="M22.7 53.9c1.2 6 7.7 9 8.3 9L36.7 41c-11.9-1.4-15.2 6.9-14 12.9" style="fill:url(#p)"/></svg>