<svg xml:space="preserve" width="16" height="16" viewBox="0 0 128 128"><path d="M116 4H12a8 8 0 0 0-8 8v104a8 8 0 0 0 8 8h104a8 8 0 0 0 8-8V12a8 8 0 0 0-8-8" style="fill:#bdbdbd"/><path d="M109.7 4H11.5A7.6 7.6 0 0 0 4 11.5v97.9c0 4.1 3.3 7.5 7.5 7.5h98.1c4.1 0 7.5-3.3 7.5-7.5V11.5c0-4-3.1-7.4-7.2-7.5z" style="fill:#e0e0e0"/><path d="M39.7 12.9c0-2.3-1.6-3-10.8-2.7-7.7.3-11.5 1.2-13.8 4-1.9 2.3-2.3 5.6-2.6 8.4-.2 2.2-2.2 14.9 3.5 11.2q1-.6 1.6-1.8c1.2-2.1 1.9-3.5 3.3-5.6 5.3-8.6 18.8-10.5 18.8-13.5" style="fill:#fff"/><circle cx="63.9" cy="37.9" r="15.2"/><path d="M43.7 68.3c9.5-1 17.7 6 18.5 15q.2 1.5 1.7 1.6 1.5-.1 1.7-1.6a16.7 16.7 0 0 1 20.2-14.7c-.5-8.2-7-11.9-18.9-11.9h-7.6c-9.8 0-16.3 4-17.2 11.8z"/><circle cx="82.2" cy="84.8" r="12.3"/><path d="M70 110.8c-1 0-1.7-1-1.5-1.9 1.4-5 7-9 13.7-9s12.3 4 13.7 9c.2 1-.5 2-1.5 2z"/><circle cx="45.6" cy="84.8" r="12.3"/><path d="M33.4 110.8c-1 0-1.7-1-1.5-1.9 1.4-5 7-9 13.7-9s12.3 4 13.7 9c.2 1-.5 2-1.5 2zm36.3-15.9c-.8-1-2.9-1.4-4.4-.2l-1.4 1.5-1.3-1.5c-1.6-1.2-3.7-.8-4.5.2q-2 2.4.5 5.5C61 103.2 64 106 64 106s3-2.7 5.2-5.5q2.6-3.1.6-5.5"/></svg>