<svg xml:space="preserve" width="16" height="16" viewBox="0 0 128 128"><path d="M116 4H12a8 8 0 0 0-8 8v104a8 8 0 0 0 8 8h104a8 8 0 0 0 8-8V12a8 8 0 0 0-8-8" style="fill:#8e24aa"/><path d="M109.7 4H11.5A7.6 7.6 0 0 0 4 11.5v97.9c0 4.1 3.3 7.5 7.5 7.5h98.1c4.1 0 7.5-3.3 7.5-7.5V11.5c0-4-3.1-7.4-7.2-7.5z" style="fill:#ab47bc"/><path d="M39.7 12.9c0-2.3-1.6-3-10.8-2.7-7.7.3-11.5 1.2-13.8 4s-2.9 8.5-3 15.3c0 4.8 0 9.3 2.5 9.3 3.4 0 3.4-7.9 6.2-12.3 5.4-8.7 18.9-10.6 18.9-13.6" style="opacity:.3;fill:#fafafa"/><radialGradient id="a" cx="-3364.5" cy="2296.5" r="44.5" fx="-3338" fy="2332.2" gradientTransform="matrix(0 -.93 1.07 0 -2389.6 -3096.14)" gradientUnits="userSpaceOnUse"><stop offset=".6" style="stop-color:#fafafa"/><stop offset="1" style="stop-color:#eee"/></radialGradient><path d="M86.4 22.9C70.1 22.9 64 42.5 64 42.5s-5.9-19.6-22.4-19.6c-12.4 0-26.5 9.8-21.3 32.2s43.6 50 43.6 50l.2-.2.1.2s38.3-27.7 43.5-50-8.9-32.2-21.3-32.2" style="fill:url(#a)"/></svg>