<svg xml:space="preserve" width="16" height="16" viewBox="0 0 128 128"><path d="M96.8 69.7c-1.4-2-.2-4.2 2-7.2a23 23 0 0 0 1.3-23.9L99 37h-1.6a3178 3178 0 0 0-72.7 9l-2.2 2a23 23 0 0 0 7.1 23c2.8 2.3 4.5 4.2 3.6 6.4-.8 2.1-4 2.8-4 2.8s1 2 2.9 2.9 3.9.8 5.3.7c0 0 6.6 7 21.2 5.2l8.1-1 8.1-1c14.6-1.7 19.3-10.2 19.3-10.2a10 10 0 0 0 5-2c1.7-1.2 2.2-3.4 2.2-3.4s-3.3.1-4.6-1.7" style="fill:#543930"/><radialGradient id="a" cx="102.8" cy="71.5" r="21.4" gradientTransform="rotate(-7 410.4 253.51)scale(1 .491)" gradientUnits="userSpaceOnUse"><stop offset=".7" style="stop-color:#6d4c41;stop-opacity:0"/><stop offset="1" style="stop-color:#6d4c41"/></radialGradient><path d="m66.8 88-1-8.6 25.7-5.2 2.7 2.6S89.6 85.3 74.9 87z" style="fill:url(#a)"/><radialGradient id="b" cx="81.6" cy="74.7" r="6.3" gradientTransform="rotate(148 88.54 64.36)scale(1 .742)" gradientUnits="userSpaceOnUse"><stop offset=".7" style="stop-color:#6d4c41"/><stop offset="1" style="stop-color:#6d4c41;stop-opacity:0"/></radialGradient><path d="M93.7 73c-4.6-5.4 3.7-8.6 3.7-8.6-1.2 2-1.7 3.7-.6 5.2 1.3 2 4.6 1.8 4.6 1.8s-4 4.5-7.7 1.7" style="fill:url(#b)"/><radialGradient id="c" cx="98.1" cy="92.6" r="27.8" gradientTransform="rotate(258.8 79.2 71.97)scale(1 .833)" gradientUnits="userSpaceOnUse"><stop offset=".7" style="stop-color:#6d4c41;stop-opacity:0"/><stop offset="1" style="stop-color:#6d4c41"/></radialGradient><path d="M100.1 38.6c5 9 2.1 19.1-1.2 23.7-.4.6-2.4 3-2.7 4.9 0 0-10.1-11-13.6-17.9q-1.1-2-1.6-4.3a6 6 0 0 1 .4-3.6c.6-1.2 18.1-3.7 18.1-3.7z" style="fill:url(#c)"/><radialGradient id="d" cx="44.1" cy="92.6" r="27.8" gradientTransform="rotate(87.3 11.05 113.61)scale(-1 .833)" gradientUnits="userSpaceOnUse"><stop offset=".7" style="stop-color:#6d4c41;stop-opacity:0"/><stop offset="1" style="stop-color:#6d4c41"/></radialGradient><path d="M22.7 48a23 23 0 0 0 6.8 22.8c.6.5 3 2.4 3.8 4 0 0 7.2-13.1 8.9-20.5q.6-2.2.5-4.6a6 6 0 0 0-1.2-3.4c-1-1-1.8-.6-3.2-.5-2.6.3-14.2 1-15 1.2z" style="fill:url(#d)"/><radialGradient id="e" cx="48.8" cy="71.5" r="21.4" gradientTransform="rotate(173 47 21.15)scale(1 -.491)" gradientUnits="userSpaceOnUse"><stop offset=".7" style="stop-color:#6d4c41;stop-opacity:0"/><stop offset="1" style="stop-color:#6d4c41"/></radialGradient><path d="m66.9 88-1.1-8.6-26.2 1.1-2 3.2s6.5 7 21.1 5.3z" style="fill:url(#e)"/><radialGradient id="f" cx="27.7" cy="74.7" r="6.3" gradientTransform="rotate(198.1 3.22 61.37)scale(-1 .742)" gradientUnits="userSpaceOnUse"><stop offset=".7" style="stop-color:#6d4c41"/><stop offset="1" style="stop-color:#6d4c41;stop-opacity:0"/></radialGradient><path d="M37.2 80c3.1-6.4-5.8-7.5-5.8-7.5q2.8 2.4 2 4.9c-.9 2.1-4.1 2.8-4.1 2.8s5 3.4 7.9-.2" style="fill:url(#f)"/><linearGradient id="g" x1="16.4" x2="16.4" y1="54.5" y2="84.7" gradientTransform="matrix(1 0 0 -1 0 128)" gradientUnits="userSpaceOnUse"><stop offset=".5" style="stop-color:#ba8d68"/><stop offset="1" style="stop-color:#a47b62"/></linearGradient><path d="M26.3 62.4a38 38 0 0 1-6.1-5.7c-1-1-2.8-2.8-4.7-2.6q-.6 0-1.3.5a45 45 0 0 1-5.7-10q-1-1.6-2.3-1.2c-1.3.4-2 2-1.9 3.8.6 5.9 5.2 13 7 14.7A20 20 0 0 1 15 72.3q0 .8.8 1l9.5 1.5h.2a1 1 0 0 0 1-.6c.5-1.9 2-6.3 2-7.3a5 5 0 0 0-2.2-4.4" style="fill:url(#g)"/><linearGradient id="h" x1="111.8" x2="111.8" y1="55.2" y2="84.2" gradientTransform="matrix(1 0 0 -1 0 128)" gradientUnits="userSpaceOnUse"><stop offset=".5" style="stop-color:#ba8d68"/><stop offset="1" style="stop-color:#a47b62"/></linearGradient><path d="M122 43.5c-.6-.3-1.7 0-2.3 1.3a45 45 0 0 1-5.7 9.8q-.7-.5-1.3-.5c-1.9-.2-3.7 1.6-4.7 2.6q-2.8 3.2-6 5.7a5 5 0 0 0-2.3 4.4c0 1 1.5 5.4 2.1 7.3q.2.7 1 .7h.1l9.5-1.6q.8-.2.9-1.1s-.4-5.4 3.7-10.1a34 34 0 0 0 7-14.8c.2-1.7-.6-3.4-2-3.7" style="fill:url(#h)"/><linearGradient id="i" x1="64.1" x2="64.1" y1="46" y2=".6" gradientTransform="matrix(1 0 0 -1 0 128)" gradientUnits="userSpaceOnUse"><stop offset="0" style="stop-color:#f78c1f"/><stop offset=".5" style="stop-color:#f47f12"/><stop offset="1" style="stop-color:#ef6c00"/></linearGradient><path d="M115.7 111c.2 7.2-5.5 13-12.7 13q-2.1 0-3.9-.8l-1.7-1a10 10 0 0 1-3.8-6.5v8.3h-59v-8.4c-.5 3.3-2.6 6-5.5 7.4q-1.9.9-4 .9c-7.1 0-12.9-5.8-12.7-13l.1-40.5q.1-1.4 1.4-1.5l12.9-.8q1.3.1 1.6 1.4l2.7 19c4.2-3.6 10-6.2 17.9-6.2l30.2.1c7.9 0 13.7 2.6 17.8 6.2l2.7-19q.3-1.2 1.6-1.3l12.9.7q1.3.2 1.4 1.5z" style="fill:url(#i)"/><path d="m99 123.1-1.6-1a10 10 0 0 1-3.8-6.4l-.4-10.7s.6 9.2 5.8 18.1M35 105l-.5 10.6c-.4 3.3-2.5 6-5.4 7.4 5.2-9 5.8-18 5.8-18" style="fill:#da6727"/><path d="M55 78.3v10c0 4.5 3.5 8.2 9 8.2s9-3.7 9-8.2v-10zm31.5-34.5-49.7 6c-5.4.7-9.2 5.9-8.5 11.6s5.6 9.9 11 9.2l49.7-6c5.4-.7 9.2-6 8.5-11.6-.7-5.7-5.7-9.9-11-9.2" style="fill:#99674f"/><path d="M57.3 11c-15.9 2-28.5 20.6-25.5 45 3 24.2 19.5 34.4 35 32.5s29-15.7 26-40S73.1 9.2 57.3 11" style="fill:#ba8d68"/><path d="M71 75.7c.3 2.8-2.2 3.6-5.2 3.8-3 .3-5.6-.2-5.8-3s2.1-4.7 5.2-5c3-.2 5.6 1.3 5.8 4.2" style="fill:#5d4037"/><path d="M67.1 62.4h-.3l-6.4.7-.3.2q-1 .6-.5 1.5c.4.6 1.9 2.3 4.5 2a5 5 0 0 0 3.8-3q.2-1-.8-1.4" style="fill:#99674f"/><ellipse cx="47.5" cy="56.5" rx="4.5" ry="4.7" style="fill:#49362e" transform="rotate(-6.9 47.55 56.45)"/><ellipse cx="77.3" cy="52.9" rx="4.5" ry="4.7" style="fill:#49362e" transform="rotate(-6.9 77.32 52.87)"/><path d="M53.2 47.4c-1-1-3.2-2.5-7-2s-5.6 2.3-6.3 3.5q-.4.9.2 1.5.5.6 1.7.1c1.2-.5 2.2-1.3 4.8-1.7 2.6-.2 4.2.4 5 .5q1.4.1 1.8-.5t-.2-1.4M83 43.8c-1-1-3.2-2.4-7-2-3.8.5-5.6 2.3-6.3 3.6q-.4.8.2 1.4.5.6 1.7.1c.8-.3 2.2-1.3 4.8-1.6s4.2.3 5 .5q1.4 0 1.8-.6t-.2-1.4" style="fill:#613e31"/><path d="M95.4 19.3c-2.6-3-8.1-7-12.6-6.7-1.3-4.2-6.3-7.3-11-8.1A28 28 0 0 0 48.2 10c-.8.6-6 4.4-10.3 2.7-2.6-1.1-3-5-3-5s-7.4 4-3.8 11.9a9 9 0 0 0-7.4 6c-1.6 4.6-.4 8.3.5 10-2 2.2-4.5 6.7-1.8 11.8 2 3.9 8.1 5 8.1 5a34 34 0 0 0 3.3 13.4q.5.4.7-.1c.5-3.7 2-16.7 1.4-18.8 0 0 10-3.4 19-11.8q2.9-2.6 6-4.4c11.8-6.5 15.4 1.6 15.4 1.6s8.4-2.7 12.4 8.9c1.5 4.3 3 11.4 4.2 16.3q.3.6.7 0c.6-2 1.9-6.2 1.8-10.2 0-1.5 3.5-3.8 4.4-10a26 26 0 0 0-4.3-18" style="fill:#543930"/><radialGradient id="j" cx="78.6" cy="107.3" r="32.6" gradientTransform="rotate(245.1 -13.9 9.05)scale(-1 .742)" gradientUnits="userSpaceOnUse"><stop offset=".7" style="stop-color:#6d4c41;stop-opacity:0"/><stop offset="1" style="stop-color:#6d4c41"/></radialGradient><path d="M95.3 47.4c0-1.5 3.5-3.8 4.4-10l.2-2c.5-7.6-2.7-14-4.5-16a19 19 0 0 0-11.6-6.8h-1s.5 2-.1 3.6c-.8 2.1-2.8 2.9-2.8 2.9C92 28.6 92.4 37.8 95.3 47.4" style="fill:url(#j)"/><radialGradient id="k" cx="46.8" cy="142.9" r="8.6" gradientTransform="rotate(201.2 -17.94 79.74)scale(-1 1.186)" gradientUnits="userSpaceOnUse"><stop offset=".6" style="stop-color:#6d4c41"/><stop offset="1" style="stop-color:#6d4c41;stop-opacity:0"/></radialGradient><path d="m50.6 8.4-2.5 1.7c-.8.6-6 4.4-10.3 2.7-2.6-1.1-3-4.8-3-5-1 1.6-3 12.2 6.9 11.7 4.3-.2 6.4-4.3 7.6-7.6z" style="fill:url(#k)"/><radialGradient id="l" cx="139.5" cy="52.6" r="26.3" gradientTransform="matrix(-.979 -.278 -.153 .551 206.9 29.54)" gradientUnits="userSpaceOnUse"><stop offset=".7" style="stop-color:#6d4c41;stop-opacity:0"/><stop offset="1" style="stop-color:#6d4c41"/></radialGradient><path d="M70.6 4.2c6.9 1 10.5 4 12.2 8.4.4 1.3 2.3 13.6-23 2.4-9.5-4.1-7.5-7.7-6.5-8.2 3.9-2 9.6-3.7 17.3-2.6" style="fill:url(#l)"/><radialGradient id="m" cx="43.4" cy="135.1" r="7.9" gradientTransform="rotate(173 2.4 92.52)scale(-1 1.223)" gradientUnits="userSpaceOnUse"><stop offset=".7" style="stop-color:#6d4c41;stop-opacity:0"/><stop offset="1" style="stop-color:#6d4c41"/></radialGradient><path d="M34.8 7.9c-.8.5-7 4.4-3.6 11.8l7.2.2c-7-5.6-3.5-12-3.5-12" style="fill:url(#m)"/><radialGradient id="n" cx="42.3" cy="121.2" r="14.7" gradientTransform="rotate(8.1 597.22 649.15)scale(-1 .936)" gradientUnits="userSpaceOnUse"><stop offset=".7" style="stop-color:#6d4c41;stop-opacity:0"/><stop offset="1" style="stop-color:#6d4c41"/></radialGradient><path d="m35.5 19.8-4.5-.2-1 .3a9 9 0 0 0-6.4 5.7 13 13 0 0 0 .5 10s1.9-2.3 7-3z" style="fill:url(#n)"/><radialGradient id="o" cx="38.8" cy="107" r="15.5" gradientTransform="rotate(180.9 -.88 96.5)scale(-1 1.405)" gradientUnits="userSpaceOnUse"><stop offset=".6" style="stop-color:#6d4c41;stop-opacity:0"/><stop offset="1" style="stop-color:#6d4c41"/></radialGradient><path d="M23.9 35.9a10 10 0 0 0-1.5 11.8c2 3.8 8 4.8 8 4.8l1.8.2-1-20.1a13 13 0 0 0-7 2.9z" style="fill:url(#o)"/></svg>