<svg xml:space="preserve" width="16" height="16" viewBox="0 0 128 128"><path d="M92.3 43.4s3.5-9.8 6.8-14 7.7-7.4 12.8-8.6c-3.5-4.1-13.6-6.2-20.9 1.5s-9.4 19.3-9.4 19.3z" style="fill:#a15d38"/><path d="M104 15s12 1.3 16.4 8.8c2.9 4.9 4.6 15.7.8 28.4-3.6 12.3-1.9 2.7-1.9 2.7l-9.4-5.3s5.2-19.7 2-26.4c-3.6-7.3-10.6-6.8-10.6-6.8z" style="fill:#f7a54b"/><path d="M20 35.4c-1-14 3.3-14.6 5.5-16.6-5.2-3.1-11-1.2-13.6.8-5.6 4.3-.9 26.8-.9 26.8l10.1-4.1s-1-4.8-1.1-6.9" style="fill:#a15d38"/><path d="m15.8 51.3-9.1-1.1 10 55.7c0 10 21 18 46.8 18s46.8-8 46.8-18l9-55.3z" style="fill:#894f36"/><path d="m34.7 67.2 2.7 52.8q-.2 1.3-1.5 1.2l-2.7-.8q-1-.4-1-1.4l-4-52.7zM59 69.8l1.9 53.7q.1.9 1 1h3.8q1 0 1.1-1l-.2-53.7z" style="fill:#e39744"/><path d="m90.1 120 .7-51.4 7.3-1.4-2.9 52q0 .7-.7.9l-3 1a1 1 0 0 1-1.4-1M13.4 63.5l7.6 50.2q.2.7.8 1.1l2.1 1.4q1 .5 1.2-.6l-4.6-50.3z" style="fill:#ce843a"/><path d="M51.8 69.8 52 123q-.1.7-.8.7l-4.1-.4a1 1 0 0 1-.6-.7l-2.3-52.8z" style="fill:#e39744"/><path d="m75.4 68.6 1.3 54.3q.1.9 1 .8l4-.6q.6-.1.8-.8l.4-55zm31.3-2.7-5.4 50.2c0 .6.7.6 1.2.3l1.7-1q.4-.3.4-.7l7.7-50.7z" style="fill:#ce843a"/><path d="M28.9 74.3q-.2 1-1.1 1a29 29 0 0 1-17.2-5.2c-1-1-1.4-2.3-1.4-2.9L9 61.8l19.7 7.4zm30.4 4.1q-.2 1-1.3 1.4a30 30 0 0 1-21.7-2 2 2 0 0 1-1-1.6l-.2-4.5 24.1 2.6zM90.6 76a2 2 0 0 1-1 1.5 20 20 0 0 1-9.1 3.2 36 36 0 0 1-13-.6c-.5-.2-1.2-.9-1.2-1.5v-4.4l24.5-2.7zm26.9-11.8-.3 3q.1.8-.4 1.3c-.5.4-3.5 3-7.6 4.6q-8 2.7-10.5 2.3-1-.1-1-1c0-1.5 0-2.4.2-3.6z" style="fill:#ffba5f"/><path d="M60 99.5q0 1-1 1.3a29 29 0 0 1-12 1.4c-5.4-.5-7.7-2.1-9.6-3.2q-1-.6-1.2-1.6l-.2-4.8q0-1.4 1.6-.9c2.2.8 4 1.9 9 2.3 4.8.4 9.1 0 11.2-.4 1-.2 2 .6 2 1.5z" style="fill:#ffd58a"/><path d="M90.4 96.9a3 3 0 0 1-1.5 2.2 22 22 0 0 1-9.7 3c-5.5.8-10.1-.2-12-.8q-.8-.4-.9-1.4v-4.4c0-1 1-1.7 2-1.5 2 .4 6.3.6 11.1 0 4.9-.7 7-1.8 9.2-2.7 1-.4 1.9 0 1.8 1zM114 86.4q-.3 3.3-1.3 4.1s-1.7 2-5.5 3.4a34 34 0 0 1-10 2.2q-.7-.3-.7-1l.3-4.5c0-1 .8-2 1.6-2 2-.2 7.3-1.8 8.8-2.5a48 48 0 0 0 5.8-3.3q.8-.3 1 .2c.3.8.1 2.4 0 3.4" style="fill:#ffba5f"/><path d="M60.7 120.3c0 .6-.4 1.4-1.5 1.5 0 0-4.7.7-10.7 0-5.6-.5-10-2.7-10-2.7q-1.2-.8-1.3-1.7l-.2-4.8q.1-1.4 1.7-1 2.9 1.6 9.8 2.6 7.8.6 9.8.3 2.2 0 2.2 1.4z" style="fill:#ffd58a"/><path d="M90.2 117.3q-.1 1-1 1.5a25 25 0 0 1-10 3.4c-5.3.7-10 0-11.7-.6q-.8-.4-.9-1.3v-4.5c0-1 1-1.6 1.8-1.5a42 42 0 0 0 20-2.9q1.6-.5 1.8 1zm19.8-14.4q1-.4 1 .7c0 1.7-.3 3.8-2 5.7-.8 1-6 6-12.8 6.5-.8 0-.7-1.3-.7-1.3l.2-3.7a2 2 0 0 1 1.7-2c1-.2 3.9-.9 7.4-2.6 1.6-.8 3-2.1 5.2-3.3" style="fill:#ffba5f"/><path d="M45.2 88q0 1-1.2 1.4c-1.6.4-6.8.3-12-.8s-8.9-4-8.9-4q-1-.7-1-1.6l-.4-5c-.1-1 1-.8 1.9-.3 2 1 2.9 1.7 7.5 2.7s10.2 1.7 12.2 1.5q1.5 0 1.8 1.5zm30.8.8c0 .7-.9 1.2-1.5 1.5-1.8.9-5.7 2.1-11.2 2.1a20 20 0 0 1-10.1-2q-1.1-.5-1.3-1.7V84c0-1 1-1.1 2-.9 2.1.7 4.5 1.2 9.4 1.2 4.8 0 7.9-1 10-1.3 2.3-.3 2.6.6 2.6 1.5z" style="fill:#ffd58a"/><path d="M105 82.3s-.2 1.1-1.2 2a22 22 0 0 1-8.7 3.7A29 29 0 0 1 84 89q-.9-.2-1-1.1l.2-4.6c0-.9 1-1.7 2-1.6a43 43 0 0 0 19-5.5c.8-.6 1.5 0 1.4.8zm11-9.9c0 1.7-.4 5.1-1 6.3q-.6 1-1.8 1.4c-.7.3-3.3 1.5-3.1-.2l.7-4.7c.1-1.4.8-1.8 2-2.3l1.7-.7c1.6-.8 1.5 0 1.5.2" style="fill:#ffba5f"/><path d="M46 108.7c0 1-1.4 1.5-2.3 1.6a33 33 0 0 1-18.9-5.5q-.7-.8-.9-1.8l-.4-4.2q0-1.6 1.6-1c2 1 4.3 2.3 8.6 3.6 4.4 1.3 8.3 1.7 10.2 1.6q2 0 2 1.5zm30.3 1q-.1 1-1.1 1.5a30 30 0 0 1-21.9.3q-1.2-.4-1.3-1.3v-5c0-1 1-1.3 2.1-1a47 47 0 0 0 20.3-.1c1.2-.4 2 .3 2 1.2z" style="fill:#ffd58a"/><path d="M102.7 102.5q0 1-.7 1.9s-3 3-8.2 4.4a25 25 0 0 1-10.3 1q-.8-.1-.8-1.1l.2-4.5c0-1 .8-1.7 1.6-1.7 1.8 0 5.6-.6 9.7-1.9s5.7-2.7 7.5-4q1.5-.8 1.6.9zm9.3-9q.8-.1.8.6 0 3-1 5.4c-.4 1-3.4 3-4.3 3q-1 0-.8-1l.8-4.8q0-1.5 1.4-1.9c.8-.2 2.7-1.2 3-1.3m-99.1-5.3s.1 1.4 1 2.2q1.4 1.4 3.2 2.3a27 27 0 0 0 11.5 3.7c.1 0 1.8-.3 1.8-1L30 91c0-1-.9-1.9-1.7-2a30 30 0 0 1-12.5-4.5L14 83.3c-.4-.4-1.3-1.3-1.6-1.2s-.4.1-.4.9c0 1.4.7 5.2.7 5.2m3.6 14.8c-.5-.2-.7.6-.5 1.2.3 1.6.5 3.7 1.7 5.4 1.8 2.7 10.2 7 12.9 6.8.5 0 1.2-.8 1-1.5l-.2-4.2c0-.9-1-1.6-2-1.9q-2.4-.3-13-5.7m-5.8-29.3c0 1.7.3 4.4 1 5.4.5 1 2.4 2.1 3.7 2.3.5 0 1.2-.4 1.2-1l-.7-4.2c-.2-1.2-.3-1.8-1.3-2-1.5-.5-2.5-1.4-3-1.6q-.9-.4-.9 1m4.1 19.6q-.4-.2-.5.2-.2 3 .7 6.1.4 1.5 1.9 2.1a4 4 0 0 0 1.9.5c.4 0 .9-.2.7-1l-.6-4.3s0-1.7-1.3-2q-1.5-.6-2.8-1.7" style="fill:#ffba5f"/><path d="M5.9 60.1 3.5 49.4h120L121 60c0 7.6-25.8 13.7-57.5 13.7S5.9 67.7 5.9 60" style="fill:#f7a54b"/><ellipse cx="63.5" cy="49.4" rx="60" ry="11.9" style="fill:#ffcc80"/><ellipse cx="63.5" cy="47.7" rx="49.5" ry="7.7" style="fill:#784d30"/><path d="M63.5 40C36.2 40 14 43.4 14 47.7q.2 2.2 7.4 4c8-2.4 23.9-4 42-4 18.3 0 34 1.6 42.1 4q7.2-1.8 7.4-4c0-4.3-22.1-7.7-49.4-7.7" style="fill:#d68b52"/><path d="M63.5 72.7c-22.6 0-47.7-4.2-57.3-11.2 0 0 .5 2.6 3.3 4.3A88 88 0 0 0 43.2 74c.3 1 1.6 3.3 6.7 3.3 4.7 0 6.6-1.4 7.4-2.5h6.2c25.6 0 45-4 53.9-8.8 0 0 1-.6 1.7-1.5s1.3-2.3 1.3-2.3c-3.2 2.8-23.6 10.5-57 10.5" style="fill:#894f36"/><path d="M58 72.8s.7 2.5-10.7 2.4q-5.5.2-7-4.2c-6.1-17.1-11-34.8-13.7-41-5.2-11.8-15.4-11.6-15.4-11.6 1.2-1.1 5-2.3 6.3-2.4 4.8-.5 11.4-1.5 17.1 2.7 8 6.1 20.3 52.2 20.6 52.8s2.3.8 2.8 1.3" style="fill:#ffcc80"/><path d="m11.5 43.4-3 1.3c-1-5.2-3.2-20.3 1.7-25.5 4-4 10-.7 12.7 3 1.7 2.4 3.7 7.7 3.7 7.7S23 22.6 17 20.7c-2.1-.7-4 .2-4.6.8-3 3.2-2.3 14.3-1 22" style="fill:#f7a54b"/><path d="M80.4 97.8c0 1 .4 4-1.2 4.4-.8.2-7.3 1-12-.9q-.9-.3-.9-1.3v-4.4q.2-1.7 1.7-1.6c1.6.2 3.9.3 5.5.3 1.5 0 2.6 0 5.2-.3 1.2 0 1.6 2.4 1.7 3.8m-.4 20.4q.4 3.6-1.7 4.1c-1 .3-8.3.5-10.8-.7q-.8-.5-.9-1.3v-4.5c0-1 1-1.6 1.8-1.5q3 .3 5.5.1l3.8-.2c1.4-.2 2.1 1.5 2.3 4M17.8 87.7q-.2 2.7.3 4.4.3 1.5 1.7 2.2a29 29 0 0 0 8.7 2c.9.2 2-.1 2-1L30 91q0-1.6-1.6-2c-3-.4-5.8-1.5-8.7-2.4q-2-.4-2 1.1m4.1 19.6q0 2.1.6 4.3c.5 2.2 1.7 2.8 3.6 3.6 1.5.6 3.7 1.5 5.1 1.3q1-.1.8-1.3l-.2-4.2q.2-1.3-1.8-2c-3.2-.9-6.1-2.2-7.4-2.7-.4-.2-.7.4-.7 1" style="fill:#ffd58a"/><path d="M82 39.3c0-.2 6.3-22 19.3-22.9 18-1.1 10.6 27.5 10.6 27.5" style="fill:none;stroke:#ffcc80;stroke-width:3.0272;stroke-miterlimit:10"/></svg>