<svg xml:space="preserve" width="16" height="16" viewBox="0 0 128 128"><radialGradient id="a" cx="39.4" cy="80" r="44.3" gradientUnits="userSpaceOnUse"><stop offset=".5" style="stop-color:#ed6c66"/><stop offset="1" style="stop-color:#bb303d"/></radialGradient><path d="M59.7 95.3c1.6-7.9-.7-15.7-6.8-21.7s-14.8-7.3-22.7-5.7C23 69.3 20.1 74 10.5 73.5c0 0-10 13.8 9 33.5 19.7 19 33.4 9 33.4 9-.6-9.6 5.4-13.4 6.8-20.7" style="fill:url(#a)"/><ellipse cx="50.1" cy="77.3" rx="9.2" ry="12.1" style="fill:#b22d2d" transform="rotate(-46.8 50.14 77.3)"/><ellipse cx="51.1" cy="76.3" rx="7.5" ry="11.7" style="fill:#ff8480" transform="rotate(-46.8 51.1 76.28)"/><path d="m58.2 78.7 64-62.2c2.2-2.2 2.8-7-.6-10.3s-8.7-1.3-10.7.7L48.5 70.8c-2 2-1 5.4 1.3 7.4 3.4 3 7.4 1.5 8.4.5" style="fill:#a06841"/><path d="M54.1 107.8c-2 2.5-1.6 6.9-1.6 6.9-12.5 4.9-25.4-5.2-31.1-10.4-4.7-4.3-15-19.8-8.8-30.5 0 0 4.7.3 7.4-1.8 0 0-3.7-3-7.4-3-1.3 0-6-.7-7.8 6C4 77.9.7 92.3 16.7 110.3c17.3 17 30.8 13.2 33.4 12.6 6.3-1.4 6.8-6 7-7.5.6-4.5-3-7.5-3-7.5" style="fill:#ff8480"/><path d="M37 74.8c1.3 2.1 1.1 5.2-.7 6.9-1.2 1.1-2.8 1.5-4.4 2.2-1.9.7-3.6 1.9-5.6 2.6-1.9.6-4.2.8-5.9-.4-3.8-2.6-3-7.3.5-10.9a15 15 0 0 1 9.3-3.6c2.6 0 5.3 1 6.7 3.2" style="opacity:.63;fill:#ff9f9f"/><path d="M66.6 70.6a43 43 0 0 1-12.2 3.6 9 9 0 0 1-6.7-2.3c-.8 2 .1 4.6 2 6.3 3.5 3 7.5 1.5 8.5.5z" style="fill:#874d36"/></svg>