<svg xml:space="preserve" width="16" height="16" viewBox="0 0 128 128"><path d="M32 80 20 64h-8a8 8 0 0 0-8 8v44a8 8 0 0 0 8 8h8l12-16h20V80z" style="fill:#595858"/><path d="M16 64h3v60h-3z" style="fill:#3a3a3a"/><path d="M121.1 73.5 116 76h-16v12h16l5.1 2.6a2 2 0 0 0 2.9-1.8V75.2a2 2 0 0 0-2.9-1.7" style="fill:#595858"/><path d="M64 48h28v28H64z" style="fill:#3f3f3f"/><g style="opacity:.5"><path d="M31.5 80h3v28h-3z" style="fill:#787676"/></g><path d="M40.8 80h3v28h-3z" style="fill:#3a3a3a"/><circle cx="48" cy="36" r="32" style="fill:#504f4f"/><circle cx="101" cy="46" r="22" style="fill:#504f4f"/><path d="M104 120H52a8 8 0 0 1-8-8V76a8 8 0 0 1 8-8h52a8 8 0 0 1 8 8v36a8 8 0 0 1-8 8" style="fill:#504f4f"/><path d="M54 94q1.8.2 2 2c.2 1.8-.9 2-2 2s-2-.9-2-2 .9-2 2-2m0-2a4 4 0 1 0 0 8 4 4 0 0 0 0-8m0 10q1.8.2 2 2c.2 1.8-.9 2-2 2s-2-.9-2-2 .9-2 2-2m0-2a4 4 0 1 0 0 8 4 4 0 0 0 0-8" style="fill:#3a3a3a"/><path d="M64 107a3 3 0 0 1-3-3v-8a3 3 0 0 1 3-3h32a3 3 0 0 1 3 3v8a3 3 0 0 1-3 3z" style="fill:#504f4f"/><path d="M96 94.5q1.3.2 1.5 1.5v8q-.2 1.3-1.5 1.5H64q-1.3-.2-1.5-1.5v-8q.2-1.3 1.5-1.5zm0-3H64c-2.5 0-4.5 2-4.5 4.5v8c0 2.5 2 4.5 4.5 4.5h32c2.5 0 4.5-2 4.5-4.5v-8c0-2.5-2-4.5-4.5-4.5" style="fill:#3a3a3a"/><circle cx="48" cy="36" r="22.5" style="fill:#504f4f"/><path d="M48 15a21 21 0 1 1 0 42 21 21 0 0 1 0-42m0-3a24 24 0 1 0 0 48 24 24 0 0 0 0-48" style="fill:#3a3a3a"/><circle cx="101" cy="46" r="12.5" style="fill:#504f4f"/><path d="M101 35a11 11 0 1 1 0 22 11 11 0 0 1 0-22m0-3a14 14 0 1 0 0 28 14 14 0 0 0 0-28" style="fill:#3a3a3a"/><circle cx="48" cy="36" r="8" style="fill:#636262"/><circle cx="101" cy="46" r="8" style="fill:#636262"/><linearGradient id="a" x1="54" x2="54" y1="34.1" y2="30.1" gradientTransform="matrix(1 0 0 -1 0 127.89)" gradientUnits="userSpaceOnUse"><stop offset="0" style="stop-color:#ff1744"/><stop offset="1" style="stop-color:#d50000"/></linearGradient><circle cx="54" cy="96" r="2" style="fill:url(#a)"/><linearGradient id="b" x1="54" x2="54" y1="26.1" y2="22.1" gradientTransform="matrix(1 0 0 -1 0 127.89)" gradientUnits="userSpaceOnUse"><stop offset="0" style="stop-color:#76ff03"/><stop offset="1" style="stop-color:#64dd17"/></linearGradient><circle cx="54" cy="104" r="2" style="fill:url(#b)"/></svg>