<svg xml:space="preserve" width="16" height="16" viewBox="0 0 128 128"><linearGradient id="a" x1="4.1" x2="108.1" y1="18.3" y2="18.3" gradientTransform="matrix(1 0 0 -1 0 128)" gradientUnits="userSpaceOnUse"><stop offset="0" style="stop-color:#e3e3e3"/><stop offset="1" style="stop-color:#c9c9c9"/></linearGradient><path d="M56.3 95.6H56c-25.5 0-52 7.3-52 25v3.3h104v-3.2c0-16.8-26.2-25-51.8-25" style="fill:url(#a)"/><path d="M65.2 90H47v10c0 4.6 3.7 8.2 8.3 8.2h1.6c4.6 0 8.3-3.6 8.3-8.1z" style="fill:#c48e6a"/><linearGradient id="b" x1="67.6" x2="64.1" y1="36.4" y2="21.7" gradientTransform="matrix(1 0 0 -1 0 128)" gradientUnits="userSpaceOnUse"><stop offset="0" style="stop-color:#0053ab"/><stop offset=".4" style="stop-color:#0068bf"/><stop offset="1" style="stop-color:#008ee3"/></linearGradient><path d="M71.5 95.1c1.5 2.2 1.7 7-2.6 11.2-2.5 2.4-6.7 2.7-10 2.6q-1.1 0-1.8-.8c-.3-.7.2-1.7.8-2.1q1-.5 2.1-.8c1.6-.5 4-3.3 4.5-7.4.4-2.7.1-4 .2-4.8 0-.6 5.7.5 6.8 2.1" style="fill:url(#b)"/><linearGradient id="c" x1="38.4" x2="59.1" y1="31.7" y2="17.8" gradientTransform="matrix(1 0 0 -1 0 128)" gradientUnits="userSpaceOnUse"><stop offset="0" style="stop-color:#008ee3"/><stop offset="1" style="stop-color:#0053ab"/></linearGradient><path d="M41.4 106.6a21 21 0 0 0 17.7 3.6c.9-.3 1.9-.7 2-1.6 0-1.2-1.6-2.4-2.8-2.6-3-.4-6.3-1.9-8.2-4.2-1.7-2-2.5-3.6-2.4-7.4 0-1.5-6.7-.2-8.4.7-2.6 1.4-4 7 2 11.5" style="fill:url(#c)"/><linearGradient id="d" x1="-317.8" x2="-317.8" y1="47.4" y2="32.6" gradientTransform="matrix(.812 -.008 .008 -.812 317.57 146.42)" gradientUnits="userSpaceOnUse"><stop offset="0" style="stop-color:#0053ab"/><stop offset="1" style="stop-color:#008ee3"/></linearGradient><path d="M56.9 113.5c.2 4.4 2.5 5.8 1.1 9.4q3.5-2.3 4.4-6.4c1-4 .4-5.3-.3-7.8a4 4 0 0 0-1.1-2c-2.7-2.3-4.2 5-4.1 6.8" style="fill:url(#d)"/><linearGradient id="e" x1="62.8" x2="72.1" y1="20.6" y2="14.3" gradientTransform="matrix(1 0 0 -1 0 128)" gradientUnits="userSpaceOnUse"><stop offset="0" style="stop-color:#0053ab"/><stop offset="1" style="stop-color:#008ee3"/></linearGradient><path d="M66 114c4.3 1.9 6.7.4 9.5 5 .3-3.3-1-6.5-3-9s-5-4.2-8.1-5.2q-1.3-.5-2.7-.3c-4.4 1 .3 7.8 4.2 9.5" style="fill:url(#e)"/><ellipse cx="59.4" cy="107.3" rx="5.3" ry="3.4" style="fill:#1565c0" transform="rotate(-11.8 59.4 107.35)"/><path d="M83.4 50.4H28.8c-5.9 0-10.7 5.2-10.7 11.4s4.8 11.5 10.7 11.5h54.6c6 0 10.7-5.2 10.7-11.5s-4.8-11.4-10.7-11.4" style="fill:#c48e6a"/><path d="M56.1 11c-17.4 0-33.5 18.7-33.5 45.5C22.6 83 39.2 96.3 56 96.3S89.6 83 89.6 56.5c0-26.8-16-45.4-33.5-45.4" style="fill:#e0bb95"/><ellipse cx="39.7" cy="58.8" rx="4.9" ry="5.1" style="fill:#5d4037"/><ellipse cx="72.5" cy="58.8" rx="4.9" ry="5.1" style="fill:#5d4037"/><path d="M60 68h-7.7q-1.1.5-.7 1.7c.4 1.2 1.7 2.7 4.5 2.7s4.3-2 4.6-2.7q.4-1.2-.7-1.6" style="fill:#c48e6a"/><path d="M64.6 76.1a26 26 0 0 1-16.8 0c-1.8-1-3.7.6-3 2.3s6.5 5.4 11.5 5.4 10.5-3.8 11.3-5.4c.7-1.7-1.1-3.4-3-2.3" style="fill:#6d4c41"/><path d="m109.3 66.8-3.5 12.6 1 .2 3 1.1 1 .5 1 .4 4-13z" style="fill:#a7a9ac"/><path d="m111.6 79.3-1-.4q-1.4-.8-3.4-1.3l-1-.2-13 46.4h5.7l13.5-44.2z" style="fill:#603913"/><linearGradient id="f" x1="100.3" x2="99.8" y1="39.1" y2="-6.4" gradientTransform="matrix(1 0 0 -1 0 128)" gradientUnits="userSpaceOnUse"><stop offset="0" style="stop-color:#ffdbb5"/><stop offset="1" style="stop-color:#a97c50"/></linearGradient><path d="M105.5 89q-4.6 0-10 2.2a32 32 0 0 0-16.3 17.5 35 35 0 0 0-3 15.2h43.1c10.3-16.7 2.2-34.9-13.8-34.9" style="fill:url(#f)"/><path d="M99 99a5 5 0 0 0-3.7-3.5c-2.1-.1-3.2 1.7-3.7 3.4q-1 2.9.7 5.3a3.2 3.2 0 0 0 5 0 6 6 0 0 0 1-2.1q1-1.4.7-3.1" style="fill:#00aeef"/><path d="M110.3 93.9c-1.7-1.1-4.3-.1-5.8 1-1.7 1.1-3 3.4-2 5.5.9 2 3.4 2.6 5.3 1.8 1.7-.7 3.7-2.6 3.6-4.5q1-2.3-1-3.8" style="fill:#00c853"/><path d="M115.5 103.2q-2.7 0-4.8 1.7c-1.4 1.1-2.4 2.8-1.5 4.6.9 1.6 2.8 2.2 4.5 2q2.5-.3 4-2.4.5-.7.6-1.6l.3-1c.2-2-1.3-3.2-3.1-3.3" style="fill:#fff200"/><path d="M111.9 116.5c-.8-1.3-2.4-1.7-3.8-2-1.6-.3-3.5-.2-4.7 1-1.5 1.4-1.2 3.6.4 4.7l1.2.6c1.5 1.1 3.4.8 5 .2 1.2-.5 2.3-1.6 2.3-2.9q.2-1-.4-1.6" style="fill:#ef4136"/><path d="M119.5 68.2a7 7 0 0 1-1.3 2.4 7 7 0 0 1-5.6 3q-1 0-2-.4a6.4 6.4 0 0 1-4.6-5.9q0-1.6.8-3.7.8-1.8 2-3.4l1.4-2.3c.3-.6 1.4-3.3 1.9-4.9q.3-.8 1.2-1t1.4.5c2.6 3.2 6.9 8.5 4.8 15.7" style="fill:#00aeef"/><path d="M118.2 70.6a7 7 0 0 1-5.6 3q-1 0-2-.4a6 6 0 0 1-4.4-4.7c4.2 2.7 4.7-5.4 9.2-5.3 3.9 0 0 6.5 2.8 7.4" style="fill:#d1d3d4"/><path d="M56.2 4c-45.4.3-36.1 52.2-36.1 52.2l3 7.7c0 .3.6.3.7 0 1-4.4 4.4-19.8 6.2-24.5a6 6 0 0 1 6.8-3.8A111 111 0 0 0 56 37.4h.2c7.8 0 15-1 19.4-1.8a6 6 0 0 1 6.8 3.8c1.7 4.7 5.2 20 6.2 24.4q.2.5.7 0l3-7.6s9.3-52-36.2-52.2" style="fill:#ab872f"/><radialGradient id="g" cx="56.2" cy="80.9" r="38.1" gradientTransform="matrix(1 0 0 -1.128 0 138.37)" gradientUnits="userSpaceOnUse"><stop offset=".8" style="stop-color:#bfa055;stop-opacity:0"/><stop offset="1" style="stop-color:#bfa055"/></radialGradient><path d="M92.4 56.2s9.3-52-36.2-52.2l-6 .4h-.3C11.7 9.2 20.1 56.2 20.1 56.2l3 7.6c0 .4.6.4.7 0 1-4.4 4.4-19.7 6.2-24.4a6 6 0 0 1 6.8-3.8A111 111 0 0 0 56 37.4h.2c7.8 0 15-1 19.4-1.8a6 6 0 0 1 6.8 3.8 352 352 0 0 1 6.2 24.5q.2.5.7 0z" style="fill:url(#g)"/><path d="M32.1 50.7c3-4.2 9.8-4.6 13.7-1.4q1 .8 1.7 2c.4 1.2-.9 2.2-2 1.9l-2.3-.8a11 11 0 0 0-3.6-.6c-1.8 0-3 .2-4.7 1-.7.2-1.3.7-2 .3-1-.3-1.3-1.5-.8-2.4m46.1 2.4-.9-.4a12 12 0 0 0-8.7-.2c-.8.3-1.9 1-2.8.7-1.3-.4-1.3-1.8-.5-2.8q1.3-1.5 3.3-2.4c2.9-1.2 6.4-1 9.1.6q1.6.8 2.4 2.1c.8 1.3-.4 3-2 2.4" style="fill:#ab872f"/></svg>