<svg xml:space="preserve" width="16" height="16" viewBox="0 0 128 128"><linearGradient id="a" x1="64" x2="64" y1="102" y2="26.2" gradientTransform="matrix(1 0 0 -1 0 128)" gradientUnits="userSpaceOnUse"><stop offset="0" style="stop-color:#757575"/><stop offset=".5" style="stop-color:#504f4f"/></linearGradient><path d="M87.9 102H41.5a2 2 0 0 1-2-2v-5.8q0-.8.5-1.4l24.5-26.6q5.3-6 7.7-10.1 2.2-4 2.2-8.1 0-5.4-3-8.7c-3-3.3-4.7-3.3-8-3.3a12 12 0 0 0-9.5 3.7Q51.1 43 50.6 48c0 1-1 1.9-2 1.9h-8.5a2 2 0 0 1-2-2.2 24 24 0 0 1 3-10.2q3.1-5.5 9-8.5c5.9-3 8.3-3 13.3-3q11 0 17.2 5.5A19 19 0 0 1 87 46.6q0 5.7-3.2 11.8a67 67 0 0 1-10.4 14L58.3 88.6a2 2 0 0 0 1.5 3.4h28c1.2 0 2 1 2 2v6c0 1-.8 2-2 2" style="fill:url(#a)"/></svg>