<svg xml:space="preserve" width="16" height="16" viewBox="0 0 128 128"><path d="m73.2 57 9.3-14.1q2.1-3 5.7-3.9a17 17 0 0 0 9.4-5.2c5-5.7 7.7-9.5 7.7-9.5l-2.3-2s-5.9 5.7-8.4 7.9a14 14 0 0 1-8.9 3.4 2.7 2.7 0 0 1-2.9-2.7l-.2-6.2a5 5 0 0 1 1-3.1l2.4-3-2-1.3-3.2 3.8c-.8.9-2.2 1.2-3.2.6l-6-3.5-.9 1.8 5.3 3.7q1.7 1.3 1.7 3.5v8.4L64.3 50.2l8.8 6.9zM53 21.2l-.4-9.7q0-2.8 1.7-5l.9-1.1-2.1-1.3-3.9 3.8a9 9 0 0 0-2.8 6.3l-.5 13zm6.6 57.2L39.9 66.6l2-11.7-2.6-1.8-5.4 11.7a4 4 0 0 1-2.9 2l-6.9.5q-3 .1-5.4-1.7L6.7 56l-2 1.9 10.2 10.7c.5.6.2 1.5-.6 1.6l-7.6 1 .3 2.2 22.6-1c3.4-.1 6.8 1.1 9.3 3.4a423 423 0 0 0 18 15.8c0-.5 2.8-13.2 2.8-13.2z" style="fill:#6c4a41"/><path d="M53.7 121.3c-.3 3.4 23.5 3.8 23.1-.1-.2-1.7-.5-14.7-.5-14.7a9 9 0 0 1 2.2-5.8l18.2-21.3q2.2-2.6 5-4.6l8.2-5.8c2-1.3 4.8-.9 5.9-.3s6 2.2 6 2.2l1.6-2.2-7.3-4.3c-3.1-1.8-7.3-1-9.6.3-2.7 1.5-7 4.2-7 4.2l-.5-8.3q0-1.9 1-3.5l6.7-9-2.2-1.6s-6.4 5.5-7.8 7.1c-.8 1-3 2.1-4.4.6-1.2-1.3-4.5-4.2-4.5-4.2l-1.7 1.4 5.5 6.8q.8 1 .8 2.1v11.6L75.9 88.7c-.3-14 3.9-14.3 3.7-22.1-.2-5.5-4.5-9.8-6.6-12.1a470 470 0 0 0-14-13.9c-.9-.9-2.3-2.2-2.6-4.2l-1-5.8c-.5-2.6.6-4.9 2.1-7 1.3-1.8 5.5-7.9 6.8-9.4s3.2-3.4 5.6-4.1 9.5-3.7 9.5-3.7l-.8-1.9L67 7.4c-1.4.4-3.5 1-6 3.6S49.1 21.6 47.9 22.7c-1.3 1.1-3.5 3.2-3.5 6.1s.7 9.5.7 9.5L34 37.5c-2.1 0-5.5-1.3-6.9-2.8L19 25.8l-2.6 2.1 6.4 9.7-15 3.7.4 2.3L20.4 42a67 67 0 0 1 13.5 1.4c6.5 1 10.9.8 16.9 8.1l7.9 10.2a10 10 0 0 1 1.4 9.5c-2.6 7-6.5 10.9-5.8 21.5.5 6.7-.5 26.4-.7 28.3z" style="fill:#875c51"/></svg>