<svg xml:space="preserve" width="16" height="16" viewBox="0 0 128 128"><path d="M55 12.6c3.6-3.7 10.1-6 15-4.1 5.3 2 7.5 6.5 7.3 11.7a14 14 0 0 1-1 5l-.7 1.5c-.5 1.3 2 3.2 2 4.8 0 1.1-2.5 1.4-2.8 1.6-1.1.8-.6 6-7.1 5.2-2.6-.3-2.8-.5-3.6-.5-1.6-.2-2.7 2.2-2.7 2.2s-2.8 5.7-6.8 3.6c-4.6-2.5-3.4-5.7-3.4-5.7s3.5-4.4 2.1-9.2c-1.2-4.5-.4-13.7 1.8-16.1" style="fill:#ba8d68"/><path d="M73.6 35.6q-1.4 0-2.4-1.2c-.7-.8 0-1.3.9-.7q.9.5 2 .6z" style="fill:#5d4037"/><ellipse cx="71.4" cy="26.7" rx="1.9" ry="1.2" style="fill:#49362e" transform="rotate(-77.3 71.43 26.68)"/><path d="M72.9 24.2c1.1.5 1.5-.3 1.2-1-.2-.4-.9-1-2.3-.8-1.3 0-2 .7-2.4 1.1q-.6.7-.1 1c.4 0 2.2-1 3.6-.3" style="fill:#613e31"/><radialGradient id="a" cx="50.5" cy="48.2" r="17.1" gradientTransform="translate(0 2)" gradientUnits="userSpaceOnUse"><stop offset=".4" style="stop-color:#f78c1f"/><stop offset=".5" style="stop-color:#f47f1e"/><stop offset=".8" style="stop-color:#eb5d1b"/><stop offset="1" style="stop-color:#e64a19"/></radialGradient><path d="m36.1 65.4.6-2.3 8-16.9c1.6-3.6 4.6-8 9.2-9.3q1.3-.4 2.6-.4c1.5 0 4.1.4 5.5 3.1l2.3 5-2.4 8.7-4.3 12.3-.4 1.8z" style="fill:url(#a)"/><path d="M35.1 72.2V69l1.5-5.5L58 66.3l15.8 3v3z" style="fill:#7c7c7c"/><radialGradient id="b" cx="63.4" cy="42.4" r="40.4" gradientTransform="matrix(1 0 0 -.46 0 105.15)" gradientUnits="userSpaceOnUse"><stop offset=".5" style="stop-color:#ff9800"/><stop offset=".8" style="stop-color:#fa8b00"/><stop offset="1" style="stop-color:#f57c00"/></radialGradient><path d="M7.6 73.2h111.6s-.1 17.8-10.1 25H27s-13.1-10-19.5-25" style="fill:url(#b)"/><path d="M124 72.1c0 2.5-2 4.5-4.5 4.5H8.5a4.5 4.5 0 1 1 0-9h111c2.5 0 4.5 2 4.5 4.5" style="fill:#e65100"/><path d="M4 93.6h120V124H4z" style="fill:#039be5"/><path d="M124 85.4c-2.6 0-4.8 6-10.7 6s-11.7-7-17.3-7-9 6.1-14.7 7h-2.6c-5.7-.9-9-7-14.7-7-3.8 0-9 6.1-14.6 7h-2.7c-5.7-.9-9-7-14.7-7s-9 6.1-14.6 7h-2.8c-4.2-.7-7.7-6-10.6-6v20.9c3.5-1.8 6.4-5.3 10.6-6h2.8c5.7.9 9 7 14.6 7s9-6.1 14.7-7h2.7c5.7.9 9 7 14.6 7s9-6.1 14.7-7h2.6c5.8.9 9 7 14.7 7s9-6.1 14.7-7h2.6c4.3.6 7.2 4.2 10.7 6z" style="fill:#29b6f6"/><path d="m60.6 98.8 22-22.2 9-9h-9.4l-9 9-14.8 15z" style="opacity:.2;fill:#3d3d3d"/><path d="M50.8 71h49v6.7h-49z" style="fill:#ffa726" transform="rotate(-45.3 75.26 74.34)"/><path d="m90.4 63.8-8.9-.5 9.9-10.2 5.3 4.3z" style="fill:#ea960f"/><path d="M60.8 88.8a8 8 0 0 0-11.6.1l-9 9A8.2 8.2 0 1 0 52 109.6l9-9a8 8 0 0 0-.1-11.7" style="fill:#ffd54f"/><linearGradient id="c" x1="70" x2="87.7" y1="82.2" y2="72.3" gradientTransform="matrix(1 0 0 -1 0 128)" gradientUnits="userSpaceOnUse"><stop offset="0" style="stop-color:#a47b62"/><stop offset=".5" style="stop-color:#ba8d68"/></linearGradient><path d="M98.7 53.6c-.4-.5-1.9-1-2.5-1.3q0-.5-.2-.9l-1.4-1.7-.7-.4h-1v.1l-3.5 2.1-.3.2-11.7-.4-10.7-7.5-.7-.4-4.2 6 12 8.5h.2l.2.2.4.2.3.1.3.1.4.1h.7l10 .4h-.1v.1s4.7 3.3 7 3.6l1.7.2q.8.1 1.1-.4c.2-.2.1-.9.2-1 .3-.5 1-.4 1.2-1v-1.3q-.2-.5.3-.7.7-.2.8-.8l.1-.3-.2-1-.1-.3q0-.5.3-.9.3-.2.4-.9 0-.4-.3-.7" style="fill:url(#c)"/><path d="M61.6 37.8a6 6 0 0 0-8.1 1.3 6 6 0 0 0 1.3 8.1l9.6 7 6.8-9.5z" style="fill:#e55d1a"/><path d="M51.4 12.7a8 8 0 0 1 6-3.8C58 7.7 61 3.4 68.7 6.2Q71.4 7.4 73 9l1.3 1.2q.7.4 1.6.4c1.4-.1 1.3-2.1 1.3-2.1s4.5 1.7 1.6 5.9c1.5 1 1.9 2.7 1.9 4.3 0 2.2-1.5 4-3.7 4.6 0 0 1-3.4-3.9-4-1.5-.3-3.2-.4-4.5-1.2L67.1 17h-.2c-2 .6-.4 5.4-3 7.6q-.8.4-.8.2l-.6-1.4q-.6-1.7-1.7-1.8c-2.4.1-2.8 4.3-.2 5.8.2.1-1.3 4.6-7 3.5-2.9-.5-3.5-3.2-3.5-3.2s1.2.6 1.7-.4q.3-.9-.9-2.4a5 5 0 0 1-.2-6.2c-.3-.8-.9-3.6.7-6" style="fill:#543930"/><radialGradient id="d" cx="98.2" cy="98.8" r="7.6" gradientTransform="rotate(170.4 82.38 82.23)scale(1 1.44)" gradientUnits="userSpaceOnUse"><stop offset=".5" style="stop-color:#6d4c41;stop-opacity:0"/><stop offset="1" style="stop-color:#6d4c41"/></radialGradient><path d="M50.7 18.8s.4 2.3 4.3 2.6c1.5.3 3 4.5.2 6.5-2.4 1.8-5.1 0-5.1 0h1c.4 0 .7-.5.7-.5q.3-.9-1-2.4a5 5 0 0 1-.1-6.2" style="fill:url(#d)"/><radialGradient id="e" cx="99.1" cy="106.5" r="7.7" gradientTransform="rotate(198.4 68.77 79.53)scale(1 1.262)" gradientUnits="userSpaceOnUse"><stop offset=".5" style="stop-color:#6d4c41;stop-opacity:0"/><stop offset="1" style="stop-color:#6d4c41"/></radialGradient><path d="M51.4 12.7a8 8 0 0 1 6-3.8q-.6 1.2-.3 2.6s.1 1.5 1 2.7q-1.5 1.6-2.3 3.6c-.6 1.2-1.2 2.4-.8 3.6q-1.3 0-3.1-1c-1.1-.7-1.5-2.3-1.6-3.6a7 7 0 0 1 1-4" style="fill:url(#e)"/><radialGradient id="f" cx="90.6" cy="109.1" r="15.8" gradientTransform="rotate(199.5 72.79 51.56)scale(1 .752)" gradientUnits="userSpaceOnUse"><stop offset=".5" style="stop-color:#6d4c41;stop-opacity:0"/><stop offset="1" style="stop-color:#6d4c41"/></radialGradient><path d="M57 11.5C56.7 9 58.4 7.1 60.6 6c2.6-1.2 5.6-.8 8.2.2Q71.4 7.4 73 9l1.3 1.1q.7.6 1.6.5c1.4-.2 1.3-2.2 1.3-2.2s4.5 1.8 1.6 6q2 1.7 1.9 4.3c0 2.2-1.5 4-3.7 4.6 0 0 1-3.4-3.9-4.1q-2.4-.1-4.5-1.1c-1.2-.8-1.4-1.5-2.9-1.7s-3.6 0-5.1-.6c-3-1-3.4-4.3-3.4-4.4" style="fill:url(#f)"/><radialGradient id="g" cx="100" cy="97.9" r="8.5" gradientTransform="rotate(176.4 78 43.87)scale(1 .643)" gradientUnits="userSpaceOnUse"><stop offset=".5" style="stop-color:#6d4c41;stop-opacity:0"/><stop offset="1" style="stop-color:#6d4c41"/></radialGradient><path d="M55.2 27.9c1.2-.9 1.8-2.6 3.6-3.3q.2 1.8 1.8 2.9c.2 0-1.3 4.6-7 3.5-3-.5-3.5-3.2-3.5-3.2s2.7 1.9 5.1 0" style="fill:url(#g)"/></svg>