<svg xml:space="preserve" width="16" height="16" viewBox="0 0 128 128"><path d="m36.6 124 48.6-69.4-8-15.6C70.5 43.6 56 53.7 53.8 55q-.9.6-1.3 1.6l-19.2 50c-2.9 7.5-3 10.6-2.2 12.8.6 2 5.5 4.5 5.5 4.5" style="fill:#82aec0"/><path d="M112.7 5.7C102.5 1 90 6.7 84.5 18.5a30 30 0 0 0-2.1 12.1c0 2.8-4.3 7-5.7 8.1q-.3.4-.1.9L85 54.2q.4.6 1 .1l1.7-1.6a14 14 0 0 1 10.6-3c9.1 1.2 18.8-4.4 23.3-14.3 5.4-11.8 1.4-25-8.9-29.7m-15.4 34c-6.2-2.8-8.5-10.8-5.4-17.8 3.2-7 10.8-10.5 17-7.7s8.5 10.7 5.3 17.8c-3.2 7-10.8 10.5-17 7.7" style="fill:#de3e31"/><circle cx="64" cy="62.9" r="4.5" style="fill:#a8e3f0"/><path d="m49.2 65.2 11.4 24.4 3.9-5.4-14.6-21zm28.6-.2 2.6-3.6-1.9-5.2c-.6-2-1-3-2.2-3.6l-11.6-5-1.2.8z" style="fill:#2f7889"/><path d="M91.4 124 42.8 54.5l7.8-15.8L74.2 55q.9.4 1.3 1.5l19.2 50c2.9 7.5 3 10.6 2.2 12.8-.7 2-5.5 4.5-5.5 4.5" style="fill:#82aec0"/><path d="m60 76.2-3-1.3 34.4 49s3.7-4-1-11.2L69.4 84a21 21 0 0 0-9.4-7.8" style="fill:#b9e4ea"/><circle cx="64" cy="62.9" r="4.5" style="fill:#b9e4ea"/><path d="M6.4 35.4c4.5 9.9 14.2 15.5 23.3 14.2 1.6-.2 6-.4 10.6 3.1l1.7 1.6q.6.5 1-.1l8.4-14.6q.3-.5-.1-.9c-1.4-1.2-5.7-5.2-5.7-8 0-2 0-7.5-2.1-12.2C38 6.8 25.5 1 15.3 5.7s-14.3 18-9 29.7m7.4-3.4c-3.2-7-.8-15 5.3-17.8 6.2-2.8 13.8.6 17 7.7 3.2 7 .8 15-5.4 17.8-6.1 2.8-13.7-.7-17-7.7" style="fill:#de3e31"/><path d="M92.7 10.8c-.6.7-1 1.7-.4 2.6s3.4 1.1 9.4-3c1.6-1.2 1.2-2.8-.8-3.1a9 9 0 0 0-8.2 3.5m-75 .9a13 13 0 0 0-5.6 5.6c-.6 1-2 3.7-3.5 2.5-.9-.8-.8-2.6-.2-4.3q1.8-5.2 6.2-7.4c1-.5 3.6-1.4 5-.8 2.8 1.1.3 3.1-1.9 4.4" style="fill:#ff7555"/></svg>