<svg xml:space="preserve" width="16" height="16" viewBox="0 0 128 128"><path d="M81.9 35.5c-9.1-1-14.7 2.8-16.4 3.7l-1.3.6-1.3-.6c-1.7-1-7.3-5-16.3-3.8C28.8 38 12 56.2 4.9 67.3c-1.7 2.6-1 6 1.7 7.7 3.1 2 9.8 3.3 15.7 5.2 17.9 5.8 48.1 24.1 68.9 19.6 23.7-5.2 27.5-22.7 30.7-24.8 0 0 3.3-5.1 1.6-7.7-7-11.1-22.2-29.6-41.6-31.7" style="fill:#ef4d8f"/><path d="M73.5 74.3a140 140 0 0 0-31 0c-6.7.7-14.5.5-16.1-1.6-1.6-2.2.1-3.5 6.7-4.9 20.3-4.2 39.8 6.4 40.4 6.5" style="fill:#c51162"/><path d="M41 65c-11 5-26.4 5.3-26.1 3.8.3-1.1 7.4-1.3 15.2-4.8a80 80 0 0 1 34-8.8c14.6 0 26.3 5.9 35 9.8a60 60 0 0 0 11.5 3.9c1.2.3 1.4 2 .3 2.6l-14.1 7.2s-7.5 3.2-14 0S47.9 62 41 65" style="fill:#3e2723"/><path d="m101.3 66-2.1-1c-8.8-3.9-20.5-9.8-35-9.8A80 80 0 0 0 30 64l-1.4.6s2.3 8.2 36 8.2 36.6-6.9 36.6-6.9" style="fill:#bdbdbd"/><path d="M101.3 66a147 147 0 0 0-37.2-7.2c-14.3 0-34.9 5.6-35.4 5.8 0 0 2.3 8.2 36 8.2s36.6-6.9 36.6-6.9" style="fill:#fff"/><path d="M79.9 83.3c2.5.8 6.6 2 10.2 2.1 1.4.1 4.5-.1 4.4 2-.2 3-10.8 7-19.2 4.4-8.6-2.6-14.4-9-11.3-10.3s10.2-.2 15.8 1.8" style="fill:#ff80ab"/></svg>