<svg xml:space="preserve" width="16" height="16" viewBox="0 0 128 128"><path d="M92.5 59.6a19.3 19.3 0 0 0-23-24.7" style="fill:none;stroke:#b0bec5;stroke-width:5;stroke-linecap:round;stroke-miterlimit:10"/><path d="M93.4 98.5S69.8 92.3 52.2 109L38 122.7c-4 4-14.4 3-24.4-7.1S1.9 93.5 6 89.5c.6-.6 7.3-6.6 14.8-14.5 8-8.5 6.5-20.3 7-27.6.7-8.8 2.3-12.2 2.3-12.2z" style="fill:#8cafbf"/><ellipse cx="61.8" cy="66.8" rx="17.9" ry="44.8" style="fill:#54646d" transform="rotate(-45 61.76 66.84)"/><path d="M80.7 63.6s-17.3 13.7-8.1 32.7L40.4 69.7 28 42.9l2-7.7 10.2-2.5L56 40.5l18.5 13.7z" style="fill:#2c3640"/><path d="m44 70 8.6-6 12.1 12.1-5.2 9.3C50.1 78 43.9 70 43.9 70" style="fill:#8cafbf"/><ellipse cx="58.7" cy="70.1" rx="4.1" ry="8.6" style="fill:#b2dfec" transform="rotate(-45 58.67 70.09)"/><path d="M23.6 79c3.3-4.3 3.6-6.5 4.7-12 3.2 7 8.4 14 14.5 18.8-2.7.9-3-1-5.5.4q-3 1.6-5.9 4c-4.2 3.3 2-2-1.8 1.7l-6 6.4s-3.3-.6-4.3-2.1c-.6-1-2.1-8.1-2.1-8.1z" style="fill:#b2dfec"/><path d="M23.6 122.8h-.2v-.1l.3.2zm30-15.1" style="fill:#8cafbf"/><path d="M20.5 122.2h-.2zm.8.2-.8-.2zm-1.3-.2-.3-.1zm.3 0H20zm2.3.4h-.4zm.6.1-.6-.1zm-1.2-.2-.7-.1zm.2 0H22zM55 106.7l-1.4 1zm-31.8 16h.1zm-3.5-.6h-.1zm3.7.6h.2z" style="fill:#738a97"/><path d="m37.3 123.3-.2.2zm-2 1-.3.2zm17.1-15.5-.2.1zm-28.8 14c9.3 1.5 12.2-2 12.2-2 3.3-3.8 10-10.4 12.8-13.2A45 45 0 0 1 32 97.2a55 55 0 0 1-12.5-21C12.5 83.7 6.5 89 6 89.6c-4 4-2.5 16 7.6 26.1a29 29 0 0 0 10.1 7.3z" style="fill:#427687"/><path d="m42.8 118-2.4 2.4zm-6.7 6-.8.3q.5 0 .8-.3m7.6-7 8.5-8zm-13.2 7.8h-.3zm3 0H33zm-1.2.1h-.4zm2.7-.4" style="fill:#54646d"/><path d="M35.8 120.8s-3 3.5-12.2 2h.1q3.6 1.7 6.5 2h3.3l.7-.2.8-.1.3-.2 1.8-.8.2-.2.7-.6 2.4-2.3 2.4-2.4 1-1 8.4-8 .2-.2q-2-.5-3.8-1.2c-2.8 2.8-9.5 9.4-12.8 13.2" style="fill:#2a4e56"/><path d="M71.6 98.6 68.5 97l-11.7-7c.6 1.8-.2 2.8 2.6 5.2 2 1.7 1.5 5-.9 6a28 28 0 0 0-8.6 5l-1.3 1.4q1.8.7 3.8 1.2l1.2-1 1.3-1.1c8.9-6.9 14.1-2.5 25-5.3 0 0-3.7-.7-8.3-2.8m-3.3.9 1.2-.3zm-4.8 1.9 1.8-.8zm2.3-1 1.6-.6z" style="fill:#738a97"/><path d="M20 83.4 7.8 96s-.4 5.6 4.8 11.8L26 94.6c-3.7-4.6-5.4-9-6.1-11.2" style="fill:#8cafbf"/><path d="M95.3 100.3c-8.3 8.3-29 .1-48-19-19.1-19-27.3-39.7-19-48s27 1.8 46.1 20.9 29.1 37.9 20.9 46.1M31.9 37c-5.1 5.1 1.4 23.1 19 40.7s35.6 24.1 40.7 19-1.4-23.1-19-40.7S37 31.9 31.9 37" style="fill:#b3d0e0"/><path d="M32 53.6c1 2 2.3 7.3 12.2 19 .3.5 1.7 2.3.8 3.2-.6.6-1.6-.2-2.9-1.4-4.8-4.8-9.4-11-12.8-18.1-1.9-4 1.4-5.5 2.7-2.7" style="fill:#b2dfec"/></svg>