<svg xml:space="preserve" width="16" height="16" viewBox="0 0 128 128"><linearGradient id="a" x1="63.9" x2="63.9" y1="123.8" y2="123.8" gradientTransform="matrix(-1 0 0 1 128 0)" gradientUnits="userSpaceOnUse"><stop offset="0" style="stop-color:#757575"/><stop offset="1" style="stop-color:#424242"/></linearGradient><path d="M63 123.8h2.2z" style="fill:url(#a)"/><path d="M49.2 11.9c4.5.4 25 .4 29.6 0 21-2.1 40.8 24 40.8 42.5-.1 38-31.3 69.6-54.6 69.6h-2C39.7 124 8.5 92.4 8.4 54.4c0-18.5 19.7-44.6 40.8-42.5" style="fill:#424242"/><path d="M81 16.3c3 .9 6 2.9 8.2 5.3.5.5 3.3 6.4 4 9.2s2-.4 1.7-3q-.6-5.7-4.3-10.3c-5.3-6-12.6-6.7-20.2-7.1A102 102 0 0 0 47 11.8c-9.1 1.4-14.6 8.6-16.3 16.7-2 9.5 3.5 17 10 21.1 2.7 1.7 8 4 9.2 3.6 1.9-.8-.4-1.6-1-2-4.3-2.3-7.3-3.8-9.5-7C37.2 40.6 31 25 44 18.3c9.6-4.8 35.5-2.5 37-2.1" style="fill:#757575"/><ellipse cx="64" cy="32.2" rx="29.3" ry="22.2" style="fill:#212121"/><path d="M82.6 75.4C92 86.1 93 90.7 95.1 91.4c2.5.6 4-.2 6-3 3.9-4.9 9-13.3 9.8-21 .6-6.8-.9-9.4-4-15.4-1-1.8-2.6-4-4.7-3.4-.9.2-19.6 26.8-19.6 26.8m-37.3.1c-9.4 10.7-10.5 15.3-12.6 15.8-2.5.7-3.9-.1-6-2.8-3.8-5-9-13.4-9.8-21.2-.6-6.6.9-9.3 4-15.3 1-1.8 2.7-4 4.7-3.4.9.2 19.7 27 19.7 27" style="fill:#212121"/><path d="m36.3 87.2 10.6-13.8c1.1-1.4 1-3.4-.3-4.7a57 57 0 0 1-18-31.6 3.8 3.8 0 0 0-6-2.4c-3.6 2.6-7.5 8-7 19.4A58 58 0 0 0 31 87.4c1.5 1.7 4 1.6 5.4-.2" style="fill:#9e9e9e"/><path d="M27 36.7c.6-2 1.4-.7 1.6.4 1 6.5 4.7 18.7 17.9 31.6a25 25 0 0 1-12.4-10c-7.7-11.7-7.7-19.9-7.1-22" style="fill:#bdbdbd"/><path d="M21.3 70.3c2.5 4.3 5.6 9.3 8.6 12.5.4.5 3 2.8 5 .3 1-1 7-11 10.4-14 2.1-1.7 3.1 2.6 1.6 4.3L36.3 87.2a3.5 3.5 0 0 1-5.4.2 58 58 0 0 1-15.2-33.2c0 .1 2.7 11.1 5.6 16m70.4 17L81 73.4c-1-1.4-.9-3.4.4-4.7a57 57 0 0 0 18-31.6 3.8 3.8 0 0 1 6-2.4c3.6 2.6 7.5 8 6.9 19.4A58 58 0 0 1 97 87.4a3.5 3.5 0 0 1-5.3-.2" style="fill:#757575"/><path d="M101 36.7c-.7-2-1.5-.7-1.7.4-1 6.5-4.6 18.7-17.9 31.6a25 25 0 0 0 12.4-10c7.8-11.7 7.8-19.9 7.1-22" style="fill:#9e9e9e"/><path d="M106.7 70.3A78 78 0 0 1 98 82.8c-.4.5-3 2.8-5 .3-.9-1-6.8-11.2-10.4-14-2.3-1.7-3.2 2.6-1.6 4.3l10.7 13.8a3.3 3.3 0 0 0 5.3.2c5-5.5 14.4-18 15.3-33.2-.1.1-2.7 11.1-5.6 16" style="fill:#616161"/><path d="M64 4a25.4 25.4 0 0 1 25.1 29.4c-4.3 8.8-14 15-25.1 15s-20.8-6.2-25.1-15q-.3-2-.3-4C38.6 15.4 50 4 64 4" style="fill:#e94539"/><path d="M58.4 23.6c-1.8 2-4.2 3.9-7 4.2C42.6 29 44.2 18.5 48 14c3-3.4 9-6.4 12.3-1.7 2.6 3.7.7 8.2-1.9 11.3" style="fill:#e57373"/></svg>