<svg xml:space="preserve" width="16" height="16" viewBox="0 0 128 128"><path d="M76.1 124.2H59.5V4h12q1 0 1.8.8l2.4 2.7q.4.4.4 1z" style="fill:#a3673e"/><path d="M72.5 124.2H56V5.4Q56 4 57.3 4h13.9q1.2.1 1.3 1.4z" style="fill:#bf855e"/><linearGradient id="a" x1="66" x2="66" y1="81.6" y2="96.6" gradientUnits="userSpaceOnUse"><stop offset=".2" style="stop-color:#424242"/><stop offset=".9" style="stop-color:#424242;stop-opacity:0"/></linearGradient><path d="M76.1 83H55.9v15h20.2z" style="fill:url(#a)"/><linearGradient id="b" x1="66" x2="66" y1="0" y2="13.5" gradientTransform="matrix(-1 0 0 -1 132 23.02)" gradientUnits="userSpaceOnUse"><stop offset=".2" style="stop-color:#424242"/><stop offset=".9" style="stop-color:#424242;stop-opacity:0"/></linearGradient><path d="M55.9 22h20.2V7H55.9z" style="fill:url(#b)"/><linearGradient id="c" x1="63.5" x2="63.5" y1="90.3" y2="28.3" gradientUnits="userSpaceOnUse"><stop offset=".4" style="stop-color:#9e9e9e"/><stop offset="1" style="stop-color:#bdbdbd"/></linearGradient><path d="M108.5 89.6H22.3l-1-.2-4-2.3q-.8-.5-.9-1.4V14q.1-1 1-1h89.1q.8 0 1.4.4l1.9 1.5q.8.7.8 1.6v71.1a2 2 0 0 1-2 2" style="fill:url(#c)"/><path d="M106.3 86.7H17.5a1 1 0 0 1-1-1V14q0-.9 1-1h88.8q.9.1 1 1v71.7q-.1.9-1 1" style="fill:#f5f5f5"/><path d="M40.2 38.3h43.1M40.7 60.8h43.1" style="fill:none;stroke:#616161;stroke-width:9;stroke-linecap:round;stroke-miterlimit:10"/><linearGradient id="d" x1="61.9" x2="61.9" y1="23.2" y2="-6" gradientUnits="userSpaceOnUse"><stop offset=".2" style="stop-color:#f5f5f5"/><stop offset="1" style="stop-color:#bdbdbd"/></linearGradient><path d="M106.3 26.6H17.4a1 1 0 0 1-1-1V14q.1-1 1-1h88.9q.9 0 1 1v11.6q-.1.9-1 1" style="fill:url(#d)"/><linearGradient id="e" x1="49.9" x2="49.9" y1="34.7" y2="5.5" gradientTransform="rotate(-90 49.86 49.83)" gradientUnits="userSpaceOnUse"><stop offset=".5" style="stop-color:#bdbdbd;stop-opacity:0"/><stop offset="1" style="stop-color:#bdbdbd"/></linearGradient><path d="M30 14v71.7q0 .9-1 1H17.4a1 1 0 0 1-1-1V14q.1-1 1-1H29q1 0 1 1" style="fill:url(#e)"/></svg>