<svg xml:space="preserve" width="16" height="16" viewBox="0 0 128 128"><radialGradient id="a" cx="64.1" cy="114.2" r="32.8" gradientTransform="matrix(1 0 0 -1 0 128)" gradientUnits="userSpaceOnUse"><stop offset="0" style="stop-color:#fff"/><stop offset=".4" style="stop-color:#f8f8f8"/><stop offset="1" style="stop-color:#e8e8e8"/></radialGradient><path d="M103.6 42.7c0-.7.3-38-39.6-38.6-40 .7-39.6 38-39.6 38.6 0 24.5-11 52.3 1.8 71.8 3.7 5.6 21.3 6.8 21.3 6.8h33s17.6-1.2 21.3-6.8c12.7-19.5 1.8-47.3 1.8-71.9" style="fill:url(#a)"/><linearGradient id="b" x1="20" x2="107.9" y1="65.3" y2="65.3" gradientTransform="matrix(1 0 0 -1 0 128)" gradientUnits="userSpaceOnUse"><stop offset="0" style="stop-color:#bdbdbd"/><stop offset=".1" style="stop-color:#fff;stop-opacity:0"/><stop offset=".9" style="stop-color:#fff;stop-opacity:0"/><stop offset="1" style="stop-color:#bdbdbd"/></linearGradient><path d="M103.6 42.7c0-.7.3-38-39.6-38.6-40 .7-39.6 38-39.6 38.6 0 24.5-11 52.3 1.8 71.8 3.7 5.6 21.3 6.8 21.3 6.8h33s17.6-1.2 21.3-6.8c12.7-19.5 1.8-47.3 1.8-71.8" style="fill:url(#b)"/><linearGradient id="c" x1="64" x2="64" y1="32.1" y2="5.7" gradientTransform="matrix(1 0 0 -1 0 128)" gradientUnits="userSpaceOnUse"><stop offset="0" style="stop-color:#651fff"/><stop offset=".7" style="stop-color:#5914f2"/><stop offset="1" style="stop-color:#530eeb"/></linearGradient><path d="M64.1 96c-25.5 0-52 7.3-52 25v3h104v-3c0-16.7-26.3-25-51.9-25" style="fill:url(#c)"/><linearGradient id="d" x1="63.6" x2="63.6" y1="2" y2="29" gradientTransform="matrix(1 0 0 -1 0 128)" gradientUnits="userSpaceOnUse"><stop offset=".1" style="stop-color:#391184"/><stop offset=".2" style="stop-color:#431a8e"/><stop offset=".5" style="stop-color:#572ca5"/><stop offset=".8" style="stop-color:#6336b2"/><stop offset="1" style="stop-color:#673ab7"/></linearGradient><path d="M45 124h36.9l7.8-13 14.8-6.5S91 95.5 64 96c-30.2.6-41.3 8.7-41.3 8.7l16.6 7.3z" style="fill:url(#d)"/><linearGradient id="e" x1="64.2" x2="63.9" y1="20.5" y2="45.5" gradientTransform="matrix(1 0 0 -1 0 128)" gradientUnits="userSpaceOnUse"><stop offset="0" style="stop-color:#9fa8da"/><stop offset=".3" style="stop-color:#929cd5"/><stop offset=".8" style="stop-color:#7986cb"/></linearGradient><path d="M89.1 87.3c-5.5-10.4-21-1.7-21-1.7L64 83.7l-4.1 2s-15.5-8.8-21 1.5c-2.9 5.4-1.4 12.4 6.9 18.4S64 119.8 64 119.8s10-8.2 18.3-14.2 9.7-13 6.8-18.3" style="fill:url(#e)"/><path d="M43.5 124h3.4c-.4-1.3-4.9-10.4-5.8-12.4l-.4-.5-4.2-1.8-4.3-1.7-9.1-2.9a93 93 0 0 0 16.2 8zm-6-10.2c-7.3-4-10.6 1.7-10.6 1.7s3.7 1.5 5.9 1c3.4-.6 4.7-2.7 4.7-2.7m8.4 4.5c5-5.8 1.6-9.9 1.6-9.9s-2.4 1.2-2.9 3.9a8 8 0 0 0 1.3 6m-7.2-9.6c.3-6.7-4-7.6-4-7.6s-1 2.4 0 4.6c1.2 2.4 4 3 4 3M84.5 124l4.2-11.3a92 92 0 0 0 16.2-8s-6.3 1.8-9.2 3l-4.2 1.6-4.1 1.8-.5.5c-1 2-5.5 11.1-5.8 12.3zm6-10.2c7.3-4 10.6 1.7 10.6 1.7s-3.8 1.5-5.9 1c-3.3-.6-4.7-2.7-4.7-2.7m-8.4 4.5c-5-5.8-1.6-9.9-1.6-9.9s2.2 1.2 2.9 3.9c.8 3.5-1.3 6-1.3 6m7.2-9.6c-.3-6.7 4-7.6 4-7.6s1 2.4 0 4.6c-1.2 2.4-4 3-4 3" style="fill:#ede7f6"/><path d="M64 90h-9v5.8q0 4.2 3.1 7.1l6 5.3 5.8-5.3q3.1-2.9 3.2-7.1V90zm23.5-39.6h-47l-20-11.9s.1 14.6 4 22.2c6 11.6 16 12.6 16 12.6V73h47v.3s10-1 16-12.6c3.9-7.6 4-22.2 4-22.2z" style="fill:#99674f"/><path d="M64 16c-17.2 0-33.1 12.8-33.1 40A40 40 0 0 0 56 94.8a24 24 0 0 0 7.9 1.5q3.6 0 7.8-1.5A40 40 0 0 0 97.1 56c0-27.2-15.9-40-33.1-40" style="fill:#ba8d68"/><radialGradient id="f" cx="-48.3" cy="250.1" r="48" gradientTransform="matrix(.796 0 0 -.796 102.47 199.49)" gradientUnits="userSpaceOnUse"><stop offset="0" style="stop-color:#fff"/><stop offset=".4" style="stop-color:#f8f8f8"/><stop offset="1" style="stop-color:#e8e8e8"/></radialGradient><path d="M101.9 42.7S102.9 7 64 7 26 42.7 26 42.7 26.4 78 29.3 84s7.2 5.7 7.2 5.7-2-16.5-2.3-29c0-3-.9-13.7 5.2-15 22.4-5.1 34.5-15 34.5-15 4.7 5.9 14.1 12.2 17.8 14.9 3 2.2 2.6 11.2 2.5 15l-3 29s4.7.4 7.6-5.6c3-6 3-41.3 3-41.3" style="fill:url(#f)"/><path d="M67.8 68h-7.6q-1 .5-.7 1.7a5 5 0 0 0 4.5 2.6 5 5 0 0 0 4.5-2.6q.4-1.2-.7-1.6" style="fill:#99674f"/><ellipse cx="47.8" cy="58.9" rx="4.9" ry="5" style="fill:#49362e"/><ellipse cx="80.3" cy="58.9" rx="4.9" ry="5" style="fill:#49362e"/><path d="M55 49.8c-1-1.2-3-3-7.3-3s-6.3 1.8-7.2 3q-.5 1 0 1.6t1.9.4c1.4-.2 2.5-1.2 5.3-1.2 2.9 0 4.5.9 5.4 1.2q1.4.3 1.9-.4t0-1.6m32.5 0c-1-1.2-3-3-7.2-3s-6.4 1.8-7.3 3q-.5 1 0 1.6t1.9.4c1.4-.2 2.5-1.2 5.4-1.2 2.8 0 4.4.9 5.3 1.2q1.4.3 1.9-.4t0-1.6" style="fill:#613e31"/><path d="M72.3 76.1a25 25 0 0 1-16.6 0c-1.8-1-3.6.6-2.9 2.3s6.4 5.3 11.2 5.3 10.5-3.7 11.2-5.4c.8-1.6-1-3.2-2.9-2.2" style="fill:#5d4037"/><radialGradient id="g" cx="64.2" cy="63.9" r="59.5" gradientTransform="matrix(0 1 .818 0 11.84 -.1)" gradientUnits="userSpaceOnUse"><stop offset=".9" style="stop-color:#fff;stop-opacity:0"/><stop offset="1" style="stop-color:#bdbdbd"/></radialGradient><path d="M103.6 42.7c0-.7.3-38-39.6-38.6-40 .7-39.6 38-39.6 38.6 0 8.2-1.2 16.8-2.4 25.3-2.3 16.9 86.3 16.9 84 0-1.2-8.5-2.4-17.1-2.4-25.3" style="fill:url(#g)"/><path d="m103.7 38.4-3.4.6c-4 .2-7.6-1.6-11.4-3.5a110 110 0 0 1 13.4-2.7c.4 0 0-3-.2-3-.6-.1-3.6-.2-4.3-.1-4.2.2-9.2 1.6-14 3.4a22 22 0 0 0-9.1-1.4C69.3 32.1 64 36 64 36s-5.4-3.8-10.7-4.2q-4.4-.3-9.1 1.4a48 48 0 0 0-14-3.4h-4.3c-.3 0-.6 3.1-.2 3 .5 0 9.8 1.6 13.4 2.8A24 24 0 0 1 27.7 39l-3.4-.6c-.3 0-.2 1.8 0 1.8 0 0 1 1.4 3.4 1.5 4.5.3 9-1.7 12.8-3.6l2.6-1.2q6.1 2.4 11.4 5.4l9.4 6h.1v.1l9.5-6.1q5.3-3 11.4-5.4l2.6 1.2a26 26 0 0 0 12.8 3.7c2.4-.2 3.3-1.6 3.3-1.6.3 0 .4-1.9 0-1.8m-39.5 4.8h-.4C61 41.4 55.2 38 48.5 35q2.3-.4 4.5-.3c6 .5 10.9 4.7 10.9 4.7s4.8-4.1 10.9-4.7q2.2-.1 4.5.3c-6.7 3-12.5 6.4-15.2 8.2" style="opacity:.36;fill:#212121"/><path d="M64 42.2c-4.8-3.3-21.4-13-33-13.6l-4 .1c-.4 0-1.2.5-1.6 2q-.3 2.1.5 2.1l3.9-.1c11.1-.3 27.1 9.4 33 13.7l1.2 1zm0 0c4.8-3.3 21.4-13 33-13.6l4 .1c.3 0 1.2.5 1.6 2q.3 2.1-.5 2.1l-3.9-.1c-11.1-.3-27.1 9.4-33 13.7l-1.2 1z" style="fill:#97b4c2"/><linearGradient id="h" x1="73.3" x2="73.3" y1="80.6" y2="88.1" gradientTransform="matrix(-1 0 0 -1 137.35 128)" gradientUnits="userSpaceOnUse"><stop offset="0" style="stop-color:#651fff"/><stop offset=".7" style="stop-color:#5914f2"/><stop offset="1" style="stop-color:#530eeb"/></linearGradient><path d="M64 42.2s3.3-2 5.9-2.3c1.4 0 3.8 1 3.8 1L64 47.4l-9.7-6.5s2.4-1 3.9-1c2.5.2 5.8 2.3 5.8 2.3" style="fill:url(#h)"/><path d="M64 34.8s-5.2-3.7-10.4-4.1q-5.1-.4-10.7 2.2l-3.1 1.5c-3.7 2-7.2 3.7-11.1 3.6l-3.6-.7c-.3 0-1.2 0-1.4 1.2s.9 1.8 1.1 1.8q1.4.5 3.5.7h1c4.3 0 8.1-2 11.8-4l3.1-1.4a18 18 0 0 1 9.2-2c5.9.6 10.6 4.8 10.6 4.8zm0 0s5.2-3.7 10.4-4.1q5.2-.4 10.6 2.2l3.2 1.5c3.7 2 7.2 3.7 11.1 3.6l3.6-.7c.3 0 1.2 0 1.4 1.2s-.9 1.8-1.1 1.8q-1.4.5-3.5.7h-1c-4.3 0-8.1-2-11.9-4l-3-1.4a18 18 0 0 0-9.2-2c-5.9.6-10.6 4.8-10.6 4.8z" style="fill:#97b4c2"/></svg>