<svg xml:space="preserve" width="16" height="16" viewBox="0 0 128 128"><path d="M4.3 11.5c-1.7 3 1 9.3 14 12 16.4 3.2 34-3.4 47.2-1 7.6 1.2 12.3 3 15 4.2l2.2 1L86.1 17s-9.4-5-22-5.7-22 3.6-34.6 3.3C10.7 14 7 6.8 4.3 11.5m97.9 34.2 10.4-4.2S118 49 120 63.7c2.3 17.6-3.2 29.3-1.5 39.2s5.7 15.3 5.4 17.7-2 4.9-4.2 3.7-9.2-10.2-9.5-22.6c-.4-13.7 3.5-25.2.3-37.4a46 46 0 0 0-8.2-18.6" style="fill:#966738"/><path d="m85.3 16.6-4.5 10.2s6 2.6 12.6 8.7c5.8 5.3 10 11.7 10 11.7l9.2-5.7S107.8 33 100.8 27a64 64 0 0 0-15.5-10.3" style="fill:#d29f6c"/><path d="m102.7 21-69 70.6.3 3.3 3 .5 69.7-70.5z" style="fill:#f3c976"/><path d="m105.7 17.6-3.6 4 4 4 4.1-3.8s6.7 1.2 7.4.8c1-.6 6.8-18.5 6.5-19-.5-.8-6.6 1.7-10.5 3a47 47 0 0 0-8.8 3.7c-.7 1 1 7.3 1 7.3" style="fill:#858585"/><path d="M115.4 122h-.6L31.5 99.4a2 2 0 0 1-1.4-1.4L9 21v-1.2l2.6-8.5 3.8 1.2-2 9.3 20.2 73.5 81 22.7 6.1-7 1.5 4-5.2 6.3a2 2 0 0 1-1.5.7" style="fill:#b8ced4"/><path d="m33.8 92.2 3.2 3.2s-3.4 4-4 4.1c-.2 0-3-2.2-2.8-2.7s3.6-4.6 3.6-4.6" style="fill:#5d6265"/><path d="M51.7 73.8 41.5 84.6c-3.8 4-7.4 7.8-7.6 7.8-.6 0-6.2-5.2-6.2-6.4S36 77.5 40 74.7c8.3-5.8 11.7-1 11.7-1m3.1 3.3L43.5 88.5C40.1 92 37 95 37 95.3c0 .4 4.6 5.8 5.1 5.8.9 0 9.7-9.4 12.5-14.1 4-7 .2-10 .2-10" style="fill:#db0d2a"/></svg>