<svg xml:space="preserve" width="16" height="16" viewBox="0 0 128 128"><path d="M42.2 20.6c-8.7 0-28.6 13.2-35.5 43.4s.3 48.5 22.5 50.3c21.8 1.6 28.3-13.6 29.2-18.9 3-15.3.3-40.8-2.7-54.7s-5-20.1-13.5-20.1" style="fill:#fea8a7"/><path d="M73.3 93c1.2 5.2 1 9.5 3.5 14 3.1 5.4 7.9 6.3 7.9 6.3l-4.2-23.7-9.7-10.1-1.6 2.5s3 6.3 4 11" style="fill:#fed0b0"/><path d="M86.5 21.5c8.5 0 28.2 13.1 35 43 6.9 30-.3 48.1-22.2 49.8-7 .6-12.4.3-16.5-1.8-4-3.3-2.5-11-4.3-19.3-.9-4-5.2-8.8-9.3-11.3a198 198 0 0 1 4-40.5c3-13.8 5-19.9 13.3-20" style="fill:#fea8a7"/><linearGradient id="a" x1="38.3" x2="32.9" y1="33.9" y2="72" gradientUnits="userSpaceOnUse"><stop offset=".3" style="stop-color:#fea8a7"/><stop offset=".5" style="stop-color:#fea4a2"/><stop offset=".8" style="stop-color:#fe9895"/></linearGradient><path d="M8 58.9s5.7 8.3 22 12.3 29.6 1.7 29.6 1.7-1-16.1-2.4-24.2S40.9 34 38 34l-17.1.4s-4.4 5.1-7.1 10.5c-3 5.7-5.8 14-5.8 14" style="fill:url(#a)"/><linearGradient id="b" x1="43.7" x2="15.6" y1="72.6" y2="96.2" gradientUnits="userSpaceOnUse"><stop offset=".4" style="stop-color:#fea8a7"/><stop offset=".6" style="stop-color:#fea3a1"/><stop offset=".8" style="stop-color:#fe9895"/></linearGradient><path d="M4.6 76.5s8.6 9.4 13 16 13.2 21.8 13.2 21.8 10 1 17.7-4.2c5-3.4 8.4-5.5 10.1-15.7S39.8 79 36.6 78.9c-3.3-.1-19-8.8-21-11S7.5 61 7.5 61l-1.7 6.8z" style="fill:url(#b)"/><linearGradient id="c" x1="85.3" x2="106.5" y1="61.8" y2="94.4" gradientUnits="userSpaceOnUse"><stop offset=".4" style="stop-color:#fea8a7"/><stop offset=".8" style="stop-color:#fe9b99"/><stop offset=".9" style="stop-color:#fe9895"/></linearGradient><path d="M80.5 108.5s6.4-.3 20.4-10.8 21.8-27.5 21.8-27.5l-1.6-7.3c-.4-1.6-20.7 1-26 2.7-5.2 1.8-25.7 6.5-25.7 6.5l-.2 10c.3 0 7 5.3 8.2 8.6a32 32 0 0 1 2 11.5 45 45 0 0 0 1 6.3" style="fill:url(#c)"/><path d="M21.2 54.8c-1-.7-2.5-2.2-1.7-3.2s3.1.3 4.3 1.2l3 2.4 8.6-1-8.3-7.2c-1.4-1.2-4.2-3.4-3-4.7s3.5.8 4.7 2l9.4 7.3-2.3-7.7c-.6-1.8-2.2-5.4-.5-6 1.7-.7 2.7 2.9 3.6 4.8l5.8 13.4s1.9 2.2 3.7 1.1c1.7-1 11.2-11.2 11.2-11.2l-.2-34.7s1.7-.7 4-.8 4.5.8 4.5.8l.4 34.9s9 10.7 11 11 3.5.8 4.4 0c1-.7 7.3-11 7.8-12.8s-1.3-7 0-7.8 2.2 1.4 2.7 3l1 3.3 3.3-.8c1.2-.4 2.8-.4 3 .5s-3 2.5-4.4 3.5-3.6 1.7-3.2 3.2 3.3 1 5.4 1.1q3.2 0 3.4 1.5c0 1.1-3.2 1.7-5.7 1.8h-6s-1.8 3.1-1.8 4 5.2 1.5 8.3 2 10.2 1 10 2.7c0 1.6-2.4 1.4-4 1.6-1.7.1-5.8-1-5.7 0s3.8 4.3 2.3 5.3-3.7-2.3-5.1-3.7l-2.4-2.2s-12.1 0-12.2.6 7.7 10.7 9 11.1c1.5.5 8.3 1.7 10.8 2 2.4.5 4.8 1.2 4.6 2.4-.1 1.2-3 1-5 1h-5.4s6.5 5.8 8 7.4 7 6.3 5.2 7.6-9.3-6.2-11-7.6-6-4.5-6.4-4.2 2.6 5.4 3.3 6.6 3.4 5.2 1.4 6c-1.6.8-6-7.3-6.6-7.3s-.8 8.3-2.2 7.9-1.5-3.3-1.7-8.4c-.2-5 .8-7.8-.3-9s-5.7-9.2-7.5-10.6S64 57.3 64 57.3s-11.3 10.1-13.7 12-6.8 5.5-7.3 6.5-1.1 4-1 5.1c0 1.2 3 8.2 3.7 9.3.5 1.2 2.4 5.3.9 5.8s-3.4-3.6-4.1-4.8l-2.7-4.4s-1.7 7.5-2.4 9.6c-.8 2-2.4 8.7-4.3 7.4-2-1.2-1-4.2 0-7.4s1.7-5.9 1.6-6.3-6.5 3.2-7.7 4c-1.2 1-4.7 3-5.6 1.6-.8-1.5 3-4 4.4-4.9l10.4-6.6.6-3.6.8-4.2-5.9.2-4.4 4.4c-.9 1-3 3.7-3.9 2.3s3-5.6 3-5.6-2.8-.2-4.2-.1c-1.4 0-3.1.2-3.2-1.1s5-2.4 7.6-3l11.3-2.4 7.6-7s-5.3-5.6-6.1-5.7l-11 .6-3 2.8c-1 1-2.6 3.3-3.8 2.2s.2-2.6 1-3.6l1.6-2.7" style="fill:#fee5c3"/><linearGradient id="d" x1="63.1" x2="63.1" y1="7.5" y2="69.6" gradientUnits="userSpaceOnUse"><stop offset=".3" style="stop-color:#fed3b3"/><stop offset=".6" style="stop-color:#fed5b5"/><stop offset=".8" style="stop-color:#fedcbb"/><stop offset=".8" style="stop-color:#fee5c3"/></linearGradient><path d="M48.5 57.3c1.7-1 11.2-11.3 11.2-11.3l-.2-37.7s1.7-.7 4-.8c2.4 0 4.5.8 4.5.8l.4 37.9s9 10.7 11 11 1.2 6.3 1 6.8c0 .5-1.9 6.3-3.7 5S64 57.2 64 57.2s-11.3 10.1-13.7 12-4.8-5.3-4.8-5.3 1.2-5.7 3-6.7" style="fill:url(#d)"/><path d="M58.2 35c0 2.2 2 2 5.8 2s5.7.2 5.7-2c0-2.7-2.2-2.2-5.8-2.2s-5.8-.3-5.7 2.1m0-6.7c0 2.3 2 2 5.9 2s5.7.3 5.7-2c0-2.6-2.3-2-5.8-2s-5.8-.4-5.8 2m0-6.6c0 2.2 2 2 5.9 2s5.7.2 5.7-2c0-2.7-2.3-2.2-5.8-2.2s-5.8-.3-5.8 2.2m0-6.6c0 2.3 2 2.1 5.9 2.1s5.7.2 5.7-2c0-2.6-2.3-2.1-5.8-2.1s-5.8-.4-5.8 2" style="fill:#f2a159"/></svg>