<svg xml:space="preserve" width="16" height="16" viewBox="0 0 128 128"><path d="m63.3 84.8-10 1s1 14 .9 15c-.2 1-2.7 9.8-3 10.4s-4.2 3.9-3.5 6c.6 1.6 3.2 2.1 6 2.2 2.6.1 5.4-.8 5.8-1.8.5-1 .7-3.5.7-3.5s3.7-8.8 4-12.2c.3-3.5-1-17.1-1-17.1m25 2.8s2 11.5 1.7 12.9c-.2 1.4-2.5 9-2.5 9s-3 3-2.1 5.4c.6 2 4.1 1.8 6.2 1.8q4.5 0 5.5-2.2c.6-1.2.3-3.5.3-3.5s2.5-9.5 2.6-11.5c0-2-2.8-17.5-2.8-17.5z" style="fill:#df9047"/><path d="M43.1 31.9s9.1 2.5 9.8 3.4c.6 1 1.1 8.8-1 11a9 9 0 0 1-5.3 2.5L36 57.6 53 77l16 9.8s-2 10.6-14 11.1c-8.9.4-12.5-4-12.5-4s-9.2.2-13.6-4.2c-4.9-5-4.8-12-4.8-12s-5.8-2.1-7.3-8.1c-2.8-11.9 4.9-17.7 5-18.1s-2.2-3.2-2.2-7.5c0-3.5.6-7 .6-7z" style="fill:#d27856"/><path d="m18.1 36.4-6.7 6.1s2.5.5 5.6-.2c.8-.2 2.2-1 2.2-1s2.8 2 4.5 3 4.2 1.9 4.2 1.9-.5 6.3-.4 7.6 9.2 6.2 9.2 6.2l6.7-1.7 5-8s0-5.8.8-7.4c.8-1.5 4-5.5 4.9-9.8.9-4.2.4-6.5.4-6.5s4.1-2.6 4.5-5.3-.3-4-.3-4l-15.3 7.8z" style="fill:#e09147"/><path d="M35.3 15.1s-11.4 3.5-13 4.3c-1.4.9-2.4 1.6-4.2 1.7s-9.6.7-12.2 6.9-2 12.5 2.2 14.2c4.9 2 11.1-2.4 11.1-2.4s8.5 4.4 13.5 5.5a20 20 0 0 0 8.9.7c2-.3 7-4.2 8.4-8.5 1.7-4.8 1.7-12.7 1.7-12.7s10-4 6.2-9.2c-3-4-15.3 4.3-15.3 4.3zM37.7 55c5 0 10.7-6.1 10.7-6.1s0 6.7 1.8 8.9c2.4 3 7.4 1.1 7.4 1.1s-.2-4.5 2.2-8c2.3-3.3 4.1-4 4.1-4s-.5-10.7.3-13.2C65 31 77.4 23 77.4 23L89 28.2l9.8-5.8s8.2 5.5 9 8.8.7 5.4 1.2 8.9c.2 1.6.3 6.3.3 6.3s5.5 3.3 7.5 8.8 3 12.8 3.3 15.9a53 53 0 0 0 1.7 10.2c.7 1.5 3.1 4.1 1.7 5.2s-4.5-1.8-5.7-4.2S114 72 114 72s.4 5-.6 9.3l-1.5 5.6s3 10.7 3 12.9c0 2.1-3 12.7-3 12.7s.7 3.7-1 5.6c-1.2 1.3-2.7 1.6-7.2 1.8-3 0-5.7-.6-5.6-3.1.2-2.8 4-6.4 4.2-6.5s2.4-9 2.4-10.3-4.5-13.7-4.5-13.7-4.2 2.7-10.5 3c-6.4.5-10.4.5-10.4.5s.7 9.5.4 12.2-1.7 6.5-2.1 9.4-.6 9-3.5 9.5c-2.1.4-9.9 1-11.6-1-2-2.2 3.2-6.5 3.2-6.5l2-7.2q1-3.1 1-5.5c0-2.4-1.6-12.6-1.6-12.6s-4 .2-11.4 0-17.3-2.8-23.5-13.6-4.6-22.4-4.6-22.4 3.4 2.6 10 2.7" style="fill:#f6b03e"/><path d="M8.1 37.2v-3.7S15 32.8 14 30c-.8-2.2-6.5.4-6.5.4s-.5-4.4-2-2.6.4 4 .4 4v4.3s-1-2.2-1.8-1 .3 3.2 2.2 4.6a7 7 0 0 0 5.7 1.5c2.5-.3 4.8-2.7 3.2-3.7s-2 1.3-4.5.9C7.9 37.9 8 37.2 8 37.2" style="fill:#b78958"/><path d="M41.5 26c.8 1-2 4.5-5.7 3.3-3.4-1.1-4.8-3-4.4-4 .5-1 4.8 0 5.8.2.9 0 3.7-.2 4.3.5m-8.9 1s-.6.7-1.4.8c-.9.1-2.3.2-2.2 1.1q.4 1.7 3.5.4c1.3-.6 2.2-1.6 2.2-1.6l.5.4S34 29.6 33.5 30c-1 .5-2.4.5-2 1.7.5 1.4 2.6.2 3.6-.5 1.2-1 1.7-2.3 1.7-2.3h.8s-.4 1.2-.8 1.7c-.3.5-2.1 1.7-.9 2.8s2.5-1.1 3-2.3.9-3.1.9-3.1z" style="fill:#34302f"/><path d="M51.5 15.3c0-.1-4.1-9-17.5-8.2-10.8.7-15.1 6-12.7 11.5 2.1 4.7 7 2.9 7 2.9s-.9 4.3 4.6 5.6c6.4 1.4 11.4-6.6 13-7.3 3.2-1.2 5.6-4.5 5.6-4.5" style="fill:#d27856"/><path d="M75.6 12.1C65.1 12.5 64 34.6 64 35.2c0 .3 1.2-.7 2.2-2 1-1 1.6-2.2 3-1.9 2.9.7 1.7 6.8 5.3 7.5 3.3.6 2.8-6.3 5.3-6.1 3.8.2 1.7 10.7 7.4 10.4 4.5-.2 1.5-9.6 5-10.4 3.3-.8 4.6 6.8 7.5 5.9 3.8-1.3.3-8.3 2.9-9.4s3.4 6.1 5.6 5c.6-.3-2.1-22-12.4-21.8-7.5.2-9.7 12.1-9.7 12.1s-2.5-12.6-10.5-12.4" style="fill:#df9047"/></svg>