<svg xml:space="preserve" width="16" height="16" viewBox="0 0 128 128"><path d="M51.5 38C25.4 37.1-5.4 8.7 5 39.1c6 17.5 26.2 26 46.5 25.8 20.2.2 40.4-8.3 46.4-25.8 10.4-30.4-20.3-2-46.4-1.3" style="fill:#e59600"/><path d="M51.7 90.7h-8.9v10.7c0 4.8 3.6 8.7 8.1 8.7h1.6c4.5 0 8.1-4 8.1-8.7V90.7zm26.6-38.9H24.6c-5.8 0-10.5 5-10.5 11.2s4.7 11.2 10.5 11.2h53.7c5.8 0 10.5-5 10.5-11.2s-4.7-11.2-10.5-11.2" style="fill:#99674f"/><path d="M51.5 13.1c-17.1 0-33 18.3-33 44.6 0 26.2 16.3 39.1 33 39.1s32.9-13 32.9-39.1c0-26.3-15.8-44.6-33-44.6" style="fill:#ba8d68"/><path d="M28.7 51.8c3-4.1 9.7-4.5 13.5-1.4q1 .8 1.7 2c.4 1.2-.8 2.2-2 1.9l-2.2-.8a11 11 0 0 0-3.6-.6c-1.8 0-3 .2-4.6 1-.7.2-1.3.7-2.1.3-1-.4-1.3-1.5-.7-2.4m43.6 2.4-.8-.4a10 10 0 0 0-4.7-.9 11 11 0 0 0-4 .7c-.8.3-1.8 1-2.7.7-1.3-.4-1.3-1.8-.6-2.7q1.3-1.7 3.3-2.5c2.9-1.2 6.4-1 9 .6q1.6.8 2.5 2.1c.7 1.3-.5 3-2 2.4" style="fill:#613e31"/><ellipse cx="36.2" cy="60" rx="4.8" ry="5" style="fill:#49362e"/><ellipse cx="66.8" cy="60" rx="4.8" ry="5" style="fill:#49362e"/><path d="M59.9 77a25 25 0 0 1-16.6 0c-1.8-1-3.6.6-2.9 2.2s6.4 5.4 11.2 5.4 10.4-3.7 11.1-5.4c.8-1.6-1-3.2-2.9-2.2" style="fill:#5d4037"/><path d="M55.3 69h-7.6q-1.1.6-.7 1.7c.3.7 1.7 2.6 4.5 2.6s4.1-2 4.4-2.6q.4-1.2-.6-1.6" style="fill:#99674f"/><path d="m87.4 57.6-.2.4v.3l-.4.9-.1.2-2.3 5.8q-.3.5-.7 0l-.5-2.2-.8-3.5-2-8.2-1-4.3-1.9-6a6 6 0 0 0-6.7-3.8C66.4 38 59.3 39 51.6 39h-.2c-7.8 0-14.8-1-19.2-1.8a6 6 0 0 0-6.8 3.8 106 106 0 0 0-3 10.9l-.6 2.2-.4 1.8-.4 1.8-.4 1.7-.8 3-.4 1.8-.2 1q-.3.6-.7 0L16 58.6v-.2l-.2-.5-.1-.2s-1-5.8-.7-13.5v-.8l.1-1.5V41q.4-4 1.4-8.4h70.2c3 12.6.8 24.9.8 24.9" style="fill:#543930"/><radialGradient id="a" cx="51.5" cy="71.8" r="35.4" gradientTransform="matrix(1 0 0 -1.128 0 137.2)" gradientUnits="userSpaceOnUse"><stop offset=".8" style="stop-color:#6d4c41;stop-opacity:0"/><stop offset="1" style="stop-color:#6d4c41"/></radialGradient><path d="m87.4 57.6-.2.4v.3q-.3.3-.4.9l-.1.2-2.3 5.9q-.3.5-.7 0v-.1l-.5-2.2-.8-3.5L77.5 41a6 6 0 0 0-6.7-3.8C66.4 38 59.3 39 51.6 39h-.2c-7.8 0-14.8-1-19.2-1.8a6 6 0 0 0-6.8 3.8 106 106 0 0 0-3 10.9l-.6 2.2-.4 1.8-.4 1.8-.4 1.7-.8 3-.4 1.8-.2 1q-.4.5-.7 0L16 58.5v-.2l-.2-.5-.1-.2s-1-5.8-.7-13.5v-.8l.1-1.5V41q.4-4 1.4-8.4h70.2c3 12.6.8 24.9.8 24.9" style="fill:url(#a)"/><linearGradient id="b" x1="51.5" x2="51.5" y1="120.4" y2="96.6" gradientTransform="matrix(1 0 0 -1 0 128)" gradientUnits="userSpaceOnUse"><stop offset="0" style="stop-color:#fff59d"/><stop offset=".6" style="stop-color:#fee565"/><stop offset="1" style="stop-color:#fdd835"/></linearGradient><path d="M77.5 29C72.7 17 67.9 7.6 61.9 7c-1.7-.3-5.9-1-10.2-1-4.4 0-9 .6-10.6.8C35 7.6 30.3 17 25.5 29c-2.7 6.5 54.6 6.5 52 0" style="fill:url(#b)"/><linearGradient id="c" x1="51.5" x2="51.5" y1="101.5" y2="72.4" gradientTransform="matrix(1 0 0 -1 0 128)" gradientUnits="userSpaceOnUse"><stop offset="0" style="stop-color:#fff59d"/><stop offset=".6" style="stop-color:#fee565"/><stop offset="1" style="stop-color:#fdd835"/></linearGradient><path d="M91.6 24.7C82 26.4 66.4 28.4 52 28.5h-1c-14.4 0-30.1-2-39.5-3.8C3.3 23.2 3 28.6 3 28.6s2.6-3.2 7.1 1.2c7 6.8 18.5 17.7 40.8 17.8h1.3A54 54 0 0 0 93 29.8c4.5-4.4 7.1-1.2 7.1-1.2s-.3-5.4-8.4-3.9" style="fill:url(#c)"/><path d="M51.5 27.4c-7.6 0-17-.7-21.9-1.1a50 50 0 0 1 43.7 0 280 280 0 0 1-21.8 1.1" style="fill:#78909c"/><path d="M51.5 22.3c7.5 0 13.7 1.7 18 3.3-5.2.4-12.2.9-18 .9s-12.9-.5-18-.9a50 50 0 0 1 18-3.3m0-2c-15.2 0-25 6.6-25 6.6s14.3 1.5 25 1.5 25-1.5 25-1.5-9.8-6.5-25-6.5" style="fill:#90a4ae"/><path d="M107.5 109v15" style="fill:none;stroke:#d18100;stroke-width:5;stroke-miterlimit:10"/><path d="M108.6 116.8h-2.3c-1.4 0-2.5 0-2.5-2.5v-12h7.3v12c0 2-1 2.5-2.5 2.5" style="fill:#636363"/><path d="M116.7 99.5h-9l-10-.1C90 99.4 90 72.7 90 72.7v24.7c0 6.7 3.4 8.8 9.4 9H115c5.4 0 7.3-3.7 7.3-8.1l-.3-4.9s-1.5 6.1-5.2 6.1" style="fill:#616161"/><linearGradient id="d" x1="106.8" x2="106.8" y1="19.5" y2="78.2" gradientTransform="matrix(1 0 0 -1 0 128)" gradientUnits="userSpaceOnUse"><stop offset="0" style="stop-color:#757575"/><stop offset=".5" style="stop-color:#9e9e9e"/></linearGradient><path d="M123.4 38.4c-.1-.4-.8-.4-.9 0l-1.1 4.7-2 52.2v.4c0 1.5-1.2 2.6-2.8 2.6s-2.8-1.1-2.8-2.6l.6-52.4-1.2-5.2c0-.4-.7-.4-.8 0l-1.3 5-.7 52.2c0 1.7-1 3-2.7 3a3 3 0 0 1-3-3l-.4-52.2-1.1-5c-.2-.4-.8-.4-.9 0l-1.5 5.2V95c0 1.8-1.2 3.2-3 3.2s-3.3-1.4-3.3-3.2l-2-52-1.4-5q-.3-.5-.7 0L89 43l1.6 53.7c0 4.5 2.9 8 8.9 8.2h15.4c5.4 0 7.5-3.7 7.5-8.2l2.1-53.4z" style="fill:url(#d)"/><linearGradient id="e" x1="51.7" x2="51.7" y1="4" y2="30" gradientTransform="matrix(1 0 0 -1 0 128)" gradientUnits="userSpaceOnUse"><stop offset="0" style="stop-color:#709e3b"/><stop offset=".3" style="stop-color:#73a13e"/><stop offset=".6" style="stop-color:#7dab47"/><stop offset=".8" style="stop-color:#8dbc57"/><stop offset="1" style="stop-color:#9ccc65"/></linearGradient><path d="M95.7 120.8C95.7 103 70.2 99 61.1 98l-7.7 10.6h-3.3L42.5 98c-9.8 1-18.2 3.3-24.3 6.8q-10.5 6-10.5 16v3.2h88z" style="fill:url(#e)"/><linearGradient id="f" x1="51.8" x2="51.8" y1="3.5" y2="28.1" gradientTransform="matrix(1 0 0 -1 0 128)" gradientUnits="userSpaceOnUse"><stop offset="0" style="stop-color:#1e88e5"/><stop offset="1" style="stop-color:#1565c0"/></linearGradient><path d="m83.6 120-7.1-5.4.2-.4-26 .5-23.8-.5.2.4L20 120l-.1 3.9h64z" style="fill:url(#f)"/><linearGradient id="g" x1="28.3" x2="28.3" y1="4" y2="27.4" gradientTransform="matrix(1 0 0 -1 0 128)" gradientUnits="userSpaceOnUse"><stop offset="0" style="stop-color:#1e88e5"/><stop offset="1" style="stop-color:#1565c0"/></linearGradient><path d="m33.8 107.1-.1-7.8s-5.8 1.2-7.9 2.1l-3 6.6 3.9 5.9z" style="fill:url(#g)"/><linearGradient id="h" x1="65.9" x2="65.9" y1="4" y2="27.4" gradientTransform="matrix(-1 0 0 -1 141.16 128)" gradientUnits="userSpaceOnUse"><stop offset="0" style="stop-color:#1e88e5"/><stop offset="1" style="stop-color:#1565c0"/></linearGradient><path d="m69.8 107.1.1-7.8s5.8 1.2 7.9 2.1l2.9 6.6-3.8 5.9z" style="fill:url(#h)"/><path d="m73 115.6 5.1 1c1.4.3 2.8-.7 3-2s-.6-2.7-2-3l-5.2-1c-1.4-.3-2.7.7-3 2s.7 2.8 2 3m-42.3 0-5.2 1c-1.3.3-2.7-.7-3-2s.7-2.7 2-3l5.3-1c1.3-.3 2.7.7 3 2s-.7 2.8-2 3" style="fill:#bdbdbd"/><linearGradient id="i" x1="43.2" x2="43.2" y1="27.7" y2="13" gradientTransform="matrix(1 0 0 -1 0 128)" gradientUnits="userSpaceOnUse"><stop offset="0" style="stop-color:#aed581"/><stop offset="1" style="stop-color:#8bc34a"/></linearGradient><path d="m42.4 98-7.5 1-.3 21 17.1-11.5z" style="fill:url(#i)"/><linearGradient id="j" x1="60.3" x2="60.3" y1="29.9" y2="12.5" gradientTransform="matrix(1 0 0 -1 0 128)" gradientUnits="userSpaceOnUse"><stop offset="0" style="stop-color:#aed581"/><stop offset="1" style="stop-color:#8bc34a"/></linearGradient><path d="M68.6 99.1q-4.6-.8-7.5-1l-9.4 10.4L68.8 120z" style="fill:url(#j)"/></svg>