<svg xml:space="preserve" width="16" height="16" viewBox="0 0 128 128"><linearGradient id="a" x1="12.9" x2="115.1" y1="109.3" y2="109.3" gradientUnits="userSpaceOnUse"><stop offset="0" style="stop-color:#00bfa5"/><stop offset=".7" style="stop-color:#00b29a"/><stop offset="1" style="stop-color:#00ab94"/></linearGradient><path d="M64.1 94.7C38.6 94.7 13 102.2 13 120v4h102v-4c0-16.8-25.4-25.3-51-25.3" style="fill:url(#a)"/><path d="M73 90H55v10c0 4.6 3.6 8.2 8.2 8.2h1.6c4.6 0 8.3-3.6 8.3-8.1zM36.7 72.3c-5.4 0-9.7-4.7-9.7-10.4s4.3-10.5 9.7-10.5h54.6c5.4 0 9.7 4.7 9.7 10.5s-4.3 10.4-9.7 10.4z" style="fill:#99674f"/><path d="M64 10c-17.4 0-33.5 18.7-33.5 45.5C30.5 82 47 95.3 64 95.3s33.5-13.2 33.5-39.8C97.5 28.7 81.4 10 64 10" style="fill:#ba8d68"/><path d="M39.8 50.7c3.2-4.5 10.7-4.6 14.4-.8.7.7 1.4 1.5.9 2.5q-1 1.4-2.6.5A13 13 0 0 0 45 52l-3.2 1.1c-1.4.5-3-1-2-2.4m46.5 2.4q-3.3-1.6-7-1.2a13 13 0 0 0-3.2.8c-.9.3-1.8.9-2.6.3-2.5-1.7 1.9-4.5 3.1-5 2.8-1.2 6.1-1 8.8.3q1.7.9 2.8 2.4c.8 1.3-.4 3-2 2.4" style="fill:#613e31"/><ellipse cx="47.4" cy="58.8" rx="4.9" ry="5.1" style="fill:#49362e"/><ellipse cx="80.6" cy="58.8" rx="4.9" ry="5.1" style="fill:#49362e"/><path d="M67.9 68H60q-1 .5-.7 1.7c.4 1.2 1.8 2.7 4.6 2.7a5 5 0 0 0 4.6-2.7q.3-1.2-.7-1.6" style="fill:#99674f"/><path d="M72.4 76.1a26 26 0 0 1-16.8 0c-1.8-1-3.7.6-3 2.3s6.5 5.4 11.4 5.4 10.6-3.8 11.3-5.4-1-3.4-2.9-2.3" style="fill:#5d4037"/><path d="M64 4c-45.5.3-36.2 52.2-36.2 52.2l3 7.7q.4.5.7 0a309 309 0 0 1 6.2-24.5 6 6 0 0 1 6.8-3.8A111 111 0 0 0 64 37.4h.2c7.8 0 14.9-1 19.3-1.8a6 6 0 0 1 6.8 3.8c1.8 4.7 5.2 20 6.2 24.4.1.4.6.4.7 0l3-7.6S109.4 4.2 64 4" style="fill:#e63d00"/><radialGradient id="b" cx="64" cy="47.1" r="38.1" gradientTransform="matrix(1 0 0 1.128 0 -6.04)" gradientUnits="userSpaceOnUse"><stop offset=".8" style="stop-color:#f98b25;stop-opacity:0"/><stop offset="1" style="stop-color:#f98b25"/></radialGradient><path d="M100.1 56.2S109.4 4.2 64 4l-6 .4h-.3C19.4 9.2 27.8 56.2 27.8 56.2l3 7.6q.4.6.7 0c1-4.4 4.5-19.7 6.2-24.4a6 6 0 0 1 6.8-3.8A111 111 0 0 0 64 37.4h.2c7.8 0 14.9-1 19.3-1.8a6 6 0 0 1 6.8 3.8c1.8 4.7 5.3 20.1 6.2 24.5q.3.5.7 0z" style="fill:url(#b)"/></svg>