<svg xml:space="preserve" width="16" height="16" viewBox="0 0 128 128"><path d="M95.3 61.5q3.2 6.8 3.3 15a34.6 34.6 0 1 1-65.9-15 38.2 38.2 0 1 0 62.5 0" style="fill:#4b8a99"/><path d="M32.4 47.8a44.6 44.6 0 1 0 63.1 63.1 44.6 44.6 0 0 0-63-63.1M88 107.1A34.8 34.8 0 1 1 38.8 58 34.8 34.8 0 0 1 88 107.1" style="fill:#bdbdbd"/><path d="M38 20.8 45.6 9l6 6.9z" style="fill:#64b5f6"/><path d="m55.7 29.8-17.8-9 13.8-4.9z" style="fill:#81d4fa"/><path d="M64.5 18.6 51.7 16l4 13.9z" style="fill:#fff"/><path d="M91 20.8 83.4 9l-6 6.9z" style="fill:#1e88e5"/><path d="m73.3 29.8 17.8-9-13.8-4.9z" style="fill:#b3e5fc"/><path d="M64.5 18.6 77.3 16l-4 13.9z" style="fill:#fff"/><path d="m73.3 29.8-8.8-11.2-8.8 11.2z" style="fill:#b2ebf2"/><path d="M55.2 4h18.6l9.5 5-6 6.9-12.8 2.7L51.7 16l-6-6.9z" style="fill:#b3e5fc"/><path d="M64.5 47 37.9 20.9l17.8 9z" style="fill:#1e88e5"/><path d="m64.5 47 26.6-26.2-17.8 9z" style="fill:#81d4fa"/><path d="m73.3 29.8-8.8 17.3-8.8-17.3z" style="fill:#e1f5fe"/><path d="M34 51.2c3 1 1.2 3.7.6 4.3-2.4 2.4-3 3.9-4.5 6.4-1.6 2.5-3.4 2.7-4.1 1.1-2-4.2 4.6-12.9 8-11.8m53.2 60.2c-5.2 3.1-7 1.9-5.7 1a35 35 0 0 0 15.7-20.8q.6-1.5 2.2-1.2 1.3.5 1 2c-3.4 12.6-9.1 16.4-13.2 19" style="fill:#fff"/><path d="M82.2 29.7 68.8 42.8l-2-.1.4-8.7c0-1.7-1-3-2.7-3-1.6 0-2.6 1.3-2.6 3l.4 8.7-2 .1L47 29.7s-3.5 1.5-.1 4.8l13 12.7h9.4l13-12.7c3.5-3.3 0-4.8 0-4.8" style="fill:#bdbdbd"/><path d="M82.1 29.7 71.2 40.3c-1 1-.5 2.5.8 2.8 2.8.7 7.5 2.4 13.8 6.8 4.3 3 6.7 2.5 7.6.8 1.2-2.1.3-4.9-1.8-6.5a40 40 0 0 0-12.3-6.9l3-2.9c3.4-3.3-.2-4.9-.2-4.9" style="fill:#8e8e8e"/></svg>