<svg xml:space="preserve" width="16" height="16" viewBox="0 0 128 128"><radialGradient id="a" cx="63.6" cy="2893.1" r="50.7" gradientTransform="translate(0 -2818)" gradientUnits="userSpaceOnUse"><stop offset=".5" style="stop-color:#fde030"/><stop offset=".9" style="stop-color:#f7c02b"/><stop offset="1" style="stop-color:#f4a223"/></radialGradient><path d="M63.6 124.8c-24.8 0-51.6-15.6-51.6-49.7s26.8-49.7 51.6-49.7c13.8 0 26.5 4.5 36 12.8 10.2 9 15.6 21.9 15.6 36.9s-5.4 27.7-15.7 36.8a54 54 0 0 1-35.9 12.9" style="fill:url(#a)"/><path d="M106.2 45.5a50 50 0 0 1 7.2 27 47 47 0 0 1-15.7 36.7 54 54 0 0 1-35.9 13c-16 0-33-6.6-42.8-20.5a52 52 0 0 0 44.6 23.1c13.7 0 26.5-4.6 36-12.9a48 48 0 0 0 15.6-36.8q0-17.1-9-29.6" style="fill:#eb8f00"/><path d="M34.3 33.5C13.9 25.4 0 13.5 0 22.8 0 41.2 4.8 56 12.6 67.3c2.1-16 10.6-27 21.7-33.8m80.4 34.8A77 77 0 0 0 128 22.8c0-9.7-14.2 2.6-34.8 10.8a46 46 0 0 1 21.5 34.7" style="fill:#4a251a"/><path d="M94.2 19.2C89.7 9.5 81.9.1 74.7.2 66.9.3 68.3 3.6 64 3.6 59.5 3.6 61.2.2 53.9.2s-15.4 9.1-20.2 19q15 3.6 30.3 3.4c13.7 0 23.6-1.6 30.2-3.4" style="fill:#826156"/><path d="M96.5 25q-1-3-2.3-5.8C87.6 21 77.7 22.6 64 22.6q-15.4.2-30.3-3.4-1.4 2.9-2.3 5.9Q47.6 27.7 64 28q16.3-.3 32.5-3" style="fill:#a1887f"/><path d="M96.5 25A215 215 0 0 1 64 28q-16.4-.3-32.6-3C15.6 22.7 3 19.6 3 19.6s17.3 34.3 61 34.3 60.1-34.3 60.1-34.3-12.2 3-27.6 5.5" style="fill:#7a5549"/><path d="M82.3 57.4c3.5 0 6.7 4.1 6.7 10.9s-3.2 10.9-6.7 10.9-6.7-4.1-6.7-10.9 3.2-10.9 6.7-10.9m-36.6 0c-3.5 0-6.7 4.1-6.7 10.9s3.2 10.9 6.7 10.9 6.7-4.1 6.7-10.9-3.2-10.9-6.7-10.9" style="fill:#422b0d"/><path d="M45.1 61.3a2.5 2.5 0 0 0-2.9 4.1 2.5 2.5 0 0 0 3-4m36.8-.1a2.5 2.5 0 0 0-2.9 4.1 2.5 2.5 0 0 0 2.9-4" style="fill:#896024"/><path d="M95.6 88.8a5 5 0 0 0-6-2.2 92 92 0 0 1-52.5 0c-2.3-.8-4.8 0-6 2.2-1.1 2-.3 4.5.7 6.6 5.3 11.7 17 18.7 31.5 18.8h.1c14.4 0 26.2-7 31.5-18.8 1-2.1 1.8-4.5.7-6.6" style="fill:#422b0d"/><path d="m76.7 110.9-1-.9a18 18 0 0 0-12.3-4.5 20 20 0 0 0-12.9 4.4l-1 .8-.6.8a39 39 0 0 0 14.3 2.7h.2q7.1 0 13.8-2.5z" style="fill:#ed7770"/><path d="M89.6 86.6a92 92 0 0 1-52.5 0c-2.3-.8-4.8 0-6 2.2l-.4 1 1 .4c10 5 21.1 7.6 32.3 7.4a71 71 0 0 0 32-7.3q0-.8-.4-1.5a5 5 0 0 0-6-2.2" style="fill:#fff"/><path d="M95.6 88.8a5 5 0 0 0-6-2.2 92 92 0 0 1-52.6 0c-2.2-.8-4.7 0-5.9 2.2-1.1 2-.3 4.5.6 6.6l1.5 2.7s-1.8-6.4-.3-8.3a3 3 0 0 1 2.4-1.4l1.1.2a95 95 0 0 0 26.8 3.8h.3a95 95 0 0 0 27.9-4q1.5.1 2.3 1.4c1.6 1.8-.2 8.4-.2 8.4l1.5-2.8c1-2 1.7-4.5.6-6.6" style="fill:#eb8f00"/></svg>