<svg xml:space="preserve" width="16" height="16" viewBox="0 0 128 128"><path d="M33.3 20.6a26.9 26.9 0 1 0 0 53.8 26.9 26.9 0 0 0 0-53.8m7.4 6.8-6.5 10.8a2 2 0 0 1-3.1.2l-8-9.8c-.5-.6-.3-1.6.5-2a23 23 0 0 1 16.3-1c.9.2 1.2 1.1.8 1.8m3.8 1.9c.3-.8 1.3-1 2-.6a23 23 0 0 1 9.1 13.6c.2.8-.4 1.6-1.2 1.6l-12.6-.3a2 2 0 0 1-1.7-2.6zM25.7 42a2 2 0 0 1-1.4 2.8l-12.4 2c-.8.2-1.6-.5-1.5-1.3a23 23 0 0 1 7.2-14.8c.6-.5 1.6-.4 2 .3zm-13.5 9 12.5.4a2 2 0 0 1 1.8 2.5L22 65.7q-.6 1.2-2 .6a23 23 0 0 1-9-13.6c-.3-.8.4-1.6 1.2-1.6m13.7 16.5 6.5-10.7a2 2 0 0 1 3-.2l8 9.7c.5.7.3 1.7-.5 2a23 23 0 0 1-16.3 1.1 1.3 1.3 0 0 1-.7-1.9m15-14.6a2 2 0 0 1 1.4-2.8l12.3-2q1.5 0 1.5 1.4A23 23 0 0 1 49 64.2c-.6.6-1.6.5-2-.3z" style="fill:#424242"/><circle cx="31.3" cy="48.5" r="14.7" style="fill:#b2947c"/><path d="M31.9 20.6a26.9 26.9 0 1 0 0 53.8 26.9 26.9 0 0 0 0-53.8m7.4 6.8-6.5 10.8a2 2 0 0 1-3.1.2l-8-9.8c-.5-.6-.3-1.6.5-2a23 23 0 0 1 16.3-1c.8.2 1.2 1.1.8 1.8m3.8 1.9c.3-.8 1.3-1 2-.6a23 23 0 0 1 9.1 13.6c.2.8-.4 1.6-1.3 1.6l-12.5-.3a2 2 0 0 1-1.8-2.6zM24.2 42a2 2 0 0 1-1.3 2.8l-12.4 2c-.8.2-1.6-.5-1.5-1.3a23 23 0 0 1 7.2-14.8c.6-.5 1.6-.4 2 .3zm-13.4 9 12.5.4a2 2 0 0 1 1.8 2.5l-4.5 11.8q-.6 1.2-2 .6a23 23 0 0 1-9-13.6c-.3-.8.3-1.6 1.2-1.6m13.6 16.5L31 56.8a2 2 0 0 1 3.2-.2l7.9 9.7q.7 1.2-.5 2a23 23 0 0 1-16.3 1.1 1.3 1.3 0 0 1-.8-1.9m15-14.6a2 2 0 0 1 1.4-2.8l12.4-2c.8-.1 1.6.6 1.5 1.4a23 23 0 0 1-7.2 14.7c-.6.6-1.6.5-2-.3z" style="fill:#424242"/><path d="M30 20.6a26.9 26.9 0 1 0 0 53.8 26.9 26.9 0 0 0 0-53.8m7.4 6.8L31 38.2a2 2 0 0 1-3 .2l-8-9.8c-.6-.6-.3-1.6.5-2a23 23 0 0 1 16.3-1c.8.2 1.2 1.1.7 1.8m3.9 1.9q.6-1.2 2-.6a23 23 0 0 1 9 13.6c.3.8-.4 1.6-1.2 1.6l-12.5-.3a2 2 0 0 1-1.8-2.6zM22.4 42a2 2 0 0 1-1.4 2.8l-12.3 2c-.9.2-1.6-.5-1.5-1.3a23 23 0 0 1 7.2-14.8c.6-.5 1.6-.4 2 .3zM9 51l12.5.4a2 2 0 0 1 1.7 2.5l-4.4 11.8c-.3.8-1.3 1-2 .6a23 23 0 0 1-9.1-13.6c-.2-.8.4-1.6 1.2-1.6m13.6 16.5L29 56.9a2 2 0 0 1 3.1-.2l8 9.7c.5.7.3 1.7-.5 2a23 23 0 0 1-16.3 1.1 1.3 1.3 0 0 1-.8-1.9m15-14.6a2 2 0 0 1 1.4-2.8l12.4-2c.8-.1 1.6.6 1.5 1.4a23 23 0 0 1-7.2 14.7c-.6.6-1.6.5-2-.3z" style="fill:#757575"/><path d="M97.7 6.8a26.9 26.9 0 1 0 0 53.8 26.9 26.9 0 0 0 0-53.8m7.4 6.9-6.5 10.7a2 2 0 0 1-3.2.2L87.5 15q-.7-1.2.5-2a23 23 0 0 1 16.3-1.1c.8.2 1.2 1.1.8 1.9m3.8 1.8q.6-1.2 2-.6a23 23 0 0 1 9 13.6q.3 1.5-1.2 1.6l-12.5-.2a2 2 0 0 1-1.8-2.6zM90 28.3a2 2 0 0 1-1.3 2.8l-12.4 2c-.8.1-1.6-.6-1.5-1.4A23 23 0 0 1 82 17c.6-.6 1.6-.5 2 .3zm-13.4 9 12.5.3a2 2 0 0 1 1.8 2.6l-4.5 11.7q-.6 1.2-2 .6a23 23 0 0 1-9-13.6q-.3-1.4 1.2-1.6m13.6 16.5L96.7 43a2 2 0 0 1 3.2-.3l7.9 9.8c.5.6.3 1.6-.5 2a23 23 0 0 1-16.3 1 1.3 1.3 0 0 1-.8-1.8m15-14.6a2 2 0 0 1 1.4-2.8l12.4-2c.8-.2 1.6.5 1.5 1.4a23 23 0 0 1-7.2 14.7c-.6.6-1.6.4-2-.3z" style="fill:#424242"/><linearGradient id="a" x1="105.5" x2="127.9" y1="88.9" y2="88.9" gradientUnits="userSpaceOnUse"><stop offset="0" style="stop-color:#fff;stop-opacity:.6"/><stop offset="1" style="stop-color:#fff;stop-opacity:0"/></linearGradient><path d="m127.9 103.2-22.4-6.3V80.6l22.4-5.9z" style="fill:url(#a)"/><circle cx="95.6" cy="34.8" r="17.6" style="fill:#b2947c"/><path d="M96.2 6.8a26.9 26.9 0 1 0 0 53.8 26.9 26.9 0 0 0 0-53.8m7.5 6.9-6.5 10.7a2 2 0 0 1-3.2.2L86 15q-.6-1.2.6-2a23 23 0 0 1 16.3-1.1c.8.2 1.2 1.1.8 1.9m3.8 1.8q.6-1.2 2-.6a23 23 0 0 1 9 13.6c.3.9-.4 1.6-1.2 1.6l-12.5-.2a2 2 0 0 1-1.8-2.6zM88.6 28.3a2 2 0 0 1-1.3 2.8l-12.4 2q-1.5 0-1.5-1.4A23 23 0 0 1 80.6 17c.6-.6 1.6-.5 2 .3zm-13.4 9 12.5.3a2 2 0 0 1 1.7 2.6L85 51.9c-.3.8-1.3 1-2 .6A23 23 0 0 1 74 39c-.2-.8.4-1.6 1.3-1.6m13.6 16.5L95.3 43a2 2 0 0 1 3.1-.3l8 9.8c.5.6.3 1.6-.5 2a23 23 0 0 1-16.3 1 1.3 1.3 0 0 1-.8-1.8m15-14.6a2 2 0 0 1 1.4-2.8l12.4-2c.8-.2 1.6.5 1.5 1.4a23 23 0 0 1-7.2 14.7c-.6.6-1.6.4-2-.3z" style="fill:#424242"/><path d="M94.4 6.8a26.9 26.9 0 1 0 0 53.8 26.9 26.9 0 0 0 0-53.8m7.4 6.9-6.5 10.7a2 2 0 0 1-3.1.2l-8-9.7q-.7-1.2.5-2a23 23 0 0 1 16.4-1.1c.8.2 1.2 1.1.7 1.9m3.8 1.8c.3-.8 1.3-1 2-.6a23 23 0 0 1 9.2 13.6q0 1.5-1.3 1.6l-12.6-.2a2 2 0 0 1-1.7-2.6zM86.8 28.3a2 2 0 0 1-1.4 2.8L73 33q-1.4 0-1.4-1.4A23 23 0 0 1 78.7 17q1.2-.9 2 .3zm-13.5 9 12.6.3a2 2 0 0 1 1.7 2.6l-4.4 11.7c-.3.8-1.3 1-2 .6a23 23 0 0 1-9.1-13.6q-.2-1.4 1.2-1.6M87 53.8 93.5 43a2 2 0 0 1 3.1-.3l8 9.8c.5.6.2 1.6-.5 2a23 23 0 0 1-16.4 1 1.3 1.3 0 0 1-.7-1.8m15-14.6a2 2 0 0 1 1.4-2.8l12.4-2q1.4-.1 1.4 1.4a23 23 0 0 1-7.1 14.7c-.6.6-1.6.4-2-.3z" style="fill:#757575"/><path d="M87.7 35.8c1.1-3.1 2.5-6.4 6-6.6 3.4-.2 6.5 1.6 5.6 7.9-.2 1.7-4.4 16.6-8.6 31.1l-16.5-.7z" style="fill:#546e7a"/><path d="M96.8 29.7c1 1.3 1.6 2.8.9 5.7l-6.5 19.7-11.6-.1-2.2 5.1 15 2.1 7-25.1c1.2-5.3-.7-6.4-2.6-7.4" style="fill:#37474f"/><circle cx="93.7" cy="34.1" r="2.3" style="fill:#b9e4ea"/><path d="M29.2 55.7c-2.4-2.3-4.9-4.9-3.7-8.1s4.2-5.3 9.6-2c1.5 1 14.1 11.4 26 21.4L49 76.8z" style="fill:#546e7a"/><path d="M27.3 45c1.6-.5 3.6-.7 6 1.1l12 11.2c-5.2.9-8.4 6.5-8.4 6.5L47.3 75l8-13-19.6-16.2c-4.3-3.3-6.8-2.2-8.4-.9" style="fill:#37474f"/><circle cx="30.1" cy="49.3" r="2.3" style="fill:#b9e4ea"/><path d="M97.3 120.7h-58c-3.2 0-5.7-2.8-5.7-6.1v-34c0-18.6 14.2-23.3 22.2-23.3H85c8 0 18 6.4 18 20.2v37c0 3.4-2.6 6.2-5.7 6.2" style="fill:#546e7a"/><path d="M83.9 90.4H103v10.9H83.9zM50.5 66h32.2c4.3 0 7.8 3.5 7.8 7.8v33.4a8 8 0 0 1-7.8 8H50.5a8 8 0 0 1-8-8V73.8a8 8 0 0 1 8-7.9" style="fill:#37474f"/><path d="M81.8 80h23.4v17.4H81.8s-1.3-1-1.3-8.7 1.3-8.7 1.3-8.7" style="fill:#9e9e9e"/><path d="M102 86H82v-4h19.8z" style="fill:#e0e0e0"/><path d="M50.5 65.8h28.7a8 8 0 0 1 8 7.8v30.8a8 8 0 0 1-8 7.9H50.6a8 8 0 0 1-8-8V73.8a8 8 0 0 1 8-8" style="fill:#78909c"/><path d="M79.3 65.8H50.5a8 8 0 0 0-6.3 3.1l26.4.4c7.9 0 8.7-3.5 8.7-3.5" style="fill:#b9e4ea"/><path d="M106.4 80h-7s.4 3.6.4 8.9c0 5.2-.5 8.5-.5 8.5h7q1 0 1.1-.8.4-1.5.5-7.5-.1-6.4-.5-8.2a1 1 0 0 0-1-.8" style="fill:#424242"/><path d="M99.8 86v2.8c0 5.3-.4 8.6-.4 8.6h6q.6 0 .8-.8a26 26 0 0 0 .4-9.4q-.2-1.1-1.3-1.2z" style="fill:#212121"/></svg>