<svg xml:space="preserve" width="16" height="16" viewBox="0 0 128 128"><path d="M99 91.4s-15 14.2-35 14.2-35.1-14.2-35.1-14.2S26 78 33.3 54.6c3.9-12.2 58.4-13.5 62.6-2.8 7.3 18.3 3.2 39.6 3.2 39.6" style="fill:#424242"/><path d="m28.9 91.4 4.8 3.9s0-7.6 2.3-14.7c.9-2.7 4-3.8 6.4-2.3l18.3 11.5c2 1.3 4.6 1.3 6.7 0 8.7-5.3 31.5-19.1 32.5-20 0 0 0-1.7-.4-3.9l-70.9.1z" style="fill:#212121"/><path d="M122.8 52 66 86a4 4 0 0 1-4 0L5.2 52a2.4 2.4 0 0 1 0-4.1L62 14a4 4 0 0 1 4 0l56.8 34c1.6.9 1.6 3.2 0 4.1" style="fill:#424242"/><path d="m64 83.4-.5-.1L4.2 49s-.3.6 0 1.6q.5 1.4 1 1.4L62 86a4 4 0 0 0 2 .5z" style="fill:#9e9e9e"/><path d="m64 83.4.5-.1L123.9 49q.1 0 0 1.6-.6 1.4-1 1.4L66 86a4 4 0 0 1-2 .5z" style="fill:#616161"/><path d="m35.5 70 .3-2.7 26.9-14.8c2.4-1.4 5-3 6-4.2 2-2.2.7-3.6.7-3.6s-1.6 2.6-5.4 2.1c-2.2-.2-5-2-5.4-2.8S30.9 64 30.9 64l-.2 3.2z" style="fill:#424242"/><path d="M69.4 44.7c-2.7 3.7-7.1 2.1-7.1 2.1s-14 6.7-14.4 5.7 11.4-7.2 11.4-7.2-.6-2.5-.6-3.5c0 0-21.7 13.8-29.8 18.4-4.3 2.5-5.2 4.8-5.2 8V77q0 .8-.6 1.3a5.2 5.2 0 0 0-.1 7.8c.5.6.4 1.7.5 2.4 0 1.3 0 2-.6 3.2l-1.4 3.8-.6 3c-1.2 6.9-1.8 14.2-4.9 20.4q-.3.8.4 1.4l.5.1q.6 0 .9-.6 2.3-4.9 3.2-10.4l-.2 10c0 .7 0 2 .6 2.3 2.3 1.2 2.3-2.3 2.3-2.3s0 3.1 3.2 3.1 3.4-3.1 3.4-3.1.2 2.9 1.9 2.7c.6 0 1.5-.4 1.2-3.9L32 98.7c-.5-5.4-2.3-8.6-2.6-10.5q-.3-1.2.4-2a5.2 5.2 0 0 0 .1-7.8q-.6-.6-.5-1.4l.5-7.2c.8-4 2.7-4.6 4.7-5.8s30.6-14.2 32.3-15.3c3.1-2 2.4-4 2.4-4" style="fill:#e2a610"/><path d="M69.4 44.7c-2.5 3.5-7.7 2-7.7 2s-13 5.8-12.2 4.7 9.8-6.1 9.8-6.1-.6-2.5-.6-3.5c0 0-22 12.7-30.6 18.9-2.2 1.6-5 4.2-2.7 6.7 1 1.2 3 1.5 4.2.5q1.1-.8 2.1-2l2.9-2c2-1 30.6-14.1 32.3-15.2 3.1-2 2.4-4 2.4-4" style="fill:#ffca28"/><path d="M26.1 91.9q-1.9 0-3-.3l-.5-.7.3-3.8q.1-.7.8-.6c.9.3 2.7.6 5.6 0q.6-.1.8.5l.4 3.8q0 .5-.5.7a16 16 0 0 1-3.9.4" style="fill:#9e740b"/><path d="M99 91.4s1.8-9.2 1.1-19c-.1-1.7-1.1-3.1-2 2.7-.4 3.3-1.3 13.3-3 19.5 2.5-1.8 4-3.2 4-3.2M65.7 36.8q1.3.4 1.6 1.5c.3 1-.4 2-1 2.8C64.9 42.6 63 44 61 44q-1.1 0-1.8-.8-.4-.5-.4-1.3c-.2-3.4 3.6-6 6.8-5" style="fill:#616161"/></svg>