<svg xml:space="preserve" width="16" height="16" viewBox="0 0 128 128"><path d="M125.6 102s-6.9-23.5-10.9-33.8c-5-13.1-16.4-38.7-19-40l-1-.3-15.5-5.7H48.9L33.4 28q-.6 0-1.1.4c-2.6 1.2-14 26.7-19 39.9-4 10.3-11 33.7-11 33.7q-.3 1.7 1.1 2.8c2 1.3 6.3 3.4 13.7 4.2q1.8.2 2.6-1.5c1.2-2.8 15.6-37.4 17-41.4L33 111q.1 1.8 1.7 2.3c3.5.8 13.5 2.4 29.4 2.4 16 0 26-1.6 29.5-2.4A2 2 0 0 0 95 111l-3.8-45c1.4 4 15.9 38.5 17 41.3q.8 1.7 2.6 1.5c7.4-.8 11.7-2.9 13.7-4.2q1.6-1 1-2.8" style="fill:#004f7c"/><circle cx="55.6" cy="64.8" r="2.7" style="fill:#00273d"/><circle cx="69.7" cy="64.8" r="2.7" style="fill:#00273d"/><circle cx="55.6" cy="79.9" r="2.7" style="fill:#00273d"/><circle cx="69.7" cy="79.9" r="2.7" style="fill:#00273d"/><circle cx="55.6" cy="94.9" r="2.7" style="fill:#00273d"/><circle cx="69.7" cy="94.9" r="2.7" style="fill:#00273d"/><circle cx="55.6" cy="63.6" r="2.7" style="fill:#b5840d"/><circle cx="69.7" cy="63.6" r="2.7" style="fill:#b5840d"/><circle cx="55.6" cy="78.6" r="2.7" style="fill:#b5840d"/><circle cx="69.7" cy="78.6" r="2.7" style="fill:#b5840d"/><circle cx="55.6" cy="93.6" r="2.7" style="fill:#b5840d"/><circle cx="69.7" cy="93.6" r="2.7" style="fill:#b5840d"/><path d="m47.4 72.6-2.3-1c-.8-.4-1.8 0-2 .9l-5.3 18.7q-.1 1.2.8 1.7l2.2 1q1.4.5 2-.9l5.4-18.7q.3-1.2-.8-1.7m33.9 0 2.3-1c.8-.4 1.8 0 2 .9l5.2 18.7q.3 1.2-.7 1.7l-2.2 1q-1.4.5-2-.9l-5.4-18.7q-.3-1.2.8-1.7" style="opacity:.5;fill:#2686c6"/><path d="M76.8 48q-1.5-3.6-1.3-4.9c.5-1.9 2.3-3.1 4-4.1l-7.8-25.6H56.3l-9.2 27a49 49 0 0 1 23.8 13.1q3.3 3.8 5.8 8.3c.5-2.9 2.4-8.9.1-13.9" style="fill:#00273d"/><path d="m54.4 13.3-8.6 7.9s-.9 7.3-.8 11.7c.1 4.8.7 7.5 3.9 6.2s7.6-3.5 8.8-4c1-.6 2.2-1 1.5.8s-1.4 5.3-1.5 5.7c-.3 1.3-.5 2.3 3.1 3l14.3 3.7S60.7 32 58.8 28.6a24 24 0 0 1-2.3-12.4q.2-2 2.2-2.1H69q2 .2 2.2 2c.2 3 .4 8.2-.4 10.3-.8 2-3 3.8-4.7 5-1.2 1-1 2-.3 2.8l4.3 5s1-4.7 1.6-5 3.9 3 6.7 4c2 .7 2.8-1.3 3-2.5s1.3-10.8 1-12.5a6 6 0 0 0-2.3-3.8l-7-6.1q-1.3-1-3-1H58q-2.3 0-3.5 1" style="fill:#004f7c"/><path d="M82.6 21.6c-1-1.5-2.2-2-3.6-3.2q1.5 1.5 2 3.5a62 62 0 0 1-.6 13.6c-.2 1-1 1.9-2 1.6-1-.4-1.3-.6-5.2-3.7q-2.2-2.1-3.1.6c-.6 1.6-1.2 3.9-1.2 3.9l2 2.3 1.2-5c4.5 3.4 6.3 4.2 7.5 4 2.4-.2 2.8-2.7 2.9-3.4q.5-4.6.7-9.4c.1-1.4.3-3.5-.6-4.8M73 46.9c-3-1.5-8.5-2.4-12-3.3-1.2-.3-2.4-.6-2.2-1.4l1-4.4c.5-1 1.4-3.3.1-4.2-.9-.7-2.1 0-2.1 0s-5.4 2.8-8.5 4q-2 1-2.6-1.6c-1-6.4-1-12.1 2.1-17.5-.7.7-2.1 1.6-2.9 2.4-1.6 1.4-2.2 10.8-1 17 .3 2.1 1.9 3.3 4.9 1.9l8.4-4s-1.4 4.8-1.6 6.6.7 2.6 4 3.3c2.1.5 6.8 1 9.6 2.1 3.3 1.4 4.3 1.8 6.6 4.7-.7-2.6-1.5-4.4-3.8-5.6m2.3 68.5-5.8.2s1.6-1 4.3-1.4c2.5-.5 2.1-2.4 2.1-4.1V58c0-8.4-2.9-8.8-5.4-10.2l2.5-1c.2.1 5 1.5 5 11.1V111c0 2 .2 4.3-2.7 4.3M56.8 22s-1.4-2.8-1.7-5.3c-.4-3 .6-4 3-4.4a79 79 0 0 1 10.8-.1c1.4 0 3.5.1 4 2.4.5 2.1-1.5 7.5-1.5 7.5l-.1-6c-.2-.4-.4-1.4-2.4-1.7-4.3-.6-6.5-.3-9.6-.4-2.7 0-2.7 1.4-2.8 3.6s.3 4.5.3 4.5" style="fill:#2686c6"/><path d="M38.3 55.4a65 65 0 0 0-5.7-23.8 1 1 0 0 1 0-.9 1 1 0 0 1 1.7 0c4 7.8 6.3 20 4.8 26.4 0 0-.8 1.2-.8-1.7m51.4 0a65 65 0 0 1 5.8-23.8 1 1 0 0 0 0-.9 1 1 0 0 0-1.8 0c-4 7.8-6.3 20-4.8 26.4 0 0 .8 1.2.8-1.7" style="fill:#00273d"/></svg>