<svg xml:space="preserve" width="16" height="16" viewBox="0 0 128 128"><radialGradient id="a" cx="63.6" cy="1696.9" r="57" gradientTransform="translate(0 -1634)" gradientUnits="userSpaceOnUse"><stop offset=".5" style="stop-color:#fde030"/><stop offset=".9" style="stop-color:#f7c02b"/><stop offset="1" style="stop-color:#f4a223"/></radialGradient><path d="M63.6 118.8c-27.9 0-58-17.5-58-55.9S35.7 7 63.6 7c15.5 0 29.8 5.1 40.4 14.4 11.5 10.2 17.6 24.6 17.6 41.5s-6.1 31.2-17.6 41.4a61 61 0 0 1-40.4 14.5" style="fill:url(#a)"/><path d="M111.5 29.7a57 57 0 0 1 8.1 30.2c0 16.9-6.1 31.2-17.6 41.4a61 61 0 0 1-40.4 14.5 59 59 0 0 1-48.2-23 58 58 0 0 0 50.2 26c15.4 0 29.8-5.2 40.4-14.5a54 54 0 0 0 17.6-41.4q-.1-19.2-10.1-33.2" style="fill:#eb8f00"/><linearGradient id="b" x1="63.6" x2="63.6" y1="1752.8" y2="1641" gradientTransform="translate(0 -1634)" gradientUnits="userSpaceOnUse"><stop offset=".4" style="stop-color:#40c0e7;stop-opacity:0"/><stop offset="1" style="stop-color:#5f7aff"/></linearGradient><path d="M63.6 118.8c-27.9 0-58-17.5-58-55.9S35.7 7 63.6 7c15.5 0 29.8 5.1 40.4 14.4 11.5 10.2 17.6 24.6 17.6 41.5s-6.1 31.2-17.6 41.4a61 61 0 0 1-40.4 14.5" style="fill:url(#b)"/><path d="M64 99.9q5.9 0 11.3 2A8.6 8.6 0 0 0 85.2 89c-4.7-7-12-9-21.2-9s-16.5 2-21.2 9a8.6 8.6 0 0 0 10 12.8A34 34 0 0 1 64 99.9" style="fill:#422b0d"/><radialGradient id="c" cx="20.6" cy="-456.6" r="33.4" gradientTransform="matrix(1 0 0 -1.54 0 -640.21)" gradientUnits="userSpaceOnUse"><stop offset=".5" style="stop-color:#29b6f6"/><stop offset="1" style="stop-color:#1e88e5"/></radialGradient><path d="M19.5 107c-8.4 0-15-8.2-15-15.2 0-5 2.2-10.7 5.4-18.6l1.4-3.7c1.5-3.7 2.8-7.7 4.8-11.2a3.5 3.5 0 0 1 6.1 0c1.9 3.4 3.2 7.1 5.1 11.4 5.5 12.3 7 17.2 7 22.2.2 7-6.4 15.1-14.8 15.1" style="fill:url(#c)"/><path d="M28.7 97.7c-2 3-6.3 2.4-6.3-2.6 0-3.1.7-19.2 3.4-17 4.3 3.7 5.6 15.4 2.9 19.6" style="fill:#81d4fa"/><path d="M27.4 39.8c-2.2.4-2.3 3.6 0 3.7a21 21 0 0 0 18.1-10c.6-.8.4-2-.4-2.5s-2-.4-2.6.4a26 26 0 0 1-15.1 8.4m58.7-8.3q-1.2-1.5-2.6-.5c-.9.5-1 1.7-.5 2.5q1.5 2.6 3.8 4.5a21 21 0 0 0 14.3 5.5c2.4-.2 2.3-3.4 0-3.7a26 26 0 0 1-15-8.3M44 50c-4.2 0-8 3.5-8 9.4s3.8 9.4 8 9.4 8-3.6 8-9.4-3.8-9.5-8-9.5" style="fill:#422b0d"/><path d="M43.7 53.9a3 3 0 0 0-3.9 1.3q-.7 1.8.6 3.3a3 3 0 0 0 3.9-1.3 3 3 0 0 0-.6-3.3" style="fill:#896024"/><path d="M82.4 50c-4.2 0-8 3.5-8 9.4s3.8 9.4 8 9.4 8-3.6 8-9.4-3.8-9.5-8-9.5" style="fill:#422b0d"/><path d="M82 53.9a3 3 0 0 0-3.8 1.3q-.7 1.8.6 3.3c1.4.7 3.1 0 3.8-1.3.5-1.1.3-2.5-.6-3.3" style="fill:#896024"/></svg>