<svg xml:space="preserve" width="16" height="16" viewBox="0 0 128 128"><path d="m10.4 124.3.2-44.4 1.7-1.3h102.9l2 1v44.7z" style="fill:#eebf72"/><path d="M10.7 76c-.4 0-.1 4.4-.1 4.4l106.7-.3s.7-4.2.2-4.7c-.6-.6-106.8.5-106.8.5" style="fill:#cf701d"/><path d="M94.7 21.6v13.1h-5s0 5.8.2 5.8c.3.2 11.5 2.7 11.5 2.7l14.3-2.5.1-5.7h-5l.1-14.2-11.3-.8zm-.9 23.6-.1 79h17l.9-80zM42.5 66.3S41 69.4 41 69.7l.3 54.7h45.4s1.2-54.5.8-55-44.9-3.1-44.9-3.1M17.2 21.4v13.4h-4.9s-.2 5.6.1 6c.6.4 15 2.6 15 2.6s10.6-2.1 10.8-2.7l.2-5.5h-5.2V20.7l-9.6-.9zm-.5 24.4.6 78.5h17L34.2 45z" style="fill:#fbdaa6"/><path d="M12.4 40.7h25.8l-4 5.5-17.5.1zm4.4 26.8 17.3-.2.1 5.7H16.9zm6.4 51.3h5V82.9L26 80l-2.4 2.8zm76.8 1h4.6l.3-37.2-2.4-3.2-2.3 3.2zm-6-53.7-.1 5.8H111l.1-5.9zm-.2-19.6 17.8-.1 4-5.7-25.8-.2z" style="fill:#eebf72"/><path d="M41 85v-5.4h46.4V85z" style="fill:#cf701d"/><path d="M97.8 24h3.8v10.1h-3.8zm6.6.1h3.6v10h-3.7zM20 24h3.7v10l-3.7.1zm6.6 0h3.6v10.1h-3.6zm21.2 46.4c-5 0-4.6 5.7-4.6 5.7h8.9s.4-5.7-4.3-5.7m6.3 5.8s-.5-5.7 4.6-5.8c4.7-.1 4.2 5.7 4.2 5.7zm31.6-.2s1-5.7-4.4-5.8c-5.2-.1-4.6 5.8-4.6 5.8zm-11.3 0s1-5.9-4.5-5.7c-5.1 0-4.6 5.7-4.6 5.7zm4.6 48.4.2-14.7 2.5-3.1s-2.6-1.2-2.6-4.2c0-4 4-6.6 4-6.6s4 2.4 4 6.8c0 2.6-2.7 4-2.7 4l2.5 3.2-.3 14.6zm-38 0 .1-15 2.6-2.8s-2.5-1.7-2.6-4c-.2-5.4 4-6.8 4-6.8s4.2 2.3 3.9 6.8c-.2 2.7-2.6 4-2.6 4l2.5 3-.1 14.8z" style="fill:#b7885a"/><path d="M64.3 88S53 91.7 53.5 100.9c.2 4 3.1 5.8 3.1 5.8l-2.9 3-.1 14.8h20.7v-14.8l-2.7-3s2.8-1.7 3-6c0-9-10.4-12.7-10.4-12.7" style="fill:#966737"/><path d="m40.9 69.7 46.5-.2s2.5-3 2-10.2c-.4-6.8-4.8-10.9-4.8-10.9L56 49H43s-3.6 3.9-4 10.6a23 23 0 0 0 2 10.1" style="fill:#ffa828"/><path d="M64.1 34.3s-8.5 3-15 8.5c-5.1 4-6.6 6.6-6.6 6.6s-1.7 17.9 21.7 18.3c20.6.4 20.5-19.3 20.5-19.3s-4.3-5-8.7-7.7c-6-3.7-12-6.4-12-6.4" style="fill:#fcc11a"/><path d="M67.3 33.5c0-1.7-1.4-3.1-3.2-3.1-1.7 0-3.1 1-3.2 2.8-.2 2.2 1.2 3.5 3.2 3.5 1.7 0 3.2-1.4 3.2-3.2M54.4 16l-2.3 3.4s-.8 12.8 12.2 12.8C76 32.2 76.9 21 76.1 20.4c-.4-.2-5.5 5.9-5.7 6s-9.2-.7-9.5-1z" style="fill:#ffa828"/><path d="M64.2 12.7c-.4.3.9 4 .9 4s-2 3-1.7 3.5 3.2.2 3.2.2 2.4 2.5 3 2.4 1.4-3.2 1.4-3.2 3.4-1 3.4-1.5-3-2.7-3-2.7.2-3.4 0-3.6-3.4 1.7-3.4 1.7-3.3-1.3-3.8-.8m3-4c0 .4-6 1.5-7.2 6.9-1 5.5 2 9.2 7.7 9.5s6.8-5.5 8.4-4.7c.5.2-1.7 9.2-11.7 9-9-.3-12.2-6.8-12.3-9.4a11.5 11.5 0 0 1 7.4-11.7c3.5-1.3 7.6-1 7.7.4" style="fill:#fcc11a"/><path d="M94.4 21.8c.4.3 16.5.3 16.8 0 .2-.1.4-2.6.5-3.7 0-3.4-.8-5-.8-5s-15.8-.2-16.2.1-.7 2.2-.8 4.5q0 3.9.5 4.1M17 21.5c.4.2 16.3.2 16.4 0 .2-.2.7-2.6.7-4.2-.1-2.2-.5-3-.8-3.7-.7-1.2-15.4-1.6-15.8-.8s-1 2.6-1 4.7c-.1 1.7.3 3.7.6 4" style="fill:#ffa828"/><path d="M28 4.1A3 3 0 0 1 25 7c-1.4 0-2.6-1.3-2.6-2.7s1.3-2.8 2.7-2.8S28 2.7 28 4m77.6.1c0 1.5-1.2 2.6-2.7 2.6s-2.6-1.2-2.6-2.6 1.1-2.7 2.6-2.7 2.7 1.3 2.7 2.7m-11.1 9.6s1 4.7 8 5c7.6.2 8.5-5.4 8.5-5.4s-1-2.2-2.7-4c-1.8-2-4.4-3.7-5.4-3.7S99.1 7 97.4 9c-2 2.1-3 4.4-3 4.6M25.2 5.4a19 19 0 0 0-5 3.7c-1.9 2.2-2.7 3.7-2.7 3.7s.5 5.7 7.5 5.8c7.6.2 8.3-5 8.3-5S32 11.4 30 9.2a21 21 0 0 0-4.9-3.7" style="fill:#fcc11a"/></svg>