<svg xml:space="preserve" width="16" height="16" viewBox="0 0 128 128"><path d="M90.3 33.5C92.8 23.4 87 12 78.8 8.5c-6.1-2.5-13.2-2-19.3.2C50 12 46 20.4 46.7 29.5c.3 4.7 1.6 7.3 3.3 11 .8 2.4-3 5.5-3 8.2 0 2 4.4 2.3 4.8 2.6.4.2.8 1.1 1 1.8 2 4.6 3.5 7.6 11.5 6.6 2.6-.5 5.2-1.7 5.7-.9s.8 3.3.9 4a27 27 0 0 1-2.8 5.6l20-2.3 1.4.3-.2-3.6s-5.4-9.2-2-20.6c.6-1.5 2.7-7.5 3-8.7" style="fill:#a56c43"/><path d="M59.4 42.8c1.8 0-.8 2.3-3.2 2.4-1.7.1-3.7-.7-3-3.3.3-1.1 1 .8 2.5 1 1.6.3 3.7 0 3.7 0m-5.8-5.4c-2 .4-2.6-.6-2-1.7q.8-1.4 4.5-.8a6 6 0 0 1 4 2.1q1 1.4.1 1.7c-.7.1-3-2-6.6-1.3" style="fill:#42312c"/><path d="M93 26.5C95.4 23 95 17 92 14c-4-4.3-9-4-9.8-4C79 3.9 70.4 2.8 63.4 5.2c-2.8 1-5.4 3-7.6 5l-1.7 1H54l-.3.1c-3.7 1-5.6-.8-5.5-3.9 0 0-8 3-3.2 10.6a8.7 8.7 0 0 0 2.5 15.7c-.4-1-1.4-6.1 7.5-6.6a15 15 0 0 0 8.5-3.6h.3c3.6 1.2-.1 9 4.2 13 .9.8 1.5.4 1.5.4l1.1-2.4c1-1.7 1.8-3.1 3.2-3 4.3.3 4.6 7.8 0 10.1-.5.3 2.8 8.6 13 7.2 5.3-.8 6.5-5.4 6.5-5.4q-.7.3-2 0l-.3-.2-.6-.6q-.6-1.5 1.7-4.3c4.2-4.9 1.8-10.4.9-11.8" style="fill:#3c2c23"/><radialGradient id="a" cx="80.1" cy="37.2" r="14.2" gradientTransform="rotate(20.3 126 45.45)scale(1 1.44)" gradientUnits="userSpaceOnUse"><stop offset=".5" style="stop-color:#554138;stop-opacity:0"/><stop offset="1" style="stop-color:#554138"/></radialGradient><path d="M93 26.5a11 11 0 0 1-7.2 4.4l-1.7.3c-4.3.6-5.8 7 .1 12 4.1 3.3 9 .2 9 .2s-.6.3-1.7 0c-.7 0-1.1-1-1.1-1q-.5-1.5 1.7-4c4.2-5 1.8-10.5.9-12" style="fill:url(#a)"/><radialGradient id="b" cx="-2433.6" cy="-209.7" r="14.8" gradientTransform="matrix(.963 -.264 .333 1.127 2494.71 -381.37)" gradientUnits="userSpaceOnUse"><stop offset=".5" style="stop-color:#554138;stop-opacity:0"/><stop offset="1" style="stop-color:#554138"/></radialGradient><path d="M92.7 14.8A13 13 0 0 0 82.2 10c.6 1.3.4 6-2.5 9.1 1.8 1.7 4 3.7 5 5.9.9 1.8 1.8 4 1.1 6 1.3-.3 7.5-1.7 8.6-8.3a11 11 0 0 0-1.7-7.9" style="fill:url(#b)"/><radialGradient id="c" cx="-2448" cy="-213.2" r="27.4" gradientTransform="rotate(-17 -574.9 -8494.11)scale(1 .752)" gradientUnits="userSpaceOnUse"><stop offset=".5" style="stop-color:#554138;stop-opacity:0"/><stop offset="1" style="stop-color:#554138"/></radialGradient><path d="M82.2 14q.6-2.5 0-4.2s-.6-1-1.6-2q-1.3-1.3-3.1-2.3C73 3.1 65.9 3.9 62 5.8c-3.2 1.5-4 2.7-6.2 4.3-1.5 1.2-3 2-5.4 1.3s-2.2-4-2.2-4-8 3-3.2 10.6a8.7 8.7 0 0 0 2.5 15.7s-1.8-5.8 6.5-6.5c2.7-.3 4.5-.5 6.8-1.9 2.2-1.2 3.3-3 5.8-3.3 2.7-.2 6.5.4 9.3-.4 5.5-1.7 6.3-7.5 6.3-7.6" style="fill:url(#c)"/><radialGradient id="d" cx="-2432.1" cy="-194.4" r="15.7" gradientTransform="rotate(6.1 -2720.4 23545.82)scale(1 .643)" gradientUnits="userSpaceOnUse"><stop offset=".5" style="stop-color:#554138;stop-opacity:0"/><stop offset="1" style="stop-color:#554138"/></radialGradient><path d="M84.2 43.1c-2-1.7-4-5-7.1-6.3a6 6 0 0 1-3.4 4.8c-.4.2 3 8.6 13 7.2a8 8 0 0 0 6.6-5.4s-4.9 3-9.1-.3" style="fill:url(#d)"/><path d="m52.9 53.2 1.1-.1q1.5-.1 2.5-.9c1.4-1 2.6-.1 1.5 1.2a6 6 0 0 1-4 2.2z" style="fill:#473530"/><radialGradient id="e" cx="48.9" cy="97.6" r="45.2" gradientUnits="userSpaceOnUse"><stop offset="0" style="stop-color:#f78c1f"/><stop offset=".5" style="stop-color:#f47f12"/><stop offset="1" style="stop-color:#ef6c00"/></radialGradient><path d="M36.2 124h57.5s-2.3-8-1.7-14.7c1-10.2 4.3-13.4 4.3-29.5 0-11.6-6.3-22-14.6-21.6-10.5.4-14 5.5-21.8 10.3C49.4 75 48.3 79.8 49.1 85.4c.3 1.8-.7 2.2-2 3-9.2 6-16 12-15.4 24.6.4 6.8 4.5 11 4.5 11" style="fill:url(#e)"/><linearGradient id="f" x1="62.5" x2="62.5" y1="81" y2="124.6" gradientUnits="userSpaceOnUse"><stop offset="0" style="stop-color:#8d5738"/><stop offset=".5" style="stop-color:#a56c43"/></linearGradient><path d="M88.2 71c-2.6-6-12.4-2.8-13.4 4.7-1 6.3 2 28.1 2 28.1s-7.3 4-15.7 5c-2 .3-5.8.4-6.4.2-1-.6-1.4-1.7-2-2.4q-.8-1.2-2-2.2l-2-1.2q-1.8-.7-3.6-1.7-.4-.2-.9-.1l-.3.3q-.4 1.1.5 2t1.9 1.4q1.3.7 1 1.9a25 25 0 0 1-5.9 0l-3.4-.6c-.6-.2-1.8-.6-2.2.3q-.2 1 .5 1.5h.1l-.6-.3-1-.2q-.8.3-.8 1c-.1 1.1 1 1.8 1.1 1.8 0 0-.7 0-.9.8q0 .8.6 1.7l1.3 1.2s-.6 0-.7.5q-.3 1.2 1.3 2s1.6 1 3.1 1.6a20 20 0 0 0 8.4 1.2c3.6-.4 31.9-2.7 37.3-4.5 5-1.8 5.1-5.8 5.4-9 .3-4 0-29-2.7-35" style="fill:url(#f)"/><path d="M43.4 109.9c.5 0 1 .2.5.7-.3.3-2.4-.2-3.7-.5-1.6-.3-3.2-1-4-1.9l-.1-.3q1.8 1 3.9 1.4zm.2 4c0 .4-.7.3-1 .3q-2.6-.3-4.7-1.3c-2.9-1.3-3.1-2.6-3.1-2.6s2 1.3 3.4 1.8q2 .8 4.6 1.2.6-.1.8.5m0 3.1c0 .5-.7.4-1.2.3 0 0-2-.3-4-1.2-2-1-3-2.4-3-2.4s2.3 1.3 3.2 1.6c.8.3 2.7.8 4 1 .3.1 1 .2 1 .7" style="fill:#875334"/><path d="m77 91.3 12.7-.8c2.5-.1 4.4-1 4.4-3.3l-1.4-14.7c-1-7-5.2-8.5-11.2-8-6 .3-9.5 4.8-9.4 10.3l.5 14c0 2.2 2 2.7 4.5 2.5" style="fill:#ed6d23"/></svg>