<svg xml:space="preserve" width="16" height="16" viewBox="0 0 128 128"><path d="M61 56c-.4 1.8-1.3 6.9-1.5 8.7-.3 2.3-.2 5.4 0 8l2.1 13.9a2 2 0 0 1-1.2 2.2c-3 1.2-9.7 3.7-19.2 5.5q-12.8 2.3-16.6 2.5a2 2 0 0 1-2.2-1.6A333 333 0 0 0 12 57.6L4.5 35.2c-1.1-3-.3-6 2.6-7.3 3-1.2 5.2.2 6.3 2.9L18.1 43c.2.6.7 1.5 1.2 1.3q.8-.2.6-1.2c-1-3.9-5-16.7-5.6-19.1-.6-3.4.4-6.3 3.5-7 3.1-.9 5.8 1.3 6.5 3.9l5.6 19.6c.4 1.2 1.6.4 1.5-.2l-4.2-22.9c-.8-4.8 1.7-7.7 4.9-7.8 2.5-.1 5.3 1.1 6 5.3l4.1 23.9c.3 1 1.2 1 1.1-.3L42 18c-.3-4.9 1.7-6.4 4.3-6.6 3.9-.2 5.4 2 5.8 6.3l1.8 19.8c1.2-1.3 2.6-2.7 5-2.7 2 0 3.7.4 4.7 4.3.9 3.4-1.6 12.1-2.6 16.9" style="fill:#82aec0"/><path d="M47.8 55.8c-.4-6.2.2-17.8 6-20.5l.1 2.2c-3.5 4.8-4.5 19-4.5 20.9-.1 2-1.4 1-1.6-2.6M28.9 96.3s-1.6-.2-2.4-2.3c-.8-2.2-2.7-12-2.8-12.8-.2-1.7.3-1.7.6-1.7q.5-.2 1.2 2.4zm7.7-1.3s-1.5-.1-2.3-2.3-2.7-11.6-2.8-12.5c-.2-1.7.1-1.8.3-1.9.4-.2 1 .3 1.5 2.4zm7-1.3s-1.5-.2-2.3-2.4c-.6-1.6-2.2-8.5-2.8-12-.2-1.2 0-2.3.6-2.3.2 0 .6-.3 1.2 2.3zm12.8-3.4s1.3-.9 1.1-3.2c-.2-1.7-1.6-8.6-2.6-12-.1-.5-.6-1.7-1.3-1.6q-.9.3-.3 2.4zm-7.4 2s1.4-.8 1.2-3a143 143 0 0 0-2.5-11.7q-.3-2-1.3-2.2-1.1.2-.4 2.5z" style="fill:#2f7889"/><path d="M66.8 80a41 41 0 0 1 1.3 16.7l-2 13.2a3 3 0 0 0 1.8 3.2 106 106 0 0 0 35.5 7.2 3 3 0 0 0 2.9-2.3c1.1-6.1 4.6-23 9.5-36l7.7-22.3c1.2-3 .4-6-2.5-7.3-3-1.3-5.2.1-6.4 2.8l-5.3 13q-.3.7-1 .5-.3-.1 0-1c1-3.9 5-17.6 5.4-20 .6-2.9-.5-5.5-3.6-6.4a5 5 0 0 0-6.3 3.5L98 65.6c-.1.7-1.3.5-1-.6l4.8-23.4c.8-4.6-1-7-4.3-7.6s-5.9.8-6.7 5.5l-4.4 24.1c-.2.8-1.3.7-1.2-.3l1.9-21.8c0-4.4-2.2-6-5.1-6-4 0-5.6 2.8-6 6.7l-2 19.4s-2-2.5-4.6-2.5c-1.2 0-4.3.7-4.5 4.9a88 88 0 0 0 2 16" style="fill:#82aec0"/><path d="M71 79.5c-.9-6.2.2-20 .2-20 1.4.3 2.8 2.1 2.8 2.1l-1.4 20.6s-1 1.4-1.6-2.7m.9 35s-1.4-.8-1.3-3c.1-1.9 1.5-9.4 2.3-12.5.4-1.9 1-1.8 1.2-1.8q.7-.2.4 2.8zm7.6 2.5s-1.3-.9-1.2-3.1a118 118 0 0 1 2.3-12.5c.5-1.8 1-1.8 1.2-1.8.5 0 .7.6.4 2.8-.5 3.4-2.7 14.5-2.7 14.5m7 1.6s-1.4-.8-1.3-3.1c.1-1.8 2-11 2.3-12.5q.4-2 1.2-1.9c.5 0 .8.5.4 3zm13 1.7s1.5-.3 2.2-2.5c.6-1.8 2.1-9.3 2.5-12.5 0-.7 0-2-.5-2.2-.4-.1-.9 0-1.4 2.7zm-7.5-.8s1.6-.3 2.3-2.4 2.4-12.5 2.4-13.3q0-1.7-.7-1.4c-.5 0-.8 1.3-1.1 2.6z" style="fill:#2f7889"/></svg>