<svg xml:space="preserve" width="16" height="16" viewBox="0 0 128 128"><path d="M101 22.6C97.3 6.2 74.6 4.6 64.9 4.4h-2.2C53 4.5 30.8 6 27 22.6a248 248 0 0 0-2.8 43.6c1 11 5.6 14.6 20.3 19 10.7 3.2 16 4.3 18.2 4.6v.1h2.2c2.2-.4 8-1.5 18.7-4.7 14.7-4.4 19.5-8 20.5-19a249 249 0 0 0-3-43.7" style="fill:#424242"/><path d="M96.6 77.5c-1.5-2.4-.3-4.8 1.8-7.7a23 23 0 0 0 .6-23.5l-1-1.6h-1.4a2619 2619 0 0 0-65.2 0L29 46.2a23 23 0 0 0 .6 23.5c2.1 3 3.3 5.3 1.8 7.7s-4.9 2.8-4.9 2.8.4 2.4 2.2 3.8a9 9 0 0 0 5.3 1.6s5 10.1 21 10.1h18c16 0 21-10 21-10a9 9 0 0 0 5.3-1.7 7 7 0 0 0 2.2-3.8s-3.5-.4-4.9-2.8" style="fill:#ab872f"/><radialGradient id="a" cx="100.2" cy="47.1" r="24.9" gradientTransform="matrix(1 0 0 .491 -22.11 56.75)" gradientUnits="userSpaceOnUse"><stop offset=".7" style="stop-color:#bfa055;stop-opacity:0"/><stop offset="1" style="stop-color:#bfa055"/></radialGradient><path d="M64 95.8V84.7L91.2 82l2.8 3.6s-5 10.1-21 10.1z" style="fill:url(#a)"/><radialGradient id="b" cx="80.2" cy="54.4" r="7" gradientTransform="rotate(155 85.85 60.51)scale(1 .742)" gradientUnits="userSpaceOnUse"><stop offset=".7" style="stop-color:#bfa055"/><stop offset="1" style="stop-color:#bfa055;stop-opacity:0"/></radialGradient><path d="M93.5 81.1c-4.8-7 3.7-9.5 3.7-9.5q-2.1 3.2-.6 6c1.4 2.3 4.9 2.7 4.9 2.7s-4 4.8-8 .8" style="fill:url(#b)"/><radialGradient id="c" cx="52" cy="47.1" r="24.9" gradientTransform="matrix(-1 0 0 .491 101.94 56.75)" gradientUnits="userSpaceOnUse"><stop offset=".7" style="stop-color:#bfa055;stop-opacity:0"/><stop offset="1" style="stop-color:#bfa055"/></radialGradient><path d="M64 95.8V84.7L37 82l-3 3.6s5 10.2 21.2 10.2z" style="fill:url(#c)"/><radialGradient id="d" cx="28.2" cy="53.3" r="7" gradientTransform="rotate(205 4.26 51.64)scale(-1 .742)" gradientUnits="userSpaceOnUse"><stop offset=".7" style="stop-color:#bfa055"/><stop offset="1" style="stop-color:#bfa055;stop-opacity:0"/></radialGradient><path d="M34.6 81.1c4.7-7-3.7-9.5-3.7-9.5 1.2 2.2 1.7 4 .5 6-1.4 2.3-4.9 2.7-4.9 2.7s4 4.8 8 .8" style="fill:url(#d)"/><linearGradient id="e" x1="64" x2="64" y1="38" y2="3.8" gradientTransform="matrix(1 0 0 -1 0 130)" gradientUnits="userSpaceOnUse"><stop offset="0" style="stop-color:#f44336"/><stop offset=".4" style="stop-color:#e73b32"/><stop offset="1" style="stop-color:#c62828"/></linearGradient><path d="M64.1 96c-25.6 0-52 7.1-52 25v3h104v-3c0-16.9-26.1-25-51.9-25" style="fill:url(#e)"/><path d="M66 124v-17.2q-.2-.9-2-1c-1.8-.1-2 .5-2 1V124z" style="fill:#fff"/><circle cx="74.1" cy="118.2" r="3" style="fill:#fff"/><path d="M46.7 90.8q-1 0-2.3.3c-5.1 1.3-15.5 3.3-20.1 3.3h-1.1c-7.4 0-9.5 7.1-7.3 10.5q3 4.2 8.4 4c8 0 18.8-5.8 24.1-8.2 7-3 4.5-10-1.7-10m58.1 3.7h-1.1c-4.6 0-15-2-20-3.3l-2.4-.3c-6.2 0-8.7 6.8-1.7 10 5.4 2.3 16 8 24.2 8 3.4 0 6.5-1 8.3-3.9 2.2-3.4.1-10.5-7.3-10.5" style="fill:#404040"/><path d="M76.3 92.1c-.5 0-1.2.8-2 1-2.2 1-5.6 1.9-7.6 2.3-1.3.2-2.4 1.5-2.7 3-.3-1.5-1.4-2.8-2.7-3-2-.4-5.3-1.7-7.7-2.4l-1.4-.3c-.7 0-1.3.5-1.3 2.7v9.2q0 1.3 1 1.9c1.2.7 6.6 1 12 1s11-.3 12.1-1q1-.7 1-1.9v-9.2c.1-2.6-.2-3.3-.7-3.3" style="fill:#383535"/><path d="M90.5 50.4h-53c-5.8 0-10.4 5.2-10.4 11.4s4.6 11.5 10.4 11.5h53c5.7 0 10.4-5.2 10.4-11.5s-4.7-11.4-10.4-11.4" style="fill:#c48e6a"/><path d="M64 16c-17.2 0-33.1 12.8-33.1 40A40 40 0 0 0 56 94.8a24 24 0 0 0 7.9 1.5q3.6 0 7.8-1.5A40 40 0 0 0 97.1 56c0-27.2-15.9-40-33.1-40" style="fill:#e0bb95"/><path d="M67.8 74h-7.6q-1.1.5-.7 1.7c.4 1.2 1.7 2.6 4.5 2.6a5 5 0 0 0 4.5-2.6q.4-1.2-.7-1.7" style="fill:#c48e6a"/><path d="M72.3 81.1a25 25 0 0 1-16.6 0c-1.8-1-3.6.6-2.9 2.3s6.4 5.3 11.2 5.3 10.5-3.7 11.2-5.4c.8-1.6-1-3.2-2.9-2.2" style="fill:#6d4c41"/><ellipse cx="47.6" cy="64.3" rx="4.9" ry="5.1" style="fill:#5d4037"/><ellipse cx="80.5" cy="64.3" rx="4.9" ry="5.1" style="fill:#5d4037"/><path d="M92.1 64.1S84.8 93.4 64 93.4 35.9 64 35.9 64" style="fill:none;stroke:#4e342e;stroke-width:3;stroke-linecap:round;stroke-linejoin:round;stroke-miterlimit:10"/><radialGradient id="f" cx="63.6" cy="55.9" r="42.6" gradientTransform="matrix(1 .01 -.012 1.267 .67 -15.54)" gradientUnits="userSpaceOnUse"><stop offset=".6" style="stop-color:#424242"/><stop offset="1" style="stop-color:#616161"/></radialGradient><path d="M104 66.2a249 249 0 0 0-3-43.6C97.3 6 74.6 4.6 64.9 4.4h-2.2C53 4.5 30.8 6 27 22.6a248 248 0 0 0-2.6 45c1.9.6 4.3.9 6 .7 11-1.7 22.1-4 33.3-4 11.4 0 22.8 2.3 34 4 1.6.2 4 0 6.2-.6z" style="fill:url(#f)"/></svg>