<svg xml:space="preserve" width="16" height="16" viewBox="0 0 128 128"><path d="M116 4H12a8 8 0 0 0-8 8v104a8 8 0 0 0 8 8h104a8 8 0 0 0 8-8V12a8 8 0 0 0-8-8" style="fill:#bdbdbd"/><path d="M109.7 4H11.5A7.6 7.6 0 0 0 4 11.5v97.9c0 4.1 3.3 7.5 7.5 7.5h98.1c4.1 0 7.5-3.3 7.5-7.5V11.5c0-4-3.1-7.4-7.2-7.5z" style="fill:#e0e0e0"/><path d="M39.7 12.9c0-2.3-1.6-3-10.8-2.7-7.7.3-11.5 1.2-13.8 4-1.9 2.3-2.3 5.6-2.6 8.4-.2 2.2-2.2 14.9 3.5 11.2q1-.6 1.6-1.8c1.2-2.1 1.9-3.5 3.3-5.6 5.3-8.6 18.8-10.5 18.8-13.5" style="fill:#fff"/><path d="M36 98.6a18 18 0 0 1-7.2-13.8c0-9 7.4-16.5 16.5-16.5 6.3 0 10.4 2.2 13.5 6.8 1.2 1.7 2.8 1.4 2.8-.4l-.1-5.2q-.2-13-19-12.8H35c-10.7 0-17.4 4.7-17.4 14v25a7 7 0 0 0 7 7h6.7c1.2-1.6 4.7-4.1 4.7-4.1"/><circle cx="39.5" cy="37.9" r="15.2"/><path d="M90.1 56.8h-6.3c-9.1 0-16.6 6-16.6 17.9v.2q0 1.3.5 1.4.8.1 1.4-1.1c3-4.7 6.9-6.9 13.2-6.9A16.5 16.5 0 0 1 92 98.1s3.4 2.6 5 4.5l.1.1h4.7a7 7 0 0 0 7-7V73.5c0-11.3-9.5-16.6-18.7-16.6M105.9 46c-2-4-2-7.6-3-11.3a15.2 15.2 0 0 0-29.8 0c-1 3.7-1 7.3-3 11.2-1.6 3.4-3.3 3.2-3.3 5s2.5 3.1 5.7 3.5c2.6.4 5.4.1 7.5-.7a16 16 0 0 1-5.7-8.2c-.2-1.2-.5-2.2.1-2.3.8-.2.6 1.3 2.3 3.5 3.4 4.5 6.3 6 11.2 6 5 0 7.9-1.5 11.3-6 1.7-2.2 1.5-3.5 2.3-3.5s.4 1.3 0 2.4c-.4 1.8-2 5.6-5.5 8.1 2.1.8 4.9 1 7.5.7 3.1-.4 5.7-1.8 5.7-3.5s-1.7-1.6-3.3-5"/><circle cx="82.1" cy="84.8" r="12.3"/><path d="M70 110.8c-1 0-1.8-1-1.6-2 1.4-5 7-9 13.7-9s12.3 4 13.7 9c.2 1-.5 2-1.5 2z"/><circle cx="45.5" cy="84.8" r="12.3"/><path d="M33.3 110.8c-1 0-1.7-1-1.5-2 1.4-5 7-9 13.7-9s12.3 4 13.7 9c.2 1-.5 2-1.5 2zm36.3-16c-.8-1-2.9-1.4-4.4-.1-.6.4-1.4 1.4-1.4 1.4s-.8-1-1.4-1.4c-1.5-1.3-3.6-.8-4.4.1q-2 2.4.5 5.6c2.3 2.8 5.3 5.5 5.3 5.5s3-2.7 5.2-5.5q2.6-3.1.6-5.6"/></svg>