<svg xml:space="preserve" width="16" height="16" viewBox="0 0 128 128"><path d="M102.7 116.6s-4-1.6-6-3.1-3.7-3.4-4.8-4.5q-1.2-1-2-1-1 0-1.6.9l-2.6 3.2c-1 1.8-.2 4.1-.2 4.1s-2.7 2.9 1.8 3.9 10.2 1.5 10.2 1.5l1 .1c1.9 0 4.6-.7 5.4-2.7 0 0 1.3-1.4-1.2-2.4" style="fill:#4568ac"/><path d="M85.3 111.5 70 109.7s5.1-15.8 6.6-23.3c0 0-12.5 3.7-19 3.7l-1 19.8c-.4 8.4 2.2 10.9 6.3 11.8q1.4.3 3.2.3c5.3 0 12.9-1.7 19-2.5 2.4-.2 1.7-6.9 0-8" style="fill:#616161"/><path d="M47 119.6c0-2-2-4.4-2-4.4h-7.6l-6.9 2.3a4 4 0 0 0-2.8 4v1.4q.1 1 1.1 1.1h17q1.2-.1 1.3-1.3z" style="fill:#4568ac"/><path d="M77.4 77.6q0-.5-.5-.4l-18 1.2c-.2 0-10.4 1.4-16.7 2-7.4.6-8.1 8-7.8 15a375 375 0 0 0 2.2 20.3s1.8 1 5 1c3 0 4.6-1 4.7-1l.2-.4L49 94.6c1.3-.1 5.4-.3 8.7-.2 6.5.3 13 0 16.8-4.2q3.9-4.2 2.8-12.6" style="fill:#7c7c7c"/><path d="M69 29c1-3.7 1.6-8.3 1.1-11.1q0-1-.5-1.6-.9-1.7-2.4-3.1l-.8-.7-.1-.1-.7-.5-.1-.2-.7-.4-.2-.2-.7-.4-.2-.1-.7-.4-.2-.1-.8-.4h-.1q-2.4-1-4.8-1H56c-5.7.7-9 4.7-10 9.9a14 14 0 0 0-.2 5l.3 1.8c.2 1.4-2.6 2.6-3 4.2-.3 1.1 2.1 2 2.3 2.2.9 1-.9 6 5.8 6.8l3.6.3c1.6.3 1.1 6.7 1.1 6.7l11.5-2.3s-1.5-7.4.2-10.7q.8-1.5 1.3-3.6" style="fill:#a56c43"/><path d="M46 34.6q1.3.2 2.6-.6c.9-.6.3-1.3-.7-1a4 4 0 0 1-2.2.2z" style="fill:#473530"/><ellipse cx="50.2" cy="26.3" rx="1.9" ry="1.2" style="fill:#42312c" transform="rotate(-89.2 50.2 26.34)"/><path d="M49.4 23.5c-1.2.2-1.4-.6-1-1.2q.5-.7 2.5-.3 1.8.8 2 1.7.4 1.2 0 1c-.5 0-2-1.5-3.5-1.2" style="fill:#42312c"/><radialGradient id="a" cx="62" cy="72.2" r="17" gradientTransform="matrix(1 0 0 -1 0 128)" gradientUnits="userSpaceOnUse"><stop offset=".4" style="stop-color:#651fff"/><stop offset=".8" style="stop-color:#5914f2"/><stop offset="1" style="stop-color:#530eeb"/></radialGradient><path d="M71.3 48.8c-1.9-6.4-5-8-7.8-8-3 0-5.4 1.7-5.4 1.7C53.3 46 53.3 51 52.9 58s-.8 21-.8 21 5.4 2.2 13.7 2.2h.7c8.6-.1 11.8-3.1 11.8-3.1s-4.6-21.4-7-29.3" style="fill:url(#a)"/><linearGradient id="b" x1="53.1" x2="51" y1="47.9" y2="62.3" gradientTransform="matrix(1 0 0 -1 0 128)" gradientUnits="userSpaceOnUse"><stop offset=".5" style="stop-color:#a56c43"/><stop offset="1" style="stop-color:#8d5738"/></linearGradient><path d="M71.4 66.9c-.4-3-2.7-14.4-2.7-14.5q-.2-.5-.6-.4L58 53l-.5.5L61 68.8c-1.8 1-10.4 6.1-12.9 6.6-1.6.4-4.5.8-7.8 1.2-2.6.4-5.3 3.8-6.6 5.9a1.7 1.7 0 0 0 2.3 2.3l3.6-2.2q.9.2 4 .2c2.6-.1 5-1.2 5.1-1.2 1-.4 5.3-1.1 9.5-1.9l8.5-1.6C73 76.8 72 69.6 71.4 67" style="fill:url(#b)"/><path d="M69.7 52.9c-.5-3-2.9-6.6-6.8-6.6l-1 .1c-4.6.8-6 5.6-5.4 8.8l2 9.6 13.1-2.3z" style="fill:#3615af"/><path d="M81.8 31.4c.3-8.2 5.1-13.2-.2-19.6C78.2 7.6 71.2 9.4 70 11c-2.4 3 1.6 6 2.6 7.5 1.3 2.3-1.2 11.6 3 18.3 5.6 9 11.3 7.7 11.3 7.7s-5.4-5.1-5-13" style="fill:#3c2c23"/><radialGradient id="c" cx="73.8" cy="102.8" r="15.1" gradientTransform="rotate(173.6 2.78 78.88)scale(-1 1.21)" gradientUnits="userSpaceOnUse"><stop offset=".5" style="stop-color:#554138;stop-opacity:0"/><stop offset="1" style="stop-color:#554138"/></radialGradient><path d="M82.3 27.6c1.1-6.1 3.7-10.5-.7-15.8C78.2 7.6 71.2 9.3 70 11c-2.4 3 1.7 5.9 2.6 7.5a79 79 0 0 0 9.7 9" style="fill:url(#c)"/><radialGradient id="d" cx="87.6" cy="90.9" r="16.2" gradientTransform="matrix(-.985 .17 .21 1.216 154.9 -88.4)" gradientUnits="userSpaceOnUse"><stop offset="0" style="stop-color:#554138"/><stop offset=".5" style="stop-color:#554138;stop-opacity:0"/></radialGradient><path d="M81.8 31.4q.1-3 1-6c.4-1.8.8-3.4-.3-5a7.4 7.4 0 0 0-8.4-2.6q-1.4.4-1.3 1.7l.2 2V26a21 21 0 0 0 2.6 10.7c5.6 9 11.3 7.7 11.3 7.7s-5.4-5.1-5-13" style="fill:url(#d)"/><radialGradient id="e" cx="81" cy="96.7" r="8.8" gradientTransform="rotate(160.2 51.36 -138.56)scale(1 -3.19)" gradientUnits="userSpaceOnUse"><stop offset=".5" style="stop-color:#554138;stop-opacity:0"/><stop offset="1" style="stop-color:#554138"/></radialGradient><path d="M72.8 16.3c1 2.2.2 6.4.2 8q-.1 2.7.6 7.4c1.5 7.6 8 11.5 8 11.5z" style="fill:url(#e)"/><path d="M70.8 12.6a16 16 0 0 0-11.4-5.4c-4-.2-9.3.7-12.6 4q-3.1 3-2.8 7.4c.2 1.7 1.6 2.6 1.6 2.6s1.6-4 5.6-3c4.2 1.1 6 .3 6 .3-1.4 3.3-.1 5.1 1 6.2l1.5 1.7q.3.3.4 0l.7-2c.8-1.5 2-1 2-1 1.7.6 2.3 4-.5 6.1l-.1.5c1 3.6 5.3 3.7 5.5 3.6q1-.5 1-1.4c.4-2.4 1.4-3 2.2-4.1.8-1.2 1.8-2.5 2.4-6.2q.7-5.2-2.5-9.3" style="fill:#3c2c23"/><radialGradient id="f" cx="58.7" cy="107.6" r="14" gradientTransform="matrix(1 0 0 -1 0 128)" gradientUnits="userSpaceOnUse"><stop offset=".5" style="stop-color:#554138;stop-opacity:0"/><stop offset="1" style="stop-color:#554138"/></radialGradient><path d="M70.8 12.6a16 16 0 0 0-11.4-5.4c-4-.2-9.3.7-12.6 4q-3.1 3-2.8 7.4c.2 1.7 1.6 2.6 1.6 2.6s1.6-4 5.6-3c4.2 1.1 6 .3 6 .3-1.4 3.3-.1 5.1 1 6.2l1.5 1.7q.3.3.4 0l.7-2c.8-1.5 2-1 2-1 1.7.6 2.3 4-.5 6.1l-.1.5c1 3.6 5.3 3.7 5.5 3.6q1-.5 1-1.4c.4-2.4 1.4-3 2.2-4.1.8-1.2 1.8-2.5 2.4-6.2q.7-5.2-2.5-9.3" style="fill:url(#f)"/></svg>