<svg xml:space="preserve" width="16" height="16" viewBox="0 0 128 128"><path d="M66.7 49.5s5-2.3 9.5-3.1 8.2-.7 8.2-.7 4-5.8 4.5-8.9.6-6 .7-6.5c.2-1.2 8.2-1.2 9.9 3.6s-.5 10.5-1.9 12.6-3 3.7-3 3.7 7 6.5 8.5 13.6 1.2 17.8 1.2 17.8-.5 8-4.4 8.6-8.7-3-9.4-3.9-2.1-3.2-4.4-2.5c-2.6.9-3.3 3.9-3.8 6.5-.7 3.3-1.6 11.5-1.6 11.5s-4.7 2-7.5 1.5c-2.9-.4-6.4-3.8-6.4-3.8s.3-4.2-1.1-5-2.8 1.5-2.8 1.5l-5.7 6.1-7.7-6.3s-.6-2.8-1.4-4.2c-.9-1.4-2.5-4.5-3.1-6.6-1.4-5.2-1-15.2-1-15.2l-8.6-42 2.1-2s2-10 5-14.5S48.3 6 50 5s7-1.4 7 0-2.5 3.2-3.9 5.5-3 5.5-3.8 8.3L47.4 25l3 .7s1.8-4 3.3-6.2c1.6-2.1 3.7-5 6.4-7 2.3-1.8 5.4-3.6 9-3.6s8.1 1 7.7 3.6c-.2 1.5-2.9.8-5.6 2.6-3.2 2.1-6.7 5.7-9.3 11.6s-3.5 8.6-3.5 8.6 6.8 6.5 7.5 8.6.8 5.6.8 5.6" style="fill:#b68859"/><path d="M35.7 70.1s5.7 3.7 8.3 3.8c3.9.2 9.6-2.1 13.2-6s6.5-9.7 6-16.7c-.4-6-2.5-8.3-2.5-8.3s3.6 3.6 8.8 3.1a14 14 0 0 0 11-6.7c1.3-2.5 2.5-5.6 1.7-6.1-.7-.6-3.3 0-3.3 0L69 37.6l-16.9 1.1L34.6 64zM22.2 30.2c-.7.4.3 3.6 2.8 5.5s6 2.5 6 2.5l5.2-7.1s-12.7-1.9-14-1" style="fill:#6d4938"/><path d="M66.8 98s2.8 2.6 6.8 2.2 7.7-2.9 7.7-2.9l-1 9.8-.1 6s-5 5.5-7.8 5-6.6-5.3-6.5-6.2l.8-7.2zm-10.5-1.3c4.3-.3 7.6-2 7.6-2a96 96 0 0 0-.6 14.7c-.2.8-9.4 2-9.4 2s-4.4-4-4.4-4.2l.3-5.4c0-1.7-.4-6.7-.4-6.7s2.8 2 7 1.6M90 85.8s3 .3 5.1 0c2-.1 6.3-1.7 7.3-2.4s1.9-1.8 1.9-1.8-.5 8.7-.4 10.4v5.7s-3.2 5.4-6.8 5.7c-3.5.4-7-6.1-7-6.1s.5-3.5.5-5.6-.6-6-.6-6" style="fill:#855b52"/><path d="M72.3 114.4c3.7.3 8-1.7 8-1.7s.3 6.4-.7 8.3c-.8 1.6-3.4 3.3-9.8 2.3-4-.7-4.6-3.1-4.8-4.7-.2-1.5.8-6.9.8-6.9s1.7 2.3 6.5 2.7m24.7-15c3-.1 7-1.7 7-1.7s.2 6.3-2.2 8.5c-2.7 2.5-9.3 1.7-11.1-.4-1.8-2-.7-8.7-.7-8.7s3 2.4 7 2.3m-41 9.3c3.4.1 7.6-1.1 7.6-1.1s.5 7.6-3 8.9c-3.7 1.4-8.6 1-10.5-1.4-1.4-1.8-.7-8.2-.7-8.2s3 1.6 6.6 1.8" style="fill:#46484a"/><path d="M39.7 32.9c.7.4 2.1-3.9 11.2-3.8 10 0 15.3 5 16 5 .8 0 6.2 0 7.9-.2 1.7-.1 4.6-1.4 4.5-.5s-1.2 6.5-6.1 7.9c-5 1.4-13.5-1.7-15.1-1.8s-3 0-2.9 2.5c.1 2.4-18.4 13.6-18.4 13.6s-13.5-6.4-13.7-7.1c-.2-.8 1.3-2.9 2.5-4.8 1.6-2.4 2.4-5.1 3.3-6.5l2.2-3.3s-2.7.2-4.4-.5c-1.2-.5-4.2-2.5-4.3-3.2s3.3 0 6.1-.2 8.1-3.3 8.1-3.3 1.8 1.5 2.3 2.8.5 3.2.8 3.4" style="fill:#855b52"/><path d="M27.5 66.2s-.8 3-.3 6.5c.4 2.6 2.4 5.2 2.7 6s1 3.1 1 3.8c-.1.7.8.9 1 .4.3-.7 0-1.5.7-1.4.8.2 0 1.8 1 1.8 1.2 0 .4-1.4 1.2-1.4s0 1.7 1.3 1.6c1 0 0-1.4 1-1.4s.2 1.5 1.4 1.4c.6-.1-.1-1.7.7-1.9s.4 1.4 1.3 1c.5-.1.7-1.6.5-3.3s-.8-4-1.2-6q-.7-3-.8-5.8v-4z" style="fill:#46484a"/><path d="M40.4 50c.6 0 2.7-2.2 3.6-3.9s3.4-5.2 7.1-5.7c3.8-.4 6 1.6 6.8 4.7.9 2.8.1 6.1-3.7 8-3.6 1.6-5 1-8 1.8-1.7.5-4.2 2-4.3 2.1s.8 7-4.5 9.9a12 12 0 0 1-14.8-3 13 13 0 0 1-.3-15.6c2.8-3.5 6.2-4.7 11.2-3.3 5.7 1.7 6.4 5 7 5" style="fill:#fff3dd"/><path d="M55.2 47.6c0 2-1.3 4-3.9 4-2.2 0-3-1.8-3.1-3.9-.1-2.6 1.8-4 3.6-4 2.5 0 3.4 1.8 3.4 3.9m-29.8 5.2 4.1-2.3c.4-.3 1.7-.6 2.3.3.7 1-.4 2-1.2 2.3s-4.2 2.4-4.2 2.4-.4 2.6 0 2.8q1.6 1.2 3.5 1.1 1.8-.4 2.4-.7c.4 0 1.4 0 1.6.6q.2 1.2-1.2 2-1.3 1-3.8.7a9 9 0 0 1-3.1-1c-.7-.4-1.3-1.2-1.3-1.2s-1 1.1-1.9 1.1-2-.6-2-.7-1.2-1-.7-2 1.8.4 2.5.5q1.1-.1 1.3-.7v-3l-2-2.4c-.3-.3-1.2-1.5-.3-2.2s1.6 0 1.9.2z" style="fill:#2e2e2e"/></svg>