<svg xml:space="preserve" width="16" height="16" viewBox="0 0 128 128"><path d="M103 23.5c4.3 11.3 3 25-8 32s-22 12-31 21A67 67 0 0 0 44.7 124h57.9l.4-.5c7-4.5 14.2-8.6 21-13.2V4H87.5c4.6 5.1 12.2 10.7 15.5 19.5" style="opacity:.45;fill:#3bbcf7"/><path d="M4 46.7V124h13.5c-3.6-5.5-6-11.4-4.5-18.5 2-10 12-14 20-18 22.6-11.4 27.3-29.5 28-50A45 45 0 0 0 48.2 4h-36c19 24-6.9 42-8.2 42.7" style="opacity:.45;fill:#83d3f7"/><path d="M64.6 4.1c-41 0-40.7 38-40.7 38.5 0 24.6 1.9 59.3 11.7 73 3.9 5.4 11.4 5.7 11.4 5.7h34s7.5-.3 11.4-5.7c9.8-13.7 11.7-48.4 11.7-73 0-.6 1.5-38.5-39.5-38.5" style="fill:#3c2c23"/><radialGradient id="a" cx="64" cy="68.3" r="47.5" gradientTransform="matrix(1 0 0 -1.19 0 140.98)" gradientUnits="userSpaceOnUse"><stop offset=".8" style="stop-color:#554138;stop-opacity:0"/><stop offset="1" style="stop-color:#554138"/></radialGradient><path d="M64.6 4.1c-41 0-40.7 38-40.7 38.5 0 24.6 1.9 59.3 11.7 73 3.9 5.4 11.4 5.7 11.4 5.7h34s7.5-.3 11.4-5.7c9.8-13.7 11.7-48.4 11.7-73 0-.6 1.5-38.5-39.5-38.5" style="fill:url(#a)"/><radialGradient id="b" cx="63.9" cy="7.7" r="55.1" gradientTransform="matrix(1 0 0 -.463 0 123.86)" gradientUnits="userSpaceOnUse"><stop offset=".9" style="stop-color:#eceff1"/><stop offset="1" style="stop-color:#b0bec5"/></radialGradient><path d="M64.1 96c-25.5 0-52 7.3-52 25v3h104v-3c0-16.7-26.3-25-51.9-25" style="fill:url(#b)"/><linearGradient id="c" x1="64.3" x2="64.3" y1="31.5" y2="1.1" gradientTransform="matrix(1 0 0 -1 0 128)" gradientUnits="userSpaceOnUse"><stop offset=".5" style="stop-color:#a56c43"/><stop offset="1" style="stop-color:#8d5738"/></linearGradient><path d="M64 95.8c-29.6 0-21.5 19.6-16.5 28.2h34.3c4.6-8.6 11.9-28.2-17.8-28.2" style="fill:url(#c)"/><path d="M50 104c2-6.4 13.4-6.5 12.5-6.4h2.7c-.9-.1 10.6 0 12.5 6.4s-2.2 13.6-5.7 20h14c4-9 7.4-20.2 3.6-25.6-4.5-6.4-11.3-8.7-25.6-8.7S42.6 92 38 98.5c-3.8 5.4-.4 16.7 3.7 25.6h14c-3.6-6.4-7.7-13.7-5.8-20" style="fill:#eceff1"/><radialGradient id="d" cx="84.4" cy="20.3" r="9.3" gradientTransform="rotate(186 1.69 70.91)scale(-1 2.115)" gradientUnits="userSpaceOnUse"><stop offset=".7" style="stop-color:#b0bec5"/><stop offset="1" style="stop-color:#eceff1;stop-opacity:0"/></radialGradient><path d="M89.4 124H86c3.9-8.7 7.2-19.4 4-25l3.7 1c2 6.7-1 16.3-4.4 24" style="fill:url(#d)"/><radialGradient id="e" cx="753.1" cy="20.3" r="9.3" gradientTransform="rotate(174 396.52 56.78)scale(1 2.115)" gradientUnits="userSpaceOnUse"><stop offset=".7" style="stop-color:#b0bec5"/><stop offset="1" style="stop-color:#eceff1;stop-opacity:0"/></radialGradient><path d="M38.4 124h3.3c-4-8.7-7.3-19.4-4.1-25l-3.7 1c-1.9 6.7 1.1 16.3 4.5 24" style="fill:url(#e)"/><linearGradient id="f" x1="64" x2="64" y1="20.5" y2="38.4" gradientTransform="matrix(1 0 0 -1 0 128)" gradientUnits="userSpaceOnUse"><stop offset=".2" style="stop-color:#a56c43"/><stop offset="1" style="stop-color:#8d5738"/></linearGradient><path d="M55 90v10c0 4.6 3.6 8.2 8.2 8.2h1.6c4.6 0 8.3-3.6 8.3-8.1V90z" style="fill:url(#f)"/><path d="M55 104.8q-.4-1.5-.5-2.9l-.2-2.9-.4-5.7q0-1 1-1c1 0 1 .3 1 .9q0 3-.3 5.8l-.2 3q0 1.3-.5 2.8m18.1 0-.4-2.9-.2-2.9-.3-5.7q0-1 1-1c1 0 1 .3 1 .9l-.4 5.8-.2 3q0 1.3-.4 2.8" style="fill:#875334"/><path d="M64 16c-17.2 0-33.1 12.8-33.1 40A40 40 0 0 0 56 94.8a24 24 0 0 0 7.9 1.5q3.6 0 7.8-1.5A40 40 0 0 0 97.1 56c0-27.2-15.9-40-33.1-40" style="fill:#a56c43"/><path d="M64.6 4.1c-41 0-40.7 38-40.7 38.5 0 7.8.2 16.6.7 25.4h6.8c-.1-3 2-21 8-22.4 22.4-5 35-16.9 35-16.9C77.7 36 88 43 91.7 45.6c3 2.2 4 18.5 4 22.4h7.6v-.2c.6-8.8.8-17.5.8-25.2 0-.6 1.5-38.5-39.5-38.5" style="fill:#3c2c23"/><radialGradient id="g" cx="64.3" cy="64.3" r="49.8" gradientTransform="matrix(1 0 0 -1.214 0 141.73)" gradientUnits="userSpaceOnUse"><stop offset=".8" style="stop-color:#554138;stop-opacity:0"/><stop offset="1" style="stop-color:#554138"/></radialGradient><path d="M64.6 4.1c-41 0-40.7 38-40.7 38.5 0 7.8.2 16.6.7 25.4h6.8c-.1-3 2-21 8-22.4 22.4-5 35-16.9 35-16.9C77.7 36 88 43 91.7 45.6c3 2.2 4 18.5 4 22.4h7.6v-.2c.6-8.8.8-17.5.8-25.2 0-.6 1.5-38.5-39.5-38.5" style="fill:url(#g)"/><path d="M72.4 76.1a26 26 0 0 1-16.8 0c-1.8-1-3.7.6-3 2.3s6.5 5.4 11.4 5.4 10.6-3.8 11.3-5.4-1-3.4-2.9-2.3" style="fill:#473530"/><path d="M67.9 68H60q-1 .5-.6 1.7c.3.7 1.7 2.7 4.5 2.7s4.3-2 4.6-2.7q.3-1.2-.7-1.6" style="fill:#875334"/><path d="M47.6 60.3q-3.1 0-5.1-1.3-1-.4-.8.5c.3 2.5 2.9 4.4 6 4.4 3 0 5.5-2 5.9-4.4q0-1-.8-.5a10 10 0 0 1-5.2 1.3m32.7 0Q77 60.3 75 59q-1-.4-.8.5c.4 2.5 2.9 4.4 6 4.4s5.5-2 5.9-4.4q.1-1-.8-.5a10 10 0 0 1-5.2 1.3M55 50.8c-1-1.2-3-3-7.2-3s-6.3 1.8-7.3 3q-.5 1 0 1.6t2 .4c1.4-.2 2.4-1.2 5.3-1.2 2.8 0 4.5.9 5.3 1.2q1.4.3 2-.4.4-.6-.1-1.6m32.5 0c-1-1.2-3-3-7.2-3s-6.4 1.8-7.3 3q-.5 1 0 1.6t1.9.4c1.4-.2 2.5-1.2 5.4-1.2 2.8 0 4.4.9 5.3 1.2q1.4.3 1.9-.4t0-1.6" style="fill:#42312c"/><path d="M48 60.8c-6-5-16.2-7.8-20.8-5.8-2.1.9-3.1 2.5-1.1 6 4 6.5 9.8 13.4 3.4 20.9C21 92 9.5 90.2 4 104.4V124h26.6C32 96.5 55 100 56.1 81.2c.7-10.7-3-16.5-8-20.5" style="opacity:.45;fill:#fff"/><path d="M124 42.9c-16.3-24.2-42-20.4-39.3-16.7 2.2 3 8.5 7.8 12.4 15.9 2.6 5.4 4.5 12 2 17.4-7.4 16.3-21.4 19.3-28.7 25.8-5 4.4-14.4 14.7-11 38.7H81s2.2-13 25.4-21.4C120 97.8 124 87.4 124 87.4z" style="opacity:.35;fill:#fff"/></svg>