<svg xml:space="preserve" width="16" height="16" viewBox="0 0 128 128"><path d="M109.4 102.6c-1.6-3 .5-6 4-9.7a33 33 0 0 0 6-33.5s-1.1-2.4-1-2.5H116c-.7-.2-26.4-.2-52-.2l-52 .1-3.4 2.6C2.9 73.4 9 87 14.6 93c3.6 3.8 5.6 6.8 4 9.7s-6.3 3.3-6.3 3.3 1.1 3 3.7 4.5c2.4 1.5 5.4 1.8 7.5 1.9 0 0 8 11 28.9 11h23.3c20.9 0 28.9-11 28.9-11 2 0 5-.4 7.4-1.9 2.6-1.6 3.7-4.5 3.7-4.5s-4.7-.4-6.3-3.3" style="fill:#543930"/><radialGradient id="a" cx="95.2" cy="22.4" r="30.5" gradientTransform="matrix(1 0 0 .491 -12.28 94.62)" gradientUnits="userSpaceOnUse"><stop offset=".7" style="stop-color:#6d4c41;stop-opacity:0"/><stop offset="1" style="stop-color:#6d4c41"/></radialGradient><path d="M64 123.4V111l37.2-3 3.3 4.2s-8 11-28.9 11z" style="fill:url(#a)"/><radialGradient id="b" cx="65.2" cy="26.9" r="9" gradientTransform="rotate(155 80.09 65.83)scale(1 .742)" gradientUnits="userSpaceOnUse"><stop offset=".7" style="stop-color:#6d4c41"/><stop offset="1" style="stop-color:#6d4c41;stop-opacity:0"/></radialGradient><path d="M104.5 107c-5.6-8.5 6.7-11.7 6.7-11.7-2.1 2.7-3 5-1.8 7.3 1.6 2.9 6.2 3.3 6.2 3.3s-6.3 5.7-11.1 1" style="fill:url(#b)"/><radialGradient id="c" cx="88.6" cy="52.4" r="39.6" gradientTransform="rotate(-94.3 103.94 59.14)scale(1 .833)" gradientUnits="userSpaceOnUse"><stop offset=".7" style="stop-color:#6d4c41;stop-opacity:0"/><stop offset="1" style="stop-color:#6d4c41"/></radialGradient><path d="M119.5 59.4a33 33 0 0 1-5.8 33.2c-.7.8-4 4-4.6 6.4 0 0-12.4-17.3-16.1-27.5q-1.3-3-1.6-6.3-.1-2.7 1.2-5c1.1-1.7 26.2-2.2 26.2-2.2z" style="fill:url(#c)"/><radialGradient id="d" cx="38.4" cy="52.4" r="39.6" gradientTransform="rotate(94.3 -14.83 95.25)scale(-1 .833)" gradientUnits="userSpaceOnUse"><stop offset=".7" style="stop-color:#6d4c41;stop-opacity:0"/><stop offset="1" style="stop-color:#6d4c41"/></radialGradient><path d="M8.6 59.4a33 33 0 0 0 5.7 33.2c.8.8 4 4 4.7 6.4 0 0 12.4-17.3 16-27.5q1.3-3 1.6-6.3.1-2.7-1.1-5c-1.2-1.7-2.5-1.3-4.5-1.3-3.7 0-20.1-1-21.4-1z" style="fill:url(#d)"/><radialGradient id="e" cx="45.1" cy="22.4" r="30.5" gradientTransform="matrix(-1 0 0 .491 90.11 94.62)" gradientUnits="userSpaceOnUse"><stop offset=".7" style="stop-color:#6d4c41;stop-opacity:0"/><stop offset="1" style="stop-color:#6d4c41"/></radialGradient><path d="M64 123.4V111l-37-3-3.4 4.2s8 11 28.9 11z" style="fill:url(#e)"/><radialGradient id="f" cx="15" cy="26.9" r="9" gradientTransform="rotate(205 9.02 57.18)scale(-1 .742)" gradientUnits="userSpaceOnUse"><stop offset=".7" style="stop-color:#6d4c41"/><stop offset="1" style="stop-color:#6d4c41;stop-opacity:0"/></radialGradient><path d="M23.6 107c5.5-8.5-6.8-11.7-6.8-11.7 2.1 2.7 3.1 5 1.8 7.3-1.5 2.9-6.2 3.3-6.2 3.3s6.4 5.7 11.2 1" style="fill:url(#f)"/><path d="M99.6 64.4H28.5c-7.7 0-14 6.6-14 14.8s6.3 14.9 14 14.9h71.1c7.6 0 13.9-6.7 13.9-14.9s-6.3-14.8-14-14.8" style="fill:#e59600"/><path d="M64 13.2c-22.6 0-43.6 24.2-43.6 59S42 124 64 124s43.6-17.1 43.6-51.8c0-34.8-21-59-43.6-59" style="fill:#ffca28"/><path d="m69 87.3-.4-.1H59q-1.4.7-1 2.2c.5 1 2.3 3.5 6 3.5s5.5-2.6 6-3.5-.1-1.8-1-2.1" style="fill:#e59600"/><path d="M75 97.7a33 33 0 0 1-22 0c-2.3-1.4-4.7.8-3.7 3 1 2 8.3 7 14.8 7s13.7-5 14.7-7c1-2.2-1.5-4.4-3.8-3" style="fill:#795548"/><ellipse cx="42.9" cy="75.2" rx="6.3" ry="6.5" style="fill:#404040"/><ellipse cx="85.1" cy="75.2" rx="6.3" ry="6.5" style="fill:#404040"/><path d="M52.3 63.5c-1.2-1.6-4-4-9.4-4s-8.2 2.4-9.4 4q-.7 1.2 0 2c.3.4 1.3.9 2.4.5 1.2-.4 3.3-1.5 7-1.5s5.8 1.1 7 1.5 2 0 2.4-.5q.7-.9 0-2m42.2 0c-1.2-1.6-4-4-9.4-4s-8.2 2.4-9.4 4q-.7 1.2 0 2c.3.4 1.3.9 2.5.5 1-.4 3.3-1.5 7-1.5 3.6 0 5.7 1.1 6.9 1.5q1.7.4 2.4-.5t0-2" style="fill:#6d4c41"/><path d="M116.1 31.4C113 26.6 106 20.2 99.5 19.7c-1-6.1-7.6-11.3-14-13.3a40 40 0 0 0-34.4 4c-1.3.6-9.4 5-15 1.9-3.5-2-3.5-7.5-3.5-7.5s-11 4.2-7.3 16a13 13 0 0 0-11.4 7.1 18 18 0 0 0-1.1 14.3 15 15 0 0 0-4.6 16.4c2.1 5.8 10.6 8.4 10.6 8.4a46 46 0 0 0 2.4 19.4q.5.8 1 0c1.2-5.2 5.6-23.2 5.2-26.3 0 0 14.7-3 28.8-13.3q4.4-3.2 9.3-5.2c17.7-7 21.3 5 21.3 5s12.3-2.4 16 14.6c1.4 6.4 2.3 16.6 3.1 23.8 0 .5.8.6 1 .1 1.2-2.8 3.7-8.5 4.3-14.2.2-2 5.6-4.7 8-13.3a36 36 0 0 0-3-26.2" style="fill:#543930"/><radialGradient id="g" cx="87.4" cy="73.2" r="46.4" gradientTransform="rotate(72 12.48 .2)scale(1 -.742)" gradientUnits="userSpaceOnUse"><stop offset=".7" style="stop-color:#6d4c41;stop-opacity:0"/><stop offset="1" style="stop-color:#6d4c41"/></radialGradient><path d="M111.1 71c.2-2 5.7-4.7 8-13.4l.7-2.8a36 36 0 0 0-3.7-23.4C113.1 27 107 21.1 101 20l-1.5-.2s.4 2.8-.7 5a7 7 0 0 1-4.4 3.6C109.8 44 108.7 57 111 71" style="fill:url(#g)"/><radialGradient id="h" cx="42.2" cy="123.8" r="12.2" gradientTransform="rotate(208.2 -17.9 64.88)scale(-1 1.186)" gradientUnits="userSpaceOnUse"><stop offset=".6" style="stop-color:#6d4c41"/><stop offset="1" style="stop-color:#6d4c41;stop-opacity:0"/></radialGradient><path d="m54.8 8.4-3.7 2c-1.3.6-9.4 5-15 1.9-3.5-2-3.5-7.3-3.5-7.5-1.6 2-6.4 16.7 7.7 17.6 6.1.4 9.9-4.9 12.1-9.4z" style="fill:url(#h)"/><radialGradient id="i" cx="163.6" cy="66.1" r="37.4" gradientTransform="matrix(-.938 -.394 -.218 .528 237.25 55.9)" gradientUnits="userSpaceOnUse"><stop offset=".7" style="stop-color:#6d4c41;stop-opacity:0"/><stop offset="1" style="stop-color:#6d4c41"/></radialGradient><path d="M83.7 5.9c9.5 2.5 14.2 7.4 15.7 13.9.5 1.8 1 19.6-32.8-.6C54 11.7 57.5 7.1 59 6.5c5.8-2 14.2-3.5 24.8-.7" style="fill:url(#i)"/><radialGradient id="j" cx="37.4" cy="112.7" r="11.2" gradientTransform="matrix(1 0 0 -1.223 0 153.17)" gradientUnits="userSpaceOnUse"><stop offset=".7" style="stop-color:#6d4c41;stop-opacity:0"/><stop offset="1" style="stop-color:#6d4c41"/></radialGradient><path d="M32.6 4.8h-.1c-1.2.6-10.7 5-7.2 16l10.1 1.6c-9-9-2.8-17.6-2.8-17.6" style="fill:url(#j)"/><radialGradient id="k" cx="35.8" cy="93" r="20.9" gradientTransform="rotate(-165 43.9 -26.03)scale(1 -.936)" gradientUnits="userSpaceOnUse"><stop offset=".7" style="stop-color:#6d4c41;stop-opacity:0"/><stop offset="1" style="stop-color:#6d4c41"/></radialGradient><path d="m31.6 21.8-6.3-1-1.5.1c-3.5.5-7.7 2.3-10 7a19 19 0 0 0-1 14.3s3-3 10.4-3.2z" style="fill:url(#k)"/><radialGradient id="l" cx="30.9" cy="72.8" r="22" gradientTransform="rotate(187.8 -1.61 76.64)scale(-1 1.405)" gradientUnits="userSpaceOnUse"><stop offset=".6" style="stop-color:#6d4c41;stop-opacity:0"/><stop offset="1" style="stop-color:#6d4c41"/></radialGradient><path d="M12.4 42.4c-3 2.8-7.2 8.9-4.1 16.4 2.3 5.7 10.5 8.2 10.5 8.2s1.6.5 2.5.5l2-28.5c-4 0-7.8 1.2-10.3 3z" style="fill:url(#l)"/></svg>