<svg xml:space="preserve" width="16" height="16" viewBox="0 0 128 128"><path d="M27.8 68.2A37.4 37.4 0 0 0 52.4 123c15.3 3.5 33.2.7 42.3-11.3a38 38 0 0 0 7.3-33.6c-2.1-7.8-2-12.3.4-15 2.7-3 3-4.8 2.4-6.6-.8-2.4-2.8-3-5.3-2.8-4.4.3-10.1 2.7-11 12.4C88 72.3 92 88.7 72 90.7c-15.9 1.6-23-17.1-18-26.5 3.4-6.6 5.8-9.3 19.3-24.2 8.3-9.3 9.4-14.6 9.4-17.7A18.7 18.7 0 1 0 50.3 35a4.5 4.5 0 0 1 .2 6q-2 2.5-5.3 6c-7.3 7.5-11.4 10.4-17.4 21.2m42.7-46c0 4.6-3.1 8.2-7 8.2-3.8 0-6.8-3.6-6.8-8.1s3-8.2 6.9-8.2c3.8 0 6.9 3.6 6.9 8.2M27.8 68.2A37.4 37.4 0 0 0 52.4 123c15.3 3.5 33.2.7 42.3-11.3a38 38 0 0 0 7.3-33.6c-2.1-7.8-2-12.3.4-15 2.7-3 3-4.8 2.4-6.6-.8-2.4-2.8-3-5.3-2.8-4.4.3-10.1 2.7-11 12.4C88 72.3 92 88.7 72 90.7c-15.9 1.6-23-17.1-18-26.5 3.4-6.6 5.8-9.3 19.3-24.2 8.3-9.3 9.4-14.6 9.4-17.7A18.7 18.7 0 1 0 50.3 35a4.5 4.5 0 0 1 .2 6q-2 2.5-5.3 6c-7.3 7.5-11.4 10.4-17.4 21.2m41.7-46c0 4.6-3.1 8.2-7 8.2-3.8 0-6.8-3.6-6.8-8.1s3-8.2 6.9-8.2c3.8 0 6.9 3.6 6.9 8.2" style="fill:#ffca28"/><path d="M65.3 100a29 29 0 0 1-19.1-14.4C45 82.9 42 83.8 44 92.2c1.4 5.5 5 10.2 9.8 13.2 7.3 4.5 16.8 5 24.2 1 8.7-4.8 12.2-12.2 11.8-15.9 0-.6-1-2.8-3.4 1.8a26 26 0 0 1-21.1 7.6" style="fill:#fff59d"/><path d="M78 99.3c11.4-5.7 12.3-15 10.5-27 0 7.3-1.6 16.9-16.5 18.4-15.9 1.6-22.8-17-18-26.5 4.1-8.3 14.2-18.6 14.2-18.6S56.2 54 50.5 64c-5.3 9.6-7.1 22.3 1 30.3q5 5 11.8 6.8 7.6 1.7 14.7-1.8" style="fill:#e2a610"/><path d="M99.7 56.3c1.7 1.2-.3 3-1.7 3.5-3.8 1.5-5.4 5.2-5.8 3.8-.4-1.3 0-3.4 2.5-6 1.2-1.2 3.7-2.3 5-1.4M61.4 8.3c1.3 2.5-1.7 3-3.5 3.7-6.3 3-5.5 10.2-7 9.8S49 19.1 49.1 18c.2-4 2.4-7.1 4-8.3 3.9-3 7.2-3.4 8.3-1.4" style="fill:#fff59d"/><path d="M60.1 22.3c0-3.6 2-6.7 4.7-7.8a6 6 0 0 0-2.2-.4c-3.9 0-7 3.6-7 8.2s3.1 8.1 7 8.1q1.1 0 2.2-.4a8 8 0 0 1-4.8-7.7" style="fill:#e2a610"/></svg>