<svg xml:space="preserve" width="16" height="16" viewBox="0 0 128 128"><path d="M82.3 64.2s2.2 3.5 6.7 3.5h8.7s3.8-1 5.4-3.5z" style="fill:#2f7889"/><path d="M99.9 65.4H85.4a5 5 0 0 1-5-4.7L78.5 8c0-2 1.5-3.6 3.5-3.6h21.8c2 0 3.5 1.6 3.4 3.6l-2.3 52.6a5 5 0 0 1-5 4.7" style="fill:#eee"/><path d="M84.8 4.5h-2.1c-2 0-3.5 1.6-3.5 3.6l2 52.6c0 3.5 3.8 4.7 3.8 4.7 1.8 0 2.2-3.2 2.3-4.8l1.6-51.9a4 4 0 0 0-4-4.2" style="fill:#fff"/><path d="M102.1 72.2c-.5-3-1-4.6-2.6-4.6h-76c-1.6 0-2.8 1.6-2.5 3.3 1.7 10.4 8.2 19 16.9 23.1 2.4 10.5-5.2 17.6-6.4 26.7-.1 1.4 1 2.3 2.3 2.3h56q2.2 0 2.2-2.2s-4.3-17.4-4.8-21.2c-.5-3.7-.1-8.9 12-19.6a9 9 0 0 0 3-7.8" style="fill:#eee"/><path d="M78.7 12.8h28.2" style="fill:none;stroke:#69a1ba;stroke-width:1.9835;stroke-miterlimit:10"/><path d="m83.4 60.6-2-52.7c0-2 1-3 1.5-3.4h-1c-2 0-3.5 1.6-3.4 3.5l2 52.7q.3 5 6.4 4.7a6 6 0 0 1-3.5-4.9" style="fill:#b7d5e5"/><path d="M102.9 3.5c-3.7-.4-21 1-21 1s-.2.5 2.9.7 12.6 0 15 0c2.3 0 4.7 1 4.4 3.8l-2.5 53.3c0 1.4-2.4 3-3.3 3l1.8.1a5 5 0 0 0 4.6-4.7L107 8.1c.1-2-.6-4.3-4.2-4.6" style="fill:#69a1ba"/><path d="M31.7 70.1h32.1c8.2 0 12-2.3 12-2.3H22.3c-1.6 0 2.2 2.3 9.3 2.3" style="fill:#b7d5e5"/><path d="M72.6 63H24.8a4 4 0 0 0-3.8 2.8c-.4 1 .3 2 1.3 2h52.8c1 0 1.7-1 1.4-2a4 4 0 0 0-3.9-2.7" style="fill:#2f7889"/><path d="M26.6 65.4h8.2" style="fill:none;stroke:#eee;stroke-width:2.0672;stroke-linecap:round;stroke-miterlimit:10"/><path d="M99.7 67.6H84c-2.4 0-4.3 2-4.3 4.5 0 4.3-.4 8.5-4 12.7-3.6 4.4-5.8 6.3-4.2 12.3l3.9 20.3c.8 3.9-4.3 6-4.3 6h18.6q2.2 0 2.5-2.5.1-.1-.4-2.6s-3.1-14.9-3.6-19.4c-.6-6 4.4-10.6 8.1-14.1 5.8-5.5 6.2-9.2 6.2-11.2 0-4.8-1.1-6-2.8-6" style="fill:#b7d5e5"/><path d="M48.2 94.6c0-.6 1.7-.5 2-.5 20.7 0 26-12.3 27.3-16.6q.4-1.3 2-1.2 1.5.5 1.3 2c-1.3 5-7.1 18.7-31 17.2-.1 0-1.6-.2-1.6-.9" style="fill:#69a1ba"/><path d="M33.2 114.7c1.2-4.2 5.7-11 4.7-19.2a40 40 0 0 1-13.2-13.9s-.5-.7 0-.9c.3-.1.9.5.9.5a40 40 0 0 0 14.5 12q1.8.9 1.7 2.8c-.8 7.8-5.7 14.9-7.4 18.2-.4 1-1.4 1.3-1.2.5" style="fill:#b7d5e5"/><path d="M31.5 121c0 1.5 1.1 2.4 2.4 2.4h55.8c1.3 0 2.5-.9 2.5-2.4zm68-53.4.6 5.7c0 1.8.5 4.3-4.4 8.9L93.5 84c-3.6 3-8.9 8.1-7.5 14.3.5 2.2 1.7 5.2 2.5 6.8.6 1.2.7 0 .7 0s-.8-4.3-1-6.3c-.6-6 5.8-11 9.5-14.6 5.8-5.4 5.4-9 5.4-11l-.3-3.7q-.2-1.8-2.3-2z" style="fill:#69a1ba"/><path d="M33 83.4c-4.9-6.1 2.7-9.2 5.1-5.2 2.9 4.6 4 6.7 5.4 8.5l1.8 2c.6.7 0 1.7-.8 1.6-6.8-1-9.8-4.8-11.5-6.9m10.3 34.3h-2.9a2 2 0 0 1-2-2.4c.6-3.3 2.3-6.2 3.6-8.8.8-1.7 2-5 2.6-7.6a2 2 0 0 1 2.1-1.6l2.3.2a2 2 0 0 1 1.9 2.4c-.8 3.6-3 7.7-3.7 9.3-.9 2.2-1.5 5-1.9 6.8a2 2 0 0 1-2 1.7" style="fill:#fff"/></svg>