<svg xml:space="preserve" width="16" height="16" viewBox="0 0 128 128"><path d="M29.3 105.8s-.4 1-.4 2 .1 2.6 1.7 2.6h35.9l32.7-.2c1.4-.1 1-3.3 1-4.3z" style="fill:#543529"/><path d="m102.2 116 3 2s1.8 1.6 2 2.6c.3 1-.3 2.9-1.1 3.2l-43.4.2-40.4-.1q-1.1-.2-1.6-2c-.5-1.7.5-2.3.9-3S30 116 30 116z" style="fill:#874d36"/><path d="M25.9 114c-.8 0-1.4.9-1.8 1.5l-2.5 3.3c-.7 1.1.7 2 2 2s83.3.2 83.5-.3c.3-.7-1.3-3.1-2.6-5.3-.5-.8-1.5-1.9-2.4-1.8z" style="fill:#b88956"/><path d="m32.2 100.8-2.8 4.5c-.4.8.1 1.8 1 1.8H99c.9 0 1.4-1 1-1.8l-2.7-4.5z" style="fill:#a06841"/><path d="M47.3 101.6 39 123.9h-5l-2.8-5.4 9-19.4s7.4 1 7 2.5" style="fill:#88857c"/><path d="M28.8 124c.1-.5 8.5-18 8.5-18 .5-1 4.9-.6 4.2 1.5l-5.8 16.4z" style="fill:#c8c9c6"/><path d="m80 101.6 8.2 22.3H93l2.8-5.4-9-19.4s-7.4 1-7 2.5" style="fill:#88857c"/><path d="m98.4 123.9-8.5-18c-.5-1-4.9-.5-4.2 1.5l5.8 16.5z" style="fill:#c8c9c6"/><path d="M100.2 98c.1 1.8-.9 3.3-2.4 3.6a226 226 0 0 1-34.5 2.2c-18 0-29.3-1.4-34-2.2-1.6-.3-2.6-1.8-2.4-3.6V81h73.3z" style="fill:#82aec0"/><path d="M26.8 80.9v6s17.4 1 36.7 1 36.7-1 36.7-1v-6z" style="fill:#546e7a"/><path d="m63.4 84.8.1-24-37.7-7.2-.6 23.4v5.6q.2 1.4 1.5 1.7c3.2.2 12.3.5 36.7.5" style="fill:#e0e0e0"/><path d="M96.8 8c-4.9-2-14.5-4-33.3-4S35.1 6 30.3 8c-2 .8-3.3 4-3.3 6.1l-1.2 39.5 10.5 15.6 27 13c33.5 0 38.8-.3 38.8-.3l-2-67.8c0-2.1-1.3-5.3-3.3-6" style="fill:#2167a1"/><path d="M94.5 9.4C90 7.6 81 5.7 63.5 5.7s-26.4 1.9-31 3.7c-1.8.8-3 3-3 5l.2 24.5c0 5.4 3.5 10.2 8.7 11.8l25.9 8.8L89 50.8c5.1-1.7 8.6-6.5 8.6-12l-.1-24.2c0-2-1.2-4.4-3.1-5.2" style="fill:#2686c6"/><path d="M93.5 31.5H66.3l.3-16.7h24.9z" style="fill:#bae2fd"/><path d="M91.6 13H67.1c-1 0-1.7 1-1.6 2.1l.4 16.2c0 1 .8 1.9 1.6 1.9H93c1.2 0 2-1.4 1.8-3l-1.5-15.7q-.3-1.5-1.6-1.6m-22.4 2.7h20.5q1.1.1 1.5 1.6l1 10.6c.2 1.3-.5 2.5-1.6 2.5H69.5q-1.3-.1-1.6-1.8l-.2-10.7q0-2 1.5-2.2" style="fill:#37474f"/><path d="M34.5 31.5h27.3l-.4-16.7H36.5z" style="fill:#bae2fd"/><path d="m34.8 14.5-1.5 15.7c-.3 1.6.6 3 1.8 3h25.4q1.3-.1 1.6-1.9l.4-16.2C62.5 14 62 13 61 13H36.4q-1.2.1-1.6 1.6M60.4 18 60 28.6q-.2 1.6-1.6 1.8h-21c-1 0-1.8-1.2-1.6-2.5l1-10.6q.4-1.5 1.5-1.6h20.5q1.5.2 1.6 2.2" style="fill:#37474f"/><path d="M84 43.9q-1.8-3.8-5.2-3c-2 .5-3.1 2.5-2.8 4.6.4 2.9 3 5.7 6.4 4.1 2.2-1 2.8-3.2 1.6-5.7" style="fill:#01579b"/><circle cx="79.7" cy="44.6" r="3.1" style="fill:#f44336"/><path d="M44 43.9q1.9-3.8 5.2-3c2 .5 3.1 2.5 2.8 4.6-.4 2.9-3 5.7-6.4 4.1-2.2-1-2.7-3.2-1.6-5.7" style="fill:#01579b"/><circle cx="48.3" cy="44.6" r="3.1" style="fill:#f44336"/><path d="m63.5 60.7-37.7-7.1-.6 23.4v5.6q.2 1.4 1.5 1.7c3.2.2 12.3.5 36.7.5h.1s2.2-4.4 2.2-11.7-2.2-12.4-2.2-12.4" style="fill:#e0e0e0"/><path d="m63.5 60.7 37.7-7.1.7 23.4v5.6q-.1 1.4-1.6 1.7c-3.1.2-12.2.5-36.6.5h-.2z" style="fill:#bdbdbd"/><path d="M25.2 82.6q.2 1.4 1.5 1.7c3.2.2 12.3.5 36.7.5h.3c24.4 0 33.4-.3 36.6-.5q1.5-.2 1.6-1.7V77H25.2z" style="opacity:.2;fill:#424242"/><path d="M31.7 89.8c-1.4-.2-2.6.9-2.6 2.3 0 3.1 0 6.5 2.2 7.2a202 202 0 0 0 22.1 1.7c1.4 0 2.5-1.1 2.4-2.5l-.3-5.1q-.2-2-2.3-2.2c-7.8-.2-17-1-21.5-1.5" style="fill:#94d1e0"/><circle cx="85.8" cy="66.2" r="5.9" style="fill:#757575"/><circle cx="85.8" cy="66.8" r="4.3" style="fill:#fffde7"/><circle cx="42.2" cy="66.2" r="5.9" style="fill:#9e9e9e"/><circle cx="42.2" cy="66.8" r="4.3" style="fill:#fffde7"/><path d="M57.6 30.4h-7.4l-9.5-14.7h7.4zm29.7 0h-7.4l-9.5-14.7h7.4z" style="fill:#fff"/></svg>