<svg xml:space="preserve" width="16" height="16" viewBox="0 0 128 128"><linearGradient id="a" x1="48.4" x2="65" y1="71.3" y2="49.2" gradientTransform="rotate(171 63.3 64.45)" gradientUnits="userSpaceOnUse"><stop offset="0" style="stop-color:#ffb300"/><stop offset=".4" style="stop-color:#ffca28"/></linearGradient><path d="M72 53s-3.6 12-5 15.3l-4.4 11a3.6 3.6 0 0 0 1.4 4.5c1.6 1 4.1.2 5-1.5l12.4-26.5-1-3.4z" style="fill:url(#a)"/><path d="M105.6 74.6v48h-5.7l-7.9-38q0-.4-.4-.4t-.5.4l-7.8 38.2h-5.7v-48z" style="fill:#7c7c7c"/><path d="M102.6 124h4.5c.8 0 1.4-1 1.1-1.8a6 6 0 0 0-5.6-4.3 6 6 0 0 0-5.6 4.5q-.3 1.4 1.2 1.6zm-22 0H76c-.8 0-1.4-1-1.2-1.8a6 6 0 0 1 5.7-4.3 6 6 0 0 1 5.6 4.5q.2 1.4-1.2 1.6z" style="fill:#424242"/><linearGradient id="b" x1="23.7" x2="4.3" y1="74.5" y2="41.4" gradientTransform="matrix(-1 0 0 -1 127.46 128)" gradientUnits="userSpaceOnUse"><stop offset="0" style="stop-color:#ffb300"/><stop offset=".4" style="stop-color:#ffca28"/></linearGradient><path d="m100.1 54.1 9.7-.6 6 13.3L122 76c1.8 2 2.3 2.6 3 5.2.8 2.8.4 4.4 0 5-.3.7-2.2 2.5-3.4 1.4s-1.1-5.2-2.3-5c-.6.2.2 1.5.3 2.7s-.9 1.4-1.5 1c-.4-.1-1.9-2.7-1.9-2.7l-.6-4.2-15.2-21.2z" style="fill:url(#b)"/><linearGradient id="c" x1="66.9" x2="70.3" y1="50.9" y2="56.5" gradientTransform="matrix(1 0 0 -1 0 128)" gradientUnits="userSpaceOnUse"><stop offset="0" style="stop-color:#ffb300"/><stop offset="1" style="stop-color:#ffca28;stop-opacity:0"/></linearGradient><path d="m66.4 69.8-1.8 4.5L66 77l4 3 3.6-7.7z" style="fill:url(#c)"/><linearGradient id="d" x1="35.9" x2="35.9" y1="84.2" y2="50" gradientTransform="matrix(-1 0 0 -1 127.46 128)" gradientUnits="userSpaceOnUse"><stop offset="0" style="stop-color:#00bfa5"/><stop offset=".7" style="stop-color:#00b29a"/><stop offset="1" style="stop-color:#00ab94"/></linearGradient><path d="M81 44.9c2.4-.7 6.6-1 10.6-1 4-.1 8.2.3 10.6 1 7.6 2 9.4 5.5 11.7 11.6l-8.3 3.2V78h-28V59.7l-8.4-3.2c2.3-6 4.2-9.6 11.7-11.6" style="fill:url(#d)"/><path d="M91.5 40.7h-5V46c0 2.4 2 4.4 4.6 4.4h.9c2.5 0 4.5-2 4.5-4.4v-5.3zm-12.4-7.1c-2.4 0-4.3-2-4.3-4.6s2-4.6 4.3-4.6h24.5c2.3 0 4.3 2.1 4.3 4.6s-2 4.6-4.3 4.6z" style="fill:#e59600"/><path d="M91.4 43.5c-7 0-14.5-5.4-14.5-17.3 0-9.5 5.5-19.8 14.5-19.8s14.5 10.2 14.5 19.8c0 11.9-7.5 17.3-14.5 17.3" style="fill:#ffca28"/><path d="M102 24v-.2h-.2l-.1-.2-.2-.2-.2-.1-.3-.2-.2-.1-.3-.2h-.4l-.6-.2-.8-.1H98l-.7.2-.3.1-.3.2-.3.1-.2.2-.2.1-.2.2h-.1l-.1.2-.2.3q-.4.5.1 1h1l.1-.1h.1l.4-.2h.1l.2-.1h.4l.5-.1h1.6l.1.1h.2l.2.1h.2l.1.1h.1l.1.1.3.1q.7.3 1-.4zm-20.5 1.1h.2l.1-.2h.5l.1-.1h.2l.1-.1h.3l.5-.1H85l.2.1h.1l.2.1.3.1h.2v.1l.3.1h.1a.7.7 0 0 0 .8-1l-.2-.3v-.1l-.2-.1-.7-.5-.2-.1-.3-.2h-.4l-.6-.2-.8-.1h-.7l-.7.2-.3.1-.6.3-.2.2-.2.1-.2.2-.2.1v.1l-.2.3q-.3.5.2 1z" style="fill:#6d4c41"/><ellipse cx="98.7" cy="28.1" rx="2.2" ry="2.3" style="fill:#404040"/><ellipse cx="84" cy="28.1" rx="2.2" ry="2.3" style="fill:#404040"/><path d="M87.8 36c1.4.8 6 .8 7.5 0 .8-.5 1.7.2 1.3 1-.3.7-2.9 2.4-5 2.4s-4.8-1.7-5.1-2.4c-.4-.8.5-1.5 1.3-1" style="fill:#795548"/><path d="M89.8 32.4h3.5q.5.1.3.7c-.2.3-.8 1.2-2 1.2s-2-.9-2-1.2q-.2-.5.2-.7" style="fill:#e59600"/><path d="M91.6 4C72 4.1 76 26.4 76 26.4l2.1 3.7c0-3 1.2-8.6 2.1-11a2.6 2.6 0 0 1 3-1.6 48 48 0 0 0 16.7 0c1.1-.2 2.4.5 2.8 1.7.9 2.3 2.1 7.8 2 11l2.2-3.8S111 4 91.5 4" style="fill:#543930"/><radialGradient id="e" cx="91.5" cy="105.2" r="16.4" gradientTransform="matrix(1 0 0 -1.128 0 141.44)" gradientUnits="userSpaceOnUse"><stop offset=".8" style="stop-color:#6d4c41;stop-opacity:0"/><stop offset="1" style="stop-color:#6d4c41"/></radialGradient><path d="M107 26.4S111 4 91.6 4l-2.6.2h-.2c-16.3 2-12.7 22.2-12.7 22.2l2.1 3.7c0-3 1.2-8.6 2-11a2.6 2.6 0 0 1 3-1.6q3.2.7 8.3.8c3.4 0 6.5-.4 8.4-.8 1.2-.2 2.5.5 2.9 1.7.9 2.3 2.1 7.8 2 11z" style="fill:url(#e)"/><path d="M22.5 74.6v48h5.7l7.8-38q0-.4.4-.4t.5.4l7.8 38.2h5.7v-48z" style="fill:#7c7c7c"/><path d="M25.5 124H21c-.8 0-1.4-1-1.1-1.8a6 6 0 0 1 5.6-4.3 6 6 0 0 1 5.6 4.5c.3.8-.4 1.6-1.2 1.6zm22 0H52c.8 0 1.4-1 1.2-1.8a6 6 0 0 0-5.7-4.3 6 6 0 0 0-5.6 4.5q-.2 1.4 1.2 1.6z" style="fill:#424242"/><linearGradient id="f" x1="65.3" x2="45.8" y1="74.5" y2="41.4" gradientTransform="matrix(1 0 0 -1 -40.9 128)" gradientUnits="userSpaceOnUse"><stop offset="0" style="stop-color:#ffb300"/><stop offset=".4" style="stop-color:#ffca28"/></linearGradient><path d="m28 54.1-9.7-.6-6 13.3L6 76a9 9 0 0 0-3 5.2c-.8 2.8-.4 4.4 0 5s2.2 2.5 3.4 1.4 1.1-5.2 2.3-5c.6.2-.2 1.5-.3 2.7s.9 1.4 1.5 1c.4-.1 1.9-2.7 1.9-2.7l.6-4.2 15.2-21.2z" style="fill:url(#f)"/><linearGradient id="g" x1="143.2" x2="123.6" y1="53.4" y2="86.7" gradientTransform="rotate(-175 99.45 1.76)scale(1 -1)" gradientUnits="userSpaceOnUse"><stop offset="0" style="stop-color:#ffb300"/><stop offset=".4" style="stop-color:#ffca28"/></linearGradient><path d="M47 57.5 61 81s-1.5 2.6-.3 4.9c1.6 1.1 2.3-2.3 3-2.4 1.1-.1 3 4.6 4.3 4.6 2.4 1 3.5-2.2 3.5-4 1-3.4-5.3-6.9-5.3-6.9-1.7-3-4.7-9.8-4.7-9.8l-4.8-13.8-9.7-.2z" style="fill:url(#g)"/><path d="M36.7 4c-18.2 0-18 16.8-18 17 0 11 .8 26.4 5.1 32.4C25.6 55.8 29 56 29 56h15s3.4 0 5.1-2.5c4.4-6 5.2-21.4 5.2-32.3 0-.3.6-17-17.5-17" style="fill:#543930"/><radialGradient id="h" cx="36.4" cy="99.4" r="21.1" gradientTransform="matrix(1 0 0 -1.19 0 146.89)" gradientUnits="userSpaceOnUse"><stop offset=".8" style="stop-color:#6d4c41;stop-opacity:0"/><stop offset="1" style="stop-color:#6d4c41"/></radialGradient><path d="M36.7 4c-18.2 0-18 16.8-18 17 0 11 .8 26.4 5.1 32.4C25.6 55.8 29 56 29 56h15s3.4 0 5.1-2.5c4.4-6 5.2-21.4 5.2-32.3 0-.3.6-17-17.5-17" style="fill:url(#h)"/><linearGradient id="i" x1="77.4" x2="77.4" y1="84.2" y2="50" gradientTransform="matrix(1 0 0 -1 -40.9 128)" gradientUnits="userSpaceOnUse"><stop offset="0" style="stop-color:#651fff"/><stop offset=".7" style="stop-color:#5914f2"/><stop offset="1" style="stop-color:#530eeb"/></linearGradient><path d="M47 44.9c-2.3-.7-6.6-1-10.6-1-4-.1-8.2.3-10.6 1-7.5 2-9.4 5.5-11.6 11.6l8.2 3.2V78h28V59.7l8.4-3.2c-2.3-6-4.2-9.6-11.7-11.6" style="fill:url(#i)"/><path d="M36.5 40.7h5V46c0 2.4-2 4.4-4.6 4.4H36c-2.5 0-4.5-2-4.5-4.4v-5.3z" style="fill:#e59600"/><path d="M36.5 8.4C44 8.4 51 14 51 26c0 9.6-6 15.4-11.1 17.2q-2 .7-3.5.7-1.7 0-3.5-.7A18 18 0 0 1 21.7 26c0-12 7-17.7 14.7-17.7" style="fill:#ffca28"/><path d="M32.7 36c1.4.8 6 .8 7.4 0 .8-.5 1.6.2 1.3 1-.3.7-2.8 2.3-5 2.3s-4.6-1.6-5-2.3c-.3-.8.5-1.5 1.3-1" style="fill:#795548"/><path d="M34.7 32.4h3.4q.5.2.3.7c-.2.5-.7 1.2-2 1.2-1.2 0-1.8-.9-2-1.2s0-.6.3-.7" style="fill:#e59600"/><circle cx="43.6" cy="28.3" r="2.2" style="fill:#404040"/><circle cx="29.2" cy="28.3" r="2.2" style="fill:#404040"/><path d="M40.4 24.3c.4-.5 1.4-1.3 3.2-1.3s2.8.8 3.2 1.3q.3.4 0 .7-.1.3-.8.2-.5-.3-2.4-.5-1.8.2-2.3.5-.7.1-.9-.2zm-14.4 0c.4-.5 1.4-1.3 3.2-1.3s2.8.8 3.2 1.3q.3.4 0 .7-.1.3-.8.2-.5-.3-2.4-.5-1.8.2-2.3.5-.7.1-.9-.2z" style="fill:#6d4c41"/><path d="M36.7 4c-18.2 0-18 16.8-18 17q0 5.3.3 11.3h3c0-1.3.8-9.3 3.5-9.9 10-2.2 15.6-7.5 15.6-7.5 1.4 3.2 6 6.3 7.6 7.5 1.4 1 1.8 8.2 1.7 10H54v-.2l.3-11.1c0-.3.6-17-17.5-17" style="fill:#543930"/><radialGradient id="j" cx="36.6" cy="97.6" r="22.1" gradientTransform="matrix(1 0 0 -1.214 0 148.83)" gradientUnits="userSpaceOnUse"><stop offset=".8" style="stop-color:#6d4c41;stop-opacity:0"/><stop offset="1" style="stop-color:#6d4c41"/></radialGradient><path d="M36.7 4c-18.2 0-18 16.8-18 17q0 5.3.3 11.3h3c0-1.3.8-9.3 3.5-9.9 10-2.2 15.6-7.5 15.6-7.5 1.4 3.2 6 6.3 7.6 7.5 1.4 1 1.8 8.2 1.7 10H54v-.2l.3-11.1c0-.3.6-17-17.5-17" style="fill:url(#j)"/><path d="m67.3 86.4-.5-.1q.4-1.2-.6-1.7l-.5-.2h-.2q.4-.9-.5-1.5l-.6-.2q-.4 0-.7.3 0-.6-.6-1h-.6q-.6 0-1 .6l-1 2q-.3 1 .6 1.7l.6.1.5-.1v.3q.2.5.6.7l.5.2.6-.2q0 .6.6 1h1q0 .5.6.8l.5.1q.9 0 1.1-.7l.2-.4q.4-1-.6-1.7" style="fill:#ffca28"/><path d="M67.6 86.3c.5-1.8-1.5-2.2-1.5-2.2.3-1-1.3-2.2-2.3-1.6-1.5-1.5-2.5-.1-2.7.8 0 0 .8-1.1 1.5-.7q.8.4.4 1.2l-.5 1.5 1-1.6c.2-.2.7-.6 1.3-.3.5.3.5 1 .5 1.2l-1 2 1-1q.3-.7 1-.5.8.6.4 1.2l-.8 1.5s.8-1.2 1.6-.6c.5.5 0 1.5.1 1.5 1.5-1.5 0-2.4 0-2.4" style="fill:#eda600"/></svg>