<svg xml:space="preserve" width="16" height="16" viewBox="0 0 128 128"><path d="M67.2 13.3c-2.5-4-8.2-7.2-13-6.4-5.2.9-8 4.7-8.8 9.5q-.4 2.7 0 4.7l.4 1.6c.2 1.3-2.3 2.6-2.6 4-.2 1 2 1.8 2.2 2 1 1-.5 5.5 5.7 6 2.4.2 1.9 0 2.6.3 1 .4 1 3.3 1 3.3s.6 4.8 4.7 3.5c4.6-1.4 4.8-4.7 4.8-4.7s-1.7-4.6 1-9.4c2.3-3.8 3.6-11.7 2-14.4" style="fill:#70534a"/><path d="M46 31.2q1.4.1 2.5-.7c.8-.6.2-1.2-.7-.8q-.8.3-2 .2z" style="fill:#1a1717"/><ellipse cx="49.6" cy="23.4" rx="1.1" ry="1.7" style="fill:#1a1717" transform="rotate(-1.8 49.65 23.39)"/><path d="M48.8 20.8c-1.1.3-1.4-.5-1-1s1-.8 2.3-.4q1.6.6 2 1.4.4 1 0 1c-.5 0-2-1.3-3.3-1" style="fill:#1a1717"/><path d="m85.3 108.7-14.1-16a6 6 0 0 1-1.5-3.7l-1.4-22.4-15.5 1.7 5 23.2a16 16 0 0 0 5.9 9.4L80 113.5z" style="fill:#616161"/><path d="m68.2 62.9-17.6 1.6L46 84.9q-1.2 5.6-.8 11.5l1.6 23.2h6.7l3-25 5.1-13.4c4-2 7.6-5 7.4-9.9q-.2-4.2-.8-8.4" style="fill:#7c7c7c"/><linearGradient id="a" x1="51.9" x2="69.1" y1="77.6" y2="65.6" gradientTransform="matrix(1 0 0 -1 0 128)" gradientUnits="userSpaceOnUse"><stop offset="0" style="stop-color:#00bfa5"/><stop offset=".5" style="stop-color:#00b29a"/><stop offset="1" style="stop-color:#009e89"/></linearGradient><path d="M64.9 73.5h-12c-2.2 0-4-2.2-4-4.8L51 46.2c.5-4.2 2.6-8.1 4.7-9.6a11 11 0 0 1 4.8-1.7c1.5-.1 3.8.3 5.2 2.4.9 1.3 1.5 3.7 1.7 5.9L69 68.7c0 2.6-1.8 4.8-4.1 4.8" style="fill:url(#a)"/><linearGradient id="b" x1="59.2" x2="56" y1="57.6" y2="76.3" gradientTransform="matrix(1 0 0 -1 0 128)" gradientUnits="userSpaceOnUse"><stop offset=".5" style="stop-color:#70534a"/><stop offset="1" style="stop-color:#5c4037"/></linearGradient><path d="m66.8 60.3-2.2-13.8-7 1 2.1 13.3-3.5 9.8c-.3.5-3.5 2-3.7 2q-.9.5-1.4 2c-.2.8-.6 2.9.4 3.2-.4 1-.1 2.2.1 2.5.6.6 1.3.3 1.3.3s.1.8.8 1c.8.4 1.4 0 1.4 0l1 .3 1.1-.4c.2 0 .7.4 1.4-.1.4-.3 1.7-2 2.2-3.2.2-.7.2-4.5.5-5.2l5.2-10.2q.6-1.2.3-2.5" style="fill:url(#b)"/><linearGradient id="c" x1="53.3" x2="55.6" y1="44.8" y2="50.7" gradientTransform="matrix(1 0 0 -1 0 128)" gradientUnits="userSpaceOnUse"><stop offset=".5" style="stop-color:#70534a"/><stop offset="1" style="stop-color:#5c4037"/></linearGradient><path d="M58.9 78.7q-.3-.8-.8-.5-1 .3-1.6-.6 0-.2-.3-.2-1 .5-1.7-.7 0-.4-.6-.4c-.1 0-.4.2-.8-.2s.1-1.3-.4-1.4c-.1 0-.8.1-1-.7-.2-.5.4-1 .4-1q-.6.4-1 1.7c-.1.7-.6 2.8.4 3.1-.4 1-.1 2.2.1 2.5.6.6 1.4.3 1.4.3s0 .9.7 1c.8.4 1.4 0 1.4 0l1 .3 1.1-.4c.2 0 .8.4 1.4-.1.4-.3 1.4-1.5 1.9-2.6-.5.4-1.5.4-1.6-.1" style="fill:url(#c)"/><path d="M54.6 124q1 0 1.2-1.2V120c0-1.9-2-4-2-4h-7l-6.2 2a4 4 0 0 0-2.6 3.7v1.3q.1.9 1 1z" style="fill:#4568ad"/><path d="M89.7 111.8q.6-.7 0-1.6l-2-2c-1.4-1.3-4.3-1.5-4.3-1.5l-4.9 5-3 5.9a4 4 0 0 0 .9 4.4l.8.9q.7.6 1.5 0z" style="fill:#325599"/><path d="M58.4 79.4q0 .7-.3 1.2a2 2 0 0 1-.9.9q0-.7.3-1.3.2-.5.9-.8m-2-.9q0 1-.3 1.7-.3.8-1 1.4 0-.8.3-1.7t1-1.4m-2.4-1q0 1-.2 1.7-.2.8-.8 1.5-.2-1 .1-1.7.2-.8.9-1.5m-.2-3.6-.9.8-.5 1q-.2 1.1-1 2.2-.2-1.3.4-2.5.3-.6.8-1z" style="fill:#4a2f27"/><path d="m56.4 53 10.9-2-1.8-9.7c-.5-3-3.4-5-6.4-4.4s-5 3.4-4.5 6.4z" style="fill:#04a287"/><path d="M67.7 10.6a15 15 0 0 0-10.5-4.9q-4.1 0-7.5 1.5s-4.2 2.1-5.2 4.2 0 3.4.2 3.6c.3.4 1.1.3 1.1.3a44 44 0 0 1 9.2 0q.7 0 1 .5l.2 1.4c.2 2.3 0 3.7.8 5.2 0 .2.6.5.6.5l.9-1.5q.7-1.4 1.9-1.4c2.2.4 2 4.5-.7 5.5 0 0 .6 3.1 3.5 3.6 2.5.5 2.8-.1 3-1 .6-2.1 1.1-3 1.7-4 .7-1.1 1.5-2.3 2-5.4q.6-4.6-2.2-8.1" style="fill:#232020"/><radialGradient id="d" cx="56.4" cy="107.3" r="16.2" gradientTransform="rotate(186.7 -2.48 59.98)scale(-1 .986)" gradientUnits="userSpaceOnUse"><stop offset=".5" style="stop-color:#444140;stop-opacity:0"/><stop offset="1" style="stop-color:#444140"/></radialGradient><path d="M67.7 10.6a15 15 0 0 0-10.5-4.9q-4.1 0-7.5 1.5s-4.2 2.1-5.2 4.2 0 3.4.2 3.6c.3.4 1.1.3 1.1.3a44 44 0 0 1 9.2 0q.7 0 1 .5l.2 1.4c.2 2.3 0 3.7.8 5.2 0 .2.6.5.6.5l.9-1.5q.7-1.4 1.9-1.4c2.2.4 2 4.5-.7 5.5 0 0 .6 3.1 3.5 3.6 2.5.5 2.8-.1 3-1 .6-2.1 1.1-3 1.7-4 .7-1.1 1.5-2.3 2-5.4q.6-4.6-2.2-8.1" style="fill:url(#d)"/></svg>