<svg xml:space="preserve" width="16" height="16" viewBox="0 0 128 128"><linearGradient id="a" x1="98.1" x2="107.8" y1="210.7" y2="200.9" gradientTransform="rotate(-7.9 -852.99 480.25)" gradientUnits="userSpaceOnUse"><stop offset=".2" style="stop-color:#814d3c"/><stop offset="1" style="stop-color:#51362d"/></linearGradient><path d="M78.4 73.2 50.2 48.4l-.9.6-7 11.2s-6.3 2.8-7 2.7c-.8-.2-9.5-9.6-10.7-10-1.3-.4-4.7.2-6.5.5-1.4.2-6.1.9-5.7 2.7.2 1.1 2 1.7 4.5 1.4l4.4-.6S32 68 33.6 68.5s7.7-.8 10.3-1.6l9-3.2-2.7 4S40.4 76 40 77.7s5.5 15 5.8 16.5c.2 1.6-.8 5.2-.6 9.4.1 4.2-.2 10.7 1.9 9.5 1.3-.8 2-8.4 2.6-12.4.4-2.8.8-6.6.7-8.4 0-1.9-3.6-11.9-3.7-12.4 0-.5 6.3-3.7 7-4.5s2.6-3.7 2.6-3.7l3 4.5s-4.9 14-4.6 16 8.8 7.6 10.8 9.5 2.9 3.8 3.9 6.1c1.4 3.4 4 8.2 5.4 10.1 1.3 1.8 5.2 4.8 6.5 5.1 2.6.7-2-6.2-4.8-12.4-3-6-3.9-9.7-4.6-11-.8-1.5-9.4-7.5-9.5-8.4-.1-.8 4.7-9 4.7-9z" style="fill:url(#a)"/><linearGradient id="b" x1="68.8" x2="68.8" y1="161.8" y2="221" gradientTransform="rotate(-8.7 -774.82 432.99)" gradientUnits="userSpaceOnUse"><stop offset=".2" style="stop-color:#cf7756"/><stop offset=".3" style="stop-color:#c87354"/><stop offset=".6" style="stop-color:#a15e47"/><stop offset=".8" style="stop-color:#8a523f"/><stop offset=".9" style="stop-color:#814d3c"/></linearGradient><path d="M36.8 41.5s-.7 2.5-1.6 4c-.1.2-12.5-8.7-21.2-3.3C.5 50.6 15.5 76 14 88c-1.1 8.3-4 10.2-4.8 9.7-1.4-.6 2.7-4 1.3-15.1C9 70-2.4 49.4 10.3 40c12.4-9.2 26.4 1.5 26.4 1.5" style="fill:url(#b)"/><linearGradient id="c" x1="460.2" x2="469.8" y1="-63.1" y2="-73" gradientTransform="rotate(97.9 276.55 -106.84)scale(1 -1)" gradientUnits="userSpaceOnUse"><stop offset=".2" style="stop-color:#814d3c"/><stop offset="1" style="stop-color:#51362d"/></linearGradient><path d="M73.6 78 48.7 49.8l.6-.9 11.3-7s2.8-6.3 2.6-7-9.5-9.5-10-10.7c-.3-1.2.2-4.7.5-6.5.3-1.4 1-6.1 2.8-5.7 1 .2 1.7 2 1.3 4.5l-.5 4.5s11 10.5 11.5 12.2-.8 7.7-1.6 10.4l-3 8.8 3.8-2.6s8.5-9.8 10.1-10.1 15 5.6 16.5 5.8 5.2-.7 9.4-.6 10.6-.2 9.5 1.9c-.8 1.3-8.5 2-12.5 2.6a56 56 0 0 1-8.4.8c-1.8-.2-11.8-3.7-12.3-3.8s-3.7 6.3-4.5 7c-.9.8-3.7 2.6-3.7 2.6l4.5 3.1s14-5 16-4.7 7.6 8.8 9.5 10.8 3.8 3 6.1 4a55 55 0 0 1 10.1 5.3c1.8 1.3 4.8 5.2 5 6.5.7 2.7-6.1-2-12.3-4.8-6.1-2.9-9.7-3.8-11.1-4.6s-7.4-9.3-8.3-9.4c-.9-.2-9.1 4.6-9.1 4.6z" style="fill:url(#c)"/><linearGradient id="d" x1="434.9" x2="434.9" y1="-106.7" y2="-47.5" gradientTransform="rotate(98.7 274.25 -108.66)scale(1 -1)" gradientUnits="userSpaceOnUse"><stop offset=".2" style="stop-color:#cf7756"/><stop offset=".3" style="stop-color:#c87354"/><stop offset=".6" style="stop-color:#a15e47"/><stop offset=".8" style="stop-color:#8a523f"/><stop offset=".9" style="stop-color:#814d3c"/></linearGradient><path d="M41.8 36.4s2.5-.7 4-1.5c.3-.2-8.7-12.6-3.2-21.3 8.3-13.5 33.8 1.5 45.8 0 8.3-1 10.1-4 9.7-4.8C97.5 7.4 94 11.5 83 10 70.5 8.5 49.8-2.7 40.4 10c-9.2 12.4 1.4 26.4 1.4 26.4" style="fill:url(#d)"/><path d="M105.7 118.5q-1 0-1.5-1l-2.8-7.8q-.3-1.2.8-1.8 1.3-.2 1.8.9l2.8 7.8a1.4 1.4 0 0 1-1.1 1.9m13.3-13.3q0-1-1-1.4l-7.8-2.9q-1.3-.2-1.8.9t.8 1.8l7.9 2.8q1.2.2 1.8-.9zM42.8 58s-5.4-5-7-9.3c-1.5-3.7-1.9-7.4 2-11.3 4.4-4.3 8.8-3.7 13.2-1.6 3.5 1.7 8 6 8 6z" style="fill:#cf7756"/><ellipse cx="39" cy="45.8" rx="2.3" ry="2.8" style="fill:#2f2f2f" transform="rotate(-25.8 38.95 45.82)"/><ellipse cx="46.5" cy="38.1" rx="2.3" ry="2.8" style="fill:#2f2f2f" transform="rotate(-63.8 46.46 38.13)"/><path d="M42.6 37.7c-.2-1.1-2.7-.9-4 .4s-1 3.8 0 3.9c1 0 .8-1.5 1.7-2.4.9-1 2.4-1 2.3-2" style="fill:#2f2f2f"/><path d="M62.9 43.2c-6.8-5.7-14.3-3-18.3 1s-6.6 11.5-1 18.2c6.7 7.9 12.5 6.2 12.5 6.2l8.2-4.7 4.7-8.3s1.7-5.8-6.1-12.4" style="fill:#734434"/><path d="M60 62.3C54 61 48.4 63.6 46 65c5.7 5 10.2 3.7 10.2 3.7l6.8-4.3s-1.1-1.6-3-2m2.8-2.9c-1.3-6 1.3-11.5 2.6-14 5 5.7 3.7 10.2 3.7 10.2l-4.3 6.9s-1.6-1.2-2-3" style="fill:#cf7756"/><linearGradient id="e" x1="67.4" x2="67.4" y1="124.8" y2="70" gradientTransform="rotate(-45 56.46 71.5)" gradientUnits="userSpaceOnUse"><stop offset=".3" style="stop-color:#cf7756"/><stop offset="1" style="stop-color:#814d3c"/></linearGradient><path d="M78 56.6c-3.1-2.3-6.9-2.2-6.9-2.2s-3.9 6.9-6.6 9.7c-2.9 2.8-9.7 6.7-9.7 6.7s-.1 3.7 2.2 7A106 106 0 0 0 70.4 91c5.1 4.3 30.8 28.6 40.2 19.2S95.8 75.2 91.4 70a105 105 0 0 0-13.3-13.4" style="fill:url(#e)"/><linearGradient id="f" x1="439.9" x2="425.1" y1="-54.7" y2="-72" gradientTransform="matrix(-.025 1 1 .025 146.6 -358.74)" gradientUnits="userSpaceOnUse"><stop offset=".5" style="stop-color:#734434"/><stop offset="1" style="stop-color:#51362d"/></linearGradient><path d="M97 106v-.2c0-.2-1.1-7.1-5-19.3a84 84 0 0 0-11.2-20.7c-4.9-6.4-9.8-10-10-10.2A1.5 1.5 0 1 0 69 58s4.8 3.7 9.4 9.6a85 85 0 0 1 15.5 38.5q.2 1.3 1.6 1.4 1.3-.2 1.4-1.5" style="fill:url(#f)"/><linearGradient id="g" x1="168.9" x2="154.2" y1="202.8" y2="185.5" gradientTransform="rotate(-1.4 -4736.24 3635.05)" gradientUnits="userSpaceOnUse"><stop offset=".5" style="stop-color:#734434"/><stop offset="1" style="stop-color:#51362d"/></linearGradient><path d="M107 96h-.2c-.2 0-7.2-1-19.4-5a84 84 0 0 1-20.7-11c-6.3-5-10-9.8-10.2-10a1.5 1.5 0 1 1 2.5-2s3.6 4.8 9.6 9.4A85 85 0 0 0 107 93q1.4.2 1.4 1.7-.1 1.3-1.5 1.4" style="fill:url(#g)"/><path d="M68.8 51.9s-2 6.9-5.5 10.7C60 66.2 53 69 53 69s0 1 .3 1.6q.6 1 1.7 1.3c1.1.1 8-3 12-7.6s5.9-10.5 3.7-11.9c-1.2-.7-1.8-.4-1.8-.4" style="fill:#51362d"/></svg>