<svg xml:space="preserve" width="16" height="16" viewBox="0 0 128 128"><radialGradient id="a" cx="64.9" cy="83.3" r="91" gradientUnits="userSpaceOnUse"><stop offset=".2" style="stop-color:#fda72c"/><stop offset=".4" style="stop-color:#fca330"/><stop offset=".5" style="stop-color:#f9963b"/><stop offset=".6" style="stop-color:#f5814e"/><stop offset=".6" style="stop-color:#f5814e"/><stop offset=".7" style="stop-color:#e07c5e"/><stop offset=".8" style="stop-color:#a96f86"/><stop offset="1" style="stop-color:#7362ad"/></radialGradient><path d="M124.2 11.4c0-4.1-3.4-7.5-7.6-7.5H11.3a7.5 7.5 0 0 0-7.5 7.5v105.3c0 4.2 3.4 7.6 7.5 7.6h105.3c4.2 0 7.5-3.4 7.5-7.6z" style="fill:url(#a)"/><path d="M66.3 60.8C81 60.9 90.1 72 90.5 85.9S80.3 110.3 65 110.3c-13 0-24-11-23.6-27.2a23.6 23.6 0 0 1 24.8-22.3" style="fill:#fff7b3"/><path d="M50 72.3c-2.3 3.3-4.6 7.6-1.5 9.5 2.7 1.6 4.9-2.4 6.7-5 1.9-2.5 5.7-6.1 3.1-8.4C56.6 67 53 68 50 72.3" style="fill:#fffffc"/><radialGradient id="b" cx="42.2" cy="79.2" r="51.9" gradientUnits="userSpaceOnUse"><stop offset=".3" style="stop-color:#ffc618"/><stop offset=".4" style="stop-color:#febe1d"/><stop offset=".5" style="stop-color:#fca929"/><stop offset=".7" style="stop-color:#f98d39"/><stop offset=".8" style="stop-color:#f98d39;stop-opacity:0"/></radialGradient><path d="M3.8 64.8V82l35.9-3.8z" style="fill:url(#b)"/><radialGradient id="c" cx="42.4" cy="73.8" r="49.6" gradientUnits="userSpaceOnUse"><stop offset=".3" style="stop-color:#ffc618"/><stop offset=".4" style="stop-color:#febe1d"/><stop offset=".5" style="stop-color:#fca929"/><stop offset=".7" style="stop-color:#f98d39"/><stop offset=".9" style="stop-color:#f98d39;stop-opacity:0"/></radialGradient><path d="M3.8 41.7v13.6l36.7 20.3 2-4z" style="fill:url(#c)"/><radialGradient id="d" cx="48.1" cy="67.2" r="59.3" gradientUnits="userSpaceOnUse"><stop offset=".3" style="stop-color:#ffc618"/><stop offset=".4" style="stop-color:#febe1d"/><stop offset=".5" style="stop-color:#fca929"/><stop offset=".7" style="stop-color:#f98d39"/><stop offset=".9" style="stop-color:#f98d39;stop-opacity:0"/></radialGradient><path d="M4.5 10.6c-1 2-.7 7.2-.7 12v4.8l39.8 42.3a25 25 0 0 1 4-4.3z" style="fill:url(#d)"/><radialGradient id="e" cx="52.8" cy="63.7" r="61" gradientUnits="userSpaceOnUse"><stop offset=".3" style="stop-color:#ffc618"/><stop offset=".4" style="stop-color:#febe1d"/><stop offset=".5" style="stop-color:#fca929"/><stop offset=".7" style="stop-color:#f98d39"/><stop offset=".9" style="stop-color:#f98d39;stop-opacity:0"/></radialGradient><path d="M28.3 4H14l35.6 59.7q2-1.5 4.5-2.6z" style="fill:url(#e)"/><radialGradient id="f" cx="58.7" cy="60.7" r="60.1" gradientUnits="userSpaceOnUse"><stop offset=".3" style="stop-color:#ffc618"/><stop offset=".4" style="stop-color:#febe1d"/><stop offset=".5" style="stop-color:#fca929"/><stop offset=".7" style="stop-color:#f98d39"/><stop offset=".9" style="stop-color:#f98d39;stop-opacity:0"/></radialGradient><path d="M50.7 4H39.2l17 56.2q2.3-.8 5.1-1.3z" style="fill:url(#f)"/><radialGradient id="g" cx="65.8" cy="59.6" r="59.3" gradientUnits="userSpaceOnUse"><stop offset=".3" style="stop-color:#ffc618"/><stop offset=".4" style="stop-color:#febe1d"/><stop offset=".5" style="stop-color:#fca929"/><stop offset=".7" style="stop-color:#f98d39"/><stop offset=".9" style="stop-color:#f98d39;stop-opacity:0"/></radialGradient><path d="M72.3 4h-11l2.1 54.7a29 29 0 0 1 5.5 0z" style="fill:url(#g)"/><radialGradient id="h" cx="73" cy="59.8" r="58.1" gradientUnits="userSpaceOnUse"><stop offset=".3" style="stop-color:#ffc618"/><stop offset=".4" style="stop-color:#febe1d"/><stop offset=".5" style="stop-color:#fca929"/><stop offset=".7" style="stop-color:#f98d39"/><stop offset=".9" style="stop-color:#f98d39;stop-opacity:0"/></radialGradient><path d="M93.6 4h-11L70.9 59q3 .5 5.3 1.4z" style="fill:url(#h)"/><radialGradient id="i" cx="78.6" cy="63.1" r="61.9" gradientUnits="userSpaceOnUse"><stop offset=".3" style="stop-color:#ffc618"/><stop offset=".4" style="stop-color:#febe1d"/><stop offset=".5" style="stop-color:#fca929"/><stop offset=".7" style="stop-color:#f98d39"/><stop offset=".9" style="stop-color:#f98d39;stop-opacity:0"/></radialGradient><path d="M116.3 4h-12.1L78 61.2q2.5 1.4 4.5 3z" style="fill:url(#i)"/><radialGradient id="j" cx="84.6" cy="67.8" r="57.7" gradientUnits="userSpaceOnUse"><stop offset=".3" style="stop-color:#ffc618"/><stop offset=".4" style="stop-color:#febe1d"/><stop offset=".5" style="stop-color:#fca929"/><stop offset=".6" style="stop-color:#f98d39"/><stop offset=".9" style="stop-color:#f98d39;stop-opacity:0"/></radialGradient><path d="M124.2 32.6v-18L84.2 66l1 1q1.4 1.5 2.6 3.1z" style="fill:url(#j)"/><radialGradient id="k" cx="90" cy="74.6" r="39.3" gradientUnits="userSpaceOnUse"><stop offset=".3" style="stop-color:#ffc618"/><stop offset=".4" style="stop-color:#febe1d"/><stop offset=".6" style="stop-color:#fca929"/><stop offset=".7" style="stop-color:#f98d39"/><stop offset=".9" style="stop-color:#f98d39;stop-opacity:0"/></radialGradient><path d="M124.1 57.5V44.7l-35 27.6q1.8 3.3 2.2 5.3z" style="fill:url(#k)"/><radialGradient id="l" cx="93.3" cy="79.2" r="39.3" gradientUnits="userSpaceOnUse"><stop offset=".5" style="stop-color:#ffc618"/><stop offset=".6" style="stop-color:#febe1d"/><stop offset=".7" style="stop-color:#fca929"/><stop offset=".8" style="stop-color:#f98d39"/><stop offset=".9" style="stop-color:#f98d39;stop-opacity:0"/></radialGradient><path d="m94.9 79.7 29.2 6V67.6z" style="fill:url(#l)"/><radialGradient id="m" cx="67" cy="66.7" r="64" gradientTransform="matrix(-.01 1 -1.12 -.012 142.46 .4)" gradientUnits="userSpaceOnUse"><stop offset=".5" style="stop-color:#cd6159"/><stop offset=".5" style="stop-color:#bb595a"/><stop offset=".7" style="stop-color:#7a3d5c"/><stop offset="1" style="stop-color:#4d242c"/></radialGradient><path d="M3.8 80.6v36.1c0 4.2 3.4 7.6 7.5 7.6h105.3c4.2 0 7.5-3.4 7.5-7.6V79s-4-2.9-5.3-4.8c-1.3-2-5.8-5.8-10.6-5.6s-9.7 2.7-12 4.5-4.2 3.6-7.1 5.2A98 98 0 0 0 74 91c-4 4.3-8.3 8.6-8.3 8.6s-8.5-11.8-13.9-17c-5.4-5.3-8.3-7.4-11-7.6s-3.3.8-3.3.8-5.7-10-9.5-12.1c-3.8-2.2-9-1-10-.6-1 .3-6.5 5-8.4 7.5-3.2 4.3-5.9 10-5.9 10" style="fill:url(#m)"/><path d="M92.8 104s-3.6 1.8-5.6 3.5-5.2 6.1-7.2 9.1-3 6.4-3 6.4l-.6 1.3h24.7s2.1-11.3 2.4-16.7 1.3-17.4 1.6-19.6c.2-2.2 1.4-5.8-.3-5.8s-2.5 3.7-3.9 5.1-4 2.6-5 4.3-3.1 12.5-3.1 12.5" style="fill:#3e2230"/><radialGradient id="n" cx="66.1" cy="85.5" r="39" gradientUnits="userSpaceOnUse"><stop offset=".4" style="stop-color:#823437"/><stop offset=".5" style="stop-color:#713035"/><stop offset=".6" style="stop-color:#5b2a33"/><stop offset=".7" style="stop-color:#4b2531"/><stop offset=".8" style="stop-color:#412330"/><stop offset="1" style="stop-color:#3e2230"/></radialGradient><path d="m29.5 124.3-.9-8.4-.9-9c-.6-3.8-1.6-9.2-1.1-11 .4-2 2.5-3 3.7-2.8 1.3 0 5.2 3 6.6 6s3.8 11.6 5.6 13.2a38 38 0 0 0 7.2 4.3c1.5.7 3.5.8 4.4 2s1 2.1 1.8 3l2.3 2.7z" style="fill:url(#n)"/><radialGradient id="o" cx="62.7" cy="73.9" r="41.9" fx="62.6" fy="73.9" gradientUnits="userSpaceOnUse"><stop offset=".6" style="stop-color:#823437"/><stop offset=".7" style="stop-color:#7d3336"/><stop offset=".8" style="stop-color:#6e2f35"/><stop offset=".9" style="stop-color:#562832"/><stop offset=".9" style="stop-color:#3e2230"/></radialGradient><path d="M40.7 94.1c-2.3-2.8-4.4-6.8-6.6-9.4s-2.6-4.1-2.4-5.8c.3-1.6 2.3-.3 3.5.4 1.1.7 4.9 2.9 7.9 8s3.8 8 4.4 8.6 2 1.6 3.5 4a64 64 0 0 1 6 12.7c-.4.7-7.4-2.3-10.4-4.7s-4-5.4-4.5-7.5 0-4.6-1.4-6.3" style="fill:url(#o)"/><radialGradient id="p" cx="68.8" cy="82" r="41.5" gradientTransform="rotate(57.3 107.37 103.15)scale(1 1.515)" gradientUnits="userSpaceOnUse"><stop offset=".1" style="stop-color:#823437"/><stop offset=".3" style="stop-color:#7d3337"/><stop offset=".5" style="stop-color:#6f2f35"/><stop offset=".7" style="stop-color:#582933"/><stop offset=".8" style="stop-color:#3e2230"/></radialGradient><path d="M59.2 106c-.8 1.2.6 3 1.9 4.6 1.3 1.7 3.1 5.6 3.1 5.6s-1 4.2.7 4.9 4.8-2.9 6.8-5 4.5-5 5.6-7.8 2.7-6.7 4.7-9 4.2-3.5 5.5-5.5c1.3-2.1 2.3-6 2.3-6s4-1.7 3.7-4.8-6.2 4.2-8.2 6.6-2.8 3.2-4.6 4.4L78 95.6s-3.6 2.5-4 3.3c-.5.8-4.6 11.6-4.6 11.6s-8.8-7.1-10.3-4.6" style="fill:url(#p)"/><path d="M10.4 124.2a7.5 7.5 0 0 1-6.6-7.5V93.4s2-1.4 4.4-4.8 4.9-8 5.8-9c1.2-1.2 3.8-1.2 4.2-.7.7.8.2 2.6-.1 3.6s-1.2 4.8-1.6 7-.6 8.8-1.4 13.5c-.8 4.8-1.7 12.3-2.6 14.8s-1.8 6-2.1 6.4" style="fill:#3e2230"/></svg>