<svg xmlns:xlink="http://www.w3.org/1999/xlink" xml:space="preserve" width="16" height="16" viewBox="0 0 128 128"><radialGradient id="a" cx="63.6" cy="808.9" r="57" gradientTransform="translate(0 -746)" gradientUnits="userSpaceOnUse"><stop offset=".5" style="stop-color:#fde030"/><stop offset=".9" style="stop-color:#f7c02b"/><stop offset="1" style="stop-color:#f4a223"/></radialGradient><path d="M63.6 118.8c-27.9 0-58-17.5-58-55.9S35.7 7 63.6 7c15.5 0 29.8 5.1 40.4 14.4 11.5 10.2 17.6 24.6 17.6 41.5s-6.1 31.2-17.6 41.4a61 61 0 0 1-40.4 14.5" style="fill:url(#a)"/><path d="M111.5 29.7a57 57 0 0 1 8.1 30.2c0 16.9-6.1 31.2-17.6 41.4a61 61 0 0 1-40.4 14.5 59 59 0 0 1-48.2-23 58 58 0 0 0 50.2 26c15.4 0 29.8-5.2 40.4-14.5a54 54 0 0 0 17.6-41.4q-.1-19.2-10.1-33.2" style="fill:#eb8f00"/><circle cx="82.6" cy="53.8" r="17.4" style="fill:#fff"/><ellipse cx="83.3" cy="53.8" rx="7.5" ry="7.6" style="fill:#422b0d"/><path d="m52.6 56.9-.2-.3-.5-.8-2.2-2.4q-1.5-1.5-3.4-2.9l-2-1.4-2.1-1.3q-1-.7-2.3-1.2l-2.2-1a32 32 0 0 0-7.4-2H29a2.5 2.5 0 0 0-.8 4.7l.2.1.9.3 2.4 1 3.5 1.5 1.9 1 2 1.1.4.3-1.3.1-1.3.2L33 55a20 20 0 0 0-5.6 3.3L25.8 60l-.2.3c-.8 1.1-.5 2.7.6 3.4q1.5.9 2.8 0l.3-.2.1-.1.5-.3 2-1.2a21 21 0 0 1 7.1-2 28 28 0 0 1 7.4 0l1.3.3.9.3h.3l.3.2.2.1a2.5 2.5 0 0 0 3.5-2.1q.1-1-.3-2" style="fill:#422b0d"/><defs><path id="b" d="M62.8 80.4q-17.3 0-34.3-2.9a3.5 3.5 0 0 0-4 4.2c3.2 16 19 29.1 38.3 29.1 21.2 0 35.5-13.6 38.5-29.2a3.5 3.5 0 0 0-4.2-4q-17 3-34.3 2.8"/></defs><clipPath id="c"><use xlink:href="#b" style="overflow:visible"/></clipPath><g style="clip-path:url(#c)"><path d="M62.8 80.4q-17.3 0-34.3-2.9a3.5 3.5 0 0 0-4 4.2c3.2 16 19 29.1 38.3 29.1 21.2 0 35.5-13.6 38.5-29.2a3.5 3.5 0 0 0-4.2-4q-17 3-34.3 2.8" style="fill:#422b0d"/></g><path d="M65.5 85h-3.9q-8.7 0-16.9-.7v24.6c0 9.4 7.7 17.1 17.2 17.1h3.3c9.5 0 17.2-7.7 17.2-17.2V84.2q-8.2.6-16.9.8" style="fill:#ff4081"/><path d="M63.6 106.3a2 2 0 0 0 2-2V85h-4v19.2q.1 1.8 2 2M65.5 85h-4q-8.5 0-16.8-.7v3.5a93 93 0 0 0 37.6-.2v-3.4q-8.1.6-16.8.8" style="opacity:.3;fill:#ab3f2e"/></svg>