<svg xml:space="preserve" width="16" height="16" viewBox="0 0 128 128"><linearGradient id="a" x1="64" x2="64" y1="35.8" y2="8" gradientTransform="matrix(1 0 0 -1 0 130)" gradientUnits="userSpaceOnUse"><stop offset="0" style="stop-color:#00bfa5"/><stop offset=".7" style="stop-color:#00b29a"/><stop offset="1" style="stop-color:#00ab94"/></linearGradient><path d="M114.4 119.9v4H13.6v-4c0-12.4 12.1-19.8 28-23.2q10.7-2.3 22.4-2.3h.1q11.7 0 22.3 2.4c15.8 3.6 28 11.3 28 23" style="fill:url(#a)"/><path d="M72.9 90H55v10a8 8 0 0 0 8 8.2h1.7a8 8 0 0 0 8.1-8.2zm18.4-39.6H36.7c-5.9 0-10.7 5.2-10.7 11.4s4.8 11.4 10.7 11.4h54.6a11 11 0 0 0 10.8-11.4c0-6.2-4.9-11.4-10.8-11.4" style="fill:#e59600"/><path d="M64 10c-17.4 0-33.5 18.7-33.5 45.4S47.1 95.3 64 95.3 97.5 82 97.5 55.4 81.5 10.1 64 10.1" style="fill:#ffca28"/><path d="M39.8 50.7c3.2-4.5 10.7-4.6 14.5-.8.6.7 1.3 1.5.8 2.5q-1 1.4-2.6.5A13 13 0 0 0 45 52l-3.2 1.1c-1.4.5-2.9-1-2-2.4m46.5 2.4q-3.3-1.6-7-1.2a13 13 0 0 0-3.2.8c-.8.3-1.7.9-2.6.3-2.4-1.7 1.9-4.4 3.2-5 2.7-1.2 6-1 8.7.3q1.7.9 2.8 2.4c.8 1.3-.4 3-2 2.4" style="fill:#6d4c41"/><ellipse cx="47.4" cy="58.8" rx="4.9" ry="5.1" style="fill:#404040"/><ellipse cx="80.7" cy="58.8" rx="4.9" ry="5.1" style="fill:#404040"/><path d="M67.9 68h-7.7q-1.1.5-.7 1.7c.4 1.2 1.7 2.7 4.5 2.7a5 5 0 0 0 4.6-2.7q.4-1.1-.7-1.7" style="fill:#e59600"/><path d="M72.4 76.1a26 26 0 0 1-16.8 0c-1.8-1-3.7.6-3 2.3s6.5 5.4 11.5 5.4 10.5-3.8 11.3-5.4c.7-1.7-1.1-3.4-3-2.3" style="fill:#795548"/><path d="M102 42.2a6 6 0 0 0 .7-4.4 4 4 0 0 0-2-2.7q.8-.7 1-3 0-3.4-3-5.2a7 7 0 0 0-4.4-7.7q0-2.7-2.1-4.7a6 6 0 0 0-4.3-1.8q-.9-2.5-3.2-3.9-2.3-1.2-4.6-.6A6.4 6.4 0 0 0 71.7 6 6 6 0 0 0 65 4.4L64 5l-1-.5c-2.3-.8-5-.2-6.7 1.6a6.4 6.4 0 0 0-8.4 2.2 6 6 0 0 0-4.6.6 7 7 0 0 0-3.2 3.9q-2.4 0-4.3 1.8-2 2-2 4.7a7 7 0 0 0-4.5 7.7q-3 1.8-3 5.2.2 2.3 1 3a4 4 0 0 0-2 2.7c-.4 1.5-.1 3.3.7 4.4-1.9 2.2-1.8 5.5.4 8q-1.2 2-.5 4.8c.8 2.6 2.9 3 2.9 3-1.2 2.7 1 6.7 2.6 7.3 0 0 1.7-23.3 7.2-30.2.6.6 1.7 1.6 3.8 1.2s2.7-1 3.2-2q.3 1.4 1.6 2.3a4 4 0 0 0 5.6-1.5q.7 2.5 3.3 3 2.7.3 4.2-1.9c.4.7 1.5 2.4 3.7 2.4 2.1 0 3.4-1.7 3.8-2.4a4 4 0 0 0 4.2 2q2.5-.6 3.2-3l.3.5a4 4 0 0 0 5.3 1q1.2-1 1.5-2.5c.6 1 1.5 2.3 4.2 2 2-.3 2.9-1.7 2.9-1.7 4.6 5.6 7.2 30.8 7.2 30.8 1.4-.5 3.1-4 3.2-7q2.1-1.1 2.7-3.9c.3-1.8-.2-2.8-.9-4.2 2.2-2.5 2.3-5.7.4-8" style="fill:#543930"/><radialGradient id="b" cx="64.5" cy="43.8" r="40.5" gradientUnits="userSpaceOnUse"><stop offset=".7" style="stop-color:#6d4c41;stop-opacity:0"/><stop offset="1" style="stop-color:#6d4c41"/></radialGradient><path d="M102 42.2a6 6 0 0 0 .7-4.4 4 4 0 0 0-2-2.7q.8-.7 1-3 0-3.4-3-5.2a7 7 0 0 0-4.4-7.7q0-2.7-2.1-4.7a6 6 0 0 0-4.3-1.8q-.9-2.5-3.2-3.9-2.3-1.2-4.6-.6A6.4 6.4 0 0 0 71.7 6 6 6 0 0 0 65 4.4L64 5l-1-.5c-2.3-.8-5-.2-6.7 1.6a6.4 6.4 0 0 0-8.4 2.2 6 6 0 0 0-4.6.6 7 7 0 0 0-3.2 3.9q-2.4 0-4.3 1.8-2 2-2 4.7a7 7 0 0 0-4.5 7.7q-3 1.8-3 5.2.2 2.3 1 3a4 4 0 0 0-2 2.7c-.4 1.5-.1 3.3.7 4.4-1.9 2.2-1.8 5.5.4 8q-1.2 2-.5 4.8c.8 2.6 2.9 3 2.9 3-1.2 2.7 1 6.7 2.6 7.3 0 0 1.7-23.3 7.2-30.2.6.6 1.7 1.6 3.8 1.2s2.7-1 3.2-2q.3 1.4 1.6 2.3a4 4 0 0 0 5.6-1.5q.7 2.5 3.3 3 2.7.3 4.2-1.9c.4.7 1.5 2.4 3.7 2.4 2.1 0 3.4-1.7 3.8-2.4a4 4 0 0 0 4.2 2q2.5-.6 3.2-3l.3.5a4 4 0 0 0 5.3 1q1.2-1 1.5-2.5c.6 1 1.5 2.3 4.2 2 2-.3 2.9-1.7 2.9-1.7 4.6 5.6 7.2 30.8 7.2 30.8 1.4-.5 3.1-4 3.2-7q2.1-1.1 2.7-3.9c.3-1.8-.2-2.8-.9-4.2 2.2-2.5 2.3-5.7.4-8" style="fill:url(#b)"/></svg>