<svg xml:space="preserve" width="16" height="16" viewBox="0 0 128 128"><radialGradient id="a" cx="64" cy="-1730.7" r="58.8" gradientTransform="matrix(1 0 0 -1 0 -1666.67)" gradientUnits="userSpaceOnUse"><stop offset=".5" style="stop-color:#fde030"/><stop offset=".9" style="stop-color:#f7c02b"/><stop offset="1" style="stop-color:#f4a223"/></radialGradient><path d="M64 6.3C32.9 6.3 4.1 27 4.1 64c0 37.3 28.8 57.8 59.9 57.8s59.9-20 59.9-57.8C123.8 26.5 95 6.3 64 6.3" style="fill:url(#a)"/><circle cx="34.6" cy="52" r="23" style="fill:#4fc3f7"/><circle cx="93.4" cy="52" r="23" style="fill:#4fc3f7"/><path d="M36.2 28.6h3.6V67h-3.6z" style="fill:#e1f5fe" transform="rotate(-41.4 37.97 47.87)"/><path d="m21.7 36.6-6.3 5.9 25.4 28.8 6.3-5.8z" style="fill:#e1f5fe"/><path d="M96.7 28.6h3.6V67h-3.6z" style="fill:#e1f5fe" transform="rotate(-41.4 98.52 47.87)"/><path d="M82.2 36.6 76 42.5l25.4 28.8 6.2-5.8z" style="fill:#e1f5fe"/><radialGradient id="b" cx="64" cy="88.4" r="33.8" gradientTransform="matrix(1 0 0 .462 0 47.59)" gradientUnits="userSpaceOnUse"><stop offset="0" style="stop-color:#000"/><stop offset="1" style="stop-color:#424242"/></radialGradient><path d="M96.7 86.8a11 11 0 0 0-2.1-7.4q-.4-.3-.7.2c0 1.7-.6 5.2-4.3 6.4-7 2.5-10.4-9.3-20.5-8.4a7 7 0 0 0-5.1 2.6 7 7 0 0 0-5.1-2.6c-10.1-1-13.6 10.9-20.5 8.4-3.7-1.2-4.3-4.7-4.4-6.4q-.1-.6-.6-.2a10 10 0 0 0-2.1 7.4c.6 5 5.4 6.5 5.4 6.5a5 5 0 0 1-4.2 1.5q-.8.1-.5 1a12 12 0 0 0 15.2 3q-.4 1.5-1.3 2.6-.4.6.2 1A16 16 0 0 0 64 98.5a16 16 0 0 0 17.8 3.7q.6-.3.3-1-.8-1-1.4-2.5c5 3 11.6 1.6 15.2-3q.4-.9-.5-1a5 5 0 0 1-4.2-1.5s4.8-1.5 5.5-6.5" style="fill:url(#b)"/><radialGradient id="c" cx="36.1" cy="33.3" r="22.1" gradientTransform="matrix(1 .006 -.004 .68 1.67 10.59)" gradientUnits="userSpaceOnUse"><stop offset="0" style="stop-color:#000"/><stop offset="1" style="stop-color:#424242"/></radialGradient><path d="M27.5 20c2.1 1.2 3.2 3.8 3.2 3.8s-3-2.3-8.1 1c-2.7 1.8-2.8 3.2-6 4.4q-.6.3-.2.9 2.6 2.3 6 3.6c3.6 1.4 7.4-.6 11.2-.7 5.1-.2 11.8 1.3 16.3 3.9a17 17 0 0 0-6.7-19.6.5.5 0 0 0-.8.5l.8 5.5a12 12 0 0 0-10.1-5.5c-1.7 0-4 .4-5.6 1.3-.4.1-.4.7 0 .9" style="fill:url(#c)"/><radialGradient id="d" cx="58.8" cy="37.6" r="20.4" gradientTransform="matrix(-1 .006 .003 .52 149.8 13.07)" gradientUnits="userSpaceOnUse"><stop offset="0" style="stop-color:#000"/><stop offset="1" style="stop-color:#424242"/></radialGradient><path d="M100.5 20c-2.1 1.2-3.2 3.8-3.2 3.8s3-2.3 8.1 1c2.7 1.8 2.8 3.2 6 4.4q.6.3.2.9a19 19 0 0 1-6 3.6c-3.6 1.4-7.4-.6-11.2-.7A34 34 0 0 0 78 36.9a17 17 0 0 1 6.7-19.6q.8-.2.8.5l-.8 5.5c2.3-3.5 5.9-5.6 10.1-5.5 1.7 0 4 .4 5.6 1.3.4.1.4.7 0 .9" style="fill:url(#d)"/><path d="M34.6 34.4a17.6 17.6 0 1 1 0 35.3 17.6 17.6 0 0 1 0-35.3m0-5.4a23 23 0 1 0 0 46 23 23 0 0 0 0-46m58.8 5.4a17.6 17.6 0 1 1 0 35.3 17.6 17.6 0 0 1 0-35.3m0-5.4a23 23 0 1 0 0 46 23 23 0 0 0 0-46" style="fill:#212121"/><linearGradient id="e" x1="113.7" x2="123.8" y1="52.2" y2="52.2" gradientUnits="userSpaceOnUse"><stop offset=".4" style="stop-color:#212121"/><stop offset=".7" style="stop-color:#323232"/><stop offset="1" style="stop-color:#424242"/></linearGradient><path d="M115.2 59.4c1-2.9 5.6-4.3 7.9-4.9q1.1-.4 1.2-1.5v-3.2q0-1.3-1.5-1.6c-2.3 0-6.4-.6-7.5-3.3-1.6-3.7-1.5 18.4-.1 14.5" style="fill:url(#e)"/><path d="M72.4 42.8s-.4 1.3-2.2 1.3-2.6-1.5-6.2-1.5-4.4 1.5-6.2 1.5-2.2-1.3-2.2-1.3c-.6-.3-.2 6-.2 6 .2.7 1.2 7 1.8 7 0 0 2.5-4.3 6.8-4.3s6.8 4.3 6.8 4.3c.6 0 1.7-6.3 1.8-7 0 0 .3-6.3-.2-6" style="fill:#212121"/><linearGradient id="f" x1="-17.1" x2="-7" y1="52.2" y2="52.2" gradientTransform="matrix(-1 0 0 1 -2.8 0)" gradientUnits="userSpaceOnUse"><stop offset=".4" style="stop-color:#212121"/><stop offset=".7" style="stop-color:#323232"/><stop offset="1" style="stop-color:#424242"/></linearGradient><path d="M12.8 59.4c-1-2.9-5.6-4.3-7.9-4.9q-1.1-.4-1.2-1.5v-3.2q.1-1.3 1.5-1.6c2.3 0 6.4-.6 7.5-3.3 1.6-3.7 1.5 18.4.1 14.5" style="fill:url(#f)"/><linearGradient id="g" x1="64" x2="64" y1="20.8" y2="56.9" gradientUnits="userSpaceOnUse"><stop offset=".5" style="stop-color:#fde030"/><stop offset="1" style="stop-color:#f7c02b"/></linearGradient><path d="M72.6 61.6C70.2 53.8 69 49.2 64 49.2s-6.3 4.6-8.6 12.4c-2.8 9.3-12.1 16-7.5 22.3 1.7 2.3 4 2.2 5.5 2.6 1.4.3 4.1 6.8 10.6 6.8s9.2-6.4 10.6-6.8 3.8-.3 5.4-2.6c4.7-6.3-4.6-13-7.4-22.3" style="fill:url(#g)"/><radialGradient id="h" cx="58.3" cy="82.9" r="11.5" gradientTransform="rotate(15.8 114.83 90.68)scale(1 1.19)" gradientUnits="userSpaceOnUse"><stop offset="0" style="stop-color:#b36e00"/><stop offset=".7" style="stop-color:#c77b00;stop-opacity:.2874"/><stop offset="1" style="stop-color:#d18100;stop-opacity:0"/></radialGradient><path d="M57.3 68.5c1.7-3.7 2.2-10.3 2.2-10.3s-1.7 1.8-5 6.6l-2.7 4.4c-3.1 5.2-7.1 10.3-3.8 14.7 1.6 2.2 4 2.2 5.4 2.6q.6.2 1.7 1.6s-2.2-3.9-1.7-7.9 2.1-8 3.9-11.7" style="fill:url(#h)"/><radialGradient id="i" cx="69.8" cy="82.9" r="11.5" gradientTransform="rotate(164.2 57.18 -7.85)scale(1 -1.19)" gradientUnits="userSpaceOnUse"><stop offset="0" style="stop-color:#b36e00"/><stop offset=".7" style="stop-color:#c77b00;stop-opacity:.2874"/><stop offset="1" style="stop-color:#d18100;stop-opacity:0"/></radialGradient><path d="M70.8 68.5c-1.8-3.7-2.2-10.3-2.2-10.3a74 74 0 0 0 7.7 11c3 5.2 7 10.3 3.8 14.7-1.7 2.2-4 2.2-5.4 2.6q-.7.2-1.8 1.6s2.2-3.9 1.7-7.9-2-8-3.8-11.7" style="fill:url(#i)"/></svg>