<svg xml:space="preserve" width="16" height="16" viewBox="0 0 128 128"><path d="M116.5 4h-104a8 8 0 0 0-8 8v104a8 8 0 0 0 8 8h104a8 8 0 0 0 8-8V12a8 8 0 0 0-8-8" style="fill:#427687"/><path d="M122.2 6.3a8 8 0 0 0-5.7-2.3h-104a8 8 0 0 0-8 8v104q0 3.1 2.3 5.7l16.8-16.8h76a6 6 0 0 0 5.9-6V23z" style="fill:#8cafbf"/><path d="M40.2 12.9c0-2.3-1.6-3-10.8-2.7-7.7.3-11.5 1.2-13.8 4s-3 8.5-3 15.3c0 4.8 0 9.3 2.5 9.3 3.4 0 3.4-8 6.2-12.3 5.4-8.7 18.9-10.6 18.9-13.6" style="opacity:.5;fill:#b4e1ed"/><path d="M77 36.8q-.1 1.1-1.4 1.4-9.5 0-15.2 5.2-4.6 4.2-6 10.4a1.4 1.4 0 0 0 2 1.5q5-3.5 11.2-3.3 9 0 14.2 6.3C87 64.6 87 68 87 74.7q0 10.4-6.1 16.8c-6.1 6.4-9.4 6.4-16 6.4-6.4.2-12.5-2.6-16.5-7.5Q42 82.9 42 70.7v-4q0-17.7 8.7-28c5.5-6.3 12.6-9.7 24-10 1 0 2 .7 2 1.8zM61.3 61.6H61L58.5 63c-3.3 2-5.2 5.6-5.1 9.4q0 7.5 3.2 12a10 10 0 0 0 8.2 4.5c3 0 6-1.4 8-3.8q3-3.7 2.9-10 0-5.4-3-10-3.9-5-11.4-3.4" style="fill:#fafafa"/></svg>