<svg xml:space="preserve" width="16" height="16" viewBox="0 0 128 128"><path d="M106.6 52.3c0-5.4 0-9.8-2.5-14.7a81 81 0 0 0-8.5-12.3H33c-1.1 1-7 9.3-8.5 12.3A31 31 0 0 0 22 52.3v57q0 4 5 6.9c9.9 6.4 28.6 7.8 37.3 7.8s27.5-1.4 37.4-7.8q4.8-2.8 5-6.9z" style="opacity:.8;fill:#9fe1ea"/><ellipse cx="64" cy="110.5" rx="35.9" ry="8.5" style="opacity:.6;fill:#1492c4"/><path d="m33 25-3 4.1s18 13.3 52.8 8c19.6-3 14.7-9 14.7-9l-2.8-4.3z" style="opacity:.6;fill:#1492c4"/><g style="opacity:.8"><path d="M41 91.6c.6 8.2-8.8 11.5-11.3 3.3-1-2.7-.5-5.7-.2-8.5q1-10.1-.5-20.1c-.9-5.9-2-19.5 4-22.4 2.5-1.3 4.5-.7 6.5.3 2.8 1.6 3.2 5.6 3 8.8 0 5.7-.7 11.3-1.1 17-.5 6.2-2 10.8-1.2 15.8q.6 3 .8 5.8" style="fill:#fff"/></g><path d="M99.8 12.1H28.2s-.8 2.2-.8 5.9c0 6.7 2 7.3 4.4 8.4 5.9 2.8 17 4.7 32.1 4.7s26.3-2 32.2-4.7c2.4-1.1 4.3-1.7 4.4-8.4 0-3.7-.7-5.9-.7-5.9" style="fill:#e2a610"/><ellipse cx="64" cy="12.5" rx="35.9" ry="8.5" style="fill:#9e740b"/><path d="M41 21c5.3.6 6.2.6 6.7 2.2q.3 1.3-.6 2.2c-2.8 2.4-9.4 1.2-12.2-.8-1-.8-2.2-2.8-.7-4.1 1.4-1.3 4.5.2 6.7.4" style="fill:#ffe36c"/></svg>