<svg xml:space="preserve" width="16" height="16" viewBox="0 0 128 128"><path d="M105.2 4.6C94.8 7.3 93.7 19 93.7 19s-6.5-9.7-17-7c-8 2-15.4 10.5-8.5 23.9s36 25 36 25 20-24 19.8-39.1c-.3-15-10.2-19.2-18.8-17" style="fill:#ef5592"/><path d="M75.3 13.3c8.2-2 14.5 5.7 16.7 9 .3.4 1 .3 1.1-.3l.6-3.7a15 15 0 0 0-17-6.5c-3.4.9-6.6 2.8-8.7 5.8a15 15 0 0 1 7.3-4.3m29.9-8.7A13 13 0 0 0 99 8a13 13 0 0 1 4.3-1.7c7.7-2 15.9 2 15.4 16.3-.4 13-16.4 37.3-16.4 37.3l2 .8s20-24 19.7-39-10.2-19.2-18.8-17" style="fill:#da2e75"/><path d="M72 19.4c1.8-2.4 5-4.4 8-2.4 1.5 1.1 1 3.6-.3 4.7-2 1.6-3.6 2.5-4.7 5q-1 2.2-1.2 4.5c0 .6-.9.8-1.2.3-2.2-3.6-3-8.6-.5-12.1m28.3-2q-1.6-.1-1.3-1.5.6-2.3 1.8-4.5c1.1-2 3.5-3.3 5.3-2.4 1.7 1 1.8 3.4.7 4.6a11 11 0 0 1-6.5 3.8" style="fill:#f386ab"/><path d="M85.2 59.2c-15.4-9-30.2 3.3-30.2 3.3s3.6-18.9-11.8-28C31.6 27.7 13 29.2 5.6 53-1.8 76.7 19 124 19 124s51.3-4.9 68.4-23c17.2-18 10.3-34.4-2.2-41.7" style="fill:#ef5592"/><path d="M40 34.7c12 7 10.3 23.5 9.2 29.9a1 1 0 0 0 1.6 1l4.2-3a25 25 0 0 0-11.8-28 25 25 0 0 0-16.8-3.3 25 25 0 0 1 13.5 3.4m45.3 24.5A22 22 0 0 0 74 55.9q3.5.8 7 2.9c11.3 6.7 16.4 21.2.1 38.4-14 14.8-49 22-60.7 25.7-.8.3-1.4 1-1.4 1s51.3-5 68.4-23 10.3-34.4-2.2-41.7" style="fill:#da2e75"/><path d="M24.8 38.7c4.5-1.8 10.8-1.7 13 3.7 1.1 3-1.9 5.9-4.6 6.2-4 .5-7.3.3-11 2.7a23 23 0 0 0-5.7 5.2 1 1 0 0 1-1.9-.6c.2-7 3.6-14.7 10.2-17.2m38 31.5a2 2 0 0 1-.3-3.3q3.2-2.4 6.8-4c3.5-1.6 8-1 9.4 2s-.9 6.1-3.5 6.8a18 18 0 0 1-12.4-1.5" style="fill:#f386ab"/></svg>