<svg xml:space="preserve" width="16" height="16" viewBox="0 0 128 128"><path d="M31.7 41.8 6.4 9.5" style="fill:none;stroke:#26a69a;stroke-width:5;stroke-miterlimit:10"/><path d="m16 17.6-4 3.1-3.1-4V16h5.7z" style="fill:#00796b"/><path d="M4 9.5h5v32.8H4z" style="fill:#26a69a"/><path d="M38.6 41.8 63.9 9.5m25.4 32.3L63.9 9.5" style="fill:none;stroke:#26a69a;stroke-width:5;stroke-miterlimit:10"/><path d="m73.5 17.7-4 3-3-4h-5l-3 3.8L54 18l3.8-4.8h12z" style="fill:#00796b"/><path d="M63.9 9.5v32.9m32.2-.6 25.4-32.3" style="fill:none;stroke:#26a69a;stroke-width:5;stroke-miterlimit:10"/><path d="m119 16.7-3 3.7-4.2-2.6 1.5-2 6 .1z" style="fill:#00796b"/><path d="M119 9.5h5v32.8h-5z" style="fill:#26a69a"/><path d="M4 39.2h120v9.2H4z" style="fill:#80cbc4"/><path d="M4 3.9h120V16H4z" style="fill:#26a69a"/><path d="M4 6.5h120v2H4z" style="fill:#00796b"/><path d="M4 41.1h120v12.1H4z" style="fill:#26a69a"/><path d="M4 43.8h120v2H4zm30.6 0V40h-5.2v13.2h6.4v-9.4zm71.4 1V40h-5.2v13.2h6.4v-8.4z" style="fill:#00796b"/><circle cx="18.6" cy="33.1" r="8.6" style="fill:#455a64"/><circle cx="38" cy="33.1" r="8.6" style="fill:#455a64"/><circle cx="18.6" cy="33.1" r="6.1" style="fill:#607d8b"/><circle cx="38" cy="33.1" r="6.1" style="fill:#607d8b"/><path d="M32 28.3h-7c-3.8 0-8 1.8-8 4.8q.1 1.6 1.6 1.8 1.4-.1 1.6-1.8v-.3c3-.4 3.6 1.8 3.6 3.7v26.3h9.1V36.5c0-1.9.8-4.5 3.9-3.7v.3q.1 1.6 1.6 1.8C39.9 35 40 34 40 33c0-3-4.3-4.9-8-4.9" style="fill:#82aec0"/><path d="M20.2 32.8s2-1.1 3.7-.5c1.6.6 1.8 1.8 1.8 4v22.4h-2V35.8c0-3-3.5-3-3.5-3" style="fill:#c9e3e6"/><path d="M36.8 32.8s-2-1.1-3.7-.5-1.9 1.8-1.9 4v22.4h2V35.8c0-3 3.6-3 3.6-3" style="fill:#455a64"/><path d="m115 65-102 .4 1.4-2.1a10 10 0 0 1 8.1-4.6h83q4.9.1 8 4z" style="fill:#82aec0"/><circle cx="89.5" cy="33.1" r="8.6" style="fill:#455a64"/><circle cx="108.9" cy="33.1" r="8.6" style="fill:#455a64"/><circle cx="89.5" cy="33.1" r="6.1" style="fill:#607d8b"/><circle cx="108.9" cy="33.1" r="6.1" style="fill:#607d8b"/><path d="M103 28.3h-7.2c-3.6 0-8 1.8-8 4.8q.2 1.6 1.7 1.8C91 35 91 34 91 33v-.3c3-.4 3.6 1.8 3.6 3.7v26.3h9.1V36.5c0-1.9.8-4.5 3.9-3.7v.3q.1 1.6 1.6 1.8c1.5.2 1.6-.8 1.6-1.8 0-3-4.3-4.9-8-4.9" style="fill:#82aec0"/><path d="M91 32.8s2.1-1.1 3.7-.5q2.2.8 2 4v22.4h-2V35.8c0-3-3.6-3-3.6-3" style="fill:#c9e3e6"/><path d="M107.7 32.8s-2-1.1-3.7-.5c-1.6.6-1.9 1.8-1.9 4v22.4h2V35.8c0-3 3.6-3 3.6-3" style="fill:#455a64"/><path d="M124 118.8H4V72a5 5 0 0 1 5-5h110a5 5 0 0 1 5 5z" style="fill:#ffca28"/><path d="M118.4 67.3H11c-1 0-2-.8-2-1.9s1-1.9 2-1.9h107.4q1.7.2 1.9 2-.2 1.6-2 1.8" style="fill:#78909c"/><path d="M4 109.4h119.8v3.3H4z" style="fill:#fff59d"/><path d="M113.2 122.2H11.8c-6.8 0-7.8-3.4-7.8-3.4h120s-.1 3.4-10.8 3.4" style="fill:#9e740b"/><path d="M120 66H7.5c-2 0-3.6 1.6-3.6 3.5v17.2h120V70a4 4 0 0 0-4-4" style="fill:#e2a610"/><path d="M94.6 119.9H80c-2 0-3.8-1.7-3.8-3.8V76.9c0-2.4 2-4.3 4.3-4.3h14.2c2 0 3.5 1.6 3.5 3.5v40.3c0 2-1.6 3.4-3.5 3.4z" style="fill:#ffca28;stroke:#9e740b;stroke-width:2;stroke-miterlimit:10"/><path d="M92.5 75.9H81.7a2.7 2.7 0 0 0-2.7 2.7v21.9c0 1.5 1.2 2.7 2.7 2.7h10.8c1.5 0 2.7-1.2 2.7-2.7v-22c0-1.4-1.2-2.6-2.7-2.6" style="fill:#37474f"/><path d="M91.7 78.4h-8.9a2 2 0 0 0-2 2v18.1c0 1.1 1 2 2 2h8.9a2 2 0 0 0 2-2v-18a2 2 0 0 0-2-2" style="fill:#bae2fd"/><path d="M117.7 75.9h-12.9a3 3 0 0 0-2.6 2.7v14.9c0 1.5 1.2 2.7 2.6 2.7h13c1.4 0 2.6-1.2 2.6-2.7v-15c0-1.4-1.2-2.6-2.7-2.6" style="fill:#37474f"/><path d="M116.9 78.4H106a2 2 0 0 0-2 2v11.1q.2 1.8 2 2h10.9a2 2 0 0 0 2-2v-11a2 2 0 0 0-2-2" style="fill:#bae2fd"/><path d="M70 75.9H57.2a2.7 2.7 0 0 0-2.7 2.7v14.9c0 1.5 1.2 2.7 2.7 2.7H70c1.4 0 2.6-1.2 2.6-2.7v-15c0-1.4-1.2-2.6-2.7-2.6" style="fill:#37474f"/><path d="M69.2 78.4H58.3a2 2 0 0 0-2 2v11.1c0 1.1 1 2 2 2h10.9a2 2 0 0 0 2-2v-11a2 2 0 0 0-2-2" style="fill:#bae2fd"/><path d="M46.2 75.9H33.3a3 3 0 0 0-2.6 2.7v14.9c0 1.5 1.2 2.7 2.6 2.7h13c1.4 0 2.6-1.2 2.6-2.7v-15c0-1.4-1.2-2.6-2.7-2.6" style="fill:#37474f"/><path d="M45.3 78.4H34.5a2 2 0 0 0-2 2v11.1q.2 1.8 2 2h10.8a2 2 0 0 0 2-2v-11a2 2 0 0 0-2-2" style="fill:#bae2fd"/><path d="M22.4 75.9h-13a3 3 0 0 0-2.6 2.7v14.9c0 1.5 1.2 2.7 2.7 2.7h12.9c1.4 0 2.6-1.2 2.6-2.7v-15c0-1.4-1.2-2.6-2.6-2.6" style="fill:#37474f"/><path d="M21.5 78.4H10.7a2 2 0 0 0-2 2v11.1q.2 1.8 2 2h10.8a2 2 0 0 0 2-2v-11a2 2 0 0 0-2-2" style="fill:#bae2fd"/></svg>