<svg xml:space="preserve" width="16" height="16" viewBox="0 0 128 128"><path d="M12.5 53a8.3 8.3 0 0 0-8.2 8.3v38.4c0 4.6 3.7 8.3 8.2 8.3h5.6V53zm103.2 0c4.6 0 8.3 3.8 8.3 8.3v38.4c0 4.6-3.7 8.3-8.3 8.3h-5.5V53z" style="fill:#c62828"/><path d="m113.2 54.4-.2-10c0-4.3-3.5-7.8-7.8-7.7H67V23.2a9.7 9.7 0 1 0-6 0v13.5H22.7a8 8 0 0 0-7.8 7.8v71.7c0 4.3 3.5 7.8 7.8 7.8h82.4c4.3 0 7.8-3.5 7.8-7.8V109h.2z" style="fill:#90a4ae"/><path d="M64 18a4 4 0 1 1 0-8 4 4 0 0 1 0 8" style="fill:#c62828"/><linearGradient id="a" x1="64" x2="64" y1="22.4" y2="35.5" gradientTransform="matrix(1 0 0 -1 0 130)" gradientUnits="userSpaceOnUse"><stop offset=".1" style="stop-color:#e0e0e0"/><stop offset=".5" style="stop-color:#fff"/><stop offset="1" style="stop-color:#eaeaea"/></linearGradient><path d="M44.2 94.5h39.7c3.4 0 6.2 2.8 6.2 6.2v.6c0 3.4-2.8 6.3-6.2 6.3H44a6.3 6.3 0 0 1-6.2-6.3v-.6c0-3.4 2.8-6.2 6.3-6.2" style="fill:url(#a)"/><linearGradient id="b" x1="54.9" x2="54.9" y1="22.4" y2="35.5" gradientTransform="matrix(1 0 0 -1 0 130)" gradientUnits="userSpaceOnUse"><stop offset="0" style="stop-color:#333"/><stop offset=".6" style="stop-color:#666"/><stop offset="1" style="stop-color:#333"/></linearGradient><path d="M53.7 94.5h2.4v13.1h-2.4z" style="fill:url(#b)"/><linearGradient id="c" x1="64.1" x2="64.1" y1="22.4" y2="35.5" gradientTransform="matrix(1 0 0 -1 0 130)" gradientUnits="userSpaceOnUse"><stop offset="0" style="stop-color:#333"/><stop offset=".6" style="stop-color:#666"/><stop offset="1" style="stop-color:#333"/></linearGradient><path d="M62.9 94.5h2.4v13.1h-2.4z" style="fill:url(#c)"/><linearGradient id="d" x1="73.2" x2="73.2" y1="22.4" y2="35.5" gradientTransform="matrix(1 0 0 -1 0 130)" gradientUnits="userSpaceOnUse"><stop offset="0" style="stop-color:#333"/><stop offset=".6" style="stop-color:#666"/><stop offset="1" style="stop-color:#333"/></linearGradient><path d="M72 94.5h2.4v13.1H72z" style="fill:url(#d)"/><linearGradient id="e" x1="82.8" x2="82.8" y1="22.4" y2="35.5" gradientTransform="matrix(1 0 0 -1 0 130)" gradientUnits="userSpaceOnUse"><stop offset="0" style="stop-color:#333"/><stop offset=".6" style="stop-color:#666"/><stop offset="1" style="stop-color:#333"/></linearGradient><path d="M81.6 94.5H84v13.1h-2.4z" style="fill:url(#e)"/><linearGradient id="f" x1="45.2" x2="45.2" y1="22.5" y2="35.5" gradientTransform="matrix(1 0 0 -1 0 130)" gradientUnits="userSpaceOnUse"><stop offset="0" style="stop-color:#333"/><stop offset=".6" style="stop-color:#666"/><stop offset="1" style="stop-color:#333"/></linearGradient><path d="M44 94.5h2.4v13.1H44z" style="fill:url(#f)"/><path d="M64 85.3h-5.3a1 1 0 0 1-1-1.4l2.8-5.4 2.6-4.8a1 1 0 0 1 1.8 0l2.6 5 2.7 5.2q.3.8-.4 1.3l-.5.1z" style="fill:#c62828"/><radialGradient id="g" cx="42.6" cy="63.2" r="11.5" gradientTransform="matrix(1 0 0 -1 0 130)" gradientUnits="userSpaceOnUse"><stop offset=".5" style="stop-color:#fff"/><stop offset=".8" style="stop-color:#fdfdfd"/><stop offset=".9" style="stop-color:#f6f6f6"/><stop offset="1" style="stop-color:#ebebeb"/><stop offset="1" style="stop-color:#e0e0e0"/></radialGradient><circle cx="42.6" cy="66.8" r="11.5" style="fill:url(#g)"/><linearGradient id="h" x1="30.1" x2="55.1" y1="63.2" y2="63.2" gradientTransform="matrix(1 0 0 -1 0 130)" gradientUnits="userSpaceOnUse"><stop offset="0" style="stop-color:#333"/><stop offset=".6" style="stop-color:#666"/><stop offset="1" style="stop-color:#333"/></linearGradient><circle cx="42.6" cy="66.8" r="11.5" style="fill:none;stroke:url(#h);stroke-width:2;stroke-miterlimit:10"/><radialGradient id="i" cx="85" cy="63.2" r="11.5" gradientTransform="matrix(1 0 0 -1 0 130)" gradientUnits="userSpaceOnUse"><stop offset=".5" style="stop-color:#fff"/><stop offset=".8" style="stop-color:#fdfdfd"/><stop offset=".9" style="stop-color:#f6f6f6"/><stop offset="1" style="stop-color:#ebebeb"/><stop offset="1" style="stop-color:#e0e0e0"/></radialGradient><path d="M85 55.3a11.5 11.5 0 1 0 11.5 11.5c0-6.4-5.2-11.5-11.5-11.5" style="fill:url(#i)"/><linearGradient id="j" x1="72.5" x2="97.5" y1="63.2" y2="63.2" gradientTransform="matrix(1 0 0 -1 0 130)" gradientUnits="userSpaceOnUse"><stop offset="0" style="stop-color:#333"/><stop offset=".6" style="stop-color:#666"/><stop offset="1" style="stop-color:#333"/></linearGradient><path d="M85 55.3a11.5 11.5 0 1 0 11.5 11.5c0-6.4-5.2-11.5-11.5-11.5z" style="fill:none;stroke:url(#j);stroke-width:2;stroke-miterlimit:10"/></svg>