<svg xml:space="preserve" width="16" height="16" viewBox="0 0 128 128"><path d="M64 19c-26.1 0-44.3 6.2-53 10a10 10 0 0 0-6.2 9.4v77.2c0 4 3.3 7.2 7.2 7.2h104c4 0 7.2-3.2 7.2-7.2V38.4c0-4-2.4-7.7-6.1-9.3-8.8-3.9-27-10-53.1-10" style="fill:#bae2fd"/><path d="M38.8 63.9s-1 2.3 4.6 1.4c4.2-.7 20-10.4 22.3-10.4 2.2 0 19.6 16.4 24.8 9.6 2.5-3.2-23.8-23.2-23.8-23.2l-4.4-.1z" style="fill:#77abc0"/><path d="M56.4 72.7s-7.5 9.7-8.6 21.7c-.6 6.6-1.5 27.2-1.5 27.2s-.5 2.4 4.7 2.4h26.2c5.2 0 4.8-2.4 4.8-2.4s-.5-18-1.3-26c-1-10.6-9.2-20.9-9.2-22.5 0-1.2 7-9.6 9.9-14.4l-17.2-17-13.8 13.8c1 4.6 6 17.2 6 17.2" style="fill:#de7340"/><path d="M80.2 92.5c-7.5-5.6-22-13.5-26.3-15.8q-1 1.6-2 3.8a150 150 0 0 1 29 17.8zm1.5 19.7a243 243 0 0 0-33.4-21l-.3 2-.3 2.6a232 232 0 0 1 34.2 22zm-35 1.4C52.3 117 58.5 121 63 124h7.8a581 581 0 0 0-23.9-15.3zm24.7-59.1s-1-1.1-2-1.7l-2-1c-4.7 3-10.4 7.6-14.3 12l1.7 4.8a63 63 0 0 1 16.6-14.1" style="fill:#f3ab47"/><path d="M52 60.9s6.2-10 13-9.5c8.4.5 12.4 13.1 12.4 13.1l3.5-5-15.8-16.9h-1.7l-13 13.5z" style="fill:#874d36"/><path d="M102.7 20.7s-5.2-6.7-10-8.2c-4-1.2-3 2.3-7.8 10.1-4 6.6-17 16.2-20.7 19.2-3.8-3-16.7-12.6-20.8-19.2-4.8-7.8-3.8-11.3-7.7-10.1-4.9 1.5-10.1 8.1-10.1 8.1a14 14 0 0 0-2.2 13.2l13 28.8c.9 2.9 4.9 3.6 7 1.4l20.8-21.3L84.9 64c2.2 2.3 6.1 1.5 7-1.4l13-28.8a14 14 0 0 0-2.2-13.1" style="fill:#e8f6ff"/><path d="M84 22.4a102 102 0 0 1-19.7 18.1h-.6A102 102 0 0 1 44 22.4C42.6 20 45.2 19 46.4 19c0 0 7-1.2 17.6-1.3 10.7.1 17.7 1.3 17.7 1.3 1.2.1 3.7 1 2.3 3.4" style="fill:#77abc0"/><path d="M97 12.8C93.6 9.8 90.8 7 86.6 6a65 65 0 0 0-12-1.7 167 167 0 0 0-21.4 0q-6 .3-12 1.7c-4.2 1-7 3.8-10.2 6.8a30 30 0 0 0-7.6 11.7c2.6-3.7 5.8-7.7 9.6-10 .8-.5 4-3.1 5.7.4 1.3 2.9 2 4.9 4 7.7a100 100 0 0 0 20.7 19.6q.5.3 1 0c2.7-1.9 15-11 20.7-19.6 1.8-2.7 2.7-4.8 4-7.7 1.7-3.5 4.9-.9 5.7-.4 3.8 2.3 7 6.3 9.6 10A30 30 0 0 0 97 12.8m-14.3 10a95 95 0 0 1-18.4 17h-.6a95 95 0 0 1-18.4-17c-1.3-2.2 1.1-3 2.3-3.2 0 0 6.5-1 16.4-1.2 10 .1 16.5 1.2 16.5 1.2 1.1.2 3.5 1 2.2 3.2" style="fill:#bae2fd"/><path d="m71.6 72.6-.1.9a15 15 0 0 1-15.6 0l.5-1c1.7-1.5 4.4-1.9 6.7-1.9 6.1 0 8.4 2 8.4 2" style="fill:#874d36"/></svg>