<svg xml:space="preserve" width="16" height="16" viewBox="0 0 128 128"><path d="M116 4H12a8 8 0 0 0-8 8v104a8 8 0 0 0 8 8h104a8 8 0 0 0 8-8V12a8 8 0 0 0-8-8" style="fill:#c33"/><path d="M109.7 4H11.5A7.6 7.6 0 0 0 4 11.5v97.9c0 4.1 3.3 7.5 7.5 7.5h98.1c4.1 0 7.5-3.3 7.5-7.5V11.5c0-4-3.1-7.4-7.2-7.5z" style="fill:#f44336"/><path d="M39.7 12.9c0-2.3-1.6-3-10.8-2.7-7.7.3-11.5 1.2-13.8 4s-2.9 8.5-3 15.3c0 4.8 0 9.3 2.5 9.3 3.4 0 3.4-7.9 6.2-12.3 5.4-8.7 18.9-10.6 18.9-13.6" style="fill:#ff8a80"/><path d="m71.6 21.2-1.1 1.5q-.7 1.2.2 2.3a113 113 0 0 0 35.5 22.5 1.8 1.8 0 0 1 .6 2.8 23 23 0 0 0-3.6 4.9q-1 1.3-2.3.7-5.4-2.7-10.7-5.6a1.7 1.7 0 0 0-2.6 1.5v1.6q-.2 1.7-1.8 1.8H41.4q-1.6-.1-1.8-1.8a1.7 1.7 0 0 0-2.6-1.5q-4.8 3-9.9 5.2-1.2.4-2.1-.6l-3.9-5a1.8 1.8 0 0 1 .6-2.8A101 101 0 0 0 64 16.8q.9-1.1 2.2-.6l4.8 2.4a2 2 0 0 1 .6 2.6M36 65.1h56.7q1.7.2 1.8 1.8v35q-.1 1.7-1.8 1.8h-5.9q-1.7-.1-1.8-1.8v-.9q-.1-1.6-1.8-1.8H45q-1.6.2-1.8 1.8v1.3q-.1 1.6-1.8 1.8H36q-1.6-.2-1.8-1.8V66.8q.1-1.6 1.8-1.7m7.3 9.7v14.3q.1 1.7 1.8 1.8h38.2q1.6-.1 1.8-1.8V74.8q-.2-1.7-1.8-1.8H45q-1.6.1-1.7 1.8M80 43.6q-7.7-5.5-14.6-12.1c-.7-.7-1.8-.6-2.5 0v.1q-6.3 6.6-13.5 12.1c-.8.6-.9 1.7-.3 2.4q.5.7 1.4.7H79q1.6-.1 1.8-1.8 0-.8-.8-1.4" style="fill:#fafafa"/></svg>