<svg xml:space="preserve" width="16" height="16" viewBox="0 0 128 128"><path d="M104.4 64.3s8.1 0 8.3 1.5c.1 1-1.8 22-1.8 22s6.2 3.1 7.4 4q2.4 1.5 1.7 3.3-.8 1.7-3.2.7c-1.6-.7-11.4-3.8-11.8-4.8s.1-17.6.1-17.6zM92.7 41.8s3.1-3.4 4.2-3.1c1.6.4 6 6.9 7.1 8.9l3.8 6.6 9.2-1.7c1.8-.3 3.8.4 4 2.2 0 1.9-2.7 2.7-5.1 3.1-2.4.5-9.6 2.2-10.3 1.6s-13-17.6-13-17.6M33 85.4l2 6.2-2.4 3s9.2 12 9 13.4A86 86 0 0 1 31 120c-.8.7-3 1.7-3.8.4-1-1.6.3-3.5 1.5-4.8l6.7-7.6s-9-10.7-9.6-13.8c-.2-1.8 7.2-8.8 7.2-8.8m-2-26.9s-6.4-2.3-8.1-1.3c-2 1.3-1.1 25.4-1.1 25.4l-9 5.6c-1 .6-1.7 1.8-1 3s2.3.8 4.5 0 8.6-3.6 9.7-4.5c1.7-1.7 1-21 1-21l3.2-.7zM57.1 49l25.2-16.4s5.4-12.7 5.4-13.8S80 9.4 80 9.4 83 6 81.4 5s-6.6 4.1-6.5 5.6C75 11.5 82 20 82 20l-5.5 11s-6.6-.4-7.6-1.1-.6-3.6-2.8-5c-1.7-1-3.7-1.2-3.7-1.2s-.4-2.7 1-4.8 7.2-8.3 5.9-11c-1.6-3.1-4.1-2-4.6-.5s1.1 3 1.1 3-4.8 5.5-5.9 8-.7 6-.7 6-6.7-1.5-10.5-.4-7.5 6.6-7.5 6.6-3.1-3.4-5-4.4-3.4-.4-6.4-1.8-3.7-2.6-3.7-2.6.3-1.3-.2-2.3-2.4-1.5-3.7-.7c-1 .6-1 2.4-.6 3.4.6 1.2 2.2 1.3 2.2 1.3s2 2.6 5 3.6c3.1 1 3.8.8 6 1.7s3 3 3 3-1.4 1.9-1.5 3.9c-.1 1.8.4 7.6.4 7.6L31.5 49s-8.4-4.6-8.7-5.4c-.4-.8 1.2-12.2-.2-13.5-1.6-1.6-8.1-5.8-8.7-3.1s4.8 5 4.8 5-1.5 12.2-.7 14c.7 1.8 13 9.7 13 9.7z" style="fill:#696e72"/><path d="M57.5 42.7 30 53s-5.2 12.8.9 32.4a42.3 42.3 0 0 0 52 27.7c27-7.9 27-49.7 18.6-63.4-8-13-19.1-17-19.1-17z" style="fill:#fe1d1e"/><ellipse cx="59.9" cy="26.1" rx="2.7" ry="3.4" style="fill:#2f2f2f" transform="rotate(-84.9 59.88 26.05)"/><ellipse cx="41.2" cy="32.3" rx="3.4" ry="2.7" style="fill:#2f2f2f" transform="rotate(-36.4 41.2 32.34)"/><path d="M60 53.3S70.7 80 71.7 83l9.5 28c.5 1.3.7 2.3 2 1.8 1.6-.5 1-1.9.5-3L75.6 82c-2.2-6.7-11.2-31.4-11.2-31.4z" style="fill:#d62f34"/><path d="M53.3 31.3a27 27 0 0 0-14.2 11.1c-1.2 2.2-4.5 1.6-4.5 1.6s-2.1 1.7-3.5 4.2c-1 2-1.3 4.8-1.3 4.8s11-1.2 16.9-.6 16.5 2.4 16.5 2.4 6-8.5 10.2-13c2.8-2.7 10-8.8 10-8.8s-2.9-2.1-5-2.6c-1.7-.3-5.3-.8-7 .2-.2 0-9.5-2.2-18.1.7" style="fill:#2f2f2f"/><path d="M40.1 45.8c2.2-2.3-.7-6.7-2.9-6.6-2.2 0-2.2 1.6-2.7 2.9s-1.5 1.8-1.3 3.3 3.5 4 7 .4M67.1 34c4 2.3 6.7-1.4 6.9-3.3s-3-2.1-4-2.7-2.4-2.6-3.8-.5c-1.4 2.2-1.4 5 .8 6.4" style="fill:#ffebc1"/><ellipse cx="55.1" cy="73.2" rx="9.6" ry="9.3" style="fill:#2f2f2f"/><ellipse cx="81.5" cy="65.3" rx="8.7" ry="8.8" style="fill:#2f2f2f"/><ellipse cx="91.4" cy="51" rx="6.3" ry="7" style="fill:#2f2f2f" transform="rotate(-34.3 91.37 51.02)"/><ellipse cx="35.9" cy="67.7" rx="6.4" ry="7.2" style="fill:#2f2f2f"/><ellipse cx="59.8" cy="94.4" rx="7.9" ry="8.3" style="fill:#2f2f2f" transform="rotate(-5.8 59.86 94.4)"/><ellipse cx="89.1" cy="84.2" rx="8" ry="7.5" style="fill:#2f2f2f" transform="rotate(-87.6 89.07 84.24)"/></svg>