<svg xml:space="preserve" width="16" height="16" viewBox="0 0 128 128"><radialGradient id="a" cx="63.6" cy="1400.9" r="57" gradientTransform="translate(0 -1338)" gradientUnits="userSpaceOnUse"><stop offset=".5" style="stop-color:#fde030"/><stop offset=".9" style="stop-color:#f7c02b"/><stop offset="1" style="stop-color:#f4a223"/></radialGradient><path d="M63.6 118.8c-27.9 0-58-17.5-58-55.9S35.7 7 63.6 7c15.5 0 29.8 5.1 40.4 14.4 11.5 10.2 17.6 24.6 17.6 41.5s-6.1 31.2-17.6 41.4a61 61 0 0 1-40.4 14.5" style="fill:url(#a)"/><path d="M111.5 29.7a57 57 0 0 1 8.1 30.2c0 16.9-6.1 31.2-17.6 41.4a61 61 0 0 1-40.4 14.5 59 59 0 0 1-48.2-23 58 58 0 0 0 50.2 26c15.4 0 29.8-5.2 40.4-14.5a54 54 0 0 0 17.6-41.4q-.1-19.2-10.1-33.2" style="fill:#eb8f00"/><path d="m121.2 93.5-8.8-6.7a6 6 0 0 0-6-.6l-.4-.3-2.4-1.9a7 7 0 0 1-2.4-5v-2.6c0-1.5-1.2-2.6-2.6-2.6h-3.3a2.6 2.6 0 0 0-2.6 2.6v3.4c0 1.4-1.2 2.5-2.6 2.5h-3.3a2.6 2.6 0 0 1-2.6-2.5v-3.4q-.2-2.4-2.6-2.6h-3.3a2.6 2.6 0 0 0-2.6 2.6v3.4q-.2 2.3-2.6 2.5h-3.3a2.6 2.6 0 0 1-2.6-2.5v-3.4q-.2-2.4-2.5-2.6h-3.4a2.6 2.6 0 0 0-2.5 2.6v3.4c0 1.4-1.2 2.5-2.6 2.5h-3.3a2.6 2.6 0 0 1-2.6-2.5v-3.4c0-1.5-1.2-2.6-2.6-2.6h-3.3a2.6 2.6 0 0 0-2.6 2.6v3.4c0 1.4-1.2 2.5-2.6 2.5h-3.3a2.6 2.6 0 0 1-2.6-2.5v-3.4c0-1.5-1.2-2.6-2.6-2.6h-3.3a2.6 2.6 0 0 0-2.6 2.6v9.2c0 1.5 1.2 2.6 2.6 2.6h3.3c1.4 0 2.6 1.2 2.6 2.6v2.1c0 1.4 1.1 2.6 2.6 2.6h3.3c1.4 0 2.6-1.1 2.6-2.6v-2.1c0-1.4 1.1-2.6 2.6-2.6h3.3c1.4 0 2.6 1.2 2.6 2.6v2.1c0 1.4 1.1 2.6 2.5 2.6h3.4q2.3-.2 2.6-2.6v-2.1c0-1.4 1.1-2.6 2.5-2.6h3.4c1.4 0 2.5 1.2 2.5 2.6v2.1c0 1.4 1.2 2.6 2.6 2.6h3.3q2.4-.2 2.6-2.6v-2.1c0-1.4 1.2-2.6 2.6-2.6h3.3c1.5 0 2.6 1.2 2.6 2.6v2.1c0 1.4 1.2 2.6 2.6 2.6H90c1.4 0 2.6-1.1 2.6-2.6v-2.1c0-1.4 1.2-2.6 2.6-2.6h1.1q1.3 0 2.2.7l3.1 2.6h.2a6 6 0 0 0 2 6.6l8.7 6.6a6 6 0 0 0 8.3-1l1.4-2a6 6 0 0 0-1-8.2M109.1 95c-.8 1-2.3 1.2-3.3.4s-1.3-2.2-.5-3.3l2-2.5a2.3 2.3 0 0 1 3.2-.5q.8.7 1 1.6 0 1-.5 1.8zm9.6 4-1.2 1.6a3 3 0 0 1-3.7.5L112 100a3 3 0 0 1-.5-3.7l1.2-1.6a3 3 0 0 1 3.7-.5l1.7 1.3c1.1.9 1.4 2.5.5 3.7" style="fill:#616161"/><path d="M83.8 38c3.7 0 7 4.4 7 11.5S87.4 61 83.8 61c-3.7 0-7-4.3-7-11.5S80 38 83.8 38m-39.6 0c-3.7 0-7 4.4-7 11.5s3.4 11.5 7 11.5c3.7 0 7-4.3 7-11.5S48 38 44.2 38" style="fill:#422b0d"/><path d="M45 42.8a2.9 2.9 0 0 0-3.2 4.6 2.9 2.9 0 0 0 3.3-4.6m38.1 0a2.9 2.9 0 0 0-3.2 4.6 2.9 2.9 0 0 0 3.2-4.6" style="fill:#896024"/></svg>