<svg xml:space="preserve" width="16" height="16" viewBox="0 0 128 128"><path d="M120.4 51.2q3-6 3-13a30 30 0 0 0-41-28A25 25 0 0 0 47 12.9q-5.3-3-11.7-3a24.4 24.4 0 0 0-20.1 37.9c-5 4-8.5 9.9-9.2 16.8a24.6 24.6 0 0 0 31.3 26A21.2 21.2 0 0 0 75.4 101q5.5 4.4 13.1 4.6a21 21 0 0 0 20.9-19.2A25 25 0 0 0 124 63.8q0-7-3.6-12.6z" style="fill:#fff;stroke:#000;stroke-width:6;stroke-miterlimit:10"/><path d="M24.3 97.3c-4.5-.5-8.5 2.8-9 7.3s2.8 8.5 7.3 8.9 8.5-2.8 9-7.3a8 8 0 0 0-7.3-8.9zM9 114.3c-3-.3-5.7 1.9-6 4.9s1.9 5.6 4.9 5.9 5.7-1.9 6-4.9a5.5 5.5 0 0 0-4.9-5.9z" style="fill:#fff;stroke:#000;stroke-width:4.5;stroke-miterlimit:10"/></svg>