<svg xml:space="preserve" width="16" height="16" viewBox="0 0 128 128"><path d="M53 84.7h70v39.4H53z" style="fill:#757575"/><path d="M123 124H3V84.7h56.9z" style="fill:#bdbdbd"/><path d="M123 113.2 77.8 90.8l-.3-1.5 45.5 18.2z" style="fill:#ffca28"/><path d="M106.7 36.7h9.9m-9.9 10.1h9.9" style="fill:none;stroke:#616161;stroke-width:3;stroke-miterlimit:10"/><path d="M86.8 30.1h22.6V53H86.8z" style="fill:#37474f"/><path d="M86.8 37.8h22.7m-22.7 7.6h22.7" style="fill:none;stroke:#ffca28;stroke-miterlimit:10"/><path d="M88.2 32.8h5.7v1.8h-5.7zm.7 15.9h4.3v1.8h-4.3zm14.4-.2h4.3V50h-4.3zm-.9-15.6h4.3v1.5h-4.3zm2.8 8h2.5v1.3h-2.5zm-4.1-.1h2.5v1.5h-2.5zm-12.9-.1h7.9v1.8h-7.9z" style="fill:#fffde7"/><path d="M107.6 30.1q1.7.2 1.9 2v19c0 1-.9 2-2 2H88.9a2 2 0 0 1-2-2v-19q.2-1.8 2-2zm0-2H88.8a4 4 0 0 0-4 4v19a4 4 0 0 0 4 4h18.8a4 4 0 0 0 3.9-4v-19a4 4 0 0 0-4-4M119 97.8s-2 2.7-5 0V29.7s1.9-1 5 0z" style="fill:#9e9e9e"/><path d="M18.1 124h-5l5.8-23.4 2.7 2z" style="fill:#e0e0e0"/><path d="M21.8 124h-5.1l5.3-22.8 2.6 2z" style="fill:#616161"/><path d="M74.4 124h5l-15.6-23.4-2.7 2z" style="fill:#e0e0e0"/><path d="M70.3 124h5l-15.2-22.8-2.6 2z" style="fill:#616161"/><path d="M13 101s-6.9 5.3-5.8 8.8c1 3.5 14.2 8.2 33.3 8.2 23.8 0 38-5 39.6-8.9s-7-9.4-7-9.4z" style="opacity:.4;fill:#212121"/><path d="m20.8 100.8.6 4.4s10 .8 22.2.8 21.8-1 21.8-1v-5zm7.1-7.5h31.5l-3.4 15H30.7zm-7.9.6v-.1s-4.7 0-5 .9c-.4 1-1.2 7.9.2 14.2q.2 1.2 1.2 1.4h1.8c.6 0 1.3-.4 2.4 2 1 1.9 2.8 1.6 2.8.6v-19zm47 0v-.1s4.8 0 5.1.9c.4 1 1.2 7.9-.2 14.2q-.1 1.2-1.2 1.4H69c-.6 0-1.3-.4-2.4 2-1 1.9-2.8 1.6-2.8.6v-19z" style="fill:#455a64"/><path d="M80.2 88.2V41a5 5 0 0 0-5-5H11.5a5 5 0 0 0-5 5v47L4 94.9s7.9 6 39.3 6 39.6-6 39.6-6z" style="fill:#ffca28"/><path d="M53 17H34.4q-1.5-.1-1.6-1.6.1-1.6 1.6-1.7H53q1.6.2 1.7 1.7-.2 1.6-1.7 1.7" style="fill:#82aec0"/><path d="M37 20.7 35 6.1m15.2 14.4 1.7-14.8" style="fill:none;stroke:#82aec0;stroke-width:3;stroke-miterlimit:10"/><path d="M57.6 9.6q-.5.5-1 0a15 15 0 0 0-3.4-2c-.5-.1-2.5-.6-9-.6-5.8 0-9.8.3-10.7.6S31.2 9 30.4 9.8q-.6.6-1.1.2a1 1 0 0 1-.4-1.4c.8-1.3 2.2-3.5 3.7-4 2.2-.8 10.1-.8 11.7-.8 3.3 0 7.7.1 9.7.8 1.6.5 3 2.7 3.8 3.9q.3.7-.2 1.1" style="fill:#82aec0"/><path d="M6.5 31.2v25h73.7V31.8L45 24.6z" style="fill:#eee"/><path d="m3.9 31.2 2.6 2.6s13.3-4.4 36.7-4.4 37 4.1 37 4.1l2.6-2.6c-1.4-6.3-7.2-11.3-24.4-11.3H25.8c-13.8 0-20.5 6.5-22 11.6" style="fill:#9e9e9e"/><path d="M3.9 31.2s16-5.4 39.3-5.4 39.6 5 39.6 5c-1.4-6.2-7.3-13.1-24.4-14.3a159 159 0 0 0-32.5 0C12 17.5 5.3 25 3.9 31.2" style="fill:#bdbdbd"/><path d="M82.8 100.8s-9 3-39.6 3-39.3-3-39.3-3v-6s18.8 3 39.5 3 39.4-3 39.4-3z" style="fill:#82aec0"/><circle cx="60.6" cy="84.1" r="5" style="fill:#fffde7"/><circle cx="26" cy="84.1" r="5" style="fill:#fffde7"/><path d="M38.3 20h10c2.5 0 4.4 2 4.4 4.3v3c0 2.4-2 4.3-4.3 4.3h-10a4.3 4.3 0 0 1-4.4-4.3v-3c0-2.4 2-4.3 4.3-4.3" style="fill:#37474f"/><path d="M41 22.3h4.6c2.1 0 3.8 1.6 3.8 3.5s-1.7 3.5-3.8 3.5H41c-2 0-3.7-1.4-3.7-3.5s1.7-3.5 3.8-3.5" style="fill:#ffca28"/><path d="M17.9 39.6a132 132 0 0 1 50.9 0V70a132 132 0 0 1-51 0z" style="fill:#bae2fd"/><path d="M43.3 73.8c-6.2 0-17.9-.7-23.6-1a3.5 3.5 0 0 1-3.3-3.6v-28q.2-2.7 2.9-3.5c3.6-.7 11-1.7 23.5-1.7 13 0 20.7 1 24.6 1.8 1.6.3 2.8 1.8 2.8 3.5v27.9c0 1.9-1.4 3.4-3.2 3.5a359 359 0 0 1-23.7 1.1m-21.7-5.5a262 262 0 0 0 43.4 0 2.6 2.6 0 0 0 2.3-2.7V44q-.1-2.1-2.2-2.6a128 128 0 0 0-43.6 0 2.6 2.6 0 0 0-2.2 2.6v21.7c0 1.4 1 2.6 2.3 2.7" style="fill:#37474f"/><path d="M41.5 39.5h2.1zm3 0h-.9z" style="fill:#6fbff0"/><path d="M67.3 44q-.1-2.2-2.2-2.7-10.7-1.8-20.9-1.8h-2.9q-9.7 0-19.8 1.8a2.6 2.6 0 0 0-2.2 2.6v3.7a99 99 0 0 1 22.4-2.5v24.1h3V45.1a140 140 0 0 1 22.6 1.8zM34.9 58.9c-1.3-.4-3-.2-3-.2-.9 0-2.3.8-2.9 1.6q-.8.8-1.7 0a4 4 0 0 0-2.7-1.4s-2.5-.5-4.1.4l-1.2.5v5.9c0 1.3 1.1 2.5 2.4 2.6 6 .5 11.4.8 17.2.8 0-1.4 0-4.7-.5-6.7a4 4 0 0 0-3.5-3.5m30.4 0-.7-.2v-.2c0-1 .4-1.2.6-2l.2-1.2c0-1.7-1.2-3-2.6-3q-.9 0-1.5.5a3.4 3.4 0 0 0-1 3.7c.3.7 1 1.6 1 2.4q-1.1.4-2.4 1.5-1 .8-2 0a4 4 0 0 0-2.3-1.5s-1.2-.3-2.6-.2c-1.4.2-3.6 1.2-4.3 3.3-.4 1.4-.5 5.8-.6 7.2q8.8-.2 17.8-1a3 3 0 0 0 2.4-2.6V60a5 5 0 0 0-2-1" style="opacity:.66;fill:#82aec0"/></svg>