<svg xml:space="preserve" width="16" height="16" viewBox="0 0 128 128"><path d="M3.8 50.1C2.2 53 1.6 57.5 7 62.6c5 4.7 19 17.8 31.8 17.5 14.7-.4 19.7-14.7 26-14.4 3.9.1 7.6 5 12.7 9.7 3.4 3 7.8 6.2 14 6.2 9.2 0 17.3-6.1 24-12.5a32 32 0 0 0 8.9-13.2c1-5.6-2.6-6.2-2.6-6.2L93.4 73.5 62.9 54.6l-25.6 15-28-17.5z" style="fill:#464c4f"/><path d="M6.4 47.7c-4.2 2.5-3.5 5.5-2.7 7 2.9 5 11 11.5 17.5 15.9a30 30 0 0 0 20.4 5.8c9.9-1 14-14.6 23.3-14.7C73 61.6 80.3 78 91.7 78c10.7 0 24-14 26.3-16.8a38 38 0 0 0 6.2-9.4c-.3-.8-1.8-5.4-8.9-4.8-5 .5-10.8 8.4-13.9 10.9-2.7 2.2-6.7 5.4-10.2 5.2-7.7-.4-12-16.5-26-16.6-14.2 0-18.7 16-27.6 16.5-6 .3-17.3-12.5-21-15a9 9 0 0 0-10.2-.4" style="fill:#606265"/><path d="M16 50.7c-.2 1-3.4 1.2-4.7 2-1.5 1-2 3.4-4.4 2.6-1.9-.6-2.1-3.9 1.5-6.2 3.7-2.4 7.8-.1 7.6 1.6m35.5 6c-5 4.8-9 8.3-7 10.2 1.5 1.5 5.8-3 9.7-6.5 4.3-4 10.3-7.3 7.9-9.4-2-1.8-6.6 1.6-10.6 5.6m65-6q-2-1.4-5.6 2c-2.4 2.2-6 6-9 8.6-4.2 3.6-6.6 3.7-5.5 5.7 1 1.9 5.4.2 11.2-4.7 5.1-4.5 11.7-9.7 9-11.7" style="fill:#9a9a99"/></svg>