<svg xml:space="preserve" width="16" height="16" viewBox="0 0 128 128"><path d="M120.3 7.7a12.5 12.5 0 0 0-17.8 0 12.6 12.6 0 0 0 8.9 21.5q5.1 0 8.9-3.7a12.6 12.6 0 0 0 0-17.8m-14 4a7 7 0 0 1 10 0 7 7 0 1 1-10 0" style="fill:#e2a610"/><path d="M105.5 31 97 22.5l6-6a3.4 3.4 0 0 1 5 0l3.6 3.5a3.4 3.4 0 0 1 0 4.9z" style="fill:#ffca28"/><path d="M107.7 28.8s1.3-2.7-2.3-6.3-6.2-2.2-6.2-2.2L97 22.5l8.5 8.5z" style="fill:#e2a610"/><ellipse cx="62.4" cy="65.6" rx="58.3" ry="58.4" style="fill:#ffca28"/><circle cx="62.4" cy="65.6" r="47.3" style="fill:#fff"/><path d="m68.8 72-6.4 27.8L56 72l-27.7-6.5L56 59.2l6.4-27.7 6.4 27.7 27.7 6.4z" style="fill:#e0c3ab"/><path d="m71.4 65.6 15 24.2-24-15.1-24.1 15 15-24-15-24.2 24 15 24.2-15z" style="fill:#b2947c"/><path d="M50.5 87S63.3 77.7 68 73s15.2-19.1 15.2-19.1c2.7-3 5.8-10.8 6.7-13q0-.5-.4-.4c-2 .7-8.2 3.2-12.5 6-5.4 3.4-15.1 11.3-19.6 15.8S47 75.5 43.8 80.3c-2.8 4-6.3 11.3-7.3 13.6q-.1.4.4.4c2.3-1 10-4.4 13.6-7.4" style="opacity:.32;fill:#212121"/><path d="M82.7 52.5A57 57 0 0 0 89 39.4q.1-.5-.4-.4a58 58 0 0 0-13 6.3c-4.4 3.4-18.9 15.3-18.9 15.3l10.7 10.7z" style="fill:#f44336"/><path d="M41.4 79.5a57 57 0 0 0-6.4 13q0 .5.5.5c2.2-.8 9.4-3.5 13-6.4 4.4-3.4 18.9-15.3 18.9-15.3L56.7 60.7S44.8 75 41.4 79.5" style="fill:#2f7889"/><circle cx="62" cy="66" r="7.6" style="fill:#94d1e0"/><path d="M90.5 37.5a3.4 3.4 0 0 1 0-4.8L94 29l5 5-3.6 3.5a3.4 3.4 0 0 1-4.8 0" style="fill:#f44336"/><path d="M34.3 93.7a3.4 3.4 0 0 1 0 4.9l-3.6 3.6-4.8-4.9 3.5-3.6a3.5 3.5 0 0 1 4.9 0" style="fill:#b2947c"/><path d="M102.1 65.6c0-1.9 1.5-3.4 3.4-3.4h5V69h-5a3.4 3.4 0 0 1-3.4-3.5m-79.4.1c0 2-1.6 3.5-3.5 3.5h-5v-7h5c2 0 3.4 1.6 3.4 3.5" style="fill:#e0c3ab"/><path d="M90.5 93.7a3.4 3.4 0 0 1 4.8 0l3.6 3.6-4.9 4.9-3.6-3.6a3.4 3.4 0 0 1 0-4.9M34.3 37.5a3.4 3.4 0 0 1-4.9 0L26 34l4.8-4.9 3.6 3.6a3.4 3.4 0 0 1 0 4.8" style="fill:#b2947c"/><path d="M62.4 105.4c1.9 0 3.4 1.5 3.4 3.4v5H59v-5c0-1.9 1.6-3.4 3.5-3.4m-.1-79.5a3.4 3.4 0 0 1-3.5-3.5v-5h6.9v5c0 2-1.5 3.5-3.4 3.5" style="fill:#e0c3ab"/><circle cx="62.4" cy="65.6" r="47.3" style="fill:none;stroke:#e2a610;stroke-width:3;stroke-miterlimit:10"/><path d="M8.7 65s-2.1-10.8 3.6-24.1A51 51 0 0 1 58 9.6c14.5-.6 22.9 4.2 22.9 4.2s-11.8-1-20-.6a50 50 0 0 0-42.7 25.2C10.5 51 8.7 64.9 8.7 64.9" style="fill:#fff59d"/></svg>