<svg xml:space="preserve" width="16" height="16" viewBox="0 0 128 128"><path d="M5.7 113.4v3.5a3 3 0 0 0 3 3H27a3 3 0 0 0 3-3v-3.5zm93.2 0v3.5a3 3 0 0 0 3 3h18.4a3 3 0 0 0 3-3v-3.5z" style="fill:#563428"/><path d="M124.3 96.2c-1.3-6.2-5.5-9.3-6.6-10.4-4.8-5-10-7-10-27A44 44 0 0 0 64 15a44 44 0 0 0-43.8 44c0 19.8-5.1 22-10 27-1 1-5.2 4-6.5 10.3-1.2 6.2-.5 18.3-.5 18.3h121.6s.7-12-.5-18.3" style="fill:#8b5738"/><ellipse cx="63.9" cy="60.9" rx="37.5" ry="35.9" style="fill:#563428" transform="rotate(-3.2 63.94 60.93)"/><circle cx="64.8" cy="59.2" r="33.4" style="fill:#fcebcd"/><circle cx="64.2" cy="58.9" r="33.4" style="fill:none;stroke:#e2a610;stroke-width:3.9323;stroke-miterlimit:10"/><path d="M33.5 45.6a33 33 0 0 1 16.4-17" style="fill:none;stroke:#ffe36c;stroke-width:1.9661;stroke-linecap:round;stroke-miterlimit:10"/><path d="M24 46.5a42 42 0 0 1 24.1-26.6c.9-.3 1.8.5 1.5 1.4-1.2 3.4-3.4 4.3-4.1 4.7a40 40 0 0 0-16.2 17.8c-.2.5-1 3-3.8 4-1.2.6-1.7-.4-1.4-1.3M3 106h120.9v3.5H3z" style="fill:#ba793e"/><path d="M112.2 80.1a24 24 0 0 1-3.7-10.3c-.3-2.1-.9-4.7-.7-6.9a44 44 0 0 1-22 33.5 1 1 0 0 0-.4 1.2c.1.6.8 1 1.3.8q6.6-2.4 12.3-6c3.8-2.4 6.7-5.9 10.8-7.7a11 11 0 0 1 5.2-1.2q-1.6-1.5-2.8-3.4M18 75.7s1.8-7 2-12.7a44 44 0 0 0 22 33.4q.8.5.6 1.2a1 1 0 0 1-1.4.8C30.4 94.5 20 84.9 18 75.7" style="fill:#563428"/><g style="opacity:.5"><path d="m50.1 34.4 2.6 4.6m23 39.7 2.6 4.6M39.7 44.7l4.6 2.7m39.8 22.9 4.5 2.7M78.3 34.4 75.7 39m-23 39.7-2.6 4.6m38.5-38.6-4.5 2.7M44.3 70.3 39.7 73m52.7-14.1h-5.3m-45.9 0h-5.3m28.3-28.3v5.3m0 45.9v5.3" style="fill:none;stroke:#3e2723;stroke-width:1.9661;stroke-linecap:round;stroke-miterlimit:10"/></g><path d="M20.3 87.9q.5 1.6 0 3.2c-.6 1.6-2.1 2.6-3.5 3.7q-2.4 2-4 4.6-.7 1.2-1.8 2.3t-2.5 1c-1.2-.1-2.1-1.2-2.4-2.4q-.3-1.8.3-3.6 1.8-5.6 6-9.8c1.1-1 3-3.1 4.7-3.1s2.8 2.7 3.2 4.1" style="fill:#ba793e"/><circle cx="64.2" cy="58.9" r="3.1" style="fill:#3e2723"/><path d="m83.3 47.8-.5-.3-1.7.1c-1.3 0-2.8-.3-3.6.3-1.3.8-1.4 2-1.3 3l-12 5.7.8 1.5 1.2 2 11-7.8c.6.6 1.7 1.1 3.1.4.9-.4 1.4-1.8 2-3l1-1.4zM56 53q.5-1.5-1.3-2.9c-.8-.5-2.2-.2-3.6-.2l-1.6-.1q-.3 0-.5.2v.6l.9 1.3c.7 1.2 1.2 2.6 2 3 1.4.8 2.5.3 3.2-.3l7.2 5.4 1.1-1.9 1-1.5z" style="fill:#3e2723"/></svg>