<svg xml:space="preserve" width="16" height="16" viewBox="0 0 128 128"><path d="M87.9 6.2H16.8v115.4h94.6V28.8z" style="fill:#fff"/><path d="M33.3 41h61.2M33.3 55.7h61.2M33.3 70.3h61.2M33.3 84.9h61.2M33.3 99.6h26.2" style="fill:none;stroke:#b0bec5;stroke-width:3.8648;stroke-linecap:round;stroke-miterlimit:10"/><path d="M109.5 23.6 92.8 6.9Q89.7 4 85.5 4H17a3 3 0 0 0-2.8 2.8v114.4c0 1.5 1.3 2.8 2.8 2.8h94c1.5 0 2.8-1.3 2.8-2.8v-90c0-2.8-2.2-5.6-4.3-7.6m.3 96.4H18.2V8H83c2.1 0 3.8 1.7 3.8 3.9v17.8h17.4c3.1 0 5.7 1.8 5.7 5.7z" style="fill:#6fbff0"/></svg>