<svg xml:space="preserve" width="16" height="16" viewBox="0 0 128 128"><circle cx="64.5" cy="64" r="60" style="fill:#f2a600"/><circle cx="60.6" cy="63.1" r="56.1" style="fill:#ffcc32"/><path d="M24.5 29.7c4.5-7.1 14-13 24-14.8q3.9-.8 7.2.2c1.6.6 2.9 2 2 3.8-.7 1.4-2.6 2-4.1 2.5a45 45 0 0 0-23 17.4c-2 3-5 11.3-8.7 9.2-4-2.3-3.1-9.5 2.6-18.3" style="opacity:.65;fill:#fff170"/><path d="M52.9 46a22 22 0 0 1 21.3-1.1c1 .5 3.2 1.5 1.8 2.8a5 5 0 0 1-2.1 1.2c-.6 0-1.2-.6-1.8-.8a18 18 0 0 0-14.1-.5c-1 .3-1.8 1-2.7 1.3s-4-2-2.4-3m-15 16.3a22.5 22.5 0 0 0-20.6 16.6c-.1.4-.1 1.2-.7 1-1.4 0 1-7.3 1.3-8.2a26 26 0 0 1 14-14.4q4.5-2 9.4-2h2.4q.8.2 1.4-.6c.6-.8-.4-1.3-.8-1.8l-1.5-2A26 26 0 0 1 44 20.6c.3-.3.8-1.3 1.3-1.3s.5.3.4.6l-1.2 2-1.1 2.7a23 23 0 0 0 10.9 27.2 21 21 0 0 0 7.4 2.3q1 0 1.4.8.4 1.5-1.2 2a7.6 7.6 0 0 0-4.5 9.1c.2.8.9 1.7.9 2.4q-.5 1.4-1.8 1.9c-.8 0-1.3-1-1.8-1.4l-2.1-2A22 22 0 0 0 38 62.4M57.2 84q-1.3-.3-2.3-1-1.2-.5-2.4-1.3a22 22 0 0 1-8.6-12c-.3-1-1.2-3.2 0-3.7q1.5-.2 2.7.7c.7.5.7 1.4.9 2.2a17 17 0 0 0 9.7 11c1 .7 1.7 4 0 4m17.3 16.3a22 22 0 0 0 10.3 5.8c.3 0 .9 0 1 .5q-.2.8-.8.5a24 24 0 0 1-17.2-8.5l-1.2-1.4c-.4-.4-1-1.5-1.5-1.8-1.1-.6-2 1.3-2.5 2l-3 3.2a26 26 0 0 1-13.5 6.3c-.5 0-2.2.6-2.5 0-.6-.8 2.2-1.2 2.7-1.3q3.6-1.3 6.7-3.7a21.5 21.5 0 0 0 7-23.1L58.8 75c-.3-1-1-1.7-.3-2.5q.6-.8 1.3-1.3c.8-.8 1.3-.5 2.3-.1a8 8 0 0 0 4 .2c1-.2 1.9-1 2.8-.3l1.5 1.5c.7.8 0 1.7-.3 2.5q-1.4 4.2-2.1 8.6a21 21 0 0 0 6.4 16.7m11-31.7A21 21 0 0 1 72 84c-1.4.2-1.2-1.5-1.1-2.4s0-1.2.9-1.5l2.3-1.3a17 17 0 0 0 7.2-10c.2-.7.3-1.7 1-2.2a2 2 0 0 1 2.7.6q.5.6.3 1.4m27.3 11.2c-.8.9-1.5-2.7-1.7-3.2q-1-2.3-2.3-4.4-3-4.5-7.5-7a23 23 0 0 0-25.6 2.3l-1.8 1.7q-.5.7-1.3 1c-.8.3-1.5-1-1.8-1.4s0-1 .2-1.4l.8-2.6c.3-3-1.2-6-4-7.4-.4-.3-1.3-.4-1.7-.8a2 2 0 0 1-.2-1.8q0-.6.7-.7 1.3-.4 2.8-.5a23 23 0 0 0 15.9-13.4 23 23 0 0 0-.8-18.2l-1.2-2.1q-.1-.5.4-.6c.5 0 1 1 1.3 1.4q1.5 2 2.7 4.3a25 25 0 0 1-.8 24.8l-2.8 3.9q-.6.7.2 1.5c.5.3 1.3 0 1.8 0q2.4 0 5 .5a26 26 0 0 1 21.5 22c.2.3.6 1.7.2 2"/><path d="M24.5 29.7c4.5-7.1 14-13 24-14.8q3.9-.8 7.2.2c1.6.6 2.9 2 2 3.8-.7 1.4-2.6 2-4.1 2.5a45 45 0 0 0-23 17.4c-2 3-5 11.3-8.7 9.2-4-2.3-3.1-9.5 2.6-18.3" style="opacity:.3;fill:#fff"/></svg>