<svg xml:space="preserve" width="16" height="16" viewBox="0 0 128 128"><path d="M20 116.6c0-6.2 16.6-14.9 37-14.9s37.2 8.7 37.2 14.9c0 0-6.7 7.4-37.1 7.4s-37.2-7.4-37.2-7.4" style="fill:#94d1e0"/><path d="M87 108.7a67 67 0 0 0-8.5-3.6l-2.2-16H61l-1 13.5c-4.1 1.8-8.8 7.2-8.3 11 .9 5.7 10.5 6.7 25.8 5 3.8-.4 12.1-2.8 15.3-5.2 0 0-2.5-3-5.8-4.7" style="fill:#82aec0"/><path d="m73.2 93.3-9.5-2.2-.8 8.4-12.3 1.1 1.2 13 23.2-5.4z" style="fill:#2f7889"/><path d="M117.2 91.3c-6.5 8-54.6 6-77-10.7S3.6 18.6 10.7 9z" style="fill:#82aec0"/><path d="M117.4 91.2q1.2-1.5.8-3.4l-25.3-3s-18.6 4.8-44-3l.5 4.3c24.2 12 61.8 13.4 68 5" style="fill:#2f7889"/><ellipse cx="65.1" cy="48.9" rx="24.3" ry="67.5" style="fill:#fafafa" transform="rotate(-53.2 65.12 48.92)"/><path d="M93 83c9.2-9.3-6.6-38.5-33.6-66.7C37 3.9 17.2 0 11 8.4c-8 10.8 9.7 37.6 39.6 60A184 184 0 0 0 80 86.3c5.6 1 10-.6 12.8-3.3" style="fill:#e0e0e0"/><path d="m57 108.4-16.2.5V71.8c4.3-1.8 9.8-.4 11 7.5z" style="fill:#2f7889"/><path d="M79.7 29.5C49.8 7 19-2.3 11 8.5S20.7 46 50.6 68.3c29.8 22.3 60.6 31.7 68.6 21s-9.7-37.6-39.5-60M117 86.7c-7 9.3-35.5-.4-64-21.7S7.4 19 14.3 9.8s35.6.5 64 21.7c28.3 21.3 45.7 46 38.8 55.2" style="fill:#82aec0"/><path d="M51.8 113.7 35 109l2.7-31.3c.3-4.2 2.1-6.2 4.5-6.2 3 0 6 1.7 6.5 6.6z" style="fill:#94d1e0"/><ellipse cx="42.1" cy="78.2" rx="2.5" ry="3.3" style="opacity:.7;fill:#2f7889"/><path d="M91.4 19.9 72.2 45.8" style="fill:none;stroke:#2f7889;stroke-width:3;stroke-linecap:round;stroke-miterlimit:10"/><path d="M30.4 44.4 90.3 19m3 1.9-6.4 64.3" style="fill:none;stroke:#82aec0;stroke-width:3;stroke-linecap:round;stroke-miterlimit:10"/><path d="M91.6 20c-3-2-2.6-3.7-2-4.5l6-7.5c.6-.8 2.2-1.4 4.7.6 2 1.7 2.1 3.5 1.5 4.3l-5.9 7.5c-.6.8-2.4 1-4.3-.3" style="fill:#82aec0"/><path d="M91.6 17.3c-.8-.6.3-3 2.1-5.3s3.4-3.5 4.2-3q1.1 1.2-2 5.2c-3.1 4-4 3.4-4.3 3.1M14.2 9.8c.3-.3 2.2-2.4 1-3.2q-2.1-1.4-4.8 2.8c-3.3 5.3.4 13.7 1.2 15.6 5.4 12.6 19.7 29 39 43.4q12.2 9 24 15.2c3.4 1.7 6.1 3.5 9.7 3 2.1-.2 2.6-1.5.9-2.4A220 220 0 0 1 53 65C24.7 43.8 7.3 19 14.2 9.8" style="fill:#94d1e0"/></svg>