<svg xmlns:xlink="http://www.w3.org/1999/xlink" xml:space="preserve" width="16" height="16" viewBox="0 0 128 128"><radialGradient id="a" cx="63.6" cy="2288.9" r="57" gradientTransform="translate(0 -2226)" gradientUnits="userSpaceOnUse"><stop offset=".5" style="stop-color:#fde030"/><stop offset=".9" style="stop-color:#f7c02b"/><stop offset="1" style="stop-color:#f4a223"/></radialGradient><path d="M63.6 118.8c-27.9 0-58-17.5-58-55.9S35.7 7 63.6 7c15.5 0 29.8 5.1 40.4 14.4 11.5 10.2 17.6 24.6 17.6 41.5s-6.1 31.2-17.6 41.4a61 61 0 0 1-40.4 14.5" style="fill:url(#a)"/><path d="M111.5 29.7a57 57 0 0 1 8.1 30.2c0 16.9-6.1 31.2-17.6 41.4a61 61 0 0 1-40.4 14.5 59 59 0 0 1-48.2-23 58 58 0 0 0 50.2 26c15.4 0 29.8-5.2 40.4-14.5a54 54 0 0 0 17.6-41.4q-.1-19.2-10.1-33.2" style="fill:#eb8f00"/><defs><path id="b" d="M64 68.8c-17 0-35.3 14.2-35.3 31.7 0 4.9 5.6 7.7 10.6 5.7a70 70 0 0 1 24.7-4.9q12.8.2 24.7 5c5 2 10.6-1 10.6-5.8C99.3 83 79.7 68.8 64 68.8"/></defs><clipPath id="c"><use xlink:href="#b" style="overflow:visible"/></clipPath><g style="clip-path:url(#c)"><path d="M93.7 84.6Q79.1 80.9 64 81q-15.2-.2-30 3.7a27 27 0 0 0-5.3 15.8c0 4.9 5.6 7.7 10.6 5.7a70 70 0 0 1 24.7-4.9q12.8.2 24.7 5c5 2 10.6-1 10.6-5.8a26 26 0 0 0-5.6-16" style="fill:#422b0d"/><path d="M93.7 84.6A40 40 0 0 0 64 68.8a38 38 0 0 0-30 15.9A115 115 0 0 1 64 81q15-.2 29.7 3.6" style="fill:#fff"/></g><linearGradient id="d" x1="64.9" x2="64.9" y1="48.6" y2="4.5" gradientTransform="matrix(1 0 0 -1 0 130)" gradientUnits="userSpaceOnUse"><stop offset="0" style="stop-color:#469643"/><stop offset="0" style="stop-color:#489743"/><stop offset=".4" style="stop-color:#6db141"/><stop offset=".8" style="stop-color:#84c03f"/><stop offset="1" style="stop-color:#8cc63f"/></linearGradient><path d="M96.7 119.2c4.9-1.5 6.7-3.2 6.4-4.4-.3-1.6-7.1-1.8-15.1-.7V83.5s-8.1-2.4-24.5-2.4A76 76 0 0 0 39 83.5v27.9c-5-.3-8.8.3-9 1.6-.1 1.1 3 2.4 7 3.5-7.7.8-12.2 2-12.2 3.4 0 2.3 14.4 4.2 32 4.2q10.5 0 20.8-1 5.7.8 11.5.8c8.8 0 16-1.1 16-2.5 0-1-3.4-1.8-8.4-2.2" style="fill:url(#d)"/><ellipse cx="110.1" cy="112.6" rx="2.6" ry="1.6" style="fill:#368231" transform="rotate(-8.5 110.1 112.62)"/><ellipse cx="22.1" cy="110.9" rx="2.2" ry="3.7" style="fill:#368231" transform="rotate(-72.7 22.13 110.88)"/><ellipse cx="58.3" cy="110.5" rx="2.4" ry="4.7" style="fill:#368231"/><ellipse cx="62.8" cy="93.9" rx="2.3" ry="4.1" style="fill:#368231"/><ellipse cx="76.4" cy="103.8" rx="4" ry="7.3" style="fill:#368231"/><ellipse cx="48.2" cy="98.3" rx="1.9" ry="3.3" style="fill:#368231"/><path d="m33.2 60.6 12.2-2.4L32.8 53l-.4-.2a4.2 4.2 0 0 1-.7-7 6 6 0 0 1 6.9-.3l21.2 13q.9.4.6 1.3a1 1 0 0 1-.8.7L36.7 69l-.5.2c-3 .8-6.3-1-6.8-3.8-.3-2.2 1.4-4.3 3.8-5m62.6-.1-12.2-2.4 12.6-5.2.4-.2a4.2 4.2 0 0 0 .7-7 6 6 0 0 0-6.9-.2l-21.2 13a1 1 0 0 0-.6 1.3q.2.5.8.6l22.9 8.6.5.2c3 .8 6.3-1 6.8-3.8.3-2.2-1.4-4.2-3.8-4.9M31.4 34.8c-2.2.4-2.3 3.6.1 3.7a21 21 0 0 0 18-10 1.8 1.8 0 1 0-3-2.1l-.1.1a26 26 0 0 1-15 8.3m49.1-8.4a1.8 1.8 0 1 0-3 2.1Q79 31 81.2 33a21 21 0 0 0 14.3 5.5c2.5-.1 2.3-3.3.1-3.7q-9-1.6-15.1-8.4" style="fill:#422b0d"/></svg>