<svg xml:space="preserve" width="16" height="16" viewBox="0 0 128 128"><path d="m6.2 29.9 34-16.2q.2-.1 33.7 8a236 236 0 0 1 31.2 8.7l-7.8 2.1-6.4-2.3L40.3 18 13.2 30.7l-6 .8zm2.7 18v18.7q0 1 1.2 1.2c.8 0 11.2-.2 11.8-.1s1.2-.5 1.2-1.6V48s-3.6-2.8-4-2.7z" style="fill:#858585"/><path d="M13.3 52.2q-1.2.1-1.2 1.6l-.1 8.1c0 .7 0 1.4 1 1.4h5.9q.9-.1 1-1.4v-8.4q-.1-1.4-1.5-1.2c-1.4.2-4.1-.2-5.1-.1" style="fill:#b0b0b0"/><path d="M102 53.3V47l-14.5.1-.2 5.9 3.7 3.9h2l-.3 24s-.9 1.2-1.8 2c-1.2 1.2-3.2 2.7-3 6.5.2 3.4 3.6 6 6.9 6 3.5 0 6-2.6 6-5 .2-2.5-.8-2.6-1.3-2.7q-1.3-.1-1.7 1.6-.5 2.6-3.1 2c-2.6-.6-3.1-2.5-1.6-4.5 1-1.4 3.1-1.8 3.3-3 .2-1 0-21.4 0-27h2.3z" style="fill:#858587"/><path d="M91.2 68.8q-1.1.3-1 1.3v8q-.2.9.7 1l7.5.1q.9-.1.9-1.4v-8q-.3-1.1-1.4-1z" style="fill:#f1901b"/><path d="M74.5 103.5h44.6v6.9H74.5z" style="fill:#af0c1a"/><path d="M69.2 99.1v5.4s54.5.3 54.5.1.2-5 0-5.2zm0 9.3v5.3h54.6s.2-5 0-5z" style="fill:#dc0d2a"/><path d="M83.7 98c-1.2.6-1 1.5-1 2.4l.2 13.3s.3 1.3 2 1.3c2.1 0 2.3-1.3 2.3-1.3V99.9l7.9-6.6 10.4 7.7.3 12.6c0 .7.7 1.7 2.3 1.6 1.9 0 2.1-1.6 2.1-1.6l-.1-13.8c-.1-1.6-2.5-1.6-2.5-1.6S96.1 89 95 89s-10.5 8.7-11.3 9" style="fill:#ff510f"/><path d="M124.4 45.2c-.5-.6-16-15.7-16.7-15.7H52.1s-9-13.3-10-15q-2-3-3.6 0l-9 15s-22.7.2-24 .1q-1.8.2-1.7 1.1c0 .6 0 18.3.3 18.4l23 .1-.2 67.4h-3.4c-1.4 0-2.2 0-2.2 1.1v3.8c0 1.6 0 2.5 1 2.5h34.2c1.8 0 1.8-1.2 1.8-1.7v-4.5c0-1-.8-1.3-1.5-1.3h-4V65.3s3.5.2 7.2-.3 4.9-4.7 5.5-7.7c.7-3 .5-8.3.5-8.3s57.3.1 58.5-.3 1.5-1.8-.1-3.5m-115-11H16l-6.7 7.5zm3.6 8.5 5.2-5.8 6.1 5.8zm14.4-1.6-7-6.9h7zM47 96.8l-7 7-7-7zm-12.3-3.4 5.5-5.7 5.7 5.7zm5-32.7-7.9-7.5h15.4zm9.1-3.8v12.4l-6.3-6zm-2.5 15.6h-13l6.4-6.5zm2.5 5.8V91l-6.1-6zM46 75.9l-6.1 6.7-6.5-6.6zm3.3-31h-14l14-8.1zm-9.2-25s6.4 9.1 6.2 9.5c0 .1-3.3 0-6.4 0l-5.7-.1c0-.4 6-9.5 6-9.5M31.7 34h14.4l-14.4 8.7zm-.6 23.4 6 6-6 6zm0 21.2 6.2 6.3-6.1 6.5zm0 21.7 6.2 6.2-6.2 6.3zm1.8 16.3 7.1-7.4 7.3 7.3zm16-4-6.3-6.2 6.2-6.4zM53 44.9V36l8.5 8.9zm13-.7L56 34h20.1zm4.5.8 9.8-9.6L90.6 45zm13.3-11 21.6-.1-10.7 10.4zm32.9 11h-17l9.1-9.1 7.8 7.9c1 1 .4 1.3 0 1.3" style="fill:#f3911c"/><path d="M52.7 48.8v6.7c-.2.1-25.8 0-26.2-.2s-.5-6.5-.3-6.5z" style="fill:#d15116"/><path d="M57.1 50.7v7.2l6.4 4.7S65 61 65.7 57c.6-3.3.3-6.3.3-6.3z" style="fill:#a7d0d6"/></svg>