<svg xml:space="preserve" width="16" height="16" viewBox="0 0 128 128"><path d="M117.1 64.5s-7 4.1-17 6a248 248 0 0 1-73.8.6c-8.9-1.5-16-6.4-16-6.4S7 77.2 25.6 81c16.7 3.5 47.1 6.5 74.7 0 23-5.5 16.8-16.5 16.8-16.5" style="fill:#f3ab47"/><path d="M124 79.2c-1.2-5.7-6.5-14.5-6.5-14.5S114 73 99.6 77a193 193 0 0 1-70.7.6c-14.4-3.9-18.5-12.8-18.5-12.8s-5.5 8.8-6.5 14.5c-2.3 11.7 3.5 18.3 22 22.8a192 192 0 0 0 39.5 3.4c15.3 0 30.7-1.2 39.5-3.4 18.6-4.5 21.3-11.2 19-22.8" style="fill:#a65f3e"/><path d="M16.3 78.4q.1 1-.3 1.9a19 19 0 0 0-.8 10.9l.9 2.4c.3.6-.4 1.3-1 1-1.4-.3-4.3-2.1-6.3-6.2-1.6-3.3-1.3-7-.6-10.4.4-1.6 1.6-5.3 3.7-3.8.5.4 4.2 3.6 4.4 4.2" style="fill:#f29657"/><path d="M76 81s2 9.9.5 16.6c-1.6 7.3-3.1 7.7-3.1 7.7s11-.2 13.8-.7l-7.4-23.8zm-12.3-5.5c-28 .3-40.6-3.3-41-3.3l-2.8 2s10.9 6 44.2 6 45.4-7 45.4-7l-4.4-2c-.6.2-16.3 4.1-41.4 4.3" style="fill:#874d36"/><path d="m100.3 123.5 9-5.1c1.6-1 1.4-2.3.8-3.5a205 205 0 0 0-13.2-21.1c-4-5.7-14.6-14.2-14.6-14.2L79 81.4s3.6 13.7 5.3 19c2.9 8.8 9.3 17.8 12.6 22.6q1.2 1.8 3.4.5" style="fill:#f3ab47"/><path d="m59.8 44.1 42.8 74.6" style="fill:none;stroke:#f3ab47;stroke-width:4;stroke-miterlimit:10"/><path d="m62.8 45.4-3.4 2a5 5 0 0 0-3.8-2.7q-1.2-.3-1.6-1.6-.3-1.3 1-2.1l4-2.4q1.4-.7 2.5 0 1 .9.6 2.5c-.4 1.5 0 2.5.7 4.3" style="fill:#bdbdbd"/><path d="M117.5 64.7c-.3-.4-.6 0-.6 0s-3.1 8.6-18.2 11.8a216 216 0 0 1-69.5 0c-13.6-3.2-18.7-11.7-18.8-11.8 0 0-.7.3-.1 1.8s5.5 9 18.4 12a215 215 0 0 0 70.4 0c14-3.3 17.5-10.6 18-11.3s.7-2 .4-2.5M65.7 79.6h-3.1l.5-4.5h2.2zm-24.9-.8-10.4-1 4.6-4.2 10.2.8zm47.1-.2 9.7-1.7-4.2-4-10 .9z" style="fill:#f3ab47"/></svg>