<svg xml:space="preserve" width="16" height="16" viewBox="0 0 128 128"><path d="M55.4 4.5C31.8 7.8 33 29.5 33 33.7s2 38.3 6 45.8c3.1 6 17 2.8 17 2.8l11-1.7 8.6-1.4s4.7-.8 6.6-4.7c5-9.9 5.3-33 2.8-49 0-.4-2.9-24.6-29.6-21" style="fill:#543930"/><radialGradient id="a" cx="60.9" cy="-269.3" r="45.2" gradientTransform="rotate(85.6 -68.88 -67.8)scale(.826 .7)" gradientUnits="userSpaceOnUse"><stop offset=".8" style="stop-color:#6d4c41;stop-opacity:0"/><stop offset="1" style="stop-color:#6d4c41"/></radialGradient><path d="M55.4 4.5C31.8 7.8 33 29.5 33 33.7s2 38.3 6 45.8c3.1 6 17 2.8 17 2.8l11-1.7 8.6-1.4s4.7-.8 6.6-4.7c5-9.9 5.3-33 2.8-49 0-.4-2.9-24.6-29.6-21" style="fill:url(#a)"/><linearGradient id="b" x1="68" x2="68" y1="65.5" y2="122.3" gradientTransform="translate(0 2)" gradientUnits="userSpaceOnUse"><stop offset="0" style="stop-color:#651fff"/><stop offset="1" style="stop-color:#530eeb"/></linearGradient><path d="M109.9 106.2A70 70 0 0 0 96.3 78c-3-3.7-8.6-8.5-16.6-9.8-5-1-21.7-.8-26.6-.4C37.8 69.1 33 74 28.4 90.4q-3.1 11.3-3.4 20c0 9.2 3 12.1 9.3 13.3 4 .7 15.6.5 22.1-1.7 4.9-1.6 14.6-.7 18.8 2.8.7.7 2 .7 3.1.7l10.7-1.2c5.4-.5 11.2-.9 16.3-2.6 8.3-2.7 5.2-13.4 4.6-15.5m-21.3 4c1.2-5 .6-14.6.6-14.6.5 3.7 7 12.9 7 12.9z" style="fill:url(#b)"/><linearGradient id="c" x1="61.4" x2="61.4" y1="102.1" y2="60" gradientTransform="translate(0 2)" gradientUnits="userSpaceOnUse"><stop offset=".5" style="stop-color:#ffca28"/><stop offset="1" style="stop-color:#ffb300"/></linearGradient><path d="m75.3 67.7-3.8-.2-.7-7.3-7.1 1-6 .6-.3 5.6-4.3.4c-1.4 2.5.8 9.1-2.4 15.4-2.1 4.1-8.2 7-7.6 12.2 1.4 12.1 12.8 14.5 22.5 14s14.1-2.4 14.1-2.4c-8.8-15.7-4.4-39.3-4.4-39.3" style="fill:url(#c)"/><path d="M62.5 101.4q-.4 0-.7-.2a1 1 0 0 1-.1-1.5c3.3-3.7 3.3-10.3.8-13.9-.5-.6-1-1.2-.6-1.5q.5-.3 1.2.3c3.7 4 5.3 11.5.8 16.3q-.6.4-1.4.5" style="fill:#eda600"/><linearGradient id="d" x1="42.8" x2="65.6" y1="118.3" y2="118.3" gradientTransform="translate(0 2)" gradientUnits="userSpaceOnUse"><stop offset=".5" style="stop-color:#ffca28"/><stop offset="1" style="stop-color:#ffb300"/></linearGradient><path d="m73.1 115.3-9.2 2.2-11.5 5.1s5.4 1.7 8.5 2.2c6.3 1.2 14.3 0 14.3 0s-1.7-3-2-5.3-.1-4.2-.1-4.2" style="fill:url(#d)"/><linearGradient id="e" x1="62.2" x2="64.7" y1="115.4" y2="122.3" gradientTransform="translate(0 2)" gradientUnits="userSpaceOnUse"><stop offset=".2" style="stop-color:#212121;stop-opacity:.4"/><stop offset=".7" style="stop-color:#252525;stop-opacity:0"/></linearGradient><path d="m59.2 124.5 14-4.6-.1-.4c-.3-2.3 0-4.2 0-4.2l-9.2 2.2-11.5 5.1s3.8 1.2 6.8 1.9" style="fill:url(#e)"/><path d="M35 108.4q3.5-.2 6.5.4c1.8.3 4.5 1.1 7.4 1.4l2 .1c3.2-.8 4-3 5-6.4q1.6-5.7-1-10.3c-2.7-4.4-7.4-7-11.8-6.5a15 15 0 0 0-5.7 1.6c-3.6 2.5-5.3 6-6 9.1-.2 1.2-1.2 7.5 3.6 10.6" style="fill:#c5e1a5"/><path d="M36 87.5c-2.5 2-4 4.8-3.5 7.1.7-1.3 1.2-3.1 4.2-5 6.6-3.9 13.8-1 16.5 5.7 3 7.5-1.7 15-1.7 15 3.1-.5 4-2 4-2 4.7-5 5.3-11.9.5-18.2s-13.1-8-20-2.6" style="fill:#fafafa"/><path d="M54.5 108.4c1.3-1.8 3.1-6 4.7-8.6 2.6-4.2 8.2-6.8 14.5-5.1 7.7 2 10.3 6 11.7 6.9s7.2-1.8 11.3 7.6c0 0-4.8.2-6.9 1-3.5 1.3-9.1 4.4-12.8 4.7-9.4.8-17.7-4.9-17.7-4.9-2.8-.1-7.8.3-7.8.3s1.6-.1 3-1.9" style="fill:#bdbdbd"/><linearGradient id="f" x1="59.7" x2="63.5" y1="112.9" y2="97" gradientTransform="translate(0 2)" gradientUnits="userSpaceOnUse"><stop offset=".2" style="stop-color:#212121;stop-opacity:.4"/><stop offset="1" style="stop-color:#252525;stop-opacity:0"/></linearGradient><path d="M41.5 105c4.8.3 9.8-2.9 12.6-6.8q1.3.4 2.7-.2 1.2-.6 2.1-1.7c.7 2 .3 3.5.3 3.5q1.2 1.6 3.5.4c1.3-.9 3.2 3.2 3.2 3.2 2.9-1.3 6.2-4 7-4.5s2.7.6 2.4 1.6c-.4 1.2-.8 1.7-1 3l4-2.3c1.4-.8 3.2-.1 3 2.3-.1.5-.8 4.8-1 4.7 4 1.4 10.7-1 13.5 1.2-.8.1-4.3.8-6.4 1.8-9 4.7-11.3 3.7-13.2 4.1-2.3.5-16.4-3.7-19.2-4.5-2-.5-4.6-.3-6.8-.5-4.7-.5-8.9-1.6-14.5-.4-.8.1-4.4.9-4.5 1.2 1.1-2.8 0-5 .5-8 .4-2.7 1.6-3.5 1.5-3.8 0 0 .7 5.2 10.3 5.7" style="fill:url(#f)"/><linearGradient id="g" x1="143.9" x2="166.6" y1="-53.9" y2="-53.9" gradientTransform="rotate(-8.8 1174.24 581.5)" gradientUnits="userSpaceOnUse"><stop offset=".5" style="stop-color:#ffca28"/><stop offset="1" style="stop-color:#ffb300"/></linearGradient><path d="M59.1 110.5c0-5 3.1-5.5 3.8-10 0-.2 2.3-1.6 2.6 1.4a7 7 0 0 1-.7 3.6c-.3.5-.1 1.2 2 .2 3-1.5 4.4-4 6-6q1-.7 1.7-.4 1.1.5.6 2.3c-1 2.7-3.6 5.2-3.6 5.2 2.3-.2 4.7-2.3 6.4-3.8.7-.7 1.2-1.4 2-1.3 1 0 1.2 1.8.7 2.8l-.4.8s1 1.4.7 2.4l-.9 1.7c-.5 2-1.8 3.3-5.4 5.7-5.2 3.6-13 4.8-13 4.8.4-5.7-2.5-9.4-2.5-9.4" style="fill:url(#g)"/><path d="m81 102.9-1.7 3c-2 2.8-5.7 4-5.6 4.4s4.2-.9 5.8-3.3c1.8-2.7 1.4-4.1 1.4-4.1m-.1 3.5s.2 1.8-2.6 4.3c-1.2 1.1-3.7 2.4-3.7 2.4s2.4-.2 4.2-1.8c2.3-2.3 2.2-3 2.3-3.6q0-1.2-.2-1.3" style="fill:#eda600"/><linearGradient id="h" x1="55.1" x2="31.8" y1="114.1" y2="114.1" gradientTransform="translate(0 2)" gradientUnits="userSpaceOnUse"><stop offset=".3" style="stop-color:#651fff"/><stop offset="1" style="stop-color:#641efe;stop-opacity:0"/></linearGradient><path d="M61.1 111.8c-2-3-4-2-6.5-1.6-.9 0-3.3.2-5.7 0q-4.5-.6-7.4-1.4c-4-.7-9.5-1.2-12.4 2.8-2.8 4-.7 9 3.4 10.7 6.4 2.7 17.6 1.5 25.8-.8 6-1.7 4.8-6.8 2.8-9.7" style="fill:url(#h)"/><path d="M56 12.4c-11.2 1.8-20 11.9-17.1 29.4a26 26 0 0 0 20.6 22.4q2.9.6 5.2.1t5-1.8a26 26 0 0 0 12-27.9C78.9 17 67.2 10.5 56 12.4" style="fill:#ffca28"/><path d="M67.8 50.5A17 17 0 0 1 57 52.2c-1.3-.6-2.3.7-1.6 1.7s4.6 2.8 7.8 2.3c3.1-.5 6.4-3.5 6.7-4.6s-1-2-2.1-1.1" style="fill:#795548"/><path d="M63.8 44.4h-.2l-4.5.7h-.2q-.6.5-.3 1.2c.3.7 1.4 1.5 3.2 1.2a3 3 0 0 0 2.6-2.2q.2-.6-.6-1" style="fill:#e59600"/><path d="M50.2 42.7q-2.1.2-3.5-.3-.6-.3-.5.4c.5 1.6 2.3 2.6 4.3 2.3s3.4-1.9 3.4-3.5q0-.6-.5-.3-1.2 1-3.2 1.4m21.1-3.3q-2 .2-3.5-.3-.6-.2-.4.4c.5 1.5 2.3 2.5 4.3 2.2S75 40 75 38.3q0-.7-.5-.3-1.3 1-3.3 1.4" style="fill:#404040"/><path d="M53.9 35.2c-.8-.8-2.3-1.7-5-1.3-2.7.5-4 1.8-4.4 2.7q-.3.6.1 1t1.3 0c.9-.4 1.5-1 3.3-1.2 1.9-.3 3 .1 3.6.2s1-.2 1.2-.4q.3-.5-.1-1M75 31.8c-.8-.7-2.4-1.6-5-1.2-2.8.4-4 1.8-4.4 2.7q-.2.6.1 1t1.3 0c.9-.4 1.5-1 3.3-1.2q2.7-.3 3.6.2.9 0 1.2-.4t-.2-1" style="fill:#6d4c41"/><path d="M83.3 28.3c-.6-5-4.4-24.9-28.1-21.6-22 3-20.3 25-20 30 .2 3.7.7 11 1.2 15 .6 4.3 5 5.2 5 5.2s0-6.2-.3-12.2c-.2-5.4-.2-9.8 2.2-10.7a49 49 0 0 0 21-14.5c2.9 4.3 10.3 7.8 13 9.2 2.1 1 2.8 7 3.1 9.5l-.6 17.7s4.3-2.6 4.6-7c.3-4-.6-15.6-1.1-20.6" style="fill:#543930"/><radialGradient id="i" cx="57.5" cy="-270.5" r="48.5" gradientTransform="matrix(-.091 -.82 .655 -.07 242.9 71.16)" gradientUnits="userSpaceOnUse"><stop offset=".8" style="stop-color:#6d4c41;stop-opacity:0"/><stop offset="1" style="stop-color:#6d4c41"/></radialGradient><path d="M83.3 28.3c-.6-5-4.4-24.9-28.1-21.6-22 3-20.3 25-20 30 .2 3.7.7 11 1.2 15 .6 4.3 5 5.2 5 5.2s0-6.2-.3-12.2c-.2-5.4-.2-9.8 2.2-10.7a49 49 0 0 0 21-14.5c2.9 4.3 10.3 7.8 13 9.2 2.1 1 2.8 7 3.1 9.5l-.6 17.7s4.3-2.6 4.6-7c.3-4-.6-15.6-1.1-20.6" style="fill:url(#i)"/><linearGradient id="j" x1="93.5" x2="96.1" y1="104.4" y2="93.7" gradientTransform="translate(0 2)" gradientUnits="userSpaceOnUse"><stop offset=".2" style="stop-color:#212121;stop-opacity:.4"/><stop offset="1" style="stop-color:#252525;stop-opacity:0"/></linearGradient><path d="M88.2 92.1a133 133 0 0 0 13.3 17.3l-4.6.1s-1.8-4.4-3.6-5.3c0 0-4.4-7.3-5-12" style="fill:url(#j)"/></svg>