<svg xml:space="preserve" width="16" height="16" viewBox="0 0 128 128"><path d="M116.5 4h-104a8 8 0 0 0-8 8v104a8 8 0 0 0 8 8h104a8 8 0 0 0 8-8V12a8 8 0 0 0-8-8" style="fill:#427687"/><path d="M110.2 4H12a7.6 7.6 0 0 0-7.5 7.5v97.9c0 4.1 3.3 7.5 7.4 7.5h98.2c4.1 0 7.4-3.4 7.5-7.5v-98c0-4-3.2-7.3-7.2-7.4z" style="fill:#8cafbf"/><path d="m65.5 105.5 24-24a4 4 0 0 0-3-6.6h-14a2 2 0 0 1-2-2V50c0-1 .9-2 2-2h14a4 4 0 0 0 3-6.6l-24-24a4 4 0 0 0-5.6-.3q-.3 0-.4.3l-24 24a4 4 0 0 0 3 6.6h14a2 2 0 0 1 2 2v23a2 2 0 0 1-2 2h-14a4 4 0 0 0-3 6.6l24 24a4 4 0 0 0 6 0" style="fill:#fafafa"/><path d="M40.2 12.9c0-2.3-1.6-3-10.8-2.7-7.7.3-11.5 1.2-13.8 4s-3 8.5-3 15.3c0 4.8 0 9.3 2.5 9.3 3.4 0 3.4-8 6.2-12.3 5.4-8.7 18.9-10.6 18.9-13.6" style="opacity:.5;fill:#b4e1ed"/></svg>