<svg xml:space="preserve" width="16" height="16" viewBox="0 0 128 128"><path d="M116 4H12a8 8 0 0 0-8 8v104a8 8 0 0 0 8 8h104a8 8 0 0 0 8-8V12a8 8 0 0 0-8-8" style="fill:#427687"/><path d="M109.7 4H11.5A7.6 7.6 0 0 0 4 11.5v97.9c0 4.1 3.3 7.5 7.5 7.5h98.1c4.1 0 7.5-3.3 7.5-7.5V11.5c0-4-3.1-7.4-7.2-7.5z" style="fill:#8cafbf"/><path d="M39.7 12.9c0-2.3-1.6-3-10.8-2.7-7.7.3-11.5 1.2-13.8 4s-2.9 3.5-3 10.3c0 4.8 0 9.3 2.5 9.3 3.4 0 3.4-2.9 6.2-7.3 5.4-8.7 18.9-10.6 18.9-13.6" style="opacity:.5;fill:#b4e1ed"/><path d="M20.2 89.3q-4.2-2.6-6.6-7.7a28 28 0 0 1-2.3-11.9V38h9v32.4q.1 5.5 2.6 8.9a9 9 0 0 0 7.3 3.3q4.7 0 7.2-3.3 2.6-3.4 2.6-8.9V38h9v31.8q0 6.6-2.3 11.7t-6.6 7.8a18 18 0 0 1-10 2.8q-5.7 0-10-2.7m39.3-51.5h17.2q4.6 0 8.4 2 3.8 2.2 6 6t2.2 8.7-2.2 8.7a15 15 0 0 1-6 6 17 17 0 0 1-8.4 2h-8v19.5h-9.2zm17.4 24q3.4 0 5.4-2.1 2-2.2 2-5.2t-2-5.2a7 7 0 0 0-5.4-2h-8.2v14.5zM100.9 89a7 7 0 0 1-1.7-4.6q0-2.7 1.7-4.5a6 6 0 0 1 4.2-1.9q2.4 0 4.2 1.9a6 6 0 0 1 1.7 4.5q0 2.6-1.7 4.5a6 6 0 0 1-4.2 1.9q-2.4 0-4.2-1.9m-.4-35.9V37.9h9.1V53l-.8 19.5h-7.5z" style="fill:#fafafa"/></svg>