<svg xml:space="preserve" width="16" height="16" viewBox="0 0 128 128"><path d="M102.3 34.7c-27 0-31.4 19.6-31.4 47.6 0 24 10.3 39.3 28.5 41.3 9.3 1 18-.8 24.6-5.7V40.6a37 37 0 0 0-21.7-5.9" style="fill:#70534a"/><path d="M72.9 77.2c3.3-4.7 11.2-4.9 15.1-.9.7.7 1.4 1.6.9 2.7q-1 1.3-2.7.5-3.8-1.6-8-1L75 79.8c-1.5.5-3-1-2.1-2.5m47.2 2.4a14 14 0 0 0-7.3-1.3q-1.7.1-3.4.9c-.9.3-1.8.9-2.7.3-2.6-1.8 2-4.7 3.3-5.3a11 11 0 0 1 9.2.4q1.8.8 3 2.5c.8 1.3-.5 3.2-2 2.5m-11.5 5.9c-.7-.7-1.1-.1-1.2.4-.5 1.8.2 4.5 3.4 5.4 4.4 1.2 8.8-1.4 9.3-5q-.2-.7-.9-.5c-1.3.7-2.9 2.2-6.2 1.9s-3.7-1.3-4.4-2.2m-32.9 0c-.7-.7-1-.1-1.2.4-.4 1.8.3 4.5 3.5 5.4 4.3 1.2 8.7-1.4 9.2-5q-.1-.7-.8-.5c-1.3.7-3 2.2-6.3 1.9s-3.7-1.3-4.4-2.2m15.9 29.3c-3 .3-8-2.3-7-5.2.5-1.2 2.1-1.5 2.1-1.5s-2.7-3.1-1.3-4.8c2-2.2 5-.5 7.4-1.2q.8-.4 1.5-.2-.2 1.4-2 2c-1.3.5-2.8.2-3.5.8s-.1 1.6.9 2.2c1.4.8 3.4 1.3 3.3 2 0 .6-2.4.7-3 .9q-1 .1-1.4.8c-.3.9 1 1.9 1.6 2.3l2.7 1q.2.1 0 .4c-.1.2-1 .4-1.3.4" style="fill:#1a1717"/><path d="M89.7 93.5h7.9q1 .6.8 1.7c-.4.7-1.8 2.8-4.8 2.8-2.9 0-4.3-2-4.7-2.8q-.4-1.2.8-1.7" style="fill:#33251f"/><path d="M106 28.4c-47.6.3-37.9 54.7-37.9 54.7s.6 4 1.6 5.6q1.6 3.2 1.9 1.7c0-1.2 0-19.5 1.8-24.4a6.3 6.3 0 0 1 7.1-4c7.6 1.3 9.8 1.3 14.5 1.3 8.5 0 18.5-1 23.2-1.8q3.4-.5 5.8 2V31.7a45 45 0 0 0-18-3.4" style="fill:#232020"/><radialGradient id="a" cx="106.7" cy="74.4" r="39.6" gradientTransform="rotate(-1.2 -308 79.79)scale(1 1.12)" gradientUnits="userSpaceOnUse"><stop offset=".7" style="stop-color:#444140;stop-opacity:0"/><stop offset="1" style="stop-color:#444140"/></radialGradient><path d="M106 28.4c-47.6.3-37.9 54.7-37.9 54.7s.6 4 1.6 5.6q1.6 3.2 1.9 1.7c0-1.2 0-19.5 1.8-24.4a6.3 6.3 0 0 1 7.1-4 134 134 0 0 0 37.7-.5q3.4-.5 5.8 2V31.7a45 45 0 0 0-18-3.4" style="fill:url(#a)"/><path d="M25.7 34.7c27 0 31.4 19.6 31.4 47.6 0 24-10.3 39.3-28.5 41.3-9.3 1-18-.8-24.6-5.7V40.6a37 37 0 0 1 21.7-5.9" style="fill:#ba8d68"/><path d="M55.1 77.2c-3.3-4.7-11.2-4.9-15.1-.9-.7.7-1.4 1.6-.9 2.7q1 1.3 2.7.5 3.9-1.6 8-1l3.2 1.2c1.5.5 3-1 2.1-2.5M7.9 79.7a14 14 0 0 1 7.3-1.3q1.7.1 3.4.9c.8.3 1.8.9 2.7.3 2.5-1.8-2-4.7-3.3-5.3a11 11 0 0 0-9.2.4 8 8 0 0 0-3 2.5c-.8 1.3.5 3.2 2 2.5" style="fill:#613e31"/><path d="M19.4 85.6c.6-.7 1-.1 1.2.4.4 1.8-.3 4.5-3.5 5.4-4.4 1.2-8.8-1.4-9.3-5q.2-.7.9-.5c1.3.7 2.9 2.2 6.3 1.9 3.2-.3 3.6-1.3 4.4-2.2m32.8 0c.7-.7 1-.1 1.2.4.5 1.8-.2 4.5-3.5 5.4-4.3 1.2-8.7-1.4-9.2-5q.1-.7.8-.5c1.3.7 3 2.2 6.3 1.9s3.7-1.3 4.4-2.2" style="fill:#49362e"/><path d="M36.4 114.9c3 .3 8-2.3 6.9-5.2-.5-1.2-2.1-1.5-2.1-1.5s2.7-3.1 1.3-4.8c-2-2.2-5-.5-7.4-1.2q-.7-.4-1.5-.2.3 1.4 2 2c1.3.5 2.8.2 3.5.8s.1 1.6-.9 2.2c-1.4.8-3.4 1.3-3.3 2 0 .6 2.5.7 3 .9q1 .1 1.4.8c.4.9-1 1.9-1.6 2.3l-2.7 1q-.1.1 0 .4c.1.2 1 .4 1.4.4" style="fill:#5d4037"/><path d="M38.4 93.5h-8q-1 .6-.8 1.7c.4.7 1.8 2.8 4.8 2.8a5 5 0 0 0 4.7-2.8q.4-1.2-.7-1.7" style="fill:#99674f"/><path d="M22 28.4c47.6.3 37.9 54.7 37.9 54.7s-.6 4-1.5 5.6q-1.7 3.2-2 1.7c0-1.2 0-19.5-1.8-24.4a6.3 6.3 0 0 0-7.1-4c-7.6 1.3-9.8 1.3-14.5 1.3-8.4 0-18.5-1-23.2-1.8q-3.4-.5-5.8 2V31.7a45 45 0 0 1 18-3.4" style="fill:#543930"/><radialGradient id="b" cx="1218.3" cy="71.2" r="38.1" gradientTransform="matrix(-1 -.022 -.024 1.12 1241.7 17.9)" gradientUnits="userSpaceOnUse"><stop offset=".7" style="stop-color:#6d4c41;stop-opacity:0"/><stop offset="1" style="stop-color:#6d4c41"/></radialGradient><path d="M22 28.4c47.6.3 37.9 54.7 37.9 54.7s-.6 4-1.5 5.6q-1.7 3.2-2 1.7c0-1.2 0-19.5-1.8-24.4a6.3 6.3 0 0 0-7.1-4 134 134 0 0 1-37.7-.5q-3.4-.5-5.8 2V31.7a45 45 0 0 1 18-3.4" style="fill:url(#b)"/><path d="M78.4 3.7C68 3.7 64 14.5 64 14.5S60.2 3.7 49.6 3.7c-8 0-17.1 6.4-13.7 20.7C39.2 38.8 64 56.7 64 56.7s24.7-18 28.1-32.3-5-20.7-13.7-20.7" style="fill:#ef5592"/><path d="M48 4.8c8.2 0 12.3 8.9 13.7 12.5.1.5.9.5 1 0l1.3-2.8A15 15 0 0 0 49.6 3.7c-3.4 0-6.9 1.1-9.6 3.5q3.8-2.4 8-2.4m30.4-1.1q-3.8.1-6.5 1.9 2-.8 4.2-.8c7.8 0 14.8 6 11.7 19.6C85 36 69.3 50.4 64.4 55.8c-.3.3-.4.9-.4.9s24.7-18 28.1-32.3S86.4 3.7 78.4 3.7" style="fill:#da2e75"/><path d="M41.4 11.4c1.8-2.3 5-4.2 7.8-2 1.4 1.1.8 3.5-.5 4.5-2 1.5-3.6 2.4-4.8 4.7q-1 2-1.3 4.4c-.1.6-1 .7-1.2.2-2-3.6-2.6-8.5 0-11.8M70.3 16q-1.4-.2-1.1-1.5.9-2.3 2.2-4.1c1.3-1.9 3.8-3 5.4-1.8s1.4 3.4.3 4.5c-2.5 2.4-5.6 3-6.8 3" style="fill:#f386ab"/></svg>