<svg xml:space="preserve" width="16" height="16" viewBox="0 0 128 128"><path d="m64.6 23-12-13.3 1.2-3s3.2-2 10.9-2 10.2 2 10.2 2l1 3.8z" style="fill:#fff"/><path d="M122.5 24.5a148 148 0 0 1-43.3-13.8l-4.3-4s-6 5.8-10.6 10.8C60 13 54.8 8.1 54.8 8.1c-1.5-.3-4.3 2-4.3 2C30 20 20.5 22 5.5 24.5A194 194 0 0 0 9 92q.2 1.6 1.2 2.7 1.2.8 2.7.9 9.1 1 18.3 1.6c-.3-11.5-.5-24 2-35.2a31 31 0 0 1 7.6-15.6c.2 5.7.2 73.6.2 73.6q0 1.3 1.3 1.7c4.4 1 20.1 4 43.5-.1q1.4-.4 1.5-1.7s0-69.3-.3-74c0 0 6.7 3.8 8.6 17 1.6 11.3 1.7 22.8 1.4 34.3a319 319 0 0 0 18.3-1.6q1.6 0 2.7-1 1-1 1.2-2.6a197 197 0 0 0 3.4-67.6" style="fill:#ffb6d7"/><path d="m87 54.1-46.2.5v6.5c0 3.9 1.8 4.2 4 4.4 3.9.3 10.3-.2 20.1-.3 9-.1 14.8.5 18.1.2 2.4-.1 4.3-1.2 4.1-4.4zm-4.7 7.5c-1.8.7-9.8.2-17.8.2-8.4.1-17 .7-18.6 0a6 6 0 0 1-3.2-2.6 391 391 0 0 1 42.9-.5 6 6 0 0 1-3.3 3" style="fill:#df86ac"/><radialGradient id="a" cx="62.8" cy="31.2" r="93.3" gradientTransform="matrix(1 0 0 1.12 0 -3.74)" gradientUnits="userSpaceOnUse"><stop offset=".4" style="stop-color:#f06292;stop-opacity:0"/><stop offset="1" style="stop-color:#f06292;stop-opacity:.8"/></radialGradient><path d="M122.5 24.5a148 148 0 0 1-43.3-13.8l-3.4-3.2-11.6 12L54.8 8l-4.3 2c-20.5 10-30 12-45 14.5A194 194 0 0 0 9 92q.2 1.6 1.2 2.7 1.2.8 2.7.9 9.1 1 18.3 1.6c-.3-11.5-.5-24 2-35.2a31 31 0 0 1 7.6-15.6c.2 5.7.2 73.6.2 73.6q0 1.3 1.3 1.7c4.4 1 20.1 4 43.5-.1q1.4-.4 1.5-1.7s0-69.3-.3-74c0 0 6.7 3.8 8.6 17 1.6 11.3 1.7 22.8 1.4 34.3a319 319 0 0 0 18.3-1.6q1.6 0 2.7-1 1-1 1.2-2.6a197 197 0 0 0 3.4-67.6" style="fill:url(#a)"/><path d="M67.1 20.7c-2.7 3-5.2 7.5-5.2 7.5 1.1.3 4.3.3 6.2-1.5a5 5 0 0 0 1.5-3.7h.1q.2 1.4 1.3 2.7c1.9 2 3.8 2 5 2.1q.6 0 .4-.6l-.6-1.4q0-.6.6-.4.6.3 1 1 .4.3.7-.1c.4-1.2.6-3.3-1.2-5.8q-.7-1-1.8-1.5v-.3l2.2-1.1c2.1-1.7 1.5-3.9 1.9-4.9q0-.5-.5-.5l-2.2.3s-4 2.6-9.4 8.2" style="fill:#fdf0f7"/><path d="M68 20.2c.9.1 1.2.8 1.4 1.2h.2c.2-.6.6-1.7 1.3-2.1s2-.6 2.5-.7q.2 0 0-.2c-.3-.3-1-1-1-2z" style="fill:#f48fb1"/><circle cx="71.7" cy="21.3" r=".7" style="fill:#ec407a"/><circle cx="74.4" cy="21" r=".8" style="fill:#ec407a"/><circle cx="74.5" cy="17.1" r=".7" style="fill:#ec407a"/><path d="M66.6 23.3q.3.5 1 .4.7-.4.4-1-.4-.8-1-.4-.6.3-.4 1" style="fill:#ec407a"/><path d="M70.2 9c.6-.6.9-1 0-1.3 0 0-1.7-.4-5.2-.4-3.6 0-6.4.3-6 1.3.3.6 3.3 3.2 4.6 4.7L61.5 16c-1.2 1.5 1 1 1 1 2.5-3 7-7.1 7.7-8" style="fill:#2167a1"/><path d="M78.5 9.8 75.6 6q-.7-.8-1.5-1a53 53 0 0 0-10.2-.9 33 33 0 0 0-9.7 1.7q-.8.3-1.3 1L50.6 10q-.4.7 0 1.4c2 2 8 8.2 9.8 10.3q-4.5 5.3-8 10.2 3.9.6 6.2 1.2c5.4-7.3 16.2-18.7 19.8-21.8q.7-.7.1-1.5m-5.9-1.2-8.4 8.9-5.2-5.9c-2.6-2.8-3.3-3.7-2.6-4.5.7-.6 4.4-1.2 7.8-1.2 5.2 0 7.2.5 8.3 1.1.9.6.4 1.3.1 1.6" style="fill:#2686c6"/><path d="M58.7 19.8s1.2-2 3.5-4.7l2 2.4-3.8 4.2z" style="fill:#2167a1"/><path d="M36.7 38.3c.5-.6 1-1.7.3-2.3-.5-.5-1.6 0-2.2.6-.4-.6-1.3-1.5-2-1-.7.3-.6 1.4-.2 2.2-.8.2-1.9.8-1.7 1.7s1.4 1 2.3.8c0 .7.2 2.1 1 2.2.9 0 1.5-1 1.5-1.8.8.2 2 .3 2.2-.5.4-.7-.4-1.5-1.2-2" style="fill:#fce4ec"/><path d="M39.7 47.4c-3.2 4.6-8 22.5-8 22.5A98 98 0 0 1 42 23.4c.2-.5.9-.2.8.3-1.9 11.3-.8 20.7-3 23.7m48.5 0c3.3 4.6 8 22.5 8 22.5a98 98 0 0 0-10.1-46.5c-.3-.5-1-.2-.9.3 2 11.3.8 20.7 3 23.7" style="fill:#df86ac"/><path d="M87.5 32.6c-.4-2.4-2.1-3.3-4.2-3.6-9.5-1.7-18 3-18 3-6.3-3-19.6-4-24-1.7-3.6 2-.4 4.6-.4 4.6h45.5s1.3-1.2 1.1-2.3" style="fill:#82aec0"/><path d="M87.5 32.6c-.2-1.1-2.1-2.2-4.2-2.5-5.7-.8-9.4-.4-17.8 3.6l-3.8.2 2-1c-6.2-3-19-3.3-22.4-1.4-3 1.6-.2 3.5-.2 3.5h45.5s1.1-1.5 1-2.4" style="fill:#f5f5f5"/><path d="M85.9 57.2s-12.5-1-23.5-1-20.6 1-20.6 1q-1.3-.2-1.5-1.5V36.2q.1-1.3 1.5-1.5s8.4-.9 20.9-.9 23.2 1 23.2 1q1.3.1 1.4 1.4v19.6q-.1 1.3-1.4 1.5" style="fill:#82aec0"/><path d="M40.6 45.3s12-.7 23-.7 23.8.7 23.8.7" style="fill:none;stroke:#2167a1;stroke-width:3;stroke-linecap:round;stroke-miterlimit:10"/><path d="M60.1 44.3s.6-2.8 3.2-2.8c2.5 0 3 3 3 3l2.8.2s-.6 3.5-4.5 3.8c-5 .4-4.5-4.2-4.5-4.2" style="fill:#2167a1"/><path d="M81.4 95a.3.3 0 0 1-.4-.4c.5-1.3 1.4-5-.8-8.7q-.5-.6-1 0-.5 1.1-1.3 1.6c-.3.4-.9.1-.9-.4q0-.8.5-1.8.1-1-.7-.8c-1.5.4-4.2 1.6-6 5.5l-.4 1.6q-.1.3-.4.2a10 10 0 0 0-9.2-2.4q-.7.3-.3 1 .9.8 1.2 1.7.1.8-.7.7-.8-.3-1.7-1-.6-.3-.9.4c0 1.6.2 4.5 3.5 7.4q1.2 1 2.6 1.5v.3a8 8 0 0 0-2.7 1.3c-3 2.3-4 5.7-4.2 7.4q.1.8.8.6 1-.5 2-.6.9.2.5.9l-1.5 1.3q-.5.4.1 1c1.5.5 4.4 1.1 8.1-1a8 8 0 0 0 3.5-4.5s.2-.2.2.3q-.2 1.7.4 4c1.2 3.6 4 5.3 5.6 6.1q.7.2.7-.6v-2c.2-.5.8-.7 1-.3q.6.7.8 1.8.3.7 1 .2c1-1.2 2.5-3.8 1.5-8a7 7 0 0 0-1.4-3q-.1-.2.1-.3c.8 0 2.5.1 3.6-.2q1.5-.5 2.5-1.1V96q-1.6-.8-4-1.1z" style="fill:#fce4ec"/><path d="M76 100.6a5 5 0 0 1 1.6-2.7v-.2c-1 .5-2.5 1.1-3.5.8s-1.8-1.5-2.2-2.4q-.1-.1-.2 0c.2 1.2.7 2.4-.1 3.4s-2.1 1-3 1v.3c1 .2 2.2.7 2.7 1.4.7.9.4 2.7.3 3.3q0 .4.2.1c.2-.3.7-2 2.4-2.4 2-.6 3.5.7 3.8.9q.4.1.1-.2c-.6-.6-2.2-2-2-3.3" style="fill:#f48fb1"/><path d="M69 96.6a1 1 0 0 0-1.4.7 1 1 0 0 0 .7 1.3 1 1 0 1 0 .6-2m4.1-3.9a1 1 0 0 0-1.1.6q-.3.9.6 1.1t1.1-.6a1 1 0 0 0-.6-1.1m3.3 2a1 1 0 0 0-1.3.7q-.3 1 .7 1.3c1 .3 1.1-.1 1.3-.7a1 1 0 0 0-.7-1.3m3.2 5.7a1 1 0 0 0-1.3.7 1 1 0 0 0 .7 1.3q.9.1 1.3-.7c.4-.8-.2-1.2-.7-1.3m1-3.3a1 1 0 0 0-1.1.6q-.3.8.6 1.2.8.1 1.1-.6a1 1 0 0 0-.6-1.2m-4.2 8.2a1 1 0 0 0-1.3.7q-.3.9.7 1.3c1 .4 1.1-.2 1.3-.7a1 1 0 0 0-.7-1.3m-7.5.5a1 1 0 0 0-1.1.6q-.3.8.6 1.1t1.1-.6a1 1 0 0 0-.6-1.1m-.9-3.9a1 1 0 0 0-1.3.7q-.2.9.7 1.3c.9.4 1.1-.2 1.3-.7a1 1 0 0 0-.7-1.3" style="fill:#ec407a"/><path d="M9.6 24.8c.8 1 4 3.7 8.5 2a6 6 0 0 0 3.4-2.8l.3.1q-.5 1.5-.1 3.4c.8 3.7 3.1 5 4.6 6q.8.3.8-.4 0-1.3.3-2.1.5-.7 1 0t.6 1.7c0 .5.6.7.9.4 1.2-1.1 2.8-3.5 2.4-7.8q-.3-2-1-3-.2-.4.3-.4 1.3.4 3.6 0c3.4-.8 4.2-3.5 5.3-4.4q.5-.6-.2-1l-2.6-.7c-10.5 4.3-18 6.1-27 7.8-.6.4-1.3 1-1.1 1.2" style="fill:#fce4ec"/><path d="M22 23c.5 0 1.5-1.7 4-2.1 1.7-.3 3.4.2 4.3.6q.4 0 .3-.3s-1-.8-1.4-2.2l-6.7 2c0 1.2-.8 1.9-.4 2" style="fill:#f48fb1"/><path d="M32.2 18.7a1 1 0 0 0-1.2.5q-.3.8.5 1.3.8.3 1.2-.5t-.5-1.3" style="fill:#ec407a"/><circle cx="25.4" cy="23.8" r="1" style="fill:#ec407a"/><ellipse cx="28.9" cy="24.6" rx=".9" ry="1" style="fill:#ec407a"/><path d="M18 22.7q0 .9 1 1 .7 0 1-.8 0-.9-.9-1h-.6a1 1 0 0 0-.4.8" style="fill:#ec407a"/><path d="M121.6 55q-.8-.2-1.7-.2l.7-1a9 9 0 0 0 .6-6.8q-.2-.6-.8-.2-.5.8-1.2 1.1a.4.4 0 0 1-.7-.4q.1-.8.7-1.4.3-.6-.4-.7c-1.3 0-3.6.6-5.5 3.4a6 6 0 0 0-1 2.7q-.4-1.2-1.5-2.5a9 9 0 0 0-6.3-2.6q-.5.1-.3.7l.6 1.5q0 .7-.6.5l-1.2-1a.4.4 0 0 0-.7 0c-.4 1.3-.6 3.7 1.5 6.4a7 7 0 0 0 4.6 2.5 7 7 0 0 0-4 .5 9 9 0 0 0-4.4 5.2q0 .5.5.5l1.7-.2c.3 0 .5.6.2.8l-1.3.8q-.5.2-.1.7c1 .8 3.3 1.7 6.4.5q1.7-.6 2.6-1.6v1.2a9 9 0 0 0 3.5 5.8q.6.3.7-.3 0-1 .4-1.6.3-.6.7 0t.4 1.5q.1.5.7.3c1-.8 2.5-2.6 2.4-6q0-1-.3-1.7l.7.1q2.4.3 4.3-.3l.4-7.2z" style="fill:#fce4ec"/><path d="M117.2 55.8c-.8.3-2.4 1-3.4.2-1-.6-1.3-2-1.3-2.4q-.1-.4-.2 0c0 .4 0 2-1 2.9-.6.5-2 .5-2.3.5q-.5.1 0 .3s1.6.6 2.1 1.7-.4 3-.5 3.4q-.2.5.3.1c0-.2 1.1-2 2.6-2 1.5-.2 2.8.9 2.8.9q.7.2.3-.3s-1.8-1.4-1.5-2.8c.3-1.5 2-2.2 2.3-2.3q.2-.2-.2-.2" style="fill:#f48fb1"/><path d="M115.4 53.4a.8.8 0 1 0-.3 1.7.8.8 0 0 0 .3-1.7m3.6 2.8q-.7 0-.8.6 0 .6.5.8.7 0 .9-.6 0-.6-.6-.8m-1.1 2.3a.8.8 0 1 0-.3 1.6.8.8 0 0 0 .3-1.6" style="fill:#ec407a"/><circle cx="112.7" cy="63" r=".7" style="fill:#ec407a" transform="rotate(-7.7 112.64 63)"/><circle cx="115.5" cy="63.7" r=".8" style="fill:#ec407a" transform="rotate(-7.7 115.42 63.69)"/><circle cx="109" cy="60.1" r=".8" style="fill:#ec407a" transform="rotate(-7.7 108.93 60.13)"/><circle cx="107.4" cy="54.8" r=".7" style="fill:#ec407a" transform="rotate(-7.4 107.39 54.74)"/><path d="M110.3 53.1a.8.8 0 1 0-.3 1.7.8.8 0 0 0 .3-1.7" style="fill:#ec407a"/><path d="M28 43.4q-.7 0-1.2-.2-.4-.1 0-.6.3-.2 1-.3.5-.2.2-.5c-.6-.7-2-1.7-4.5-1.4q-.8 0-1.3.4v-.5c.2-2.2-.9-4-1.6-4.7a.3.3 0 0 0-.5.1q-.2.7-.5 1.1-.4.3-.6-.1v-1.1q0-.5-.4-.4c-.9.4-2.3 1.5-2.7 4v1.2l-1-.4c-2-.9-4-.3-4.9 0q-.4.4 0 .6l.9.9q.2.4-.3.5l-1-.4q-.5-.2-.6.4a5 5 0 0 0 3 3.7q1.7.6 1.9.5c.2 0-.7.4-1.6 1.3a7 7 0 0 0-1.4 4.8q.1.5.5.2l1-.6q.6 0 .5.4l-.7 1q-.2.3.2.5a5.5 5.5 0 0 0 6-4.5s0 1.2.6 2.2c1.2 2 3 2.6 4.1 2.9q.5 0 .4-.5l-.3-1.2q.1-.5.6-.2t.6.9q.4.3.6 0a5 5 0 0 0-.1-4.7c-.5-1-1.4-1.7-1.4-1.7l.9-.2a7 7 0 0 0 4-3q0-.4-.4-.4" style="fill:#fce4ec"/><path d="M15.5 46c0-.3 1.5-.3 2-1s-.8-2.7-.6-2.8 1 1.6 1.9 1.6c1 .1 2-1.5 2.2-1.3s-1 1.2-.8 2.2 2.2 1.6 2 1.9c0 .2-1.8-.5-2.6-.1s-.8 1.7-1.1 1.7-.1-1.4-.7-1.9-2.3 0-2.3-.3" style="fill:#f48fb1"/><circle cx="15.5" cy="44" r=".6" style="fill:#ec407a"/><circle cx="17.6" cy="40.6" r=".6" style="fill:#ec407a"/><circle cx="19.3" cy="42.2" r=".6" style="fill:#ec407a"/><circle cx="22.3" cy="45" r=".6" style="fill:#ec407a"/><circle cx="22.6" cy="43" r=".6" style="fill:#ec407a"/><circle cx="20.6" cy="48" r=".6" style="fill:#ec407a"/><circle cx="16.5" cy="49.2" r=".6" style="fill:#ec407a"/><circle cx="15.6" cy="47.4" r=".6" style="fill:#ec407a"/><path d="m60.8 77.3-1.7-.8q-.3 0 0-.3a7 7 0 0 0 2.7-4.7q0-.5-.4-.3l-1.2.4q-.5-.1-.3-.5l.8-.8q.3-.3 0-.6c-3-.6-5 1-5.5 1.5l-.3-.1c-.3-.8-1.3-3.2-3.5-3.8q-.5-.1-.5.4v1.2q-.2.4-.5.1l-.5-1q-.2-.4-.5-.1-1.3 2.2-.7 4c.2 1.4 1 2.4 1 2.5s-1-.3-2.8 0q-1.7 0-3.2 1.5-.1.4.2.5.8 0 1.2.4.3.3 0 .6l-1.2.1q-.4.1-.3.5c.6.8 1.8 2 4.2 2.2q1.3 0 2.2-.4-.7.6-1 1.8c-.6 2.2.2 4 .7 5q.2.2.5 0 .4-.8.7-1 .5-.3.6.1t-.2 1.1q-.1.5.4.5c3.6-1.3 3.6-4.8 3.5-6.1q.1-.3.2-.1c.7.8 2.8 2.8 6.2 2.1q.4-.1.1-.5l-.7-1q-.1-.5.4-.4t1 .5q.4.2.5-.2c0-1-.2-2.7-2.1-4.3" style="fill:#fdf0f7"/><path d="M51 78.9c-.2-.2 1.4-1 1.5-1.8 0-.9-1.5-2-1.4-2.1s1.6.8 2.3.5c.8-.4 1-1.5 1.2-1.5s-.2 1.3.3 2 2.2.3 2.2.5-1.7.4-2.2 1.1c-.4.6.1 2.1-.1 2.1s-.6-1.2-1.4-1.5c-.9-.2-2.3.9-2.4.7" style="fill:#f48fb1"/><circle cx="50.5" cy="77.1" r=".6" style="fill:#ec407a"/><circle cx="51.1" cy="73.6" r=".6" style="fill:#ec407a"/><circle cx="53.4" cy="73.6" r=".5" style="fill:#ec407a"/><circle cx="56.4" cy="75.1" r=".5" style="fill:#ec407a"/><circle cx="56.2" cy="73" r=".6" style="fill:#ec407a"/><circle cx="56.7" cy="78.6" r=".6" style="fill:#ec407a"/><circle cx="53.7" cy="81.3" r=".6" style="fill:#ec407a"/><circle cx="52.1" cy="79.8" r=".5" style="fill:#ec407a"/><path d="M57 122.9c.1-.2 1-.5 1.8-.5q.4 0 .3-.4c-.6-2-2.4-3.7-4.3-4.5a10 10 0 0 0-5.8-.6l-.2-.4a9 9 0 0 0 1.8-2.7c1-2.6.2-5.4-1.2-7.6q-.6-.6-1 0-.7 1-1.4 1.6c-.3.3-.9 0-.8-.5q0-.8.4-1.8.3-1-.5-.8a8 8 0 0 0-5.2 3.6V120q0 1.3 1.3 1.7c2.3.5 7.8 1.6 15.8 2q-1-.8-1-1" style="fill:#fce4ec"/><path d="M45.1 120.4c.3-.6 1.4-2 1.6-2.1q.2-.4-.2-.3c-.8.5-2.8 1.2-4.2.7a3 3 0 0 1-1.4-1.2v2.6q0 1.3 1.3 1.6l3 .6q-.5-.9-.1-1.9" style="fill:#f48fb1"/><path d="M43 111.8a.8.8 0 1 0-.6 1.5.8.8 0 0 0 .5-1.5m1.4 3.5a1 1 0 0 0-1.3.6 1 1 0 0 0 .6 1.3 1 1 0 0 0 1.4-.6 1 1 0 0 0-.7-1.3m5.1 5.1q-.7-.3-1 .5t.5 1 1-.5-.5-1" style="fill:#ec407a"/><path d="M105.6 35c.8-.7 1.7-2.2 1-3.1-.8-1-2.4-.5-3.4.3-.5-1-1.6-2.4-2.8-2-1 .4-1.2 2.1-.7 3.3-1.1.2-2.8.8-2.8 2 .1 1.2 1.6 1.8 2.9 1.8-.3 1-.2 3 1 3.3s2.3-1.2 2.6-2.5c1 .6 3 1.2 3.6 0 .7-.9-.3-2.4-1.4-3" style="fill:#fdf0f7"/><path d="M108 78.3c.8-.8 1.7-2.3 1-3.2-.8-.9-2.4-.4-3.4.4-.5-1-1.7-2.5-2.8-2s-1.2 2-.8 3.3c-1 .1-2.7.8-2.7 2s1.6 1.7 2.9 1.7c-.3 1.1-.2 3 1 3.3s2.3-1.2 2.6-2.5c1 .6 2.9 1.3 3.6.1.6-1-.3-2.4-1.4-3.1m-84.6-9.6c.7-1 1.4-2.6.5-3.4s-2.4 0-3.3.8c-.6-.9-2-2-3-1.4-1 .5-.9 2.1-.3 3.2-1 .3-2.7 1.2-2.5 2.5.3 1.2 2.2 1.5 3.4 1.2 0 1 .3 3 1.6 3.2 1.1.1 2-1.4 2.1-2.7 1.1.4 2.8.5 3.3-.6.5-1-.7-2.3-1.8-2.8M116.7 88c.5-.5 1-1.6.3-2.2-.5-.5-1.6 0-2.2.6-.4-.6-1.3-1.5-2-1-.7.3-.6 1.4-.2 2.2-.7.2-1.9.8-1.7 1.7s1.5 1 2.3.8c0 .7.2 2.1 1.1 2.2.8 0 1.4-1 1.5-1.8.7.2 1.8.3 2.2-.5.3-.7-.5-1.5-1.3-2" style="fill:#fce4ec"/><path d="M72.9 75.6c.4-.5 1-1.7.3-2.3s-1.6 0-2.2.6c-.4-.6-1.4-1.4-2-1s-.6 1.5-.2 2.3c-.8.1-1.9.8-1.7 1.6s1.4 1 2.3.8c0 .8.2 2.2 1 2.2.8.1 1.4-1 1.5-1.8.7.2 1.9.3 2.2-.4s-.4-1.6-1.2-2" style="fill:#fdf0f7"/><path d="M14.6 59.9c.5-.6 1-1.7.4-2.3s-1.7 0-2.3.6c-.4-.6-1.3-1.4-2-1s-.6 1.5-.2 2.2c-.7.2-1.9.8-1.7 1.7s1.5 1 2.3.8c0 .7.2 2.1 1.1 2.2.8 0 1.4-1 1.5-1.8.7.2 1.8.3 2.2-.5.3-.7-.5-1.5-1.3-1.9" style="fill:#fce4ec"/></svg>