<svg xml:space="preserve" width="16" height="16" viewBox="0 0 128 128"><path d="M114.3 8.7C93-4 69.3 17 63 33.1s3.8 27 3.8 27S35.3 93 33.1 93.7l.8 3.7 34.6-34.2s5.8 5.6 15.6 5.2c17.4-.5 25.6-9.8 29.4-14 4-4.3 9-11.5 10.2-22.6.9-8.3-.5-17.8-9.4-23.2m-7.2 47c-12.5 11-25.3 9.5-29.9 7-4.5-2.3-5.6-4-7.3-5.8-1-1.2-6.2-7-4.4-18.6a34 34 0 0 1 11.3-19.4c6.4-6.4 24.5-16.3 37.3-4.5 11 10.2 5.4 30.3-7 41.3" style="fill:#168dfc"/><path d="M112 48.4c-10.3 14.2-29.7 20.2-40.4 10.2L70 56.9s-.7.5-2.3 0-4.7-4.8-5.1-10.6c-.8-12.4 3.3-20.5 12.2-28.7 13.4-12.4 31.8-14.1 41-3.4 3.7 4.5 7.8 18.7-3.6 34.2m10.7-27.6c-.4-3-2.2-7-5-9.6-14.5-13.9-35-4.7-44.7 4.2a37 37 0 0 0-13.4 26.8c-.8 11 5 17 5 17L31 92.4l.6 4.7 36.7-36.5s4.9 5.2 15.8 5.7a36 36 0 0 0 24.2-9.7c7.9-7 16-19.6 14.3-35.9" style="fill:#05bef2"/><path d="M58.6 62.5c0 .7 5.8 6.3 6.6 6.3s4.4-3.7 4.4-4.1S63.9 58 63 58c-1 0-4.2 3.3-4.4 4.4M28 92.6s-.3-1 .8-2c1.2-1.3 2.5-.7 5.5 2.6 3.2 3.3 4 4.4 2.9 5.9-1.1 1.4-2.5 1-2.5 1l-20.4 20.4s.2 1.9-1.1 2.8c-1 .7-2.6.4-2.6.4L4 117s-.4-1.6.6-2.7 2.7-.7 2.7-.7z" style="fill:#62666a"/><path d="M30.9 94.6c-.6-.4-1.9-.1-2.6.8s-.3 2.2-1 2.7-2.3.5-3.8 2-1.3 3.9-2.4 5c-1.2 1-3.3 1-4.4 2.1-1.7 1.7-1.8 4.1-2.8 4.9-.9.7-2.6.4-3.6 1.3s-1.5 3.2.3 3.9 1.7-1.3 3-1.6c1.2-.4 2.3-.6 3.4-2 1-1.5.9-2.9 2-4 1.1-1 3-1 4.3-2.1s1.1-3.7 2.6-5c1.6-1.4 2.3-.6 3.5-2s.9-2.8 1.8-3.3 1-2-.3-2.7" style="fill:#858485"/><path d="M104.4 56.3 71.5 23.5A1 1 0 1 1 73 22l33.1 32.9-.9.7zm6.7-6.6L77.6 16.5a1 1 0 0 1 0-1.4 1 1 0 0 1 1.5 0l33.3 32.8-.6 1zM95.9 61.2 66.7 31.1a1 1 0 0 1 0-1.5 1 1 0 0 1 1.5 0L98 60.3l-1 .5zM85 63.5 64.3 41.6a1 1 0 1 1 1.5-1.4s21.7 22.6 21.6 22.7-.3.5-1.1.5zm31.2-21.8-30-29.3a1 1 0 0 1 0-1.4 1 1 0 0 1 1.6 0L117 39.7l-.4.8zm3-9.7L97 9.5A1 1 0 1 1 98.5 8l21 21.1s0 1.7-.3 2.9M65 37.8l-.7-.3a1 1 0 0 1 0-1.4L91.8 8.7a1 1 0 0 1 1.4 0q.7.7 0 1.5L65.8 37.5zm.3 11.3-.8-.3a1 1 0 0 1 0-1.5l39.2-39a1 1 0 1 1 1.4 1.4l-39 39a1 1 0 0 1-.8.4m4.2 8.4-.7-.3a1 1 0 0 1 0-1.5l42.6-43.3a1 1 0 0 1 1.5 0q.6.7 0 1.4L70.2 57.2zm5.7 3.7 42.4-42.5.5.6c.3.5.5 1.4.5 1.4L77.2 62.2l-1-.5zm9.8 2.3 34.6-36-.2 3.3-31 32.5s-1.5.2-3.4.2" style="fill:#b9ced4"/><path d="M35.4 14.4c-.7-.3-25.7-.6-25.7-.6s-2.3.2-3.4 2.5-.5 4.2-.5 4.2-2.4 1.3-2.2 5.4c0 2.5 2 4.3 2 4.3s-1.3 2.1.2 5.4C7 38 10 38.4 10 38.4s-.2 2.5 1.2 4c2 2.2 4.6 1.5 4.6 1.5s.8 2.3 3.6 3 5.1-1.9 5.1-1.9l15.8-17.1L37 21z" style="fill:#e1f7fe"/><path d="M36.8 13.5s2.9-1.3 5.8-1c2.9.2 4.3 1.7 5.4 4.2 1.3 2.8 1.6 5 .1 7.3-1.7 2.9-5.6 3.5-5.6 3.5s-3.2-.6-4-1.7c-.9-1.1-3-6.6-3-8.1-.3-3 1.3-4.2 1.3-4.2" style="fill:#e1e1e1"/><path d="M44.8 14.8c-1.4-1.5-4.7-.2-5.5 2.9s1.3 5 2.8 4.7c1.6-.3 1.2-3.2 2-4.2s1.8-2 .6-3.4" style="fill:#fff"/><path d="M6.4 21.1H6a1 1 0 0 1-1-1q.1-1 1-1l11.7-1c7.5-.7 16.9-2 17-2.1a1 1 0 0 1 1.2.9 1 1 0 0 1-1 1.2l-17 2c-6 .6-10.3 1-11.5 1m-.9 9.7s-1 .2-1.2-.8c-.3-1 .6-1.2.6-1.2l15-4.9 15-4.9a1 1 0 0 1 1.3.7 1 1 0 0 1-.7 1.3zM9.9 39a1 1 0 0 1-.5-2s6.6-4.1 13.8-8.2c7-3.9 12.6-6.7 12.6-6.7a1 1 0 0 1 1 1.8 350 350 0 0 0-27 15m6.7 6.1a1 1 0 0 1-.7-1.9L26.6 34l10.6-9 1.4 1.6-10.7 9z" style="fill:#aae2f9"/><path d="m37 13.4-2.9.8s-1.2 2.4 1 7.8c1.7 4.6 4.5 6.8 4.5 6.8l3-1.3s-2.9-2.8-4.4-6.7-1.2-7.5-1.2-7.5" style="fill:#fd1b0d"/></svg>