<svg xml:space="preserve" width="16" height="16" viewBox="0 0 128 128"><path d="M13.6 15.9c-.2-1.3-.4-6.9-5.3-6.4-4 .4-3.8 4.8-3.4 6.8l13.4 105.3c.2 1.5 2.3 3 4.6 2.7s3.7-2 3.7-3.7c0-1.4-12.8-103-13-104.7" style="fill:#b0b0b0"/><path d="M21.4 116.3q-1 0-1.2-1L7 14a1.2 1.2 0 1 1 2.5-.3l13 101.1q.1 1.2-1 1.4z" style="fill:#c8c8c8"/><path d="m16 14.2-2.4 1.7s8 70.3 8.2 70.4c.3.1 17.5-12.9 32.2-13 13.5 0 17.4 6.1 38 6.9 11.6.4 24-7.3 24-7.3z" style="fill:#9b9b9b"/><path d="m16 18.1-.4-3.6s10-8.2 22.7-7.5 25.5 12.1 43.5 10.2C92.4 16 98.3 11 98.3 11l12.8 4.6 9.4 39.2-10.2 9.8s-77.7-27.1-78.4-28z" style="fill:#dacec9"/><path d="M17.9 27.8 15.2 30l1.4 12.8L20 40zm2.6 26.7L18.2 56l1.6 14.2 3.9-2.3zm17.1 19.3.4 3.4s6.2-2.7 11.5-3.4c4.4-.5 7.7-.4 7.7-.4l-.5-3-11.3-.7zm36.6.6.6 3.3s2.5.8 7.2 1.6c5.8 1 9.5 1 10 1l-.6-5L81 72.7zm33.6-.8.5 3.1s4-1.3 8.9-4.2a36 36 0 0 0 6.4-4.4c0-.3-.6-3-.8-3.3 0-.5-1.2-1.4-1.2-1.4z" style="fill:#2f2f2f"/><path d="m23.7 81.2-7.7-63s9.5-9.6 23.2-7.7 29.1 11.3 42.6 9.4a55 55 0 0 0 23.5-9.6l2.2 2.4L118.7 59l-11 14.6s-7.6 3.6-18 3C68 75.4 66 69 49.5 70.6A47 47 0 0 0 37 74.2c-7.8 3-13.3 7-13.3 7" style="fill:#f1edec"/><path d="M28.2 8.2 30 21.8s-4.5 1.3-7.8 3c-2.5 1.4-5 3.5-5 3.5L18.8 41s3-2 6.6-3.7c2.4-1.1 5.9-2 5.9-2l2 13s-4.6 1.5-7.3 3l-5.5 3.2 1.7 14.4s4-2.5 6-3.4c3.1-1.6 7.7-3.3 7.7-3.3l1.7 11.6s6-2.1 9.8-2.8c5.4-.8 9.3-.6 9.3-.6l-1.6-10.7s3.8-.2 8.4.8l8.6 2 2.2 11.9s2.8.9 8 1.6 9.3.7 9.3.7L90 64.9s4.1-.3 7.9-.9c3.7-.5 7.7-1.9 7.7-1.9l2.2 11.5s4.2-1.9 8-4a77 77 0 0 0 7-4.9l-2.3-9.9s-4.1 2.4-6.8 3.7a72 72 0 0 1-7.8 3.3l-2.3-12.5s4.4-1.8 7.1-3.2c3.1-1.5 6.8-4 6.8-4L114 28s-3.6 2.3-6.8 4.1c-2.7 1.5-6.2 3.3-6.6 3.2s-2.7-10.8-2.6-11c0-.2 3.2-1.6 7.5-4.4a57 57 0 0 0 5.5-4.4l-2.1-11c-.3-1.1-1.4-1.8-2.5-.7L100.7 9c-1.4 1.2-5.2 3.8-5.2 3.8s2.2 10.9 2 11.1a25 25 0 0 1-7.4 2.4c-4.6 1-7.6 1.1-7.6 1.1l-1-5.2-1.1-5s-3.7.3-9-.4c-4.2-.5-8.1-2-8.1-2s.8 2.3 1 4.8l1 5.6s-3.8-1.5-8.2-2.6-8.7-1.5-8.7-1.5l-.8-7.4-.4-4.8S42.5 7.2 38 7c-5.2-.3-9.7 1.2-9.7 1.2" style="fill:#434343"/><path d="M30.3 22.3c0 .3 1 12.2 1.2 12.3s4.6-.8 8.9-1.2 10 0 10 0l-2-12s-5.4-1-9.5-.7c-4 .1-8.6 1.4-8.6 1.6m3.5 26.2 2.1 13.3s4-1.6 9.1-2.2 9.8-.3 9.8-.3l-2.4-12.7s-5.2-.7-9.8-.3c-5.4.5-8.8 2.2-8.8 2.2M50.7 34l2 12.1s5.3.6 8.2 1.1c3 .6 8.3 1.7 8.4 1.6a96 96 0 0 0-1.8-11.6c-.4-.4-4.7-1.3-8-2s-8.8-1.6-8.8-1.3m15.2-8.3c-.1 0 1.4 10.8 1.8 11.3s5.4 1.3 8.1 1.7c4 .5 9 .6 9.1.5.2-.2-2.4-11.2-2.4-11.2-.2-.3-2.7.1-7.9-.4s-8.6-2-8.7-1.9m19.4 13.7L87.6 52c.3.4 4.5-.2 7.6-.8 4.6-.8 8-2.1 8-2.1l-2.6-12.9c-.1 0-3.4 1.5-8 2.3s-7.1.6-7.3.8m-15.5 10 2.4 13c0 .3 4 1.2 7.9 1.8 4.4.6 9.8.8 9.8.8L88.3 57l-1-4.8-9-1c-4.3-.7-8.5-1.9-8.5-1.9" style="fill:#f1edec"/></svg>