<svg xml:space="preserve" width="16" height="16" viewBox="0 0 128 128"><path d="M64.8 28.2C36.2 28.4 4.1 41 3.6 69.8c-.2 10.8 4.3 21 15.5 29.9 10.5 8.3 23.8 12.5 43.7 12.7 30.1.2 47.1-10.7 55.3-22.2a34 34 0 0 0 6.3-21.5c-.8-23-29.6-40.7-59.6-40.5" style="fill:#d4d4d4"/><path d="M64.8 28.9C35.5 28.4 6.9 39 6.5 66.7a32 32 0 0 0 7.3 21.4c10.6 12.7 26.4 20 51 19.8 19.4 0 35.3-5.7 45-15.3 7.4-7.1 12.4-15.7 11.6-26.3C120 42.8 99.1 29.4 64.9 29" style="fill:#f6f6f6"/><path d="m70.2 56 31.6-.4s5.4 4.2 5 14c-.3 8.8-7.5 27.1-44.3 26.5-37-.7-41.8-27.9-41.8-27.9s5.4-10.7 10.8-10.7S70.2 56 70.2 56" style="fill:#af5711"/><path d="m38 57.4-13.8-2.2s-4.7 5-5 12.8c0 7 3.8 18.2 24.3 25.3A67 67 0 0 0 68.2 96c2.5-.3 2.7-4.2-1.5-4-3.5 0-11.7.5-21.7-2.8-8.9-3-20.6-9.2-22-18.3-1.5-10.4 15-13.5 15-13.5" style="fill:#cf701d"/><path d="m39 27.4-9.9 3.2s-.9 2.4-1.6 6c-.4 1.9 2.1 16.8 2.1 16.8l46 32.6 4.2 1.4s9.6-2.2 16.6-9.3c6-6.1 6.2-12.3 6.4-14.3a90 90 0 0 0-1.9-17.8c-1.3-6.4-3.4-16.2-5.1-18.6s-31.3-5-31.3-5z" style="fill:#f5b03e"/><path d="M65.8 56.6a28 28 0 0 1 5.6-3.5l4-.4c1.5-.2 3.7-.8 3.7-.8l1.6 35.3s-2.6.7-4.4.9l-5.3.5c-1 0-4.6-10-4.6-10z" style="fill:#f7c876"/><path d="M23.3 67.5c0 3.3 2 9 13.4 15.4 15 8.6 35.5 5.6 35.5 5.6L71.7 64l-.2-10.8S51.4 55 37.3 47.7C25 41.2 28 34.2 28 34.2s-2.4 9.2-3.3 17.2c-.8 7.4-1.4 12.4-1.4 16.1" style="fill:#fbdf96"/><path d="M63.1 15.8c-19-.4-34 7.1-34.4 17.2-.3 11 17 16.6 36 17 20.6.6 33.6-10 32.5-18.6-1.2-9.6-14.7-15.3-34-15.6" style="fill:#e07f14"/><path d="M84.7 23.3c-2.2 2.3 2 2.9 1.5 8-.6 6.2-8.1 8.6-8 10.9.4 3.3 13.7-1.5 14.7-10.5 1-7.8-6.9-9.8-8.2-8.4" style="fill:#fff"/><path d="M76 42.6c.9 1.6-4.3 4-14.3 4-13.8-.2-26-6-25.8-7.4s7.7 3.4 24.5 3.6c12 .2 14.9-1.5 15.6-.2" style="fill:#ffba02"/></svg>