<svg xml:space="preserve" width="16" height="16" viewBox="0 0 128 128"><radialGradient id="a" cx="63.6" cy="-7019.5" r="57" gradientTransform="matrix(1 0 0 -1 0 -6956.56)" gradientUnits="userSpaceOnUse"><stop offset=".5" style="stop-color:#fde030"/><stop offset=".9" style="stop-color:#f7c02b"/><stop offset="1" style="stop-color:#f4a223"/></radialGradient><path d="M63.6 118.8c-27.9 0-58-17.5-58-55.9S35.7 7 63.6 7c15.5 0 29.8 5.1 40.4 14.4 11.5 10.2 17.6 24.6 17.6 41.5s-6.1 31.2-17.6 41.4a61 61 0 0 1-40.4 14.5" style="fill:url(#a)"/><linearGradient id="b" x1="63.6" x2="63.6" y1="-7075.4" y2="-6963.6" gradientTransform="matrix(1 0 0 -1 0 -6956.56)" gradientUnits="userSpaceOnUse"><stop offset=".2" style="stop-color:#f4a223"/><stop offset=".3" style="stop-color:#f7c02b"/><stop offset=".8" style="stop-color:#fde030;stop-opacity:0"/></linearGradient><path d="M63.6 118.8c-27.9 0-58-17.5-58-55.9S35.7 7 63.6 7c15.5 0 29.8 5.1 40.4 14.4 11.5 10.2 17.6 24.6 17.6 41.5s-6.1 31.2-17.6 41.4a61 61 0 0 1-40.4 14.5" style="fill:url(#b)"/><path d="M111.5 29.7a57 57 0 0 1 8.1 30.2c0 16.9-6.1 31.2-17.6 41.4a61 61 0 0 1-40.4 14.5c-18 0-37-7.3-48.2-23a58 58 0 0 0 50.2 26c15.4 0 29.8-5.2 40.4-14.5a54 54 0 0 0 17.6-41.4q-.1-19.2-10.1-33.2" style="fill:#eb8f00"/><path d="M44 41c-4.2 0-8 3.5-8 9.4s3.8 9.4 8 9.4 8-3.6 8-9.4-3.8-9.5-8-9.5" style="fill:#422b0d"/><path d="M43.7 44.9c-1-.8-2.6-.5-3.6 1-1 1.4-.7 2.9.3 3.6s2.6.5 3.6-1 .7-3-.4-3.6" style="fill:#896024"/><path d="M82.4 41c-4.2 0-8 3.5-8 9.4s3.8 9.4 8 9.4 8-3.6 8-9.4-3.8-9.5-8-9.5" style="fill:#422b0d"/><path d="M82 44.9c-1-.8-2.6-.5-3.6 1-1 1.4-.6 2.9.4 3.6s2.6.5 3.6-1c1-1.4.6-3-.4-3.6" style="fill:#896024"/><radialGradient id="c" cx="64.5" cy="-4876.9" r="65.3" gradientTransform="matrix(1 0 0 -1 0 -4800.56)" gradientUnits="userSpaceOnUse"><stop offset=".3" style="stop-color:#fff176"/><stop offset="1" style="stop-color:#ffc400"/></radialGradient><path d="M96.3 81.9c-2.2-3.2-8 0-8 0l5.5-5c1.6-1.5 3-4.8 1.7-7s-5.1-2-7-.9l-7.3 4.5s2.7-1.2 3.6-6a3.6 3.6 0 0 0-3.6-4.4q-2.7.2-4.8 1.8C71 68.7 56.9 78.3 53.8 78c-1.3 0 .3-3.9 2.6-6s4.9-7.3 3.4-10.7c-.8-2-4.3-3.4-5.5-1.5-1 1.4-4.5 6-8 9.5-3.6 3.4-9.5 11.2-10 12-3.7 5.5-10.2 18-3 29.5 6.5 10.3 21.2 10.7 28.7 8a122 122 0 0 0 27.9-15c2.6-2.1 5-5.2 4-8-1.4-3.4-5.8-1.4-5.8-1.4q3.8-2.3 6.8-5.7c1.8-2.4 3-4.7 1.4-6.8" style="fill:url(#c)"/><path d="M96 89.6c1.2-1.6 4-5.1 1.6-8.6Q96 79.1 94 78.8c2.3-2 4.9-6.6 2.2-10.4-1-1.4-3-2.5-6-1.8-2.3.5-4.2 2.2-4.2 2.2 0-.3 1.8-5.2-4.2-6.4-2.5-.5-5.2 1-6.8 2.3a98 98 0 0 1-19.7 11.5c1.4-2.8 3.8-4.8 5.1-7.3a10 10 0 0 0 .8-7c-.6-3-3.3-4.9-6-4-2.5.7-3.2 3.8-7.5 8.5C40.8 74 30.3 80 30.3 96c0 0 1.7-9.3 6-14.8 4-5.1 10-10.1 13.7-14.2 3.5-3.8 3.5-5.1 4.6-6.1 2-1.7 5.1-.5 4.8 3.2-.3 4.4-2.2 6-4.2 8.5a25 25 0 0 0-3.2 4.7c-.3.9.4 1.8 1.3 1.6 6.1-.8 20.4-10.5 24-12.8a8 8 0 0 1 4-1.5c2.7-.4 2.5 3.4 2.5 3.4-.8 3.2-1.2 3.2-4.4 5.8A109 109 0 0 1 64.2 84s0 1.2 2.4.5 11.7-6.6 16.8-10.6c0 0 6.5-5.6 9.3-4.8s2.5 2.8 1.6 4.6q-1.2 2.8-6.8 7c-6.6 5-16.8 11.8-16.8 11.8s.2 1 2.2.4a112 112 0 0 0 16.6-10.5c1-.8 4.3-1.8 5.6.3.7 1 .5 2.7-2 5.6A91 91 0 0 1 74 102s.5 1 2.7.3 10.8-6 12.2-6.5 2.7-1 3.7.7c1 2.3-.4 4-3.3 6.3-.1.1-13.9 10.9-28.2 15.7-7.6 2.6-16 1.3-25.7-5a27 27 0 0 0 27.4 7 132 132 0 0 0 28.4-15.3c2-1.7 6.4-5.1 4-10.1a5 5 0 0 0-2.4-2.2q1.8-1.5 3.3-3.3" style="fill:#eb8f00"/></svg>