<svg xml:space="preserve" width="16" height="16" viewBox="0 0 128 128"><radialGradient id="a" cx="63.6" cy="2880.9" r="57" gradientTransform="translate(0 -2818)" gradientUnits="userSpaceOnUse"><stop offset=".5" style="stop-color:#fde030"/><stop offset=".9" style="stop-color:#f7c02b"/><stop offset="1" style="stop-color:#f4a223"/></radialGradient><path d="M63.6 118.8c-27.9 0-58-17.5-58-55.9S35.7 7 63.6 7c15.5 0 29.8 5.1 40.4 14.4 11.5 10.2 17.6 24.6 17.6 41.5s-6.1 31.2-17.6 41.4a61 61 0 0 1-40.4 14.5" style="fill:url(#a)"/><path d="M111.5 29.7a57 57 0 0 1 8.1 30.2c0 16.9-6.1 31.2-17.6 41.4a61 61 0 0 1-40.4 14.5 59 59 0 0 1-48.2-23 58 58 0 0 0 50.2 26c15.4 0 29.8-5.2 40.4-14.5a54 54 0 0 0 17.6-41.4q-.1-19.2-10.1-33.2" style="fill:#eb8f00"/><path d="m49.6 54.7-.2.2-.5.5-.7.6-2.2 1.4a10 10 0 0 1-4.4 1H40l-2.9-1a14 14 0 0 1-2.9-2l-.6-.6-.3-.2a3.5 3.5 0 0 0-4.5-.2q-1.5 1.3-.8 3.2l.1.3.5.9a13 13 0 0 0 4 4.3l2.6 1.4 3 1 1.7.2h1.6q1.7 0 3.4-.3a16 16 0 0 0 8.8-5.4l.5-.7.4-.6.4-.8.1-.2c.6-1.4 0-3-1.5-3.7h-.3a4 4 0 0 0-3.7.7m44.9 0-.2.2-.5.5-.7.6a14 14 0 0 1-3.6 2l-3 .4h-1.6l-1.5-.4-2.6-1.3-1.7-1.3-.6-.6-.3-.3a3.5 3.5 0 0 0-4.6-.1q-1.5 1.2-.7 3.2l.1.3.5.9q1.6 2.6 4 4.3a14 14 0 0 0 5.6 2.4l1.7.2h1.7q1.6 0 3.3-.3a16 16 0 0 0 8.8-5.4l.5-.7.4-.6.4-.8.1-.2c.6-1.4 0-3-1.5-3.7h-.3a4 4 0 0 0-3.7.7" style="fill:#422b0d"/><path d="M111.4 103.9c21.3-4.7 14.8-41.1-21.7-36.3-6.4.8-13 5-17.8 9.2-1.1 1-.6 3 1 2.9 15.1-1 14.7 29.4 38.5 24.2" style="fill:#4fc3f7"/><path d="M112.7 74.5q.9.8 1.3 2t-.3 2.2q-1.2 1.2-3.2.8-4.7-.5-8.8-3c-1.5-.9-3.3-2.4-3-4.5.4-1.3 1.7-1.6 3-1.7q6.2 0 11 4.2" style="fill:#b3e5fc"/><path d="M35.6 38.3h.2c2.1-.5 2-3.7-.4-3.7q-3 .1-5.8 1.2c-5 1.8-9 5.5-11.4 10.2q-.6 1.6.9 2.4 1.4.5 2.3-.6a26 26 0 0 1 14.2-9.5m55.9 0q-1.7-.3-1.7-2 .4-1.7 2-1.7 3 .1 5.8 1.2A21 21 0 0 1 109 46q.5 1.6-.9 2.4-1.4.5-2.3-.6a26 26 0 0 0-14.3-9.5m-35.8 61A7 7 0 0 1 50 88.6q4.8-7.2 14-7.3c9.2-.1 10.9 2.5 14 7.3a7 7 0 0 1 .3 7 7 7 0 0 1-6 3.7q-1.2 0-2.3-.4a18 18 0 0 0-12 0q-1 .4-2.3.4" style="fill:#422b0d"/></svg>