<svg xml:space="preserve" width="16" height="16" viewBox="0 0 128 128"><path d="M64.5 22.2c-9.5 0-13 5.6-16.3 12.7-2.5 5.5-4.3 13.6-9.5 20.7S21 71.6 22.4 90.4c1.6 18.8 14.4 32.4 42.2 33 28.5.4 41.6-19 41.3-38.5-.3-16.5-14.8-26-19.7-35-7.5-13.7-4.7-27.5-21.7-27.7" style="fill:#b7d118"/><path d="M57.4 6.3c-.2.8 1.3 7 2 10 1 3.9 2.2 8.8 3 11.2a2.4 2.4 0 0 0 2.5 1.7c1-.1 2.3-.9 2.3-2.3l.1-13 .4-9.8c0-.5-2.5-1-5.4-.5s-4.8 2.3-5 2.7" style="fill:#865c51"/><path d="M55.3 37.9c-2.6-.3-3.3 3-4.3 7s-3.3 9.2-5.8 13c-4.2 6.5-8.5 10-11.1 16.4-2.5 6-2.8 13.8 2.9 14.7 6.5 1 7.4-7.8 8.3-11.5s2.6-7.3 5.3-11.8c2-3.2 6.3-12 7-18.5s.9-9-2.3-9.3" style="fill:#e4f57d"/><path d="M79.3 72c-1.3-1.3-3.2-.8-4 0s-1.3 2.7 0 4c1.2 1.3 3.1.7 4-.2 1-1 1.1-2.8 0-3.9m4.7 3c-1 1.3-.7 3 .2 3.8s2.7.7 3.6-.4c1.1-1.4.4-3.1-.2-3.7-.7-.5-2.4-1-3.5.3m7.5 3.7c-1.4 1.2-.8 3-.1 3.7.8 1 2.6.9 3.6 0s1.1-3 0-3.8a3 3 0 0 0-3.5 0m-13-16c-1 1.1-.8 2.8 0 3.6s2.8 1.3 4-.4c.8-1.3.1-2.8-.7-3.4s-2.5-.8-3.3.2m-8.6.1c-1.3 1.4-.5 3 .3 3.8s2.7 1 3.6 0c1-1 .9-2.6 0-3.7s-3-1.2-4 0m5.8-13.6c-1.2-.6-2.2 0-2.7.8-.5.7-.5 2.2.4 2.7s2.3.7 3-.5c.6-1 .4-2.4-.7-3" style="fill:#e4dc9f"/></svg>