<svg xml:space="preserve" width="16" height="16" viewBox="0 0 128 128"><path d="m79 78.2-13-2.4s-.6.5-2.2 2.4-3.1 5.5-3.1 5.5L29 77.4S14.8 86.6 18.4 105c3.2 16.6 17.6 20.2 25.5 20.4 16.6.3 24.3-12.1 24.3-12.1s16.3 12.1 32 1.6c16-10.7 10.1-31.6 6.4-34.4-3.3-2.4-27.5-2.4-27.5-2.4" style="fill:#af0c1a"/><path d="M44.5 73.1c-14 0-21.5 7.3-22.1 16.6a21 21 0 0 0 21 22c15.6 1 25.7-10.6 24.3-20.3-1.3-8.6-9-18.2-23.2-18.3m34.1 26.2s-1.7-7.1-5-12.9C70.4 80.7 66 75.8 66 75.8s9.1-9.1 22.8-7c13.6 2 19.8 14.5 19.8 14.5s-1.4 11.4-10 16c-12 6.4-20 0-20 0" style="fill:#dc0d27"/><path d="M71.6 75.6c-1.4 1.3 0 6.2 4.4 9.2s8.9 3.7 10.7.5c1.8-3.1-.5-5.4-3.4-6.5-1.8-.8-3.5-.6-5.6-2.3s-4.5-2.4-6-.9M89.3 79c-.8 2 2 4.1 4 3 2.1-1 2.1-3.5-.6-4.3-2.2-.6-3 .4-3.4 1.4M41.4 95.9c1.2 3.1 5.7 1.3 8.1-.2q3.8-2.3 2.6-5.3c-1.2-3-4.2-2.2-7.1-.8-2.4 1.2-4.8 3.2-3.6 6.3M30.8 78.2c-3.9 2.3-4.1 6.6-3.5 8 1.5 3.4 3.3 3.2 4.4 5s2.8 5.3 5.3 5c3.4-.6 3.1-5 2-7.8-.8-2.2-1.8-4.2-2-6.9s-.1-6.9-6.2-3.3" style="fill:#ff605f"/><path d="M15.2 19.6c-1.3 3.4 1 5.8 3.5 7 2.7 1.4 5.7 1.4 5.7 1.4s8.5 10 12.4 22.5a107 107 0 0 1 4.7 27.6c-.3 2.7-.4 5.3.3 6.2 1.3 1.9 4.7 1.5 5.4.2 1-2-.2-6.3-.2-6.3s-.4-15.6-4.3-28-8.9-19.6-8.9-19.6 17 4.6 28 14.7c16.6 15.2 18.4 24.3 18.4 24.3s0 4.5 1.1 5.8c1.1 1.4 6 .5 6.2-1.5.1-2-1.3-5.7-1.3-5.7s-4.1-14.8-22-28.3C48.2 27.8 28.5 23 28.5 23s-2-3-5.2-4.7c-2.9-1.5-7-2-8.1 1.2" style="fill:#759937"/><path d="M26.8 23.3c-.5-1.2 1.5-7.8 11.5-13s21.4-7 36-6.7C91 3.9 98.7 6.4 99 7.4s-7.7 6.5-7.7 6.5l-26.4 7.8-25 3.2z" style="fill:#366918"/><path d="M66.7 29c21-4 32-20.2 32-21.2l-3 .6-25 6.9c-9 2.4-20.5 4.6-24.6 5.1-6 .8-19 3-19 3s15.9 10 39.6 5.5" style="fill:#518e30"/></svg>