<svg xml:space="preserve" width="16" height="16" viewBox="0 0 128 128"><radialGradient id="a" cx="44" cy="29.1" r="91" gradientTransform="rotate(51.3 36.26 25.37)scale(1 .745)" gradientUnits="userSpaceOnUse"><stop offset=".5" style="stop-color:#17a1f3"/><stop offset=".8" style="stop-color:#1b7ffa"/><stop offset="1" style="stop-color:#1366f0"/><stop offset="1" style="stop-color:#1160ee"/></radialGradient><path d="M3.1 64.7c.7 24.4 17 59.5 61.5 59 43.3-.4 60.8-36.2 59.4-62A60 60 0 0 0 62.2 4.5c-40.1.2-59.8 34-59 60.2" style="fill:url(#a)"/><path d="M63 4.5s-.4 1.3 2.2 2 4 .9 5.9 1.8 3 2.2 5.6 3.5c2.7 1.4 3.6 1.8 4.1.8.2-.4-.7-2.4-.7-2.4s.4-1.8-.2-2.4c-.5-.6-3.5-1.8-4.6-2.2s-4.6-.8-6.3-1z" style="fill:#fff"/><path d="M49 49.8c.2.2.7 1.4 1.8 1.7s4.1.3 4.8.6l3 1.5 2.7 2c1 .3 1.6-.3 2-.2.6.2.8 1 1.8 1.2.5 0 1.2-1 1.8-1s3.2.1 3.3-.8-1.9-2.6-3-2.6c-1 0-1 .8-1.8.8-.7 0-1.2-.8-2-.7-.9 0-1.3.7-1.8.5s-5.4-3.7-6.7-4a14 14 0 0 0-5.2.2q-.8.2-.6.8M27.2 21.3a23 23 0 0 1 3.5-6.4c1.6-1.8 4.4-4.2 4.4-4.2S40 8 47.4 6.2s14.5-1.7 14.5-1.7-.6.6-.6.9 0 .8 1.4 1.3 3.8.8 4.5 1.6 1 2 .1 2.4q-1.3.8-3.6 0c-1.4-.4-1.3-.5-1.5-1s1.4-.7 1.2-1.1-1-.3-1.7-.7q-1.1-.7-2-.4c-.8.3-.9 1.3-1.1 1.8q-.3.7-.6 1c-.3.2-1.6 0-2 0s-1.8.7-2.6 1.1-2.7.9-3.1 1.2c-.4.4-.8 1-.1 1.3l3 1.2c1 .3 2.6.4 2.8.6.2.3 0 1.6.2 1.8.1.2.7 1 1 1 .4-.1 1-1.6 1.2-2s1.7-1 1.6-1.6c-.2-.7-.8-.8-.9-1.2s.5-1.3.5-1.5 0-1.4.6-1.6q1.2.1 2.3.7c1.1.6 1.5 0 2.7.7 1.1.8.9 1.4 1.4 1.4.6 0 .6-1 1.3-1 .8-.2 2.2 1.2 4 2.3s4.1 2.5 4.8 3.5.5 1.3 1 1.7 2.4 1.3 2.5 1.8 0 1-1.8.9-2.6-.6-3-1q-.7-.8-.4-1.2c.1-.3.6-.4.6-.4s.3-1.1-.4-1.4c-.8-.4-1.5-.6-3.8-.2q-3.5.6-4.1 1.4c-.4.5 0 1 .3 1s1.9-.8 2.4-.6c.5.1 0 1.8.4 2.1.4.2 1.6.1 2.3.1q1-.1 1.6.5c.6.6-.6 1-1.4 1.4l-2.5 1.5c-.4.3-1 .6-1.3 0-.2-.5 0-1.4 0-1.4s-2 .8-2.4 1.2.2 1.6-.5 2.3-1.9.1-2.5.4-1.7 1.3-2.4 2.2q-1 1.1-1.1 2c0 .6.7 1.2-.4 2.1s-1.7.7-2.7 1.2-2.5 1.3-3 2.6c-.7 1.3 0 4 .2 4.8.1 1 .6 3-.5 3s-1.1-.6-1.9-2.6q-.9-3-1.5-3.2c-.6-.3-1.3 0-2.5 0-1.3.2-6.3.5-7.3.5s-2.3-.4-3.5 1.1c-1.1 1.5-1 2.4-1 3.5s-.4 1.4-1 2.4-.7 3.6-.5 4c.2.5 1.8 2.2 2 2.2H40q.8-.4 1.2-1.4c.3-.6.2-1.1.9-1.8s1.6-.6 2.2-.6l1.5-.3c.6 0 1.4.8 1.3 1s-1.1 1.5-1.4 2.2l-.4.6s-.2 1-.5 1.4l-.7 1.2c-.2.3 0 1 .4 1 .6.2.5-.2.7-.3h3.7c.6 0 1.6 1 1.7 1.3s0 2.1-.3 3c-.3 1-.9 1.5-1 1.8l.2.9a7 7 0 0 0 2.6 2.5h2.4q1.1-.1 2 .3c.5.4 1.5 1.5 1.7 1.5s.6-1.2 2.3-2.6 2.4-1.6 3.4-1.7c1-.2 1.2.3 1.2.3s.5.4 1.3 0 .7-.8 2-.7 2 .7 2.8 1 2.4.3 4 .4h3.4c.6 0 1.2.7 1.5 1q.4.6.3.8l1.3.6c.6.5 1.2 1.6 2 1.9s2.2.1 3.8.2 2.1.3 3 1 1.3 2 1.6 2.9l.7 3s1.2-.4 3.1.3c2 .8 2 1.6 2 1.6h3.8c.8 0 3 1.4 3.2 1.9s-.3 4.3-.2 4.9c0 .5-2.2 3.7-2.7 4.3s-1 1.1-1.8 3.6-1.5 4.1-2 4.6-1.9 2.2-3.4 2.9-2.4.6-3.5 1.1c-1 .5-1.8 2.1-2.2 3.2s-.2 2.5-.5 3-3.8 3.9-4.5 4c-.7.3-3.9-.2-4.4.2s.6 1.7.5 2c-.1.5-1.1 1.6-2 2.2-1 .7-1.7 1.7-2.3 1.8-.6 0-1.4-.3-2 .4s0 1.8-.3 2.3-.9 1-1.2 1.7l-.7.9-4.5.3h-5s.7-1.4.8-3-.4-2.2 0-3c.3-1 1.3-2 1.3-2s.7-3.4.6-5.7q-.1-3.5-.4-4.1c0-.5.3-8.1.1-8.6 0-.5-1.7-1.3-2.5-2-.9-.8-3-1.7-3.6-2.6l-1-1.6-2.3-4.1c-.4-.8-1.4-1.5-1.8-2.6s-.4-2 0-2.3.7-.6.6-1-1-.4-.6-1.8 1.3-2.4 1.6-2.7l.8-.2 2.2-2c.2-.3.2-2.3-.1-3.1a6 6 0 0 0-2-2.4c-.5-.1-1.6 1.2-2.6 1.1s-1.6 0-3.2-1c-1.5-1-3.7-2.9-4.2-3.7s-.3-1-.5-1.5a10 10 0 0 0-2.6-1.6c-.8-.4-1.6-.3-2-.6l-3.2-3.4q-.7-.7-1.2-.7l-.8.5H33c-.3-.2-2.7-1.5-3.9-2.6s-2.7-1.9-3.4-2.8c-.7-1 0-2 .1-2.4v-3c-.1-.7-1.3-1.8-1.4-3.1s-.6-2.6-.7-3.3 0-2.8-.2-2.9-1-.4-1.1 1 .2 2.3.3 3.9q0 2.3.3 3c.2.4 1 1.3.4 1.7s-1.4-.4-1.8-1.3-.1-2.5-.5-3.3-.5-2.4-.6-3.1-.4-2.8-.3-4.5c0-1.7.6-1.8.6-1.8V31c0-.4 2-4.1 3.7-6.2z" style="fill:#7add8a"/><radialGradient id="b" cx="4.9" cy="39" r="40.3" gradientTransform="rotate(-11.3 83.1 31.23)scale(1 .603)" gradientUnits="userSpaceOnUse"><stop offset=".3" style="stop-color:#e3dda6"/><stop offset="1" style="stop-color:#e3dda6;stop-opacity:0"/></radialGradient><path d="M41.6 56.6c.2-2.5-1.2-2.6-1.6-2.5s-3 0-3.3 0a8 8 0 0 1-2-2.1c-.2-.5 0-3.1.5-4 .5-1 .9-1.4.9-2.5s0-2 1-3.5c1.2-1.4 2.5-1.1 3.5-1.1l7.3-.4q1.8-.4 2.5-.1c.6.3.8 1.2 1.6 3.2.7 2 .8 2.6 1.9 2.6s.6-2 .4-3c0-.8-.8-3.4-.3-4.7s2.1-2.2 3.1-2.7 1.6-.2 2.7-1.1.4-1.6.4-2.2q0-.8 1.1-2c.7-.8 1.8-1.9 2.4-2.2.7-.2 1.9.3 2.5-.4s.2-1.9.5-2.3c.4-.4 2.5-1.2 2.5-1.2s-.3 1 0 1.5.8.2 1.2 0c.4-.4 1.6-1.2 2.5-1.6s1.8-.9 1.5-1.4-1-.4-1.7-.4-1.9 0-2.3-.2.2-2-.4-2.1c-.5-.1-2 .7-2.3.7s-.7-.6-.4-1.1-9.6-1.4-10-1.4-1-.7-1.1-.9 0-1.5-.2-1.8c-.2-.2-1.8-.3-2.7-.6s-2.4-.7-3-1.2-.4-1 0-1.3 2.2-.8 3.1-1.2 2.3-1 2.7-1c.4-.1 1.7 0 2-.2s.3-.3.5-.9c.2-.5.7-1.5 1.2-1.8s1.6-1.8 1.6-2.1.5-1 .5-1-7.1-.1-14.5 1.8-12.3 4.5-12.3 4.5-2.7 2.4-4.4 4.2a23 23 0 0 0-3.5 6.4l-2.8 3.6a31 31 0 0 0-3.6 6.2v2.4s-.6.2-.6 1.9c-.1 1.7.2 3.6.3 4.4s.2 2.4.6 3.2 0 2.4.4 3.3 1.3 1.5 1.8 1.2-.1-1.3-.3-1.7q-.2-.7-.3-3c-.1-1.5-.6-2.6-.4-4s1-1 1.1-.8c.2 0 .1 2.2.3 2.9l.7 3.2c.5 2.2 1.2 2.5 1.3 3.1 0 .7.2 2.5 0 3 0 .5-.7 1.5 0 2.4.6 1 2.2 1.7 3.4 2.9s3.6 2.3 4 2.5h2.5c.2 0 .5-.5.8-.4s1.6 1.1 2.2 1c1-.2 2.9-.1 3-2" style="fill:url(#b)"/><radialGradient id="c" cx="42.2" cy="107.6" r="31.6" gradientUnits="userSpaceOnUse"><stop offset=".7" style="stop-color:#e3dda6"/><stop offset="1" style="stop-color:#e3dda6;stop-opacity:0"/></radialGradient><path d="M57.8 71.3c.2.8.4 2.8.2 3l-2.3 2c-.2.3-.5 0-.7.3-.3.3-1.4 1.4-1.7 2.7s.6 1.4.7 1.8-.4.7-.7 1-.3 1.3 0 2.3 1.5 1.8 1.9 2.6c.4.7 2 3.8 2.3 4.1l1 1.6c.5.9 2.7 1.8 3.5 2.5.8.8 2.5 1.6 2.6 2s-.1 8.2-.1 8.7l.4 4c.3 3.4-.7 5.8-.7 5.8s-1 1-1.3 2c-.3.8.2 1.6 0 3 0 1.6-.8 3-.8 3h5c1.7 0 4.6-.3 4.6-.3l.6-1 1.3-1.6c.3-.5-.4-1.6.2-2.3s1.4-.3 2-.4 1.4-1 2.3-1.8c1-.7 2-1.7 2-2.1.2-.4-1-1.7-.5-2.1s3.8 0 4.4-.1c.7-.2 4.3-3.7 4.6-4.2s0-1.8.4-2.9.8-18.8-4.4-26.5c-6.2-9-27.4-11.7-26.8-7.1" style="fill:url(#c)"/><radialGradient id="d" cx="62.9" cy="134.2" r="22.7" gradientUnits="userSpaceOnUse"><stop offset=".4" style="stop-color:#e3dda6"/><stop offset="1" style="stop-color:#e3dda6;stop-opacity:0"/></radialGradient><path d="M57.9 71.3c0 .9.3 2.8.1 3.1l-2.2 2c-.3.3-.5 0-.8.2s-1.4 1.5-1.7 2.8.6 1.3.7 1.7-.4.7-.7 1-.3 1.3 0 2.4c.5 1 1.5 1.7 1.9 2.5s2 3.8 2.3 4.1.3.7 1 1.6c.5 1 2.7 1.9 3.5 2.6s2.5 1.6 2.6 2v8.6l.3 4.1c0 2.4-.7 5.8-.7 5.8s-1 1-1.3 1.9.2 1.6 0 3.1c0 1.5-.8 3-.8 3h5l4.6-.4.6-1 1.3-1.6c.3-.4-.4-1.6.2-2.3s1.4-.3 2-.4c.7 0 1.4-1 2.3-1.7 1-.7 2-1.8 2-2.2.2-.4-1-1.6-.4-2s3.7 0 4.4-.2c.6-.2 4.2-3.7 4.5-4.1.3-.5 0-1.8.4-3 .5-1 .9-18.8-4.4-26.5-6.2-9-27.3-11.6-26.7-7" style="fill:url(#d)"/><path d="M47.2 22.1c.3.4 1.6 0 2.2 0q1 0 1.3.8c0 .6-.5.6-.9 1.3-.2.4-1.4 2.8-.7 3.1.9.4 1.3-.5 1.5-.9l.6-1.3s.6-1.1 1.2-1c1.3.1.8 1.9.8 1.9s-.3 1.3.3 1.6 1.3 0 1.7-.1q.6 0 1.6-.3l1.5-.8q.9 0 1-.5 0-.7-1.1-.9c-1.1-.2-1.6.8-2 1-.2.3-1.2.5-1.3-.2s.5-.7 1-1l.7-.7-1-1.1c-.3-.1-1.3.2-2.3-.5S52 21 51.8 20.8s-1.3-.6-2.4-.4-2.6 1.1-2.2 1.7" style="fill:#4b9eec"/></svg>