<svg xml:space="preserve" width="16" height="16" viewBox="0 0 128 128"><path d="M116 4H12a8 8 0 0 0-8 8v104a8 8 0 0 0 8 8h104a8 8 0 0 0 8-8V12a8 8 0 0 0-8-8" style="fill:#c33"/><path d="M109.7 4H11.5A7.6 7.6 0 0 0 4 11.5v97.9c0 4.1 3.3 7.5 7.5 7.5h98.1c4.1 0 7.5-3.3 7.5-7.5V11.5c0-4-3.1-7.4-7.2-7.5z" style="fill:#f44336"/><path d="M39.7 12.9c0-2.3-1.6-3-10.8-2.7-7.7.3-11.5 1.2-13.8 4s-2.9 8.5-3 15.3c0 4.8 0 9.3 2.5 9.3 3.4 0 3.4-7.9 6.2-12.3 5.4-8.7 18.9-10.6 18.9-13.6" style="fill:#ff8a80"/><path d="M77.6 87.5H46.3a2 2 0 0 0-1.9 1.3l-6.2 17.8a2 2 0 0 1-1.9 1.3H24.8a2 2 0 0 1-1.9-2.7l31.7-84a2 2 0 0 1 1.9-1.3h11a2 2 0 0 1 1.9 1.3l31.8 84a2 2 0 0 1-1.9 2.7H87.6a2 2 0 0 1-1.9-1.3l-6.2-17.8a2 2 0 0 0-1.9-1.3M52 75.2h19.9a2 2 0 0 0 1.9-2.7l-9.9-28.4a2 2 0 0 0-3.8 0l-9.9 28.4a2 2 0 0 0 1.8 2.7" style="fill:#fafafa"/></svg>