<svg xml:space="preserve" width="16" height="16" viewBox="0 0 128 128"><path d="M116 4H12a8 8 0 0 0-8 8v104a8 8 0 0 0 8 8h104a8 8 0 0 0 8-8V12a8 8 0 0 0-8-8" style="fill:#f77e00"/><path d="M109.7 4H11.5A7.6 7.6 0 0 0 4 11.5v97.9c0 4.1 3.3 7.5 7.5 7.5h98.1c4.1 0 7.5-3.3 7.5-7.5V11.5c0-4-3.1-7.4-7.2-7.5z" style="fill:#ff9800"/><path d="M39.7 12.9c0-2.3-1.6-3-10.8-2.7-7.7.3-11.5 1.2-13.8 4s-2.9 8.5-3 15.3c0 4.8 0 9.3 2.5 9.3 3.4 0 3.4-7.9 6.2-12.3 5.4-8.7 18.9-10.6 18.9-13.6" style="opacity:.75;fill:#ffbd52"/><path d="M52.8 37.5 48.9 45a1 1 0 0 0 .9 1.5h40.3a3 3 0 0 1 3 3v44.4c0 4.8-.9 7.4-4.4 8.8-3 1.3-7.5 1.4-14.1 1.4a3 3 0 0 1-2.9-2.2l-.7-2.2a3 3 0 0 1 2.9-4h8.4q2.3.1 2.1-1.9v-7.2q0-.9-.9-1H47a1 1 0 0 0-1 .8 36 36 0 0 1-7.3 15.7 3 3 0 0 1-4.6 0l-2.2-2.3a3 3 0 0 1-.1-4.1c6.1-7.1 6.7-16.4 6.7-24.4v-8.6q-.1-.9-1-1l-.7.3a67 67 0 0 1-9.6 8.9 3 3 0 0 1-4.2-.5l-1.8-2.1a3 3 0 0 1 .4-4.2l.1-.1a78 78 0 0 0 20.9-25.6 1 1 0 0 0-.9-1.5H22.9a2 2 0 0 1-2-2v-4.3q.2-1.8 2-2h23.4q.7 0 .9-.6 1.8-4.8 3.2-9.4a2 2 0 0 1 2.4-1.4l5.1 1.2c1.1.3 1.8 1.5 1.5 2.6l-2.2 6.4a1 1 0 0 0 .9 1.4H102a2 2 0 0 1 2 2v4.3a2 2 0 0 1-2 2H53.7q-.6-.2-.9.4m31.6 39.6v-6.3q0-.9-.9-1H48.3a1 1 0 0 0-1 1v.6l-.2 5.6q0 .9.9 1l.1.1h35.3q.9 0 1-.9zm-1-22.8H48.3a1 1 0 0 0-1 1v6.2q.1.9 1 1h35.1q1 0 1-1v-6.2q0-.9-.9-1z" style="fill:#fafafa"/></svg>