<svg xmlns:xlink="http://www.w3.org/1999/xlink" xml:space="preserve" width="16" height="16" viewBox="0 0 128 128"><path d="M36.6 59.5c-2.2.9-5.4 2.4-8.1 5.2s-1.7 9.4-1.4 11.1c1 5.5 1.1 12.5 3 15.5 3.1 5 10.2 10.8 13.6 14.5.7.7 1.5 1.2 1.7 3.4s.6 7.2.8 8.1c.1.9.5 2.6 2.1 3 10.1 2.3 35.6.6 39.4-.3q1.5-.3 1.6-1.9l.2-7.5a9 9 0 0 1 2-5.1c3.6-3.9 7.4-12.6 8.6-16.3s2.3-6.7 1.4-13.6c-1.3-10-2.7-22.3-5.3-26.8-3.2-5.4-9.7-2.8-10.8.8-.6-8.9-10.7-11.4-14.6-4.7-.6-10.9-.6-30.6-2.3-34.9-2.1-5.3-9.6-5.8-12.3.8-.8 1.9-1.4 19.3-2 33.9-1.1-5-10.4-6.1-13.4 0a72 72 0 0 0-4.2 14.8" style="fill:#e0bb95"/><defs><path id="a" d="M36.6 59.5c-2.2.9-5.4 2.4-8.1 5.2s-1.7 9.4-1.4 11.1c1 5.5 1.1 12.5 3 15.5 3.1 5 10.2 10.8 13.6 14.5.7.7 1.5 1.2 1.7 3.4s.6 7.2.8 8.1c.1.9.5 2.6 2.1 3 10.1 2.3 35.6.6 39.4-.3q1.5-.3 1.6-1.9l.2-7.5a9 9 0 0 1 2-5.1c3.6-3.9 7.4-12.6 8.6-16.3s2.3-6.7 1.4-13.6c-1.3-10-2.7-22.3-5.3-26.8-3.2-5.4-9.7-2.8-10.8.8-.6-8.9-10.7-11.4-14.6-4.7-.6-10.9-.6-30.6-2.3-34.9-2.1-5.3-9.6-5.8-12.3.8-.8 1.9-1.4 19.3-2 33.9-1.1-5-10.4-6.1-13.4 0a72 72 0 0 0-4.2 14.8"/></defs><clipPath id="b"><use xlink:href="#a" style="overflow:visible"/></clipPath><g style="clip-path:url(#b)"><path d="M66.7 10.9c-.6-3.1-7-4.1-8.4.9-.8 2.9-1 15.8-2.2 41.7-.1 1.4.1 3.8-3.4 5q-.6-10.5-1.1-12.8c-.4-3.1-7.8-4-9.4 1.2a124 124 0 0 0-5 31.9c-.1 1.8 2 4.2 4.9 4.3s4.5-1.7 7.8-1.3c4 .5 4.4 3.7 8.5 3.8 4.9.1 5.8-2.5 10-2.4s6.2 2.8 9.5 2.8c4.4 0 5.2-2.5 8.5-2.7 3.4-.2 4.2 1.6 6.9 1.6 2.7-.1 5.5-1.7 6.4-4.1s3.9-1.7 4-.2c.2 1.4-11.7 42.8-11.7 42.8l-47.9-.4-17.4-32.2-4.1-26.1 17.9-25.2L51 36.9 53.9 6s8.1-3.6 8.3-3.5L71 5.7l2.1 11.8zm29.9 42.6c-2.2-7.6-9.9-7-10.9 1.5-.2 2.1-1.6 1.8-1.8 0l-1-6.1c-.9-5.5-9.7-8.6-12.6 2.1-.5 2-2.3 1.3-2.3.1s-.3-8.9 3.6-11.7 24-4.5 27.3 6.3-2.3 7.8-2.3 7.8" style="fill:#d19661"/></g><defs><path id="c" d="M36.6 59.5c-2.2.9-5.4 2.4-8.1 5.2s-1.7 9.4-1.4 11.1c1 5.5 1.1 12.5 3 15.5 3.1 5 10.2 10.8 13.6 14.5.7.7 1.5 1.2 1.7 3.4s.6 7.2.8 8.1c.1.9.5 2.6 2.1 3 10.1 2.3 35.6.6 39.4-.3q1.5-.3 1.6-1.9l.2-7.5a9 9 0 0 1 2-5.1c3.6-3.9 7.4-12.6 8.6-16.3s2.3-6.7 1.4-13.6c-1.3-10-2.7-22.3-5.3-26.8-3.2-5.4-9.7-2.8-10.8.8-.6-8.9-10.7-11.4-14.6-4.7-.6-10.9-.6-30.6-2.3-34.9-2.1-5.3-9.6-5.8-12.3.8-.8 1.9-1.4 19.3-2 33.9-1.1-5-10.4-6.1-13.4 0a72 72 0 0 0-4.2 14.8"/></defs><clipPath id="d"><use xlink:href="#c" style="overflow:visible"/></clipPath><g style="clip-path:url(#d)"><path d="m36.6 59.5-.9 9.5c0 1.5-3 2.9-3.5-.3-.3-1.7.3-6.4 3.3-9.2 1.2-1.2 1.1 0 1.1 0m13.5-19.3c.7.9 1.2 2 1.2 5 0 2.9-.9 15.9-1 16.6-.2 2.2 2.8 2.6 3 0s1.1-15.1.9-17-1.6-5-2.7-5.8-1.4 1.2-1.4 1.2M64.6 5.5c-.2.4-.6 1.2 0 1.5q1.6 1.1 1.9 5.2l.9 49.3c.1 2.2 3.5 2.2 3.5 0L70.8 45c0-2 3.6-26.2 3.4-30.2s-3.1-8.4-4.8-9.1-4.8-.2-4.8-.2m15.8 36q1.4 1.2 1.7 3.5c.4 3.1 1.3 15.6 1.5 17.3s2.9 1.8 2.7-.3l-1-12.4-.5-6.5c-.1-1.6-2.3-3-3.7-3.2-1.3-.2-.7 1.6-.7 1.6m13.7 4.7c.8 1.5 2 5.2 2.5 9 .4 3 2 20.6 2 25q.1 3.3-.8 6.1c-.9 2.8-4 11.3-8.9 17.7-1.4 1.8-2.3 3.3-2.2 5.8v6.9c.1 1.5 1.7 3.6 2.8 1.8s15.1-34.1 15.1-34.1l-2.1-38.3-7.6-2.1z" style="fill:#8d542e"/></g></svg>