<svg xml:space="preserve" width="16" height="16" viewBox="0 0 128 128"><path d="M15.9 60c7-7 15.5-8.5 24-8.5-5 1.7-8.7 5.2-12.1 10.2-9.2 13.1-4.2 33.3-1 45q2.6 8.6 4.1 17.3H14.6q-1.2-5.7-3.2-13c-4.6-16.6-10-36.4 4.5-51m100.8-43c4.6 16.6 9.8 35.5-4.8 50a35 35 0 0 1-6.5 5c-3 1.9-5.7 2.7-5.7 2.7s5-9.8 5.8-15c1.7-13-.9-26-4.3-38.5-1.5-5.5-3.1-11.4-4-17.2h16.3q1.2 5.8 3.2 13" style="fill:#00897b"/><path d="M72.4 27.4c-7.4 7.4-5.2 18-.7 34.4 3.7 13.4 10.7 32.8-4.7 41-4.8 2.5-13 1.3-18.5 1.8 1.4 0 6-3 7.1-4.1 7.4-7.4 5.2-18 .7-34.4-4.6-16.7-9.8-35.5 4.7-50s33.4-9.4 50-4.8q7.3 2 13 3.2v16.3c-5.8-.9-11.6-2.5-17.2-4-16.5-4.6-27-6.8-34.4.6" style="fill:#ab47bc"/><path d="M34.3 113.5a3.5 3.5 0 0 1 0 4.9 3.4 3.4 0 0 1-4.9 0l-8.6-11.2 4.3-4.3z" style="fill:#f9a825"/><path d="M13 92.5c1.4-1 3.3.3 4 1l8.1 9.4-4.3 4.3-8.1-10.6c-.7-.7-1.6-2.7.4-4.1m37.8 18.4a3.5 3.5 0 0 1-2.5 5.9q-1.4 0-2.4-1l-16.8-17 4.2-4.2z" style="fill:#40c4ff"/><path d="M12.3 78c1.4-1.3 3.5.1 4.9 1.5l16.2 15.1-4.2 4.2-16.1-16.2c-1.2-1.3-2.5-3.2-.8-4.6m48.2 23.3a3.5 3.5 0 0 1 0 4.9 3.5 3.5 0 0 1-5 0L38.8 89.3l4.9-4.9z" style="fill:#9ed839"/><path d="M14.8 64a3.5 3.5 0 0 1 5.9-2.4l22.9 22.8-4.9 4.9-22.9-22.9q-1-1-1-2.4" style="fill:#40c4ff"/><path d="M67.7 88.2c1.3 1.3 2 3.4.7 4.7 0 0-2 1.5-3.3.1L49.2 78.9l4.3-4.3z" style="fill:#2e5fe6"/><path d="M30 60q0-1.5 1-2.4a3.4 3.4 0 0 1 4.9 0l17.6 17-4.3 4.2L31 62.4q-1-1-1-2.4" style="fill:#ee8cff"/><path d="M67.8 73.8C69.1 75 70 77 69.1 78s-2.5 1.3-4.6-.8l-6.7-7 4-4z" style="fill:#40c4ff"/><path d="M46.2 57q0-1.3 1-2.4a3.5 3.5 0 0 1 4.9 0l5.7 6.3 4 5.2-4 4.2-10.6-10.8q-1-1-1-2.4" style="fill:#f9a825"/><path d="M82.2 65.6a3.5 3.5 0 0 1 0 4.9 3.5 3.5 0 0 1-4.9 0l-9.1-10.7 4.1-4.1z" style="fill:#9ed839"/><path d="M58.3 44c1.1-.8 2.7.4 3.4 1l9.8 9.9.8.8-4.1 4.1c-4.4-5-8.8-10.2-9.5-11.2-.5-.8-2-3.4-.4-4.6m40.5 19a3.5 3.5 0 0 1 0 4.9 3.5 3.5 0 0 1-5 0L77.7 50.4l4.3-4.3z" style="fill:#40c4ff"/><path d="M59.7 28.8c1.1-1.5 2.5-2 4.9 0l17.3 17.3-4.3 4.3-16.8-17.9c-.7-.6-1.8-2.5-1-3.7" style="fill:#9ed839"/><path d="M108.3 53.4a3.5 3.5 0 0 1 0 4.9 3.5 3.5 0 0 1-4.8 0l-16.9-17 4.9-4.8z" style="fill:#ee8cff"/><path d="M66.2 19.4q0-1.4 1-2.4a3.5 3.5 0 0 1 4.9 0l19.4 19.5-4.9 4.9-20-20.2c-.7-.6-.4-.9-.4-1.8" style="fill:#2e5fe6"/><path d="M111.6 37.3c2.4 2.4 3.8 4 3 5.4-1 1.6-2.4 2-5.6-.7L96.9 31l4.1-4z" style="fill:#40c4ff"/><path d="M77.9 12.1q0-1.3 1-2.4a3.5 3.5 0 0 1 4.9 0L101 26.9 97 31 79 14.5q-1-1.1-1-2.5" style="fill:#9ed839"/><path d="M66.3 100.2c5.5-2.7 8.5-7 10.2-12 0 8.4-2.4 16.5-9.5 23.6-14.5 14.6-33.4 9.4-50 4.8q-7.2-2-13-3.2V97.1q8.8 1.5 17.2 4c11.8 3.3 31.6 5.8 45.1-.9m1.2-78.7c-8.1 1.1-14.2 6.8-14.2 6.8s.8-2.7 2.7-5.7q2-3.6 5-6.6c14.6-14.6 33.4-9.4 50-4.8q7.3 2 13 3.2v16.3q-8.7-1.5-17.2-4c-12.4-3.4-26.3-7-39.3-5.3" style="fill:#ee8cff"/><path d="M112 67c-14.6 14.5-33.4 9.3-50 4.7C55.6 70 21.7 55.3 6.8 78c0 0 3-20.8 20.7-27.2 14.3-5.2 35.8 4.7 38.6 5.5 17.2 4.7 33.4 6.6 47.6-6.5 3.2-3 6.6-7.8 7.4-12.1-.4 1.9 4 16-9.3 29.3" style="fill:#00bfa5"/></svg>