<svg xmlns:xlink="http://www.w3.org/1999/xlink" xml:space="preserve" width="16" height="16" viewBox="0 0 128 128"><linearGradient id="a" x1="53" x2="53" y1="32.7" y2="-6.3" gradientTransform="matrix(1 0 0 -1 0 128)" gradientUnits="userSpaceOnUse"><stop offset=".2" style="stop-color:#606060"/><stop offset=".3" style="stop-color:#606060"/><stop offset=".4" style="stop-color:#595959"/><stop offset=".7" style="stop-color:#464646"/><stop offset="1" style="stop-color:#262626"/><stop offset="1" style="stop-color:#212121"/></linearGradient><path d="M50.1 95.4H50c-18.1 0-36.8 3.7-46 12.2v16.3h98v-3.4c0-16.8-26.3-25.1-51.9-25.1" style="fill:url(#a)"/><path d="M33.5 96.3c4 .9 7.4 22.1 12.3 27.6h6c8.3-5.6 16.8-27.6 21.4-29.6Q78.8 92 79 89c0-5-13-9-28.9-9s-29 4-29 9c0 3 5 5.7 12.4 7.3" style="fill:#404042"/><path d="M49.2 109.3c-4 0-7.3-3.2-7.3-7.2v-9h16.2v9c0 4-3.3 7.2-7.3 7.2z" style="fill:#99674f"/><path d="m58.4 124 2.2-19H39.4l2.5 19z" style="fill:#bdbdbd"/><path d="M77.3 50.3H22.7c-5.9 0-10.7 5.1-10.7 11.4s4.8 11.4 10.7 11.4h54.7C83.2 73.1 88 68 88 61.7s-4.8-11.4-10.7-11.4" style="fill:#99674f"/><path d="M50 10.9c-17.4 0-33.5 18.6-33.5 45.4 0 26.6 16.6 39.8 33.5 39.8s33.5-13.2 33.5-39.8c0-26.8-16.1-45.4-33.5-45.4" style="fill:#ba8d68"/><ellipse cx="34.2" cy="58.7" rx="4.9" ry="5.1" style="fill:#49362e"/><ellipse cx="65.8" cy="60" rx="6" ry="6.2" style="fill:#49362e"/><path d="m53.9 67.9-.3-.1h-7.1l-.3.1q-1 .5-.7 1.6c.3 1.1 1.7 2.7 4.5 2.7s4.2-2 4.5-2.7q.4-1.1-.6-1.6" style="fill:#99674f"/><path d="M58.5 76a26 26 0 0 1-16.8 0c-1.8-1.1-3.7.6-2.9 2.2s6.5 5.4 11.4 5.4 10.5-3.8 11.3-5.4c.7-1.6-1.1-3.3-3-2.2" style="fill:#5d4037"/><path d="M75.5 50.4c-1.1-1.5-3.7-3.6-8.7-3.6s-7.6 2.1-8.7 3.6q-.7 1.1 0 1.9.5.8 2.3.5c1.8-.3 3-1.4 6.4-1.4s5.4 1.1 6.4 1.4 2 0 2.3-.5q.6-.9 0-1.9m-33.8.2S39.4 47 34.2 47s-7.5 3.6-7.5 3.6q-.3.3-.3.9.1 1.4 1.6 1.5l.6-.1c3.1-1.3 5.6-1.3 5.6-1.3s2.4 0 5.6 1.3l.6.1a1.5 1.5 0 0 0 1.3-2.4" style="fill:#613e31"/><path d="M50 9.5c-20.8-1.2-29.2 7.7-33 19.4A75 75 0 0 0 14.5 55l2.4 8.4c.1.3.6.3.7 0a270 270 0 0 1 7.3-24.6c1-2.6 3.8-3.8 6.6-3 4.2 1 11 2.4 18.5 2.4h.1c7.6 0 14.3-1.3 18.6-2.4 2.7-.8 5.5.4 6.5 3 2 4.3 6 19.7 7.3 24.5 0 .4.6.4.7 0l2.5-8.3c0 .8 1.2-14.4-2.6-26.2S70.9 8.3 50 9.5" style="fill:#543930"/><radialGradient id="b" cx="50.1" cy="79.7" r="36.5" gradientTransform="matrix(1 0 0 -1.128 0 138.21)" gradientUnits="userSpaceOnUse"><stop offset=".8" style="stop-color:#6d4c41;stop-opacity:0"/><stop offset="1" style="stop-color:#6d4c41"/></radialGradient><path d="M85.7 55.1c0 .8 1.2-14.4-2.6-26.2S70.9 8.3 50 9.5l-5.5.1h-.3c-34.7-1.2-29.7 45-29.9 45.5l2.5 8.3c.1.4.6.4.7 0 1.2-4.8 5.4-20.2 7.3-24.5 1-2.5 3.8-3.7 6.6-3 4.2 1.1 11 2.4 18.5 2.4h.1c7.5 0 14.3-1.3 18.5-2.4 2.8-.7 5.5.5 6.6 3 1.9 4.3 6 19.8 7.3 24.5 0 .4.6.5.7.1z" style="fill:url(#b)"/><defs><path id="c" d="M4 4h120v120H4z"/></defs><clipPath id="d"><use xlink:href="#c" style="overflow:visible"/></clipPath><g style="clip-path:url(#d)"><path d="m116.9 124-2.1-11.6-9.9-2.5a5.6 5.6 0 0 0-7 4.7l-2.3 9.4z" style="fill:#616161"/></g><defs><path id="e" d="M4 4h120v120H4z"/></defs><clipPath id="f"><use xlink:href="#e" style="overflow:visible"/></clipPath><ellipse cx="106.5" cy="114.4" rx="8.7" ry="8" style="clip-path:url(#f);fill:#404042"/><defs><path id="g" d="M4 4h120v120H4z"/></defs><clipPath id="h"><use xlink:href="#g" style="overflow:visible"/></clipPath><g style="clip-path:url(#h)"><path d="m24.6 97.5-.4-.2C23.8 97 12 96.1 5.4 104q-1.3 1.6-.2 3.3l3.1 3.7q1.2 1.5 2.7 1.6.5 0 1-.4c8.2-5.8 12.8-6 15.3-5.2l2.3.7z" style="fill:gray"/><circle cx="11.3" cy="105.5" r="2.7" style="fill:#757575;stroke:#9e9e9e;stroke-miterlimit:10"/><circle cx="12.2" cy="105.6" r=".6" style="fill:#424242"/><circle cx="10.4" cy="105.3" r=".6" style="fill:#424242"/></g><defs><path id="i" d="M4 4h120v120H4z"/></defs><clipPath id="j"><use xlink:href="#i" style="overflow:visible"/></clipPath><g style="clip-path:url(#j)"><path d="M92.7 103.9C86 96 74.4 97 73.9 97.3l-.4.2-5 10 2.3-.6c2.5-.8 7.2-.6 15.3 5.2q.4.4 1 .4c1 0 2-.8 2.7-1.5l3.1-3.8q1-1.6-.2-3.3" style="fill:gray"/><circle cx="86.7" cy="105.5" r="2.7" style="fill:#757575;stroke:#9e9e9e;stroke-miterlimit:10"/><circle cx="85.8" cy="105.6" r=".6" style="fill:#424242"/><circle cx="87.7" cy="105.3" r=".6" style="fill:#424242"/></g><defs><path id="k" d="M4 4h120v120H4z"/></defs><clipPath id="l"><use xlink:href="#k" style="overflow:visible"/></clipPath><g style="clip-path:url(#l)"><linearGradient id="m" x1="34" x2="34" y1="-1254.8" y2="-1296.2" gradientTransform="matrix(1 0 0 -1 0 -1160)" gradientUnits="userSpaceOnUse"><stop offset=".1" style="stop-color:#757575"/><stop offset=".3" style="stop-color:#707070"/><stop offset=".5" style="stop-color:#626262"/><stop offset=".7" style="stop-color:#4b4b4b"/><stop offset=".9" style="stop-color:#2b2b2b"/><stop offset="1" style="stop-color:#212121"/></linearGradient><path d="m46.6 124-3.2-27.5q-.4-1.3-1.5-1.4l-2.3.1c-7.8 0-14.8-3.2-18.3-5.2l11.4 34z" style="fill:url(#m)"/><linearGradient id="n" x1="66" x2="66" y1="-1254.8" y2="-1296.2" gradientTransform="matrix(1 0 0 -1 0 -1160)" gradientUnits="userSpaceOnUse"><stop offset=".1" style="stop-color:#757575"/><stop offset=".3" style="stop-color:#707070"/><stop offset=".5" style="stop-color:#626262"/><stop offset=".7" style="stop-color:#4b4b4b"/><stop offset=".9" style="stop-color:#2b2b2b"/><stop offset="1" style="stop-color:#212121"/></linearGradient><path d="m67.4 124 11.4-34c-3.5 2-10.6 5.2-18 5.2q-1.4 0-2.6-.2h-.1q-1 .1-1.4 1.4L53.3 124z" style="fill:url(#n)"/></g><radialGradient id="o" cx="117.3" cy="-1550.5" r="61.7" gradientTransform="matrix(.918 0 0 -.782 -57.75 -1178)" gradientUnits="userSpaceOnUse"><stop offset="0" style="stop-color:#757575"/><stop offset=".3" style="stop-color:#686868"/><stop offset=".9" style="stop-color:#464646"/><stop offset="1" style="stop-color:#424242"/></radialGradient><path d="M83.5 26.8c-4.5-1.2-10.9-2.1-17-2.7-5.1-.6-10.7.5-16.5.5s-11.4-1-16.5-.5c-6.1.5-13.7 2.7-18.2 3.8-7.8 2-11.3 4-11.3 7S8.1 39 16 41c4.5 1.1 8 3.7 15.9 4.7 5.1.6 13.6-1.3 19.3-1.3s13.4 1.9 18.5 1.4c6.1-.6 9.7-3 14.2-4.2 7.9-2 12-4 12-7 0-2.9-4.5-6-12.4-8" style="fill:url(#o)"/><radialGradient id="p" cx="140.3" cy="998.6" r="33.4" gradientTransform="matrix(0 .933 1.413 0 -1361.82 -123.98)" gradientUnits="userSpaceOnUse"><stop offset="0" style="stop-color:#757575"/><stop offset=".3" style="stop-color:#686868"/><stop offset=".9" style="stop-color:#464646"/><stop offset="1" style="stop-color:#424242"/></radialGradient><path d="M64.6 4.4c-2.8-.7-7.4-.4-10.2 0-7.1 1.3-6.1.6-12.8 0-2.7-.4-6.3-.6-8.9.3-10 3-11.2 11.9-17.5 25.4.1 12.4 70 12.2 69.9 0C79 17.2 75 7.2 64.6 4.4" style="fill:url(#p)"/><path d="M38.8 10.4q5 3.5 11 2.9 5.3-.9 10.1-3.4c.5-.3 1.1.3.9 1a15 15 0 0 1-11.4 6.4c-5.5 0-9.2-2.4-11.1-5.8-.4-.5-.2-1.7.5-1.2" style="opacity:.2;fill:#eee"/><path d="M82.1 23.4c-11.6 6.9-52.3 6.9-63.8 0l-3 6.7c.1 12.3 70 12.2 69.9 0z" style="fill:#404042"/><g style="opacity:.6"><radialGradient id="q" cx="191.5" cy="-1031" r="41.9" gradientTransform="rotate(6.4 9021.35 -634.42)scale(1 -1)" gradientUnits="userSpaceOnUse"><stop offset="0" style="stop-color:#fafafa"/><stop offset="1" style="stop-color:#eee"/></radialGradient><path d="M90.3 43.4A21.6 21.6 0 0 1 87 73.5 21.3 21.3 0 1 1 60.4 40a21 21 0 0 1 29.9 3.4" style="fill:url(#q)"/></g><path d="m101.2 85.8-5.7 4.5-12.7-15.8 5.7-4.5z" style="fill:#c7c7c7"/><radialGradient id="r" cx="42.5" cy="-1221.9" r="49" gradientTransform="rotate(178.7 7.46 -594.08)scale(-1 1)" gradientUnits="userSpaceOnUse"><stop offset="0" style="stop-color:#e0e0e0"/><stop offset=".2" style="stop-color:#dbdbdb"/><stop offset=".5" style="stop-color:#cdcdcd"/><stop offset=".8" style="stop-color:#b5b5b5"/><stop offset="1" style="stop-color:#9e9e9e"/></radialGradient><path d="M92.5 41.3C84.1 30.7 68.8 29 58.3 37.5s-12.2 23.9-3.8 34.4 23.7 12.3 34.2 3.8 12.2-23.9 3.8-34.4m-7.4 29.9c-8 6.4-19.7 5.2-26.2-3s-5-19.8 3-26.4 19.7-5.2 26.2 3 5 20-3 26.4" style="fill:url(#r)"/><radialGradient id="s" cx="93.2" cy="46.4" r="13.6" gradientTransform="matrix(1 0 0 -1 0 128)" gradientUnits="userSpaceOnUse"><stop offset="0" style="stop-color:#ffa726"/><stop offset="0" style="stop-color:#ffa623"/><stop offset=".5" style="stop-color:#ff9800"/><stop offset="1" style="stop-color:#fb8c00"/></radialGradient><path d="m113.1 100.6-.4-.5c-.4-3.4-2.4-7.9-5.8-12.2-3-3.8-6.4-6.6-9.4-7.9q-1.2-.6-2.1-1.7l-.8-1-6.2 5 .8 1q.9 1 1.2 2.4C91 89 93 93 96 96.7c3.4 4.3 7.3 7.3 10.5 8.4l.4.5q.6.8 1.7.8.7 0 1.3-.5l.9-.7.6-.4.5-.5.9-.7a2 2 0 0 0 .3-3" style="fill:url(#s)"/><path d="M96.6 80.4 90.8 85q-1.2.7-2.1-.2l-.4-.6q-.7-1.2.2-2.1l5.8-4.7q1.2-.7 2.1.2l.4.6q.9 1.2-.2 2.2" style="fill:#ababab"/><radialGradient id="t" cx="-16.8" cy="164.8" r="21.7" gradientTransform="matrix(-.635 -.772 -.817 .671 225 -8.7)" gradientUnits="userSpaceOnUse"><stop offset=".3" style="stop-color:#ba8d68"/><stop offset="1" style="stop-color:#a47b62"/></radialGradient><path d="M101.5 97.6q-1.2 1.3-2 2.9c-.9 1.5-8.2 4.3-4.2 10.3 1.2 1.6 4.9 6.7 8 8 6.8 3 16.3-6.3 17.2-6.7 5.6-3.1-9-17.5-13.4-17.3l-2 .3c-1.4.2-2.7 1.6-3.6 2.5" style="fill:url(#t)"/><radialGradient id="u" cx="73.9" cy="-24.7" r="15.9" gradientTransform="rotate(-58 159.46 20.05)scale(1 -1)" gradientUnits="userSpaceOnUse"><stop offset="0" style="stop-color:#a47b62"/><stop offset="1" style="stop-color:#ba8d68"/></radialGradient><path d="m119.9 107-5.7 4.3c-.8.5-1 1.5-.6 2.2.4.9 1.5 1.1 2.4.7l6.2-3.4c1-.6 1.4-1.8.8-2.7l-.3-.5a2 2 0 0 0-2.8-.5" style="fill:url(#u)"/><radialGradient id="v" cx="94" cy="-27.3" r="15.9" gradientTransform="matrix(.908 -.483 -.467 -.885 11.72 112.46)" gradientUnits="userSpaceOnUse"><stop offset="0" style="stop-color:#a47b62"/><stop offset="1" style="stop-color:#ba8d68"/></radialGradient><path d="M98.4 114.6s1.7 0 4-.7c6.9-2 2.6-9 2-10-3.4-5.7 2-8 5.7-11.2.8-.7 3.2-3.2 2.5-5.6-1.5-3.6-4.5-1.2-11.4 3.4a33 33 0 0 0-5.1 4.2c-7.5 7.6-1 16.3 2.3 20" style="fill:url(#v)"/><radialGradient id="w" cx="88.5" cy="-33.9" r="18.1" gradientTransform="rotate(-41.2 184.7 19.08)scale(1 -1)" gradientUnits="userSpaceOnUse"><stop offset="0" style="stop-color:#a47b62"/><stop offset="1" style="stop-color:#ba8d68"/></radialGradient><path d="m114.6 96.6-7.5 6.9c-1 .9-.4 1.7.3 2.8.8 1.1 1.6 2 2.9 1.2l8.4-5.9c1.4-1 1.8-2.9.8-4.2l-.6-.6c-1-1.3-3-1.4-4.3-.2" style="fill:url(#w)"/><radialGradient id="x" cx="96.3" cy="-36.7" r="17.3" gradientTransform="rotate(147 -6.66 61.22)scale(-1 1)" gradientUnits="userSpaceOnUse"><stop offset="0" style="stop-color:#a47b62"/><stop offset="1" style="stop-color:#ba8d68"/></radialGradient><path d="m110.9 91.9-6.2 6.3c-1 .9-1 2.3-.3 3.3.8 1 2.4 1.2 3.5.4l7.1-5.3c1.3-1 1.6-3 .5-4.1l-.5-.6c-1-1.2-3-1.2-4.1 0" style="fill:url(#x)"/><radialGradient id="y" cx="79.8" cy="-28.7" r="17.3" gradientTransform="rotate(129.6 -8.76 79.56)scale(-1 1)" gradientUnits="userSpaceOnUse"><stop offset="0" style="stop-color:#a47b62"/><stop offset="1" style="stop-color:#ba8d68"/></radialGradient><path d="m117.7 102-6.2 5.3q-1.4 1.3-.5 3c.6 1 2 1.3 3.2.6l6.8-4.3c1.3-.8 1.7-2.5.9-3.7l-.5-.6a2.6 2.6 0 0 0-3.7-.3" style="fill:url(#y)"/><path d="M118.9 101.5c-.6-1-7.2 5.5-8.6 5.5-1.7-.1-2.9-1.9-2-3.4.9-1.7 7.5-7.2 7.2-7.6-.5-.7-7.8 8.3-10.4 5.1-1.5-2 .6-3.6 1.8-4.9.7-.8 4.2-3.9 4-4.2-.2-.2-1 .6-1.1.6-.8.5-4.8 4.1-5.8 5.3-1.5 1.9-1.2 3.3-.6 4.2s1.5 2.5 1.9 3.6c.8 2.5-.2 6.2 0 6.5 0 .3 1-1.7 1.2-3.5.1-1 1.2-1.4 2-.7l1.1 1c.4.5 2.4 3.1 3 4.2q.3.6.8 1l1 .5c1.6.4 3.1-.6 4.4-1.5.7-.5 3.8-2.4 4.2-3.3-1.6 1.2-7 5.7-8.5 3.3-.8-1.3.6-1.8 1.4-2.4 1-.6 2.8-2 3.7-2.7.2-.3 1.6-1.3 1.5-1.5-.3-.3-3.2 1.9-3.5 2.1-1.2.9-3.5 3-5 2q-1-.6-1-1.8c0-1.6 7.6-6.9 7.3-7.4" style="fill:#91674d"/></svg>