<svg xml:space="preserve" width="16" height="16" viewBox="0 0 128 128"><radialGradient id="a" cx="63.6" cy="1992.9" r="57" gradientTransform="translate(0 -1930)" gradientUnits="userSpaceOnUse"><stop offset=".5" style="stop-color:#fde030"/><stop offset=".9" style="stop-color:#f7c02b"/><stop offset="1" style="stop-color:#f4a223"/></radialGradient><path d="M63.6 118.8c-27.9 0-58-17.5-58-55.9S35.7 7 63.6 7c15.5 0 29.8 5.1 40.4 14.4 11.5 10.2 17.6 24.6 17.6 41.5s-6.1 31.2-17.6 41.4a61 61 0 0 1-40.4 14.5" style="fill:url(#a)"/><path d="M111.5 29.7a57 57 0 0 1 8.1 30.2c0 16.9-6.1 31.2-17.6 41.4a61 61 0 0 1-40.4 14.5 59 59 0 0 1-48.2-23 58 58 0 0 0 50.2 26c15.4 0 29.8-5.2 40.4-14.5a54 54 0 0 0 17.6-41.4q-.1-19.2-10.1-33.2" style="fill:#eb8f00"/><path d="M73.7 74a3.3 3.3 0 0 1 1.9-5q5-2 10.6-2.1 5.5 0 10.6 2a3.4 3.4 0 0 1 2 5 4 4 0 0 1-4.6 1.5q-3.9-1.5-7.9-1.6-4.1.2-7.9 1.6a4 4 0 0 1-4.7-1.4m-44.6 0a3.3 3.3 0 0 1 1.9-5q5.1-2 10.6-2.1 5.5 0 10.6 2a3.4 3.4 0 0 1 2 5 4 4 0 0 1-4.6 1.5q-3.8-1.5-7.9-1.6-4 .2-7.9 1.6a4 4 0 0 1-4.7-1.4M64 87.2c10.8 0 17.8 7.9 19.7 11.6q1 2.2.1 3.1a2 2 0 0 1-2.1 0l-.9-.5A29 29 0 0 0 64 95.9a30 30 0 0 0-17.7 5.9 2 2 0 0 1-2.1 0q-1-1 .1-3.1A24 24 0 0 1 64 87.2" style="fill:#422b0d"/><path d="M29.7 56.5c-8.5 0-15-8.2-15-15.2 0-5 2.2-10.7 5.3-18.6l1.4-3.7c1.5-3.7 2.8-7.7 4.8-11.2a3.5 3.5 0 0 1 6.2 0c1.8 3.4 3.1 7.1 5 11.5 5.5 12.2 7 17.1 7 22 .2 7-6.4 15.2-14.7 15.2" style="fill:#44b3e6"/><path d="M38.8 47.1c-1.9 3-6.2 2.4-6.2-2.5 0-3.1.6-19.2 3.3-17 4.4 3.7 5.6 15.4 3 19.5" style="fill:#81d4fa"/></svg>