<svg xml:space="preserve" width="16" height="16" viewBox="0 0 128 128"><path d="M71.4 14.8C54.6 26 48 48.2 44.2 51.2c-9.2 7-26 7.9-36.4 26.2-9.3 16.3-2.2 30.5 5 37s21.7 1.5 21.7 1.5S58 102.3 58 101s16.3-25.4 23.9-33 37-22.2 37-22.2 5.3-22.8 4-26.4c-1.5-4.2-24.6-22.6-51.6-4.5" style="fill:#f3ae38"/><path d="M71.3 68c-11.5 15.2-12.4 27.7-26.4 37.6s-32 8.8-32 8.8 9.6 10.5 28 6.2c20.6-4.8 26.9-18.4 34-31.9 3-6 3.6-8.5 5.1-10s19.4-8.6 27-13.8 15-14.8 16.6-25.7c2-12.8-.6-19.9-.6-19.9s-.7 16.8-11 26.6C100.1 57 78.3 58.6 71.2 68" style="fill:#d97a08"/><path d="M13.9 77.4c-2 3.1-2.2 5.6-.5 6.6 2 1.1 4.4-1.2 5.6-3.2 1.2-2.1 2-5 .4-6Q16.7 73 14 77.3m11.3-7.7c1.5 2.4 4.6 1.2 7.3-.6s4.4-4.1 3.4-6c-1.1-1.7-4.5-.6-6.7 1-2.3 1.4-5.4 3.2-4 5.5m28-18.2c2.1 1.3 4.3-1 6-4s3-6.2.8-7.4q-3-1.5-6 4.3c-2.5 4.4-2.5 6-.8 7" style="fill:#f7c875"/><path d="M15.7 106.1c.7 2 3.3 1.8 5 1.2 3-.9 4-2.7 3.7-4.1s-2.9-2-5.3-1c-1.6.6-4 2-3.4 4m13.5-4.4q2 2.6 7-1.3c2.8-2.1 3.9-5 2.7-6.4s-2.6-.3-5.5 1.9c-2.7 2-5.3 4.3-4.2 5.8M32 89.7c1.1 1.8 3.8 1.1 6.5-1 2.6-2.1 3.6-4.2 2-6-1.5-1.5-4 .8-5.4 1.9-1.7 1.3-4.5 3-3.1 5.1m13-2.5c-2.4 2.3-4 4.4-2 6 1.8 1.6 4.6-1 5.8-2.2 1.1-1 3.7-3.8 2-5.7-1.7-1.8-4.6.8-5.8 1.9m7.4-18.3c-1.6 2-4 4.4-2.9 6s4.2 1 6.7-2.2c1.6-2 2.2-5 .8-6.2s-3.2.7-4.6 2.4m17.3-12.6c1 2.2 4.5 1 7.1-.5s4.7-3.5 3.8-5.3c-.8-1.6-3.7-1.5-6.8.3s-5 3.5-4.1 5.5M90.8 48c1.1 1.8 3.6 1.1 6.5-1 2.7-2 4-4 2.7-5.8s-3.5-.2-6 1.6c-2.6 1.8-4.2 3.3-3.2 5.1m12.7-6.7c1.5 1.4 3.7.1 5.9-2.2q3.5-3.8 1.8-5.6t-5.7 2.3q-3.7 3.7-2 5.5M104 25c-2 2.6-4.3 4.7-2.3 6.4 1.4 1.2 4.2-.4 6.2-3 1.7-2.3 2.2-5.7.6-6.4s-2.6.6-4.5 3m10-.4c-.8 2.8-2.5 4.5-.9 6 2 1.7 4.6-.6 5.5-4.7q1.3-5.7-1.7-5.5c-1.9 0-2.3 2-3 4.2" style="fill:#d97a08"/></svg>