<svg xmlns:xlink="http://www.w3.org/1999/xlink" width="16" height="16" viewBox="0 0 128 128"><path fill="currentColor" stroke="currentColor" stroke-miterlimit="10" stroke-width="2" d="M48.8 31.8 31.5 108a94 94 0 0 0 16.4 3.5c8 1 15.8-3.3 23.8-1.9 5.8 1 9.4 2.2 15.2.4q5-1.5 9.5-3.7L76 31.8z"/><g fill="currentColor" stroke="currentColor" stroke-miterlimit="10"><path stroke-width="1.4" d="M35.8 14.4 48.3 10l16 23-6.7.5-9.9-20z"/><path stroke-width="1.2" d="M36.8 21.4 47 17.2l14.3 17.5-5.8 1.3-9.1-15.4zm.2 7.9 7.6-5 15.9 13.2-5.4 2.2L44.4 28z"/><path stroke-width="1.4" d="M92.2 14.4 79.7 10l-16 23 6.7.5 9.9-20z"/><path stroke-width="1.2" d="M91.2 21.4 81 17.2 66.5 34.7l5.8 1.3 9.2-15.4zm-.2 7.9-7.6-5-16 13.2 5.4 2.2L83.6 28z"/></g><path fill="currentColor" d="M86.3 52.8q-1 0-1.8-.7L70.5 38c-1-1-1-2.6 0-3.5l1.9-2q.5-.5 1.8-.5 2.5.1 3.7 1.1L87.7 47l3.2-4q.6-.6 1.5-.6 1.2 0 2 .9l.2.2c.9 1 .7 2.6-.3 3.5L88 52.3q-.7.5-1.6.5zM74.2 32.5c1.4 0 2.8.5 3.3 1l9.4 13.2.8 1 .8-1 2.7-3.5a2 2 0 0 1 2.7.3l.3.2a2 2 0 0 1-.3 2.9l-6.1 5.3a2 2 0 0 1-1.3.4h-.2a2 2 0 0 1-1.4-.5L70.8 37.7a2 2 0 0 1 0-2.9l2-2zm0-1q-1.5 0-2.2.7l-2 2a3 3 0 0 0 0 4.2l14.2 14a3 3 0 0 0 2.1 1h.2a3 3 0 0 0 2-.8l6.1-5.3a3 3 0 0 0 .3-4.2l-.2-.3a3 3 0 0 0-4.2-.3l-2.8 3.6-9.5-13.3c-.7-.8-2.5-1.3-4-1.3m8.9 57.7c-1.6-2.7-9.4-11.8-14.3-16.9a4.3 4.3 0 0 0-6.1 0L47.3 88c-3.6-.6-8.3-2.4-9.8-3 1.1-2 5.6-10.4 9.4-16.6l1.1-1.7 7.5-11.2q1.6.3 8.2 3.9 1.2.6 2.3.6c2.3 0 3.8-1.8 4.5-2.8l2.3 2.4c.8 1.9 12.2 17.4 16 22.7-.7 1.1-3.3 5-5.7 6.8M55.7 56.2q2 .5 7.8 3.7 1.2.7 2.6.7c2 0 3.6-1.4 4.5-2.5l1.6 1.6c.2 1 8.7 12.8 16 22.7-.8 1.3-3 4.4-5 6a212 212 0 0 0-14-16.4 5 5 0 0 0-6.9-.1c-6 6-13 13.3-15.2 15.7-3.1-.7-7-2-9-2.7A320 320 0 0 1 48.5 67zm-.4-1.1c0 .2-8.7 13-8.8 13.2-4.5 7.2-9.7 17.2-9.7 17.2S43 88 47.5 88.7c1.5-1.8 9.2-9.7 15.6-16.1q1.1-1 2.6-1.1 1.5 0 2.8 1.2c5.5 5.8 14.1 16 14.5 17.2 3-1.9 6.5-7.5 6.5-7.5s-16-21.9-16.3-23c0-.1-2.7-2.7-2.7-3 0 0-1.7 3.2-4.5 3.2q-1 0-2-.6c-5.5-3-8.7-4-8.7-4m10.9 8.8q-1.6 0-2.6-1L56.5 56q-1-1-1.1-2.3-.2-2.1-1.4-6.9c-1.4-5.2-3.1-9.7-4.2-12.7l-1-2.5q-1-3.4.2-5.2 1.4-1.8 5.1-1.8c4.6 0 10.2 2 10.2 2l3.5 1.2c5.6 1.7 11.9 3.7 11.1 10l-.1.7C78 41 74 53.6 73 57.6q-.2 1.1-1 1.9l-3.2 3.2q-1 1-2.6 1M54.1 25.1c4.5 0 10 2 10 2l3.6 1.1C73.3 30 79 32 78.4 37.8v.6a425 425 0 0 0-5.9 19.2q-.2 1-.8 1.6l-3.2 3.2a3 3 0 0 1-4.6 0l-7-6.7q-1-.8-1-2a49 49 0 0 0-1.5-6.9 139 139 0 0 0-5-15.3q-1.2-3.2 0-4.7Q50.5 25 54 25m0-1c-4.2 0-7.6 1.6-5.7 7.7.7 2 3.2 8 5.1 15.2q1.2 4.6 1.4 6.7 0 1.6 1.3 2.6l7 6.8a4 4 0 0 0 6 0l3.2-3.3q1-.8 1.1-2a502 502 0 0 1 6-20c.9-8-9-9.4-15-11.7 0 0-5.7-2-10.4-2m18.1-1.3q-.5-1.1 1-2.3c.8-1 2.3-4.3 1-7.1H64l-4.5-.2-5.6-.5c-1.6 2.8-.2 6.2.6 7.2q1.3 1.2.8 2.3-.5.8-1 .8l.3.3 1.2.3q.3 0 .5.3c1.4 1.7 2.3 2 7.3 2.2s6-.2 7.4-1.7q.2-.3.5-.3.5 0 1.2-.3l.3-.2q-.4 0-.9-.8"/><path fill="none" stroke="currentColor" stroke-miterlimit="10" d="M72.1 22.7q-.5-1.1 1-2.3c.8-1 2.6-4 .6-7.4-.3 0-19.5-.2-19.8-.1a6 6 0 0 0 .6 6.9q1.2 1.2.8 2.4-.5.7-1 .7l.3.3 1.2.3q.3 0 .5.3c1.3 1.7 2.3 2 7.3 2.2s6-.1 7.4-1.7l.5-.3 1.2-.2.3-.3q-.5 0-.9-.8z"/><path fill="currentColor" d="M64 30.4a2.6 2.6 0 0 1-2.5-2.5v-3.2h5.7v3.2q-.2 2.3-2.6 2.5zm2.9-5.4v3q-.2 2-2.3 2.2h-.5Q62 30 61.8 28v-3zm.8-.7h-6.4v3.5a3 3 0 0 0 2.9 3h.6a3 3 0 0 0 2.9-3zm-10.8-3.9c-1.4 0-2.6-1.2-2.6-2.7S55.5 15 57 15h14c1.4 0 2.6 1.2 2.6 2.7s-1.2 2.7-2.6 2.7zm14.2-5.1q2.1.2 2.3 2.4c.2 2.2-1 2.5-2.3 2.5H56.9c-1.3 0-2.3-1.1-2.3-2.5s1-2.4 2.2-2.4zm0-.6H56.9c-1.6 0-2.9 1.4-2.9 3s1.3 3 2.8 3h14.3c1.6 0 2.8-1.4 2.8-3s-1.3-3-2.8-3M64 26.4c-4.1 0-8.5-3.1-8.5-10 0-5.7 3.2-11.7 8.5-11.7s8.5 6 8.5 11.6c0 7-4.4 10.1-8.5 10.1M64 5c5 0 8.2 5.9 8.2 11.3 0 4.8-2.6 9.9-8.2 9.9-5.7 0-8.2-5.1-8.2-9.9C55.8 10.9 58.9 5 64 5m0-.5c-4.6 0-8.8 4.8-8.8 11.8s4.4 10.4 8.8 10.4 8.7-3.4 8.7-10.4S68.5 4.5 64 4.5m-1.2 15.2c0 .2 1.2 1.2 1.2 1.2l1.2-1.2c0-.2-2.5-.2-2.4 0m6.1 1a10 10 0 0 1-9.8 0c-.3-.1 1 3.4 4.9 3.4s5.1-3.5 4.9-3.4M60.6 4.2c-3.1 1.2-3.5-.7-3.5-.7-1.6.9-.5 2.6-.5 2.6s-1.7 0-2.4 1.4c-.7 1.6 0 2.8 0 2.8s-1.6 1-1 3c.5 1.2 1.8 1.6 1.8 1.6 0 2.8.8 4 .8 4l.5-5.2c.3-2 .6-3 2.6-3.8 1.6-.6 5.2 1.2 5.2 1.2s1.8-1.4 3.5-1.6 3.4.1 4 3.6c.3 1.3.4 5.3.4 5.3s.9-1.6 1-3.1c0-.6.8-2 1-3a6 6 0 0 0-.6-4.5c-.6-1-2.2-2.2-3.3-2 0-1.2-1-2.3-2-2.7-3.3-1-6.6.8-7.5 1.1"/><defs><path id="a" d="m55.6 2-3 5.4-.2 6.5 1.3.8.8-2.1 12-6 5.5 3.7 1.6 3.4 1.4-1.2-.7-11z"/></defs><clipPath id="b"><use xlink:href="#a"/></clipPath><g clip-path="url(#b)"><path fill="none" stroke="currentColor" stroke-miterlimit="10" d="M60.6 4.2c-3.1 1.2-3.5-.7-3.5-.7-1.6.9-.5 2.6-.5 2.6s-1.7 0-2.4 1.4c-.7 1.6 0 2.8 0 2.8s-1.6 1-1 3c.5 1.2 1.8 1.6 1.8 1.6 0 2.8.8 4 .8 4s1-4.6.9-5.3c0 0 2-.5 4.1-1.8 1.5-.9 2.5-2 4.2-2.3 2.5-.7 3.1 1.2 3.1 1.2s2.4-.6 3.2 2.7c.3 1.4.5 3.6.7 5 0 0 .9-1.6 1-3.1 0-.6.8-2 1-3a6 6 0 0 0-.6-4.5c-.6-1-2.2-2.2-3.3-2 0-1.2-1-2.3-2-2.7-3.3-1-6.6.8-7.5 1.1z"/></g><path d="M62.5 16.4h-1.1l-.3-.1-.7-.2-.6-.2q-1.2-.4-2.3-1.2l-.6-.3.2-.4.2-.6v-.3l.2-.2.3-.6.4-.5-.1 1.2-.2 1.1 1.1.5 1.2.6 1.2.6z"/><path fill="currentColor" d="m60.6 18-1.3-.3c-1.1-.6-2-1.5-2-1.6l-.3-.4h1.4l1.6.1c.5.1 1.4.6 1.7 1.1v.5q-.1.6-1 .6"/><path d="m58.4 16 1.5.1q1.6.5 1.6 1.2 0 .4-.9.4-.5 0-1.1-.3c-1.1-.5-2-1.4-2-1.4zm0-.7h-1l-1 .2.7.8s1 1 2.1 1.6q.8.4 1.4.4 1.2 0 1.4-.8.4-1-2-2zm7.1 1.1h1l.4-.1.6-.2.6-.2q1.4-.4 2.4-1.2l.5-.3-.1-.4-.2-.6-.1-.3-.2-.2-.2-.6-.4-.5V13l.3 1.1-1.1.5-1.2.6-1.2.6z"/><path fill="currentColor" d="M67.3 18q-1 0-1.1-.6V17c.3-.6 1.3-1 1.8-1q.7-.3 1.6-.3h.8l.5.1-.3.4s-.9 1-2 1.6q-.7.3-1.3.3"/><path d="M69.6 16h.8s-.8 1-1.9 1.4l-1.2.3q-.7 0-.9-.4.1-.7 1.7-1.2zm0-.6q-1 0-1.7.3-2.3.7-2 2 .3.6 1.4.7.8 0 1.4-.4a5 5 0 0 0 2.1-1.6l.7-.8-1-.1z"/><path fill="currentColor" d="m62.9 16.4-.5-.3c.5-.8.1-2.4.1-2.4l.5-.1s.5 1.8-.1 2.8m2.1 0c-.6-1-.1-2.7-.1-2.8l.5.1s-.4 1.6 0 2.4zm-.7 19.9 1.7-4 2.2 3.9-1.5 6.6z"/><path d="m66 33.1 1.9 3.2-1.3 5.4-2-5.4zm0-1.4-.6 1.2-1.3 3.2-.1.2v.2l2 5.4.7 2 .5-2 1.3-5.5v-.5l-2-3.1z"/><path fill="currentColor" d="M33.6 40a4 4 0 0 1-3.8-2.7l-4.1-10.6a2 2 0 0 1 1.1-2.6l2.8-1q.4-.3.7-.2a2 2 0 0 1 1.9 1.3l2.8 7.2 16-4.2 1-.2a4 4 0 0 1 1 7.9l-17.9 4.7zm-3.3-16.7q1 0 1.5 1l2.7 7 .2.6.7-.2 15.7-4.1a3.6 3.6 0 0 1 4.4 2.5 3.6 3.6 0 0 1-2.6 4.4L35 39.2h-.1l-1.4.3q-2.4-.2-3.4-2.3l-4-10.6q-.5-1.5.8-2.1l2.8-1zm0-.8q-.5 0-.9.2l-2.7 1a2.4 2.4 0 0 0-1.4 3.1l4.1 10.6a4.5 4.5 0 0 0 5.7 2.6h.1l18-4.8a4.4 4.4 0 0 0-2.3-8.4L35.2 31l-2.7-7c-.3-1-1.3-1.5-2.2-1.5M41 123c-6 0-9-1.2-10.6-2.2l-.3-.6.4-.4c17.7-3.7 18.3-5 18.5-5.6q.2-.4 0-.9a618 618 0 0 1-15.8-28.5q0-.3.4-.3h.1l13.1 3.8q.3 0 .4.3l9.6 31-.1.8c-1 1.2-4.5 1.6-6.5 1.8l-1 .2q-4.5.6-8.2.6"/><path d="M33.8 85.2 46.6 89l9.6 30.8v.3c-.8 1-4.5 1.5-6 1.6l-1.2.2q-4.5.6-8 .6a20 20 0 0 1-10-2c17.7-3.7 18.3-5.2 18.6-6q.3-.7-.1-1.4c-3.8-6-12.1-21.2-15.7-27.8m-.2-1.3c-.8 0-1.5.9-1 1.7 3.2 6 11.9 22 15.8 28.1 1 1.4-12.7 4.4-18 5.5-1 .2-1.2 1.6-.4 2.1 1.7 1 5 2.3 11 2.3q3.4 0 8.2-.6c2.3-.3 9-.5 8.2-3.6l-9.6-31q-.2-.5-.8-.7l-13-3.9z"/><path fill="currentColor" d="M101.4 118.3H99c-6.8-.5-9-2-9.6-3.2L81 91.2V91l8.9-9.9h.2q.3 0 .4.2l3.4 28.2c0 .5.2 1.7 15.3 7.5q.3.1.2.4l-.2.3a40 40 0 0 1-7.7.7"/><path d="M89.9 81.7c.8 6.8 2.5 22 3.3 27.7.1.8.3 2 15 7.7a39 39 0 0 1-9.1.6c-7.1-.4-8.8-2-9.2-2.8l-8.5-23.8zm.1-1.3q-.3 0-.6.3l-8.8 9.8q-.4.4-.2.9l8.5 24c1.5 2.9 8.1 3.3 10.1 3.4a39 39 0 0 0 10.2-.7c.9-.2 1-1.4.1-1.7a63 63 0 0 1-15-7.1L90.9 81q-.1-.7-.9-.7"/><path fill="currentColor" stroke="currentColor" stroke-linecap="round" stroke-linejoin="round" stroke-miterlimit="10" d="M34.3 9.1c.3.4 1 .4 1.3 0q.6-.7 0-1.3l-1.3-1.6c-1.3-1.6-2.5-.8-2.5-.8v-.5a1 1 0 0 0-1.2-.6s-1.6.3-1.7.2a1 1 0 0 0-1.3-.2l-2.3 1.9a23 23 0 0 0-2.7 8c-.6 6 .7 13.8 4.2 20.9 0 0 1.4-3.7 3-5.4a8 8 0 0 1 5.3-2.4s-.6-2.5-4.4-8.2q-2.3-3.5-2.1-5.3h2.9a1 1 0 1 0 0-1.9h-1.7c-2-1.2 0-3.1 1.2-3.9.7-.5 1.3-.2 1.3-.2zm69.5 15.5L101 22c-.9-.4-.8-.5-1.4 0-1.2 1 1.2 2.5 1.2 2.5-.1.1-2.8-1.6-2.8-1.6a1 1 0 0 0-1.2.2h0q-.4.8.2 1.3l1.8 1.3-2.9-.9a1 1 0 0 0-1 .6h0q-.3.9.5 1l1.8.7q0 0 0 0l.7 1.7c.5 1.1.4 2.5-.8 2.5h-1.3c-.8-.1-2.3 1.5 0 1.9l3.3.4c-.2 1.5-1.1 2.9-4.2 4.8-5.5 3.4-7 5.3-7 5.3 1.7.8 2.9 2.4 3.3 3.9.7 2-.2 6.5-.2 6.5 5.8-4.7 10.2-13 11.8-17.5v0c1.3-3.6.8-7.6.9-8 0 0 .4-3.7.2-4"/></svg>