<svg xml:space="preserve" width="16" height="16" viewBox="0 0 128 128"><path d="M29.7 41.3A3.7 3.7 0 0 0 26 45v7.6c0 1.4-1.1 2.5-2.5 2.5h-15A4.3 4.3 0 0 0 4 59.5v9.9C4 71.9 6.1 74 8.6 74h14.9c1.4 0 2.5 1.1 2.5 2.5V83a3.7 3.7 0 0 0 6.3 2.6l18.3-18.3a4.7 4.7 0 0 0 0-6.7L32.3 42.4a4 4 0 0 0-2.6-1.1" style="fill:#b0bec5"/><path d="M113.7 124H67a8.6 8.6 0 0 1-8.6-8.6V12.6c0-4.7 4-8.6 8.6-8.6h46.8c4.7 0 8.6 3.8 8.6 8.6v102.9c0 4.7-3.9 8.5-8.6 8.5" style="fill:#424242"/><path d="M113.1 120.1H66.3a4 4 0 0 1-4-3.9V19.7a4 4 0 0 1 4-4h48.1a4 4 0 0 1 3.9 4v95.9c0 1-1.4 4.5-5.2 4.5"/><path d="M100 11.6H80.8q-1.1-.2-1.2-1.2c-.1-1 .6-1.2 1.2-1.2h19q1.2.2 1.3 1.2-.1 1.3-1.1 1.2" style="fill:#212121"/><path d="M113.7 6c3.7 0 6.6 3 6.6 6.6v102.9c0 3.6-3 6.5-6.6 6.5H67c-3.6 0-6.6-3-6.6-6.6V12.6A6.5 6.5 0 0 1 67 6zm0-2H67a8.7 8.7 0 0 0-8.6 8.6v102.8c0 4.8 4 8.6 8.6 8.6h46.8c4.7 0 8.6-3.8 8.6-8.5V12.6c0-4.8-3.9-8.6-8.6-8.6" style="fill:#757575"/><path d="M74.7 30h-6.4q-1.2-.1-1.3-1.4v-6.3q.1-1.2 1.3-1.3h6.4q1.2.1 1.3 1.3v6.3q-.1 1.3-1.3 1.4" style="fill:#eab56e"/><path d="M87.2 30H81q-1.2-.1-1.3-1.4v-6.3q.1-1.2 1.3-1.3h6.3q1.3.1 1.4 1.3v6.3q-.1 1.3-1.4 1.4" style="fill:#fb8c00"/><path d="M99.8 30h-6.4q-1.2-.1-1.3-1.4v-6.3q.1-1.2 1.3-1.3h6.4q1.2.1 1.3 1.3v6.3Q101 30 99.8 30" style="fill:#ff80ab"/><path d="M112.3 30H106q-1.2-.1-1.3-1.4v-6.3q.1-1.2 1.3-1.3h6.3q1.3.1 1.4 1.3v6.3q-.1 1.3-1.4 1.4" style="fill:#0288d1"/><path d="M74.7 44.1h-6.4q-1.2-.1-1.3-1.3v-6.4q.1-1.2 1.3-1.3h6.4q1.2.1 1.3 1.3v6.4q-.1 1.2-1.3 1.3" style="fill:#00bfa5"/><path d="M87.2 44.1H81q-1.2-.1-1.3-1.3v-6.4q.1-1.2 1.3-1.3h6.3q1.3.1 1.4 1.3v6.4q-.1 1.2-1.4 1.3" style="fill:#81d4fa"/><path d="M99.8 44.1h-6.4q-1.2-.1-1.3-1.3v-6.4q.1-1.2 1.3-1.3h6.4q1.2.1 1.3 1.3v6.4q-.1 1.2-1.3 1.3" style="fill:#fb8c00"/><path d="M112.3 44.1H106q-1.2-.1-1.3-1.3v-6.4q.1-1.2 1.3-1.3h6.3q1.3.1 1.4 1.3v6.4q-.1 1.2-1.4 1.3" style="fill:#eab56e"/><path d="M74.7 58.3h-6.4q-1.2-.1-1.3-1.3v-6.4q.1-1.2 1.3-1.3h6.4q1.2.1 1.3 1.3V57q-.1 1.2-1.3 1.3" style="fill:#fb8c00"/><path d="M87.2 58.3H81q-1.2-.1-1.3-1.3v-6.4q.1-1.2 1.3-1.3h6.3q1.3.1 1.4 1.3V57q-.1 1.2-1.4 1.3" style="fill:#ff80ab"/><path d="M99.8 58.3h-6.4q-1.2-.1-1.3-1.3v-6.4q.1-1.2 1.3-1.3h6.4q1.2.1 1.3 1.3V57q-.1 1.2-1.3 1.3" style="fill:#00bfa5"/><path d="M112.3 58.3H106q-1.2-.1-1.3-1.3v-6.4q.1-1.2 1.3-1.3h6.3q1.3.1 1.4 1.3V57q-.1 1.2-1.4 1.3M74.7 72.4h-6.4q-1.2-.1-1.3-1.3v-6.3q.1-1.3 1.3-1.4h6.4q1.2.1 1.3 1.4V71q-.1 1.2-1.3 1.3" style="fill:#0288d1"/><path d="M87.2 72.4H81q-1.2-.1-1.3-1.3v-6.3q.1-1.3 1.3-1.4h6.3q1.3.1 1.4 1.4V71q-.1 1.2-1.4 1.3M74.7 115h-6.4q-1.2-.2-1.3-1.4v-6.4q.1-1.2 1.3-1.3h6.4q1.2.1 1.3 1.3v6.4q-.1 1.2-1.3 1.3" style="fill:#81d4fa"/><path d="M87.2 115H81q-1.2-.2-1.3-1.4v-6.4q.1-1.2 1.3-1.3h6.3q1.3.1 1.4 1.3v6.4q-.1 1.2-1.4 1.3" style="fill:#0288d1"/><path d="M99.8 115h-6.4q-1.2-.2-1.3-1.4v-6.4q.1-1.2 1.3-1.3h6.4q1.2.1 1.3 1.3v6.4q-.1 1.2-1.3 1.3" style="fill:#00bfa5"/><path d="M112.3 115H106q-1.2-.2-1.3-1.4v-6.4q.1-1.2 1.3-1.3h6.3q1.3.1 1.4 1.3v6.4q-.1 1.2-1.4 1.3" style="fill:#ff80ab"/></svg>