<svg xml:space="preserve" width="16" height="16" viewBox="0 0 128 128"><path d="M89.3 34C91.8 24 86.1 12.7 78 9.3c-6-2.5-13-2-19 .2C49.9 12.8 45.9 21 46.6 30c.3 4.6 1.6 7.2 3.3 10.8.8 2.4-3 5.4-3 8 0 2 4.3 2.3 4.7 2.6q.6.5 1 1.7c1.9 4.6 3.5 7.5 11.3 6.5 2.6-.4 5.1-1.4 5.7-1 .6.5 1 3.6 1.1 4.2.3 1.7-2 5.4-2 5.4l19.5-2.3 1.5.3S83.8 50 87.2 38.8c.5-1.5 1.8-3.7 2.1-4.9" style="fill:#ffca28"/><path d="m52.6 53.2 1.1-.1q1.5-.2 2.4-1c1.4-1 2.6 0 1.5 1.3q-1.2 1.5-2.9 2l-1 .2z" style="fill:#795548"/><path d="M94.9 32.6C92.4 18.6 85.7 5 66.3 6.2c-11.9.7-22.7 9.5-22.6 18 0 2.5 1.3 4.9 2.8 5.8 3 1.9 9.5 2.3 20.1 4.1 7.8 1.4 8.5 18.7 9.6 26.7l.4 4 8.4.6c4.4-.4 8.6-2.1 10.8-7.4 0 0 3.2-7.9-1-25.4" style="fill:#543930"/><radialGradient id="a" cx="69.4" cy="37.9" r="29.1" gradientTransform="rotate(-16.2 37.8 46.38)scale(1 1.258)" gradientUnits="userSpaceOnUse"><stop offset=".6" style="stop-color:#6d4c41;stop-opacity:0"/><stop offset="1" style="stop-color:#6d4c41"/></radialGradient><path d="M94.9 32.6C92.4 18.6 85.7 5 66.3 6.2 54.4 7 43.1 15.7 44 25q.3 3.5 2.6 5c3 1.9 9.6 2.3 20.1 4.1 7.8 1.4 8.8 20 9.2 22.7.2 2.1.9 7.3.8 7.7v.3l8.4.6c4.4-.4 8.6-2.1 10.8-7.4 0 0 3.2-7.9-1-25.4" style="fill:url(#a)"/><path d="M59.4 42.8c1.8 0-.8 2.3-3.2 2.4-1.7.1-3.8-.7-3-3.3.3-1.1 1 .8 2.5 1 1.5.3 3.7 0 3.7 0" style="fill:#404040"/><path d="M53.6 37.5c-2.1.5-2.6-.5-2-1.7q.7-1.4 4.4-.8c2.5.5 3.4 1.4 4 2.2q1 1.3.2 1.6c-.7.2-3.1-2-6.7-1.3" style="fill:#6d4c41"/><radialGradient id="b" cx="48.9" cy="97.6" r="45.2" gradientUnits="userSpaceOnUse"><stop offset=".3" style="stop-color:#a0f"/><stop offset="1" style="stop-color:#9500e0"/></radialGradient><path d="M36.1 124h57.5s-2.2-8-1.6-14.7c1-10.2 4.3-13.4 4.3-29.5 0-11.6-6.3-22-14.6-21.6-10.5.4-14 5.5-21.8 10.3C49.4 75 48.3 79.8 49 85.4c.3 1.8-.8 2.2-2 3-9.3 6-16 12-15.4 24.6a18 18 0 0 0 4.4 11" style="fill:url(#b)"/><linearGradient id="c" x1="62.5" x2="62.5" y1="81" y2="124.6" gradientUnits="userSpaceOnUse"><stop offset="0" style="stop-color:#ffb300"/><stop offset=".5" style="stop-color:#ffca28"/></linearGradient><path d="M88.2 71c-2.6-6-12.4-2.8-13.4 4.7-1 6.3 2 28.1 2 28.1s-7.3 4-15.7 5c-2 .3-5.8.4-6.4.2-1-.6-1.4-1.7-2-2.4q-.8-1.2-2-2.2l-2-1.2q-1.8-.7-3.6-1.7-.4-.2-.9-.1l-.3.3q-.4 1.1.5 2t1.9 1.4q1.3.7 1 1.9a25 25 0 0 1-5.9 0l-3.4-.6c-.6-.2-1.8-.6-2.2.3q-.2 1 .5 1.5h.1l-.6-.3-1-.2q-.8.3-.8 1c-.1 1.1 1 1.8 1.1 1.8 0 0-.7 0-.9.8q0 .8.6 1.7l1.3 1.2s-.6 0-.7.5q-.3 1.2 1.3 2s1.6 1 3.1 1.6a20 20 0 0 0 8.4 1.2c3.6-.4 31.9-2.7 37.3-4.5 5-1.8 5.1-5.8 5.4-9 .3-4 0-29-2.7-35" style="fill:url(#c)"/><path d="M43.3 109.9q1 0 .6.7c-.3.3-2.5-.2-3.8-.5a9 9 0 0 1-3.9-1.9l-.2-.3q1.9 1 4 1.4zm.2 4c0 .4-.6.3-1 .3q-2.5-.3-4.6-1.3c-2.9-1.3-3.2-2.6-3.2-2.6s2.2 1.3 3.4 1.8q2 .8 4.7 1.2c.2 0 .8 0 .7.5m.1 3.1c0 .5-.7.4-1.2.3 0 0-2-.3-4-1.2-2-1-3-2.4-3-2.4s2.2 1.3 3.2 1.6c.8.3 2.6.8 4 1 .3.1 1 .2 1 .7" style="fill:#eda600"/><path d="m77 91.3 12.6-.8c2.6-.1 4.5-1 4.4-3.3l-1.4-14.7c-1-7-5.1-8.5-11.2-8-6 .3-9.4 4.8-9.3 10.3l.5 14c0 2.2 1.9 2.7 4.5 2.5" style="fill:#7600b3"/></svg>