<svg xml:space="preserve" width="16" height="16" viewBox="0 0 128 128"><path d="M42.2 41.6V31h-.8v-6.5h8.2v6.4h-.8V37z" style="fill:#de7541"/><path d="m63.9 29.8-21 20 1 24.7 42.3-.3-.4-26z" style="fill:#fff3e1"/><path d="m42.2 74.6 2-1.2v-24l-1.9 1.4s.2 23.8-.1 23.8m42-24.3v23.3l2.2 1.3V51z" style="fill:#5f4e47"/><path d="M64.4 31.2 42.4 52l-.2-5.6L64.7 25l21.8 22.5v5z" style="fill:#bda890"/><path d="m40 45.3-1 3.3h3.4S64 27.3 64.5 27.3s22 21.2 22 21.2h3L65.8 22.8l-3.4-.3z" style="fill:#904625"/><path d="M36 47c-.7.6-.3 1.5.3 1.5h3.5l23.7-23.9s.5-.5 1-.5c.3 0 .9.6.9.6l23.9 23.8h2.3c1 0 1.1-1.1 0-2L67.2 22c-1.2-1.2-1.8-1.9-2.9-1.9s-1.8 1-2.9 2z" style="fill:#dc7540"/><path d="M56.9 72.5s0-14.2.2-17.5c0-3.4 3.2-6 6.7-6 4.6-.2 6.8 2.6 7 5.8l.1 17.7z" style="fill:#d27857"/><path d="M66.6 62.5q0 1.5 1.4 1.6c1.4.1 1.4-.5 1.5-1.4q0-1.5-1.5-1.6c-1.5 0-1.3.8-1.4 1.4" style="fill:#ffba02"/><path d="M60.2 44.8v-5.6c.1-1.8 1.8-3.3 3.8-3.3 2.4-.1 3.7 1.4 3.8 3.2v5.7z" style="fill:#a6cfd6"/><path d="M11.2 73.6V63.4h-.9v-6.3h8v6.2h-.8v6z" style="fill:#ab5832"/><path d="M33.2 61.9 11 83.2v25.1l45-.3.5-26.7z" style="fill:#ede0d6"/><path d="m10.1 109.7 2.2-.2V82.7l-2 1.4zm44.7-26.1-.1 24.8 2.5 1.5V84.5z" style="fill:#5f4e47"/><path d="m33.7 63.3-23.5 22v-6l23.9-22.6 23.1 24V86z" style="fill:#bcafaa"/><path d="m7.9 78.3-.3 3.5h2.6s23.1-22.6 23.6-22.6c.7 0 23.4 22.6 23.4 22.6h3l-25-27.5-3.6-.2z" style="fill:#7f4935"/><path d="M3.5 80c-.7.7-.3 1.8.3 1.8h3.8l25.2-25.5s.6-.6 1-.5 1 .6 1 .6l25.4 25.4h2.5c.8 0 1.1-1.1 0-2l-26-26.2c-1.3-1.3-2-2.1-3.1-2q-1.6.2-3.1 2z" style="fill:#bb8064"/><path d="m25.8 108.3.1-19.7c.2-3.5 3.4-6.3 7.3-6.4 4.8-.2 7.1 2.8 7.3 6.2s.2 20 .2 20z" style="fill:#865c51"/><path d="M36.1 96.7q0 1.5 1.5 1.7 1.6 0 1.6-1.6c0-.9-.6-1.7-1.6-1.6s-1.4.8-1.5 1.5" style="fill:#ffb700"/><path d="m10.1 109.7 2.2-2h42.4l2.5 2.2z" style="fill:#beb4ac"/><path d="M29.3 77.8v-6c0-2 2-3.5 4-3.5 2.6 0 4 1.5 4 3.4l.1 6z" style="fill:#6ca4ae"/><path d="M110.2 73.7V63.4h-.8v-6.3h8v6.2h-.9v11z" style="fill:#ab5832"/><path d="M94.1 62 72 83.5l1.5 25.8 43.7.4.4-28z" style="fill:#f5e1d1"/><path d="m71 110.3 2.2-.8V82.9l-2 1.4s.2 26-.2 26m44.8-26.5v25.6l2.4 1.2V84.7z" style="fill:#5f4e47"/><path d="M94.7 63.5 71.2 86.3v-6.8L95 56.9l23.2 24v5.3z" style="fill:#d2a67c"/><path d="m68.8 78.5-.4 3.4 2.8.1s23.1-22.6 23.6-22.6a791 791 0 0 1 23.4 22.5h3l-25-27.4-3.6-.2z" style="fill:#893f2e"/><path d="M64.5 80.3c-.7.6-.4 1.5.3 1.6h3.6l25.4-25.4s.5-.6 1-.5 1 .6 1 .6l25.4 25.3h2.5c1 0 1.3-1 0-2.1l-26-26c-1.3-1.3-2-2-3.1-2q-1.6.2-3.1 2z" style="fill:#c67260"/><path d="m86.7 108.5.2-19.7c.1-3.5 3.4-6.3 7.2-6.4 5-.1 7.2 2.8 7.4 6.3.2 3.4.2 19.8.2 19.8z" style="fill:#ab5832"/><path d="M97.1 96.9q0 1.6 1.5 1.7t1.6-1.6q0-1.6-1.6-1.6c-1 0-1.5.8-1.5 1.5" style="fill:#feb800"/><path d="m71 110.3 2.2-2h42.6l2.4 2.3z" style="fill:#d4a37d"/><path d="m90.2 78 .1-6c.1-2 1.9-3.5 4-3.5 2.6 0 4 1.5 4 3.4v6z" style="fill:#6ca4ae"/></svg>