<svg xml:space="preserve" width="16" height="16" viewBox="0 0 128 128"><circle cx="64" cy="66.6" r="57.4" style="fill:#d68f30"/><path d="M10.5 81.5v5.8l2 4.6V81.5zm6.5 11v7l2.6 3.4V92.5zm8.7 9.2v7.6l3 2.5v-10zm10.7 7v8.2l3 1.5v-9.7zm12.1 4.5v8.6l3 .8v-9.4zm14.1 1.5v9.2h3v-9.2zm14.2-1.7v9.5l3-.8v-8.6zm12.1-4.4v9.7l3-1.6v-8.1zm10.6-7.1v10.1l3-2.5v-7.6zm11.5-9.2h-2.4v10.3q1.3-1.5 2.5-3.3zm6.6-11.1h-2v10.5l2-4.7z" style="fill:#bc6f00"/><circle cx="64" cy="61.4" r="57.4" style="fill:#fff176"/><circle cx="64" cy="61.4" r="52.3" style="fill:#f2bc1a"/><path d="M11.7 63.4a52 52 0 0 1 14.3-38A53 53 0 0 1 64 9a53 53 0 0 1 49.1 34 51 51 0 0 1 3.2 20.3h-.2A53 53 0 0 0 84 15.1a52 52 0 0 0-68 28.3q-4 9.6-4 20z" style="fill:#e08f00"/><path d="M64 4a57.4 57.4 0 1 0 0 114.8A57.4 57.4 0 0 0 64 4m0 109.7A52.2 52.2 0 1 1 64 9.2a52.2 52.2 0 0 1 0 104.5" style="fill:#fff176"/><path d="m38 21.4 1.3 3.9 4.1-1.6v1.6L40 27.7l1.3 2.4v1.5L38 29.2l-3.4 2.4V30l1.3-2.3-3.3-2.4v-1.6l4.1 1.6zM22 44l1.3 3.8 4.1-1.5v1.5l-3.3 2.5 1.3 2.3v1.6L22 51.8l-3.3 2.4v-1.6l1.3-2.3-3.4-2.5v-1.5l4.1 1.5zm-.5 27.7 1.3 4L27 74v1.6L23.7 78l1.3 2.3V82l-3.4-2.4-3.3 2.4v-1.6l1.3-2.3-3.4-2.4V74l4.2 1.6zm17.1 22.1 1.3 4 4.1-1.6v1.5l-3.3 2.5 1.3 2.3v1.6l-3.4-2.4-3.3 2.4v-1.6l1.2-2.3-3.3-2.5v-1.5l4.1 1.5zM90 21.4l-1.3 3.9-4.1-1.6v1.6l3.4 2.4-1.3 2.4v1.5l3.3-2.4 3.4 2.4V30L92 27.8l3.3-2.4v-1.6l-4.1 1.6zM106 44l-1.3 3.8-4.1-1.5v1.5l3.3 2.5-1.3 2.3v1.6l3.4-2.4 3.3 2.4v-1.6l-1.2-2.3 3.3-2.5v-1.5l-4.1 1.5zm.5 27.7-1.3 4L101 74v1.6l3.4 2.4-1.3 2.3V82l3.4-2.4 3.3 2.4v-1.6l-1.3-2.3 3.4-2.4V74l-4.2 1.6zM89.4 93.8l-1.3 4-4.1-1.6v1.5l3.3 2.5-1.2 2.3v1.6l3.3-2.4 3.3 2.4v-1.6l-1.2-2.3 3.3-2.5v-1.5l-4.1 1.5z" style="fill:#d38200"/><path d="m89.4 92.2 1.3 4h4.1l-3.3 2.4 1.2 3.9-3.3-2.4-3.4 2.4 1.3-4-3.3-2.4h4zm17.1-22.1 1.2 4h4.2l-3.4 2.4 1.3 4-3.3-2.5-3.4 2.4 1.3-3.9-3.4-2.4h4.2zm-.5-27.8 1.3 4h4.1l-3.4 2.4 1.3 4-3.3-2.5-3.4 2.4 1.3-4-3.3-2.3h4.1zM90 19.8l1.3 3.9h4.1L92.1 26l1.3 4-3.4-2.5-3.3 2.4L88 26l-3.4-2.4h4.1z" style="fill:#fff176"/><path d="m64 102.5 1.3 4 4.2-1.7v1.6L66 109l1.3 2.3v1.6l-3.4-2.4-3.3 2.4v-1.6L62 109l-3.4-2.5v-1.6l4.2 1.6z" style="fill:#d38200"/><path d="m64 100.4 1.3 4h4.2l-3.4 2.4 1.3 3.9-3.4-2.4-3.3 2.4 1.3-4-3.4-2.4h4.2z" style="fill:#fff176"/><path d="m64 12.9 1.3 4 4.2-1.7v1.6L66 19.2l1.3 2.4v1.6L64 20.8l-3.3 2.4v-1.6l1.3-2.4-3.4-2.4v-1.6l4.2 1.6z" style="fill:#d38200"/><path d="m64 11.3 1.3 4h4.2L66 17.6l1.3 3.9-3.4-2.4-3.3 2.4 1.3-4-3.4-2.4h4.2zM38.6 92.2l-1.3 4h-4.1l3.3 2.4-1.2 3.9 3.3-2.4 3.4 2.4-1.3-4 3.3-2.4h-4zM21.5 70.1l-1.2 4H16l3.4 2.4-1.3 4 3.3-2.5 3.4 2.4-1.3-3.9 3.3-2.4h-4zm.5-27.8-1.3 4h-4.1l3.3 2.4-1.2 4 3.3-2.5 3.4 2.4-1.3-4 3.3-2.3h-4.1zm16-22.5-1.3 3.9h-4.1l3.3 2.4-1.3 4 3.4-2.5 3.3 2.4-1.2-3.9 3.3-2.4h-4.1z" style="fill:#fff176"/><path d="M95.2 48.2c0-.3-62.4 0-62.4 0l-.5 1.7v2.9q0 .8 1 .9h61.5q.9 0 1-1V50zm.1 37.3H33.1l-4.2 2v2.8q.1.5.6.5h69q.5 0 .5-.5v-2.7zm-52.2-8.2h-3.5c-.6 0-1.1-1.8-1.1-2.4l5.7-.2c0 .6-.5 2.6-1 2.6M44.4 58h-6a1 1 0 0 1-1-.7l-.5-4h8.8l-.4 4a1 1 0 0 1-1 .7m-6 20.5h6c.5 0 1.4.3 1.5.7v2.6q0 1.2-1 1.3h-7q-1-.1-1-1.3v-2.6c.2-.4 1-.7 1.5-.7m51.3-1.2h-3.5c-.6 0-1.1-1.8-1.1-2.4l5.7-.2c0 .6-.5 2.6-1 2.6M90.9 58h-6a1 1 0 0 1-1-.7l-.5-4h8.8l-.4 4a1 1 0 0 1-1 .7m-6 20.5h6c.5 0 1.4.3 1.5.7v2.6q0 1.2-1 1.3h-7q-1-.1-1-1.3v-2.6c.2-.4 1-.7 1.5-.7m-10.7-1.2h-3.5c-.6 0-1.1-1.8-1.1-2.4l5.7-.2c0 .6-.5 2.6-1 2.6M75.4 58h-6a1 1 0 0 1-1-.7l-.5-4h8.8l-.4 4a1 1 0 0 1-1 .7m-6 20.5h6c.5 0 1.4.3 1.5.7v2.6q0 1.2-1 1.3h-7q-1-.1-1-1.3v-2.6c.2-.4 1-.7 1.5-.7m-10.7-1.2h-3.5c-.6 0-1.1-1.8-1.1-2.4l5.7-.2c0 .6-.5 2.6-1 2.6M59.9 58h-6a1 1 0 0 1-1-.7l-.5-4h8.8l-.4 4a1 1 0 0 1-1 .7m-6 20.5h6c.5 0 1.4.3 1.5.7v2.6q0 1.2-1 1.3h-7q-1-.1-1-1.3v-2.6c.2-.4 1-.7 1.5-.7" style="fill:#d38200"/><path d="M95.7 45.5a1 1 0 0 0-.5-.8L64 27 32.8 44.7a1 1 0 0 0-.5.8V50q0 .9 1 1h61.4q1-.1 1-1z" style="fill:#fff176"/><path d="M87.8 44.3 64 30.8 40.2 44.3z" style="fill:#f2bc1a"/><path d="M79 42.7 64 34l-15 8.6zM93.4 82H34.6a2 2 0 0 0-1.5.7l-4 4.5q-.4.6.3.8h69.2q.7-.2.4-.8l-4.1-4.5a2 2 0 0 0-1.5-.7m-3.8-6.5h-3.5a1 1 0 0 1-1.1-1v-16q.1-1 1-1.1h3.6q1 .1 1.1 1v16q-.1 1-1 1.1m1.2-19.3h-6a1 1 0 0 1-1-.7l-.5-1.6a1 1 0 0 1 1-1.3h7a1 1 0 0 1 .9 1.3l-.5 1.6a1 1 0 0 1-1 .7m-6 20.5h6q.8 0 1 .7l.5 1.6a1 1 0 0 1-1 1.3h-7a1 1 0 0 1-1-1.3l.5-1.6a1 1 0 0 1 1-.7m-41.7-1.2h-3.5a1 1 0 0 1-1.1-1v-16q.1-1 1-1.1h3.6q1 .1 1.1 1v16q-.1 1-1 1.1m1.2-19.3h-6a1 1 0 0 1-1-.7l-.5-1.6a1 1 0 0 1 1-1.3h7a1 1 0 0 1 .9 1.3l-.5 1.6a1 1 0 0 1-1 .7m-6 20.5h6q.8 0 1 .7l.5 1.6a1 1 0 0 1-1 1.3h-7a1 1 0 0 1-1-1.3l.6-1.6a1 1 0 0 1 1-.7m20.2-1.2h-3.5a1 1 0 0 1-1.1-1v-16q.1-1 1-1.1h3.6q1 .1 1.1 1v16q-.1 1-1 1.1m1.2-19.3h-6a1 1 0 0 1-1-.7l-.5-1.6a1 1 0 0 1 1-1.3h7a1 1 0 0 1 .9 1.3l-.5 1.6a1 1 0 0 1-1 .7m-6 20.5h6q.8 0 1 .7l.5 1.6a1 1 0 0 1-1 1.3h-7a1 1 0 0 1-1-1.3l.6-1.6a1 1 0 0 1 1-.7m20.2-1.2h-3.5a1 1 0 0 1-1.1-1v-16q.1-1 1-1.1h3.6q1 .1 1.1 1v16q-.1 1-1 1.1m1.2-19.3h-6a1 1 0 0 1-1-.7l-.5-1.6a1 1 0 0 1 1-1.3h7a1 1 0 0 1 .9 1.3l-.5 1.6a1 1 0 0 1-1 .7m-6 20.5h6q.8 0 1 .7l.5 1.6a1 1 0 0 1-1 1.3h-7a1 1 0 0 1-1-1.3l.5-1.6a1 1 0 0 1 1-.7" style="fill:#fff176"/></svg>