<svg xml:space="preserve" width="16" height="16" viewBox="0 0 128 128"><path d="M77 58.9H47.7s10-8 10-40.5h9.7C67.3 49.4 77 59 77 59m8.4 5.3H39.5a3 3 0 1 1 0-5.9h46a3 3 0 1 1 0 5.9" style="fill:#607d8b"/><path d="M62.8 55.2q-6.7 0-11.5-1.4-2.2 3.8-3.2 4.7h28.6a24 24 0 0 1-2.9-4.5q-4.6 1.1-11 1.2" style="fill:#37474f"/><path d="M124 34.7 4 8.5v-4l120 26z" style="fill:#9e9e9e"/><path d="M93 15.5 34.8 4q-2-.1-2.3 1.8c-.1 2.4-1.1 6 4.9 7.2 6.7 1.3 14 3.3 14 3.3 3.4.7 5.8 3.6 6 7q.1 1.8 2 2.3l4.1.9q2 .3 2.8-1.4c1.5-3 4.9-4.7 8.3-4a290 290 0 0 0 22.1 3.8s1.6-8-3.9-9.4" style="fill:#607d8b"/><circle cx="51.3" cy="13.4" r="5.3" style="fill:#37474f"/><circle cx="39.7" cy="11.1" r="5.3" style="fill:#37474f"/><circle cx="87.9" cy="20.9" r="5.3" style="fill:#37474f"/><circle cx="76.3" cy="18.5" r="5.3" style="fill:#37474f"/><circle cx="50.8" cy="15.7" r="5.3" style="fill:#82aec0"/><circle cx="39.2" cy="13.3" r="5.3" style="fill:#82aec0"/><circle cx="87.8" cy="23.3" r="5.3" style="fill:#82aec0"/><circle cx="76.1" cy="20.9" r="5.3" style="fill:#82aec0"/><path d="M35.9 12.4q.4-1.2 1.4-1.8t2.3-.5m7.9 4.4q1.4-2 3.8-1.9m21.5 6.6a4 4 0 0 1 3.8-2.3m8 4.7a3.4 3.4 0 0 1 4-1.7" style="fill:none;stroke:#94d1e0;stroke-width:2;stroke-miterlimit:10"/><path d="M29.2 62.2h65.5c7.2 0 11.6 3.4 11.6 3.4H18.5s4-3.4 10.7-3.4" style="fill:#82aec0"/><path d="M62.4 123.3v-3.4m45.6 0H62.4v3.4h35.5c6.8 0 10-3.4 10-3.4" style="fill:#01579b"/><path d="M108.5 65.7H16.3l-7.8 5.8.1 35.9c0 7.4 8.2 12.6 8.2 12.6H108s8.2-5.2 8.2-12.6l.1-35.9z" style="fill:#0288d1"/><path d="M16.8 119.9h45.6v3.4H26.8c-6.7 0-10-3.4-10-3.4" style="fill:#01579b"/><path d="M116.3 82.8V71.4c0-2.1-6.9-5.8-8.7-5.8H17.3c-1.8 0-8.7 3.7-8.7 5.8v11.4h22.1S36.9 92 62.3 92s32-9.2 32-9.2z" style="fill:#e0e0e0"/><path d="M94 104.5V79.8c0-1.6 1.2-2.9 2.8-2.9h19.5l-.2 30.4H96.8a3 3 0 0 1-2.9-2.8" style="fill:#37474f"/><path d="M95.6 102.4V81.6c0-1.2 1-2.1 2.1-2.1l18.6-.1-.2 25.2H97.7q-2-.2-2.1-2.2" style="fill:#bae2fd"/><path d="M82.4 120.9H63.9q-1.3-.2-1.4-1.5v-44q.1-1.6 1.7-1.8h18.2c1.9 0 3.4 1.6 3.4 3.5v40.3c0 2-1.5 3.5-3.4 3.5z" style="fill:#0288d1;stroke:#01579b;stroke-width:2;stroke-miterlimit:10"/><path d="M80.2 76.9h-12a3 3 0 0 0-2.6 2.6v25c0 1.5 1.2 2.7 2.7 2.7h11.9c1.4 0 2.6-1.2 2.6-2.7v-25c0-1.4-1.2-2.6-2.6-2.6" style="fill:#37474f"/><path d="M79 79.5h-9.6a2 2 0 0 0-2 2v21q.2 1.9 2 2H79a2 2 0 0 0 2-2v-21a2 2 0 0 0-2-2" style="fill:#bae2fd"/><path d="M42.6 120.9H61q1.4-.2 1.5-1.5v-44q-.1-1.6-1.8-1.8H42.5a3.5 3.5 0 0 0-3.4 3.5v40.3c0 2 1.5 3.5 3.4 3.5z" style="fill:#0288d1;stroke:#01579b;stroke-width:2;stroke-miterlimit:10"/><path d="M16 68.6c2.1-2.2 5-2 6.8-2h16.5a1 1 0 0 1 .7 1.8l-.2.2a8 8 0 0 1-5.6 2.3l-13.8-.3c-.6 0-6.7.3-4.5-2" style="fill:#fafafa"/><path d="M30.9 104.5V79.8c0-1.6-1.3-2.9-2.9-2.9H8.5l.2 30.4H28c1.6 0 2.9-1.2 2.9-2.8" style="fill:#37474f"/><path d="M29.2 102.4V81.6c0-1.2-1-2.1-2.1-2.1l-18.6-.1.2 25.2H27q2-.2 2.1-2.2" style="fill:#bae2fd"/><path d="M44.6 76.9h12c1.4 0 2.6 1.2 2.6 2.6v25c0 1.5-1.2 2.7-2.7 2.7H44.6a3 3 0 0 1-2.6-2.7v-25c0-1.4 1.2-2.6 2.6-2.6" style="fill:#37474f"/><path d="M45.8 79.5h9.6a2 2 0 0 1 2 2v21a2 2 0 0 1-2 2h-9.6a2 2 0 0 1-2-2v-21q.2-1.8 2-2" style="fill:#bae2fd"/></svg>