<svg xml:space="preserve" width="16" height="16" viewBox="0 0 128 128"><path d="M83.2 79.9c-1.3-2.3.3-4.6 3-7.5 4.3-4.5 9-15 4.7-25.8 0 0-1-1.8-.9-1.9h-1.8a3374 3374 0 0 0-80 0s-2.6 1.9-2.5 2a25 25 0 0 0 4.6 25.7c2.7 2.9 4.3 5.2 3 7.4-1.1 2.3-4.7 2.6-4.7 2.6s.8 2.2 2.8 3.4c1.8 1.2 4.1 1.4 5.7 1.5 0 0 6.1 8.5 22.2 8.5h18c16 0 22.1-8.5 22.1-8.5 1.6 0 3.9-.3 5.7-1.4 2-1.3 2.9-3.5 2.9-3.5s-3.6-.3-4.8-2.6" style="fill:#ab872f"/><radialGradient id="a" cx="115.4" cy="45.8" r="23.4" gradientTransform="matrix(1 0 0 .491 -52.55 59.63)" gradientUnits="userSpaceOnUse"><stop offset=".7" style="stop-color:#bfa055;stop-opacity:0"/><stop offset="1" style="stop-color:#bfa055"/></radialGradient><path d="M48.2 95.8v-9.4L76.8 84l2.6 3.2s-6.1 8.5-22.2 8.5z" style="fill:url(#a)"/><radialGradient id="b" cx="92.3" cy="49.3" r="6.9" gradientTransform="rotate(155 84.43 56.92)scale(1 .742)" gradientUnits="userSpaceOnUse"><stop offset=".7" style="stop-color:#bfa055"/><stop offset="1" style="stop-color:#bfa055;stop-opacity:0"/></radialGradient><path d="M79.4 83.2c-4.3-6.5 5.2-9 5.2-9q-2.7 3-1.5 5.6c1.2 2.3 4.8 2.6 4.8 2.6s-4.9 4.3-8.6.8" style="fill:url(#b)"/><radialGradient id="c" cx="110.3" cy="68.9" r="30.4" gradientTransform="rotate(-94.3 89.88 77.88)scale(1 .833)" gradientUnits="userSpaceOnUse"><stop offset=".7" style="stop-color:#bfa055;stop-opacity:0"/><stop offset="1" style="stop-color:#bfa055"/></radialGradient><path d="M90.9 46.7c4.2 10.3-.3 21-4.4 25.5-.6.6-3 3-3.6 4.9 0 0-9.5-13.3-12.4-21.1q-1-2.4-1.2-5 0-2 .9-3.8a111 111 0 0 1 20.2-1.7z" style="fill:url(#c)"/><radialGradient id="d" cx="28.6" cy="68.9" r="30.4" gradientTransform="rotate(-85.7 91.35 .83)scale(1 -.833)" gradientUnits="userSpaceOnUse"><stop offset=".7" style="stop-color:#bfa055;stop-opacity:0"/><stop offset="1" style="stop-color:#bfa055"/></radialGradient><path d="M5.7 46.7c-4.3 10.3.2 21 4.4 25.5.5.6 3 3 3.5 4.9 0 0 9.6-13.3 12.4-21.2q1-2.3 1.2-4.8.1-2.1-.9-3.9c-.9-1.3-1.9-1-3.4-1-2.9 0-15.5-.7-16.5-.7z" style="fill:url(#d)"/><radialGradient id="e" cx="33.7" cy="45.8" r="23.4" gradientTransform="matrix(-1 0 0 .491 67.39 59.63)" gradientUnits="userSpaceOnUse"><stop offset=".7" style="stop-color:#bfa055;stop-opacity:0"/><stop offset="1" style="stop-color:#bfa055"/></radialGradient><path d="M48.3 95.8v-9.4L19.7 84l-2.6 3.2s6.2 8.5 22.2 8.5z" style="fill:url(#e)"/><radialGradient id="f" cx="10.6" cy="49.3" r="6.9" gradientTransform="rotate(205 4.68 55.27)scale(-1 .742)" gradientUnits="userSpaceOnUse"><stop offset=".7" style="stop-color:#bfa055"/><stop offset="1" style="stop-color:#bfa055;stop-opacity:0"/></radialGradient><path d="M17.2 83.2c4.3-6.5-5.2-9-5.2-9 1.6 2 2.4 3.9 1.4 5.6-1.2 2.3-4.8 2.6-4.8 2.6s4.9 4.3 8.6.8" style="fill:url(#f)"/><linearGradient id="g" x1="50.1" x2="50.1" y1="32" y2="4" gradientTransform="matrix(1 0 0 -1 0 128)" gradientUnits="userSpaceOnUse"><stop offset="0" style="stop-color:#f78c1f"/><stop offset=".5" style="stop-color:#f37f12"/><stop offset="1" style="stop-color:#ef6c00"/></linearGradient><path d="M96.3 124v-2.9c0-16.7-23.6-25.1-47.7-25.1-18.3 0-36.9 4.4-44.6 14.3V124z" style="fill:url(#g)"/><path d="M39 89v10c0 4.4 3.6 8.1 8.2 8.1h1.6c4.6 0 8.3-3.7 8.3-8.2V89zm36.6-38.6H20.9c-5.9 0-10.7 5.2-10.7 11.4S15 73.3 21 73.3h54.7c5.9 0 10.7-5.2 10.7-11.5s-4.8-11.4-10.7-11.4" style="fill:#c48e6a"/><path d="M48.3 11c-17.4 0-33.6 18.7-33.6 45.5 0 26.6 16.6 39.8 33.6 39.8S81.8 83 81.8 56.5C81.8 29.7 65.7 11 48.3 11" style="fill:#e0bb95"/><ellipse cx="31.8" cy="58.8" rx="4.9" ry="5.1" style="fill:#5d4037"/><ellipse cx="64.7" cy="58.8" rx="4.9" ry="5.1" style="fill:#5d4037"/><path d="M39.2 49.8c-.9-1.2-3-3-7.2-3s-6.3 1.8-7.2 3q-.5 1 0 1.6t1.9.4c1.5-.2 2.5-1.2 5.3-1.2s4.5.9 5.4 1.2q1.3.3 1.9-.4t0-1.6m32.4 0c-.9-1.2-3-3-7.2-3s-6.3 1.8-7.2 3q-.5 1 0 1.6t1.8.4c1.3-.2 2.6-1.2 5.4-1.2s4.5.9 5.3 1.2q1.5.3 2-.4t0-1.6" style="fill:#ab872f"/><path d="M56.7 76.1a26 26 0 0 1-16.8 0c-1.9-1-3.7.6-3 2.3s6.5 5.4 11.4 5.4 10.5-3.8 11.3-5.4-1.1-3.4-3-2.3" style="fill:#6d4c41"/><path d="M52.1 68h-7.7q-1 .5-.7 1.7c.3.7 1.7 2.7 4.6 2.7s4.2-2 4.5-2.7q.4-1.2-.7-1.6" style="fill:#c48e6a"/><g style="opacity:.28"><linearGradient id="h" x1="79.3" x2="71.6" y1="14.5" y2="16.2" gradientTransform="matrix(1 0 0 -1 0 128)" gradientUnits="userSpaceOnUse"><stop offset=".3" style="stop-color:#262626"/><stop offset="1" style="stop-color:#262626;stop-opacity:0"/></linearGradient><path d="M81.5 102.7c-1.6-1.5-7.2-3-7.2-3L68.8 124h9.5z" style="fill:url(#h)"/></g><linearGradient id="i" x1="108.2" x2="100.2" y1="64.1" y2="52.9" gradientTransform="matrix(1 0 0 -1 0 128)" gradientUnits="userSpaceOnUse"><stop offset=".5" style="stop-color:#e0bb95"/><stop offset="1" style="stop-color:#cca47a"/></linearGradient><path d="M91.3 74.2c2.6.2 6.3 1 8.2.6 1.6-.3 2-1.8 3.7-2.2l19.7-4.5c2.2-.5 3-4.5-1.6-5.3S107.4 64 107.4 64s.5-1.4.2-2.4c-1-2.3-4-1.5-5.7-1l-10.6 3c-5.4 1.8-5.1 10.3 0 10.6" style="fill:url(#i)"/><linearGradient id="j" x1="90" x2="90" y1="55.9" y2="10.7" gradientTransform="matrix(1 0 0 -1 0 128)" gradientUnits="userSpaceOnUse"><stop offset="0" style="stop-color:#f78c1f"/><stop offset=".5" style="stop-color:#f37f12"/><stop offset="1" style="stop-color:#ef6c00"/></linearGradient><path d="M102.6 73.7q-.1-1.5-1.6-1.7l-12.8-.8q-1.5 0-1.8 1.6L75.6 124h29z" style="fill:url(#j)"/><path d="M88.3 25.1c-2.4-3.7-7.9-8.6-12.8-9-.8-4.7-5.8-8.7-10.7-10.2a31 31 0 0 0-26.5 3c-1 .5-7.2 4-11.5 1.5-2.7-1.5-2.7-5.7-2.7-5.7S15.6 7.9 18.5 17a10 10 0 0 0-8.8 5.4 14 14 0 0 0-.8 11A11 11 0 0 0 5.3 46c1.7 4.4 8.2 6.5 8.2 6.5-.4 8 1 13 1.8 15q.5.4.8-.1c1-4 4.3-17.8 4-20.2 0 0 11.3-2.3 22.2-10.3a32 32 0 0 1 7-4c13.7-5.4 16.5 3.8 16.5 3.8S75.2 35 78.1 48c1 5 1.8 12.8 2.4 18.3 0 .3.5.4.7 0 1-2.1 2.8-6.4 3.3-10.8.2-1.6 4.3-3.6 6.1-10.3 2.5-8.9-.5-17.4-2.3-20" style="fill:#ab872f"/><radialGradient id="k" cx="66.3" cy="84.9" r="35.6" gradientTransform="rotate(72 -6.62 -9.99)scale(1 -.742)" gradientUnits="userSpaceOnUse"><stop offset=".7" style="stop-color:#bfa055;stop-opacity:0"/><stop offset="1" style="stop-color:#bfa055"/></radialGradient><path d="M84.5 55.5c.1-1.5 4.3-3.6 6.1-10.3l.5-2.1a27 27 0 0 0-2.8-18 22 22 0 0 0-11.7-8.8l-1.1-.1s.3 2.1-.6 3.8c-1 2.3-3.4 2.8-3.4 2.8 12 12 11.1 22 13 32.7" style="fill:url(#k)"/><radialGradient id="l" cx="31.5" cy="123.8" r="9.3" gradientTransform="rotate(28.2 -269 -71.28)scale(1 -1.186)" gradientUnits="userSpaceOnUse"><stop offset=".6" style="stop-color:#bfa055"/><stop offset="1" style="stop-color:#bfa055;stop-opacity:0"/></radialGradient><path d="m41.2 7.4-2.9 1.5c-1 .5-7.2 4-11.5 1.5-2.7-1.5-2.7-5.6-2.7-5.7-1.2 1.6-5 12.8 6 13.5 4.7.3 7.5-3.8 9.3-7.2z" style="fill:url(#l)"/><radialGradient id="m" cx="166.2" cy="48.8" r="28.7" gradientTransform="matrix(-.938 -.394 -.218 .528 218.9 60.94)" gradientUnits="userSpaceOnUse"><stop offset=".7" style="stop-color:#bfa055;stop-opacity:0"/><stop offset="1" style="stop-color:#bfa055"/></radialGradient><path d="M63.4 5.5c7.3 2 10.9 5.7 12 10.6.4 1.5.9 15.1-25.1-.4-9.7-5.7-7-9.3-6-9.7a31 31 0 0 1 19.1-.5" style="fill:url(#m)"/><radialGradient id="n" cx="27.8" cy="115.3" r="8.6" gradientTransform="matrix(1 0 0 -1.223 0 153.74)" gradientUnits="userSpaceOnUse"><stop offset=".7" style="stop-color:#bfa055;stop-opacity:0"/><stop offset="1" style="stop-color:#bfa055"/></radialGradient><path d="M24.1 4.7c-1 .4-8.3 3.8-5.6 12.3l7.8 1.2c-6.9-7-2.2-13.5-2.2-13.5" style="fill:url(#n)"/><radialGradient id="o" cx="26.6" cy="100.1" r="16.1" gradientTransform="rotate(-165 34.5 -32.8)scale(1 -.936)" gradientUnits="userSpaceOnUse"><stop offset=".7" style="stop-color:#bfa055;stop-opacity:0"/><stop offset="1" style="stop-color:#bfa055"/></radialGradient><path d="m23.3 17.7-4.8-.7h-1.2a10 10 0 0 0-7.6 5.4 14 14 0 0 0-1.3 9.4l.5 1.6s2.3-2.3 8-2.4z" style="fill:url(#o)"/><radialGradient id="p" cx="22.8" cy="84.6" r="16.9" gradientTransform="rotate(187.8 -2.58 79.58)scale(-1 1.405)" gradientUnits="userSpaceOnUse"><stop offset=".6" style="stop-color:#bfa055;stop-opacity:0"/><stop offset="1" style="stop-color:#bfa055"/></radialGradient><path d="M8.6 33.6a11 11 0 0 0-3.2 12.6c1.8 4.4 8.1 6.3 8.1 6.3s1.3.4 2 .4l1.4-22c-3 0-6 1-7.8 2.3z" style="fill:url(#p)"/></svg>