<svg xml:space="preserve" width="16" height="16" viewBox="0 0 128 128"><path d="M4.8 72v4.5q0 2 2.3 1.9l42 .4.7-12.7zm70.6-1.7 2.5 8.2h42.6q2.3.3 2.4-1.8l.2-7.3-28.7-3.9zm-28 43.7v6.7c0 2.1.5 3.9 4.7 3.9l23.1-.2c1.8 0 3.2-1 3.3-3s.5-9.6-.3-9.5H59.6z" style="fill:#464c4f"/><path d="M7.9 48.6c-2.4 0-3 1-3.1 3.6s0 17.3 0 18.6 0 3.4 1.8 3.5h40.8v39.8c0 2.1 1.6 4.8 6 5.1s16.7.2 19.7.2 5.3-1.1 5.5-3.7l.1-41.4 41-.2c2.6 0 3.4-1.5 3.4-5.2.1-3.6-.1-15-.1-17q.1-3.2-4.3-3l-40.4-.2v-42c0-2-.7-3-4-3H50.7q-3 .1-3 3.8l-.2 41.3s-37.5-.3-39.6-.2" style="fill:#616266"/><path d="M9.7 53.1c-1.6 1.8-2 12.2 1 12.2 3.2 0 2.1-5 6.5-6.7s6.4-2.6 6.5-4.4c.2-3-12.2-3-14-1M65.5 9c.1 2.1-5.3 3-7.4 5-2.2 2.1-3.5 5.4-5.1 5.3-1.6 0-2.8-3-2.4-6.4S54 7.4 58.2 7s7.2.3 7.3 2" style="fill:#9a9a9a"/></svg>