<svg xml:space="preserve" width="16" height="16" viewBox="0 0 128 128"><path d="M4 83V45c0-5.3 4.3-9.6 9.5-9.6h101c5.2 0 9.5 4.3 9.5 9.6v38c0 5.3-4.3 9.6-9.5 9.6h-101A9.5 9.5 0 0 1 4 83" style="fill:#424242"/><circle cx="27.3" cy="65.3" r="13.4" style="fill:#4caf50"/><path d="M18 66.4c-1.2-.3-1.5-4.3 1.1-7.5 4-4.8 9.8-4.7 10.4-2.2.8 3.6-3.7 2.2-7.1 5-2.2 1.9-2.7 5.3-4.5 4.7" style="fill:#6fd86f"/><circle cx="64" cy="65.3" r="13.4" style="fill:#ffca28"/><path d="M54.6 66.5c-1.1-.4-1.4-4.4 1.3-7.6 4-4.8 9.7-4.7 10.3-2.1.8 3.5-3.7 2.1-7.1 5-2.2 1.8-2.6 5.2-4.5 4.7" style="fill:#fff59d"/><circle cx="100.7" cy="65.3" r="13.4" style="fill:#f44336"/><path d="M91.4 66.5c-1.2-.4-1.5-4.4 1.2-7.6 4-4.8 9.7-4.7 10.3-2.1.8 3.5-3.7 2.1-7.1 5-2.2 1.8-2.6 5.2-4.5 4.7" style="fill:#ff8155"/><path d="M12.8 58.8c-.5.9-2 .9-1.8-.5.3-3.5 2.3-6.1 3.9-7.8a17.3 17.3 0 0 1 24.9 0c1.5 1.6 3.8 5.3 3.8 7.9 0 1-1.3 1.4-1.7.5-1.2-2.3-4.7-9.6-14.6-9.6s-13.4 7.3-14.5 9.5m36.7 0c-.5.9-2 .9-1.8-.5.3-3.5 2.3-6.1 3.9-7.8a17.3 17.3 0 0 1 24.9 0c1.5 1.6 3.8 5.3 3.8 7.9 0 1-1.3 1.4-1.7.5-1.2-2.3-4.7-9.6-14.6-9.6s-13.4 7.3-14.5 9.5m36.7 0c-.5.9-2 .9-1.8-.5.3-3.5 2.3-6.1 3.9-7.8a17.3 17.3 0 0 1 24.9 0c1.5 1.6 3.8 5.3 3.8 7.9 0 1-1.3 1.4-1.7.5-1.2-2.3-4.7-9.6-14.6-9.6s-13.4 7.3-14.5 9.5" style="fill:#757575"/></svg>