<svg xml:space="preserve" width="16" height="16" viewBox="0 0 128 128"><path d="m99.9 12.8 1.3 2c.5.6.3 1.8-.2 2.2s-1.6.8-2.2.5l-2.1-1.2c-1-.6-1.2-1.9-.4-2.6l1-1.1c.8-.7 2-.6 2.6.2m9.5-7.8 1.4 2q.6 1.2-.1 2.2c-.4.6-1.7.9-2.4.5l-2-1.2c-1-.5-1.2-1.8-.4-2.6l1-1c.7-.8 2-.7 2.5.2" style="fill:#b0bec5"/><path d="M98.9 30.8c3.4-3 6.3-2.3 8-2.7q2.8-.4 4.6-2.5-.8-1.6-.2-3.1c.8-1.3 2.4-1.7 4-1.7 1.4 0 3.1.3 4.5-.5 1.5-1 1.8-2.9 1.9-4.5v-3.2s-3.8-2-5-2z" style="fill:#784d30"/><path d="m110.2 29.6-1.4-2q-.7-1 .2-2l.3-.3q.8-.9 2-.3l2.1 1.2c1 .5 1.1 1.8.4 2.6l-1.1 1c-.7.8-2 .7-2.5-.2m10-7.3-1.4-2q-.7-1 .2-2l.3-.4q.9-.8 2-.2l2 1.1c1 .6 1.2 1.9.5 2.6l-1.1 1.1c-.7.8-2 .6-2.5-.2" style="fill:#b0bec5"/><path d="M107.8 21.7c-13.3 13.7-27 27-40 40.9q-.5.8-.3 1.8l.8 2.6c.3 2.5-1.5 4.8-3.5 6q-.3.3 0 .7l1 1.6c6.6 11.2 6.6 26-1.7 36.3-20 24.9-48.2 3.8-49.6 2l33-42.8L102 18.7z" style="fill:#784d30"/><path d="M120.1 8.7c-2.2-2.9-6.3-4.4-9.5-3q-1.4.5-2.1 1.8-.5 1.2-.6 2.8c-.1 1.2-.2 2.7-1.2 3.4-2.4 1.7-4.3-.1-4.3-.1s-2 .4-3.2 2.8c-.6 1.1-.8 2.6-1.3 3.7-.1.4-.6.9-.6.9L46.9 64.6l7.8 7L102 26.2c1.8-1.5 2.6-1.2 4.2-1.5q3.1-.7 5-3c-.4-1-.7-2.3-.1-3.2.7-1.3 2.4-1.7 3.9-1.6s3.1.3 4.5-.3a4 4 0 0 0 2.2-3.7 7 7 0 0 0-1.6-4.3" style="fill:#c87d5e"/><path d="m56.4 65.1-46.7 45" style="fill:none"/><circle cx="35.4" cy="90" r="31.5" style="fill:#c87d5e"/><path d="m55 114.7 3.7-3.6-4-4.5-3.7 3.7zm11.8-22.9-4.7-.5-1.4 5.2 5.4.5zm-31.4 29.7 5.2-.5v-6l-5.2.5zm-17.2-5.1 4.6 2.7 1.8-4.3-4.6-2.4zm46.9-36.6-2-4.9-4.3 1.3 1.5 5z" style="fill:#b0bec5"/><path d="M33.6 116.5a29 29 0 1 1 0-57.8 29 29 0 0 1 0 57.8" style="fill:#ffcc80"/><path d="M33.6 57.8v1.7c10 0 19 5.1 24 13.7a28 28 0 0 1-9.6 38.4 28 28 0 1 1-14.5-52zm0 0q-8 0-15.3 4.2a29.8 29.8 0 1 0 15.3-4.2" style="fill:#b0bec5"/><circle cx="32.4" cy="86.3" r="25.5" style="fill:#fef6e0"/><path d="M9.2 88.8c-.3-4.3 1-10.3 5.3-16.2 1.8-2.5 2.5-4.9 0-6.5l-1-.7A30 30 0 0 0 5 95.3l1.6-.4c2.6-.7 2.7-3.3 2.6-6" style="fill:#b0bec5"/><path d="m23.8 87.6-5.9 7.7m3.5 3.1 6.9-6.3M20.4 97l6.4-6.4M19 96.2l6.3-7.1" style="fill:none;stroke:#cfd8dc;stroke-width:.5;stroke-miterlimit:10"/><path d="M15.2 109.2 9.5 104l1.3-4 5.6-6a1 1 0 0 1 1.5-.1l4.8 4.7q.6.7 0 1.4l-6.7 6z" style="fill:#b0bec5"/><path d="m23.8 87.6 77.4-68.2.5-2.4M25.3 89l77.5-69.2L112.3 9M26.8 90.6l76.8-69.8 13.6-7.4M28.3 92l76.3-70 2.6-.5" style="fill:none;stroke:#cfd8dc;stroke-width:.5;stroke-miterlimit:10"/><path d="m21.4 85.2 10.1 10" style="fill:none;stroke:#784d30;stroke-width:2.6114;stroke-miterlimit:10"/><circle cx="101.7" cy="17" r="1.5" style="fill:#b0bec5"/><circle cx="107.2" cy="21.5" r="1.5" style="fill:#b0bec5"/><circle cx="112.3" cy="9" r="1.5" style="fill:#b0bec5"/><circle cx="117.2" cy="13.4" r="1.5" style="fill:#b0bec5"/></svg>