<svg xml:space="preserve" width="16" height="16" viewBox="0 0 128 128"><path d="M105.2 101.7h-61L6.6 121.5q-.6.5.2.7h18l-1.4 2 1.8-.2c1.4-.2 4-1.8 4-1.8h35.3q.7 0 1.2-.3z" style="opacity:.4"/><path d="M105.2 101.7h-61L4 43.5h61z" style="fill:#5d4037"/><path d="m48.2 38.7 14.8 22-18.8 41h61l-1.8-63.1z" style="fill:#3e2723"/><path d="m64 45.6 37.3 54h-56l-37.4-54zm1.1-2.1H4l40.2 58.2h61z" style="fill:#a06841"/><path d="M4 43.5 29 5.3h58L65 43.5z" style="fill:#d68b52"/><path d="M87.1 5.3c.4 1 36.9 55.3 36.9 55.3l-18.8 41.1L65 43.5z" style="fill:#a06841"/><path d="m77.1 104.6 4.9-.1c1.6-.1 2.6-.8 2.6-.8l-6.1-4.2z" style="fill:#f19534"/><path d="M64.8 84.6H66q.5 0 .8.3l3.4 2.9-4.2.5z" style="fill:#d1762c"/><path d="M87.4 88.1c-.1-1.3-.5-3.3-4.5-3.3l-10.3-.1q-.3 0-.5.3a3 3 0 0 1-.9 1.3 3 3 0 0 1-4 0q-.4-.6-.6-1.3-.1-.3-.5-.4h-6q-1.7 0-2.4 1.4l-9.1 16.8q-.4.6-.4 1.3l.4 12.6c0 1.6 1.6 2.8 3.8 2l35.3-21.2z" style="fill:#ffc107"/><path d="M87.4 88.1c0-1.1-1.2-2-2.3-1.5l-34.2 16q-1.1.5-1.2 1.7l.4 12.9c0 1.1 1.2 2 2.3 1.5L78 106.8q.6-.3.6-1c.1-1 .5-3.1 2.3-3.1q1.2.1 1.7 1 .6.6 1.4.3l2.7-1.3q1.1-.5 1.2-1.7z" style="fill:#ffe959"/><ellipse cx="60.3" cy="91.1" rx="3" ry="2.2" style="fill:#f19534" transform="rotate(-21.8 60.35 91.15)"/><radialGradient id="a" cx="78.4" cy="93.9" r="6.3" gradientTransform="rotate(3.3 70.44 97.2)" gradientUnits="userSpaceOnUse"><stop offset=".2" style="stop-color:#ffc107"/><stop offset="1" style="stop-color:#f19534"/></radialGradient><path d="M79.4 89.2s1.3 5.7-2.4 6.7c-3.3.8-3.9-3.4-3.9-3.4s-3.9-1.7-1.2-2.9c4-2 7.5-.4 7.5-.4" style="fill:url(#a)"/><ellipse cx="68.4" cy="103.6" rx="2.9" ry="3.4" style="fill:#ffc107" transform="rotate(-1.8 68.53 103.72)"/><path d="M20.3 33.8c.7-.2 2.4 0 3.4 1.3 1.2 1.8.2 5.9 2 8.6 1 1.5 2.6 1.8 2.6 1.8-1.1.2-7.2 1.9-8.3-4.6" style="fill:#4e342e"/><path d="M25.6 45.6c-3.2-1.1-4-5-3.8-7.3.4-3.3-.8-4-1.6-4.3-2.7-.9-4.7 1.3-4.7 6.5 0 6.5 5.6 8.7 5.6 8.8V123l.3.6a4 4 0 0 0 4 0q.4-.3.4-.6V50.6c.2 0 6.2.2 9-5z" style="fill:#ffb74d"/><path d="M29.7 47.6c.5 1.5-.8 2.5-.8 2.5a9 9 0 0 0 6-4.6h-9.3s3.1 0 4 2.1" style="fill:#ba793e"/></svg>