<svg xml:space="preserve" width="16" height="16" viewBox="0 0 128 128"><path d="M119.6 124H8.5C6 124 4 122 4 119.6V8.4C4 6 6 4 8.4 4h111.2c2.4 0 4.4 2 4.4 4.4v111.2c0 2.4-2 4.4-4.4 4.4" style="fill:#e0e0e0"/><path d="M39.7 18H5.9C5 18 4 17 4 16V7.3c0-1 .9-2 2-2h33.7c1 0 1.9 1 1.9 2V16c0 1-.9 2-2 2m41.3 0H47c-1 0-1.9-1-1.9-2V7.3c0-1 .9-2 2-2h33.7c1 0 1.9 1 1.9 2V16c0 1-.9 2-2 2m41.4 0H88.4c-1 0-2-1-2-2V7.3c0-1 1-2 2-2H122c1 0 1.9 1 1.9 2V16c0 1-.8 2-1.9 2M39.7 53.3H5.9q-1.7-.2-1.9-2v-8.6q.2-1.8 2-2h33.7q1.7.2 1.9 2v8.7q-.2 1.7-2 1.9m41.3 0H47q-1.7-.2-1.9-2v-8.6q.2-1.8 2-2h33.7c1 0 1.9.9 1.9 2v8.7a2 2 0 0 1-2 1.9m41.4 0H88.4c-1 0-2-.9-2-2v-8.6c0-1.1 1-2 2-2H122c1 0 1.9.9 1.9 2v8.7q-.1 1.7-1.9 1.9M39.7 88.6H5.9q-1.7-.1-1.9-1.9V78c0-1 .9-1.9 2-1.9h33.7q1.7.2 1.9 2v8.6a2 2 0 0 1-2 2m41.3-.1H47q-1.7-.1-1.9-1.9V78c0-1 .9-1.9 2-1.9h33.7c1 0 1.9.9 1.9 2v8.6a2 2 0 0 1-2 2m41.4-.1H88.4c-1 0-2-.8-2-1.9V78c0-1 1-1.9 2-1.9H122c1 0 1.9.9 1.9 2v8.6a2 2 0 0 1-1.9 2M39.7 124H5.9q-1.7-.1-1.9-1.9v-8.7c0-1 .9-2 2-2h33.7c1 0 1.9 1 1.9 2v8.7c0 1-.9 1.9-2 1.9m41.3 0H47q-1.7-.1-1.9-1.9v-8.7c0-1 .9-2 2-2h33.7c1 0 1.9 1 1.9 2v8.7a2 2 0 0 1-2 1.9m41.4 0H88.4c-1 0-2-.8-2-1.9v-8.7c0-1 1-2 2-2H122c1 0 1.9 1 1.9 2v8.7c0 1-.8 1.9-1.9 1.9M19.5 23H4v12.6h15.5c1 0 2-.9 2-2V25c0-1-1-2-2-2m40.9 12.6H26.7c-1 0-2-.9-2-2V25c0-1 1-2 2-2h33.7c1 0 2 1 2 2v8.7a2 2 0 0 1-2 1.9m40.9 0H67.6c-1 0-2-.9-2-2V25c0-1 1-2 2-2h33.7c1 0 2 1 2 2v8.7a2 2 0 0 1-2 1.9m7.2-12.6c-1 0-2 1-2 2v8.7c0 1 1 1.9 2 1.9H124V23zm-89 35.4H4V71h15.5c1 0 2-.9 2-2v-8.7c0-1-1-1.9-2-1.9M60.4 71H26.7c-1 0-2-.9-2-2v-8.7c0-1 1-1.9 2-1.9h33.7c1 0 2 .9 2 2V69a2 2 0 0 1-2 1.9m40.9.1H67.6c-1 0-2-.9-2-2v-8.7c0-1 1-1.9 2-1.9h33.7c1 0 2 .9 2 2V69a2 2 0 0 1-2 1.9m7.2-12.5c-1 0-2 .9-2 2V69c0 1 1 1.9 2 1.9H124V58.4zm-89 35.4H4v12.5h15.5c1 0 2-.8 2-1.9v-8.7c0-1-1-2-2-2m40.9 12.6H26.7c-1 0-2-.8-2-1.9v-8.7c0-1 1-1.9 2-1.9h33.7c1 0 2 .8 2 1.9v8.7a2 2 0 0 1-2 2m40.9-.1H67.6c-1 0-2-.8-2-1.9v-8.7c0-1 1-1.9 2-1.9h33.7c1 0 2 .8 2 1.9v8.7a2 2 0 0 1-2 2m7.2-12.6c-1 0-2 .8-2 1.9v8.7c0 1 1 2 2 2H124V93.7z" style="fill:#751c00"/><path d="M39.7 16.5H5.9q-1.7-.1-1.9-1.9V6c0-1.1 1-2 2-2h33.7c1 0 1.9.9 1.9 1.9v8.7c0 1-.9 2-2 2" style="fill:#e04e2c"/><path d="M80.9 16.5H47q-1.7-.1-1.9-1.9V6c0-1 .9-1.9 2-1.9h33.7c1 0 1.9.9 1.9 1.9v8.7c0 1-.9 2-2 2" style="fill:#bf360c"/><path d="M122.1 16.5H88.4c-1 0-2-.8-2-1.9V6c0-1 1-1.9 2-1.9H122c1 0 1.9.9 1.9 1.9v8.7c0 1-.8 2-1.9 2M39.7 51.9H5.9q-1.7-.2-1.9-2v-8.6c0-1 .9-2 2-2h33.7c1 0 1.9 1 1.9 2V50q-.2 1.7-2 1.9m41.3 0H47q-1.7-.2-1.9-2v-8.6c0-1 .9-2 2-2h33.7c1 0 1.9 1 1.9 2V50a2 2 0 0 1-2 1.9" style="fill:#e04e2c"/><path d="M122.1 51.9H88.4c-1 0-2-.9-2-2v-8.6c0-1 1-2 2-2H122c1 0 1.9 1 1.9 2V50q-.1 1.7-1.9 1.9" style="fill:#bf360c"/><path d="M39.7 87.3H5.9q-1.7-.2-1.9-2v-8.7c0-1 .9-1.9 2-1.9h33.7q1.7.2 1.9 2v8.7a2 2 0 0 1-2 1.9" style="fill:#e04e2c"/><path d="M80.9 87.3H47q-1.7-.2-1.9-2v-8.7c0-1 .9-1.9 2-1.9h33.7c1 0 1.9.9 1.9 2v8.7a2 2 0 0 1-2 1.9" style="fill:#bf360c"/><path d="M122.1 87.3H88.4c-1 0-2-.9-2-2v-8.7c0-1 1-1.9 2-1.9H122c1 0 1.9.9 1.9 2v8.7a2 2 0 0 1-1.9 1.9m-82.3 35.3H5.9q-1.7-.1-1.9-1.9V112c0-1 .9-1.9 2-1.9h33.7c1 0 1.9.9 1.9 1.9v8.7c0 1-.9 2-2 2m41.3-.1H47q-1.7-.1-1.9-1.9V112c0-1 .9-1.9 2-1.9h33.7c1 0 1.9.9 1.9 1.9v8.7a2 2 0 0 1-2 2" style="fill:#e04e2c"/><path d="M122.1 122.6H88.4c-1 0-2-.8-2-1.9V112c0-1 1-1.9 2-1.9H122c1 0 1.9.9 1.9 1.9v8.7c0 1-.8 2-1.9 2M19.5 21.7H4v12.5h15.5c1 0 2-.8 2-1.9v-8.7c0-1-1-2-2-2" style="fill:#bf360c"/><path d="M60.4 34.2H26.7c-1 0-2-.8-2-1.9v-8.7c0-1 1-2 2-2h33.7c1 0 2 1 2 2v8.7a2 2 0 0 1-2 2" style="fill:#e04e2c"/><path d="M101.3 34.2H67.6c-1 0-2-.8-2-1.9v-8.7c0-1 1-2 2-2h33.7c1 0 2 1 2 2v8.7a2 2 0 0 1-2 2" style="fill:#ff7043"/><path d="M108.5 21.7c-1 0-2 .8-2 1.9v8.7c0 1 1 1.9 2 1.9H124V21.7zM19.5 57H4v12.6h15.5c1 0 2-.9 2-2V59c0-1.1-1-2-2-2" style="fill:#e04e2c"/><path d="M60.4 69.6H26.7c-1 0-2-.9-2-2V59c0-1 1-1.9 2-1.9h33.7c1 0 2 .9 2 2v8.7a2 2 0 0 1-2 1.9" style="fill:#ff7043"/><path d="M101.3 69.6H67.6c-1 0-2-.9-2-2V59c0-1 1-1.9 2-1.9h33.7c1 0 2 .9 2 2v8.7a2 2 0 0 1-2 1.9m7.2-12.7c-1 0-2 .9-2 2v8.7c0 1 1 1.9 2 1.9H124V57z" style="fill:#e04e2c"/><path d="M19.5 92.4H4V105h15.5c1 0 2-.8 2-1.9v-8.7c0-1-1-1.9-2-1.9" style="fill:#bf360c"/><path d="M60.4 105H26.7c-1 0-2-1-2-2v-8.7c0-1 1-1.9 2-1.9h33.7c1 0 2 .9 2 2v8.6a2 2 0 0 1-2 2m40.9 0H67.6c-1 0-2-1-2-2v-8.7c0-1 1-1.9 2-1.9h33.7c1 0 2 .9 2 2v8.6a2 2 0 0 1-2 2" style="fill:#e04e2c"/><path d="M108.5 92.4c-1 0-2 .9-2 2v8.6c0 1 1 2 2 2H124V92.3z" style="fill:#ff7043"/></svg>