<svg xml:space="preserve" width="16" height="16" viewBox="0 0 128 128"><path d="M116 4H12a8 8 0 0 0-8 8v104a8 8 0 0 0 8 8h104a8 8 0 0 0 8-8V12a8 8 0 0 0-8-8" style="fill:#194fa5"/><path d="M109.7 4H11.5A7.6 7.6 0 0 0 4 11.5v97.9c0 4.1 3.3 7.5 7.5 7.5h98.1c4.1 0 7.5-3.3 7.5-7.5V11.5c0-4-3.1-7.4-7.2-7.5z" style="fill:#2262dd"/><path d="M43.3 25.5h.2v-.2zm8.6-.2v.2h.2z" style="fill:none"/><path d="M51.6 37.7V25.6h6a2.4 2.4 0 0 0 1.9-4l-7.7-9.2-.4-.4a3 3 0 0 0-1.5-.9c-1.5-.6-3.3 0-4.2 1.3l-.2.1-7.6 9.2a2.4 2.4 0 0 0 1.9 4h5.9v12.1a3 3 0 0 0 3 3 3 3 0 0 0 2.9-3.1m32.2-23.9.1 12.1h6a2.4 2.4 0 0 1 1.9 4l-7.7 9.2-.4.4q-.6.6-1.4 1c-1.5.5-3.2 0-4.2-1.3l-.2-.2-7.6-9.2a2.4 2.4 0 0 1 1.9-4h5.9L78 13.7a3 3 0 0 1 3-3c1.6.2 2.8 1.5 2.8 3.1M103.4 46h-77a8 8 0 0 0-7.9 7.8v51.7c0 4.3 3.5 7.9 7.8 7.9h77.1c4.3 0 7.9-3.5 7.9-7.8V53.9a8 8 0 0 0-7.9-7.9m-1 58.6H27.6V55.1h74.8zM44.7 65.2c1.7-1 2.3-3.3 1.3-5.1s-3-2.3-4.6-1.5l-.3.2 1.8 3.2-1.8-3.2a4 4 0 0 0-1.3 5.1c1 1.7 3.2 2.3 4.9 1.3m-7.8 19.6h.9v15.1c0 1.2 1 2.3 2.2 2.3h.1q2.1-.2 2.3-2.3V84.8h.8v15.1c0 1.2 1 2.3 2.2 2.3h.1q2.1-.2 2.3-2.3V84.8h.8q2-.2 2.2-2.2V68.8c0-1.2-1-2.2-2.2-2.2H36.9c-1.2 0-2.2 1-2.2 2.2v13.8q.2 2 2.2 2.2m29.7-19.7c1.7-1 2.3-3.3 1.3-5.1s-3-2.3-4.6-1.5l-.3.2 1.8 3.2-1.8-3.2a4 4 0 0 0-1.3 5.1c.9 1.7 3 2.3 4.6 1.5zm-7.7 19.6h.8v15.1q.2 2.1 2.2 2.3h.1q2.1-.2 2.3-2.3V84.7h.8v15.1q.2 2.1 2.3 2.3 2-.2 2.3-2.3V84.7h1c1.2 0 2.2-1 2.2-2.2V68.8c0-1.2-1-2.2-2.2-2.2H58.9c-1.2 0-2.2 1-2.2 2.2v13.8a2 2 0 0 0 2.2 2.1m29.7-19.6c1.7-1 2.3-3.3 1.3-5.1s-3-2.3-4.6-1.5l-.3.2 1.8 3.2-1.8-3.2a4 4 0 0 0-1.3 5.1 3.4 3.4 0 0 0 4.9 1.3m-7.9 19.6h.9v15a2.3 2.3 0 0 0 4.6 0v-15h.8v15.1a2.3 2.3 0 0 0 4.6 0V84.7h.9c1.2 0 2.2-1 2.2-2.2V68.8c0-1.2-1-2.2-2.2-2.2H80.7c-1.2 0-2.2 1-2.2 2.2v13.8a2 2 0 0 0 2.2 2.1" style="fill:#fafafa"/><path d="M39.7 12.9c0-2.3-1.6-3-10.8-2.7-7.7.3-11.5 1.2-13.8 4s-2.9 8.5-3 15.3c0 4.8 0 9.3 2.5 9.3 3.4 0 3.4-7.9 6.2-12.3 5.4-8.7 18.9-10.6 18.9-13.6" style="fill:#68abe6"/></svg>