<svg xml:space="preserve" width="16" height="16" viewBox="0 0 128 128"><path d="M118.9 69.9c0-35.7-13.2-52.5-20.9-62.8-1-1.5-4-2.1-5.3.5-3.7 7.6-6.5 13-8.7 17.1l-1.6 3-1 1-.1.2c-2.6 1.9-7 .4-8-1.3-3.8-6.5-5.7-15-8.1-19.7-1.1-2-3.8-2.8-5.4-.3-2.3 5.1-5.4 14.3-8.9 20.2q-.6.9-1.4 1.2c-3 2-6.5.6-7.5-1.1-2.3-4.5-5.6-10.9-10.2-20.4-1.3-2.7-3.9-2.7-5.1-.1l-2.2 2.7A100 100 0 0 0 4 72s-.2 32 29.2 45.8a78 78 0 0 0 25.7 4.1c60.3-.5 60-52 60-52" style="fill:#f44336"/><path d="M104 56a4 4 0 0 1 4 4v24a4 4 0 0 1-4 4H24a4 4 0 0 1-4-4V60a4 4 0 0 1 4-4z" style="fill:#f1f2f2"/><path d="M95 12.1c1.8-1.5 4.7 0 6.8 2.8 1.6 2.3 2.3 5.9-.1 7-2.6 1.3-3.4-2.4-4.8-4.6-1.4-2.3-3.5-3.7-1.9-5.2m-30.1-.7c-1.8-1-4 .6-5.3 3.3-1 2.2-1 5.4 1.2 6s2.4-2.6 3.3-4.7 2.4-3.7.8-4.6" style="fill:#ff8a80"/><path d="M65.2 7.9c2.4 4.7 4.3 13.2 8.1 19.7 1 1.7 5.3 3.2 8 1.3a3 3 0 0 1-4.1-1.1c-3.8-6.5-7.2-16.9-9.6-21.6-1.5-2.9-5.7-2.9-7.1 0l-.7 1.4c1.6-2.5 4.3-1.7 5.4.3m-33.4-.4C36.4 17 39.7 23.4 42 27.9c1 1.7 4.6 3 7.5 1.1a3 3 0 0 1-3.8-1.3c-2.4-4.4-6.3-11.9-11-21.4a4 4 0 0 0-6.8-.7l-3.4 4.5 2.2-2.7c1.2-2.6 3.8-2.6 5.1.1M124 72c0-35.8-16.1-56.1-23.9-66.4a4 4 0 0 0-6.8.7l-.6 1.3C94 5 97 5.6 98 7.1c7.7 10.3 20.9 27.1 20.9 62.8 0 0 .3 51.5-60 52a78 78 0 0 1-25.7-4.1c7.9 3.7 18 6.1 30.8 6.2 60.4-.5 60-52 60-52" style="fill:#cc3332"/><path d="M81.3 28.9v-.1m1.1-1.1 1.6-3-1.6 2.9-1 1.1zm-31.5.1c3.5-6 6.6-15 9-20.2l-.3.4c-2.4 4.7-5 13.3-8.8 19.8L49.5 29q.8-.3 1.4-1.2" style="fill:#f44336"/><path d="M32.7 105.4s-3-1.3-6.7-5a48 48 0 0 1-11-20.7c-4.6-16-.2-30.5 2.5-37.8l.3-.7 1.9-4.9 1.3-3.1.3-1c1.2-2.7 6.8-12.4 7.6-13.6 1.4-2.2 3.7-3.5 2-5-1.6-1.6-5-.6-6.7 2.4-8.4 14.4-11 23.4-11 23.4-2.4 8.7-8 24.2-3.1 41.7 6.6 23 20.1 28.7 20.7 29h1q1.5 0 2.2-1.5c.5-1.2 0-2.7-1.3-3.2" style="fill:#ff8a80"/></svg>