<svg xml:space="preserve" width="16" height="16" viewBox="0 0 128 128"><path d="M29.5 69.6 10.3 80.2s-.2 14.9 14.4 20.2c12.2 4.4 23.5-1.8 29-7 3.8-3.7 9.6-12.3 9.6-12.3zm38.2 11.1 1 5.6s8.3 14.3 24.8 14.8A23 23 0 0 0 117 85.2c2-6.7.5-13.3.5-13.3z" style="fill:#606265"/><path d="M63.8 3.1c-1.6 0-25 21.4-36.8 37.2A86 86 0 0 0 10.9 72q-3.1 16.2 8.3 21.8C35.5 102 48 90.2 50 88.4c2.6-2.4 5.8-6.9 7.4-6 .7.4.2 7.8-.4 12.7-.5 4.7-2.8 10.4-10.4 13.5s-10.7 3.2-13.5 5.7c-2.8 2.4-3 4.2-3 4.2l3.2 2.4 59.7-.3 2.4-1.6s-1.1-3.2-6.3-5.7c-4.1-2-8-3.2-12.6-5.8-4.2-2.5-5.9-8.7-6-12 0-3.8-.8-13.2.1-13.7 1.6-.8 3 2.9 7.6 6.8 2.7 2.4 16.3 12 29.3 3.8a20 20 0 0 0 10.1-19.6c-1.2-13.3-12.7-29-21.4-39C82.1 18 65.8 3.4 63.8 3.2" style="fill:#464c4f"/><path d="M30 118.5s-.3 1.2-.3 2.5 0 2.5 1.6 2.6H94q1.6-.2 1.7-2.5c0-1.7-.5-2.4-.5-2.4z" style="fill:#606265"/></svg>