<svg xml:space="preserve" width="16" height="16" viewBox="0 0 128 128"><path d="M110.7 19.1c-.3 0 .4-1.3-10.6-1.6-1 0-4.1 1.7-7.8 1.7s-6-1.5-7.3-2.7c-.6-.5-1.5-.4-1.9.3a8 8 0 0 1-11.5 2.6c-.5-.4-1.4-.1-1.6.6a9 9 0 0 1-5.3 5.2 7 7 0 0 1-6.5-.7c-.7-.5-1.6-.1-1.8.7-.4 2.1-1.3 5.2-3.6 6.4-2.7 1.5-5.3.6-7-.4-.7-.5-1.7 0-1.8.9-.2 2.4-.8 6-3.2 8.2s-6.4 1.6-8.5 1q-1.4 0-1.5 1.2c0 1.9-.3 5-2 6.7-2 2.3-5.6 2.8-5.6 2.8l50.1 49c1.2-1.2 8-10.4 26-13.6 1.8-.3 9.6-1.3 10.4-1.8 1-.7 0-7.4 0-9l.4-14.3.8-27.7.2-9.7q.2-1.8.1-3.6c0-1.4.1-1.9-.5-2.2" style="fill:#fce8b2"/><path d="M31.3 41.6q-.5.3-.5.9c0 1.9-.3 5-2 6.7v.1l48.4 47.8zm13.4-10.5q-.6.3-.7 1c-.2 2.4-.8 6-3.2 8.2l-.1.1 40.5 53zm11.7-5.9c-.4 2.1-1.3 5.2-3.6 6.4l-.2.1 32 60.5.6-.3L57 24.4q-.4.3-.6.8M70 20a9 9 0 0 1-5 5.1c5.3 15 18.5 50.3 24 65q.4 0 .7-.2L71 19.2q-.7 0-1 .8m13.1-3.2c-.7 1.2-2 2.7-4.5 3.6l-.5.1L92.4 89l1.4-.4-10-72.4q-.4.2-.7.6m16.4.8c-1.3.4-4 1.6-7.2 1.6h-1C92.2 36.3 94.7 72 96 88l.8-.1.2-9z" style="fill:#ffbd66"/><path d="M78.4 97.6q-.7 0-1.2-.6L30.5 43a1.6 1.6 0 1 1 2.5-2.1L79.6 95a1.6 1.6 0 0 1-1.2 2.7m3.9-2.7q-.8 0-1.3-.8L43 31.8q-.6-1.2.6-2.2 1.3-.6 2.2.5l38 62.5a1.6 1.6 0 0 1-1.5 2.4m2.5-2.9-29-66.7q-.5-1.5.8-2.2c.8-.3 1.8 0 2.1.9l29 66.7s.5 1.4-.9 2-2-.7-2-.7m5.7-.5q-1.1 0-1.5-1.2L69.4 20.3a1.6 1.6 0 1 1 3-1l19.7 70.2a1.6 1.6 0 0 1-1.6 2m3.7-1.1q-1.3-.1-1.6-1.4l-10-72a1.6 1.6 0 1 1 3.2-.5l10 72.2a1.6 1.6 0 0 1-1.6 1.8" style="fill:#6d4c41"/><path d="M96.5 87.4c0 1.3 1 2.4 2.3 2.5l15.4.6c4.6 0 8.5-3.6 8.6-8.2l1.4-56a8.4 8.4 0 0 0-8.1-8.5l-15.1-.6c-1.5 0-2.7 1-2.8 2.5zM67 109.6l-9.8 10a4.4 4.4 0 0 1-6.3.1L5.1 75.3a4.4 4.4 0 0 1-.1-6.2l9.8-10A4.4 4.4 0 0 1 21 59l45.8 44.3a4.4 4.4 0 0 1 .1 6.3" style="fill:#cf381a"/><path d="M9.8 69.9a4 4 0 0 0 3.5 6.7 4 4 0 0 0 4.5 4.4 4 4 0 0 0 4.5 4.3 4 4 0 0 0 4.6 4.4 4 4 0 0 0 4.5 4.4 4 4 0 0 0 4.5 4.4 4 4 0 0 0 4.6 4.4 4 4 0 0 0 4.5 4.3 4 4 0 0 0 4.5 4.4 4 4 0 0 0 6.8 3.2l9.9-10-46.5-45z" style="fill:#822322"/><path d="M10.6 69a4 4 0 0 0 3.5 6.7 4 4 0 0 0 4.5 4.4 4 4 0 0 0 4.5 4.4 4 4 0 0 0 4.6 4.4 4 4 0 0 0 4.5 4.4 4 4 0 0 0 4.5 4.3 4 4 0 0 0 4.6 4.4 4 4 0 0 0 4.5 4.4 4 4 0 0 0 4.5 4.4 4 4 0 0 0 6.8 3.2l9.9-10.1-46.5-45z" style="fill:#fff3e0"/><path d="m13.4 66.1 46.4 45 7-7.2-46.4-45z" style="fill:#ffcc80"/><path d="M24 66.8 17 74q-.7.6-1.2 0l-1.1-1a1 1 0 0 1 0-1.2l7-7.3q.7-.6 1.2 0l1.1 1q.6.7 0 1.2m3.2 3.1L20 77q-.5.6-1.1 0l-1.1-1a1 1 0 0 1 0-1.2l7-7.3q.7-.6 1.2 0l1.1 1q.5.7 0 1.2m6.2 6.1-7 7.3q-.7.5-1.2 0l-1.2-1a1 1 0 0 1 0-1.2l7.1-7.4q.6-.5 1.2 0l1.1 1.1q.5.6 0 1.2m3.1 3-7 7.3q-.7.5-1.2 0l-1.2-1a1 1 0 0 1 0-1.2l7.1-7.4q.6-.5 1.2 0l1.1 1.1q.4.6 0 1.2m3.1 3-7 7.3q-.7.5-1.2 0l-1.2-1a1 1 0 0 1 0-1.2l7.1-7.4q.6-.5 1.2 0l1.1 1.1q.4.6 0 1.2m6.2 6L38.6 95q-.5.5-1.1 0l-1.2-1a1 1 0 0 1 0-1.2l7.1-7.4q.5-.5 1.2 0l1 1.1q.6.5.1 1.2m3.1 3.1L41.7 98q-.5.5-1.2 0l-1-1a1 1 0 0 1-.1-1.2l7.1-7.4q.5-.5 1.1 0l1.2 1.1q.4.5 0 1.2m6.2 6.1-7.1 7.3q-.6.5-1.2 0l-1.1-1a1 1 0 0 1 0-1.2l7-7.4q.8-.5 1.2 0l1.2 1.1q.4.5 0 1.2m3 2.9-7 7.4q-.6.5-1.2 0l-1.1-1.1a1 1 0 0 1 0-1.1l7-7.4q.7-.4 1.2 0l1.2 1q.4.8 0 1.2m3.1 3-7.1 7.4q-.6.5-1.2 0l-1.1-1.1a1 1 0 0 1 0-1.1l7-7.4q.7-.4 1.2 0l1.1 1q.6.8 0 1.2" style="fill:#6d4238"/><path d="m74.5 101.8-8.3 8.5a3 3 0 0 1-4.2 0L14 64a3 3 0 0 1 0-4.2l8.2-8.6a3 3 0 0 1 4.3 0l47.8 46.3a3 3 0 0 1 0 4.3" style="fill:#cf381a"/><path d="m70 100-5.5 5.8a3 3 0 0 1-4.3 0L16.7 63.7a3 3 0 0 1 0-4.3l5.4-5.7a3 3 0 0 1 4.3 0l43.5 42.1a3 3 0 0 1 0 4.3m41.4-13.2-6.8-.2a6 6 0 0 1-6-6.3l1.2-56c0-3.5 2.9-6.2 6.3-6.1l6.8.1c3.4.1 6 3 6 6.3l-1.2 56.1c-.1 3.4-3 6.1-6.3 6" style="fill:#ff5722"/><circle cx="104.2" cy="44.6" r="2.2" style="fill:#6d4238"/><circle cx="104" cy="53.9" r="2.2" style="fill:#6d4238"/><circle cx="103.7" cy="63.3" r="2.2" style="fill:#6d4238"/><circle cx="103.5" cy="72.6" r="2.2" style="fill:#6d4238"/><circle cx="114.4" cy="35.2" r="2.2" style="fill:#6d4238"/><circle cx="114.2" cy="44.5" r="2.2" style="fill:#6d4238"/><circle cx="113.9" cy="53.8" r="2.2" style="fill:#6d4238"/><circle cx="113.7" cy="63.1" r="2.2" style="fill:#6d4238"/><circle cx="109.3" cy="39.9" r="2.2" style="fill:#6d4238"/><circle cx="109" cy="49.2" r="2.2" style="fill:#6d4238"/><circle cx="108.8" cy="58.5" r="2.2" style="fill:#6d4238"/><circle cx="108.6" cy="67.8" r="2.2" style="fill:#6d4238"/></svg>