<svg xml:space="preserve" width="16" height="16" viewBox="0 0 128 128"><path d="M106 121.7H36.2c-1.7 0-1.3-1.4-1.3-3V14a3 3 0 0 1 3-3h69.4a5 5 0 0 1 5 4.9v99.7q0 6-6.3 6" style="fill:#d55e00"/><path d="M18.5 115.1c0 2 3.1 3.6 5 3.6H104c3 0 4.6-1.6 4.6-3.6l-.3-21.3H18.5z" style="fill:#94c6d6"/><path d="M101.5 105.9s-2.2 5.8 0 8.8c2.5 3.4 6.9 2.5 6.9 1V16.3a1 1 0 0 0-1.3-1c-1.3.3-3.8.3-7.2-1.9z" style="fill:#f5f5f5"/><path d="M94.2 110.9H23.6V6.4H96q3.5 0 4.6 1.6 1.5 2 1.5 5.5V103c0 4.3-3.5 7.8-7.8 7.8" style="fill:#d55e00"/><path d="M92 107.8H25.5a5 5 0 0 1-5-5V11.5a5 5 0 0 1 5-5H92c3.8 0 7 2.1 7 6.9v87.5a7 7 0 0 1-7 6.9" style="fill:#ff9f12"/><path d="M34.4 109.8V6.5H23.2s-2.3-.4-3.9 0c-2.8.7-3.5 2.7-3.5 6V107c0 6.7.4 9.6 2.4 11.8-.1-1.6.9-6.9 1.7-8.3.7-1.3 14.5-.7 14.5-.7" style="fill:#616161"/><path d="M23.2 6.5v104.3" style="fill:none;stroke:#424242;stroke-width:2;stroke-miterlimit:10"/><path d="m34.4 109.3-11.3.3c-3.8 0-5 4-4.4 6.7.8 3.3 4.3 3.9 5.2 3.9h12.6" style="fill:none;stroke:#424242;stroke-width:3;stroke-miterlimit:10"/></svg>