<svg xml:space="preserve" width="16" height="16" viewBox="0 0 128 128"><path d="M116 124H14.5q-2.3-.2-2.4-2.4v-68h106.3v68c0 1.3-1 2.4-2.4 2.4" style="fill:#424242"/><path d="M13.9 48.5h104.5v7.6H13.9z"/><path d="M12 53.6v68.6c0 1 .9 1.8 1.9 1.8h.1c1 0 1.9-.8 1.9-1.8V53.6z" style="fill:#616161"/><path d="M10 36.9h110.4v16.7H10z" style="fill:#eee"/><path d="M10 36.9h110.4V39H10z" style="fill:#f5f5f5"/><path d="M67.4 36.9 50.7 53.6h16l16.7-16.7zm28.1 0L78.7 53.6h16l16.7-16.7zm-55.8 0L22.8 53.6h16L55 37.4v-.5zm80.8 3.5-13.2 13.2h13.2z" style="fill:#424242"/><path d="M10 36.9h110.4V39H10z" style="opacity:.4;fill:#fff"/><path d="M8.2 12.1h110.4v16.7H8.2z" style="fill:#eee" transform="rotate(-8.5 63.38 20.43)"/><path d="M7.1 12.1h110.4v2.1H7.1z" style="fill:#f5f5f5" transform="rotate(-8.5 62.3 13.21)"/><path d="m66.8 28.4-19-14L63.4 12l19 14zm27.7-4.1-19-14.1 15.7-2.4 19 14.1zm-55.2 8.2-19-14L36.1 16l18.4 13.6v.5zM118.7 17l-15-11 13-2zm-109 5.4 16.2 12-14 2.2z" style="fill:#424242"/><path d="M7.1 12.1h110.4v2.1H7.1z" style="opacity:.4;fill:#fff" transform="rotate(-8.5 62.3 13.21)"/><path d="M10 36.9h1.8L9.5 20l-1.9.2z" style="fill:#9e9e9e"/><path d="M23.9 69.5h86.9M23.9 84.6h86.9M23.9 99.7h86.9m-58.9 15.8V99.7m31 15.8V99.7" style="fill:none;stroke:#fff;stroke-width:2.0827;stroke-linecap:round;stroke-miterlimit:10"/><path d="M10 36.9h1.8v16.8H10z" style="fill:#bdbdbd"/><path d="M35.3 53.6H14.9a3 3 0 0 1-3-3V29.4c0-3.4 5.7-5.6 9.5-2.3l17.1 19.1c2 2-.5 7.4-3.2 7.4" style="fill:#616161"/><path d="M36.8 53.6h-18c-2.5 0-4.5-2-4.5-4.5V31c0-4.2 5-6.3 8-3.4l17.8 18c3 2.9.9 7.9-3.3 7.9" style="fill:#424242"/><circle cx="19.7" cy="47.7" r="2.2" style="fill:#616161"/><circle cx="19.7" cy="34.3" r="2.2" style="fill:#616161"/><circle cx="34.8" cy="47.7" r="2.2" style="fill:#616161"/></svg>