<svg xml:space="preserve" width="16" height="16" viewBox="0 0 128 128"><path d="m11.2 102.7 1.3 1.6s7.6 10 27 16.3a83 83 0 0 0 50-.4 51 51 0 0 0 27-19.8z" style="fill:#89847e"/><path d="M7 89.4s-1.3 3.2-.3 7 8.2 18.7 56.5 19c43.9.4 57-16 57-22.1-.2-4-6-14.5-37-16.2s-51.5 1.8-51.5 1.8z" style="fill:#cfc6bd"/><path d="M64 82c-19-.3-46.4 4.4-48.9 11.3-2 5.7 6.6 11.3 24.3 13.8s48.7.3 54.8-2 17-6.8 17-6.8l2.5-3.8s.2-2-1.5-3.6-7.8-8.5-48.2-9" style="fill:#a2e4fd"/><path d="M115.9 92.6c1.2-.2 1.3 2.6-1.4 5s-17.8 13.5-50.7 13.6-57.3-8.5-57.2-19.7C6.5 79.7 48 75 62.2 76.8c14 1.9-2.4 2.3-2.4 2.3S41.2 79 26 83.2c-7 2-12.9 4.2-13 7.8s10.3 14.6 49.7 15.2 52-13.5 53.1-13.7" style="fill:#e4dcd5"/><path d="M27.9 87.2c-.6.4 0 1.3-.7 2s-4 2-4.4 4.6c-.5 4 7.2 4.9 7.9 4.4s-2.7-3.2-2-4.9c.7-2 3-3.2 3-4.5 0-1.4-2.7-2.2-3.8-1.6m9.4-1.6c0 .6 1.1 1 1.1 1.7 0 1-4.8 3.4-4.2 7.6.5 3.9 4.3 5.7 6.2 6.5 2.4 1 8.1 1.4 7.9.2-.2-1-4.5-1.4-7-4q-3-4 .2-7.4c3-2.8 1-5-.9-5.3-2.1-.3-3.3.3-3.3.7" style="fill:#fff"/><path d="M64 86.2c-12.3.1-19 3-19 7.4.1 5 9 7.4 19.4 7.5 11.1 0 17.6-3.4 17.8-7.2.3-3.7-6-8-18.2-7.7m21.5-.2c-.1.1-1 1.4 1 3.8a7 7 0 0 1 1.7 6.4c-.5 2.6 1.2 5 5 5s4.4-1.3 4.4-1.6-2.7-1.3-3.3-4.7q-1.2-6-4.6-8.1c-2.4-1.5-3.8-1.2-4.2-.8m9.9 3c0 .6 3.5 2.3 3.7 4.6s-.8 3.7-.1 4 6.1-.7 6-4.7c0-4.8-9.5-6-9.6-3.9" style="fill:#4fc0fa"/><path d="M30.3 56.7 33 88.2l3-.2-1-30.2zm61.1 1.9V85l3 .6L96 55.9s-4.6 1-4.6 2.7" style="fill:#a2e4fd"/><path d="M28.6 56.3s3.5 7 12.2 12.2c8.7 5 15.3 3.8 15.5 11.5.1 5.5-1.1 6.5-2.3 7.8S50.7 90 50.7 92s2 4.8 13.3 4.9c11.8 0 12.7-3.2 12.6-5.3s-2.8-3.7-3.7-5.2c-.8-1.2-1.1-3.6-1-6.2.1-7.9 5.2-6.5 14.1-11.8C97 62 98.3 56 98.3 56z" style="fill:#89847e"/><path d="m30.3 49.1 9.7-5 19-2.4 11-2s6.8.4 11.6 1.2c4.4.7 8.4 2 8.4 2l.4 2 3.5.3s3.1 0 5.5 2.8c2.5 3 2 6.6-3.9 10.4C89.9 62 64.9 63 64.9 63l-28.7-6z" style="fill:#cfc6bd"/><path d="M34.3 53.2s-1.9-8.6 30-8.8S95.6 53 95.6 53L88 59.5l-23 3-26.8-4zm2.1-2.9s-.9-1.1-1.6-1.4l-2.2-1s.6-1.4 1.8-1.9 2.2-.6 3.6-.1 2 2.4 2 2.4zm54-1.9s1.2-1.6 2-2.1c1-.6 2.2-1 2.2-1s-1.5-1.6-3.8-1.4-4 3-4 3z" style="fill:#a2e4fd"/><path d="M39.6 46.1c.5 0 5.4-1.8 8.7-2.3 6.6-1 11-1 11-1l.2-2.7s-5.5-.4-13.2 1.1c-5 1-8.2 2.5-8.2 2.5zm54.8.9c-.6.7 2 1.8 1.3 4-.9 2.6-7.3 8.4-32 8.5-24.8.1-29.1-6.4-30.3-8.3-1.4-2 1.2-4-1.7-4.2-2.5-.2-5.8 2-5.6 5.2s6 13.5 38 13.5c30.7 0 36-10.6 36.4-13.7.2-3.2-4.5-6.5-6-5" style="fill:#e2ddd7"/><path d="M51.4 48.3c.6.5-2.8 2.1-2.8 4 0 2 3.2 3.6 2.7 4.2-.7 1-9.5-.7-9.3-4 .2-4.1 8.2-5.2 9.4-4.2" style="fill:#fffffd"/><path d="M51.9 52.6c-.1 2 3 4 12.5 4 9.9 0 12-2 11.7-4.2-.1-2-4.9-2.8-11.8-2.9-6.3-.1-12.3.6-12.4 3.1M78 49.3c-.3.5 2.7 1.6 2.6 3.6 0 1.9-2.2 3.4-1.7 3.9s8-.3 7.9-4.1-8-4.6-8.8-3.4" style="fill:#4fc0fa"/><path d="M58.7 53v-7.8s-2.8-2.7-4-5.7-1.4-5.4-.9-6.3 3.3-1.3 3.3-1.3l7.7 2.2s8.9-2.2 9.3-1.8c.5.3.8 3.9-.1 6.8-1.4 3.9-4 6-4 6l.1 8.4s-1.4 1.4-5.8 1.4c-5.2 0-5.6-1.9-5.6-1.9" style="fill:#89847e"/><path d="M64 28.5c-8.1 0-10.2 4.8-10.2 4.8s2.2 3 10.5 3.2c8.7 0 9.9-4.1 9.9-4.1s-2.5-4-10.2-3.9" style="fill:#a9a299"/><path d="M73.2 58.9s6.1.3 7 4.3.7 23.2.7 23.2l4-2s1.1-19 1.5-22c.2-2.1 1-6.7 1-6.7L82 57.3zm-31.1-1.3s-.6.7-1 2.7c-.4 3 .4 10.2.7 14.5l.8 10.3 3.2-.8s.2-11.2.6-15.4 1.7-7.4 4.1-8.4 5.2-1.9 5.2-1.9l-12.4-2.4zm22.2-25.3c2.8 0 3-2 3-3.1s1.2-14.3 9.7-14.5c8-.2 9.5 19.5 9.6 24.4l.1 10.2 3.9-.7s3-38-12.8-39A12 12 0 0 0 67 15.2L66.7 6C66.5 4 65 3.5 64 3.6c-1 0-2.4 1-2.5 2.5l-.1 9s-4.2-6.4-9.7-6.3c-6 0-12.7 7.1-14.6 21.7S36.7 52 36.7 52l3.8-3s-.2-15.3 1.5-22 5-13 9.3-13 7 4.6 8.7 9.2a20 20 0 0 1 1.1 6.2c0 1.5.5 2.8 3.2 2.8" style="fill:#a2e4fd"/><path d="m239.9 30.9.4.3" style="fill:none"/></svg>