<svg xml:space="preserve" width="16" height="16" viewBox="0 0 128 128"><path d="M116 4H12a8 8 0 0 0-8 8v104a8 8 0 0 0 8 8h104a8 8 0 0 0 8-8V12a8 8 0 0 0-8-8" style="fill:#bdbdbd"/><path d="M109.7 4H11.5A7.6 7.6 0 0 0 4 11.5v97.9c0 4.1 3.3 7.5 7.5 7.5h98.1c4.1 0 7.5-3.3 7.5-7.5V11.5c0-4-3.1-7.4-7.2-7.5z" style="fill:#e0e0e0"/><path d="M39.7 12.9c0-2.3-1.6-3-10.8-2.7-7.7.3-11.5 1.2-13.8 4-1.9 2.3-2.3 5.6-2.6 8.4-.2 2.2-2.2 14.9 3.5 11.2q1-.6 1.6-1.8c1.2-2.1 1.9-3.5 3.3-5.6 5.3-8.6 18.8-10.5 18.8-13.5" style="fill:#fff"/><circle cx="63.9" cy="37.9" r="15.2"/><path d="M43.7 68.3c5.1 0 9.6 2.3 11.5 4.6 0 0 2.7-2 6.3-1.6S67 73 68.7 75a17 17 0 0 1 17-6.5Q85 56.5 67 56.7h-7.6c-9.7 0-16.2 4-17.2 11.7z"/><circle cx="82.2" cy="84.8" r="12.3"/><path d="M70 110.8c-1 0-1.8-1-1.5-1.9 1.4-5 7-9 13.6-9 6.8 0 12.4 4 13.7 9 .3 1-.5 2-1.5 2zm-37.5 0c-1 0-1.8-1-1.5-1.9 1.3-5 7-9 13.6-9 6.7 0 12.3 4 13.7 9 .2 1-.5 2-1.5 2zm33.3-23.3c1.8-5.6 1-10-3.4-11.5-3.8-1.3-7 1.4-7.6 2.2a12.2 12.2 0 0 0-20.4 0c-.6-.8-3.9-3.4-7.7-2.2-4.4 1.4-5.1 5.9-3.4 11.5q.8 2.3-.3 5 0 .9.8 1c6.2-1.8 6.2-7.7 6.4-10 .3-2.7 1.8-2.7 2.8-2.5q-.9 2.5-.6 5.5c.8 6 6 10.7 12 10.8A12.3 12.3 0 0 0 56.3 81c1-.2 2.3-.2 2.7 2.5.3 2.3.3 7.8 6 9.7a1 1 0 0 0 1-1 7 7 0 0 1 0-4.7m3.7 8.9c-.8-1-2.9-1.5-4.4-.2-.6.4-1.4 1.4-1.4 1.4s-.7-1-1.3-1.4a3.4 3.4 0 0 0-4.5.1q-1.9 2.4.6 5.6c2.3 2.8 5.2 5.5 5.2 5.5s3-2.7 5.3-5.5q2.6-3.1.5-5.6"/></svg>