<svg xml:space="preserve" width="16" height="16" viewBox="0 0 128 128"><path d="M62.2 22.9q8.4 0 16 3c8.8 3.4 28.5 5.2 32.4 12.3 4.6 8.4-2.7 29.1-2.3 32.5s.5 7.5 0 10.7a32.5 32.5 0 0 1-25 27.6c-17.5 5.1-41 1.8-50.2-5.8q-5.1-4.2-7.8-9-4.4-8-4-18c.3-10.9-11.3-26.9-3.3-36s28.2-13.8 28.2-13.8 6.3-3.5 16-3.6" style="fill:#b0b0b0"/><path d="M93 34.8c.2 1 2.7 4.3 5.9 10.4 3 5.9 5.5 12 6 12 1 .3 12.9-3.4 13-3.8l-4-20-18.7-5.2zM28.2 45.9c3.1-7.5 5.7-9.6 6-10.8s-11-3.5-11-3.5L10.8 39l3 14.7s8.6 7 9.2 7c.5-.1 2-7.4 5.2-14.8" style="fill:#febdbe"/><linearGradient id="a" x1="11.8" x2="30.5" y1="72.9" y2="18.6" gradientUnits="userSpaceOnUse"><stop offset=".2" style="stop-color:#c9c7c8"/><stop offset=".3" style="stop-color:#bdbcbd"/><stop offset=".4" style="stop-color:#a8a8aa"/><stop offset=".5" style="stop-color:#9e9ea1"/><stop offset=".6" style="stop-color:#828487"/><stop offset=".8" style="stop-color:#606468"/></linearGradient><path d="M46.7 26.4c.4-3.5-13.8-7.1-18-4.7-3.2 1.9.1 3.5-1.2 4.6-1 .8-9-3-15 1.6-4.7 3.5-2 3.8-2.4 5-.3 1.1-3.1 3-5 5.7S2.5 45.3 3 46s2.7-.8 3 .7c.3 1.7-3.2 7-1.6 12 1.5 4.6 2.9 1 4 2.5 1 1.4 0 3.5 2.5 8 1.7 3 3.6 4 4.3 4.2 1.2.2 1-1.2 2.4-1.3 1.4 0 3.7 4 3.7 4s0-3.4.6-8.8 1.7-7 1.6-8c0-.8-9.3-6.4-6-16.1s12-8 13.2-7.7 3 1 5.7.3c2.6-.7 10-5.8 10.3-9.4" style="fill:url(#a)"/><linearGradient id="b" x1="117.2" x2="94.4" y1="67.1" y2="15.9" gradientUnits="userSpaceOnUse"><stop offset=".2" style="stop-color:#c9c7c8"/><stop offset=".2" style="stop-color:#bdbcbd"/><stop offset=".4" style="stop-color:#a8a8aa"/><stop offset=".5" style="stop-color:#96979a"/><stop offset=".7" style="stop-color:#6f7276"/><stop offset=".8" style="stop-color:#606468"/></linearGradient><path d="M77.8 26c-.1 1.2 3.6 4 6 5.6 3.5 2.2 7.2 3.5 8.7 3.5s11.9-5.9 17.2 3.1c5.4 9-4.6 17.7-4.9 19 0 2 .8 3 1.8 7 1 3.8 1.4 5.2 1.6 6.7.4.6 4.5-2.7 6.8-6.2 1.6-2.5 1.7-5 2.7-5.3s1.5 2.7 2.7 2.5 3.5-6.7 3-11.2c-.6-6.4-4.4-8.5-3.2-10.5 1.1-2 3.7.4 4.6-1.2s-1.3-6.2-4.4-8.4-6.4-2-6.8-3.1c-.5-1.2 1.6-1.7 1.6-3 0-1.2-3.5-3.1-9.5-3.4-5.2-.3-9.9 2.5-10.1 1s1-1.5 1-2.2c-.2-.6-3.8-2.2-9-.7-4.2 1.1-9.6 5.2-9.8 6.8" style="fill:url(#b)"/><path d="M84.8 59.2c-3.6.2-4.2 4.2-4 7 .2 3 1 6.4 4.7 6.4 3.8-.1 4.8-4.1 4.8-7.2.1-3.1-1-6.4-5.5-6.2M43.7 59c-3.6.2-4.5 3-4.4 5.8.1 4.3 2.6 7.5 5.2 7.6 3.8 0 4.6-3.5 4.6-6.6.1-3-1-7-5.4-6.8" style="fill:#2f2f2f"/><path d="M85.7 63.7c-.6 1.5-2 2.6-3 2.2s-1-1.9-.4-3.3 1.8-2.3 2.7-2q1.5.8.7 3.1m-41 .7c-.8 1.3-2.6 2.2-3.5 1.7s-.7-2.2 0-3.5 2.1-2 3-1.5 1.2 2 .5 3.3" style="fill:#dfdfdf"/><radialGradient id="c" cx="64.6" cy="78.9" r="24.2" gradientUnits="userSpaceOnUse"><stop offset=".8" style="stop-color:#febdbb"/><stop offset=".8" style="stop-color:#f5bebc"/><stop offset=".9" style="stop-color:#dcc1c0"/><stop offset=".9" style="stop-color:#c7c3c3"/></radialGradient><path d="m67.7 94.5-7.4-.2-6.2-2v6.2c.3 2.6 2.8 8 11 7.9 8-.1 10.6-5 10.7-8l-.1-5.2z" style="fill:url(#c)"/><path d="M65 92.9c-2.4 0-5.5-.6-6.7-1s-3-1.7-4.2-.4c-1.2 1.4.5 3.2 3.1 4 2.7.9 4.7 1.4 7.6 1.3 3.6 0 6.9-.7 8-1s3.9-1.6 3.1-3.4c-.8-2.1-2.4-.8-4.3-.3q-3 .8-6.7.8" style="fill:#2f2f2f"/><path d="M64.9 60c-7.2-.2-9.5 5.7-10 9.5s-1.2 7.7-.1 12.4q1.7 7 10 7.1 7-.2 8.9-4.5c1.6-3.1 1.5-6.2 1.2-12.9-.3-6.6-3.4-11.5-10-11.6" style="fill:#303030"/><path d="M66.3 85.7q.2 1.1 2.2.8c1.2-.4 3-1.5 3.7-2.8.3-.7 0-1.7-.7-1.4S70 83.3 69 84s-2.8 1.2-2.8 1.7M60.7 84c-1.6-1-2.1-1.8-2.9-1.6-.7.3-.3 1.7.5 2.4s2 1.6 3.4 1.9c1.1.2 1.8-.6 1.5-1q-.6-.7-2.5-1.8" style="fill:#afafaf"/></svg>