<svg xml:space="preserve" width="16" height="16" viewBox="0 0 128 128"><path d="m81.1 30-18.3.2 15.7-8.6-3.7-13.2 10.4 7.9 10.4-8L93 19l17.3 2-18 7L85 40.4z" style="fill:#ffe36c"/><path d="m92.3 13.4-.8 3-1.1 4.4 4.5.5 7 .8-9.8 3.8-1.3.5-.7 1.2-4.7 8.2-1.9-5.2-1-2.6H70.7l7.3-3.9 2.8-1.5-.8-3-1.7-6 4.4 3.3 2.5 1.9 2.4-1.9zm-7.1.4L72.5 4.2c-.4-.4-1 0-.9.5l4.5 16-19.4 10.5c-.5.3-.3 1 .2 1l22.8-.2 4.5 12.2c.2.4.8.4 1 0l8.4-14.6 22.8-8.9c.5-.2.4-1-.1-1l-20.9-2.4 3.2-12.6c.2-.5-.4-.9-.8-.6z" style="fill:#ff8f00"/><path d="M94.6 44.3c-1.3-.2-7.6 6.1-12.2 2.2a43.7 43.7 0 1 0 16 30.8c0-.5 0-1.7.2-2.5 1.7-5.7 7.9-8.6 7.8-8.9-.2-.2-10.5-21.4-11.8-21.6" style="fill:#4d4d4d"/><ellipse cx="100.5" cy="55.1" rx="5.8" ry="12.3" style="fill:#757575" transform="rotate(-30 100.45 55.12)"/><ellipse cx="102.3" cy="55.1" rx="2.3" ry="3.5" style="fill:#212121" transform="rotate(-30 102.35 55.1)"/><path d="M53.9 52.6c2.7 7.7-1.3 12.4-6.5 15.4-2.4 1.4-5.3 2-7.8 3.4-5 2.6-7.9 7.8-12.1 11.3q-1.6 1.5-3.7 1.9c-1.8.2-3.6-.9-4.7-2.4S13.5 66.5 29.9 52c7.2-6.5 21-8 24 .6" style="opacity:.9;fill:#757575"/><linearGradient id="a" x1="42.1" x2="83.8" y1="34.6" y2="48.1" gradientUnits="userSpaceOnUse"><stop offset="0" style="stop-color:#fff9c4;stop-opacity:.1"/><stop offset="0" style="stop-color:#fff9c4;stop-opacity:.1007"/><stop offset=".4" style="stop-color:#fffca6;stop-opacity:.2626"/><stop offset=".7" style="stop-color:#fffe94;stop-opacity:.4014"/><stop offset=".9" style="stop-color:#ffff8d;stop-opacity:.5"/></linearGradient><path d="M41.9 38.7c3.7.1 11.2.2 20.7 4q4.7 2 8.9 4.8a13 13 0 0 0 7.7 2.4q1.7-.1 2.4-1.4.5-.8 0-1.7-.3-1-2.3-2.6a44 44 0 0 0-37.5-5.5" style="fill:url(#a)"/><linearGradient id="b" x1="102" x2="91.1" y1="57.3" y2="42.9" gradientUnits="userSpaceOnUse"><stop offset=".1" style="stop-color:#fff9c4;stop-opacity:0"/><stop offset="1" style="stop-color:#ffff8d"/></linearGradient><path d="m102.1 47.6-.1-.1-.7-.7-.1-.1c-2.6-2.3-5.2-3.3-6.9-2.3C91.5 46 92 52.1 95.4 58q1 2 2.4 3.4c-.1-.3-3.9-11.5-1.5-14.5 2-2.5 5.5.4 5.8.7" style="fill:url(#b)"/><path d="M88.2 74.5a14 14 0 0 1-6.3-9.1c-.2-.7-.8-4.2 1-4.7 1.6-.5 2.8 2.1 4.2 4.4 1.5 2.6 4 4.8 6.5 6.2.8.4 4.3 2 2 4.2-1.5 1.5-6 0-7.4-1" style="fill:#212121"/><path d="M100.9 53.4s10.2-4.6 9.3-11.3c-.6-4.4-2.3-6.6-11.4-8.8A30 30 0 0 1 85.4 27a2.3 2.3 0 0 1 3.1-3.3c0 .1 3.8 3.5 11.4 5.3 8.8 2.1 13.8 4.7 14.8 12.6 1.2 8.8-8.5 14.2-11.3 15.7-1.7 1-3.7-3.3-2.6-3.8" style="fill:#c69461"/><path d="M88.5 23.7a2.3 2.3 0 0 0-3.1 3.2 25 25 0 0 0 7.2 4.4l1-1.7 3.6-1.4c-5.8-1.8-8.6-4.5-8.7-4.5" style="fill:#f6bc41"/></svg>