<svg xml:space="preserve" width="16" height="16" viewBox="0 0 128 128"><radialGradient id="a" cx="53.4" cy=".3" r="68.2" gradientTransform="matrix(1 0 0 -.604 0 127.86)" gradientUnits="userSpaceOnUse"><stop offset=".6" style="stop-color:#f5f5f5"/><stop offset="1" style="stop-color:#c6c6c6"/></radialGradient><path d="M52 96.4c-23.6 0-48 7.3-48 25v3h96.2v-3c0-17.7-24.5-25-48.2-25" style="fill:url(#a)"/><linearGradient id="b" x1="88" x2="102.5" y1="13.1" y2="11.2" gradientTransform="matrix(1 0 0 -1 0 128)" gradientUnits="userSpaceOnUse"><stop offset="0" style="stop-color:#9e9e9e;stop-opacity:0"/><stop offset=".8" style="stop-color:#9e9e9e"/></linearGradient><path d="m90.1 105-5.8 19.5h15.8v-3c0-7.1-3.8-12.5-10-16.4" style="fill:url(#b)"/><path d="M52.3 92.5h-9v10c0 4.5 3.7 8.2 8.2 8.2h1.7c4.5 0 8.2-3.7 8.2-8.2v-10z" style="fill:#c48e6a"/><linearGradient id="c" x1="52.3" x2="52.3" y1="22.4" y2="3.3" gradientTransform="matrix(1 0 0 -1 0 128)" gradientUnits="userSpaceOnUse"><stop offset="0" style="stop-color:#80cbc4"/><stop offset=".3" style="stop-color:#73c6be"/><stop offset=".9" style="stop-color:#51b8ae"/><stop offset="1" style="stop-color:#4db6ac"/></linearGradient><path d="M62.9 105.6H41.8l2.4 18.9h16.5z" style="fill:url(#c)"/><linearGradient id="d" x1="38.8" x2="38.8" y1="10.7" y2="30.9" gradientTransform="matrix(1 0 0 -1 0 128)" gradientUnits="userSpaceOnUse"><stop offset=".3" style="stop-color:#e0e0e0"/><stop offset=".7" style="stop-color:#d0d0d0"/><stop offset="1" style="stop-color:#bdbdbd"/></linearGradient><path d="M43.2 96.7c-6 .4-8.7 1-8.7 1l-3.2 7.2 5.3 4.4-4.9 6.2 7.1 9h7.4z" style="fill:url(#d)"/><linearGradient id="e" x1="38.4" x2="38.4" y1="10.7" y2="30.9" gradientTransform="matrix(-1 0 0 -1 104.16 128)" gradientUnits="userSpaceOnUse"><stop offset=".3" style="stop-color:#e0e0e0"/><stop offset=".7" style="stop-color:#d0d0d0"/><stop offset="1" style="stop-color:#bdbdbd"/></linearGradient><path d="M61.3 96.7c6 .4 8.7 1 8.7 1l3.2 7.2-5.3 4.4 4.9 6.2-7.1 9h-7.4z" style="fill:url(#e)"/><path d="M122.4 74c1.2 7.7 0 16.8 0 16.8L112 90s-.4-5.9 0-6z" style="fill:#80cbc4"/><linearGradient id="f" x1="98.1" x2="123.8" y1="22.8" y2="19.4" gradientTransform="matrix(1 0 0 -1 0 128)" gradientUnits="userSpaceOnUse"><stop offset=".4" style="stop-color:#f5f5f5"/><stop offset="1" style="stop-color:#c6c6c6"/></linearGradient><path d="M112.1 88.3c-6.7-.8-9.6-1.6-9.6-1.6l-11.3 37.8h28.2l4.1-36.2s-3.1 1-11.4 0" style="fill:url(#f)"/><linearGradient id="g" x1="118.7" x2="96.2" y1="75.5" y2="22.8" gradientTransform="matrix(1 0 0 -1 0 128)" gradientUnits="userSpaceOnUse"><stop offset="0" style="stop-color:#b3e5fc;stop-opacity:.8"/><stop offset=".1" style="stop-color:#aee3fc;stop-opacity:.8165"/><stop offset=".7" style="stop-color:#8dd8fa;stop-opacity:.9349"/><stop offset="1" style="stop-color:#81d4fa"/></linearGradient><path d="M110.6 113c-2.3 1.5-9.1.2-15.7-2.2a50 50 0 0 1-9.3-4.2c-.5-.2-5.5-2.9-5.5-5.7 0-2.3 2-3.9 2.4-4.4l.1-.1 17.5-17.6L113.2 47s2.4-.8 5.7.5 5 3.4 5 3.4l-11.8 32.7V109c0 2.7-.4 3.4-1.5 4" style="opacity:.86;fill:url(#g)"/><radialGradient id="h" cx="112.5" cy="40" r="25.4" gradientTransform="rotate(193.3 1.94 51.9)scale(-1 1)" gradientUnits="userSpaceOnUse"><stop offset="0" style="stop-color:#ce93d8"/><stop offset=".2" style="stop-color:#ca8ad5"/><stop offset=".5" style="stop-color:#bf73cc"/><stop offset="1" style="stop-color:#ad4cbe"/><stop offset="1" style="stop-color:#ab47bc"/></radialGradient><path d="m107 111.5-23-9.1c-1.5-.7-2-2.6-.8-3.8l7.4-7.5 19.6-1v19.3c0 1.6-1.7 2.7-3.2 2.1" style="opacity:.8;fill:url(#h)"/><path d="M99.5 97.2h2v6.8h-2z" style="fill:#fff" transform="rotate(-67.3 100.49 100.6)"/><path d="M101.5 91.8h2v6.8h-2z" style="fill:#fff" transform="rotate(-67.3 102.51 95.16)"/><path d="M103.5 86.3h2v6.8h-2z" style="fill:#fff" transform="rotate(-67.3 104.53 89.72)"/><path d="M105.6 80.9h2v6.8h-2z" style="fill:#fff" transform="rotate(-67.3 106.56 84.28)"/><path d="M107.6 75.4h2v6.8h-2z" style="fill:#fff" transform="rotate(-67.3 108.58 78.84)"/><path d="M109.6 70h2v6.8h-2z" style="fill:#fff" transform="rotate(-67.3 110.6 73.4)"/><path d="M111.6 64.6h2v6.8h-2z" style="fill:#fff" transform="rotate(-67.3 112.62 67.96)"/><path d="M114.1 58.2h2V65h-2z" style="fill:#fff" transform="rotate(-67.3 115.13 61.64)"/><path d="M116.2 52.8h2v6.8h-2z" style="fill:#fff" transform="rotate(-67.3 117.15 56.2)"/><path d="M98.9 80s-2.6-2.1-2.6-4c0-1.6 2-3.1 2-3.1s-1.9-2.8-1.2-4.3c1-2.1 3.4-2.5 3.4-2.5s-1.1-2.8.6-4.5c1.3-1.1 5-.6 5-.6s.3-4.6 4.8-3.5c1.7.5 7.9 4 10.2 11.5 1.4 4.7 2 6 1.5 13-.2 3-7.7 3-10.5 2-7-2.5-9-5.6-10-5.6S98.9 80 98.9 80" style="fill:#80cbc4"/><path d="M99.7 71.2q-1.2.2-1.4 1.4v.3l4-1.4q-1.4-.7-2.6-.3m5.1-4.8q-.9-1-1.8-1.3-1.6-.4-2.5 1zm3.3-6.1q-1.2-.4-2 .6a22 22 0 0 1 4.4 1.4q-1-1.5-2.4-2" style="fill:#26a69a"/><ellipse cx="96.1" cy="105.6" rx="3.4" ry="14.4" style="fill:#8f5d9b" transform="rotate(-68.5 96.1 105.59)"/><ellipse cx="118.5" cy="49.3" rx="3.1" ry="5.7" style="fill:#81d4fa" transform="rotate(-68.5 118.49 49.28)"/><path d="M79.7 50.6H25c-5.9 0-10.7 5.2-10.7 11.5S19 73.5 25 73.5h54.7c5.8 0 10.7-5.2 10.7-11.5s-4.9-11.4-10.7-11.4" style="fill:#c48e6a"/><path d="M52.3 11.3c-17.4 0-33.5 18.6-33.5 45.4 0 26.6 16.6 39.8 33.5 39.8S86 83.3 86 56.7c0-26.8-16.2-45.4-33.6-45.4" style="fill:#e0bb95"/><path d="m56 68.3-.2-.1h-7.5q-1 .5-.6 1.7c.3.7 1.7 2.7 4.5 2.7s4.3-2 4.6-2.7q.4-1.2-.7-1.6" style="fill:#c48e6a"/><path d="M60.7 76.4a26 26 0 0 1-16.8 0c-1.8-1.1-3.7.5-3 2.2.8 1.6 6.5 5.4 11.5 5.4s10.5-3.8 11.3-5.4c.7-1.7-1.1-3.3-3-2.2" style="fill:#6d4c41"/><path d="M29.2 50.7c3-4.2 9.8-4.6 13.7-1.5q1.1.8 1.6 2c.4 1.3-.8 2.3-2 2l-2.2-.8a11 11 0 0 0-3.6-.6c-1.8 0-3 .2-4.7 1-.7.2-1.3.7-2 .3-1-.4-1.4-1.5-.8-2.4m44.3 2.4-.8-.4c-1.8-.7-2.8-1-4.8-.9-1.7 0-2.7.2-4 .7-.8.3-1.8 1-2.7.7-1.3-.4-1.3-1.8-.6-2.8Q62 48.8 64 48c2.9-1.3 6.4-1 9.2.6q1.4.8 2.4 2.1c.8 1.3-.4 3-2 2.4" style="fill:#ab872f"/><ellipse cx="36.8" cy="59" rx="4.9" ry="5.1" style="fill:#5d4037"/><ellipse cx="67.9" cy="59" rx="4.9" ry="5.1" style="fill:#5d4037"/><path d="M52.2 4C6.8 4.3 16 56.2 16 56.2l3 7.7c0 .3.6.3.6 0 1-4.4 4.5-19.8 6.3-24.5a6 6 0 0 1 6.8-3.8A111 111 0 0 0 52 37.4h.2c7.8 0 15-1 19.4-1.8a6 6 0 0 1 6.8 3.8c1.7 4.7 5.2 20 6.2 24.4 0 .3.5.4.7 0l3-7.6S97.7 4.2 52.2 4" style="fill:#ab872f"/><radialGradient id="i" cx="52.2" cy="80.9" r="38.1" gradientTransform="matrix(1 0 0 -1.128 0 138.37)" gradientUnits="userSpaceOnUse"><stop offset=".8" style="stop-color:#bfa055;stop-opacity:0"/><stop offset="1" style="stop-color:#bfa055"/></radialGradient><path d="M88.4 56.2S97.7 4.2 52.2 4l-6 .4h-.3C7.7 9.2 16 56.2 16 56.2l3 7.6c0 .4.6.4.6 0 1-4.4 4.5-19.7 6.3-24.4a6 6 0 0 1 6.8-3.8A111 111 0 0 0 52 37.4h.2c7.8 0 15-1 19.4-1.8a6 6 0 0 1 6.8 3.8 352 352 0 0 1 6.2 24.5c0 .3.6.3.7 0z" style="fill:url(#i)"/><linearGradient id="j" x1="51.9" x2="51.9" y1="83.7" y2="59.5" gradientTransform="matrix(1 0 0 -1 0 128)" gradientUnits="userSpaceOnUse"><stop offset=".2" style="stop-color:#b3e5fc;stop-opacity:.5"/><stop offset="1" style="stop-color:#b3e5fc;stop-opacity:.2"/></linearGradient><path d="M31.3 44.3H74l5.8 5.1v15s-4 5.5-13.5 3.2-8.2-8-13.9-8-8.2 9.1-20.6 8.9c0 0-6.4-.6-7.5-4.6L24 47.3z" style="fill:url(#j)"/><linearGradient id="k" x1="80.4" x2="80.4" y1="72.2" y2="84.8" gradientTransform="matrix(1 0 0 -1 0 128)" gradientUnits="userSpaceOnUse"><stop offset="0" style="stop-color:#bdbdbd"/><stop offset="1" style="stop-color:#e0e0e0"/></linearGradient><path d="M88.5 54.8q0 1-.6 1.8l-5.4 8c-2.1 3-9.3 4.5-9.3 4.5l8.1-9.1-1.5-11.5-7.4-5.8s3 .3 5.2.3 4.3 1.4 5.4 2.1l4 2.8q1.4 1 1.5 2.7z" style="fill:url(#k)"/><linearGradient id="l" x1="24.3" x2="24.3" y1="72.4" y2="84.5" gradientTransform="matrix(1 0 0 -1 0 128)" gradientUnits="userSpaceOnUse"><stop offset="0" style="stop-color:#bdbdbd"/><stop offset="1" style="stop-color:#e0e0e0"/></linearGradient><path d="M16.2 54.8q0 1 .6 1.8l5.4 8c2 3 9.3 4.5 9.3 4.5L23.3 60 25 48.5l7.4-5.8s-3 .3-5.2.3-4.3 1.4-5.5 2.1l-4 2.8q-1.4 1-1.4 2.7z" style="fill:url(#l)"/><radialGradient id="m" cx="52.3" cy="71.9" r="22.9" gradientTransform="matrix(0 1 1.408 0 -48.9 3.8)" gradientUnits="userSpaceOnUse"><stop offset="0" style="stop-color:#f5f5f5"/><stop offset=".7" style="stop-color:#eee"/><stop offset="1" style="stop-color:#e0e0e0"/></radialGradient><path d="M71.8 45.6a9 9 0 0 1 4.5 1.4c2 1.3 2.1 2.9 2.2 3.4v2.2l.3 6.6c0 4.4-4 7.4-9.5 7.4-4 0-8.5-3.3-10.5-5.6a9 9 0 0 0-6.5-2.7q-4 0-6.5 2.7c-2 2.3-6.5 5.6-10.4 5.6-5.6 0-9.5-3-9.5-7.4l.2-6.6v-2.2c.1-.5.2-2 2.3-3.4a9 9 0 0 1 4.4-1.4zm0-3h-39c-3.5 0-9.4 2.3-9.6 7.7l-.3 9c0 6 5.2 10.3 12.5 10.3 5 0 10.1-3.8 12.7-6.5q1.7-1.8 4.2-1.8t4.3 1.8c2.5 2.7 7.6 6.5 12.6 6.5 7.3 0 12.5-4.4 12.5-10.4l-.3-9c-.2-5.3-6-7.6-9.6-7.6" style="fill:url(#m)"/></svg>