<svg xml:space="preserve" width="16" height="16" viewBox="0 0 128 128"><path d="m103.7 57.4-.3 67h10.5l.4-68.5zm-35.3 16-.6 51h10.6l.4-52.2zm-34.7 34.3-.2 16.7h9.3l.4-17.5z" style="fill:#71de81"/><path d="m38.6 92-6.8 14s.5 3 1.4 3.1l10.7-.2c1 0 2.4-17.6 2.6-18.6l.6-3.8zm26.7-24.4s1.1 6.9 2.2 7.4 11.1.1 12 0c1-.2 4.1-20.3 4.1-20.3zm34.5-21.3s2.5 12.6 3.5 12.9c.7.2 10.3.2 11.1 0s4.7-16.4 4.7-16.4z" style="fill:#02ab46"/><path d="M29.7 55.6a60 60 0 0 0-1.7 15c.8 1.3 4 2.2 5 2.2.8 0 9.9-10.6 9.9-10.6l9.8-7.7 8.4-7L75 39l8.8-5 14.1-5 7.5-.4 18.4-9.7-.1-4.6c-.4-.7-12.5-.8-24 .9C87 17 72 24.2 61 30.9a172 172 0 0 0-31.3 24.7" style="fill:#014eab"/><path d="M123.8 44s-26 .4-49.8 18.2-38.2 40.5-43.2 48.1-8.7 14-8.7 14l-17.5.3 6.2-12.2 23.3-31 22.7-23.5 20.3-14.4L94 35.8l16-3.4 14-.8z" style="fill:#fb3028"/><path d="M10.4 124.5H7.3c.2-.3 24.2-37.2 40-52.3 16.3-15.6 29.3-26 47.7-33 15.5-6 28.5-5.1 29-5.1v2.5c-.1 0-13.2-.8-28.1 5C77.9 48.3 65 58.5 49 74c-15.5 15-38.3 50-38.6 50.5m-5.1.1H1.9c.2-.4 26.3-41 42.8-56.8S73.2 42.6 93.1 35a74 74 0 0 1 31-4.9v2.5c-.2 0-14.4-1.3-30 4.7C74.4 44.8 62.6 54 46.4 69.6c-16.4 15.6-41 54.6-41.2 55m67.5-61.3-9.2-10.8 4.3-3.2 7.6 12zM110 46l-3-13.8 5.2-.7 1.2 13.7zM43 93l-10.8-9.2 3.3-3.5L45 90.6zm-23.1 31.4-11.7-7.6 2.6-3.9 12.5 9.5-1.2 2zm64.4-84 2.2 4.2 3.4-2-2-4.2zM22.5 96.8l3.8 2.8-2.5 3-3.4-2.5z" style="fill:#cf1636"/><path d="M48 44.6c0-.3-4-9.3-4.8-10s-3.6 1-3.6 1l-1 8.6 4.4 6.2zm22-14.1-3.2-8.2c-.4-1-1.2-2.3-2-2.5-.8 0-3.2 3.2-3.2 3.2l-1 7.4 2.5 5.4zm26.7-10.3-2.2-8c-.6-2.5-1.8-3.6-2.8-3.6S89 10.3 89 10.3l-1 4V23zm19.1-1.8 7.3-1-.1-9c0-1.6-.2-3-1.5-3.2s-4 2-4 2l-2.7 6.7z" style="fill:#1b2a89"/><path d="M122.2 5.5s-1.9-.1-3.1 1.5-1.6 3.3-2.1 5.6-.4 6-.4 6L112 18s.3-4.4.8-6.7 1.5-5 3.2-6.3q1.5-1.1 3.8-.7c1.4.2 2.4 1.2 2.4 1.2M89.8 22.2s-.3-8.9 0-10.2q.3-1.8 1.3-2.6c.7-.5 1.6-.4 1.6-.4s-1.3-1.3-3.9-.4c-2.4.8-3 3.6-3.1 5.7v10zM64.2 34.4s-1-4.2-1.4-7.3c-.5-3.6.3-4.7.6-5.3.6-1.1 1.6-2 1.6-2s-1.6-.6-3.4.2q-3.4 2-3 7.3a89 89 0 0 0 1.8 9.2zm-20.9.2s-2.3.5-2.2 3.2 2.2 10.8 2.2 10.8l-3.5 3S36.9 42 37 39.2c0-2.8 1-4 2-4.6 2.2-1.4 4.3.1 4.3.1" style="fill:#fdc318"/><path d="M34.3 55.4c-.2.3-1.7 11.3-2 13-.4 1.8-.5 4.2.6 4.3 1.2.2 3-1.6 4.2-3S53 55.2 53 55.2l-4.6-11.4zM53.6 40l17-10.4 4.4 10-16.7 10.6zm23.8-13.7L97.2 19 99 29l-18 6.9zm26.7-8.8.2 11.3 19.4-.4V17z" style="fill:#07bff0"/><path d="m50.3 48.7-17.5 16-.7 4.5 19.5-17.5zm5.6-3.7 17-10.3 1 2.3L57 47.5zm23.4-14L98 24l.6 2.7-18.4 7zm24.9-7.5 19.5-.4v2.7l-19.5.4z" style="fill:#fff"/><circle cx="79.5" cy="38.9" r="3.7" style="fill:#4b4c4e"/><circle cx="101.8" cy="30.1" r="3.7" style="fill:#4b4c4e"/><circle cx="121.3" cy="27.8" r="3.7" style="fill:#4b4c4e"/><circle cx="57" cy="53.6" r="3.7" style="fill:#4b4c4e"/><circle cx="37.1" cy="72.4" r="3.7" style="fill:#4b4c4e"/></svg>