<svg xml:space="preserve" width="16" height="16" viewBox="0 0 128 128"><path d="M4 42q-1.1 6 .4 10.4c1.1 3.4 3 6.1 3 6.1l4.3 39.4s1.6 2 3.6 2.7 17.2 14.5 17.2 14.5l4.2-.3 23.3 7.6 3.7-1.3 3 1.4 21.1-5.4 5-2.4s1 .2 2.1 0c1.2 0 6-2.1 6-2.1l12.5-12.3 1.5-.8q1.6-1 1.6-1.2l1.9-8.7L124 51c.3-2.3 1.7-7.8-2-13.3s-8-5.2-8-5.2 1.2-10.3-7.2-16.5-15.5-3.8-15.5-3.8-4-7-13.3-8.2-14.6 3.5-14.6 3.5S58 4.1 49.8 5 37 12.4 37 12.4s-8.7-2-15.6 4.6-5.7 13.3-5.7 13.3S6 32.4 4 42.1" style="fill:#dc7e13"/><radialGradient id="a" cx="91.3" cy="80.8" r="31.5" gradientUnits="userSpaceOnUse"><stop offset=".6" style="stop-color:#f5b03e"/><stop offset=".7" style="stop-color:#f0a736"/><stop offset=".8" style="stop-color:#e38e21"/><stop offset=".9" style="stop-color:#dc8015"/></radialGradient><path d="M98.6 77.1s5.2.3 10-2c3.8-2 7-5.6 7-5.6s0 8.6-1 18.3l-1.2 12.5c0-.2-.8 8-6.8 11.7-6.6 4-11.7 2.8-11.7 2.8s1.8-13.3 2.4-21.6z" style="fill:url(#a)"/><radialGradient id="b" cx="74.2" cy="85.8" r="33.9" gradientUnits="userSpaceOnUse"><stop offset=".6" style="stop-color:#f5b03e"/><stop offset=".7" style="stop-color:#f0a736"/><stop offset=".9" style="stop-color:#e38e21"/><stop offset=".9" style="stop-color:#dc8015"/></radialGradient><path d="M66.7 87.1s6.7 4.6 14.1 3.6 13-7.7 13-7.7 0 18.2-.4 21.8-.6 9.9-.6 9.9-2.2 7-12.3 9-15.5-2-15.5-2l1.1-21.7z" style="fill:url(#b)"/><radialGradient id="c" cx="98.9" cy="64.8" r="36.4" gradientUnits="userSpaceOnUse"><stop offset=".5" style="stop-color:#f5b03e"/><stop offset=".6" style="stop-color:#f0a736"/><stop offset=".8" style="stop-color:#e38e21"/><stop offset=".9" style="stop-color:#dc8015"/></radialGradient><path d="M119.3 57s2.2-2.1 3.3-3.9 1.9-4.6 1.9-4.6-.3 14.1-1.2 25.4c-.6 7.4-1.6 15.5-2.6 18.4-1.3 3.8-4.7 6.5-4.7 6.5s2.1-20 2.7-27.9.6-14 .6-14" style="fill:url(#c)"/><radialGradient id="d" cx="57" cy="81.8" r="37.4" gradientUnits="userSpaceOnUse"><stop offset=".6" style="stop-color:#f5b03e"/><stop offset=".7" style="stop-color:#f0a736"/><stop offset=".8" style="stop-color:#e38e21"/><stop offset=".9" style="stop-color:#dc8015"/></radialGradient><path d="M35.5 83.1s6.8 7.4 15.6 7.6 12.3-3.4 12.3-3.4l-.8 27.8-.3 6.5s-8.4 4.4-16.7 1.8c-9.9-3.1-9.6-8.6-9.6-8.6l-.6-22.1z" style="fill:url(#d)"/><radialGradient id="e" cx="36.4" cy="80.9" r="30.5" gradientUnits="userSpaceOnUse"><stop offset=".5" style="stop-color:#f5b03e"/><stop offset=".6" style="stop-color:#f0a736"/><stop offset=".8" style="stop-color:#e38e21"/><stop offset=".9" style="stop-color:#dc8015"/></radialGradient><path d="M14.7 73s2.8 3.2 6.2 4.6 10.7 1.8 10.7 1.8a1468 1468 0 0 0 1.6 35.6s-6.7 1.5-13-4.2c-5-4.4-5-10.1-5-10.1z" style="fill:url(#e)"/><radialGradient id="f" cx="10.5" cy="52.3" r="40.5" gradientUnits="userSpaceOnUse"><stop offset=".5" style="stop-color:#f5b03e"/><stop offset=".8" style="stop-color:#e28c1f"/><stop offset=".9" style="stop-color:#dc8015"/></radialGradient><path d="M10.5 58.1 11.7 98s-3.2-1.1-4.6-5.5C5.6 88 3.6 49.2 3.6 49.2s1.2 3.6 2.9 5.6a12 12 0 0 0 4 3.3" style="fill:url(#f)"/><path d="M11.7 39.7s-3.8-.9-4.5 3.6c-.6 3.6 2.2 5 3.9 5s4.5-.8 4.3-4.3c-.2-2.6-2.3-4.3-3.7-4.4" style="fill:#891e0c"/><path d="M11.4 39c-1.5 0-3.8.7-4 3.3s1.9 3.8 3.8 3.9c1.9 0 4-1.5 4-3.8s-2-3.4-3.8-3.4" style="fill:#b85500"/><path d="M8.8 44.5c1.3.4 2.5-2 2.7-3s-1.4-2-2.4-1c-1.4 1.5-1.5 3.5-.3 4" style="fill:#fed386"/><path d="M114.7 42.6s-1.2 1.4-.8 4c.3 1.8 2 2.8 3.7 2.7 3.2 0 4-3.2 3.3-5.2s-6.2-1.5-6.2-1.5" style="fill:#891e0c"/><path d="M117.6 40.6c-2.5 0-3.5 1.7-3.5 3.3s1.3 3.1 3.4 3.2c2.4.2 3.8-1.3 3.7-3.5s-1.9-3.1-3.6-3" style="fill:#b65500"/><path d="M117.3 41.5q-1.4-.5-2.1.7c-.8 1-.8 2.6.2 3 1.1.4 1.9-.7 2.2-1.4s.6-1.8-.3-2.3" style="fill:#ffd288"/><path d="M109 54.8s4.2-2 4-10c-.3-6.8-5.5-6.7-5.5-6.7s5.5-9.8-2-17c-7.3-7.2-18.7.4-18.7.4s-1.7-5-10.3-6.1C67.8 14.2 64.3 19 64.3 19s-1.8-3-9.6-3c-7.8.1-11.4 5.3-11.4 5.3s-13.3-4-19.5 2.9c-6.6 7.1.2 13.5.2 13.5s-5 .3-5.5 5.8c-.5 6.7 5 10 5 10s-9.3 3.4-5.8 14.3c3.5 10.4 16.2 9.6 18 9 .3-.1 4.5 7.4 13.5 9 9.6 1.7 16-3.8 16-3.8s4 4.5 14.6 3.7C89.5 85 93 76.3 93 76.3s14 2.2 20-8c4.2-7.4-4-13.5-4-13.5m-2.5-8c-.5 4.8-7 4.7-7 4.7s1.3 1-1.2.5q-3.4-.6-5-.5.4-1.7.5-3.4l.3-2.7c.8 0 3 .1 5.2-.6 3.2-1.2 4.8-2.6 4.8-2.6s2.7 1.2 2.4 4.6M91.2 26.4c4.4-2 8.8-2.7 11.2-.3 3 2.9 3.2 10.6-5.4 14.1q-2.7 1.1-5.3 1.5a34 34 0 0 0-2.6-5c1.2 0 3.4 0 5.7-1.4 4.4-2.7 5.7-7 3.2-9.6-1.2-1.4-4.3 2.3-7.3 4-2 1-3.8 3-4.5 4-1.1-1-1.1-1.5-1.2-2a20 20 0 0 1 6.2-5.3M45.4 51q1.7.6 1.8.5s-2 10.2 7.4 10.4c1.1 0 3-1.6 3-1.6s.8 3.5 7 3.8c3.4.1 8-.8 8.2-5 2.3 2.5 6.9 1.4 8.6-.2a7 7 0 0 0 1.3-9c2.9-.6 3.8-2 4.4-2.6.8 9.6-7 19.7-22 19.2-15.8-.6-21.5-10-22.1-17.4.7.5 1.6 1.5 2.4 1.9M55 21.2c3.6 0 6.8 1.7 9.4 1.8 3 0 7.5-4.3 12-3.5 5.8 1 6.5 5.4 6.5 5.4s-2.5.6-3.3 1.7l-1.4 2Q71.6 26 64.7 26q-6.4 0-12.2 2.5-.9-1.6-1.8-2.6l-1.3-1.4s2-3.2 5.6-3.2m-25.9 6.3q3.2-4 12-2c4 1 5.8 3.6 6.7 5.4l-1.2.8c-1-1.2-6-4.5-9.3-5-4.7-.8-5.1.8-5.3 2.1-.2 1.6.3 4 4.5 5.7A31 31 0 0 0 43 36c-.5.7-2.2 1.8-2.6 2.5q-2.6.2-7.4-1a6.2 6.2 0 0 1-3.8-10m-2.5 16.8c-.2-1.8 1.2-3 1.2-3s1 1 4 1.8c1.8.4 3 .5 4.7.5-.4 1.3-.2 3 0 3.5l.9 3.6-3.8-.1c-2.2.1-3.2-.9-3.2-.9s-3.4-2-3.8-5.4m10.2 25.9c-5.2 2-9.3-.4-12-4.9-.5-.9-1.5-5.1 5.4-8.6 3.6-1.8 6.4-1.3 8.6-1l.6 1.4c-1.4.2-5.6-1.3-7.9-.2-3 1.6-3 3.9-2.4 6.2.8 3 5.6 3.2 8.6 1.8a15 15 0 0 0 4.5-3.3l2 2.2c-.6 1.9-2.4 4.4-7.4 6.4M78 80.6c-7.5.8-11.2-5.6-12.6-5.7s-4.2 5-11.3 5.5c-7.4.5-12.5-6-12.5-6s2.8-1.2 5.1-3.4c1-1 2.6-2.3 3.1-3.5C54.2 70.3 59 72 65.1 72a32 32 0 0 0 14.7-3.4q1.4 1.8 2.3 2.7c1.5 1.3 4.7 3.2 4.7 3.2s-3.2 5.6-8.9 6.2M104.2 68c-3.3 5-7.6 3.6-13.5 1.4a27 27 0 0 1-7.8-4.6c1-1 2.3-1.1 3.2-2.2 1.5 1.1 3.8 2.8 6 3.4 4.2 1.3 8.7.9 10-2 1.1-2.4.7-5.2-3.6-7-2.5-.9-6.7 1-8.3.8L91 56q3.8-.1 8.8 1.6c7.8 2.6 6 7.9 4.4 10.2" style="fill:#891e0c"/><radialGradient id="g" cx="65.2" cy="47" r="42.5" gradientTransform="rotate(-90.3 48.38 63.9)scale(1 1.718)" gradientUnits="userSpaceOnUse"><stop offset=".3" style="stop-color:#e37406"/><stop offset=".5" style="stop-color:#d05f06"/><stop offset=".9" style="stop-color:#9f2806"/><stop offset=".9" style="stop-color:#9e2706"/></radialGradient><path d="M108 52.7s5.2-1.9 4.9-8c-.4-6.9-6-10-6-10s5.9-7.2-1.5-14.4-18.7-2.2-18.7-2.2-1.6-5.3-10.2-6.5c-8.7-1-12.3 3.7-12.3 3.7s-2-2.9-9.7-2.8c-7.8.1-11.3 5.4-11.3 5.4s-12.3-3.5-19 2.9-.3 13.5-.3 13.5-5 2-5.4 7.6c-.6 6.7 5 9 5 9s-9.1 5-6.3 14.4C20.6 77 37.3 73.5 37.3 73s4.3 7.6 13.2 9.2S65.4 78 65.4 78s2 4.9 12.5 4.1a16 16 0 0 0 13.8-9.2s15 3.8 20.8-6.4C117 59 108 52.7 108 52.7m.6-7.7c-.4 4.8-4.1 5.4-4.1 5.4s-3.8-1.4-6.3-1.9c-2.2-.4-5.2-.4-6.1-.5a29 29 0 0 0 .4-5.4c.8 0 4-.5 6.5-1.6 2.2-1 4.8-2.9 4.8-2.9s5.2 2.1 4.8 7M89.2 22.3c4.6-1.8 10.4-2 13.4 1.2 2.8 3 2.9 9.7-5.7 13.2q-2.7 1.1-5.3 1.5-.8-2.2-2-4 1.8 0 5.2-2.2c3.6-2.5 4.3-5.5 3.3-6.5-1.3-1.4-4.5-1-7.5.6-2 1-3.7 3-4.5 4q-1.7-1.5-3.6-2.7c1.2-1.5 3.6-4 6.7-5.1M43 43.7c.8-9 10.1-16.7 21.6-16.5 14.2.3 21.7 8.1 22.4 16.6.7 9.6-7 19-22 18.5-17.8-.6-22.7-10.6-22-18.6m13.6-26.6c5.5.6 6.4 3 7.7 3 1.4.1 5.6-5 11.4-4 5.7.8 7 3.8 7 3.8s-2.4 2.2-3.2 3.3l-1.4 2a35 35 0 0 0-13.5-2.7q-6.4 0-12.2 2.5-.9-1.6-1.8-2.7c-1-1-2.9-2.3-2.9-2.3s3.4-3.5 9-3m-28.3 7.4C30.5 21.8 35 20.5 41 22c4 1 6 3.6 6.8 5.4l-1.2.8a10 10 0 0 0-6-3c-4.8-.9-6.7.3-7.1 1.3s-.2 3.4 4 5.2q2.3 1 4.3 1l-1.5 2.2c-1.7 0-3.4 0-6.5-1.2-6.3-2.2-7.4-7-5.4-9.3M23 42c.4-3.5 4.3-4.7 4.3-4.7s1.6 1.3 4.7 2c1.8.5 4.3.6 6 .6a18 18 0 0 0-.7 7.3h-4c-2 .1-5 1.2-5 1.2S22.6 46.9 23 42m13.6 24.8c-5.2 2-12.8.4-13.2-4.1 0-1.1-.8-5.3 6.1-8.8 3.6-1.8 7-2 9-1.7l.7 1.5c-1.4.2-4 .6-6.2 1.7-3 1.6-4.6 3.5-4 5.7.8 2.3 5.5 1.8 8.5.3a15 15 0 0 0 4.5-3.2l2 2.2c-.6 1.9-2.4 4.4-7.4 6.4m41.1 10.4c-7.5.8-11.2-5.7-12.5-5.7-1.4-.1-4.3 5-11.4 5.5-7.4.4-12.5-6-12.5-6s2.8-1.3 5.1-3.4Q48 66 49 64q6.8 4.4 16.1 4.5 8.5-.2 14.7-3.5 1.4 1.8 2.3 2.7c1.5 1.3 4.7 3.2 4.7 3.2s-3.2 5.6-8.9 6.2m28.8-14c-2.3 4.7-9 4.7-14.9 2.4a19 19 0 0 1-6.6-4q1-1 2.2-2.7c.8 1.1 2.5 2.8 5 4 4 1.7 9 1.5 9.7-1 .7-2.6-.7-5-5-6.6-2.5-1-5.3-1-6.9-1l.8-1.7q3.8 0 8.8 1.5c7.3 2.6 8 6.6 6.9 9" style="fill:url(#g)"/><path d="M60 42.8c-.2 2.6 1.6 5 5 5 3.3 0 5.5-1.5 5.4-5.3 0-3-2.8-4.2-5.6-4a4.7 4.7 0 0 0-4.8 4.3" style="fill:#e47702"/><path d="M60.8 39.5c1-1.2-.8-4.8-2.4-7-1.8-2.3-5-2.9-6.6-1s-1 4.3.6 5.6c2.1 1.7 7.4 3.5 8.4 2.4m-.6-8.4c0 2.3 2.3 6.6 4.7 6.7.9 0 4-3.6 4.1-6.3s-1.7-4-4-4c-2.4 0-4.8.9-4.8 3.6" style="fill:#e27406"/><path d="M68.9 39c1 .8 5-.8 6.8-1.7s6.2-3.1 1.9-6.3c-3.4-2.5-5.8-.4-7.3 2.5-1 1.7-2 5.1-1.4 5.5" style="fill:#e57702"/><path d="M71.5 42.7c-.2 1.6 5.4 3.7 9.2 3.5 3.7-.1 5.9-2.3 5.2-5.4q-1-4.7-7.4-2.8c-3.8 1.2-6.8 3.4-7 4.7m-13.1.3c0 1-5 4.1-9.5 4.3q-5.5 0-5-4.7c.2-3 2.6-4.4 5.5-4.2 2.2.1 9.1 2.6 9 4.5m1.6 3.8c-.5-.5-7.9.7-10.3 3.8-1.8 2.2-.7 5.3.8 6.5s5 2.2 7.1-1.2 3.2-8.5 2.4-9.1m5.3 2c-1.4-.1-4.8 7-5 8.9 0 2 .3 3.9 4.3 4.1s5.1-1.9 5-4c0-1.8-2.8-8.9-4.3-9m4.7-1.6c-.6.5-.1 5.4 3.3 8.7 3.3 3.2 7 1.5 8-.2 1.5-2.9.2-5.3-3-7S71 46.4 70 47" style="fill:#e27406"/><path d="M74.8 42.3c.2 1.2 1.6 1.8 3.8.9 1.9-.8 2.9-2.2 2.1-3.2s-2.6-.5-3.6-.1c-1 .3-2.4 1.3-2.3 2.4m-3.9-5c1 .3 2-1 2.2-1.8.3-1 .6-2.2-.4-2.5q-1.2-.5-2.2 1.6c-.2.6-.7 2.3.4 2.7m-9.4-7c-.6 1.5 0 4.4 1 4.6 1.4.1 1-1.3 1.8-2.8.6-1.2 2.2-2.7.8-3.5-1.2-.7-2.7-.3-3.6 1.7m-7.2.8q-2.5-.1-2.3 3.1c.5 3.6 4.8 3.9 5 2.7.4-1.4-1.4-1.6-1.4-3s.2-2.5-1.3-2.8" style="fill:#fed287"/><path d="M64.7 39.1c-1.2-.2-3.8.6-3.8 3.9s4.2 4.2 4.6 2.1c.4-2-.8-2.4-.7-3.3 0-1 .9-2.5 0-2.7m-18.3 6.3c2.2.6 2.2-1.6 3.4-2.8 1.3-1.2 2.6-1.2 2.4-2.4s-3.8-1.6-5.5-.6c-2.3 1.3-2.6 5.3-.3 5.8m6.2 10.8c2.2-.6.7-3 1.1-4s1.8-3 1-3.4c-.7-.4-4.1 0-4.8 3.5-.4 2.2.8 4.4 2.7 4m11.7-2.2c-.8-.2-2.2.2-2.8 2.7-.5 2.3.4 3 1 3.3 1 .4 2.2-1.3 2.5-2.6.4-1.4.5-3-.7-3.4m6.8-5.7c-.7.7-.9 1.9.7 3.9q2.3 3.1 3.9 1.7c1-1-.3-3.3-1.1-4.5-.9-1.1-2.5-2-3.5-1" style="fill:#ffd285"/><path d="M87.6 30.6c.1 1.1 1.5 1.7 3 1.3s2.3-1.6 1.8-2.7-1.8-1.4-3-1c-1 .3-2 1.1-1.8 2.4m-8.3-5.1q.8.5 2.7-1a49 49 0 0 1 9.1-5.7c1.7-.6 1.3-2.2-1-1.8a14 14 0 0 0-5.8 2.3c-2.1 1.3-3.4 3-4.1 3.8s-1.4 2-1 2.3m-14.9-7.9c.6.8 2.6-1.3 5.2-2.2 3.3-1.1 6.5-.7 6.4-2.1 0-1-3.7-1.3-7.3.1-3.2 1.3-4.9 3.4-4.3 4.2M46.6 17c.6.8 1.5-.2 4.2-1s4.2-.8 4-1.9c0-1.1-2.5-1-5.2-.2-1.5.5-3.7 2.1-3 3m-12.3 10c-.6.7.3 1.9 1.2 2.6 1.1.9 2.5 1 3 .4s-.2-2.2-1.3-2.9q-1.9-1.1-2.9-.1m7.1-7.9c0 .9-1.5.8-3.3.7s-7.5-.5-10.3 2.5c-3.6 4-2.4 7-2 8.2.5 1.3 1.3 2.4.6 2.7s-2-.7-2.6-1.9-3.1-6 2.3-10.7c5.5-4.8 15.4-2.9 15.3-1.5M25.3 35.6c.6.5-1 1.5-2.2 2.9-1.7 2-1.7 4.7-.4 7.1.6 1 2.9 2.3 2 3-.7.7-2.6 0-3.7-1.9a9 9 0 0 1-1.2-5.1c.4-3.6 2-4.8 2.7-5.4s2-1.3 2.8-.7m9.2 20.7c-1.1-.6-2.9.3-3.7 1.4-.6.8-1.5 2.9-.1 3.7 1.5.8 1.9-1.2 3.2-2.3s1.7-2.2.6-2.8m-2-7.2c.6.8-2.8 2.3-5 3.4-2.4 1.3-6.3 5.3-5.5 10.4.8 4.6 2.8 5.6 1.6 6.5-1 .9-5.5-2-5.2-8.6.2-5.6 4.6-9.6 8-10.9 2.4-.9 5.4-1.8 6.1-.8m7.6 23.3c-.7.4-.5 2.4 3 5.2 3.2 2.5 5.4 2 5.7 1.3.3-1.1-2-1.6-4.5-3.7-1.4-1-3.3-3.4-4.2-2.8m25.8 2.1c-1 .5 0 4.1 4.6 5.8 5.2 1.9 9.4.3 9-1.2-.2-1-3.4.5-8.1-1.6-2.7-1.3-4.2-3.8-5.5-3m24.2-16.2c-1 .6-.3 1.9 1.5 3s3.6 1 4 .4.2-1.6-1.9-3q-1.9-1.2-3.6-.4m-8.3-27.6c-.5 1.4 1.2 2.2 2.7 3.7s2.9 4.4 3.3 6.8q.7 3.4.3 6.7c-.2 1.3-1.1 2.9-.1 3.5s2.3-1 2.7-3 1.3-4.4-.3-10c-1-3.2-4-5.8-4.9-6.7-.9-.8-3.2-2.3-3.7-1m-40 23.8c.7-.1.4-1.7.3-3.4S40.3 37.6 48 31.4c6.9-5.7 13.4-5.5 15-5.6q1.7-.1 1.6-1.1t-2.1-1.1c-1.5 0-10.5-.3-17.8 6.9A18 18 0 0 0 39 42.2c-.6 4.6.5 8.4.8 9.2.4 1.4.6 3.4 2 3" style="fill:#fed287"/></svg>