<svg xml:space="preserve" width="16" height="16" viewBox="0 0 128 128"><path d="M116.5 4h-104a8 8 0 0 0-8 8v104a8 8 0 0 0 8 8h104a8 8 0 0 0 8-8V12a8 8 0 0 0-8-8" style="fill:#8e24aa"/><path d="M110.2 4H12a7.6 7.6 0 0 0-7.5 7.5v97.9c0 4.1 3.3 7.5 7.4 7.5h98.2c4.1 0 7.4-3.4 7.5-7.5v-98c0-4-3.2-7.3-7.2-7.4z" style="fill:#ab47bc"/><path d="M40.2 12.9c0-2.3-1.6-3-10.8-2.7-7.7.3-11.5 1.2-13.8 4s-3 8.5-3 15.3c0 4.8 0 9.3 2.5 9.3 3.4 0 3.4-8 6.2-12.3 5.4-8.7 18.9-10.6 18.9-13.6" style="opacity:.3;fill:#fafafa"/><path d="m93.8 64 13.7-22.5q.3-.9-.4-1.4l-.4-.1H79.2l-14-23.5a1 1 0 0 0-1.6 0L49.8 40H22.3a1 1 0 0 0-1 1v.5l14 22.5-13.9 22.5a1 1 0 0 0 .9 1.5h27.6l13.8 23.5a1 1 0 0 0 1.7 0L79.2 88h27.6q.9 0 1-1l-.2-.5zm4-18-7.5 12.2L82.8 46zm-11 18-11 18H53.2l-11-18 11-18h22.6zM64.5 26.6 72 40H56.9zM31.2 46h15l-7.5 12.2zm0 36 7.5-12.2L46.2 82zm33.3 19.4L56.9 88h15.3zm25.8-31.6L97.8 82h-15z" style="fill:#fafafa"/></svg>