<svg xml:space="preserve" width="16" height="16" viewBox="0 0 128 128"><circle cx="64" cy="111.9" r="11.8" style="fill:#f44336"/><path d="M52.8 108.3q1.5-1.5 3.6-2.3a10 10 0 0 1 9 17.5l2.6-.6a11.8 11.8 0 1 0-15.2-14.6" style="fill:#c33"/><path d="M88.2 4C70.5 4 64 22.1 64 22.1s-6.4-18-24.2-18C26.4 4 11 14.6 16.8 38.7S64 93 64 93s41.6-30 47.2-54.2C117 14.7 102.7 4 88.2 4" style="fill:#f44336"/><path d="M37 5.9c14 0 20.8 14.9 23 21a1 1 0 0 0 2 0l2-4.8a25 25 0 0 0-24.2-18 25 25 0 0 0-16.1 5.7c4-2.7 8.8-4 13.3-4M88.2 4q-6.4.2-11 3.2 3.3-1.4 7.2-1.4c13 0 24.8 10 19.5 33-4.5 19.6-31 43.6-39.2 52.7-.5.6-.7 1.5-.7 1.5s41.6-30 47.2-54.2C117 14.7 101.6 4 88.2 4" style="fill:#c33"/><path d="M26 16.9c3-3.8 8.5-7 13-3.3 2.5 1.9 1.4 5.9-.8 7.6-3.2 2.4-6 4-8 7.8a23 23 0 0 0-2.2 7.4 1 1 0 0 1-2 .3c-3.4-6-4.4-14.3 0-19.8m48.6 7.9a2 2 0 0 1-1.9-2.7 33 33 0 0 1 3.7-6.9c2.2-3.1 6.4-5 9.1-3 2.7 1.9 2.4 5.7.5 7.6a18 18 0 0 1-11.4 5" style="fill:#ff8a80"/></svg>