<svg xml:space="preserve" width="16" height="16" viewBox="0 0 128 128"><path d="M99.5 64h-71c-7.7 0-14 6.7-14 14.8s6.3 14.9 14 14.9h71c7.7 0 14-6.7 14-14.9S107.2 64 99.5 64" style="fill:#99674f"/><path d="M64 12.4c-22.6 0-43.6 24.2-43.6 59S42 123.3 64 123.3s43.6-17 43.6-51.7c0-34.9-21-59.1-43.6-59.1" style="fill:#ba8d68"/><ellipse cx="42.6" cy="74.5" rx="6.4" ry="6.6" style="fill:#49362e"/><ellipse cx="85.4" cy="74.5" rx="6.4" ry="6.6" style="fill:#49362e"/><path d="M69 86.5H59q-1.4.7-1 2.2c.5.9 2.3 3.5 6 3.5s5.5-2.6 6-3.5q.3-1.5-1-2.2" style="fill:#99674f"/><path d="M75 97a33 33 0 0 1-22 0c-2.3-1.5-4.7.7-3.7 2.9 1 2 8.3 7 14.8 7s13.7-5 14.7-7c1-2.2-1.5-4.4-3.8-3" style="fill:#5d4037"/><path d="M64 4.6c-57.5.3-45.7 66-45.7 66l3.7 9.7q.5.5 1-.1c1.2-5.5 5.6-25 7.8-30.9 1.3-3.4 5-5.5 8.6-4.8a141 141 0 0 0 24.5 2.3h.2a141 141 0 0 0 24.5-2.3 8 8 0 0 1 8.6 4.8c2.2 6 6.6 25.3 7.8 30.8.1.5.7.5 1 .1l3.7-9.7S121.5 5 64 4.6" style="fill:#543930"/><radialGradient id="a" cx="64" cy="69" r="48.2" gradientTransform="matrix(1 0 0 -1.128 0 136.84)" gradientUnits="userSpaceOnUse"><stop offset=".8" style="stop-color:#6d4c41;stop-opacity:0"/><stop offset="1" style="stop-color:#6d4c41"/></radialGradient><path d="M109.7 70.5S121.5 5 64 4.6l-7.7.5H56c-48.3 6-37.7 65.4-37.7 65.4l3.7 9.7q.5.6 1 0c1.2-5.6 5.6-25 7.8-30.9 1.3-3.4 5-5.5 8.6-4.8a141 141 0 0 0 24.5 2.3h.2a141 141 0 0 0 24.5-2.3 8 8 0 0 1 8.6 4.8 391 391 0 0 1 7.8 31c.1.4.8.4 1 0 1-3 3.7-9.8 3.7-9.8" style="fill:url(#a)"/><path d="M95.2 64s-3-4.6-9.8-4.6c-7 0-9.9 4.6-9.9 4.6a2 2 0 0 0 1.7 3.2l.8-.1c4.1-1.7 7.4-1.7 7.4-1.7s3.2 0 7.3 1.7l.8.2c1.2 0 2-1 2-2q0-.8-.3-1.3m-42.7 0s-3-4.6-9.9-4.6-9.8 4.6-9.8 4.6a2 2 0 0 0 1.6 3.2l1-.1c4-1.7 7.2-1.7 7.2-1.7s3.2 0 7.4 1.7l.8.2a2 2 0 0 0 1.7-3.3" style="fill:#613e31"/></svg>