<svg xml:space="preserve" width="16" height="16" viewBox="0 0 128 128"><radialGradient id="a" cx="63.6" cy="-2088.9" r="57" gradientTransform="matrix(1 0 0 -1 0 -2026)" gradientUnits="userSpaceOnUse"><stop offset=".5" style="stop-color:#fde030"/><stop offset=".9" style="stop-color:#f7c02b"/><stop offset="1" style="stop-color:#f4a223"/></radialGradient><path d="M63.6 118.8c-27.9 0-58-17.5-58-55.9S35.7 7 63.6 7c15.5 0 29.8 5.1 40.4 14.4 11.5 10.2 17.6 24.6 17.6 41.5s-6.1 31.2-17.6 41.4a61 61 0 0 1-40.4 14.5" style="fill:url(#a)"/><path d="M111.5 29.7a57 57 0 0 1 8.1 30.2c0 16.9-6.1 31.2-17.6 41.4a61 61 0 0 1-40.4 14.5c-18 0-37-7.3-48.2-23a58 58 0 0 0 50.2 26c15.4 0 29.8-5.2 40.4-14.5a54 54 0 0 0 17.6-41.4q-.1-19.2-10.1-33.2" style="fill:#eb8f00"/><radialGradient id="b" cx="25.7" cy="61.4" r="19.4" gradientTransform="matrix(.98 0 0 .93 2.09 5.74)" gradientUnits="userSpaceOnUse"><stop offset="0" style="stop-color:#ed7770"/><stop offset=".9" style="stop-color:#ed7770;stop-opacity:0"/></radialGradient><circle cx="27.3" cy="62.8" r="17.5" style="opacity:.8;fill:url(#b)"/><radialGradient id="c" cx="100.8" cy="61.4" r="19.4" gradientTransform="matrix(.98 0 0 .93 2.09 5.74)" gradientUnits="userSpaceOnUse"><stop offset="0" style="stop-color:#ed7770"/><stop offset=".9" style="stop-color:#ed7770;stop-opacity:0"/></radialGradient><circle cx="100.8" cy="62.8" r="17.5" style="opacity:.8;fill:url(#c)"/><path d="M100.7 65A73 73 0 0 1 64 74.5 73 73 0 0 1 27.3 65c-1.9-1-3.9 1.3-2.4 3A51 51 0 0 0 64 85.8c15.8 0 29.9-7 39.2-17.8 1.4-1.7-.6-4-2.5-3M49.6 44.1l-.2-.2-1-1-.7-.8-.8-.8-.9-.5-.6-.2h-.3.2-.6q-.4 0-.7.2l-.9.6-2.1 2-.5.7-.2.2a4 4 0 0 1-5.7.6 4 4 0 0 1-1.4-3.4l.2-1.2a13 13 0 0 1 7.7-8.4l1-.3 1-.2h.6l.5-.1h1.9l1 .1a11 11 0 0 1 4.9 2.2 13 13 0 0 1 4.2 5.5l.4 1.3.2.7v.3c.4 2-1 3.9-3.3 4.2q-2.5.3-4-1.5m37.5 0V44l-1-1-.7-.8-.8-.8-.9-.5-.6-.2h-.4.3-.6l-.7.2-.9.6-2.1 2-.5.7-.3.2a4 4 0 0 1-5.6.6 4 4 0 0 1-1.4-3.4l.2-1.2a13 13 0 0 1 7.7-8.4l1-.3 1-.2h.6l.5-.1h1.8l1 .1a11 11 0 0 1 5 2.2 13 13 0 0 1 4.1 5.5q.4.7.5 1.3l.2.7v.3c.4 2-1 3.9-3.3 4.2q-2.5.3-4-1.5" style="fill:#422b0d"/><path d="M110.8 1.2c-7 2.9-7.7 10.9-7.7 10.9s-4.6-5-10.9-3c-7.5 2.6-11.3 10.7-5.2 19.4 7 10 29.4 12.8 29.4 12.8S128.9 25 127 12a12.3 12.3 0 0 0-16.3-10.8" style="fill:#f44336"/><path d="M110.8 1.2s-1.7.7-2.4 1.4c0 0 4.7-.5 9 2 2.9 1.6 5.5 4.5 6.5 9.7 2 11.2-6.8 25.9-7.5 27 1-1.3 12.4-16.8 10.8-29.3a12.3 12.3 0 0 0-16.4-10.8m-7 11.8q-1.1-1.4-2-2a9 9 0 0 0-7.4-2.3c-2.7.3-5.1 1.8-5.1 1.8s2.6-1 6.4.8q3 1.5 5.1 4 .7 1 1.8 1.5 1.4.7 2.1-.3c.8-1 0-2.4-1-3.5" style="fill:#c62828"/><path d="M87.4 20.1c0-2.6 1-5.9 4.2-6 1.7 0 3.4 2 2.8 4.1-1 3.4-.2 4.6.2 5.7.6 1.4 1.4 2.8.8 4.1q-1 2.1-3.6.3a9 9 0 0 1-4.4-8.2" style="fill:#ff847a"/><path d="M116.3 96.3c-6.4-4.2-13.3 0-13.3 0s1.4-6.7-3.9-10.6c-6.4-4.7-15.2-3.2-18.8 6.8-4.1 11.5 6.5 31.4 6.5 31.4s20.6.8 30.2-8a12.3 12.3 0 0 0-.7-19.6" style="fill:#f44336"/><path d="M116.3 96.3s-1.6-1-2.5-1.2c0 0 3.1 3.6 3.6 8.5.3 3.3-.5 7.1-4.2 10.9-8 8.1-25 9.4-26.3 9.4 1.5 0 20.8.5 30-8a12.3 12.3 0 0 0-.6-19.6m-13.6 1 .4-2.8c.2-3.2-.6-5.2-2.3-7.3-1.8-2-4.5-3.2-4.5-3.2s2.4 1.6 3 5.7q.6 3.3-.2 6.5-.4 1.1-.3 2.3.2 1.7 1.5 1.6c1.3 0 2-1.3 2.4-2.8" style="fill:#c62828"/><path d="M87.4 88c2.2-1.4 5.4-2.5 7.4 0 1 1.4.2 4-1.8 4.7-3.4 1.1-3.9 2.4-4.5 3.4-.8 1.2-1.6 2.7-3 3q-2.1.4-2.3-2.8c0-.4-.3-5.2 4.2-8.2" style="fill:#ff847a"/><path d="M28 59.8c-7.1 2.6-8 10.7-8 10.7s-4.4-5.2-10.8-3.2C1.7 69.7-2.3 77.7 3.6 86.5c6.8 10.2 29 13.5 29 13.5s13-16.1 11.5-29.1A12.3 12.3 0 0 0 28 59.8" style="fill:#f44336"/><path d="M28 59.8s-1.8.7-2.5 1.3c0 0 4.8-.4 9 2.2 2.9 1.7 5.5 4.6 6.3 9.8 1.8 11.3-7.3 25.8-8 26.8.9-1.2 12.7-16.5 11.3-29A12.3 12.3 0 0 0 28 59.8m-7.3 11.6q-1-1.4-2-2a9 9 0 0 0-7.2-2.5c-2.8.2-5.2 1.7-5.2 1.7s2.6-1 6.4.9q2.9 1.6 5 4 .7 1 1.7 1.7c1 .7 1.7.3 2.2-.3.8-1 0-2.4-.9-3.5" style="fill:#c62828"/><path d="M4.2 78.2c.1-2.7 1.2-6 4.4-6 1.7 0 3.3 2.2 2.7 4.2-1.1 3.4-.4 4.6 0 5.7.5 1.3 1.3 2.8.7 4.1q-1 2-3.6.2a9 9 0 0 1-4.2-8.2" style="fill:#ff847a"/></svg>