<svg xml:space="preserve" width="16" height="16" viewBox="0 0 128 128"><path d="m76 75.4 2.3-2.4h1.3l.5.6.9.2q.6.2.5.9v.2q-.2.6-.8.5l-1.4-.3-2.4 1.7q-.6.3-1-.2l-.1-.2a1 1 0 0 1 .2-1" style="fill:#eda600"/><path d="M120.8 113.2c-.5-2.5-3.2-5.2-5.8-7.8-1.7-1.6-4.8-1.3-6.5.4s-2 4.8-.2 6.5c2.6 2.6 5.3 5.2 7.8 5.7 1.9.5 3.5-.2 4-.7.6-.6 1.2-2.2.7-4.1" style="fill:#504f4f"/><linearGradient id="a" x1="86.4" x2="87.2" y1="23.3" y2="12.2" gradientTransform="matrix(1 0 0 -1 0 128)" gradientUnits="userSpaceOnUse"><stop offset="0" style="stop-color:#ffb300"/><stop offset=".4" style="stop-color:#ffca28"/></linearGradient><path d="M91.3 123.8h-6L82 104.5a4.5 4.5 0 0 0 8.7-1.6z" style="fill:url(#a)"/><linearGradient id="b" x1="107.9" x2="109" y1="30.4" y2="13.8" gradientTransform="matrix(1 0 0 -1 0 128)" gradientUnits="userSpaceOnUse"><stop offset="0" style="stop-color:#ffb300"/><stop offset=".4" style="stop-color:#ffca28"/></linearGradient><path d="M115.6 113.5a3 3 0 0 1-3.2-.2l-12.2-10.7-.3-.3a4.6 4.6 0 0 0 7.7-4.7l8.6 11.2a3 3 0 0 1-.6 4.7" style="fill:url(#b)"/><linearGradient id="c" x1="90.7" x2="96.2" y1="37.6" y2="25.2" gradientTransform="matrix(1 0 0 -1 0 128)" gradientUnits="userSpaceOnUse"><stop offset="0" style="stop-color:#ffb300"/><stop offset=".4" style="stop-color:#ffca28"/></linearGradient><path d="M107.8 99a4.6 4.6 0 0 1-8.2 3l-.6-.9-6.8-12.6c0-.3-1.2-.4-1.4-.4s-.4.2-.4.4l.3 14.3v.1a4.5 4.5 0 0 1-8.7 1.6l-.3-1.7-3.5-20.2 11.4-8 12.7 8 4.7 13.7v.3l.6 1q.3.7.2 1.4" style="fill:url(#c)"/><path d="m104.9 75.1-2.7-2.2c-.1-.1-.7.3-.9.3l-.5.2-1 .1q-.5.2-.5.9v.2q.2.7.9.6l1.4-.4 2.4 1.7q.5.4 1-.2v-.1q.4-.7-.1-1" style="fill:#eda600"/><path d="M108.8 60.3s-2.1-7.4-19-7.4-18 7.4-18 7.4l6.3 4.9h23.3z" style="fill:#444"/><linearGradient id="d" x1="90.2" x2="90.2" y1="51.1" y2="97.7" gradientTransform="translate(0 .72)" gradientUnits="userSpaceOnUse"><stop offset="0" style="stop-color:#515151"/><stop offset=".9" style="stop-color:#313131"/></linearGradient><path d="M109.7 60.3s-3-7.4-20-7.4-19 7.4-19 7.4l7.5 7v15.4l9.7 6.4a6 6 0 0 0 5 0l9.3-6.4V67.2z" style="fill:url(#d)"/><linearGradient id="e" x1="100.2" x2="109.9" y1="61.9" y2="50.6" gradientTransform="matrix(1 0 0 -1 0 128)" gradientUnits="userSpaceOnUse"><stop offset=".2" style="stop-color:#ffb300"/><stop offset=".5" style="stop-color:#ffca28"/></linearGradient><path d="m115.7 69-7.4-9.8-6.2 4.4 7.5 7-5.2 4.3-2.7-.2h-.4s-1.7.1-2.1.5q-.5.6-.2 1t0 .9q-.4.3-.4.8t.5.7q.2.3.1.5l-.3.9.7.9s-.4.5 0 .9q.5.5 2.1.6 1.4 0 3.6-.8l10.4-8.4c1-1.2 1-3 0-4.2" style="fill:url(#e)"/><linearGradient id="f" x1="80.7" x2="70.3" y1="61.3" y2="50.9" gradientTransform="matrix(1 0 0 -1 0 128)" gradientUnits="userSpaceOnUse"><stop offset=".2" style="stop-color:#ffb300"/><stop offset=".5" style="stop-color:#ffca28"/></linearGradient><path d="M82.2 78q0-.6-.3-.9-.4-.4 0-.9.3-.4-.2-1c-.5-.4-2.1-.5-2.1-.5h-.4l-2.7.2-5.2-4.3 7.4-7-6.2-4.4-7.3 9.8c-1 1.2-1.1 3 0 4.2l10.3 8.4q2.3.8 3.7.8t2-.6c.5-.4 0-.8 0-1 .2-.3.6-.3.7-.8q0-.4-.3-.8 0-.4.2-.6.4-.3.4-.7" style="fill:url(#f)"/><linearGradient id="g" x1="90.3" x2="90.3" y1="50.1" y2="96.7" gradientTransform="translate(0 .72)" gradientUnits="userSpaceOnUse"><stop offset="0" style="stop-color:#515151"/><stop offset=".9" style="stop-color:#313131"/></linearGradient><path d="M109.8 60.3s-3.1-7.4-20-7.4-19 7.4-19 7.4l7.3 6.9h24.3z" style="fill:url(#g)"/><linearGradient id="h" x1="90.3" x2="90.3" y1="75.1" y2="68.3" gradientTransform="matrix(1 0 0 -1 0 128)" gradientUnits="userSpaceOnUse"><stop offset="0" style="stop-color:#ffb300"/><stop offset=".7" style="stop-color:#ffca28"/></linearGradient><path d="M100.8 54.4c-.1 3-3.9 7.2-10.5 7.2-6.8 0-10.5-4.4-10.5-7.4v-.1q3.7-1.1 10-1.2 7 0 11 1.5" style="fill:url(#h)"/><path d="M88 124h-4.4c-.8 0-1.4-1-1.1-1.7.7-2.5 3-4.3 5.5-4.3a6 6 0 0 1 5.6 4.4q.2 1.4-1.2 1.6z" style="fill:#504f4f"/><path d="m20.1 75.4 2.3-2.4h1.3l.5.6 1 .2q.6.2.5.9v.2q-.2.6-.9.5l-1.4-.3-2.4 1.7q-.5.3-1-.2v-.2a1 1 0 0 1 .1-1" style="fill:#eda600"/><path d="M65 113.2c-.6-2.5-3.3-5.2-5.9-7.8-1.7-1.6-4.7-1.3-6.4.4s-2 4.8-.3 6.5c2.6 2.6 5.4 5.2 7.8 5.7 2 .5 3.5-.2 4-.7.6-.6 1.2-2.2.8-4.1" style="fill:#504f4f"/><linearGradient id="i" x1="30.6" x2="31.3" y1="23.3" y2="12.2" gradientTransform="matrix(1 0 0 -1 0 128)" gradientUnits="userSpaceOnUse"><stop offset="0" style="stop-color:#ffb300"/><stop offset=".4" style="stop-color:#ffca28"/></linearGradient><path d="M35.5 123.8h-6.1L26 104.5a4.5 4.5 0 0 0 9-1.5z" style="fill:url(#i)"/><linearGradient id="j" x1="52" x2="53.2" y1="30.4" y2="13.8" gradientTransform="matrix(1 0 0 -1 0 128)" gradientUnits="userSpaceOnUse"><stop offset="0" style="stop-color:#ffb300"/><stop offset=".4" style="stop-color:#ffca28"/></linearGradient><path d="M59.7 113.5a3 3 0 0 1-3.2-.2l-12.1-10.7-.3-.3a4.6 4.6 0 0 0 7.7-4.7l8.5 11.2a3 3 0 0 1-.6 4.7" style="fill:url(#j)"/><linearGradient id="k" x1="34.9" x2="40.4" y1="37.6" y2="25.2" gradientTransform="matrix(1 0 0 -1 0 128)" gradientUnits="userSpaceOnUse"><stop offset="0" style="stop-color:#ffb300"/><stop offset=".4" style="stop-color:#ffca28"/></linearGradient><path d="M52 99a4.6 4.6 0 0 1-8.3 3l-.6-.9-6.8-12.6c0-.3-1.2-.4-1.4-.4s-.4.2-.4.4l.4 14.3v.1a4.5 4.5 0 0 1-8.8 1.6l-.3-1.7-3.4-20.2 11.3-8 12.7 8 4.7 13.7.1.3q.1.6.6 1z" style="fill:url(#k)"/><path d="M49 75.1 46.4 73c-.2-.1-.7.3-1 .3l-.5.2-.9.1q-.6.2-.5.9v.2q.2.7.9.6l1.3-.4 2.4 1.7q.6.4 1-.2l.1-.1q.3-.7-.2-1" style="fill:#eda600"/><path d="M53 60.3S50.8 53 33.8 53s-18 7.4-18 7.4l6.4 4.9h23.2z" style="fill:#444"/><linearGradient id="l" x1="34.4" x2="34.4" y1="51.1" y2="97.7" gradientTransform="translate(0 .72)" gradientUnits="userSpaceOnUse"><stop offset="0" style="stop-color:#515151"/><stop offset=".9" style="stop-color:#313131"/></linearGradient><path d="M53.9 60.3s-3-7.4-20-7.4-19 7.4-19 7.4l7.4 7v15.4l9.8 6.4a6 6 0 0 0 5 0l9.3-6.4V67.2z" style="fill:url(#l)"/><path d="M48.2 45.6q-.6-1.4 1.2-3a10 10 0 0 0 1.8-10.3l-.3-.8H18.2l-1.1.8a10 10 0 0 0 1.8 10.3q1.9 1.6 1.3 3c-.5.9-2 1-2 1s.4.9 1.2 1.4q1.1.6 2.3.5S24 52 30.6 52h7.2c6.4 0 8.9-3.5 8.9-3.5q1 .1 2.3-.5c.8-.5 1.1-1.4 1.1-1.4s-1.5-.1-2-1" style="fill:#543930"/><radialGradient id="m" cx="138.2" cy="81.5" r="9.4" gradientTransform="matrix(1 0 0 .491 -98.2 6.48)" gradientUnits="userSpaceOnUse"><stop offset=".7" style="stop-color:#6d4c41;stop-opacity:0"/><stop offset="1" style="stop-color:#6d4c41"/></radialGradient><path d="M34.2 52v-3.8l11.4-1 1 1.4S44.3 52 37.8 52z" style="fill:url(#m)"/><radialGradient id="n" cx="129" cy="82.9" r="2.8" gradientTransform="rotate(155 90.93 44.44)scale(1 .742)" gradientUnits="userSpaceOnUse"><stop offset=".7" style="stop-color:#6d4c41"/><stop offset="1" style="stop-color:#6d4c41;stop-opacity:0"/></radialGradient><path d="M46.6 47c-1.7-2.7 2.1-3.7 2.1-3.7q-1 1.3-.5 2.3c.4.9 1.9 1 1.9 1s-2 1.8-3.5.3" style="fill:url(#n)"/><radialGradient id="o" cx="136.1" cy="90.7" r="12.2" gradientTransform="rotate(-94.3 71.3 100.1)scale(1 .833)" gradientUnits="userSpaceOnUse"><stop offset=".7" style="stop-color:#6d4c41;stop-opacity:0"/><stop offset="1" style="stop-color:#6d4c41"/></radialGradient><path d="M51.3 32.3c1.7 4.1-.1 8.4-1.8 10.2-.2.2-1.2 1.2-1.4 2 0 0-3.9-5.4-5-8.5q-.4-1-.5-2-.1-.8.4-1.5c.3-.5 8-.7 8-.7z" style="fill:url(#o)"/><radialGradient id="p" cx="26.3" cy="90.7" r="12.2" gradientTransform="rotate(94.3 17.8 80.82)scale(-1 .833)" gradientUnits="userSpaceOnUse"><stop offset=".7" style="stop-color:#6d4c41;stop-opacity:0"/><stop offset="1" style="stop-color:#6d4c41"/></radialGradient><path d="M17 32.3c-1.6 4.1.2 8.4 1.8 10.2.3.2 1.3 1.2 1.5 2 0 0 3.8-5.4 5-8.5q.4-1 .4-2 0-.8-.3-1.5-.6-.6-1.4-.4l-6.6-.3z" style="fill:url(#p)"/><radialGradient id="q" cx="28.3" cy="81.5" r="9.4" gradientTransform="matrix(-1 0 0 .491 56.65 6.48)" gradientUnits="userSpaceOnUse"><stop offset=".7" style="stop-color:#6d4c41;stop-opacity:0"/><stop offset="1" style="stop-color:#6d4c41"/></radialGradient><path d="M34.2 52v-3.8l-11.5-1-1 1.4s2.5 3.4 8.9 3.4z" style="fill:url(#q)"/><radialGradient id="r" cx="19.1" cy="82.9" r="2.8" gradientTransform="rotate(205 -1.82 48.9)scale(-1 .742)" gradientUnits="userSpaceOnUse"><stop offset=".7" style="stop-color:#6d4c41"/><stop offset="1" style="stop-color:#6d4c41;stop-opacity:0"/></radialGradient><path d="M21.7 47c1.7-2.7-2-3.7-2-3.7q1 1.3.5 2.3c-.5.9-2 1-2 1s2 1.8 3.5.3" style="fill:url(#r)"/><linearGradient id="s" x1="44.3" x2="54" y1="61.9" y2="50.6" gradientTransform="matrix(1 0 0 -1 0 128)" gradientUnits="userSpaceOnUse"><stop offset=".2" style="stop-color:#ffb300"/><stop offset=".5" style="stop-color:#ffca28"/></linearGradient><path d="m59.9 69-7.4-9.8-6.2 4.4 7.4 7-5.2 4.3-2.6-.2h-.4s-1.7.1-2.2.5q-.5.6-.1 1 .2.5 0 .9-.4.3-.4.8t.4.7q.3.3.2.5l-.3.9c0 .4.5.5.6.9 0 0-.3.5 0 .9q.6.5 2.2.6 1.3 0 3.6-.8l10.4-8.4c1-1.2 1-3 0-4.2" style="fill:url(#s)"/><linearGradient id="t" x1="24.9" x2="14.5" y1="61.3" y2="50.9" gradientTransform="matrix(1 0 0 -1 0 128)" gradientUnits="userSpaceOnUse"><stop offset=".2" style="stop-color:#ffb300"/><stop offset=".5" style="stop-color:#ffca28"/></linearGradient><path d="M26.4 78q0-.6-.3-.9-.4-.4-.1-.9t-.2-1c-.4-.4-2-.5-2-.5h-.5l-2.7.2-5.2-4.3 7.5-7-6.2-4.4L9.3 69c-1 1.2-1 3 0 4.2l10.4 8.4q2.3.8 3.6.8 1.5 0 2-.6c.5-.4 0-.8.1-1 .1-.3.6-.3.7-.8l-.3-.8.1-.6q.5-.3.5-.7" style="fill:url(#t)"/><linearGradient id="u" x1="34.4" x2="34.4" y1="50.1" y2="96.7" gradientTransform="translate(0 .72)" gradientUnits="userSpaceOnUse"><stop offset="0" style="stop-color:#515151"/><stop offset=".9" style="stop-color:#313131"/></linearGradient><path d="M54 60.3S50.8 53 33.8 53s-19 7.4-19 7.4l7.4 6.9h24.2z" style="fill:url(#u)"/><linearGradient id="v" x1="34.4" x2="34.4" y1="75.1" y2="68.3" gradientTransform="matrix(1 0 0 -1 0 128)" gradientUnits="userSpaceOnUse"><stop offset="0" style="stop-color:#ffb300"/><stop offset=".7" style="stop-color:#ffca28"/></linearGradient><path d="M45 54.4c-.2 3-4 7.2-10.6 7.2-6.8 0-10.5-4.4-10.5-7.4v-.1q3.6-1.1 10-1.2 7 0 11 1.5" style="fill:url(#v)"/><path d="M32.1 124h-4.3c-.8 0-1.4-1-1.2-1.7.7-2.5 3-4.3 5.5-4.3 2.7 0 5 1.9 5.6 4.4q.2 1.4-1.2 1.6z" style="fill:#504f4f"/><path d="M34 57.3c-2 0-3.6-1.5-3.6-3.4v-4.3h8V54c0 1.9-1.6 3.4-3.6 3.4zm11.1-22.9H23.6c-2.3 0-4.2 2-4.2 4.4s2 4.5 4.2 4.5h21.5c2.3 0 4.2-2 4.2-4.4s-1.9-4.5-4.2-4.5" style="fill:#e59600"/><path d="M34.3 18.5c-6.8 0-13.1 7.3-13.1 17.9 0 10.4 6.5 15.6 13.1 15.6s13.2-5.2 13.2-15.6c0-10.6-6.3-17.9-13.2-17.9" style="fill:#ffca28"/><ellipse cx="27.9" cy="38" rx="1.9" ry="2" style="fill:#404040"/><ellipse cx="40.8" cy="38" rx="1.9" ry="2" style="fill:#404040"/><path d="M37.6 45.2a10 10 0 0 1-6.6 0c-.7-.4-1.5.2-1.2.9s2.6 2.1 4.5 2.1 4.1-1.5 4.4-2.1-.4-1.3-1.1-.9" style="fill:#795548"/><path d="M35.6 41.6h-3q-.5.2-.3.6a2 2 0 0 0 1.8 1.1 2 2 0 0 0 1.8-1q.1-.5-.3-.7" style="fill:#e59600"/><path d="M50.2 23.6c-1-1.5-3.1-3.4-5.1-3.6-.3-1.9-2.3-3.5-4.3-4a12 12 0 0 0-10.6 1.1c-.4.2-2.9 1.6-4.6.6-1.1-.6-1.1-2.3-1.1-2.3s-3.4 1.3-2.3 5a4 4 0 0 0-3.5 2.1c-1 2-.6 3.7-.3 4.4-1 .9-2.3 2.7-1.4 5.1.6 1.8 3.2 2.6 3.2 2.6-.1 3.2.5 5.2.8 6h.3c.4-1.6 1.7-7.2 1.6-8.1 0 0 4.5-1 8.9-4.1a13 13 0 0 1 2.8-1.6c5.5-2.2 6.6 1.5 6.6 1.5s3.8-.7 5 4.5c.4 2 .7 5.1.9 7.3q0 .3.3 0c.4-.8 1.1-2.5 1.3-4.3 0-.6 1.8-1.4 2.5-4.1 1-3.6-.2-7-1-8" style="fill:#543930"/><radialGradient id="w" cx="41.4" cy="97.2" r="14.3" gradientTransform="rotate(252 -15 21.3)scale(-1 .742)" gradientUnits="userSpaceOnUse"><stop offset=".7" style="stop-color:#6d4c41;stop-opacity:0"/><stop offset="1" style="stop-color:#6d4c41"/></radialGradient><path d="M48.7 35.8c0-.6 1.7-1.4 2.4-4.1l.2-.9c.6-3.2-.4-6.2-1-7.2a10 10 0 0 0-4.8-3.5h-.4s.1.8-.2 1.5c-.5.9-1.4 1.1-1.4 1.1 4.8 4.8 4.5 8.8 5.2 13.1" style="fill:url(#w)"/><radialGradient id="x" cx="27.5" cy="112.8" r="3.7" gradientTransform="rotate(28.2 -269 -59.21)scale(1 -1.186)" gradientUnits="userSpaceOnUse"><stop offset=".6" style="stop-color:#6d4c41"/><stop offset="1" style="stop-color:#6d4c41;stop-opacity:0"/></radialGradient><path d="m31.3 16.5-1.1.6c-.4.2-2.9 1.6-4.6.6-1.1-.6-1.1-2.2-1.1-2.3-.5.7-2 5.2 2.4 5.5 1.8 0 3-1.5 3.7-3z" style="fill:url(#x)"/><radialGradient id="y" cx="174.5" cy="34.3" r="11.5" gradientTransform="matrix(-.938 -.394 -.218 .528 207 72.77)" gradientUnits="userSpaceOnUse"><stop offset=".7" style="stop-color:#6d4c41;stop-opacity:0"/><stop offset="1" style="stop-color:#6d4c41"/></radialGradient><path d="M40.2 15.8q4.3 1.1 4.9 4.2c.1.6.3 6-10.1-.1-4-2.3-2.8-3.8-2.4-4 1.8-.6 4.4-1 7.6-.2" style="fill:url(#y)"/><radialGradient id="z" cx="26" cy="109.3" r="3.4" gradientTransform="matrix(1 0 0 -1.223 0 152.42)" gradientUnits="userSpaceOnUse"><stop offset=".7" style="stop-color:#6d4c41;stop-opacity:0"/><stop offset="1" style="stop-color:#6d4c41"/></radialGradient><path d="M24.5 15.4c-.4.2-3.3 1.6-2.2 5l3 .5c-2.7-2.8-.8-5.5-.8-5.5" style="fill:url(#z)"/><radialGradient id="A" cx="25.5" cy="103.3" r="6.5" gradientTransform="rotate(-165 33.5 -35.96)scale(1 -.936)" gradientUnits="userSpaceOnUse"><stop offset=".7" style="stop-color:#6d4c41;stop-opacity:0"/><stop offset="1" style="stop-color:#6d4c41"/></radialGradient><path d="m24.2 20.7-2-.3h-.4c-1.1.2-2.4.7-3 2.2a6 6 0 0 0-.4 4.3s1-.9 3.2-1z" style="fill:url(#A)"/><radialGradient id="B" cx="24" cy="97" r="6.8" gradientTransform="rotate(187.8 -3.6 82.02)scale(-1 1.405)" gradientUnits="userSpaceOnUse"><stop offset=".6" style="stop-color:#6d4c41;stop-opacity:0"/><stop offset="1" style="stop-color:#6d4c41"/></radialGradient><path d="M18.3 27c-1 .9-2.3 2.7-1.3 5 .7 1.8 3.2 2.6 3.2 2.6l.8.2.6-8.8q-1.9 0-3.2.9z" style="fill:url(#B)"/><path d="M104.4 45.6q-.6-1.4 1.2-3a10 10 0 0 0 1.9-10.3l-.3-.8H74.4l-1 .8a10 10 0 0 0 1.8 10.3c1 1.1 1.7 2 1.2 3s-1.9 1-1.9 1 .3.9 1.1 1.4q1.3.6 2.3.5s2.5 3.5 9 3.5H94c6.5 0 9-3.5 9-3.5q1 .1 2.2-.5c.8-.5 1.2-1.4 1.2-1.4s-1.5-.1-2-1" style="fill:#543930"/><radialGradient id="C" cx="82" cy="81.5" r="9.4" gradientTransform="matrix(1 0 0 .491 14.3 6.48)" gradientUnits="userSpaceOnUse"><stop offset=".7" style="stop-color:#6d4c41;stop-opacity:0"/><stop offset="1" style="stop-color:#6d4c41"/></radialGradient><path d="M90.4 52v-3.8l11.5-1 1 1.4s-2.5 3.4-9 3.4z" style="fill:url(#C)"/><radialGradient id="D" cx="72.7" cy="82.9" r="2.8" gradientTransform="rotate(155 90.93 56.95)scale(1 .742)" gradientUnits="userSpaceOnUse"><stop offset=".7" style="stop-color:#6d4c41"/><stop offset="1" style="stop-color:#6d4c41;stop-opacity:0"/></radialGradient><path d="M102.9 47c-1.7-2.7 2-3.7 2-3.7q-1 1.3-.5 2.3c.5.9 2 1 2 1s-2 1.8-3.5.3" style="fill:url(#D)"/><radialGradient id="E" cx="79.9" cy="90.7" r="12.2" gradientTransform="rotate(-94.3 71.3 47.9)scale(1 .833)" gradientUnits="userSpaceOnUse"><stop offset=".7" style="stop-color:#6d4c41;stop-opacity:0"/><stop offset="1" style="stop-color:#6d4c41"/></radialGradient><path d="M107.5 32.3c1.7 4.1 0 8.4-1.8 10.2-.2.2-1.2 1.2-1.4 2 0 0-3.8-5.4-5-8.5q-.4-1-.4-2 0-.8.3-1.5c.4-.5 8.1-.7 8.1-.7z" style="fill:url(#E)"/><radialGradient id="F" cx="82.5" cy="90.7" r="12.2" gradientTransform="rotate(94.3 17.8 133.01)scale(-1 .833)" gradientUnits="userSpaceOnUse"><stop offset=".7" style="stop-color:#6d4c41;stop-opacity:0"/><stop offset="1" style="stop-color:#6d4c41"/></radialGradient><path d="M73.3 32.3c-1.7 4.1.1 8.4 1.8 10.2.2.2 1.2 1.2 1.4 2 0 0 3.8-5.4 5-8.5l.5-2q0-.8-.4-1.5t-1.4-.4l-6.6-.3z" style="fill:url(#F)"/><radialGradient id="G" cx="84.6" cy="81.5" r="9.4" gradientTransform="matrix(-1 0 0 .491 169.14 6.48)" gradientUnits="userSpaceOnUse"><stop offset=".7" style="stop-color:#6d4c41;stop-opacity:0"/><stop offset="1" style="stop-color:#6d4c41"/></radialGradient><path d="M90.4 52v-3.8l-11.4-1-1 1.4s2.4 3.4 8.8 3.4z" style="fill:url(#G)"/><radialGradient id="H" cx="75.3" cy="82.9" r="2.8" gradientTransform="rotate(25 -164.87 -8.2)scale(1 -.742)" gradientUnits="userSpaceOnUse"><stop offset=".7" style="stop-color:#6d4c41"/><stop offset="1" style="stop-color:#6d4c41;stop-opacity:0"/></radialGradient><path d="M78 47c1.7-2.7-2.1-3.7-2.1-3.7q1 1.3.5 2.3c-.5.9-1.9 1-1.9 1s2 1.8 3.5.3" style="fill:url(#H)"/><linearGradient id="I" x1="34.4" x2="34.4" y1="8.3" y2="33.7" gradientTransform="translate(0 2)" gradientUnits="userSpaceOnUse"><stop offset="0" style="stop-color:#504f4f"/><stop offset="1" style="stop-color:#212121"/></linearGradient><path d="M50 5.3q-.5-1.6-2.2-1.2c-2.2.8-6 2.6-7.9 6-1.4 2.4-2 6-2.2 9.1q-.3 1.9-2.2 1.9h-2.3a2 2 0 0 1-2.1-1.9c-.3-3-.9-6.7-2.3-9.2a15 15 0 0 0-7.9-5.9c-1-.3-2 .2-2.1 1.2-.4 2.4-.7 6.6 1.2 9.9 1.4 2.4 4.3 4.8 6.8 6.5a1 1 0 0 1 0 1.6q-1.5 1.2-2.4 2.6c-.6.9.5 2 1.4 1.4q2.5-1.8 8.6-2c6-.3 6.8.9 8.5 2 1 .6 2-.5 1.4-1.4q-.9-1.4-2.4-2.6a1 1 0 0 1 0-1.6c2.5-1.7 5.4-4 6.9-6.6 1.9-3.2 1.6-7.4 1.2-9.8" style="fill:url(#I)"/><path d="M42.3 11.8c-1 1.8-1.3 4.8-1.3 6.1q.1.5.5.4c1.1-.7 3.7-2.5 4.7-4.3 1-1.5.8-3.5.7-4.6q-.1-.8-1-.5c-1 .4-2.7 1.3-3.6 2.9m-15.8 0c1 1.8 1.2 4.8 1.3 6.2q0 .4-.6.3c-1-.7-3.6-2.4-4.7-4.3a8 8 0 0 1-.7-4.6q.3-.7 1-.5c1 .4 2.8 1.3 3.7 2.9" style="fill:#ff4081"/><path d="M90 57.3c-2 0-3.6-1.5-3.6-3.4v-4.3h8V54c0 1.9-1.6 3.4-3.6 3.4zm11.1-22.9H79.7c-2.3 0-4.2 2-4.2 4.4s1.9 4.5 4.2 4.5H101c2.3 0 4.2-2 4.2-4.4s-1.9-4.5-4.2-4.5" style="fill:#e59600"/><path d="M90.4 18.5c-6.9 0-13.2 7.3-13.2 17.9 0 10.4 6.5 15.6 13.2 15.6s13.1-5.2 13.1-15.6c0-10.6-6.3-17.9-13.1-17.9" style="fill:#ffca28"/><ellipse cx="84" cy="38" rx="1.9" ry="2" style="fill:#404040"/><ellipse cx="96.9" cy="38" rx="1.9" ry="2" style="fill:#404040"/><path d="M93.6 45.2a10 10 0 0 1-6.6 0c-.7-.4-1.4.2-1.1.9s2.5 2.1 4.4 2.1 4.2-1.5 4.5-2.1-.5-1.3-1.2-.9" style="fill:#795548"/><path d="M91.7 41.6h-3.1q-.4.2-.2.6c.2.4.6 1.1 1.7 1.1a2 2 0 0 0 1.8-1q.1-.5-.2-.7" style="fill:#e59600"/><path d="M106.5 23.6c-1-1.5-3.2-3.4-5.2-3.6-.3-1.9-2.3-3.5-4.3-4-5.3-1.8-8.7.1-10.6 1.1-.4.2-2.9 1.6-4.6.6-1-.6-1-2.3-1-2.3s-3.5 1.3-2.3 5a4 4 0 0 0-3.5 2.1c-1 2-.7 3.7-.4 4.4-1 .9-2.3 2.7-1.4 5.1.7 1.8 3.3 2.6 3.3 2.6-.2 3.2.4 5.2.7 6h.3c.4-1.6 1.8-7.2 1.6-8.1 0 0 4.6-1 9-4.1a13 13 0 0 1 2.8-1.6c5.4-2.2 6.6 1.5 6.6 1.5s3.7-.7 4.9 4.5c.4 2 .7 5.1 1 7.3q.1.3.2 0c.4-.8 1.2-2.5 1.4-4.3 0-.6 1.7-1.4 2.4-4.1 1-3.6-.2-7-1-8" style="fill:#543930"/><radialGradient id="J" cx="97.6" cy="97.2" r="14.3" gradientTransform="rotate(252 -15 -19.56)scale(-1 .742)" gradientUnits="userSpaceOnUse"><stop offset=".7" style="stop-color:#6d4c41;stop-opacity:0"/><stop offset="1" style="stop-color:#6d4c41"/></radialGradient><path d="M105 35.8c0-.6 1.7-1.4 2.4-4.1l.2-.9c.6-3.2-.5-6.2-1.1-7.2-1-1.3-2.9-3.1-4.7-3.5h-.5s.1.8-.2 1.5c-.4.9-1.4 1.1-1.4 1.1 4.8 4.8 4.5 8.8 5.2 13.1" style="fill:url(#J)"/><radialGradient id="K" cx="83.7" cy="112.8" r="3.7" gradientTransform="rotate(28.2 -212.8 -59.24)scale(1 -1.186)" gradientUnits="userSpaceOnUse"><stop offset=".6" style="stop-color:#6d4c41"/><stop offset="1" style="stop-color:#6d4c41;stop-opacity:0"/></radialGradient><path d="m87.6 16.5-1.2.6c-.4.2-2.9 1.6-4.6.6-1-.6-1-2.2-1-2.3-.6.7-2 5.2 2.3 5.5 1.9 0 3-1.5 3.7-3z" style="fill:url(#K)"/><radialGradient id="L" cx="149.1" cy="84.6" r="11.5" gradientTransform="matrix(-.938 -.394 -.218 .528 250.4 36.12)" gradientUnits="userSpaceOnUse"><stop offset=".7" style="stop-color:#6d4c41;stop-opacity:0"/><stop offset="1" style="stop-color:#6d4c41"/></radialGradient><path d="M96.5 15.8q4.4 1.1 4.8 4.2c.2.6.3 6-10-.1-4-2.3-2.9-3.8-2.5-4 1.8-.6 4.4-1 7.7-.2" style="fill:url(#L)"/><radialGradient id="M" cx="82.2" cy="109.3" r="3.4" gradientTransform="matrix(1 0 0 -1.223 0 152.42)" gradientUnits="userSpaceOnUse"><stop offset=".7" style="stop-color:#6d4c41;stop-opacity:0"/><stop offset="1" style="stop-color:#6d4c41"/></radialGradient><path d="M80.7 15.4c-.4.2-3.3 1.6-2.2 5l3.1.5c-2.7-2.8-.9-5.5-.9-5.5" style="fill:url(#M)"/><radialGradient id="N" cx="81.7" cy="103.3" r="6.5" gradientTransform="rotate(15 272 678.86)scale(-1 .936)" gradientUnits="userSpaceOnUse"><stop offset=".7" style="stop-color:#6d4c41;stop-opacity:0"/><stop offset="1" style="stop-color:#6d4c41"/></radialGradient><path d="m80.4 20.7-2-.3H78c-1 .2-2.4.7-3 2.2a6 6 0 0 0-.4 4.3s1-.9 3.2-1z" style="fill:url(#N)"/><radialGradient id="O" cx="80.2" cy="97" r="6.8" gradientTransform="rotate(187.8 -3.6 78.17)scale(-1 1.405)" gradientUnits="userSpaceOnUse"><stop offset=".6" style="stop-color:#6d4c41;stop-opacity:0"/><stop offset="1" style="stop-color:#6d4c41"/></radialGradient><path d="M74.5 27c-1 .9-2.2 2.7-1.3 5 .7 1.8 3.3 2.6 3.3 2.6l.7.2.6-8.8q-1.8 0-3.1.9z" style="fill:url(#O)"/><linearGradient id="P" x1="90.4" x2="90.4" y1="8.7" y2="34" gradientTransform="translate(0 2)" gradientUnits="userSpaceOnUse"><stop offset="0" style="stop-color:#504f4f"/><stop offset="1" style="stop-color:#212121"/></linearGradient><path d="M106 5.3q-.5-1.6-2.2-1.2c-2.2.8-6 2.6-7.8 6-1.5 2.4-2 6-2.3 9.1 0 1.1-1 2-2.1 1.9h-2.3a2 2 0 0 1-2.2-1.9 22 22 0 0 0-2.3-9.2A15 15 0 0 0 77 4.1c-1-.3-2 .2-2.2 1.2-.4 2.4-.7 6.6 1.2 9.9 1.4 2.4 4.3 4.8 6.8 6.5a1 1 0 0 1 0 1.6q-1.5 1.2-2.3 2.6c-.6.9.4 2 1.3 1.4q2.6-1.8 8.6-2c6-.3 6.8.9 8.6 2 .9.6 2-.5 1.3-1.4q-.8-1.4-2.3-2.6a1 1 0 0 1 0-1.6c2.5-1.7 5.4-4 6.8-6.6 2-3.2 1.6-7.4 1.2-9.8" style="fill:url(#P)"/><path d="M98.3 11.8c-1 1.8-1.2 4.8-1.3 6.1q0 .5.6.4c1-.7 3.6-2.5 4.6-4.3 1-1.5.9-3.5.7-4.6q-.1-.8-1-.5c-1 .4-2.7 1.3-3.6 2.9m-15.8 0a15 15 0 0 1 1.3 6.2q-.1.4-.5.3c-1.2-.7-3.7-2.4-4.7-4.3-1-1.5-.8-3.5-.7-4.6q.1-.7 1-.5c1 .4 2.7 1.3 3.6 2.9" style="fill:#ff4081"/><path d="M30.9 34.6c-.4-.5-1.2-1.2-2.9-1.2s-2.5.7-2.9 1.2v.6q.2.2.8.1.4-.2 2.1-.4 1.6.1 2.2.4t.7-.1q.2-.3 0-.6m12.8 0c-.4-.5-1.3-1.2-3-1.2s-2.4.7-2.8 1.2v.6q.2.2.8.1.5-.2 2.1-.4 1.6.1 2.1.4.7.3.8-.1zm43.1 0c-.4-.5-1.2-1.2-2.9-1.2s-2.5.7-2.8 1.2q-.3.3 0 .6.1.2.7.1.5-.2 2.1-.4 1.7.1 2.2.4.5.2.7-.1t0-.6m12.8 0c-.4-.5-1.3-1.2-2.9-1.2s-2.5.7-2.9 1.2v.6q.2.2.8.1.5-.2 2.1-.4 1.7.1 2.1.4.6.2.8-.1z" style="fill:#6d4c41"/></svg>