<svg xml:space="preserve" width="16" height="16" viewBox="0 0 128 128"><path d="M107.6 46.3S109.3 14 83.7 7.6C54.1.2 48.3 28.5 48.3 28.5S36.7 26.3 29.6 34c-6 6.6-5.5 13-5.5 13s-8-1.8-14.2 3.7-5.3 10.6-5.3 10.6L23 68.6s93.9.5 94.4.2 6.2-9.4 6.2-9.4-1-7.8-6.4-11c-5.5-3-9.7-2.1-9.7-2.1" style="fill:#e2ebee"/><path d="M14.3 73.5c4.6.1 35.2.7 53.8.6s46.8.1 50.7-1.7q4.8-2.2 5.2-7.2c.3-3.3-.3-5.8-.3-5.8s-4.4 3.2-12.7 3.3c-5.1 0-15.6-.8-13.5-2.7.5-.5 8.6-6.6 8.2-12.3 0-1.3-7.3 5.3-14.2 8.1s-13.4 5-22.5 4.4c-7.6-.5-11-3.6-11-3.6S54.5 61 43.4 62s-13.5-3.3-13.5-3.3-5.4 4.1-14.4 4c-9-.2-10.7-3.4-10.7-3.4s-.9 5.8 1 9.1c2 3.5 5.4 5 8.5 5.2" style="fill:#b9ced2"/><path d="M70 81.6c-1.7-.6-7.8 4.2-10.6 9s-1 8.3 2 9.7c3.3 1.6 8.1.6 9.5-4.1 1.3-4.7 1-14-1-14.6m-32.2-2.4c-1.6-.6-6.6 4.1-8.9 6.6-3 3.4-5.4 9.7.4 12.3s9.5-1.6 9.8-7.5c.3-5.4 0-11-1.3-11.4m12.2 22.5c-1.7-1-8.6 5.2-10.8 8.9s-2 8.4 2.4 10.3 8.5-.5 9.3-7c.6-4.5.7-11.4-1-12.2m33.6.5c-1.2-.7-9.5 5.7-11.3 10.3a6.4 6.4 0 0 0 11.7 4.7c1.7-5 1-14.2-.4-15m20.5-19.8c-1.7-1-8.5 4.6-10.8 8.9-2.9 5.3-.6 9.4 2.5 10.6 3.3 1.4 7.5 0 8.9-4.7 2-7 1-13.9-.6-14.8" style="fill:#4fc4f8"/><path d="M96.4 91c-1 .2-2.4 1.8-2.6 4.4s1.4 4 3.1 3.3c1.6-.6 1.8-2.9 1.8-4.3s-.6-3.5-2.3-3.3M63 90.3c-1.1-.4-3.3 1.4-3.6 4.3q-.4 3.4 2.2 3.6c2.4.2 3.2-2.7 3.1-4.5 0-1-.2-3-1.7-3.4m-20.5 19.5c-1.1 0-2.9 1.7-2.9 4.5s1.4 4 3.1 3.6 2-3.7 2-5c-.1-1.2-.7-3-2.2-3.1M31 88.4c-1.5-.4-3.3 1.4-3.6 3.5q-.1 3.2 2.3 3.7c2.4.5 2.8-1.6 3-3.7q0-3-1.8-3.5M76.4 111c-1.3-.1-3.2 1.8-3.2 4.8s1.6 3.4 2.6 3.5q2.3-.1 2.6-4.3c.1-2.3-.4-3.9-2-4" style="fill:#aee6fd"/></svg>