<svg xml:space="preserve" width="16" height="16" viewBox="0 0 128 128"><path d="m65.7 44 18.5 18.4a3 3 0 0 1 0 3.9L65.6 85a3 3 0 0 1-4 0L43.3 66.4c-1-1-1.1-2.7 0-3.9l18.4-18.4c1-1 2.8-1.2 3.9-.2z" style="fill:#f77e00"/><path d="m62.7 46.6 16.1 16.1a2.4 2.4 0 0 1 0 3.4l-16 16.2c-1 1-2.5 1-3.5.1L43 66.1c-1-.9-1-2.4-.1-3.3l16.2-16.2c1-1 2.5-1 3.5 0" style="fill:#ff9800"/><path d="M59.8 48 48.1 59.5q-.7.9-.3 1.7c.6.8 1.5.4 2 0l11-10.8q.5-.8.1-1.9-.1-.5-.7-.6z" style="fill:#ffbd52"/><circle cx="46.6" cy="63.2" r="1.2" style="fill:#ffbd52"/></svg>