<svg xml:space="preserve" width="16" height="16" viewBox="0 0 128 128"><path d="m100.9 15-13 13L98 38l13-13q5.5-5.5 13-7.2V4.7c-8.8.4-16.9 4.1-23.1 10.4m-4.3 15.4a37 37 0 0 0-52-.2l52.2 52.2a37 37 0 0 0-.2-52" style="fill:#bdbdbd"/><path d="M107.7 28.6a18 18 0 0 0-11-10c-4.3-.9-6.8 2.3-9.5 5a36 36 0 0 1 15.5 15c-.2-.3 4-4.1 4-4.1 1.5-1.5 1.6-3.8 1-5.9" style="fill:#78909c"/><path d="M96.6 30.5a37 37 0 0 0-52-.2l52.2 52.2a37 37 0 0 0-.2-52" style="fill:#bdbdbd"/><path d="M83.7 41.8A82 82 0 0 0 54 23.6L51.1 25s11.1 4.7 28.2 20.4 24 28.5 24 28.5q.8-1.5 1.5-3.7s-2.1-11.1-21-28.3" style="fill:#9e9e9e"/><path d="M81.2 44.7c17.6 16.2 28 32.9 24 37.8-3 3.5-6.5 3.2-6.5 3.2-7.8-1.9-20.5-12.3-33.2-23.9-12.9-11.8-26-27-26.7-29.7 0 0-.8-2.7-.1-4.6a7 7 0 0 1 2.8-3.4c6.7-3.7 22 4.5 39.7 20.6" style="fill:#bdbdbd"/><ellipse cx="69.3" cy="57.3" rx="7" ry="41.3" style="fill:#757575" transform="rotate(-47.5 69.27 57.34)"/><path d="M68.1 22.3q-1.6.6-1.9 2.2c0 1.3 2 2.7 4.4 2.2 4-.6 7.2-.5 8.2-.3.6 0 2.6 0 2.6-1.2 0-1.3-2-2.2-2.5-2.4a16 16 0 0 0-10.8-.6M49 26.6c-.4 1.5 2.6 2.5 3.3 2.7 1.4.4 5.3 1.8 6 1.3.4-.4.5-1.4-3.6-3.7q-5-2.6-5.8-.3" style="fill:#dfecf5"/><radialGradient id="a" cx="79.3" cy="48.1" r="123.2" gradientTransform="rotate(135.7 71.05 27.89)scale(1 .16)" gradientUnits="userSpaceOnUse"><stop offset="0" style="stop-color:#4fc3f7"/><stop offset=".8" style="stop-color:#4fc3f7;stop-opacity:0"/></radialGradient><path d="M6.7 120.1c-2-2-1.7-7.4.7-9.4L66 57.9c1-1 2.8-1 3.8 0s1.1 2.7 0 3.8L15.7 119c-2.5 2.6-6.8 3.1-8.9 1" style="fill:url(#a)"/><linearGradient id="b" x1="69.9" x2="22.5" y1="58" y2="111.5" gradientUnits="userSpaceOnUse"><stop offset="0" style="stop-color:#4fc3f7"/><stop offset=".8" style="stop-color:#4fc3f7;stop-opacity:0"/></linearGradient><path d="M70.3 58.5A324 324 0 0 0 15 119.6l.6-.5 54.2-57.4q1.3-1.5.5-3.2" style="fill:url(#b)"/><radialGradient id="c" cx="61.3" cy="35.4" r="94.4" gradientTransform="rotate(142.2 57.82 23.8)scale(1 .16)" gradientUnits="userSpaceOnUse"><stop offset="0" style="stop-color:#4fc3f7"/><stop offset=".8" style="stop-color:#4fc3f7;stop-opacity:0"/></radialGradient><path d="m9.4 78 44.8-31.5c1.1-.9 2.8-.7 3.7.5s.8 2.8-.4 3.8L13 87.8c-2.9 2.4-6.3 3.2-8.4-.5-2.2-3.9 2.2-7.5 4.8-9.3" style="fill:url(#c)"/><linearGradient id="d" x1="53.3" x2="14.2" y1="44.8" y2="87.4" gradientTransform="rotate(6.9 23.82 79.01)" gradientUnits="userSpaceOnUse"><stop offset="0" style="stop-color:#4fc3f7"/><stop offset=".8" style="stop-color:#4fc3f7;stop-opacity:0"/></linearGradient><path d="M58.3 47.7c-.2 0-34.8 23.6-46.1 40.7l45.3-37.6q1.5-1.3.8-3.1" style="fill:url(#d)"/><radialGradient id="e" cx="44" cy="25" r="70.1" gradientTransform="rotate(148.8 44.9 19.64)scale(1 .16)" gradientUnits="userSpaceOnUse"><stop offset="0" style="stop-color:#4fc3f7"/><stop offset=".8" style="stop-color:#4fc3f7;stop-opacity:0"/></radialGradient><path d="M5 62.4c-2-4.4 2.7-6.5 2.7-6.5l35.6-19.7c1.2-.8 2.9-.5 3.6.8s.5 3-.8 3.7l-34 22.7s-4.8 3.7-7-1" style="fill:url(#e)"/><linearGradient id="f" x1="38.3" x2="9.8" y1="32.6" y2="63.7" gradientTransform="rotate(13 15.62 72.31)" gradientUnits="userSpaceOnUse"><stop offset="0" style="stop-color:#4fc3f7"/><stop offset=".8" style="stop-color:#4fc3f7;stop-opacity:0"/></linearGradient><path d="M47.3 37.7c-.2 0-18.6 9.7-36.4 26.4L46 40.7c1-.6 1.5-1.9 1.1-3" style="fill:url(#f)"/><radialGradient id="g" cx="100.7" cy="64.4" r="97.1" gradientTransform="rotate(128.1 77.19 21.32)scale(1 -.16)" gradientUnits="userSpaceOnUse"><stop offset="0" style="stop-color:#4fc3f7"/><stop offset=".8" style="stop-color:#4fc3f7;stop-opacity:0"/></radialGradient><path d="M48.4 118 81 71.5c.9-1.2.7-3-.5-3.8a2.7 2.7 0 0 0-3.8.4l-38.2 46.1c-2.4 3-3.3 6.3.5 8.4 3.9 2.2 7.4-2.2 9.3-4.8" style="fill:url(#g)"/><linearGradient id="h" x1="95.9" x2="56.6" y1="77" y2="119.8" gradientTransform="rotate(-3 -13.27 321.2)" gradientUnits="userSpaceOnUse"><stop offset="0" style="stop-color:#4fc3f7"/><stop offset=".8" style="stop-color:#4fc3f7;stop-opacity:0"/></linearGradient><path d="M81.1 68.3c-.5.5-26.2 33-34.5 51.8L81 71.6c.8-1 .9-2.5.1-3.3" style="fill:url(#h)"/><radialGradient id="i" cx="87.3" cy="48.7" r="73.4" gradientTransform="rotate(120.4 69.21 33.82)scale(1 -.16)" gradientUnits="userSpaceOnUse"><stop offset="0" style="stop-color:#4fc3f7"/><stop offset=".8" style="stop-color:#4fc3f7;stop-opacity:0"/></radialGradient><path d="M64.9 122.8c4.4 2 6.5-2.6 6.5-2.6l20.9-38.8c.8-1.3 0-3-.8-3.7s-3-.5-3.8.8L64 115.8s-3.8 4.9 1 7" style="fill:url(#i)"/><linearGradient id="j" x1="84" x2="53.9" y1="59.4" y2="92.2" gradientTransform="rotate(-16.3 156.85 42.95)" gradientUnits="userSpaceOnUse"><stop offset="0" style="stop-color:#4fc3f7"/><stop offset=".8" style="stop-color:#4fc3f7;stop-opacity:0"/></linearGradient><path d="M91.7 78a181 181 0 0 0-20.6 42.7L92 82a3 3 0 0 0-.2-4" style="fill:url(#j)"/></svg>