<svg xml:space="preserve" width="16" height="16" viewBox="0 0 128 128"><ellipse cx="40.5" cy="16.6" rx="5.4" ry="5.9" style="fill:#f19534" transform="rotate(-10.5 40.46 16.65)"/><ellipse cx="87.1" cy="16.7" rx="5.9" ry="5.8" style="fill:#f19534" transform="rotate(-79.5 87.13 16.72)"/><path d="M38.9 18.2c-.3-3 1.3-3.6 1.6-3.8q1.3-1 .5-1.8c-.5-.6-1.6-.3-2-.1-1.5.6-3 3-1.9 6 .1.3.5 1 1.3.8.6-.2.5-.9.5-1.2m45.7-.5c.7-2.7 2.4-2.7 3-2.8q1.7-.4 1.5-1.3c-.2-1.2-1.6-1.2-2.5-1A4.6 4.6 0 0 0 83 17c0 .3 0 1.4.8 1.5.8 0 .9-.8 1-1" style="fill:#ffca28"/><path d="m36.4 32.2 2.7 7.3H88l3.6-7c-4-4-3.6-11.8-3.6-11.8l-3.4-1.4S80 29.8 62.9 29.8 43.1 19.3 43.1 19.3l-3.9 1.4s1.6 7.2-2.8 11.5" style="fill:#f19534"/><path d="M95.9 70.5H32c-6.9 0-12.5 6-12.5 13.3S25.1 97.2 32 97.2h64c6.9 0 12.5-6 12.5-13.4 0-7.3-5.6-13.3-12.5-13.3" style="fill:#7a4c32"/><path d="M64 24.6c-20.3 0-39.1 21.7-39.1 53 0 31 19.4 46.4 39.1 46.4s39.1-15.4 39.1-46.4c0-31.3-18.8-53-39.1-53" style="fill:#a56c43"/><path d="M68.5 91h-9q-1.3.7-.8 2c.3.8 2 3.1 5.3 3.1s5-2.3 5.3-3.1q.5-1.3-.8-2" style="fill:#875334"/><path d="M73.8 100.4a30 30 0 0 1-19.6 0c-2.1-1.3-4.3.7-3.4 2.6s7.5 6.4 13.2 6.4 12.3-4.5 13.2-6.4c1-2-1.2-3.8-3.4-2.6" style="fill:#473530"/><ellipse cx="45.1" cy="80.3" rx="5.7" ry="5.9" style="fill:#42312c"/><ellipse cx="82.9" cy="80.3" rx="5.7" ry="5.9" style="fill:#42312c"/><path d="M91.8 70s-2.7-4.2-8.9-4.2-8.8 4.1-8.8 4.1q-.4.5-.4 1.1.1 1.7 1.9 1.8l.7-.1C80 71 83 71 83 71s2.8 0 6.5 1.6l.8.1q1.7-.1 1.9-1.8 0-.6-.4-1M54 70s-2.7-4.2-9-4.2-8.8 4.1-8.8 4.1q-.3.5-.3 1.1.1 1.7 1.8 1.8l.8-.1C42.2 71 45 71 45 71s2.9 0 6.6 1.6l.8.1q1.6-.1 1.8-1.8 0-.6-.4-1" style="fill:#42312c"/><path d="M64.2 16.6c-53.3.3-42.4 61-42.4 61l3.5 9.1c.2.4.8.4.9 0 1-5.1 5.2-23.2 7.2-28.6 1.3-3.3 5.5-4.2 9-3.6 5.2 1 11.8 1.2 22 1.2s18.3-.3 23.5-1.2c3.4-.6 5.9.3 7 3.6a314 314 0 0 1 7.3 28.5c.1.4.7.5.9 0l3.5-9s10.9-60.7-42.4-61" style="fill:#3c2c23"/><radialGradient id="a" cx="64.2" cy="65" r="44.6" gradientTransform="matrix(1 0 0 -1.128 0 140.45)" gradientUnits="userSpaceOnUse"><stop offset=".8" style="stop-color:#554138;stop-opacity:0"/><stop offset="1" style="stop-color:#554138"/></radialGradient><path d="M106.6 77.7s10.9-60.8-42.4-61.1a49 49 0 0 0-7 .4h-.4c-44.8 5.7-35 60.7-35 60.7l3.5 9q.5.5.8 0c1.2-5.2 5.3-23.2 7.3-28.7a7 7 0 0 1 8-4.4c5.2 1 13.5 2 22.7 2 0 0 17.7-1 22.9-2a7 7 0 0 1 8 4.4c2 5.5 6.1 23.6 7.2 28.7.1.4.7.4.9 0z" style="fill:url(#a)"/><path d="M112.2 14.1c-2.7-.5-5.3 1.7-5.9 4.9q-.5 2.6.9 4.7c-2.9 2-12 7.8-23.8 4.8-11.6-3-15.1-8.9-16.3-14a5.9 5.9 0 1 0-6.2 0c-1.1 5-4.6 10.6-16.3 14a27 27 0 0 1-23.8-4.8q1.3-2 .9-4.7c-.6-3.2-3.2-5.4-5.9-4.9-2.6.5-4.3 3.5-3.7 6.7.5 2.5 2.1 4.4 4.1 4.8L21 54c-.4 0-1.6.6-1 3.2l.3 1.9c1.2-.1 21-1.8 43.7-1.8s42.5 1.7 43.7 1.8l.4-2c.5-2.5-.7-3-1-3.1l4.7-28.4c2-.4 3.6-2.3 4-4.8.7-3.2-1-6.2-3.6-6.7" style="fill:#ffca28"/><ellipse cx="64" cy="39.5" rx="6" ry="7.4" style="fill:#26a69a"/><path d="M64 34c.2.2.4 1-.2 1.8-1 1.2-2.5 2.2-3 2.4q-.6.3-1 0c-.6-.6-.3-1.8 0-2.5 1-1.6 2.9-3.3 4.2-1.8" style="fill:#69f0ae"/><path d="M63.6 42.3c-.7.3-3 1.1-2.2 2.6.5.7 2.3 1.5 4.5.4 3.5-1.8 3.5-6.8 2.9-7.2-.7-.3-1.3.5-1.7 1.4-.8 1.5-2 2-3.5 2.8" style="fill:#00796b"/><path d="M103.8 44c.5-3.1 2-5.6 4-5.3 2.6.5 3.5 3.4 3 6.6s-2.4 5.4-5 5c-1.6-.2-2.5-3-2-6.2" style="fill:#26a69a"/><path d="M108.5 40.5q.4.2.4 1.3c-.2.8-1.7 2.3-2 2.6q-.4.4-.7.3c-.6-.3-.6-1.3-.5-2 .4-1.4 1.5-3 2.8-2.2" style="fill:#69f0ae"/><path d="M24.2 43.5c-.5-3.3-2-5.7-4-5.4-2.6.5-3.5 3.4-3 6.6s2.4 5.4 5 5c1.6-.2 2.5-3 2-6.2" style="fill:#26a69a"/><path d="M19.3 40c1-.4 1.7.3 1.3 1.2q-.8 2.1-.7 2.8 0 .8-.6.8-.8 0-1-1.2c-.2-1.4 0-3 1-3.5" style="fill:#69f0ae"/><ellipse cx="40.5" cy="41.3" rx="3.9" ry="4.5" style="fill:#1c3aa9" transform="rotate(-14.2 40.46 41.25)"/><path d="M39.9 38q.5 0 .6 1.2c.1.9-.9 2.7-1 3q-.5.6-.8.4c-.7-.1-1-1-1-1.7 0-1.5.7-3.4 2.2-2.9" style="fill:#3b78e7"/><ellipse cx="87.5" cy="41.3" rx="4.5" ry="3.9" style="fill:#1c3aa9" transform="rotate(-75.8 87.53 41.25)"/><path d="M87.9 38.3q.4.1.3 1.3c-.2.9-1.7 2.3-2 2.6s-.6.3-.7.2c-.6-.3-.6-1.3-.5-2 .4-1.4 1.5-3 2.8-2.1" style="fill:#3b78e7"/><path d="M61.6 10.8c.4-3.3 2.7-3.5 3.1-3.5q1.5-.3 1-1.5c-.2-.9-1.4-.8-1.7-.8-1.8 0-4.6 1.8-4.1 5.7.1 1.2 1.6 1.2 1.7 0M23.1 54q5.4-.6 8.6-.6c1.7-.2 2.5.4 2.7.9q0 1.2-2 1.2l-8.7.5q-1.7.1-1.8-.8 0-.8 1.2-1.2M19 21c-.8-3-3-3.6-3.3-3.9q-.8-.5-.5-1.5.6-.7 1.4-.4c1.9.5 3.6 2.3 3.7 5.7 0 .7-1.1 1.1-1.4 0m2.7 8.5c-.8-.5-2.3-2-1.2-2.6 1.4-.8 2.2 1.1 7.3 3 2 .8 5.3 1.5 8.2 1.5 1.4 0 1.4 1-.2 1.3s-8.5.5-14-3.2M109 21c.8-3 3-3.6 3.3-3.9q.8-.5.5-1.5-.6-.7-1.4-.4c-1.9.5-3.6 2.3-3.7 5.7 0 .7 1.1 1.1 1.4 0m-2.7 8.5c.8-.5 2.3-2 1.1-2.6-1.3-.8-2.1 1.1-7.2 3-2 .8-5.3 1.5-8.2 1.5-1.4 0-1.4 1 .2 1.3s8.5.5 14-3.2" style="fill:#fff59d"/><path d="M64 55.3c-23.8 0-43.9 1.9-44 1.9l.3 1.9a540 540 0 0 1 87.4 0l.4-2c-.2 0-20.3-1.8-44.1-1.8" style="fill:#e2a610"/><path d="M64 50.3c-29.5 0-43.2 1.7-43.3 1.7l.3 2c.1 0 13.7-1.7 43-1.7s42.9 1.7 43 1.7l.4-2c-.2 0-14-1.7-43.4-1.7" style="fill:#f19534"/></svg>