<svg xml:space="preserve" width="16" height="16" viewBox="0 0 128 128"><path d="m9.3 72.4 4.4-11.6c6 .9 9.5-.1 22.1 7.1 10 5.7 17.9 10 34.5 16.9C80.9 89 95 91.6 95 91.6l-17.3 12c-45.5-.2-62.4-21.7-68.4-31.2" style="fill:#263238"/><path d="M16.7 63H18c4.7.1 12.8 4.5 22.1 9.6 8 4.4 17.2 9.4 27 13.3 6.4 2.5 14.6 4.7 20.3 6a38 38 0 0 1-16.6 3.7q-20.7 0-44.3-18.9h-.1l-.2-.2A50 50 0 0 1 12 64.8q1.2-2 4.8-1.9m0-3c-2.6 0-5.9.5-7.7 3.9C6.7 68 24.6 79 24.6 79c19 15.1 34.6 19.5 46.3 19.5 15.7 0 24.1-8 24.1-8S79 87.2 68.3 83C46.6 74.5 27.9 60.3 18 60z" style="fill:#0071af"/><path d="M10.1 61.6c-1 1.2-4.7 6.3-5.9 18.2C3 92 6 96.6 6 96.6l55 16.7c38.4 13.5 60.6 4 61.6 2.5a8 8 0 0 0 .6-7.8c-6.9-13.4-21.2-18.5-25.5-20.8-.6-.3-4.7.2-8.8 2.1a39 39 0 0 1-20 4 85 85 0 0 1-42.3-19.6c-11.8-9.4-12-11.3-12.2-11.8-1-1.8 1-2.5.1-2.5s-2.8.2-4.4 2.2" style="fill:#008ec9"/><linearGradient id="a" x1="21.3" x2="45.7" y1="67.1" y2="86.9" gradientUnits="userSpaceOnUse"><stop offset="0" style="stop-color:#26bfff"/><stop offset="1" style="stop-color:#26bfff;stop-opacity:.3"/></linearGradient><path d="M12 65a97 97 0 0 0 21 16.9c3.4 1.9 7 3.6 7.5 3 .4-.8-.5-1.5-2.8-3.2 0 0-6.8-4.6-9.2-6.4-7-5.6-10.6-8.7-12.1-10.6-1-1.4-2.1-3 .6-3.7 1.7-.4 4-.7 4-.7q-5-1.2-6.7-.9c-1 .1-5 1.4-2.2 5.6" style="fill:url(#a)"/><path d="M123.3 114.6a67 67 0 0 1-36.1 4c-15.7-2.1-38.4-10.5-64-17.4-8.9-2.4-17.8-5.8-17.8-5.8l1.4 8.3s15 6.7 33.2 9.6l.4-2.6c5.8 1.3 30.5 9.8 46.5 12.3 15 2.4 28.7-.2 34.3-3.8 2.3-1.4 2-4.6 2-4.6" style="fill:#874d36"/><path d="M96.2 110c0 1.4-2.6 4.1-13.6 1.3-6-1.5-5.9-4.6-4.2-5.6 2.6-1.6 8.5 1.1 14 1.8 4 .6 3.9 1.8 3.8 2.6" style="fill:#26bfff"/></svg>