<svg xml:space="preserve" width="16" height="16" viewBox="0 0 128 128"><ellipse cx="63.9" cy="104.9" rx="35" ry="13.6" style="fill:#b9e4ea"/><path d="M30 110.2c0-7.1 15.2-12 34-12s33.9 4.9 33.9 12-15.2 13.5-34 13.5-34-6.4-34-13.5" style="fill:#94d1e0"/><linearGradient id="a" x1="64.1" x2="64.1" y1="90" y2="147.6" gradientUnits="userSpaceOnUse"><stop offset="0" style="stop-color:#82afc1"/><stop offset="1" style="stop-color:#2f7889"/></linearGradient><path d="m108.5 32.8-2.2 12.4-6.7-6.7 3.5-3.4-9.8 2.8.6.7-8 8-6.6-6.5-9.6.8-5.8 5.7-6.2-6.2-9-.5-6.6 6.7-8.1-8 .8-.9-9.4-2 2.9 2.8-6.4 6.4-2.3-12.3-4.5-2.6 14.5 80.4C30.7 118 45.3 124 64 124s33.1-6 34.6-13.6l14.6-80.5zm-24.4 77.7-6.4-6.3 8.1-8 8.1 8-4.7 4.7zm-44.9-1-5.2-5.3 8-8 8.1 8-6.5 6.5zm32.8-5.3-8 8.1-8.2-8L64 96zm-5.2-11 8-8 8.2 8-8.1 8.2zM53 101.5l-8.1-8.1 8-8.1 8.2 8zm0 5.7 6.1 6.1q-5.5-.5-10.8-1.4zm15.8 6.1 6-6.1 4.7 4.6q-5.3 1-10.7 1.5M96 100.7l-7.4-7.4 8-8.1 1.9 1.8zm4.6-25.1-4 3.9-8-8.1 8-8.1 5.3 5.2zm-6.8 6.7-8 8.1-8.2-8 8.1-8.2zm-19-2.8-8.1-8.1 8-8.1 8.2 8zM72 82.3l-8 8.1-8.2-8 8.1-8.2zm-19-2.8-8.1-8.1 8-8.1 8.2 8zm-3 2.8-8 8.1-8.1-8 8-8.2zm-19-2.8-3.7-3.8-1.3-7.4 5-5 8 8zm0 5.7 8 8-7.3 7.4L29.4 87zm71.8-21.6-3.3-3.2 4.7-4.6zm-6.1-22.2 8 8-8 8.2-8.1-8.1zm-11 11 8.1 8-8 8.1-8.2-8zm-11-11 8.2 8-8.1 8.2-8.1-8.1zm-2.8 19-8 8.1-8.2-8 8.1-8.2zm-19-19 8 8-8 8.2-8.1-8.1zm-2.9 19-8 8.1-8.1-8 8-8.2zm-19-19 8 8-8 8.2-8-8.1zm-2.9 19-3 3-1.4-7.4z" style="fill:url(#a)"/><radialGradient id="b" cx="65.5" cy="13" r="52.3" gradientTransform="matrix(1 0 0 .45 0 7.14)" gradientUnits="userSpaceOnUse"><stop offset=".7" style="stop-color:#94d1e0"/><stop offset="1" style="stop-color:#94d1e0;stop-opacity:0"/></radialGradient><path d="m107.5 24.5-8-8 2.2-2.4a14 14 0 0 0-3.9-1.8l-1.2 1.3-2.1-2.1c-4.3-1.5-7-1.4-7-1.4l6.2 6.3-8 8.1-8.2-8 6.7-6.7c-2.6-.8-5-.7-5-.7l-4.5 4.5-5.2-5.2-5.6.2 7.9 7.8-8.1 8.1-8-8 7.8-8-6 .3-4.7 4.8L48 8.8l-5 .7 7 7-8.2 8-8-8L40 10s-5.6.8-7.2 1.6l-2 1.9-1.1-1.2s-2.3.3-4.1 1.6l2.4 2.4-7.2 7.3s.4 1.6 2.8 2.9l7.3-7.3 8 8-4.2 4.3s2.8 1.5 4.8 1l2.3-2.4 5.9 5.9 9.9.3 6.1-6.2 6 6L80 36l5.6-5.7 2.5 2.5c2.7.3 4.8-.9 4.8-.9l-4.4-4.4 8-8.1 8.1 8s2.5-1.4 2.9-2.8m-54.7 11-8.1-8.1 8-8.1 8.2 8zm21.9 0-8.1-8.1 8-8.1 8.2 8z" style="fill:url(#b)"/><path d="M64 4C34.2 4 10 9.9 10 22.7 10 33 34.2 41.5 64 41.5s54-8.5 54-18.8C118 11.3 93.8 4 64 4m0 30.4c-24 0-43.5-6-43.5-13.4S40 9.3 64 9.3s43.5 4.3 43.5 11.7S88 34.4 64 34.4" style="fill:#84b0c1"/><path d="M107.5 15.8c2 1.6 3.9 4.4 1.7 7-2 2.2-1.4 2.7-.3 2.4 2.2-.5 5.9-3 4.6-7.1-1.2-4.3-8.4-7-13.2-8-1.3-.3-3.5-.6-4 0-.3.5 6.5 1.9 11.2 5.7M37.2 35.3c-4.6-.5-16-1.6-22.1-9.7-2.2-3-2-7.3.4-9.8 4.4-4.2 10-4.4 8.8-3.6-3.5 2.1-10.3 5.5-4.6 12.3 5.8 7 20.2 8.9 22.6 9.2s2.5 2.3-5 1.6" style="fill:#a8e3f0"/></svg>