<svg xml:space="preserve" width="16" height="16" viewBox="0 0 128 128"><path d="M116 4H12a8 8 0 0 0-8 8v104a8 8 0 0 0 8 8h104a8 8 0 0 0 8-8V12a8 8 0 0 0-8-8" style="fill:#427687"/><path d="M109.7 4H11.5A7.6 7.6 0 0 0 4 11.5v97.9c0 4.1 3.3 7.5 7.5 7.5h98.1c4.1 0 7.5-3.3 7.5-7.5V11.5c0-4-3.1-7.4-7.2-7.5z" style="fill:#8cafbf"/><path d="M39.7 12.9c0-2.3-1.6-3-10.8-2.7-7.7.3-11.5 1.2-13.8 4s-2.9 8.5-3 15.3c0 4.8 0 9.3 2.5 9.3 3.4 0 3.4-7.9 6.2-12.3 5.4-8.7 18.9-10.6 18.9-13.6" style="opacity:.5;fill:#b4e1ed"/><path d="M24 89.2q-6-3.8-9.5-10.4A31 31 0 0 1 11 64.3q0-7.8 3.5-14.5Q18 43.3 24 39.4q6-3.8 13.4-3.8T51 39.4q6 3.9 9.5 10.4T64 64.3t-3.5 14.5A27 27 0 0 1 51 89.2Q45 93 37.5 93T24 89.2m22-8.4q3.9-2.4 6.1-6.7a21 21 0 0 0 2.2-9.8q0-5.6-2.2-9.8a17 17 0 0 0-14.6-9q-4.7 0-8.6 2.3a17 17 0 0 0-6 6.7 21 21 0 0 0-2.2 9.8q0 5.6 2.2 9.8t6 6.7 8.6 2.4c4.7 0 5.9-.8 8.5-2.4m25.1-43.9h9.6v23.5h.5L99.7 37h11.5v.6L93 60.2l20.2 31v.6h-11.7L86.4 68.4l-5.7 7.3v16H71z" style="fill:#fafafa"/></svg>