<svg xml:space="preserve" width="16" height="16" viewBox="0 0 128 128"><path d="M18.6 89.6h49.1v6.3H18.6z" style="fill:#4b727b" transform="rotate(30 43.16 92.69)"/><path d="M67 53.8s25 11.2 7.2 37c0 0-6.7-1.5-13.9 3.4-9 6.3-10 19.7-26.7 19.7h70.6l-8.6-8s7.2-18.1 3-37.3A37 37 0 0 0 74.8 41z" style="fill:#4b727b"/><path d="M71 53.8s25.1 11.2 7.2 37c0 0-6.7-1.5-13.9 3.4-9 6.3-10 19.7-26.7 19.7h70.6l-8.5-8s7.1-18.1 2.9-37.3A37 37 0 0 0 78.8 41z" style="fill:#82aec0"/><path d="M21.9 83.5h34.4v3H21.9z" style="fill:#81d4fa" transform="rotate(30 39.08 85)"/><path d="m17.3 98.2 1.9-3.9 23 9-1.6 3.6c-.6 1.4-6.2.7-12.6-1.7s-11.2-5.5-10.7-7" style="fill:#4b727b"/><path d="M40 103.3c-2.3 0-6.2-1-10-2.4-7.5-2.8-10.4-5.5-10.3-6.1q-.1-.2 1.6-.3c2.3 0 6.2.9 10.1 2.3 7.5 2.8 10.4 5.6 10.3 6.2q0 .2-1.7.3" style="fill:#b3e5fc"/><path d="M21.3 95.2c2.3 0 6 .8 9.9 2.3 5.3 2 8.4 4 9.4 5l-.6.1c-2.2 0-6-.9-9.8-2.3a29 29 0 0 1-9.5-5.1zm0-1.4q-1.8 0-2.2.8c-.6 1.4 4.2 4.6 10.6 7 4.2 1.5 8 2.4 10.3 2.4q2 0 2.3-.8c.6-1.5-4.2-4.6-10.6-7-4.2-1.5-8-2.4-10.4-2.4" style="fill:#90a4ae"/><path d="M25.2 100.7s-4.3 7.5.9 13.9c3.9 4.8 20.6.6 20.6.6s-15.2-1-15.6-11.3z" style="fill:#4b727b"/><path d="M116.5 124h-105q-2.1-.2-2.3-2.3c0-5 4.1-9.2 9.2-9.2h91.2c5 0 9.2 4.1 9.2 9.2q-.2 2.1-2.3 2.3" style="fill:#82aec0"/><path d="m43.3 64.2 7.8 4.5-7.8 10.4s-1.4.4-3.4-.7-2.3-2.5-2.3-2.5z" style="fill:#545454"/><path d="m80.6 29.4 8-14s-1.6-4-6.2-6.8S74 7 74 7l-8 14c-.6 1 2.3 3.6 6.3 6 4 2.3 7.8 3.4 8.3 2.5" style="fill:#82aec0"/><path d="M84 7c-8.5-5-11.4-2.4-12-1.2-.2.6 0 2.3 1 3l.7-1.2c.5-.9 4.6-.4 8.6 2 4.1 2.3 6.5 5.6 6 6.5l-.5.8c.6.5 2.4.2 2.9-.4.8-1 2-4.2-6.8-9.5" style="fill:#616161"/><path d="M40.2 53.9c2.8-4.8 10.6-5.6 17.5-1.6s10.2 11 7.4 16c-2.8 4.8-11 6.3-18 2.3-6.8-4-9.7-11.9-6.9-16.7" style="fill:#bdbdbd"/><path d="M51 69.7s.8-1 4-1.4 5 1.8 5 1.8l-1.8 11.4s-1.1 1-3.4 1-3.2-1.3-3.2-1.3zm-11-13s1.9 0 3.4 2.8c1.7 3.3 0 5.5 0 5.5L33 68.7s-1.5-.5-2.6-2.5c-1-2-.5-3.4-.5-3.4z" style="fill:#757575"/><path d="M74.2 23.6A33 33 0 0 0 61.7 19a2 2 0 0 0-1.9 1L40.3 54s4.8.6 13.2 5.4a42 42 0 0 1 11.6 8.9l19.6-34a2 2 0 0 0-.1-2.1c-1-1.6-3.8-4.8-10.4-8.5" style="fill:#e0e0e0"/><circle cx="73.4" cy="107.3" r="6.5" style="fill:#424242"/><circle cx="74.8" cy="108" r="4.1" style="fill:#bdbdbd"/><path d="M48 54.8s17.4-30 18.7-31.5c1.2-1.4 6 .5 5.2 1.9l-18 32a14 14 0 0 0-5.8-2.4" style="fill:#f5f5f5"/><path d="M84.1 93.2c1.4-2.2 4.9-8.7 4.1-19a25 25 0 0 0-14.3-21.4l-1.1 2c10.6 7 17.1 19.1 5.5 36 0 0-6.8-1.5-14 3.4-7 5-9.2 14.3-17.9 18h6.3s4 .2 8.3-6.9c4.3-7 6.7-10.6 14-11.8S88.5 98 88.5 98s-1-2.7-4.4-5" style="fill:#94d1e0"/><circle cx="77.3" cy="47.4" r="7.2" style="fill:#424242"/><circle cx="78.9" cy="47.2" r="4.9" style="fill:#bdbdbd"/><path d="M75.4 42.5c-3.7 2.4-2 6.9-2 6.9l-1.7.4a6 6 0 0 1-.5-5 5 5 0 0 1 3.3-3.3z" style="fill:#757575"/><path d="m76.6 8.7-6 11.1 3.2 1.2L80 9.7c-2.3-1.3-3.4-.9-3.4-.9" style="fill:#94d1e0"/><ellipse cx="55.1" cy="81.1" rx="2.2" ry=".7" style="fill:#81d4fa"/></svg>