<svg xml:space="preserve" width="16" height="16" viewBox="0 0 128 128"><path d="M116 4H12a8 8 0 0 0-8 8v104a8 8 0 0 0 8 8h104a8 8 0 0 0 8-8V12a8 8 0 0 0-8-8" style="fill:#194fa5"/><path d="M109.7 4H11.5A7.6 7.6 0 0 0 4 11.5v97.9c0 4.1 3.3 7.5 7.5 7.5h98.1c4.1 0 7.5-3.3 7.5-7.5V11.5c0-4-3.1-7.4-7.2-7.5z" style="fill:#2262dd"/><path d="M11.6 42.3h9l5.9 24.2.7 4.5h.5l1-4.5 7.6-24.2h8l7.4 24.2 1 4.4h.4l.7-4.4 5.9-24.2h9l-11.1 43h-8.7l-7.4-26-1-4.6h-.4l-1 4.7-7.7 26H23zm71.5 41.1A22 22 0 0 1 72 63.8a22.3 22.3 0 0 1 22.6-22.5q9.8 0 16.1 7L105 54a13 13 0 0 0-10.4-5q-4 0-7.3 1.9c-3.3 1.9-4 3-5.2 5.2a16 16 0 0 0 0 15.5q1.9 3.4 5.2 5.2t7.3 1.9A14 14 0 0 0 106 73l5.8 5.5a21 21 0 0 1-17.2 7.9q-6.3 0-11.5-3" style="fill:#fbf9f9"/><path d="M39.7 12.9c0-2.3-1.6-3-10.8-2.7-7.7.3-11.5 1.2-13.8 4-1.9 2.3-2.3 5.6-2.6 8.4-.2 2.2-2.2 14.9 3.5 11.2q1-.6 1.6-1.8c1.2-2.1 1.9-3.5 3.3-5.6 5.3-8.6 18.8-10.5 18.8-13.5" style="opacity:.3;fill:#fff"/></svg>