<svg xml:space="preserve" width="16" height="16" viewBox="0 0 128 128"><path d="M64.4 80c-15-.5-58 3.7-58 19.2S39 124 67 124.2s55.5-9 56.6-24.5c1-15.5-44.3-19.2-59.2-19.7" style="fill:#89af50"/><path d="M62 25.2c-1.6-.1-2.3 1.9-3.4 3.4-1.4 1.9-3.3 4.5-4.5 5.3s-3.3 1.8-3 3.6 3.5 2.7 3.5 2.7l-.8 2.8-4.3 6.6-6.9 15.1 53.2 10.5s14.8-5.4 16.4-7.2c1.2-1.3 1.4-2.3.6-4.1-1-2.6-2.6-4.4-4.4-7l-3.6-5.5 1.6-3.2s1.4-2 1.2-4c-.2-2.5-1.7-3.9-3.1-6.2l-4-6.1-1.5-3s4.7-.8 4.4-2.6c-.4-1.9-1.8-3-2.6-4l-6-8c-1.4-2.2-3.5-5-5-5.1-1.7 0-2.9 2-4.5 4.5s-3.1 4.9-5 6.5c-3.1 2.7-6.5 6-5 7.7 1.6 1.7 4 4.7 4 4.7l-1.6 2.2S76 37.3 74.4 39l-2.8 3.3-3.3-1.3s4.7-3 4.8-4 0-2.2-2.8-3.5c-2.6-1.2-4.5-4.3-5.4-5.5-.8-1.1-1.6-2.5-2.9-2.7" style="fill:#4da852"/><path d="M91.6 30.1c3.2-.2 3.8-2.6 7.2-3.8 3-1 4.6 0 4.6 0s.3 1-.7 2.4c-.6.8-1.6 1.3-1.8 2.2v1.8c.2.2-4.2 4.4-8.7 4.4s-4.1-2.2-8.4-3C80.4 33.7 77 36 77 36s.7-2.3.5-3.3c-.4-2.8-2.2-4.7-2.2-4.7s2.4-1.5 5.9-1 7.4 3.5 10.4 3.2m-29 9.4c3.8 0 3.2-2 6-2.6 2.4-.6 4.5-.6 4.5-.6s0 1.6-.8 2.6c-.6.7-1 1-1 2s.5 1.7.5 1.7-1.3-.5-3.5.7c-1.4.8-2.4 2.8-5.8 2.9-2.9 0-3.5-1-7-1.7-2-.4-3.1.6-3.1.6s1.6-2.5 1.3-3.8c-.2-1.3-2-2.1-2.3-3 1.2-.5 2.3-.6 4.6-.5 3.7.3 3 1.7 6.6 1.7m12.2 9.9L73.6 47s1.5 0 2.8-.8 2.5-2.2 4.7-1.8 3.9 4.1 9.3 4.1c4.6 0 5-3.3 9.7-3.2 5 0 6.4 2.7 6.4 2.7s-.9 1.7-.8 3 1.3 3.7 1.3 3.7-3.6-1.3-6-1.2c-2.6 0-6 3.9-11 3.5s-6-3.6-9.7-4.6-4.6 0-4.6 0zM85.6 64c3.5.2 4 2.5 7.2 2.3s3.8-2.3 7.9-2.2 5.4 2.4 8 2.6c3 .3 4.5-.4 4.5-.4s0 .8-1.2 2.4a31 31 0 0 1-3.7 3.8l-19.6.3z" style="fill:#367c2d"/><path d="M93.3 83.2s4 10.6 10 11.7 10 1 14 0 6-4.7 5.7-8.5-5-6.4-7-8.3-7-9.8-14.4-10.7c-8-1-13.6 5.3-13.6 5.3zM26.5 69s-5.1-.5-8 1.9-3.8 5.8-6.5 7.5-5.4 1.5-7.4 4.2a9 9 0 0 0-.3 8.8c1.8 3 3.7 3.5 7.7 3.8 3.8.3 9.8.4 9.8.4z" style="fill:#484e27"/><path d="m77.1 62.7-9.7 36.7 6.5.2 8.2-.8 8.2-1.2 6-11.3z" style="fill:#2f2f2f"/><path d="M15.4 94.9 14 93.7s.8-3.6 4.2-12.6 7.8-19.7 9.4-23c1.5-3.4 3-8 3.7-8.5s9.1-1.1 18.5-1.4 26 .1 26.6.4c.5.2-.5 7.7-.5 7.7L60.2 99.7l-29.7-2.9z" style="fill:#f19f40"/><radialGradient id="a" cx="90" cy="101.3" r="30.5" gradientUnits="userSpaceOnUse"><stop offset=".4" style="stop-color:#f3ae3d"/><stop offset=".5" style="stop-color:#f2a53c"/><stop offset=".7" style="stop-color:#f08c38"/><stop offset="1" style="stop-color:#ec6333"/><stop offset="1" style="stop-color:#ec5f32"/></radialGradient><path d="m54.3 101.7 7.8-.2c3.8-.3 13.2-1 13.8-1.6.7-.5.3-10.6.7-18.2.4-7.7.5-14.4 1-15.5.3-.8 11.8 32.1 11.8 32.1l13.8-2.4s-8.1-15.7-12-22.5-13.2-25-14.7-25A184 184 0 0 0 64.6 73c-3 7-5.9 15-7.9 20.6-1.6 4.5-2.4 8-2.4 8" style="fill:url(#a)"/><path d="M58.2 97.3c-.1 2-.4 4.1-1.3 4.7-.9.5-18.5-2-25.8-3-7.7-.9-17.2-3-17.6-3.5s0-3.3.6-4c.7-.6.9 1.7.9 1.7s11 2.2 16 2.7c7.8.8 20.6 2.5 22 2.1 1.5-.4 2.3-4.6 3.6-4.4s1.5 2.1 1.5 3.7m19.6-31.5c-.2-.4-.5.8 0 3.7.6 2.5 10 29.2 10 29.4.2.2 4.2-.2 4.2-.2l8.4-3-10-9-7-11s-5.5-9.5-5.6-9.9" style="fill:#9c2d1b"/><path d="M100.4 98.2s-7.3-6-9-8a55 55 0 0 1-8.5-13c-.7-1-5-10-5.2-10.7s0-1.3.6-.4 3.5 6.5 5.9 10.2c.5 1 5.4 8 6.7 9.4a66 66 0 0 0 11 9.5z" style="fill:#ea4133"/><path d="m88.3 106-1 2.5s-.1 1.3.1 1.6 12.5-.1 12.5-.1-.1 2 .4 2.4c.6.5 7.3.4 7.5 0 .3-.3.4-2.7.4-2.7s4 .2 4.4.1 0-3.5 0-3.5l-4.5-3.4z" style="fill:#a05c3c"/><path d="m87.8 100.7-.5 7.8 12.5-.3s0-2.7.3-2.9c.5-.3 7.8-.8 8.2-.4s.2 3.2.2 3.2l4.2-.2s0-5.4-.2-5.5l-19.9-1.6c-1.7 0-5-.6-4.8-.1" style="fill:#c67c5d"/><radialGradient id="b" cx="99.2" cy="105.5" r="16.6" gradientUnits="userSpaceOnUse"><stop offset="0" style="stop-color:#fff"/><stop offset=".1" style="stop-color:#fdf4df"/><stop offset=".4" style="stop-color:#fadd9b"/><stop offset=".6" style="stop-color:#f7cb6a"/><stop offset=".8" style="stop-color:#f6c14b"/><stop offset=".9" style="stop-color:#f5bd40"/></radialGradient><path d="M105 81.4s-3.7 6-8.4 10c-2.6 2.2-4.7 5-4.4 8.7.1 2.9 2.8 5.2 6.9 5.4 9.1.4 10.4-5 11-8.3.4-3.2 0-11-.1-11.2-.4-.6-1.9 2.4-3.1 3.9-1.5 1.6-3.3 3-3.3 3s1.7-4.2 1.9-7 .1-4.8-.6-4.5" style="fill:url(#b)"/><path d="M63.8 15.3c-1.2-.9-3-.6-3.9.8s-.5 3.3 1 4q2.2 1 3.4-.7 1.8-2.5-.5-4" style="fill:#fff"/><path d="M70 14.2a2 2 0 0 0 0 2.8c.8.7 2.1.4 2.7-.1.7-.8.7-2.2 0-2.8s-1.7-.9-2.7 0" style="opacity:.56;fill:#fff"/><path d="M43.8 4.3c-1.6-.1-2.5 1.4-2.5 2.5s.8 2.6 2.7 2.6c2.3 0 2.6-2.3 2.4-3.2-.1-.5-.5-1.8-2.6-2M7 44c.5 1.4 2 2.2 3.6 1.4 1.6-.7 1.6-2.5 1-3.7s-2.4-1.3-3.4-.8S6.5 42.7 7 44m104.3-19.4c-.9 1.2-1 2.8.1 3.8 1 .9 3 .8 4-.6q1.4-2.1-.2-3.8c-1.6-1.7-3-.7-4 .6M98 5.2c-.9.9-1.2 2.5 0 3.4.8.8 2.4.6 3.1-.3.7-1 .5-2.5-.2-3.1a2 2 0 0 0-3 0m-68.2 20s1.2-3.7 1.8-3.8 2 3.8 2 3.8 3.1.1 3.4.8c.2.6-2.3 2.6-2.3 2.6s1 3.4.6 3.7-3.7-1.8-3.7-1.8-2.8 2.6-3.5 2.2.5-4 .5-4S26 27 25.8 26s3.9-.9 3.9-.9" style="fill:#fff"/></svg>