<svg xml:space="preserve" width="16" height="16" viewBox="0 0 128 128"><linearGradient id="a" x1="64" x2="64" y1="119.5" y2="39.9" gradientTransform="matrix(1 0 0 -1 0 128)" gradientUnits="userSpaceOnUse"><stop offset="0" style="stop-color:#424242"/><stop offset=".3" style="stop-color:#353535"/><stop offset=".8" style="stop-color:#131313"/><stop offset="1" style="stop-color:#000"/></linearGradient><path d="M120 88H8a4 4 0 0 1-4-4V12a4 4 0 0 1 4-4h112a4 4 0 0 1 4 4v72a4 4 0 0 1-4 4" style="fill:url(#a)"/><linearGradient id="b" x1="64" x2="64" y1="119.5" y2="39.9" gradientTransform="matrix(1 0 0 -1 0 128)" gradientUnits="userSpaceOnUse"><stop offset="0" style="stop-color:#bfbebe"/><stop offset=".1" style="stop-color:#212121;stop-opacity:0"/><stop offset=".8" style="stop-color:#212121;stop-opacity:0"/><stop offset="1" style="stop-color:#bfbebe"/></linearGradient><path d="M120 88H8a4 4 0 0 1-4-4V12a4 4 0 0 1 4-4h112a4 4 0 0 1 4 4v72a4 4 0 0 1-4 4" style="opacity:.3;fill:url(#b)"/><linearGradient id="c" x1="4.8" x2="124.1" y1="80" y2="80" gradientTransform="matrix(1 0 0 -1 0 128)" gradientUnits="userSpaceOnUse"><stop offset="0" style="stop-color:#bfbebe"/><stop offset=".1" style="stop-color:#212121;stop-opacity:0"/><stop offset=".9" style="stop-color:#212121;stop-opacity:0"/><stop offset="1" style="stop-color:#bfbebe"/></linearGradient><path d="M120 88H8a4 4 0 0 1-4-4V12a4 4 0 0 1 4-4h112a4 4 0 0 1 4 4v72a4 4 0 0 1-4 4" style="opacity:.3;fill:url(#c)"/><path d="M12 16h24v4H12zm74 0h16v4H86zm22 0h8v4h-8zM20 28h8v4h-8zm-8 12h16v4H12zm0 12h8v4h-8zm86 0h12v4H98zm6-12h12v4h-12zM12 64h16v4H12zm84 0h20v4H96zm4-36h12v4h-12z" style="fill:#76ff03"/><path d="M7.6 124h12.9c1-.1 2-1.2 2-2.5v-.7c0-3.6-1.6-6.7-4-8.4v.4c0 4.1-2 7.4-4.4 7.4s-4.5-3.3-4.5-7.4v-.4c-2.4 1.7-4 4.8-4 8.4v.7c0 1.3 1 2.4 2 2.5" style="fill:#26a69a"/><path d="M14 120.3c9 0 4.4-3.4 4.4-7.5v-.4q-1.9-1.5-4.4-1.5c-2.5 0-3 .5-4.4 1.5v.4c0 4.1-4.6 7.5 4.4 7.5" style="fill:#00796b"/><linearGradient id="d" x1="20.4" x2="10.7" y1="15.1" y2="28.9" gradientTransform="matrix(1 0 0 -1 0 128)" gradientUnits="userSpaceOnUse"><stop offset="0" style="stop-color:#ffd29c"/><stop offset=".5" style="stop-color:#f9ddbd"/></linearGradient><path d="M28 106.8c-.1-2.8-2.2-8.7-5-9.2l-.4-.2c-.5-.7-1.9-2.5-4.5-1Q16.6 97 17 98q-.1.2-.7.2-1.5-1.9-3.8-.3c-1.7 1.4-1.7 2.3-1.4 3.2 0 0 0 .7-.5.6q-.7-.7-2.1.3c-2.6 1.9-1.6 3.7-1.1 4.7l-.3.2q-.6-.3-1.4.1c-1.4.8-1.2 3.4-.8 4.3a42 42 0 0 0 3.6 5l.6.5c.7.4 2 1 3.2.2 0 0 .8-.5.8-1.1 1.3.7 3.1-.7 3.1-.7q1.3-1 1-2 .8.4 1.4.4c1.4 0 2.6-.8 2.6-.8 2-1 2.4-2.2 2.4-3 1 .6 2.2.2 2.2.2 2.3-1 2.2-3.2 2.2-3.2" style="fill:url(#d)"/><path d="M108 124h12.8s.6-9.8-15.2-10.3S108 124 108 124" style="fill:#26a69a"/><linearGradient id="e" x1="141.6" x2="131.9" y1="10.2" y2="24" gradientTransform="matrix(-1 0 0 -1 248.64 128)" gradientUnits="userSpaceOnUse"><stop offset="0" style="stop-color:#ffd29c"/><stop offset=".5" style="stop-color:#f9ddbd"/></linearGradient><path d="M99.5 111.7c0-2.9 2.2-8.7 5-9.2l.4-.3c.4-.7 1.8-2.5 4.4-1q1.5.7 1.1 1.6.3.4.7.2 1.5-1.8 3.8-.2c1.7 1.3 1.7 2.2 1.4 3.2 0 0 0 .6.6.6q.6-.8 2 .2c2.7 2 1.6 3.7 1.1 4.8l.4.1q.4-.3 1.3.2c1.4.8 1.2 3.4.8 4.2-.4 1-2.8 4.2-3.6 5.1l-.6.4c-.7.5-2 1-3.2.3 0 0-.7-.6-.8-1.2-1.3.7-3.1-.6-3.1-.6q-1.2-1-1-2l-1.4.3c-1.4 0-2.6-.7-2.6-.7-2-1.1-2.4-2.3-2.3-3-1 .6-2.3.1-2.3.1-2.2-1-2.1-3.1-2.1-3.1" style="fill:url(#e)"/><path d="m116.2 121.6-.4-.4h-.1q-.6-.4.4-1.8c2-2.7 2.7-4.7 2.7-4.7.6-1.4.4-1.6.4-1.6-.2-.3-.6.6-.6.6a26 26 0 0 1-4 5.8l-.4.2h-.5l-.2.1h-.5l-1-.5v-.1l-.2-.2-.2-.1v-.1l-.2-.3v-.4h-.1v-.9l.1-.4v-.1c2.3-3.2 3.5-6 3.5-6 .4-.8.5-1.6.5-1.6-.2-.5-.6.2-.6.2-2.6 4.8-4.1 6.7-4.1 6.7s-1.3 2.2-3.9.6c0 0-1.3-.9-1.5-1.5q-.5-.6.3-2.6s1.6-3.2 4.2-7.3c0 0 .2-.6-.4-.3l-1 1s-1.5 2.1-3.7 6.3c0 0-.5 1-1.1 1.4q-1 .4-2-.5c-1.8-1.2-1.2-3-.2-4.9l3.2-5.1q.5-.1.8-.5c.9-1.4.2-2.6-1-.7-3.2.5-5.5 6.7-5.6 9.7 0 .1 0 2.6 2.5 3.8q.3.2 2 .1.3 1.3 2.5 2.7s1.5.9 3 .9l.8-.2q.2.9 1.2 1.7s1.6 1.2 3.1.9l.8.8q.7.5 1.5.5h.4q1 0 2-.6c1.6-1.1 3.8-5.5 3.8-6 0 0-3.3 5.8-6.2 5.4" style="fill:#edbd82"/><path d="M91.3 50.4H36.7c-6 0-10.7 5.2-10.7 11.4s4.8 11.5 10.7 11.5h54.6c6 0 10.7-5.2 10.7-11.5s-4.8-11.4-10.7-11.4" style="fill:#edc391"/><path d="M64 11c-17.4 0-33.5 18.7-33.5 45.5C30.5 83 47 96.3 64 96.3S97.5 83 97.5 56.5C97.5 29.7 81.4 11 64 11" style="fill:#f9ddbd"/><ellipse cx="47.6" cy="58.8" rx="4.9" ry="5.1" style="fill:#312d2d"/><ellipse cx="80.4" cy="58.8" rx="4.9" ry="5.1" style="fill:#312d2d"/><path d="M67.9 68h-7.7q-1.1.5-.7 1.7c.4 1.2 1.7 2.7 4.5 2.7a5 5 0 0 0 4.6-2.7q.3-1.2-.7-1.6" style="fill:#dba689"/><path d="M40 50.7c3-4.2 9.8-4.6 13.7-1.5q1 .8 1.7 2c.4 1.3-.9 2.3-2 2l-2.3-.9a11 11 0 0 0-3.6-.5c-1.8 0-3 .2-4.7.9-.7.3-1.3.8-2 .4-1-.4-1.3-1.6-.8-2.4m46 2.4-.8-.4a11 11 0 0 0-8.7-.2c-.9.2-1.9 1-2.8.7-1.3-.4-1.3-1.9-.6-2.8q1.4-1.6 3.3-2.4c3-1.3 6.5-1.1 9.2.5q1.5.9 2.4 2.2c.8 1.3-.4 3-2 2.4" style="fill:#454140"/><path d="M28.4 106.3c0-3.1-2.3-9.3-5.5-9.8-1.2-2-2-.7-1 .7q.2.4.8.5l.3.1 2.8 5c1 1.9 1.6 3.7 0 5q-1.3.8-2.2.4c-.5-.5-1-1.4-1-1.4a56 56 0 0 0-3.8-6.2q-.3-.5-1-1c-.6-.4-.4.2-.4.2 2.6 4.1 4.2 7.4 4.2 7.4q.9 1.8.4 2.6c-.3.6-1.6 1.4-1.6 1.4-2.6 1.6-3.8-.5-3.8-.5s-1.6-2-4.2-6.8c0 0-.4-.7-.6-.2a36 36 0 0 0 4 7.6v.1l.1.4v1.2l-.1.1-.1.3h-.1l-.2.3-.5.4-.6.3h-1.1l-.2-.1-.4-.2c-.6-.6-2-2.2-4-5.8 0 0-.4-.9-.6-.6 0 0-.2.3.4 1.7 0 0 .8 2 2.8 4.6q.9 1.4.3 1.8l-.5.4c-2.8.5-6.2-5.4-6.2-5.4 0 .5 2.2 5 3.8 6q1 .6 2 .6h.4q.7 0 1.5-.4l.8-.9c1.5.3 3-.9 3.1-1q1-.7 1.2-1.5h.8a6 6 0 0 0 3-.8q2.2-1.4 2.5-2.7c1 .2 2-.1 2-.1 2.6-1.2 2.5-3.6 2.5-3.7" style="fill:#edbd82"/><linearGradient id="f" x1="64" x2="64" y1="53.5" y2="-14.9" gradientTransform="matrix(1 0 0 -1 0 128)" gradientUnits="userSpaceOnUse"><stop offset="0" style="stop-color:#4dd0e1"/><stop offset="1" style="stop-color:#00bcd4"/></linearGradient><path d="M110 124V81.2c0-3.6-3-6.5-6.5-6.5h-79a6.5 6.5 0 0 0-6.5 6.5V124z" style="fill:url(#f)"/><linearGradient id="g" x1="64" x2="64" y1="35.4" y2="-3.9" gradientTransform="matrix(1 0 0 -1 0 128)" gradientUnits="userSpaceOnUse"><stop offset="0" style="stop-color:#00bcd4"/><stop offset="1" style="stop-color:#0097a7"/></linearGradient><path d="m79 124-2.1-6.4a89 89 0 0 1-2.2-18c-.1-3.3-3-6-6.4-6h-8.6a6.4 6.4 0 0 0-6.4 6 89 89 0 0 1-2.2 18L49 124z" style="fill:url(#g)"/><path d="M64 4c-45.5.3-36.2 52.2-36.2 52.2l3 7.7q.4.5.7 0a352 352 0 0 1 6.2-24.5 6 6 0 0 1 6.8-3.8A111 111 0 0 0 64 37.4h.2c7.8 0 14.9-1 19.3-1.8a6 6 0 0 1 6.8 3.8c1.8 4.7 5.2 20 6.2 24.4.1.3.6.4.7 0l3-7.6S109.4 4.2 64 4" style="fill:#312d2d"/><radialGradient id="h" cx="64" cy="80.9" r="38.1" gradientTransform="matrix(1 0 0 -1.128 0 138.37)" gradientUnits="userSpaceOnUse"><stop offset=".8" style="stop-color:#454140;stop-opacity:0"/><stop offset="1" style="stop-color:#454140"/></radialGradient><path d="M100.1 56.2S109.4 4.2 64 4l-6 .4h-.3C19.4 9.2 27.8 56.2 27.8 56.2l3 7.6q.4.6.7 0c1-4.4 4.5-19.7 6.2-24.4a6 6 0 0 1 6.8-3.8A111 111 0 0 0 64 37.4h.2c7.8 0 14.9-1 19.3-1.8a6 6 0 0 1 6.8 3.8c1.8 4.7 5.3 20.1 6.2 24.5.1.3.6.3.7 0z" style="fill:url(#h)"/></svg>