<svg xml:space="preserve" width="16" height="16" viewBox="0 0 128 128"><path d="M64.4 3.5c-35.2 0-34.9 32.5-34.9 33 0 6.6-.8 14-.4 21.4 1 16.5 4.6 33 10.4 41 3.4 4.7 9.8 5 9.8 5h29.1s6.5-.3 9.8-5c5.8-8 9.4-24.5 10.4-40.8.5-7.5-.3-15-.3-21.6 0-.5 1.2-33-34-33" style="fill:#3c2c23"/><linearGradient id="a" x1="64" x2="64" y1="84.3" y2="123.7" gradientUnits="userSpaceOnUse"><stop offset="0" style="stop-color:#651fff"/><stop offset=".5" style="stop-color:#5914f2"/><stop offset="1" style="stop-color:#530eeb"/></linearGradient><path d="M105.9 103.2c-2.2-4.7-8.4-19.6-16-23-8.2-3.8-25.9.6-25.9.6s-17.4-4.2-25.7-.5c-7.6 3.5-14 18.2-16.2 23-2 4.7-3.8 11.3-1 15.3 2.6 4 5.8 5.4 11.8 5.4H94c8 0 10.3-1.3 13-5.4 2.7-4 1-10.6-1.2-15.4" style="fill:url(#a)"/><linearGradient id="b" x1="26.3" x2="53.3" y1="99.8" y2="99.8" gradientUnits="userSpaceOnUse"><stop offset=".5" style="stop-color:#a56c43"/><stop offset="1" style="stop-color:#8d5738"/></linearGradient><path d="M52.9 101q.6-.1.3-.9a19 19 0 0 0-10.8-7.8q-5-.8-9.1.4c-2.4.6-5.1 2.2-5.8 3.2-1.7 2.3.3 3.2.3 3.2s-2 1.4-1.4 3c.7 1.8 3.3.9 3.3.9s-1.3 1.1-.1 2.5c1 1.1 3.3.3 3.3.3s-.3 1 .8 1.6c1.6 1 4-1.2 5.6-1.8l3.6-1.4c3.3-1.1 7.3-2 10-3.2" style="fill:url(#b)"/><path d="M48 124a139 139 0 0 0 32.2-11.4c.6-.5.2-2 .2-2s12.5-5.2 13.2-4.2.4 1.2-.5 1.8c-.7.5-11.1 4.7-15.8 7.7-7.3 4.7-14.2 8-14.2 8z" style="fill:#1a237e"/><linearGradient id="c" x1="68.6" x2="94.1" y1="104.2" y2="104.2" gradientUnits="userSpaceOnUse"><stop offset=".5" style="stop-color:#a56c43"/><stop offset="1" style="stop-color:#8d5738"/></linearGradient><path d="M68.6 99s7.6 3 11.8 11.6c0 0 2-.2 4.4-1s3.3-1.7 4.9-2 4-.3 4.2-.9c.8-1.4-2-6.1-7.3-7.7-8.2-2.6-18 0-18 0" style="fill:url(#c)"/><path d="m31.3 106.1 1.7-1.6q2.5-2.2 6.2-3.2.4-.1.6.3t-.4.7q-4.2 1.2-6.5 3.6l-.7.2zm-3.3-2.9a15 15 0 0 1 9-5q.5-.2.7.4c.2.6-.1.5-.4.6q-4.7 1-7.7 3.8l-.7.2zm-1-4.8a17 17 0 0 1 7.7-3.7q.4 0 .6.4 0 .5-.4.7a16 16 0 0 0-7 3.3l-.5-.2z" style="fill:#875334"/><path d="M71.8 77.1H56.2v8.6a7 7 0 0 0 7.1 7h1.4a7 7 0 0 0 7.1-7z" style="fill:#7a4c32"/><path d="M64 13.5c-14.7 0-28.4 11-28.4 34.3A34 34 0 0 0 57.2 81q3.6 1.3 6.8 1.3 3 0 6.7-1.2a34 34 0 0 0 21.7-33.3c0-23.3-13.7-34.3-28.4-34.3" style="fill:#a56c43"/><path d="M54.1 50.2q0 2-1.5 3.3h-5.5q-1.5-1.3-1.5-3.3c0-2.4 2-4.4 4.2-4.4 2.4 0 4.3 2 4.3 4.4m28.3 0q0 2-1.5 3.3h-5.5q-1.5-1.3-1.5-3.3c0-2.4 1.9-4.4 4.2-4.4s4.3 2 4.3 4.4m-26.2-7.7c-.8-1-2.6-2.6-6.2-2.6s-5.4 1.5-6.2 2.6a1 1 0 0 0 0 1.3q.4.6 1.6.3c.8-.2 2.2-1 4.6-1s3.9.8 4.6 1q1.3.3 1.6-.3a1 1 0 0 0 0-1.3m28 0c-.8-1-2.6-2.6-6.2-2.6s-5.4 1.5-6.2 2.6a1 1 0 0 0 0 1.3q.3.6 1.6.3c.7-.2 2.2-1 4.6-1s3.8.8 4.6 1q1.2.3 1.6-.3a1 1 0 0 0 0-1.3" style="fill:#42312c"/><path d="M67.3 58.2 67 58h-6.3q-1 .5-.6 1.5c.2.6 1.5 2.3 3.9 2.3s3.7-1.7 4-2.3q.3-1-.7-1.4" style="fill:#875334"/><path d="M72.3 70c-.5-1.4-4.1-4.7-8.5-4.7a10 10 0 0 0-8 4.8v.4q.2.2 1.2-.5a13 13 0 0 1 6.8-2.5c2.8 0 5.3 1.5 6.8 2.4q1 .7 1.4.7h.2z" style="fill:#473530"/><path d="M63.9 71.9c2.5 0 4.5 1.3 4.3.6s-2-2.5-4.4-2.5a5 5 0 0 0-4.3 2.5c-.1.6 2-.6 4.4-.6" style="fill:#875334"/><path d="M64.4 3.3c-35.2 0-34.9 32.5-34.9 33 0 0-.8 14.2-.3 21.8h6.7c0-2.5 1.7-18 7-19.2 19.1-4.3 30-14.5 30-14.5 2.8 6.2 11.6 12.2 14.8 14.5 2.6 1.9 3.5 15.9 3.4 19.2h7.5v-.2c.5-7.5-.3-21.5-.3-21.5 0-.6 1.2-33-34-33" style="fill:#3c2c23"/><radialGradient id="d" cx="64.2" cy="73.8" r="42.9" gradientTransform="matrix(1 0 0 -1.214 0 143.94)" gradientUnits="userSpaceOnUse"><stop offset=".8" style="stop-color:#554138;stop-opacity:0"/><stop offset="1" style="stop-color:#554138"/></radialGradient><path d="M64.4 3.3c-35.2 0-34.9 32.5-34.9 33 0 0-.8 14.2-.3 21.8h6.7c0-2.5 1.7-18 7-19.2 19.1-4.3 30-14.5 30-14.5 2.8 6.2 11.6 12.2 14.8 14.5 2.6 1.9 3.5 15.9 3.4 19.2h7.5v-.2c.5-7.5-.3-21.5-.3-21.5 0-.6 1.2-33-34-33" style="fill:url(#d)"/></svg>