<svg xml:space="preserve" width="16" height="16" viewBox="0 0 128 128"><path d="M56.1 81.3c-.6.3-52.2.4-52.2.4s-1 6.6 3 15.1c2.7 5.8 7 13.7 12.7 18.4 3.5 2.8 10.9 9.2 29.6 9.4 20.4.1 28.1-9.2 32.5-13.4s10.6-13 15.1-17.4 9.5-7.4 9.8-11.5C107 78 104 78 104 78z" style="fill:#891e0d"/><path d="M49 106.8c20.4-.8 27.2-8 41-16.3 11.7-7 16.2-9.7 16.2-11.5s-10.8-5-17-8c-9-4-21.9-11.7-44.8-11.9-19.6 0-40.5 8-40.5 23.2 0 15.5 25.3 25.3 45 24.5" style="fill:#d75010"/><path d="m35.8 67.4-10 2.3-10.6 6.1-1.1 6.8 1.8 3 66.3 1 9-6.3s-3.5-1.8-4.1-2.3c-.7-.4-24.3-8.4-24.7-8.3s-26.6-2.3-26.6-2.3" style="fill:#fe9700"/><path d="M15.5 87s.9-3.8 5.4-7.2c4.3-3.3 11.3-6.5 25.2-5.8 12.7.6 22.3 5 26.9 8l8 5.4-13.4 6.8-16.5 4.2s-23.3-2.3-24.4-3.3S15.5 87 15.5 87" style="fill:#d85f11"/><path d="m26 93.7-.1-.2a9 9 0 0 1-.7-5.8c1.2-5.6 6.8-8.7 11.9-9.5 6-1 11.7-1 11.7 3.4 0 3.5-5 3.2-7.4 3.4-2.4.3-6 1-6.1 3.4-.2 2.7 4.3 3.8 11.3 3 6.1-.7 15-3.8 15-3.8l3.5 4.4-.4 3s-9.8 3-10.3 3-17.9-.1-18.8-.6z" style="fill:#eba961"/><path d="M48.2 99.3q-3.7 0-8-.4c-14-1.2-30.2-8.2-28-18 2-8.8 13.7-15 32.8-15 20.3 0 46.3 12.5 47.4 13 0 0 1 .4 1.1 1.1 0 .8-.8 1.4-.8 1.4-.4.3-8 6.4-19.2 12a54 54 0 0 1-25.3 5.9m-5-30.4c-16.8 0-27.4 6-27.8 12.4-.6 7.8 12.6 13.5 25 14.6 15 1.3 23-1 31.8-5.3 7.6-3.7 13.6-7.9 16.6-10-6.9-3-27.6-11.4-43.8-11.7z" style="fill:#ffe36a"/><path d="M61.7 87.6S68 85 72.2 83c4.1-2 11.5-6.4 11.5-6.4l6.8.8 3 2.5s-9.4 6.4-17.4 10c-6.6 3-12.6 4.2-12.6 4.2s-3.7 0-3.8-3.2c-.1-2.2 2-3.4 2-3.4" style="fill:#fef499"/><path d="M4.9 80.6Q4.9 83 8 83q2.8 0 3-2.4 0-2.2-3-2.3-3.1.1-3.2 2.4m11 10.9c-1.3-.1-3.2.7-3 2.8s2 2.6 3.2 2.6 2.5-.8 2.7-2.5c0-1.4-.7-2.7-3-2.8m18.4 7.6c-1.5 0-3.2.9-3.2 2.6q.2 2.6 3.5 2.7 3.1-.2 3.1-2.7c0-1.1-.8-2.6-3.4-2.6m21.2.7c-2.3.2-3.3 1.6-3.2 2.9s1.3 2.5 3.6 2.3c2.6-.3 3.2-1.4 3.1-2.7s-1-2.8-3.5-2.5m17.6-5.4c-1.6.7-2.3 2.2-1.5 3.5.6 1.1 2.6 1 3.9.2s2-2 1.2-3.3c-.5-1-2.1-1-3.5-.5m13-4.9c1 1.4 2.5.9 3.7 0s1.6-2.2 1-3.2-2.2-1-3.6 0-1.9 2.2-1.1 3.2m10.8-8q1.5 1.5 3.7 0c1.4-.8 1.7-2.1.8-2.8s-2.2-.6-3.4 0c-.8.5-2 1.8-1 2.8M66.2 65.3c-.5 1.2-.3 2.6 2 3.1s3.2-.4 3.4-1.4c.3-1.2-.6-2.4-2.2-2.8q-2.6-.5-3.2 1m-18.7-2.9c-.1 1.2.6 2.3 3 2.5s3.2-.6 3.3-2.1c0-1.7-1.6-2.2-3.1-2.3-1.6-.2-3 .4-3.2 1.9m-17.3 1.2q.2 2 3.2 1.8 3-.6 2.6-2.6-.5-2-3.1-1.8c-1.6.1-2.8 1.1-2.7 2.6m-14.4 3.1c-1.6.7-2 2.9-.6 3.6s3 .7 4.2-.2c1.4-1.2 1.3-2.8.2-3.4q-1.7-.8-3.8 0" style="fill:#ffa821"/><path d="M8.5 74.4q.4 1.9 3.3 1.4 2.7-.8 2.4-2.9t-3.4-1.7c-2 .5-2.7 2-2.4 3.2M6.7 88c.1 1.7 1.4 2.6 3 2.6s3-1 2.9-2.5q-.2-2.6-3-2.5c-1.2 0-3 .5-2.9 2.5m14.5 10.6c-.1 1.8 1.4 2.8 3.2 2.8q2.9 0 3-2.6c.1-1.8-1.3-2.6-3-2.7q-2.9-.1-3.2 2.5m20.5 4.1c0 1.5 1.4 2.5 3.3 2.6 2 0 3.5-1 3.5-2.8q-.2-2.4-3.5-2.6c-2 0-3.4 1.1-3.3 2.8m20.3-1.1c.6 1.5 2.3 1.7 4.2 1s2.7-2.3 2.3-3.5c-.5-1.4-2.3-1.7-4-1.2-1.6.5-3 1.8-2.4 3.7m18.3-11.2c-1.3.7-2 2.1-1.2 3.3s2.5 1 3.6.2 2-2.2 1-3.4c-.9-1.3-2.5-.7-3.4-.1m12.5-7.8c-1.3.7-1.6 2.1-.8 3 .7 1 2.3.8 3.3.1 1-.6 1.5-2.1.5-3.1q-1.4-1-3 0M74 67.5c-.8 1.5.2 2.7 1.6 3.2 1.3.6 2.6 0 3-.7s.1-2.3-1.6-3-2.8-.1-3 .5m-17.2-4.1q-.1 2.5 2.8 2.8 2.8.4 3.4-1.9c.2-1.6-1.2-2.4-2.5-2.7s-3.5.2-3.7 1.8m-18.2-1c0 1.4 1.3 2.2 3 2.2q3 0 3.1-2.2c0-1.4-1.3-2.3-3-2.3q-3 .2-3.1 2.3m-14.5.6c-2.4.5-2.2 2.2-1.9 3 .4 1 1.8 1.5 3.2 1.2 2-.4 2.7-1.8 2.2-2.9-.5-1.2-2-1.6-3.5-1.2" style="fill:#91c354"/><radialGradient id="a" cx="93.6" cy="9.4" r="57.6" gradientUnits="userSpaceOnUse"><stop offset=".4" style="stop-color:#ffcf18"/><stop offset=".6" style="stop-color:#ffcc16"/><stop offset=".7" style="stop-color:#fec212"/><stop offset=".9" style="stop-color:#fdb10a"/><stop offset="1" style="stop-color:#fc9d00"/></radialGradient><path d="M93.7 9c-1.3 0-3.5 9.4-5.8 16s-8.7 23.4-10.5 31.5C76.2 62 76 69.2 78.8 73.2a18 18 0 0 0 12.4 7.2c5.6.5 15.6-2.6 17.8-11.4 2.1-8.9-1-17.3-3.4-24.8-1.8-6-5-14.7-6.7-20.1C97.7 20.1 95 9 93.7 9" style="fill:url(#a)"/><path d="M87.3 71.1s-.7 1.7-1.5 2.8L83 77.2s.5.6 2.8 1.7c4.6 2.2 8 1.5 8 1.5s1.6-1.8 2-3 .3-4-3-5.6c-3.4-1.7-5.2-1.3-5.5-.7" style="fill:#ff7512"/><path d="M89.4 75.3s2.7 0 4 .4 2.6 1.1 2.6 1.1.5-2.8-2.9-5.3c-3.4-2.4-5.4-.8-5.4-.8s.6 1 .9 2z" style="fill:#ca750f"/><radialGradient id="b" cx="91.4" cy="51.1" r="49.4" gradientTransform="matrix(.016 -1 .741 .012 52 141.9)" gradientUnits="userSpaceOnUse"><stop offset=".2" style="stop-color:#ffd874"/><stop offset="1" style="stop-color:#ffd874;stop-opacity:0"/></radialGradient><path d="M53.4 47.5c-2 26.3 6.8 55.9 40.1 54.8s34.7-27.2 34.3-52.8c-.4-25.2-5-48.5-33.1-49.2C70.2-.3 55.4 20 53.4 47.5" style="opacity:.5;fill:url(#b)"/></svg>