<svg xml:space="preserve" width="16" height="16" viewBox="0 0 128 128"><path d="M43 21.6h29.8M43 36.8h29.8" style="fill:none;stroke:#616161;stroke-width:3;stroke-miterlimit:10"/><path d="M64.8 124.3H53.3V7.5s1-2.5 5.8-2.5 5.7 2.5 5.7 2.5z" style="fill:#9e9e9e"/><path d="M61.8 5.4v94.4h-8.5v8.6q2.2 0 4 .4c2.6.6 4.5 3 4.5 5.7v9.8h3V7.5s-.6-1.4-3-2.1" style="fill:#757575"/><path d="M92.6 4.3a24.2 24.2 0 1 0 0 48.5 24.2 24.2 0 0 0 0-48.5" style="fill:#2196f3"/><path d="M103.2 13.4c-1.5-.4-4.5-.8-10.6-.8s-9 .4-10.5.8c-1 .2-4 1.4-4 4.8V39c0 1.1 1 2 2.1 2h.8v2.4q0 1 1.2 1.2h2.5q1-.1 1.2-1.2V41h13.5v2.3q0 1 1.2 1.2h2.5q1-.1 1.2-1.2V41h.8c1.1 0 2-1 2-2.1V18.2c0-3.2-3-4.6-3.9-4.8m-17 1.6q0-.8.8-.9h11.3q.8 0 .9 1v1.5q0 1-1 1H87a1 1 0 0 1-.9-1zm.1 22q0 .4-.6.5h-2.5a2 2 0 0 1-2.1-2v-1.2q0-.5.6-.6h2.5c1.1 0 2.1 1 2.1 2.1zm17.9-1.6c0 1.2-1 2.1-2.1 2.1h-2.5l-.6-.6v-1.1a2 2 0 0 1 2-2.1h2.6q.5 0 .6.6zm.5-9c0 1.3-2.9 3.7-12 3.7-9.3 0-12.2-2.2-12.2-3.7v-6.1c0-.5.4-1.5 1.4-1.5h21.6c1 0 1.2 1 1.2 1.5z" style="fill:#fff"/><path d="M76.9 103H41.2q-2.1-.2-2.3-2.3V59.5q.2-2.1 2.3-2.3H77c1.2 0 2.2 1 2.2 2.3v41.2c0 1.2-1 2.2-2.2 2.2" style="fill:#f5f5f5"/><path d="M73 96.1H45V63.6h28z" style="opacity:.8;fill:#82aec0"/><path d="M59 63.6v33" style="fill:none;stroke:#f5f5f5;stroke-width:2;stroke-miterlimit:10"/><path d="M45 63.6h13v2.7H45z" style="fill:#616161"/><path d="M45 90h28.1M45 83.4h28.1M45 76.8h28m-28-6.6h28" style="fill:none;stroke:#f5f5f5;stroke-miterlimit:10"/><path d="M60 75.4h13v2.7H60zM45.1 82H58v2.7H45.1z" style="fill:#616161"/><path d="M76.9 103H41.2q-2.1-.2-2.3-2.3V59.5q.2-2.1 2.3-2.3H77c1.2 0 2.2 1 2.2 2.3v41.2c0 1.2-1 2.2-2.2 2.2" style="fill:none;stroke:#9e9e9e;stroke-width:3;stroke-linecap:round;stroke-linejoin:round;stroke-miterlimit:10"/><path d="M41.4 101.5c-1.6.1-1.6-1-1.6-1.2V60a2 2 0 0 1 2-2.1h34.7q1.4 0 1.2 1.7s-.2-.7-1-.7H41.8a1 1 0 0 0-1 1v40.4c0 1 .5 1.2.5 1.2" style="fill:#757575"/><path d="M13.1 14.2h34.1v29.6H13.1z" style="fill:#ffca28"/><path d="M45.3 14.2c1 0 2 .9 2 1.9v25.8c0 1-1 1.9-2 1.9H15c-1 0-1.9-.8-1.9-1.9V16.1c0-1 .9-1.9 2-1.9zm0-2H15a4 4 0 0 0-3.9 3.9v25.8a4 4 0 0 0 4 3.9h30.2a4 4 0 0 0 4-3.9V16.1a4 4 0 0 0-4-3.9" style="fill:#9e9e9e"/><path d="M13.1 23.9h34.1M13.1 34.1h34.1" style="fill:none;stroke:#fffde7;stroke-width:2;stroke-miterlimit:10"/><path d="M15.2 17.5h8.6v2.3h-8.6zm0 20.7h6.5v2.3h-6.5zm22.8 0h6.5v2.3H38zm0-20.7h6.5v2.3H38zm-3.4 10.4h3.7v2.3h-3.7zm6.1 0h3.7v2.3h-3.7zm-25.5 0h11.9v2.3H15.2z" style="fill:#757575"/></svg>