<svg xml:space="preserve" width="16" height="16" viewBox="0 0 128 128"><path d="M59.6 21.7s-5.4-.2-9 .2c-8.1.9-15.1 6-14 26.2 1.2 21.4 4.1 59.5 4.1 59.5" style="fill:none;stroke:#424242;stroke-width:5.9729;stroke-miterlimit:10"/><path d="M72.9 38.8v-9.2H59.2v9.2c0 1.9-3 2.9-5 3.9-7.4 3.5-10.5 9.3-10.5 17.2v53.7c0 2.3 3 10.4 22.3 10.4s22.3-8.1 22.3-10.4V60c0-8.5-3.7-14.6-12-18-2-.8-3.4-1.3-3.4-3.2" style="fill:#db3427"/><path d="M59.2 34c0 3 1.7 6.2 6.8 6.2s7-3.3 7-6.2z" style="fill:#ba2626"/><path d="M52.8 54.9V83q0 .7.7.9a69 69 0 0 0 25 0q.8-.2.8-.9V55q-.1-1-1-1a99 99 0 0 1-24.5.1q-.9 0-1 .9" style="fill:#fafafa"/><radialGradient id="a" cx="65.4" cy="81.7" r="21.6" gradientTransform="matrix(.978 0 0 .947 3 4.1)" gradientUnits="userSpaceOnUse"><stop offset=".4" style="stop-color:#ff9800"/><stop offset=".7" style="stop-color:#ff6d00"/><stop offset="1" style="stop-color:#f44336"/></radialGradient><path d="M60.2 65.4c-.4 1.3-1 3 .6 4.3 0 0 .1-3.4 3.5-5.7 1.8-1.2 1.2-3 .8-3.6s-1.2-1.3-1.6-1.6q-.2-.6.3-.6c2 0 5.3.6 6.7 4q1 2 .2 4.3c-.3 1-1.2 3.5.9 4 1 .4 1.5-.9 1.7-1.5q.3-.3.6-.1a7 7 0 0 1 1.6 6.3c-.7 4-4.8 6.8-8.8 6.8-5 0-9.1-2.8-10.1-8-.5-2-.3-6 3-8.9q.6-.2.6.3" style="fill:url(#a)"/><path d="M68.5 71.6c-1.9-2.3-1-5-.6-6q0-.3-.2-.2a9 9 0 0 0-3.3 3.5c-1 2.4-1 3.5-.3 5 .4.8 0 1-.3 1l-.5-.2q-.7-.7-1-1.6h-.2q-.9 1.4-.9 2.9a5 5 0 0 0 5 4.8c3.5 0 6-3.7 4-6.9q-.7-1.2-1.7-2.3" style="fill:#ffee58"/><path d="M67 44.3c.8 0 1.8.5 1 1.8-.6 1.3-2.6 4.5-9.8 4.3-1.7 0-5.7-.3-6.6-2.5-1-2.2 4.7-5.7 8-4.6 3.4 1.3 4.3 1 7.3 1" style="fill:#ff7555"/><path d="m61 25.3-7.4.3q-1.3-.1-1.5-1.3l-.4-5q0-1.3 1.3-1.5l7.7-.2q1.3.1 1.4 1.4l.2 5q-.1 1.2-1.4 1.3" style="fill:#9e9e9e"/><path d="M35 40.9c0-3.6.8-7.6 1.8-10 .7-1.8 2.3-5.2 4-6.6q3.7-3.2 7.5-3.6c2.2-.2 2.3 1.4-.5 2.4-2.4.9-4.2 1.6-5.8 3.9a25 25 0 0 0-4 11c-.3 1.5-.6 10.7-2.4 8.8-1-1-.7-4.4-.6-6" style="fill:#616161"/><path d="M60.7 21.8c-2.6-3-1.3-6.4.5-7.2L85.2 4q.4-.2.7.3a7 7 0 0 1-3.8 8.5l-19.6 8.6c-.6.3.8 3.4-1.8.3m27.7 6.1-26-12-.5 1.6 9 4.2-.3.5c-1 2.3.3 4 2.8 5 2.6.9 9.5 4 11.1 4.5 1.9.6 2.8 0 3.7-1 .6-.7 1.5-2.2.2-2.8" style="fill:#424242"/><path d="M76.1 8.9v.4l-1.7 1.4-1.5 1.6c-1.7 2-4.5 2.6-6.8 3.6l-4.7 1.9c-.6.2-1.3.4-1.3-.5q0-1.3 2.3-2.5l7-3 6.4-3z" style="fill:#757575"/><circle cx="66" cy="27.9" r="10.1" style="fill:#db3427"/><circle cx="66.1" cy="27.9" r="6.5" style="fill:#fafafa"/><path d="M66 21.5c-.3 0-1.4 5.8-1.4 6.2q.2 1.3 1.5 1.4 1.3-.1 1.4-1.4c0-.4-1-6.2-1.4-6.2" style="fill:#212121"/><path d="M61.8 22a7 7 0 0 0-2.7 4.8q0 1.6-1.3 1.9c-1 0-1-1.3-1-1.7q.1-4.1 3-6.4c.8-.7 2.3-1.3 3-.4.5.7-.4 1.4-1 1.8" style="fill:#ff7555"/><path d="M66 93.4a113 113 0 0 1-22.6-2.3l-2.1-.3-.5-5.6H42c1 0 2 .4 2 .4s9.8 2.2 22 2.2 21.4-2 21.5-2l.6-.2q.7 0 .8.6l.2 4.3q0 .7-.5.7l-.3.1c-.5 0-9.4 2.1-22.3 2.1" style="fill:#424242"/><path d="m36 99-.6-7.2q0-.4.5-.4a17 17 0 0 0 6.4-.4q.3 0 .5.3l.5 7.2-.2.4c-.8.4-3.5 1.5-6.9.4z" style="fill:#9e9e9e"/></svg>