<svg xml:space="preserve" width="16" height="16" viewBox="0 0 128 128"><path d="M106.8 123.9h-74a4 4 0 0 1-4-4V14.8a4 4 0 0 1 4-4h73.9a4 4 0 0 1 4 4v105a4 4 0 0 1-4 4" style="fill:#fff"/><path d="M106.8 10.8h-7v3h7q.9 0 1 1v105q-.1 1-1 1h-74a1 1 0 0 1-1-1v-5.7h-3v5.8a4 4 0 0 0 4 4h73.9a4 4 0 0 0 4-4V14.8a4 4 0 0 0-4-4" style="fill:#6fbff0"/><path d="M95.9 114.1H18a4 4 0 0 1-4-4V8a4 4 0 0 1 4-4h78a4 4 0 0 1 4 4v102.1a4 4 0 0 1-4 4" style="fill:#fff"/><path d="M118 52.6q0 1-1 1.3c-1.4.4-4.2 1-8 1H96.8q-.7 0-1.3-.5l-4-4c-1-.8-1-2.5 0-3.4l4-4a2 2 0 0 1 1.3-.5h15.6q2.4-.1 4-.5 1.4-.2 1.6 1.3z" style="fill:#ffd54f"/><path d="m117.4 42.1-.4-.2v10.7l-.2.4c-1.4.3-4.1 1-7.8 1H96.8l-.6-.3-3.5-3.4q-.8-.7-1.3-1.6-.3-.7-.3-1.4l-.2.4v.4q-.3.3-.2.8 0 1 .7 1.6l4.1 3.9q.7.5 1.3.5H109q5.8-.2 8-1 1-.3 1-1.3v-9.3q0-.7-.7-1.2" style="fill:#f3ab47"/><path d="M118 95.2q0 1-1 1.3-2.2.8-8 1H96.8q-.7 0-1.3-.6l-4-3.9c-1-.9-1-2.6 0-3.5l4-3.9a2 2 0 0 1 1.3-.5h15.6q2.4 0 4-.6c.8-.2 1.6.5 1.6 1.3z" style="fill:#0091ea"/><path d="m117.4 84.6-.4-.1V95l-.2.4q-2.2.8-7.8 1H96.8l-.6-.3-3.5-3.3q-.8-.7-1.3-1.7-.3-.7-.3-1.3l-.2.3v.4q-.3.5-.2.8 0 1 .7 1.6l4.1 3.9q.7.5 1.3.5H109c3.8 0 6.6-.6 8-1q1-.1 1-1.3v-9.3q0-.7-.7-1.2" style="fill:#01579b"/><path d="m17.1 10.8 11 .2.8 27.8v78.4h70a4 4 0 0 0 4-4V10.8z" style="opacity:.25;fill:#212121"/><path d="M95.9 114.1H18a4 4 0 0 1-4-4V8a4 4 0 0 1 4-4h78a4 4 0 0 1 4 4v102.1a4 4 0 0 1-4 4" style="fill:#fff"/><path d="M95.9 7q.9.1 1 1v102.1q-.1 1-1 1H18a1 1 0 0 1-1-1V8q.1-.9 1-1zm0-3H18a4 4 0 0 0-4 4v102.1a4 4 0 0 0 4 4h78a4 4 0 0 0 4-4V8a4 4 0 0 0-4-4" style="fill:#6fbff0"/><path d="M27.1 30.5h57.1M27.1 44.3h57.1M27.1 58h57.1M27.1 71.8h57.1M27.1 85.6h24.4" style="fill:none;stroke:#b0bec5;stroke-width:3.8648;stroke-linecap:round;stroke-miterlimit:10"/><path d="M116 33.5q0 1-.8 1.3-2.3.8-8 1H95q-.8 0-1.3-.6l-4.1-3.9c-1-.9-1-2.6 0-3.5l4-3.9a2 2 0 0 1 1.4-.5h15.5q2.4 0 4.1-.6 1.3-.1 1.5 1.3z" style="fill:#f44336"/><path d="M116 76q0 1-.8 1.3-2.3.8-8 1H95q-.8 0-1.3-.5l-4.1-4c-1-.8-1-2.5 0-3.4l4-4A2 2 0 0 1 95 66h15.5q2.4 0 4.1-.6 1.3 0 1.5 1.4z" style="fill:#9ccc65"/><path d="m115.5 23-.3-.2-.1 6v4.7q0 .3-.2.3-2 .8-7.7 1H95l-.6-.3-3.5-3.3q-.8-.7-1.4-1.6-.3-.8-.2-1.4l-.2.3-.1.4-.1.9q0 .8.7 1.5l4 4q.6.5 1.4.5h12.2q5.7-.2 8-1 .8-.4.9-1.3V24q0-.7-.6-1.1" style="fill:#c62828"/><path d="m115.5 65.5-.3-.2-.1 6V76q0 .3-.2.3-2 .8-7.7 1H95l-.6-.3-3.5-3.3Q90 73 89.5 72q-.3-.8-.2-1.4l-.2.4-.1.3-.1.9q0 .9.7 1.5l4 4q.6.5 1.4.5h12.2q5.7-.2 8-1 .8-.3.9-1.3v-9.4q0-.7-.6-1.1" style="fill:#7cb342"/></svg>