<svg xmlns:xlink="http://www.w3.org/1999/xlink" xml:space="preserve" width="16" height="16" viewBox="0 0 128 128"><radialGradient id="a" cx="63.6" cy="-678.9" r="57" gradientTransform="matrix(1 0 0 -1 0 -616)" gradientUnits="userSpaceOnUse"><stop offset=".5" style="stop-color:#fde030"/><stop offset=".9" style="stop-color:#f7c02b"/><stop offset="1" style="stop-color:#f4a223"/></radialGradient><path d="M63.6 118.8c-27.9 0-58-17.5-58-55.9S35.7 7 63.6 7c15.5 0 29.8 5.1 40.4 14.4 11.5 10.2 17.6 24.6 17.6 41.5s-6.1 31.2-17.6 41.4a61 61 0 0 1-40.4 14.5" style="fill:url(#a)"/><path d="M111.5 29.7a57 57 0 0 1 8.1 30.2c0 16.9-6.1 31.2-17.6 41.4a61 61 0 0 1-40.4 14.5 59 59 0 0 1-48.2-23 58 58 0 0 0 50.2 26c15.4 0 29.8-5.2 40.4-14.5a54 54 0 0 0 17.6-41.4q-.1-19.2-10.1-33.2" style="fill:#eb8f00"/><path d="M31.5 60.4 43.7 58l-12.5-5.2-.5-.2a4 4 0 0 1-1.7-5.7q.4-.7 1-1.2a6 6 0 0 1 6.9-.4l21.3 13q.8.4.5 1.3a1 1 0 0 1-.8.7L35 68.9l-.5.2c-3 .8-6.3-.9-6.8-3.8-.3-2.2 1.4-4.2 3.8-5m65-.2-12.2-2.3 12.6-5.2.4-.3c2-1 2.8-3.6 1.7-5.6q-.3-.8-1-1.3a6 6 0 0 0-6.9-.3L70 58.1a1 1 0 0 0-.6 1.3q.1.5.8.6L93 68.7l.5.1c3 .9 6.3-.8 6.8-3.7.3-2.2-1.4-4.3-3.8-5M62.8 80.4q-17.3 0-34.3-2.9a3.5 3.5 0 0 0-4 4.2c3.2 16 19 29.1 38.3 29.1 21.2 0 35.5-13.6 38.5-29.2a3.5 3.5 0 0 0-4.2-4q-17 3-34.3 2.8" style="fill:#422b0d"/><defs><path id="b" d="M62.8 80.4q-17.3 0-34.3-2.9a3.5 3.5 0 0 0-4 4.2c3.2 16 19 29.1 38.3 29.1 21.2 0 35.5-13.6 38.5-29.2a3.5 3.5 0 0 0-4.2-4q-17 3-34.3 2.8"/></defs><clipPath id="c"><use xlink:href="#b" style="overflow:visible"/></clipPath><g style="clip-path:url(#c)"><path d="M62.8 80.4q-17.3 0-34.3-2.9a3.5 3.5 0 0 0-4 4.2c3.2 16 19 29.1 38.3 29.1 21.2 0 35.5-13.6 38.5-29.2a3.5 3.5 0 0 0-4.2-4q-17 3-34.3 2.8" style="fill:#422b0d"/></g><path d="M44.7 87.8v21c0 9.5 7.7 17.2 17.2 17.2h3.3c9.5 0 17.2-7.7 17.2-17.2V87.6a94 94 0 0 1-37.7.2M65.5 85h-4q-8.5 0-16.8-.7v3.5a93 93 0 0 0 37.6-.2v-3.4q-8.1.6-16.8.8" style="fill:#ff4081"/><path d="M65.5 85h-4q-8.5 0-16.8-.7v3.5a93 93 0 0 0 37.6-.2v-3.4q-8.1.6-16.8.8m-1.9 21.3a2 2 0 0 0 2-2V85h-4v19.2q.1 1.8 2 2" style="opacity:.3;fill:#ab3f2e"/></svg>