<svg xml:space="preserve" width="16" height="16" viewBox="0 0 128 128"><path d="M22.7 95.4c2.5.6 10.9 3.6 22.7.2 8.8-2.5 22-9.8 23-10.3 15.6-10 36-16.2 45.2-18.7 1.2-.3 1.8-2.4 1.5-3.6-.2-.5-33.1-.6-55.2 10.7S22.7 95.4 22.7 95.4" style="fill:#4c5125"/><path d="M82.4 114.2c7.4-11.3.6-35-2.2-41L69 77.4c1.2 2.7 9.5 22.4 1.1 40z" style="fill:#784d30"/><path d="M63.2 119.5c-6.4-3.5-12-15.2-12-15.2l9.5-6.6c3.2 6 6.5 11.1 13 16.7 2.4 2 7.5 1.6 7.5 1.6s-8.2 7.3-18 3.5" style="fill:#8d6e63"/><path d="m61.4 118.2 9.7-4.9-6.5-8.3-1 1.2 2.3 6-7 3.5z" style="fill:#784d30"/><path d="M80.2 73.1c3.7 7.7 9.3 35.5 1.3 41.6-3.9 3-11 .3-21.8-18.5" style="fill:none;stroke:#bcaaa4;stroke-width:2;stroke-miterlimit:10"/><path d="m66.6 102.4-7.1-12.7q-.8-1.1-2-.6l-12.7 7.2c-.6.3-.9 1.2-.5 1.8l3.5 6.4 3.6 6.3q.8 1 1.8.5l12.8-7q1.2-.8.5-2m-9-9.9 2.1 3.7-10 5.5-2-3.6zM51 104.2l10-5.5 2 3.6-9.9 5.6z" style="fill:#90a4ae"/><path d="M58.1 93.4c-3.3-5.5-8-12.8-7.7-14.7l-11.8-1.4c-.5 4 4.5 9.8 7.6 17.9.7 1.7 1.7 3.4 3 2.8z" style="fill:#8d6e63"/><path d="m45.1 92.6 8.6-4.3-1.4-3.7-8.6 5.2zm2.1 4.5 9.4-4.7h1l.5 1-9 4.6s-.5.4-1.3-.2z" style="fill:#784d30"/><path d="m53.2 108-4.2-7.6 9.9-5.7 3.4 8.2zm10.5-2.5 2.2 6.8-10.2 3.7-1.7-5z" style="fill:#8d6e63"/><path d="M55 91a36 36 0 0 1-4.3-13.3l2 .2a53 53 0 0 0 5 14.7s-2.1-.2-2.7-1.5m6.4 12.3L58 96.8c-.5-1 .8-2 .8-2l4.3 7.6zm-3.3 13.4-2.4-.8 9-4.3-1.9-5.7 1.8-1 2.5 7.8z" style="fill:#bcaaa4"/><path d="M117.7 58c-14.6-4-12.2-6.7-16.1-14.6-12.2-24.1-29.3-38-54.2-35.7C18.9 10.3 1.6 34.2 4.3 62c.6 7.1 2 13 4.5 19.6 2.7 7.6-.9 12-2.5 13.6s-3.5 4 .1 5.3c4 1.4 13.3 4 34-7.8 21-12 26.7-15.6 42.5-20 13.2-3.8 32.2-5.9 38.7-8 3.7-1.2 3.7-4.8-3.9-6.9" style="fill:#506b3f"/><linearGradient id="a" x1="12.7" x2="121.5" y1="98.7" y2="59.2" gradientUnits="userSpaceOnUse"><stop offset=".1" style="stop-color:#828e51"/><stop offset=".9" style="stop-color:#9b9e5a"/></linearGradient><path d="M120.8 59s2.2 1.9-.6 3.1c-2.8.9-8 1.7-13.9 2.8-7.9 1.3-16.8 2.9-24.2 5a140 140 0 0 0-37.5 17L39 90.2a55 55 0 0 1-25.3 8.7c-1.4 0-5-.3-6.7-1-1.4-.7-.7-2.5-.7-2.5q-4 3.8.1 5.3c1.6.5 3.9 1.2 7.3 1.2 5.5 0 14-1.8 26.8-9 21-12 26.6-15.6 42.4-20 13.2-3.8 32.3-5.9 38.7-8 2.2-.7 3-2.4 1.7-4 0 0-.8-1.1-2.5-1.8" style="fill:url(#a)"/><path d="M14 52.6c3 1.3 3.9-2 4.2-3.3 1.2-4.3 3.2-12.4 14.7-20.7 2.9-2.1 5.6-4.9 2-7.5-3-2.3-8 .1-10.4 2-3.7 2.9-7 6.5-9 10.8C9 48 12.9 52.1 13.9 52.6" style="fill:#757f40"/><path d="M70.6 81.5c3-1.6 10-4.4 10-4.4-.3-1.3-1.2-3.3-1.2-3.3A94 94 0 0 0 69 77.5z" style="fill:#4e342e"/></svg>