<svg xml:space="preserve" width="16" height="16" viewBox="0 0 128 128"><path d="m66.7 45.6 5.2-7s1-1.6 2-1.5 2.6 3.3 6.6 3c4.1-.4 8-1.4 8-1.4l3.3 4.6-.5 3s-1.3 3.7-.6 6.2c.6 2.1 2.8 3.5 2.8 4.5 0 1.3-63 63.6-63.7 64s-7.2-.4-7.9-.7-11.4-12.6-11.4-12.6-.4-5.4.1-6.4l.8-.7C16 97 33.2 90 46.4 77c5.7-5.6 20.3-31.5 20.3-31.5" style="fill:#d06f1d"/><path d="M111.8 16.5V12s2-4.4 2.5-5 4.6-1.4 7.5 1.6c2.8 3.1 2.3 6.1 2 6.5s-5.4 3.7-5.4 3.7z" style="fill:#af570c"/><path d="M72 38.7c.3-.3 2.8 3.5 5.8 3.7 3 .1 8-.2 8-.2l2.5 4-.1 2.6s-.7 3 0 4.8 1.6 2.7 1.8 3.4-59.6 60.9-60.1 61-6.9.1-7.3-.2-9.2-10.2-9.6-10.9c-.3-.7-1.8-5.5-1.6-6.3s60-61.7 60.5-62" style="fill:#eb8b34"/><path d="M84.2 39.5c0-.3 27.1-27.1 27.1-27.1l6.6 6.9-27 27.5s-8.4 1.3-8.3 1z" style="fill:#474c4f"/><path d="m98.9 24.7 3.1-3.1 7 6.8-3.3 3.3zm6.1-6 6.8 6.8 7-7s-6.8-7-7-6.8z" style="fill:#e0e0e0"/><path d="M56.4 73.7c.6.6 2.3-.8 3.5-1.7.4-.4 9-7.1 16.6-13.6s14.7-11.4 14.7-12-6.4-6.9-7-7c-.7 0-6.3 6.4-12.3 13.7L58.2 69.9c-1.2 1.6-2.3 3.3-1.8 3.8" style="fill:#af570c"/><path d="M8.8 32.1a15.3 15.3 0 0 0-.6 22 15 15 0 0 0 21.4.1c6-5.8 4.5-16.2.9-20.4a15.6 15.6 0 0 0-21.7-1.7" style="fill:#a52415"/><path d="M16.7 30.7c-1.7-.2-6.5.8-8.7 6.1-2 4.8-.7 8.3.2 8.5 1.6.5 3-6 6.5-8.4s5.7-.8 6.2-2.1c.4-1-.5-3.7-4.2-4.1" style="fill:#d26051"/><path d="M6.5 52c.3-.1 8.9-3.7 13.6-7.4C27.4 39 29.6 33 29.6 33s1.3 1 2.3 3c.7 1.5 1.3 3.8 1.3 4A51 51 0 0 1 11 56.5s-2-1.4-2.8-2.4c-1-1-1.7-2-1.7-2" style="fill:#8b200b"/><path d="M5.5 50.4s7.2-1.7 13.8-7a39 39 0 0 0 9.5-11.2l1.2 1 .9 1s-1.8 5.5-10.2 12a31 31 0 0 1-13.8 6.5L6 51.5zm3.8 4.8s6.8-1.5 13.4-7c8.2-6.7 9.9-10.7 9.9-10.7l.5 1.7.3 1.8s-2.3 4.8-8.8 9.8c-6.4 5-11.9 6.5-11.9 6.5l-1.8-.9z" style="fill:#fde7c4"/></svg>