<svg xml:space="preserve" width="16" height="16" viewBox="0 0 128 128"><path d="m43.2 32.7.8 62.9 41.8-.3-.8-64.9z" style="fill:#fff"/><path d="M42.7 37.7 52.8 32l23.5.6-33.7 23z" style="fill:#d80d1a"/><path d="m43.2 67.2 42.3-28.8-.2 19.3L43 87.1z" style="fill:#1d86fa"/><path d="m50 95.3 35.4-25.1-.6 18.5-13.2 9.6z" style="fill:#d80d1a"/><path d="m40.5 32.5.8 64 4-1.5-.9-64zm42.7-1.1.4 63.9 4-.4-.6-63.7z" style="fill:#a1d2d6"/><path d="M40 33c.7.8 46 .3 46.8-.1s4.8-3.8 4.5-9.1-4-7-4-7-.6-5.2-6.7-9.2A29 29 0 0 0 63.8 4c-7.8 0-15 .5-19.5 5s-4.6 8.7-4.6 8.7-4 1.2-4 7.1S40 33 40 33m.8 61.5c-.7.5-.8 4-.8 4s-3.7 2-3.2 6.3c.5 3.9 3.7 5.4 3.7 5.4s1.5 6.6 6.6 10.1c5.4 3.8 10.7 4 18.3 4 8.3 0 14-.6 18.4-4.8 5-4.9 5.5-9.9 5.5-9.9s3-1.7 2.8-5.7c0-4-3.3-5.5-3.3-5.5s-.7-3.1-1.3-4c-.3-.4-12.1-.2-23.8-.2-11.2 0-22.4-.2-23 .3" style="fill:#c8c8c8"/><path d="M61.6 120.4c-.1 1.6 8.3 1.6 14.5.2 7-1.6 9.4-7.6 9-8.1a24 24 0 0 0-8 0c-.4.5-2.2 4.2-5.3 5.5s-10.2 1.2-10.2 2.4M37 105.8l55-.2s-.2 1.1-1 2.3c-.7 1-1.7 1.7-1.7 1.7l-48.7.6s-1.5-.8-2.1-1.6c-1.4-1.7-1.5-2.8-1.5-2.8" style="fill:#858585"/><path d="m36.8 103.1 55.1-.7s-.1-1.5-1.1-2.6c-.8-.9-2-1.4-2-1.4l-49.5.5s-1 .7-1.6 1.6-.9 2.6-.9 2.6M36 22.9s11-2.2 27-2.4c16.2-.3 27.8.7 27.8.7s-.6-2-1.4-2.9-2-1.4-2-1.4-15.1-.6-24.3-.6c-11-.1-23.4 1.5-23.4 1.5s-1.4.4-2.3 1.6a8 8 0 0 0-1.5 3.5" style="fill:#e1e0e0"/><path d="M35.8 26s8.5-1.7 27.7-2 27.8 1.2 27.8 1.2 0 1.1-.3 2.3q-.8 1.9-1 2c-.3.1-16.5-1-26.5-1s-26.3 1.7-26.3 1.7l-1-2z" style="fill:#858585"/><path d="M60.6 19.5c0 .8-5.7 1.3-11.6 1.7-3.4.2-9.3 1.8-9.3-.4s2.1-2.6 9.4-2.8 11.5.3 11.5 1.4M61 6.3c.2.5-2.9 1.6-5.2 4-1.7 1.8-2.2 3.5-3.4 3.9s-7.2 1-7.3-.3c-.1-1.8 1.2-4.6 4.2-6.3C54.1 5 60.6 5.3 61 6.3" style="fill:#fff"/></svg>