<svg xml:space="preserve" width="16" height="16" viewBox="0 0 128 128"><path d="M99.7 80.1c-1.2-2.3.4-4.6 3.1-7.4 4.3-4.6 9-15.2 4.7-25.9l-.9-2h-1.8a3400 3400 0 0 0-80.2 0l-2.6 2a25 25 0 0 0 4.6 25.9c2.7 2.8 4.3 5.1 3 7.4-1.1 2.2-4.7 2.6-4.7 2.6s.8 2.2 2.8 3.5c1.9 1 4.1 1.3 5.7 1.4 0 0 6.2 8.5 22.3 8.5h18c16.1 0 22.3-8.5 22.3-8.5 1.6 0 3.9-.3 5.7-1.4 2-1.3 2.9-3.5 2.9-3.5s-3.6-.4-4.9-2.6" style="fill:#543930"/><radialGradient id="a" cx="98.9" cy="45.6" r="23.5" gradientTransform="matrix(1 0 0 .491 -19.51 60.05)" gradientUnits="userSpaceOnUse"><stop offset=".7" style="stop-color:#6d4c41;stop-opacity:0"/><stop offset="1" style="stop-color:#6d4c41"/></radialGradient><path d="M64.7 96.1v-9.5l28.7-2.2 2.6 3.2S89.8 96 73.7 96z" style="fill:url(#a)"/><radialGradient id="b" cx="75.7" cy="49.1" r="6.9" gradientTransform="rotate(155 84.38 60.64)scale(1 .742)" gradientUnits="userSpaceOnUse"><stop offset=".7" style="stop-color:#6d4c41"/><stop offset="1" style="stop-color:#6d4c41;stop-opacity:0"/></radialGradient><path d="M96 83.4c-4.4-6.5 5.2-9 5.2-9q-2.7 3.1-1.5 5.7c1.2 2.2 4.9 2.6 4.9 2.6s-5 4.3-8.7.7" style="fill:url(#b)"/><radialGradient id="c" cx="93.7" cy="68.7" r="30.5" gradientTransform="rotate(-94.3 90.05 62.55)scale(1 .833)" gradientUnits="userSpaceOnUse"><stop offset=".7" style="stop-color:#6d4c41;stop-opacity:0"/><stop offset="1" style="stop-color:#6d4c41"/></radialGradient><path d="M107.5 46.8c4.2 10.4-.2 21-4.4 25.6-.6.6-3 3-3.6 5 0 0-9.6-13.4-12.5-21.3q-.9-2.3-1.1-4.9-.1-2 .8-3.8c1-1.3 20.3-1.7 20.3-1.7z" style="fill:url(#c)"/><radialGradient id="d" cx="45" cy="68.7" r="30.5" gradientTransform="rotate(94.3 -.94 100)scale(-1 .833)" gradientUnits="userSpaceOnUse"><stop offset=".7" style="stop-color:#6d4c41;stop-opacity:0"/><stop offset="1" style="stop-color:#6d4c41"/></radialGradient><path d="M22 46.8c-4.3 10.4.2 21 4.4 25.6.6.6 3 3 3.6 5 0 0 9.6-13.4 12.4-21.3q1-2.3 1.2-4.9 0-2-.9-3.8c-.9-1.3-2-1-3.4-1-3 0-15.6-.7-16.5-.7z" style="fill:url(#d)"/><radialGradient id="e" cx="50.1" cy="45.6" r="23.5" gradientTransform="matrix(-1 0 0 .491 100.21 60.05)" gradientUnits="userSpaceOnUse"><stop offset=".7" style="stop-color:#6d4c41;stop-opacity:0"/><stop offset="1" style="stop-color:#6d4c41"/></radialGradient><path d="M64.8 96.1v-9.5L36 84.4l-2.6 3.2S39.6 96 55.8 96z" style="fill:url(#e)"/><radialGradient id="f" cx="27" cy="49.1" r="6.9" gradientTransform="rotate(205 4.73 51.67)scale(-1 .742)" gradientUnits="userSpaceOnUse"><stop offset=".7" style="stop-color:#6d4c41"/><stop offset="1" style="stop-color:#6d4c41;stop-opacity:0"/></radialGradient><path d="M33.5 83.4c4.3-6.5-5.2-9-5.2-9 1.6 2.1 2.4 4 1.4 5.7-1.2 2.2-4.8 2.6-4.8 2.6s5 4.3 8.6.7" style="fill:url(#f)"/><linearGradient id="g" x1="64" x2="64" y1="32.5" y2="1" gradientTransform="matrix(1 0 0 -1 0 128)" gradientUnits="userSpaceOnUse"><stop offset="0" style="stop-color:#f78c1f"/><stop offset=".5" style="stop-color:#f47f12"/><stop offset="1" style="stop-color:#ef6c00"/></linearGradient><path d="M64.1 96c-25.5 0-52 7.3-52 25v3h104v-3c0-16.7-26.3-25-51.9-25" style="fill:url(#g)"/><path d="M91.3 50.4H36.7c-6 0-10.7 5.2-10.7 11.4s4.8 11.5 10.7 11.5h54.6c6 0 10.7-5.2 10.7-11.5s-4.8-11.4-10.7-11.4M55 90v10c0 4.6 3.4 8.2 9 8.2s9-3.6 9-8.1V90z" style="fill:#e59600"/><path d="M64 11c-17.4 0-33.5 18.7-33.5 45.5C30.5 83 47 96.3 64 96.3S97.5 83 97.5 56.5C97.5 29.7 81.4 11 64 11" style="fill:#ffca28"/><path d="M72.3 76.1a25 25 0 0 1-16.6 0c-1.8-1-3.6.6-2.9 2.3s6.4 5.3 11.2 5.3 10.5-3.7 11.2-5.4c.8-1.6-1-3.2-2.9-2.2" style="fill:#795548"/><path d="M67.9 68H60q-1 .5-.6 1.7c.3.7 1.7 2.7 4.5 2.7s4.3-2 4.6-2.7q.3-1.2-.7-1.6" style="fill:#e59600"/><path d="M47.6 60.3q-3.1 0-5.1-1.3-1-.4-.8.5c.3 2.5 2.9 4.4 6 4.4 3 0 5.5-2 5.9-4.4q0-1-.8-.5a10 10 0 0 1-5.2 1.3m32.7 0Q77 60.3 75 59q-1-.4-.8.5c.4 2.5 2.9 4.4 6 4.4s5.5-2 5.9-4.4q.1-1-.8-.5a10 10 0 0 1-5.2 1.3" style="fill:#404040"/><path d="M55 49.8c-1-1.2-3-3-7.2-3s-6.3 1.8-7.3 3q-.5 1 0 1.6t2 .4c1.4-.2 2.4-1.2 5.3-1.2 2.8 0 4.5.9 5.3 1.2q1.4.3 2-.4.4-.6-.1-1.6m32.5 0c-1-1.2-3-3-7.2-3s-6.4 1.8-7.3 3q-.5 1 0 1.6t1.9.4c1.4-.2 2.5-1.2 5.4-1.2 2.8 0 4.4.9 5.3 1.2q1.4.3 1.9-.4t0-1.6" style="fill:#6d4c41"/><path d="M105 25.2c-2.5-3.7-8-8.7-13-9-.7-4.7-5.8-8.8-10.7-10.3-13.3-4.2-22 .5-26.6 3-1 .5-7.2 4-11.5 1.5-2.7-1.5-2.7-5.7-2.7-5.7S32 7.9 35 17a10 10 0 0 0-8.8 5.5 14 14 0 0 0-1 11A11 11 0 0 0 21.8 46c1.6 4.5 8.2 6.6 8.2 6.6-.5 8 1 13 1.8 15q.3.5.7-.1c1-4 4.4-17.9 4-20.3 0 0 11.5-2.2 22.3-10.2q3.3-2.5 7.2-4c13.6-5.5 16.5 7.1 16.5 7.1s9.7-2.8 12.3 8c1 4.9 1.7 12.9 2.2 18.4 0 .4.6.4.7 0 1-2 2.9-6.4 3.3-10.9.2-1.5 4.4-3.6 6.2-10.3a28 28 0 0 0-2.4-20.1" style="fill:#543930"/><radialGradient id="h" cx="82.8" cy="84.8" r="35.8" gradientTransform="rotate(72 9.89 -9.87)scale(1 -.742)" gradientUnits="userSpaceOnUse"><stop offset=".7" style="stop-color:#6d4c41;stop-opacity:0"/><stop offset="1" style="stop-color:#6d4c41"/></radialGradient><path d="M101 55.7c.2-1.6 4.4-3.6 6.2-10.3l.5-2.2a28 28 0 0 0-2.8-18c-2.2-3.4-7.1-8-11.7-8.8l-1.2-.2s.3 2.2-.5 4a6 6 0 0 1-3.4 2.7c12 12 11.1 22 13 32.8" style="fill:url(#h)"/><radialGradient id="i" cx="47.9" cy="123.8" r="9.4" gradientTransform="rotate(208.2 -17.9 63.45)scale(-1 1.186)" gradientUnits="userSpaceOnUse"><stop offset=".6" style="stop-color:#6d4c41"/><stop offset="1" style="stop-color:#6d4c41;stop-opacity:0"/></radialGradient><path d="m57.7 7.4-3 1.5c-1 .6-7.1 4-11.5 1.5-2.7-1.5-2.7-5.6-2.7-5.7-1.2 1.6-5 12.8 6 13.6 4.7.3 7.6-3.8 9.3-7.3z" style="fill:url(#i)"/><radialGradient id="j" cx="158.8" cy="63.5" r="28.8" gradientTransform="matrix(-.938 -.394 -.218 .528 231.67 50.27)" gradientUnits="userSpaceOnUse"><stop offset=".7" style="stop-color:#6d4c41;stop-opacity:0"/><stop offset="1" style="stop-color:#6d4c41"/></radialGradient><path d="M80 5.5c7.3 2 10.9 5.7 12 10.7.4 1.5.8 15.1-25.3-.4-9.7-5.8-7-9.4-5.9-9.8A31 31 0 0 1 80 5.5" style="fill:url(#j)"/><radialGradient id="k" cx="44.2" cy="115.2" r="8.6" gradientTransform="matrix(1 0 0 -1.223 0 153.73)" gradientUnits="userSpaceOnUse"><stop offset=".7" style="stop-color:#6d4c41;stop-opacity:0"/><stop offset="1" style="stop-color:#6d4c41"/></radialGradient><path d="M40.5 4.7h-.1c-1 .4-8.3 3.8-5.5 12.3l7.8 1.3c-7-7-2.2-13.6-2.2-13.6" style="fill:url(#k)"/><radialGradient id="l" cx="43" cy="100.1" r="16.1" gradientTransform="rotate(-165 50.81 -32.7)scale(1 -.936)" gradientUnits="userSpaceOnUse"><stop offset=".7" style="stop-color:#6d4c41;stop-opacity:0"/><stop offset="1" style="stop-color:#6d4c41"/></radialGradient><path d="m39.7 17.8-4.8-.8-1.2.1c-2.7.4-6 1.8-7.7 5.4a14 14 0 0 0-.8 11s2.4-2.3 8-2.4z" style="fill:url(#l)"/><radialGradient id="m" cx="39.2" cy="84.5" r="16.9" gradientTransform="rotate(187.8 -2.57 78.43)scale(-1 1.405)" gradientUnits="userSpaceOnUse"><stop offset=".6" style="stop-color:#6d4c41;stop-opacity:0"/><stop offset="1" style="stop-color:#6d4c41"/></radialGradient><path d="M25 33.7a11 11 0 0 0-3.3 12.6c1.8 4.4 8.2 6.4 8.2 6.4s1.2.4 1.9.4l1.5-22c-3 0-6 .9-7.9 2.2z" style="fill:url(#m)"/><linearGradient id="n" x1="30.9" x2="30.9" y1="124.4" y2="64.7" gradientTransform="matrix(1 0 0 -1 0 128)" gradientUnits="userSpaceOnUse"><stop offset=".6" style="stop-color:#ffca28"/><stop offset="1" style="stop-color:#ffb300"/></linearGradient><path d="M43.4 33c-.4-.9-1-1.5-3-1.8-.6-.1-3.6-.5-5.9-3.6a13 13 0 0 1-2.4-8.4l2.7-15.5H20.7l-.6 12.5-2 11.8.6 15.6 2 18.6c.2 1.3 1 2.6 3 2.6 2.8 0 3.6-2.3 3.9-5.6l.2-16q.2-3.4 3.2-4.9 1-.4 2-.4 2.3.2 4.3.8l1 .1c1.7 0 3.9-.9 4.7-2.3q1.2-2.3.4-3.6" style="fill:url(#n)"/><linearGradient id="o" x1="97.1" x2="97.1" y1="123.9" y2="65.2" gradientTransform="matrix(1 0 0 -1 0 128)" gradientUnits="userSpaceOnUse"><stop offset=".6" style="stop-color:#ffca28"/><stop offset="1" style="stop-color:#ffb300"/></linearGradient><path d="m107.9 16.2-.6-12.5H93.2l2.6 15.5c.5 3-1 6.4-2.3 8.3-2.3 3.1-5.3 3.5-6 3.7q-2.5.6-2.9 1.7-.8 1.4.4 3.5c.8 1.5 3 2.4 4.7 2.4l1-.1q2-.6 4.3-.8 1 0 2 .4c2 .8 3.2 2.7 3.2 4.8l.2 16c.3 3.3 1 5.7 3.8 5.7 2.1 0 2.9-1.3 3-2.7l2.2-18.6.5-15.5z" style="fill:url(#o)"/></svg>