<svg xml:space="preserve" width="16" height="16" viewBox="0 0 128 128"><path d="m103 60.5 21.4-9.3s-13.3-5.4-20.2-8.4c3-2.5 17.5-9.6 17.5-9.6l-22.1 1.9 12.2-29.6S92.5 20.2 85 22V9.5s-6.5 7.5-10 10C71 13.7 63.5 4.7 63.5 4.7S56.8 13 53.1 18.6C50.1 16 42 4.6 42 4.6s2 14 1.8 17.7C35.9 20.4 21.4 14 21.4 14s6.3 11.8 8.6 17.9c-4.2 0-18.4-.8-23.4-1.1l21.1 15.4-24.1 4.7S20.8 55 27.7 58L18 65.8h91.4q-3.4-2.7-6.3-5.3" style="fill:#f15a24"/><linearGradient id="a" x1="64.1" x2="64.1" y1="60.7" y2="67.8" gradientUnits="userSpaceOnUse"><stop offset="0" style="stop-color:#78c0e8"/><stop offset="1" style="stop-color:#31a0d6"/></linearGradient><path d="M48.3 45.3H80v20.5H48.3z" style="fill:url(#a)"/><path d="M120.1 54.9q.3-.7.3-1.6c0-2.5-2-4.6-4.5-4.6-2 0-3.8 1.4-4.3 3.3a4.5 4.5 0 0 0 2.3 8.7q1 .5 2.1.5a4.5 4.5 0 0 0 4.1-6.3" style="fill:#ffea5c"/><path d="M103.3 6.3a4.2 4.2 0 0 0 .3 8 4.2 4.2 0 1 0 5-5.7c-.8-2-3.2-3.1-5.3-2.3" style="fill:#5c5cff"/><path d="M19.4 49.2v-.7A3.5 3.5 0 1 0 13 50a4 4 0 1 0 3.3 6.4 4 4 0 1 0 3.2-7.2" style="fill:#45f9ff"/><ellipse cx="14.9" cy="17" rx="5" ry="4.5" style="fill:#4bff17"/><ellipse cx="113.3" cy="24.8" rx="5" ry="4.5" style="fill:#ff17c8"/><path d="M99.7 31.7c-.8-.5-1-1.7-.7-2.6q.7-2 1-4.4c.4-8.7-7.3-16-17.2-15.8q-5.3.1-9.5 2.5A14 14 0 0 0 60.4 4c-5.9.1-10.9 3.5-13 8.3a15 15 0 0 0-4.6-.7c-8 0-13.8 4.8-13.3 13.6.1 1.5 1.3 4.3 1.3 4.3s-2.4.6-4.4 3.9c-1.6 2.7-1.8 7-.4 10a10 10 0 0 0 12.8 4.4q1-.6 2-.4c.4.1 1.8 5.2 14.2 7.8 7.2 1.5 15.6-3.8 16-3.8q.8 0 1.5.6s3.3 3.8 10.7 2c7-1.6 7.7-6.4 8.3-6.6.5-.1 8.7 2.5 12.2-5.4 1.5-3.5-1-8.6-4-10.2" style="fill:#d2edf7"/><path d="M29.5 24.1c0 1.3.3 4.6 1.8 5.5q1.5 1 2.8 1c1.6.3 2.5-1.7 1.4-2.8a13 13 0 0 1-2.8-7.1c-.7-5.2 3.3-7.8 3.3-7.8s-7 2.8-6.5 11.2" style="fill:#92cbeb"/><path d="M103.7 42c1-2.4.6-5.5-1.2-7.6 0 0 1.1 3-.3 5.8-1.4 2.9-4.4 5.6-7.6 4.9-2-.5 0-3.7-2.8-8.5.2 4.5 0 14.6-13 15.5-2.4.1-8.2-2-8.5-5.4-.8-7.6 6.4-6.6 7.4-6.4 2.5.4 5.2-.7 5.6-2.6.4-1.8-.5-2.5-1.3-3.2-2.3-2-6-1.6-8.5 0-4 2.5-5.8 9.1-8.9 12.3-3.6 3.8-9.5 4.7-14.5 3.2C41.5 47.6 39 36.6 39 36.6c-1.2 2.9-.2 6.6.5 8.3-8.5 1.8-12.8-2.7-14.1-4q.1 1.2.7 2.4a10 10 0 0 0 12.8 4.4c.6-.3 1.4-.7 2-.4.4.1 1.7 5.2 14.2 7.8 7.1 1.5 15.5-3.8 16-3.8q.8 0 1.5.6s3.3 3.8 10.7 2c7-1.6 7.7-6.4 8.3-6.6.5-.1 8.7 2.5 12.2-5.4" style="fill:#78c0e8"/><path d="M67 5.4s1.4 2 1.7 3c1 3.8-1 6.4-1.5 7.4q-.6.9-.4 1.8c.2.6 1 1 1.6 1 1.8.4 3.6-.6 4.6-2.1s2.8-7.5-6-11m32 23.6q.7-2 1-4.4a14 14 0 0 0-2.8-9q1.4 2.7.7 5.8c-.5 2.6-2.2 5-4.2 6.8-2.4 2.3-.7 3.4.7 3.4 3.3 0 4.4-2.1 4.6-2.6" style="fill:#92cbeb"/><path d="M70.5 65.8v-6.7q-.2-2.1-2.5-2.3c-2.3-.2-2.5 1-2.5 2.3v6.7zm-9.9 0V55.6a1.5 1.5 0 1 0-3 0v10.2z" style="fill:#039be5"/><radialGradient id="b" cx="63.7" cy="-2088.9" r="57" gradientTransform="matrix(1 0 0 -1 0 -2026)" gradientUnits="userSpaceOnUse"><stop offset=".5" style="stop-color:#fde030"/><stop offset=".9" style="stop-color:#f7c02b"/><stop offset="1" style="stop-color:#f4a223"/></radialGradient><path d="M63.7 118.8c15.4 0 29.8-5.2 40.4-14.5a53 53 0 0 0 17.6-38.5H5.7c1.6 36.4 30.8 53 58 53" style="fill:url(#b)"/><path d="m13.5 92.9.5.7q0-.2-.3-.5zm106-27.1a52 52 0 0 1-17.4 35.5 61 61 0 0 1-40.4 14.5 59 59 0 0 1-48-22.7l.3.5 1 1.6.9 1.2 1.8 2.3 1 1 4.2 4.3 1 .9 1.7 1.4 1 .8 1.8 1.3.9.6 2.6 1.5 1 .6 2 1 1 .5 2.7 1.3q.4 0 .8.3l2.3.9 1 .3 6.2 1.7 1 .2 2.4.5.8.2 3.2.4h.7l6.7.4a61 61 0 0 0 42.4-16.4l.7-.7 1.2-1.3.8-.8 1-1.3.8-1 1.7-2.2.8-1.2.7-1.1.7-1.2.6-1.2.7-1.2.6-1.3.5-1.1.6-1.4.5-1.2.5-1.4.4-1.2.4-1.5.4-1.1.4-1.6.2-1.1.4-1.7.2-1 .3-2.9.3-2V68l.2-2.2zm0 0a52 52 0 0 1-17.4 35.5 61 61 0 0 1-40.4 14.5 59 59 0 0 1-48-22.7l.3.5 1 1.6.9 1.2 1.8 2.3 1 1 4.2 4.3 1 .9 1.7 1.4 1 .8 1.8 1.3.9.6 2.6 1.5 1 .6 2 1 1 .5 2.7 1.3q.4 0 .8.3l2.3.9 1 .3 6.2 1.7 1 .2 2.4.5.8.2 3.2.4h.7l6.7.4a61 61 0 0 0 42.4-16.4l.7-.7 1.2-1.3.8-.8 1-1.3.8-1 1.7-2.2.8-1.2.7-1.1.7-1.2.6-1.2.7-1.2.6-1.3.5-1.1.6-1.4.5-1.2.5-1.4.4-1.2.4-1.5.4-1.1.4-1.6.2-1.1.4-1.7.2-1 .3-2.9.3-2V68l.2-2.2zm2 2.2.2-2.2z" style="fill:#eb8f00"/><radialGradient id="c" cx="63.7" cy="-2088.9" r="57" gradientTransform="matrix(1 0 0 -1 0 -2026)" gradientUnits="userSpaceOnUse"><stop offset=".5" style="stop-color:#fde030"/><stop offset=".9" style="stop-color:#f7c02b"/><stop offset="1" style="stop-color:#f4a223"/></radialGradient><path d="m121.5 68 .2-2.2z" style="fill:url(#c)"/><path d="M78 105c0 5.5-6.3 8.8-13.9 8.8s-13.8-3.3-13.8-8.9S56.5 93.2 64 93.2s14 6.2 14 11.8" style="fill:#422b0d"/><circle cx="41.6" cy="75.1" r="15.5" style="fill:#fff"/><ellipse cx="41.6" cy="75.1" rx="6.7" ry="6.8" style="fill:#422b0d"/><circle cx="86.6" cy="75.1" r="15.5" style="fill:#fff"/><ellipse cx="86.6" cy="75.2" rx="6.7" ry="6.8" style="fill:#422b0d"/></svg>