<svg xml:space="preserve" width="16" height="16" viewBox="0 0 128 128"><path d="M64 3.8c-44.4.9-50 41.6-50 66.4 0 18.7 2.5 35.6 4.3 45.3.9 4.8 5 8.3 10 8.3h71.5c4.9 0 9-3.5 10-8.3 1.7-9.7 4.3-26.6 4.3-45.3 0-24.8-5.7-65.5-50.1-66.4" style="fill:#232020"/><radialGradient id="a" cx="64.2" cy="74.7" r="52.6" gradientTransform="matrix(1 0 0 1.347 0 -25.9)" gradientUnits="userSpaceOnUse"><stop offset=".8" style="stop-color:#444140;stop-opacity:0"/><stop offset="1" style="stop-color:#444140"/></radialGradient><path d="M64 3.8c-44.4.9-50 41.6-50 66.4 0 18.7 2.5 35.6 4.3 45.3.9 4.8 5 8.3 10 8.3h71.5c4.9 0 9-3.5 10-8.3 1.7-9.7 4.3-26.6 4.3-45.3 0-24.8-5.7-65.5-50.1-66.4" style="fill:url(#a)"/><radialGradient id="b" cx="59.2" cy="66.8" r="51.4" gradientTransform="matrix(0 -.958 -1.012 0 131.62 127.3)" gradientUnits="userSpaceOnUse"><stop offset=".8" style="stop-color:#444140;stop-opacity:0"/><stop offset="1" style="stop-color:#444140"/></radialGradient><path d="M19.2 71.7s3.4 52 44.9 52 44.3-51.2 44.3-51.2z" style="fill:url(#b)"/><path d="M95.8 52.2c-3.7-3.4-13.3-10.3-17.2-18.8 0 0-11.6 13.7-37.4 19-14.5 2.9-14.5 11.5-14.5 15.2s.6 15 1.4 18.2c2 7.4 4.6 11.7 10.3 11.7 6.6 0 9.8-7.9 25.6-7.9s18.7 9.3 25.6 7.9c4.4-1 6.6-3.8 9-8.3a60 60 0 0 0 2.6-22.8c-.3-5.2-.7-10-5.4-14.2" style="fill:#70534a"/><path d="m69.2 85.7-.4-.1h-10q-1.5.7-1 2.3c.4 1 2.4 3.6 6.2 3.6s5.8-2.6 6.2-3.6q.5-1.6-1-2.2" style="fill:#33251f"/><ellipse cx="43" cy="73.3" rx="6.7" ry="6.9" style="fill:#1a1717"/><ellipse cx="85.4" cy="73.3" rx="6.7" ry="6.9" style="fill:#1a1717"/><path d="M52 62.5c-1.1-1.5-3.9-3.8-9.2-3.8s-8 2.3-9.3 3.8q-.7 1.1 0 2 .6 1 2.4.5c1.1-.4 3.3-1.5 6.9-1.5s5.8 1.1 6.9 1.5q1.6.4 2.4-.5t0-2m42.4 0c-1.2-1.5-4-3.8-9.3-3.8s-8 2.3-9.3 3.8q-.6 1.1 0 2 .7 1 2.5.5c1-.4 3.2-1.5 6.8-1.5s5.8 1.1 6.9 1.5q1.7.4 2.4-.5t0-2" style="fill:#1a1717"/><path d="M64.2 107.4c5.2 0 10.9-3 13.7-5.5a1 1 0 0 0-.7-1.8h-26a1 1 0 0 0-.7 1.8c2.9 2.4 8.6 5.5 13.7 5.5" style="fill:#70534a"/></svg>