<svg xml:space="preserve" width="16" height="16" viewBox="0 0 128 128"><path d="M116 4H12a8 8 0 0 0-8 8v104a8 8 0 0 0 8 8h104a8 8 0 0 0 8-8V12a8 8 0 0 0-8-8" style="fill:#8e24aa"/><path d="M109.7 4H11.5A7.6 7.6 0 0 0 4 11.5v97.9c0 4.1 3.3 7.5 7.5 7.5h98.1c4.1 0 7.5-3.3 7.5-7.5V11.5c0-4-3.1-7.4-7.2-7.5z" style="fill:#ab47bc"/><path d="M39.7 12.9c0-2.3-1.6-3-10.8-2.7-7.7.3-11.5 1.2-13.8 4s-2.9 8.5-3 15.3c0 4.8 0 9.3 2.5 9.3 3.4 0 3.4-7.9 6.2-12.3 5.4-8.7 18.9-10.6 18.9-13.6" style="opacity:.3;fill:#fafafa"/><path d="M29.2 36.9h10.3v54.9H29.2zm22.8 0h18.6a31 31 0 0 1 15 3.4q6.3 3.4 9.8 9.7a29 29 0 0 1 3.4 14.3 29 29 0 0 1-3.4 14.4 24 24 0 0 1-9.9 9.6 31 31 0 0 1-15 3.5H52zm18.1 45q9 0 13.6-4.7 4.7-4.7 4.7-12.9t-4.7-12.9-13.6-4.7h-7.7V82z" style="fill:#fafafa"/></svg>