<svg xml:space="preserve" width="16" height="16" viewBox="0 0 128 128"><path d="m104 27.8-1.6 2.6s.8 3 6.3 4.8c5.6 2 14 1.6 14 1.6s1.8-1.1 1.1-3c-.6-2-2.2-1.3-4.5-4.3s-2.2-4.7-5.3-6-6.6-1.2-8.2.7c-1.6 2-1.8 3.6-1.8 3.6" style="fill:#616161"/><path d="M107.9 23.8c-1.8-1-5.2-6.2-6.6-9.4a10 10 0 0 0-9.9-6.5c-5.4 0-7.4 1.8-10.1 6.8L43.8 84.1s0-5.5 1.7-14 4.3-12.5 5.5-14.8q1.7-2.1 1.7-4.6c0-7-10.9-12.6-24.3-12.6S4 43.7 4 50.7q0 2.6 1.9 4.9v.1c1 1.1 7.2 9 6.6 13.6-.6 5-3.6 26.3 1 37.2s15.2 14.5 24.7 13c8.1-1.2 15.7-5.7 23.5-22.6s28.8-71.5 28.8-71.5 1.6-5.3 3.4-2.7 4.6 6.4 8.5 7.7c3.8 1.4 5-1.6 5.4-2.3.6-.7 1.8-3.3 0-4.3" style="fill:#ffca28"/><ellipse cx="28.4" cy="48.8" rx="17" ry="7" style="fill:#dd7341"/><circle cx="57.3" cy="70.2" r="5.8" style="fill:#fb8c00"/><circle cx="63.5" cy="57" r="5.6" style="fill:#fb8c00"/><circle cx="69.6" cy="43.8" r="5.4" style="fill:#fb8c00"/><circle cx="75.8" cy="30.6" r="5.2" style="fill:#fb8c00"/><path d="M26.2 62.6q.6 0 1 .4.9.6.8 1.8c.4 4.7-1.7 9.2-3.3 13.7Q20.9 88.8 21 99.8c.2 5 1.4 10.3 4.6 14 .3.2-.1.7-.5.5-4-2.5-6.5-7.3-7.8-12Q15 94.9 15.7 87c.3-4.8 1.4-9.5 1.6-14.3q0-2.7-.3-5.3a24 24 0 0 0-1.5-5q-.3-1.4 1-1.3 2 .1 3.6.6z" style="fill:#fff9c4"/></svg>