<svg xml:space="preserve" width="16" height="16" viewBox="0 0 128 128"><path d="M51.6 79.7V19.6C51.6 15 51.4 4 64.4 4S77 15.5 77 19.6l-.3 60.2s11.6 6.4 11.2 21.6c-.4 13.6-10.6 22.7-24.8 22.5a23.7 23.7 0 0 1-11.5-44.2" style="fill:#a8d0d6"/><path d="M68.8 47.4 58 43.2l.1-23.3c.2-3 1-7 6.6-6.8 5.7 0 6.2 4.2 6.4 7.2l-.2 23z" style="fill:#fff"/><path d="M68.4 87S48 94.6 48 99c.1 7.3 3.7 16.8 15.7 16.9 10.2.1 15.9-6.3 15.7-16.3C79.2 87.6 70 85 70 85z" style="fill:#dd0b2b"/><path d="M58.7 42.6h12.2l-.1 42.7s7.8 7.7 4 18.2c-3.3 8.9-14.6 11-21.6 5.5-8-6.3-5.2-15-2.2-19.4s7.5-5 7.5-5z" style="fill:#e7523c"/><path d="m62.7 42.6-.2 49.5c0 3.3.1 8-5.6 7.9s-6.3-6.5-3.8-8.9c1.9-1.8 4.6-1.4 4.6-1.4l.3-47z" style="fill:#fed0be"/><path d="M58.5 17.6c-3.2 0-5.2-.3-5.3 2.4s2 2.5 5.3 2.5c3 0 5.2.2 5.2-2.4 0-2.9-2.1-2.5-5.2-2.5m-.2 13.6c-3.4 0-5-.2-5.1 2.3-.1 2.8 2 2.5 5.1 2.5s5.3.4 5.4-2.2c0-2.7-1.7-2.6-5.4-2.6m.2 13.3c-3.3 0-5.3-.3-5.3 2.4-.1 2.6 2 2.5 5.3 2.5 3 0 5.1.2 5.1-2.4 0-2.9-2-2.5-5.1-2.5m-.1 13.7c-3.4 0-5-.1-5.1 2.4 0 2.7 2 2.5 5 2.5 3.1 0 5.5 0 5.4-2.2 0-2.8-1.7-2.7-5.3-2.7m.2 14.1c-3.2 0-5.2-.3-5.3 2.4s2.1 2.4 5.3 2.4 5.2.2 5.2-2.4c0-2.8-2.1-2.5-5.2-2.5" style="fill:#4b4a51"/></svg>