<svg xml:space="preserve" width="16" height="16" viewBox="0 0 128 128"><path d="M99 82.7c-.8-2.1.5-2.7 3.2-5.1a17 17 0 0 0 4.8-20c-2.3-5.3-6.1-7.4-6.1-7.4L99.7 53h-71l-1.2-3s-3.8 2.2-6.1 7.5a17 17 0 0 0 4.8 20c2.7 2.4 4 3 3.1 5-1 2.4-4.8 2.2-4.8 2.2s.7 2 2.9 3q3 1 5.6 1.1l.9.5c5 4.8 9 6.3 21.3 6.7h18c12.4-.3 16.4-1.8 21.4-6.6l.9-.5c1.5 0 3.7-.3 5.6-1.2 2.2-1 2.9-3 2.9-3s-3.9.3-4.8-2" style="fill:#232020"/><radialGradient id="a" cx="93.7" cy="45.3" r="23.5" gradientTransform="rotate(-8.2 512.8 117.5)scale(1 .491)" gradientUnits="userSpaceOnUse"><stop offset=".7" style="stop-color:#444140;stop-opacity:0"/><stop offset="1" style="stop-color:#444140"/></radialGradient><path d="M63.9 97.5v-9.4l28.6-2.3 2.2 3.5-3.1 2.6a21 21 0 0 1-10.7 3.6z" style="fill:url(#a)"/><radialGradient id="b" cx="77.9" cy="46.1" r="6.5" gradientTransform="rotate(155 83.8 60.54)scale(1 .742)" gradientUnits="userSpaceOnUse"><stop offset=".3" style="stop-color:#444140"/><stop offset="1" style="stop-color:#444140;stop-opacity:0"/></radialGradient><path d="M93.7 85.7c-6.3-8.4 9.8-9.4 9.8-9.4-2.3 2.4-4.8 3.7-4.7 5.3.3 3.6 5 3.2 5 3.2s-5.7 5.2-10.1 1" style="fill:url(#b)"/><radialGradient id="c" cx="87.7" cy="58.9" r="23.3" gradientTransform="rotate(-94.3 98.36 57.8)scale(1 .833)" gradientUnits="userSpaceOnUse"><stop offset=".7" style="stop-color:#444140;stop-opacity:0"/><stop offset="1" style="stop-color:#444140"/></radialGradient><path d="M103.7 76c-.6.7-17.5-5.7-20.3-13.6q-1-2.3-1.2-4.8-.2-2.1.9-3.9c.9-1.3 20.1-1.7 20.1-1.7 8.3 9.1 5.5 19.2.5 24" style="fill:url(#c)"/><radialGradient id="d" cx="93.7" cy="45.3" r="23.5" gradientTransform="rotate(-171.8 72.54 32)scale(1 -.491)" gradientUnits="userSpaceOnUse"><stop offset=".7" style="stop-color:#444140;stop-opacity:0"/><stop offset="1" style="stop-color:#444140"/></radialGradient><path d="M64.5 97.5v-9.4l-28.6-2.3-2.3 3.5 3.2 2.6a21 21 0 0 0 10.6 3.6z" style="fill:url(#d)"/><radialGradient id="e" cx="77.9" cy="46.1" r="6.5" gradientTransform="rotate(25 -208.06 -88.3)scale(1 -.742)" gradientUnits="userSpaceOnUse"><stop offset=".3" style="stop-color:#444140"/><stop offset="1" style="stop-color:#444140;stop-opacity:0"/></radialGradient><path d="M34.7 85.7c6.2-8.4-9.9-9.4-9.9-9.4 2.3 2.4 4.8 3.7 4.7 5.3-.2 3.6-5 3.2-5 3.2s5.8 5.2 10.2 1" style="fill:url(#e)"/><radialGradient id="f" cx="87.7" cy="58.9" r="23.3" gradientTransform="rotate(-85.7 126.5 36.87)scale(1 -.833)" gradientUnits="userSpaceOnUse"><stop offset=".7" style="stop-color:#444140;stop-opacity:0"/><stop offset="1" style="stop-color:#444140"/></radialGradient><path d="M24.6 76c.6.7 17.5-5.7 20.4-13.6q.9-2.3 1.1-4.8.1-2.1-.8-3.9C44.3 52.4 25 52 25 52c-8.3 9.1-5.5 19.2-.5 24" style="fill:url(#f)"/><linearGradient id="g" x1="64" x2="64" y1="31.1" y2="4" gradientTransform="matrix(1 0 0 -1 0 128)" gradientUnits="userSpaceOnUse"><stop offset="0" style="stop-color:#f78c1f"/><stop offset=".5" style="stop-color:#f37f21"/><stop offset="1" style="stop-color:#ed6d23"/></linearGradient><path d="M114.6 121.3v2.7H13.4v-2.7C13.4 104 39.2 97 64 97a105 105 0 0 1 29.3 4l3.5 1.3c10.6 4 17.8 10.4 17.8 19.1" style="fill:url(#g)"/><path d="M64 91.1h-8.8v9.8a8 8 0 0 0 8 8h1.6a8 8 0 0 0 8-8V91z" style="fill:#3c2b24"/><path d="M70.9 93.1v7.8a6 6 0 0 1-6 6h-1.7a6 6 0 0 1-6-6V93h13.6m2-2H55.2v9.8a8 8 0 0 0 8 8h1.6a8 8 0 0 0 8-8z" style="fill:#d18100"/><path d="M90.6 52.5H37.4c-5.7 0-10.4 5-10.4 11.1s4.7 11.1 10.4 11.1h53.2c5.8 0 10.5-5 10.5-11s-4.7-11.2-10.5-11.2" style="fill:#3c2b24"/><path d="M90.6 54.5c4.7 0 8.4 4.1 8.4 9.1s-3.7 9.1-8.4 9.1H37.4c-4.7 0-8.4-4-8.4-9s3.7-9.2 8.4-9.2zm0-2H37.4c-5.7 0-10.4 5-10.4 11.1s4.7 11.1 10.4 11.1h53.2c5.8 0 10.5-5 10.5-11 0-6.2-4.7-11.2-10.5-11.2" style="fill:none"/><path d="M64 14.2c-17 0-32.6 18.1-32.6 44.2 0 26 16.1 38.8 32.6 38.8s32.7-12.9 32.7-38.8c0-26-15.7-44.2-32.7-44.2" style="fill:#70534a"/><path d="M64 16.2c7.7 0 15.4 4.2 21.1 11.5a50 50 0 0 1 9.6 30.7c0 11.5-3.4 21.1-9.7 27.7-5.5 5.9-13 9-21 9s-15.5-3.1-21-9a39 39 0 0 1-9.6-27.7 50 50 0 0 1 9.5-30.7A27 27 0 0 1 64 16.2m0-2c-17 0-32.6 18.1-32.6 44.2 0 26 16.1 38.8 32.6 38.8s32.7-12.9 32.7-38.8c0-26-15.7-44.2-32.7-44.2" style="fill:none"/><path d="M55.2 51.6c-1-1.2-3-3-7.2-3s-6.3 1.8-7.2 3q-.5 1 0 1.6t1.9.4c.8-.3 2.5-1.2 5.3-1.2s4.5.9 5.3 1.2q1.5.3 2-.4t0-1.6m31.9 0c-.9-1.2-3-3-7.2-3s-6.3 1.8-7.2 3q-.5 1 0 1.6t1.9.4c1.5-.2 2.5-1.2 5.3-1.2s4.5.9 5.3 1.2 1.7 0 2-.4q.4-.7 0-1.6" style="fill:#1a1717"/><ellipse cx="48" cy="60.7" rx="4.8" ry="5" style="fill:#1a1717"/><ellipse cx="80" cy="60.7" rx="4.8" ry="5" style="fill:#1a1717"/><path d="M67.8 69.7h-7.5q-1.1.4-.7 1.6c.3.7 1.6 2.6 4.4 2.6s4.1-2 4.4-2.6q.4-1.1-.6-1.6" style="fill:#33251f"/><path d="M72.2 77.6a25 25 0 0 1-16.4 0c-1.8-1-3.6.5-2.8 2.1.7 1.6 6.2 5.3 11 5.3s10.3-3.7 11-5.2c.8-1.7-1-3.3-2.8-2.2" style="fill:#1a1717"/><path d="M31.4 34.9c-3 6-2 17.7-2 17.7-.7 10.8 2.7 16 2.7 16S36.3 50 36 47.3c0 0 7.8-1.5 16.6-6.5 5.9-3.4 10-7.4 16.6-9C79.3 29.7 81.6 37 81.6 37s9.4-1.8 12.2 11.3c1.2 5.4 1.7 14.3 2.3 19.8 0-.5 3.5-6.4 4.1-12.4.2-2.2 1.7-7.3-1.3-14.2-3.5-8.3.2-27.3-28.6-30.5s-36 18.2-38.9 24" style="fill:#232020"/><path d="M64.2 16.8H64a6 6 0 0 1-5.9-6v-.4a6 6 0 0 1 12 0v.5a6 6 0 0 1-6 5.9" style="fill:#ff9800"/><path d="M64.2 16.8H64a6 6 0 0 1-5.9-6v-.4a6 6 0 0 1 12 0v.5a6 6 0 0 1-6 5.9" style="fill:#e59600"/><linearGradient id="h" x1="64" x2="64" y1="120.4" y2="74.4" gradientTransform="matrix(1 0 0 -1 0 128)" gradientUnits="userSpaceOnUse"><stop offset="0" style="stop-color:#f44336"/><stop offset=".4" style="stop-color:#eb3e34"/><stop offset="1" style="stop-color:#d32f2f"/></linearGradient><path d="M101.3 44.8c0-22.3-10.2-37.2-37.3-37.2s-37.3 15-37.3 37.2q0 4.5.8 8.8S34.8 42.1 64 42.1s36.5 11.5 36.5 11.5q.8-4.2.8-8.8" style="fill:url(#h)"/><linearGradient id="i" x1="64" x2="64" y1="117.4" y2="98.5" gradientTransform="matrix(1 0 0 -1 0 128)" gradientUnits="userSpaceOnUse"><stop offset="0" style="stop-color:#f78c1f"/><stop offset=".5" style="stop-color:#f37f21"/><stop offset="1" style="stop-color:#ed6d23"/></linearGradient><path d="M64 7.6S42.7 13.8 42.7 43c0 0 8-4.6 21.2-4.6S85.3 43 85.3 43C85.3 13.8 64 7.6 64 7.6" style="fill:url(#i)"/><linearGradient id="j" x1="63.8" x2="63.8" y1="99.8" y2="74.2" gradientTransform="matrix(1 0 0 -1 0 128)" gradientUnits="userSpaceOnUse"><stop offset="0" style="stop-color:#757575"/><stop offset="0" style="stop-color:#747474"/><stop offset=".1" style="stop-color:#646363"/><stop offset=".3" style="stop-color:#585858"/><stop offset=".5" style="stop-color:#525151"/><stop offset="1" style="stop-color:#504f4f"/></linearGradient><path d="M102.5 38.3C100 36 89.2 28.2 64 28.2s-36 7.7-38.7 10.1c-1.5 1.4-1.5 3.2-1.5 4.4l.3 7c0 1 .3 2.6 1.9 3.5a5 5 0 0 0 4.2.2q3.1-1.3 5.7-3.2c4.4-3 10.3-6 28.2-6s23.7 3 28.2 6q2.5 1.8 5.6 3.2a5 5 0 0 0 4.3-.2c1.5-.9 1.6-2.5 1.7-3.6v-6.9c0-1.2.2-3-1.3-4.4" style="fill:url(#j)"/><linearGradient id="k" x1="60" x2="68.2" y1="96.2" y2="87.9" gradientTransform="matrix(1 0 0 -1 0 128)" gradientUnits="userSpaceOnUse"><stop offset="0" style="stop-color:#ff0"/><stop offset="0" style="stop-color:#fffb00"/><stop offset=".1" style="stop-color:#ffea00"/><stop offset=".3" style="stop-color:#ffdf00"/><stop offset=".5" style="stop-color:#ffd800"/><stop offset="1" style="stop-color:#ffd600"/></linearGradient><path d="M65.4 41.3h-2.5a4 4 0 0 1-4-4v-2.8a4 4 0 0 1 4-4h2.4a4 4 0 0 1 4 4v2.8a4 4 0 0 1-4 4" style="fill:url(#k)"/><linearGradient id="l" x1="81.6" x2="81.6" y1="29" y2="5.1" gradientTransform="matrix(1 0 0 -1 0 128)" gradientUnits="userSpaceOnUse"><stop offset="0" style="stop-color:#f44336"/><stop offset=".4" style="stop-color:#eb3e34"/><stop offset="1" style="stop-color:#d32f2f"/></linearGradient><path d="m93.3 101-5.6-1.5a20 20 0 0 1-2.8 5q-4.6 6.2-13 8.1a7 7 0 0 0-5.4 6.9v4.5h30.3v-21.8z" style="fill:url(#l)"/><linearGradient id="m" x1="45.6" x2="45.6" y1="29" y2="5.1" gradientTransform="matrix(1 0 0 -1 0 128)" gradientUnits="userSpaceOnUse"><stop offset="0" style="stop-color:#f44336"/><stop offset=".4" style="stop-color:#eb3e34"/><stop offset="1" style="stop-color:#d32f2f"/></linearGradient><path d="M55.3 112.6q-8.4-2-13-8a20 20 0 0 1-2.8-5.1 68 68 0 0 0-9.1 2.7V124h30.3v-4.5a7 7 0 0 0-5.4-6.9" style="fill:url(#m)"/><path d="m62.2 110.4-13.3-5.5a3 3 0 0 1-1.9-2.8v-5.4a3 3 0 0 1 4.2-2.8l12 4.9q1 .4 1 1.3v9c0 1-1 1.7-2 1.3m3.8 0 13.3-5.5a3 3 0 0 0 1.9-2.8v-5.4a3 3 0 0 0-4.2-2.8l-12 4.9q-1 .4-1 1.3v9c0 1 1 1.7 2 1.3" style="fill:#da6727"/></svg>