<svg xml:space="preserve" width="16" height="16" viewBox="0 0 128 128"><circle cx="63.9" cy="64" r="60" style="fill:#f77e00"/><circle cx="60" cy="63.1" r="56.1" style="fill:#ff9800"/><path d="M24 29.7c4.4-7.1 14-13 24-14.8q3.9-.8 7.1.2c1.6.6 3 2.1 2 3.8-.7 1.4-2.6 2-4 2.5a45 45 0 0 0-23 17.4c-2 3-5 11.3-8.8 9.2-3.9-2.3-3-9.5 2.6-18.3" style="opacity:.65;fill:#ffbd52"/><path d="M102.2 38h-6.8a2 2 0 0 0-2 2v55.4c0 5.4-1.4 8.3-5.2 9.5a57 57 0 0 1-17.8 1.6 2 2 0 0 1-1.9-1.4q-.7-2.4-1.8-4.7a2 2 0 0 1 2-2.8c5.7.2 11.3.1 13.2.1s2.6-.6 2.6-2.5V39.9a2 2 0 0 0-2-2h-57a2 2 0 0 1-2-2v-4.5c0-1.1 1-2 2-2h76.6a2 2 0 0 1 2 2v4.4a2 2 0 0 1-1.8 2.2M40.7 86v3.1a2 2 0 0 1-2 2h-4.2a2 2 0 0 1-2-2V51.8c0-1.1 1-2 2-2H68a2 2 0 0 1 2 2V82a2 2 0 0 1-2 2H42.7a2 2 0 0 0-2 2m0-26.2V74c0 1.1 1 2 2 2h17a2 2 0 0 0 2-2V59.8a2 2 0 0 0-2-2h-17a2 2 0 0 0-2 2" style="fill:#fafafa"/><path d="M24 29.7c4.4-7.1 14-13 24-14.8q3.9-.8 7.1.2c1.6.6 3 2.1 2 3.8-.7 1.4-2.6 2-4 2.5a45 45 0 0 0-23 17.4c-2 3-5 11.3-8.8 9.2-3.9-2.3-3-9.5 2.6-18.3" style="opacity:.3;fill:#ffbd52"/></svg>