<svg xml:space="preserve" width="16" height="16" viewBox="0 0 128 128"><radialGradient id="a" cx="63.6" cy="512.9" r="57" gradientTransform="translate(0 -450)" gradientUnits="userSpaceOnUse"><stop offset=".5" style="stop-color:#fde030"/><stop offset=".9" style="stop-color:#f7c02b"/><stop offset="1" style="stop-color:#f4a223"/></radialGradient><path d="M63.6 118.8c-27.9 0-58-17.5-58-55.9S35.7 7 63.6 7c15.5 0 29.8 5.1 40.4 14.4 11.5 10.2 17.6 24.6 17.6 41.5s-6.1 31.2-17.6 41.4a61 61 0 0 1-40.4 14.5" style="fill:url(#a)"/><path d="M111.5 29.7a57 57 0 0 1 8.1 30.2c0 16.9-6.1 31.2-17.6 41.4a61 61 0 0 1-40.4 14.5 59 59 0 0 1-48.2-23 58 58 0 0 0 50.2 26c15.4 0 29.8-5.2 40.4-14.5a54 54 0 0 0 17.6-41.4q-.1-19.2-10.1-33.2" style="fill:#eb8f00"/><path d="M64.4 83.3q-5.4 0-10.5-1.8a8 8 0 0 0-9.2 11.9q6.6 10 19.7 10.2c13.1.2 15.4-3.6 19.7-10.2a8 8 0 0 0-9.2-11.9q-5.2 1.8-10.5 1.8" style="fill:#422b0d"/><radialGradient id="b" cx="66.2" cy="-1690.5" r="19.5" gradientTransform="matrix(.98 0 0 .88 -30.72 1552.71)" gradientUnits="userSpaceOnUse"><stop offset="0" style="stop-color:#ed7770"/><stop offset=".9" style="stop-color:#ed7770;stop-opacity:0"/></radialGradient><ellipse cx="34.2" cy="72.7" rx="17.5" ry="16.5" style="opacity:.8;fill:url(#b)"/><radialGradient id="c" cx="123.1" cy="-2397.6" r="19.5" gradientTransform="matrix(1 0 0 -1 0 130)" gradientUnits="userSpaceOnUse"><stop offset="0" style="stop-color:#ed7770"/><stop offset=".9" style="stop-color:#ed7770;stop-opacity:0"/></radialGradient><ellipse cx="94.6" cy="72.7" rx="17.5" ry="16.5" style="opacity:.8;fill:url(#c)"/><path d="M107.6 34.4c-8.2-2.3-14.2 4.4-14.2 4.4s-.7-7.6-7.8-10c-8.4-3-17.3 1.7-17.8 13.6-.6 13.6 17.4 31.4 17.4 31.4s22.3-6 29.6-18.7c6-10.3-1-19-7.2-20.7" style="fill:#f44336"/><path d="M107.6 34.4q-1.5-.4-3.1-.4 4.5 3 6.7 8c1.4 3.3 1.8 7.7-.9 13-5.8 11.3-23.7 18.3-25 18.8 1.6-.4 22.5-6.4 29.5-18.6 6-10.4-1-19-7.2-20.8M93.3 40q0-1.5-.4-3.1-1-4.6-5-7-2.7-1.5-5.8-2s3 1 5.1 5.1q1.7 3.4 2 7-.1 1.4.4 2.6a2 2 0 0 0 2.1 1.2c1.4-.4 1.7-2 1.6-3.8" style="fill:#c62828"/><path d="M73.9 35.2c1.9-2.3 5-4.5 7.9-2.5 1.5 1.1 1.6 4.2-.3 5.6-3.3 2.4-3.4 4-3.8 5.2-.4 1.6-.7 3.4-2.1 4.2s-2.7 0-3.4-2.2c-1.3-3.5-.6-7.4 1.7-10.3" style="fill:#ff847a"/><path d="M40.7 28.6c-8 2.6-9.4 11.5-9.4 11.5s-4.8-6-12-4C10.7 38.3 6 47 12 57.3 19.1 69 44 73.8 44 73.8s15.2-17.3 14.2-32a13.8 13.8 0 0 0-17.5-13.2" style="fill:#f44336"/><path d="M40.7 28.6q-1.5.4-2.8 1.3 5.4 0 10 3c3 2 5.8 5.4 6.5 11.3 1.5 12.6-9.5 28.4-10.4 29.6 1.1-1.3 15.1-17.9 14.2-32a13.8 13.8 0 0 0-17.5-13.2M32 41.2l-2.1-2.4q-3.3-3.1-8-3-3 0-5.9 1.5s3-.9 7 1.4q3.3 1.9 5.5 4.8.7 1.1 1.9 2a2 2 0 0 0 2.4-.3c.9-1 .2-2.7-.8-4" style="fill:#c62828"/><path d="M13.2 48q0-1.2.4-2.5.7-2.5 3.2-3.7c1.6-.5 3.7-.1 4.5 1.4.7 1.3.2 3-.2 4.5q-.6 2.6-.6 5.2-.2 2.4-2.6 2.7c-1.3 0-2.4-1.2-3.2-2.4a9 9 0 0 1-1.5-5.2" style="fill:#ff847a"/></svg>