<svg xml:space="preserve" width="16" height="16" viewBox="0 0 128 128"><path d="m12.8 36.2-4.1 4.7c-.7.9-1 2.5 0 3.6 1.2 1.2 3.7 1 4.6 0l4.8-4.7z" style="fill:#f37eaa"/><path d="M38.1 94.4V106c0 2.4-1 9.1-1.4 10.7-1 5 3 8 7.8 6.7 4-1.1 6.5-3.2 7-7.7.6-5.8.9-15 .9-17.3v-8.5zM67 90.3l-8 4.1s.3 14.5.1 17c-.2 2.6-1.3 6.7-1.4 8.7s-.1 5.3 5.5 5.7c5.7.4 9-4 9.8-7.8.6-3.8 2.3-25.8 2.3-25.8zm26-19.1-4.5 6.7s4 3.5 5.7 6.8c1.7 3.4 1.2 12 1.1 13.9s.2 7.3 6.7 7.3c7.2 0 6-9.3 6-10.7 0-4.1-.3-11.2-1.9-13.5-1.5-2.2-2.3-4.8-3.4-7-1.9-4-3.1-7.6-3.1-7.6z" style="fill:#878789"/><linearGradient id="a" x1="11.7" x2="59.9" y1="43.3" y2="37.4" gradientUnits="userSpaceOnUse"><stop offset=".2" style="stop-color:#a8a8a8"/><stop offset="1" style="stop-color:#8a8a8c"/></linearGradient><path d="M38.1 19.8s.2 2.3-1 3.5c-1.3 1.3-5.5 1.4-12.3 1.7-6 .3-13.6 0-13.6 0s-2.4 6.5.3 10.9c3.9 6.3 7.4 7.5 16.5 9.3 5.6 1.1 7.6 2 8 3.3s-.3 9.2-.3 9.2l26.6-.3L55.7 18z" style="fill:url(#a)"/><path d="M9.1 24.8c-1.3 2.2.6 8.5 1.5 8.7 2.1.4 7.4-6.8 6.3-8.2-.5-.7-7-1.7-7.8-.5" style="fill:#494949"/><circle cx="38" cy="32.6" r="3" style="fill:#060405" transform="rotate(-15.6 38.03 32.63)"/><path d="M55.1 91.7s-5.4 5.8-14.4 5.3c-7.3-.3-11.6-5-11.9-8.4-.2-3.5 1.6-5.3 1.6-5.3s-4-1.6-4-6.7 3.2-6.5 3.2-6.5-4.8-2.7-3-9.5 8-5.7 11.1-5.4c4.8.5 13.7 0 13.7 0l17-4.1 5.8-10.6S80.1 34.4 90 36c12.2 2 13.9 12 14 18.9 0 7-1 22.4-11.7 23.7-5 .6-7.4-2.6-7.4-2.6l-5 5.8s4.6 15.6-12.6 15.8c-9 .1-12.2-5.8-12.2-5.8M38 99.4s-4.4 2.3-4.5 7.6c0 4.3 2.2 9 9 10.3 8.7 1.7 12.5-4.5 12.5-4.5s2.3 5.8 9.6 7c7.9 1.3 13.6-2.4 14.1-10.4.4-6-4-8-4-8s-.8 5.5-9.2 4.3c-6-.8-6.4-5.8-6.4-5.8s-1 .3-1.7 1l-1.5 1.6s-.8-1.4-1.6-2c-.7-.7-1.9-1.3-1.9-1.3s-.6 5.7-7.6 5.4c-7.5-.4-6.7-5.2-6.7-5.2m55.5-15.8s-3.1 1.3-2.2 7.6c.7 4.8 5.3 7.5 10.5 7.9 3.2.2 7-1 9.4-4.2a9.4 9.4 0 0 0-2.5-13.8c-1.5-1-3.5-1-3.5-1s.3 5-5 5.7-6.7-2.2-6.7-2.2" style="fill:#dfdfdf"/><path d="M43.2 70c-.2 2.4 2.2 4 0 5.2-1.8 1-4.3-1-4.2-5.3 0-3.3 3.4-5.7 4.7-4.2 1.5 1.7-.4 2.4-.6 4.3m8.9 7.1c-2.6-1.6-4.3 2.8-3.5 5.2 1 3.1 4.3 4.6 5.6 3 1.3-1.8-1.6-3-1.9-4.5-.2-1.4 1.4-2.6-.3-3.7m-12.5 1.1c-2 .2-3 2.8-1.5 5.4 1.4 2.5 4.5 3 5.3 1.8 1-1.6-1-2.2-2-3.8-.9-1.4.2-3.5-1.8-3.4" style="fill:#fff"/><path d="M75.4 40.7c1 .8 3.6 3-.3 8.3-3.1 4.3-10.6 8.4-20.8 7.8-5.5-.4-6.9-2.5-6.3-4.4s13.6-8.8 13.6-8.8z" style="fill:#838587"/><linearGradient id="b" x1="55.9" x2="63.3" y1="22.5" y2="51.9" gradientUnits="userSpaceOnUse"><stop offset=".3" style="stop-color:#a8a8a8"/><stop offset=".9" style="stop-color:#e0e0e1"/></linearGradient><path d="M59.7 23.8s2.2.6 4 3c2 2.9 1 4.3 3.5 7.6s9.1 6 8.8 7.1c0 .4-3.4 7.3-11.7 10s-16 3-16.2 1.4c0-.6.8-8.9.9-15.3 0-4-1-13.2-1-13.2z" style="fill:url(#b)"/><path d="M69.2 50H69c-.1 0-3.2-.8-4-3.3a10 10 0 0 1-.3-4q.3-1.5-.2-3.2c-.8-2-1.8-2.6-3-3.4q-1.2-.6-2.3-1.9c-2.5-3.1-1.2-7.8-1.1-8a1 1 0 0 1 1.3-.7q.8.3.7 1.3s-1 3.8.7 6.1q.8.9 1.8 1.4a8 8 0 0 1 3.8 4.5q.7 2.4.4 4.1-.1 1.4.2 3.2c.5 1.4 2.5 2 2.5 2q1 .1.8 1.2a1 1 0 0 1-1 .8m-10.1 3.7-.7-.2s-2-1.7-2.4-4.3a7 7 0 0 1 .3-3.4q.6-1.6.3-4c-.3-1.6-1.1-2.4-2.2-3.5q-1.3-1.1-2.5-3.3c-1.7-3.5.2-8.8.2-9a1 1 0 0 1 1.4-.7q.8.4.6 1.3c-.5 1.4-1.4 5.3-.3 7.5q.8 1.7 2 2.7a8 8 0 0 1 2.9 4.7q.4 3.1-.4 4.9-.4 1.3-.3 2.4c.4 2 1.8 3.1 1.8 3.1q.6.7.1 1.5z" style="fill:#a9a9a9"/><path d="M102.2 29.7s1.4 4 .1 6.7c-1.5 3.4-4.6 4.2-4.6 4.2l2.3 5.6s4.5-2.3 7.2-7.8c2.3-4.8.9-9.1.9-9.1z" style="fill:#dfdfdf"/><radialGradient id="c" cx="106" cy="3" r="27.3" gradientUnits="userSpaceOnUse"><stop offset=".7" style="stop-color:#dfdfdf"/><stop offset=".7" style="stop-color:#dadada"/><stop offset=".9" style="stop-color:#cbcbcb"/><stop offset="1" style="stop-color:#b2b2b2"/><stop offset="1" style="stop-color:#aeaeae"/></radialGradient><path d="M105.2 10.3c-9.6-.4-12.8 9.5-11.5 14.8a12.8 12.8 0 0 0 18.6 7.6c7.8-4.1 6-13.9 4.2-16.6-1.4-2-3.3-5.5-11.3-5.8" style="fill:url(#c)"/><path d="M37.5 21s.1 1-.1 1.6.7 1.6 1.2 2c.5.5 3.3 2.6 10 2.7 9.2.1 12.2-3 12.2-3l-.5-3.7z" style="fill:#828282"/><radialGradient id="d" cx="49.5" cy="-4.9" r="29.1" gradientUnits="userSpaceOnUse"><stop offset=".7" style="stop-color:#dfdfdf"/><stop offset=".7" style="stop-color:#dadada"/><stop offset=".9" style="stop-color:#cbcbcb"/><stop offset="1" style="stop-color:#b2b2b2"/><stop offset="1" style="stop-color:#aeaeae"/></radialGradient><path d="M50 1.9c-6.9 0-17 3.8-16.6 12s6.6 11 15.5 11.5 18-1.7 18.5-11.5c.5-9.7-10.1-12-17.4-12" style="fill:url(#d)"/></svg>