<svg xml:space="preserve" width="16" height="16" viewBox="0 0 128 128"><path d="M97.1 62.1H32c-10 0-18 8.2-18 18.3v4.7c0 7.2 6.7 23 22.7 23 16.1 0 18.7-9.5 21.4-13.9s2.5-5 6.5-5 3.8.6 6.5 5 5.3 13.9 21.4 13.9S115 92.3 115 85v-4.7c0-10-8-18.3-17.9-18.3" style="opacity:.76;fill:#94d1e0"/><path d="M15.5 35.1c2.8-3.4 7-4.6 12.8-5.7 12-2.4 25 2 37.3 1.9 6.9-.2 13.4-3.2 20-5.4s16.5-1.4 27.5 6.4" style="fill:none;stroke:#37474f;stroke-width:8.734;stroke-miterlimit:10"/><path d="M99.4 21.2s9.5 8.8 13.5 20.3c2.6 7.2 2.5 19.1 2.5 19.1s4.3 6 4.3 5.8 5.5-17.5 0-31.7c-4.2-11-20.3-13.5-20.3-13.5m-63.8 3.2s-13.6 6-18.5 17c-4.7 10.8-6 22-6 22s-3.7 2.2-3.7 2S2 50 9.1 36.5c7.6-14.1 26.5-12.1 26.5-12.1" style="fill:#2f7889"/><path d="M117 58.1a20 20 0 0 0-21-12.5c-.2 0-19.4 2.3-31.5 2.3-12 0-31.3-2.3-31.5-2.3a20 20 0 0 0-21 12.5H8a2 2 0 0 0-2 2v9.7q.2 1.8 2 2h3c.6 4.5 2.9 10.5 2.9 10.5-.6 9 5.2 25.3 22.6 25.8 16.1 0 18.7-9.5 21.4-13.9s2.5-5 6.5-5 3.8.6 6.5 5 5.3 13.9 21.4 13.9c14.3 0 21-12.6 22.4-20.4a58 58 0 0 0 3.8-15.9h1.1q1.9-.2 2-2v-9.6q-.1-1.9-2-2zm-6.5 29.4c-1.1 6.2-6.6 16.3-18.1 16.3S78 98.6 75.7 94l-1.9-3.4c-2.4-4-3.9-5.7-9.3-5.7s-7 1.6-9.3 5.7l-2 3.4c-2.3 4.6-5 9.8-16.5 9.8s-17-10.1-18.2-16.3c-.4-1.6-.2-5.4-.2-7 0-7.8 6.1-14 13.6-14h65.2c7.5 0 13.7 6.2 13.7 14 0 0 .4 4.3-.3 7" style="fill:#bdbdbd"/><path d="M97.1 66.6c7.4 0 13.5 6.2 13.5 13.8v4.7c0 5.5-5.3 18.5-18.2 18.5-11.4 0-14-5-16.4-9.6l-1.2-2-.8-1.4c-2.4-4.2-4-5.9-9.5-5.9s-7.1 1.7-9.5 5.9l-.8 1.3L53 94c-2.3 4.5-5 9.6-16.4 9.6-13 0-18.1-13-18.1-18.5v-4.7c0-7.6 6-13.8 13.4-13.8zm0-4.5H32c-10 0-18 8.2-18 18.3v4.7c0 7.2 6.7 23 22.7 23 16.1 0 18.7-9.5 21.4-13.9s2.5-5 6.5-5 3.8.6 6.5 5 5.3 13.9 21.4 13.9S115 92.3 115 85v-4.7c0-10-8-18.3-17.9-18.3m0 4.6c7.4 0 13.5 6.2 13.5 13.8v4.7c0 5.5-5.3 18.5-18.2 18.5-11.4 0-14-5-16.4-9.6l-1.2-2-.8-1.4c-2.4-4.2-4-5.9-9.5-5.9s-7.1 1.7-9.5 5.9l-.8 1.3L53 94c-2.3 4.5-5 9.6-16.4 9.6-13 0-18.1-13-18.1-18.5v-4.7c0-7.6 6-13.8 13.4-13.8zm0-4.5H32c-10 0-18 8.2-18 18.3v4.7c0 7.2 6.7 23 22.7 23 16.1 0 18.7-9.5 21.4-13.9s2.5-5 6.5-5 3.8.6 6.5 5 5.3 13.9 21.4 13.9S115 92.3 115 85v-4.7c0-10-8-18.3-17.9-18.3" style="fill:#c9e3e6"/><path d="M22.8 61.4c2.7-1.5 6-2 8.3-2 1.3 0 1.2-1.4.8-2.5l-1.7-5c-.7-1.8-1.8-1.5-2.3-1.4-3.4.4-5.1 1.5-6.4 2.4-.4.4-1.3.5-1.3 2.5q0 3.1.3 5.4.2 1.9 2.3.6" style="opacity:.61;fill:#fff"/><path d="M21 51q.1-.4.5-.6 2.6-1.6 5.6-2.1" style="opacity:.56;fill:none;stroke:#fff;stroke-width:2;stroke-linecap:round;stroke-miterlimit:10"/><path d="M114.9 81.2a48 48 0 0 0 .7-12.9l-.2-2q0-1.2-.4-2a17 17 0 0 0-9.6-12 15 15 0 0 0-7.5-1.3l-4.2.5-4.3.6A268 268 0 0 1 63 53.9l-8.8-.5q-8.8-.5-17.5-1.7l-4.3-.6q-2-.2-3.8-.1-3.9.3-7.3 2.5c-4.4 2.9-7.3 8-7.7 13.4v-.1a93 93 0 0 0 1 10.8q.4 1.8 1 3.4l-.2.2q-.9-1.6-1.3-3.4l-.8-3.6-1-7.3a19 19 0 0 1 16-18.3q2.2-.3 4.3 0l4.4.4q8.7 1 17.3 1.5t17.4.2q8.7-.5 17.4-1.4l4.4-.4q2-.3 4.3-.4 4.6-.2 8.6 1.8a19 19 0 0 1 10.1 13.6q.4 2.3.3 4.4a58 58 0 0 1-1.6 13z" style="fill:#757575"/><path d="M118.5 61.4s5.5 1.3 5.5 1.7l-2.2 12.7s-3.3-1.4-3.3-2.7zm-107.4.1L8.3 61 4 67.3l4.3 9 3.5-1s-.7-5.5-.7-8.3z" style="fill:#37474f"/><path d="M115 82.8V78l-.1-2.3C113.8 83.5 108 98 93.4 98c-16.1 0-18.5-9-21.2-13.3-2.6-4.5-3.7-5.4-7.7-5.4s-5.2.6-8 5c-2.6 4.4-5 14-21.1 14-6.6 0-11.5-4.7-15.7-9.9a28 28 0 0 1-4.1-7.4c-.4-1-.7-3.6-1.5-4.8L14 78v4.7c0 7.2 6.6 23 22.6 23 16.1 0 17.6-9.5 20.2-14 2.7-4.4 3.7-5 7.7-5s4.8.6 7.5 5c2.6 4.5 4.3 14 20.4 14S115 90 115 82.8" style="fill:#455a64"/><linearGradient id="a" x1="64.5" x2="64.5" y1="91.1" y2="54" gradientUnits="userSpaceOnUse"><stop offset="0" style="stop-color:#d6d6d6"/><stop offset="1" style="stop-color:#fff"/></linearGradient><path d="M97.1 66.4c7.6 0 13.7 6.3 13.7 14v4.7c0 5.5-5.3 18.7-18.4 18.7-11.6 0-14.3-5.2-16.7-9.8l-1.9-3.4c-2.4-4-3.9-5.7-9.3-5.7s-7 1.6-9.3 5.7l-2 3.4c-2.3 4.6-5 9.8-16.6 9.8-13 0-18.4-13.2-18.4-18.7v-4.7c0-7.7 6.1-14 13.7-14zm1-5H31a18.7 18.7 0 0 0-18.5 18.9V85c0 7.4 6.8 23.7 23.4 23.7S55 99 57.8 94.5s2.6-5.2 6.7-5.2 4 .6 6.7 5.2c2.7 4.5 5.4 14.3 22 14.3s23.3-16.3 23.3-23.7v-4.8c0-10.4-8.2-18.9-18.4-18.9" style="fill:url(#a)"/></svg>