<svg xml:space="preserve" width="16" height="16" viewBox="0 0 128 128"><path d="M52.8 29.4s7-3.7 10-9.2S67 8.8 62.4 6.3c-5.7-2.9-11.9 4.2-11.9 4.2S51 6.1 47 5.6c-9.2-1-10.6 9.7-10.6 9.7s-2.4-2-5.3-1c-3.5 1.3-4 5.9-3.9 8.2.3 3.2 2.2 7.4 2.2 7.4z" style="fill:#a42e1a"/><path d="m66.7 95.1-24-5.2s.9 8.6.2 9.6c-1.2 1.9-8 1.9-12 2.8-3.7.8-8.7 6.2-5.1 10.6 3.4 4.2 7-3.4 8.8-3.3 2 .1 2.3 4 4.5 3.9 3-.2 1.2-4.5 2.7-6 1.5-1.6 7-1.3 8.2-3.1s.7-8 .7-8l7.2 2.6s4 4.8 3.8 8.8-2.4 6.6-3.8 7c-5 1-11.4 2.5-11 5.4s6 1.6 14.3 1.6c8 0 12.2 1 12.8-2.4s-5.4-3.5-5.5-4.7 1.9-6.6 1.6-9c-.4-2.5-3.4-10.6-3.4-10.6" style="fill:#ffb70c"/><radialGradient id="a" cx="20.1" cy="100.2" r="95.9" gradientUnits="userSpaceOnUse"><stop offset=".5" style="stop-color:#8d5e50"/><stop offset=".7" style="stop-color:#5a7439"/><stop offset=".8" style="stop-color:#34642e"/><stop offset="1" style="stop-color:#315427"/></radialGradient><path d="m55.2 50.7-25.6 2.4s-6 4.8-7 14a26 26 0 0 0 8.5 20.3c5.8 5.6 13.6 15.7 29 14s26-14.6 29.4-21.7c3.2-6.7 4.6-14.5 5.4-14.5.8-.1 8.7 11.2 11.4 10.7 1.7-.4 1.6-5.7 1.2-8.8-.7-4.8-2.5-7.8-2.5-7.8s7.8 5.8 9 4.1c.8-1.2.2-7.3-1-11.8-1.3-5-3.3-8.1-3.3-8.1s8.2 8.2 9 5.8c.2-1 .5-17-13.4-21.2s-23.9 8.6-26.2 14.6c-2.6 6.5-4.7 17-4.7 17z" style="fill:url(#a)"/><path d="M41.9 22.8c-6.8.4-12.4 6.9-12.4 6.9s-6 .4-8 1c-2.8 1-4.9 3.2-5 4.3-.5 2.8 10.3 4 10.3 4l.8 16s6.7 5.8 7.4 5.8c.8.1 5.8-6.1 6.5-6.2s7.8 7.3 7.8 7.3l18.7-6-4.5-8.2c-1.9-3.2-3-13.8-8.7-19.7a17 17 0 0 0-13-5.2" style="fill:#ffb903"/><path d="M31.9 36h-7.2c-2-.1-8.2-1-8.2-1s-.3.7.3 1a54 54 0 0 0 15.9 2.2l.4-1z" style="fill:#ff732d"/><path d="M32.2 39s-4.8.1-5.5.3-7.3 3.8-9.7 7.7-3 9.9.4 12.2c3 2 9 .9 12-4.9 2.6-4.8 4.6-9.5 4.6-9.5s10.7-.2 11.2-9.2-8-10-11-9.3c-2.5.6-5 3.3-5 3.3s2.3 3.2 2.5 4.7z" style="fill:#ff6157"/><path d="M39.7 35.6c-.5 2.2-2.3 3.7-3.9 3.4-1.5-.4-2.4-2.8-2-5 .6-2.2 2.2-3.3 3.8-3 2 .3 2.6 2.5 2.1 4.6" style="fill:#29292a"/><path d="M59.6 50.3s-13.1 6-16 14.4-.4 17.8 6.8 22.2A28 28 0 0 0 75.1 88c5.6-2.3 7.3-5.4 7-7.6-.4-2.6-1.7-3.4-1.7-3.4s4.2-2.8 4-5.9c0-3-3.7-4-3.7-4s3.3-2 3-5-5-5.1-9.6-5.6c-5.7-.7-14.5-6.2-14.5-6.2" style="fill:#d27856"/></svg>