<svg xml:space="preserve" width="16" height="16" viewBox="0 0 128 128"><path d="M103 23.4c4.3 11.3 3 25-8 32s-22 12-31 21A67 67 0 0 0 44.7 124h57.9l.4-.5c7-4.5 14.2-8.6 21-13.2V3.9H87.5C92.1 9 99.7 14.6 103 23.4" style="opacity:.45;fill:#3bbcf7"/><path d="M4 46.6v77.3h13.5c-3.6-5.5-6-11.4-4.5-18.5 2-10 12-14 20-18C55.6 76 60.3 58 61 37.4A45 45 0 0 0 48.2 4h-36c19 24-6.9 42-8.2 42.7" style="opacity:.45;fill:#83d3f7"/><radialGradient id="a" cx="63.9" cy="7.8" r="55.1" gradientTransform="matrix(1 0 0 -.463 0 123.81)" gradientUnits="userSpaceOnUse"><stop offset=".9" style="stop-color:#eceff1"/><stop offset="1" style="stop-color:#b0bec5"/></radialGradient><path d="M64.1 96c-25.5 0-52 7.2-52 25v3h104v-3c0-16.8-26.3-25-51.9-25" style="fill:url(#a)"/><linearGradient id="b" x1="64.3" x2="64.3" y1="31.6" y2="1.2" gradientTransform="matrix(1 0 0 -1 0 128)" gradientUnits="userSpaceOnUse"><stop offset=".5" style="stop-color:#e0bb95"/><stop offset="1" style="stop-color:#cca47a"/></linearGradient><path d="M64 95.8c-29.6 0-21.5 19.5-16.5 28.1h34.3c4.6-8.6 11.9-28.2-17.8-28.2" style="fill:url(#b)"/><path d="M50 104c2-6.5 13.4-6.6 12.5-6.5h2.7c-.9-.1 10.6 0 12.5 6.4s-2.2 13.6-5.7 20h14c4-9 7.4-20.2 3.6-25.6-4.5-6.4-11.3-8.6-25.6-8.6s-21.4 2.2-26 8.6c-3.8 5.4-.4 16.7 3.7 25.6h14c-3.6-6.4-7.7-13.6-5.8-20" style="fill:#eceff1"/><radialGradient id="c" cx="84.4" cy="20.4" r="9.3" gradientTransform="rotate(6 -1354 32.06)scale(1 -2.115)" gradientUnits="userSpaceOnUse"><stop offset=".7" style="stop-color:#b0bec5"/><stop offset="1" style="stop-color:#eceff1;stop-opacity:0"/></radialGradient><path d="M89.4 123.8H86c3.9-8.6 7.2-19.3 4-25l3.7 1.1c2 6.7-1 16.3-4.4 24" style="fill:url(#c)"/><radialGradient id="d" cx="753.1" cy="20.4" r="9.3" gradientTransform="rotate(174 396.53 56.83)scale(1 2.115)" gradientUnits="userSpaceOnUse"><stop offset=".7" style="stop-color:#b0bec5"/><stop offset="1" style="stop-color:#eceff1;stop-opacity:0"/></radialGradient><path d="M38.4 123.8h3.3c-4-8.6-7.3-19.3-4.1-25l-3.7 1.1c-1.9 6.7 1.1 16.3 4.5 24" style="fill:url(#d)"/><linearGradient id="e" x1="64" x2="64" y1="20.6" y2="38.5" gradientTransform="matrix(1 0 0 -1 0 128)" gradientUnits="userSpaceOnUse"><stop offset=".5" style="stop-color:#e0bb95"/><stop offset="1" style="stop-color:#cca47a"/></linearGradient><path d="M55 90v10a8 8 0 0 0 8.2 8.1h1.6c4.6 0 8.3-3.6 8.3-8.1V90z" style="fill:url(#e)"/><path d="M55 104.7q-.4-1.5-.5-2.9l-.2-2.8-.4-5.8q0-1 1-1c1 0 1 .3 1 .9q0 3-.3 5.8l-.2 3q0 1.4-.5 2.8m18.1 0-.4-2.9-.2-2.8-.3-5.8q0-1 1-1c1 0 1 .3 1 .9l-.4 5.8-.2 3q0 1.4-.4 2.8" style="fill:#ba8f63"/><path d="M91.2 50.4H36.6c-6 0-10.8 5.2-10.8 11.4s4.9 11.5 10.7 11.5h54.7c5.9 0 10.7-5.2 10.7-11.5s-4.8-11.4-10.7-11.4" style="fill:#c48e6a"/><path d="M63.9 11c-17.4 0-33.5 18.7-33.5 45.5C30.4 83 47 96.3 63.9 96.3S97.4 83 97.4 56.5C97.4 29.7 81.3 11 63.9 11" style="fill:#e0bb95"/><path d="M72.3 76.1a26 26 0 0 1-16.8 0c-1.8-1-3.7.6-3 2.3S59 83.8 64 83.8s10.6-3.8 11.3-5.4-1-3.4-2.9-2.3" style="fill:#6d4c41"/><path d="M67.7 68H60q-1 .5-.7 1.7c.3.7 1.7 2.7 4.6 2.7s4.2-2 4.5-2.7q.4-1.2-.7-1.6" style="fill:#c48e6a"/><path d="M47.5 60.3q-3.1 0-5.2-1.3-.8-.4-.7.5c.3 2.5 2.9 4.4 6 4.4 3 0 5.5-2 5.9-4.4q0-1-.8-.5a10 10 0 0 1-5.2 1.3m32.6 0Q77 60.3 75 59q-.8-.4-.7.5c.3 2.5 2.9 4.4 6 4.4s5.5-2 5.9-4.4q0-1-.8-.5a10 10 0 0 1-5.2 1.3" style="fill:#5d4037"/><path d="M39.9 50.7c3.2-4.5 10.7-4.6 14.4-.8.7.7 1.4 1.5.9 2.5q-1 1.4-2.6.5a13 13 0 0 0-7.5-.9l-3.2 1.1c-1.5.5-3-1-2-2.4M86 53.1q-3.3-1.6-7-1.2a13 13 0 0 0-3.3.8c-.8.3-1.7.9-2.5.3-2.5-1.7 1.9-4.4 3.1-5q4.4-1.7 8.8.3c1 .6 2.2 1.4 2.8 2.4.8 1.3-.4 3-2 2.4M63.9 4c-45.5.2-36.2 52-36.2 52l3 7.8c.1.3.6.3.7 0a352 352 0 0 1 6.2-24.5 6 6 0 0 1 6.8-3.8 111 111 0 0 0 19.4 1.8h.2c7.8 0 14.9-1 19.3-1.8a6 6 0 0 1 6.8 3.8c1.8 4.7 5.2 20 6.2 24.4q.3.5.7 0l3-7.7s9.3-51.7-36-52" style="fill:#ab872f"/><radialGradient id="f" cx="63.9" cy="81" r="38.1" gradientTransform="matrix(1 0 0 -1.128 0 138.39)" gradientUnits="userSpaceOnUse"><stop offset=".8" style="stop-color:#bfa055;stop-opacity:0"/><stop offset="1" style="stop-color:#bfa055"/></radialGradient><path d="M100 56s9.3-51.7-36-52l-6 .3h-.3c-38.4 4.8-30 51.8-30 51.8l3 7.6q.3.5.7 0c1-4.4 4.5-19.7 6.2-24.4a6 6 0 0 1 6.8-3.8 111 111 0 0 0 19.4 1.8h.2c7.8 0 14.9-1 19.3-1.8a6 6 0 0 1 6.8 3.8 273 273 0 0 1 6.2 24.4q.3.6.7 0z" style="fill:url(#f)"/><path d="M48 60.7c-6-5-16.2-7.8-20.8-5.8-2.1.9-3.1 2.6-1.1 6 4 6.5 9.8 13.4 3.4 20.9C21 92 9.5 90.2 4 104.3V124h26.6C32 96.4 55 100 56.1 81.1c.7-10.7-3-16.4-8-20.4" style="opacity:.45;fill:#fff"/><path d="M124 42.8c-16.3-24.2-42-20.4-39.3-16.7 2.2 3 8.5 7.8 12.4 15.9 2.6 5.4 4.5 12 2 17.4-7.4 16.3-21.4 19.3-28.7 25.8-5 4.4-14.4 14.7-11 38.7H81s2.2-13 25.4-21.4A29 29 0 0 0 124 87.3z" style="opacity:.35;fill:#fff"/></svg>