<svg xml:space="preserve" width="16" height="16" viewBox="0 0 128 128"><path d="M60.2 50.5s-10.5 3-19.4 8.8C33.6 64 27 71.3 27 71.3l2 17.8 5.2 3.9L56 73.4s3.1-8.1 4.2-13.7c.6-2.8.9-5.6.9-5.6zm9 2.2 3 11.6 2.7 9.9 21.7 15.4 8.2-16-7.1-8.8c-2.5-3-16.6-12.7-16.6-12.7z" style="fill:#af0c1a"/><path d="M13.3 98.5s.8-6.9 6.4-16.7 8.4-11.5 8.4-11.5 3.3-.8 6.2-1.1S40 69 40 69s-4 4.8-6.2 9.4-3.5 9-2 9.8c1.7.9 3.5-5 7-10.3 3.7-5.6 6.5-8.4 6.5-8.4A20 20 0 0 0 56 73.1l-9 24.4c-3 9-7.6 20.9-8.7 21.3s-3-3-4.3-5.7-5.3-17.3-5.5-17-15.2 2.3-15.2 2.3m61.6-24.3s2.5-1.7 4.5-2.4c2.1-.7 5.7-1.2 5.7-1.2s2.2 4.2 4 7.1c1.6 3 4.4 9 6.2 8 1.8-.8-.5-6.8-1.9-9.5-1.2-2.4-3.3-5.7-3.3-5.7s2.7-.4 7.5.6c4.9 1 7.2 2.5 7.2 2.5s4.5 6.7 7 10.8c3 5.4 7.2 14.7 7.2 14.7l-17.9 1.4-9 19.7s-1.2 0-1.9-.4-3.9-9.3-5.6-14.5z" style="fill:#ff605e"/><path d="M100.1 98.7a325 325 0 0 0-7.6 17.7c-1 2.6-2.4 3.2-2.4 3.2s1.2 1.7 3.3 1c1.5-.4 9-18.2 9-18.2s13.6.2 15.6-.7c2.3-1 1-2.8 1-2.8s-18-1-18.9-.2m-86.7-.6s4-.7 7.7-1.7l8.4-2.4 4.9 13.7c1 3.4 4 11.1 4 11.1s-1.3 1.4-3 .2c-1.8-1-5-10-6-12.5L27 99s-3.8 1.3-7 1.9-5.5 1-6.4.1c-.8-.8-.2-2.9-.2-2.9m33-69.1-18.6-4.8L14.7 35 9.3 61l3 5s3.2 2.4 12.2.4 29.5-10 29.5-10 2.6 1 5 1.4 6.3-.5 6.3-.5 5 .8 8 .6q4.4-.4 4.3-.5c-.1-.1 9.8 5.2 19.6 8s17.4 3.3 19 3.1c2.7-.3 4-4.8 4-4.8l-1-9.8-14.3-30.7L75 31.8l-1.8 2-7.8-2.1-10.5 2-1.4-1.5z" style="fill:#dc0d28"/><path d="M54.6 33.4s1.2-3.7 10-3.7c8.4 0 9.5 3.3 9.5 3.3s1 7.2 0 13.4c-.8 5.6-3.9 11.4-3.9 11.4s-2 .5-5.2.6c-3 .1-6.2-.6-6.2-.6s-2.8-5-4-11.2c-1.1-6-.2-13.2-.2-13.2" style="fill:#ff605e"/><path d="M59.9 45c1.7.4 2.7-4.2 3.7-5.4 1.7-2 5.7-1.6 5.6-4.2 0-2-7.6-3-10.3.8-2 2.7-1.7 8.3 1 8.9" style="fill:#fcc4bf"/><path d="M75.1 31.8s1.1 1.3 2.1 3.8c.8 1.9 1.6 4.5 1.6 4.5s3.7-3.2 6.8-5c3.2-1.7 18.2-7 18.6.3.3 5.9-10.8 5.8-16 7.9a94 94 0 0 0-8.6 4.2v6s2.4 2.6 8 3c5.6.6 20 .4 22.9.5 5.9.3 8 3 8 6 0 3.2-1.1 4.5-.8 4.9.5.5 3-1.4 4.3-6.5a84 84 0 0 0 2-22.8c-.5-9.6-2.4-22.5-6.7-24.9s-16.8.8-24.2 4c-12.4 5.3-18 14-18 14m-24.7 8s.4-2.3 1.3-4.2c.7-1.5 2-3.3 2-3.3s-2.4-6.1-11.1-11.1-26.9-9-32.7-6.7C7 15.4 4.3 22.9 3.4 34c-.7 9.7.2 21.4 3.3 27.1 2.3 4.4 8.2 7.6 10 5.8.8-.9-5.8-3.9.5-7.9 3.7-2.3 10.7-2 16.8-2.5 6-.4 8.7 0 11.9-.9s5.2-2 5.2-2-.8-2.5-1-3.7l-.3-3s-2-1.1-7.6-2c-5.5-1-14.4-.8-14.5-6.7-.2-7.6 8.6-5.7 12.7-4s9.5 5 10 5.4" style="fill:#ff605e"/></svg>