<svg xml:space="preserve" width="16" height="16" viewBox="0 0 128 128"><path d="M119.3 32.6 107 18a20.1 20.1 0 0 0-30.7 25.8l12.3 14.7a20.1 20.1 0 0 0 30.7-25.9m-24 21.8a12 12 0 0 1-2.7-7.7c0-3.2-2-6.6-5.6-7.3-2.7-.4-4.2 0-5.6-1.5-4.7-5.3-3.3-13.8 2.9-18 4.5-3 10.7-2.7 14.7.8 2 1.8 1.5 4 1.8 7.4q.5 5.3 6.3 6.5c3.2.6 6.2 2.3 8.1 5.4 2.8 4.5 2 10.7-1.8 14.7a12.2 12.2 0 0 1-18.1-.3m-73 49.2 13 15.5q.7.7 1.5.7t1.3-.5l4.8-4.1q.7-.5.7-1.3.1-.8-.4-1.5l-5.2-6.2q-.7-1 .1-1.7l3.2-2.7q1-.6 1.7.2l5.2 6.2q.7.7 1.5.7t1.3-.5l5-4.2c.8-.6.9-1.9.2-2.7L43.2 86z" style="fill:#2f7889"/><path d="m117 30-12.3-14.6A20.1 20.1 0 0 0 74 41.2l3 3.5-6.5 5.4V50l-5-2.6q-.7-.4-1.5.2l-2.6 2.1q-.5.5-.4 1.2c.3 2.4 2 5.6 2 5.6L4.1 105.8s-1.1 1.6 1.8 5c2.9 3.5 4.6 2.6 4.6 2.6l11.7-9.8 12 14.2q.5.7 1.4.7t1.3-.5l4.9-4.1q.5-.6.6-1.3.2-.8-.4-1.5l-5-6.1q-.7-1 .1-1.7l3.2-2.7q.9-.6 1.8.2l5.2 6.2q.5.6 1.4.7t1.3-.5l5-4.2c.8-.6.9-1.9.2-2.7L43.2 86l26.1-22s2.5 1.9 5.1 2.9q.8.2 1.3-.2l2.6-2.2q.7-.5.4-1.4l-1.8-5.4 6.4-5.4 3 3.5A20.1 20.1 0 0 0 117 30m-5.8 22a12.2 12.2 0 0 1-18.2-.2q-2.8-3.5-2.7-7.7c0-2.4-1.7-4.5-4-4.8q-4.2-.7-7.2-4a12.2 12.2 0 0 1 2.9-18c4.6-3 10.7-2.7 14.8.8a12 12 0 0 1 4 9 5 5 0 0 0 4 4.8q5.1.9 8.1 5.5c2.8 4.5 2 10.7-1.7 14.6" style="fill:#90a4af"/><path d="m63 56.5-2.4 2s2.7 1.8 3.2 4.5-.7 6.3-.7 6.3l6.2-5.2s-1-.7-3.1-3.3zm14-11.8-2 1.6s2.7 2.3 3 5c.4 2.8-1 6.4-1 6.4l6.3-5.4z" style="fill:#2f7889"/><path d="m65 48.4 5.3 2.7 5 9.7S72 59.6 69 55.2s-4-6.8-4-6.8M94 14h-1a12 12 0 0 0-9.8.5 1.9 1.9 0 0 1-1.8-3.3c4-2 8.8-2.3 13-.7q1.5.7 1 2.4-.5 1-1.4 1.1" style="fill:#b9e4ea"/><path d="M24.3 104.6c-.7-.8-1.2-1.5-.4-2.1L41.1 88q1.6-1.5 2.4-.2c.7.8.6 1.4-.5 2.7l-16.7 14.8c-.8.7-1.4 0-2-.7" style="fill:#2f7889"/><path d="M8.9 106.3c-.3-1.4 1.3-2.7 1.9-3.2L47 72.6q1.3-1.2 1.7.2c.1.7-2 2.6-2.5 3l-35 31.2c-.6.4-2 .7-2.3-.7" style="fill:#b9e4ea"/></svg>