<svg xml:space="preserve" width="16" height="16" viewBox="0 0 128 128"><radialGradient id="a" cx="63.6" cy="-2088.9" r="57" gradientTransform="matrix(1 0 0 -1 0 -2026)" gradientUnits="userSpaceOnUse"><stop offset=".5" style="stop-color:#fde030"/><stop offset=".9" style="stop-color:#f7c02b"/><stop offset="1" style="stop-color:#f4a223"/></radialGradient><path d="M63.6 118.8c-27.9 0-58-17.5-58-55.9S35.7 7 63.6 7c15.5 0 29.8 5.1 40.4 14.4 11.5 10.2 17.6 24.6 17.6 41.5s-6.1 31.2-17.6 41.4a61 61 0 0 1-40.4 14.5" style="fill:url(#a)"/><path d="M111.5 29.7a57 57 0 0 1 8.1 30.2c0 16.9-6.1 31.2-17.6 41.4a61 61 0 0 1-40.4 14.5c-18 0-37-7.3-48.2-23a58 58 0 0 0 50.2 26c15.4 0 29.8-5.2 40.4-14.5a54 54 0 0 0 17.6-41.4q-.1-19.2-10.1-33.2" style="fill:#eb8f00"/><radialGradient id="b" cx="25.7" cy="66.5" r="19.4" gradientTransform="matrix(.98 0 0 .93 2.09 7.93)" gradientUnits="userSpaceOnUse"><stop offset="0" style="stop-color:#ed7770"/><stop offset=".9" style="stop-color:#ed7770;stop-opacity:0"/></radialGradient><circle cx="27.3" cy="69.8" r="17.5" style="opacity:.8;fill:url(#b)"/><radialGradient id="c" cx="100.8" cy="66.5" r="19.4" gradientTransform="matrix(.98 0 0 .93 2.09 7.93)" gradientUnits="userSpaceOnUse"><stop offset="0" style="stop-color:#ed7770"/><stop offset=".9" style="stop-color:#ed7770;stop-opacity:0"/></radialGradient><circle cx="100.8" cy="69.8" r="17.5" style="opacity:.8;fill:url(#c)"/><path d="M47.2 35.6c2.3 0 3-3.1.5-3.6q-2.7-.6-5.8-.2c-5.6.6-10.4 3.5-13.5 7.2-1.6 2 1 4 2.7 2.5 4.3-3.5 10-5.8 16-5.9m32.9.7c-2.2.3-3.2-2.8-.8-3.6q2.6-.8 5.7-.7c5.6 0 10.7 2.4 14.2 5.8 1.7 1.8-.6 4-2.4 2.8A26 26 0 0 0 80 36.3M64 96.2c10.8 0 17.8-7.9 19.7-11.6q1-2.2.1-3.1-.8-.6-2.1 0l-.9.5C76 85.4 70.1 87.5 64 87.5s-12-2.1-16.8-5.4l-.9-.5q-1.4-.6-2.1 0-1 1 .1 3.1A24 24 0 0 0 64 96.2M51.6 61.4l-.2-.2-.5-.5-.7-.6-1-.7-1.2-.7-1.4-.6-1.5-.4h-1.6.1-1.7l-1.5.4q-.8.2-1.4.6l-1.2.7-1.7 1.3-.6.6-.2.2c-1.2 1.2-3.2 1.2-4.6.2-1-.8-1.3-2.2-.8-3.2l.1-.3.4-.8a14 14 0 0 1 4.1-4.4l2.5-1.4s2-.8 3-1l1.7-.3h1.6q1.7 0 3.3.2 1.6.4 3 1c1.4.6 1.8 1 2.5 1.4q1.2.7 1.9 1.6l1.3 1.5.5.7.4.6.4.8.1.2c.7 1.5-.1 3.2-1.8 3.8-.9.5-2.4.2-3.3-.7m40.9-.4-.2-.1-.5-.5-2.9-2-1.4-.6-1.5-.3-1.5-.2h.1-1l-.7.2q-.7 0-1.5.4l-1.4.5-2.9 2-.6.6-.3.3a3.5 3.5 0 0 1-4.5.1q-1.5-1.4-.8-3.2l.1-.3.5-.9a13 13 0 0 1 4-4.3 14 14 0 0 1 5.6-2.4l1.8-.2.8-.1h.8l3.3.3a16 16 0 0 1 7.5 4l1.3 1.5.5.6.4.7.4.7v.3c.8 1.5 0 3.2-1.7 3.8q-2.1.5-3.7-.8" style="fill:#422b0d"/></svg>