<svg xml:space="preserve" width="16" height="16" viewBox="0 0 128 128"><path d="M116 4H12a8 8 0 0 0-8 8v104a8 8 0 0 0 8 8h104a8 8 0 0 0 8-8V12a8 8 0 0 0-8-8" style="fill:#689f38"/><path d="M109.7 4H11.5A7.6 7.6 0 0 0 4 11.5v97.9c0 4.1 3.3 7.5 7.5 7.5h98.1c4.1 0 7.5-3.3 7.5-7.5V11.5c0-4-3.1-7.4-7.2-7.5z" style="fill:#7cb342"/><path d="M39.7 12.9c0-2.3-1.6-3-10.8-2.7-7.7.3-11.5 1.2-13.8 4s-2.9 8.5-3 15.3c0 4.8 0 9.3 2.5 9.3 3.4 0 3.4-7.9 6.2-12.3 5.4-8.7 18.9-10.6 18.9-13.6" style="fill:#aed581"/><path d="m53.4 69.2-8.8 2.6a1 1 0 0 0-.7 1v23.6c0 4.5-.9 6.7-3.6 8.1q-3.5 1.6-11.3 1.6-1.4-.1-1.8-1.4-.4-2-1.2-4a2 2 0 0 1 1.7-2.5l6-.1q1.8.1 1.7-1.7V75.7q0-.9-1-1h-.3L25.7 77q-1.7.3-2.3-1.3L22.1 71a1.7 1.7 0 0 1 1.3-2.2L34.6 66q.8-.2.8-1V48.9q-.1-.9-1-1H25q-1.7-.1-1.8-1.8v-4.5q.1-1.6 1.8-1.8h9.4q.9-.1 1-1v-15q.1-1.7 1.8-1.8H42q1.6.1 1.8 1.8v14.9q.1.9 1 1h6.9q1.6.1 1.8 1.8V46q-.1 1.6-1.8 1.8h-6.9a1 1 0 0 0-1 1v13.3q0 .9 1 1h.3l6.6-1.8a2 2 0 0 1 2.3 1.5l.6 4.3q.2 1.6-1.2 2.1M72 58.6c-10.3 0-13.6-3.2-13.6-12.3V24q.1-1.7 1.8-1.8H65q1.6.1 1.8 1.8v6.8q.1 1.7 1.8 1.8h32.5q1.7.1 1.8 1.8v3.7q-.1 1.6-1.8 1.8H68.7q-1.6.1-1.8 1.8v4.7c0 3.6 1 4.9 5 4.9h22.5c2.5 0 6.3-.1 8.9-.4q1.7 0 2 1.6l.4 3.7q0 1.7-1.5 2h-.1c-2.4.2-6 .3-9.3.3zm-11.2 7h39.8q1.7.2 1.8 1.8v36.3q-.1 1.6-1.8 1.8h-4.8q-1.7-.2-1.8-1.8t-1.8-1.8H68.8q-1.7.2-1.8 1.8v.5q-.1 1.6-1.8 1.8h-4.4q-1.6-.2-1.8-1.8V67.4a1.7 1.7 0 0 1 1.8-1.8m6.2 8.9v4q.1 1.6 1.8 1.8h23.3q1.7-.2 1.8-1.8v-4q-.1-1.6-1.8-1.8H68.8q-1.7.2-1.8 1.8m26.9 18.7v-4.3q-.2-1.7-1.8-1.8H68.8q-1.7.1-1.8 1.8v4.3q.1 1.7 1.8 1.8h23.3q1.7-.1 1.8-1.8" style="fill:#fafafa"/></svg>