<svg xml:space="preserve" width="16" height="16" viewBox="0 0 128 128"><path d="m-424.9 66 1 .2a1 1 0 0 0 1.4-.7l1.1-4q.3-1-.7-1.4l-1-.3a1 1 0 0 0-1.3.7l-1.2 4q-.1 1 .7 1.4m551.6-288.2 1 .3a1 1 0 0 0 1.3-.8l1.2-4q.3-1-.7-1.4l-1-.3a1 1 0 0 0-1.3.8l-1.2 4q-.2 1 .7 1.4" style="fill:#616161"/><path d="m38 22 42.9 47.7-6 4.8L32 26.8z" style="fill:#6aa5ad"/><path d="M114 105.4c.6.5 7.1 8.1 8.6 9.7a5 5 0 0 1-.3 7.2c-2.5 2-5.2.7-6.6-.7s-8.7-9.7-8.8-9.8q-1.2-1.7 2-4.9c1.7-1.4 4.2-2 5-1.5" style="fill:#6ca4ab"/><path d="m61 23.7-6.5-10.3c-5.1 7.2-6 22-7.1 23.2-1.3 1-16.3-.2-24.4 4l9.4 7.9c-9.2.5-15.1 2.8-15.1 2.8l89.5 62c.8.5 3.4.6 6.4-2s2.4-5 2.2-5.5L66 9.2s-3 5.5-5 14.5" style="fill:#6e62ed"/><path d="M58.5 47.9c-1-1-2-2-3.6-1.5-1 .3-2.3 1.7-.4 4.5.9 1.3 16.2 19.6 27.3 32.6 1 1.2-.6 2.7-1.7 1.8L32.4 48.5h-1.1c-8.6.7-14 2.8-14 2.8l89.5 62c.3.1 1 .5 2.5.2 2-.4 3.9-2.2 3.9-2.2-5.5-6-49.3-58.5-54.7-63.4" style="fill:#5547f4"/><path d="m32.3 48.4 67 59.6-52.5-36.3s-5.1-11-14.5-23.3" style="fill:#004dae"/><path d="m61 23.7 54 81.5-49-96s-3 5.5-5 14.5" style="fill:#937ef3"/><path d="m68.1 13.3-2-4s-3.2 5.4-5 14.4l3.3 5zM36.8 52.4l-4.4-4c-9.2.6-15.1 3-15.1 3l4.6 3c3.2-1.4 14.9-2 14.9-2" style="fill:#004dae"/><path d="M17 31.6q-4.6 4-9.7-2.8C2.2 22 1 15.6 9.8 8.2c9.1-7.5 17-2 23.5 5.8 4.6 5.5 8.3 9.7 8.2 10.1s-7 6.6-7.6 6.6c-.8 0-7.7-8.7-9.6-10.7s-5-6.3-8.6-3c-2.8 2.6-1.1 5.3-.1 6.5s5 4.6 1.3 8" style="fill:#3f7377"/><path d="M54.5 13.4c-5.3 5.9-6.2 21.9-7.4 23-1.3 1-18 0-24 4.2l3.1 2.7s4.5-1.5 16.3-2.2c4.1-.2 5.8-.4 7.3-1.6 1.4-1.3 1.8-3 2.6-7 .7-2.9 2-12.3 4.3-15.7z" style="fill:#004dae"/></svg>