<svg xml:space="preserve" width="16" height="16" viewBox="0 0 128 128"><path d="M52.2 26v16.5c2.5-1.3 6.4-2.7 11.5-2.7A18 18 0 0 1 75.2 43V25.7a36 36 0 0 0-22.9.2" style="fill:#b71c1c"/><path d="m75.6 10 1.5 1.3q.3.3.7.2l1.6-.2q.7 0 1 .6l.5 1.6q.2.5.7.5l1.8.2q.6 0 .8.7l.4 1.9q0 .3.4.6l2.1 1.3-4.2 2.9s-9.7-6-9.7-6.4.9-2.5.9-2.5z" style="fill:#03a9f4"/><path d="M43 54.7s9 10.2 10 9a38 38 0 0 0 11.2-26.6c0-22.5-8.7-33-8.7-33H40.9S50 22.7 50 33.9c0 8.2-2 14.4-6.8 20.8z" style="fill:#81d4fa"/><radialGradient id="a" cx="54.2" cy="49.5" r="20" gradientTransform="rotate(39.2 18.97 36.9)scale(1 .492)" gradientUnits="userSpaceOnUse"><stop offset=".2" style="stop-color:#81d4fa;stop-opacity:0"/><stop offset="1" style="stop-color:#0288d1"/></radialGradient><path d="M48.3 45.1q-1 3.2-2.9 6.2a19 19 0 0 0 3.5 9.6c2 1.9 3.8 3.4 4.2 2.9q4-4.4 7.1-10a24 24 0 0 1-12-8.7" style="opacity:.77;fill:url(#a)"/><path d="m82.5 19.2-.5-1.5-.7-.5-1.8.1-.7-.5-.5-2.1q0-.5-.6-.5l-1.8-.3a1 1 0 0 1-.6-.7l.3-3.2a40 40 0 0 0-11.4 27.1 38 38 0 0 0 11.1 26.7c1 1.1 10-9 10-9v-.2c-3.7-4.9-6.5-9.5-6.5-15.2 0-13 8.3-20.7 8.3-20.7l-3.8 1a1 1 0 0 1-.8-.5" style="fill:#81d4fa"/><radialGradient id="b" cx="74.4" cy="50.6" r="19.1" gradientTransform="rotate(-38 111.64 37.78)scale(1 .492)" gradientUnits="userSpaceOnUse"><stop offset=".2" style="stop-color:#81d4fa;stop-opacity:0"/><stop offset="1" style="stop-color:#0288d1"/></radialGradient><path d="M85.4 54.7a39 39 0 0 1-5-8 26 26 0 0 1-11.7 7.8q3 5.2 6.7 9.3c1 1.1 10-9 10-9" style="opacity:.77;fill:url(#b)"/><path d="M63.8 91.6c0 22.5 8.7 32.3 8.7 32.3h14.6s-9-17.8-9-29v-3.4zm-21.2 16.3-2.2 1.8q-.6.6.1 1l1 .4q1 .4 1.1.9l.4 1.9q.2.5.8.7l1.8.2q.6 0 .8.5l.5 1.6q.4.6 1 .6l1.6-.2.6.2s.4 1 1 1.3 1.3 0 1.3 0a40 40 0 0 0 11.4-27v-.2H49.2a26 26 0 0 1-6.6 16.3" style="fill:#ef5350"/><g style="opacity:.6"><path d="M62 102c-5 2.4-10.7 3.1-16.1 1.9h-.3l-1.7 2.5 1.3.4a27 27 0 0 0 15.7-1l1.2-3.6z" style="fill:#b71c1c"/></g><g style="opacity:.6"><path d="m78 94.3.1-2.7h-1.5q-7.6 5.7-11.5 14l1.2 5.2c2-6.4 6.1-12.3 11.7-16.5" style="fill:#b71c1c"/></g><path d="M73.2 124a42 42 0 0 1 8-13.8l-1-3.2q-6 6.4-9.3 14.6l1.6 2.4z" style="fill:#c62828"/><radialGradient id="c" cx="71.4" cy="106" r="16.2" gradientTransform="rotate(-16 247.67 81.3)scale(1 .535)" gradientUnits="userSpaceOnUse"><stop offset=".4" style="stop-color:#b02427;stop-opacity:0"/><stop offset="1" style="stop-color:#b71c1c"/></radialGradient><path d="m78 91.6-14.1 3.8q.3 6.7 1.4 11.8a23 23 0 0 1 13.5-5.3 33 33 0 0 1-.7-10.3z" style="fill:url(#c)"/><radialGradient id="d" cx="53.4" cy="105.6" r="18" gradientTransform="rotate(21.5 -75.84 81.05)scale(1 .535)" gradientUnits="userSpaceOnUse"><stop offset=".4" style="stop-color:#b02427;stop-opacity:0"/><stop offset="1" style="stop-color:#b71c1c"/></radialGradient><path d="M60.6 106.3q2.5-6.3 3-10.6l-.2-.3L49 91.6a30 30 0 0 1-1.8 8.6l-.4 1.8c4.4-.7 10.1 1.7 13.7 4.3" style="fill:url(#d)"/><path d="M88.9 58.5 78 66.1C80.4 74.7 67.8 87 63.8 87S46.5 77 49.4 66.2l-10.5-6.6s-11.2 13.5-.8 28.7q7.5 11 25.7 11c18.2 0 19.9-4.3 25.6-11 11.4-13.3-.5-29.8-.5-29.8" style="fill:#81d4fa"/><radialGradient id="e" cx="37.7" cy="82" r="22" gradientTransform="matrix(.911 .412 -.3 .665 28 11.9)" gradientUnits="userSpaceOnUse"><stop offset=".3" style="stop-color:#81d4fa;stop-opacity:0"/><stop offset="1" style="stop-color:#0288d1"/></radialGradient><path d="M48.3 80.8c-.5-1.1.8-4.3.5-5.7-2-8-8-12-11.3-13.4-1.6 2.6-4 7.5-3.8 13.6 6.7 0 12.3 2.7 14.6 5.5" style="opacity:.77;fill:url(#e)"/><g style="opacity:.47"><path d="m51 81-1.6-2.5c-5.2 3.4-12 2.4-15.2.9l1 3.6q2.8.8 5.8.8c3.4 0 7-.8 10-2.8m15.6 4.8.1-.6-3-.4q-.1 1-.5 2h.5a6 6 0 0 0 2.9-1m0 0q-1.7 1-2.8 1h-.6c-2.2 6-10 9-14.6 9.9q2.4 1 5.2 1.7c5.5-2 11.6-6 12.8-12.6m12.1-7.2-2 2.3c1.7 1.4 2.6 4.3 2.5 7.4q-.1 5.4-3.5 9.3 2.5-.8 4.8-2 1.5-3.4 1.7-7.2a13 13 0 0 0-3.5-9.8m7.7-11.5-1.8 2.5c2 1.4 7.7 5.6 5.5 17.9a20 20 0 0 0 3.5-6.8A17 17 0 0 0 86.4 67m-3.3-12v-3c-7.5.3-14.7-2.8-17.4-4.2l1.5 4C71 53.4 76.6 55 82.4 55zM66.9 23.7l-1.4 4c3 5.5 8.2 10.4 13.3 11.6l.2-3c-4.8-1.4-10-7.2-12.1-12.6M49.1 42.3l-1 3.3c2.7 2.8 6.2 8 7.8 14.8l2.2-3.1c-2-6.8-6-12.3-9-15m14.4 2 .2-.9q.4-2.5.5-5.5c-4-10.1-11-13.3-16-14.9l.9 3.5c5 1.9 11.6 6.6 14.4 17.8M58.8 9.8a46 46 0 0 0-13.4-5.6H41l1 2.4c4.2.6 12.4 3 18.9 8.5z" style="fill:#0277bd"/></g><radialGradient id="f" cx="54.2" cy="82" r="22" gradientTransform="rotate(-24.3 69.4 -264)scale(-1 .73)" gradientUnits="userSpaceOnUse"><stop offset=".3" style="stop-color:#81d4fa;stop-opacity:0"/><stop offset="1" style="stop-color:#0288d1"/></radialGradient><path d="M79.7 80.8c.6-1.1-.8-4.3-.4-5.7 1.9-8 8-12 11.2-13.4 1.6 2.6 4 7.5 3.8 13.6-6.6 0-12.3 2.7-14.6 5.5" style="opacity:.77;fill:url(#f)"/><path d="M81 79.4c-.2.2-6 6.7-17 7.5C65.8 68.7 83 59.6 79.8 45c0 0-1-2.5-1-5.7.3-7.5 2-10.4 2-10.4C100 37.8 93 58.3 91.4 62.3c-1.3 3.1-7.1 11-10.4 17.1m-34 0c.2.1 6 6.7 17 7.4-1.7-18-19.6-27.3-15.7-41.7 0 0 1.4-4 1.7-7.6.5-6.7-1-11.2-1-11.2-21.1 8.3-14 32-12.2 36 1.3 3 7 11 10.3 17.1" style="fill:#ef5350"/><radialGradient id="h" cx="85.2" cy="40" r="17.7" gradientTransform="rotate(-41 104.51 32.75)scale(1 .64)" gradientUnits="userSpaceOnUse"><stop offset=".3" style="stop-color:#b02427;stop-opacity:0"/><stop offset=".8" style="stop-color:#b71c1c"/></radialGradient><path d="M90.1 36.5q-3-4.4-9.3-7.5s-1.8 3-2 10.4c-.1 3.2 1 5.7 1 5.7l.2 1.3a15 15 0 0 1 10.1-10" style="fill:url(#h)"/><radialGradient id="i" cx="43.1" cy="40.1" r="21" gradientTransform="rotate(44.8 25.54 32.88)scale(1 .64)" gradientUnits="userSpaceOnUse"><stop offset=".3" style="stop-color:#b02427;stop-opacity:0"/><stop offset=".8" style="stop-color:#b71c1c"/></radialGradient><path d="M37 36.6a18 18 0 0 1 10.9 10.6q0-1 .4-2s1.4-4 1.7-7.7c.5-6.7-1-11.2-1-11.2a21 21 0 0 0-12 10.3" style="fill:url(#i)"/><g style="opacity:.6"><path d="M38.4 42.8q4.5-3.5 11-2 .4-1.3.6-2.9c-7.1-1.6-11.6.9-14.2 3.3l-.9.8q-.7 3.4-.7 6.7a15 15 0 0 1 4.2-5.9m10.9 13.5-1-3c-3 2-7 6-8.6 14l2.4 3.9c1-8.6 4.5-12.8 7.2-14.9M59 72.5l-1.5-2.7A50 50 0 0 0 50 82l2.5 1.6c1.9-4.3 4.4-8.5 6.5-11.1M88 34q-1-1.1-2.4-2.1c-1.3 4.6-4 7.9-6.6 10.2.2 1.8.8 3 .8 3v.2A26 26 0 0 0 88 34m5.8 14.3c-3.4 6-11.6 9.3-16.7 10.9l-2.2 3.7c3.9-1 13-3.6 18.7-9.3q.3-2.6.2-5.3m-7.7 22.6q-9.7 0-18.6 4.3l-1.8 4.5a39 39 0 0 1 18.6-5.8" style="fill:#b71c1c"/></g><path d="M82.2 25.3a21 21 0 0 1-12-8.6s-.2-1 .5-2c.6-.8 1.5-.8 1.5-.8 0 .1 1 3 4.6 5.6 3.9 2.6 6.4 3 7 3 0 0 .4.5-.2 1.8-.5 1-1.4 1-1.4 1" style="fill:#ff7b78"/><g style="opacity:.29"><path d="M84 23.2s-3-.2-7.5-3.3a12 12 0 0 1-4.8-5.9h.6l.3-.4s1 3 4.5 5.5c3.5 2.4 7.2 3 7.2 3l-.4.6z" style="fill:#212121"/></g><path d="M56.1 114.3a25 25 0 0 1-12.3-7.8s-.2-1.2.4-1.8c.7-.9 1.4-.9 1.4-.9s1.3 2.4 5.1 4.8 6.6 2.9 7.2 3c0 0 .2.7-.3 1.7q-.6 1-1.5 1" style="fill:#81d4fa"/><g style="opacity:.3"><path d="M58 112.2s-3.1-.2-7.8-3A12 12 0 0 1 45 104l.6-.2.3-.5s1.4 2.3 5 4.5c3.6 2.4 7.4 3.1 7.4 3.1l-.5.7z" style="fill:#212121"/></g></svg>