<svg xml:space="preserve" width="16" height="16" viewBox="0 0 128 128"><path d="M100.4 123.8H6.8A3 3 0 0 1 4 121V7c0-1.5 1.2-2.8 2.8-2.8h93.6c1.5 0 2.8 1.3 2.8 2.8v114c0 1.5-1.3 2.8-2.8 2.8" style="fill:#fff"/><path d="M99.2 8.2v111.6H8V8.2zm1.2-4H6.8A3 3 0 0 0 4 7v114c0 1.5 1.3 2.8 2.8 2.8h93.6c1.5 0 2.8-1.3 2.8-2.8V7c0-1.5-1.3-2.8-2.8-2.8" style="fill:#6fbff0"/><path d="M17.3 24.8c2-1 4.4 0 6.7 0 2.5.1 5-1 7.4-.9 2.5.2 4.8 1.5 7.2 1.7 3.1.3 6-1.3 9.1-1.7 4.4-.5 8.9 1.3 13.2.3M17.3 43.3q2.6-.7 5.3 0c1.6.4 3.2 1.2 4.9 1.2 2.1 0 4.1-1.2 6.2-1.6 5-1 10.4 2.4 15.3.8m15.1-.2c3-1 6.1.2 9.2.3q2.2 0 4.3-.4l5.5-.7M17.4 58.5c2.3-.4 4.6-.8 6.8-.3q1.9.6 3.8.8c1.5 0 2.9-.6 4.3-1q3-.6 5.8.5m14.2.5s1.8-1.5 6.7-.5c2.6.5 5.2 1 7.8.5l3-.9L73 58l5.5.1M16.9 74.5c3-2 7.2.3 10.8-.4 1.6-.3 3-1.3 4.7-1.6 2-.4 4.1.3 6.2.5q1.8.3 3.8.2h4c4.5 0 9 0 13.5-1M16.2 89c2.3-.9 4.7-1.8 7.1-1.4s4.5 1.9 6.8 1.6q1.5-.3 2.8-.9 3-1.1 6.2-1m27.4 2c1.3-1.4 3.5-1.5 5.4-1.3 1.9.3 3.8 1 5.7.6l3.4-1c2.5-.4 5.3.8 7.6-.3m-72.3 21.4c1.4-1.5 3.9-1.4 5.9-.8s4 1.5 6 1.3c1.9-.2 3.5-1.3 5.3-1.5 2-.2 4 .5 5.8 1q4.1 1 8.2.5" style="fill:none;stroke:#b0bec5;stroke-width:3.0751;stroke-linecap:round;stroke-miterlimit:10"/><g style="opacity:.3"><path d="M103.3 50.6 57.4 89.4c-1 1-10.1 18.4-10.1 18.4-.8 1.9 1 3.8 3 3.3 0 0 23.6-7.2 24.3-7.7l28.6-23.7z" style="fill:#6fbff0"/></g><path d="m45.6 107.7 2.5-13.1 1.7-9.1c.4-2.3.3-3.3 1.4-4.7l7.3-10.4 22.4 15.8-7.4 10.4q-.8 1.3-4 2.8l-7.9 4.7-11.5 6.8a3 3 0 0 1-4.5-3.2" style="fill:#ffecb3"/><path d="m54.1 80.6-.1.2z" style="fill:none"/><path d="m50 110.9 9.6-5.7s-4.2.5-7.6-1.8-4.3-6.6-4.3-6.6l-2 11a3 3 0 0 0 4.4 3" style="fill:#616161"/><path d="M103.2 40.5 94 34 56.7 87s-.3 4 2.5 6 6.6.5 6.6.5z" style="fill:#ffc107"/><path d="M109.8 45.1 73.5 96.7c-6.8 2.8-7.6-3.4-7.6-3.4l37.3-52.8z" style="fill:#ffa000"/><path d="M94 34 56.9 87s-8.1 1.4-5.6-6.1l36.2-51.5z" style="fill:#fdd835"/><path d="M87.4 29.3s5.2 5.4 9.2 8.2a67 67 0 0 0 13.2 7.6l-1 1.6A37 37 0 0 1 86.3 31z" style="opacity:.2;fill:#4e342e"/><path d="m56.9 88.5-.2-1.5h-1.3l37.8-53.6 1.7 1.2z" style="fill:#f19534"/><path d="m65.8 93.5-1.5.3 37.1-52.6 1.7 1.2-36.8 52.2z" style="fill:#d1762c"/><path d="m93 21.4 6.6 13.8 15.8 2 7.6-10.5c1.9-2.7 1.7-7-5.6-12.2l-4.4-3c-6.3-4.5-10.5-3.3-12.4-.6z" style="fill:#ef5350"/><path d="M112.2 44.5q-.5.8-1.5.8s-6.5-.8-13.6-5.9a34 34 0 0 1-10.2-10.6q-.3-1 .2-1.7l5.3-7.6q.4-.5 1-.5h.4q.8 0 1.2.7a43 43 0 0 0 21.7 15q.8 0 1.1.9.3.6-.1 1.2z" style="fill:#94d1e0"/><ellipse cx="113.9" cy="15.7" rx="3.4" ry="11.4" style="fill:#ff8383" transform="rotate(-54.8 113.92 15.66)"/><path d="M94.1 25.2a25 25 0 0 0 13.3 8.9c.3 0 1 0 1.1-.3q.3-.5-.7-1c-2.6-1.2-5.6-3.1-9.6-6.7s-5-6-5.7-5.3c-.5.5 1 3.6 1.6 4.4m4.9 7.3c1 .6-.2 2.3-3.8.5a10 10 0 0 1-5.5-6.4c0-.4-.1-1.2.2-1.5 1-.9 1.4.8 3.5 3q2.5 2.6 5.6 4.4" style="fill:#b9e4ea"/></svg>