<svg xml:space="preserve" width="16" height="16" viewBox="0 0 128 128"><path d="M63.4 40.8s.9-3.6.6-3.9l-1.2-1.8-2-2.2s-1.2.8-3.1-.4c-1.7-1.1-1.4-4.6.9-5.1 3.1-.7 3.6 2.5 3.6 2.5l1.3.8-.2-2.7a3 3 0 0 1-2.4-2.7c-.3-1.5.6-3 2-3.3a2.8 2.8 0 0 1 3.6 2.9q0 1.4-.7 2.5l.8 1.6 1-2.7q-1.1-1.3-.7-3a2.7 2.7 0 0 1 4-1.4c1.2.7 1.6 2.2 1 3.4q-.6 1.2-1.9 1.5l-.6 2.9 1.1-.9a3 3 0 0 1 1.1-2.2c.9-.8 2.2-.8 3.1 0a2.3 2.3 0 0 1-.3 3.6q-1.1.8-2.4.5l-1.9 3.1-.9 1.8.5 1.6q.6 2.6.7 5.3zM37.2 65.9l-1.3-.2-.5-.4c-.3-.2-2-2.4-2-2.4l-.5-3.2-1.5-4.5s1.4-2.2.5-3.3a2.3 2.3 0 0 0-3.9.6 3 3 0 0 0 1 3.2l.5 2.7-2.4-2.7c0-.1.2-1.8-.7-2.6-.9-.7-2.2-.8-3.1-.1-1 .8-1 2.2-.1 3.2q.7.8 1.7.9l2.3 3-2.6-.4s-.8-2.5-3.1-1.9-1.9 4.6.3 4.8q1.4.3 2.4-.7l2.3 1.1-1.7.6q-1.6-.7-2.8.7a2.5 2.5 0 0 0 2.1 3.9q2-.1 2.3-2V66l1.4-.1h1.5l2.1 3.3c1.2 2.1 2.5 4.3 4.6 4.6 1.3.1 1.2-8 1.2-8m21.6 19.7-1.4.5s1.3 1.1.9 1.7-1.2.8-2.9 1l-2.9.3s-1.2-1.8-2.8-1.4a3 3 0 0 0-2.2 3.4 3 3 0 0 0 3.3 2.4q1.2 0 1.7-1.2l4.1-.3-4.3 2.8s-1-.8-2.8.3-.7 5.7 2.8 4.6q1.6-.6 1.8-2.2l4.9-3.2-3 4.8a3 3 0 0 0-2.4 2.6 2.6 2.6 0 0 0 4.3 2.2c1.6-1.1.8-3.5.8-3.5l2.4-4.2-.1 4.2q-1 .7-1.2 1.9c0 1.1.3 2.5 2.2 2.5a2.4 2.4 0 0 0 2.4-2.8q-.2-.8-.7-1.3s0-5.6.3-5.8 6.6-1.4 6.9-4.2c.3-3.4-7.7-7.1-7.7-7.1zm31.5-32.1s4.1.4 4.2.1-2-2.7-2-2.7q-1.9.4-3.2-1c-1.6-1.7-.1-5.8 3.2-4.7a2.7 2.7 0 0 1 1.9 3.8l2 2.3-.1-5.2s-3.6-1-1.7-4.2c1.5-2.6 5.3-1 5.1 1.3q0 1.4-1.1 2.3l.5 2.9 1.4-2.8c-1-1.3-.7-3 .4-4.1a2.7 2.7 0 0 1 4.2 3.2q-.7 1.6-2.5 1.6l-1.6 4.6 2.3-1.9a3 3 0 0 1 1.7-3.3c2.6-1.2 5.6 2.1 2.7 4.8q-1.2 1-2.6.5s-3.3 3.2-3.7 3.8.6 2.8-1.4 4.2-4.5.9-6.2 1.1-5.3.1-5.3.1z" style="fill:#02ab47"/><path d="M79.9 59.4s-.8-3.8 1.4-5.6 6.7-.8 8-.7c5.3.5 4.5 1.9 4.7 3.7.2 1.5.2 3-2.5 3.1-1.2.1-3.3.3-3.8.7-1.2.9-1.1 8.3-1.1 8.3l-8.1-8.5zM56.7 44.1q2.7-1 5.2-2.5c1.8-1.2 2.1-3.5 2.1-4.8s2.2-2.8 4.5.7c1.9 2.9 1.9 5 1.7 5.7-.3 1.2-1.9 2.2-3.7 3.2s-6.3 2.9-6.3 2.9zM40.6 58.8s-3.7 4.7-4.5 5.5q-1.7 2-2.2 4.6c-.2 1.7-.5 4.5 1.9 4.8s7.8-5.6 7.8-5.6l2.7-3.1zm20.3 17.5-3.8 2.4c-1.4.8-2.5 2-2.5 3.1s2 3.5 2.8 4.1 1.8 2.9 5.2 1.9 1.2-3.4 1.5-3.8 2.3-.4 4.1-.6a7 7 0 0 0 3.4-1.1 97 97 0 0 0-10.2-6.4z" style="fill:#00821d"/><path d="M22.3 30.8C20.9 22.2 24 16.4 26.9 12s4.5-6.9 7.4-7.3 6.2 3.6 8.8 6.8c1.9 2.3 6.8 7.6 7.6 14.9.8 7.1-.8 12.1.2 13.6 2.4 3.8 12.2 5.3 20.8 11.5s17 16.4 20.3 27.3 2.9 18.6 3.3 21.9 1.9 14 9.2 13.7c6.1-.2 5.7-8.3 1-8.3-1.5 0-4.3.4-3.5-1.5 1-2.5 5.7-4 9.7-1.9 4.3 2.4 5.5 7 4.1 12-1.6 5.9-8.7 9.8-15.3 8.3-20-4.6-18.2-30-28.6-38.9-10.6-8.9-15-6.4-23.2-13.9-12.1-11.1-11.9-19.1-13.4-20.8s-11.3-8.2-13-18.6" style="fill:#02ab47"/><g style="opacity:.8"><path d="M86.4 103.7a5 5 0 0 1-4.7-3.9 34 34 0 0 0-7.3-15.2q-5.4-6.5-13-10.5l-1.9-1-1.6-.8-1.4-.8a49 49 0 0 1-20.1-23.4 48 48 0 0 1-3.5-11.9 5 5 0 0 1 3.1-5.3l1.8-.7c2.1-.8 4.5-.1 5.9 1.7a100 100 0 0 0 12.5 14.7 52 52 0 0 0 10 7.4l.6.3 1.5.7 2.7 1.4a46 46 0 0 1 18.4 17.7 37 37 0 0 1 4.5 12.5q1.2 6.8-.6 13.4a5 5 0 0 1-5 3.6z" style="fill:#02ab47"/><path d="m36 31 1.8-.7c2.1-.8 4.5-.1 5.9 1.7q4.5 6.3 9.7 11.9l2.8 2.8a52 52 0 0 0 10 7.4l.6.3 1.5.7 1.3.6 1.4.7q1.5.7 2.9 1.7a47 47 0 0 1 17.8 20.6 37 37 0 0 1 2.7 13.4q0 4-1 7.8a5 5 0 0 1-2.5 3 5 5 0 0 1-2.5.6l-1.9-.1a5 5 0 0 1-4.7-3.9q-1.4-6.3-4.7-11.7l-2.5-3.5A54 54 0 0 0 61.4 74l-1.9-1-1.6-.8-3.4-2.1-3-2.1-.2-.1-1.4-1.2-1.6-1.5a56 56 0 0 1-11.6-16.5l-.2-.5a43 43 0 0 1-3.4-11.9c-.8-2.2.8-4.4 2.9-5.3" style="fill:#03ab47"/><path d="m36 31.1 1.8-.7c2.1-.8 4.5 0 5.9 1.7q4.5 6.2 9.6 11.9l2.8 2.8a47 47 0 0 0 10 7.4l.6.3 1.5.7 1.3.6 1.4.7q1.5.7 2.9 1.7a47 47 0 0 1 17.8 20.5 35 35 0 0 1 1.7 21.2 5 5 0 0 1-2.5 3 5 5 0 0 1-2.5.6l-1.9-.1a5 5 0 0 1-4.7-3.9q-1.4-6.2-4.7-11.7l-2.5-3.5a45 45 0 0 0-12.9-10.4l-1.9-1-1.6-.8-3.4-2.1-3-2.1-.2-.1-1.4-1.2-1.6-1.5a56 56 0 0 1-11.6-16.5l-.2-.5a43 43 0 0 1-3.4-11.9c-1-2 .6-4.3 2.7-5.1" style="fill:#04ab47"/><path d="m36 31.1 1.8-.7c2.1-.7 4.5 0 5.9 1.7q4.5 6.1 9.6 11.8l2.8 2.8a47 47 0 0 0 10 7.4l.6.3 1.5.7 1.3.6 1.4.7q1.5.7 2.9 1.7a46 46 0 0 1 17.7 20.5 35 35 0 0 1 1.7 21.1 5 5 0 0 1-2.5 3q-1.2.6-2.5.5l-1.9-.1c-2.3-.1-3.9-1.8-4.7-3.9q-1.4-6.2-4.7-11.6l-2.5-3.5q-5.5-6.5-12.9-10.4l-1.9-1-1.6-.8-3.4-2.1q-1.5-.9-2.9-2.1l-.2-.1-1.4-1.2-1.6-1.5a50 50 0 0 1-11.6-16.4l-.2-.5a47 47 0 0 1-3.6-11.9c-.7-1.9.9-4.1 2.9-5" style="fill:#05ac47"/><path d="m36.1 31.2 1.8-.7c2.1-.7 4.4 0 5.8 1.7a110 110 0 0 0 12.4 14.6 53 53 0 0 0 9.9 7.4l.6.3 1.5.7 1.3.6 1.4.7q1.5.7 2.9 1.7a46 46 0 0 1 17.7 20.4 36 36 0 0 1 2.7 13.2q0 4-1 7.8a5 5 0 0 1-2.5 3 4 4 0 0 1-2.4.5l-1.9-.1c-2.3-.1-3.8-1.8-4.7-3.9q-1.4-6.2-4.7-11.6L74.4 84q-5.5-6.4-12.8-10.4l-1.9-1-1.6-.8-1.4-.8-2-1.2q-1.5-.9-2.9-2.1l-.2-.1-1.4-1.2-1.6-1.4A50 50 0 0 1 37 48.6l-.2-.5a48 48 0 0 1-3.6-11.8c-.7-2 .8-4.2 2.9-5.1" style="fill:#06ac47"/><path d="m36.1 31.3 1.8-.7c2.1-.7 4.4 0 5.8 1.7a122 122 0 0 0 12.4 14.6 53 53 0 0 0 9.9 7.4l.6.3 1.5.7 1.3.6 1.4.7q1.5.7 2.9 1.7a46 46 0 0 1 17.7 20.4 36 36 0 0 1 2.7 13.2q0 4-1 7.8a5 5 0 0 1-2.4 3 4 4 0 0 1-2.4.5l-1.9-.1c-2.2-.1-3.8-1.8-4.7-3.9Q80.3 93 77 87.6l-2.5-3.5Q69 77.7 61.7 73.8l-1.9-1-1.6-.8-1.4-.8-2-1.2q-1.5-.9-2.9-2.1l-.2-.1-1.4-1.2-1.6-1.4a50 50 0 0 1-11.6-16.4l-.2-.5a48 48 0 0 1-3.6-11.8c-.8-2.1.7-4.4 2.8-5.2" style="fill:#07ac47"/><path d="m36.1 31.3 1.8-.7a5 5 0 0 1 5.8 1.8A109 109 0 0 0 56.1 47a53 53 0 0 0 9.9 7.4l.6.3 1.5.7 1.3.6 1.4.7q1.5.7 2.9 1.7a46 46 0 0 1 17.7 20.4A36 36 0 0 1 94.1 92q0 4-1 7.8a5 5 0 0 1-2.4 3 4 4 0 0 1-2.4.5l-1.9-.1c-2.2-.1-3.8-1.8-4.6-3.9q-1.3-6.1-4.7-11.5l-2.5-3.5Q69.1 77.9 61.8 74l-1.9-1-1.6-.8-1.4-.8-2-1.2q-1.5-.9-2.9-2.1l-.2-.1-1.4-1.2-1.6-1.4q-3.2-2.9-5.7-6.4a55 55 0 0 1-5.9-9.9l-.2-.5a46 46 0 0 1-3.3-10.2l-.3-1.5c-.7-2.3.5-4.7 2.7-5.6" style="fill:#08ac47"/><path d="m36.2 31.4 1.8-.7a5 5 0 0 1 5.8 1.8A106 106 0 0 0 56.2 47a53 53 0 0 0 9.9 7.4l.6.3 1.5.7 1.3.6 1.4.7q1.5.7 2.9 1.7a47 47 0 0 1 17.4 20.3 36 36 0 0 1 2.7 13.2q0 4-1 7.8a5 5 0 0 1-2.4 3 4 4 0 0 1-2.4.5l-1.9-.1c-2.2-.1-3.8-1.8-4.6-3.9q-1.4-6.1-4.7-11.5l-2.5-3.5q-5.5-6.4-12.8-10.3l-1.9-1-1.6-.8-1.4-.8-2-1.2q-1.5-.9-2.9-2.1l-.2-.1-1.4-1.2-1.6-1.4q-3.2-2.9-5.7-6.4A55 55 0 0 1 37 49l-.2-.5a46 46 0 0 1-3.3-10.2l-.3-1.5c-.5-2.3.8-4.6 3-5.4" style="fill:#09ad48"/><path d="m36.2 31.5 1.8-.7a5 5 0 0 1 5.8 1.8 106 106 0 0 0 12.4 14.5 43 43 0 0 0 9.9 7.3l.6.3 1.5.7 1.3.6 1.4.7q1.5.7 2.9 1.7a47 47 0 0 1 17.4 20.3 36 36 0 0 1 2.7 13.2q0 4-1 7.7a5 5 0 0 1-4.8 3.4l-1.9-.1c-2.2-.1-3.8-1.8-4.6-3.9a35 35 0 0 0-7.2-14.9 45 45 0 0 0-12.7-10.3l-1.9-1-1.6-.8-1.4-.8-2-1.2q-1.5-.9-2.9-2.1l-.2-.1-1.4-1.2-1.6-1.4A49 49 0 0 1 37.1 49l-.2-.5a46 46 0 0 1-3.3-10.2l-.3-1.5c-.5-2.2.8-4.5 2.9-5.3" style="fill:#0aad48"/><path d="m36.3 31.5 1.8-.7a5 5 0 0 1 5.8 1.8 119 119 0 0 0 12.3 14.5q3 3 6.6 5.3l3.3 2 .6.3 1.5.7 1.3.6 1.4.7q1.5.7 2.9 1.7a48 48 0 0 1 17.3 20.3 36 36 0 0 1 2.7 13.2q0 4-1 7.7A5 5 0 0 1 88 103l-1.9-.1c-2.2-.1-3.8-1.8-4.6-3.9a34 34 0 0 0-7.2-14.8A42 42 0 0 0 61.6 74l-1.9-1-1.6-.8-1.4-.8-2-1.2q-1.5-.9-2.9-2.1l-.2-.1-1.4-1.2-1.6-1.4q-3.1-3-5.7-6.3-3.5-4.6-5.9-9.9l-.2-.5a46 46 0 0 1-3.3-10.2l-.3-1.5a5 5 0 0 1 3.1-5.5" style="fill:#0bad48"/><path d="m36.3 31.6 1.8-.7a5 5 0 0 1 5.7 1.8A119 119 0 0 0 56 47.1q3 3 6.6 5.3l3.3 2 .6.3 1.5.7 1.3.6 1.4.7q1.5.7 2.9 1.7a47 47 0 0 1 17.5 20.3 36 36 0 0 1 2.7 13.2q0 4-1 7.7A5 5 0 0 1 88 103l-1.9-.1c-2.2-.1-3.8-1.8-4.6-3.9a34 34 0 0 0-7.2-14.8A45 45 0 0 0 59.7 73l-1.6-.8-1.4-.8-2-1.2q-1.5-.9-2.9-2.1l-.2-.1-1.4-1.2-1.6-1.4q-3.2-2.8-5.6-6.3-3.5-4.6-5.9-9.9l-.2-.5a46 46 0 0 1-3.3-10.2l-.3-1.5a5 5 0 0 1 3-5.4" style="fill:#0cad48"/><path d="m36.3 31.6 1.8-.7a5 5 0 0 1 5.7 1.8A106 106 0 0 0 56 47q3 3 6.6 5.3l3.3 2 .6.3 1.5.7 1.2.6 1.4.7q1.5.7 2.9 1.7A46 46 0 0 1 91 78.5a36 36 0 0 1 2.7 13.1q0 4-1 7.7a5 5 0 0 1-2.4 2.9 6 6 0 0 1-2.4.5l-1.9-.1c-2.2-.1-3.8-1.8-4.6-3.9a35 35 0 0 0-7.2-14.8 45 45 0 0 0-14.5-11.2l-1.6-.8-1.4-.8-2-1.2q-1.5-.9-2.9-2.1l-.2-.1-1.4-1.2-1.6-1.4q-3.1-3-5.6-6.3-3.5-4.5-5.9-9.8l-.2-.5a47 47 0 0 1-3.3-10.1l-.3-1.5c-.3-2.2 1-4.4 3-5.3" style="fill:#0dae48"/><path d="m36.4 31.7 1.8-.7c2-.6 4.4 0 5.7 1.8a116 116 0 0 0 12.2 14.3q3 3 6.6 5.3l3.3 2 .6.3 1.5.7 1.2.6 1.4.7q1.5.7 2.9 1.7a46 46 0 0 1 17.5 20.2 35 35 0 0 1 1.7 20.8 5 5 0 0 1-2.4 2.9 6 6 0 0 1-2.4.5l-1.9-.1c-2.2-.1-3.7-1.8-4.5-3.9a34 34 0 0 0-7.2-14.7 45 45 0 0 0-14.5-11.2l-1.6-.8-1.4-.8-2-1.2q-1.5-.9-2.9-2.1l-.2-.1-1.4-1.2-1.6-1.4q-3.1-3-5.6-6.3-3.5-4.5-5.9-9.8l-.2-.5a46 46 0 0 1-3.3-10.1l-.3-1.5c-.5-2.3.8-4.5 2.9-5.4" style="fill:#0eae48"/><path d="m36.4 31.8 1.8-.7c2-.6 4.4 0 5.7 1.8a116 116 0 0 0 12.2 14.3q3 2.9 6.5 5.3l3.3 2 .6.3 1.5.7 1.2.6 1.4.7 2.9 1.7a45 45 0 0 1 17.4 20.1 35 35 0 0 1 2.7 13q0 4-1 7.7a5 5 0 0 1-2.4 2.9 6 6 0 0 1-2.4.5l-1.9-.1c-2.2-.1-3.7-1.8-4.5-3.9A34 34 0 0 0 74.2 84a43 43 0 0 0-14.4-11.1l-1.6-.8-1.4-.8-2-1.2q-1.5-.9-2.9-2.1l-.2-.1-1.4-1.2-1.6-1.4a55 55 0 0 1-11.5-16l-.2-.5a46 46 0 0 1-3.3-10.1l-.3-1.5c-.3-2.3.9-4.5 3-5.4" style="fill:#0fae48"/><path d="m36.4 31.8 1.8-.7c2-.6 4.4 0 5.7 1.8a129 129 0 0 0 12.2 14.3q3 2.9 6.5 5.3l3.3 1.9.6.3 1.5.7 1.2.6 1.4.7 2.9 1.7a45 45 0 0 1 17.4 20 35 35 0 0 1 2.7 13q0 4-1 7.7a5 5 0 0 1-2.4 2.9 6 6 0 0 1-2.4.5l-1.8-.1c-2.2-.1-3.7-1.8-4.5-3.9a34 34 0 0 0-7.2-14.7 43 43 0 0 0-14.4-11.1l-1.6-.8-1.4-.8-2-1.2q-1.5-.9-2.9-2.1l-.2-.1-1.4-1.2-1.6-1.4a55 55 0 0 1-11.5-16l-.2-.5a46 46 0 0 1-3.3-10.1l-.3-1.5c-.5-2 1-4.3 2.9-5.2" style="fill:#10ae48"/><path d="m36.5 31.9 1.7-.7c2-.6 4.4 0 5.7 1.8a129 129 0 0 0 12.2 14.3 60 60 0 0 0 9.8 7.2l.6.3 1.5.7 1.2.6 1.4.7 2.9 1.7a45 45 0 0 1 17.4 20 35 35 0 0 1 1.8 20.7 5 5 0 0 1-2.4 2.9q-1 .5-2.3.4l-1.8-.1c-2.2-.1-3.7-1.8-4.5-3.9a34 34 0 0 0-7.2-14.7 44 44 0 0 0-14.3-11.1l-1.6-.8-1.4-.8-2-1.2q-1.5-.9-2.9-2.1l-.2-.1-1.4-1.2-1.6-1.4a55 55 0 0 1-11.5-16l-.2-.5a46 46 0 0 1-3.3-10.1l-.3-1.5c-.7-2 .7-4.2 2.7-5.1" style="fill:#11ae48"/><path d="m36.5 32 1.7-.7c2-.6 4.4 0 5.7 1.8a103 103 0 0 0 12.2 14.2 43 43 0 0 0 9.8 7.1l.6.3 1.5.7 1.2.6 1.4.7 2.9 1.7a45 45 0 0 1 17.4 20A35 35 0 0 1 92.7 99c-.6 2-2.6 3.4-4.7 3.2l-1.8-.1c-2.2-.1-3.7-1.8-4.5-3.9a33 33 0 0 0-7.2-14.6 44 44 0 0 0-14.3-11.1l-1.6-.8-1.4-.8-2-1.2-2.9-2-.2-.1-1.4-1.1-1.6-1.4a55 55 0 0 1-11.5-16l-.2-.5a46 46 0 0 1-3.3-10.1l-.3-1.5c-.7-1.9.8-4.1 2.7-5" style="fill:#12af48"/><path d="m36.5 32 1.7-.7a5 5 0 0 1 5.6 1.8 115 115 0 0 0 12.1 14.2 43 43 0 0 0 9.7 7.1l.6.3 1.4.7 1.2.6 1.4.7 2.9 1.7a46 46 0 0 1 17.4 19.9 35 35 0 0 1 1.8 20.6c-.6 2-2.6 3.4-4.7 3.2l-1.8-.1a6 6 0 0 1-4.5-3.9 34 34 0 0 0-7.2-14.6 42 42 0 0 0-14.3-11l-1.6-.8-1.4-.8-2-1.2-2.9-2-.2-.1-1.4-1.1-1.6-1.4q-3.1-2.9-5.6-6.2-3.5-4.5-5.9-9.7l-.2-.5a47 47 0 0 1-3.3-10l-.3-1.5q0-3.5 3.1-5.2" style="fill:#13af48"/><path d="m36.6 32.1 1.7-.7a5 5 0 0 1 5.6 1.8A130 130 0 0 0 56 47.4a43 43 0 0 0 9.7 7.1l.6.3 1.4.7 1.2.6 1.4.7 2.9 1.7a44 44 0 0 1 17.3 19.9 35 35 0 0 1 2.7 12.9 31 31 0 0 1-.9 7.6c-.6 2-2.6 3.4-4.7 3.2l-1.8-.1a6 6 0 0 1-4.5-3.9 34 34 0 0 0-7.2-14.6 43 43 0 0 0-14.2-11l-1.6-.8-1.4-.8-2-1.2-2.9-2-.2-.1-1.4-1.1-1.6-1.4a55 55 0 0 1-11.5-15.8l-.2-.5a47 47 0 0 1-3.3-10l-.3-1.5a6 6 0 0 1 3.1-5.2" style="fill:#14af48"/><path d="m36.6 32.2 1.7-.7a5 5 0 0 1 5.6 1.9q4.4 6 9.4 11.5l2.7 2.7q3 3 6.5 5.2l3.2 1.9.6.3 1.4.7 1.2.6 1.4.7 2.9 1.7a45 45 0 0 1 17.3 19.9 35 35 0 0 1 2.7 12.9 31 31 0 0 1-.9 7.6 4 4 0 0 1-2.4 2.8q-1 .5-2.3.4l-1.8-.1c-2.1-.2-3.6-1.8-4.4-3.9a32 32 0 0 0-7.2-14.5 43 43 0 0 0-14.2-11l-1.6-.8-1.4-.8-2-1.2-2.9-2-.2-.1-1.4-1.1-1.6-1.4a55 55 0 0 1-11.5-15.8l-.2-.5a47 47 0 0 1-3.3-10l-.3-1.5c-.2-2.2 1-4.4 3-5.4" style="fill:#15af48"/><path d="m36.6 32.2 1.7-.7a5 5 0 0 1 5.6 1.9q4.3 6 9.4 11.4l2.7 2.7q3 3 6.5 5.2l3.2 1.9.6.3 1.4.7 1.2.6 1.4.7 2.9 1.7a46 46 0 0 1 17.3 19.8 35 35 0 0 1 2.7 12.9q0 3.9-.9 7.6a4 4 0 0 1-2.4 2.8q-1 .5-2.3.4l-1.8-.1c-2.1-.2-3.6-1.8-4.4-3.9a33 33 0 0 0-7.2-14.4 43 43 0 0 0-14.2-11l-1.6-.8-3.3-2-2.8-2-.2-.1-1.4-1.1-1.6-1.4a55 55 0 0 1-11.5-15.8l-.2-.5a44 44 0 0 1-3.3-10l-.3-1.5c-.3-2.2.9-4.3 2.8-5.3" style="fill:#16b049"/><path d="m36.7 32.3 1.7-.7c2-.6 4.3.2 5.6 1.9q4.3 6 9.4 11.4l2.7 2.7q3 3 6.4 5.2l3.2 1.9.6.3 1.4.7 1.2.6 1.4.7 2.9 1.7a45 45 0 0 1 17.3 19.8 35 35 0 0 1 2.7 12.9q0 3.9-.9 7.6a4 4 0 0 1-2.4 2.8q-1 .5-2.3.4l-1.8-.2c-2.1-.2-3.6-1.8-4.4-3.9a34 34 0 0 0-7.2-14.4 45 45 0 0 0-14.2-11l-1.5-.8-3.3-2-2.8-2-.2-.1-1.4-1.1-1.6-1.4a55 55 0 0 1-11.5-15.8l-.2-.5a49 49 0 0 1-3.4-10l-.3-1.5a5 5 0 0 1 2.9-5.2" style="fill:#17b049"/><path d="m36.7 32.4 1.7-.7c2-.5 4.3.2 5.6 1.9q4.3 6 9.4 11.4l2.7 2.7a59 59 0 0 0 6.4 5.2l3.2 1.9.6.3 1.4.7 1.2.6 1.4.7 2.9 1.6a45 45 0 0 1 17.3 19.8A34 34 0 0 1 92.3 99a4 4 0 0 1-2.4 2.8q-1 .4-2.3.4l-1.8-.2c-2.1-.2-3.6-1.8-4.4-3.9a33 33 0 0 0-7.2-14.3 44 44 0 0 0-14.1-10.9l-1.5-.8-3.3-2-2.8-2-.2-.1-1.4-1.1-1.6-1.4q-3-2.8-5.5-6.1-3.5-4.5-5.9-9.6l-.2-.5a49 49 0 0 1-3.4-10l-.3-1.5c-.5-2.2.7-4.4 2.7-5.4" style="fill:#18b049"/><path d="m36.7 32.4 1.7-.7c2-.6 4.2.2 5.5 1.9q4.3 6 9.4 11.4l2.7 2.7a59 59 0 0 0 6.4 5.2l3.2 1.9.6.3 1.4.7 1.2.6 1.4.7 2.8 1.6a45 45 0 0 1 17.3 19.7 33 33 0 0 1 1.8 20.4 4 4 0 0 1-2.4 2.7q-1 .4-2.3.4l-1.8-.2c-2-.3-3.8-1.8-4.4-3.8a33 33 0 0 0-7.1-14.3A44 44 0 0 0 60 72.7l-1.5-.8-1.3-.8-1.9-1.2-2.8-2-.2-.1-1.4-1.1-1.6-1.4q-3-2.7-5.5-6-3.5-4.5-5.9-9.6l-.2-.5a49 49 0 0 1-3.4-10l-.3-1.5a5 5 0 0 1 2.7-5.3" style="fill:#19b049"/><path d="m36.8 32.5 1.7-.7c2-.6 4.2.2 5.5 1.9q4.3 6 9.4 11.3l2.7 2.7a59 59 0 0 0 6.4 5.2l3.2 1.9.6.3 1.4.7 1.2.6 1.4.7 2.8 1.6a44 44 0 0 1 17.2 19.7 33 33 0 0 1 1.8 20.3 4 4 0 0 1-2.4 2.7q-1 .4-2.3.4l-1.8-.2c-2-.3-3.8-1.8-4.4-3.8a35 35 0 0 0-7-14.3 44 44 0 0 0-14.1-10.9l-1.5-.8-1.3-.8-1.9-1.2-2.8-2-.2-.1-1.4-1.1-1.6-1.4q-3-2.7-5.5-6-3.5-4.5-5.9-9.6l-.2-.5a51 51 0 0 1-3.4-9.9l-.3-1.5c-.4-2.2.7-4.3 2.7-5.2" style="fill:#1ab149"/><path d="m36.8 32.5 1.7-.7c2-.6 4.2.2 5.5 1.9q4.3 6 9.3 11.3l2.7 2.7a47 47 0 0 0 6.4 5.1l3.2 1.9.6.3 1.4.7 1.2.6 1.4.7 2.8 1.6a44 44 0 0 1 17.2 19.6A33 33 0 0 1 92 98.4a4 4 0 0 1-2.4 2.7q-1 .4-2.2.4l-1.8-.2c-2-.3-3.8-1.8-4.4-3.8q-1.3-5.9-4.6-11l-2.4-3.3a45 45 0 0 0-14-10.9l-1.5-.8-1.3-.8-1.9-1.2-2.8-2-.2-.1-1.4-1.1-1.5-1.4q-3-2.7-5.5-6-3.4-4.5-6-9.6l-.2-.5a51 51 0 0 1-3.4-9.9l-.3-1.5c-.5-1.7.8-3.9 2.6-4.9" style="fill:#1bb149"/><path d="m36.8 32.6 1.7-.7c2-.5 4.2.2 5.5 1.9q4.3 6 9.3 11.3l2.7 2.7a47 47 0 0 0 6.4 5.1l3.2 1.9.6.3 1.4.7 1.2.6 1.3.7 2.8 1.6a45 45 0 0 1 17.2 19.5 33 33 0 0 1 1.8 20.2 4 4 0 0 1-2.4 2.7q-1.1.5-2.2.3l-1.8-.2c-2.1-.2-3.5-1.8-4.3-3.8q-1.5-5.8-4.6-10.9l-2.4-3.3q-5.2-6-12.2-9.8l-1.8-1-1.5-.8-1.3-.8-1.9-1.2-2.8-2-.2-.1-1.4-1.1-1.5-1.3q-3-2.7-5.5-6-3.4-4.5-6-9.6l-.2-.5a51 51 0 0 1-3.4-9.9l-.3-1.5c-.5-1.9.8-4 2.6-5" style="fill:#1cb149"/><path d="m36.9 32.7 1.7-.7c2-.5 4.2.2 5.5 1.9q4.3 6 9.3 11.3l2.7 2.7a43 43 0 0 0 10.2 7.3l1.4.7 1.2.6 1.3.7 2.8 1.6a46 46 0 0 1 17.2 19.5A33 33 0 0 1 92 98.5a4 4 0 0 1-2.3 2.7q-1 .5-2.2.3l-1.8-.2c-2.1-.2-3.5-1.8-4.3-3.8a36 36 0 0 0-7-14.2q-5.2-6-12.2-9.8l-1.8-1-1.5-.8-1.3-.7-1.9-1.2-2.8-2-.2-.1-1.4-1.1-1.5-1.3q-3-2.7-5.5-6-3.4-4.5-6-9.6l-.2-.5a51 51 0 0 1-3.4-9.9l-.3-1.5c-.4-2 .6-4.2 2.5-5.1" style="fill:#1db149"/><path d="M36.9 32.7q.8-.5 1.7-.7c2-.5 4.2.2 5.5 1.9q4.3 6 9.3 11.3l2.7 2.6a43 43 0 0 0 10.2 7.3l1.4.7 1.2.6 1.3.7 2.8 1.6a45 45 0 0 1 17.2 19.5A33 33 0 0 1 92 98.4a4 4 0 0 1-2.3 2.7q-1 .5-2.2.3l-1.7-.2c-2-.2-3.5-1.8-4.3-3.8a36 36 0 0 0-7-14.2q-5.2-6-12.2-9.8l-1.8-1-1.5-.8-1.3-.7-1.9-1.2-2.8-2-.2-.1-1.4-1.1-1.5-1.3q-3-2.7-5.5-6-3.4-4.4-6-9.5l-.2-.5a51 51 0 0 1-3.4-9.9l-.3-1.5c-.7-1.9.6-4.1 2.4-5.1" style="fill:#1eb149"/><path d="M36.9 32.8q.8-.5 1.7-.7c2-.6 4.2.2 5.5 1.9q4.3 6 9.3 11.2l2.7 2.6a43 43 0 0 0 10.2 7.3l1.4.7 1.2.6 1.3.7 2.8 1.6a45 45 0 0 1 17.1 19.4A33 33 0 0 1 92 98.3a4 4 0 0 1-2.3 2.7q-1 .5-2.2.3l-1.7-.2c-2-.2-3.5-1.8-4.3-3.8a36 36 0 0 0-19.1-23.9l-1.8-1-1.5-.8-1.3-.7-1.9-1.2-2.8-2-.2-.1-1.4-1.1-1.5-1.3a51 51 0 0 1-11.5-15.4l-.2-.5a48 48 0 0 1-3.4-9.9l-.3-1.5c-.7-2 .6-4.1 2.3-5.1" style="fill:#1fb249"/><path d="M37 32.9q.8-.5 1.7-.7c2-.5 4.1.2 5.4 1.9q4.3 6 9.3 11.2l2.7 2.6a48 48 0 0 0 10.1 7.3l1.4.7 1.2.6 1.3.7 2.8 1.6A46 46 0 0 1 90 78.2a33 33 0 0 1 1.9 20.2 4 4 0 0 1-2.3 2.6q-1 .5-2.2.3l-1.7-.2c-2-.2-3.5-1.8-4.3-3.8a36 36 0 0 0-19.1-23.8l-1.8-1-1.5-.8-1.3-.7-1.9-1.2-2.8-2-.2-.1-1.4-1.1-1.5-1.3a51 51 0 0 1-11.5-15.4l-.2-.5a50 50 0 0 1-3.4-9.8l-.3-1.5c-.5-2.1.6-4.3 2.5-5.2" style="fill:#20b249"/><path d="M37 32.9q.8-.5 1.7-.7c2-.5 4.1.2 5.4 1.9q4.3 6 9.3 11.2l2.7 2.6a48 48 0 0 0 10.1 7.3l1.4.7 1.2.6 1.3.7 2.8 1.6A46 46 0 0 1 90 78.2a33 33 0 0 1 1.9 20.2 4 4 0 0 1-2.3 2.6q-1 .5-2.2.3l-1.7-.2c-2-.2-3.5-1.9-4.3-3.8a37 37 0 0 0-7-14 42 42 0 0 0-13.9-10.6l-1.5-.8-1.3-.7-1.9-1.2-2.8-2-.2-.1-1.4-1.1-1.5-1.3a51 51 0 0 1-11.5-15.4l-.2-.5a50 50 0 0 1-3.4-9.8l-.3-1.5c-.4-2.1.6-4.3 2.5-5.4" style="fill:#21b249"/><path d="M37 33q.8-.5 1.7-.7c2-.5 4.2.3 5.4 2q4.3 6 9.3 11.2l2.7 2.6a48 48 0 0 0 10.1 7.3l1.4.7 1.2.6 1.3.7 2.8 1.6A44 44 0 0 1 90 78.3a34 34 0 0 1 2.7 12.6q0 3.8-.8 7.4a4 4 0 0 1-2.3 2.6q-1 .5-2.2.3l-1.7-.2c-2-.2-3.5-1.9-4.2-3.8a35 35 0 0 0-19-23.6l-1.8-.9-1.5-.8-1.3-.7L56 70l-2.8-1.9-.2-.1-1.4-1.1-1.5-1.3a51 51 0 0 1-11.5-15.4l-.2-.5a50 50 0 0 1-3.4-9.8l-.3-1.5c-.5-2.1.4-4.3 2.3-5.4" style="fill:#22b249"/><path d="M37.1 33.1q.8-.5 1.7-.7c2-.5 4.2.3 5.4 2q4.3 5.9 9.2 11.1l2.7 2.6a70 70 0 0 0 9.5 7l.6.3 1.4.7 1.2.6 1.3.7 2.8 1.6A44 44 0 0 1 90 78.3a32 32 0 0 1 1.9 20 4 4 0 0 1-2.3 2.6q-1 .5-2.2.3l-1.7-.2c-2-.2-3.4-1.9-4.2-3.8a35 35 0 0 0-19-23.6l-1.8-.9-1.5-.8-1.3-.7L56 70l-2.8-1.9-.2-.1-1.4-1.1-1.5-1.3q-3-2.6-5.4-5.9-3.4-4.4-6-9.4l-.2-.5a50 50 0 0 1-3.4-9.8l-.3-1.5c-.6-2.1.4-4.4 2.3-5.4" style="fill:#23b34a"/><path d="M37.1 33.1q.8-.5 1.7-.7c2-.4 4.1.3 5.4 2q4.3 5.9 9.2 11.1l2.7 2.6A55 55 0 0 0 67.6 56l1.2.6 1.3.7 2.8 1.6a43 43 0 0 1 17 19.3 32 32 0 0 1 1.9 19.9 4 4 0 0 1-2.3 2.6q-1 .5-2.2.3l-1.7-.2c-2-.2-3.4-1.9-4.2-3.8a35 35 0 0 0-20.8-24.4l-1.5-.8-1.3-.7-1.9-1.2-2.8-1.9-.2-.1-1.4-1.1-1.5-1.3q-3-2.7-5.4-5.8-3.4-4.4-6-9.4l-.2-.5A47 47 0 0 1 35 40l-.3-1.5c-.4-2.1.5-4.3 2.4-5.4" style="fill:#24b34a"/><path d="M37.1 33.2q.8-.5 1.7-.7c2-.4 4.1.3 5.4 2q4.4 5.9 9.2 11.1l2.7 2.6a55 55 0 0 0 11.4 7.9l1.2.6 1.3.7 2.8 1.6a44 44 0 0 1 17 19.2 32 32 0 0 1 1.9 19.9 4 4 0 0 1-2.3 2.6q-1 .5-2.2.3l-1.7-.2c-2-.2-3.4-1.9-4.2-3.8a36 36 0 0 0-7-13.9 42 42 0 0 0-13.8-10.5l-1.5-.8-1.3-.7-1.9-1.1-2.8-1.9-.2-.1-1.4-1.1-1.5-1.3q-3-2.7-5.4-5.8-3.4-4.4-6-9.4l-.2-.5a47 47 0 0 1-3.4-9.8l-.3-1.5c-.3-2.1.7-4.3 2.5-5.4" style="fill:#25b34a"/><path d="M37.2 33.3q.8-.5 1.7-.7c2-.4 4.1.3 5.4 2q4.3 5.9 9.2 11.1l2.6 2.6a55 55 0 0 0 11.4 7.9l1.2.6 1.3.7 2.8 1.6a45 45 0 0 1 17 19.1 32 32 0 0 1 1.9 19.9 4 4 0 0 1-2.3 2.6q-1 .5-2.1.3l-1.7-.2c-2-.2-3.4-1.9-4.2-3.8a35 35 0 0 0-7-13.8 43 43 0 0 0-11.9-9.6l-1.7-.9-1.5-.8-1.3-.7-1.9-1.1-2.8-1.9-.2-.1-1.4-1.1-1.5-1.3q-3-2.7-5.4-5.8a54 54 0 0 1-6-9.4l-.2-.5a47 47 0 0 1-3.4-9.8l-.3-1.5c-.5-2.1.4-4.3 2.3-5.4" style="fill:#26b34a"/><path d="M37.2 33.3c2.3-1.5 5.4-1 7 1.3q4.2 5.8 9.2 11l2.6 2.6a55 55 0 0 0 11.4 7.9l1.2.6 1.3.7 2.8 1.6a45 45 0 0 1 17 19.1 32 32 0 0 1 2.8 12.5q.1 3.8-.8 7.4a4 4 0 0 1-2.3 2.6q-1 .3-2.1.2l-1.7-.2q-3.1-.8-4.2-3.8a35 35 0 0 0-7-13.8 43 43 0 0 0-11.9-9.6l-1.7-.9-1.5-.8L58 71l-1.9-1.1-2.7-1.9-.2-.1-1.4-1.1-1.5-1.3q-3-2.7-5.4-5.8a54 54 0 0 1-6-9.4l-.2-.5q-2.3-4.5-3.4-9.7l-.3-1.5c-.6-2 .3-4.2 2.2-5.3" style="fill:#27b44a"/><path d="m37.3 33.4 1.6-.7q3.2-.6 5.3 2 4.1 5.9 9.2 11l2.6 2.6a65 65 0 0 0 9.9 7.2l1.4.7 1.2.6 1.3.7 2.8 1.6a45 45 0 0 1 17 19 32 32 0 0 1 2 19.9 3 3 0 0 1-2.3 2.5q-1 .3-2.1.2l-1.7-.2q-3.1-.8-4.2-3.8a36 36 0 0 0-18.9-23.3l-1.7-.9-1.5-.8-1.3-.7-1.9-1.1-2.7-1.9-.2-.1-1.4-1.1-1.5-1.3q-3-2.7-5.4-5.8a54 54 0 0 1-6-9.4l-.2-.5q-2.3-4.5-3.4-9.7l-.3-1.5a5 5 0 0 1 2.4-5.2" style="fill:#28b44a"/><path d="m37.3 33.4 1.6-.7q3.2-.5 5.3 2 4.1 5.9 9.2 11l2.6 2.6a65 65 0 0 0 9.9 7.2l1.4.7 1.2.6 1.3.7 2.8 1.6a41 41 0 0 1 19.1 26.2q.5 2.6.6 5.2 0 3.8-.8 7.4a3 3 0 0 1-2.3 2.5q-1 .3-2.1.2l-1.7-.2q-3.1-.8-4.1-3.8a34 34 0 0 0-7-13.7q-5-5.7-11.8-9.5l-1.7-.9-1.5-.8L58 71l-1.9-1.1-2.7-1.9-.2-.1q-.8-.5-1.3-1.1l-1.5-1.3a57 57 0 0 1-11.4-15l-.2-.5a48 48 0 0 1-3.5-9.7l-.3-1.5a5 5 0 0 1 2.3-5.4" style="fill:#29b44a"/><path d="m37.3 33.5 1.6-.7q3.2-.5 5.3 2a114 114 0 0 0 9.1 11l2.6 2.6a53 53 0 0 0 11.3 7.9l1.2.6 1.3.7 2.8 1.6a44 44 0 0 1 16.9 19 33 33 0 0 1 2 19.7 3 3 0 0 1-2.3 2.5q-1 .3-2.1.2l-1.7-.2c-1.9-.3-3.3-1.9-4.1-3.8a35 35 0 0 0-18.8-23.2l-1.7-.9-1.5-.8-1.3-.7-1.9-1.1-2.7-1.9-.2-.1q-.8-.5-1.3-1.1l-1.5-1.3a57 57 0 0 1-11.4-15l-.2-.5a48 48 0 0 1-3.5-9.7l-.3-1.5c-.3-2 .6-4.2 2.4-5.3" style="fill:#2ab44a"/><path d="m37.4 33.6 1.6-.7q3.2-.5 5.3 2a114 114 0 0 0 9.1 11l2.6 2.6a47 47 0 0 0 11.3 7.9l1.2.6 1.3.7 2.8 1.6a45 45 0 0 1 16.9 18.9 33 33 0 0 1 2 19.7 4 4 0 0 1-2.3 2.5q-1 .3-2.1.2l-1.6-.2c-1.9-.3-3.3-1.9-4.1-3.8a35 35 0 0 0-18.8-23.2l-1.7-.9-1.5-.8-1.3-.7-1.9-1.1-2.7-1.9-.2-.1q-.8-.5-1.3-1.1l-1.5-1.3q-3-2.5-5.4-5.7-3.4-4.3-6-9.3l-.2-.5a48 48 0 0 1-3.5-9.7l-.3-1.5a5 5 0 0 1 2.3-5.2" style="fill:#2bb44a"/><path d="m37.4 33.6 1.6-.7q3.2-.4 5.3 2 4.2 5.7 9.1 10.9l2.6 2.6a39 39 0 0 0 6.2 4.9l3.1 1.9.6.3 1.4.7 1.2.6 1.3.7 2.8 1.6A44 44 0 0 1 89.5 78a31 31 0 0 1 2.8 12.4q0 3.8-.8 7.3-.5 1.8-2.3 2.5-1 .3-2.1.2l-1.6-.2c-1.9-.3-3.3-1.9-4.1-3.8a34 34 0 0 0-7-13.5q-5-5.7-11.8-9.4l-1.7-.9-1.5-.8-1.3-.7-1.9-1.1-2.7-1.9-.2-.1-1.3-1-1.5-1.3a49 49 0 0 1-11.4-15l-.2-.5a48 48 0 0 1-3.5-9.7l-.3-1.5c-.4-2.1.5-4.2 2.3-5.4" style="fill:#2cb54a"/><path d="M37.4 33.7 39 33q3.2-.5 5.2 2 4.2 5.8 9.1 10.9l2.6 2.6a39 39 0 0 0 11.2 7.7l1.2.6 1.3.7 2.8 1.6A44 44 0 0 1 89.3 78a31 31 0 0 1 2.8 12.4q0 3.8-.7 7.3-.5 1.8-2.3 2.5-1 .3-2.1.2l-1.6-.3c-1.9-.3-3.3-1.9-4.1-3.8a34 34 0 0 0-7-13.5q-5-5.7-11.7-9.4l-1.7-.9-1.5-.8-1.3-.7-1.8-1.1-2.7-1.9-.2-.1-1.3-1-1.5-1.3a49 49 0 0 1-11.4-15l-.2-.5a49 49 0 0 1-3.5-9.6l-.3-1.5a5 5 0 0 1 2.2-5.3" style="fill:#2db54a"/><path d="M37.5 33.8q.7-.5 1.6-.7 3.2-.5 5.2 2 4.2 5.8 9.1 10.9l2.6 2.6a39 39 0 0 0 11.2 7.7l1.2.6 1.3.7 2.8 1.6A44 44 0 0 1 89.4 78q1.6 3.5 2.2 7.2l.6 5.1q0 3.7-.7 7.3-.5 1.7-2.3 2.5-1 .3-2.1.2l-1.6-.3c-1.9-.3-3.3-1.9-4.1-3.8a34 34 0 0 0-6.9-13.5q-5-5.7-11.7-9.4l-1.7-.9-1.5-.8-1.3-.7-1.8-1.1-2.7-1.9-.2-.1-1.3-1-1.5-1.3a47 47 0 0 1-11.3-14.8l-.2-.5a49 49 0 0 1-3.5-9.6l-.3-1.5c-.6-2 .2-4.2 2-5.3" style="fill:#2eb54a"/><path d="M37.5 33.8q.7-.5 1.6-.7 3.2-.5 5.2 2.1 4.2 5.8 9.1 10.9l2.6 2.6a46 46 0 0 0 11.2 7.7l1.2.6 1.3.7 2.8 1.6a43 43 0 0 1 16.8 18.8q1.5 3.4 2.2 7.2l.6 5.1q0 3.7-.7 7.3-.5 1.7-2.3 2.4-1 .3-2.1.2l-1.6-.3c-2-.4-3.4-2-4-3.8a35 35 0 0 0-6.9-13.5q-5-5.7-11.7-9.4l-1.7-.9-1.5-.8-1.3-.7-1.8-1.1-2.7-1.9-.2-.1-1.3-1-1.5-1.3a47 47 0 0 1-11.3-14.8l-.2-.5q-2.3-4.6-3.5-9.6l-.3-1.5c-.6-2 .2-4.2 2-5.3" style="fill:#2fb54a"/><path d="M37.5 33.9q.7-.5 1.6-.7 3.2-.5 5.2 2.1 4.2 5.7 9.1 10.8l2.6 2.6a46 46 0 0 0 11.2 7.7l1.2.6 1.3.7 2.7 1.6a42 42 0 0 1 16.8 18.8q1.5 3.4 2.2 7.2l.6 5.1q0 3.7-.7 7.3-.6 1.7-2.3 2.4-1 .3-2 .2l-1.6-.3c-2-.4-3.4-2-4-3.8a33 33 0 0 0-6.9-13.4q-5-5.7-11.6-9.4l-1.7-.9-1.5-.8-1.3-.7-1.8-1.1-2.7-1.9-.2-.1-1.3-1-1.5-1.3a47 47 0 0 1-11.3-14.8l-.2-.5q-2.3-4.6-3.5-9.6l-.3-1.5c-.6-2 .2-4.2 1.9-5.3" style="fill:#30b64b"/><path d="M37.6 34q.7-.5 1.6-.7c2-.4 4 .5 5.2 2.1a97 97 0 0 0 11.7 13.3 53 53 0 0 0 9.8 7l1.3.7 1.2.6 1.3.7 2.7 1.6a44 44 0 0 1 16.8 18.6A30 30 0 0 1 92 90.1q0 3.8-.7 7.3-.6 1.7-2.3 2.4-1 .3-2 .2l-1.6-.3c-2-.4-3.4-2-4-3.8a34 34 0 0 0-6.9-13.4q-5-5.8-11.6-9.3l-1.7-.9-1.4-.8-1.3-.7-1.8-1.1-2.7-1.9-.2-.1-1.3-1-1.5-1.3a47 47 0 0 1-11.3-14.8l-.2-.5q-2.3-4.6-3.5-9.6l-.3-1.5a4 4 0 0 1 1.9-5" style="fill:#31b64b"/><path d="M37.6 34q.7-.5 1.6-.7c2-.3 4 .5 5.2 2.1A108 108 0 0 0 56 48.7a53 53 0 0 0 9.8 7l1.3.7 1.2.6 1.3.7 2.7 1.6a45 45 0 0 1 16.8 18.6 30 30 0 0 1 2.8 12.2q0 3.6-.7 7.2-.5 1.7-2.3 2.4-1 .4-2 .1l-1.6-.3c-1.9-.3-3.2-1.9-4-3.8a34 34 0 0 0-6.9-13.4q-5-5.8-11.6-9.3l-1.7-.9-1.4-.8-1.3-.7-1.8-1.1-2.7-1.8-.2-.1-1.3-1-1.5-1.2a47 47 0 0 1-11.3-14.8l-.2-.5a45 45 0 0 1-3.5-9.6l-.3-1.5c-.6-1.8.5-3.9 2-5" style="fill:#32b64b"/><path d="M37.6 34.1q.7-.5 1.6-.7c2-.3 4 .5 5.2 2.1A108 108 0 0 0 56 48.8a53 53 0 0 0 9.8 7l1.3.7 1.2.6 1.3.7 2.7 1.5a45 45 0 0 1 16.8 18.6 30 30 0 0 1 2.8 12.2q0 3.6-.7 7.2-.5 1.7-2.2 2.4-1 .4-2 .1l-1.6-.3c-1.9-.3-3.2-1.9-4-3.7a35 35 0 0 0-18.3-22.6l-1.7-.9-1.4-.8-1.3-.7-1.8-1.1-2.7-1.8-.2-.1-1.3-1-1.5-1.2a45 45 0 0 1-11.3-14.7l-.2-.5a45 45 0 0 1-3.5-9.6l-.3-1.5c-.8-2 0-4.1 1.7-5.2" style="fill:#33b64b"/><path d="M37.7 34.2q.7-.5 1.6-.7c2-.3 4 .5 5.1 2.1A97 97 0 0 0 56 48.8a53 53 0 0 0 9.8 7l1.3.6 1.2.6 1.3.7 2.7 1.5A44 44 0 0 1 89 77.7a30 30 0 0 1 2.8 12.2q.2 3.6-.7 7.2-.5 1.7-2.2 2.4-1 .3-2 .1l-1.6-.3c-1.9-.3-3.2-1.9-4-3.7a36 36 0 0 0-6.8-13.3Q69.7 76.5 63 73l-1.7-.9-1.4-.8-1.3-.7-1.8-1.1-2.7-1.8-.2-.1-1.3-1-1.5-1.2q-3-2.5-5.3-5.5a49 49 0 0 1-6-9.1l-.2-.5q-2.3-4.5-3.5-9.5l-.3-1.5c-.6-2 .2-4 1.9-5.1" style="fill:#34b74b"/><path d="M37.7 34.2q.7-.5 1.6-.7c2-.3 4 .5 5.1 2.1A97 97 0 0 0 56 48.8a42 42 0 0 0 11.1 7.5l1.2.6 1.3.7 2.7 1.5A43 43 0 0 1 89 77.6a30 30 0 0 1 2.8 12.2q.2 3.6-.7 7.2-.5 1.7-2.2 2.4-1 .3-2 .1l-1.6-.3c-1.8-.3-3.2-1.9-4-3.7a36 36 0 0 0-6.8-13.3A41 41 0 0 0 63 73l-1.7-.9-1.4-.8-1.3-.7-1.8-1.1-2.7-1.8-.2-.1-1.3-1-1.5-1.2q-3-2.5-5.3-5.5a49 49 0 0 1-6-9.1l-.2-.5q-2.3-4.5-3.5-9.5l-.3-1.5c-.5-2 .3-4 1.9-5.1" style="fill:#35b74b"/><path d="M37.7 34.3q.7-.5 1.6-.7c2-.3 4 .5 5.1 2.1A119 119 0 0 0 56 48.9a38 38 0 0 0 11.1 7.5l1.2.6 1.3.7 2.7 1.5A43 43 0 0 1 89 77.7a30 30 0 0 1 2.8 12.2q.2 3.6-.7 7.2-.5 1.8-2.2 2.3-1 .3-2 .1l-1.6-.3a6 6 0 0 1-3.9-3.7 34 34 0 0 0-6.8-13.2 43 43 0 0 0-11.5-9.2l-1.7-.9-1.4-.7-1.3-.7-1.8-1.1-2.7-1.8-.2-.1-1.3-1-1.5-1.2A54 54 0 0 1 40 50.9l-.2-.5q-2.3-4.5-3.5-9.5l-.3-1.5c-.6-1.9 0-4 1.7-5.1" style="fill:#36b74b"/><path d="M37.8 34.3q.7-.5 1.6-.7 3.1-.4 5.1 2.1a119 119 0 0 0 11.6 13.2 38 38 0 0 0 9.8 6.9l1.3.6 1.2.6 1.3.7 2.7 1.5a43 43 0 0 1 16.7 18.4 30 30 0 0 1 2.8 12.2q.2 3.6-.7 7.2-.5 1.7-2.2 2.3-1 .3-2 .1l-1.6-.3a6 6 0 0 1-3.9-3.7 34 34 0 0 0-6.8-13.2A44 44 0 0 0 63.3 73l-1.7-.9-1.4-.7-1.3-.7-1.8-1.1-2.7-1.8-.2-.1-1.3-1-1.5-1.2Q48.4 63 46 60a46 46 0 0 1-6-9.1l-.2-.5a44 44 0 0 1-3.9-10.8 5 5 0 0 1 1.9-5.3" style="fill:#37b74b"/><path d="M37.8 34.4q.7-.5 1.6-.7 3.1-.4 5.1 2.1A106 106 0 0 0 56.1 49a44 44 0 0 0 9.7 6.9l1.3.6 1.2.6 1.3.7 2.7 1.5A44 44 0 0 1 89 77.7a30 30 0 0 1 2.8 12q.2 3.7-.7 7.2-.5 1.8-2.2 2.3-1 .3-2 .1l-1.6-.3a6 6 0 0 1-3.9-3.7 35 35 0 0 0-6.8-13.1A42 42 0 0 0 63.2 73l-1.7-.9-1.4-.7-1.2-.7-1.8-1.1-2.7-1.8-.2-.1-1.3-1-1.5-1.2A54 54 0 0 1 40.1 51l-.2-.5a44 44 0 0 1-3.8-10.9c-.7-2 0-4 1.7-5.2" style="fill:#38b74b"/><path d="M37.8 34.5q.7-.5 1.6-.7 3.1-.2 5.1 2.1A93 93 0 0 0 56.1 49a44 44 0 0 0 9.7 6.9l1.3.6 1.2.6 1.3.7 2.7 1.5a41 41 0 0 1 16.6 18.4 30 30 0 0 1 2.8 12q.2 3.6-.7 7.2-.5 1.7-2.2 2.3-1 .3-2 .1l-1.5-.3c-1.8-.3-3.1-1.9-3.9-3.7a33 33 0 0 0-6.8-13q-4.8-5.6-11.4-9.1l-1.7-.9-1.4-.7-1.2-.7-1.8-1.1-2.6-1.8-.2-.1-1.3-1-1.5-1.2a54 54 0 0 1-11.3-14.4l-.2-.5a44 44 0 0 1-3.8-10.9c-.7-2 0-4.1 1.6-5.4" style="fill:#39b84b"/><path d="M37.9 34.5q.7-.5 1.6-.7 3.1-.2 5.1 2.1A94 94 0 0 0 56.1 49a63 63 0 0 0 9.6 6.9l1.3.6 1.2.6q.6.5 1.3.6l2.7 1.5a42 42 0 0 1 16.6 18.4 30 30 0 0 1 2.8 12q.2 3.6-.7 7.1-.5 1.7-2.2 2.3a4 4 0 0 1-1.9.1l-1.5-.3c-1.8-.3-3.1-1.9-3.9-3.7A35 35 0 0 0 63.3 73l-1.7-.9-1.4-.7-1.2-.7-1.8-1.1-2.6-1.8-.2-.1-1.3-1-1.5-1.2q-3-2.4-5.2-5.4a49 49 0 0 1-6-9l-.2-.5a53 53 0 0 1-3.9-10.8c-.8-2-.1-4.1 1.6-5.3" style="fill:#3ab84b"/><path d="M37.9 34.6c0-.2 1.5-.8 1.6-.7q3.1-.2 5 2.1A104 104 0 0 0 56 49.1a63 63 0 0 0 9.6 6.9l1.3.6 1.2.6q.6.4 1.3.6l2.7 1.5a45 45 0 0 1 16.6 18.4 35 35 0 0 1 2.9 12q.2 3.6-.6 7.1-.5 1.7-2.2 2.3a4 4 0 0 1-1.9.1l-1.5-.3c-1.8-.3-3.1-1.9-3.9-3.7a35 35 0 0 0-18.1-22.1l-1.7-.9-1.4-.7-1.2-.7-1.8-1.1-2.6-1.8-.2-.1-1.3-1-1.5-1.2q-3-2.4-5.2-5.4a49 49 0 0 1-6-9l-.2-.5a53 53 0 0 1-3.9-10.8c-.7-1.9-.1-4 1.5-5.3" style="fill:#3bb84b"/><path d="M37.9 34.7c0-.2 1.5-.8 1.6-.7q3.1-.2 5 2.2A104 104 0 0 0 56 49.3a63 63 0 0 0 9.6 6.9l1.3.6 1.2.6q.6.4 1.3.6l2.7 1.5a42 42 0 0 1 16.5 18.1 35 35 0 0 1 2.9 12q.2 3.6-.6 7.1-.5 1.7-2.2 2.3a4 4 0 0 1-1.9.1l-1.5-.3a6 6 0 0 1-3.9-3.7q-1.5-5.4-4.5-10l-2.3-3a43 43 0 0 0-12.9-10l-1.4-.7-1.2-.7-1.8-1.1-2.6-1.8-.2-.1-1.3-1-1.5-1.2q-3-2.4-5.2-5.4a46 46 0 0 1-6-9l-.2-.5a53 53 0 0 1-3.9-10.8c-.7-1.8 0-4 1.5-5.1" style="fill:#3cb84b"/><path d="M38 34.7c0-.2 1.5-.8 1.6-.7q3.1-.2 5 2.2a91 91 0 0 0 11.5 13 63 63 0 0 0 9.6 6.9l1.3.6 1.2.6q.6.4 1.3.6l2.7 1.5a43 43 0 0 1 14.4 14.1l2.2 4.1a35 35 0 0 1 2.9 12q.2 3.6-.6 7.1-.5 1.7-2.2 2.3-1 .2-1.9.1l-1.5-.3q-2.8-1-3.8-3.7-1.5-5.3-4.5-9.9l-2.3-3A41 41 0 0 0 62 72.3l-1.4-.7-1.2-.7-1.8-1.1L55 68l-.2-.1-1.3-1-1.5-1.2q-2.9-2.4-5.2-5.4a51 51 0 0 1-6.1-9l-.2-.5A53 53 0 0 1 36.6 40c-.8-1.9-.3-4 1.4-5.3" style="fill:#3db94c"/><path d="M38 34.8c0-.2 1.5-.8 1.6-.7q3.1-.2 5 2.2a91 91 0 0 0 11.5 13 50 50 0 0 0 9.6 6.8l1.3.6 1.2.6q.6.4 1.3.6l2.7 1.5a43 43 0 0 1 14.3 14l2.2 4.1a35 35 0 0 1 2.9 12q.2 3.6-.6 7.1a3 3 0 0 1-2.2 2.2 4 4 0 0 1-1.9 0l-1.5-.3c-1.8-.5-3.2-2-3.8-3.7q-1.5-5.3-4.5-9.9l-2.3-3A42 42 0 0 0 62 72l-1.4-.7-1.2-.7-1.8-1.1-2.8-1.9-1.3-1-1.5-1.2a48 48 0 0 1-11.3-14.3l-.2-.5a53 53 0 0 1-3.9-10.8 4 4 0 0 1 1.4-5" style="fill:#3eb94c"/><path d="M38 34.9a3 3 0 0 1 1.6-.7q3.1-.2 5 2.2a100 100 0 0 0 11.5 13 50 50 0 0 0 9.6 6.8l1.3.6 1.1.6q.6.4 1.3.6l2.7 1.5a43 43 0 0 1 14.3 14l2.2 4.1a37 37 0 0 1 2.9 11.9q.2 3.6-.6 7.1a3 3 0 0 1-2.2 2.2 4 4 0 0 1-1.9 0l-1.5-.3c-1.8-.5-3.2-2-3.8-3.7Q80 89.5 77 84.9l-2.3-3A40 40 0 0 0 61.9 72l-1.4-.7-1.2-.7-1.8-1.1-2.8-1.9-1.3-1-1.4-1.2a50 50 0 0 1-11.3-14.2l-.2-.5a53 53 0 0 1-3.9-10.8 4 4 0 0 1 1.4-5" style="fill:#3fb94c"/><path d="M38.1 34.9c0-.2 1.4-.8 1.5-.6q3.1-.2 5 2.2 4 5.6 8.9 10.5l2.5 2.5a50 50 0 0 0 9.6 6.8l1.3.6 1.1.6q.6.4 1.3.6l2.7 1.5a43 43 0 0 1 14.3 14l2.2 4.1a37 37 0 0 1 2.9 11.9q.2 3.6-.6 7.1a3 3 0 0 1-2.2 2.2 4 4 0 0 1-1.9 0l-1.5-.3q-2.7-.8-3.8-3.7-1.5-5.3-4.5-9.8l-2.3-3a42 42 0 0 0-12.8-9.9l-1.4-.7-1.2-.7-1.8-1.1-2.8-1.9-1.3-1-1.4-1.2a50 50 0 0 1-11.3-14.2l-.2-.5a50 50 0 0 1-3.9-10.8c-.6-1.9 0-4 1.6-5.2" style="fill:#40b94c"/><path d="M38.1 35c0-.2 1.4-.8 1.5-.6q3.1-.2 4.9 2.2Q48.6 42 53.3 47l2.5 2.5a50 50 0 0 0 9.6 6.8l1.3.6 1.1.6q.6.4 1.3.6l2.7 1.5a42 42 0 0 1 14.3 13.9l2.2 4.1a35 35 0 0 1 2.9 11.9q.2 3.6-.6 7.1a3 3 0 0 1-2.2 2.2 4 4 0 0 1-1.9 0l-1.5-.3a6 6 0 0 1-3.8-3.7A32 32 0 0 0 74.4 82a41 41 0 0 0-12.7-9.8l-1.4-.7-1.2-.7-1.8-1.1-2.8-1.9-1.3-1-1.4-1.2a50 50 0 0 1-11.3-14.2l-.2-.5a49 49 0 0 1-3.9-10.7 5 5 0 0 1 1.7-5.2" style="fill:#41ba4c"/><path d="M38.2 35.1c0-.2 1.4-.8 1.5-.6q3.1-.2 4.9 2.2 4.1 5.4 8.8 10.4l2.5 2.5a58 58 0 0 0 9.5 6.8l1.3.6 1.1.6q.6.4 1.3.6l2.7 1.5a42 42 0 0 1 14.3 13.9l2.2 4.1a33 33 0 0 1 2.9 11.9q.2 3.6-.6 7a3 3 0 0 1-2.2 2.2 4 4 0 0 1-1.9 0l-1.5-.3a6 6 0 0 1-3.8-3.7A33 33 0 0 0 74.4 82a41 41 0 0 0-14.1-10.5l-1.2-.7-1.8-1.1-2.6-1.7-.2-.1-1.3-1-1.4-1.2a50 50 0 0 1-11.3-14.2l-.2-.5a49 49 0 0 1-3.9-10.7 5 5 0 0 1 1.8-5.2" style="fill:#42ba4c"/><path d="M38.2 35.1c0-.2 1.4-.8 1.5-.6q3-.1 4.9 2.2a113 113 0 0 0 11.3 12.8 48 48 0 0 0 9.5 6.8l1.3.6 1.1.6q.6.4 1.3.6l2.7 1.5A40 40 0 0 1 86 73.5l2.2 4.1a33 33 0 0 1 2.9 11.8q.2 3.6-.6 7a3 3 0 0 1-2.2 2.2h-1.9l-1.5-.3q-2.7-1-3.7-3.7A33 33 0 0 0 74.4 82a41 41 0 0 0-14.1-10.5l-1.2-.7-1.8-1.1-2.6-1.7-.2-.1-1.3-1-1.4-1.2a50 50 0 0 1-11.3-14.1l-.2-.5a44 44 0 0 1-3.9-10.7q-.5-3.2 1.8-5.3" style="fill:#43ba4c"/><path d="M38.2 35.2c0-.2 1.4-.8 1.5-.6a6 6 0 0 1 4.9 2.2 99 99 0 0 0 11.3 12.8 42 42 0 0 0 9.5 6.8l1.3.6 1.1.6q.6.4 1.3.6l2.7 1.5A43 43 0 0 1 86 73.5l2.2 4.1a33 33 0 0 1 2.9 11.8q.2 3.6-.6 7a3 3 0 0 1-2.2 2.2h-1.9l-1.5-.4q-2.7-1-3.7-3.7a33 33 0 0 0-6.7-12.6 41 41 0 0 0-14.1-10.5l-1.2-.7-1.7-1-2.6-1.7-.2-.1-1.3-1-1.4-1.2a48 48 0 0 1-11.3-14l-.2-.5a44 44 0 0 1-3.9-10.7q-.8-3.2 1.6-5.3" style="fill:#44ba4c"/><path d="M38.3 35.2c0-.2 1.4-.8 1.5-.6a6 6 0 0 1 4.9 2.2A99 99 0 0 0 56 49.6a42 42 0 0 0 9.5 6.8l1.3.6 1.1.5q.6.4 1.3.6l2.7 1.5a43 43 0 0 1 14.2 13.8l2.2 4.1a33 33 0 0 1 2.9 11.8q.2 3.6-.6 7-.4 1.7-2.2 2.1h-1.8l-1.5-.4q-2.7-1-3.7-3.7a33 33 0 0 0-6.7-12.6 39 39 0 0 0-14-10.4l-1.2-.7-1.7-1-2.6-1.7-.2-.1-1.3-1-1.4-1.2a48 48 0 0 1-11.2-14l-.2-.5q-2.4-4.4-3.6-9.3l-.3-1.4c-.7-1.8-.2-4 1.3-5.2" style="fill:#45ba4c"/><path d="M38.3 35.3c0-.2 1.4-.8 1.5-.6a6 6 0 0 1 4.9 2.2A97 97 0 0 0 56 49.6a41 41 0 0 0 9.5 6.7l1.3.6 1.1.5 1.2.6 2.7 1.5A43 43 0 0 1 86 73.3l2.2 4.1a34 34 0 0 1 2.9 11.7q.2 3.6-.6 7-.4 1.7-2.2 2.1h-1.8l-1.4-.4q-2.7-1-3.7-3.7a34 34 0 0 0-17.7-21.4l-1.6-.9-1.4-.7-1.2-.7-1.7-1-2.6-1.7-.2-.1-1.3-1-1.4-1.2a48 48 0 0 1-11.2-14l-.2-.5q-2.4-4.4-3.6-9.3l-.3-1.4c-.9-1.7 0-3.8 1.3-4.9" style="fill:#46bb4c"/><path d="M38.3 35.4c0-.2 1.4-.8 1.5-.6a6 6 0 0 1 4.9 2.2A97 97 0 0 0 56 49.7a41 41 0 0 0 13 8.4l2.6 1.5a43 43 0 0 1 14.2 13.7l2.2 4A34 34 0 0 1 90.9 89q.2 3.6-.6 7a3 3 0 0 1-2.2 2.1h-1.8l-1.4-.4c-1.7-.4-2.9-1.9-3.7-3.7a32 32 0 0 0-6.7-12.5 41 41 0 0 0-11-8.8L62 72l-1.4-.7-1.2-.7-1.7-1-2.6-1.7-.2-.1-1.3-.9-1.4-1.2a36 36 0 0 1-5.1-5.2 45 45 0 0 1-6.1-8.8l-.2-.5q-2.3-4.5-3.6-9.2l-.3-1.4a5 5 0 0 1 1.4-5.2" style="fill:#47bb4c"/><path d="M38.4 35.4c-.1-.2 1.4-.8 1.5-.6q3-.1 4.8 2.2A111 111 0 0 0 56 49.7a41 41 0 0 0 12.9 8.4l2.6 1.5q8.7 5.1 14.2 13.7l2.2 4A34 34 0 0 1 90.8 89q.2 3.6-.6 7-.4 1.6-2 2.2h-1.8l-1.4-.4q-2.5-.8-3.7-3.7a32 32 0 0 0-6.7-12.5 42 42 0 0 0-13.9-10.4l-1.2-.7-1.7-1-2.6-1.7-.2-.1-1.3-.9-1.4-1.1a45 45 0 0 1-11.2-13.9l-.2-.5q-2.4-4.4-3.7-9.3l-.3-1.4a5 5 0 0 1 1.5-5.2" style="fill:#48bb4c"/><path d="M38.4 35.5c-.1-.2 1.4-.8 1.5-.6q3 0 4.8 2.3a108 108 0 0 0 11.2 12.7 41 41 0 0 0 12.9 8.4l2.6 1.5a41 41 0 0 1 14.1 13.7l2.2 4a34 34 0 0 1 2.9 11.7q.1 3.5-.5 7a3 3 0 0 1-2.1 2.1q-.9.1-1.8-.1l-1.4-.4q-2.5-.8-3.7-3.7a32 32 0 0 0-6.7-12.5 42 42 0 0 0-10.9-8.8l-1.6-.9-1.4-.7-1.2-.7-1.7-1-2.6-1.7-.2-.1-1.3-.9-1.4-1.1a49 49 0 0 1-11.2-13.9l-.2-.5q-2.4-4.5-3.6-9.2l-.3-1.4q-.6-3 1.6-5.2" style="fill:#49bb4c"/><path d="M38.4 35.6c-.1-.2 1.4-.8 1.5-.6q3 0 4.8 2.3a95 95 0 0 0 8.7 10.2l2.5 2.4a41 41 0 0 0 12.8 8.3l2.6 1.5q8.6 5.2 14.1 13.6l2.2 4A34 34 0 0 1 90.5 89q.1 3.4-.5 6.9a3 3 0 0 1-2.1 2.1q-.9.1-1.8-.1l-1.4-.4q-2.6-1-3.6-3.7a31 31 0 0 0-6.7-12.4q-4.6-5.3-10.9-8.7l-1.6-.9-1.4-.7-1.2-.7-1.7-1-4-2.7-1.4-1.1A47 47 0 0 1 41 51.8l-.2-.5q-2.4-4.5-3.6-9.2l-.3-1.4q-.6-3 1.5-5.1" style="fill:#4abc4d"/><path d="M38.5 35.6c-.1-.2 1.4-.8 1.5-.6q3 0 4.8 2.3a95 95 0 0 0 8.7 10.2l2.5 2.4a48 48 0 0 0 9.2 6.6l1.2.6 1.1.5 1.2.6 2.6 1.5a43 43 0 0 1 16.3 17.6A34 34 0 0 1 90.5 89q.2 3.4-.5 6.9a3 3 0 0 1-2.1 2.1q-.9.1-1.8-.1l-1.4-.4q-2.6-1-3.6-3.7a32 32 0 0 0-6.7-12.4 41 41 0 0 0-10.9-8.7l-1.6-.9-1.4-.7-1.2-.7-1.7-1-4-2.7-1.4-1.1a41 41 0 0 1-10.9-13.8l-.2-.5q-2.4-4.5-3.6-9.2l-.3-1.4a5 5 0 0 1 1.3-5.1" style="fill:#4bbc4d"/><path d="M38.5 35.7c-.1-.2 1.4-.8 1.5-.6q3 0 4.8 2.3 4 5.4 8.7 10.2L56 50a48 48 0 0 0 9.2 6.6l1.2.6 1.1.5 1.2.6 2.6 1.5a42 42 0 0 1 16.3 17.6 34 34 0 0 1 3 11.7q.2 3.4-.5 6.9-.4 1.6-2.1 2-.9.1-1.8-.1l-1.4-.4q-2.6-1-3.6-3.7a36 36 0 0 0-6.6-12.4 43 43 0 0 0-10.8-8.7l-1.6-.9-1.3-.7-1.2-.7-1.7-1-4-2.7-1.4-1.1a41 41 0 0 1-5.1-5.1 44 44 0 0 1-6.1-8.7l-.2-.5q-2.3-4.5-3.7-9.2l-.3-1.4q-.8-2.9 1.3-5" style="fill:#4cbc4d"/><path d="M38.5 35.8c-.1-.2 1.4-.8 1.5-.6q3 0 4.8 2.3 4 5.4 8.7 10.2l2.5 2.4a59 59 0 0 0 9.2 6.6l1.2.6 1.1.5 1.2.6 2.6 1.4a41 41 0 0 1 16.3 17.5 34 34 0 0 1 3 11.5q.2 3.4-.5 6.9-.4 1.6-2.1 2-.9.1-1.8-.1l-1.4-.4q-2.6-1-3.6-3.6a34 34 0 0 0-6.6-12.3 43 43 0 0 0-10.8-8.7l-1.6-.9-1.3-.7-1.2-.7-1.7-1-2.5-1.7-.1-.1-1.3-.9-1.4-1.1a48 48 0 0 1-11.2-13.7l-.2-.5q-2.4-4.4-3.7-9.2l-.3-1.4a4.4 4.4 0 0 1 1.2-4.9" style="fill:#4dbc4d"/><path d="M38.6 35.8c-.1-.2 1.4-.8 1.5-.6q2.9 0 4.7 2.3 3.9 5.4 8.7 10.1L56 50a59 59 0 0 0 9.2 6.6l1.2.6 1.1.5 1.2.6 2.6 1.4a41 41 0 0 1 16.2 17.5 34 34 0 0 1 3 11.5q.2 3.4-.5 6.9-.4 1.6-2.1 2-.9.1-1.8-.1l-1.4-.4q-2.6-1-3.6-3.6a34 34 0 0 0-17.4-20.8l-1.6-.9-1.3-.7-1.2-.7-1.7-1-2.5-1.7-.1-.1-1.3-.9-1.4-1.1a48 48 0 0 1-11.2-13.7l-.2-.5q-2.4-4.4-3.7-9.1l-.3-1.4c-.5-1.8 0-3.8 1.4-5.1" style="fill:#4ebd4d"/><path d="M38.6 35.9c-.1-.2 1.3-.8 1.5-.6q2.9 0 4.7 2.3 3.9 5.4 8.7 10.1l2.5 2.4a40 40 0 0 0 9.2 6.5l1.2.6 1.1.5 1.2.6 2.6 1.4a41 41 0 0 1 16.2 17.5 34 34 0 0 1 3 11.5q.2 3.4-.5 6.9-.4 1.6-2.1 2-.8.1-1.7-.1l-1.4-.4c-1.6-.4-2.8-1.9-3.6-3.6a34 34 0 0 0-17.3-20.8l-1.6-.9-1.3-.7-1.2-.7-1.7-1-2.5-1.7-.1-.1-1.3-.9-1.4-1.1A48 48 0 0 1 41.6 52l-.2-.5q-2.4-4.4-3.7-9.1l-.3-1.4a5 5 0 0 1 1.2-5.1" style="fill:#4fbd4d"/><path d="M38.6 36c-.1-.2 1.3-.8 1.5-.6q2.9 0 4.7 2.3 3.9 5.4 8.7 10.1l2.5 2.4a40 40 0 0 0 9.2 6.5l1.2.6 1.1.5 1.2.6 2.6 1.4a43 43 0 0 1 16.1 17.4 34 34 0 0 1 3 11.5q.2 3.4-.5 6.9-.4 1.6-2.1 2-.8.1-1.7-.1l-1.4-.4q-2.6-1-3.6-3.6a35 35 0 0 0-6.6-12.2q-4.6-5.1-10.7-8.6l-1.6-.9-1.3-.7-1.2-.7-1.7-1-2.5-1.7-.1-.1-1.2-.9-1.4-1.1A48 48 0 0 1 41.6 52l-.2-.5q-2.4-4.4-3.7-9.1l-.3-1.4a5 5 0 0 1 1.2-5" style="fill:#50bd4d"/><path d="M38.7 36c-.1-.2 1.3-.8 1.5-.6q2.9 0 4.7 2.3 4 5.4 8.6 10.1l2.5 2.4a47 47 0 0 0 9.2 6.5l1.2.6 1.1.5 1.2.6 2.6 1.4a42 42 0 0 1 16.1 17.4 34 34 0 0 1 3 11.5q.2 3.4-.5 6.9-.4 1.6-2.1 2l-1.7-.1-1.4-.4a6 6 0 0 1-3.5-3.6 33 33 0 0 0-6.6-12.1q-4.6-5.1-10.7-8.6l-1.6-.9-1.3-.7-1.2-.7-1.7-1-2.5-1.7-.1-.1-1.2-.9-1.4-1.1a39 39 0 0 1-5-5 43 43 0 0 1-6.1-8.6l-.2-.5q-2.4-4.4-3.7-9.1l-.3-1.4a5 5 0 0 1 1.1-5.1" style="fill:#51bd4d"/><path d="M38.7 36.1c-.1-.2 1.3-.8 1.5-.6q2.9 0 4.7 2.3 4 5.3 8.6 10.1l2.5 2.4a47 47 0 0 0 11.5 7.6l1.2.6 2.6 1.4a42 42 0 0 1 16.1 17.4 34 34 0 0 1 3 11.5 25 25 0 0 1-.5 6.8q-.4 1.6-2.1 2l-1.7-.1-1.4-.4a6 6 0 0 1-3.5-3.6 33 33 0 0 0-17.3-20.6l-1.6-.9-1.3-.7-1.2-.7-1.7-1-2.5-1.6-.1-.1-1.2-.9-1.4-1.1a46 46 0 0 1-11.1-13.5l-.2-.5q-2.4-4.4-3.7-9.1l-.3-1.4a5 5 0 0 1 1.1-5.3" style="fill:#52bd4d"/><path d="M38.7 36.1c-.1-.2 1.3-.8 1.5-.6a6 6 0 0 1 4.7 2.3A102 102 0 0 0 56 50.2a56 56 0 0 0 10.3 7.1l1.1.5 1.2.6 2.6 1.4a41 41 0 0 1 16 17.2 34 34 0 0 1 3 11.5q.2 3.5-.5 6.8-.4 1.6-2.1 2l-1.7-.1-1.4-.4a6 6 0 0 1-3.5-3.6 33 33 0 0 0-6.6-12.1 39 39 0 0 0-12.1-9.3l-1.3-.7-1.2-.7-1.7-1-2.5-1.6-.1-.1-1.2-.9-1.4-1.1a43 43 0 0 1-11.1-13.5l-.2-.5a40 40 0 0 1-4.1-10.5q-.7-2.8 1.2-5.1" style="fill:#53be4d"/><path d="M38.8 36.2c-.1-.2 1.3-.8 1.5-.6q2.9.1 4.7 2.3a102 102 0 0 0 11.1 12.4 56 56 0 0 0 10.3 7.1l1.1.5 1.2.6 2.6 1.4a41 41 0 0 1 16 17.2 34 34 0 0 1 3 11.4q.2 3.5-.5 6.8-.4 1.6-2.1 1.9-1 0-1.7-.2l-1.3-.4a6 6 0 0 1-3.5-3.6 31 31 0 0 0-6.6-12 39 39 0 0 0-12.1-9.3l-1.3-.7-1.2-.6-1.7-1-2.5-1.6-.1-.1-1.2-.9-1.4-1.1A43 43 0 0 1 42 52.2l-.2-.5a42 42 0 0 1-4.1-10.4 5 5 0 0 1 1.1-5.1" style="fill:#54be4d"/><path d="M38.8 36.3c-.1-.2 1.3-.8 1.5-.6q2.8 0 4.6 2.3A102 102 0 0 0 56 50.4a56 56 0 0 0 10.3 7.1l1.1.5 1.2.6 2.6 1.4a42 42 0 0 1 16 17.2 33 33 0 0 1 3 11.4q.2 3.5-.5 6.8-.4 1.6-2.1 1.9l-1.7-.2-1.3-.4a6 6 0 0 1-3.5-3.6 33 33 0 0 0-6.6-12 39 39 0 0 0-12.1-9.3l-1.3-.7-1.2-.6-1.7-1-2.5-1.6-.1-.1-1.2-.9-1.4-1.1a46 46 0 0 1-11.1-13.4l-.2-.5a42 42 0 0 1-4.1-10.4q-.7-2.9 1.2-5.2" style="fill:#55be4d"/><path d="M38.8 36.3c-.1-.2 1.3-.8 1.5-.6q2.8.2 4.6 2.4A102 102 0 0 0 56 50.4a56 56 0 0 0 10.3 7.1l1.1.5 1.2.6 2.6 1.4a42 42 0 0 1 16 17.1 33 33 0 0 1 3 11.4q.2 3.5-.4 6.8-.4 1.6-2.1 1.9L86 97l-1.3-.4q-2.5-1.1-3.5-3.6a34 34 0 0 0-18.6-21.2l-1.3-.7-1.2-.6-1.7-1-2.5-1.6-.1-.1-1.2-.9-1.4-1.1a46 46 0 0 1-15.4-24.3 5 5 0 0 1 1-5.2" style="fill:#56be4d"/><path d="M38.9 36.4c-.1-.2 1.3-.8 1.4-.6q2.8.1 4.6 2.4A101 101 0 0 0 56 50.4a44 44 0 0 0 10.3 7l1.1.5 1.2.6 2.6 1.4a41 41 0 0 1 16 17.1 30 30 0 0 1 2.6 18.1q-.4 1.6-2.1 1.9l-1.7-.2-1.3-.4q-2.5-1-3.4-3.6a32 32 0 0 0-6.6-11.9 42 42 0 0 0-12-9.2l-1.3-.7-1.1-.6-1.7-1-2.5-1.6-.1-.1-1.2-.9-1.4-1.1A45 45 0 0 1 38 41.5c-.8-1.7-.4-3.7.9-5.1" style="fill:#57bf4e"/><path d="M38.9 36.5c-.1-.2 1.3-.8 1.4-.6q2.8.1 4.6 2.4a100 100 0 0 0 11 12.2 44 44 0 0 0 10.3 7l1.1.5 1.2.6 2.6 1.4A41 41 0 0 1 87 77.1a30 30 0 0 1 2.6 18.1q-.4 1.6-2.1 1.9-1 0-1.7-.2l-1.3-.4a6 6 0 0 1-3.4-3.6A32 32 0 0 0 74.5 81a42 42 0 0 0-12-9.2l-1.3-.7-1.1-.6-1.7-1-2.5-1.6-.1-.1-1.2-.9-1.4-1.1a45 45 0 0 1-15.4-24.1 5 5 0 0 1 1.1-5.2" style="fill:#58bf4e"/><path d="M38.9 36.5c-.1-.2 1.3-.8 1.4-.6q2.8.1 4.6 2.4a100 100 0 0 0 11 12.2 44 44 0 0 0 10.3 7l1.1.5 1.2.6 2.6 1.4A41 41 0 0 1 87 77a30 30 0 0 1 2.6 18q-.4 1.6-2.1 1.9-1 0-1.7-.2l-1.3-.4a6 6 0 0 1-3.4-3.6 33 33 0 0 0-17-20.2l-1.5-.8-1.3-.7-1.1-.6-1.7-1-2.5-1.6-.1-.1-1.2-.9-1.4-1.1a45 45 0 0 1-15.4-24.1 5 5 0 0 1 1-5.1" style="fill:#59bf4e"/><path d="M39 36.6c-.1-.2 1.3-.8 1.4-.6q2.8.1 4.6 2.4a90 90 0 0 0 10.9 12.2A44 44 0 0 0 65 57l1.2.6 1.1.5 1.2.6 2.6 1.4a41 41 0 0 1 15.9 17 30 30 0 0 1 2.6 18q-.4 1.6-2.1 1.9l-1.6-.2c-.1-.1-1.2-.3-1.3-.5a6 6 0 0 1-3.4-3.6 33 33 0 0 0-18.4-20.9l-1.3-.7-1.1-.6-1.7-1-2.5-1.6-.1-.1-1.2-.9-1.4-1.1a45 45 0 0 1-15.4-24 5 5 0 0 1 .9-5.2" style="fill:#5abf4e"/><path d="M39 36.7c-.1-.2 1.3-.8 1.4-.6q2.8.2 4.6 2.4a88 88 0 0 0 10.9 12.1A44 44 0 0 0 65 57l1.2.6 1.1.5 1.2.6 2.6 1.4a41 41 0 0 1 15.9 17 32 32 0 0 1 3 11.2q.2 3.3-.4 6.7-.4 1.6-2.1 1.8l-1.6-.2c-.1-.1-1.2-.3-1.3-.5q-2.4-1.1-3.4-3.6-1.5-4.8-4.4-9l-2.1-2.7a39 39 0 0 0-11.9-9.1l-1.3-.7-1.1-.6-1.6-1-2.4-1.6-.1-.1-1.2-.9-1.4-1.1q-2.7-2.1-5-4.8a45 45 0 0 1-6.1-8.4l-.3-.4a41 41 0 0 1-4.1-10.3 5 5 0 0 1 .8-5.1" style="fill:#5bc04e"/><path d="M39 36.7c-.1-.2 1.3-.8 1.4-.6a6 6 0 0 1 4.5 2.4 88 88 0 0 0 10.9 12.1 54 54 0 0 0 9 6.4l1.2.6 1.1.5 1.2.6 2.6 1.4A42 42 0 0 1 86.8 77a32 32 0 0 1 3 11.2q.2 3.4-.4 6.7-.4 1.6-2.1 1.8l-1.6-.2c-.1-.1-1.2-.3-1.3-.5Q82 94.9 81 92.4q-1.5-4.8-4.4-9l-2.1-2.7a39 39 0 0 0-11.9-9.1l-1.3-.7-1.1-.6-1.6-1-2.4-1.6-.1-.1-1.2-.9-1.4-1.1q-2.7-2.1-4.9-4.7a42 42 0 0 1-6.1-8.4l-.3-.4a41 41 0 0 1-3.7-8.9l-.4-1.4c-.6-1.7-.3-3.7.9-5.1" style="fill:#5cc04e"/><path d="M39.1 36.8c-.1-.2 1.3-.8 1.4-.6a6 6 0 0 1 4.5 2.4 97 97 0 0 0 10.9 12.1 54 54 0 0 0 5.6 4.4l2.8 1.7q.3 0 .5.3l1.2.6 1.1.5 1.2.6 2.6 1.4a42 42 0 0 1 15.9 16.9 32 32 0 0 1 3 11.2q.2 3.3-.4 6.7-.4 1.6-2.1 1.8l-1.6-.2c-.1-.1-1.2-.3-1.3-.5-1.5-.5-2.6-2-3.4-3.6q-1.5-4.8-4.4-9l-2.1-2.7a43 43 0 0 0-11.8-9.1l-1.3-.7-1.1-.6-1.6-1-2.4-1.6-.1-.1-1.2-.9-1.4-1.1q-2.7-2.1-4.9-4.7a42 42 0 0 1-6.1-8.4l-.3-.4a39 39 0 0 1-3.7-8.9l-.4-1.4c-.6-1.7-.3-3.7.9-5.1" style="fill:#5dc04e"/><path d="M39.1 36.9c-.1-.2 1.3-.8 1.4-.6a6 6 0 0 1 4.5 2.4 97 97 0 0 0 10.9 12.1q2.6 2.3 5.6 4.4l2.8 1.7q.3 0 .5.3l1.2.6 1.1.5 1.2.6 2.6 1.4a41 41 0 0 1 15.8 16.8 32 32 0 0 1 3 11.2q.3 3.3-.4 6.7-.4 1.6-2 1.8l-1.6-.2c-.1-.1-1.2-.3-1.3-.5Q82 95 81.1 92.5a31 31 0 0 0-4.4-8.9l-2.1-2.7a40 40 0 0 0-11.8-9l-1.3-.7-1.1-.6-1.6-1-2.4-1.6-.1-.1-1.2-.9-1.4-1q-2.7-2.1-4.9-4.7a42 42 0 0 1-6.1-8.4l-.3-.4a45 45 0 0 1-3.8-8.9l-.4-1.4q-.9-2.9.9-5.3" style="fill:#5ec04e"/><path d="M39.2 36.9c-.1-.2 1.3-.8 1.4-.6q2.8.2 4.5 2.4A97 97 0 0 0 56 50.8q2.6 2.3 5.6 4.4l2.8 1.7q.3 0 .5.3l1.2.6 1.1.5 1.2.6 2.5 1.4A40 40 0 0 1 86.7 77a32 32 0 0 1 3 11.2q.3 3.4-.4 6.7-.4 1.6-2 1.8l-1.6-.3c-.1-.1-1.2-.3-1.3-.5q-2.3-1.1-3.3-3.6-1.5-4.8-4.4-8.9l-2.1-2.7a38 38 0 0 0-11.8-9l-1.3-.7-1.1-.6-1.6-1-2.4-1.6-.1-.1-1.3-.9-1.4-1q-2.7-2.1-4.9-4.7a39 39 0 0 1-6.1-8.4l-.3-.4a45 45 0 0 1-3.8-8.9l-.4-1.4a6 6 0 0 1 1.1-5.1" style="fill:#5fc04e"/><path d="M39.2 37c-.1-.3 1.2-.8 1.4-.6q2.8.2 4.5 2.4a96 96 0 0 0 10.8 12q2.6 2.4 5.6 4.3l2.8 1.7q.3 0 .5.3l1.2.6 1.1.5 1.2.6 2.5 1.4a40 40 0 0 1 15.8 16.7 32 32 0 0 1 3 11.2q.3 3.3-.4 6.7-.4 1.6-2 1.8-.8 0-1.6-.3c-.1-.1-1.2-.3-1.3-.5Q82 94.7 81 92.2q-1.5-4.8-4.4-8.9l-2.1-2.7a38 38 0 0 0-11.8-9l-1.3-.7-1.1-.6-1.6-1-2.4-1.6-.1-.1-1.2-.9-1.4-1q-2.7-2.1-4.9-4.7a46 46 0 0 1-6.2-8.3l-.3-.4a45 45 0 0 1-3.8-8.9L38 42q-.6-2.8 1.2-5" style="fill:#60c14e"/><path d="M39.2 37c-.1-.3 1.2-.8 1.4-.6q2.8.3 4.5 2.4a96 96 0 0 0 10.8 12 44 44 0 0 0 5.6 4.3l2.8 1.7q.3 0 .5.3l1.1.6 1.1.5 1.2.6 2.5 1.4a41 41 0 0 1 15.8 16.7 32 32 0 0 1 3 11.1 24 24 0 0 1-.4 6.6q-.4 1.6-2 1.8-.8 0-1.6-.3c-.1-.2-1.2-.3-1.2-.5Q81.9 94.5 81 92q-1.5-4.8-4.4-8.8l-2.1-2.7a42 42 0 0 0-11.7-9l-1.3-.7-1.1-.6-1.6-1-2.4-1.6-.1-.1-1.2-.9-1.4-1q-2.7-2.1-4.9-4.7a46 46 0 0 1-6.2-8.3l-.3-.4a47 47 0 0 1-3.8-8.8l-.4-1.4q-.5-2.7 1.1-5" style="fill:#61c14e"/><path d="M39.3 37.1c-.1-.3 1.2-.8 1.4-.6q2.6.3 4.4 2.4a95 95 0 0 0 10.8 12 44 44 0 0 0 5.6 4.3l2.8 1.7q.3 0 .5.3l1.1.6 1.1.5 1.2.6 2.5 1.4a42 42 0 0 1 15.8 16.6 31 31 0 0 1 3 11 24 24 0 0 1-.4 6.6 2 2 0 0 1-2 1.7q-.8 0-1.6-.3c-.1-.2-1.2-.3-1.2-.5q-2.4-1.1-3.3-3.6-1.5-4.7-4.4-8.8l-2.1-2.7a42 42 0 0 0-11.7-8.9l-1.3-.7-1.1-.6-1.6-.9-2.4-1.5-.1-.1-1.2-.8-1.4-1q-2.7-2.2-4.9-4.6a46 46 0 0 1-6.2-8.3l-.3-.4a44 44 0 0 1-3.8-8.8l-.4-1.4q-.6-2.8 1.2-5.2" style="fill:#62c14e"/><path d="M39.3 37.2c-.1-.3 1.2-.8 1.4-.6q2.6.3 4.4 2.5a95 95 0 0 0 10.8 12 44 44 0 0 0 5.6 4.3l2.8 1.7q.3 0 .5.3l1.1.6 1.1.5 1.2.6 2.5 1.4a41 41 0 0 1 15.7 16.6 31 31 0 0 1 3 11q.3 3.3-.4 6.6-.4 1.5-2 1.7-.8 0-1.6-.3c-.1-.2-1.2-.3-1.2-.5q-2.3-1.1-3.3-3.6-1.5-4.7-4.4-8.8l-2.1-2.7a40 40 0 0 0-11.7-8.9l-1.3-.7-1.1-.6-1.6-.9-2.4-1.5-.1-.1L55 67l-1.3-1q-2.7-2.2-4.9-4.6a46 46 0 0 1-6.2-8.3l-.3-.4a44 44 0 0 1-3.8-8.8l-.4-1.4q-.5-2.9 1.2-5.3" style="fill:#63c14e"/><path d="M39.3 37.2c-.1-.3 1.2-.8 1.4-.6q2.6.3 4.4 2.5 3.9 5.1 8.4 9.6l2.4 2.3q2.6 2.4 5.5 4.3l2.8 1.7q.3 0 .5.3l1.1.6 1.1.5 1.2.6 2.5 1.4a39 39 0 0 1 15.8 16.4 31 31 0 0 1 3 11q.3 3.3-.3 6.6-.4 1.5-2 1.7l-1.5-.3c-.1-.2-1.2-.3-1.2-.5q-2.3-1.1-3.2-3.6-1.5-4.7-4.4-8.8l-2.1-2.7a41 41 0 0 0-11.6-8.9l-1.3-.7-1.1-.6-1.6-.9-2.4-1.5-.1-.1-1.2-.8-1.3-1q-2.7-2.2-4.9-4.6a46 46 0 0 1-6.2-8.3l-.3-.4a44 44 0 0 1-3.8-8.8l-.4-1.4q-.7-2.7.8-5" style="fill:#64c24f"/><path d="M39.4 37.3c-.1-.3 1.2-.8 1.4-.6q2.7.4 4.4 2.5 3.9 5.1 8.4 9.6l2.4 2.3q2.6 2.4 5.5 4.3l2.8 1.7q.3 0 .5.3l1.1.6 1.1.5 1.2.6 2.5 1.4a38 38 0 0 1 15.7 16.3 31 31 0 0 1 3 11q.3 3.3-.3 6.6-.4 1.5-2 1.7l-1.5-.3c-.1-.2-1.2-.3-1.2-.5q-2.3-1.2-3.2-3.6a32 32 0 0 0-6.4-11.3 39 39 0 0 0-11.6-8.9l-1.3-.7-1.1-.6-1.6-.9-2.4-1.5-.1-.1-1.2-.8-1.3-1q-2.7-2.2-4.9-4.6a46 46 0 0 1-6.2-8.3l-.3-.4a44 44 0 0 1-3.8-8.8l-.4-1.4q-.9-2.7.8-5.1" style="fill:#65c24f"/><path d="M39.4 37.4c-.1-.3 1.2-.8 1.4-.6q2.7.4 4.4 2.5 3.9 5.1 8.4 9.6l2.4 2.3a51 51 0 0 0 8.8 6.2l1.1.6 1.1.5 1.2.6 2.5 1.4A41 41 0 0 1 86.4 77a31 31 0 0 1 3 11q.3 3.3-.3 6.6-.4 1.5-2 1.7l-1.5-.3c-.1-.2-1.1-.3-1.2-.5q-2.3-1.2-3.2-3.5a32 32 0 0 0-6.4-11.3 39 39 0 0 0-11.6-8.9l-1.2-.7-1.1-.6-1.6-.9-2.4-1.5-.1-.1-1.2-.8-1.3-1q-2.6-2.1-4.9-4.6a49 49 0 0 1-6.2-8.2l-.3-.4a44 44 0 0 1-3.8-8.8l-.4-1.3q-1-2.9.7-5.5" style="fill:#66c24f"/><path d="M39.4 37.4c-.1-.3 1.2-.8 1.4-.6q2.7.4 4.4 2.5 3.9 5.1 8.4 9.6l2.4 2.3a51 51 0 0 0 9.9 6.7l1.1.5 1.2.6 2.5 1.4a41 41 0 0 1 15.7 16.5 31 31 0 0 1 3 11q.3 3.3-.3 6.6-.4 1.5-2 1.7l-1.5-.3c-.1-.2-1.1-.4-1.2-.5q-2.3-1.2-3.2-3.5a34 34 0 0 0-6.4-11.3 37 37 0 0 0-11.6-8.8l-1.2-.7-1.1-.6-1.6-.9-2.4-1.5-.1-.1-1.2-.8-1.3-1a49 49 0 0 1-11-12.7l-.3-.4a44 44 0 0 1-3.8-8.8l-.4-1.3q-1-3 .6-5.6" style="fill:#67c24f"/><path d="M39.5 37.5c-.1-.3 1.2-.8 1.4-.6a7 7 0 0 1 4.4 2.5A104 104 0 0 0 56 51.1a54 54 0 0 0 8.8 6.2l1.1.5 1.1.5 1.2.6 2.5 1.3a41 41 0 0 1 15.6 16.4q1.5 3 2.3 6.4 1.3 5.6.4 11.2-.4 1.5-2 1.7l-1.5-.3c-.1-.2-1.1-.4-1.2-.5q-2.3-1.2-3.2-3.5a33 33 0 0 0-17.9-20l-1.2-.7-1.1-.6-1.6-.9-2.4-1.5-.1-.1-1.2-.8q-.8-.4-1.3-1a41 41 0 0 1-4.8-4.5 41 41 0 0 1-6.2-8.2l-.3-.4a46 46 0 0 1-3.8-8.7l-.4-1.3a6 6 0 0 1 .7-5.4" style="fill:#68c34f"/><path d="M39.5 37.6c-.1-.3 1.2-.8 1.4-.6q2.7.4 4.3 2.5a104 104 0 0 0 10.7 11.7 42 42 0 0 0 9.9 6.6l1.1.5 1.2.6 2.5 1.3a43 43 0 0 1 15.6 16.5 32 32 0 0 1 3 10.9q.3 3.3-.3 6.5-.4 1.5-2 1.7l-1.5-.3c-.1-.2-1.1-.4-1.2-.5q-2.3-1.2-3.2-3.5a33 33 0 0 0-16.4-19.2l-1.4-.8-1.2-.7-1.1-.6-1.6-.9-2.4-1.5-.1-.1-1.2-.8q-.8-.4-1.3-1a41 41 0 0 1-4.8-4.5 41 41 0 0 1-6.2-8.2l-.3-.4a46 46 0 0 1-3.8-8.7l-.4-1.3q-1-2.7.7-5.2" style="fill:#69c34f"/><path d="M39.5 37.6c-.1-.3 1.2-.8 1.4-.6q2.6.5 4.3 2.5a91 91 0 0 0 10.7 11.7 42 42 0 0 0 9.9 6.6l1.1.5 1.2.6 2.5 1.3a43 43 0 0 1 15.5 16.4 30 30 0 0 1 3 10.9q.3 3.3-.3 6.5a2 2 0 0 1-2 1.6q-.8 0-1.5-.4c-.1-.2-1.1-.4-1.2-.5q-2.2-1.2-3.2-3.5A33 33 0 0 0 64.5 72l-1.4-.8-1.2-.7-1.1-.6-1.6-.9-2.4-1.5-.1-.1-1.2-.8-1.3-1a51 51 0 0 1-11-12.7l-.3-.4a43 43 0 0 1-3.8-8.7l-.4-1.3q-.6-2.6.8-4.9" style="fill:#6ac34f"/><path d="M39.6 37.7c-.1-.3 1.2-.8 1.4-.6q2.6.5 4.3 2.5A91 91 0 0 0 56 51.3a42 42 0 0 0 9.9 6.6l1.1.5 1.2.6 2.5 1.3a41 41 0 0 1 15.6 16.3 30 30 0 0 1 3 10.9q.3 3.3-.3 6.5a2 2 0 0 1-2 1.6 3 3 0 0 1-1.5-.4c-.1-.2-1.1-.4-1.2-.5q-2.2-1.2-3.1-3.5a31 31 0 0 0-6.4-11.1 39 39 0 0 0-9.9-7.9l-1.4-.8-1.2-.7-1.1-.6-1.6-.9-2.4-1.5-.1-.1-1.2-.8-1.3-1a44 44 0 0 1-11-12.6l-.3-.4a41 41 0 0 1-3.8-8.7l-.4-1.3q-1-2.7.5-5.1" style="fill:#6bc34f"/><path d="M39.6 37.8c-.1-.3 1.2-.8 1.4-.6q2.6.5 4.3 2.5A80 80 0 0 0 56 51.4a42 42 0 0 0 12.2 7.7l2.5 1.3a41 41 0 0 1 15.6 16.2A28 28 0 0 1 89 93.9a2 2 0 0 1-2 1.6q-.8 0-1.5-.4c-.1-.2-1.1-.4-1.2-.5q-2.2-1.2-3.1-3.5a33 33 0 0 0-16.3-19l-1.4-.8-1.2-.7-1.1-.6-1.6-.9-2.3-1.5-.1-.1-1.2-.8-1.3-1a44 44 0 0 1-11-12.5l-.3-.4a41 41 0 0 1-3.8-8.7l-.4-1.3q-1-2.6.4-5" style="fill:#6cc34f"/><path d="M39.6 37.8c-.1-.3 1.2-.8 1.4-.6q2.6.5 4.3 2.5a79 79 0 0 0 16.1 15.8 28 28 0 0 0 5.5 2.9l1.2.6 2.5 1.3a39 39 0 0 1 15.5 16.2 28 28 0 0 1 2.7 17.3 2 2 0 0 1-2 1.6q-.7 0-1.5-.4c-.1-.2-1.1-.4-1.2-.5Q81.9 93.3 81 91a33 33 0 0 0-16.3-19l-1.4-.8-1.2-.7-1.1-.6-1.6-.9-2.3-1.5-.1-.1-1.2-.8-1.3-1a41 41 0 0 1-11-12.5l-.3-.4a41 41 0 0 1-3.8-8.7l-.4-1.3a6 6 0 0 1 .6-4.9" style="fill:#6dc44f"/><path d="M39.7 37.9c-.1-.3 1.2-.8 1.3-.6q2.6.5 4.3 2.5A87 87 0 0 0 56 51.4a50 50 0 0 0 9.8 6.6l1.1.5 1.2.6 2.5 1.3a39 39 0 0 1 15.5 16.2 28 28 0 0 1 2.7 17.3 2 2 0 0 1-2 1.6l-1.5-.4c-.1-.2-1.1-.4-1.2-.5q-2.2-1.2-3.1-3.5a31 31 0 0 0-6.4-11 43 43 0 0 0-9.8-7.9l-1.4-.8-1.2-.7-1.1-.6-1.6-.9-2.3-1.5-.1-.1-1.2-.8-1.3-1a41 41 0 0 1-11-12.5l-.3-.4a43 43 0 0 1-3.8-8.6l-.4-1.3q-.9-2.7.6-5.1" style="fill:#6ec44f"/><path d="M39.7 37.9c-.1-.3 1.2-.8 1.3-.6q2.6.5 4.2 2.5a100 100 0 0 0 10.6 11.6q2.6 2.3 5.4 4.2l2.7 1.6q.3 0 .5.3l1.1.5 1.1.5 1.1.6 2.5 1.3a40 40 0 0 1 15.5 16.1 28 28 0 0 1 2.7 17.3 2 2 0 0 1-2 1.6L85 95c-.1-.2-1.1-.4-1.1-.5q-2.2-1.2-3.1-3.5-1.5-4.5-4.3-8.4l-2-2.6a40 40 0 0 0-9.8-7.8l-1.4-.8-1.2-.7-1.1-.6-1.6-.9-2.3-1.5-.1-.1-1.2-.8-1.3-1a41 41 0 0 1-11-12.5l-.3-.4a50 50 0 0 1-3.9-8.6l-.4-1.3q-.5-2.7.8-5.1" style="fill:#6fc44f"/><path d="M39.7 38c-.1-.3 1.2-.8 1.3-.6q2.6.5 4.2 2.5a100 100 0 0 0 10.6 11.6q2.6 2.3 5.4 4.2l2.7 1.6q.3 0 .5.3l1.1.5 1.1.5 1.1.6 2.5 1.3a40 40 0 0 1 15.5 16.1q1.5 3 2.3 6.2 1.3 5.4.4 11a2 2 0 0 1-2 1.6L85 95c-.1-.2-1.1-.4-1.1-.5q-2.2-1.2-3.1-3.5a31 31 0 0 0-6.3-10.9 40 40 0 0 0-9.8-7.8l-1.4-.8-1.2-.7-1.1-.6-1.6-.9-2.3-1.5-.1-.1-1.2-.8-1.3-1a39 39 0 0 1-4.8-4.4 38 38 0 0 1-6.2-8.1l-.3-.4a50 50 0 0 1-3.9-8.6l-.4-1.3q-.4-2.6.8-5.1" style="fill:#70c44f"/><path d="M39.8 38.1c-.1-.3 1.1-.8 1.3-.6q2.6.5 4.2 2.6a87 87 0 0 0 10.6 11.5q2.6 2.3 5.4 4.1l2.7 1.6q.3 0 .5.3l1.1.5 1 .5 1.1.6 2.5 1.3a40 40 0 0 1 15.5 16.1 29 29 0 0 1 3 10.7q.3 3.2-.3 6.4-.4 1.6-2 1.5l-1.4-.4c-.1-.2-1.1-.4-1.1-.6q-2.2-1.2-3.1-3.5A34 34 0 0 0 64.7 72l-1.4-.8-1.2-.6L61 70l-1.6-.9-2.3-1.5-.1-.1-1-.7-1.3-1a49 49 0 0 1-11-12.3l-.3-.4a50 50 0 0 1-3.9-8.6l-.4-1.3q-.7-2.7.7-5.1" style="fill:#71c550"/><path d="M39.8 38.1c-.1-.3 1.1-.8 1.3-.6q2.6.5 4.2 2.6a87 87 0 0 0 10.6 11.5q2.6 2.3 5.4 4.1l2.7 1.6q.3 0 .5.3l1.1.5 1 .5 1.1.6 2.5 1.3a38 38 0 0 1 15.4 16 29 29 0 0 1 2.9 17.1q-.4 1.6-2 1.5l-1.4-.4c-.1-.2-1-.4-1.1-.6q-2.2-1.2-3-3.5a31 31 0 0 0-6.3-10.8Q70.5 75.2 65 72l-1.4-.8-1.2-.6-1.1-.6-1.5-.9-2.3-1.4-.1-.1-1.2-.8-1.3-1a49 49 0 0 1-11-12.3l-.3-.4q-2.5-4-3.9-8.6l-.4-1.3q-.7-2.6.5-5.1" style="fill:#72c550"/><path d="M39.8 38.2c-.1-.3 1.1-.8 1.3-.6q2.6.5 4.2 2.6a98 98 0 0 0 10.6 11.5q2.6 2.3 5.4 4.1l2.7 1.6q.3 0 .5.3l1.1.5 1 .5 1.1.6 2.5 1.3a39 39 0 0 1 15.4 16 29 29 0 0 1 2.9 17.1c-.1 1-1 1.6-1.9 1.5l-1.4-.4c-.1-.2-1-.4-1.1-.6a7 7 0 0 1-3-3.5 31 31 0 0 0-6.3-10.8 37 37 0 0 0-9.7-7.7l-1.4-.8-1.2-.6-1.1-.6-1.5-.9-2.3-1.4-.1-.1-1.2-.8-1.3-1a31 31 0 0 1-4.7-4.3q-3.6-3.6-6.2-8l-.3-.4q-2.5-4-3.9-8.6l-.4-1.3q-1-2.7.3-5.2" style="fill:#73c550"/><path d="M39.9 38.3c-.1-.3 1.1-.8 1.3-.6q2.6.5 4.2 2.6 3.8 5 8.2 9.3l2.3 2.2q2.6 2.3 5.4 4.1l2.7 1.6q.2 0 .5.3l1.1.5 1 .5 1.1.6 2.5 1.3a39 39 0 0 1 15.4 15.9 29 29 0 0 1 2.9 17.1c-.1 1-1 1.6-1.9 1.5l-1.4-.4c-.1-.2-1-.4-1.1-.6a7 7 0 0 1-3-3.5 31 31 0 0 0-6.3-10.8q-4.2-4.6-9.7-7.7l-1.4-.8-1.2-.6-1.1-.6-1.5-.9-2.3-1.4-.1-.1-1.2-.8-1.3-.9a31 31 0 0 1-4.7-4.3q-3.6-3.5-6.2-8l-.3-.4q-2.5-4-3.9-8.6l-.4-1.3q-1-2.7.4-5.2" style="fill:#74c550"/><path d="M39.9 38.3c-.1-.3 1.1-.8 1.3-.6q2.6.5 4.2 2.6 3.8 4.9 8.2 9.2l2.3 2.2a62 62 0 0 0 8.5 6l1.1.5 1 .5 1.1.6 2.5 1.3a41 41 0 0 1 15.4 15.8 29 29 0 0 1 2.9 17.1c-.1 1-1 1.6-1.9 1.5l-1.4-.4c-.1-.2-1-.4-1.1-.6a7 7 0 0 1-3-3.5 31 31 0 0 0-6.3-10.7q-4.2-4.6-9.6-7.7l-1.4-.8-1.2-.6-1.1-.6-1.5-.9-2.3-1.4-.1-.1-1.2-.8L55 66a31 31 0 0 1-4.7-4.3q-3.6-3.5-6.2-8l-.3-.4q-2.5-4-3.9-8.5l-.4-1.3q-1-2.7.4-5.2" style="fill:#75c650"/><path d="M39.9 38.4c-.1-.3 1.1-.8 1.3-.6q2.4.6 4.1 2.6 3.7 5 8.2 9.2l2.3 2.2a50 50 0 0 0 9.6 6.5l1 .5 1.1.6 2.4 1.3a40 40 0 0 1 15.4 15.8 27 27 0 0 1 3.1 10.6q.3 3.2-.2 6.4-.3 1.6-1.9 1.5-.8-.1-1.4-.5c-.1-.2-1-.4-1.1-.6a7 7 0 0 1-3-3.5 31 31 0 0 0-6.3-10.7A35 35 0 0 0 65 72l-1.4-.8-1.2-.6-1.1-.6-1.5-.9-2.3-1.4-.1-.1-1.1-.8-1.3-.9a43 43 0 0 1-10.9-12.1l-.3-.4q-2.5-4-3.9-8.5l-.4-1.3q-.8-2.7.4-5.2" style="fill:#76c650"/><path d="M40 38.5c-.1-.3 1.1-.8 1.3-.6q2.4.6 4.1 2.6 3.8 4.8 8.1 9.2l2.3 2.2a50 50 0 0 0 9.6 6.5l1 .5 1.1.6 2.4 1.3a39 39 0 0 1 15.4 15.8 28 28 0 0 1 2.9 16.9c-.1 1-1 1.6-1.9 1.5q-.8-.1-1.4-.5c-.1-.2-1-.4-1.1-.6a7 7 0 0 1-3-3.5 31 31 0 0 0-6.3-10.7q-4.2-4.5-9.6-7.6l-1.4-.8-1.2-.6-1-.6-1.5-.9-2.3-1.4-.1-.1-1.1-.8L55 66a43 43 0 0 1-10.9-12.1l-.3-.4q-2.5-4-3.9-8.5l-.4-1.3a7 7 0 0 1 .5-5.2" style="fill:#77c650"/><path d="M40 38.5c-.1-.3 1.1-.8 1.3-.6q2.4.6 4.1 2.6 3.8 4.8 8.1 9.2l2.3 2.2a50 50 0 0 0 9.6 6.5l1 .5 1.1.6 2.4 1.3a39 39 0 0 1 15.3 15.7 28 28 0 0 1 2.9 16.9c-.1.9-1 1.5-1.8 1.4h-.1q-.8-.1-1.4-.5c-.1-.2-1-.4-1.1-.6q-2.1-1.2-2.9-3.5a29 29 0 0 0-6.3-10.6q-4.2-4.5-9.6-7.6l-1.4-.8-1.2-.6-1-.6-1.5-.9-2.3-1.4-.1-.1-1.1-.8-1.3-.9a38 38 0 0 1-4.7-4.2q-3.6-3.6-6.2-7.9l-.3-.4q-2.5-4-3.9-8.5l-.4-1.3q-.7-2.6.5-5.1" style="fill:#78c650"/><path d="M40.1 38.6c-.1-.3 1.1-.8 1.3-.6q2.4.6 4.1 2.6 3.8 4.8 8.1 9.2l2.3 2.2a50 50 0 0 0 9.6 6.5l1 .5 1.1.5 2.4 1.3a39 39 0 0 1 15.3 15.7 28 28 0 0 1 2.9 16.8c-.1.9-1 1.5-1.8 1.4h-.1q-.7-.1-1.3-.5c-.1-.2-1-.4-1.1-.6q-2-1.2-2.9-3.5a29 29 0 0 0-6.3-10.6q-4.2-4.5-9.5-7.6l-1.4-.8-1.2-.6-1-.6-1.5-.9-2.3-1.4-.1-.1-1.1-.8-1.3-.9a47 47 0 0 1-10.9-12.1l-.3-.4q-2.5-4-3.9-8.5l-.4-1.3q-.9-2.5.3-4.9" style="fill:#79c650"/><path d="M40.1 38.7c-.1-.3 1.1-.8 1.3-.6q2.4.7 4.1 2.6a96 96 0 0 0 10.4 11.2 39 39 0 0 0 9.6 6.4l1 .5 1.1.5 2.4 1.3a39 39 0 0 1 15.3 15.7 28 28 0 0 1 2.9 16.8c-.1.9-1 1.5-1.8 1.4h-.1q-.7-.1-1.3-.5c-.1-.2-1-.4-1.1-.6q-2-1.3-2.9-3.5a32 32 0 0 0-6.3-10.6q-4.2-4.5-9.5-7.6l-1.4-.8-1.2-.6-1-.6-1.5-.9-2.3-1.4-.1-.1-1.1-.8-1.3-.9a47 47 0 0 1-10.9-12.1l-.3-.4q-2.5-4-3.9-8.5l-.4-1.3q-.9-2.4.3-4.6" style="fill:#7ac750"/><path d="M40.1 38.7c-.1-.3 1.1-.8 1.3-.6q2.4.7 4.1 2.6 3.8 4.8 8.1 9.1l2.3 2.1a39 39 0 0 0 8.5 5.9l1 .5 1 .5 1.1.5 2.4 1.3a39 39 0 0 1 15.3 15.6A28 28 0 0 1 88.1 93c-.1.9-1 1.5-1.8 1.4h-.1q-.7-.1-1.3-.5c-.1-.2-1-.4-1.1-.6q-2-1.3-2.9-3.5a32 32 0 0 0-6.3-10.5q-4.2-4.5-9.5-7.5l-1.4-.8-1.2-.6-1-.6-1.5-.9-2.3-1.4-.1-.1-1.1-.8-1.3-.9a46 46 0 0 1-10.9-12l-.3-.4a40 40 0 0 1-3.9-8.4l-.4-1.3q-.6-2.5.4-4.9" style="fill:#7bc750"/><path d="M40.2 38.8c-.1-.3 1.1-.8 1.3-.6q2.4.6 4.1 2.6 3.8 4.8 8.1 9.1L56 52a39 39 0 0 0 8.5 5.9l1 .5 1 .5 1.1.5 2.4 1.3a39 39 0 0 1 15.3 15.6 28 28 0 0 1 2.9 16.8c-.1.9-1 1.5-1.8 1.4h-.1L85 94c-.1-.2-1-.4-1.1-.6q-2-1.3-2.9-3.5a29 29 0 0 0-6.3-10.4 39 39 0 0 0-9.4-7.5l-1.4-.8-1.2-.6-1-.6-1.5-.9-2.3-1.4-.1-.1-1.1-.8-1.3-.9A42 42 0 0 1 44.5 54l-.3-.4a40 40 0 0 1-3.9-8.4l-.4-1.3q-.9-2.6.3-5.1" style="fill:#7cc750"/><path d="M40.2 38.8c-.1-.3 1.1-.8 1.3-.6q2.5.6 4 2.6 3.8 4.8 8.1 9.1l2.3 2.1a39 39 0 0 0 8.5 5.9l1 .5 1 .5 1.1.5 2.4 1.3a38 38 0 0 1 15.2 15.6A28 28 0 0 1 88 93.1c-.1.9-1 1.5-1.8 1.4h-.1l-1.3-.5c-.1-.2-1-.4-1-.6q-2-1.3-2.9-3.5a29 29 0 0 0-6.3-10.4 39 39 0 0 0-9.4-7.5l-1.4-.8-1.2-.6-1-.6-1.5-.9-2.2-1.4-.1-.1-1.1-.7-1.3-.9a39 39 0 0 1-10.9-11.9l-.3-.4a40 40 0 0 1-3.9-8.4l-.4-1.3q-.7-2.7.3-5.2" style="fill:#7dc750"/><path d="M40.2 38.9c-.1-.3 1.1-.8 1.3-.6q2.5.7 4 2.7 3.8 4.8 8.1 9l2.3 2.1a45 45 0 0 0 8.4 5.9l1 .5 1 .5 1.1.5 2.4 1.3A39 39 0 0 1 85 76.3 27 27 0 0 1 87.9 93c-.1.9-1 1.5-1.8 1.4H86l-1.3-.5c-.1-.2-1-.4-1-.6q-2-1.2-2.9-3.5-1.6-4.4-4.3-8l-2-2.4a39 39 0 0 0-9.4-7.5l-1.4-.8-1.2-.6-1-.6L60 69l-2.2-1.4-.1-.1-1.1-.7-1.3-.9a30 30 0 0 1-4.6-4.1q-3.6-3.5-6.2-7.8l-.3-.4a40 40 0 0 1-3.9-8.4l-.4-1.3q-.7-2.5.3-5" style="fill:#7ec851"/><path d="M40.3 39c-.1-.3 1.1-.8 1.3-.6q2.5.7 4 2.7 3.7 4.8 8 9l2.3 2.1a61 61 0 0 0 8.4 5.9l1 .5 1 .5 1.1.5 2.4 1.3A41 41 0 0 1 85 76.3 27 27 0 0 1 87.9 93c-.1.9-1 1.5-1.8 1.4H86l-1.3-.5c-.1-.2-.9-.4-1-.6a7 7 0 0 1-2.8-3.5q-1.5-4.2-4.2-7.9l-2-2.4A39 39 0 0 0 64 71.2l-1.2-.6-1-.6-1.5-.9-2.2-1.4-.1-.1-1.1-.7-1.3-.9a30 30 0 0 1-4.6-4.1q-3.6-3.5-6.2-7.8l-.3-.4a40 40 0 0 1-3.9-8.4l-.4-1.3q-1-2.5.1-5" style="fill:#7fc851"/><path d="M40.3 39c-.1-.3 1.1-.8 1.3-.6q2.5.7 4 2.7a91 91 0 0 0 8 9l2.3 2.1a61 61 0 0 0 7.9 5.6l.5.3 1 .5 1 .5 1.1.5 2.4 1.3A39 39 0 0 1 85 76.3a27 27 0 0 1 3 16.6q-.3 1.3-1.7 1.3H86l-1.3-.5c-.1-.2-.9-.4-1-.6q-2-1.2-2.8-3.4-1.6-4.2-4.2-7.9l-2-2.4a38 38 0 0 0-10.6-8.2l-1.2-.6-1-.6-1.5-.9-2.2-1.4-.1-.1-1.1-.7-1.3-.9a30 30 0 0 1-4.6-4.1q-3.6-3.5-6.2-7.8l-.3-.4a40 40 0 0 1-3.9-8.4l-.4-1.3a6 6 0 0 1-.1-5" style="fill:#80c851"/><path d="M40.3 39.1c-.1-.3 1-.8 1.3-.6a8 8 0 0 1 4 2.7 91 91 0 0 0 8 9l2.3 2.1a48 48 0 0 0 7.9 5.6l.5.3 1 .5 1 .5 1.1.5 2.4 1.3A39 39 0 0 1 85 76.3q1.5 3 2.3 6 .6 2.2.8 4.3.3 3-.1 6.2-.4 1.5-1.9 1.3-.7-.2-1.3-.6c-.1-.2-.9-.4-1-.6a8 8 0 0 1-2.8-3.4q-1.6-4.2-4.2-7.9l-2-2.4a41 41 0 0 0-11.7-8.8l-1-.6-1.5-.8-2.2-1.4-.1-.1-1.1-.7-1.3-.9a36 36 0 0 1-4.6-4 38 38 0 0 1-6.2-7.7l-.3-.4q-2.5-4-4-8.4l-.4-1.3a6 6 0 0 1-.1-5" style="fill:#81c851"/><path d="M40.4 39.2c-.1-.3 1-.8 1.3-.6q2.5.8 4 2.7 3.6 4.8 8 8.9l2.3 2.1a38 38 0 0 0 5.2 3.9l2.6 1.6.5.3 1 .5 1 .5 1.1.5 2.4 1.2a38 38 0 0 1 15.1 15.3q1.5 3 2.3 6l.8 4.3q.3 3-.1 6.2-.4 1.5-1.9 1.3-.7-.2-1.3-.6c-.1-.2-.9-.4-1-.6a8 8 0 0 1-2.8-3.4q-1.5-4.2-4.2-7.8l-2-2.4A41 41 0 0 0 63 70.3l-1-.6-1.5-.8-2.2-1.3-.1-.1-1.1-.7-1.3-.9a45 45 0 0 1-10.9-11.7l-.3-.4a48 48 0 0 1-4-8.3l-.4-1.3a7 7 0 0 1 .2-5" style="fill:#82c951"/><path d="M40.4 39.2c-.1-.3 1-.8 1.3-.6q2.3.8 3.9 2.7 3.6 4.8 8 8.9l2.3 2.1a38 38 0 0 0 7.8 5.4l.5.3 1 .5 1 .5 1.1.5 2.4 1.2A38 38 0 0 1 84.8 76q1.5 3 2.3 6l.8 4.3q.3 3-.1 6.2-.4 1.5-1.9 1.3l-1.2-.6c-.1-.2-.9-.4-1-.6a8 8 0 0 1-2.8-3.4q-1.6-4.2-4.2-7.8l-2-2.4a42 42 0 0 0-11.6-8.8l-1-.6-1.5-.8-2.2-1.3-.1-.1q-.8-.1-1.3-.6l-1.3-.9a42 42 0 0 1-10.9-11.7l-.3-.4a48 48 0 0 1-4-8.3l-.4-1.3q-.6-2.6.3-5" style="fill:#83c951"/><path d="M40.4 39.3c-.1-.3 1-.8 1.3-.6q2.3.8 3.9 2.7 3.7 4.7 8 8.9l2.3 2.1a38 38 0 0 0 7.8 5.4l.5.3 1 .5 1 .5 1.1.5 2.4 1.2A39 39 0 0 1 84.8 76q1.5 3 2.3 6l.8 4.3q.3 3-.1 6.2-.4 1.5-1.9 1.3l-1.2-.6c-.1-.2-.9-.4-1-.6a8 8 0 0 1-2.8-3.4q-1.6-4.2-4.2-7.8L74.8 79a39 39 0 0 0-9.2-7.3l-1.3-.7-1.1-.6-1-.6-1.5-.8-2.2-1.3-.1-.1-1.1-.7L56 66a42 42 0 0 1-10.9-11.7l-.3-.4q-2.5-4-4-8.3l-.4-1.3a7 7 0 0 1 0-5" style="fill:#84c951"/><path d="M40.5 39.4c-.1-.4 1-.9 1.3-.6q2.3.8 3.9 2.7 3.7 4.7 8 8.9l2.3 2.1a38 38 0 0 0 7.8 5.4l.5.3 1 .5 1 .5 1.1.5 2.4 1.2a39 39 0 0 1 15.1 15.2 27 27 0 0 1 3 16.4q-.4 1.5-1.9 1.3l-1.2-.6c-.1-.2-.9-.4-1-.6a8 8 0 0 1-2.8-3.4q-1.6-4.2-4.2-7.8L74.9 79a38 38 0 0 0-9.2-7.3l-1.3-.7-1.1-.6-1-.6-1.5-.8-2.2-1.3-.1-.1-1.1-.7-1.3-.9a42 42 0 0 1-10.9-11.7l-.3-.4q-2.5-4-4-8.3l-.4-1.3a7 7 0 0 1 0-4.9" style="fill:#85c951"/><path d="M40.5 39.4c-.1-.4 1-.9 1.2-.6q2.3.8 3.9 2.7 3.7 4.7 8 8.9l2.3 2.1a44 44 0 0 0 7.7 5.4l.5.2 1 .5 1 .5 1.1.5 2.4 1.2A39 39 0 0 1 84.7 76a27 27 0 0 1 3 16.4q-.4 1.5-1.9 1.3l-1.2-.6c-.1-.2-.9-.4-1-.6q-1.8-1.2-2.7-3.4-1.6-4-4.2-7.7L74.8 79a38 38 0 0 0-10.5-8l-1.1-.6-1-.6-1.5-.8-2.2-1.3-.1-.1-1.1-.7L56 66a43 43 0 0 1-10.9-11.6l-.2-.4q-2.5-4-4-8.3l-.4-1.3a7 7 0 0 1 0-5" style="fill:#86c951"/><path d="M40.5 39.5c-.1-.4 1-.9 1.2-.6q2.3.8 3.9 2.7 3.6 4.6 7.9 8.8l2.3 2.1a44 44 0 0 0 7.7 5.4l.5.2 1 .5 1 .5 1.1.5 2.4 1.2a38 38 0 0 1 15 15.1 27 27 0 0 1 3 16.4 1.5 1.5 0 0 1-1.9 1.2l-1.2-.6c-.1-.2-.9-.4-1-.7q-1.8-1.2-2.7-3.4-1.6-4-4.2-7.7l-1.9-2.3a39 39 0 0 0-10.4-8l-1.1-.6-1-.6-1.5-.8-2.2-1.3-.1-.1-1.1-.7-1.2-.9a43 43 0 0 1-10.9-11.5l-.3-.4q-2.5-4-4-8.3l-.4-1.3q-.6-2.4.1-4.8" style="fill:#87ca51"/><path d="M40.6 39.5c-.1-.4 1-.9 1.2-.6q2.3.8 3.9 2.7 3.6 4.6 7.9 8.8l2.3 2.1a44 44 0 0 0 7.7 5.4l.5.2 1 .5 1 .5 1.1.5 2.4 1.2a39 39 0 0 1 15 15.1 27 27 0 0 1 3 16.4 1.5 1.5 0 0 1-1.9 1.2l-1.2-.6c-.1-.2-.9-.4-1-.7q-1.8-1.3-2.7-3.4a36 36 0 0 0-6.1-10 36 36 0 0 0-10.4-7.9l-1.1-.6-1-.6-1.5-.8-2.2-1.3-.1-.1-1.1-.7-1.2-.9a43 43 0 0 1-10.9-11.5l-.3-.4q-2.5-3.9-4-8.2l-.4-1.3q-.8-2.5.1-5" style="fill:#88ca51"/><path d="M40.6 39.6c-.1-.4 1-.9 1.2-.6q2.3.8 3.9 2.7 3.7 4.6 7.9 8.8l2.3 2.1a44 44 0 0 0 7.7 5.4l.5.2 1 .5 1 .5 1.1.5 2.4 1.2a39 39 0 0 1 15 15.1 27 27 0 0 1 3 16.3 1.4 1.4 0 0 1-1.8 1.2l-1.2-.6c-.1-.2-.9-.4-1-.7q-1.8-1.3-2.7-3.4A33 33 0 0 0 64.4 71l-1.1-.6-1-.6-1.4-.8-2.2-1.3-.1-.1-1.1-.7-1.2-.9a43 43 0 0 1-10.8-11.5l-.3-.4q-2.5-3.9-4-8.2l-.4-1.3a7 7 0 0 1-.2-5" style="fill:#89ca51"/><path d="M40.6 39.7c-.1-.4 1-.9 1.2-.6q2.3.8 3.8 2.7 3.7 4.5 7.9 8.8l2.3 2.1a87 87 0 0 0 7.7 5.4l.5.2 1 .5 1 .5 1.1.5 2.4 1.2a39 39 0 0 1 15 15 27 27 0 0 1 3 16.2 1.4 1.4 0 0 1-1.8 1.2l-1.2-.6c-.1-.2-.9-.5-.9-.7q-1.8-1.3-2.7-3.4a33 33 0 0 0-16.4-17.8l-1.1-.6-1-.5L61 69l-2.2-1.3-.1-.1-1.1-.7-1.2-.8a43 43 0 0 1-10.8-11.5l-.3-.4q-2.5-3.9-4-8.2l-.4-1.3a7 7 0 0 1-.3-5" style="fill:#8aca51"/><path d="M40.7 39.7c-.1-.4 1-.9 1.2-.6a9 9 0 0 1 3.8 2.8q3.6 4.6 7.9 8.7l2.3 2.1a57 57 0 0 0 7.7 5.3l.5.2 1 .5 1 .5 1.1.5 2.4 1.2a39 39 0 0 1 15 14.9 25 25 0 0 1 2.3 5.9q.6 2.1.8 4.2.3 3-.1 6.1a1.4 1.4 0 0 1-1.8 1.2l-1.2-.6-.9-.7q-1.8-1.3-2.7-3.4a33 33 0 0 0-16.4-17.8l-1.1-.6-1-.5-1.4-.8-2.2-1.3-.1-.1-1.1-.7-1.2-.8a42 42 0 0 1-10.8-11.4l-.3-.4q-2.5-3.9-4-8.2l-.4-1.3a6 6 0 0 1-.3-4.9" style="fill:#8bcb52"/><path d="M40.7 39.8c-.1-.4 1-.9 1.2-.6q2.3 1 3.8 2.8 3.6 4.6 7.9 8.7l2.3 2.1a57 57 0 0 0 7.7 5.3l.5.2 1 .5 1 .5 1.1.5 2.4 1.2a39 39 0 0 1 15 14.9 26 26 0 0 1 3.1 10q.3 3-.1 6.1a1.4 1.4 0 0 1-1.8 1.2l-1.2-.7-.9-.7q-1.7-1.3-2.6-3.4a32 32 0 0 0-6.1-9.8 38 38 0 0 0-10.3-7.8l-1.1-.6-1-.5-1.4-.8-2.2-1.3-.1-.1-1.1-.7-1.2-.8a42 42 0 0 1-10.8-11.3l-.3-.4q-2.5-3.9-4-8.2l-.4-1.3a7 7 0 0 1-.4-5" style="fill:#8ccb52"/><path d="M40.7 39.9c-.1-.4 1-.9 1.2-.6q2.3 1 3.8 2.8a75 75 0 0 0 10.2 10.7 44 44 0 0 0 7.7 5.3l.5.2 1 .5 1 .5 1.1.5 2.3 1.2a38 38 0 0 1 14.9 14.8 26 26 0 0 1 3.1 10q.3 3-.1 6.1a1.4 1.4 0 0 1-1.8 1.2l-1.2-.7-.9-.7q-1.7-1.3-2.6-3.4a34 34 0 0 0-16.4-17.6l-1.1-.6-1-.5-1.4-.8-2.2-1.3-.1-.1-1.1-.7-1.2-.8a41 41 0 0 1-10.8-11.3l-.3-.4q-2.5-3.9-4-8.2l-.4-1.3a7 7 0 0 1-.2-4.8" style="fill:#8dcb52"/><path d="M40.8 39.9c-.1-.4 1-.9 1.2-.6q2.3 1 3.8 2.8a85 85 0 0 0 10 10.7q2.4 2.1 5.1 3.8l2.6 1.5.5.2 1 .5 1 .5 1.1.5 2.3 1.2a37 37 0 0 1 14.9 14.8 26 26 0 0 1 3.1 10q.3 3 0 6.1a1.3 1.3 0 0 1-1.8 1.1l-1.1-.7-.9-.7q-1.7-1.3-2.6-3.4a34 34 0 0 0-16.3-17.6l-1.1-.6-1-.5-1.4-.8-2.2-1.3-.1-.1-1.1-.7-1.2-.8a41 41 0 0 1-10.8-11.3l-.3-.4q-2.5-3.9-4-8.2l-.4-1.3a6 6 0 0 1-.3-4.7" style="fill:#8ecb52"/><path d="M40.8 40c-.1-.4 1-.9 1.2-.6q2.3 1 3.8 2.8a84 84 0 0 0 10 10.6q2.4 2.1 5 3.8l2.6 1.5.5.2 1 .5 1 .5 1.1.5 2.3 1.2a37 37 0 0 1 14.9 14.8 26 26 0 0 1 3.1 10q.3 3 0 6.1a1.3 1.3 0 0 1-1.8 1.1l-1.1-.7-.9-.7a9 9 0 0 1-2.6-3.4 34 34 0 0 0-16.3-17.6l-1.1-.6-1-.5-1.4-.8-2.1-1.3-.1-.1-1.1-.7-1.2-.8a41 41 0 0 1-10.8-11.3l-.3-.4q-2.5-3.8-4-8.1l-.4-1.3a6 6 0 0 1-.3-4.7" style="fill:#8fcc52"/><path d="M40.8 40.1c-.1-.4 1-.9 1.2-.6a9 9 0 0 1 3.7 2.8 84 84 0 0 0 10 10.6q2.4 2.1 5 3.8l2.6 1.5.5.2 1 .5 1 .5 1.1.5 2.3 1.2a36 36 0 0 1 14.9 14.7 26 26 0 0 1 3.1 10q.3 3 0 6.1a1.3 1.3 0 0 1-1.8 1.1l-1.1-.7-.9-.7a9 9 0 0 1-2.6-3.4 32 32 0 0 0-6.1-9.7 39 39 0 0 0-10.2-7.7l-1.1-.6-1-.5-1.4-.8-2.1-1.3-.1-.1-1.1-.7-1.2-.8a40 40 0 0 1-10.8-11.2l-.3-.4A44 44 0 0 1 41 45a9 9 0 0 1-.2-4.9" style="fill:#90cc52"/><path d="M40.9 40.1c-.1-.4 1-.9 1.2-.6a9 9 0 0 1 3.7 2.8 84 84 0 0 0 10 10.6q2.4 2.1 5 3.8l2.6 1.5.5.2 1 .5 1 .5 1.1.5 2.3 1.2a36 36 0 0 1 14.9 14.7 26 26 0 0 1 3.1 10q.3 3 0 6a1.3 1.3 0 0 1-1.8 1.1l-1.1-.7-.9-.7q-1.7-1.5-2.6-3.4a32 32 0 0 0-6.1-9.7 41 41 0 0 0-10.1-7.7l-1.1-.6-1-.5-1.4-.8-2.1-1.3-.1-.1-1.1-.7-1.2-.8a40 40 0 0 1-10.8-11.2l-.3-.4a44 44 0 0 1-4.4-9.4 7 7 0 0 1-.3-4.8" style="fill:#91cc52"/><path d="M40.9 40.2c-.1-.4.9-.9 1.2-.6q2.1 1 3.7 2.8a84 84 0 0 0 10 10.6q2.4 2.1 5 3.8l2.6 1.5.5.2 1 .5 1 .5 1.1.5 2.3 1.2a39 39 0 0 1 14.8 14.7 26 26 0 0 1 3.1 10q.3 3 0 6a1.3 1.3 0 0 1-1.8 1.1l-1.1-.7-.9-.7q-1.7-1.5-2.6-3.4a34 34 0 0 0-16.2-17.3l-1.1-.6-1-.5-1.4-.8-2.1-1.2-.1-.1-1.1-.7-1.2-.8a40 40 0 0 1-10.8-11.1l-.3-.4a44 44 0 0 1-4.4-9.4 10 10 0 0 1-.2-5.1" style="fill:#92cc52"/><path d="M40.9 40.3c-.1-.4.9-.9 1.2-.6q2.1 1 3.7 2.8a96 96 0 0 0 10 10.6q2.4 2 5 3.8l2.6 1.5.5.2 1 .5 1 .5 1.1.5 2.3 1.2a38 38 0 0 1 14.8 14.6 25 25 0 0 1 3.1 9.9q.3 3 0 6a1.3 1.3 0 0 1-1.8 1.1l-1.1-.7-.9-.7c-1-1-2-2-2.5-3.4a31 31 0 0 0-6.1-9.5 38 38 0 0 0-10.1-7.7l-1.1-.6-1-.5-1.4-.8-2.1-1.2-.1-.1-1.1-.7-1.2-.8q-2.4-1.5-4.5-3.7a41 41 0 0 1-6.3-7.4l-.3-.4a52 52 0 0 1-4.5-9.4q-.7-2.4-.2-5" style="fill:#93cc52"/><path d="M41 40.3c-.1-.4.9-.9 1.2-.6q2.2 1 3.7 2.8a72 72 0 0 0 15 14.2l2.6 1.5.5.2 1 .5 1 .5 1.1.5 2.3 1.2a38 38 0 0 1 14.8 14.6 25 25 0 0 1 3.1 9.9q.3 3 0 6a1.3 1.3 0 0 1-1.8 1.1l-1.1-.7-.9-.7c-1-1-2-2-2.5-3.4a31 31 0 0 0-6.1-9.5 36 36 0 0 0-10.1-7.6l-1.1-.6-1-.5-1.4-.8-2.1-1.2-.1-.1-1.1-.7-1.2-.8q-2.4-1.5-4.5-3.7A41 41 0 0 1 46 55l-.3-.4a52 52 0 0 1-4.5-9.4 9 9 0 0 1-.2-4.9" style="fill:#94cd52"/><path d="M41 40.4c-.1-.4.9-.9 1.2-.5q2.2 1 3.7 2.8a82 82 0 0 0 10 10.5 44 44 0 0 0 5 3.7l2.5 1.5.5.2.9.5 1 .5 1.1.5 2.3 1.2A38 38 0 0 1 84 75.9a25 25 0 0 1 3.1 9.8q.5 3 0 6a1.3 1.3 0 0 1-1.8 1.1l-1.1-.7-.9-.7c-1-1-2-2-2.5-3.4a33 33 0 0 0-16.1-17.1l-1.1-.6-1-.5-1.4-.8-2.1-1.2-.1-.1-1.1-.7-1.2-.8a41 41 0 0 1-10.7-11l-.3-.4a51 51 0 0 1-4.5-9.2q-.7-2.6-.2-5.2" style="fill:#95cd52"/><path d="M41.1 40.4c-.1-.4.9-.9 1.2-.5q2.2 1 3.7 2.8a93 93 0 0 0 9.9 10.5 44 44 0 0 0 5 3.7l2.5 1.5.5.2.9.5 1 .5 1.1.5 2.3 1.2q7.5 4.1 12.7 11.1l2.1 3.3q1.5 2.7 2.3 5.7.6 2 .8 4.1.5 3 0 6a1.2 1.2 0 0 1-1.8 1l-1.1-.7-.9-.7c-1-1-2-2-2.5-3.4a32 32 0 0 0-6.1-9.4q-3.9-4-8.7-6.9l-1.2-.7-1.1-.6-.9-.5-1.4-.8-2.1-1.2-.1-.1-1.1-.7-1.2-.8a41 41 0 0 1-10.7-11l-.3-.4a47 47 0 0 1-4.5-9.2 9 9 0 0 1-.3-5" style="fill:#96cd52"/><path d="M41.1 40.5c-.1-.4.9-.9 1.2-.5q2.1 1 3.6 2.8a93 93 0 0 0 9.9 10.5q2.4 2 4.9 3.7l2.5 1.5.5.2.9.5 1 .5 1.1.5 2.3 1.2q7.6 4.1 12.6 11.1l2.1 3.3q1.5 2.7 2.3 5.7.6 2 .9 4.1.3 3 0 6a1.2 1.2 0 0 1-1.8 1l-1.1-.8-.9-.7q-1.6-1.5-2.5-3.4a32 32 0 0 0-6.1-9.4q-3.9-4-8.7-6.9l-1.2-.7-1.1-.6-.9-.5-1.4-.8-2.1-1.2-.1-.1-1.1-.6-1.2-.8A43 43 0 0 1 46 55.2l-.3-.4a40 40 0 0 1-4.5-9.2q-.6-2.5-.1-5.1" style="fill:#97cd52"/><path d="M41.1 40.6c-.1-.4.9-.9 1.2-.6q2.1 1 3.6 2.9A80 80 0 0 0 60.7 57l2.5 1.5.5.2.9.5 1 .5 1.1.5 2.3 1.2a36 36 0 0 1 14.6 14.4q1.5 2.7 2.3 5.7.6 2 .9 4.1.4 3 0 6a1.2 1.2 0 0 1-1.8 1l-1-.8-.8-.7q-1.6-1.5-2.5-3.4a36 36 0 0 0-6-9.4q-3.8-4-8.6-6.9l-1.2-.7-1.1-.6-.9-.5-1.4-.8-2.1-1.2-.1-.1-1.1-.6-1.2-.8q-2.3-1.6-4.4-3.6a43 43 0 0 1-6.3-7.3l-.3-.4a40 40 0 0 1-4.5-9.2 10 10 0 0 1-.4-5" style="fill:#98ce53"/><path d="M41.2 40.6c-.1-.4.9-.9 1.2-.5q2.1 1 3.6 2.9a80 80 0 0 0 14.8 14.1l2.5 1.5.5.2.9.5 1 .5 1 .5 2.3 1.2a37 37 0 0 1 14.6 14.3q1.5 2.7 2.3 5.7.6 2 .9 4.1.4 3 0 5.9a1.2 1.2 0 0 1-1.8 1l-1-.8-.8-.7q-1.6-1.5-2.5-3.4a33 33 0 0 0-14.6-16.1l-1.2-.7-1.1-.6-.9-.5-1.4-.8-2.1-1.2-.1-.1-1.1-.6-1.2-.8q-2.3-1.6-4.4-3.6a40 40 0 0 1-6.3-7.3l-.3-.4a40 40 0 0 1-4.5-9.2 10 10 0 0 1-.3-5.1" style="fill:#99ce53"/><path d="M41.2 40.7c-.1-.4.9-.9 1.2-.5q2.1 1 3.6 2.9 3.6 4.5 7.7 8.4l2.2 2a42 42 0 0 0 4.9 3.7l2.5 1.5.5.2.9.4 1 .5 1 .5 2.3 1.2a37 37 0 0 1 14.6 14.3q1.5 2.7 2.3 5.6.6 2 .9 4.1.4 3 0 5.9a1.2 1.2 0 0 1-1.8 1l-1-.8-.8-.7q-1.5-1.4-2.4-3.3a33 33 0 0 0-4.1-7.1l-1.8-2.2q-3.8-4-8.6-6.8l-1.2-.7-1.1-.6-.9-.5-1.4-.8-2.1-1.2-.1-.1-1.1-.6-1.2-.8q-2.3-1.5-4.4-3.5a40 40 0 0 1-6.3-7.3l-.3-.4a40 40 0 0 1-4.5-9.2 9 9 0 0 1-.5-5.1" style="fill:#9ace53"/><path d="M41.2 40.8c-.1-.4.9-.9 1.2-.5q2.1 1 3.6 2.9 3.6 4.5 7.7 8.4l2.2 2a42 42 0 0 0 4.9 3.7l2.5 1.5.5.2.9.4 1 .5 1 .5 2.3 1.2a37 37 0 0 1 14.6 14.3q1.5 2.6 2.3 5.6.6 2 .9 4.1.4 3 0 5.9a1.2 1.2 0 0 1-1.8 1l-1-.8-.8-.7q-1.5-1.4-2.4-3.3-1.6-3.8-4.1-7.1l-1.8-2.2q-3.8-4-8.6-6.8l-1.2-.7-1-.6-.9-.5-1.4-.8-2.1-1.2-.1-.1-1.1-.6-1.2-.8a39 39 0 0 1-10.7-10.8l-.3-.4a40 40 0 0 1-4.5-9.2 10 10 0 0 1-.6-5.1" style="fill:#9bce53"/><path d="M41.3 40.8c-.1-.4.9-.9 1.2-.5q2.1 1 3.6 2.9 3.6 4.5 7.7 8.3l2.2 2q2.3 2.1 4.9 3.6l2.5 1.5.5.2.9.4 1 .5 1 .5 2.3 1.2q7.5 4 12.5 11l2 3.3q1.5 2.7 2.3 5.6a26 26 0 0 1 1 10 1.2 1.2 0 0 1-1.8 1l-1-.8-.8-.7q-1.5-1.4-2.4-3.3-1.6-3.8-4.1-7.1L75 78.2q-3.8-4-8.5-6.8l-1.2-.7-1-.6-.9-.5-1.4-.8-2.1-1.2-.1-.1-1.1-.6-1.2-.8a39 39 0 0 1-10.7-10.8l-.3-.4a43 43 0 0 1-4.5-9.1q-1.2-2.3-.7-5" style="fill:#9ccf53"/><path d="M41.3 40.9c-.1-.4.9-.9 1.1-.5q2.1 1 3.6 2.9 3.6 4.5 7.7 8.3l2.2 2q2.3 2 4.9 3.6l2.5 1.5.5.2.9.4 1 .5 1 .5 2.3 1.1q7.5 4.1 12.5 10.9l2 3.3a30 30 0 0 1 3.2 9.7q.4 3 .1 5.9a1.2 1.2 0 0 1-1.8.9l-1-.8-.8-.7q-1.5-1.4-2.4-3.3-1.5-3.8-4.1-7l-1.8-2.1a38 38 0 0 0-8.5-6.7l-1.2-.7-1-.6-.9-.5-1.4-.8-2.1-1.2-.1-.1-1-.6-1.2-.8q-2.4-1.5-4.4-3.5a39 39 0 0 1-6.3-7.2l-.3-.4A40 40 0 0 1 42 46q-1.1-2.5-.7-5.1" style="fill:#9dcf53"/><path d="M41.3 41c-.1-.4.9-.9 1.1-.5a12 12 0 0 1 3.5 2.9q3.5 4.4 7.6 8.3l2.2 2q2.3 2.1 4.9 3.6l2.5 1.5.5.2.9.4 1 .5 1 .5 2.3 1.1a38 38 0 0 1 14.5 14.2 30 30 0 0 1 3.2 9.7q.4 3 .1 5.9a1.2 1.2 0 0 1-1.8.9l-1-.8c-.1-.2-.7-.5-.8-.8q-1.5-1.4-2.4-3.3-1.6-3.7-4.1-7l-1.8-2.1a38 38 0 0 0-8.5-6.7l-1.2-.7-1-.6-.9-.5-1.4-.8-2.1-1.2-.1-.1-1-.6-1.2-.8q-2.4-1.5-4.4-3.5a39 39 0 0 1-6.3-7.2l-.3-.4a40 40 0 0 1-4.5-9.1q-.8-2.4-.5-5" style="fill:#9ecf53"/><path d="M41.4 41c-.1-.4.9-.9 1.1-.5a12 12 0 0 1 3.5 2.9 78 78 0 0 0 9.8 10.2q2.3 2 4.9 3.6l2.5 1.5.5.2.9.4 1 .4 1 .5 2.3 1.1a38 38 0 0 1 14.5 14.2 30 30 0 0 1 3.2 9.6q.4 3 .1 5.9a1.1 1.1 0 0 1-1.7.9l-1-.8c-.1-.3-.7-.5-.8-.8q-1.5-1.4-2.4-3.3-1.6-3.7-4.1-7l-1.8-2.1a37 37 0 0 0-8.4-6.7l-1.2-.7-1-.6-.9-.5-1.4-.8-2.1-1.2-.1-.1-1-.6-1.2-.8q-2.4-1.5-4.4-3.5a39 39 0 0 1-6.3-7.2l-.3-.4a40 40 0 0 1-4.5-9.1 7 7 0 0 1-.7-4.7" style="fill:#9fcf53"/><path d="M41.4 41.1c-.1-.4.9-.9 1.1-.5q2 1.1 3.5 2.9a87 87 0 0 0 9.8 10.2q2.3 2 4.8 3.6l2.5 1.4.5.2.9.4 1 .4 1 .5 2.3 1.1a37 37 0 0 1 14.5 14.1 28 28 0 0 1 3.3 15.5 1.1 1.1 0 0 1-1.7.9l-1-.8c-.1-.3-.7-.5-.8-.8q-1.5-1.4-2.3-3.3-1.6-3.7-4.1-6.9l-1.8-2.1a37 37 0 0 0-8.4-6.7l-1.2-.7-1-.6-.9-.5-1.3-.7-2-1.2-.1-.1-1-.6-1.2-.7q-2.3-1.6-4.3-3.4a39 39 0 0 1-6.3-7.2l-.3-.4a40 40 0 0 1-4.5-9.1 7 7 0 0 1-1-4.9" style="fill:#a0cf53"/><path d="M41.4 41.2c-.1-.4.9-.9 1.1-.5q2 1.2 3.5 2.9a76 76 0 0 0 14.6 13.7l2.5 1.4.5.2.9.4 1 .4 1 .5 2.3 1.1a36 36 0 0 1 14.5 14 30 30 0 0 1 3.2 9.5q.4 3 .1 5.8a1.1 1.1 0 0 1-1.7.9l-1-.8c-.1-.3-.7-.5-.8-.8q-1.5-1.4-2.3-3.3-1.6-3.7-4.1-6.9l-1.8-2.1a40 40 0 0 0-8.4-6.6l-1.2-.7-1-.6-.9-.5-1.3-.7-2-1.2-.1-.1-1-.6-1.2-.7q-2.3-1.5-4.3-3.4a36 36 0 0 1-6.3-7.2l-.3-.4q-2.5-3.7-4.1-7.9l-.5-1.2q-1.1-2.1-.9-4.6" style="fill:#a1d053"/><path d="M41.5 41.2c-.1-.4.8-.9 1.1-.5q2 1.2 3.5 2.9a76 76 0 0 0 14.6 13.7l2.5 1.4.5.2.9.4 1 .4 1 .5 2.3 1.1a36 36 0 0 1 14.4 14 30 30 0 0 1 3.2 9.5q.4 3 .1 5.8a1.1 1.1 0 0 1-1.7.9l-1-.9c-.1-.3-.7-.5-.8-.8q-1.5-1.4-2.3-3.3-1.6-3.7-4.1-6.9l-1.8-2.1a40 40 0 0 0-8.4-6.6l-1.2-.7-1-.6-.9-.5-1.3-.7-2-1.1-.1-.1-1-.6-1.2-.7q-2.3-1.5-4.3-3.4a39 39 0 0 1-6.3-7.1l-.3-.4q-2.4-3.6-4.1-7.8l-.5-1.2q-1.1-2.3-.8-4.8" style="fill:#a2d053"/><path d="M41.5 41.3c-.1-.4.8-.9 1.1-.5q2 1.2 3.5 2.9a76 76 0 0 0 14.6 13.7l2.5 1.4.5.2.9.4.9.4 1 .5 2.3 1.1a37 37 0 0 1 14.4 13.9 30 30 0 0 1 3.2 9.5q.4 3 .1 5.8a1.1 1.1 0 0 1-1.7.9l-.9-.9c-.1-.3-.7-.5-.8-.8q-1.5-1.4-2.3-3.3-1.5-3.6-4.1-6.8l-1.8-2.1a41 41 0 0 0-8.3-6.6l-1.2-.7-1-.6-.9-.5-1.3-.7-2-1.1-.1-.1-1-.6-1.2-.7q-2.3-1.5-4.3-3.4-3.6-3.1-6.3-7.1l-.3-.4q-2.4-3.6-4.1-7.8l-.5-1.2q-1.1-2.2-.9-4.8" style="fill:#a3d053"/><path d="M41.5 41.3c0-.4.8-.9 1.1-.5q2 1.2 3.4 2.9a76 76 0 0 0 14.6 13.7l2.5 1.4.5.2.9.4.9.4 1 .5 2.2 1.1A37 37 0 0 1 83 75.3a30 30 0 0 1 3.2 9.5q.4 3 .1 5.8a1 1 0 0 1-1.7.8l-.9-.9-.8-.8q-1.5-1.4-2.3-3.3-1.5-3.6-4.1-6.8l-1.8-2.1a41 41 0 0 0-8.3-6.6l-1.2-.7-1-.6-.9-.5-1.3-.7-2-1.1-.1-.1-1-.6-1.2-.7q-2.3-1.5-4.3-3.4-3.6-3.1-6.3-7.1l-.3-.4q-2.4-3.7-4.2-7.8l-.5-1.2c-.6-1.4-.4-3.2-.6-4.7" style="fill:#a4d053"/><path d="M41.6 41.4c0-.4.8-.9 1.1-.5q2 1.2 3.4 3a86 86 0 0 0 9.7 10 50 50 0 0 0 7.3 4.9l.5.2.9.4.9.4 1 .5 2.2 1.1A38 38 0 0 1 83 75.3a30 30 0 0 1 3.2 9.5q.4 3 .1 5.8a1 1 0 0 1-1.7.8l-.9-.9-.7-.8q-1.4-1.5-2.3-3.3-1.6-3.6-4.1-6.8l-1.8-2.1a38 38 0 0 0-8.3-6.5l-1.2-.7-1-.6-.9-.5-1.3-.7-2-1.1-.1-.1-1-.6-1.2-.7q-2.3-1.4-4.3-3.3a39 39 0 0 1-6.4-7.1l-.3-.4q-2.5-3.6-4.2-7.8l-.5-1.2q-.5-2.4-.5-4.8" style="fill:#a5d154"/><path d="M41.6 41.5q.2-.7.8-.6l.3.1q1.9 1.3 3.4 3a99 99 0 0 0 9.7 10 38 38 0 0 0 7.3 4.9l.5.2.9.4.9.4 1 .5 2.2 1.1A37 37 0 0 1 83 75.3a30 30 0 0 1 3.2 9.5q.4 3 .1 5.8a1 1 0 0 1-1.7.8l-.9-.9-.7-.8q-1.4-1.5-2.3-3.3-1.6-3.6-4.1-6.8l-1.8-2.1a37 37 0 0 0-8.2-6.5l-1.2-.7-1-.6-.9-.5-1.3-.7-2-1.1-.1-.1-1-.6-1.2-.7q-2.3-1.4-4.3-3.3a39 39 0 0 1-6.4-7.1l-.3-.4q-2.5-3.6-4.2-7.8l-.5-1.2c-.6-1.5-.4-3.2-.6-4.7" style="fill:#a6d154"/><path d="M41.6 41.5q.2-.7.8-.6l.3.1 3.4 3a99 99 0 0 0 9.7 10 38 38 0 0 0 7.2 4.9l.5.2.9.4.9.4 1 .5 2.2 1.1a36 36 0 0 1 14.3 13.8 27 27 0 0 1 3.3 15.3 1 1 0 0 1-1.7.8l-.9-.9-.7-.8q-1.3-1.4-2.2-3.3-1.6-3.6-4.1-6.7l-1.8-2.1a41 41 0 0 0-8.2-6.5l-1.2-.7-1-.6-.9-.5-1.3-.7-2-1.1-.1-.1-1-.6-1.2-.7q-2.3-1.4-4.3-3.3a39 39 0 0 1-6.4-7.1l-.3-.4q-2.5-3.6-4.2-7.8l-.5-1.2q-.4-2.4-.5-4.8" style="fill:#a7d154"/><path d="M41.7 41.6q.2-.7.8-.6l.3.1 3.4 3a85 85 0 0 0 9.6 10 37 37 0 0 0 7.1 4.9l.5.2.9.4.9.4 1 .5 2.2 1.1a37 37 0 0 1 14.3 13.8 29 29 0 0 1 3.2 9.4q.4 2.8.1 5.7a1 1 0 0 1-1.7.8l-.9-.9q-.3-.5-.7-.8l-2.2-3.3q-1.6-3.6-4.1-6.7l-1.8-2.1a38 38 0 0 0-8.2-6.5l-1.2-.7-1-.6-.9-.5-1.3-.7-2-1.1-.1-.1-1-.6-1.2-.7A44 44 0 0 1 47 55.7l-.3-.4q-2.5-3.6-4.2-7.8l-.5-1.2z" style="fill:#a8d154"/><path d="M41.7 41.7c-.1-.5.8-.8 1.1-.5l3.4 3a73 73 0 0 0 14.3 13.4l2.4 1.4.4.2.9.4.9.4 1 .5 2.2 1.1a38 38 0 0 1 14.3 13.7 29 29 0 0 1 3.2 9.3q.4 2.9.1 5.7-.1 1-1.2 1l-.5-.2-.9-.9q-.3-.5-.7-.8l-2.2-3.3a35 35 0 0 0-4.1-6.7l-1.8-2a36 36 0 0 0-8.1-6.4l-1.2-.7-1-.6-.9-.5-1.3-.7-2-1.1-.1-.1-1-.6-1.2-.7A44 44 0 0 1 47 55.7l-.3-.4a58 58 0 0 1-3.7-7.5l-.5-1.2q-.8-2.4-.8-4.9" style="fill:#a9d254"/><path d="M41.7 41.7c-.1-.5.7-.8 1.1-.5l3.4 3a73 73 0 0 0 14.3 13.4l2.4 1.4.4.2.9.4.9.4 1 .5 2.2 1.1a37 37 0 0 1 14.3 13.7 26 26 0 0 1 3.4 15q-.1 1-1.2 1l-.5-.2-.9-.9-.7-.8-2.2-3.3q-1.6-3.6-4.1-6.6l-1.8-2a36 36 0 0 0-8.1-6.4l-1.2-.7-1-.6-.9-.5-1.3-.7-2-1.1-.1-.1-1-.6-1.2-.7-4.3-3.2q-3.6-3-6.4-7l-.3-.4q-2.4-3.6-4.2-7.7l-.5-1.2z" style="fill:#aad254"/><path d="M41.8 41.8c-.1-.5.7-.8 1.1-.5l3.3 3a83 83 0 0 0 14.3 13.4l2.4 1.4.4.2.9.4.9.4 1 .5 2.2 1.1a36 36 0 0 1 14.3 13.7 26 26 0 0 1 3.4 15q-.1 1-1.2 1l-.5-.2-.9-.9-.7-.8-2.2-3.3q-1.6-3.6-4.1-6.6l-1.8-2a36 36 0 0 0-8.1-6.4l-1.2-.7-1-.5-.9-.5-1.3-.7-2-1.1-.1-.1-1-.6-1.1-.7q-2.2-1.5-4.2-3.2-3.6-3-6.4-7l-.3-.4q-2.4-3.6-4.2-7.7l-.5-1.2z" style="fill:#abd254"/><path d="M41.8 41.9c-.1-.5.7-.8 1.1-.5l3.3 3a83 83 0 0 0 14.3 13.4l2.4 1.4.4.2.9.4.9.4 1 .5 2.2 1.1a35 35 0 0 1 14.2 13.5 26 26 0 0 1 3.4 15q-.1 1-1 1l-.7-.3-.9-.9-.7-.8-2.2-3.3a32 32 0 0 0-5.9-8.6 37 37 0 0 0-9.2-7.1l-1-.5-.9-.5-1.3-.7-2-1.1-.1-.1-1-.6-1.1-.7q-2.2-1.5-4.2-3.2-3.6-3-6.4-7l-.3-.4q-2.4-3.6-4.2-7.7l-.5-1.2z" style="fill:#acd254"/><path d="M41.8 41.9c-.1-.5.7-.8 1.1-.5l3.3 3a82 82 0 0 0 9.5 9.9 54 54 0 0 0 7.1 4.9l.4.2.9.4.9.4 1 .5 2.2 1.1a35 35 0 0 1 14.2 13.5 26 26 0 0 1 3.4 15q-.1 1-1 1L84 91l-.8-.9-.7-.8-2.1-3.3a29 29 0 0 0-5.9-8.5 39 39 0 0 0-10-7.5l-.9-.5-1.3-.7-2-1.1-.1-.1-1-.6-1.1-.7q-2.2-1.5-4.2-3.2-3.6-3-6.4-6.9l-.3-.4q-2.4-3.6-4.2-7.7l-.5-1.2q-.6-2.4-.7-5" style="fill:#add254"/><path d="M41.9 42c-.1-.5.7-.8 1.1-.5l3.3 3q3.5 4.2 7.4 7.9l2.1 1.9a38 38 0 0 0 7.1 4.8l.4.2.9.4.9.4 1 .5 2.2 1.1a36 36 0 0 1 14.2 13.5 26 26 0 0 1 3.4 15q-.1 1-1 1l-.7-.3-.8-1-.7-.8-2.1-3.3a31 31 0 0 0-5.9-8.5 39 39 0 0 0-10.1-7.5l-.9-.5-1.3-.7-2-1.1-.1-.1-1-.6-1.1-.7q-2.3-1.5-4.2-3.2a38 38 0 0 1-6.4-6.9l-.3-.4a41 41 0 0 1-4.2-7.7l-.5-1.2q-.6-2.3-.7-4.7" style="fill:#aed354"/><path d="M41.9 42.1c-.1-.5.7-.8 1.1-.5l3.3 3q3.5 4.2 7.4 7.9l2.1 1.9a38 38 0 0 0 7.1 4.8l.4.2.8.4.9.4 1 .5 2.2 1.1a37 37 0 0 1 14.2 13.4 27 27 0 0 1 3.4 14.9q-.1 1-1 1l-.7-.3-.8-1-.7-.8-2.1-3.3a31 31 0 0 0-4.1-6.5l-1.7-2a39 39 0 0 0-10.1-7.5l-.9-.5-1.3-.7-2-1.1-.1-.1-1-.6-1.1-.7-4.2-3.1a38 38 0 0 1-6.4-6.9l-.3-.4a44 44 0 0 1-4.2-7.6l-.5-1.2q-.5-2.3-.7-4.7" style="fill:#afd354"/><path d="M42 42.1c-.1-.5.7-.8 1.1-.5l3.3 3q3.5 4.2 7.4 7.9l2.1 1.9a38 38 0 0 0 7.1 4.8l.4.2.8.4.9.4 1 .5 2.2 1.1a37 37 0 0 1 14.2 13.4A27 27 0 0 1 85.9 90q-.1.9-1 1l-.7-.3-.8-1-.7-.8-2.1-3.3a34 34 0 0 0-4.1-6.5l-1.7-2a40 40 0 0 0-10-7.5l-.9-.5-1.3-.7-2-1.1-.1-.1-1-.6-1.1-.7-4.2-3.1a38 38 0 0 1-6.4-6.9l-.3-.4a44 44 0 0 1-4.2-7.6l-.5-1.2q-.7-2.2-.8-4.6" style="fill:#b0d354"/><path d="M42 42.2c-.1-.5.7-.9 1.1-.5l3.3 3q3.5 4.2 7.4 7.9l2.1 1.9a46 46 0 0 0 7 4.8l.4.2.8.4.9.4 1 .5 2.2 1.1a35 35 0 0 1 14.1 13.4 27 27 0 0 1 3.4 14.8q-.1 1-1 1l-.7-.3-.8-1-.7-.8-2.1-3.3a35 35 0 0 0-4-6.4l-1.7-2a37 37 0 0 0-10-7.4l-.9-.5-1.3-.7-1.9-1.1-.1-.1-1-.6-1.1-.7-4.2-3.1a38 38 0 0 1-6.4-6.9l-.3-.4a44 44 0 0 1-4.2-7.6l-.5-1.2q-.6-2.4-.8-4.8" style="fill:#b1d354"/><path d="M42 42.2c-.1-.5.7-.9 1.1-.5q1.6 1.4 3.2 3.1 3.4 4.2 7.4 7.8l2.1 1.8a46 46 0 0 0 7 4.8l.4.2.8.4.9.4 1 .5 2.2 1.1a36 36 0 0 1 14.1 13.3 27 27 0 0 1 3.4 14.8q-.1.9-1 1l-.7-.3-.8-1-.7-.8-2.1-3.3a35 35 0 0 0-4-6.4l-1.7-2a35 35 0 0 0-10-7.4l-.9-.5-1.3-.7-1.9-1-.1-.1-1-.5-1.1-.7-4.2-3.1a35 35 0 0 1-6.7-7.3q-2.5-3.6-4.2-7.6l-.5-1.2z" style="fill:#b2d455"/><path d="M42.1 42.3c-.1-.5.7-.9 1.1-.5q1.6 1.4 3.2 3.1 3.4 4.2 7.4 7.8l2.1 1.8a36 36 0 0 0 7 4.8l.4.2.8.4.9.4 1 .5 2.2 1.1a36 36 0 0 1 14.1 13.3A27 27 0 0 1 85.7 90a1 1 0 0 1-1.7.6l-.8-1-.6-.8-2.1-3.3a39 39 0 0 0-4-6.4l-1.7-2a37 37 0 0 0-10-7.4l-.9-.5-1.3-.7-1.9-1-.1-.1-1-.5-1.1-.7q-2.3-1.4-4.2-3.1a38 38 0 0 1-10.9-14.8l-.5-1.2q-.6-2.4-.8-4.8" style="fill:#b3d455"/><path d="M42.1 42.4c-.1-.5.7-.9 1.1-.5q1.6 1.4 3.2 3.1 3.4 4.2 7.4 7.8l2.1 1.8a49 49 0 0 0 7 4.8l.4.2.8.4.9.4 1 .5 2.2 1.1a36 36 0 0 1 14.1 13.3 28 28 0 0 1 3.2 9.1q.5 2.7.2 5.6c-.1.9-1.2 1.2-1.6.6l-.8-1-.6-.8-2-3.2A34 34 0 0 0 65.1 70l-.9-.5-1.3-.7-1.9-1-.1-.1-1-.5-1.1-.7q-2.2-1.4-4.2-3a38 38 0 0 1-10.9-14.8l-.5-1.2q-1-2.5-1.1-5.1" style="fill:#b4d455"/><path d="M42.1 42.4c-.1-.5.7-.9 1-.5q1.6 1.4 3.2 3.1a78 78 0 0 0 7.3 7.8l2.1 1.8a49 49 0 0 0 7 4.8l.4.2.8.4.9.4 1 .5L68 62a37 37 0 0 1 14.1 13.2 25 25 0 0 1 3.2 9.1q.5 2.7.2 5.6c-.1.9-1.2 1.2-1.6.6l-.8-1-.6-.9-2-3.2A34 34 0 0 0 67 71l-1.1-.6-1-.5-.9-.5-1.3-.7-1.9-1-.1-.1-1-.5-1.1-.7q-2.2-1.4-4.2-3a38 38 0 0 1-10.9-14.8l-.5-1.2q-.6-2.4-.9-5" style="fill:#b5d455"/><path d="M42.2 42.5c-.1-.5.7-.9 1-.5q1.6 1.4 3.2 3.1a77 77 0 0 0 7.3 7.7l2.1 1.8a36 36 0 0 0 7 4.7l.4.2.8.4.9.4 1 .5 2.2 1.1a35 35 0 0 1 14 13.2 27 27 0 0 1 3.2 9q.5 2.8.2 5.6c-.1.9-1.2 1.2-1.6.6l-.8-1-.6-.9-2-3.2A34 34 0 0 0 67 70.9l-1.1-.6-.9-.5-.8-.5-1.3-.7-1.9-1-.1-.1-1-.5-1.1-.6q-2.2-1.4-4.2-3a38 38 0 0 1-11-14.7l-.5-1.2q-.6-2.4-.9-5" style="fill:#b6d555"/><path d="M42.2 42.6c-.1-.5.7-.9 1-.5q1.6 1.4 3.2 3.1a77 77 0 0 0 7.3 7.7l2.1 1.8a36 36 0 0 0 7 4.7l.4.2.8.4.9.4 1 .5 2.2 1q7.1 3.7 12 10.1l2 3a27 27 0 0 1 3.2 9q.5 2.8.2 5.6c-.1.9-1.2 1.2-1.6.6l-.7-1-.6-.9-2-3.2a33 33 0 0 0-13.4-14.2l-1.1-.6-.9-.5-.8-.5-1.2-.7-1.9-1-.1-.1-1-.5-1.1-.6A38 38 0 0 1 44 48.7l-.5-1.2a16 16 0 0 1-1.3-4.9" style="fill:#b7d555"/><path d="M42.2 42.6c-.1-.5.7-.9 1-.5l3.1 3.1a90 90 0 0 0 7.3 7.7l2.1 1.8a48 48 0 0 0 7 4.7l.4.2.8.4.9.4 1 .5 2.2 1q7.1 3.6 12 10l2 3a27 27 0 0 1 3.5 14.5c-.1.9-1.2 1.2-1.6.6l-.7-1-.6-.9-2-3.2a33 33 0 0 0-13.4-14.2l-1.1-.6-.9-.5-.8-.5-1.2-.7-1.9-1-.1-.1-1-.5-1.1-.6A41 41 0 0 1 44 48.6l-.5-1.2q-1-2.3-1.3-4.8" style="fill:#b8d555"/><path d="M42.3 42.7c-.1-.5.7-.9 1-.5l3.1 3.1a90 90 0 0 0 7.3 7.7l2.1 1.8q2.2 1.8 4.6 3.3l2.4 1.4.4.2.8.4.9.4 1 .4 2.2 1q7.1 3.6 12 10l2 3a27 27 0 0 1 3.5 14.5c-.1.9-1.2 1.2-1.6.6l-.7-1.1-.6-.9-2-3.2a36 36 0 0 0-5.7-8.1 39 39 0 0 0-7.7-6.1l-1.1-.6-.9-.5-.8-.5-1.2-.7-1.9-1-.1-.1-1-.5-1.1-.6q-2.1-1.3-4.1-2.9a41 41 0 0 1-11-14.6l-.5-1.2q-1.1-2.2-1.3-4.7" style="fill:#b9d555"/><path d="M42.3 42.8c-.1-.5.7-.9 1-.5l3.1 3.1a90 90 0 0 0 7.3 7.7l2.1 1.8 4.5 3.3 2.3 1.4.4.2.8.4.9.4 1 .4 2.2 1q7.1 3.6 12 10l2 3a27 27 0 0 1 3.5 14.5q0 .8-.9.9l-.7-.4-.7-1.1-.6-.9-2-3.2a36 36 0 0 0-5.7-8.1 35 35 0 0 0-7.7-6l-1.1-.6-.9-.5-.8-.5-1.2-.7-1.9-1-.1-.1-1-.5-1.1-.6q-2.1-1.3-4.1-2.9a37 37 0 0 1-11-14.6l-.5-1.2a26 26 0 0 1-1.1-4.7" style="fill:#bad555"/><path d="M42.3 42.8c-.1-.5.7-.9 1-.5l3.1 3.1q3.4 4 7.3 7.6l2.1 1.8 4.5 3.3 2.3 1.4.4.2.8.4.9.4 1 .4 2.2 1a37 37 0 0 1 12 9.9l2 3a24 24 0 0 1 3.2 9q.5 2.7.3 5.5 0 .8-.9.9l-.7-.4-.7-1.1-.6-.9-1.9-3.2a32 32 0 0 0-5.7-8 37 37 0 0 0-7.6-6l-1.1-.6-.9-.5-.8-.5-1.2-.7-1.9-1-.1-.1-1-.5-1.1-.6a38 38 0 0 1-15.1-17.5l-.5-1.2q-1-2.2-1.3-4.6" style="fill:#bbd655"/><path d="M42.4 42.9c-.1-.5.7-.9 1-.5l3.1 3.1q3.5 4 7.2 7.6l2.1 1.8 4.5 3.3 2.3 1.4.4.2.8.4.9.4 1 .4 2.1 1q7 3.7 11.9 9.9l2 3q1.5 2.5 2.3 5.2l1 3.8q.5 2.8.3 5.5 0 .8-.9.9l-.7-.4-.7-1.1-.6-.9-1.9-3.2a36 36 0 0 0-13.3-14l-1.1-.6-.9-.5-.8-.5-1.2-.7-1.9-1-.1-.1-1-.5-1.1-.6A38 38 0 0 1 44 48.8l-.5-1.2a26 26 0 0 1-1.1-4.7" style="fill:#bcd655"/><path d="M42.4 43c-.1-.5.7-.9 1-.5l3.1 3.1q3.5 4 7.2 7.6l2.1 1.8 4.5 3.3 2.3 1.3.4.2.8.4.9.4 1 .4 2.1 1q7 3.6 11.9 9.9l2 3q1.5 2.4 2.3 5.1l1 3.8q.5 2.8.3 5.5 0 .8-.9.9l-.7-.4-.7-1.1-.6-.9-1.9-3.2a36 36 0 0 0-13.3-14l-1.1-.6-.9-.5-.8-.5-1.2-.7-1.9-1-.1-.1-1-.5-1.1-.6A38 38 0 0 1 44 48.7l-.5-1.2q-.8-2.3-1.1-4.5" style="fill:#bdd655"/><path d="M42.4 43c-.1-.5.7-.9 1-.5l3.1 3.1a75 75 0 0 0 7.2 7.6l2.1 1.8a64 64 0 0 0 6.8 4.6l.4.2.8.4.9.4 1 .4 2.1 1q7 3.5 11.9 9.8l2 3q1.5 2.4 2.3 5.1l1 3.7q.5 2.8.3 5.5 0 .8-.9.9l-.7-.4-.7-1.1-.6-.9-1.9-3.2a31 31 0 0 0-5.7-7.9 39 39 0 0 0-7.5-5.9l-1.1-.6-.9-.5-.8-.5-1.2-.7-1.9-1-.1-.1-1-.5-1.1-.6a37 37 0 0 1-15.1-17.2l-.5-1.2q-.9-2.3-1.2-4.7" style="fill:#bed655"/><path d="M42.5 43.1q0-.5.5-.6l.5.1 3 3.2q3.3 4 7.2 7.5l2.1 1.8a33 33 0 0 0 6.8 4.5l.4.2.8.4.9.4 1 .4 2.1 1a35 35 0 0 1 13.9 12.8q1.5 2.4 2.3 5.1l1 3.7q.5 2.8.3 5.5-.1.8-1 .8l-.6-.3-.7-1.1-.6-.9-1.9-3.2a31 31 0 0 0-5.7-7.8 36 36 0 0 0-7.5-5.9l-1.1-.6-.9-.5-.8-.5-1.2-.6-1.9-1-.1-.1-1-.5-1.1-.6a37 37 0 0 1-15.1-17.2l-.5-1.2q-.7-2.4-1.1-4.8" style="fill:#bfd756"/><path d="M42.5 43.1q0-.5.5-.6l.5.1 3 3.2q3.3 4 7.2 7.5l2.1 1.8a29 29 0 0 0 6.8 4.5l.4.2.8.4.9.4 1 .4 2.1 1a35 35 0 0 1 13.9 12.8q1.5 2.4 2.3 5.1l1 3.7q.5 2.7.3 5.4-.1.9-1 .8l-.6-.3-.7-1.1-.6-.9-1.9-3.2a31 31 0 0 0-4-6l-1.7-1.8a36 36 0 0 0-7.5-5.9l-1.1-.6-.9-.5-.8-.4-1.2-.6-1.9-1-.1-.1-1-.5-1.1-.6a37 37 0 0 1-15.1-17.2l-.5-1.2q-.7-2.4-1.1-4.8" style="fill:#c0d756"/><path d="M42.5 43.2q0-.5.5-.6l.5.1 3 3.2a74 74 0 0 0 7.2 7.5l2.1 1.8a29 29 0 0 0 6.8 4.5l.4.2.8.4.9.4 1 .4 2.1 1a35 35 0 0 1 13.8 12.7q1.5 2.4 2.3 5.1l1 3.7q.5 2.7.3 5.4-.1.9-1 .8l-.6-.3-.7-1.1-.5-.9q-1-1.5-1.8-3.2a30 30 0 0 0-4-5.9l-1.7-1.8a40 40 0 0 0-7.5-5.9l-1.1-.6-.9-.5-.8-.4-1.2-.6-1.9-1-.1-.1-1-.5-1.1-.6-4.1-2.8a48 48 0 0 1-6.5-7 36 36 0 0 1-4.3-7.4l-.5-1.2q-.8-2.3-1.4-4.8" style="fill:#c1d756"/><path d="M42.6 43.3q0-.5.5-.6l.5.1 3 3.2a86 86 0 0 0 9.2 9.3 33 33 0 0 0 6.7 4.5l.4.2.8.4.9.4 1 .4 2.1 1a35 35 0 0 1 13.8 12.7q1.5 2.4 2.3 5.1l1 3.7q.5 2.7.3 5.4a.9.9 0 0 1-1.6.4l-.6-1.1-.5-.9-1.8-3.2q-1.7-3.1-4-5.9l-1.7-1.8a38 38 0 0 0-9.4-6.9l-.8-.4-1.2-.6-1.8-.9h-.1l-1-.5-1.1-.6q-2.1-1.2-4-2.8a52 52 0 0 1-6.8-7.3 36 36 0 0 1-4.3-7.4l-.5-1.2q-.9-2.3-1.3-4.7" style="fill:#c2d756"/><path d="M42.6 43.3q0-.5.5-.6l.5.1 3 3.2a72 72 0 0 0 13.6 12.4l2.3 1.3.4.2.8.4.9.4.9.4 2.1 1a35 35 0 0 1 13.8 12.6q1.5 2.4 2.3 5.1l1 3.7q.5 2.7.3 5.4a.9.9 0 0 1-1.6.4l-.6-1.1-.5-.9-1.8-3.2q-1.7-3.1-4-5.9l-1.7-1.8a38 38 0 0 0-7.4-5.8l-1-.6-.9-.5-.8-.4-1.2-.6-1.8-.9h-.1l-1-.5-1.1-.6q-2.1-1.2-4-2.8a36 36 0 0 1-11-14.2l-.5-1.2q-1-2.4-1.4-5" style="fill:#c3d856"/><path d="M42.6 43.4q0-.5.5-.6l.5.1 3 3.2a83 83 0 0 0 9.1 9.1 46 46 0 0 0 6.7 4.5l.4.2.8.4.9.4.9.4 2.1 1a35 35 0 0 1 13.8 12.5 25 25 0 0 1 3.6 14.1.9.9 0 0 1-1.6.4l-.6-1.2-.5-.9-1.8-3.2a30 30 0 0 0-4-5.8l-1.7-1.8a42 42 0 0 0-7.4-5.8l-1-.6-.9-.5-.8-.4-1.2-.6-1.8-.9h-.1l-.9-.5-1.1-.6q-2.1-1.2-4-2.7a36 36 0 0 1-11-14.2l-.5-1.1q-.9-2.4-1.4-4.9" style="fill:#c4d856"/><path d="M42.7 43.5q0-.5.5-.6l.5.1 2.9 3.2q3.3 3.9 7.1 7.4l2 1.7a46 46 0 0 0 6.7 4.5l.4.2.8.4.9.4.9.4 2.1 1a35 35 0 0 1 13.8 12.5 32 32 0 0 1 3.3 8.7q.6 2.7.3 5.4a.9.9 0 0 1-1.6.4l-.6-1.2-.5-.9-1.8-3.2q-1.7-3-4-5.8l-1.6-1.8a45 45 0 0 0-7.3-5.8l-1-.6-.9-.5-.8-.4-1.2-.6-1.8-.9h-.1l-.9-.5-1.1-.6q-2.1-1.2-4-2.7a36 36 0 0 1-11-14.2l-.5-1.1q-1-2.4-1.5-4.9" style="fill:#c5d856"/><path d="M42.7 43.5q0-.5.5-.6l.5.1 2.9 3.2a72 72 0 0 0 7.1 7.4l2 1.7a46 46 0 0 0 6.7 4.5l.4.2.8.4.9.4.9.4 2.1 1a35 35 0 0 1 13.7 12.5 32 32 0 0 1 3.3 8.7q.5 2.7.4 5.4a.9.9 0 0 1-1.6.4l-.6-1.2-.5-.9-1.8-3.2q-1.7-3-4-5.8l-1.6-1.8a37 37 0 0 0-7.3-5.7l-1-.6-.9-.5-.8-.4-1.2-.6-1.8-.9h-.1l-.9-.5-1.1-.6q-2-1.2-4-2.7a36 36 0 0 1-11-14.2l-.5-1.1q-.9-2.4-1.5-5" style="fill:#c6d856"/><path d="M42.7 43.6q0-.5.5-.6l.5.1 2.9 3.2q3.3 3.9 7.1 7.4l2 1.7a32 32 0 0 0 6.7 4.4l.4.2.8.4.9.4.9.4 2.1 1a35 35 0 0 1 13.7 12.4q1.4 2.4 2.4 5l1 3.7q.5 2.7.4 5.4a.9.9 0 0 1-1.6.4l-.6-1.2-.5-.9-1.8-3.2q-1.7-3-4-5.8l-1.6-1.8a37 37 0 0 0-7.3-5.7l-1-.6-.9-.5-.8-.4-1.2-.6-1.8-.9h-.1l-.9-.5-1.1-.6a36 36 0 0 1-15.6-18q-.9-2.3-1.5-4.8" style="fill:#c7d856"/><path d="M42.8 43.7q0-.5.5-.6l.5.1 2.9 3.2a71 71 0 0 0 7.1 7.3l2 1.7a32 32 0 0 0 6.7 4.4l.4.2.8.4.9.4.9.4 2.1 1a35 35 0 0 1 13.7 12.4q1.4 2.4 2.4 5 1.5 4.4 1.4 8.9a.9.9 0 0 1-1.6.4l-.6-1.2-.5-.9-1.7-3.2q-1.5-3-4-5.7l-1.6-1.8a37 37 0 0 0-7.3-5.7l-1-.6-.9-.5-.8-.4-1.2-.6-1.8-.9H62l-.9-.5-1.1-.6a36 36 0 0 1-10.8-9.6 42 42 0 0 1-4.9-8.4q-1-2.2-1.5-4.6" style="fill:#c8d956"/><path d="M42.8 43.7q0-.5.5-.6l.5.1 2.9 3.2a71 71 0 0 0 7.1 7.3l2 1.7a44 44 0 0 0 6.7 4.4l.4.2.7.4.9.4.9.4 2.1 1a35 35 0 0 1 13.7 12.4q1.4 2.4 2.4 5 1.5 4.4 1.4 8.9-.1.8-.8.8a1 1 0 0 1-.8-.5l-.6-1.2-.5-.9-1.7-3.2q-1.6-3-4-5.7L75 76q-3.3-3.2-7.2-5.7l-1-.6-.9-.5-.8-.4-1.2-.6-1.8-.9H62l-.9-.5-1.1-.6-4-2.6a39 39 0 0 1-11.7-15.1z" style="fill:#c9d956"/><path d="M42.8 43.8q0-.5.5-.6l.5.1 2.9 3.2q3.3 3.9 7.1 7.3l2 1.7a44 44 0 0 0 6.7 4.4l.4.2.7.4.9.4.9.4 2.1 1a36 36 0 0 1 13.7 12.3q1.4 2.4 2.4 5 1.5 4.4 1.4 8.9a.8.8 0 0 1-1.5.3l-.6-1.2-.5-.9-1.7-3.2q-1.6-3-3.9-5.7L75.2 76Q72 72.8 68 70.4l-1-.6-.9-.5-.8-.4-1.2-.6-1.8-.9h-.1l-.9-.5-1.1-.6-4-2.6a36 36 0 0 1-11.7-15.1q-1-2.2-1.7-4.8" style="fill:#cad956"/><path d="M42.9 43.9q0-.5.5-.6l.5.1 2.9 3.2q3.3 3.9 7.1 7.3l2 1.7 4.3 3.1 2.3 1.3.4.2.7.4.9.4.9.4 2.1 1a33 33 0 0 1 16 17.2q1.5 4.4 1.4 8.9a.8.8 0 0 1-1.5.3l-.6-1.2-.5-1-1.7-3.2q-1.6-3-3.9-5.6l-1.6-1.7q-3.3-3.2-7.2-5.6l-1-.6-.9-.5-.8-.4-1.2-.6-1.8-.9h-.1l-.9-.5-1.1-.6A34 34 0 0 1 49.3 57a45 45 0 0 1-4.9-8.3z" style="fill:#cbd956"/><path d="M42.9 43.9c-.1-.5.6-.9.9-.5l2.8 3.3q3.3 3.8 7 7.2l2 1.7q2 1.7 4.3 3.1l2.2 1.3.4.2.7.4.9.4.9.4 2.1 1a34 34 0 0 1 13.6 12.3q1.4 2.4 2.4 4.9a24 24 0 0 1 1.4 8.9.8.8 0 0 1-1.5.3l-.5-1.2-.5-1-1.7-3.2q-1.6-3-3.9-5.6l-1.6-1.7q-3.2-3.2-7.1-5.6l-1-.6-.9-.5-.8-.4-1.2-.6-1.8-.9h-.1L61 67l-1.1-.5a34 34 0 0 1-10.8-9.4 45 45 0 0 1-4.9-8.3z" style="fill:#ccda57"/><path d="M43 44c-.1-.5.6-.9.9-.5l2.8 3.3a97 97 0 0 0 7 7.2l2 1.7q2 1.7 4.3 3.1l2.2 1.3.4.2.7.3.9.4.9.4 2.1 1a34 34 0 0 1 13.6 12.3q1.4 2.4 2.4 4.9a24 24 0 0 1 1.4 8.9.8.8 0 0 1-1.5.3l-.5-1.2-.5-1-1.7-3.2q-1.6-3-3.9-5.6l-1.6-1.7q-3.2-3.2-7.1-5.6l-1-.6-.9-.5-.8-.4-1.2-.6-1.8-.9H62l-.9-.4-1.1-.5q-2.1-1-3.9-2.6a36 36 0 0 1-11.7-15.1z" style="fill:#cdda57"/><path d="M43 44c-.1-.5.6-.9.9-.5l2.8 3.3q3.3 3.8 7 7.2l2 1.7q2 1.7 4.3 3.1l2.2 1.3.4.2.7.3.9.4.9.4 2.1 1a35 35 0 0 1 13.6 12.1q1.4 2.4 2.4 4.9a24 24 0 0 1 1.4 8.9.8.8 0 0 1-1.5.3l-.5-1.2-.4-1q-.7-1.5-1.7-3.1-1.6-3-3.9-5.5L75 76.1q-3.2-3.2-7.1-5.6l-1-.6-.9-.5-.8-.4-1.1-.6-1.8-.9h-.1l-.9-.4-1.1-.5-3.9-2.5a33 33 0 0 1-6.8-6.8 45 45 0 0 1-4.9-8.3q-1-2.4-1.6-5" style="fill:#ceda57"/><path d="M43 44.1c-.1-.5.6-.9.9-.5l2.8 3.3q3.3 3.8 7 7.2l2 1.7 4.3 3.1 2.2 1.3.4.2.7.3.9.4.9.4 2.1 1a35 35 0 0 1 13.6 12.1q1.4 2.4 2.4 4.9a24 24 0 0 1 1.4 8.9.8.8 0 0 1-1.5.3l-.5-1.3-.4-1-1.6-3.1a30 30 0 0 0-5.5-7.2q-3.2-3.2-7.1-5.5l-1-.6-.9-.5-.8-.4-1.1-.6-1.8-.9h-.1l-.9-.4-1-.5q-2.1-1.1-3.9-2.5a35 35 0 0 1-11.2-13.9l-.5-1.1z" style="fill:#cfda57"/><path d="M43.1 44.2q-.1-.5.4-.6.3-.1.5.1l2.8 3.3q3.2 4 7 7.1l2 1.7 4.3 3 2.2 1.3.4.2.7.3.9.4.9.4 2.1 1a34 34 0 0 1 13.6 12.1 24 24 0 0 1 3.8 13.7q-.1.7-.8.7l-.7-.5-.5-1.3-.4-1-1.6-3.1a30 30 0 0 0-5.5-7.2q-3.2-3.1-7-5.5l-1-.6-.8-.5-.8-.4-1.1-.6-1.8-.9h-.1l-.9-.4-1-.5q-2.1-1-3.9-2.5a35 35 0 0 1-11.2-13.8l-.5-1.1q-1.5-2.2-2-4.8" style="fill:#d0db57"/><path d="M43.1 44.2q-.1-.5.4-.6.3-.1.5.1l2.8 3.3q3.2 4 7 7.1l2 1.7 4.3 3 2.2 1.3.4.2.7.3.9.4.9.4 2.1 1a34 34 0 0 1 13.5 12 24 24 0 0 1 3.8 13.7q-.1.7-.8.7l-.7-.5-.5-1.3-.4-1-1.6-3.1a30 30 0 0 0-5.5-7.2q-3.2-3.1-7-5.5l-1-.6-.8-.5-.8-.4-1.1-.6-1.8-.9h-.1l-.9-.4-1-.5q-2.1-1-3.9-2.5A35 35 0 0 1 45.5 50l-.5-1.1q-1.3-2.1-1.9-4.7" style="fill:#d1db57"/><path d="M43.1 44.3q-.1-.5.4-.6.3-.1.5.1 4.5 5.6 9.7 10.4a52 52 0 0 0 9.5 6.5l.9.4.9.4 2.1.9a33 33 0 0 1 13.5 12q2.4 3.9 3.4 8.4.5 2.6.4 5.2-.1.7-.8.7l-.7-.5q-2.2-6-6.4-10.8a39 39 0 0 0-14.1-10l-1-.5-1-.5q-2.1-1-3.9-2.5a35 35 0 0 1-11.2-13.8z" style="fill:#d2db57"/></g><path d="M41.2 39.6q-.5 1.9-2.5 2-2-.1-2.4-2 .5-2 2.4-1.9 2 0 2.5 1.9m36.5 30.6q-2 .2-2.7-1.7c-.5-1.1 0-2.4 1.1-2.9q2-.2 2.6 1.6c.4 1.3-.1 2.7-1 3m-10.3.5c-1-.8-1.3-2.3-.6-3.4q1-1.6 2.6-1l.4.2q1.5 1.4.6 3.2c-.6 1-1.9 1.5-3 1" style="fill:#ea7032"/><ellipse cx="47.5" cy="48.8" rx="2.5" ry="2.1" style="fill:#ef6c32" transform="rotate(-35 47.5 48.82)"/><path d="M57.3 55.4c.6 1.1.3 2.5-.8 3.2h-.1a2 2 0 0 1-2.9-.2l-.1-.2c-.7-1-.4-2.5.6-3.3a2.3 2.3 0 0 1 3.3.5m3.6 7.5c.8 1.3.5 3-.6 3.9s-2.7.8-3.3-.1q-.8-2.1.7-3.8c1.1-.8 2.5-.9 3.2 0m6.6-5.7c1.3.7 2 2.2 1.6 3.6a2.3 2.3 0 0 1-2.8 1.5h-.1a3 3 0 0 1-1.6-3.5 2 2 0 0 1 2.9-1.6" style="fill:#ef6c32"/><ellipse cx="81.4" cy="77.2" rx="2.4" ry="2.1" style="fill:#ea7032"/><ellipse cx="84.6" cy="87.3" rx="1.9" ry="1.6" style="fill:#ea7032" transform="rotate(-45 84.57 87.3)"/><path d="M32.2 24.9a3.4 3.4 0 0 1-3.1 3.7h-.5c-2 0-3.5-1.6-3.5-3.5 0-2 1.5-3.5 3.5-3.5a3.2 3.2 0 0 1 3.6 3.3m14.6-1.5a3.4 3.4 0 0 1-4.2 2.8c-1.8-.5-3-2.3-2.5-4.2.4-1.8 2.1-3 4-2.8 1.9.4 3 2.3 2.7 4.2" style="fill:#0c090c"/></svg>