<svg xml:space="preserve" width="16" height="16" viewBox="0 0 128 128"><linearGradient id="a" x1="64" x2="64" y1="105.8" y2="3.9" gradientTransform="matrix(1 0 0 -1 0 128)" gradientUnits="userSpaceOnUse"><stop offset="0" style="stop-color:#f78c1f"/><stop offset=".5" style="stop-color:#f37f12"/><stop offset="1" style="stop-color:#ef6c00"/></linearGradient><path d="m108 124-9-27.1v-.2q.5-1.2-.7-2l-.2-.6-.3.6q-1-.2-1.5.9c-1.8 4.3-3.8 7.4-11.8 4.8a59 59 0 0 0-20.1-2.5h-.6c-8.3 0-13.8.4-20.2 2.5-7.9 2.6-9.9-.5-11.7-4.8q-.5-1-1.5-1l-.3-.5-.2.7q-1 .6-.8 2L20 124z" style="fill:url(#a)"/><path d="M99 80.2c-1.3-2.2.3-4.6 3-7.4 4.3-4.6 9-15.2 4.6-25.9l-.8-2H104a3374 3374 0 0 0-80 0l-2.6 2a25 25 0 0 0 4.7 25.9c2.7 2.8 4.3 5.2 3 7.4s-4.8 2.6-4.8 2.6.9 2.2 2.9 3.5c1.8 1 4 1.4 5.7 1.4 0 0 6.1 8.5 22.2 8.5H73c16 0 22.2-8.5 22.2-8.5 1.6 0 3.9-.3 5.7-1.4 2-1.3 2.8-3.5 2.8-3.5s-3.6-.4-4.8-2.6" style="fill:#543930"/><radialGradient id="b" cx="99.6" cy="44.3" r="23.4" gradientTransform="matrix(1 0 0 .493 -20.99 60.7)" gradientUnits="userSpaceOnUse"><stop offset=".7" style="stop-color:#6d4c41;stop-opacity:0"/><stop offset="1" style="stop-color:#6d4c41"/></radialGradient><path d="M64 96.2v-9.4l28.6-2.3 2.6 3.2S89 96.2 73 96.2z" style="fill:url(#b)"/><radialGradient id="c" cx="76.5" cy="47.8" r="6.9" gradientTransform="matrix(-.906 .425 -.314 -.674 186.03 78.71)" gradientUnits="userSpaceOnUse"><stop offset=".7" style="stop-color:#6d4c41"/><stop offset="1" style="stop-color:#6d4c41;stop-opacity:0"/></radialGradient><path d="M95.1 83.6c-4.2-6.6 5.2-9 5.2-9-1.6 2-2.4 3.9-1.4 5.6 1.2 2.2 4.8 2.6 4.8 2.6s-4.9 4.3-8.6.8" style="fill:url(#c)"/><radialGradient id="d" cx="94.5" cy="67.4" r="30.4" gradientTransform="matrix(-.075 -1 .831 -.062 34.8 158.14)" gradientUnits="userSpaceOnUse"><stop offset=".7" style="stop-color:#6d4c41;stop-opacity:0"/><stop offset="1" style="stop-color:#6d4c41"/></radialGradient><path d="M106.7 47c4.2 10.3-.3 21-4.5 25.5-.5.6-3 3-3.5 5 0 0-9.6-13.4-12.4-21.3q-1-2.3-1.2-4.9 0-2 .9-3.8c.9-1.3 20.1-1.7 20.1-1.7z" style="fill:url(#d)"/><radialGradient id="e" cx="44.3" cy="67.4" r="30.4" gradientTransform="rotate(94.3 -1.57 99)scale(-1.003 .833)" gradientUnits="userSpaceOnUse"><stop offset=".7" style="stop-color:#6d4c41;stop-opacity:0"/><stop offset="1" style="stop-color:#6d4c41"/></radialGradient><path d="M21.4 47c-4.2 10.3.3 21 4.5 25.5.5.6 3 3 3.5 5 0 0 9.6-13.4 12.4-21.2q1-2.4 1.2-5 0-2-.9-3.8c-.9-1.3-2-1-3.4-1-3 0-15.5-.7-16.5-.7z" style="fill:url(#e)"/><radialGradient id="f" cx="49.5" cy="44.3" r="23.4" gradientTransform="matrix(-1 0 0 .493 98.94 60.7)" gradientUnits="userSpaceOnUse"><stop offset=".7" style="stop-color:#6d4c41;stop-opacity:0"/><stop offset="1" style="stop-color:#6d4c41"/></radialGradient><path d="M64 96.2v-9.4l-28.5-2.3-2.6 3.2s6.1 8.5 22.2 8.5z" style="fill:url(#f)"/><radialGradient id="g" cx="26.4" cy="47.8" r="6.9" gradientTransform="matrix(.906 .425 .314 -.674 -12.54 100.04)" gradientUnits="userSpaceOnUse"><stop offset=".7" style="stop-color:#6d4c41"/><stop offset="1" style="stop-color:#6d4c41;stop-opacity:0"/></radialGradient><path d="M33 83.6c4.2-6.6-5.2-9-5.2-9q2.6 3 1.4 5.6c-1.2 2.2-4.8 2.6-4.8 2.6s4.9 4.3 8.6.8" style="fill:url(#g)"/><path d="M55 90v10c0 4.6 3.6 8.2 8.2 8.2h1.6c4.6 0 8.3-3.6 8.3-8.1V90zm36.1-39.6H36.5c-6 0-10.7 5.2-10.7 11.4s4.8 11.5 10.7 11.5H91c6 0 10.7-5.2 10.7-11.5S97 50.4 91.1 50.4" style="fill:#99674f"/><path d="M64 11c-17.4 0-33.5 18.7-33.5 45.5C30.5 83 47 96.3 64 96.3S97.5 83 97.5 56.5C97.5 29.7 81.4 11 64 11" style="fill:#ba8d68"/><path d="M67.9 68H60q-1 .5-.6 1.7c.3.7 1.7 2.7 4.5 2.7s4.3-2 4.6-2.7q.3-1.2-.7-1.6" style="fill:#99674f"/><path d="M72.4 76.1a26 26 0 0 1-16.8 0c-1.8-1-3.7.6-3 2.3s6.5 5.4 11.4 5.4 10.6-3.8 11.3-5.4-1-3.4-2.9-2.3" style="fill:#5d4037"/><ellipse cx="47.6" cy="58.8" rx="4.9" ry="5.1" style="fill:#49362e"/><ellipse cx="80.4" cy="58.8" rx="4.9" ry="5.1" style="fill:#49362e"/><path d="M55 49.8c-1-1.2-3-3-7.2-3s-6.3 1.8-7.3 3q-.5 1 0 1.6t2 .4c1.4-.2 2.4-1.2 5.3-1.2 2.8 0 4.5.9 5.3 1.2q1.4.3 2-.4.4-.6-.1-1.6m32.5 0c-1-1.2-3-3-7.2-3s-6.4 1.8-7.3 3q-.5 1 0 1.6t1.9.4c1.4-.2 2.5-1.2 5.4-1.2 2.8 0 4.4.9 5.3 1.2q1.4.3 1.9-.4t0-1.6" style="fill:#613e31"/><path d="M104.1 25.3c-2.4-3.7-7.9-8.7-12.8-9-.8-4.7-5.8-7.7-10.7-9.3A32 32 0 0 0 54 9c-1 .6-7.2 4-11.5 1.5-2.7-1.5-2.7-5.7-2.7-5.7S31.4 8 34.3 17c-3 .1-6.8 1.4-8.8 5.5a14 14 0 0 0-.9 11 11 11 0 0 0-3.5 12.7c1.7 4.4 8.2 6.5 8.2 6.5-.5 8 1 13 1.8 15q.4.4.7 0c1-4 4.4-18 4-20.4 0 0 11.4-2.2 22.2-10.2q3.3-2.5 7.2-4C78.8 27.7 81.6 37 81.6 37s9.4-1.8 12.3 11.3c1 5 1.8 12.8 2.4 18.3q.2.7.7.1a38 38 0 0 0 3.3-11c.1-1.5 4.3-3.6 6.1-10.2a28 28 0 0 0-2.3-20.2" style="fill:#543930"/><radialGradient id="h" cx="82.1" cy="83.4" r="35.6" gradientTransform="rotate(72.1 9.9 -9.4)scale(1.003 -.742)" gradientUnits="userSpaceOnUse"><stop offset=".7" style="stop-color:#6d4c41;stop-opacity:0"/><stop offset="1" style="stop-color:#6d4c41"/></radialGradient><path d="M100.3 55.8c.1-1.6 4.3-3.6 6-10.3q.4-1 .6-2.2a28 28 0 0 0-2.8-18c-2.3-3.4-7.1-8-11.7-8.8l-1.2-.2s.4 2.2-.5 4c-1.1 2.2-3.4 2.7-3.4 2.7 12 12 11.1 22 13 32.8" style="fill:url(#h)"/><radialGradient id="i" cx="47.3" cy="122.3" r="9.3" gradientTransform="matrix(.881 .474 .56 -1.049 -62.89 110.1)" gradientUnits="userSpaceOnUse"><stop offset=".6" style="stop-color:#6d4c41"/><stop offset="1" style="stop-color:#6d4c41;stop-opacity:0"/></radialGradient><path d="M57 7.5 54 9c-.9.6-7 4-11.4 1.5C39.9 9 39.9 5 39.9 4.8c-1.2 1.6-5 12.8 6 13.6 4.6.3 7.5-3.8 9.2-7.3z" style="fill:url(#i)"/><radialGradient id="j" cx="43.6" cy="113.7" r="8.6" gradientTransform="matrix(1 0 0 -1.228 0 152.5)" gradientUnits="userSpaceOnUse"><stop offset=".7" style="stop-color:#6d4c41;stop-opacity:0"/><stop offset="1" style="stop-color:#6d4c41"/></radialGradient><path d="M39.9 4.8c-1 .4-8.3 3.8-5.6 12.3l7.8 1.3c-6.9-7-2.2-13.6-2.2-13.6" style="fill:url(#j)"/><radialGradient id="k" cx="42.4" cy="98.6" r="16.1" gradientTransform="rotate(15.1 243.47 379.58)scale(-1 .939)" gradientUnits="userSpaceOnUse"><stop offset=".7" style="stop-color:#6d4c41;stop-opacity:0"/><stop offset="1" style="stop-color:#6d4c41"/></radialGradient><path d="m39.1 17.9-4.8-.8-1.2.1a10 10 0 0 0-7.6 5.4 14 14 0 0 0-1.3 9.4l.4 1.6s2.4-2.3 8-2.4z" style="fill:url(#k)"/><radialGradient id="l" cx="38.6" cy="83.1" r="16.9" gradientTransform="rotate(187.8 -2.5 77.74)scale(-1 1.41)" gradientUnits="userSpaceOnUse"><stop offset=".6" style="stop-color:#6d4c41;stop-opacity:0"/><stop offset="1" style="stop-color:#6d4c41"/></radialGradient><path d="M24.4 33.8a11 11 0 0 0-3.2 12.7c1.8 4.3 8 6.3 8 6.3s1.3.4 2 .4l1.5-22c-3 0-6 .9-7.8 2.2z" style="fill:url(#l)"/><linearGradient id="m" x1="183.2" x2="142.9" y1="108.1" y2="108.1" gradientTransform="matrix(1 0 0 -1 -117.67 128)" gradientUnits="userSpaceOnUse"><stop offset=".6" style="stop-color:#ba8d68"/><stop offset="1" style="stop-color:#a47b62"/></linearGradient><path d="M29.3 16.6c2.9-3.2 8-6.2 13.5-8.3 8.6-3.2 11.7-4 16.5-4q3.5 0 2.9 1.8c-.4 1.4-1.5 2.6-4.5 2.7-4.4.4-7 2-11.2 4.3-2 1-3.5 5.7-5.6 7.2a22 22 0 0 0-8 14c-.3 2.3-10.8 1-11-3.7a31 31 0 0 1 7.4-14" style="fill:url(#m)"/><linearGradient id="n" x1="21.1" x2="21.1" y1="105.8" y2="3.9" gradientTransform="matrix(1 0 0 -1 0 128)" gradientUnits="userSpaceOnUse"><stop offset="0" style="stop-color:#f78c1f"/><stop offset=".5" style="stop-color:#f37f12"/><stop offset="1" style="stop-color:#ef6c00"/></linearGradient><path d="M37.8 29.1q.6-1.7-1-2.9l-11.4-6-.8-.2q-1.5.1-2 1.4L6 64.2a18 18 0 0 0-1.5 10.3s9.1 46.2 10.3 49.5h22.5l-5.2-21.9q.5.5 1.1.7l-.5-4.8c-7.3-20-7.3-26.7-6.7-29z" style="fill:url(#n)"/><linearGradient id="o" x1="147.1" x2="106.8" y1="108.1" y2="108.1" gradientTransform="matrix(-1 0 0 -1 212.89 128)" gradientUnits="userSpaceOnUse"><stop offset=".6" style="stop-color:#ba8d68"/><stop offset="1" style="stop-color:#a47b62"/></linearGradient><path d="M98.7 16.6c-2.9-3.2-8-6.2-13.5-8.3-8.6-3.2-11.7-4-16.5-4q-3.5 0-2.9 1.8c.4 1.4 1.5 2.6 4.5 2.7 4.4.4 7 2 11.2 4.4 2 .9 3.5 5.6 5.6 7.1 1.9 1.4 6.6 5.9 8 14 .3 2.4 10.8 1 11-3.7a30 30 0 0 0-7.4-14" style="fill:url(#o)"/><linearGradient id="p" x1="106.9" x2="106.9" y1="105.8" y2="3.9" gradientTransform="matrix(1 0 0 -1 0 128)" gradientUnits="userSpaceOnUse"><stop offset="0" style="stop-color:#f78c1f"/><stop offset=".5" style="stop-color:#f37f12"/><stop offset="1" style="stop-color:#ef6c00"/></linearGradient><path d="m122 64.2-16.5-42.8a2 2 0 0 0-2-1.4l-1 .2-11.3 6c-1.2.7-1.3 2-1 3l11.7 39.7c.7 2.4.7 9-6.5 29.1l-.6 4.8 1.1-.7-5.2 21.9h22.5c1.2-3.3 10.3-49.5 10.3-49.5a18 18 0 0 0-1.5-10.3" style="fill:url(#p)"/></svg>