<svg xml:space="preserve" width="16" height="16" viewBox="0 0 128 128"><path d="m58.9 78.6-41.3 41.9a11 11 0 0 1-5 3c4.1 1.2 8.6.2 11.8-3l38.2-38.1c.8-.8 2.1-.8 2.8 0l-3.7-3.8c-.7-.8-2-.8-2.8 0m23.4-13.2a2 2 0 0 1 0-2.8l38.2-38.1a12 12 0 0 0-16.9-17L65.4 45.6a2 2 0 0 1-2.8 0L24.5 7.5a12 12 0 0 0-17 0l-1 1.2.6-.7c4.7-4.6 10.1-2.5 14.8 2.2l37.6 38.5c.8.8 2 .8 2.8 0l39.3-39.2q7-7.2 14.1-.4c7.1 6.8 3.9 9.6-.8 14.3L75.6 62.6a2 2 0 0 0 0 2.8l38 38.2c4.7 4.7 6.5 10 1.8 14.7s-10.6 3.5-15.3-1.1l3.4 3.4a12 12 0 0 0 17-16.9z" style="fill:#c33"/><path d="M115.4 118.3c4.7-4.7 2.9-10-1.8-14.7l-38-38.2a2 2 0 0 1 0-2.8l39.3-39.2c4.7-4.7 5.5-9.6.8-14.3s-9.4-4.3-14.1.4L62.3 48.7a2 2 0 0 1-2.8 0L21.9 10.2C17.2 5.5 11.8 3.4 7.1 8l-.6.7a12 12 0 0 0 1 15.7l38.1 38.2c.8.8.8 2.1 0 2.8L7.5 103.5a12 12 0 0 0 5 20q2.8-.9 5-3l41.3-41.9c.8-.8 2.1-.8 2.8 0l3.7 3.8 34.7 34.8c4.8 4.6 10.7 5.8 15.4 1.1" style="fill:#f44336"/><path d="M55 56.4c-1.1-1.6-32.3-33.1-32.3-33.1s-2.3-2.6-4.7-.8c-2.2 1.7-1.1 4.3.1 5.6s29 29.7 30.4 30.9 3.9 1.4 5.5.6 1.8-2.1 1-3.2" style="opacity:.2;fill:#fff"/><circle cx="12.2" cy="19" r="3.3" style="opacity:.2;fill:#fff"/><path d="M72.1 81.8c1.1 1.6 32.8 32.6 32.8 32.6s2.3 2.6 4.7.7c2.2-1.7 1-4.3-.2-5.6S80 80.2 78.6 79c-1.3-1.2-3.9-1.3-5.5-.5s-1.8 2.2-1 3.3" style="opacity:.2;fill:#fff"/></svg>