<svg xml:space="preserve" width="16" height="16" viewBox="0 0 128 128"><path d="M54.6 20v-4.4S60.8 4 61.2 3.8H69c.3.1 6.5 11.5 6.5 11.7v4.2z" style="fill:#b0b0b0"/><path d="M21 57.7h-3s-.2-3.9-.4-4.5-.6-1.2-2.2-1.4-6.2 0-7.8 0c-1 0-3.5 1.7-3.7 4.5-.2 3.8 2 5.7 4.2 5.7l9.3.2s3.8-.8 3.8-1zm86 .3h3.3v-3c0-1.3 1.2-3 3.1-3 2-.1 5.5 0 6.7.2 1.3.1 4.2 1.2 4.3 4.8 0 2.8-1.3 5.3-4.1 5.5s-10.5.2-10.5.2l-3.2-1.6z" style="fill:#444e47"/><path d="m19 101-4.6 2.3-.4 16.5c0 1 .5 4 7.2 4 6.9.2 7.3-2.6 7.3-3.3v-10.7zm78.7 10.2v9.4c0 1.7.8 3.9 7.2 3.7 7.5-.1 7.6-2.2 7.6-4v-16.5z" style="fill:#4e433d"/><path d="M14.5 101.2s-2.1-6-1.7-18.9c.4-13 2.2-17.6 2.4-18.4s2.8-2.5 3.1-3 11.5-25.6 12.3-27.1a6 6 0 0 1 3.6-2.9c1.6-.5 11.4-3.4 31-3.2s28.7 2.5 29.9 3.1c1.8 1 2.6 1.8 3.8 3.5s10 25.6 10.6 26.3 3.8 3 4 4.2c.2.8 1.6 9.6 1.5 17.6s-1 15.3-1 15.3l-51 4.4z" style="fill:#ffd61c"/><path d="M13.2 94.6s-.4 7.6 1.4 11.2 4.2 6.7 16.8 6.9l29.4.3 42.4-.6c5.4-.4 9.2-4.6 10.4-9.8 1.1-5.1.5-7.5.5-7.5s-7.7 2.2-16.3 2.5-22.1.6-35.5.5-30 0-34.5-.3c-9.2-.7-14.6-3.2-14.6-3.2" style="fill:#ffa828"/><path d="M30.8 105.1q.1 3.4 6.2 3.6c6 .2 15.4.2 25.2.3s29.4 0 31.6-.5 3.5-2.5 3.4-3.5-1.1-.9-6-.9c-2.2 0-15.6.2-28.6.1l-28.5-.2c-1.7 0-3.3 0-3.3 1.1M44 90c1.5.8 9 .5 19.9.6s17.8.2 19.4-.3 4.2-6.4 4-9.8c-.1-3.3-10.5-4.8-23.2-4.8s-24 .4-23.8 4.8 2.5 8.9 3.7 9.6" style="fill:#444e47"/><path d="M114 79.5c-.5-.2-19.2 0-20.8.1s-2.5 1.7-2.8 3l-1.4 5c-.2.8.2 1.7 2.4 1.8l12 .3c5.3 0 10.5-.2 10.5-.2s.3-3.4.3-5.2zm-99.8.4s-1 2.3-.8 5.2c0 2.4.2 4.2.8 4.3.5 0 4.4.5 11.4.6s14 0 14-.4-.7-3.6-1.8-5.7c-1-2.1-1.8-4.1-4.9-4.2-3-.2-18.5 0-18.7.2" style="fill:#ffeaca"/><path d="M25.3 79.5c-3.9 0-5.4 2.4-5.4 5.8s2.2 4.9 5.8 4.9q5.3 0 5.3-5.3c-.1-3-1.8-5.6-5.7-5.4m77.4-.2c-3 0-5.5 1.7-5.5 5.4s2.9 5 5.5 5 5.6-1.1 5.7-5c0-3.7-2.6-5.4-5.7-5.4" style="fill:#fff"/><path d="M36.6 36.3c-2 .1-4.5.9-6 4-1.7 3.5-7.7 18.9-8.3 21q-1 3.3 2.5 3.2c3.5-.1 19.4-1.3 38.8-1.3s36.9.3 39.1.4c2.3 0 3-1.8 2.5-3.6s-6.3-17.5-7.4-20-4-3.6-6.2-3.7c-2.2 0-15.7-1.2-27-1.2s-25.8 1-28 1.2" style="fill:#444e47"/><path d="M28.1 55.5s4.1-11 4.6-12 1-3.1 4-3.4 10-1.4 27.4-1.5c17.3 0 25 1 26.4 1.1 1.5.1 4 1 5.2 4 1.3 3.1 4 10.7 4 10.7s-18.1 1.8-20 1.8l-45.7 1z" style="fill:#afe3fb"/><path d="M28.1 55.5s2.3-1 5.6-1.7c3.1-.7 6.1-1.1 6.1-1.1l.2-6c0-1.5 1.6-2.7 3.3-2.8l7 .1c1.2.1 2.2 1.4 2.1 3.3l-.1 4.9s7.4-.3 12.4-.3l13.1.1.2-5.6q0-2.3 2.1-2.4l8 .1q2 0 2 2.7c.2 1.7.2 5.5.2 5.5a103 103 0 0 0 9.5 2.1l.8 2.4q.4 1.3-2.3 1.4c-2 0-23.5-.3-33.7-.2s-33.7.7-35.1.8-2-1-2-1.8.6-1.5.6-1.5" style="fill:#96c8eb"/><path d="M57 15.4c-.2 0-6.1 6.7-6.1 6.7v7.8c0 .2 27.4.1 27.6 0s0-8.7 0-8.7l-5.6-6c-.1 0-15.7 0-16 .2" style="fill:#e1e1e1"/><path d="M54.6 19.6h4.2V24h-4.2zm4.2 4.3H63v4.4h-4.2zm4.1-4.3h4.2V24h-4.2zm4.2 4.3h4.2v4.4h-4.2zm4.2-4.2h4.2v4.4h-4.2z" style="fill:#4a4542"/></svg>