<svg xml:space="preserve" width="16" height="16" viewBox="0 0 128 128"><path d="M40.8 62s-9.3 3.8-9 5c.3 1 1.9 3.6 2.8 5.8.7 1.6 2 4.3 1.8 6.6S34.8 86 34.8 86l13.9 11.7s2.5-2.8 6.5-4c3.8-1.2 6.8-.4 8.2-.3 2.6.2 6.2.5 6.8.3C71.2 93 55.8 73 55.8 73z" style="fill:#fdd083"/><path d="M42 73s-8.2 13.4-13.6 21-10 13-10.6 13.8c-.6.7-4 3.5-3.9 5 .2 1.6 4 4 7.9 6.8 3.8 2.7 7 5.6 8.4 5s5.3-7.6 7.7-11l21.2-30z" style="fill:#f3a25a"/><path d="M41 82.4c.4 0 .2 3.3 3.2 5.1 3 2 5.4 1.5 5.7 1.9.2.1-3.3 5.2-7.4 11L31 116.5c-.7 1.1-2.8 3-5.1 1.5a20 20 0 0 1-5.5-4.6c-.8-1.4 0-2.7 1.4-4.3l10.7-15c4.1-5.7 8.2-11.7 8.5-11.7" style="fill:#fdd083"/><path d="m31.8 67 36.7 26.7s10.2 1.3 17-2.2 14.5-8.6 22-22.4C115 55 122.1 29 96.8 12.8s-47.8 4-54.3 11.7-12.7 17-13.2 28c-.5 10 2.4 14.5 2.4 14.5" style="fill:#ff4f28"/><path d="M53.7 47.7c11.2 0 18-9.9 16.7-21S55.3 14.3 55.3 14.3l-18 17-1.2 1.9s1 14.5 17.6 14.5" style="fill:#ee3e23"/><path d="M40.2 7a17 17 0 0 0-4 22.8c4.7 7 16.7 10.4 25.2 3.1 8.9-7.6 5.8-19.6 1.1-24.3A17.6 17.6 0 0 0 40.2 7" style="fill:#d8cdc9"/><path d="M41.7 10c-4.2 4-5.3 12 0 16 5 3.7 11.7 3.3 15.5-1.3 4-4.7 2.2-12.9-1.5-15.4-3-2-9.5-3.8-14 .6" style="fill:#eaebeb"/><path d="M40.7 23.4c1.8-.2 2-1.9 2.5-5 .4-3 3.2-6.5 5.7-7 2.7-.6 4.3-.6 4.3-2.4 0-2-4-3.6-8.5-1.5-4.7 2-7 7.6-7 11.2 0 3.7 1.2 4.9 3 4.7" style="fill:#feffff"/></svg>