<svg xml:space="preserve" width="16" height="16" viewBox="0 0 128 128"><path d="m12.4 110.7 39.4-39.1 5 5.4L17 116z" style="fill:#9a9a99"/><path d="M123 53.8a29 29 0 0 0-9.9-9.4L111 43l.3 2.6s.4 2.7.3 4.8c-.3 3.2-.9 5.7-.9 5.7a1.2 1.2 0 0 0 1.2 1.6q1 0 1.2-1a38 38 0 0 0 1-8.7q1.6 1.1 3.3 2.8c2 2 3.6 4.3 3.6 4.3q.8 1 1.8.4.9-.8.3-1.7M72.3 67.9q-1.1 0-1.2 1.2l.1 8.7q.1 1.1 1.3 1.2 1.1-.1 1.2-1.3l-.1-8.6q-.1-1.1-1.3-1.2m37.4-28.2q1.4 1 2.4 2l-.1.3 1 .6q2 2.3 2 2.5l1.7-1q0-.4-2.2-2.8.7-1.7 1.7-5c2.6 2 4.2 3.7 4.3 3.8l1.4-1.4a57 57 0 0 0-5.2-4.5l1-5.7c2.3 1.1 3.6 2.1 3.6 2.1l1.3-1.6c-.2 0-1.9-1.3-4.8-2.7q.1-4.1-.2-6l1.4.3.5-2a57 57 0 0 0-9-1.2l-.6-2.8-2 .5.5 2.2h-3.2q-1-3-2.3-5.2c3.8-.3 6.6-.1 6.6-.1l.2-2c-.2 0-3.6-.2-8 .2-2-2.6-3.8-4-4-4l-1 1.6s1.2 1 2.6 2.7l-4.4.9a35 35 0 0 0-5.4-4.9l-1.1 1.7s2 1.5 4.3 3.8q-3 .8-5.4 1.7l-.7-.4-.3.7-4 1.6 1.7-2.9L76.6 5a1.2 1.2 0 1 0-1.8 1.7l6 6.4-.8 1.3a65 65 0 0 0-8.6 1.2 1.2 1.2 0 0 0 .3 2.4h.2l4.5-.7 4.4-.5h.7l.5-.9.5 1-1.2 1.1q.2 0 2.4 3.3l-5.2 2.5 1 1.7s2-1.1 5.2-2.4l1 2c-4.9 2-8.1 4.3-8.3 4.5l1.2 1.6s3.2-2.4 8-4.3q1.1 2.7 1.5 5.7-2.3 0-4.3.4l-.5-2.4-2 .5.5 2.2-4.3.9-.7-1.8-1.6 1.2.4 1-2.2.7.6 1.9 2-.5.3 3-3.7 1v-.4l-2 .1v1l-2.8 1 .8 1.8 2-.7v2l-2.7.7-1.7-.2-.1.8-2.6.9.8 1.8 1.4-.5-.5 3.2q-4.5 1.6-6.3 3l-.7-.2h-5.1c-3.2.4-5.7 1-5.8 1q-1.1.3-1 1.5a1.2 1.2 0 0 0 1.5 1s2.5-.6 5.5-1h4.9q1.1 0 1.2-1.2h.7q0 .5-.3.7c.3-.3 2-1.4 5-2.5v.3l2 .3.2-1.4 3.3-1-.8 3.6-2.4.6.6 2 1.1-.4v.2l1.8.7.5-1.4 3.8-.6L74 60c-2.3.4-3.7 1-3.8 1l.8 2 2.2-.7q-1.5 3.9-1.7 4l1.8 1 2.2-5.3a17 17 0 0 1 6.4.5l.8-1.8-.8-.3.8-3.3 4.5-.1h.8l.2-.7c0-.2.6-2.3 1.1-5.3 5.3.2 6.5 1 6.6 1l.6-.8.8-.7-.7-.4.2-3.5 1.4.5q-.8 1.6-1 1.6l1.8 1 1-1.9 2.4 1.4 1.3-1.4q0-.3-2.7-1.8l1.4-3.2q2 1.1 3 2.2l-.8 1.5 1.7 1 .5-.8.2.3 1.7-1-1-1.3q1-2 1.9-5m3.3 0-2.8-2.1 1.2-4.8 3 2.2zM95 44l-4.6-.6V40l4.6.2zm-10.8 4.9.3-3.4 3.7-.1-.4 3.4zM81 49l-2.8.2.2-3 4-.5L82 49zm.8 2-.7 4h-2.3l-1.4.1.6-3.8zm-9.1-4 3.8-.7-.2 3-3.7.7v-.7zm10-3.5-4.2.5v-2.7l4.1-.8zm2-.1-.1-3.2 3.9-.3-.1 3.1v.3zm8.8-5.5h-3l-.2-3.6 4.5.1.2 3.7zm3.4-3.3a27 27 0 0 1 5.7 1.3q-.5 2-1.2 3.8-1.9-.8-4.4-1.3zm2.5-1.6-2.7-.4a68 68 0 0 0-1.3-8.2l3.6-.3q.1 3.1 0 3.2h.3V29s2 0 4.7.7l-.8 4.5q-1.8-.6-3.7-1m4.2-13.8q.4 1.4.5 3.2l-3.4-.3-.9-2.7zm5.9 10.2q-1.8-.9-3.4-1.3l.2-3.4 3.2.6zm-5.3-1.9q-2-.5-3.1-.5l-.1-2.9q1.7 0 3.2.3zm-5.6-5.4q-2 0-4 .4-.4-1.2-1-2.2l4.2-.7zm7.3 8 3.4 1.4q-.3 2.6-.9 4.9-1.5-1-3.3-1.7zm9.2 2-.1.6-3.6-2.3V26l4.3 1.5zm.5-12.2q.2 1.3.2 5.4l-4.4-1.5-.5-4.5zm-6.3 3.3-3.1-.6-.5-3.4h3.1zM97.1 13l3.6-.6q1.4 2 2.3 5l-4 .2a31 31 0 0 0-2.6-4.4zm-2.9.7q1.5 1.6 2.4 3.6l.3.6-4.4.8a19 19 0 0 0-3.2-3.5zm-10.8 3.7L87 16q1.5 1 3.4 3.2l-4.8 1.5zm4.3 7-1-2q2-.8 4.9-1.4l1 2zm.8 1.9 4.9-1.4q.5 1.5.7 3.1.5 2.2.6 4.6H90a27 27 0 0 0-1.6-6.3m-.2 8.3.2 3.5q-2 0-4 .3L84 35zM78 36.2l4.1-.8.4 3.3-4.2.7q0-1.9-.3-3.1M72.7 43l3.7-1v2.6l-3.7.7zm-5.3 8.6.5-3 2.8-.8-.2 3zm4.3 4.4q.4-1.5.7-3.6l3.7-.7-.7 3.8zm8.4 4.1q-1.5-.2-3.2-.1h-.6l.7-2.6 3.7-.1zm6.4-5-3.3.1.7-4.1h3.5zm8.2-5.5-5-.5.5-3.5q2.6.1 4.7.6zm4.5-4.3-2.2-.7.4-3.8c1.4.3 2.2.6 3.3 1.1zm4-4.4 1.4-4 3.3 1.8-1.5 4.5q-1.2-1.1-3.1-2.3" style="fill:#9b9b9c"/><path d="M114.7 11.6C96.5-4.7 80.8 7.9 80 12c-.5 2.3-1.4 8.3-2.7 12.3S70.4 36.6 66 42s-9.4 10.8-10 14.6c-.4 3-.4 4.8-1.2 7-.7 2.1-4.8 4.7-4.6 6.8 0 2 5.8 7.6 7.1 7.9 2 .3 4-3.2 6-4.5q3-1.8 8.4-2.7c3.6-.6 7.9-4.9 12.3-8.4a63 63 0 0 1 20.7-12.5c5.6-1.3 11.9-2 14-3 2.5-1.2 13-20.4-4-35.7m-4.8.3c.8-.8 2.3.4 3.8 1.8 1.5 1.5 3 2.9 2.2 3.7-.5.7-2.4-.6-3.6-1.8s-3-3-2.4-3.7M76 63.8c-4.4 3.3-8 3.9-12.4-.5-4-3.9-2-8.9.2-11.5L73 39.7s19.7-16.2 25.2-10c4 4.8-5.6 20.1-6.6 21.7-6 4-12.3 9.7-15.7 12.4m22-15.7c3-5.6 7.2-15.7 3-20.5-6-6.9-17.3 0-21.8 3.1 2.6-5 3.4-10.6 4.2-14.5 2.3.3 11 1.8 18.5 8.8a31 31 0 0 1 9 19.8c-4 1-9 1.9-12.9 3.3m19.7-6.2q-.8 1-3 1.8s-.2-12.2-10-21.4a40 40 0 0 0-20-10l.2-.4c9-8.6 22.1-.8 22.1-.8s-.7 3.3 3.3 7c4.5 4 7.4 3 7.4 3s6 12.2 0 20.8M62.7 57.7c.4 3 4.6 7.2 7.4 7.5 2.4.3 4.2-1.4 4.2-2.9s-7-8.6-8.4-8.9-3.4 2.1-3.2 4.3" style="fill:#5e6367"/><path d="M4 116.2c0 1.1 6.7 8 7.4 8s6.4-6.5 6.9-8.1q.6-1.6.1-2.2c-.4-.4-4-4.2-4.6-4.6q-1-.5-2.5.6c-1 .5-7.2 5.3-7.2 6.3" style="fill:#5f6367"/><path d="M51.5 74.9c-1.2-1.4-10.9 9.8-19.7 18.3S16 109 15.6 109.5c-.6.8.8 2.3 1.6 1.6s8.4-7.8 17-16.9 18.5-18 17.3-19.4" style="fill:#c7c7c7"/><path d="M23.6 4.2c-8.4 0-18.2 5-18.4 17.8A18 18 0 0 0 23 40.4c9.1 0 18-6.4 18.3-17.8A17 17 0 0 0 23.6 4.2" style="fill:#ff6011"/><path d="M16 29.7c5.4 2.5 13 1 15.4-4.6 3.4-7.8-.6-14.2-5.6-16.3-4.7-2-11-.6-14 4.5-2.1 3.5-3.3 13 4.1 16.3" style="fill:#ff8f50"/><path d="M13.4 26.4C11 27 7 18 12.9 11.7c5.5-6.1 13.9-3.5 14-1 .4 4.5-5.8 1-9.3 5.2-3.6 4.5-.3 9.3-4.2 10.5" style="fill:#ffaf76"/></svg>