<svg xml:space="preserve" width="16" height="16" viewBox="0 0 128 128"><path d="M60.6 36.2s-1.1 4.3 3.7 5.4c4.2 1 5-3.2 5-3.2s1-4.3 3-4.7c.6-.2.8 0 2.9-.3 3.6-.6 4.5-2.3 4.8-3.9l.2-1.3q0-.9.3-1.3c.1-.2 2.3-1 2-2.1-.4-1.5-3-2.6-2.9-3.9l.3-1.6q.3-2-.3-4.8c-1-4.8-4.2-8.4-9.6-8.9-4.8-.4-10.3 3.1-12.5 7.4-1.5 2.7.6 9.8 3 13.6 3.3 4.8.1 9.6.1 9.6" style="fill:#70534a"/><path d="M77.5 29q1.2.7 2.5.5l.2-1.3h-2c-1-.4-1.5.3-.7.8m-2.8-7q0-1.6 1-1.9 1.1.2 1.3 1.8-.1 1.6-1.1 1.8-1-.1-1.2-1.8m1.8-2.4c1 .3 1.3-.4 1-1q-.4-.8-2.2-.6-1.8.5-2.1 1.3-.6.7 0 .9c.3 0 1.9-1 3.3-.7" style="fill:#1a1717"/><path d="m29.1 82.6 18.6 3.8 5.2-18 12.4 8.4-9 18.2a6 6 0 0 1-5 3h-1.7l-23-8.8z" style="fill:#616161"/><path d="M25.2 78.8q.6-.8 1.5-.4l2.4 1.5c1.6 1 2.5 3.6 2.5 3.6l-3.6 6-4.9 4.2a4 4 0 0 1-4.4.3l-1-.6a1 1 0 0 1-.4-1.4z" style="fill:#325599"/><path d="M83.1 113.8 71.7 92S57.5 80.2 56.3 79.4A11 11 0 0 1 51.2 69c.3-2.5 2-5.7 2-5.7l18.6 5.6-.9 3.4 7 9c1.4 1.5 3.7 3.6 5.5 9.7 1.8 6.4 6.5 21.8 6.5 21.8z" style="fill:#7c7c7c"/><path d="M83.2 120.6q-1.1 0-1.3-1l-.5-2.7c-.3-1.8 1.2-4.2 1.2-4.2l6.8-1.2 6.5 1a4 4 0 0 1 3 3.2l.2 1.3q.1.8-.8 1.1z" style="fill:#4568ad"/><linearGradient id="a" x1="91.1" x2="74.3" y1="81.8" y2="80.9" gradientTransform="matrix(1 0 0 -1 0 130)" gradientUnits="userSpaceOnUse"><stop offset=".6" style="stop-color:#70534a"/><stop offset="1" style="stop-color:#5c4037"/></linearGradient><path d="m78 49 8.9-6.8 4.4 4.7-9 8.7a6.7 6.7 0 0 1-9.5 0c-3.2-3-7.3-9.4-7.3-9.4l7-5.6z" style="fill:url(#a)"/><path d="M77.7 45c-2.5 7-8.7 7.2-8.7 7.2l-5-8.6a5 5 0 0 1 1.7-6.6l.8-.5c2.3-1.3 4.3-.7 7.4 3.9 2.8 4 4 4.4 4 4.4" style="fill:#04a287"/><linearGradient id="b" x1="75.2" x2="49.6" y1="81.1" y2="73.9" gradientTransform="matrix(1 0 0 -1 0 130)" gradientUnits="userSpaceOnUse"><stop offset="0" style="stop-color:#00bfa5"/><stop offset=".5" style="stop-color:#00b29a"/><stop offset="1" style="stop-color:#009e89"/></linearGradient><path d="M71.8 68.8c2.5-9.9 3-16.8 2.4-22.3-.7-7-4-11.2-7.8-12.5-4.6-1.6-7.8.7-9.1 4.9-.9 2.9-.7 5-.6 6.4 0 0 .6 7.5-5.3 16.8 0 0 .5 4 10 6.3 4.2 1 10.4.4 10.4.4" style="fill:url(#b)"/><path d="m56.5 59.6 4.4-2.2q1-.4 1.6.5l.9 1.7v1c.5.2 1.8 1 2 1.5q.3 1-.3 1.3t-.5 1 0 1.2-1 .6q-.3.1-.4.5l-.1 1.2c-.4.4-1 .3-1.2.6-.1.1-.1.7-.4 1-.7.6-2.9-.6-2.9-.6l-4.2-4z" style="fill:#4a2f27"/><linearGradient id="c" x1="54.6" x2="61.1" y1="68.5" y2="65.3" gradientTransform="matrix(1 0 0 -1 0 130)" gradientUnits="userSpaceOnUse"><stop offset=".6" style="stop-color:#70534a"/><stop offset="1" style="stop-color:#5c4037"/></linearGradient><path d="m58 59-2.7.7-1.9 5s5.7 5.7 6.7 4c.3-.4-.2-1 .6-1.3q1-.2.8-1.4 0-.6.5-.7 1.5-.4 1-1.5-.4-.9.5-1.5.4-.2.4-1.3c-.2-1-6-2-6-2" style="fill:url(#c)"/><linearGradient id="d" x1="46.7" x2="54.9" y1="69.7" y2="78.6" gradientTransform="matrix(1 0 0 -1 0 130)" gradientUnits="userSpaceOnUse"><stop offset=".6" style="stop-color:#70534a"/><stop offset="1" style="stop-color:#5c4037"/></linearGradient><path d="m54.3 65.4-10-6.7a6 6 0 0 1-1.8-3c-.7-3.1 1.3-5.3 1.3-5.3l9.1-10.2 5.7 5.8-8 8 6 5.6z" style="fill:url(#d)"/><path d="M54 52s-6-6-5.8-10.6c0 0 2.9 0 7.2-3.3 2.7-2 6.3-2.2 7.7.2q2.1 3.2-1.4 7.7c-1.8 2.2-7.6 6-7.6 6" style="fill:#04a287"/><linearGradient id="e" x1="92.6" x2="94.6" y1="89" y2="87" gradientTransform="matrix(1 0 0 -1 0 130)" gradientUnits="userSpaceOnUse"><stop offset=".5" style="stop-color:#70534a"/><stop offset="1" style="stop-color:#5c4037"/></linearGradient><path d="M91.7 43.4q.8.9 1.7.3l2-1.4q.7-.7 0-1.7c-.7-1-1.1-.7-1.6-.3l-2 1.5q-.7.6 0 1.6" style="fill:url(#e)"/><linearGradient id="f" x1="93.9" x2="87.6" y1="83.5" y2="90.5" gradientTransform="matrix(1 0 0 -1 0 130)" gradientUnits="userSpaceOnUse"><stop offset="0" style="stop-color:#5c4037"/><stop offset=".1" style="stop-color:#70534a"/><stop offset=".8" style="stop-color:#70534a"/></linearGradient><path d="m90 37.2-2 2a6 6 0 0 0-2.3 2.3c-1 2 .3 3.8 1.8 5.2 1.4 1.3 2.3 1.6 3.9 1.4 1.3-.2 4-3.1 4-3.1l.9-1 .4-.4q.5-.5 0-1.3c-.6-.7-1-.3-1.1-.3l-.8.7-.9.5-2.7-3.5 1-1.2c0-.2.5-.8-.3-1.5s-1.7 0-1.8.2" style="fill:url(#f)"/><linearGradient id="g" x1="91" x2="93" y1="90.6" y2="88.7" gradientTransform="matrix(1 0 0 -1 0 130)" gradientUnits="userSpaceOnUse"><stop offset=".5" style="stop-color:#70534a"/><stop offset="1" style="stop-color:#5c4037"/></linearGradient><path d="M90.2 42q.8.8 1.6.2l2.1-1.9q.7-.7 0-1.6-1-.9-1.7-.2l-2 1.8q-.8.8 0 1.7" style="fill:url(#g)"/><linearGradient id="h" x1="91" x2="86.1" y1="88.9" y2="85.1" gradientTransform="matrix(1 0 0 -1 0 130)" gradientUnits="userSpaceOnUse"><stop offset=".5" style="stop-color:#70534a"/><stop offset="1" style="stop-color:#5c4037"/></linearGradient><path d="M92.9 42.3q-.7-1.1-1.7-2.2l-.2-.3q-1.4-1.3-3.3-.2h-.2l-.2.2q-.3 0-.4.3l-1 1c-.7 1.2-.5 2.3-.5 2.3s1 2.7 2.2 2.3 2-2.4 2-2.4l-.3-1.3q.5-.1 1.2.7l.8 1q.4.4 1 .4.8-.2 1.2-.7z" style="fill:url(#h)"/><radialGradient id="i" cx="-1183.1" cy="757.9" r="1" gradientTransform="matrix(-3.107 0 0 3.107 -3584.83 -2311.01)" gradientUnits="userSpaceOnUse"><stop offset="0" style="stop-color:#5c4037"/><stop offset="1" style="stop-color:#70534a"/></radialGradient><path d="M93.4 45.4 91.8 44l-.8-1-1.2-1-.4.2.3 1.3-.9 1.3-.5.4 2.8 2z" style="fill:url(#i)"/><path d="M93.3 44.6c0 .6.7 1 .6 1q-.4.1-2-1.2c-.6-.8-1.3-1.9-2.2-2.1q.4 2.2-1.5 3c1-.9 1.6-2.3.8-3.4.7-.4 1.5.2 1.9.7.4.6.8 1.4 1.6 1.3q.9 0 .6-1a8 8 0 0 0-2.9-3.4q-.7-.4-2.5-.1c.9-.7 2.3-.4 2.9-.2.5.2.3.1.8-.1l.6-.4q-.4.4-.5 1t.5 1c.6.7 1.2 0 1.8-.3l-.7 1q-.2.7.4 1.3c.7.7 2-.8 2.1-.7.1 0-2.3 2-2.3 2.6" style="fill:#4a2f27"/><path d="M57.7 10a16 16 0 0 1 18-3.4C75.7 6.8 80 9 81 11c1 2.2 0 3.4-.2 3.7s-1.1.2-1.1.2a44 44 0 0 0-9.2 0q-.7 0-1 .5l-.2 1.4c-.2 2.3 0 3.8-.7 5.2l-.6.5-1-1.4q-.7-1.5-1.8-1.5c-2.3.4-2 4.5.6 5.5 0 0-.5 3.1-3.4 3.6-2.6.5-3 0-3.1-1-.5-2.1-1-3-1.7-4-.7-1.1-1.4-2.3-2-5.3-.4-3 .3-6 2.2-8.2" style="fill:#232020"/><radialGradient id="j" cx="-946.4" cy="641" r="1" gradientTransform="rotate(173.3 -7936.83 -4666.15)scale(16.213 -15.991)" gradientUnits="userSpaceOnUse"><stop offset=".5" style="stop-color:#444140;stop-opacity:0"/><stop offset="1" style="stop-color:#444140"/></radialGradient><path d="M57.7 10a16 16 0 0 1 18-3.4C75.7 6.8 80 9 81 11c1 2.2 0 3.4-.2 3.7s-1.1.2-1.1.2a44 44 0 0 0-9.2 0q-.7 0-1 .5l-.2 1.4c-.2 2.3 0 3.8-.7 5.2l-.6.5-1-1.4q-.7-1.5-1.8-1.5c-2.3.4-2 4.5.6 5.5 0 0-.5 3.1-3.4 3.6-2.6.5-3 0-3.1-1-.5-2.1-1-3-1.7-4-.7-1.1-1.4-2.3-2-5.3-.4-3 .3-6 2.2-8.2" style="fill:url(#j)"/></svg>