<svg xml:space="preserve" width="16" height="16" viewBox="0 0 128 128"><circle cx="55.5" cy="49.4" r="27.9" style="fill:none;stroke:#e2a610;stroke-width:8.4791;stroke-miterlimit:10"/><path d="m13.4 47.6-1.6-4.2c-.7-1.7-2.5-1.5-3.6-.8-.6.3-3.2 2.5-4 5.1q-.8 2.5 1 3l4.7 1.4.4-.6-.4.6 25.8 22.6 4-7.3z" style="fill:#e2a610"/><path d="M68 93.3c-4.4-6.8-6.3-14-7.3-18.1" style="fill:none;stroke:#b51616;stroke-width:3.2496;stroke-miterlimit:10"/><path d="M66 95.2c.4 2.2 1.5 2.8 2.6 3.4s1.2 3.7 2 6.5c.8 2.6 1.6 5.7 3.7 7.4 1 .9 5.1-1.4 6.9-3.8.6-.9 2.8-5.1 1-5.8-3-1.1-7.7-4.8-8.8-6-1.4-1.7-.4-3-2-4.7-2.4-2.2-6 .5-5.5 3" style="fill:#b51616"/><path d="M37.9 96.9A43 43 0 0 0 48.7 75" style="fill:none;stroke:#f44336;stroke-width:3.2496;stroke-miterlimit:10"/><path d="M38.7 92a4 4 0 0 0-3 2c-.3.6-.5 1.8-.9 2.3q-.3.6-1.9 1c-3 1-6.8 2.3-8.2 4.8l9.2 9.5q3.5-3.9 4.8-9 .3-1.4 1.1-2.7l1.6-1.6c2-2.5.8-6.5-2.7-6.2" style="fill:#f44336"/><path d="M30.7 105.3c2.2 2.6 4 5 3.5 6q-.2.8-2.4.6c-.5 0-2.6-.8-4.9-3.5-2.7-3.3-3.3-6.4-1.4-6.7q2-.3 5.2 3.6" style="fill:#b51616"/><path d="M37 75.7a371 371 0 0 1-19.7-17v-.2l5.9 2.6s-1-3.6.3-5.8l.4.4s.1 2.7 3.8 8.9c3.6 6.1 9.3 11 9.3 11" style="fill:#9e740b"/><path d="M32.3 32.8c-.8-.4-1.1-1.5-.6-2.2q3-4.7 8-7.2c.8-.4 1.8 0 2 .9q.5 1.2-.7 2a17 17 0 0 0-6.7 6q-.8 1-2 .5" style="fill:#fff59d"/><path d="M75.5 36.7A23.6 23.6 0 0 0 65.3 71s9-1.5 19.9-9c0 0 1.6-3.7 2-7.5q0-.4-.2-.1c-.6 1-1.4 2-2.9 1.6-2-.5-2.6-3.7-2.7-5.7-.2-4.5-1.8-8.7-3.1-10.8-1.5-2.3-2.5-2.9-2.8-2.7" style="fill:#9e740b"/><path d="M115.2 47.9c-7.4-11.8-16-19.2-19.1-16.5q-1.5 1.2-1.1 4.9v.2c.3 2.6 2 22.4-20.2 31.3 0 0-10.8 4.5-19.8 5.3v8.5a72 72 0 0 0 25.5-5c8.3-3 20.2-9.7 37.7-3q1 .7 2 .9 1.6.3 2.6-.4c3.2-2.7-.2-14.4-7.6-26.2" style="fill:#e2a610"/><ellipse cx="110.5" cy="51.7" rx="3.4" ry="19.9" style="fill:#5d4037" transform="rotate(-31.7 110.52 51.73)"/><path d="M100.7 50.3c-.8-.9-2.3-3-3.2-6-.4-1.2-.4-3 .6-3.4s2 .6 2.2 1.4c.7 2 1.7 4.8 2.8 7 .3.6 1.3 1.9.6 2.5q-1.1.9-3-1.5" style="fill:#fff59d"/><path d="M66.7 79.6a18 18 0 0 1-1.4-8.1c0-1.2-1-2.3-2.1-2.2-2.4.2-2 2.4-2 2.4q-.5-1.5-2-1.4-1.8 0-2.3 1.6-.4-1-1.5-1.3-1.7-.2-2.4 1a2.2 2.2 0 0 0-4-.3q-.2-1-1.1-1.7c-1-.7-2.6 0-3.2 1-2.2 3.4-1.6 7.6-1.2 9.6q.6 2 2.3 2.2c1 .2 1.8-.5 2.2-1.2 0 .2.3 2.7 2.2 2.6 1.4 0 2.2-1 2.5-2 0 .2.8 2.4 2.6 2.4 1.7 0 2.3-1.1 2.6-2 .2.2.8 1.9 2.8 1.7 1-.1 1.7-1.2 2-2.1.3.6 1.3 1.2 2.4 1 1.7-.6 2.1-2.1 1.6-3.2" style="fill:#f44336"/><path d="M65.7 77c0 .9 0 2.3-.7 2.6q-1.6.7-2.7-1.1-.6-.7-.7 0-.1 1.7-1 2.3c-1.7.6-2.5-.7-3-2.1q-.5-.7-.8.1c-.3 1.2-.6 2.3-1.6 2.3-1.5 0-2.1-1.3-2.4-2.7q-.3-.7-.7 0c-.4 1.2-1 2.3-2 2.3-1.5 0-2-1.7-2-3.2q-.3-.9-.8-.1-.5 1.4-1.4 2c-1.4.4-2.2-1-2.5-2.2l-.2-2q-.4 3 .2 5.2.7 1.8 2.2 2 1.3.2 2-.8.4-.1.4.2c.2.7.8 2 2.2 2 1.2.1 2-.7 2.3-1.4q.1-.3.4 0c.2.6 1 1.8 2.3 1.8q2.1 0 2.5-1.4.2-.5.4-.2c.4.5 1 1.4 2.6 1.2 1 0 1.6-.9 1.8-1.7q0-.2.3 0 .9.9 2.3.7a2 2 0 0 0 1.6-3z" style="fill:#b51616"/></svg>