<svg xml:space="preserve" width="16" height="16" viewBox="0 0 128 128"><path d="m82.6 77.7-45.3-.4s-.4 2.2.4 4.3 4 5 4 5l3.9 8.3 3 19.4.7 5.7s2.2 4 14.7 4 14.8-4.3 14.8-4.3l.4-3.6L82.7 96l7-12s1.5-1.1 2.4-3.4c.6-1.6.3-3.8.3-3.6s-9.8.6-9.8.6" style="fill:#e27f13"/><path d="M64.8 98.8c10.2 0 15.1-.6 18.1-2.7a17 17 0 0 0 4.9-5.9c2.1-3.5 2-6.2 2-6.2s-8.5 4.3-25.2 4.1C48 88 39.3 84 39.3 84s.8 3.9 2.1 6.4c1.6 2.9 4.4 4.7 4.4 4.7s5.3 3.6 19 3.7m-17.3.9 2 .7 1.6 17.9s-2.7-1-3-2c-.2-.5-1-6.4-1.7-11.2l-.6-5.2c-.1-1 .8-.6 1.7-.2m10.8 2.5c-3.4-.4-6-1-6-1l1.2 17.6s1.3.9 5 1.3zm8.9.3H61v17.8a47 47 0 0 0 6.2 0zm11.7-1.2-2 16.6c2-.7 2.7-1 3-2s2.2-14.5 2.2-15.3c0-.5-.2-.5-1.4 0zm-2.4.4q-2.6.5-6.8.8l-.3 17.5q3.3-.7 5.6-1.5z" style="fill:#f5b03e"/><path d="M57.6 15.7c1.2-.1-.1-5 2.8-5 3.9 0 2.8 6 1 7.8-4.8 4.8-12.2 3.9-14 11.8-1 5 4.1 7 4.1 7S43 36.6 39 45c-3.2 6.9.7 11.6.7 11.6s-4.5.9-6.4 7.4c-2.4 8.2 4.5 13.7 4.5 13.7l29.7 2.4 29.2-13.4-.2-6.6s-1.4-2-2.7-3c-1.4-1.4-3-2.4-3-2.4l1.8-8.8s.3-5.3-7-10.8c-3.2-2.5-6.8-3.2-6.8-3.2s-2-12.4-2.5-13.3a70 70 0 0 0-6-8.8l-6.7-5.7s-4.2-1.4-7 2.2-1.9 9.5 1.1 9.3" style="fill:#ffebca"/><path d="M70 28.1c-6 8-18.5 9.1-18.5 9.1s4 2.8 16 1.9c12.4-1 15.3-6.6 15.1-12.8S78.2 13.7 72 8.5C66 3.7 61.6 4 61.6 4s4.7 1.4 8.3 6.3a16 16 0 0 1 .1 17.8M39.6 56.7s8.3 4.6 27.8 4.5C85.9 61 91 55 91 55s2.1-2.8 2-7.6c-.2-5-3-7.9-3-7.9s-5.2 6.7-12.2 10.7-20.5 5.7-26.7 6.1c-6.3.4-11.4.4-11.4.4m56.7 3.5s2.7 3 1.8 8C97 74 92.5 78 92.5 78s-5 4.8-29 5c-21.5.2-26.1-5.5-26.1-5.5s22.4 1 37.2-4c12.5-4.3 15-6 18.8-9.7 1.3-1.3 3-3.6 3-3.6" style="fill:#eac084"/><path d="M38.3 73.3c1.9-.2.8-5.3 3-8.2 2.3-3 3.4-3.8 2.9-5-.5-1-5.2-1.2-7.3 3.9-1.6 4.2 0 9.5 1.4 9.3M54.2 41c.1 1.9-3.2 1.4-6.9 6-3 3.7-2.6 7.6-4.4 7.8-1.8.1-2.6-6.4-.1-10 3.5-5.3 11.3-6.2 11.4-3.8M62 22.5c.6.5-.3 2.4-3.4 4.8-3.8 2.9-5.1 5.1-6.5 4.7-1-.2-2-2.4 0-4.7 1.6-1.8 4.7-2.7 6.1-3.4 2.2-1 3-1.8 3.7-1.4" style="fill:#fff"/></svg>