<svg xml:space="preserve" width="16" height="16" viewBox="0 0 128 128"><linearGradient id="a" x1="97.2" x2="97.2" y1="123.5" y2="110.9" gradientUnits="userSpaceOnUse"><stop offset="0" style="stop-color:#009e89"/><stop offset="1" style="stop-color:#00bfa5"/></linearGradient><path d="M101 111.1h-7.5c-8.7-.6-21.6 3.3-24.5 12.9h56.5c-3-9.6-15.8-13.5-24.5-12.9" style="fill:url(#a)"/><path d="M97 117.8c-3.8 0-6.8-3-6.8-6.8v-4.5h13.6v4.5c0 3.8-3 6.8-6.8 6.8m15-38.1-5.2.6-28 3.4-5.2.7c-4.1.5-7 4.5-6.5 9a8 8 0 0 0 8.5 7l5.2-.6 28-3.5 5.2-.6c4.1-.5 7-4.5 6.5-9s-4.4-7.5-8.5-7" style="fill:#c48e6a"/><path d="M89.3 53.7c-12.2 1.5-22 16-19.6 34.7s15 26.6 27 25.1 22.4-12.1 20-30.8c-2.2-18.8-15.2-30.5-27.4-29" style="fill:#e0bb95"/><path d="M74.9 84.3c1.8-3.4 7-4.2 10-1.8q1 .6.8 1.7c-.3.8-1 .7-1.7.6a9 9 0 0 0-5.4 0l-2.1 1c-1 .5-2.2-.4-1.6-1.5m32.8-2.3a9 9 0 0 0-5-.3q-1.2.3-2.2.9-.9.7-1.8.4c-1.9-1 1-3.3 1.8-3.8q2.9-1.5 6.1-.5a5 5 0 0 1 2.2 1.4c.7.9 0 2.2-1.1 1.9" style="fill:#ab872f"/><ellipse cx="80.9" cy="89.3" rx="3.5" ry="3.6" style="fill:#5d4037" transform="rotate(-7 80.83 89.31)"/><ellipse cx="104.2" cy="86.5" rx="3.5" ry="3.6" style="fill:#5d4037" transform="rotate(-7 104.18 86.45)"/><path d="M96 94h-.2l-5 .6-.2.1q-.7.5-.3 1.2c.3.5 1.4 1.8 3.4 1.5 2-.2 2.8-1.7 3-2.2q.1-1-.7-1.1" style="fill:#c48e6a"/><path d="M100 99.4a18 18 0 0 1-11.9 1.4c-1.3-.6-2.5.7-1.8 1.8s5 3.3 8.4 2.9a12 12 0 0 0 7.5-4.8c.4-1.3-1-2.3-2.3-1.4" style="fill:#6d4c41"/><path d="M88.8 49.4c-31.9 4.1-20.9 39.8-20.9 39.8l2.8 5.1q.2.4.4 0c.4-3.2.5-14.3 1.3-17.7.5-2 2.4-3.4 4.5-3.3 5.1.3 13.8-.4 13.8-.4 5.5-.7 11.4-2 14.5-3 2-.6 4.1.3 5 2.1a183 183 0 0 1 6.5 16.6q.3.4.5 0l1.5-5.7s2-37.2-29.9-33.5" style="fill:#ab872f"/><radialGradient id="b" cx="117.8" cy="8.9" r="27" gradientTransform="rotate(-7 673.9 251.47)scale(1 1.128)" gradientUnits="userSpaceOnUse"><stop offset=".8" style="stop-color:#bfa055;stop-opacity:0"/><stop offset="1" style="stop-color:#bfa055"/></radialGradient><path d="M118.7 83s2-37.3-29.9-33.6l-4.2.8h-.2c-26.5 6.7-16.5 39-16.5 39l2.8 5.1q.2.3.4-.1c.4-3.2.5-14.2 1.3-17.6.5-2 2.4-3.4 4.5-3.3 3.2.2 8.2.2 13.7-.4h1.1c5.5-.7 10.4-2 13.5-3 2-.6 4.1.3 5 2.1 1.7 3.2 5.5 13.7 6.5 16.6q.3.4.5 0z" style="fill:url(#b)"/><linearGradient id="c" x1="30.7" x2="30.7" y1="123.5" y2="110.9" gradientUnits="userSpaceOnUse"><stop offset="0" style="stop-color:#006c7d"/><stop offset="1" style="stop-color:#007689"/></linearGradient><path d="M34.5 111.1H27c-8.7-.6-21.6 3.3-24.5 12.9H59c-3-9.6-15.8-13.5-24.5-12.9" style="fill:url(#c)"/><path d="M30.5 117.8c-3.8 0-6.8-3-6.8-6.8v-4.5h13.6v4.5c0 3.8-3 6.8-6.8 6.8m22.9-33.5-5.2-.6-28-3.5-5.2-.6c-4.2-.5-8 2.7-8.5 7s2.4 8.5 6.5 9l5.2.7 28 3.4 5.2.6c4.1.6 8-2.6 8.5-7s-2.4-8.5-6.5-9" style="fill:#c48e6a"/><path d="M37 53.6c-12-1.5-25 10.2-27.3 29-2.4 18.7 8.3 29.4 20.1 30.8s24.6-6.3 27-25C59 69.6 49.2 55 37 53.6" style="fill:#e0bb95"/><path d="M16.2 79.8c2.6-2.9 7.9-2.3 10.2.7.4.5.8 1.2.4 1.8q-.9.9-1.9.2a9 9 0 0 0-5.2-1.3q-1.2.1-2.3.5c-1 .2-2-1-1.2-1.9m32.4 5.7q-2.2-1.3-4.8-1.4l-2.3.3c-.6.1-1.3.4-1.8 0-1.6-1.5 1.7-3 2.6-3.3a7 7 0 0 1 6.1 1 5 5 0 0 1 1.8 1.9c.4 1-.6 2.1-1.6 1.5" style="fill:#ab872f"/><ellipse cx="20.8" cy="86.2" rx="3.6" ry="3.5" style="fill:#5d4037" transform="rotate(-83 20.81 86.16)"/><ellipse cx="44.2" cy="89" rx="3.6" ry="3.5" style="fill:#5d4037" transform="rotate(-83 44.17 89.03)"/><path d="M34.4 94.4h-.2l-5-.7H29q-.8.3-.6 1.1c.1.6 1 2 3 2.3 1.9.3 3-1 3.3-1.5q.4-.8-.3-1.2" style="fill:#c48e6a"/><path d="M36.9 100.5A18 18 0 0 1 25.1 99c-1.2-.9-2.7.1-2.3 1.4s4 4.3 7.5 4.7 7.8-1.7 8.4-2.8-.4-2.4-1.8-1.8" style="fill:#6d4c41"/><path d="M38.2 49.4c-32-3.8-30 33.5-30 33.5l1.5 5.6q.2.5.5 0c1-3 3.9-13.7 5.5-16.8 1-1.8 3.1-2.7 5.1-2.1 5 1.5 13.6 3 13.6 3 5.5.6 11.5.8 14.7.6 2-.1 4 1.2 4.4 3.3.9 3.4 2 14.4 2.3 17.6q.2.4.5.1l2.7-5.1s11-35.6-20.8-39.7" style="fill:#ab872f"/><radialGradient id="d" cx="20.5" cy="143.9" r="27" gradientTransform="rotate(7 703.76 235.07)scale(1 1.128)" gradientUnits="userSpaceOnUse"><stop offset=".8" style="stop-color:#bfa055;stop-opacity:0"/><stop offset="1" style="stop-color:#bfa055"/></radialGradient><path d="M59 89s11-35.5-20.8-39.6l-4.3-.3h-.2C6.4 49 8.3 82.9 8.3 82.9l1.4 5.6q.2.5.5 0c1-3 3.9-13.7 5.5-16.8 1-1.8 3.1-2.7 5.1-2a79 79 0 0 0 14.5 3.1c5.5.7 10.6.6 13.8.4 2-.1 4 1.3 4.4 3.3.9 3.4 2 14.6 2.3 17.7q.2.4.5 0z" style="fill:url(#d)"/><path d="M78.4 3.7C68 3.7 64 14.5 64 14.5S60.2 3.7 49.6 3.7c-8 0-17.1 6.4-13.7 20.7C39.2 38.8 64 56.7 64 56.7s24.7-18 28.1-32.3-5-20.7-13.7-20.7" style="fill:#ef5592"/><path d="M48 4.8c8.2 0 12.3 8.9 13.7 12.5.1.5.9.5 1 0l1.3-2.8A15 15 0 0 0 49.6 3.7c-3.4 0-6.9 1.1-9.6 3.5q3.8-2.4 8-2.4m30.4-1.1q-3.8.1-6.5 1.9 2-.8 4.2-.8c7.8 0 14.8 6 11.7 19.6C85 36 69.3 50.4 64.4 55.8c-.3.3-.4.9-.4.9s24.7-18 28.1-32.3S86.4 3.7 78.4 3.7" style="fill:#da2e75"/><path d="M41.4 11.4c1.8-2.3 5-4.2 7.8-2 1.4 1.1.8 3.5-.5 4.5-2 1.5-3.6 2.4-4.8 4.7q-1 2-1.3 4.4c-.1.6-1 .7-1.2.2-2-3.6-2.6-8.5 0-11.8M70.3 16q-1.4-.2-1.1-1.5.9-2.3 2.2-4.1c1.3-1.9 3.8-3 5.4-1.8s1.4 3.4.3 4.5c-2.5 2.4-5.6 3-6.8 3" style="fill:#f386ab"/></svg>