<svg xml:space="preserve" width="16" height="16" viewBox="0 0 128 128"><path d="M118.1 6H92.7a3 3 0 0 0-3 3v5.8a3 3 0 0 0 3 2.9h6.6c.7 0 1 .8.5 1.3L81.5 37.3a30.5 30.5 0 0 0-34.4.8l-4-4 6.2-6.2c1.1-1.1 1.6-3-.1-5L35 25.7 28.2 19c-.5-.5 0-1.3.5-1.3h4.6a3 3 0 0 0 3-3V9L6.8 17.8v14.6a3 3 0 0 0 3 3h5.8a3 3 0 0 0 3-3v-4.6c0-.6.7-1 1.2-.4l6 6s-6.3 5.6-6.5 6c-1.6 2.2-1.3 4.1-.1 5.2l4.6 4.6c1.1 1.1 3 1.1 4 0l7-7 4.3 4.3A30.5 30.5 0 0 0 59 93.2v9.4h-8.8c-1.7 0-3 1.2-3 2.9v4.8a3 3 0 0 0 3 3H59v7.8a3 3 0 0 0 3 3h5.8a3 3 0 0 0 2.9-3v-7.8h8.8a3 3 0 0 0 3-3v-4.8a3 3 0 0 0-3-3h-8.8v-9.3a30.7 30.7 0 0 0 19-48L108 27.1c.5-.5 1.3-.1 1.3.5v6.8c0 1.6 1.2 2.9 2.9 2.9h5.9a3 3 0 0 0 2.9-3V9a3 3 0 0 0-3-3M65 81.6h-.4l-1.8-.2a18.5 18.5 0 1 1 2.2.2" style="fill:#f57c00"/><path d="M118.1 4H92.7a3 3 0 0 0-3 3v5.8a3 3 0 0 0 3 2.9h6.6c.7 0 1 .8.5 1.3L81.5 35.3a30.5 30.5 0 0 0-34.4.8l-4-4 5.6-5.7c1.2-1.1 1.2-3 0-4l-4-4.2a3 3 0 0 0-4.2 0L35 23.8l-6.8-6.7c-.5-.5 0-1.3.5-1.3h4.6a3 3 0 0 0 3-3V7a3 3 0 0 0-3-3H9.9a3 3 0 0 0-3 3v23.4a3 3 0 0 0 3 3h5.8a3 3 0 0 0 3-3v-4.6c0-.6.7-1 1.2-.4l6.7 6.6-6.9 7a3 3 0 0 0 0 4l4.2 4.1c1.1 1.2 3 1.2 4 0l7-6.9 4.3 4.3A30.5 30.5 0 0 0 59 91.1v9.4h-8.8a3 3 0 0 0-3 3v4.8a3 3 0 0 0 3 3H59v7.8a3 3 0 0 0 3 3h5.8a3 3 0 0 0 2.9-3v-7.8h8.8a3 3 0 0 0 3-3v-4.8a3 3 0 0 0-3-3h-8.8v-9.3a30.7 30.7 0 0 0 19-48L108 25.1c.5-.5 1.3-.1 1.3.5v6.7c0 1.7 1.2 3 2.9 3h5.9a3 3 0 0 0 2.9-3V7a3 3 0 0 0-3-3M65 79.6h-.4l-1.8-.2a18.5 18.5 0 1 1 2.2.2" style="fill:#ffa726"/><path d="M41.7 45.6a24 24 0 0 1 14.2-11c3.5-.8 5.3-.8 5.8 1 .4 1.7-3.7 2.8-4.6 3.2-5.6 2.2-9 5-11.5 9.5-1.1 2-3.2 8.6-5.6 7.5-1.5-.5-1.5-4.4 1.7-10.2M20.9 7.4c0-1.3-.7-1-4.2-1-4.5.1-6.1 0-7 1.2-.9 1-1 4.2-.9 6.5.2 2.3 0 5.5 1.5 5.5 2 0 2.2-4.7 3.7-7.3 1.3-2.3 6.9-3.1 6.9-4.9M25 36.6c-.3-.4-.8-.2-2.4 1.5q-1.9 2-1.7 3.4t2.3 3.3c.9.9 1.8 1.6 2.2 1.2.6-.6-.8-2.7-1-4.1-.8-2.6 1.2-4.8.7-5.3M56 102.8c0-.8-.6-1-2.7-1q-2.7-.1-3.8.8c-.6.8-.6 1.3-.6 3 0 1.3 0 2.5.8 2.4.8 0 .6-1.2 2-2.8 1.5-1.7 4.4-1.7 4.4-2.4M99.2 6.4c.1-.7-.3-1-2.7-1q-3 0-3.9 1c-.9 1-.7 2.3-.7 4q0 2.3 1.1 2.4c1.2 0 1-2.1 1.6-3.3 1.3-2.3 4.4-2.3 4.6-3m13.1 19.7c-.6 0-1.2 1-1 3.3q.2 2.8 1.2 3.5t3.4.7c1.3 0 2.5-.1 2.4-.8 0-.9-2.4-1.3-3.5-2.3s-1.7-4.5-2.5-4.5m-50.8 87.5c-.4 0-.6 2.4-.6 3.6q-.2 1.8.8 2.9 1.2.9 4 .7 1.9.2 2-.6c0-1.2-3.1-1.5-3.9-2-1.1-1-.9-4.6-2.3-4.6" style="opacity:.3;fill:#fff"/></svg>