<svg xml:space="preserve" width="16" height="16" viewBox="0 0 128 128"><path d="M96 78.6c-2.5-21.4-9.5-39-9.5-39-1-4-10.4-7-22-7h-1.1c-11.5 0-20.9 3-21.8 7h-.1s-7 17.6-9.5 39-3.6 34.4 2 39.8c3.7 3.7 19.5 5.6 30 5.6s26.3-2 30-5.6c5.6-5.4 4.5-18.4 2-39.8" style="fill:#4fe8d8"/><path d="M63.6 19.4c-6.5 0-11.8 1-11.8 2.4v13.7c0 1.4 5.3 2.5 11.8 2.5s11.7-1.1 11.7-2.5V21.8c0-1.3-5.2-2.4-11.7-2.4m3.7 1.8s-1.3.6-3.9.6-3.8-.6-3.8-.6V10h7.7z" style="fill:#78909c"/><path d="M63 17.2c-3.6-1.4-3.4-3.4-3.4-3.4V12h7.7v6s-1.2.5-4.3-.7" style="fill:#546e7a"/><path d="m53.5 4.9-1 2.5q-.4 1 .6 1.8a17 17 0 0 0 9.5 3.5c11 0 13.1-2.7 17-3 3.5 0 6 1 7.4 1.3q.7.2 1.2-.4l1.7-2.7a1 1 0 0 0-.5-1.6c-1.9-.8-5.9-2.2-10.1-2.2-7.5 0-10.8 1.6-15.4 1.5-3-.1-6.8-1-8.7-1.5q-1.1-.3-1.7.8" style="fill:#78909c"/><path d="m58 25.8-.7-.1q-1.5-.1-2.7-.9-.8-.5-1.3-1.5-.4-1.1.7-1 2.4.8 4.9 1.2 2.2.2 4.3.1c.4 0 1 .3.8.8l-.5.4a9 9 0 0 1-5.6 1" style="opacity:.75;fill:#a7ffeb"/><path d="M41 70.3c-1 0-1.4-2.6-1.1-6.5.5-7 1.7-12.3 4.6-18.7 1.9-4.2 8.5-3.2 6.7 1.1A339 339 0 0 0 44 64.6q-1.5 5.5-3 5.7" style="fill:#a7ffeb"/><path d="M50.6 82.5c0-7.5 8-19.2 11.8-24.2q1.5-1.9 3 0c3.7 5.2 12 16.3 12 24.2a13.4 13.4 0 0 1-26.8 0" style="fill:#fff"/></svg>