<svg xml:space="preserve" width="16" height="16" viewBox="0 0 128 128"><path d="M116.5 4h-104a8 8 0 0 0-8 8v104a8 8 0 0 0 8 8h104a8 8 0 0 0 8-8V12a8 8 0 0 0-8-8" style="fill:#427687"/><path d="M122.2 6.3a8 8 0 0 0-5.7-2.3h-104a8 8 0 0 0-8 8v104q0 3.1 2.3 5.7l16.8-16.8h76a6 6 0 0 0 5.9-6V23z" style="fill:#8cafbf"/><path d="m44.4 61.6 3.4-31.2q.1-1.6 1.8-1.6h33.2q1.6.2 1.8 1.7v6.3q-.2 1.6-1.8 1.8H59q-1.6.1-1.8 1.6l-1.3 11.5q-.2 1.6 1.5 2l.9-.1q3.8-1.5 7.9-1.4 9.7 0 15.2 6.2c5.5 6.2 5.4 9.7 5.4 16.8q0 10.4-6 16.6c-6 6.2-9.5 6-16.4 6q-9.3 0-15.5-5.2c-3.6-3-6-7.4-6.5-12a2 2 0 0 1 1.8-2.1h7.5q1.4 0 1.8 1.4a12 12 0 0 0 3.3 6.2c2 1.8 4.8 2.7 7.6 2.6 3.1.1 6.2-1.3 8.2-3.7q2.9-3.8 2.9-10.2.1-5.5-3.2-10a11 11 0 0 0-9-3.5q-2.6 0-5.1.8-2.3 1-4 2.6-.7.6-1.6.4L46 63.5a1.7 1.7 0 0 1-1.6-2" style="fill:#fafafa"/><path d="M40.2 12.9c0-2.3-1.6-3-10.8-2.7-7.7.3-11.5 1.2-13.8 4s-3 8.5-3 15.3c0 4.8 0 9.3 2.5 9.3 3.4 0 3.4-8 6.2-12.3 5.4-8.7 18.9-10.6 18.9-13.6" style="opacity:.5;fill:#b4e1ed"/></svg>