<svg xml:space="preserve" width="16" height="16" viewBox="0 0 128 128"><path d="M5 52.2a59 59 0 0 0 12.4 44c10.9 12.6 25.6 17.7 45 18.4s38.1-5.8 47.1-16A57 57 0 0 0 123.2 54c-2.1-8.4-19-14.4-58.5-14.4-36.8 0-56.8 6-59.7 12.5" style="fill:#6bb8fe"/><path d="M93.7 50c.4-.1 8 .7 8.2.6s3.4-7.5 3.4-7.5l-4.3-1c-1.4-.1-7.3 7.9-7.3 7.9" style="fill:#1d89fe"/><path d="M33.4 101c-1.6 1.8-11-3.6-17.1-16.2-5.5-11-5.3-17-4.3-18 1.3-1.3 5.3-.1 6.2 2.7 1.1 3.9 1.1 8.3 5.3 16.5 6.4 12.5 11.2 13.3 9.9 15" style="fill:#e0ebf6"/><path d="M12.3 54c.5 6.1 20.8 9.8 52.8 10.3s52.2-3.9 52.2-9.6-21.2-9.7-50.9-10-54.7 3.6-54.1 9.4" style="fill:#1d89fe"/><path d="m96.3 63 7-15.2-9-1.3-11.1 1.7-7.5 16s7.5 0 11.9-.4c4.4-.3 8.7-.8 8.7-.8" style="fill:#025abc"/><path d="M82.6 64.1S98 47.6 106.7 38.6s16.4-15.8 16.6-18.5c.2-3.4-6.4-5-6.4-5L75.7 61l-1 3.2a77 77 0 0 0 8 0" style="fill:#9d9c9c"/><path d="M116.8 15.1s4.8 1 4.6 2.9c-.3 2.3-2.2 4.3-4.6 6.7L79.1 64.3l-3.4.1-.4-1.7z" style="fill:#e0e0e0"/><path d="M68.2 64.4S80.9 48.5 92 35.3s16.6-20.5 18.1-21 9.4 1 9.6 2c.4 1.4 0 2.8-4.1 7l-39.1 41h-8.3" style="fill:#c8c8c8"/><path d="M110.6 16.9c-2.3.8-10 9-8 10 1.7.6 6.6-4.8 9.3-6.3 2.6-1.5 4.2-.8 4.5-2s-3.5-2.6-5.8-1.7" style="fill:#fff"/></svg>