<svg xml:space="preserve" width="16" height="16" viewBox="0 0 128 128"><path d="M19.5 75.9 13.9 64l5.6-11.9q1-2.4 0-4.8l-5.6-11.8 5.6-12c1.1-2.4.3-5.3-1.9-6.8q-1-.7-2.3-.7a5 5 0 0 0-4 2.8L4.4 33a6 6 0 0 0 0 4.8L10 49.6 4.4 61.5a6 6 0 0 0 0 4.8L10 78.2 4.5 90a6 6 0 0 0 0 4.9l6.7 14.2a5 5 0 0 0 4.2 2.8q1.2 0 2.2-.6c2.2-1.6 3-4.5 1.9-7l-5.6-11.9 5.6-11.8q1-2.4 0-4.8m89 .1 5.6-11.9-5.6-11.9a6 6 0 0 1 0-4.8l5.6-11.8-5.6-12a5.5 5.5 0 0 1 1.9-6.8q1-.7 2.2-.7 3 .1 4.2 2.8l6.7 14.3q1 2.3 0 4.8l-5.6 11.8 5.6 11.9q1 2.4 0 4.8l-5.6 11.9 5.6 11.8q1 2.4 0 4.9l-6.7 14.2a5 5 0 0 1-4.2 2.8q-1.2 0-2.2-.6a5.5 5.5 0 0 1-1.9-7l5.6-11.9-5.6-11.8a6 6 0 0 1 0-4.8" style="fill:#b0bec5"/><path d="M87.4 124H40.6a8.6 8.6 0 0 1-8.6-8.6V12.6C32 7.9 35.9 4 40.6 4h46.8c4.7 0 8.6 3.8 8.6 8.6v102.9c0 4.7-3.9 8.5-8.6 8.5" style="fill:#424242"/><path d="M86.8 120.1H39.9a4 4 0 0 1-3.9-3.9V19.7a4 4 0 0 1 4-4h48a4 4 0 0 1 4 4v95.9c0 1-1.4 4.5-5.2 4.5"/><path d="M73.7 11.6H54.5q-1.1-.2-1.2-1.2c-.1-1 .6-1.2 1.2-1.2h19q1.2.2 1.3 1.2-.1 1.3-1.1 1.2" style="fill:#212121"/><path d="M87.4 6C91 6 94 9 94 12.6v102.9c0 3.6-3 6.5-6.6 6.5H40.6c-3.6 0-6.6-3-6.6-6.6V12.6C34 9 37 6 40.6 6zm0-2H40.6a8.7 8.7 0 0 0-8.6 8.6v102.8c0 4.8 3.9 8.6 8.6 8.6h46.8c4.7 0 8.6-3.8 8.6-8.5V12.6C96 7.8 92.1 4 87.4 4" style="fill:#757575"/><path d="M48.4 30H42q-1.2-.1-1.3-1.4v-6.3Q40.8 21 42 21h6.4q1.2.1 1.3 1.3v6.3q-.1 1.3-1.4 1.4" style="fill:#eab56e"/><path d="M60.9 30h-6.4q-1.2-.1-1.3-1.4v-6.3q.1-1.2 1.3-1.3H61q1.2.1 1.3 1.3v6.3Q62.1 30 61 30" style="fill:#fb8c00"/><path d="M73.5 30H67q-1.2-.1-1.3-1.4v-6.3Q65.9 21 67 21h6.4q1.2.1 1.3 1.3v6.3q-.1 1.3-1.3 1.4" style="fill:#ff80ab"/><path d="M86 30h-6.3q-1.3-.1-1.4-1.4v-6.3q.1-1.2 1.4-1.3H86q1.2.1 1.3 1.3v6.3Q87.2 30 86 30" style="fill:#0288d1"/><path d="M48.4 44.1H42q-1.2-.1-1.3-1.3v-6.4q.1-1.2 1.3-1.3h6.4q1.2.1 1.3 1.3v6.4q-.1 1.2-1.4 1.3" style="fill:#00bfa5"/><path d="M60.9 44.1h-6.4q-1.2-.1-1.3-1.3v-6.4q.1-1.2 1.3-1.3H61q1.2.1 1.3 1.3v6.4q-.1 1.2-1.3 1.3" style="fill:#81d4fa"/><path d="M73.5 44.1H67q-1.2-.1-1.3-1.3v-6.4q.1-1.2 1.3-1.3h6.4q1.2.1 1.3 1.3v6.4q-.1 1.2-1.3 1.3" style="fill:#fb8c00"/><path d="M86 44.1h-6.3q-1.3-.1-1.4-1.3v-6.4q.1-1.2 1.4-1.3H86q1.2.1 1.3 1.3v6.4q-.1 1.2-1.3 1.3" style="fill:#eab56e"/><path d="M48.4 58.3H42q-1.2-.1-1.3-1.3v-6.4q.1-1.2 1.3-1.3h6.4q1.2.1 1.3 1.3V57q-.1 1.2-1.4 1.3" style="fill:#fb8c00"/><path d="M60.9 58.3h-6.4q-1.2-.1-1.3-1.3v-6.4q.1-1.2 1.3-1.3H61q1.2.1 1.3 1.3V57q-.1 1.2-1.3 1.3" style="fill:#ff80ab"/><path d="M73.5 58.3H67q-1.2-.1-1.3-1.3v-6.4q.1-1.2 1.3-1.3h6.4q1.2.1 1.3 1.3V57q-.1 1.2-1.3 1.3" style="fill:#00bfa5"/><path d="M86 58.3h-6.3q-1.3-.1-1.4-1.3v-6.4q.1-1.2 1.4-1.3H86q1.2.1 1.3 1.3V57q-.1 1.2-1.3 1.3M48.4 72.4H42q-1.2-.1-1.3-1.3v-6.3q.1-1.3 1.3-1.4h6.4q1.2.1 1.3 1.4V71q-.1 1.2-1.4 1.3" style="fill:#0288d1"/><path d="M60.9 72.4h-6.4q-1.2-.1-1.3-1.3v-6.3q.1-1.3 1.3-1.4H61q1.2.1 1.3 1.4V71q-.1 1.2-1.3 1.3M48.4 115H42q-1.2-.2-1.3-1.4v-6.4q.1-1.2 1.3-1.3h6.4q1.2.1 1.3 1.3v6.4q-.1 1.2-1.4 1.3" style="fill:#81d4fa"/><path d="M60.9 115h-6.4q-1.2-.2-1.3-1.4v-6.4q.1-1.2 1.3-1.3H61q1.2.1 1.3 1.3v6.4q-.1 1.2-1.3 1.3" style="fill:#0288d1"/><path d="M73.5 115H67q-1.2-.2-1.3-1.4v-6.4q.1-1.2 1.3-1.3h6.4q1.2.1 1.3 1.3v6.4q-.1 1.2-1.3 1.3" style="fill:#00bfa5"/><path d="M86 115h-6.3q-1.3-.2-1.4-1.4v-6.4q.1-1.2 1.4-1.3H86q1.2.1 1.3 1.3v6.4q-.1 1.2-1.3 1.3" style="fill:#ff80ab"/></svg>