<svg xml:space="preserve" width="16" height="16" viewBox="0 0 128 128"><path d="M107.5 85.2c-3-.1 1.1-31.8 1.1-31.8h2a46 46 0 0 0-47-36.6c-26 0-40 16-44.8 36h.7s5 33 1.4 32.5l-2.3-.4c4.9 16.7 19.4 26.5 46.3 26.6 24.5 0 39-10 44.7-26.5zM94 87c-4 7.8-15.7 13.4-29.6 13.1-17.9-.3-28.9-5.6-31.8-14.4-3-8.6 3.3-13.4 3-20-.4-6.7-6.8-17.1 1.8-23.4 12.4-9.2 17.8 3.2 26.4 3 8.1-.3 17-11.5 26.7-2.6 9 8.2 1.9 15.8 2 23.5.3 6.4 6.6 11 1.5 20.8" style="fill:#b6885a"/><path d="M90.4 42.7c-9.8-8.9-18.6 2.3-26.7 2.5-8.6.3-14-12.1-26.4-3-8.6 6.4-2.2 16.8-1.8 23.5.3 6.6-6 11.4-3 20 3 8.8 13.9 14.1 31.8 14.4 14 .3 25.5-5.3 29.6-13.1 5-9.7-1.2-14.4-1.4-20.8-.2-7.7 6.8-15.3-2.1-23.5M72.4 60c.2-3.7 2.7-7.2 6.6-6.8 3 .3 5 2.7 4.9 7-.1 5.6-3.6 7.4-6.7 7.1s-5.1-3.6-4.8-7.3m-8.2 7c4.2.1 5.7.2 5.6 2.3-.1 1.3-2.8 4-5.5 4-2.2 0-5.5-2.2-5.7-4.2-.3-2.2 1.4-2.1 5.6-2M48.4 53.5c3.2-.2 6.2 1.6 6.7 6.2.5 4.8-2.2 8-5.5 8.4-3.2.3-6.2-2.6-6.6-6.5-.4-4 1.2-7.7 5.4-8m36.1 29c-.2 4.1-7.4 9.2-20.5 9-13.7 0-20.6-4.8-20.7-8.8-.2-4 9-6.4 20.2-6.3 18 .2 21.2 3 21 6" style="fill:#ffcd88"/><path d="M49.6 68c3.3-.3 6-3.6 5.5-8.4-.5-4.6-3.5-6.4-6.7-6.2-4.2.4-5.8 4.2-5.4 8.1.4 4 3.4 6.8 6.6 6.5m27.6-.7c3.1.2 6.5-1.6 6.7-7.2q0-6.5-4.9-7c-4-.4-6.4 3.1-6.6 6.8-.3 3.7 1.7 7.1 4.8 7.4m-12.9 5.9c2.7 0 5.4-2.7 5.5-4 .1-2.1-1.4-2.1-5.6-2.2s-5.9-.2-5.6 2c.2 2 3.5 4.2 5.7 4.2" style="fill:#393531"/><path d="M63.5 76.3c-11.2-.1-20.4 2.3-20.2 6.3s7 8.7 20.7 8.9c13.1 0 20.3-5 20.5-9.2.2-3-3-5.8-21-6" style="fill:#ff6b17"/><path d="M124 68c.1-12-9.2-14.2-13.3-14.5q.7 3 1 6.2c3 .5 7.3 2.5 7 8.8-.1 6-4.7 8.9-7.4 9.7q-.6 3.6-1.7 6.9c4.7-.7 14.2-4.2 14.4-17.1m-14.5 10.3c-.5-.3 0-3.9.1-8.8 0-4.5-.5-9.6-.2-9.8q.4-.2 2.4 0-.4-3.1-1.1-6.2h-2s-4.1 31.6-1.2 31.7l2-.1q1.2-3.3 1.8-6.9-1.4.3-1.8.1M9 68c0-8.2 7-9.2 8.5-8.8q.4-3.3 1.3-6.4c-3 0-14.4 1.4-15 14.7-.4 12.9 9.6 16.4 14.8 17.5q-1-3.3-1.4-6.8A10 10 0 0 1 9 68m10.5-15.3h-.7q-.9 3.3-1.3 6.5l.3.1c.1.2 0 4.6.2 9.1.3 4.8 1 9.7.6 9.8h-1.4a46 46 0 0 0 1.4 6.7l2.3.4c3.5.5-1.4-32.6-1.4-32.6" style="fill:#b6885a"/><path d="M9 68a10 10 0 0 0 8.2 10.2 64 64 0 0 1 .3-19c-1.6-.4-8.5.6-8.5 8.8m8.2 10.2h1.4c.4-.1-.3-5-.6-9.8-.2-4.5 0-8.9-.2-9l-.3-.2a77 77 0 0 0-.3 19m94.1 0c2.7-.8 7.3-3.7 7.5-9.7.2-6.3-4.2-8.3-7-8.8q.3 2.2.3 4.3.4 7.5-.8 14.2m-1.9-18.5c-.3.2.3 5.2.2 9.8 0 5-.6 8.5-.1 8.8q.5.3 1.8-.1a64 64 0 0 0 .5-18.5 5 5 0 0 0-2.4 0" style="fill:#ffcd88"/></svg>