<svg xml:space="preserve" width="16" height="16" viewBox="0 0 128 128"><path d="m43.3 29.5-1 3.3 4.9.8-2-4.1z" style="fill:#616161"/><radialGradient id="a" cx="-134" cy="-2274.8" r="122.6" gradientTransform="rotate(155.4 33.84 -144.33)scale(-1 .151)" gradientUnits="userSpaceOnUse"><stop offset=".3" style="stop-color:#e1f5fe"/><stop offset="1" style="stop-color:#b3e5fc"/></radialGradient><path d="M102.1 51.3C88.6 65.4 83.2 68.9 47.4 86.2c-17.8 8.6-36.2 9.2-42.2 13l-1.2.9v17.7h46.7L124 89V25.6c-5.3 7-12.8 16.2-21.9 25.7" style="fill:url(#a)"/><path d="M50.6 117.4H4v1h46.9l73-29v-1z" style="fill:#b3e5fc"/><radialGradient id="b" cx="-127.7" cy="-465.2" r="157.9" gradientTransform="rotate(152.4 51.4 -76.42)scale(-1 .485)" gradientUnits="userSpaceOnUse"><stop offset=".2" style="stop-color:#fff"/><stop offset="1" style="stop-color:#b3e5fc"/></radialGradient><path d="M106.3 55.2c-30.6 30-58.3 31.9-77 42.9A655 655 0 0 0 4 113.3v10.5h120v-81c-6 3.2-12.6 7.4-17.7 12.4" style="fill:url(#b)"/><path d="M41.8 123.8h.8c3.2 0 5.8-1.4 7.4-2.8 0 0 4.7-3.8 8.4-5.4L93 101c2.2-.9 6-1.5 9.4-2.2 13.2-3 9.5-11 7.7-13.6-1.9-3.4-6.7-4.3-10.6-2.9-5.4 2-10.2 6.2-12.4 7.1l-31.8 13.3c-4.4 1.3-10.2 1.3-14.9 2.6-5.6 1.7-7.3 4.7-7.3 9.4a9 9 0 0 0 8.6 9.1" style="fill:#b3e5fc"/><linearGradient id="c" x1="28.7" x2="108.6" y1="99.8" y2="99.8" gradientUnits="userSpaceOnUse"><stop offset=".2" style="stop-color:#ef5350"/><stop offset=".6" style="stop-color:#ea4643"/><stop offset="1" style="stop-color:#e53935"/></linearGradient><path d="M106.6 81.9c-2-3.7-7.3-4.4-11.2-3a42 42 0 0 0-9.1 5q-2.1 1.6-3.3 2L51.3 99.3q-3.3 1-7.2 1.3-4.1.4-7.7 1.4c-5.4 1.5-7.6 4.3-7.7 9.8a9.5 9.5 0 0 0 9.5 9.6c4.2 0 7.1-2 8.1-2.9 0 0 4.7-3.8 8.3-5.4l34.7-14.5q2.6-1 6.6-1.7l2.7-.5q7.8-1.8 9.5-6.1c1.4-3.6-.8-7.2-1.5-8.3" style="fill:url(#c)"/><path d="m86.7 66.1-.1-.3a7 7 0 0 0-3.7-4.5l-17.6-8v.2H65q-1.3-.6-2.7-.6a7 7 0 0 0-6.4 5 13 13 0 0 0-8-3.3 5 5 0 0 0-2.5.6c-3.6 2-2.5 8.7-.5 12.3v.1l7 12.4q1 1.7.4 3.6l-5 15.7 1 2.5 12.6-.1L67 81.8l.2-.6.1-.6v-.1q.6-3.3-1.4-6.2l-4.3-7.8 11 5q1.6.7 2 2.4L78.1 89l13.2-3z" style="fill:#7c7c7c"/><linearGradient id="d" x1="60.3" x2="95.2" y1="41.2" y2="41.2" gradientUnits="userSpaceOnUse"><stop offset="0" style="stop-color:#ed6d23"/><stop offset=".3" style="stop-color:#f37f21"/><stop offset=".5" style="stop-color:#f78c1f"/></linearGradient><path d="M94 38.5q-.2-.3-.5-.3L81 37.7c-1.3-.5-14.6-5.7-17-5.7q-.5 0-.6.3l-3 11.1q0 .4.3.6c.5.3 12.4 5.6 16.5 6.5l2.1.2a69 69 0 0 0 14-2.5c4-4.3.8-9.6.7-9.6" style="fill:url(#d)"/><linearGradient id="e" x1="56.6" x2="56.6" y1="36.8" y2="63.8" gradientUnits="userSpaceOnUse"><stop offset=".2" style="stop-color:#ed6d23"/><stop offset=".6" style="stop-color:#f37f21"/><stop offset=".8" style="stop-color:#f78c1f"/></linearGradient><path d="M69 43q-.8-3.6-1.1-7.1-.2-3.2-2.4-5a9 9 0 0 0-5.6-1.4l-9 .3c-4 0-8.2 4-8 8.3V57q.3 5.4 3.2 7.7 1.8 1.4 4.5 1.4 1.5 0 3-.4c10.7-2.4 16.6-5.8 16.7-9.3q0-6.9-1.4-13.4" style="fill:url(#e)"/><path d="M99.5 38.6c-.1 0-6.7-2-9 3.3l-.1.1v.2c-.7 3 1 4.7 2.3 5.3 1.1.5 4 .4 4.5.4l1.2.3q1.2.5 2.3.5 1.6.1 2.7-2v-.3c.7-2.8-.5-6.4-4-7.8M33.8 62.3l-.8-.8c-2-2-6.7.6-7.7 1.2-1.3 0-3.6.5-4.2 2.9q-.5 2.8 1 4.5a7 7 0 0 0 5.2 2h1c6.6-.8 6-6.9 5.7-9.5z" style="fill:#26a69a"/><linearGradient id="f" x1="28.8" x2="40.7" y1="64.4" y2="39" gradientUnits="userSpaceOnUse"><stop offset=".2" style="stop-color:#ed6d23"/><stop offset=".3" style="stop-color:#f37f21"/><stop offset=".5" style="stop-color:#f78c1f"/><stop offset="1" style="stop-color:#ed6d23"/></linearGradient><path d="M51.6 40.7v-.4a6 6 0 0 0-7.7-5.5h-.3q-1.2 0-2.2.5c-5.7 2-15.8 6-16.4 11.6-.6 4.7-.2 16.6-.2 16.6q2.3 1.6 4.4 1.5a9 9 0 0 0 5.1-1.7l.3-1v-.2l2.7-12 10.4-3.5c1.8-.7 4.1-3.3 4-5.9" style="fill:url(#f)"/><linearGradient id="g" x1="51.2" x2="62.4" y1="10" y2="29.8" gradientUnits="userSpaceOnUse"><stop offset=".2" style="stop-color:#ef5350"/><stop offset=".6" style="stop-color:#ea4643"/><stop offset="1" style="stop-color:#e53935"/></linearGradient><path d="M69.7 10.2a19 19 0 0 0-13.5-5.6A16 16 0 0 0 52 5c-7.3 2-9.4 5.5-10.1 7.3q-.5 1.3-1.2 2.5c-.7 1-2 1.6-2.9 2.6q-.6.7-.4 1.4.4.5 1.1.6c5 .7 18.7-.4 21.2 1.6 1.3 1.1.6 7 .6 9s.1 1.7 1.8 2.5q.9.4 1.6.4c2.2 0 3.4-2.8 5.1-4.9 4-5 6.6-12 .9-18" style="fill:url(#g)"/><path d="m61.6 96.9-13.3 1.8Q47 99 47 100v1.8q0 1.8 1.8 2.6a50 50 0 0 0 6.7 2.2q1 .3 2 .2c2.9 0 5.5-1.2 6.7-1.8q.7-.3.7-1c.4-3.5 0-6.8-3.3-7.2m28.8-12.7-13 2.2.2 3.7a2 2 0 0 0 1.8 1.9l10.6 1a13 13 0 0 0 6.7-1.7q.6-.5.6-1.1c0-3.3-3.5-5.5-6.9-6" style="fill:#4568ad"/><path d="m61 23.4-1-2c-.3-1.4-5.5-1.4-5.5-1.4l.5 12v1l.1 1s3.8-.6 5.3-1.4l.5-.4.1-.8.7-3 7.6-1.6.7-.7.4-.4a12 12 0 0 0 2-2.6z" style="fill:#616161"/><path d="M79.5 26.7c-6 3.7-5.2 6.2-10.6 10.9-4.9 4.2-10.4 6.2-17.6 3.1-11.9-5-10.1-10.9-10.1-10.9s2.8 4 14.5 3.4c8.2-.4 10-2.8 13.4-6.2s1-5.7 8.3-9.3 15-2.6 15-2.6l9.6 8s-16.6 0-22.5 3.6" style="fill:#039be5"/><path d="M106.5 75c1.2-1.2.4-3.3-1.3-3h-.2q-1.5.4-1.9 2l-.3 1.5-.2.7q0 .3.3.4l.8-.2q1.5-.5 2.8-1.5m12-11.9c1.1-1.2 3.2-.3 3 1.4h-.1q-.5 1.5-2 2l-2.3.4-.4-.2.3-.8q.5-1.5 1.5-2.8m-18-.7c.7-1.7-1.2-3.4-2.8-2.3q-1.4 1.4-1 3l.4 1.7.2.8q.1.2.5.3c.2 0 .5-.5.7-.7q1.3-1.2 2-2.8m13.4-9.3c1-1.2 0-3.2-1.6-2.8q-1.5.7-1.8 2.2l-.2 1.4v.8l.2.3.8-.2q1.6-.7 2.5-1.7m-1.2 9.1c1.4-1.5 0-4-2-3.4h-.1c-1.2.4-1.9 1.6-2 2.7q-.3.9-.3 1.9l-.1.9q0 .3.3.4l1-.3a10 10 0 0 0 3.2-2.2" style="fill:#fff"/><path d="m45.9 32.9-1.2-2h-1.3c-.1.6-.8 2.4-1.3 2.7-.4.2-1-.7-1.5-1.5q-.6-.9-.2-1.9l.3-.8.7-1.7c.3-.6-.1-1.3-.3-1.9l-.6-2c0-.2-.6-2.6-.8-2.6 0 0-.5 0-.6-.6 0-.4 0-1.2 1-1.2l12.2.3c1.7 0 3.4 0 4.7 2.5 1 1.8.6 9 0 9.9-.1.4-.5 1.4-1.9 1.9-1 .4-5.3.1-7.4 0q-1.2-.1-1.8-1.1" style="fill:#e3f2fd"/><linearGradient id="h" x1="-44.8" x2="-34.3" y1="223.7" y2="223.7" gradientTransform="matrix(1.457 .157 .124 -1.156 76.59 290.95)" gradientUnits="userSpaceOnUse"><stop offset=".4" style="stop-color:#90caf9"/><stop offset="1" style="stop-color:#42a5f5"/></linearGradient><path d="M49.8 31.4a4 4 0 0 1-3.2-2.5L45 26c-.5-.4-2.3-.3-2.6 0-.2.5-.8 3.4-1.4 4.4-2.2-5-1.5-9-1.5-9H43l4.7.1c2.6.1 5-.4 6.2 2.5.8 2.4.2 7.1-.7 7.4s-2.2.2-3.4 0" style="fill:url(#h)"/></svg>