<svg xml:space="preserve" width="16" height="16" viewBox="0 0 128 128"><path d="M48 43.6 14 9.4a3 3 0 1 0-4.2 4.2L48 52z" style="fill:#ffa000"/><path d="M16.8 24.7c1.9-3.1.7-7.2.5-7.6 1.1.3 4.8 1.2 7.6-.6 3.2-2 3.4-5.8 1.2-8-2.7-2.8-7.8-3.2-7.8-3.2L5.4 4Q4.2 4 4.2 5.2l1.3 13s.4 5 3.1 7.7c2.3 2.2 6.1 2 8.2-1.2" style="fill:#ffc107"/><path d="m26.1 8.4-1.5-1.2c1.3 2.3 1.2 5.7-1.6 7.4-3 1.9-7 1.2-7 1.2s.5 3.1-.5 5.9c-1 3-5.7 4.4-7.9 2.6l-.5-.5 1.5 2c2.3 2.3 6.1 2.1 8.2-1.1 1.9-3.2.7-7.2.5-7.7 1.1.4 4.8 1.3 7.6-.5 3.3-2 3.4-5.8 1.2-8.1" style="fill:#ffa000"/><path d="M48 49.6 21.5 23q-1.2-1.6-1.3-2.7-.2-1.6.7-2.7-2.9 0-5-1.8l.1 2.5q0 1.8-.6 3.4c-1 3-5.7 4.4-7.9 2.6l-.5-.5q.6 1.2 1.5 2c2.3 2.3 6.1 2.1 8.2-1.1q.5-1 .8-2.2l.2-.8L48 52z" style="fill:#c67500"/><path d="M94.8 20.8C76.7 20.8 70 39.3 70 39.3s-6.5-18.5-24.7-18.5c-13.7 0-29.4 10.9-23.6 35.6 5.8 24.6 48.4 55.4 48.4 55.4s42.5-30.8 48.2-55.4c5.8-24.7-8.7-35.6-23.5-35.6" style="fill:#f05a94"/><path d="M42.5 22.7C56.7 22.7 63.7 38 66 44.2a1 1 0 0 0 2 0l2-4.9C67 30 59 20.8 45.2 20.8a26 26 0 0 0-16.4 5.9q6.5-4 13.7-4m52.3-1.9q-6.7.2-11.4 2.9 3.4-1.2 7.5-1c13.4 0 25.4 10.1 20 33.6-4.7 20.2-31.8 44.6-40.1 54l-.5 1.3c3.6-2.6 42.5-31.7 48-55.2 5.8-24.7-8.7-35.6-23.5-35.6" style="fill:#da2e75"/><path d="M31.2 34c3.1-4 8.6-7.1 13.3-3.4 2.6 2 1.4 6-.8 7.7-3.3 2.6-6.2 4-8.2 8a24 24 0 0 0-2.3 7.6 1 1 0 0 1-2 .4c-3.5-6.2-4.5-14.7 0-20.4M80.9 42a2 2 0 0 1-2-2.7q1.5-3.8 3.8-7c2.3-3.2 6.6-5 9.3-3.1 2.8 2 2.4 5.9.5 7.7a18 18 0 0 1-11.6 5.2" style="fill:#f386ab"/><path d="M71.9 72.3c1.9-1.6 5.2-1.8 5.2-1.8 1.2 0 2-1 1.2-2a7 7 0 0 0-6.1-2 7 7 0 0 0-6.3 6q-.3 3.4 1.6 5.7c.8 1 2 .3 2-1 0 0 .5-3.3 2.4-4.9" style="fill:#c2185b"/><path d="m106.8 107.2-15-14.5s-4 8.1-1.8 15.9c2.5 8.5 11.4 16.2 15.8 15.3 7.3-1.3 1-16.7 1-16.7m.2-.2L92.5 92s8.1-4 15.9-1.8c8.5 2.5 16.1 11.4 15.3 15.8-1.3 7.3-16.7 1-16.7 1" style="fill:#ffc107"/><path d="M110.2 113.3a3 3 0 0 1-2.1-.8l-37.8-38a3 3 0 0 1 0-4.1q1.2-1 2.6-.9.7 0 1.2.5l38.2 38.3a3 3 0 0 1-2.1 5" style="fill:#ffa000"/><path d="M111.5 112a3 3 0 0 1-2.1-.8L69.6 71.4l-.3 1.6q0 .6.4 1l38.4 38.5a3 3 0 0 0 4.7-.8q-.7.3-1.3.3" style="fill:#c67500"/></svg>