<svg xml:space="preserve" width="16" height="16" viewBox="0 0 128 128"><path d="m43.7 64.5-2.8 1.7s1.5 5.4 2 8.4 1.4 5.2 2.2 6.7c1.2 2.3 4.4 2.4 5.6 1.5 2.6-2 4-7.8 4-7.8l2-7.5c.6-2.1 2-5.3 2-5.3l4.9 2.3s-.3 4.8 1.5 8.8c1.7 3.9 6.3 7.7 8.2 8.8S77 84 76.7 86s-3 6.3-4.8 8.5a83 83 0 0 0-7.3 11.1c-1.1 2.7-2.3 5.7.5 6.5s7-5 7-5l13.6-19s0-1-1-2.4c-1.2-1.2-1.5-2-2.1-3.6s-.8-6.7-.8-6.7 4.7-8.9 5.6-10c1-1.1 2.5-3.2 2.5-3.2s1.4 4.6 3.9 8.9a30 30 0 0 0 13.7 11.7c5.4 2 10.6 2.5 14.4 2.7 3.8.1 6-1.2 5.5-2-.5-1-10.3-2.2-10.3-2.2L99.9 70.2l-7.4-18.5-14-11.6-19.5.5-13 20.9s1.8 4.4 2 5.2-.1 5.5-.1 5.5l-1-3.3c-.3-1-.3-2.7-.3-2.7z" style="fill:#865b52"/><path d="M33.4 37.9s6.1-6 8.2-8.7c3.2-4.3 5.5-10 3-11.8s-7.3 2.5-9.9 6-5.1 9-5.7 7.5 2.2-4.7 4-7.6c.9-1.5 3.3-4.2 4.4-6.5 1-2 .7-3.8-.7-4.5-3.3-1.8-8.4 3.2-10.1 6.5A38 38 0 0 0 23.4 29s-3.9-.4-7.4 2.2c-2.5 2-3.8 6-5.1 6.7l-6.3 3s-4 4.5-.3 8.2c1.7 1.7 3.2 3 6.6 3 3 0 9.4-3.6 12.1-3s5.5 7.4 7.5 10c2.7 3.5 6.4 6.1 9.1 6.8s8.4.8 8.4.8 0-2.5-.5-3.6-1-2-.4-2.6c.6-.5 2.1 1.9 2.1 4 0 2-.4 7-.5 9.2 0 2.3-.6 6.7 2.4 7.8s5.7-1.2 6.3-2 1.9-2 1.6-2.6-1.9-2.2-3-2.3h-2.5s.4-2.9 1-5c.6-2 1.4-6.8 1.2-9.8s-2.8-6-1.9-7.1 2.1-.2 3.1 2.4c1 2.5 1 4.7.9 6.7 0 1.9-.5 3.7-.5 3.7l5-.3c1.8 0 4.7-.5 4.7-.5s-.7-5.7-.4-8.8c.3-4.2 3-8.4 5.1-10.4s5-4.2 5.4-3-3.9 4-5.7 7-3.6 9.2-1.5 15.5a31 31 0 0 0 8.7 13.3c2.4 1.8 6.5 3 6.3 6.3C84.8 87.9 78 96 76 99s-4.9 6.3-5.4 9c-.5 2.9-.9 5.9 2.8 4.3s8.4-10.7 10.4-13.3 5.4-8.2 7.6-11c2.2-3 3.1-3.2 3-5.2s-4.9-4-6-7-1-10.7 0-13.3c1.3-2.6 2.5-4.4 2.5-4.4s4.4 10.4 7.5 14.4c4 5.4 11.2 9.5 20 10.6 8.7 1.2 10.9.3 7.6-.9-1.3-.4-4.7-1.7-8.1-3.4s-8.3-4.1-12.2-10c-4.4-6.5-6.1-18.7-13.8-28a28 28 0 0 0-32.4-8.6c-9.7 3.9-13 14-18.9 13S33.4 38 33.4 38" style="fill:#d27856"/><path d="M31.4 34.6c1.5 1 5.5-3.5 7.3-6 2.6-3.4 4.1-6.6 3-7.4C40.3 20 37 24.1 35 27c-2.4 3.6-4.6 7-3.6 7.7" style="fill:#ffd2af"/><path d="M21.6 39.3c.1 2-.9 3-2 3.1s-2-1.2-2.1-2.7c-.1-1.4.7-2.6 1.8-2.7 1.1 0 2.2.9 2.3 2.3" style="fill:#010102"/><path d="M5.4 40.7c1 .7 1.2 3.3.8 4.4s-1.5 3.3-2.8 2.8c-.8-.3-2.7-4-2.3-5s3.7-2.6 4.3-2.2m.6 9.6s2-.6 2.7-1.3 1.6-1.4 2.4-1.1 1 1.3-.4 2.4c-1 .8-2.4 1.2-2.4 1.2s-.9 0-1.5-.2q-.8-.4-.8-1" style="fill:#2c302b"/></svg>