<svg xml:space="preserve" width="16" height="16" viewBox="0 0 128 128"><path d="M116 4H12a8 8 0 0 0-8 8v104a8 8 0 0 0 8 8h104a8 8 0 0 0 8-8V12a8 8 0 0 0-8-8" style="fill:#427687"/><path d="M109.7 4H11.5A7.6 7.6 0 0 0 4 11.5v97.9c0 4.2 3.4 7.5 7.5 7.5h98.1c4.2 0 7.5-3.4 7.5-7.5V11.5a7.3 7.3 0 0 0-7.4-7.5" style="fill:#8cafbf"/><path d="m47.4 91-24-24a4 4 0 0 1 0-6l24-24a4 4 0 0 1 6.6 3v14q.2 1.8 2 2h46a4 4 0 0 1 4 4v8a4 4 0 0 1-4 4H56a2 2 0 0 0-2 2v14a4 4 0 0 1-6.6 3" style="fill:#fafafa"/><path d="M39.7 12.9c0-2.3-1.6-3-10.8-2.7-7.7.3-11.5 1.2-13.8 4s-2.9 8.5-3 15.3c0 4.8 0 9.3 2.5 9.3 3.4 0 3.4-7.9 6.2-12.3 5.4-8.7 18.9-10.6 18.9-13.6" style="opacity:.5;fill:#b4e1ed"/></svg>