<svg xml:space="preserve" width="16" height="16" viewBox="0 0 128 128"><path d="M19.4 96.5h8.9v16.8h-8.9z" style="fill:#5a96a8" transform="rotate(45 23.82 104.86)"/><path d="m112.4 34.8-38 38a19 19 0 0 1-9.3 5s-10.9 1.8-15.8 6.7" style="fill:none;stroke:#82aec0;stroke-width:5.9835;stroke-miterlimit:10"/><path d="m28 101.8-1.8-1.8a6 6 0 0 1 0-8.1l17.5-17.5 10 10-17.5 17.4a6 6 0 0 1-8.2 0" style="fill:#82aec0"/><path d="m15.2 122.9-1.2.8c-1.5.8-3-.3-4.1-1.3a18 18 0 0 1-5-6.3q-.3-.8-.2-1.4.2-.6.7-1c1.4-1.4 3-3 4.9-3.3q1.1 0 2.2-.3c1-.3 1.6-1.5 2.6-1.7 1.3-.3 2.5 1.6 3.3 2.4.7.6 2.1 1.5 2 2.7 0 1.4-2.1 2.1-2.4 3.6l-.2 1.8q-.1.9-.8 1.7l-1.4 1.8z" style="fill:#757575"/><path d="m18.4 113.8.8.8.2.2c.2.9-1.6 2-2.3 2.1-1.3 0-2.8-1-3.6-1.9-1.4-1.4-2-3.5-.6-5q.3-.6.9-.6.3 0 .6.4z" style="fill:#424242"/><path d="m78.3 65-.4-.6q-1.5-1.7-3.4-2.9l-3.3-1.7c-3-2.2-4-6.3-6.9-8.7q-1-.7-1.8-1.6c-2.2-2.6 2.2-7 4.8-4.5q.8.8 1.2 1.7c1.1 1.9 2.8 2.2 4.4 3.2q2.8 1.6 4.6 4.4c1.4 2.1 2.3 4.8 4.6 6.1q.9.4 1.6 1c.9 1-.1 2.3-.7 2.9l-1 1c-.7.6-2 1.1-3 .4z" style="fill:#b7855f"/><path d="m93.8 15-38 38a19 19 0 0 0-5 9.4S49 73.3 44 78.2" style="fill:none;stroke:#82aec0;stroke-width:5.9835;stroke-miterlimit:10"/><path d="m71.7 54.5-1.4-1q-1.1-.8-.7-1.8l.3-.9q.6-1.2 2-.7 1.2.8 2.3 1.8c.7.6.7 1.6 0 2l-.6.7q-1 .6-1.9-.1" style="fill:#e6a467"/><path d="m91.7 13-2 2 .2 8.1 5.5-5.2zm19.1 19.1-3.2 3.3c1.4 2.9.6 7.8.6 7.8l6.3-6.2z" style="fill:#2f7889"/><path d="M110.3 34a191 191 0 0 1-18.4-18.6c-2.2-2.6-4.7-7.5-1.4-10.3a5 5 0 0 1 5.1-.7c3.3 1.5 3.2 5.5 5 8.1 1.7 2.2 3.9 4.1 5.8 6l6.7 6.3q1.4 1.5 3.5 2c1.7.5 3.7.7 5 2.1q1 1.1 1.4 2.6a7 7 0 0 1 .3 2.8c-.3 2.5-2.1 3.6-4.4 3.8q-3 .2-8.6-4" style="fill:#b7855f"/><path d="M19 103.3s-1-.5-1.6.1l-3.5 3.5c-.7.6-1.1 1.4-.2 3.2 1 2.1 3 3.7 4.5 4.5 1.6.9 2 1 3.3.2 1.2-.7 3.4-3.2 3.8-3.8s.4-1.7.4-1.7-1 .5-2 .2-4.1-3.6-4.5-4.6-.1-1.6-.1-1.6" style="fill:#757575"/><path d="m95 7.7-.4 2.4q-.2 1.3 0 2.5.1.9-.4 1.6-.7.3-1.4-.2a6 6 0 0 1-1.7-2.4q-.7-1.5-.8-3.1c0-1.2.8-3.1 2-3.5 1.8-.6 3 1 2.8 2.7" style="fill:#e6a467"/><path d="M41.5 80.8c-1-.8-4.3 2.3-8.4 6.4-4 4-6.8 7.3-6 8.1 1 1 4.9-2 9-6.1s7.2-6.8 5.4-8.4" style="fill:#b9e4ea"/></svg>