<svg xml:space="preserve" width="16" height="16" viewBox="0 0 128 128"><radialGradient id="a" cx="60.5" cy="14.8" r="73" gradientUnits="userSpaceOnUse"><stop offset=".5" style="stop-color:#5c727d"/><stop offset=".8" style="stop-color:#484d4f"/></radialGradient><path d="M98 47.4s-5.3-4.3-7-6C87.8 38.2 80.7 31 60.2 31c-14 0-24 4.5-29.6 10.7-4.7 5.2-12 10-12 10l-2 17.7L27 86.1s3 6.9 11.4 8.6c10.6 2.1 11.4-2.5 23-2.2 9.5.2 12.7 3.5 21 2.6s13.4-8.4 14.7-11l10.5-19.6zm-7.3 23.7c-1.2 5.9-3.2 8.1-3.2 8.1l-49.3 2.6s-3.6-5-5.7-9.5a20 20 0 0 1-1.2-13.6c1.5-6 8.2-11.1 8.2-11.1l45.4.1s2.9 1.8 5 7a30 30 0 0 1 .8 16.4" style="fill:url(#a)"/><path d="M66.8 110.5s11-.9 21.2-10.4c15.5-14.6 20-39.7 21.4-50.4 1.6-13-2.2-23.8-2.2-23.8l8.3-2.7s3.7 10.8 2.1 29.4c-1.2 14.6-8.2 40.5-22.6 53.6a57 57 0 0 1-29.3 13.5z" style="fill:#4485f6"/><path d="m107.6 57 3.3.8c2.2.6 6.1 1.5 6.5 2.3.7 1.6-1.5 11-3 11.1-1.7.1-5.3-.8-6.7-1.7-1.4-1-.1-12.6-.1-12.6" style="fill:#484d4f"/><path d="M81.4 103.7s-1.7-1.1-3.2 0c-1.4 1.1-.9 3 0 4.5s3.9 6 4.8 6.7 2.2.9 3 .4c1.6-1 1-2.8 1-2.8s1.5 1.3 3.2.4 1.2-2.9 1.2-2.9 1.7 1 3.3-.2c1.4-1 1-2.6 1-2.6s1.7.6 3.1-1c1.3-1.4.5-3 .5-3s1.3.6 2.4-.7c1.2-1.4.3-3-.3-3.6s-5.3-5.3-7.1-6a2 2 0 0 0-2.4.3c-1.2 1-.3 2.6-.3 2.6s-1.4-1-2.6.1-.4 3-.4 3-1.6-1.5-3-.4c-1.3.8-.6 2.7-.6 2.7s-1.4-1.3-2.9-.2c-1.4 1-.7 2.7-.7 2.7" style="fill:#1664c0"/><path d="M97 8c-.3 1.7 6.3 16.4 6.6 17.1.5 1.3 3.7 4.8 8.9 2.5 4.4-2 3.3-6.8 3.1-7.5-.7-2.7-5.1-16.6-6.8-16.9C107.4 2.9 97.2 6.7 97 8" style="fill:#7fdafb"/><path d="m54.4 107.4.1 13.9c0 1.3.8 2.5 2.4 2.6h9.5q1.6-.2 2-3.2l.1-14.1z" style="fill:#5c727f"/><path d="M47.5 99.6c-.2.2.5 9.5 13.8 9.3s14.3-9 14.2-9.5-27.9 0-28 .2" style="fill:#484d4f"/><path d="M15 55.1s1-7 4.4-10.1c2.5-2.4 5.7-3.3 9.4-3.6s59.9-.2 64.2-.2c5.1.1 9.4 3 11.6 5.6 2.5 3 3.5 9 3.5 10.6s-9.2-9-9.2-9l-17.2-1.7-53.2-.9z" style="fill:#4383f4"/><path d="M33.3 87s4.3 3.2 13.6 2.2c9.2-1 11.8-11.1 11.8-11.1l7.2 2.9s2.3 6 8.6 7.6 12.6-.8 12.6-.8l-14-8.4-6.8-11-9.4-.1-7 11.4-7.7 5.8z" style="fill:#000202"/><path d="M61.5 71.6c-2.4 0-3.3 4.3-4.8 7.5-1.6 3.3-3.7 7.2-2.2 8.5s3 1.2 7 1.3c4 0 6-.2 7-2 1-1.7-1-5-2.2-7.9-1.3-3.2-2.7-7.4-4.8-7.4" style="fill:#5c727d"/><linearGradient id="b" x1="60.6" x2="61" y1="76.7" y2="46.1" gradientUnits="userSpaceOnUse"><stop offset=".2" style="stop-color:#27a0e2"/><stop offset=".4" style="stop-color:#80c7ee;stop-opacity:.8729"/><stop offset=".7" style="stop-color:#fff;stop-opacity:.7"/></linearGradient><path d="M34.4 80.6 22 77.1l-6.6-15.2 5.2-11s13.7-5.1 15-4.9 30.8.1 32.5.2 30.3.6 30.5.9c.3.3 7.9 1.5 7.7 7.8s-1.3 15-1.5 15.8-2.3 7.6-4.2 8-10.5 1-10.5 1L72.8 77 61.6 64.5 52 74.1z" style="opacity:.8;fill:url(#b)"/><path d="m18.3 72.4.6-5s4.3 6.3 8.8 8.5c5 2.4 10.1 3.5 16.9.3 6.1-2.8 8.5-11 11.3-13.8 1-1 2.6-2.2 5.8-2.1 2.1 0 4 .9 4.9 1.7 3.8 3.4 6 11.9 10.5 14.4a18 18 0 0 0 18.1-.4c5.7-3.6 8.3-7.3 8.3-7.3l-.3 7.8-9 9-16.7-2-6.1-6.4-7.1-9s-7.2 0-7.4.2l-6.6 9.8-6.7 6.5s-11 1-12 .2-10-5.5-10-5.5z" style="fill:#1565c4"/><path d="M101.9 47.3a30 30 0 0 0-15-2.7c-6.6.1-55.1-.3-58.1-.2s-6.6 1.2-8.9 2.8c-4.6 3.3-5.9 9.7-6.1 16.8-.3 8.5 4.6 24 22.3 24.1 12.8 0 16.4-8.4 19.6-13.7 1.5-2.4 2.6-5 5.8-5 3.5.2 4.3 2.6 5.4 4.5 3.1 5.6 6.1 14.5 20 14.4 15.6 0 21.5-15 21.8-24.8.3-8.7-3-14.1-6.8-16.2m1.4 16.7c-.5 7.7-4.5 18.6-16 19-11 .5-13.9-6-15.5-8.2s-4.5-6.8-6-8.1c-2.2-1.8-7.3-1.2-8.8 0-1.9 1.7-4 5.2-6.2 8.5-3.8 5.3-6.3 7.5-14 7.8S23 78.8 20.6 71.5c-3-8.7-1.3-16.1 3.6-19.8q3.6-2.4 7-2.6c2.4 0 55.9-.3 61.8.3s10.8 7 10.4 14.6" style="fill:#81d7ff"/></svg>