<svg xml:space="preserve" width="16" height="16" viewBox="0 0 128 128"><radialGradient id="a" cx="63.6" cy="216.9" r="57" gradientTransform="translate(0 -154)" gradientUnits="userSpaceOnUse"><stop offset=".5" style="stop-color:#fde030"/><stop offset=".9" style="stop-color:#f7c02b"/><stop offset="1" style="stop-color:#f4a223"/></radialGradient><path d="M63.6 118.8c-27.9 0-58-17.5-58-55.9S35.7 7 63.6 7c15.5 0 29.8 5.1 40.4 14.4 11.5 10.2 17.6 24.6 17.6 41.5s-6.1 31.2-17.6 41.4a61 61 0 0 1-40.4 14.5" style="fill:url(#a)"/><path d="M111.5 29.7a57 57 0 0 1 8.1 30.2c0 16.9-6.1 31.2-17.6 41.4a61 61 0 0 1-40.4 14.5 59 59 0 0 1-48.2-23 58 58 0 0 0 50.2 26c15.4 0 29.8-5.2 40.4-14.5a54 54 0 0 0 17.6-41.4q-.1-19.2-10.1-33.2" style="fill:#eb8f00"/><path d="M82.7 33.6c3.8 0 7.2 5.7 7.2 15s-3.4 15-7.2 15-7.3-5.6-7.3-15 3.4-15 7.3-15m-37.4 0c-4 0-7.8 5.7-7.8 15s3.7 15 7.8 15S53 58 53 48.6s-3.7-15-7.7-15" style="fill:#422b0d"/><path d="M45 37.3a2.6 2.6 0 0 0-3.5.9c-1 1.2-.8 2.8.2 3.7h.1c1.2.8 2.8.4 3.5-.8l.1-.1a2.6 2.6 0 0 0-.4-3.7m38.2 0a2.6 2.6 0 0 0-3.5.9c-1 1.2-.8 2.8.3 3.7 1.2.8 2.8.4 3.5-.8v-.2c1-1 .8-2.7-.3-3.6" style="fill:#896024"/><path d="M102 71.6a6 6 0 0 0-7-2.6 111 111 0 0 1-31.7 4.4A111 111 0 0 1 31.8 69c-2.7-1-5.8 0-7.2 2.6-1.3 2.5-.4 5.4.8 8A40 40 0 0 0 63.3 102h.1a40 40 0 0 0 37.9-22.6c1.1-2.5 2.1-5.4.8-7.9" style="fill:#422b0d"/><path d="m79.4 98.1-1.2-1a22 22 0 0 0-14.8-5.4A24 24 0 0 0 48 97l-1.1 1-.9 1a47 47 0 0 0 17.3 3.2h.2q8.5 0 16.5-3z" style="fill:#ed7770"/><path d="M95 69a111 111 0 0 1-31.7 4.4A111 111 0 0 1 31.8 69c-2.7-1-5.8 0-7.2 2.6l-.4 1.2 1.1.5c12 6 25.4 9.1 38.8 9a85 85 0 0 0 38.6-8.8q-.2-1-.6-1.9a6 6 0 0 0-7.2-2.6" style="fill:#fff"/><path d="M102.1 71.6A6 6 0 0 0 95 69a111 111 0 0 1-31.6 4.4A111 111 0 0 1 31.8 69c-2.7-1-5.8 0-7.2 2.6-1.3 2.5-.4 5.4.8 8q.7 1.6 1.7 3.2s-2.1-7.7-.3-10q1-1.5 2.8-1.6.8 0 1.4.2 15.7 4.5 32.2 4.6h.3A113 113 0 0 0 97 71.2q1.8 0 2.9 1.6c1.8 2.3-.3 10-.3 10l1.7-3.2c1.2-2.5 2.2-5.4.8-8" style="fill:#eb8f00"/></svg>