<svg xml:space="preserve" width="16" height="16" viewBox="0 0 128 128"><path d="M119 116.6c9.5-10.2 3-17.5.8-19.7L92 69c-4.7-4.6-10-3.8-12.3-6-2.2-2.3.7-6.4-3.3-10.3s-7.3-2-7.3-2-3.6 3-7.3 6.8c-4.3 4.2-10.2 10.6-10.2 10.6s-2 3.3 2 7.4c3.9 3.8 8 1 10.3 3.3 2.2 2.2 1.4 7.6 6 12.2L98 119c2.1 2.1 9.6 8.8 20-1z" style="fill:#f44336"/><ellipse cx="62" cy="61.1" rx="14.8" ry="4.6" style="fill:#ff7555" transform="rotate(-45 62.05 61.12)"/><path d="M112 113.6a2.6 2.6 0 0 0 1.9-4.4L86 81.4a2.5 2.5 0 1 0-3.6 3.6l27.9 27.8q.8.8 1.8.8" style="fill:#ff7555"/><path d="m76.8 90.2 26.4 26.4" style="fill:none;stroke:#c62828;stroke-width:4.0897;stroke-linecap:round;stroke-miterlimit:10"/><path d="m91.2 75.8 26.4 26.4" style="fill:none;stroke:#ff7555;stroke-width:4.0897;stroke-linecap:round;stroke-miterlimit:10"/><path d="M77.7 68.3c.8-8-2.4-3.4-5-.7-9.2 10.1-14 10.1-14 10.1h.2c2.1.2 3.8-.1 5 1 2.2 2.3 1.4 7.7 6 12.3l1.5 1.5c-2.9-9 5.3-14.4 6.3-24.2" style="fill:#c62828"/><path d="M9.2 6 5.6 9.5q-.8 1 .2 1.9l7 9.3 8.3 8.3 35.7 35.7s2.6-.3 5.3-3 2.7-5 2.7-5L29.6 21.8 25.2 14 11.4 5.5c-.7-.4-1.7-.1-2.2.4" style="fill:#94d1e0"/><path d="M15.6 23.2 7.3 11.9 5.8 9.4c-.9.6-.8 2-.3 2.7l8.4 15 8 2.9 35 34.9q.1.1 2.4-1L21.7 26.4z" style="fill:#82aec0"/><path d="m7 10.1 2.7-2.7q1-.8 1.6-.2l11.5 8.1.6.5 2.8 5.7s-4.4 5-4.5 4.9l-6.5-1.8-.3-.2-7.8-12.7q-.7-.9 0-1.6" style="fill:#caf4f9"/></svg>