<svg xml:space="preserve" width="16" height="16" viewBox="0 0 128 128"><path d="M60.8 16.7c1.3.9 3.4-1.8 7-1.5 9 .6 12.3 5.2 13 5.2.5 0 3.3-1.3 4.8-4.6 1.3-2.7.7-6.2.5-6.5-.5-.5-5-6-16.4-5.2-9.6.8-12.4 10.3-8.9 12.6" style="fill:#fe82a5"/><path d="M94.7 30.4c.8.2 3 1.5 4.5 5.8 1.5 4.6 0 12.2 0 12.2s1.5 2.6 6.6 2.3c5-.2 6.6-3 6.6-3s-.7-12.2-6.4-19c-4.6-5.7-11-4.3-12.4-1.7-1 2 .2 3.1 1 3.4" style="fill:#fda3c9"/><path d="M108 69c-.8 1.3.6 5.7-1.3 9.2-2.5 4.7-9.2 5.5-9.5 6.6-.2.4-.5 3.8 1.5 6.8s4.4 3.9 5 4c1.8.1 9.1-3.8 11.8-15.5 2.5-10.4-5.2-14.6-7.5-11" style="fill:#ff82a7"/><path d="M94.3 100.7c-1.6.9-4 6.5-10 9.1-4.9 2.2-7.7 1.8-8.5 1.9s-2 3.5-1.1 7.2a9 9 0 0 0 4.3 5.2c.7.2 11.2-1.8 16.9-10s2.8-15.9-1.6-13.4" style="fill:#fda4c6"/><path d="M53.7 109.2c1.3.6 1.7 3.5-2.4 5.2-13.8 5.7-22.5-7.8-22.4-8.7 0-.5.5-3.4 3.7-6.2 3-2.5 6-2 6.6-1.7s.8 3.5 4.7 7c4.9 4.7 8.3 3.5 9.8 4.4" style="fill:#ff7fad"/><path d="M22.2 89.3c.9 1.1-.1 4.6-5.8 2.8-6.9-2.3-7.8-10.6-7.2-16.8.6-6.1 3.6-10.7 3.9-11.2s3.8-.7 7 .6 5.2 3.7 5 4c-1 1-4.8 4.5-5.7 10.2-1 7 2.1 9.6 2.8 10.4" style="fill:#fea4c7"/><path d="M34.9 17.1c-1 0-8.9 2-13.6 9.8-4.2 6.8-2.4 14 1 13.3 2.7-.6 1.3-6 6.8-9.1 6.3-3.7 9.7-2.5 10.2-2.8s.6-4.4-.3-7.2q-1.7-4-4.1-4" style="fill:#ff7fad"/><path d="M98.3 8c-.3.9 7.2 2.2 13.3 8.4 5.4 5.5 6.8 12 7.4 12s2.7-6.5-5.2-14.3-15.2-7-15.5-6m15 .4c-.5.8 3.4 2.3 5.9 7 2.5 5 2.3 7.3 3.1 7.6s1.6-4.8-.7-9.1c-3-5.6-7.8-6.5-8.3-5.5M6 99.8c-1.3.2 1.3 7.4 6.5 12.7 6.9 7 13.9 8 14 7s-6.3-3.4-11.9-9C9.4 105.2 7.1 99.7 6 99.8m2.5 14.3c-.7.8 1.5 4.5 4.8 6.5 3.8 2.3 7.3 2 7.5 1.2.1-1-3.1-1.5-6.3-3.5-4-2.7-5.1-5.2-6-4.2" style="fill:#c7c7c7"/><path d="M78.4 115.1c-2.5 0-4-.5-4.2-.5a1 1 0 0 1-.6-1.3 1 1 0 0 1 1.2-.6c.1 0 5.8 1.8 12.8-2 6.4-3.7 5.8-8.6 5.8-8.8q0-.8.8-1.1 1 0 1.1.8c0 .3 1 6.5-6.8 10.8-4 2.2-7.5 2.7-10.1 2.7m21.7-63.5-.7-.4a1 1 0 0 1 .1-1.4s3.5-3 2.5-12c-.6-6.3-7.2-8.3-7.5-8.4a1 1 0 0 1 .6-2c.3.2 8.1 2.6 9 10.3 1 10.2-3.2 13.5-3.3 13.7zM21.7 90.2h-.2s-2.9-.3-4.8-2.9q-2.6-3-1.7-8.8A30 30 0 0 1 20.4 64a1 1 0 1 1 1.6 1.3s-3.8 4.6-5 13.6q-.7 4.8 1.2 7.3c1.4 1.8 3.5 2 3.5 2q1 .2 1 1.2-.2.8-1 .9" style="fill:#b3e5ff"/><path d="M84.6 124.9a1 1 0 0 1-.8-.5 1 1 0 0 1 .3-1.3s5.9-4 9.5-10.2c3.3-5.6 1-11.4 1-11.4a1 1 0 0 1 .5-1.3q.9-.3 1.3.5c.2.3 2.8 6.7-1 13.2-4 6.7-10 10.7-10.2 10.8zM115.5 45a1 1 0 0 1-.9-.7c0-.1-4.1-10.1-11.8-14.3-4.5-2.5-8.1-1.2-8.2-1.2a1 1 0 0 1-.6-1.9c.1 0 4.5-1.5 9.7 1.3a33 33 0 0 1 12.8 15.3q.3 1-.6 1.3zM20.1 91.7c-2.2 0-6-.8-9-5.9-4.2-7-4.6-18-4.6-18.4q0-.9 1-1t1 1s.4 10.8 4.3 17.4c3.6 6 8.3 4.8 8.5 4.8a1 1 0 0 1 1.2.7q.3.8-.7 1.2z" style="fill:#ffe269"/><path d="m101.5 96-.7-.3a1 1 0 0 1 0-1.4s6.8-7.2 8.2-14.8c1-5.4-1-8.4-1-8.4a1 1 0 0 1 .3-1.4 1 1 0 0 1 1.4.2c0 .2 2.5 3.7 1.3 10a37 37 0 0 1-8.8 15.8zM60.7 15.7a1 1 0 0 1-1-.7 8 8 0 0 1 1.6-4.3c1.5-2 4.4-4.3 10-4.3 10.1 0 16 6.1 16.3 6.4q.5.7 0 1.4c-.6.7-1 .4-1.5 0 0-.1-5.6-5.8-14.7-5.8h-.1c-8.6 0-9.5 5.9-9.6 6.3q0 .7-.7 1zM22.3 40.3a1 1 0 0 1-1-1c0-.3 0-5.6 4.8-10 6.2-5.9 14.3-3.1 14.7-3a1 1 0 1 1-.7 1.9s-7.3-2.5-12.6 2.5a13 13 0 0 0-4.2 8.6q-.1.9-1 1m21.3 78a36 36 0 0 1-14.4-2.9 1 1 0 0 1-.4-1.3 1 1 0 0 1 1.3-.5s6 2.8 13.9 2.7c7.7-.1 10-5.3 10.1-5.5a1 1 0 0 1 1.3-.5q.9.4.5 1.3c0 .3-2.9 6.6-12 6.7z" style="fill:#50c4fa"/><path d="M112.2 93.8h-.2a1 1 0 0 1-.8-1.3 59 59 0 0 0 1.9-17.3c-.9-5-3.3-5-3.4-5q-.9-.1-1-1 0-1.2.9-1c.2 0 4.3-.2 5.5 6.7a58 58 0 0 1-2 18.1 1 1 0 0 1-.9.8M82.2 21a1 1 0 0 1-.9-.6 15 15 0 0 0-11.7-6.3c-5.4-.5-6.8 1.8-6.8 2a1 1 0 0 1-1.4.3 1 1 0 0 1-.4-1.3c0-.1 1.9-3.6 8.8-3A17 17 0 0 1 83 19.4q.4.9-.3 1.4zM20.4 40.7l-.6-.2c-.6-.5-3.8-5.3-.7-13.8s7.8-11 8-11.1a1 1 0 0 1 .9 1.8s-4.3 2.2-7 10c-2.7 7.3 0 11.3.1 11.6q.5.6 0 1.3zm26.5 72.7q-2.2 0-5.2-.5a25 25 0 0 1-13.3-7.8 1 1 0 1 1 1.5-1.3c0 .1 5 5.9 12.1 7.2 9.3 1.6 11.5-1.6 11.5-1.7a1 1 0 0 1 1.4-.3q.8.5.3 1.4c-.2.3-2 3-8.3 3" style="fill:#ffb803"/><path d="M61.5 14c-1.5 0-6.7 23-6.7 23l8.4 2.8 7.6-2.9S63 14.1 61.5 14" style="fill:#2086fd"/><path d="M21.2 39c-.6 1.2 15 18 15 18l8.5-6.7-.2-6.4s-22.6-6.2-23.3-5" style="fill:#02a945"/><path d="M50.7 86s.4 25 2.1 25.4c1.9.4 15-20.1 14.3-20.5l-7.8-4z" style="fill:#004fad"/><path d="M69.3 86.5c0 .2 24.2 15.8 25.6 15 1.3-.8-11-27.9-11-27.9l-10.6 1.6z" style="fill:#ff8e00"/><path d="M86.1 74.5c.4 0 24-3 24.4-4.6.3-1.7-22.5-12.5-22.5-12.5l-1.6 10.8" style="fill:#be66cc"/><path d="M70.8 42s23.4-15 25-14.2c1.5.8-12.1 29.7-12.1 29.7s-13.4-4.8-13.5-5 .6-10.4.6-10.4" style="fill:#ffb803"/><path d="M50 42c0-.3.3-2 1.2-2.8s2.5-.2 2.5-.2.3-2.5 2-2.7c1.6-.1 2.2 1 3 1s.7-2 2.7-2c1.4-.2 1.9 1.2 2.5 1 .7 0 1.3-1.8 3-1.4 1.5.3 1.6 1.5 2.5 1.7 1 .3 1.9-1.1 3.5 0 .9.7 1 3.5 1 3.5l-5.5 3.6L53 46.3z" style="fill:#fdcbba"/><path d="M52.9 47.7s1-3.5-.4-5.2-3.6-2.2-5-1.2c-1 .6-1.4 1.9-1.4 1.9s-1.8-.4-2.9 1-.3 2.4-.7 3.3c-.3.6-2-.9-3.3 1.2-1.2 2 .2 3.6 0 4-.7 1.2-4.7.5-4.4 5.7.2 4.8 5.2 4 5.2 4l5.1-2.2z" style="fill:#b1de7d"/><path d="M52 80.2s-3.6 1.9-4 2.6-.8 2 .4 3.2c1.2 1 3.5.5 4.9 1.5s1.9 3.4 4.4 3.8c2.4.5 3.4-1.3 4.8-1s2.5 1.7 4.3 1.3 3-2.7 3-2.8c-.1-.2-3-4.9-4.1-5.2z" style="fill:#4cc1f7"/><path d="M83.6 56.3c0-.2 3.1-3 5.2-.8 2 2-.7 4.2-.7 4.2s1.1 1.3 1 2.5c0 1.3-1.2 2.2-1.2 2.8 0 .7 1 1 1 2.7-.1 1.6-1.7 1.8-1.6 2.8s1.5 3.4.2 5.3c-.7 1.1-2 1.3-2 1.3l-2.2-4.5-5-9.3c0-.2 5.3-7 5.3-7" style="fill:#ff77ad"/><path d="M66 43.2s-10.4-1.5-17 5a22 22 0 0 0-6.2 19.2c.4 2.7 3.9 3.4 5.3 6 2.1 3.8 3 8 6.4 9.4 5 2 10 2 11.3 1.8.4-.1 7.1-8.6 8.2-9.2 3.1-1.9 3.7-1.5 5-3.8q2-3.2 2-7.4t-.5-6.7c-1-5.3-2.4-3.3-6.1-5.7-2.3-1.5-7.3-8.4-8.5-8.6" style="fill:#0386d9"/><path d="M70 39.6c-1.6 0-2 1.4-2 1.4s-4-1-4.8 2.8S65 49 65 49s-.8 3.3 1 5.3 3.3 2.1 3.3 2.1.8 3.2 3.4 4.5 4.5.4 4.5.4 2 1.8 4 1.3 2.5-2 2.5-2 3.7 0 3.5-3.2c-.1-3.2-3.5-2.8-3.5-2.8s-1.3-1.3-2.7-1.8-3.3-.1-4.5-1.3c-1-1-.6-2.5-1.7-3.6s-2.5-2-2.5-4.4c0-2.3-.5-3.9-2.2-3.9" style="fill:#fff6e2"/><path d="M71.6 88.2s-1.7 2.2-4.5 1.1c-2.3-.9-2.1-3.6-2.1-3.6s-3.4-.2-2.9-2.7c.5-2.4 2-1.6 2.2-2.8s-.3-2.4.6-3.5 2-.6 3-2c.8-1.3.3-2.6 1.5-3.4 1.3-.9 2.1-.3 3.1-1.2s1-2.3 2.5-2.8 2 .2 3.2 0c1.1 0 3-1.4 5-.1 2.2 1.3.9 4.2 1.1 4.8.4 1 1 1 1.1 1.9.2 1-.4 2.1-.4 2.1s-1-1.3-2.7-.6-1.7 1.5-2.8 1.8c-1 .2-3.7-1-5.3.7-1.7 1.7-.8 3.8-1.5 5.5s-1.6 1.9-1.6 2.7.5 2 .5 2" style="fill:#ffcabe"/><path d="m61.4 57.5 3.3.2 1.4 6-3.3.3s-.6-1.6-1-3.6zm-15.6-.3s.7-1.6 1.8-3c.7-1 2.2-2.1 2.2-2.1l2.6 2.1-2 2.4c-.5.8-1.2 2.5-1.2 2.5zm15 15.8c0 .2-.3 1.8-.8 3l-1.1 2.5 2.7.8s.9-1 1.7-2.9l1-3.2c0-.2-3.5-.2-3.5-.2" style="fill:#4cc1f7"/><path d="m59.4 67.4.2 4s2.1-.3 3.5-1c1.5-.7 2.7-1.5 2.7-1.5l-2.2-3.2s-1 .8-1.8 1.2c-1.2.6-2.4.5-2.4.5M59 44.7l-1.7 4.8s1 .4 2 .4q1.6-.1 1.7-.3c.1-.2.6-3.2.5-3.5S59 44.7 59 44.7" style="fill:#ffb803"/><path d="m56 53.5.3 3.7 6-2.6-1.9-3zm-2.2 5.8s0 2 .8 3.8l1.4 3.1 2.9-3.4-1.2-3.3zM68 63.5l3.3-2 1.8 5.5s-2.7.8-3.6.7z" style="fill:#004fad"/><path d="M54.3 52.8c-.4-.3-8.5-8.3-9.9-22.3A60 60 0 0 1 47.7 6l2.8 1c0 .2-4.3 11.5-3.1 23.2A36 36 0 0 0 56.7 51z" style="fill:#c8c7cc"/><path d="M39 68.1s-19.5 20-18.4 22.3c.8 1.5 29.6-7.5 29.6-7.5l1.3-13.2-9.4-3.9z" style="fill:#e63934"/><path d="M36.8 70.5s-1.3-2-.6-3.6 2.2-1.6 2.2-1.6-2-4.3 1.6-5.1c3.4-.8 3.3 1.3 4.4 1.7s2.7-.3 4 .5c1.5 1 1.2 2.3 2.2 3.3s2.8 1 3.7 2 .3 2.6 1.1 3.8 2.5 1.3 2.5 3.3-1 3.3-1 4.1c-.2.8 2 5.1-2.6 6s-4.8-3.3-5.4-4c-.6-.6-1.4-1.4-1.3-2.8s1.1-2.8.1-3.9c-1-1-2-.3-2.8-1.6s-1.1-3.2-3.3-3.7c-2.8-.6-4.8 1.5-4.8 1.5" style="fill:#fd7ba6"/></svg>