<svg xml:space="preserve" width="16" height="16" viewBox="0 0 128 128"><path d="M109.5 57a600 600 0 0 0-36.2 3 591 591 0 0 0 27.8-23.3c6.2-6.2 4-10.3 2.2-12.1-3.1-3.1-7.6-2.4-12.2 2.2a585 585 0 0 0-23.4 27.6C69.6 38.2 71 21 71 18.3c0-8.9-4.4-10.2-7-10.2s-7.1 1.3-7.1 10.2a600 600 0 0 0 3 36.2c-9.9-12.6-21-25.6-23-27.6-4.6-4.7-9-5.3-12.1-2.2a6 6 0 0 0-1.4 6.9q.9 2.5 3.6 5.2a585 585 0 0 0 27.6 23.4 600 600 0 0 0-36-3.2c-8.9 0-10.1 4.3-10.1 7 0 2.6 1.3 7 10.2 7a600 600 0 0 0 36.2-3c-13 10-25.9 21.3-28 23.2q-2.7 2.7-3.5 5.2-1.5 3.9 1.4 7 1.8 1.9 4.4 1.9 3.5 0 7.7-4.2a585 585 0 0 0 23.4-27.6 600 600 0 0 0-3.1 36c0 9 4.4 10.3 7 10.3s7-1.3 7-10.2a600 600 0 0 0-3-36.2 591 591 0 0 0 23.3 27.7q4.1 4.2 7.8 4.2 2.4 0 4.4-2c1.8-1.8 4-5.9-2.2-12.1a585 585 0 0 0-27.7-23.4c16.2 1.8 33.3 3.1 36.1 3.1 8.9 0 10.2-4.4 10.2-7s-1.6-7-10.5-7" style="fill:#7cb342"/><path d="M66.5 12.4c-.6-1.5-2.7-1.5-4.8-.4-1.6.8-3.1 2.7-2 4.2s2.7-.5 4.2-1.4c1.4-1 3.2-1.1 2.6-2.5M32 26c-.6-1.4-2.7-1.4-4.8-.4-1.6 1-3.2 2.8-2 4.2 1 1.5 2.7-.4 4.1-1.3 1.5-1 3.2-1.1 2.7-2.5m69.1-.3c-.6-1.4-2.7-1.4-4.7-.4-1.7 1-3.2 2.8-2.1 4.2s2.7-.4 4.2-1.3 3.2-1.1 2.6-2.5" style="opacity:.3;fill:#fff"/></svg>