<svg xml:space="preserve" width="16" height="16" viewBox="0 0 128 128"><path d="M116 4H12a8 8 0 0 0-8 8v104a8 8 0 0 0 8 8h104a8 8 0 0 0 8-8V12a8 8 0 0 0-8-8" style="fill:#427687"/><path d="M109.7 4H11.5A7.6 7.6 0 0 0 4 11.5v97.9c0 4.1 3.3 7.5 7.5 7.5h98.1c4.1 0 7.5-3.3 7.5-7.5V11.5c0-4-3.1-7.4-7.2-7.5z" style="fill:#8cafbf"/><path d="M51.5 94v-.5a2 2 0 0 0-2-2h-23l-7.5.2a2 2 0 0 1-2.1-1.9v-5.4c0-1.1 1-2 2.1-2l7.1.3h23.5a2 2 0 0 0 2-2V46.9a2 2 0 0 0-2-2H27.2l-7.2.2c-1 0-2-.8-2-1.9V38q.2-1.8 2-2h.1l7.1.3H54l4.2-.1c1 0 2 .8 2 1.9v.1l-.1 5V87l.2 6.9a2 2 0 0 1-1.9 2.1h-5.1a2 2 0 0 1-1.8-2m48.6 0v-.5a2 2 0 0 0-2-2h-23l-7.5.2a2 2 0 0 1-2.1-1.9v-5.4c0-1.1 1-2 2.1-2l7.1.3h23.5a2 2 0 0 0 2-2V46.9a2 2 0 0 0-2-2H75.7l-7.2.2a2 2 0 0 1-2.1-1.9V38q.2-1.8 2-2h.1l7.1.3h26.9l4.2-.1c1 0 2 .8 2 1.9v.1l-.1 5V87l.2 6.9a2 2 0 0 1-1.9 2.1h-5a2 2 0 0 1-1.8-2" style="fill:#fafafa"/><path d="M39.7 12.9c0-2.3-1.6-3-10.8-2.7-7.7.3-11.5 1.2-13.8 4s-2.9 8.5-3 15.3c0 4.8 0 9.3 2.5 9.3 3.4 0 3.4-7.9 6.2-12.3 5.4-8.7 18.9-10.6 18.9-13.6" style="opacity:.5;fill:#b4e1ed"/></svg>