<svg xml:space="preserve" width="16" height="16" viewBox="0 0 128 128"><path d="m71 64 4.8-9.4L86.3 41l13.5-9.9 13.5-6.2 7.3-.2 1.8 2.8-3 14.3-5 21-3.1 5-7.3 4-7.5 1.2 7.6 3.5 5.7 4.4 3.2 4.5v6l-2.8 8-8.5 6.7-5.2 2-8.2-2-1.8-2.1-3.9-6.2-2.7-9.3-5.5-2.8-5.3 2.9 2 12.4-.5 4-.7 2.8-2 4-5 2.9-7.2.1-9.3-2.5-5.5-4.2-3.4-5.7.9-7.4 9.5-12.3-8 3-10.3.3-8.4-9.2-13-21L5 46.5l2.7-2.8h7.7L32 46.4l18.2 7.2 13 7.4z" style="fill:#41484a"/><path d="M67 46.3s1.2-11.7 2.5-16.2c1.9-6.4 7-11.5 11.4-12s3.8 2.9 1.2 4.3-5.4.5-5.4.5-3.6 2.7-4.8 8c-1.4 6.4-2.5 16.3-2.5 16.3zm-3.8.7s-4.8-9.7-10-15.8c-5.1-6.1-11.7-6.3-12.6-6.4-.9 0-4.8.5-4.8 2.4 0 2.4 3.4 2.9 5.4 2.5 2.2-.4 3.3-1.8 3.3-1.8s4.2 1.7 7 5c3.2 4 9.2 15.6 9.2 15.6l.4 1.6z" style="fill:#676f72"/><path d="M54.8 93.7c-1.7-.9-7 4-7 6.5 0 1.6 1.1 4.2 3.5 3.5s5.8-8.9 3.5-10m-9.4 0c2.3 2 6-2 7.6-4.5 2-3.1 3-10.8 2.4-10.6S47.8 84 47.8 84s-5.3 7.1-2.4 9.7m10.7 9.6c0 2.4 2.7 4.2 5.4 3.8 1.4-.3 3.9-1.6 3.6-3.8-.3-2.6-1.4-6.4-4-6.8-2.7-.4-5 2.7-5 6.8M71 84l-4.5 9.5c-1.1 2.7-1.1 9.4 1.9 10.5 2 .7 2.6-3 2.6-3l.4-10.2c0-2.5-.4-6.9-.4-6.9m2.9-8.8s7 8.2 9.1 9.7c2.1 1.6 5.8 6 10.6 2.7s-8.2-14-9.3-15c-1.2-.8-11.3-.9-11.3-.9zm2.5 7.9 5.9 5.5c2.1 2.1 4.5 4 5.5 7 .5 1.7 1.4 4.3-.4 5.2-1.6.8-3.4-1.4-4.1-2A94 94 0 0 1 76.4 83m14.3 8.5c-1 1.5.4 6.7 1.9 7.7 2.8 1.8 6.2-1.4 6.2-3 0-1.5-5.7-8-8-4.7M89 72s6.1 9.7 9.5 11.7 6 1.7 7 0c2.3-4-7.4-9.3-7.4-9.3zm7.7 15.2c-.9 1.8 2.6 7.2 5 7.2s3.3-3.4 3.1-4.5c-.3-2-6.7-5.8-8.1-2.7M61.6 75.4s-6.5 10.7-4.5 16c1.6 4 5.8 3.3 9.4-3.6S71 76.5 71 76.5l-1.1-4z" style="fill:#ff8b03"/><path d="M64 60.3s-5.8-5.2-17.5-10.1-22-8-31.4-7.9-10.7 2.3-11 4c-.5 1.6 1.2 7 3 10.2 2.3 4 10.7 17.6 13.7 21.8 2.5 3.7 4.3 7.7 9.8 9 6.2 1.5 13.7-1.6 13.7-1.6S37 92.2 36.7 99q-.6 10.5 10.8 14.5c11.4 4 18.7 4.8 22.3-3.6 1-2.5.8-5 .8-5s-2.5 7.4-6.5 8c-3 .6-2.6-1.2-5.5-1.5-2.8-.3-2.4 1.9-5.3 1.9-2.3 0-1.6-1.9-4-3.1s-3.7.7-5.2-.5c-2.4-2-.1-3-1-4.5s-3.4-2-3.9-4c-1-3.4 1-6.1 3.1-9.2s6-7.6 8.9-9.7 17.5-9 17.5-9 .8-2.7-.3-2.5c-1.2 0-14.4 7.1-16.8 8.7s-12.7 6.9-20.3 5.2C27 83.7 19.1 69.8 16 65.5s-8.7-15-8.2-18c.4-2.8 5.2-3.4 12.5-2.5s13.8 3 23 6.9S62.7 62.7 64 62.7s0-2.4 0-2.4m8.6 1.7s-1.1-2.7.8-6 8.3-13 14.8-18.8c6.5-5.7 28.3-17.7 33.2-14.2s-.4 17.4-1.5 22.1c-1 4.2-2.3 17.4-7 23-3.8 4.3-11.8 5.7-11.8 5.7s13 6.3 13.6 14.4c.7 10-11 21.4-19.7 21.1-6.8-.2-8.5-5.3-8.5-5.3s6.2 3.5 8.7 2.8c2.6-.7.7-3.1 3.1-4.5s4.4 2.2 6.2.6c1.9-1.7.4-3.3 1.7-5s3.1 0 4.2-1.5c1.2-1.6 0-3.7.6-5.1s1.7-1.7 1.5-3.8-4-7-9-9.4-10.2-3.5-14.6-4.4c-4.4-.8-15.6-1.6-15.6-1.6s-1-2.3-.5-2.2q1.8.3 8.2.6c8.6.2 22.3 2.2 28.3-2.6s7-18.3 7.6-21.8 6-19 2.8-20.5c-3-1.6-18.3 4.6-26.7 11S78.6 52 76.8 55.6C75 59.5 72.6 62 72.6 62" style="fill:#676f72"/><path d="M72.4 58.7c.8-1 2-2 1.4-7-.5-5.8-5.4-7.2-9.3-6.4C61.4 46 57 49 59.3 56c2.2 6.4 9.3 4.4 9.3 4.4s3-.7 3.8-1.7" style="fill:#41484a"/><ellipse cx="95.1" cy="38.2" rx="2.8" ry="2.2" style="fill:#fcfdfa" transform="rotate(-33.7 95.1 38.23)"/><path d="M117.2 41.5c-.6-1-2-1.3-3.2-.3-.8.6-1.4 2.2-.7 3.2s2.1 1.2 3 .4c1.3-1 1.5-2.4 1-3.3m-13-6.4c-.6-1-2.4-1-3.7-.2s-2.2 2.4-1.2 3.9c.7 1 2.3 1 3.9.1a3 3 0 0 0 1-3.8m16.9-9.1c0 1.1-.7 2.2-2.2 2q-2-.1-2-2.2c0-1 1.1-1.7 2.2-1.7s2 .9 2 2m-1.7 8.5c0 1.1-1 2-2.1 2q-1.8 0-2-2.2.2-1.7 2.2-1.9c1 0 2 1 2 2.1" style="fill:#fcfdfa"/><circle cx="113.8" cy="53.7" r="2.1" style="fill:#fcfdfa"/><circle cx="20.7" cy="72.3" r="1.9" style="fill:#fcfdfa"/><path d="M10 46c.8 1 .2 2.3-.9 3.2-1 .8-2.4.8-3.1 0q-1-1.7.6-3.2c1-.8 2.6-1.1 3.4 0m6.7 14.9c1.5.3 1.8 1.5 1.7 2.7s-1.3 2-2.5 1.9-2-1.3-1.8-2.5 1.2-2.4 2.6-2.1m-4.2-7.1c1 1 .6 2.3-.2 3.2s-2.2 1-3 .2c-1-.8-1-2.2-.2-3.1q1.5-1.7 3.4-.3m17.3-4.2c1 .8.7 2.1 0 3.2s-2.1 1.4-3 .8-1-2-.2-3c.7-1.1 2.1-1.8 3.2-1m-3.2-.6c0 1.3-1.4 1.9-2.7 1.9s-2.4-.9-2.4-2c0-1 1-2 2.4-2s2.7.7 2.7 2m17.3 50.3c0 1.2-.8 2.2-2 2.2a2.2 2.2 0 0 1 0-4.5q1.9.2 2 2.3m3.7 7.8c-.8 1-2.4.9-3.3.2s-.8-2 0-3 2-1.2 3-.5c.7.7 1 2.4.3 3.4" style="fill:#fcfdfa"/><ellipse cx="107.5" cy="93.8" rx="2.1" ry="1.8" style="fill:#fcfdfa" transform="rotate(-34 107.47 93.77)"/><ellipse cx="109.8" cy="87.1" rx="2.1" ry="2" style="fill:#fcfdfa" transform="rotate(-34 109.79 87.15)"/><path d="M95.2 43.5q-5.1-2.4-11.3 6.4c-4 5.9-6.3 10-4.6 11.5s10-6.1 11.8-7.5c2.5-2 8-8.8 4.1-10.4m-7 16.5c2.3-1.3 9-.7 12.7-1 2.5 0 6 .3 6.1 1.6.2 2.5-.7 4-4 5.2a69 69 0 0 1-15.4 1.4c-2.8 0-5.4.4-5.7-1-.2-.7 2.1-3.9 6.3-6.2m11-11c2.2.3 9.1.1 11.1-1.4 1.2-.9 1.9-4.8 0-5.6-1.9-.9-7.2-.7-9.3 1-1.2.9-3.6 5.6-1.8 6m10.3-17.7c-.4 2.2 3.2 2.1 4.8 1.7s3.7-3 2.7-4.3c-1-1.4-7-.3-7.5 2.6m-2.5 5.4q0 2.3 3 2.3c1.9 0 3.1-1.2 3.1-2.4 0-1.7-1.6-2.4-3.6-2q-2.6.4-2.7 2.2M94.4 56.2c0 1.2 3.3.8 8.2.8s6-.7 6.6-2.6.4-3.1-2.5-3.2c-3-.1-8.7.2-10.4 1.4-.7.5-2 2.6-2 3.6M29.1 75.6c-.2 2.1 1.7 4.9 7.3 4.4s12.4-3.8 14.1-4.6c3.3-1.5 6.3-2.7 6.3-4.2 0-1.7-3.7-2.3-8.8-2.8-5-.4-8.8.5-13 2.9q-5.6 2.9-5.9 4.3m-5.5-7.4c-.2 1.3 2 4.4 3.4 4.5s8.8-3.9 9-5.2-1.7-3.4-3.2-3.7-9 3-9.2 4.4m9.2-14.4c-2.3 2.3.4 6.5 5.3 9 4.8 2.4 12.6 3 15.7 3.5s5.4.6 5.8-.4c1-2-6.4-5.7-13.4-9-4.3-2-11.6-4.9-13.4-3m-22.1-4.7c.3 2.8 7.8 2.1 8-.7 0-2.7-8.2-2.1-8 .7m4.9 6.6c1.2 2 6 .2 4.4-2.4-1.5-2.4-6-.4-4.4 2.4m5.3 7.8c.7 1.3 3.3 1.2 5.7 0 1.6-.7 3.7-2.2 3.3-4-.5-2.1-4.3-2.4-6.9-1.2-1.8.9-3.7 2.5-2.1 5.2" style="fill:#ff8b03"/><path d="M74 71.2 67.9 73l2.7 11.5c.7 3.3 5.7 27.2 9.5 26.6 4-.7-2.6-25.4-3.3-28z" style="fill:#676f72"/><path d="M73.4 82.5a6 6 0 0 0 2.9-1.5l1.2 5.3s-.9.9-2.7 1.3c-2 .5-3.6 0-3.6 0L70 82.5s1.5.5 3.4.1M67.8 73l6.3-1.8.9 4.3s-1.7.8-3 1c-1.3.3-3.3.4-3.3.4zm4.5 19.5s1.8.2 3.4-.1 3-1.4 3-1.4l1 4.6s-1.5 1.1-3 1.4c-1.4.2-3.2 0-3.2 0z" style="fill:#41484a"/><path d="M67.2 56.7q-3.5.9-4 4.3c0 3.1.7 5 1.5 8 .5 1.8 1.2 6.1 6.9 4.7 4-1 3.5-4.6 3.4-7.3s-.7-6.2-1.7-7.8a6 6 0 0 0-6-2m5.2-9.2c1 1.3 1 3-.2 3.9-1.1.7-3 .2-3.9-1.1s-.6-3 .5-3.7 2.8-.4 3.6 1m-9.2 4.1c-.4 1.5-1.9 2.6-3.2 2.2s-2-2-1.6-3.5 1.8-2.5 3.2-2 2 1.8 1.6 3.3" style="fill:#303031"/></svg>