<svg xml:space="preserve" width="16" height="16" viewBox="0 0 128 128"><linearGradient id="a" x1="71.3" x2="87.8" y1="36.7" y2="40.6" gradientUnits="userSpaceOnUse"><stop offset="0" style="stop-color:#0091ea"/><stop offset="1" style="stop-color:#01579b"/></linearGradient><path d="M61.3 37.9a189 189 0 0 1 32-9.4c2-2.3 5-3.2 6.7-5q-4.8-.3-10.5.8c-9 1.6-19.4 5.4-29.5 9.1-16.2 6-31.5 11.8-40.7 8a10 10 0 0 1-6.5-6.7c-3.4-9.6 6.5-21.8 15.6-24 17.9-4.4 20.8 13 20.8 13s1.2-.5.8-4c-.7-6.6-4.7-15.4-20.6-14C17 7 4.6 22 8 35.5a15 15 0 0 0 7.5 10C25.8 51 43 44.7 61.3 38" style="fill:url(#a)"/><path d="M121.2 6.5c-2.7-2.6-6.6-3.2-12-.1q-4.9 3-12 10.5a7302 7302 0 0 0-91 101.8c-2.4 2.6-2.5 4.2-2 4.8s2 .4 4.8-2c19.2-16 93-81.1 102.3-90.4 4.1-4.2 7.7-7.9 9.2-9.7 5.1-6.1 4-11.8.7-14.9M96.8 36.4c-1.4 1.4-3 2.2-4.3 1s-1-3.3.4-4.8L110.7 15c1.4-1.5 3.5-1.6 4.7-.4s.6 2.7-.8 4.1z" style="fill:#bdbdbd"/><path d="M100.2 18A49 49 0 0 1 113 7c6.1-2.8 9.1.4 8.8.1-2.6-2.8-6.3-4.1-12-1A57 57 0 0 0 97 17c-8.1 8.6-74.5 82.7-91 101.8-2.3 2.6-2.5 4.4-1.7 4.8C21.1 104.5 92 26.8 100.1 18.2" style="opacity:.75;fill:#b9e4ea"/><linearGradient id="b" x1="102.2" x2="110.8" y1="24.4" y2="32.4" gradientUnits="userSpaceOnUse"><stop offset=".2" style="stop-color:#2f7889"/><stop offset=".8" style="stop-color:#2f7889"/></linearGradient><path d="M118 13.2q-3.8-2.2-7.4 1.5l.5-.2c1.4-1.1 3.3-1.2 4.4 0s.5 2.7-.9 4.1L97 36.4c-1.5 1.4-3.1 2.1-4.3 1-1.2-1.3-1-3.4.4-4.8l.5-.6s-6.1 4-2.1 8.2c2 2.1 5.8 1 7.3-.6l19-19.5c1.5-1.6 2.8-5.3.3-6.9" style="fill:url(#b)"/><linearGradient id="c" x1="74.3" x2="74.1" y1="36.7" y2="20.4" gradientUnits="userSpaceOnUse"><stop offset="0" style="stop-color:#0091ea"/><stop offset="1" style="stop-color:#01579b"/></linearGradient><path d="M115 28.9c-5.2-5.3-13.2-5.3-13.2-5.3l-4.7 4.7c7-.4 11.2 1.2 14.8 4.8a18 18 0 0 1 4.8 14.9c-3.5 24.2-36.1 28.3-36.5 28.3-28.8 3.3-44.5-8.5-53-20.2 0 0-1 6.5 5.2 12.1 8 7.3 19.5 13.6 38.4 13.6q5 0 10.9-.6c13-1.5 36.6-9 39.9-32a25 25 0 0 0-6.6-20.3" style="fill:url(#c)"/></svg>