<svg xmlns:xlink="http://www.w3.org/1999/xlink" xml:space="preserve" width="16" height="16" viewBox="0 0 128 128"><linearGradient id="a" x1="64" x2="64" y1="63.9" y2="14.8" gradientTransform="matrix(1 0 0 -1 0 130)" gradientUnits="userSpaceOnUse"><stop offset="0" style="stop-color:#787676"/><stop offset=".2" style="stop-color:#6b6969"/><stop offset=".5" style="stop-color:#494747"/><stop offset=".9" style="stop-color:#111010"/><stop offset="1" style="stop-color:#070606"/></linearGradient><path d="M4 74.8s24-9 60-8.8c17.6 0 37.3 3 60 8.8 0 0-23.4 45.4-60 45.4S8 83.8 4 74.8" style="fill:url(#a)"/><linearGradient id="b" x1="64" x2="64" y1="64" y2="18.6" gradientTransform="matrix(1 0 0 -1 0 130)" gradientUnits="userSpaceOnUse"><stop offset="0" style="stop-color:#f70000"/><stop offset=".2" style="stop-color:#f30000"/><stop offset=".4" style="stop-color:#e90000"/><stop offset=".6" style="stop-color:#d60000"/><stop offset=".8" style="stop-color:#bd0000"/><stop offset="1" style="stop-color:#a00000"/></linearGradient><path d="M4 74.8s52.7-19.9 120 0c0 0-23.6 37-60.2 37S8 82.6 4 74.8" style="fill:url(#b)"/><path d="M99 80c-1-2-.2-4 3.1-7.4a24 24 0 0 0 4-26l-2-1.8-22 .1H24l-2.7 1.8v.1A25 25 0 0 0 26 72.6c2.7 2.9 4.2 5 3 7.4a4 4 0 0 1-2.6 2.1l-2.2.5 1.2 1.8a5 5 0 0 0 1.7 1.6 12 12 0 0 0 5.7 1.5q.3 0 .8.6c5 5.6 9 7.4 21.4 7.9h18c12.5-.4 16.5-2.2 21.6-7.9q.5-.6.8-.6A12 12 0 0 0 101 86q1-.6 1.7-1.7l1.2-1.8-2.2-.5q-1.7-.2-2.7-2" style="fill:#543930"/><radialGradient id="c" cx="99.7" cy="43.4" r="23.6" gradientTransform="matrix(1 0 0 .491 -21.2 62.3)" gradientUnits="userSpaceOnUse"><stop offset=".7" style="stop-color:#6d4c41;stop-opacity:0"/><stop offset="1" style="stop-color:#6d4c41"/></radialGradient><path d="M64 95.8v-9.4L92.6 84s2.9 1.4 2.2 3.7C92.6 89.5 89 97.2 73 96z" style="fill:url(#c)"/><radialGradient id="d" cx="101.8" cy="43.4" r="23.4" gradientTransform="matrix(-1 0 0 .491 151.39 62.3)" gradientUnits="userSpaceOnUse"><stop offset=".7" style="stop-color:#6d4c41;stop-opacity:0"/><stop offset="1" style="stop-color:#6d4c41"/></radialGradient><path d="M64 95.8v-9.4L35.4 84s-2.7 1.4-2 3.7c2.8 2.7 5.5 8.1 21.7 8.2z" style="fill:url(#d)"/><radialGradient id="e" cx="77.9" cy="51.9" r="6.9" gradientTransform="rotate(155 85.37 61.35)scale(1 .742)" gradientUnits="userSpaceOnUse"><stop offset=".7" style="stop-color:#6d4c41"/><stop offset="1" style="stop-color:#6d4c41;stop-opacity:0"/></radialGradient><path d="M95.3 83.4c-4.3-6.5 5.2-9 5.2-9-2 2.7-2.3 4-1.5 5.6 1.1 2 2.4 2.1 3.6 2.3l1.3.3s-5 4.3-8.6.8" style="fill:url(#e)"/><radialGradient id="f" cx="92.2" cy="63.3" r="26" gradientTransform="rotate(-94.3 95.65 60.62)scale(1 .833)" gradientUnits="userSpaceOnUse"><stop offset=".7" style="stop-color:#6d4c41;stop-opacity:0"/><stop offset="1" style="stop-color:#6d4c41"/></radialGradient><path d="M106.6 46.7c4.3 10.3.1 21.1-4.3 25.7-.6.7-13.2-8.6-16-16.5q-1-2.2-1.2-4.8-.2-2.1.9-3.9a111 111 0 0 1 20.1-1.7z" style="fill:url(#f)"/><radialGradient id="g" cx="43.6" cy="61.7" r="26.6" gradientTransform="rotate(94.3 -8.96 99.6)scale(-1 .833)" gradientUnits="userSpaceOnUse"><stop offset=".7" style="stop-color:#6d4c41;stop-opacity:0"/><stop offset="1" style="stop-color:#6d4c41"/></radialGradient><path d="M21.4 46.7a26 26 0 0 0 4.7 25.9c3.3 3.3 12.8-8.8 15.7-16.6q.9-2.4 1.1-5 .1-2-.8-3.8c-1-1.3-2-1-3.5-1-2.8 0-15.5-.7-16.4-.7z" style="fill:url(#g)"/><radialGradient id="h" cx="26.1" cy="50" r="6.6" gradientTransform="rotate(205 4.9 52.53)scale(-1 .742)" gradientUnits="userSpaceOnUse"><stop offset=".7" style="stop-color:#6d4c41"/><stop offset="1" style="stop-color:#6d4c41;stop-opacity:0"/></radialGradient><path d="M33 83.4c4.2-6.5-4.3-7.6-4.3-7.6s1.5 2.2.4 4.3c-1 2.2-4.8 2.5-4.8 2.5s5 4.3 8.6.8" style="fill:url(#h)"/><radialGradient id="i" cx="65.1" cy="6.2" r="60.4" gradientTransform="matrix(1 0 0 -.508 0 126.93)" gradientUnits="userSpaceOnUse"><stop offset=".6" style="stop-color:#212121"/><stop offset="1" style="stop-color:#616161"/></radialGradient><path d="M64.1 96c-25.6 0-52 7.1-52 25v3h104v-3c0-16.9-26.1-25-51.9-25" style="fill:url(#i)"/><linearGradient id="j" x1="64" x2="64" y1="33.6" y2="8.1" gradientTransform="matrix(1 0 0 -1 0 130)" gradientUnits="userSpaceOnUse"><stop offset=".8" style="stop-color:#fff"/><stop offset="1" style="stop-color:#e1e1e1"/></linearGradient><path d="M51.3 124h25l.6-26.8L73 96l.1-5.9H54.8l.1 6-3.8 1z" style="fill:url(#j)"/><path d="M42.7 103.5s6.3 6.9 21.3 6.9c15.3 0 21.2-6.9 21.2-6.9m-42.5 0S49 119 64 119c15.3 0 21.3-15.4 21.3-15.4" style="fill:none;stroke:#ffcb13;stroke-width:2;stroke-linecap:round;stroke-linejoin:round;stroke-miterlimit:10"/><circle cx="42.8" cy="104.5" r="3.7" style="fill:#f19102"/><circle cx="85.3" cy="104.5" r="3.7" style="fill:#f19102"/><path d="M91.3 50.4H36.7c-6 0-10.7 5.2-10.7 11.4s4.8 11.5 10.7 11.5h54.6c6 0 10.7-5.2 10.7-11.5s-4.8-11.4-10.7-11.4" style="fill:#e59600"/><path d="M64 11c-17.4 0-33.5 18.7-33.5 45.5C30.5 83 47 96.3 64 96.3S97.5 83 97.5 56.5C97.5 29.7 81.4 11 64 11" style="fill:#ffca28"/><path d="M67.9 68H60q-1 .5-.6 1.7c.3.7 1.7 2.7 4.5 2.7s4.3-2 4.6-2.7q.3-1.2-.7-1.6" style="fill:#e59600"/><path d="M72.4 76.1a26 26 0 0 1-16.8 0c-1.8-1-3.7.6-3 2.3s6.5 5.4 11.4 5.4 10.6-3.8 11.3-5.4-1-3.4-2.9-2.3" style="fill:#795548"/><defs><path id="k" d="M72.4 76.1a26 26 0 0 1-16.8 0c-1.8-1-3.7.6-3 2.3s6.5 5.4 11.4 5.4 10.6-3.8 11.3-5.4-1-3.4-2.9-2.3"/></defs><clipPath id="l"><use xlink:href="#k" style="overflow:visible"/></clipPath><g style="clip-path:url(#l)"><path d="m55.3 75.7 1 5 2.4-4zm17.4 0-1 5-2.4-4z" style="fill:#fff"/></g><path d="M54.8 49.8c-1-1.2-3-3-7.2-3s-6.3 1.8-7.3 3q-.5 1 0 1.6t2 .4c1.4-.2 2.5-1.2 5.3-1.2s4.5.9 5.3 1.2q1.4.3 2-.4.4-.6-.1-1.6m32.9 0c-1-1.2-3.1-3-7.3-3s-6.3 1.8-7.2 3q-.5 1 0 1.6t1.9.4c1.5-.2 2.5-1.2 5.3-1.2s4.5.9 5.4 1.2q1.3.3 1.9-.4t0-1.6" style="fill:#6d4c41"/><ellipse cx="47.6" cy="58.8" rx="4.9" ry="5.1" style="fill:#404040"/><ellipse cx="80.4" cy="58.8" rx="4.9" ry="5.1" style="fill:#404040"/><path d="M107 41.6v.3a24 24 0 0 1-1.2 5c-1.8 4.9-4.9 6.9-5.5 8.2v.4c-.7 6-4.2 12-4.2 12.4A107 107 0 0 0 93.8 48C91 35 86.1 31.2 79.1 30.2c-6.4-1-15.3 8-15.3 8s-9-9-15.3-8c-7 1-12.5 4.7-14.7 17.8-1.6 9.1-1.8 20.5-1.8 20.5s-3.4-5.3-2.8-16c0 0-3-1-5.6-3l-.3-.3a9 9 0 0 1-2-2.5v-.1L21 46c-2-6 1-10.4 3.5-12.6-.7-2-1.6-6 .8-11a10 10 0 0 1 8.9-5.4 13 13 0 0 1-.2-5.1v-.6l.7-1.7.3-.5a11 11 0 0 1 4.7-4.4l.4 2.4a5 5 0 0 0 2.3 3.3q3.1 1.8 9.2-.3.8-.3 2.3-1.2a31 31 0 0 1 26.5-3c5 1.5 10 5.5 10.7 10.3 5 .3 10.4 5.2 12.9 9l1 2 .8 2.1v.3c1 3.1 1.6 7.4 1.1 12" style="fill:#543930"/><radialGradient id="m" cx="81.8" cy="85.1" r="35.6" gradientTransform="rotate(72 8.93 -9.86)scale(1 -.742)" gradientUnits="userSpaceOnUse"><stop offset=".7" style="stop-color:#6d4c41;stop-opacity:0"/><stop offset="1" style="stop-color:#6d4c41"/></radialGradient><path d="M100.2 55.5c.2-1.5 4.4-3.6 6.2-10.3l.5-2.1a28 28 0 0 0-2.8-18 22 22 0 0 0-11.7-8.8l-1.2-.1s.3 2.1-.5 3.8a5 5 0 0 1-3.4 2.8c12 12 11 22 13 32.7" style="fill:url(#m)"/><radialGradient id="n" cx="46.9" cy="125.1" r="9.3" gradientTransform="matrix(.881 .473 .56 -1.045 -64.2 112.8)" gradientUnits="userSpaceOnUse"><stop offset=".6" style="stop-color:#6d4c41"/><stop offset="1" style="stop-color:#6d4c41;stop-opacity:0"/></radialGradient><path d="m57 7.4-3 1.5c-1 .5-7.1 4-11.5 1.5C40 8.9 40 4.8 40 4.7c-1.3 1.6-5 12.8 5.9 13.5 4.7.3 7.6-3.8 9.3-7.2z" style="fill:url(#n)"/><radialGradient id="o" cx="161.3" cy="62.9" r="28.7" gradientTransform="matrix(-.938 -.394 -.218 .528 233.2 51.54)" gradientUnits="userSpaceOnUse"><stop offset=".7" style="stop-color:#6d4c41;stop-opacity:0"/><stop offset="1" style="stop-color:#6d4c41"/></radialGradient><path d="M79.2 5.5c7.3 2 10.8 5.7 12 10.6.4 1.5.8 15.1-25.2-.4-9.7-5.7-7-9.3-5.9-9.7a31 31 0 0 1 19-.5" style="fill:url(#o)"/><radialGradient id="p" cx="43.5" cy="117.1" r="8.6" gradientTransform="matrix(1 0 0 -1.223 0 155.96)" gradientUnits="userSpaceOnUse"><stop offset=".7" style="stop-color:#6d4c41;stop-opacity:0"/><stop offset="1" style="stop-color:#6d4c41"/></radialGradient><path d="M39.8 4.7A10 10 0 0 0 34.3 17l7.7 1.2c-6.8-7-2-13.5-2-13.5" style="fill:url(#p)"/><radialGradient id="q" cx="44.6" cy="100.4" r="16.1" gradientTransform="rotate(15 249.9 391.33)scale(-1 .936)" gradientUnits="userSpaceOnUse"><stop offset=".7" style="stop-color:#6d4c41;stop-opacity:0"/><stop offset="1" style="stop-color:#6d4c41"/></radialGradient><path d="m39 17.7-4.7-.7H33a10 10 0 0 0-7.7 5.4 14 14 0 0 0-1.2 9.4l.4 1.6s2.4-2.3 8-2.4z" style="fill:url(#q)"/><radialGradient id="r" cx="38.4" cy="86.2" r="16.9" gradientTransform="rotate(187.8 -2.6 79.64)scale(-1 1.405)" gradientUnits="userSpaceOnUse"><stop offset=".6" style="stop-color:#6d4c41;stop-opacity:0"/><stop offset="1" style="stop-color:#6d4c41"/></radialGradient><path d="M24.4 33.6a11 11 0 0 0-3.2 12.7c1.7 4.4 8 6.2 8 6.2s1.3.4 2 .4l1.5-22c-3 0-6.4 1-8.3 2.7" style="fill:url(#r)"/></svg>