<svg xml:space="preserve" width="16" height="16" viewBox="0 0 128 128"><path d="M116 4H12a8 8 0 0 0-8 8v104a8 8 0 0 0 8 8h104a8 8 0 0 0 8-8V12a8 8 0 0 0-8-8" style="fill:#c33"/><path d="M109.7 4H11.5A7.6 7.6 0 0 0 4 11.5v97.9c0 4.1 3.3 7.5 7.5 7.5h98.1c4.1 0 7.5-3.3 7.5-7.5V11.5c0-4-3.1-7.4-7.2-7.5z" style="fill:#f44336"/><path d="M39.7 12.9c0-2.3-1.6-3-10.8-2.7-7.7.3-11.5 1.2-13.8 4s-2.9 8.5-3 15.3c0 4.8 0 9.3 2.5 9.3 3.4 0 3.4-7.9 6.2-12.3 5.4-8.7 18.9-10.6 18.9-13.6" style="fill:#ff8a80"/><path d="M30.3 36.9h11.9l20.6 54.9H51.4l-4.6-13.2h-21l-4.6 13.2H9.8zm13.1 32.3-4.8-13.8-2-6.6H36l-2 6.6-5 13.8zm26.9-32.3h21.4q4.7 0 8.5 1.9 3.9 2 6.1 5.2t2.2 7.2a13 13 0 0 1-7.3 11.8v.6q4.2 1.6 6.8 4.9t2.5 8q0 4.5-2.4 8a16 16 0 0 1-6.5 5.4 22 22 0 0 1-9.1 1.9H70.3zM91 59.3q3.3 0 5.4-2 2-1.8 2-4.6t-2-4.7a7 7 0 0 0-5.1-1.9H80.6v13.1zm1.1 23q3.8 0 5.9-2 2-1.9 2-5c0-3.1-.6-3.8-2-5.2q-2.2-2-6.2-2H80.6v14.2z" style="fill:#fafafa"/></svg>