<svg xml:space="preserve" width="16" height="16" viewBox="0 0 128 128"><path d="M103.3 124s5.3.6 13.7-7.8 6.4-12.8 6.4-12.8L105 83.2l-21.5 22.5z" style="fill:#82aec0"/><path d="m122 101.8-2.5-2.8q-3 9-8.8 16.6a3 3 0 0 1-4.5.3l-.3-.3a3 3 0 0 1-.3-4q6-7.9 9.6-17.2l-2.9-3.2q-3 9.4-9 17.3a3 3 0 0 1-4.5.3 3 3 0 0 1-.3-4 63 63 0 0 0 9.9-17.9l-2.4-2.7L84.7 107l18.5 17s2.9.5 8.2-3c0 0 5.5-3 10.6-19" style="fill:#2f7889"/><path d="m100.8 52.4 10.9 10.9q1.9 2 1.5 4.7L111 82.7a6 6 0 0 1-1.6 3L86.1 109q-1.3 1.2-3 1.5l-14.7 2.4q-2.7.3-4.8-1.6l-10.8-10.8z" style="fill:#82aec0"/><path d="m82 55 16.3-3.4c2-.4 3.8 1.3 3.4 3.3L98.5 70a7 7 0 0 1-1.8 3.3l-22.9 23q-1.3 1.4-3.3 1.8l-15.3 3c-2 .5-3.7-1.3-3.3-3.2l3.4-16.4q.1-.8.7-1.4l24.6-24.5q.5-.6 1.4-.8" style="fill:#b9e4ea"/><path d="M62.5 86s6.5 4 17.4-7 6-16.1 6-16.1L64.8 40.5l-25 25.8z" style="fill:#82aec0"/><path d="m84.6 61.6-3-3.2a69 69 0 0 1-9.6 19 3.6 3.6 0 0 1-5.4.4l-.3-.3a3.6 3.6 0 0 1-.4-4.7q6.8-9 10.6-19.8l-3.4-3.6Q69.7 59.9 63.2 69a3.6 3.6 0 0 1-5.3.4 3.6 3.6 0 0 1-.4-4.7q7-9.2 11-20.3l-2.8-3L40.6 67l21.9 19s1.7 1.2 5.7.5c3.7-.8 7-3.3 7-3.3l-.9-.3c-.3-.3-.7-1.1-.2-1.9q6.8-8.9 10.5-19.4" style="fill:#2f7889"/><path d="m59 5 11 11a8 8 0 0 1 2.2 6.6L70 38.1q-.4 2.6-2.2 4.4l-25 25a8 8 0 0 1-4.3 2.1L23 72q-3.7.5-6.6-2.2L5.3 58.7z" style="fill:#82aec0"/><path d="M39.7 7.5 56.3 4a3 3 0 0 1 3.5 3.5l-3.5 17.1q-.5 2.1-2 3.8L28.9 53.9q-1.6 1.6-3.8 2L7.9 59.6A3 3 0 0 1 4.4 56l3.4-16.5a9 9 0 0 1 2.6-4.8L35 10q2-2 4.7-2.5" style="fill:#b9e4ea"/><path d="M17.3 59.5a14 14 0 0 0-6.5 4.7l5.6 5.6A8 8 0 0 0 23 72l15.6-2.3L27.7 59s-6-1-10.4.6m57.6 41s-8 0-12.8 1.4q-3.8 1.3-4.7 3.1l6.2 6.2q2 2 4.8 1.6l14.7-2.4q.8-.1 1.4-.5z" style="fill:#2f7889"/><path d="M59.6 15.4c-1.4 5.8.2 14.3.2 14.3l9.6 10.8q.5-1 .7-2.3l2.2-15.5Q73 19 70.1 16L64 10s-3.2.9-4.3 5.5M105 56.6c-.9 1.2-2.4 3-3.3 6.4-1 3.9-.3 12.2-.3 12.2l9 9 .5-1.5 2.3-14.7q.4-2.7-1.5-4.7z" style="fill:#94d1e0"/></svg>