<svg xmlns:xlink="http://www.w3.org/1999/xlink" width="16" height="16" viewBox="0 0 128 128"><defs><path id="a" d="M4 4h120v120H4z"/></defs><clipPath id="b"><use xlink:href="#a"/></clipPath><g clip-path="url(#b)"><path fill="currentColor" d="M20.9 112.8c-8.4 0-15.3-7.4-15.3-16.5S12.4 80 20.9 80h86.2c8.5 0 15.3 7.4 15.3 16.4s-6.9 16.5-15.3 16.5zm86.2-31.3c7.6 0 13.7 6.7 13.7 14.9s-6.1 14.8-13.7 14.8H20.9c-7.6 0-13.7-6.7-13.7-14.8s6.1-14.9 13.7-14.9zm0-3.1H20.9c-9.3 0-16.9 8-16.9 18s7.6 18 16.9 18h86.2c9.3 0 16.9-8.1 16.9-18s-7.6-18-16.9-18"/></g><g clip-path="url(#b)"><path fill="currentColor" d="M64 147.5c-13 0-26-6-35.3-16.6a71 71 0 0 1-16-47.7c0-44 16.8-65.4 51.3-65.4q26.8 0 39.4 17c8 10.9 11.9 26.7 11.9 48.4 0 19.3-5.6 35.7-16 47.7A47 47 0 0 1 64 147.5m0-128.1q26.1 0 38.1 16.4 11.6 15.7 11.6 47.4c0 18.9-5.4 35-15.6 46.6C89 140 76.6 146 64 146s-25.1-5.8-34.2-16a69 69 0 0 1-15.6-46.7q.1-31.3 11.6-47.2Q38.1 19.3 64 19.4m0-3.1c-37.9 0-52.9 25.3-52.9 66.9 0 42 26.2 65.9 52.9 65.9s52.9-23.9 52.9-66-15-66.8-52.9-66.8"/></g><path d="M128 0h-4q-.9.1-1 1 0 1.2 1 1h4zm-12 0h-4q-.9.1-1 1 0 1.2 1 1h4q1 0 1-1c0-1-.4-1-1-1m-12 0h-4q-.9.1-1 1 0 1.2 1 1h4q1 0 1-1c0-1-.4-1-1-1M92 0h-4q-.9.1-1 1 0 1.2 1 1h4q1 0 1-1c0-1-.4-1-1-1M80 0h-4q-.9.1-1 1 0 1.2 1 1h4q1 0 1-1c0-1-.4-1-1-1M68 0h-4q-.9.1-1 1c-.1.9.5 1 1 1h4q1 0 1-1c0-1-.4-1-1-1M56 0h-4q-.9.1-1 1c-.1.9.5 1 1 1h4q1 0 1-1c0-1-.4-1-1-1M44 0h-4q-.9.1-1 1c-.1.9.5 1 1 1h4q1 0 1-1c0-1-.4-1-1-1M32 0h-4q-.9.1-1 1c-.1.9.5 1 1 1h4q1 0 1-1c0-1-.4-1-1-1M20 0h-4q-.9.1-1 1 0 1.2 1 1h4q1 0 1-1c0-1-.4-1-1-1M8 0H4q-.9.1-1 1c-.1.9.5 1 1 1h4q1 0 1-1c0-1-.4-1-1-1M1 3a1 1 0 0 0-1 1v4q.1 1 1 1 1.2 0 1-1V4q0-.9-1-1m0 12a1 1 0 0 0-1 1v4q.1 1 1 1 1.2 0 1-1v-4q0-.9-1-1m0 12a1 1 0 0 0-1 1v4q.1 1 1 1 1.2 0 1-1v-4q0-.9-1-1m0 12a1 1 0 0 0-1 1v4q.1 1 1 1 1.2 0 1-1v-4q0-.9-1-1m0 12a1 1 0 0 0-1 1v4q.1 1 1 1 1.2 0 1-1v-4q0-.9-1-1m0 12a1 1 0 0 0-1 1v4q.1 1 1 1 1.2 0 1-1v-4q0-.9-1-1m0 12a1 1 0 0 0-1 1v4q.1 1 1 1 1.2 0 1-1v-4q0-.9-1-1m0 12a1 1 0 0 0-1 1v4q.1 1 1 1 1.2 0 1-1v-4q0-.9-1-1m0 12a1 1 0 0 0-1 1v4q.1 1 1 1 1.2 0 1-1v-4q0-.9-1-1m0 12a1 1 0 0 0-1 1v4q.1 1 1 1 1.2 0 1-1v-4q0-.9-1-1m0 12a1 1 0 0 0-1 1v4h2v-4q0-.9-1-1m11 3H8q-.9.1-1 1 0 1.2 1 1h4q1 0 1-1c0-1-.4-1-1-1m12 0h-4q-.9.1-1 1c-.1.9.5 1 1 1h4q1 0 1-1c0-1-.4-1-1-1m12 0h-4q-.9.1-1 1c-.1.9.5 1 1 1h4q1 0 1-1c0-1-.4-1-1-1m12 0h-4q-.9.1-1 1c-.1.9.5 1 1 1h4q1 0 1-1c0-1-.4-1-1-1m12 0h-4q-.9.1-1 1c-.1.9.5 1 1 1h4q1 0 1-1c0-1-.4-1-1-1m12 0h-4q-.9.1-1 1 0 1.2 1 1h4q1 0 1-1c0-1-.4-1-1-1m12 0h-4q-.9.1-1 1 0 1.2 1 1h4q1 0 1-1c0-1-.4-1-1-1m12 0h-4q-.9.1-1 1 0 1.2 1 1h4q1 0 1-1c0-1-.4-1-1-1m12 0h-4q-.9.1-1 1 0 1.2 1 1h4q1 0 1-1c0-1-.4-1-1-1m12 0h-4q-.9.1-1 1 0 1.2 1 1h4q1 0 1-1c0-1-.4-1-1-1m7-3a1 1 0 0 0-1 1v4h2v-4q0-.9-1-1m0-12a1 1 0 0 0-1 1v4q.1 1 1 1 1.2 0 1-1v-4q0-.9-1-1m0-12a1 1 0 0 0-1 1v4q.1 1 1 1 1.2 0 1-1v-4q0-.9-1-1m0-12a1 1 0 0 0-1 1v4q.1 1 1 1 1.2 0 1-1v-4q0-.9-1-1m0-12a1 1 0 0 0-1 1v4q.1 1 1 1 1.2 0 1-1v-4q0-.9-1-1m0-12a1 1 0 0 0-1 1v4q.1 1 1 1 1.2 0 1-1v-4q0-.9-1-1m0-12a1 1 0 0 0-1 1v4q.1 1 1 1 1.2 0 1-1v-4q0-.9-1-1m0-12a1 1 0 0 0-1 1v4q.1 1 1 1 1.2 0 1-1v-4q0-.9-1-1m0-12a1 1 0 0 0-1 1v4q.1 1 1 1 1.2 0 1-1v-4q0-.9-1-1m0-12a1 1 0 0 0-1 1v4q.1 1 1 1 1.2 0 1-1v-4q0-.9-1-1m0-12a1 1 0 0 0-1 1v4q.1 1 1 1 1.2 0 1-1V4q0-.9-1-1"/></svg>