<svg xml:space="preserve" width="16" height="16" viewBox="0 0 128 128"><path d="M116.5 4h-104a8 8 0 0 0-8 8v104a8 8 0 0 0 8 8h104a8 8 0 0 0 8-8V12a8 8 0 0 0-8-8" style="fill:#8e24aa"/><path d="M110.2 4H12a7.6 7.6 0 0 0-7.5 7.5v97.9c0 4.1 3.3 7.5 7.4 7.5h98.2c4.1 0 7.4-3.4 7.5-7.5v-98c0-4-3.2-7.3-7.2-7.4z" style="fill:#ab47bc"/><path d="M40.2 12.9c0-2.3-1.6-3-10.8-2.7-7.7.3-11.5 1.2-13.8 4s-3 8.5-3 15.3c0 4.8 0 9.3 2.5 9.3 3.4 0 3.4-8 6.2-12.3 5.4-8.7 18.9-10.6 18.9-13.6" style="opacity:.3;fill:#fafafa"/><path d="M86.8 87.5C76 87.5 68.5 80 61.5 71.9 54.4 80 46.9 87.5 36.2 87.5a21.5 21.5 0 0 1 0-43c10.7 0 18.5 7.6 25.3 15.4C68.3 52 76 44.5 86.8 44.5a21.5 21.5 0 0 1 0 43M66.6 65.9c6.3 7.4 12.5 13.8 20.2 13.8a13.7 13.7 0 1 0 0-27.4c-7.8 0-14 6.3-20.2 13.6M36.2 52.3a13.7 13.7 0 1 0 0 27.4c7.7 0 13.9-6.4 20.2-13.8C50 58.6 44 52.3 36.2 52.3" style="fill:#fff"/></svg>