<svg xml:space="preserve" width="16" height="16" viewBox="0 0 128 128"><radialGradient id="a" cx="63.6" cy="-2088.9" r="57" gradientTransform="matrix(1 0 0 -1 0 -2026)" gradientUnits="userSpaceOnUse"><stop offset=".5" style="stop-color:#fde030"/><stop offset=".9" style="stop-color:#f7c02b"/><stop offset="1" style="stop-color:#f4a223"/></radialGradient><path d="M63.6 118.8c-27.9 0-58-17.5-58-55.9S35.7 7 63.6 7c15.5 0 29.8 5.1 40.4 14.4 11.5 10.2 17.6 24.6 17.6 41.5s-6.1 31.2-17.6 41.4a61 61 0 0 1-40.4 14.5" style="fill:url(#a)"/><path d="M111.5 29.7a57 57 0 0 1 8.1 30.2c0 16.9-6.1 31.2-17.6 41.4a61 61 0 0 1-40.4 14.5c-18 0-37-7.3-48.2-23a58 58 0 0 0 50.2 26c15.4 0 29.8-5.2 40.4-14.5a54 54 0 0 0 17.6-41.4q-.1-19.2-10.1-33.2" style="fill:#eb8f00"/><radialGradient id="b" cx="25.7" cy="68" r="19.4" gradientTransform="matrix(.98 0 0 .93 2.09 8.56)" gradientUnits="userSpaceOnUse"><stop offset="0" style="stop-color:#ed7770"/><stop offset=".9" style="stop-color:#ed7770;stop-opacity:0"/></radialGradient><circle cx="27.3" cy="71.8" r="17.5" style="opacity:.8;fill:url(#b)"/><radialGradient id="c" cx="100.8" cy="68" r="19.4" gradientTransform="matrix(.98 0 0 .93 2.09 8.56)" gradientUnits="userSpaceOnUse"><stop offset="0" style="stop-color:#ed7770"/><stop offset=".9" style="stop-color:#ed7770;stop-opacity:0"/></radialGradient><circle cx="100.8" cy="71.8" r="17.5" style="opacity:.8;fill:url(#c)"/><path d="m49 56.9-.2-.2-1-1.1-.7-.8-.8-.7-.9-.5-.6-.3h-.3.2-.6q-.3 0-.7.3l-.9.5-2.1 2.1-.5.6-.2.3a4 4 0 0 1-5.7.6 4 4 0 0 1-1.4-3.5l.2-1a13 13 0 0 1 7.7-8.5l1-.3 1-.2.6-.1h.5l.6-.1h1.2l1 .2a11 11 0 0 1 5 2.1 13 13 0 0 1 4.1 5.5l.5 1.4.2.7v.2c.4 2-1.1 4-3.3 4.3q-2.5.2-4-1.5m39.6 0-.2-.2-1-1.1-.7-.8-.8-.7-.9-.5-.6-.3h-.4.3-.6q-.3 0-.7.3l-.9.5-2.1 2.1-.5.6-.3.3a4 4 0 0 1-5.6.6 4 4 0 0 1-1.4-3.5l.2-1a13 13 0 0 1 7.7-8.5l1-.3 1-.2.6-.1h.5l.5-.1H85l1 .2a11 11 0 0 1 5 2.1 13 13 0 0 1 4.1 5.5l.5 1.4.2.7v.2c.4 2-1.1 4-3.3 4.3q-2.4.2-4-1.5M64 94c-12.6 0-22.5-6-28-12.3a2.1 2.1 0 0 1 1.6-3.5q.6 0 1.1.2A53 53 0 0 0 64 85.7h.2c10.1 0 19.6-4 25.2-7.3q.6-.3 1.1-.3a2.1 2.1 0 0 1 1.6 3.6 37 37 0 0 1-28 12.3" style="fill:#422b0d"/></svg>