<svg xml:space="preserve" width="16" height="16" viewBox="0 0 128 128"><path d="M63.8 4C62.1 4 8.1 35.7 6.6 36.5c-2.5 1.4-2.4 4.6.3 5s6.8.3 6.8.3L62.6 46l50.6-4.3h5c2.1-.1 4-2.2 1-5.2A718 718 0 0 0 63.8 4.1M9.4 115.2v-5c0-1.3.8-1.2 2.3-1.2h2.4l51.7-15.3 46.9 15.3h3.2c1.2 0 2 .2 2 1.5v4.6h3.9q1.2 0 1 1.9c-.3 1.9 0 4.8 0 5.6s-.5 1.2-2 1.2H6.9Q5 124 5 122.3v-5.6c0-1.1.6-1.2 1.6-1.2z" style="fill:#97aec0"/><path d="M5 117.7h117.7V116c0-1-.7-.9-1.3-1H118v-1H9.3v1.3l-3.7.1q-.7.1-.8 1zm7.1-76v8l102.4.3v-8.2l-50-.4z" style="fill:#647584"/><path d="M7.8 38.8c.2.6 28.1.4 56 .4 27.4 0 53.6.4 53.8-.1.3-.6-12.3-8.8-26-16.8S64.4 6.3 63.8 6.5a920 920 0 0 0-56 32.3" style="fill:#cddfee"/><path d="M63.8 12.7a732 732 0 0 0-37.6 20.9c0 .3 19.4 0 38.2 0 17.7 0 35.5.2 35.6 0 .4-.6-35.8-20.8-36.2-20.9" style="fill:#97aec0"/><path d="M12.1 49v4.7l3.3 1.8s-.3 2.7.4 4.4 1.4 2.1 1.9 2.5.5 1 .5 1l-.2 38.3s-2.5 2.3-3.3 3.9c-.8 1.5-.6 3.4-.6 3.4h98.6s.3-2-.2-3.4-2.7-2-2.7-2V62.3s2.2-1.5 2.5-3.1 0-4.7 0-4.7l2.2-1V49z" style="fill:#cddfee"/><path d="M24.7 43.1h-7.8v4l7.8.1zm11.6-.1-7.6.1v4.1h7.6zm10.8 0-7 .1v4.2h7zm28.6 0H53v4.3h22.7zm12.2 0h-7.3l-.2 4.4h7.3zm12.1 0h-7.4v4.4h7.4zm4.2 0-.2 4.4h6.9V43zM16.3 61l94.9.1s0 1-.7 1.6q-.8 1-.7 1.1l-91.6.1-.9-1.4zm-4.1-7.7s-.3 1.2.6 2c.8.6 1.4.7 3.6.6s95.5 0 96.6-.2c1 0 1.5-1 1.5-1.3v-1.2zM18 101l-1 1.2-1 1.6 95 .2s-.7-.8-1-1.4l-.2-1.2z" style="fill:#97aec0"/><path d="M33.8 55.8s0 3.2-.6 4.5-1.5 2.1-1.5 2.1V102s2 2.1 2.5 3.3c.4 1.3.3 3.7.3 3.7h6.6s-.1-3 .8-4.4 2-2.6 2-2.6l-.1-39.4s-1-1.6-1.4-2.9-.4-3.9-.4-3.9zm25.9 0s0 3-.6 4.4-1.4 2.4-1.4 2.4l-.3 38.4s2.1 2 2.7 3.3.6 4.7.6 4.7h7.2s-.1-3.4.4-4.7 2.3-2.7 2.3-2.7l-.1-38.8s-1.5-1-1.9-2.8c-.4-1.9-.3-4.2-.3-4.2zm26.6 0H94s0 2.2.5 4.2c.7 2 2 3 2 3v38.7s-1.2.7-2.1 2.3-.8 5-.8 5h-7s.4-3.5-.3-5c-.4-1-2.3-2.4-2.3-2.4l.2-38.6s1.4-1.9 1.7-3.2.3-4 .3-4" style="fill:#54636e"/></svg>