<svg xml:space="preserve" width="16" height="16" viewBox="0 0 128 128"><path d="m65.2 123.9 56-.3c2.8 0 3-.5 3-3l-1-81.6c0-1.8-1.3-2.3-6.9-4.3a3234 3234 0 0 0-50-16.2q-1.1-.2-1 0l-13 82z" style="fill:#474b4f"/><path d="m65.2 123.9-59.7-.3c-1.5 0-1.4-.5-1.5-2l1.7-81.3c0-2.6.7-3 4.4-4s55.3-17.9 55.3-17.9z" style="fill:#6d7276"/><path d="m123.5 64.4-58.2-14-.7-1.3.8-8.1s17.9 4.7 31.3 8l26.7 6.7z" style="fill:#e07e17"/><path d="m5.4 55.6-.2 7.6 60.1-12.8V41L31 49c-9.7 2.3-25.6 6.5-25.6 6.5M65.3 57s-2.4.4-2.6.7-.4 8.4 0 8.7 2.6-.2 2.6-.2zm-10.5 4.9s-.4-3.5 1.1-3.5 1.2 3.1 1.2 3.1 1.7.7 1.6 2.3-1.8 3.5-2.3 3.5-2.6-1.2-2.8-3 1.2-2.4 1.2-2.4M49.9 60c-.4-.3-14.1 2.4-14.4 3s-.1 7.1.5 7.5 13.4-1.7 14-2.4.4-7.7-.1-8m-19.7 3.3c-1.5.1-1 2.8-1 2.8s-1.3 1-1.3 2.5c0 1.6 2.3 2.9 2.6 2.9s2.3-1.8 2.3-3.5c0-1.3-1.6-2-1.6-2s.2-2.9-1-2.7M25.3 65c-.5-.6-9.4 1.4-9.7 1.9-.6 1-.3 6.8.1 7s9-.9 9.4-1.4.7-7 .1-7.6M11 67.6c-1 .2-.8 2.4-.8 2.4s-1.2.6-1 2.3 1.7 2.6 1.9 2.6 1.9-1.3 1.8-3c-.1-2-1-2-1-2s.2-2.5-.9-2.3m-6 1.1s1.6-.5 1.9-.3c.1.1.2 6.6-.2 7.1s-1.8.8-1.8.8z" style="fill:#f5b23f"/><path d="M11 71q-.8 0-.9 1.2.1 1 1 1 .8-.3.7-1.2 0-.9-.8-1m-6-.6s.8-.3 1-.2l-.2 3.9-.8.3zM16.8 68c-.2.4-.2 3.8.2 3.9s6.4-1 6.6-1.1 0-4-.1-4-6.4 1-6.7 1.3m13.4-.8q-1 0-1 1.2c0 .7.7 1 1 1q1-.1 1.1-1.3c.1-1.2-.7-.9-1-.9m7.3-2.9c-.2.2-.2 3.9 0 4.2s10.4-1.7 10.5-2c.1-.1.3-4.1 0-4.3-.4-.3-10.3 1.8-10.5 2M56 62.7c-.8 0-1 .8-1 1.3q0 .9 1.2 1 1-.1 1-1.4-.1-1.1-1.3-1m9.4-3.4s-1.3 0-1.5.3-.3 4.7 0 4.8h1.5zm-60-2.1v4.3s8.3-1.8 8.8-2.1 2.4-2.2 2.4-2.2 2.5 1.2 2.8 1.2c.7-.1 9.2-1.9 9.6-2.1l2.5-2.4 3.1 1.6 9-2.1c.6-.2 2.6-2.6 2.6-2.6s2.8 1.4 3.2 1.4L62 49.3c.8-.2 3.3-2.6 3.3-2.6v-1.4s-2.7-1.5-3.2-1.5-13 2.8-13.5 3L46 49.7 42.5 48l-8.9 2.2c-.3.1-2.4 2.8-2.4 2.8s-3-1.5-3.4-1.5l-9 2.1c-.4.2-2.4 2.7-2.4 2.7l-2.8-1.2c-.5 0-8.3 2-8.3 2" style="fill:#f9df9b"/><path d="M65.3 57v9.2s3 .3 3.2 0c.2-.1.1-8 0-8.2-.4-.5-3.2-1-3.2-1m8.6 5.3s-.2-3.4 1.2-3.2c1.5.3 1.2 3.4 1.2 3.4s1.2 1 1.2 2.2c0 2.4-2.2 3.2-2.5 3.2-.5 0-2.5-1.8-2.4-3.4.1-1.8 1.3-2.2 1.3-2.2m6.9-1.8c-.5.2-.4 7.9 0 8.3s13.3 2.6 13.5 2.4.4-7.5 0-7.8c-.3-.3-13-3.1-13.5-3m17.8 6.4s-.4-2.8 1-2.6c1.2.2.9 2.8.9 2.8s1.1 1 1 2.3-1.6 2.8-2 2.7-2.2-1.1-2.1-3c0-1.5 1.2-2.2 1.2-2.2m5.6-1.2c-.3.2-.3 7.1.1 7.5.4.3 8.7 1.7 9.1 1.6s.4-6.8.2-7a51 51 0 0 0-9.4-2.1m12.9 5.4s-.2-2.4.9-2.4c1 .1.8 2.4.8 2.4s.7.6.6 2.2c0 1.4-1 2.7-1.4 2.7s-1.7-1.2-1.7-3.2c0-1.4.8-1.7.8-1.7m6.5-1.2s-1.6-.2-1.8 0c-.3.3-.4 6.6-.2 6.8s2 .2 2 .2z" style="fill:#e07e17"/><path d="M82.8 62.6a14 14 0 0 0 0 5c.4.2 9.7 1.9 10 1.6s.2-4.2 0-4.5-9.6-2.4-10-2.1" style="fill:#f9b03c"/><path d="M65.3 59.2s1.5.2 1.8.5c.2.2.2 4.4 0 4.5h-1.8z" style="fill:#f5b23f"/><path d="M75 63.4q-1.1.2-1 1.3 0 1.1 1.1 1.2 1.3-.1 1.2-1.3T75 63.4m24.6 4.3q-1 0-1.2 1.2 0 1.2 1.1 1.3c.8 0 1-.8 1-1.2 0-.5-.2-1.3-1-1.3m6.1-.2c-.2.2-.2 4 0 4.2.4.2 6.3 1.2 6.6 1.1s.1-3.7 0-4a32 32 0 0 0-6.6-1.3m18.1 7.8-1.1-.1v-3.8h1zm-5.8-3.3q-1 .1-1 1t1 1.1q.8-.1.9-1t-1-1.1" style="fill:#f9b03c"/><path d="M123.5 62.4v-4.6s-9.2-2.4-9.5-2.3l-2.3 1.3s-1.7-2.2-2-2.4-8.2-2-8.5-2-2.3 1-2.3 1l-2-2.2c-.2-.2-9.5-2.3-10-2.4S84 50 84 50s-1.7-2.4-2.3-2.7-13-3.4-13.5-3.3c-.6 0-3 1.4-3 1.4v1.4s2.2 2.5 2.7 2.6c.7.3 13 3.2 13.4 3.2.3 0 2.5-1.5 2.5-1.5s1.3 2.4 1.7 2.6c.5.3 10 2.3 10.3 2.4s2.8-1.5 2.8-1.5 1.3 2.4 1.5 2.4l8.8 2.2 2.5-1.4 1.9 2.4z" style="fill:#f5b23f"/></svg>