<svg xml:space="preserve" width="16" height="16" viewBox="0 0 128 128"><radialGradient id="a" cx="63.6" cy="512.9" r="57" gradientTransform="translate(0 -450)" gradientUnits="userSpaceOnUse"><stop offset=".5" style="stop-color:#fde030"/><stop offset=".9" style="stop-color:#f7c02b"/><stop offset="1" style="stop-color:#f4a223"/></radialGradient><path d="M63.6 118.8c-27.9 0-58-17.5-58-55.9S35.7 7 63.6 7c15.5 0 29.8 5.1 40.4 14.4 11.5 10.2 17.6 24.6 17.6 41.5s-6.1 31.2-17.6 41.4a61 61 0 0 1-40.4 14.5" style="fill:url(#a)"/><path d="M72.9 85a9 9 0 0 0 3-6c.1-3.5-.8-4.8-2-6.3-2.7-3.7-10.4-2.8-10.4-2.8-2 0-4.4 1-4.1 3.4a4 4 0 0 0 2.9 2.7c3 .7 7.3 0 7.5 3 .1 3.6-5.2 2-5.6 5.8s5.6 3.2 5.6 5.7c0 2-2 2.3-4.1 2.7-1.8.4-5.2 1-5.5 3s.9 4.6 5.7 3.8c7.6-1.1 10.2-5.3 10.2-7.8 0-2.8-1.1-5.5-3.2-7.3M44 41c-4.2 0-8 3.5-8 9.4s3.8 9.4 8 9.4 8-3.6 8-9.4-3.8-9.5-8-9.5" style="fill:#422b0d"/><path d="M43.7 44.9a3 3 0 0 0-3.9 1.3q-.7 1.8.6 3.3a3 3 0 0 0 3.9-1.3 3 3 0 0 0-.6-3.3" style="fill:#896024"/><path d="M82.4 41c-4.2 0-8 3.5-8 9.4s3.8 9.4 8 9.4 8-3.6 8-9.4-3.8-9.5-8-9.5" style="fill:#422b0d"/><path d="M82 44.9a3 3 0 0 0-3.8 1.3q-.7 1.8.6 3.3c1.4.7 3.1 0 3.8-1.3.5-1.1.3-2.5-.6-3.3" style="fill:#896024"/><path d="M111.5 29.7a57 57 0 0 1 8.1 30.2c0 16.9-6.1 31.2-17.6 41.4a61 61 0 0 1-40.4 14.5 59 59 0 0 1-48.2-23 58 58 0 0 0 50.2 26c15.4 0 29.8-5.2 40.4-14.5a54 54 0 0 0 17.6-41.4q-.1-19.2-10.1-33.2" style="fill:#eb8f00"/></svg>