<svg xml:space="preserve" width="16" height="16" viewBox="0 0 128 128"><radialGradient id="a" cx="65.4" cy="63.2" r="62.4" gradientUnits="userSpaceOnUse"><stop offset=".6" style="stop-color:#f9deb8"/><stop offset=".9" style="stop-color:#f3c58b"/></radialGradient><path d="M96.9 13.4c-3.3-1-30.7-4.1-59.3 15.7S4.2 76.5 4.6 79s11.2 34 40.7 42 55-5.3 63.7-15.5a64 64 0 0 0 15.1-45 64 64 0 0 0-27.1-47" style="fill:url(#a)"/><path d="M103.9 47.2c.3 3 4.3 4.6 6.5 4.5 2.1-.1 3.5-3.9 3.1-6.8-.3-3-1.5-4.4-2.8-4.9q-2.2-.7-3.1.6c-.5.6-3.9 4.7-3.7 6.6M80.2 57.6c-.4 1 .5 2 1.6 2.2s2.4 0 2.4-1.4-1-1.7-1.9-1.8q-1.5-.2-2 1" style="fill:#f9a156"/><path d="M71.9 78.6c.4 1.5 2.3 3 3 3.7.7.6 3 .2 4.3-.3 1.4-.4 2.9-1.2 3-2.6s-2-3.8-5.7-4.1c-3.7-.4-5 2.2-4.6 3.3m-15.8 24.1c.3 2.5 3 3.5 6.8 2.8 2-.3 4.3-3 4.1-4.8 0-2.2-3.1-3.4-3.9-3.7-2.8-1.2-7.3 3-7 5.7m13.9 5.1c1.6 2.6 6.1 1.4 6.6-1.6.4-2.3-2.1-3.7-3.3-3.8s-4.5 3.2-3.2 5.4" style="fill:#f0a25b"/><path d="M24.4 17.2s-11.3-.8-16 10.9c-5.1 13.4 3 21.9 3 21.9s11.8-4 11.9-4.2l6.2-16z" style="fill:#ff2820"/><path d="M22.6 20.7s-6.7.5-10 9.4-.6 13.8-.2 14.9 2 3.4 2 3.4 8.5-2.2 8.8-2.6c.3-.5 6.3-15.6 6.2-16l-3.5-9z" style="fill:#df0e28"/><path d="M21.3 22.8s-2.3.1-4.9 3.3c-1.8 2.2-3.2 5.4-2.6 6.3s6.6 4.4 6.6 4.4l1.6-2.5-2.7-3s1.4-1.8 2.5-2.6l2-1.4zm-3.3 15s-4.7.4-5.2 1.2.5 3.7 1 5.1l1 2.9 5-1.8-.3-7.3z" style="fill:#fe6364"/><path d="M20.7 28.7q-1.2 1-2.5-.7-1.3-2-.2-3.2 1.2-1 2.6 1c.6 1 .7 2.4 0 2.9m-5.2 0q-1.2 1.6.5 2.8c1.7 1.2 2 .7 2.6 0q.7-1.2-.7-2.4c-.7-.6-1.9-1-2.4-.4M13.5 41q.1 1.5 2.2 1.3c2.1-.2 2-.6 2-1.6s-1.1-1.4-2.2-1.2q-1.8 0-2 1.5" style="fill:#f2a65d"/><path d="M23.9 34s-2.3.2-2.3-.1-1-6-1-10.5c0-3.9-.3-5.5 0-6.3s3.5-4.8 5.8-6.2 4.4-2.5 5.7-2.5 5.9.5 6.2.9-9 19.8-9 19.8z" style="fill:#6d4c42"/><path d="M24.8 34.6s.1-12 1.2-15.3 3-4.6 4.7-6 6-4.3 6.3-4.4 2.9.2 4.8 1.3 4.4 3.8 4.4 3.8l-9 23.5-12.6-1z" style="fill:#a1713e"/><path d="M19.1 45.2s-2-3.9-2-7.4 1-4.4 3.8-5 6.2-.4 9.5 1.2l3.2 2-2.8 10z" style="fill:#82bf42"/><path d="M28 45.5s-4.7-2.8-11.5-.8S4.8 55 4.5 57.3c-.2 2.2 1.5 6.2 2 7.2s1.1 3.6 2 3.7 2.7.7 2.7-.2c0-1 4.5-14.3 6.6-15s7.3-3.7 7.6-4.3c.4-.6 2.8-3.2 2.7-3" style="fill:#6d4c42"/><path d="M13.4 72.8c-.4-.2-3.2-2-4.5-3.2-.4-.4-1.1-2-1.1-2s.2.4 1.1.3 1-1.3.8-3-1-6.4-.5-7.2 5.5-7.4 7.2-8 8.7-2.2 11-2.3 5 3.3 5 3.3L36 61.2z" style="fill:#a2703d"/><path d="M8.2 80.5s-.2-2.4.4-4c.4-1.1.7-2.9 2.7-4.4 1.3-1 2.7-.6 2.7-.6s-2.2-6.4.9-9.4c3-2.8 5.9-1 5.9-1s-.9-4.2 3-5.8c3.8-1.5 10 3.4 10 3.4L36 54l-2.2-22s-.6-4 .2-6.4 1.7-3.1 1.7-3.1-1-5.2 2.4-8.6 9-2 9-2-1.3-6.5 2.4-8.3c2.7-1.2 5 .5 5 .5s2.5-2.6 8-1.8c7 1 10.8 8.7 10.8 8.7s3-3.8 8.2-2.2c5.6 1.7 5.7 8 5.7 8l-7 10.4-2 23.6-27 19.9c-.4 0-21.5 8.8-23.5 8.8s-17.5 3-17.5 3z" style="fill:#81c13e"/><path d="M66.2 22c-.2 0-7.5-4.8-7.5-4.8l-6.3 4L47.9 34s-.7 7-.4 8 1 4.3 1.3 4.3 18.4.4 17.7-4.2-3.4-8.9-3-9.6 2.7-10.4 2.7-10.4" style="fill:#a46e40"/><path d="M59.3 19c-1-.1-8.5 6.9-9.3 9.4s1 12.9 0 13.3-2 .8-2.4.4-3-11.7-2.8-13.6 2.2-5.1 4.1-7.8c1.2-1.6 4.8-4.6 5.4-5 .7-.3 3.6 0 4.8.3 1.3.3 3.8 2 4.9 2.8 1 .7 3.8 2.7 3 3.7-.9 1-6.4-3.4-7.7-3.5" style="fill:#6d4c42"/><path d="M42.3 73c-.3 0-4.7-6.4-1.5-18 3.3-11.9 13.8-14 20.6-13.6 8 .5 10.2 4 10.2 4l6.3 3.7-21 19.5s-14.2 4.5-14.6 4.5" style="fill:#ff2422"/><path d="M61.8 35.7s0 2.3-2 2.2c-1.1 0-5.1-6.4-12.2-6.2-8.3.1-12.6 6.7-11.8 14.5s6.5 10.3 6.5 11-1.2 3-1.2 3l-5.3-2.6-3.6-7.6.2-12.4 7.6-9.3 6.4-.9 8 1 5 3.6s2 2.7 2.4 3.7" style="fill:#fefef6"/><path d="M35 30.5c6.8-7.3 16.9-5.1 22.4-1.6 2 1.2 5.2 4.7 5 5.3s-.3 2.2-.7 2.1c-.4 0-4-4.2-7.4-6-3.5-1.6-11-3-16.6 2-6.8 6-5.4 18.7-1.7 22.7s5.8 4 5.5 4.5q-.3 1.4-1.3 1.8c-.8.2-11-4.5-10.5-17.6.4-7.4 2.4-10.2 5.2-13.2" style="fill:#d45b89"/><path d="M20.4 62.5s1.7.4 2.1.2-1-9.2 6.9-12.3 11.4 3 12.5 3 2.1-3 2.1-3l-7.2-5-9 .7c-.2.1-5.7 2.6-6.5 6-.9 3.4-.9 10.4-.9 10.4" style="fill:#fefef6"/><path d="M18.5 62.1S16.8 49.7 26.3 45c10.5-5.3 18.4 4 18.4 4s-.4 2.3-.8 2.5c-.5.1-7-7.2-15.5-3.6-8.7 3.7-7.5 14.7-7.5 14.7z" style="fill:#d45b89"/><path d="M83.5 19.5c-.7 1-5-.7-10.7 2.8-6.2 3.8-6 15-1.8 19.5 2.9 3 4.1 3 4.8 4 .6.7 0 3-.2 2.7s-6.3-2-6.7-3c-.3-1-5.2-8.2-5.3-9.5s-.1-9.2 2-12.4 6.5-6.7 7.8-6.7l10.3.4s.4 1.5-.2 2.2" style="fill:#fefef6"/><path d="M62.8 27.2c-1.7 7-.6 14.2 4.8 18.7s8.2 3.2 8.2 3.2l.2-1.4s-11.7-4-10.2-17.3C67.4 17 83.7 17.3 83.7 17.3s0-1.4-.6-2-16.9-1.9-20.3 12" style="fill:#d45b89"/><path d="M92.3 17.8s-1.8-1.2-4-1.4-6.3 1.9-8 4.1a38 38 0 0 0-5 12.6c-.3 2.3-.3 13.8.5 16l.8 2.3s11-9.4 11.1-11 4.6-22.6 4.6-22.6" style="fill:#6d4c42"/><path d="M97.8 23.8s-4.2-6.6-6.6-6.3c-2.5.3-6.1 4.7-8 8.6s-1.9 5.1-2.4 8-1.4 14-1.4 14l13-14.6z" style="fill:#9c6c3b"/><path d="M73.6 53s-9.4-12.8-23-4.2c-10.4 6.6-4.8 23-4.8 23l6.3-4.1z" style="fill:#db0d28"/><path d="M47.3 67.6c-.8-.8-.7-7.2.2-10 .8-2.9 3.1-7 4.8-7s7.7 8.3 7.7 8.3.4 1 0 1.5-1.7 0-2-.3l-3.5-3s-1 1.2-1.4 3.3-.2 3.8-.2 3.8l5.7.4-4.6 4s-5.9-.1-6.7-1m17.1-19c-1.1.3-2.1 2.6-2.8 4.8-.8 2.7-1 5-.8 5.5s1 1.1 1.8.5c.7-.7 1.9-4.7 1.9-4.7s1.5.9 2.4 1.7q1.4 1.5 1.5 1.4l4-3s-1.7-2.1-3.4-3.6c-1.6-1.6-3.8-2.8-4.6-2.6" style="fill:#ff6362"/><path d="M48.2 58.2q-1 1.6 1 2.6c2 1 2.2.4 2.6-.5.5-.8-.2-1.6-1.1-2.2q-1.5-.8-2.5 0m3.1-4.8c-.7.8-.4 2 .3 2.6s1.7 1 2.5.3c1-1 .2-2.2-.3-2.6s-1.6-1.1-2.5-.3m13.2-1.7c-.3.8-.3 2 .5 2.3.7.3 1.7-.2 2-1.1q.6-1.7-.4-2.2-1.1-.7-2 1M47.9 63.4c-.5.8 0 2 1.4 2.4s1.7-.3 1.9-.9q.3-1-1.3-1.8-1.5-.6-2 .3" style="fill:#f2a65d"/><path d="M6.6 80.8c-.2 2 2.8 3.3 8 2.8S37.2 79.5 49 74a199 199 0 0 0 34.7-24.8c4.6-4.5 17.6-22.6 17-27-.5-3-3.3-2.5-4.2-1.3s.7 1.5-.7 3.6S90.4 34.7 81 44.7c-7.4 7.9-25.1 22-37.7 26.6s-16.5 5.6-19 6.2-14 2.3-14.6 2.3-2.8-1.6-3 1" style="fill:#feebcc"/></svg>