<svg xml:space="preserve" width="16" height="16" viewBox="0 0 128 128"><path d="M74.3 112.3a51 51 0 0 0-20.6 0c-2.5 2-5 3.9-6.3 5.8-.7 1-.4 2.5.5 3 2.3 1.2 7.2 3 16.1 3s13.8-1.8 16-3c1-.5 1.3-2 .6-3-1.4-2-3.8-3.8-6.3-5.8" style="fill:#723f22"/><path d="M88.5 39.6c-2.4-.7-8.4-2-9.8-5.8-1.6-4.2 1.8-24.5 1.8-24.5h-33s3.7 19.2 1.8 24.5c-1.3 3.8-7.4 5-9.8 5.7s-14 1.2-12.3 22.3c1.5 20.3 25 51.8 25 51.8s1.3 2.9 11.8 2.9 11.7-3 11.7-3 23.6-31.4 25.1-51.7c1.6-21.1-9.9-21.6-12.3-22.2" style="fill:#ff7e45"/><path d="M55.6 117.2q.5.2.8.6t.4 1l.1 1.5q.1.8-.4 1.2l-.5.1q-3 .2-5.5-1.3-.9-.3-1.2-1.1 0-.6.4-1.2l1.3-1.7c1.3-1.4 3.2.3 4.6 1" style="fill:#a15d38"/><path d="M43.6 4C41.2 4 41 6.3 42 7.7c1.9 3 4.4 4.9 5.7 5.8 1.4.8 4.5 1.3 16.3 1.3s15-.9 16-1.4c1.2-.4 4.5-3 6.2-6.2.6-1.3.5-3.1-1.4-3.1zm54 71c-23.2 3-43.9 3.2-67.1.1l1.7 4.4q31.9 4 63.7-.1zm-67.9-2-.4-1.4q0 .7.4 1.3m69.2-1.6-.5 1.5zm2.1-12-6 .6-1.6 11.6 5.6-.6q1.5-4.7 1.8-9c.2-2.5.1-2.6.1-2.6m-.5-7.9.3 1.9zm.5 4.3v-.8zM43.1 58c7 .7 10.4.9 17.4 1l.1 10h-4.2l-.2-6.2c-3.4-.1-5-.2-8.4-.5l.9 11.4c7.2.5 10.8.6 18 .5L67 59c7-.1 10.4-.3 17.4-1l-1 10.1-4.2.4.5-6.2-8.4.5-.4 11.3A156 156 0 0 0 89 72.5l2-15.3 10-1.5-.2-2.4-.3-2a279 279 0 0 1-72.8.3l-.5 4.3 9.5 1.4L38 67.5l-4.3-.6-.9-6.3c-2.7-.4-3.3-.4-5.6-.9l.1 2.1q.4 4.5 2 9.4c5.3 1 9.2 1.5 15.4 2.1zm22.3 30.4c-12.7 0-24.7-1.7-30.2-2.6l-1-2.2c4.7.8 17.5 2.8 31.2 2.8 13.5 0 24.4-2 28.5-2.7l-1 2.2c-5 1-15.2 2.5-27.5 2.5" style="fill:#723f22"/><path d="M50 10.2c4.4.5 7.6-.1 12.1-1.6 1.2-.4 1-2.2-.3-2.2l-6.6-.1-9.1-.4c-2 0-1.9 2.2-.2 3.1.6.3 1.8 1 4 1.2" style="fill:#a15d38"/><path d="M81.2 36.7q-1.8-1.1-2.5-2.9a30 30 0 0 1-.1-9.8 82 82 0 0 1-29 0 27 27 0 0 1-.3 9.8 6 6 0 0 1-2.4 3 71 71 0 0 0 34.3 0M28.9 47.3c-.2-1-1.2-8-1.3-10q-.4-6 .5-11.9c.5-3 1.6-6.5 4.1-8.6q3-2.3 6.8-1.4c3 .6 5.6 2.5 7.7 4.6 1 1 3 3.1 3.8 7.3.6 2.7.7 7.9-2.2 9.4q-.9.4-1.5 0c-.3-.3.1-3.4-.5-6.3-.6-3.2-5.6-11.8-10-10.2-2 .8-2.8 3-3 4.8-1 6.6.2 11.4 1.4 15.4.2.6.8 1.5.6 2.1-1.4 3.9-6.4 5.2-6.4 4.8m70.2 0c.2-1 1.2-8 1.3-10q.4-6-.5-11.9c-.5-3-1.6-6.5-4.1-8.6a8 8 0 0 0-6.8-1.4c-3 .6-5.6 2.5-7.7 4.6-1 1-3 3.1-3.8 7.3-.6 2.7-.7 7.9 2.2 9.4q.9.4 1.5 0c.3-.3-.1-3.4.5-6.3.7-3.2 5.6-11.8 10-10.2 2 .8 2.8 3 3 4.8 1 6.6-.2 11.4-1.4 15.4-.2.6-.8 1.5-.6 2.1 1.4 3.9 6.4 5.2 6.4 4.8" style="fill:#723f22"/><path d="M34.7 16.5c2-.9 5.1-.4 6.7.8s1 1.6-.4 1.4q-2.2-.5-4.5-.2-3.5.6-5 4.7c-1 2.3-1.5 5.9-2.2 5.9-.4 0-.5-1.4-.2-3.2.5-4.1 1.8-7.7 5.6-9.4m14.6 17.3c-.4 1.4-1.5 2.3-.8 2.4q3.9 1.1 7.8 1.1.6 0 1.1-.2 1.1-.5 1.3-2.2.3-2.3.2-4.8c0-1.1.1-3-1-3.6q-.7-.5-1.7-.6l-4.8-.6c-.4-.1-1.7-.2-1.6 1 .2 4.1.1 5.8-.5 7.5" style="fill:#a15d38"/><path d="M89 41.2q-2.8-.9-5.5-2c-.7-.4-1.7-1.4-3.9-.7-6 1.8-12 1.7-15.6 1.8-3.7 0-9.5 0-15.6-1.8-2.2-.7-3.2.3-3.9.6q-2.7 1.4-5.5 2c-1.2.4-1.6 1.5.6 2.2 3.8 1.2 12 3 24.4 3s20.6-1.8 24.5-3c2-.7 1.7-1.8.5-2.1" style="fill:#ffa364"/></svg>