<svg xml:space="preserve" width="16" height="16" viewBox="0 0 128 128"><path d="M74.4 5.4S92.8 4.2 109 26.5a54 54 0 0 1-2.8 62c-10.8 11.6-20.3 15-30.5 16S52 56.8 52.7 55.2z" style="fill:#db0d2a"/><path d="M53.9 6.7c0-.4 5.8-2 5.8-2s13.1-1 20.2 2c7.2 3 22 11.9 27.2 32.4 4.5 18.3 2.2 42.2-16.5 58.2-15.7 13.4-41.3 6.9-41.3 6.9z" style="fill:#871e0e"/><path d="M98.7 51.4c.3.6 3.9 10.7 6 16 2.4 5.9 5 10.7 6.6 13.4l4.7 8 1.5-5.8s-5.5-9.8-8.5-17.4c-2.4-6-4-9.8-5.1-13.3-1.3-4-2.8-11-5-13.1s-.2 12.2-.2 12.2M66 111.8s5.1.4 5.9.9c1.6 1 1.7 1.2 1.7 1.2l6.4 1.5s0 2.7 2.6 2.7c2 0 3-1.8 3-1.8s2.3.7 5.3 1.3c3 .5 4.8-1.2 4.8-1.2s.7-1.4-1.7-1.8c-2.5-.3-4.7-1-4.7-1l1.3-.5c.8-.4 1.4-2.2 1.2-2.5-.4-1-2.4-.7-2.4-.7s-1.6.6-2.5.7l-3.4.5-1.5.3-3.1-1s-5-1.5-7.9-1.6-5 3-5 3" style="fill:#c0b3ae"/><path d="m89.4 109.8 1 1.5c.2.6.2 1.8.2 1.8s1.4-.5 3.2-1.7c1.4-.9 2.8-2 2.9-3.2 0-1.2-1-2.3-2.2-1.8-.6.3-1.1 1.2-2.4 2zm4.6 4.8-3.7 2.9s8.9 1.9 17.6-.1c3.2-.8 10.4-3.1 14-9a19 19 0 0 0 1.6-13.8c-1.2-4.6-6.3-12.2-6.3-12.2L116 84c-.8 1-1.3 2.5-1.3 2.5s8.6 12.6 3.7 19.7c-7.5 10.8-24.3 8.5-24.3 8.5m-12.7-3.5s1.1-2.2 3.3-1.7c1 .1 1.3 1.2 1.3 1.2a8 8 0 0 1-2.2 3.4c-1.5 1.4-3.9 1.3-3.9 1.3s-6.2.5-10.6 2.8-19.4 11.7-22.4 2.7c-2.5-7.6 7.3-11.8 13.4-12.4s11.5.3 11.5.3l-5.7 3c-.2 0-9.4-.3-13.5 3.1s-1.4 6.3 1.2 5.7c5.2-1.1 14.1-7 19.3-8.3 4.9-1.3 8.3-1.1 8.3-1.1" style="fill:#d8ccc7"/><path d="M55.1 4.4C26.3 5.4 9 29.8 9 55.9c0 24.5 18 47.8 43 49 27.5 1.4 51.1-17 50.6-50.8-.5-32.6-23.4-50.6-47.5-49.7" style="fill:#db0d2a"/><path d="M21 54.8C21 81.2 39.8 91 50.7 91.5c12.7.7 34-7.2 34.3-34.7a34.3 34.3 0 0 0-31.4-36.1 33.5 33.5 0 0 0-32.6 34" style="fill:#ff5f5f"/><path d="M30 19.5c1 1.3 3.5-2.6 12.7-4.3 7.6-1.4 15.2-.8 21.6 1.2 7.3 2.3 10.5 7 13.1 2.8 2.5-3.9-3-7.2-11-9.2A43 43 0 0 0 40 11.9c-5.7 2.4-10.7 6.7-10.1 7.6m50.5 2.7c-1.2 1.6-.5 3.6 1.2 4.9 1.7 1.2 3.5 1.6 4.9 0 1.3-1.5.4-3.9-1.3-5.1q-3.2-2-4.8.2" style="fill:#fff"/></svg>