<svg xml:space="preserve" width="16" height="16" viewBox="0 0 128 128"><linearGradient id="a" x1="99.5" x2="122.8" y1="53.9" y2="36" gradientUnits="userSpaceOnUse"><stop offset="0" style="stop-color:#d07753"/><stop offset=".2" style="stop-color:#da8543"/><stop offset=".7" style="stop-color:#f3a818"/><stop offset=".8" style="stop-color:#ffb903"/></linearGradient><path d="M99.7 46.5s4.4 1 7.4-1.9c4.5-4.1 3.7-6.2 6.6-12.5s9.3-6.7 10.6-6.7 2.9.2 2.9.9-2.3 2.5-3.7 6.8-1.4 13.4-5.2 18c-3.7 4.6-7.1 6.2-11 6.6s-7.6-11.2-7.6-11.2" style="fill:url(#a)"/><path d="m46.2 78.4-10.2.3-.3 14.7c0 3.7.4 12.9-.2 14.2-1 2.3-2.4 3-2.9 4s-.8 3.4 1.2 4.2 5.9-.4 7.7-1.4 3.2-2.4 3.3-3c.5-1.6 1.4-15.7 1.4-18.7.1-5.3 0-14.3 0-14.3m32.7-5.6s-.1 4.8 1 10c.9 3.4 4.1 8.8 3.8 12.9q-.6 6-3.4 9.3c-1.8 2.1-1.5 4.5-1 5s2.8 1.6 6.4 1c2.9-.3 4.1-1.6 4.4-2.2a325 325 0 0 0 8-31.4c0-.3-6.9-11.8-6.9-11.8z" style="fill:#d1775b"/><path d="M44.3 33.4s5.8 6 7 6.5 16-.6 24.8-.3 15.2.7 19.9 3.1 10.5 3.6 13.2 19.4 1 16.8 2.3 19.6c1.4 2.8 4.6 12 5 13.8s.7 15.7-.2 17.5-3 3.7-5.8 3.7-5.4-.3-5.5-2.7c0-2.2 1.6-3.1 2-4.2.2-1.1.6-10.4.1-11.8s-7.6-9.5-11.4-13.5-6.9-13-6.9-13-7.6 2.5-11.4 5-8 5.6-9.5 6.6c-1.4 1-2.6 1.5-2.6 1.5s.4 7.3.1 12.7-.8 16.8-2 18.6-4.1 4.2-8 4-3.9-2-2.3-5.7 1.7-3.6 1.7-4.5L54.6 94a23 23 0 0 0-1.1-6.7c-.5-.4-7.5.9-14.2-3.3S29 72.3 27.8 67.9C26.5 63.5 24.6 54.7 24 53l-3-10.5c-.5-1.6-1.1-5-1.1-5s-8 0-10.2-.4-5.3-2.3-6.3-4c-.9-1.5-3-6.2-2-9 .6-1.8 4.3-2.5 5.8-2.8s4-.6 4.6-1.4c.5-1 2.2-6 5-8 2.7-1.8 10.4-3.7 16-1.6s7.9 9 7.9 9z" style="fill:#ffb903"/><path d="M44.3 34.7s-6.6 5-15 10c-2.9 1.7-6.8 3.1-7.1 3.6s1 4.6 1.7 4.9 3-.9 8.2-3.7q5-2.6 7.3-4.5c5.6-4.2 9-7.3 9.1-7.8S46 34.4 46 34.4z" style="fill:#0ac2e7"/><path d="M35.3 17.7c-.7-.3-2.4 1.8-3.5 3.7a34 34 0 0 0-4.2 11.4c-.7 4-.7 8.2 1.4 9.1q3.6 1.3 9.4-.8c4.4-1.5 9.9-3.7 10.1-6.3.2-2.2-1.4-5-1.4-5l-11.8-9.3s.7-2.5 0-2.8m22.8 37.7-19 4.3-13 2.2.6 2s6.5.6 14.6-.1c8.7-.7 20.1-4.3 20.1-4.3z" style="fill:#d27854"/><path d="M24.5 21.3c-.2 1.6-1.3 2.9-2.9 2.6q-2.2-.6-2-3.4c.1-2 1.5-2.8 2.9-2.6s2.3 1.7 2 3.4" style="fill:#07000d"/><path d="M5.3 27.4s2.9-.2 2.9-2.3-2.7-2.5-4.1-2.4c-1.4 0-3.3.8-3.5 2.3-.1 1.5 2.2 2.5 2.2 2.5s0 1.9-.3 2.4c-.4.8-1 1.6 0 2.3.6.5 1.4-1.1 1.4-1.1s1.2 2.3 3.5 3.3 4.6.5 5.2.5c1 0 1.4-1.6-.1-1.6s-3.1 0-4.3-.6-2.4-1.9-2.7-2.7-.2-2.6-.2-2.6" style="fill:#54656b"/><linearGradient id="b" x1="38.9" x2="38" y1="44.9" y2="18.7" gradientUnits="userSpaceOnUse"><stop offset=".1" style="stop-color:#d07753"/><stop offset=".2" style="stop-color:#da8542"/><stop offset=".4" style="stop-color:#ea9c27"/><stop offset=".5" style="stop-color:#f6ac13"/><stop offset=".7" style="stop-color:#fdb607"/><stop offset=".9" style="stop-color:#ffb903"/></linearGradient><path d="M36.2 16.6s4.3-1.8 5.8-.3 3.2 7.7 4.4 11c.9 2.4 1.7 4.5 1.2 5.6-1.2 2.8-5.7 4.7-8.3 5.6-2.7 1-6.9 2.4-8.8 1s-1-6.8.2-10.4a76 76 0 0 1 4.8-10c.4-.7.6-2.5.6-2.5" style="fill:url(#b)"/><path d="M24.6 57c-.4.4.4 4.7 1 5 .7.4 13.4 0 17.5-.5 4.7-.7 13.9-2.7 13.9-2.7l4.2 8.1s3.6 7.1 3.8 9.3c.3 2.4.4 8.5.4 8.5l.9-.5s.1-23.6-.4-30.5l-1-14.2c0-.4-3.6-.3-5.9-.1s-3 .5-3 .5v12.5s-3.9 1.4-6.6 2c-2.9.6-7.5 1.6-10.5 1.8-4.8.3-14 .4-14.3.8" style="fill:#865953"/><path d="M54 39.4s1.3 19.2 1.6 19.5 1 .3 1.4.6 3.9 6.8 3.9 6.8-1.2-26.3-1.4-26.8c-.3-.6-2-.3-3-.3s-2.4-.3-2.4.2" style="fill:#6e4a3a"/><path d="M50.6 39.4S73 25.6 73.8 24.7 83 12.7 85.3 11c2.3-2 5.6-2.2 7.8-.5 1.8 1.3 3.4 3.7 2 6.6A134 134 0 0 1 85 33.6 421 421 0 0 1 65.1 49l-6 7.8c-1 1.3-2.3 1.5-3 .9q-1.5-1.5.6-4c1.3-1.7 6.6-7.3 6.6-7.3s18.6-13.2 19.6-14.6 8.7-14 9-14.6c1-1.4.6-3.5-.7-4.4s-3.4-.4-4.3.5c-1 1-10.1 12.1-11.1 13.4s-20 12.6-20 12.6l-1.5.1c-.3.1-.2.6-.2.6h-2.6z" style="fill:#abb0b1"/></svg>