<svg xml:space="preserve" width="16" height="16" viewBox="0 0 128 128"><path d="M73 8c-14 4.2-20.7 17.2-16.4 31.7l14.8 50c.3.8 6.7-1 6.4-2L63 37.7c-2.7-9 0-19.7 11.9-23.3 8-2.4 17.9 0 21.9 13.3l19.5 65.8c2.2 7.6 1.4 17.5-8.4 20.4-10.6 3.1-15.3-8.6-16.9-13.7L79.6 61.6c-1.5-5-2.8-13.7 5-16 2.2-.6 8-2.4 12 10.8l7.1 23.4c.2.8 6.7-1 6.4-2L103 54.6c-2.2-7.3-7.8-19-20.3-15.3-9.5 2.8-13 12.1-9.5 24.3L84.7 102c4.3 14.5 14 21.5 25.1 18.2 11.6-3.4 16.9-15.2 12.9-28.7l-19.5-65.8C98.8 11.1 86.7 4 73 8" style="fill:#82aec0"/><path d="M81.7 47c-6.3 3-5 10.9-3.6 15.5l11.4 38.6c1.6 5.2 6.3 16.9 16.9 13.7a14 14 0 0 0 4-2q-1.1.7-2.5 1.1c-10.6 3.2-15.3-8.6-16.8-13.7L79.6 61.6c-1.2-4.2-2.4-11.1 2-14.5M69.3 17c-8.5 4.5-10.2 13.8-7.9 21.7l14.9 50v.1q1.6-.6 1.5-1L63 37.7c-2.2-7.5-.8-16 6.3-20.8m53.4 74.7-19.5-65.8C98.8 11.1 86.7 4 73 8c-2.7.8-.2.1.6 0 12.7-2.6 23.9 5 28 18.8l19.5 65.8c3.3 11 .3 21-7.3 26 8.7-4.6 12.4-15.2 8.9-27m-40-52.4q-2.6.8-4.6 2.2 1.5-.8 3-1.2c12.5-3.7 18.1 8 20.3 15.2l7.2 23.6s1.7-.5 1.4-1.2l-5.7-19.3-2.2-6.6c-2.6-7-8.3-16-19.4-12.7" style="fill:#2f7889"/><path d="M73.5 15.6q-3.3 1.6-5.4 3.9c4.6 4.7 4.2 12.1 1.9 18l-24.9 64c-5 13-15.1 14.4-22.9 11.4-11.6-4.5-13.3-15.5-10-24.3l19-48.5c.3-.9-5.9-3.3-6.2-2.5L6 86.2c-5.4 14.1.2 27.6 13.8 32.9 13.3 5.2 26-1 31.5-15.3l25-63.9c3.6-9.4 2.4-18.4-2.8-24.3m-6.7-4.9-1-.4c-11-4.3-21.1 1.9-26.6 16L24.6 64c-4.6 11.8-1.7 21.3 7.5 25 12 4.6 18.6-6.5 21.4-13.6l9-22.7c.4-1-5.9-3.2-6.2-2.5l-9 22.7c-5 12.8-10.7 10.6-12.8 9.8-7.6-3-5.6-11.5-3.7-16.3l14.6-37.5c1.8-4.6 6.7-14.4 15.4-13 0 0 2.8-3.3 6-5.1" style="fill:#94d1e0"/><path d="M29.2 87.4q1.3.8 2.9 1.4c9.9 3.9 16-3 19.5-9.4 0 0 1.4-2.7 3-6.6l8-20.2c0-.6-1.6-1.4-1.6-1.4l-9.2 23.2c-2.8 7-9.3 18.2-21.4 13.5zm31.9-72c-10-3.5-15.5 7.5-17.4 12.5L29.1 65.4c-1.8 4.7-3.8 13 3.4 16.1-5.2-3.6-3.4-10.9-1.7-15.2l14.6-37.5c1.8-4.6 6.7-14.4 15.4-13zM29.5 39.1l-19 48.6c-3.2 8.4-1.8 18.6 8.3 23.5-8.5-5.2-9.6-14.7-6.5-22.5L31.2 40q0-.5-1.6-1.3zm44.7-22.6L73.1 15s-3.9 1.5-5.9 3.6c0 0 1.4 1.3 2.3 2.7 0 0 .2-1.6 1.8-2.2 3.3-1.2 4.4 2.9 4.6 3.5Q78 30 74.5 39l-24.9 63.9c-5.6 14.3-18.2 20.4-31.5 15.3l-2.4-1.1q1.9 1.2 4 2c13.4 5.2 26-1 31.6-15.3l25-63.9c3.4-9 2.5-17.7-2-23.4M64.5 66l1.4 5s-.6-2.3 1-4.2c1.3-1.5 2.5-1.4 2.5-1.4L68 57.6z" style="fill:#2f7889"/><path d="M57.3 36.5c-.6-3.5-2-12.6 4.2-19.6.5-.6 2.3-2.6 3.2-1.3.8 1.2-.9 2.4-1.3 3-5.4 6-4.4 15.2-3.8 18.4 0 .6.4 1.8-.4 1.8-1.2 0-1.8-1.6-1.9-2.3" style="fill:#b9e4ea"/><path d="M37.7 36.9c-.8-.1-.7-1.5-.5-2.2 1-2.6 3.3-9.3 5.8-13.8a22 22 0 0 1 6-7.2q2.2-1.5 2.8-.1c.3.6-.7 1.7-1.2 2.1a19 19 0 0 0-5.4 6.5 108 108 0 0 0-5.9 13.2c-.2.6-.7 1.6-1.6 1.5m-7 47.8c.3-1.6 2.5-1 3.1-.9 1.4.5 4 1.2 6.7.2 3-1 4.7-3.5 6.6-7.6q.5-1 1.6-.7 1 .5.6 1.7-3.1 7.4-8.7 9.2c-4.7 1.4-10.4.7-9.9-2" style="fill:#d6f1f2"/><path d="M100.8 119.4c-9.3-1.7-13.5-12.6-14.7-16.4-.2-.6-1.4-4 .3-4.4 1.4-.2 2 3 2.1 3.7 1.1 3.3 5 13 12.7 14.6 3.3.6 5.9-.6 5.6.4-.5 1.8-4.2 2.4-6 2M74.2 62.8c-1.4-5.8-2-11.4.7-15.8q.8-1 1.8-.4.8.7.3 1.7c-2.1 3.6-2.2 6-1.3 12.5.5 2.8 1 5.5.3 5.8s-1.5-2.3-1.8-3.8" style="fill:#b9e4ea"/></svg>