<svg xml:space="preserve" width="16" height="16" viewBox="0 0 128 128"><radialGradient id="a" cx="63.5" cy="2521.6" r="56.9" gradientTransform="translate(0 -2458.67)" gradientUnits="userSpaceOnUse"><stop offset=".5" style="stop-color:#fff"/><stop offset=".8" style="stop-color:#fdfdfd"/><stop offset=".9" style="stop-color:#f6f6f6"/><stop offset="1" style="stop-color:#e9e9e9"/><stop offset="1" style="stop-color:#e0e0e0"/></radialGradient><path d="M63.5 7c-30 0-58 20-58 55.8 0 36.1 27.9 56 58 56s58-19.4 58-56c-.1-36.2-28-55.8-58-55.8" style="fill:url(#a)"/><radialGradient id="b" cx="99.5" cy="-62.3" r="21" gradientTransform="matrix(1 0 0 -.73 0 26.24)" gradientUnits="userSpaceOnUse"><stop offset="0" style="stop-color:#ed7770"/><stop offset=".1" style="stop-color:#ed7770;stop-opacity:.97"/><stop offset=".2" style="stop-color:#ed7770;stop-opacity:.88"/><stop offset=".3" style="stop-color:#ed7770;stop-opacity:.74"/><stop offset=".5" style="stop-color:#ed7770;stop-opacity:.55"/><stop offset=".7" style="stop-color:#ed7770;stop-opacity:.29"/><stop offset=".9" style="stop-color:#ed7770;stop-opacity:0"/></radialGradient><ellipse cx="99.5" cy="71.8" rx="19.3" ry="14.8" style="fill:url(#b)"/><radialGradient id="c" cx="29.2" cy="-62.3" r="21" gradientTransform="matrix(1 0 0 -.73 0 26.24)" gradientUnits="userSpaceOnUse"><stop offset="0" style="stop-color:#ed7770"/><stop offset=".1" style="stop-color:#ed7770;stop-opacity:.97"/><stop offset=".2" style="stop-color:#ed7770;stop-opacity:.88"/><stop offset=".3" style="stop-color:#ed7770;stop-opacity:.74"/><stop offset=".5" style="stop-color:#ed7770;stop-opacity:.55"/><stop offset=".7" style="stop-color:#ed7770;stop-opacity:.29"/><stop offset=".9" style="stop-color:#ed7770;stop-opacity:0"/></radialGradient><ellipse cx="29.2" cy="71.8" rx="19.3" ry="14.8" style="fill:url(#c)"/><radialGradient id="d" cx="65.9" cy="68.9" r="20" gradientTransform="matrix(1 0 0 -1 0 130)" gradientUnits="userSpaceOnUse"><stop offset="0" style="stop-color:#ff4900"/><stop offset=".4" style="stop-color:#fe4700"/><stop offset=".6" style="stop-color:#fa3f00"/><stop offset=".8" style="stop-color:#f43100"/><stop offset=".9" style="stop-color:#eb1e00"/><stop offset="1" style="stop-color:#e30c00"/></radialGradient><circle cx="64" cy="66.9" r="14.6" style="fill:url(#d)"/><linearGradient id="e" x1="25.1" x2="25.1" y1="126.3" y2="86.2" gradientTransform="matrix(1 0 0 -1 0 130)" gradientUnits="userSpaceOnUse"><stop offset="0" style="stop-color:#ff4900"/><stop offset="1" style="stop-color:#e30c00"/></linearGradient><path d="M38.6 5.2c-3.7 0-7 2.5-8 6A14.4 14.4 0 0 0 8.7 28.6a10 10 0 1 0 14.6 8.9v-.2c7.5-.7 13.2-7 13.2-14.4v-1.4l2.1.3a8.3 8.3 0 0 0 0-16.6" style="fill:url(#e)"/><path d="M111.5 29.7a57 57 0 0 1 8.1 30.2c0 16.9-6.1 31.2-17.6 41.4a61 61 0 0 1-40.4 14.5 59 59 0 0 1-48.2-23 58 58 0 0 0 50.2 26c15.4 0 29.8-5.2 40.4-14.5a54 54 0 0 0 17.6-41.4q-.1-19.2-10.1-33.2" style="fill:#adbcc3"/><linearGradient id="f" x1="103.3" x2="103.3" y1="126.3" y2="86.2" gradientTransform="matrix(1 0 0 -1 0 130)" gradientUnits="userSpaceOnUse"><stop offset="0" style="stop-color:#ff4900"/><stop offset="1" style="stop-color:#e30c00"/></linearGradient><path d="M119.7 28.6a14.5 14.5 0 0 0-22-17.3A8.3 8.3 0 1 0 92 21.5V23c0 7.5 5.7 13.7 13.1 14.4v.2a10 10 0 1 0 14.6-9" style="fill:url(#f)"/><path d="M44 41c-4.2 0-8 3.5-8 9.4s3.8 9.4 8 9.4 8-3.6 8-9.4-3.8-9.5-8-9.5" style="fill:#422b0d"/><path d="M43.7 44.9a3 3 0 0 0-3.9 1.3q-.7 1.8.6 3.3a3 3 0 0 0 3.9-1.3 3 3 0 0 0-.6-3.3" style="fill:#896024"/><path d="M85.4 41c-4.2 0-8 3.5-8 9.4s3.8 9.4 8 9.4 8-3.6 8-9.4-3.8-9.5-8-9.5" style="fill:#422b0d"/><path d="M85 44.9a3 3 0 0 0-3.8 1.3q-.7 1.8.6 3.3c1.4.7 3.1 0 3.8-1.3.5-1.1.3-2.5-.6-3.3" style="fill:#896024"/><linearGradient id="g" x1="36.7" x2="91.8" y1="37.1" y2="37.1" gradientTransform="matrix(1 0 0 -1 0 130)" gradientUnits="userSpaceOnUse"><stop offset="0" style="stop-color:#ff4900"/><stop offset="1" style="stop-color:#e30c00"/></linearGradient><path d="M64.3 101.4c-12.8 0-21.9-6.6-24.6-10.7a5 5 0 0 1-.6-4.7 3 3 0 0 1 2.7-1.6l1.2.2a72 72 0 0 0 42.5 0l1.2-.2a3 3 0 0 1 2.7 1.6q1 2.4-.6 4.7c-2.7 4.1-11.8 10.7-24.5 10.7z" style="fill:#422b0d;stroke:url(#g);stroke-width:4;stroke-miterlimit:10"/></svg>