<svg xml:space="preserve" width="16" height="16" viewBox="0 0 128 128"><path d="M116 4H12a8 8 0 0 0-8 8v104a8 8 0 0 0 8 8h104a8 8 0 0 0 8-8V12a8 8 0 0 0-8-8" style="fill:#f77e00"/><path d="M109.7 4H11.5A7.6 7.6 0 0 0 4 11.5v97.9c0 4.1 3.3 7.5 7.5 7.5h98.1c4.1 0 7.5-3.3 7.5-7.5V11.5c0-4-3.1-7.4-7.2-7.5z" style="fill:#ff9800"/><path d="M39.7 12.9c0-2.3-1.6-3-10.8-2.7-7.7.3-11.5 1.2-13.8 4s-2.9 8.5-3 15.3c0 4.8 0 9.3 2.5 9.3 3.4 0 3.4-7.9 6.2-12.3 5.4-8.7 18.9-10.6 18.9-13.6" style="opacity:.75;fill:#ffbd52"/><path d="M103.4 33.1v53.3a2 2 0 0 1-2 2h-5.6a2 2 0 0 1-2-2v-1a2 2 0 0 0-2-2H70.3a2 2 0 0 0-2 2V108a2 2 0 0 1-2 2h-5.6a2 2 0 0 1-2-2V85.4a2 2 0 0 0-2-2H35.8a2 2 0 0 0-2 2v1.5a2 2 0 0 1-2 2h-5.2a2 2 0 0 1-2-2V33.1q.2-1.8 2-2h30a2 2 0 0 0 2-2V20q.2-1.8 2-2h5.6a2 2 0 0 1 2 2v9.1q.2 1.8 2 2h31.1a2 2 0 0 1 2.1 2m-69.6 9v8.5q.2 1.8 2 2h20.8a2 2 0 0 0 2-2v-8.5a2 2 0 0 0-2-2H35.8c-1 0-2 1-2 2m24.8 30.4v-9.2a2 2 0 0 0-2-2H35.8a2 2 0 0 0-2 2v9.2q.2 1.8 2 2h20.8a2 2 0 0 0 2-2m9.7-30.4v8.5q.2 1.8 2 2h21.5a2 2 0 0 0 2-2v-8.5a2 2 0 0 0-2-2H70.3a2 2 0 0 0-2 2m25.4 30.4v-9.2a2 2 0 0 0-2-2H70.3a2 2 0 0 0-2 2v9.2q.2 1.8 2 2h21.5c1 0 1.9-1 1.9-2" style="fill:#fafafa"/></svg>