<svg xml:space="preserve" width="16" height="16" viewBox="0 0 128 128"><path d="M64.6 4.9c-41 0-40.7 35.9-40.7 36.5 0 24.6 1.9 59.2 11.7 72.9C39.5 119.7 47 120 47 120h34s7.5-.3 11.4-5.7c9.8-13.7 11.7-48.3 11.7-73 0-.5 1.5-36.4-39.5-36.4" style="fill:#232020"/><radialGradient id="a" cx="64" cy="68.5" r="47" gradientTransform="matrix(1 0 0 -1.19 0 141.02)" gradientUnits="userSpaceOnUse"><stop offset=".8" style="stop-color:#444140;stop-opacity:0"/><stop offset="1" style="stop-color:#444140"/></radialGradient><path d="M64.6 4.9c-41 0-40.7 35.9-40.7 36.5 0 24.6 1.9 59.2 11.7 72.9C39.5 119.7 47 120 47 120h34s7.5-.3 11.4-5.7c9.8-13.7 11.7-48.3 11.7-73 0-.5 1.5-36.4-39.5-36.4" style="fill:url(#a)"/><path d="M73.8 89.2H54v19.5c0 4.9 4 8.8 9 8.8h1.7c5 0 9-4 9-8.8z" style="fill:#3c2b24"/><path d="M64 16.2c-17.2 0-33.2 12.8-33.2 40A40 40 0 0 0 56.1 95a24 24 0 0 0 7.8 1.5q3.6 0 7.9-1.5a40 40 0 0 0 25.3-39c0-27-16-39.9-33.1-39.9" style="fill:#70534a"/><path d="M67.8 68.2H60q-1 .6-.6 1.6c.4 1 1.6 2.7 4.4 2.7a5 5 0 0 0 4.5-2.7q.4-1-.6-1.6" style="fill:#33251f"/><ellipse cx="47.7" cy="59.1" rx="4.9" ry="5" style="fill:#1a1717"/><ellipse cx="80.2" cy="59.1" rx="4.9" ry="5" style="fill:#1a1717"/><path d="M55 50c-1-1.2-3.1-3-7.3-3s-6.3 1.8-7.2 3q-.5.9 0 1.6.5.6 1.8.3c1.3-.3 2.6-1.1 5.4-1.1s4.5.9 5.3 1.1 1.7 0 2-.3q.4-.6 0-1.6m32.4 0c-.9-1.2-3-3-7.2-3s-6.3 1.8-7.2 3q-.5.9 0 1.6.4.6 1.9.3c1.5-.3 2.5-1.1 5.3-1.1s4.5.9 5.4 1.1 1.6 0 1.9-.3q.4-.6 0-1.6M72.3 76.3a25 25 0 0 1-16.6 0c-1.9-1-3.7.6-3 2.2S59.2 84 64 84s10.4-3.8 11.1-5.4c.8-1.6-1-3.2-2.8-2.2" style="fill:#1a1717"/><path d="M114.5 121c0-14.6-21.8-21.6-40.8-23.1l-8.6 11q-.4.6-1.1.6t-1.2-.6l-8.6-11c-10.6.8-40.7 4.7-40.7 23v3.1h101z" style="fill:#212121"/><radialGradient id="b" cx="63.9" cy="5.4" r="54.2" gradientTransform="matrix(1 0 0 -.525 0 125.44)" gradientUnits="userSpaceOnUse"><stop offset=".6" style="stop-color:#212121"/><stop offset="1" style="stop-color:#616161"/></radialGradient><path d="M114.5 121c0-14.6-21.8-21.6-40.8-23.1l-8.6 11q-.4.6-1.1.6t-1.2-.6l-8.6-11c-10.6.8-40.7 4.7-40.7 23v3.1h101z" style="fill:url(#b)"/><path d="M64.6 4.9c-41 0-40.7 35.9-40.7 36.5q0 11.9.7 25.3h6.8c-.1-3 2-21 8-22.3 22.4-5 35-17 35-17 3.3 7.2 13.6 14.3 17.3 17 3 2.1 4.3 18.5 4.2 22.3h7.4v-.2c.6-8.7.8-17.4.8-25.1 0-.6 1.5-36.5-39.5-36.5" style="fill:#232020"/><radialGradient id="c" cx="64.3" cy="65.4" r="49.8" gradientTransform="matrix(1 0 0 -1.214 0 141.97)" gradientUnits="userSpaceOnUse"><stop offset=".8" style="stop-color:#444140;stop-opacity:0"/><stop offset="1" style="stop-color:#444140"/></radialGradient><path d="M64.6 4.9c-41 0-40.7 35.9-40.7 36.5q0 11.9.7 25.3h6.8c-.1-3 2-21 8-22.3 22.4-5 35-17 35-17 3.3 7.2 13.6 14.3 17.3 17 3 2.1 4.3 18.5 4.2 22.3h7.4v-.2c.6-8.7.8-17.4.8-25.1 0-.6 1.5-36.5-39.5-36.5" style="fill:url(#c)"/><path d="M116.6 53.3c-1.2 0-2.2 1-2.2 2.1v9.2q.2 2 2.2 2.2c2 .2 2.3-1 2.3-2.2v-9.2c0-1.1-1-2.1-2.3-2.1m-4.5 0c-1.2 0-2.2 1-2.2 2.1v9.2q.2 2 2.2 2.2c2 .2 2.3-1 2.3-2.2v-9.2c0-1.1-1-2.1-2.3-2.1" style="fill:#e8ad00"/><path d="M114.4 53.3c-1.3 0-2.3 1-2.3 2.1v11.2q.2 2 2.3 2.2c2.1.2 2.2-1 2.2-2.2V55.4c0-1.1-1-2.1-2.2-2.1" style="fill:#ffca28"/><ellipse cx="114.4" cy="52.1" rx="2.8" ry="2.6" style="fill:#ffca28"/><path d="M114.4 52a1 1 0 0 1-1-1V13q0-.9 1-1 .9.1 1 1v38q-.1 1-1 1" style="fill:#504f4f"/><linearGradient id="d" x1="63.4" x2="63.4" y1="128.3" y2="99.7" gradientTransform="matrix(1 0 0 -1 0 128)" gradientUnits="userSpaceOnUse"><stop offset="0" style="stop-color:#424242"/><stop offset=".5" style="stop-color:#353535"/><stop offset="1" style="stop-color:#212121"/></linearGradient><path d="M115.4 12c-30.9-7.7-52-8-52-8s-21.2.3-52 8v.8a3 3 0 0 0 2.1 2.8A236 236 0 0 0 30.7 20c-.1 0-1.3 1.9-2 3.3 0 0 9.3 6.1 34.7 8.7 25.3-2.6 36.6-8.5 36.6-8.5-.9-1.8-1.9-3.3-1.9-3.3 4.5-.8 11.5-3.3 15.2-4.5a3 3 0 0 0 2-2.9z" style="fill:url(#d)"/><linearGradient id="e" x1="63.4" x2="63.4" y1="128.2" y2="97.2" gradientTransform="matrix(1 0 0 -1 0 128)" gradientUnits="userSpaceOnUse"><stop offset="0" style="stop-color:#616161"/><stop offset=".3" style="stop-color:#505050"/><stop offset="1" style="stop-color:#242424"/><stop offset="1" style="stop-color:#212121"/></linearGradient><path d="M63.4 4s-21.2.3-52 8c0 0 35.4 9.7 52 9.4 16.6.3 52-9.4 52-9.4-30.9-7.7-52-8-52-8" style="fill:url(#e)"/><linearGradient id="f" x1="13.3" x2="114.1" y1="110" y2="110" gradientTransform="matrix(1 0 0 -1 0 128)" gradientUnits="userSpaceOnUse"><stop offset="0" style="stop-color:#bfbebe"/><stop offset=".3" style="stop-color:#212121;stop-opacity:0"/><stop offset=".7" style="stop-color:#212121;stop-opacity:0"/><stop offset="1" style="stop-color:#bfbebe"/></linearGradient><path d="M115.4 12c-30.9-7.7-52-8-52-8s-21.2.3-52 8v.8a3 3 0 0 0 2.1 2.8A358 358 0 0 0 30.7 20s-1.1 1.5-2 3.3c0 0 9.3 6.1 34.7 8.7 25.3-2.6 36.6-8.5 36.6-8.5-.9-1.8-1.9-3.3-1.9-3.3 4.5-.8 11.5-3.3 15.2-4.5a3 3 0 0 0 2-2.9z" style="opacity:.4;fill:url(#f)"/></svg>