<svg xml:space="preserve" width="16" height="16" viewBox="0 0 128 128"><path d="M4.2 23.1h28.4v71.7H4.2z" style="fill:#e0e0e0"/><path d="M4.2 91.8h28.4v31.9H4.2zM6 39.4c0 .3 24 .1 24.3.1.7 0 .7-.7.7-1.2v-5q0-.5-1.1-.5H6.7q-.8-.1-.8.7zm-.2 6.5q0-.6.8-.7l23.7.1q.6 0 .5.7v5c0 .4 0 1.1-.5 1.2H22V67c-.1.3 0 .6-.8.6h-5.7q-.4 0-.5-1.3V52H6.6q-.7 0-.7-1.3z" style="fill:#e92a02"/><path d="M37.2 53.7h5.1v64.9h-5.1zm67.2.4h19v64.3h-19z" style="fill:#b0b0b0"/><path d="M41.2 54.5h78.7v67.9H41.2z" style="fill:#dfdfdf"/><path d="M125.8 84.6q.8-.1.8.6v7.4q0 .5-.5.6l-91.4-.6q-.2-.1-.2-1.4v-6.7q-.1-.7.6-.6z" style="fill:#ff511b"/><path d="M47.9 64.4q-1-.2-1.2 1.5c-.2 1.7 0 15 0 15.6s.2 1.2 1 1.2h16.2q1 0 1-1.2v-16q0-1-1.3-1zm25.3.4q-1 0-1 1.1v16q0 1 .9 1.1h16.3q.8 0 .8-1.3v-16q0-1-1.3-1c-.9 0-15.2.2-15.7.1m25.1 0q-1 0-1 1.3V82q0 1 .7 1.1h16.4q1-.1 1-1.2V65.6q0-.8-1.2-.8z" style="fill:#6ba5af"/><path d="M105 64.8h2.8v18.4H105zm-25.2 0h2.9V83h-2.9zm-25.3-.3h2.9v18.2h-2.9z" style="fill:#a8cfd6"/><path d="M37.2 48h86.2v6.9H37.2z" style="fill:#395660"/><path d="M37.2 117.8h86.2v5.5H37.2z" style="fill:#6e8690"/><path d="M43.8 112.3q.2 1.4 1.4 1.5h52.1v9.4c.2.2 19.4.2 19.6 0 .1-.1.2-30-.1-30.1l-73-.4z" style="fill:#3b5361"/><path d="M46.6 94.8h15v16.4h-15zm17.4 0h15.3v16.5H64zm17.8 0H97v16.5H81.8zm18.1 0h14.6v26.3H99.9z" style="fill:#6ba5af"/><path d="m86.5 116.3.1 7c.1.3 6.5.2 6.6 0l.1-6.7z" style="fill:#3b5361"/><path d="M82.5 103q-1.5.2-1.4 1.8v12.4q.2 1.4 1.3 1.4h15q.9 0 1-1v-13.1c0-.6-.5-1.4-1.3-1.4z" style="fill:#e92c02"/><path d="M84.5 105q-1.4-.2-1.5 1.3l-.1 4.6c0 .5 0 1.5 1.4 1.5h11.2q1.1 0 1-1.7v-4.2q0-1.2-1.4-1.4z" style="fill:#e0e0e0"/></svg>