<svg xml:space="preserve" width="16" height="16" viewBox="0 0 128 128"><path d="m68.4 83.6.5 15.8q0 1.9 2.6 2 2.6-.1 2.6-2l.6-17zm5.4-60.4h-6.4v27.5l6.4-1.1z" style="fill:#9e5737"/><path d="M70.3 5.2 31.6 11a4 4 0 0 0-2.8 3.5v.8l4.2 5s12 9.6 12.8 9.5S77.3 7.3 77.3 7.3c-.6-.7-1.2-1-3.7-1.7a9 9 0 0 0-3.3-.5" style="fill:#f0aa6b"/><path d="m33.2 37.4-.4-20.6c0-1.8-.5-2.5-1.5-3-1.1-.7-2.5.1-2.5 1.4v20c0 .5 0 2.2 1.2 2.6l2.6.8V57l6.4-1V37.4zM60 77v-6c-2.4.3-3.5 0-3.5 0L30 58.5v3.3c0 1.4 0 2.4 2.1 3.4l.3.2 1.4 42.9q0 1.9 2.7 2 2.7-.1 2.7-2l1-30.8 14.4 7-.3-7.7c1.7.9 3.7.5 5.6.3" style="fill:#9e5737"/><path d="M100.8 64.1 59 72.2a2 2 0 0 0-1.6 2v1a2 2 0 0 0 1.7 2q-2.5 0-4.8-1l1.5 45.8q0 1.9 2.7 2 2.7-.1 2.7-2l1.2-36.9 30.1-5.8 1 33.8q.1 1.9 2.8 2 2.7-.1 2.6-2l1.6-43.7.7-.1a3 3 0 0 0 2.1-2.6v-3.9z" style="fill:#ba793e"/><path d="m102 64-41.8 8q-2.9.6-5.6-.7L30.8 59.4c-1.1-.5-1-2.4.7-2.6l42.1-7.2q2.7-.5 5 .4l23.8 11.4c1.2.6 1 2.4-.3 2.6" style="fill:#f0aa6b"/><path d="m75.2 7.3-40.4 6c-1.7.4-2 1.8-2 2.7l.1 21.1c0 1.3 1.3 1.7 2.5 1.4L76 32q1.6-.4 1.7-2.8l-.1-21c0-1.3-1.2-1.1-2.4-1" style="fill:#ba793e"/><path d="M62.3 76.7 92.2 71v2.8l-27.4 5.3-.7 5.7-1.7.3z" style="fill:#9e5737"/><path d="M54.2 76.2 32.5 65.3s2.6 2.5 5 6c2.1 3.2 2.8 6.2 2.8 6.2l1.4.7v-5.4L54.3 79zM68.4 84l.2 5.7s1-1.8 2.5-3c1.6-1.2 3.5-1.5 3.5-1.5l.1-2.5z" style="fill:#77381f"/></svg>