<svg xml:space="preserve" width="16" height="16" viewBox="0 0 128 128"><linearGradient id="a" x1="64" x2="64" y1="29.2" y2="93.7" gradientUnits="userSpaceOnUse"><stop offset=".4" style="stop-color:#374c57"/><stop offset=".5" style="stop-color:#263238"/></linearGradient><path d="M100.8 98.3s18-2.8 22.9-34.1a143 143 0 0 0 .7-28.9q-.1-.7-.9-.5s-6.8 3.7-9.4 3.2c-1.7-.3 12.5-5.6 9.6-29-.2-1.6-1-1.5-1.2-1.2-1.7 2-6.9 7.7-9.9 8.5 0 0 2-6 .3-12q-.3-.5-.9-.3c-12.8 5.5-13.8-2.5-29 6-3.4 1.8-6 6.3-6 6.3s-3.4-6.5-11-11c-5.4-3-13-1.9-16-1.2-.3 0-.4.6 0 .9 1.8 1.3 3.9 7.6 2.5 13C47.2 9.7 42.4 3.3 28.4 5c-5.1.5-10.7 3.3-18.5.8q-1-.1-.9.8c1.8 7.5 10 10.4 10.2 16.6 0 .7-.9 1.1-1.4.6-2-2.1-6.5-6.2-12-7.1q-1 0-.8.9c2 3 7 8.2 8.1 15.8.2 1 .3 2.1-1 1.4s-3.4-2-5.2-4.6c-.3-.3-1.6-1.6-2.1 1.8-1 5.9-5 36 5.2 50.9 11.8 17.3 17.3 16.3 17.3 16.3z" style="fill:url(#a)"/><path d="m112.5 44 2.2-1.9c2.2-1.4 3.1.8 2.9 2.8-1 7.6 2 15.2 1.6 22.8-.4 7.2-4.1 14.5-10.4 17.5q-.6.3-1.2.2-.6-.5-.5-1.2c-.7-4.8 0-10.4-1-15a31 31 0 0 1-.7-12.4 19 19 0 0 1 5-10.4zm-97.2 0L13 42.2c-2.1-1.4-3 .8-2.8 2.8 1 7.6-2 15.2-1.6 22.8C9 75 12.7 82.3 19 85.3q.6.3 1.2.2.4-.5.5-1.2c.7-4.8 0-10.4 1-15a31 31 0 0 0 .7-12.4 19 19 0 0 0-5-10.4z" style="fill:#c33"/><path d="M103 47.5s13.7 21 13.7 42c0 15.3-15.3 32.2-15.3 32.2s-1.7-19.9-3.2-31.2 4.8-43 4.8-43" style="fill:#374c57"/><linearGradient id="b" x1="103" x2="103" y1="119" y2="70.4" gradientUnits="userSpaceOnUse"><stop offset=".1" style="stop-color:#374c57"/><stop offset=".5" style="stop-color:#263238"/></linearGradient><path d="M103.8 65s3.6 11.5 4.4 20.2c1.5 15.1-6.9 37.5-6.9 37.5l-3.7-26.2 4.1-19.5z" style="fill:url(#b)"/><path d="M26.5 45.8S11 68.5 11 89.5c0 15.3 15.3 32.2 15.3 32.2s1.7-19.9 3.2-31.2-3.1-44.7-3.1-44.7" style="fill:#374c57"/><linearGradient id="c" x1="24.9" x2="24.9" y1="119" y2="70.4" gradientTransform="matrix(-1 0 0 1 49.76 0)" gradientUnits="userSpaceOnUse"><stop offset=".1" style="stop-color:#374c57"/><stop offset=".5" style="stop-color:#263238"/></linearGradient><path d="M24 65s-3.6 11.5-4.4 20.2c-1.5 15.1 6.9 37.5 6.9 37.5l3.7-26.2L26.1 77z" style="fill:url(#c)"/><path d="M85.3 30.7c-9.6 0-14.2 3.6-21.3 3.6s-11.7-3.6-21.3-3.6c-17.9 0-21.4 43.3-21.4 45 0 32.4 21.4 49 42.7 49s42.6-16.6 42.6-49c0-1.7-3.4-45-21.3-45" style="fill:#f04e3e"/><path d="M98.3 62.3c.5 6.8-4 13.2-11.9 14.6-7.8 1.4-14.8-2.9-16.5-9.4-2.7-10.9 4-13.6 11.8-14.6 8.3-1 16 2.4 16.5 9.4" style="fill:#a81919"/><ellipse cx="83.5" cy="67" rx="9.8" ry="8.9" style="fill:#ffecb3" transform="rotate(-14.9 83.53 66.95)"/><ellipse cx="83.3" cy="67.5" rx="4.1" ry="4.3" style="fill:#212121" transform="rotate(-4 83.22 67.43)"/><path d="M30.4 62.3c-.5 6.8 4 13.2 11.9 14.6C50 78.3 57 74 58.8 67.5c2.7-10.9-4-13.6-11.8-14.6-8.3-1-16 2.4-16.6 9.4" style="fill:#a81919"/><ellipse cx="45.2" cy="67" rx="8.9" ry="9.8" style="fill:#ffecb3" transform="rotate(-75.1 45.17 66.95)"/><ellipse cx="45.5" cy="67.5" rx="4.3" ry="4.1" style="fill:#212121" transform="rotate(-86 45.45 67.46)"/><path d="m92.4 89.8-1 .1a92 92 0 0 1-27.5 4.5 92 92 0 0 1-28.5-4.7c-1.8 0-3.3.8-2.8 2.6a52 52 0 0 0 6.6 15c4.9 6.4 7.6 8.5 11.6 8.6h.5c5 0 6-1.8 12.6-1.8 6.7 0 7.6 1.8 12.6 1.8h.5c4 0 6.7-2.2 11.6-8.7a43 43 0 0 0 6.6-15c.5-1.7-1-2.5-2.8-2.5" style="fill:#281010"/><path d="M60.7 101.1v-3.8H67v3.8c0 1.8-1.4 2.5-3.2 2.5-1.7 0-3.1-.7-3.1-2.5m-8.9-1.1.7-3.8 6.3 1.1-.7 3.8c-.3 1.8-1.9 2.3-3.6 2-1.7-.4-3-1.4-2.7-3.1m24.2 0-.7-3.8-6.3 1.1.7 3.8c.3 1.8 1.8 2.3 3.6 2 1.7-.4 3-1.4 2.7-3.1m-9 7.5v3.9h-6.3v-3.9c0-1.8 1.4-2.5 3.2-2.5s3.2.7 3.2 2.5m9.4 0v3.9H70v-3.9c0-1.8 1.4-2.5 3.2-2.5s3.2.8 3.2 2.5m-18.7 0v3.9h-6.4v-3.9c0-1.8 1.4-2.5 3.2-2.5s3.2.7 3.2 2.5m27-13c-.5 2.4-.5 4 .9 7 .3.8.7 1.7.2 2.3q-1 .9-2.6.3a10 10 0 0 1-6.4-7.2m-33.7-2.4c.5 2.4.5 4-.9 7-.3.8-.7 1.7-.2 2.3q1 .9 2.6.3a10 10 0 0 0 6.4-7.2" style="fill:#fff8e1"/><path d="m36 93.9 1.9.6c3.5 1.7 12 4.8 26 4.8s22.5-3.1 26-4.8l2-.3a57 57 0 0 1-5.7 11c-4.3 6.2-9 6.2-13.7 5a31 31 0 0 0-17.2 0c-5 1.2-9.4.6-13.7-5A53 53 0 0 1 35.9 94m57.4-5-1 .1C87 91 76.3 94 64 94a92 92 0 0 1-29.5-5c-1.8 0-3.4.8-3 2.8a53 53 0 0 0 7 15.9c5 7 7.8 9.2 12 9.3h.5c5.1 0 6-2 13-2s7.9 2 13 2h.5c4.1-.1 7-2.3 12-9.3 3-4 6-11.4 7-16 .4-2-1.2-2.7-3-2.7" style="fill:#b31b1b"/><path d="M92.4 89C87 90.9 76.3 94 64 94s-23-3.2-28.5-4.9c-1.6-.4-3.9-.7-4 1.3 0 2 5.6 4 5.9 4.1 3.9 1.6 12.6 4.9 26.6 4.9s22.5-3 26-4.4c2-.7 6.5-2.5 6.4-4.6 0-1.7-2-1.8-3.9-1.2" style="fill:#cc2d2d"/><path d="M79 80.7c-.9-2-3.9-3.1-6.4-1-.8.6-2 0-2.7-1-1.7-2.5-3-9-6-9s-4.3 6.5-6 9c-.8 1-2.2 1.4-2.7 1-2.6-2.1-5.6-1-6.5 1-1.1 2.3-.3 4.3 1.4 5.4 1.5 1 3.3.9 4.5.3s1.8 0 2.9.9c2.3 1.7 4.7 2.6 6.4 2.6q2.7 0 6.4-2.6c1-.8 1.6-1.5 2.8-1q2.1 1.2 4.5-.1c1.8-1.2 2.6-3.2 1.5-5.5" style="fill:#ff8a66"/><path d="M56.3 84.5q-.6-.7-1.4-1-1-.2-1.7.6-.7 1 0 2 1.4.8 2.5 0c1.3 1.5 3.7 2.4 3.7 2.4l-3-4m15.1 0q.6-.7 1.4-1 1-.2 1.7.6.8 1-.1 2-1.3.8-2.4 0c-1.3 1.5-3.6 2.4-3.6 2.4s2.4-3.5 3-4" style="fill:#cc2d2d"/><path d="M88.3 78.4c-3 3-2.2 6.8.6 7.5q3.1.8 6.4-.1a13 13 0 0 0 5.2-2.5c2.7-2.4 2.6-7.2-1.9-8.2-3.4-.7-8.2 1.3-10.3 3.3m-48.8 0c3 3 2.2 6.8-.6 7.5q-3.2.8-6.5-.1a13 13 0 0 1-5-2.5C24.5 80.9 24.6 76 29 75c3.5-.7 8.3 1.3 10.4 3.3" style="fill:#ff8a66"/><path d="M96 42.7c4.9-9.1 6-21.3 4.2-29.4-.4-1.7-2.2-6.4-5-6-3.1.3-2 4.4-2.4 8-1.6 12-7.6 15.2-9.9 17.6-1.4 1.5-2 4.9 2.6 8.8s9.4 2.9 10.5 1" style="fill:#f2a600"/><path d="M97.6 30.4c-1.2 2.8-5.8 8.8-10.6 6.4-1.5-.8-2.3-3.3-1.4-4.8q2.1-3.1 3.3-5.3 2.5-3.4 3.9-11.4c.5-3.6-.7-7.7 2.3-8 6.4 0 5.2 16.8 2.5 23" style="fill:#ffca28"/><path d="M32.4 42.7c-5-9-6.6-21.3-4.8-29.4.4-1.7 2.1-6.4 5-6 3.1.3 2 4.4 2.4 8 1.6 12 7.6 15.4 10 17.7 1.3 1.5 1.9 4.8-2.7 8.7s-8.8 3-9.9 1" style="fill:#f2a600"/><path d="M30.2 30.4c1.2 2.8 5.8 8.8 10.6 6.4 1.5-.8 2.3-3.3 1.4-4.8l-3.3-5.3A26 26 0 0 1 35 15.3c-.5-3.6.7-7.7-2.3-8-6.4 0-5.3 16.8-2.5 23" style="fill:#ffca28"/></svg>