<svg xml:space="preserve" width="16" height="16" viewBox="0 0 128 128"><path d="M51.5 38C25.4 37.1-5.4 8.7 5 39.1c6 17.5 26.2 26 46.5 25.8 20.2.2 40.4-8.3 46.4-25.8 10.4-30.4-20.3-2-46.4-1.3" style="fill:#e59600"/><path d="M86.5 80.8c-1-2-.2-4 3.1-7.3 4-4 9.4-14.8 4.1-25.5l-.8-1.7-.8.8-.5-.9H11.5l-.9 1.7h-1a23 23 0 0 0 4 25.6c2.6 2.8 4.1 5 3 7.3a4 4 0 0 1-2.7 2l-2.1.5 1.1 1.8a5 5 0 0 0 1.7 1.6c1.9 1.1 4.1 1.4 5.7 1.4q.3 0 .8.6c5.1 5.6 9.1 7.3 21.5 7.8h17.8C73 96 77 94.3 82 88.8q.6-.7.8-.7c1.6 0 3.9-.3 5.7-1.4a5 5 0 0 0 1.7-1.6l1.2-1.8-2.2-.4q-1.7-.4-2.7-2.1" style="fill:#3c2c23"/><radialGradient id="a" cx="108.9" cy="45" r="23" gradientTransform="rotate(-15 320.65 191.26)scale(1 .491)" gradientUnits="userSpaceOnUse"><stop offset=".7" style="stop-color:#554138;stop-opacity:0"/><stop offset="1" style="stop-color:#554138"/></radialGradient><path d="M52.3 96.4V87l28.2-2.4 2 3.5s-4 4.8-8.4 6.3a44 44 0 0 1-14 2z" style="fill:url(#a)"/><radialGradient id="b" cx="109" cy="44.9" r="22.8" gradientTransform="rotate(-165 76.89 35.66)scale(1 -.491)" gradientUnits="userSpaceOnUse"><stop offset=".7" style="stop-color:#554138;stop-opacity:0"/><stop offset="1" style="stop-color:#554138"/></radialGradient><path d="M50.6 96.4V87l-28-2.3-2 3.5s4 4.7 8.4 6.2a44 44 0 0 0 13.8 2z" style="fill:url(#b)"/><path d="M51.7 90.7h-8.9v10.7c0 4.8 3.6 8.7 8.1 8.7h1.6c4.5 0 8.1-4 8.1-8.7V90.7z" style="fill:#7a4c32"/><radialGradient id="c" cx="106.4" cy="61.7" r="26.4" gradientTransform="rotate(-94.3 97.5 73.51)scale(1 .833)" gradientUnits="userSpaceOnUse"><stop offset=".7" style="stop-color:#554138;stop-opacity:0"/><stop offset="1" style="stop-color:#554138"/></radialGradient><path d="M91 71.8c-1.6 2.1-4.2 4.6-4.5 6.5 3-16.2-10-14.3-12.8-21.7q-.9-2.2-1-4.6a103 103 0 0 1 8-13.4c.8-1.3 12.9 9 12.9 9s6.8 11.7-2.6 24.2" style="fill:url(#c)"/><radialGradient id="d" cx="91" cy="49.2" r="9.2" gradientTransform="matrix(-.944 .336 -.245 -.71 188.12 83.09)" gradientUnits="userSpaceOnUse"><stop offset=".7" style="stop-color:#554138"/><stop offset="1" style="stop-color:#554138;stop-opacity:0"/></radialGradient><path d="M80.2 84.3C73 74 90.9 72 90.9 72c-2.4 2.3-5.5 6-4.4 8.5 1.3 3 5 2.7 5 2.7S85 89 80.1 84.3" style="fill:url(#d)"/><path d="M78.3 51.8H24.6c-5.8 0-10.5 5-10.5 11.2s4.7 11.2 10.5 11.2h53.7c5.8 0 10.5-5 10.5-11.2s-4.7-11.2-10.5-11.2" style="fill:#7a4c32"/><path d="M51.5 13.1c-17.1 0-33 18.3-33 44.6 0 26.2 16.3 39.1 33 39.1s32.9-13 32.9-39.1c0-26.3-15.8-44.6-33-44.6" style="fill:#a56c43"/><ellipse cx="36.2" cy="60" rx="4.8" ry="5" style="fill:#42312c"/><ellipse cx="66.8" cy="60" rx="4.8" ry="5" style="fill:#42312c"/><path d="M59.9 77a25 25 0 0 1-16.6 0c-1.8-1-3.6.6-2.9 2.2s6.4 5.4 11.2 5.4 10.4-3.7 11.1-5.4c.8-1.6-1-3.2-2.9-2.2" style="fill:#473530"/><path d="M43.4 51.1c-1-1.2-3-3-7.1-3s-6.2 1.8-7.1 3q-.5 1 0 1.6t1.8.3c1.4-.3 2.5-1.1 5.3-1.1s4.4.8 5.2 1.1q1.4.3 1.9-.3t0-1.6m30.4 0c-1-1.2-3-3-7.1-3s-6.2 1.8-7.1 3q-.5 1 0 1.6t1.8.3c1.3-.3 2.5-1.1 5.3-1.1s4.4.8 5.3 1.1 1.6 0 1.8-.3q.5-.6 0-1.6" style="fill:#42312c"/><path d="M55.3 69h-7.6q-1.1.6-.7 1.7c.3.7 1.7 2.6 4.5 2.6s4.1-2 4.4-2.6q.4-1.2-.6-1.6" style="fill:#875334"/><radialGradient id="e" cx="106.5" cy="61.5" r="26.2" gradientTransform="rotate(94.3 -46.17 121.4)scale(-1 .833)" gradientUnits="userSpaceOnUse"><stop offset=".7" style="stop-color:#554138;stop-opacity:0"/><stop offset="1" style="stop-color:#554138"/></radialGradient><path d="M12.2 72c1.6 2 4.2 4.5 4.5 6.4-3-16 10-14.2 12.6-21.5q1-2.2 1.1-4.6c0-1.2-7.2-12.4-7.9-13.4-.8-1.2-12.8 9-12.8 9s-6.3 12.5 2.5 24" style="fill:url(#e)"/><radialGradient id="f" cx="91.2" cy="49.1" r="9.1" gradientTransform="matrix(.944 .336 .245 -.71 -85.13 83.04)" gradientUnits="userSpaceOnUse"><stop offset=".7" style="stop-color:#554138"/><stop offset="1" style="stop-color:#554138;stop-opacity:0"/></radialGradient><path d="M23 84.4c7-10.3-10.7-12.2-10.7-12.2 2.4 2.2 5.4 6 4.4 8.4-1.3 2.9-5 2.7-5 2.7S18.3 89 23 84.4" style="fill:url(#f)"/><path d="m90.9 28.9-.6-.8-1 .2-1-1.7c-.1 0-4.9.9-12 1.8H24.6c-6-.8-10-1.6-10.4-1.8l-.4 1.8h-1c-1.5 4-.6 4.9 0 6.6-2.5 2-5.9 6.7-3.5 12.4s8 6.4 8 6.4a28 28 0 0 0 2.8 15.6s4.1-18.1 3.7-20.9c0 0 7.7-1.5 16.3-6.4 5.9-3.4 9.8-7.3 16.4-8.8 10-2.2 12.2 5 12.2 5s9.3-1.8 12.1 11c1.2 5.4 1.6 14.2 2.3 19.6 0-.5 3.4-6.3 4-12.2.2-1.6 2-5 3.4-8.3.6 1 1.3 2.3 1.5 3l1.1-4.8c2.2-8.8-.5-15.1-2.2-17.7" style="fill:#3c2c23"/><radialGradient id="g" cx="26.7" cy="83.1" r="16.9" gradientTransform="rotate(187.8 -2.46 79.37)scale(-1 1.413)" gradientUnits="userSpaceOnUse"><stop offset=".6" style="stop-color:#554138;stop-opacity:0"/><stop offset="1" style="stop-color:#554138"/></radialGradient><path d="M12.6 35.1a11 11 0 0 0-3.2 12.7c1.7 4.4 8 6.3 8 6.3s1.3.4 2 .4l1.4-22c-3 0-6 1-7.8 2.2z" style="fill:url(#g)"/><radialGradient id="h" cx="76.7" cy="80.4" r="25" gradientTransform="rotate(72 3.05 -6.05)scale(1 -.742)" gradientUnits="userSpaceOnUse"><stop offset=".7" style="stop-color:#554138;stop-opacity:0"/><stop offset="1" style="stop-color:#554138"/></radialGradient><path d="M86.8 57.5c.1-1.5 4.3-3.6 6-10.3l.6-2.1a28 28 0 0 0-2.8-18c-2.3-3.4-11.8 3.4-10.1 6 5 8.6 4.9 16.3 6.3 24.4" style="fill:url(#h)"/><linearGradient id="i" x1="51.7" x2="51.7" y1="4" y2="30" gradientTransform="matrix(1 0 0 -1 0 128)" gradientUnits="userSpaceOnUse"><stop offset="0" style="stop-color:#709e3b"/><stop offset=".3" style="stop-color:#73a13e"/><stop offset=".6" style="stop-color:#7dab47"/><stop offset=".8" style="stop-color:#8dbc57"/><stop offset="1" style="stop-color:#9ccc65"/></linearGradient><path d="M95.7 120.8C95.7 103 70.2 99 61.1 98l-7.7 10.6h-3.3L42.5 98c-9.8 1-18.2 3.3-24.3 6.8q-10.5 6-10.5 16v3.2h88z" style="fill:url(#i)"/><linearGradient id="j" x1="51.8" x2="51.8" y1="3.5" y2="28.1" gradientTransform="matrix(1 0 0 -1 0 128)" gradientUnits="userSpaceOnUse"><stop offset="0" style="stop-color:#1e88e5"/><stop offset="1" style="stop-color:#1565c0"/></linearGradient><path d="m83.6 120-7.1-5.4.2-.4-26 .5-23.8-.5.2.4L20 120l-.1 3.9h64z" style="fill:url(#j)"/><linearGradient id="k" x1="28.3" x2="28.3" y1="4" y2="27.4" gradientTransform="matrix(1 0 0 -1 0 128)" gradientUnits="userSpaceOnUse"><stop offset="0" style="stop-color:#1e88e5"/><stop offset="1" style="stop-color:#1565c0"/></linearGradient><path d="m33.8 107.1-.1-7.8s-5.8 1.2-7.9 2.1l-3 6.6 3.9 5.9z" style="fill:url(#k)"/><linearGradient id="l" x1="65.9" x2="65.9" y1="4" y2="27.4" gradientTransform="matrix(-1 0 0 -1 141.16 128)" gradientUnits="userSpaceOnUse"><stop offset="0" style="stop-color:#1e88e5"/><stop offset="1" style="stop-color:#1565c0"/></linearGradient><path d="m69.8 107.1.1-7.8s5.8 1.2 7.9 2.1l2.9 6.6-3.8 5.9z" style="fill:url(#l)"/><path d="m73 115.6 5.1 1c1.4.3 2.8-.7 3-2s-.6-2.7-2-3l-5.2-1c-1.4-.3-2.7.7-3 2s.7 2.8 2 3m-42.3 0-5.2 1c-1.3.3-2.7-.7-3-2s.7-2.7 2-3l5.3-1c1.3-.3 2.7.7 3 2s-.7 2.8-2 3" style="fill:#bdbdbd"/><linearGradient id="m" x1="43.2" x2="43.2" y1="27.7" y2="13" gradientTransform="matrix(1 0 0 -1 0 128)" gradientUnits="userSpaceOnUse"><stop offset="0" style="stop-color:#aed581"/><stop offset="1" style="stop-color:#8bc34a"/></linearGradient><path d="m42.4 98-7.5 1-.3 21 17.1-11.5z" style="fill:url(#m)"/><linearGradient id="n" x1="60.3" x2="60.3" y1="29.9" y2="12.5" gradientTransform="matrix(1 0 0 -1 0 128)" gradientUnits="userSpaceOnUse"><stop offset="0" style="stop-color:#aed581"/><stop offset="1" style="stop-color:#8bc34a"/></linearGradient><path d="M68.6 99.1q-4.6-.8-7.5-1l-9.4 10.4L68.8 120z" style="fill:url(#n)"/><linearGradient id="o" x1="51.5" x2="51.5" y1="120.4" y2="96.6" gradientTransform="matrix(1 0 0 -1 0 128)" gradientUnits="userSpaceOnUse"><stop offset="0" style="stop-color:#fff59d"/><stop offset=".6" style="stop-color:#fee565"/><stop offset="1" style="stop-color:#fdd835"/></linearGradient><path d="M77.5 29C72.7 17 67.9 7.6 61.9 7c-1.7-.3-5.9-1-10.2-1-4.4 0-9 .6-10.6.8C35 7.6 30.3 17 25.5 29c-2.7 6.5 54.6 6.5 52 0" style="fill:url(#o)"/><linearGradient id="p" x1="51.5" x2="51.5" y1="101.5" y2="72.4" gradientTransform="matrix(1 0 0 -1 0 128)" gradientUnits="userSpaceOnUse"><stop offset="0" style="stop-color:#fff59d"/><stop offset=".6" style="stop-color:#fee565"/><stop offset="1" style="stop-color:#fdd835"/></linearGradient><path d="M91.6 24.7C82 26.4 66.4 28.4 52 28.5h-1c-14.4 0-30.1-2-39.5-3.8C3.3 23.2 3 28.6 3 28.6s2.6-3.2 7.1 1.2c7 6.8 18.5 17.7 40.8 17.8h1.3A54 54 0 0 0 93 29.8c4.5-4.4 7.1-1.2 7.1-1.2s-.3-5.4-8.4-3.9" style="fill:url(#p)"/><path d="M51.5 20.4c-15.2 0-25 6.5-25 6.5s14.3 1.5 25 1.5 25-1.5 25-1.5-9.8-6.5-25-6.5" style="fill:#78909c"/><path d="M107.5 109v15" style="fill:none;stroke:#d18100;stroke-width:5;stroke-miterlimit:10"/><path d="M108.6 116.8h-2.3c-1.4 0-2.5 0-2.5-2.5v-12h7.3v12c0 2-1 2.5-2.5 2.5" style="fill:#636363"/><path d="M116.7 99.5h-9l-10-.1C90 99.4 90 72.7 90 72.7v24.7c0 6.7 3.4 8.8 9.4 9H115c5.4 0 7.3-3.7 7.3-8.1l-.3-4.9s-1.5 6.1-5.2 6.1" style="fill:#616161"/><linearGradient id="q" x1="106.8" x2="106.8" y1="19.5" y2="78.2" gradientTransform="matrix(1 0 0 -1 0 128)" gradientUnits="userSpaceOnUse"><stop offset="0" style="stop-color:#757575"/><stop offset=".5" style="stop-color:#9e9e9e"/></linearGradient><path d="M123.4 38.4c-.1-.4-.8-.4-.9 0l-1.1 4.7-2 52.2v.4c0 1.5-1.2 2.6-2.8 2.6s-2.8-1.1-2.8-2.6l.6-52.4-1.2-5.2c0-.4-.7-.4-.8 0l-1.3 5-.7 52.2c0 1.7-1 3-2.7 3a3 3 0 0 1-3-3l-.4-52.2-1.1-5c-.2-.4-.8-.4-.9 0l-1.5 5.2V95c0 1.8-1.2 3.2-3 3.2s-3.3-1.4-3.3-3.2l-2-52-1.4-5q-.3-.5-.7 0L89 43l1.6 53.7c0 4.5 2.9 8 8.9 8.2h15.4c5.4 0 7.5-3.7 7.5-8.2l2.1-53.4z" style="fill:url(#q)"/></svg>