<svg xml:space="preserve" width="16" height="16" viewBox="0 0 128 128"><radialGradient id="a" cx="63.6" cy="-2088.9" r="57" gradientTransform="matrix(1 0 0 -1 0 -2026)" gradientUnits="userSpaceOnUse"><stop offset=".5" style="stop-color:#fde030"/><stop offset=".9" style="stop-color:#f7c02b"/><stop offset="1" style="stop-color:#f4a223"/></radialGradient><path d="M63.6 118.8c-27.9 0-58-17.5-58-55.9S35.7 7 63.6 7c15.5 0 29.8 5.1 40.4 14.4 11.5 10.2 17.6 24.6 17.6 41.5s-6.1 31.2-17.6 41.4a61 61 0 0 1-40.4 14.5" style="fill:url(#a)"/><path d="M111.5 29.7a57 57 0 0 1 8.1 30.2c0 16.9-6.1 31.2-17.6 41.4a61 61 0 0 1-40.4 14.5c-18 0-37-7.3-48.2-23a58 58 0 0 0 50.2 26c15.4 0 29.8-5.2 40.4-14.5a54 54 0 0 0 17.6-41.4q-.1-19.2-10.1-33.2" style="fill:#eb8f00"/><path d="m74.3 24.5 2.8-2.2q1.5-1 3.1-1.8c2.2-1 4.6-2 7.5-2.1l2.2.1q1.1.1 2.2.5l.5.2.5.3 1 .5 1.8 1.4q1.6 1.6 2.4 3.5l.7 1.8.4 1.6.1.3a2.3 2.3 0 0 1-4.2 1.5l-.8-1.5-.7-1.2-1.7-1.8-.5-.3-.4-.3-.5-.2-.2-.1h-.3q-1-.3-2.2-.2-2.5.1-5.4 1.3L79.8 27l-2.9 1.3-.2.1c-1.2.5-2.5-.1-2.9-1.2q-.6-1.6.5-2.7m-28.7 14q-1 .3-2 .3h-1.9a12 12 0 0 1-3.8-.6q-3-.8-5.7-.8-1.2 0-2.2.3c-1 .3-1.1.5-1.6 1q-1.5 1.7-3 4.6c-.6 1.1-2 1.5-3.1.9a2.4 2.4 0 0 1-1.2-2.4l.9-3.5a13 13 0 0 1 2-3.6q1.5-1.9 3.8-2.7c2.3-.8 2.9-.7 4.3-.7q4 .3 7.2 1.6l2.7.8 1.4.2 1.3.1h.4c1.2 0 2.2 1.1 2.1 2.3q0 1.9-1.6 2.2M44 91.3c1.8-2 6.6-4.3 13.3-4.2 8.9.2 13.7 4.2 13.7 4.2 2.9 2.4 1.6 6.1-1.5 5.8-5-.6-4.7-1.5-13.7-1.7-6.5-.1-9.6.9-9.9.9q-2.5 0-2.8-1.8-.4-1.7.9-3.2m38.3-47.5c4.4 0 8.4 3.7 8.4 9.9s-4 9.9-8.4 9.9-8.4-3.7-8.4-9.9 4-9.9 8.4-9.9m-45.1 1.7c-4.2 0-8 3.5-8 9.4s3.8 9.4 8 9.4 8-3.5 8-9.4-3.8-9.4-8-9.4" style="fill:#422b0d"/><path d="M81.4 48.4c-1-.8-2.6-.5-3.6.9q-1.4 2.4.4 3.7c1 .7 2.5.5 3.5-1 1-1.4.7-3-.3-3.6" style="fill:#896024"/><path d="M106.5 49.9h-5.6v9h5.6c2.7 0 5.4-1.7 5.4-4.3v-.4c0-2.7-2.7-4.3-5.4-4.3m-.5 7.7c-1.9 0-3.4-1.5-3.4-3.3s1.5-3.3 3.4-3.3 3.4 1.5 3.4 3.3-1.5 3.3-3.4 3.3m.1 13.2q-.5 0-.6-.5v-4.6q0-.5.5-.5h.1q.5 0 .5.5v4.6q0 .4-.5.5m0 7.6q-.5 0-.6-.5v-4.6q0-.5.5-.5h.1q.5 0 .5.5v4.6q0 .5-.5.5m0 7.7q-.5 0-.6-.5V81q0-.5.5-.5h.1q.5 0 .5.5v4.6q0 .5-.5.5m0 7.7q-.5 0-.6-.5v-4.6q0-.5.5-.5h.1q.5 0 .5.5v4.6q0 .5-.5.5m0 7.7q-.5 0-.6-.5v-4.6q0-.5.5-.5h.1q.5 0 .5.5v4.6q0 .5-.5.5m0 7.7q-.5 0-.6-.5v-4.6q0-.5.5-.5h.1q.5 0 .5.5v4.6q0 .5-.5.5m0 7.7q-.5 0-.6-.5v-4.6q0-.5.5-.5h.1q.5 0 .5.5v4.6q0 .5-.5.5m0-54.2q-.5 0-.6-.5v-4.6q0-.5.5-.5h.1q.5 0 .5.5v4.6q0 .4-.5.5" style="fill:#404040"/><circle cx="106.1" cy="64.1" r="2.6" style="fill:none;stroke:#404040;stroke-miterlimit:10"/><circle cx="106.1" cy="71.8" r="2.6" style="fill:none;stroke:#404040;stroke-miterlimit:10"/><circle cx="106.1" cy="79.4" r="2.6" style="fill:none;stroke:#404040;stroke-miterlimit:10"/><circle cx="106.1" cy="87.1" r="2.6" style="fill:none;stroke:#404040;stroke-miterlimit:10"/><circle cx="106.1" cy="94.7" r="2.6" style="fill:none;stroke:#404040;stroke-miterlimit:10"/><circle cx="106.1" cy="102.4" r="2.6" style="fill:none;stroke:#404040;stroke-miterlimit:10"/><circle cx="106.1" cy="110" r="2.6" style="fill:none;stroke:#404040;stroke-miterlimit:10"/><circle cx="106.1" cy="117.7" r="2.6" style="fill:none;stroke:#404040;stroke-miterlimit:10"/><circle cx="79.6" cy="53.7" r="20.6" style="fill:#ccc;fill-opacity:.5;stroke:#404040;stroke-width:3.5;stroke-miterlimit:10"/><path d="M94.8 52.5a14.7 14.7 0 0 0-14.9-13.4q-5.7 0-10.1 3.5a14 14 0 0 0-4.9 9.6q-.1.5-.5.4t-.4-.5q-.1-3 1.1-6a16 16 0 0 1 3.5-5.1c3-2.9 7.3-4.3 11.4-4.3s8.3 1.6 11.3 4.5a16 16 0 0 1 3.5 5.1q1.2 3 1 6 0 .5-.5.5t-.5-.3" style="fill:#fff"/><path d="M37 49.4c-1-.8-2.6-.5-3.6.9s-.6 3 .4 3.7 2.6.5 3.6-1c1-1.4.6-3-.4-3.6" style="fill:#896024"/></svg>