<svg xml:space="preserve" width="16" height="16" viewBox="0 0 128 128"><path d="M57.9 96c-2.2 0-37.3 9.6-37.9 9.8s-1 1.2.3 1.6c1.2.3 59.5 16.4 60 16.4s32-14.5 32.5-14.8c.6-.2-.1-1.6-1.1-2s-51-11-53.8-11" style="fill:#5e6268"/><path d="m58.1 117.8 37-14.4 5.7 1.3-37 14.5zm38.4-12.3 16.3 3.5-3.6 1.7-17.5-4zm-6.7 2.5 16.4 4-3.8 1.8-17-4zm-9.3 3.4 17.4 4.5-4.1 1.9-17.3-4.6zM67 117l18 4.8 5-2.3-18-4.3zm-11-15.1-4.7-1.1-7 1.6 5.5 1.4zm11.5 2.6-6-1.4-5.9 2.1 6 1.5zm5.1 1.2-5.8 2.3 5 1.3 6.3-2.4z" style="fill:#c8c8c8"/><path d="M23.6 47.5c0 .5 9.6 18.8 9.8 18.7l7-1.2 4.3-4.7S28.5 44.5 27.9 44.5c-.5 0-4.2 2.4-4.3 3" style="fill:#014eac"/><path d="m99.4 51 10.5-.8c4.9-.4 9.9-1.5 9.9-1.5v-2.6c.4-.7 1.8-1.7 2.2-1.7s2.1 2 3 3.7q1.4 3-2 4.5c-4.2 2-13.5 5-29.6 6.9-24.6 2.8 6-8.6 6-8.6" style="fill:#006ca8"/><path d="M51.1 66.6 33.6 73s16.8 1.7 23.6 0c4-1 16.7-5.4 35.4-16a95 95 0 0 0 26.2-19c1.5-1.8 2-3.7 1.1-4.9-.9-1-3.4-1-3.4-1z" style="fill:#b0b0b0"/><path d="M29.6 68.7s1.6-1.5 3.4-2.9c4.5-3.4 8-4.9 8-4.9l10.9-7.2 47.4-24c2.7-1.1 5.4-2.1 8.5-1.8a7 7 0 0 1 4.2 1.7l1.8 2s2-.1 4.2.5q2.1.8 2 1c-.2.1-16.4 12.5-29 20S57.4 72 48.5 73s-18.3-.5-18.3-.5z" style="fill:#c8c8c8"/><path d="M11.1 71.2c.1 1.5 1 1.5 5.9 1.5l15.7.1c.7 0 3.8-1.2 4-3.4q0-2.3-1.5-2.3c-1.5 0-2.5.7-4.1 1s-14.8 1.5-16.5 1.6-3.5.1-3.5 1.5" style="fill:#006ca8"/><path d="M95.2 60.4s2.4-2.6 4.8-4.7c2.4-2 5.7-4.4 6.7-4.5 2 0 5.2 1 6 4.5s-1.1 5.4-2 6c-1.3.9-7.4 5.2-11.4 4.3-5-1-4-5.6-4-5.6" style="fill:#9a9a9a"/><path d="M106.7 52.8c-1 .5-1.8 2.2-.4 5s3.1 3 4.2 2.3c1-.8 1-3.3.2-5s-2.8-2.8-4-2.3" style="fill:#5e6269"/><path d="M70 50c-1.1.3-1.1 1.7-1 2.2.3 1.4 2.3 1.2 2.3 1.2s.7-1.2.4-2.3c-.2-.6-.7-1.4-1.7-1.1" style="fill:#3b5361"/><path d="M4.4 50.9c-1.1 0-1.3 6-1.2 7.4Q3 60.5 6.8 61c3.8.6 44.6 1.4 49.2 1.4s16-2.2 16-2.2l7.4-4.3c1.7-1.2 5.4-3.2 3.3-4.7-.8-.6-17.3 1.5-35.4 3-19.1 1.4-29 2.6-38.9 2.2 0 0-3-5.7-4-5.6" style="fill:#006ca8"/><path d="M55.4 65.8c1.8 3.4 6.4 3 9.2 1.6 2.9-1.3 6.7-3.1 7.1-3.5s1.7-3.9-.5-7.6-5-3.7-6-3.6c-.7.1-5.4 3.2-7.3 4.8-2 1.6-4.4 4.9-2.5 8.3" style="fill:#9a9a9a"/><path d="M65.4 54.3c-1.6.5-1.4 4 0 6.2q2.3 3.4 4.4 2.7c1.4-.6 1.2-3.2 0-5.6-1.2-2.6-3-3.7-4.4-3.3" style="fill:#5e6269"/><path d="M112 29.7s-1.8-.1-5 1.9-4.2 4.2-3.3 4.8c1 .7 2.8-1.3 5.6-2.8 2.2-1.1 4.5-2 4.5-2zm-35.6 17q-1.3.5-1 2.2c.2 1.7.8 1.5 1.5 1.3q1.2-.4 1.1-2t-1.6-1.5m6.3-3.4q-1.5.8-1 2 .2 1.7 1.6 1.4c1.4-.3 1-1.1 1-2q-.3-1.7-1.6-1.4M89 40q-1.2.4-1 2.2c0 1 .7 1.9 1.5 1.5q1.3-.4 1-2.3-.1-1.6-1.4-1.4m6.1-2.9q-1.4.6-1.2 2c0 1 .8 1.9 1.6 1.6 1-.3 1.3-1.5 1.2-2.2 0-.9-.7-1.7-1.6-1.4M44.8 63.8q-1.2.5-1 2c.1 1.1 1 1.3 1.5 1.3s1.2-.9 1-2c0-1-.8-1.5-1.5-1.3" style="fill:#3b5361"/><path d="M96.6 32.7c-.8.3-32.3 17.1-33 17.6q-1.2.8-.7 1.4c.3.5 1.3 0 2-.2S97 34.6 97.4 34.4s1-.9.7-1.6q-.6-.7-1.6-.1m3.2-1.7q-1 .5-.8 1.4.6.8 1.6.2 1-.5.7-1.3c-.2-.6-1-.6-1.5-.3" style="fill:#e0e0df"/></svg>