<svg xml:space="preserve" width="16" height="16" viewBox="0 0 128 128"><linearGradient id="a" x1="82.2" x2="82.2" y1="49.9" y2="88.5" gradientTransform="translate(0 2)" gradientUnits="userSpaceOnUse"><stop offset=".6" style="stop-color:#f9ddbd"/><stop offset="1" style="stop-color:#ffd29c"/></linearGradient><path d="M86.6 90.9q-.3 0-.5-.2c-.5-.4-.4-2.6-.4-3.3a5 5 0 0 0-1-2.8q-.6-.5-1-.5h-.1l-.1.1q-.9.5-.7 1.8 0 1-.2 1.7-.3.4-.6.3-.7 0-1-.9v-.3c0-.4-.2-1-.1-2.6q0-2.7 1-5.3l.2-.2-5.4-19.3-2-6.9c.7-.4 2.5-1.2 4.4-1.2q3.1 0 4.5 3.3 2 5.3 2.7 13.7a63 63 0 0 0 1.4 9.8c.3 1 .4 1.3 1.7 4 .7 1.5.4 3 .1 4.6l-.3 1.7c-.2 1.3-1.7 2.5-2.6 2.5" style="fill:url(#a)"/><linearGradient id="b" x1="45.8" x2="45.8" y1="49.9" y2="88.5" gradientTransform="translate(0 2)" gradientUnits="userSpaceOnUse"><stop offset=".6" style="stop-color:#f9ddbd"/><stop offset="1" style="stop-color:#ffd29c"/></linearGradient><path d="M41.4 90.9c-1 0-2.4-1.3-2.6-2.5q0-1-.3-1.7c-.3-1.7-.6-3.1 0-4.6 1.4-2.6 1.5-3 1.8-4l.3-.8c.2-.8.8-4.5 1.2-9 .4-5.7 1.3-10 2.6-13.7q1.3-3.3 4.5-3.3c2 0 3.7.8 4.5 1.2l-2.1 6.9-5.4 19.3.1.2a14 14 0 0 1 1 8.2c0 .6-.6 1-1 1q-.5 0-.5-.4-.2-.8-.2-1.7.2-1.3-.8-1.8h-.2q-.4 0-.9.4-1 1.1-1 2.8c0 .7 0 3-.5 3.4z" style="fill:url(#b)"/><path d="m70.7 121.4-5.1-35q-.3-1.2-1.6-1.3c-1.3-.1-1.4.5-1.5 1.2l-5.2 35.1-6.2.2-1-46h27.8l-1 46z" style="fill:#7c7c7c"/><path d="M74 124h4.5c.8 0 1.4-1 1.1-1.8A6 6 0 0 0 74 118a6 6 0 0 0-5.6 4.5q-.3 1.4 1.2 1.6zm-20 0h-4.5c-.8 0-1.4-1-1.1-1.8A6 6 0 0 1 54 118a6 6 0 0 1 5.6 4.5c.3.8-.4 1.6-1.2 1.6z" style="fill:#424242"/><linearGradient id="c" x1="64" x2="64" y1="41.6" y2="75" gradientTransform="translate(0 2)" gradientUnits="userSpaceOnUse"><stop offset=".4" style="stop-color:#f78c1f"/><stop offset=".7" style="stop-color:#f47f12"/><stop offset="1" style="stop-color:#ef6c00"/></linearGradient><path d="M73.7 44.9q-3.6-1-9.6-1H64q-6 0-9.6 1c-7.5 2-9.5 6.5-11.7 12.6l7.4 3.2V78h28V60.7l7.2-3.2c-2.2-6-4-10.6-11.6-12.6" style="fill:url(#c)"/><path d="M79 37q-.5-1.4 1.4-3.2a11 11 0 0 0 2-11.1l-.3-.9h-.8a1356 1356 0 0 0-34.6 0l-1.1.9a11 11 0 0 0 2 11q2 1.9 1.3 3.3c-.5 1-2 1.1-2 1.1s.3 1 1.1 1.5q1.3.7 2.5.6s2.7 3.7 9.6 3.7H68c7 0 9.6-3.7 9.6-3.7q1.1 0 2.4-.6c1-.5 1.3-1.5 1.3-1.5s-1.6-.1-2.1-1" style="fill:#312d2d"/><radialGradient id="d" cx="52.9" cy="87" r="10.1" gradientTransform="matrix(1 0 0 .491 17.45 -4.71)" gradientUnits="userSpaceOnUse"><stop offset=".7" style="stop-color:#454140;stop-opacity:0"/><stop offset="1" style="stop-color:#454140"/></radialGradient><path d="M64 43.9v-4l12.4-1 1 1.3S74.9 44 68 44z" style="fill:url(#d)"/><radialGradient id="e" cx="96.8" cy="108" r="3" gradientTransform="rotate(155 93.4 56.48)scale(1 .742)" gradientUnits="userSpaceOnUse"><stop offset=".7" style="stop-color:#454140"/><stop offset="1" style="stop-color:#454140;stop-opacity:0"/></radialGradient><path d="M77.4 38.4c-1.8-2.8 2.3-3.8 2.3-3.8q-1.1 1.3-.6 2.4c.5 1 2 1 2 1s-2 2-3.7.4" style="fill:url(#e)"/><radialGradient id="f" cx="82.3" cy="64.9" r="13.1" gradientTransform="rotate(-94.3 65.31 45.6)scale(1 .833)" gradientUnits="userSpaceOnUse"><stop offset=".7" style="stop-color:#454140;stop-opacity:0"/><stop offset="1" style="stop-color:#454140"/></radialGradient><path d="M82.4 22.7a11 11 0 0 1-1.9 11c-.2.2-1.3 1.3-1.5 2.1 0 0-4.1-5.7-5.4-9.1l-.5-2.1q-.1-1 .4-1.7c.4-.5 8.7-.7 8.7-.7z" style="fill:url(#f)"/><radialGradient id="g" cx="82.9" cy="133.2" r="13.1" gradientTransform="rotate(94.3 24.8 133.72)scale(-1 .833)" gradientUnits="userSpaceOnUse"><stop offset=".7" style="stop-color:#454140;stop-opacity:0"/><stop offset="1" style="stop-color:#454140"/></radialGradient><path d="M45.6 22.7a11 11 0 0 0 1.9 11c.2.2 1.3 1.3 1.5 2.1 0 0 4.1-5.7 5.4-9.1q.4-1 .5-2.1.1-1-.4-1.7t-1.5-.4l-7-.3z" style="fill:url(#g)"/><radialGradient id="h" cx="114.8" cy="87" r="10.1" gradientTransform="matrix(-1 0 0 .491 172.47 -4.71)" gradientUnits="userSpaceOnUse"><stop offset=".7" style="stop-color:#454140;stop-opacity:0"/><stop offset="1" style="stop-color:#454140"/></radialGradient><path d="M64 43.9v-4l-12.3-1-1.2 1.3s2.7 3.7 9.7 3.7z" style="fill:url(#h)"/><radialGradient id="i" cx="50" cy="75.4" r="3" gradientTransform="rotate(205 -3.3 35.36)scale(-1 .742)" gradientUnits="userSpaceOnUse"><stop offset=".7" style="stop-color:#454140"/><stop offset="1" style="stop-color:#454140;stop-opacity:0"/></radialGradient><path d="M50.6 38.4c1.8-2.8-2.3-3.8-2.3-3.8q1.1 1.3.6 2.4c-.5 1-2 1-2 1s2 2 3.7.4" style="fill:url(#i)"/><path d="M64 40.7h-5V46c0 2.4 2 4.4 4.5 4.4h1c2.5 0 4.5-2 4.5-4.4v-5.3zm12-16.4H52c-2.5 0-4.7 2.3-4.7 5s2.2 5 4.7 5h24c2.6 0 4.7-2.2 4.7-5s-2.1-5-4.7-5" style="fill:#edc391"/><path d="M64 6.7c-7.6 0-14.7 8.1-14.7 19.9C49.3 38.2 56.6 44 64 44s14.7-5.8 14.7-17.4c0-11.8-7-20-14.7-20" style="fill:#f9ddbd"/><path d="M81.4 13.3c-1-1.6-3.4-3.7-5.5-3.8-.4-2-2.6-3.8-4.7-4.5-5.7-1.8-9.4.2-11.4 1.3-.4.3-3.1 1.8-5 .7-1.2-.7-1.1-2.5-1.1-2.5S50 5.9 51.2 9.8c-1.2 0-2.9.6-3.8 2.4a6 6 0 0 0-.4 4.7c-1 1-2.4 3-1.5 5.5.7 1.9 3.6 2.8 3.6 2.8-.2 3.4.4 5.6.7 6.4q.2.3.4 0a60 60 0 0 0 1.7-8.7s4.9-1 9.6-4.4l3-1.8c6-2.3 7.2 1.7 7.2 1.7s4-.8 5.3 4.8c.4 2.2.7 5.6 1 8h.3c.4-1 1.3-2.8 1.5-4.7 0-.7 1.8-1.6 2.6-4.5a12 12 0 0 0-1-8.7" style="fill:#312d2d"/><radialGradient id="j" cx="90.6" cy="69.8" r="15.4" gradientTransform="rotate(72 31.15 -28.24)scale(1 -.742)" gradientUnits="userSpaceOnUse"><stop offset=".7" style="stop-color:#454140;stop-opacity:0"/><stop offset="1" style="stop-color:#454140"/></radialGradient><path d="M79.7 26.5c.1-.7 2-1.6 2.7-4.5l.2-.9a12 12 0 0 0-1.2-7.8c-1-1.4-3-3.4-5-3.8h-.6s.2 1-.2 1.6c-.5 1-1.5 1.2-1.5 1.2 5.2 5.2 4.8 9.6 5.6 14.2" style="fill:url(#j)"/><radialGradient id="k" cx="59.8" cy="112.1" r="4" gradientTransform="rotate(208.2 -17.6 53.97)scale(-1 1.186)" gradientUnits="userSpaceOnUse"><stop offset=".6" style="stop-color:#454140"/><stop offset="1" style="stop-color:#454140;stop-opacity:0"/></radialGradient><path d="m61 5.7-1.2.6c-.4.3-3.1 1.8-5 .7-1.2-.7-1.1-2.4-1.1-2.5-.6.7-2.2 5.5 2.5 5.9 2 .1 3.3-1.7 4-3.2z" style="fill:url(#k)"/><radialGradient id="l" cx="165.4" cy="98.2" r="12.4" gradientTransform="matrix(-.938 -.394 -.218 .528 242.4 24.94)" gradientUnits="userSpaceOnUse"><stop offset=".7" style="stop-color:#454140;stop-opacity:0"/><stop offset="1" style="stop-color:#454140"/></radialGradient><path d="M70.6 4.9q4.6 1.3 5.3 4.6c.1.6.3 6.5-11-.2-4.1-2.5-3-4-2.5-4.2a13 13 0 0 1 8.2-.2" style="fill:url(#l)"/><radialGradient id="m" cx="55.2" cy="119.8" r="3.7" gradientTransform="matrix(1 0 0 -1.223 0 154.58)" gradientUnits="userSpaceOnUse"><stop offset=".7" style="stop-color:#454140;stop-opacity:0"/><stop offset="1" style="stop-color:#454140"/></radialGradient><path d="M53.6 4.5c-.4.2-3.6 1.6-2.4 5.3l3.4.6c-3-3-1-5.9-1-5.9" style="fill:url(#m)"/><radialGradient id="n" cx="110.9" cy="119.3" r="7" gradientTransform="rotate(15 339.34 689.5)scale(-1 .936)" gradientUnits="userSpaceOnUse"><stop offset=".7" style="stop-color:#454140;stop-opacity:0"/><stop offset="1" style="stop-color:#454140"/></radialGradient><path d="m53.3 10.2-2-.4h-.6q-2 .2-3.3 2.4a6 6 0 0 0-.4 4.7s1-1 3.5-1z" style="fill:url(#n)"/><radialGradient id="o" cx="53.2" cy="103.7" r="7.3" gradientTransform="rotate(187.8 -4.32 79.84)scale(-1 1.405)" gradientUnits="userSpaceOnUse"><stop offset=".6" style="stop-color:#454140;stop-opacity:0"/><stop offset="1" style="stop-color:#454140"/></radialGradient><path d="M47 17c-1 1-2.4 3-1.4 5.5.7 1.8 3.5 2.7 3.5 2.7l.8.1.6-9.4q-2 0-3.3 1z" style="fill:url(#o)"/><path d="M67.7 36c-1.4.8-6 .8-7.4 0-.8-.5-1.6.2-1.3 1 .4.7 2.9 2.3 5 2.3 2.2 0 4.6-1.6 5-2.3.3-.8-.5-1.5-1.3-1" style="fill:#444"/><path d="M65.7 32.4h-3.4q-.4.2-.3.7c.1.5.8 1.2 2 1.2s1.9-.9 2-1.2q.1-.5-.3-.7" style="fill:#dba689"/><circle cx="56.8" cy="28.3" r="2.2" style="fill:#312d2d"/><circle cx="71.2" cy="28.3" r="2.2" style="fill:#312d2d"/><path d="M68 24.3c.4-.5 1.4-1.3 3.2-1.3s2.8.8 3.2 1.3q.3.4 0 .7-.1.3-.8.2-.5-.3-2.4-.5-1.8.2-2.4.5-.5.1-.8-.2zm-14.4 0c.4-.5 1.4-1.3 3.2-1.3s2.8.8 3.2 1.3q.3.4 0 .7t-.8.2q-.6-.3-2.4-.5-1.8.2-2.4.5-.6.1-.8-.2z" style="fill:#454140"/></svg>