<svg xml:space="preserve" width="16" height="16" viewBox="0 0 128 128"><path d="M4 64a60 60 0 0 0 60 60s42.8-20.2 42.8-60S64 4 64 4A60 60 0 0 0 4 64" style="fill:#fce5ac"/><path d="M62.3 8.6c0 1.3-3.4 2.2-7.3 2.6-4 .4-7.3 0-7.7-1.2-.3-1.3 2.7-3.3 7-3.7s8 1 8 2.3M24.2 102c.1-.1 1-.3 2 .6l5.3 4.9c1.2 1 0 2-1 1.8-4.8-.8-7.4-5.6-6.3-7.3M42 114.4c0-.2.8-.7 2.1-.2l6.6 2.7c1.6.6.8 1.9-.2 2-4.8 1-9-2.5-8.5-4.5m6.3-3.6c.6.5 1.2 1.3 1 2-.3.6-1.2.8-1.8.8q-3.5 0-6.6-1.6c-1.4-.8-5-3.2-4.5-5.1.7-2.9 10.4 2.8 11.9 4" style="fill:#f1c688"/><path d="M124 64A60 60 0 0 0 64 4s33.5 13 33.5 60S64 124 64 124a60 60 0 0 0 60-60" style="fill:#22404c"/><path d="M78.4 15.5c-4.2-.6-9 2.3-9.2 6.5 0 1.9.2 4 1.6 5.2 6 5 9.6 1.3 12.3 4 3.2 3-3.4 3.7-2.3 11.4.5 3.8 4.3 7.4 8.2 7 1.7 0 4.3-.2 5.2 1.3.8 1 .6 2.2.6 4 0 3.6.3 6.6 2.7 8.2-.3-23.3-8.7-38-17.1-47q-1-.5-2-.6" style="fill:#f1c688"/><path d="M101.4 64c1.2-.5 1.2-2 1.1-3.3-.3-5.7-4.3-6.8-5-9.9-1-4 4.4-9.3 8.8-7.8 3.5 1.2.7 5.3 3.3 10 1.6 3 5 4.5 6.2 7s0 4.3.7 6c1 2.5 2.4 2.5 3.2 1.6 1-1 .6-3 .4-4q-.5-2.2-.7-4.1v-1.2c1.3-7.3 1.8-14-6.3-18.2q-1.5-.6-2.5-1.6c-1.3-1.3-1.2-3.4-1.5-5.2-1-5.5-7.2-9.5-12.7-8-1.7.5-3.6 1.5-5.3.8-1.4-.5-2.2-2-3-3.2-1.8-3-4.4-5.7-7.7-6.9 8.4 9 16.8 23.8 17 47.1l2.3 1zm2.9 32.4-6 7c-1.2 1.3-.8 2.4-.6 2.5 2.3 1.3 8.4-2.3 9.1-8.4.2-1.3-1.2-2.7-2.5-1m9.6-11.2c-.3-1-1.6-1.7-2.3-.2l-2.8 6.9c-.6 1.3 0 2 .2 2 2.1.5 5.9-3.8 4.8-8.7m-36-76.7c-1 .2-1.8 1.6-.2 2.2l6.8 2.7c1.3.5 2 0 2.1-.3.5-2.1-3.8-5.8-8.7-4.6" style="fill:#1b2e35"/><path d="M56.5 15.5c-9.5-1.8-13 4-15.8 5.2-2.4 1-4-.8-7.5 1.4-5 3-3.1 5.2-3.6 7.8s-3.2 3.6-5.2 3.8c-2.3.2-2.5-1.2-1.4-3q1.1-1.1 1.6-2.6c.4-1.3.2-2.7 1-3.9 1-1.9 3.7-2.1 5.3-3.6 1.2-1 1.8-2.7 3-3.7q2.1-1.3 4.5-1.6c3.2-.5 6-3 4.5-3.1s-4-.6-6 1c-2.2 1.6-5.3 2.1-7.7 3.5-2.7 1.5-4.1 4.9-5 5.8-.8 1-3.4 1-5.2 2.9A54 54 0 0 0 8.9 48.7c0 5 2.1 9.7 7 11q1.3.3 2 1.1c1.1 1.4-1.6 5.5-2 7.2a11 11 0 0 0 2 10c4 5 8.2 4.4 12.3 1.8 1-.6 1.9-1.5 3-1.9 2.3-.8 2.4.7 2.6 2.4 1 8 4.4 10.2 6.8 11 4.9 2 10.9.2 14-4s3.6-10.4.7-14.8c-4.4-6.7-13-7-14.8-10.8-2-4.2 3.5-4.8 5.9-8.5 2.1-3.2 2.6-7.7.5-11-1-1.7-2.6-3.4-2.2-5.3.5-2.1 6.5-5.4 11-9.2 3.1-2.8 10.6-10-1.2-12.2M26 48.9q-.4 1-1.6 1.4-1 0-1.7-1-1.2-1.3-.5-3c.5-1.3 2.3-2.3 3.6-1.7q1 .5 1 1.8-.2 1.6-.8 2.5m15.5 2.9q-.2 1.3-.6 2-.7 2.5-2.5 3.7-1 .4-2 .5c-1.3.2-3 .3-3.8-.9q-.3-.7-.3-1.4c-.2-2.2-.4-4.7 1.2-6.2 1.2-1 2.5-1 3.9-1 .8 0 2.7-.2 3.4.3q1.3 1 .7 3" style="fill:#f1c688"/></svg>