<svg xml:space="preserve" width="16" height="16" viewBox="0 0 128 128"><path d="M7.3 32.2S3.7 26.5 3 25c-1-2 0-2.4 3.4-2.4H48v-7.1c.2-.4 31.6 0 31.7 0 .2 0 .1 7 .1 7h43c1 0 2 1 1.2 2.7s-3.3 5-3.3 5l-.3 87.7-7 3.9-100.7-.4-5.3-3z" style="fill:#c8c8c8"/><path d="M29 119.3V29.8l32.9-5L98.2 30v89.2l-34 1.8z" style="fill:#e1e1e1"/><path d="M29 22.6h69.3V30L29 29.8zM7.3 118.3l40-.2V85.9q-.2-1.4 1.4-1.7c1.6-.3 27.8 0 28.8 0Q79 84 79.2 86v32s41.2-.5 41.1-.2v5.2c0 .6-.2 1.4-1.7 1.4H8.6q-1.2-.2-1.3-1.5z" style="fill:#9a9a9a"/><path d="M54.7 32.9h18v10.6h-18zm-.1 17.3h18.1v10.2H54.6zm-.1 17.3h18.3v11H54.5zm27.2-34.2v10.5h11V33.2c-.2-.2-10.9-.2-11 0m.2 16.7v10.4h10.5l.1-10.3zm.5 17.7s-.3 10.1 0 10.4 10 .2 10.3 0 0-10.3 0-10.3zm.1 16.9V95s9.8.2 10 0 .5-10.3.2-10.5-10.2 0-10.2 0m.2 17.1.2 10.5h9.9c.3 0 .2-10 0-10.4s-10 0-10 0m21.7 10.3h10.4s.3-10.2 0-10.4c-.3 0-10.5-.2-10.7-.1-.3.3.2 10.3.3 10.4m-.2-26.9c-.1.4-.3 10.5 0 10.6s10 .2 10.3 0c.3-.1.6-10.2.3-10.4s-10.4-.6-10.6-.2m-.2-6.7c.3.4 10 .3 10.3.2.3-.2.2-10 0-10.3s-10-.2-10.3 0-.3 9.7 0 10.1m.3-27.5c-.2.4 0 9.8.2 10 .1.4 9.9.4 10 .2.2-.3.3-9.9.1-10.1a67 67 0 0 0-10.3-.1m.2-7.1c.3.3 10.1.1 10.3 0 .3 0 .2-10 .1-10.4 0-.3-10.1-.1-10.5 0-.2.2-.2 10 .1 10.4M33.9 32.9v10.6l10.9-.2s.2-10.3 0-10.5-10.9-.2-11 .1m.3 17.3s-.3 10.2 0 10.4c.4.1 10.2.2 10.5 0s0-10.5 0-10.5zm.2 17.4c-.2.1-.3 10.1-.1 10.4.1.2 10 .2 10.4 0 .3-.3.2-10 0-10.3s-10-.4-10.3-.1m-.3 17c-.3.3-.2 10.3 0 10.6s10 0 10 0l.2-10.6s-10-.3-10.3 0m.1 16.8v10.5h9.8l.2-10.5zm-21.1 10.4h10.3v-10.5s-10.3-.3-10.6 0c-.2.5.3 10.5.3 10.5m-.2-26.9c-.1.4-.3 10.5 0 10.6s10 .2 10.3 0c.3-.1.5-10.2.2-10.4s-10.3-.6-10.5-.2m-.2-6.7c.3.3 10 .3 10.3.2.3-.2.1-10-.1-10.3s-10-.2-10.2 0-.3 9.7 0 10.1m.3-27.5c-.2.4 0 9.8.1 10 .2.4 10 .4 10.1.1.2-.2.2-9.8 0-10a67 67 0 0 0-10.2-.1m.2-7.1c.3.3 10 0 10.3 0 .2 0 .2-10 0-10.4s-10-.1-10.4 0c-.3.2-.3 10 .1 10.4" style="fill:#6ca4ab"/><path d="M51.8 118.4c-.1-.1-.2-20 0-20.4s22.9-.1 23 .1l.1 20.3c0 .2-23.1 0-23.1 0" style="fill:#e1e1e1"/><path d="M53.9 100h8.5v16.7h-8.5zm10.6-.1h8.7v16.7h-8.7z" style="fill:#536f7b"/></svg>