<svg xml:space="preserve" width="16" height="16" viewBox="0 0 128 128"><path d="M64.7-13.3h10V130h-10z" style="fill:#e0e0e0" transform="rotate(45 69.68 58.32)"/><path d="M97.7 37.4s-.1-2.9-2.2-5c-2-2-4.9-2.1-4.9-2.1L116.8 4s1.9-.8 4.9 2.2 2.2 4.9 2.2 4.9z" style="fill:#646464"/><path d="m22.6 112.5-7.1-7L43 77.8s2.8-.5 5.2 1.9 2 5.2 2 5.2z" style="fill:#f44336"/><path d="M121.7 6.3c-3-3-4.9-2.2-4.9-2.2s3.4.6 4.3 2.8c.9 2.3-.6 4.3-.6 4.3l-90 90s-3.4 3.4-7 2.4c-3.4-1-3.7-2.4-3.7-2.4l-3 2.9 1.4 5.7 4.4 2.7 99-99 2.3-2.3s.8-1.9-2.2-4.9" style="opacity:.33;fill:#2686c6"/><path d="M121 7c1 2.2-.5 4.2-.5 4.2L97 34.7s.6.8.7 2.6l23.9-23.8 2.3-2.3s.8-1.9-2.2-4.9-4.9-2.2-4.9-2.2 3.4.6 4.3 2.8" style="fill:#444"/><circle cx="14.2" cy="113.8" r="10.2" style="fill:#e0e0e0"/><path d="M23.7 110.3a9.6 9.6 0 0 1-16.5 7.5 10 10 0 0 1-2.8-6.9 10.2 10.2 0 1 0 19.2-.6" style="opacity:.33;fill:#2686c6"/><path d="M119 44.6c4-6.7 4.7-22.6-.5-35.5a1.8 1.8 0 1 0-3.3 1.4c5.2 12.8 3.7 27.2.7 32.3-.9 1.4-1.5 1.6-1.7 1.6q-.6.1-1-.4c-2.3-2.4-2.1-11.7-.8-21.3l-4 4-.4 4.6q-.7 11.6 2.6 15l.1.3q1.5 1.5 4 1.3c1-.1 2.7-.8 4.2-3.3" style="fill:#90a4ae"/></svg>