<svg xml:space="preserve" width="16" height="16" viewBox="0 0 128 128"><path d="M116 4H12a8 8 0 0 0-8 8v104a8 8 0 0 0 8 8h104a8 8 0 0 0 8-8V12a8 8 0 0 0-8-8" style="fill:#194fa5"/><path d="M109.7 4H11.5A7.6 7.6 0 0 0 4 11.5v97.9c0 4.1 3.3 7.5 7.5 7.5h98.1c4.1 0 7.5-3.3 7.5-7.5V11.5c0-4-3.1-7.4-7.2-7.5z" style="fill:#2262dd"/><path d="M39.7 12.9c0-2.3-1.6-3-10.8-2.7-7.7.3-11.5 1.2-13.8 4-1.9 2.3-2.3 5.6-2.6 8.4-.2 2.2-2.2 15.9 3.5 12.2q1-.6 1.6-1.8c1.2-2.1 1.9-4.5 3.3-6.6 5.3-8.6 18.8-10.5 18.8-13.5" style="fill:#68abe6"/><path d="M43 70h-2a2 2 0 0 1-2-2v-2q.2-1.8 2-2h2a2 2 0 0 1 2 2v2a2 2 0 0 1-2 2M33 82h-2a2 2 0 0 1-2-2v-2q.2-1.8 2-2h2a2 2 0 0 1 2 2v2a2 2 0 0 1-2 2m6 12h-2a2 2 0 0 1-2-2v-2q.2-1.8 2-2h2a2 2 0 0 1 2 2v2a2 2 0 0 1-2 2" style="fill:#fff"/><circle cx="83" cy="26" r="10" style="fill:#fff"/><path d="m108.8 71.3-9.5-26.8Q95.8 37.9 85 38c-5.7 0-10.6 1.8-13 4.5L61.8 52a4 4 0 0 1-2.5 1H46.8a4 4 0 0 0-3.8 3.2 3.6 3.6 0 0 0 3.6 4h16.3q1.6 0 2.6-1.1l6.1-6.3a.5.5 0 0 1 .8.3v54.1c0 2.4 1.7 4.5 4.1 4.7a4.4 4.4 0 0 0 4.9-4.5V74.7q.2-1.6 1.8-1.8 1.7.2 1.8 1.8v32.6c0 2.4 1.7 4.5 4.1 4.7a4.4 4.4 0 0 0 4.9-4.5V53.1q.1-.5.5-.4.3 0 .4.2l7.1 21c.7 2 2.9 3 4.8 2.2 1.8-.9 2.7-3 2-4.8M44.3 112H26.7c-3 0-5.7-2.1-6.4-5.1L13.1 74c-.3-1.3.5-2.7 1.9-3s2.7.6 3 1.9l7.3 32.9q.4 1.1 1.5 1.2h17.6q1.1 0 1.5-1.2L53 73a2.5 2.5 0 0 1 3-1.9c1.3.3 2.2 1.6 2 2.9l-.1.1-7.3 32.9c-.6 3-3.3 5-6.3 5" style="fill:#fff"/></svg>