<svg xml:space="preserve" width="16" height="16" viewBox="0 0 128 128"><path d="M60.6 98.3C43.8 103.1 34.6 79.5 31 71 24 54.2 5.7 42.4 7 30s16.6-11.2 16.6-11.2m35.9 79.5c16.9-4.5 11.4-29 10-38-2.6-18 7.1-37.5-.4-47.5s-20-1-20-1" style="fill:none;stroke:#bdbdbd;stroke-width:6;stroke-linejoin:round;stroke-miterlimit:10"/><circle cx="101.8" cy="32.2" r="15.3" style="fill:#878787"/><circle cx="102.4" cy="31.1" r="13.4" style="fill:#bdbdbd"/><path d="M69.4 59c-.9 6.7 10.1 31.3-7 38-19.1 7.6-26.3-20.5-31.4-26" style="fill:none;stroke:#03a9f4;stroke-width:8;stroke-miterlimit:10"/><path d="M32.6 73.5S43.4 85 56 79.7c12-5 13.9-18 13.9-18" style="fill:none;stroke:#03a9f4;stroke-width:5;stroke-miterlimit:10"/><path d="M101 21.4a9.7 9.7 0 0 0-6.5 14l.7 1.3c-2 2.5-3.5 3.5-4 6.4q2 2 4.7 3.1 4.4 2 9.4.9l1-.3-.2-2.8.5-3.8c.2-.4 1.1-.7 1.6-1a10 10 0 0 0 4.5-10.5 9.7 9.7 0 0 0-11.7-7.3" style="opacity:.22;fill:#212121"/><path d="M60.4 96c9.6 22 24.3 25.1 35.2 23.2 9.5-1.7 22.1-10.2 22.1-25.7 0-18.7-12.5-17.5-19.2-29.5-8.5-14.9 3-28.6 3-28.6" style="fill:none;stroke:#03a9f4;stroke-width:8;stroke-miterlimit:10"/><path d="M94.7 38.8s2-1 3.8 0c2.8 1.7 3.1 4 3.1 4s1.8-3.4 2.7-4.4-5.6-5.6-7-3.8-2.6 4.2-2.6 4.2" style="opacity:.22;fill:#212121"/><path d="M27.8 14q-2.3.1-3.7 1.9l-1.2-1c-1.1-1-2.8-.1-2.8 1.3v5.2c0 1.5 1.7 2.3 2.8 1.4l1.3-1a4.7 4.7 0 1 0 3.6-7.8m25.3-1.8-2.6-4.4c-.8-1.3-2.6-1.1-3.1.2l-.5 1.5a4.8 4.8 0 1 0 3 5l1.5.3c1.5.2 2.5-1.3 1.7-2.6" style="fill:#616161"/><circle cx="104.2" cy="29.3" r="9.1" style="fill:#424242"/><circle cx="104.7" cy="28.6" r="7.1" style="fill:#d1d1d1"/><path d="M42.4 15.1c-.9-1.2-.7-3.4.7-4.4s3.6-.6 4.4.8c1 1.4-1.5.1-2.9 1.1s-1.2 4-2.2 2.5M25 17.3c.4-1.5 2.1-2.8 3.8-2.4s2.8 2.4 2.4 3.9c-.5 1.6-1.1-1-2.8-1.5s-3.8 1.6-3.4 0" style="fill:#757575"/></svg>