<svg xmlns:xlink="http://www.w3.org/1999/xlink" xml:space="preserve" width="16" height="16" viewBox="0 0 128 128"><linearGradient id="a" x1="64" x2="64" y1="125.1" y2="65.6" gradientTransform="translate(0 2)" gradientUnits="userSpaceOnUse"><stop offset="0" style="stop-color:#4e4e4e"/><stop offset=".2" style="stop-color:#484848"/><stop offset=".4" style="stop-color:#373838"/><stop offset=".8" style="stop-color:#1c1d1d"/><stop offset="1" style="stop-color:#010101"/></linearGradient><path d="M4 74.8s24-9 60-8.8c17.6 0 37.3 3 60 8.8 0 0-23.4 45.4-60 45.4S8 83.8 4 74.8" style="fill:url(#a)"/><linearGradient id="b" x1="64" x2="64" y1="64.4" y2="18.3" gradientTransform="matrix(1 0 0 -1 0 130)" gradientUnits="userSpaceOnUse"><stop offset="0" style="stop-color:#f70000"/><stop offset=".2" style="stop-color:#f30000"/><stop offset=".4" style="stop-color:#e90000"/><stop offset=".6" style="stop-color:#d60000"/><stop offset=".8" style="stop-color:#bd0000"/><stop offset="1" style="stop-color:#a00000"/></linearGradient><path d="M63 66a183 183 0 0 0-59 8.8c4 7.8 23.2 37 59.8 37s60.2-37 60.2-37A215 215 0 0 0 63 66" style="fill:url(#b)"/><radialGradient id="c" cx="65.1" cy="6.2" r="60.4" gradientTransform="matrix(1 0 0 -.508 0 126.93)" gradientUnits="userSpaceOnUse"><stop offset=".6" style="stop-color:#212121"/><stop offset="1" style="stop-color:#616161"/></radialGradient><path d="M64.1 96c-25.6 0-52 7.1-52 25v3h104v-3c0-16.9-26.1-25-51.9-25" style="fill:url(#c)"/><path d="M73 90H55v10c0 4.6 3.6 8.2 8.2 8.2h1.6c4.6 0 8.3-3.6 8.3-8.1z" style="fill:#7a4c32"/><linearGradient id="d" x1="63.8" x2="63.8" y1="23.9" y2="6.8" gradientTransform="matrix(1 0 0 -1 0 130)" gradientUnits="userSpaceOnUse"><stop offset=".8" style="stop-color:#fff"/><stop offset="1" style="stop-color:#e1e1e1"/></linearGradient><path d="M79 124.2 73 106H55l-6.2 18.2z" style="fill:url(#d)"/><path d="M91.3 50.4H36.7c-6 0-10.7 5.2-10.7 11.4s4.8 11.5 10.7 11.5h54.6c6 0 10.7-5.2 10.7-11.5s-4.8-11.4-10.7-11.4" style="fill:#7a4c32"/><path d="M64 11c-17.4 0-33.5 18.7-33.5 45.5C30.5 83 47 96.3 64 96.3S97.5 83 97.5 56.5C97.5 29.7 81.4 11 64 11" style="fill:#a56c43"/><ellipse cx="47.6" cy="58.8" rx="4.9" ry="5.1" style="fill:#42312c"/><ellipse cx="80.4" cy="58.8" rx="4.9" ry="5.1" style="fill:#42312c"/><path d="M67.9 68h-7.7q-1.1.5-.7 1.7c.4 1.2 1.7 2.7 4.5 2.7a5 5 0 0 0 4.6-2.7q.3-1.2-.7-1.6" style="fill:#875334"/><path d="M72.4 76.1a26 26 0 0 1-16.8 0c-1.8-1-3.7.6-3 2.3s6.5 5.4 11.4 5.4 10.6-3.8 11.3-5.4-1-3.4-2.9-2.3" style="fill:#473530"/><path d="M64 4c-33.5.2-37.3 29-37 44.1v.5l.1.3q.2 5.2.6 7.3l.1 1L33 66v-6.3c.4-10.4 2.6-26.7 13-29.3 8-2 16.5 6.4 17.8 7.7 1.3-1.3 9.8-9.8 17.8-7.7 13.2 3.3 13.2 28.2 13 35.5 0 .2 5.2-8.8 5.2-8.8v-.6l.3-.4s9.4-52-36-52.2" style="fill:#3c2c23"/><radialGradient id="e" cx="64.3" cy="88.3" r="38.4" gradientTransform="matrix(1 0 0 -1 0 130)" gradientUnits="userSpaceOnUse"><stop offset=".8" style="stop-color:#554138;stop-opacity:0"/><stop offset="1" style="stop-color:#554138"/></radialGradient><path d="M64 4c-33.5.2-37.3 29-37 44.1v.5l.1.3q.2 5.2.6 7.3l.1 1L33 66v-6.3c.4-10.4 2.6-26.7 13-29.3 8-2 16.5 6.4 17.8 7.7 1.3-1.3 9.8-9.8 17.8-7.7 13.2 3.3 13.2 28.2 13 35.5 0 .2 5.2-8.8 5.2-8.8v-.6l.3-.4s9.4-52-36-52.2" style="fill:url(#e)"/><defs><path id="f" d="M72.4 76.1a26 26 0 0 1-16.8 0c-1.8-1-3.7.6-3 2.3s6.5 5.4 11.4 5.4 10.6-3.8 11.3-5.4-1-3.4-2.9-2.3"/></defs><clipPath id="g"><use xlink:href="#f" style="overflow:visible"/></clipPath><g style="clip-path:url(#g)"><path d="m55.3 75.7 1 5 2.4-4zm17.4 0-1 5-2.4-4z" style="fill:#fff"/></g><linearGradient id="h" x1="64" x2="64" y1="100" y2="110.5" gradientTransform="translate(0 2)" gradientUnits="userSpaceOnUse"><stop offset="0" style="stop-color:#e51e25"/><stop offset=".4" style="stop-color:#e11e25"/><stop offset=".7" style="stop-color:#d71e25"/><stop offset=".8" style="stop-color:#c61e24"/><stop offset=".9" style="stop-color:#b11e23"/><stop offset="1" style="stop-color:#a51e22"/></linearGradient><path d="M77.8 106q0-3.5-1.3-6.6-.2-.4-.9-.4a18 18 0 0 0-9.4 4.3l-.6.3h-3.2l-.5-.2a18 18 0 0 0-9.6-4.4q-.5 0-.8.4-1.2 3.1-1.3 6.7h.1q0 3.7 1.2 6.7.3.5.8.4c3.8-.5 7.4-2.2 9.5-4.3l.6-.2h3.2l.6.2c2 2.1 5.7 3.8 9.4 4.3q.6.1.9-.4a17 17 0 0 0 1.3-6.7" style="fill:url(#h)"/><path d="M64.8 109.7h-1.6q-1.7-.1-1.9-1.9v-3.6a2 2 0 0 1 1.9-1.9h1.6c1 0 1.9.8 1.9 1.9v3.6a2 2 0 0 1-1.9 1.9" style="fill:#e51e25"/><path d="M88 50.8S85.7 47 80.4 47 73 50.8 73 50.8q-.3.4-.3 1 .2 1.4 1.5 1.5l.7-.1c3.2-1.4 5.6-1.4 5.6-1.4s2.5 0 5.7 1.4l.6.1q1.5-.1 1.6-1.6 0-.5-.3-1m-32.9.1S52.9 47 47.6 47 40 50.7 40 50.7l-.3 1q.1 1.5 1.6 1.6l.7-.1c3.1-1.4 5.6-1.4 5.6-1.4s2.5 0 5.6 1.4l.7.1q1.5-.1 1.6-1.6 0-.6-.4-1" style="fill:#42312c"/></svg>