<svg xml:space="preserve" width="16" height="16" viewBox="0 0 128 128"><path d="M116 4H12a8 8 0 0 0-8 8v104a8 8 0 0 0 8 8h104a8 8 0 0 0 8-8V12a8 8 0 0 0-8-8" style="fill:#8e24aa"/><path d="M109.7 4H11.5A7.6 7.6 0 0 0 4 11.5v97.9c0 4.1 3.3 7.5 7.5 7.5h98.1c4.1 0 7.5-3.3 7.5-7.5V11.5c0-4-3.1-7.4-7.2-7.5z" style="fill:#ab47bc"/><path d="M39.7 12.9c0-2.3-1.6-3-10.8-2.7-7.7.3-11.5 1.2-13.8 4s-2.9 8.5-3 15.3c0 4.8 0 9.3 2.5 9.3 3.4 0 3.4-7.9 6.2-12.3 5.4-8.7 18.9-10.6 18.9-13.6" style="opacity:.65;fill:#b982ca"/><path d="M19 33.6a3 3 0 0 1-.7-5.9l42.1-11.3a15 15 0 0 1 7.3 0l42.1 11.3a3 3 0 1 1-1.4 5.8L66.2 22.3q-2.2-.6-4.4 0L19.7 33.5z" style="fill:#fafafa"/><path d="M39.7 12.9c0-2.3-1.6-3-10.8-2.7-7.7.3-11.5 1.2-13.8 4s-2.9 8.5-3 15.3c0 4.8 0 9.3 2.5 9.3 3.4 0 3.4-7.9 6.2-12.3 5.4-8.7 18.9-10.6 18.9-13.6" style="opacity:.3;fill:#b982ca"/><path d="M87.5 102.8H72.3l-.6-.6q0-.3.3-.5l9.6-5.6c3.4-1.8 5.5-5.4 4.5-9.2l-7.8-27.1a8 8 0 0 0-9.7-5.5 9 9 0 0 0-3.3 1.8l-.8.7-10.3 10.1a2 2 0 0 1-2.7-.1l-9.6-11.4a3.7 3.7 0 0 0-5.2-.5 3.6 3.6 0 0 0-.4 5.1l13.1 15.6.5.7q1 1 2.2 1h.6a4 4 0 0 0 2.3-.8l.6-.7 7.3-7.3q.6-.6 1.2 0 .3 0 .3.4l5.7 19.9c.5 1.6-.2 3.3-1.6 4.2l-17.1 10.4-.1.1-.4.3-.3.3-.3.3-.3.3-.2.4-.2.4-.2.4-.1.4-.1.4v1.4l.1.4.1.4.2.5.1.2.1.1q0 .3.3.4l.2.3.4.3.3.3.4.2.4.2.5.2.4.1.4.1.5.1h34.1a4.7 4.7 0 0 0 4.6-5.1c-.4-2.3-2.4-4-4.8-4" style="fill:#fafafa"/><circle cx="63.2" cy="43" r="9" style="fill:#fafafa"/></svg>