<svg xml:space="preserve" width="16" height="16" viewBox="0 0 128 128"><path d="M61 15.4c1.1 1.6 1 3.7-.1 5.2a103 103 0 0 1-17.4 18A67 67 0 0 1 22.9 49c-1.8.5-3.7-.2-4.7-1.7A31 31 0 0 1 13 24.4C15.3 8.4 33.6.7 45.5 4.6S61 15.4 61 15.4" style="fill:#ffc107"/><radialGradient id="a" cx="39.7" cy="33.1" r="15.1" gradientUnits="userSpaceOnUse"><stop offset=".4" style="stop-color:#af5700"/><stop offset="1" style="stop-color:#8f4700"/></radialGradient><path d="M24.5 46c-1.2.5-2.2-.8-1.5-1.9a82 82 0 0 1 14.3-14 49 49 0 0 1 17.7-10c1.1-.4 2 1 1.3 1.9a62 62 0 0 1-14.5 14.2A92 92 0 0 1 24.5 46" style="fill:url(#a)"/><path d="M32.7 8.7c.5 2 3 2.7 5.4 2.3 2.6-.4 6-.8 5.6-3.5C43.4 4.8 39 5 37.4 5c-2.4.1-5 2-4.7 3.7" style="fill:#ffee58"/><path d="M84.3 3.7c12-3.2 29.5 1 33 21.6a28 28 0 0 1-4 18.6 5 5 0 0 1-5.3 2.4c-4-.8-11.7-3.1-21.8-9.5a143 143 0 0 1-17.8-14.4 5 5 0 0 1-.3-7c3.4-4 9.5-9.9 16.2-11.7" style="fill:#ffc107"/><radialGradient id="b" cx="90.5" cy="32" r="21.2" gradientUnits="userSpaceOnUse"><stop offset=".4" style="stop-color:#af5700"/><stop offset="1" style="stop-color:#8f4700"/></radialGradient><path d="M73.4 22.5c-.6-.6 0-1.7.9-1.5a63 63 0 0 1 17 7c6.5 4 13 10.2 16.3 13.5.6.6 0 1.7-.9 1.4-4-1.2-11.4-3.8-18.7-8.7a100 100 0 0 1-14.6-11.7" style="fill:url(#b)"/><path d="M83.6 11.8c-4 1.3-5-1.5-3-3.6a18 18 0 0 1 13.5-3.1c3.7.7 4.9 6-.3 6-3.5 0-5.4-.8-10.2.7" style="fill:#ffee58"/><path d="M110 120a53 53 0 0 1-22.3-40.7c-1.4-16 2.5-32.3 5.6-45.3l6.4 3c-3 12.4-5.3 26.8-4 41.6a45 45 0 0 0 18.6 34.7zm-49.4-2.7-3.3-7.3a9.4 9.4 0 0 0 4.8-11q-1-3-3.5-5.9-1.9-2.3-3.5-5.3a23 23 0 0 1-1.7-16.7q1.3-4.2 3.3-7.6c1.4-2.7 2.7-5.3 3-7.8q.5-3.8-1.5-7-1.9-2.5-5-5-2.1-1.8-4.3-4A18 18 0 0 1 44.4 27l5.5-2s1 5.3 2.4 7.5S56 36.3 58 38c2.3 2 5.2 3.6 7 6.4 2.4 3.6 3.4 8 2.8 12.3a30 30 0 0 1-3.9 10.5q-1.6 3-2.7 6.1c-1 3.6-.6 7.6 1.1 10.9q1.2 2.1 2.8 4.2c1.8 2.5 3.7 5 4.7 8.2 2.6 8-1.5 17.2-9.1 20.7" style="fill:#03a9f4"/><path d="M10.5 123.3 5.8 117a77 77 0 0 0 31.4-71.4l6-1.8c2.4 18.3 1 55-32.7 79.6" style="fill:#f48fb1"/><path d="m95 73.4.5.4q-.2-5 .4-10a34 34 0 0 1-7-7.3l-.2-.3q-.9 5.4-1.1 11 3.7 3.4 7.3 6.2" style="fill:#0076c6"/><path d="m115 95.4-7.3-3.4c1.8-4 .3-8.8-1.8-12a47 47 0 0 0-11-10.6A53 53 0 0 1 82.1 57a27 27 0 0 1 2-31.2l5.8 3.2a21 21 0 0 0-1 23.6c2.6 4.2 6.8 7.5 11 10.6 4.3 3.4 9.3 7.3 12.7 12.5a21 21 0 0 1 2.3 19.8M9 92.6c-1.5-8.5 4.7-12.9 8-15.2q.8-.5 1.2-1 0-.9-1.4-3c-1.4-2.5-3.5-6-2-10.3 1.4-3.8 5.4-5 8-6.5a9 9 0 0 0 4.6-5.3c1-3 .3-10.4.3-10.4l4.9-2.9S34 45.1 34 48.8C34 59 28.4 61.7 26 63c-1.7 1-3.2 1.8-3.6 2.8-.2.7.1 1.5 1.3 3.5 1.5 2.4 3.4 5.7 2.2 10-.7 2-2.4 3.3-4.2 4.6-3.3 2.3-5.4 4-4.8 7.3zm66-10.3c-3.5-.9-6-3-8.1-4.8l5-6.2s1.9 2.7 5.9 4zm-6.4-45.1-5.9-3.4L67 27l6 3.5zM84 113.6l-8-5 6.2-6.8 6.1 5.8z" style="fill:#f44336"/><path d="M111 55.1h8v8.6h-8z" style="fill:#fb8c00" transform="rotate(-54.1 115.03 59.44)"/><path d="m52.9 57-7-4.8 3.6-4.9 7 4.9z" style="fill:#f44336"/><path d="M61.4 65.6s1.4 0 3 .3q2.1-3.6 3-7.7c-2-.5-3.7-.3-3.7-.3z" style="fill:#0076c6"/><path d="M71 66.5c-2.9-2.3-7.5-2.2-7.5-2.2l2.2-7.6s5.2-.8 8.7 2.9z" style="fill:#fb8c00"/><path d="M4.9 98.1h7.3v8H4.9z" style="fill:#fb8c00" transform="rotate(-3.5 8.52 102.1)"/><path d="m43.2 97-4.6-6.6q3-2.3 5.5-5l6 5q-3 3.8-7 6.5" style="fill:#fb8c00"/><path d="M43.2 115.4a75 75 0 0 0-7.5-5.5l4.2-6.8q4.5 2.9 8.4 6.1z" style="fill:#f44336"/><path d="M87.9 80c.2 3.4.6 5.8 1.4 8.9l5.2-4.3-5.1-6.4z" style="fill:#0076c6"/><path d="M80.7 81.1H91v8H80.7z" style="fill:#ffc107" transform="rotate(-38.7 85.9 85.09)"/><path d="M76.6 125.3q-2.2-3.9-4.6-7.5l6.5-4.6q2.8 4 5.1 8.2z" style="fill:#fb8c00"/></svg>