<svg xml:space="preserve" width="16" height="16" viewBox="0 0 128 128"><path d="M19.2 49V28.5h-1.7V16.2h15.8v12.3h-1.6v12z" style="fill:#ab5832"/><path d="M64.1 23.3 18.7 69l.3 42.2 89.8-.9.1-45z" style="fill:#fff3e1"/><path d="m17 103.8 3-1.8V68l-3 2s.4 33.8-.1 33.8m90.3-34v32l3.1 1.8V71z" style="fill:#5f4e47"/><path d="M64.4 28.2 17.2 72.4V61.3l47.3-44.8L110.3 64v9.4z" style="fill:#bcaa93"/><path d="m12.6 59.4-2.8 5h7.4s46.4-45.1 47.4-45.2c1.2 0 45.7 46 45.7 46l6.6-.1-49.4-53.3-7.3-.5z" style="fill:#ab5832"/><path d="M4 63.2c-.8 1 0 1.4.6 1.4l8-.2 50-48.7s1.1-1.1 2-1.1 2 1.2 2 1.2L116.8 65s5.8 0 6.7-.2q1.3-.5-.7-2.5L70.2 10.2c-2.5-2.5-3.7-4-6.1-4-2.4.2-3.8 2-6.1 4z" style="fill:#ed6c31"/><path d="M93.5 80.8h10.3v-8.5a3 3 0 0 0-3-2.9h-7.3zm-3.1 0V69.4h-8a3 3 0 0 0-2.9 2.9v8.5zm0 3.2H79.5v8a3 3 0 0 0 3 3h8zm3.1 0v11h7.4c1.6 0 2.8-1.4 2.8-3v-8zm-56.7-3.2H47v-8.5c0-1.6-1.3-2.9-2.9-2.9h-7.3zm-3.1 0V69.4h-8a3 3 0 0 0-3 2.9v8.5zm0 3.2H22.8v8a3 3 0 0 0 2.9 3h8zm3.1 0v11H44a3 3 0 0 0 2.9-3v-8z" style="fill:#a6cfd5"/><path d="M50.3 106.7v-31c.2-6.2 6-11.6 12.8-11.4 8.4.3 12.8 5 13 11.1.4 6.1.4 31.7.4 31.7z" style="fill:#d27857"/><path d="M53.5 108s-.2-26.3 0-31.2c.1-6 4.7-9.2 10-8.9 6.1.4 9.2 3.6 9.4 8.4s.3 31.8.3 31.8z" style="fill:#ab5932"/><path d="m70 86.6-.1-9.4c-.2-3.1-2.4-5.6-6.8-5.7a6 6 0 0 0-6.5 5.8v9.2zm-13.3 4.9v11.1H70v-11z" style="fill:#d27857"/><path d="M70 88.8c0 1.4.6 2.6 2.2 2.6q2.4 0 2.4-2.3c.1-1.4-.8-2.6-2.4-2.5a2 2 0 0 0-2.2 2.2" style="fill:#ffba02"/><path d="M79.6 116.3s10.9.1 18.8-.1c7.8-.2 13.5.1 14.7-1s1.1-11.2-4.3-14c-5-2.4-8.3.1-10 .3-2.3.2-5-1.2-7.1-1.2a12 12 0 0 0-11.5 6.5zm-65.1-.8c1 .8 7.9.9 16.3.8h15.1l1.4-8.4-1.7-1.5s.2-4.2-5.1-5.6c-3.7-1-7 .6-10 .7-3.2 0-6-1.4-9.5-.6q-5 1-6.8 7.1c-.7 3-.5 6.7.3 7.5" style="fill:#728037"/><path d="M45 125.2v-8.9h.6v-9.8h34.8l-.2 9.8h.8v8.6z" style="fill:#b0b0b0"/><path d="M81 121.3v3.6l-36 .3v-4zm-35.4-8.8h34.7v3.8H45.6z" style="fill:#9b9b9b"/></svg>