<svg xml:space="preserve" width="16" height="16" viewBox="0 0 128 128"><path d="m102.6 105.5-5 2.7 1.8 2.5s1.3-1.1 2.7-.1 4.2 4.4 4.7 5.5c.4 1.2 0 3.4 0 3.4l4.3 1.1 1.8-3.2z" style="fill:#6c6d6f"/><path d="m111.9 112.4-23.6-32s25.2-21.4 8.5-53.3a40 40 0 0 0-24.6-20 42 42 0 0 0-33.8 3.8c-8 4.7-14.6 10-19.3 21a41 41 0 0 0 .2 36.1 40 40 0 0 0 29.2 23.7A44 44 0 0 0 77 88.5s15.2 19.7 23.5 30.2c4 5.2 8.2 6.7 11.4 4.6q5.2-3.6 0-10.9m0 0-23.6-32s25.2-21.4 8.5-53.3a40 40 0 0 0-24.6-20 42 42 0 0 0-33.8 3.8c-8 4.7-14.6 10-19.3 21a41 41 0 0 0 .2 36.1 40 40 0 0 0 29.2 23.7A44 44 0 0 0 77 88.5m31.8 29.6c-1.6 1.2-3.4-.8-6.2-4.3-2.7-3.3-2.8-4.7-1.7-5.6 1.2-1.1 2.7.2 4.9 2.8s4.5 6 3 7" style="fill:#2f2f2f"/><path d="M109.2 125.7c-2.8.3-5.2-.1-9.5-5a472 472 0 0 1-23-30.5A46 46 0 0 1 48.2 93a41 41 0 0 1-30.1-24.4c-7.7-16.2-4-29-.3-37.2A44 44 0 0 1 37.7 9.8 44 44 0 0 1 98 26.5a45 45 0 0 1-8.7 55.1l-1.5-1.8s6-5.7 10-14.7a41 41 0 0 0-2-37.4 39 39 0 0 0-24-19.3A40 40 0 0 0 39 12a42 42 0 0 0-18.7 20.4c-3.2 7.1-7 19.8.2 35a39 39 0 0 0 28.3 23c15.6 3 25.5-1.6 27.4-2.7l1-.5.7 1c0 .1 14.7 20.8 23.1 30.8 3.7 4.4 5.9 5.1 8.4 4.8 3-.3 5.3-3 5-5.7 1 2.3-.7 7.1-5.2 7.6M39 18.9a36.5 36.5 0 0 0-9.7 50.4c12.5 19.4 38 16.6 50 8.6a36.5 36.5 0 0 0 8-50.3A34.5 34.5 0 0 0 39 18.9" style="fill:#6c6d6f"/><path d="m40 63.3-3.8 7.8s3 5.2 11.5 5.4c2.7 0 5.5-.3 8 .5 5.4 2 11.7 1.8 16-.5a32 32 0 0 0 15.1-25.8c1-16.7-8-24.4-8-24.4z" style="fill:#54585b"/><path d="M33.5 67.7c6 9.6 16.1 6.7 20.3 6.8s4 1.5 10 1.4c7.5-.1 18.2-10 20.4-25.1 2.3-17.2-6.4-32.7-20.7-33.1a16 16 0 0 0-14.7 6.5c-4.2 5.5-4.5 12.8-6.9 15.6-4 4.7-16.6 14.9-8.4 27.9" style="fill:#fff"/><path d="M49.9 55.5c4.1 6 14.4 7.6 20 2.1s5.3-13.8.4-18.8c-6-6-15-5.1-20 .8a13 13 0 0 0-.4 15.9" style="fill:#ff8e00"/><path d="M52.7 52.7c4 .8 3.6-5.3 5.4-7.6 2-2.3 6-2.3 5.7-5.2s-6.5-3.5-10.5 1.3-4.2 10.9-.6 11.5" style="fill:#ffb502"/></svg>