<svg xml:space="preserve" width="16" height="16" viewBox="0 0 128 128"><path d="M116 4H12a8 8 0 0 0-8 8v104a8 8 0 0 0 8 8h104a8 8 0 0 0 8-8V12a8 8 0 0 0-8-8" style="fill:#427687"/><path d="M109.7 4H11.5A7.6 7.6 0 0 0 4 11.5v97.9c0 4.1 3.3 7.5 7.5 7.5h98.1c4.1 0 7.5-3.3 7.5-7.5V11.5c0-4-3.1-7.4-7.2-7.5z" style="fill:#8cafbf"/><path d="M30.2 48.2h-4.6a2 2 0 0 1-2-2V28.7q.2-1.8 2-2h30.1a2 2 0 0 0 1.8-2.8l-1.6-3.4a2 2 0 0 1 1.3-2.8l5.2-1.4q1.4-.2 2.3 1 2.3 4 4.1 8.3a2 2 0 0 0 1.8 1.2h29.7a2 2 0 0 1 2 2v15.4a2 2 0 0 1-2 2h-4.9a2 2 0 0 1-2-2v-7.6a2 2 0 0 0-2-2H79.7a2 2 0 0 0-2 2v12.9q.2 1.8 2 2h16.1c1.7 0 4.1-.1 6-.3A2 2 0 0 1 104 53l.4 3.7a2 2 0 0 1-1.8 2.2L96 59H80.7c-9.2 0-11.6-2.9-11.6-11.2V36.5a2 2 0 0 0-2-2h-6.2a2 2 0 0 0-2 1.8c-1.5 14.5-6.8 21.9-29 25.6q-1.6.2-2.1-1.2-.6-1.5-1.7-3.1a2 2 0 0 1 1.4-3C44.8 51.9 48.8 47 50 36.7a2 2 0 0 0-1.8-2.2h-14a2 2 0 0 0-2 2v9.8c0 1-.8 1.9-1.8 1.9zm39.9 43.5h31.1a2 2 0 0 1 2 2v4.2a2 2 0 0 1-2 2H25.7a2 2 0 0 1-2-2v-4.2q.2-1.8 2-2h31.4a2 2 0 0 0 2-2V75.9a2 2 0 0 0-2-2H34.8a2 2 0 0 1-2-2v-4q.2-1.8 2-2h57.6a2 2 0 0 1 2 2v4a2 2 0 0 1-2 2H70.1a2 2 0 0 0-2 2v13.8q.2 1.8 2 2" style="fill:#fafafa"/><path d="M39.7 12.9c0-2.3-1.6-3-10.8-2.7-7.7.3-11.5 1.2-13.8 4s-2.9 8.5-3 15.3c0 4.8 0 9.3 2.5 9.3 3.4 0 3.4-7.9 6.2-12.3 5.4-8.7 18.9-10.6 18.9-13.6" style="opacity:.5;fill:#b4e1ed"/></svg>