<svg xml:space="preserve" width="16" height="16" viewBox="0 0 128 128"><radialGradient id="a" cx="64" cy="60.6" r="82.5" gradientUnits="userSpaceOnUse"><stop offset=".3" style="stop-color:#004fa3"/><stop offset=".4" style="stop-color:#014d9e"/><stop offset=".5" style="stop-color:#04468f"/><stop offset=".7" style="stop-color:#083b77"/><stop offset=".8" style="stop-color:#0f2b54"/><stop offset="1" style="stop-color:#171729"/><stop offset="1" style="stop-color:#171728"/></radialGradient><path d="M116.6 124.2H11.3a7.5 7.5 0 0 1-7.5-7.5V11.4c0-4.2 3.4-7.5 7.5-7.5h105.3c4.2 0 7.5 3.3 7.5 7.5v105.3c0 4.1-3.3 7.5-7.5 7.5" style="fill:url(#a)"/><radialGradient id="b" cx="67.1" cy="54.9" r="11.6" gradientUnits="userSpaceOnUse"><stop offset="0" style="stop-color:#feb1da"/><stop offset=".4" style="stop-color:#f086d2"/><stop offset="1" style="stop-color:#dd4cc8"/></radialGradient><path d="M68.4 53c1.4.5 1-5.5 5.2-8 3.5-2.2 7.5-1 7-4.4-.2-2.2-6-2.3-10 1.3s-3.2 11-2.2 11.2" style="fill:url(#b)"/><radialGradient id="c" cx="71.4" cy="57.6" r="12.8" gradientUnits="userSpaceOnUse"><stop offset="0" style="stop-color:#feb1da"/><stop offset=".4" style="stop-color:#f086d2"/><stop offset="1" style="stop-color:#dd4cc8"/></radialGradient><path d="M73.2 56.7c1.1 1 3.6-3.8 8.8-3.6 4.2.2 6.2 4.7 8.5 2.6 2.5-2.4-1.2-6.4-7-6.8-7.6-.5-11.6 6.7-10.3 7.8" style="fill:url(#c)"/><radialGradient id="d" cx="72.9" cy="61.5" r="10.7" gradientUnits="userSpaceOnUse"><stop offset="0" style="stop-color:#feb1da"/><stop offset=".4" style="stop-color:#f086d2"/><stop offset="1" style="stop-color:#dd4cc8"/></radialGradient><path d="M74.4 62c.2.8 6.4.5 10.7 3.5 4.4 3 5.5 6.6 8 5.9 2.6-.7 1.3-5-4-8.4-5.9-3.7-15-3.6-14.7-1" style="fill:url(#d)"/><radialGradient id="e" cx="73.9" cy="66.4" r="7.7" gradientUnits="userSpaceOnUse"><stop offset="0" style="stop-color:#feb1da"/><stop offset=".4" style="stop-color:#f086d2"/><stop offset="1" style="stop-color:#dd4cc8"/></radialGradient><path d="M75.3 67.4c-.7.7 0 1.2 2.7 4s3.9 4.3 5 5.3c1 1 2.5 1.2 3.2.5 1-1-.5-3-1.7-4.2a36 36 0 0 0-5.5-4.5c-1.2-.7-3-1.9-3.7-1.2" style="fill:url(#e)"/><radialGradient id="f" cx="68.5" cy="66.4" r="18.4" gradientUnits="userSpaceOnUse"><stop offset="0" style="stop-color:#feb1da"/><stop offset=".4" style="stop-color:#f086d2"/><stop offset="1" style="stop-color:#dd4cc8"/></radialGradient><path d="M68.1 67c-.5.3.2 2.1.7 4.9.4 1.7.8 3 1.1 9 .4 6.7-.7 9.7 2.6 9.8 3.5 0 2.1-7.3 1.5-11a35 35 0 0 0-2.5-9c-1-1.8-2.5-3.9-3.4-3.6" style="fill:url(#f)"/><radialGradient id="g" cx="63" cy="69.8" r="14" gradientUnits="userSpaceOnUse"><stop offset="0" style="stop-color:#feb1da"/><stop offset=".4" style="stop-color:#f086d2"/><stop offset="1" style="stop-color:#dd4cc8"/></radialGradient><path d="M63.1 71.2c-1.1-.3-2.6 2.5-3.9 6.9-1.4 4.6-2.1 8.6.7 9 3.6.4 3.2-4.4 3.5-8.5.2-3.2.5-7.3-.3-7.4" style="fill:url(#g)"/><radialGradient id="h" cx="57.6" cy="65.5" r="16.2" gradientUnits="userSpaceOnUse"><stop offset="0" style="stop-color:#feb1da"/><stop offset=".4" style="stop-color:#f086d2"/><stop offset="1" style="stop-color:#dd4cc8"/></radialGradient><path d="M60.2 66.4c-1.4-1.1-7 2.7-10 7-3 4.6-5.6 11.6-2.2 11.9 3.7.2 3-4.7 5.8-9.8 3.3-6 7.1-8.6 6.4-9.2" style="fill:url(#h)"/><radialGradient id="i" cx="53.4" cy="64.4" r="9.3" gradientUnits="userSpaceOnUse"><stop offset="0" style="stop-color:#feb1da"/><stop offset=".4" style="stop-color:#f086d2"/><stop offset="1" style="stop-color:#dd4cc8"/></radialGradient><path d="M52.7 65.3c.4.7-2.6 2.6-5 5s-5 6-6.3 4.8c-1.3-1.4-.5-4 2.2-6.8 3.3-3.5 8.5-4 9.1-3" style="fill:url(#i)"/><radialGradient id="j" cx="54.6" cy="61.4" r="12.6" gradientUnits="userSpaceOnUse"><stop offset="0" style="stop-color:#feb1da"/><stop offset=".4" style="stop-color:#f086d2"/><stop offset="1" style="stop-color:#dd4cc8"/></radialGradient><path d="M35.7 66c2 1.3 3-4.5 8-5 4.8-.4 9.7 1.2 10.1 0 .4-.8-5-3.6-11-2.8-6.2.9-9.7 6-7 7.8" style="fill:url(#j)"/><radialGradient id="k" cx="57.2" cy="54.4" r="10.8" gradientUnits="userSpaceOnUse"><stop offset="0" style="stop-color:#feb1da"/><stop offset=".4" style="stop-color:#f086d2"/><stop offset="1" style="stop-color:#dd4cc8"/></radialGradient><path d="M58.6 57c1.3-.6-.7-10-9.8-10.5-8-.3-10.7 5.5-9 7.4 1.3 1.5 4.7-3 8.9-3 7.5 0 8.4 6.7 9.9 6" style="fill:url(#k)"/><radialGradient id="l" cx="63" cy="53.4" r="9.9" gradientUnits="userSpaceOnUse"><stop offset="0" style="stop-color:#feb1da"/><stop offset=".4" style="stop-color:#f086d2"/><stop offset="1" style="stop-color:#dd4cc8"/></radialGradient><path d="M54.5 39.8c-1 1-.7 2.8 2.8 5.2 3.5 2.3 3.5 7 4.7 7s1-5.6-1.1-9.1c-1.9-3-4.9-4.5-6.4-3.1" style="fill:url(#l)"/><radialGradient id="m" cx="90.9" cy="46.1" r="23.9" gradientUnits="userSpaceOnUse"><stop offset=".2" style="stop-color:#ff7e8a"/><stop offset=".3" style="stop-color:#ff8290"/><stop offset=".5" style="stop-color:#ff8e9f"/><stop offset=".6" style="stop-color:#ff9cb3"/><stop offset=".7" style="stop-color:#ffa6a8"/><stop offset=".8" style="stop-color:#fec08c"/><stop offset="1" style="stop-color:#fde366"/></radialGradient><path d="M91 48.5c1.1 1.3 5.4-1.6 12.9-1.6 6.6 0 10 2.9 11.4-.3 1.3-3.2-3.5-4.8-11.2-4.2-7.4.5-14.5 4.5-13.1 6.1" style="fill:url(#m)"/><radialGradient id="n" cx="95.9" cy="54.2" r="11.2" gradientUnits="userSpaceOnUse"><stop offset=".4" style="stop-color:#ff7e8a"/><stop offset=".6" style="stop-color:#ff8290"/><stop offset=".8" style="stop-color:#ff8e9f"/><stop offset="1" style="stop-color:#ff9cb3"/></radialGradient><path d="M95.7 55.3c.4 1 3.4-.3 6.5.4 2.7.6 5.4 2.7 6.3.5 1-2.2-1.4-4.4-5.7-4.5s-7.7 2-7.1 3.6" style="fill:url(#n)"/><radialGradient id="o" cx="93.4" cy="60.6" r="23.1" gradientUnits="userSpaceOnUse"><stop offset=".3" style="stop-color:#ff7e8a"/><stop offset=".4" style="stop-color:#ff8290"/><stop offset=".5" style="stop-color:#ff8e9f"/><stop offset=".6" style="stop-color:#ff9cb3"/><stop offset=".7" style="stop-color:#ffa6a8"/><stop offset=".8" style="stop-color:#fec08c"/><stop offset="1" style="stop-color:#fde366"/></radialGradient><path d="M91.2 61.7c.1 1 3.8.1 8.3 1.5s6.7 2.9 8.9 4.7c2.1 2 4.7 4.7 6.5 2.7 2-2.4-1.4-5.1-4-6.9a22 22 0 0 0-11-3.7c-5.6-.4-8.8.6-8.7 1.6" style="fill:url(#o)"/><radialGradient id="p" cx="100.1" cy="68.9" r="24.6" gradientUnits="userSpaceOnUse"><stop offset=".3" style="stop-color:#ff7e8a"/><stop offset=".4" style="stop-color:#ff8290"/><stop offset=".5" style="stop-color:#ff8e9f"/><stop offset=".6" style="stop-color:#ff9cb3"/><stop offset=".7" style="stop-color:#ffa6a8"/><stop offset=".8" style="stop-color:#fec08c"/><stop offset="1" style="stop-color:#fde366"/></radialGradient><path d="M99.5 70.8c0 .8 1.9 1.1 4.2 3 2.7 2.2 4.5 4.5 7 8.2 1.8 2.4 3 5.9 5.5 5 2.9-1 1-4.9-2-8.2a29 29 0 0 0-7.7-6.6c-2.9-1.7-7.1-3-7-1.5" style="fill:url(#p)"/><radialGradient id="q" cx="101.8" cy="79.4" r="18.7" gradientUnits="userSpaceOnUse"><stop offset=".2" style="stop-color:#ff7e8a"/><stop offset=".3" style="stop-color:#ff8290"/><stop offset=".4" style="stop-color:#ff8e9f"/><stop offset=".5" style="stop-color:#ff9cb3"/><stop offset=".6" style="stop-color:#ffa6a8"/><stop offset=".7" style="stop-color:#fec08c"/><stop offset=".9" style="stop-color:#fde366"/></radialGradient><path d="M100.2 80.7c-.8.9.8 1.9 2 3.2 1 1.4 3.1 4.9 3.9 5.9 1.2 1.6 2.8 1.3 3.6.6.8-.6 1-2.3 0-3.7-1.3-2-4-4-5.9-5-1.3-.8-3-1.7-3.6-1" style="fill:url(#q)"/><radialGradient id="r" cx="91.9" cy="80" r="34.3" gradientUnits="userSpaceOnUse"><stop offset="0" style="stop-color:#ff7e8a"/><stop offset=".2" style="stop-color:#ff8290"/><stop offset=".4" style="stop-color:#ff8e9f"/><stop offset=".5" style="stop-color:#ff9cb3"/><stop offset=".6" style="stop-color:#ffa6a8"/><stop offset=".8" style="stop-color:#fec18b"/><stop offset=".9" style="stop-color:#fde366"/></radialGradient><path d="M88.3 79.9c-.5.7.6 1.3 2 3.3 1.5 2 3.5 4.6 5.5 11.4 2.1 7 2.4 12.5 2.6 14 .3 2.4 1 4 3.2 4 1.8 0 2.4-2.2 2.2-5.5-.2-3.6-1.2-9.5-3.9-15.2-3.2-7-6.8-10-7.7-10.6-1.2-1-3-2.6-3.9-1.4" style="fill:url(#r)"/><radialGradient id="s" cx="81.1" cy="78.9" r="30.7" gradientUnits="userSpaceOnUse"><stop offset=".3" style="stop-color:#ff7e8a"/><stop offset=".3" style="stop-color:#ff818e"/><stop offset=".8" style="stop-color:#ff9cb3"/><stop offset=".8" style="stop-color:#ffa3ac"/><stop offset=".9" style="stop-color:#feb598"/><stop offset="1" style="stop-color:#fdd377"/><stop offset="1" style="stop-color:#fde366"/></radialGradient><path d="M77.8 76c-1 .6 0 1.9 1 3.6a56 56 0 0 1 6.4 22.7c.1 1.6.7 3.3 2.7 3.2 2.6 0 2.5-4 1.8-7.8-1-6-3-10.5-5.3-14.4a29 29 0 0 0-3.8-5.6q-1.9-2-2.8-1.7" style="fill:url(#s)"/><path d="M88.8 108.7c-2-.3-2.9 1.7-3 3q0 2.8 2.5 3.1c2 .2 2.7-1.4 2.8-3.2 0-1 0-2.6-2.3-3" style="fill:#ffdd74"/><radialGradient id="t" cx="75" cy="98.1" r="18.1" gradientUnits="userSpaceOnUse"><stop offset=".1" style="stop-color:#ff7e8a"/><stop offset=".3" style="stop-color:#ff8a9b"/><stop offset=".6" style="stop-color:#ff9cb3"/><stop offset=".7" style="stop-color:#ff9eb0"/><stop offset=".8" style="stop-color:#ffa6a8"/><stop offset=".9" style="stop-color:#feb39a"/><stop offset=".9" style="stop-color:#fec685"/><stop offset="1" style="stop-color:#fdde6b"/><stop offset="1" style="stop-color:#fde366"/></radialGradient><path d="M78.8 97.5c-1 0-1 3-1.8 7.8s-2.6 8.5.7 9.3 3.1-6 3-9.5c-.2-2.6-.5-7.7-1.9-7.6" style="fill:url(#t)"/><radialGradient id="u" cx="59.6" cy="92.9" r="17.6" gradientUnits="userSpaceOnUse"><stop offset=".1" style="stop-color:#ff7e8a"/><stop offset=".3" style="stop-color:#ff8a9b"/><stop offset=".6" style="stop-color:#ff9cb3"/><stop offset=".7" style="stop-color:#ff9eb0"/><stop offset=".8" style="stop-color:#ffa6a8"/><stop offset=".9" style="stop-color:#feb39a"/><stop offset=".9" style="stop-color:#fec685"/><stop offset="1" style="stop-color:#fdde6b"/><stop offset="1" style="stop-color:#fde366"/></radialGradient><path d="M57.3 93.6c-1.3-.2-3 3.5-3.8 7.4-.9 4.4-1.1 7.6 1.3 7.8 2.3.3 2.3-3.8 2.5-7.8.3-5.5.8-7.2 0-7.4" style="fill:url(#u)"/><radialGradient id="v" cx="48.1" cy="90.3" r="23.6" gradientUnits="userSpaceOnUse"><stop offset=".3" style="stop-color:#ff7e8a"/><stop offset=".5" style="stop-color:#ff93a7"/><stop offset=".6" style="stop-color:#ff9cb3"/><stop offset=".7" style="stop-color:#ffaaa4"/><stop offset=".9" style="stop-color:#fecf7b"/><stop offset=".9" style="stop-color:#fde366"/></radialGradient><path d="M53.9 88c-1-.8-7.2 5-8.4 13.9-1 7.3-.8 15.3 3.1 14.7s.6-7 1.7-15.4c1.2-9.6 4.8-12.3 3.6-13.2" style="fill:url(#v)"/><radialGradient id="w" cx="37.7" cy="85.6" r="23" gradientUnits="userSpaceOnUse"><stop offset=".4" style="stop-color:#ff7e8a"/><stop offset=".5" style="stop-color:#ff8290"/><stop offset=".6" style="stop-color:#ff8e9f"/><stop offset=".7" style="stop-color:#ff9cb3"/><stop offset=".7" style="stop-color:#ffa6a8"/><stop offset=".8" style="stop-color:#fec08c"/><stop offset=".9" style="stop-color:#fde366"/></radialGradient><path d="M44.8 79.7c-1-1.2-7 3.4-10.6 10.1-3 5.9-4.2 11-4.8 15.7-.4 3.3.6 6.2 3.1 6.1 2-.1 2.5-2.4 2.7-7.7.3-7 2.3-12.3 4.6-16.7 2-3.7 5.8-6.6 5-7.5" style="fill:url(#w)"/><radialGradient id="x" cx="34" cy="81.3" r="18.7" gradientUnits="userSpaceOnUse"><stop offset=".2" style="stop-color:#ff7e8a"/><stop offset=".4" style="stop-color:#ff8a9b"/><stop offset=".6" style="stop-color:#ff9cb3"/><stop offset=".7" style="stop-color:#ff9eb0"/><stop offset=".8" style="stop-color:#ffa6a8"/><stop offset=".9" style="stop-color:#feb39a"/><stop offset=".9" style="stop-color:#fec685"/><stop offset="1" style="stop-color:#fdde6b"/><stop offset="1" style="stop-color:#fde366"/></radialGradient><path d="M31.8 80.7c-1.1-.8-4.4 2.7-6.3 5.5S21 93.8 24 95c3.4 1.4 3.6-3.7 4.8-6.3 2-4.4 4-7.2 3-8" style="fill:url(#x)"/><radialGradient id="y" cx="32.4" cy="71.2" r="29.4" gradientUnits="userSpaceOnUse"><stop offset=".3" style="stop-color:#ff7e8a"/><stop offset=".4" style="stop-color:#ff8290"/><stop offset=".5" style="stop-color:#ff8e9f"/><stop offset=".6" style="stop-color:#ff9cb3"/><stop offset=".7" style="stop-color:#ffa6a8"/><stop offset=".8" style="stop-color:#fec08c"/><stop offset=".9" style="stop-color:#fde366"/></radialGradient><path d="M35.1 70.4c.9 1.3-4.7 3-11.2 12s-4.8 16.6-9 16-.8-9.9 4.8-17.5c6-8.2 14.7-11.7 15.4-10.5" style="fill:url(#y)"/><radialGradient id="z" cx="29.1" cy="63.8" r="29" gradientUnits="userSpaceOnUse"><stop offset=".3" style="stop-color:#ff7e8a"/><stop offset=".4" style="stop-color:#ff8290"/><stop offset=".5" style="stop-color:#ff8e9f"/><stop offset=".7" style="stop-color:#ff9cb3"/><stop offset=".7" style="stop-color:#ffa6a8"/><stop offset=".8" style="stop-color:#fec08c"/><stop offset=".9" style="stop-color:#fde366"/></radialGradient><path d="M11.5 80.7c1.7 1.3 3.1.3 4.7-1.7 2-2.8 5-6 7.3-8 3.2-2.8 8-5.3 7.5-6.3s-5.1.1-10.7 3.8c-5.3 3.6-7.3 6-8 6.9-.9 1.1-3 3.5-.8 5.3" style="fill:url(#z)"/><radialGradient id="A" cx="30.7" cy="57.9" r="18.8" gradientUnits="userSpaceOnUse"><stop offset=".4" style="stop-color:#ff7e8a"/><stop offset=".4" style="stop-color:#ff8290"/><stop offset=".6" style="stop-color:#ff8e9f"/><stop offset=".7" style="stop-color:#ff9cb3"/><stop offset=".7" style="stop-color:#ffa6a8"/><stop offset=".8" style="stop-color:#fec08c"/><stop offset=".9" style="stop-color:#fde366"/></radialGradient><path d="M15.3 63.8c1.2 1.6 3.4.8 4.6-.3 1.3-1 3.4-2.5 5.8-3.6 2.4-1 4.4-.6 4.3-2.2 0-1.2-5.4-1.4-10.7.7-5 2-5 4-4 5.4" style="fill:url(#A)"/><radialGradient id="B" cx="35.6" cy="50.7" r="27.5" gradientUnits="userSpaceOnUse"><stop offset=".3" style="stop-color:#ff7e8a"/><stop offset=".4" style="stop-color:#ff8290"/><stop offset=".5" style="stop-color:#ff8e9f"/><stop offset=".6" style="stop-color:#ff9cb3"/><stop offset=".7" style="stop-color:#ffa6a8"/><stop offset=".8" style="stop-color:#fec08c"/><stop offset=".9" style="stop-color:#fde366"/></radialGradient><path d="M33 50.8c-.3 1.2-3.9-.8-11.4 0-6.8.7-13.5 5.8-15 2.2-1.9-4.8 7.3-6.6 13.9-6.6s13 2.3 12.5 4.4" style="fill:url(#B)"/><radialGradient id="C" cx="36.1" cy="43.9" r="24.3" gradientUnits="userSpaceOnUse"><stop offset=".3" style="stop-color:#ff7e8a"/><stop offset=".4" style="stop-color:#ff8290"/><stop offset=".5" style="stop-color:#ff8e9f"/><stop offset=".6" style="stop-color:#ff9cb3"/><stop offset=".7" style="stop-color:#ffa6a8"/><stop offset=".8" style="stop-color:#fec08c"/><stop offset=".9" style="stop-color:#fde366"/></radialGradient><path d="M38.6 45.7c-.7.7-2.4-1.5-6.7-3-4-1.4-6.7-2.3-11.2-2.4s-7.7 2.3-8.8-.6 1.5-4.7 8.3-4.5c8 .2 12.5 3.2 15.2 5.2 2 1.6 4.1 4.4 3.2 5.3" style="fill:url(#C)"/><radialGradient id="D" cx="48.8" cy="41.1" r="18.5" gradientUnits="userSpaceOnUse"><stop offset=".4" style="stop-color:#ff7e8a"/><stop offset=".8" style="stop-color:#ff9cb3"/><stop offset=".8" style="stop-color:#ffa7a7"/><stop offset=".9" style="stop-color:#fec389"/><stop offset="1" style="stop-color:#fde366"/></radialGradient><path d="M49.5 42.8c-1.3 1-4.9-4-9.5-7-3-2-8.3-2.3-7.3-6 1-3.5 5.6-1.7 9.7 1.6 5 4.1 8.5 10.3 7 11.4" style="fill:url(#D)"/><radialGradient id="E" cx="54.9" cy="35.7" r="27.1" gradientUnits="userSpaceOnUse"><stop offset=".7" style="stop-color:#ff7e8a"/><stop offset=".7" style="stop-color:#ff8488"/><stop offset=".8" style="stop-color:#ff9382"/><stop offset=".9" style="stop-color:#feae79"/><stop offset="1" style="stop-color:#fdd26c"/><stop offset="1" style="stop-color:#fde366"/></radialGradient><path d="M29.6 15c-1 2.2.5 4 3.6 4.7 3.2.8 6.9 3.1 9.7 5.5q5 4.2 7.4 8c1.2 1.7 2.4 3.7 3.2 3.4s.5-2.2-.2-4.1c-.8-2-3.2-8.2-10-13.9-5.3-4.3-11.8-8.1-13.7-3.6" style="fill:url(#E)"/><path d="M23.8 27.4c-.1 1.6 1.1 2.9 3.1 3 1.5.1 3.7-.3 3.9-2.4q0-3.2-3.6-3.4c-1.7 0-3.3.8-3.4 2.8" style="fill:#fede6a"/><radialGradient id="F" cx="60.1" cy="34" r="15.9" gradientUnits="userSpaceOnUse"><stop offset=".7" style="stop-color:#ff7e8a"/><stop offset=".7" style="stop-color:#ff8488"/><stop offset=".8" style="stop-color:#ff9382"/><stop offset=".9" style="stop-color:#feae79"/><stop offset="1" style="stop-color:#fdd26c"/><stop offset="1" style="stop-color:#fde366"/></radialGradient><path d="M53.9 18.3c-1.8 1.3-.4 3.5 1.2 6s3.8 8 5.6 7.6-1.2-8.3-2-10.2-2.3-5.1-4.8-3.4" style="fill:url(#F)"/><radialGradient id="G" cx="65.2" cy="43" r="24.1" gradientUnits="userSpaceOnUse"><stop offset=".7" style="stop-color:#ff7e8a"/><stop offset=".7" style="stop-color:#ff8488"/><stop offset=".8" style="stop-color:#ff9382"/><stop offset=".9" style="stop-color:#feae79"/><stop offset="1" style="stop-color:#fdd26c"/><stop offset="1" style="stop-color:#fde366"/></radialGradient><path d="M65.7 40.6c2 .3 2-7.3 4.2-14.5s5-10.7 2.2-11.8-5.3 2.7-6.6 10c-1.2 6.4-1.5 16.1.2 16.3" style="fill:url(#G)"/><radialGradient id="H" cx="74.3" cy="35.1" r="27.6" gradientUnits="userSpaceOnUse"><stop offset=".7" style="stop-color:#ff7e8a"/><stop offset=".7" style="stop-color:#ff8488"/><stop offset=".8" style="stop-color:#ff9382"/><stop offset=".9" style="stop-color:#feae79"/><stop offset="1" style="stop-color:#fdd26c"/><stop offset="1" style="stop-color:#fde366"/></radialGradient><path d="M75.3 34c1.5.8 3-6 8.4-11 7.3-6.7 14-6.2 13-9.7-.7-2-6-1.7-10.8 1.7s-7 6.7-9 11c-1.4 3-2.7 7.3-1.6 8" style="fill:url(#H)"/><radialGradient id="I" cx="80.6" cy="34.4" r="25.4" gradientUnits="userSpaceOnUse"><stop offset=".7" style="stop-color:#ff7e8a"/><stop offset=".7" style="stop-color:#ff8488"/><stop offset=".8" style="stop-color:#ff9382"/><stop offset=".9" style="stop-color:#feae79"/><stop offset="1" style="stop-color:#fdd26c"/><stop offset="1" style="stop-color:#fde366"/></radialGradient><path d="M81.6 36.3c1.1.7 4-3 6.8-5.2a34 34 0 0 1 12.4-6.5c4.7-1.4 8-1 7.5-4-.5-3.2-5.8-2.1-9.5-.6a32 32 0 0 0-12.9 8.2c-2.7 3-5 7.5-4.3 8" style="fill:url(#I)"/><radialGradient id="J" cx="88.9" cy="42.1" r="21.8" gradientUnits="userSpaceOnUse"><stop offset=".1" style="stop-color:#ff7e8a"/><stop offset=".2" style="stop-color:#ff8290"/><stop offset=".4" style="stop-color:#ff8e9f"/><stop offset=".5" style="stop-color:#ff9cb3"/><stop offset=".6" style="stop-color:#ffa6a8"/><stop offset=".8" style="stop-color:#fec08c"/><stop offset="1" style="stop-color:#fde366"/></radialGradient><path d="M85.5 45.1c1.3 1 2.6-2 6-4.3 3.1-2 5.6-3.6 8.9-4.6 2.8-.9 7.2-.7 6.4-3.2-.7-2.2-5-2.2-8.5-1a25 25 0 0 0-8.9 6.1c-2 2.1-4.9 6.3-4 7" style="fill:url(#J)"/><path d="M56.8 60.5c0 1 3.4 1 5 2.3 2 1.8 2 4.1 3 4.1s1.5-3.4 3.1-4.7 4.7-1.4 4.6-2.2-3.6-.8-5.4-2.5c-1.6-1.4-1.8-3.7-2.5-3.7-.8 0-.6 2.4-3 4.2-2.4 2-4.8 1.5-4.8 2.5" style="fill:#fffffd"/><path d="M31.5 113.8c-2 0-2.5 2-2.4 3.2q.3 2.6 2.9 2.6c2-.1 2.3-1.8 2.1-3.4 0-1-.7-2.5-2.6-2.5" style="fill:#ffdd74"/><path d="M77.7 40.6q-.2 2.3 2 2.3c1.5 0 2-1 2-2.1 0-1-.5-2-2-2q-1.7 0-2 1.8m11.5 15.8c0 1.4.6 2.7 2 2.7 1.5 0 2.2-1.3 2.1-2.4 0-.9-.3-2.1-1.8-2.2a2 2 0 0 0-2.3 2M52.7 39.8c-.3 1.4.6 2.5 1.9 2.4 1.6-.1 2.2-1.3 2.1-2.4 0-.9-.7-1.9-1.9-1.9q-1.9 0-2.1 1.9M36.3 53.2q-.1 2.5 2.2 2.5c1.7 0 2.3-1.3 2.3-2.5 0-.9-.6-2-2.1-2-1.2-.1-2.3.7-2.4 2m-3.7 13.1c-.2 1.8.8 2.6 2.1 2.6 1.6 0 2.2-1.3 2.2-2.4s-.6-2.2-2-2.3q-2 0-2.3 2m6.6 8.8q-1.2 2.4.5 3.2c1.3.6 2.4-.4 2.8-1.4.3-.8.5-2-.7-2.7-.8-.4-2 0-2.6 1m6.5 9.9q0 2.5 2 2.4c1.5 0 2-1 2-2.1 0-1-.5-2.2-2-2.2q-1.7 0-2 2M57.6 88q-.4 2.4 1.8 2.8c1.5 0 2.2-1 2.3-2.1.1-1-.3-2.3-1.8-2.4q-1.8-.1-2.3 1.8M70 92.6q-.1 2.7 2.3 2.7c1.6 0 2.2-1.3 2.2-2.4s-.3-2.5-2.2-2.6q-2 .2-2.3 2.3m13.6-15.8c-.1 1.5.9 2.2 2 2.2 1.4 0 2-1 2-2s-.5-2-2-2q-1.7 0-2 1.8m8.9-4.2q.1 2.3 2.2 2.2c1.4-.1 2-1.3 1.8-2.6-.1-1-1-2-2.3-1.8q-1.6.1-1.7 2.2m3.8-60.1q-.1 3.2 2.8 3.1c2.2 0 3-1.4 3-2.9-.1-1.2-.8-2.5-2.8-2.7q-2.5 0-3 2.5m15.5 6.7q-2.8-1-3.6 1.4c-.6 1.7.5 2.8 1.8 3.2 1 .3 2.5.2 3.1-1.5.5-1.2-.1-2.6-1.3-3m5.2 28.8c-.3 1.8.8 2.7 2 2.7 1.6 0 2.4-1.3 2.3-2.5 0-1-.6-2-2-2q-1.7 0-2.3 1.8m-2 22.1c-1 1.4-.8 3 .3 3.6 1.5 1 3 .2 3.6-1 .5-.9.7-2.2-.7-3.2q-1.7-1.1-3.2.6m.5 17.6q-.2 2.3 2 2.3c1.6 0 2.1-1.3 2.1-2.4 0-.9-.5-2-2-2q-1.9.1-2.1 2M102.2 114q-2.6.2-2.5 2.4c.1 1.6 1.5 2 2.6 2 1-.1 2-.7 2-2.2q0-2-2.1-2.2m-27.4 2.4q0 2.7 2.3 2.7c1.7 0 2.3-1.5 2.2-2.6 0-1-.5-2.2-2.1-2.2q-2 0-2.4 2.1m-28.4-.4c.3 2 1.6 2.6 3 2.2 1.8-.3 2.1-2 1.8-3.2-.3-1-1-2-2.7-1.8q-2.1.4-2 2.8m-24-20.8c-.7 1.4-.3 2.7 1 3.1 1.3.6 2.3-.4 2.7-1.3q.6-1.5-1-2.6-1.7-.8-2.7.8m-10.7 6c.4 2 2 2.4 3.3 2 1.7-.7 2-2.2 1.6-3.4-.3-1-1.4-2.3-3-1.9-1.4.3-2.1 1.8-1.9 3.3m.8-37.8c-1.6 1.3-1.3 2.9-.3 3.8 1 1 2.7.4 3.5-.6s1.2-2.4.1-3.5q-1.4-1.1-3.3.3m-2.1-25.5c-1 1.3-.4 3 1.1 3.8s3.1-.2 3.7-1.4c.4-1 .4-2.5-1.2-3.4-1.2-.7-2.7-.3-3.6 1M24.8 15q-.5 3 2.2 3.4c1.9.3 2.9-1.2 3-2.6.2-1.1-.2-2.5-2-2.8-1.4-.3-2.8.4-3.2 2m24.5.4c-.2 1.7 1 2.7 2.4 2.7q2.3-.2 2.5-2.3c0-1-.6-2.3-2.3-2.4-1.2-.2-2.5.7-2.6 2m21.3-2.9q0 2.9 2.6 2.9c1.7 0 2.4-1.4 2.4-2.6 0-1-.6-2.3-2.2-2.4q-2.3 0-2.8 2.1" style="fill:#fffefd"/></svg>