<svg xml:space="preserve" width="16" height="16" viewBox="0 0 128 128"><path d="M11.7 110.3c6 4.7 17.2-.4 17.2-.4l12.7-4.4L108 63.2l9-11.6s7.7-7 7.6-13c0-6.1-3.3-9-8.3-9.5s-13.9 1.5-13.9 1.5-2.6-8.3-7.5-11.8l-.2-.8a6 6 0 0 0-4-1q-2.5.1-4.5.8c-1 .4-2 1.6-2.8 2-3 1.9-4.3 3.4-4.3 3.4L65 19.8 59.2 15s-2.3-.9-5.3 0c-2.7.6-4.2 1.8-4.9 2.4-.3.2-3.5 13.7-3.5 13.7L23 34.3s-2 .8-3.6 3.4a22 22 0 0 0-2.2 7.1l2.7 15.8-12 6.7S6.3 68.8 5 71.9s-1 5.6-.9 7c0 1 9.1 9.5 9.1 9.5l-5.5 14s.1 5 3.9 7.9" style="fill:#ffe5b2"/><path d="M55.2 51c-17 10.3-19 26.4-18.3 37s3.4 18.1 3.4 18.1 20.3-3.2 40.5-17.3 27.3-25.6 27.3-25.6-8.2-10-20-15.9C74.7 41 62.1 46.7 55 51m39.8-33s-5.4 16.6 4.5 21c12.8 5.5 17.1-10 17.1-10s-5.9-.7-9.3-2.4c-6-3-12.3-8.7-12.3-8.7M59 15s.3 15.6 13.6 17.5c13.3 1.8 13.8-14.7 13.8-14.7s-4.1 2-11 2c-6 0-8-2.2-10.8-3.4-3.5-1.4-5.6-1.3-5.6-1.3M23 34.2S34 48 46.6 39.4c10.7-7.4 2.6-21.9 2.6-21.9s-7 8.9-10.5 10.8a80 80 0 0 1-15.5 6M17.3 44s15.7 10 10 20c-5.8 10.1-19.4 3.3-19.4 3.3s7.4-5.1 9-8.7-.8-10.1.4-14.6m2.5 44.1c.4 6.4-9.2 12.6-12 14.3-.6-4 1.4-8.3 1-12.5-.6-4.3-4.9-7.5-4.5-11 3.7.1 15 1 15.5 9.2" style="fill:#face90"/><path d="M61 41.6c.6 1.6 2.7 1.4 5.4.7 2.5-.6 4-1 4-2.5 0-2-3-2.5-5-2-1.9.4-5 1.8-4.3 3.8m-3.8 2c.6 2.5-9.5 6-15.7 14.3-9.8 13.1-7.4 22.8-10 23.4s-3.3-9.8.1-17.6 9.3-14 13.7-17.2c5.3-3.7 11.4-5.3 12-2.9" style="fill:#fff"/></svg>