<svg xml:space="preserve" width="16" height="16" viewBox="0 0 128 128"><path d="M116 4H12a8 8 0 0 0-8 8v104a8 8 0 0 0 8 8h104a8 8 0 0 0 8-8V12a8 8 0 0 0-8-8" style="fill:#427687"/><path d="M109.7 4H11.5A7.6 7.6 0 0 0 4 11.5v97.9c0 4.1 3.3 7.5 7.5 7.5h98.1c4.1 0 7.5-3.3 7.5-7.5V11.5c0-4-3.1-7.4-7.2-7.5z" style="fill:#8cafbf"/><path d="M39.7 12.9c0-2.3-1.6-3-10.8-2.7-7.7.3-11.5 1.2-13.8 4s-2.9 8.5-3 15.3c0 4.8 0 9.3 2.5 9.3 3.4 0 3.4-7.9 6.2-12.3 5.4-8.7 18.9-10.6 18.9-13.6" style="opacity:.3;fill:#fff"/><path d="M19.2 80.3h-6.8V48.2H31v5.6H19.2V62H30v5.6H19zM43.5 68v12.3h-6.8V48.2h9.4q6.5 0 9.7 2.4 3 2.4 3 7.2 0 2.9-1.5 5-1.5 2.3-4.4 3.5l9.5 14h-7.6L47.1 68zm0-5.6h2.2q3.2 0 4.8-1c1.6-1 1.5-1.9 1.5-3.4q0-2.2-1.5-3.3-1.6-1-5-1h-2zM85 80.3H66.3V48.2H85v5.6H73.2v7h10.9v5.6H73.2v8.3H85zm23.9 0H90.4V48.2h18.5v5.6H97.2v7H108v5.6H97v8.3h12z" style="fill:#fafafa"/></svg>