<svg xml:space="preserve" width="16" height="16" viewBox="0 0 128 128"><path d="M27 39.5c-.8-5.7-2-15.7-1.2-21.2s3-10.6 7.6-12.6c4-1.8 9 0 11.8 4.3q2.3 3.9 3.3 8.5a146 146 0 0 1 3.3 17.4" style="fill:none;stroke:#00796b;stroke-width:3;stroke-miterlimit:10"/><path d="m30.7 116.6-24.2-10 5.7-24.8L11 25.5l61-7.2v5.3l14.6 1.8z" style="fill:#26a69a"/><path d="m91.9 107.4-61.2 9.3-5.2-32.4V34.7l61.2-9.3v49.7z" style="fill:#61de9f"/><path d="M25.5 34.7v-5.6L11 25.4l61.2-6.7 2 4.3 12.5 2.4z" style="fill:#263238"/><path d="M6.5 106.6C7 106.6 21 95.4 21 95.4l9.7 21.3-2-34-3.2-48-4.1 52z" style="fill:#00796b"/><path d="m72 19.3 1.5 3.4.2.5h.5l7.4 2-55.1 8.3v-5.2l-.8-.2-9.2-2.3zm.6-1L11 25.4 25.5 29v5.6l61.2-9.2-12.2-3.2z" style="fill:#26a69a"/><path d="M44 38.5c-.8-5.7-8.6-27.5 6.3-30.3 11.3-2 16.3 22 17 27.3" style="fill:none;stroke:#61de9f;stroke-width:3;stroke-miterlimit:10"/><path d="M45.8 40c-.9-2.9-1.8-8.8-1.8-9l3-.5s1 6 2.2 8.9zm23.3-3.5c-.8-3-1.7-8.9-1.8-9.1l3-.5s1.2 6.2 2.2 9zm-22.3 77.8 8.4-14.6-4-38.8 33.6-6.5-18 56.9z" style="fill:#26a69a"/><path d="M73 57s-3.6-20 9-18.7c6.8.7 6.5 16.7 6.5 16.7" style="fill:none;stroke:#d7578a;stroke-width:3;stroke-miterlimit:10"/><path d="m74.5 124-18.6-7.8 4.3-19-1-43.3 47-5.6v4.2l11.3 1.4z" style="fill:#d7578a"/><path d="m121.5 116.9-47 7.1-4-24.9V61l47-7.1V92z" style="fill:#ff9f9f"/><path d="m70.5 61-3.8-3-7.4-4.2 47-5.6 4.3 2.7 6.9 2.9z" style="fill:#263238"/><path d="m106.1 49.4 8 4-43.4 6.5-8.5-5.4zm0-1-47 5.5 11.3 7 47-7zM86.4 64.8a55 55 0 0 1-1.4-7l2.6-.3s.7 4.6 1.3 6.7zm17.9-2.8c-.7-2.2-1.4-6.7-1.4-7l2.6-.3c0 .1.5 4.8 1.1 7z" style="fill:#d7578a"/><path d="M84.9 65c-.6-4.5-6.5-22.8 4.7-24.4 8.7-1.2 12.5 17 13 21" style="fill:none;stroke:#ff9f9f;stroke-width:3;stroke-miterlimit:10"/><path d="m55.9 116.2 9.5-8 9 15.8-4-24.7.1-38.2-1-.5-3.6 38.8z" style="fill:#ab2c5e"/></svg>