<svg xml:space="preserve" width="16" height="16" viewBox="0 0 128 128"><path d="M103.5 61.7q1-1.2 1.6-2.3c2.7-5 3.2-11.3 1-16.5-.7-1.7-3.3-2.2-4.4-3.5q1.7-.7 2.3-2.4c.4-1 1-4.2-.3-6.2 0-.1-2.2 5-7 5.7-2 .3-4-2.1-4-2.1s3.2-4.7 3.7-8.3c.5-4.1.2-6.5-2.1-9.6-1.4-2-5.1-1-6.6-.7-2.2.4-2.6 2.6-2.6 2.6a15 15 0 0 0-6.6-6.7c-1.8-.9-4-2-5.9-1.7-2-2.4-5.2-4.6-8.5-4.6H64c-3.4 0-6.6 2.2-8.6 4.6-1.9-.3-4 .8-5.8 1.7a15 15 0 0 0-6.6 6.7s-.5-2.2-2.6-2.6c-1.5-.4-5.3-1.2-6.6.7-2.3 3-2.7 5.5-2 9.6.4 3.6 3.6 8.3 3.6 8.3s-2 2.4-4.1 2c-4.7-.7-6.9-5.7-7-5.6-1.3 2-.7 5.1-.3 6.2a4 4 0 0 0 2.4 2.4c-1.1 1.3-3.8 1.8-4.4 3.5a20 20 0 0 0 1 16.5l1.6 2.3c-2 1.1-5.3 6-5.3 6v3.9q0 3.8 2 7c2 2.9 5.2 5 5.9 6.8.4 1 .4 2.4-.5 3.1s-4.3-2.3-4.6-2c-.2.1 0 3 0 3.3q.1 2 1.7 3a6 6 0 0 0 2.6.8c-2.4 10 3 15.5 7.7 17 2.2.7 5.4.3 6 0 1 3.3 2.7 7.1 6 8.7a12 12 0 0 0 10 .8c2.7-1.1 5.6 3.8 7.9 3.9 2.4-.1 5.3-5 8-3.9 3 1.1 6 1 9.9-.7 3.4-1.7 5-5.5 6-8.7.7.2 4 .6 6.1-.1 4.8-1.5 10-7 7.7-17 0 0 1.6 0 2.6-.8q1.5-1 1.7-3c0-.2.2-3.2 0-3.4s-3.7 2.9-4.6 2.1-1-2-.5-3.1c.7-1.8 4-3.9 5.8-6.8a13 13 0 0 0 2-7v-3.9s-3.2-4.9-5.2-6M64 8.3q3.8.2 6 3.3l-2.7 2q-.1.3-.4.3c-.5 0-1.3-2.2-1.5-2.6l-.8-1.8-.6-.3q-.4 0-.6.3l-.9 1.8c-.2.4-1 2.6-1.4 2.6l-.5-.2-2.6-2.1q2.3-3.2 6-3.3m-7 5c.3.1 1.6 2 2.5 6.7h9c1-4.7 2.2-6.6 2.5-6.8q.9 1.6.4 4.3c-1.1 4.3-3 7.5-7.4 7.6s-6.3-3.4-7.4-7.6q-.5-2.7.4-4.2m42.9 68L97.5 84a6 6 0 0 0-1.4 5.9l-3 2.8c1.6.8 4.4 2.5 4.1 8.4 0 2.7-1.7 5.5-4.3 6.5 0 0 .6-1.9 0-3.2q-1.2-2.4-3.4-2.3-1.5 0-2.6.8c-1 .8-3.6 1.2-3.5 2.6 0 .3 1.4 3.2-1 6.6-2 3-8.8 4-11.6 1.5H57.2c-2.8 2.5-9.6 1.5-11.6-1.5-2.4-3.4-1-6.3-1-6.6.1-1.4-2.5-1.8-3.5-2.6q-1-.8-2.6-.8-2.2 0-3.4 2.3c-.6 1.3 0 3.2 0 3.2a8 8 0 0 1-4.3-6.5c-.3-6 2.5-7.6 4.2-8.4L32 90c.6-2.8-.3-4.5-1.4-5.9-.6-.7-1.7-2-2.5-2.7-2.4-2.3-5-3.9-5-9 0-5.6 5.1-6 5.7-6l.4-4.5c-7.6-5.6-4.7-13.5-4.7-13.5a12 12 0 0 0 5.2 6.2l1.5-2.3c-1.7-1-3-3.5-3.1-5.8-.2-2 .4-3.4 2.1-5a8 8 0 0 1 5.7-1.3l4.7-6-1-1c-1.4-1.3-3.2-2.6-4.1-6.7-.4-1.7-.5-4.4.5-5.9q.7-1.2 2.1-1.6c.7-.1 1.5 0 1.5 1 0 .5-.6 1.5-2.3 1.3V24l.2.4q1.4 1.1 3.1.6-.7 3.5-.5 7l6-1.2c-.1-3-2-12.5 4.8-17q2.4-1.4 4.1-1.4c-.6 1.3-.5 4.1-.5 5.7 0 6 3.5 10.4 9.5 10.5s9.5-4.6 9.5-10.5c0-1.6 0-4.4-.5-5.7q1.8 0 4 1.4c6.9 4.5 5 14 4.9 17l6 1.2q.2-3.5-.5-7c1 .3 2.3.2 3-.6l.4-.4v-3c-1.8.3-2.5-.7-2.4-1.2 0-1 .8-1.1 1.5-1q1.3.4 2.1 1.6c1 1.5.9 4.2.5 5.9-1 4-2.7 5.4-4.1 6.7l-1 1 4.7 6c2.5 0 3.8.2 5.7 1.4q2.5 2.2 2.1 4.9c-.1 2.3-1.4 4.8-3 5.8l1.4 2.3c2.3-1.2 4.5-4 5.3-6.2 0 0 2.8 8-4.8 13.5l.4 4.5c.6 0 5.6.4 5.6 6 0 5.1-2.5 6.7-5 9" style="fill:#9e673c"/><path d="M106.7 75.7q2-3.5 2-7.8c0-4.8-2.6-7.6-5.2-9l1.6-2.4a17 17 0 0 0-.2-16.2q-1.4-2-3.2-3.8 1.7-.7 2.3-2.4a4 4 0 0 0-.3-3.3l-.3-.3-.3.2-1.8 1.6a7 7 0 0 1-4.5 1.2c-2.2 0-4.1-2-4.1-2s3-5 3.3-8.5c.3-4-1.2-6.3-2.5-7.4-1.8-1.6-4-2-5.6-1.7-2.1.4-2.8 1.6-2.8 1.6a15 15 0 0 0-6.6-6.7c-1.8-.9-4.1-1-6-.7a11 11 0 0 0-17 0c-1.9-.3-4.2-.2-6 .7a15 15 0 0 0-6.6 6.7s-.7-1.2-2.8-1.6c-1.5-.4-3.8.1-5.6 1.7-1.3 1.1-2.7 3.4-2.5 7.4.3 3.6 3.4 8.5 3.4 8.5s-2 2-4.2 2a7 7 0 0 1-4.5-1.2l-1.8-1.6-.3-.2-.3.3A4 4 0 0 0 24 34a4 4 0 0 0 2.3 2.4q-1.8 1.8-3.2 3.8a17 17 0 0 0-.2 16.2l1.6 2.3a10 10 0 0 0-5.2 9q0 4.3 2 7.9c1.9 2.9 5.1 5 5.8 6.7.4 1.1.4 2.5-.5 3.2s-2.2.6-3.4.4q-.5-.2-1 .1-.3.3-.2.8.2 1.9 1.8 3 1.6 1 3.4.6c-.3 1-1.5 3.6-.7 7.2 1 4.3 3.4 8.6 7.5 10 2.2.7 4.6.5 5.3.2.6 3.8 3.1 7.1 6.5 8.9 3.5 1.9 7.3 1.5 10.3.4 3-1.3 6 4 8 3.8 1.5-.1 5-4.9 7.9-3.8 3 1 6.7 1.5 10.3-.4 3.3-1.8 5.9-5.1 6.5-8.8.6.2 3 .4 5.2-.3 4.2-1.4 6.6-5.7 7.6-10 .8-3.6-.4-6.1-.8-7.2q1.9.4 3.5-.6 1.5-1.1 1.7-3 0-.5-.2-.8t-1-.1c-1.2.2-2.5.4-3.4-.4q-1.3-1.2-.5-3.2c.7-1.7 4-3.8 5.8-6.7m-49.9-65 .1.2c1 .7 2.2 3.8 2.6 6.2h9c.4-2.4 1.6-5.5 2.6-6.2v-.1q.8 1.6.8 3.4a8 8 0 0 1-15.9 0q0-1.8.8-3.4M64 6.3a8 8 0 0 1 6.7 3.7h-.6q-1.5 0-2.8.9l-.4.2c-.5 0-1.3-2.2-1.5-2.6l-.8-1.8zq-.4 0-.6.4l-.9 1.8c-.2.4-.9 2.6-1.4 2.6l-.4-.2a5 5 0 0 0-2.8-1l-.6.1A8 8 0 0 1 64 6.2m35.9 72.2L97.5 81a6 6 0 0 0-1.4 5.9l-3 2.8c1.6.8 4.4 2.5 4.1 8.4 0 2.7-1.7 5.5-4.3 6.5 0 0 .6-1.9 0-3.2q-1.2-2.4-3.4-2.3-1.5 0-2.6.8a4 4 0 0 0-1.5 3.4l.1 1a8 8 0 0 1-3.7 8.4c-3.8 2.4-8.2.4-11-2H57.2c-2.8 2.4-7.2 4.4-11 2a8 8 0 0 1-3.7-8.4l.1-1a4 4 0 0 0-1.5-3.4q-1-.8-2.6-.8-2.2 0-3.4 2.3c-.6 1.3 0 3.2 0 3.2a8 8 0 0 1-4.3-6.5c-.3-6 2.5-7.6 4.1-8.4L32 87a6 6 0 0 0-1.4-5.9l-2.4-2.7c-2.4-2.3-5-3.9-5-9 0-5.6 5.1-6 5.7-6l.4-4.5c-7.6-5.6-4-13.3-4-13.3.7 2.2 2.4 4.8 4.5 6l1.5-2.3c-1.7-1-3-3.5-3.1-5.8-.2-2 .4-3.4 2.1-5a8 8 0 0 1 5.7-1.2l4.7-6.1-1-1c-1.4-1.3-3.2-2.6-4.1-6.7-.4-1.7-.4-3.9.6-5.4q.7-1.2 2.2-1.6c1.2-.2 2.4.7 1.9 2-.4.9-1.6 1.2-2.4 1.8q-.5.3-.5.9l.2.4q1.4 1.2 3.1.6-.6 3.5-.5 7L44 29c-.2-3-.8-12.5 6-17q2.4-1.5 4-1.4a10.8 10.8 0 0 0 10 15.2 11 11 0 0 0 10-15.2q1.8 0 4 1.4c6.8 4.5 6.2 14 6 17l4 .2q0-3.5-.6-7 1.7.5 3.1-.6.2 0 .3-.4 0-.6-.6-.9c-.8-.6-2-1-2.3-1.8-.6-1.3.6-2.2 1.9-2q1.3.4 2.1 1.6c1 1.5 1 3.7.6 5.4-.9 4-2.7 5.4-4 6.7l-1 1 4.6 6c2.6 0 3.8.2 5.7 1.4q2.5 2.1 2.2 4.9c-.2 2.3-1.5 4.8-3.2 5.8l1.5 2.3c2.1-1.3 3.8-3.8 4.6-6 0 0 3.5 7.7-4 13.3l.3 4.5c.6 0 5.7.4 5.7 6 0 5.1-2.6 6.7-5 9" style="fill:#d68b52"/><ellipse cx="64" cy="66.8" rx="36.4" ry="47.9" style="fill:#9e673c"/><ellipse cx="64" cy="64.2" rx="36.4" ry="47.9" style="fill:#f5ad71"/><radialGradient id="a" cx="66" cy="55.2" r="64.5" gradientTransform="matrix(1 0 0 .909 0 7.94)" gradientUnits="userSpaceOnUse"><stop offset=".4" style="stop-color:#e1f5fe"/><stop offset=".5" style="stop-color:#cfeffd"/><stop offset=".8" style="stop-color:#a0dffb"/><stop offset="1" style="stop-color:#81d4fa"/></radialGradient><ellipse cx="64" cy="64.2" rx="33.2" ry="43.7" style="fill:url(#a)"/><ellipse cx="64" cy="64.2" rx="33.2" ry="43.7" style="fill:#ba793e"/><linearGradient id="b" x1="79.7" x2="48.7" y1="27.8" y2="102.8" gradientUnits="userSpaceOnUse"><stop offset="0" style="stop-color:#b3e5fc"/><stop offset=".5" style="stop-color:#cbeefd"/><stop offset=".9" style="stop-color:#e1f5fe"/></linearGradient><ellipse cx="64" cy="65.9" rx="31.9" ry="42.1" style="fill:url(#b)"/><path d="M35.6 103.1q-.7-1.5-.4-2l-.1.4c-.6 1.3 0 3.2 0 3.2 1.4.6 2.9 0 2.9 0s-1.6-.2-2.4-1.6m56.7 0c.7-1 .5-1.7.4-2l.2.4c.6 1.3 0 3.2 0 3.2-1.5.6-3 0-3 0s1.7-.2 2.4-1.6" style="fill:#9e673c"/><radialGradient id="c" cx="63.5" cy="66.3" r="53.1" gradientTransform="matrix(.72 .767 -.458 .466 49.9 -10.63)" gradientUnits="userSpaceOnUse"><stop offset=".4" style="stop-color:#fff;stop-opacity:0"/><stop offset="1" style="stop-color:#fff"/></radialGradient><path d="M88.8 48.5c6 14.2 3.8 28.6-4.8 32.3s-20.5-4.8-26.5-19-3.9-28.6 4.8-32.3 20.5 4.9 26.5 19" style="fill:url(#c)"/></svg>