<svg xml:space="preserve" width="16" height="16" viewBox="0 0 128 128"><radialGradient id="a" cx="63.6" cy="2288.9" r="57" gradientTransform="translate(0 -2226)" gradientUnits="userSpaceOnUse"><stop offset="0" style="stop-color:#fde030"/><stop offset=".2" style="stop-color:#f1de37"/><stop offset=".5" style="stop-color:#d1d748"/><stop offset="1" style="stop-color:#9dcc64"/><stop offset="1" style="stop-color:#9ccc65"/></radialGradient><path d="M63.6 118.8c-27.9 0-58-17.5-58-55.9S35.7 7 63.6 7c15.5 0 29.8 5.1 40.4 14.4 11.5 10.2 17.6 24.6 17.6 41.5s-6.1 31.2-17.6 41.4a61 61 0 0 1-40.4 14.5" style="fill:url(#a)"/><path d="M111.5 29.7a57 57 0 0 1 8.1 30.2c0 16.9-6.1 31.2-17.6 41.4a61 61 0 0 1-40.4 14.5 59 59 0 0 1-48.2-23 58 58 0 0 0 50.2 26c15.4 0 29.8-5.2 40.4-14.5a54 54 0 0 0 17.6-41.4q-.1-19.2-10.1-33.2" style="fill:#789e46"/><g style="opacity:.65"><radialGradient id="b" cx="144.3" cy="-71.9" r="15.8" gradientTransform="matrix(.89 0 0 -.78 -36.33 40.18)" gradientUnits="userSpaceOnUse"><stop offset="0" style="stop-color:#ed7770"/><stop offset=".1" style="stop-color:#ed7770;stop-opacity:.97"/><stop offset=".2" style="stop-color:#ed7770;stop-opacity:.88"/><stop offset=".3" style="stop-color:#ed7770;stop-opacity:.74"/><stop offset=".5" style="stop-color:#ed7770;stop-opacity:.55"/><stop offset=".7" style="stop-color:#ed7770;stop-opacity:.29"/><stop offset=".9" style="stop-color:#ed7770;stop-opacity:0"/></radialGradient><ellipse cx="92.1" cy="96.1" rx="13" ry="11.9" style="fill:url(#b)"/></g><g style="opacity:.65"><radialGradient id="c" cx="82.4" cy="-73.7" r="15.8" gradientTransform="matrix(.89 0 0 -.78 -36.33 40.8)" gradientUnits="userSpaceOnUse"><stop offset="0" style="stop-color:#ed7770"/><stop offset=".1" style="stop-color:#ed7770;stop-opacity:.97"/><stop offset=".2" style="stop-color:#ed7770;stop-opacity:.88"/><stop offset=".3" style="stop-color:#ed7770;stop-opacity:.74"/><stop offset=".5" style="stop-color:#ed7770;stop-opacity:.55"/><stop offset=".7" style="stop-color:#ed7770;stop-opacity:.29"/><stop offset=".9" style="stop-color:#ed7770;stop-opacity:0"/></radialGradient><ellipse cx="37" cy="98.1" rx="13" ry="11.9" style="fill:url(#c)"/></g><path d="M42.7 87.1c2.7 1.3 5.7 4.9 6.8 7.6q1.3 3.3.7 6.8m34.3-15.1a17 17 0 0 0-6.8 7.6 12 12 0 0 0-1 4.2m-27.2-4s1.7-4.8 14.1-5c11.4-.2 14 3.4 14 3.4" style="fill:none;stroke:#35220b;stroke-width:5.26;stroke-linecap:round;stroke-linejoin:round"/><path d="M27.4 51.8c-2.2.4-2.3 3.6.1 3.7a21 21 0 0 0 18-10 1.8 1.8 0 1 0-3-2.1l-.1.1a26 26 0 0 1-15 8.3m57.1-15.4a1.8 1.8 0 1 0-3 2.1q1.5 2.6 3.7 4.5a21 21 0 0 0 14.3 5.5c2.5-.1 2.3-3.3.1-3.7q-9-1.6-15.1-8.4M37.8 62.7a3.5 3.5 0 0 0-2 4c1 4.3 4.4 6.8 8 6.8 4.3 0 8.3-3.7 8.3-9.8q0-1.6-.4-3.2a3.5 3.5 0 0 0-5-2.2z" style="fill:#422b0d"/><path d="M47.4 61.8q-1.1-1.4-3.4 0c-2.3 1.4-1.9 2.3-1.3 3.1s2 1 3.4 0 1.8-2.3 1.3-3.1" style="fill:#896024"/><path d="M89.8 62.7q2.3 1.3 2 4c-1 4.3-4.4 6.8-8 6.8-4.4 0-8.3-3.7-8.3-9.8q0-1.6.4-3.2a3.5 3.5 0 0 1 4.9-2.2z" style="fill:#422b0d"/><path d="M80.2 61.8c.6-.8 2-1 3.4 0s1.9 2.3 1.3 3.1-2 1-3.4 0-1.8-2.3-1.3-3.1" style="fill:#896024"/></svg>