<svg xml:space="preserve" width="16" height="16" viewBox="0 0 128 128"><path d="M86.1 154.8v-.3" style="fill:none"/><path d="M120.8 11.7c-7.7 3-31.3 9.7-56.8 9.7s-49-6.7-56.8-9.7c-1.4-.5-2.8.9-2.7 2.4C11 31.7 35.3 50.7 64 50.8c28.7 0 52.9-19 59.5-36.7.1-1.5-1.3-2.9-2.7-2.4" style="fill:#424242"/><path d="M100 31.6a35 35 0 0 0-13.1-3c-11.3-.5-15 3.2-22.9 3.3-8 0-11.6-3.8-22.9-3.2A35 35 0 0 0 28 31.6c-5.3 3-4.4 6.6-.6 8.9a74 74 0 0 0 35.7 12.1H65c13 0 25.7-6.2 35.7-12.1 3.8-2.3 4.7-6-.6-9" style="fill:#c41b59"/><radialGradient id="a" cx="67" cy="27.8" r="74.8" gradientTransform="matrix(1 0 0 1.08 0 -2)" gradientUnits="userSpaceOnUse"><stop offset=".1" style="stop-color:#e92c6c"/><stop offset="1" style="stop-color:#f06a97"/></radialGradient><path d="M110.9 76.7c-3-30-8.2-37.8-13.5-40.6-6.7-3.5-13-3-16.4-2.3-9.2 2-10.9 3.6-15.7 3.6s-7.3-1.6-16.6-3.6c-3.4-.7-9.6-1.2-16.3 2.3C27 39 21.9 46.6 18.9 76.7c-2 20 11.7 40.5 46 40.5s48-20.5 46-40.5" style="fill:url(#a)"/><linearGradient id="b" x1="64.9" x2="64.9" y1="39.4" y2="89" gradientUnits="userSpaceOnUse"><stop offset="0" style="stop-color:#c41b59"/><stop offset="1" style="stop-color:#c41b59;stop-opacity:0"/></linearGradient><path d="M64 33.3c-3 0-22.4-1.1-16.5.3 6.9 1.7 9.3 5.7 11.8 11.6 4.7 10.7 3.5 38 5.3 38.2 1.9.2 3.6-14.7 4-32.6.3-13.9 9.3-17.2 14.8-17.5z" style="fill:url(#b)"/><radialGradient id="c" cx="65.1" cy="72.2" r="73.4" gradientTransform="matrix(.955 0 0 .502 2.92 34.34)" gradientUnits="userSpaceOnUse"><stop offset=".7" style="stop-color:#ff9cbd;stop-opacity:0"/><stop offset="1" style="stop-color:#ff9cbd"/></radialGradient><path d="M22.3 78c0-15.5 6.6 7.6 42.6 7.6s42-21.8 42-6.3-19.5 29.4-42 29.4-42.6-15-42.6-30.6" style="opacity:.75;fill:url(#c)"/></svg>