<svg xml:space="preserve" width="16" height="16" viewBox="0 0 128 128"><path d="M116 4H12a8 8 0 0 0-8 8v104a8 8 0 0 0 8 8h104a8 8 0 0 0 8-8V12a8 8 0 0 0-8-8" style="fill:#427687"/><path d="M109.7 4H11.5A7.6 7.6 0 0 0 4 11.5v97.9c0 4.1 3.3 7.5 7.5 7.5h98.1c4.1 0 7.5-3.3 7.5-7.5V11.5c0-4-3.1-7.4-7.2-7.5z" style="fill:#8cafbf"/><path d="M66.8 42.7a3.7 3.7 0 0 1-2.8 6.2H50.8c-1 0-2 .8-2 1.9v32c0 4.6 1.5 11 11.4 11.4l12.6 14q-4.3 1.1-8.8 1.1c-16.7 0-30.2-11.8-30.2-26.4V50.8c0-1-.9-2-1.9-2H18.7a3.8 3.8 0 0 1-2.8-6.1L38.5 20a4 4 0 0 1 5.7 0zm-5.6 42.6a3.7 3.7 0 0 1 2.8-6.2h13.2c1 0 2-.8 2-1.9v-32c0-4.6-1.5-11-11.4-11.4l-12.6-14q4.3-1.1 8.8-1.1c16.7 0 30.2 11.8 30.2 26.4v32.1c0 1 .9 2 1.9 2h13.2a3.8 3.8 0 0 1 2.9 6.1L89.5 108a4 4 0 0 1-5.7 0z" style="fill:#fafafa"/><path d="M39.7 12.9c0-2.3-1.6-3-10.8-2.7-7.7.3-11.5 1.2-13.8 4s-2.9 8.5-3 15.3c0 4.8 0 9.3 2.5 9.3 3.4 0 3.4-7.9 6.2-12.3 5.4-8.7 18.9-10.6 18.9-13.6" style="opacity:.5;fill:#b4e1ed"/></svg>