<svg xml:space="preserve" width="16" height="16" viewBox="0 0 128 128"><path d="m60.7 100.2-.3-39.6 5.2.3.3 41.4z" style="fill:#6aa5ad"/><path d="M49 107.7q-4.7-.2-4.2 6.4c.5 6.6 2.9 10.7 11.6 10.5 10.1-.1 10.9-7.2 10.7-15-.1-5.3 0-9.6-.3-9.8s-7.3-.4-7.7 0 0 8.8-.2 10.9.3 6-3.5 6c-2.9-.1-3.3-2.5-3.3-3.7s.7-5.1-3.2-5.3" style="fill:#3f7377"/><path d="M53.2 44.5 63 27.2s-19-2.4-35.9 10.7C5.6 54.5 9 72.8 9 72.8s8.2-7.8 14.8-7.2 15 8.7 15 8.7z" style="fill:#937ef3"/><path d="m65.2 32.5-1.4-5.3s19.3-.3 33.6 9.2c24.7 16.1 22 34.2 22 34.2s-5.4-7.5-17.1-7-16.1 11.1-16.1 11.1z" style="fill:#5547f4"/><radialGradient id="a" cx="83.8" cy="1.3" r="27.2" gradientUnits="userSpaceOnUse"><stop offset=".5" style="stop-color:#71d3ff"/><stop offset=".6" style="stop-color:#6cd2fe"/><stop offset=".7" style="stop-color:#5dcefa"/><stop offset=".7" style="stop-color:#44c8f4"/><stop offset=".8" style="stop-color:#22c0eb"/><stop offset=".9" style="stop-color:#00b7e2"/></radialGradient><path d="M84.1 1.1c-1.2 0-2.3 3.4-4.1 7.3s-5 7.6-3.4 13.3c2.1 7.6 14.9 7.6 15.2-2.8.1-3.5-3-8.5-4-11-1-2.4-2.2-6.9-3.7-6.8" style="fill:url(#a)"/><path d="M80.6 14.1c-1.4.1-2.7 2.4-2.2 5.7s2.8 4.2 4 3.7.3-2.6 0-4.8.3-4.8-1.8-4.6" style="fill:#ace8fe"/><radialGradient id="b" cx="101.6" cy="26.6" r="23.6" gradientUnits="userSpaceOnUse"><stop offset=".6" style="stop-color:#71d3ff"/><stop offset=".7" style="stop-color:#6cd2fe"/><stop offset=".7" style="stop-color:#5dcefa"/><stop offset=".8" style="stop-color:#44c8f4"/><stop offset=".9" style="stop-color:#22c0eb"/><stop offset=".9" style="stop-color:#00b7e2"/></radialGradient><path d="M101.7 26c-1.1-.1-1.1 2.6-4.5 8-2.2 3.7-4.2 7.8-3 11.9 2.3 7.9 15 7.5 15.4-2.8 0-3.5-2-6.4-3.8-9.7-1.2-2.3-3.1-7.4-4-7.4" style="fill:url(#b)"/><path d="M98.7 38.5c-1.3-.5-3.1 1.7-3 5s2.6 5.2 4 4.2c1.2-1-.3-3.7-.3-5.4s.5-3.4-.7-3.8" style="fill:#ace8fe"/><radialGradient id="c" cx="22.6" cy="28.5" r="23.8" gradientUnits="userSpaceOnUse"><stop offset=".7" style="stop-color:#71d3ff"/><stop offset=".7" style="stop-color:#6cd2fe"/><stop offset=".8" style="stop-color:#5dcefa"/><stop offset=".8" style="stop-color:#44c8f4"/><stop offset=".9" style="stop-color:#22c0eb"/><stop offset="1" style="stop-color:#00b7e2"/></radialGradient><path d="M22.8 28.6c-1 0-2.2 3.1-4 7s-5 6.2-3.9 12.4c1.5 8 15.4 8.5 15.7-1.8.1-3.6-2.8-8.3-4-10.7-1.4-2.9-3-6.9-3.9-7" style="fill:url(#c)"/><path d="M18.4 41.6c-2 0-2.3 4.2-1.7 6s1.4 3.3 3 2.9c1.8-.4.6-3.2.4-4.8-.3-1.6 0-4-1.7-4.1" style="fill:#ace8fe"/><radialGradient id="d" cx="41.2" cy="1.2" r="25.5" gradientUnits="userSpaceOnUse"><stop offset=".7" style="stop-color:#71d3ff"/><stop offset=".7" style="stop-color:#6cd2fe"/><stop offset=".8" style="stop-color:#5dcefa"/><stop offset=".8" style="stop-color:#44c8f4"/><stop offset=".9" style="stop-color:#22c0eb"/><stop offset=".9" style="stop-color:#00b7e2"/></radialGradient><path d="M41.9 1.9c-1.2-.1-2 2.7-2.4 3.6-1 2.2-6 8.3-5.8 14 .1 6.4 5.2 8 8.4 8 3.4-.2 8.3-2.3 7.3-9-.4-2.6-1.8-5.5-3.2-8.4C44.4 5.7 43.6 2 42 1.9" style="fill:url(#d)"/><path d="M38.5 14.7c-1.5-.4-2.8 2.4-2.5 5.4.3 2.9 1.8 4.6 3 4.2 2.7-.7.7-3.3.6-5.4 0-1.9.3-3.8-1-4.2" style="fill:#ace8fe"/><path d="M86.3 74S85.2 56.2 81 47.1c-7.5-16.6-17.8-19.8-17.8-19.8s-12.4 6.1-19 21.1S39 74.2 39 74.2s10-11.5 24.6-9.9 22.7 9.6 22.7 9.6" style="fill:#6e62ed"/><path d="M59.7 27.9V19a3.3 3.3 0 0 1 3.4-3.5c2.1 0 2.9 2 3 3.3v8.9q-.1 1.4-3.2 1.5c-1.5 0-3-.7-3.2-1.4" style="fill:#6ca4ab"/><path d="M86.2 76.2c1.5 0 7.5-10.5 17-10.4 13 .1 14.6 6.8 16 6.2 1.4-.8-.8-3.6-2.7-5.6-2.8-2.8-7.2-4.6-14-4.1-10 .6-16.4 9.5-16.4 9.5s-8.5-9.3-23.4-9.3C48.3 62.5 39 72.8 39 72.8s-4.7-8.4-16.2-8.6C12.7 64 8.3 72.2 9 73s6.1-5.8 13.7-5.4c10.4.4 14 9.1 16 9.2S48.5 66.2 63 66.5c15.4.3 21.9 9.8 23.3 9.7" style="fill:#004dae"/><radialGradient id="e" cx="62.8" cy="34.8" r="23" gradientUnits="userSpaceOnUse"><stop offset=".5" style="stop-color:#71d3ff"/><stop offset=".6" style="stop-color:#6cd2fe"/><stop offset=".7" style="stop-color:#5dcefa"/><stop offset=".7" style="stop-color:#44c8f4"/><stop offset=".8" style="stop-color:#22c0eb"/><stop offset=".9" style="stop-color:#00b7e2"/></radialGradient><path d="M63.2 33.8c-1 0-2.4 3.4-4.2 7.3s-5.4 8-3.3 13.5c2.5 6.3 14.5 6.6 15-3.3.2-3.6-2.9-8.2-3.9-10.6-1.8-4-2.8-6.9-3.6-6.9" style="fill:url(#e)"/><path d="M58.5 48c-1.4 0-2.3 2.5-1.6 5 .8 2.6 2.3 3.7 3.6 3.2 1.7-.7.3-2.6 0-4.3-.4-1.7 0-3.7-2-3.9" style="fill:#ace8fe"/></svg>