<svg xml:space="preserve" width="16" height="16" viewBox="0 0 128 128"><path d="M104.1 51.4c0 13.7-.6 30.6-2.8 45.2a69 69 0 0 1-8.7 27.4H35.4c-4.2-6-7-16-8.7-27.4A315 315 0 0 1 24 51.4c0-.6-.3-38.5 40.7-38.5S104 50.8 104 51.4" style="fill:#232020"/><radialGradient id="a" cx="64" cy="62.4" r="48.6" gradientTransform="matrix(1 0 0 -1.19 0 139.86)" gradientUnits="userSpaceOnUse"><stop offset=".8" style="stop-color:#444140;stop-opacity:0"/><stop offset="1" style="stop-color:#444140"/></radialGradient><path d="M104.1 51.4c0 13.7-.6 30.6-2.8 45.2a69 69 0 0 1-8.7 27.4H35.4c-4.2-6-7-16-8.7-27.4A315 315 0 0 1 24 51.4c0-.6-.3-38.5 40.7-38.5S104 50.8 104 51.4" style="fill:url(#a)"/><linearGradient id="b" x1="64" x2="64" y1="40.1" y2="6.1" gradientTransform="matrix(1 0 0 -1 0 128)" gradientUnits="userSpaceOnUse"><stop offset="0" style="stop-color:#651fff"/><stop offset=".7" style="stop-color:#5914f2"/><stop offset="1" style="stop-color:#530eeb"/></linearGradient><path d="M112 117.9v6.1H16v-6.1c0-9.4 4-16.4 10.7-21.3q8.3-6 20.6-8a346 346 0 0 1 33.4 0q12.3 2 20.6 8A25 25 0 0 1 112 118" style="fill:url(#b)"/><path d="M55 93.9v10c0 4.4 4.3 8.1 9 8.1s9-3.7 9-8.2v-10z" style="fill:#3c2b24"/><path d="M64 23.1c-17.4 0-33.5 13-33.5 40.4 0 22 13.6 35 25.5 39.3q4.3 1.5 8 1.5 3.6 0 8-1.5a40 40 0 0 0 25.5-39.3C97.5 36 81.4 23 64 23" style="fill:#70534a"/><path d="M67.8 78h-7.6q-1.1.5-.7 1.7a5 5 0 0 0 4.5 2.6c2.8 0 4.2-2 4.5-2.6q.4-1.2-.7-1.6" style="fill:#33251f"/><path d="M56.7 91.8a26 26 0 0 1 14.6 0c.8.2 1.2-.6.7-1.4-.8-1.2-3.7-3.5-8-3.5s-7.2 2.3-8 3.5c-.5.8-.1 1.6.7 1.4M43.3 68.3q0-.8.3-1.5l3.1-.7q2.5-.8 4-2.2a6 6 0 0 1 1.6 4.4c0 3-2.1 5.5-4.6 5.5s-4.4-2.5-4.4-5.5m41.4 0q0-.8-.3-1.5l-3.1-.7q-2.5-.8-4-2.2-1.6 1.6-1.6 4.4c0 3 2.1 5.5 4.6 5.5s4.4-2.5 4.4-5.5m-29.4-9.9c-1.2-1-3.8-2.4-8.1-1.6-4.4.8-6.3 3-7.1 4.3q-.4 1 .2 1.5t2.1 0c.9-.4 2.5-1.5 5.4-2s4.9 0 5.9 0c.9.2 1.7-.3 1.9-.6q.4-.8-.3-1.6m32.6 2.7c-.8-1.3-2.7-3.5-7-4.3s-7 .6-8.2 1.7q-.7.7-.3 1.5.4.7 2 .7c.9-.1 2.8-.7 5.8-.2 3 .6 4.5 1.7 5.4 2.2s1.7.2 2 0q.7-.6.3-1.6" style="fill:#1a1717"/><path d="M64.6 12.9c-41 0-40.7 37.9-40.7 38.5 0 7.8.2 16.5.7 25.3h6.8c-.1-3 2-21 8-22.3 22.4-5 35-17 35-17 3.3 7.3 13.6 14.3 17.3 17 3 2.1 4 18.5 4 22.3h7.6v-.2c.6-8.7.8-17.4.8-25.1 0-.6 1.5-38.5-39.5-38.5" style="fill:#232020"/><radialGradient id="c" cx="64.2" cy="54.4" r="49.1" gradientTransform="matrix(1 0 0 -1.262 0 142.23)" gradientUnits="userSpaceOnUse"><stop offset=".8" style="stop-color:#444140;stop-opacity:0"/><stop offset="1" style="stop-color:#444140"/></radialGradient><path d="M64.6 12.9c-41 0-40.7 37.9-40.7 38.5 0 7.8.2 16.5.7 25.3h6.8c-.1-3 2-21 8-22.3 22.4-5 35-17 35-17 3.3 7.3 13.6 14.3 17.3 17 3 2.1 4 18.5 4 22.3h7.6v-.2c.6-8.7.8-17.4.8-25.1 0-.6 1.5-38.5-39.5-38.5" style="fill:url(#c)"/></svg>