<svg xml:space="preserve" width="16" height="16" viewBox="0 0 128 128"><path d="m36.5 36.8-14.2-9a2.2 2.2 0 0 1-.4-3.5l5.3-5.3c1-1 2.8-.8 3.5.4l8.8 14.4c1.2 2-1 4.2-3 3M24.1 80.4l-16.4.3a2.2 2.2 0 0 0-2.1 2.8l1.9 7.2c.4 1.4 2 2.1 3.2 1.4l14.5-7.6c2-1.1 1.2-4.2-1.1-4.1m38.1 27.9-3.6 16c-.3 1.4.8 2.7 2.2 2.7h7.5c1.5 0 2.5-1.4 2.1-2.8l-3.9-16c-.5-2.2-3.7-2.2-4.3 0m29.3-71.4 14.2-9c1.2-.8 1.4-2.5.4-3.5l-5.3-5.3c-1-1-2.8-.8-3.5.4l-8.8 14.4c-1.2 2 1 4.2 3 3m12.4 43.6 16.4.3c1.5 0 2.5 1.4 2.1 2.8l-1.9 7.2c-.4 1.4-2 2.1-3.2 1.4l-14.5-7.6c-2-1.1-1.2-4.2 1.1-4.1" style="fill:#ffc107"/><path d="M68 7.2 81.6 38a7 7 0 0 0 5.8 4.2l32.8 3c3.7.5 5.2 5 2.5 7.7L98 73.5a7 7 0 0 0-2.3 6.9l7.1 33.6a4.5 4.5 0 0 1-6.5 4.8L67.6 102a7 7 0 0 0-7.2 0l-28.6 16.8a4.5 4.5 0 0 1-6.5-4.8l7.1-33.6a7 7 0 0 0-2.3-6.9L5.4 52.8A4.5 4.5 0 0 1 7.9 45l32.8-3a7 7 0 0 0 5.8-4.2L59.9 7.2a4.5 4.5 0 0 1 8.1 0" style="fill:#fdd835"/><path d="m67 39.8-2.2-22.6c-.1-1.3-.4-3.5 1.7-3.5 1.6 0 2.4 3.4 2.4 3.4l6.9 18.1c2.5 7 1.5 9.3-1 10.7-2.9 1.6-7 .4-7.7-6.1" style="fill:#ffff8d"/><path d="m95.3 71.5 19.6-15.3c1-.8 2.7-2.1 1.3-3.6-1-1.1-4 .5-4 .5l-17.3 6.7c-5 1.8-8.5 4.4-8.8 7.7-.4 4.4 3.6 7.8 9.2 4" style="fill:#f4b400"/></svg>