<svg xml:space="preserve" width="16" height="16" viewBox="0 0 128 128"><radialGradient id="a" cx="55.2" cy="35.1" r="22.4" gradientTransform="matrix(1 0 0 1.009 0 -.31)" gradientUnits="userSpaceOnUse"><stop offset=".5" style="stop-color:#80deea;stop-opacity:0"/><stop offset="1" style="stop-color:#80deea"/></radialGradient><path d="M53.3 14.4C63 14.4 73 21 73 30.7S63 49.5 53.3 49.5c-5.2 0-11.7-1.6-15-5.2 0 0-2.8-3.8-2.6-12.3.3-9.8 7.9-17.6 17.6-17.6" style="opacity:.7;fill:url(#a)"/><radialGradient id="b" cx="35.8" cy="43.8" r="11.6" gradientTransform="matrix(1 0 0 1.009 0 -.39)" gradientUnits="userSpaceOnUse"><stop offset=".5" style="stop-color:#80deea;stop-opacity:0"/><stop offset="1" style="stop-color:#80deea"/></radialGradient><circle cx="34.3" cy="42.2" r="11.8" style="opacity:.7;fill:url(#b)"/><path d="M12 54.3C25.8 40.7 110.6 33.8 116.6 41c3.4 4.2 7.1 11 7.3 16 .3 8.6-3 15.3-7.8 19.6-2.6 2.3-7.4 6-10.3 7.9-12.8 8.4-26.1 17.4-37.5 23.8-10.8 6-20 7.5-29 2.2-2.8-1.7-16.8-9.9-25.3-17A32 32 0 0 1 4 70.7c0-4.8 3.2-11.7 7.8-16.3m3.7-3A778 778 0 0 1 69.8 20c4.8-2.2 11-3 21.6 2.2 0 0 10 4.8 17.3 10.6 7 5.6 13.4 12 7 20.1-2.2 2.8-7.5 6-10.4 8-12.7 8.4-26 17.4-37.5 23.7-10.7 6-20 7.6-29 2.3a510 510 0 0 1-25.3-17c-10-7.2-3.4-14.8 2-18.4" style="fill:#f47fac"/><path d="M18.2 51.5a723 723 0 0 1 51.1-29.4c4.6-2 10.3-2.9 20.3 2 0 0 9.3 4.6 16.2 10 6.6 5.2 12.5 11.3 6.5 18.8-2 2.6-7 5.7-9.7 7.5-11.9 7.8-24.4 16.2-35 22.2-10.1 5.6-18.7 7-27.2 2-2.6-1.5-15.3-9.7-23.7-15.8-9.4-6.8-3.5-14 1.5-17.3" style="fill:#ffb6c1"/><path d="M8 71.2a8 8 0 0 0-1 4.2c-.2 11.8 14.3 20.2 23 26.2 4.3 3 8.6 5.5 14 5.4 2 0 4.2-.7 5.6-2.2 1.9-2.1 2-5.2 1.8-8q.2-2.1-1-3.5-1-.9-2.1-1.2c-7.3-2.7-23-13.5-30.4-18.8-2.6-2-6.7-6.6-9.7-2.1m106.7-17.6c-.9 1.2-2 2.3-2.3 3.7-.5 2 .7 4 1.2 5.9.6 2.5.1 5.3 1 7.7q.3.7 1 1c.6.3 1.3-.3 1.8-.8a21 21 0 0 0 4.3-11.2c0-2.7-1-7.7-2.7-9.9-2.1-2.6-3.3 2-4.4 3.6" style="fill:#ff97ab"/><path d="M21.4 85.2q-.7-1.5-2.3-2.4l-.7-.5c-.4-.6-.2-1.3-.3-2 0-1.4-1.2-2.7-2.6-3q-1-.2-1.9.5c-1.1 1.4-.1 3.4.6 4 .5.4 1.7.6 1.5 1.7l-.2.5q-.6 1.3-.2 2.5c.4 1.5 1.8 2.3 3.3 2.5a3 3 0 0 0 2.2-.6c.9-.7 1-2.1.6-3.2" style="fill:#ffb6c1"/><path d="M55.2 103.4c1 .2 2 1 2 2q0 1.2-1 2c-.7.4-3.5 2.4-6.4.5l-1-1.2q-.5-.8-1.4-.8c-2.5 0-1-3.1 1-2.2q1.2.8 2.5.6c1.5-.3 2.7-1.2 4.3-.9m9.2-9.9q-1.4 1.2-2 3-.3.9.1 1.6.5.4 1.3.4 2-.3 3.7-1.6c1-.8 2.7-3.1 1-4.2-1.1-.8-3.2 0-4 .8" style="fill:#ff97ab"/><radialGradient id="c" cx="50.4" cy="26.2" r="21.4" gradientTransform="matrix(1 0 0 1.009 0 -.23)" gradientUnits="userSpaceOnUse"><stop offset=".6" style="stop-color:#fff;stop-opacity:0"/><stop offset="1" style="stop-color:#fff;stop-opacity:.8"/></radialGradient><path d="M53.3 14.4C63 14.4 73 21 73 30.7S63 49.5 53.3 49.5c-5.2 0-11.7-1.6-15-5.2 0 0-2.8-3.8-2.6-12.3.3-9.8 7.9-17.6 17.6-17.6" style="fill:url(#c)"/><radialGradient id="d" cx="85.6" cy="97.9" r="9.2" gradientUnits="userSpaceOnUse"><stop offset=".4" style="stop-color:#80deea;stop-opacity:0"/><stop offset="1" style="stop-color:#80deea;stop-opacity:.8"/></radialGradient><path d="M76.4 95.2c2.4-7 9.6-5.7 9.6-5.7 6.6.7 9.4 11.4 9.4 11.4s-5.7 7.8-14.7 4.8c-4.5-1.5-6-5.6-4.3-10.5" style="fill:url(#d)"/><radialGradient id="e" cx="99.1" cy="87" r="14.9" gradientUnits="userSpaceOnUse"><stop offset=".4" style="stop-color:#80deea;stop-opacity:0"/><stop offset="1" style="stop-color:#80deea;stop-opacity:.8"/></radialGradient><path d="M86 89.5c1.8-10.4 9.7-16 19.2-15 5 .6 10.4 8.7 7.5 17.7-2.6 7.8-11.7 10-17.3 8.7-9.9-2.3-9.4-11.4-9.4-11.4" style="fill:url(#e)"/><radialGradient id="f" cx="101.4" cy="61.1" r="7.8" gradientUnits="userSpaceOnUse"><stop offset=".6" style="stop-color:#fff;stop-opacity:0"/><stop offset="1" style="stop-color:#fff;stop-opacity:.8"/></radialGradient><circle cx="101.3" cy="61.1" r="8.1" style="fill:url(#f)"/><path d="M57.6 18.2c2.6 1 5 3 5.9 5.7.5 1.5.5 3.5-.9 4.4-.8.6-2.4 1-5.7-1.5-5.2-3.8-6.7-.5-11.3-1.6-3.6-.9-2-3.8-1.3-4.6 3.1-3.6 9.1-4 13.3-2.4M26 40.7q.7.3 1.3-.1c1-.6.7-2.3 2.6-4.1.4-.3 1.7-1.6.9-2.5-1.2-1.1-3.3-.3-4.6 1.5-1.5 2-1.7 4.4-.3 5.2" style="opacity:.9;fill:#fff"/><radialGradient id="g" cx="75.8" cy="30.8" r="9.6" gradientTransform="matrix(1 0 0 1.009 0 -.27)" gradientUnits="userSpaceOnUse"><stop offset=".6" style="stop-color:#fff;stop-opacity:0"/><stop offset="1" style="stop-color:#fff;stop-opacity:.8"/></radialGradient><path d="M69 41s-2.9-3-2.3-10.6c.4-5.5 3.6-8 3.6-8s9.2-1.5 13.7 3.4c3.6 4 2.8 9-1.6 12.3-6.7 5-13.4 3-13.4 3" style="fill:url(#g)"/><radialGradient id="h" cx="44.9" cy="47" r="9.7" gradientTransform="matrix(1.05 -.606 .492 .853 -27 36.78)" gradientUnits="userSpaceOnUse"><stop offset=".6" style="stop-color:#fff;stop-opacity:0"/><stop offset="1" style="stop-color:#fff;stop-opacity:.8"/></radialGradient><path d="M54.2 48.6c.6 3.3-1.5 7.8-5.3 10-4.7 2.7-13 1.3-15.2-2.7-1.7-3.2-2.3-12.9 5.9-16 11-4 14.5 8 14.6 8.7" style="fill:url(#h)"/><radialGradient id="i" cx="57.5" cy="50" r="7.8" gradientTransform="matrix(1 0 0 1.009 0 -.44)" gradientUnits="userSpaceOnUse"><stop offset=".6" style="stop-color:#fff;stop-opacity:0"/><stop offset="1" style="stop-color:#fff;stop-opacity:.8"/></radialGradient><path d="M63.2 55.3c-4.6 5-11.7 1.1-11.7 1.1-4.1-6.4-.2-13.5-.2-13.5s10-2.7 13.4 2.6c0 0 3.4 4.6-1.5 9.8" style="fill:url(#i)"/><path d="M42.7 44.7q-.1 1-.8 1.7l-2.4 3.4c-.4.5-1.5 2.4-3 1.8q-1-.4-1.1-1.3c-.8-2 .2-5.4 2.1-7s5.3-1 5.2 1.4m58.6 10.7q1 .6.8 1.6c-.1.7-1 1.1-1.6 1.6q-.8.6-1.5 1.5l-.8 1.2q-.5.6-1.2.6-.8 0-1.2-.6c-1.9-2.9 2.6-7.3 5.5-5.9" style="opacity:.9;fill:#fff"/><path d="M86 89.5s3.7.2 6.3 4.5c2.3 3.8 3.1 6.9 3.1 6.9s-4.7-.9-7.3-4.6c-2.2-3.2-2-6.8-2-6.8" style="opacity:.43;fill:#80deea"/><path d="M36.2 38.7s-.8-4.2-.4-8.2c0 0 2.4.2 4.4 1.5 2.3 1.4 3 2.6 3 2.6z" style="opacity:.5;fill:#80deea"/><path d="M71 25.3q-2.3 1.6-2.6 4.2-.1 1 .5 1.6c1.7 1.4 3.2-1.5 5.9-1.9 4.7-.6 4-3.5 1.6-4.5a5 5 0 0 0-5.4.6m30.7 52.1c2.9 1.2 1.7 3.8.8 4-3.4 1-4 2.5-4.8 3.1Q96.5 85.6 95 86c-1 .2-2.2-.1-2.8-1-1.3-2 .8-4.5 2.2-5.8 2-1.8 4.9-2.7 7.4-1.7M85 91.4c4.2 0 4.8 2.5 4.7 3-.5 1.7-2.4 1-3 1q-1.4 0-2.6.2l-2 .5c-1.4 0-2.7-1.2-1.9-2.6.8-1.3 3.4-2 4.7-2" style="opacity:.8;fill:#fff"/></svg>