<svg xml:space="preserve" width="16" height="16" viewBox="0 0 128 128"><radialGradient id="a" cx="63.6" cy="1400.9" r="57" gradientTransform="translate(0 -1338)" gradientUnits="userSpaceOnUse"><stop offset=".5" style="stop-color:#fde030"/><stop offset=".9" style="stop-color:#f7c02b"/><stop offset="1" style="stop-color:#f4a223"/></radialGradient><path d="M63.6 118.8c-27.9 0-58-17.5-58-55.9S35.7 7 63.6 7c15.5 0 29.8 5.1 40.4 14.4 11.5 10.2 17.6 24.6 17.6 41.5s-6.1 31.2-17.6 41.4a61 61 0 0 1-40.4 14.5" style="fill:url(#a)"/><linearGradient id="b" x1="63.6" x2="63.6" y1="1456.8" y2="1345" gradientTransform="translate(0 -1338)" gradientUnits="userSpaceOnUse"><stop offset=".2" style="stop-color:#f4a223"/><stop offset=".3" style="stop-color:#f7c02b"/><stop offset=".8" style="stop-color:#fde030;stop-opacity:0"/></linearGradient><path d="M63.6 118.8c-27.9 0-58-17.5-58-55.9S35.7 7 63.6 7c15.5 0 29.8 5.1 40.4 14.4 11.5 10.2 17.6 24.6 17.6 41.5s-6.1 31.2-17.6 41.4a61 61 0 0 1-40.4 14.5" style="fill:url(#b)"/><path d="M111.5 29.7a57 57 0 0 1 8.1 30.2c0 16.9-6.1 31.2-17.6 41.4a61 61 0 0 1-40.4 14.5 59 59 0 0 1-48.2-23 58 58 0 0 0 50.2 26c15.4 0 29.8-5.2 40.4-14.5a54 54 0 0 0 17.6-41.4q-.1-19.2-10.1-33.2" style="fill:#eb8f00"/><radialGradient id="c" cx="43.2" cy="-153.9" r="19.5" gradientTransform="matrix(.98 0 0 -.93 -15.12 -74.95)" gradientUnits="userSpaceOnUse"><stop offset="0" style="stop-color:#ed7770"/><stop offset=".1" style="stop-color:#ed7770;stop-opacity:.96"/><stop offset=".2" style="stop-color:#ed7770;stop-opacity:.85"/><stop offset=".4" style="stop-color:#ed7770;stop-opacity:.68"/><stop offset=".6" style="stop-color:#ed7770;stop-opacity:.43"/><stop offset=".8" style="stop-color:#ed7770;stop-opacity:.13"/><stop offset=".9" style="stop-color:#ed7770;stop-opacity:0"/></radialGradient><circle cx="27.3" cy="68.2" r="17.5" style="opacity:.8;fill:url(#c)"/><radialGradient id="d" cx="117.8" cy="-153.9" r="19.5" gradientTransform="matrix(.98 0 0 -.93 -15.12 -74.95)" gradientUnits="userSpaceOnUse"><stop offset="0" style="stop-color:#ed7770"/><stop offset=".1" style="stop-color:#ed7770;stop-opacity:.96"/><stop offset=".2" style="stop-color:#ed7770;stop-opacity:.85"/><stop offset=".4" style="stop-color:#ed7770;stop-opacity:.68"/><stop offset=".6" style="stop-color:#ed7770;stop-opacity:.43"/><stop offset=".8" style="stop-color:#ed7770;stop-opacity:.13"/><stop offset=".9" style="stop-color:#ed7770;stop-opacity:0"/></radialGradient><circle cx="100.4" cy="68.2" r="17.5" style="opacity:.8;fill:url(#d)"/><path d="m49.6 49.1-.2-.2-.4-.5-.5-.6-.8-.7-.8-.8-.8-.5-.7-.3h-.2.1-.5q-.2 0 0 0-.4 0-.7.3L42.4 47 41 48.4l-.5.6-.3.3a4 4 0 0 1-5.6.6 4 4 0 0 1-1.4-3.4l.2-1.2q.4-1.5 1.3-2.9a13 13 0 0 1 6.4-5.5l1-.3 1-.2h.5l.5-.1H46l1 .1q2.8.4 4.9 2.2a13 13 0 0 1 4.7 6.8l.1.7v.3c.3 2-1.1 4-3.2 4.2q-2.5.4-4-1.5m37.5 0V49l-.4-.5-.6-.6-.7-.7-.8-.8-.9-.5-.6-.3h-.7.1-.1l-.7.3-.8.5-.8.8-1.3 1.3-.6.6-.2.3a4 4 0 0 1-5.6.6 4 4 0 0 1-1.5-3.5l.3-1.1a13 13 0 0 1 4.6-6.8 11 11 0 0 1 4.9-2.1l.6-.1h3.4l1.9.6q1.5.6 3 1.6a13 13 0 0 1 4.6 6.9l.2.7v.2c.3 2-1 4-3.1 4.3H91q-2.4.4-4-1.5" style="fill:#422b0d"/><radialGradient id="e" cx="63.1" cy="56.1" r="65.1" gradientTransform="matrix(1 0 0 -1 0 130)" gradientUnits="userSpaceOnUse"><stop offset=".3" style="stop-color:#fff176"/><stop offset="1" style="stop-color:#ffc400"/></radialGradient><path d="M94.8 78.9c-2.2-3.2-8 0-8 0l5.5-5c1.6-1.5 3-4.8 1.7-7s-5.1-2-7-.9l-7.3 4.5s2.7-1.2 3.5-6a3.6 3.6 0 0 0-3.6-4.4q-2.6.2-4.7 1.8C69.6 65.7 55.4 75.3 52.2 75c-1.2-.1-1.3-.3 1.3-5.8 1.7-3.4 1.9-7.3.4-10.7-.8-2-4.7-2.6-6-.7-.9 1.5-1.6 5-3.2 8.5-2.7 5.7-9 13.4-9.5 14.2-3.7 5.5-10.7 15.8-3.4 27.3 6.5 10.3 21.2 10.7 28.7 8a122 122 0 0 0 27.9-15c2.6-2.1 5-5.2 3.9-8-1.3-3.4-5.7-1.4-5.7-1.4q3.8-2.3 6.7-5.8c1.9-2.3 3-4.6 1.5-6.7" style="fill:url(#e)"/><path d="M94.5 86.6c1.2-1.6 4-5.1 1.5-8.6q-1.2-1.9-3.5-2.2c2.4-2 5-6.6 2.2-10.4-1-1.4-2.9-2.5-6-1.8-2.2.5-4.2 2.2-4.2 2.2.1-.3 1.9-5.2-4.2-6.4-2.4-.5-5.1 1-6.7 2.3A100 100 0 0 1 53 73.4c3.9-4.6 4.6-11.5 2.3-15.6-.9-2-6-3.5-7.7-.8-1.3 2.3-2.2 7.7-4.8 12-2 3.2-11 14.6-12.6 20.3 0 0 2.2-3.3 5.7-8C39.6 76.3 44.6 70 46 67c1.3-2.7 2-6 3.1-8.2.6-1 2.8-1.8 4.3 1s.8 6.3-1.3 10.2c-2 4.4-3 4.6-2 5.6 3.2 3.3 21.5-9.8 25.6-12.4a8 8 0 0 1 4-1.5c2.7-.4 2.5 3.4 2.5 3.4-.8 3.2-1.2 3.2-4.4 5.8A109 109 0 0 1 62.7 81s0 1.2 2.4.5S76.8 75 82 70.9c0 0 6.5-5.5 9.3-4.8s2.5 2.8 1.7 4.7q-1.4 2.6-6.9 6.9c-6.6 5-16.8 11.8-16.8 11.8s.2 1 2.2.4a112 112 0 0 0 16.6-10.5c1-.7 4.3-1.8 5.6.4.7 1 .5 2.6-2 5.5A91 91 0 0 1 72.5 99s.6 1 2.7.3c2-.7 10.8-6 12.2-6.5s2.7-1 3.7.7c1 2.3-.4 4-3.3 6.4-.1 0-13.9 10.8-28.2 15.6-7.6 2.6-16 1.2-25.7-5a27 27 0 0 0 27.4 7 132 132 0 0 0 28.3-15.3c2.1-1.7 6.5-5.2 4.1-10.1a5 5 0 0 0-2.4-2.2q1.8-1.5 3.3-3.3" style="fill:#eb8f00"/></svg>