<svg xml:space="preserve" width="16" height="16" viewBox="0 0 128 128"><path d="M116.5 4h-104a8 8 0 0 0-8 8v104a8 8 0 0 0 8 8h104a8 8 0 0 0 8-8V12a8 8 0 0 0-8-8" style="fill:#f77e00"/><path d="M110.2 4H12a7.6 7.6 0 0 0-7.5 7.5v97.9c0 4.1 3.3 7.5 7.4 7.5h98.2c4.1 0 7.4-3.4 7.5-7.5v-98c0-4-3.2-7.3-7.2-7.4z" style="fill:#ff9800"/><path d="M40.2 12.9c0-2.3-1.6-3-10.8-2.7-7.7.3-11.5 1.2-13.8 4s-3 8.5-3 15.3c0 4.8 0 9.3 2.5 9.3 3.4 0 3.4-8 6.2-12.3 5.4-8.7 18.9-10.6 18.9-13.6" style="opacity:.75;fill:#ffbd52"/><path d="M82.6 92H72.4c-1 0-2-.9-2-2V38c0-1 1-2 2-2h10.3c1 0 1.9 1 1.9 2v52.3a2 2 0 0 1-2 1.8m22-.1H94.4c-1 0-2-.9-2-2V38c0-1 1-2 2-2h10.3c1 0 1.9 1 1.9 2v52.3a2 2 0 0 1-2 1.8M18.5 64V38.3a2.3 2.3 0 0 1 3.4-2L65.3 62a2.4 2.4 0 0 1 0 4L21.9 91.8a2.3 2.3 0 0 1-3.4-2z" style="fill:#fafafa"/></svg>