<svg xml:space="preserve" width="16" height="16" viewBox="0 0 128 128"><path d="M95 9C73 9 65 31.4 65 31.4S57 9 35 9C18.4 9-.5 22 6.5 52S65 119 65 119s51.4-37.2 58.4-67c7-29.9-10.6-43-28.5-43" style="fill:#ef5592"/><path d="M31.6 11.2c17.2 0 25.7 18.5 28.5 26 .4 1 1.8 1 2.3 0l2.5-5.8A30.6 30.6 0 0 0 35 9a31 31 0 0 0-19.8 7 31 31 0 0 1 16.5-4.8M95 9q-8.3 0-14 3.4a26 26 0 0 1 9.1-1.2c16.2 0 30.7 12.3 24.2 40.7-5.7 24.4-38.5 54-48.5 65.3q-.3.4-.6 1.6c4.3-3.2 51.4-38.3 58.1-66.8 7-29.9-10.6-43-28.5-43" style="fill:#da2e75"/><path d="M78 34.7c-1.7 0-3-1.8-2.3-3.4q1.8-4.6 4.6-8.5c2.8-3.9 8-6.1 11.3-3.8 3.3 2.4 2.9 7.2.5 9.5a22 22 0 0 1-14 6.1M15.2 48.2c0-.2-1.7-4.2-2-9-.5-5.3 1.6-11 4.3-14.7C20 21 24.6 17.2 29 19.2q2.3 1.2 2.3 3.8c-.1 1.4-1.2 2.7-2.2 3.7L25 30a27 27 0 0 0-9.9 18.2" style="fill:#f386ab"/><path d="M6.5 52q1.4 6 4.8 12h107.3a48 48 0 0 0 6-18.3H5.3q.3 3 1 6.3" style="fill:#ffc107"/><path d="M65.4 68.4a92 92 0 0 1-21.5-19.6l-19.7 5.4c1 8-1 26.6-1 26.6l3 3.6L31 81l8.6 5.7c1.1.9 1.5.5 1.7-.3 1-3.8.9-10 0-16.3a56 56 0 0 0 14.2 14.1q1.2.7 1.6-.8l.3-10L65 70a1 1 0 0 0 .3-1.7" style="fill:#da2e75"/><path d="M28.6 49.8 45 47.6a89 89 0 0 0 21.7 18.5 1 1 0 0 1-.2 1.7l-7 3.4v9.6a1 1 0 0 1-1.4 1c-4.9-2.8-12.3-9.5-18.7-16s-10.8-16-10.8-16m6.7-5.9-13 10.3c1 8 .3 19.3-1.8 28.4a1 1 0 0 0 1.5 1l7.2-2.5 7 6.6a1 1 0 0 0 1.7-.3c1.3-5.5 1.7-15.5 1.5-24.6s-4.1-19-4.1-19" style="fill:#ffe02e"/><path d="M50.5 53.5q-3.2-3-5.5-5.9L35.3 44l-13 10.3q.6 4.5.5 10c2.7.8 9.5 3.3 16.5 9.6q.2-3.9.1-7.9l.7.7c-1-1-3.3-3.4-4.5-5.2 0 0 10.3-2.7 14.9-8" style="fill:#ffc107"/><path d="M16.6 73.1c-3.6 1-8-5.4-11.2-13s-2.9-14.2-.6-14.8q5-2.4 12.6-1.7 5.1 1 10 2.6c3.4 1.2 3.8 10.9 3.8 10.9-5.7 10-9.6 14.6-14.6 16" style="fill:#ffe02e"/><path d="M30.3 56S20 62.5 16.9 65.4c-4.5 4.2-4.8 7.1-2 7.8 7.5 1.8 16.4-15.7 16.4-15.7z" style="fill:#ffa000"/><path d="M56.8 54.7c3.2-1.9 1.7-9.6-1.4-17.2s-8-12-10-10.8c-3.6 1.3-6.6 4-10 8q-3 4.3-5.2 8.8c-1.6 3.4 5 10.4 5 10.4 11.1 3 17.1 3.4 21.6.8" style="fill:#ffe02e"/><path d="M35.1 52.6s11.6-3 16-3.2c6-.3 8.3 1.6 6.8 4-4 6.7-22.6.8-22.6.8z" style="fill:#ffa000"/><path d="M118.6 64a48 48 0 0 0 6-18.3H62.2c.6 8.4-3.6 10.4-3.6 10.4l8.5 7.9z" style="fill:#ffe02e"/><path d="M58.1 53.5c2-3-.6-11.2-2.6-16-3.1-7.7-8-12-10-10.8h-.1c-1.4.5-2 2.4-.9 3.5 7.1 7.8 4.6 9.6 7.3 15 1.6 3.2 3.3 3.5 5 4.8 2 1.6 1.3 3.5 1.3 3.5" style="fill:#fff685"/><path d="M114.4 51.9q-1.5 6-4.7 12.1h8.9a48 48 0 0 0 6-18.3h-9.1q-.4 3-1.1 6.2" style="fill:#ffa000"/><path d="M30.5 57c-3.5-1.5-5.5-7-5.7-9.7s4.2-4.8 5.2-4.2 6.2 9.6 6.2 11-3.5 3.9-5.7 2.9m-15 4.6c-.3-2.5-1.9-4.7-2.2-5.7q-1.5-4-2-8.3c0-1.7.2-3.4-2-3.4q-2.9 0-4 1.6c-1.4 2-.7 8 1.9 13.9 2.1 5 5.9 10 5.9 10s2.7-4.4 2.4-8.1" style="fill:#fff685"/></svg>