<svg xml:space="preserve" width="16" height="16" viewBox="0 0 128 128"><path d="M116 4H12a8 8 0 0 0-8 8v104a8 8 0 0 0 8 8h104a8 8 0 0 0 8-8V12a8 8 0 0 0-8-8" style="fill:#427687"/><path d="M109.7 4H11.5A7.6 7.6 0 0 0 4 11.5v97.9c0 4.1 3.3 7.5 7.5 7.5h98.1c4.1 0 7.5-3.3 7.5-7.5V11.5c0-4-3.1-7.4-7.2-7.5z" style="fill:#8cafbf"/><path d="M39.7 12.9c0-2.3-1.6-3-10.8-2.7-7.7.3-11.5 1.2-13.8 4s-2.9 8.5-3 15.3c0 4.8 0 9.3 2.5 9.3 3.4 0 3.4-7.9 6.2-12.3 5.4-8.7 18.9-10.6 18.9-13.6" style="opacity:.5;fill:#b4e1ed"/><path d="M41 80.3h-8.7L18.3 56h-.2q.4 6.5.4 9.2v15.1h-6V48.2H21l14 24h.2q-.4-6.1-.4-8.8V48.2H41zm25.4 0H48V48.2h18.5v5.6H54.7v7h10.9v5.6H54.7v8.3h11.7zm39.1 0h-7.7l-4.4-16.9L92 56a52 52 0 0 1-1.4 7.6L86 80.3h-7.7l-8.2-32.1h6.7L81 65.7l1.6 8.4a64 64 0 0 1 1.5-8l4.6-18h6.5l4.7 18a63 63 0 0 1 1.4 8 80 80 0 0 1 1.6-8.4l4.1-17.5h6.7z" style="fill:#fafafa"/></svg>