<svg xml:space="preserve" width="16" height="16" viewBox="0 0 128 128"><path d="M124 107.2c-41.5 17.8-78.5-17.8-120 0V20.8c41.5-17.8 78.5 17.8 120 0z" style="fill:#424242"/><linearGradient id="a" x1="5.4" x2="122.4" y1="105.3" y2="22.8" gradientTransform="matrix(1 0 0 -1 0 128)" gradientUnits="userSpaceOnUse"><stop offset="0" style="stop-color:#fff;stop-opacity:0"/><stop offset=".8" style="stop-color:#090909;stop-opacity:.9151"/><stop offset="1" style="stop-color:#000"/></linearGradient><path d="M124 107.2c-41.5 17.8-78.5-17.8-120 0V20.8c41.5-17.8 78.5 17.8 120 0z" style="opacity:.3;fill:url(#a)"/><linearGradient id="b" x1="4.8" x2="120.2" y1="64" y2="64" gradientUnits="userSpaceOnUse"><stop offset="0" style="stop-color:#bfbebe"/><stop offset=".2" style="stop-color:#212121;stop-opacity:0"/><stop offset=".8" style="stop-color:#212121;stop-opacity:0"/><stop offset="1" style="stop-color:#bfbebe"/></linearGradient><path d="M124 107.2c-41.5 17.8-78.5-17.8-120 0V20.8c41.5-17.8 78.5 17.8 120 0z" style="opacity:.2;fill:url(#b)"/><linearGradient id="c" x1="66.8" x2="61" y1="16" y2="114.2" gradientUnits="userSpaceOnUse"><stop offset="0" style="stop-color:#bfbebe"/><stop offset=".2" style="stop-color:#212121;stop-opacity:0"/><stop offset=".7" style="stop-color:#212121;stop-opacity:0"/><stop offset="1" style="stop-color:#bfbebe"/></linearGradient><path d="M124 107.2c-41.5 17.8-78.5-17.8-120 0V20.8c41.5-17.8 78.5 17.8 120 0z" style="opacity:.2;fill:url(#c)"/><path d="M37.4 68.8c1.7.8 3.5.2 4.1-1.4 4.5 2.3 6.7 3.6 11.1 6.3l7.8-.4C53.4 69 50 66.7 43 63c.6-1.5-.4-3.5-2-4.4s-3.5-.2-4.1 1.4q-.5 1.6.3 2.8-1.4.3-1.9 1.7c-.5 1.7.4 3.5 2 4.3m51.3 17.9c-1.7-.8-3.5-.3-4.1 1.3-4.5-2.4-6.7-3.7-11.1-6.5l-7.8.4c7 4.4 10.4 6.6 17.3 10.5-.6 1.5.3 3.5 2 4.4s3.5.3 4.1-1.3q.5-1.4-.3-2.7 1.4-.5 1.9-1.8c.6-1.6-.4-3.5-2-4.3m-4.1-8c.6 1.8 2.4 3 4 2.8s2.7-2 2-3.8a4 4 0 0 0-1.8-2.3 3 3 0 0 0 .3-2.6c-.6-1.8-2.4-3-4-2.7s-2.7 1.8-2 3.6c-13.9 1.5-27.7 1-41.5 3-.5-1.8-2.4-3-4-2.7-1.7.4-2.6 2.2-2 3.9q.5 1.5 1.8 2.2-.7 1.2-.3 2.6c.6 1.8 2.4 3 4 2.7s2.7-2 2-3.8c14-1.6 27.8-1.2 41.6-2.9M71.6 39c-5.3-4.4-11.8-6.5-17.2-5.1-5.5 1.4-10.5 6.1-5.4 19.3 0 0-2.7 8.2 6 8.6 0 0 1.4.2 1.3 2.2v1q.1 1.1 1.1 1.5 1.1.2 1.2-.8v-1l1.4.5v1q.1 1 1.1 1.4 1.1.2 1.2-.8v-1l1.4.5v1q.1 1 1.1 1.4Q66 69 66 68v-1l1.4.5v1q.1 1 1.1 1.4 1.1.3 1.2-.8v-1c0-2 1.3-1.4 1.3-1.4 8.7 4.5 6-5.4 6-5.4 5-10.7 0-17.9-5.4-22.3M57 55.7c-2.4-.7-4.4-3.2-4.4-5.6s2-3.8 4.4-3.1 4.3 3.2 4.3 5.6-2 3.8-4.3 3m7.5 6.9q-1.5-1-2.9-.9-.5.3-.5-1V59q.3-1.7 2-1.4c1 .3 1.7 1.4 1.8 2.5l.1 1.7q0 1.3-.5.8m4.7-3.3c-2.4-.7-4.4-3.2-4.4-5.6s2-3.8 4.4-3 4.3 3.1 4.3 5.5-2 3.8-4.3 3.1" style="fill:#fff"/></svg>