<svg xml:space="preserve" width="16" height="16" viewBox="0 0 128 128"><linearGradient id="a" x1="50.1" x2="50.1" y1="32" y2="4" gradientTransform="matrix(1 0 0 -1 0 128)" gradientUnits="userSpaceOnUse"><stop offset="0" style="stop-color:#00bfa5"/><stop offset=".5" style="stop-color:#00b29a"/><stop offset="1" style="stop-color:#009e89"/></linearGradient><path d="M96.3 124v-2.9c0-16.7-23.6-25.1-47.7-25.1-18.3 0-36.9 4.4-44.6 14.3V124z" style="fill:url(#a)"/><path d="M39 89v10c0 4.4 3.6 8.1 8.2 8.1h1.6c4.6 0 8.3-3.7 8.3-8.2V89zm36.6-38.6H20.9c-5.9 0-10.7 5.2-10.7 11.4S15 73.3 21 73.3h54.7c5.9 0 10.7-5.2 10.7-11.5s-4.8-11.4-10.7-11.4" style="fill:#99674f"/><path d="M48.3 11c-17.4 0-33.6 18.7-33.6 45.5 0 26.6 16.6 39.8 33.6 39.8S81.8 83 81.8 56.5C81.8 29.7 65.7 11 48.3 11" style="fill:#ba8d68"/><ellipse cx="31.8" cy="58.8" rx="4.9" ry="5.1" style="fill:#49362e"/><ellipse cx="64.7" cy="58.8" rx="4.9" ry="5.1" style="fill:#49362e"/><path d="M24 50.7c3.2-4.5 10.7-4.6 14.4-.8.7.7 1.3 1.5.9 2.5q-1 1.4-2.6.5a13 13 0 0 0-7.6-.9L26 53.2c-1.5.5-3-1-2-2.4m46 2.3q-3.2-1.6-6.9-1.2a13 13 0 0 0-3.3.8c-.8.3-1.7.9-2.5.3-2.5-1.7 1.9-4.4 3.1-5q4.4-1.7 8.8.3 1.7.9 2.8 2.4c.8 1.3-.4 3-2 2.4" style="fill:#613e31"/><path d="M56.7 76.1a26 26 0 0 1-16.8 0c-1.9-1-3.7.6-3 2.3s6.5 5.4 11.4 5.4 10.5-3.8 11.3-5.4-1.1-3.4-3-2.3" style="fill:#5d4037"/><path d="M52.1 68h-7.7q-1 .5-.7 1.7c.3.7 1.7 2.7 4.6 2.7s4.2-2 4.5-2.7q.4-1.2-.7-1.6" style="fill:#99674f"/><g style="opacity:.28"><linearGradient id="b" x1="79.3" x2="71.6" y1="14.5" y2="16.2" gradientTransform="matrix(1 0 0 -1 0 128)" gradientUnits="userSpaceOnUse"><stop offset=".3" style="stop-color:#262626"/><stop offset="1" style="stop-color:#262626;stop-opacity:0"/></linearGradient><path d="M81.5 102.7c-1.6-1.5-7.2-3-7.2-3L68.8 124h9.5z" style="fill:url(#b)"/></g><linearGradient id="c" x1="108.2" x2="100.2" y1="64.1" y2="52.9" gradientTransform="matrix(1 0 0 -1 0 128)" gradientUnits="userSpaceOnUse"><stop offset=".5" style="stop-color:#ba8d68"/><stop offset="1" style="stop-color:#a47b62"/></linearGradient><path d="M91.3 74.2c2.6.2 6.3 1 8.2.6 1.6-.3 2-1.8 3.7-2.2l19.7-4.5c2.2-.5 3-4.5-1.6-5.3S107.4 64 107.4 64s.5-1.4.2-2.4c-1-2.3-4-1.5-5.7-1l-10.6 3c-5.4 1.8-5.1 10.3 0 10.6" style="fill:url(#c)"/><linearGradient id="d" x1="90" x2="90" y1="55.9" y2="10.7" gradientTransform="matrix(1 0 0 -1 0 128)" gradientUnits="userSpaceOnUse"><stop offset="0" style="stop-color:#00bfa5"/><stop offset=".5" style="stop-color:#00b29a"/><stop offset="1" style="stop-color:#009e89"/></linearGradient><path d="M102.6 73.7q-.1-1.5-1.6-1.7l-12.8-.8q-1.5 0-1.8 1.6L75.6 124h29z" style="fill:url(#d)"/><path d="M48.3 4C2.7 4.3 12 56.2 12 56.2l3 7.7q.3.5.7 0c1-4.4 4.4-19.8 6.2-24.5a6 6 0 0 1 6.8-3.8 111 111 0 0 0 19.4 1.8h.1c7.9 0 15-1 19.4-1.8a6 6 0 0 1 6.8 3.8c1.8 4.7 5.2 20 6.2 24.4 0 .3.6.4.7 0l3-7.6s9.4-52-36-52.2" style="fill:#543930"/><radialGradient id="e" cx="48.3" cy="80.9" r="38.1" gradientTransform="matrix(1 0 0 -1.128 0 138.37)" gradientUnits="userSpaceOnUse"><stop offset=".8" style="stop-color:#6d4c41;stop-opacity:0"/><stop offset="1" style="stop-color:#6d4c41"/></radialGradient><path d="M84.4 56.2S93.7 4.2 48.3 4l-6 .4h-.4C3.7 9.2 12.1 56.2 12.1 56.2l3 7.6c.1.4.6.4.7 0 1-4.4 4.4-19.7 6.2-24.4a6 6 0 0 1 6.8-3.8 111 111 0 0 0 19.4 1.8h.1c7.9 0 15-1 19.4-1.8a6 6 0 0 1 6.8 3.8c1.8 4.7 5.3 20.1 6.2 24.5q.3.5.7 0z" style="fill:url(#e)"/></svg>