<svg xml:space="preserve" width="16" height="16" viewBox="0 0 128 128"><path d="M116.5 4h-104a8 8 0 0 0-8 8v104a8 8 0 0 0 8 8h104a8 8 0 0 0 8-8V12a8 8 0 0 0-8-8" style="fill:#689f38"/><path d="M110.2 4H12a7.6 7.6 0 0 0-7.5 7.5v97.9c0 4.1 3.3 7.5 7.4 7.5h98.2c4.1 0 7.4-3.4 7.5-7.5v-98c0-4-3.2-7.3-7.2-7.4z" style="fill:#7cb342"/><path d="M40.2 12.9c0-2.3-1.6-3-10.8-2.7-7.7.3-11.5 1.2-13.8 4s-3 8.5-3 15.3c0 4.8 0 9.3 2.5 9.3 3.4 0 3.4-8 6.2-12.3 5.4-8.7 18.9-10.6 18.9-13.6" style="opacity:.65;fill:#abc884"/><path d="M108.7 95 77.5 64.3l31-31.2a9 9 0 0 0-12.9-12.6l-30.8 31-31.2-30.8a9 9 0 0 0-12.7 12.7l31.2 31-31 31.1A9 9 0 0 0 34 108.2L64.9 77 96 107.9a9 9 0 0 0 12.8 0 9 9 0 0 0 0-12.8" style="fill:#fbf9f9"/><path d="M40.2 12.9c0-2.3-1.6-3-10.8-2.7-7.7.3-11.5 1.2-13.8 4s-3 8.5-3 15.3c0 4.8 0 9.3 2.5 9.3 3.4 0 3.4-8 6.2-12.3 5.4-8.7 18.9-10.6 18.9-13.6" style="opacity:.35;fill:#abc884"/></svg>