<svg xml:space="preserve" width="16" height="16" viewBox="0 0 128 128"><path d="M116.5 4h-104a8 8 0 0 0-8 8v104a8 8 0 0 0 8 8h104a8 8 0 0 0 8-8V12a8 8 0 0 0-8-8" style="fill:#8e24aa"/><path d="M110.2 4H12a7.6 7.6 0 0 0-7.5 7.5v97.9c0 4.1 3.3 7.5 7.4 7.5h98.2c4.1 0 7.4-3.4 7.5-7.5v-98c0-4-3.2-7.3-7.2-7.4z" style="fill:#ab47bc"/><path d="M40.2 12.9c0-2.3-1.6-3-10.8-2.7-7.7.3-11.5 1.2-13.8 4s-3 8.5-3 15.3c0 4.8 0 9.3 2.5 9.3 3.4 0 3.4-8 6.2-12.3 5.4-8.7 18.9-10.6 18.9-13.6" style="opacity:.3;fill:#fafafa"/><path d="m97 48.9 3 9.5q.2.8 1.2.9l10-.1a1.3 1.3 0 0 1 .8 2.3l-8.1 5.8q-.8.4-.5 1.4l3.2 9.5q.2 1-.8 1.6-.7.1-1.2-.2l-8-6q-.7-.3-1.5 0l-8 6q-1 .6-1.8-.3-.5-.5-.2-1.1l3.2-9.5q.3-1-.5-1.4l-8.3-5.7a1.3 1.3 0 0 1 .8-2.3h10q.8 0 1.2-.8l3-9.5a1.3 1.3 0 0 1 2.5-.1" style="fill:#fff"/><path d="M72.3 104.2a40.2 40.2 0 1 1 28-69.3c.3.3 1 .3 1.3 0a1 1 0 0 0 0-1.3 48 48 0 1 0 0 60.7c.8-1-.4-2.1-1.2-1.3a41 41 0 0 1-28.1 11.2" style="fill:#fafafa"/></svg>