<svg xml:space="preserve" width="16" height="16" viewBox="0 0 128 128"><path d="M67.7 39.4c0 7.4-6.4 9.9-12.2 26.7-4 12-7.8 37.5 3.2 49.6q6.6 7.5 20.9 8c11.9.1 21-2.5 25.7-11.6 6.2-12.1 4.2-30.9.2-45.7-4.3-15.6-12.4-19.6-12.2-28.2.1-6 9.4-10.2 9.4-24.2C102.7 6.4 91 4.3 81 4c-9.4-.4-22.9 1.8-23.1 9.2-.5 15.8 9.7 18.6 9.7 26.2" style="fill:#e0e0e0"/><path d="M87.2 42c0 7.5 9.5 10.6 13.6 32 2.4 12.5 8.7 7.2 4.7-7.6-4.3-15.6-12.4-19.6-12.2-28.2.1-6 9.4-10.2 9.4-24.2q0-1.5-.7-3s0 3.4-2.8 9.2c-7.6 15.7-12 13-12 21.8" style="fill:#c8c8c8"/><path d="M99.2 13.1c.1 4.9-11.2 6.5-19.4 6.3S61 17.9 61.4 12.6c.3-4.7 10.9-6.2 19-6 8.3.2 18.6 1.7 18.8 6.5" style="fill:#b0b0b0"/><path d="M63 9c-1.1-.8-3.4.3-3.7 3.3-.2 2 1.4 5.2 5 5 2.8-.1-2.8-2-2.7-4.9 0-2 2.7-2.7 1.4-3.5" style="fill:#fff"/><path d="M55.5 66.1c-4 12-7.8 37.5 3.2 49.6 4.3 4.8 11.5 7.8 20.9 8 11.9 0 21-2.5 25.7-11.6 6.2-12.1 4.2-30.9.2-45.7-5.5 6-13 9.6-25.7 9.6-11.2 0-18.2-3.2-24.3-9.9" style="fill:#a6cfd6"/><path d="M51.6 87c-.6 10.6.9 21.8 7 28.7q2.4 2.6 5.6 4.4c3.2 1.7 12.4-9.8 10-26-.7-4.5-22.3-8.8-22.6-7.1M88 123.2c7.7-1.1 13.7-4.3 17.2-11.1 6.3-12.1 4.3-30.9.3-45.7a28 28 0 0 1-5.7 4.8c3.3 19.8 2.6 35.6-7.3 47.4a40 40 0 0 1-4.5 4.6" style="fill:#6ca4ae"/><path d="M70.6 50.2c-2.6-.3-7.2 4.6-10.9 13.8-3.6 9.2-4 20-1.3 20.8 2.7.7 3.1-10.8 7.5-19.8 4.8-9.8 6.9-14.6 4.7-14.8" style="fill:#fff"/><path d="m50.8 115.5-19.4.1v6s2.6 2.3 10.2 2.2 9.2-2.1 9.2-2.1z" style="fill:#6ca4ae"/><path d="M21.3 88.2 19 89.6s-1.4 11.2 1.9 18c2.7 5.7 8.7 12.2 19.7 12.1s17.6-6.7 19.9-12.4c2.5-6.4 1.5-16 1.4-17.1 0-1.6-4.4-3.6-5-3.7-.3 0-36 1.4-35.7 1.7" style="fill:#a6cfd6"/><path d="M23 96c-1-.4-2 .3-1.5 4q.5 5.3 2.1 7.8c1 1.7 2.7 3.4 3.5 3 .6-.1-1.5-3-2-7.4-.5-3.4-.2-6.8-2-7.5" style="fill:#fefefe"/><path d="M19 89.5c-.4 4.1 7.8 8 20.8 8.1C55 97.7 62.3 94 62 90.3c-.4-4.7-10-7.8-22.4-7.7-12.2.2-20.3 3-20.7 7" style="fill:#e0e0e0"/><path d="M22.4 89.6c-.2 2.7 7.9 6 17.7 5.8 11.8-.2 18.7-2.2 18.7-5.3s-8.5-5.4-18.8-5.3c-8.6 0-17.3 2-17.6 4.8" style="fill:#b0b0b0"/></svg>