<svg xml:space="preserve" width="16" height="16" viewBox="0 0 128 128"><path d="M106 24.8H22.2c-2 0-3.5 1.5-3.5 3.5v57.6c0 1.9 1.5 3.4 3.5 3.4H106c2 0 3.5-1.5 3.5-3.4V28.3c0-2-1.6-3.5-3.5-3.5" style="fill:#b7d5e5"/><radialGradient id="a" cx="48.4" cy="13" r="75.5" gradientTransform="matrix(1 0 0 1.084 0 -10.19)" gradientUnits="userSpaceOnUse"><stop offset="0" style="stop-color:#2f7889"/><stop offset="1" style="stop-color:#424242"/></radialGradient><path d="M104.8 83.2H23.3l1-52.3h79.4z" style="fill:url(#a)"/><path d="M121 123.8H6.5c-2.9-.5-4.2-4.3-2.5-6.8l.4-.6H124l.4.6c1.8 2.8 0 6.8-3 6.8z" style="fill:#2f7889"/><path d="M106.8 90.4H20.6q-2 .1-3.3 2l-14 25.5c-.5.9 0 2.1 1 2.1h119.5c1 0 1.6-1.2 1-2.1L110 92.2a4 4 0 0 0-3.3-1.8" style="fill:#eee"/><path d="M86.4 115.5H41.8l2.9-8h39z" style="fill:#b7d5e5"/><g style="opacity:.57"><path d="m72.7 94.8-.3-2.2H69l.1 2.2zm-5.6 0-.1-2.2h-3.5v2.2zm26.5 0-.8-2.2h-3.3l.7 2.2zm-5.2 0-.7-2.2h-3.3l.5 2.2zm-5.2 0-.6-2.2h-3.3l.4 2.2zm18.9 0-1-2.2h-6.6l.8 2.2zm-24.5 0-.4-2.2h-3.4l.3 2.2zm-43.8 0 .6-2.2h-3.2l-.8 2.2zm16.7 0 .3-2.2h-3.4l-.4 2.2zm-11.1 0 .5-2.2h-3.3l-.7 2.2zm-11.2 0 .8-2.2h-3.2l-1 2.2zm16.8 0 .3-2.2H42l-.6 2.2zm11 0 .2-2.2h-3.4l-.3 2.2zm5.7 0v-2.2h-3.5l-.1 2.2zm22.1 8.9H44.4l-.8 2.2h41zm18.4 2.3-1.3-2.3h6.6l1 2.2zm-15.4 0-.9-2.3h6.3l1 2.2zm8.6 0-1-2.3h4.3l1.1 2.2zm-69.7 0 1.2-2.3h-6.6l-1 2.2zm15.3 0 .9-2.3h-6.3l-1 2.2zm-8.6 0 1-2.3H29l-1 2.3zm-2.7-7.5.8-2.2H24l-1 2.2zm68.3 0-.9-2.2h6.7l1 2.2zm-1.7 0-1-2.2h-3.9l.9 2.2zm-10.1 0-.6-2.2h3.8l.8 2.2zm-6 0-.5-2.2h3.9l.6 2.2zm-6 0-.3-2.2h3.8l.4 2.2zm-6.1 0v-2.2h3.8l.2 2.2zm-6.1 0 .1-2.2H66v2.2zm-6 0 .3-2.2H60v2.2zm-6 0 .4-2.2h3.9l-.3 2.2zm-6 0 .6-2.2h3.8l-.4 2.2zm-6 0 .7-2.2h3.9l-.7 2.2zm-6.1 0 1-2.2h3.8l-.8 2.2zm-2.2 3.7.8-2.2h-8.7l-1 2.2zm66.2 0L95 100h-4.2l.7 2.2zm-10.9 0-.5-2.2h4.1l.6 2.2zm-6.7 0L78 100h4l.5 2.2zm-6.7 0-.1-2.2h4.1l.3 2.2zm-6.6 0V100h4.2l.1 2.2zm-6.6 0 .1-2.2h4.2v2.2zm-6.7 0 .3-2.2h4.2l-.2 2.2zm-6.7 0 .5-2.2h4.2l-.3 2.2zm-6.6 0 .6-2.2h4.2l-.5 2.2zm-6.6 0 .7-2.2h4.2l-.6 2.2zm65.7 0-.8-2.2h8.7l1 2.2z" style="fill:#69a1ba"/></g><path d="m124.7 117.9-14.3-25.5a4 4 0 0 0-3.3-1.8s1.3 1 1.6 1.6l12.6 23.6c.6 1-.2 2.2-1.3 2.2H8a1.5 1.5 0 0 1-1.4-2.2l12-23.2c.3-.6 1.8-2 1.8-2H20q-2.1.1-3.3 2L3.3 118c-.6.9 0 2.1 1 2.1h119.4c1 0 1.6-1.2 1-2.1" style="fill:#b7d5e5"/><path d="M26 28h13.2" style="fill:none;stroke:#eee;stroke-width:2.9357;stroke-linecap:round;stroke-miterlimit:10"/><path d="M109.4 30.1c0-1-1-1.1-1 .1V86q-.2 2.3-2.5 2.4H22.1c-1.4 0-2.5-1-2.5-2.4V30.2c0-1.3-1-1.1-1 0l-1 55.8c0 2.4 1.3 4.4 4.5 4.4h83.8c2.8 0 4.4-2 4.4-4.4z" style="fill:#75a7bc"/></svg>