<svg xml:space="preserve" width="16" height="16" viewBox="0 0 128 128"><radialGradient id="a" cx="63.6" cy="-2088.9" r="57" gradientTransform="matrix(1 0 0 -1 0 -2026)" gradientUnits="userSpaceOnUse"><stop offset=".5" style="stop-color:#fde030"/><stop offset=".9" style="stop-color:#f7c02b"/><stop offset="1" style="stop-color:#f4a223"/></radialGradient><path d="M63.6 118.8c-27.9 0-58-17.5-58-55.9S35.7 7 63.6 7c15.5 0 29.8 5.1 40.4 14.4 11.5 10.2 17.6 24.6 17.6 41.5s-6.1 31.2-17.6 41.4a61 61 0 0 1-40.4 14.5" style="fill:url(#a)"/><path d="M111.5 29.7a57 57 0 0 1 8.1 30.2c0 16.9-6.1 31.2-17.6 41.4a61 61 0 0 1-40.4 14.5c-18 0-37-7.3-48.2-23a58 58 0 0 0 50.2 26c15.4 0 29.8-5.2 40.4-14.5a54 54 0 0 0 17.6-41.4q-.1-19.2-10.1-33.2" style="fill:#eb8f00"/><path d="M44 41c-4.2 0-8 3.5-8 9.4s3.8 9.4 8 9.4 8-3.6 8-9.4-3.8-9.5-8-9.5" style="fill:#422b0d"/><path d="M43.7 44.9c-1-.8-2.6-.5-3.6 1-1 1.4-.7 2.9.3 3.6s2.6.5 3.6-1 .7-3-.4-3.6" style="fill:#896024"/><path d="M82.4 41c-4.2 0-8 3.5-8 9.4s3.8 9.4 8 9.4 8-3.6 8-9.4-3.8-9.5-8-9.5" style="fill:#422b0d"/><path d="M82 44.9c-1-.8-2.6-.5-3.6 1-1 1.4-.6 2.9.4 3.6s2.6.5 3.6-1c1-1.4.6-3-.4-3.6" style="fill:#896024"/><path d="M39.4 94h50a11.4 11.4 0 1 0 .1-22.9H39.4c-6.3 0-11.5 5.1-11.5 11.5C28 88.9 33.1 94 39.4 94" style="fill:#fff"/><path d="M100.7 80.7H28.1a12 12 0 0 0 0 4h72.6a11 11 0 0 0 0-4m-11.2-9.6h-.6V94h.6q1.4 0 2.6-.3V71.4q-1.2-.3-2.6-.3m-26.9 0h3.2V94h-3.2zm-23.2 0q-1.7 0-3.2.5v22q1.4.3 3.2.4zm10 0h3.2V94h-3.2zm26.3 0h3.2V94h-3.2z" style="fill:#b3b3b3"/><path d="M101 82.6a12 12 0 0 0-5.2-8.7q-2.2-1.5-4.6-1.7h-5.3l-10.7.3-10.8.1H53.7l-10.8-.3h-5.2q-2.4.2-4.6 1.6c-2.9 1.8-4.8 5-5.2 8.6-.3-3.5 1.3-7.4 4.3-9.8q2.3-1.8 5.2-2.4l.7-.2h2.1l2.7-.2 10.8-.2 10.7-.1h10.8l10.7.3 2.7.1H90l.7.1.8.2q3 .6 5.1 2.4c3 2.4 4.7 6.3 4.3 9.8" style="fill:#de7321"/></svg>