<svg xml:space="preserve" width="16" height="16" viewBox="0 0 128 128"><path d="M25.3 116.6s4-1.6 6-3.1 3.7-3.4 4.8-4.5q1.2-1 2-1 1 0 1.6.9l2.6 3.2c1 1.8.2 4.1.2 4.1s2.7 2.9-1.8 3.9-10.2 1.5-10.2 1.5l-1 .1c-1.9 0-4.6-.7-5.4-2.7 0 0-1.3-1.4 1.2-2.4" style="fill:#4568ac"/><path d="m42.7 111.5 15.2-1.8s-5.1-15.8-6.6-23.3c0 0 12.5 3.7 19 3.7l1 19.8c.4 8.4-2.2 10.9-6.3 11.8q-1.4.3-3.2.3c-5.3 0-12.9-1.7-19-2.5-2.4-.2-1.7-6.9 0-8" style="fill:#616161"/><path d="M81 119.6c0-2 2-4.4 2-4.4h7.7l6.8 2.3c1.7.6 2.8 2.2 2.8 4v1.4q-.1 1-1.1 1.1h-17q-1.2-.1-1.3-1.3z" style="fill:#4568ac"/><path d="M50.6 77.6q0-.5.5-.4l18 1.2c.2 0 10.4 1.4 16.7 2 7.4.6 8.1 8 7.8 15a375 375 0 0 1-2.2 20.3s-1.8 1-5 1c-3 0-4.6-1-4.7-1l-.2-.4L79 94.6c-1.4-.1-5.5-.3-8.8-.2-6.5.3-13 0-16.8-4.2q-3.9-4.2-2.8-12.6" style="fill:#7c7c7c"/><path d="M59 29c-1-3.7-1.6-8.3-1.1-11.1q.1-1 .5-1.6.9-1.7 2.4-3.1l.8-.7.1-.1.7-.5.1-.2.7-.4.2-.2.7-.4.2-.1.7-.4.2-.1.8-.4h.1q2.4-1 4.8-1H72c5.7.7 9 4.7 10 9.9q.6 2.9.2 5l-.3 1.8c-.2 1.4 2.6 2.6 3 4.2.3 1.1-2.1 2-2.3 2.2-.9 1 .8 6-5.8 6.8l-3.6.3c-1.6.3-1.1 6.7-1.1 6.7l-11.6-2.3s1.6-7.4 0-10.7q-.9-1.5-1.4-3.6" style="fill:#ba8d68"/><path d="M82 34.6a4 4 0 0 1-2.6-.6c-.9-.6-.3-1.3.7-1a4 4 0 0 0 2.2.2z" style="fill:#5d4037"/><path d="M76.6 26.4c0-1 .5-2 1.2-2q1 .2 1.2 2 0 1.6-1.2 1.8-1.1-.2-1.2-1.8" style="fill:#49362e"/><path d="M78.6 23.5c1.2.2 1.4-.6 1-1.2q-.5-.7-2.5-.3-1.7.8-2 1.7t0 1c.5 0 2-1.5 3.5-1.2" style="fill:#613e31"/><radialGradient id="a" cx="-947.5" cy="632.9" r="1" gradientTransform="matrix(-17.036 0 0 17.036 -16076.33 -10726.07)" gradientUnits="userSpaceOnUse"><stop offset=".4" style="stop-color:#651fff"/><stop offset=".8" style="stop-color:#5914f2"/><stop offset="1" style="stop-color:#530eeb"/></radialGradient><path d="M56.7 48.8c1.9-6.4 5-8 7.8-8 3 0 5.4 1.7 5.4 1.7C74.6 46 74.8 51 75.1 58c.5 6.9.8 21 .8 21s-5.4 2.2-13.7 2.2h-.7c-8.6-.1-11.8-3.1-11.8-3.1s4.6-21.4 7-29.3" style="fill:url(#a)"/><linearGradient id="b" x1="74.9" x2="77" y1="49.9" y2="64.3" gradientTransform="matrix(1 0 0 -1 0 130)" gradientUnits="userSpaceOnUse"><stop offset=".5" style="stop-color:#ba8d68"/><stop offset="1" style="stop-color:#a47b62"/></linearGradient><path d="M56.6 66.9c.4-3 2.7-14.4 2.7-14.5q.1-.5.6-.4L70 53l.5.5L67 68.8c1.8 1 10.4 6.1 12.9 6.6 1.6.4 4.5.8 7.8 1.2 2.6.4 5.3 3.8 6.6 5.9a1.7 1.7 0 0 1-2.3 2.3l-3.6-2.2q-.9.2-4 .2c-2.6-.1-5-1.2-5.1-1.2-1-.4-5.3-1.1-9.5-1.9l-8.5-1.6C55 76.8 56 69.6 56.6 67" style="fill:url(#b)"/><path d="M58.3 52.9c.5-3 2.9-6.6 6.8-6.6l1 .1c4.6.8 6 5.6 5.4 8.8l-2 9.6-13.1-2.3z" style="fill:#3615af"/><path d="M46.2 31.4c-.3-8.2-5.1-13.2.2-19.6C49.8 7.6 56.8 9.4 58 11c2.4 3-1.7 6-2.6 7.5-1.4 2.3 1.2 11.6-3 18.3-5.6 9-11.3 7.7-11.3 7.7s5.4-5.1 5-13" style="fill:#543930"/><radialGradient id="c" cx="-957.3" cy="625.3" r="1" gradientTransform="rotate(-173.6 -6894.62 -6116.11)scale(15.133 -18.298)" gradientUnits="userSpaceOnUse"><stop offset=".5" style="stop-color:#6d4c41;stop-opacity:0"/><stop offset="1" style="stop-color:#6d4c41"/></radialGradient><path d="M45.7 27.6c-1.1-6.1-3.7-10.5.7-15.8C49.8 7.6 56.8 9.3 58 11c2.4 3-1.7 5.9-2.6 7.5a79 79 0 0 1-9.7 9" style="fill:url(#c)"/><radialGradient id="d" cx="-835.5" cy="589.2" r="1" gradientTransform="rotate(189.8 6280.11 6476.2)scale(-16.184 19.966)" gradientUnits="userSpaceOnUse"><stop offset="0" style="stop-color:#6d4c41"/><stop offset=".5" style="stop-color:#6d4c41;stop-opacity:0"/></radialGradient><path d="M46.2 31.4q-.1-3-1-6c-.4-1.8-.9-3.4.3-5a7.4 7.4 0 0 1 8.4-2.6q1.4.4 1.3 1.7l-.2 2V26a21 21 0 0 1-2.6 10.7c-5.6 9-11.3 7.7-11.3 7.7s5.4-5.1 5-13" style="fill:url(#d)"/><radialGradient id="e" cx="-781.6" cy="599.9" r="1" gradientTransform="rotate(199.8 2009.3 9077.72)scale(-8.847 28.218)" gradientUnits="userSpaceOnUse"><stop offset=".5" style="stop-color:#6d4c41;stop-opacity:0"/><stop offset="1" style="stop-color:#6d4c41"/></radialGradient><path d="M55.2 16.3c-1 2.2-.2 6.4-.2 8q.1 2.7-.6 7.4c-1.5 7.6-8 11.5-8 11.5z" style="fill:url(#e)"/><path d="M57.3 12.6c2.6-3.2 6.8-5.2 11.3-5.4 4-.2 9.3.7 12.6 4q3.1 3 2.8 7.4c-.2 1.7-1.6 2.6-1.6 2.6s-1.6-4-5.6-3c-4.2 1.1-6 .3-6 .3 1.4 3.3.1 5.1-1 6.2l-1.5 1.7q-.3.3-.4 0l-.7-2c-.8-1.5-2-1-2-1-1.7.6-2.3 4 .5 6.1l.1.5c-1 3.6-5.3 3.7-5.5 3.6q-1-.5-1-1.4c-.4-2.4-1.4-3-2.2-4.1-.8-1.2-1.8-2.5-2.4-6.2q-.7-5.2 2.5-9.3" style="fill:#543930"/><radialGradient id="f" cx="-958.9" cy="638.9" r="1" gradientTransform="matrix(-14.01 0 0 14.01 -13365.07 -8930.98)" gradientUnits="userSpaceOnUse"><stop offset=".5" style="stop-color:#6d4c41;stop-opacity:0"/><stop offset="1" style="stop-color:#6d4c41"/></radialGradient><path d="M57.3 12.6c2.6-3.2 6.8-5.2 11.3-5.4 4-.2 9.3.7 12.6 4q3.1 3 2.8 7.4c-.2 1.7-1.6 2.6-1.6 2.6s-1.6-4-5.6-3c-4.2 1.1-6 .3-6 .3 1.4 3.3.1 5.1-1 6.2l-1.5 1.7q-.3.3-.4 0l-.7-2c-.8-1.5-2-1-2-1-1.7.6-2.3 4 .5 6.1l.1.5c-1 3.6-5.3 3.7-5.5 3.6q-1-.5-1-1.4c-.4-2.4-1.4-3-2.2-4.1-.8-1.2-1.8-2.5-2.4-6.2q-.7-5.2 2.5-9.3" style="fill:url(#f)"/></svg>