<svg xml:space="preserve" width="16" height="16" viewBox="0 0 128 128"><path d="M22.1 18.6h23.2v15.1H22.1z" style="fill:#d68b52"/><ellipse cx="114.6" cy="108.8" rx="9.4" ry="12.7" style="fill:#f2bd72"/><path d="M114.6 96.2h-5.2V22c0-10.7-7.6-15.6-10.4-15.6H22.1S32.2 7.6 32.4 22v79.6c0 16.8 6.3 19.8 6.3 19.8h75.9c5.2 0 9.4-5.7 9.4-12.7s-4.2-12.6-9.4-12.6m0 .1h-5.2V22c0-10.7-7.6-15.6-10.4-15.6H22.1S32.2 7.6 32.4 22v79.6c0 16.8 6.3 19.8 6.3 19.8h75.9c5.2 0 9.4-5.7 9.4-12.7s-4.2-12.6-9.4-12.6" style="fill:#ffd8a1"/><path d="M32.3 100.8v-9.1s59.6 6.4 77-14.2v23z" style="fill:#f2bd72"/><g style="opacity:.6"><path d="M45.5 30.1h6.2l3-.2c1.2 0 2.3.4 3.6.4l1.7-.2h6.3m12.7 0h2.2c1.1-.2 2.2-.7 3.4-.6s2.3.9 3.5 1c2 .3 3.9-.8 5.9-1h2l4.2.5M45.5 53.5h3c1.4-.1 2.8-.6 4.2-.6 1.5.1 2.8.7 4.2 1q3 .3 5.8-.3c2-.3 4 0 6 0h7.8m10.3-.1H89q1.7-.1 3.4-.6c1.6-.3 3.3.2 5 .4l3.8.2M68.6 77h4c2.3.4 4.2-.3 6.4-.6q3.2-.1 6.3.4 3.3.2 6.6 0l6.8.1m-54.1.1 5.8.2 2-.2 4 .1L59 77m9.6-58.5h4c2.3.4 4.2-.3 6.4-.5 2.1-.3 4.2.1 6.3.3q3.3.2 6.6 0l6.8.2m-54.1 0c2 0 3.9.4 5.8.2l2-.2q2 .2 4 .1l2.6-.1M45.5 41.9h2.9c1.6.2 3.2-.6 4.8-.7 2-.2 4 .4 6.1.7q3 .3 6 0l2.9-.1 3 .3c1.2 0 2.3-.6 3.6-.7 2.8-.5 5.6 1 8.4.7l2.7-.3h3.3l5 .5m-48.7 23h2.9c1.6.2 3.2-.6 4.8-.7 2-.2 4 .4 6.1.7q3 .3 6 0l2.9-.1 3 .3c1.2 0 2.3-.6 3.6-.8 2.8-.4 5.6 1 8.4.8l2.7-.4 3.3.1 5 .5M58.4 88.6l1.5-.1 2.2.3q2.7.5 5.3 0l3-.7c2.4-.4 5 .7 7.5.7 2.2 0 4.5-1 6.7-.4q2.1.3 4.4.2" style="opacity:.77;fill:none;stroke:#9e673c;stroke-width:3.0045;stroke-linecap:round;stroke-miterlimit:10"/></g><path d="M38.3 96.2v6.2h84.4c-1.7-3.7-4.7-6.2-8.1-6.2z" style="fill:#fcebcd"/><ellipse cx="38.7" cy="108.8" rx="9.4" ry="12.7" style="fill:#f2bd72"/><path d="M45.7 108.2c0 5.3-3.3 8.3-7 9.3-4.5 1.3-6.4.2-6.4.2v-19s3.2-.8 6.7.1 6.7 4 6.7 9.4" style="fill:#784d30"/><ellipse cx="33.5" cy="108.2" rx="6.7" ry="9.7" style="fill:#784d30"/><ellipse cx="33.5" cy="108.2" rx="6.7" ry="9.7" style="fill:#784d30"/><circle cx="24.9" cy="108.2" r="4.5" style="fill:#ba793e"/><path d="M33 105.4c1.3.4 2.8 3.1.2 5.7-.7.7 0 2 .5 3.3.6 1.5 1 2.4 2.3 1.4 1.8-1.2 3.5-4.7 3.5-7.6 0-4.8-2.7-8.7-6-8.7-1.7 0-3 .6-4.2 2.9-.5 1-.6 2.3 1 2.5z" style="fill:#ba793e"/><ellipse cx="22.3" cy="20.1" rx="10.1" ry="13.6" style="fill:#f2bd72"/><path d="M29.3 19.4c0 5.4-3.3 8.4-6.9 9.4-4.6 1.2-6.5.1-6.5.1V10s3.2-.8 6.7.2 6.7 4 6.7 9.3" style="fill:#784d30"/><ellipse cx="17.1" cy="19.4" rx="6.7" ry="9.7" style="fill:#784d30"/><ellipse cx="17.1" cy="19.4" rx="6.7" ry="9.7" style="fill:#784d30"/><circle cx="8.5" cy="19.4" r="4.5" style="fill:#ba793e"/><path d="M16.6 16.7c1.3.4 2.8 3 .2 5.7-.7.6 0 2 .5 3.3.6 1.5 1 2.3 2.3 1.4 1.8-1.2 3.5-4.7 3.5-7.7 0-4.8-2.7-8.6-6-8.6-1.7 0-3 .5-4.2 2.8-.5 1-.6 2.4 1 2.6 0 0 1.8.2 2.7.5" style="fill:#ba793e"/></svg>