<svg xml:space="preserve" width="16" height="16" viewBox="0 0 128 128"><path d="M116 4H12a8 8 0 0 0-8 8v104a8 8 0 0 0 8 8h104a8 8 0 0 0 8-8V12a8 8 0 0 0-8-8m0 0H12a8 8 0 0 0-8 8v104a8 8 0 0 0 8 8h104a8 8 0 0 0 8-8V12a8 8 0 0 0-8-8" style="fill:#f77e00"/><path d="M109.7 4H11.5A7.6 7.6 0 0 0 4 11.5v97.9c0 4.1 3.3 7.5 7.5 7.5h98.1c4.1 0 7.5-3.3 7.5-7.5V11.5c0-4-3.1-7.4-7.2-7.5z" style="fill:#ff9800"/><path d="M39.7 12.9c0-2.3-1.6-3-10.8-2.7-7.7.3-11.5 1.2-13.8 4s-2.9 8.5-3 15.3c0 4.8 0 9.3 2.5 9.3 3.4 0 3.4-7.9 6.2-12.3 5.4-8.7 18.9-10.6 18.9-13.6" style="opacity:.75;fill:#ffbd52"/><path d="M40.4 76.8q-3.4-1.9-5.2-5.3c-1.8-3.4-2-4.7-2-7.4a15 15 0 0 1 7.2-12.7q3.4-2 7.5-2c4.1 0 5.2.7 7.5 2q3.3 1.9 5.2 5.3c2 3.4 2 4.7 2 7.4s-.7 5.1-2 7.4-3 4-5.2 5.3q-3.4 2-7.5 2c-4.1 0-5.2-.7-7.5-2m12.2-4.3q2.2-1.2 3.4-3.4a10 10 0 0 0 1.3-5 10 10 0 0 0-1.3-5q-1.2-2.2-3.4-3.4c-2.2-1.2-3-1.3-4.7-1.3s-3.3.5-4.7 1.3Q41 57 39.8 59c-1.3 2-1.2 3.1-1.2 5q0 2.8 1.2 5c1.2 2.2 2 2.6 3.4 3.4q2.1 1.2 4.7 1.2c2.6 0 3.3-.4 4.7-1.2m14-22.4h17.8v5H71.9v7H83v5H71.9v11.2h-5.3zM89 50h17.8v5H94.3v7h11.2v5H94.3v11.2H89zM66.4 84.1v11.3q-.1 1-1.1 1.1H30.5a1 1 0 0 1-1.1-1V32.6q.1-1 1.1-1.1h34.8a1 1 0 0 1 1.1 1v11.9H71v-18q-.1-2.6-2.6-3.5c-2.3-.6-8.3-2.4-20.5-2.4s-19.3 2-20.5 2.4a4 4 0 0 0-2.6 3.4v75.5c0 1.6 1 3 2.6 3.4 1.3.3 8.3 2.4 20.5 2.4s18.3-1.8 20.5-2.4a4 4 0 0 0 2.6-3.4V84zM39.8 25.6H56a1.1 1.1 0 1 1 0 2.3H39.8a1.1 1.1 0 1 1 0-2.3m-8 0a1.1 1.1 0 1 1-1 1.2q.1-1 1-1.2M56 102.2H39.8a1.1 1.1 0 1 1 0-2.2H56q1.1.1 1.2 1-.2 1.1-1.2 1.2" style="fill:#fafafa"/></svg>