<svg xml:space="preserve" width="16" height="16" viewBox="0 0 128 128"><path d="M116.5 4h-104a8 8 0 0 0-8 8v104a8 8 0 0 0 8 8h104a8 8 0 0 0 8-8V12a8 8 0 0 0-8-8" style="fill:#427687"/><path d="M122.2 6.3a8 8 0 0 0-5.7-2.3h-104a8 8 0 0 0-8 8v104q0 3.1 2.3 5.7l16.8-16.8h76a6 6 0 0 0 5.9-6V23z" style="fill:#8cafbf"/><path d="M80.9 73.3h4.9q1.7.1 1.9 1.9v5.5q-.2 1.7-2 1.9H81c-1 0-2 .8-2 1.9V96q-.1 1.7-1.8 1.9h-7.8c-1 0-2-.9-2-2V84.5c0-1-.8-2-1.8-2H39.4a2 2 0 0 1-2-1.7l-.1-4.6q0-.6.3-1.1l28.9-45.3q.6-1 1.6-1h9c1 0 1.9 1 1.9 2v40.7a2 2 0 0 0 1.9 1.9m-28.1 0h12.8c1 0 1.9-.9 1.9-2v-27l-1 1.6-15.3 24.5a2 2 0 0 0 1.6 2.9" style="fill:#fafafa"/><path d="M40.2 12.9c0-2.3-1.6-3-10.8-2.7-7.7.3-11.5 1.2-13.8 4s-3 8.5-3 15.3c0 4.8 0 9.3 2.5 9.3 3.4 0 3.4-8 6.2-12.3 5.4-8.7 18.9-10.6 18.9-13.6" style="opacity:.5;fill:#b4e1ed"/></svg>