<svg xml:space="preserve" width="16" height="16" viewBox="0 0 128 128"><linearGradient id="a" x1="64" x2="64" y1="4.3" y2="31.1" gradientTransform="matrix(1 0 0 -1 0 128)" gradientUnits="userSpaceOnUse"><stop offset="0" style="stop-color:#e3e3e3"/><stop offset="1" style="stop-color:#c9c9c9"/></linearGradient><path d="M116 121v3H12v-3c0-14.7 17.7-22 38.2-24.3Q57 96 64 96h.1q7 0 13.7.8C98.4 99.2 116 107 116 121" style="fill:url(#a)"/><path d="M77.8 96.8v7.1c0 5.5-5.6 10-12.5 10h-2.6c-6.9 0-12.5-4.5-12.5-10v-7.2Q57 96 64 96h.1q7 0 13.7.8m-16 14.7h4.5V124h-4.5z" style="fill:#b9bbbd"/><path d="M73 90.2H55v10a8 8 0 0 0 8.2 8.1h1.6c4.6 0 8.3-3.6 8.3-8.1zm18.3-39.7H36.7c-6 0-10.7 5.2-10.7 11.4s4.8 11.4 10.7 11.4h54.6c6 0 10.7-5.1 10.7-11.4s-4.8-11.4-10.7-11.4" style="fill:#7a4c32"/><path d="M64 11.2c-17.4 0-33.5 18.6-33.5 45.4C30.5 83.2 47 96.4 64 96.4s33.5-13.2 33.5-39.9S81.4 11.3 64 11.3" style="fill:#a56c43"/><ellipse cx="47.6" cy="58.9" rx="4.9" ry="5.1" style="fill:#42312c"/><ellipse cx="80.4" cy="58.9" rx="4.9" ry="5.1" style="fill:#42312c"/><path d="m67.9 68.2-.4-.1h-7.3q-1.1.6-.7 1.7c.4 1 1.7 2.7 4.5 2.7a5 5 0 0 0 4.6-2.7q.3-1.2-.7-1.6" style="fill:#875334"/><path d="M72.4 76.2a26 26 0 0 1-16.8 0c-1.8-1-3.7.6-3 2.3s6.5 5.4 11.5 5.4 10.5-3.8 11.3-5.4c.7-1.7-1.2-3.4-3-2.3" style="fill:#473530"/><path d="M64 6c-45.4.1-36 50.2-36 50.2l5 8.8a90 90 0 0 1 4.9-25.6 6 6 0 0 1 6.8-3.8A111 111 0 0 0 64 37.4h.1c8 0 15-1 19.5-1.8a6 6 0 0 1 6.7 3.8A90 90 0 0 1 95 65.1l5.1-8.9s9.4-50-36-50.3" style="fill:#3c2c23"/><path d="M88.1 50.9s-2.3-3.6-7.6-3.6-7.6 3.6-7.6 3.6q-.3.4-.3.9.1 1.5 1.6 1.6l.6-.2C78 52 80.5 52 80.5 52s2.5 0 5.7 1.3l.6.2q1.5-.1 1.6-1.6 0-.5-.3-1m-33.1 0c.1 0-2.2-3.6-7.5-3.6s-7.6 3.6-7.6 3.6q-.3.4-.3.9.1 1.5 1.6 1.6l.6-.2C45 52 47.6 52 47.6 52s2.5 0 5.7 1.3l.6.2q1.5-.1 1.6-1.6 0-.5-.3-1" style="fill:#42312c"/><path d="M104.5 43.9s-5.7-8.4-30.9-16.7c-19.9-6.5-38-6.7-46-5.6q0-.2-1 1.2s22.5-2.3 49.1 8c9.8 3.8 22.9 8.6 28.3 16.5z" style="fill:#b9bbbd"/><path d="M64.4 39.2c-23-5.1-36-6.9-40.6-2.3A21 21 0 0 1 26.7 23c2-3 4.7-6.7 7.5-8.8A46 46 0 0 1 63.5 4c10 0 22.1 6.2 31.2 12.7 2.9 2.1 4.8 3.7 6.9 6.7 7.8 11.4-.3 34.3-.3 34.3s-10-12.6-37-18.5" style="fill:none"/><linearGradient id="b" x1="64.2" x2="64.2" y1="3.6" y2="54.9" gradientTransform="translate(0 .68)" gradientUnits="userSpaceOnUse"><stop offset="0" style="stop-color:#eee"/><stop offset=".3" style="stop-color:#e3e3e3"/><stop offset=".9" style="stop-color:#c5c5c5"/><stop offset="1" style="stop-color:#bdbdbd"/></linearGradient><path d="M60.2 40.5c23.2-4.5 37.5-7.4 44.8-3a20 20 0 0 0-3.4-14A61 61 0 0 0 63.3 4a46 46 0 0 0-36.8 19c-7.6 11.6.3 34.3.3 34.3s6.4-11.5 33.4-16.8" style="fill:url(#b)"/><path d="M23.6 43.5s4.4-8 29.6-16.3c19.9-6.5 39.3-6.3 47.4-5.2l.9 1.3S77.7 20.5 51 30.8c-9.7 3.8-21.4 8.2-26.8 16z" style="fill:#b9bbbd"/><path d="M105 36.7v.7a48 48 0 0 1-.9 9c-1 6.4-2.8 11.3-2.8 11.3s-9.7-12.2-35.6-18.2l-1.4-.3-4.3-1-2.3-.4c-19.2-4-29.8-5-33.9-1A21 21 0 0 1 28 21.3c2.2-2.7 3.9-5.3 6.2-7A45 45 0 0 1 61 4h1.2l1.2-.1a31 31 0 0 1 7 .8A73 73 0 0 1 98.7 20q1.5 1.5 2.9 3.5 3 4.6 3.3 10.4z" style="fill:#c4c6c7"/><path d="m104.6 43-.5 3.4c-6.1-7.3-18.5-11.8-28-15.5a119 119 0 0 0-49-8.3q.4-.8 1-1.4c9-1 26.6-.3 45.8 6 19.8 6.4 28 13 30.7 15.8" style="fill:#b9bbbd"/><linearGradient id="c" x1="64.2" x2="64.2" y1="123.7" y2="74.4" gradientTransform="matrix(1 0 0 -1 0 128)" gradientUnits="userSpaceOnUse"><stop offset="0" style="stop-color:#eee"/><stop offset=".3" style="stop-color:#e3e3e3"/><stop offset=".9" style="stop-color:#c5c5c5"/><stop offset="1" style="stop-color:#bdbdbd"/></linearGradient><path d="M105 36.8c-6.2-3.3-36.4-.8-45 1.4l-.6.2C26.6 48.4 27 56.8 26.8 57.2l-1.1-3.8a75 75 0 0 1-2.1-10.9 45 45 0 0 1 .7-14.3q.7-2.9 2.2-5.2a40 40 0 0 1 26-17.8q3.8-.8 7.4-1l1-.1h1.2l1.2-.1h2.2l4.8.8a58 58 0 0 1 13.4 4.8A54 54 0 0 1 101.3 23l.3.4c1.5 2.2 3.4 5.4 3.5 10.4z" style="fill:url(#c)"/><path d="M101.3 23a122 122 0 0 0-50.7 8c-9.4 3.6-20.4 7.7-26.5 15l-.5-3.5c2.8-2.8 9.6-8.9 29.2-15.3a123 123 0 0 1 47.4-5.6zm3.7 13.8v.6c-4.6-.3-21.4-1-39.3 2q-6.2 1.2-12.3 2.8a56 56 0 0 0-26.6 15l-1.1-3.8a65 65 0 0 1 32-15.6 208 208 0 0 1 47.1-4h.3zM83.7 9.6c-8.4 0-23.9 1.7-37.6 7.8a93 93 0 0 0-22.6 14.5q.2-2 .8-3.7c2.3-2.3 7.3-7.4 20.2-12.7 14-5.9 29.3-7.6 36.5-7.2z" style="fill:#b9bbbd"/></svg>