<svg xml:space="preserve" width="16" height="16" viewBox="0 0 128 128"><linearGradient id="a" x1="64" x2="64" y1="32.3" y2="4.3" gradientTransform="matrix(1 0 0 -1 0 128)" gradientUnits="userSpaceOnUse"><stop offset="0" style="stop-color:#e3f2fd"/><stop offset=".2" style="stop-color:#d6ecfc"/><stop offset=".6" style="stop-color:#b4dbfb"/><stop offset="1" style="stop-color:#90caf9"/></linearGradient><path d="M64.1 96c-25.6 0-52 7.1-52 25v3h104v-3c0-16.9-26.1-25-51.9-25" style="fill:url(#a)"/><path d="m66.3 113.3 2.4-4.7-4.7-5.4-4.6 5.4 2.3 4.7-2.9 10.7h10.4z" style="fill:#1565c0"/><linearGradient id="b" x1="64" x2="64" y1="16.3" y2="34.6" gradientTransform="matrix(1 0 0 -1 0 128)" gradientUnits="userSpaceOnUse"><stop offset=".5" style="stop-color:#f5f5f5"/><stop offset="1" style="stop-color:#dadada"/></linearGradient><path d="M75 91.4H53l-6.6 7.1 9.5 14.7 8.1-10 8.1 10 9.5-14.7z" style="fill:url(#b)"/><path d="M64 84.3h-9v10c0 4.5 3.6 8.2 8.2 8.2h1.6c4.6 0 8.3-3.7 8.3-8.2v-10zm27.3-33.9H36.7c-6 0-10.7 5.2-10.7 11.4s4.8 11.5 10.7 11.5h54.6c6 0 10.7-5.2 10.7-11.5s-4.8-11.4-10.7-11.4" style="fill:#edc391"/><path d="M64 11c-17.4 0-33.5 18.7-33.5 45.5C30.5 83 47 96.3 64 96.3S97.5 83 97.5 56.5C97.5 29.7 81.4 11 64 11" style="fill:#f9ddbd"/><ellipse cx="47.6" cy="58.8" rx="4.9" ry="5.1" style="fill:#312d2d"/><ellipse cx="80.4" cy="58.8" rx="4.9" ry="5.1" style="fill:#312d2d"/><path d="M67.9 68H60q-1 .5-.6 1.7c.3.7 1.7 2.7 4.5 2.7s4.3-2 4.6-2.7q.3-1.2-.7-1.6" style="fill:#dba689"/><path d="M72.4 76.1a26 26 0 0 1-16.8 0c-1.8-1-3.7.6-3 2.3s6.5 5.4 11.4 5.4 10.6-3.8 11.3-5.4-1-3.4-2.9-2.3" style="fill:#444"/><path d="M64 4c-45.5.3-36.2 52.2-36.2 52.2l3 7.7q.4.5.7 0a352 352 0 0 1 6.2-24.5 6 6 0 0 1 6.8-3.8A111 111 0 0 0 64 37.4h.2c7.8 0 14.9-1 19.3-1.8a6 6 0 0 1 6.8 3.8c1.8 4.7 5.2 20 6.2 24.4.1.3.6.4.7 0l3-7.6S109.4 4.2 64 4" style="fill:#312d2d"/><radialGradient id="c" cx="64" cy="80.9" r="38.1" gradientTransform="matrix(1 0 0 -1.128 0 138.37)" gradientUnits="userSpaceOnUse"><stop offset=".8" style="stop-color:#454140;stop-opacity:0"/><stop offset="1" style="stop-color:#454140"/></radialGradient><path d="M100.1 56.2S109.4 4.2 64 4l-6 .4h-.3C19.4 9.2 27.8 56.2 27.8 56.2l3 7.6q.4.6.7 0c1-4.4 4.5-19.7 6.2-24.4a6 6 0 0 1 6.8-3.8A111 111 0 0 0 64 37.4h.2c7.8 0 14.9-1 19.3-1.8a6 6 0 0 1 6.8 3.8c1.8 4.7 5.3 20.1 6.2 24.5.1.3.6.3.7 0z" style="fill:url(#c)"/><path d="M40 50.7c3-4.2 9.8-4.6 13.7-1.5q1 .8 1.7 2c.4 1.3-.9 2.3-2 2l-2.3-.9a11 11 0 0 0-3.6-.5c-1.8 0-3 .2-4.7 1-.7.2-1.3.7-2 .3-1-.4-1.4-1.5-.8-2.4m46 2.4-.8-.4c-1.8-.7-2.8-1-4.7-.9-1.7 0-2.7.2-4 .7-.9.3-1.9 1-2.8.7-1.3-.4-1.3-1.8-.6-2.8q1.4-1.6 3.3-2.4c3-1.3 6.5-1 9.2.6q1.5.8 2.4 2.1c.8 1.3-.4 3-2 2.4" style="fill:#454140"/></svg>