<svg xml:space="preserve" width="16" height="16" viewBox="0 0 128 128"><path d="M116 4H12a8 8 0 0 0-8 8v104a8 8 0 0 0 8 8h104a8 8 0 0 0 8-8V12a8 8 0 0 0-8-8" style="fill:#bdbdbd"/><path d="M109.7 4H11.5A7.6 7.6 0 0 0 4 11.5v97.9c0 4.1 3.3 7.5 7.5 7.5h98.1c4.1 0 7.5-3.3 7.5-7.5V11.5c0-4-3.1-7.4-7.2-7.5z" style="fill:#e0e0e0"/><path d="M39.7 12.9c0-2.3-1.6-3-10.8-2.7-7.7.3-11.5 1.2-13.8 4-1.9 2.3-2.3 5.6-2.6 8.4-.2 2.2-2.2 14.9 3.5 11.2q1-.6 1.6-1.8c1.2-2.1 1.9-3.5 3.3-5.6 5.3-8.6 18.8-10.5 18.8-13.5" style="fill:#fff"/><path d="M22.2 46c2-4 1.9-7.6 3-11.3a15.2 15.2 0 0 1 29.7 0c1 3.7 1 7.3 3 11.2 1.6 3.4 3.3 3.2 3.3 5s-2.5 3.1-5.7 3.5q-4 .5-7.5-.7c3.5-2.6 5.2-6.4 5.7-8.2.3-1.2.6-2.2 0-2.3-1-.2-.7 1.3-2.4 3.5-3.4 4.5-6.2 6-11.2 6s-7.8-1.5-11.3-6c-1.7-2.2-1.4-3.5-2.3-3.5-.7 0-.3 1.3 0 2.4.4 1.8 2 5.6 5.5 8.1-2.1.8-4.9 1-7.4.7-3.2-.4-5.8-1.8-5.8-3.5 0-1.8 1.7-1.6 3.4-5m15.7 10.9h3.9c9.1 0 18.6 5.3 18.6 16.6v22.4a7 7 0 0 1-7 7H26.3a7 7 0 0 1-7-7V73.4c0-11.3 9.5-16.6 18.7-16.6m61.2 45.9c1 0 1.8-1 1.5-1.9-1.4-5-7-9-13.7-9s-12.3 4-13.6 9c-.3 1 .5 2 1.5 2zM65.8 79.4c-1.7-5.6-1-10 3.5-11.5 3.7-1.2 7 1.4 7.6 2.2a12.2 12.2 0 0 1 20.4 0c.6-.7 3.9-3.4 7.6-2.2 4.5 1.4 5.2 5.9 3.4 11.5q-.7 2.3.3 5 .2.9-.7 1c-6.2-1.8-6.3-7.6-6.5-10-.2-2.6-1.7-2.7-2.7-2.5q.9 2.6.6 5.5c-.8 6-6 10.7-12.1 10.8a12.3 12.3 0 0 1-11.7-16.3c-1-.2-2.4-.2-2.8 2.6-.3 2.2-.2 7.7-5.9 9.7a1 1 0 0 1-1.1-1.1 7 7 0 0 0 .1-4.7"/></svg>