<svg xml:space="preserve" width="16" height="16" viewBox="0 0 128 128"><linearGradient id="a" x1="64" x2="64" y1="32.2" y2="-2.4" gradientTransform="matrix(1 0 0 -1 0 128)" gradientUnits="userSpaceOnUse"><stop offset="0" style="stop-color:#616161"/><stop offset=".3" style="stop-color:#545454"/><stop offset=".8" style="stop-color:#323232"/><stop offset="1" style="stop-color:#212121"/></linearGradient><path d="M64.1 96c-25.6 0-52 7.1-52 25v3h104v-3c0-16.9-26.1-25-51.9-25" style="fill:url(#a)"/><path d="M98.7 80.2c-1.2-2.3.3-4.6 3-7.4 4.4-4.6 9-15 4.7-25.8 0 0-.9-1.8-.8-1.9h-1.8a3374 3374 0 0 0-80 0l-2.6 2A25 25 0 0 0 26 72.7c2.7 2.8 4.3 5.1 3 7.4-1.2 2.2-4.8 2.5-4.8 2.5S25 85 27 86.2s4.2 1.4 5.7 1.5c0 0 6.2 8.5 22.3 8.5h17.9c16 0 22.2-8.5 22.2-8.5 1.6 0 3.9-.3 5.7-1.5 2-1.2 2.8-3.5 2.8-3.5s-3.6-.3-4.8-2.5" style="fill:#312d2d"/><radialGradient id="b" cx="99.8" cy="45.5" r="23.4" gradientTransform="matrix(1 0 0 .491 -21.42 60.18)" gradientUnits="userSpaceOnUse"><stop offset=".7" style="stop-color:#454140;stop-opacity:0"/><stop offset="1" style="stop-color:#454140"/></radialGradient><path d="M63.8 96.2v-9.5l28.6-2.2 2.6 3.2s-6.2 8.5-22.3 8.5z" style="fill:url(#b)"/><radialGradient id="c" cx="76.8" cy="49" r="6.9" gradientTransform="rotate(155 84.36 60.43)scale(1 .742)" gradientUnits="userSpaceOnUse"><stop offset=".7" style="stop-color:#454140"/><stop offset="1" style="stop-color:#454140;stop-opacity:0"/></radialGradient><path d="M95 83.5c-4.4-6.5 5.1-8.9 5.1-8.9-1.6 2-2.4 3.9-1.4 5.6 1.2 2.2 4.8 2.5 4.8 2.5s-4.9 4.4-8.6.8" style="fill:url(#c)"/><radialGradient id="d" cx="94.7" cy="68.5" r="30.4" gradientTransform="rotate(-94.3 90.2 63.47)scale(1 .833)" gradientUnits="userSpaceOnUse"><stop offset=".7" style="stop-color:#454140;stop-opacity:0"/><stop offset="1" style="stop-color:#454140"/></radialGradient><path d="M106.4 47c4.3 10.4-.2 21-4.4 25.5-.5.6-3 3-3.5 5 0 0-9.6-13.4-12.4-21.2q-1-2.4-1.2-4.9-.2-2 .9-3.8a111 111 0 0 1 20.1-1.7z" style="fill:url(#d)"/><radialGradient id="e" cx="44.1" cy="68.5" r="30.4" gradientTransform="rotate(94.3 -1.08 99.24)scale(-1 .833)" gradientUnits="userSpaceOnUse"><stop offset=".7" style="stop-color:#454140;stop-opacity:0"/><stop offset="1" style="stop-color:#454140"/></radialGradient><path d="M21.2 47c-4.2 10.4.2 21 4.4 25.5.6.6 3 3 3.6 5 0 0 9.5-13.4 12.4-21.2q.9-2.4 1.2-4.9.1-2-1-3.8c-.8-1.3-1.8-1-3.3-1-3 0-15.5-.7-16.5-.7z" style="fill:url(#e)"/><radialGradient id="f" cx="49.3" cy="45.5" r="23.4" gradientTransform="matrix(-1 0 0 .491 98.51 60.18)" gradientUnits="userSpaceOnUse"><stop offset=".7" style="stop-color:#454140;stop-opacity:0"/><stop offset="1" style="stop-color:#454140"/></radialGradient><path d="M63.9 96.2v-9.5l-28.6-2.2-2.6 3.2s6.1 8.5 22.2 8.5z" style="fill:url(#f)"/><radialGradient id="g" cx="26.2" cy="49" r="6.9" gradientTransform="rotate(205 4.75 51.85)scale(-1 .742)" gradientUnits="userSpaceOnUse"><stop offset=".7" style="stop-color:#454140"/><stop offset="1" style="stop-color:#454140;stop-opacity:0"/></radialGradient><path d="M32.7 83.5c4.3-6.5-5.2-8.9-5.2-8.9q2.7 3 1.4 5.6c-1.2 2.2-4.8 2.5-4.8 2.5s5 4.4 8.6.8" style="fill:url(#g)"/><path d="M64 90h-9v10c0 4.6 3.6 8.2 8.2 8.2h1.6c4.6 0 8.3-3.6 8.3-8.1V90z" style="fill:#edc391"/><path d="m52.7 106 3.8 18H72l3.4-18z" style="fill:#e0e0e0"/><path d="M53.8 114.5 64 106s-3 0-6.1-4.2c-1.9-2.4-3.1-6-3.1-6l-3.2.8zm20.5 0L64 106s3 0 6.1-4.2c1.9-2.4 3.1-6 3.1-6l3.2.8z" style="fill:#fff"/><path d="M51.7 96.6h-.4q-5.3.6-10.3 1.5l-4 6.4 7.2 4.3-4.8 6.1 9.3 9.1h9zm39.3 7.9-4-6.2q-5.1-1-10.7-1.7l-6 27.4h9l9.3-9-4.7-6.2z" style="fill:#9e9e9e"/><path d="M64.8 115.1h-1.4q-2.6-.1-3.2-2.5l-.6-2.2a3.3 3.3 0 0 1 3.2-4.1h2.5c2.1 0 3.7 2 3.2 4l-.5 2.3a3 3 0 0 1-3.2 2.5m-16 1.9v-12a2 2 0 0 1 3-1.7l10.6 6a2 2 0 0 1 0 3.4l-10.6 6.1a2 2 0 0 1-3-1.7m30-.1v-12a2 2 0 0 0-3-1.7l-10.6 6a2 2 0 0 0 0 3.4l10.6 6.1a2 2 0 0 0 3-1.7" style="fill:#212121"/><circle cx="63.8" cy="120" r="2" style="fill:#212121"/><path d="M91.3 50.4H36.7c-6 0-10.7 5.2-10.7 11.4s4.8 11.5 10.7 11.5h54.6c6 0 10.7-5.2 10.7-11.5s-4.8-11.4-10.7-11.4" style="fill:#edc391"/><path d="M64 11c-17.4 0-33.5 18.7-33.5 45.5C30.5 83 47 96.3 64 96.3S97.5 83 97.5 56.5C97.5 29.7 81.4 11 64 11" style="fill:#f9ddbd"/><path d="M54.8 49.8c-1-1.2-3-3-7.2-3s-6.3 1.8-7.3 3q-.5 1 0 1.6t2 .4c1.4-.2 2.5-1.2 5.3-1.2s4.5.9 5.3 1.2q1.4.3 2-.4.4-.6-.1-1.6m32.9 0c-1-1.2-3.1-3-7.3-3s-6.3 1.8-7.2 3q-.5 1 0 1.6t1.9.4c1.5-.2 2.5-1.2 5.3-1.2s4.5.9 5.4 1.2q1.3.3 1.9-.4t0-1.6" style="fill:#454140"/><ellipse cx="47.6" cy="58.8" rx="4.9" ry="5.1" style="fill:#312d2d"/><ellipse cx="80.4" cy="58.8" rx="4.9" ry="5.1" style="fill:#312d2d"/><path d="M72.4 76.1a26 26 0 0 1-16.8 0c-1.8-1-3.7.6-3 2.3s6.5 5.4 11.4 5.4 10.6-3.8 11.3-5.4-1-3.4-2.9-2.3" style="fill:#444"/><path d="M67.9 68H60q-1 .5-.6 1.7c.3.7 1.7 2.7 4.5 2.7s4.3-2 4.6-2.7q.3-1.2-.7-1.6" style="fill:#dba689"/><path d="M103.9 25.5c-2.5-3.7-8-8.7-12.8-9-.8-4.7-5.9-8.7-10.8-10.3a31 31 0 0 0-26.4 3c-1 .6-7.2 4-11.5 1.6C39.6 9.2 39.7 5 39.7 5S31.2 8.3 34 17.3a10 10 0 0 0-8.8 5.5c-2.4 4.9-1.6 9-.9 11A11 11 0 0 0 21 46.4c1.6 4.4 8.2 6.5 8.2 6.5-.5 8 1 12.9 1.8 14.9q.3.5.7 0c1-4 4.4-17.8 4-20.3 0 0 11.4-2.2 22.2-10.2a32 32 0 0 1 7.1-4c13.6-5.4 16.5 3.8 16.5 3.8s9.4-1.8 12.2 11.3c1.1 4.9 1.8 12.8 2.4 18.2 0 .4.6.5.8.2.9-2.2 2.8-6.5 3.3-11 .1-1.5 4.3-3.6 6-10.2 2.5-9-.4-17.5-2.2-20.1" style="fill:#312d2d"/><radialGradient id="h" cx="81.8" cy="84.6" r="35.6" gradientTransform="rotate(72 8.88 -9.67)scale(1 -.742)" gradientUnits="userSpaceOnUse"><stop offset=".7" style="stop-color:#454140;stop-opacity:0"/><stop offset="1" style="stop-color:#454140"/></radialGradient><path d="M100 55.9c.2-1.6 4.4-3.6 6.2-10.3l.5-2.1a28 28 0 0 0-2.8-18 22 22 0 0 0-11.7-8.8l-1.2-.1s.4 2.1-.5 3.8c-1.1 2.2-3.4 2.8-3.4 2.8 12 12 11.1 22 13 32.7" style="fill:url(#h)"/><radialGradient id="i" cx="47.1" cy="123.4" r="9.3" gradientTransform="rotate(208.2 -17.8 63.63)scale(-1 1.186)" gradientUnits="userSpaceOnUse"><stop offset=".6" style="stop-color:#454140"/><stop offset="1" style="stop-color:#454140;stop-opacity:0"/></radialGradient><path d="m56.8 7.8-3 1.5c-.9.5-7.1 4-11.4 1.5-2.7-1.6-2.7-5.6-2.7-5.8-1.2 1.6-5 12.8 6 13.6 4.6.3 7.5-3.8 9.2-7.3z" style="fill:url(#i)"/><radialGradient id="j" cx="159.5" cy="62.8" r="28.7" gradientTransform="matrix(-.938 -.394 -.218 .528 231.28 51.23)" gradientUnits="userSpaceOnUse"><stop offset=".7" style="stop-color:#454140;stop-opacity:0"/><stop offset="1" style="stop-color:#454140"/></radialGradient><path d="M79 5.8c7.3 2 10.9 5.8 12 10.7.4 1.5.8 15.1-25.2-.4-9.7-5.7-7-9.3-5.9-9.7a31 31 0 0 1 19-.6" style="fill:url(#j)"/><radialGradient id="k" cx="43.3" cy="114.9" r="8.6" gradientTransform="matrix(1 0 0 -1.223 0 153.66)" gradientUnits="userSpaceOnUse"><stop offset=".7" style="stop-color:#454140;stop-opacity:0"/><stop offset="1" style="stop-color:#454140"/></radialGradient><path d="M39.7 5h-.1c-1 .5-8.3 3.9-5.5 12.3l7.8 1.3c-7-7-2.2-13.6-2.2-13.6" style="fill:url(#k)"/><radialGradient id="l" cx="42.2" cy="99.8" r="16.1" gradientTransform="rotate(15 247.4 381.3)scale(-1 .936)" gradientUnits="userSpaceOnUse"><stop offset=".7" style="stop-color:#454140;stop-opacity:0"/><stop offset="1" style="stop-color:#454140"/></radialGradient><path d="m38.9 18.1-4.8-.8-1.2.1a10 10 0 0 0-7.6 5.4 14 14 0 0 0-1.3 9.4l.4 1.6s2.4-2.3 8-2.4z" style="fill:url(#l)"/><radialGradient id="m" cx="38.3" cy="84.2" r="16.9" gradientTransform="rotate(7.8 -1150.6 -37.4)scale(1 -1.405)" gradientUnits="userSpaceOnUse"><stop offset=".6" style="stop-color:#454140;stop-opacity:0"/><stop offset="1" style="stop-color:#454140"/></radialGradient><path d="M24.2 34A11 11 0 0 0 21 46.6c1.8 4.4 8 6.3 8 6.3s1.3.4 2 .4l1.5-22c-3 0-6 1-7.9 2.3z" style="fill:url(#m)"/></svg>