<svg width="16" height="16" viewBox="0 0 128 128"><path fill="currentColor" d="M-153-651.8h67.1v87.9H-153z" opacity=".2"/><path fill="currentColor" d="M124 35.2a49 49 0 0 1-34.5 6.3 90 90 0 0 1-13-2.7l-4.2-1.1-4.1-1.2-4.2-1.3-4.2-1.2-4.1-1.3A201 201 0 0 0 38.5 29a66 66 0 0 0-18.8.2 48 48 0 0 0-15.7 6V20.8a49 49 0 0 1 34.5-6.3 79 79 0 0 1 13 2.7l4.2 1.1 4.1 1.3c2 .7 2.8.8 4.2 1.2l4.2 1.3 4.1 1.2A201 201 0 0 0 89.5 27a66 66 0 0 0 18.8-.2 48 48 0 0 0 15.7-6v14.3m0 14.5a49 49 0 0 1-34.5 6.3 90 90 0 0 1-13-2.7l-4.2-1.1-4.1-1.2-4.2-1.3-4.2-1.2-4.1-1.3a201 201 0 0 0-17.2-3.8 66 66 0 0 0-18.8.2A48 48 0 0 0 4 49.6V35.2A49 49 0 0 1 38.5 29a79 79 0 0 1 13 2.7l8.3 2.4 4.2 1.2 4.2 1.3 4.1 1.2a201 201 0 0 0 17.2 3.8 66 66 0 0 0 18.8-.2 48 48 0 0 0 15.7-6v14.3m0 14.3a49 49 0 0 1-34.5 6.3 90 90 0 0 1-13-2.7l-4.2-1.1-12.5-3.7-4.1-1.3a201 201 0 0 0-17.2-3.8 66 66 0 0 0-18.8.2A48 48 0 0 0 4 64V49.6a49 49 0 0 1 34.5-6.3 90 90 0 0 1 13 2.7l8.3 2.4 4.2 1.2 4.2 1.3 4.1 1.2a201 201 0 0 0 17.2 3.8 66 66 0 0 0 18.8-.2 48 48 0 0 0 15.7-6zm0 14.4a49 49 0 0 1-34.5 6.3 90 90 0 0 1-13-2.7l-4.2-1-4.1-1.3-4.2-1.2-4.2-1.2-4.1-1.3a201 201 0 0 0-17.2-3.8 66 66 0 0 0-18.8.2 48 48 0 0 0-15.7 6V64a49 49 0 0 1 34.5-6.3 90 90 0 0 1 13 2.7l8.3 2.4L64 64l4.2 1.3 4.1 1.2a201 201 0 0 0 17.2 3.8 66 66 0 0 0 18.8-.2 48 48 0 0 0 15.7-6zm0 14.4a49 49 0 0 1-34.5 6.3 90 90 0 0 1-13-2.7L68.2 94 64 92.9l-4.2-1.2-4.1-1.3a201 201 0 0 0-17.2-3.8 66 66 0 0 0-18.8.2 49 49 0 0 0-15.7 6V78.4a49 49 0 0 1 34.5-6.3 90 90 0 0 1 13 2.7l8.3 2.4 4.2 1.2 4.2 1.3 4.1 1.2a201 201 0 0 0 17.2 3.8 66 66 0 0 0 18.8-.2 48 48 0 0 0 15.7-6zm0 14.4a49 49 0 0 1-34.5 6.3 90 90 0 0 1-13-2.7l-8.3-2.3-4.2-1.3-4.2-1.2-4.1-1.3a201 201 0 0 0-17.2-3.8 66 66 0 0 0-18.8.2A48 48 0 0 0 4 107.2V92.8a49 49 0 0 1 34.5-6.3 79 79 0 0 1 13 2.7l8.3 2.4 4.2 1.2 4.2 1.3 4.1 1.2A201 201 0 0 0 89.5 99a66 66 0 0 0 18.8-.2 49 49 0 0 0 15.7-6v14.3"/><path fill="currentColor" d="M120 27v78.4a47 47 0 0 1-25.5 4.6 77 77 0 0 1-17.8-3.2l-8.5-2.4-4.2-1.2-4.2-1.3-4.2-1.2-13-3.2a82 82 0 0 0-13.8-1.3A51 51 0 0 0 8 101V22.7A47 47 0 0 1 33.5 18a77 77 0 0 1 17.8 3.2l8.5 2.4 4.2 1.2 4.2 1.3a293 293 0 0 0 17.2 4.4 82 82 0 0 0 13.9 1.3A51 51 0 0 0 120 27m4-6.2a49 49 0 0 1-34.5 6.3 90 90 0 0 1-13-2.7l-4.2-1.1-4.1-1.3-4.2-1.2-4.2-1.3-4.1-1.2a201 201 0 0 0-17.2-3.8 66 66 0 0 0-18.8.2A48 48 0 0 0 4 20.8v86.4a49 49 0 0 1 34.5-6.4 90 90 0 0 1 13 2.7 290 290 0 0 1 16.7 5l4.1 1.1a201 201 0 0 0 17.2 3.9 66 66 0 0 0 18.8-.3 48 48 0 0 0 15.7-6z" opacity=".2"/><path fill="currentColor" d="M124 107.2a49 49 0 0 1-34.5 6.3 90 90 0 0 1-13-2.7l-8.3-2.3-4.2-1.3-4.2-1.2-4.1-1.3a201 201 0 0 0-17.2-3.8 66 66 0 0 0-18.8.2A48 48 0 0 0 4 107.2V20.8a49 49 0 0 1 34.5-6.3 79 79 0 0 1 13 2.7l4.2 1.1 12.5 3.8 4.1 1.2A201 201 0 0 0 89.5 27a66 66 0 0 0 18.8-.2 48 48 0 0 0 15.7-6.1z" opacity=".3"/></svg>