<svg xml:space="preserve" width="16" height="16" viewBox="0 0 128 128"><path d="M120.9 98.3c-1-1.5-.2-3.1 1.4-5.2a17 17 0 0 0 1-17.5l-.7-1.2h-1.2A2170 2170 0 0 0 67.8 81l-1.6 1.5c-2 7.5 2 14 5.2 16.8 2 1.6 3.3 3 2.7 4.6s-3 2.1-3 2.1.7 1.4 2.2 2a8 8 0 0 0 3.9.6s4.8 5.1 15.6 3.8l6-.7 6-.7c10.8-1.4 14.2-7.5 14.2-7.5a8 8 0 0 0 3.7-1.4c1.2-1 1.6-2.6 1.6-2.6s-2.4.1-3.4-1.2" style="fill:#543930"/><radialGradient id="a" cx="47.6" cy="33.7" r="16.1" gradientTransform="matrix(.975 -.119 -.059 -.474 63 123.07)" gradientUnits="userSpaceOnUse"><stop offset=".7" style="stop-color:#6d4c41;stop-opacity:0"/><stop offset="1" style="stop-color:#6d4c41"/></radialGradient><path d="m98.8 111.7-.8-6.3 19-3.8 2 1.9s-3.4 6.1-14.2 7.5z" style="fill:url(#a)"/><radialGradient id="b" cx="31.8" cy="31.3" r="4.8" gradientTransform="matrix(-.833 .517 .387 .612 136.95 61.67)" gradientUnits="userSpaceOnUse"><stop offset=".7" style="stop-color:#6d4c41"/><stop offset="1" style="stop-color:#6d4c41;stop-opacity:0"/></radialGradient><path d="M118.6 100.8c-3.4-4 2.8-6.4 2.8-6.4q-1.6 2.3-.5 3.8c1 1.4 3.4 1.3 3.4 1.3s-3 3.3-5.7 1.3" style="fill:url(#b)"/><radialGradient id="c" cx="44.1" cy="17.9" r="20.9" gradientTransform="matrix(-.192 -.954 -.803 .159 131.82 124.94)" gradientUnits="userSpaceOnUse"><stop offset=".7" style="stop-color:#6d4c41;stop-opacity:0"/><stop offset="1" style="stop-color:#6d4c41"/></radialGradient><path d="M123.3 75.6a17 17 0 0 1-.8 17.3c-.4.4-1.8 2.2-2 3.5 0 0-7.5-8-10-13q-.9-1.4-1.3-3.2-.1-1.3.3-2.6C110 76.7 123 75 123 75z" style="fill:url(#c)"/><radialGradient id="d" cx="107.1" cy="17.9" r="20.9" gradientTransform="rotate(-92.7 128.79 62.06)scale(.973 .819)" gradientUnits="userSpaceOnUse"><stop offset=".7" style="stop-color:#6d4c41;stop-opacity:0"/><stop offset="1" style="stop-color:#6d4c41"/></radialGradient><path d="M66.2 82.5a17 17 0 0 0 5 16.6c.5.4 2.3 1.8 2.9 3 0 0 5.3-9.6 6.5-15q.5-1.8.4-3.4 0-1.3-.9-2.5c-.7-.8-1.4-.5-2.4-.3l-11 .8z" style="fill:url(#d)"/><radialGradient id="e" cx="110.6" cy="33.7" r="16.1" gradientTransform="rotate(173 95.65 59.33)scale(.983 .478)" gradientUnits="userSpaceOnUse"><stop offset=".7" style="stop-color:#6d4c41;stop-opacity:0"/><stop offset="1" style="stop-color:#6d4c41"/></radialGradient><path d="m98.8 111.7-.7-6.3-19.4.8-1.5 2.4s4.8 5.1 15.6 3.8z" style="fill:url(#e)"/><radialGradient id="f" cx="94.7" cy="31.3" r="4.8" gradientTransform="matrix(.934 .302 -.226 .686 -9.24 53.28)" gradientUnits="userSpaceOnUse"><stop offset=".7" style="stop-color:#6d4c41"/><stop offset="1" style="stop-color:#6d4c41;stop-opacity:0"/></radialGradient><path d="M77 105.8c2.3-4.6-4.3-5.5-4.3-5.5q2.1 1.9 1.4 3.6c-.6 1.6-3 2.1-3 2.1s3.7 2.5 5.8-.2" style="fill:url(#f)"/><linearGradient id="g" x1="98.2" x2="98.2" y1="123.5" y2="110.9" gradientUnits="userSpaceOnUse"><stop offset="0" style="stop-color:#ed6d23"/><stop offset="1" style="stop-color:#f78c1f"/></linearGradient><path d="M102 111.1h-7.5c-8.7-.6-21.6 3.3-24.5 12.9h56.5c-3-9.6-15.8-13.5-24.5-12.9" style="fill:url(#g)"/><path d="M98 117.8c-3.8 0-6.8-3-6.8-6.8v-4.5h13.6v4.5c0 3.8-3 6.8-6.8 6.8m16.2-39.3-38.3 4.7c-4.1.5-7 4.5-6.5 8.9s4.3 7.6 8.5 7l38.3-4.6c4-.6 7-4.6 6.5-9s-4.4-7.5-8.5-7" style="fill:#e59600"/><path d="M91.7 53.2c-12.2 1.5-22 16-19.6 34.7s15 26.5 26.9 25c11.9-1.4 22.3-12 20-30.8-2.3-18.7-15.2-30.3-27.3-28.9" style="fill:#ffca28"/><path d="M88.5 81.2c-.8-.8-2.4-1.9-5.4-1.5s-4.3 1.8-4.8 2.7q-.3.7 0 1.1.5.4 1.5.1c.5-.2 1.7-1 3.6-1.3 2-.2 3.3.3 4 .4q.9 0 1.2-.4a1 1 0 0 0-.1-1.1m23.2-2.9c-.8-.8-2.4-1.8-5.4-1.5s-4.3 1.8-4.8 2.8q-.3.7.1 1 .4.5 1.4.2.8-.7 3.7-1.3c2-.2 3.2.2 3.8.4q1 0 1.4-.5a1 1 0 0 0-.2-1" style="fill:#6d4c41"/><ellipse cx="84.2" cy="88.1" rx="3.5" ry="3.6" style="fill:#404040" transform="rotate(-7 84.14 88.12)"/><ellipse cx="107.4" cy="85.3" rx="3.5" ry="3.6" style="fill:#404040" transform="rotate(-7 107.35 85.27)"/><path d="M103.2 98.2a18 18 0 0 1-11.9 1.5c-1.3-.6-2.5.7-1.8 1.8s5 3.3 8.5 2.9 7-3.6 7.5-4.8c.4-1.3-1-2.3-2.3-1.4" style="fill:#795548"/><path d="m99.3 93-.2-.1-5 .6h-.3q-.7.5-.3 1.3c.3.5 1.4 1.7 3.5 1.5 2-.2 2.8-1.8 3-2.3q0-.9-.7-1" style="fill:#e59600"/><path d="M120.3 59.6c-2-2.4-6.2-5.4-9.5-5.2-1-3.2-4.8-5.6-8.2-6.2-9.4-1.8-15 2.2-17.9 4.3-.6.5-4.5 3.4-7.7 2-2-.8-2.3-3.7-2.3-3.7s-5.6 3-2.8 9c-2 .4-4.5 1.6-5.6 4.6a10 10 0 0 0 .4 7.8 8 8 0 0 0-1.4 9c1.5 3 6.1 3.9 6.1 3.9a30 30 0 0 0 2.2 10.4q.4.3.5-.1c.4-2.9 1.8-13 1.4-14.6 0 0 7.5-2.5 14.3-9q2-2 4.5-3.4c8.8-5 11.5 1.2 11.5 1.2s6.3-2 9.4 6.9c1.1 3.3 2.9 8.5 3.7 12.3q.3.4.5 0c.5-1.6.8-4.6.8-7.7 0-1 2.6-2.9 3.3-7.7 1-6.4-1.8-12.1-3.2-13.8" style="fill:#543930"/><radialGradient id="h" cx="130" cy="10.4" r="25.1" gradientTransform="matrix(.412 .907 -.658 .313 59.97 -47.15)" gradientUnits="userSpaceOnUse"><stop offset=".7" style="stop-color:#6d4c41;stop-opacity:0"/><stop offset="1" style="stop-color:#6d4c41"/></radialGradient><path d="M120.2 81.1c0-1 2.6-2.9 3.3-7.7l.2-1.5c.3-5.8-2.1-10.8-3.4-12.3-1.9-2.2-5.5-5-8.8-5.2h-.8s.4 1.5 0 2.8c-.6 1.6-2.1 2.2-2.1 2.2 9.2 7.3 9.4 14.4 11.6 21.7" style="fill:url(#h)"/><radialGradient id="i" cx="105.6" cy="-17" r="6.6" gradientTransform="matrix(.912 .362 -.42 1.105 -23.66 30.41)" gradientUnits="userSpaceOnUse"><stop offset=".6" style="stop-color:#6d4c41"/><stop offset="1" style="stop-color:#6d4c41;stop-opacity:0"/></radialGradient><path d="m86.6 51.2-1.9 1.3c-.6.5-4.5 3.4-7.7 2-2-.8-2.3-3.6-2.3-3.7-.7 1.2-2.3 9.4 5.2 9 3.2-.2 4.8-3.3 5.7-6z" style="fill:url(#i)"/><radialGradient id="j" cx="109.3" cy="29.1" r="20.2" gradientTransform="matrix(-.958 -.277 .149 -.551 195.74 106.23)" gradientUnits="userSpaceOnUse"><stop offset=".7" style="stop-color:#6d4c41;stop-opacity:0"/><stop offset="1" style="stop-color:#6d4c41"/></radialGradient><path d="M101.6 48c5.2.8 8 3 9.2 6.4.3 1 1.7 10.5-17.3 1.9-7.1-3.2-5.6-6-4.9-6.3a21 21 0 0 1 13-2" style="fill:url(#j)"/><radialGradient id="k" cx="102.9" cy="-11" r="6" gradientTransform="matrix(.97 -.122 .146 1.214 -20.46 81.96)" gradientUnits="userSpaceOnUse"><stop offset=".7" style="stop-color:#6d4c41;stop-opacity:0"/><stop offset="1" style="stop-color:#6d4c41"/></radialGradient><path d="M74.7 50.8c-.7.4-5.4 3.4-2.8 9l5.4.3c-5.3-4.3-2.6-9.3-2.6-9.3" style="fill:url(#k)"/><radialGradient id="l" cx="102.1" cy="-.3" r="11.3" gradientTransform="matrix(-.969 -.14 .128 -.927 177.25 80.82)" gradientUnits="userSpaceOnUse"><stop offset=".7" style="stop-color:#6d4c41;stop-opacity:0"/><stop offset="1" style="stop-color:#6d4c41"/></radialGradient><path d="m75.2 60-3.3-.1-.8.1a7 7 0 0 0-4.8 4.4 10 10 0 0 0 .4 7.8s1.4-1.8 5.3-2.4z" style="fill:url(#l)"/><radialGradient id="m" cx="99.4" cy="10.6" r="11.9" gradientTransform="matrix(.978 .015 -.02 1.405 -19.98 61.6)" gradientUnits="userSpaceOnUse"><stop offset=".6" style="stop-color:#6d4c41;stop-opacity:0"/><stop offset="1" style="stop-color:#6d4c41"/></radialGradient><path d="M66.5 72.3a8 8 0 0 0-1.1 9.1c1.6 3 6 3.7 6 3.7s1 .2 1.4.1L72 69.8q-3.3.5-5.2 2.2z" style="fill:url(#m)"/><path d="M52.8 104c-.7-1.6.6-3 2.6-4.7 3.3-2.6 7.3-9.2 5.2-16.7l-.4-1.3L59 81a2157 2157 0 0 0-53.5-6.7l-2 1.1a17 17 0 0 0 1 17.5C6.2 95.1 7 96.8 6 98.2s-3.4 1.3-3.4 1.3.3 1.6 1.6 2.5a8 8 0 0 0 3.7 1.5s3.4 6.1 14.2 7.5l6 .7 6 .7c10.8 1.4 15.6-3.8 15.6-3.8a8 8 0 0 0 4-.4c1.4-.7 2.1-2.1 2.1-2.1s-2.4-.5-3-2" style="fill:#543930"/><radialGradient id="n" cx="151.4" cy="171.2" r="16.1" gradientTransform="matrix(.975 .12 .058 -.475 -118.52 166.78)" gradientUnits="userSpaceOnUse"><stop offset=".7" style="stop-color:#6d4c41;stop-opacity:0"/><stop offset="1" style="stop-color:#6d4c41"/></radialGradient><path d="m28.1 111.7.8-6.3 19.3.9 1.5 2.3s-4.8 5.2-15.6 3.8z" style="fill:url(#n)"/><radialGradient id="o" cx="135.5" cy="168.8" r="4.8" gradientTransform="matrix(-.933 .3 .228 .687 142.76 -53.2)" gradientUnits="userSpaceOnUse"><stop offset=".7" style="stop-color:#6d4c41"/><stop offset="1" style="stop-color:#6d4c41;stop-opacity:0"/></radialGradient><path d="M50 105.9c-2.4-4.7 4.2-5.5 4.2-5.5q-2.1 1.8-1.4 3.6c.6 1.6 3 2 3 2s-3.6 2.6-5.8-.1" style="fill:url(#o)"/><radialGradient id="p" cx="147.9" cy="155.3" r="20.9" gradientTransform="matrix(.044 -.973 -.818 -.04 164.73 239.04)" gradientUnits="userSpaceOnUse"><stop offset=".7" style="stop-color:#6d4c41;stop-opacity:0"/><stop offset="1" style="stop-color:#6d4c41"/></radialGradient><path d="M60.6 82.6c2 7.2-1.8 14-5 16.6-.4.3-2.2 1.7-2.8 3 0 0-5.3-9.7-6.6-15.1q-.4-1.6-.4-3.4.1-1.3 1-2.4c.6-.8 13.6.5 13.6.5z" style="fill:url(#p)"/><radialGradient id="q" cx="3.3" cy="155.3" r="20.9" gradientTransform="matrix(.19 -.955 .803 .16 -107.48 63.86)" gradientUnits="userSpaceOnUse"><stop offset=".7" style="stop-color:#6d4c41;stop-opacity:0"/><stop offset="1" style="stop-color:#6d4c41"/></radialGradient><path d="M3.5 75.5C0 82 2 89.5 4.5 92.8c.3.5 1.7 2.3 2 3.6 0 0 7.4-8 10-13q.8-1.4 1.1-3.2.2-1.3-.3-2.6c-.5-1-1.2-.8-2.2-.9-2-.2-10.3-1.8-11-1.8z" style="fill:url(#q)"/><radialGradient id="r" cx="6.8" cy="171.2" r="16.1" gradientTransform="rotate(187 13.76 91.24)scale(.983 .478)" gradientUnits="userSpaceOnUse"><stop offset=".7" style="stop-color:#6d4c41;stop-opacity:0"/><stop offset="1" style="stop-color:#6d4c41"/></radialGradient><path d="m28.1 111.7.8-6.3-19-3.8-2 1.9s3.5 6.1 14.2 7.5z" style="fill:url(#r)"/><radialGradient id="s" cx="-9.1" cy="168.8" r="4.8" gradientTransform="matrix(.833 .519 -.386 .611 76.9 -1.26)" gradientUnits="userSpaceOnUse"><stop offset=".7" style="stop-color:#6d4c41"/><stop offset="1" style="stop-color:#6d4c41;stop-opacity:0"/></radialGradient><path d="M8.3 100.7c3.4-4-2.8-6.3-2.8-6.3q1.6 2.2.5 3.8c-1 1.4-3.4 1.3-3.4 1.3s3 3.3 5.7 1.2" style="fill:url(#s)"/><path d="m51 83.2-38.2-4.7c-4.1-.5-8 2.7-8.5 7s2.4 8.5 6.5 9l38.3 4.7c4.1.5 8-2.7 8.5-7.1s-2.4-8.4-6.5-9" style="fill:#e59600"/><linearGradient id="t" x1="1211.8" x2="1211.8" y1="123.5" y2="110.9" gradientTransform="matrix(-1 0 0 1 1241.64 0)" gradientUnits="userSpaceOnUse"><stop offset="0" style="stop-color:#4d7d23"/><stop offset="1" style="stop-color:#67b730"/></linearGradient><path d="M26 111.1h7.6c8.7-.6 21.6 3.3 24.5 12.9H1.6c3-9.6 15.8-13.5 24.5-12.9" style="fill:url(#t)"/><path d="M29.6 117.8c-3.8 0-6.8-3-6.8-6.8v-4.5h13.6v4.5c0 3.8-3 6.8-6.8 6.8" style="fill:#e59600"/><path d="M35.3 53.3C23.1 51.8 10.3 63.4 8 82.2c-2.2 18.6 8.3 29.3 20 30.8s24.7-6.4 27-25c2.3-18.8-7.4-33.2-19.6-34.7" style="fill:#ffca28"/><path d="M25.5 79.6c-.6-1-2-2.4-4.9-2.8s-4.6.7-5.3 1.5q-.6.6-.2 1.1t1.3.5q1-.5 4-.4c1.9.2 3 1 3.6 1.3q1 .3 1.4-.1t0-1.1m23.3 2.8c-.5-1-1.9-2.4-4.8-2.7s-4.6.7-5.4 1.5q-.4.6-.2 1t1.4.5c.6-.1 1.8-.6 3.8-.4q2.9.7 3.7 1.3 1 .4 1.4 0t.1-1.2" style="fill:#6d4c41"/><ellipse cx="19.6" cy="85.3" rx="3.6" ry="3.5" style="fill:#404040" transform="rotate(-83 19.6 85.32)"/><ellipse cx="42.8" cy="88.2" rx="3.6" ry="3.5" style="fill:#404040" transform="rotate(-83 42.82 88.17)"/><path d="M35.7 99.7c-2.5 1-9.8.2-12-1.5-1.1-.9-2.6.1-2.2 1.4s4 4.4 7.6 4.8 7.7-1.8 8.4-2.8c.7-1.2-.5-2.5-1.9-1.9" style="fill:#795548"/><path d="M33.1 93.6H33l-5-.7h-.2q-.8.3-.6 1.1c.1.6 1 2 3 2.3s3.1-1 3.4-1.5q.3-.8-.4-1.2" style="fill:#e59600"/><path d="M61.5 66.3c-1.3-2.7-4.6-6.6-8-7.3 0-3.3-3.2-6.5-6.4-8-8.7-4-15-1.5-18.3 0-.7.2-5.3 2-8 0-1.8-1.3-1.4-4.2-1.4-4.2s-6 1.6-4.9 8.1c-2-.2-4.7.4-6.5 3.1a10 10 0 0 0-1.5 7.6A8 8 0 0 0 3 74c.7 3.2 5 5.2 5 5.2a28 28 0 0 0-.4 10.6q.2.5.5 0c1-2.7 4.9-12 4.9-13.8 0 0 8-.6 16-5.3q2.5-1.5 5.2-2.2c9.8-2.7 11 4 11 4s6.5-.5 7.3 8.9c.3 3.5.8 9 .7 12.9q.2.3.5.1c.8-1.4 1.9-4.3 2.6-7.3.2-1 3.3-2.2 5-6.7a20 20 0 0 0 .2-14.2" style="fill:#543930"/><radialGradient id="u" cx="26.3" cy="143.8" r="25.1" gradientTransform="matrix(.18 .98 -.714 .144 142.88 30.56)" gradientUnits="userSpaceOnUse"><stop offset=".7" style="stop-color:#6d4c41;stop-opacity:0"/><stop offset="1" style="stop-color:#6d4c41"/></radialGradient><path d="M56.2 87.2c.3-1 3.3-2.1 5.1-6.6L62 79c1.7-5.5.5-11-.4-12.8-1.2-2.5-4.1-6-7.2-7l-.8-.2s0 1.5-.7 2.6a4 4 0 0 1-2.5 1.6c7 9.4 5.6 16.3 6 24" style="fill:url(#u)"/><radialGradient id="v" cx="1.9" cy="116.5" r="6.6" gradientTransform="matrix(.797 .572 -.674 .971 101.63 -67.11)" gradientUnits="userSpaceOnUse"><stop offset=".6" style="stop-color:#6d4c41"/><stop offset="1" style="stop-color:#6d4c41;stop-opacity:0"/></radialGradient><path d="m30.9 50.1-2.1.8c-.7.3-5.3 2.2-8 .1-1.7-1.3-1.4-4-1.4-4.2-1 1-4.4 8.5 3 10 3.1.6 5.4-2 7-4.3.4-.9 1.3-2 1.5-2.4" style="fill:url(#v)"/><radialGradient id="w" cx="289.7" cy="68" r="20.2" gradientTransform="matrix(-.862 -.5 .278 -.499 268.18 239.53)" gradientUnits="userSpaceOnUse"><stop offset=".7" style="stop-color:#6d4c41;stop-opacity:0"/><stop offset="1" style="stop-color:#6d4c41"/></radialGradient><path d="M46.2 50.6c4.9 2 7 4.9 7.3 8.4.2 1-.8 10.6-17.2-2.3-6-4.8-4-7.1-3.1-7.3 3.1-.8 7.6-1 13 1.2" style="fill:url(#w)"/><radialGradient id="x" cx="-.8" cy="122.5" r="6" gradientTransform="matrix(.972 .117 -.152 1.213 40.64 -95.81)" gradientUnits="userSpaceOnUse"><stop offset=".7" style="stop-color:#6d4c41;stop-opacity:0"/><stop offset="1" style="stop-color:#6d4c41"/></radialGradient><path d="M19.4 46.8c-.7.2-6 2-4.9 8.1l5.3 1.5c-4.1-5.4-.3-9.6-.3-9.6" style="fill:url(#x)"/><radialGradient id="y" cx="-1.6" cy="133.1" r="11.3" gradientTransform="matrix(-.906 -.37 .349 -.868 -28.77 178.15)" gradientUnits="userSpaceOnUse"><stop offset=".7" style="stop-color:#6d4c41;stop-opacity:0"/><stop offset="1" style="stop-color:#6d4c41"/></radialGradient><path d="m17.8 55.9-3.3-1h-.8c-1.9 0-4.2.8-5.7 3.1a10 10 0 0 0-1.7 6.4l.2 1.2s1.8-1.4 5.7-1z" style="fill:url(#y)"/><radialGradient id="z" cx="-4.3" cy="144.1" r="11.9" gradientTransform="matrix(.946 .25 -.36 1.359 70.96 -120.92)" gradientUnits="userSpaceOnUse"><stop offset=".6" style="stop-color:#6d4c41;stop-opacity:0"/><stop offset="1" style="stop-color:#6d4c41"/></radialGradient><path d="M6.3 65.7A8 8 0 0 0 3 74.2c.9 3.3 5 5 5 5 0 .1.8.5 1.3.5l2.9-15.1a9 9 0 0 0-5.5.9z" style="fill:url(#z)"/><path d="M78.4 3.7C68 3.7 64 14.5 64 14.5S60.2 3.7 49.6 3.7c-8 0-17.1 6.4-13.7 20.7C39.2 38.8 64 56.7 64 56.7s24.7-18 28.1-32.3-5-20.7-13.7-20.7" style="fill:#ef5592"/><path d="M48 4.8c8.2 0 12.3 8.9 13.7 12.5.1.5.9.5 1 0l1.3-2.8A15 15 0 0 0 49.6 3.7c-3.4 0-6.9 1.1-9.6 3.5q3.8-2.4 8-2.4m30.4-1.1q-3.8.1-6.5 1.9 2-.8 4.2-.8c7.8 0 14.8 6 11.7 19.6C85 36 69.3 50.4 64.4 55.8c-.3.3-.4.9-.4.9s24.7-18 28.1-32.3S86.4 3.7 78.4 3.7" style="fill:#da2e75"/><path d="M41.4 11.4c1.8-2.3 5-4.2 7.8-2 1.4 1.1.8 3.5-.5 4.5-2 1.5-3.6 2.4-4.8 4.7q-1 2-1.3 4.4c-.1.6-1 .7-1.2.2-2-3.6-2.6-8.5 0-11.8M70.3 16q-1.4-.2-1.1-1.5.9-2.3 2.2-4.1c1.3-1.9 3.8-3 5.4-1.8s1.4 3.4.3 4.5c-2.5 2.4-5.6 3-6.8 3" style="fill:#f386ab"/></svg>