<svg xml:space="preserve" width="16" height="16" viewBox="0 0 128 128"><radialGradient id="a" cx="63.5" cy="38.5" r="70.7" gradientTransform="rotate(92 79.99 55.56)scale(1 1.889)" gradientUnits="userSpaceOnUse"><stop offset=".4" style="stop-color:#7f5950"/><stop offset=".5" style="stop-color:#745147"/><stop offset=".7" style="stop-color:#5b3f33"/></radialGradient><path d="M1.6 85c.3.3 6.2-3.1 11.7-1.2 2.9 1 5 5.5 5.6 5.6s5-7.3 12.4-6C40 85 40.5 94 41.3 94c.3.1 1.4-4.8 7.6-4.3 3.5.2 6.4 4.2 8.9 8.4s6.7 11 7.3 11c1 0 6.4-8.5 8-11.7 1.8-3.2 5.8-9.3 9.7-9.4s5.7 6 6.6 5.7c.7-.1 1-7.8 7.4-8.8 6.7-1 8.4 6.4 9.3 6.3.9 0 1.5-6.8 9.6-7 8 0 9.5 5.9 10.6 5.7 1.3-.1 1.2-23.1-7-35.4a42 42 0 0 0-17.5-14.4c-3.1-1.4-5.8-1.5-5.7-3.2s3.7-.3 4.5-2.6-4.5-4-7.1-1.8-1.1 6.2-1.1 6.2S91.8 50.3 88 56c-3 4.5-6.3 5.5-10 6.7a36 36 0 0 1-14.2 1c-4.6-.4-9-.4-12.8-1.9-4.3-1.6-8-6.5-9-9.2-1.6-4.2-1.5-7.2-1.5-10.8v-6.9s2.6-3.4 0-6-6-1.2-5.8 1 3 1 2.7 3c-.3 1.8-5.2 2.3-9.6 4.7a40 40 0 0 0-16.9 15A64 64 0 0 0 1.6 85" style="fill:url(#a)"/><path d="M54.6 57.5s1.6 2.3.9 3.7-2.4 9.1-2.8 16.2c-.5 8 3.4 11.7 3.4 11.7l-.7 5.4 3.7 5.7s4.1-7.8 5.4-7.8c1.3.1 6.8 8.3 6.8 8.3l3-5.2-1-7s3-4 3-11.3C76.4 70 74 62 74 61c-.1-1.1 1.5-3.2 1.5-3.2s3.4 1.3 6-1.6c3.1-3.8 3.4-13.3.6-18.8-2.2-4.1-4.2-6.2-5-6.3-.7-.2-3.7 4.4-5.1 8.1-1.4 3.8-2 7.2-2 7.2s-1.5-1-4.4-1.4c-2.2-.3-4 .2-4 .2s.2-4.2-.3-7.2-1.6-7.4-3-7.8-6.3 5.4-7.8 7.6c-1.9 2.7-6.8 10.1-1.3 16.7 2.6 3.2 5.4 3 5.4 3" style="fill:#885b50"/><path d="M64 91.3A12 12 0 0 0 72.6 81c.5-7.7-4-16.4-8.2-16.6-4.4-.1-8.7 10-8.2 16 .7 8.2 8 11 8 11" style="fill:#b68e74"/><path d="M72.3 47.7s.6-4 2.4-7.6c1-2 2-3.9 3.5-3.8s3.5 5 3.5 10.1-.6 7.4-2.8 8.6c-2 1.1-3.1.4-3.1.4s-.3-3.2-1.1-4.7c-.8-1.4-2.4-3-2.4-3M57.4 34.5c-1-.2-5.2 4.1-6.8 7.1-1.8 3.4-2.8 7.3-.3 10.6 1.5 2 4 1.3 4 1.3s.3-2.5 1.9-4.6c1.4-2 3-2.8 3-2.8s.5-11.2-1.8-11.6" style="fill:#ffd2ad"/><path d="M62.2 58.6s-2.5-.9-2.3.4.8 3.3 1.7 3.2.6-3.6.6-3.6m3.4-.2s0 3.5.8 4 2-3.7 1.8-4.4-2.6.4-2.6.4" style="fill:#fefefe"/><path d="M64 56.5c-1 0-1.3 2-2.6 1.2-1.1-.6.1-1.8-1-2-1.1 0-1.3 1-1 1.9.2 1 .5 1.9 2.3 2s2.3-.8 2.3-.8.8 1 2 1c2 0 2.4-1.7 2.7-2.2.5-.8-.6-2-1.4-.9q-1.2 1.6-2.2.7c-.3-.3-.5-.9-1.2-.9" style="fill:#020308"/><path d="M63.3 53.2q-1-.2-1.5 1.2t.2 1.9c.7.5 1.5-.6 1.7-1s.5-1.9-.4-2.1m2.7-.1q-1 0-1 1.7-.2 1.5.9 1.5c.7.2 1-1.1 1-1.7s-.2-1.5-1-1.5" style="fill:#b68e74"/><ellipse cx="71.2" cy="54.1" rx="2" ry="2.1" style="fill:#020204"/><ellipse cx="58.1" cy="53.5" rx="2" ry="2.1" style="fill:#020204"/></svg>