<svg xml:space="preserve" width="16" height="16" viewBox="0 0 128 128"><linearGradient id="a" x1="51.6" x2="99.5" y1="50.1" y2="32.9" gradientUnits="userSpaceOnUse"><stop offset="0" style="stop-color:#57bb8a"/><stop offset="1" style="stop-color:#87ceac"/></linearGradient><path d="M50.7 39.1A67 67 0 0 0 89 47.3q14.8-2.7 23.3-14.2c5.7-7.4 7-15.8 4.5-15.6-3.1.2-6.9 2.5-11.3 5.3a92 92 0 0 1-54.8 16.3" style="fill:url(#a)"/><path d="M7.3 64.5c-6.7 15.7-2 33.6 4.4 37s23.5-3 32.6-18.1c12.6-21.1 5.7-31.7-4.5-37s-24-1.7-32.5 18.1m47.4 31.9c4.8 16 19.5 26.7 26.5 25.2 7-1.6 16-17 13.3-34C91 63.5 79 59.8 68 62.3c-11 2.4-19.3 13.7-13.3 34" style="fill:#c0ca33"/><path d="M68 62.4c-8.3 1.9-15.1 8.8-15.3 20.8a16 16 0 0 1 12-5.4c6.4 0 12.5 3.4 17.1 7.8a42 42 0 0 1 11.6 19.3q2.3-8 1.1-17.4C91 63.6 79 60 68 62.4M39.8 46.5a19 19 0 0 0-15.8-.9h1.5c2.7 0 5.7.4 7.5 2.4 1 1.2 1.6 2.8 2.9 3.8q1 .7 2 1.1c4.3 2.2 6.6 7 7.5 11.8q1.3 8.7-.4 17.4c11.6-20.2 4.8-30.5-5.2-35.6" style="fill:#a3b523"/><path d="M90.9 58.9c-37.8-7.1-74-37.7-79.4-43.1S16.1.6 23.8 10.6c7.5 10 34.2 34.2 67 42.7z" style="fill:#87a194"/><path d="M67 71.2q1 .3 1.8-.9c1-1.7-.4-2.3-1-3.3a13 13 0 0 1-1.5-5.3q-.3-3.8 0-7.8.1-1.7-.2-3.2c-.7-1.5-4.2-5.2-4.7-3-2 9.7 1.6 20.1 5.3 23.3z" style="fill:#69937d"/><path d="M37 51.8q-1.1 0-1.5-1.2c-.4-1.7 1.3-1.8 2.3-2.4a12 12 0 0 0 3.7-3.8q1.8-3 3-6.3.4-1.5 1.5-2.5c1.2-1 4.8 0 4.4 2A23 23 0 0 1 37 51.7" style="fill:#87a194"/><linearGradient id="b" x1="124.5" x2="82" y1="72.6" y2="89.2" gradientTransform="rotate(57.7 107.04 69.67)" gradientUnits="userSpaceOnUse"><stop offset="0" style="stop-color:#0d904f"/><stop offset="1" style="stop-color:#097138"/></linearGradient><path d="M58.9 42.2s17.2 43 46.4 52.2c10 3.2 16.8 2.8 18.3-.9 2.6-6.5-6.8-20.8-13.6-27.5-16-15.8-51-23.8-51-23.8" style="fill:url(#b)"/><path d="M59 42.3c.5 1.4 17.6 43.1 46.3 52.1 8.2 2.7 14.3 2.8 17 .7A402 402 0 0 0 100.6 75 691 691 0 0 0 59 42.3" style="opacity:.37;fill:#212121"/></svg>