<svg xml:space="preserve" width="16" height="16" viewBox="0 0 128 128"><path d="m66.8 58.4-.5-32.2-.7-21.7c0-1.6-.3-3-1.2-3.1-.9 0-1.7.6-1.8 2.7L62 25.6s-2.7 0-2.8.4c0 .8-.6 17-1.2 23-.5 6.2-2.8 21.8-5.7 29.4a127 127 0 0 1-17.9 31.9c-5 7-7.8 9.5-7 10.2.4.4 10.4.2 10.4.2l8-11.1c2-3.1 4.6-5 7.8-4.6 2.2.4 4.1 2 4.6 5.5.6 4.7.8 12.5 1.3 13 .9.6 7 .6 7 .6zm-7 42.6c-1 .5-3.1-.9-5.4-1.1s-4 .6-5-.5.4-4 1.8-6.8c1.5-2.8 4.6-8 6.2-7.6s2.3 4.9 2.9 8.7c.3 2.2.5 6.8-.4 7.3m-2-18.4c-.5 0-2-3.9-1.6-4.3.5-.5 4.3 0 4.5.5s-2.4 3.9-2.9 3.8m1.1-7c-1.5 0-2.1-1-2-1.8q.5-2 2.4-1.6 1.8.5 1.7 1.9 0 1.5-2 1.6m-6.8 13.7 6.4 12.7 2.5-1.7-7.7-14.6s-.7 2.6-1.2 3.6m7.7-1.6L47.9 99.3l2 1.7L61 90.8z" style="fill:#ee3e23"/><path d="m64.3 28.4-5 .1-.3 4.2-.1 3.8h6z" style="fill:#e3e1df"/><path d="M62.3 16.7H66l-.3-9h-3.3z" style="fill:#c9c7ca"/><path d="M64.3 45.8h-6l-.2 4-.6 4.4 8 .1z" style="fill:#e3e1df"/><path d="M64.9 63H50.6c-.6 0-1.7.8-.4 2.7 1 1.4 3.7 4.8 4.3 5s10.6 0 10.6 0z" style="fill:#c9c7ca"/><path d="M101.6 118.7A203 203 0 0 1 82 90.3c-4.5-8.7-6-14-8.4-23.3-1.2-4.7-2.6-10-3.7-25-1-13.7-.4-16.2-1-16.2l-5-.2.3 33 .8 65.5a46 46 0 0 0 6.4-.4c.5-.5.5-10.4.8-14.2.3-4.2 4.9-7 9.5-2.8 5 4.8 10.2 14 10.8 14.4.8.6 8.7.1 9.7.1s.2-1.4-.7-2.5M69.4 72c1.2-.3 2.5.2 2.7 1.2s0 2-1.7 2.3q-2 .2-2.3-1.4-.1-1.7 1.3-2m-.8 6.8c.3-.7 3.8-1.3 4.3-.7s-.4 4.4-1.4 4.5-3-3.3-2.9-3.8m12 20.3c-.9 1-1.8.5-5.2 1.1-3.3.6-4.2 1.6-5.4 1.4s-1-3-.8-7.7c.3-4.7 1.4-8.6 3-9 2-.3 4.3 4.4 5.6 6.8s3.7 6.5 2.8 7.4m-4.1-12.9-7.8 16.2H72l6.5-14zm-7.2.7 13.4 13-3.4.5L68 90z" style="fill:#cd3001"/><path d="M64 28.4h5.3l.3 8H64zm.2 17.4h6l1 8.4h-7z" style="fill:#c9c7ca"/><path d="m64.4 63 12.8-.1q1.7.1 1.3 1.6c-.4.8-3.4 5.1-3.9 5.9 0 .2-10.1.2-10.1.2z" style="fill:#afb1b0"/></svg>