<svg xml:space="preserve" width="16" height="16" viewBox="0 0 128 128"><path d="M64 4a60 60 0 1 0 0 120A60 60 0 0 0 64 4m50 60c0 11.5-4 22.7-11.3 31.6L32.4 25.3A50 50 0 0 1 114 64M14 64c0-11.5 4-22.7 11.3-31.6l70.3 70.3A50 50 0 0 1 14 64" style="fill:#c33"/><circle cx="60.1" cy="63.1" r="56.1" style="fill:#f44336"/><path d="M95.6 102.7a50 50 0 0 1-70.3-70.3l7.1-7.1a50 50 0 0 1 70.3 70.3" style="fill:#fff"/><path d="M95.6 102.7a50 50 0 0 1-70.3-70.3l7.1-7.1a50 50 0 0 1 70.3 70.3" style="fill:#231f20"/><path d="M96.4 103.2A47.9 47.9 0 0 1 29 35.8l6.8-6.8a47.9 47.9 0 0 1 67.4 67.4" style="fill:#414042"/><path d="M101.3 63.1a18 18 0 0 0-12.8-5.8L86 48.4a2 2 0 0 0-1.8-1.4h-3.5q-.3 0-.3-.2t0-.4l1.5-3.3.3-.2q1-.2 1.7-.7l4.9-3.3h.1q1-1.1.4-2.6a2 2 0 0 0-2.2-1.4H73.4q-1.7 0-2.3 1.6-.4 1.6.8 2.7h.2l5.7 2.3q.2 0 .2.2v.3l-2.1 4.7q-.1.3-.4.2H57.9s-6.5-.3-6.5-5.6 9.3-5.6 9.4-5.6c1 0 2-.9 1.9-2 0-1-.8-1.9-1.8-1.9h-.1q-3.2.2-6.2 1.1c-5.7 2-6.9 5.6-6.9 8.3q0 3 1.8 5.1l-4.8 11.1q-.1.3-.4.2h-.1a16 16 0 0 0-6.9-.4 17.4 17.4 0 0 0 4.3 34.5 17.4 17.4 0 0 0 6.9-32.3.4.4 0 0 1-.2-.5l4.2-9.8q.1-.3.4-.3h.2l3.1 1.2q.2 0 .2.3l7.3 25.2.5.9.3.2.1.1.3.1h6.3a17.4 17.4 0 0 0 34.4-3.5q-.4-5.8-4.3-10.2M75.2 77.2l.3-.2h16.1a2 2 0 0 0 1.8-2.5l-3.7-12.8q-.1-.3.1-.4l.3-.2h.1A13.5 13.5 0 0 1 88.6 88h-.3c-6.3 0-11.8-4.4-13.2-10.6zM88.8 73l-.3.2H75.4l-.3-.1-.1-.4c.8-5.5 5-10 10.4-11.2h.1q.3 0 .4.3L89 72.7zm-4.6-15.2a17 17 0 0 0-13.1 15q0 .4-.4.4-.8 0-1.3-.7t-.1-1.4l8.9-20q.1-.2.4-.2h3.8q.3 0 .4.3l1.8 6.1v.3zm-10.4-6.4-7.6 17.1-.4.2q-.3 0-.4-.3l-5-17.1.1-.4.3-.2h12.5q.3 0 .3.2zM42.7 62l-5.3 12.4q-.5 1.6 1 2.5l.8.1a2 2 0 0 0 1.8-1.2l5.3-12.4q.1-.3.4-.3t.2.1a13.5 13.5 0 0 1-7.2 24.9H39c-7-.4-12.5-6-12.9-12.9a13.6 13.6 0 0 1 16.3-13.9l.3.2z" style="fill:#fafafa"/><path d="M23.4 35.6 95 102.1l2-1.9-66.4-66.8" style="opacity:.8;fill:#231f20"/><path d="M103.9 96.8 25.3 18.9 18.2 26l78.6 77.9" style="fill:#f44336"/><path d="M45 10.9c1.7-.4 4.2-1.6 5.9-1.1 1 .3 1.8 1.4 1.5 2.5q-.6 1.3-2 1.5-5.9 1.5-11.3 4.1A52 52 0 0 0 21 33.7c-1.9 2.7-3.4 5.5-5.8 7.8q-.3.3-.8.4l-.5-.1q-1.6-.6-1.2-2.3.3-1.5 1-2.9 1.5-2.7 3.3-5.1a46 46 0 0 1 6.6-8A57 57 0 0 1 45 10.9" style="fill:#ff8a80"/><path d="m32.4 25.3-2 2 71.1 71.1 1.8-2.2z" style="fill:#c33"/></svg>