<svg xml:space="preserve" width="16" height="16" viewBox="0 0 128 128"><path d="M37 27.7V26c0-3.5-2-4.2-4.3-3.8l-19.1 3.4a5 5 0 0 0-4 5V35c0 1.6-1.1 3-2.7 3.2l-.3.1a3 3 0 0 0-2.4 2.9v74.3c0 1.5.6 1.3 1 1.2l94-22.2a3 3 0 0 0 2.3-2.8V25.1c0-1.8-1.6-3.1-3.3-2.8L42 32c-2.5.4-4.9-.5-4.9-4.3" style="fill:#f3ab47"/><path d="m103.4 91.4 20-43.2q.5-1.2 0-2.5-.6-1.5-3-1.2l-56.2 9.6c-2.6.5-3.5 1-4.7 5.3s-2 9.4-5.7 9.8l-21 3.5c-3.9.8-5.5 5-5.5 5L5 116.6l94.5-22.2c1.4-.2 2.9-1.5 3.8-3" style="fill:#ffe36c"/><path d="m120.5 45.6-54.9 9c-3.6.8-4.4 1.6-5.5 5.5-1.2 4.4-2.5 9.8-6.3 10.2l-21 3.5" style="fill:none;stroke:#fff9c4;stroke-width:2;stroke-linecap:round;stroke-miterlimit:10"/></svg>