<svg xml:space="preserve" width="16" height="16" viewBox="0 0 128 128"><path d="M64.6 2.9c-41 0-40.7 37.9-40.7 38.5 0 24.6 1.9 59.2 11.7 72.9C39.5 119.7 47 120 47 120h34s7.5-.3 11.4-5.7c9.8-13.6 11.7-48.3 11.7-72.9 0-.6 1.5-38.5-39.5-38.5" style="fill:#d6d6d6"/><radialGradient id="a" cx="64" cy="58.4" r="47.5" gradientTransform="matrix(1 0 0 1.19 0 -11.11)" gradientUnits="userSpaceOnUse"><stop offset=".8" style="stop-color:#fff;stop-opacity:0"/><stop offset="1" style="stop-color:#fff;stop-opacity:.5"/></radialGradient><path d="M64.6 2.9c-41 0-40.7 37.9-40.7 38.5 0 24.6 1.9 59.2 11.7 72.9C39.5 119.7 47 120 47 120h34s7.5-.3 11.4-5.7c9.8-13.6 11.7-48.3 11.7-72.9 0-.6 1.5-38.5-39.5-38.5" style="fill:url(#a)"/><linearGradient id="b" x1="64" x2="64" y1="94" y2="122.1" gradientUnits="userSpaceOnUse"><stop offset="0" style="stop-color:#651fff"/><stop offset=".7" style="stop-color:#5914f2"/><stop offset="1" style="stop-color:#530eeb"/></linearGradient><path d="M64.1 94.5c-25.7 0-51.5 7.5-51.5 25.4v4.1h103v-4c0-16.9-25.6-25.5-51.4-25.5" style="fill:url(#b)"/><path d="M73 90H55v10c0 4.6 3.6 8.2 8.2 8.2h1.6c4.6 0 8.3-3.6 8.3-8.1z" style="fill:#edc391"/><path d="M64 15c-17.2 0-33.1 12.7-33.1 39.8A40 40 0 0 0 56 93.6a24 24 0 0 0 7.9 1.5q3.6 0 7.8-1.4A40 40 0 0 0 97 54.8C97.1 27.7 81.2 15 64 15" style="fill:#f9ddbd"/><path d="M54.8 49.8c-1-1.2-3-3-7.2-3s-6.3 1.8-7.3 3q-.5 1 0 1.6t2 .4c1.4-.2 2.5-1.2 5.3-1.2s4.5.9 5.3 1.2 1.7 0 2-.4q.4-.6-.1-1.6m32.9 0c-1-1.2-3.1-3-7.3-3s-6.3 1.8-7.2 3q-.5 1 0 1.6t1.9.4c1.5-.2 2.5-1.2 5.3-1.2s4.5.9 5.4 1.2 1.6 0 1.9-.4q.5-.6 0-1.6" style="fill:#9e9e9e"/><ellipse cx="47.6" cy="58.9" rx="4.9" ry="5" style="fill:#312d2d"/><ellipse cx="80.4" cy="58.9" rx="4.9" ry="5" style="fill:#312d2d"/><path d="M67.8 68h-7.6q-1 .5-.7 1.7c.3 1.2 1.7 2.6 4.5 2.6s4.2-2 4.5-2.6q.4-1.2-.7-1.7" style="fill:#dba689"/><path d="M72.3 76.1a25 25 0 0 1-16.6 0c-1.8-1-3.6.6-2.9 2.3s6.4 5.3 11.2 5.3c4.9 0 10.5-3.7 11.2-5.4.7-1.6-1-3.2-2.9-2.2" style="fill:#444"/><path d="M64.6 2.9c-41 0-40.7 37.9-40.7 38.5q0 11.9.7 25.3h6.8c-.1-3 2-21 8-22.3 22.4-5 35-17 35-17 3.3 7.3 13.6 14.3 17.3 17 3 2.1 4 18.5 4 22.3h7.6v-.2c.6-8.7.8-17.4.8-25.1 0-.6 1.5-38.5-39.5-38.5" style="fill:#d6d6d6"/><radialGradient id="c" cx="64.3" cy="62.5" r="49.8" gradientTransform="matrix(1 0 0 1.214 0 -13.33)" gradientUnits="userSpaceOnUse"><stop offset=".8" style="stop-color:#fff;stop-opacity:0"/><stop offset="1" style="stop-color:#fff;stop-opacity:.5"/></radialGradient><path d="M64.6 2.9c-41 0-40.7 37.9-40.7 38.5q0 11.9.7 25.3h6.8c-.1-3 2-21 8-22.3 22.4-5 35-17 35-17 3.3 7.3 13.6 14.3 17.3 17 3 2.1 4 18.5 4 22.3h7.6v-.2c.6-8.7.8-17.4.8-25.1 0-.6 1.5-38.5-39.5-38.5" style="fill:url(#c)"/></svg>