<svg xml:space="preserve" width="16" height="16" viewBox="0 0 128 128"><radialGradient id="a" cx="63.6" cy="1104.9" r="57" gradientTransform="translate(0 -1042)" gradientUnits="userSpaceOnUse"><stop offset=".5" style="stop-color:#fde030"/><stop offset=".9" style="stop-color:#f7c02b"/><stop offset="1" style="stop-color:#f4a223"/></radialGradient><path d="M63.6 118.8c-27.9 0-58-17.5-58-55.9S35.7 7 63.6 7c15.5 0 29.8 5.1 40.4 14.4 11.5 10.2 17.6 24.6 17.6 41.5s-6.1 31.2-17.6 41.4a61 61 0 0 1-40.4 14.5" style="fill:url(#a)"/><path d="M111.5 29.7a57 57 0 0 1 8.1 30.2c0 16.9-6.1 31.2-17.6 41.4a61 61 0 0 1-40.4 14.5 59 59 0 0 1-48.2-23 58 58 0 0 0 50.2 26c15.4 0 29.8-5.2 40.4-14.5a54 54 0 0 0 17.6-41.4q-.1-19.2-10.1-33.2" style="fill:#eb8f00"/><path d="M53 95h22" style="fill:none;stroke:#35220b;stroke-width:8;stroke-linecap:round;stroke-linejoin:round"/><path d="m49.6 64-.2.2-.5.5-.7.6-1 .7-1.2.7-1.4.6a9 9 0 0 1-3.1.5h-.9l-.7-.1q-.7 0-1.5-.4l-1.4-.6-1.2-.7-1.7-1.3-.6-.6-.2-.2a3.6 3.6 0 0 0-4.6-.2q-1.5 1.3-.8 3.2l.1.3.4.8a14 14 0 0 0 4.1 4.4l2.5 1.4q1.5.7 3 1l1.7.3.8.1h.8l3.3-.3q1.5-.3 3-1a14 14 0 0 0 5.7-4.5l.5-.7.4-.6.4-.8.1-.2a3 3 0 0 0-1.8-3.8 3 3 0 0 0-3.3.7m44.9.4-.2.2-.5.5-.7.5a14 14 0 0 1-3.6 2L88 68h-3l-1.5-.4-2.6-1.3-1.7-1.3-.6-.6-.2-.2a3.5 3.5 0 0 0-4.6-.2q-1.5 1.3-.8 3.3l.2.3.4.8a14 14 0 0 0 6.6 5.7q1.5.7 3 1l1.8.3h1.6l3.3-.3a16 16 0 0 0 5.6-2.4 14 14 0 0 0 3.2-3l.5-.8.4-.6.4-.8.1-.2c.6-1.4 0-3-1.5-3.7h-.3a4 4 0 0 0-3.7.8M23.4 46.8c-2.2.4-2.3 3.6.1 3.7a21 21 0 0 0 18-10 1.8 1.8 0 1 0-3-2.1l-.1.1a26 26 0 0 1-15 8.3m66.1-8.4a1.8 1.8 0 1 0-3 2.1q1.5 2.6 3.7 4.5a21 21 0 0 0 14.3 5.5c2.5-.1 2.3-3.3.1-3.7q-9-1.6-15.1-8.4" style="fill:#422b0d"/></svg>