<svg xml:space="preserve" width="16" height="16" viewBox="0 0 128 128"><path d="M116 4H12a8 8 0 0 0-8 8v104a8 8 0 0 0 8 8h104a8 8 0 0 0 8-8V12a8 8 0 0 0-8-8" style="fill:#8e24aa"/><path d="M109.7 4H11.5A7.6 7.6 0 0 0 4 11.5v97.9c0 4.1 3.3 7.5 7.5 7.5h98.1c4.1 0 7.5-3.3 7.5-7.5V11.5c0-4-3.1-7.4-7.2-7.5z" style="fill:#ab47bc"/><path d="M33.2 31.1c.1-2.9-1.8-5.8-2.6-6.9q-.1-.3-.5-.2l-.2.2c-.8 1.1-2.7 4-2.6 6.9 0 2.7 1.3 4.8 3 4.8 1.6.1 3-2.1 2.9-4.8m11.3 0c.1-2.9-1.8-5.8-2.6-6.9q-.1-.3-.5-.2l-.2.2c-.8 1.1-2.7 4-2.6 6.9 0 2.7 1.3 4.8 3 4.8 1.6.1 2.9-2.1 2.9-4.8m11.3 0c.1-2.9-1.8-5.8-2.6-6.9q-.1-.3-.5-.2l-.2.2c-.8 1.1-2.7 4-2.6 6.9 0 2.7 1.3 4.8 3 4.8 1.5.1 2.9-2.1 2.9-4.8m11.2-8c.1-2.9-1.8-5.8-2.6-6.9q-.1-.3-.5-.2l-.2.2c-.8 1.1-2.7 4-2.6 6.9 0 2.7 1.3 4.8 3 4.8 1.6.1 2.9-2.1 2.9-4.8m11.2 8c.1-2.9-1.8-5.8-2.6-6.9q-.1-.3-.5-.2l-.2.2c-.8 1.1-2.7 4-2.6 6.9 0 2.7 1.3 4.8 3 4.8 1.6.1 3-2.1 2.9-4.8m11.3 0c.1-2.9-1.8-5.8-2.6-6.9q-.1-.3-.5-.2l-.2.2c-.8 1.1-2.7 4-2.6 6.9 0 2.7 1.3 4.8 3 4.8 1.6.1 2.9-2.1 2.9-4.8m11.3 0c.1-2.9-1.8-5.8-2.6-6.9q-.1-.3-.5-.2l-.2.2c-.8 1.1-2.7 4-2.6 6.9 0 2.7 1.3 4.8 3 4.8 1.5.1 2.9-2.1 2.9-4.8m11.2 0c.1-2.9-1.8-5.8-2.6-6.9q-.1-.3-.5-.2l-.2.2c-.8 1.1-2.7 4-2.6 6.9 0 2.7 1.3 4.8 3 4.8 1.6.1 2.9-2.1 2.9-4.8M67.9 87.8A48 48 0 0 0 112 41q0-.9-.9-1H107a1 1 0 0 0-1 1 42 42 0 0 1-37.9 40.8 1 1 0 0 1-1-.9l-.1-.1v-3q0-.9.9-1A37 37 0 0 0 101 41q0-.9-.9-1H96a1 1 0 0 0-1 1 31 31 0 0 1-26.9 29.8 1 1 0 0 1-1-.9l-.1-.1v-3q0-.9.9-1A26 26 0 0 0 90 41q0-.9-.9-1h-3.7q-1.3 0-1.4 1a20 20 0 0 1-15.8 18.5 1 1 0 0 1-1.2-1v-2.8q0-1.2.8-1.3A15 15 0 0 0 79 41q0-.9-.9-1l-.1-.1h-3.7q-1.3 0-1.4.9a9 9 0 0 1-4.4 6.9 1 1 0 0 1-1.5-.9V33q-.1-.9-1-1h-4a1 1 0 0 0-1 1v13.9q0 1-1 1l-.5-.1a9 9 0 0 1-4.5-6.9 1 1 0 0 0-1-.9h-4a1 1 0 0 0-1 1v.1a15 15 0 0 0 11.2 13.4q.8.2.8 1v3.1q-.1 1-1.1 1h-.1C51 57.6 44.5 50 44 41q0-.9-.9-1H39a1 1 0 0 0-1 1 26 26 0 0 0 22.1 24.7q.8.1.9 1v2.7q-.1 1.4-1.1 1.3c-15-2-26.3-14.6-26.9-29.7q-.1-.9-1-1h-4a1 1 0 0 0-1 1 37 37 0 0 0 33.1 35.8q.8.1.9 1v2.7q-.1 1.4-1.1 1.3A42 42 0 0 1 22 41q0-.9-1-1h-4a1 1 0 0 0-1 1 48 48 0 0 0 44.1 46.8q.8.1.9 1v12.3q0 1-1 1c-6.9.4-12.6 1.9-14.9 3.9a8 8 0 0 1-5.1 2 4 4 0 0 0-4 4h56a4 4 0 0 0-4-4 8 8 0 0 1-5.1-2c-2.3-2-8-3.5-14.9-3.9a1 1 0 0 1-.9-1V88.8q0-.9.8-1" style="fill:#fafafa"/><path d="M39.7 12.9c0-2.3-1.6-3-10.8-2.7-7.7.3-11.5 1.2-13.8 4s-2.9 8.5-3 15.3c0 4.8 0 9.3 2.5 9.3 3.4 0 3.4-7.9 6.2-12.3 5.4-8.7 18.9-10.6 18.9-13.6" style="opacity:.65;fill:#b982ca"/><path d="M22 31.1c.1-2.9-1.8-5.8-2.6-6.9q-.1-.3-.5-.2l-.2.2c-.8 1.1-2.7 4-2.6 6.9 0 2.7 1.3 4.8 3 4.8 1.6.1 2.9-2.1 2.9-4.8" style="fill:#fafafa"/><path d="M39.7 12.9c0-2.3-1.6-3-10.8-2.7-7.7.3-11.5 1.2-13.8 4s-2.9 8.5-3 15.3c0 4.8 0 9.3 2.5 9.3 3.4 0 3.4-7.9 6.2-12.3 5.4-8.7 18.9-10.6 18.9-13.6" style="opacity:.3;fill:#b982ca"/></svg>