<svg xml:space="preserve" width="16" height="16" viewBox="0 0 128 128"><path d="M98 61.4c2.6-13.9-2-26.7-15.7-34-13.5-7.2-26.6-4-36.8 5.6a55 55 0 0 0-20.8-6.7c-6.4-.3-9.8 0-14.2 4.2-8.3 8.1-3.5 37.8 30 57.8 34.5 20.7 66.9 14.4 76.2 0 6-9.4-3-17.6-18.6-26.9" style="fill:#fada80"/><path d="M98 61.4c2.5-13.7-2-26.4-15.3-33.8 1 1.2 2.3 2.9 1.3 3.7-1.2 1-2 .4-4 .4q-1.2 0-.5 1.5c.4 1 1.7 2.4 5 4 1.3.6 1.2 1.8-.4 2.2-2.3.5-3.6.5-5 .3-1.6 0-1.5 1.4-.7 2.2s2.2 2.4 5.8 3.3c1 .3.7 1.7-1.4 2s-4.2.2-5.2.2-1 .9-.5 1.4c1.4 2.2 3 2.7 5.6 3.8.7.3.5 1.4-1.4 2q-2.1.9-5.3.6c-3.4-.3-6.4 1.8-4.9 5.5l-4.4 9.5c-.8 1-3.8.2-3.7 1 .4 2 2.5 3.7 5 5.3 1 .8.5 1.9-.4 2.2-.7.2-3.3.4-4.8.5q-1 .1-.5 1.4c.6 1 2.8 2.4 6.6 3 .8.2.9 1.5-.4 2-2 .9-2.8 1-5 1.2-1.5 0-1.2 1-.3 1.9 1.8 1.7 5.5 2.3 7.6 2.9 1.3.4.4 1.9-2.4 2.3h-4.7c-1.3 0-1.4 1-.4 2q1.7 1.8 6.3 3.5Q56 96.8 41.3 88.3C26.9 79.7 11.3 64 8.7 45.9c-1.2-8.6 2.5-16 2.5-16-.4.4-6.2 5.4-5 17.5.6 6.1 4.6 26.4 33.5 43.6a84 84 0 0 0 44.5 13.6c27.6-.8 33.6-16.6 33.6-16.6 1.8-5.2 1.1-9.2-2-14-3-4.7-11-8.6-17.7-12.6m-28.6-9.9Q68 50.3 68 49c-.1-.6.3-1.5 1.5-.8 1.4.8 2.3 1.4 4.4 1.9 1.1.2.8 1.8-1 2.1q-1.6.5-3.5-.7m-11 24a4 4 0 0 1-1.8-2.6q0-1.3 1.2-.9l4.3 2.4c.7.3 1.1 1.5-.2 1.8q-1.8.3-3.5-.7m-2.3 8.2a4 4 0 0 1-2-2.6c-.2-.8.6-1.4 1.4-.9 1 .8 2 1.3 4.6 2 .8.2 1.1 1.6-.3 2q-1.7.5-3.7-.5m1.7 8.3a4 4 0 0 1-2.2-2.7c-.2-.9.9-.8 1.5-.5l4.5 1.5c.9.3 1.3 1.6-.2 2q-1.7.6-3.6-.3" style="fill:#e6a467"/><path d="M73.3 97.5c-1.4-1-.1-1.6.6-1.6 2.6.3 3 0 5.5-.3 1-.1 1.6 1.1.5 2s-4.2 1.5-6.6-.1m2-6.8c-.9-1 .2-1.1 1.2-1 2 0 2.4-.3 4.5-.8 1-.2 1.6 1 .5 2-1.3 1.3-4.4 1.6-6.2-.2" style="fill:#fada80"/><path d="M70.4 41.8q0-1.6 1.3-1c1.3 1 4 2.1 4 2.1.9.4 1 1.4-.4 2s-4.5 0-4.9-3" style="fill:#e6a467"/><path d="M88.8 44c-2.3.2-3.3-.8-3.7-1.6-.4-.7.2-1 .8-.8 2.4.3 3.6-.2 4.3-.2q.7.2.7 1.1c0 .7-.4 1.4-2.1 1.5m1.6 7.8q-2.4 0-3.3-1.5c-.6-1 0-1.3.7-1.2 1.9.2 2.8 0 5-.5 1-.2.9 1 .6 1.6-.3.5-1 1.5-3 1.6M88 59.5q-2.4-.3-3.2-1.8-.5-1.2 1.2-.9c1.8.4 3.1.3 5.4-.2.7-.2.8.9.1 1.7-.7.9-1.5 1.3-3.5 1.2" style="fill:#fada80"/><path d="M75.5 33.8c1.6.9 2.2 1 3 1.3s.5 1.4 0 1.7q-1 .8-2.7.2c-1.5-.7-2-2-2-2.5-.2-.4.2-1.5 1.7-.7" style="fill:#e6a467"/><path d="M97.5 64.2s-1.2 2.6-9.3 2.3a58 58 0 0 1-23.7-7.9C54.4 52.8 48 47.9 44.7 41.8c-2.2-4-1.4-6.5-1.4-6.5s-3.5 2.2-4.6 3.6c-2.2 3-2 8.1.3 12.8 3.3 6.5 9.5 12 19.7 17.9s16 6.3 21.9 7c5.2.6 12-.8 14.6-5.2 1.2-2.2 2.3-7.2 2.3-7.2M85 81.3c-.2 14.4 3 29.7 4.8 34.7.2.7 1.1.7 1.4 0l3.4-5.8q.4-.7 1-.3l6 4.9a.7.7 0 0 0 1-.8L96 79.7a78 78 0 0 0 21 24 1 1 0 0 0 1.2-.9l-1-5.8q0-.7.8-.9l5.2-.4c.8 0 1-1 .5-1.5l-26.2-23z" style="fill:#8954ff"/><path d="M76.8 64a67 67 0 0 1-11.9-5.2c-4 7.3-2 12.9-1.8 13q5.6 2.8 10 3.6zM85 83.9s.1 6.5.5 9.4c0 0 8.9-5.8 10.5-13.6 0 0 7 4.6 15 3.2l-6.2-5.5-6-2.8-5.9 1.2z" style="fill:#4b0dd4"/><path d="M84 60.5c-3.6-2.9-13.6-6.5-15.1-.2a35 35 0 0 0 3.7 23.8c1.6 3.4 3.6 3.5 6 3.2 8.5-.8 14-10.5 14-10.5s4.3-.7 5.7-1.7c5.4 2.7 17 8 17.5-1 .3-6.8-4-25.6-13.7-24.6-4.2.4-6.5 10-8.8 14.1-1.4.3-3.1 1-3.1 1l-6.1-4.1" style="fill:#8954ff"/><path d="M94.4 64s5.5-10.6 7-12c1.7-1.4 3.9-.1 2.8 2.3S95 65.9 95 65.9zM91 66s-12-7.1-15.2-8c-2-.4-4.3.3-2.6 2.4a90 90 0 0 0 18 6.9z" style="fill:#4b0dd4"/><path d="M92.7 76.4c0-1.6.1-6.7-2.5-9.7-1-1.2-.3-2.5 1.3-3 2.9-.8 4.2-.5 5.2.7 4.8 5.5 2.2 10.2 2 10.5-.3 1.1-6.2 3.4-6 1.5M77.8 70q.4 3.8 2 7.5c.8 2.2 2.5 5 .8 7-.7 1-2.8 1.7-3.9 1-2.8-1.7-6-13-6-19.1q.3-4.2 4.2-2.8c3.2 1.3 2.6 2.4 3 6.4" style="fill:#b391ff"/></svg>