<svg xml:space="preserve" width="16" height="16" viewBox="0 0 128 128"><radialGradient id="a" cx="84" cy="20.9" r="104.5" gradientUnits="userSpaceOnUse"><stop offset=".2" style="stop-color:#e1f5fe"/><stop offset=".4" style="stop-color:#cfeefc"/><stop offset=".7" style="stop-color:#a0ddf8"/><stop offset="1" style="stop-color:#78cef5"/></radialGradient><path d="M11.6 11.4h104.9v104.9H11.6z" style="fill:url(#a)"/><linearGradient id="b" x1="54.3" x2="48.9" y1="46.2" y2="25.2" gradientUnits="userSpaceOnUse"><stop offset=".1" style="stop-color:#fff;stop-opacity:0"/><stop offset=".9" style="stop-color:#fff"/></linearGradient><path d="M91 11.4 11.5 50.2l.1 45.8L101 11.5z" style="fill:url(#b)"/><linearGradient id="c" x1="83.5" x2="58.7" y1="77" y2="51.2" gradientUnits="userSpaceOnUse"><stop offset=".1" style="stop-color:#fff;stop-opacity:0"/><stop offset=".9" style="stop-color:#fff"/></linearGradient><path d="M105.6 11.4 25.5 116.5l48.9-.2 42-96.4v-8.5z" style="fill:url(#c)"/><linearGradient id="d" x1="63.9" x2="44.2" y1="68.6" y2="42" gradientUnits="userSpaceOnUse"><stop offset=".2" style="stop-color:#fff;stop-opacity:0"/><stop offset=".7" style="stop-color:#fff"/></linearGradient><path d="m11.6 93.3 86.4-82h11.2L22 116.6l-10.4-.3z" style="fill:url(#d)"/><path d="M4 7.5v113c0 2 1.6 3.5 3.5 3.5h113c2 0 3.5-1.6 3.5-3.5V7.5c0-2-1.6-3.5-3.5-3.5H7.5C5.5 4 4 5.6 4 7.5m54 52.7H17.1a2 2 0 0 1-2-2V16.5q.2-2 2-2.1h41c1 0 2 1 2 2V58c0 1.2-1 2-2 2m52.8 0h-41a2 2 0 0 1-2-2V16.5q.2-2 2-2.1h40.9c1.1 0 2 1 2 2V58q-.2 1.9-2 2M58 113.5H17.1a2 2 0 0 1-2-2V69.9q.2-1.9 2-2h41c1 0 2 .8 2 2v41.6c0 1.1-1 2-2 2m52.8 0h-41a2 2 0 0 1-2-2V69.9q.2-1.9 2-2h40.9q1.8.1 2 2v41.6q-.2 1.8-2 2" style="fill:#d68b52"/><path d="M69.2 58.6V18L66 13.7v48.1h48l-4.1-3.2z" style="fill:#ffccbc"/><path d="M66 13.7v10.5l3.2-3.2v-3.1h40.7v40.7l4.2 3.2v-48z" style="fill:#b25b47"/><linearGradient id="e" x1="65.8" x2="70.1" y1="27.1" y2="31.4" gradientUnits="userSpaceOnUse"><stop offset="0" style="stop-color:#b25b47"/><stop offset="1" style="stop-color:#b25b47;stop-opacity:0"/></linearGradient><path d="M66 22.8v15.3l3.2-3.2V19.6z" style="fill:url(#e)"/><path d="M18.1 17.9h40.8v40.7H18zm-4.2-4.2v48.1H62v-48z" style="fill:#ffccbc"/><path d="M14 13.7v18l4.1-3.2V18H59v40.7l3.1 3.2v-48z" style="fill:#b25b47"/><linearGradient id="f" x1="14.1" x2="18.7" y1="34.6" y2="39.2" gradientUnits="userSpaceOnUse"><stop offset="0" style="stop-color:#b25b47"/><stop offset="1" style="stop-color:#b25b47;stop-opacity:0"/></linearGradient><path d="M14 30.4v15.3l4.1-3.2V27.2z" style="fill:url(#f)"/><path d="M109.9 110.1H69.2V69.4h40.7zm4.2 4.2V66.2H66v48z" style="fill:#ffccbc"/><path d="M66 66.2v8h3.2v-4.8h40.7V110l4.2 4.2v-48z" style="fill:#b25b47"/><linearGradient id="g" x1="64.6" x2="69.9" y1="80.1" y2="85.3" gradientUnits="userSpaceOnUse"><stop offset="0" style="stop-color:#b25b47"/><stop offset="1" style="stop-color:#b25b47;stop-opacity:0"/></linearGradient><path d="M66 73.8v18.5l3.2-3.2V73.8z" style="fill:url(#g)"/><path d="M58.9 84.4V110H18V69.3h40.7l3.2-3.2H14v48l48-.1V81z" style="fill:#ffccbc"/><path d="M62 66.2H14V83h4V69.4h40.7v11.5H62z" style="fill:#b25b47"/><linearGradient id="h" x1="57.5" x2="62.7" y1="86.8" y2="92" gradientUnits="userSpaceOnUse"><stop offset="0" style="stop-color:#b25b47"/><stop offset="1" style="stop-color:#b25b47;stop-opacity:0"/></linearGradient><path d="M58.9 80.5V99l3.1-3.2V80.5z" style="fill:url(#h)"/><linearGradient id="i" x1="13" x2="18.5" y1="88.8" y2="94.3" gradientUnits="userSpaceOnUse"><stop offset="0" style="stop-color:#b25b47"/><stop offset="1" style="stop-color:#b25b47;stop-opacity:0"/></linearGradient><path d="M14 82.6V101l4.1-3.2V82.5z" style="fill:url(#i)"/></svg>