<svg xml:space="preserve" width="16" height="16" viewBox="0 0 128 128"><linearGradient id="a" x1="435.4" x2="435.4" y1="66.4" y2="21.6" gradientTransform="matrix(-1 0 0 -1 525.76 130)" gradientUnits="userSpaceOnUse"><stop offset="0" style="stop-color:#ffd29c"/><stop offset=".5" style="stop-color:#f9ddbd"/></linearGradient><path d="m77.3 65 9.6-1.4s1.6 20 2.7 22.3 13.8 16.8 13.8 16.8l-2.6 5.7-17.2-16.2q-2.7-2.6-3.4-6.6z" style="fill:url(#a)"/><linearGradient id="b" x1="37.2" x2="37.2" y1="66.4" y2="21.6" gradientTransform="matrix(1 0 0 -1 0 130)" gradientUnits="userSpaceOnUse"><stop offset="0" style="stop-color:#ffd29c"/><stop offset=".5" style="stop-color:#f9ddbd"/></linearGradient><path d="m50.2 65-9.6-1.4s-1.5 20-2.7 22.3c-1.1 2.3-13.8 16.8-13.8 16.8l2.7 5.7 17.1-16.2q2.8-2.6 3.4-6.6z" style="fill:url(#b)"/><linearGradient id="c" x1="64" x2="64" y1="81.9" y2="33.5" gradientTransform="matrix(1 0 0 -1 0 130)" gradientUnits="userSpaceOnUse"><stop offset="0" style="stop-color:#00bfa5"/><stop offset=".7" style="stop-color:#00b29a"/><stop offset="1" style="stop-color:#00ab94"/></linearGradient><path d="m88.6 69.5-.8-9.4c-.2-1.3-2.5-11.8-23.6-11.8S40.4 58.6 40.2 60l-.8 9.4 9.2.8v27.9h31.2V70.3z" style="fill:url(#c)"/><linearGradient id="d" x1="51.7" x2="51.7" y1="8.6" y2="32.9" gradientTransform="matrix(1 0 0 -1 0 130)" gradientUnits="userSpaceOnUse"><stop offset="0" style="stop-color:#ffd29c"/><stop offset=".4" style="stop-color:#f9ddbd"/></linearGradient><path d="M87.3 111.7c-6.6 1.1-12.4 2.9-18.9 4.8l-9.3 2.7c-6.6 1.7-14.3 3.5-24.2 5-6 .8-12.1 0-15.2-2-2.4-1.4-4.4-4.3-3.6-6.7a14 14 0 0 1 7.3-7.4q2.3-1.2 5-2.1c4.3-1.6 8.8-3 12.3-3.9l5.5-1.3a18 18 0 0 1 10.9.4c5.2 2.2 32 10.2 30.2 10.5" style="fill:url(#d)"/><linearGradient id="e" x1="26.5" x2="31.5" y1="22.4" y2="16.1" gradientTransform="matrix(1 -.01 -.01 -1 .16 130.2)" gradientUnits="userSpaceOnUse"><stop offset="0" style="stop-color:#ffd29c"/><stop offset=".5" style="stop-color:#f9ddbd;stop-opacity:0"/></linearGradient><path d="m34.2 104.2-4.9 4.7-4.2 2.9h-1.4a4 4 0 0 1-4.8-.6q1.8-1.6 4.2-3c3.3-1.5 7.2-3 10.8-4.1z" style="fill:url(#e)"/><linearGradient id="f" x1="35.8" x2="112" y1="18.2" y2="18.2" gradientTransform="matrix(1 0 0 -1 0 130)" gradientUnits="userSpaceOnUse"><stop offset=".8" style="stop-color:#f9ddbd"/><stop offset="1" style="stop-color:#ffd29c"/></linearGradient><path d="M108.3 122.2c-3.2 2-9.3 2.7-15.2 2a127 127 0 0 1-35.1-11c-5.7-2.7-10.6-6-13.4-7.7a9 9 0 0 0-6.1-1.5l-2 .2c-1.4 0-.2-2.3-.2-2.3.7-1.6 3-3.4 5.2-2.6s5 2.4 5 2.4c5 1.6 5.3-1.6 8.2-.5 1.5.5 1.9 2.3 2 3.3 0 1 1.6 2 2.7 2.2l7 .8 1 .1 2.4.3 7.6-5.4 1-.7 2.8-2 2 .7 1.4.5a451 451 0 0 1 20.1 7.8q5.7 2.6 7.1 6.7c.8 2.4-1.2 5.3-3.5 6.7" style="fill:url(#f)"/><path d="m79.9 98.6-.2-3.4s-4 1.9-15.3 1.9-15.9-1.9-15.9-1.9v3.4l-7.3 4.4L64 113.5l24.2-10.6z" style="fill:#7c7c7c"/><linearGradient id="g" x1="48.5" x2="45.5" y1="19" y2="13.3" gradientTransform="matrix(1 0 0 -1 0 130)" gradientUnits="userSpaceOnUse"><stop offset="0" style="stop-color:#ffd29c"/><stop offset=".5" style="stop-color:#f9ddbd;stop-opacity:0"/></linearGradient><path d="m68.4 116.5-9.3 2.7a132 132 0 0 1-16.7-9l-.2-.1-3.3-2c-1.8-1-2.5-1.3-3.5-1.3h-.8l-.7.2-1.8.1h-.6q-1.8 0-3.2-1.1c4.4-1.6 9-3 12.4-3.8l1.2.6 3.4 2a129 129 0 0 0 22.9 11.5z" style="fill:url(#g)"/><path d="M32.4 113q.2-1.6 1.4-2.6a8 8 0 0 1 4-1.8l1.4-.1 2.8-.4a75 75 0 0 1 11.2-.3q.5 0 .5.6 0 .4-.5.4l-5.6.1-5.5.4q-1.4 0-2.7.3l-1.4.1a7 7 0 0 0-3.7 1.4q-1.1.7-1.6 2h-.2z" style="fill:#edbd82"/><linearGradient id="h" x1="110.4" x2="40" y1="11" y2="26" gradientTransform="matrix(1 0 0 -1 0 130)" gradientUnits="userSpaceOnUse"><stop offset="0" style="stop-color:#ffd29c"/><stop offset=".3" style="stop-color:#f9ddbd"/></linearGradient><path d="M108.3 122.2c-3.2 2-9.3 2.7-15.2 2a121 121 0 0 1-35.1-11c-5.7-2.7-10.6-6-13.4-7.7a9 9 0 0 0-6.1-1.5l-2 .2c-1.4 0-.2-2.3-.2-2.3.7-1.6 3-3.4 5.2-2.6s5 2.4 5 2.4c5 1.6 5.3-1.6 8.2-.5 1.5.5 1.9 2.3 2 3.3 0 1 1.6 2 2.7 2.2l6 1h1.1l2.2.3h.2a26 26 0 0 0 4.9 0q4.6-.4 8.7-1l2.3-.4a33 33 0 0 1 26.5 7.7l.5 1.2c.8 2.4-1.2 5.3-3.5 6.7" style="fill:url(#h)"/><path d="M95.2 108.5c-1.7-.7-6.9-1.4-9.8-1.7 0 0 2.3-1.5 6.1-1 2.4.2.1-3.9.1-3.9l-7.8 4.4-.6.2v.1l-.7.3-1.5.8h2c6.6.4 13 1.3 16 3.8h.3q-.4-1.6-4-3" style="fill:#edbd82"/><linearGradient id="i" x1="79.8" x2="78" y1="22" y2="34.1" gradientTransform="matrix(1 0 0 -1 0 130)" gradientUnits="userSpaceOnUse"><stop offset=".1" style="stop-color:#ffd29c"/><stop offset=".7" style="stop-color:#f9ddbd"/></linearGradient><path d="m91.8 104.9-2-.2a9 9 0 0 0-6 1.6l-.6.3-.7.3-1.5.8s-3.7 0-5.2.2h-.9c-1.3.2-2.1.2-3.8.2l-2-.1h-.3l-2.2-.2 2.1-.3h.4q1.2-.3 2.2-1.2l.2-.3q.3-.3.3-.8v-.2c.1-1 .5-2.6 2-3.1 2.9-1 3.1 2 8.2.5 0 0 2.7-1.6 5-2.4s4.4 1 5 2.6l.4.7c.2.6.4 1.5-.5 1.6" style="fill:url(#i)"/><linearGradient id="j" x1="113.3" x2="103.1" y1="22.7" y2="29.8" gradientTransform="matrix(1 0 0 -1 0 130)" gradientUnits="userSpaceOnUse"><stop offset="0" style="stop-color:#ffd29c"/><stop offset=".5" style="stop-color:#f9ddbd"/></linearGradient><path d="M116.4 100.2q0-.3-.2-.5t-.5 0s-1.3.5-2 1.7v2.7l-.6.6-.3-3v-4.5l-.4-.1-.9.2h-.8l-.2.1-.1.1-.2.1-.2.1-.1.1-.1.1-.1.2-.2.1v.1l-.2.2c-.7 1-1.1 2-2 2.4l-.6.1c-1.6.4-3.8-.3-5 1.2l-.2.1c-.3.5-1.7-.3-1.7-.3l-2.5 1.8-.3-.3-.9-.8-1.1.2 4.9 4.7 4.2 2.9h1.4a4 4 0 0 0 3 .4 4 4 0 0 0 2-1.3l.2-.2.2.1h.2q1.6 0 2.8-1.2l2.4-3 .1-.4z" style="fill:url(#j)"/><path d="M112.9 97.3v.8q-1-.1-1.6.4-.7.3-.7 1.3v4l-.1 1.9q0 .5-.4 1l-.6.7-2.5 3 2.2-3.1.6-.8q.3-.4.3-.8v-2l-.2-4 .1-1c.2-.4.7-1.5 2.6-1.7q.3 0 .3.3m3.5 2.5v.7q-.6 0-1.1.2t-.8.9v.6l-.1.7-.3 1.5-.7.8-2.3 3.5 2-3.8.4-.7.2-1.4v-1.5q.3-.8 1.1-1.3l1.3-.5q.3 0 .3.3" style="fill:#edbd82"/><linearGradient id="k" x1="106.9" x2="105.3" y1="24.5" y2="27.1" gradientTransform="matrix(1 0 0 -1 0 130)" gradientUnits="userSpaceOnUse"><stop offset="0" style="stop-color:#ffd29c"/><stop offset="1" style="stop-color:#f9ddbd;stop-opacity:0"/></linearGradient><path d="M101.2 105s3.7-3.7 8.7-3.3c0 0-2-.1-1.7 3.5 0 0-1.5-1.5-3.6 2.4 0 0-1.1-3.1-3.4-2.7" style="fill:url(#k)"/><path d="M110.1 102.4h-1q-.3.3-.4.9l-.1 1.3v.7l-.2.7q0 .5-.4.6l-.4.5-.8 1-1.7 2.1 1.5-2.2.7-1 .4-.7.2-.5v-2.6q0-.8.7-1.5.7-.4 1.7-.4zm-2.1 3.3h-.9q-.4 0-.8.4l-1.5 1.9-.3.4-.2-.5a4 4 0 0 0-2.3-2.7q-1.7-.7-3.6.2 1.8-1 3.7-.5 1 .3 1.7 1.1.7.7 1 1.7l-.5-.1 1.4-2q.4-.6 1.2-.9l1.5.1z" style="fill:#edbd82"/><linearGradient id="l" x1="14" x2="28.7" y1="24.3" y2="30.1" gradientTransform="matrix(1 0 0 -1 0 130)" gradientUnits="userSpaceOnUse"><stop offset="0" style="stop-color:#ffd29c"/><stop offset=".5" style="stop-color:#f9ddbd"/></linearGradient><path d="M11.6 99.8q0-.3.2-.4h.5s1.3.4 2 1.7v2.6l.6.7.3-3v-4.5l.5-.2.8.2h.6l.2.1.4.1.1.1.2.1.1.2h.1l.2.2.1.1v.2l.2.1v.1c.7.9 1.2 2 2 2.3l.6.2c1.7.3 3.8-.3 5 1.1l.2.2c.3.4 1.7-.4 1.7-.4l2.5 1.8.3-.3.9-.8 1.1.3-4.9 4.7L24 110l-.4.1h-1a4 4 0 0 1-3 .3 4 4 0 0 1-2-1.3l-.2-.1H17q-1.6.2-2.8-1.2l-2.4-3-.1-.4z" style="fill:url(#l)"/><path d="M11.6 99.4v.7q.6 0 1.1.3t.8.8v.6l.2.7q0 .8.3 1.5l.6.8 2.3 3.5-2-3.8-.4-.7-.2-1.3V101q-.3-1-1.1-1.4l-1.3-.5q-.3 0-.3.3" style="fill:#edbd82"/><linearGradient id="m" x1="20.9" x2="23.1" y1="25.2" y2="27.9" gradientTransform="matrix(1 0 0 -1 0 130)" gradientUnits="userSpaceOnUse"><stop offset="0" style="stop-color:#ffd29c"/><stop offset="1" style="stop-color:#f9ddbd;stop-opacity:0"/></linearGradient><path d="M26.8 104.6s-3.7-3.7-8.8-3.3c0 0 2.2-.1 1.8 3.6 0 0 1.5-1.5 3.5 2.4 0 0 1.3-3.2 3.5-2.7" style="fill:url(#m)"/><path d="m17.9 102 1 .1q.4.3.4.8l.1 1.3v.7l.2.7q0 .5.4.6l.4.6.8 1 1.7 2-1.5-2.2-.7-1-.4-.6-.2-.5v-2.7a2 2 0 0 0-.7-1.4q-.7-.6-1.7-.4zm2.1 3.4.9-.2q.4.1.8.5l1.5 1.9.3.4.2-.5a4 4 0 0 1 2.3-2.7q1.6-.7 3.6.2-1.8-1-3.8-.5-.9.4-1.6 1.1-.6.7-1 1.7h.5l-1.4-2q-.4-.7-1.2-1l-1.5.2zM15.1 97v.8q1 0 1.6.3.7.4.7 1.4v3.9l.2 2q0 .5.3 1l.7.7 2.4 3-2.2-3.2-.6-.8q-.3-.3-.3-.8v-2l.2-3.8-.1-1.2c-.2-.3-.7-1.5-2.6-1.6q-.3 0-.3.2" style="fill:#edbd82"/><path d="M64 44.7h-4.8v5c0 2.3 2 4.2 4.4 4.2h.8c2.4 0 4.4-1.9 4.4-4.1v-5.1zm13.1-18.9H51c-2.8 0-5.2 2.5-5.2 5.5s2.3 5.4 5.2 5.4h26c2.9 0 5.2-2.4 5.2-5.4s-2.4-5.5-5.2-5.5" style="fill:#edc391"/><path d="M64 6.9c-8.3 0-16 9-16 21.8s7.9 19 16 19 16-6.2 16-19S72.4 6.9 64 6.9" style="fill:#f9ddbd"/><path d="M59.7 26c-.4-.7-1.5-1.8-3.6-1.8s-3.2 1-3.6 1.8q-.3.5 0 .9t1 .2c.7-.2 1.2-.7 2.6-.7q2.1.2 2.7.7.6.2 1-.2.2-.4 0-1m15.7.1c-.5-.7-1.5-1.8-3.6-1.8s-3.2 1-3.6 1.8q-.3.5 0 .9t.9.2c.7-.2 1.3-.7 2.7-.7q2 .2 2.7.7c.7.5.8 0 1-.2z" style="fill:#454140"/><path d="M65.9 34.3H62q-.5.1-.3.7.2 1.1 2.2 1.3c1.4 0 2-1 2.2-1.3q.2-.5-.4-.7" style="fill:#dba689"/><path d="M68 38.1c-1.5 1-6.5 1-8 0-.9-.5-1.7.3-1.4 1 .4.9 3 2.7 5.4 2.7s5-1.8 5.4-2.6c.3-.8-.5-1.6-1.4-1" style="fill:#444"/><path d="M56.2 30.5q-1.6 0-2.5-.6-.4-.2-.4.3.5 1.8 2.9 2 2.3-.2 2.8-2 0-.6-.3-.3-1 .6-2.5.6m15.6 0q-1.5 0-2.5-.6-.4-.2-.3.3c.1 1.1 1.4 2 2.8 2s2.7-.9 2.9-2q0-.6-.4-.3-1 .6-2.5.6M64 3.5c-21.7.1-17.3 25-17.3 25l1.4 3.6q.2.3.4 0c.4-2 2.1-9.4 3-11.7q1-2 3.2-1.8a54 54 0 0 0 18.6 0 3 3 0 0 1 3.3 1.8c.8 2.3 2.5 9.6 3 11.7q0 .3.3 0l1.4-3.7S85.7 3.6 64 3.5" style="fill:#312d2d"/><radialGradient id="n" cx="64" cy="105.8" r="18.2" gradientTransform="matrix(1 0 0 -1.128 0 143.45)" gradientUnits="userSpaceOnUse"><stop offset=".8" style="stop-color:#454140;stop-opacity:0"/><stop offset="1" style="stop-color:#454140"/></radialGradient><path d="M81.3 28.5S85.7 3.6 64 3.4l-2.9.2H61C42.7 6 46.7 28.4 46.7 28.4l1.4 3.7q.1.3.4 0a112 112 0 0 1 3-11.7 3 3 0 0 1 3.2-1.8c2.1.4 5.5.9 9.2.9h.1a54 54 0 0 0 9.3-.9 3 3 0 0 1 3.2 1.8c.9 2.3 2.6 9.7 3 11.7q.2.3.3 0z" style="fill:url(#n)"/></svg>