<svg xml:space="preserve" width="16" height="16" viewBox="0 0 128 128"><path d="M114.2 74.5s.5-1.3 2.1-2c1.5-.6 5-.7 6.6 1.2 1.6 2 1.5 4.8 2 9.8.5 3.9.8 8.2.2 10.2-.5 1.5-1.9 3-5 3-3.3.1-4.8-1.9-4.8-1.9z" style="fill:#31322e"/><path d="M4.4 82.4s-.5-2.6 2-5 4-2.7 7.1-3 14.6-.5 14.6-.5l25.4-28c.2-.3 51.7-.7 53.6-.7s5 1.5 5.4 4.2 3 29 3 29L65 91z" style="fill:#489df6"/><path d="m58.5 93.2-34-7.6-19.9 16s-2.7-.2-2.7 2.5-.2 7.3.3 7.7 94.3.8 94.3.8 22.2-.2 22.9-.6.7-.8.9-5c.1-2.4.6-4.6-2-4.9h-1c-2.1-.5-2.6-1.5-2.6-1.5l-9-14.2-32 2.6z" style="fill:#506d71"/><path d="M28 97c-8-.1-13.9 5.5-13.9 13.7a13 13 0 0 0 13 13.2c9.3.4 14.3-6.7 14.4-12.7.2-6-4.1-14-13.4-14.2" style="fill:#4c443f"/><path d="M27.6 103c-4.4.3-7.3 3.4-7.1 7.3 0 3.9 3 7.5 7.5 7.4a7 7 0 0 0 7.2-7c.1-3.6-2.2-7.9-7.6-7.6" style="fill:#c8c8c8"/><path d="M102.1 98.7a13 13 0 0 0-19 4.4 13 13 0 0 0 4.2 18 14 14 0 0 0 18.6-3.4c3.3-5 4-14-3.8-19" style="fill:#4c443f"/><path d="M98.4 103.4a7.3 7.3 0 0 0-7.3 12.7c3.8 2.2 7.7.9 9.8-2.2 1.7-2.4 2.3-7.9-2.5-10.5" style="fill:#c8c8c8"/><path d="M4 101.7h7.4s1.9-5.2 7.1-8a20 20 0 0 1 20.2.7c5.9 4.2 6.6 8.7 6.6 8.7l32-.2s1.9-6.8 8-10.7a19 19 0 0 1 19.9.7c6.4 4.7 7 9.1 7 9.1h5c.3 0-.4-11.2-.4-11.2l-1.3-12.3s-14.2-.1-22.6 2.2-16 2.6-27.3 2.5S46.4 82 40.9 81s-13.3-2-20.2 0C14 83 12 86 12 86s-7.7 4-8 4.7.1 11 .1 11" style="fill:#1d86fb"/><path d="M110.7 80.2c-.3.7-.1 3.7 0 6.7 0 2.5-.1 4.5.3 4.7s6 0 6 0l-1-10.8-.2-.8s-5 0-5.1.2" style="fill:#ff2a23"/><path d="M6.7 81.1s8.7-.3 9.2.3q.6 1-1 4c-1.6 3-3 5-3.4 5.3s-5 .2-5 .2l-1.9-7.2z" style="fill:#fff"/><path d="M4 81.2s-.5 2-.5 4.7.4 5 .4 5h2.6s-.3-2.3-.2-4.8c0-2.7.6-5 .6-5z" style="fill:#d7ccc5"/><path d="M56.1 51.2c-1.7 1-6.6 7.3-9 10.3-2.6 3-9.2 10.8-9.6 11.7q-.9 1.7 1.1 2.2c1.5 0 39.2.4 39.7.3.6 0 .8-.9.7-1.6 0-.8.4-20.7.2-21.6s-1.2-1.8-3-1.8c-1.6 0-19.2 0-20 .5" style="fill:#506d73"/><path d="M57.5 53.4c-.8.4-15 17.6-15.3 18q-.8 1.3.4 1.3l32.8.1q1.2 0 1.2-1.4c-.1-.8.4-17 .2-17.4-.1-.4-.5-1-1.3-1s-17.3 0-18 .4" style="fill:#afe3fb"/><path d="M86.8 50.8c-.6 0-1.8.5-1.8 1.6V75q0 1 1.6.8c1.6-.2 21-.2 21.8-.2s.8-1.1.7-1.9l-2.6-21q-.3-1.9-2.3-2c-1.2-.2-17.5.1-17.5.1" style="fill:#506d73"/><path d="M44 75.3s1.5 2.3 2.6 3.4c1 1 2.6 1.9 4 1.7 1.4 0 2.3-1.4 2.6-5.7.2-4.6-.8-5.7-2.6-5.8s-2 .6-3.1 1.7c-.7.6-3.5 4.7-3.5 4.7" style="fill:#0250ac"/><path d="M48.4 75.7q1.7-.2 2.8-2.7c.7-1.7 0-3-.7-3.4-.8-.5-1.7-.3-1.9-.2l-1.4 1.5c-1 1.1-1.7 2.3-1.7 2.3s1.3 2.6 2.9 2.5" style="fill:#489df6"/><path d="M87.9 53.3c-.3.3 0 19.4.2 19.6.2.1 18 .2 18.2 0S104 53.2 103.7 53s-15.5 0-15.8.3" style="fill:#afe3fb"/></svg>