<svg xml:space="preserve" width="16" height="16" viewBox="0 0 128 128"><path d="M116 4H12a8 8 0 0 0-8 8v104a8 8 0 0 0 8 8h104a8 8 0 0 0 8-8V12a8 8 0 0 0-8-8" style="fill:#f77e00"/><path d="M109.7 4H11.5A7.6 7.6 0 0 0 4 11.5v97.9c0 4.1 3.3 7.5 7.5 7.5h98.1c4.1 0 7.5-3.3 7.5-7.5V11.5c0-4-3.1-7.4-7.2-7.5z" style="fill:#ff9800"/><path d="M39.7 12.9c0-2.3-1.6-3-10.8-2.7-7.7.3-11.5 1.2-13.8 4s-2.9 8.5-3 15.3c0 4.8 0 9.3 2.5 9.3 3.4 0 3.4-7.9 6.2-12.3 5.4-8.7 18.9-10.6 18.9-13.6" style="opacity:.75;fill:#ffbd52"/><path d="M108.8 54.7 94 68c-.4 10.5-7.2 12-12 12H68.8a27 27 0 0 1 0 16H82c15.5 0 28-14.3 28-32a36 36 0 0 0-1.2-9.3m-.2-17.7-24-24a4 4 0 0 0-6.6 3v14a2 2 0 0 1-2 2H42c-15.5 0-28 14.3-28 32q0 4.7 1.2 9.3l.1-.1a27 27 0 0 1 14.5-13.1l.2-.1c.5-10.5 7.2-12 12-12h34a2 2 0 0 1 2 2v14a4 4 0 0 0 6.6 3l24-24a4 4 0 0 0 0-6M40.7 63.4A23.6 23.6 0 1 0 64.3 87c0-13-10.6-23.6-23.6-23.6m5.3 42.2q0 1-1 1h-6.7a1 1 0 0 1-1-1V80.5q-.1-.9-1-1l-.3.1-5.9 1.7a1 1 0 0 1-1.2-.6l-.1-.3v-4.5q0-.7.7-.9l15.1-5a1 1 0 0 1 1.3.6v.3z" style="fill:#fafafa"/></svg>