<svg xml:space="preserve" width="16" height="16" viewBox="0 0 128 128"><path d="m69.5 6.4 52.2 52c3 3.1 3 8-.2 11l-52 52.3a8 8 0 0 1-11.3 0l-52-52.2A8 8 0 0 1 6 58.4l52.2-52a8 8 0 0 1 11.3 0" style="fill:#1976d2"/><path d="m64.6 10.5 48.5 48.4A7.3 7.3 0 0 1 113 69l-48.5 48.6a7.4 7.4 0 0 1-10.5 0L5.7 69.2a7.3 7.3 0 0 1-.2-10.3l48.6-48.4c3-3 7.6-3 10.5 0" style="fill:#2196f3"/><path d="M52.8 17.7c-1.6 1-33 32.3-33 32.3s-2.7 2.3-.9 4.7c1.7 2.2 4.3 1 5.6-.1s29.7-29 31-30.4a5 5 0 0 0 .5-5.5q-1.3-2.3-3.2-1" style="fill:#90caf9"/><circle cx="15.4" cy="60.5" r="3.3" style="fill:#90caf9"/></svg>