<svg xml:space="preserve" width="16" height="16" viewBox="0 0 128 128"><path d="M88.6 88.4a17.4 17.4 0 0 0-18 18.2c0 10.5 8.3 17.2 17.8 17 9 0 17.2-6.5 17.6-16.7.3-11.4-8-18.2-17.4-18.5" style="fill:#d8cdc9"/><path d="M81 113c4.2 2 11.6 1.8 14.9-4 3.8-6.7.4-14.4-4.5-16-4.8-1.7-11.5-1-14.6 4.2-2 3.4-3.2 12.3 4.2 15.8" style="fill:#eaeaea"/><path d="M78 109.3c-2.5.7-6-8.6-.4-14.3 6-6.2 13.7-3.8 13.8-1.3.4 4.5-5.7 1-9.2 5.2-3.7 4.4-.4 9.3-4.3 10.4" style="fill:#fff"/><path d="M85.4 50.8c0-.2-5.7-2.5-6-2.5s-44.6 50-44.6 50L46 109.2l41.2-56.7z" style="fill:#1f87fd"/><path d="M85.9 52 69.4 74.8c-7 9.7-18.3 24-18.3 24L46 109.3l1.7 1.2s4.7-6.1 10.5-14.1c5.1-7 11-15.6 14.6-20.6l19.5-28.5z" style="fill:#004fad"/><path d="m79.4 48.3 29.4-35.8s-.7-2-.6-3 3-5.6 5.2-6c3.3-.3 10 4.6 10.2 8 .2 1.9-3.1 5.9-4.5 6.1-1 .2-2.8-.1-2.8-.1L87.1 54.8z" style="fill:#5f6165"/><path d="m17.4 95 3.6-6.8s3.8 2.1 4 6.3c0 2.5-1.2 6 0 7.7 1.5 2.2 4.6 1.9 4.6 1.9l15.6 2.7 3 3s-5.6 9.1-12.8 12.5c-6 2.8-14 2.5-19.8-1.4-4.4-3-5.5-5.2-5.5-5.2z" style="fill:#ea8d37"/><path d="m36 97-5.8 6.2c-1 1.2-4.7 3.7-7.3-.4-2-3.1 1-6 .3-10.7s-5.1-5.7-7.8-5.5c-2.3.2-9.8 1.5-10.3 14a21 21 0 0 0 6.8 17c2.8 2.4 11.3 6 20.5 1.7 8-3.7 13.8-13.2 13.8-13.2z" style="fill:#ffa828"/><path d="m39.3 93.2-3.9 4.3 12.9 12.3 4.6-6.3z" style="fill:#605f66"/><path d="m43.4 88.7-4.1 4.6 13 11.2 3.6-5zm36-40.4 3.7-4.5 7.6 6.4-3.5 4.6z" style="fill:#e2e0e4"/><path d="M86.2 43.4c0 .8 1 1.9 3.5 1 2.4-.8 1.7-2.6 2.8-3.9 1.2-1.2 2.4-.9 3.6-2.8s1-3.3 2.2-4.7c1.5-1.7 2.1-.6 3.5-2.3 1.2-1.5.3-2.4 1.4-3.8 1.3-1.7 1.7-.4 3.4-2.3s.7-2.5 1.7-4.1c.8-1.2 2.1-1.3 3-2.4 1.6-2 2-2.9 1-3.7-1.4-1-2.2.8-3.1 1.7-1.3 1.3-2 1-3.1 2.2-1.7 1.7-.7 2.7-2 4.2-1.2 1.6-2.2.8-3.5 2.3-1.2 1.6-.8 3-1.7 4s-1.6.5-2.9 1.9c-1.7 1.8-.9 3.4-2.3 5.1-1 1.4-2.3.8-3.5 2.2s-1 2.8-1.5 3.3c-1.1 1-2.5.6-2.5 2.1" style="fill:#848582"/></svg>