<svg xml:space="preserve" width="16" height="16" viewBox="0 0 128 128"><path d="M25.3 116.6s4-1.6 6-3.1 3.7-3.4 4.8-4.5q1.2-1 2-1 1 0 1.6.9l2.6 3.2c1 1.8.2 4.1.2 4.1s2.7 2.9-1.8 3.9-10.2 1.5-10.2 1.5l-1 .1c-1.9 0-4.6-.7-5.4-2.7 0 0-1.3-1.4 1.2-2.4" style="fill:#4568ac"/><path d="m42.7 111.5 15.2-1.8s-5.1-15.8-6.6-23.3c0 0 12.5 3.7 19 3.7l1 19.8c.4 8.4-2.2 10.9-6.3 11.8q-1.4.3-3.2.3c-5.3 0-12.9-1.8-19-2.5-2.4-.2-1.7-6.9 0-8" style="fill:#616161"/><path d="M81 119.6c0-2 2-4.4 2-4.4h7.7l6.8 2.3c1.7.6 2.8 2.2 2.8 4v1.4q-.1 1-1.1 1h-17q-1.2 0-1.3-1.2z" style="fill:#4568ac"/><path d="M50.6 77.6q0-.5.5-.5l18 1.3c.2 0 10.4 1.4 16.7 2 7.4.6 8.1 8 7.8 15a375 375 0 0 1-2.2 20.2s-1.8 1.1-5 1.1c-3 0-4.6-1-4.7-1.1l-.2-.3L79 94.5c-1.4 0-5.5-.2-8.8 0-6.5.2-13-.2-16.8-4.3q-3.9-4.2-2.8-12.6" style="fill:#7c7c7c"/><path d="M59 29c-1-3.7-1.6-8.3-1.1-11.1q.1-1 .5-1.6.9-1.7 2.4-3.1l.8-.7.1-.1.7-.5.1-.2.7-.4.2-.2.7-.4.2-.1.7-.4.2-.1.8-.4h.1q2.4-1 4.8-1H72c5.7.7 9 4.7 10 9.9q.6 2.9.2 5l-.3 1.8c-.2 1.4 2.6 2.6 3 4.2.3 1.1-2.1 2-2.3 2.2-.9 1 .8 6-5.8 6.8-2.6.3-2.8.2-3.6.4-1.6.2-1.1 6.6-1.1 6.6l-11.6-2.3s1.6-7.4 0-10.7q-.9-1.5-1.4-3.6" style="fill:#ba8d68"/><path d="M82 34.6a4 4 0 0 1-2.6-.6c-.9-.6-.3-1.3.7-1a4 4 0 0 0 2.2.2z" style="fill:#5d4037"/><path d="M76.6 26.3q0-1.7 1.2-1.9 1 .2 1.2 1.9 0 1.7-1.2 1.9-1.1-.1-1.2-1.9" style="fill:#49362e"/><path d="M78.6 23.5c1.2.2 1.4-.6 1-1.2q-.5-.7-2.5-.3-1.7.8-2 1.7t0 1c.5 0 2-1.5 3.5-1.2" style="fill:#613e31"/><radialGradient id="a" cx="-947.5" cy="632.9" r="1" gradientTransform="matrix(-17.036 0 0 17.036 -16076.33 -10726.08)" gradientUnits="userSpaceOnUse"><stop offset=".4" style="stop-color:#f58b21"/><stop offset=".7" style="stop-color:#f17e22"/><stop offset="1" style="stop-color:#ec6e24"/></radialGradient><path d="M56.7 48.8c1.9-6.4 5-8 7.8-8 3 0 5.4 1.7 5.4 1.7C74.6 46 74.8 51 75.1 58c.5 6.9.8 21 .8 21s-5.4 2.2-13.7 2.2h-.7C53 81 49.8 78 49.8 78s4.6-21.4 7-29.3" style="fill:url(#a)"/><linearGradient id="b" x1="74.9" x2="77" y1="49.9" y2="64.3" gradientTransform="matrix(1 0 0 -1 0 130)" gradientUnits="userSpaceOnUse"><stop offset=".5" style="stop-color:#ba8d68"/><stop offset="1" style="stop-color:#a47b62"/></linearGradient><path d="M56.6 66.9c.4-3 2.7-14.5 2.7-14.6q.1-.3.6-.4L70 53a.5.5 0 0 1 .5.6L67 68.7c1.8 1 10.4 6.2 12.9 6.7 1.6.4 4.5.8 7.8 1.2 2.6.4 5.3 3.8 6.6 5.9a1.7 1.7 0 0 1-2.3 2.3l-3.6-2.2q-.9.2-4 .2c-2.6-.1-5-1.2-5.1-1.2-1-.4-5.3-1.2-9.5-1.9l-8.5-1.6C55 76.8 56 69.6 56.6 67" style="fill:url(#b)"/><path d="M58.3 52.9c.5-3 2.9-6.6 6.8-6.6l1 .1c4.6.8 6 5.6 5.4 8.7l-2 9.7-13.1-2.3z" style="fill:#ec6e24"/><path d="M54.4 16.6a8 8 0 0 1 5.1-5.2c.4-1.3 2.5-6.3 10.7-5.3q3 .6 4.8 2l1.6.8q.7.4 1.7.1c1.3-.4.8-2.4.8-2.4s4.8.7 3 5.5c1.6.6 2.4 2.3 2.8 4a5 5 0 0 1-2.6 5.3s.2-3.6-4.9-3.2c-1.5.1-3.2.4-4.7 0l-1.6-.9h-.2c-2 1.1.8 5.6-1.3 8.4-.4.5-.7.3-.7.3l-1-1.2q-1-1.5-2-1.4c-2.5.6-1.9 5 1 5.7.3.1-.2 5-6 5.2-3.1 0-4.3-2.4-4.3-2.4s1.3.3 1.5-.9q.2-.8-1.4-2.1a5 5 0 0 1-1.6-6.1 8 8 0 0 1-.7-6.2" style="fill:#543930"/><radialGradient id="c" cx="-978.5" cy="675" r="1" gradientTransform="matrix(-7.153 2.95 4.248 10.3 -9804.18 -4038.16)" gradientUnits="userSpaceOnUse"><stop offset=".5" style="stop-color:#6d4c41;stop-opacity:0"/><stop offset="1" style="stop-color:#6d4c41"/></radialGradient><path d="M55.1 22.8s1 2.2 4.8 1.6c1.6 0 4 3.8 1.8 6.4-2 2.4-5.1 1.1-5.1 1.1s.4.1 1-.1q.6-.5.5-.7.2-1-1.4-2.2a5 5 0 0 1-1.6-6" style="fill:url(#c)"/><radialGradient id="d" cx="-1014.5" cy="644" r="1" gradientTransform="rotate(5.6 69277.4 -77915.03)scale(-7.843 9.896)" gradientUnits="userSpaceOnUse"><stop offset=".5" style="stop-color:#6d4c41;stop-opacity:0"/><stop offset="1" style="stop-color:#6d4c41"/></radialGradient><path d="M54.4 16.6a8 8 0 0 1 5.2-5.2q-.4 1.3.2 2.7s.5 1.4 1.7 2.5q-1.1 1.9-1.5 4c-.3 1.3-.6 2.7 0 3.8-.8 0-2 .3-3.3-.3s-2-1.9-2.4-3.2a7 7 0 0 1 .1-4.3" style="fill:url(#d)"/><radialGradient id="e" cx="-953.5" cy="635.3" r="1" gradientTransform="matrix(-16.032 -1.876 -1.41 12.051 -14320 -9427.2)" gradientUnits="userSpaceOnUse"><stop offset=".5" style="stop-color:#6d4c41;stop-opacity:0"/><stop offset="1" style="stop-color:#6d4c41"/></radialGradient><path d="M59.8 14.1c-1-2.4.2-4.7 2.2-6.2C64.3 6 67.4 5.8 70.2 6q3 .6 4.8 2l1.6.8q.7.3 1.7.1c1.3-.5.8-2.4.8-2.4s4.8.7 3 5.5c1.6.6 2.4 2.3 2.8 4a5 5 0 0 1-2.6 5.3s.2-3.6-4.9-3.2c-1.5.1-3.2.4-4.7 0-1.3-.6-1.8-1.3-3.2-1.1-1.6.1-3.7.8-5.3.6-3.3-.3-4.4-3.6-4.4-3.6" style="fill:url(#e)"/><radialGradient id="f" cx="-978.4" cy="731.8" r="1" gradientTransform="rotate(163.6 -4517.15 -1412.21)scale(8.69 -5.586)" gradientUnits="userSpaceOnUse"><stop offset=".5" style="stop-color:#6d4c41;stop-opacity:0"/><stop offset="1" style="stop-color:#6d4c41"/></radialGradient><path d="M61.7 30.8c1-1.2 1.2-3 2.8-4q.6 1.6 2.4 2.4c.3 0-.2 4.9-6.1 5-3 .2-4.2-2.3-4.2-2.3s3 1.2 5-1" style="fill:url(#f)"/></svg>