<svg xml:space="preserve" width="16" height="16" viewBox="0 0 128 128"><path d="M116 4H12a8 8 0 0 0-8 8v104a8 8 0 0 0 8 8h104a8 8 0 0 0 8-8V12a8 8 0 0 0-8-8" style="fill:#427687"/><path d="M109.7 4H11.5A7.6 7.6 0 0 0 4 11.5v97.9c0 4.2 3.4 7.5 7.5 7.5h98.1c4.2 0 7.5-3.4 7.5-7.5V11.5a7.3 7.3 0 0 0-7.4-7.5" style="fill:#8cafbf"/><path d="M39.7 12.9c0-2.3-1.6-3-10.8-2.7-7.7.3-11.5 1.2-13.8 4s-2.9 8.5-3 15.3c0 4.8 0 9.3 2.5 9.3 3.4 0 3.4-7.9 6.2-12.3 5.4-8.7 18.9-10.6 18.9-13.6" style="opacity:.5;fill:#b4e1ed"/><path d="m38 30.8-5.4 4-3.4-5.4 10.5-7.6h5.2v35.9H38zm36 20.6q11-10.8 13-13.1 2-2 2.7-3.4.7-1.5.7-3.1a4 4 0 0 0-1.4-3.1q-1.4-1.2-3.6-1.3a5 5 0 0 0-3.6 1.3 7 7 0 0 0-2 3.1l-6-2.5a12 12 0 0 1 6.1-7q2.4-1.4 5.6-1.3 3.6 0 6.2 1.4 2.7 1.4 4.2 3.8a10 10 0 0 1 1.4 5.3q0 5.8-5.6 11.3L83 51.3l.2.3h14.5v6H74zM33.7 104q-3.6-2.5-4.8-7.1l6.5-2.6q.6 2.5 2.2 4a6 6 0 0 0 4.1 1.4 6 6 0 0 0 3.9-1.4q1.7-1.3 1.7-3.4 0-2.2-1.8-3.6a8 8 0 0 0-4.7-1.4h-3.1v-6.2h2.8q2.2 0 3.9-1.2 1.5-1.1 1.6-3.3 0-1.8-1.3-3-1.3-1-3.4-1a5 5 0 0 0-3.4 1q-1.3 1.2-1.9 3l-6.2-2.6a12 12 0 0 1 11.6-7.8q3.3 0 6 1.3 2.6 1.3 4.1 3.4t1.5 5a9 9 0 0 1-4.6 7.8v.4q2.7 1 4.3 3.3a9 9 0 0 1 1.6 5.5q0 3-1.6 5.5-1.5 2.5-4.4 4-3 1.3-6.6 1.3-4.5 0-8-2.4m56.5-5H73.7v-5.6l16-23.6H97v22.8h4.4v6.4H97v6.6h-6.9zm0-6.4V79.9h-.4l-8.5 12.6z" style="fill:#fafafa"/></svg>