<svg xml:space="preserve" width="16" height="16" viewBox="0 0 128 128"><path d="m115.5 115.1-6.2 5.8a6 6 0 0 1-8.3-.3L21.8 32l9.4-7.7 84.5 82.6c2.3 2.3 2.2 6-.2 8.2" style="fill:#a06841"/><path d="m29 40 18.8 21.2q4-7.6 4.8-16l-18-17.7a16 16 0 0 0-3.5 4.3q-2 3.8-2.1 8.3" style="fill:#7d5133"/><path d="M59 18.1 51 10a10 10 0 0 0-14.3 0L7 39.4a10 10 0 0 0 0 14.2l8.2 8.3q3 3 7.2 3t7.1-3l29.6-29.5a10 10 0 0 0 0-14.3" style="fill:#82aec0"/><path d="M24.6 20.2c-1.3.1-2.4 1-3.4 1.7-1.5 1.2-3.1 2.4-4 4.1s-1.1 4 0 5.5c2 2.2 17.7-12.1 7.4-11.3" style="fill:#a06841"/><path d="M28 61.2C23.7 56.8 14.5 46 14.3 45.8c-1.6-1.8-5.8-1.3-9-.1Q4 46.2 4 47.4c0 1.4.6 3.9 2.9 6.2l8.2 8.3q3 3 7.2 3 3.3 0 5.8-1.9.8-.6.2-1.4z" style="fill:#2f7889"/><path d="m9.4 114.8 6.2 5.8c2.4 2.2 5.4 2.8 7.6.4l79.2-88.6-9.4-7.7-84.5 82.6c-2.3 2.3-1.5 5.3.9 7.5" style="fill:#a06841"/><path d="M95.2 40.5 78 59.6c5.2-13.5-.6-19.8-.6-19.8L89.6 28a16 16 0 0 1 3.4 4.3q2 3.9 2.2 8.3" style="fill:#7d5133"/><path d="M99.6 20.6c1.3.1 2.4 1 3.4 1.7q2.4 1.7 4 4.1c1.6 2.4 1.1 4 0 5.5-2 2.2-17.7-12-7.4-11.3" style="fill:#a06841"/><path d="m62.3 77.3 11.2 12.6c-1-4.4 0-14.6 4.4-20l-4.8-4.7z" style="fill:#7d5133"/><path d="M124 61.7c-1.1-8.7-5-24-17.4-38.3a57 57 0 0 0-32.1-18s-.7-.2-1 0l-.4.2-8.7 6.4s-.4 5 .2 5.1c4.2.2 20.2 1.4 24.4 7.2l-9.3 11.6a3 3 0 0 0-1 2.7c2.1-1.6 4.8-.2 7.3 2.3 2.6 2.5 4 5.2 2.2 7.3q1.5.3 2.9-.8l8.6-9.2c7.3 3.1 9.4 5.9 13.4 10.6 1.3 1.5 8.7 15.5 10.5 14.4q.5-.6.4-1.5" style="fill:#82aec0"/><path d="m99.7 37.3 5.5-6.1c6.5 5.3 19.7 29.5 18.4 31-1.2 1.5-12.3-19-23.9-25" style="fill:#2f7889"/><path d="M44.7 10.1c.5-.4 1-1.1.6-1.7q-.4-.5-1-.5a8 8 0 0 0-3.5.5c-2.1.7-8 6.7-10.6 9.4-.4.4 0 1 .5 1 2.2-.3 5.9-.9 7-2z" style="fill:#b9e4ea"/><ellipse cx="14.7" cy="115" rx="4" ry="9.7" style="fill:#7d5133" transform="rotate(-45 14.71 115.01)"/><path d="m89 24.3-9.4 11.6a3 3 0 0 0-.8 2.7c1.8-1.4 4.2-.5 6.4 1.5-1.3-1.7-.4-2.8-.4-2.8l11-13.1c.6-.8.5-2-.4-2.7a53 53 0 0 0-21.8-10.3l-10 5q0 .9.5.9h.7c4.5.3 20 1.5 24.2 7.2" style="fill:#2f7889"/><path d="m64.2 16.7 9-5.3q.4 0 .4-.6V6q0-.7-.6-.4l-8.7 5.6q-.7.3-.7 1.3v3.8q0 .6.6.4" style="fill:#b9e4ea"/><path d="M46.9 9.5 11.4 45" style="fill:none"/></svg>