<svg xml:space="preserve" width="16" height="16" viewBox="0 0 128 128"><linearGradient id="a" x1="85.1" x2="85.7" y1="31.1" y2="2.7" gradientTransform="matrix(1 0 0 -1 0 128)" gradientUnits="userSpaceOnUse"><stop offset="0" style="stop-color:#00bfa5"/><stop offset=".5" style="stop-color:#00b29a"/><stop offset="1" style="stop-color:#009e89"/></linearGradient><path d="M121.4 95.1c-19.9 0-59.4 10-74.6 28.9H124V95.1z" style="fill:url(#a)"/><linearGradient id="b" x1="75.2" x2="88.2" y1="16.4" y2="10.4" gradientTransform="matrix(1 0 0 -1 0 128)" gradientUnits="userSpaceOnUse"><stop offset=".2" style="stop-color:#262626"/><stop offset="1" style="stop-color:#262626;stop-opacity:0"/></linearGradient><path d="M96 98.6c-14.6 4-28.8 7.5-40 16.5l-3 8.9h29.3z" style="opacity:.35;fill:url(#b)"/><path d="M104.4 75.9v18.5a15 15 0 0 0 14.8 15l4.8-.1V75.9zm16.5-64.8h-50c-10.6 0-19.2 9.2-19.2 20.3s8.6 20.3 19.1 20.3H121z" style="fill:#e59600"/><path d="M61.3 11.9a99 99 0 0 0 18.9 57.5 51 51 0 0 0 39.3 21.8l4.5-.2V4H71.6L61.4 5c-.2 2.6-.2 4.2-.1 6.9" style="fill:#ffca28"/><path d="M104.5 59.7c-3.2-2-6.5 1-5.2 4 1.3 2.8 11.5 9.6 20.3 9.6q2.2 0 4.4-.5V62c-7.3.5-16-.2-19.5-2.4" style="fill:#795548"/><path d="m113.2 45.1-.6.2q-1.8.8-1.2 2.9c.5 1.2 3 4.8 8 4.8q2.9 0 4.6-1.2v-6.7z" style="fill:#e59600"/><ellipse cx="90.2" cy="28.8" rx="8.8" ry="9.1" style="fill:#404040"/><path d="M80.3 17c4.1-1.8 8.2-2.8 12.8-2.2q3 .6 6 1.7c1.5.7 3.1 1.2 4.4-.2 1.5-1.8.1-3.7-1.2-5a16 16 0 0 0-5.6-3.7 18 18 0 0 0-14.9.8Q78.6 10 76.6 13c-1.2 2.3 1.2 5 3.7 4" style="fill:#6d4c41"/><linearGradient id="c" x1="90.6" x2="97.4" y1="52.2" y2="54.7" gradientTransform="matrix(1 0 0 -1 0 128)" gradientUnits="userSpaceOnUse"><stop offset=".2" style="stop-color:#262626"/><stop offset="1" style="stop-color:#262626;stop-opacity:0"/></linearGradient><path d="M95 69.1c-3.4-5.5-7.5-3.8-9.9-2.6-2.3 1.2-1.8 6.9-1.8 6.9A61 61 0 0 0 97 84.8c-2.7-8.3.2-11.7-2.2-15.7" style="opacity:.35;fill:url(#c)"/><linearGradient id="d" x1="68.6" x2="32.5" y1="10.8" y2="12.5" gradientTransform="matrix(1 0 0 -1 0 128)" gradientUnits="userSpaceOnUse"><stop offset="0" style="stop-color:#00bfa5"/><stop offset=".5" style="stop-color:#00b29a"/><stop offset="1" style="stop-color:#009e89"/></linearGradient><path d="M66.8 116.7c-3.4-3-25.6-9.2-25.6-9.2Q40 107 39 107c-3.3 0-5.6 2.8-7.2 5.1L25.4 124h42.3c.9-2.8 1.4-5.2-1-7.3" style="fill:url(#d)"/><linearGradient id="e" x1="87.4" x2="46.1" y1="61" y2="14.6" gradientTransform="matrix(1 0 0 -1 0 128)" gradientUnits="userSpaceOnUse"><stop offset=".5" style="stop-color:#ffca28"/><stop offset="1" style="stop-color:#ffb300"/></linearGradient><path d="M56.1 119.4c14.6.5 20-10 21-20 .6-5.8-.3-11.3-.3-11.3s7.4-4 12.7-13.6c1.2-2.1 1.7-5.7-.4-7.8-2.2-2.3-6.3-3-10 1.2a43 43 0 0 1-14.7 11C57.8 82.1 48.5 83 42.2 89c-12.2 11.7-1.6 29.7 14 30.3" style="fill:url(#e)"/><path d="M58.6 96.6q-1.7-7.5-7.9-9c-3-1-5-.9-1.4.8q5.6 3 6.9 8.7c1 4.4-1.1 7.4-3.6 8.4-1.5.6-3.5.7-4.6-1.1-1.8-3.2 1.6-5 1.6-5a1.3 1.3 0 0 0-1-2.3s-2.5 1.3-3.5 3.7.2 7.6 5.7 7.6q1.3 0 2.7-.6c6.5-3 5.6-9.2 5.1-11.2M68.9 94q-1.8-7.4-8-9c-3-1-5-.9-1.4.9 3.9 1.8 6 5 7 8.7 1 4.4-1.2 7.4-3.7 8.4-1.4.5-3.5.6-4.5-1.2v-.2l-1.7 2.5a6 6 0 0 0 4.5 1.7q1.3 0 2.6-.5c6.6-3 5.6-9.2 5.2-11.3m8.6-3.3q-1.7-7.4-7.9-9c-3-1-5-.9-1.4.9 3.8 1.8 6 5 6.9 8.7 1 4.4-1.1 7.3-3.6 8.3q-2 .9-3.8-.3l-1.2 2.4q1.2.8 3.2.8 1.4 0 2.7-.5c6.6-3.1 5.6-9.2 5.1-11.3" style="fill:#eda600"/><linearGradient id="f" x1="64.6" x2="79.1" y1="25.6" y2="25.6" gradientTransform="matrix(1 0 0 -1 0 128)" gradientUnits="userSpaceOnUse"><stop offset=".5" style="stop-color:#ffca28"/><stop offset="1" style="stop-color:#ffb300"/></linearGradient><path d="M78.2 98.5c1.9 3 .8 7.4-3.9 9.4-4 1.7-7.2.8-8.7-1.3-2-3-1-7.2 2.8-9.3s8-1.6 9.8 1.2" style="fill:url(#f)"/><path d="M78.9 102.8a9 9 0 0 1-10.3 7A6 6 0 0 1 65 108q-.4-.4-.6-1l-.4-.7-.5-1.7a6 6 0 0 1 .4-3.6q1-1.7 2.4-2.4-.7 1.5-.8 2.9t.3 2.6l.5 1.2.3.7.2.3a4 4 0 0 0 2.1 1.1q1.3.3 2.7.1 1.4 0 2.7-.7 2.7-1.2 4.5-4" style="fill:#eda600"/><path d="m71.6 4-1.7 6.6-.4 1.5-1.5 6.2-.3 1.6-.5 2.1v.1l-.4 1.3-.2.9-.2 1.2-.2.7-.3 1.2v.1l-.3 1-.4 1.8-.4 1.9-.2 1v.1c-.2.6-1 .7-1.2.1l-4.2-10.7-.4-1.2-.4-1.1S57.2 13.7 57 4z" style="fill:#543930"/><radialGradient id="g" cx="154.7" cy="130.7" r="101.6" gradientTransform="matrix(1 0 0 -1.128 0 144.76)" gradientUnits="userSpaceOnUse"><stop offset=".9" style="stop-color:#6d4c41;stop-opacity:0"/><stop offset="1" style="stop-color:#6d4c41"/></radialGradient><path d="M57 4h14.6l-.3 1.1-1.4 5.5-.4 1.5-1.5 6.2-.4 1.6-.5 2.1v.1q0 .8-.3 1.3l-.2.9-.3 1.2-.1.7-.3 1.3-.3 1-.4 1.8-.4 1.9-.2 1c-.1.7-1 .7-1.2.2l-4.6-11.9-.4-1.1S57.2 13.7 57 4" style="fill:url(#g)"/><path d="M19.2 33.1c0 32 19.6 42.4 19.6 42.4" style="fill:none;stroke:#b0bec5;stroke-width:4;stroke-linejoin:round;stroke-miterlimit:10"/><path d="M41.1 66.3 31 77.9l13.6 3z" style="fill:#b0bec5"/></svg>