<svg xml:space="preserve" width="16" height="16" viewBox="0 0 128 128"><path d="M17.7 113.4c-3.9-2.3-9-6.6-8.9-13.7.1-6.1 8.7-15.8 30.8-19.5 22-3.7 34.2-2 44-.9 10 1 16.1 4.3 16.1 4.3l-9 18.1z" style="fill:#04c1ea"/><path d="M56.8 96.8 36.6 102l-16.3 7.2s-2 4.3-1 5.4 16 9.6 42.3 9.7c29.3.1 44.8-7.5 50.2-11.4s-10.6-26.4-10.6-26.4L87.8 81l-15.2 1.4-9 4.5z" style="fill:#f5c876"/><path d="m70 95 22.7-1.3s-3-5.6-4-8.2Q86.8 81 87 80.9c.2 0 2.7-.7 7.2.4S115 87.7 119 97.7c3.4 8.7-7.3 15.4-7.3 15.4s-7.2-5-9.9-7.5a46 46 0 0 1-6.4-7.4l-25.6 1-1.5-1.1z" style="fill:#f2a159"/><path d="M21.3 98.6c-2.8 2.8.5 6.3.5 6.3s-6.5 1.5-6.3 5.3c.1 1.9 2.7 4.1 3.8 4.5 1.1.3 1-1.9 2.5-3.4 4-4 16.4-4.8 25-5.7s12.2-3.9 13.8-5C65 98 63.3 90 68 86.5c7.4-5.7 24.5-4.9 24.4-5.5s-14.2-3.8-27 1.4c-8.6 3.5-8.5 10.8-14.5 12.8s-25-1.1-29.6 3.5" style="fill:#dcecf6"/><path d="M33.4 101.3c-1.8.6-.1 2.5.7 3 1.7 1 4 2 4 2s-4.8 3.6-3.5 5.5c1 1.4 10-2 10-2s5.5 4.4 7.8 4.4c1.8 0 .6-6.5.6-6.5s7.3-1.5 7.3-3.7c0-1.8-3.6-1.3-3.6-1.3s-21.5-2.1-23.3-1.5" style="fill:#ee594a"/><path d="M48.8 96.8c-1.8-.2-5.3 3.8-5.3 3.8s-10.3-.7-10.4 1 5.4 2.5 5.4 3.4-4.5 4.6-4.1 5.8c.4 1.1 9.3-4 10-3.8s7.5 6.8 8.7 5.7c1-1 0-6.6 0-6.6s6.8-1.6 6.8-2.9c-.1-1.2-8.8-2.1-8.8-2.1s-.5-4.1-2.3-4.3" style="fill:#f79228"/><path d="m61.6 17.8-4.7-.3 4.8 35.3s4.8 39.7 5.2 42c.4 3.1 1.1 4.7 3.8 4.3s2.4-3 2.2-5c-.1-2.1-4.4-39.4-4.4-39.4z" style="fill:#4ea4b0"/><path d="M57.7 11.8S35 14.3 20.2 30.7c-11.8 13.1-13.8 25-13 25 1.5.3 5-.9 9 .7 3.9 1.7 6.2 5 7.5 5s6-3.2 12.8-2.2 11.3 5 12.8 5 7-4.3 15.7-4.7c8-.4 13.3 1.5 14.4 1.4S82.6 54 91 51.5s11.1-.4 12.3-.4 1.9-5.9 7.9-8.2 8.2-1.3 9.5-1.5-4.8-14.8-26.4-24.6c-17.8-8.2-36.6-5-36.6-5" style="fill:#ee5948"/><path d="M58.8 13.5s-14.9 4.4-25.2 20.7c-8.5 13.2-8.6 23-8 23.5s5.5-2 11.6-1.4 11.2 5.1 11.5 4c.4-1.2.3-13 1.6-22.8C53 19.1 59 15.1 59 15.1s8 5.3 14 20.4c3.9 9.5 5.8 19.3 6.6 20.5.3.6 3.6-4.5 10.5-6.7 6.3-2 11.8-.4 12.6-.9s-6.4-15.8-18.2-24.7C71 13.7 58.8 13.5 58.8 13.5" style="fill:#fefefe"/><path d="M57.4 4c-2.9.3-2 4.6-1.7 7 0 1.2.3 5.5 3.2 5.2 2.5-.2 2.1-3.4 2-5.8-.3-2.4-.4-7-3.5-6.5" style="fill:#4ea4b0"/></svg>