<svg xml:space="preserve" width="16" height="16" viewBox="0 0 128 128"><path d="M99.3 28.8 93.5 9.5l-2-2.7-.1-.2q-.2-.4 0-1 .3-.3 1-.2l1 .4c5.2 3 28.1 21.8 30 52 1.2 17.1-5 35.4-18.2 48.2a62 62 0 0 1-52 16.7C22.2 118.3 9 99.5 5.5 93.3l-1-2q-1-3.1.2-3.5.4 0 1 .3c1 1.1 2.8 1.9 2.8 1.9l12.8 10.4 64 4.8 22.6-49.4z" style="fill:#ffb803"/><path d="M73.7 87.7A52 52 0 0 0 98 45.4c1-22.8-6.6-38.8-6.6-38.8s14 11.5 21.6 28 9 44-7.7 63.5a58 58 0 0 1-58.8 18.7c-32.2-8.4-41-28.9-41-28.9s17.7 10 37.7 9a57 57 0 0 0 30.5-9.2" style="fill:#ffca29"/></svg>