<svg xml:space="preserve" width="16" height="16" viewBox="0 0 128 128"><path d="M19.7 45.7h-.1l-4.1-.7-4.7-.7a1.1 1.1 0 0 1 .3-2.2s2 .2 4.8.8l4 .6a1.1 1.1 0 0 1-.2 2.2M10.8 50a1.1 1.1 0 0 1-.1-2.2l9-1.2.3 2.1-4.8.8-4.3.6zm1.7 4.7a1.1 1.1 0 0 1-.3-2.2l7.9-2.2a1.1 1.1 0 0 1 .6 2l-7.9 2.3z" style="fill:#888071"/><path d="m53.3 84.4-10.8 8.3s.4 17.3 0 18c-.2.7-4 5.1-3.6 7.6.4 2 1.9 2.7 6 2.9s12.3-1.7 12.3-1.7zM85.1 91l-8 4.5s1.1 3.4 1.1 8.2-.4 7.8-.7 8.8-2.6 2.8-2.4 5.5c.1 1.3 1.7 2.3 4.5 2.2l7-.5 4-26.6z" style="fill:#b85c3e"/><path d="M33.3 27.8s-1.3-4.6-.2-12c1.1-7.2 3-11 4.8-11.3 1.7-.2 5.1 3.2 7.8 7.3 2.6 4 4.7 11.1 4.7 11.1zm30.6 69.5s0 8.4.2 12.2 0 12-.7 13c-1.2 1.4-2.4 1.4-4.9 1.5-1.5 0 .5-9.3.5-9.7V91.5z" style="fill:#fb8b02"/><path d="M38.8 68s-2.3 7.2-1.7 12.6 3.7 12 6.8 14.8 5.9 4.1 6.2 4.8c.2.6 1.4 10 1 11.9s-3.1 7-2.7 9c.5 2 2.4 3.2 7.2 3.1 6.2-.1 5.9-1 6.4-5 .3-2.6-.1-20.7-.1-20.7s3.8.4 9.3 0c5.4-.4 12.2-2.8 12.2-2.8s3.8 12 2.5 15.7-3.5 5.7-3.1 8.2 3.7 3.7 7.7 3.3 7.1-3 7.3-6.5.1-22.7.7-24.2 2.6-6.7 2.4-11.8-.6-7.3-.6-7.3 4.9-1.8 9.4-5.2q5.2-3.7 7.3-11c2.3-8.4-.8-16.7-7-19.5-6-2.7-11.8-1.7-12 2.6s3.7 3.4 6.6 4.5 6.2 6.3 2.7 11.4c-3.5 5-9.6 6.6-11.5 6.8-1.8.2-5.3-2.7-12.5-2.9s-17.7 5-18 4.4 10.3-7.5 11.1-16.4c.7-8.3-1-12.1-1-12.1S74 21.7 72.2 15 67.7 3.7 66 3.8s-7.1 6-9 9-4.2 7.5-4.2 7.5-8.4-.3-12.1 1c-3.4 1.3-7.3 3.3-9.7 7.2s-3.2 6-4.3 6.6-6.5 1.7-7 2.4-1.7 9.4-1.4 10.7.5 4.3 2 6c1.9 2 6.8 5.4 10.7 7.9 3.8 2.4 7.4 4.3 7.8 6" style="fill:#ffb800"/><path d="M73.4 77.3c3.4 0 3.4-4.3 3.4-9.4l-.1-7.2s-2 .3-3.8 1l-3.2 1.2v7.3c0 2.5.3 7.1 3.7 7M79.5 60v8.1c0 4-.3 8.3 3.7 8.3 3.4 0 3.4-4.4 3.5-9.4v-7s-1.6-.3-3.7-.2c-1.5 0-3.5.3-3.5.3" style="fill:#ff9b31"/><path d="M44.8 41c-.7 1.8-2.3 4.3-4.9 3.7-1.6-.5-1.8-4-.8-6.1q1.8-3.8 4.5-3.5c2 .3 2.1 3.6 1.2 6m-17.1-.6c0-1.2-3-2-5.2-2.8q-2.9-1-3.5-.3-1 .9-1.4 3.6-.5 4 .3 7c.4 2 1.2 4.6 4.5 6 2.9 1 4.6-.5 5.8-1.4 1.5-1 .9-3.6-1.3-2.3q-2.4 1.6-4 .4c-1.8-1.3-2.2-5.1-2-5.5.5-1.4 3-1.8 4-2.1s2.8-1.6 2.8-2.6" style="fill:#2c312c"/><path d="M47.3 50.5s-3.2-.3-5.2-.3l-5.6-.2s-1.2.1-1.2-1c0-1.3 1.2-1 1.2-1h5.7l5.2.4a1 1 0 0 1 0 2m-1.8 6.9-.5-.1a52 52 0 0 0-9.7-3.6 1 1 0 0 1 .6-2l5 1.6c2.4.8 4.9 2 5 2.1q.8.6.5 1.4a1 1 0 0 1-1 .6m-5.1 3.9-.6-.2-3-2-3.4-2s-1-.7-.3-1.6 1.5-.3 1.5-.3l3.4 2.2 3 2q.8.6.3 1.4a1 1 0 0 1-.9.5" style="fill:#888071"/><path d="M64.4 12.3c-.5-.1-3.6 3.5-5.2 7q-2.2 5.4-2 6.3c.1.2 1.9 1.8 4.5 3.9q4.1 3.4 5.3 3.5c.8-.1 1-6.1.4-11.5s-2.3-8.9-3-9.2" style="fill:#fed0ab"/></svg>