<svg xml:space="preserve" width="16" height="16" viewBox="0 0 128 128"><path d="M84.2 82c-.9-2 1-3.8 3.7-6.3 4.1-4 10-12.3 2.4-21.6-2.8-3.4-3.5-3.2-4.8-7.2s-4.4-.8-3.2 2l.2.6c-4 .6-11.8 2.2-15 2.2H32.7c-3.1 0-11-1.6-15-2.2l.3-.6c1.1-2.8-1.8-6-3.2-2s-2 3.8-4.8 7.2c-7.8 9.3-2 17.6 2.3 21.6C15 78.2 16.8 80 16 82c-1 2.3-4.5 2.3-4.5 2.3s.5 1.7 2.7 3c1.8 1 4 1.2 5.6 1.2q.3 0 .8.6c4.8 4.8 8.7 6.3 20.2 6.8h18.4c11.7-.4 15.5-2 20.4-6.8q.6-.6.8-.6c1.5 0 3.7-.2 5.5-1.2 2.3-1.3 2.8-3 2.8-3s-3.5 0-4.5-2.3" style="fill:#312d2d"/><radialGradient id="a" cx="108.4" cy="44.2" r="22.3" gradientTransform="rotate(-14.8 328.3 201.64)scale(1 .491)" gradientUnits="userSpaceOnUse"><stop offset=".7" style="stop-color:#454140;stop-opacity:0"/><stop offset="1" style="stop-color:#454140"/></radialGradient><path d="M50.3 96.8v-9.1l27.5-2.2 2 3.4s-3.7 4-8.2 5.5c-3.5 1-7.3 1.2-13.3 2z" style="fill:url(#a)"/><radialGradient id="b" cx="108.4" cy="44.2" r="22.3" gradientTransform="rotate(15 -273.22 577)scale(-1 .491)" gradientUnits="userSpaceOnUse"><stop offset=".7" style="stop-color:#454140;stop-opacity:0"/><stop offset="1" style="stop-color:#454140"/></radialGradient><path d="M49.7 96.8v-9.1l-27.5-2.3-2 3.4s3.7 4 8.3 5.5c3.4 1 7.2 1.3 13.3 2z" style="fill:url(#b)"/><linearGradient id="c" x1="104" x2="117" y1="17.1" y2="17.1" gradientTransform="matrix(1 0 0 -1 0 128)" gradientUnits="userSpaceOnUse"><stop offset="0" style="stop-color:#448aff"/><stop offset=".4" style="stop-color:#3b7dff"/><stop offset="1" style="stop-color:#2962ff"/></linearGradient><path d="M116.9 122.5c0-6.8-3.9-20-11.8-24.7L104 124h13z" style="fill:url(#c)"/><linearGradient id="d" x1="4" x2="96" y1="18.1" y2="18.1" gradientTransform="matrix(1 0 0 -1 0 128)" gradientUnits="userSpaceOnUse"><stop offset="0" style="stop-color:#448aff"/><stop offset=".4" style="stop-color:#3b7dff"/><stop offset="1" style="stop-color:#2962ff"/></linearGradient><path d="M50.1 95.7H50c-22.5 0-46 7.3-46 25.1v3.2h92v-3.2c0-16.7-23.2-25-45.9-25" style="fill:url(#d)"/><path d="m118 54.8-11.2-.3a8 8 0 0 0-7.7 7.8l-.6 36.3 3.8.1.6-36.4a4 4 0 0 1 3.9-3.9l11 .4z" style="fill:#9e9e9e"/><path d="M106.6 60.1h-1.4a2 2 0 0 1-2-2.1v-2.2q.2-2 2-2h1.5q1.8.2 2 2v2.3c0 1.1-1 2-2 2" style="fill:#504f4f"/><path d="m103 123 .5-32.8c0-1-1.3-2-3-2s-3 .8-3 1.9L97 123z" style="fill:#616161"/><path d="m104.8 124 .3-29c0-1.9-1.3-3.4-3-3.4h-3.3c-1.7 0-3 1.4-3 3.3l-.4 29z" style="fill:#504f4f"/><path d="M112.5 61.5c-2.7 0-5.7-1.7-5.7-5.5 0-4.1 3.2-5.2 5.1-5.2 4.5 0 9.2 3.7 10.9 5.2-1.8 1.6-6.6 5.5-10.3 5.5" style="fill:#40c4ff"/><path d="M112 51.6c3.6 0 7.5 2.8 9.5 4.4-2.3 2-6.1 4.7-9 4.7-1.8 0-4.8-1-4.8-4.7 0-3.5 2.6-4.4 4.2-4.4m0-1.7c-2.5 0-5.9 1.7-5.9 6.1s3.5 6.3 6.5 6.3c5 0 11.5-6.3 11.5-6.3s-6-6-12-6" style="fill:#2962ff"/><path d="M112.6 53.7c3.5 1.2 5.2 2.3 5.2 2.3s-1 1.2-4.7 2c-2.7.6-4.4-.4-4.4-2.1s2.1-2.9 4-2.2" style="fill:#84ffff"/><path d="M113.9 110q-.4-2.1-1.1-3.9a19 19 0 0 0-7-9.1 15 15 0 0 0-10-3.1q-3.3.5-4.1 2.5-.6 1.6 0 2.8c-1.1.4-2.6 1.1-3.1 2.5-.6 1.5-.1 2.8.5 3.7-.9.6-2 1.6-2.4 2.7-.5 1.6 1 3.4 2 4.4q-.8 1-1.2 2c-.7 3.5 3.7 5.3 6.4 6a1 1 0 0 0 1-.6l1-1.6a53 53 0 0 0 11.2 2.4c1.9-.6 3.2-2.2 4.3-3.6l.5-.6a9 9 0 0 0 2-6.5" style="fill:#e94539"/><path d="m52.7 124 6.6-19.4H39.4l8 19.4z" style="fill:#f8f8f7"/><path d="M50 92.4h-9v10a8 8 0 0 0 8.2 8.1h1.6c4.6 0 8.3-3.6 8.3-8.1v-10z" style="fill:#edc391"/><linearGradient id="e" x1="36.9" x2="36.9" y1="32" y2="2.8" gradientTransform="matrix(1 0 0 -1 0 128)" gradientUnits="userSpaceOnUse"><stop offset="0" style="stop-color:#1565c0"/><stop offset=".7" style="stop-color:#0d47a1"/><stop offset="1" style="stop-color:#0d47a1"/></linearGradient><path d="M35.7 108.4q.5 0 .9.5l10.1 15h.6L41 96l-7.4 1.2-7 14.9 8.8-3.5z" style="fill:url(#e)"/><linearGradient id="f" x1="36.9" x2="36.9" y1="32" y2="2.8" gradientTransform="matrix(-1 0 0 -1 100 128)" gradientUnits="userSpaceOnUse"><stop offset="0" style="stop-color:#1565c0"/><stop offset=".7" style="stop-color:#0d47a1"/><stop offset="1" style="stop-color:#0d47a1"/></linearGradient><path d="M64.3 108.4a1 1 0 0 0-.9.5l-10.1 15h-.6L59 96l7.5 1.2 6.8 14.9-8.7-3.5z" style="fill:url(#f)"/><radialGradient id="g" cx="90.6" cy="46.7" r="7.4" gradientTransform="rotate(160.7 85.14 57.72)scale(1 .742)" gradientUnits="userSpaceOnUse"><stop offset=".7" style="stop-color:#454140"/><stop offset="1" style="stop-color:#454140;stop-opacity:0"/></radialGradient><path d="M79.4 85.3c-6-8.4 7.6-8.8 7.6-8.8-1.9 1.8-3.7 3.6-2.8 5.6 1 2.3 4.5 2.3 4.5 2.3s-5.3 4.7-9.3.9" style="fill:url(#g)"/><radialGradient id="h" cx="105.4" cy="59.3" r="25.9" gradientTransform="rotate(-94.3 98.08 74.16)scale(1 .833)" gradientUnits="userSpaceOnUse"><stop offset=".7" style="stop-color:#454140;stop-opacity:0"/><stop offset="1" style="stop-color:#454140"/></radialGradient><path d="M89.9 73.6c-1.8 2-5.5 4.9-5.8 6.8C87 64 74.6 67.5 71.8 60q-.9-2.3-1.1-4.7c0-1.2 7.4-12.7 8.1-13.8.9-1.2 14.2 17 14.2 17s3.8 6.8-3.2 15" style="fill:url(#h)"/><radialGradient id="i" cx="90.8" cy="46.7" r="7.4" gradientTransform="matrix(.944 .33 .245 -.7 -84.56 83.96)" gradientUnits="userSpaceOnUse"><stop offset=".7" style="stop-color:#454140"/><stop offset="1" style="stop-color:#454140;stop-opacity:0"/></radialGradient><path d="M20.8 85.3c6-8.4-7.6-8.8-7.6-8.8C15 78.3 16.9 80 16 82c-1 2.3-4.5 2.3-4.5 2.3s5.3 4.7 9.3.9" style="fill:url(#i)"/><radialGradient id="j" cx="105.6" cy="59.3" r="25.9" gradientTransform="rotate(-85.7 130.13 51.82)scale(1 -.833)" gradientUnits="userSpaceOnUse"><stop offset=".7" style="stop-color:#454140;stop-opacity:0"/><stop offset="1" style="stop-color:#454140"/></radialGradient><path d="M10.4 73.6c1.7 2 5.4 4.9 5.7 6.8-3-16.5 9.6-12.9 12.3-20.4q1-2.3 1.1-4.7a120 120 0 0 0-8.1-13.7c-.9-1.3-14.2 16.9-14.2 16.9s-3.7 6.8 3.2 15" style="fill:url(#j)"/><path d="M77.3 50.5H22.7c-6 0-10.7 5.1-10.7 11.4s4.8 11.4 10.7 11.4h54.6c6 0 10.7-5.1 10.7-11.4s-4.8-11.4-10.7-11.4" style="fill:#edc391"/><path d="M50 11.1c-17.4 0-33.5 18.6-33.5 45.4S33 96.3 50 96.3s33.5-13.2 33.5-39.8c0-26.8-16.1-45.4-33.5-45.4" style="fill:#f9ddbd"/><path d="M41.4 49.8c-1-1.2-3-3-7.2-3s-6.3 1.8-7.2 3q-.7 1 0 1.6.4.6 1.8.4c1.4-.2 2.6-1.2 5.4-1.2s4.5.9 5.3 1.2q1.5.3 2-.4t0-1.6m31.1 0c-1-1.2-3.1-3-7.3-3s-6.3 1.8-7.2 3q-.5 1 0 1.6t1.9.4c1.5-.2 2.5-1.2 5.3-1.2s4.5.9 5.4 1.2q1.3.3 1.9-.4t0-1.6" style="fill:#454140"/><ellipse cx="34.2" cy="58.9" rx="4.9" ry="5.1" style="fill:#312d2d"/><ellipse cx="65.3" cy="58.9" rx="4.9" ry="5.1" style="fill:#312d2d"/><path d="M53.9 68.1H46q-1 .6-.7 1.6a5.3 5.3 0 0 0 9.2 0q.3-1.1-.7-1.6" style="fill:#dba689"/><path d="M58.5 76.2a26 26 0 0 1-16.8 0c-1.8-1.1-3.7.6-3 2.2s6.5 5.4 11.4 5.4 10.6-3.7 11.3-5.4c.8-1.6-1-3.3-2.9-2.2" style="fill:#444"/><path d="m78.2 20 .2-2.6-1.1-.2c-.8-4.6-5.9-8.5-10.7-10a32 32 0 0 0-26.5 3c-1 .5-6.3 3.7-10.8.8-2-1.2-2.4-5-2.4-5S17 9.2 20.3 18l-2.4.3v3.4q1.4-.6 3.2-.7l-8.6 13.6 2.8 18.2C14.7 63.3 18 68.4 18 68.4s4.3-20.9 3.9-23.6c0 0 8.2-1 17-6 6-3.3 9.5-4.9 16.2-6.3 10.2-2.3 12.5 5 12.5 5s9.4-1.8 12.3 11c1.1 5.2 1.6 14 2.3 19.4-.1-.5 3-6.3 4-12.2a58 58 0 0 0-8-35.6" style="fill:#312d2d"/><radialGradient id="k" cx="34.3" cy="122.5" r="9.7" gradientTransform="rotate(202.8 -14.2 68.12)scale(-1 1.186)" gradientUnits="userSpaceOnUse"><stop offset=".6" style="stop-color:#454140"/><stop offset="1" style="stop-color:#454140;stop-opacity:0"/></radialGradient><path d="M45.3 7.6c-4.6 1.6-9.5 6.4-15.2 3.9-2.8-1.3-3.2-5.3-3.2-5.5-3.4 4.2-3.7 13.2 7.2 13 4.7-.2 7.2-4.5 8.5-8.2.5-1.3 2.5-2.6 2.7-3.2" style="fill:url(#k)"/><radialGradient id="l" cx="166.2" cy="51.6" r="28.9" gradientTransform="matrix(-.938 -.394 -.218 .528 222.19 60.69)" gradientUnits="userSpaceOnUse"><stop offset=".7" style="stop-color:#454140;stop-opacity:0"/><stop offset="1" style="stop-color:#454140"/></radialGradient><path d="M66 7c7.3 2 11 5.5 12.2 10.5.4 1.4.8 15-25.2-.4-9.7-5.8-7.3-9.6-6.1-10a33 33 0 0 1 19-.1" style="fill:url(#l)"/><radialGradient id="m" cx="30.5" cy="113.9" r="8.6" gradientTransform="rotate(185.6 -3.44 75.41)scale(-1 1.223)" gradientUnits="userSpaceOnUse"><stop offset=".7" style="stop-color:#454140;stop-opacity:0"/><stop offset="1" style="stop-color:#454140"/></radialGradient><path d="M26.8 6c-1 .5-8.6 3-6.7 11.7l7.6 2C21.6 12 27 6 27 6" style="fill:url(#m)"/><path d="M78.7 21.7H21.3V6.3s7.5-2.2 28.8-2.2c13.1 0 28.6 2.4 28.6 2.4z" style="opacity:.74;fill:#423f3e"/><path d="M12 44H8a4 4 0 0 1-4-4v-8a4 4 0 0 1 4-4h4a4 4 0 0 1 4 4v8a4 4 0 0 1-4 4m80 0h-4a4 4 0 0 1-4-4v-8a4 4 0 0 1 4-4h4a4 4 0 0 1 4 4v8a4 4 0 0 1-4 4M49.6 32.8a95 95 0 0 0-39.1 11v9.9a65 65 0 0 1 39.1-11.5c16.5 0 29 6.3 39.8 11.6 0-2.1.4-10.1-.7-12.7-8-4.7-25.6-8.3-39.1-8.3" style="fill:#807978"/><linearGradient id="n" x1="50" x2="50" y1="123.6" y2="76.4" gradientTransform="matrix(1 0 0 -1 0 128)" gradientUnits="userSpaceOnUse"><stop offset="0" style="stop-color:#bdbdbd"/><stop offset="1" style="stop-color:#757575"/></linearGradient><path d="M90 31.6q0-1.6-.7-3.1L81.5 9a8 8 0 0 0-3-3q-.5-.2-.5.3v9q-.2 1.7-1.8 1.8H23.8Q22 17 22 15.4V6.2q0-.3-.3-.2a8 8 0 0 0-3.2 3.1l-7.8 19.4q-.6 1.5-.6 3.1L6 56.2v.4c.2.6.7 1.8 1.8 2.5 0 0 11.2-19.4 40.5-21.6h3.4C81 39.7 92.3 59 92.3 59c1-.7 1.5-1.9 1.6-2.5l.1-.4z" style="fill:url(#n)"/><path d="M67.6 28q-1 0-1-.7v-4.7q0-.6 1-.7t1 .7v4.7q-.1.7-1 .8M58.3 30q-1-.1-1-.8v-8.4q0-.8 1-.8t1 .8v8.4q-.1.6-1 .7M50 28.4q-.9 0-1-.7v-5.4q.1-.8 1-.8t1 .8v5.4q-.1.6-1 .7M32.4 28q-.9 0-1-.7v-4.7q.1-.6 1-.7t1 .7v4.7q0 .7-1 .8m9.3 1.9q-.9-.1-1-.8v-8.4q.1-.8 1-.8t1 .8v8.4q0 .6-1 .7" style="fill:#807978"/><linearGradient id="o" x1="50" x2="50" y1="94.7" y2="68.8" gradientTransform="matrix(1 0 0 -1 0 128)" gradientUnits="userSpaceOnUse"><stop offset="0" style="stop-color:#bdbdbd"/><stop offset="1" style="stop-color:#757575"/></linearGradient><path d="M7.8 59S19.3 39 50 37.5C80.7 39 92.3 59 92.3 59c1-.7 1.5-1.9 1.6-2.5-2.9-5.7-12.6-17.8-36.4-22.8-3.5-.7-11.4-.7-14.8 0-23.8 5-33.7 17-36.6 22.8.1.6.6 1.9 1.7 2.5" style="fill:url(#o)"/></svg>