<svg xml:space="preserve" width="16" height="16" viewBox="0 0 128 128"><path d="m113.9 94-5.5-4.2a460 460 0 0 1-51-45q3.2-5.7 3.4-12.4A27.6 27.6 0 0 0 19.4 7.8q-.8.5-.8 1.4.1.8.8 1.3l16.7 9.6a17 17 0 0 1-11.2 19.4L8.2 29.8q-.7-.4-1.6 0-.8.5-.8 1.4a27.5 27.5 0 0 0 38 25.7 325 325 0 0 1 42.6 51.3A83 83 0 0 0 92 116q7 7.6 14.4 8s5.3.7 10.8-4.8a15 15 0 0 0 5-11.2q-.3-7-8.3-14m-9 19a6.2 6.2 0 1 1 0-12.3 6.2 6.2 0 0 1 0 12.3" style="fill:#82aec0"/><path d="m61.1 48.4-3.6-3.6a27 27 0 0 0 2.1-21.2c-.7-1.3-2-2.6-2.7-1.8.3 9.8-2.5 20-9.3 27.1a27 27 0 0 1-19.7 8c-1.4-.1-5.4-1.6-6.2-.5a28 28 0 0 0 22.1.5q11.8 11.8 19.8 21.3C60.9 73 52.9 63.6 50.7 59.9c-.5-.8-1.1-2.9.4-4.8 2.2-2.6 6.6-5 10-6.7" style="fill:#2f7889"/><path d="M70 67s3.7-1.7 9.3 2.7c5.5 4.5 26.7 22.6 28.5 25s-5.4 0-8-.5S70 66.9 70 66.9M43.3 12q4.5 3.4 8.8 7.3c.7.6 1.8 1.3 2.5.6.9-.6.4-2-.3-2.8A26 26 0 0 0 28.8 6.4C34 8 38.7 8.7 43.3 12" style="fill:#b9e4ea"/><path d="M18.8 37.7c1.2.8 3 1.7 3.9 2 1.2.3 4.4-1 5.4-1.7l-12.3-8-1.4-.8q-1-.3-2-.1c-.8 0-5.2-.1-5.7.7s1.3 1.5 1.9 1.9z" style="fill:#2f7889"/></svg>