<svg xml:space="preserve" width="16" height="16" viewBox="0 0 128 128"><path d="M88.2 9.7V7.4c0-1.9 1.5-3.4 3.4-3.4h22.6c1.9 0 3.4 1.5 3.4 3.4v8.2q2 .2 2.1 2.2V92H8.3V18.8c0-1.8 1.4-3.2 3.2-3.2h70.8a6 6 0 0 0 6-6" style="fill:#f3ab47"/><path d="M8.3 34.4V30a3 3 0 0 1 2.9-3h105.6a3 3 0 0 1 3 3v4.4z" style="fill:#de7340"/><path d="M78.7 24.8v-2.3c0-1.9-1.5-3.4-3.4-3.4H52.7a3.4 3.4 0 0 0-3.4 3.4v2.3a6 6 0 0 1-6 6H11.6a3 3 0 0 0-3.2 3.1v76h111.4v-76c0-1.7-1.4-3.2-3.2-3.2h-32a6 6 0 0 1-6-6" style="fill:#ffca28"/><path d="M8.3 49.7V45a3 3 0 0 1 2.9-3h105.6a3 3 0 0 1 3 3v4.4z" style="fill:#f3ab47"/><path d="M39.8 39.9v-2.3c0-1.8-1.5-3.3-3.4-3.3H13.8a3.4 3.4 0 0 0-3.4 3.3v8.3c-1.2 0-2.1 1-2.1 2.1v73.2c0 1.5 1.2 2.8 2.8 2.8h105.8c1.6 0 2.8-1.3 2.8-2.8V49c0-1.8-1.4-3.2-3.2-3.2H45.7a6 6 0 0 1-6-6" style="fill:#ffe36c"/><path d="M39.8 39.9v-2.3c0-1.8-1.5-3.3-3.4-3.3H13.8a3.4 3.4 0 0 0-3.4 3.3v8.3h35.3a6 6 0 0 1-6-6" style="fill:#f44336"/><path d="M78.7 24.8v-2.3c0-1.9-1.5-3.4-3.4-3.4H52.7a3.4 3.4 0 0 0-3.4 3.4v2.3a6 6 0 0 1-6 6h41.3a6 6 0 0 1-6-6" style="fill:#0288d1"/><path d="M117.6 15V7.5c0-1.9-1.5-3.4-3.4-3.4H91.6a3.4 3.4 0 0 0-3.4 3.4v2.2a6 6 0 0 1-3.5 5.5z" style="fill:#7cb342"/></svg>