<svg xml:space="preserve" width="16" height="16" viewBox="0 0 128 128"><radialGradient id="a" cx="63.6" cy="2931" r="57" gradientTransform="translate(0 -2868.11)" gradientUnits="userSpaceOnUse"><stop offset=".5" style="stop-color:#fde030"/><stop offset=".9" style="stop-color:#f7c02b"/><stop offset="1" style="stop-color:#f4a223"/></radialGradient><path d="M63.6 118.8c-27.9 0-58-17.5-58-55.9S35.7 7 63.6 7c15.5 0 29.8 5.1 40.4 14.4 11.5 10.2 17.6 24.6 17.6 41.5s-6.1 31.2-17.6 41.4a61 61 0 0 1-40.4 14.5" style="fill:url(#a)"/><path d="M111.5 29.7a57 57 0 0 1 8.1 30.2c0 16.9-6.1 31.2-17.6 41.4a61 61 0 0 1-40.4 14.5c-18 0-37-7.3-48.2-23a58 58 0 0 0 50.2 26c15.4 0 29.8-5.2 40.4-14.5a54 54 0 0 0 17.6-41.4q-.1-19.2-10.1-33.2" style="fill:#eb8f00"/><path d="M28.2 91.2c-7.4 3.6-14 3-14 3 2.1 3.8 4.2 5.6 6.2 7.6 0 0 3.7.3 8.2-1.6s7-12.7-.4-9m.3-22c-13.7-1-22.8-9.4-22.8-9.4-.5 5 .2 9.7.2 9.7s6.5 8.1 22.3 9c12 .7 11.8-8.5.3-9.3m70.5 22c7.3 3.6 13.8 3 13.8 3-2 3.8-4 5.6-6 7.6 0 0-3.8.3-8.3-1.6s-7-12.7.4-9m-.3-22c13.8-1 22.8-9.4 22.8-9.4.5 5-.2 9.7-.2 9.7s-6.5 8.1-22.3 9c-12 .7-11.8-8.5-.3-9.3" style="fill:#eee"/><path d="M101 96.9V70.6c-.1-1.7-1.2-2.3-3.4-3-5-2-20.2-6.4-33.6-6.4s-28.6 4.5-33.6 6.3c-2.2.8-3.3 1.4-3.4 3.1V97c0 .5-.2 3.3 3.2 4.9 3.7 1.7 18.7 7.3 33.8 7.3s30.1-5.6 33.8-7.3c3.3-1.6 3.2-4.4 3.2-5" style="fill:#f5f5f5"/><path d="M30.4 67.5q-1.2.2-1.9 1a3 3 0 0 0-.7 1.8v2l.2 2.4a172 172 0 0 1 .2 18.2l-.2 2.3-.2 2.2c0 1.4.2 2.8 1.5 3.9q-1.2-.4-2-1.5c-.8-1-.7-1.5-1-2.3l-.3-2.3-.2-2.3a107 107 0 0 1-.1-18.3q0-2.2.7-4.7a4 4 0 0 1 1.6-2q1.2-.7 2.4-.4m67 0q1.2-.3 2.4.3a4 4 0 0 1 1.6 2.1q.6 2.5.7 4.7A91 91 0 0 1 102 93l-.2 2.3-.4 2.3q-.3 1.2-1 2.3t-1.9 1.5c1.3-1 1.5-2.5 1.5-4l-.2-2.1-.2-2.3a127 127 0 0 1 .2-18.3l.1-2.2v-2.2a3 3 0 0 0-.6-1.7q-.7-.8-1.9-1" style="fill:gray"/><path d="M44.7 42c-4.2 0-8 3.5-8 9.4s3.8 9.4 8 9.4 8-3.6 8-9.4-3.8-9.5-8-9.5" style="fill:#422b0d"/><path d="M44.3 45.9c-1-.8-2.6-.5-3.6 1-1 1.4-.7 2.9.4 3.6 1 .7 2.5.5 3.5-1 1-1.4.7-3-.3-3.6" style="fill:#896024"/><path d="M83 42c-4.2 0-8 3.5-8 9.4s3.8 9.4 8 9.4 8-3.6 8-9.4-3.8-9.5-8-9.5" style="fill:#422b0d"/><path d="M82.6 45.9c-1-.8-2.5-.5-3.5 1-1 1.4-.7 2.9.3 3.6s2.6.5 3.6-1c1-1.4.7-3-.4-3.6" style="fill:#896024"/></svg>