<svg xml:space="preserve" width="16" height="16" viewBox="0 0 128 128"><path d="M100 64.6H28c-7.7 0-14 7-14 15.4s6.3 15.4 14 15.4h72c7.7 0 14-7 14-15.4s-6.3-15.4-14-15.4" style="fill:#7a4c32"/><linearGradient id="a" x1="64" x2="64" y1="97.4" y2="34.6" gradientTransform="matrix(1 0 0 -1 0 128)" gradientUnits="userSpaceOnUse"><stop offset="0" style="stop-color:#e0e0e0"/><stop offset="1" style="stop-color:#9e9e9e"/></linearGradient><path d="M117.1 50.3c-.5-8.6-4.2-13.6-9.5-16.4q-6.5-3.1-14.5-3H34.9q-8-.2-14.5 3c-5.3 2.8-9 7.8-9.5 16.4-.7 11.5 3.7 21.6 10.6 26.5q4 3 8.8 3h67.1q5 0 9.1-3c7-4.8 11.3-15 10.6-26.5" style="fill:url(#a)"/><path d="M64 12.2c-34.7 0-44 24.4-44 59.5 0 35 17 52.2 44 52.2s44-17.2 44-52.2-9.3-59.5-44-59.5" style="fill:#a56c43"/><path d="M40.6 105.3q-.5 0-1-.4c-.6-.6-.6-1.6 0-2.2l9.5-9.5q1-.9 2.1 0c1.1 1 .6 1.6 0 2.1l-9.5 9.6q-.5.4-1 .4m46.7 0q-.7 0-1-.4l-9.6-9.6c-.6-.5-.6-1.5 0-2s1.5-.7 2.1 0l9.5 9.5c.6.5.6 1.5 0 2q-.5.6-1 .5M43 90.5q-4.2 0-7.4-2.5-1-1-.2-2.2 1-1 2.2-.1c3 2.5 7.7 2.5 10.6 0q1.2-.8 2.2.1.7 1.2-.2 2.2-3.2 2.5-7.3 2.5m42.1 0c-2.5 0-5.2-.8-7.2-2.5q-1-1-.2-2.2 1-1 2.1-.1c3 2.5 7.8 2.5 10.7 0q1.2-.8 2.1.1.8 1.2-.1 2.2-3.2 2.5-7.3 2.5M43 54.4q-1 0-1.4-1-.4-1.3.8-2c.4 0 9.1-3.5 21.3-3.5 12 0 21.4 3.4 21.8 3.6q1.3.5 1 1.9-.7 1.3-2 .9s-9.3-3.4-20.8-3.4-20 3.3-20.2 3.3zM79 46l-.5-.1s-6.8-2.1-14.5-2.1-14.4 2-14.5 2a1.5 1.5 0 1 1-1-2.8c.4 0 7.4-2.2 15.5-2.2s15.1 2.1 15.4 2.2a1.5 1.5 0 0 1-.4 3" style="fill:#875334"/><ellipse cx="42.4" cy="77.3" rx="6.5" ry="6.7" style="fill:#42312c"/><ellipse cx="85.7" cy="77.3" rx="6.5" ry="6.7" style="fill:#42312c"/><path d="m69 89.6-.4-.1H59q-1.3.7-.9 2.2c.4 1 2.3 3.5 6 3.5s5.6-2.6 6-3.5 0-1.8-1-2.1" style="fill:#875334"/><path d="M75 100a33 33 0 0 1-22 0c-2.5-1.5-5 .7-4 3 1 2 8.5 7 15 7s13.9-5 14.9-7c1-2.3-1.5-4.5-3.9-3" style="fill:#473530"/><path d="M52.5 64.9c-1.2-2-4.2-4.7-10-4.7S34 63 32.7 64.9q-.7 1.3 0 2.4t2.6.6c2-.4 3.5-1.8 7.4-1.8 3.8 0 6.2 1.3 7.3 1.8 1.2.5 2.3 0 2.7-.6q.7-1 0-2.4m42.8 0c-1.3-2-4.3-4.7-10-4.7s-8.7 2.8-10 4.7q-.7 1.3 0 2.4t2.6.6c2-.4 3.5-1.8 7.4-1.8s6.2 1.3 7.4 1.8 2.2 0 2.6-.6q.7-1 0-2.4" style="fill:#9e9e9e"/></svg>