<svg xml:space="preserve" width="16" height="16" viewBox="0 0 128 128"><path d="M46.3 27.3h3.8v8h-3.8zm35.4 0h3.8v8h-3.8zm35.7 96.7H10.6c-3.8 0-4.6-4.6-4.6-4.6-4.5-31.7 0-78.6 0-78.6a7 7 0 0 1 7-7h102a7 7 0 0 1 7 7s4.5 54.1 0 78.6c0 0-1.4 4.6-4.6 4.6m0 0H10.6c-3.8 0-4.6-4.6-4.6-4.6-4.5-31.7 0-78.6 0-78.6a7 7 0 0 1 7-7h102a7 7 0 0 1 7 7s4.5 54.1 0 78.6c0 0-1.4 4.6-4.6 4.6m3.6-77c-.5-3.7.4-8.2-2.7-10.9a7 7 0 0 0-4.6-1.7H14.2c-7 .2-7 7-7.3 12.6h.3c0 21.6 3.2 34.4 56.9 34.4C120.9 81.4 121 70 121 47" style="fill:#7a442c"/><path d="M13 33.8c-8.3.6-5.5 8.4-5.8 12.1 0 0 1.7-4.7 5.5-4.7h103.1c3.8 0 5.1 4.7 5.1 4.7-.2-3.7 2.7-11.2-6-12z" style="fill:#a65f3e"/><path d="m122 39.9-.2-.5v-.2l-.2-.6v-.1l-.6-1.2-.4-.6-.4-.6-.6-.5q.8 3.5.8 5.6v5.5h2v-1.4l-.1-.4v-1.2l-.1-.5v-.8l-.1-.5v-.8l-.1-.3V40M6 41.4l-.1.7v4.6h2v-5.5q0-2.1.8-5.9L7 37v.1l-.4.6v.1l-.3.8-.2.5v.2l-.1.5v.3l-.1.7z" style="fill:#a06841"/><path d="M121.2 52.3c0 10.6-1.5 15.8-7.8 20.8-7.1 5.8-22.5 8.4-49.7 8.4-25.6 0-41.1-3-48.7-9.1-6.5-5.3-8-10.7-8-20H5.8c.2 21.3 4.3 34 58.3 34 57.2 0 58.3-11.3 58.3-34z" style="fill:#3e2723"/><path d="m122.3 46.5-.4-5.7c0-2-1-4-2.4-5.2q.7 3.5.7 5.6v5.4c0 11.4 0 19.7-6.5 25-7.1 5.7-22.5 8.3-49.7 8.3-25.6 0-41.1-2.9-48.7-9-7-5.7-7.5-14.3-7.5-25v-4.6q0-2.2.7-6A7 7 0 0 0 6 41l-.2 1.7V46c0 22.6 2.6 36 58.3 36 58.4 0 58.3-11.7 58.3-35.4" style="fill:#a06841"/><path d="M4.8 107.9c.2 2.7.8 9 1.2 11.5 0 0 .8 4.6 4.6 4.6h106.8c3.2 0 4.6-4.6 4.6-4.6.4-2.4 1-8.2 1.4-11.4 0 0-1.8 2.6-10.5 4.5-8.6 2-25.9.6-43.8.5-24 0-49 .8-55.8-1-5.7-1.4-8.5-4.1-8.5-4.1" style="fill:#603c24"/><path d="M66.2 25.9q6.3.1 11 1.7c1.1.4 5.6 3.2 7.2 2.8.8-.1 2.6-.8 2.2-3.1-.5-2.6-4.2-2.9-7.1-4a39 39 0 0 0-13.3-2q-6.6 0-12.7 1.8c-3 1-8.5 2.5-8 5.2.6 2.6 3.6 2.3 4.3 2 2.1-1 3.8-2 6.2-2.8 3-1.1 6.8-1.6 10.2-1.6" style="fill:#7a442c"/><path d="M66.1 22.4c9.1 0 13 2.7 15 4.2 5.2 3.6 5.6 1.5 5.5.6-.3-3.5-3.9-6.1-6.8-7.5-4.2-2-9-2.8-13.6-2.8q-6.8-.1-13 2.5c-3 1.4-8.3 4.8-7.7 8.5.4 2.9 4.2 0 5-.5 2.2-1.4 6.1-5 15.6-5" style="fill:#a65f3e"/><path d="M46.7 27.3c-.9-1.5 1-3.4 1.7-4a20 20 0 0 1 5.1-3.2c1-.3 3.7-1 3.9.6.1 1.5-3.7 3-4.6 3.5-3.5 1.6-5.4 4.5-6.1 3" style="opacity:.68;fill:#e6a467"/><path d="M70 95H58q-1.3-.1-1.5-1.4V86q.1-1.4 1.4-1.5H70q1.3.2 1.5 1.5v7.7q-.2 1.4-1.4 1.5" style="fill:#3e2723"/><path d="M71 82H57a1 1 0 0 1-1-1v-4.3q0-1 1-1h14q1 0 1 1V81q-.1 1-1 1.1M70 93H58a1 1 0 0 1-1-1v-6.7q0-1 1-1h12q1 0 1.1 1V92q-.1 1-1 1" style="fill:#e6a467"/><path d="M58.8 78.8c0 2.3-.4 2.6-1.1 2.6s-1-.8-1-2.6.2-2.4 1-2.4 1 .1 1 2.4m1.3 9.7c0 2.2 0 3.5-1 3.5q-1.3 0-1.1-3.6c0-1.7 0-3 1-3 1.2 0 1.1.8 1.1 3" style="fill:#fff59d"/></svg>