<svg xml:space="preserve" width="16" height="16" viewBox="0 0 128 128"><path d="M63.4 98v11.4l10.8-.2V98z" style="fill:#5e6366"/><path d="m84.9 96.4-.2 17.3 36.1-.5-.1-17.6zM4 114l76.7.2-.1-9h-29l.2-7.4L27.4 86 4 106.4z" style="fill:#808378"/><path d="M1.3 106c.5.8 12.4.4 12.4.4l4.2-9.2 20.5.7h13.4L52 41s-9-2.1-9.2-1.5l-2.7 8-24.5 1.4-6.5 16.8-3.8 11.7v13.5L1 94.2s-.1 11 .3 11.8" style="fill:#d70617"/><path d="M55.8 32.8c-.2.2-.2 1.2-.2 2v4.4h68.6v-6.3c-.3-.2-18.2-.2-35.4-.2-16.6 0-32.8-.2-33 0m4.8 61.9-5 3.5s-.2 2 .4 2.7c.3.4 15.4.1 31.6 0 17.6 0 36.2 0 36.4-.3.5-.3.3-3.9.3-3.9z" style="fill:#c6c7c1"/><path d="m63.4 37.9-7.8 1.3v53.6l38.9 2.8 29.7-2.8V41l-33-3.4s-27.9-.2-27.8.3" style="fill:#e1e1e1"/><path d="M68.5 94.7H66l.4-54.5h2.5z" style="fill:#b0b0b0"/><path d="M55.6 65.6h53.8v2.5H55.6z" style="fill:#b0b0b0" transform="rotate(-89.7 82.5 66.85)"/><path d="M96 40h2.5v54.2H96z" style="fill:#b0b0b0"/><path d="M111.1 40.1h2.5v53.8h-2.5z" style="fill:#b0b0b0" transform="rotate(-.1 112.31 67.05)"/><path d="m55.6 35.6 68.7.3v5.9l-68.7-.5zm0 57.1s68.6-.3 68.6 0c.2.3.1 5.1.1 5.1l-68.8.3z" style="fill:#4f8b26"/><path d="M52 41s-4.3.6-6.6 3C43 46.2 42 50 42 50l-24.8.3-9.5 27.8-.3 3.5v12.5l-6.5.2s0-4.3.3-4.6 2.5-.1 2.5-.1-.2-12.2.1-13c.3-.7 9.9-26.8 10.3-27.5s.7-2.4 2.5-2.5l20.2-.4s.2-6.3 5.3-10.3c5.2-4 10-3.2 10-3.2zM39 98s.6-3.3-1-4.6A34 34 0 0 0 25.2 92c-6.4.1-9.4.4-11.8 4.3a13 13 0 0 0-1.5 8.4q.6 2.4 2.6 2.3c2 0 2.6-.5 2.6-2.7 0-2.9 1.5-4.4 3.3-5.2s4-1 7.6-1z" style="fill:#f92610"/><path d="M6 106.5v-8c0-3 0-8.1.5-8.3.4-.1 3.2-.4 3.7.2s.2 16 .2 16l-2 .1zm17.4-56.7q-1.9.3-2 2.6l.2 27.4c0 .8.6 1.9 3 2h10.2q1.8-.4 1.8-2.7c.2-1.4 0-25.6 0-26.9 0-.9-.2-2.5-3-2.5-1.1 0-9-.1-10.2.1" style="fill:#c7c9c9"/><path d="M25.2 52.5q-1.2.3-1.2 2v22.7c.1.6.4 1.6 2 1.6h7.1q1.3-.2 1.3-2V54.4c0-.7-.2-2-2.2-2-.7-.1-6.2-.2-7 0" style="fill:#b0e2fd"/><path d="M18.6 51.6c-.1-1.2-.5-1.3-1.3-1.3q-1.2-.1-1.7 1.1c-.4 1-8.6 24.2-8.7 24.9l-.2 3.8q-.2 1.3.6 1.7.6.2 5 .2 4.8.1 5.6-.8c.8-1 .6-4 .6-6z" style="fill:#c7c9c9"/><path d="M16.5 56c-.6-.1-7.3 20.7-7.3 21s-.2 2.2 0 2.3c.1.2 1.7.2 3.3.2s3.1 0 3.4-.2c.5-.5.2-5.7.4-11.1.2-6 .4-12.2.2-12.2" style="fill:#b0e2fd"/><path d="M28.4 104.2c-6.3.1-10.3 5-9.8 10.7s4.9 9 10 9c5.2 0 9.6-3.3 9.8-9.6a9.4 9.4 0 0 0-10-10.1" style="fill:#524745"/><path d="M28.3 109.2c-2.4 0-4.4 1.7-4.4 4.7-.1 2.3 1.8 4.2 4.3 4.4 3 .3 4.9-2 4.8-4.6-.1-2-1.4-4.6-4.7-4.5" style="fill:#c8c8c8"/><path d="M78.8 114.8a9.7 9.7 0 0 0-10-10.5c-5.8 0-9.4 4.3-9.7 9.4-.3 5.3 2.7 9.8 9 10.4a9.4 9.4 0 0 0 10.7-9.3" style="fill:#524745"/><path d="M73.5 114.3c0-2.4-1.4-4.5-4.3-4.8-2.3-.2-4.3 1.6-4.7 4.1-.4 3 1.8 5 4.3 5 2 0 4.6-1.1 4.7-4.3" style="fill:#c8c8c8"/><path d="M103.7 112.4a9.7 9.7 0 0 0-12.2-8c-5.5 1.3-8.1 6.2-7.3 11.3s4.8 9 11 8.1 9.5-5.8 8.5-11.5" style="fill:#524745"/><path d="M98.5 113.3c-.5-2.4-2.4-4-5.3-3.7-2.3.3-4 2.5-3.7 5 .3 3 2.8 4.5 5.3 4 2-.4 4.3-2.2 3.7-5.3" style="fill:#c8c8c8"/><path d="M111.1 123.8a9.7 9.7 0 0 0 11.2-9.5c.2-5.7-3.8-9.5-9-10.2-5.1-.6-9.8 2.2-10.8 8.4s3 10.7 8.6 11.3" style="fill:#524745"/><path d="M112 118.5c2.3.2 4.5-1.1 5-4 .3-2.3-1.2-5-3.8-5.3-3-.4-5 1.8-5.3 4.3-.2 2 .8 4.7 4 5" style="fill:#c8c8c8"/></svg>