<svg xml:space="preserve" width="16" height="16" viewBox="0 0 128 128"><path d="M63.9 43.7s-58.6 6-58.3 11.7c.1 4.6-1.1 20.3 12 36.4 8.7 10.6 23.8 20.8 48.6 20.8a52 52 0 0 0 46-23.4c10.7-15.7 10.2-30.3 10.2-34 0-7.3-45.7-14.4-58.5-11.5" style="fill:#d5d5d5"/><path d="M66.9 30.6s-4-2.6-7.6-2.3-5.3 2.5-5.3 2.5L42.7 59l12 13.4 8 5.4 15.1-.4 6.7-46.7z" style="fill:#307d31"/><path d="M67.7 37.5s-2.8-4.7-3.1-8.6 2.8-6.3 4.4-6.3c4 0 4.5 2.5 7 2.3 2.3-.2 3.1-2.3 3.8-5.6s3.5-5.2 6-3.5c2.6 1.5 1.7 6.2 1.7 6.2s2-2.4 4.2-.6c2 1.6 1.3 6.4 1.3 6.4s4.3-5 8-2.6.8 10.8.8 10.8l-1.2 7.5-20.7-8s-1.2-2.8-5.6-2.4-6.6 4.4-6.6 4.4M45.5 57.3s3.7-7.5 11.8-5c8.4 2.6 6.9 10.8 6.9 10.8s2.1-1.6 4.7-1.9 5.6.3 5.6.3l-.4-4.4s-5.4.7-8.6-3.1C61 48.8 64 42.9 64 42.9l.8-3.8-7.7-5-5.3-6.8s-1.8-3.8-6.5-4-7 3-7 3-10.1-2.9-15.3 1.5c-3.5 3-2.6 8-2.6 8s-2.4 1.4-6.7-2.2c-1.9-1.6-5.6-.4-6.1 2.6s.6 6.7.6 6.7l-3.4 2 11.5 12z" style="fill:#58a12f"/><path d="M71.2 54.6s-4.7.3-8.3-8c-2.1-5-.6-14.6 4.4-13.7 4 .8 3.5 7.5 6.2 8 1.4.3 4.4-6.9 11-7.3 5.2-.4 12.1 6.6 12.1 6.6s3.1-2.2 3.4-3 1-3.7 4.3-3.5c3.8.3 3.3 4.4 3.3 4.4s4.6-1.7 7.9 0c3.5 1.7 3.3 5.1 3.3 5.1s3.2-3.4 5.7-1.7-4.6 15.9-11.5 23S97.4 71 97.4 71z" style="fill:#86c82c"/><path d="m28 32-1-1.6s2.6-3.3 8.3-2.4c6.2 1 6.8 5.3 6.8 5.3s-3.2 1.3-3.3 1.1l-3.1-3.3-6 .2z" style="fill:#d2608c"/><path d="M28.5 33.2s2.9-1.3 5.7-.7 3.5 2.9 3.5 2.9l2.6-1s-1.6-3.6-5.5-4.3c-4.3-.8-7 1.8-7 1.8z" style="fill:#fff"/><path d="M27.6 37.4s9.2-2.6 12.7-4.4c5.6-2.8 10.5-5.3 12-6.2q1-1 2.3-1c1.3 0 10.2 18.5-4.8 25.2-6 2.7-12.5 3.6-12.5 3.6l-9.4-8z" style="fill:#fe2a19"/><path d="M30.8 40c-.3.7 4.7 10 15 6.2 9.7-3.6 6.5-15 6-15.5-.5-.2-5 2.3-10 4.5-5.3 2.3-10.8 4.3-11 4.8" style="fill:#cb1c35"/><path d="M38.2 41.9q2.6.7 6.2-1c2-1 4.6-2.3 4.7-3.9 0-1.5-3.6-3.1-4.6-3.1s-5.2 2-5.8 2.8c-.5 1-1.8 4.7-.6 5.2" style="fill:#ff5f5d"/><path d="M37 41.8c-1-.2-1.8.7-2 1.8-.4 1.5 1 1.8 1.7 1.3 1-.9 1.2-2.9.3-3m5.2.7c-1 0-1.4 1.6-1 2.6.4 1.5 1.8 1 2 .3.5-1.4-.1-3-1-2.9m5.1-2.6c-.7.7 0 2 .9 2.7 1.2.7 2-.4 1.7-1.2-.5-1.3-2-2-2.6-1.4m1.8-4.4c0 .9 1.5 1.3 2.5 1a1 1 0 0 0 .2-2c-1.3-.5-2.7.1-2.7 1" style="fill:#f7ca76"/><path d="M47.8 59.2c.9-2.5 5.6-6.4 10.7-2.8 4.9 3.6 2.6 9.4.5 11.3-2.2 2-6.8 2.7-9.3-.1s-3.2-5.1-2-8.4" style="fill:#e9fcae"/><path d="M18.3 62.6c.3-.3 1-1.1.5-2.6a26 26 0 0 0-5.6-9.2C7.5 44.1 4.7 42.4 3 44.3s.8 6.7 4.4 11 9.4 9.3 11 7.3" style="fill:#307d31"/><path d="M16.4 58.5c-.5.5-3.5-1.6-6.6-5.3s-5.4-6.7-4.4-7.5c1.2-.9 5.7 3.8 7 5.4 1 1.7 5.2 6.4 4 7.4" style="fill:#e9fcae"/><path d="m81.3 39.5 1.7-1.7s5.5 7.3 9.8 4c5.2-3.8 0-10.1 0-10.1l2.3-1.1 3 4.6.2 6.5-5.1 4.4s-5.6 0-6-.6-5.9-6-5.9-6" style="fill:#fff"/><path d="m79.6 41 2.2-2s6.3 9 12.6 4.3c6-4.5.5-12.6.5-12.6l2.3-1.3s4.4 5 2.6 11.5A9.4 9.4 0 0 1 89 47.7c-6.7-1.5-9.3-6.7-9.3-6.7" style="fill:#d2608c"/><path d="M89 52.5s.1-4.2 6-8.8c5.7-4.7 10.6-3.4 12.3-2 1.6 1.4 3.6 6.5-.9 12.1-2.1 2.7-3.7 3-6 2.8-2.8-.2-7.4-2.5-7.4-2.5z" style="fill:#2c7b2e"/><path d="M105 43.6c-2.4-1.7-7.4.9-10 3.3-2.7 2.6-3.5 5.5-3.5 5.5l6 2.1s3.4 0 5.7-2.6c3.3-3.9 3.7-7.1 1.8-8.4" style="fill:#e0feac"/><path d="M72.4 45.7c-.8.4-4 4.1-3 11.4 1 7.6 6.4 12.6 15.3 13.2 11.5.9 18-7.5 18.8-9s2.7-5 1.4-6c-1.2-1.1-8.9-1.6-17.7-4.4-10-3-12.9-6.1-14.8-5.2" style="fill:#fe2a19"/><path d="M76.4 50c-1.2.6-2.5 11.7 7.3 15 8.5 2.8 14.8-6.5 14.1-7.8s-4.4-.8-10.7-3-9.7-4.7-10.7-4.2" style="fill:#cb1c35"/><path d="M80.7 55.9c.3 1.5 1.6 3.3 4.8 4.6 2.4 1 5 .6 6.2.1 1.1-.5.7-5 .2-5l-8-2.7c-.9-.4-3.5 1.4-3.2 3" style="fill:#fe6261"/><path d="M80.1 56c0-1-1.5-1.2-2.6-.9-1.3.4-1 1.8-.2 2 1.4.5 2.9-.2 2.8-1.1m3 3.8c-.7-.5-2 .4-2.3 1.4-.6 1.3.7 2 1.4 1.5 1.2-.8 1.6-2.3 1-2.9" style="fill:#f7ca76"/><path d="M68.9 76.3s.2-1.9-1-4.5c-.7-1.1-3-3.4-1.2-5.3 1.7-2 7.4-.7 9.2-.3 1.9.4 4.9.3 6-.8s2-5.8 6-7c4.3-1.1 6.3 2.6 8 4.2q2 2 6.2.7c2.8-1 2 2.7 2 2.7l-3.3 7.3zM17.9 66s-3-5.8-5-14.5-1.7-11.7.3-12.4c3.5-1.1 5.8 3 7 2.9s1.5-5.4 5-6.2c3.6-.8 5 2.5 6.7 5.4s5 10.6 5 10.6 3.2-1.5 6 0c2.7 1.4 5.4 5.8 6.5 8.8l2.2 5.8s3.9.7 7.4 2.9c4 2.4 6 7.1 6 7.1l-19.8 1.3s-24-8.6-24.3-9c-.2-.4-3.3-3-3-2.7" style="fill:#86c82c"/><path d="M21 69s-1.2-2.8-.8-6.5 2.2-6 5-6c2.3 0 6.2 1.4 10 6.7s4.3 10.2 4.3 10.2l-16-2.1z" style="fill:#2d792a"/><path d="M22 68s-1.5-6.3.5-7.8c1.3-1.1 3.4-.8 7.2 3.4 4.3 4.8 5.3 9 5.3 9z" style="fill:#e7fcae"/><path d="m41.5 74.1 1.9.2s1-5 5.1-7c4-1.9 8.1-.3 8.1-.3l.7-2.3-4.4-1.8-5.8 1.2s-5.4 4.9-5.4 5.1z" style="fill:#fff"/><path d="M38.3 74.8c0-.2.5-7 6.2-10.8 7.3-4.8 13.3-.7 13.3-.7l-.8 2.3S50.8 63 46 67c-4 3.4-4.9 8.5-4.9 8.5z" style="fill:#d2608c"/><path d="M67.5 108.7A50.4 50.4 0 0 0 116.8 70c1.9-6.8 2.5-13 2.5-13l-12.2 13.7S69 78.1 67.6 78.1l-22.4-1.7-21.7-5.1-15-14.5s.3 9 2.8 15.8c1.8 5.3 12.6 36.2 56.2 36" style="fill:#f6f6f6"/><path d="M64 80.4c16.6.2 40.9-4 50-13.2 5.8-5.8 5.4-11 5.4-11S108.9 76 63.9 75.3C25.7 74.8 8.5 56.8 8.5 56.8s1 6.2 5.7 10Q30.8 80.1 64 80.4m-43.5-1.6c-2 1.8.1 6.5 4.9 10.7 4.7 4.2 9.5 7.5 11.9 5.2 2.5-2.5-3.4-8.4-6.7-11.3s-7.6-7-10.1-4.6" style="fill:#fff"/></svg>