<svg xml:space="preserve" width="16" height="16" viewBox="0 0 128 128"><path d="m70.2 100.8 48.6 4.6c4.6.5 5.7-2.1 5.7-4.3v-2.6l-59.7-8.4c0 3 2.4 10.7 5.4 10.7" style="fill:#c62828"/><path d="m72 98.5 7.7.7 40.9 4a4 4 0 0 0 4-4L122.3 33a4 4 0 0 0-4-4L72 24.8c-3 0-5.5 2.4-5.5 5.4v63c0 3 2.5 5.4 5.5 5.4" style="fill:#f44336"/><path d="m57.8 100.8-48.6 4.6c-4.6.5-5.7-2.1-5.7-4.3v-2.6l59.7-8.4c0 3-2.4 10.7-5.4 10.7" style="fill:#c62828"/><path d="m56 98.5-7.6.7-41 4a4 4 0 0 1-4-4L5.7 33a4 4 0 0 1 4-4L56 24.8c3 0 5.5 2.4 5.5 5.4v63c0 3-2.5 5.4-5.5 5.4" style="fill:#f44336"/><path d="M78.8 83.7H49.3l-1 15.5 9.3.9s2 4.9 6.4 4.9 6.4-5 6.4-5l9.2-.8z" style="fill:#424242"/><path d="m79.5 100.4-8.5-.7m-22.5.7 8.5-.7" style="fill:none;stroke:#616161;stroke-width:2.5;stroke-miterlimit:10"/><path d="m119.7 32.8-4-5.5L64 86 12.4 27.3l-4 5.5-.6 65.4s10.6 1.3 24.8-.1c12.4-1.3 18.2-4.5 22.3-3.7 5 1 5.9 4 6 4.6.5 1.4 1.4 2.6 3.1 2.6s2.5-.6 3-2.4c.2-.5 1.1-3.8 6-4.8 4.2-.8 10 2.4 22.4 3.7 14.2 1.4 24.8 0 24.8 0z" style="fill:#94c6d6"/><linearGradient id="a" x1="50.9" x2="50.6" y1="88.2" y2="70.9" gradientTransform="matrix(-1 0 0 1 168.13 0)" gradientUnits="userSpaceOnUse"><stop offset=".3" style="stop-color:#82aec0"/><stop offset="1" style="stop-color:#82aec0;stop-opacity:0"/></linearGradient><path d="m114.3 91.9.2-26.4h5.4l.3 32.7s-4.3-1.7-5.9-6.3" style="fill:url(#a)"/><linearGradient id="b" x1="98.2" x2="55.4" y1="84.6" y2="84.6" gradientTransform="matrix(-1 0 0 1 168.13 0)" gradientUnits="userSpaceOnUse"><stop offset="0" style="stop-color:#2f7889"/><stop offset="1" style="stop-color:#82aec0"/></linearGradient><path d="m114.6 76.5-.3 15.4s-12-.6-31-4A22 22 0 0 0 64 92.8l-.1-16.2z" style="fill:url(#b)"/><linearGradient id="c" x1="58" x2="15.3" y1="84.6" y2="84.6" gradientUnits="userSpaceOnUse"><stop offset="0" style="stop-color:#2f7889"/><stop offset="1" style="stop-color:#82aec0"/></linearGradient><path d="m13.5 76.5.2 15.4s12-.6 31-4A22 22 0 0 1 64 92.8l-.1-16.2z" style="fill:url(#c)"/><linearGradient id="d" x1="10.8" x2="10.5" y1="88.2" y2="70.9" gradientUnits="userSpaceOnUse"><stop offset=".3" style="stop-color:#82aec0"/><stop offset="1" style="stop-color:#82aec0;stop-opacity:0"/></linearGradient><path d="m13.7 91.9-.2-26.4H8.1l-.3 32.7s4.3-1.7 5.9-6.3" style="fill:url(#d)"/><path d="M115.7 27.3s-26.6-5-38.2-5.6c-11-.6-13.2 5-13.5 5.6-.2-.7-2.5-6.2-13.4-5.6-11.7.6-38.2 5.6-38.2 5.6l-1.2 64.4s31.6-6.6 39.2-5.7S64 92.7 64 92.7s6-5.9 13.6-6.7c7.6-.9 39.2 5.7 39.2 5.7z" style="fill:#f5f5f5"/><path d="m53.6 21.7-5.4 64.2h2.2A26 26 0 0 1 64 92.8l-.2-65.4s-1.3-5.1-10.2-5.6" style="opacity:.26;fill:#94c6d6"/><g style="opacity:.5"><path d="M25.3 30.2q-4.2.8-6.2 1v2.1l6.2-1.1zM49.7 27v2c5.3 0 8.2 1.3 9.2 1.8v-2.2c-1.6-.7-4.7-1.7-9.2-1.6m-4.4.2-15.6 2.3v2c5.2-.9 11.3-1.8 15.6-2.3zm-10.6 8.6c-6.5 1-13 2.2-15.6 2.7v2l15.6-2.6zm12-1.5-7.7.9v2l7.9-1c7.1-.5 11 1.2 12 1.8v-2.2c-2-.9-6-2-12.2-1.5M26.4 44.4 19 45.7v2l7.3-1.3zM58.9 43c-2-.8-6-2-12.3-1.5-4 .3-10.3 1.3-15.9 2.2v2c5.7-1 12-1.9 16.1-2.2a21 21 0 0 1 12 1.8zm0 7.3c-2-1-5.9-2.1-12.3-1.6l-2.1.2v2l2.3-.2C54.2 50 58 52 58.9 52.5zm-18.7-.9a551 551 0 0 0-21 3.5v2c3-.6 13-2.4 21-3.5zm-11.9 9.1L19 60v2c1.7-.3 5.1-1 9.2-1.6zm30.6-1c-2-.9-5.9-2.1-12.4-1.6-3.6.3-8.8 1-13.9 1.9v2c5.1-.8 10.5-1.6 14.1-2 7.6-.5 11.4 1.5 12.2 2zM59 72c-1.9-.9-5.8-2.2-12.3-1.7v2c8.3-.7 12 1.8 12.2 2zm-32.6 1.2-7.2 1.3v2l7.2-1.3zm4.3-.7v2q6-1 11.6-1.7v-2c-3.5.4-7.7 1-11.6 1.7m7 6.1c-7.2 1-15.2 2.5-18.5 3v2c3-.5 11.2-2 18.5-3zm21.3.6c-1.9-.9-6-2.2-12.6-1.7L42 78v2l4.5-.5c8.6-.7 12.4 2 12.4 2zM36.2 64.4c-6.8 1-14 2.3-17 2.9v2l17-2.9zm22.8.3c-2-.8-6-2.1-12.5-1.6l-6 .7v2l6.1-.7c8-.6 11.7 1.5 12.3 2z" style="fill:#757575"/></g><g style="opacity:.5"><path d="M88.4 29.7c8.3 1.1 19.1 3 22 3.6v-2c-3.4-.7-14-2.5-22-3.6zM84 27.2l-1.2-.1a25 25 0 0 0-12.1 1.5v2.2c1.1-.6 4.9-2.3 12-1.7l1.4.1zM102.4 39l8 1.5v-2l-8-1.4zM98 36.3c-5.4-.8-11.2-1.7-15.1-2a25 25 0 0 0-12.2 1.5V38c1-.6 4.8-2.3 12-1.7 4 .3 9.9 1.2 15.3 2zm-.8 7.1v2l13.3 2.3v-2zm-8.8 5.9-5.4-.6c-6.4-.5-10.4.7-12.3 1.6v2.2c.9-.5 4.7-2.4 12.1-1.8l5.6.6zm4.4.7v2c7.2 1 15 2.4 17.7 2.9v-2c-3-.6-10.7-2-17.7-3m.8 7.3q-6.2-.9-10.5-1.3a25 25 0 0 0-12.4 1.6v2.3c.7-.5 4.6-2.5 12.2-1.9 2.8.2 6.7.8 10.7 1.4zm4.4.8v2c5.4.8 10.4 1.7 12.4 2.1v-2zm7 8.3v2l5.4 1v-2zM89.3 71l-6.1-.7c-6.7-.5-10.7.8-12.5 1.7v2.3c.2-.2 4-2.7 12.3-2l6.3.7zm4.3.6v2c7 1 14.1 2.4 16.8 2.9v-2zm3.6 7.8a212 212 0 0 0-14-1.9c-6.7-.5-10.7.8-12.5 1.7v2.2s3.8-2.6 12.4-1.9c3.6.3 9 1 14.1 1.9zm4.3.7v2l9 1.6v-2zM83 63c-6.5-.4-10.5.9-12.3 1.7V67c.5-.4 4.3-2.5 12.2-1.9zm4.3.6v2c4.1.5 9 1.3 13.4 2v-2zm-7.6-22.2c-4.5 0-7.4 1-9 1.6v2.3c.8-.5 3.7-1.9 9-2zm4.3.2v2l8.8 1.1v-2q-4.9-.8-8.7-1.1" style="fill:#757575"/></g><path d="M71.2 98.5q-1.9-.1-2.6 1.6c-.5 1.6-1.8 3.8-4.6 3.8-2.9 0-4.2-2.2-4.7-3.8q-.7-1.6-2.5-1.6h-.4v.3a7.5 7.5 0 1 0 15.1-.3z" style="fill:#616161"/></svg>