<svg xml:space="preserve" width="16" height="16" viewBox="0 0 128 128"><path d="M32.3 68s4.2-22 11.5-31.3c4.6-5.9 25-18.7 44.7-13.5l1.8.3a68 68 0 0 1 7.1 22.7c-.2 10-5.4 39.4-5.4 39.4S80 81.1 73 78C49.4 67.5 32.3 68 32.3 68" style="fill:#2196f3"/><path d="M97.1 42.9c-.3-1.6-7-19.4-7-19.4s13.1 3.4 23 13.7c4.6 5 10 11.2 10.7 18.2a162 162 0 0 1-3 32.3c-.2.7-7.5.7-8 .7-3.3.1-14.6-.3-21-3 0 0 6.5-36.5 5.3-42.5" style="fill:#1e88e5"/><path d="M48.8 71.2c0-.5 6.4-29.4 13.1-35.6 6.2-5.9 21.7-13.3 21.7-13.3l6.5 1.4s6.7 13.7 7.2 21.1c.7 10.3-5.1 41-5.1 41" style="fill:none;stroke:#0f60b2;stroke-width:2.0795;stroke-miterlimit:10"/><path d="M82 21.2c.3-1.3 2.8-2.2 5.7-1.6s5 2.5 4.7 3.8-2.7.6-5.6 0-5-1-4.8-2.2" style="fill:#0f60b2"/><path d="M5.3 93.3c-.1 1 0 4 3.6 2.2 3.7-1.7 11.3-7.5 11.3-7.5s-7.4-2.7-11.3-.4-3.6 4.6-3.6 5.7" style="fill:#0d47a1"/><path d="m7.6 86.3 24.7-18.4s5.2-1 17 1C63.7 71.2 99 87.2 99 87.2l-17.5 14.5s-11 8.5-22 3.4C42.9 97.5 25 87.5 19.8 86.4c-10-2.4-12.1-.1-12.1-.1" style="fill:#76c8ff"/><path d="M63 108.1c-7.9-2-34.5-16.8-43.2-19.5-2.6-.8-7-1.7-9.7-.2C7.7 89.6 5.6 92 6.3 95q0 .9.7 1c-1 .4-2.1-.2-2.6-1q-.7-1.5-.3-3.1a10 10 0 0 1 3.5-5.6c2.3-1.7 6.4-2.8 13.3-.6 12.1 3.7 36.3 18 42.6 19.3 9.2 2 16.6-3.6 18.8-5 2.3-1.2 2.1-.2.6 1-1.6 1.1-10 9.6-20 7.1" style="fill:#2196f3"/></svg>