<svg xml:space="preserve" width="16" height="16" viewBox="0 0 128 128"><ellipse cx="96.7" cy="75.1" rx="7.5" ry="10.2" style="fill:#176bc6" transform="rotate(-6.2 96.65 75.06)"/><ellipse cx="45.5" cy="24.5" rx="7.7" ry="10.1" style="fill:#176bc6" transform="rotate(-3.4 45.49 24.46)"/><ellipse cx="63" cy="30.6" rx="9.6" ry="7.7" style="fill:#176bc6" transform="rotate(-83.1 62.97 30.56)"/><ellipse cx="27.2" cy="27.8" rx="7.8" ry="10.7" style="fill:#176bc6" transform="rotate(-13.2 27.2 27.8)"/><path d="M89.7 94.4c15-8.5 32.4 3.4 30 12.5-2.4 9.8-11.6 4.5-18.6 7-4.3 1.6-10.8 10.4-18.3 5-6.5-4.6-3-19 6.9-24.5m-51.5-54C49 37.6 64 46 62.3 55.5c-1.6 9-14.1 5.1-19.2 7-6.6 2.5-15 9.7-19.7 2.5-5.3-8.2 5.3-22.1 14.8-24.6" style="fill:#176bc6"/><ellipse cx="12.9" cy="40.9" rx="7.7" ry="9.9" style="fill:#176bc6" transform="rotate(-30 12.91 40.93)"/><ellipse cx="79.1" cy="82.4" rx="8" ry="10.2" style="fill:#176bc6" transform="rotate(-30 79.08 82.36)"/><ellipse cx="67.2" cy="97.3" rx="7.5" ry="10.2" style="fill:#176bc6" transform="rotate(-35.4 67.22 97.3)"/><ellipse cx="115.1" cy="78.3" rx="7.4" ry="9.5" style="fill:#176bc6" transform="rotate(-3.5 115.06 78.32)"/></svg>