<svg xml:space="preserve" width="16" height="16" viewBox="0 0 128 128"><path d="M85.2 13.4A12 12 0 0 0 74 7.8a12 12 0 0 0-10.4 7 19 19 0 0 0-1.3 8.9c.1 3.4 0 4.3-2.4 6-3.5 2.3-5 5.7-4 8.9 1 3 4 4.8 8 5h1q12.5-.6 18.4-10.4l.3-.3c3.4-5 5.1-13.6 1.6-19.5" style="fill:#543930"/><radialGradient id="a" cx="73.5" cy="106.8" r="16.8" gradientTransform="rotate(119.8 41.14 -29.52)scale(1 -.8)" gradientUnits="userSpaceOnUse"><stop offset=".8" style="stop-color:#6d4c41;stop-opacity:0"/><stop offset="1" style="stop-color:#6d4c41"/></radialGradient><path d="M86.7 25a21 21 0 0 1-3.1 7.9l-.3.3a21 21 0 0 1-19.5 10.4c-3.9-.2-7-2-8-5a8 8 0 0 1 3.2-8.4c2.5-1.6 3.5-2.4 3.3-5.9 1.4 13.1 23.8 4 24.3 1.2z" style="fill:url(#a)"/><linearGradient id="b" x1="79.6" x2="51.1" y1="78.8" y2="40.6" gradientTransform="matrix(1 0 0 -1 0 128)" gradientUnits="userSpaceOnUse"><stop offset="0" style="stop-color:#a52714"/><stop offset=".5" style="stop-color:#d23f31"/><stop offset="1" style="stop-color:#ed4132"/></linearGradient><path d="M88 32.2q1-.5 1.8.4c2.1 3 7.7 13.1 5.6 32.4a165 165 0 0 1-11 36.5c-.3.9-1.4 1.1-2 .5-2.5-2.2-8.4-6-19.1-3.4-3.4.8-14 11.4-22.6 1.8-5.3-6-1.5-9.4-1.4-18 0-11-11-14.3-14.6-16-1-.5-1-1.8-.1-2.4 4.1-2.7 10-4 17.4-9.9 9.4-7.4 9.5-14.4 11.4-16.8 1-1.2 8.6-4.7 8.6-4.7l5.6 1.6 9.5 4.2q.7.1 1.2-.1z" style="fill:url(#b)"/><radialGradient id="c" cx="74.9" cy="64.5" r="18.6" gradientTransform="rotate(200.6 -5.57 80.64)scale(-1 1.938)" gradientUnits="userSpaceOnUse"><stop offset="0" style="stop-color:#212121"/><stop offset="1" style="stop-color:#212121;stop-opacity:0"/></radialGradient><path d="M90.4 73.9C95.8 57 92 43.3 92 43.3S76 49 76 49.6 65.7 74.7 65.7 74.7s-7.5 20.3-17 29.7c6.8-.7 12.3-5.3 14.6-5.8 7-1.7 12-.6 15.3 1 1.8-3 8-14 11.8-25.7" style="fill:url(#c)"/><linearGradient id="d" x1="44.4" x2="59.1" y1="72.7" y2="47.4" gradientTransform="matrix(1 0 0 -1 0 128)" gradientUnits="userSpaceOnUse"><stop offset="0" style="stop-color:#212121"/><stop offset="1" style="stop-color:#212121;stop-opacity:0"/></linearGradient><path d="m68 43.8-5.1-2.3s-8 18.3-12.1 24.7-11.5 16.3-11.5 16.3c0 8.5-4 12 1.4 18l1 1c3.4-4 9-12 13.2-18 11.4-16 13-39.7 13-39.7" style="fill:url(#d)"/><linearGradient id="e" x1="76" x2="75.8" y1="86.4" y2="66.7" gradientTransform="matrix(1 0 0 -1 0 128)" gradientUnits="userSpaceOnUse"><stop offset="0" style="stop-color:#42a5f5"/><stop offset="1" style="stop-color:#1e88e5"/></linearGradient><path d="M103.5 24.5c-1-2.7-6-10.6-6-10.6L92 16.6l2.2 9.9L84 35.1a35 35 0 0 0-13-.6c-3-.2-11.3 0-14.4 7.6L51.9 53l-3.7 1.3c-1 2.1 2.3 4 4.5 5.1q3.1 1.4 5.7-2l5.3-8q.7 4.5.7 11.2l8.3 4L83 65a93 93 0 0 0 6.5-19.2l13.2-15.2c1.4-1.9 2-3.3 1-6" style="fill:url(#e)"/><g style="opacity:.29"><path d="M103.5 24.5c-1-2.7-6-10.6-6-10.6L92 16.6l2.2 9.9L84 35.1a35 35 0 0 0-13-.6c-3-.2-11.3 0-14.4 7.6L51.9 53l-3.7 1.3c-1 2.1 2.3 4 4.5 5.1q3.1 1.4 5.7-2l5.3-8q.7 4.5.7 11.2l8.3 4L83 65a93 93 0 0 0 6.5-19.2l13.2-15.2c1.4-1.9 2-3.3 1-6" style="fill:none"/></g><linearGradient id="f" x1="50.4" x2="43.8" y1="75.2" y2="89.4" gradientTransform="matrix(1 0 0 -1 0 128)" gradientUnits="userSpaceOnUse"><stop offset="0" style="stop-color:#a52714"/><stop offset=".5" style="stop-color:#d23f31"/><stop offset="1" style="stop-color:#db4437"/></linearGradient><path d="M41.6 38.8c.6-1 2.4-1.8 3.8-2.2q1.4-.4 2 .9l2 4.7q.2 1-.3 1.7L47.2 46q1 1.5 2.5 2.3c1.7 1 3.3 1 3.5 1 2.1 1.8 3.7 3.8 2.5 7s-5.5 2.3-5.5 2.3-4.3-3-7.1-9.7c-1-2-2.7-7.9-1.5-10.1" style="fill:url(#f)"/><g style="opacity:.29"><path d="M41.6 38.8c.6-1 2.4-1.8 3.8-2.2q1.4-.4 2 .9l2 4.7q.2 1-.3 1.7L47.2 46q1 1.5 2.5 2.3c1.7 1 3.3 1 3.5 1 2.1 1.8 3.7 3.8 2.5 7s-5.5 2.3-5.5 2.3-4.3-3-7.1-9.7c-1-2-2.7-7.9-1.5-10.1" style="fill:none"/></g><linearGradient id="g" x1="55.1" x2="50.1" y1="43.8" y2="36.1" gradientTransform="matrix(1 0 0 -1 0 128)" gradientUnits="userSpaceOnUse"><stop offset="0" style="stop-color:#851f10"/><stop offset=".8" style="stop-color:#a52714"/></linearGradient><path d="M52.7 83s-5.6 5.2-6 7.5c-.7 3.8 2.6 7.3 4.3 6 3.6-3 4.6-6.7 6.4-9.3s-2.3-6.6-4.7-4.2" style="fill:url(#g)"/><linearGradient id="h" x1="69.8" x2="60.6" y1="55.8" y2="35.2" gradientTransform="matrix(1 0 0 -1 0 128)" gradientUnits="userSpaceOnUse"><stop offset="0" style="stop-color:#42a5f5"/><stop offset="1" style="stop-color:#1e88e5"/></linearGradient><path d="m71.4 67-.2.6a6 6 0 0 0-3-4s-5.8-1.8-7.2.8c0 0-7 11-8 14-1.2 3-1.1 5.5 1.5 7.1 2 1.3 4.9.7 7.5-2.2 1.1-1.4 3.8-5.4 5.8-8.5.4-.5 1.1-.1 1 .4l-12.2 32 5.4 3.4s16.1-25.7 18.5-30.7 3.2-12.1 3.2-12.1z" style="fill:url(#h)"/><g style="opacity:.4"><path d="m61.2 64 2-3.2q.6-1 1.6-.6a26 26 0 0 0 17.7 4.4q1.2 0 1.2 1.3l-.3 3.5s-2.7 1.6-11.2-.2a31 31 0 0 1-11-5.2" style="fill:#212121"/></g><linearGradient id="i" x1="62.7" x2="84.3" y1="65.4" y2="60.7" gradientTransform="matrix(1 0 0 -1 0 128)" gradientUnits="userSpaceOnUse"><stop offset="0" style="stop-color:#d32f2f"/><stop offset=".2" style="stop-color:#f44336"/><stop offset=".7" style="stop-color:#f44336"/><stop offset="1" style="stop-color:#d32f2f"/></linearGradient><path d="M83 69.1c-8.4.5-13.7-1-21.1-5q-1-.6-.5-1.6l1.2-2.5q.5-1.1 1.6-.6a30 30 0 0 0 19 4.3q1.2.1 1.3 1.4l-.3 2.9q-.1 1-1.1 1.1" style="fill:url(#i)"/><path d="m75.6 67.2-2.3 1.5a1 1 0 0 1-1.4-.3l-1.5-2.3a1 1 0 0 1 .2-1.4l2.3-1.5a1 1 0 0 1 1.4.3l1.5 2.3q.5.7-.2 1.4" style="fill:#fdd835"/><path d="M70.5 45.2c1.3-.6 3.6-1.4 7-1.5h.7c3 0 5 .8 6 1.4l-7 7.5z" style="fill:#e53935"/><path d="M78.2 44.7q2.8.1 4.3.7l-5.3 5.7-5-5.5q2-.7 5.4-.9zm0-2h-.7c-5.7.2-8.7 2.2-8.7 2.2l8.4 9.2 8.5-9s-2.2-2.4-7.5-2.4" style="fill:#fdd835"/><linearGradient id="j" x1="77.2" x2="77.2" y1="83.1" y2="73.2" gradientTransform="matrix(1 0 0 -1 0 128)" gradientUnits="userSpaceOnUse"><stop offset="0" style="stop-color:#0d47a1;stop-opacity:0"/><stop offset="1" style="stop-color:#0d47a1"/></linearGradient><path d="M68.8 44.9s3-2 8.7-2.2c5.8-.2 8.2 2.3 8.2 2.3l-8.5 9.1z" style="opacity:.42;fill:url(#j)"/><linearGradient id="k" x1="66.1" x2="43.8" y1="27.5" y2="5.1" gradientTransform="matrix(1 0 0 -1 0 128)" gradientUnits="userSpaceOnUse"><stop offset="0" style="stop-color:#a52714"/><stop offset=".5" style="stop-color:#d23f31"/><stop offset="1" style="stop-color:#ed4132"/></linearGradient><path d="M57.9 97.8s-1.6 9.6-5.6 16c-2 2.5-5.1 4.6-6.8 9-.7 2 3.7 4 7 2.1 2.1-1.1 5.2-8 5.2-8 2.8-5 11-13 11-13-1.6-7.2-10.8-6.1-10.8-6.1" style="fill:url(#k)"/><path d="M53.4 37.3s5.7-7.2 15.9-5.1c7.5 1.5 6 6.3 6 6.3s-3.9 0-7.3-.7c-3.5-.8-6.6-2.4-8.4-2.3zm21.8 1.2s.5-4.9 3.8-6S89.8 30 89.8 30s-2.4 4.6-4.2 6c-3.8 3-10.4 2.4-10.4 2.4" style="fill:#ed4132"/><path d="M57.1 40.7s3.3-3 8.3-1.8c7 1.7 9.8-.4 9.8-.4s5.3 2 10.2-.5c3.4-1.6 4.4-7.9 4.4-7.9l-1.2 1.4s-4.4 4.7-8.7 6c-3.2 1-4.7 1-4.7 1s-11.7-4-14.4-2.9-3.7 5-3.7 5" style="opacity:.4;fill:#212121"/><path d="M75 31.3h-3.3l.1 2.6c0 3.2 3.5 4.6 3.5 4.6s3.1-1.7 3.1-4.7v-2.6z" style="fill:#99674f"/><path d="M75 34.4c5-.2 9.3-5.6 9.1-13.1s-5-11.1-9.7-11c-4.8.1-9.4 4-9.2 11.5s5 12.7 9.8 12.6" style="fill:#ba8d68"/><circle cx="70.2" cy="24.5" r="1.4" style="fill:#49362e" transform="rotate(-1.6 70.15 24.47)"/><circle cx="79.4" cy="24.2" r="1.4" style="fill:#49362e" transform="rotate(-1.6 79.43 24.22)"/><path d="M77.2 29.4c-.8.6-3.8.7-4.7.2q-1-.3-.8.6c.2.5 1.8 1.5 3.2 1.4 1.4 0 3-1.1 3.2-1.6s-.3-.9-.9-.6" style="fill:#5d4037"/><path d="M75.8 26.9h-2.2q-.3.2-.2.5.1.6 1.3.7c.8 0 1.2-.6 1.3-.8q0-.3-.2-.4" style="fill:#99674f"/><path d="M72.2 21.8q-.4-.8-2-.8c-1.7 0-1.9.5-2.1.9q-.1.3 0 .4t.5.1 1.6-.3q1.1 0 1.5.3.4 0 .5-.2.1-.1 0-.4m9.3-.3q-.5-.6-2.1-.8c-1.2 0-1.8.6-2 1q-.2.2 0 .4h.5l1.5-.3q1.2 0 1.6.3l.5-.1z" style="fill:#613e31"/><path d="M62.1 27.5c.2-3.8 0-6.4.3-8C62.5 18 64 8.3 74 7.8c11.3-.5 13 10.8 13 10.8V23s-.2 2.2-1.3 4.8-2.9 3.3-2.6 2q.7-2.4.7-5.4c0-.9 0-4-1.8-4.3-6.5-1.2-10.4-4.5-10.4-4.5-.8 2.1-3.7 4.3-4.8 5.1-.8.7-.6 3.3-.5 4.5l.6 5c-1-.6-4.2-1.6-4.8-2.7" style="fill:#543930"/><linearGradient id="l" x1="98.4" x2="84.6" y1="103.9" y2="124.8" gradientTransform="matrix(1 0 0 -1 0 128)" gradientUnits="userSpaceOnUse"><stop offset="0" style="stop-color:#a52714"/><stop offset=".5" style="stop-color:#d23f31"/><stop offset="1" style="stop-color:#db4437"/></linearGradient><path d="M92.7 25c-.2-.9-2-15-5.2-15.8l-3.6.2q-2.2 0-2.6-1.2t.5-4c.6-1.7 1.6-1.9 2.4-1.9q2.4 0 8 4.7c7 6.2 11 15.4 11 15.4-.2 0-4.8 6.2-10.5 2.7" style="fill:url(#l)"/><g style="opacity:.29"><path d="M92.7 25c-.2-.9-2-15-5.2-15.8l-3.6.2q-2.2 0-2.6-1.2t.5-4c.6-1.7 1.6-1.9 2.4-1.9q2.4 0 8 4.7c7 6.2 11 15.4 11 15.4-.2 0-4.8 6.2-10.5 2.7" style="fill:none"/></g></svg>