<svg xml:space="preserve" width="16" height="16" viewBox="0 0 128 128"><path d="m121.7 95.2-52-54.9A67 67 0 0 0 52.2 7.2L7.3 52a52 52 0 0 0 33.2 17.5l55.2 52c5.3 4.5 15 2.6 21.7-4.5 6.5-7 8.5-16.6 4.3-21.9" style="fill:#2f7889"/><path d="M49.6 10c5.8 5.7 1.6 19.2-9.4 30.1s-24.4 15.2-30 9.4-1.6-19.2 9.3-30.1S43.9 4.3 49.6 10" style="fill:#9e740b"/><path d="M51 14.3c4.5 4.6-.7 15.7-10.7 25.8S19 55.4 14.3 50.8s-.1-16.5 10-26.6 22-14.6 26.6-10" style="fill:#ffee58"/><path d="M53.5 22.8s-3.6 10-12 18.5-18.6 12-18.6 12c-4.9-4.9-2-15.7 6.4-24.1s19.2-11.3 24.2-6.4" style="fill:#fff"/><path d="M47.7 9.7c5 5 .6 17.5-9.9 28s-23 14.9-28 9.9-.5-17.5 10-28 23-14.9 28-9.9M52 7.1C48.6 3.6 43 3 36 5.4c-6 2.1-12.6 6.5-18.3 12.2S7.8 29.9 5.6 36Q2 46.6 7.2 52c5.2 5.4 9 4 16 1.5 6-2.1 12.5-6.5 18.2-12.2s10-12.2 12.2-18.3c2.5-6.8 2-12.5-1.5-16" style="fill:#80deea"/><path d="M18.3 40.7c-1.6.2-3 .3-2.6-1a40 40 0 0 1 20.7-22.8c1.6-.7 1 1.7.7 3.1q-.3 2.1-1.3 2.7C31.6 24.8 23.8 31 21 39q-.4 1.4-2.7 1.6" style="fill:#ffff8d"/><path d="M11.3 41c-1.3.4-2.7 1.3-2.5 0a44 44 0 0 1 28-31.4q1-.4.3 2.5c-.3 1.9-.7 2-1.1 2.3A47 47 0 0 0 13 39c-.2.7-.5 1.6-1.8 2.1" style="fill:#e2a610"/><path d="m81 72-10.4-9.3a4 4 0 0 1 0-5.4l1.4-1.6a4 4 0 0 1 5.3 0l10 10a4 4 0 0 1 0 5.4l-1 1a4 4 0 0 1-5.3 0" style="fill:#212121"/><circle cx="75.1" cy="60.2" r="3.3" style="fill:#49a4ba"/><path d="M54 34.5c0 3.8 3.2 2.8 6.2 9.5 1.1 2.5 2.5 1.8 3.2.9 3.2-4.5 2.6-5.5 1.5-9.8-.8-3.4-4.3-11.7-5.8-12-1.6-.2-1.7 1.6-2.1 3.3-1.2 4.5-3 6.1-3 8.1" style="fill:#49a4ba"/><path d="M36.5 68.8S47.1 67 58 56.1s10.7-19.3 10.7-19.6l.9 3.7S71 48.8 60.8 59 40.2 69.5 40.2 69.5z" style="fill:#212121"/></svg>