<svg xml:space="preserve" width="16" height="16" viewBox="0 0 128 128"><path d="m65.2 117-34-.8-5.8-65 39.8.8zm-2.4 0 34-.8 5.8-65-39.8.8z" style="fill:#e7e7e7"/><linearGradient id="a" x1="62.6" x2="99.4" y1="49.8" y2="46.2" gradientTransform="matrix(1 0 0 -1 0 130)" gradientUnits="userSpaceOnUse"><stop offset=".9" style="stop-color:#fff;stop-opacity:0"/><stop offset="1" style="stop-color:#bdbdbd"/></linearGradient><path d="m62.8 115.1 34.1-.8 5.8-65-40 .8z" style="fill:url(#a)"/><linearGradient id="b" x1="-82.8" x2="-46.5" y1="49.8" y2="46.3" gradientTransform="matrix(-1 0 0 -1 -17.41 130)" gradientUnits="userSpaceOnUse"><stop offset=".9" style="stop-color:#fff;stop-opacity:0"/><stop offset="1" style="stop-color:#bdbdbd"/></linearGradient><path d="m65.2 115.1-34.1-.8-5.9-65 40 .8z" style="fill:url(#b)"/><linearGradient id="c" x1="64" x2="64" y1="34.3" y2="6.4" gradientTransform="matrix(1 0 0 -1 0 130)" gradientUnits="userSpaceOnUse"><stop offset="0" style="stop-color:#00bfa5"/><stop offset=".7" style="stop-color:#00b29a"/><stop offset="1" style="stop-color:#00ab94"/></linearGradient><path d="M64.1 96c-25.5 0-52 7.3-52 25v3h104v-3c0-16.7-26.3-25-51.9-25" style="fill:url(#c)"/><linearGradient id="d" x1="63.6" x2="63.6" y1="34.3" y2="1.2" gradientTransform="matrix(1 0 0 -1 0 130)" gradientUnits="userSpaceOnUse"><stop offset="0" style="stop-color:#00897b"/><stop offset="1" style="stop-color:#004d40"/></linearGradient><path d="M45 124h36.9l7.8-13 14.8-6.5S91 95.5 64 96c-30.2.6-41.3 8.7-41.3 8.7l16.6 7.3z" style="fill:url(#d)"/><linearGradient id="e" x1="64" x2="64" y1="10.3" y2="45.5" gradientTransform="matrix(1 0 0 -1 0 130)" gradientUnits="userSpaceOnUse"><stop offset=".1" style="stop-color:#87ceac"/><stop offset=".3" style="stop-color:#84cdab"/><stop offset=".5" style="stop-color:#7bc8a8"/><stop offset=".6" style="stop-color:#6cc0a2"/><stop offset=".7" style="stop-color:#57b69b"/><stop offset=".8" style="stop-color:#3ca891"/><stop offset=".9" style="stop-color:#1a9785"/><stop offset="1" style="stop-color:#00897b"/></linearGradient><path d="M89.1 87.3c-5.5-10.4-21-1.7-21-1.7L64 83.7l-4.1 2s-15.5-8.8-21 1.5c-2.9 5.4-1.4 12.4 6.9 18.4S64 119.8 64 119.8s10-8.2 18.3-14.2 9.7-13 6.8-18.3" style="fill:url(#e)"/><path d="M43.5 124h3.4c-.4-1.3-4.9-10.4-5.8-12.4l-.4-.5-4.2-1.8-4.3-1.7-9.1-2.9a93 93 0 0 0 16.2 8zm-6-10.2c-7.3-4-10.6 1.7-10.6 1.7s3.7 1.5 5.9 1c3.4-.6 4.7-2.7 4.7-2.7m8.4 4.5c5-5.8 1.6-9.9 1.6-9.9s-2.4 1.2-2.9 3.9a8 8 0 0 0 1.3 6m-7.2-9.6c.3-6.7-4-7.6-4-7.6s-1 2.4 0 4.6c1.2 2.4 4 3 4 3M84.5 124l4.2-11.3a92 92 0 0 0 16.2-8s-6.3 1.8-9.2 3l-4.2 1.6-4.1 1.8-.5.5c-1 2-5.5 11.1-5.8 12.3zm6-10.2c7.3-4 10.6 1.7 10.6 1.7s-3.8 1.5-5.9 1c-3.3-.6-4.7-2.7-4.7-2.7m-8.4 4.5c-5-5.8-1.6-9.9-1.6-9.9s2.2 1.2 2.9 3.9c.8 3.5-1.3 6-1.3 6m7.2-9.6c-.3-6.7 4-7.6 4-7.6s1 2.4 0 4.6c-1.2 2.4-4 3-4 3" style="fill:#e0f2f1"/><path d="M87.5 50.4h-47l-20-11.9s.1 14.6 4 22.2c6 11.6 16 12.6 16 12.6h47.3c1.6-.3 10.3-2 15.7-12.6 3.9-7.6 4-22.2 4-22.2zM64 90h-9v5.8q0 4.2 3.1 7.1l6 5.3 5.8-5.3q3.1-2.9 3.2-7.1V90z" style="fill:#e59600"/><path d="M64 11c-17.4 0-33.5 18.7-33.5 45.5C30.5 83 47 96.3 64 96.3S97.5 83 97.5 56.5C97.5 29.7 81.4 11 64 11" style="fill:#ffca28"/><radialGradient id="f" cx="64" cy="33.1" r="34.5" gradientUnits="userSpaceOnUse"><stop offset="0" style="stop-color:#fff"/><stop offset=".4" style="stop-color:#faf9f8"/><stop offset="1" style="stop-color:#ebeae6"/><stop offset="1" style="stop-color:#ebeae6"/></radialGradient><path d="M64 4C35.1 4 25.8 25.7 25 41l2.6 2A83 83 0 0 0 31 62q.4.4.7 0a317 317 0 0 1 6.2-23.6c1-2.7 4-4.2 6.8-3.7 4.2.7 18 1.6 19.4 1.7s15.2-1 19.4-1.7a6 6 0 0 1 6.8 3.7c1.8 4.5 5.3 19.3 6.2 23.5q.3.6.7 0l.2-.6c.3-1.1 2.6-8.6 3.1-18.3l2.7-2c-.8-15.3-10.2-37-39-37" style="fill:url(#f)"/><radialGradient id="g" cx="64.2" cy="43.1" r="41" gradientTransform="matrix(1 0 0 .986 0 .6)" gradientUnits="userSpaceOnUse"><stop offset=".7" style="stop-color:#fff;stop-opacity:0"/><stop offset="1" style="stop-color:#bdbdbd"/></radialGradient><path d="M64 4C35.1 4 25.8 25.7 25 41l2.6 2A83 83 0 0 0 31 62q.4.4.7 0a317 317 0 0 1 6.2-23.6c1-2.7 4-4.2 6.8-3.7 4.2.7 18 1.6 19.4 1.7s15.2-1 19.4-1.7a6 6 0 0 1 6.8 3.7c1.8 4.5 5.3 19.3 6.2 23.5q.3.6.7 0l.2-.6c.3-1.1 2.6-8.6 3.1-18.3l2.7-2c-.8-15.3-10.2-37-39-37" style="fill:url(#g)"/><path d="m103.7 38.4-3.4.6c-4 .2-7.6-1.6-11.4-3.5a110 110 0 0 1 13.4-2.7c.4 0 0-3-.2-3-.6-.1-3.6-.2-4.3-.1-4.2.2-9.2 1.6-14 3.4a22 22 0 0 0-9.1-1.4C69.3 32.1 64 36 64 36s-5.4-3.8-10.7-4.2q-4.4-.3-9.1 1.4a48 48 0 0 0-14-3.4h-4.3c-.3 0-.6 3.1-.2 3 .5 0 9.8 1.6 13.4 2.8A24 24 0 0 1 27.7 39l-3.4-.6c-.3 0-.2 1.8 0 1.8 0 0 1 1.4 3.4 1.5 4.5.3 9-1.7 12.8-3.6l2.6-1.2q6.1 2.4 11.4 5.4l9.4 6h.1v.1l9.5-6.1q5.3-3 11.4-5.4l2.6 1.2a26 26 0 0 0 12.8 3.7c2.4-.2 3.3-1.6 3.3-1.6.3 0 .4-1.9 0-1.8m-39.5 4.8h-.4C61 41.4 55.2 38 48.5 35q2.3-.4 4.5-.3c6 .5 10.9 4.7 10.9 4.7s4.8-4.1 10.9-4.7q2.2-.1 4.5.3c-6.7 3-12.6 6.4-15.2 8.2" style="opacity:.36;fill:#212121"/><path d="M64 42.2c-4.8-3.3-21.4-13-33-13.6l-4 .1c-.4 0-1.2.5-1.6 2q-.3 2.1.5 2.1l3.9-.1c11.1-.3 27.1 9.4 33 13.7l1.2 1zm0 0c4.8-3.3 21.4-13 33-13.6l4 .1c.3 0 1.2.5 1.6 2q.3 2.1-.5 2.1l-3.9-.1c-11.1-.3-27.1 9.4-33 13.7l-1.2 1z" style="fill:#97b4c2"/><linearGradient id="h" x1="75.3" x2="75.3" y1="82.6" y2="90.1" gradientTransform="matrix(-1 0 0 -1 139.35 130)" gradientUnits="userSpaceOnUse"><stop offset="0" style="stop-color:#00bfa5"/><stop offset=".7" style="stop-color:#00b29a"/><stop offset="1" style="stop-color:#00ab94"/></linearGradient><path d="M64 42.2s3.3-2 5.9-2.3c1.4 0 3.8 1 3.8 1L64 47.4l-9.7-6.5s2.4-1 3.9-1c2.5.2 5.8 2.3 5.8 2.3" style="fill:url(#h)"/><path d="M64 34.8s-5.2-3.7-10.4-4.1q-5.1-.4-10.7 2.2l-3.1 1.5c-3.7 2-7.2 3.7-11.1 3.6l-3.6-.7c-.3 0-1.2 0-1.4 1.2s.9 1.8 1.1 1.8q1.4.5 3.5.7h1c4.3 0 8.1-2 11.8-4l3.1-1.4a18 18 0 0 1 9.2-2c5.9.6 10.6 4.8 10.6 4.8zm0 0s5.2-3.7 10.4-4.1q5.2-.4 10.6 2.2l3.2 1.5c3.7 2 7.2 3.7 11.1 3.6l3.6-.7c.3 0 1.2 0 1.4 1.2s-.9 1.8-1.1 1.8q-1.4.5-3.5.7h-1c-4.3 0-8.1-2-11.9-4l-3-1.4a18 18 0 0 0-9.2-2c-5.9.6-10.6 4.8-10.6 4.8z" style="fill:#97b4c2"/><ellipse cx="47.6" cy="58.8" rx="4.9" ry="5.1" style="fill:#404040"/><ellipse cx="80.4" cy="58.8" rx="4.9" ry="5.1" style="fill:#404040"/><path d="M67.9 68H60q-1 .5-.6 1.7c.3.7 1.7 2.7 4.5 2.7s4.3-2 4.6-2.7q.3-1.2-.7-1.6" style="fill:#e59600"/><path d="M72.4 76.1a26 26 0 0 1-16.8 0c-1.8-1-3.7.6-3 2.3s6.5 5.4 11.4 5.4 10.6-3.8 11.3-5.4-1-3.4-2.9-2.3" style="fill:#795548"/><path d="M88.1 50.8s-2.3-3.6-7.6-3.6-7.6 3.6-7.6 3.6q-.3.4-.3.9.1 1.5 1.6 1.6l.6-.2c3.2-1.3 5.7-1.3 5.7-1.3s2.5 0 5.7 1.3l.6.2q1.5-.1 1.6-1.6 0-.6-.3-1m-33.1.1c.1 0-2.2-3.6-7.5-3.6s-7.6 3.6-7.6 3.6q-.3.4-.3.9.1 1.5 1.6 1.6l.6-.2c3.2-1.3 5.7-1.3 5.7-1.3s2.5 0 5.7 1.3l.6.2q1.5-.1 1.6-1.6 0-.6-.3-1" style="fill:#6d4c41"/></svg>