<svg xml:space="preserve" width="16" height="16" viewBox="0 0 128 128"><path d="M15.7 37.2c.2-.2.6-3.3 4.5-7.1s7.3-3 9.2-2.6 4.8-.1 6.7 0 6.3 4 8 5c1.7 1.1 5 3 6.2 5 1.2 2.1 2.6 9.3 2.6 9.3S42 49 42 48.6 15.7 37.2 15.7 37.2" style="fill:#523730"/><path d="M61.6 90.8s2.9.2 6.5 0c3.6-.1 10.8-2.6 10.8-2.6l-.3 8.3c-.1 1.4-.2 3.7-1.9 6a31 31 0 0 1-5.2 5.7c-1.4 1-3.2 1.4-4.9 3a12 12 0 0 0-2.5 4.4l7.7 1.3s1.5-1 2.7-2.2 2.9-5 5.2-7.8 6-6.7 6.9-9.7S88.5 91 90 89c1.4-2.2 12.8-12.2 12.8-12.2l-17-10.2-27.5 14.1zm-20.8-22L38 73l-.3 8s-1.8.2-4.4.8c-2.5.5-4.7 1.2-5.7 1.3-1.6.2-3-.7-4.7.6s-1.7 2.5-1.4 5 .6 3.4.5 5.4c-.2 2-2.4 4.9-1.7 8.7s2 4.9 2 4.9l5.2-3 .4-2.6s.6-.9 0-3.2c-.4-2.1 0-8.2.3-8.4s6.5.1 11.2.1c4.8 0 5.5 0 6-.5s1.4-2.4 1.4-2.4 1.9 2.1 3 2.4c1 .3 5.6-2.8 5.6-2.8l-6-16.7z" style="fill:#a95531"/><path d="m65.5 112.6 6.6 4v1.3l-.3 1.6s-.9 1-4.6 2c-3.4.8-5.1.2-5.3-.4-.3-1 .2-3.5 1-5 1-2.3 2.6-3.5 2.6-3.5m-44.3-6.5s2.4-.4 3.7-1.4c1.6-1.1 3-2.7 3-2.7l1.3.8c.4.4.8.7.8 2.2s-.7 3.7-1.5 5.4-1.7 2.8-2.4 2.7c-.8 0-1.8-1.5-2.8-2.6-1.7-2-2-4.4-2-4.4m80.2-49.6s3-1.5 6.2.4 6.9 9 9.6 9.2c2.7.3 4.7-4.8 7.5-2 1.8 1.6-.6 7.6-4.1 11.5-3 3.4-6 5.5-9.6 3.5S107.2 68 107.2 68z" style="fill:#523730"/><path d="M78.2 105.8s.7-2.6 3.5-4.3 3.2-1 5.2-2.3 4-2.7 4.4-3.6.3-4.7-.9-7.8-1-14.7-1-14.7-5.8 8.6-10.8 11.6-8 2.6-11 1.5c-2.8-1-4.4-5.6-5-5s.4 4.5.5 6.8.4 4-2.7 5.4-5 2.5-6.5 3.3c-1.4.8-5 3.4-5 3.4s2.3.8 4 .6l3.3-.6 5 1.8-1 5s-1.2 1.7-4 1.8c-2.9 0-3.6-1.3-6.3-1.9s-6.4-.2-7.3-.5c-1-.3-2.3-2-2.4-3-.5-3.8-.6-5.3.2-6.2s3-2 3.6-2.5 2.7-3.2 4-4.4 2.6-2.6 2.5-3.4c0-.8-8.4-15.4-10.3-15.2-2 .1.5 6.4 1.3 8.4.9 1.9 3.4 4.6 2.8 5.5-.6.8-3.6-.3-6.1-3.3s-2-6.3-2-10-.2-4.2-.7-5.8l-2-4.1c-1-1.5-4.7-8.2-4.7-8.2l-9.6 5.8-1 2.5s-1.6 2.7-3 3.6-12-3.7-11.5-6.2a17 17 0 0 1 2.7-5.6l2.3-3.7c.4-.8 2.3-5.8 4-9.2 1.8-3.8 2-4.3 4.3-5.4s3.8-1.6 3.8-1.6l1.8-1.1s1.4-.6 2.9-1 4.2-1.7 5.7-2.5c1.6-.9 1.7-1.8 2.4-1.8s1.3.8.3 2.7-3.3 3.8-3.3 3.8l.5 1 2.6-.1s3.1 1.3 5.4 3l4 3.3 5.8 7.9 12.8 2 7.7 7.3 16.7-2 1.3-4.3s6.2-1.3 9.3-.8c4.4.7 11.6 7.2 11.7 16.9s-4 14.5-4.8 15.8-3.6 5-4.1 7.8c-.5 3-.2 5.5-.5 6.7s-.8 2.4-2.7 3c-2 .8-4.6 1.2-6.4 2.3-2.7 1.6-2.4 2.5-3.5 3.5a9 9 0 0 1-2.3 1.6z" style="fill:#d17858"/><path d="M33.4 62.3s.1-4.8-.4-9.5c-.3-3.2-2-8.4-2-8.4s-2.1 6.8-4.3 8L18.6 58s-.7 1.5-.6 2.5v2.2l2.6-2.3s7-3.8 8-3.5c1.6.7 4.8 5.4 4.8 5.4M27.8 35s3.4-1.8 4-2.3l2.2-2.1-1.2 2.7c-.3.5-.6 1.4 0 1.7l1 .3s-.8.6-2.7.6-3.3-.8-3.3-.8" style="fill:#a95531"/><path d="M78.2 105.8s-1.2 1.2-1.8 4.5q-.8 4.5.2 5c1.4.5 4-.9 5.4-1.7 1.3-.8 3-2.3 3.2-2.7s.1-1.4.1-1.4v-1.1s-2.2-.4-3.5-1c-2-.7-3.6-1.6-3.6-1.6m-22-5.8a27 27 0 0 0 4 6.8s2-.4 4-1.8c1.1-.8 2.4-2 2.4-2.5s-2-2.2-4-3.3q-2.5-1.7-3.4-1.8c-.6 0-1.7 1-2 1.4z" style="fill:#523730"/><path d="M88 52.2c-.6-.4-3.3.7-7 1-3.6.4-22.4-.4-22.4-.4s-.5 5.7.7 11.7 2.6 9.8 5 10c2.4.3 8 1 14 .4s10.7-2.3 12.2-5.1 1.3-7.2.5-10.2c-1.3-5-2.2-7-3-7.4" style="fill:#37b5e1"/><path d="M72.6 57.5s4.1.2 6.5-1c2.5-1 4.7-2.7 5-3.7.5-1 .2-2.3-1.6-2S77.4 52.7 75 53s-7 .4-7 .4l-3.4 11.2v27s2.4.1 4.1-.2c1.7-.2 4.2-.8 4.2-.8z" style="fill:#0468a6"/><radialGradient id="a" cx="8.7" cy="62.5" r="9.5" gradientTransform="rotate(-59.3 2.35 66.03)scale(1 1.12)" gradientUnits="userSpaceOnUse"><stop offset=".7" style="stop-color:#ffb169"/><stop offset="1" style="stop-color:#ffb169;stop-opacity:0"/></radialGradient><path d="m8.7 50.5-2 3.1s-3.3 4.9-3 7c.3 2.8 1.7 3.8 2.8 4.6 1.8 1.4 4.1 1 4.1 1s.1 1 1.6 1 3.2-1 4-2c1-1.1 2-2.8 2-2.8l2.4-2s3.6-7-1.8-10.5-9-2.4-9-2.4z" style="fill:url(#a)"/><path d="M8.2 57.5c-1.3 0-1.8 1.5-1.8 2.9s.5 2.7 1.3 2.8q1.7.2 1.8-3 0-2.5-1.3-2.7m1.2 8.8s2-1.3 3-3.7c.7-1.5 1-2.7 1.8-3.2.5-.4 1.5-.4 1.4 1 0 1.2-1.3 3.3-1.9 4.3Q12 67 11.3 67c-.7 0-.7-.5-.9-.6z" style="fill:#523730"/><path d="M18.7 42.7c-.7.8-.5 2.5.5 3.3 1 1 2.4.7 3.1 0s.8-2.2-.3-3.2c-1-.9-2.7-.8-3.3-.1m1.7-8.4s.8-.8 1.2-1c.4 0 1-.3 1-.3l8.3 5.7-1.4 2zM8.7 50.5s0-.6.2-1l.6-1s2.4-.3 8 4.6c3.5 3.1 4.3 7 4.3 7s-.2.6-.8 1h-1s-1.3-3.1-4-6c-3.4-3.5-7.3-4.6-7.3-4.6" style="fill:#2a2725"/><linearGradient id="b" x1="46.4" x2="36.2" y1="48" y2="47" gradientUnits="userSpaceOnUse"><stop offset="0" style="stop-color:#a47b62"/><stop offset="1" style="stop-color:#a47b62"/></linearGradient><path d="M46.7 45c0-.1-5.7-2.4-6.9-2.5q-1.5-.1-2.2.2-.5.3-.7 1 0 .5.2.9l-.2.4q-.6.5-.7 1.2 0 .9.6 1.3-.6.4-.6 1.2c0 .7.6 1.1.6 1q-.2.2-.2 1c0 .5.8 1 1.4 1.2q.3.2 1 .3c2 .5 6.5-.4 6.7-.5q.4 0 .4-.4z" style="fill:url(#b)"/><path d="M52.2 12.1c-2.6-3-7.6-5-11.4-3.8-4.2 1.3-6.1 4.7-6.2 8.8q0 2.2.6 3.8l.4 1.3c.4 1-1.6 2.4-1.7 3.6 0 .9 2 1.2 2 1.3 1 .7.5 5 5.6 4.7 2-.1 2.3-.6 3-.7a8 8 0 0 1 5.7 1.7l5.2-6.1s-3.3-2.5-3.2-2.9c1.2-3.4 1.6-9.7 0-11.7" style="fill:#ba8d68"/><path d="M36.8 29.2a3 3 0 0 0 2-.9c.5-.5 0-1-.7-.6a3 3 0 0 1-1.7.4z" style="fill:#613e31"/><ellipse cx="38.9" cy="22.3" rx=".9" ry="1.4" style="fill:#49362e" transform="rotate(-9.5 38.88 22.34)"/><path d="M38 20.5c-.8.5-1.2 0-1-.6q.1-.7 1.6-.9 1.4.1 2 .7.5.5.2.7c-.3.1-1.8-.5-2.8 0" style="fill:#613e31"/><path d="m46.8 21.8.6-1.3q.4-1.2 1.3-1.4c2 .1 2.2 3.4.2 4.6 0 0 .8 2.4 3.2 2.6h.7q1-.1 1-1.3c.4-4 1.9-3.4 2-8 0-6.2-6-9.3-11.3-8.8q-3 .3-5.7 2c-.8.5-3.3 2.4-3.6 3.8-.5 1.8.7 3 .7 3s5.3-1.3 7.9-1.1q.5 0 1 .3l.2 1c.5 2 .5 3.2 1.2 4.3z" style="fill:#543930"/><path d="M89.2 39.5c-.4-2.4-1.6-5.9-4-7.8-2-.4-3.3 1.4-5.6 2.9h-.2s-11 6.4-18.5 12.9c-.8.7-2 1.8-2.5 2.8s-1.2 2.4-.3 4 6 8.1 6 8.1c0 .2 8.7-.1 8.7-.4 0-.6 0-2-1.9-7.9 3.2-1.5 13.8-5 17.3-9.5q1.5-2.5 1-5" style="fill:#c8c8c8"/><path d="m77.4 64.4-5.9-10.1-.3-.2h-.4L62 60.8l-.2.3.1.4 7.3 8.5-2.3 3.3a4 4 0 0 0 0 4.5s.9 1.4 1.6 1.6q.4 0 1-.3l11.5-8q1-.7-.1-3c-.6-1.2-3-3.2-3.4-3.6" style="fill:#444"/><path d="M45 24c0 3.5-.6 5.6-1.1 7.3 2-.1 2.7-3.6 3.1-6.4.5-2.7.5-5.4.5-5.4l-3.3-.6s.8 3.2.8 5" style="fill:#2a2725"/><path d="M45.4 5.9H44c-1.9.3-4.3 1.2-5.8 2.3a25 25 0 0 0-5.3 5.7c-.8 1-4.7 1.8-4.1 3.4 1 3.2 7.7.2 10 .5q2.7.6 5.2 1.4a90 90 0 0 0 10.7 1.4c.7 0 1.5.1 1.7-.7q.4-1.3.5-2.7c.3-5.6-4.2-11.1-11.4-11.3" style="fill:#5d6266"/><path d="m46.7 45-1-2.2c-.7-1.2-1-1.6-2.8-2-.8-.2-2.7-.2-2.7 0-.4 1.2.9 1.6.8 1.7-1.8 0-2.2.4-2.3 1-.1 1 .5 1.1.4 1.4 0 .4-1 .3-.9 1.6 0 .8.7.8.7 1.3s-1 .3-1 1.2c-.1 1 .8 1 .8 1.3s-1 .7-.6 1.6c0 .2.7.2 1 .2 2 .6 6.4-.4 6.6-.4q.4 0 .4-.4z" style="fill:#ba8d68"/><path d="M85.2 31.7s-9.6-7.9-18.6-8.8-11.8-.3-12.8.9-1 4.1-2.2 6-3 2.1-3 2.1l.6 6.4a39 39 0 0 0 1.2 5.6l-3.7 1.2s-.6 1-.8 3l-.2 3.7s.2.8 3.4.8 8.6-.4 9.5-1.9c2.2-3.9 1.5-11.5 1.5-11.5s3.8 1 6 1.2c2.2.3 3.8.7 5.8-.8a112 112 0 0 1 13.3-8" style="fill:#ff8e00"/><path d="M32 34.7c-.7.5-4.3 7-7.1 11l-7 9.4 2.4 2.2 21.3-12.8c.5-.3 1.3-1.1.6-2s-1.7-.5-2.3 0L22.6 53.1S25.8 49 29 44l5.3-8.5c0-.1-.3-.8-1-1-.4 0-1.2 0-1.4.2" style="fill:#2a2725"/></svg>