<svg xml:space="preserve" width="16" height="16" viewBox="0 0 128 128"><path d="M116 4H12a8 8 0 0 0-8 8v104a8 8 0 0 0 8 8h104a8 8 0 0 0 8-8V12a8 8 0 0 0-8-8" style="fill:#194fa5"/><path d="M109.7 4H11.5A7.6 7.6 0 0 0 4 11.5v97.9c0 4.1 3.3 7.5 7.5 7.5h98.1c4.1 0 7.5-3.3 7.5-7.5V11.5c0-4-3.1-7.4-7.2-7.5z" style="fill:#2262dd"/><path d="M4 36h120v56H4z" style="fill:#0a3880"/><path d="M21 45h8.3l14.3 38h-8l-3.1-9H18l-3.2 9h-8zm9.1 22.3-3.3-9.5-1.4-4.6H25l-1.4 4.6-3.4 9.5zm20.5-15.5H40V45h28.3v6.8H57.7V83h-7.1zM74 45h9.3l10 26.7h.5l10-26.7h9.3v38h-7V64.3l.3-6.3h-.4l-9.6 25h-5.6l-9.7-25h-.4l.4 6.3V83h-7z" style="fill:#fafafa"/><path d="M117.1 36h6.9v56h-6.9z" style="fill:#092c56"/><path d="M39.7 12.9c0-2.3-1.6-3-10.8-2.7-7.7.3-11.5 1.2-13.8 4-1.9 2.3-2.3 5.6-2.6 8.4-.2 2.2-2.2 14.9 3.5 11.2q1-.6 1.6-1.8c1.2-2.1 1.9-3.5 3.3-5.6 5.3-8.6 18.8-10.5 18.8-13.5" style="opacity:.3;fill:#fff"/></svg>