<svg xml:space="preserve" width="16" height="16" viewBox="0 0 128 128"><linearGradient id="a" x1="16.4" x2="16.4" y1="53.1" y2="85.6" gradientTransform="matrix(1 0 0 -1 0 128)" gradientUnits="userSpaceOnUse"><stop offset=".5" style="stop-color:#ffca28"/><stop offset="1" style="stop-color:#ffb300"/></linearGradient><path d="M26.3 62.4a38 38 0 0 1-6.1-5.7c-1-1-2.8-2.8-4.7-2.6q-.6 0-1.3.5a45 45 0 0 1-5.7-10q-1-1.6-2.3-1.2c-1.3.4-2 2-1.9 3.8.6 5.9 5.2 13 7 14.7A20 20 0 0 1 15 72.3q0 .8.8 1l9.5 1.5h.2a1 1 0 0 0 1-.6c.5-1.9 2-6.3 2-7.3a5 5 0 0 0-2.2-4.4" style="fill:url(#a)"/><linearGradient id="b" x1="111.8" x2="111.8" y1="53.1" y2="85.6" gradientTransform="matrix(1 0 0 -1 0 128)" gradientUnits="userSpaceOnUse"><stop offset=".5" style="stop-color:#ffca28"/><stop offset="1" style="stop-color:#ffb300"/></linearGradient><path d="M122 43.5c-.6-.3-1.7 0-2.3 1.3a45 45 0 0 1-5.7 9.8q-.7-.5-1.3-.5c-1.9-.2-3.7 1.6-4.7 2.6q-2.8 3.2-6 5.7a5 5 0 0 0-2.3 4.4c0 1 1.5 5.4 2.1 7.3q.2.7 1 .7h.1l9.5-1.6q.8-.2.9-1.1s-.4-5.4 3.7-10.1a34 34 0 0 0 7-14.8c.2-1.7-.6-3.4-2-3.7" style="fill:url(#b)"/><linearGradient id="c" x1="64.1" x2="64.1" y1="44.6" y2="1.8" gradientTransform="matrix(1 0 0 -1 0 128)" gradientUnits="userSpaceOnUse"><stop offset="0" style="stop-color:#00bfa5"/><stop offset=".5" style="stop-color:#00b29a"/><stop offset="1" style="stop-color:#009e89"/></linearGradient><path d="M115.6 70.5q-.1-1.3-1.4-1.5l-12.8-.7h-.1q-1.3 0-1.6 1.3l-2.7 19a26 26 0 0 0-17.8-6.2L49 82.3c-8 0-13.7 2.6-18 6.2l-2.6-19q-.1-1.3-1.5-1.4h-.1L14 69q-1.4.2-1.5 1.5l-.1 40.5c-.1 7.1 5.6 13 12.7 13 4.9 0 8.8-3.7 9.4-8.3v8.4h59.1v-8.3a9.5 9.5 0 0 0 9.5 8.3c7 0 12.8-5.9 12.6-13z" style="fill:url(#c)"/><path d="m99 123.1-1.6-1a10 10 0 0 1-3.8-6.4l-.4-10.7s.6 9.2 5.9 18.1M35 105l-.5 10.6c-.4 3.2-2.5 6-5.3 7.4 5.1-9 5.7-18 5.7-18" style="fill:#009984"/><path d="M55 78.3v10c0 4.5 3.5 8.2 9 8.2s9-3.7 9-8.2v-10zm31.5-34.5-49.7 6c-5.4.7-9.2 5.9-8.5 11.6s5.6 9.9 11 9.2l49.7-6c5.4-.7 9.2-6 8.5-11.6-.7-5.7-5.7-9.9-11-9.2" style="fill:#e59600"/><path d="M57.3 11c-15.9 2-28.5 20.6-25.5 45 3 24.2 19.5 34.4 35 32.5s29-15.7 26-40S73.1 9.2 57.3 11" style="fill:#ffca28"/><path d="M71 75.7c.3 2.8-2.2 3.6-5.2 3.8-3 .3-5.6-.2-5.8-3s2.1-4.7 5.2-5c3-.2 5.6 1.3 5.8 4.2" style="fill:#795548"/><path d="M67.1 62.4h-.3l-6.4.7-.3.2q-1 .6-.5 1.5c.4.6 1.9 2.3 4.5 2a5 5 0 0 0 3.8-3q.2-1-.8-1.4" style="fill:#e59600"/><ellipse cx="47.5" cy="56.5" rx="4.5" ry="4.7" style="fill:#404040" transform="rotate(-6.9 47.55 56.45)"/><ellipse cx="77.3" cy="52.9" rx="4.5" ry="4.7" style="fill:#404040" transform="rotate(-6.9 77.32 52.87)"/><path d="M81.8 45a11 11 0 0 0-8 .2c-1 .3-2 1.1-2.9 1.2q-1.1 0-1.5-1-.2-1 .5-1.7a9 9 0 0 1 9-3.4c1.5.3 3.2 1 4.2 2 1 1.2.4 3.2-1.3 2.7m-42.2 3c1.6-3.1 5.4-4.5 8.7-4.2q2.3.3 4.2 1.7c.9.6 2 2 .6 3-1 .5-2.4-.2-3.4-.4a11 11 0 0 0-7.8 1.6c-1.3.8-3-.2-2.3-1.8" style="fill:#6d4c41"/><path d="M56.6 4.4C14.7 9.6 29 56.3 29 56.3l3.6 6.7q.4.4.7-.1c.4-4.1 1.9-18.6 3-23.1a5.6 5.6 0 0 1 5.8-4.3c4.2.3 10.8.4 18-.4h.2a103 103 0 0 0 17.6-3.8c2.6-.8 5.4.3 6.6 2.8 2.1 4 7 17.7 8.4 21.7 0 .3.5.3.6 0l2-7.4s2.8-48.7-39-44" style="fill:#543930"/><radialGradient id="d" cx="59.8" cy="84.1" r="35.2" gradientTransform="rotate(173.2 2.26 73.01)scale(-1 1.128)" gradientUnits="userSpaceOnUse"><stop offset=".8" style="stop-color:#6d4c41;stop-opacity:0"/><stop offset="1" style="stop-color:#6d4c41"/></radialGradient><path d="M95.5 48.4s2.8-48.7-39-44l-5.4 1h-.3c-34.6 8.7-21.7 50.9-21.7 50.9l3.5 6.7q.4.4.7-.1c.4-4.2 2-18.6 3-23.1a5.6 5.6 0 0 1 5.8-4.3c4.2.3 10.8.4 18-.4h.1A103 103 0 0 0 78 31.3c2.6-.8 5.4.3 6.6 2.8A288 288 0 0 1 93 55.8q.3.4.7 0z" style="fill:url(#d)"/></svg>