<svg xml:space="preserve" width="16" height="16" viewBox="0 0 128 128"><path d="M6.3 66.4V124h116V66s-23-15.8-24.1-16-32.4-28.7-32.4-28.7L31.5 49z" style="fill:#f8c778"/><path d="M6.3 66.3h27.4V124h4.5V53.8l27-23.7 27 24.8V124h4.3V66l25.9.2v-3.5L98.8 50.1 67.3 22.4 32.5 49.5 6.4 63z" style="fill:#f5b03f"/><path d="M13.1 42.6 5.8 62.5q-.2.7 1 1h28.4v-12S64.7 25 65 25s30.2 27.3 30.2 27.7l.2 10.3 26.7.2q.9 0 .2-2c-.4-1.4-5.9-18.3-6.3-18.6s-22-.3-22-.3L66.5 17c-.5-.4-1.9-1-3.1.2L35.2 42.5s-21.9-.3-22.1 0" style="fill:#a62714"/><path d="m44 80.6-.1 43.5h42.4V80.6z" style="fill:#cf6150"/><path d="M3.6 124.3c.4.5 4.7.3 16.2.3h15.5c.6-.2 1-2.8.7-5-.5-2.5-2-4.8-4.3-5.6-3.2-1-5.2 0-6.8-.6s-6-2.8-10.6-2.5c-3.9.3-6.7 1.4-9.1 5-2.6 3.8-1.8 8-1.6 8.3M126 124c.7-.4.6-11.8-7.3-12.6-5.9-.7-7.4 1.9-8.4 1.9s-4.9-1.9-10.2.2c-6.6 2.5-6.5 10-6.2 10.6s7 .6 16.4.6 15-.2 15.8-.7" style="fill:#7db240"/><path d="M11.6 69.6h18.7v15h-19s.1-14.8.3-15m-.3 22.1H30v14.6H11.2s0-14.7.1-14.6" style="fill:#3e737c"/><path d="M14.4 72.4h12.7v10H14.2s0-10 .2-10m-.6 21.7h13.5v9.7H13.8z" style="fill:#a7d0d7"/><path d="M99.7 70.5h18.6v15H99.6z" style="fill:#3e737c"/><path d="M102.3 73.1h13.3v9.7h-13.3z" style="fill:#a7d0d7"/><path d="M99.4 92.6H118v14.2H99.4z" style="fill:#3e737c"/><path d="M102.3 95.2v8.7H115v-8.8z" style="fill:#a7d0d7"/><path d="M50 124V85.4h30.6v38.8z" style="fill:#3e737c"/><path d="M77 93.2v-5H53.7v5zm-23.2 2.6h23.1v13.3H53.8zm0 16h23.1v6.9H53.8z" style="fill:#a7d0d7"/><path d="M64.3 94.7v26h2.6V94.5zm.2-54.7a16.3 16.3 0 0 0-16.8 17.8 16 16 0 0 0 17 15.5c9.3-.3 16-7.7 16.3-16.6S74 40 64.5 40" style="fill:#3e737c"/><path d="M64.2 43c-8.4 0-14 6.5-13.7 14.2.3 7.5 5.4 13.1 14 13.1 7.9 0 13-6.5 13.2-13.2.2-7.3-5.2-14-13.5-14" style="fill:#fff"/><path d="M61.7 57.5s-4.9 4-5.1 4.6-.3 1.2.4 1.8q1 .5 1.7-.1l5.5-4.6s1.7 0 2-2c.4-1.6-.7-2.3-.7-2.3l-.3-10.2c0-.5-.6-1-1-1q-1 0-1.1 1.2l-.1 9.8s-.7.3-1 1c-.5.8-.3 1.8-.3 1.8" style="fill:#2f2f2f"/></svg>