<svg xml:space="preserve" width="16" height="16" viewBox="0 0 128 128"><path d="M47.8 3.5c0 1.5-1.3 120.6-1.2 121.2s9 .5 9 .1c0-.7 1.5-120.4 1.4-121.2 0-.5-9.2-.6-9.2 0" style="fill:#ffd51d"/><path d="M47.8 4.4 56.9 16v6s-4-4.3-5.9-6.6C49 13 47.7 11 47.7 11zm-.3 22.3a63 63 0 0 0 9 11.7v11.8l-9.3-1.7zM47 84.9l-.1 4.1s1.8 3.1 4.2 5.8l4.7 5.2.2-15.1-3.8-1.9zm-.3 20.5a137 137 0 0 0 9 10.4l-.1 5.7-5.6-5.7-3.3-3.8z" style="fill:#fda726"/><path d="M8.9 99.4s-1.6-2.3-.6-5.1c1-3 3.1-4.2 4.2-6.6 1.4-3.4 1-6.1 3.7-8.6 2.4-2.3 5.7-1.4 8.6-2.3s4.2-2.6 4.2-2.6l6.8 2s-1 7.6-3.7 7.5-12 1.6-12.2 2l-8.6 13.5zM72 83c.1.5 2.3 3.7 5.8 6.5 3.5 2.9 8.7 5 10.4 6.3s3 1.8 5.2 4.7 2.8 4.6 4.4 6.8a22 22 0 0 0 9.6 7.7c.5-.1 2.7-4.8 2.7-4.8s-6.8-7.8-8.3-10.5a26 26 0 0 0-8-8.7C92.1 90 81 76.2 81 76.2z" style="fill:#8a867e"/><path d="M93.4 53.5s1.1-1.3 1.8-1.8c1-.6 1.7-1 3.1-1 1.3 0 5.3 3.4 5.3 3.4l9.5 17.5 6 6.9c0-.2 3.8 1.8 3.8 1.8s-.7 4.4-8.4 4.1a16 16 0 0 1-15-10.2 25 25 0 0 1-1.5-7.7z" style="fill:#7a57bd"/><path d="M96.5 51s.5 2.4 2.5 4q3 2.4 5 5.4c2 3 4.4 10.2 8.4 14.8s5.4 5 7 5.5a5 5 0 0 0 3 .3c.6-.3 1.3-1.7-2-4.7s-5.2-6.5-7-10c-1.7-3.6-2.6-11.6-7.5-14.9s-9.4-.5-9.4-.5" style="fill:#a47fcc"/><path d="M96.3 55.4s3.1 4 3 9.6-2.8 9.4-2.8 12.7.7 5.5 3.9 6.5 5 1.5 5.5 2.9.5 4.7 2 7.5 2.5 3.5 3.2 5c.8 1.6 1 4.3 1 4.3s-1.7 7.8-3.5 4.5c-2-3.3-8.3-16.5-10.1-18C96.7 88.7 87 78.1 87 77.5s9.2-22.2 9.2-22.2m-82 45.4 3.7.5.1-2.6s1.2-2.5 2.4-4c1.2-1.7 2.3-3.5 4.6-3.8 2.3-.4 16.7 0 18-.7 1.1-.7 3.6-3.7 3.6-3.7s8.7.7 17.8-1.1A99 99 0 0 1 75 83.5l6.4-.6s6.7-3 6.5-3.6a55 55 0 0 0-5.7-9.4c-.5.3-38.7 3.8-39.3 4.5l-7.5 7.8-15.5 4c-.3.2-6.6 13.4-6.6 13.4zm10-34.8s0-3.1.5-7c.4-3.7 1.3-8 1.4-11.1q0-5.6-.7-5.9c-.4-.1-2.2 4.2-2.2 4.2s.1 2-.7 3.8c-1 2.3-2.5 1.5-2.5 1.5L18 45l3.6-10 2-13.5L30 26l4.3 17.1-1.5 16.3-4.3 8.1z" style="fill:#aca399"/><path d="m81.8 48.4-4.2 10.2 4.7 21.6-4 3.1s3 5.7 7.5 8C90.5 93.4 94.6 93 96 93q2 0 3.1 1.7c3.9 5.3 3.6 10.2 4.7 12.2 1.9 3.4 4.2 3.7 4.2 3.7s4.2-1.5 4-1.8c0-.3-1.9-3.5-1.9-3.5s-.7-3.2-2.4-6c-1.6-3-2.6-4.4-3-7.4s-.6-4.5-3.8-5.2c-3.3-.8-7.5-2.8-7.2-6.9.3-4 5.5-12.8 4.7-19.2-.6-5.4-5.3-10.5-12.7-11.7z" style="fill:#f1edec"/><path d="M112.1 102.3c-.4.1-1.6 2.8-2.4 4.3-.7 1.1-2.5 3.7-2.4 4.1s5.8 5.8 6.2 6c.5.4 1.5 0 2-1.5s2.4-10.7 2.4-10.7-5-2.3-5.8-2.2" style="fill:#5e6367"/><path d="M86.5 52.5c-.4 1.1.6 2 2.4 3.6a10 10 0 0 1 3.1 6.3c.3 2.5.7 4.3 2 4.4 1.6 0 3.3-3.6.6-9.1-2.8-5.9-7.9-5.8-8.1-5.2" style="fill:#fff"/><path d="m82.4 49.9-.2 29.8s-2.5 1-5.6 0-4.1-3-4.1-3-2.3 3.8-8.3 3.8c-6-.1-7.5-3-7.5-3s-1 2.4-5.5 3c-2.5.3-4.6.3-5-.7l-7.5-22.6L62.4 51z" style="fill:#b0e4fe"/><path d="m49.3 57.9-.2 19s2 0 4-1.3 2.8-2.7 3.2-2.6c.4 0 3 3.9 7.7 4 5.4.1 7.7-4.4 8.1-4.4.6 0 1.7 2 3 2.6 2 1.2 3.7.6 3.7.6V54.3z" style="fill:#34b6e2"/><path d="M8.2 27.8s-1-6 1.2-9.4 5.6-4.5 5.6-4.5l6.3-1.6s2.4-1 7-.8S36.8 14 39 15.2c2.5 1.4 4.7 4.5 4 5.8-.8 1.4-3 .4-3 .4s5.8 4 8.6 11.3C50.8 38.7 51 45 51 45l7.4 11.6 22.5-11s1.5-.1 2.4.6c1.4 1 1.6 2.7 1.6 2.7s-1.4.4-3 2.6c-4.4 6.2-6.9 21-18.9 20-10.4-.9-12.2-11.4-13-14-.7-2.8-10-11.3-10-11.3l-9-20.4-9.4-8.6-10.1 10z" style="fill:#7a57bd"/><path d="M29.2 79.4s-2 1.1-4.6 1.5-5.4 0-7.5 2.2-1.2 5.4-2.8 7.8c-1.7 2.5-3 4-4.4 5.5s-1.7 3.2-1.6 4.7c0 1.4 1.3 4 1.3 4l6.9-.6v-4.4s-1-1.6.3-3.8c.8-1.5 3-5.2 3.8-6.2s1.2-2 2.9-2.3c1.8-.3 16.5-.4 17.8-1s4.4-3.9 4.6-6.3c.2-2.3.3-21.7.3-21.7l1.4-10.6-1.6-4.4c-2.8-7.3-6.1-15-12.5-22.3C27.3 14.3 21 15 21 15s-9.8-8.8-10.3-9.6S9.5 4 9.4 4.6s.2 6.7.2 6.7l3.7 6.2s-.8 3-2 6-3.1 4.3-3.1 4.3l-.8 13S6 43.4 5.8 46.5c0 3 12.2-.4 12.3-.6s4.1-11.5 4-12 3.1-9.6 3.1-9.6 5.6 8 4.7 17.2c-.3 3.2-.8 6.6-1.3 9.3l-2.5 15L29.2 77z" style="fill:#f1edec"/><path d="M20.9 103.2q0 .8-4 6.3c-4 5.5-3.8 5-4.8 3.5s-1.4-4-1.8-5.3l-1-3 8.7-6s2.9 3.5 2.9 4.5" style="fill:#5e6367"/><path d="M14.4 34c-.5.2-.9 2.2.7 4.2 1.5 2 3.3 2.9 3.3 2.9l1.4-3s-2-1.2-3-2.2c-1.1-1-2-2-2.5-1.9" style="fill:#fff"/><path d="M9.4 4.6c-.3 0-2 2.3-.8 6.6.6 2.6 5.5 7.4 5.5 7.4l2.9 2s-.4-3-2.2-5-3.7-4.3-4.3-6.2-.2-5.3-1.1-4.8" style="fill:#aca399"/><radialGradient id="a" cx="12.9" cy="55.8" r="17.5" gradientUnits="userSpaceOnUse"><stop offset=".7" style="stop-color:#ffa8a6"/><stop offset=".9" style="stop-color:#ffa8a6;stop-opacity:0"/></radialGradient><path d="M7.4 40.9s-1.7 3-1.6 5.9c0 2.6.9 4 2.5 5.5 1.7 1.4 4.5 2.5 6.2 1.8.3-.1.4-1.8 1-3 .4-1 2-2.5 2-2.5s.7 1.6.8 2.4.2 2.4.5 2.4c1 .3 2.6-.8 3.6-3.2 1-2.6.8-4 .8-4l1.7-3.9s-.9-6.6-6.6-8.2-10.6 1.3-10.6 1.3z" style="fill:url(#a)"/><path d="M9.8 43.1c-1.6-.1-2.2 1.6-2.2 3.6s1 2.8 2 2.8 2-1.3 2-3.1q0-3-1.8-3.3" style="fill:#845b51"/><path d="M10.9 30q.2.8 1.4 1.4c.8.3 1.7.1 1.7.1s.2 2 1.6 2 1.6-2.5 1.4-3.8-1-2-1-2-2.3-.4-3.7.6c-1.1.7-1.4 1.6-1.4 1.6" style="fill:#464d50"/><path d="M18.1 12.4s2.4 2 2.7 5.3l.4 4.6-8.8-5.5s-.5 1-.5 2l.2 2.4 9.1 5.6s-.3 5-1.8 10.3c-1.3 4.6-3.1 8-3.4 8.7s-1.4 3.4 1.1 4c2.2.5 2.6-2.6 3.3-4s2.2-5.3 3-8.7A43 43 0 0 0 25 18c-.6-4.2-1.9-5-3.4-5.6-1.1-.5-2.7-.8-3.5 0" style="fill:#34b6e2"/><path d="M24.1 64s-.2 2.8.4 7c.5 3.3 3 8.7 4.7 8.3.5-.1-.6-5.3 1-7.3 1.1-1.4 3.2-1.7 8.3-4.6 4.4-2.5 8.2-7.3 8.2-7.3L46 53l-5.4 1.3s-4 4-8.7 6.4A43 43 0 0 1 24 64" style="fill:#d853c9"/><path d="M43.6 52.7s-2-.8-3.2 1.3c-1.5 2.6-1.5 7.2-1.6 7.6s-1.1 1.4-.2 1.6 4.5-.1 6.8-1.8 2.7-3.9 2.7-3.9z" style="fill:#34b6e2"/><path d="M82 45.6s-1.3 0-4.4 3.8c-4.2 5.3-6.3 16.3-13.8 16.3S55.2 59.2 53.2 54s-5.6-7.7-5.6-7.7-2-1.2-1-2.8c.9-1.2 3.4 0 4.8.6s4 2.3 5.7 3c4.4 1.7 8.6.6 10.9 0s4.5-1.5 8-1.8c4-.4 6 .2 6 .2" style="fill:#a47fcc"/><path d="M45.4 48c-2 1.3-4 4.4-1.6 8.4 2.2 3.6 7 2.4 8.3 1 1.7-1.6 2.4-5 .6-7.8s-5.5-2.9-7.3-1.6" style="fill:#ffa6a3"/><path d="M47.6 50.6c-1 .2-2 1.7-1.5 3.3.4 1.4 2 2 3 1.5q2-1.1 1.3-3.4-.9-1.7-2.8-1.4" style="fill:#f182a7"/></svg>