<svg xml:space="preserve" width="16" height="16" viewBox="0 0 128 128"><path d="M41.1 34.7 35.2 41s79.7 81 81.7 82.4c5.2 3.7 9-1 5.3-4.9z" style="fill:#e0c290"/><path d="M7.7 5.5c-2.2 2-2.3 5.2-2.7 26S4.4 62 8 63.2c5 1.6 19-11.6 31.4-22.9 8.3-7.5 19.8-18 24.2-24.4 2.2-3.3 1.4-5.1 0-6a85 85 0 0 0-28.7-5.6c-17-1.3-25-1-27.2 1" style="fill:#937672"/><path d="M11.4 58.2Q10 58 10 56.7c0-.2 0-14-.3-24.5s.6-22.4.6-22.5q.1-1.3 1.5-1.4S25 8 33.2 8.4c8.3.4 25.7 3 26.4 3a1.5 1.5 0 1 1-.4 3c-.2 0-18-2.6-26.2-3-6.5-.3-16.3-.2-19.9-.1-.2 3.4-.7 12.6-.5 20.9l.3 24.5q0 1.3-1.5 1.5m12.9-9q-1.3-.1-1.5-1.5V25.3l.5-15.2c0-.8.8-1.5 1.6-1.4q1.4.1 1.4 1.5l-.5 15.1v22.4q0 1.4-1.5 1.5m25.9-23.5c-.2 0-16-.2-20.8-.1H11.8a1.5 1.5 0 1 1 0-3h38.4q1.3.3 1.5 1.6-.2 1.3-1.5 1.5m-38.9 14a1.5 1.5 0 0 1 0-3l25.5-.4.1-26Q37 9 38.4 8.8q1.4.1 1.5 1.5v27.5q-.2 1.3-1.5 1.5z" style="fill:#7b5e5a"/><path d="M15 30.9c-1 .9-1.2 2.6 0 3.6s2.6.8 3.4 0q1.3-2-.4-3.6c-.7-.6-2.2-.8-3 0m-.4-11.4q1.3.1 1.2 1.1c0 1-.4 1.1-1 1.2s-1.4-.5-1.3-1.2q0-1 1.1-1.1m14 10.8q.2 1.8 2.3 2c1.4-.1 1.9-1.4 1.9-2.3 0-1-.7-2.1-2-2.1q-2 0-2.2 2.4m4.8-2.9c0 .8.3 1.7 1.5 1.6s1.4-1 1.4-1.5S36 26 35 26q-1.5.1-1.6 1.3M47 16c0 1.6 1.3 2.2 2.3 2.1q2-.2 2-2.2c0-1.3-1.1-1.8-2-1.9s-2.2.7-2.2 2m7.9 2.2c-1 0-2 .9-1.8 2.2q.4 1.5 2 1.4c1.1 0 1.6-1 1.6-2 0-.7-.6-1.6-1.7-1.6M14.2 48.7c-1 .8-.5 2.2.1 2.7s2 .5 2.6-.3c.4-.7.4-1.9-.3-2.4q-1-.9-2.5 0" style="fill:#5d423c"/><path d="M58.4 42.1s-20.6 1.6-23.1 9.6a23 23 0 0 0 2.4 19.1c2.9 4.3 8 8 16.4 8.7 6.4.5 11.4-1.4 15-4.3l-2-2 6-5.6 1.1 1.3c3-5.8 3.7-14 2.3-17.7-1.9-5-18-9-18-9" style="fill:#ffa62b"/><path d="M60.7 35.3C50.3 32.8 39 40.5 36 49.3s2.3 21.5 15.6 24.5c14.4 3.3 25-9.3 25.2-19 .3-9.8-5.7-17-16.1-19.5" style="fill:#f7c876"/><path d="M44 46c-1.9-1.3-6 2.8-5.5 8.5.4 5 3 8 5.3 7.5 3.6-.7.7-5.1.6-9.4 0-2.6 2.1-5-.3-6.6" style="fill:#fefffe"/><path d="M73.4 74.2c-9.7 9.3-20.2 17.3-22.2 19-1.9 1.7-4.9 3.2-5 6q-.6 4.4 1 8.2c1.6 3.8 5 6.6 7 8.5s8.2 6.8 10.9 7.8c2.6 1 5 0 6.6-.6s3.4-3.3 3.4-3.3l11.6-18.6L99 90s19-14 18.9-14.5 1-3.8.5-6.1-3-4.4-3-4.4.2-3.2-.7-5.1a9 9 0 0 0-3.8-3.3c-2-.9-5-.9-5-.9s0-3.3-6.1-4.6c-3.8-.9-7.2 3-8.4 4.5a303 303 0 0 1-18 18.6" style="fill:#ffedc4"/><path d="M53.5 103.7c-2.2 2.2 1.7 6.5 4 8.6 2 1.9 6 5.3 8 3.4 2.3-1.9-1.3-6.6-3.7-9-2-2-5.8-5.4-8.3-3" style="fill:#bf9177"/><path d="M60.4 96.3c.8 1.6 7.3-2.6 8.7-3.5 4-2.8 13.2-11.4 19.2-17.2S106 55.8 106 55.8s-.3-1.5-1.3-2.5c-.7-.6-2.2-1.3-2.2-1.3S87 69.8 83.2 73.4A430 430 0 0 1 66.9 88c-2 1.5-7.3 6.5-6.5 8.2m10.6 8.4c1.1 1.1 5.5-2.3 8-4.4 2.4-2.3 17.5-16.7 21.4-20.2 4-3.6 15-15 15-15s.3-1.6-.1-3.5c-.3-1.4-1-2.4-1-2.4L98.6 75c-2.8 3.1-19 18-21.3 20-4.1 3.7-7.2 8.8-6.2 9.7m5.6 6.1c-2.6 4.2-3 10.7-3 10.7s7.2-8.6 11.8-13.3l8.3-8c-.8-1-1.8-1.9-1.8-1.9l5.6-5.3 1.9 2 10.7-9.7c4.1-3.3 7.4-5.7 8-6.8s0-5 0-5-12.4 8.4-23.4 19c-8.5 8-16.4 15.4-18.1 18.3" style="fill:#fac96d"/></svg>