<svg xml:space="preserve" width="16" height="16" viewBox="0 0 128 128"><path d="M114 98.7c-2.7-5-7.7-6.2-13.2-5h-.3c1.5-2.8 2.7-5.6 3-10.7a26 26 0 0 0-10.2-23.3c-11.1-9.5-43.4-6.4-43.9-6.4-4.1.2-9.9 2.7-13 5.5a35 35 0 0 0-12.6 23.8c-.2 3.4.4 7.4 2 10.7-4.4-.6-9 1-11.8 6-2.3 4.1-1.7 9.2.9 13.9 3.4 6.3 11.1 12.2 18.8 10.5 7.8-1.8 14.5-9.5 21.4-13.6q.7-.5 1.6-.3c4.3.5 10.3.5 14.1 0q1.3 0 2.1.8a75 75 0 0 0 16.4 12c9.3 3.7 18.5-.4 23.5-9.3 2.6-4.6 3.8-9.7 1.2-14.6" style="fill:#a65f3e"/><path d="M84.9 105.2q-.8 0-1.4-.2c-4-.7-6.4-4.7-6.7-8.3s1-7.1 2.5-10c.2-.5 2.8-5.3 3.5-8.5 1-5 .2-9.4-.1-11.4s1.2-1.6 1.9-.2c1.6 3.5 1.9 8.4 1.1 12.2-.6 3.4-3.5 8.7-3.7 9.2a17 17 0 0 0-2.3 8.4c.2 2.4 1.8 5.3 4.3 5.7q4 .7 7.4-2.6l2.5 1c-1.9 1.7-5.2 4.7-9 4.7M46 81.5c-.6-3.3-1-7.4 1-10.3l-1.5-2.9c-3.8 3.8-3.2 9.9-2.5 13.7.1.5 1.6 8 .8 11a10 10 0 0 1-7.4 6.8q-3-4.5-7.7-6.3c-3-1.3-7.3-1-9.8.9a12 12 0 0 1 8.3.6c3.6 1.7 5.8 4 7.8 9 .7 1.6 1.2 4.2 2.8 3.8.9-.2 1.6-1.1 1.2-2.6-.3-1.5-.9-2.5-.9-2.5s5.5-1 8.5-9c1.6-4-.6-11.7-.6-12.2m45.4 26.1q-.4.9-1.3.9c-.9 0-1.4-1-1.5-2 0-7.2 8-13.8 15.2-13.3q-8.7 2.1-12 13.3 0 .5-.4 1M54 80.3 51.8 78c3.6-3.4 8.5-8.1 9.4-12.4l2.9.6a33 33 0 0 1-8.7 14.3 1 1 0 0 1-1.4 0" style="fill:#703b26"/><path d="M71.4 65.1c6-1.3 10.5-5 10.7-9.6l-32.9-2c-.2 3.5 2 6.8 5.7 9Q48 64 46 65.2a2 2 0 0 0-1.2 1.8c0 3.8 4 11.5 7 12 2.8.5 9.3-7.9 11.7-11.5 0 5.6.9 15.5 2.5 16.3 3.4 1.6 14.2-4.3 14.6-7.3.2-2.4-4.6-7.1-9.1-11.3" style="fill:#ffca28"/><path d="M100.2 19.5a11 11 0 0 0-16.3-8.8q-2 1-3.9.1c-2-1-5.2-2.2-10-2.8s-8.3-.1-10.5.4q-2.4.4-4-1.2a11 11 0 0 0-16.7 14.1c1.5 2 1.8 4.8.8 7.1-1 2.4-2.7 7.7-2.7 10.5.2 12.7 11.7 19.3 26.9 21.2s28.8-2.8 31.4-16c.6-2.9.4-6.8-.1-9.7a8 8 0 0 1 2-6.6c2-2 3.3-5 3-8.3" style="fill:#a65f3e"/><path d="M41.4 15.7a5.7 5.7 0 0 1 6.2-5.1c1.1.2 4.6 1.5 3.4 3.3l-.9.8Q47 17 44.4 20.3q-.5.8-1.1.7c-1.5-.7-2.1-3.9-2-5.3m54 6.8c.4-3.2-1.7-6-4.7-6.4-1.2-.2-4.9.3-4.2 2.3l.7 1q2.5 3 4 6.9c.2.4.5 1 1 .9 1.6-.3 3-3.2 3.2-4.7" style="fill:#874d36"/><path d="M62 33.2c-3 3.4-5.2 5.3-7.3 8.3-3.6 5-1 13.9 9 15.2 7 .9 13-2.4 13.1-9.1.1-4.3-3.6-10-5.6-13.6-2.4-4.6-6.2-4.4-9.2-.8" style="opacity:.7;fill:#f29657"/><ellipse cx="53" cy="31.5" rx="4.8" ry="4.1" style="opacity:.55" transform="rotate(-81.9 53 31.5)"/><ellipse cx="80.6" cy="35" rx="4.8" ry="4.1" style="opacity:.55" transform="rotate(-81.9 80.58 35)"/><path d="M57.6 47.2c1.9 5.6 11.3 6.8 14.6 1.9" style="opacity:.55;fill:none;stroke:#000;stroke-width:2.4465;stroke-linecap:round;stroke-miterlimit:10"/><path d="M67.8 47.8c-2.4.6-4.9.1-6.5-1.9-1.2-1.5-2.4-4-.7-5.8 2.4-2.5 8.5-1.8 10.7.7 1.2 2.1-1.2 6.6-3.5 7" style="opacity:.55"/><path d="M16.2 106.6c0-1.9 1.4-4.5 3.1-5.2 4.1-1.5 8.6.3 11 6 2.1 4.6 2.3 9.5 1.4 10.8-1.3 1.9-3.1 1.6-4.4 1.4a14 14 0 0 1-6.3-3.4 12 12 0 0 1-4.8-9.7m95.6 0c-.1-1.9-1.5-4.5-3.2-5.1-4.2-1.5-8.6.4-11 6-2 4.7-1.7 9-1.5 10 .9 2.7 3.5 2.5 4.8 2.2 2.4-.4 4.4-1.9 6.2-3.4 2-1.6 4.8-4.9 4.7-9.7" style="opacity:.7;fill:#f29657"/></svg>