<svg xml:space="preserve" width="16" height="16" viewBox="0 0 128 128"><path d="M33.4 75 22.2 86.2 4.3 116.4c-.5 1-.6 2.7 2.2 5.4 2.7 2.7 4.1 2.4 5 1.9l30.3-17.9L53 94.6z" style="fill:#c62828"/><path d="M18.5 106.5c-.2.2-9.3 10.9-9.8 11.3-1 .9-2.3.1-1.6-1.5.6-1.2 3.2-6 5.2-9.2 1.1-1.9 3.8-6.6 6.3-5.3 2.3 1.1.9 3.4-.1 4.7" style="fill:#f44336"/><path d="m21.2 87.9-3.5 6s3.1-1.9 7.7 4.8c3.6 5.3 3.8 14.5 3.8 14.5l10.6-6.2c-.2-.4-18.6-19.1-18.6-19.1" style="fill:#ad1414"/><path d="M19.7 83c-1.5 1.5-.9 5.8.7 7.3l17.2 18c1.6 1.5 5.9 1.5 7.4 0L121.2 32 96 6.6" style="fill:#c62828"/><path d="M21.8 80.9s3.4 4.7 11.4 12.6A129 129 0 0 0 47 106.2L121.2 32 96 6.7" style="fill:#ef5350"/><path d="M93.9 8.8s5.6 2.2 13.6 9.8A44 44 0 0 1 119.2 34l4.2-4.3c.8-.7 2-8.4-7.4-17.9s-17.1-8-17.9-7.3" style="fill:#c62828"/><path d="M110.2 11.3q.5.9.6 1.9t-1 1.6c-1 .4-2-.4-2.8-1l-6.7-4c-2.4-1.4-.6-4.8 2-4.2a14 14 0 0 1 8 5.7" style="fill:#f44336"/><path d="m52.6 100.7 5.7-5.7c-12-10-25-25.6-25-25.6l-5.8 5.8c4 5.6 13.5 15.7 25 25.5m37.3-87.8L84 18.7a105 105 0 0 1 25.6 25l5.8-5.8a112 112 0 0 0-25.7-25" style="fill:#424242"/><path d="M97 78.7v-.2" style="fill:none"/></svg>