<svg xml:space="preserve" width="16" height="16" viewBox="0 0 128 128"><path d="m82.9 69.4 25.3-31-3-7.2-11 6.2-.6.7-11.5 23.4c-1.6 3.3-1.8 4.6-1.5 5.6.2 1 2.3 2.3 2.3 2.3" style="fill:#82aec0"/><path d="M122.3 17.8c-4.4-2.5-10.2-.4-13 4.6-1.1 2-1.4 4.4-1.4 5.3-.1 1.3-2.2 2.9-2.8 3.4q-.2 0-.1.3l3.1 6.9q.3.2.5 0l.8-.6a6 6 0 0 1 4.8-1c4 1 8.5-1.2 11-5.4 2.7-5 1.4-11-3-13.5M114 32.3c-2.6-1.5-3.3-5.1-1.7-8.1s5.2-4.3 7.8-2.8c2.7 1.5 3.4 5.1 1.7 8.1s-5.1 4.3-7.8 2.8" style="fill:#de3e31"/><circle cx="98.5" cy="41.3" r="2" style="fill:#b9e4ea"/><circle cx="98.5" cy="41.3" r="2" style="fill:#b9e4ea"/><path d="m95 39.3-2.4 1-.5 1 .6 8.5 2.9 1zm4.8-5 1.1-.6 4.8 5.5v2.3l-3.7 4.1z" style="fill:#2f7889"/><path d="M104.7 57.1c-2.3 2.5-10.2 6.5-15 5.7l-4.4-13.5 4.3-4.6s4.3 6.8 10 6.7c5.9-.1 7.8-2.4 7.8-2.4s.2 5-2.7 8.1" style="fill:#543930"/><radialGradient id="a" cx="-254.1" cy="160" r="7.5" gradientTransform="matrix(-.427 1.285 -1.295 -.327 197.12 426.47)" gradientUnits="userSpaceOnUse"><stop offset=".7" style="stop-color:#6d4c41"/><stop offset="1" style="stop-color:#6d4c41;stop-opacity:0"/></radialGradient><path d="M98 58.3c-14.8.7-8.6-13.9-8.6-13.9s3.2 5.4 8.3 6.4c6.8 1.4 9.8-1.8 9.8-1.8s-.2 9-9.4 9.3" style="fill:url(#a)"/><path d="M82.2 80.3c-1.3-2.3.3-4.6 3-7.5 4.3-4.5 9-15 4.7-25.7 0 0-1-1.9-.9-2h-1.8a3374 3374 0 0 0-80 0l-2.5 2a25 25 0 0 0 4.6 25.7c2.7 2.9 4.3 5.2 3 7.5-1.1 2.2-4.7 2.5-4.7 2.5s.8 2.3 2.8 3.5c1.8 1.1 4.1 1.4 5.7 1.4 0 0 6.1 8.5 22.2 8.5h18c16 0 22.1-8.5 22.1-8.5 1.6 0 3.9-.3 5.7-1.4 2-1.2 2.9-3.5 2.9-3.5s-3.6-.3-4.8-2.5" style="fill:#543930"/><radialGradient id="b" cx="116.4" cy="44.4" r="23.4" gradientTransform="matrix(1 0 0 .491 -54.56 60.79)" gradientUnits="userSpaceOnUse"><stop offset=".7" style="stop-color:#6d4c41;stop-opacity:0"/><stop offset="1" style="stop-color:#6d4c41"/></radialGradient><path d="M47.2 96.2v-9.4l28.6-2.3 2.6 3.2s-6.1 8.5-22.2 8.5z" style="fill:url(#b)"/><radialGradient id="c" cx="94.8" cy="51.7" r="6.9" gradientTransform="rotate(155 85.32 57.62)scale(1 .742)" gradientUnits="userSpaceOnUse"><stop offset=".7" style="stop-color:#6d4c41"/><stop offset="1" style="stop-color:#6d4c41;stop-opacity:0"/></radialGradient><path d="M78.4 83.6c-4.3-6.5 5.2-9 5.2-9q-2.7 3.1-1.5 5.7c1.2 2.2 4.8 2.5 4.8 2.5s-4.9 4.4-8.6.8" style="fill:url(#c)"/><radialGradient id="d" cx="113.3" cy="68.4" r="30.4" gradientTransform="rotate(-94.3 91.33 79.77)scale(1 .833)" gradientUnits="userSpaceOnUse"><stop offset=".7" style="stop-color:#6d4c41;stop-opacity:0"/><stop offset="1" style="stop-color:#6d4c41"/></radialGradient><path d="M89.9 47a26 26 0 0 1-4.4 25.6c-.6.6-3 3-3.6 5 0 0-9.5-13.4-12.4-21.2q-1-2.4-1.2-4.9 0-2.1.9-3.8A111 111 0 0 1 89.4 46z" style="fill:url(#d)"/><radialGradient id="e" cx="29.5" cy="70.8" r="30.4" gradientTransform="rotate(-85.7 92.37 1.31)scale(1 -.833)" gradientUnits="userSpaceOnUse"><stop offset=".7" style="stop-color:#6d4c41;stop-opacity:0"/><stop offset="1" style="stop-color:#6d4c41"/></radialGradient><path d="M4.7 47C.4 57.5 4.9 68 9 72.7c.5.6 3 3 3.5 5 0 0 9.6-13.4 12.4-21.2q1-2.4 1.2-4.9.1-2.1-.9-3.8c-.9-1.3-2-1-3.4-1-2.9 0-15.5-.7-16.5-.7z" style="fill:url(#e)"/><radialGradient id="f" cx="34.7" cy="44.4" r="23.4" gradientTransform="matrix(-1 0 0 .491 67.38 60.79)" gradientUnits="userSpaceOnUse"><stop offset=".7" style="stop-color:#6d4c41;stop-opacity:0"/><stop offset="1" style="stop-color:#6d4c41"/></radialGradient><path d="M47.3 96.2v-9.4l-28.6-2.3-2.6 3.2s6.2 8.5 22.2 8.5z" style="fill:url(#f)"/><radialGradient id="g" cx="9.3" cy="50.5" r="6.9" gradientTransform="rotate(205 4.8 56.2)scale(-1 .742)" gradientUnits="userSpaceOnUse"><stop offset=".7" style="stop-color:#6d4c41"/><stop offset="1" style="stop-color:#6d4c41;stop-opacity:0"/></radialGradient><path d="M16.2 83.6c4.3-6.5-5.2-9-5.2-9 1.6 2.1 2.4 4 1.4 5.7-1.2 2.2-4.8 2.5-4.8 2.5s4.9 4.4 8.6.8" style="fill:url(#g)"/><linearGradient id="h" x1="51.6" x2="51.6" y1="34.5" y2="2.8" gradientTransform="matrix(1 0 0 -1 0 130)" gradientUnits="userSpaceOnUse"><stop offset="0" style="stop-color:#f78c1f"/><stop offset=".5" style="stop-color:#f47f12"/><stop offset="1" style="stop-color:#ef6c00"/></linearGradient><path d="M47.3 96H47c-16.4 0-33.2 3-43 10v18h95v-3c0-16.7-26.2-25-51.8-25" style="fill:url(#h)"/><path d="M38 90v10c0 4.6 3.8 8.2 9.1 8.2s9.1-3.6 9.1-8.1V90zm36.6-39.6H19.9c-5.9 0-10.7 5.2-10.7 11.4S14 73.3 20 73.3h54.7c5.9 0 10.7-5.2 10.7-11.5s-4.8-11.4-10.7-11.4" style="fill:#99674f"/><path d="M47.3 11c-17.4 0-33.6 18.7-33.6 45.5 0 26.6 16.6 39.8 33.6 39.8S80.8 83 80.8 56.5C80.8 29.7 64.7 11 47.3 11" style="fill:#ba8d68"/><path d="M55.7 76.1a26 26 0 0 1-16.8 0c-1.9-1-3.7.6-3 2.3s6.5 5.4 11.4 5.4 10.5-3.8 11.3-5.4c.7-1.7-1.1-3.4-3-2.3" style="fill:#5d4037"/><path d="M51.1 68h-7.7q-1 .5-.7 1.7c.3.7 1.7 2.7 4.6 2.7s4.2-2 4.5-2.7q.4-1.2-.7-1.6" style="fill:#99674f"/><ellipse cx="30.8" cy="58.8" rx="4.9" ry="5.1" style="fill:#49362e"/><ellipse cx="63.7" cy="58.8" rx="4.9" ry="5.1" style="fill:#49362e"/><path d="M38.2 49.8c-.9-1.2-3-3-7.2-3s-6.3 1.8-7.2 3q-.5 1 0 1.6t1.9.4c.8-.3 2.5-1.2 5.3-1.2s4.5.9 5.4 1.2q1.3.3 1.9-.4.4-.6 0-1.6m32.4 0c-.9-1.2-3-3-7.2-3s-6.3 1.8-7.2 3q-.5 1 0 1.6t1.8.4c1.3-.2 2.6-1.2 5.4-1.2s4.5.9 5.3 1.2q1.5.3 2-.4t0-1.6" style="fill:#613e31"/><path d="M87.3 25.6c-2.4-3.7-7.9-8.7-12.8-9-.8-4.7-5.8-8.7-10.7-10.3a31 31 0 0 0-26.5 3c-1 .6-7.2 4-11.5 1.5-2.7-1.5-2.7-5.7-2.7-5.7s-8.5 3.3-5.6 12.3a10 10 0 0 0-8.8 5.5 14 14 0 0 0-.8 11 11 11 0 0 0-3.6 12.5C6 51 12.5 53 12.5 53c-.4 8 1 13 1.8 15q.5.5.8 0c1-4 4.3-17.9 4-20.3 0 0 11.3-2.2 22.2-10.2a32 32 0 0 1 7-4C62 28 64.9 37.2 64.9 37.2s9.4-1.8 12.3 11.3c1 4.9 1.8 12.7 2.4 18.2 0 .4.5.5.7.1 1-2.2 2.8-6.5 3.3-10.9.2-1.5 4.3-3.6 6.1-10.3 2.4-8.9-.5-17.4-2.3-20" style="fill:#543930"/><radialGradient id="i" cx="65" cy="84.6" r="35.6" gradientTransform="rotate(72 -7.9 -9.48)scale(1 -.742)" gradientUnits="userSpaceOnUse"><stop offset=".7" style="stop-color:#6d4c41;stop-opacity:0"/><stop offset="1" style="stop-color:#6d4c41"/></radialGradient><path d="M83.5 56c.1-1.6 4.3-3.7 6.1-10.3l.5-2.2c1.5-8-1.1-15.5-2.8-18a22 22 0 0 0-11.7-8.8h-1.1s.3 2-.6 3.8a5 5 0 0 1-3.4 2.7c12 12 11.1 22 13 32.7" style="fill:url(#i)"/><radialGradient id="j" cx="30.2" cy="124.7" r="9.3" gradientTransform="rotate(28.2 -273.2 -70.9)scale(1 -1.186)" gradientUnits="userSpaceOnUse"><stop offset=".6" style="stop-color:#6d4c41"/><stop offset="1" style="stop-color:#6d4c41;stop-opacity:0"/></radialGradient><path d="m40.2 7.8-2.9 1.5c-1 .6-7.2 4-11.5 1.5C23 9.3 23 5.3 23 5.1c-1.2 1.6-5 12.8 6 13.6 4.6.3 7.5-3.8 9.3-7.3z" style="fill:url(#j)"/><radialGradient id="k" cx="169.3" cy="48.1" r="28.7" gradientTransform="matrix(-.938 -.394 -.218 .528 220.72 62.97)" gradientUnits="userSpaceOnUse"><stop offset=".7" style="stop-color:#6d4c41;stop-opacity:0"/><stop offset="1" style="stop-color:#6d4c41"/></radialGradient><path d="M62.4 5.9c7.3 2 10.9 5.7 12 10.7.4 1.4.9 15-25.1-.4-9.7-5.8-7-9.4-6-9.8A31 31 0 0 1 62.5 6" style="fill:url(#k)"/><radialGradient id="l" cx="26.8" cy="116.7" r="8.6" gradientTransform="matrix(1 0 0 -1.223 0 155.87)" gradientUnits="userSpaceOnUse"><stop offset=".7" style="stop-color:#6d4c41;stop-opacity:0"/><stop offset="1" style="stop-color:#6d4c41"/></radialGradient><path d="M23 5.1c-.9.4-8.2 3.8-5.5 12.3l7.8 1.3C18.4 11.6 23.1 5 23.1 5" style="fill:url(#l)"/><radialGradient id="m" cx="27.8" cy="99.9" r="16.1" gradientTransform="rotate(15 245.64 262.97)scale(-1 .936)" gradientUnits="userSpaceOnUse"><stop offset=".7" style="stop-color:#6d4c41;stop-opacity:0"/><stop offset="1" style="stop-color:#6d4c41"/></radialGradient><path d="m22.3 18.2-4.8-.8-1.2.1A10 10 0 0 0 8.7 23a14 14 0 0 0-1.3 9.4c.1.7.5 1.5.5 1.5s2.3-2.2 8-2.4z" style="fill:url(#m)"/><radialGradient id="n" cx="21.7" cy="85.8" r="16.9" gradientTransform="rotate(187.8 -2.56 80.7)scale(-1 1.405)" gradientUnits="userSpaceOnUse"><stop offset=".6" style="stop-color:#6d4c41;stop-opacity:0"/><stop offset="1" style="stop-color:#6d4c41"/></radialGradient><path d="M7.6 34a11 11 0 0 0-3.2 12.6C6.2 51 12.5 53 12.5 53s1.3.4 2 .4l1.4-21.9c-3 0-6 1-7.8 2.2z" style="fill:url(#n)"/><path d="m98.4 73-7-39 6-5 7 11.9-1.5 23.7c-.2 3.6-.7 6.9-1.4 7.7s-3.1.8-3.1.8" style="fill:#82aec0"/><circle cx="98.5" cy="41.3" r="2" style="fill:#b9e4ea"/><path d="M80.2 19.6c0 4.8 2.9 8.9 6.8 10 .7.2 2.5 1 3.7 3.2l.4 1q.2.3.5.1l6-4.4q.3 0 .2-.3c-.3-.8-1.4-3.2-.8-4.3.3-.8 1.3-3 1.3-5.3 0-5.8-4-10.4-9-10.4s-9.1 4.6-9.1 10.4m3.6 0c0-3.5 2.4-6.3 5.5-6.3 3 0 5.4 2.8 5.4 6.2s-2.4 6.3-5.4 6.3-5.5-2.8-5.5-6.2" style="fill:#de3e31"/></svg>