<svg xml:space="preserve" width="16" height="16" viewBox="0 0 128 128"><path d="M99 20c-5.5-1.8-18.5-3.7-35-3.7S35.6 18.1 29.3 20c-4 1.2-5 3.6-4.6 6.7a221 221 0 0 0 4.6 38.5c0 14.7-2.5 29.2-2.5 29.2s15 6 37.4 6.3c22.3-.3 36-5.4 36-5.4s-2.5-14.5-2.6-29.2c0-14.8 5.4-36 5.4-36l.5-3.1c.4-3-.6-5.7-4.5-7m20 57.6c-4-2.5-15.7 4.5-22 5-8.9.7-60.4 2.2-69-.1-2.6-.7-13.6-7.9-19-5C4.6 80 2.2 88.7 6.4 95.9c5.7 9.6 20 19.9 57.5 19.9s51.8-10.3 57.5-20c4.3-7.1 1.8-15.7-2.4-18.1" style="fill:#424242"/><path d="M9 84.4c-1.3 1.7-.9 4-.2 5.7q1.1 3 3 5.4a53 53 0 0 0 5.3 4.7q-1-1.6-.6-3.5c.6-2.6 3.5-3.6 5.7-4.7 2.3-1.3 8.6-4 6-5.5-4.6-2.4-16-6.5-19.3-2m111.4-.1c-.4-6.4-27 4-27 4s-3-20.7 2-55.5c.3-1.3.7-4.1-4-3.4-6.3 1-14.3 1.3-20.3 1.6-4.5.3-5.8.7-6.5 6.3-.5 4-3.1 46.7-1.5 56.7.5 2.8 13.2 9 29 10.3 8.5.7 12 0 12 0 5.4-2.4 17-10 16.3-20" style="fill:#212121"/><path d="M119 77.6s3.4 7.7-1.8 15.6c-7.2 11.1-25.1 17.4-53.2 17.5-28 0-46-6.4-53.2-17.5-5.2-8-1.9-15.6-1.9-15.6C2.7 81 3 89.7 6.5 95.8c5.7 9.6 19.9 19.8 57.2 19.9h.6c37.3-.1 51.5-10.3 57.2-20 3.6-6 3.8-14.7-2.4-18.1" style="fill:#757575"/><path d="M98.4 77q.1-1-1-1.2S75.8 77.2 63 77.2s-33.6-1.5-33.6-1.5c-.8.2-.8.5-.9 1.2-.2 3.5-.8 8.7-1 10.7q0 .8.6 1.2a95 95 0 0 0 35 5.6 95 95 0 0 0 35-5.7q.7-.3.6-1z" style="fill:#bb303d"/><path d="m39 74.1 10.2.6c1.6 0 1.6-1 1.7-2.2.6-8.4 0-33.3-1-38.3-.6-3.2-2-3-3.5-3.1l-9.1-1c-1.4-.2-3.5-.2-2.9 3.8 2.2 14.9 3 23.5 3 38.2 0 .7-.3 1.9 1.6 2" style="fill:#757575"/><path d="M38 91.8q4.8 1.2 11.6 2c.8 0 1.6-.6 1.5-1.4l.1-14.2q0-1.2-1.1-1.4l-11.7-.5q-1.2 0-1.2 1.2l-.2 13q0 1 1 1.3" style="fill:#ed6c66"/><ellipse cx="63.4" cy="23.3" rx="36.2" ry="4.8" style="fill:#757575"/></svg>