<svg xml:space="preserve" width="16" height="16" viewBox="0 0 128 128"><path d="m83.1 44.2.5-22.6q0-1.3 1.2-1.7 2-1 8-.8 4.3.4 5.7 1.2 1 .5 1 1.8l-.6 22.6z" style="fill:#356477"/><path d="M98.5 20.3q-1.4-.7-5.7-1.2c-4-.3-6.6.3-8 .8q-1 .4-1.2 1.7l-.1 5.9.3-.2c1.5-.4 4.4-1 8.7-.7q4.8.4 6.3 1.2.3 0 .5.4l.2-6.1q0-1.3-1-1.8" style="fill:#f44336"/><path d="m51.5 38.5.7-26.5q0-1.2 1.3-1.7c1.6-.4 4.6-1 9.2-.7q5 .4 6.7 1.2 1 .4 1.1 1.6L70 39z" style="fill:#356477"/><path d="M69.4 10.8q-1.6-.8-6.7-1.2c-4.6-.3-7.6.3-9.2.7q-1.2.4-1.4 1.7l-.1 5.5.3-.1a35 35 0 0 1 10.2-.7q5.5.4 7.2 1.1l.7.4.1-5.8q0-1.1-1.1-1.7" style="fill:#f44336"/><path d="M86 26.8q2-.4 5.3-.3v-7.4q-3.4 0-5.3.4zm-31-9.9q2.1-.3 5.3-.3v-7q-3.3 0-5.3.4z" style="fill:#ff7555"/><path d="M54.3 73.6 54 82l-34.6-1.6.2-6.8s7.8-11.4 7.8-35L60 36.7s1.5 3.3.4 13.2c-2 16.7-6 23.7-6 23.7" style="fill:#eee"/><path d="m60 44.8-33 .8q0 2-.3 4l33-.6zM59.5 57l-34 .1-1 4h34.2zM55 69l-33-.1-2 4h32.7s1.8-2.6 2.3-4m-2.4 4.8 65.7 7.6 1.1-12.6-11.1-1.4 2-22.2L60 37c.4 24.6-5.7 33.9-7.4 36z" style="fill:#82aec0"/><path d="m109.7 51.8-49.8-7-.3 4.2 49.7 6.8zm-1.4 15.5.3-4-50-6.2-.9 4zM55 69l-2.5 4v.1l65.9 7.2.3-4z" style="fill:#365666"/><path d="m105.8 55.3.5-4-2-.3-.5 4-4.3-.6.5-4-2-.3-.4 4-4.3-.5.4-4.1-2-.3-.4 4.1-4.3-.6.5-4-2-.4-.5 4.2-4.3-.6.5-4.2-2-.3-.5 4.2-4.3-.6.5-4.1-2-.3-.5 4.2-4.3-.6.5-4.2-2-.3-.5 4.2-6.6-.9-.1 1.4-.1 1.6 49.7 6.7.3-3zm4.2-7.9-50.2-7.7v-3l50.6 7.6zm-5.2 19.5.4-4-2-.2-.4 4-4.3-.6.4-4-2-.2-.4 4-4.3-.6.5-4-2-.2-.5 4-4.3-.5.5-4-2-.3-.4 4-4.3-.5.4-4-2-.2-.4 4-4.3-.6.4-4-2-.2-.4 4-4.3-.6.4-4-2-.2-.4 4-7.4-.9L57 64l62.2 7.7.3-3zm9.2 12.9.5-4-2-.2-.4 4-4.7-.6.4-4-2-.1-.4 4-4.6-.6.4-4-2-.2-.4 4-4.6-.6.4-4-2-.2-.4 4-4.6-.5.4-4-2-.2-.4 4L81 76l.4-4-2-.2-.4 4-4.7-.6.5-4-2-.2-.5 4-4.6-.5.4-4-2-.2-.4 4-4.6-.6.4-4-2-.2-.4 4-6.6-.5-.6 9.8 65.7 6.7.8-9.2z" style="fill:#eee"/><path d="M6.2 79s-2.2-.1-2 2c0 0-2.5 16.5 4.4 28 6.7 10.9 15.8 15 20 15H109c5 0 10.2-3.8 12-9.4a180 180 0 0 0 3-25.2q-.1-1.3-1.4-1.5s-72.9-9-116.4-9" style="fill:#356477"/><path d="M123.5 96s-76-5.4-119.6-5v-5.6c43.8-.4 119 7.8 119.8 7.9z" style="fill:#f44336"/><path d="M19.4 78.3v.9c36.2 1 83.2 6.3 98.4 8.1l.2-2C107 84 79.3 81 51.2 79c-10.9-.8-31.8-.7-31.8-.7" style="fill:#82aec0"/></svg>