<svg xml:space="preserve" width="16" height="16" viewBox="0 0 128 128"><radialGradient id="a" cx="-240.8" cy="288.7" r="57" gradientTransform="rotate(-45 -366.06 -191.35)" gradientUnits="userSpaceOnUse"><stop offset=".5" style="stop-color:#fde030"/><stop offset=".9" style="stop-color:#f7c02b"/><stop offset="1" style="stop-color:#f4a223"/></radialGradient><path d="M103.1 102.4c-19.7 19.8-53.4 28.7-80.5 1.5S4.3 43.1 24 23.4A61 61 0 0 1 62.8 5c15.4-1 29.9 5 41.8 16.9s17.8 26.4 16.8 41.7c-.9 14-7.4 28-18.3 38.8" style="fill:url(#a)"/><path d="M74 5.5a57 57 0 0 1 27.1 15.7c12 12 17.8 26.4 16.8 41.7-.9 14.1-7.4 28-18.3 38.8a59 59 0 0 1-50.3 17.9 58 58 0 0 0 53.8-17.2 61 61 0 0 0 18.3-38.8 53 53 0 0 0-16.8-41.7A56 56 0 0 0 74 5.5" style="fill:#eb8f00"/><path d="M96.7 39.6c-2.8-.8-5.7.5-6.9 3.2q-7.7 14.1-19.2 25.4a111 111 0 0 1-25.4 19.2 6 6 0 0 0-3.3 7c.9 2.7 3.6 4 6.2 5 14.5 5.4 30.5 1.4 42.8-10.8v-.1c12.3-12.3 16.3-28.3 10.9-42.8-1-2.6-2.3-5.3-5-6.1m-6.8 48v.1zm0 0" style="fill:#422b0d"/><path d="M98 74.5a35 35 0 0 0 1.4-28Q98 42.6 96 42c-1.6-.4-3.3.4-4 2a114 114 0 0 1-19.5 26l-.2.2a114 114 0 0 1-27.1 20.3 3 3 0 0 0-.9 3.1q.5 2 4.7 3.5c9 3.3 18.8 2.8 27.4-1.3a24 24 0 0 1 21.5-21.3" style="fill:none"/><path d="M99.4 74.4h-1.5c-5.4.4-10.5 2.8-14.3 6.7a24 24 0 0 0-7.4 16.1l.2 1.3a47 47 0 0 0 24.2-23.9z" style="fill:#ed7770"/><path d="M89.8 42.8q-7.7 14.1-19.2 25.4a111 111 0 0 1-25.4 19.2 6 6 0 0 0-3.3 7l.6 1q.6 0 1.2-.4a84 84 0 0 0 33.7-21 85 85 0 0 0 21-33.5q-.7-.6-1.7-1c-2.8-.7-5.7.6-6.9 3.3" style="fill:#fff"/><path d="M71.4 69.7A106 106 0 0 0 89 46.4l.8-1.3.7-1q.6-.9 1.7-1.3 2.4-.9 4.9 0c3.3 1.5 6 7 5.7 6l-.6-2.4c-.8-2-1.6-4.2-3.7-6A7.6 7.6 0 0 0 87.8 42l-1 1.5-.7 1.3q-1.4 2.7-3 5.2-5.7 9.6-13.5 17.8l-.1.2a99 99 0 0 1-22.7 16.3l-1.3.7-1.6 1q-1.6 1.2-2.4 3c-1 2.5-.7 5.4 1 7.6 2.7 3.5 8.8 4 8.9 4 1 .4-5.1-2.2-6.7-5.5a7 7 0 0 1 0-4.7q.4-1.1 1.3-1.8l1-.7 1.4-.8q2.6-1.5 5.2-3.3c6.8-4.6 12-8 17.6-13.9" style="fill:#eb8f00"/><radialGradient id="b" cx="-641.6" cy="-742.5" r="31.6" gradientTransform="matrix(-.13 -.99 -1.53 .21 -1141.95 -448.74)" gradientUnits="userSpaceOnUse"><stop offset=".5" style="stop-color:#29b6f6"/><stop offset="1" style="stop-color:#1e88e5"/></radialGradient><path d="M115.1 31.3c1.2 7.7-5.8 15-12.2 15.8-4.4.6-9.4-.5-17-2.3l-3.4-.9A126 126 0 0 1 69 39.4a2 2 0 0 1-1.2-2.2q.3-.6.8-1a58 58 0 0 1 11.3-9 42 42 0 0 1 18.8-7.8c6.2-1 15.1 3.6 16.4 12" style="fill:url(#b)"/><path d="M105.5 24.2c3 1.4 3 5.4-1.5 6-2.8.4-17.5 1.8-15.8-1 2.8-4.4 13.2-7 17.3-5" style="fill:#81d4fa"/><path d="m72.7 31.1-9.3 8.3 3.4-13.2.1-.4a4.2 4.2 0 0 0-5-4.8 6 6 0 0 0-4.5 5.3L55 51.1q-.2 1 .7 1.3.5 0 1-.3l20.6-13 .5-.3c2.5-2 3-5.6 1-7.7-1.5-1.7-4.1-1.5-6.1 0" style="fill:#422b0d"/><radialGradient id="c" cx="-764.2" cy="-690.3" r="30.3" gradientTransform="matrix(-1 .08 -.13 -1.53 -814.51 -921.26)" gradientUnits="userSpaceOnUse"><stop offset=".5" style="stop-color:#29b6f6"/><stop offset="1" style="stop-color:#1e88e5"/></radialGradient><path d="M25.9 104c-.4-4.3-.4-8.2 3.5-19.3a56 56 0 0 1 6.9-13.2q1.3-.6 2.2.6 4 5.6 7 11.6l1.6 3.1a46 46 0 0 1 5.6 15.5c.5 6.1-4.8 14.2-12.2 14.7-8 .4-14.2-7-14.6-13" style="fill:url(#c)"/><path d="M33 92.2c2.2-2.2 3.9 11.8 4.1 14.6.4 4.2-3.4 5-5.2 2.6-2.7-3.4-2.5-13.7 1.1-17.2" style="fill:#81d4fa"/><path d="m30.2 78.8 6.6-10.5-12.4 5.5-.4.2a4.2 4.2 0 0 1-5.5-4.2 6 6 0 0 1 4.5-5.2L47 58a1 1 0 0 1 1.3.4q.3.5 0 1L38.8 82l-.2.4c-1.5 2.8-5 4-7.5 2.4-1.8-1.3-2.1-3.9-1-6.1" style="fill:#422b0d"/></svg>