<svg xml:space="preserve" width="16" height="16" viewBox="0 0 128 128"><path d="M124 71.9V56q0-.8-1-1.1l-18-1.8q-.7-.1-1-.8-1.2-4.5-3.4-8.4-.4-.7 0-1.3l11.4-14q.5-.7-.1-1.5l-11.1-11q-.7-.7-1.6-.2l-14 11.3q-.5.4-1.2.1a42 42 0 0 0-8.4-3.5q-.7-.1-.8-1L73 5q-.1-.9-1.2-1H56.1q-.8.1-1.1 1l-1.9 18q-.1.7-.8 1-4.5 1.3-8.4 3.4-.7.3-1.3 0L28.6 16q-.7-.5-1.5.1l-11 11.1q-.7.7-.2 1.6l11.3 13.9q.5.6.1 1.3a42 42 0 0 0-3.4 8.4q-.3.6-1 .8L5 55q-.9.2-1 1.1v15.7q.1 1 1 1.2l18 1.9q.7.1 1 .8 1.3 4.5 3.4 8.4.3.7 0 1.3L16 99.4q-.5.7.1 1.5l11.1 11q.7.7 1.6.1l13.9-11.2q.6-.5 1.3-.1 3.9 2.2 8.4 3.4.6.3.8 1L55 123q.2 1 1.2 1h15.6q1 0 1.2-1l1.9-17.9q.1-.7.8-1 4.5-1.2 8.4-3.4.7-.4 1.3 0l14 11.4q.7.5 1.5-.1l11-11.1q.7-.7.1-1.6l-11.2-13.9q-.5-.7-.1-1.3 2.2-3.9 3.4-8.4.3-.6 1-.8L123 73q.9-.1 1-1.2m-60 3.4a11.3 11.3 0 1 1 0-22.6 11.3 11.3 0 0 1 0 22.6" style="fill:#82aec0"/><path d="M80.6 49.5a22 22 0 0 1-28.5 33q-.5 0-.3.5A22.4 22.4 0 1 0 81 49q-.7 0-.4.5" style="fill:#2f7889"/><path d="M43.9 65.3c-.7-13.1 7.8-22.8 20-22.8.6 0 1.7 0 2.5 1q1.5 1.8 0 3.7-1.5 1.2-2.6 1C51.5 49.8 48.7 57.6 48 65c0 .3 0 2.3-1.7 2.5-2.2.3-2.4-1.9-2.4-2.2" style="fill:#b9e4ea"/><path d="M25.2 65.9c0-22 16-40.2 38.2-41 .7-.1 2.4 0 3.5 1 1 .8 1.4 2.4.8 3.7-1 2.1-2.8 2.1-3.3 2.1A35 35 0 0 0 30 66.5v.3c-.8 2-3.6 2-4.5.1q-.3-.5-.3-1" style="fill:#94d1e0"/></svg>