<svg xml:space="preserve" width="16" height="16" viewBox="0 0 128 128"><path d="M65.1 17.6C47.5 17 30.4 23 30.3 31.9c0 5.2 1.4 18.6 3.6 48.7s2.3 33.6 3.5 35 10 8.7 25.8 8.7 25.9-6.4 26.9-8c.5-.8 1.8-17.9 3.5-37l4-45.1c.2-3.5-3.4-15.8-32.5-16.7" style="fill:#a6cfd6"/><path d="M41.4 45.3c-.1.6 1.2 24.2 2.3 28 2 6.9 9.3 7.3 10.2 4 1-3-.3-29.2-.3-29.2s-3.7-.3-6.5-.8c-3.1-.7-5.7-2-5.7-2" style="fill:#dcedf6"/><path d="M33.7 32.6c-.2 8.8 20 12.3 30.2 12.2 13.6 0 29.5-4.3 29.8-11.7s-14.2-12-30.3-12c-13.8 0-29.4 4-29.7 11.5" style="fill:#6ca4ae"/><path d="M84.9 13.1c-.6.6-9.7 30.8-9.7 30.8l4-.8q3.8-1 3.7-1.1c0-.1 7.2-22.2 7.7-23 .4-1 21.6-7.7 22.3-8q1.2-.3 1.4-.8c.1-.4-2.3-6.7-3-6.7A235 235 0 0 0 84.8 13" style="fill:#dc0d27"/><path d="M110.6 7.8c1 2.7 2.8 3 3.5 2.8.5-.2 1.3-1.9 0-4.5q-1.7-3-3-2.6c-.7.1-1.4 2-.5 4.3M92 18.3l-.6-.3-4-5.7a1 1 0 0 1 .1-1q.6-.3 1 .2l4 5.7a.7.7 0 0 1-.6 1.1m-1.6 1.1q-.3 0-.5-.2l-5.3-5a1 1 0 0 1 0-1q.5-.6 1 0l5.3 5a.7.7 0 0 1-.5 1.2m-.9 1.8H89l-5.6-3.5a.7.7 0 0 1 .7-1.2l5.6 3.4a.7.7 0 0 1-.4 1.3" style="fill:#8a1f0f"/></svg>