<svg xml:space="preserve" width="16" height="16" viewBox="0 0 128 128"><path d="M70.4 64.5 64.1 62l-6.9 4.5s1.8 1.6 1.8 3.8-1.3 17.4 0 27.5a40 40 0 0 0 6.8 18.7c2.6 3.5 8 7.2 9.4 7.2 1.6 0 5.2-2.9 6.4-7s-7.2-2.7-7.2-2.7-6.4-3.5-8-15.5c-1.3-9.2-.8-19.6-.7-23.5.1-5.8 4.5-10.5 4.5-10.5M29 34.6s1.3-4.1-5.7-3.2c-3 .4-11.4 2.8-12.5 12.5-1 8 3.6 12 3.5 14-.2 2.7-8.5 6.6-7.7 17.7.9 10.5 11 14.3 15.8 12.6 9-3 6.5-53.6 6.5-53.6m25.9-8.3s-9-12.6-6-16.6c2.6-3.4 6.3-6 12.9-5.8 9 .4 12.2 8.4 14 8.6 1 .2 6.7-4.8 15-2.9s9.6 9.2 10 11.1-45.9 5.6-45.9 5.6m45.7 32.3s13.3-12.9 16.3-10.3a15 15 0 0 1 4.6 12c-.8 8.7-5.5 10-5.4 11s3.3 1.9 3.2 10.2c-.1 7.2-7 15.4-16.6 16.1s-4.9-34.4-2.1-39" style="fill:#65a21b"/><path d="M60.1 57.5c2-1.7-1-3.3-4-7.2A48 48 0 0 1 44.7 23c0-6 2-10.6 4.2-13.4 2-2.7 5.8-2.7 8.3-2.5C69 8.2 71.5 21.2 74 21.7c2 .4 9-9 20.1-7.3 7.5 1.2 9.9 12.6 4 21.1a69 69 0 0 1-22.3 19c-3.8 2-4.6 2.9-4 4.5.8 1.7 3.3-.1 5.5-1.8 8.7-6.5 18.6-12.7 26-13s11.9 2.2 13.5 4.1c1.7 2 2.4 9 0 13.6-2.3 4.6-8.3 7.8-8.4 9-.2 1 5.7 5.9 4.7 14.8-.7 5.8-3.8 9.5-5.8 11-2.1 1.3-11 2.4-17.3-1a59 59 0 0 1-17.9-18.6c-3.3-5.5-5.7-11.1-9-11.3-4.8-.3-10.5 10-23.3 17-9.5 5.4-17.6 7.2-21.8 5.5s-6.3-9.6-6-14.7c.9-11 11.3-12.6 11.3-14.7s-6.7-6.2-6.1-15.8c.5-8 4.3-11 5.7-11.5s10.1-1 16.4 3.6 10.8 12.7 13.6 16c2.7 3.1 5.1 8 7.2 6.3" style="fill:#8bc02b"/><path d="M59.4 38.1s-2.5-2.2-4.7-.4c-1.9 1.5-.9 5 .7 7 1.5 2 3.4 3.7 5.4 2.8s1.1-4.7 1.1-4.7 1.5 1.7 3.8 1.6c3.3 0 4.6-2.7 4.6-2.7s0 2 2.2 3.4 4.7.3 4.7.3-1 2 .2 3q2 1.6 4.8-2.1c2-2.5 3-5 1-6.3-2-1.4-4.7.3-4.7.3s1.6-5.4-1.6-6.7c-2.4-1-4 1.3-4 1.3s-.8-3.1-3.7-3.1-4 2.8-4 2.8-2.2-2-4.1-.8-1.7 4.3-1.7 4.3m21 24c.4 2.1 2.3 2.1 2.3 2.1s-1.4.2-1.7 1.6.3 2 .3 2-2.4-.6-3.5 1.3c-.8 1.4 0 2.8 0 2.8s-1.5-.3-2.6 1.4c-1 1.7.9 5.5 3.4 7.4 3 2.3 6.7 4.2 8.2 1.5 1.4-2.6-1.1-5.3-1.1-5.3s2.9 1 4-1.2c1-1.7 0-3.2 0-3.2s1 0 1.4-1.5c.7-2.8-2.5-3.6-2.5-3.6s5.5.4 5.7-4.5c.1-4.2-5-3.8-5-3.8s1.5-2.4 0-3.7c-3.6-2.9-9.5 4-9 6.7m-29.6-6.2c.7-1.5 0-3.5-3-5.8-3.4-2.5-5.3-2.4-6.3-1.4s-.3 2.5-.3 2.5-2.2.3-2.3 2.1 1.5 2.5 1.5 2.5-2.5.5-2.5 3 1.8 3 1.8 3-3.7 1.6-2.5 4.2c1.2 2.7 6.9 2.2 6.9 2.2S37.6 73 40.3 76s13.1-3.5 10.9-7.6c-1.3-2.4-3.7-1.6-3.7-1.6s1.5-1.5 1.4-3.3c0-1.8-2.7-3-2.7-3s1.3-.6 1.3-1.6c.1-1-.8-2-.8-2s3.2.6 4-1" style="fill:#bbd046"/></svg>