<svg xmlns:xlink="http://www.w3.org/1999/xlink" xml:space="preserve" width="16" height="16" viewBox="0 0 128 128"><path d="M99 80c-1.3-2.3.3-4.6 3-7.4a26 26 0 0 0 6.2-20.1q-.9-4.9-4.1-8.6l-5.7-6.3s-14.6 7-34.3 7S32 33.2 31.4 33.3c0 0-21.2 19.9-5.3 39.4 2.5 3 4.3 5.1 3 7.4-1.1 2.2-4.7 2.5-4.7 2.5s.8 2.3 2.8 3.5c1.8 1.1 4.1 1.4 5.7 1.4 0 0 6.1 8.6 22.2 8.6h18c16 0 22.1-8.5 22.1-8.5 1.6 0 3.9-.3 5.7-1.5 2-1.2 2.9-3.5 2.9-3.5s-3.6-.3-4.8-2.5" style="fill:#543930"/><radialGradient id="a" cx="99.6" cy="45.7" r="23.4" gradientTransform="matrix(1 0 0 .491 -20.94 59.89)" gradientUnits="userSpaceOnUse"><stop offset=".7" style="stop-color:#6d4c41;stop-opacity:0"/><stop offset="1" style="stop-color:#6d4c41"/></radialGradient><path d="M64 96v-9.5l28.6-2.2 2.6 3.2S89.1 96 73 96z" style="fill:url(#a)"/><radialGradient id="b" cx="76.5" cy="49.2" r="6.9" gradientTransform="rotate(155 84.4 60.45)scale(1 .742)" gradientUnits="userSpaceOnUse"><stop offset=".7" style="stop-color:#6d4c41"/><stop offset="1" style="stop-color:#6d4c41;stop-opacity:0"/></radialGradient><path d="M95.2 83.3c-4.3-6.5 5.2-8.9 5.2-8.9q-2.7 3-1.5 5.6c1.2 2.2 4.8 2.6 4.8 2.6s-4.9 4.3-8.5.7" style="fill:url(#b)"/><radialGradient id="c" cx="97.2" cy="55.3" r="40.6" gradientTransform="rotate(-94.3 101.44 66.85)scale(1 .833)" gradientUnits="userSpaceOnUse"><stop offset=".7" style="stop-color:#6d4c41;stop-opacity:0"/><stop offset="1" style="stop-color:#6d4c41"/></radialGradient><path d="M103 42.8c4 4.4 6.1 8.1 5.1 16.4a24 24 0 0 1-5.8 13.1c-.6.6-3 3-3.6 5 0 0-9.6-13.4-12.4-21.2q-1-2.4-1.2-4.9 0-2 .9-3.8c.9-1.3 10.2-12.3 10.2-12.3z" style="fill:url(#c)"/><radialGradient id="d" cx="53.4" cy="62.9" r="43.1" gradientTransform="rotate(-85.7 116.77 6.3)scale(1 -.833)" gradientUnits="userSpaceOnUse"><stop offset=".7" style="stop-color:#6d4c41;stop-opacity:0"/><stop offset="1" style="stop-color:#6d4c41"/></radialGradient><path d="M31.8 33.4c-17.2 16.6-12 32.3-5.2 39.7.5.7 2.7 3.2 3.2 5.1 0 0 9.6-13.3 12.4-21.1q1-2.4 1.2-4.9.1-2.1-.9-3.8c-.9-1.3-1.9-1-3.4-1-2.9 0-7.3-14-7.3-14" style="fill:url(#d)"/><radialGradient id="e" cx="49.5" cy="45.7" r="23.4" gradientTransform="matrix(-1 0 0 .491 98.99 59.89)" gradientUnits="userSpaceOnUse"><stop offset=".7" style="stop-color:#6d4c41;stop-opacity:0"/><stop offset="1" style="stop-color:#6d4c41"/></radialGradient><path d="M64 96v-9.5l-28.5-2.2-2.6 3.2S39.1 96 55.2 96z" style="fill:url(#e)"/><radialGradient id="f" cx="26.4" cy="49.2" r="6.9" gradientTransform="rotate(205 4.71 51.78)scale(-1 .742)" gradientUnits="userSpaceOnUse"><stop offset=".7" style="stop-color:#6d4c41"/><stop offset="1" style="stop-color:#6d4c41;stop-opacity:0"/></radialGradient><path d="M33 83.3c4.3-6.5-5.2-8.9-5.2-8.9 1.6 2 2.4 3.9 1.4 5.6-1.2 2.2-4.8 2.6-4.8 2.6s4.9 4.3 8.6.7" style="fill:url(#f)"/><path d="M91.4 50.6H36.7C30.8 50.6 26 55.7 26 62s4.8 11.4 10.7 11.4h54.7c5.9 0 10.7-5.1 10.7-11.4s-4.8-11.4-10.7-11.4m-17.8 61.7V89.5H54.4v22.8z" style="fill:#e59600"/><radialGradient id="g" cx="64.6" cy="121.2" r="52.5" gradientTransform="matrix(1 0 0 .548 0 57.65)" gradientUnits="userSpaceOnUse"><stop offset=".8" style="stop-color:#212121"/><stop offset="1" style="stop-color:#616161"/></radialGradient><path d="M116.5 124v-3.2c0-9.3-8.4-15.3-15.7-18.4a74 74 0 0 0-24-5.8s-3 19.5-12.6 19.4c-8.4-.1-12-19.4-12-19.4-20.5 2-40.7 9.4-40.7 24.2v3.2z" style="fill:url(#g)"/><path d="m72 124 3.3-18H52.7l3.8 18z" style="fill:#e0e0e0"/><path d="M66.9 113.5h-5.7l-1.8-7.5h9.2zM68 124l-1.2-10.5h-5.6L60 124z" style="fill:#212121"/><path d="m64 106-8.7 7.2-1.6 1.3-3.5-17.8 1.5-.1 2.5-.3s1.8 3 3.7 5.5c3.1 4.1 6 4.2 6 4.2m13.9-9.2-3.5 17.7L64 106s3 0 6.1-4.2l3.7-5.5 2.5.3z" style="fill:#fafafa"/><path d="m55.2 113.2-3.6-16.6-1.5.1-8 1.2-3.2 6.6 7.2 4.3-4.8 6.2 9.3 9h7zm17.6 0 3.6-16.6 1.5.1c3.3.3 8 1 8 1l3.2 6.8-7.2 4.3 4.8 6.2-9.3 9h-7z" style="fill:#424242"/><path d="M64 11.2c-17.4 0-33.5 18.7-33.5 45.4S47 96.5 64 96.5s33.5-13.2 33.5-39.9S81.4 11.2 64 11.2" style="fill:#ffca28"/><path d="M54.9 50c-1-1.2-3.1-3-7.3-3s-6.3 1.8-7.2 3q-.5.9 0 1.5t1.9.4c1.5-.3 2.5-1.1 5.3-1.1s4.5.8 5.4 1.1q1.3.3 1.9-.4t0-1.5m32.8 0c-1-1.2-3-3-7.2-3s-6.3 1.8-7.2 3q-.7.9 0 1.5.5.7 1.8.4c1.3-.3 2.6-1.1 5.4-1.1s4.5.8 5.3 1.1q1.5.3 2-.4t0-1.5" style="fill:#6d4c41"/><ellipse cx="47.6" cy="59" rx="4.9" ry="5.1" style="fill:#404040"/><ellipse cx="80.5" cy="59" rx="4.9" ry="5.1" style="fill:#404040"/><path d="M99.2 20.2C98.2 16 31 8.7 34 17.2c-3 .2-7.2 20.6-7.2 20.6-1.6 14.2 4.4 28.3 4.4 28.3s4.8-17.5 4.4-20.2c0 0 7.9-1.5 16.8-6.2 6-3.3 10.1-7 17-8.5C79.5 29 81.8 36 81.8 36s9.6-1.7 12.5 10.7c1.2 5.1 2 13.6 2.6 18.8 0-.5 3.3-6 3.9-11.7.2-1.5 3.5-11.8-1.7-33.6" style="fill:#543930"/><radialGradient id="h" cx="63.4" cy="72.7" r="43.2" gradientTransform="matrix(1 0 0 -1 0 128)" gradientUnits="userSpaceOnUse"><stop offset=".7" style="stop-color:#6d4c41;stop-opacity:0"/><stop offset="1" style="stop-color:#6d4c41"/></radialGradient><path d="M99.2 20.2C98.2 16 31 8.7 34 17.2c-3 .2-7.2 20.6-7.2 20.6-1.6 14.2 4.4 28.3 4.4 28.3s4.8-17.5 4.4-20.2c0 0 7.9-1.5 16.8-6.2 6-3.3 10.1-7 17-8.5C79.5 29 81.8 36 81.8 36s9.6-1.7 12.5 10.7c1.2 5.1 2 13.6 2.6 18.8 0-.5 3.3-6 3.9-11.7.2-1.5 3.5-11.8-1.7-33.6" style="fill:url(#h)"/><path d="M72.5 76.3a26 26 0 0 1-16.8 0c-1.9-1-3.7.6-3 2.3S59.2 84 64.1 84s10.5-3.8 11.3-5.5c.8-1.6-1.1-3.3-3-2.2" style="fill:#795548"/><path d="M68 68.2h-7.8q-1 .5-.7 1.7a5 5 0 0 0 4.6 2.6 5 5 0 0 0 4.5-2.6q.4-1.1-.7-1.7" style="fill:#e59600"/><path d="M92.2 119.8H88q-.3 0-.1.3l.3.2q.5.3 1 .3h3.3q0-.4-.3-.8m-.2-.4-.6-1h-5.3q-.2.1 0 .2v.2q.8.6 1.7.6zm.7 1.7h-2.9v.2q2.6 1 2.7.8h.3zm9.3-1.3h-4.2l-.3.8h3.2l1.1-.3.3-.2q.2-.2 0-.3m1.8-1.4h-5.3l-.6 1h4.2a2 2 0 0 0 1.7-.8zm-3.7 2.7h-2.9l-.1 1h.3s1 0 2.7-.8zm-3.4-3.8-1 .3h-1.5q-.7 0-1-.3-.4-.1-.6.2l-.3.8v.5a5 5 0 0 1 1 2.8l.2.4 1.2.7h.5l1-.7q.3 0 .3-.4c0-1.3.8-2.4 1-2.8q.1-.1 0-.4l-.3-.9q-.1-.3-.5-.2" style="fill:#ffc107"/><linearGradient id="i" x1="64.1" x2="64.1" y1="103.5" y2="82.7" gradientTransform="matrix(1 0 0 -1 0 128)" gradientUnits="userSpaceOnUse"><stop offset="0" style="stop-color:#666"/><stop offset=".1" style="stop-color:#606060"/><stop offset=".5" style="stop-color:#3f3f3f"/><stop offset=".8" style="stop-color:#333"/></linearGradient><path d="M63.8 24.4c-33.3 0-38.6 11.3-38.6 11.3s10.3 10 38.6 10.1c28.3-.2 39.1-10.7 39.1-10.7S97 24.4 63.8 24.4" style="fill:url(#i)"/><path d="M20.4 34.7c1.7 6.1 3.3 8.7 3.3 8.7 1.7-2 12-11.4 40.2-11.4h.2c28.3 0 38 9.6 39.7 11.6 0 0 2-3 3.8-9.1C111.5 20.2 92 4 64 4 36.1 4 16.5 20.2 20.4 34.6" style="fill:#303030"/><defs><path id="j" d="M20.4 34.7c1.7 6.1 3.3 8.7 3.3 8.7 1.7-2 12-11.4 40.2-11.4h.2c28.3 0 38 9.4 39.7 11.4 0 0 2-2.7 3.8-9C111.5 20.3 92 4.2 64 4.2c-27.9 0-47.5 16.2-43.6 30.6"/></defs><clipPath id="k"><use xlink:href="#j" style="overflow:visible"/></clipPath><path d="M99.7 35.8a5 5 0 0 0-1.8-2.8 55 55 0 0 0-33.8-10.2A54 54 0 0 0 30 33q-1.3 1.1-1.6 2.8a4.6 4.6 0 0 0 5.6 5.4c6.8-1.6 17.8-3.7 30-3.7A133 133 0 0 1 94 41c3.2.8 6.2-2 5.6-5.3" style="clip-path:url(#k);fill:#212121"/><path d="M57.3 20.5H47.2q-.6.2-.2.8l.7.4q1.2.9 2.7.9H58zm-.5-1-1.4-2.3H42.8q-.5.1-.2.5l.4.4q1.6 1.4 3.8 1.4zm1.6 4.1h-6.8q-.4.1-.1.4c4.1 2 6.4 2 6.4 2h.8q0-1.3-.3-2.4m22.4-3H71l-.3-.1-.8 2h7.7q1.6 0 2.7-.8l.7-.5q.4-.4-.2-.6m4.4-3.4H72.6q-.7.8-1.4 2.3h10q2.2 0 3.8-1.4l.4-.4q.2-.4-.2-.5m-8.8 6.4h-6.8q-.3 1-.3 2.3h.8s2.3.2 6.4-1.9q.2-.2 0-.4m-8.2-9.1q-1.2.6-2.5.7a12 12 0 0 1-6-.7 1 1 0 0 0-1.3.5l-.8 2q-.3.8 0 1.1a13 13 0 0 1 2.5 6.8q0 .6.5.8l2.7 1.6q.5.4 1.2 0 1.5-1.1 2.6-1.6.5-.2.6-.8a13 13 0 0 1 2.5-6.8q.3-.4 0-.9l-.8-2.2a1 1 0 0 0-1.2-.5" style="fill:#ffc107"/><radialGradient id="l" cx="64.3" cy="91.1" r="52" gradientTransform="matrix(1 0 0 -.665 0 97.52)" gradientUnits="userSpaceOnUse"><stop offset=".6" style="stop-color:#212121;stop-opacity:0"/><stop offset=".9" style="stop-color:#bfbebe"/></radialGradient><path d="M20.4 34.7c1.7 6.1 3.3 8.7 3.3 8.7 1.7-2 12-11.4 40.2-11.4h.2c28.3 0 38 9.6 39.7 11.6 0 0 2-3 3.8-9.1C111.6 20.2 92 4 64 4S16.4 20.3 20.3 34.7" style="opacity:.3;fill:url(#l)"/></svg>