<svg xml:space="preserve" width="16" height="16" viewBox="0 0 128 128"><linearGradient id="a" x1="55.5" x2="55.5" y1="90.8" y2="56.1" gradientTransform="matrix(1 0 0 -1 0 130)" gradientUnits="userSpaceOnUse"><stop offset="0" style="stop-color:#05080f"/><stop offset=".1" style="stop-color:#070a15"/><stop offset=".3" style="stop-color:#0b1026"/><stop offset=".4" style="stop-color:#131a42"/><stop offset=".6" style="stop-color:#1d286a"/><stop offset=".8" style="stop-color:#2b399b"/><stop offset="1" style="stop-color:#384acc"/></linearGradient><ellipse cx="55.5" cy="56.7" rx="49.9" ry="18.3" style="fill:url(#a)"/><linearGradient id="b" x1="55.3" x2="55.3" y1="34" y2="-7.8" gradientTransform="matrix(1 0 0 -1 0 130)" gradientUnits="userSpaceOnUse"><stop offset="0" style="stop-color:#384acc"/><stop offset=".2" style="stop-color:#3548bf"/><stop offset=".6" style="stop-color:#2f449d"/><stop offset="1" style="stop-color:#283f7a"/></linearGradient><path d="M104.6 124v-3c0-16.7-25-25-49.3-25S6 103.3 6 121v3z" style="fill:url(#b)"/><linearGradient id="c" x1="96.3" x2="120.7" y1="16.9" y2="16.9" gradientTransform="matrix(1 0 0 -1 0 130)" gradientUnits="userSpaceOnUse"><stop offset="0" style="stop-color:#384acc"/><stop offset=".2" style="stop-color:#3548bf"/><stop offset=".6" style="stop-color:#2f449d"/><stop offset="1" style="stop-color:#283f7a"/></linearGradient><path d="M112.3 102.3q-1-.3-1.6.5c-2 3.1-5.6 5.5-9.2 7.7l-4.8 3.2q-.7.7-.3 1.5l3.8 8.8h20.3c.5-5.2.7-17-8.2-21.7" style="fill:url(#c)"/><path d="m33.4 114.5.5 2.7 2.5 1.1-2.4 1.3-.3 2.7-2-1.9-2.6.6 1.2-2.5-1.4-2.3 2.7.4zm-16.3-4.9 2.2 2.2 3-.5-1.4 2.7 1.4 2.7-3-.5-2.2 2.2-.4-3-2.8-1.4 2.8-1.4zm62.2-2.4v3.3l3 1.8-3.2 1.2-.8 3.2-2.1-2.6-3.3.2 1.8-2.8-1.2-3 3.2.8z" style="fill:#f9f722"/><path d="M83.3 49.3H29.7c-5.8 0-10.5 5-10.5 11.2s4.7 11.2 10.5 11.2h53.6c5.8 0 10.5-5 10.5-11.2s-4.7-11.2-10.5-11.2" style="fill:#e59600"/><path d="M56 19.4c-17 0-32.8 9.3-32.8 35.6 0 26.1 16.3 39 32.9 39S89 81.1 89 55c0-26.3-15.8-35.6-33-35.6" style="fill:#ffca28"/><linearGradient id="d" x1="56.5" x2="56.5" y1="75" y2="-2.1" gradientTransform="matrix(1 0 0 -1 0 130)" gradientUnits="userSpaceOnUse"><stop offset=".5" style="stop-color:#f5f5f5"/><stop offset=".8" style="stop-color:#bdbdbd"/></linearGradient><path d="M29.2 32.9c-3.6 0-6.6 3-6.6 6.6 0 3 .1 7 .4 13.2.2 4.8-2 16.2-3.6 21.3a34 34 0 0 0 1.4 24.4c3.2 6.5 18.8 16.9 28 22 3.5 2 11.6 2 15.1 0 9-4.9 24.1-14.7 27.6-20.9a34 34 0 0 0 2.1-26c-1.7-5-3.7-16.1-3.5-20.8q.3-9.1.2-13.3c0-3.6-3-6.5-6.6-6.5zm54.5 23c0 12-3.5 18.2-11.5 18.2-8.4 0-9.8-2.4-16-2.4-6.3 0-7.8 2.4-15.9 2.4-7.3 0-11.1-8.5-11.1-18.5s-1-19.7 1.7-19.2c4.3.8 17.7 1.7 25.2 1.7 7.2 0 20.4-.9 24.8-1.6 3-.5 2.8 7.3 2.8 19.4" style="fill:url(#d)"/><radialGradient id="e" cx="56.5" cy="52.5" r="40.2" gradientTransform="matrix(1 0 0 -1.214 0 141.06)" gradientUnits="userSpaceOnUse"><stop offset=".7" style="stop-color:#fff;stop-opacity:0"/><stop offset="1" style="stop-color:#bdbdbd"/></radialGradient><path d="M93.6 73.6a88 88 0 0 1-3.5-21q.3-9 .2-13.3c0-3.5-3-6.4-6.6-6.4v23c0 12-3.5 18.2-11.5 18.2-8.4 0-9.8-2.4-16-2.4-6.3 0-7.8 2.4-15.9 2.4-7.3 0-11.1-8.5-11.1-18.5 0-7.1-.5-14 .1-17.2v-5.5h-.1c-3.6 0-6.6 3-6.6 6.6 0 3 .1 7 .4 13.2A85 85 0 0 1 19.4 74a34 34 0 0 0 1.4 24.4c3.2 6.5 18.8 16.9 28 22 3.4 2 11.6 2 15.1 0 9-4.9 24.1-14.7 27.6-20.9a34 34 0 0 0 2.1-26" style="fill:url(#e)"/><path d="M64.1 76.2a25 25 0 0 1-16.5 0c-1.8-1.1-3.6.5-2.8 2.2.7 1.6 6.3 5.3 11.1 5.3S66.3 80 67 78.4c.8-1.7-1-3.3-2.9-2.2" style="fill:#795548"/><path d="M79.8 50.4s-2.3-3.7-7.5-3.7-7.5 3.7-7.5 3.7q-.3.4-.3 1 .2 1.3 1.5 1.5l.7-.1c3.1-1.4 5.6-1.4 5.6-1.4s2.4 0 5.6 1.4l.6.1q1.5-.1 1.6-1.6zm-31.9 0s-2.3-3.7-7.5-3.7-7.5 3.7-7.5 3.7q-.3.4-.3 1 .1 1.3 1.6 1.5l.6-.1c3.2-1.4 5.6-1.4 5.6-1.4s2.4 0 5.6 1.4l.6.1q1.5-.1 1.6-1.6 0-.5-.3-1" style="fill:#fff"/><linearGradient id="f" x1="58.1" x2="57.7" y1="126" y2="107.5" gradientTransform="matrix(1 0 0 -1 0 130)" gradientUnits="userSpaceOnUse"><stop offset=".4" style="stop-color:#3649bf"/><stop offset="1" style="stop-color:#2c4585"/></linearGradient><path d="M74.2 17.5c.5-1 11.2 1.3 12.3-.5S81.9 7.4 69.3 5c-4.2-1-10-2-17 .3a40 40 0 0 0-27 32.8l64.2.2C87 29.8 73.6 18.5 74.2 17.5" style="fill:url(#f)"/><linearGradient id="g" x1="55.9" x2="55.9" y1="108.1" y2="71.3" gradientTransform="matrix(1 0 0 -1 0 130)" gradientUnits="userSpaceOnUse"><stop offset=".2" style="stop-color:#384acc"/><stop offset="1" style="stop-color:#1d3678"/></linearGradient><path d="M105.8 55c-6.7-28.5-46.5-40.4-73.1-28.5A50 50 0 0 0 9.9 45c-1.8 2.6-8.8 17 1.6 13 57.5-33.5 94.7 13 94.3-3" style="fill:url(#g)"/><path d="m59.7 68.4-.4-.1h-7.2q-1 .5-.7 1.7c.3 1.2 1.7 2.6 4.5 2.6s4.1-2 4.4-2.6q.4-1.2-.6-1.6" style="fill:#e59600"/><ellipse cx="39.7" cy="59.3" rx="4.8" ry="5" style="fill:#404040"/><ellipse cx="72.3" cy="59.3" rx="4.8" ry="5" style="fill:#404040"/><path d="m112.2 81.5-3 2.7 2.4 6h7.6l4.1-11.7-13.2-11.3-14.6 11.4 7.4 15.4-4.5 17.7c-.8 3-1.7 7.6-2.7 12.2h7.8l8.8-28.8-7.8-14.2 5.4-3.6 5.4 2.4-.1 2.4z" style="fill:#cf8900"/><linearGradient id="h" x1="89.2" x2="112.8" y1="27.9" y2="12.2" gradientTransform="matrix(1 0 0 -1 0 130)" gradientUnits="userSpaceOnUse"><stop offset=".5" style="stop-color:#ffca28"/><stop offset="1" style="stop-color:#ffb300"/></linearGradient><path d="M115.6 111.1q-.4-2.1-1.1-3.9a19 19 0 0 0-7-9.1 15 15 0 0 0-10-3.1q-3.2.5-4 2.5-.6 1.5 0 2.8c-1.2.4-2.7 1.1-3.1 2.5-.6 1.5-.1 2.8.5 3.7-1 .6-2.1 1.5-2.4 2.7-.5 1.6 1 3.4 2 4.3q-.9 1.1-1.2 2.2c-.7 3.3 3.6 5.2 6.3 5.8a1 1 0 0 0 1-.5l1-1.6a53 53 0 0 0 11.2 2.4 10 10 0 0 0 4.3-3.6l.5-.7a9 9 0 0 0 2-6.4" style="fill:url(#h)"/></svg>