<svg xml:space="preserve" width="16" height="16" viewBox="0 0 128 128"><path d="M77.8 12A27 27 0 0 1 116 50.1c-10.6 10.6-31.2 14-41.8 3.5s-7.1-31.2 3.5-41.8" style="fill:#9e9e9e"/><path d="M119.4 16A34.4 34.4 0 0 1 70 47q1.5 3.8 4.4 6.7c10.6 10.6 31.2 7.1 41.8-3.5a27 27 0 0 0 3.3-34.2" style="fill:#757575"/><path d="M84 67c2-1.9-1.7-8.6-8-15-6.4-6.3-13.1-10-15-8L4.6 106c-2 1.8.4 7.3 5.2 12.1s10.3 7.1 12.2 5.2z" style="fill:#616161"/><path d="m12.4 115.6 61.9-61.9 9 10.3-62.9 56.7c-4.8 0-8-5-8-5" style="fill:#424242"/><path d="M43.4 83.3c-2.7-2.8-2.3-4.8-1-6L53.8 66a3 3 0 0 1 4.5 0l2.7 3a3 3 0 0 1 0 4.5L49.3 84.6c-1.3 1.2-3.2 1.6-6-1.3"/><circle cx="56.9" cy="70.2" r="5.2" style="fill:#9e9e9e"/><path d="M111.5 52.8c1.2.7 1.4.8 2.7.4a10 10 0 0 0 3.4-3.3c.4-1 .1-1.2-.8-1.8-3.4-2-10-6.7-20-16.8a113 113 0 0 1-16.9-20c-.6-1-1-1-2.3-.2q-1.2.9-2.4 2.8c-.7 1.2-.7 1.4 0 2.6C78 20.6 83 27 92 36s15.3 14 19.5 16.8" style="fill:#94d1e0"/><path d="M93.6 59.6c-1.4-.9-8-6.3-13.9-12.2a104 104 0 0 1-11.3-13c-.5-1-2-1-2.6 0L62 41.3a5 5 0 0 0-.1 4.7c1.2 2.6 3.3 5.6 9 11.3s8.6 7.6 11.2 8.9q2.4 1.1 4.7-.2l7-3.8c1-.6 1-2 0-2.7" style="fill:#82aec0"/><path d="m62.3 45.3 4.2-6.2c.6-.9 1.8-1 2.5-.1l4.6 5.6q.7 1 0 2l-5.3 5.7c-.7.6-1.8.6-2.4 0q-1.7-1.9-3.7-5.4-.4-.9.1-1.6" style="fill:#94d1e0"/></svg>