<svg xml:space="preserve" width="16" height="16" viewBox="0 0 128 128"><path d="M116 4H12a8 8 0 0 0-8 8v104a8 8 0 0 0 8 8h104a8 8 0 0 0 8-8V12a8 8 0 0 0-8-8" style="fill:#f77e00"/><path d="M109.7 4H11.5A7.6 7.6 0 0 0 4 11.5v97.9c0 4.1 3.3 7.5 7.5 7.5h98.1c4.1 0 7.5-3.3 7.5-7.5V11.5c0-4-3.1-7.4-7.2-7.5z" style="fill:#ff9800"/><path d="M39.7 12.9c0-2.3-1.6-3-10.8-2.7-7.7.3-11.5 1.2-13.8 4s-2.9 8.5-3 15.3c0 4.8 0 9.3 2.5 9.3 3.4 0 3.4-7.9 6.2-12.3 5.4-8.7 18.9-10.6 18.9-13.6" style="opacity:.75;fill:#ffbd52"/><path d="M99.1 61.5H51.9a6 6 0 0 0-5.7 5.7v9.4l-21-14.7a3.8 3.8 0 0 0-5.5 3.4V103a3.8 3.8 0 0 0 5.5 3.4l21-14.7v9.4c0 3.2 2.5 5.7 5.7 5.7h47.2c3.1 0 5.7-2.6 5.7-5.7v-34c0-3.1-2.6-5.6-5.7-5.6" style="fill:#fafafa"/><circle cx="58.8" cy="41.7" r="20.5" style="fill:#fafafa"/><circle cx="93.9" cy="47.9" r="14.4" style="fill:#fafafa"/></svg>