<svg xml:space="preserve" width="16" height="16" viewBox="0 0 128 128"><path d="M87.9 3.7s-.6-1-2.8-.5c-2.5.4-7.9 4.4-9.6 14.4s-3.3 40.8-2.2 42.8c2.2 3.7 6.5 6.7 6.6 8.8.1 1.6-.4 38.3-.7 41s-2.2 9.7-2.5 11.5.8 3.1 2 3.2c1.8.2 7.2.3 7.2.3zM54.5 48.2l-1.4-32c0-.7-.4-1.7-1.3-1.7q-1 .1-1 1.6L50.4 45c0 2-2.3 1.6-2.3 0l-.2-28.6q0-1.6-1.1-1.7t-1.3 1.7c-.3 2.3-.6 27.4-.6 28.8-.1 1.7-2.4 1.7-2.4-.2l.2-28.7q0-1.3-1.3-1.5-1 .2-1.1 1.4L39 44.7c-.1 2-2.6 2.1-2.6-.1l1-28.2q-.2-1.6-1-1.7c-1 0-1.2 1-1.4 1.8-.2 1.7-2 16.1-2.5 21.5s-1.2 15 .5 18.4c2 4 5.9 5 5.9 5s-.7 44.6-1.1 47.5c-.6 4.2-3.3 11.4-3 13.1s1.2 2.7 3 2.7 5.3.6 6.3.3c.4 0 .6-27.6.6-27.6l.4-43.2z" style="fill:#9c9c9c"/><path d="M35.1 50.8 54.4 53s-.4 3.8-2 5.8c-2 2.6-4.5 2.8-4.5 2.8s.3 45.8.7 49 3.1 11 2.3 12.7c-.8 1.5-2.7 1.9-6.8 1.7-4.2 0-5.5 0-5.6-2.9-.2-2.9 2.4-8.2 2.5-12l.6-50.6S37 59 35.2 55c-1.3-3.1 0-4.3 0-4.3M85 64.3 78.7 63s4.1 3.5 4.2 6.1c0 2.7.2 40.4-.2 42.7s-3.6 11-2.1 12.5c1 1 4.3.8 6.2.8s3.4 0 4.2-1.2.4-4.1 0-6.4c-.5-2.6-1-5-1-6.2l-1.4-51z" style="fill:#c8c8c8"/><path d="M87.2 3.5c-1.7 0-5.8 1.8-8 9.7-1.6 6.2-2 13.5-2.4 26.6-.5 15.8.1 20.7.6 21.1s8.1 3.6 8.1 3.6l3.2-4.2-.5-53.1c0-2.1.3-3.7-1-3.7M34.6 48.3v4c0 .4 7.9 1 11 1.1 3 0 8.8-.3 8.8-.3v-4.9z" style="fill:#e0e0e0"/><path d="M36.4 55.9c2.4.5 7.9-1.8 7-2.6-.8-1-8.7-1.8-8.8-1-.1.7.4 3.2 1.8 3.6m11.7 66c.7-1.2.2-4.8-.1-6.7s-.6-3.4-1.4-3.3q-.9.1-.7 2.5c0 1.5.2 4-.4 4.6s-2.8 1.8-2.6 3 1.8 1.1 3 1c.6 0 1.7-.2 2.2-1.1m40.1-6.5c-.7 0-.7 1.2-.7 2.5q0 2.2-1 2.8c-.6.4-2.2 1.2-2.1 2q0 1.1 3 .8c2.3 0 2.3-1.6 2.2-3.2s-.3-4.9-1.4-5M77.4 60.5c-.6.3 1.2 2.5 3.3 4.3 2.2 1.9 3 2.5 5.3 2.3 2.2 0 3.3-6 1.9-6.6s-1.8 1.7-3.5 2-6-2.5-7-2" style="fill:#fdfdfd"/></svg>