<svg xml:space="preserve" width="16" height="16" viewBox="0 0 128 128"><radialGradient id="a" cx="63.6" cy="1696.9" r="57" gradientTransform="translate(0 -1634)" gradientUnits="userSpaceOnUse"><stop offset=".5" style="stop-color:#fde030"/><stop offset=".9" style="stop-color:#f7c02b"/><stop offset="1" style="stop-color:#f4a223"/></radialGradient><path d="M63.6 118.8c-27.9 0-58-17.5-58-55.9S35.7 7 63.6 7c15.5 0 29.8 5.1 40.4 14.4 11.5 10.2 17.6 24.6 17.6 41.5s-6.1 31.2-17.6 41.4a61 61 0 0 1-40.4 14.5" style="fill:url(#a)"/><path d="M111.5 29.7a57 57 0 0 1 8.1 30.2c0 16.9-6.1 31.2-17.6 41.4a61 61 0 0 1-40.4 14.5 59 59 0 0 1-48.2-23 58 58 0 0 0 50.2 26c15.4 0 29.8-5.2 40.4-14.5a54 54 0 0 0 17.6-41.4q-.1-19.2-10.1-33.2" style="fill:#eb8f00"/><path d="M64.6 85.6q5.7 0 11.4-.6a12 12 0 1 0-24-.2q6.3.8 12.6.8" style="fill:#fff"/><path d="M52 84.8v12.6a12 12 0 1 0 24 0V85a103 103 0 0 1-24-.2m31.7-44.2c3.8 0 7.3 4.4 7.3 11.8s-3.5 11.8-7.3 11.8-7.3-4.4-7.3-11.8 3.4-11.8 7.3-11.8m-39.4 0c-4.1 0-7.7 4.4-7.7 11.8s3.7 11.8 7.7 11.8S52 59.8 52 52.4s-3.7-11.8-7.7-11.8m1.3-11.7c2.3.2 3.2-2.9.8-3.6q-2.8-.7-5.8-.6c-5.3.2-10.3 2.4-14 6.2-1.7 1.8.7 4 2.5 2.7 4.8-3.4 10.6-5 16.5-4.7m36.6 0c5.9-.3 11.8 1.3 16.6 4.7 1.8 1.3 4.2-.9 2.5-2.7a21 21 0 0 0-19.8-5.6q-1.5.6-1.3 2.3.5 1.3 2 1.3" style="fill:#422b0d"/><path d="M44.3 44.9a3 3 0 0 0-3.8 1.3q-.8 1.8.6 3.3c1.4.7 3 0 3.8-1.3.5-1.1.3-2.5-.6-3.3m39 0c-1.4-.7-3.1 0-3.8 1.3-.5 1.1-.3 2.5.6 3.3 1.4.7 3.1 0 3.8-1.4.5-1 .3-2.4-.6-3.2" style="fill:#896024"/><path d="M76 85.6q-1-4.5-4.4-7.6a11.6 11.6 0 0 0-15.2 0q-3.5 3.1-4.4 7.6a11 11 0 0 1 2.7-9.3 12.3 12.3 0 0 1 21 4.4q.7 2.4.3 4.9" style="fill:#eb8f00"/></svg>