<svg xml:space="preserve" width="16" height="16" viewBox="0 0 128 128"><path d="M99 58.6H29c-8 0-14.5 7-14.5 15.5S21 89.6 29 89.6h70.2c8 0 14.6-7 14.6-15.5S107 58.6 99 58.6" style="fill:#c48e6a"/><path d="M64.1 3.8C9.8 4 19 71.7 19 71.7s3.4 50.4 43 52h4c39.6-1.6 42.3-51.2 42.3-51.2S120.4 4.1 64 3.8" style="fill:#ab872f"/><radialGradient id="a" cx="66.4" cy="66.4" r="62.3" gradientTransform="matrix(0 -.958 -.742 0 113.59 127.3)" gradientUnits="userSpaceOnUse"><stop offset=".8" style="stop-color:#bfa055;stop-opacity:0"/><stop offset="1" style="stop-color:#bfa055"/></radialGradient><path d="M64.1 3.8C9.8 4 19 71.7 19 71.7s3.5 52 45 52 44.3-51.2 44.3-51.2S120.4 4.1 64 3.8" style="fill:url(#a)"/><path d="M98.7 89.2q-2.4 7-8.8 8.2c-7 1.8-9.2-7.8-26-7.8s-20.1 9.4-27 7.8c-5.6-1.2-7.5-7.2-8.7-11.6-3-10.7 0-36.3 1-39a8 8 0 0 1 9-5.2 148 148 0 0 0 26 2.5h.3c10.5 0 20-1.4 26-2.5a8 8 0 0 1 9.2 5.2c1 3 4 28.2-1 42.4" style="fill:#e0bb95"/><path d="m69.2 85.7-.4-.1h-10q-1.5.7-1 2.3c.4 1 2.4 3.6 6.2 3.6s5.8-2.6 6.2-3.6q.5-1.6-1-2.2" style="fill:#c48e6a"/><path d="M95.6 62.3s-3.1-5-10.3-5-10.3 5-10.3 5q-.3.5-.4 1.2.2 2 2.2 2.1l.9-.2c4.3-1.8 7.6-1.8 7.6-1.8s3.4 0 7.6 1.8l1 .2c1.1 0 2-1 2-2q0-.8-.3-1.4m-42.6 0s-3.1-4.9-10.3-4.9-10.3 5-10.3 5q-.4.5-.4 1.2.2 2 2.2 2.1l.9-.2c4.3-1.8 7.6-1.8 7.6-1.8s3.4 0 7.6 1.8l1 .2c1.1 0 2-1 2-2.1q0-.8-.3-1.3" style="fill:#ab872f"/><ellipse cx="43" cy="73.3" rx="6.7" ry="6.9" style="fill:#5d4037"/><ellipse cx="85.4" cy="73.3" rx="6.7" ry="6.9" style="fill:#5d4037"/><path d="M64.2 107.4c5.2 0 10.9-3 13.7-5.5a1 1 0 0 0-.7-1.8h-26a1 1 0 0 0-.7 1.8c2.9 2.4 8.6 5.5 13.7 5.5" style="fill:#e0bb95"/></svg>