<svg xml:space="preserve" width="16" height="16" viewBox="0 0 128 128"><path d="m61.5 34-39-29.1A4 4 0 0 0 16 8v82a4 4 0 0 0 1.5 3.2l44 30a4 4 0 0 0 2.5.8V34.9a4 4 0 0 1-2.5-.9" style="fill:#fce438"/><path d="M105.5 4.9 66.5 34a4 4 0 0 1-2.5.9V124a4 4 0 0 0 2.5-.9l44-29.9a4 4 0 0 0 1.5-3.1V8a4 4 0 0 0-6.5-3.2" style="fill:#26a69a"/><path d="M20.8 19.8c1.3 1.3 29 21.2 29 21.2s2.8 2.1 4.7-.1c1.8-2.2.3-4.5-1.2-5.5S28.2 16.8 26.6 16c-1.6-1-4.2-.5-5.5.6s-1.4 2.4-.4 3.3" style="opacity:.6;fill:#fff"/><path d="M73.6 42c1.7-.8 20.9-15.8 20.9-15.8s2.9-2 1.4-4.5c-1.4-2.4-4-1.7-5.5-.6-1.5 1-17.2 13-18.6 14.1-1.4 1.2-1.8 3.7-1.2 5.4q1 2.4 3 1.4" style="opacity:.3;fill:#fff"/><circle cx="100.6" cy="17" r="3.3" style="opacity:.3;fill:#fff"/></svg>