<svg width="16" height="16" viewBox="0 0 128 128"><path fill="currentColor" stroke="currentColor" stroke-miterlimit="10" stroke-width="2" d="m48.8 31.8-17.3 76.4c5.3 1.5 11 3 16.4 3.6 8 .8 15.8-3.4 23.8-2 5.8 1.1 9.4 2.2 15.3.4q4.8-1.5 9.5-3.7L76 31.8z"/><g fill="currentColor" stroke="currentColor" stroke-miterlimit="10"><path stroke-width="1.4" d="M35.8 14.5 48.3 10l16 23-6.7.4-10-19.9z"/><path stroke-width="1.2" d="m36.7 21.5 10.4-4.2 14.3 17.5-5.8 1.3-9.1-15.5zm.3 7.8 7.6-4.9 16 13.2-5.5 2.2L44.4 28z"/><path stroke-width="1.4" d="M92.3 14.5 79.7 10l-16 23 6.7.4 10-19.9z"/><path stroke-width="1.2" d="m91.3 21.5-10.4-4.2-14.3 17.5 5.8 1.3 9.1-15.5zm-.3 7.8-7.6-4.9-16 13.2 5.5 2.2L83.6 28z"/></g><path fill="currentColor" d="M86.3 53q-1 0-1.7-.8L70.4 38.1c-1-1-1-2.6 0-3.5l2-2q.5-.5 1.8-.5 2.5.1 3.7 1L87.7 47l3.2-4q.7-.6 1.6-.6 1.1 0 1.9.9l.2.2c1 1 .8 2.6-.2 3.5l-6.2 5.4q-.7.6-1.7.6zm-12-20.4c1.3 0 2.7.5 3.2.9l9.4 13.3.8 1 .8-1 2.7-3.5a2 2 0 0 1 2.8.3l.2.2a2 2 0 0 1-.2 2.8L87.8 52a2 2 0 0 1-1.3.4h-.2A2 2 0 0 1 85 52L70.8 37.7a2 2 0 0 1 0-2.8l2-2q.1-.2 1.5-.3m0-1q-1.5 0-2.3.7l-2 1.9a3 3 0 0 0 0 4.2l14.2 14.2a3 3 0 0 0 2.1.8h.2a3 3 0 0 0 2-.7l6.2-5.3a3 3 0 0 0 .3-4.2l-.2-.3a3 3 0 0 0-4.2-.3l-2.8 3.6-9.5-13.4a7 7 0 0 0-4-1.2m8.9 57.8a212 212 0 0 0-14.3-17 4.3 4.3 0 0 0-6.2 0L47.3 88.3c-3.6-.7-8.3-2.4-9.9-3A327 327 0 0 1 47 68.6l1-1.6 7.5-11.3q1.6.3 8.2 4 1.2.5 2.3.6c2.3 0 3.9-1.9 4.5-2.9l2.3 2.4a448 448 0 0 0 16.1 22.8c-.7 1-3.4 5-5.7 6.8M55.7 56.3q2 .6 7.8 3.8 1.2.7 2.6.7c2 0 3.6-1.5 4.5-2.6l1.6 1.6c.3 1 8.8 12.8 16 22.8-.8 1.3-3 4.3-5 6a213 213 0 0 0-14-16.5 5 5 0 0 0-6.9 0c-6 6-13 13.3-15.2 15.6-3.2-.6-7.1-2-9-2.7a319 319 0 0 1 10.3-17.7zm-.4-1.2c0 .2-8.7 13-8.8 13.2-4.5 7.3-9.7 17.3-9.7 17.3S43 88 47.5 88.8a616 616 0 0 1 15.6-16q1.1-1.2 2.6-1.2t2.8 1.2C74.1 78.7 82.7 89 83 90.1c3-2 6.5-7.5 6.5-7.5s-16-22-16.3-23c0-.2-2.7-2.8-2.7-3 0 0-1.7 3.2-4.4 3.2q-1 0-2.1-.6C58.5 56 55.3 55 55.3 55m10.9 8.9q-1.5 0-2.6-1l-7-6.8q-1-1-1.2-2.3-.2-2.1-1.4-6.8c-1.4-5.3-3.1-9.8-4.2-12.8l-1-2.5q-1-3.5.2-5.2 1.3-1.8 5.1-1.8c4.6 0 10.2 2 10.2 2l3.6 1.1c5.5 1.8 11.8 3.8 11 10v.8A491 491 0 0 0 73 57.8q-.3 1-1 1.8l-3.2 3.2q-1.2 1-2.7 1m-12-38.6c4.5 0 10 2 10 2l3.6 1.1c5.6 1.8 11.5 3.6 10.8 9.5l-.1.6a488 488 0 0 0-5.8 19.3q-.3.9-.9 1.5l-3.2 3.2a3 3 0 0 1-4.6 0l-7-6.7q-1-.8-1-2a49 49 0 0 0-1.4-6.9 138 138 0 0 0-5.2-15.3q-1-3.2 0-4.7 1.2-1.6 4.8-1.6m0-1c-4.2 0-7.7 1.6-5.7 7.6.6 2 3.2 8.1 5.1 15.3q1.1 4.6 1.4 6.8 0 1.5 1.3 2.5l7 6.8a4 4 0 0 0 6 0l3.2-3.3q.9-.8 1.2-2a498 498 0 0 1 5.9-20c1-8.1-9-9.4-15-11.7 0 0-5.7-2-10.4-2m9.9 6.3a2.6 2.6 0 0 1-2.5-2.6v-3.2h5.8V28c0 1.4-1.2 2.6-2.6 2.6zm2.9-5.5v3c0 1.1-1 2.1-2.2 2.1H64q-2-.2-2.2-2.2v-2.8zm.7-.7h-6.4v3.5a3 3 0 0 0 2.9 3h.6a3 3 0 0 0 3-3zm-10.7-3.8c-1.5 0-2.6-1.2-2.6-2.7s1.1-2.8 2.6-2.8H71c1.4 0 2.6 1.3 2.6 2.8s-1.2 2.7-2.6 2.7zm14.2-5.2q2.1.1 2.3 2.5c.2 2.4-1 2.4-2.3 2.4H57q-2.1-.1-2.3-2.4c-.2-2.3 1-2.5 2.3-2.5zm0-.5H57c-1.6 0-2.8 1.3-2.8 3s1.2 3 2.8 3h14c1.6 0 2.8-1.4 2.8-3s-1.2-3-2.8-3m-7 11.7c-4.1 0-8.5-3.2-8.5-10.1 0-5.6 3.2-11.6 8.5-11.6s8.5 6 8.5 11.6c0 7-4.4 10.1-8.5 10.1M64 5c5 0 8.3 5.9 8.3 11.4 0 4.7-2.6 9.9-8.3 9.9s-8.3-5.2-8.3-10C55.7 11 59 5 64 5m0-.5c-4.6 0-8.8 4.9-8.8 11.9s4.4 10.4 8.8 10.4 8.8-3.5 8.8-10.4S68.5 4.5 64 4.5m-1.2 15.2C62.8 20 64 21 64 21l1.2-1.2c0-.2-2.5-.2-2.4 0m6.2 1a10 10 0 0 1-10 0c-.2-.2 1.2 3.4 5 3.4s5.2-3.6 5-3.4m5-13.9c-.3-2.3-6-4.3-10-4.3-3.5 0-9.7 2-10 4.3-.5 4.6.5 9.4.5 9.4l1.4 2.3c0-2 .7-5.3 1.2-6.7q.5-1.1 1.8-1a30 30 0 0 0 10.1 0q1.3-.1 1.8 1c.6 1.4 1.3 4.8 1.3 6.7l1.3-2.3s1-4.7.5-9.4"/><path d="M62.5 16.5h-.7l-.4-.1h-.3l-.7-.2-.6-.2q-1.2-.5-2.3-1.2l-.5-.3V14l.3-.5.1-.3.1-.3.3-.5.4-.5-.1 1.1-.2 1.2V14l1.1.5 1.2.6 1.2.6z"/><path fill="currentColor" d="m60.6 18-1.3-.3c-1.1-.5-2-1.5-2-1.5l-.3-.4h.5l.9-.1q.9 0 1.6.2 1.1.3 1.7 1v.6q-.1.5-1 .5"/><path d="m58.4 16 1.5.2q1.6.5 1.6 1.2 0 .4-.9.4l-1.1-.3c-1.1-.5-2-1.5-2-1.5zm0-.6h-1l-1 .2.7.8s1 1 2.1 1.6l1.4.3q1.2 0 1.4-.7.4-1.2-2-2zm7.1 1.1h.7l.3-.1h.4l.6-.2.6-.2q1.4-.5 2.4-1.2l.5-.3-.1-.5-.2-.5-.1-.3-.2-.3-.2-.5-.4-.5.1 1.1.2 1.2V14l-1.1.6-1.2.5-1.2.6z"/><path fill="currentColor" d="M67.3 18q-1 0-1.1-.5V17c.3-.6 1.4-1 1.8-1.1q.7-.2 1.6-.2H71l-.4.5s-.8 1-2 1.5q-.6.3-1.3.3"/><path d="M69.6 16h.8s-.8 1-1.9 1.5l-1.2.3q-.7 0-.8-.4-.1-.7 1.6-1.2zm0-.6q-1 0-1.7.2-2.3.8-2 2 .3.6 1.4.7.8 0 1.5-.3c1.2-.6 2-1.6 2-1.6l.7-.8-1-.2zM74 6.9c-.3-2.3-6.5-4.3-10-4.3s-9.7 2-10 4.3c-.5 4.6.5 9.4.5 9.4l1.4 2.3V17l-.6-1s-1-5-.5-9.2c.2-1.4 5.6-3.5 9.2-3.5s9 2 9.2 3.5c.4 4.2-.5 9.2-.5 9.2l-.7 1 .1 1.5 1.3-2.3s1-4.7.5-9.4M74 11l-.3 3.7z"/><path fill="none" stroke="currentColor" stroke-miterlimit="10" stroke-width=".5" d="M62.8 13.7s.5 1.7-.1 2.6m2.4-2.6s-.4 1.7.2 2.6"/><path fill="currentColor" d="m64.3 36.4 1.7-4 2.3 3.9-1.6 6.6z"/><path d="m66 33.2 2 3.1-1.4 5.5-2-5.4zm0-1.4-.5 1.1-1.4 3.3-.1.2v.2l2 5.4.7 2 .5-2 1.3-5.5V36l-2-3.1z"/><path fill="currentColor" d="M33.6 40c-1.7 0-3.3-1-3.9-2.6l-4-10.6a2 2 0 0 1 1-2.6l2.8-1q.3-.2.7-.2a2 2 0 0 1 2 1.2l2.7 7.3L51 27.2l1-.1a4 4 0 0 1 1 7.8l-18 4.8zm-3.4-16.6q1.1 0 1.5 1l2.7 7 .3.6.7-.2L51 27.6l1-.1a3.6 3.6 0 0 1 .8 7l-18 4.8-1.4.3q-2.5-.2-3.4-2.3l-4-10.7q-.5-1.4.9-2l2.7-1.1zm0-.8-.8.1-2.8 1.1a2.4 2.4 0 0 0-1.3 3.1l4 10.6a4.5 4.5 0 0 0 5.8 2.6l18-4.8a4.4 4.4 0 0 0-2.2-8.4L35.2 31l-2.7-6.9q-.7-1.5-2.3-1.5M41 123.2c-6 0-9-1.2-10.7-2.2l-.2-.5q-.1-.3.4-.4c17.7-3.8 18.3-5.2 18.5-5.7q.1-.5 0-.8a620 620 0 0 1-16-28.7l.4-.2h.2l13.1 3.8q.3 0 .4.3l9.6 31q0 .5-.2.8c-.9 1.3-4.5 1.7-6.4 1.9h-1q-4.5.7-8.2.7"/><path d="M33.8 85.4 46.6 89l9.6 30.9v.3c-.8 1-4.5 1.4-6 1.5l-1.2.2q-4.4.6-8 .6a20 20 0 0 1-10-2c17.7-3.7 18.3-5.2 18.6-6q.3-.7-.1-1.4a617 617 0 0 1-15.7-27.8m-.3-1.4c-.8 0-1.4 1-1 1.7 3.3 6.1 12 22 16 28.2.8 1.4-12.8 4.4-18.1 5.5-1 .3-1.3 1.6-.4 2.1 1.7 1.1 5 2.3 11 2.3q3.4 0 8.2-.6c2.3-.3 9-.5 8.2-3.6l-9.6-31q-.2-.5-.8-.7L33.9 84z"/><path fill="currentColor" d="M101.5 118.5H99c-6.9-.4-9-2-9.6-3.2L81 91.4v-.3l8.8-10h.3q.3 0 .3.3c.8 6.5 2.6 22.4 3.4 28.1.1.6.3 1.7 15.4 7.6q.3.1.2.4l-.2.3q-2.6.6-7.8.7"/><path d="M90 81.9c.7 6.8 2.5 22 3.3 27.7 0 .8.3 2 15 7.8a39 39 0 0 1-9.2.5c-7-.4-8.7-2-9.1-2.8l-8.5-23.8zm.2-1.4q-.3 0-.7.3l-8.8 9.9q-.3.4-.2.9l8.6 24c1.4 2.9 8 3.3 10 3.4a39 39 0 0 0 10.3-.7c.8-.2 1-1.4.1-1.7a63 63 0 0 1-15-7.1c-.9-6-2.8-22.5-3.4-28.2q-.1-.8-1-.8"/><path fill="currentColor" stroke="currentColor" stroke-linecap="round" stroke-linejoin="round" stroke-miterlimit="10" d="M34.2 9.1q.7.6 1.4 0 .4-.7 0-1.3l-1.3-1.6c-1.3-1.5-2.5-.8-2.5-.8V5a1 1 0 0 0-1.3-.5s-1.6.2-1.7.1a1 1 0 0 0-1.3-.1l-2.2 1.8a23 23 0 0 0-2.7 8c-.7 6 .7 13.9 4.2 21 0 0 1.3-3.7 3-5.4a8 8 0 0 1 5.3-2.5s-.6-2.4-4.4-8q-2.4-3.6-2.1-5.5h2.8a1 1 0 1 0 0-1.8h-1.6c-2.1-1.2 0-3.2 1.2-4q1.1-.4 1.3-.2zM104 24.7l-3-2.6c-1-.4-.8-.6-1.4 0-1.2 1 1.2 2.5 1.2 2.5L98 23a1 1 0 0 0-1.2.2h0q-.4.8.1 1.2l1.9 1.4-2.9-1a1 1 0 0 0-1 .6h0q-.3.9.5 1.1l1.8.6q0 0 0 0L98 29c.4 1 .4 2.4-.8 2.5h-1.3c-.8-.1-2.3 1.4 0 1.9l3.3.4c-.2 1.4-1.1 2.9-4.2 4.8-5.6 3.4-7 5.3-7 5.3a6 6 0 0 1 3.3 3.9c.7 2-.2 6.5-.2 6.5 5.8-4.7 10.2-13 11.9-17.6v0c1.2-3.5.7-7.5.8-8 0 0 .4-3.6.2-4"/></svg>