<svg xml:space="preserve" width="16" height="16" viewBox="0 0 128 128"><path d="M87.4 21.5c-4.5-5.9-4-12-11.3-13.4-4.8-.9-8.6 4.3-8.5 6 .2 3.6 3.4 3.4 5 4 0 0 1.2 6.3 8.8 9.7 11.9 5.4 17-.3 17-.3s-6.7-.4-11-6" style="fill:#312d2d"/><radialGradient id="a" cx="91.5" cy="109.1" r="25.1" gradientTransform="rotate(20.1 -138.8 -22)scale(1 -.576)" gradientUnits="userSpaceOnUse"><stop offset=".6" style="stop-color:#454140;stop-opacity:0"/><stop offset="1" style="stop-color:#454140"/></radialGradient><path d="M87.4 21.5C83 15.6 83.5 9.5 76.1 8c-4.7-.9-8.6 4.3-8.5 6 .2 3.6 3.4 3.4 5 4 0 0 1.2 6.3 8.8 9.7 11.9 5.4 17-.3 17-.3s-6.7-.4-11-6" style="fill:url(#a)"/><radialGradient id="b" cx="416.3" cy="932.2" r="13.2" gradientTransform="rotate(136.4 66.69 708.88)scale(-1 1.289)" gradientUnits="userSpaceOnUse"><stop offset=".6" style="stop-color:#454140;stop-opacity:0"/><stop offset="1" style="stop-color:#454140"/></radialGradient><path d="M85.6 18.4c-2.7-4.8-3.4-9.2-9.5-10.3-4.8-.9-8.5 4.1-8.4 6 0 0 2.5-3.3 8.4-2a19 19 0 0 1 9.5 6.3" style="fill:url(#b)"/><radialGradient id="c" cx="426.9" cy="920.4" r="12.7" gradientTransform="rotate(128.6 -84.94 -774.8)scale(1 -1.532)" gradientUnits="userSpaceOnUse"><stop offset="0" style="stop-color:#454140"/><stop offset=".5" style="stop-color:#454140;stop-opacity:0"/></radialGradient><path d="M87.4 21.5q-1.6-2.3-2.8-4.8c-.7-1.4-1.3-2.7-3-3.2-2.7-.7-6.5 2.8-5.9 6.1.4 2.1 3 6.2 10.5 9.1 8.1 3.2 12.1-1.2 12.1-1.2s-6.5-.4-10.9-6" style="fill:url(#c)"/><path d="m98.9 82.6-18.6 3.8-5.2-18-12.4 8.4 9 18.2a6 6 0 0 0 5 3h1.7l23-8.8z" style="fill:#616161"/><path d="M102.8 78.8q-.6-.8-1.5-.4L98.9 80c-1.6 1-2.5 3.6-2.5 3.6l3.6 6 4.9 4.2a4 4 0 0 0 4.4.3l1-.6q.8-.6.4-1.4z" style="fill:#325599"/><path d="M44.9 113.8 56.3 92s14.2-11.8 15.4-12.6c4.6-3 5.6-7.4 5.1-10.5-.3-2.5-2-5.7-2-5.7l-18.6 5.6.9 3.4-7 9c-1.4 1.5-3.7 3.6-5.4 9.7L38 112.7z" style="fill:#7c7c7c"/><path d="M44.9 120.6q1 0 1.3-1l.4-2.7c.3-1.8-1.2-4.2-1.2-4.2l-6.8-1.2-6.5 1a4 4 0 0 0-3 3.2l-.2 1.3q-.1.8.8 1.1z" style="fill:#4568ad"/><path d="M70.5 13C68.3 8.7 62.8 5.2 58 5.6c-5.4.5-8.5 4.1-9.6 9a13 13 0 0 0-.3 4.7l.3 1.6c0 1.3-2.6 2.5-3 3.9-.3 1 2 1.9 2.1 2.1.8 1-.9 5.6 5.3 6.5 2 .3 2.3.1 3 .3 1.9.4 2.8 4.7 2.8 4.7s1 4.2 5.1 3.2c4.8-1 3.7-5.4 3.7-5.4s-3.2-4.8 0-9.7C70 22.8 72 15.8 70.5 13" style="fill:#f9ddbd"/><path d="M48 29.6q1.3.2 2.5-.6c.8-.5.3-1.2-.6-.9q-1 .4-2 .1z" style="fill:#444"/><ellipse cx="52.2" cy="21.9" rx="1.8" ry="1.1" style="fill:#312d2d" transform="rotate(-87.8 52.17 21.9)"/><linearGradient id="d" x1="40.4" x2="52.2" y1="79" y2="79" gradientTransform="matrix(1 0 0 -1 0 128)" gradientUnits="userSpaceOnUse"><stop offset=".6" style="stop-color:#f9ddbd"/><stop offset="1" style="stop-color:#ffd29c"/></linearGradient><path d="m50 49-8.9-6.8-4.4 4.7 9 8.7c1.9 1.9 6 3.1 9.5 0 3.2-3 7.3-9.4 7.3-9.4l-7-5.6z" style="fill:url(#d)"/><path d="M51.5 19.5c-1 .3-1.4-.4-1-1q.4-.8 2.2-.6 1.8.5 2.1 1.3c.3.8.4.8 0 .9-.3 0-1.9-1-3.3-.7" style="fill:#454140"/><path d="M71.1 9.3c-2.2-3-6-5-10-5.4-3.5-.4-8.4.2-11.6 3a8 8 0 0 0-3 6.6 4 4 0 0 0 1.4 2.4s1.7-3.5 5.3-2.4c3.7 1.2 5.4.5 5.4.5-1.4 3-.4 4.7.5 5.7q.9.9 1.3 1.6.3.3.4 0l.7-1.8c.8-1.3 2-.8 2-.8 1.4.7 1.8 3.9-.8 5.6q-.2 0-.2.4c.8 3.3 4.6 3.6 4.9 3.5q.9-.3 1-1.2c.4-2.1 1.4-2.7 2.1-3.6.8-1 1.8-2.2 2.5-5.5q1-4.7-1.9-8.6" style="fill:#312d2d"/><radialGradient id="e" cx="58.6" cy="41.9" r="12.7" gradientTransform="rotate(183.1 .27 27.25)scale(-1 1)" gradientUnits="userSpaceOnUse"><stop offset=".5" style="stop-color:#454140;stop-opacity:0"/><stop offset="1" style="stop-color:#454140"/></radialGradient><path d="M71.1 9.3c-2.2-3-6-5-10-5.4-3.5-.4-8.4.2-11.6 3a8 8 0 0 0-3 6.6 4 4 0 0 0 1.4 2.4s1.7-3.5 5.3-2.4c3.7 1.2 5.4.5 5.4.5-1.4 3-.4 4.7.5 5.7q.9.9 1.3 1.6.3.3.4 0l.7-1.8c.8-1.3 2-.8 2-.8 1.4.7 1.8 3.9-.8 5.6q-.2 0-.2.4c.8 3.3 4.6 3.6 4.9 3.5q.9-.3 1-1.2c.4-2.1 1.4-2.7 2.1-3.6.8-1 1.8-2.2 2.5-5.5q1-4.7-1.9-8.6" style="fill:url(#e)"/><path d="M50.3 45c2.5 7.1 8.8 7.3 8.8 7.3l5-8.6c1.4-2.3.6-5.2-1.7-6.6l-.8-.5c-2.3-1.3-4.3-.7-7.4 3.9-2.8 4-4 4.4-4 4.4" style="fill:#3615af"/><linearGradient id="f" x1="5.5" x2="32.1" y1="-286.8" y2="-286.8" gradientTransform="rotate(15.7 889.5 338.87)scale(1 -1)" gradientUnits="userSpaceOnUse"><stop offset="0" style="stop-color:#651fff"/><stop offset=".7" style="stop-color:#5914f2"/><stop offset="1" style="stop-color:#530eeb"/></linearGradient><path d="M56.2 68.8c-2.5-9.9-3-16.8-2.4-22.3.7-7 4-11.2 7.8-12.5 4.6-1.6 7.8.7 9.1 4.9.9 2.9.7 5 .6 6.4 0 0-.6 7.5 5.3 16.8 0 0-.5 4-10 6.3-4.2 1-10.4.4-10.4.4" style="fill:url(#f)"/><path d="M71.5 59.6 67 57.4q-1-.4-1.6.5l-.9 1.7v1c-.5.2-1.8 1-2 1.5q-.3 1 .3 1.3t.5 1 0 1.2 1 .6q.3.1.4.5l.1 1.2c.4.4 1 .3 1.2.6.1.1.1.7.4 1 .7.6 2.9-.6 2.9-.6l4.2-4z" style="fill:#edbd82"/><linearGradient id="g" x1="68" x2="74.6" y1="61.1" y2="80.8" gradientTransform="matrix(1 0 0 -1 0 128)" gradientUnits="userSpaceOnUse"><stop offset=".6" style="stop-color:#f9ddbd"/><stop offset="1" style="stop-color:#ffd29c"/></linearGradient><path d="m70 59 2.7.7 1.9 5s-5.7 5.7-6.7 4c-.3-.4.2-1-.6-1.3q-1-.2-.8-1.4 0-.6-.5-.7-1.5-.4-1-1.5.3-.9-.5-1.5-.4-.2-.4-1.3c.2-1 6-2 6-2" style="fill:url(#g)"/><linearGradient id="h" x1="71.7" x2="78.3" y1="59.9" y2="79.5" gradientTransform="matrix(1 0 0 -1 0 128)" gradientUnits="userSpaceOnUse"><stop offset=".6" style="stop-color:#f9ddbd"/><stop offset="1" style="stop-color:#ffd29c"/></linearGradient><path d="m73.7 65.4 10-6.7q1.5-1.7 1.8-3c.7-3.1-1.3-5.3-1.3-5.3l-9.1-10.2-5.7 5.8 8 8-6 5.6z" style="fill:url(#h)"/><path d="M74 52s6-6 5.8-10.6c0 0-2.9 0-7.2-3.3-2.7-2-6.3-2.2-7.7.2-1.3 2.1-1.1 4.7 1.4 7.7 1.8 2.2 7.6 6 7.6 6" style="fill:#3615af"/><linearGradient id="i" x1="1928.8" x2="1931.7" y1="888.1" y2="888.1" gradientTransform="rotate(134.7 1158.75 69.74)" gradientUnits="userSpaceOnUse"><stop offset=".5" style="stop-color:#f9ddbd"/><stop offset="1" style="stop-color:#ffd29c"/></linearGradient><path d="M36.3 43.4q-.9.9-1.7.3l-2-1.4q-.7-.7 0-1.7.7-.8 1.6-.3l2 1.5q.8.6 0 1.6" style="fill:url(#i)"/><linearGradient id="j" x1="770" x2="779.4" y1="881.7" y2="881.7" gradientTransform="rotate(-48.3 1436.57 402.49)scale(1 -1)" gradientUnits="userSpaceOnUse"><stop offset="0" style="stop-color:#ffd29c"/><stop offset=".1" style="stop-color:#f9ddbd"/><stop offset=".8" style="stop-color:#f9ddbd"/></linearGradient><path d="M38 37.2q1.4 1.6 2 2a6 6 0 0 1 2.3 2.3c1 2-.3 3.8-1.8 5.2-1.4 1.3-2.3 1.6-3.9 1.4-1.3-.2-4-3.1-4-3.1l-.9-1-.4-.4q-.6-.5 0-1.3c.5-.7 1-.3 1.1-.3l.8.7q.8.6.9.5l2.7-3.5-1-1.2c0-.2-.5-.8.3-1.5s1.7 0 1.8.2" style="fill:url(#j)"/><linearGradient id="k" x1="1945.2" x2="1947.9" y1="847" y2="847" gradientTransform="rotate(136 1154.18 57.85)" gradientUnits="userSpaceOnUse"><stop offset=".5" style="stop-color:#f9ddbd"/><stop offset="1" style="stop-color:#ffd29c"/></linearGradient><path d="M37.8 42q-.8.8-1.6.2L34 40.3q-.7-.7 0-1.6 1-.9 1.7-.2l2 1.8q.8.8 0 1.7" style="fill:url(#k)"/><linearGradient id="l" x1="1927.8" x2="1927" y1="886.9" y2="880.7" gradientTransform="rotate(134.7 1158.75 69.74)" gradientUnits="userSpaceOnUse"><stop offset=".5" style="stop-color:#f9ddbd"/><stop offset="1" style="stop-color:#ffd29c"/></linearGradient><path d="m35.2 42.3 1.6-2.2.2-.3q1.4-1.3 3.3-.2h.2l.2.2q.3 0 .4.3l1 1c.7 1.2.4 2.3.4 2.3s-.8 2.7-2.1 2.3-2-2.4-2-2.4l.3-1.3q-.5-.1-1.2.7l-.8 1q-.4.4-1 .4-.8-.2-1.2-.7z" style="fill:url(#l)"/><radialGradient id="m" cx="37.3" cy="84.5" r="3.1" gradientTransform="matrix(1 0 0 -1 0 128)" gradientUnits="userSpaceOnUse"><stop offset="0" style="stop-color:#ffd29c"/><stop offset="1" style="stop-color:#f9ddbd"/></radialGradient><path d="m34.6 45.4 1.6-1.4.8-1 1.2-1 .3.2-.2 1.3.9 1.3.5.4-2.8 2z" style="fill:url(#m)"/><path d="M34.7 44.6c0 .6-.7 1-.6 1q.3.1 2-1.2c.6-.8 1.3-1.9 2.2-2.1q-.4 2.2 1.5 3c-1-.9-1.6-2.3-.8-3.4-.7-.4-1.5.2-1.9.7-.4.6-.8 1.4-1.6 1.3q-.9 0-.6-1a8 8 0 0 1 2.9-3.4q.6-.4 2.5-.1c-.9-.7-2.3-.4-2.9-.2-.5.2-.3.1-.8-.1l-.6-.4q.4.4.5 1t-.5 1c-.7.7-1.2 0-1.8-.3l.7 1q.3.7-.4 1.3c-.7.7-2-.8-2.1-.7-.1 0 2.3 2 2.3 2.6" style="fill:#edbd82"/></svg>