<svg xml:space="preserve" width="16" height="16" viewBox="0 0 128 128"><path d="M117.6 102.3H10.4c-2.8 0-3.9-1.7-3.9-3.8v-69c0-2.1 1.7-3.8 3.9-3.8h107.2c2.2 0 3.9 1.7 3.9 3.8v69c0 2.1-1.7 3.8-3.9 3.8" style="fill:#fff"/><path d="m89 56.7 30.4-27.3c.6-.5 1.8-.7 1.8-.7s-1.4-1.6-3.2-.1L70.3 66.4q-2.9 2.2-6.3 2.3t-6.3-2.3L10 28.6c-1.8-1.5-3.2 0-3.2 0s1.2.3 1.8.8l30 27L7.8 99.6c-.5.6 1 1.5 1.6.9l33.7-40.1 12.3 11q3.8 3.4 8.6 3.5 4.7-.1 8.6-3.4l12.3-11 33 40c.6.6 2.1-.4 1.6-1z" style="fill:#6fbff0;stroke:#6fbff0;stroke-width:.5;stroke-miterlimit:10"/><path d="M117.6 102.3H10.4c-2.8 0-3.9-1.7-3.9-3.8v-69c0-2.1 1.7-3.8 3.9-3.8h107.2c2.2 0 3.9 1.7 3.9 3.8v69c0 2.1-1.7 3.8-3.9 3.8z" style="fill:none;stroke:#6fbff0;stroke-width:4;stroke-miterlimit:10"/></svg>