<svg xml:space="preserve" width="16" height="16" viewBox="0 0 128 128"><path d="M60.8 100.9H124v16.2H60.8z" style="fill:#455a64"/><ellipse cx="93.6" cy="110.8" rx="13.1" ry="13.2" style="fill:#455a64"/><circle cx="93.6" cy="110.8" r="8.8" style="fill:#607d8b"/><path d="M90.5 110.8a3.1 3.1 0 1 0 6.3 0z" style="fill:#455a64"/><path d="m20 97.7-10 16.5c-1.4 2.3.6 3 1.9 3h54q1.4-.1 2.7-1.3c3.6-2.8 5.4-5 13.9-5H124V97.6z" style="fill:#0277bd"/><path d="M20 97.7 13.3 109s5.2-3.9 19.5-3.9H124v-7.4z" style="fill:#004f84"/><path d="M105.7 9 30.4 55c-13 10.9-19.9 20.7-23.1 24.9-6 7.8.3 14.3 1.5 15.2a42 42 0 0 0 24 6.4H124V4q-8 1.6-18.3 5" style="fill:#e0e0e0"/><path d="M30.4 55 41 44.2c1-1.3 3.8-1.7 3.8-1.7l56.4-32 4.7-1.7c-1.6 8.6-9.4 20.6-33.4 32.3a183 183 0 0 1-42 13.9" style="fill:#37474f"/><path d="M44.8 42.5S57.9 31.3 67.9 25a121 121 0 0 1 33.3-14.7c-2.5 8.3-8 15.7-30.6 25.8-19.4 8.7-25.8 6.3-25.8 6.3" style="fill:#bae2fd"/><ellipse cx="27.3" cy="67.8" rx="8" ry="4" style="fill:#e2a610" transform="rotate(-45 27.33 67.82)"/><path d="M33.3 62.5q-2.6 0-6 2.8c-3.2 2.9-5 6.8-3.8 8.8q2.7 0 6-2.7c3.2-3 5-6.9 3.8-8.9" style="fill:#ffca28"/><path d="M94 68.8c-33.7 0-61 12-73.2 16.4-8 2.8-13.3 2-16 1a10 10 0 0 0 4 9.2c2.4 2 9.6 6.1 24 6.1H124V68.8z" style="fill:#0277bd"/><path d="M94 68.8c-33.7 0-61 12-73.2 16.4-8 2.8-13.3 2-16 1q-.2 3.6 1 5.6c2.8.7 10 1.4 17.3-.6 19.2-5.4 35.9-12 69.6-12H124V68.8z" style="fill:#82aec0"/></svg>