<svg xml:space="preserve" width="16" height="16" viewBox="0 0 128 128"><radialGradient id="a" cx="64" cy="3167.6" r="57" gradientTransform="translate(0 -3106)" gradientUnits="userSpaceOnUse"><stop offset=".5" style="stop-color:#fde030"/><stop offset=".9" style="stop-color:#f7c02b"/><stop offset="1" style="stop-color:#f4a223"/></radialGradient><path d="M64 117.5c-27.9 0-58-17.5-58-55.9S36.1 5.7 64 5.7c15.5 0 29.8 5.1 40.4 14.4C115.9 30.3 122 44.7 122 61.6s-6.1 31.2-17.6 41.4A61 61 0 0 1 64 117.5" style="fill:url(#a)"/><path d="M111.9 28.3a57 57 0 0 1 8.1 30.2c0 16.9-6.1 31.2-17.6 41.4A61 61 0 0 1 62 114.4c-18.1 0-37-7.3-48.2-22.9A58 58 0 0 0 64 117.4c15.4 0 29.8-5.2 40.4-14.5A53 53 0 0 0 122 61.6q-.1-19.4-10.1-33.3" style="fill:#eb8f00"/><path d="M44.7 30.8s1.9-1.1 3.5.3c.9.7 1.4 2.1.4 3.1-4 5-14.5 8-19.6 6.5-1-.3-1.5-1.4-1.2-2.3q.6-1.4 2-1.3c6.7-.7 11-2.8 14.9-6.3m25.2-.5s-1.9-1.1-3.5.3c-.9.7-1.4 2.1-.4 3.1 4 5 14.5 8 19.6 6.5 1-.3 1.5-1.4 1.2-2.3a2 2 0 0 0-2-1.3 26 26 0 0 1-14.9-6.3m-34.6 61c-.4 3.5 3.4 3.9 3.4 3.9s28 1.2 36.8 1.2c5.2 0 4.3-5.2-.8-9.1-3.1-2.3-8.1-4.8-19.8-4.8-8.9 0-19.1 4.9-19.6 8.8" style="fill:#422b0d"/><path d="M46 95.5s4.6-3.5 11-3.6c7.8-.1 14.6 4.5 14.6 4.5s-7.1.1-13.9-.1-11.7-.8-11.7-.8" style="fill:#f48fb1"/><path d="M46.1 57.6H25.3c-1.4 0-2.5-1.1-2.5-2.5s1.1-2.5 2.5-2.5h20.8c1.4 0 2.5 1.1 2.5 2.5s-1.2 2.5-2.5 2.5m-17.2-2-.1 1.4c0 5.9 3.4 9.4 7 9.4s7-3.5 7-9.4l-.1-1.4zm60.4 2H68.5c-1.4 0-2.5-1.1-2.5-2.5s1.1-2.5 2.5-2.5h20.8c1.4 0 2.5 1.1 2.5 2.5s-1.1 2.5-2.5 2.5m-16.8-2.5-.1 2c0 5.9 3.4 9.4 7 9.4 3.7 0 7-3.5 7-9.4l-.1-2z" style="fill:#422b0d"/><path d="M67.2 102.9a36 36 0 0 1-10.1.6 75 75 0 0 1-9.9-1.2l-.1-.3q2.4-1 5-1.3t5.1-.2l5.1.6q2.5.5 4.9 1.4z" style="fill:#eb8f00"/><path d="m37.7 92.8-6.1.7c-2.7.3-5.5.4-7.8-.8l-3.2-2c-2.7-1.4-6.1-1-8.9.4A9 9 0 0 0 7.3 97c-.7 2.6.8 5.5 2.9 7 3.8 2.7 1.6 3.1 2.7 6.8a7 7 0 0 0 8.9 5c1.4-.4 2.8-1.4 4.2-1.7 1.6-.3 2.9.7 4.4.6 3.3 0 5.1-2.6 5.5-5.9.2-1.6 0-3.2.3-4.8.9-4.9 5.3-8.2 8.9-11.6 1.7-1.6-1.7-.8-2.3-.7q-2.5.7-5.1 1.1" style="fill:#fff"/><path d="M6.8 97a10 10 0 0 1 4.8-6.2c2.7-1.4 6.5-1.9 9.3-.2l.4.5q-1.8-.2-3.6-.1-2.7.2-4.7 1.9l-1.3 1.6a7 7 0 0 0-1 5.1c.3 1.3 1.5 2.8 3 3.1 1.6.2 3-1.2 4.7-1 .7.1 1.5.9 1.1 1.5q-.4.5-1.2.5a4 4 0 0 0-3.1 2.5q-.4 1-.4 2c0 2.6 1.8 5.1 4.2 5.9q2.6.7 4.8-.4l1.8-1.4a5 5 0 0 1 2.4-.3l2.4.1a5 5 0 0 0 4.1-3.1c.9-1.9.6-3.7.8-5.8a10 10 0 0 1 2.2-4.8q1.6-2 3.7-3.6l2.2-1.4c.3-.2 2-1.4 2.2-1.3q.5.2-.3.9c-3.6 3.4-8.1 6.7-8.9 11.6-.3 1.6-.1 3.2-.3 4.8-.3 3.3-2.7 6.8-6 6.8-1.6 0-3.2-.9-4.8-.6-1.4.3-2.7 1.5-4.1 1.9-4 1.2-8.6-1.9-9.7-5.9-1-3.7 1.2-4.4-2.6-7.1-2.1-1.6-2.9-4.9-2.1-7.5" style="fill:#92cbeb"/></svg>