<svg xml:space="preserve" width="16" height="16" viewBox="0 0 128 128"><path d="M34.6 13.5c2.4-4.3 8-7.7 12.8-7.2 5.4.7 8.5 4.4 9.5 9.3q.4 2.7.1 4.8l-.3 1.6c-.1 1.3 2.5 2.5 2.9 4 .2 1-2 1.8-2.2 2-.8 1 1.4 5.4-4.9 6-2.1.3-2.3 0-2.7.2-.3.2 1.5 3.5 1.5 3.5h-10s-1.7-8.4-5.3-12c-3.1-3.1-3-9.5-1.4-12.2" style="fill:#e0bb95"/><path d="M57.2 29.3H55c-1-.4-1.4.3-.6.8s1.9.6 2.7.5z" style="fill:#6d4c41"/><path d="M52.2 22.8q.1-1.6 1.1-1.8 1 .2 1.2 1.8 0 1.7-1.2 1.8-1-.2-1.1-1.8" style="fill:#5d4037"/><path d="M54 20.2c1.2.2 1.4-.6 1-1.1q-.4-.7-2.3-.4-1.7.8-2 1.6t.1 1c.4 0 1.9-1.4 3.3-1.1m-9 2.4-1-1.4c-.7-.8-1.3-1.5-2-1.3-2.4.5-1.8 4.7 1 5.5 0 0-.3 5-2.5 5.7-.3 0-.7.3-1.3 0-.7-.4-1.7-2-2-2.8-1.4-4.7-3-3.7-4.3-9.2-1.6-7.6 5-12.8 11.3-13.6q4-.4 7.6 1c1 .4 4 2 4.8 3.7 1 2-.1 3.9-.1 3.9s-6.3-.3-9.4.5q-.7.1-1 .7l-.1 1.4c0 2.3.2 3.8-.4 5.3-.1.3-.6.6-.6.6" style="fill:#ab872f"/><radialGradient id="a" cx="-966" cy="643.8" r="1" gradientTransform="matrix(-12.524 .145 .145 12.524 -12145.36 -7902.8)" gradientUnits="userSpaceOnUse"><stop offset=".7" style="stop-color:#bfa055;stop-opacity:0"/><stop offset="1" style="stop-color:#bfa055"/></radialGradient><path d="m45.1 22.6-1-1.4q-1-1.4-2-1.3c-2.4.5-1.8 4.7 1 5.5 0 0-.3 5-2.5 5.7-.3 0-.7.3-1.3 0-.7-.4-1.7-2-2-2.8-1.4-4.7-3-3.7-4.3-9.2-1.6-7.6 5-12.8 11.3-13.6q4-.4 7.6 1c1 .4 4 2 4.8 3.7 1 2-.1 3.9-.1 3.9s-6.3-.3-9.4.5q-.7.1-1 .7l-.1 1.4c0 2.3.2 3.8-.4 5.3-.1.3-.6.6-.6.6" style="fill:url(#a)"/><path d="M89 107q-1 .3-1.5-.7l-.8-2.6c-.6-1.8.5-4.5.5-4.5l6.6-2h6.6a4 4 0 0 1 3.5 2.7l.4 1.2q.1.8-.7 1.2z" style="fill:#4568ad"/><path d="M45.7 65.5h18.5l1.2 3.5 12.1 2.1c4.4.8 8 1.3 11.1 8.8l6.8 17-9.4 4-9-17.7s-15.2.7-24.7-.5c-9.5-1.3-6.6-17.2-6.6-17.2" style="fill:#7c7c7c"/><radialGradient id="b" cx="-944.6" cy="647.4" r="1" gradientTransform="rotate(167.5 -7860.13 -4188.82)scale(15.52 -15.52)" gradientUnits="userSpaceOnUse"><stop offset=".4" style="stop-color:#00bfa5"/><stop offset="1" style="stop-color:#009e89"/></radialGradient><path d="M66 69s-1.8-13.5-6.8-23c-2.8-5.3-4.6-7.3-7-8.9-3-1.8-8.8-3-11.2-.1-2.3 2.8-1.6 4-1.2 7l6.5 29.2C57 74.2 66 69 66 69" style="fill:url(#b)"/><path d="M28.3 124a6.8 6.8 0 1 1 0-13.6 6.8 6.8 0 0 1 0 13.6" style="fill:#78909c"/><path d="M28.3 120.1a3 3 0 1 1 0-5.8 3 3 0 0 1 0 5.8" style="fill:#afb8b6"/><path d="M28.3 114.8a2.4 2.4 0 1 0 0 4.8 2.4 2.4 0 0 0 0-4.8m0-1a3.4 3.4 0 1 1 0 6.8 3.4 3.4 0 0 1 0-6.8" style="fill:#37474f"/><path d="M28.3 99.8q1.2 0 1.3.6v1.3h13v5.5h-13v9.8q-.1 1.3-1.3 1.4-1.3-.1-1.4-1.4v-16.6q.1-.5 1.4-.6" style="fill:#616161"/><path d="M80.5 124a6.8 6.8 0 1 0 0-13.7 6.8 6.8 0 0 0 0 13.7" style="fill:#607d8b"/><path d="M80.5 120.1a3 3 0 1 0 0-5.8 3 3 0 0 0 0 5.8" style="fill:#afb8b6"/><path d="M80.5 114.8a2.4 2.4 0 1 0 0 4.8 2.4 2.4 0 0 0 0-4.8m0-1a3.4 3.4 0 1 1 0 6.8 3.4 3.4 0 0 1 0-6.8" style="fill:#37474f"/><path d="m81.8 101.4 4.8 5.2.4.1h.1l17.7-5.9h.6a1.7 1.7 0 0 1 .5 3.3l-18.4 6a4 4 0 0 1-4.1-.7l-1.6-1.7v9.3q-.1 1.3-1.4 1.4-1.2-.1-1.3-1.4v-12.2z" style="fill:#616161"/><path d="M80.8 107.4c1.5 0 3-1.3 3-2.9v-1.1q-.5-1.6-1.4-2.6L74.2 93l-2.7 14.4z" style="fill:#c62828"/><path d="M69.7 110c2.3 0 2.8-1.4 3.2-4.4l2.1-15H38.1l2.2 15c.3 3 .8 4.3 3 4.3z" style="fill:#f44336"/><path d="m75 90.8-.3 1.4H38.4l-.3-1.6zm-18.4 4.7c8 0 14.4 5.6 14.4 12.5 0 1-.1 1-.4 2l-28-.1c-.3-1-.5-1-.5-2 0-6.8 6.5-12.4 14.5-12.4" style="fill:#c62828"/><path d="M56.6 124a12.8 12.8 0 1 0 0-25.7 12.8 12.8 0 0 0 0 25.7" style="fill:#78909c"/><path d="M56.6 117.1a6.2 6.2 0 1 0 0-12.4 6.2 6.2 0 0 0 0 12.4" style="fill:#afb8b6"/><path d="M56.6 105.2a5.7 5.7 0 1 0 0 11.4 5.7 5.7 0 0 0 0-11.4m0-1a6.7 6.7 0 1 1 0 13.4 6.7 6.7 0 0 1 0-13.4" style="fill:#2f3b4b"/><path d="M56.6 108.4a2.5 2.5 0 1 1 0 5 2.5 2.5 0 0 1 0-5" style="fill:#141111"/><path d="m36 38.8-1.2-5.6-3 .6 1.2 5.5z" style="fill:#757575"/><path d="M31.5 35h.4l3.8-.6q1.1-.2 1.8-1 .6-1 .5-2.1l-2-12a2.7 2.7 0 0 0-3-2.3l-3.8.6a2.7 2.7 0 0 0-2.3 3l2 12.1a3 3 0 0 0 2.6 2.3" style="fill:#424242"/><path d="M34 19.5c-.4-2.2-3.5-2.1-3.5-2.1L33 17h.4q2.3.2 2.7 2.3l1.9 12q.1 1-.5 2c-.3.4-2.9-11.6-3.4-13.8" style="fill:#616161"/><path d="M31.3 42.9q-.4-2.5.8-4 1.6-1.8 3.4-1.6 3 0 4.6 3.9c2.2 5.5 4.8 13.5 6.5 21.6 1.8-.1 7.7-.3 12.6-.3l6.2.2c2.4.2 4 .6 3.8 3.1-.2 2-.6 2.5-3.9 2.6l-17.6.9q.4 2.4.5 4.7c.3 4.9-1.8 7.6-4.4 9.1l31.1.2q1.4.1 1.5 1.4v4.6q.1.7-.4 1s-.6.5-1 .5L39 91q-1 0-1.8-.8-.6-.5-.7-2.9 0-3.3.2-3.3-.4-.5-.4-1c-1.3-9.7-4.4-32.8-5-40.1m28.3 43.9c.7-1 2.5-4 2.5-10.1 0-6.3-1.8-9.2-2.5-10.2l-4.5 2c.7 1 2 3.6 2 8.2s-2.1 8.8-3.6 10.7zm13.8-20.2v-.9q0-1.4-.7-2.6l-.3-.5q-.3-1.5 1-2.1a1.7 1.7 0 0 1 2 2.6q-.6 1-.6 2.2v1.3c0 .2-1.5.3-1.5 0m-4.5-2.2 1.7 1.7h7l6.5-3.4c.4-.2 1.5.4.5 1.2L77 69.3q-.7.5-1.6.5H73c-1.5 0-2.3-.8-3.2-2.2l-.9-1.4z" style="fill:#424242"/><path d="M46 62.8c.2 0 7.4-.3 13.2-.3q3.9 0 5.7.2h.5q2.5.1 3.4 1.3c-.4.8-1.3 1-3.5 1.2l-18 .8c-2.6 0-6 .2-5.7-1.3.1-1.4 2.8-2 4.5-2" style="fill:#757575"/><path d="M47.8 69.3h-3.4q-1.6 0-2.8-1.2-.2 1.5 1 2.5 1 1 2.5 1 1.5.3 3 .1" style="fill:#212121"/><path d="M74 60.7q-1.2.4-.6 1.3.6 1.1 1.6.8.7-.5.4-1.4-.6-.9-1.5-.7m3.1 6.6-5.9.2-.6-1.4h7l6.5-3.4-.2.4z" style="fill:#757575"/><path d="M56.6 72.4q-.5-2.3-1.2-3.5l5.3-.2q.4.8.7 2c-.8 0-2.5.1-4.8 1.7" style="fill:#212121"/><path d="M66.1 108c-.6-3-3-5.5-6-6.4" style="opacity:.8;stroke:#94d1e0;stroke-width:2;stroke-linecap:round;stroke-miterlimit:10"/><radialGradient id="c" cx="-934" cy="627.1" r="1" gradientTransform="matrix(-22.571 .63 .63 22.571 -21406.7 -13510.43)" gradientUnits="userSpaceOnUse"><stop offset=".5" style="stop-color:#e0bb95"/><stop offset="1" style="stop-color:#cca47a"/></radialGradient><path d="M44 50.4c-.1-.3 9-2.5 9-2.5l3.2 7.3 9 2 2.7.2c1 0 5.2-1 5.2-1q1-.3 2 .4l4.7 3.2c1.5 1 .5 2.8-1 2.3l-4-1.7-2.1.5s-1 1.6-3.5 1.8q-.9 0-1.8-.3H55c-5.3.2-6-1.3-7.1-3.3-.8-1.5-4.1-8.8-4-9" style="fill:url(#c)"/><path d="m41.5 45.5 3 9.2.8-.2 8.8-2.9.9-.3-3-9.2a5.5 5.5 0 1 0-10.5 3.4" style="fill:#008f76"/></svg>