<svg xml:space="preserve" width="16" height="16" viewBox="0 0 128 128"><path d="M64 4a60 60 0 1 0 0 120A60 60 0 0 0 64 4m50 60c0 11.5-4 22.7-11.3 31.6L32.4 25.3A50 50 0 0 1 114 64M14 64c0-11.5 4-22.7 11.3-31.6l70.3 70.3A50 50 0 0 1 14 64" style="fill:#c33"/><circle cx="60.1" cy="63.1" r="56.1" style="fill:#f44336"/><path d="M95.6 102.7a50 50 0 0 1-70.3-70.3l7.1-7.1a50 50 0 0 1 70.3 70.3" style="fill:#fff"/><path d="M95.6 102.7a50 50 0 0 1-70.3-70.3l7.1-7.1a50 50 0 0 1 70.3 70.3" style="fill:#231f20"/><path d="M96.4 103.2A47.9 47.9 0 0 1 29 35.8l6.8-6.8a47.9 47.9 0 0 1 67.4 67.4" style="fill:#414042"/><path d="M93 58.3q0 4.2-2.3 7.7a15 15 0 0 1-6.2 5.3 17 17 0 0 1 7.2 5.7q2.7 3.9 2.7 8.5c.2 4.6-1.7 9-5.1 12q-5.1 4.5-13.4 4.5c-8.3 0-10.1-1.5-13.4-4.5s-5.3-7.4-5.1-12q0-4.6 2.6-8.5a17 17 0 0 1 7.1-5.8 15 15 0 0 1-6.1-5.3q-2.3-3.5-2.2-7.7 0-7.3 4.7-11.7t12.4-4.3c7.7 0 9.2 1.4 12.4 4.3 3.2 3 4.9 7.4 4.7 11.8m-6.1 27.1q.1-4.7-3.1-8-3.5-3.1-8.1-3.1a10.3 10.3 0 0 0-11 11q0 4.5 2.9 7.8 2.9 2.8 8.2 2.8c5.3 0 6.2-.9 8.1-2.9q3-2.6 3-7.6m-11.1-37a9.2 9.2 0 0 0-9.7 10q0 4.2 2.7 7.2a10 10 0 0 0 7.1 2.7q4 .1 7.1-2.7 2.8-3 2.7-7.2.1-4.2-2.8-7.2a10 10 0 0 0-7.1-2.8M49.1 43l-14.3 5.4q-1 .4-1.1 1.6v3.2a1.7 1.7 0 0 0 2.3 1.6l4.9-1.8a1.7 1.7 0 0 1 2.3 1.6v45.1q.2 1.6 1.7 1.7H49q1.6-.2 1.7-1.7V44.1q0-1.1-1.2-1.2h-.2zm35.5-8.3h-1.1q-.7 0-.7.7v3q0 .7-.7.7h-.5a1 1 0 0 1-.7-.7V28.3q0-.6.7-.7h3.3q1.7 0 3.1.9 1 1 1.1 2.6 0 1-.6 2-.4.6-1 .9a1 1 0 0 0-.3 1l2.3 4.2v.1h-1.7l-.7-.4-1.9-3.7q-.1-.5-.6-.5m-1.8-2.4q0 .7.7.7h1.3q.9 0 1.6-.5.6-.5.6-1.4t-.5-1.4q-.7-.5-1.6-.5h-1.4q-.7 0-.7.7zM77.3 34h-3.9q-.4 0-.4.4v2.7q0 .4.4.4H78q.4 0 .4.4v.8q0 .4-.4.4h-6.6a.4.4 0 0 1-.4-.4V28.1q0-.4.4-.4H78q.4 0 .4.4v.8q0 .4-.4.4h-4.6q-.3 0-.4.4V32q0 .3.4.4h3.9q.4 0 .4.4v.8q0 .3-.3.4zm-16.8 4.7V28.1q0-.4.4-.4h2.9q1.5 0 2.7.7t1.8 1.9q.6 1.3.6 2.8v.6q0 1.5-.6 2.8t-1.8 1.9a6 6 0 0 1-2.7.7h-2.9a.4.4 0 0 1-.4-.4m2-9v7.4q0 .4.4.4h.9a3 3 0 0 0 2.4-1 4 4 0 0 0 .8-2.8v-.6q0-1.5-.8-2.8a3 3 0 0 0-2.3-1h-1q-.3 0-.4.4m-16-2q.4 0 .4.4v7.2q0 1.8-1.2 2.9-1.4 1-3.1 1.1-1.7 0-3.1-1a4 4 0 0 1-1.1-2.9v-7.2q0-.3.4-.4H40q.3 0 .4.4v7.2q0 1 .6 1.7t1.7.6a2 2 0 0 0 2.3-2.4v-7.1q0-.4.4-.4zm11 11.4h-1.3l-.3-.2-4.2-6.7c-.2-.3-.8-.2-.8.2v6.2q0 .4-.4.4h-1.2a.4.4 0 0 1-.4-.4V28.1q0-.4.4-.4h1.3l.3.2 4.2 6.7c.2.3.8.2.8-.2v-6.3q0-.4.4-.4h1.1q.4 0 .4.4v10.5q0 .3-.2.5z" style="fill:#fafafa"/><path d="M23.4 35.6 95 102.1l2-1.9-66.4-66.8" style="opacity:.8;fill:#231f20"/><path d="M103.9 96.8 25.3 18.9 18.2 26l78.6 77.9" style="fill:#f44336"/><path d="M45 10.9c1.7-.4 4.2-1.6 5.9-1.1 1 .3 1.8 1.4 1.5 2.5q-.6 1.3-2 1.5-5.9 1.5-11.3 4.1A52 52 0 0 0 21 33.7c-1.9 2.7-3.4 5.5-5.8 7.8q-.3.3-.8.4l-.5-.1q-1.6-.6-1.2-2.3.3-1.5 1-2.9 1.5-2.7 3.3-5.1a46 46 0 0 1 6.6-8A57 57 0 0 1 45 10.9" style="fill:#ff8a80"/><path d="m32.4 25.3-2 2 71.1 71.1 1.8-2.2z" style="fill:#c33"/></svg>