<svg xmlns:xlink="http://www.w3.org/1999/xlink" xml:space="preserve" width="16" height="16" viewBox="0 0 128 128"><linearGradient id="a" x1="53" x2="53" y1="34.7" y2="-4.3" gradientTransform="matrix(1 0 0 -1 0 130)" gradientUnits="userSpaceOnUse"><stop offset=".2" style="stop-color:#606060"/><stop offset=".3" style="stop-color:#606060"/><stop offset=".4" style="stop-color:#595959"/><stop offset=".7" style="stop-color:#464646"/><stop offset="1" style="stop-color:#262626"/><stop offset="1" style="stop-color:#212121"/></linearGradient><path d="M50.1 95.4H50c-18.1 0-36.8 3.7-46 12.2v16.3h98v-3.4c0-16.8-26.3-25.1-51.9-25.1" style="fill:url(#a)"/><path d="m87.8 40.4 1 12.2.2 2.2.5 8 .2 5.4v17.7l-.1 3L89 96v4.7l-.1.3v.2l-77.7-1.3a116 116 0 0 1-.8-12.5v-1.5l-.1-1.9-.1-7v-5.7l.1-2.9v-.2l.7-13.4.2-2.2v-1.7l.2-1.2.8-9.3c0-.1.2-2 .9-4.8l30.4-28q3-.4 6.3-.4l36.9 26.7c1 3.7 1 6.3 1.1 6.5" style="fill:#ab872f"/><radialGradient id="b" cx="50.4" cy="64.3" r="42.4" gradientTransform="matrix(1 0 0 -1.19 0 142.07)" gradientUnits="userSpaceOnUse"><stop offset=".8" style="stop-color:#bfa055;stop-opacity:0"/><stop offset="1" style="stop-color:#bfa055"/></radialGradient><path d="m87.8 40.4 1 12.2.2 2.2.5 8 .2 5.4v17.7l-.1 3-.7 11.8v.5l-77.7-1.3a116 116 0 0 1-.8-12.5v-1.5l-.1-1.9-.1-7v-5.7l.1-2.9v-.2l.7-13.4.2-2.2v-1.7l.2-1.2.8-9.3c0-.1.2-2 .9-4.8l30.4-28q3-.4 6.3-.4l36.9 26.7c1 3.7 1 6.3 1.1 6.5" style="fill:url(#b)"/><path d="M33.5 96.3c4 .9 7.4 22.1 12.3 27.6h6c8.3-5.6 16.8-27.6 21.4-29.6Q78.8 92 79 89c0-5-13-9-28.9-9s-29 4-29 9c0 3 5 5.7 12.4 7.3" style="fill:#404042"/><path d="M49 110.5a8 8 0 0 1-8-8v-10h18v10a8 8 0 0 1-8 8z" style="fill:#c48e6a"/><path d="M50 95.7q-3.5 0-7.7-1.5a40 40 0 0 1-25.3-39c0-29.4 17.8-40 33-40s33 10.6 33 40a40 40 0 0 1-25.2 39 24 24 0 0 1-7.8 1.5" style="fill:#e0bb95"/><ellipse cx="34.2" cy="58.7" rx="4.9" ry="5.1" style="fill:#5d4037"/><ellipse cx="65.8" cy="60" rx="6" ry="6.2" style="fill:#5d4037"/><path d="m53.9 67.9-.3-.1h-7.1l-.3.1q-1 .5-.7 1.6c.3 1.1 1.7 2.7 4.5 2.7s4.2-2 4.5-2.7q.4-1.1-.6-1.6" style="fill:#c48e6a"/><path d="M58.5 76a26 26 0 0 1-16.8 0c-1.8-1.1-3.7.6-2.9 2.2s6.5 5.4 11.4 5.4 10.5-3.8 11.3-5.4c.7-1.6-1.1-3.3-3-2.2" style="fill:#6d4c41"/><path d="M41.4 50.8c-.9-1.2-3-3-7.2-3s-6.3 1.8-7.2 3q-.5 1 0 1.6c.2.3 1 .7 1.9.4s2.5-1.2 5.3-1.2 4.5.9 5.4 1.2 1.6 0 1.9-.4q.4-.6 0-1.6m34-.2C74.4 49 71.8 47 66.8 47s-7.5 2.1-8.7 3.6q-.6 1 0 1.9t2.3.4c1.7-.4 3-1.4 6.4-1.4s5.4 1 6.4 1.4 2 0 2.3-.4q.6-.8 0-2m12.3-10.1c.7 7.4 1.4 16.2 1.8 25.3v.2h-7.7c-.3-4-2.5-20.6-5.6-22.7-3.6-2.6-13.6-9-16.8-15.5 0 0-11.6 10.7-32.8 15.5-5.9 1.3-9.3 19.6-9.5 22.7h-6.8c.4-9.2 1-18 1.8-25.5q-.1-.5 1-5L47 7.2a55 55 0 0 1 7 0l32.6 26.5c1 3.8 1.2 6.4 1.2 6.6" style="fill:#ab872f"/><radialGradient id="c" cx="50.3" cy="67.8" r="41.3" gradientTransform="matrix(1 0 0 -1.214 0 144.3)" gradientUnits="userSpaceOnUse"><stop offset=".8" style="stop-color:#bfa055;stop-opacity:0"/><stop offset="1" style="stop-color:#bfa055"/></radialGradient><path d="M87.8 40.4c.7 7.4 1.4 16.2 1.8 25.3v.2h-7.7c-.3-4-2.5-20.6-5.6-22.7-3.6-2.6-13.6-9-16.8-15.5 0 0-11.6 10.7-32.8 15.5-5.9 1.3-9.3 19.6-9.5 22.7h-6.8c.4-9.2 1-18 1.8-25.5q-.1-.5 1-5L47 7.2a55 55 0 0 1 7 0l32.6 26.5c1 3.8 1.2 6.4 1.2 6.6" style="fill:url(#c)"/><path d="m58.4 124 2.2-19H39.4l2.5 19z" style="fill:#bdbdbd"/><defs><path id="d" d="M4 4h120v120H4z"/></defs><clipPath id="e"><use xlink:href="#d" style="overflow:visible"/></clipPath><g style="clip-path:url(#e)"><path d="m116.9 124-2.1-11.6-9.9-2.5a5.6 5.6 0 0 0-7 4.7l-2.3 9.4z" style="fill:#616161"/></g><defs><path id="f" d="M4 4h120v120H4z"/></defs><clipPath id="g"><use xlink:href="#f" style="overflow:visible"/></clipPath><ellipse cx="106.5" cy="114.4" rx="8.7" ry="8" style="clip-path:url(#g);fill:#404042"/><defs><path id="h" d="M4 4h120v120H4z"/></defs><clipPath id="i"><use xlink:href="#h" style="overflow:visible"/></clipPath><g style="clip-path:url(#i)"><path d="m24.6 97.5-.4-.2C23.8 97 12 96.1 5.4 104q-1.3 1.6-.2 3.3l3.1 3.7q1.2 1.5 2.7 1.6.5 0 1-.4c8.2-5.8 12.8-6 15.3-5.2l2.3.7z" style="fill:gray"/><circle cx="11.3" cy="105.5" r="2.7" style="fill:#757575;stroke:#9e9e9e;stroke-miterlimit:10"/><circle cx="12.2" cy="105.6" r=".6" style="fill:#424242"/><circle cx="10.4" cy="105.3" r=".6" style="fill:#424242"/></g><defs><path id="j" d="M4 4h120v120H4z"/></defs><clipPath id="k"><use xlink:href="#j" style="overflow:visible"/></clipPath><g style="clip-path:url(#k)"><path d="M92.7 103.9C86 96 74.4 97 73.9 97.3l-.4.2-5 10 2.3-.6c2.5-.8 7.2-.6 15.3 5.2q.4.4 1 .4c1 0 2-.8 2.7-1.5l3.1-3.8q1-1.6-.2-3.3" style="fill:gray"/><circle cx="86.7" cy="105.5" r="2.7" style="fill:#757575;stroke:#9e9e9e;stroke-miterlimit:10"/><circle cx="85.8" cy="105.6" r=".6" style="fill:#424242"/><circle cx="87.7" cy="105.3" r=".6" style="fill:#424242"/></g><defs><path id="l" d="M4 4h120v120H4z"/></defs><clipPath id="m"><use xlink:href="#l" style="overflow:visible"/></clipPath><g style="clip-path:url(#m)"><linearGradient id="n" x1="34" x2="34" y1="-1252.8" y2="-1294.2" gradientTransform="matrix(1 0 0 -1 0 -1158)" gradientUnits="userSpaceOnUse"><stop offset=".1" style="stop-color:#757575"/><stop offset=".3" style="stop-color:#707070"/><stop offset=".5" style="stop-color:#626262"/><stop offset=".7" style="stop-color:#4b4b4b"/><stop offset=".9" style="stop-color:#2b2b2b"/><stop offset="1" style="stop-color:#212121"/></linearGradient><path d="m46.6 124-3.2-27.5q-.4-1.3-1.5-1.4l-2.3.1c-7.8 0-14.8-3.2-18.3-5.2l11.4 34z" style="fill:url(#n)"/><linearGradient id="o" x1="66" x2="66" y1="-1252.8" y2="-1294.2" gradientTransform="matrix(1 0 0 -1 0 -1158)" gradientUnits="userSpaceOnUse"><stop offset=".1" style="stop-color:#757575"/><stop offset=".3" style="stop-color:#707070"/><stop offset=".5" style="stop-color:#626262"/><stop offset=".7" style="stop-color:#4b4b4b"/><stop offset=".9" style="stop-color:#2b2b2b"/><stop offset="1" style="stop-color:#212121"/></linearGradient><path d="m67.4 124 11.4-34c-3.5 2-10.6 5.2-18 5.2q-1.4 0-2.6-.2h-.1q-1 .1-1.4 1.4L53.3 124z" style="fill:url(#o)"/></g><radialGradient id="p" cx="117.2" cy="-1548.3" r="61.7" gradientTransform="matrix(.918 0 0 -.782 -57.67 -1176.21)" gradientUnits="userSpaceOnUse"><stop offset="0" style="stop-color:#757575"/><stop offset=".3" style="stop-color:#686868"/><stop offset=".9" style="stop-color:#464646"/><stop offset="1" style="stop-color:#424242"/></radialGradient><path d="M83.5 26.8c-4.5-1.2-10.9-2.1-17-2.7-5.1-.6-10.7.5-16.5.5s-11.4-1-16.5-.5c-6.1.5-13.7 2.7-18.2 3.8-7.8 2-11.3 4-11.3 7S8.1 39 16 41c4.5 1.1 8 3.7 15.9 4.7 5.1.6 13.6-1.3 19.3-1.3s13.4 1.9 18.5 1.4c6.1-.6 9.7-3 14.2-4.2 7.9-2 12-4 12-7s-4.5-6-12.4-8" style="fill:url(#p)"/><radialGradient id="q" cx="140.3" cy="998.9" r="33.4" gradientTransform="matrix(0 .933 1.413 0 -1362.23 -123.91)" gradientUnits="userSpaceOnUse"><stop offset="0" style="stop-color:#757575"/><stop offset=".3" style="stop-color:#686868"/><stop offset=".9" style="stop-color:#464646"/><stop offset="1" style="stop-color:#424242"/></radialGradient><path d="M64.6 4.4c-2.8-.7-7.4-.4-10.2 0-7.1 1.3-6.1.6-12.8 0-2.7-.4-6.3-.6-8.9.3-10 3-11.2 11.9-17.5 25.4.1 12.4 70 12.2 69.9 0C79 17.2 75 7.2 64.6 4.4" style="fill:url(#q)"/><path d="M38.8 10.4q5 3.5 11 2.9 5.3-.9 10.1-3.4c.5-.3 1.1.3.9 1a15 15 0 0 1-11.4 6.4c-5.5 0-9.2-2.4-11.1-5.8-.4-.5-.2-1.7.5-1.2" style="opacity:.2;fill:#eee"/><path d="M82.1 23.4c-11.6 6.9-52.3 6.9-63.8 0l-3 6.7c.1 12.3 70 12.2 69.9 0z" style="fill:#404042"/><g style="opacity:.6"><radialGradient id="r" cx="191.3" cy="-1029.2" r="41.9" gradientTransform="rotate(6.4 9004.37 -634.41)scale(1 -1)" gradientUnits="userSpaceOnUse"><stop offset="0" style="stop-color:#fafafa"/><stop offset="1" style="stop-color:#eee"/></radialGradient><path d="M90.2 43.4a21.6 21.6 0 0 1-3.3 30.1A21.3 21.3 0 1 1 60.3 40a21 21 0 0 1 29.9 3.4" style="fill:url(#r)"/></g><path d="m101.2 85.8-5.7 4.5-12.7-15.8 5.7-4.5z" style="fill:#c7c7c7"/><radialGradient id="s" cx="42.5" cy="-1219.8" r="49" gradientTransform="rotate(178.7 7.46 -593.07)scale(-1 1)" gradientUnits="userSpaceOnUse"><stop offset="0" style="stop-color:#e0e0e0"/><stop offset=".2" style="stop-color:#dbdbdb"/><stop offset=".5" style="stop-color:#cdcdcd"/><stop offset=".8" style="stop-color:#b5b5b5"/><stop offset="1" style="stop-color:#9e9e9e"/></radialGradient><path d="M92.5 41.3C84.1 30.7 68.8 29 58.3 37.5s-12.2 23.9-3.8 34.4 23.7 12.3 34.2 3.8 12.2-23.9 3.8-34.4m-7.4 29.9c-8 6.4-19.7 5.2-26.2-3s-5-19.8 3-26.4 19.7-5.2 26.2 3 5 20-3 26.4" style="fill:url(#s)"/><radialGradient id="t" cx="93.2" cy="48.4" r="13.6" gradientTransform="matrix(1 0 0 -1 0 130)" gradientUnits="userSpaceOnUse"><stop offset="0" style="stop-color:#ffa726"/><stop offset="0" style="stop-color:#ffa623"/><stop offset=".5" style="stop-color:#ff9800"/><stop offset="1" style="stop-color:#fb8c00"/></radialGradient><path d="m113.1 100.6-.4-.5c-.4-3.4-2.4-7.9-5.8-12.2-3-3.8-6.4-6.6-9.4-7.9q-1.2-.6-2.1-1.7l-.8-1-6.2 5 .8 1q.9 1 1.2 2.4C91 89 93 93 96 96.7c3.4 4.3 7.3 7.3 10.5 8.4l.4.5q.6.8 1.7.8.7 0 1.3-.5l.9-.7.6-.4.5-.5.9-.7a2 2 0 0 0 .3-3" style="fill:url(#t)"/><path d="M96.6 80.4 90.8 85q-1.2.7-2.1-.2l-.4-.6q-.7-1.2.2-2.1l5.8-4.7q1.2-.7 2.1.2l.4.6q.9 1.2-.2 2.2" style="fill:#ababab"/><radialGradient id="u" cx="-14.4" cy="165.9" r="21.7" gradientTransform="rotate(50.6 121.78 236.91)scale(-1 1.057)" gradientUnits="userSpaceOnUse"><stop offset=".3" style="stop-color:#e0bb95"/><stop offset="1" style="stop-color:#cca47a"/></radialGradient><path d="M101.5 97.6q-1.2 1.3-2 2.9c-.9 1.5-8.2 4.3-4.2 10.3 1.2 1.6 4.9 6.7 8 8 6.8 3 16.3-6.3 17.2-6.7 5.6-3.1-9-17.5-13.4-17.3l-2 .3c-1.4.2-2.7 1.6-3.6 2.5" style="fill:url(#u)"/><radialGradient id="v" cx="75.2" cy="-22.3" r="15.9" gradientTransform="rotate(-58 162.26 20.05)scale(1 -1)" gradientUnits="userSpaceOnUse"><stop offset="0" style="stop-color:#cca47a"/><stop offset="1" style="stop-color:#e0bb95"/></radialGradient><path d="m119.9 107-5.7 4.3c-.8.5-1 1.5-.6 2.2.4.9 1.5 1.1 2.4.7l6.2-3.4c1-.6 1.4-1.8.8-2.7l-.3-.5a2 2 0 0 0-2.8-.5" style="fill:url(#v)"/><radialGradient id="w" cx="94.6" cy="-25" r="15.9" gradientTransform="matrix(.908 -.483 -.467 -.885 12.28 114.83)" gradientUnits="userSpaceOnUse"><stop offset="0" style="stop-color:#cca47a"/><stop offset="1" style="stop-color:#e0bb95"/></radialGradient><path d="M98.4 114.6s1.7 0 4-.7c6.9-2 2.6-9 2-10-3.4-5.7 2-8 5.7-11.2.8-.7 3.2-3.2 2.5-5.6-1.5-3.6-4.5-1.2-11.4 3.4a33 33 0 0 0-5.1 4.2c-7.5 7.6-1 16.3 2.3 20" style="fill:url(#w)"/><radialGradient id="x" cx="89.4" cy="-31.5" r="18.1" gradientTransform="rotate(138.8 -7.17 70.8)scale(-1 1)" gradientUnits="userSpaceOnUse"><stop offset="0" style="stop-color:#cca47a"/><stop offset="1" style="stop-color:#e0bb95"/></radialGradient><path d="m114.6 96.6-7.5 6.9c-1 .9-.4 1.7.3 2.8.8 1.1 1.6 2 2.9 1.2l8.4-5.9c1.4-1 1.8-2.9.8-4.2l-.6-.6c-1-1.3-3-1.4-4.3-.2" style="fill:url(#x)"/><radialGradient id="y" cx="97" cy="-34.3" r="17.3" gradientTransform="rotate(-33 210.7 22.44)scale(1 -1)" gradientUnits="userSpaceOnUse"><stop offset="0" style="stop-color:#cca47a"/><stop offset="1" style="stop-color:#e0bb95"/></radialGradient><path d="m110.9 91.9-6.2 6.3c-1 .9-1 2.3-.3 3.3.8 1 2.4 1.2 3.5.4l7.1-5.3c1.3-1 1.6-3 .5-4.1l-.5-.6c-1-1.2-3-1.2-4.1 0" style="fill:url(#y)"/><radialGradient id="z" cx="81" cy="-26.3" r="17.3" gradientTransform="rotate(-50.4 172.2 18.62)scale(1 -1)" gradientUnits="userSpaceOnUse"><stop offset="0" style="stop-color:#cca47a"/><stop offset="1" style="stop-color:#e0bb95"/></radialGradient><path d="m117.7 102-6.2 5.3q-1.4 1.3-.5 3c.6 1 2 1.3 3.2.6l6.8-4.3c1.3-.8 1.7-2.5.9-3.7l-.5-.6a2.6 2.6 0 0 0-3.7-.3" style="fill:url(#z)"/><path d="M118.9 101.5c-.6-1-7.2 5.5-8.6 5.5-1.7-.1-2.9-1.9-2-3.4.9-1.7 7.5-7.2 7.2-7.6-.5-.7-7.8 8.3-10.4 5.1-1.5-2 .6-3.6 1.8-4.9.7-.8 4.2-3.9 4-4.2-.2-.2-1 .6-1.1.6-.8.5-4.8 4.1-5.8 5.3-1.5 1.9-1.2 3.3-.6 4.2s1.5 2.5 1.9 3.6c.8 2.5-.2 6.2 0 6.5 0 .3 1-1.7 1.2-3.5.1-1 1.2-1.4 2-.7l1.1 1c.4.5 2.4 3.1 3 4.2q.3.6.8 1l1 .5c1.6.4 3.1-.6 4.4-1.5.7-.5 3.8-2.4 4.2-3.3-1.6 1.2-7 5.7-8.5 3.3-.8-1.3.6-1.8 1.4-2.4 1-.6 2.8-2 3.7-2.7.2-.3 1.6-1.3 1.5-1.5-.3-.3-3.2 1.9-3.5 2.1-1.2.9-3.5 3-5 2q-1-.6-1-1.8c0-1.6 7.6-6.9 7.3-7.4" style="fill:#ba8f63"/></svg>