<svg xml:space="preserve" width="16" height="16" viewBox="0 0 128 128"><path d="M31.1 89.6H7.7q-1.3 0-1.7-1.3a93 93 0 0 1-2-22.8 66 66 0 0 1 1.8-19.7q.5-1 1.7-1.1h23.6z" style="fill:#37474f"/><path d="m66 42 34.4-25.8 9.7 12.2-18.3 13.8z" style="fill:#455a64"/><path d="M99.8 39.3c0-1.8 2.2-3.3 5-3.3s5 1.5 5 3.3-10 1.8-10 0m-14.6 0c0-1.8 2.2-3.3 5-3.3s5 1.5 5 3.3-10 1.8-10 0" style="fill:#82aec0"/><path d="M113.8 117.3H32.6c-4.6 0-7.2-3.5-8.2-8 0 0-2.3-8.9-2.3-30.2s2.3-31.9 2.3-31.9c.4-3.9 3.6-8 8.2-8h81.2c4.6 0 7.7 2.8 8.2 8 0 0 2 11.2 2 31.2s-2 30.9-2 30.9a8 8 0 0 1-8.2 8" style="fill:#546e7a"/><path d="M97.9 18s2.7 1.4 5.4 5.4a53 53 0 0 1 4.3 7l6.5-1.6q1.5-.9 1-3c-.5-1.7-1.3-5-3.8-8.4-3.6-5-7.4-6.6-8.9-6.7q-1.2 0-1.7 1.2z" style="fill:#37474f"/><path d="M109.7 103.6H44.2c-2.5 0-4.6-2-4.6-4.6v-9h-5v-5.5h6.6a4 4 0 0 1 3.1 1.5q.8 1.1.8 2.5V98h62l3.6 5.1q-.4.4-1 .4" style="fill:#263238"/><path d="M35.2 70h7.6" style="fill:none;stroke:#82aec0;stroke-width:5.2763;stroke-miterlimit:10"/><path d="M107 98s.8-7 .8-19.8c0-9.6-1.4-16-2.1-18.5q-.5-1.2-1.7-1.3H45.9c-1.5 0-5-5.5-3.5-5.5h64.8q2.4.2 3.1 2.3a84 84 0 0 1 3 23 120 120 0 0 1-2.1 24.3q0 .5-.7.8z" style="fill:#82aec0"/><circle cx="34.2" cy="49.4" r="3.2" style="fill:#f44336"/><path d="M7.7 47.7A37 37 0 0 0 6 61.9q.1 1.1 1.4 1.3h10.8q1.3-.1 1.4-1.3c0-4.4.4-9.2 1.5-13.5q.1-1.5-1.4-1.7H9q-1 0-1.3 1" style="opacity:.49;fill:#82aec0"/><path d="M12.4 89.6a144 144 0 0 1 .7-45h-2a147 147 0 0 0-.7 45z" style="fill:#82aec0"/><path d="M10.7 46.7c-.8 5.2-1.4 11-1.6 16.5h2c.2-5.5.8-11.3 1.6-16.5z" style="fill:#b9e4ea"/></svg>