<svg xml:space="preserve" width="16" height="16" viewBox="0 0 128 128"><radialGradient id="a" cx="63.6" cy="2880.9" r="57" gradientTransform="translate(0 -2818)" gradientUnits="userSpaceOnUse"><stop offset=".5" style="stop-color:#fde030"/><stop offset=".9" style="stop-color:#f7c02b"/><stop offset="1" style="stop-color:#f4a223"/></radialGradient><path d="M63.6 118.8c-27.9 0-58-17.5-58-55.9S35.7 7 63.6 7c15.5 0 29.8 5.1 40.4 14.4 11.5 10.2 17.6 24.6 17.6 41.5s-6.1 31.2-17.6 41.4a61 61 0 0 1-40.4 14.5" style="fill:url(#a)"/><path d="M111.5 29.7a57 57 0 0 1 8.1 30.2c0 16.9-6.1 31.2-17.6 41.4a61 61 0 0 1-40.4 14.5 59 59 0 0 1-48.2-23 58 58 0 0 0 50.2 26c15.4 0 29.8-5.2 40.4-14.5a54 54 0 0 0 17.6-41.4q-.1-19.2-10.1-33.2" style="fill:#eb8f00"/><path d="M64 97.3a32 32 0 0 1-25.5-12.1 5 5 0 0 1-.6-4.9 3 3 0 0 1 2.8-1.6l1.2.2C48.6 81 54.4 84 64 84s15.4-3 22.1-5.1l1.3-.2a3 3 0 0 1 2.7 1.6c.8 1.6.5 3.5-.5 4.9A32 32 0 0 1 64 97.3" style="fill:#422b0d"/><linearGradient id="b" x1="69.7" x2="69.7" y1="5.8" y2="39.8" gradientTransform="matrix(1 0 0 -1 0 130)" gradientUnits="userSpaceOnUse"><stop offset=".5" style="stop-color:#29b6f6"/><stop offset="1" style="stop-color:#1e88e5"/></linearGradient><path d="M82.3 110.1c-1-4.6-2.5-9-2.2-12 .8-5.7 4.2-7.7 4.2-7.7a8 8 0 0 0-5.2.6c-3.3 1.5-2 2.3-7 3.3-4.2 1-6.7-1.3-11.5-.4-4.3.7-5.4 2.2-5.4 2.2q3.6 1 7.3 1.5c8 1 7 8 6.4 11-1.1 5.8-2.6 16 6.9 15.6 7-.3 8-7.5 6.5-14.1" style="fill:url(#b)"/><path d="M30 58.5a3.4 3.4 0 0 1 .4-5.4q4.5-3.2 9.7-4.8 5.3-1.2 10.8-.8A3.4 3.4 0 0 1 54 52a4 4 0 0 1-4 2.7q-4.1-.4-8 .5-3.9 1.2-7.2 3.6a4 4 0 0 1-4.9-.2m68.1-.1a3.4 3.4 0 0 0-.4-5.4Q93 50 87.9 48.3q-5.3-1.2-10.8-.8A3.4 3.4 0 0 0 74 52a4 4 0 0 0 4 2.7q4-.4 8 .5 3.9 1.2 7.2 3.6a4 4 0 0 0 4.9-.2" style="fill:#422b0d"/><path d="M79.9 118.6c-1 1.7-3.5 1.4-3.5-1.4 0-1.8.3-10.8 1.8-9.5 2.5 2 3.2 8.6 1.7 11" style="fill:#81d4fa"/><path d="M30.3 40.6c-1.3 1.8-4.2.4-3.3-1.8a21 21 0 0 1 17-11.7 1.8 1.8 0 0 1 .5 3.6 26 26 0 0 0-14.2 9.9m66.9-7.2c1.4 1.7 4.2.3 3.1-1.9a21 21 0 0 0-17.6-10.7 1.8 1.8 0 0 0-.3 3.6h.1a26 26 0 0 1 14.7 9" style="fill:#422b0d"/></svg>