<svg xml:space="preserve" width="16" height="16" viewBox="0 0 128 128"><path d="M116 4H12a8 8 0 0 0-8 8v104a8 8 0 0 0 8 8h104a8 8 0 0 0 8-8V12a8 8 0 0 0-8-8" style="fill:#bdbdbd"/><path d="M109.7 4H11.5A7.6 7.6 0 0 0 4 11.5v97.9c0 4.1 3.3 7.5 7.5 7.5h98.1c4.1 0 7.5-3.3 7.5-7.5V11.5c0-4-3.1-7.4-7.2-7.5z" style="fill:#e0e0e0"/><path d="M39.7 12.9c0-2.3-1.6-3-10.8-2.7-7.7.3-11.5 1.2-13.8 4-1.9 2.3-2.3 5.6-2.6 8.4-.2 2.2-2.2 14.9 3.5 11.2q1-.6 1.6-1.8c1.2-2.1 1.9-3.5 3.3-5.6 5.3-8.6 18.8-10.5 18.8-13.5" style="fill:#fff"/><circle cx="63.4" cy="37.9" r="15.2"/><path d="M47.7 71.4c3.8 1.2 5.7.3 9.8.3 3.9 0 6.4 2.7 6.4 2.7s2.5-2.7 6.4-2.7 6 1 9.8-.4c1.8-.6 4-1.4 5.2-2.5-.3-8.3-6.9-12-18.8-12h-7.7c-9.4 0-15.8 3.7-17 11 .6 1.7 3.7 2.8 6 3.5m-19.5 39.5c-1 0-1.8-1-1.5-1.9 1.4-5 7-9 13.7-9s12.3 4 13.6 9c.3 1-.5 2-1.5 2zm33.4-23.3c1.7-5.6 1-10-3.5-11.5-3.7-1.2-7 1.4-7.6 2.2a12.2 12.2 0 0 0-20.4 0c-.6-.7-3.8-3.4-7.6-2.2-4.5 1.4-5.2 5.9-3.4 11.5q.7 2.3-.3 5-.2.9.7 1c6.2-1.8 6.3-7.6 6.5-10 .2-2.6 1.7-2.7 2.7-2.5q-.9 2.6-.6 5.5c.8 6 6 10.7 12.1 10.8A12.3 12.3 0 0 0 52 81c1-.2 2.4-.2 2.8 2.6.3 2.2.2 7.7 5.9 9.7a1 1 0 0 0 1.1-1.1 7 7 0 0 1-.1-4.7m37.8 23.3c1 0 1.8-1 1.5-1.9-1.4-5-7-9-13.7-9s-12.3 4-13.6 9c-.3 1 .5 2 1.5 2zM66.1 87.5c-1.7-5.6-1-10 3.5-11.5 3.7-1.2 7 1.4 7.6 2.2a12.2 12.2 0 0 1 20.4 0c.6-.7 3.8-3.4 7.6-2.2 4.5 1.4 5.2 5.9 3.4 11.5q-.7 2.3.3 5 .2.9-.7 1c-6.2-1.8-6.3-7.6-6.5-10-.2-2.6-1.7-2.7-2.7-2.5q.9 2.6.6 5.5c-.8 6-6 10.7-12.1 10.8A12.3 12.3 0 0 1 75.8 81c-1-.2-2.4-.2-2.8 2.6-.3 2.2-.3 7.7-6 9.7a1 1 0 0 1-1-1.1 7 7 0 0 0 .1-4.7M69.7 98c-.8-1-2.9-1.5-4.4-.2-.6.4-1.4 1.4-1.4 1.4l-1.3-1.4c-1.6-1.3-3.7-.8-4.5.1q-2 2.3.5 5.6C61 106.3 64 109 64 109s3-2.7 5.2-5.5q2.6-3.1.6-5.6"/></svg>