<svg xml:space="preserve" width="16" height="16" viewBox="0 0 128 128"><path d="M116.8 8.8c.5-.6 1.5-1.8 3.6-1.3s4 2.7 3.6 6.8c-.3 5.4-5 9.3-5 9.3s1.7 0 2.6.7 1.9 3.3 1 6.9c-1 3.5-4.5 7.8-4.5 7.8s2.6-.3 4 1.7 0 7.9-4 12.1c-6 6.8-16.2 11-16.2 11s1.4.2 2.3 1.5c1 1.5-.3 6.7-5.6 10.8-4.4 3.3-8.7 5-8.7 5s1.7.2 2 1.2c.8 2-1 6-3.7 8.5-3.4 3-6 3.8-6 3.8s.8 3.2-1.1 6.6c-3 5-9.4 6-9.4 6s.6 3.7-3.5 6.6c-3 2.2-6.2 3.3-13 3-4.7 0-7.3-1.3-12.9-1.3-5.6.1-13.6 5.3-21 5q-8.2-.4-10.7-7.3c-2.5-6.3.5-6 .5-6s4.9-28 24.2-39.6S103 22 105.9 19.9s9.2-9 10.9-11.1" style="fill:#92989b"/><path d="M88 30.3S92.4 28 98.7 24s10.4-7.8 14-11c2.2-2.1 4.4-4.6 4.4-4.6s1.9-.1 3 1.2 2.8 5.7-4.1 13.1c-8.7 9.3-26.3 18.5-27 19-1.3 1-.6 2.7.9 2 1.4-.6 12-4.7 17.8-9.1s10-9 10-9 2.5.7 2.1 4-3.5 7-7.3 10.3c-5.4 4.6-18 12.2-23.4 14.7-1 .4-2.3 1-1.9 2 .9 1.7 2.3.5 7-2C99 52.4 115.7 42 116.7 42s2.4 1.3 2.2 3.5c-.4 3-3.9 7-11.6 11.7-9.9 6.1-14.1 8.3-19.5 10.7q-5.8 2.3-7 2.6c-1.2.6-1.3 2 .4 2 .6 0 5.7-1.6 8.5-2.6 4.4-1.5 8-3.7 8.9-4 1-.5 1.7 1 1.7 2.1 0 2.1-1.5 5-8 8.8q-7.2 4.5-18.5 6.2c-1.9.3-1.5 1.7-.6 1.7s4.6 1.6 6.7 1.4 6.3-3.5 7-3.4 1.4 2.5-.4 4.7-5 5.2-11.6 6.4q-7.8 1.2-8.7 1c-1.2 0-1.3 1.3 0 1.6 1.6.4 12.6-.2 12.7.4 0 .4-.3 3.8-3.7 6-3.7 2.2-10.1 2.4-11.9 2.5h-3.7c-1.2.1-1.2 1.6-.1 1.8l4 .2 3-.2c.6 0 1.7 0 1.9.5.5 1.3-3 5.7-10.5 6.2-5.6.4-8.2-.8-11.2-1.2-2-.2-6.8-.8-11.7 1s-13.4 5-17.6 2.1c-5.7-3.8-7.3-11.8-7.3-11.8l5.2-20.5z" style="fill:#c7cdd0"/><path d="M81.6 29.2c.3-.7.6-.9.7-1.6s1.1-1.9 2.8-1.7 4.4 1.7 4 8c-.2 5.9-6.8 12-6.8 12s2.1 1 2.9 3.1c.8 2 .5 7.3-4 11.7S74.3 66 74.3 66s2 .6 2.7 3c.6 2.6-.7 7-5 10.4s-7.6 4.8-7.6 4.8 2.1 0 2.8 1.7.4 5.7-5.5 9.5c-4.4 2.8-7.4 4-7.4 4s2.3.5 2.6 2.5-.8 5.4-4.6 7.5c-3 1.7-6.5 2.6-6.8 1.3-.3-1.2-7.4-6.8-8.4-7.8s3.9-38.2 8.3-42.5 26-19.7 25.8-19.5z" style="fill:#92989b"/><path d="M56.9 46.2s7.9-4.5 12-7.3a84 84 0 0 0 13.5-11.5c.1-.2 1.3-.3 2.3.5 1.6 1.4 3.3 6.2-1 12s-9.1 9-15.2 12.5c-4.4 2.6-10.3 5.6-10.9 6-.8.4-1 2.2 2.2.8 1.1-.5 4.6-.1 9.2-2 4.6-2 8.5-7.5 9-7.7.9-.5 2.5-.8 3.7.2 1.4 1.1 1.6 4.1-1.3 7.7-3.7 4.7-9.2 7.3-14 10.1-5 3-12.3 6.8-12.9 7-.8.5-.6 2.3.9 1.6.9-.4 10.2-3 12-3.8 1.6-1 5.7-4.6 6-4.7.6 0 1.9.7 2.3 2.2s-.6 4.9-6.4 9.1c-6.1 4.4-13.2 6.8-15.6 7.9-2.5 1-5 1.8-4.3 3 .3.7 1 .5 3.3-.5 1-.5 1.8.4 3.8 0 4.8-1.2 7-3 7-3s1.6.2 1.7 1.7q0 4-8.2 8c-5.3 2.6-10.8 4.2-11.4 4.5-1.4.6-1 2 .2 1.5q2-.7 4.2-1c1.6-.3 4.4-.6 5.4.5 1 1.3.2 4.3-3.2 6.3s-5.7 1.7-5.7 3l.6.8c.3.9-5.8-1.6-5.8-1.6l-7.8-10.5 4.4-30.3 8.9-12.8z" style="fill:#c7cdd0"/><path d="M52.8 45c.2-.2.8-1.5 2.6-1.3 2.2.3 5 3.2 3.4 9.4s-5.3 8.7-5.3 8.7 1.8 2.8.5 6.6c-1.7 4.7-5.8 7.7-5.8 7.7s1.8 2 .7 5.8c-1.2 4.3-4.7 7.2-4.7 7.2s1.4.8 1 3.4-2.3 6-6 8c-3.4 1.7-4.9 2-4.9 2s1.9.7 1.5 2.6-2.9 5.3-7.5 6.6c-4 1.1-3.8-.6-2.7-1s.3-9.6.3-9.6l3.3-39c.1-.4 20.5-13.4 21.4-14.1s2.2-2.8 2.2-2.8" style="fill:#92989b"/><path d="M21.4 68.5s4.7-6.2 7-8c2.4-1.6 5.8-3.7 5.1-4.1s-15.6 5.3-22.8 14.2a31 31 0 0 0-5 29.5c1.4 5 4.2 11 4.2 11s-.2-1.2.7-1.7c1-.6 2 .8 2 .8s-.3-5.1-.7-7c-1.3-5.6.2-22.3.2-22.3z" style="fill:#abb9bb"/><path d="M99.6 27c-1.2.8-8 3.4-8 3.9s.3 2.8 3.8 1.9c3.6-1 11.8-5.4 16.6-9.7s7.6-7.1 8.3-10.3c.4-1.7.4-2.9-1-3.8s-1.5 1.3-1.6 1.6-4.3 7-10.3 11-7.8 5.4-7.8 5.4M60.8 47.6c0 1 2 3 6.5 1.4 1.7-.6 5.9-2.6 9-5.1q6.8-5.3 7.8-9.8c.4-2-.1-3.8-.5-4.3-.6.1-7.2 8.1-7.6 8.4S60.8 47 60.8 47.6" style="fill:#f2f3f5"/><path d="M60.8 45.9c.3-.4 8.1-4.8 11.7-7.4 7-5 9.6-9 10.2-9.3.7-.3 1.2.9 1.2 1.3s-1.3 3.1-3.8 5.6a67 67 0 0 1-11.8 8.8c-4 2.2-7.3 3.5-7.5 3 0-.2-.4-1.6 0-2m56.9-36.8c-.8 1-2.8 5-12.5 12.2-6 4.7-12 7.7-13 8.5q-1 .8-.5 1.5c.5.7 1 .5 1.8.3a70 70 0 0 0 25-18.4c.9-1.6 1.8-3 1-4-.4-.5-1.3-.6-1.8 0" style="fill:#fff"/><path d="M86.6 47.4c.4.9 2 2 5.8.4S109.5 38 114 33.5c4.8-4.7 4-7.5 3.5-7.7q-.9-.2-1.3.3c-.4.2-4.7 4.3-10 7.7S93.8 41.6 91 43c-2.8 1.5-5.2 2.9-4.5 4.4m-4.8 15.2c.3 2.1 6.7 1.8 21.5-7s14.6-12.9 14.3-13.3a3 3 0 0 0-3-.2c-1.1.4-9.2 6.1-15.5 9.8-7 4.2-17.6 8.3-17.3 10.7M99 65.8c.4.4 0 6.2-9.8 9.4-7.7 2.5-10.8 1.4-11.2-.1-.6-2.4 1.5-2.2 5.8-3.4 2.3-.6 6.2-1.8 9.5-3.3 3-1.2 5.3-2.9 5.6-2.6M73.2 84.7c-1 0-3.7-.1-3.8 1.6s4 2.8 7.3 2.6a15 15 0 0 0 9-3c2-2 1.7-3 1.3-3.2-1.1-.5-4.6 1-6.3 1.2q-3 .7-7.5.8M62.1 98.2c0 1.1 1.5 2.7 8.2 2.5 6.1-.3 8.6-3.1 8.6-3.9q0-.9-1.5-.9c-1.2 0-4.1.5-6.6.5-4.7.2-8.6-.6-8.7 1.8m-6.2 9.5c-.8 2 2.3 3.6 5.5 3.3 4-.4 6.6-3.5 6-3.8-.3-.3-4.2 0-6 0-3.4 0-5-1-5.5.5M44.8 102c-.8.3-2.5 1.4-2 3s2 1.4 4.5.6 5.2-2.6 4.6-4q-1.1-1.6-7.1.4m8.5-13.5c5-2.1 9.2-2.7 9.8-2 .3.4-.9 2.6-6.4 5.3s-9.9 4.6-10.2 2.1c-.3-2.1 2-3.4 6.8-5.4" style="fill:#f2f3f5"/><path d="M64.3 77.7c6.6-3.7 11-8 9-9.8-1.6-1.3-6.2 2-11.6 4.7-5.8 2.9-8.2 3.5-10.3 5.9-1.3 1.5-2 4.9 2.4 3.7s7.2-2.7 10.5-4.5m-5.3-18c-2 1.3-4 5-2 6.1 2 1.3 6.5-.8 13-4.6 5.9-3.4 10-7.6 9.8-10.4 0-1.3-1.3-1.7-2.3-1.1S72.1 53 68 55c-3.6 1.9-7.4 3.5-9 4.6" style="fill:#f0f4f5"/><path d="M32.5 56.5c.8-.3 5.2-1.8 10.2-4.5 2.5-1.3 9.5-6.5 10.1-7 .7-.4 2.7.8 2.8 4 .1 2 .2 5.7-2.9 9.5-3 3.6-9.3 6.2-13.7 7.7-2.4.8-4.6 1.2-4 2.4s4.3 0 5.2-.2 6-3.1 6.7-3.7c.9-.6 2.4-1.6 3.1-1.4 1.1.2 3.4 6.3-5.4 12.3-3.5 2.3-11.2 3.6-10 6 .9 2 5.4 1 5.4 1l2.6-3.7 2-1q1.3-.5 1.3.8c.3 1.6.5 4.7-3.1 8-4.3 4-9.4 4.3-9.2 5.7.1.6 1.6.3 1.6.3l4-1.4q1-.4 2-.1c1 .5 1.2 2.9-1.7 5.3s-9.7 5.2-9.7 5.2 3.1-.2 3 3c-.3 3.9-7.1 6-7.1 6s-4.3 1.7-8.5 1.2c-2.5-.3-4.5-1.5-4.5-1.5S9.3 104.7 9 99.2c-.5-8 .6-17.3 3.1-21.8 4.4-8 8-12.1 20.4-20.9" style="fill:#c7cdd0"/><path d="M11.4 94.8c0 2.8 3.4 14.2 4.3 14.6s4 1 6.5.5c4.5-.8 8.5-3.3 8.3-6s-5-1.2-5-2c0-1 4.5-2.2 9.2-4.7 5.7-3 5.4-5.7 5-6-.2-.3-5 2-6.5 1.4q-1.5-1 .1-2.2c1.6-1 5.2-1.6 7.8-4.3 3-3.2 1.8-6.9 1.5-7.2-.8.5-6.2 3-7.4 3s-2-1.4-1-2.5c1.6-2 8.7-3.4 12.4-8.2 3-3.7 1.6-6.8 1.1-7-.3 0-6.4 4-8.4 4.3-2 .4-5.3 1.5-5.6-.2-.3-1 .4-2.4 3-3a36 36 0 0 0 12.1-5.8C55 54.7 53 48.2 52 47.9c-.5.5-1.7 3.8-3.5 5.1s-16.8 8.6-20.6 11.2-12.7 11.4-15 17.5-1.5 13-1.5 13" style="fill:#f2f3f5"/><path d="M32.4 73.3c.4.8 2.3 2 5.6.1s5.1-3 6.6-4.7 1.7-3 1.5-3.6c-.6.2-3.1 1.9-5 2.5-4.4 1.7-5.1 1.4-7.6 2.3-1.1.4-2 1.7-1 3.4m9.2 6.1c.5.4 0 3-3 5-3.2 2-6.4 2.7-7 .5-.6-2 2-2.6 2.9-2.8 2.8-.5 6.7-2.6 7.1-2.7" style="fill:#fffeff"/><path d="M51.9 47.8c.5-.2.3 2.4-.3 3.6-1 1.6-5.2 4.6-7.6 6S20.2 69.5 16.4 80.2s-2.2 19.1-.6 25.7c.2 1.1.8 3.4.4 3.7-.2.1-3.5-.8-5.7-5.4a34 34 0 0 1-.7-23.4c2.8-8.5 8.7-14.4 17.7-19.6 7.3-4.2 14.5-6.8 16.6-8 2.1-1.4 6.8-5 7.8-5.4" style="fill:#fff"/></svg>