<svg xml:space="preserve" width="16" height="16" viewBox="0 0 128 128"><path d="M6.7 24s-3.6 3.4-4 4.4c-.2.7.9 1.7 2 2.8l37 37.6s23.5-13.3 11.8-18.3S6.7 24 6.7 24m19 97.1s1.8 1.9 3 2.8c1.9 1.6 3.6-1 5.4-2.6 1.8-1.5 30.8-30 30.8-30s29.2 29.4 30.7 30.6 3.3.7 4 0l5.2-5L72.6 81l-26.9 5.5zm54.3-67 4 16.5 4.4-4.9 35.2-35.3c1-1 1.5-2.5.7-3.5l-1.6-1.8z" style="fill:#464c4f"/><path d="M41.9 62c0 .6-34.5 34.7-35.7 36s-1.1 2.6.3 4.3 18.6 18.2 19.2 18.8c.7.6 2.7-.3 4.2-1.7 1.4-1.3 34.2-33.8 35-33.8s31.5 30.7 33.3 32 4 1.3 5.4.4c1.3-1 15.7-15.2 16.8-16.4 1-1.1 0-2.7-1.6-4.6L86 62.7 122.7 25 103.4 6.6c-1.1-1-3.2-2-5.6.3L64.2 40.7S30.9 6 29.7 5s-2.6-.5-3.8.5-19 18.2-19.6 19 .7 2 2.6 4z" style="fill:#616266"/><path d="M27.3 11.2c-2.4-.1-13.4 9.1-10.6 11.8 2.4 2.2 6.4-2.8 10.4-2.7s9 2.9 10.7.4c2-3-7.6-9.3-10.5-9.5m74 1.3C97.7 13 92.5 18 87.8 23c-4.8 4.8-8 8.8-6.7 10.5 1.8 2.3 7-3.7 10.3-6.5 3.3-3 8.3-6.6 11.7-6.7 3.5-.2 7 1.4 7.7-.5s-4.7-8-9.5-7.4m-73.5 73c-1.2-1-5.7.6-10.5 7s-3.3 9.2-1.5 11.5c2.1 2.8 4.4 4.4 5.8 2 1-1.6.2-5 1.5-8.5 1.3-3.6 3.7-7.6 4.5-8.8s1.3-2.4.2-3.2" style="fill:#9a9a9a"/></svg>