<svg xml:space="preserve" width="16" height="16" viewBox="0 0 128 128"><path d="M75.1 94.3q.9.4.6 2a7 7 0 0 0 3.4 6.3l.5.3.4-.3L97 89l.2-.9c-.9-3-3.6-4.4-5.3-4.6q-1.7-.2-2-1.1c0-.7.6-1.4.6-1.4s-.5-.3-1.2-.2q-.8.2-1.4.6s-2.8-.7-6.2 2L79.8 85 78 86.5c-3.4 2.7-3.3 5.5-3.3 5.5l-1 1.3q-.2 1 0 1.2c.2.2.9-.5 1.5-.2" style="fill:#232020"/><radialGradient id="a" cx="-6793" cy="-2315" r="6.4" gradientTransform="rotate(141.3 -3572.21 681.73)scale(1 .491)" gradientUnits="userSpaceOnUse"><stop offset=".7" style="stop-color:#444140;stop-opacity:0"/><stop offset="1" style="stop-color:#444140"/></radialGradient><path d="m79.8 85 1.6 2-5.7 5.3-1-.2s-.2-3 3.2-5.6z" style="fill:url(#a)"/><radialGradient id="b" cx="-6798.7" cy="-2323.3" r="1.9" gradientTransform="rotate(-63.7 -1899.24 -6343.1)scale(1 .742)" gradientUnits="userSpaceOnUse"><stop offset=".7" style="stop-color:#444140"/><stop offset="1" style="stop-color:#444140;stop-opacity:0"/></radialGradient><path d="M75.4 93c2 .6.4 2.7.4 2.7q0-1-.7-1.4c-.6-.3-1.4.2-1.4.2s.3-1.7 1.7-1.6" style="fill:url(#b)"/><radialGradient id="c" cx="-6797.5" cy="-2314.3" r="8.3" gradientTransform="rotate(47 -5683.23 6982.26)scale(1 .833)" gradientUnits="userSpaceOnUse"><stop offset=".7" style="stop-color:#444140;stop-opacity:0"/><stop offset="1" style="stop-color:#444140"/></radialGradient><path d="M79.1 102.6a7 7 0 0 1-3.4-6.1v-1.7s4.2 1.2 6.2 2.4l1 .8q.5.4.5 1c0 .4-4 3.8-4 3.8z" style="fill:url(#c)"/><radialGradient id="d" cx="6963.4" cy="-2315" r="8.3" gradientTransform="rotate(55.6 5270.64 -5505.12)scale(1 -.833)" gradientUnits="userSpaceOnUse"><stop offset=".7" style="stop-color:#444140;stop-opacity:0"/><stop offset="1" style="stop-color:#444140"/></radialGradient><path d="M97.2 88.2a7 7 0 0 0-5.2-4.7c-.3 0-1.2-.1-1.6-.5 0 0 .2 4.5 1 6.6q0 .8.5 1.3.3.4.8.6t1-.3l3.5-2.7z" style="fill:url(#d)"/><radialGradient id="e" cx="6967.3" cy="-2315" r="6.4" gradientTransform="rotate(141.3 -3655.36 710.96)scale(-1 .491)" gradientUnits="userSpaceOnUse"><stop offset=".7" style="stop-color:#444140;stop-opacity:0"/><stop offset="1" style="stop-color:#444140"/></radialGradient><path d="m79.8 85 1.6 2 6.5-4.4v-1.1s-2.8-.8-6.2 2z" style="fill:url(#e)"/><radialGradient id="f" cx="6962.8" cy="-2323" r="1.9" gradientTransform="rotate(166.4 3624.44 493.72)scale(1 -.742)" gradientUnits="userSpaceOnUse"><stop offset=".7" style="stop-color:#444140"/><stop offset="1" style="stop-color:#444140;stop-opacity:0"/></radialGradient><path d="M88.6 82.4c.2 2 2.6 1 2.6 1q-1.1-.3-1.3-1c0-.7.6-1.4.6-1.4s-1.7 0-2 1.3" style="fill:url(#f)"/><linearGradient id="g" x1="65.6" x2="65.6" y1="34.4" y2="7.6" gradientTransform="matrix(1 0 0 -1 0 130)" gradientUnits="userSpaceOnUse"><stop offset="0" style="stop-color:#5c4037"/><stop offset=".5" style="stop-color:#70534a"/></linearGradient><path d="M74.6 91.7h-7.4l.8 27.8-9 1q-2.3.4-2.4 1.6c-.1 1.2 1.2 1.6 2.4 1.6h11.9c1.6 0 2.8-1.4 2.8-3z" style="fill:url(#g)"/><linearGradient id="h" x1="92.1" x2="120.9" y1="49.6" y2="39.9" gradientTransform="matrix(1 0 0 -1 0 130)" gradientUnits="userSpaceOnUse"><stop offset="0" style="stop-color:#5c4037"/><stop offset=".5" style="stop-color:#70534a"/></linearGradient><path d="m122.4 87.8-3.3-1.4c-.3 0-.2-.4 0-.3l2 .4q1 .2 1.1-.4.4-.8-.6-1.1l-3.2-1-3-1.1q-.7-.3-2 .2l-9.9-5.1-.9-.4-16.8-4a3.8 3.8 0 0 0-1.7 7.4l16.8 3 10 4c0 1.4 1 2.1 1.5 2.6.5.7 1.3 2.3 1.3 3-.1.4.6.8.9.7q.6-.2.6-1.3c0-.4 0-1.3-.4-1.7q-.2-.3.1-.4l4.6 3q.9.3 1.3-.4.3-.7-.4-1.1l-2.9-2.2q-.1-.2.2-.2l3.8 1.8q.7.4 1.1-.2.3-.8-.5-1.3l-4-2c-.1 0 0-.4.2-.3l3.4 1.2q.8.4 1.2-.3.4-.9-.6-1.1" style="fill:url(#h)"/><linearGradient id="i" x1="90.5" x2="77.9" y1="43" y2="61" gradientTransform="matrix(1 0 0 -1 -10.55 127.85)" gradientUnits="userSpaceOnUse"><stop offset="0" style="stop-color:#f78c1f"/><stop offset=".5" style="stop-color:#f47f12"/><stop offset="1" style="stop-color:#ef6c00"/></linearGradient><path d="M85.6 72.7q-.7 0-1.5-1.2l-7.5-10.9L58.1 73l7.7 11.3c.6.8.5 2 .6 3l.2 8.3H75l.1-8.2s1.5-1 3.7-2.8l4.3-3.3 8.7 1.8 1.8-8.4z" style="fill:url(#i)"/><linearGradient id="j" x1="83.7" x2="83.7" y1="85.3" y2="129.6" gradientTransform="matrix(1 0 0 -1 -10.55 127.85)" gradientUnits="userSpaceOnUse"><stop offset="0" style="stop-color:#5c4037"/><stop offset=".5" style="stop-color:#70534a"/></linearGradient><path d="M85.5 6.3c0-1-.7-1-2-1.1L74 4.3a3 3 0 0 0-3.2 2.8l-.4 3.7-3 22.2-6.7 22.7 11.7 3 5-23.3L79 13l1-.3c.5 0 2 .5 2.4-.2s-.1-1-.3-1c.2 0 .9.2 1-.3.4-.7-.4-1-.4-1s1 .2 1.3-.4-.7-1-.7-1 1.2.2 1.4-.5q0-.8-.5-1 1.2.3 1.4-1" style="fill:url(#j)"/><linearGradient id="k" x1="45.4" x2="8.2" y1="73.4" y2="84" gradientTransform="matrix(1 0 0 -1 -10.55 127.85)" gradientUnits="userSpaceOnUse"><stop offset="0" style="stop-color:#5c4037"/><stop offset=".5" style="stop-color:#70534a"/></linearGradient><path d="M36.7 50.5s-19.3-7.1-21.2-8.2l-3-1.8q-2.3-.9-3.4 1.5l-3.7 9c-.5 1.2-.7 1.9.2 2.3Q6.7 54 7 53q-.1.4.7.6c.7.1 1-.9 1-.9s-.1.8.6 1c.7 0 1-1 1-1s-.1.8.6.9.8-.9.8-1c0 .1 0 .8.5.8.9 0 1-1.7 1.2-2.1l.4-.9 20.3 10 .5.1L57 68.3l3.5-11.7z" style="fill:url(#k)"/><path d="M76.5 81.6a3 3 0 0 1 4.2.4l1.8 2-4.5 4-1.8-2.1a3 3 0 0 1 .3-4.3m4.9 17.9 1.6-1.3 8.8-6.9 1.7-1.2c1.3-1 1.5-3 .4-4.4s-3-1.8-4.3-.8L88 86.2l-9 6.9-1.6 1.2c-1.3 1-1.5 3-.4 4.5s3 1.7 4.3.7" style="fill:#3c2b24"/><path d="m77.3 61.7-3.3-5 2.4-10.6-13.2-3.5-3.6 12.6-11.4-3.3-4 13.3L55.4 69l3.4 5z" style="fill:#7c7c7c"/><path d="M79.8 84.9c-3.9 3-5.2 8.6-.5 14.6 3.7 4.8 9 5.4 12.3 4.3q1.2-.4 2-1l1.5-1.7c1.9-3 2.7-8.2-1-13-4.8-6-10.5-6.2-14.3-3.2" style="fill:#70534a"/><path d="M81.4 90.8c.3-1 2.6-2.7 3.7-2.9.6 0 .7-.7.2-1-.4-.2-2.3 0-3.4.8s-1.7 2.6-1.6 3.1c.2.5.9.6 1 0" style="fill:#1a1717"/><path d="m83.8 91.8 1.6-1.2q.2-.5 0-.6c-.3 0-.9-.3-1.5.2s-.6 1.2-.6 1.4q.1.3.5.2" style="fill:#33251f"/><circle cx="89.8" cy="90.4" r="1.4" style="fill:#1a1717" transform="rotate(-37.8 89.82 90.4)"/><circle cx="82.6" cy="96" r="1.4" style="fill:#1a1717" transform="rotate(-37.8 82.6 96.02)"/><path d="M89.8 93.7c.4 0 1.2.1 2.1-.6s1-1.5 1-2q0-.2-.2-.3l-.5.3q0 .4-1 1.2l-1.3.6q-.3.1-.4.4t.3.4m-7.2 5.6q.7.3 2-.6c1.4-.9 1.2-1.5 1.2-2l-.3-.3q-.2 0-.5.3 0 .4-1 1.2l-1.4.6q-.3.2-.3.4t.3.4" style="fill:#1a1717"/><path d="M84 107.3c1.2.4 3.3.5 4.4-.3 1.1 1 3 1 4.3.4 3.5-1.4 4.4-4 4.9-5.4 0-.2.7-1.1 2-1.3 1-.2 1.8 1.8 1.8 1.8s1.1-4.2-1.3-5.8c.6-.5 1.2-1.5.8-2.7a5 5 0 0 0-2-2.7c.1-.9-.1-2.5-1.7-3.4-1.2-.7-3 0-3 0a11 11 0 0 0-3.3-3l-.2.1a45 45 0 0 0 3.2 5.2s-2 2.6-2.6 6.3l-.7 2.1c-1.8 3.6-4.2 2-4.2 2s-1.6 2.1-4.8-.3l-4-3.7-.2.1c.2.7.7 2 1.4 3 .3.5-.2 1.7.8 3.5a9 9 0 0 0 4.4 4" style="fill:#232020"/><radialGradient id="l" cx="6961.4" cy="-2293.4" r="9.7" gradientTransform="matrix(-.918 -.584 -.374 .645 5617.37 5643.01)" gradientUnits="userSpaceOnUse"><stop offset=".7" style="stop-color:#444140;stop-opacity:0"/><stop offset="1" style="stop-color:#444140"/></radialGradient><path d="M78.8 99.7c.3.4-.2 1.6.8 3.4l.3.6a9 9 0 0 0 4.1 3.5c1.1.4 3 .6 4.2 0l.2-.2s-.5-.5-.6-1c-.2-.7.2-1.2.2-1.2-4.9-.6-6.7-3-9.2-5" style="fill:url(#l)"/><radialGradient id="m" cx="6951.1" cy="-2282.4" r="3.2" gradientTransform="matrix(-1.011 .182 .323 1.223 7868.77 1628.74)" gradientUnits="userSpaceOnUse"><stop offset=".6" style="stop-color:#444140"/><stop offset="1" style="stop-color:#444140;stop-opacity:0"/></radialGradient><path d="m97.3 102.9.3-.9c0-.2.7-1.1 2-1.3 1-.2 1.7 1.7 1.8 1.8 0-.6-1.5-5.8-4-4-1 .8-.8 2.2-.5 3.3z" style="fill:url(#m)"/><radialGradient id="n" cx="-557.7" cy="7202" r="7.8" gradientTransform="matrix(.998 -.283 -.213 -.576 2184.9 4094.37)" gradientUnits="userSpaceOnUse"><stop offset=".7" style="stop-color:#444140;stop-opacity:0"/><stop offset="1" style="stop-color:#444140"/></radialGradient><path d="M93 107.3q-2.8 1.1-4.6-.3c-.3-.3-3.1-3.3 5.3-4.4 3.2-.4 3.3.9 3.2 1.2a8 8 0 0 1-3.9 3.5" style="fill:url(#n)"/><radialGradient id="o" cx="6949.4" cy="-2285.9" r="3.2" gradientTransform="matrix(-.762 .648 .879 1.007 7405.33 -2101.55)" gradientUnits="userSpaceOnUse"><stop offset=".7" style="stop-color:#444140;stop-opacity:0"/><stop offset="1" style="stop-color:#444140"/></radialGradient><path d="M101.4 102.5c0-.3 1-4.3-1.3-5.8l-1.9 1.1c2.8.4 3.2 4.7 3.2 4.7" style="fill:url(#o)"/><radialGradient id="p" cx="6947.2" cy="-2285.8" r="4.4" gradientTransform="matrix(.923 -.412 -.464 -.901 -7374.82 897.03)" gradientUnits="userSpaceOnUse"><stop offset=".7" style="stop-color:#444140;stop-opacity:0"/><stop offset="1" style="stop-color:#444140"/></radialGradient><path d="m99 97.4 1.1-.7.2-.2c.5-.6 1-1.4.6-2.6q-.7-1.7-1.6-2.3l-.4-.3s0 1-1.2 2z" style="fill:url(#p)"/><radialGradient id="q" cx="6947.6" cy="-2294.5" r="4.6" gradientTransform="matrix(-.853 .53 .854 1.27 7980.8 -675.5)" gradientUnits="userSpaceOnUse"><stop offset=".6" style="stop-color:#444140;stop-opacity:0"/><stop offset="1" style="stop-color:#444140"/></radialGradient><path d="M99 91.3c0-1-.3-2.6-1.9-3.4-1.2-.7-3 0-3 0l-.4.2 4 5.2q.9-.9 1.2-1.9z" style="fill:url(#q)"/></svg>