<svg xml:space="preserve" width="16" height="16" viewBox="0 0 128 128"><path d="M73.4 97.8v23.4H118c3 0 5.7-1.7 6.9-4.2 2.4-5.2.6-18.7.6-18.7zm13.6 0v23.4H15.3c-3 0-5.8-1.7-7-4.2-2.3-5.2-.6-18.7-.6-18.7z" style="fill:#616161"/><path d="M42.3 41.6h62s2.8-21.3-3.5-37.7h-62c5 15.4 3.5 37.7 3.5 37.7" style="fill:#e0e0e0"/><path d="m42.1 46.6 61.6-.5.9-6.5H42.4z" style="fill:#bdbdbd"/><path d="M116.8 106.4H16q-9.7.2-8.8-8.8L11.6 49c1-5.5 3.4-7 8.3-7h93c4.8 0 6.6 3.5 6.8 5.4l6 50.2c0 6-.6 8.8-8.9 8.8" style="fill:#424242"/><path d="M16 88c0 .4-2.3 6.2 4.7 11.2 3.2 2.2 19 2.5 20.7-9.2S43 50.7 43 46.1s-11-4.6-14.6 3.3S16 88 16 88"/><path d="M27 98c-4 0-7.9-1.9-10-4.8-2.8-3.9-2-8-1.5-12.3Q17 65.1 20 49.5c3.1-15.7 13-13.3 14.8-13 6.3 1.3 7.3 7.7 7 10-.5 4.1-2.7 5.6-3 5.9l-.1.8s-1.7 16.6-2 24.4c0 .6 1.2 1 2 3.3 1.3 3.4.7 8.3-1.2 11.5-2 3.4-6.1 5.6-10.5 5.6" style="fill:#616161"/><path d="M27 98c-4 0-7.9-1.9-10-4.8-.6-.9-2-3.5-1.2-4 .7-.4 1.7 0 2.5.2 3.2 1 7 1.4 9.8-.6 2-1.3 3.2-3.7 3.7-6 .4-1.5.5-3 1.5-4.1 2-2.6 4.6 0 5.4 2.2 1.3 3.4.7 8.2-1.2 11.4A12 12 0 0 1 27 98" style="fill:#424242"/><path d="M82.5 57.3H52.1c-2.5 0-4.6-2.4-4.6-5.4s2-5.3 4.6-5.3h30.4c2.5 0 4.6 2.4 4.6 5.3 0 3-2 5.4-4.6 5.4"/><path d="M80.9 57.3H53.7c-2.6 0-4.7-1.4-4.7-4.5 0-3 2.1-4.5 4.7-4.5H81c2.5 0 4.6 1.5 4.6 4.5s-2 4.5-4.6 4.5" style="fill:#7cb342"/><path d="M108.1 68.6H96a2.8 2.8 0 0 1 0-5.6h12.2a2.8 2.8 0 0 1 0 5.5m.4 9.8H96.4a2.8 2.8 0 0 1 0-5.6h12.2a2.8 2.8 0 0 1 0 5.6m.5 9.7H97a2.8 2.8 0 0 1 0-5.6h12.2a2.8 2.8 0 0 1 0 5.6"/><path d="M108.3 69.7H96.1a2.8 2.8 0 0 1 0-5.6h12.2a2.8 2.8 0 0 1 0 5.6m.5 9.7H96.6a2.8 2.8 0 0 1 0-5.6h12.2a2.8 2.8 0 0 1 0 5.6m.5 9.6H97a2.8 2.8 0 0 1 0-5.4h12.2a2.8 2.8 0 0 1 0 5.5" style="fill:#90a4ae"/><circle cx="95.9" cy="50.7" r=".9"/><circle cx="99.3" cy="50.7" r=".9"/><circle cx="102.6" cy="50.7" r=".9"/><circle cx="106" cy="50.7" r=".9"/><circle cx="95.9" cy="54" r=".9"/><circle cx="99.3" cy="54" r=".9"/><circle cx="102.6" cy="54" r=".9"/><circle cx="106" cy="54" r=".9"/><circle cx="99.3" cy="47.4" r=".9"/><circle cx="102.6" cy="47.4" r=".9"/><circle cx="99.3" cy="57.3" r=".9"/><circle cx="102.6" cy="57.3" r=".9"/><ellipse cx="53.8" cy="67.9" rx="3.8" ry="3.3"/><ellipse cx="66.9" cy="67.9" rx="3.8" ry="3.3"/><ellipse cx="79.9" cy="67.9" rx="3.8" ry="3.3"/><ellipse cx="53" cy="77.6" rx="3.8" ry="3.3"/><ellipse cx="66.9" cy="77.6" rx="3.8" ry="3.3"/><ellipse cx="80.7" cy="77.6" rx="3.8" ry="3.3"/><ellipse cx="52.2" cy="87.3" rx="3.8" ry="3.3"/><ellipse cx="66.9" cy="87.3" rx="3.8" ry="3.3"/><ellipse cx="81.5" cy="87.3" rx="3.8" ry="3.3"/><ellipse cx="53.8" cy="66.3" rx="3.8" ry="3.3" style="fill:#bdbdbd"/><ellipse cx="66.9" cy="66.3" rx="3.8" ry="3.3" style="fill:#bdbdbd"/><ellipse cx="79.9" cy="66.3" rx="3.8" ry="3.3" style="fill:#bdbdbd"/><ellipse cx="53" cy="76" rx="3.8" ry="3.3" style="fill:#bdbdbd"/><ellipse cx="66.9" cy="76" rx="3.8" ry="3.3" style="fill:#bdbdbd"/><ellipse cx="80.7" cy="76" rx="3.8" ry="3.3" style="fill:#bdbdbd"/><ellipse cx="52.2" cy="85.8" rx="3.8" ry="3.3" style="fill:#bdbdbd"/><ellipse cx="66.9" cy="85.8" rx="3.8" ry="3.3" style="fill:#bdbdbd"/><ellipse cx="81.5" cy="85.8" rx="3.8" ry="3.3" style="fill:#bdbdbd"/><ellipse cx="51.4" cy="97" rx="3.8" ry="3.3"/><ellipse cx="66.9" cy="97" rx="3.8" ry="3.3"/><ellipse cx="82.3" cy="97" rx="3.8" ry="3.3"/><ellipse cx="51.4" cy="95.5" rx="3.8" ry="3.3" style="fill:#bdbdbd"/><ellipse cx="66.9" cy="95.5" rx="3.8" ry="3.3" style="fill:#bdbdbd"/><ellipse cx="82.3" cy="95.5" rx="3.8" ry="3.3" style="fill:#bdbdbd"/><ellipse cx="103.2" cy="96.4" rx="4.5" ry="3.9"/><ellipse cx="103.2" cy="95.2" rx="4.5" ry="3.9" style="fill:#7cb342"/><g style="opacity:.8"><path d="m98.5 33.9-.1 2H50.7v-2zm.1-8.1v2h-48v-2zm-.6-8.1.2 2h-48l-.2-2zm-1.4-8.1.4 2H49.2l-.4-2z" style="fill:#757575"/></g><path d="m106.3 113.5-.4-1.4q-.8-1.2-1.7-1H42.1q-1-.2-1.7 1l-.4 1.4q-.4 1.6 1.3 1.8H105q1.6-.2 1.2-1.8"/><path d="M18.9 116.2c10-2 8.4-20.7 8.4-20.7" style="fill:none;stroke:#757575;stroke-width:1.983;stroke-linecap:round;stroke-miterlimit:10"/><path d="M13.3 124q-1.6.2-2.7-.7-.4-.5-1-.7l-.7.2a4 4 0 0 1-3.5-.7c-1-.9-1-2-1.6-3-.9-1.3-2-2-1.5-3.8l.2-1-.3-.7c-.9-1.8-.3-4.4 1-6s3.8-1.5 3.8-1.5l.3 5c1.8 0 3.8 1.4 4.6 3q.3.8.7 1.3.6.7 1.3.4.4-.4.6-.9c.8-1.2 2.6-1.3 4-1q.5.2 1 .1.5-.4.5-1.1l-.1-1.3c0-1 1-1.8 1.8-2.5 2.1-2 .6-6.4 4.9-7 1.7-.2 3 1 3.6 2.3.5 1.2 1 3.1 0 4.3l-.3.3.1.6c.6 1.8-.3 4-2 5q.5 2-.9 3.7c-1.4 1.7-2.3 1.5-3.7 1.4.2 1.2-.6 2.5-1.7 3s-2.4.7-3.7.4q-.3-.2-.8 0-.3 0-.5.4-1.2.7-2.5.6z" style="fill:#757575"/><path d="M30.1 108.7c.8-.8.7-1.9.7-1.9-.8.7-1.7-.5-2-.8a4 4 0 0 0-3.8-1.3q-.3 0-.5.3 0 .4.6.6a8 8 0 0 1 3.7 3q.4.6.4 1c.3 2.3-1.7 4.2-1.7 4.2q-.9-1.7-2.2-3-1.5-1.4-3.4-1.3c.1 1.2 1.1 2 2.1 2.8s2.1 1.5 2.4 2.7c.4 1.3-.4 2.6-1.3 3.6-.5.5-1.8.8-2.4.3-3-2.5-2.7-5.3-2.8-5.4-.1.2-1.6 1.7-.8 4.3a3 3 0 0 0 3 2.3q-1.3 1.1-2.9 1.6-1.4.5-2.4-.3c-.9-.9-.4-2.6-.9-4-.2-.7-.7-1.5-1.4-1.3q-.6.4-.7 1.2a6 6 0 0 0 2 5 5 5 0 0 1-5.6-.5c-.5-.4-.3-1.8 0-2.4.5-1 2.4-2.8 2.4-3.5q-.1-.9-1-1.2-.9 0-1.6.4c-1.6 1-2.5 3-2.1 4.9.5 2.3-1 1.4-2.2.5q-1-.7-1.7-1.8c-1.5-2.8 0-5 2.4-6.3l.3-.3q0-.6-.6-.7-1.5 0-2.6 1c-.4.6-1.3 1.6-1.4 3-.2 1.9 1.7 3.6 1.7 3.6q.3 2 1.6 3a4 4 0 0 0 3.5.8l.8-.2q.5.1 1 .7 1 .8 2.6.8h.9q1.4.1 2.4-.7.2-.3.6-.5l.8.1a5 5 0 0 0 3.7-.3c1.1-.6 1.9-1.9 1.7-3.1q2.2.3 3.7-1.3t1-3.8c1.6-1 2.5-3.1 1.9-5q-.2-.2 0-.6z" style="fill:#424242"/><path d="M35.8 38.3q.7.5.9 1.4c0 1-.9 1.6-1.7 2q-2.9 1.4-6.2 1l-1.1-.2c-2.4-1-1.1-4 .9-4.6q4.2-1.6 7.2.4" style="fill:#757575"/></svg>