<svg xml:space="preserve" width="16" height="16" viewBox="0 0 128 128"><path d="M47.6 12.7c19.9 0 34.8 15 34.8 34.8s-16.1 36-36 36-34.8-15-34.8-34.8 16.2-36 36-36" style="opacity:.6;fill:#81d4fa"/><path d="M47.6 12.7c19.9 0 34.8 15 34.8 34.8s-16.1 36-36 36-34.8-15-34.8-34.8 16.2-36 36-36m-29.6 4C-1.7 36.6 8 65.3 15.7 73.2 29.9 87.7 56.5 95.9 76.4 76c18.4-18.4 11.8-41.8-1.2-56-8.5-9.7-37.4-23-57.2-3.3" style="fill:#616161"/><path d="m99.8 90.9-8.3 8.3-19.7-19.8s-1.6-3.2 1.7-6.4 6.7-2 6.7-2z" style="fill:#bdbdbd"/><path d="M88.5 77c-1.1-1-5-3-9.4 1.2-4.3 4.3-2.5 7.7-1.7 9l32 35.2c2 2 6.2.3 10.1-3.6 4-3.9 5.8-7.7 3.6-9.9z" style="fill:#616161"/><path d="M44 8.6a36 36 0 1 1-.2 72.1 36 36 0 0 1 .1-72m0-4a40 40 0 1 0 0 79.9 40 40 0 0 0 0-80" style="fill:#bdbdbd"/><ellipse cx="117" cy="116.3" rx="9.3" ry="3.6" style="fill:#424242" transform="rotate(-45 117 116.3)"/><linearGradient id="a" x1="20.4" x2="36.8" y1="18" y2="44.6" gradientUnits="userSpaceOnUse"><stop offset=".3" style="stop-color:#fff"/><stop offset="1" style="stop-color:#fff;stop-opacity:0"/></linearGradient><path d="M26.5 23.6a32 32 0 0 0-9.1 22.8c0 3 .4 6.4 2.3 8.8 2 2.4 5.7 3.5 8.2 1.7 1.7-1.2 2.4-3.3 3.2-5.1q1.9-4.4 5-7.9c2.7-2.9 6-5.2 8.5-8.1 2.6-3 4.4-7 3.3-10.8-1-3.7-4.6-6.4-8.4-6.8s-9.2 1.5-13 5.4" style="fill:url(#a)"/><g style="opacity:.59"><path d="M64 75.8q0-.7.6-1.2c2-1.4 7.2-4.6 11.8-13.2 2.6-5 3.6-9.3 3.9-10.8.8-4.2 3-2.8 2.7 0-.4 3-3 16.8-16.7 26.3-1 .7-2.2 0-2.2-1.1" style="fill:#fff"/></g><g style="opacity:.59"><path d="M26.4 11.4c-.1 1.3-2.3 2.5-2.7 2.8-2 1.3-7 3.8-11.6 12.4-2.2 4-3.7 8.2-4.2 10.2-.9 3.4-3.1 2.7-2.7 0C5.7 33.7 9 20 23 11.2c1-.6 3.5-1.5 3.3.2" style="fill:#fff"/></g><linearGradient id="b" x1="59" x2="63.1" y1="95.5" y2="52.8" gradientUnits="userSpaceOnUse"><stop offset=".3" style="stop-color:#fff"/><stop offset="1" style="stop-color:#fff;stop-opacity:0"/></linearGradient><path d="M56 74c-4.5.7-5.8-1.1-5.3-3 .4-1.4 2-2 3.6-2.5a41 41 0 0 0 19.2-15.3 17 17 0 0 1-4 12.2 22 22 0 0 1-13.6 8.5" style="fill:url(#b)"/></svg>