<svg xml:space="preserve" width="16" height="16" viewBox="0 0 128 128"><path d="M120.4 34.7c-5.3-6.5-24-18.5-56.4-18.5s-51.1 12-56.4 18.5a28 28 0 0 0-5.2 20.9c.6 3.6 1.7 6.2 16.5 6.2 15.8 0 17.5-4 17.6-6.8.2-4.6.7-10.8 2.8-12 2.5-1.6 4.6-7 24.7-7.3 20.1.3 22.2 5.7 24.7 7.2 2 1.3 2.6 7.5 2.8 12.1 0 2.9 1.8 6.8 17.6 6.8 14.8 0 16-2.6 16.5-6.2l.2-1.3c.2-5.4 0-13-5.4-19.6" style="fill:#c62828"/><path d="M109.1 65.8c-9.4 0-20.3-1.1-20.6-9.7a3 3 0 1 1 6-.2c0 1.2 1.5 3.9 14.6 3.9 15.5 0 16.7-6.1 16.7-6.1 1 2.4 3.3 11.2-16.7 12m-90.2-.9c9.4 0 20.3-1.1 20.6-9.7a3 3 0 1 0-6-.2c0 1.2-1.5 3.9-14.6 3.9C3.3 58.8 2 52.7 2 52.7c-1 2.2-3.2 11.2 16.8 12M98 30.1C92.8 28 82.3 25 64 25s-28.8 3-34 5c-1.8.7-2 3-.3 4a16 16 0 0 1 7.6 11.7l.2.6q.6-2.7 1.8-3.5C41.8 41.4 44 36 64 35.7c20 .3 22.2 5.7 24.7 7.2q1.2 1 1.8 3.5l.1-.6a16 16 0 0 1 7.7-11.6c1.6-1 1.5-3.4-.3-4" style="fill:#912221"/><path d="M119.5 46.4c-2-5-3.8-7.1-9.6-9.4-2-.9-3.3-2.4-2.8-3.7q.8-2 4-1.1a14.4 14.4 0 0 1 10.8 14c0 3-1.6 2.1-2.4.2M10.4 36.3c.4 1.3 2.9.2 5.9 0 4.2-.3 5.4 1 7.2 2.9 1.6 1.6 3.8 1.7 4.6.6q1.1-1.7-1-4.1c-1.1-1.3-5.7-4.4-12.5-2.6-1.5.5-4.6 1.9-4.2 3.2" style="fill:#f44336"/><path d="M18.9 95.6V117c0 4 3.4 7.1 7.5 7.1h75.2c4.1 0 7.5-3.2 7.5-7.1V95.1z" style="fill:#c62828"/><path d="M108.9 92s-7.8-36.3-9-42.7-3.5-8.3-7.2-8.4a5.6 5.6 0 0 1-5.6-4.8l-.7-6.1c-.2-1.4-.1-3.3-2-3.3h-3.9c-1.7 0-1.8.3-2 2.7-.4 2.4-.8 7-1.7 9.4-.8 2-3 2.1-4.2 2.1H55.4c-1.3 0-3.4-.2-4.2-2.1-1-2.4-1.4-7-1.6-9.4s-.4-2.7-2.1-2.7h-3.8c-2 0-2 2-2.1 3.3l-.7 6.1c-.5 3-3 4.8-5.6 4.8-3.7 0-5.9 2-7.1 8.4S19 92 19 92c-1 7.1 1.4 10 14 10h61.7c12.7 0 15.2-2.9 14-10" style="fill:#ff4638"/><path d="m88.5 58.8-3.7-6-8.3-1.5-3 1.8q-1.1.6-2.2 0l-1.6-1H58.3l-1.2.9q-1 .8-2.3 0l-2.7-1.6-12.6 7.4L35 84.3l.2 4.6c0 1 .9 1.7 1.8 1.7h54q1.6-.1 1.8-1.7l.2-4.6z" style="fill:#4e342e"/><path d="M78.6 72.5H89c1 0 1.7-1 1.5-1.9l-1-5.4q-.2-1.2-1.5-1.3H78q-1.7.2-1.5 1.7l.6 5.5c0 .8.8 1.4 1.5 1.4M59.4 60.4h9.3q1.5-.1 1.6-1.6l-.3-6q-.1-1.4-1.6-1.5h-8.7q-1.3.2-1.6 1.5l-.3 6q.1 1.5 1.6 1.6M69.8 77H58.4q-1.3.1-1.6 1.4l-.3 5.5q.1 1.5 1.6 1.6h12q1.3-.1 1.5-1.6l-.3-5.4q-.2-1.4-1.5-1.5m-11-4.5h10.5q1.5-.2 1.6-1.7l-.3-5.4q-.2-1.4-1.5-1.5H59q-1.5 0-1.6 1.5l-.3 5.4q.1 1.6 1.6 1.7M48.5 77H37.6q-1.2 0-1.5 1.3l-1 5.4q0 1.7 1.6 1.8h11.2q1.3 0 1.5-1.3l.7-5.5q0-1.6-1.6-1.7M39 72.5h10.5q1.3-.1 1.5-1.4l.7-5.5q0-1.5-1.6-1.7h-10q-1.4 0-1.6 1.3l-1 5.4c-.2 1 .6 1.9 1.5 1.9m38.3-12.1h9.6c1 0 1.7-.9 1.6-1.8l-1-6q-.4-1.2-1.6-1.3h-9.4c-.9 0-1.6.9-1.5 1.8l.7 6q.3 1.2 1.6 1.3M52.4 59l.7-6q0-1.5-1.5-1.7H42q-1.2.1-1.5 1.3l-1 6q-.2 1.6 1.5 1.8h9.8q1.3-.1 1.5-1.4M78 78.7l.7 5.5q.3 1.2 1.6 1.3h11q1.6-.2 1.6-1.8l-1-5.4q-.3-1.2-1.5-1.3H79.6q-1.6.2-1.5 1.7" style="fill:#f5f5f5"/></svg>