<svg xmlns:xlink="http://www.w3.org/1999/xlink" xml:space="preserve" width="16" height="16" viewBox="0 0 128 128"><path d="m21.2 42.6 11.7-2a3 3 0 0 0-1.2-5.7L20 38c-1.5.3-2.6 1.3-2.3 3 .4 1.5 2 1.9 3.5 1.5" style="fill:#ba8f63"/><linearGradient id="a" x1="4.7" x2="96.7" y1="52.9" y2="52.9" gradientTransform="matrix(1 0 0 -1 0 128)" gradientUnits="userSpaceOnUse"><stop offset="0" style="stop-color:#e0bb95"/><stop offset="1" style="stop-color:#cca47a"/></linearGradient><path d="M89 71.7c-5-2.4-9.1-7-12.6-11.4L59.6 38.9a7 7 0 0 0-4.5-3.3H55v-.1l-34.3-3q-1.6-.1-3.1.3L12 34.5q-1 .3-2 1l-4.5 3q-.8.7-.9 2 0 1.1.9 1.9t2.3.5c1.1-.2 2.3-1.3 3.2-2.1q.3-.4.8-.5l5.7-.7h1.2l2.7.6 5 1c2.3.4 20.2 6.2 20.3 6.3a6 6 0 0 1 3 2.3l6.7 10c2.6 3.9 2.5 8.9 0 12.5l-.1.2c-2.7 3.9-6 10.8-7.2 15.4q-4 14.9 4.9 19l22.8 10.9 19.8-41.9z" style="fill:url(#a)"/><linearGradient id="b" x1="31.6" x2="116.4" y1="52.3" y2="52.3" gradientTransform="matrix(1 0 0 -1 0 128)" gradientUnits="userSpaceOnUse"><stop offset="0" style="stop-color:#ffa000"/><stop offset=".3" style="stop-color:#ff9300"/><stop offset="1" style="stop-color:#ff7100"/><stop offset="1" style="stop-color:#ff6f00"/></linearGradient><path d="M113.2 84.3 89.5 70.8Q81.8 67 76.4 60.3L59.6 38.9a7 7 0 0 0-4.5-3.3l-.5-.1h-.2l-19.2-1.7h-.4a10 10 0 0 0-3.1 8.5q0 .3.3.5c6 1.8 14.8 4.6 14.8 4.7a6 6 0 0 1 3 2.3l6.7 10c2.3 3.5.9 12.1-2 16.4l.2.6c4.2 3.6 6.2 7 5.2 9s-4.6 2.6-10.1 1.7q-.5 0-.6.4l-.4 2-.8 4.8q0 .4.3.4c4 2.2 28.3 22.5 28.4 22.5.2 0 18.6-7.6 18.6-7.8 0 0 19.7-17.9 21-23.2.3-1-2-1.6-3.1-2.3" style="fill:url(#b)"/><path d="M61.1 88a6 6 0 0 0-1.7-8.7L55 76.4l-6.8 10.3 4.4 3a6 6 0 0 0 8.5-1.8" style="fill:#c48e6a"/><path d="m20 61 .1-.3.2-.3c8-10.6 15.8-8.9 20.6-6.7C46 56 49.6 58 49.6 58l-.8.2-1 .5 3.5 3.2-10.6-1.5h-.2L39.3 63a79 79 0 0 1-4.2 7.2l-.2.3-.2.3a79 79 0 0 1-5 6.7L28 79.6v.2l5.5 9.2-4.3-2v1.9s-3.6-2.4-7.6-6.4c-3.7-3.8-8-10.4-1.6-21.5" style="fill:#ab872f"/><path d="M52.1 58.7c-2.7-1.8-4.8.4-4.8.4l-.7 1.2-16.5 25-.8 1s-1.2 2.9 1.5 4.6c2.3 1.6 4.5.4 5.7-1.4l16.5-25c1.2-1.8 1.5-4.2-.9-5.8" style="fill:#c48e6a"/><path d="M20.7 61.1c7.1-10.8 17.3-8 29-.3 12.2 8 10.2 18 6.3 23.7-3.7 5.7-12 11.6-24.2 3.5-11.8-7.8-18.2-16.1-11-27" style="fill:#e0bb95"/><path d="M44 62.7s-2 0-3.5 2c-1.4 2.2-.6 4-.6 4q0 .3.3.4.6.4 1-.2l.2-.3c.3-1.6 1-2.6 1-2.6s.7-1 2-2l.3-.1q.3-.6-.2-1zM35.2 76s-2.1-.1-3.5 2c-1.5 2.1-.6 4-.6 4l.3.4q.6.3 1-.2l.1-.3c.4-1.7 1-2.7 1-2.7s.7-1 2-1.9l.3-.2q.4-.7-.2-1z" style="fill:#ab872f"/><path d="M40.2 76.2c1.8 1.2 2.3 3.8.2 7-2.1 3-4.7 3.6-6.5 2.4-1.9-1.3-2.8-4-.6-7.2s5-3.5 7-2.2" style="fill:#01579b"/><ellipse cx="37" cy="80.9" rx="3.9" ry="3" style="fill:#b3e5fc" transform="rotate(-55.8 37.05 80.86)"/><defs><ellipse id="c" cx="37" cy="80.9" rx="3.9" ry="3" transform="rotate(-55.8 37.05 80.86)"/></defs><clipPath id="d"><use xlink:href="#c" style="overflow:visible"/></clipPath><path d="m40 85.7-4.8-8.1.6-3 4.8 8z" style="clip-path:url(#d);fill:#fff"/><path d="M48.4 64c1.9 1.3 2.3 3.8.2 7-2 3-4.7 3.6-6.5 2.4s-2.9-3.9-.7-7.2c2.2-3.1 5.2-3.4 7-2.2" style="fill:#01579b"/><ellipse cx="45.3" cy="68.7" rx="3.9" ry="3" style="fill:#b3e5fc" transform="rotate(-55.8 45.28 68.69)"/><defs><ellipse id="e" cx="45.3" cy="68.7" rx="3.9" ry="3" transform="rotate(-55.8 45.28 68.69)"/></defs><clipPath id="f"><use xlink:href="#e" style="overflow:visible"/></clipPath><path d="m48.2 73.5-4.7-8 .5-3.1 4.8 8z" style="clip-path:url(#f);fill:#fff"/><path d="m43.5 73.6-2.6 3.8-1.8-1.3 2.5-3.8zm4.7-13.7q1.8 2.3 1 5.3l-1.9-1.3q1.2-2.4-1-5.3zM30 87q2.8.6 5.2-1.2l-1.8-1.3q-1.8 2-5.3 1.1z" style="fill:#01579b"/><linearGradient id="g" x1="21" x2="34.4" y1="65.1" y2="57.7" gradientTransform="matrix(1 0 0 -1 0 128)" gradientUnits="userSpaceOnUse"><stop offset="0" style="stop-color:#ffa000"/><stop offset="1" style="stop-color:#ff6f00"/></linearGradient><path d="m18.1 59.1-.2.3-.2.3c-7 11.7-1.4 20 2.7 23.4C25 87 29 88.9 29 88.9V87s-1.5-5.6-.8-10.2a28 28 0 0 1 9.3-14.4c3.8-2.4 5.9-3.4 10.3-3.6l1-.5.8-.2s-3.4-2.8-8.7-5.7c-4-2.1-14.3-4.4-22.8 6.7" style="fill:url(#g)"/><path d="m46.6 76-.1.2-1.8 2.9-.1.2q0 .5.5.7c.4 0 1.5 0 2.3-1.2s.3-2.3 0-2.6l-.8-.1" style="fill:#c48e6a"/><ellipse cx="50.5" cy="81" rx="3.2" ry="1.9" style="fill:#6d4c41" transform="rotate(-53.1 50.48 80.97)"/><path d="M112 82c-6.6 0-10 7.2-16 7.2S86.6 82 80 82s-10 7.2-16 7.2S54.6 82 48 82s-10 7.2-16 7.2S22.6 82 16 82c-5 0-8 4-11.9 6v36H124V88c-3.8-2-7-6-11.9-6" style="fill:#039be5"/><path d="M112 105.7c-6.6 0-10-7.2-16-7.2s-9.5 7.2-16 7.2-10-7.2-16-7.2-9.5 7.2-16 7.2-10-7.2-16-7.2-9.5 7.2-16 7.2c-5 0-8-4-11.9-6v24.2H124V99.6c-3.8 2-7 6-12 6" style="fill:#29b6f6"/></svg>