<svg xml:space="preserve" width="16" height="16" viewBox="0 0 128 128"><path d="M64 4a60 60 0 1 0 .1 120.1A60 60 0 0 0 64 4m50 60c0 12-4.2 23-11.3 31.6L32.4 25.3A50 50 0 0 1 114 64M14 64c0-12 4.2-23 11.3-31.6l70.3 70.3A50 50 0 0 1 14 64" style="fill:#c33"/><circle cx="60.1" cy="63.1" r="56.1" style="fill:#f44336"/><path d="M95.6 102.7a50 50 0 0 1-70.3-70.3l7.1-7.1a50 50 0 0 1 70.3 70.3" style="fill:#fff"/><path d="M95.6 102.7a50 50 0 0 1-70.3-70.3l7.1-7.1a50 50 0 0 1 70.3 70.3" style="fill:#231f20"/><path d="M96.4 103.2A48 48 0 0 1 29 35.8l6.8-6.8a48 48 0 0 1 67.4 67.4" style="fill:#414042"/><path d="m97.8 41.6-2.2 1.1a3 3 0 0 0-1.7 2.7v.6q-.1 1.3-1.5 1.5h-8.2q-1 0-1.3-.8a12 12 0 0 0-5.5-5.8v-3.1q0-.7.8-.8H85l.8.4c1 .5 2.2-.2 2.2-1.3V32c0-1.1-1.2-1.8-2.2-1.3l-.8.3h-6.8a1 1 0 0 1-.7-.7c0-1.2-1-2.2-2.2-2.2h-4.5c-1.2 0-2.2 1-2.2 2.2q0 .6-.7.7H61l-.8-.4c-1-.5-2.2.2-2.2 1.3V36c0 1.1 1.2 1.8 2.2 1.3l.8-.3h6.8q.7 0 .8.8v3.1a12 12 0 0 0-5.5 5.8q-.4.8-1.3.8h-6.5a15 15 0 0 0-15.1 15.1v2.1c0 1.2 1 2.2 2.2 2.2h4.5c1.2 0 2.2-1 2.2-2.2v-2.1a6 6 0 0 1 6.1-6.1h6.1q1 0 1.4 1c1.7 4.6 5.7 7.8 10.4 7.8s8.7-3.2 10.4-7.8q.4-1 1.4-1h7.7q1.3.1 1.5 1.5v1.7a3 3 0 0 0 1.7 2.7l2.2 1.1c1 .5 2.2-.2 2.2-1.3V43c-.2-1.1-1.4-1.9-2.4-1.4M58.5 69.7q-.3.2-.3.5l-.8 3.4q-.2.5-.7.6H33.1q-.6 0-.7-.6l-.8-3.4q0-.3-.3-.5c-1.9-1.2-3.5.3-3.2 1.9l5.5 24.7a5 5 0 0 0 4.8 3.8h13.2a5 5 0 0 0 4.8-3.8l5.5-24.7c.2-1.6-1.5-3.1-3.4-1.9m-24.3 8.2h21.3q.8 0 .7.9L55 84.4q-.2.5-.7.6H35.5q-.6 0-.7-.6l-1.2-5.6q-.2-.8.6-.9" style="fill:#fafafa"/><path d="M23.4 35.6 95 102.1l2-1.9-66.4-66.8" style="opacity:.8;fill:#231f20"/><path d="M103.9 96.8 25.3 18.9 18.2 26l78.6 77.9" style="fill:#f44336"/><path d="M45 10.9c1.7-.4 4.2-1.6 5.9-1.1 1 .3 1.9 1.5 1.5 2.5q-.6 1.2-2 1.5A52 52 0 0 0 21 33.7c-1.9 2.7-3.4 5.5-5.8 7.8q-.3.3-.8.4l-.5-.1q-1.7-.6-1.2-2.3.3-1.5 1-2.9 1.5-2.6 3.3-5.1a46 46 0 0 1 6.6-8A57 57 0 0 1 45 10.9" style="fill:#ff8a80"/><path d="m32.4 25.3-2 2 71.1 71.1 1.8-2.2z" style="fill:#c33"/></svg>