<svg xml:space="preserve" width="16" height="16" viewBox="0 0 128 128"><path d="M119.9 74.8s-2.2-4.4-2.7-7.6c-.6-3.8-1.3-6-1.6-8.6-.5-3.5-1.6-5-2.1-6L113 58s-2.3 4.9 0 10.3c3.2 7.1 3.3 6.7 3.3 6.7z" style="fill:#858585"/><path d="M115.1 87a10 10 0 0 1-2.2-8.9c.6-3.4 1.8-6.1 5.2-6 2.4.2 4 2.2 3.5 6-.4 2.5-2 3.7-1.4 6.2.8 3.4 3.1 3.8 3.6 4.6s-5.3 2.7-8.7-1.8" style="fill:#5d6265"/><path d="m52.2 84.8-10.8 4.3s3.2 4.1 3.4 5.5v9c-.3 1-3.5 5.6-2.5 6.8s4.3 1.6 7 1.3 4.9-2.4 5-3.4l.4-8.5c.1-1.5 2-12 2-12zm43.1.5-7.2 4s.7 3.3.2 5.2-2.3 4-1.4 5c.9 1.2 4.5 1.1 6.4 1 1.8-.2 3.6-1.2 4-2.1.2-1 .3-12.7.3-12.7zM57.5 59 27.4 72.3l-11.5-5.6s-.4 2.3-.3 3.7c.3 2.6 1.7 10.1 12.6 11.8A29 29 0 0 0 47 78.4l20.5-10.7z" style="fill:#858585"/><path d="M47.7 25.4s-12-1.5-19.3 5.3-7 17.1-7 20 .3 4.6-.7 6.4-4.9 5.1-5 9.6c0 3.6 29.1 3.2 29.1 3.2s5.1-.5 7.9-3c2.7-2.6 4-5.7 4-5.7s1.4 5-2.6 8.6c-2.8 2.5-6.4 2.6-6.4 2.6s-.5 3.9-5 7.1c-3.9 2.8-8.5 2.9-8.5 2.9s2.3 6.3 12.8 9.2c10.5 3 13.9 2.8 13.9 2.8s1.5 9.5 1.6 11.3-.7 10.6-.2 11.5c.5.8 3.5 3.2 6.5 3 2.9-.3 4.1-3.5 4.1-4.8l-.6-9.3c0-1.3.9-9.9.9-9.9S78 96.7 84 95s9.2-6.5 13.5-6.7 7.4 3.5 7.3 7.5c-.1 3.9-2 7.7-1.2 8.9q1.2 1.8 5.2 1.8c2.7-.1 5-1.5 5.2-2.5s.6-12.7.7-14.5c0-2 2.7-12.9 3-20 .4-7.1-1-15.6-4.5-19.8s-8-6-9.7-6.5-7-.9-8.7-1.7C86.8 37.8 83 27.2 68 23.2c-8.5-2.2-18 1.4-20.4 2.2" style="fill:#adadb7"/><path d="M28 60.3c-9.8-.6-12.1 4.1-12.4 7.7-.3 4.2 3.7 10.6 11 12 9 1.7 17.2-.7 18.2-9 1-7.8-10.8-10.4-16.8-10.7" style="fill:#dfdfdf"/><path d="M48.7 53.3c0 2.3-1.5 4.2-3 4-1.3 0-2.5-1.7-2.5-4s1.2-3.8 2.6-4c1.8-.3 2.9 1.8 2.9 4" style="fill:#333"/><ellipse cx="25.5" cy="50.3" rx="2.5" ry="3.8" style="fill:#333"/><ellipse cx="35" cy="72" rx="3.2" ry="2.3" style="fill:#333" transform="rotate(-26.3 35.02 72)"/><ellipse cx="22.3" cy="69.9" rx="2.2" ry="3.2" style="fill:#333" transform="rotate(-42.2 22.26 69.93)"/><path d="M40 25.6s-2.9-3.4-9.7-2c-4.9 1-7.2 5.3-9.7 8.2-2 2.5-5.7 3.1-7.5 1.2-1.4-1.4-1.2-2.9-1-4 .6-2.3 3.2-3.7 3.3-4.6.2-1.3-5.9-1.6-8.8 2.9S4.7 39.7 9.2 42.5s9 4.3 15-1 10.7-12 12-13.2c2.4-2.4 3.7-2.7 3.7-2.7m7.8.9s2.9-1.8 7-1c4.7.7 9.2 7 10.7 8.7s5.9 6.9 12.5 4.8c3-1 4.2-3 4.7-5.3.5-3 0-5.2-.4-6.4-.3-.9-1.4-2.6-.1-3.5.9-.6 2.4.1 3.2 1.6a21 21 0 0 1 1.8 11.5c-.9 4.2-6.3 12.5-14.5 12.4s-19-3.5-23.4-8.7-4.1-12.1-1.5-14.1" style="fill:#b79277"/><path d="M21.4 47.2s-1.7 1-4.4 1.1-6-.3-9.3-3.7c-1.7-1.7-3-5.2-3.4-7.3-.6-4.7 1.7-9 1.7-9s-.7 13.4 10.3 14c7.4.4 12.8-8.2 14.9-10s3-1.4 3-1.4-2.4 5.3-5.3 8.3c-3 3-6.6 4.6-7 5.1s-.5 3-.5 3m26.9-21.1c.6-.7-5.3 1.2-4.6 7.3.6 6.1 9 12.9 14.6 15.3 6.9 3 17 4.3 23.6.2 6.5-4 7.8-12.4 6.7-17.3s-4.1-8.4-5.7-8c-1 .4.8 2.1 2 5.1.7 2 .8 5.1.6 6.8q-.7 5.5-3.6 8.2c-2.3 2.5-6 4.1-11.8 3.7-4.9-.3-9.4-2.1-13-4.2A32 32 0 0 1 49 36c-2-2.7-3.8-6.6-.6-9.9" style="fill:#895a4e"/></svg>