<svg xml:space="preserve" width="16" height="16" viewBox="0 0 128 128"><radialGradient id="a" cx="64.1" cy="4.5" r="69.5" gradientTransform="matrix(-1.08 .004 .003 .584 133.4 120.64)" gradientUnits="userSpaceOnUse"><stop offset=".6" style="stop-color:#f5f5f5"/><stop offset="1" style="stop-color:#c6c6c6"/></radialGradient><path d="M64 96c-25.5 0-52 7.3-52 25v3h104v-3c0-17.7-26.5-25-52-25" style="fill:url(#a)"/><path d="M98.9 79.9c-1.2-2.3.3-4.6 3-7.5 4.4-4.5 9-15 4.7-25.8 0 0-.9-1.8-.8-1.9H104a3374 3374 0 0 0-80 0l-2.6 2a25 25 0 0 0 4.7 25.7c2.7 2.9 4.3 5.2 3 7.4s-4.8 2.6-4.8 2.6.8 2.2 2.8 3.5c1.9 1 4.2 1.3 5.7 1.4 0 0 6.2 8.5 22.3 8.5H73c16 0 22.2-8.5 22.2-8.5 1.6 0 3.8-.3 5.7-1.4 2-1.3 2.8-3.5 2.8-3.5s-3.6-.3-4.8-2.6" style="fill:#543930"/><radialGradient id="b" cx="99.6" cy="45.8" r="23.4" gradientTransform="matrix(1 0 0 .491 -21.06 59.63)" gradientUnits="userSpaceOnUse"><stop offset=".7" style="stop-color:#6d4c41;stop-opacity:0"/><stop offset="1" style="stop-color:#6d4c41"/></radialGradient><path d="M64 95.8v-9.4L92.6 84l2.6 3.2s-6.2 8.5-22.3 8.5z" style="fill:url(#b)"/><radialGradient id="c" cx="76.6" cy="49.3" r="6.9" gradientTransform="rotate(155 84.43 60.42)scale(1 .742)" gradientUnits="userSpaceOnUse"><stop offset=".7" style="stop-color:#6d4c41"/><stop offset="1" style="stop-color:#6d4c41;stop-opacity:0"/></radialGradient><path d="M95.1 83.2c-4.3-6.5 5.2-9 5.2-9-1.6 2-2.4 3.9-1.4 5.6 1.2 2.3 4.8 2.6 4.8 2.6s-5 4.3-8.6.8" style="fill:url(#c)"/><radialGradient id="d" cx="94.5" cy="68.9" r="30.4" gradientTransform="rotate(-94.3 89.88 63.27)scale(1 .833)" gradientUnits="userSpaceOnUse"><stop offset=".7" style="stop-color:#6d4c41;stop-opacity:0"/><stop offset="1" style="stop-color:#6d4c41"/></radialGradient><path d="M106.6 46.7c4.3 10.3-.2 21-4.4 25.5-.6.6-3 3-3.6 4.9 0 0-9.5-13.3-12.3-21.1q-1-2.4-1.2-5-.2-2 .9-3.8a111 111 0 0 1 20.1-1.7z" style="fill:url(#d)"/><radialGradient id="e" cx="44.3" cy="68.9" r="30.4" gradientTransform="rotate(-85.7 107.1 .83)scale(1 -.833)" gradientUnits="userSpaceOnUse"><stop offset=".7" style="stop-color:#6d4c41;stop-opacity:0"/><stop offset="1" style="stop-color:#6d4c41"/></radialGradient><path d="M21.4 46.7c-4.2 10.3.2 21 4.4 25.5.6.6 3 3 3.6 4.9 0 0 9.5-13.3 12.4-21.2q.9-2.3 1.1-4.8.1-2.1-.8-3.9c-1-1.3-2-1-3.5-1-2.8 0-15.5-.7-16.4-.7z" style="fill:url(#e)"/><radialGradient id="f" cx="49.4" cy="45.8" r="23.4" gradientTransform="matrix(-1 0 0 .491 98.88 59.63)" gradientUnits="userSpaceOnUse"><stop offset=".7" style="stop-color:#6d4c41;stop-opacity:0"/><stop offset="1" style="stop-color:#6d4c41"/></radialGradient><path d="M64 95.8v-9.4L35.5 84l-2.6 3.2S39 95.8 55 95.8z" style="fill:url(#f)"/><radialGradient id="g" cx="26.4" cy="49.3" r="6.9" gradientTransform="rotate(205 4.68 51.77)scale(-1 .742)" gradientUnits="userSpaceOnUse"><stop offset=".7" style="stop-color:#6d4c41"/><stop offset="1" style="stop-color:#6d4c41;stop-opacity:0"/></radialGradient><path d="M33 83.2c4.2-6.5-5.3-9-5.3-9q2.7 3 1.4 5.6c-1.2 2.3-4.8 2.6-4.8 2.6s5 4.3 8.6.8" style="fill:url(#g)"/><path d="M55 90v21c0 5.3 3.6 9.6 8.2 9.6h1.6c4.6 0 8.3-4.3 8.3-9.6V90z" style="fill:#99674f"/><path d="m52.7 102 3.8 22H72l3.4-22z" style="fill:#81d4fa"/><linearGradient id="h" x1="26.7" x2="26.7" y1="11.3" y2="31.5" gradientTransform="matrix(-1 0 0 -1 104.16 128)" gradientUnits="userSpaceOnUse"><stop offset=".3" style="stop-color:#e0e0e0"/><stop offset=".7" style="stop-color:#d0d0d0"/><stop offset="1" style="stop-color:#bdbdbd"/></linearGradient><path d="M73.1 96.2q8.9.8 8.7 1l3.1 7.2-5.2 4.4 2.8 6.2-5.6 9h-6.8z" style="fill:url(#h)"/><linearGradient id="i" x1="12.8" x2="12.8" y1="11.3" y2="31.5" gradientTransform="matrix(1 0 0 -1 37.76 128)" gradientUnits="userSpaceOnUse"><stop offset=".3" style="stop-color:#e0e0e0"/><stop offset=".7" style="stop-color:#d0d0d0"/><stop offset="1" style="stop-color:#bdbdbd"/></linearGradient><path d="M55 96.2q-8.9.8-8.8 1l-3.1 7.2 5.2 4.4-2.8 6.2 5.6 9H58z" style="fill:url(#i)"/><path d="M33 104.3c1.5-.8 3.3-2 4.2-2.7 2-1.7 6.5-6 9.8-3 3.7 3.2 0 8.3-1.5 10.4q-1 1.6-1.7 3.4" style="fill:none;stroke:#03a9f4;stroke-width:3;stroke-miterlimit:10"/><linearGradient id="j" x1="34" x2="24.6" y1="23.5" y2="12.7" gradientTransform="matrix(1 0 0 -1 0 128)" gradientUnits="userSpaceOnUse"><stop offset="0" style="stop-color:#757575"/><stop offset="1" style="stop-color:#000"/></linearGradient><path d="M29.8 111.4c-.5 0-1 .2-1.6-.3q-.6-.6-.6-2c.1-.9 1-1.2 3-2q2.3-1 4.1-2.2l-1.8-2.3-3.4 1.7c-2 .8-4.5 1.7-4.9 4.3a6 6 0 0 0 5.2 7q2.2-.1 2.4-2.3c.2-2.2-1.4-2.1-2.4-2" style="fill:url(#j)"/><linearGradient id="k" x1="42.8" x2="33.4" y1="15.9" y2="5" gradientTransform="matrix(1 0 0 -1 0 128)" gradientUnits="userSpaceOnUse"><stop offset="0" style="stop-color:#757575"/><stop offset="1" style="stop-color:#000"/></linearGradient><path d="M37 116.8c0 .5-.1 1 .5 1.5.3.3 1.3.6 2.1.3s1-1.1 1.5-3.2l1.6-4.4 2.5 1.5s-.9 2.3-1.1 3.6c-.5 2.1-1 4.6-3.6 5.4a6 6 0 0 1-7.6-4.1q-.4-2.2 1.8-2.7c2.2-.5 2.3 1 2.3 2" style="fill:url(#k)"/><path d="M55.1 93.8a13 13 0 0 0-9.2 3.9l2.3 2c0-.1 2.4-2.8 6.9-3zm31.2 8.7A15 15 0 0 0 73 93v3q1.6.2 4 .9a12 12 0 0 1 6.4 6.7l3.5 7.9 2.8-1.2z" style="fill:#03a9f4"/><linearGradient id="l" x1="87.9" x2="93.2" y1="18.9" y2="7.5" gradientTransform="matrix(1 0 0 -1 0 128)" gradientUnits="userSpaceOnUse"><stop offset="0" style="stop-color:#757575"/><stop offset="1" style="stop-color:#000"/></linearGradient><circle cx="90.2" cy="114.1" r="7" style="fill:url(#l)"/><circle cx="90.2" cy="114.1" r="4" style="fill:#9e9e9e"/><path d="M91.3 50.4H36.7c-6 0-10.7 5.2-10.7 11.4s4.8 11.5 10.7 11.5h54.6c6 0 10.7-5.2 10.7-11.5s-4.8-11.4-10.7-11.4" style="fill:#99674f"/><path d="M64 11c-17.4 0-33.5 18.7-33.5 45.5C30.5 83 47 96.3 64 96.3S97.5 83 97.5 56.5C97.5 29.7 81.4 11 64 11" style="fill:#ba8d68"/><path d="M54.8 49.8c-1-1.2-3-3-7.2-3s-6.3 1.8-7.3 3q-.5 1 0 1.6t2 .4c1.4-.2 2.5-1.2 5.3-1.2s4.5.9 5.3 1.2q1.4.3 2-.4.4-.6-.1-1.6m32.9 0c-1-1.2-3.1-3-7.3-3s-6.3 1.8-7.2 3q-.5 1 0 1.6t1.9.4c1.5-.2 2.5-1.2 5.3-1.2s4.5.9 5.4 1.2q1.3.3 1.9-.4t0-1.6" style="fill:#613e31"/><ellipse cx="47.6" cy="58.8" rx="4.9" ry="5.1" style="fill:#49362e"/><ellipse cx="80.4" cy="58.8" rx="4.9" ry="5.1" style="fill:#49362e"/><path d="M72.4 76.1a26 26 0 0 1-16.8 0c-1.8-1-3.7.6-3 2.3s6.5 5.4 11.4 5.4 10.6-3.8 11.3-5.4-1-3.4-2.9-2.3" style="fill:#5d4037"/><path d="M67.9 68H60q-1 .5-.6 1.7c.3.7 1.7 2.7 4.5 2.7s4.3-2 4.6-2.7q.3-1.2-.7-1.6" style="fill:#99674f"/><path d="M104 25.1c-2.4-3.7-7.8-8.6-12.8-9-.7-4.7-5.8-8.7-10.7-10.2-13.2-4.2-21.8.5-26.4 3-1 .5-7.2 4-11.5 1.5-2.8-1.5-2.7-5.7-2.7-5.7S31.4 7.9 34.3 17a10 10 0 0 0-8.8 5.4c-2.4 5-1.6 9-.9 11A11 11 0 0 0 21.1 46c1.6 4.4 8.2 6.5 8.2 6.5-.5 8 1 13 1.8 15 .1.3.6.2.7-.1 1-4 4.4-17.8 4-20.2 0 0 11.4-2.3 22.2-10.3a32 32 0 0 1 7.1-4c13.6-5.4 16.5 3.8 16.5 3.8S91 35 93.8 48c1 5 1.8 12.8 2.4 18.3 0 .3.6.4.7 0 1-2.1 2.9-6.4 3.3-10.8.2-1.6 4.4-3.6 6.2-10.3 2.4-8.9-.6-17.4-2.3-20" style="fill:#543930"/><radialGradient id="m" cx="82" cy="84.9" r="35.6" gradientTransform="rotate(72 9.13 -9.99)scale(1 -.742)" gradientUnits="userSpaceOnUse"><stop offset=".7" style="stop-color:#6d4c41;stop-opacity:0"/><stop offset="1" style="stop-color:#6d4c41"/></radialGradient><path d="M100.2 55.5c.2-1.5 4.4-3.6 6.2-10.3l.5-2.1a28 28 0 0 0-2.8-18 22 22 0 0 0-11.7-8.8l-1.2-.1s.3 2.1-.5 3.8a5 5 0 0 1-3.4 2.8c12 12 11 22 13 32.7" style="fill:url(#m)"/><radialGradient id="n" cx="47.3" cy="123.8" r="9.3" gradientTransform="rotate(208.2 -17.9 63.62)scale(-1 1.186)" gradientUnits="userSpaceOnUse"><stop offset=".6" style="stop-color:#6d4c41"/><stop offset="1" style="stop-color:#6d4c41;stop-opacity:0"/></radialGradient><path d="m57 7.4-3 1.5c-1 .5-7.1 4-11.5 1.5C40 8.9 40 4.8 40 4.7c-1.3 1.6-5 12.8 5.9 13.5 4.7.3 7.6-3.8 9.3-7.2z" style="fill:url(#n)"/><radialGradient id="o" cx="159.1" cy="62.9" r="28.7" gradientTransform="matrix(-.938 -.394 -.218 .528 231.04 50.68)" gradientUnits="userSpaceOnUse"><stop offset=".7" style="stop-color:#6d4c41;stop-opacity:0"/><stop offset="1" style="stop-color:#6d4c41"/></radialGradient><path d="M79.2 5.5c7.3 2 10.8 5.7 12 10.6.4 1.5.8 15.1-25.2-.4-9.7-5.7-7-9.3-5.9-9.7a31 31 0 0 1 19-.5" style="fill:url(#o)"/><radialGradient id="p" cx="43.5" cy="115.3" r="8.6" gradientTransform="matrix(1 0 0 -1.223 0 153.74)" gradientUnits="userSpaceOnUse"><stop offset=".7" style="stop-color:#6d4c41;stop-opacity:0"/><stop offset="1" style="stop-color:#6d4c41"/></radialGradient><path d="M39.8 4.7c-1 .4-8.3 3.8-5.5 12.3l7.7 1.2c-6.8-7-2-13.5-2-13.5" style="fill:url(#p)"/><radialGradient id="q" cx="42.3" cy="100.1" r="16.1" gradientTransform="rotate(-165 50.18 -32.8)scale(1 -.936)" gradientUnits="userSpaceOnUse"><stop offset=".7" style="stop-color:#6d4c41;stop-opacity:0"/><stop offset="1" style="stop-color:#6d4c41"/></radialGradient><path d="m39 17.7-4.7-.7H33a10 10 0 0 0-7.7 5.4 14 14 0 0 0-1.2 9.4l.4 1.6s2.4-2.3 8-2.4z" style="fill:url(#q)"/><radialGradient id="r" cx="38.5" cy="84.6" r="16.9" gradientTransform="rotate(187.8 -2.58 78.5)scale(-1 1.405)" gradientUnits="userSpaceOnUse"><stop offset=".6" style="stop-color:#6d4c41;stop-opacity:0"/><stop offset="1" style="stop-color:#6d4c41"/></radialGradient><path d="M24.4 33.6a11 11 0 0 0-3.2 12.6c1.7 4.4 8 6.3 8 6.3s1.3.4 2 .4l1.4-22c-3 0-5.9 1-7.8 2.3z" style="fill:url(#r)"/></svg>