<svg xml:space="preserve" width="16" height="16" viewBox="0 0 128 128"><radialGradient id="a" cx="65.1" cy="68.1" r="53.2" gradientTransform="matrix(1 0 0 -1 0 130)" gradientUnits="userSpaceOnUse"><stop offset=".5" style="stop-color:#fde030"/><stop offset=".9" style="stop-color:#f7c02b"/><stop offset="1" style="stop-color:#f4a223"/></radialGradient><path d="M97.9 32.9q-.5-1.5-1.5-2.5a5 5 0 0 0-3.7-1.1c-4.2.5-10.5-.1-14.7-3s-7-6.8-8.8-10.6l-.1-.1a19 19 0 0 1-21.4 4c-.8 7-8.7 12.2-15.4 10a22 22 0 0 1-20.5 17.8l-.9.2q-1.4 6.2-1.4 13.2l.3 5.8a21 21 0 0 1 14 11c3.7 6.4 6.6 4.3 12.9 2.9a32 32 0 0 1 23.6 3.1q1.9 1 3.5 2.6c2.1-2.7 4.6-5.2 11.2-7.4a20 20 0 0 1 16.3 1.5c3-6.3 7-12.3 12.7-16.5 3.6-2.7 9.6-4.2 14.3-4.6h.1c-.2-5.3-1-10.7-2.4-15.4-5.8 1.2-13.4-.1-18.1-10.9" style="fill:url(#a)"/><path d="M116.5 58.2v1.4l1.9-.2q-.3-8.1-2.4-15.4l-1.1.1a58 58 0 0 1 1.6 14.1" style="fill:#eb8f00"/><ellipse cx="42.6" cy="59.5" rx="7" ry="11.5" style="fill:#422b0d"/><path d="M83.8 70.8c3.7 0 7-4.3 7-11.5s-3.4-11.5-7-11.5c-3.7 0-7 4.3-7 11.5-.1 7.2 3.3 11.5 7 11.5" style="fill:#422b0d"/><path d="M60.4 83.8a32 32 0 0 0-23.6-3.1c-6.2 1.4-9.2 3.5-12.9-2.9-6-10.2-13.9-11.5-18.4-11.3-1.1 0-1.6 1.5-.6 2.1a31 31 0 0 1 13.4 18.8s-6.2 7.1-6.6 13.2c-.1.9 1.1 1.4 1.7.8 5.3-5.1 21.2-14.5 32.2-10a26 26 0 0 1 16.8 23.1 2.2 2.2 0 0 0 2.8 1.9c2.9-.9 7.9-1.9 13.4-.8a32 32 0 0 1 15.3 8.5c0-10.6-7.8-16.8-17.3-17.9-1-.1-4.3.5-5.2-5.3-1-7.1-4.9-13.4-11-17.1m59.5-24.5c-4.9 0-11.9 1.7-16 4.7a44 44 0 0 0-12.7 16.5s-7-4.6-16.3-1.5a21 21 0 0 0-11.2 7.4q3.9 3.6 6 8.6c4.7-5.1 12.1-6.4 20.2-6 11.4.7 20.1 8.2 20.1 8.2s-1.9-8.7-11.8-14c4.6-10.1 11.7-18.5 23.2-19.5 1.5-.1 3.8-.2 3.8-1.5.1-1-2.1-2.9-5.3-2.9M108 11.6c.4-.5 1.2-.3 1.2.4.7 8.3-6.2 14.4-6.5 15-.7 1.4 1.4 4.8 2.2 6q2.2 3 5.2 5.2a20 20 0 0 0 11.6 3c.5 0 .7.7.2.9-4.9 2.3-17.4 6.2-24-9.1q-.5-1.5-1.5-2.5a5 5 0 0 0-3.7-1.1c-4.2.5-10.5-.1-14.7-3-9.7-7-12.7-19.8-10.5-23 1-1.5 2.5 10.8 15.1 14.6 14.9 4.5 21.2-1.1 25.4-6.4M67.2 9.5c-4.1 4.3-12.3 7.7-18 5.8 1.7-8-4.1-11.1-4.1-11.1S48.9 15.6 38 22s-20.1-3.5-20.1-3.5c-1.4 7.9 6.4 11.1 6.4 11.1S24.8 40 2.8 44.4c0 0 4.2 6.4 17.5.8 6.3-2.6 10.5-9 12.1-15.6a12.5 12.5 0 0 0 15.4-10c7 3.2 16.1 1.6 21.4-4 0 0-1.3-2.3-2-6.1" style="fill:#fff"/><g style="opacity:.7"><path d="M67.2 9.5c-4.1 4.3-12.3 7.7-18 5.8 1.7-8-4.1-11.1-4.1-11.1S48.9 15.6 38 22s-20.1-3.5-20.1-3.5c-1.4 7.9 6.4 11.1 6.4 11.1S24.8 40 2.8 44.4c0 0 4.2 6.4 17.5.8 6.3-2.6 10.5-9 12.1-15.6a12.5 12.5 0 0 0 15.4-10c7 3.2 16.1 1.6 21.4-4 0 0-1.3-2.3-2-6.1" style="fill:#92cbeb"/></g><path d="M60.4 83.8a32 32 0 0 0-23.6-3.1c-6.2 1.4-9.2 3.5-12.9-2.9-6-10.2-13.9-11.5-18.4-11.3-1.1 0-1.6 1.5-.6 2.1a31 31 0 0 1 13.4 18.8s-6.2 7.1-6.6 13.2c-.1.9 1.1 1.4 1.7.8 5.3-5.1 21.2-14.5 32.2-10a26 26 0 0 1 16.8 23.1 2.2 2.2 0 0 0 2.8 1.9c2.9-.9 7.9-1.9 13.4-.8a32 32 0 0 1 15.3 8.5c0-10.6-7.8-16.8-17.3-17.9-1-.1-4.3.5-5.2-5.3-1-7.1-4.9-13.4-11-17.1" style="opacity:.8;fill:#d5ebf5"/><path d="M119.9 59.3c-4.9 0-11.9 1.7-16 4.7a44 44 0 0 0-12.7 16.5s-7-4.6-16.3-1.5a21 21 0 0 0-11.2 7.4q3.9 3.6 6 8.6c4.7-5.1 12.1-6.4 20.2-6 11.4.7 20.1 8.2 20.1 8.2s-1.9-8.7-11.8-14c4.6-10.1 11.7-18.5 23.2-19.5 1.5-.1 3.8-.2 3.8-1.5.1-1-2.1-2.9-5.3-2.9" style="opacity:.8;fill:#92cbeb"/><path d="M108 11.6c.4-.5 1.2-.3 1.2.4.7 8.3-6.2 14.4-6.5 15-.7 1.4 1.4 4.8 2.2 6q2.2 3 5.2 5.2a20 20 0 0 0 11.6 3c.5 0 .7.7.2.9-4.9 2.3-17.4 6.2-24-9.1q-.5-1.5-1.5-2.5a5 5 0 0 0-3.7-1.1c-4.2.5-10.5-.1-14.7-3-9.7-7-12.7-19.8-10.5-23 1-1.5 2.5 10.8 15.1 14.6 14.9 4.5 21.2-1.1 25.4-6.4" style="opacity:.8;fill:#d5ebf5"/></svg>