<svg xml:space="preserve" width="16" height="16" viewBox="0 0 128 128"><linearGradient id="a" x1="64" x2="64" y1="33.8" y2="5.9" gradientTransform="matrix(1 0 0 -1 0 128)" gradientUnits="userSpaceOnUse"><stop offset="0" style="stop-color:#00bfa5"/><stop offset=".5" style="stop-color:#00b29a"/><stop offset="1" style="stop-color:#009e89"/></linearGradient><path d="M80.7 88.5a346 346 0 0 0-33.4 0C29.3 92 16 101 16 118v6.1h96V118c0-17-13.2-26-31.3-29.4" style="fill:url(#a)"/><path d="M55 93.9v10c0 4.4 4.3 8.1 9 8.1s9-3.7 9-8.2v-10zm36.3-35.5H36.7c-6 0-10.7 5.2-10.7 11.4s4.8 11.5 10.7 11.5h54.6c6 0 10.7-5.2 10.7-11.5s-4.8-11.4-10.7-11.4" style="fill:#c48e6a"/><path d="M64 19c-17.4 0-33.5 18.7-33.5 45.5C30.5 91 47 104.3 64 104.3S97.5 91 97.5 64.5C97.5 37.7 81.4 19 64 19" style="fill:#e0bb95"/><path d="M67.8 78h-7.6q-1.1.5-.7 1.7a5 5 0 0 0 4.5 2.6c2.8 0 4.2-2 4.5-2.6q.4-1.2-.7-1.6" style="fill:#c48e6a"/><path d="M56.7 91.8a26 26 0 0 1 14.6 0c.8.2 1.2-.6.7-1.4-.8-1.2-3.7-3.5-8-3.5s-7.2 2.3-8 3.5c-.5.8-.1 1.6.7 1.4" style="fill:#6d4c41"/><path d="M43.3 68.3q0-.8.3-1.5l3.1-.7q2.5-.8 4-2.2a6 6 0 0 1 1.6 4.4c0 3-2.1 5.5-4.6 5.5s-4.4-2.5-4.4-5.5m41.4 0q0-.8-.3-1.5l-3.1-.7q-2.5-.8-4-2.2-1.6 1.6-1.6 4.4c0 3 2.1 5.5 4.6 5.5s4.4-2.5 4.4-5.5" style="fill:#5d4037"/><path d="M55.4 58.3c-1.2-1.1-3.8-2.6-8.2-1.8s-6.4 3.2-7.2 4.7q-.4 1.2.3 1.7.6.7 2 0c1-.4 2.6-1.7 5.5-2.3 3-.6 5 0 6 .2s1.7-.4 1.9-.8q.4-.9-.3-1.7m32.6 3c-.8-1.6-2.7-4-7.2-4.8s-7 .7-8.2 1.8q-.7.9-.3 1.7c.2.4 1 1 2 .8s2.9-.7 5.9-.2c3 .6 4.6 1.9 5.5 2.4q1.4.6 2 0t.3-1.7M64 11.5c-45.5.2-36.2 52.2-36.2 52.2l3 7.7q.3.5.7 0a309 309 0 0 1 6.2-24.5 6 6 0 0 1 6.8-3.8A111 111 0 0 0 64 44.9h.2c7.8 0 14.9-1 19.3-1.8a6 6 0 0 1 6.8 3.8c1.8 4.7 5.2 20 6.2 24.4.1.3.6.4.7 0l3-7.6s9.4-52-36-52.2" style="fill:#ab872f"/><radialGradient id="b" cx="64" cy="73.4" r="38.1" gradientTransform="matrix(1 0 0 -1.128 0 137.41)" gradientUnits="userSpaceOnUse"><stop offset=".8" style="stop-color:#bfa055;stop-opacity:0"/><stop offset="1" style="stop-color:#bfa055"/></radialGradient><path d="M100.2 63.7s9.3-52-36.2-52.2l-6 .4h-.3c-38.3 4.8-29.8 51.8-29.8 51.8l3 7.6c0 .4.6.3.6 0 1-4.4 4.5-19.7 6.3-24.4a6 6 0 0 1 6.7-3.8A111 111 0 0 0 64 44.9h.2c7.8 0 14.9-1 19.3-1.8a6 6 0 0 1 6.8 3.8 273 273 0 0 1 6.2 24.4q.3.6.7 0z" style="fill:url(#b)"/></svg>