<svg xml:space="preserve" width="16" height="16" viewBox="0 0 128 128"><path d="m71.5 84.6-9.4-17-23.2 8.9s-1.1 1.4-1 4l.7 4.3-4.3.6S28 90.6 30 98.7a59 59 0 0 0 3 9.4l-.8 6s13.8 6 27.2 5.6c17.2-.5 23.7-9.6 23.7-9.6L78.5 89z" style="fill:#845a54"/><path d="M31.7 86.6a8 8 0 0 0-2.2 5.8c.4 2.5 4.1 9.2 8.3 9 4-.4 2.1-8.6.8-11.6s-3.7-6.2-7-3.2M20.5 119c-.2 2 2.1 2 6.5 2s14.7-.8 14.7-.8l-.8-5.8s-2.6.2-6.2-1.8c-1.5-.8-2-1.8-2-1.8s-12 4-12.2 8.1" style="fill:#b5885e"/><path d="M51.6 80.5s-4.6-.2-8 3.8c-2.2 2.5-6.7 14.7-3.4 16.3s5.5-4.2 6.8-7c1-2.5 3.1-5.4 5-6.4l3.2-2zM44 113.3s-1.6 0-3.2.6-10.5 4.8-10.4 7.2 5.5 2.4 12.2 2.3c6.8-.1 8.6-1.5 9.1-2s2.8-3.5 2-3.9z" style="fill:#ffcd88"/><path d="M69 70.2s5.3-4.6 7.3-9 2-8.6 2-8.6 10-2.6 7.5-15c-2.2-10.4-10.6-8.2-10.6-8.2s-5.7-12-21.1-15.2-28.9 4.3-34.6 12c-6.5 9-5.4 20.4-5.4 20.4s-5-.5-7.4 4C4.3 55.3 5 63 9.6 66.4s11.5 2.5 11.5 2.5 5 5.3 10.5 7.6c5.8 2.4 11.3 2.8 18 2s12-4 12-4-.3 1.8 1 4.3c.7 1.5 3.3 4.4 3.3 4.4s-4.3-2.3-7.7-2.9q-5.4-.9-7.5.5c-1 .6.3 5.7 1.9 6s4.2-.5 8.8 1.3 10.5 6 12 7 4.6 2.5 4.8 4.5c.2 1.6-2.4 3.7-6.9-1-4.3-4.3-8.5-8.5-13.2-9.1s-7.6.6-9.8 5.3c-2.7 6-5 13.4-5.5 15.2-.5 2-1.8 3-.7 4.7.7 1.3 8.6 5.9 10.5 5.7 2.3-.1 4.2-5 4.8-5.8L59 112s4.2 9.8 12.9 9 10-6.4 10-6.4 6.7.4 14-1.7c9.6-2.7 16.2-11.5 18.2-25.7a82 82 0 0 0-5.1-37.6c-1.8-4.6-3.9-10-5.2-13.8-3.4-9.7-4.6-16.6 1-18.7 2.8-1 4.6.2 5.4 1.8 1.1 2.2 1.3 5 4.9 6.4 2.5 1 5.7.2 7.1-2.2q2.8-4.6-2.6-12.1a17 17 0 0 0-23.2-3.1c-6.3 4.8-9 11.1-6 23 3 11.2 9.4 25.4 10.8 32.3 1.9 9.3 3.6 32.1-8 36.8-5.3 2.1-9.3 1.3-9.3 1.3s-1-10.7-4.3-18.4C75.8 74 69 70.2 69 70.2" style="fill:#b5885d"/><path d="M71.4 35.3c-.2.2.9 3.1 1.3 6.2.4 3.4.6 6.6.8 6.7.6.2 9-1.9 7.9-9.6s-9.7-3.8-10-3.3m-56.8 16c-.8-.6-5.6.8-5 6.3.8 7.1 7.8 7.1 8.5 6.6.3-.2-1-3.5-2-6.6-.8-3-1.2-6-1.5-6.3m26.6-14.9c-4.5 1.5-10.8-5.8-16.2 0-6.7 7 1.2 13.3 1.9 18.2.3 3-1.3 5.2.3 10.3 1.5 4.2 9.3 10.5 23.5 7.6C64.1 69.8 67.2 61.3 66.8 56c-.3-5.9-3.1-6.2-3.7-9.2s2.6-14.8-6.6-17.3C47 27 46.1 34.7 41.2 36.4" style="fill:#ffcf8c"/><path d="M56.9 43.6c.5 3.4.2 5.6-2.2 6.2-2.9.6-4.7-1.3-5.3-4.8-.7-4.2.2-6.1 2.4-6.6 2.7-.4 4.4 1 5 5.2m-18.9 3.3c.6 3.2.7 6-1.8 6.8q-4 .8-5.5-4.5c-1-4-.7-6.4 1.7-7 2.4-.8 4.6-.3 5.6 4.7m3.4 5.6c0 1.7 2.8 3.6 4.4 3.4S49 52 48.5 51c-.7-1.3-7.3 0-7.2 1.4" style="fill:#000504"/><path d="M34.7 62.9c.3 2.2 5 5.6 13.8 4 9-1.9 10.3-7.3 10.2-8.7s-4.7-2-12.5-.7c-6.2 1-11.7 3.6-11.5 5.4" style="fill:#ff6b19"/></svg>