<svg xml:space="preserve" width="16" height="16" viewBox="0 0 128 128"><linearGradient id="a" x1="62" x2="62" y1="102.8" y2="27.3" gradientTransform="matrix(1 0 0 -1 0 128)" gradientUnits="userSpaceOnUse"><stop offset="0" style="stop-color:#757575"/><stop offset=".5" style="stop-color:#504f4f"/></linearGradient><path d="M82.3 75h5.3q1.8.1 2 2v6q-.2 2-2 2.1h-5.3a2 2 0 0 0-2.1 2V100c0 1.1-1 2-2 2h-8.6a2 2 0 0 1-2-2V87.2q-.2-2-2.2-2.1H36.6a2 2 0 0 1-2-2l-.2-5q0-.8.3-1.3L66.5 27q.6-1 1.7-1h10c1 0 2 1 2 2v45c0 1 1 2 2 2m-31 0h14.2c1.1 0 2-1 2-2.2V43.2l-1 1.6-16.9 27a2 2 0 0 0 1.8 3.1" style="fill:url(#a)"/></svg>