<svg xml:space="preserve" width="16" height="16" viewBox="0 0 128 128"><linearGradient id="a" x1="64" x2="64" y1="101.5" y2="25.4" gradientUnits="userSpaceOnUse"><stop offset=".5" style="stop-color:#504f4f"/><stop offset="1" style="stop-color:#757575"/></linearGradient><path d="M86.6 46.5q0 5.4-2.8 9.7c-2.8 4.3-4.4 5-7.6 6.7q5.8 2.6 9 7.4 3 4.6 3 10.5 0 9.8-6.6 15.5C75 102 71.4 102 64.1 102q-11.1 0-17.7-5.7c-6.6-5.7-6.6-9-6.6-15.5q0-6 3.1-10.6c3.1-4.6 5-5.6 8.9-7.3a19 19 0 0 1-7.6-6.7q-2.7-4.2-2.7-9.7 0-9.4 6-15Q53.7 26.1 64 26t16.5 5.5c6 5.5 6.1 8.7 6.1 15M76 80.2q0-5.5-3.3-8.9C69.3 68 67.6 68 64 68s-6.5 1-8.7 3.3a12 12 0 0 0-3.2 9q0 5.3 3.2 8.6c3.2 3.3 5 3.2 8.8 3.2q5.5 0 8.7-3.1 3-3.1 3-8.8M74.3 47q0-4.8-2.8-8c-2.8-3.2-4.4-3-7.5-3s-5.6.9-7.5 2.9-2.7 4.7-2.7 8q0 5.2 2.8 8.2c2.8 3 4.3 3 7.5 3s5.6-1 7.4-3q2.8-3 2.8-8.1" style="fill:url(#a)"/></svg>