<svg xml:space="preserve" width="16" height="16" viewBox="0 0 128 128"><path d="M92 102.4s-1.4-2.3-2.8-2.3-6.3-1-7.6 6.6 3.3 14.2 3.3 14.2-.1-1.7.2-4c1.5 3.8 3.2 6.8 3.2 6.8s3.5-6.2 4.8-12.3c.7-3.4.6-6.8-1.1-9" style="fill:#543930"/><radialGradient id="a" cx="99.3" cy="19.8" r="18.5" gradientTransform="matrix(1 0 0 -1 0 130)" gradientUnits="userSpaceOnUse"><stop offset=".9" style="stop-color:#6d4c41;stop-opacity:0"/><stop offset="1" style="stop-color:#6d4c41"/></radialGradient><path d="M92 102.4s-1.4-2.3-2.8-2.3-6.3-1-7.6 6.6 3.3 14.2 3.3 14.2-.1-1.7.2-4c1.5 3.8 3.2 6.8 3.2 6.8s3.5-6.2 4.8-12.3c.7-3.4.6-6.8-1.1-9" style="fill:url(#a)"/><radialGradient id="b" cx="75.3" cy="19.6" r="18.5" gradientTransform="matrix(1 0 0 -1 0 130)" gradientUnits="userSpaceOnUse"><stop offset=".8" style="stop-color:#6d4c41;stop-opacity:0"/><stop offset="1" style="stop-color:#6d4c41"/></radialGradient><path d="M92 102.4s-1.4-2.3-2.8-2.3-6.3-1-7.6 6.6 3.3 14.2 3.3 14.2-.1-1.7.2-4c1.5 3.8 3.2 6.8 3.2 6.8s3.5-6.2 4.8-12.3c.7-3.4.6-6.8-1.1-9" style="fill:url(#b)"/><linearGradient id="c" x1="65.6" x2="65.6" y1="34.4" y2="7.6" gradientTransform="matrix(1 0 0 -1 0 130)" gradientUnits="userSpaceOnUse"><stop offset="0" style="stop-color:#a47b62"/><stop offset=".5" style="stop-color:#ba8d68"/></linearGradient><path d="M74.6 91.7h-7.4l.8 27.8-9 1q-2.3.4-2.4 1.6c-.1 1.2 1.2 1.6 2.4 1.6h11.9c1.6 0 2.8-1.4 2.8-3z" style="fill:url(#c)"/><linearGradient id="d" x1="92.2" x2="120.8" y1="50.2" y2="39.5" gradientTransform="matrix(1 0 0 -1 0 130)" gradientUnits="userSpaceOnUse"><stop offset="0" style="stop-color:#a47b62"/><stop offset=".5" style="stop-color:#ba8d68"/></linearGradient><path d="m122.4 87.8-3.3-1.4c-.3 0-.2-.4 0-.3l2 .4q1 .2 1.1-.4.4-.8-.6-1.1l-3.2-1-3-1.1q-.7-.3-2 .2l-9.9-5.1-.9-.4-16.8-4a3.8 3.8 0 0 0-1.7 7.4l16.8 3 10 4c0 1.4 1 2.1 1.5 2.6.5.7 1.3 2.3 1.3 3-.1.4.6.8.9.7q.6-.2.6-1.3c0-.4 0-1.3-.4-1.7q-.2-.3.1-.4l4.6 3q.9.3 1.3-.4.3-.7-.4-1.1l-2.9-2.2q-.1-.2.2-.2l3.8 1.8q.7.4 1.1-.2.3-.8-.5-1.3l-4-2c-.1 0 0-.4.2-.3l3.4 1.2q.8.4 1.2-.3.4-.9-.6-1.1" style="fill:url(#d)"/><linearGradient id="e" x1="79.9" x2="67.4" y1="45.1" y2="63.2" gradientTransform="matrix(1 0 0 -1 0 130)" gradientUnits="userSpaceOnUse"><stop offset="0" style="stop-color:#651fff"/><stop offset=".7" style="stop-color:#5914f2"/><stop offset="1" style="stop-color:#530eeb"/></linearGradient><path d="M85.6 72.7q-.7 0-1.5-1.2l-7.5-10.9L58.1 73l7.7 11.3c.6.8.5 2 .6 3l.2 8.3H75l.1-8.2s1.5-1 3.7-2.8l4.3-3.3 8.7 1.8 1.8-8.4z" style="fill:url(#e)"/><linearGradient id="f" x1="69.4" x2="78.2" y1="86.1" y2="123.5" gradientTransform="matrix(1 0 0 -1 0 130)" gradientUnits="userSpaceOnUse"><stop offset="0" style="stop-color:#a47b62"/><stop offset=".5" style="stop-color:#ba8d68"/></linearGradient><path d="M85.5 6.3c0-1-.7-1-2-1.1L74 4.3a3 3 0 0 0-3.2 2.8l-.4 3.7-3 22.2-6.7 22.7 11.7 3 5-23.3L79 13l1-.3c.5 0 2 .5 2.4-.2s-.1-1-.3-1c.2 0 .9.2 1-.3.4-.7-.4-1-.4-1s1 .2 1.3-.4-.7-1-.7-1 1.2.2 1.4-.5q0-.8-.5-1 1.2.3 1.4-1" style="fill:url(#f)"/><linearGradient id="g" x1="46.1" x2="8.7" y1="72" y2="83.2" gradientTransform="matrix(1 0 0 -1 0 130)" gradientUnits="userSpaceOnUse"><stop offset="0" style="stop-color:#a47b62"/><stop offset=".5" style="stop-color:#ba8d68"/></linearGradient><path d="M36.7 50.5s-19.3-7.1-21.2-8.2l-3-1.8q-2.3-.9-3.4 1.5l-3.7 9c-.5 1.2-.7 1.9.2 2.3Q6.7 54 7 53q-.1.4.7.6c.7.1 1-.9 1-.9s-.1.8.6 1c.7 0 1-1 1-1s-.1.8.6.9.8-.9.8-1c0 .1 0 .8.5.8.9 0 1-1.7 1.2-2.1l.4-.9 20.3 10 .5.1L57 68.3l3.5-11.7z" style="fill:url(#g)"/><path d="M76.5 81.6a3 3 0 0 1 4.2.4l1.8 2-4.5 4-1.8-2.1a3 3 0 0 1 .3-4.3m4.9 17.9 1.6-1.3 8.8-6.9 1.7-1.2c1.3-1 1.5-3 .4-4.4s-3-1.8-4.3-.8L88 86.2l-9 6.9-1.6 1.2c-1.3 1-1.5 3-.4 4.5s3 1.7 4.3.7" style="fill:#99674f"/><path d="m77.3 61.7-3.3-5 2.4-10.6-13.2-3.5-3.6 12.6-11.4-3.3-4 13.3L55.4 69l3.4 5z" style="fill:#7c7c7c"/><path d="M93.6 102.7c3.8-3 5.2-8.5.5-14.6-3.8-4.8-9-5.3-12.4-4.2q-1 .3-2 1-.8.6-1.5 1.7c-1.9 3-2.6 8.1 1.1 13 4.7 6 10.5 6.1 14.3 3.1" style="fill:#ba8d68"/><path d="M81.4 90.8c.3-1 2.6-2.7 3.7-2.9.6 0 .7-.7.2-1-.4-.2-2.3 0-3.4.8s-1.7 2.6-1.6 3.1c.2.5.9.6 1 0" style="fill:#5d4037"/><path d="m83.8 91.8 1.6-1.2q.2-.5 0-.6c-.3 0-.9-.3-1.5.2s-.6 1.2-.6 1.4q.1.3.5.2" style="fill:#99674f"/><circle cx="89.8" cy="90.4" r="1.4" style="fill:#49362e" transform="rotate(-37.8 89.82 90.4)"/><circle cx="82.6" cy="96" r="1.4" style="fill:#49362e" transform="rotate(-37.8 82.6 96.02)"/><path d="M89.8 93.7c.4 0 1.2.1 2.1-.6s1-1.5 1-2q0-.2-.2-.3l-.5.3q0 .4-1 1.2l-1.3.6q-.3.1-.4.4t.3.4m-7.2 5.6q.7.3 2-.6c1.4-.9 1.2-1.5 1.2-2l-.3-.3q-.2 0-.5.3 0 .4-1 1.2l-1.4.6q-.3.2-.3.4t.3.4" style="fill:#613e31"/><path d="M95 104.2c7.8-6.4 3-16.3-2.6-17.9 0 0 2.6 3.5 1 6-3.2 4.6-3.8 8.6-3.8 8.6-1.8-.8-4.8-.3-6-.2-.9.1-5.1-2.3-5.1-2.3.5 4.9 9.3 11.7 16.5 5.8" style="fill:#543930"/><radialGradient id="h" cx="7502" cy="-2774.2" r="13.5" gradientTransform="rotate(136.8 3455.14 5.02)scale(.796 -.809)" gradientUnits="userSpaceOnUse"><stop offset=".8" style="stop-color:#6d4c41;stop-opacity:0"/><stop offset="1" style="stop-color:#6d4c41"/></radialGradient><path d="M95 104.2c7.8-6.4 3-16.3-2.6-17.9 0 0 2.6 3.5 1 6-3.2 4.6-3.8 8.6-3.8 8.6-1.8-.8-4.8-.3-6-.2-.9.1-5.1-2.3-5.1-2.3.5 4.9 9.3 11.7 16.5 5.8" style="fill:url(#h)"/></svg>