<svg xml:space="preserve" width="16" height="16" viewBox="0 0 128 128"><path d="M119.3 9.3c-9.9-11.8-43.5 3.6-50.8 7.2S45.3 28 40 32.5c-4 3.2-6 7.4-8.6 9s-7.2 3.1-10 5.5c-2.8 2.5-2.4 6.4-4.9 8.9C14.2 58.3 2.7 63.4 4 77.3c1 11.2 9.2 12 12 17s4 16.4 12.8 22.2c8.3 5.5 15.5 2.6 23.4 3s7 4.9 13.3 4.3c7.8-.7 15.2-9.4 17-10 1.6-.5 7 1.4 10.6-.7 9.2-5.4 9-12.6 11.3-18.6s9.8-7.3 11-14.2c1.4-7-.9-17.5.5-24.6S130 22 119.3 9.3" style="fill:#87716b"/><path d="M27.2 51.8s-6.8 4.3-10 7.7C14 62.8 6.7 67.7 8 76.3s10.2 10.7 13.2 17 4.5 19.3 14.6 22 8.2-7.6 15.4-7.4c9 .2 6.2 12.2 14.6 11.8s8.3-10.3 14.3-10.9 8.1 3.2 13-.2c7-5 4.6-13.6 6.7-17.3 2.8-5.1-4.1-30.7-4.1-30.7L52.2 43z" style="fill:#9ea5a6"/><path d="M64.5 37.3s-32.8 4.1-39.6 13-14.3 18.5-13 26.4C13.7 86.8 20.7 86 25 92s7 17.6 13.5 19 6.6-7.5 13.9-7.5 7.9 12 13.5 11.8 6.6-6.4 11.5-9c4.8-2.7 9.7 3.5 15.2-1.2 5.4-4.6 3.7-10.6 6.4-14.7 3.7-5.6-.4-40.1-.4-40.1L78 33.2z" style="fill:#ccc"/><path d="m49.5 49-9 1.2c-3.6.6-8.8 1.7-12.8 5.5s-9.5 12.6-9.4 13.7 17.5 3.5 17.5 3.5zM16.7 79s9.7 0 10.6.8c.8.7 3.2 5.7 6.7 9.5 4.8 5.2 11.4 6.8 11.5 7.8.2 1-3.8 10.3-6.3 9.7s-4-6.8-10-14.1-10.5-8-12.5-13.6M57.8 98c-.5.2.6 4 2 8.2.5 1.8 3.8 6.9 7 5.5 2.5-1 2.5-5 2-8.6-.6-4.2-1.8-8-2.3-7.8q-1 .5-4.4 1.5zm14.9-7c-.4.4 4.5 6.2 5.4 7.4 1.4 1.8 3 3.6 6.5 3.7s6.1-1 6.1-2.2-3.5-5-6.3-9.2c-.8-1.2-4.2-6-4.5-6s-1.8 2-3 3zm13.7-12.4c-.6.9 12 8.6 13.3 8.5.7 0 .7-6.6.6-13.1 0-4.7-.5-13.4-.7-12.5s-3 5.6-5.8 9.2c-3 3.7-6.8 7-7.4 8" style="fill:#f3f1f6"/><path d="M108.9 29.6s-1 14.5-8.4 24.8S73.3 91 50.3 91c-19.4.1-24.7-13.6-19.1-24.6S50.8 50 50.8 50L104 29.3z" style="fill:#f2a764"/><path d="M92.9 19.7s-23.4 6.1-40.7 21.8-25.8 26.2-17 34.9 27 5.2 40.2-5a91 91 0 0 0 27.2-33c3-6.4 3.1-9 3.1-9s-5.5.2-9.5-3.9c-2.8-3-3.4-5.9-3.4-5.9" style="fill:#ffd2b1"/><ellipse cx="72.8" cy="38.3" rx="15.4" ry="15.3" style="fill:#e1e2e1"/><path d="M72.7 50.4c6.9.1 12.7-5.3 12.1-12.6s-12.7 1-14.5 1.6c-1.7.5-10.1-3.4-9.5 1 .7 4.5 4 9.9 11.9 10" style="fill:#f1f2f2"/><path d="M61.8 32.8q-.4.6-1 3.4c-.2 1.9 0 3.7 0 3.7s4.9 3.4 12.3 3c7.8-.4 11.5-5.5 11.5-5.5s0-1.7-.8-4c-.7-2.2-2-3-2-3s-3.6 5.4-10.1 5.4a18 18 0 0 1-9.9-3" style="fill:#ccc"/><path d="M70.5 26.5c-4.6.6-7.4 3.8-7.1 4.8.2 1.1 4.6 3 9 2.2C77 32.7 79 30 79 29c-.1-1-3.2-3.3-8.6-2.5" style="fill:#fff"/></svg>