<svg xml:space="preserve" width="16" height="16" viewBox="0 0 128 128"><path d="M53.1 3.5c-41 0-40.7 37.9-40.7 38.5 0 24.5 2 59.2 11.7 72.9 4 5.4 11.5 5.7 11.5 5.7h34s7.5-.3 11.4-5.7c9.8-13.7 11.7-48.4 11.7-73 0-.5 1.4-38.4-39.6-38.4" style="fill:#232020"/><radialGradient id="a" cx="52.6" cy="69" r="47.5" gradientTransform="matrix(1 0 0 -1.19 0 141.11)" gradientUnits="userSpaceOnUse"><stop offset=".8" style="stop-color:#444140;stop-opacity:0"/><stop offset="1" style="stop-color:#444140"/></radialGradient><path d="M53.1 3.5c-41 0-40.7 37.9-40.7 38.5 0 24.5 2 59.2 11.7 72.9 4 5.4 11.5 5.7 11.5 5.7h34s7.5-.3 11.4-5.7c9.8-13.7 11.7-48.4 11.7-73 0-.5 1.4-38.4-39.6-38.4" style="fill:url(#a)"/><radialGradient id="b" cx="53.3" cy=".3" r="68.2" gradientTransform="matrix(1 0 0 -.604 0 127.89)" gradientUnits="userSpaceOnUse"><stop offset=".6" style="stop-color:#f5f5f5"/><stop offset="1" style="stop-color:#c6c6c6"/></radialGradient><path d="M52 96.5c-23.7 0-48.2 7.3-48.2 25v3H100v-3c0-17.7-24.5-25-48-25" style="fill:url(#b)"/><linearGradient id="c" x1="87.9" x2="102.4" y1="13.1" y2="11.1" gradientTransform="matrix(1 0 0 -1 0 128)" gradientUnits="userSpaceOnUse"><stop offset="0" style="stop-color:#9e9e9e;stop-opacity:0"/><stop offset=".8" style="stop-color:#9e9e9e"/></linearGradient><path d="m90 105.1-5.8 19.5H100v-3c0-7.1-3.8-12.5-10-16.5" style="fill:url(#c)"/><path d="M52 92.5h-9v10c0 4.5 3.6 8.2 8.2 8.2h1.6c4.6 0 8.3-3.7 8.3-8.2v-10z" style="fill:#3c2b24"/><linearGradient id="d" x1="52.2" x2="52.2" y1="22.3" y2="3.3" gradientTransform="matrix(1 0 0 -1 0 128)" gradientUnits="userSpaceOnUse"><stop offset="0" style="stop-color:#80cbc4"/><stop offset=".3" style="stop-color:#73c6be"/><stop offset=".9" style="stop-color:#51b8ae"/><stop offset="1" style="stop-color:#4db6ac"/></linearGradient><path d="M62.8 105.7H41.6l2.5 18.8h16.5z" style="fill:url(#d)"/><linearGradient id="e" x1="38.7" x2="38.7" y1="10.7" y2="30.9" gradientTransform="matrix(1 0 0 -1 0 128)" gradientUnits="userSpaceOnUse"><stop offset=".3" style="stop-color:#e0e0e0"/><stop offset=".7" style="stop-color:#d0d0d0"/><stop offset="1" style="stop-color:#bdbdbd"/></linearGradient><path d="M43 96.8q-8.7.8-8.6 1l-3.2 7.2 5.3 4.4-4.9 6.1 7.1 9h7.4z" style="fill:url(#e)"/><linearGradient id="f" x1="38.6" x2="38.6" y1="10.7" y2="30.9" gradientTransform="matrix(-1 0 0 -1 104.16 128)" gradientUnits="userSpaceOnUse"><stop offset=".3" style="stop-color:#e0e0e0"/><stop offset=".7" style="stop-color:#d0d0d0"/><stop offset="1" style="stop-color:#bdbdbd"/></linearGradient><path d="M61.2 96.8q8.9.8 8.7 1L73 105l-5.2 4.4 4.9 6.1-7.2 9h-7.3z" style="fill:url(#f)"/><path d="M122.3 74c1.2 7.8 0 16.9 0 16.9l-10.4-1s-.3-5.8 0-5.8z" style="fill:#80cbc4"/><linearGradient id="g" x1="98" x2="123.7" y1="22.8" y2="19.4" gradientTransform="matrix(1 0 0 -1 0 128)" gradientUnits="userSpaceOnUse"><stop offset=".4" style="stop-color:#f5f5f5"/><stop offset="1" style="stop-color:#c6c6c6"/></linearGradient><path d="M112 88.4c-6.7-.9-9.6-1.7-9.6-1.7l-11.3 37.8h28.1l4.2-36.2s-3.2 1-11.4 0" style="fill:url(#g)"/><linearGradient id="h" x1="118.6" x2="96.1" y1="75.4" y2="22.7" gradientTransform="matrix(1 0 0 -1 0 128)" gradientUnits="userSpaceOnUse"><stop offset="0" style="stop-color:#b3e5fc;stop-opacity:.8"/><stop offset=".1" style="stop-color:#aee3fc;stop-opacity:.8165"/><stop offset=".7" style="stop-color:#8dd8fa;stop-opacity:.9349"/><stop offset="1" style="stop-color:#81d4fa"/></linearGradient><path d="M110.5 113.1c-2.3 1.4-9.1.2-15.8-2.2-5-1.9-9.2-4.2-9.2-4.2-.6-.2-5.5-3-5.5-5.7 0-2.4 2-4 2.4-4.5h.1L100 78.7 113 47s2.4-.8 5.7.5 5 3.5 5 3.5l-11.9 32.6V109c0 2.7-.3 3.5-1.4 4.1" style="opacity:.86;fill:url(#h)"/><radialGradient id="i" cx="112.4" cy="39.9" r="25.4" gradientTransform="rotate(193.3 1.94 51.9)scale(-1 1)" gradientUnits="userSpaceOnUse"><stop offset="0" style="stop-color:#ce93d8"/><stop offset=".2" style="stop-color:#ca8ad5"/><stop offset=".5" style="stop-color:#bf73cc"/><stop offset="1" style="stop-color:#ad4cbe"/><stop offset="1" style="stop-color:#ab47bc"/></radialGradient><path d="m106.9 111.6-23-9.2c-1.6-.6-2-2.6-.8-3.7l7.4-7.5 19.5-1v19.2c0 1.6-1.6 2.8-3.1 2.2" style="opacity:.8;fill:url(#i)"/><path d="M99.4 97.3h2v6.8h-2z" style="fill:#fff" transform="rotate(-67.3 100.37 100.67)"/><path d="M101.4 91.8h2v6.8h-2z" style="fill:#fff" transform="rotate(-67.3 102.4 95.22)"/><path d="M103.4 86.4h2v6.8h-2z" style="fill:#fff" transform="rotate(-67.3 104.42 89.79)"/><path d="M105.4 81h2v6.8h-2z" style="fill:#fff" transform="rotate(-67.3 106.44 84.35)"/><path d="M107.5 75.5h2v6.8h-2z" style="fill:#fff" transform="rotate(-67.3 108.46 78.9)"/><path d="M109.5 70.1h2v6.8h-2z" style="fill:#fff" transform="rotate(-67.3 110.48 73.47)"/><path d="M111.5 64.6h2v6.8h-2z" style="fill:#fff" transform="rotate(-67.3 112.5 68.03)"/><path d="M114 58.3h2v6.8h-2z" style="fill:#fff" transform="rotate(-67.3 115.01 61.7)"/><path d="M116 52.9h2v6.8h-2z" style="fill:#fff" transform="rotate(-67.3 117.04 56.26)"/><path d="M98.7 80.1s-2.5-2.1-2.5-4c0-1.7 2-3.1 2-3.1s-1.9-2.8-1.2-4.3c1-2.2 3.4-2.6 3.4-2.6s-1.1-2.8.6-4.4c1.3-1.2 5-.7 5-.7s.3-4.6 4.8-3.4c1.7.4 7.9 4 10.2 11.5 1.4 4.6 2 6 1.5 13-.2 3-7.7 3-10.5 2-7-2.6-9-5.7-10-5.7s-3.3 1.7-3.3 1.7" style="fill:#80cbc4"/><path d="M99.6 71.2q-1.1.3-1.4 1.5l-.1.3 4.2-1.5q-1.6-.5-2.7-.3m5.1-4.8q-.9-.9-1.8-1.2-1.6-.5-2.5 1zm3.3-6q-1.2-.4-2 .5v.1a22 22 0 0 1 4.4 1.3q-1-1.5-2.4-2" style="fill:#26a69a"/><ellipse cx="96" cy="105.7" rx="3.4" ry="14.4" style="fill:#8f5d9b" transform="rotate(-68.5 95.98 105.65)"/><ellipse cx="118.4" cy="49.4" rx="3.1" ry="5.7" style="fill:#81d4fa" transform="rotate(-68.5 118.37 49.35)"/><path d="M52.1 16C35 16 19 28.8 19 56a40 40 0 0 0 25.2 38.8 24 24 0 0 0 8 1.5q3.5 0 7.8-1.5A40 40 0 0 0 85.2 56c0-27.2-15.9-40-33-40" style="fill:#70534a"/><path d="m55.9 68.3-.4-.1h-7.4q-1 .5-.7 1.7a5.3 5.3 0 0 0 9.2 0q.3-1.2-.7-1.6" style="fill:#33251f"/><path d="M60.5 76.4a26 26 0 0 1-16.8 0c-1.8-1.1-3.7.5-3 2.2.8 1.6 6.5 5.4 11.4 5.4s10.6-3.8 11.3-5.4-1-3.3-2.9-2.2M43.8 50c-1-1.3-3.1-3-7.3-3s-6.3 1.8-7.2 3q-.5.8 0 1.5t1.9.4c1.4-.3 2.5-1.2 5.3-1.2 2.9 0 4.5 1 5.4 1.2q1.4.3 1.9-.4t0-1.5M75 50c-1-1.3-3.1-3-7.3-3s-6.3 1.8-7.2 3q-.7.8 0 1.5.5.7 1.8.4c1.3-.3 2.6-1.2 5.4-1.2s4.5 1 5.3 1.2q1.5.3 2-.4t0-1.5" style="fill:#1a1717"/><ellipse cx="36.5" cy="59" rx="4.9" ry="5.1" style="fill:#1a1717"/><ellipse cx="67.7" cy="59" rx="4.9" ry="5.1" style="fill:#1a1717"/><linearGradient id="j" x1="51.7" x2="51.7" y1="83.7" y2="59.5" gradientTransform="matrix(1 0 0 -1 0 128)" gradientUnits="userSpaceOnUse"><stop offset=".2" style="stop-color:#b3e5fc;stop-opacity:.5"/><stop offset="1" style="stop-color:#b3e5fc;stop-opacity:.2"/></linearGradient><path d="M31.1 44.3h42.7l5.7 5.1v15s-3.9 5.5-13.4 3.2-8.2-8-13.9-8-8.2 9.1-20.6 8.9c0 0-6.4-.6-7.6-4.6l-.2-16.6z" style="fill:url(#j)"/><linearGradient id="k" x1="80.2" x2="80.2" y1="72.2" y2="84.8" gradientTransform="matrix(1 0 0 -1 0 128)" gradientUnits="userSpaceOnUse"><stop offset="0" style="stop-color:#bdbdbd"/><stop offset="1" style="stop-color:#e0e0e0"/></linearGradient><path d="M88.3 54.8q0 1-.6 1.8l-5.5 8c-2 3-9.3 4.5-9.3 4.5l8.2-9.1-1.5-11.5-7.5-5.8s3.1.3 5.3.3 4.3 1.4 5.4 2.1l4 2.8q1.4 1 1.4 2.7z" style="fill:url(#k)"/><linearGradient id="l" x1="24" x2="24" y1="72.4" y2="84.5" gradientTransform="matrix(1 0 0 -1 0 128)" gradientUnits="userSpaceOnUse"><stop offset="0" style="stop-color:#bdbdbd"/><stop offset="1" style="stop-color:#e0e0e0"/></linearGradient><path d="M16 54.8q0 1 .5 1.8l5.5 8c2 3 9.3 4.5 9.3 4.5L23.1 60l1.6-11.5 7.4-5.8s-3 .3-5.2.3-4.4 1.4-5.5 2.1l-4 2.8q-1.4 1-1.4 2.7z" style="fill:url(#l)"/><radialGradient id="m" cx="52.1" cy="71.9" r="22.9" gradientTransform="matrix(0 1 1.408 0 -49.11 4.02)" gradientUnits="userSpaceOnUse"><stop offset="0" style="stop-color:#f5f5f5"/><stop offset=".7" style="stop-color:#eee"/><stop offset="1" style="stop-color:#e0e0e0"/></radialGradient><path d="M71.6 45.6A9 9 0 0 1 76 47c2 1.3 2.1 2.9 2.1 3.4l.1 2.2.2 6.6c0 4.4-3.9 7.4-9.5 7.4-4 0-8.4-3.3-10.4-5.6a9 9 0 0 0-6.5-2.7q-4 0-6.5 2.7c-2 2.3-6.5 5.6-10.4 5.6-5.6 0-9.5-3-9.5-7.4l.2-6.6v-2.2c0-.5.1-2 2.2-3.4a9 9 0 0 1 4.5-1.4zm0-3h-39c-3.5 0-9.4 2.3-9.6 7.7l-.3 9c0 6 5.2 10.3 12.5 10.3 5 0 10.1-3.8 12.6-6.5q1.8-1.8 4.3-1.8c2.5 0 3.2.6 4.3 1.8 2.5 2.7 7.6 6.5 12.6 6.5 7.3 0 12.5-4.4 12.5-10.4l-.3-9c-.2-5.3-6-7.6-9.6-7.6" style="fill:url(#m)"/><path d="M53.1 3.5c-41 0-40.7 37.9-40.7 38.5 0 7.7.2 16.5.8 25.3h6.7c0-3 2-21 8-22.4A79 79 0 0 0 63 28c3.3 7.2 13.6 14.2 17.3 16.9 3 2.2 4 18.6 3.9 22.4h7.7V67c.6-8.7.7-17.4.7-25.1 0-.6 1.5-38.5-39.5-38.5" style="fill:#232020"/><radialGradient id="n" cx="52.9" cy="65" r="49.8" gradientTransform="matrix(1 0 0 -1.214 0 141.87)" gradientUnits="userSpaceOnUse"><stop offset=".8" style="stop-color:#444140;stop-opacity:0"/><stop offset="1" style="stop-color:#444140"/></radialGradient><path d="M53.1 3.5c-41 0-40.7 37.9-40.7 38.5 0 7.7.2 16.5.8 25.3h6.7c0-3 2-21 8-22.4A79 79 0 0 0 63 28c3.3 7.2 13.6 14.2 17.3 16.9 3 2.2 4 18.6 3.9 22.4h7.7V67c.6-8.7.7-17.4.7-25.1 0-.6 1.5-38.5-39.5-38.5" style="fill:url(#n)"/></svg>