<svg xml:space="preserve" width="16" height="16" viewBox="0 0 128 128"><radialGradient id="a" cx="65.1" cy="24.3" r="15" gradientTransform="translate(0 2)" gradientUnits="userSpaceOnUse"><stop offset="0" style="stop-color:#ff8a80"/><stop offset="1" style="stop-color:#d32f2f"/></radialGradient><path d="M80.7 32.6q-.6.2-1.4 0-.3-.4-.3-1.3.1-.9.8-1.7a8 8 0 0 0 1.5-4.2 8 8 0 0 0-3.5-8c-.6-2.5-2.5-3.4-4.6-4.5l-.2.5-21.4 7.5-.4-.4q-2.7 2.4-2.6 5.2c0 2.8 2.2 5 2.8 5.6a7 7 0 0 0 2.1 5.3q2.8 2.6 8.8 1.4l6-1.6q.3 1.2 1.5 2.2.8.9 3 1 1.5 0 3.6-.8l.9-.5-.9-.4s-1-.7-1.2-1.5q1.5 0 3.1-.5 2.5-.9 3-2.7l.3-.9z" style="fill:url(#a)"/><linearGradient id="b" x1="62.8" x2="62.8" y1="29.6" y2="69.5" gradientTransform="translate(0 2)" gradientUnits="userSpaceOnUse"><stop offset=".1" style="stop-color:#ffd29c"/><stop offset=".4" style="stop-color:#f9ddbd"/></linearGradient><path d="M80.3 45.5c-1-3-2.9-3.6-5-4.6-1.8-.8-5.8-1.4-5.8-1.4v-9.7l-9-1 .2 10.5s-7.2.3-10.2 2.1c-1.7 1-4.2 8.8-5.3 14.7l-.4 1.8c-.1 1.3.7 3.2 3.3 4l.6.2h1.6l1.7-.6v.3l.3 9.6L62 84.2l14-11.5c.3-1.6 1.4-12.2 2.9-16.6V56c2-5 2.5-7.5 1.5-10.5" style="fill:url(#b)"/><path d="M74.7 22H55c-2.1 0-3.8 1.8-3.8 4s1.7 4.1 3.8 4.1h19.7c2 0 3.8-1.8 3.8-4s-1.7-4.2-3.8-4.2" style="fill:#edc391"/><path d="M64.8 7.8c-6.2 0-12 6.7-12 16.3s6 14.3 12 14.3 12-4.7 12-14.3-5.7-16.3-12-16.3" style="fill:#f9ddbd"/><circle cx="58.9" cy="25" r="1.8" style="fill:#312d2d"/><circle cx="70.7" cy="25" r="1.8" style="fill:#312d2d"/><path d="M66.2 28.3h-2.7q-.5 0-.3.6c0 .2.6 1 1.6 1s1.5-.8 1.6-1q.2-.4-.2-.6" style="fill:#dba689"/><path d="M67.9 31.2c-1.2.7-5 .7-6 0-.8-.4-1.4.2-1.2.8.3.6 2.4 2 4.1 2 1.8 0 3.8-1.4 4-2 .4-.6-.3-1.2-1-.8" style="fill:#444"/><radialGradient id="c" cx="64.5" cy="6" r="13.5" gradientTransform="translate(0 2)" gradientUnits="userSpaceOnUse"><stop offset="0" style="stop-color:#ff8a80"/><stop offset="1" style="stop-color:#d32f2f"/></radialGradient><path d="M78.6 13.6c-.8-1.4-2.8-3.3-4.3-3.3h-.4c.1-2-2.4-4-4-4.7a8 8 0 0 0-2.8-.5c-3.2 0-5.7 2-6.7 2.4Q59 8 58 8a2.3 2.3 0 0 1-2.4-1.9c-2.4 1.4-.9 4.2-.9 4.2-.6 0-2.5.2-3.4 2.1-1 2.5-.1 4.4-.1 4.4s-2.4 1.6-1.5 4.6l.5 1.1.5-.6c.7 1 1.7 1.5 1.7 1.5l.3.2v.3q-.1 3 .3 4.5c.5-2.7 1.1-6 1-6.6v-.4l.4-.1s2.8-.7 5.8-2.6l1.8-1.2q1.9-1.7 4.3-2.4l1.5-.2c2 0 3 1.3 3.5 2.2 1.1 0 3.7.4 4.6 5l.6 5.5v.2q.5-1.2.7-2.8 0-.7.7-2.1t1-2.6v-.4l.5.5c.8-3.6-.3-6-.8-6.8" style="fill:url(#c)"/><path d="M68.2 22q.3-.9 2.6-1c1.4 0 2.2.6 2.5 1v.6q-.2.2-.7.1-.4-.3-1.9-.4-1.5.1-1.9.4-.5 0-.6-.2zm-11.7-.2q.5-.8 2.6-1c2.1-.2 2.2.6 2.5 1q.2.5 0 .6 0 .3-.6.2-.5-.3-1.9-.5-1.5.1-1.9.4-.5.1-.7-.1a.4.4 0 0 1 0-.6" style="fill:#454140"/><linearGradient id="d" x1="45.5" x2="58.1" y1="57.8" y2="53.8" gradientTransform="translate(0 2)" gradientUnits="userSpaceOnUse"><stop offset="0" style="stop-color:#ffd29c"/><stop offset=".5" style="stop-color:#f9ddbd"/></linearGradient><path d="M61.5 59a24 24 0 0 1-11.2 3H48c-2.6-1-3.4-2.8-3.2-4l.3-1.9.6-.8c.5-.7 2.8-1.6 9.6-.8 1 0 6.5 4 6.1 4.5" style="fill:url(#d)"/><path d="M49.6 62q1.5 0 3.2-.5a58 58 0 0 0 9.4-3q.5 0 .7.3 0 .5-.3.7a119 119 0 0 1-9.7 2.3zm-3.3-7.2q.7-.4 1.6-.6l1.6-.4 3.3-.5q.5 0 .6.4t-.4.6h-3.4l-1.7.1z" style="fill:#edbd82"/><linearGradient id="e" x1="76.6" x2="58.7" y1="55.2" y2="47.3" gradientTransform="translate(0 2)" gradientUnits="userSpaceOnUse"><stop offset=".3" style="stop-color:#f9ddbd"/><stop offset="1" style="stop-color:#ffd29c"/></linearGradient><path d="M80.8 48.8s-2 10.2-3.8 13c-1 1.6-2.8 3.7-6 3-2.2-.4-9.5-6.5-13.9-10.2l-5.5-1.1s1.3-4 5.5-4.4c3.6-.4 13.6 6.7 13.6 6.7l2.5-8.3z" style="fill:url(#e)"/><path d="M80.8 49.2a62 62 0 0 1-2.7 11.5l-1.3 2.1q-.7 1-1.8 1.8a5 5 0 0 1-3.7.8l-.7-.1-.6-.3-2-1.2-4-2.8q-3.7-2.9-7.3-6l.3.2-5.6-1a.6.6 0 0 1-.5-.8v-.1a8 8 0 0 1 5.8-4.7h1.6q1.5.3 2.9 1a46 46 0 0 1 9.9 5.8l-.9.3 3-7.8-2 8q0 .5-.6.5h-.1v-.1a82 82 0 0 0-9.8-5.6 13 13 0 0 0-3.2-1l-.6.1-1.2.3q-2.6 1-3.5 3.6l-.5-.8 5.5 1 .3.2 7.3 6 6.2 4.2h.4l1.1.1q2.1-.2 3.5-2.2.8-.9 1.2-1.9l.8-2.1c1-3 2-6 2.8-9" style="fill:#edbd82"/><linearGradient id="f" x1="75.4" x2="68.9" y1="55.6" y2="49.3" gradientTransform="translate(0 2)" gradientUnits="userSpaceOnUse"><stop offset=".3" style="stop-color:#f9ddbd"/><stop offset="1" style="stop-color:#ffd29c"/></linearGradient><path d="M66.5 52.8c.9-.7 4.4-3 6.3-1.9q1.8 1 2.3 2.8c.4.9.8 2 0 2.8s-3 1.5-4 1-1.7-1.8-2.3-2.6z" style="fill:url(#f)"/><path d="M75.6 53.5a6 6 0 0 0-3-3.2l-.1.5h-.2l-.2.4.5.2q1.5.8 2 2.4.8 1.6.2 2.3c-.7.7-2.7 1.3-4 .3l-3-3.2-.4-.5c1.2-.8 3.3-1.7 4.7-1.5l.2-.5H72l.2-.5c-2.3-.5-5.2 1.5-6 2l-.1.2q-.2.2-.2.5l.2.4.4.2.8.8 2.5 2.5.2.3q1.1.8 2.4.8 2-.1 3-1c1-1 .4-2.7.1-3.4" style="fill:#edbd82"/><linearGradient id="g" x1="55.3" x2="87.9" y1="67.5" y2="123.6" gradientTransform="translate(0 2)" gradientUnits="userSpaceOnUse"><stop offset="0" style="stop-color:#ffa000"/><stop offset=".1" style="stop-color:#ff9b06"/><stop offset=".3" style="stop-color:#ff8e19"/><stop offset=".4" style="stop-color:#ff7936"/><stop offset=".5" style="stop-color:#ff7043"/><stop offset=".8" style="stop-color:#ff8e19"/><stop offset="1" style="stop-color:#ffa000"/></linearGradient><path d="m103.2 105.9-.6.1q-2.2.3-4.5 0-3.2 0-6.4.3l-3 .6c-.3 0-2.7 1-2.7 1-.3-.4-.2-1.4-.3-2l-.6-2.1c-1-2.6-3.1-4.3-4.2-6.8a6 6 0 0 1-.5-3.7c.2-.7.7-2.4 1-2.8q-.3.3-.7.4l-1.8 1.2q-1.7 1.6-2.8 4a18 18 0 0 0-1.9 10.3 20 20 0 0 0 3.8 8.1c-2 1.6-4.4 3-6.8 2.8-3.5-.4-5.4-1.9-5.4-7.7 0-19.3 12-16 10.1-36.7 0-1-6.4 3.3-14.4 2.9-8.3-.4-9-5.1-9.3-4.5-2 3.7-3 8.9-3.9 13-3 17-.7 32.7 9.6 38.2 7.1 3.8 19 1.5 23.7-5.1 17.1 6.6 24-9.4 24.4-14q-.8 1.8-2.8 2.4" style="fill:url(#g)"/><path d="M51.7 78.5q.2 1 .8 1.5l1.1 1 1.2.4 1.8-.1a3 3 0 0 1-3.6.6q-.8-.6-1.3-1.5t-.2-2zm6.8 3.3 1.6.6a5 5 0 0 0 2.5.3q.7-.1 1.6-.5h.1q-1.2 1.6-3 1.6-2-.3-2.9-2zm1.9 3.6 1.5 1a6 6 0 0 0 4 .4h.2q-1.3 1.5-3.3 1a4 4 0 0 1-2.5-2.3zm4.8-2.7q1 .3 1.7.2a6 6 0 0 0 3.8-1.4h.2a3 3 0 0 1-2.5 2.4q-2 .3-3.3-1.1zm-15.5 2.2q.2 1 .9 1.5l.6.6.6.4q.7.4 1.5.6h1.9c-1 1-2.7 1.1-4 .4q-.9-.6-1.4-1.5-.6-1-.2-2zm6 3.1 1.3 1a5 5 0 0 0 2.5.8h1.7q-1.4 1.3-3.3.8-1.8-.7-2.3-2.5m6.6 1.9 1.4.8a5 5 0 0 0 2.4.2q.7 0 1.6-.4-.9 1.6-3 1.6-1.8-.4-2.5-2.1m-13.4 3.6q.3.8.8 1.4l1 .9q.4.3 1 .4t1.6 0l.1.2c-.8.9-2.4 1-3.4.3q-.8-.7-1.1-1.5t0-1.8m4.6 3 1.4.9a6 6 0 0 0 2.1.6h1.6c-.7.9-2 1.2-3 .9q-1.6-.7-2.2-2.4zm5.3 1.7q.8.6 1.3.7l1 .3H62l1.5-.2h.1a3 3 0 0 1-2.8 1.3q-1.7-.4-2.3-2zm-3.2-21.6q.8.8 1.5 1.1a5 5 0 0 0 2.8.9l1.9-.3v.1q-1.5 1.5-3.7 1a4 4 0 0 1-2.6-2.8zm8.6 1.8q1.2 0 1.8.3h1.4l1.2-.2q.6-.1 1.4-.7h.1q-.3.8-1 1.4t-1.7.6-1.7-.3zm-10.7 5.1 1.4 1.1a5 5 0 0 0 2.8.8l1.9-.2c-.8 1-2.3 1.5-3.6 1.1a4 4 0 0 1-2.7-2.8zm5 9.7 1.4.9a6 6 0 0 0 4.2.4q-1.3 1.5-3.2 1.1a4 4 0 0 1-2.5-2.4zm-7-3.1 1.4 1.2a6 6 0 0 0 2.7 1.1h1.9q-1.6 1.4-3.7.7a4 4 0 0 1-2.4-3zm5.1 11.8 1.4 1a6 6 0 0 0 4.1.4h.1q-1.3 1.5-3.3 1.1a4 4 0 0 1-2.4-2.4m-6.9-2.1 1.4 1.2a6 6 0 0 0 2.7 1h1.9q-1.7 1.5-3.7.8a4 4 0 0 1-2.4-3m3.7 4.5 1.5 1a6 6 0 0 0 4.7-.1h.1q-1.2 1.7-3.5 1.6a4 4 0 0 1-3-2.4zm30.4 10.1q1.2-1.6 3-2.7a9 9 0 0 1 3.7-1.3q-1.5 1.3-3.2 2.2-1.6 1-3.5 1.8m5.9-.3 2.7-2.2 2.7-2.3a6 6 0 0 1-2 3 6 6 0 0 1-3.4 1.5m5.7-.3 2.2-2.6 1.8-2.9a5 5 0 0 1-1 3.5 5 5 0 0 1-3 2m-15-1.2 1-3.6.5-3.8a6 6 0 0 1 .4 4 6 6 0 0 1-2 3.4m-.9-2.4a4 4 0 0 1-1.4-2.8q-.2-1.5.3-3.1c.4-2 1-3.9.3-5.9q1 1.4 1 3t-.4 3-.4 3 .5 2.8" style="fill:#d84315"/></svg>