<svg xml:space="preserve" width="16" height="16" viewBox="0 0 128 128"><path d="M116.5 4h-104a8 8 0 0 0-8 8v104a8 8 0 0 0 8 8h104a8 8 0 0 0 8-8V12a8 8 0 0 0-8-8" style="fill:#f77e00"/><path d="M110.2 4H12a7.6 7.6 0 0 0-7.5 7.5v97.9c0 4.1 3.3 7.5 7.4 7.5h98.2c4.1 0 7.4-3.4 7.5-7.5v-98c0-4-3.2-7.3-7.2-7.4z" style="fill:#ff9800"/><path d="M108.5 64V38.3c0-1.8-1.7-3-3-2l-35 24.4V38.3a2 2 0 0 0-3.1-2l-37 25V38c0-1-.8-2-1.8-2H18.4c-1 0-2 1-2 2v52.3c0 1 1 1.9 2 1.9h10.3q1.7-.2 1.9-2V66.7l36.9 25a2 2 0 0 0 3-2V67.3l35 24.4c1.5.9 3-.2 3-2z" style="fill:#fafafa"/><path d="M40.2 12.9c0-2.3-1.6-3-10.8-2.7-7.7.3-11.5 1.2-13.8 4s-3 6.5-3 13.3c0 4.8 0 7.3 2.5 7.3 3.4 0 3.4-6 6.2-10.3 5.4-8.7 18.9-8.6 18.9-11.6" style="opacity:.75;fill:#ffbd52"/></svg>