<svg xml:space="preserve" width="16" height="16" viewBox="0 0 128 128"><path d="M94.1 69c-1-1.9.3-3.9 2.7-6.3a22 22 0 0 0 4-22.2L100 39l-1.5-.1a2799 2799 0 0 0-68.8 0l-2.2 1.7c-3.8 9.2.2 18.3 4 22.2C33.7 65 35 67 34 69c-1 1.9-4.2 2.2-4.2 2.2s.8 1.9 2.5 3q2.6 1.4 4.9 1.2s5.3 7.3 19.1 7.3h15.4c13.8 0 19.1-7.3 19.1-7.3q2.3 0 5-1.2c1.7-1.1 2.4-3 2.4-3s-3-.2-4.2-2.2" style="fill:#543930"/><radialGradient id="a" cx="97.9" cy="20" r="21" gradientTransform="matrix(.96 0 0 .471 -17.3 61.62)" gradientUnits="userSpaceOnUse"><stop offset=".7" style="stop-color:#6d4c41;stop-opacity:0"/><stop offset="1" style="stop-color:#6d4c41"/></radialGradient><path d="M64.1 82.8v-8.1l24.6-2 2.2 2.8s-5.3 7.3-19 7.3z" style="fill:url(#a)"/><radialGradient id="b" cx="76.7" cy="67.4" r="6.2" gradientTransform="rotate(155 82.8 60.56)scale(.96 .712)" gradientUnits="userSpaceOnUse"><stop offset=".7" style="stop-color:#6d4c41"/><stop offset="1" style="stop-color:#6d4c41;stop-opacity:0"/></radialGradient><path d="M90.9 72c-3.7-5.7 4.5-7.7 4.5-7.7Q93 66.8 94 69c1 1.9 4.2 2.2 4.2 2.2s-4.2 3.7-7.4.6" style="fill:url(#b)"/><radialGradient id="c" cx="105.9" cy="66.2" r="27.3" gradientTransform="rotate(-94.3 90.55 61.63)scale(.96 .8)" gradientUnits="userSpaceOnUse"><stop offset=".7" style="stop-color:#6d4c41;stop-opacity:0"/><stop offset="1" style="stop-color:#6d4c41"/></radialGradient><path d="M100.8 40.5a22 22 0 0 1-3.8 22c-.5.5-2.6 2.6-3 4.2 0 0-8.3-11.5-10.7-18.2q-.9-2-1-4.2c0-1 0-2.4.7-3.3.8-1.1 17.4-1.4 17.4-1.4z" style="fill:url(#c)"/><radialGradient id="d" cx="55.8" cy="68.8" r="27.3" gradientTransform="rotate(94.3 -1.45 99.86)scale(-.96 .8)" gradientUnits="userSpaceOnUse"><stop offset=".7" style="stop-color:#6d4c41;stop-opacity:0"/><stop offset="1" style="stop-color:#6d4c41"/></radialGradient><path d="M27.5 40.5c-3.7 9 .2 18.1 3.8 22 .5.5 2.6 2.6 3 4.2 0 0 8.3-11.5 10.7-18.2q.9-2 1-4.2c0-1-.1-2.4-.7-3.3-.8-1.1-1.7-.8-3-.8-2.5 0-13.3-.6-14.2-.6z" style="fill:url(#d)"/><radialGradient id="e" cx="50.1" cy="20" r="21" gradientTransform="matrix(-.96 0 0 .471 99.7 61.62)" gradientUnits="userSpaceOnUse"><stop offset=".7" style="stop-color:#6d4c41;stop-opacity:0"/><stop offset="1" style="stop-color:#6d4c41"/></radialGradient><path d="M64.2 82.8v-8.1l-24.6-2-2.3 2.8s5.3 7.3 19.2 7.3z" style="fill:url(#e)"/><radialGradient id="f" cx="24.8" cy="66.2" r="6.2" gradientTransform="rotate(205 6.3 51.4)scale(-.96 .712)" gradientUnits="userSpaceOnUse"><stop offset=".7" style="stop-color:#6d4c41"/><stop offset="1" style="stop-color:#6d4c41;stop-opacity:0"/></radialGradient><path d="M37.4 72c3.7-5.7-4.5-7.7-4.5-7.7q2.3 2.5 1.2 4.8c-1 1.9-4.1 2.2-4.1 2.2s4.2 3.7 7.4.6" style="fill:url(#f)"/><linearGradient id="g" x1="64" x2="64" y1="84.3" y2="123.7" gradientUnits="userSpaceOnUse"><stop offset=".2" style="stop-color:#f78c1f"/><stop offset="1" style="stop-color:#ed6d23"/></linearGradient><path d="M105.9 103.2c-2.2-4.7-8.4-19.6-16-23-8.2-3.8-25.9.6-25.9.6s-17.4-4.2-25.7-.5c-7.6 3.5-14 18.2-16.2 23-2 4.7-3.8 11.3-1 15.3 2.6 4 5.8 5.4 11.8 5.4H94c8 0 10.3-1.3 13-5.4 2.7-4 1-10.6-1.2-15.4" style="fill:url(#g)"/><linearGradient id="h" x1="26.3" x2="53.3" y1="99.8" y2="99.8" gradientUnits="userSpaceOnUse"><stop offset=".5" style="stop-color:#ba8d68"/><stop offset="1" style="stop-color:#a47b62"/></linearGradient><path d="M52.9 101q.6-.1.3-.9a19 19 0 0 0-10.8-7.8q-5-.8-9.1.4c-2.4.6-5.1 2.2-5.8 3.2-1.7 2.3.3 3.2.3 3.2s-2 1.4-1.4 3c.7 1.8 3.3.9 3.3.9s-1.3 1.1-.1 2.5c1 1.1 3.3.3 3.3.3s-.3 1 .8 1.6c1.6 1 4-1.2 5.6-1.8l3.6-1.4c3.3-1.1 7.3-2 10-3.2" style="fill:url(#h)"/><path d="M48 124a139 139 0 0 0 32.2-11.4c.6-.5.2-2 .2-2s12.5-5.2 13.2-4.2.4 1.2-.5 1.8c-.7.5-11.1 4.7-15.8 7.7-7.3 4.7-14.2 8-14.2 8z" style="fill:#a53e11"/><linearGradient id="i" x1="68.6" x2="94.1" y1="104.2" y2="104.2" gradientUnits="userSpaceOnUse"><stop offset=".5" style="stop-color:#ba8d68"/><stop offset="1" style="stop-color:#a47b62"/></linearGradient><path d="M68.6 99s7.6 3 11.8 11.6c0 0 2-.2 4.4-1s3.3-1.7 4.9-2 4-.3 4.2-.9c.8-1.4-2-6.1-7.3-7.7-8.2-2.6-18 0-18 0" style="fill:url(#i)"/><path d="m31.3 106.1 1.7-1.6q2.5-2.2 6.2-3.2.4-.1.6.3t-.4.7q-4.2 1.2-6.5 3.6l-.7.2zm-3.3-2.9a15 15 0 0 1 9-5q.5-.2.7.4c.2.6-.1.5-.4.6q-4.7 1-7.7 3.8l-.7.2zm-1-4.8a17 17 0 0 1 7.7-3.7q.4 0 .6.4 0 .5-.4.7a16 16 0 0 0-7 3.3l-.5-.2z" style="fill:#91674d"/><path d="M71.8 77.1H56.2v8.6a7 7 0 0 0 7.1 7h1.4a7 7 0 0 0 7.1-7zM87.5 43h-47c-5 0-9.2 4.4-9.2 9.8s4.1 9.8 9.2 9.8h47c5 0 9.2-4.4 9.2-9.8S92.6 43 87.5 43" style="fill:#99674f"/><path d="M64 9.1c-15 0-28.8 16-28.8 39S49.4 82.5 64 82.5s28.8-11.3 28.8-34.2S79 9.2 64 9.2" style="fill:#ba8d68"/><path d="M54.1 50.2q0 2-1.5 3.3h-5.5q-1.5-1.3-1.5-3.3c0-2.4 2-4.4 4.2-4.4 2.4 0 4.3 2 4.3 4.4m28.3 0q0 2-1.5 3.3h-5.5q-1.5-1.3-1.5-3.3c0-2.4 1.9-4.4 4.2-4.4s4.3 2 4.3 4.4" style="fill:#49362e"/><path d="M56.2 42.5c-.8-1-2.6-2.6-6.2-2.6s-5.4 1.5-6.2 2.6a1 1 0 0 0 0 1.3q.4.6 1.6.3c.8-.2 2.2-1 4.6-1s3.9.8 4.6 1q1.3.3 1.6-.3a1 1 0 0 0 0-1.3m28 0c-.8-1-2.6-2.6-6.2-2.6s-5.4 1.5-6.2 2.6a1 1 0 0 0 0 1.3q.3.6 1.6.3c.7-.2 2.2-1 4.6-1s3.8.8 4.6 1q1.2.3 1.6-.3a1 1 0 0 0 0-1.3" style="fill:#613e31"/><path d="M67.3 58.2 67 58h-6.3q-1 .5-.6 1.5c.2.6 1.5 2.3 3.9 2.3s3.7-1.7 4-2.3q.3-1-.7-1.4" style="fill:#99674f"/><path d="M72.3 70c-.5-1.4-4.1-4.7-8.5-4.7a10 10 0 0 0-8 4.8v.4q.2.2 1.2-.5a13 13 0 0 1 6.8-2.5c2.8 0 5.3 1.5 6.8 2.4q1 .7 1.4.7h.2z" style="fill:#5d4037"/><path d="M63.9 71.9c2.5 0 4.5 1.3 4.3.6s-2-2.5-4.4-2.5a5 5 0 0 0-4.3 2.5c-.1.6 2-.6 4.4-.6" style="fill:#91674d"/><path d="M98.6 22c-2.1-3.2-6.8-7.5-11-7.7-.7-4-5-7.5-9.3-8.9C67 1.8 59.6 6 55.6 8.1c-.9.4-6.2 3.4-10 1.2-2.3-1.3-2.2-4.9-2.2-4.9S36 7.2 38.5 15a9 9 0 0 0-7.5 4.7 12 12 0 0 0-.8 9.4 10 10 0 0 0-3 10.8c1.4 3.9 7 5.6 7 5.6-.4 7 1 11.2 1.6 12.9.1.3.6.3.6 0A122 122 0 0 0 40 41s9.7-2 19-8.8q3-2.1 6.2-3.5c11.6-4.6 14 3.3 14 3.3s8.1-1.6 10.6 9.7c.9 4.2 1.5 11 2 15.7q.2.5.7 0c.8-1.8 2.4-5.5 2.8-9.3.1-1.3 3.7-3.1 5.3-8.8 2-7.7-.5-15-2-17.3" style="fill:#543930"/><radialGradient id="j" cx="74" cy="84.9" r="31.9" gradientTransform="rotate(72 8.07 -5.6)scale(.96 -.712)" gradientUnits="userSpaceOnUse"><stop offset=".7" style="stop-color:#6d4c41;stop-opacity:0"/><stop offset="1" style="stop-color:#6d4c41"/></radialGradient><path d="M95.3 48.1c.1-1.3 3.7-3 5.3-8.8l.4-1.8c1.2-7-1-13.4-2.4-15.5-2-3-6.1-6.8-10-7.6h-1s.2 1.8-.5 3.2c-1 2-3 2.4-3 2.4 10.3 10.3 9.6 19 11.2 28" style="fill:url(#j)"/><radialGradient id="k" cx="46.8" cy="127.6" r="8.4" gradientTransform="rotate(28.2 -249.7 -61)scale(.96 -1.138)" gradientUnits="userSpaceOnUse"><stop offset=".6" style="stop-color:#6d4c41"/><stop offset="1" style="stop-color:#6d4c41;stop-opacity:0"/></radialGradient><path d="M58 6.8 55.7 8c-.9.4-6.2 3.4-10 1.2-2.2-1.3-2.2-4.8-2.2-4.9-1 1.4-4.3 11 5 11.7 4.1.2 6.6-3.3 8-6.3z" style="fill:url(#k)"/><radialGradient id="l" cx="164.6" cy="55" r="25.7" gradientTransform="matrix(-.9 -.379 -.21 .507 227.38 53.02)" gradientUnits="userSpaceOnUse"><stop offset=".7" style="stop-color:#6d4c41;stop-opacity:0"/><stop offset="1" style="stop-color:#6d4c41"/></radialGradient><path d="M77.2 5c6.3 1.8 9.3 5 10.3 9.3.3 1.2.7 13-21.7-.4-8.3-5-6-8-5-8.4 3.8-1.3 9.3-2.3 16.4-.4" style="fill:url(#l)"/><radialGradient id="m" cx="45.7" cy="119.9" r="7.7" gradientTransform="matrix(.96 0 0 -1.174 2.63 152.1)" gradientUnits="userSpaceOnUse"><stop offset=".7" style="stop-color:#6d4c41;stop-opacity:0"/><stop offset="1" style="stop-color:#6d4c41"/></radialGradient><path d="M43.3 4.4c-.8.4-7.1 3.3-4.7 10.6l6.7 1c-6-6-2-11.6-2-11.6" style="fill:url(#m)"/><radialGradient id="n" cx="44.2" cy="92.6" r="14.4" gradientTransform="rotate(15 223.81 386.18)scale(-.96 .898)" gradientUnits="userSpaceOnUse"><stop offset=".7" style="stop-color:#6d4c41;stop-opacity:0"/><stop offset="1" style="stop-color:#6d4c41"/></radialGradient><path d="m42.7 15.6-4.2-.6h-1c-2.3.4-5 1.6-6.5 4.7a12 12 0 0 0-.8 9.4s2-2 7-2z" style="fill:url(#n)"/><radialGradient id="o" cx="40.1" cy="91" r="15.1" gradientTransform="matrix(.95 .13 .184 -1.336 -12.58 154.05)" gradientUnits="userSpaceOnUse"><stop offset=".6" style="stop-color:#6d4c41;stop-opacity:0"/><stop offset="1" style="stop-color:#6d4c41"/></radialGradient><path d="M30 29.3A10 10 0 0 0 27.3 40c1.5 3.8 7 5.4 7 5.4s1 .4 1.6.4L37.2 27c-2.6 0-5.2.8-6.8 2z" style="fill:url(#o)"/></svg>