<svg xml:space="preserve" width="16" height="16" viewBox="0 0 128 128"><path d="M35.9 45.2c-5.4 6-1.6 14.2-1.6 14.2l-14.7 9.7s-2.2 1-4.5 4c-1.7 2.3 14.4 23.4 14.4 23.4s2.7-.5 4.8-1.4c2.2-1 4.9-3.5 4.9-3.5l17.4 17.8s1.3 2 4 2.6c3.7.9 5-.5 5-.5l22.8 5.6s1.1 1.3 2.3 2c1.1 1 3 1.7 3 1.7l18.5-20S111 99 109.9 98a16 16 0 0 0-3.9-2.8l-.6-22s-1.4-.8-5-1.5c-4-.7-6.8-2.3-6.8-2.3l-5.5-19 1.7-2.4s3.5-6.3-1.3-7.8C83.7 38.5 72 37.6 72 37.6L69 28s-1.4 1.5-2.4 3.3-1.9 4-1.9 4l-17.3 5.5h-2.3s-4.7-1-9.3 4.3" style="fill:#4c186e"/><path d="M25.2 55s7.9-1.2 7.8-2.2a152 152 0 0 1-.2-11.4l8.1 2.2 7.2 2.2 2-7-8.8-2.8c-4-1.4-8.6-2.6-9.3-3.4-1.1-1.4-4-5.4-4.3-9-.6-6.8 2.7-9.9 7.3-10 4.5-.3 6.6 2.3 8.3 2.4s3.3-2.7 2.3-5.8c-1.7-5-9.9-7.5-16.8-5.2C19 8.3 18 20.4 19.5 25.7c2 7.3 5.5 11.5 5.5 11.5z" style="fill:#727f37"/><path d="M52.7 33.5C46 36.7 40.7 49 50 57.4c7.5 6.8 18 3 21.2-2.4 2.8-4.8 3.8-12.4-.4-17.4s-11.2-7.5-18.1-4.1m16.5-5.4s2.2-2.4 6-3.4A15 15 0 0 1 88 27c5.2 3.5 6.2 9.4 5.6 14.3S90 50.7 87 51.4c-5.5 1.6 3-1.4 1.5-4.1s-9.6 1.5-16.2-6.5c-5-6-3.1-12.7-3.1-12.7m4.9 32.4c-2.6 7.9 1.2 16.8 10.5 18.9s15-4 17.3-9.5c2.2-5.4.2-16-9-18.9S76.3 53.6 74 60.5M46.6 73.9a14.4 14.4 0 0 0 7 17c6.7 3.3 16.5.4 19.2-7.5 2.5-7.2.6-15.5-7.3-18.4a14 14 0 0 0-18.9 8.9m-27.4-13c-2.2 6.7 0 15.8 9.2 18.5s15-3 17-9.7c1.6-5.3 1.2-13.9-8.4-17.5-9.4-3.6-15.8 2.8-17.8 8.7m64.2 21.6c-3 .5-4.7 3.3-6.1 6.6-2.4 5.6-4.8 7.1-5.8 9.1-1.1 2.6 2.3 4.9 3.7 5.6 2.4 1.4 11.5 2.9 15.5-5 5.1-10.1-2.8-17.2-7.3-16.3m17.1 14.2c.1 1 12 .5 11.9-11.6-.1-9.3-7-12-7-12s-4.6 3.4-4.5 9.1c.2 5.8 1.3 5 1 9.6-.2 1.5-1.4 4.5-1.4 4.9m11.7 4.2s-8 .3-12.6 6.6c-4.4 6-5.9 13.3-5.9 13.3s11 5.8 17.8-1.7c7.6-8.3.7-18.2.7-18.2m-46.6 6.6c-1.4.8-2.3 6.9.6 11.5 1.5 2.4 4.3 4.6 8.4 5.2 5.6.8 9.5-1.4 12-4.1 3-3.2 4-7.2 3.2-8.8-1.7-2.9-6 1-13.4 0-7.3-1.1-8.3-5.3-10.8-3.8M40.5 88c-1.3.3-5.8 5.3-5.4 11.7.2 2.9 1 5.9 4 9a15 15 0 0 0 14.2 3.6c3.7-1 6.4-3.4 6.5-5.5 0-2.5-.3-5-4.7-7-2-.8-5.4-1.7-8.7-4.3-5.2-4.4-4.5-7.7-5.9-7.5M15.2 73s-2.4 3-3.2 7a13 13 0 0 0 1.6 10.1c5.5 8.9 16 6.4 16 6.4s4.7-3.7 2.7-8.5c-.6-1.5-2-2.2-4.8-3.3-5-2-7.9-5.1-9.4-7.1S15.2 73 15.2 73" style="fill:#a363b1"/><path d="M86.8 54.7c-1.5-1.7-6.5-.3-9 5.4-1.8 4.3-1.5 11 3 11.7 5 .9 2-6.2 4-10.2 1.4-2.6 3.7-5 2-7M59 67.9c-2.1-2.4-6.5.4-8.4 5.3-2.6 6.9.8 10.3 2.5 10 2.9-.5 2.7-4 4-7.6 1.2-2.8 4-5.4 1.9-7.7m16-41.1c-2.2-.4-2.8 2.1-2.8 3.8s.3 3.5 2 3.6q2.3-.2 2.6-3.9.4-3-1.8-3.5m-18 9c-2.7-1.5-7 1.4-8 8-.8 5.6 1.4 9.2 4.5 8.5 3.5-.8 2.5-6 3.4-8.8.8-3 2.6-6.3 0-7.7M29 56.2c-3.6-.8-6 2.7-6.5 6.2-.4 2.8.2 6.8 3 7.3 3 .7 5.4-3 5.8-5.9s.4-7-2.4-7.6m-13 24.6c-1.7.2-2.4 3-1.5 5.5q1.2 3.5 3.7 3c2-.6.6-3.4 0-5.1s-.2-3.6-2.2-3.4M40.4 94c-2.3.3-3.3 3.3-2.6 6.7.6 2.7 2.6 5.6 5.1 4.7 2.6-1 .5-4.1-.2-6.6s-.2-5-2.3-4.8m43.8-3.8c-1.9-1.4-4.2 0-5.8 2.4s-1.6 4.3 0 5.6c1.7 1.4 4.3.3 5.7-2 1.2-1.9 2-4.5.1-6m-15.7 21.1c-2 .2-2.5 2-2 4.3.5 1.8 1.9 3 3.3 2.4q2.2-.7 1.3-4.5-1-2.5-2.6-2.2" style="fill:#dabcf3"/></svg>