<svg xml:space="preserve" width="16" height="16" viewBox="0 0 128 128"><path d="M40.5 35.2s-3.9-3.4-6.6-6c-4.1-4-5-5.5-4.9-6.3s7.8 1.2 7.8 1.2l16.5-8.4 23-.8 17.2 9 4.7-1s-.7 2-3.4 4.8L87.5 36zm23.1 10.1-20 .4-17.9 2.1s-7.8-1.4-7.8-.7q.1.9 2.5 3.6c1.6 1.8 10.2 10.1 10.2 10.1l2.2 6.1L53 71.7 95 69l1-7.9s5.7-5.6 7.6-7.2 5-4.4 5.5-5.3.4-1.8.4-1.8l-11.3 1.5-32.4-2.7zM28.3 71.7l-18 4.7-7.5-.5s0 1.5 1.8 3.3c2.7 2.7 8.9 8.3 9.8 9 1 .8 1.4 1.1 2.5 1.1 1 0 92.6 2.2 93.2 2 .6-.1 5.1-4.3 8-6.8 1.5-1.4 6.2-5 6.4-6.5.1-1.2-.2-1.4-.2-1.4l-11.5.6-33.4-4.5z" style="fill:#546f7a"/><path d="M16.2 81.3V97l48.8.4 45.4-.5V82zm14-14.3V53l66-.1.1 14-36.8 3.6zm9.6-38.2.1 12.7 23.6 1.8 24.1-1.8V29z" style="fill:#73a0a2"/><path d="m46.8 30.3 1.8-1.5s1.3 0 2-.3c.5-.4 5.1-6 6.2-6.4.9-.4 13.7-.2 14.4 0 .7.4 5.5 5.7 6.6 6.4.7.5 2 .4 2 .4l2.2 1.8zM34.2 55.1l30.2 3 28.2-3.3v-2l-58.4.1z" style="fill:#b9ced3"/><path d="M20.3 81.3V97l86.1.6V82z" style="fill:#fff"/><path d="M15.3 98s-.2-1.2.8-1.6 92.8.4 93.6.4c1.8.2 1.4 1.7 1.4 1.7l-50 1.3z" style="fill:#bcced2"/><path d="M34.2 67.2v-12l58.4-.4-.2 15zm9.6-25.9V28.8h39.8v12.6z" style="fill:#fff"/><path d="M29.4 23.6s4.7 2.5 7.3 2.8 10.4.4 11.7-.2 5.6-6.3 7-7 15.3-.7 17-.1c1.4.5 6.1 6.5 7.3 7s13 .2 14.4-.3q3-1 4-2.6c.4-1-.4-1.7-1.3-1.6s-4.7 1-8-2.2a37 37 0 0 1-6.2-9.6H44s-1.7 7-3.6 9S37 22.1 35 22c-1.8-.1-2.5-.5-3.5-.8-1.9-.5-3 1.7-2 2.4M35 40.3c-.4.4-3.2 4.5-8 5.4-4.4.9-6.6-1.3-8.5-.4-1 .4-.6 1.8-.6 1.8s2.6 2.6 8.1 3c1.6.1 32.3.7 37.8.5s39.9-.1 41.3-.3c2-.3 3.9-2.6 4.2-2.9s.2-1.5-1.4-1.9-2.8.8-6.7.4c-4.8-.5-6.9-5.5-7.4-5.5s-58.1-.7-58.7-.1" style="fill:#385661"/><path d="M63.7 40.6c-2.1 0-9.4 10.6-15.7 15.9-7.3 6-13.8 10.7-13.8 10.7l31.4 4.1L95 67.5s-11-6.8-16.5-11.9-12-14.8-14.7-15" style="fill:#546f7a"/><path d="M41.1 67s7-4.9 12.2-9.4S62.7 47 63.7 47s6.2 7 11.2 11.3c5.3 4.6 14 10.5 14 10.5l-25.8 2.1z" style="fill:#fff"/><path d="M46.7 67.4s3.3-1.9 7.8-6.1c2.8-2.7 6-5.4 6-5.4s1.4 1.6 3 1.6 3.3-1.6 3.3-1.6l7.4 6.6c2.9 2.4 8.2 5.8 8.2 5.8s-17.7 2.5-17.7 2.3-18-3.2-18-3.2" style="fill:#b9ced3"/><path d="M18.3 66c-.4.8-4.5 6.5-7.6 7.8S5 74 4 74.3 2.8 76 2.8 76s1 1.2 6.5 1.4 42.2.4 53.6.5 52 1 55.7.8c3.8-.3 5.9-1.6 5.9-1.6s-.3-1.6-2-1.6-4 .1-7-1.4c-3-1.6-6.8-6.8-8.3-7.3-.8-.3-22.2 0-43.6-.1-22.3-.2-45-1-45.3-.5" style="fill:#385661"/><path d="m15.3 98-4.6 12.7c-1.8 4.4-5.5 11.9-5.5 11.9l4 1.4 103.6.8 10.2-3s-4.7-6.7-8-13.6c-3-6-3.9-9.7-3.9-9.7z" style="fill:#89837c"/><path d="M33.7 86h5v7.8h-5.1zm8.4 0v8h4.7v-8zM57 86v8h5v-8zm8.1 0h4.7v7.9h-4.7zm15.4.1h4.8v7.8h-4.8zm8-.1v7.8h4.7v-7.6zM57.7 60.4h2.6v6.2h-2.7zm4.6 0v6.2H65v-6.2zm4.7 0h2.7v6.2H67zM52.8 31.8h4.7v5.5h-4.7zm9.4.1h4.2v5.4h-4.3s.2-5.4 0-5.4m8.9 0h4.2v5.4h-4.4z" style="fill:#2f2f2f"/><path d="M79.3 9.8h1.8l-.5 1.7q-.7 1.5-.1 2.5c.5.8 3 1.6 5.2-.5 2.2-2.2.7-7.4 1.1-8.3s1.4-1 1.7-1.5S88.1 1 86 1c-1.7 0-2.5 1.4-2.5 1.4S82.3.8 81 1c-1.7.2-2.8 2.1-2.7 2.6s2.4.5 2.1 2.7c-.2 1.9-1 3.5-1 3.5m-31.9 0h-1.9v3.4c0 1-1 2.1-2.8 1.9q-3.2-.7-2.8-5.2c.4-4.5 1.2-3.7.7-4.8s-1.7-.4-2.1-.6c-.6-.4.2-3.1 2.6-3.3 2.1-.1 2.7 1.5 2.7 1.5S45 1 47 1.4c2.2.4 2.7 2.8 2.3 3.2-.3.3-1.4-.3-2 .8-1.2 2.2.3 4.4.3 4.4" style="fill:#fcc01e"/><path d="M9.3 114s1.3 1.4 1.4 5c.1 3.7-1 5-1 5H5c-1 0-1.5-1.4-.5-2.8zm3.4-6.6c-.3.8-.2 2.2 0 3.3 0 1 0 2.1 1 2.9s2.3.9 4.8.8c2.6-.1 3.2-.2 3.6-1 .5-.9.4-4.6.5-5.3s-2.8-3-3.3-3c-.6-.3-5.9.7-6.6 2.3m.1-2.5s5.8-1.1 5.9-2.1c0-1.2-1.4-1.9-2-2.5-.7-.5-1.7-1.6-1.7-1.6zm8.8-4.9c-.6.5-1 2.4 0 4q1.2 2.4 3.4 2.5c2.2 0 2-3 2.2-4s.5-1.8-1.2-2.3c-2.1-.6-4-.6-4.4-.2m-4.9-2s.8 1.4 2.3 1.4 2.4-1.4 2.4-1.4zM29 98s-.2 1.2.4 2c.5.9.3 2 2.1 2.2s6 .4 6.9-.1c.5-.3.5-4 .5-4zm5.3 5.2c-2.5 0-4.7.6-5.6 1.7-1 1-1.5 2.4-2.5 3.9-1 1.4-2 3.8-1.9 5.2s2.7 4 4 4 2.7-1.4 3.3-1.5c.7 0 2 1 3 .8 1.4-.2 3-2 3.7-5.7.8-4.1.2-5.9.1-6.2 0-.3-.6-2.3-4.1-2.2m-21.7 15.3c.1 1.5 2 4.7 3.4 4.8 1.9.2 3.7-1.6 3.9-2.6.2-1.3-1.6-4.9-3.8-4.6-1.4.1-3.7.4-3.5 2.4m9.7 4c.3.5 3-.1 3.5-.3s2-1.2 1.8-1.8-2.2-2.3-3.3-2.2c-1.2.1-2.6 3.5-2 4.3m6.5 1.6H38s1.2-.4 1.4-1.4-5.4-4-7-3.7a4 4 0 0 0-3.2 2.4c-.4 1.3-.5 2.7-.5 2.7M38 118c0 1 2.7 3 3.4 3s3-3.2 3.3-5c.4-2-2.7-3.6-3.5-3.3-1.1.4-3.1 4.3-3.2 5.3m9.7-18.7c0 .5-1 2-1.1 2.5s.6 4-.4 4.5-2.7-1-3.6-2c-.8-.8-2.2-2.2-2.3-2.7s1-1.8 2-2.4L45 98h2s.7.2.7 1.2m-6.7 7.6c-.4.3-.6 2.5-.3 3.3s1.8 1.8 2.4 1.7 2.1-1.7 2-3c0-1.2-3.3-2.5-4-2m3.9 5.4c0 .7 1.5 2.8 2 2.9s2-1 2.6-1.1c.4-.2 2.7.1 3.3-.6.5-.8-.8-3.3-1.2-4-.4-.6-1.5-1.8-1.9-1.8s-2.2.8-3 1.4c-.6.7-1.9 2.4-1.8 3.2m7.7-14c-.5 0-2.1 1.3-2.8 2.4s-1.6 2.2-1.3 3 4.5 3.2 6.2 1c2.8-3.5-1.6-6.2-2.1-6.4m4.3 0s-.4.4.2 1.2 1.7 3.4 3.4 3.3c1.6 0 3-1.6 3.8-2.5s.8-2 .8-2zm-3.2 10.2c-.2.4.2 1.5 1 1.4.6-.1 1-.5 2.4-.5s2 1.5 3.1 1.4 2.4-1 2.8-1.8.4-2 .3-2.3-2.1-1.7-4.2-1.5c-2.1 0-4.9 2-5.4 3.3m2.4 3.7c-1 .6-1.3 1.6-1.2 2.1s-1.3 1.9-.7 3.3 2.8 4 3.4 4.7c.6.6 3 .7 3.4.4s3-2.7 3.3-3.6-1.2-4-2-5-4.3-3-6.2-1.9M66 108c-.9.5-2.4 2.8-2.5 3.6s.5 2.8 1.8 2.3 2.6-2.3 3-2.7 2.5-1.8 2.5-2.6c0-1.1-4.2-.8-4.7-.5m1.9-8.9c-.5.4-4.2 4-4 4.6 0 .5 1.8 2 2.5 2.4.8.4 2.2 0 3.7.2 1.5 0 3 .6 3.6.5.7-.2 3.3-1.3 3.1-3.2s-4-3.8-5.7-4.3q-2.6-.6-3.1-.2m5.6-.9s1 1.3 2.6 2.4 3.1 1.4 4.2.7c1-.6 2.5-3 2.5-3zm7.6 4.2c-.7 0-2 1.3-2.5 1.6q-.7.7-.5 1.4c.2.7 2.6.6 3.2 0 .5-.4.6-3-.2-3m1.9 1.3c.3 1.1 4 3.1 5.1 2.8 1.2-.3 3.2-2.8 3.2-3.5s-2.9-3.4-3.3-3.7-3.3-.5-3.5 0-1.7 3.2-1.5 4.4m-7.5 5.6c-.2.8 1.6 2.8 2.5 3.9s1 2.3 1.8 2.5 2.8-.8 3.7-3c.9-2 1.4-3 .2-4.6s-3.6-1.2-4.5-1-3.5 1-3.7 2.2m16.9-9.6c-.6.4-.3 3 .5 3.4.7.4 1.5 0 2.2-.4s1.7-1.5 1.5-2c-.3-.5-3.7-1.3-4.2-1m-50.1 24.4s0-.8 1.5-2.7 3-4.6 5.3-4.5 3.2 1.5 4.6 3.4l3 4zm21.2.2s2.2-2.2 3-2.1c.8 0 .5.5 1.1 1l1.6 1.1zm2.7-9.2c-.8.6-.8 3 .2 4.4 1.3 1.9 3.9 3.8 5.1 4.3s2.5-1.3 2.4-2.4c0-1-2-3.7-3.2-4.7s-3.5-2.5-4.5-1.6m2.5-1.7c0 .5 3 3 3.8 3.8.8.9 3 2.7 4.3 2.5s1.8-1.4 1.5-2.6a15 15 0 0 0-3.1-4.7c-1-1-2.4-1.6-3-1.6-.8 0-3.5 1.6-3.5 2.6m13.9 3.3c-.2.3-3.5 3.7-3.8 4.5s0 2.6.1 2.9l.3.3h1.4l2.5-3.1c.8-1 1.3-2.3 1.2-2.6 0-.4-1.5-2.2-1.7-2m2.9 4.5c-.5 0-1.7 1.4-2 1.7l-1 1.6H88s-1.5-3.3-2.3-3.3m-.7-6.9q-.2 2.5 1.7 5.2c1.5 2.2 4.3 4.3 6 4 1.7-.1 3.8-2.4 4.5-3.8.6-1.5.7-3.8-.6-4.8s-2.5-.6-3.2-1-3.8-3.2-4.9-3.1c-1.2 0-3.1 1.5-3.4 3.5m6.2-5.5c.1 1 .5 2.6 2.8 3.5 2.3 1 3.6.9 4 .8.6-.2 4.1-2.7 3.7-4-.4-1.4-.8-2-2.9-2-2-.1-3.7-2-5-1.5-1.2.3-2.8 1.7-2.6 3.1m5-4.9c0 1.2 1.6 1.2 2.8 1.2s3.3-2 3.5-3.7c0-.6-1.5-1.3-2.3-1.4-.9-.1-4 3.1-4 3.9m6.5-5.5a6 6 0 0 0 2.3 1.9c1.5.7 2.3 1.4 3.3 1 1-.5 1.9-2.8 1.9-2.8zm0 6.6a7 7 0 0 0 1.5 3.4c.4.2 3.2.3 3.7.2.5-.2 1.7-2.7 1.9-3 .2-.4-.2-2-.6-2.2-.4-.1-2.2-.6-2.4-.8s-1.6-.7-1.9-.5-2.3 1.5-2.2 2.8m10.3-.8s-1.1 2.2-2.2 3.4c-1.1 1.3-1.9 1.3-2 3s1 4.3 2.2 4.2 2.6-1.7 3.1-2.5l1.4-2.7-1.3-2.7zm-12.1 8.8c-.4.4-1.7 4-1.5 4.6.1.7 2 2 2.5 2s3-1.7 3.7-2.1c.6-.5 2-2 2-2.5s-1.2-4.5-2.4-4.6c-1.2-.2-3.6 2-4.2 2.6m.4 11.8s-1.3-2.8-3-2.8c-1 0-2.9 2.7-2.9 2.7zm2.5 0s-1.4-1.5-1.3-2.5c.2-1.8 3.7-3.8 4.3-3.9.5 0 2.4 2 2.7 2.9s.4 2-.2 2.5l-1.3 1zm6.2-7c.1.7.9 2.3 2.3 2.6 1.5.3 3.9-.4 5.3-.8s2.7-1.5 2.7-1.5l-.8-1.3s-3.1-2-5.6-1.4-4 1.4-3.9 2.4m6.6-5.9s-1.5 1-1.2 1.7 2 1.2 2.3 1.3l.9.3zm6.2 9.9s-1.9-1.1-3-.9c-1.3.3-5 1.4-5.8 2s-1.7 2-1.7 2 10.4.7 11.3 0c.9-.8-.8-3.1-.8-3.1" style="fill:#afa59e"/><path d="M13.6 108.8c.2.8 1.4 1 2.7 1.7s1.9 1.5 3.3 1.3 1.4-1.9 1.3-2.8-.4-2.5-1.8-2.8c-1.5-.3-5.7 1.2-5.5 2.5m13.4.8c-.3 1 .2 2.4 1.2 2.2s4-3 5-3.6 4.3-1.3 4.2-2.6-3.7-1.7-4.9-1.3-5 3.6-5.5 5.3m14-8.1c0 .7.8 2 2 1.4s.9-.8 1.4-1c.5-.3 2-.6 1.7-1.7s-2.1-1-3.2-.5-2 1-1.9 1.8m8.6-.1c-.3 1.2 1.4 1.3 2.3 1.2s2.6.2 2.4-1c-.1-1.3-1.2-1.8-2.3-1.8q-1.6-.2-2.4 1.6M46.2 112q.5 1.2 3.1-.6c1.8-1.3 2.5-1.6 1.8-2.5-.7-1-2.1-.4-3.3.4-1 .9-2.3 1.7-1.6 2.8m11-5.1c0 .6.6 1.4 2.4 1.6s2.7-.4 2.8-1.2-.9-1.5-2.3-1.7-2.9.1-2.9 1.2m13.1-6.9c-.6 0-3.1 1.9-3.7 2.5s-.4 1.9.7 2h3.8q2.1.2 3.2.1c.5-.1 1.2-1.3.5-2.1-.7-1-3.5-2.4-4.5-2.4m-13.5 12.7c-1.1 1-.4 2.7.6 3.7 1.2 1.3 3.7 2 4.5.9.8-1 .2-3-1.5-4.3q-2.2-1.4-3.6-.3m13.2.3c.1.8.5 1.4 2.2 1.3s2.2-1 2-1.8-1.4-1-2-1c-1.2 0-2.3.5-2.2 1.5m7.3-3c.8.8 1.8.7 2.4 1.1.6.3.4 1.4 1.8 1q2.4-.4 2.2-2.3c-.3-1.2-1-2.5-2.3-2.6s-3.6.5-4 1q-.7 1-.1 1.8m8.8 4.6c.3.9 3 2.6 4.6 3s3.6.7 4.8 0 1.3-2.1.1-2.4c-1.1-.4-2.7-.1-3.2-.5s-2.2-3.1-3.4-3c-1.1 0-3.4 1.6-2.9 2.9m7.1-6.7c-.1.7 1.4 2.7 3.7 3 2.3.1 4-1.6 3.7-2.6s-2.3-.9-3.4-1c-1-.2-2-1.2-2.5-1s-1.5.5-1.5 1.5m-8.2-7.5c-.4.8-1 2 1.3 2.5s2.8 0 3.2-.8-.8-1.4-2-2c-1.3-.6-2.3-.2-2.5.3m19.1 3.9q.2 1.6 2.3 1.7c2.1.1 2-.6 2-1.5s-1-1.5-2-1.5c-1.2 0-2.2 0-2.3 1.3" style="fill:#dcd2c7"/></svg>