<svg xml:space="preserve" width="16" height="16" viewBox="0 0 128 128"><radialGradient id="a" cx="73.2" cy="57.4" r="70.5" gradientTransform="rotate(-28.6 166.3 33.64)scale(1 .173)" gradientUnits="userSpaceOnUse"><stop offset=".3" style="stop-color:#e1f5fe"/><stop offset="1" style="stop-color:#b3e5fc"/></radialGradient><path d="M101.8 51C88.2 65 83 68.2 47.2 85.6c-10.2 5-20.5 7.2-28.8 9-6 1.4-10.9 2.4-13.5 4.1l-.8.6v18.4h46.6L124 89V24.7c-5.3 7-13 16.5-22.2 26.2" style="fill:url(#a)"/><path d="m124 88.4-73.4 29H4v1h46.8l73-29z" style="fill:#b3e5fc"/><radialGradient id="b" cx="-127.7" cy="-465.2" r="157.9" gradientTransform="rotate(152.4 51.4 -76.42)scale(-1 .485)" gradientUnits="userSpaceOnUse"><stop offset=".2" style="stop-color:#fff"/><stop offset="1" style="stop-color:#b3e5fc"/></radialGradient><path d="M124 42.9a75 75 0 0 0-17.7 12.3C75.7 85.2 48 87 29.3 98c-10.5 6.2-20 12-25.2 15.2V124H124z" style="fill:url(#b)"/><path d="M124 69.3v-8.6L50.7 101l-11 6.1c-4.2 2.4-.5 8.8 3.8 6.5L121 70.9z" style="fill:#b3e5fc"/><linearGradient id="c" x1="28.5" x2="116.2" y1="89.5" y2="89.5" gradientUnits="userSpaceOnUse"><stop offset=".2" style="stop-color:#fb8c00"/><stop offset=".6" style="stop-color:#f67f00"/><stop offset="1" style="stop-color:#ef6c00"/></linearGradient><path d="M115.9 67.4c-.6-1.2-2-1.6-3.2-1l-73.6 40.7c-.7.4-2.6-.5-4-1.2q-1.6-.9-2.6-1c-1.9-.3-3.6.9-4 2.6a3.3 3.3 0 0 0 2.9 3.9c.8.3 4.1 1.4 6.3 1.4q.9 0 1.5-.2l75.8-42c1-.7 1.5-2.1.9-3.2" style="fill:url(#c)"/><path d="M43.5 17.9a14 14 0 0 0-9.2-3.2q-5 0-9.4 2.7c-8.5 5.2-7.1 14-7.1 14s-1.6 2.7-2 4.7q0 1.8.8 1.9.3 0 .5-.2l10-7.2.9-.2c3.6 0 8.3 7 11.3 7h.5L37.9 32h1c1.3 0 3.6.4 4 3.2.2 2.4 2.1 3.5 3.9 4.8 3-7 3-17-3.3-22.1" style="fill:#039be5"/><path d="M48.8 29.1c-.2-.9-.4-3.5-1.4-4H47c-.8 0-1.5 1-2.1 1.5q-1.9 1.2-3.7 2.1-4 1.8-7.6 3.8-1.3.7-2.5 1.6l-1.9 2a87 87 0 0 1-8.1 7s.7 1 .3 3q0 1.5 1.3 2c1.6.4 2.2-.1 3.4 1q1.6 1.5 3.7 1.8h.2q2.2-.1 4.2-1.2a35 35 0 0 1 9.8-2.6l.1-6c.4-1.1 1.6-2.2 2.4-3.1 1-1 3.4-2 4-3.3.6-1.4-1.4-4.2-1.7-5.6" style="fill:#4568ad"/><path d="m38.8 33.8 9.2-7.5a1.3 1.3 0 0 0-1.5-2.2l-9.8 6.1-.6-.9a3 3 0 0 0-3.7-1l-4.3 2.2 7 12.8 4.4-3.6q1.7-1.7.7-3.7z" style="fill:#444"/><path d="m17.2 37.8 10.4-7.5c1.3-1 3.2-.5 4 .9l4.2 7.4c1 1.6.4 3.6-1.2 4.5l-4.2 2.5c-2.7 1.3-6-.8-6-.8q-1.5-.9-3-.3H21l-.3.3-1.1-1.8.4-.3-1.8-3-.4.3-1.2-1.9z" style="fill:#e3f2fd"/><linearGradient id="d" x1="18.3" x2="31.2" y1="91.2" y2="91.2" gradientTransform="matrix(1 0 0 -1 0 130)" gradientUnits="userSpaceOnUse"><stop offset=".4" style="stop-color:#90caf9"/><stop offset="1" style="stop-color:#42a5f5"/></linearGradient><path d="m18.3 39.8 7.4-5c1-.8 2.5-.5 3.2.6l2 3.4c.6 1 .3 2.4-.8 3L28.2 43q-1 .6-2 .2s-4-2-6.1-.4z" style="fill:url(#d)"/><radialGradient id="e" cx="54.1" cy="57.9" r="21.4" gradientUnits="userSpaceOnUse"><stop offset="0" style="stop-color:#616161"/><stop offset=".6" style="stop-color:#6e6e6e"/><stop offset="1" style="stop-color:#7b7b7b"/></radialGradient><path d="m86.6 38.4-1-1.4-28.8 14.2q-1.3.4-2.5 1.3a7 7 0 0 0-.9 9.7l.4.4-1 .5 11.8 21.6L77 78l-8-16.8 14-5.7c6.3-2.5 8-11 3.6-17.1" style="fill:url(#e)"/><linearGradient id="f" x1="50" x2="109" y1="67.3" y2="95" gradientTransform="matrix(1 0 0 -1 0 130)" gradientUnits="userSpaceOnUse"><stop offset=".3" style="stop-color:#ef6c00"/><stop offset=".5" style="stop-color:#f67f00"/><stop offset=".8" style="stop-color:#fb8c00"/></linearGradient><path d="M37.9 70.2q-1 0-1.4-.8-.5-1.4.7-2l71-34q1.2-.4 2 .8c.7 1.2 0 1.6-.8 2L38.5 70q-.3.3-.6.2" style="fill:url(#f)"/><path d="m105 43.1-4.6-3.7a1 1 0 0 1-.4-.8l.6-5.8c0-1 1.5-1.3 1.9-.3l4.1 9.5c.4.9-.7 1.8-1.5 1.1" style="fill:#616161"/><linearGradient id="g" x1="31.1" x2="41.3" y1="72.2" y2="66.3" gradientUnits="userSpaceOnUse"><stop offset=".5" style="stop-color:#ffca28"/><stop offset="1" style="stop-color:#ffb300"/></linearGradient><path d="m44.4 70.4-3.9-6.6-.5-.2h-.4l-4.2-1.4h-1.2v.1H34q-.6.4-.8.9l-.9 1.5q-.2.6-.2 1.4-1.8 1.2-2 1.9-.7 1.3-.4 2c.8 1.5 3.2 5.6 4.9 6.3l1.5.4q1 0 2-.5c2.3-.9 6-5 6.2-5.2q.2-.3 0-.6" style="fill:url(#g)"/><radialGradient id="h" cx="32.3" cy="46.7" r="12.5" gradientUnits="userSpaceOnUse"><stop offset=".4" style="stop-color:#f78c1f"/><stop offset=".7" style="stop-color:#f37f21"/><stop offset="1" style="stop-color:#ed6d23"/></radialGradient><path d="M53.3 32q-.6-.1-2.6-1.6c-1.2-.8-.4-3.1-1.8-3.1-1.2 0-8.3 5.5-10.8 7.4-3.9 2.8-11.2 11.1-9.6 16.8l.3.1c1.1 0 5.8-2.2 12.2-2.2l3.6.2c.7-3 1.2-5.3 2.8-8 1.8-3.1 8.3-9.2 5.9-9.5" style="fill:url(#h)"/><radialGradient id="i" cx="58.7" cy="36.6" r="19.8" gradientTransform="matrix(1 0 0 .582 0 15.32)" gradientUnits="userSpaceOnUse"><stop offset=".4" style="stop-color:#f78c1f"/><stop offset=".7" style="stop-color:#f37f21"/><stop offset="1" style="stop-color:#ed6d23"/></radialGradient><path d="M81.9 34.6s-9.5-2.9-21.5-2.9v.5-.5q-8.1-.1-16.8 2.2c-2 .6-6.4 4.8-2.6 9.3 4 4.5 16.2 10 16.2 10l30.2-13.6c-.8-1.8-3-4.2-5.5-5" style="fill:url(#i)"/><radialGradient id="j" cx="48.7" cy="45.1" r="17" gradientUnits="userSpaceOnUse"><stop offset=".4" style="stop-color:#f78c1f"/><stop offset=".7" style="stop-color:#f37f21"/><stop offset="1" style="stop-color:#ed6d23"/></radialGradient><path d="M63 53.7c-.3-.5-10.1-19.2-19-19.2q-2.2 0-4.3 1.7c-7.5 6.4 4.2 16.6 9.5 20.7l-8 4.2c-2 1.4-2.6 5.2-1.2 7.3a7 7 0 0 0 5.4 2.7q1 0 2-.5l13.8-9q.6-.3.9-.9a6 6 0 0 0 .9-7" style="fill:url(#j)"/><path d="m81.2 83-8.8-15.7-13.8 7.8 4 7.2q.5 1-.4 2L58 86.8c-3 2.5-1 5.7-1 5.7l1.6 3a2 2 0 0 0 2.8.7l19-10.6a2 2 0 0 0 .8-2.7" style="fill:#4568ad"/><path d="M104.5 77.8c1.2-1.1.4-3.2-1.3-3h-.1q-1.5.5-2 2l-.3 1.5-.1.7q0 .3.2.5l.9-.3q1.5-.4 2.7-1.4m12-11.9c1.1-1.3 3.3-.4 3 1.3v.1q-.6 1.4-2.1 2l-2.2.4q-.3 0-.4-.3l.2-.8q.4-1.6 1.5-2.7m-18-.8c.7-1.7-1.2-3.4-2.7-2.3l-.1.1c-.9.7-1.1 2-1 3l.4 1.6.3.8q0 .3.4.3.5-.2.8-.6a9 9 0 0 0 2-2.9m13.3-9.3c1.1-1.2.1-3.1-1.5-2.7h-.2q-1.4.6-1.6 2.1l-.3 1.5v.7l.2.4.8-.3q1.5-.6 2.6-1.7m-1.3 9.2c1.4-1.6.1-4-2-3.5q-1.8.9-2.2 2.8l-.2 1.8v.9q0 .4.2.5.6-.1 1-.4a10 10 0 0 0 3.2-2.1" style="fill:#fff"/></svg>