<svg xml:space="preserve" width="16" height="16" viewBox="0 0 128 128"><path d="M68 37.4 13.3 48.6s-8.5 7.6-9 20.1a37 37 0 0 0 12 28.7c8.6 8 23 14.5 47 15a67 67 0 0 0 46.2-14.2A37 37 0 0 0 123.1 68c-.4-12.7-10.5-19.8-11.3-21S68 37.5 68 37.5" style="fill:#d4d4d3"/><path d="M63 107.2c40 0 58.5-21.8 58-42-.4-20.6-28.7-35.2-57.2-34.7C14.1 31.5 7.2 54.7 7 67.3c-.3 14.9 13.2 40 56.2 40" style="fill:#f7f6f5"/><path d="M12 63c-2.8 11.9 6 38.7 51.7 38.7 42.4 0 53.3-24.4 53.3-36.2 0-12.2-11.4-33.4-55-31C20.4 36.6 13.5 56.6 12 63" style="fill:#df7f14"/><path d="M92.8 47.4c.4 1 3.7 1.8 6.1 2.4s5.8 1.2 6.5-.2-1.6-4.9-4.4-6.4-5.5.1-6 .6c-1 .8-3 2.3-2.2 3.6" style="fill:#ff5119"/><path d="M16 63.3c-1.5 0-3.2 3.6-1.7 7s3.5 4.9 4.2 6.7 1.5 6.3 4.6 9.4c3.2 3 7.7 3.5 9.6 4.1s7 4.8 15 6c9.1 1.4 21.6-1 21.4-2.9S55.7 90 53.2 89.4s-11.4-2-18-5.4C30 81.2 25.7 78 21 71.2c-3.3-5-4-8-5-8" style="fill:#f5b03e"/><path d="m44.3 22.5-5.5 4.7-8.4 3.1-2.4 7.2s-4 2.8-4.2 3.8c-.1 1.1-2.5 9.8-2.5 9.8s-.6 3.4-.6 5c0 1.5 5.7 13 24.4 16.3A56 56 0 0 0 83.9 67c7.7-4.4 9.1-9 9.1-9l-.4-8.3s-2.5-9.6-3.5-11.8-8.2-10-8.7-10.2l-9.8-6L56.8 19zM15.9 67.6c-1 .5-.4 2.5.8 4.4s2.4 2.6 3.3 5.4c1 2.8 2.8 7.6 6.3 9.6s5.6.4 5.7-.7c.1-1.6-1.9-1.8-5.5-5.4-3.7-3.7-6.3-8.2-7.7-10.4-.9-1.3-2-3.3-3-2.9M39 87.3c-1.2-.7-3 1.3-1.5 4.2 1.6 2.8 4.3 2.2 4.5 1.2.3-1.7-1.3-2-1.8-3s.2-1.6-1.1-2.4" style="fill:#fefefe"/><path d="M29.5 38.6s-3 1-4.1 4-1.1 7.1-1.1 7.1-1.9 1.4-2.7 3.4c-.8 2.2-.5 3.9-.8 3.8-.8-.1-1.3-3.5-1-5.1.3-2.2 1.2-3 1.2-3s-.7-4.7 1-8.1c1.8-3.5 4.7-5.2 4.7-5.2s1-4.7 3.9-7 6-2.7 6-2.7 1.2-3.5 4.8-5.5 7.5-1 7.5-1 3.6-3 8.5-3 7.3 2.6 7.3 2.6 4.2-.6 7.3 1 4.9 4.3 4.9 4.3 3.4.6 5.8 3c2.7 2.6 3.7 5.8 3.7 5.8s4.5 2.5 6 6.2c1.8 4.5.6 9 .6 9s2 2.3 1.6 5.7-2 6.5-2.7 6.2c-.1 0 .6-4.5 0-6.8-.5-1.9-2.5-4.7-2.5-4.7s.3-5.2-1.3-8.2-4.7-3.9-4.7-3.9-1.2-3.9-3.5-5.9-4.9-2.2-4.9-2.2-2.3-3.5-5-4.5c-2.6-1-5.4-.5-5.4-.5S60.9 21 57.3 21c-4 0-7 2.7-7 2.7s-3.3-1.2-6.6 1-4.1 4.8-4.1 4.8-3.8.4-6.2 2.5-4 6.6-4 6.6" style="fill:#b0b0b0"/><path d="M73.2 34.2c-1.8 0-1.9 2.5-2.7 4-.8 1.2-3.6 1.9-2.5 3.8 1 1.6 4.7.7 6.1-2.2 1-2 1.3-5.6-1-5.6m7.4 8.8c-1.7.2-1 2.5-1.6 4.2s-2.8 3.3-1.6 4.5 4-.7 5-3.9-.4-5-1.8-4.8m-9.2 6.4c-2 0-1.6 2-2.8 3.7s-2.7 2.3-2 3.5 3.6 1.4 5.3-1.7 1-5.5-.5-5.5M73 61.2c-1.4 2.1-3.7 2-3 3.7.8 2 4.1 1.1 5.8-1.3 1.3-2.1 2.4-5.7 0-5.8-2 0-1.8 1.6-2.9 3.4m-12.8-1.3c-1.4 0-1.4 1.8-2.4 3.1-1.2 1.5-3.4 1.8-2.6 3.6s4.2 1.6 6-1c1.6-2.1 1.7-6-1-5.7" style="fill:#d4d4d3"/><path d="M22 62.8c-1 .3-2 3.1-1.9 4.2.3 1.3 3.3 4 5 4s5.2-2.4 5.5-3.3c.4-.9 0-2.8-.3-3.3-.5-.6-1.9-2-2.7-2s-4.5 0-5.7.4" style="fill:#ff8e00"/><path d="M25.9 71.4c-1 1.4.2 3.2 1.2 4.4 1 1.1 3.2 4 7.6 3.6 5.2-.5 7-5.9 7-8.1s-.7-3.7-2.4-3.4c-2.3.5-2.3 2-4.8 2.7-2.6.6-7.3-1.2-8.6.8" style="fill:#fcc219"/><path d="M41 77.6c-.1 1.4-.1 4.5 1.2 5s6.8 0 7.8-.2 1.3-2.4.7-3.3-4.7-4.1-6.4-4-3.2 2-3.2 2.5" style="fill:#ff8e00"/><path d="M52.7 84.3c1.1.5 2 4.6 1.8 5.5-.3 1-1.4 2.9-2 3-.5.2-5.3.3-7.2 0-1.8-.3-3.7-2.3-3.5-5 .2-2.6 2-3.5 4.9-3.8 2.8-.2 6 .3 6 .3m6.5-9.7c-1.7.3-5.2 3-5.3 5.4s1.7 4 3 4c1.5 0 7.2-5.7 6.8-6.8s-2.2-3-4.5-2.6" style="fill:#ff5319"/><path d="M63.3 80.3c1 1.1 4.6 3.3 6.6 3s7-2.4 6.6-5.4-4.8-6.5-6.4-7.1-4.5-.2-5.7.9c-1.2 1-2.1 7.3-1 8.6" style="fill:#f8c977"/><path d="M82 73.6c-1.4 0-2.2 1.8-2.5 2.4s-.8 2.6-1.4 3.9c-.7 1.3-3.7 4.7-2.6 6.5s3.5 1.4 6.6 1c3-.6 5.4-1.9 5.7-4.6q.8-4.4 0-5.8c-.8-.9-3.5-3.5-5.8-3.5" style="fill:#fcc219"/><path d="M75.1 91.5c1.3-.7 6.2-4.5 8-4.4s3.4 1.4 3.9 2.5c.5 1 .7 4-.4 5-1 .8-4.3 1.2-5.8 1.4s-6.5.7-6.9-1.7c-.3-2 1.2-2.8 1.2-2.8" style="fill:#ff8e00"/><path d="M92.6 82.9c0 2.8 4.6 4.7 6 4.7s4.7-.7 6.4-3c1-1.4 2-3.7 1.5-5.1s-1.4-2.7-3.5-3c-2.1 0-6.6-.3-7.8.6s-2.6 4.8-2.6 5.8" style="fill:#ff5119"/><path d="M91.2 68c-.6 1 .4 4.1 1.7 5.5 1.1 1.1 2.7 2.4 6 2s6.6-2.5 7.3-3.6 1.8-3.3 1.2-4.4c-.6-1-6-.4-8.5-.4s-7-.2-7.7 1" style="fill:#f8c977"/><path d="M103.5 52.9c-.1 1 1.9 2.9 2.7 3.5s3.3 1.2 4.2.7c.8-.6 1-3.9.6-4.8-.5-1.2-2.7-2.5-4-2.2-1.4.3-3.4 1.6-3.5 2.8" style="fill:#f9ca76"/><path d="M101.9 53.7c-1.7 1-4 4.5-4.6 5.6s-1.9 3.6.3 4.4 6.3.1 7.8-.6 4.4-2.2 4.4-4.1-1.3-3.3-3-4.4-3.2-2-5-1" style="fill:#ff8e00"/><path d="M107.9 66q1.4 1.3 4.1.5c2-.3 4.5-1.2 4.2-2.9s-2.2-3-3.2-3.4-4.2-.3-5.2 1c-1 1.1-.7 3.8.1 4.7" style="fill:#fcc219"/></svg>