<svg xml:space="preserve" width="16" height="16" viewBox="0 0 128 128"><path d="M6.8 35.5v75c0 3.2 3 5.2 6.3 7.6 3.6 2.5 5.5 2.3 7.2 2.3l95.9.6c3.7 0 5-2.6 5-5.3V35.5z" style="fill:#bdbdbd"/><linearGradient id="a" x1="117" x2="117" y1="68.6" y2="111.4" gradientUnits="userSpaceOnUse"><stop offset=".3" style="stop-color:#616161"/><stop offset="1" style="stop-color:#616161;stop-opacity:0"/></linearGradient><path d="m121.2 115.7-8.3-8.5V35.5l8.3 5z" style="opacity:.29;fill:url(#a)"/><path d="m121.2 41.2-6.5-4-10-23.2h5.4c9.6 0 11 5.6 11 7.5z" style="fill:#c62828"/><path d="M9.8 36.3v72.2c0 2.7 2.1 4.8 4.8 4.8h94.9c2.7 0 5.2-2 5.2-4.7V36.4z" style="fill:#fafafa"/><path d="M114.7 37.2H6.8V18.5c0-2.5 2.6-4.5 5.8-4.5h96.6c3.1 0 5.7 2 5.7 4.6z" style="fill:#f44336"/><path d="m103.7 116.6-9.5.9-9.6.4-9.5.3-9.5.1H56l-9.5-.4q-4.8-.1-9.6-.5l-9.5-.8v-.2h76.3z" style="fill:#757575"/><path d="M42.5 45v12.2H16.2v49.3h52.1V94.2h38.8V45z" style="fill:#b3e5fc"/><ellipse cx="19.1" cy="19.8" rx="3" ry="3.3" style="fill:#af1e1e"/><path d="M20.5 17q-.6-1.3-.7-3c0-2.7 1.4-5 3-5s3 2.3 3 5h4.5c0-5.5-3.3-10-7.5-10-4.1 0-7.5 4.5-7.5 10q0 3 1.2 5.3t3.4 1.3c1-.5 1.2-2.3.6-3.5" style="fill:#94d1e0"/><path d="M30.4 14c0-3.3-1.3-6.3-3.2-8.1 0 0 .5 1.5-.2 2.9-.8 1.3-2.5 1.1-2.5 1.1q1.3 1.5 1.4 4.1z" style="fill:#2f7889"/><ellipse cx="35.6" cy="19.8" rx="3" ry="3.3" style="fill:#af1e1e"/><path d="M37 17q-.6-1.3-.7-3c0-2.7 1.4-5 3-5s3 2.3 3 5h4.5c0-5.5-3.3-10-7.5-10-4.1 0-7.5 4.5-7.5 10q0 3 1.2 5.3c.6 1.4 2 2 3.3 1.3 1.1-.5 1.2-2.3.7-3.5" style="fill:#94d1e0"/><path d="M43.6 5.9s.6 1.5-.2 2.8C42.6 10.2 41 10 41 10q1.3 1.5 1.4 4.1h4.4A11 11 0 0 0 43.6 6" style="fill:#2f7889"/><ellipse cx="52.1" cy="19.8" rx="3" ry="3.3" style="fill:#af1e1e"/><path d="M53.4 17q-.7-1.3-.7-3c0-2.7 1.4-5 3-5s3.1 2.3 3.1 5h4.5c0-5.5-3.4-10-7.5-10s-7.5 4.5-7.5 10q0 3 1.2 5.3c.6 1.4 2 2 3.3 1.3 1-.5 1.2-2.3.6-3.5" style="fill:#94d1e0"/><path d="M60.1 5.9s.6 1.5-.2 2.8c-.8 1.5-2.4 1.2-2.4 1.2q1.3 1.5 1.3 4.1h4.5a11 11 0 0 0-3.2-8.1" style="fill:#2f7889"/><ellipse cx="68.5" cy="19.8" rx="3" ry="3.3" style="fill:#af1e1e"/><path d="M70 17q-.8-1.3-.8-3c0-2.7 1.4-5 3-5s3.1 2.3 3.1 5h4.5c0-5.5-3.4-10-7.5-10-4.2 0-7.5 4.5-7.5 10q0 3 1.1 5.3 1.3 2.2 3.4 1.3c1-.5 1.2-2.3.6-3.5" style="fill:#94d1e0"/><path d="M76.6 5.9s.6 1.5-.2 2.8C75.6 10.3 74 10 74 10q1.3 1.5 1.3 4.1h4.5c0-3.3-1.3-6.3-3.2-8.1" style="fill:#2f7889"/><ellipse cx="85" cy="19.8" rx="3" ry="3.3" style="fill:#af1e1e"/><path d="M86.4 17q-.7-1.3-.7-3c0-2.7 1.4-5 3-5s3 2.3 3 5h4.6c0-5.5-3.4-10-7.5-10-4.2 0-7.6 4.5-7.6 10q0 3 1.2 5.3 1.3 2.2 3.4 1.3c1-.5 1.2-2.3.6-3.5" style="fill:#94d1e0"/><path d="M93 5.9s.6 1.5-.1 2.8c-.8 1.5-2.5 1.2-2.5 1.2q1.3 1.5 1.4 4.1h4.5c0-3.3-1.3-6.3-3.2-8.1" style="fill:#2f7889"/><ellipse cx="101.5" cy="19.8" rx="3" ry="3.3" style="fill:#af1e1e"/><path d="M102.9 17q-.7-1.3-.7-3c0-2.7 1.4-5 3-5s3 2.3 3 5h4.5c0-5.5-3.3-10-7.5-10-4.1 0-7.5 4.5-7.5 10q0 3 1.2 5.3t3.4 1.3c1-.5 1.2-2.3.6-3.5" style="fill:#94d1e0"/><path d="M112.8 14.2q-.3-5.9-3.3-8.3s.6 1.5-.2 2.9-2.4 1.1-2.4 1.1q1.2 1.5 1.2 4.1h1.5z" style="fill:#2f7889"/><path d="M16.7 45.1v61.4m12.9-61.4v61.4m12.9-61.4v61.4m12.9-61.4v61.4m12.9-61.4v61.4m12.9-61.4v61.4m12.9-61.4v61.4M107 45.1v61.4m-90.3 0H107M16.7 94.2H107M16.7 81.9H107M16.7 69.7H107M16.7 57.4H107M16.7 45.1H107" style="fill:none;stroke:#1e88e5;stroke-linecap:square;stroke-miterlimit:10"/><circle cx="103.7" cy="48.1" r="1.3" style="fill:#1e88e5"/><circle cx="90.7" cy="48.1" r="1.3" style="fill:#1e88e5"/><circle cx="77.7" cy="48.1" r="1.3" style="fill:#1e88e5"/><circle cx="64.7" cy="48.1" r="1.3" style="fill:#1e88e5"/><circle cx="51.8" cy="48.1" r="1.3" style="fill:#1e88e5"/><circle cx="38.8" cy="48.1" r="1.3" style="fill:#1e88e5"/><circle cx="25.8" cy="48.1" r="1.3" style="fill:#1e88e5"/><circle cx="103.7" cy="60.4" r="1.3" style="fill:#1e88e5"/><circle cx="90.7" cy="60.4" r="1.3" style="fill:#1e88e5"/><circle cx="77.7" cy="60.4" r="1.3" style="fill:#1e88e5"/><circle cx="64.7" cy="60.4" r="1.3" style="fill:#1e88e5"/><circle cx="51.8" cy="60.4" r="1.3" style="fill:#1e88e5"/><circle cx="38.8" cy="60.4" r="1.3" style="fill:#1e88e5"/><circle cx="25.8" cy="60.4" r="1.3" style="fill:#1e88e5"/><circle cx="103.7" cy="72.7" r="1.3" style="fill:#1e88e5"/><circle cx="90.7" cy="72.7" r="1.3" style="fill:#1e88e5"/><circle cx="77.7" cy="72.7" r="1.3" style="fill:#1e88e5"/><circle cx="64.7" cy="72.7" r="1.3" style="fill:#1e88e5"/><circle cx="51.8" cy="72.7" r="1.3" style="fill:#1e88e5"/><circle cx="38.8" cy="72.7" r="1.3" style="fill:#1e88e5"/><circle cx="25.8" cy="72.7" r="1.3" style="fill:#1e88e5"/><circle cx="103.7" cy="97.2" r="1.3" style="fill:#1e88e5"/><circle cx="90.7" cy="97.2" r="1.3" style="fill:#1e88e5"/><circle cx="77.7" cy="97.2" r="1.3" style="fill:#1e88e5"/><circle cx="64.7" cy="97.2" r="1.3" style="fill:#1e88e5"/><circle cx="51.8" cy="97.2" r="1.3" style="fill:#1e88e5"/><circle cx="38.8" cy="97.2" r="1.3" style="fill:#1e88e5"/><circle cx="25.8" cy="97.2" r="1.3" style="fill:#1e88e5"/><circle cx="103.7" cy="84.9" r="1.3" style="fill:#1e88e5"/><circle cx="90.7" cy="84.9" r="1.3" style="fill:#1e88e5"/><circle cx="77.7" cy="84.9" r="1.3" style="fill:#1e88e5"/><circle cx="64.7" cy="84.9" r="1.3" style="fill:#1e88e5"/><circle cx="51.8" cy="84.9" r="1.3" style="fill:#1e88e5"/><circle cx="38.8" cy="84.9" r="1.3" style="fill:#1e88e5"/><circle cx="25.8" cy="84.9" r="1.3" style="fill:#1e88e5"/></svg>