<svg xml:space="preserve" width="16" height="16" viewBox="0 0 128 128"><path d="m39.1 37.5 13-7.7s3.8 3.4 3.7 3.5l-12.4 8.2z" style="fill:#546e7a"/><path d="M52.4 51.6h4v60.8h-4z" style="fill:#3a6f8a" transform="rotate(-21.2 54.4 81.96)"/><path d="M51.6 80.1s2.4-1.4 4.6 1l-2.5-6.3-4.8-1.5z" style="fill:#304e5e"/><path d="M64.9 96.3c-4-12.7-3.7-20.2-6.8-25-3.1-4.7-6.1-4.7-7.2-8V63c-.4-1.6.8-3 2.5-5.4 1-1.5 3.7-4.5 1.2-11.8a14.6 14.6 0 0 0-19.4-7.4 16 16 0 0 0-9 18.6 29 29 0 0 0 3.9 9.2c3.1 4.8 21.2 29.7 24.3 34.6.5 1 1.9 2.6 6.9.8 4.2-1.5 3.8-4.6 3.6-5.2m-7-.2L46.5 73.9s8.3 2.5 10.2 5.5A57 57 0 0 1 60.9 95z" style="fill:#7497a5"/><path d="M74 108.7 58.9 110c-1 .4-1.3 2-1.5 2.3a15 15 0 0 1-3.8 3.4 16 16 0 0 1-10.7 2.7q-1.9-.2-3.5.5c-1.3.9-1.5 4.3 4 4.8 6.6.7 10.7-1.2 14.7-2.6 3.6-1.4 5.2-.7 8.8-.4 3.3.4 8.5 1.9 9.7-2.4.9-3 .3-6.8-.5-8.5a2 2 0 0 0-2-1.2" style="fill:#90a4ae"/><path d="M68.8 123.5c3.2.3 6-.5 7.2-3.5l.5-1.6s-1.1 1-4.6-1.6c-2.8-2.2-2.9-4.3-6.6-4-3.7.1-7 6.8-16 8.9-6 1.4-10.5-.7-10.8-.8.2 1.2 1.4 2.6 4.8 3 6.6.7 12 .1 16.2-1 3.6-1.1 5.8.2 9.3.6" style="fill:#537f94"/><path d="M73.8 112c0-1.6-.3-3.3-.3-3.3l-14.8 1.4c-1 .4-1.2 2-1.4 2.3q-1.1 1.5-2.7 2.7s1.2-1 2.5 0 3.7 5.3 9.6 4.1 7-5 7-7.2" style="fill:#466b7d"/><path d="M71.3 106a8 8 0 0 0-6.5-3.5q-.1-.1-2.6.4c-1.5.5-2.5 1.3-2.5 1.3l-1.2-1s-1.5.8-2.4 2.2a8 8 0 0 0-.3 8.7c1.3-1 3 .6 3.3 1l1.6 1.4c2 1.3 4.7 1.6 7 .7a7.7 7.7 0 0 0 3.6-11.2" style="fill:#90a4ae"/><path d="M44.2 68c2.9.3 5.8.1 8.7.6q2 .3 4 1c-2.7-3-5-3.5-6-6.3V63c-.4-1.6.8-3 2.5-5.4 1-1.5 3.7-4.5 1.2-11.8a16 16 0 0 0-8.3-7.9l-9.6 5.8c-5.6 3.3-6.9 10.2-4.3 16.2Q36 67.3 44.2 68" style="fill:#466b7d"/><path d="M96.8 45.3 88 39.8c1-2.3.8-4.9.2-7.3-1-4-3-7.9-6.1-10.7a15 15 0 0 0-11.5-4 19 19 0 0 0-6.2 2.1c-8 4.1-28.7 18.2-28.7 18.2s2.9-1.2 7-1l5.6-3.6c2.3-1.5 4.1 0 2 1.4l-12.5 7.6A11.8 11.8 0 0 0 47.5 64z" style="fill:#90a4ae"/><circle cx="43.7" cy="54.2" r="6.1" style="fill:#466b7d"/><radialGradient id="a" cx="40.4" cy="50.3" r="7.5" gradientUnits="userSpaceOnUse"><stop offset=".2" style="stop-color:#fff"/><stop offset="1" style="stop-color:#bebebe"/><stop offset="1" style="stop-color:#bdbdbd"/></radialGradient><circle cx="43.4" cy="52.9" r="5.7" style="fill:url(#a)"/><circle cx="44" cy="53.7" r="4.9" style="fill:#c2b5a8"/><path d="M35.7 59.5c-3.3-5.7-.2-12 5.4-15.5 4.5-2.8 33.7-20.5 41.6-21.6l-.6-.6a15 15 0 0 0-11.5-4 19 19 0 0 0-6.2 2.1c-8 4.1-28.7 18.2-28.7 18.2s2.7-1.3 7-1l5.6-3.6c2.3-1.5 4.1 0 2 1.4l-12.5 7.6A11.8 11.8 0 0 0 41 64.3q-3.3-1.5-5.4-4.8" style="fill:#d3cac3"/><path d="m68.3 56-.1.2 24.3-9.3q-2-1.9-4.6-3.3-1.2-.7-2.4-1.7-6.2-4.6-11-10.6c-1.5-1.7-3.4-3.8-4.3-6-.7-1.8-2-4-4-4.7q-2.6-.4-5 .8-.5.4-.2.7c1.5-.6 3.3.2 4.4 1.4q1.7 2 2.1 4.5a59 59 0 0 0 6.6 17.8c1 1.6 2 3.4 1.4 5.1-1 2.6-5.4 4.3-7.2 5" style="fill:#466b7d"/><path d="M84 4.5C67.4 7.3 60.8 21.9 60.8 21.9s6.2-2.6 7.6 3.6c2.7 16 12.3 24 24 22s19.6-13.3 17.6-25S99.3 2 84 4.5" style="fill:#90a4ae"/><path d="M106.6 26.3q-.9-5-4.3-8.4c-6.4-6.5-15.2-6.7-20.8-2.1-7.6 6-10 19.7 1.8 26.9a15.8 15.8 0 0 0 23.3-16.4" style="fill:#466b7d"/><circle cx="92" cy="26.8" r="15.7" style="fill:#c2b5a8"/><radialGradient id="b" cx="81.5" cy="14.9" r="20.5" gradientUnits="userSpaceOnUse"><stop offset="0" style="stop-color:#fff"/><stop offset=".9" style="stop-color:#cdd7db;stop-opacity:0"/></radialGradient><path d="M80 32.1a15.7 15.7 0 0 1 23.2-16.3 15.7 15.7 0 1 0-18.9 24.7Q81 37 80 32" style="fill:url(#b)"/><circle cx="65.7" cy="110.9" r="4.3" style="fill:#466b7d"/><radialGradient id="c" cx="63.3" cy="108.1" r="5.4" gradientUnits="userSpaceOnUse"><stop offset=".2" style="stop-color:#fff"/><stop offset="1" style="stop-color:#bebebe"/><stop offset="1" style="stop-color:#bdbdbd"/></radialGradient><circle cx="65.4" cy="110" r="4" style="fill:url(#c)"/><circle cx="65.9" cy="110.6" r="3.5" style="fill:#c2b5a8"/><path d="M57 110q.1-3.6 2.8-5.8l-1.3-1s-1.2.6-2.4 2.2a8 8 0 0 0-.3 8.7c.9-.7 2-.2 2.6.4a8 8 0 0 1-1.3-4.5" style="fill:#d3cac3"/><radialGradient id="d" cx="29" cy="44.1" r="18.3" gradientUnits="userSpaceOnUse"><stop offset="0" style="stop-color:#d3cac3"/><stop offset="1" style="stop-color:#d3cac3;stop-opacity:0"/></radialGradient><path d="M28.4 54.2c-.1-4.5 1.2-8.8 5-11.7s3.4-2.6 3-3.1c-.7-1.3-2.8-.3-3-.3A16 16 0 0 0 26.2 57q1 4.5 3.7 9l5 3.2c-5.4-7.4-6.4-12.4-6.5-14.9" style="fill:url(#d)"/><radialGradient id="e" cx="82.2" cy="12.5" r="14" gradientUnits="userSpaceOnUse"><stop offset="0" style="stop-color:#d3cac3"/><stop offset="1" style="stop-color:#d3cac3;stop-opacity:0"/></radialGradient><path d="M100 6.9S97.8 5.5 95.9 5q-5-1.6-11.9-.5C75 6 69 11.1 65.3 15.4c-2 2.4-.7 4.8.8 5.2 4 1.1 4.7-.5 6.3-2.5 2-2.5 5-7.4 12.4-10.4C92 4.8 100 7 100 7" style="fill:url(#e)"/></svg>