<svg xml:space="preserve" width="16" height="16" viewBox="0 0 128 128"><radialGradient id="a" cx="63.6" cy="-2088.9" r="57" gradientTransform="matrix(1 0 0 -1 0 -2026)" gradientUnits="userSpaceOnUse"><stop offset=".5" style="stop-color:#fde030"/><stop offset=".9" style="stop-color:#f7c02b"/><stop offset="1" style="stop-color:#f4a223"/></radialGradient><path d="M63.6 118.8c-27.9 0-58-17.5-58-55.9S35.7 7 63.6 7c15.5 0 29.8 5.1 40.4 14.4 11.5 10.2 17.6 24.6 17.6 41.5s-6.1 31.2-17.6 41.4a61 61 0 0 1-40.4 14.5" style="fill:url(#a)"/><path d="M102 71.6c-1.3-2.4-4-3.5-7-2.6a115 115 0 0 1-63.3 0c-3-1-5.8.2-7 2.6-1.5 2.5-.5 5.4.7 8 6.4 14 20.5 22.5 37.8 22.6h.2c17.3-.1 31.5-8.5 37.9-22.6 1.1-2.6 2.1-5.5.8-8m-38.6 3.1h-.3zm0 0h-.3zm-.1 26.2" style="fill:#35220b"/><path d="M78.2 97.2A35 35 0 0 0 99 78.5q1.9-4 .9-5.7-1.4-2.2-4.2-1.4c-9.2 2.9-20.9 4.5-32.2 4.6h-.3a113 113 0 0 1-33.6-4.8 3 3 0 0 0-2.8 1.6q-1 1.7.9 5.7c4 8.7 11.1 15.1 20.3 18.5a24 24 0 0 1 15.4-5.3c6.1 0 10.7 2 14.8 5.5" style="fill:none"/><path d="m79.4 98.1-1.2-1a22 22 0 0 0-14.8-5.3A24 24 0 0 0 48 97l-1.2 1-.8 1a47 47 0 0 0 17.3 3.1h.1q9 0 16.6-3z" style="fill:#ed7770"/><path d="M95 69c-9 2.8-20.5 4.4-31.7 4.4-11 0-22.6-1.6-31.5-4.4-3-1-5.9.2-7.2 2.6l-.4 1.2 1.1.5q18.3 9.2 38.8 9a85 85 0 0 0 38.6-8.8q-.2-1-.6-1.9c-1.4-2.4-4.2-3.5-7.2-2.6" style="fill:#fff"/><path d="M62.8 75a106 106 0 0 0 29-4l1.5-.4 1.1-.2q1.2 0 2.2.3c1.3.5 3 2.1 3.5 3.4 1.2 3.4-.7 9.4-.2 8.4l1.2-2.1c.8-2 1.9-4.2 1.6-6.9A7.6 7.6 0 0 0 94 67l-1.7.5-1.4.4-5.8 1.6c-7.7 1.8-14.1 2.7-22.2 3h-.2a99 99 0 0 1-27.5-4.6l-1.4-.4L32 67q-2-.2-3.8.5a8 8 0 0 0-4.7 6c-.6 4.4 3.4 9.1 3.4 9.2.5 1-2-5.2-.8-8.6a7 7 0 0 1 3.3-3.4q1-.4 2.2-.3l1.2.2 1.5.5q3 .8 6 1.3c8 1.6 14.1 2.8 22.3 2.7" style="fill:#eb8f00"/><path d="M125.8 33.3s-1-1.7-20.2-3.5C80 27.4 71 34.5 69.3 36H69q-2.8-.3-5.7-.3h-.1l-4.6.2c-1.9-1.7-11-8.6-36.3-6.2-19.1 1.8-20.1 3.5-20.1 3.5L2 40.6s2.9.8 4.7 3 2.7 15 5.7 21c4.6 9.2 27.7 6.8 27.7 6.8s9.4.8 14-7.2a59 59 0 0 0 5.9-19 8 8 0 0 1 7.9.3c.3 2.2 1.9 11.8 5.9 18.7 4.5 8 14 7.2 14 7.2s23 2.4 27.6-6.9c3-6 3.8-18.6 5.7-20.9 1.8-2.3 4.7-3 4.7-3zm-73.4 20c-1.9 8.4-4.2 14.1-19.8 13.3-10-.6-17-.6-18.6-15.3-1-9 0-12.5.8-13.6s3.5-4.3 19-3.7 17.8 4 18.7 5.6l.1.2.7 2.2c.4 2.2.3 5.6-1 11.3m61.6-2C112.4 66 105.4 66 95.4 66.6c-15.6.8-18-5-19.7-13.3-1.9-8.5-1.1-12.1-.2-13.7s3.1-5 18.7-5.6 18.2 2.6 19 3.7c.7 1 1.8 4.5.8 13.6M90 42c-4.2 0-8 3.5-8 9.4s3.8 9.4 8 9.4 8-3.6 8-9.4-3.8-9.5-8-9.5" style="fill:#35220b"/><path d="M89.6 45.9c-1-.8-2.5-.5-3.5 1-1 1.4-.7 2.9.3 3.6s2.6.5 3.6-1c1-1.4.7-3-.4-3.6" style="fill:#896024"/><path d="M90 42c-4.2 0-8 3.5-8 9.4s3.8 9.4 8 9.4 8-3.6 8-9.4-3.8-9.5-8-9.5" style="fill:#35220b"/><path d="M89.6 45.9c-1-.8-2.5-.5-3.5 1-1 1.4-.7 2.9.3 3.6s2.6.5 3.6-1c1-1.4.7-3-.4-3.6" style="fill:#896024"/><path d="M37.7 42c-4.2 0-8 3.5-8 9.4s3.8 9.4 8 9.4 8-3.6 8-9.4-3.8-9.5-8-9.5" style="fill:#35220b"/><path d="M37.3 45.9c-1-.8-2.6-.5-3.6 1-1 1.4-.7 2.9.4 3.6 1 .7 2.5.5 3.5-1 1-1.4.7-3-.3-3.6" style="fill:#896024"/></svg>