<svg xml:space="preserve" width="16" height="16" viewBox="0 0 128 128"><path d="M85.2 81.6c-1.2-2.3.4-4.6 3-7.4 4.4-4.6 9-15.1 4.7-25.8l-.8-2h-1.8a3374 3374 0 0 0-80 0l-2.6 2a25 25 0 0 0 4.7 25.8c2.7 2.8 4.3 5.1 3 7.4-1.2 2.2-4.8 2.5-4.8 2.5s.9 2.3 2.9 3.5c1.8 1.1 4 1.4 5.7 1.4 0 0 6.1 3.5 22.2 3.5h17.9c16 0 22.2-3.5 22.2-3.5 1.6 0 3.9-.3 5.7-1.4 2-1.2 2.9-3.5 2.9-3.5s-3.7-.3-4.9-2.5" style="fill:#312d2d"/><radialGradient id="a" cx="91.7" cy="50.4" r="6.9" gradientTransform="rotate(155 85.06 58.48)scale(1 .742)" gradientUnits="userSpaceOnUse"><stop offset=".7" style="stop-color:#454140"/><stop offset="1" style="stop-color:#454140;stop-opacity:0"/></radialGradient><path d="M81.4 85c-4.2-6.6 5.2-9 5.2-9q-2.6 3-1.4 5.6c1.2 2.2 4.8 2.5 4.8 2.5s-4.9 4.4-8.6.8" style="fill:url(#a)"/><radialGradient id="b" cx="110.3" cy="67.1" r="30.4" gradientTransform="rotate(-94.3 92.45 77.02)scale(1 .833)" gradientUnits="userSpaceOnUse"><stop offset=".7" style="stop-color:#454140;stop-opacity:0"/><stop offset="1" style="stop-color:#454140"/></radialGradient><path d="M93 48.4c4.2 10.4-.3 21-4.5 25.5-.5.6-3 3-3.5 5 0 0-9.6-13.4-12.4-21.2q-1-2.4-1.2-4.9 0-2 .9-3.8a111 111 0 0 1 20.1-1.7z" style="fill:url(#b)"/><radialGradient id="c" cx="32.6" cy="69.4" r="30.4" gradientTransform="rotate(-85.7 95.57 2.52)scale(1 -.833)" gradientUnits="userSpaceOnUse"><stop offset=".7" style="stop-color:#454140;stop-opacity:0"/><stop offset="1" style="stop-color:#454140"/></radialGradient><path d="M7.7 48.4c-4.2 10.4.3 21 4.4 25.5.6.6 3 3 3.6 5 0 0 9.6-13.4 12.4-21.2q1-2.4 1.2-4.9 0-2-.9-3.8c-.9-1.3-2-1-3.4-1-3 0-15.5-.7-16.5-.7z" style="fill:url(#c)"/><radialGradient id="d" cx="12.4" cy="49.2" r="6.9" gradientTransform="rotate(205 5.05 55.68)scale(-1 .742)" gradientUnits="userSpaceOnUse"><stop offset=".7" style="stop-color:#454140"/><stop offset="1" style="stop-color:#454140;stop-opacity:0"/></radialGradient><path d="M19.3 85c4.2-6.6-5.2-9-5.2-9q2.6 3 1.4 5.6c-1.2 2.2-4.8 2.5-4.8 2.5s4.9 4.4 8.6.8" style="fill:url(#d)"/><linearGradient id="e" x1="53" x2="53" y1="34.7" y2="-4.3" gradientTransform="matrix(1 0 0 -1 0 130)" gradientUnits="userSpaceOnUse"><stop offset=".2" style="stop-color:#606060"/><stop offset=".3" style="stop-color:#606060"/><stop offset=".4" style="stop-color:#595959"/><stop offset=".7" style="stop-color:#464646"/><stop offset="1" style="stop-color:#262626"/><stop offset="1" style="stop-color:#212121"/></linearGradient><path d="M50.1 95.4H50c-18.1 0-36.8 3.7-46 12.2v16.3h98v-3.4c0-16.8-26.3-25.1-51.9-25.1" style="fill:url(#e)"/><path d="M50.1 80c-16 0-29 4-29 9 0 3 5 5.7 12.4 7.3 4 .9 7.4 22.1 12.3 27.6h6c8.3-5.6 16.8-27.6 21.4-29.6Q78.8 92 79 89c0-5-13-9-28.9-9" style="fill:#404042"/><path d="M59.4 93.4H41.2v10c0 4.5 3.7 8.2 8.3 8.2h1.7c4.5 0 8.2-3.7 8.2-8.2z" style="fill:#edc391"/><path d="m58.6 123.9 2-18.9H39.4l2.7 18.9z" style="fill:#bdbdbd"/><path d="m117 123.9-2.2-11.5-9.9-2.5a5.6 5.6 0 0 0-7 4.7l-2.2 9.3z" style="fill:#616161"/><ellipse cx="106.5" cy="114.4" rx="8.7" ry="8" style="fill:#404042"/><path d="m24.6 97.5-.4-.2C23.8 97 12 96.1 5.4 104q-1.3 1.6-.2 3.3l3.1 3.7q1.2 1.5 2.7 1.6.5 0 1-.4c8.2-5.8 12.8-6 15.3-5.2l2.3.7z" style="fill:gray"/><circle cx="11.3" cy="105.5" r="2.7" style="fill:#757575;stroke:#9e9e9e;stroke-miterlimit:10"/><circle cx="12.2" cy="105.6" r=".6" style="fill:#424242"/><circle cx="10.4" cy="105.3" r=".6" style="fill:#424242"/><path d="M92.7 103.9C86 96 74.4 97 73.9 97.3l-.4.2-5 10 2.3-.6c2.5-.8 7.2-.6 15.3 5.2q.4.4 1 .4c1 0 2-.8 2.7-1.5l3.1-3.8q1-1.6-.2-3.3" style="fill:gray"/><circle cx="86.7" cy="105.5" r="2.7" style="fill:#757575;stroke:#9e9e9e;stroke-miterlimit:10"/><circle cx="85.8" cy="105.6" r=".6" style="fill:#424242"/><circle cx="87.7" cy="105.3" r=".6" style="fill:#424242"/><linearGradient id="f" x1="34" x2="34" y1="-1252.8" y2="-1294" gradientTransform="matrix(1 0 0 -1 0 -1158)" gradientUnits="userSpaceOnUse"><stop offset=".1" style="stop-color:#757575"/><stop offset=".3" style="stop-color:#707070"/><stop offset=".5" style="stop-color:#626262"/><stop offset=".7" style="stop-color:#4b4b4b"/><stop offset=".9" style="stop-color:#2b2b2b"/><stop offset="1" style="stop-color:#212121"/></linearGradient><path d="m46.6 123.9-3.2-27.4q-.4-1.3-1.5-1.4l-2.3.1c-7.8 0-14.8-3.2-18.3-5.2l11.4 33.9z" style="fill:url(#f)"/><linearGradient id="g" x1="66" x2="66" y1="-1252.8" y2="-1294" gradientTransform="matrix(1 0 0 -1 0 -1158)" gradientUnits="userSpaceOnUse"><stop offset=".1" style="stop-color:#757575"/><stop offset=".3" style="stop-color:#707070"/><stop offset=".5" style="stop-color:#626262"/><stop offset=".7" style="stop-color:#4b4b4b"/><stop offset=".9" style="stop-color:#2b2b2b"/><stop offset="1" style="stop-color:#212121"/></linearGradient><path d="M67.4 123.9 78.8 90c-3.5 2-10.6 5.2-18 5.2q-1.4 0-2.6-.2h-.1q-1 .1-1.4 1.4l-3.4 27.5z" style="fill:url(#g)"/><path d="M77.4 50.4H22.7c-5.9 0-10.7 5.1-10.7 11.4s4.8 11.4 10.7 11.4h54.7C83.1 73.2 88 68 88 61.8s-4.8-11.4-10.7-11.4" style="fill:#edc391"/><path d="M50 11c-17.4 0-33.5 18.6-33.5 45.4C16.5 83 33.1 96.2 50 96.2S83.6 83 83.6 56.4C83.6 29.6 67.4 11 50 11" style="fill:#f9ddbd"/><ellipse cx="34.5" cy="58.8" rx="4.9" ry="5.1" style="fill:#312d2d"/><ellipse cx="65.9" cy="60.1" rx="5.9" ry="6.1" style="fill:#312d2d"/><path d="M41.9 50.8c-1-1.2-3-3-7.2-3s-6.4 1.8-7.3 3q-.5 1 0 1.6c.3.3 1 .7 2 .4s2.4-1.2 5.3-1.2c2.8 0 4.4.9 5.3 1.2s1.6 0 2-.4q.4-.6-.1-1.6m33.6-.2C74.4 49 71.8 47 66.8 47s-7.5 2.1-8.7 3.6q-.6 1 0 1.9t2.3.4c1.7-.4 3-1.4 6.4-1.4s5.4 1 6.4 1.4 2 0 2.3-.4q.6-.8 0-2" style="fill:#454140"/><path d="M53.9 67.8h-7.7q-1.1.6-.7 1.6c.4 1 1.7 2.7 4.5 2.7s4.3-2 4.6-2.7q.4-1.1-.7-1.6" style="fill:#dba689"/><path d="M58.6 75.9a26 26 0 0 1-16.8 0c-1.9-1.1-3.7.6-3 2.2s6.5 5.5 11.4 5.5 10.5-3.8 11.3-5.5c.7-1.6-1.1-3.3-3-2.2" style="fill:#444"/><path d="M66.9 7.6c-13.3-4.2-21.9.5-26.5 3-1 .6-30.2 22.6-29.5 24.5a11 11 0 0 0-3.5 12.6c1.6 4.5 8.2 6.5 8.2 6.5-.5 8 1 13 1.8 15 .1.3.6.3.7 0 1-4 4.4-17.9 4-20.3 0 0 11.4-2.2 22.2-10.2a32 32 0 0 1 7.2-4c13.5-5.4 16.4 3.8 16.4 3.8s9.4-1.8 12.3 11.3c1 4.9 1.8 12.7 2.4 18.2q.2.7.7.1c1-2.2 2.8-6.5 3.3-10.9.1-1.5 3.8-5.6 5.6-12.3 2.4-8.8-20.5-35.7-25.3-37.3" style="fill:#312d2d"/><radialGradient id="h" cx="24.7" cy="84.5" r="16.9" gradientTransform="rotate(187.8 -2.45 80.22)scale(-1 1.405)" gradientUnits="userSpaceOnUse"><stop offset=".6" style="stop-color:#454140;stop-opacity:0"/><stop offset="1" style="stop-color:#454140"/></radialGradient><path d="M10.7 35.3A11 11 0 0 0 7.5 48c1.8 4.4 8 6.3 8 6.3s1.3.4 2 .4l1.5-22c-3 0-6 1-7.9 2.2z" style="fill:url(#h)"/><radialGradient id="i" cx="117.2" cy="-1548.3" r="61.7" gradientTransform="matrix(.918 0 0 -.782 -57.67 -1176.21)" gradientUnits="userSpaceOnUse"><stop offset="0" style="stop-color:#757575"/><stop offset=".3" style="stop-color:#686868"/><stop offset=".9" style="stop-color:#464646"/><stop offset="1" style="stop-color:#424242"/></radialGradient><path d="M83.5 26.8c-4.5-1.2-10.9-2.1-17-2.7-5.1-.6-10.7.5-16.5.5s-11.4-1-16.5-.5c-6.1.5-13.7 2.7-18.2 3.8-7.8 2-11.3 4-11.3 7S8.1 39 16 41c4.5 1.1 8 3.7 15.9 4.7 5.1.6 13.6-1.3 19.3-1.3s13.4 1.9 18.5 1.4c6.1-.6 9.7-3 14.2-4.2 7.9-2 12-4 12-7s-4.5-6-12.4-8" style="fill:url(#i)"/><radialGradient id="j" cx="140.3" cy="998.9" r="33.4" gradientTransform="matrix(0 .933 1.413 0 -1362.23 -123.91)" gradientUnits="userSpaceOnUse"><stop offset="0" style="stop-color:#757575"/><stop offset=".3" style="stop-color:#686868"/><stop offset=".9" style="stop-color:#464646"/><stop offset="1" style="stop-color:#424242"/></radialGradient><path d="M64.6 4.4c-2.8-.7-7.4-.4-10.2 0-7.1 1.3-6.1.6-12.8 0-2.7-.4-6.3-.6-8.9.3-10 3-11.2 11.9-17.5 25.4.1 12.4 70 12.2 69.9 0C79 17.2 75 7.2 64.6 4.4" style="fill:url(#j)"/><path d="M38.8 10.4q5 3.5 11 2.9 5.3-.9 10.1-3.4c.5-.3 1.1.3.9 1a15 15 0 0 1-11.4 6.4c-5.5 0-9.2-2.4-11.1-5.8-.4-.5-.2-1.7.5-1.2" style="opacity:.2;fill:#eee"/><path d="M82.1 23.4c-11.6 6.9-52.3 6.9-63.8 0l-3 6.7c.1 12.3 70 12.2 69.9 0z" style="fill:#404042"/><g style="opacity:.6"><radialGradient id="k" cx="191.4" cy="-1029.2" r="41.9" gradientTransform="rotate(6.4 9004.37 -634.41)scale(1 -1)" gradientUnits="userSpaceOnUse"><stop offset="0" style="stop-color:#fafafa"/><stop offset="1" style="stop-color:#eee"/></radialGradient><path d="M90.3 43.4A21.6 21.6 0 0 1 87 73.5 21.3 21.3 0 1 1 60.4 40a21 21 0 0 1 29.9 3.4" style="fill:url(#k)"/></g><path d="m101.2 85.8-5.7 4.5-12.7-15.8 5.7-4.5z" style="fill:#c7c7c7"/><radialGradient id="l" cx="42.5" cy="-1219.8" r="49" gradientTransform="rotate(178.7 7.46 -593.07)scale(-1 1)" gradientUnits="userSpaceOnUse"><stop offset="0" style="stop-color:#e0e0e0"/><stop offset=".2" style="stop-color:#dbdbdb"/><stop offset=".5" style="stop-color:#cdcdcd"/><stop offset=".8" style="stop-color:#b5b5b5"/><stop offset="1" style="stop-color:#9e9e9e"/></radialGradient><path d="M92.5 41.3C84.1 30.7 68.8 29 58.3 37.5s-12.2 23.9-3.8 34.4 23.7 12.3 34.2 3.8 12.2-23.9 3.8-34.4m-7.4 29.9c-8 6.4-19.7 5.2-26.2-3s-5-19.8 3-26.4 19.7-5.2 26.2 3 5 20-3 26.4" style="fill:url(#l)"/><radialGradient id="m" cx="93.2" cy="48.4" r="13.6" gradientTransform="matrix(1 0 0 -1 0 130)" gradientUnits="userSpaceOnUse"><stop offset="0" style="stop-color:#ffa726"/><stop offset="0" style="stop-color:#ffa623"/><stop offset=".5" style="stop-color:#ff9800"/><stop offset="1" style="stop-color:#fb8c00"/></radialGradient><path d="m113.1 100.6-.4-.5c-.4-3.4-2.4-7.9-5.8-12.2-3-3.8-6.4-6.6-9.4-7.9q-1.2-.6-2.1-1.7l-.8-1-6.2 5 .8 1q.9 1 1.2 2.4C91 89 93 93 96 96.7c3.4 4.3 7.3 7.3 10.5 8.4l.4.5q.6.8 1.7.8.7 0 1.3-.5l.9-.7.6-.4.5-.5.9-.7a2 2 0 0 0 .3-3" style="fill:url(#m)"/><path d="M96.6 80.4 90.8 85q-1.2.7-2.1-.2l-.4-.6q-.7-1.2.2-2.1l5.8-4.7q1.2-.7 2.1.2l.4.6q.9 1.2-.2 2.2" style="fill:#ababab"/><radialGradient id="n" cx="-14.4" cy="165.9" r="21.7" gradientTransform="rotate(50.6 121.78 236.91)scale(-1 1.057)" gradientUnits="userSpaceOnUse"><stop offset=".3" style="stop-color:#f9ddbd"/><stop offset="1" style="stop-color:#ffd29c"/></radialGradient><path d="M101.5 97.6q-1.2 1.3-2 2.9c-.9 1.5-8.2 4.3-4.2 10.3 1.2 1.6 4.9 6.7 8 8 6.8 3 16.3-6.3 17.2-6.7 5.6-3.1-9-17.5-13.4-17.3l-2 .3c-1.4.2-2.7 1.6-3.6 2.5" style="fill:url(#n)"/><radialGradient id="o" cx="75.2" cy="-22.3" r="15.9" gradientTransform="rotate(-58 162.26 20.05)scale(1 -1)" gradientUnits="userSpaceOnUse"><stop offset="0" style="stop-color:#ffd29c"/><stop offset="1" style="stop-color:#f9ddbd"/></radialGradient><path d="m119.9 107-5.7 4.3c-.8.5-1 1.5-.6 2.2.4.9 1.5 1.1 2.4.7l6.2-3.4c1-.6 1.4-1.8.8-2.7l-.3-.5a2 2 0 0 0-2.8-.5" style="fill:url(#o)"/><radialGradient id="p" cx="94.6" cy="-25" r="15.9" gradientTransform="matrix(.908 -.483 -.467 -.885 12.28 114.83)" gradientUnits="userSpaceOnUse"><stop offset="0" style="stop-color:#ffd29c"/><stop offset="1" style="stop-color:#f9ddbd"/></radialGradient><path d="M98.4 114.6s1.7 0 4-.7c6.9-2 2.6-9 2-10-3.4-5.7 2-8 5.7-11.2.8-.7 3.2-3.2 2.5-5.6-1.5-3.6-4.5-1.2-11.4 3.4a33 33 0 0 0-5.1 4.2c-7.5 7.6-1 16.3 2.3 20" style="fill:url(#p)"/><radialGradient id="q" cx="89.4" cy="-31.5" r="18.1" gradientTransform="rotate(138.8 -7.17 70.8)scale(-1 1)" gradientUnits="userSpaceOnUse"><stop offset="0" style="stop-color:#ffd29c"/><stop offset="1" style="stop-color:#f9ddbd"/></radialGradient><path d="m114.6 96.6-7.5 6.9c-1 .9-.4 1.7.3 2.8.8 1.1 1.6 2 2.9 1.2l8.4-5.9c1.4-1 1.8-2.9.8-4.2l-.6-.6c-1-1.3-3-1.4-4.3-.2" style="fill:url(#q)"/><radialGradient id="r" cx="97" cy="-34.3" r="17.3" gradientTransform="rotate(-33 210.7 22.44)scale(1 -1)" gradientUnits="userSpaceOnUse"><stop offset="0" style="stop-color:#ffd29c"/><stop offset="1" style="stop-color:#f9ddbd"/></radialGradient><path d="m110.9 91.9-6.2 6.3c-1 .9-1 2.3-.3 3.3.8 1 2.4 1.2 3.5.4l7.1-5.3c1.3-1 1.6-3 .5-4.1l-.5-.6c-1-1.2-3-1.2-4.1 0" style="fill:url(#r)"/><radialGradient id="s" cx="81" cy="-26.3" r="17.3" gradientTransform="rotate(-50.4 172.2 18.62)scale(1 -1)" gradientUnits="userSpaceOnUse"><stop offset="0" style="stop-color:#ffd29c"/><stop offset="1" style="stop-color:#f9ddbd"/></radialGradient><path d="m117.7 102-6.2 5.3q-1.4 1.3-.5 3c.6 1 2 1.3 3.2.6l6.8-4.3c1.3-.8 1.7-2.5.9-3.7l-.5-.6a2.6 2.6 0 0 0-3.7-.3" style="fill:url(#s)"/><path d="M118.9 101.5c-.6-1-7.2 5.5-8.6 5.5-1.7-.1-2.9-1.9-2-3.4.9-1.7 7.5-7.2 7.2-7.6-.5-.7-7.8 8.3-10.4 5.1-1.5-2 .6-3.6 1.8-4.9.7-.8 4.2-3.9 4-4.2-.2-.2-1 .6-1.1.6-.8.5-4.8 4.1-5.8 5.3-1.5 1.9-1.2 3.3-.6 4.2s1.5 2.5 1.9 3.6c.8 2.5-.2 6.2 0 6.5 0 .3 1-1.7 1.2-3.5.1-1 1.2-1.4 2-.7l1.1 1c.4.5 2.4 3.1 3 4.2q.3.6.8 1l1 .5c1.6.4 3.1-.6 4.4-1.5.7-.5 3.8-2.4 4.2-3.3-1.6 1.2-7 5.7-8.5 3.3-.8-1.3.6-1.8 1.4-2.4 1-.6 2.8-2 3.7-2.7.2-.3 1.6-1.3 1.5-1.5-.3-.3-3.2 1.9-3.5 2.1-1.2.9-3.5 3-5 2q-1-.6-1-1.8c0-1.6 7.6-6.9 7.3-7.4" style="fill:#edbd82"/></svg>