<svg xml:space="preserve" width="16" height="16" viewBox="0 0 128 128"><path d="M94.8 52.4s4.4-4.3 9.5-4.2c5.4.2 9.4 3.2 10.8 7.7 1.3 4.5 1.4 6.2 2.4 7.7 1 1.4 2.2 2.5 2.2 3.3s-.9 1.8-2.2 2.3-3.4 0-3.4 0-.6 2.7-2.7 3.4c-2 .6-4 .4-4 .4L105 62.8s1.8-2.8.3-4.7c-2-2.6-5.4-.2-5.4-.2zM68.4 93.8s-.7 5-1.7 6.7q-1.3 2.2-1.3 2V113c0 1.8.4 4.4-.6 5.2-1.3 1-6.3 1-7 0s1.9-3.3 2-4l-.4-9c0-1.4-2.3-10.4-2.3-10.4zm30.4 6.7a65 65 0 0 1 1 15.2c-.2.5-3.3 3-2.2 4s7.1.4 7.6-.5.4-18 .4-19.5c0-1-1.8-5.5-2.5-6.5s-4.7 6.7-4.3 7.3" style="fill:#957155"/><path d="M20.6 16.9s-1.2-2-2.5-3.7c-1.5-2-3.1-3.8-3-4.5 0-.7 1.2-.5 1.2-.5l4.5 3.5 3.7 5zm4-11.5c-.2 1 2 3.6 3.6 7.7.7 1.7 1.3 6.1 1.3 6.1l2.7 1.3s-1-6-2.1-8.8-4.8-9.2-5.5-6.3" style="fill:#db7c60"/><path d="M24.2 15s-2.8-5-5-6.2-4-.7-3.8-.3c.3.7 3 1.9 4.4 4l3.6 5.5zm.7-10c-.1-1.5 4 .2 6.3 3.4s2.9 5.2 3 8.8-2.6 3.4-2.6 3.2-.2-4.4-2-9.2C28.3 8 24.9 6.1 24.9 5m-5.1 14.6s-2.6 1.6-5 2.5c-2.1.8-6.5 2.3-6.2 4.2.2.8-.9 1.8-.4 3.2.5 1.3 1.3 1.4 1.6 1.6.5.3 1.5 2.2 3.8 2.4a6 6 0 0 0 4-.7l6.1 5.2 8.6-8.1.6-9-6.2-2.3z" style="fill:#ffd3b2"/><path d="m11.7 28.6 2.9-1.7c.8-.4.8-2.1-.9-1.5q-2.6 1.2-2.7 1.4c-.1.2-1.3-1-1.8-1.5s-1.3.5-.5 1.7l1.3 1.5v1c0 .3-2-1.2-2-.2q0 1.5 1.4 1.6l1.6.3s1.7.7 3.3.6 3.8-1.8 3.1-2.5-2.2.7-3.7.7q-2-.1-1.9-.3z" style="fill:#7b5b52"/><path d="M23.2 22.9s1.1-1.2 2.4-.5 1 2.8-.3 3C24 25.9 23 25 23 25s-2.5.4-2.4-1c0-1.1 2.5-1 2.5-1" style="fill:#2b2a32"/><path d="M28.5 14s-4.6-.4-7.6 1.6-4 3.3-3.4 4.2 1.9.9 3.6.7q2.7-.2 5.5-.2 2.6.4 3.6 1c.6.3 1.6 1.2 1.6 1.2l-3.4 5a39 39 0 0 0-4.6 9L21 33.8l-2.6-1.5-1 .6s-.1 4 1.4 8.4 4 8.4 4 8.4-.4 7 3.4 13.7c2 3.4 6.3 5.8 6.3 5.8s-.2 4.8 2.5 7.9c2.8 3 5.2 3 5.2 3s.2 2.2 1.8 5.6 3.7 4.5 3.7 4.5-.5 3 .4 8c.9 4.4 3.4 6.7 3.4 6.7s.3 12.1 0 12.8-3.1 3.8-2.5 4.7c.5 1 3 1.1 4.3 1.1s3.4-.4 4-1c.5-.4.6-8.5.6-10l.4-7s3.4-1.5 4.6-4.2c1.3-2.6 1.1-4.7 1.1-4.7s4.2.5 9.3-1c5.1-1.3 10.3-6 10.3-6l4.2 7.5c1.3 2.3 3.9 5.8 3.9 5.8s0 13.7-.2 14.2-3.7 4.5-3 5.3 2.5.8 4.4.8 3.9-.1 4.2-1.3 0-3.6.1-5.5l.5-12s5.4-3 8-9.4c2-5.3 2-10.8 2-10.8s1.5-5.1 1.8-7 .8-5.6-1.4-11.9S99 52 91.5 48.8c-7.4-3-14.8-3.2-21.3-3.2s-17.7 1.5-19.5 1-5.4-5.8-6.7-11.2c-1.4-5.5-3-11.4-5.3-14.2s-4.5-3.6-4.5-3.6-1 3.4-3.2 2c-1.7-1.2-1.8-2.6-2-3.5 0-1-.5-2.2-.5-2.2" style="fill:#ae957f"/><path d="M93.3 101.3c1 .3 3.7-1.4 5-2.6 1.5-1.5 2.4-4 2.2-4.8s-2.2 1.7-2.8.8 2.3-3 3.3-4.7c1.4-2.2 1.8-4.1 1.2-4.5s-2.9 2.7-3.6 1.6.7-2.4 2.3-3.8c1.4-1.3 3-2.4 3.7-6s.5-9-.8-12A32 32 0 0 0 91 51.5c-7.5-4.4-19-3.9-23.6-3.8s-16 2.2-17.8 1.3-5.3-3-7.4-10.1-2-10.8-4.3-14.5c-1.2-1.9-3-3-3-3l-4.1 7a35 35 0 0 0-4.4 29.3c1.1 5.1 5.8 8.2 5.8 8.2l1-4.4c.4-1.5 1.2-3.4 2.2-2.7s-1 9-.3 13c1 5 5 5.1 5 5.1s.5-2.5 1.4-3.7q1.4-1.6 1.8-.8c.3.5-.9 4.3-.2 8.2.9 5.5 4.6 8.4 4.9 9s-1.1 13.5 6 13.6c6.2.1 4.9-6.6 4.9-6.6s2.5-1 3-4.5-.5-7.7-1-9c-1-2.7.6-3 1.4-1.2a22 22 0 0 1 1.7 5.7c.4 2.1-.1 4.8.5 5 .9.5 5 .5 8.6-1.3s6.8-5.8 6.8-5.8-2.3-6-1.9-11.7 2.3-9.3 3.1-8.6-.4 5.4.5 11 2.2 10.7 5.8 16.6 4.8 8.1 5.9 8.4" style="fill:#f8f9fc"/></svg>