<svg xml:space="preserve" width="16" height="16" viewBox="0 0 128 128"><path d="M116.5 4h-104a8 8 0 0 0-8 8v104a8 8 0 0 0 8 8h104a8 8 0 0 0 8-8V12a8 8 0 0 0-8-8" style="fill:#427687"/><path d="M122.2 6.3a8 8 0 0 0-5.7-2.3h-104a8 8 0 0 0-8 8v104q0 3.1 2.3 5.7l16.8-16.8h76a6 6 0 0 0 5.9-6V23z" style="fill:#8cafbf"/><path d="M56.5 60q.2-1.6 1.7-1.7h5q4.7.2 8.3-2.7 3-2.7 3-7.6c0-5-.8-5.7-2.5-7.5s-4.2-2.7-7.7-2.7q-4.2-.1-7.4 2.6a8 8 0 0 0-2.8 5.2q-.5 1.5-1.8 1.6h-7.6a2 2 0 0 1-1.8-2 17 17 0 0 1 10.3-14q5.2-2.5 11-2.4 10 0 15.8 5c5.8 5 5.7 8.2 5.7 14.2q0 4.6-3 8.5a16 16 0 0 1-4.3 4.3 2 2 0 0 0 0 3q3.2 1.8 5.4 4.7 3 4.3 2.9 9.7 0 9-6.2 14.4C74.3 98 70.9 98 64.2 98q-9.7 0-16-5.2a17 17 0 0 1-6-11.8c-.1-1 .6-2 1.6-2h7.8q1.4.1 1.8 1.6a9 9 0 0 0 2.9 5.6q3.4 2.9 8 2.8 5.2 0 8.2-2.8c3-2.8 3-4.5 3-8s-1-6.3-3.1-8.2-5.2-3-9.3-3h-4.8q-1.6-.1-1.8-1.7z" style="fill:#fafafa"/><path d="M40.2 12.9c0-2.3-1.6-3-10.8-2.7-7.7.3-11.5 1.2-13.8 4s-3 8.5-3 15.3c0 4.8 0 9.3 2.5 9.3 3.4 0 3.4-8 6.2-12.3 5.4-8.7 18.9-10.6 18.9-13.6" style="opacity:.5;fill:#b4e1ed"/></svg>