<svg xml:space="preserve" width="16" height="16" viewBox="0 0 128 128"><path d="M97.9 105c.4-.5 11.3 2.2 11.3 2.2s5.8-1 7.8-3.5 1.5-7 1-8.8c-.7-1.7-2.4-3-2.4-3s.8-13.8.2-26.4-1.4-18.3-1.4-18.3 3.8-2.9 3.4-8.5-5.1-7-7.7-7.1c-3.5 0-6.1 2.4-6.1 2.4s.4-7.5-6.3-9.5c-4.2-1.3-6.6 2.5-6.6 2.5s.9-7.6-5.3-9.7c-5-1.6-7.3 2.8-7.3 2.8l-18.7-5.8s-3.8-3.4-7.2-.6c-2.8 2.4-2.8 5.7-2.8 5.7s-9.3 8.8-18.3 20-19 25.7-20.1 29.3c-.7 2-.5 4.9-.5 4.9s7.6 10.7 7.7 14.7c.2 3.9 35.1 11.7 35.3 13.1s44 3.6 44 3.6" style="fill:#ffccc1"/><path d="M14.4 112.7s-.7 3.4-.6 6c.1 2.8 0 4 1.7 4.9s34.3-3.4 53.7-6.6c19.4-3.3 41.3-10.1 41.3-10.1s1-22 .1-33.3c-1-12.5-2.5-14.7-6.8-16.7s-12.2.8-16.3 2.1c-14 4.5-38.4 10.9-65.5 12.3-8.9.5-11.1.4-11.1.4l.1 4.4 1 12.8z" style="fill:#df7c1a"/><path d="M58.8 70.3c15.5-3.1 35.6-9.6 38.9-10s7.1-.3 8.5 6a175 175 0 0 1 .9 36.3s-12.6 6-42.9 10.7-50.4 5.5-50.4 5.5L11 76s22.7-.7 47.8-5.8" style="fill:#fea32e"/><path d="M39 88.6c14.3-2 31-5.2 46.8-9.8 8.8-2.6 21.1-7.5 21.1-7.5l.4 5 .3 7.8S91 92 61.3 97.3s-48.5 6.3-48.5 6.3l-.8-12s10.9-.7 27-3" style="fill:#ffccc1"/><path d="M60.8 95.9c14.7-2.7 14.5-14.3 14.5-14.3S65 84 60 85l-14.5 2.6s3.8 10.3 15.2 8.3M107.6 84c.1-.6-2-9-13.7-6.4-12.3 2.6-14 15.7-13.4 15.5.7-.2 7.8-2 14.6-4.2 7.5-2.5 12.5-4.8 12.5-4.8m-93.9 19.4s2.4-11 15-11.8c14.5-1 16 8.3 16 8.3s-11.7 1.8-16.1 2.3c-7.2.8-14.9 1.2-14.9 1.2" style="fill:#fe4f20"/><path d="M18.6 64.8c-.6 1.7 2.8 1.2 8 .9 9-.4 24-2.3 40.6-6.7 26.3-7 39.1-11.7 39.1-12.6S87 32.6 76.8 29.4 53.5 21 53.5 21.5 41 34.2 34.8 41.8a198 198 0 0 0-16.2 23" style="fill:#fff"/><path d="M69.3 46.6C83.8 45.8 87.2 39 87 29.1c-.3-9.4-8.6-25.9-18.2-25.6-9 .3-17.2 14.4-18.5 24.7s3.4 19.3 19 18.4" style="fill:#ff5117"/><path d="M67.7 27.3c-.6.1-2.2 3.4-2.1 5.3q0 3.1 3 3 2.4-.4 2-3.5c-.4-3-2.2-4.9-2.9-4.8M78.4 31c-1-.3-3.3 3.3-3.4 5.4q.1 2.5 2.6 2.7c1.5 0 2.4-1.3 2.5-2.8s-.8-5.2-1.7-5.4m-21.3-.5c-.9.2-1.8 4.2-1.4 6 .3 1 1.2 2.2 2.9 1.7 1.7-.4 2-2.8 1.4-4-.5-1.2-1.8-3.9-2.9-3.7m6.4-15.7c-.8-.2-3.2 2.2-3.8 4.5q-.6 3 2 3.6c1.5.3 2.9-.6 3.1-2.4s-.3-5.5-1.3-5.7m9.2 2c-.8.3-1.3 4.4-.6 6.2.8 1.9 2.5 2 3.6 1.5 1.5-.7 1.6-2 1.2-3.4-.5-1.6-3.6-4.6-4.2-4.3" style="fill:#feffff"/></svg>