<svg xml:space="preserve" width="16" height="16" viewBox="0 0 128 128"><linearGradient id="a" x1="435.4" x2="435.4" y1="66.4" y2="21.6" gradientTransform="matrix(-1 0 0 -1 525.76 130)" gradientUnits="userSpaceOnUse"><stop offset="0" style="stop-color:#ffb300"/><stop offset=".5" style="stop-color:#ffca28"/></linearGradient><path d="m77.3 65 9.6-1.4s1.6 20 2.7 22.3 13.8 16.8 13.8 16.8l-2.6 5.7-17.2-16.2q-2.7-2.6-3.4-6.6z" style="fill:url(#a)"/><linearGradient id="b" x1="37.2" x2="37.2" y1="66.4" y2="21.6" gradientTransform="matrix(1 0 0 -1 0 130)" gradientUnits="userSpaceOnUse"><stop offset="0" style="stop-color:#ffb300"/><stop offset=".5" style="stop-color:#ffca28"/></linearGradient><path d="m50.2 65-9.6-1.4s-1.5 20-2.7 22.3c-1.1 2.3-13.8 16.8-13.8 16.8l2.7 5.7 17.1-16.2q2.8-2.6 3.4-6.6z" style="fill:url(#b)"/><linearGradient id="c" x1="64" x2="64" y1="81.9" y2="33.5" gradientTransform="matrix(1 0 0 -1 0 130)" gradientUnits="userSpaceOnUse"><stop offset="0" style="stop-color:#f78c1f"/><stop offset="1" style="stop-color:#ed6d23"/></linearGradient><path d="m88.6 69.5-.8-9.4c-.2-1.3-2.5-11.8-23.6-11.8S40.4 58.6 40.2 60l-.8 9.4 9.2.8v27.9h31.2V70.3z" style="fill:url(#c)"/><linearGradient id="d" x1="51.7" x2="51.7" y1="8.6" y2="32.9" gradientTransform="matrix(1 0 0 -1 0 130)" gradientUnits="userSpaceOnUse"><stop offset="0" style="stop-color:#ffb300"/><stop offset=".4" style="stop-color:#ffca28"/></linearGradient><path d="M87.3 111.7c-6.6 1.1-12.4 2.9-18.9 4.8l-9.3 2.7c-6.6 1.7-14.3 3.5-24.2 5-6 .8-12.1 0-15.2-2-2.4-1.4-4.4-4.3-3.6-6.7a14 14 0 0 1 7.3-7.4q2.3-1.2 5-2.1c4.3-1.6 8.8-3 12.3-3.9l5.5-1.3a18 18 0 0 1 10.9.4c5.2 2.2 32 10.2 30.2 10.5" style="fill:url(#d)"/><linearGradient id="e" x1="26.5" x2="31.5" y1="22.4" y2="16.1" gradientTransform="matrix(1 -.01 -.01 -1 .16 130.2)" gradientUnits="userSpaceOnUse"><stop offset="0" style="stop-color:#ffb300"/><stop offset=".5" style="stop-color:#ffca28;stop-opacity:0"/></linearGradient><path d="m34.2 104.2-4.9 4.7-4.2 2.9h-1.4a4 4 0 0 1-4.8-.6q1.8-1.6 4.2-3c3.3-1.5 7.2-3 10.8-4.1z" style="fill:url(#e)"/><linearGradient id="f" x1="35.8" x2="112" y1="18.2" y2="18.2" gradientTransform="matrix(1 0 0 -1 0 130)" gradientUnits="userSpaceOnUse"><stop offset=".8" style="stop-color:#ffca28"/><stop offset="1" style="stop-color:#ffb300"/></linearGradient><path d="M108.3 122.2c-3.2 2-9.3 2.7-15.2 2a127 127 0 0 1-35.1-11c-5.7-2.7-10.6-6-13.4-7.7a9 9 0 0 0-6.1-1.5l-2 .2c-1.4 0-.2-2.3-.2-2.3.7-1.6 3-3.4 5.2-2.6s5 2.4 5 2.4c5 1.6 5.3-1.6 8.2-.5 1.5.5 1.9 2.3 2 3.3 0 1 1.6 2 2.7 2.2l7 .8 1 .1 2.4.3 7.6-5.4 1-.7 2.8-2 2 .7 1.4.5a451 451 0 0 1 20.1 7.8q5.7 2.6 7.1 6.7c.8 2.4-1.2 5.3-3.5 6.7" style="fill:url(#f)"/><path d="m79.9 98.6-.2-3.4s-4 1.9-15.3 1.9-15.9-1.9-15.9-1.9v3.4l-7.3 4.4L64 113.5l24.2-10.6z" style="fill:#7c7c7c"/><linearGradient id="g" x1="48.5" x2="45.5" y1="19" y2="13.3" gradientTransform="matrix(1 0 0 -1 0 130)" gradientUnits="userSpaceOnUse"><stop offset="0" style="stop-color:#ffb300"/><stop offset=".5" style="stop-color:#ffca28;stop-opacity:0"/></linearGradient><path d="m68.4 116.5-9.3 2.7a132 132 0 0 1-16.7-9l-.2-.1-3.3-2c-1.8-1-2.5-1.3-3.5-1.3h-.8l-.7.2-1.8.1h-.6q-1.8 0-3.2-1.1c4.4-1.6 9-3 12.4-3.8l1.2.6 3.4 2a129 129 0 0 0 22.9 11.5z" style="fill:url(#g)"/><path d="M32.4 113q.2-1.6 1.4-2.6a8 8 0 0 1 4-1.8l1.4-.1 2.8-.4a75 75 0 0 1 11.2-.3q.5 0 .5.6 0 .4-.5.4l-5.6.1-5.5.4q-1.4 0-2.7.3l-1.4.1a7 7 0 0 0-3.7 1.4q-1.1.7-1.6 2h-.2z" style="fill:#eda600"/><linearGradient id="h" x1="110.4" x2="40" y1="11" y2="26" gradientTransform="matrix(1 0 0 -1 0 130)" gradientUnits="userSpaceOnUse"><stop offset="0" style="stop-color:#ffb300"/><stop offset=".3" style="stop-color:#ffca28"/></linearGradient><path d="M108.3 122.2c-3.2 2-9.3 2.7-15.2 2a121 121 0 0 1-35.1-11c-5.7-2.7-10.6-6-13.4-7.7a9 9 0 0 0-6.1-1.5l-2 .2c-1.4 0-.2-2.3-.2-2.3.7-1.6 3-3.4 5.2-2.6s5 2.4 5 2.4c5 1.6 5.3-1.6 8.2-.5 1.5.5 1.9 2.3 2 3.3 0 1 1.6 2 2.7 2.2l6 1h1.1l2.2.3h.2a26 26 0 0 0 4.9 0q4.6-.4 8.7-1l2.3-.4a33 33 0 0 1 26.5 7.7l.5 1.2c.8 2.4-1.2 5.3-3.5 6.7" style="fill:url(#h)"/><path d="M95.2 108.5c-1.7-.7-6.9-1.4-9.8-1.7 0 0 2.3-1.5 6.1-1 2.4.2.1-3.9.1-3.9l-7.8 4.4-.6.2v.1l-.7.3-1.5.8h2c6.6.4 13 1.3 16 3.8h.3q-.4-1.6-4-3" style="fill:#eda600"/><linearGradient id="i" x1="79.8" x2="78" y1="22" y2="34.1" gradientTransform="matrix(1 0 0 -1 0 130)" gradientUnits="userSpaceOnUse"><stop offset=".1" style="stop-color:#ffb300"/><stop offset=".7" style="stop-color:#ffca28"/></linearGradient><path d="m91.8 104.9-2-.2a9 9 0 0 0-6 1.6l-.6.3-.7.3-1.5.8s-3.7 0-5.2.2h-.9c-1.3.2-2.1.2-3.8.2l-2-.1h-.3l-2.2-.2 2.1-.3h.4q1.2-.3 2.2-1.2l.2-.3q.3-.3.3-.8v-.2c.1-1 .5-2.6 2-3.1 2.9-1 3.1 2 8.2.5 0 0 2.7-1.6 5-2.4s4.4 1 5 2.6l.4.7c.2.6.4 1.5-.5 1.6" style="fill:url(#i)"/><linearGradient id="j" x1="113.3" x2="103.1" y1="22.7" y2="29.8" gradientTransform="matrix(1 0 0 -1 0 130)" gradientUnits="userSpaceOnUse"><stop offset="0" style="stop-color:#ffb300"/><stop offset=".5" style="stop-color:#ffca28"/></linearGradient><path d="M116.4 100.2q0-.3-.2-.5t-.5 0s-1.3.5-2 1.7v2.7l-.6.6-.3-3v-4.5l-.4-.1-.9.2h-.8l-.2.1-.1.1-.2.1-.2.1-.1.1-.1.1-.1.2-.2.1v.1l-.2.2c-.7 1-1.1 2-2 2.4l-.6.1c-1.6.4-3.8-.3-5 1.2l-.2.1c-.3.5-1.7-.3-1.7-.3l-2.5 1.8-.3-.3-.9-.8-1.1.2 4.9 4.7 4.2 2.9h1.4a4 4 0 0 0 3 .4 4 4 0 0 0 2-1.3l.2-.2.2.1h.2q1.6 0 2.8-1.2l2.4-3 .1-.4z" style="fill:url(#j)"/><path d="M112.9 97.3v.8q-1-.1-1.6.4-.7.3-.7 1.3v4l-.1 1.9q0 .5-.4 1l-.6.7-2.5 3 2.2-3.1.6-.8q.3-.4.3-.8v-2l-.2-4 .1-1c.2-.4.7-1.5 2.6-1.7q.3 0 .3.3m3.5 2.5v.7q-.6 0-1.1.2t-.8.9v.6l-.1.7-.3 1.5-.7.8-2.3 3.5 2-3.8.4-.7.2-1.4v-1.5q.3-.8 1.1-1.3l1.3-.5q.3 0 .3.3" style="fill:#eda600"/><linearGradient id="k" x1="106.9" x2="105.3" y1="24.5" y2="27.1" gradientTransform="matrix(1 0 0 -1 0 130)" gradientUnits="userSpaceOnUse"><stop offset="0" style="stop-color:#ffb300"/><stop offset="1" style="stop-color:#ffca28;stop-opacity:0"/></linearGradient><path d="M101.2 105s3.7-3.7 8.7-3.3c0 0-2-.1-1.7 3.5 0 0-1.5-1.5-3.6 2.4 0 0-1.1-3.1-3.4-2.7" style="fill:url(#k)"/><path d="M110.1 102.4h-1q-.3.3-.4.9l-.1 1.3v.7l-.2.7q0 .5-.4.6l-.4.5-.8 1-1.7 2.1 1.5-2.2.7-1 .4-.7.2-.5v-2.6q0-.8.7-1.5.7-.4 1.7-.4zm-2.1 3.3h-.9q-.4 0-.8.4l-1.5 1.9-.3.4-.2-.5a4 4 0 0 0-2.3-2.7q-1.7-.7-3.6.2 1.8-1 3.7-.5 1 .3 1.7 1.1.7.7 1 1.7l-.5-.1 1.4-2q.4-.6 1.2-.9l1.5.1z" style="fill:#eda600"/><linearGradient id="l" x1="14" x2="28.7" y1="24.3" y2="30.1" gradientTransform="matrix(1 0 0 -1 0 130)" gradientUnits="userSpaceOnUse"><stop offset="0" style="stop-color:#ffb300"/><stop offset=".5" style="stop-color:#ffca28"/></linearGradient><path d="M11.6 99.8q0-.3.2-.4h.5s1.3.4 2 1.7v2.6l.6.7.3-3v-4.5l.5-.2.8.2h.6l.2.1.4.1.1.1.2.1.1.2h.1l.2.2.1.1v.2l.2.1v.1c.7.9 1.2 2 2 2.3l.6.2c1.7.3 3.8-.3 5 1.1l.2.2c.3.4 1.7-.4 1.7-.4l2.5 1.8.3-.3.9-.8 1.1.3-4.9 4.7L24 110l-.4.1h-1a4 4 0 0 1-3 .3 4 4 0 0 1-2-1.3l-.2-.1H17q-1.6.2-2.8-1.2l-2.4-3-.1-.4z" style="fill:url(#l)"/><path d="M11.6 99.4v.7q.6 0 1.1.3t.8.8v.6l.2.7q0 .8.3 1.5l.6.8 2.3 3.5-2-3.8-.4-.7-.2-1.3V101q-.3-1-1.1-1.4l-1.3-.5q-.3 0-.3.3" style="fill:#eda600"/><linearGradient id="m" x1="20.9" x2="23.1" y1="25.2" y2="27.9" gradientTransform="matrix(1 0 0 -1 0 130)" gradientUnits="userSpaceOnUse"><stop offset="0" style="stop-color:#ffb300"/><stop offset="1" style="stop-color:#ffca28;stop-opacity:0"/></linearGradient><path d="M26.8 104.6s-3.7-3.7-8.8-3.3c0 0 2.2-.1 1.8 3.6 0 0 1.5-1.5 3.5 2.4 0 0 1.3-3.2 3.5-2.7" style="fill:url(#m)"/><path d="m17.9 102 1 .1q.4.3.4.8l.1 1.3v.7l.2.7q0 .5.4.6l.4.6.8 1 1.7 2-1.5-2.2-.7-1-.4-.6-.2-.5v-2.7a2 2 0 0 0-.7-1.4q-.7-.6-1.7-.4zm2.1 3.4.9-.2q.4.1.8.5l1.5 1.9.3.4.2-.5a4 4 0 0 1 2.3-2.7q1.6-.7 3.6.2-1.8-1-3.8-.5-.9.4-1.6 1.1-.6.7-1 1.7h.5l-1.4-2q-.4-.7-1.2-1l-1.5.2zM15.1 97v.8q1 0 1.6.3.7.4.7 1.4v3.9l.2 2q0 .5.3 1l.7.7 2.4 3-2.2-3.2-.6-.8q-.3-.3-.3-.8v-2l.2-3.8-.1-1.2c-.2-.3-.7-1.5-2.6-1.6q-.3 0-.3.2" style="fill:#eda600"/><path d="M80.9 40q-.7-1.5 1.4-3.5c2.1-2.2 4.4-7.3 2.3-12.5l-.4-1h-.9a1576 1576 0 0 0-38.6 0l-1.3 1c-2 5.2.2 10.3 2.3 12.5q2.1 2 1.4 3.6c-.5 1-2.3 1.2-2.3 1.2s.4 1 1.4 1.7q1.5.6 2.7.7s3 4 10.8 4h8.6c7.8 0 10.8-4 10.8-4q1.2 0 2.7-.7c1-.6 1.4-1.7 1.4-1.7s-1.8-.2-2.3-1.2" style="fill:#543930"/><radialGradient id="n" cx="107.2" cy="85.8" r="11.3" gradientTransform="matrix(1 0 0 .491 -36.13 -.97)" gradientUnits="userSpaceOnUse"><stop offset=".7" style="stop-color:#6d4c41;stop-opacity:0"/><stop offset="1" style="stop-color:#6d4c41"/></radialGradient><path d="M64 47.8v-4.6l13.8-1 1.2 1.4s-3 4.2-10.7 4.2z" style="fill:url(#n)"/><radialGradient id="o" cx="97.5" cy="91.3" r="3.3" gradientTransform="rotate(155 93 51.9)scale(1 .742)" gradientUnits="userSpaceOnUse"><stop offset=".7" style="stop-color:#6d4c41"/><stop offset="1" style="stop-color:#6d4c41;stop-opacity:0"/></radialGradient><path d="M79 41.7c-2-3.2 2.5-4.4 2.5-4.4q-1.2 1.5-.7 2.8c.6 1 2.4 1.2 2.4 1.2s-2.4 2-4.2.4" style="fill:url(#o)"/><radialGradient id="p" cx="106.8" cy="97.9" r="14.7" gradientTransform="rotate(-94.3 66.24 71.22)scale(1 .833)" gradientUnits="userSpaceOnUse"><stop offset=".7" style="stop-color:#6d4c41;stop-opacity:0"/><stop offset="1" style="stop-color:#6d4c41"/></radialGradient><path d="M84.6 24c2 5-.1 10.2-2.1 12.3-.3.3-1.5 1.5-1.8 2.4 0 0-4.6-6.4-6-10.2q-.4-1-.5-2.3-.1-1 .4-1.9a57 57 0 0 1 9.8-.8z" style="fill:url(#p)"/><radialGradient id="q" cx="56.4" cy="100.3" r="14.7" gradientTransform="rotate(94.3 23.87 108.25)scale(-1 .833)" gradientUnits="userSpaceOnUse"><stop offset=".7" style="stop-color:#6d4c41;stop-opacity:0"/><stop offset="1" style="stop-color:#6d4c41"/></radialGradient><path d="M43.4 24c-2 5 .1 10.2 2.2 12.3.2.3 1.4 1.5 1.7 2.4 0 0 4.6-6.4 6-10.2q.4-1 .5-2.3.1-1-.4-1.9-.6-.7-1.7-.5l-8-.3z" style="fill:url(#q)"/><radialGradient id="r" cx="59" cy="85.8" r="11.3" gradientTransform="matrix(-1 0 0 .491 115.93 -.97)" gradientUnits="userSpaceOnUse"><stop offset=".7" style="stop-color:#6d4c41;stop-opacity:0"/><stop offset="1" style="stop-color:#6d4c41"/></radialGradient><path d="M64 47.8v-4.6l-13.8-1-1.2 1.4s3 4.2 10.7 4.2z" style="fill:url(#r)"/><radialGradient id="s" cx="45.5" cy="90.2" r="3.3" gradientTransform="rotate(25 -194.1 -13)scale(1 -.742)" gradientUnits="userSpaceOnUse"><stop offset=".7" style="stop-color:#6d4c41"/><stop offset="1" style="stop-color:#6d4c41;stop-opacity:0"/></radialGradient><path d="M49 41.7c2-3.2-2.5-4.4-2.5-4.4q1.3 1.5.7 2.8c-.6 1-2.4 1.2-2.4 1.2s2.4 2 4.2.4" style="fill:url(#s)"/><path d="M64 44.7h-4.8v5c0 2.4 2 4.2 4.4 4.2h.8c2.4 0 4.4-1.8 4.4-4.1v-5.1zM77.1 26H51c-2.9 0-5.2 2.4-5.2 5.4S48 37 51 37h26c2.9 0 5.2-2.5 5.2-5.5S80 26 77 26" style="fill:#e59600"/><path d="M64 7c-8.4 0-16.1 9-16.1 21.8S55.9 48 64 48s16.1-6.4 16.1-19.2S72.4 7 64 7" style="fill:#ffca28"/><path d="M59.6 25.2c-.5-.6-1.5-1.5-3.5-1.5s-3.1 1-3.6 1.5q-.2.5 0 .8t1 .2q.6-.5 2.6-.6 2 .1 2.6.6.7.1.9-.2t0-.8m15.9 0c-.5-.6-1.5-1.5-3.6-1.5-2 0-3 1-3.5 1.5q-.3.5 0 .8t1 .2q.5-.5 2.5-.6 2 .1 2.7.6.7.1.9-.2t0-.8" style="fill:#6d4c41"/><path d="M65.9 34.4h-3.7q-.6.2-.4.8.3 1.1 2.2 1.3c1.4 0 2-1 2.2-1.3q.1-.6-.3-.8" style="fill:#e59600"/><path d="M68 38.3c-1.5.9-6.5.9-8 0-.9-.5-1.8.3-1.4 1 .4.8 3 2.6 5.4 2.6s5-1.8 5.4-2.5c.3-.8-.5-1.6-1.4-1.1" style="fill:#795548"/><path d="M56.2 30.7q-1.6 0-2.5-.6-.5-.3-.4.2.5 2 2.9 2.1 2.3-.1 2.8-2.1.1-.5-.4-.2-1 .5-2.4.6m15.6 0q-1.5 0-2.4-.6-.5-.3-.4.2c.2 1.2 1.4 2.1 2.8 2.1s2.7-.9 2.9-2.1q0-.5-.4-.2-1 .5-2.5.6" style="fill:#404040"/><path d="M83.4 13.6c-1.1-1.8-3.8-4.2-6.2-4.3-.3-2.3-2.8-4.2-5.1-5-6.4-2-10.6.3-12.8 1.5-.5.2-3.5 2-5.6.7-1.3-.7-1.3-2.8-1.3-2.8s-4 1.6-2.7 6c-1.4 0-3.3.6-4.2 2.6a7 7 0 0 0-.5 5.3 5.4 5.4 0 0 0-1.7 6.1c.8 2.2 4 3.1 4 3.1-.2 4 .5 6.3.9 7.2q.1.3.3 0c.5-1.9 2.1-8.6 2-9.7 0 0 5.5-1.1 10.7-5q1.6-1.1 3.4-1.9c6.6-2.6 8 1.8 8 1.8s4.5-.8 5.9 5.5c.5 2.3.9 6.1 1.2 8.8q0 .3.3 0a16 16 0 0 0 1.6-5.2c0-.8 2.1-1.8 3-5 1.1-4.3-.3-8.4-1.2-9.7" style="fill:#543930"/><radialGradient id="t" cx="72.5" cy="105.8" r="17.2" gradientTransform="rotate(72 3.39 -27.95)scale(1 -.742)" gradientUnits="userSpaceOnUse"><stop offset=".7" style="stop-color:#6d4c41;stop-opacity:0"/><stop offset="1" style="stop-color:#6d4c41"/></radialGradient><path d="M81.6 28.3c0-.7 2-1.7 3-5l.2-1c.7-4-.6-7.5-1.4-8.7-1-1.6-3.4-3.8-5.6-4.2l-.6-.1s.2 1-.2 1.9c-.6 1-1.7 1.3-1.7 1.3 5.8 5.8 5.4 10.6 6.3 15.8" style="fill:url(#t)"/><radialGradient id="u" cx="55.7" cy="125.8" r="4.5" gradientTransform="rotate(208.2 -18.12 62.33)scale(-1 1.186)" gradientUnits="userSpaceOnUse"><stop offset=".6" style="stop-color:#6d4c41"/><stop offset="1" style="stop-color:#6d4c41;stop-opacity:0"/></radialGradient><path d="m60.7 5-1.4.8c-.5.2-3.5 2-5.6.7-1.3-.7-1.3-2.7-1.3-2.8-.6.8-2.4 6.2 2.9 6.6 2.3.1 3.7-1.9 4.5-3.5z" style="fill:url(#u)"/><radialGradient id="v" cx="152.8" cy="57.3" r="13.9" gradientTransform="matrix(-.938 -.394 -.218 .528 221.9 41.72)" gradientUnits="userSpaceOnUse"><stop offset=".7" style="stop-color:#6d4c41;stop-opacity:0"/><stop offset="1" style="stop-color:#6d4c41"/></radialGradient><path d="M71.4 4.1q5.2 1.5 5.8 5.2c.2.7.4 7.3-12.2-.2-4.6-2.8-3.4-4.5-2.8-4.7a15 15 0 0 1 9.2-.3" style="fill:url(#v)"/><radialGradient id="w" cx="54.2" cy="122.2" r="4.1" gradientTransform="matrix(1 0 0 -1.223 0 157.1)" gradientUnits="userSpaceOnUse"><stop offset=".7" style="stop-color:#6d4c41;stop-opacity:0"/><stop offset="1" style="stop-color:#6d4c41"/></radialGradient><path d="M52.4 3.8c-.5.1-4 1.8-2.7 5.9l3.8.6c-3.3-3.4-1-6.6-1-6.6" style="fill:url(#w)"/><radialGradient id="x" cx="55.9" cy="113.3" r="7.8" gradientTransform="rotate(-165 62.74 -45.4)scale(1 -.936)" gradientUnits="userSpaceOnUse"><stop offset=".7" style="stop-color:#6d4c41;stop-opacity:0"/><stop offset="1" style="stop-color:#6d4c41"/></radialGradient><path d="m52 10-2.3-.3h-.5q-2.3.2-3.7 2.6a7 7 0 0 0-.7 4.6l.3.7s1.1-1 3.9-1.1z" style="fill:url(#x)"/><radialGradient id="y" cx="51.7" cy="107.2" r="8.2" gradientTransform="rotate(187.8 -4.32 82.97)scale(-1 1.405)" gradientUnits="userSpaceOnUse"><stop offset=".6" style="stop-color:#6d4c41;stop-opacity:0"/><stop offset="1" style="stop-color:#6d4c41"/></radialGradient><path d="M45 17.7a5.4 5.4 0 0 0-1.6 6.1c.9 2.1 4 3 4 3l.8.2.8-10.5a7 7 0 0 0-3.8 1z" style="fill:url(#y)"/></svg>