<svg xml:space="preserve" width="16" height="16" viewBox="0 0 128 128"><circle cx="64" cy="64" r="60" style="fill:#c33"/><circle cx="60.1" cy="63.1" r="56.1" style="fill:#f44336"/><path d="M24.4 29.7c4.5-7.1 14-13 24-14.8q3.9-.8 7.2.2c1.6.6 2.9 2.1 2 3.8-.7 1.4-2.6 2-4.1 2.5a45 45 0 0 0-23 17.4c-2 3-5 11.3-8.7 9.2-4-2.3-3.2-9.5 2.6-18.3" style="opacity:.65;fill:#ff8a80"/><path d="M24.4 29.7c4.5-7.1 14-13 24-14.8q3.9-.8 7.2.2c1.6.6 2.9 2.1 2 3.8-.7 1.4-2.6 2-4.1 2.5a45 45 0 0 0-23 17.4c-2 3-5 11.3-8.7 9.2-4-2.3-3.2-9.5 2.6-18.3" style="opacity:.3;fill:#ff8a80"/><path d="M63.1 30.2q7 4.8 13.1 10.4c.8.7 2 .6 2.8-.2l2.6-3.3c.6-.8.6-2-.2-2.6q-6.6-5.6-13.8-10.2a2 2 0 0 0-2.5.4l-2.3 2.7-.2.2c-.6.8-.4 2 .5 2.6M49.6 72.4l-1.2 3.3a2 2 0 0 0 1.2 2.5l2.7.9q1.6.4 2.4-1.2c2.4-6.7 4-16.5 4.8-24.5a2 2 0 0 0-1.5-2l-2.4-.6h-.2a2 2 0 0 0-2.1 1.7q-.8 8.5-2.8 16.9l-.4 1.4zm50.7 5.2q-2.6-11.9-7.4-23a1 1 0 0 0-1.1-.5l-2.8.8h-.5a1 1 0 0 1-.6-1.3q4.2-10.4 7.2-21.1v-.2q.2-1.7-1.5-2.2l-4-.8q-1.7-.2-2.2 1.4-4.8 19-14.4 36.2l-.7.4a1 1 0 0 1-1.1-.9V44.9c0-1-.9-1.8-1.9-1.8h-3.9a2 2 0 0 0-1.9 1.9v35.4q0 .7-.4 1.2a80 80 0 0 1-14.7 14q-.8 1.6.4 2.7l3.3 2.8a2 2 0 0 0 2.5.1 78 78 0 0 0 8-6.8q.9 0 1 .9c.6 6 3 7.8 10 7.8h11c6.8 0 8.9-3.5 9.8-14.9a2 2 0 0 0-1.3-2q-1.5-.5-2.9-1.2a2 2 0 0 0-2.8 1.6c-.4 7.6-1 9.3-3.5 9.3h-9.4c-3 0-3.4-.6-3.4-4.2v-7.2q0-.6.4-1.1a131 131 0 0 0 14.3-24.3 1 1 0 0 1 1.3.5q3.7 9.6 5.8 19.8v.2a2 2 0 0 0 2.4 1.3l3.7-1.1a2 2 0 0 0 1.3-2.2M50 71.7c0-.4-.5-1-.5-1l-.6-.9-.1-.1-8.7-12.4v-.4q0-.9 1-1H48q1.7-.1 1.9-1.9v-3.7q-.1-1.7-1.9-1.9h-6.6a1 1 0 0 1-1-1V34.7q0-.7.7-.9a61 61 0 0 0 7.2-2.3 2 2 0 0 0 .4-2.7l-2.5-3.4a2 2 0 0 0-2.3-.6 111 111 0 0 1-20 6c-1 .3-1.4 1.4-1 2.3l1 2.7q.6 1.5 2.1 1.3l5.7-1.1h.2q.9 0 .9.9v10.4q0 1-1 1h-8.4a2 2 0 0 0-1.9 1.9v3.7q.2 1.7 1.9 1.9h7.5q.8.4.6 1.2a88 88 0 0 1-11.4 23.4q-.7 1-.1 2.1l2.1 3.8q.3.5.8.8c.8.6 2 .3 2.5-.6q3.3-5.3 5.6-11l.6-.4a1 1 0 0 1 1.2.8v26.2a2 2 0 0 0 1.9 1.9h3.8q1.6-.2 1.8-1.9V71.4q0-.5.4-.6a1 1 0 0 1 1.4.2l1.9 4c.6 1.3 2 1.4 3 .4l2.4-2.2z" style="fill:#fafafa"/></svg>