<svg xml:space="preserve" width="16" height="16" viewBox="0 0 128 128"><linearGradient id="a" x1="50" x2="50" y1="32.3" y2="-3.1" gradientTransform="matrix(1 0 0 -1 0 128)" gradientUnits="userSpaceOnUse"><stop offset="0" style="stop-color:#303f9f"/><stop offset=".5" style="stop-color:#273492"/><stop offset="1" style="stop-color:#1a237e"/></linearGradient><path d="M96 120.8v3.2H4v-3.2c0-8 4.7-13.8 11.9-17.9 8.9-5 21.6-7.2 34.1-7.2s25.2 2.5 34 7.5c7.3 4.2 12 10 12 17.6" style="fill:url(#a)"/><path d="M50 92.3h-9v10c0 4.5 3.6 8.2 8.2 8.2h1.6c4.6 0 8.3-3.7 8.3-8.2v-10z" style="fill:#99674f"/><path d="m104.2 104.6-4 19.4h15v-3.2c0-6.8-4.2-12.2-11-16.2" style="fill:#1b2b8f"/><path d="M59.3 104.5H39.4l8 19.5h5z" style="fill:#f5f5f5"/><linearGradient id="b" x1="30.6" x2="41.2" y1="28.7" y2="2.8" gradientTransform="matrix(1 0 0 -1 0 128)" gradientUnits="userSpaceOnUse"><stop offset="0" style="stop-color:#5c6bc0"/><stop offset="1" style="stop-color:#3949ab"/></linearGradient><path d="m40.9 96-7.8.8-8 17.3 10.9-4.3 9.5 14.2h2.7z" style="fill:url(#b)"/><linearGradient id="c" x1="69" x2="61.2" y1="30" y2="2.8" gradientTransform="matrix(1 0 0 -1 0 128)" gradientUnits="userSpaceOnUse"><stop offset="0" style="stop-color:#5c6bc0"/><stop offset="1" style="stop-color:#3949ab"/></linearGradient><path d="m67 96.8-8-.8-7.3 28h3l10-14 10.1 4.2z" style="fill:url(#c)"/><linearGradient id="d" x1="110.1" x2="98.9" y1="75.5" y2="5" gradientTransform="matrix(1 0 0 -1 0 128)" gradientUnits="userSpaceOnUse"><stop offset="0" style="stop-color:#90a4ae"/><stop offset=".3" style="stop-color:#889da8"/><stop offset=".6" style="stop-color:#78909c"/><stop offset="1" style="stop-color:#607d8b"/></linearGradient><path d="M121.8 56.7q-.5-.9-1.5-.9-1.3 0-1.6 1.4l-1.5 8q-.1.7-1 1.1l-8 3.9-.7.2q-.8 0-1.3-.6l-6.1-6.5q-.6-.5-.5-1.4l1.5-8c.2-1-.7-2-1.7-2q-.6 0-1 .5a17 17 0 0 0-1.2 25.4 7 7 0 0 1 2.2 6.5L92.1 124h10.3l7-37.8q.7-3.8 4.3-5.3c5-2.1 9-6.7 10-12.6q1-6.5-1.9-11.6" style="fill:url(#d)"/><linearGradient id="e" x1="86.7" x2="111.9" y1="20.5" y2="20.5" gradientTransform="matrix(1 0 0 -1 0 128)" gradientUnits="userSpaceOnUse"><stop offset="0" style="stop-color:#a47b62"/><stop offset=".5" style="stop-color:#ba8d68"/></linearGradient><path d="m94.5 117.3-1.9 2.2s-5.7-1.2-5-4.5c.1-.8 1.5-2.5 1.5-2.5s-2.8-2.3-2.4-4c.5-1.5 3.2-2.7 3.2-2.7s-2-1.3-1.3-3.6c.6-1.7 3.6-2.2 3.6-2.2s-2.8-4 2.8-5c1.8-.3 5.8.3 9.3 3s5.2 4.2 6.8 7.6c2.5 5.3-1.9 14.3-5.3 14.4-2.8 0-11.3-2.7-11.3-2.7" style="fill:url(#e)"/><path d="M77.3 50.2H22.6c-5.9 0-10.7 5.2-10.7 11.4s4.8 11.5 10.7 11.5h54.7C83.2 73 88 67.9 88 61.6s-4.8-11.4-10.7-11.4" style="fill:#99674f"/><path d="M50 10.9c-17.5 0-33.6 18.6-33.6 45.4C16.4 82.9 33 96 50 96s33.6-13.2 33.6-39.8c0-26.8-16.2-45.4-33.6-45.4" style="fill:#ba8d68"/><ellipse cx="34.1" cy="58.6" rx="4.9" ry="5.1" style="fill:#49362e"/><ellipse cx="65.3" cy="58.6" rx="4.9" ry="5.1" style="fill:#49362e"/><path d="m26 50.5.3-.5.2-.2.4-.4.4-.4q.3 0 .5-.3l.5-.4.6-.3.7-.3.7-.2 1.5-.4 1.7-.1H35l1.5.5 1.4.5.6.3.5.4.5.3.4.4.3.3.3.3.4.6q.8 1.3-.3 2.2-.7.4-1.4.2l-.3-.1-.5-.2-.3-.1-.3-.2-.7-.2-.4-.1-.4-.1-.2-.1h-.3l-.4-.1-1-.2h-2l-1 .2H31l-.3.1h-.2l-.4.2-.4.1-.4.1-.3.1-.3.1-.2.1-.6.3c-.8.4-1.8 0-2.1-.9q-.3-.8.1-1.5M72 53l-.6-.3-.3-.2H71l-.3-.2h-.4l-.4-.2-.4-.1h-.2l-.3-.1-.4-.1-1-.2h-2.1l-1 .2H64l-.2.1h-.2l-.5.2-.4.1-.7.2-.3.2h-.2l-.5.3h-.3q-1.4.5-2-.9-.1-.8.2-1.4l.5-.6.3-.3.3-.3.4-.4.5-.3.5-.4.6-.3.7-.3.7-.3 1.5-.3 1.6-.2q.9 0 1.6.2.9 0 1.6.3l1.4.6.6.3.5.4.5.3.4.4.4.4.2.2.4.5q.7 1.4-.5 2.3-.7.4-1.5.1" style="fill:#613e31"/><path d="m53.8 67.9-.3-.1H46q-1.1.6-.7 1.7c.3.7 1.7 2.7 4.5 2.7s4.3-2 4.6-2.7q.4-1.2-.7-1.7" style="fill:#99674f"/><path d="M58.5 76a26 26 0 0 1-16.8 0c-1.9-1.2-3.7.5-3 2.2.8 1.6 6.5 5.4 11.4 5.4s10.5-3.8 11.3-5.4c.7-1.7-1.1-3.4-3-2.3" style="fill:#5d4037"/><path d="M50 4.6c-45.5.2-36.2 52-36.2 52l3 7.8c0 .3.6.3.7 0a309 309 0 0 1 6.2-24.5 6 6 0 0 1 6.8-3.8A111 111 0 0 0 49.9 38h.1c7.8 0 15-1 19.4-1.8a6 6 0 0 1 6.8 3.8c1.7 4.7 5.2 20 6.2 24.4 0 .4.6.4.7 0l3-7.6S95.4 4.7 50 4.6" style="fill:#543930"/><radialGradient id="f" cx="49.9" cy="80.4" r="38.1" gradientTransform="matrix(1 0 0 -1.128 0 138.3)" gradientUnits="userSpaceOnUse"><stop offset=".8" style="stop-color:#6d4c41;stop-opacity:0"/><stop offset="1" style="stop-color:#6d4c41"/></radialGradient><path d="M86 56.7s9.4-52-36-52.1l-6 .3h-.4C5.4 9.8 13.8 56.7 13.8 56.7l3 7.7q.4.4.7 0c1-4.5 4.4-19.8 6.2-24.4a6 6 0 0 1 6.8-3.9A111 111 0 0 0 49.9 38h.1c7.8 0 15-1 19.4-1.8a6 6 0 0 1 6.8 3.9c1.7 4.6 5.2 20 6.2 24.4 0 .3.6.4.7 0z" style="fill:url(#f)"/><linearGradient id="g" x1="50" x2="50" y1="89.2" y2="129.4" gradientTransform="matrix(1 0 0 -1 0 128)" gradientUnits="userSpaceOnUse"><stop offset="0" style="stop-color:#0068b5"/><stop offset=".8" style="stop-color:#4c8eea"/><stop offset="1" style="stop-color:#5e97f6"/></linearGradient><path d="M49.7 4.6c22.8 0 36.5 13 37.3 40.2 0 0-9.7-8-36.8-8C21 36.8 13 45.3 13 44.4 14 17 27.3 4.6 50.2 4.6z" style="fill:url(#g)"/><linearGradient id="h" x1="49.7" x2="49.7" y1="82.6" y2="108.3" gradientTransform="matrix(1 0 0 -1 0 128)" gradientUnits="userSpaceOnUse"><stop offset="0" style="stop-color:#0068b5"/><stop offset="1" style="stop-color:#5e97f6"/></linearGradient><path d="M27 34.4c0-18.7 8.9-28.8 22.7-28.8s22.8 10.5 22.8 28.8c0 15-10.7 3.2-22.8 3.2S27 49.3 27 34.4" style="fill:url(#h)"/><path d="M50 28.4c-21.7 0-32.1 12-32.1 12 0 1.9 2.2 5.4 7.2 6.3 7 1 11.5-4.5 24.9-4.5h.1c13.5 0 18 5.6 24.9 4.5 5-.9 6.9-3.9 6.9-5.9 0 0-9.8-12.4-31.8-12.4" style="fill:#5e97f6"/></svg>