<svg xml:space="preserve" width="16" height="16" viewBox="0 0 128 128"><path d="m13.2 89.2 101-56.3 1.5 5.3L14.9 93.7zm.5-50.7 100.3 56 .8-5-102-56.8zm53.1-26.3-5.5.7v103.9l5-.7zm23.7 52.2c-.2-6.2 2.1-13.4 1-15.3s-9.5-4.4-14.3-7c-4-2.3-10.4-9.6-13.3-9.4-3.6.3-7.2 6.2-13 9.5S38.3 46 37 48.8c-1.3 2.4.8 9.3 1 14.5.1 7.7-2.2 14.6-1 16.3 1 1.7 8.2 2.8 13.4 6 5.8 3.7 11 9.4 13.7 9.4s8.4-6.8 14-9.6c4.4-2.1 11.5-5.2 13.3-7 1.8-1.6-.7-7-.8-14m-4.3 11.1c-1 1.2-7.1 4.4-11 6.5-3.6 1.9-8.7 6.6-11.5 6.8-3 .1-7.3-4.3-10.5-6.4-3.8-2.3-11-4.5-11.7-6.1-.9-2 .7-9.5.7-14 0-3.8-1.3-9.8-.4-11.4s7.6-3.2 11.6-5.5c5-2.7 8-6.3 10.6-6.3s6.8 4 10.7 6.3c4.5 2.6 10.6 5.2 11.5 7 1 1.6-.1 7.7 0 11.6.2 4.3 1 10.4 0 11.5m26.1-13.3c1-13.5 6.5-22.7 7.3-24.3s3-3.7 1.8-6.2c-1.3-2.4-4.5-1.6-7.5-1.6-2.1 0-17.3-1.2-25.6-5-8.8-4-17.5-12-19-14.9s-3-5.6-5.4-5.8c-2.7-.1-4.5 3.8-5.6 6.2a46 46 0 0 1-16.7 13.7c-9 4.5-24 6.3-27.3 6.5-2.7 0-6.3-.5-7.4 1.8-1 2 1.4 4.7 2.8 7a49 49 0 0 1-1 48.9c-1.1 1.8-4 4.6-2.4 7.3 1.4 2.4 4.5 1.7 7 1.6a72 72 0 0 1 26.5 5c7.1 3.5 14.5 10.7 17.5 14.1s4 6.4 6.7 6.4c3.3-.1 4.3-3.8 6-6.4a56 56 0 0 1 18.8-15c7.1-3 22.3-4.2 23.8-4.3 3.3-.1 7.2.7 8.3-1.5s-1.6-5.6-2.5-7a49 49 0 0 1-6-26.5m-2 27.8c-2.5 3.8-14.7 2.6-24.5 7-9.8 4.6-16.8 15.4-21.8 15.6-4.2.1-12-11.1-22-15.4-10.7-4.4-24.4-4-26-7.1-1.5-3.1 5.7-13.6 5.4-26-.3-12-6.5-23.7-4.5-26.7s18-3.5 26.6-7.5C50.7 26.7 61 16 64 16c3.7 0 12.4 9.2 20 13.2 7.7 4.1 24.4 6.2 26.2 9.1 1.8 3-4 15.2-4 25.4.2 13 6.1 23.5 4.2 26.4" style="fill:#5e6367"/></svg>