<svg xml:space="preserve" width="16" height="16" viewBox="0 0 128 128"><linearGradient id="a" x1="63.9" x2="63.9" y1="4.4" y2="35.7" gradientTransform="matrix(1 0 0 -1 0 128)" gradientUnits="userSpaceOnUse"><stop offset="0" style="stop-color:#b3b3b3"/><stop offset="0" style="stop-color:#b7b7b7"/><stop offset=".4" style="stop-color:#d9d9d9"/><stop offset=".6" style="stop-color:#e6e6e6"/></linearGradient><path d="M64.4 92.2c-25.8 0-52.2 9.3-52.2 31.4v.3h103.6v-.3c0-20.8-25.4-31.4-51.3-31.4" style="fill:url(#a)"/><path d="M89.1 124v-8.8a4 4 0 0 0-4-4H44.7a4 4 0 0 0-4 4v8.7z" style="fill:#a6a6a6"/><path d="M116.2 124v-.4c0-5.1-2.3-8.3-3.4-11.3l-8 2.9 3.2 8.8zm-95.7 0q.3-1.5.3-3.2-.1-6-4.4-10.8a20 20 0 0 0-4.2 12.2v1.7z" style="fill:#757575"/><linearGradient id="b" x1="64" x2="64" y1="36.2" y2="18.1" gradientTransform="matrix(1 0 0 -1 0 128)" gradientUnits="userSpaceOnUse"><stop offset="0" style="stop-color:#e6e6e6"/><stop offset=".3" style="stop-color:#d9d9d9"/><stop offset=".9" style="stop-color:#b7b7b7"/><stop offset="1" style="stop-color:#b3b3b3"/></linearGradient><path d="M97.5 102.5a85 85 0 0 1-63.7 1.3c-2.7-1-5.4-2-7.3-4.2a8 8 0 0 1-2.3-7.2 9 9 0 0 1 5-5.9 11 11 0 0 1 8.5.3 68 68 0 0 0 50 1c1.7-.6 3.3-1.5 5-1.8 3-.6 6.3 0 8.5 2s3.4 5.3 2.4 8.3c-1 2.8-3.4 5-6.1 6.2" style="fill:url(#b)"/><ellipse cx="64" cy="52.9" rx="49.2" ry="48.7" style="fill:#4c4c4c"/><ellipse cx="64" cy="52.9" rx="46.4" ry="46" style="fill:#212121"/><path d="M95.3 80.1c-1.1-2 .3-4.1 2.7-6.7 3.9-4 8.1-13.5 4.2-23l-.8-1.8h-1.6a3043 3043 0 0 0-71.7 0l-2.3 1.7c-4 9.6.3 19 4.1 23.1 2.5 2.6 3.9 4.7 2.8 6.7s-4.3 2.3-4.3 2.3.7 2 2.5 3.1c1.7 1 3.7 1.3 5.1 1.3 0 0 5.5 7.6 20 7.6h16c14.4 0 20-7.6 20-7.6a10 10 0 0 0 5-1.3c1.8-1 2.6-3.1 2.6-3.1s-3.2-.3-4.3-2.3" style="fill:#ab872f"/><radialGradient id="c" cx="101.1" cy="45.8" r="21" gradientTransform="matrix(1 0 0 .491 -24.06 59.67)" gradientUnits="userSpaceOnUse"><stop offset=".7" style="stop-color:#bfa055;stop-opacity:0"/><stop offset="1" style="stop-color:#bfa055"/></radialGradient><path d="M64 94.4V86l25.6-2 2.4 2.9s-5.6 7.6-20 7.6z" style="fill:url(#c)"/><radialGradient id="d" cx="80.5" cy="48.9" r="6.2" gradientTransform="rotate(155 84.36 59.6)scale(1 .742)" gradientUnits="userSpaceOnUse"><stop offset=".7" style="stop-color:#bfa055"/><stop offset="1" style="stop-color:#bfa055;stop-opacity:0"/></radialGradient><path d="M91.9 83c-3.9-5.8 4.7-8 4.7-8q-2.5 2.8-1.3 5.1c1 2 4.3 2.3 4.3 2.3s-4.4 3.9-7.7.7" style="fill:url(#d)"/><radialGradient id="e" cx="96.5" cy="66.5" r="27.3" gradientTransform="rotate(-94.3 91.93 65.36)scale(1 .833)" gradientUnits="userSpaceOnUse"><stop offset=".7" style="stop-color:#bfa055;stop-opacity:0"/><stop offset="1" style="stop-color:#bfa055"/></radialGradient><path d="M102.2 50.3a23 23 0 0 1-4 23c-.5.5-2.6 2.6-3.1 4.3 0 0-8.6-11.9-11.1-19q-1-2-1.1-4.3-.1-1.9.8-3.4c.8-1.2 18-1.6 18-1.6z" style="fill:url(#e)"/><radialGradient id="f" cx="46.3" cy="66.5" r="27.3" gradientTransform="rotate(-85.7 109.34 3.04)scale(1 -.833)" gradientUnits="userSpaceOnUse"><stop offset=".7" style="stop-color:#bfa055;stop-opacity:0"/><stop offset="1" style="stop-color:#bfa055"/></radialGradient><path d="M25.8 50.3a23 23 0 0 0 4 23c.5.5 2.6 2.6 3.1 4.3 0 0 8.6-11.9 11.2-19q.9-2 1-4.3.1-1.9-.8-3.4c-.8-1.2-1.7-.9-3-.9-2.6 0-14-.7-14.8-.7z" style="fill:url(#f)"/><radialGradient id="g" cx="50.9" cy="45.8" r="21" gradientTransform="matrix(-1 0 0 .491 101.88 59.67)" gradientUnits="userSpaceOnUse"><stop offset=".7" style="stop-color:#bfa055;stop-opacity:0"/><stop offset="1" style="stop-color:#bfa055"/></radialGradient><path d="M64 94.4V86l-25.6-2-2.3 2.9s5.5 7.6 19.9 7.6z" style="fill:url(#g)"/><radialGradient id="h" cx="30.3" cy="48.9" r="6.2" gradientTransform="rotate(205 4.75 50.95)scale(-1 .742)" gradientUnits="userSpaceOnUse"><stop offset=".7" style="stop-color:#bfa055"/><stop offset="1" style="stop-color:#bfa055;stop-opacity:0"/></radialGradient><path d="M36.1 83c3.9-5.8-4.6-8-4.6-8q2.2 2.8 1.2 5.1c-1 2-4.3 2.3-4.3 2.3s4.4 3.9 7.7.7" style="fill:url(#h)"/><path d="M89.2 54H38.8c-5.4 0-9.8 4.8-9.8 10.6S33.4 75 38.8 75h50.4c5.4 0 9.9-4.8 9.9-10.5S94.6 54 89 54" style="fill:#c48e6a"/><path d="M64 17.8c-16 0-30.9 17.1-30.9 41.8C33.1 84 48.4 96.3 64 96.3S94.9 84 94.9 59.6C94.9 34.9 80 17.8 64 17.8" style="fill:#e0bb95"/><path d="M55.9 53.7c-1-1.2-3-3-7-3s-6.2 1.8-7 3q-.7.8 0 1.5.5.6 1.8.3c.8-.2 2.4-1 5.2-1.1 2.7 0 4.3.9 5.2 1.2q1.3.3 1.8-.4t0-1.5m30.3 0c-1-1.2-3-3-7-3s-6.2 1.8-7 3q-.7.8 0 1.5.5.6 1.8.3c.8-.2 2.4-1 5.2-1.1 2.7 0 4.3.9 5.2 1.2q1.3.3 1.8-.4t0-1.5" style="fill:#ab872f"/><ellipse cx="48.9" cy="61.8" rx="4.5" ry="4.7" style="fill:#5d4037"/><ellipse cx="79.2" cy="61.8" rx="4.5" ry="4.7" style="fill:#5d4037"/><path d="m67.6 70.3-.3-.1h-6.9q-.9.6-.6 1.6c.3 1 1.6 2.4 4.2 2.4s3.9-1.8 4.2-2.4q.4-1.1-.6-1.5" style="fill:#c48e6a"/><path d="M71.8 77.7a23 23 0 0 1-15.5 0c-1.7-1-3.4.5-2.7 2 .7 1.6 5.9 5 10.4 5s9.8-3.4 10.5-5c.6-1.5-1-3-2.7-2" style="fill:#6d4c41"/><path d="M100.8 32c-2.2-3.3-7.3-7.9-11.8-8.2-.7-4.3-5.3-8-9.8-9.4a28 28 0 0 0-24.3 2.8c-1 .4-6.6 3.6-10.6 1.3-2.5-1.4-2.4-5.2-2.4-5.2s-7.9 3-5.2 11.3a9 9 0 0 0-8 5 13 13 0 0 0-.9 10c-2.3 2-5.2 6.2-3.2 11.6 1.5 4.1 7.5 6 7.5 6-.4 7.3 1 11.9 1.7 13.7q.4.5.7 0c.9-3.7 4-16.4 3.7-18.6 0 0 10.4-2 20.3-9.4q3-2.2 6.6-3.7c12.4-5 15 3.5 15 3.5s8.7-1.6 11.3 10.4c1 4.5 1.7 11.7 2.2 16.7q.2.7.7.1c.9-2 2.6-6 3-10 .2-1.4 4-3.3 5.7-9.4 2.1-8.2-.6-16-2.2-18.5" style="fill:#ab872f"/><radialGradient id="i" cx="80.5" cy="79.5" r="32.7" gradientTransform="rotate(72 6.69 -5.22)scale(1 -.742)" gradientUnits="userSpaceOnUse"><stop offset=".7" style="stop-color:#bfa055;stop-opacity:0"/><stop offset="1" style="stop-color:#bfa055"/></radialGradient><path d="M97.3 60c.1-1.5 4-3.3 5.6-9.5l.5-2a25 25 0 0 0-2.6-16.4c-2-3.2-6.5-7.3-10.7-8.1l-1.1-.2s.3 2-.5 3.6c-1 2-3.1 2.5-3.1 2.5 11 11 10.2 20.2 11.9 30" style="fill:url(#i)"/><radialGradient id="j" cx="48.6" cy="115.2" r="8.6" gradientTransform="rotate(28.2 -248.7 -61.83)scale(1 -1.186)" gradientUnits="userSpaceOnUse"><stop offset=".6" style="stop-color:#bfa055"/><stop offset="1" style="stop-color:#bfa055;stop-opacity:0"/></radialGradient><path d="M57.5 15.8 55 17.2c-1 .4-6.6 3.6-10.6 1.3-2.5-1.4-2.4-5-2.4-5.2-1.2 1.4-4.6 11.7 5.4 12.4 4.3.3 7-3.5 8.5-6.6z" style="fill:url(#j)"/><radialGradient id="k" cx="45.2" cy="107.3" r="7.9" gradientTransform="matrix(1 0 0 -1.223 0 151.97)" gradientUnits="userSpaceOnUse"><stop offset=".7" style="stop-color:#bfa055;stop-opacity:0"/><stop offset="1" style="stop-color:#bfa055"/></radialGradient><path d="M41.8 13.3c-1 .4-7.6 3.5-5.1 11.3l7.1 1.1c-6.3-6.4-2-12.4-2-12.4" style="fill:url(#k)"/><radialGradient id="l" cx="44.1" cy="93.4" r="14.8" gradientTransform="rotate(15 199.9 394.7)scale(-1 .936)" gradientUnits="userSpaceOnUse"><stop offset=".7" style="stop-color:#bfa055;stop-opacity:0"/><stop offset="1" style="stop-color:#bfa055"/></radialGradient><path d="m41.1 25.3-4.4-.7h-1a9 9 0 0 0-7 5 13 13 0 0 0-.9 10s2.2-2 7.4-2.1z" style="fill:url(#l)"/><radialGradient id="m" cx="40.6" cy="79.2" r="15.5" gradientTransform="rotate(187.8 -2.13 77.26)scale(-1 1.405)" gradientUnits="userSpaceOnUse"><stop offset=".6" style="stop-color:#bfa055;stop-opacity:0"/><stop offset="1" style="stop-color:#bfa055"/></radialGradient><path d="M27.6 39.8c-2.2 2-5.1 6.3-3 11.6 1.7 4 7.5 5.8 7.5 5.8l1.8.3 1.3-20a13 13 0 0 0-7.2 2z" style="fill:url(#m)"/><radialGradient id="n" cx="64.8" cy="120.5" r="26" gradientTransform="matrix(1 0 0 -1 0 128)" gradientUnits="userSpaceOnUse"><stop offset="0" style="stop-color:#f2f2f2"/><stop offset=".4" style="stop-color:#e5e5e5"/><stop offset="1" style="stop-color:#ccc"/></radialGradient><path d="M64 22.6A54 54 0 0 1 113.2 54v-.7a49.2 49.2 0 0 0-98.4 0v.7A54 54 0 0 1 64 22.6" style="fill:url(#n)"/></svg>