<svg xml:space="preserve" width="16" height="16" viewBox="0 0 128 128"><path d="M63.1 84.2h18.3V124H63.1z" style="fill:#c87d5e"/><path d="M81.5 94.2q-2.6-4-6.6-6.4-2.6-1.3-5.5-1.6h-3.2q-1.5 0-3 .6v20.1a7 7 0 0 1 4-2.7c2.7-.7 5.7.4 8 2.2q3.2 2.7 5.5 6.4l.8 1z" style="fill:#874d36"/><path d="M29 29c11.8 0 21.5 8 21.5 17.9v47.6h-43V46.9c0-10 9.6-18 21.4-18" style="fill:#4e342e"/><path d="M55 94.2H19a4.3 4.3 0 0 1-4.2-3.7L10 54a3 3 0 0 1 2.9-3.3H55z" style="fill:#fff"/><path d="M97.6 25H28.8s23.7 3 23.7 23l.1 50.5h66.6c2.6 0 4.8-2.2 4.8-4.9v-42a26.4 26.4 0 0 0-26.4-26.4" style="fill:#1976d2"/><path d="m83.5 34-8.2.3-11.8 18.2V37.7c0-7.9-8-12.6-8-12.6h31.1l.2.1a5 5 0 0 1-3.3 8.8" style="fill:#0d47a1"/><ellipse cx="74.2" cy="54.1" rx="8.1" ry="9.2" style="fill:#0d47a1"/><path d="M66.9 10.1v41.6c0 1.4 1.1 2.5 2.5 2.5h5.2c1.4 0 2.5-1.1 2.5-2.5V4H73a6 6 0 0 0-6.1 6.1" style="fill:#c62828"/><path d="M69.1 10.1v41.6h8.2V19.5h14.1c3.3 0 3.6-1.4 3.6-7.6S94.7 4 91.4 4H75.2a6 6 0 0 0-6 6.1" style="fill:#f44336"/><path d="M74.4 10.9c0 2-1.4 20-1.6 23.4-.3 4-2.6 4.5-2.6.8V10.7c0-4 4.3-4.1 4.2.2" style="fill:#ff7555"/><path d="M73.4 42.4v18.3h-4c-4.1 0-7.4-4-7.4-9.1s3.3-9.2 7.3-9.2z" style="fill:#82aec0"/><ellipse cx="73.4" cy="51.6" rx="7.3" ry="9.2" style="fill:#e0e0e0"/><path d="M69 51.9q.8.3 1.4-.4c1.1-1 1.6-2.6 2.6-3.6s2.4-1.9 1.3-3.3c-.8-1-2.2-.8-3.3-.3-2.3 1-4.2 6.4-2 7.6" style="fill:#fff"/><path d="M29 29.2c11.7 0 21.3 8 21.3 17.8v47.2H7.6V47c0-9.8 9.6-17.8 21.3-17.8m0-4.1C14 25 4 35.3 4 47.9v48.3c0 1.2 1 2.1 2.1 2.1h48.1c1.2 0 2.2-1 2.2-2V47.8C56.4 35.3 44 25 28.9 25" style="fill:#4fc3f7"/><path d="M17.7 91.5c-.6-.3-.1-.9.2-1.4l13.4-23.3 2.6 1.6L19 90.7q-.5 1-1.3.8zM39.9 75 12.2 53.5q-.7-.4-.3-1t1 0l26.9 18.6q1.2.6 2-.4l8-10.8v4.8L43 74.4q-1.2 1.5-3.1.5z" style="fill:#6fbff0;stroke:#6fbff0;stroke-miterlimit:10"/></svg>