<svg xml:space="preserve" width="16" height="16" viewBox="0 0 128 128"><path d="M116 4H12a8 8 0 0 0-8 8v104a8 8 0 0 0 8 8h104a8 8 0 0 0 8-8V12a8 8 0 0 0-8-8" style="fill:#8e24aa"/><path d="M109.7 4H11.5A7.6 7.6 0 0 0 4 11.5v97.9c0 4.1 3.3 7.5 7.5 7.5h98.1c4.1 0 7.5-3.3 7.5-7.5V11.5c0-4-3.1-7.4-7.2-7.5z" style="fill:#ab47bc"/><path d="M39.7 12.9c0-2.3-1.6-3-10.8-2.7-7.7.3-11.5 1.2-13.8 4-1.9 2.3-2.3 5.6-2.6 8.4-.2 2.2-2.2 14.9 3.5 11.2q1-.6 1.6-1.8c1.2-2.1 1.9-3.5 3.3-5.6 5.3-8.6 18.8-10.5 18.8-13.5" style="opacity:.3;fill:#fff"/><path d="M90.7 29.3c-.2 0-1.5 0-.5 1 3.2 3.7 7.8 12.3 5 26.7-3 14.3-14.9 23-21 26.8a69 69 0 0 1-10 4.6v-7.6s8-3.3 11.6-5q.3-.1.1-.5L74.2 72a27 27 0 0 0 .2-47l1.8-4-.1-.3c-5-3-11.6-6.7-15-11.2h-.2c-3.4 4.6-10 8.3-15 11.2q-.2.2-.1.4l1.8 4a27 27 0 0 0 .2 46.9L46 75.3q0 .4.2.6l11.5 4.9v7.6a69 69 0 0 1-10-4.6C41.7 80 29.7 71.3 27 57c-3-14.4 1.7-23 5-26.6.9-1-.3-1.2-.6-1-4.1 1.8-18.1 10.2-18.1 25.4 0 17.3 8.4 25.3 12.3 29.6 3.6 4 5.2 11.6 6.6 15.1L43.7 88a96 96 0 0 0 9.7 4.7 49 49 0 0 0-6.5 3c-6.9 4.1-6 7.4-5.1 9.5.7 1.4 3.5 2.4 5.5 1.3 3.4-1.8 1.6-4.7 3-6.2a37 37 0 0 1 7.5-3.3v5q0 1.4-.9 2.4a6 6 0 0 0-1.5 4c0 3 2.7 4.8 5.6 4.8s5.6-1.9 5.6-4.7q0-2.3-1.5-4-.8-1.1-.8-2.5v-5a38 38 0 0 1 7.4 3.3c1.4 1.5-.4 4.4 3 6.2 2 1.1 4.9.1 5.5-1.3 1-2.1 1.8-5.3-5-9.5q-2.3-1.4-6.6-3 5.5-2.3 9.8-4.7l11.5 11.5c1.5-3.5 3-11.1 6.6-15.1 4-4.4 12.3-12.3 12.3-29.6 0-15.2-14-23.6-18.1-25.5m-7.9 19.1c0 8-4.3 15-10.7 18.8a55 55 0 0 1 .4-37.3 22 22 0 0 1 10.3 18.5m-43.6 0c0-7.8 4-14.6 10.2-18.5a55 55 0 0 1 .4 37.3 22 22 0 0 1-10.6-18.8" style="fill:#fafafa"/></svg>