<svg xml:space="preserve" width="16" height="16" viewBox="0 0 128 128"><path d="M73.6 112.3V89.5H54.4v22.8z" style="fill:#e59600"/><radialGradient id="a" cx="64.6" cy="121.2" r="52.5" gradientTransform="matrix(1 0 0 .548 0 57.65)" gradientUnits="userSpaceOnUse"><stop offset=".8" style="stop-color:#212121"/><stop offset="1" style="stop-color:#616161"/></radialGradient><path d="M116.5 124v-3.2c0-9.3-8.4-15.3-15.7-18.4a74 74 0 0 0-24-5.8s-3 19.5-12.6 19.4c-8.4-.1-12-19.4-12-19.4-20.5 2-40.7 9.4-40.7 24.2v3.2z" style="fill:url(#a)"/><path d="m72 124 3.3-18H52.7l3.8 18z" style="fill:#e0e0e0"/><path d="M66.9 113.5h-5.7l-1.8-7.5h9.2zM68 124l-1.2-10.5h-5.6L60 124z" style="fill:#212121"/><path d="m64 106-8.7 7.2-1.6 1.3-3.5-17.8 1.5-.1 2.5-.3s1.8 3 3.7 5.5c3.1 4.1 6 4.2 6 4.2m13.9-9.2-3.5 17.7L64 106s3 0 6.1-4.2l3.7-5.5 2.5.3z" style="fill:#fafafa"/><path d="m55.2 113.2-3.6-16.6-1.5.1-8 1.2-3.2 6.6 7.2 4.3-4.8 6.2 9.3 9h7zm17.6 0 3.6-16.6 1.5.1c3.3.3 8 1 8 1l3.2 6.8-7.2 4.3 4.8 6.2-9.3 9h-7z" style="fill:#424242"/><path d="M92.2 119.8H88q-.3 0-.1.3l.3.2q.5.3 1 .3h3.3q0-.4-.3-.8m-.2-.4-.6-1h-5.3q-.2.1 0 .2v.2q.8.6 1.7.6zm.7 1.7h-2.9v.2q2.6 1 2.7.8h.3zm9.3-1.3h-4.2l-.3.8h3.2l1.1-.3.3-.2q.2-.2 0-.3m1.8-1.4h-5.3l-.6 1h4.2q1 0 1.6-.6l.1-.2zm-3.7 2.7h-2.9l-.1 1h.3s1 0 2.7-.8zm-3.4-3.8-1 .3h-1.5q-.7 0-1-.3-.4-.1-.6.2l-.3.8v.5a5 5 0 0 1 1 2.8l.2.4 1.2.7h.5l1-.7q.3 0 .3-.4c0-1.3.8-2.4 1-2.8q.1-.1 0-.4l-.3-.9q-.1-.3-.5-.2" style="fill:#ffc107"/><path d="M91.3 50.4H36.7c-6 0-10.7 5.2-10.7 11.4s4.8 11.5 10.7 11.5h54.6c6 0 10.7-5.2 10.7-11.5s-4.8-11.4-10.7-11.4" style="fill:#e59600"/><path d="M64 11c-17.4 0-33.5 18.7-33.5 45.5C30.5 83 47 96.3 64 96.3S97.5 83 97.5 56.5C97.5 29.7 81.4 11 64 11" style="fill:#ffca28"/><ellipse cx="47.6" cy="58.8" rx="4.9" ry="5.1" style="fill:#404040"/><ellipse cx="80.4" cy="58.8" rx="4.9" ry="5.1" style="fill:#404040"/><path d="M67.9 68h-7.7q-1.1.5-.7 1.7c.4 1.2 1.7 2.7 4.5 2.7a5 5 0 0 0 4.6-2.7q.3-1.2-.7-1.6" style="fill:#e59600"/><path d="M72.4 76.1a26 26 0 0 1-16.8 0c-1.8-1-3.7.6-3 2.3s6.5 5.4 11.4 5.4 10.6-3.8 11.3-5.4-1-3.4-2.9-2.3" style="fill:#795548"/><path d="M64 6c-45.4.3-36.1 50.2-36.1 50.2l3 7.7c0 .3.6.3.6 0 1-4.4 4.5-19.8 6.3-24.5a6 6 0 0 1 6.7-3.8c4.5.8 11.6 1.8 19.4 1.8h.1c7.9 0 15-1 19.5-1.8a6 6 0 0 1 6.7 3.8c1.8 4.7 5.3 20 6.2 24.4q.3.5.8 0l3-7.6S109.4 6.2 64 6" style="fill:#543930"/><radialGradient id="b" cx="64" cy="80.3" r="37.9" gradientTransform="matrix(1 0 0 -1.128 0 138.3)" gradientUnits="userSpaceOnUse"><stop offset=".8" style="stop-color:#6d4c41;stop-opacity:0"/><stop offset="1" style="stop-color:#6d4c41"/></radialGradient><path d="M100.2 56.2S109.5 6.2 64 6l-6 .4h-.3c-38.3 4.8-29.9 49.8-29.9 49.8l3 7.6q.4.6.7 0c1-4.4 4.5-19.7 6.2-24.4a6 6 0 0 1 6.8-3.8c4.5.8 11.6 1.8 19.4 1.8h.1c7.9 0 15-1 19.5-1.8a6 6 0 0 1 6.7 3.8c1.8 4.7 5.3 20.1 6.3 24.4q.2.6.7 0z" style="fill:url(#b)"/><linearGradient id="c" x1="64.6" x2="64.6" y1="100.2" y2="83" gradientTransform="matrix(1 0 0 -1 0 128)" gradientUnits="userSpaceOnUse"><stop offset="0" style="stop-color:#666"/><stop offset=".1" style="stop-color:#606060"/><stop offset=".5" style="stop-color:#3f3f3f"/><stop offset=".8" style="stop-color:#333"/></linearGradient><path d="M63.8 24.2c-33.3 0-37.4 11.4-37.4 11.4s9 9.8 37.4 10c28.3-.2 39-10.7 39-10.7s-5.8-10.7-39-10.7" style="fill:url(#c)"/><path d="M23.3 34c1.6 6 3.2 8.4 3.2 8.4 1.7-1.9 10.3-11 37.4-11h.1c27.2 0 34.7 9.1 36.4 11 0 0 2.6-2.6 4.3-8.5C108.4 20 90.9 4.6 64 4.6 37.2 4.7 19.6 20.3 23.3 34" style="fill:#303030"/><path d="M97 38.8c-6-3.2-15.7-7-33-7a70 70 0 0 0-33.7 7q-1-1.6-.8-3.6.4-1.6 1.7-2.7a52 52 0 0 1 32.7-9.7c18.3 0 29.1 7 32.7 9.7q1.4 1 1.7 2.7c.2 1.3-.7 2.7-1.3 3.6" style="fill:#212121"/><path d="M57.3 20.3H47.2q-.6.2-.3.8l.7.4q1.3.9 2.7.9h7.8zm-.5-1L55.4 17H42.8q-.5.1-.2.5l.3.3q1.7 1.5 4 1.5zm1.6 4.1h-6.8q-.4.1-.1.4c4 2 6.4 2 6.4 2h.8q0-1.4-.4-2.4m22.5-3H71l-.3-.1-.8 2h7.7q1.6 0 2.7-.8l.7-.5q.4-.4-.2-.6m4.4-3.4H72.5l-1.4 2.3h10q2.2 0 4-1.4 0-.3.3-.4.2-.4-.2-.5m-8.8 6.4h-6.8l-.4 2.3h.8s2.4.2 6.5-1.9q.2-.2-.1-.4m-8.2-9.1q-1.1.6-2.5.7a12 12 0 0 1-6-.7 1 1 0 0 0-1.2.5l-.8 2q-.3.8 0 1.1a13 13 0 0 1 2.5 6.8q0 .6.5.8l2.7 1.6q.5.5 1.2 0c.8-.7 2-1.3 2.6-1.6q.5-.2.5-.8a13 13 0 0 1 2.5-6.8q.3-.4.1-.8l-.8-2.3a1 1 0 0 0-1.3-.5" style="fill:#ffc107"/><radialGradient id="d" cx="64.3" cy="92" r="48.6" gradientTransform="matrix(1 0 0 -.665 0 97.23)" gradientUnits="userSpaceOnUse"><stop offset=".6" style="stop-color:#212121;stop-opacity:0"/><stop offset=".9" style="stop-color:#bfbebe"/></radialGradient><path d="M23.3 34c1.6 6 3.2 8.4 3.2 8.4 1.7-1.9 10.3-11.2 37.5-11.2h.1c27.2 0 34.6 9.3 36.3 11.2 0 0 2.8-2.8 4.3-8.8C108.3 19.5 90 4.7 64.2 4.7c-27 0-44.6 15.6-40.9 29.3" style="opacity:.3;fill:url(#d)"/><path d="M40 50.7c3-4.2 9.8-4.6 13.7-1.5q1 .8 1.7 2c.4 1.3-.9 2.3-2 2l-2.3-.9a11 11 0 0 0-3.6-.5c-1.8 0-3 .2-4.7.9-.7.3-1.3.8-2 .4-1-.4-1.4-1.6-.8-2.4m46 2.4-.8-.4a11 11 0 0 0-8.7-.2c-.9.2-1.9 1-2.8.7-1.3-.4-1.3-1.9-.6-2.8q1.4-1.6 3.3-2.4c3-1.3 6.5-1.1 9.2.5q1.5.9 2.4 2.2c.8 1.3-.4 3-2 2.4" style="fill:#6d4c41"/></svg>