<svg xml:space="preserve" width="16" height="16" viewBox="0 0 128 128"><path d="M82.2 98.4h41.9v16.4H82.2z" style="fill:#455a64"/><circle cx="82.7" cy="110.6" r="13.3" style="fill:#455a64"/><circle cx="82.7" cy="110.6" r="8.9" style="fill:#607d8b"/><path d="M71.3 104.7v6h8.2a3.2 3.2 0 0 0 6.3 0h7.6v-6z" style="fill:#455a64"/><path d="M20.2 87.3H20s-4.7 8.1-7.6 14.6c-1.8 4-3.4 9-4.4 12.1-.4 1.5.6 3 1.9 3h47.6l7.8-9.5H124V87.3z" style="fill:#0277bd"/><path d="m17.8 90.4-5.4 11.4 8-3.4a19 19 0 0 1 9.4-1.4c6 .5 17 1.4 31 1.4h63.3v-6.7z" style="fill:#004f84"/><path d="M113.6 4.5c-23.1.2-29.4 6.7-29.4 6.7L65.2 30a123 123 0 0 0-49.7 20C7 57 2 66 4.8 74.8c2.7 8.8 13 15.6 13 15.6s15.8 3.3 42.7 3.3H124V4.4z" style="fill:#e0e0e0"/><ellipse cx="29.5" cy="70.3" rx="6" ry="6.9" style="fill:#ffca28"/><path d="M32.1 76.3c-2.8 0-5.2-2.7-5.2-6s2.4-6 5.2-6h.5q-1.4-.9-3-1c-3.4 0-6.1 3.2-6.1 7s2.7 7 6 7q1.8 0 3.1-1z" style="fill:#e2a610"/><path d="M96.4 51.8c-4.6 9 .4 11.6 4 11.6h23.7v-30a44 44 0 0 0-27.7 18.4" style="fill:#0277bd"/><path d="M34.6 84.8C10.3 80.6 4.4 69 4 68.8q-.2 3.2 1 7c3 8.7 12.7 14.6 12.7 14.6s15.8 3.3 42.7 3.3H124v-6.1c-25.5.2-72.2.2-89.5-2.8" style="fill:#bdbdbd"/><path d="M63.7 36.8c3.8-.3 10.3.5 10.3 6-2.3 7.4-31.3 10.1-36.3 5.7-2.8-7.1 21.5-11.7 26-11.7" style="fill:#f5f5f5"/><path d="m73.9 103.1-12.1 14h-8.5L65.6 103z" style="fill:#039be5"/><path d="m68.7 28 40.8-.5V18h-31z" style="fill:#bae2fd"/><path d="M98.4 16.3H79l-2.5 2.5 19-.1q1 .3.8 1.3L95 25.8q-.5 1-1.7 1.1h-25l-3 3h44.2q1.6-.1 1.7-1.7V18.1q-.1-1.6-1.7-1.7zm8.8 10.6H98q-1-.2-.8-1.2l1.2-5.5q.3-.8 1.3-.9h7.7q.8.2.9 1V26q0 .8-1 .9" style="fill:#37474f"/><path d="M79.6 17.1 67.7 29" style="fill:none;stroke:#37474f;stroke-width:2;stroke-miterlimit:10"/><path d="m13 86.5 3 2.5V49.8l-3 2.6z" style="fill:#82aec0"/><path d="M13 77.2v9.3l3 2.6V78.9z" style="fill:#546e7a"/></svg>