<svg xml:space="preserve" width="16" height="16" viewBox="0 0 128 128"><path d="m63.3 84.2-10.5 7.6s3 4.3 2.8 5.6c0 .8-9.3 3.4-10.6 5.4s-3 12-3 12-5.8 7.2-2.8 8.8c4 2.1 8.3-4.9 9-6.9s2.4-8.6 3-9c2.3-1.2 8.6-2.5 11.7-5.4 2.7-2.5 4.6-11.7 4.6-11.7L75 96s1.5 15.3 2.2 18c1 3.3 4 6.6 6.3 8.5 3 2.4 6.1-.2 5-2.4-2-4-5.2-8-5.2-8s.6-17.1-.7-20c-.8-1.5-9.1-7.3-9.1-7.3s5.4-.4 8-.2c2.6.1 5.4.1 6 1.1.8 1 .6 18 2.4 19.5 1.5 1.4 3 2.1 5.6 3.5 3.3 1.7 6.2 2 7.1.6 1.2-1.8-.3-4.4-3-6-2.6-1.4-4.8-2.2-4.8-2.2s.4-18.4-.7-20.4c-1-2-3.6-3-10-4s-14.1.2-14.1.2zM39.8 96.4 32 91.8s-6.9 3.2-7 7.6c0 3.8.3 11.7 0 13.5-.2 1.7-3.6 5.7-1.3 7.6 2.7 2.4 7.4-3.4 8-7 .6-3.3.3-9.7.3-12.4 0-2.2 7.7-4.7 7.7-4.7" style="fill:#868686"/><path d="M47.5 49.6S49 40.3 54 34.2s16-10.4 28.8-10.4S103 35 102.4 46s-6.4 17.6-13 23.8a130 130 0 0 1-20.9 14l-2.4 1.4S59.6 106.4 31 96c-16.3-5.8-14.5-23.5-11.5-29.6 3-6 8.4-9.5 17.5-10.6 1.4-.1 10.6-6.2 10.6-6.2" style="fill:#5e6366"/><path d="M67.2 29.3q-1-.1-1.2-1.1v-8.4a1.2 1.2 0 0 1 2.4 0v8.4q0 1-1.2 1.1m6.7-.8q-1.1 0-1.2-1.2v-7.5a1.2 1.2 0 0 1 2.4 0v7.5q-.1 1-1.2 1.2m-11.3 2.3q-.8 0-1-.6l-3.7-6.7q-.3-1 .5-1.6 1-.4 1.6.5l3.6 6.6q.4 1-.5 1.6zm38.5 34.5h-.3L95 63.4q-1-.4-.8-1.5.4-1 1.4-.8l5.8 1.8q1 .3.8 1.4-.2.8-1.1.9M99 72l-.6-.1-7-4.7q-1-.6-.4-1.6.6-.8 1.6-.3l7.1 4.6a1.2 1.2 0 0 1-.6 2.2" style="fill:#858585"/><path d="M33.6 56.4s2-5 5.8-8c5-4 11.3-5.2 14.9-5.2 4 .1 6.3 1.6 7.3 2.3 2.8 1.9 6.5 4.9 8.7 10.3s2.1 14.4 1.8 16.8c-1.1 8.6-3.5 11.8-6 12.8a20 20 0 0 0-4-21 27 27 0 0 0-17.2-8.1c-7-1-11.3.1-11.3 0" style="fill:#868686"/><path d="M29.8 63.5 28.5 71s-4 1.6-4.2 2.7 2.4 4.3 7.3 3.4c5.5-1 8-8 7.1-12.2-.5-2.5-3.2-6.3-7.1-5.4s-1.8 4-1.8 4m20.6 10.9s-4 3.4-4.1 4.6.6 3.7 5.3 4.5c4.6.7 9.2-2.3 10.3-7.8.8-3.7-1.2-10.6-8.4-10.6-5.3 0-3.1 9.3-3.1 9.3" style="fill:#a22918"/><path d="M23 65.4c-1.4 3.4-.8 8.1 1.5 9.9 3.5 2.6 8.9-.4 10.4-5.9 1.9-6.3-.1-10-4-10.4-2-.2-6 1.2-8 6.4M45.4 71c-1.3 3.4-1 9 2.4 10.3 4.8 2 9.6-1.7 10.5-7.2s-2.2-8.6-4.8-9c-2.9-.5-6 .7-8.1 5.9"/><path d="M32.9 78.9c-1.3.5-1.7 2.6 0 5.2 1.9 2.7 7 3.1 9.2 1.2 2.7-2.3 2.3-4 1.1-4.6-2-1-3.2 2-5.6 1.6-2.1-.4-1.7-4.8-4.7-3.5" style="fill:#0a0a0a"/><path d="m46.8 13.6-5-4.5C39.3 6.6 37 4 32.3 4q-8.9 0-9.2 24.5c-.2 12 6.2 29 6.2 29l2.4-.7 1.8-.4s1.6-3.6 3.7-6q1.5-1.7 3.3-3L43 46l5.3-4.4C59 32.9 57 26.7 56.3 24c-1.5-4.8-5.7-7.7-9.5-10.4M45 16q2.3 1.6 4.1 3.3a43 43 0 0 0-11.2 8q.1-3.9 1-7.5c.5-2.5 1.8-5 2.7-6.4zM32 54.4c-1.4-3.9-6-16.3-5.8-25.8C26.5 15.2 28.8 7 32.4 7c3.2 0 4.9 1.7 7 4-1 1.4-2.8 4.7-3.6 8q-1.2 6-1 13.5c.2 4.7 1.7 14.1 2 15.7-.7.7-4.8 6.1-4.8 6.1m14.4-15.2-7 6.4-1.5-14a43 43 0 0 1 13.4-9.9q1 1.5 1.7 3.2c.7 2.6.9 8-6.6 14.3m72-6.1q-1.3-4.4-12.3-5.2a98 98 0 0 0-12.7.2c-4 .3-14.4 1.2-19.8 7.3-5 5.7-4 17.8-3.7 19.7 1.3 2.6 1.8 5.6 2 7.8a34 34 0 0 1-.4 13.4A391 391 0 0 0 101.6 56q18.8-16 16.8-23M94 31l8.4-.2a73 73 0 0 1-6.4 9.8q-2.5 2.8-5.7 5.1a230 230 0 0 0 .3-14.3zm-18 6.4a21 21 0 0 1 11.5-5.5l-.1 6.7L87 48q-4.7 3-8.3 7l-4.8 5.4-.8-3.6c-.5-4.4-1.4-14.8 2.8-19.5m23.7 16.2A338 338 0 0 1 74.2 71c.4-1.8.3-6.4.3-6.4l6.5-7.4q3.4-3.6 8-6.7c3.2-2.3 6.6-4.7 9.2-7.8 2.9-3.4 6.3-9.4 7.5-11.7 5.3.4 9.3 1.4 9.7 3 .8 2.5-3 9-15.8 19.7" style="opacity:.8;fill:#6eadb7"/><path d="M32 54.4c-1.4-3.9-5.9-16.3-5.8-25.8C26.6 15.2 28.9 7 32.5 7c3.2 0 4.9 1.7 7 4-1 1.4-2.8 4.7-3.6 8q-1.2 6-1 13.5c.2 4.7 1.7 14.1 2 15.7-.7.7-4.8 6.1-4.8 6.1M45 16q2.3 1.6 4.1 3.3a43 43 0 0 0-11.2 8q.1-3.9 1-7.5c.5-2.5 1.8-5 2.7-6.4zm1.4 23.2-7 6.4-1.5-14a43 43 0 0 1 13.4-9.9q1 1.5 1.7 3.2c.7 2.6.9 8-6.6 14.3m29.5-1.8a21 21 0 0 1 11.5-5.5l-.1 6.7L87 48q-4.7 3-8.3 7l-4.8 5.4a17 17 0 0 1-.8-3.6c-.5-4.7-1.4-14.8 2.8-19.5m18-6.3 8.4-.2a73 73 0 0 1-6.4 9.8q-2.5 2.8-5.7 5.1a230 230 0 0 0 .3-14.3zm5.7 22.6A338 338 0 0 1 74.2 71c.4-1.8.3-6.4.3-6.4l6.5-7.4q3.4-3.6 8-6.7c3.2-2.3 6.6-4.7 9.2-7.8 2.9-3.4 6.3-9.4 7.5-11.7 5.3.4 9.3 1.4 9.7 3 .8 2.5-3 9-15.8 19.7" style="opacity:.5;fill:#7bb1ba"/></svg>