<svg xml:space="preserve" width="16" height="16" viewBox="0 0 128 128"><radialGradient id="a" cx="27.5" cy="32.2" r="59.8" gradientTransform="matrix(1 .005 -.004 .704 .13 9.4)" gradientUnits="userSpaceOnUse"><stop offset=".3" style="stop-color:#fff7cf"/><stop offset="1" style="stop-color:#ffdfa7"/></radialGradient><path d="M116.6 124.3H11.3a7.5 7.5 0 0 1-7.5-7.6V11.4C3.8 7.3 7.2 4 11.3 4h105.3c4.2 0 7.5 3.4 7.5 7.5v105.3c0 4.2-3.3 7.6-7.5 7.6" style="fill:url(#a)"/><path d="M124.2 82.7v34c0 4.2-3.4 7.6-7.6 7.6H11.3a7.5 7.5 0 0 1-7.5-7.6V80z" style="fill:#f8ab59"/><path d="M124.2 106v10.7c0 4.2-3.4 7.6-7.6 7.6H78.5s-10.2-3.6-13-4-15.1-2.4-15.6-4.4 17-3.9 20.3-4.2 25-2.6 26.7-3 6-1.8 11-2.1 16.3-.5 16.3-.5" style="fill:#f08846"/><path d="M92.8 124.3h23.8c4.2 0 7.5-3.4 7.5-7.6v-2.3s-19.2-1.8-24.6-2.1-18.4-.5-17.5 4.6c.7 3.5 10.8 7.4 10.8 7.4" style="fill:#c76933"/><path d="m87.1 83.5 37 .7V81l-37.5-.4zM3.8 89.7a298 298 0 0 0 25.4 1.4c2.4-.1 16.9-1.5 22.4-1.9s10.2.8 11.5.9 4.7 1.2 3.8 1.7-6.3 2.3-9.5 2.4-9.3 1.2-13.5 1.5-16.7.8-22.8 1-17.3-.3-17.3-.3zM17 105.1c-.5 1 4.1 2.1 11.6 2.3s13.7-1.2 14-2.7c.3-1.4-9.2-2.5-13.2-2.5-4.3 0-11.5 1.2-12.4 3M124.1 88s-2.7.4-5 1.2-6.7 1.8-6.6 2.4 4.2 1.6 6.2 2.2 5.4.6 5.4.6zM3.8 76.1v7.3s12.1 1 20 1.1 27.3-.6 27.3-.6-7-8.9-7.3-9-12.6-10.3-14-10.3-2.9 1.4-4.5 1.9-8 3-10.8 4.4-4.6 3-6.5 3.8z" style="fill:#ef8848"/><path d="M31.8 71.8c2.8 3.6 6 4.5 8 6.3 2 1.9 8.4 6 8.4 6l45.7-.3s-4.6-6.2-9.4-7.1-8-.3-8-.3-7-.8-12.1-2c-5-1-9-2.2-13-2.7S40.8 69.4 38 68l-8-3.5s.2 1.4.6 2.5-.7 2.2 1.2 4.7" style="fill:#c76831"/><path d="M15.6 31.6c-.2 8.3 5.9 12.5 12.5 12.8 5.1.2 12-3.6 12.1-11.8.2-8.2-5-12.5-12-13a12 12 0 0 0-12.6 12" style="fill:#ffca29"/><path d="M72.9 56.1c-3.5.2-7.3 3-7.6 9.2-.1 3.6.8 9 1 10 0 2.6 0 10.3 1.6 14q2.4 5.8 5 6.8l11.9 6 .7 11.7c0 2 3 4.1 8 3.7 5.2-.5 7.5-13 7.5-13.6l.4-16.3s7 2 10.4-1.6c3.4-3.7 8.3-26.3 7.2-29.3s-3.6-4.8-6.3-4.6c-2.7.1-5.1 1.6-5.8 6s.4 11.2.4 13-.5 5.8-2.4 6.4-3.4-.3-3.4-.3 1.7-32 .8-35.5c-.9-3.3-4.4-6.5-9.3-6s-9.4 3.8-10 11.7.4 11.1.5 15.7l.8 26.9s-5 2.6-5.8-2c-.9-4.5 2.2-23.5 1.3-26.5s-3.1-5.6-6.9-5.4" style="fill:#8bc12d"/><path d="M75 59.5c-.2.2 0 13.3.2 17.7.2 4.5.4 11.6 4 14.8 2.9 2.4 5.1 1.9 5.1 1.9v-5.6s-1.8 0-3.2-1.3c-1.9-1.8-1.7-7.5-1.3-11a77 77 0 0 0 .3-13.3c-.3-3-2.4-5.3-5.1-3.2" style="fill:#418c1d"/><path d="m79.8 98.9-.6-.3a40 40 0 0 1-6.5-7.5c-2.3-4.2-2.3-10-2.3-12.2l-.3-4-.4-5.3a21 21 0 0 1 1-8c.2-.5.6-1.4 1-1.3.5.2.5 1.1.4 1.6-.3 1.2-1 3.7-.7 7.4q0 3 .3 5.4L72 79c0 2 .3 7.6 2.4 11.4 1.5 2.6 6.2 7 6.3 7 .3.3 0 1-.4 1.3q-.2.3-.5.3M102 82.2a1 1 0 0 1-.8-.8q0-.7.8-.8s4.2.1 6.3-1.7c1.5-1.4 2-5.7 2-8.7V58.4c0-.5-.4-2.5.4-2.6q.7.2 1 1.4c.4 2 .3 6.7.2 10.4V70c0 3.6-.3 8.4-2.4 10.2-2.5 2.2-7.2 1.8-7.4 1.9m-12.5 34.3c-.5 0-.5-.7-1-1-.7-.3-.9-17.4-1-25l-.7-17.8-.4-9.4-.2-3.2q-.4-7.9.4-13.1c.7-4.1 1.3-5.1 2-6.4s1.8-2.1 2.3-1.9-.1 1.3-.5 2.4c-.3 1.1-.8 2.3-1.4 6-.6 3.2-.8 8.5-.6 13.3v2.9l.6 9.1.6 18 .9 25q0 1-1 1.1m4.9-1c-.5 0-1.4-.8-1.4-1.4V82c0-3.1-.4-9.8-.6-16l-.2-10c-.3-7.4.3-11.2.7-13.8 0-.5.4-3.7 1.3-3.5s.6 1.3.6 3.1-.4 10.4-.3 15.8l.1 8 .3 16.5.5 32.3q0 .9-1 1" style="fill:#5f9a22"/><path d="m84.6 97.3.2 5.5s-4.3-.3-7.7-2.2a19 19 0 0 1-7.7-8c-.2-.6 5.5 2.3 8.6 3.4s6.5 1.3 6.5 1.3" style="fill:#418c1d"/><path d="M85.4 113.2c0 .9 0 4 .7 5 .9 1.4 1.8 1.4 4 1.7 2 .3 7.1.2 9-.3 1.3-.3 2.7-1.8 3-3.8s0-13 0-16.6c.2-3.7.1-8 .1-8s5.9 0 10.5-3.6 6.4-10.6 7-14.7.5-15.1-1.1-17.2c-1.2-1.5-3.3-.9-3.3 1 0 1.1.3 12.8-.7 17.7-1 5-1.7 7.6-4.8 9.5s-7.5 1.7-7.5 1.7.3-19.2.8-26.2 1-15.3-1.2-19.2-4.8-3.4-4.7-1.6c0 .4 1 2.2 1.3 6.3s.8 12.2.5 18.7c-.2 6.5-1 18-1.1 28.6s2 19.6-2.4 21.5c-3.3 1.4-10-.5-10-.5" style="fill:#378016"/></svg>