<svg xml:space="preserve" width="16" height="16" viewBox="0 0 128 128"><path d="M84.1 76.2h6.1V87h-6.1z" style="fill:#c62828"/><path d="m31.8 117.2-26.4-8.6a2.2 2.2 0 0 1-1.4-2.8l.7-2.1a2.2 2.2 0 0 1 2.8-1.5l26.4 8.6q1.8.8 1.4 2.8l-.7 2.2a2.2 2.2 0 0 1-2.8 1.4" style="fill:#424242"/><path d="M40.3 104.2a10 10 0 1 0 0 19.8 10 10 0 0 0 0-19.8" style="fill:#78909c"/><path d="M107.1 25.7c-2.7 0-2.7 3-2.7 4l-.4 44.2-49.5-2.7c-14.2 0-20.8 5.5-25.9 21.5l-7.2 21a3 3 0 0 0 1.9 4 3 3 0 0 0 3.8-2l5.4-15.6a7 7 0 0 1 4.8 6.6v7.4a3 3 0 0 0 6 0v-7.4a13 13 0 0 0-8.8-12.3c4.3-13.4 8.6-17 19.8-17l49.8 2.8c1.9 0 3-.2 4-1.5a7 7 0 0 0 1.2-3.7l.6-45.8c0-3-1.8-3.5-2.8-3.5" style="fill:#f44336"/><path d="M40.2 117.4a3 3 0 0 1-3-2.5l-.5-5.1q0-1.3 1.5-1.5H42q1.5.1 1.5 1.4l-.2 5.2c0 1.3-1.6 2.5-3 2.5m59.5-55.6-51.6-1.5c-2.6 0-4.9 1-5.7 6.2 0 0-.2.7.1 3.2.3 2.6 2 3.7 4.2 3.8l58.9 2.9zm-6.3-32c-1 4-3.3 25.4-1.6 31.3s13.8 15.2 13.8 15.2l.4-46.1c0-3.7-2-4.3-5.4-4.3h-2.4c-3.5 0-4.1 1.6-4.8 3.9" style="fill:#424242"/><path d="M93.5 29.8q-.7 2.9-1 5.8l-1 9.5 1.3-.2 2.5-.6.6-.1.5-.1a2 2 0 0 0 1-1l.4-1.7.5-6.3q.3-3.3 2-6 .8-.7 1.2-1.8.2-.8-.4-1.3l-.6-.3-.5.1h-1.8c-3.5.1-4 1.7-4.7 4" style="fill:#757575"/><path d="M72.5 74.7a17 17 0 0 1 15.2-6.6 20 20 0 0 1 14.8 8.1l5.1.2.4-21.1c-3.8-6.5-45-17.6-59 18.3z" style="fill:#212121"/><path d="m105.7 77.4 2.7-.9-.4-24.1c-4-6.8-48.5-19.1-60.8 23.8h8l12.7.7c3-6.8 11.2-11.6 20-11.2a21 21 0 0 1 17.8 11.7" style="fill:#f44336"/><radialGradient id="a" cx="83.2" cy="87" r="1.9" gradientTransform="translate(4)" gradientUnits="userSpaceOnUse"><stop offset="0" style="stop-color:#78909c"/><stop offset=".6" style="stop-color:#617a86"/><stop offset="1" style="stop-color:#546e7a"/></radialGradient><path d="M87.2 89a2 2 0 1 1 0-4 2 2 0 0 1 0 4" style="fill:url(#a)"/><path d="M87.2 85.6a1.4 1.4 0 1 1 0 2.9 1.4 1.4 0 0 1 0-3m0-1a2.4 2.4 0 1 0 0 5 2.4 2.4 0 0 0 0-5" style="fill:#82aec0"/><path d="M87.2 55.6v62.8m22.2-53.6L65 109.2m44.4 0L65 64.8M55.8 87h62.8" style="fill:none;stroke:#82aec0;stroke-width:2;stroke-linecap:round;stroke-miterlimit:10"/><path d="M87.2 50a37 37 0 1 0 0 74 37 37 0 0 0 0-74m0 67a30 30 0 1 1 0-60 30 30 0 0 1 0 60" style="fill:#78909c"/><path d="M87.2 62.1a25 25 0 1 1 0 49.8 25 25 0 0 1 0-49.8m0-2a26.9 26.9 0 1 0 0 53.8 26.9 26.9 0 0 0 0-53.8" style="fill:#546e7a"/><circle cx="87.2" cy="87" r="6.2" style="fill:#757575"/><path d="M57.7 70.8c4.5-9 13.4-15.7 23.3-17.6" style="opacity:.8;fill:none;stroke:#94d1e0;stroke-width:2;stroke-linecap:round;stroke-miterlimit:10"/><path d="M43.5 65q1.8-.4 3.7-.3 1.3 0 2.5-.4l1-.7.3-.4.5-.7 1.1-1.9.1-.2s-3.8-.4-6-.1a4 4 0 0 0-2.9 1.7l-.5.9-.6 2v.2h.4z" style="fill:#757575"/><path d="m7.3 103.1 14.3 4.6" style="fill:none;stroke:#757575;stroke-linecap:round;stroke-miterlimit:10"/><path d="M106 50.5s2.2 1 3.5 2.7l.1-5.3c-1.4-1.4-3.6-1.8-3.6-1.8zm-58 23L47 78s-1.9.2-3.4-1c-2.4-2-2.2-3.2-2.2-3.2.7-.5 2.7-1.2 2.7-1.2l2 .8c1 .3 2 .1 2 .1" style="fill:#c62828"/></svg>