<svg xml:space="preserve" width="16" height="16" viewBox="0 0 128 128"><path d="M27.9 109.6h-19S3.8 55 8.9 55s15 4.2 15 4.2a6 6 0 0 1 4 5.7z" style="fill:#a65f3e"/><path d="M122 105.4H13V59a4 4 0 0 0-8.1 0v64.9h6l4.8-9.6h96.7l4.8 9.6h6v-17.2q-.1-1.2-1.3-1.3" style="fill:#c87d5e"/><path d="M13.8 96H23V83q-4-.1-7.5 2c-3.4 2.6-2.5 7-2.5 10.6zm106.7 12.4H16.3c-1.5 0-3-.7-3-2.3l107.8-.7c1.2 0 2 0 2 1.2 0 1-.1 1.8-2.6 1.8" style="fill:#784d30"/><path d="M110.5 107H14.9c-1.5 0-2-1.4-2-3v-8c0-1.1 1-2 2-2h94.7c2 0 3.6 1.7 3.6 4v6c0 1.6-1.2 3-2.7 3" style="fill:#e0f7fa"/><path d="M112.4 114.3h4.8v9.6zm-96.7 0h-4.8v9.6z" style="fill:#784d30"/><path d="M27.3 94C16 94 14 88 14 88s3.6-6.6 13.2-6.6 14.5 5.9 14.8 7.9c.6 4.2-3.2 4.7-14.6 4.7" style="fill:#e0f7fa"/><path d="M14 88c.7 2 3.8 6 13.3 6H34l4.4-5.6s-3 1.5-11.3 1.7c-5.7.2-10.6-.7-13.2-2.1" style="fill:#94d1e0"/><path d="M118.9 107c2.9 0 4.5-2.8 4-6-2.2-10.5-5.3-16-13.4-16H53.8c-8 0-14.8 4-16.8 12a35 35 0 0 0-1.2 10z" style="fill:#3daae0"/><path d="M120.4 107.6c2.7 0 2.7-2.3 2.5-4.7-1-8-7.7-9.4-11.3-9.4H44.8s-1.5 2.2-2.2 7c-.7 4.9 0 7 0 7z" style="fill:#188ad6"/><path d="M44.8 97c2-8 9-12 17-12h-12c-8 0-15 4-17 12-1.4 5.7 10 8 12 0" style="fill:#b0e0ff"/><path d="M43.8 107.6c0-3.8.3-11.9 3.6-16 0 0-3.1-.7-6.6-.7-4.2 0-5.4.4-5.4.4a13 13 0 0 0-2.6 5.6q-.7 3.1-1 8.5a2 2 0 0 0 2 2.2z" style="fill:#7dbbe3"/></svg>