<svg xmlns:xlink="http://www.w3.org/1999/xlink" xml:space="preserve" width="16" height="16" viewBox="0 0 128 128"><linearGradient id="a" x1="60.5" x2="71.3" y1="44.7" y2="73.5" gradientTransform="matrix(1 0 0 -1 0 128)" gradientUnits="userSpaceOnUse"><stop offset="0" style="stop-color:#ffd29c"/><stop offset=".5" style="stop-color:#f9ddbd"/></linearGradient><path d="M109 91.3c0 .2-10.1 11.9-10.1 11.9l-7.2-5.7 5-7.6.5-.7-1-.4C94 88 88 85.5 85.2 85c-3.5-.8-4.3 1.1-5.6 4.2-2.7 6.7-6.2 16.3-6.2 16.3-12.5-1.4-25.4-3.7-38-4.3C39.6 94.3 44.8 79 45.5 77c1.4-3.6-1.5-4.2-6.3-5.6-3.4-1-7.7-2-11.7-3.7-5.3-2.2-5.3-7.7-4.3-10.5 2.1-6 8.9-15.3 9.2-16.1 1.2-3-2.3-3-4.2-7-.8-1.9 0-3.6 1-5.3 1.2-2 3.8-3 6.2-3.3q3.8-.7 7.1.7.8.2 1.5.8.4.5 1 .9c.5.2 1 0 1.7.3q.6.5 1 1.3c.2 1 .8 1.6.5 2.4-.8 2.7-3 4.7-4.6 7.6q-1.4 2.8-2.4 5.6-2.3 5-4.2 10.1l-.2.7.7.2 20 5c7.3 1.8 14 3.4 20.9 6 19.7 7.5 25.2 11.2 28 12.8 4 2.3 6.3 6.8 2.7 11.4" style="fill:url(#a)"/><path d="m37.5 56-4.6 2.7h-.2v-.2l4.4-3.3-.3.7z" style="fill:#edbd82"/><path d="M66.8 72.6a5 5 0 0 1-4.1-6.1l1-4.7 10.1 2-.9 4.7a5 5 0 0 1-6.1 4" style="fill:#edc391"/><circle cx="35.9" cy="20" r="16" style="fill:#ff9100"/><radialGradient id="b" cx="31.2" cy="113.1" r="17.7" gradientTransform="matrix(1 0 0 -1 0 128)" gradientUnits="userSpaceOnUse"><stop offset=".2" style="stop-color:#ffa726"/><stop offset=".8" style="stop-color:#b33f00"/></radialGradient><circle cx="35.9" cy="20" r="16" style="opacity:.4;fill:url(#b)"/><defs><circle id="c" cx="35.9" cy="20" r="16"/></defs><clipPath id="d"><use xlink:href="#c" style="overflow:visible"/></clipPath><g style="clip-path:url(#d)"><path d="M36 20a19 19 0 0 1 .5-16.3" style="fill:none;stroke:#6d4c41;stroke-width:.7869"/><path d="M35 7.5h1c6.5 0 12.2 3.2 15.7 8.1m-17.2-1.4H36a19 19 0 0 1 15.9 8.4" style="fill:none;stroke:#5d4037;stroke-width:.7869"/><path d="M35.9 20a19 19 0 0 1 13.9 8.7" style="fill:none;stroke:#4e342e;stroke-width:.7869"/><path d="m47.2 25.5-.5.9a19 19 0 0 1-14.9 9.5" style="fill:none;stroke:#3e2723;stroke-width:.7869"/><path d="m41.7 21.6-.8 1.4a19 19 0 0 1-15.2 9.6M36 20a19 19 0 0 1-14.5 7.7" style="fill:none;stroke:#4e342e;stroke-width:.7869"/><path d="m25.5 27-.5-.8a19 19 0 0 1-.8-17.6" style="fill:none;stroke:#6d4c41;stroke-width:.7869"/><path d="m31.6 24.2-.8-1.3a19 19 0 0 1-.6-18" style="fill:none;stroke:#795548;stroke-width:.7869"/></g><path d="M112 92.2c-6.6 0-10 7.2-16 7.2s-9.4-7.2-16-7.2-10 7.2-16 7.2-9.4-7.2-16-7.2-10 7.2-16 7.2-9.4-7.2-16-7.2c-5 0-8.1 4.1-12 6.1V124h120V98.3c-3.9-2-7-6.1-12-6.1" style="fill:#039be5"/><path d="M112 111.9c-6.6 0-10-7.2-16-7.2s-9.4 7.2-16 7.2-10-7.2-16-7.2-9.4 7.2-16 7.2-10-7.2-16-7.2-9.4 7.2-16 7.2c-5 0-8.1-4.1-12-6.1V124h120v-18.2c-3.9 2-7 6.1-12 6.1" style="fill:#29b6f6"/><path d="M101.4 85.7 96.8 90l.4-.7-1-.4z" style="fill:#edbd82"/><path d="M76.2 25.2c-8.4-1.6-18 5.8-20.5 18.7S60 64.7 68.1 66.3s17.4-3.2 20-16c2.5-13-3.5-23.5-12-25.1" style="fill:#f9ddbd"/><ellipse cx="63.6" cy="47.6" rx="2.5" ry="2.4" style="fill:#312d2d" transform="rotate(-79 63.6 47.6)"/><ellipse cx="79.4" cy="50.7" rx="2.5" ry="2.4" style="fill:#312d2d" transform="rotate(-79 79.44 50.71)"/><path d="M73.4 58.9c-1.7.6-6.8-.4-8.1-1.6-.8-.7-1.8-.1-1.6.8s2.6 3.2 5 3.6 5.4-.8 5.9-1.5-.2-1.7-1.2-1.4" style="fill:#444"/><path d="m72.2 53.8-3.5-.7h-.1q-.5 0-.5.7c0 .4.6 1.5 2 1.7 1.3.3 2.2-.5 2.4-.8q.2-.6-.2-.9" style="fill:#dba689"/><radialGradient id="e" cx="72.3" cy="87.7" r="19.8" gradientTransform="matrix(1 0 0 -1 0 128)" gradientUnits="userSpaceOnUse"><stop offset="0" style="stop-color:#00bfa5"/><stop offset="1" style="stop-color:#00ab94"/></radialGradient><path d="M90.6 51.7c.4.7.7 1.4-.4 3.4a9 9 0 0 1-5.9 4.8q-.4 0-.5-.2V59s3.3-6.5.8-12.2q-2.5-5.4-11.2-7.6-8.2-2-12.6 1.6c-5 4.2-4.6 12.4-4.6 12.5q0 .3-.3.4h-.5c-.2 0-3.8-1.9-3-8 .2-1.5.5-2 1-2.4l.3-.2q.3-.1.2-.4C54 35 57.2 28 62.3 24.1q6.4-5 15.4-2.8 8.5 2 12 8.5c4.5 8 1.8 17.5.9 20.2q-.5 1.3 0 1.6" style="fill:url(#e)"/><path d="M55.4 48.4s-.3-1.7-.8-3q-.7-1.6-1.3-2l.4-.2q.3 0 .2-.4.4 0 1.4 1.7c.7 1.3.1 4 .1 4m30.8 7s1.4-2 2.6-3 1.8-.7 1.8-.7l-.2-.6v-.5q0-.2-1.8.7c-2 1.3-2.4 4-2.4 4" style="fill:#009984"/><path d="M84 47s-.8-1.9-3.3-2.4-4 1-4 1l-.3.4q0 .8.6 1h.4q2.6-.4 2.8-.2c.2.2 1.2.3 2.6 1.2l.3.1q.7 0 1-.6zm-15.9-3s-.7-2-3.3-2.5-4 1-4 1l-.2.4q0 .8.6 1h.3q2.7-.4 2.9-.2c.2.2 1.2.3 2.6 1.2l.3.1q.7 0 .9-.6z" style="fill:#454140"/><linearGradient id="f" x1="222.7" x2="222.4" y1="-1980" y2="-1991.1" gradientTransform="rotate(215.4 281.4 -989.3)scale(-.885 1)" gradientUnits="userSpaceOnUse"><stop offset=".5" style="stop-color:#f9ddbd"/><stop offset="1" style="stop-color:#ffd29c"/></linearGradient><path d="m92 105.6-2.1-1.5a6 6 0 0 1-1.4-8.3l.2-.4A6 6 0 0 1 97 94l2.1 1.5a6 6 0 0 1 1.4 8.3l-.2.4a6 6 0 0 1-8.3 1.4" style="fill:url(#f)"/></svg>