<svg xml:space="preserve" width="16" height="16" viewBox="0 0 128 128"><path d="M64 16.8c-11.4-.3-20.6 4.7-20.6 4.7s-11.6-17.4-28-5c-16.9 12.6-1 30.7-1 30.7S3 61.4 4 79.3c1 19.3 11.2 42 61.4 41.2 50-.8 58.8-22.7 58.7-41.7-.1-18.3-8.8-29-8.8-29s15.7-17 2.6-30.4-28 4.6-28 4.6-9.3-6.7-25.8-7.2" style="fill:#4d4d4d"/><path d="M63.5 20.5c-9.5 0-21 2-36.7 17.2s-23 33-18.4 50.5 18.7 29.4 56.7 29 50.7-11.7 54.8-31a49 49 0 0 0-5.4-31.5c-8.3-15.5-27-34.2-51-34.2" style="fill:#fff"/><path d="M53.5 49.9c-7.7-4.8-15.8.2-22 8.5-5.2 7.2-10.6 9.6-11.1 17-.4 6.4 4.3 15.4 14 15.4 9 0 11-8.5 15.1-14.2S65.2 57 53.5 50m19 1.6c-5 4.6-4 12.2-.3 17S78.3 76 80 79c2.1 3.9 9.6 18.3 21.7 8.8 12.3-9.7 3-21.5.2-24.4a318 318 0 0 0-13-13.2c-2.6-2.1-9-5.2-16.3 1.4" style="fill:#4d4d4d"/><path d="M93.6 67c.3 5-1.4 9.3-5.8 9.7-4.3.4-8.2-3.4-9-8.3-.7-5 1.7-9 6.4-9.2 4.3-.2 8 2 8.4 7.8M47 73.1c-2.3 3.6-7.4 4.3-11.1 1.5-2.7-2-3.2-7.6-.9-11.7 2.5-4.3 7.7-5 11.5-2.2 3 2.1 3.8 7.6.5 12.4" style="fill:#040301"/><path d="M81.3 63.5c-1 2.6-.4 6 1.6 5.9 2.5-.1 1.7-2.3 2.5-3.3s2.4-3.2.8-4.4c-2-1.6-4.2.2-4.9 1.8M37.2 63c-1.8 2.7-1.4 5.1-.4 6 1.6 1.3 3.5-.5 4.7-2.8s2.7-4.1.9-5.5c-1.4-1-4 .4-5.2 2.2" style="fill:#e0e0e0"/><path d="M63.7 81.4c-5.7 0-12.3 3.9-12.4 5.7-.1 2 2.8 4 4.8 5.6 1.4 1 4.7 2.9 4.4 3.8-.3 1-2.5 2-4.8 2.3-3.1.3-7.2-2.4-8.2-3.1-1.2-.9-4 .3-2.6 2.8 1.2 2.4 3.7 4 6.3 4.7 2.8.7 4.4.6 4.4.6s2.7 3.9 7.9 4.3c5.8.4 8.6-4.7 8.6-4.7s3.5.5 5.8-.3a9 9 0 0 0 5.1-4.7c.9-1.8-.3-4.4-3.3-2.5-2.3 1.5-3.5 3.2-8.1 3-2.9-.2-4-2-4-2.7s3.4-2.9 5.5-4.4c2-1.5 3.6-3.1 3.7-4.6s-5.7-5.9-13.1-5.8" style="fill:#030200"/><path d="M64 99.4s-1.4 1.7-2 2c-.5.5-2.4 1.5-2.4 1.5s1.5 1.6 3.3 1.9c3.6.4 5.1-1.7 5.1-1.7l-1.7-1.3c-1-.6-2.3-2.4-2.3-2.4" style="fill:#fda4a5"/></svg>