<svg xml:space="preserve" width="16" height="16" viewBox="0 0 128 128"><path d="m34.8 39.4-10.1 5.8-4.3 10.7s1.3 16 4.9 20.6c5.2 6.6 11 13.2 31.2 17.7 5.8 1.3 5.3 4.3.5 5.9-3.2 1-10.9 1-10.9 1-8.1 3-9.3 6.2-9.3 8.7s.8 9.2 15 13c11.1 3 26.2 1.5 32.8-2.6s7-8.8 7-10.6a9 9 0 0 0-4.7-6.9c-1.5-.7-5.7 1-9.2.1-4-1.1-7.1-5-7.1-5s0-3 .5-3.3c.6-.4 13-1.2 22.4-8.5 9.2-7.3 14.3-18 14.3-27s-2.6-11-2.6-11l-10.4-7z" style="fill:#6fa3b0"/><path d="M65.3 94.9s-.2 4.3.2 5.9c.3 1.6 2.1 4.3 1.6 5.6-.6 1.4-3.3 1.9-7.1 1.3-6.2-1-3.7-4.4-4.6-3.4-1.7 2.1 2.3 6 8.5 5.8 5.6-.1 8.5-2.3 8.6-3.8 0-1.6-1.2-2.5-1.6-4.2s-.3-4.3-.3-4.3 20 1.8 20 10.3S81 122 63.4 121.6c-11.6-.2-26.3-3.9-26.2-12.5s19.6-11.2 19.6-11.2h.8v-3.5s1.7.4 3.8.4z" style="fill:#b9ced3"/><path d="m48.6 73.3-19.3-6.7-8-13.6-1.4-4s-3.3 8.5.2 18.8 17.4 24 42.5 24c24.4 0 35.3-12 38.5-17 6.2-10.3 6-20.3 6-20.3l-4 5.6-7.7 7.4-11 5-18.3 3z" style="fill:#bbced3"/><path d="M23.3 67.4c-1.2.5 1 6.8 7.6 12.3S44.8 88 45.6 87s-8.1-5.9-11.5-8.9c-5.6-4.9-9.3-11.4-10.8-10.7m32.1 37.1c.3 2.4 2.9 2.6 3.5 2.2s1.4-4 1.4-6.2-.7-4.8-1.7-5c-1-.1-.5 4.1-1 5.6-.6 1.4-2.4 2.5-2.2 3.4" style="fill:#fffffd"/><path d="M64.2 77.1h-1.4c-23-.3-33.2-7.2-38.2-12.5A17 17 0 0 1 19.3 52c.5-11.5 17.5-15.3 18.3-15.5l.8 3.1c-.2 0-14.3 4.6-14.6 13.2-.2 3.4 1 6 3.8 8.9 6.3 6.7 19.3 11 36.2 11.2 27 .4 38.7-12 39.2-18.8.4-6.1-7.6-12.3-15.3-14.4l.4-3.3c9.2 2.5 19.2 8.9 19.1 17.3 0 10.5-14 23.4-43 23.4" style="fill:#dfeef5"/><path d="m42.3 36.2-4.7.3s-1.4-3.4.4-5.4 4.4-1.7 4.4-1.7-.8-8.4 4.1-15.7S59 1.7 70.7 4.4a24 24 0 0 1 16.4 15.2l-2.3 12.1-22.4 9.8z" style="fill:#fea9a6"/><path d="M54.8 37.4s3.7 1.1 7.3-1.2c2.3-1.5 2.8-3.3 2.8-3.3s7.5 1 12.7-2.7c5.3-3.9 8.7-12.6 8.7-12.6s1.7 3.5 2.3 8.3c.4 3.5-.2 5.7-.2 5.7s3-.8 4.6 3c1.6 3.5-.3 6.2-.3 6.2L57 44.5zm19.7-17.8c-.9-.3-1.5.6-1.6 1.3s0 1.7 1 1.9 1.5-.8 1.6-1.6q0-1.2-1-1.6m-16.8-.5c-.9-.2-1.6.6-1.7 1.4s0 1.9 1.1 2 1.7-.9 1.7-1.7q0-1.2-1.1-1.7m23.5-5.3c-.8-.4-1.5.1-1.9.6s-.6 1.5.2 2q1.2.4 2-.6.5-1.3-.3-2M62 11.9q-1-.9-2 .3-.8 1.2 0 2c.7.7 1.7 0 2-.5q.7-1.1 0-1.8M51.8 23.8q-1.2-.6-2 .7c-.5.8-.2 1.8.4 2 .9.6 1.9-.3 2-1q.4-1-.4-1.7" style="fill:#fe7c84"/><path d="M68.1 42.4a20 20 0 0 1 15.7-5.7 19 19 0 0 1 15.6 9l-.6 9.6-8 10.2s-10.2 3-10.6 3l-14.1 1.2-2.8-23.2z" style="fill:#ffebca"/><path d="M67.7 67.7c0 .1 16.3 0 24.2-8.7 8.2-9 6.2-15.3 6.3-15.1s2.2 2.5 3.4 7.4c.7 3.1.5 6.1.5 6.1s-3.4 7.5-14.2 11.7c-12.7 5-24.8 3.7-24.8 3.7zM86.6 51q-1.2-.6-2.2.8-.8 1.4.4 2.3 1.4.6 2.2-1c.3-.6.5-1.6-.4-2.1" style="fill:#eac183"/><path d="m62.3 68.2 8-6.4-.1-12 3.7-5.9s-.4-3.4-3.2-4.7-6 1-6 1S57 31.6 45 33.4a22 22 0 0 0-18.3 13.3c-1.7 4-1 10.9-1 10.9l6.2 6.1s16.2 4.7 18.5 5.1 11.8-.6 11.8-.6" style="fill:#865c50"/><path d="M48.3 62.6s8 4.2 13.7 1.7 7-7.6 6.7-10c-.3-2.3-.9-4.4-.9-4.4s2.4-1.7 3.7-3.6 1.4-5.1 1.4-5.1 2.2 2.9 1.6 7.5c-.6 3.6-2.8 5.4-2.8 5.4s3.1 3 1.7 8.4c-1.4 5-6.1 6.5-6.1 6.5s.5 1 .4 2l-.5 1.9s-15.6.8-27-3.5C28.6 64.8 26 59.7 26 59.7l-.2-2.8c.1.2 5.6 6 12.4 6.9s10.1-1.2 10.1-1.2m-7.9-11.1c-.9-.8-2.1-.3-2.7.5-.4.6-.8 1.8 0 2.5 1 .9 2.1.1 2.6-.5s.8-1.9 0-2.5m1.7-9.8c-.9 1.2 0 2.3.5 2.6q1.4.5 2.3-1c.9-1.5.5-1.8-.5-2.4s-1.9.1-2.4.8M54.4 52c-1.1-.6-2 .3-2.3 1s-.6 2 .6 2.5 2.1-.5 2.3-1c.4-.8.4-2-.6-2.5" style="fill:#6c4d42"/></svg>