<svg xml:space="preserve" width="16" height="16" viewBox="0 0 128 128"><path d="M5.2 40s.2 3 2 3.5 9.5-2.8 19.2-2.9 16.1 1.6 16.1 1.6l6.9-7-40.4 1zm22.5 31s-2 15 7.9 28c6 7.6 15.9 14 27.5 14 16 .3 26.3-7.5 31.7-16a44 44 0 0 0 6-25.7c-.3-1.9-6.8.2-6.8.2L81 92.1l-24.2 5s-19.4-10.2-20-12-9-14-9-14" style="fill:#464c4f"/><path d="M123.8 22c-.6-.7-12.4-4-31.4-2.4-19.3 1.7-29.3 7.5-29.3 7.5s-15-8.5-32.2-8.8C13.7 18.1 5.3 23 4.5 23.8c-.6.6.7 16.3.7 16.3s10.7-3.2 21-3c11 0 17.3 2.4 17.3 2.4s-14.7 9.7-15.8 32.6c-1 18 13.9 35 36 35.3 22.2.4 37-17.9 37-35.3.1-15-13.9-31-13.9-31l36.5-3.3s1-4.1 1.2-8.4c0-2.8 0-6.8-.7-7.4M64.1 93.2a18.3 18.3 0 0 1-17-20.2c.9-17.3 18.7-25.5 18.7-25.5s16.4 11.1 16.8 24.4c.4 17.5-11 21.4-18.5 21.3" style="fill:#606265"/><path d="M123.3 37.8s-.6 3.3-2.3 3.9-21.8-1-35 1a65 65 0 0 0-26.3 9.2C47.7 62 47.1 73 47.1 73s-.8-16.6 16.6-26.7a84 84 0 0 1 39.9-9c10.4-.1 19.7.6 19.7.6" style="fill:#464c4f"/><path d="M7.2 27.7c-.7 2 0 7.4 3.2 7.4 2.3 0 2.4-3 7.3-5.8 4.7-2.7 7.1-3.3 6.7-5.7s-6.8-2-10.7-.7c-2.7.9-5.9 2.9-6.5 4.8m82.3-3.1c-.2 2.1 2 3 4.2 2.9 3.3-.2 4.3-1.3 4.3-3 .1-1.7-1.9-2.6-4.4-2.5-2.3.1-4 1-4.1 2.6m-11.5.1c-1.7.4-14.1 3.7-25.6 11.8a44 44 0 0 0-14.6 15.7c-1.2 2.6-1.5 4.6 0 5.7.8.7 2.5.1 3.5-1.5C42.8 54.2 47.4 46 57 40c12.4-7.9 20.1-9.4 22-10q4.6-1.3 4.3-4c0-1.7-2.2-2-5.3-1.3m7.6 62c-2.5-1.2-4.1 3.2-7 5.7-2.3 2.3-7.1 3.2-6.7 5.5.4 2.6 5 1.8 9.7-2.4 5.1-4.4 6-8 4-8.8" style="fill:#9b9a9b"/></svg>