<svg xml:space="preserve" width="16" height="16" viewBox="0 0 128 128"><path d="M116 4H12a8 8 0 0 0-8 8v104a8 8 0 0 0 8 8h104a8 8 0 0 0 8-8V12a8 8 0 0 0-8-8" style="fill:#bdbdbd"/><path d="M109.7 4H11.5A7.6 7.6 0 0 0 4 11.5v97.9c0 4.1 3.3 7.5 7.5 7.5h98.1c4.1 0 7.5-3.3 7.5-7.5V11.5c0-4-3.1-7.4-7.2-7.5z" style="fill:#e0e0e0"/><path d="M39.7 12.9c0-2.3-1.6-3-10.8-2.7-7.7.3-11.5 1.2-13.8 4-1.9 2.3-2.3 5.6-2.6 8.4-.2 2.2-2.2 14.9 3.5 11.2q1-.6 1.6-1.8c1.2-2.1 1.9-3.5 3.3-5.6 5.3-8.6 18.8-10.5 18.8-13.5" style="fill:#fff"/><path d="M99.7 102.7c1 0 1.8-1 1.5-1.9-1.3-5-7-9-13.6-9-6.8 0-12.4 4-13.7 9-.2 1 .5 2 1.5 2zM66.4 79.4c-1.8-5.6-1-10 3.4-11.5 3.8-1.2 7 1.4 7.6 2.2a12.2 12.2 0 0 1 20.4 0c.6-.7 3.9-3.4 7.7-2.2 4.4 1.4 5.1 5.9 3.4 11.5q-.8 2.3.3 5 0 .9-.8 1c-6.2-1.8-6.2-7.6-6.5-10-.2-2.6-1.7-2.7-2.7-2.5q.9 2.6.6 5.5c-.8 6-6 10.7-12 10.8A12.3 12.3 0 0 1 76 72.9c-1-.2-2.3-.2-2.7 2.6-.3 2.2-.3 7.7-6 9.7a1 1 0 0 1-1-1.1q.7-2.6 0-4.7M34.1 56.7h9.2c10.7 0 17.4 4.7 17.4 14v25a7 7 0 0 1-7 7h-30a7 7 0 0 1-7-7v-25c0-9.3 6.8-14 17.4-14"/><circle cx="38.7" cy="37.9" r="15.2"/></svg>