<svg xml:space="preserve" width="16" height="16" viewBox="0 0 128 128"><path d="M32 123.7c-1.4-.7-2-2.4-1.5-3.8l4-11.8 7.9 5.3-6.4 9.3a3 3 0 0 1-4 1m63.4 0c1.3-.7 2-2.4 1.5-3.8l-4-12-8.4 4.8 6.9 10a3 3 0 0 0 4 1" style="fill:#82aec0"/><path d="m34.5 108.1-2 6c1.2-.7 2.9-.7 4.2 0q2 1 3.1 3l2.3-3.3c0-.2-7.6-5.7-7.6-5.7m58.4-.1 2.2 6.6a4 4 0 0 0-4.1-.1 8 8 0 0 0-3.1 3l-3-4.4z" style="fill:#2f7889"/><circle cx="63.7" cy="73.9" r="42" style="fill:#ffefa1"/><circle cx="63.7" cy="70.2" r="49.4" style="fill:#cc2929"/><circle cx="63.7" cy="72.7" r="46.4" style="fill:#ff4638"/><circle cx="63.7" cy="72.7" r="40" style="fill:#fafafa"/><circle cx="64" cy="72.7" r="4.5" style="fill:#563428"/><path d="M63.7 42.6q-1.3-.1-1.5-1.5v-4.4q.1-1.3 1.5-1.5 1.4.2 1.5 1.5v4.4q-.2 1.4-1.5 1.5m0 67.6q-1.3-.1-1.5-1.5v-4.4q.1-1.3 1.5-1.5 1.4.2 1.5 1.5v4.4q-.2 1.3-1.5 1.5m36-36h-4.4q-1.3-.2-1.5-1.5.2-1.3 1.5-1.5h4.4q1.3.2 1.5 1.5-.1 1.3-1.5 1.5m-67.6 0h-4.4q-1.4-.2-1.5-1.5.1-1.3 1.5-1.5h4.4q1.3.2 1.5 1.5-.2 1.3-1.5 1.5m31.6-31.6q-1.3-.1-1.5-1.5v-4.4q.1-1.3 1.5-1.5 1.4.2 1.5 1.5v4.4q-.2 1.4-1.5 1.5m0 67.6q-1.3-.1-1.5-1.5v-4.4q.1-1.3 1.5-1.5 1.4.2 1.5 1.5v4.4q-.2 1.3-1.5 1.5M46.6 46l-2.2-3.7q-.5-1.2.6-2 1.2-.7 2 .5l2.2 3.8q.5 1.2-.6 2-1.2.6-2-.5m33.8 58.5-2.2-3.8q-.5-1.2.6-2 1.2-.6 2 .5l2.2 3.8q.5 1.2-.6 2-1.2.6-2-.5M46.6 46l-2.2-3.7q-.5-1.2.6-2 1.2-.7 2 .5l2.2 3.8q.5 1.2-.6 2-1.2.6-2-.5m33.8 58.5-2.2-3.8q-.5-1.2.6-2 1.2-.6 2 .5l2.2 3.8q.5 1.2-.6 2-1.2.6-2-.5M35.6 58.2 31.8 56q-1.1-.8-.5-2 .8-1.1 2-.6l3.8 2.2q1.1.8.5 2-.8 1.1-2 .6M94.1 92l-3.8-2.2q-1.1-.8-.5-2 .8-1.2 2-.6l3.8 2.2q1.1.8.6 2-1 1.1-2 .6M78.8 46.6q-1.1-.8-.6-2l2.2-3.8q.8-1.1 2-.5 1.1.8.6 2L80.8 46q-.8 1.2-2 .5M45 105.1q-1.1-.8-.6-2l2.2-3.8q.8-1.2 2-.5 1.1.8.6 2l-2.2 3.8q-.8 1.1-2 .5m44.8-47.5q-.6-1.2.5-2l3.8-2.2q1.2-.5 2 .6.6 1.2-.5 2l-3.8 2.2q-1.2.5-2-.6M31.3 91.4q-.6-1.2.5-2l3.8-2.2q1.2-.5 2 .6.6 1.2-.5 2L33.3 92q-1.2.5-2-.6" style="fill:#b2947c"/><path d="m47.5 63.5 16.2 9.2" style="fill:none;stroke:#563428;stroke-width:5;stroke-linecap:round;stroke-miterlimit:10"/><path d="M86.9 59.4 64.4 72.7" style="fill:none;stroke:#563428;stroke-width:3.5;stroke-linecap:round;stroke-miterlimit:10"/><path d="m92 32.5-4.2-2.7 14.1-25 4.3 2.5z" style="fill:#82aec0"/><path d="M111.2 35.2c1.2.4 2.5-.3 2.9-1.5 3.2-10.4-1-21.6-11.1-26.9a21.5 21.5 0 0 0-27.8 7c-.8 1-.6 2.4.3 3.2a120 120 0 0 0 35.6 18.2" style="fill:#cc2929"/><path d="M105.9 10.3s2.6-3.3-1.2-5.4c-3-1.7-4.9 2-4.9 2-.6 1.1 5.6 4.2 6 3.4M35.6 32.5 21.4 7.3l4.3-2.5 13.8 24.6z" style="fill:#82aec0"/><path d="M16.8 35.2c-1.2.4-2.5-.3-2.9-1.5A22 22 0 0 1 25 6.8a21.5 21.5 0 0 1 27.8 7c.8 1 .6 2.4-.3 3.2a120 120 0 0 1-35.6 18.2" style="fill:#cc2929"/><path d="M22.2 10.3S19.5 7 23.3 4.9c3-1.7 4.8 2 4.8 2 .7 1.1-5.5 4.2-6 3.4" style="fill:#82aec0"/><path d="M63.7 23.2V9.5" style="fill:none;stroke:#82aec0;stroke-width:3.7064;stroke-miterlimit:10"/><path d="M63.8 14.4c-4 0-7.9-1.5-7.9-1.5v-3s3.7-1.6 8-1.6 7.7 1.6 7.7 1.6v3s-4 1.5-7.8 1.5" style="fill:#82aec0"/><path d="M56.9 9.8q-.7.3 0 1l1.4.6c3.3-.5 8.1-.3 11.4.2q.6-.2 1.4-.9.4-.4-.1-.8c-1-.5-3.4-1.3-7-1.3-3.4 0-5.8.7-7.1 1.2" style="fill:#94d1e0"/><path d="M95 7.9c.4 1-.8 2-1.7 2.5a16 16 0 0 0-5.4 6.3c-.6 1.2-1.2 2.6-2.6 2.8q-.7 0-1.5-.3-1.2-.3-2.2-1-1.5-.6-2.2-1.8-.5-2 .7-3.6c1.6-2.6 4.4-4.2 7.2-5.2 1.6-.6 7-2.6 7.8.3m-69 8.4 2.2 4c1 1.5 2.2 3.2 1.7 5-.5 2-2.7 3-4.7 3.7l-3 1q-1 .4-1.7.4a3 3 0 0 1-2.3-1.3q-.6-1.2-1-2.5-1-5.2.5-10.2c.6-1.9 1.5-3.9 3.7-4 2.6-.2 3.7 2 4.6 4" style="fill:#ff4638"/></svg>