<svg xml:space="preserve" width="16" height="16" viewBox="0 0 128 128"><path d="M34.9 78.2s.7 27-1.2 29.7-4.1 4-3.7 6.2c.3 1.6 1.5 1.7 5.8 1.7s6-2.3 7-5.2q1.4-4.4 2-11.7l1-15.8zM78 74.8s-.2 7.1 1 10.8c1 2.7 3.6 9 3 12.7s-2.4 7.5-4.6 8.9c-1.4.8-2 3.2-1.4 4.2s9 .9 10.1 0A48 48 0 0 0 91.6 99c1.1-4.5 3.5-17.4 3.5-17.4l-3.8-12.5z" style="fill:#865a52"/><path d="m42 36.8-11.6 5-4.3 16s2.4 8.3 3.7 12.1c1 2.5 2.3 9.3 8.8 13.8 6 4.3 14.5 4 14.5 4s.6 2.4.7 10.4q.3 13.2-.2 14.3c-.8 1-4 5.4-3 6.9s4.2 1.8 6.4 1.5 4.4-1.6 4.9-2.3 1.7-15 2-18.8l.3-12.2.1-2.8s3.2-1 7-3.3c3.1-1.8 6.2-4.3 9.3-5.2 3-.9 6.2-1.6 6.2-1.6s3.5 7.3 6.6 11 10.3 11.1 10.8 13 1.6 8.6.5 11.2c-1 2.7-2.7 5-1.7 6.2s6.8 1.2 8.5-.3c1.6-1.5 2.9-6.2 2.8-10.1-.1-4-1.1-11.4-1.7-13.5s-1-11.5-1-11.5l-2.8-21.4-4.7-7.6-22-.7-31.5-2.2z" style="fill:#f1a058"/><path d="m111.6 19.3-36 15.9 2 5 37-15.8z" style="fill:#02bff1"/><path d="M70 44c1.8-1.8 1.5-3.2 2-3.6s1.5 1.4 3.5.7c1.2-.5 2-1.9 1.2-3.9-.3-.9-1.6-2-3-1.5-2.5.8-2 2.6-2.6 2.9s-2.3-1.8-5-.1c-1.8 1.1.2 6 .2 6z" style="fill:#bdbdbf"/><path d="M24.7 18.6s3-11.8 5-11.9 3 6.3 4.5 11.9c.7 2.8-9.5 0-9.5 0" style="fill:#875a51"/><linearGradient id="a" x1="76" x2="87.7" y1="85.8" y2="36.8" gradientUnits="userSpaceOnUse"><stop offset=".3" style="stop-color:#ca8e53"/><stop offset=".5" style="stop-color:#a67352"/><stop offset=".6" style="stop-color:#8e6151"/><stop offset=".7" style="stop-color:#855a51"/></linearGradient><path d="M64.3 77.7s8.2-3.5 12-6.7C81 67 86.1 57.8 93 55c4.3-1.9 8-2.6 8.9-2.2s4.5 3 5.4 7.3.6 17.1.8 20.3c.2 3.3 1.8 10.3 4.9 12.4 2 1.5 6.2 3 9.7 2.7s4.7-.4 4.7-.8-2.8-2-5.8-5.3a58 58 0 0 1-7.4-20.2c-1-5-5.3-15-10.4-20s-15.3-6.8-23.6-7c-5.3-.1-19.2 3-19.2 3l-9.2-4s-2-4.1-4.4-8-5.5-8.2-5.5-8.2l-6 6.5 1.7 9.2c.6 2.5 1.6 7.4 4 10.9s4.1 6.3 4.1 6.3L28 64l.8 2.4s8.8-2.4 12-3c2.9-.7 8.4-2.6 9.3-2.4s3.3 1.8 5 3.5c2.2 2.2 6.6 7.3 7.6 8.4a8 8 0 0 1 1.7 4.7" style="fill:url(#a)"/><radialGradient id="b" cx="29.8" cy="14.6" r="24.6" gradientUnits="userSpaceOnUse"><stop offset="0" style="stop-color:#ca8e53"/><stop offset=".1" style="stop-color:#c68b53"/><stop offset=".4" style="stop-color:#a37152"/><stop offset=".7" style="stop-color:#8d6051"/><stop offset=".8" style="stop-color:#855a51"/></radialGradient><path d="M30.1 18s-6.3-2.2-10.7.9-3.8 6.1-5.9 7.4-4.2 1.7-7.3 2.3-2 3.8-2 3.8-1.6 3-.4 4.2 2.4 2.5 3.1 2.7l1.6.7s1.2 2.1 3.8 2.4 9.8.1 9.8.1l1 2.4 4.8-.2 4-12.5c.2-.5-1.8-14.2-1.8-14.2" style="fill:url(#b)"/><path d="M26.1 42.6c1.5-1.2 3-3.5 3-7.6a8 8 0 0 0-2-6c-1-1-2.3-3.6-1.4-6.6s3.3-4.4 5.6-7 8-7.6 9.3-6.9 2.2 6.7 2.3 9.6c.1 3 .8 11.2-2 13.5-2.4 2-3.8 1.7-3.8 1.7s.4 6.7.3 7.1c0 .5-2.3 2.5-3.2 3.3l-2.5 2.5s3.1 0 3.3.4-2.2 3.3-4.3 5.8l-4.4 6-3.1-12.6-.7-2.3s2.3.2 3.6-.9" style="fill:#cd8c56"/><ellipse cx="21" cy="28.5" rx="2.1" ry="2.6" style="fill:#010206"/><path d="M4.3 35.5s2-1.1 2-3.4v-3.5s-4.9.2-5.1 2.4.8 4 1.3 4.8c.8 1.2 2.5 4.2 6.8 5s8.6-.7 8.6-.7l-.2-1s-6.2 1.2-9.1.2-4.3-3.7-4.3-3.7" style="fill:#464c52"/><path d="M20.1 38.6q.2 1.2-1.2 1.5c-.8.2-1.8.2-1.9-.4s.8-1.4 1.4-1.5 1.5-.2 1.7.4" style="fill:#010206"/><path d="M39.2 14c-.8-.6-4.8 3.5-6.2 6-1.6 2.7-.7 5.3 1 6.3 1.5 1 3.7-.4 4.6-2.4.8-2.1 1.4-9.5.6-10" style="fill:#ffa9ab"/><path d="M49.8 51.7s-23.3 6.1-23.6 6.8c-.3.6 1.4 6 1.7 6.1s24-6.3 24-6.3z" style="fill:#484c51"/><path d="M61.9 41.4c4 .2 20.6-.5 18.2.8a18 18 0 0 0-7.2 8.3C70.6 55 69.5 65.4 59 64s-11-13.7-9.8-17.3 2.7-6.5 2.7-6.5 3.9.8 10 1.2" style="fill:#ff5f5c"/><path d="M62.6 35c4.7.2 4.3 4.2 4.5 8.5s.1 26.4.1 30.3l-.1 10s-.4.5-1.4.7l-1.4.2s.4-8-.6-9.9-3.9-5-3.9-5l-.1-28.4-2-.4s.2-6.2 4.8-6" style="fill:#484c51"/></svg>