<svg xml:space="preserve" width="16" height="16" viewBox="0 0 128 128"><path d="m4 48 17.5-26.6L35 37z" style="fill:#e1f5fe"/><path d="m44.1 68.3-40-20.4 31-11z" style="fill:#81d4fa"/><path d="m64 43-29-6 9.1 31.4z" style="fill:#64b5f6"/><path d="m123.9 48-17.5-26.6L92.8 37z" style="fill:#0288d1"/><path d="m83.8 68.3 40-20.4-31-11z" style="fill:#81d4fa"/><path d="m64 43 28.7-6-9 31.4z" style="fill:#e1f5fe"/><path d="M83.8 68.3 63.9 43 44.1 68.3z" style="fill:#b2ebf2"/><path d="M43 10h41.9l21.5 11.4L92.8 37 64 43.1l-29-6.2-13.5-15.5z" style="fill:#b3e5fc"/><path d="M64 117.3 4 47.9l40.1 20.4z" style="fill:#1e88e5"/><path d="m64 117.3 59.9-69.4-40.1 20.4z" style="fill:#b3e5fc"/><path d="m83.8 68.3-19.9 49-19.8-49z" style="fill:#e1f5fe"/></svg>