<svg xml:space="preserve" width="16" height="16" viewBox="0 0 128 128"><path d="M123.8 41.6h.2v-3.5h-3.4c-4.4 0-8-3-8.8-7q-.4-1.8-2.1-1.9H18.3c-1 0-2 .8-2.1 1.8a9 9 0 0 1-8.8 7.1H4v3.5h.2a2.8 2.8 0 1 1 0 5.5H4v2.4h.2a2.8 2.8 0 1 1 0 5.5H4v2.3h.2C5.8 57.3 7 58.5 7 60s-1.2 2.7-2.8 2.7H4v2.4h.2a2.8 2.8 0 0 1 0 5.5H4V73h.2a2.8 2.8 0 1 1 0 5.5H4V81h.2a2.8 2.8 0 1 1 0 5.5H4v3.4h3.5c4.3 0 7.9 3.1 8.7 7.2q.4 1.6 2.1 1.7h91.4c1 0 2-.7 2.1-1.7.9-4 4.4-7.2 8.8-7.2h3.4v-3.4h-.2a2.8 2.8 0 1 1 0-5.5h.2v-2.3h-.2a2.8 2.8 0 1 1 0-5.6h.2v-2.3h-.2a2.8 2.8 0 1 1 0-5.5h.2V63h-.2a2.8 2.8 0 1 1 0-5.6h.2V55h-.2a2.8 2.8 0 1 1 0-5.5h.2v-2.3h-.2a3 3 0 0 1-2.8-2.8c0-1.6 1.2-2.8 2.8-2.8" style="fill:#ed6c66"/><path d="M104.4 89.5H23.6a5 5 0 0 1-5.1-5.1V43.6a5 5 0 0 1 5.1-5h80.8a5 5 0 0 1 5.1 5v40.8a5 5 0 0 1-5.1 5z" style="fill:none;stroke:#bb303d;stroke-width:3;stroke-miterlimit:10"/><path d="M35.9 38.5h56.3v51H35.9z" style="fill:none;stroke:#bb303d;stroke-width:2;stroke-miterlimit:10"/><g style="opacity:.8"><path d="M47.7 55.3h32.6M52.4 72.7h23.2" style="fill:none;stroke:#4e342e;stroke-width:9;stroke-linecap:round;stroke-miterlimit:10"/></g><path d="M100.5 47.2v33.6m-73-33.6v33.6" style="opacity:.5;fill:none;stroke:#4e342e;stroke-width:6;stroke-miterlimit:10"/></svg>