<svg xml:space="preserve" width="16" height="16" viewBox="0 0 128 128"><linearGradient id="a" x1="13.9" x2="31.8" y1="81.4" y2="49.3" gradientTransform="rotate(180.3 0 63.86)scale(-1 1)" gradientUnits="userSpaceOnUse"><stop offset="0" style="stop-color:#78909c"/><stop offset="1" style="stop-color:#b0bec5"/></linearGradient><path d="M32 79 6 34l1.7-1L33 78.3z" style="fill:url(#a)"/><linearGradient id="b" x1="96.5" x2="49.2" y1="50.5" y2="43.2" gradientTransform="rotate(180.3 0 63.86)scale(-1 1)" gradientUnits="userSpaceOnUse"><stop offset="0" style="stop-color:#78909c"/><stop offset="1" style="stop-color:#b0bec5"/></linearGradient><path d="m45.5 85.2.5-1 47.8-7L94 79z" style="fill:url(#b)"/><linearGradient id="c" x1="37.4" x2="37.2" y1="79" y2="69.6" gradientTransform="rotate(180.3 0 63.86)scale(-1 1)" gradientUnits="userSpaceOnUse"><stop offset="0" style="stop-color:#546e7a"/><stop offset="1" style="stop-color:#90a4ae"/></linearGradient><path d="M37.3 76.2h-1L37.9 14h1z" style="fill:url(#c)"/><linearGradient id="d" x1="72.3" x2="60.2" y1="60.5" y2="54.1" gradientTransform="rotate(180.3 0 63.86)scale(-1 1)" gradientUnits="userSpaceOnUse"><stop offset="0" style="stop-color:#546e7a"/><stop offset="1" style="stop-color:#90a4ae"/></linearGradient><path d="m47 81.3-.4-1 66-34.2.5 1z" style="fill:url(#d)"/><path d="M24.8 30.5h1v49.1h-1z" style="fill:#b0bec5" transform="rotate(-21.5 25.3 55.08)"/><path d="M31.6 37.8h1v39.1h-1z" style="fill:#b0bec5" transform="rotate(-9.4 32.09 57.4)"/><path d="M45.5 75.4h38.7v1H45.5z" style="fill:#b0bec5" transform="rotate(-17.7 64.87 75.9)"/><path d="M45.6 77.5h48.2v1H45.6z" style="fill:#b0bec5" transform="rotate(-11.8 69.67 77.98)"/><path d="M45.1 84.9a55 55 0 0 1-4.4 15A54 54 0 0 1 45 85m-13-6.3a38 38 0 0 1-4.7 12.2A38 38 0 0 1 32 78.7" style="fill:#78909c"/><path d="M41.7 98q.6.9 0 1.6l-.2.1q-.7.5-1.5-.1l-.1-.1q-.5-.9.1-1.6h.1q.9-.7 1.6 0M29.2 88q.6.9-.1 1.6-1 .7-1.7 0v-.2q-.6-.7 0-1.5h.2q.8-.7 1.5 0" style="fill:#504f4f"/><linearGradient id="e" x1="56.4" x2="54.5" y1="16.4" y2="20.7" gradientTransform="rotate(229.5 6.9 34.25)scale(-1 1)" gradientUnits="userSpaceOnUse"><stop offset="0" style="stop-color:#1a237e;stop-opacity:.9713"/><stop offset="1" style="stop-color:#4885ed;stop-opacity:.9713"/></linearGradient><circle cx="35.8" cy="91.3" r="3.1" style="fill:url(#e)"/><g style="opacity:.22"><path d="M35.8 88.7q1 0 1.8.8A2.6 2.6 0 1 1 34 93a2.6 2.6 0 0 1 1.8-4.4m0-.5a3 3 0 1 0 0 6.1 3 3 0 0 0 0-6" style="fill:#212121"/></g><linearGradient id="f" x1="40.6" x2="31.7" y1="29.6" y2="18" gradientTransform="rotate(190.2 .1 58.22)scale(-1 1)" gradientUnits="userSpaceOnUse"><stop offset="0" style="stop-color:#a11919"/><stop offset=".5" style="stop-color:#db3236"/></linearGradient><path d="M40.2 98.5c-.9 0-2.5.6-2.5.6l-.2-1.5q0-2.5-1.2-3.8a9 9 0 0 0-3.5-1.7c-1.7-.6-5.2 0-5.2 0l1-2.4c0-.5-1-1-1.4-.5s-1 1.7-1.5 3 0 2 .8 2.3c.7.3 2 .3 2 .3-.8 1.2-1.8 3.4-1.8 3.4l-.6 1-2.4 4s-2.2 1.2-3.8 2.6c-.8.7 1.2 1 1.2 1s2-.3 4-1c1.2-.4 2.7-2.8 3-2.8h.5l-1.4 2.8-2.9 2.6c-.7.7 1.3 1.4 1.3 1.4s2.1-.4 3.5-1.8a40 40 0 0 0 4.1-6.4l.6-.8L35 99l1 1.7q.9 1 1.6.7l3-1.4c.5-.2.4-1.5-.5-1.5" style="fill:url(#f)"/><g style="opacity:.22"><path d="m27.6 89.5.5.2-1 2.1-.3.9.9-.2 2.8-.2q1.4 0 2.1.3l.4.1c1.2.3 2.5 1 3 1.4q1 1.2 1 3.5l.2 1.6.2.5.5-.1c.4-.2 1.7-.6 2.3-.6l.1.1.1.5c-.5.2-1.8.9-3 1.3h-.1a1 1 0 0 1-.9-.5l-1-1.6-.4-.7-.4.7-1.2 1.8-.6.8c-.8 1.4-3.1 5.4-4 6.3a7 7 0 0 1-3.1 1.5l-1-.5 2.9-2.5v-.1l1.4-2.8.2-.4-.3-.3-.7-.1h-.1q-.4 0-1 .9c-.6.6-1.5 1.7-2.2 2-1.6.5-3.4.8-3.8.9l-.7-.2c1.5-1.3 3.5-2.5 3.6-2.5v-.1l.1-.1 3-5L29 95l.5-.7h-.9c-.3 0-1.3 0-1.8-.3q-.4 0-.7-.5l.1-1.1c.4-.8 1.1-2.5 1.5-2.9m0-.5-.4.2c-.4.4-1 1.7-1.5 3s0 2 .8 2.3c.7.3 2 .3 2 .3-.8 1.2-1.8 3.4-1.9 3.4l-.5 1-2.4 4s-2.2 1.2-3.8 2.6c-.8.7 1.2 1 1.2 1s2-.3 4-1c1.2-.4 2.7-2.8 3-2.8h.5l-1.4 2.8-3 2.6c-.6.7 1.4 1.4 1.4 1.4s2-.4 3.5-1.8c1.2-1 4.1-6.3 4.1-6.3l.6-.8L35 99l1 1.6q.7.8 1.2.7h.4c1.2-.5 2.6-1.1 3-1.4s.3-1.5-.4-1.5c-.9 0-2.5.6-2.5.6l-.3-1.5q.1-2.4-1.2-3.8a9 9 0 0 0-3.4-1.6l-2.3-.3c-1.5 0-2.9.2-2.9.2l1-2.3q-.2-.8-1-.8" style="fill:#212121"/></g><path d="M19.2 107.7q0 1.1.6 1.2c.6.1 1.3-1.4 1.3-1.4q.5-.6.6-.5l2.4-.7c.1-2-1.3-2.5-1.6-2.6l-2.4 1.7q-.5.3-.6.6c0 .1-.4.7-.3 1.7m3.8 3q-.3 1.3.5 1.3c.6 0 1.5-1.4 1.5-1.4q.4-.7.5-.6l2.4-1c0-2-1.5-2.4-1.8-2.5l-2.2 2-.6.6z" style="fill:#424242"/><path d="m36.3 94.5-.3-.3 10.5-12.4-2 4.2z" style="fill:#4e342e"/><path d="M32.4 92.5 36 76.7l1.4.5-4.8 16z" style="fill:#553a30"/><path d="m31.3 93.2.4-14.7 2.3.4-1.6 14.5zm5.2 1.2-.5-.7 7.7-9.6 1.8.7z" style="fill:#795548"/><path d="m32.2 79.1 1.2.4-1.5 13.3zm-.5-.6-.4 14.7 1 .2L34 79zm12.2 5.8 1 1-7.7 7.7zm-.1-.7L36 93.7l.5.7 9.2-9.1z" style="fill:#553a30"/><path d="m28.1 103-1.4-1.3q-.7-1-.6-2 .1-2.3 2-3.2a6 6 0 0 0-1.3 3.2q0 1 .3 1.7z" style="fill:#504f4f"/><linearGradient id="g" x1="37.2" x2="42.2" y1="24" y2="36" gradientTransform="rotate(190.2 .1 58.22)scale(-1 1)" gradientUnits="userSpaceOnUse"><stop offset="0" style="stop-color:#616161"/><stop offset=".4" style="stop-color:#2b2d2d"/><stop offset="1" style="stop-color:#000"/></linearGradient><path d="M32.5 99.1c.8-1.1 2.6-4.4 3.4-4.6 1-.2 1.2.6 1.3 1.2v.6c.3 0 .5-.9.5-1.6q.1-1.5-1-2l-4.1-2c-1-.7-2.2.4-2.7 1l-3.2 5q-.5 1.2.4 2l3 1.9c1.1.6 1.5-.3 2.4-1.5" style="fill:url(#g)"/><path d="M30 92c.6-.7 1.2-1.5 2.2-1l3.8 2c1 .4 1.6.8 1.7 2 .2-1.6-.5-2-1-2.4l-4.1-2-.4-.1c-1-.3-1.9.7-2.3 1.2l-3.2 5v.1c.6-.5 3.3-4.8 3.3-4.8" style="fill:#757575"/><path d="M28.6 103q-.3-.9.1-1.9.3-.4.8-.7.4-.4 1-.4t1.2.2q.7.2 1 .9t0 1.2q0 .7-.5 1a3 3 0 0 0-.3-1.8q-.5-.6-1.4-.6t-1.3.6-.6 1.5m-1.5-4.3 3 1.8c1.2.7 1.7.5 2.5-.7s2.8-4.8 3.6-5c1-.3 1 1 1 1s.5-.7-.2-1.8c-.2-.3-1.2-.8-2.2.4-.6.7-2.7 4-3.5 5.3q-.4.4-.8.2l-4-2.5q-.2.8.6 1.3m7.3 1.1s-.5-1.8-1.2-2.5l1-1c.6.7 1 2.2 1 2.8 0 .4-.8.7-.8.7" style="fill:#504f4f"/><ellipse cx="19.9" cy="107.3" rx="1.5" ry=".7" style="fill:#504f4f" transform="rotate(-79.8 19.94 107.3)"/><ellipse cx="23.7" cy="110.3" rx="1.5" ry=".8" style="fill:#504f4f" transform="rotate(-77 23.69 110.32)"/><path d="m32.2 78.4 6.5 2c.6 0 1.9 1 2.4 1.5l4.3 3.3 3.4-5.3-8-.1c-.7-.1-.7-.4-1.3-.7l-2.8-3.8z" style="fill:#f4c20d"/><path d="m36.7 75.6 2.4 3.2q1 1.1 2.5 1.2l6.4.4-2.5 4.4-5.3-4-1.8-.8-5.6-1.7zm0-.6-5 3.5 6.5 2q1 .2 1.7.8l5.8 4.3 3.1-5.7-7.2-.4q-1.3 0-2.1-1z" style="fill:#795548"/><linearGradient id="h" x1="54.5" x2="66" y1="68.4" y2="89.7" gradientTransform="rotate(179 .16 64.57)scale(-1 1)" gradientUnits="userSpaceOnUse"><stop offset=".2" style="stop-color:#ffa000"/><stop offset=".4" style="stop-color:#fda703"/><stop offset=".7" style="stop-color:#f6bb0a"/><stop offset="1" style="stop-color:#f4c20d"/></linearGradient><path d="M45.4 44.6c22.8 9.7 44.9 34.7 44.9 34.7s5.8.9 10.4-1.7c5.6-3.1 16.6-16.1 19.2-18.3 4.5-3.9 2.7-12.6-.2-16a109 109 0 0 0-43.9-25.6A86 86 0 0 0 34 12.2c-6 1-8.5 1.3-17 5.3C1 25.2 6 35.1 6 35.1s12.7-1.8 39.4 9.5" style="fill:url(#h)"/><linearGradient id="i" x1="42.9" x2="24.4" y1="106" y2="88.2" gradientTransform="rotate(179 .16 64.57)scale(-1 1)" gradientUnits="userSpaceOnUse"><stop offset="0" style="stop-color:#db3236"/><stop offset="1" style="stop-color:#b71c1c"/></linearGradient><path d="M65.7 14.7q-11.5-2.8-19-3-.7 0-1.4.4a69 69 0 0 0-28 15.8 15 15 0 0 0-2.2 7.6c4.7.7 11.2 2 19.6 5l8-3L67 17.6z" style="fill:url(#i)"/><linearGradient id="j" x1="58.7" x2="35.5" y1="106" y2="86.2" gradientTransform="rotate(179 .16 64.57)scale(-1 1)" gradientUnits="userSpaceOnUse"><stop offset="0" style="stop-color:#3cba54"/><stop offset="1" style="stop-color:#388e3c"/></linearGradient><path d="M75.8 17.7Q69 15.5 63.3 14 59 15.2 51 18.9A58 58 0 0 0 31.3 32c-1.5 2.8-2 6.6-2 6.6a156 156 0 0 1 18.3 6.9l13-14 18-13z" style="fill:url(#j)"/><linearGradient id="k" x1="104.2" x2="71.9" y1="93.4" y2="67.2" gradientTransform="rotate(179 .16 64.57)scale(-1 1)" gradientUnits="userSpaceOnUse"><stop offset="0" style="stop-color:#db3236"/><stop offset="1" style="stop-color:#b71c1c"/></linearGradient><path d="M82.3 71s2.2-3.3 4.7-6.3c5.3-6.5 29.1-24.9 29.1-24.9a87 87 0 0 0-17.6-12.2l-28 15.6-8 8.5v2.8c6.6 4.6 15 12.2 19.8 16.6" style="fill:url(#k)"/><linearGradient id="l" x1="85.9" x2="59.6" y1="98.8" y2="76.8" gradientTransform="rotate(179 .16 64.57)scale(-1 1)" gradientUnits="userSpaceOnUse"><stop offset="0" style="stop-color:#3cba54"/><stop offset="1" style="stop-color:#388e3c"/></linearGradient><path d="M85.3 21.3 57 35.9l-6.9 11c6.9 3.5 14 8.6 19.9 13.3 0 0 1-4.2 4.2-7.7 3.7-4 18-17.8 28.6-22.3q-7.3-4.5-17.5-9" style="fill:url(#l)"/><linearGradient id="m" x1="71.6" x2="48.7" y1="102" y2="82.1" gradientTransform="rotate(179 .16 64.57)scale(-1 1)" gradientUnits="userSpaceOnUse"><stop offset="0" style="stop-color:#4885ed"/><stop offset="1" style="stop-color:#1565c0"/></linearGradient><path d="M76.7 18a72 72 0 0 0-17.9 7.1c-8.5 5.2-14.6 9.5-16 12.4s-2 5.3-2 5.3l4.6 1.8q6 2.6 11.6 6.2s1.8-3.8 4.3-6.8a88 88 0 0 1 29-20.5q-6.1-3-13.6-5.5" style="fill:url(#m)"/><radialGradient id="n" cx="43.4" cy="71.9" r="109" gradientTransform="rotate(204.7 3.1 32.41)scale(-1 .386)" gradientUnits="userSpaceOnUse"><stop offset=".2" style="stop-color:#212121;stop-opacity:.9566"/><stop offset=".6" style="stop-color:#212121;stop-opacity:0"/></radialGradient><path d="M69.8 27.6a109 109 0 0 0-45.3-13.2q-3.9 1.4-7.6 3.2a22 22 0 0 0-10.4 8.8 11 11 0 0 0-1 7c0 .4.1 1.3.4 1.6q.5.2 1.2 0c5.2-.2 10.5.8 15.5 2a130 130 0 0 1 33.7 13.4Q64.6 55.7 72 62a200 200 0 0 1 17.6 16.6c.6.7.7.6 1.7.7a17 17 0 0 0 12-3.7q4.9-4 9.2-8.9l2.3-2.4c-7.5-8.8-23-25-45.1-36.8" style="fill:url(#n)"/><radialGradient id="o" cx="58.5" cy="87.4" r="99.7" gradientTransform="rotate(17.8 -156.17 7)scale(1 -.304)" gradientUnits="userSpaceOnUse"><stop offset=".7" style="stop-color:#ffecb4;stop-opacity:.0338"/><stop offset="1" style="stop-color:#fff9c4"/></radialGradient><path d="M69.8 22.8c18.2 8.4 31 15.8 40.4 23.3 6.4 5.2 5.9 16.2 5.9 16.2 7.2-5 7-10 6-14q-.7-2.8-2.4-5a61 61 0 0 0-11-9.4q-7-4.8-14.5-8.5a138 138 0 0 0-32.5-11.7A74 74 0 0 0 30 13c-4.6.8-13.4 4.9-13.6 5 0 0 7.8-2.6 15-2 15.2 1.1 27 1.7 38.4 7" style="opacity:.8;fill:url(#o)"/></svg>