<svg xml:space="preserve" width="16" height="16" viewBox="0 0 128 128"><path d="M64.6 3.8a954 954 0 0 0-54 36.2c-.3 1-.4 12.2-.4 12.2l6.7 2.1v8.9l3.6 7.3v31l-2.7 6-7.3 2.1v5.3l-5.8 1.7.1 5.3c0 .7.3 2.3 3.3 2.3l114-.5c1 0 2.2-.2 2.3-2.2v-4.8l-5.7-2.8v-4.4l-9-2.8-2.3-6.2V71.3L111 64l1-2v-8l6-2-.1-11.8A1267 1267 0 0 0 64.6 3.8" style="fill:#cddfee"/><path d="M15.3 42.3a26 26 0 0 0 0 6.8c.2.2 96.9 0 97.2-.2s.4-6.4.2-6.8-27.4-19-27.4-19l-42.1.2S15.5 42 15.3 42.3M4.7 116.6V115q0-.9 1.3-1h115.7q2.3 0 2.5 1.2.2 1.4.1 1.5zm114-7.1-108.2.1v-1.5q-.2-.8 1.5-1c1.7-.2 104-.4 104.8-.4s1.9.4 2 1 0 1.8 0 1.8m-10.5-6.7-.8-2.3h-87L20 103zM19.5 68.4l89.3.3-1.3 2.6-87 .3zm-1.9-3.7s-.8-.6-1-1.3q.1-1.2.3-1.2L112 62s.4.7 0 1.2c-.2.6-1.1 1-1.1 1zm-7.4-12.5 107.7-.3v1.4q0 .8-2 .8h-1.5l-102 .5c-1.1 0-1.8-.6-2-1z" style="fill:#94adbc"/><path d="m18 45 22.7-15.3 1.5 15.6zm69.6-15.8 22.6 16H87z" style="fill:#657582"/><path d="M33.4 64.6h3.7l3 7-.3 28.9-2.4 6.5H33l-2.4-6.5v-29zm19.9-.1-3.7 7 .2 29L52 107l24.3-.1 2.2-6.4v-29l-2.8-7zm38.1-.1h3.3l2.9 7v29.1l-1.7 6.3h-5.5l-1.7-6.3-.1-29.1z" style="fill:#54636e"/><path d="M54.6 107V84.7l19.5.2v22z" style="fill:#6ba4ae"/><path d="M63.3 83.7V107h2V84z" style="fill:#a5d0d7"/><path d="M54.6 85.8v-5.6h19.5v5.6s-19.3-.2-19.5 0" style="fill:#95acbc"/><path d="M54.6 80.2h19.5s.1-1.7-1.7-2-15.1 0-16.2 0c-1.7.1-1.6 2-1.6 2" style="fill:#ccdeed"/><path d="M64.4 11.1c-14.5.1-26 11.6-25.5 26s13.8 24.7 25.5 24.6a25.3 25.3 0 1 0 0-50.6" style="fill:#cddfee"/><path d="M64.5 14.6c-12.1 0-21.9 10-21.4 22.6S54 57.8 63.9 58c11.3.1 21.7-7.2 22.2-21S75.4 14.5 64.5 14.6" style="fill:#94adbc"/><path d="M61 21.6s-.2-3.8 0-4.2q.4-.4 3.5-.3c2.2 0 3 0 3.4.3s.1 4.5.1 4.5 3 1 4.7 2.5c2 1.4 3.3 3.4 3.2 3.7s-4 3.7-4.5 3.6-3.6-3.8-7.4-4c-5.9-.4-5.8 4.2-2.1 5.5S77 35.4 76.6 44.6c-.3 7.8-8.2 8.3-8.2 8.3s.3 3 0 3.1-7 .3-7.3 0 0-3.3 0-3.3-3.1-.6-5.6-2.3a16 16 0 0 1-4.4-4.2c0-.3 4.4-4 4.7-4.2s5 4.4 9.2 4.8c4.4.3 6.3-4 .2-5.8-6-1.9-13.3-3.5-13-11.1.4-7.7 8.8-8.3 8.8-8.3" style="fill:#024fac"/></svg>