<svg xml:space="preserve" width="16" height="16" viewBox="0 0 128 128"><path d="M50.6 4.1c-41 0-40.7 38-40.7 38.6 0 24.5 1.9 59.2 11.7 72.9 4 5.4 11.4 5.7 11.4 5.7h34s7.5-.3 11.4-5.7c9.8-13.7 11.7-48.4 11.7-73 0-.6 1.5-38.5-39.5-38.5" style="fill:#3c2c23"/><radialGradient id="a" cx="50" cy="57.9" r="47.5" gradientTransform="matrix(1 0 0 1.19 0 -9.16)" gradientUnits="userSpaceOnUse"><stop offset=".8" style="stop-color:#554138;stop-opacity:0"/><stop offset="1" style="stop-color:#554138"/></radialGradient><path d="M50.6 4.1c-41 0-40.7 38-40.7 38.6 0 24.5 1.9 59.2 11.7 72.9 4 5.4 11.4 5.7 11.4 5.7h34s7.5-.3 11.4-5.7c9.8-13.7 11.7-48.4 11.7-73 0-.6 1.5-38.5-39.5-38.5" style="fill:url(#a)"/><linearGradient id="b" x1="53" x2="53" y1="94.1" y2="122.1" gradientTransform="translate(0 2)" gradientUnits="userSpaceOnUse"><stop offset="0" style="stop-color:#616161"/><stop offset=".3" style="stop-color:#545454"/><stop offset=".8" style="stop-color:#323232"/><stop offset="1" style="stop-color:#212121"/></linearGradient><path d="M102 121v3H4v-15.9c6.8-6.1 18.5-9.7 31.5-11.2l5.5-.5 9-.3h.2a123 123 0 0 1 14.3.8c20.3 2.5 37.6 10.4 37.6 24.2" style="fill:url(#b)"/><path d="M84 110.3c-.3.1-5.2 3-12 5.6a75 75 0 0 1-56-5.9c-2.5-1.3-5.5-4-7-5.4L7 106q1.8 2 7.5 5.6A25 25 0 0 0 8.9 124h2c.3-2.1 1.6-7.7 5.3-11.6q4 2.2 9.5 4.2a16 16 0 0 0-2.4 7.4h2c0-.9.4-3.9 2.4-6.8a82 82 0 0 0 44.7.6 14 14 0 0 1 2 6.2h2c0-.9-.3-3.8-2-6.8q5.5-2 9.4-4.4c3.5 3.8 4.7 9.1 5 11.1h2c-.3-1.9-1.4-7.7-5.3-12.2q5.4-3.7 7.1-6l-1.8-1a35 35 0 0 1-6.7 5.5" style="opacity:.19;fill:#fff"/><path d="M50 90h-9v10c0 4.6 3.6 8.2 8.2 8.2h1.6c4.6 0 8.3-3.6 8.3-8.1V90z" style="fill:#7a4c32"/><path d="M60.5 108a30 30 0 0 1-3.6 4.7c-3.5 3.8-6.9 5.5-6.9 5.5s-3.4-1.8-7-5.5a29 29 0 0 1-3.5-4.4L50 106h.1c1-.2 7 1.2 10.4 2" style="fill:#d8d8d8"/><path d="m50 106-7 6.7a29 29 0 0 1-3.5-4.4 25 25 0 0 1-4-11.4l5.5-.5a28 28 0 0 0 9 9.6m14.5-9a27 27 0 0 1-7.6 15.7L50 106h.1c6.1-4.6 8.3-8.3 8.9-9.6z" style="fill:#fff"/><path d="M50 16c-17.2 0-33 12.8-33 40a40 40 0 0 0 25 38.8 24 24 0 0 0 8 1.5q3.5 0 7.8-1.5A40 40 0 0 0 83 56c0-27.2-15.9-40-33-40" style="fill:#a56c43"/><ellipse cx="33.8" cy="58.9" rx="4.9" ry="5" style="fill:#42312c"/><ellipse cx="66.3" cy="58.9" rx="4.9" ry="5" style="fill:#42312c"/><path d="M41 49.8c-1-1.2-3-3-7.2-3s-6.3 1.8-7.3 3q-.5 1 0 1.6t2 .4c1.4-.2 2.5-1.2 5.3-1.2s4.5.9 5.3 1.2q1.5.3 2-.4t-.1-1.6m32.5 0c-1-1.2-3-3-7.2-3s-6.4 1.8-7.3 3q-.5 1 0 1.6t2 .4c1.4-.2 2.4-1.2 5.3-1.2 2.8 0 4.4.9 5.3 1.2q1.4.3 2-.4.4-.6-.1-1.6" style="fill:#42312c"/><path d="M57.8 77.9H42.2c-3.3 0-2.7 2-1 2.6 2.4 1 6 1.4 8.8 1.4s6.4-.3 8.9-1.4c1.6-.7 2.2-2.6-1.1-2.6" style="fill:#473530"/><path d="M53.8 68h-7.6q-1 .5-.7 1.7c.3.7 1.7 2.6 4.5 2.6s4.2-2 4.5-2.6q.4-1.2-.7-1.6" style="fill:#875334"/><path d="M50.6 4.1c-41 0-40.7 38-40.7 38.6 0 7.7.2 16.5.7 25.3h6.8c0-3 2-21 8-22.4 22.4-5 35-16.9 35-16.9C63.8 36 74 43 77.8 45.6c3 2.2 4 18.5 4 22.4h7.6v-.2c.6-8.7.8-17.5.8-25.2 0-.6 1.5-38.5-39.5-38.5" style="fill:#3c2c23"/><radialGradient id="c" cx="50.3" cy="61.9" r="49.8" gradientTransform="matrix(1 0 0 1.214 0 -11.39)" gradientUnits="userSpaceOnUse"><stop offset=".8" style="stop-color:#554138;stop-opacity:0"/><stop offset="1" style="stop-color:#554138"/></radialGradient><path d="M50.6 4.1c-41 0-40.7 38-40.7 38.6 0 7.7.2 16.5.7 25.3h6.8c0-3 2-21 8-22.4 22.4-5 35-16.9 35-16.9C63.8 36 74 43 77.8 45.6c3 2.2 4 18.5 4 22.4h7.6v-.2c.6-8.7.8-17.5.8-25.2 0-.6 1.5-38.5-39.5-38.5" style="fill:url(#c)"/><path d="M50 118.3s6.2-3.2 10.5-10.2a57 57 0 0 0-10.5-2l-10.5 2.3c4.4 6.6 10.5 10 10.5 10" style="fill:#d8d8d8"/><linearGradient id="d" x1="42.8" x2="42.8" y1="103.6" y2="94.1" gradientTransform="translate(0 2)" gradientUnits="userSpaceOnUse"><stop offset="0" style="stop-color:#fff"/><stop offset="1" style="stop-color:#bdbdbd"/></linearGradient><path d="m41 96.4-5.5.5c.7 7 4.2 12.3 7.6 15.9l7-6.7a27 27 0 0 1-9-9.7" style="fill:url(#d)"/><linearGradient id="e" x1="57.3" x2="57.3" y1="103.6" y2="94.1" gradientTransform="translate(0 2)" gradientUnits="userSpaceOnUse"><stop offset="0" style="stop-color:#fff"/><stop offset="1" style="stop-color:#bdbdbd"/></linearGradient><path d="M59 96.4c-.5 1.3-2.6 5-9 9.7l7 6.7a29 29 0 0 0 7.5-15.9z" style="fill:url(#e)"/><path d="m99.3 119.6 4.5-24.8v-.9l-.6-8.8c-.2-2.3 1.6-2.6 4-2.4 2.3.2 4 .9 3.3 3.1l-2.4 8.6-.2.8-.6 25.2zm7.2-43.6 2.3.3c1.7.2 3 1.7 2.8 3.4v.6c-.2 1.7-1.8 3-3.5 2.8l-2.3-.3a3 3 0 0 1-2.8-3.4v-.6a3 3 0 0 1 3.5-2.7" style="fill:#dd8a3e"/><path d="M103.1 57.3h12.4v23.6h-12.4z" style="fill:#995f33" transform="rotate(-84.1 109.33 69.13)"/><path d="m112.5 77-9.6-1a2.5 2.5 0 0 1-2.3-2.7l1-10.1a2.5 2.5 0 0 1 2.8-2.3l9.6 1q2.3.5 2.2 2.8l-1 10.1a2.5 2.5 0 0 1-2.7 2.3M99.4 68c.6-5.7.6-7.9-1.6-8.1s-4.4 3.1-4.9 7.5 1 8.1 3.2 8.3 2.7-1.9 3.3-7.6m18.1 1.9c.6-5.8 1-8 3.2-7.7s3.7 4 3.3 8.3-2.7 7.7-5 7.5-2.1-2.4-1.5-8.2" style="fill:#dd8a3e"/><radialGradient id="f" cx="35.3" cy="-8.9" r="19.3" gradientTransform="rotate(-92 123.86 25.98)scale(1 1.057)" gradientUnits="userSpaceOnUse"><stop offset=".3" style="stop-color:#a56c43"/><stop offset="1" style="stop-color:#8d5738"/></radialGradient><path d="m101.2 103.7-3 .9c-1.5.6-8-1.3-8.5 5 0 1.8-.2 7.4 1.3 10.1 3.1 5.8 14.9 4.3 15.8 4.5 5.6.9 3-17.2-.1-19.5l-1.6-.9c-1-.5-2.8-.2-4 0" style="fill:url(#f)"/><radialGradient id="g" cx="117.3" cy="112.6" r="14.1" gradientTransform="rotate(-20.6 111.27 120)" gradientUnits="userSpaceOnUse"><stop offset="0" style="stop-color:#8d5738"/><stop offset="1" style="stop-color:#a56c43"/></radialGradient><path d="m109 120.4-6.3-.2q-1.2 0-1.6 1.3 0 1.4 1.3 1.7l6.3 1c1 .1 2-.5 2-1.5v-.5q.1-1.6-1.6-1.9" style="fill:url(#g)"/><radialGradient id="h" cx="112" cy="100" r="14.1" gradientTransform="matrix(1.015 .168 -.167 .986 13.55 -13.82)" gradientUnits="userSpaceOnUse"><stop offset="0" style="stop-color:#8d5738"/><stop offset="1" style="stop-color:#a56c43"/></radialGradient><path d="M89.8 114s1.2.9 3.2 1.7c6 2.3 6.6-5 6.8-6 .7-5.9 5.8-4.6 10.1-4.9 1 0 4-.5 4.8-2.5 1-3.4-2.5-3.3-9.9-3.8q-3-.1-5.9.2c-9.4 1.3-9.5 11-9.2 15.3" style="fill:url(#h)"/><radialGradient id="i" cx="118.3" cy="111" r="16.1" gradientTransform="rotate(-3.8 133.2 117.51)" gradientUnits="userSpaceOnUse"><stop offset="0" style="stop-color:#8d5738"/><stop offset="1" style="stop-color:#a56c43"/></radialGradient><path d="m111 110-9 .8c-1.3.1-1.3 1-1.3 2.2-.1 1.3 0 2.3 1.4 2.4l9 .4c1.6.1 2.9-1 2.9-2.5v-.8c0-1.5-1.4-2.6-3-2.4" style="fill:url(#i)"/><radialGradient id="j" cx="118.8" cy="110.1" r="15.4" gradientTransform="rotate(4.4 87.98 91.98)" gradientUnits="userSpaceOnUse"><stop offset="0" style="stop-color:#8d5738"/><stop offset="1" style="stop-color:#a56c43"/></radialGradient><path d="m111 104.7-7.9 1.1q-1.8.4-2 2.2.2 2 2.4 2.2h7.8c1.5 0 2.7-1.1 2.6-2.5v-.8a2.5 2.5 0 0 0-3-2.2" style="fill:url(#j)"/><radialGradient id="k" cx="117.4" cy="111.2" r="15.4" gradientTransform="rotate(-13 116.07 116.1)" gradientUnits="userSpaceOnUse"><stop offset="0" style="stop-color:#8d5738"/><stop offset="1" style="stop-color:#a56c43"/></radialGradient><path d="m110.2 115.6-7.2.4a2 2 0 0 0-2 1.8q.1 1.8 2 2.2l7.1.7c1.4 0 2.6-1 2.6-2.2v-.7q-.2-2.2-2.5-2.2" style="fill:url(#k)"/><path d="M111.4 115.9c0-1-8 0-9-.9-1.2-1-1.1-2.8.3-3.4 1.6-.7 9.3-1 9.3-1.4 0-.8-10 1.5-10.1-2 0-2.3 2.3-2.3 3.9-2.6 1-.2 5-.5 5-.8s-1-.2-1-.2c-.8 0-5.7.3-7 .6-2.1.5-2.6 1.7-2.7 2.7 0 1-.3 2.5-.7 3.6-.7 2.2-3.4 4.2-3.5 4.5 0 .3 1.7-.6 2.9-1.8.6-.7 1.5-.3 1.7.6l.3 1.3c0 .5 0 3.5-.2 4.6v1.1q0 .6.4 1c1 1.1 2.6 1.2 4 1.3.7 0 4 .4 4.7 0-1.8 0-8 0-7.8-2.4.2-1.3 1.4-1 2.3-.9 1 .1 3 .2 4.1 0 .3 0 1.8 0 1.8-.2s-3.2-.3-3.6-.3c-1.3 0-4 .1-4.6-1.4q-.3-1 .2-1.8c1-1.1 9.2-.7 9.3-1.2" style="fill:#875334"/></svg>