<svg xml:space="preserve" width="16" height="16" viewBox="0 0 128 128"><path d="M73.5 51.4a65 65 0 0 0-13.8 2.7s-2.4-6.2-4.2-8-8.3-2.8-8.7-1.5c-.5 1.4 4.2 2.9 6 5.6s4 6.2 3.2 7-2.2-1.1-6.4-3.5c-4.1-2.5-4.9-2.1-5.8-2-1 .2-7.1 4-9.4 4.6-2.2.6-9.9.3-9.8 1.6 0 1 4.3 2.7 8 2.5 4-.1 8.2-3.3 11.8-2.8s7.4 4.2 6.2 5-3.6-2.1-5.4-2.4-6.8 2.6-9.5 3c-2.7.2-10-.5-10 .5-.2 1 4.4 3 9.7 2.9s7.7-1.6 9.6-1.3c2 .3 5 4.4 5 4.4V74l-3 .3s-1.5-2.8-4.6-3.3c-3.2-.4-5.1.8-5.1.8S34 68.4 30 68c-3.9-.3-8.4 1.2-9.6 3.1s-5.2 31.6-5.2 31.6 9.1 13.1 10 13.4 2.4-.1 2.7-1.1c.4-1.5-1.8-5.3-2-7.8-.4-2.6-1.1-10.1-1.1-10.1l-3.6-10.8 9-1.7s3 .1 4.7-.4 3.6-2.4 3.6-2.4 2.7 2.5 6.1 3.4 9.3-.7 9.3-.7l12.8 3.3s9.2 2.5 13.5 1.6c2.3-.4 4-1.5 4-1.5s.5 3 2.1 4.2.5 20.5.5 20.5-1.4 4.6-4.4 6.4-7.2 4.1-6.7 5.6c.5 1.7 3.3.9 3.3.9l14.4-6.6 8.5-26.4s.8-5.4-2.5-8.8-6.8-2.2-6.8-2.2 0-1.3-.5-1.9-1.9-1.1-1.9-1.1 4.5-2.3 5.5-2.4c3.1-.5 8 5.5 10.9 7.3 2.8 1.8 9.1 5.2 8.7 2.6-.4-2.3-1.8-1.8-6.6-6s-10-10-11.6-10.2-9.7 5-10 3.1 1.8-3.4 3.9-5.5c2-2.2 3.6-4.2 5-4 1.3 0 6 4.9 8 6.2 2.1 1.4 10.8 6.3 10 2.7-.6-2.2-4.3-2-9-6.6-4.6-4.5-8.2-9.3-10.1-9.4-2-.2-8.2 7.6-8.2 7.6s3.6-6.3 4.6-7.5l3-3.6s3.7 1.5 5.8 1.2 5-1.2 5-2.2-3.8-1.1-5.3-1.4-5.2-2.4-6.1-2.4-3.1 2.3-4 3.3c-1 1.4-5.4 6.2-5.4 6.2z" style="fill:#ba8855"/><path d="M29.4 72c-3.5-3-13.7-2.5-17.4 11s.6 22.2 4.5 27.3c3.3 4.3 8.2 6.6 9.9 6 1.3-.6-3.8-6.9-5-9.9-1-2.5-1.2-8.1-.3-8 1.6.2 4.9 8.1 8.3 10.2q3 2 4.2 1.8c1-.1-2-5.8-4.5-10.3s-4.1-6.9-4-7.3c.3-.4 5-5.3 5.8-6.6 1-1.8 4.3-9-1.5-14.1m9.6 1.3c-1.7 1.5-.8 4.5.4 5.8s3.7 3 5.2 1.6 1-4-1-6.1c-1.4-1.5-3.5-2.3-4.6-1.3m55.5 13.8q-6.7-.4-9.3 7.1c-2.6 7.5-.2 10.3-.4 10.9s-4 3.1-5.6 4.2c-2.4 1.6-6 4.3-4.5 5.5 2.4 2 6.9.2 8.6-.4 3.9-1.5 5.5-3.3 7-2.7 3.2 1.2-1.7 6.2-4 7.8s-10.4 4.5-10 5.6 2.6 1 5.1.7 12.4-3.8 16.7-8.9a24 24 0 0 0 5.3-16.6c-.2-4.6-.6-12.5-8.9-13.2m-9.6-6.9c1.2 0 3 .3 3.2 1.9.3 2.1-2 3-3.3 3-.8 0-3.5-.2-3.5-2.3s2.3-2.6 3.5-2.6M58.6 57.5c-1.6 2-9.8 9.6-11 15.8-1.3 6.3.2 13.8 13.2 18.1 11 3.7 19.1-2.2 21.4-7 3.2-6.8 2.4-14 2.8-16.2.5-2.2 3.8-12 3.8-19.4 0-8.4-2.9-9.6-2.9-9.6s4.7-3.2 5.5-7-.3-7.5-.3-7.5 2.6-3 1.2-9.1C91 10.2 86 9.3 86 9.3s-1.3-5-6.1-6.4c-5-1.4-9 .6-9 .6s-.6-2.3-4.2-2.6A13 13 0 0 0 58 4.2c-2.4 2.2-5 7.3-5 7.3s-4.8 3.6-4.2 9.2 3.4 7.6 5.4 8.7 3.6.7 6 1.4 3.2 3.3 4.5 3.1 1.9-5.1.7-8.6c-1-3.3-4.2-6.8-4.2-6.8s1.8-.4 4-1.6c1.3-.8 3.7-2.9 3.7-2.9s1 1.3 3.4 2.4c3.9 1.8 8.3.6 8.3.6s-1 1-1 3.1c.2 1.6 1 3.7 1 3.7s-2.6 1.8-3.2 4.6c-.6 3.1 1.2 7 1.2 7s-5.1-1-8.4 1.1c-5.4 3.5-8.6 17-11.6 21" style="fill:#f2a159"/><path d="M54.3 72.9c0 1.6.8 3.7 3.4 3.8s3.6-1.8 3.5-3.4-.8-3.4-3.4-3.5q-3.2 0-3.5 3m16.6.6c-2.6 0-3.7 2-3.6 3.7 0 1.7 1 3.2 3.2 3.4 2.4.1 3.6-1.5 3.8-3.1.1-2-1.3-4-3.4-4m-15.6 6.4c-1 .5-.1 2.3 1 3.6a3 3 0 0 0 3.3 1.1c.7-.2 1.8-.9 1.8-.9s.8 2.5 3.5 2.7c2.3.2 3.5-1 4.2-1.5s1.3-1.9.5-2.4-1.8.5-2.2 1c-.6 1.2-2.2 1.2-3 .7-1.2-.7-1-3-1.2-3.6 0-1.3-1.3-1.2-1.8-.5s-2 2.4-3 2.3-1.7-3.2-3.1-2.5" style="fill:#372d2b"/><path d="M51.8 65s3.6-3.5 8.9-4.9c3.1-.8 9.7-1.2 14.7 1.7a22 22 0 0 1 9.4 11.8s.4-2.9 0-4.2-3.3-7-10-10.1q-6.5-2.9-13.6-1c-2.7.6-5.8 2.6-7 3.7-1 .9-2.7 2.2-2.5 3m7.8-9.1s6.2-4.5 13.9-3.7C80.4 53 87 62 87 62s.4-1.4.3-2.1a10 10 0 0 0-2.1-3.6c-1.5-1.6-5.8-5.9-11.2-6.4a23 23 0 0 0-13 3c-.8.6-1.8 2.2-1.5 3m3.5-8.2s5.2-3.3 9-3.5q5.5 0 9.1 1.8c5.1 2.7 7.4 7.5 7.4 7.5s.7-2.4-.2-3.6c-.4-.5-3.9-7.9-14-7.9-7.4 0-10 3.1-10.5 3.6-.9 1-.8 2.1-.8 2.1" style="fill:#ba8855"/><path d="M77.5 31.5s2.2 1.8 3.8 2.3c2.5.8 6.3 1.5 5.7 3.3s-5 .5-5.6.2c-.8-.4-3-1.5-3.5-3-.3-.8-.4-2.8-.4-2.8M80 22s3.1.6 4.6.6 6-1 6.3 1c.2 1.8-3 2.5-5 2.2-2.3-.2-4.3-1.2-5-1.7s-.9-2-.9-2m.7-4.7q1.1-.4 2.8-2.2a10 10 0 0 0 2.4-4.4c.3-1 .1-2.5-1-3-1.9-.8-1.8 3-2.6 4.7s-2.4 3.7-2.6 4.4c-.1.7.5.6 1 .5m-9.4-14c1.8-.3 2.4 1.8 1.6 5-1 4.3-3 5.3-3.5 5.7-.7.5-1.7 1-1.8.6-.3-1 1.3-2.6 2-5.2s-.2-5.9 1.7-6.1m-8.7 14.4c.6-.6.3-4.5-3.1-6.7-4-2.6-6.3-.5-7 .6q-1.3 1.7-1 1.6c1-.7 4.3-.9 6.3.2 3.5 1.9 2.9 5 3.4 5s.9-.1 1.4-.7" style="fill:#b38354"/></svg>