<svg xml:space="preserve" width="16" height="16" viewBox="0 0 128 128"><path d="M80.4 12.7c-19.9 0-34.8 15-34.8 34.8s16.1 36 36 36 34.8-15 34.8-34.8-16.2-36-36-36" style="opacity:.6;fill:#81d4fa"/><path d="M80.4 12.7c19.8 0 36 16.1 36 36s-15 34.8-34.8 34.8-36-16.2-36-36 15-34.8 34.8-34.8m-27.7 7.2c-13 14.2-19.6 37.6-1.1 56 19.9 20 46.5 11.7 60.7-2.8 7.7-7.9 17.4-36.6-2.3-56.3s-48.6-6.4-57.2 3" style="fill:#616161"/><path d="m28.2 90.9 8.4 8.3 19.6-19.8s1.6-3.2-1.7-6.4-6.7-2-6.7-2z" style="fill:#bdbdbd"/><path d="M39.5 77c1.1-1 5-3 9.4 1.2 4.3 4.3 2.5 7.7 1.7 9l-32 35.2c-2 2-6.2.3-10.1-3.6-4-3.9-5.8-7.7-3.6-9.9z" style="fill:#616161"/><path d="M84 8.6a36 36 0 1 1 0 72.1 36 36 0 0 1 0-72m0-4a40 40 0 1 0 0 79.9 40 40 0 0 0 0-80" style="fill:#bdbdbd"/><ellipse cx="11" cy="116.3" rx="3.6" ry="9.3" style="fill:#424242" transform="rotate(-45 11 116.3)"/><linearGradient id="a" x1="20.8" x2="37.1" y1="15.2" y2="41.8" gradientTransform="rotate(22 59.71 136.6)" gradientUnits="userSpaceOnUse"><stop offset=".3" style="stop-color:#fff"/><stop offset="1" style="stop-color:#fff;stop-opacity:0"/></linearGradient><path d="M72.5 17a32 32 0 0 0-17 17.7c-1.1 2.8-2 6-1.1 9s4 5.4 7 4.7c2-.5 3.3-2.2 4.8-3.6a28 28 0 0 1 7.7-5.4c3.5-1.7 7.4-2.6 10.9-4.4 3.4-1.8 6.6-4.9 7-8.8.5-3.8-1.9-7.6-5.3-9.4-3.3-1.9-9-2.1-14 .1" style="fill:url(#a)"/><g style="opacity:.59"><path d="M52.2 25.2q.8 0 1.2-.6c1.3-2 4.5-7.3 13-12 5-2.7 9.2-3.8 10.7-4.1 4.2-1 2.7-3.1 0-2.8A41 41 0 0 0 51 23c-.7 1 0 2.3 1.1 2.2" style="fill:#fff"/></g><g style="opacity:.59"><path d="M117 61.7c-1.2.1-2.4 2.4-2.7 2.8-1.2 2-3.7 7-12.2 11.8a53 53 0 0 1-10 4.4c-3.4 1-2.7 3.2 0 2.7 3.1-.6 16.6-4.2 25.2-18.4.6-1 1.5-3.5-.2-3.3" style="fill:#fff"/></g><linearGradient id="b" x1="58.2" x2="62.4" y1="96.4" y2="53.7" gradientTransform="rotate(12.2 64 220.1)" gradientUnits="userSpaceOnUse"><stop offset=".3" style="stop-color:#fff"/><stop offset="1" style="stop-color:#fff;stop-opacity:0"/></linearGradient><path d="M86 76.2c-4.5-.1-5.4-2.2-4.5-3.9.8-1.3 2.5-1.6 4-1.7a41 41 0 0 0 22.1-10.9c-1 5.5-3.2 8.3-6.5 11a22 22 0 0 1-15 5.5" style="fill:url(#b)"/></svg>