<svg xml:space="preserve" width="16" height="16" viewBox="0 0 128 128"><path d="M50.8 4.9C9.8 4.9 10 42.8 10 43.4c0 24.6 1.9 59.2 11.7 72.9 3.9 5.4 11.4 5.7 11.4 5.7h34s7.5-.3 11.4-5.7c9.8-13.7 11.7-48.3 11.7-73 0-.5 1.5-38.4-39.5-38.4" style="fill:#543930"/><radialGradient id="a" cx="50.2" cy="67.6" r="47.5" gradientTransform="matrix(1 0 0 -1.19 0 140.84)" gradientUnits="userSpaceOnUse"><stop offset=".8" style="stop-color:#6d4c41;stop-opacity:0"/><stop offset="1" style="stop-color:#6d4c41"/></radialGradient><path d="M50.8 4.9C9.8 4.9 10 42.8 10 43.4c0 24.6 1.9 59.2 11.7 72.9 3.9 5.4 11.4 5.7 11.4 5.7h34s7.5-.3 11.4-5.7c9.8-13.7 11.7-48.3 11.7-73 0-.5 1.5-38.4-39.5-38.4" style="fill:url(#a)"/><linearGradient id="b" x1="4" x2="96" y1="18.2" y2="18.2" gradientTransform="matrix(1 0 0 -1 0 128)" gradientUnits="userSpaceOnUse"><stop offset="0" style="stop-color:#448aff"/><stop offset=".4" style="stop-color:#3b7dff"/><stop offset="1" style="stop-color:#2962ff"/></linearGradient><path d="M50.1 95.7H50c-22.5 0-46 7.3-46 25v3.3h92v-3.2c0-16.8-23.2-25-45.9-25" style="fill:url(#b)"/><path d="M50 92.4h-9v10a8 8 0 0 0 8.2 8.1h1.6c4.6 0 8.3-3.6 8.3-8.1v-10z" style="fill:#e59600"/><path d="M50.2 16C33 16 17.1 28.8 17.1 56a40 40 0 0 0 25.2 38.8 24 24 0 0 0 7.9 1.5q3.6 0 7.8-1.5A40 40 0 0 0 83.4 56c0-27.2-15.9-40-33.1-40" style="fill:#ffca28"/><path d="M54 68h-7.6q-1.1.5-.7 1.7c.3.7 1.7 2.6 4.5 2.6s4.2-2 4.5-2.6q.4-1.2-.7-1.6" style="fill:#e59600"/><ellipse cx="35" cy="58.9" rx="4.9" ry="5" style="fill:#404040"/><ellipse cx="65.5" cy="58.9" rx="4.9" ry="5" style="fill:#404040"/><path d="M41.2 49.8c-1-1.2-3-3-7.2-3s-6.4 1.8-7.3 3q-.5 1 0 1.6t2 .4c1.4-.2 2.4-1.2 5.3-1.2 2.8 0 4.4.9 5.3 1.2q1.4.3 2-.4.4-.6-.1-1.6m32.5 0c-1-1.2-3-3-7.2-3s-6.4 1.8-7.3 3q-.5 1 0 1.6t1.9.4c1.4-.2 2.5-1.2 5.3-1.2 2.9 0 4.5.9 5.4 1.2q1.4.3 1.9-.4t0-1.6" style="fill:#6d4c41"/><path d="M58.3 76.1a25 25 0 0 1-16.6 0c-1.8-1-3.7.6-3 2.3s6.4 5.3 11.3 5.3 10.4-3.7 11.2-5.4c.7-1.6-1.1-3.2-3-2.2" style="fill:#795548"/><linearGradient id="c" x1="104" x2="117" y1="17.1" y2="17.1" gradientTransform="matrix(1 0 0 -1 0 128)" gradientUnits="userSpaceOnUse"><stop offset="0" style="stop-color:#448aff"/><stop offset=".4" style="stop-color:#3b7dff"/><stop offset="1" style="stop-color:#2962ff"/></linearGradient><path d="M116.9 122.5c0-6.8-3.9-20-11.8-24.7L104 124h13z" style="fill:url(#c)"/><path d="m118 54.8-11.2-.4a8 8 0 0 0-7.7 7.8l-.6 36.4h3.8l.6-36.3c0-2.2 1.8-4 3.9-3.9l11 .3z" style="fill:#9e9e9e"/><path d="M106.6 60.1h-1.4a2 2 0 0 1-2-2.1v-2.2q.2-2 2-2.1h1.5c1.1 0 2 1 2 2.1V58a2 2 0 0 1-2 2.1" style="fill:#504f4f"/><path d="m103 123 .5-32.8c0-1-1.3-2-3-2s-3 .8-3 1.9l-.5 32.8z" style="fill:#616161"/><path d="m104.8 124 .3-29c0-1.9-1.3-3.4-3-3.4h-3.3c-1.7-.1-3 1.4-3 3.3l-.4 29z" style="fill:#504f4f"/><path d="M112.5 61.5c-2.7 0-5.7-1.8-5.7-5.5 0-4.2 3.2-5.3 5.1-5.3 4.5 0 9.2 3.8 10.9 5.3-1.8 1.5-6.6 5.5-10.3 5.5" style="fill:#40c4ff"/><path d="M112 51.6c3.6 0 7.5 2.8 9.5 4.4-2.3 2-6.2 4.6-9 4.6-1.8 0-4.8-1-4.8-4.6s2.6-4.4 4.2-4.4m0-1.7c-2.5 0-5.9 1.7-5.9 6 0 4.5 3.5 6.4 6.5 6.4 5 0 11.5-6.3 11.5-6.3s-6-6.1-12-6.1" style="fill:#2962ff"/><path d="M112.6 53.6c3.5 1.3 5.2 2.4 5.2 2.4s-1 1.2-4.7 2q-4.2.7-4.4-2.2c0-1.7 2.1-2.8 4-2.2" style="fill:#84ffff"/><path d="M113.9 110q-.4-2.2-1.1-3.9a19 19 0 0 0-7-9.1 15 15 0 0 0-10-3.2q-3.3.6-4.1 2.6-.6 1.5 0 2.8c-1.1.3-2.6 1-3.1 2.4a4 4 0 0 0 .5 3.8c-.9.6-2 1.5-2.4 2.7-.5 1.6 1 3.4 2 4.3q-.8 1.1-1.2 2.2c-.7 3.3 3.7 5.2 6.4 5.8a1 1 0 0 0 1-.5l1-1.6a53 53 0 0 0 11.2 2.4c1.9-.7 3.2-2.2 4.3-3.6l.5-.7a9 9 0 0 0 2-6.4" style="fill:#f44336"/><path d="m52.7 124 6.6-19.5H39.4l8 19.5z" style="fill:#f5f5f5"/><linearGradient id="d" x1="36.9" x2="36.9" y1="32" y2="2.8" gradientTransform="matrix(1 0 0 -1 0 128)" gradientUnits="userSpaceOnUse"><stop offset="0" style="stop-color:#1565c0"/><stop offset=".7" style="stop-color:#0d47a1"/><stop offset="1" style="stop-color:#0d47a1"/></linearGradient><path d="M35.7 108.4q.5 0 .9.5l10.1 15h.6L41 96l-7.4 1.2-7 14.9 8.8-3.5z" style="fill:url(#d)"/><linearGradient id="e" x1="36.9" x2="36.9" y1="32" y2="2.8" gradientTransform="matrix(-1 0 0 -1 100 128)" gradientUnits="userSpaceOnUse"><stop offset="0" style="stop-color:#1565c0"/><stop offset=".7" style="stop-color:#0d47a1"/><stop offset="1" style="stop-color:#0d47a1"/></linearGradient><path d="M64.3 108.4a1 1 0 0 0-.9.5l-10.1 15h-.6L59 96l7.5 1.2 6.8 14.9-8.7-3.5z" style="fill:url(#e)"/><path d="M50.8 4.9C9.8 4.9 10 42.8 10 43.4q0 11.9.7 25.3h6.8c-.1-3 2-22 8-23.3 22.4-5 35-16 35-16 3.3 7.3 13.6 14.3 17.3 17 3 2.1 4 18.5 4 22.3h7.6v-.1c.6-8.8.8-17.5.8-25.2 0-.6 1.5-38.5-39.5-38.5" style="fill:#543930"/><radialGradient id="f" cx="50.5" cy="63.5" r="49.8" gradientTransform="matrix(1 0 0 -1.214 0 141.57)" gradientUnits="userSpaceOnUse"><stop offset=".8" style="stop-color:#6d4c41;stop-opacity:0"/><stop offset="1" style="stop-color:#6d4c41"/></radialGradient><path d="M50.8 4.9C9.8 4.9 10 42.8 10 43.4q0 11.9.7 25.3h6.8c-.1-3 2-22 8-23.3 22.4-5 35-16 35-16 3.3 7.3 13.6 14.3 17.3 17 3 2.1 4 18.5 4 22.3h7.6v-.1c.6-8.8.8-17.5.8-25.2 0-.6 1.5-38.5-39.5-38.5" style="fill:url(#f)"/><path d="M78.7 21.7H21.3V6.3S28.8 4 50.1 4c13.1 0 28.6 2.5 28.6 2.5z" style="opacity:.74;fill:#423f3e"/><path d="M12 44H8a4 4 0 0 1-4-4v-8a4 4 0 0 1 4-4h4a4 4 0 0 1 4 4v8a4 4 0 0 1-4 4m80 0h-4a4 4 0 0 1-4-4v-8a4 4 0 0 1 4-4h4a4 4 0 0 1 4 4v8a4 4 0 0 1-4 4M49.6 32.8a95 95 0 0 0-39.1 11v9.9c7.6-6.5 22.8-11.5 39.1-11.5 16.5 0 29 6.3 39.8 11.6 0-2.1.4-10.2-.7-12.7-8-4.7-25.6-8.3-39.1-8.3" style="fill:#807978"/><linearGradient id="g" x1="50" x2="50" y1="123.6" y2="76.5" gradientTransform="matrix(1 0 0 -1 0 128)" gradientUnits="userSpaceOnUse"><stop offset="0" style="stop-color:#bdbdbd"/><stop offset="1" style="stop-color:#757575"/></linearGradient><path d="M90 31.6q0-1.7-.7-3.2L81.5 9.1a8 8 0 0 0-3-3q-.5-.2-.5.2v9.1q-.2 1.6-1.8 1.8H23.8Q22 17 22 15.4V6.2q0-.3-.3-.2a8 8 0 0 0-3.2 3l-7.8 19.4q-.6 1.5-.6 3L6 56.3v.4c.2.6.7 1.8 1.8 2.4 0 0 11.2-19.3 40.5-21.5h3.4C81 39.7 92.3 59 92.3 59c1-.6 1.5-1.8 1.6-2.4l.1-.4z" style="fill:url(#g)"/><path d="M67.6 28q-1 0-1-.7v-4.7q0-.7 1-.8.9.1 1 .8v4.7q-.1.7-1 .8M58.3 30q-1-.1-1-.8v-8.5q0-.6 1-.7t1 .7v8.5q-.1.6-1 .7M50 28.4q-.9 0-1-.7v-5.5q.1-.6 1-.7t1 .7v5.5q-.1.6-1 .7M32.4 28q-.9 0-1-.7v-4.7q.1-.7 1-.8 1 .1 1 .8v4.7q0 .7-1 .8m9.3 1.9q-.9-.1-1-.8v-8.5q.1-.6 1-.7t1 .7v8.5q0 .6-1 .7" style="fill:#807978"/><linearGradient id="h" x1="50" x2="50" y1="94.7" y2="68.8" gradientTransform="matrix(1 0 0 -1 0 128)" gradientUnits="userSpaceOnUse"><stop offset="0" style="stop-color:#bdbdbd"/><stop offset="1" style="stop-color:#757575"/></linearGradient><path d="M7.8 59S19.3 39 50 37.3C80.7 39 92.3 59 92.3 59c1-.6 1.5-1.8 1.6-2.4-2.9-5.7-12.6-17.8-36.4-22.8-3.5-.7-11.4-.7-14.8 0-23.8 5-33.7 17-36.6 22.8.1.6.6 1.8 1.7 2.4" style="fill:url(#h)"/></svg>