<svg xmlns:xlink="http://www.w3.org/1999/xlink" xml:space="preserve" width="16" height="16" viewBox="0 0 128 128"><linearGradient id="a" x1="60.5" x2="71.3" y1="44.7" y2="73.5" gradientTransform="matrix(1 0 0 -1 0 128)" gradientUnits="userSpaceOnUse"><stop offset="0" style="stop-color:#8d5738"/><stop offset=".5" style="stop-color:#a56c43"/></linearGradient><path d="M109 91.3c0 .2-10.1 11.9-10.1 11.9l-7.2-5.7 5-7.7.5-.6-1-.4c-2.3-1-8.2-3.3-11-3.9s-3.9.5-4.9 2.6l-.6 1.6c-2.8 6.7-6.3 16.3-6.3 16.3-12.5-1.4-25.4-3.7-38-4.3C39.6 94.2 44.8 79 45.5 77l.2-.7c.8-3-2-3.6-6.4-4.9-3.5-1-7.8-2-11.8-3.7-5.2-2.2-5.2-7.7-4.2-10.5 2-6 8.8-15.3 9.2-16.1 1-3-2.4-3-4.3-7-.8-1.9 0-3.6 1-5.3 1.3-2 3.8-3 6.2-3.3q3.8-.7 7.2.7l1.5.7q.3.6.8 1c.6.2 1.2 0 1.8.3q.7.5 1 1.3c.2 1 .8 1.6.6 2.4-.9 2.7-3 4.7-4.6 7.6q-1.4 2.8-2.5 5.6-2.3 5-4.1 10.1l-.3.7.7.2 17.6 4.3 2.4.6.8.2c7 1.8 13.4 3.4 20 6h.2l3 1.1c17.2 6.7 22.3 10 25 11.6 4 2.3 6.2 6.8 2.6 11.4" style="fill:url(#a)"/><path d="m37.5 56-4.6 2.7h-.2v-.2l4.4-3.3-.3.7z" style="fill:#875334"/><linearGradient id="b" x1="68.2" x2="57.7" y1="63.5" y2="33.1" gradientTransform="matrix(1 0 0 -1 0 128)" gradientUnits="userSpaceOnUse"><stop offset="0" style="stop-color:#651fff"/><stop offset=".7" style="stop-color:#5914f2"/><stop offset="1" style="stop-color:#530eeb"/></linearGradient><path d="m81.5 68.3-.3.8q-4.8 12.5-.9 18.4l-.6 1.6c-2.8 6.7-6.3 16.3-6.3 16.3-12.5-1.4-25.4-3.7-38-4.3C39.6 94.3 44.8 79 45.5 77l.2-.7Q51.5 73.5 55 61l.1-.5 2.4.6.8.2c-.4 11.2 4.5 13 6.3 13.7 6.5 2.4 11.2-2.9 14-7.7z" style="fill:url(#b)"/><path d="M66.8 72.6a5 5 0 0 1-4.1-6.1l1-4.7 10.1 2-.9 4.7a5 5 0 0 1-6 4" style="fill:#7a4c32"/><path d="M76.4 25.2C68 23.6 58.5 31 56 43.9c-2.6 12.8 4.2 20.8 12.4 22.4s17.4-3.2 19.9-16c2.5-13-3.5-23.5-11.9-25.1" style="fill:#a56c43"/><path d="M68.5 44q-.4-1.3-3.2-2.2c-2-.4-3.2.3-3.8.8q-.3.4-.1.7.1.4.8.4c.5 0 1.4-.3 2.7 0q2 .5 2.5 1c.5.5.8.2 1 0q.2-.2 0-.7M84 47.2c-.3-.7-1.2-1.7-3.2-2.1s-3.1.2-3.7.7q-.4.3-.2.7t.9.4c.4 0 1.3-.3 2.7 0q1.9.5 2.4 1c.5.5.8.2 1 0q.2-.2.1-.7" style="fill:#42312c"/><ellipse cx="63.8" cy="47.6" rx="2.5" ry="2.4" style="fill:#42312c" transform="rotate(-79 63.84 47.6)"/><ellipse cx="79.7" cy="50.7" rx="2.5" ry="2.4" style="fill:#42312c" transform="rotate(-79 79.68 50.71)"/><path d="M73.6 58.9c-1.7.6-6.7-.4-8-1.6-.8-.7-2-.1-1.7.8.2.8 2.6 3.2 5 3.6s5.4-.8 6-1.5c.4-.7-.3-1.7-1.3-1.4" style="fill:#473530"/><path d="m72.4 53.8-3.4-.7h-.2q-.5 0-.5.7c.1.4.6 1.5 2 1.7s2.2-.5 2.4-.8q.3-.6-.2-.9" style="fill:#875334"/><circle cx="35.9" cy="20" r="16" style="fill:#ff9100"/><radialGradient id="c" cx="31.3" cy="113.1" r="17.7" gradientTransform="matrix(1 0 0 -1 0 128)" gradientUnits="userSpaceOnUse"><stop offset=".2" style="stop-color:#ffa726"/><stop offset=".8" style="stop-color:#b33f00"/></radialGradient><circle cx="35.9" cy="20" r="16" style="opacity:.4;fill:url(#c)"/><defs><circle id="d" cx="35.9" cy="20" r="16"/></defs><clipPath id="e"><use xlink:href="#d" style="overflow:visible"/></clipPath><g style="clip-path:url(#e)"><path d="M36 20a19 19 0 0 1 .5-16.3" style="fill:none;stroke:#6d4c41;stroke-width:.7869"/><path d="M35 7.5h1c6.5 0 12.2 3.2 15.7 8.1m-17.2-1.4H36a19 19 0 0 1 15.9 8.4" style="fill:none;stroke:#5d4037;stroke-width:.7869"/><path d="M36 20a19 19 0 0 1 13.8 8.7" style="fill:none;stroke:#4e342e;stroke-width:.7869"/><path d="m47.2 25.5-.5.8c-3.2 5.7-8.9 9-14.9 9.6" style="fill:none;stroke:#3e2723;stroke-width:.7869"/><path d="m41.7 21.6-.8 1.4a19 19 0 0 1-15.2 9.6M36 20a19 19 0 0 1-14.5 7.7" style="fill:none;stroke:#4e342e;stroke-width:.7869"/><path d="m25.5 27-.5-.8a19 19 0 0 1-.8-17.6" style="fill:none;stroke:#6d4c41;stroke-width:.7869"/><path d="m31.7 24.2-.9-1.3a19 19 0 0 1-.6-18" style="fill:none;stroke:#795548;stroke-width:.7869"/></g><radialGradient id="f" cx="76.9" cy="100.8" r="23.4" gradientTransform="matrix(1 0 0 -1 0 128)" gradientUnits="userSpaceOnUse"><stop offset=".3" style="stop-color:#651fff"/><stop offset=".7" style="stop-color:#5914f2"/><stop offset=".9" style="stop-color:#530eeb"/></radialGradient><path d="M77.9 21.8c-15-3.5-23 9-23.3 21 0 1.4-1 0-1.5 3-.7 6 2.8 7.6 2.8 7.6s-1-19.2 17.9-14.6c19 4.7 10.7 20.6 10.7 20.6s3.5-.7 5.5-4.6c1.8-3.4-.6-2.1.3-4.8 3.2-9.5 3-24.5-12.4-28.2" style="fill:url(#f)"/><path d="m56.3 48.9-.9-3.1c-.5-1.4-1.4-2-1.4-2l.4-.3.2-.3s.7.2 1.6 1.7c.7 1.4 0 4 0 4m29.7 6.7s1.4-2 2.6-3 1.8-.8 1.8-.8l-.2-.6v-.5q0-.2-1.8.8c-2 1.2-2.4 4-2.4 4" style="fill:#4000cc"/><path d="M112 92.2c-6.6 0-10 7.2-16 7.2s-9.4-7.2-16-7.2-10 7.2-16 7.2-9.4-7.2-16-7.2-10 7.2-16 7.2-9.4-7.2-16-7.2c-5 0-8.1 4.1-12 6.1V124h120V98.3c-3.9-2-7-6.1-12-6.1" style="fill:#039be5"/><path d="M112 111.9c-6.6 0-10-7.2-16-7.2s-9.4 7.2-16 7.2-10-7.2-16-7.2-9.4 7.2-16 7.2-10-7.2-16-7.2-9.4 7.2-16 7.2c-5 0-8.1-4.1-12-6.1V124h120v-18.2c-3.9 2-7 6-12 6" style="fill:#29b6f6"/><path d="m101.5 85.6-4.7 4.2.4-.7-1-.4z" style="fill:#875334"/><linearGradient id="g" x1="222.7" x2="222.4" y1="-1980" y2="-1991.1" gradientTransform="rotate(215.4 281.4 -989.3)scale(-.885 1)" gradientUnits="userSpaceOnUse"><stop offset=".5" style="stop-color:#a56c43"/><stop offset="1" style="stop-color:#8d5738"/></linearGradient><path d="m92 105.6-2.1-1.5a6 6 0 0 1-1.4-8.3l.3-.4A6 6 0 0 1 97 94l2 1.5a6 6 0 0 1 1.5 8.3l-.3.4a6 6 0 0 1-8.3 1.4" style="fill:url(#g)"/></svg>