<svg xml:space="preserve" width="16" height="16" viewBox="0 0 128 128"><path d="m43.3 24.9 5.1 6.8s4.6-5.2 16-5.4C75.1 26 79.8 32 79.8 32l7.1-13.8S84.1 9.2 75 5q-4.4-2-11.2-2a30 30 0 0 0-12.3 3c-6.4 2.8-8 18.9-8 18.9" style="fill:#ffa828"/><path d="M16.5 106c-.1 1.5 2.5 2.6 7.6 9s9 10.8 9.8 11 22-13.1 42.2-40.6 22.6-54.8 17.7-63.9C87.6 10 75.3 5.2 75.3 5.2S86.6 31 66 60.7C44.2 91.9 16.7 104.4 16.5 106" style="fill:#ffb803"/><path d="M51 6.2s-14.8 9.3-18 20c-4 13 .4 33.3 17.8 57.2S92.2 124 93.3 124s7.6-6.7 10.5-10.4 7-8.7 6.9-9.4-27.7-16-39-29.6a96 96 0 0 1-22-43.2C47.6 14.5 51 6.2 51 6.2" style="fill:#ffd54f"/></svg>