<svg xml:space="preserve" width="16" height="16" viewBox="0 0 128 128"><path d="M41 13.5c2.5-4.1 8.3-7.3 13-6.5 5.4.9 8.2 4.7 9 9.6q.4 2.7 0 4.7l-.4 1.6c-.2 1.3 2.3 2.6 2.6 4 .2 1.2-2 1.9-2.2 2-1 1 .5 5.7-5.8 6.2-2.4.1-1.9 0-2.6.3-1 .4-1 3.3-1 3.3s-.6 4.8-4.7 3.6c-4.7-1.5-5-4.8-5-4.8s1.8-4.7-1-9.5c-2.2-3.9-3.5-11.9-1.9-14.5" style="fill:#a56c43"/><path d="M62.3 31.6q-1.3 0-2.4-.7c-.8-.6-.3-1.3.7-.9q.8.4 2 .2z" style="fill:#473530"/><path d="M58.7 25.4q-1.1-.1-1.1-1.8t1.2-1.7q1 .1 1 1.8-.1 1.6-1.1 1.7m.9-4.4c1.1.3 1.3-.4 1-1-.4-.4-1-.8-2.3-.4q-1.7.6-2 1.5-.4.7 0 .8c.4 0 1.9-1.2 3.3-.9" style="fill:#42312c"/><path d="M40.5 10.7a15 15 0 0 1 10.6-5q4.1 0 7.5 1.6s4 2.3 5 4.4 0 3.5-.2 3.7c-.4.4-1.2.3-1.2.3-1.6-.2-6.3-.8-8.9-.3q-.7 0-1 .6l-.2 1.4c-.2 2.3 0 3.8-.8 5.2l-.6.5-1-1.4q-.7-1.5-1.8-1.5c-2.3.4-2 4.5.6 5.5 0 0-.3 2.6-2.7 3.6-2.2.8-3 .3-3.3-.7-.5-2-1.6-3.3-2.2-4.3-.7-1.1-1.5-2.3-2-5.4q-.7-4.6 2.2-8.2" style="fill:#3c2c23"/><radialGradient id="a" cx="-946.1" cy="640.8" r="1" gradientTransform="matrix(-16.203 1.903 1.877 15.98 -16477.9 -8422.9)" gradientUnits="userSpaceOnUse"><stop offset=".5" style="stop-color:#554138;stop-opacity:0"/><stop offset="1" style="stop-color:#554138"/></radialGradient><path d="M40.5 10.7a15 15 0 0 1 10.6-5q4.1 0 7.5 1.6s4.1 2.3 5 4.4c1 2.6 0 3.5-.2 3.7-.4.4-1.2.3-1.2.3-1.6-.2-6.3-.8-8.9-.3q-.7 0-1 .6l-.2 1.4c-.2 2.3 0 3.8-.8 5.2l-.6.5-1-1.4q-.7-1.5-1.8-1.5c-2.3.4-2 4.5.6 5.5 0 0-.3 2.6-2.7 3.6-2.2.8-3 .3-3.3-.7-.5-2-1.6-3.3-2.2-4.3-.7-1.1-1.5-2.3-2-5.4q-.7-4.6 2.2-8.2" style="fill:url(#a)"/><linearGradient id="b" x1="70.1" x2="92.1" y1="47.7" y2="22.9" gradientTransform="matrix(1 0 0 -1 0 130)" gradientUnits="userSpaceOnUse"><stop offset=".5" style="stop-color:#e0e0e0"/><stop offset="1" style="stop-color:#bdbdbd"/></linearGradient><path d="m104.3 121.2 2.1-2-35.7-37.5-10-10.3-2 2 15.3 16z" style="fill:url(#b)"/><path d="m93.7 105.9 12.7 13.3-2.1 2L91.6 108z" style="fill:#ff3d00"/><linearGradient id="c" x1="103.6" x2="107.8" y1="11.3" y2="7.5" gradientTransform="matrix(1 0 0 -1 0 130)" gradientUnits="userSpaceOnUse"><stop offset=".5" style="stop-color:#e0e0e0"/><stop offset="1" style="stop-color:#bdbdbd"/></linearGradient><path d="M106.2 124a2.9 2.9 0 1 1 0-5.8 2.9 2.9 0 0 1 0 5.7" style="fill:url(#c)"/><path d="m70.7 81.7-2.2 2-11.8-12.3a1 1 0 0 1 0-1.4l.7-.7a1 1 0 0 1 1.5 0z" style="fill:#636262"/><path d="m23.6 108.8 14-16a6 6 0 0 0 1.5-3.6L40.5 67l15.4 1.7-4.9 23a16 16 0 0 1-5.9 9.4l-16.4 12.5z" style="fill:#646464"/><path d="m40.7 63.2 17.5 1.6L62.7 85q1.2 5.6.8 11.4L62 119.6h-6.7l-2.9-24.9-5.1-13.3c-3.3-1.6-7.4-4-7.4-9.7z" style="fill:#7c7c7c"/><path d="M54.2 124q-1.1 0-1.2-1.2v-2.7c0-2 2-4.1 2-4.1h6.9l6.2 2a4 4 0 0 1 2.6 3.7v1.3q-.1 1-1 1z" style="fill:#4568ad"/><path d="M19.3 111.9q-.7-.8 0-1.6l2-2c1.3-1.3 4.2-1.5 4.2-1.5l4.9 5 3 5.8a4 4 0 0 1-.9 4.4l-.9.9a1 1 0 0 1-1.4 0z" style="fill:#325599"/><radialGradient id="d" cx="-937.2" cy="627.4" r="1" gradientTransform="matrix(-21.188 0 0 21.188 -19804.14 -13241.22)" gradientUnits="userSpaceOnUse"><stop offset=".4" style="stop-color:#00bfa5"/><stop offset=".8" style="stop-color:#00b29a"/><stop offset="1" style="stop-color:#00ab94"/></radialGradient><path d="M41.9 73.8h13.9c2.2 0 4-2.2 4-4.9l-2.1-22.4c-.4-4-1.9-8-4.7-9.6-4.8-3.4-8.5-1.3-10 .8a12 12 0 0 0-1.6 5.9L39 68.9c0 2.9.6 4.9 2.9 4.9" style="fill:url(#d)"/><linearGradient id="e" x1="49.8" x2="52.6" y1="63.5" y2="76.5" gradientTransform="matrix(1 0 0 -1 0 130)" gradientUnits="userSpaceOnUse"><stop offset=".6" style="stop-color:#a56c43"/><stop offset="1" style="stop-color:#8d5738"/></linearGradient><path d="m41.9 57.3 1.8-10 8 1-2.5 9.9 9.4 9.7c2.6 2.6-2.2 5.2-4 4.1l-8.4-6.9c-1.5-1.3-4.8-3.5-4.3-7.8" style="fill:url(#e)"/><linearGradient id="f" x1="55.5" x2="63.9" y1="61.3" y2="53.9" gradientTransform="matrix(1 0 0 -1 0 130)" gradientUnits="userSpaceOnUse"><stop offset=".6" style="stop-color:#a56c43"/><stop offset="1" style="stop-color:#8d5738"/></linearGradient><path d="m57.4 68.4-.1-.6q0-.4.6-.3l4.5 1.6c.4.2 1.9.7 2 2.5v3.6L62 72.8l.2 3.6q-.1 2-2.4 1c-2-1-3.2-1.3-4.1-2.8-.3-.5-.8-3.6-1-4.2z" style="fill:url(#f)"/><path d="m52.4 53.4-10.9-2 1.8-9.7c.5-3 3.4-5 6.3-4.4 3 .5 5 3.4 4.5 6.4z" style="fill:#04a287"/><path d="M50.7 73c1.1-3 5-6.5 8.1-6.2 2.3 0 2.2 1.8 2.2 1.8l-2.3-.8c-2.3-.3-6 3-7 5.6-.4 1-.6 2.4.7 3.2q.3.3.6.1c.6-.2 1.7-1.8 2.4-3 0 0 .1.7.3 1l.3.4a7 7 0 0 1-2.7 2.5l-.5.1-.9-.2Q49.7 76 50.7 73" style="fill:#504f4f"/></svg>