<svg xml:space="preserve" width="16" height="16" viewBox="0 0 128 128"><radialGradient id="a" cx="63.6" cy="512.9" r="57" gradientTransform="translate(0 -450)" gradientUnits="userSpaceOnUse"><stop offset=".5" style="stop-color:#fde030"/><stop offset=".9" style="stop-color:#f7c02b"/><stop offset="1" style="stop-color:#f4a223"/></radialGradient><path d="M63.6 118.8c-27.9 0-58-17.5-58-55.9S35.7 7 63.6 7c15.5 0 29.8 5.1 40.4 14.4 11.5 10.2 17.6 24.6 17.6 41.5s-6.1 31.2-17.6 41.4a61 61 0 0 1-40.4 14.5" style="fill:url(#a)"/><path d="M72.9 85a9 9 0 0 0 3-6c.1-3.5-.8-4.8-2-6.3-2.7-3.7-10.4-2.8-10.4-2.8-2 0-4.4 1-4.1 3.4a4 4 0 0 0 2.9 2.7c3 .7 7.3 0 7.5 3 .1 3.6-5.2 2-5.6 5.8s5.6 3.2 5.6 5.7c0 2-2 2.3-4.1 2.7-1.8.4-5.2 1-5.5 3s.9 4.6 5.7 3.8c7.6-1.1 10.2-5.3 10.2-7.8 0-2.8-1.1-5.5-3.2-7.3M49 56.9l-.1-.2-.5-.6-.5-.5-.7-.8-.9-.7-.8-.5-.7-.3h-.4.3-.5q-.2 0 0 0-.4 0-.7.3l-1.7 1.2-1.3 1.4-.5.6-.2.3a4 4 0 0 1-5.7.6 4 4 0 0 1-1.4-3.5l.2-1.1a14 14 0 0 1 4.7-6.8 11 11 0 0 1 4.9-2.1l.6-.1h3.4l1.8.6q1.7.6 3 1.6a13 13 0 0 1 4.9 7.6v.2c.3 2-1.2 4-3.2 4.3h-.1q-2.4.2-3.9-1.5m39.5 0-.2-.2-.4-.6-.6-.5-.7-.8-1.7-1.2-.6-.3h-.4.3-.6.1-.1q-.3 0-.7.3l-.8.5-.8.7-1.3 1.4-.6.6-.2.3a4 4 0 0 1-5.6.6 4 4 0 0 1-1.5-3.5l.3-1.1 1.2-3a13 13 0 0 1 7.3-5.7l1-.2.7-.1h3.3q1 .2 1.9.6 1.5.6 3 1.6a13 13 0 0 1 4.7 6.9l.1.7v.2c.3 2-1 4-3.1 4.3h-.1q-2.4.4-4-1.5" style="fill:#422b0d"/><path d="M111.5 29.7a57 57 0 0 1 8.1 30.2c0 16.9-6.1 31.2-17.6 41.4a61 61 0 0 1-40.4 14.5 59 59 0 0 1-48.2-23 58 58 0 0 0 50.2 26c15.4 0 29.8-5.2 40.4-14.5a54 54 0 0 0 17.6-41.4q-.1-19.2-10.1-33.2" style="fill:#eb8f00"/></svg>