<svg xml:space="preserve" width="16" height="16" viewBox="0 0 128 128"><path d="M4.3 86.4 4 90.8c-.1 2.5 1.7 3.4 3.5 3.4h113c1.8 0 3.6-.7 3.5-3.6l-.3-4.2z" style="fill:#2f7889"/><path d="M120.5 90.8H7.5a3.4 3.4 0 0 1-3.3-3.3l3-50.3c0-2 1.5-3.4 3.3-3.4h107c1.8 0 3.4 1.6 3.4 3.4l2.9 50.3c0 1.8-1.5 3.3-3.3 3.3" style="fill:#c3d2d9"/><path d="M12.5 48q.2 1.5 1.5 1.6h4.7q1.5-.2 1.6-1.6l.1-2.3h-7.7zm11.7 0q.1 1.5 1.6 1.6h4.6q1.5-.1 1.6-1.6v-2.3h-7.7zm11.1 0q.2 1.5 1.7 1.6h4.6q1.4 0 1.6-1.6v-2.3h-7.9zm11.3 0q.1 1.5 1.6 1.6h4.6q1.6 0 1.7-1.6v-2.3h-8zm11.1 0q.1 1.5 1.7 1.6H64q1.5 0 1.7-1.6v-2.3h-8zM69 48q.2 1.5 1.7 1.6h4.6q1.4 0 1.6-1.6v-2.3H69zm11.2 0q.1 1.5 1.6 1.6h4.6q1.6.1 1.7-1.6v-2.3h-8zm11.1 0q.2 1.5 1.7 1.6h4.8c1 0 1.9-.7 1.8-1.7l-.2-2.2h-8zm11.7 0c0 1 .9 1.6 1.8 1.6h8.8q1.6-.1 1.7-1.6l-.2-2.3h-12zm4.2 11.7q.2 1.5 1.7 1.7h5.4q1.6-.1 1.7-1.7v-1.5h-8.8zm-11.4 0q.1 1.5 1.7 1.7h4.6q1.5-.1 1.7-1.7v-1.5h-8zm-11.2 0q.1 1.5 1.6 1.7h4.6q1.6-.1 1.7-1.7v-1.5h-8zm-11.2 0q.2 1.5 1.7 1.7h4.6q1.5-.1 1.6-1.7v-1.5h-7.9zm-11.3 0q.3 1.5 1.7 1.7h4.6q1.5-.1 1.7-1.7v-1.5h-8zm-11.1 0q.1 1.5 1.6 1.7h4.6q1.6-.1 1.7-1.7v-1.5h-8zm-11.2 0q.2 1.5 1.7 1.7H46q1.4-.1 1.6-1.7v-1.5h-7.9zm-11.2 0q.1 1.5 1.6 1.7h4.6q1.5-.1 1.7-1.7v-1.5h-7.9zm-16.8 0q.1 1.5 1.6 1.7H23q1.4-.1 1.5-1.7v-1.5H11.8zm67.9 12.1q.1 1.4 1.6 1.6h4.6q1.3-.1 1.5-1.6v-1.4h-7.7zm-11.7 0q0 1.4 1.5 1.6H74q1.5-.1 1.6-1.6v-1.4h-7.8zm-11.8 0q0 1.4 1.5 1.6h4.6q1.5-.1 1.6-1.6v-1.4h-7.7zm-11.8 0q.1 1.4 1.6 1.6h4.6q1.4-.1 1.5-1.6v-1.4h-7.7zm-11.7 0c-.2.8.6 1.6 1.5 1.6h4.6q1.5-.1 1.6-1.6v-1.1h-7.7zm-21.3-.1q.1 1.5 1.6 1.7h13.5q1.4-.1 1.5-1.7l.1-1.4H11.4zm80.6.1q.1 1.6 1.6 1.7H115q1.4-.1 1.6-1.7v-1.4H92zm17.4 13.4h6.1q1.5-.1 1.7-1.7v-1.6h-9.5v1.6q.2 1.6 1.7 1.7m-12.9 0h5.2q1.6-.1 1.7-1.7v-1.6h-8.5v1.6q0 1.6 1.6 1.7m-57.5 0h49.9q1.5-.1 1.6-1.7v-1.6H37.3v1.6q.1 1.8 1.6 1.7m-12.6 0h5q1.6-.1 1.7-1.7v-1.6l-8.2.2v1.4q0 1.6 1.5 1.7m-14.1 0h6.4q1.5-.1 1.6-1.7v-1.6h-9.6v1.6q.1 1.6 1.6 1.7" style="fill:#2f7889"/><path d="M18.8 47.9h-4.6q-1.5 0-1.6-1.6l.5-4.4c0-.8.7-1.6 1.5-1.6h4.6q1.6.1 1.6 1.6l-.4 4.4q-.1 1.5-1.6 1.6m11.6 0h-4.6q-1.5 0-1.6-1.6l.2-4.4c0-.8.7-1.6 1.6-1.6h4.4q1.5.1 1.6 1.6v4.4q0 1.5-1.6 1.6m11.2 0H37q-1.6 0-1.7-1.6V42c0-.8.7-1.6 1.7-1.6h4.6q1.4.1 1.6 1.6v4.4q-.1 1.5-1.6 1.6m11.2-.1h-4.6q-1.5 0-1.6-1.6V42c0-.8.6-1.6 1.6-1.6h4.6q1.6.1 1.7 1.6v4.4q-.2 1.5-1.7 1.6m11.2-.1h-4.6q-1.5 0-1.7-1.6V42c0-.8.7-1.6 1.7-1.6H64q1.5.1 1.7 1.6v4.4q-.2 1.5-1.7 1.6m11.3-.1h-4.6q-1.6 0-1.7-1.6V42c0-.8.7-1.6 1.7-1.6h4.6q1.4.1 1.6 1.6v4.4q-.1 1.5-1.6 1.6m11.1-.1h-4.6q-1.4 0-1.6-1.6V42c0-.8.7-1.6 1.6-1.6h4.6q1.6.1 1.7 1.6v4.4q-.2 1.5-1.7 1.6m11.4-.1H93q-1.5 0-1.7-1.6V42c0-.8.7-1.6 1.7-1.6h4.6q1.5.1 1.7 1.6l.2 4.4q-.2 1.5-1.7 1.6m15.7-.1h-8.7q-1.6 0-1.7-1.6V42c0-.8.7-1.6 1.7-1.6h8.5q1.5.1 1.7 1.6l.2 4.4q-.2 1.5-1.7 1.6m-4.6 11.8h5.4q1.6-.1 1.7-1.6l-.3-4.4q-.1-1.4-1.7-1.6h-5q-1.5.1-1.7 1.6v4.4q.2 1.4 1.7 1.6m-11.5 0h4.6q1.5-.1 1.7-1.6v-4.4q-.1-1.4-1.7-1.6h-4.6q-1.5.1-1.7 1.6v4.4q.1 1.4 1.7 1.6m-11.3 0h4.6q1.6-.1 1.7-1.6v-4.4q-.1-1.4-1.7-1.6h-4.6q-1.4.1-1.6 1.6v4.4q.2 1.4 1.6 1.6m-11.2 0h4.7q1.4-.1 1.6-1.6v-4.4q-.1-1.4-1.6-1.6H75q-1.6.1-1.7 1.6v4.4q.2 1.4 1.7 1.6m-11.2 0h4.6q1.5-.1 1.7-1.6v-4.4q-.1-1.4-1.7-1.6h-4.6q-1.5.1-1.7 1.6v4.4q.3 1.4 1.7 1.6m-11.2 0h4.6q1.6-.1 1.7-1.6v-4.4q-.1-1.4-1.7-1.6h-4.6q-1.4.1-1.6 1.6v4.4c0 .8.8 1.6 1.6 1.6m-11.1 0H46q1.4-.1 1.6-1.6v-4.4q-.1-1.4-1.6-1.6h-4.6q-1.6.1-1.7 1.6v4.4q.2 1.4 1.7 1.6m-11.2 0h4.6q1.5-.1 1.7-1.6v-4.4q-.1-1.4-1.7-1.6h-4.6q-1.5.1-1.6 1.6v4.4q.1 1.4 1.6 1.6m-16.8 0H23q1.4-.1 1.5-1.6v-4.4q-.1-1.4-1.6-1.6h-9.3q-1.4.1-1.5 1.6l-.4 4.4q.1 1.4 1.6 1.6m67.9 11.9h4.6q1.5 0 1.6-1.5v-4.4q-.1-1.3-1.6-1.5h-4.6q-1.4.2-1.5 1.5v4.4q.1 1.3 1.5 1.5m-11.7 0H74q1.5 0 1.6-1.5v-4.4q-.1-1.3-1.6-1.5h-4.6q-1.5.2-1.6 1.5v4.4q.1 1.3 1.6 1.5m-11.7 0h4.6q1.5 0 1.6-1.5v-4.4q-.1-1.3-1.6-1.5h-4.6q-1.4.2-1.5 1.5v4.4q0 1.3 1.5 1.5m-11.7 0h4.6q1.4 0 1.5-1.5v-4.4q-.1-1.3-1.5-1.5H46q-1.6.2-1.6 1.5v4.4q.1 1.3 1.6 1.5m-11.8 0h4.6q1.5 0 1.6-1.5v-4.4q-.1-1.3-1.6-1.5h-4.6q-1.5.2-1.6 1.5v4.4q.1 1.3 1.6 1.5m-21.2 0h13.6q1.4 0 1.5-1.6l.3-4.4q-.1-1.4-1.5-1.6H13.2q-1.5.1-1.6 1.6l-.2 4.4q.1 1.5 1.6 1.6m80.6.1h21.3q1.6-.1 1.7-1.6l-.3-4.7c0-.8-.7-1.6-1.7-1.6H93.3q-1.5.1-1.7 1.6l.3 4.7q.2 1.5 1.7 1.6m15.8 11.7h6.1q1.5 0 1.7-1.6l-.3-4.4q-.1-1.4-1.7-1.5h-5.8q-1.5 0-1.7 1.5V82q.2 1.5 1.7 1.6m-12.9-.1h5.2q1.6 0 1.7-1.6v-4.4q-.1-1.4-1.7-1.5h-5.2q-1.4 0-1.6 1.5V82q0 1.5 1.6 1.6M39 83.5h49.9q1.5 0 1.6-1.6v-4.4q0-1.4-1.6-1.5h-50q-1.5 0-1.6 1.5V82c-.1 1 .7 1.6 1.6 1.6m-12.6-.1h5q1.6 0 1.7-1.6v-4.4q0-1.4-1.5-1.5h-5.1q-1.5 0-1.6 1.6v4.3q0 1.5 1.5 1.6m-14.1 0h6.4q1.5 0 1.6-1.6v-4.4q-.1-1.4-1.6-1.5h-6q-1.5 0-1.6 1.5l-.4 4.4q.1 1.5 1.6 1.6" style="fill:#fff"/></svg>