<svg xml:space="preserve" width="16" height="16" viewBox="0 0 128 128"><path d="m53.1 72.7 8.6-12.6c3-4.4 7.8-10.1 9.6-12.4s4.7-6.5 7.7-6.3c3 .1 3.8 3.1 4.1 4.4.6 2.3 2.7 11 4 17.9l3 18.7-5.2-1.9S80.5 64 79.6 59.7c-1-5-.6-6.4-1.2-7.2s-4.4 7.3-6 10c-3.6 6.3-6.7 11-6.7 11z" style="fill:#9c7866"/><path d="M25.9 63.3a1 1 0 0 1-1-.8c-.1 0-3-10.2-11.6-23.6C7.8 30.7 1 24 1 24a1 1 0 0 1 0-1.6 1 1 0 0 1 1.5 0s7 7.1 12.4 15.5a91 91 0 0 1 12.1 24 1 1 0 0 1-1 1.4m4.7-.3a1 1 0 0 1-1-1c-.1 0-.8-8.6-2.6-18-1.6-8.5-5-17.5-5-17.6a1 1 0 0 1 2-.7s3.4 9.2 5 17.9c1.9 9.5 2.6 18.1 2.6 18.2a1 1 0 0 1-1 1.2" style="fill:#ba967d"/><path d="m47.2 73.8 7-3s3.3-1 8.9-1.7c5.5-.7 10.6-.6 10.6-.6l-1.3 4.8s14.6 2.6 20.4 4c5.9 1.6 10.4 4.9 10.4 4.9s4.6-.7 7.6-2c4.4-1.8 10-6.3 9.8-5.1-.3 1.2-2 2.7-2.9 3.6l-2.8 2.8s2-.2 3.3-.8 4-2 3.7-1.2c-.6 1.6-4.2 4.7-7.6 6-3.5 1.1-9 2.1-9 2.1s0 2.6-2.4 5.9c-2.9 3.7-12.8 8.4-24.3 7.6C67 100.4 50 97 44 91.1c-3-3-5.4-3.6-5.4-3.6s-3.3 5.4-10 5.5c-5 .1-10.7-6.1-11.3-12-.8-7.7 29.8-7.2 29.8-7.2" style="fill:#6c4d42"/><path d="M37.1 84.2s.8 3 4.4 5.7 11-2.7 12.7-11.2c1.4-6.8.2-8 .2-8s-2.9-4.1-9.9-5.4c-4.3-.8-7.6 0-7.6 0zm37.5-14.6c-.4 1-3 7.7-7 10.3q-5.9 4-12.6 3.9c-4.4-.1-5-1.8-5-1.8l1.4-.3s6.7 0 10.9-1.9 6.6-3.6 8.6-6.5q2-3 2.7-4.5c.4-.7 1.4-.3 1 .8" style="fill:#52352a"/><path d="M24.5 91.7s1.3.7 2.6 1 2.9.1 2.9.1l-4.9 7.4c-1 1.7-3.4 4-4.9 4.5-1 .3-4 .3-5.7.2-2.2-.1-5.1-.3-5.4-1.6 0-.8.2-3.3 3.9-3.5 2.8-.1 4.6 1.7 5 1.2 1-1 6.5-9.3 6.5-9.3" style="fill:#b99680"/><path d="M17 69.3c-1.3-1.6-4.4-1.3-4.4 2.4 0 4.1 2 5.4 3.3 5.8 1.4.6 1.6-5.4 1.6-5.4s.6-1.2-.6-2.8" style="fill:#040000"/><path d="M28.1 58.5c-1.8 0-8 .4-11.2 6-2.5 4.4-2 10.9-1.3 14.6.7 4 4 12.5 12.8 12.4 10 0 18.3-19.6 9-29.6-3.1-3.3-7.5-3.4-9.3-3.4" style="fill:#b99680"/><path d="M32.8 70.3c-1.8-2-6.5-1.7-7.9 2.6-1 3.2.8 7.5 4 7.5 3.9 0 7.4-6.2 3.9-10" style="fill:#020200"/><path d="M44.5 66.7c-2 .7-.7 3.3-.8 4.5-.1 1.1-1.2 3 .5 3.9 2 1 4.6-1 4.5-4.1s-2-5.1-4.2-4.3" style="fill:#865e53"/><path d="M44.6 85.5c-2-1.2-4.8-1-6.9 3-2 4.1-6.2 14-7.4 16.4a34 34 0 0 1-4.5 7.5c-.5.3-1.4-2-5.4-1.6s-6 4.8-4.8 5.4c1.3.5 4 .6 7 .5 2.8 0 6-.3 6.9-1s4.5-5.2 6.6-8.6c3.1-5.2 6.7-11.2 8.3-14.5.9-1.7 2.9-5.6.2-7.1m10.8 7.9c1.3 2 4.4 3.9 13.8-1.8 10-6.2 22.6-25.6 23.6-26.8 1.4-1.7 2.4-3.5 2.9-3s.5 3.7 1.5 7l7.3 22.6c1.2 4 4.4 15.8 5.5 17 1.2 1.4 4.6.7 7 1.4 2.1.6 5 2 6.3 1.2s1-4.6-5.3-6.3c-4.4-1.2-4.6-.8-4.6-.8s-10.6-44.7-11.9-49c-1.2-4.4-1.9-4.9-3.1-5-2.8-.1-11.2 9-14.6 12.5S72.2 75.2 61.5 82.8c-1.6 1.2-8.3 7.3-6.1 10.6" style="fill:#b99680"/><path d="m100.8 53.6-.7-.3a1 1 0 0 1 .3-1.1l2.9-2q.6-.2 1 .3.4.7-.1 1.1l-3 1.9zm.8 4a.8.8 0 0 1-.3-1.5l4.1-1.6q.7-.2 1 .4c.2.4 0 1-.4 1l-4.1 1.7zm1.1 4a1 1 0 0 1-.8-.6q0-.6.6-1l4-1q.7 0 1 .6 0 .8-.6 1l-4 1zM81.1 43.4l-.6-.3a1 1 0 0 1 .1-1l2.6-2.2a.8.8 0 1 1 1 1.3l-2.6 2q-.2.3-.5.2m1.7 3.4a.8.8 0 0 1-.2-1.5l3.8-1.2a.8.8 0 0 1 .4 1.5L83 46.8zm1.2 3.9a.8.8 0 0 1 0-1.6l3.6-.4q.7 0 .9.7 0 .8-.7 1z" style="fill:#d4785d"/><path d="M45.4 90.6c.4 2.5 6.9 1.2 9.4.3 2.1-.8 6-2.7 7.4-2.5s7.2 11 8.4 13.4l5.4 10.1c.8 1.5 1.7 3.2 3.3 3.7q2.4.8 4.7 1.8c1.4.6 4.3 3.6 6.2 2s-.4-4-1.4-5q-1.3-1.3-4-2.3-3.2-1-3.7-1.3c-.4-.2-7.2-15.2-9.3-19.3-1.7-3.4-4.1-8.7-5.6-9.8S53.8 83 52.7 83.5 51 85 48.7 87c-1.5 1.3-3.5 2.5-3.3 3.6" style="fill:#9c7866"/></svg>