<svg xml:space="preserve" width="16" height="16" viewBox="0 0 128 128"><path d="M110.5 59c9.5-24.8 3.6-43.8.3-49.3-1.4-2.1-4-2.7-6.3-2-6.2 2-23 15.7-30.4 34.9M17.5 59C8 34.2 14 15.2 17.2 9.7c1.4-2.1 4-2.7 6.3-2 6.2 2 23 15.7 30.4 34.9m60.2 28.2c-1.8-26-19.7-44.5-50.1-44.5S15.7 44.8 13.9 70.8a39 39 0 0 0 17 36.2s12.3 9.9 33.1 10.1C84.8 117 97 107 97 107a39 39 0 0 0 17.1-36.2" style="fill:#ffc022"/><path d="M54.1 45c1.1 1 3.4.8 4.8-.7 1.6-1.9 3.3-8.2 2.2-18q-7 .5-13.2 2c3.3 5.5 4.1 15 6.2 16.7m19.8 0c-1.2 1-3.4.8-4.8-.7-1.6-1.9-3.3-8.2-2.2-18q7 .5 13.2 2c-3.3 5.5-4.1 15-6.2 16.7" style="opacity:.47;fill:#ff7043"/><path d="M122.4 64.6 105.5 73m19 3.8L106.4 80m16 13-16.9-5.8M5.6 64.6 22.5 73m-19 3.8L21.6 80m-16 13 16.9-5.8" style="fill:none;stroke:#9e9e9e;stroke-width:3;stroke-linecap:round;stroke-miterlimit:10"/><path d="m32.6 70.3-1-.2a2.2 2.2 0 0 1-1-3c.3-.7 3.5-7.8 9.3-7.8 5.7 0 9.2 6.7 9.5 7.5.6 1.1.1 2.4-1 3q-1.6.6-3-1c-1-1.1-3-3.5-5.5-3.5s-4.6 2.6-5.3 3.6q-.8 1.3-2 1.4m62.8 0 1-.2a2.2 2.2 0 0 0 1-3c-.3-.7-3.5-7.8-9.3-7.8-5.7 0-9.1 6.7-9.5 7.5-.6 1.1-.1 2.4 1 3q1.7.6 3-1c1-1.1 3-3.5 5.5-3.5s4.6 2.6 5.3 3.6q.8 1.3 2 1.4M56 77c0-2.9 4-4.3 8-4.3 3.8 0 8 1.2 8 4s-4.8 6.7-8 6.7-8-3.6-8-6.4m7.3 28a2 2 0 0 1-1.7-2.2q.4-1.7 2.2-1.7c4.7 0 5.7-1 5.8-2q-.1-2-3.9-3-1.8-.4-2-2.2.3-1.6 2.1-1.9l2.8-.8c1.7-.4 2.7-2.9-.4-4.8-2.4-1.4-6-3.1-8.9-4.9.9.2 6.5-.4 7.7.3l5.2 3.2c1.5.8 2.4 2.4 2.4 4 0 3.9-4 5.3-4 5.3 2.4 1.5 3 3.3 3 4.7 0 1.7-.5 3.4-1.9 4.3a14 14 0 0 1-8.4 1.7"/><radialGradient id="a" cx="40.1" cy="82.2" r="17" gradientTransform="matrix(.98 0 0 .933 .58 14.14)" gradientUnits="userSpaceOnUse"><stop offset="0" style="stop-color:#ed7770"/><stop offset="1" style="stop-color:#ed7770;stop-opacity:0"/></radialGradient><circle cx="39.9" cy="90.9" r="15.3" style="fill:url(#a)"/><radialGradient id="b" cx="90.4" cy="82.2" r="17" gradientTransform="matrix(.98 0 0 .933 .58 14.14)" gradientUnits="userSpaceOnUse"><stop offset="0" style="stop-color:#ed7770"/><stop offset="1" style="stop-color:#ed7770;stop-opacity:0"/></radialGradient><circle cx="89.1" cy="90.9" r="15.3" style="fill:url(#b)"/><path d="M92.2 36.2c-1.6-1.3-1.5-3.3-.6-5.1 2.1-4.3 7.3-8.8 9.1-10.3 3-2.3 5.3-3.1 6.2.7 1.7 7 1.5 16.7-.2 22-.6 1.8-2.6 2.8-4 1.5zm-56.4 0c1.6-1.3 1.5-3.3.6-5.1a38 38 0 0 0-9.1-10.3c-3-2.3-5.3-3.1-6.2.7-1.7 7-1.5 16.7.2 22 .6 1.8 2.6 2.8 4 1.5z" style="fill:#ffd1d1"/></svg>