<svg xml:space="preserve" width="16" height="16" viewBox="0 0 128 128"><path d="M15 52.7s5-1.2 6.8-1.2c2.3 0 5 .7 6.4 1.6 1.4.8 6.6-.4 6.6-.4s3 .2 2-2c-.5-1.2-6-2.9-9.4-3.4-4.4-.7-10.4.8-10.4.8s-.4-5.2-1.6-7.9a39 39 0 0 0-5-8.9c-1.4-1.4-3.3-2.8-5-2-2 1.2.3 5.1 2 8s4.4 6 5.3 8.5c.7 1.7 2.4 7 2.4 7M21.8 41s2.2-5.3 2.5-7.9c.4-2.5.5-7-.4-9.5-.6-1.7-1.8-2.8-3.2-2.2-.8.4-2.7 2.5-2 6.7.5 4 1 7 1 10 0 2-.4 4.8-.4 4.8zM20 45s2.8-.6 6.2-.6 10.1 1.6 14.1 1.4c4-.1 4.7-2 3.6-3.5s-4.2-3.9-10-3.3c-4.5.4-11.4 2.8-11.4 2.8zm5.1 29s0 1-.7 1.5c-.8.6-1.7.8-1.7.8s-5.7-5-7.7-11-1.2-11.2-1-12.3c.2-2.2 1.5-5.1 2.6-7a46 46 0 0 1 6.2-7.2L28 33c1.4-1.4 5.3-5.6 6.7-6.7 2.7-2 6.7-4.7 8.4-2.3 1.6 2.3-1.9 6.2-4.7 8a84 84 0 0 1-8.5 5.2c-1 .5-4.5 2.8-6.3 4.7s-4.7 5-5.7 8a23 23 0 0 0 2.6 19.8c1.4 2 4.5 4.3 4.5 4.3" style="fill:#6b7e37"/><path d="M51.3 64s-2.4-7.5.8-17.3A43 43 0 0 1 64.5 27c6.6-5.5 11-6.4 12.8-4.9 1.6 1.5 1.6 3.6 1 6C78 29.8 76 33 76 33s1.3 0 2.5 1.5c1.7 2.3.8 7.8.8 7.8l-8 19.3-11 6.9z" style="fill:#b0b0b0"/><path d="M58.7 65.5S52.4 62.6 50 59c-4.5-7-11-8.4-15.2-8.4-10 .1-13.8 6.9-13.8 6.9l.5 7.8s4.3 5.6 4.5 6.4-1.3 6.8 2.5 17.7c3.2 8.8 14.1 18 27.5 19.6s18.3.3 18.3.3 6 10.7 7 10.6 3.1-2.4 5-3.2c3-1.3 9-4 12.6-8.6 6.2-7.7 5.1-12.6 6.6-15.6 1.2-2.5 2.3-4.3 2.2-5.2s-5.4-1.6-8.5-1.7l-7-.6c-1.8-.2-4-1.4-4-1.4l6.1-5.2 1.2-8.4 6.2-5.8.5-5.8 8.6-6 5.2-7.1v-6l4-6.5s2.1-4.3 1.4-4.9-1.9-1.3-4.2.2c-.8.5 1.4-2.8 2.6-4.7 1.6-2.4 2-5 1-6-1-.8-2-.9-7 .4-6.5 1.8-15.2 4.6-27.4 15.5s-27.8 32-27.8 32" style="fill:#e0e0e0"/><path d="M120.9 27.6s-.6 4.6-3.3 7.6A51 51 0 0 1 98 47.7c-1 .4-2.3 1.2-2 2.1q.8 1.5 3 .5l9.2-4.7c1.7-1 5.9-3.5 6.2-2.3.4 1.4-2.4 5-5.8 8.5-4 3.9-9.4 6.9-11.2 7.6l-5.3 2.2c-.8.4-2.7 1.1-2.3 2.4s3 .4 3.9.1c2-.6 7-3.5 7.2-2.8s-.3 2.5-2 4.5c-1.8 2-7.3 4.9-9.2 6s-2.6 1.3-3.2 1.5-2 .7-1.8 2c.3 1.4 1.8.9 2.6.6.5-.2 5.9-3 6.5-3.1s.7 1.9 0 3.5a31 31 0 0 1-9.9 8.5c-.6.3-2.3 1.2-2 2.1q.7 1.5 3.5.2C87 86.2 96 79.9 97 75c.4-2.7.1-4.1.1-4.1s4.9-4.4 5.8-6.8.7-4.4.7-4.4 6.1-4.8 9.2-8.5a23 23 0 0 0 5-9c.3-1.6 0-3.1 0-3.1s3.4-4.8 4.2-7.6c1-3-1.2-4-1.2-4m-.9-10.5s.3 2-.7 4.3a20 20 0 0 1-8 8.3c-3.1 1.9-7 3.6-7.6 4-.7.3-1.8 1-1.3 2.2s1.9.7 2.7.2 10.3-5.7 12.2-7.6c1.2-1.2 4.3-4 5-7C123.5 16 120 17 120 17" style="fill:#b0b0b0"/><path d="M35 62.2c0 1.6-1 3-2.5 3-1.6 0-3-1.5-3.1-3-.3-1.7 1-3 2.5-3 2.1-.2 3.2 1.4 3.2 3" style="fill:#2d2d2d"/><path d="M21.8 56.7S9.3 61.2 9.4 62c0 .6 5.4 2.6 5.4 2.6l-.2-.9 3.4.6.6 1.3 4 1s.3-3.5 0-6.1c-.2-2.4-.8-4-.8-4" style="fill:#ffc300"/></svg>