<svg xml:space="preserve" width="16" height="16" viewBox="0 0 128 128"><path d="M14.2 41.9c1.2-.1 1.2-.4 1.2-5.2 0-3.8-.4-4.9-.4-4.9s-3.3-.7-4-4.8c-.5-3.5 2.4-8.3 1.9-9.3s-1.4-1.6-4.8 2a15 15 0 0 0-3.3 14.9c2.2 7.5 8.4 7.4 9.4 7.3" style="fill:#f7cc93"/><linearGradient id="a" x1="90" x2="84.8" y1="76.8" y2="95.9" gradientUnits="userSpaceOnUse"><stop offset="0" style="stop-color:#6a463e"/><stop offset="1" style="stop-color:#8c685c"/></linearGradient><path d="M86.4 70a7 7 0 0 1 6.6.9c2.4 1.9 3.1 5.3 3.3 8.4.1 1.5-.5 6.6-.8 7.7-.7 2.8-.9 5.8-1.5 8.6-.7 3.4-3.2 9.6-4 11.7a2 2 0 0 1-1 1.2 8 8 0 0 1-7.6 0 2 2 0 0 1-1-2.2l2.5-9.1c.8-3.4 1-7 .6-9.1-.7-4-3.2-6.9-2.6-11a9 9 0 0 1 4.4-6.7z" style="fill:url(#a)"/><linearGradient id="b" x1="73.3" x2="74.2" y1="85.2" y2="100.7" gradientUnits="userSpaceOnUse"><stop offset="0" style="stop-color:#6a463e"/><stop offset="1" style="stop-color:#8c685c"/></linearGradient><path d="M72.3 22.9s6 1 18.3 9.8c4.4 3.3 12.7 4.7 15.4 5.4a17 17 0 0 1 13.2 14.4 76 76 0 0 1-1.3 23 86 86 0 0 0-2.7 13.1c-.2 4.2.3 9.4-.4 13.5-.7 4.3-2 9.1-2.5 11.2q-.4 1.2-1.6 2a8 8 0 0 1-4.7.6q-1.3-.2-2-.5a3 3 0 0 1-2.3-3.7c1-4 3-13 2.5-15.7-.5-3.5-6-9.4-6.7-15.4 0 0-4.2 1.2-14.8 5.4-3 1.2-5.3 2.5-7 7.8-2.3 7.6-3.1 23-3.4 27.4q0 1.7-1.8 2.4-1.2.5-4.2.6t-4.4-.7q-1.6-.8-1.7-2.4c-.1-6-.7-29.9-2.3-34-1.8-4.8-10.1-1.7-11.6 2.3-.7 2-.6 2.9-.4 4.7.3 2.5 1.8 12.5 1.3 17.7a76 76 0 0 1-1.8 9.8 10 10 0 0 1-7.5 2.2 7 7 0 0 1-4.2-1.7q-.6-.6-.2-1.4c.9-1.6 3-5.8 2.4-9a562 562 0 0 0-10.6-31.8l16.8-37.5z" style="fill:url(#b)"/><path d="M72.3 22.9s6 1 18.3 9.8c4.4 3.3 12.7 4.7 15.4 5.4a17 17 0 0 1 13.2 14.4 76 76 0 0 1-1.3 23 86 86 0 0 0-2.7 13.1c-.2 4.2.3 9.4-.4 13.5-.7 4.3-2 9.1-2.5 11.2q-.4 1.2-1.6 2a8 8 0 0 1-4.7.6q-1.3-.2-2-.5a3 3 0 0 1-2.3-3.7c1-4 3-13 2.5-15.7-.5-3.5-6-9.4-6.7-15.4 0 0-4.2 1.2-14.8 5.4-3 1.2-5.3 2.5-7 7.8-2.3 7.6-3.1 23-3.4 27.4q0 1.7-1.8 2.4-1.2.5-4.2.6t-4.4-.7q-1.6-.8-1.7-2.4c-.1-6-.7-29.9-2.3-34-1.8-4.8-11.1-1.9-11.6 2.3l-4.2-47z" style="fill:#8c685c"/><path d="M83.4 48c.4-3.4 2.3-2.7 2.6-6.1.2-3.5-2.1-3.5-2.2-6.2 0-2 2-4 .9-6.6-1.4-3-3.4-2.3-4.9-3.5-2.1-1.8-.3-4-2.5-6.1-2.1-2.1-4.1-.9-5.8-2-1.6-.8-.8-2.8-3.5-4.1-2.9-1.4-3.8.8-7-1-1.3-.7-2.8-2.9-6.1-2.5s-3.5 2.4-6.3 2.8-3.4-1.4-7.2-.7c-4.7 1-7 6.2-8.4 10.2-3 8.9-7.2 44.2-7.2 46.2.2 4 4.5 9.3 6.8 12.5 2.1 2.7 5.8 4.7 8 7.2 2.3 2.6 6.8 2.8 9.5 1 .7-.5 2-2.6 5.2-1.7q7 2 9.3-4.1c.2-.6.7-2.6 5.5-3.2 2.5-.4 4.6-3.4 3.7-6.9-.5-1.7 1.5-4 3.5-4.6 2.8-.8 3.8-3.3 3.4-5.7-.2-1.4.7-3.7 2.3-4.8a5 5 0 0 0 1.8-6.1c-.7-1.4-1.6-2.4-1.4-4" style="fill:#6a463e"/><path d="M83.7 35.7c-.2-1.6.7-3.1.8-4.5q0-1-.5-1.8-.6-1-1.3-1.4-.6-.4-1.9-.7l-1.3-.6q-.7-.3-1.2-1a5 5 0 0 1-1-2.7q-.1-1.3-.5-1.8-.3-.6-1-1a3 3 0 0 0-1.5-.5l-2.7-.2q-.7-.3-1.6-1-.8-.7-1-1.4-.6-1.3-.9-1.6l-1.2-.7q-.6-.2-1.5 0c-.6 0-1.7.3-2.8 0q-.7 0-1.5-.4l-.7-.3-.3-.1-.4-.3-1.8-1.3q-1.5-1-3.1-.8l-1.6.6-2 1.2a7 7 0 0 1-5.7.4l-1.9-.6h-2q-1.8.3-3.5 1.7t-2.8 3.3l-2.2 4H33q.7-2.2 1.8-4.3 1-2.1 2.7-3.8a8 8 0 0 1 8.6-1.8q2.2.8 4.3-.4l2-1.3q1-.6 2.2-.8a6 6 0 0 1 4.5 1l1.9 1.3 2 .8q1 .2 2.3-.1 1.2-.1 2.3.2 1.2.4 2 1.3t1.2 2q.1.6.6 1 .3.3.9.4 1.1.3 2.2.3 2.5.3 3.9 2.5c.7 1.5.1 3.2 1.1 4.4a4 4 0 0 0 1.8 1.3q1.1.2 2.2 1a5 5 0 0 1 1.7 4.1c-.2 1.6-1.2 3-1.2 4.4z" style="fill:#af7464"/><path d="M15.6 42.1s-1.3 3.5-.7 10.5c.4 5.8 3 10.7 2.6 14.5s-1.7 8.1 1.2 12q2 2.7 5.3 3.6c1.7.5 5.1.4 5.1.4s1 4.3 1.8 5.8c1.1 2.1 3.5 3.8 6 5.9-.9-2 .3-5.4 1.6-7 4.2-5.6 1.8-8.2 3-9 12-8.3 16.8-25.4 16.8-25.4s6.5.6 8.5 0 3.9-2.5 1.4-5.3-9.6-6.7-10.3-8.9-30-4.2-30-4.2zm103.6 11.3a80 80 0 0 0 5.3 24c.4 1 1 2.2.1 3-1 1-3-.6-3.4-1-4.4-5.1-6.7-12.7-7.4-14.1" style="fill:#8c685c"/><ellipse cx="20.9" cy="54.2" rx="2.7" ry="3.3"/><ellipse cx="40.5" cy="54.2" rx="2.7" ry="3.3"/><linearGradient id="c" x1="28" x2="28" y1="84.2" y2="67.9" gradientUnits="userSpaceOnUse"><stop offset=".1" style="stop-color:#bf967c"/><stop offset="1" style="stop-color:#bf967c;stop-opacity:.0115"/><stop offset="1" style="stop-color:#bf967c;stop-opacity:0"/></linearGradient><path d="M22.1 69.6c-1.2 1-2.5 4-2.4 7.2q-.1 3.6 3 5.4c3.2 1.4 6.6 1.6 11.2 0 5.3-3.5.3-10.7-1-12.2-2.1-2.3-8.7-2.3-10.8-.4" style="fill:url(#c)"/><path d="M31 72.7c-1-1-2.6.3-5 .3-2.5 0-3.4-1.3-4.4 0q-.6 1 .2 2c.8 1 1.2 1 2.1 1.8.5.3-.3 1-.6 1.3-.4.4-1.1 1.4-.4 2q.4.5 1.7-.4 1-.4 2-.3c.8 0 2 .6 2.6.9l.8.3q.4.1.8-.2.3-.7-.2-1.4a6 6 0 0 0-1.9-1.5q-.6-.3-.2-.7 1.3-.8 2.4-2 1-1 .2-2.1" style="fill:#212121"/><path d="M91.7 103c-4.9.8-8.3.3-10.2-.4l-.1.4-1 3.2a2 2 0 0 0 1 2.3q.8.5 2.6.8c2 .3 4-.3 5-.8a2 2 0 0 0 1-1.2zm10.7 5.9-.7 2.8c-.3 1.6.6 3.3 2.2 3.8l2 .4q3.5.3 4.8-.7 1.3-.6 1.6-2l1-4 .1-.4a19 19 0 0 1-11 0m-29.8 7.3a20 20 0 0 1-12.5.5v4.5q.1 1.6 1.7 2.4 1.4.6 4.5.7 3 0 4.2-.6 1.7-.7 1.8-2.4zm-37.1-.1-2 4.7q-.4.8.2 1.4a7 7 0 0 0 4.2 1.7 10 10 0 0 0 7.5-2.2l.3-.5.8-4.6.1-.7c-4.4 2-9 1.2-11.1.1" style="fill:#bf967c"/><path d="M45.2 17.8s-15.3-5.8-24.8 1-9.5 14-9.8 17.3c-.3 3.2 1 7.9 0 10.2s-.9 6.6 2.8 8.3c4.8 2.2 7.5-2.1 7.5-2.1s4.3 3.9 11 3.4 8-4.7 8-4.7 4 5 9.1 3.1c7-2.6 7-12.3 7-12.3L45.6 18.8z" style="fill:#6a463e"/><path d="M48 20.8q-1.7-1.5-3.8-2.4a25 25 0 0 0-8.4-2.2A24 24 0 0 0 19.4 20q-1.9 1.3-3.6 2.8h-.2l3-3.6A20 20 0 0 1 31.5 14a24 24 0 0 1 13.4 3.5q2 1.2 3.4 3.2z" style="fill:#af7464"/><path d="M56.7 43.6c-1-.1-3.9-.6-4.3-5.6-.3-3.4 1.8-5 1.8-5s2.8-2.3 1.9-6.2c-1-4-3-7.8-2.6-9s2-1.7 5.7 2a16 16 0 0 1 4.5 16c-2.2 7.4-5.7 7.9-7 7.8" style="fill:#fadcb2"/><path d="M12.5 27.8a23 23 0 0 0-.6 7.8l.6 3.8.2 2 .2 1.2v.7l-.2.8-.6 2-.5 1.9a7 7 0 0 0-.2 3.2q.4 1.6 1.8 2.6 1.5 1.1 3.5 1.3v.2q-2 .3-4-.5a5 5 0 0 1-2.7-3 8 8 0 0 1-.3-4.2l1.1-4v-1.9l-.3-2-.2-4.1q0-4.2 2-8zm7.3 15.4q0 2.6.7 4.5l.8 1.7 1.1 1.6.7.7.7.7q.7.7 1.7 1.2 1.8 1.2 4.1 2.2v.2a13 13 0 0 1-4.7-1 9 9 0 0 1-6-7.2q-.3-2.4.7-4.7z" style="fill:#af7464"/><path d="M56.5 49.8c.3 3.2 1.8 3.8 1.8 3.8-.5 1.9-2 5.5-3 7.2a72 72 0 0 1-14.2 18.5v.6q.1 2-.5 4c-.5 1.7-1.8 3-2.7 4.7q-1.5 2.7-1.4 5.8c.8-4.5 5.4-6.3 7-10.3.8-1.8 1-4 2.5-5.1q1.4-.7 2.9-1a6 6 0 0 0 4-3.4c.6-1.7.3-3.6 1.3-5 1.4-1.7 4.4-1.5 5.5-3.5.8-1.4 0-3.3 0-5q.3-2.7 2.7-4c1.1-.6 2.5-.6 3.8-1 3.2-1 3.5-3.3 3-4.5a5 5 0 0 1-3.7 1.8 10 10 0 0 1-9-3.6" style="fill:#3b2622"/></svg>