<svg xml:space="preserve" width="16" height="16" viewBox="0 0 128 128"><path d="m43.3 65.5 2.7 50a2.2 2.2 0 0 0 4.4 0l2.6-50z" style="fill:#2f7889"/><path d="M48 95c-2 .7-2.6 3.2-2.8 5.1l.8 15.4a2.2 2.2 0 0 0 4.4 0l.8-17.8s-1-3.4-3.1-2.7" style="fill:#84b0c1"/><path d="M121.6 31.4S106.1 24 90.3 16A95 95 0 0 0 48.5 3.6 42.7 42.7 0 1 0 91 43.8l25 5.9c2.8.5 6-3 7.2-7.6s.7-9.7-1.7-10.7" style="opacity:.75;fill:#81d4fa"/><path d="M11.1 48.9c0 18.9 18.3 35 37.4 35s37.4-16.7 37.4-35z" style="fill:#ab47bc"/><path d="m73.6 74.1-2.3-5.7-48 2-.6 3.2q4.3 3.9 9.4 6.4c-1-1.6-2.2-4.1 1.6-3.5 0 0 6.5 1 14.8 1s16.2-1.2 16.2-1.2c3.4 0 1 3.2 1 3.2q4.3-2.2 7.9-5.4" style="fill:#992faf"/><ellipse cx="48.5" cy="48.6" rx="37.4" ry="5" style="fill:#ea80fc"/><path d="M19.6 72.3 4.2 121.4a2.2 2.2 0 0 0 4 1.8l20.2-50.9zm57.5 0h-8.7l20.2 50.9a2.2 2.2 0 0 0 4-1.8zm-28.9 3c-27.3 0-37.4-6.1-37.8-6.4-2-1-3.8-3-3.8-5.3 0-2.6 1.9-3.3 1.9-3.3 4 1 15 7 39.7 7 25 0 40.6-7 40.7-7 0 0 1.7 1.2 1.7 3.6 0 2.2-1.4 4.4-3.8 5.5-.5.3-11.3 5.9-38.6 5.9" style="fill:#84b0c1"/><path d="M77.2 72.5c6.4-1.4 9.3-3 9.5-3a7 7 0 0 0 3.3-3.3c.7-1.6.6-2.3.6-2.3-.1 0-17.4 8-42.4 8-24.7 0-37.5-6.8-41.6-7.7q-.2 0 .6 1.7a8 8 0 0 0 3.1 3c.3.2 3 1.8 9.3 3.4l-1.3 4.2c.5-1.3 2.3-2 4.3-1.6 2.1.4 3.6 1.9 3.4 3.3l1.7-4.3s8 1.4 20.5 1.4S69 74 69 74l1.7 4.3h.1c-.3-1.5 1.2-3 3.4-3.4 2-.4 4 .4 4.3 1.9z" style="fill:#2f7889"/><g style="opacity:.6"><path d="M81 15.4c5.5 2.1 35.1 16.2 37.6 17.4 3 1.6 1.9 7-2 5.8C110.8 37 88.4 23.7 84 21.2c-11.3-6.3-8.8-8-3.2-5.8" style="fill:#fff"/></g><g style="opacity:.6"><path d="M38.1 31c-2.3 3.3-4.7 6.3-6.4 10.1C30.1 45 29.2 49 27.8 53c-.6 1.7-1.5 3.6-3.3 4-1.5.5-3-.4-4-1.6s-1.2-2.8-1.4-4.3c-1-7.3 0-15.3 2.7-22 1.9-4.6 5.5-9.1 10.7-10.6 6.7-2 10.9 5.6 6.3 11.5z" style="fill:#fff"/></g><path d="M19.2 63.8c-4-1.2-6.3-2-7-.8-.6 1.4 1.5 3.2 13.7 5.5s19.9 1.6 23.1.2-5.2-1.4-8.2-1.6c-9.6-.6-17.7-2.1-21.6-3.3" style="fill:#b9e4ea"/></svg>