<svg xml:space="preserve" width="16" height="16" viewBox="0 0 128 128"><path d="M22 95.4V83h17q-.7-2-1-4H22V63.5h19.2q1-2 2.4-4H22v-15h35.5l1.9-1.4-.5-2.5h-37v-15h33.9l-.5-4H3.5v77.8h52.4q-4.2-1.6-7.7-4zm59.7 4h42.8v-4H85q-1.7 1.4-3.5 2.4zM88 25.7h36.5v-4H88zm.2 37.8h36.3v-4h-41q2.6 1.5 4.7 4m36.3-18.9v-4H82.2l-3 4zm0 38.4v-4H93.1q0 2.4-.6 4zM87.2 67.2C82.7 60 76 59.7 71 60.2l-2-9.4c8.9-8.4 19.6-20.3 14.8-34.4-4-12-10.4-12.1-13.5-12.1-3.2 0-15.6.8-11.3 22.5l3.6 17.5c-5.4 4-23 18-21.8 33.5.9 11.8 13.3 21 26.7 20.2l5.6-.4s3 10.7-1.5 17c-2.9 3.8-7.6 5-11.8 3.6a8 8 0 0 0 4.5-7.3c-.4-10.9-15.9-10.9-16.3 0 0 7.8 5.3 12.8 16.5 12.8 4.5 0 8.8-3.3 11-6.2 6-7.8 2.4-21.4 2.4-21.4 7.8-3.1 17-14.9 9.2-29M71.4 12.8c4-1.8 10.4 1.4 9 8.8C79 28.4 72.8 35.4 67.2 41L65 29.7c-1.6-9.5 1.4-14.8 6.4-17m-5.3 48.5c-7 2.3-10.8 8.5-9.6 16s5.4 9.9 8.9 11c0 0 2.4.7 2.6-.8.1-.7-.7-1.2-1.5-1.7q-1-.7-2.1-1.8c-4-4-3.7-11.4 3.2-14.4l4.7 23.1C62 95 50.9 89.5 50.5 78.4 50 67.6 56.3 61.3 64.8 54zm17.3 22C82.6 86 80.8 89 77 91l-4-22.5c9.5-.3 12.1 8.9 10.4 14.8" style="fill:#546e7a"/></svg>