<svg xml:space="preserve" width="16" height="16" viewBox="0 0 128 128"><path d="M107.4 61.4c0 23.3-10.9 42.2-42.8 42C29.4 103 21.3 87.9 21 63c-.2-23.3 13.4-44.8 42.5-44.8a42 42 0 0 1 43.7 43.2" style="fill:#b6885a"/><path d="M64.4 44.1c7.5-.2 15.5-10.5 24.5-2.3 8.2 7.5 1.7 14.5 2 21.6.1 5.9 5.9 10.1 1.3 19-3.8 7.3-14.5 12.4-27.2 12.1-16.5-.3-26.5-5.1-29.3-13.3-2.6-7.9 3-12.2 2.8-18.3S31.7 47.5 40 41.4c11.5-8.3 16.4 3 24.3 2.7" style="fill:#ffcd88"/><path d="M55.8 57.5c.4 4.5-2 7.4-5 7.7s-5.8-2.3-6.1-6c-.4-3.5 1-7 4.9-7.3 3-.3 5.7 1.4 6.1 5.6m26.5.5c-.1 5.1-3.3 6.8-6.1 6.5s-4.7-3.3-4.5-6.7 2.5-6.6 6.1-6.2c2.8.2 4.6 2.4 4.5 6.4m-18.1 6.3c3.9 0 5.3 0 5.2 2-.1 1.2-2.6 3.7-5 3.7-2.1 0-5.1-2-5.3-3.8-.2-2 1.3-2 5.1-2" style="fill:#393531"/><path d="M105 51.8s14-.7 13.7 12.7c-.2 13.4-12.2 15.1-14.8 15s1-27.7 1-27.7M23 51.2S9.4 50.8 8.9 64.3 21 79.7 24.4 80.1 23 51.2 23 51.2" style="fill:#b6885a"/><path d="M22.2 74.7c.4-.2-.2-4.7-.5-9s0-8.2-.2-8.4c-.4-.6-8.1-.3-8.1 8s8 9.7 8.8 9.4m83.2-17.8c.6-.4 8.9-.2 8.6 8.1-.2 7.3-7.6 9.6-8.5 9-.4-.3 0-3.6.1-8 .1-4.3-.5-9-.2-9.1" style="fill:#ffcd88"/><path d="M30.8 91.8c5.9-4.4 8.7-7.2 13-13.7 4.2-6.6 10.5-8 13.1-7.8s2.8 2.3 2.8 2.3l-.2 2.7 7.8-1.6s2.2-2.4 6.4-1.6c4.1.8 6.9 2.7 11 7.8 4.2 5.2 7 9.3 8.7 10.5 1.8 1.2 12.4 6.5 15.7 8.5 4.1 2.5 7.3 7.3 3.8 13.4-3 5.4-13 4.8-14 4.5s-11-5.4-14.4-9c-3.4-3.7-8.7-6.5-13-7.3s-12-.5-14.6 0-9.3 3.6-12.9 6.5c-3.5 3-7.6 7-9.8 8s-9.3 2.9-12.4 2-8.2-4.3-8.1-10.1c.1-7 5.7-8.8 9.5-10.6 3.9-1.7 5.6-3 7.6-4.5" style="fill:#b6885b"/><path d="M55.7 79.3c.4 1.7 6-3.2 9.1-3.4 5.1-.4 8.9 1.6 9.4 8s-2.7 12-11.9 13.8-11.4 2.4-15.6 5.8C42.5 107 33 115.1 26.4 115c-7.7-.2-10.8-4.2-11.2-3.4s4 6.7 11.4 6.7 10-2.8 14.6-6.4l10.7-8.9s4.7 1 12.4 1c8 .1 11.8-1 11.8-1s3.8 2 6.7 4.6c4.2 3.8 9.5 8 14.4 9.5 5.2 1.5 9.7.7 12.5-1.3s1.8-1.9-1-1a21 21 0 0 1-14.4-1.6c-4.8-2.6-11.3-9.7-15.7-12.1-4.5-2.5-9.6-2.5-9.6-2.5s10.4-4.8 8.8-15.4-10.3-11.1-13-10.8c-1.4.2-4 1.3-4 1.3s.3-3-2.8-3.3c-1.7-.1 1.4 1 .9 2.9-.6 2.3-3.5 4.9-3.2 6" style="fill:#865b52"/></svg>