<svg xml:space="preserve" width="16" height="16" viewBox="0 0 128 128"><path d="M91.3 50.4H36.7c-6 0-10.7 5.2-10.7 11.4s4.8 11.5 10.7 11.5h54.6c6 0 10.7-5.2 10.7-11.5s-4.8-11.4-10.7-11.4" style="fill:#e59600"/><path d="M64 11c-17.4 0-33.5 18.7-33.5 45.5l.2 4.6a49 49 0 0 0 2.6 12.6l1 2.7 1.9 3.6a33 33 0 0 0 20.1 15.3l.6.2a31 31 0 0 0 14.2 0l.6-.2h.4l.6-.2.3-.1.7-.2.8-.3 3.8-1.6q8.3-4 13.6-13l.5-1 .5-.9v-.1l.8-1.5.4-1 .3-.8.3-.7.5-1.6q1.5-5 2.2-11.2l.1-4.6C97.5 29.7 81.4 11 64 11" style="fill:#ffca28"/><ellipse cx="47.6" cy="58.8" rx="4.9" ry="5.1" style="fill:#404040"/><ellipse cx="80.4" cy="58.8" rx="4.9" ry="5.1" style="fill:#404040"/><path d="M67.9 68h-7.7q-1.1.5-.7 1.7c.4 1.2 1.7 2.7 4.5 2.7a5 5 0 0 0 4.6-2.7q.3-1.2-.7-1.6" style="fill:#e59600"/><path d="M70.4 83.3c0 3.1-2.9 3.8-6.4 3.8s-6.4-.7-6.4-3.8c0-3.3 2.9-5.3 6.4-5.3s6.3 2 6.3 5.3" style="fill:#795548"/><radialGradient id="a" cx="99.7" cy="45.9" r="23.4" gradientTransform="matrix(1 0 0 .491 -21.24 59.48)" gradientUnits="userSpaceOnUse"><stop offset=".7" style="stop-color:#6d4c41;stop-opacity:0"/><stop offset="1" style="stop-color:#6d4c41"/></radialGradient><path d="M63.9 95.7v-9.5L92.5 84l2.6 3.2s-6.2 8.5-22.3 8.5z" style="fill:url(#a)"/><radialGradient id="b" cx="49.3" cy="45.9" r="23.4" gradientTransform="matrix(-1 0 0 .491 98.7 59.48)" gradientUnits="userSpaceOnUse"><stop offset=".7" style="stop-color:#6d4c41;stop-opacity:0"/><stop offset="1" style="stop-color:#6d4c41"/></radialGradient><path d="M64 95.7v-9.5L35.3 84l-2.6 3.2s6.1 8.5 22.2 8.5z" style="fill:url(#b)"/><linearGradient id="c" x1="63.9" x2="63.9" y1="54.2" y2="4.8" gradientTransform="matrix(1 0 0 -1 0 128)" gradientUnits="userSpaceOnUse"><stop offset="0" style="stop-color:#00bfa5"/><stop offset=".5" style="stop-color:#00b29a"/><stop offset="1" style="stop-color:#009e89"/></linearGradient><path d="M107.8 123.9c0-17.6-21.9-26.6-43.9-26.6-21.9 0-43.9 8-43.9 26.6z" style="fill:url(#c)"/><g style="opacity:.4"><linearGradient id="d" x1="64" x2="64" y1="15.8" y2="4.6" gradientTransform="matrix(1 0 0 -1 0 128)" gradientUnits="userSpaceOnUse"><stop offset=".3" style="stop-color:#212121"/><stop offset="1" style="stop-color:#212121;stop-opacity:0"/></linearGradient><path d="M108 123.4c-1.2-14-22-24-44-24-21.9 0-40.7 8-43.9 24z" style="fill:url(#d)"/></g><path d="m21.8 82-12-5.1a3.3 3.3 0 0 1-1.7-4.3l.1-.2a3.3 3.3 0 0 1 4.3-1.7l12 5c1.6.7-1 7-2.7 6.2" style="fill:#eda600"/><linearGradient id="e" x1="210.6" x2="236.7" y1="58.6" y2="58.6" gradientTransform="matrix(1 0 0 -1 -206.48 128)" gradientUnits="userSpaceOnUse"><stop offset=".6" style="stop-color:#ffca28"/><stop offset="1" style="stop-color:#ffb300"/></linearGradient><path d="M39 76.1s-18-11.3-22.4-15c-2.7-2.3-5.5-6.1-7-8-1.4-1.6-5.1.3-5.4 2.4q-.3 2 1.2 4.6S12 76.1 20 81.5l11 4.8z" style="fill:url(#e)"/><linearGradient id="f" x1="71.4" x2="71.4" y1="54.2" y2="4.8" gradientTransform="matrix(1 0 0 -1 0 128)" gradientUnits="userSpaceOnUse"><stop offset="0" style="stop-color:#00bfa5"/><stop offset=".5" style="stop-color:#00b29a"/><stop offset="1" style="stop-color:#009e89"/></linearGradient><path d="M102.2 104.2 36.2 73a2 2 0 0 0-2.2.7l-6.5 11.4c-.5.8-.3 1.9.5 2.4L83.2 124h32.5c-1-8.3-6-15.7-13.5-19.7" style="fill:url(#f)"/><linearGradient id="g" x1="58.6" x2="72.1" y1="43.1" y2="19" gradientTransform="matrix(1 0 0 -1 0 128)" gradientUnits="userSpaceOnUse"><stop offset="0" style="stop-color:#212121;stop-opacity:0"/><stop offset=".5" style="stop-color:#212121"/><stop offset="1" style="stop-color:#212121;stop-opacity:0"/></linearGradient><path d="m91.4 99.2-22.6 15.3-29.2-19.4 20.7-10.7z" style="fill:url(#g)"/><path d="m106.2 82 12-5.1a3.3 3.3 0 0 0 1.6-4.3v-.2a3.3 3.3 0 0 0-4.3-1.7l-12 5c-1.6.7 1 7 2.7 6.2" style="fill:#eda600"/><linearGradient id="h" x1="460.3" x2="485.7" y1="58.6" y2="58.6" gradientTransform="matrix(-1 0 0 -1 581.82 128)" gradientUnits="userSpaceOnUse"><stop offset=".6" style="stop-color:#ffca28"/><stop offset="1" style="stop-color:#ffb300"/></linearGradient><path d="M89 76.1s18-11.3 22.5-15c2.6-2.3 5.4-6.1 7-8 1.3-1.6 5 .3 5.3 2.4q.3 2-1.2 4.6s-6.6 16-14.7 21.4l-11 4.8z" style="fill:url(#h)"/><linearGradient id="i" x1="56.4" x2="56.4" y1="54.2" y2="4.8" gradientTransform="matrix(1 0 0 -1 0 128)" gradientUnits="userSpaceOnUse"><stop offset="0" style="stop-color:#00bfa5"/><stop offset=".5" style="stop-color:#00b29a"/><stop offset="1" style="stop-color:#009e89"/></linearGradient><path d="m100.4 85-6.5-11.3q-.7-.9-1.6-.9-.4 0-.7.2l-66 31.2a26 26 0 0 0-13.4 19.7h32.4l55.2-36.4c.8-.5 1-1.6.6-2.4" style="fill:url(#i)"/><path d="M64 4c-45.4.3-36.1 52.2-36.1 52.2l3 7.7c0 .3.6.3.6 0a306 306 0 0 1 6.3-24.5 6 6 0 0 1 6.8-3.8 111 111 0 0 0 19.3 1.8h.1c8 0 15-1 19.5-1.8a6 6 0 0 1 6.7 3.8c1.8 4.7 5.3 20 6.2 24.4q.3.5.8 0l3-7.6S109.4 4.2 64 4" style="fill:#543930"/><radialGradient id="j" cx="64" cy="80.9" r="38.1" gradientTransform="matrix(1 0 0 -1.128 0 138.37)" gradientUnits="userSpaceOnUse"><stop offset=".8" style="stop-color:#6d4c41;stop-opacity:0"/><stop offset="1" style="stop-color:#6d4c41"/></radialGradient><path d="M100.2 56.2S109.5 4.2 64 4l-6 .4h-.3C19.5 9.2 27.9 56.2 27.9 56.2l3 7.6c0 .4.6.4.6 0 1-4.4 4.5-19.7 6.3-24.4a6 6 0 0 1 6.8-3.8 111 111 0 0 0 19.3 1.8h.1c8 0 15-1 19.5-1.8a6 6 0 0 1 6.7 3.8c1.8 4.7 5.3 20.1 6.3 24.5q.2.5.7 0z" style="fill:url(#j)"/><path d="M40 48.7c3.2-4.5 10.7-4.6 14.4-.8.7.7 1.4 1.6.9 2.5-.5 1-1.7 1-2.6.6a13 13 0 0 0-7.5-1L42 51.1c-1.4.5-2.9-1-2-2.4m46 2.4q-3.2-1.6-6.9-1.2a13 13 0 0 0-3.2.8c-.9.3-1.7.9-2.6.3-2.4-1.7 1.9-4.4 3.2-5 2.7-1.2 6-1 8.7.3 1 .6 2.2 1.4 2.8 2.4.8 1.3-.4 3-2 2.4" style="fill:#6d4c41"/></svg>