<svg xml:space="preserve" width="16" height="16" viewBox="0 0 128 128"><path d="M116.6 124.3H11.3a7.5 7.5 0 0 1-7.5-7.6V11.4C3.8 7.3 7.2 4 11.3 4h105.4c4 0 7.4 3.4 7.4 7.5v105.4c0 4-3.3 7.5-7.5 7.5" style="fill:#cfd9db"/><radialGradient id="a" cx="100.3" cy="-12.5" r="39.7" gradientUnits="userSpaceOnUse"><stop offset=".4" style="stop-color:#e7ebeb"/><stop offset=".6" style="stop-color:#e3e9e9"/><stop offset=".8" style="stop-color:#d7e1e4"/><stop offset="1" style="stop-color:#c8d8dd"/></radialGradient><path d="M69.3 17.3s4.6-6.4 7.5-9.2 4.9-4.2 4.9-4.2h35c4 0 7.4 3.4 7.4 7.5v24.4z" style="fill:url(#a)"/><radialGradient id="b" cx="48.3" cy="-9.3" r="63.7" gradientUnits="userSpaceOnUse"><stop offset=".4" style="stop-color:#e7ebeb"/><stop offset=".6" style="stop-color:#e3e9e9"/><stop offset=".8" style="stop-color:#d7e1e4"/><stop offset="1" style="stop-color:#c8d8dd"/></radialGradient><path d="M40 4H11.3a7.5 7.5 0 0 0-7.5 7.4v59.8s69.6 8.1 83.3 6.1l3.2-58.7s-6.9-7.8-22.6-8c-7.2-.2-16.6 2.7-17.7 2-1.3-.8-3.9-6.8-10-8.7" style="fill:url(#b)"/><radialGradient id="c" cx="93.3" cy="-65.5" r="135.3" fx="82" fy="-63" gradientUnits="userSpaceOnUse"><stop offset=".8" style="stop-color:#f4f4f5"/><stop offset=".8" style="stop-color:#eef1f2"/><stop offset=".9" style="stop-color:#dde7ea"/><stop offset="1" style="stop-color:#c1d8dc"/><stop offset="1" style="stop-color:#c0d8dc"/></radialGradient><path d="M47.6 102.2 22.4 53.7s2-17.5 19.6-25.3c15.6-6.9 27-1.7 27-1.7s11.7-15 31.5-13.8c19 1 23.6 9.2 23.6 9.2v94.6c0 4.2-76.5-14.5-76.5-14.5" style="fill:url(#c)"/><radialGradient id="d" cx="12.5" cy="22.4" r="108.7" gradientTransform="rotate(75.3 21.28 29.14)scale(1 1.603)" gradientUnits="userSpaceOnUse"><stop offset=".5" style="stop-color:#f1f1f0"/><stop offset=".6" style="stop-color:#eceeee"/><stop offset=".7" style="stop-color:#dee7e8"/><stop offset=".8" style="stop-color:#c6dbdf"/><stop offset=".9" style="stop-color:#c0d8dc"/></radialGradient><path d="M124.2 77.7v39c0 4.2-3.4 7.6-7.6 7.6H11.3a7.5 7.5 0 0 1-7.5-7.6v-76s5.3.6 13 4.7c7.5 4 12 10 12 10s11.4-7.1 27.9-4c18 3.2 28.7 20.5 28.7 20.5s9-2.6 20.4-1 18.4 6.8 18.4 6.8" style="fill:url(#d)"/><radialGradient id="e" cx="78.1" cy="91.3" r="35.9" gradientTransform="matrix(.394 .92 -2.287 .98 256.07 -70)" gradientUnits="userSpaceOnUse"><stop offset=".3" style="stop-color:#f1f1f0"/><stop offset=".6" style="stop-color:#d9e5e6"/><stop offset="1" style="stop-color:#c0d8dc"/></radialGradient><path d="M124.2 85v31.7c0 4.2-3.4 7.6-7.6 7.6h-88s8.6-10.6 22.5-15.2c14.3-4.8 22.7-4.2 22.7-4.2s7.8-11 21.9-16.1 28.5-3.8 28.5-3.8" style="fill:url(#e)"/></svg>