<svg xml:space="preserve" width="16" height="16" viewBox="0 0 128 128"><radialGradient id="a" cx="63.7" cy="22.5" r="53.8" gradientTransform="matrix(0 1 -1.681 0 101.57 -41.18)" gradientUnits="userSpaceOnUse"><stop offset=".2" style="stop-color:#f16592"/><stop offset=".4" style="stop-color:#f16793"/><stop offset=".4" style="stop-color:#f37098"/><stop offset=".5" style="stop-color:#f47d9f"/><stop offset=".5" style="stop-color:#f78fa8"/><stop offset=".7" style="stop-color:#fbcad6"/><stop offset=".8" style="stop-color:#fef0f4"/><stop offset=".8" style="stop-color:#fff"/></radialGradient><path d="m28.6 76.4-8-10.5.8-5.2s-6.4-20.3 3.9-36 26-20.2 41.5-19 27.3 7.6 35.1 21.1c8.2 14.2 5.9 28.9 4.4 35s-3.9 14.4-3.9 14.4l-36.3 7.7z" style="fill:url(#a)"/><path d="M101.8 31.3s22.2-18.4 23.4-19.6 2-1.6 2-2.7c-.1-1.2-1.3-2.7-1.3-2.7L102.1 25l-1.9 3.6z" style="fill:#9c9c9c"/><path d="m97 23.5 23-19.3q1.6-1.6 3.3-.8c1.7.8 2.2 2.4 2.6 3l-25.8 22.2z" style="fill:#c8c8c8"/><path d="M21.4 60.8s-3.3 3-3.5 5.9a34 34 0 0 0 1.6 12.7c1.2 2 3 5.5 4.8 6.8 1.9 1.5 11.2 15.4 21.4 21.2 5.4 3.2 36.7 2.4 36.7 2.4s13-18 11.7-17l10.3-7.9c1.2-1 3.4-5.3 4.3-7.1.8-1.9 2.5-12 .4-14.4-1.3-1.4-2.8-1.6-2.8-1.6s-.2 4.1-3.7 6.6c-3.8 2.8-14.4 8.2-39.5 8-25-.3-35.5-5-39.2-10a17 17 0 0 1-2.5-5.7" style="fill:#c9c9c9"/><path d="M64.7 79.6a88 88 0 0 1-36.2-6.2c-6-2.8-10.5-7.6-10.5-7.6s-.9 2.3-.4 6.4c.4 4.6 2 7.2 2 7.2s3.6 5 14.2 8.7c7 2.4 17.6 4 30.3 4 34 .2 44-13 44-13s1.7-3.2 2.1-8.8c.2-3.2-.3-5.2-.3-5.2s-2.5 5.4-11 8.9c-6.6 2.7-17 5.8-34.2 5.6" style="fill:#e0e0e0"/><path d="M25.4 75.3c-1 .6-.2 5 .2 5.7.7 1.4 4.4 3.4 5.7 3 1.3-.5.7-4.8.2-5.9s-5-3.5-6-2.8" style="fill:#fff"/><path d="M23.7 85.7s-.3 5.3 2.6 14.5a37 37 0 0 0 7.3 14.1c1.5 1.5 8.8 9.2 28.7 9.6s29.3-7 32-9.6c2.2-2.1 5.3-8 7.4-13.7 2.9-8.2 3-16 3-16s-4 3.7-12 6.5a88 88 0 0 1-29.4 3.8c-31-.8-39.6-9.2-39.6-9.2" style="fill:#e0e0e0"/><path d="M28 90.3c-.7 1 .8 8 3 14 1.5 3.7 3.8 7.8 6.2 9.8s4.3 2 4.8 1.5c.8-.6-.6-2.2-1.9-4.7s-3-5.7-4.5-10.3c-1.1-3.3-1.4-6.2-2.5-8-.5-.8-4.5-3.1-5.1-2.3" style="fill:#fff"/><path d="M40.7 34.3c-1.6 2.7.1 4.9 2.5 5 3 0 3.7-3.7 2.6-5.2-1.2-1.6-4.2-1.4-5.1.2M36.1 24c1.1 1.4 3.8 1 5-.4s1.9-3.3.7-4.4-3.2-1.4-4.9.2c-1.7 1.7-1.4 3.6-.8 4.5m9.4-.9c-1.2 1-.7 3.1.7 3.5 1.9.5 3-.8 3-2.1 0-1.7-2.4-2.6-3.7-1.4m4.7-9.7c-.2 1.5 1 2.7 2.6 2.7 1.5.1 2.8-1.4 2.6-2.6q-.1-2.4-2.6-2.5c-2.5 0-2.5 1.4-2.6 2.4M32 32c-1-.1-2.4.9-2.4 2.5s1.4 2 2.2 2 2.1-.7 2.2-2.2-1.1-2.1-2-2.2m4.4 11.3c-1-.8-2.4-.3-3.3.8s-.6 2.8.2 3.5c.8.6 2.5.4 3.3-.6.5-.7 1.2-2.7-.2-3.7m13.1-8.2c-1.8.1-2.1 1.8-2 2.7s.9 2.5 2.4 2.3 2-2 2-2.8c-.2-.9-.9-2.4-2.4-2.2M57 45.7c-1.1 0-2.6 1-2.7 2.9s1.5 3 3 3 2.9-1.4 2.9-2.8a3 3 0 0 0-3.2-3.1m7.6 6.5c0 1.5 1.2 2.8 3 2.9 1.7 0 4-3 2-5-2-1.9-5 .1-5 2.1m-5.7 2.3a2 2 0 0 0-2 2c0 1.3 1.2 1.9 2.1 2 .5 0 2.3-.6 2.1-2s-1.4-2-2.2-2M82.8 46q.2 3 3 3c2.8 0 3.5-1.4 3.4-3.9a3 3 0 0 0-3.5-2.8c-1.5.3-3 1.1-3 3.7" style="fill:#d7598b"/><path d="M89.5 63.3c-1.3 1-1.2 2.7-.6 3.3.6.7 2.1 1.3 3.4.2 1-.9 1.3-2.7 0-3.5q-1.5-1-2.8 0m-16.3.8q-2.6 0-2.6 2.4t2.7 2.3c1.6-.1 2.6-1.4 2.2-3q-.5-1.5-2.3-1.7m1.1 8.5c-.5 1 0 2.4 1.7 2.5q2.7.1 2.8-1.7c0-1-1.1-1.9-2.4-1.9q-1.7.1-2.1 1m-19.2-.8q.7 1.5-1.2 2.6a2 2 0 0 1-2.8-1c-.4-1 .4-2.2 1.3-2.5.9-.4 2.1-.1 2.7.9M26 64.8c0 .8.7 1.7 2 1.5q1.6 0 1.7-1.5c0-1-1-1.7-2-1.6q-1.5 0-1.7 1.5M37 69q.1 2 2.5 2.1c1.5.1 2.3-1 2.2-2.2S40.3 67 39.3 67s-2.2.6-2.3 2m2-6c-.2.9 0 2 1.5 2.4s2.5-.5 2.5-1.5q-.1-1.8-1.8-2T39 63" style="fill:#dbedf6"/></svg>