<svg xml:space="preserve" width="16" height="16" viewBox="0 0 128 128"><circle cx="63.9" cy="64" r="60" style="fill:#c33"/><circle cx="60" cy="63.1" r="56.1" style="fill:#f44336"/><path d="M24 29.7c4.4-7.1 14-13 24-14.8q3.9-.8 7.1.2c1.6.6 3 2.1 2 3.8-.7 1.4-2.6 2-4 2.5a45 45 0 0 0-23 17.4c-2 3-5 11.3-8.8 9.2-3.9-2.3-3-9.5 2.6-18.3" style="opacity:.65;fill:#ff8a80"/><path d="M48.1 47.2q-2.7 4.3-5.9 8.5-.4.5-.4 1.2v45.8a2 2 0 0 1-2 2h-4a2 2 0 0 1-2-2V70.4a2 2 0 0 0-3.5-1.4l-4 3.6a2 2 0 0 1-3-.7l-2.4-4.5a2 2 0 0 1 .5-2.6Q33.1 55.9 41 43.7a2 2 0 0 1 2.5-.8l3.6 1.5a2 2 0 0 1 1 2.8M46.5 28q-8.1 10.5-19 18.2a2 2 0 0 1-2.8-.4v-.2l-2.2-3.4a2 2 0 0 1 .5-2.8c6-4.2 12.4-10.1 16.1-15.4q1-1.1 2.3-.7l4.1 1.6a2 2 0 0 1 1 3.1m54.6 52.9h-8.8a2 2 0 0 0-2 2v13.2c0 4.1-.8 6.2-3.8 7.3a32 32 0 0 1-12 1.3 2 2 0 0 1-2-1.4l-1-3.3a2 2 0 0 1 1.8-2.7h7q1.7 0 1.6-1.4v-13a2 2 0 0 0-2-2H49.4a2 2 0 0 1-2-2v-3.2c0-1.1 1-2 2-2H80a2 2 0 0 0 2-2v-2.6a2 2 0 0 0-2-2H51.6a2 2 0 0 1-2-2v-2.9c0-1.1 1-2 2-2h47.8a2 2 0 0 1 2 2v2.9a2 2 0 0 1-2 2h-7a2 2 0 0 0-2 2v2.6q.1 1.8 2 2h8.7a2 2 0 0 1 2 2v3.2c0 1-.8 2-1.8 2zm-39.7 1.7q4.7 4.3 8.6 9.3a2 2 0 0 1-.4 2.8l-3 2.1a2 2 0 0 1-2.8-.5q-3.6-5-7.9-9.3a2 2 0 0 1 .3-3.1l2.6-1.7q1.5-.6 2.6.4m34.4-27.4H56.6a2 2 0 0 1-2-2v-26c0-1.1 1-2 2-2h39.2a2 2 0 0 1 2 2v26a2 2 0 0 1-2 2m-8.4-23.9H64.7a2 2 0 0 0-2 2v2c0 1.1 1 2 2 2h22.7a2 2 0 0 0 2-2v-2a2 2 0 0 0-2-2m0 11.7H64.7a2 2 0 0 0-2 2v2c0 1.1 1 2 2 2h22.7a2 2 0 0 0 2-2v-2a2 2 0 0 0-2-2" style="fill:#fafafa"/><path d="M24 29.7c4.4-7.1 14-13 24-14.8q3.9-.8 7.1.2c1.6.6 3 2.1 2 3.8-.7 1.4-2.6 2-4 2.5a45 45 0 0 0-23 17.4c-2 3-5 11.3-8.8 9.2-3.9-2.3-3-9.5 2.6-18.3" style="opacity:.3;fill:#ff8a80"/></svg>