<svg xml:space="preserve" width="16" height="16" viewBox="0 0 128 128"><path d="M89.7 68.5A155 155 0 0 0 78.1 47h-32l-9.8 18.3c-5.6 10.3-18.2 43.4-18.2 43.4s.7 4.4 11.5 6.4c7.1 1.3 9.3.1 15.3 3.4 5.2 2.8 8.9 5.5 17.8 5.5s11.2-2.2 18.5-5.5c6.2-2.8 9.5-1.5 16.6-3 15-3 16-14 16-14s-11.5-4.7-24-33M82.5 6.8q0-1.3-1.2-1.7l-3.5-1q-1.7-.3-2.2 1.4L73.9 16s-5.3 1-11.2 5.7h-.4C56.4 17 51 16 51 16L49.3 5.5q-.5-1.7-2.2-1.4l-3.5 1q-1.2.4-1.3 1.7c.1 3.2.4 11.7 1.4 20.2 1 8.8 3 17.7 2.7 20.9 0 0 8 1 15.8 1.2h.5c7.8-.1 15.8-1.2 15.8-1.2-.3-3.2 1.8-12.1 2.7-20.9 1-8.5 1.3-17 1.3-20.2" style="fill:#1565c0"/><linearGradient id="a" x1="37.6" x2="86.2" y1="46.8" y2="46.8" gradientUnits="userSpaceOnUse"><stop offset="0" style="stop-color:#03a9f4"/><stop offset=".1" style="stop-color:#20b4f7"/><stop offset=".1" style="stop-color:#42c1fa"/><stop offset=".2" style="stop-color:#5dcbfc"/><stop offset=".3" style="stop-color:#71d2fe"/><stop offset=".4" style="stop-color:#7cd7ff"/><stop offset=".5" style="stop-color:#80d8ff"/><stop offset=".6" style="stop-color:#7dd7ff"/><stop offset=".7" style="stop-color:#72d3fe"/><stop offset=".8" style="stop-color:#60ccfc"/><stop offset=".9" style="stop-color:#47c3fa"/><stop offset=".9" style="stop-color:#27b7f7"/><stop offset="1" style="stop-color:#03a9f4"/></linearGradient><path d="M63.2 50.2c-9.1 0-15.3-.8-17.4-1a1 1 0 0 1-.7-.9l.6-4.3q.1-.7.8-.6a160 160 0 0 0 31.7 0q.7 0 .9.6l.4 4.3q0 .7-.6.9c-2 .2-6.8 1-15.7 1" style="fill:url(#a)"/><path d="M73.8 16c-.8 0-3.2.9-3.8 1.1q-4 1.5-7.2 4.5h-.6q-3.1-3-7.1-4.5c-.7-.2-3-1.1-3.9-1-1 .1.2 1.3 2 2.8l6.6 5.8q1.1 1 2.7 1t2.7-1l6.6-5.8c1.8-1.6 3-2.7 2-2.8" style="fill:#0d47a1"/><linearGradient id="b" x1="44.4" x2="51.5" y1="118" y2="64.9" gradientUnits="userSpaceOnUse"><stop offset=".3" style="stop-color:#0d47a1"/><stop offset="1" style="stop-color:#0d47a1;stop-opacity:.2"/></linearGradient><path d="M39.6 116a248 248 0 0 1 13.5-52.8s-3.2 29-4 57.6c0 0-2.8-1.8-5.4-3z" style="fill:url(#b)"/><linearGradient id="c" x1="82.8" x2="77" y1="120.1" y2="77.9" gradientUnits="userSpaceOnUse"><stop offset=".3" style="stop-color:#0d47a1"/><stop offset="1" style="stop-color:#0d47a1;stop-opacity:.2"/></linearGradient><path d="M77.5 120.3a205 205 0 0 1-3.3-42.4s5.6 23 13.6 38.7c0 0-2.7.4-5.3 1.3-1.8.7-5 2.4-5 2.4" style="fill:url(#c)"/></svg>