<svg xml:space="preserve" width="16" height="16" viewBox="0 0 128 128"><radialGradient id="a" cx="63.1" cy="53.9" r="49.5" gradientTransform="matrix(1 0 0 .905 0 5.14)" gradientUnits="userSpaceOnUse"><stop offset=".8" style="stop-color:#802828"/><stop offset="1" style="stop-color:#bd5151"/></radialGradient><path d="M108.3 52.5q-2 .1-2.5-1.6a25 25 0 0 0-2.5-8.1l-.4.1c-7.2 0-14.2 3-21.4 3h-36l-14.3-.1h-7q-.4 0-.7.2c-.4.3-.3 1.7-.7 2.2l-1.9 2.1c-1.9 2-2.9 4.9-2.7 7.7q.3 2.7 1.9 5c.4.6 1.4 1.2 1.6 2s-.5 1.8-.8 2.5c-.7 1.9-1.4 4.4-.8 6.5 0 0 2.4-2.2 3.9-2.7 0 0 .4 1.2 1.4 2.7 1.8 2.7 6.3 4.1 4.6 7.7-1 2.1-3.7 2.9-3.7 2.9 2 2.2 4.7 2.4 5.7 2.4h.4q1.2.2 1.9 1.1c5.6 6.2 9.5 7.5 29.3 7.5s23.7-1.3 29.3-7.5q.7-1 1.9-1.1l1.8.1q2.1.1 4.7-1s-3.8-1.6-3.9-5.2c0 0 1.2-1.2 3.4-1.2q1.3 0 3.1.8c-.9-4.6-5.6-5.6-5.3-5.7.5-.9 5.2-2.6 7.7-11.9l.8-3.9s3.8-.8 4.7-7.2c0 0-1.9.7-3.5.7" style="fill:url(#a)"/><linearGradient id="b" x1="64" x2="64" y1="99.3" y2="123" gradientUnits="userSpaceOnUse"><stop offset="0" style="stop-color:#f78c1f"/><stop offset="1" style="stop-color:#ed6d23"/></linearGradient><path d="M116 121c0-16.7-26.3-25-51.9-25H64c-25.5 0-52 7.3-52 25.1v3h3l101 .1z" style="fill:url(#b)"/><path d="M73.1 90.1H54.9v10c0 4.5 3.7 8.2 8.3 8.2h1.7c4.6 0 8.3-3.7 8.3-8.2zm18.2-39.7H36.7c-5.9 0-10.7 5.1-10.7 11.4s4.8 11.4 10.7 11.4h54.7c5.9 0 10.7-5.1 10.7-11.4-.1-6.2-4.9-11.4-10.8-11.4" style="fill:#709921"/><path d="M64 11.1c-17.4 0-33.5 18.6-33.5 45.4 0 26.6 16.6 39.8 33.5 39.8s33.5-13.2 33.5-39.8c0-26.8-16.1-45.4-33.5-45.4" style="fill:#82cc2b"/><path d="M78.6 79.7q-.7-.7-.8-1.6c.1-1 1-1.6 1.9-2 1.7-.8 3.4-1.7 5.3-1.9q1.1-.2 2.1.3 1.1.9 1 2.3c-.1 1.4-.5 1.7-1.1 2.3-2.4 2.9-5.7 3.2-8.4.6m2.8 4.3q.5.5.3 1.3t-1.1 1.5q-.5.5-1.2.8-1 .3-1.3-.4l-.1-.8c-.1-1.4.3-3.4 2.1-3.2q.8.2 1.3.8m-38.9-6.2q-.6.2-1.3-.4-.6-.7-.8-1.6-.2-.8-.1-1.4.2-.9 1-.9l.7.2c1.2.6 2.9 1.9 1.8 3.3q-.6.6-1.3.8M56.7 41q1.2-.7 2.4-.4c1 .4 1.5 1.7 1.2 2.8s-1.1 1.9-1.9 2.6q-.7.7-1.7.9-1.3 0-2.4-.9c-2.6-2.4-.1-3.8 2.4-5" style="fill:#709921"/><path d="m60.1 71.2.3.1h7.1l.3-.1q1-.5.7-1.6c-.3-1.1-1.7-2.7-4.5-2.7s-4.2 2-4.5 2.7q-.4 1 .6 1.6" style="fill:#597718"/><path d="M74.5 83c0 3.2-4.7 3.8-10.5 3.8s-10.5-.6-10.5-3.8 4.7-7.8 10.5-7.8 10.5 4.6 10.5 7.8" style="fill:#333"/><path d="M64 86.8c3.5 0 6.7-.2 8.6-1.1-.2-2.9-4-5.2-8.6-5.2s-8.4 2.3-8.6 5.2c1.9.9 5.1 1.1 8.6 1.1" style="fill:#f05455"/><radialGradient id="c" cx="64.3" cy="55.9" r="55.2" gradientTransform="matrix(1 0 0 1.084 0 -4.69)" gradientUnits="userSpaceOnUse"><stop offset=".6" style="stop-color:#802828"/><stop offset="1" style="stop-color:#bd5151"/></radialGradient><path d="M112.1 48c1.5-7.7-7.3-13.6-7.5-13.7.3-.3 4.3-4.7 1.7-11.2l-.1-.1-3.4 3.4c-1-2.6-3.1-5.2-5.8-6.9a11 11 0 0 0-7.3-1.7c.2-4.8-3.6-9.2-8.1-10.8a27 27 0 0 0-8.8-1.4c-7.9 0-15.2 2.9-19 4.4l-2 .3c-3.9 0-4.7-4.4-4.7-4.4H47l-.1.2c-.8.7-3.5 3.5-1.7 8l-.8.1c-4.7 0-7.6-9.1-7.6-9.1-7.4 9.8-.4 15.1-.4 15.1s-1-.3-2.4-.3a7 7 0 0 0-5.6 2.6c-1.5 1.9-1.1 3.5-2.6 5.4q-.5.7-1.5 1c-1.8.4-4.2-.1-4.2-.1v.1H20a7 7 0 0 0 6.5 4.8q-1.5.6-2.3 1.5c-2.7 2.7-1.3 7-1.3 7.1.6 5.8-8 3.2-8 3.2 4.3 12.7 14.1 7 14.1 7.1-.6 10.7 2.8 16 2.8 16v-.2l.1.1S36 50 35.6 47.2c0 0 7.8-1.5 16.6-6.6 6-3.4 10-7.4 16.7-8.9q2-.4 3.7-.4 3.8.1 5.7 1.6c2.3 1.7 3 3.9 3 3.9h.5c1.9-.2 9.3 0 11.8 11.3 1.2 5.4 1.7 14.4 2.3 19.8v-.3l.1.3c0-.8.9-2 1.2-2.7q1.3-2.8 2.1-5.8.4-1.4.5-3 0-1.2 1.2-1.7c3.8-1.6 3.3-5 6-6.6s5.1-.2 5.1-.2" style="fill:url(#c)"/><path d="M46.9 69.1c-4.9 0-8.8-4.5-8.8-10.1s4-10.1 8.8-10.1 8.8 4.5 8.8 10.1-3.9 10.1-8.8 10.1" style="fill:#4e6b17"/><path d="M46.9 50.3c4.2 0 8.3 4 8.3 9s-3 9.2-8.2 9.2-8.3-4.6-8.3-9.5 4.1-8.7 8.2-8.7m0-2.7c-5.6 0-10.2 5.1-10.2 11.4s4.5 11.4 10.2 11.4S57.1 65.3 57.1 59s-4.6-11.4-10.2-11.4" style="fill:#709921"/><ellipse cx="47.1" cy="56.8" rx="7.9" ry="8.2" style="fill:#fff"/><path d="M47.1 49.7c3.7 0 6.8 3.2 6.8 7.1s-3 7.1-6.8 7.1-6.8-3.2-6.8-7.1 3.1-7.1 6.8-7.1m0-2.2c-5 0-9 4.2-9 9.3s4 9.3 9 9.3 9-4.2 9-9.3-4-9.3-9-9.3" style="fill:#709921"/><path d="M40.6 104.3a3 3 0 0 0-2-1q-1.7-.3-2.4.8c-1 1.4-1.2 4-3.8 4.2-1.6.2-1.9-5.5-1.9-7.7 0-7.7.4-11.2.6-12 .2-.6.3-1.8.8-2.5 1.5 0 2.7-1.3 2.8-2.9.1-1.7-3-4.5-6.3-2-1.7 1.1-3.7 4.6-3.9 14.6 0 0-.4 1.5-1.1-.3s-2-5.3-.4-9.3c1 0 2.1-1 2.1-2.6.1-2-1.7-2.9-3-2.7s-4 .7-5 4.5c-.5 2.1-.4 4.3-.4 4.3s-2.4.6-2.7.8c-.7.6-2.4 1.7-2.2 5.7 0 1.8.7 4 .7 4s-1.4.7-2 1.4q-1.2 1.4-1.7 3.3a12 12 0 0 0 .3 6.6q.7 2 1.6 3.9l1.4 2.5v1.2l-1.1 5.1h14l.4-1.4c.3-.8 2.1-1.3 2.8-1.7 4.6-2.5 9.5-6.4 12.2-11.3.9-1.7 1.4-4.1.2-5.5m-23-4.7-.7-4.2 1-.4s.6 1.4.9 3.3-1.1 1.3-1.1 1.3" style="fill:#82cc2b"/><path d="M22 117.4c-.1 0 1-3-1.5-5.7-2-2.4-5-1.4-5-1.4s2.4.4 4.2 2.4 2.3 4.7 2.3 4.7m-6.5-16.3q1.2 1 1.2 2.4c-.1 1.1-1.2 2-2.4 2s-2.1-.2-3.2-.6c.8 1.4 2.3 1.4 2.3 1.4s.8 3.7 1.3 3.8v-3.5s2.2.3 3-2.5a3 3 0 0 0-1.6-3.8c-1.3-.5-3.2 0-3.2 0s1.9.2 2.6.8m1.8-10.6q1.3.4 1.6 1.7-.1 1.8-1.9 2.5c-1.8.7-2.2.2-3.3 0 1 1 2.2 1 2.3 1.2.2.3 0 2.2.8 3.2.3.5 1.2.6 1.2.6s-1-1.6-.8-3.9c0 0 .8-.2 1.4-.6q1.4-1 1.4-2.7c.2-1.9-1.6-2.6-2.9-2.8-1.9-.2-3.1.8-3.1.8s2.4-.3 3.3 0M12 119.1c1.5 1 3.8 1.3 5.3 1.2-2-.5-4.6-2.3-5.9-3.8l.7 1.4zm8.5 2.8c1 .8 3.2 1.3 4.9 1.1v-.2q.4-.8 1.8-1.3c-1.7.6-4.9.6-6.7.3M20 85.4q.1 1.3 1 1.9.8.4 1.5.5 0-.8.5-1.7-1.5 0-2.8-.7zm8.9-.7q0 1.5 1.2 2.5.4.5 1.2.7.2-1 .6-1.8-.8 0-1.3-.3-1-.5-1.7-1.1m6.7 20.4c-.6 1.3-1.2 3-3.2 3.2q-.3 0-.5-.2c0 1.6.3 3.5 0 5 2-2.1 3.7-4.6 3.7-8" style="fill:#709921"/><path d="M80.7 69.1c-4.9 0-8.8-4.5-8.8-10.1s4-10.1 8.8-10.1 8.8 4.5 8.8 10.1-3.9 10.1-8.8 10.1" style="fill:#4e6b17"/><path d="M80.7 50.3c4.2 0 8.3 4 8.3 9s-3 9.2-8.2 9.2-8.3-4.6-8.3-9.5 4.1-8.7 8.2-8.7m0-2.7c-5.6 0-10.2 5.1-10.2 11.4S75 70.4 80.7 70.4 90.9 65.3 90.9 59s-4.6-11.4-10.2-11.4" style="fill:#709921"/><ellipse cx="80.9" cy="56.8" rx="7.9" ry="8.2" style="fill:#fff"/><path d="M80.9 49.7c3.7 0 6.8 3.2 6.8 7.1s-3 7.1-6.8 7.1-6.8-3.2-6.8-7.1 3.1-7.1 6.8-7.1m0-2.2c-5 0-9 4.2-9 9.3s4 9.3 9 9.3 9-4.2 9-9.3-4-9.3-9-9.3" style="fill:#709921"/><path d="M88 109.8c2.7 5 7.5 8.8 12 11.3.8.4 2.7.9 2.9 1.7l.4 1.4h14l-1-5.1v-1.2q.5-1.4 1.3-2.6 1-1.8 1.6-3.8 1.1-3.3.3-6.6-.5-1.8-1.8-3.3c-.5-.7-1.9-1.4-1.9-1.4s.6-2.2.7-4c.2-4-1.5-5.1-2.2-5.7-.2-.2-2.7-.8-2.7-.8s0-2.2-.5-4.3c-.9-3.8-3.5-4.4-4.8-4.5-1.4-.2-3.2.7-3.1 2.7 0 1.6 1.1 2.6 2.2 2.6a12 12 0 0 1-.5 9.3c-.7 1.8-1 .3-1 .3-.3-10-2.3-13.5-4-14.7-3.4-2.4-6.4.4-6.3 2s1.3 3 2.9 3c.4.7.5 1.9.7 2.6.2.6.7 4.2.6 12 0 2.1-.3 7.8-2 7.6-2.4-.3-2.7-2.8-3.6-4.2q-.8-1-2.5-.8a3 3 0 0 0-2 1c-1.2 1.4-.7 3.8.3 5.5m21.5-11.5c.4-1.9.9-3.3.9-3.3l1 .4-.7 4.2s-1.5.6-1.2-1.3" style="fill:#82cc2b"/><path d="M106.3 117.4c.1 0-.9-3 1.5-5.7 2-2.4 5-1.4 5-1.4s-2.4.4-4.2 2.4c-1.7 2-2.3 4.7-2.3 4.7m6.5-16.3q-1.2 1-1.2 2.4c.2 1.1 1.3 2 2.4 2q1.6.1 3.2-.6c-.8 1.4-2.2 1.4-2.2 1.4s-.9 3.7-1.4 3.8v-3.5s-2.1.3-3-2.5a3 3 0 0 1 1.7-3.8c1.3-.5 3 0 3 0s-1.7.2-2.5.8M111 90.5c-.7.3-1.5.8-1.5 1.7-.1 1.1.8 2.1 1.8 2.5s2.2.2 3.3 0c-1 1-2.2 1-2.3 1.2-.1.3 0 2.2-.7 3.2-.4.5-1.3.6-1.3.6s1-1.6.8-3.9c0 0-.8-.2-1.4-.6q-1.4-1-1.4-2.7c-.1-1.9 1.6-2.6 2.9-2.8 1.9-.2 3.1.8 3.1.8s-2.3-.3-3.2 0m5.2 28.6a9 9 0 0 1-5.3 1.2c2-.5 4.6-2.3 6-3.8q-.5.6-.7 1.4zm-8.5 2.8c-1 .8-3.1 1.3-4.8 1.1l-.1-.2q-.5-.8-1.8-1.3c1.7.6 5 .6 6.7.3m.5-36.4q0 1.3-1 1.9-.7.4-1.4.5l-.5-1.7q1.6 0 2.7-.7zm-8.8-.7q0 1.5-1.2 2.5-.6.5-1.2.7-.2-1-.6-1.8.7 0 1.3-.3zm-6.8 20.4c.6 1.3 1.2 3 3.2 3.2l.6-.2q-.5 2.6 0 5a12 12 0 0 1-3.8-8" style="fill:#709921"/></svg>