<svg xml:space="preserve" width="16" height="16" viewBox="0 0 128 128"><path d="M94 9C72 9 64 31.4 64 31.4S56 9 34 9C17.5 9-1.4 22 5.5 52c7 29.9 58.6 67 58.6 67s51.4-37.1 58.4-67S111.9 9 94 9" style="fill:#f44336"/><path d="M30.7 11.2c17.2 0 25.7 18.5 28.5 26 .3 1 1.8 1 2.3 0l2.5-5.9A30.6 30.6 0 0 0 34 9c-6.9 0-14.2 2.2-19.8 7a31 31 0 0 1 16.5-4.8M94 9q-8 0-14 3.4 4.2-1.3 9.2-1.2c16.2 0 30.7 12.3 24.1 40.7-5.6 24.4-38.4 54-48.5 65.3-.6.7-.8 1.8-.8 1.8s51.4-37.2 58.4-67C129.5 22 111.9 9 94 9" style="fill:#c33"/><path d="M64.9 29.4h-1.7l.8 2zm58.2 1.6a1172 1172 0 0 0-118 0 45 45 0 0 0 .4 21l1 3.5c17-.8 71.2-5.6 115.7-2.6l.3-1q2.8-12.3.6-21" style="fill:#f5f5f5"/><path d="M123 31H79l-29.5.7-7.4.3-7.4.2-29.4 1.3 2.3-1.9a37 37 0 0 0 0 17.4l.7 2.9.8 3-2.7-2 28.9-1.7q14.5-.8 29-1.1t29 .1l7.3.3 7.2.3q7.3.4 14.5 1.2l-1 .7a59 59 0 0 0 2-19v-1.4zm.2-.2.6 2.8a37 37 0 0 1 .3 8.4q-.3 5.6-1.7 11v.1h-.2q-14.4-.9-29-1-14.4 0-28.8.5t-29 1.4L6.6 55.8h-.3v-.2l-.9-3-.7-3-.8-6.2q-.5-6.3 1-12.5v-.2H5a1352 1352 0 0 1 88.5-1.1l14.8.4 7.4.4 3.7.2z" style="fill:#aaa"/><path d="M110.7 13.4A526 526 0 0 0 66 27.3a394 394 0 0 0-60.1 26 66 66 0 0 0 10.2 19.6c13-7 53.5-26.8 107.4-40.1a27 27 0 0 0-12.8-19.4" style="fill:#f5f5f5"/><path d="m110.6 13.5-13.3 4.3L84 22.4l-13 4.8-13.2 4.7a267 267 0 0 0-19.3 8.3l-6.3 3Q19.4 49 7 55.5l1.2-2.9q1.5 5 4.1 9.6t5.8 9l-3.4-.8A306 306 0 0 1 41 58.2q13.3-5.7 26.8-10.6a475 475 0 0 1 55.5-15.8l-.8 1.2a29 29 0 0 0-7.4-15.7q-2-2.1-4.5-3.8m0-.3a26 26 0 0 1 8.8 8.3q3.3 5.2 4.3 11.3v.1h-.2a540 540 0 0 0-54.8 17 511 511 0 0 0-52.5 23.3l-.2.1-.2-.2a86 86 0 0 1-5.9-9.4 51 51 0 0 1-4.3-10.2v-.2l.2-.1Q18.3 46.6 31 40.8q12.8-6 26-10.8c4.4-1.6 9-2.8 13.3-4.5a484 484 0 0 1 40.4-12.3M124 36.3c-1.7-18.2-13-22.8-13.3-23l-6.9 2c8.9 5.6 14 17.4 9.6 36.6v.5l8.8.5.3-1c.1-.5 2-10 1.4-15.6" style="fill:#aaa"/><path d="m114.7 33.7.2 1.3 9 1.3-.4-3.5z" style="fill:#666"/><path d="M16.5 25.4c-.8-3.4 4.7-9.7 12.6-9.9 7-.1 6.4 6 1.7 8.7s-13.7 4-14.3 1.2" style="fill:#ff8a80"/></svg>