<svg xml:space="preserve" width="16" height="16" viewBox="0 0 128 128"><path d="M64.6 2.9c-41 0-40.7 37.9-40.7 38.5 0 24.6 1.9 59.2 11.7 72.9C39.5 119.7 47 120 47 120h34s7.5-.3 11.4-5.7c9.8-13.7 11.7-48.3 11.7-73 0-.5 1.5-38.4-39.5-38.4" style="fill:#543930"/><radialGradient id="a" cx="64" cy="69.6" r="47.5" gradientTransform="matrix(1 0 0 -1.19 0 141.22)" gradientUnits="userSpaceOnUse"><stop offset=".8" style="stop-color:#6d4c41;stop-opacity:0"/><stop offset="1" style="stop-color:#6d4c41"/></radialGradient><path d="M64.6 2.9c-41 0-40.7 37.9-40.7 38.5 0 24.6 1.9 59.2 11.7 72.9C39.5 119.7 47 120 47 120h34s7.5-.3 11.4-5.7c9.8-13.7 11.7-48.3 11.7-73 0-.5 1.5-38.4-39.5-38.4" style="fill:url(#a)"/><linearGradient id="b" x1="64" x2="64" y1="49.3" y2="6" gradientTransform="matrix(1 0 0 -1 0 128)" gradientUnits="userSpaceOnUse"><stop offset="0" style="stop-color:#f1f1f1"/><stop offset=".3" style="stop-color:#eee"/><stop offset=".6" style="stop-color:#e3e3e3"/><stop offset=".9" style="stop-color:#d1d1d1"/><stop offset="1" style="stop-color:#c9c9c9"/></linearGradient><path d="M64.1 96.5c-25.6 0-52 7-52 25v3h104v-3c0-17-26.1-25-51.9-25" style="fill:url(#b)"/><path d="M55 90.5v21c0 5.3 3.6 9.5 8.2 9.5h1.6c4.6 0 8.3-4.2 8.3-9.5v-21z" style="fill:#e59600"/><path d="m52.7 102.5 3.8 22H72l3.4-22z" style="fill:#81d4fa"/><linearGradient id="c" x1="50.5" x2="50.5" y1="3.9" y2="31.5" gradientTransform="matrix(1 0 0 -1 0 128)" gradientUnits="userSpaceOnUse"><stop offset="0" style="stop-color:#c9c9c9"/><stop offset=".2" style="stop-color:#dfdfdf"/><stop offset=".4" style="stop-color:#f1f1f1"/><stop offset=".7" style="stop-color:#fcfcfc"/><stop offset="1" style="stop-color:#fff"/></linearGradient><path d="M54.9 96.4c-6 .4-8.5 1-8.5 1l-3.3 7.6 5.3 4.3-3 6.1 5.7 9h6.8z" style="fill:url(#c)"/><linearGradient id="d" x1="77.5" x2="77.5" y1="3.9" y2="31.5" gradientTransform="matrix(1 0 0 -1 0 128)" gradientUnits="userSpaceOnUse"><stop offset="0" style="stop-color:#c9c9c9"/><stop offset=".2" style="stop-color:#dfdfdf"/><stop offset=".4" style="stop-color:#f1f1f1"/><stop offset=".7" style="stop-color:#fcfcfc"/><stop offset="1" style="stop-color:#fff"/></linearGradient><path d="m84.9 105-3.3-7.7q.2-.1-8.5-.9l-3 28H77l5.5-9-2.8-6z" style="fill:url(#d)"/><path d="M33 104.8c1.5-.8 3.3-2 4.2-2.8 2-1.6 6.5-6 9.8-2.9 3.7 3.2 0 8.3-1.5 10.4q-1 1.5-1.7 3.4" style="fill:none;stroke:#03a9f4;stroke-width:3;stroke-miterlimit:10"/><linearGradient id="e" x1="34" x2="24.6" y1="23" y2="12.2" gradientTransform="matrix(1 0 0 -1 0 128)" gradientUnits="userSpaceOnUse"><stop offset="0" style="stop-color:#757575"/><stop offset="1" style="stop-color:#000"/></linearGradient><path d="M29.8 111.8q-.7.3-1.6-.2a3 3 0 0 1-.6-2c.1-.9 1-1.2 3-2q2.3-1 4.1-2.2l-1.8-2.3s-2.2 1.2-3.4 1.6c-2 .8-4.5 1.8-4.9 4.4a6 6 0 0 0 5.2 7q2.2-.1 2.4-2.3c.2-2.2-1.4-2.1-2.4-2" style="fill:url(#e)"/><linearGradient id="f" x1="42.8" x2="33.4" y1="15.4" y2="4.6" gradientTransform="matrix(1 0 0 -1 0 128)" gradientUnits="userSpaceOnUse"><stop offset="0" style="stop-color:#757575"/><stop offset="1" style="stop-color:#000"/></linearGradient><path d="M37 117.3c0 .5-.1 1 .5 1.4.3.3 1.3.6 2.1.4.8-.3 1-1.2 1.5-3.2l1.6-4.5 2.5 1.6s-.9 2.3-1.1 3.5c-.5 2.2-1 4.7-3.6 5.4a6 6 0 0 1-7.6-4q-.4-2.3 1.8-2.7c2.2-.4 2.3 1 2.3 2" style="fill:url(#f)"/><path d="M55 94.1c-4.7.1-7.8 2.6-9 4l2.2 2s2.3-2.9 6.8-3zm31.3 8.9A15 15 0 0 0 73 93.6v3q1.6 0 4 .9a12 12 0 0 1 6.4 6.7L87 112l2.8-1.2z" style="fill:#03a9f4"/><linearGradient id="g" x1="87.9" x2="93.2" y1="18.4" y2="7.1" gradientTransform="matrix(1 0 0 -1 0 128)" gradientUnits="userSpaceOnUse"><stop offset="0" style="stop-color:#757575"/><stop offset="1" style="stop-color:#000"/></linearGradient><circle cx="90.2" cy="114.5" r="7" style="fill:url(#g)"/><circle cx="90.2" cy="114.5" r="4" style="fill:#9e9e9e"/><path d="M64 16c-17.2 0-33.1 12.8-33.1 40A40 40 0 0 0 56 94.8a24 24 0 0 0 7.9 1.5q3.6 0 7.8-1.5A40 40 0 0 0 97.1 56c0-27.2-15.9-40-33.1-40" style="fill:#ffca28"/><path d="M54.8 49.8c-1-1.2-3-3-7.2-3s-6.3 1.8-7.3 3q-.5 1 0 1.6t2 .4c1.4-.2 2.5-1.2 5.3-1.2s4.5.9 5.3 1.2q1.4.3 2-.4.4-.6-.1-1.6m32.9 0c-1-1.2-3.1-3-7.3-3s-6.3 1.8-7.2 3q-.5 1 0 1.6t1.9.4c1.5-.2 2.5-1.2 5.3-1.2s4.5.9 5.4 1.2q1.3.3 1.9-.4t0-1.6" style="fill:#6d4c41"/><ellipse cx="47.6" cy="58.8" rx="4.9" ry="5.1" style="fill:#404040"/><ellipse cx="80.4" cy="58.8" rx="4.9" ry="5.1" style="fill:#404040"/><path d="M72.4 76.1a26 26 0 0 1-16.8 0c-1.8-1-3.7.6-3 2.3s6.5 5.4 11.4 5.4 10.6-3.8 11.3-5.4-1-3.4-2.9-2.3" style="fill:#795548"/><path d="M67.9 68H60q-1 .5-.6 1.7c.3.7 1.7 2.7 4.5 2.7s4.3-2 4.6-2.7q.3-1.2-.7-1.6" style="fill:#e59600"/><path d="M64.6 2.9c-41 0-40.7 37.9-40.7 38.5q0 11.9.7 25.3h6.8c-.1-3 2-21 8-22.3 22.4-5 35-17 35-17 3.3 7.2 13.6 14.3 17.3 17 3 2.1 4.3 18.5 4.2 22.3h7.4v-.2c.6-8.7.8-17.4.8-25.1 0-.6 1.5-38.5-39.5-38.5" style="fill:#543930"/><radialGradient id="h" cx="64.3" cy="65.5" r="49.8" gradientTransform="matrix(1 0 0 -1.214 0 142)" gradientUnits="userSpaceOnUse"><stop offset=".8" style="stop-color:#6d4c41;stop-opacity:0"/><stop offset="1" style="stop-color:#6d4c41"/></radialGradient><path d="M64.6 2.9c-41 0-40.7 37.9-40.7 38.5q0 11.9.7 25.3h6.8c-.1-3 2-21 8-22.3 22.4-5 35-17 35-17 3.3 7.2 13.6 14.3 17.3 17 3 2.1 4.3 18.5 4.2 22.3h7.4v-.2c.6-8.7.8-17.4.8-25.1 0-.6 1.5-38.5-39.5-38.5" style="fill:url(#h)"/></svg>