<svg xml:space="preserve" width="16" height="16" viewBox="0 0 128 128"><path d="M93.8 81.2s5.3-5.2 10.7-3.7c5.5 1.6 9 4.4 9.5 10.2s-1 10-5.4 12.9c-5.6 3.7-12.4 1.3-12.4 1.3z" style="fill:#ecf0f2"/><path d="M60.2 42.6s4-8.9 3.8-20.8-3-18.3-9-18.1c-6.5.3-8.6 10.8-8.5 19.6a49 49 0 0 0 4 18.8zM46.7 77.7l-10 .9s.3 1 .2 2l-.4 3.2 12.7 10 24.1-13.4-6.4-4.5z" style="fill:#a8a8a8"/><path d="M19.5 65a1 1 0 0 1-.2-2c.1 0 2.7-.4 5.6-.5 3.1-.1 4-.1 6.7.4q.9.2.8 1.1a1 1 0 0 1-1.2.8 40 40 0 0 0-11.6.1zm-1.1 6.9a1 1 0 0 1-.2-2l5.6-1.2 6-.9q.9 0 1 1t-.8 1a126 126 0 0 0-11.3 2z" style="fill:#8e9395"/><path d="M81 86.8 45.5 109s-7.4 8.3-5.7 10c.8 1 4.3 1.7 7.2 1 4.3-.9 8-10 8-10s-1.9 13 1 13.5c3 .6 7.2-.1 9-3.6 2-3.5 2.6-7.7 4.3-9.5s3.2-3 3.2-3l3 3.6s-4.3 2.7-5.8 4.8c-1.6 2.3-1.3 4.9 1 5.8 3.3 1.3 17.5-4.4 17.5-4.4l-2.9-31.5z" style="fill:#a8a8a8"/><path d="M75.5 65.5s.5-3.3-.2-6.4-2.5-6.7-2.5-6.7 7-2.6 11.9-7.1c5.5-5 13.7-14.4 14.4-22s-3.8-14.7-16-7.4-20.8 25.4-20.8 25.4-9.6-4-17.4.2-12 15.1-12.3 15.9c-.4.7-5.2 3-5.8 9.6s3 10.2 8.5 11.7c3.8 1 7.3.2 7.3.2s3 3.2 10.5 3.2c7.5-.1 13.7-4 13.7-4s-1.4 5.3-8.2 8.2c-5 2.2-11.3 1.9-15.8-.1s-6-4.2-6-4.2-1.7 7.3 0 11.7 4.6 10.5 4.4 15.1-3.1 8-1.7 9.9c.8 1 4.2 1.9 6.8-.9 4.4-4.7 4.2-10 5.8-10.2 3.3-.5 1.7 9 1.6 11s-.4 4.5 1.8 4.9c4.6.7 5.3-1 7.3-5.7 2-4.6 1.8-7 3.8-9.7 1.6-2.3 4.4-3.8 4.4-3.8s-.6-6.2 1.5-9.5c2-3.3 6.2-5.9 9.2-4.8s-3.6 2-5.8 6.7c-1.6 3.4-1.3 7 1 9.4s5 4.5 5 4.5-10.8 3.9-11.8 7.8c-.7 2.9.5 4.2 7 3.6s15-3 18.3-7a35 35 0 0 0 4-27.6 28 28 0 0 0-12-16.7c-7.3-5.2-12-5.2-12-5.2" style="fill:#dfdfdf"/><path d="M69.9 44c-1.9-2 1.3-8.3 8.1-15.7q10.6-10.9 14.1-8c2.4 1.6-1 8.8-7.7 15.9C79 42 72.8 47 69.9 44" style="fill:#ffb0b1"/><path d="M47.7 43.6c2.6.5.3 4.3-1.9 8s-3.8 5.6-3.3 7.3 4.3 5.2 4.1 9.2-3.6 8.6-10 8-8.8-5.3-7.7-10.6c.8-4.1 5.1-6 6.2-8.1s3-5.5 5-8.3q3.9-6.1 7.6-5.5" style="fill:#fff"/><ellipse cx="56.8" cy="58.8" rx="4.8" ry="3.5" style="fill:#2f3030" transform="rotate(-84.4 56.78 58.82)"/><path d="M34.6 63.2s3.2-2.5 4.4-1.3c1.2 1.3-3.7 4.4-3.7 4.4s-.5 2.3 1 2.5 1.5-2.8 3-2c1.6.8.2 4.8-2.5 4.8-1.7 0-2.6-1.1-2.6-1.1s-.4.9-1.9.7c-2.4-.2-3.5-5-1.7-5 1.4 0 .5 2.3 1.8 2.3 1.5 0 1-2.7 1-2.7s-3.3-3.4-1.9-4.6c1.5-1.2 3.1 2 3.1 2" style="fill:#2f3030"/><path d="m56.5 69.3-.3-.1s-3.6-1.3-6-1.8l-5.4-1.2q-.9-.3-.7-1.2.3-1.2 1.1-.8l5.5 1.2c2.4.5 6 1.9 6.2 2a1 1 0 0 1-.4 1.9M55.4 76l-.5-.2a145 145 0 0 0-11.5-6.1 1 1 0 1 1 .8-1.9 58 58 0 0 1 11.7 6.3q.8.6.3 1.4a1 1 0 0 1-.8.4" style="fill:#8e9395"/></svg>