<svg xml:space="preserve" width="16" height="16" viewBox="0 0 128 128"><linearGradient id="a" x1="50" x2="58.8" y1="68.9" y2="68.9" gradientTransform="rotate(45 56 74.73)scale(1 1.117)" gradientUnits="userSpaceOnUse"><stop offset=".6" style="stop-color:#616161"/><stop offset=".8" style="stop-color:#565656"/><stop offset="1" style="stop-color:#424242"/></linearGradient><path d="m10.8 123.9-6.2-6.2 91.2-91.2 6.2 6.1z" style="fill:url(#a)"/><linearGradient id="b" x1="88.9" x2="95.7" y1="34.5" y2="41.3" gradientUnits="userSpaceOnUse"><stop offset=".3" style="stop-color:#f5f5f5"/><stop offset=".5" style="stop-color:#eaeaea"/><stop offset=".8" style="stop-color:#cdcdcd"/><stop offset="1" style="stop-color:#bdbdbd"/></linearGradient><path d="M100 28.5c-2.2-2.3-4.1-2-4.1-2l-16.2 16c1-.1 2.7.7 4.1 2.2 1.5 1.4 2.3 3.1 2.1 4l16.1-16s.3-2-2-4.2" style="fill:url(#b)"/><linearGradient id="c" x1="13.9" x2="20.7" y1="109.5" y2="116.3" gradientUnits="userSpaceOnUse"><stop offset=".3" style="stop-color:#f5f5f5"/><stop offset=".5" style="stop-color:#eaeaea"/><stop offset=".8" style="stop-color:#cdcdcd"/><stop offset="1" style="stop-color:#bdbdbd"/></linearGradient><path d="M25.1 103.4c-2.2-2.2-4.2-2-4.2-2L4.7 117.6c1-.2 2.7.5 4.2 2s2.2 3.2 2 4.2l16.2-16.2s.3-2-2-4.2" style="fill:url(#c)"/><ellipse cx="7.8" cy="120.7" rx="1.9" ry="4.4" style="fill:#9e9e9e" transform="rotate(-45 7.8 120.7)"/><linearGradient id="d" x1="68.4" x2="103" y1="60.1" y2="25.5" gradientUnits="userSpaceOnUse"><stop offset="0" style="stop-color:#fada80;stop-opacity:0"/><stop offset="1" style="stop-color:#fada80"/></linearGradient><path d="m95.8 26.5-68 68c-.7.7 0 2.7 1.8 4.4 1.7 1.7 3.7 2.5 4.5 1.7l68-68s.3-1.8-2-4.2-4.3-2-4.3-2" style="opacity:.85;fill:url(#d)"/><linearGradient id="e" x1="-2.5" x2="21.4" y1="131" y2="107.1" gradientUnits="userSpaceOnUse"><stop offset="0" style="stop-color:#1a237e"/><stop offset=".2" style="stop-color:#1d2a87;stop-opacity:.814"/><stop offset=".5" style="stop-color:#243da0;stop-opacity:.5097"/><stop offset=".9" style="stop-color:#2f5cc7;stop-opacity:.127"/><stop offset="1" style="stop-color:#3367d6;stop-opacity:0"/></linearGradient><path d="m72.6 49.7-68 68c-.7.7 0 2.7 1.8 4.4 1.7 1.7 3.7 2.5 4.4 1.7l68-67.9s.4-1.9-2-4.2-4.2-2-4.2-2" style="opacity:.22;fill:url(#e)"/><radialGradient id="f" cx="75.9" cy="23" r="14.8" gradientTransform="rotate(2.2 75.15 22.99)" gradientUnits="userSpaceOnUse"><stop offset="0" style="stop-color:#ffeb3b"/><stop offset="1" style="stop-color:#fbc02d"/></radialGradient><path d="m68.4 18.8 6-6c.3-.3.9 0 .8.5l-.8 7q0 .4.5.5l8.5 1c.5 0 .6.8.2 1l-9 4-.2.3-2.6 8.8c-.1.5-.7.5-1 .1L67 28.8q-.1-.3-.5-.3l-7.6.6a.5.5 0 0 1-.4-.8l5-5q.3-.1.2-.5L61 16.6q-.2-.7.6-.6l6.3 3z" style="fill:url(#f)"/><radialGradient id="g" cx="99.4" cy="65" r="11.9" gradientTransform="rotate(-20 97.62 67.9)" gradientUnits="userSpaceOnUse"><stop offset="0" style="stop-color:#ffeb3b"/><stop offset="1" style="stop-color:#fbc02d"/></radialGradient><path d="m90 63.3 4.8 2.2h.4l4.7-3.7q.5-.2.6.3l-.4 6 .1.3 4.6 2.8q.4.3-.2.6L99 73q-.3 0-.3.3l-1.2 5.3q-.3.5-.7 0l-2.5-4.5-.3-.2-6 .2q-.5-.2-.3-.6l3.9-4.6v-.4l-2-4.8q0-.6.5-.4" style="fill:url(#g)"/><radialGradient id="h" cx="134.6" cy="-6.4" r="16.5" gradientTransform="matrix(-.247 .942 -1.04 -.187 134.72 -108.97)" gradientUnits="userSpaceOnUse"><stop offset=".3" style="stop-color:#ffeb3b"/><stop offset="1" style="stop-color:#fbc02d"/></radialGradient><path d="m109.7 11.7 8.4-3.8q.8-.2.6.6l-4.2 7.7v.6l9 8.7q.4.6-.3.8l-11-2q-.4 0-.5.3l-5.8 10.7q-.6.6-1 0l-1-10.4q-.1-.4-.4-.4L94.3 23q-.6-.2-.2-.8l7.6-5.8.2-.4-1.4-11.6q.2-.8.8-.5l7.8 7.7z" style="fill:url(#h)"/><path d="M96.3 26.9q-5.6 1.6-11.4 2-5.9.6-11.6-.5L61.9 26q-5.7-1-11.4-1.7l-5.7-.6a17 17 0 0 0-5.5.3 8 8 0 0 0-4.4 2.6q-1.5 2-1.5 4.9c0 3.6 1.4 7.2 3.2 10.4q3 4.9 6.7 9.2 7.4 9 15.3 17.4l7.8 8.6q3.8 4.3 7.4 8.9 3.7 4.5 6.5 9.7.8 1.2 1.2 2.9a3 3 0 0 1-.4 1.7q-.5.9-1.3 1.2-1.5.5-3.1.4-1.5 0-3-.4Q68 100 63 97.2a86 86 0 0 1-9.9-6q5 3.1 10.1 5.6a48 48 0 0 0 13.6 4.1q1.5.1 2.6-.4.6-.1.8-.6t.2-1q-.3-1.3-1-2.5a66 66 0 0 0-6.7-9.4c-9.7-11.8-21-22.6-30.9-34.5Q38 48.1 35 43a23 23 0 0 1-3.4-11.5q0-3.2 2-5.9a10 10 0 0 1 5.3-3.2q3-.6 6-.3l5.8.7q5.8.9 11.5 2l11.3 2.6q5.5 1.3 11.4 1A78 78 0 0 0 96.3 27" style="fill:#fdd835"/><radialGradient id="i" cx="92.8" cy="70.1" r="93.7" gradientTransform="rotate(30.7 41.6 56.06)scale(1 .6)" gradientUnits="userSpaceOnUse"><stop offset="0" style="stop-color:#ffee58;stop-opacity:0"/><stop offset="1" style="stop-color:#fdd835"/></radialGradient><path d="M67.8 35.6c-11.3 2.7-24.2-5-36.1-3.6-4.5.6-6.4 6-2 14.6 8.5 14.8 21 23.5 25.7 29-6.2-3.5-19-12.7-27.9-21.3C14.2 41.5 16.7 25.5 29 25.5a48 48 0 0 1 15.6 2.8c3.3 1.4 14.5 6.3 23.2 7.3" style="fill:url(#i)"/></svg>