<svg xml:space="preserve" width="16" height="16" viewBox="0 0 128 128"><linearGradient id="a" x1="41.4" x2="39.1" y1="113.5" y2="116.7" gradientUnits="userSpaceOnUse"><stop offset=".1" style="stop-color:#000"/><stop offset="1" style="stop-color:#000;stop-opacity:0"/></linearGradient><path d="m35.5 114 7.3 5.4v-6l-6.6-.5z" style="opacity:.6;fill:url(#a)"/><linearGradient id="b" x1="41.4" x2="39.1" y1="83.5" y2="86.6" gradientUnits="userSpaceOnUse"><stop offset=".1" style="stop-color:#000"/><stop offset="1" style="stop-color:#000;stop-opacity:0"/></linearGradient><path d="m35.5 83.9 7.3 5.4v-6l-6.6-.4z" style="opacity:.6;fill:url(#b)"/><linearGradient id="c" x1="41.4" x2="39.1" y1="53.4" y2="56.6" gradientUnits="userSpaceOnUse"><stop offset=".1" style="stop-color:#000"/><stop offset="1" style="stop-color:#000;stop-opacity:0"/></linearGradient><path d="m35.5 53.8 7.3 5.5v-6l-6.6-.5z" style="opacity:.6;fill:url(#c)"/><linearGradient id="d" x1="41.4" x2="39.1" y1="23.4" y2="26.5" gradientUnits="userSpaceOnUse"><stop offset=".1" style="stop-color:#000"/><stop offset="1" style="stop-color:#000;stop-opacity:0"/></linearGradient><path d="m35.5 23.8 7.3 5.4v-6l-6.6-.4z" style="opacity:.6;fill:url(#d)"/><path d="M85.2 4h10v120h-10z" style="fill:#9e673c" transform="matrix(-1 0 0 -1 180.45 128)"/><path d="M37.5 60.7h120v6.6h-120z" style="fill:#e6a467" transform="rotate(90 97.46 63.99)"/><path d="m92.5 114-7.3 5.4v-6l6.6-.5zm0-30.1-7.3 5.4v-6l6.6-.4zm0-30.1-7.3 5.5v-6l6.6-.5zm0-30-7.3 5.4v-6l6.6-.4z" style="opacity:.6;fill:#784d30"/><path d="m92.6 19.3-57.5.2.6-1.6 5-3.6q.3-.3.8-.3l43.4.4q.3 0 .7.3l6.6 3.3z" style="fill:#ffcc80"/><path d="M91.6 24H36.2a1 1 0 0 1-1-1v-4.1q0-1 1-1h55.4q1 0 1 1v4q0 1-1 1.1" style="fill:#e6a467"/><path d="m92.6 109.2-57.5.2.6-1.6 5-3.6q.3-.3.8-.3l43.3.4q.5 0 .8.3l6.6 3.3z" style="fill:#ffcc80"/><path d="M91.6 114H36.2a1 1 0 0 1-1-1v-4.2q0-1 1-1h55.4q1 0 1 1v4.1q0 1-1 1" style="fill:#e6a467"/><path d="m92.6 79.2-57.5.2.6-1.5 5-3.7q.3-.3.8-.2l43.3.3q.5 0 .8.3l6.6 3.3z" style="fill:#ffcc80"/><path d="M91.6 84H36.2a1 1 0 0 1-1-1v-4.2q0-1 1-1h55.4q1 0 1 1V83q0 1-1 1" style="fill:#e6a467"/><path d="m92.6 49.2-57.5.2.6-1.5 5-3.7.8-.2 43.3.4q.5 0 .8.2l6.6 3.3z" style="fill:#ffcc80"/><path d="M91.6 54H36.2a1 1 0 0 1-1-1v-4.2q0-.9 1-1h55.4q1 .1 1 1V53q0 .9-1 1" style="fill:#e6a467"/><path d="M27.2 4h10v120h-10z" style="fill:#9e673c" transform="matrix(-1 0 0 -1 64.45 128)"/><path d="M-20.5 60.7h120v6.6h-120z" style="fill:#e6a467" transform="rotate(90 39.46 63.99)"/></svg>