<svg xml:space="preserve" width="16" height="16" viewBox="0 0 128 128"><path d="M4.2 28c-1 9.7 2.3 35.5 31.3 64.5S90.3 124.8 100 124a31 31 0 0 0 21.2-12.8c2.4-3.5 3.7-6.5-8.4-18.5-12.9-12.9-19-8.9-21.8-7 0 0-4 3.2-6 4.4a8 8 0 0 1-4.2 1.3c-3.4 0-9.4 1.9-26-14.2l-3.9-3.9c-16-16.6-14.2-22.6-14.2-26q0-2.5 1.3-4.3c1.2-1.9 4.4-5.9 4.4-5.9 1.8-2.7 5.9-9-7-21.8-12-12-15-10.8-18.5-8.4l-1.2 1A32 32 0 0 0 4.2 28" style="fill:#424242"/><path d="M110 94.7c12.5 12.6 9 19 9 19 2.6-1.1 11.8-8-4.1-24s-23-6.7-24-4.1c0 0 6.4-3.5 19 9M18.7 50c2.5 6 8.7 19 24.5 34.8s28.7 22 34.8 24.5c2 .9 4-1 3.5-3a18 18 0 0 1 3.2-15.7l.4-.6s-2.3 1.3-4.3 1.3c-3.3-.1-10.6 1.1-27.9-16.2S36.8 50.5 36.7 47.2c0-2 1.3-4.3 1.3-4.3l-.6.4c-6 4.4-11.8 4.2-15.7 3.2-2-.5-3.9 1.5-3 3.5m14.7-32c-12.7-12.5-19-9-19-9 1-2.6 8-11.8 23.8 4.2S45 36 42.4 37c0 0 3.5-6.4-9-19" style="fill:#616161"/><path d="M20.6 5.7q-.8 1.3.1 2.2c.6.6 3.1 1.3 5.5 2.3s3.7 2.4 5 2.4q1.1 0 2-.9.5-1 0-2.1-.5-1-1.4-1.7C29.4 6 23 2 20.6 5.7" style="fill:#757575"/><path d="M9.7 34.9c-1.1-3.7-.7-8.7.5-12.6 1.9-5.8 4.8-7.1 6.2-7 1.7 0 3.2 1.3 3 3.6-.3 1.8-1.8 3.3-3.3 5-2.6 3-3.3 7-4.4 10.8-.4 1.6-1.6 1.4-2 .2" style="fill:#616161"/><path d="M115.2 97.5c3 4.1 4.2 5.4 5.1 6 1.5.6 2.3-.3 2.5-1.2q0-1-.4-2a17 17 0 0 0-5-7.3c-1-.9-2.4-.9-3.1.4s0 3 .9 4.1" style="fill:#757575"/><path d="m105 113.6 5.8-5q1.1-1 2.4-.7c1.3.3 1.4 1.7 1.2 3.1-.6 5-7 7.8-10.2 8.4-4.3.9-9.7.3-9.5-1 .2-1 2.3-1 5.2-2.1q2.7-1 5-2.7" style="fill:#616161"/></svg>