<svg xml:space="preserve" width="16" height="16" viewBox="0 0 128 128"><path d="M53.7 49.8 13 53.9s.2 3 1 3.6 25.3.3 49.8.4 48.7.6 49.2.3c1.2-.4 1.2-4.4 1.2-4.4zM66.5 27 9.7 25.6s1.2 2.8 2.8 3.7c2.4 1.3 16.7 4 51.9 4s47.8-1.7 50.9-3c2.6-1 5.5-7 5.5-7zM30 36.3v-6.1l9.3.6v5.4zM90.8 31v6l9.8-.4v-6.2z" style="fill:#8a1e0c"/><path d="M9.7 23.2s-3-1.5-6.2-7c-2.3-3.9-2.7-7.5-1.8-8s9.7 4.8 25.9 7.2c11.6 1.8 24.6 2.8 36.8 3 13 0 25.7-.7 37.8-3 16.3-3 22-6.4 23.7-5.9s-.5 5.5-1.7 8c-.8 1.7-4.3 8-6.8 8.4-1.9.4-89.8-.4-89.8-.4z" style="fill:#474c4f"/><path d="M58.6 28.5v22L69.3 49V28.5zM90.8 35h9.8v75.6l-10 1.4zM30 35v76.7l9.3-1V35.2zm83.8 10.9c-.5-.7-2.2-.6-2.2-.6h-5c0-1.9-.1-4.2-.4-4.6-.6-.6-20.5-.4-21.2.2-.4.4-.5 2.4-.5 4l-39.7-.3c0-1.7 0-3.8-.4-4-.5-.6-19-.9-19.7-.4-.5.4-.6 3-.6 4.4-6.2 0-10.2 0-10.5.2-1.5.6-.6 9.1-.6 9.1l101.1.8s.2-8-.3-8.8M6.9 17.8q-.8.8 1 4.7c.4 1.1 1.8 3.6 2.3 4.2 0 0 13.5 3.4 54 3.1s54.4-2.8 54.4-2.8 4.1-5.7 3.4-6c-.5 0-21.8 4.5-58.1 4.1s-57-7.3-57-7.3" style="fill:#eb2901"/><path d="M27.1 108.6c-.3.4-.6 10.7 0 11.1s14 .6 14.5.1.4-10.3.1-10.9-14.1-.7-14.6-.3m61 1.3c-.5.8-.5 10.3 0 11s14.6.4 15 0c.3-.5.2-10.8 0-11.1s-14.6-.6-15 0" style="fill:#474c4f"/></svg>