<svg xml:space="preserve" width="16" height="16" viewBox="0 0 128 128"><circle cx="64.5" cy="64" r="60" style="fill:#f2a600"/><circle cx="60.6" cy="63.1" r="56.1" style="fill:#ffcc32"/><path d="M77 64.4h32.7c1 0 1.8-1 1.8-2a47 47 0 0 0-21.8-37.7q-1.5-.8-2.5.5L70.7 53.7q-.7 1.2.5 2.3 3.2 2.7 4 7 .3 1.3 1.8 1.5M64.5 75.2q-2.1 0-4.1-.8-1.5-.5-2.2.8l-16.3 28.3c-.5.8-.2 2 .6 2.4a47 47 0 0 0 43.8 0c.8-.4 1.2-1.5.7-2.4L70.7 75.2a2 2 0 0 0-2.2-.8q-2 .8-4 .8"/><circle cx="64.5" cy="64.4" r="7.2"/><path d="M24.5 29.7c4.5-7.1 14-13 24-14.8q3.9-.8 7.2.2c1.6.6 2.9 2 2 3.8-.7 1.4-2.6 2-4.1 2.5a45 45 0 0 0-23 17.4c-2 3-5 11.3-8.7 9.2-4-2.3-3.1-9.5 2.6-18.3" style="opacity:.65;fill:#fff170"/><path d="M58.3 53.5 41.9 25.3a2 2 0 0 0-2.5-.6 47 47 0 0 0-22 37.8q.2 1.6 1.9 1.9H52q1.4-.2 1.8-1.5.6-4.3 4-7a2 2 0 0 0 .5-2.4"/><path d="M24.5 29.7c4.5-7.1 14-13 24-14.8q3.9-.8 7.2.2c1.6.6 2.9 2 2 3.8-.7 1.4-2.6 2-4.1 2.5a45 45 0 0 0-23 17.4c-2 3-5 11.3-8.7 9.2-4-2.3-3.1-9.5 2.6-18.3" style="opacity:.3;fill:#fff"/></svg>