<svg xml:space="preserve" width="16" height="16" viewBox="0 0 128 128"><linearGradient id="a" x1="64" x2="64" y1="101.5" y2="26.1" gradientTransform="matrix(1 0 0 -1 0 128)" gradientUnits="userSpaceOnUse"><stop offset="0" style="stop-color:#757575"/><stop offset=".5" style="stop-color:#504f4f"/></linearGradient><path d="M55.2 60.4c0-1.1 1-2 2-2h5.5q5.7 0 9-3c3.4-3 3.4-4.7 3.4-8.4q0-5.2-2.8-8.2T64 36q-5 0-8.2 2.9a9 9 0 0 0-3 5.7 2 2 0 0 1-2 1.8h-8.5a2 2 0 0 1-2-2.2q.5-4.5 3-8.2 3-4.6 8.4-7.3Q57 26 63.7 26q11.1 0 17.4 5.6c6.3 5.6 6.3 8.8 6.3 15.4q0 5-3.2 9.4-2 2.8-4.9 4.8a2 2 0 0 0 .2 3.3 17 17 0 0 1 9 15.8q0 10-6.9 15.8-6.8 6-17.9 5.9-10.7 0-17.5-5.7-6-5-6.7-13a2 2 0 0 1 2-2.1H50q1.6.1 2 1.8a10 10 0 0 0 3 6q3.3 3 8.8 3 5.9 0 9-3c3.2-3 3.4-5 3.4-8.8q0-6-3.5-9c-3.5-3-5.7-3.2-10.2-3.2h-5.3a2 2 0 0 1-2-2z" style="fill:url(#a)"/></svg>