<svg xml:space="preserve" width="16" height="16" viewBox="0 0 128 128"><path d="M123.8 12.2C123.4 9.4 121 8 121 8c-3.4.4-23.1 9-23.1 9l-.7 5.6-42.6 41.7q-.6.7.1 1.6l6.8 6.7q.9.8 1.6 0s3.7-1.3 8-6.1c2.9-3.2 2-5.1 3.6-6.8l28.2-31.6 5.2.1q1.5 0 2.3-1.3a67 67 0 0 1 6.2-9.5c1.7-1.8 2.3-1.6 4.6-2.2s3-.8 2.6-3" style="fill:#2f7889"/><path d="M56.8 62.1s-3.6-4.1-7.3-2.5c-5 2.3-1.6 7.8-8.2 10-7.2 2.6-12.3 7.3-9.8 13 2.6 6.3 13.2 6.6 13.7 22.5.2 7.6 5.6 7.4 8 4.9 4.2-4.4 3.8-18 8.2-22.8s15-3.6 19-12.7c0 0-6.7 6.8-15.2.1-4-3.1-4-8.4-4-8.4z" style="fill:#fffde7"/><path d="M67.2 54.3s.5.5-.8-.6c-2.7-2.4-4.6 6-8.9 1.7-5.6-4.7-3.9-9 .5-13.6 2-2.3 3-3.4 2.6-6-.4-2.3-2.5-3.7-5.3-3.7-2.8.1-7.7 3.8-12.5 10.9-7.2 10.7-3.8 16.3-11.3 22-7.5 5.8-24 7.8-25.2 22.3-.6 8.3 3.2 13 8.2 19C17.9 110.7 26 118 32.2 121s13.7 4.8 20 .6C66.1 112.3 64 103 66.3 96.8c2.7-7 9.4-4.6 16.2-11.1 5.1-4.6 6.2-9.1 6-12.2-.4-3.2-3.2-6.5-5.8-6-1-.5.1 2.4-.7 4.2-2.2 4.3-5.6 6.9-10.2 3.3-3.7-3 .6-10.4.6-10.4l-2.8-3.4z" style="fill:#c62828"/><path d="m65.1 52.2-.8-.7c-2.8-2.3-8.4 5.2-12.6 1-4-4 1.7-10 5.9-14 3.6-3 .2-6.6-2.3-6.4-2.8.1-9.8 1.7-14.6 8.7C33.5 51.5 37 57.2 29.4 63c-6 4.6-15.7 6.4-21.7 14.5-1.5 2-2.7 3-3.5 7.7-.7 8.3 3.2 13 8.1 19.2 3.5 4.2 11.7 11.4 17.8 14.5s13 4.7 19.2.6C63 110 60.7 99.6 63 93.6c2.7-7 11.2-4.8 18-11.3 4.5-4.3 5.6-7.9 5.3-11-.2-2.2-1.8-3.2-3-3.7-1-.5-2.6.2-3.5 2-2.1 4.3-5.6 6.8-10.1 3.2-3.7-2.9 0-11.2 0-11.2z" style="fill:#f44336"/><path d="M54.7 60.6c-.7-.6-4.7-3.2-8.2 0-3.8 3.5-.7 8.2-6.7 9.2-7.5 1.1-12 6.1-9.5 11.9 2.6 6.2 14.4 7.5 14.9 23.3.2 7.6 5.5 7.3 8 5 5.8-5.6 2.5-17.7 8.2-22.9 4.9-4.4 12.3-2 15.9-8.2.6-1.1.7-2-.9-1.5-2.7 1.2-6.2 1.8-10-2-3-3-2.5-7.2-2.5-7.2z" style="fill:#fffde7"/><circle cx="51.1" cy="95.5" r="3.1" style="fill:#82aec0" transform="rotate(-46.8 51.12 95.51)"/><path d="M48.9 93.4c1-1.2 3.1-1.5 4.5-.4a3.4 3.4 0 0 1 .3 5q-1 1-2.5 1t-2.4-1a3.4 3.4 0 0 1 0-4.6m0 0a3 3 0 0 0-.8 2.2q0 1.3 1 2c1.2 1 3 .7 4-.3s1-2.7 0-3.9a3 3 0 0 0-4.2 0" style="fill:#2f7889"/><circle cx="50.5" cy="104.3" r="2.6" style="fill:#82aec0" transform="rotate(-46.8 50.55 104.27)"/><path d="M48.6 102.5a3 3 0 0 1 4-.4 3 3 0 0 1 1 2 3 3 0 0 1-3 3.2 3 3 0 0 1-2-1 3 3 0 0 1 0-3.8m0 0q-.7.8-.6 1.8a2.4 2.4 0 0 0 4.1 1.4c.8-.8 1-2.2.1-3.2q-.6-.8-1.7-.8t-1.9.8" style="fill:#2f7889"/><path d="m102.8 25.6-6.4-6.9-42.9 43.7q-.6.7.1 1.6l6.8 6.5q1 .6 1.6 0zM95 19.9l-.3-1.2c-.8-2.5.7-3.1 1.3-3.3 4-1.5 17.4-6.9 20.3-7.6 2.5-.6 6.3-.5 6.5 3.3q0 1.7-2 2c-1.8.4-3 .4-5.3 3a60 60 0 0 0-6 9.2q-.8 1.1-2.2 1.2l-5-.5z" style="fill:#f7cf92"/><path d="m48.4 64.6 2 .5 1.2 1.3 2.5 2.4 2.5 2.5 1.2 1.3.5 2-2-.6-1.2-1.3-2.5-2.4-2.4-2.5-1.3-1.3zm-7.7 7.7 2 .5q.5.7 1.2 1.3l2.5 2.5 2.5 2.5 1.2 1.2.5 2-2-.6-1.2-1.2L45 78l-2.5-2.5-1.3-1.3zM36.6 78l1.7 1.1.9 1.6 1.6 3.1 1.6 3.2.8 1.5v2l-1.8-1-.8-1.6-1.6-3.2-1.6-3-.8-1.6z" style="fill:#82aec0"/><path d="m27.6 91.6 68.5-70.9M28.9 92.8l68.3-71.2M30.1 93.9l68.2-71.3M31.4 95.1l67.9-71.5M32.7 96.2l67.8-71.8M34 97.4l67.7-72" style="fill:none;stroke:#82aec0;stroke-width:.5;stroke-linecap:round;stroke-miterlimit:10"/><path d="M21.6 90.3q-.4.5-.1.8l13.3 12.2q.3.3.8-.2l4.5-4.7q.4-.6.1-.8L27 85.4q-.4-.3-.9.2z" style="fill:#2f7889"/><path d="M40.5 51.3q-1.2-.2-1-2.8A17 17 0 0 1 48.9 36c1.8-.8 3.3-.6 3.7 1.4q.3 1.7-2 3c-3.6 2.2-7 5.2-8 9.2q-.6 2-2 1.6" style="fill:#ff7043"/><ellipse cx="95.6" cy="13.1" rx="1.6" ry="2.2" style="fill:#82aec0" transform="rotate(-54.4 95.6 13.1)"/><ellipse cx="99.6" cy="11.7" rx="1.6" ry="2.2" style="fill:#82aec0" transform="rotate(-54.4 99.6 11.65)"/><ellipse cx="103.6" cy="10.2" rx="1.6" ry="2.2" style="fill:#82aec0" transform="rotate(-54.4 103.61 10.19)"/><ellipse cx="107.6" cy="8.7" rx="1.6" ry="2.2" style="fill:#82aec0" transform="rotate(-54.4 107.62 8.73)"/><ellipse cx="111.6" cy="7.3" rx="1.6" ry="2.2" style="fill:#82aec0" transform="rotate(-54.4 111.63 7.27)"/><ellipse cx="115.6" cy="5.8" rx="1.6" ry="2.2" style="fill:#82aec0" transform="rotate(-54.4 115.63 5.81)"/></svg>