<svg xml:space="preserve" width="16" height="16" viewBox="0 0 128 128"><circle cx="64" cy="64" r="60" style="fill:#c33"/><circle cx="60.1" cy="63.1" r="56.1" style="fill:#f44336"/><path d="m98 87.2-4.2-1.7q-1.5.2-1.6 1.5c-.3 8-.7 9.6-2.2 9.6h-4.8c-1.7 0-2-.5-2-3.2V65.6q.1-1.5 1.6-1.6h7.7q1.3-.2 1.6-1.5V30.3q-.3-1.4-1.6-1.5l-39.2.1q-1.4.1-1.5 1.4v32.4q0 1.4 1.5 1.5h5.5q1.3.2 1.5 1.5v.1c-1 14.6-3.4 24.9-15.8 31.3a1.5 1.5 0 0 0-.5 2.4 22 22 0 0 1 3 3.8q.4.7 1.3.7l.7-.2c14.9-7.6 18.2-20.4 19.2-38.2q0-1.3 1.5-1.5h4q1.3.1 1.6 1.6v27.9c0 7.5 1.6 9.9 8.5 9.9h6.9c5.8 0 7.6-3.3 8.3-14.7q0-1.2-1-1.6M60.9 56.7q-1.4-.1-1.5-1.5V37.8q0-1.3 1.5-1.5h23.5q1.3.2 1.5 1.5v17.4q-.1 1.4-1.6 1.5z" style="fill:#fafafa"/><path d="M24.4 29.7c4.5-7.1 14-13 24-14.8q3.9-.8 7.2.2c1.6.6 2.9 2.1 2 3.8-.7 1.4-2.6 2-4.1 2.5a45 45 0 0 0-23 17.4c-2 3-5 11.3-8.7 9.2-4-2.3-3.2-9.5 2.6-18.3" style="opacity:.65;fill:#ff8a80"/><path d="M46.5 76.9q.7 0 1.2-.6l3-4q.6-1-.1-2L40.5 60.1q-.8-1-.2-2 5.1-7.6 8.4-16.3.3-1.1-.7-1.8l-2.7-1.8q-.3-.3-.9-.3h-6v-7.5q0-1.4-1.5-1.6h-4.7q-1.3.2-1.5 1.6v7.7H20.4q-1.3.2-1.5 1.5v4.3q.2 1.3 1.5 1.5h16.1q1.5.1 1.6 1.5 0 .5-.2.8a69 69 0 0 1-19.5 22.5q-1 .8-.5 2 1.2 2.6 2 5.1a1.6 1.6 0 0 0 2.6.8q3-2.4 5.8-5.2.4-.5 1-.5 1.4.1 1.6 1.5v28.7q0 1.5 1.5 1.6H37q1.3-.2 1.5-1.6V72.4a1.6 1.6 0 0 1 2.8-1l3.8 4.9q.5.6 1.3.6" style="fill:#fafafa"/><path d="M24.4 29.7c4.5-7.1 14-13 24-14.8q3.9-.8 7.2.2c1.6.6 2.9 2.1 2 3.8-.7 1.4-2.6 2-4.1 2.5a45 45 0 0 0-23 17.4c-2 3-5 11.3-8.7 9.2-4-2.3-3.2-9.5 2.6-18.3" style="opacity:.3;fill:#ff8a80"/></svg>