<svg xml:space="preserve" width="16" height="16" viewBox="0 0 128 128"><path d="M84.9 62.9q-1-1.6 1.8-4.3a16 16 0 0 0 3-14.9q-.3-1.2-1-2.3v-.2l-.2-.3H39.3l-.2.5-.5.9a16 16 0 0 0 2.5 16.3c1.9 2 2.4 3.1 1.8 4.3q-.6 1-1.5 1.2l-1.5.3.8 1.2q.4.7 1 1 1.8 1 3.5.9l.4.3c3.7 4.1 6.5 4.9 18.3 4.9s14.6-.8 18.3-4.9l.4-.3q1.6 0 3.5-.9.6-.3 1-1l.8-1.2-1.5-.3q-1-.1-1.5-1.2" style="fill:#ab872f"/><radialGradient id="a" cx="101.8" cy="62.1" r="13.7" gradientTransform="matrix(-1.002 -.11 -.019 .647 154.5 33.29)" gradientUnits="userSpaceOnUse"><stop offset=".7" style="stop-color:#bfa055;stop-opacity:0"/><stop offset="1" style="stop-color:#bfa055"/></radialGradient><path d="m58.6 72.6 5.4-7.1-17.2-.5-1.1 2.9s1.2 1.3 2 1.9c1 .9 3 2.3 8 2.6z" style="fill:url(#a)"/><radialGradient id="b" cx="92" cy="62.7" r="4" gradientTransform="matrix(.906 .561 .314 -.89 -60.92 66.21)" gradientUnits="userSpaceOnUse"><stop offset=".3" style="stop-color:#bfa055"/><stop offset="1" style="stop-color:#bfa055;stop-opacity:0"/></radialGradient><path d="M46.2 65c3.7-6.6-5.8-7.1-5.8-7.3l.7.9q2 2.2 2 3.2c0 1.8-1.2 2.3-2.2 2.4l-1 .2s3.7 4 6.3.6" style="fill:url(#b)"/><radialGradient id="c" cx="98" cy="70.3" r="13.8" gradientTransform="matrix(.075 -1.32 -.831 -.082 99.2 187.22)" gradientUnits="userSpaceOnUse"><stop offset=".7" style="stop-color:#bfa055;stop-opacity:0"/><stop offset="1" style="stop-color:#bfa055"/></radialGradient><path d="M40.2 57.4c.3.5 10.5-4.6 12.2-10.8q.6-2 .7-3.9 0-1.7-.5-3c-.6-1-11.9-.7-11.9-.7-5.2 6-3.6 14.2-.5 18.4" style="fill:url(#c)"/><radialGradient id="d" cx="104" cy="62" r="13.7" gradientTransform="matrix(1.002 -.11 .019 .647 -28.95 33.62)" gradientUnits="userSpaceOnUse"><stop offset=".7" style="stop-color:#bfa055;stop-opacity:0"/><stop offset="1" style="stop-color:#bfa055"/></radialGradient><path d="m69.2 72.6-5.5-7.1L81 65l1 3-2 1.9c-1 .9-3.1 2.3-8 2.6z" style="fill:url(#d)"/><radialGradient id="e" cx="94.2" cy="62.7" r="4" gradientTransform="matrix(-.906 .561 -.314 -.89 190.7 64.98)" gradientUnits="userSpaceOnUse"><stop offset=".3" style="stop-color:#bfa055"/><stop offset="1" style="stop-color:#bfa055;stop-opacity:0"/></radialGradient><path d="M81.6 65c-3.8-6.6 5.8-7.1 5.8-7.3l-.7.9q-2 2.2-2 3.2c0 1.8 1.2 2.3 2.2 2.4l1 .2s-3.7 4-6.3.7" style="fill:url(#e)"/><radialGradient id="f" cx="100.2" cy="70.3" r="13.8" gradientTransform="matrix(-.075 -1.32 .831 -.082 28.75 190.13)" gradientUnits="userSpaceOnUse"><stop offset=".7" style="stop-color:#bfa055;stop-opacity:0"/><stop offset="1" style="stop-color:#bfa055"/></radialGradient><path d="M87.6 57.4c-.3.5-10.5-4.6-12.2-10.8q-.7-2-.7-3.9-.1-1.7.5-3c.5-1 11.9-.7 11.9-.7 5.2 6 3.6 14.2.5 18.4" style="fill:url(#f)"/><linearGradient id="g" x1="65.9" x2="65.9" y1="54.4" y2="15.7" gradientTransform="matrix(1 0 0 -1 0 128)" gradientUnits="userSpaceOnUse"><stop offset="0" style="stop-color:#ff7507"/><stop offset=".4" style="stop-color:#fd6806"/><stop offset="1" style="stop-color:#f94b04"/></linearGradient><path d="m114.4 89.1-.2.5c-1.8 4.3-6.7 16.2-9 19.6-1.7 2.6-4.5 3.6-7.2 3.6s-5.4-1-6.8-2.4c-2.8-3-4.7-5.4-4.7-5.4v18.5H40.9v-11.8l.2-10.4-8.7 2.2-2 .2c-4.3 0-8.8-3.5-10-8.6-2-8.5-3-18.3-3-18.3v-1.2l.2-.7c.4-.6 1-.5 1.6-.7l4.9-1.2 1.4-.3q.6-.1 1.3 1l.3.7v.1l.3.7 4 12.3 6.2-5.5c2.2-1.6 4.3-3.8 8.3-5.5l.3-.1 1.2-.5.6-.2 3.8-1q2.8-.5 6.4-.7h.9q2.1-.2 4.5-.2h.2a86 86 0 0 1 11.6 1h.1l1.1.3 1.2.3 3.4 1.3h.2a22 22 0 0 1 10.1 9.9c3.2 5.5 5 9 5 9l5.8-8.6.3-.6.2-.1.7-.3a14 14 0 0 1 4-.4l5.4 1.5q.8.2 1.2.9.3.3.3.7z" style="fill:url(#g)"/><path d="M58.4 69.9V76a5 5 0 0 0 .8 2.5 5 5 0 0 0 2 1.7l1.3.4h1.7a5 5 0 0 0 2.1-.4l.8-.5a5 5 0 0 0 2-3.7v-6.2z" style="fill:#c48e6a"/><path d="m65 77.8 3.5-2.2c1-.6 2.5-1.7 4-1.1 1.3.4.8 2.1.8 4.4 0 2.6.5 4.1-.5 4.5-1.4.6-3.1-.4-4.6-1a13 13 0 0 1-3.6-2.1c-.4-.6-.4-2.1.4-2.5" style="fill:#212121"/><ellipse cx="68.2" cy="78.2" rx="3.1" ry=".3" style="fill:#616161" transform="rotate(-11.7 68.2 78.15)"/><ellipse cx="68.2" cy="80.2" rx=".3" ry="3.1" style="fill:#616161" transform="rotate(-81.8 68.2 80.2)"/><path d="M62.1 77.8q-1.7-1.2-3.5-2.2c-1-.6-2.5-1.7-4-1.1-1.2.4-.8 2.1-.8 4.4 0 2.6-.4 4.1.6 4.5 1.3.6 3-.4 4.6-1 .8-.4 3.2-1.5 3.6-2.1s.4-2.1-.5-2.5" style="fill:#212121"/><ellipse cx="59" cy="78.2" rx=".3" ry="3.1" style="fill:#616161" transform="rotate(-78.3 58.96 78.16)"/><ellipse cx="59" cy="80.2" rx="3.1" ry=".3" style="fill:#616161" transform="rotate(-8.2 58.96 80.21)"/><path d="M66.2 79.3c0 1.6-1.2 2.4-2.6 2.4s-2.7-.8-2.7-2.4.7-2.7 2.7-2.7c1.9 0 2.6 1.2 2.6 2.7" style="fill:#212121"/><path d="M21.5 76.4c-3 0-6.1-1.3-8.3-3.6a12 12 0 0 1-3.1-7.6c0-1-.1-4.3 1.6-5.4a2 2 0 0 1 2.3 0c.5-1 1.3-1.9 2.6-1.9h.3l1.4.5q.5-.4 1.4-.4h.1q1.5.1 1.8.9.4.6.4 1.2l1-.3 1 .3c1.5.7 1.2 2.1 1 3v.7c-.2 1.7.5 3 .7 3.2l.5.5c1.4 1.4 2.6 2.6 1.8 5.4-.6 2-3.2 3.5-6.5 3.5" style="fill:#dbdbdb"/><path d="M21.8 60.4q-.1 2-.4 3.7a6 6 0 0 0 .8 3.3q.1.4-.2.6t-.6-.1q-1.1-1.8-1-3.8l.4-2q.3-1 1-1.7m-3.5-1.6-.6 2.4-.1 2.2q0 2.3 1 4.5.1.4-.2.6-.4 0-.6-.2-1.2-2.3-1.2-4.9 0-1.2.4-2.4a5 5 0 0 1 1.3-2.2m-3.7.7q-.4 2.3-.4 4.5t1.2 4.2q0 .4-.2.7-.4.1-.6-.1a8 8 0 0 1-1.4-4.7q0-1.3.3-2.5t1-2.1" style="fill:#999898"/><path d="M109.4 89.9c-3.3 0-6-1.5-6.5-3.6-.9-2.8.3-4 1.7-5.3l.6-.5c.1-.3.9-1.6.7-3.2v-.7c-.3-1-.5-2.3 1-3q.5-.3 1-.3t1 .3q0-.7.3-1.3.4-.6 1.8-.9h.2q.8 0 1.4.5l1.4-.5h.3c1.3 0 2 1 2.5 1.9q.6-.3 1.3-.4.6 0 1 .3c1.8 1.1 1.8 4.5 1.7 5.5q-.3 4.8-3 7.6a12 12 0 0 1-8.4 3.6" style="fill:#dbdbdb"/><path d="M109.1 73.9q.7.7 1 1.7t.3 2q.3 1.9-1 3.8-.2.3-.6 0l-.1-.6a6 6 0 0 0 .8-3.3zm3.5-1.6a5 5 0 0 1 1.3 2.1q.4 1.3.4 2.5 0 2.6-1.2 4.8-.2.4-.6.2l-.2-.5a12 12 0 0 0 .9-6.8zm3.7.7q.8.9 1.1 2.1l.3 2.4a8 8 0 0 1-1.4 4.7q-.2.3-.6.1l-.2-.6a9 9 0 0 0 1.2-4.2q0-2.2-.4-4.5" style="fill:#999898"/><path d="M47 57.6c-3.5 0-6.3-3-6.3-6.7s2.8-6.6 6.2-6.6h34.2c3.4 0 6.2 3 6.2 6.6s-2.8 6.6-6.2 6.6z" style="fill:#c48e6a"/><path d="M84.7 46.5V45q0-1.6-.4-3.1v-.2q0-1-.3-2v-.1A31 31 0 0 0 79.6 29c-4-6-9.6-9.5-15.6-9.5S52.3 23 48.4 29a27 27 0 0 0-3.7 8.2l-.6 2.4-.4 2.2v.1l-.4 3.2v2.4a32 32 0 0 0 1.2 9.4l.2.6a21 21 0 0 0 14 14l.3.1h.1a20 20 0 0 0 8.8.3l.5-.2h.5l.1-.1a20 20 0 0 0 14.3-14l.2-.7.2-.7q1-3.8 1-8.6z" style="fill:#e0bb95"/><path d="M57.9 44.4c-.6-.7-2-1.8-4.5-1.8s-3.8 1-4.4 1.8q-.3.6 0 1t1.2.2q.7-.5 3.2-.7 2.6.2 3.3.7c.7.5 1 0 1.2-.2q.2-.4 0-1m20.7 0c-.6-.7-2-1.8-4.5-1.8s-3.8 1-4.4 1.8q-.4.6 0 1 .3.4 1.1.2.8-.5 3.3-.7 2.5.2 3.3.7c.8.5 1 0 1.2-.2q.2-.4 0-1" style="fill:#ab872f"/><ellipse cx="53.8" cy="49" rx="3" ry="3.2" style="fill:#5d4037"/><ellipse cx="74.2" cy="49" rx="3" ry="3.2" style="fill:#5d4037"/><path d="M66.4 54.8h-4.8q-.6.2-.4 1c.2.8 1 1.7 2.8 1.7s2.6-1.3 2.8-1.7 0-.9-.4-1" style="fill:#c48e6a"/><path d="M69.2 59.8c-2 1.1-8.4 1.1-10.4 0-1.1-.7-2.3.3-1.8 1.4s4 3.3 7 3.3 6.5-2.3 7-3.3-.7-2.1-1.8-1.4" style="fill:#6d4c41"/><path d="M89.8 34.6c-2.2-4.8-51.3 2.5-51.4 3.2a7 7 0 0 0 .1 4.2l.1.3c.4 3.6 4 3.3 4 3.3-.3 6.5 1.8 9.7 1.8 9.7s2.5-11.3 2.3-13c0 0 2-.4 4.8-1.5a183 183 0 0 1 29-2.2q1 1.5 1.7 4.2c.7 3.3 1 8.8 1.4 12.2 0-.3 2.2-4.2 2.6-7.8 0-.7 2.3-.5 3.2-2.7l1.4-3.6c.7-2.8-1-6.3-1-6.3" style="fill:#ab872f"/><radialGradient id="h" cx="23.1" cy="41.4" r="8.1" gradientTransform="translate(0 2)" gradientUnits="userSpaceOnUse"><stop offset="0" style="stop-color:#ff3d00"/><stop offset="1" style="stop-color:#dd2c00"/></radialGradient><circle cx="24.6" cy="45.7" r="8.1" style="fill:url(#h)"/><circle cx="22.2" cy="43.2" r="2.4" style="fill:#fff"/><radialGradient id="i" cx="103.8" cy="51" r="8.1" gradientTransform="translate(0 2)" gradientUnits="userSpaceOnUse"><stop offset="0" style="stop-color:#00b0ff"/><stop offset="1" style="stop-color:#0091ea"/></radialGradient><circle cx="105.8" cy="55.6" r="8.1" style="fill:url(#i)"/><circle cx="103.3" cy="53" r="2.4" style="fill:#fff"/><path d="M36.2 33.3c0-3 12.5-3.8 27.8-3.8s27.9.7 27.9 3.8-12.5 6.3-27.9 6.3-27.8-3.2-27.8-6.3" style="fill:#212121"/><radialGradient id="j" cx="64" cy="114.1" r="32.6" gradientTransform="matrix(-1 0 0 .683 128.1 -64.04)" gradientUnits="userSpaceOnUse"><stop offset="0" style="stop-color:#787676"/><stop offset=".9" style="stop-color:#3f3f3f"/></radialGradient><path d="M84 28.5c-.4-7.4-3-12-11-15.4a24 24 0 0 0-9.2-1.9q-4.8 0-9.3 1.9c-8 3.4-10.6 8-11 15.4L42.8 40h42z" style="fill:url(#j)"/><path d="M90.8 31.2a21 21 0 0 0-6.8-1s6.2 1.6 6 2.7c-.5 1.6-6.4 4.1-26.2 4.2-19.9-.1-25.7-2.7-26.2-4.2-.3-1.1 6-2.6 6-2.6-1.4-.1-5.4.2-6.9 1-1.3.5-2.1.9-2.1 2.5 0 4.3 5.6 5.7 7.3 6.3 6 2 21.8 2.5 21.8 2.5S79.6 42 85.6 40c1.8-.6 7.4-2 7.4-6.3 0-1.6-.9-2-2.2-2.6" style="fill:#595858"/><path d="M86.6 111.7v11.8H40.8v-11.8h5V76.5l.3-.1 1.2-.5.6-.2 3.8-1v37h23.6V74.8h.1l1.1.3 1.2.3 3.4 1.3h.2v35z" style="fill:#7c7c7c"/><radialGradient id="k" cx="76.9" cy="7.4" r="8.1" gradientTransform="translate(0 2)" gradientUnits="userSpaceOnUse"><stop offset="0" style="stop-color:#00e676"/><stop offset="1" style="stop-color:#00c853"/></radialGradient><circle cx="78.7" cy="12.1" r="8.1" style="fill:url(#k)"/><circle cx="76.3" cy="9.6" r="2.4" style="fill:#fff"/></svg>