<svg xml:space="preserve" width="16" height="16" viewBox="0 0 128 128"><path d="M56.3 74.6q-1.4 0-2.3-1a3.3 3.3 0 0 1 0-4.6l64.5-64.6a3.3 3.3 0 1 1 4.7 4.7L58.7 73.7q-1 1-2.4 1M120.9 4q1 0 2 .8c1 1 1 2.9 0 4L58.2 73.2a3 3 0 0 1-4 0c-1-1-1-2.8 0-4L119 4.9q.9-.8 2-.8m0-1q-1.6 0-2.7 1L53.6 68.7q-1 1.1-1.1 2.7a4 4 0 0 0 3.8 3.9q1.6 0 2.7-1.2l64.6-64.5a3.8 3.8 0 0 0-2.7-6.6" style="fill:#a65f3e"/><path d="m5.6 91.5 31.1 31.1c7-7.7 13-16.4 16.2-26.5.2-.7.3-2 1-2.9 3.6-4.5 15-16 5.7-25.3-8.9-8.9-19.5 1.8-24 5.5q-2 1.6-4.8 2.2c-12 2.6-24.3 15-25.2 15.9M59 60.6a5 5 0 0 1 3.2-.7q1.4.4 3 2.3 2 1.8 2.6 3.2c.3.9 0 2 0 2-1 1.8-3 5.5-4.8 5-2-.6-3.9-2.5-5.3-3.9q-1.3-1.2-2.2-2.6c-.8-1.4 0-2.6 1-3.6.7-.6 1.9-1.3 2.6-1.7" style="fill:#ffe082"/><path d="M58.6 63.8q1.3 1.5 2.7 2.7c2 1.5 3.7.8 5-.4q.7-.8 1.3-.5.3.3.2.5.2 1-.3 2.1-1.2 2.6-3.5 4.3-.3.3-.9.2l-.4-.3c-1.7-2-3-4.3-5-5.8-.8-.6-3-1-2.4-2.5.8-2 2.5-1 3.3-.3M53 96.1c.1-.7.2-2 1-2.9 4-5.1 9.7-11 9-18.2 0-1-1.3-6-2.6-4-.4.3-.2 2.4-.3 3-.8 9.3-8.1 14.5-9.5 16.1s-1.3 3.2-2.5 5.6q-2 4-4.9 7.6-4.6 5.5-10.3 10.1-1 .7-1.6 1.8c-1 1.9 1.2 3.2 2.5 4.4l3 3a74 74 0 0 0 16.1-26.5" style="fill:#f9c248"/><path d="M62.7 73.4s-3.5-6.6-8.2-8.6q-.1-.1.2-.8.8-.6 1.2-.4c3.5 2.2 6.5 5 8.1 8.9.3.7-1 1.8-1.3.9" style="fill:#a65f3e"/><path d="M36.3 118.5c-.8-1.3-2-2.4-2.5-3.7q-.3-.4-.3-1c.1-.6 1-1.2 1.5-1.6l2-1.7q2.1-1.7 3.4-4.1.3-.5.1-.8c-.2-.5-1.9 1.2-2.2 1.5l-2.5 2.1c-1.2 1-3.4 2.5-5 1.7-.8-.3-1.5-1.3-2-2l-2-2.2L22 102q-.7-.3 0-1 2.3-2.2 4.3-4.6.4-.3.2-.7h-.6q-2.9 2-5.5 4.4c-.5.4-1.7-1-2-1.3q-1.4-.6-.4-1.6 5.7-6 12.4-10.6 1.4-.8 2.3-2-.2-.4-.7-.2a62 62 0 0 0-15.9 11c-1.3 1.3-3.6-1.6-7-3.8-1.2-.7 0-1.9.3-2.2 2-2.5 4.8-5.1 4.8-5.1-1 0-7.7 6-8.4 7q-1.2 1-1.4 2.5 0 1.4.8 2.6c6.2 8.4 20.7 22.3 25.9 26 3 2.2 4 1.8 5.2.6q1-1 .9-2.4-.2-1.2-.9-2.1" style="fill:#e2a610"/><path d="M53.1 95a88 88 0 0 0-19.7-20.2c-.5-.3 1.7-1.6 2.2-1.2 7 4.9 14 12.4 18.5 19.2.4.5-.7 2.6-1 2.2m4.4-6.4c-4-5.7-12.1-13.9-17.9-18.5-.5-.4 1.5-1.7 1.9-1.4 6 4.8 13.3 12 17.4 18 .3.5-1 2.3-1.4 2" style="fill:#f44336"/></svg>