<svg xml:space="preserve" width="16" height="16" viewBox="0 0 128 128"><linearGradient id="a" x1="64" x2="64" y1="31.6" y2="2.4" gradientTransform="matrix(1 0 0 -1 0 128)" gradientUnits="userSpaceOnUse"><stop offset="0" style="stop-color:#3b78e7"/><stop offset=".2" style="stop-color:#386eda"/><stop offset=".6" style="stop-color:#3052b8"/><stop offset="1" style="stop-color:#283593"/></linearGradient><path d="M64.2 96H64c-25.6 0-52 7-52 24.9v3h104v-3c0-16.9-26-25-51.8-25" style="fill:url(#a)"/><path d="M76.4 106.2s6.8.6 13.8 2.7c13 4 16.9-2.8 16.9-2.8s-14.2-9.4-32.2-9.5c0 0-1.2 8.9 1.4 9.6m-55.7-.2s4 7 17 3c7-2.2 13.8-2.8 13.8-2.8 2.7-.8 1.5-9.6 1.5-9.6-18 .1-32.3 9.3-32.3 9.3" style="fill:#283593"/><path d="M45.8 119.6h-11c-1.1 0-2.1-1-2.1-2.1s1-2.2 2.2-2.2h10.9q2 .2 2.2 2.2-.2 2-2.2 2.1" style="fill:#e0e0e0"/><linearGradient id="b" x1="116.4" x2="106.6" y1="9.5" y2="9.5" gradientTransform="matrix(1 0 0 -1 0 128)" gradientUnits="userSpaceOnUse"><stop offset="0" style="stop-color:#666"/><stop offset=".1" style="stop-color:#606060"/><stop offset=".7" style="stop-color:#3f3f3f"/><stop offset="1" style="stop-color:#333"/></linearGradient><path d="m113.9 113-5 .2-2.3 4.2 4.8 6.5h5c.3-7.4-2.5-10.8-2.5-10.8" style="fill:url(#b)"/><linearGradient id="c" x1="11.6" x2="21.4" y1="9.5" y2="9.5" gradientTransform="matrix(1 0 0 -1 0 128)" gradientUnits="userSpaceOnUse"><stop offset="0" style="stop-color:#666"/><stop offset=".1" style="stop-color:#606060"/><stop offset=".7" style="stop-color:#3f3f3f"/><stop offset="1" style="stop-color:#333"/></linearGradient><path d="m19.1 113.2-5-.1s-2.7 3.4-2.5 10.8h5l4.8-6.5z" style="fill:url(#c)"/><path d="M109.4 113.9h4.5q.7-.1.7-.8c0-.7-.3-.7-.7-.8l-5.5.1-3 5.6 4.3 6h1.8l-4.3-6.1zm2.5 2.7 3.3-.1q.5 0 .5-.6 0-.4-.5-.4l-3.9.1-1.5 2.3 4 6h1.1l-4-6zm-92.3-4.2H14q-.7 0-.7.7t.7.7l4.6.1 2.1 4-4.3 6h1.8l4.3-6zm-2.9 3.2-4-.1q-.3 0-.4.4 0 .5.5.6l3.3.1 1 1.3-4 6h1.2l4-6z" style="fill:#bdbdbd"/><path d="m64 121.9 9.3-17.1H53.4z" style="fill:#212121"/><path d="M55 86v14c0 4.6 3.6 8.2 8.2 8.2h1.6c4.6 0 8.3-3.6 8.3-8.1V86zm36.3-35.6H36.7c-6 0-10.7 5.2-10.7 11.4s4.8 11.5 10.7 11.5h54.6c6 0 10.7-5.2 10.7-11.5s-4.8-11.4-10.7-11.4" style="fill:#99674f"/><path d="M64 11c-17.4 0-33.5 18.7-33.5 45.5C30.5 83 47 96.3 64 96.3S97.5 83 97.5 56.5C97.5 29.7 81.4 11 64 11" style="fill:#ba8d68"/><path d="m47.1 97-8 16.3 10.9-3.2 14 11.8-9-25.7zm26-.8-9 25.7 14.7-11.7 10.1 3.1-8-16.2z" style="fill:#3674ce"/><path d="M72.4 76.1a26 26 0 0 1-16.8 0c-1.8-1-3.7.6-3 2.3s6.5 5.4 11.4 5.4 10.6-3.8 11.3-5.4-1-3.4-2.9-2.3" style="fill:#5d4037"/><path d="M67.9 68H60q-1 .5-.6 1.7c.3.7 1.7 2.7 4.5 2.7s4.3-2 4.6-2.7q.3-1.2-.7-1.6" style="fill:#99674f"/><ellipse cx="47.6" cy="58.8" rx="4.9" ry="5.1" style="fill:#49362e"/><ellipse cx="80.4" cy="58.8" rx="4.9" ry="5.1" style="fill:#49362e"/><path d="M40 50.7c3.2-4.5 10.7-4.6 14.4-.8.7.7 1.4 1.5.9 2.5q-1 1.4-2.6.5a13 13 0 0 0-7.5-.9L42 53.1c-1.4.5-3-1-2-2.4m46 2.4q-3.2-1.6-6.9-1.2a13 13 0 0 0-3.2.8c-.9.3-1.8.9-2.6.3-2.5-1.7 1.9-4.4 3.2-5 2.7-1.2 6-1 8.7.3 1 .6 2.2 1.4 2.8 2.4.8 1.3-.4 3-2 2.4" style="fill:#613e31"/><path d="M64 3.9C18.6 4 27.9 56 27.9 56l3 7.7c0 .3.6.3.6 0 1-4.4 4.5-19.8 6.3-24.4a6 6 0 0 1 6.7-3.9A111 111 0 0 0 64 37.2h.2c7.8 0 14.9-1 19.3-1.8a6 6 0 0 1 6.8 3.9c1.8 4.6 5.3 20 6.2 24.3.1.4.6.4.7 0l3-7.6s9.4-51.9-36-52.1" style="fill:#543930"/><radialGradient id="d" cx="64" cy="81.1" r="38.1" gradientTransform="matrix(1 0 0 -1.128 0 138.4)" gradientUnits="userSpaceOnUse"><stop offset=".8" style="stop-color:#6d4c41;stop-opacity:0"/><stop offset="1" style="stop-color:#6d4c41"/></radialGradient><path d="M100.2 56S109.5 4.1 64 3.9l-6 .3h-.3C19.4 9.2 27.9 56 27.9 56l3 7.7c0 .3.6.3.6 0 1-4.5 4.5-19.8 6.3-24.4a6 6 0 0 1 6.7-3.9A111 111 0 0 0 64 37.2h.2c7.8 0 14.9-1 19.3-1.8a6 6 0 0 1 6.8 3.9c1.8 4.6 5.3 20 6.2 24.4.1.3.6.4.7 0z" style="fill:url(#d)"/><linearGradient id="e" x1="64.3" x2="64.3" y1="103.8" y2="82.9" gradientTransform="matrix(1 0 0 -1 0 128)" gradientUnits="userSpaceOnUse"><stop offset="0" style="stop-color:#666"/><stop offset=".1" style="stop-color:#606060"/><stop offset=".7" style="stop-color:#3f3f3f"/><stop offset="1" style="stop-color:#333"/></linearGradient><path d="M64 24.1c-30.6 0-35.5 11.4-35.5 11.4s9.4 10 35.5 10.2c26.1-.2 36-10.8 36-10.8s-5.4-10.8-36-10.8" style="fill:url(#e)"/><linearGradient id="f" x1="64.2" x2="64.2" y1="123.8" y2="93.7" gradientTransform="matrix(1 0 0 -1 0 128)" gradientUnits="userSpaceOnUse"><stop offset="0" style="stop-color:#3b78e7"/><stop offset="0" style="stop-color:#3b77e6"/><stop offset=".3" style="stop-color:#335bc2"/><stop offset=".6" style="stop-color:#2d46a8"/><stop offset=".8" style="stop-color:#293998"/><stop offset="1" style="stop-color:#283593"/></linearGradient><path d="M24 34.4c1.6 6.2 3.1 8.9 3.1 8.9 1.6-2 11-11.4 37-11.4h.2c26 0 35 9.4 36.6 11.4 0 0 1.9-2.8 3.4-9C108 20 90 4 64.3 4 38.5 3.9 20.5 20 24 34.4" style="fill:url(#f)"/><path d="M97 35.6a5 5 0 0 0-1.5-2.9 48 48 0 0 0-31.2-10c-18 0-28 7.1-31.3 10q-1.2 1.1-1.5 2.8a5 5 0 0 0 .7 3.6 60 60 0 0 1 32-7.2c17.1 0 26.9 4 32 7.4q1.1-1.5.9-3.7" style="fill:#3b78e7"/><path d="m72.2 13.8-.3-.4-.6-.3q-.5 0-.6.4-.8 1.3-2.8 1.4c-1.4 0-2.4-1.3-3-2.1a1 1 0 0 0-.9-.4 1 1 0 0 0-.8.4c-.6.8-1.5 2-3 2q-2 0-2.7-1.3l-.7-.4-.6.3-.3.4q-.6.8-.1 1.7.6 1.2.6 2.5v3.5c0 2.6 4.1 7.7 7.7 7.7s7.6-5.1 7.6-7.7V18q0-1.3.6-2.5.5-1 0-1.7" style="fill:#fc0"/></svg>