<svg xml:space="preserve" width="16" height="16" viewBox="0 0 128 128"><path d="M116.6 13.9 85.3 37.6a7 7 0 0 0 .2 6.8c.5 1.1-.2 2.4-1.3 2.6-5 1.2-14.8 2.7-19 6.9l-56.7 53c-2.8 2.7-4.4 6.5-2.8 10.2.9 2.2 3 4.6 5.9 5.6 5.7 2 8.7.7 14.2-4.8 0 0 55.6-53.7 67.8-65.3q1.5-1.5 4-2.1a12 12 0 0 0 5.6-3.3l15.2-15.4c6.5-6.4 2-14.1-1.8-18" style="fill:#e65100"/><path d="M86.5 43.1c5 5 10.4 1.6 12.3-.3L116.5 25c2-1.9 4.4-6.8 0-11.1-2.7-2.8-7.6-2.7-10.7.4L88 32c-2 2-4.9 7.8-1.6 11.1" style="fill:#fb8c00"/><path d="m105.8 6.1-3.2 5.3 8.9 7.6q1.6 1.3 3 0c1.3-1.3.7-2.2 0-3z" style="fill:#69b6c9"/><path d="M90.1 8.9h15v32.6h-15z" style="fill:#69b6c9" transform="rotate(225 97.58 25.2)"/><path d="M84.2 29.8 78.9 33s8.4 7.5 10 8.6q1.5 1.3 2.8 0a2 2 0 0 0 0-2.9z" style="fill:#69b6c9"/><path d="m105.3 8.5-3.1 5.3 10 8.8q1.8 1.3 3 0a2 2 0 0 0 0-3zm-3.1 4.5L98 17.2l10.4 9.2q1.6 1.3 3 0c.7-.8.7-2.1 0-3zm-3.9 3.8L94.1 21l10.5 9.2q1.7 1.3 3 0a2 2 0 0 0 0-3c-.9-.7-9.3-10.4-9.3-10.4M94 20.2l-4.2 4.2s9.4 8.5 11 9.7q1.5 1.2 2.9 0c.8-.8.8-2.2 0-3zM90.2 24 86 28.2s9.4 8.5 11 9.7q1.5 1.3 2.9 0a2 2 0 0 0 0-3C99 34.2 90.2 24 90.2 24m-2.9 4.7-5.7 3 11.5 10q1.6 1.3 3 0a2 2 0 0 0 0-3c-.9-.7-8.8-10-8.8-10" style="fill:#a5ceda"/><linearGradient id="a" x1="28.9" x2="40.1" y1="26.3" y2="15.1" gradientTransform="matrix(-1 0 0 1 128 0)" gradientUnits="userSpaceOnUse"><stop offset="0" style="stop-color:#fafafa"/><stop offset=".7" style="stop-color:#eee"/></linearGradient><path d="M79.3 29.5c.2-1-.7-2.6.1-3.7.6-.8 1.1-.7 1.8-.7q1.6-.2 1.7-1.7 0-1 .5-1.6.7-.5 1.6-.5 1.6-.2 1.7-1.7 0-1 .5-1.6.7-.5 1.6-.5 1.6-.2 1.7-1.7 0-1 .5-1.6.7-.6 1.6-.5 1.7-.1 1.8-1.8-.1-1 .5-1.5t1.5-.5q1.7-.2 1.8-1.8-.1-1 .8-1.9c1.2-.7 2.4.2 3.3.2 1 0 2-1.5 3.3-.4 1.1 1 0 2.6 0 3.3.1.6 1 2 .3 3.1-.5 1-1.6 1.3-2.2 1.3q-1.5.2-1.7 1.7 0 1-.5 1.6-.7.6-1.6.5-1.6.2-1.7 1.7 0 1-.5 1.6-.7.5-1.6.5-1.6.2-1.7 1.7 0 1-.5 1.6-.7.5-1.6.5-1.6.2-1.8 1.8.1 1-.5 1.5-.8.6-1.5.5-1.6.1-1.8 1.8 0 1.1-.8 1.9c-1.8 1.2-3-.5-3.9-.2-.6.2-2.1 1.6-3.3.4-1.2-1.4.5-2.9.6-3.3" style="fill:url(#a)"/><path d="M7.1 116.7c4.1 4.1 9.9.8 12-1.3L72.8 62c5-5 6.9-6.5 5-9.1-1.9-2.7-9.4-2.3-13.6 1.8L9.5 106c-2.3 2.2-5.8 7.4-2.4 10.8" style="fill:#fb8c00"/></svg>