<svg xml:space="preserve" width="16" height="16" viewBox="0 0 128 128"><path d="M25.6 19.8s0-3.6.2-4.2 4.3-6.1 4.9-6.6c.5-.6 16.2-.7 32.6-.8 15.7-.1 33.2.4 33.9.6.6.3 4.9 5.9 5.2 6.2.2.4.3 5.5.3 5.5z" style="fill:#40727b"/><path d="M15.3 33.6s-3.3-1.2-6.4 1C5.5 37.1 6.1 41 6.1 41s-4-.5-4 3a68 68 0 0 0 0 10.1c0 2 2.4 3 5 3 3 0 4.2-1.4 4.3-3l.1-11c0-1.6-1-1.8-1-1.8s-.3-2.6 2-3.5c1.4-.6 3.4-.1 3.4-.1zm96.9 41.1s2.7.5 4.4-.5c2-1.2 1.7-3 1.7-3s-1.5-.3-1.4-1.5v-12c0-.7.7-1.8 2.1-2h6c1.4.2 1.8 2.6 1.8 4l-.3 9.6c-.1.7-.6 1.9-1.7 2l-2.3.2s.5 4-2.2 6.2c-2.6 2.1-8 1.3-8 1.3z" style="fill:#858585"/><path d="M90.6 115.6v5.7q.2 2.8 4 2.7l7.8-.2c2.4-.1 3.5-2 4.1-3.1s.6-5.8.6-5.8zm-69.8-.1s-.3 1 .4 3.5c.5 1.7 2.5 4.7 5.1 4.8l6.7.3c3.1 0 4.6-1.6 4.6-3l.2-6.2z" style="fill:#4d423d"/><path d="m19.4 92.7-5-12.2-.5-4.4s.3-42.6 1-52c.4-4 3-4.4 5.4-4.7a415 415 0 0 1 87.4-.4c4.9.8 4.4 4.5 4.9 7.6s1.2 20.3 1.2 29.4.3 19.8.3 19.8l-3 13.6-41.9 6.3z" style="fill:#6ba4ab"/><path d="m19.9 33.2 88-.8s-.2-9.3-7.8-10.5-64.8-1-73.6.9C19 24.4 20 33.2 20 33.2" style="fill:#2f2f2f"/><path d="m14 76.1-.2 26 1.7 10 95.8-.2 2.7-11.3V75.8s-3.2 5.8-8.7 7-22 3.1-39.4 2.8-37.4.2-45-3.1c-6.8-3-7-6.4-7-6.4" style="fill:#c9c8c6"/><path d="M16.8 92.4c-.5 3.6 1.5 6.6 10.4 7.2 9 .5 20.5.4 40.3.8 19.9.3 32-1 37.3-1.6 6-.5 8.4-3.4 8-6.8s-6-3.8-10.7-3.3c-5.3.5-22.2 1-35.2.8-12.9 0-34.2-.6-37.1-.7-3-.1-12.2-3-13 3.6" style="fill:#e3e4de"/><path d="M13.8 102.1s0 8.3.2 9.9c.2 2.8 1.7 4.8 7 5s30.7 0 45 .1 39.6-.3 42.9-.4 4.5-2.6 4.7-5l.4-11.1s-6.2 3.4-12 3.6-75.9.3-78.7.2c-6.1-.4-9.5-2.3-9.5-2.3" style="fill:#474c4f"/><path d="M19.6 106.4c-1.3-.2-2.6-1.4-3.6-.5-1.1 1-.5 3.4 2.4 3.7s10 .7 19.7.6 46.3-.3 54.4-.2q12.5 0 15.3-1c1.7-.7 4-3.3 3.6-4.3s-3 .7-4.6 1c-1.7.4-9 .8-16.5.7l-60.3.3c-5.3 0-8.5 0-10.4-.3" style="fill:#5e6367"/><path d="M40.6 88.7c-3.2-.2-6.3 2-6.3 6 .1 4.1 2.8 6.3 6.2 6.3s6.3-1.9 6.4-6.2-2.7-5.9-6.3-6.1" style="fill:#fff"/><path d="M26.7 88.1c-2.9-.1-6 .9-6.3 5.4s3.1 5.9 5.2 6 5.8-.8 6-5.2c.3-4.1-2.2-6-5-6.2" style="fill:#ff8c00"/><path d="M89 89c-4 .1-6.3 3.1-6 6.9s3 5.7 6.6 5.5c2.9-.2 6.3-2 6.2-6.5s-3.6-6.2-6.8-6" style="fill:#fff"/><path d="M104 87.8a6 6 0 0 0-5.9 6.7c.4 3.8 3.7 5.2 6.3 5a6 6 0 0 0 5.3-6.3c-.2-3.9-3-5.5-5.8-5.4" style="fill:#ff8c00"/><path d="M21 36.6c-1.7.2-2.8.5-3.3 2.9-.4 2.5-.7 12.7-1 18.6s-.3 12 0 14.3q.4 3.3 5.7 3.8a902 902 0 0 0 85.8-.5c2.5-.3 3-2.2 3.2-4a288 288 0 0 0-1.6-34.1c-.2-1.5-1.6-1.6-3-1.6-1.5 0-31.4 0-43.5.2s-40.4.2-42.3.4" style="fill:#464c52"/><path d="M20.8 44c-.3 1.6-.7 6.3-.8 11.4s-.4 13.4-.2 14.9c.2 1.4 1.7 2 3.6 2l37 .5c13.3.2 42.8-.5 45.2-.8 1.7-.2 2.3-1.5 2.3-3l-.4-14.6c0-4.4-.8-9.8-1-11.8-.3-2-1.8-2.2-3.3-2.3l-40.4.4c-12.6 0-32.6.4-38.3.7-3.2.1-3.4 1-3.7 2.5" style="fill:#96c8ed"/><path d="m24.8 66.6 23.4-.1.2-25.7s-5.2 0-12.9.3l-11 .3zm26.7-25.8v25.8h23.6l.1-26H63.5zm27.5-.3v21.2s1.2-.6 2.2-.8c1.7-.4 4-.4 4-.4v-6.3c0-1.4 1.2-2.4 2.3-2.5h6c1 .1 1.6 1.3 1.6 2.3l.4 6.5h5.6l-.1-20.2H89.8z" style="fill:#afe3fb"/></svg>