<svg xml:space="preserve" width="16" height="16" viewBox="0 0 128 128"><path d="M26.3 94.9C19 94.9 13 89.2 13 82s6-12.7 13.3-12.7h75.4C109 69.3 115 75 115 82s-6 13-13.3 13z" style="fill:#7a4c32"/><path d="M64 122.5c-21.4 0-44.5-16.3-44.5-52.1 0-16.7 5-32 13.8-43.2C41.5 16.7 52.7 10.7 64 10.7s22.5 6 30.8 16.5a70 70 0 0 1 13.7 43.2 55 55 0 0 1-13.9 39.2A42 42 0 0 1 64 122.5" style="fill:#a56c43"/><path d="M69 87.1H59q-1.3.7-.9 2.2c.4.9 2.3 3.5 6 3.5s5.6-2.6 6-3.5 0-1.8-1-2.2" style="fill:#875334"/><path d="M32.2 68.4c4-5.8 13.4-6 18.5-1.5 1 .9 2.2 2.2 1.6 3.6s-2 1.5-3.2 1a16 16 0 0 0-12.5-.7l-2 .8c-1.9.6-3.6-1.5-2.4-3.2m61.1 3.2a15 15 0 0 0-9-1.7 19 19 0 0 0-5 1.3c-1 .5-2.3.9-3.2-.1-2.4-2.7 3.3-5.8 5.2-6.5 3.6-1.4 7.7-1 11 .7 1.4.8 3 1.9 3.7 3.3.8 1.8-1 3.7-2.7 3" style="fill:#42312c"/><ellipse cx="42.1" cy="80.3" rx="6.5" ry="6.7" style="fill:#42312c"/><ellipse cx="85.9" cy="80.3" rx="6.5" ry="6.7" style="fill:#42312c"/><path d="M75 98a33 33 0 0 1-22 0c-2.4-1.5-4.9.7-3.9 3 1 2 8.5 7 15 7s13.8-5 14.8-7c1-2.3-1.4-4.5-3.8-3" style="fill:#473530"/><path d="M104 18.5c-6-6.2-11.6-8.9-12.2-9C84.8 6.5 76 4 64.4 4 13.5 4 10 45.6 12 63.9c1.3 11.1 5.7 16.4 8.3 18.7 0 0 .3-12.7 3-22.9 2-8 7.1-14 7.1-14s9.2 8 26.3 13.1c8.2 2.5 18.8 1.2 18.8 1.2l-6-10.5s9.7 7.2 15.8 8.5c7.7 1.8 13.4 1 13.4 1l-2.9-11s5 3.2 8.6 12c3.7 8.9 2.7 23.1 2.7 23.1 2.6-1.8 8-7 9-19.2 1.8-20.2-.6-32.3-12.1-45.4" style="fill:#3c2c23"/><radialGradient id="a" cx="64.1" cy="53.5" r="54.6" gradientTransform="matrix(1 .023 -.021 .932 1.15 2.16)" gradientUnits="userSpaceOnUse"><stop offset=".7" style="stop-color:#554138;stop-opacity:0"/><stop offset="1" style="stop-color:#554138"/></radialGradient><path d="M91.8 9.6C84.8 6.4 76 4 64.4 4 13.5 4 10 45.6 12 63.9c1.3 11.1 5.7 16.4 8.3 18.7 0 0 .3-12.7 3-22.9 2-8 7.1-14 7.1-14s9.2 8 26.3 13.1c8.2 2.5 18.8 1.2 18.8 1.2l-6-10.5s9.7 7.2 15.8 8.5c7.7 1.8 13.4 1 13.4 1l-2.9-11s5 3.2 8.6 12c3.7 8.9 2.7 23.1 2.7 23.1 2.6-1.8 8-7 9-19.2 1.8-20.2-.7-32.3-12.1-45.4-6-6.2-11.7-8.9-12.2-9" style="fill:url(#a)"/></svg>