<svg xml:space="preserve" width="16" height="16" viewBox="0 0 128 128"><linearGradient id="a" x1="55.3" x2="55.3" y1="34" y2="-7.8" gradientTransform="matrix(1 0 0 -1 0 130)" gradientUnits="userSpaceOnUse"><stop offset="0" style="stop-color:#384acc"/><stop offset=".2" style="stop-color:#3548bf"/><stop offset=".6" style="stop-color:#2f449d"/><stop offset="1" style="stop-color:#283f7a"/></linearGradient><path d="M104.6 124v-3c0-16.7-25-25-49.3-25S6 103.3 6 121v3z" style="fill:url(#a)"/><linearGradient id="b" x1="96.3" x2="120.7" y1="16.9" y2="16.9" gradientTransform="matrix(1 0 0 -1 0 130)" gradientUnits="userSpaceOnUse"><stop offset="0" style="stop-color:#384acc"/><stop offset=".2" style="stop-color:#3548bf"/><stop offset=".6" style="stop-color:#2f449d"/><stop offset="1" style="stop-color:#283f7a"/></linearGradient><path d="M112.3 102.3q-1-.3-1.6.5c-2 3.1-5.6 5.5-9.2 7.7l-4.8 3.2q-.7.7-.3 1.5l3.8 8.8h20.3c.5-5.2.7-17-8.2-21.7" style="fill:url(#b)"/><path d="m36.7 102.2 2 2.3 3.1-.3-1.6 2.6 1.3 2.8-3-.6-2.2 2-.3-3-2.7-1.5 2.8-1.2zm-3.3 12.3.5 2.7 2.5 1.1-2.4 1.3-.3 2.7-2-1.9-2.6.6 1.2-2.5-1.4-2.3 2.7.4zm23.8 9.5H64l-.2-1 3-3.5-4.6-.3-2.3-4-1.7 4.3-4.5 1 3.5 3zm-40.1-14.4 2.2 2.2 3-.5-1.4 2.7 1.4 2.7-3-.5-2.2 2.2-.4-3-2.8-1.4 2.8-1.4zm62.2-2.4v3.3l3 1.8-3.2 1.2-.8 3.2-2.1-2.6-3.3.2 1.8-2.8-1.2-3 3.2.8z" style="fill:#f9f722"/><linearGradient id="c" x1="55.5" x2="55.5" y1="89.8" y2="55.1" gradientTransform="matrix(1 0 0 -1 0 130)" gradientUnits="userSpaceOnUse"><stop offset="0" style="stop-color:#05080f"/><stop offset=".1" style="stop-color:#070a15"/><stop offset=".3" style="stop-color:#0b1026"/><stop offset=".4" style="stop-color:#131a42"/><stop offset=".6" style="stop-color:#1d286a"/><stop offset=".8" style="stop-color:#2b399b"/><stop offset="1" style="stop-color:#384acc"/></linearGradient><ellipse cx="55.5" cy="57.8" rx="49.9" ry="18.3" style="fill:url(#c)"/><path d="M91 79c-1-2-.2-4 3-7.3A24 24 0 0 0 99 48c-1.4-3.8-3-6.2-3-6.2L92.4 43l.8.8L74 44H38c-3.7 0-15.6-3.9-18.7-4.5l-1.3-1c0 .1-3 1.4-5.2 9a26 26 0 0 0 5.3 24.2c2.7 2.8 4.2 5.1 3.1 7.4a4 4 0 0 1-2.8 2.1l-2 .4 1 1.9a5 5 0 0 0 1.7 1.6 12 12 0 0 0 5.7 1.5q.3 0 .9.6c5 5.6 9 7.4 21.4 7.9l.4-1.5a243 243 0 0 0 16.9 0l.5 1.5c12.5-.5 16.5-2.2 21.6-7.9q.6-.6.8-.6A12 12 0 0 0 93 85q1-.7 1.7-1.6l1.1-1.8-2.1-.5Q92 80.7 91 79" style="fill:#e7e7e7"/><radialGradient id="d" cx="111.8" cy="43.5" r="23.1" gradientTransform="matrix(1 0 0 .491 -45.4 62.13)" gradientUnits="userSpaceOnUse"><stop offset=".7" style="stop-color:#fff;stop-opacity:0"/><stop offset="1" style="stop-color:#bdbdbd"/></radialGradient><path d="M56.1 95v-9.4l28.6-2.3 1.8 3.9s-5 8.4-21.4 7.8z" style="fill:url(#d)"/><radialGradient id="e" cx="87" cy="52.4" r="8.2" gradientTransform="rotate(155 85.45 59.27)scale(1 .742)" gradientUnits="userSpaceOnUse"><stop offset=".2" style="stop-color:#bdbdbd"/><stop offset=".8" style="stop-color:#bdbdbd;stop-opacity:0"/></radialGradient><path d="M87.2 82.4c-4.3-6.5 5.2-9 5.2-9-1.6 2.1-2.4 4-1.4 5.7 1.2 2.2 4.8 2.5 4.8 2.5s-4.9 4.4-8.6.8" style="fill:url(#e)"/><radialGradient id="f" cx="104.8" cy="67" r="30.4" gradientTransform="rotate(-94.3 92.5 71.92)scale(1 .833)" gradientUnits="userSpaceOnUse"><stop offset=".7" style="stop-color:#bdbdbd;stop-opacity:0"/><stop offset="1" style="stop-color:#bdbdbd"/></radialGradient><path d="M98.7 45.9c4.3 10.4-.2 21-4.4 25.5-.5.6-3 3-3.5 5 0 0-9.6-13.4-12.4-21.2q-1-2.4-1.2-4.9-.2-2 .9-3.8a111 111 0 0 1 20.1-1.7z" style="fill:url(#f)"/><radialGradient id="g" cx="37.7" cy="62.7" r="30.1" gradientTransform="rotate(94.3 -8.04 94.05)scale(-1 .833)" gradientUnits="userSpaceOnUse"><stop offset=".7" style="stop-color:#bdbdbd;stop-opacity:0"/><stop offset="1" style="stop-color:#bdbdbd"/></radialGradient><path d="M13.5 45.9a25 25 0 0 0 4.3 25.4c.5.7 2.6 2.7 3.4 4.7 0 0 9.8-13 12.7-20.8q1-2.4 1.2-4.9 0-2-.9-3.8c-.9-1.3-2-1-3.4-1-3 0-15.5-.7-16.5-.7z" style="fill:url(#g)"/><radialGradient id="h" cx="46.4" cy="44.3" r="23.4" gradientTransform="matrix(-1 0 0 .491 90.9 60.87)" gradientUnits="userSpaceOnUse"><stop offset=".7" style="stop-color:#fff;stop-opacity:0"/><stop offset="1" style="stop-color:#bdbdbd"/></radialGradient><path d="M56.2 95v-9.4l-28.6-2.3s-4.1.8-1.7 4.2c3.2 4.3 9.8 7.6 21 7.5z" style="fill:url(#h)"/><radialGradient id="i" cx="19.3" cy="51.1" r="7" gradientTransform="rotate(205 4.69 53.91)scale(-1 .742)" gradientUnits="userSpaceOnUse"><stop offset=".2" style="stop-color:#bdbdbd"/><stop offset="1" style="stop-color:#bdbdbd;stop-opacity:0"/></radialGradient><path d="M25 82.4c4.3-6.5-5.2-9-5.2-9 4.5 6.4-.9 8.1-3.5 8.2 0 0 5 4.4 8.8.8" style="fill:url(#i)"/><path d="M55.6 88.1h-9v10c0 4.5 3.6 8.2 8.2 8.2h1.6c4.6 0 8.3-3.7 8.3-8.2V88zm27.2-38.8H29.2c-5.8 0-10.5 5-10.5 11.2s4.7 11.2 10.5 11.2h53.6c5.8 0 10.5-5 10.5-11.2s-4.7-11.2-10.5-11.2" style="fill:#edc391"/><path d="M55.9 11.5c-17.1 0-33 18.2-33 44.5 0 26.1 16.4 39 33 39s32.9-12.9 32.9-39c0-26.3-15.8-44.5-33-44.5" style="fill:#f9ddbd"/><path d="M64.1 76.2a25 25 0 0 1-16.5 0c-1.8-1.1-3.6.5-2.8 2.2.7 1.6 6.3 5.3 11.1 5.3S66.3 80 67 78.3c.8-1.6-1-3.2-2.9-2.1" style="fill:#444"/><path d="m59.7 68.4-.4-.1h-7.2q-1 .5-.7 1.7c.3 1.2 1.7 2.6 4.5 2.6s4.1-2 4.4-2.6q.4-1.2-.6-1.6" style="fill:#dba689"/><path d="M47 21.3a48 48 0 0 0-21.3 12.5 23 23 0 0 0-4.3 5.8 16 16 0 0 0-1.1 10.2c.4 1.7 1 2.9 1 4.6 0 6.1 3.3 14 3.3 14s3.7-18.3 3.3-21.2c0 0 7.6-1.5 16.3-6.5 5.9-3.5 10-7.4 16.5-9 10-2.3 12.3 5.1 12.3 5.1s9.3-1.8 12.1 11.3c1.2 5.4 1.3 15 2 20.4C87 68 90.5 60 91 54c.4-3.2 3.2-4.2 3.8-7.3a12 12 0 0 0-2.7-8.9c-2.2-3-5.4-5-8.3-7.4q-2.7-2.2-5.5-4.2a57 57 0 0 0-15.2-6.6q-2.6-.4-5.2-.2-5.6.3-11 1.9" style="fill:#e7e7e7"/><ellipse cx="39.7" cy="59.3" rx="4.8" ry="5" style="fill:#312d2d"/><ellipse cx="72.3" cy="59.3" rx="4.8" ry="5" style="fill:#312d2d"/><path d="M46.4 51.1c-.9-1.1-2.8-2.8-6.7-2.8S33.8 50 33 51.1q-.5.8 0 1.5t1.7.3c1.2-.3 2.4-1 5-1s4.1.7 5 1q1.2.3 1.7-.3t0-1.5m32.6 0c-.8-1.1-2.8-2.8-6.7-2.8-3.8 0-5.8 1.7-6.7 2.8q-.5.8 0 1.5t1.7.3c.8-.3 2.4-1 5-1s4.2.7 5 1q1.3.3 1.8-.3t0-1.5" style="fill:#fff"/><linearGradient id="j" x1="58.1" x2="57.7" y1="126" y2="107.5" gradientTransform="matrix(1 0 0 -1 0 130)" gradientUnits="userSpaceOnUse"><stop offset=".4" style="stop-color:#3649bf"/><stop offset="1" style="stop-color:#2c4585"/></linearGradient><path d="M74.2 17.5c.5-1 11.2 1.3 12.3-.5S81.9 7.4 69.3 5c-4.2-1-10-2-17 .3a40 40 0 0 0-27 32.8l64.2.2C87 29.8 73.6 18.5 74.2 17.5" style="fill:url(#j)"/><linearGradient id="k" x1="55.9" x2="55.9" y1="108.1" y2="71.3" gradientTransform="matrix(1 0 0 -1 0 130)" gradientUnits="userSpaceOnUse"><stop offset=".2" style="stop-color:#384acc"/><stop offset="1" style="stop-color:#1d3678"/></linearGradient><path d="M105.8 55c-6.7-28.5-46.5-40.4-73.1-28.5A50 50 0 0 0 9.9 45c-1.8 2.6-8.8 17 1.6 13 57.5-33.5 94.7 13 94.3-3" style="fill:url(#k)"/><path d="m112.2 81.5-3 2.7 2.4 6h7.6l4.1-11.7-13.2-11.3-14.6 11.4 7.4 15.4-4.5 17.7c-.8 3-1.7 7.6-2.7 12.2h7.8l8.8-28.8-7.8-14.2 5.4-3.6 5.4 2.4-.1 2.4z" style="fill:#cf8900"/><linearGradient id="l" x1="89.2" x2="112.8" y1="27.9" y2="12.2" gradientTransform="matrix(1 0 0 -1 0 130)" gradientUnits="userSpaceOnUse"><stop offset=".5" style="stop-color:#f9ddbd"/><stop offset="1" style="stop-color:#ffd29c"/></linearGradient><path d="M115.6 111.1q-.4-2.1-1.1-3.9a19 19 0 0 0-7-9.1 15 15 0 0 0-10-3.1q-3.2.5-4 2.5-.6 1.5 0 2.8c-1.2.4-2.7 1.1-3.1 2.5-.6 1.5-.1 2.8.5 3.7-1 .6-2.1 1.5-2.4 2.7-.5 1.6 1 3.4 2 4.3q-.9 1.1-1.2 2.2c-.7 3.3 3.6 5.2 6.3 5.8a1 1 0 0 0 1-.5l1-1.6a53 53 0 0 0 11.2 2.4 10 10 0 0 0 4.3-3.6l.5-.7a9 9 0 0 0 2-6.4" style="fill:url(#l)"/></svg>