<svg xml:space="preserve" width="16" height="16" viewBox="0 0 128 128"><ellipse cx="40.5" cy="16.6" rx="5.4" ry="5.9" style="fill:#f19534" transform="rotate(-10.5 40.46 16.65)"/><ellipse cx="87.1" cy="16.7" rx="5.9" ry="5.8" style="fill:#f19534" transform="rotate(-79.5 87.13 16.72)"/><path d="M38.9 18.2c-.3-3 1.3-3.6 1.6-3.8q1.3-1 .5-1.8c-.5-.6-1.6-.3-2-.1-1.5.6-3 3-1.9 6 .1.3.5 1 1.3.8.6-.2.5-.9.5-1.2m45.7-.5c.7-2.7 2.4-2.7 3-2.8q1.7-.4 1.5-1.3c-.2-1.2-1.6-1.2-2.5-1A4.6 4.6 0 0 0 83 17c0 .3 0 1.4.8 1.5.8 0 .9-.8 1-1" style="fill:#ffca28"/><path d="m36.4 32.2 2.7 7.3H88l3.6-7c-4-4-3.6-11.8-3.6-11.8l-3.4-1.4S80 29.8 62.9 29.8 43.1 19.3 43.1 19.3l-3.9 1.4s1.6 7.2-2.8 11.5" style="fill:#f19534"/><path d="M104.7 103.2c-1.5-2.8.4-5.7 3.5-9.3 5-5.8 11.3-21.8-.6-34.8-6.2-6.8-73.4-15.5-87.3 0-11.6 13-5.7 29-.7 34.8 3.2 3.6 5 6.5 3.6 9.3s-5.6 3.2-5.6 3.2 1 2.9 3.3 4.4a13 13 0 0 0 6.7 1.8s7.1 9.7 25.9 9.7h20.9c18.7 0 26-9.7 26-9.7a13 13 0 0 0 6.6-1.8c2.3-1.5 3.3-4.4 3.3-4.4s-4.2-.4-5.6-3.2" style="fill:#3c2c23"/><radialGradient id="a" cx="45.7" cy="58.8" r="28.2" gradientTransform="matrix(.126 -1.07 -.77 -.125 74.88 136.1)" gradientUnits="userSpaceOnUse"><stop offset=".7" style="stop-color:#554138;stop-opacity:0"/><stop offset="1" style="stop-color:#554138"/></radialGradient><path d="M20.3 59c-11.5 12.8-5.8 28.9-1 34.5.7.8 3.6 3.8 4.2 6.2 0 0 22-40 21.1-41.3-1-1.6-3.5-7.1-5.2-7.1-2 0-8.4 1.5-13 3.7-3.7 1.6-6 4-6 4" style="fill:url(#a)"/><radialGradient id="b" cx="45.2" cy="-1.4" r="26" gradientTransform="matrix(-1 0 0 .53 92.11 107.02)" gradientUnits="userSpaceOnUse"><stop offset=".7" style="stop-color:#554138;stop-opacity:0"/><stop offset="1" style="stop-color:#554138"/></radialGradient><path d="M64 122.3v-10.9l-33.4-2.8-3 4s7.2 9.7 26 9.7z" style="fill:url(#b)"/><radialGradient id="c" cx="14.6" cy="44.7" r="8.1" gradientTransform="matrix(.906 .457 .314 -.725 -7.26 127.42)" gradientUnits="userSpaceOnUse"><stop offset=".7" style="stop-color:#554138"/><stop offset="1" style="stop-color:#554138;stop-opacity:0"/></radialGradient><path d="M27.7 107.4c5-8.2-6.1-11.2-6.1-11.2q3.2 3.7 1.7 7c-1.5 2.8-5.7 3.2-5.7 3.2s5.8 5.5 10 1" style="fill:url(#c)"/><radialGradient id="d" cx="42.1" cy="116.7" r="28.2" gradientTransform="matrix(-.126 -1.07 .77 -.125 8 139.48)" gradientUnits="userSpaceOnUse"><stop offset=".7" style="stop-color:#554138;stop-opacity:0"/><stop offset="1" style="stop-color:#554138"/></radialGradient><path d="M107.6 59a27 27 0 0 1 1 34.5c-.7.8-3.5 3.8-4.2 6.2 0 0-22-40-21-41.3 1-1.6 3.4-7.1 5.2-7.1 3.3 0 19 7.8 19 7.8" style="fill:url(#d)"/><radialGradient id="e" cx="93.6" cy="-1.4" r="26" gradientTransform="matrix(1 0 0 .53 -12.57 107.02)" gradientUnits="userSpaceOnUse"><stop offset=".7" style="stop-color:#554138;stop-opacity:0"/><stop offset="1" style="stop-color:#554138"/></radialGradient><path d="M64 122.3v-10.9l33.3-2.8 3 4s-7.1 9.7-25.9 9.7z" style="fill:url(#e)"/><radialGradient id="f" cx="-29.2" cy="17" r="8.1" gradientTransform="matrix(-.906 .457 -.314 -.725 86.8 127.42)" gradientUnits="userSpaceOnUse"><stop offset=".7" style="stop-color:#554138"/><stop offset="1" style="stop-color:#554138;stop-opacity:0"/></radialGradient><path d="M100.3 107.4c-5-8.2 6-11.2 6-11.2q-3 3.7-1.6 7c1.4 2.8 5.6 3.2 5.6 3.2s-5.7 5.5-10 1" style="fill:url(#f)"/><path d="M95.9 70.5H32c-6.9 0-12.5 6-12.5 13.3S25.1 97.2 32 97.2h64c6.9 0 12.5-6 12.5-13.4 0-7.3-5.6-13.3-12.5-13.3" style="fill:#7a4c32"/><path d="M64 24.6c-20.3 0-39.1 21.7-39.1 53 0 31 19.4 46.4 39.1 46.4s39.1-15.4 39.1-46.4c0-31.3-18.8-53-39.1-53" style="fill:#a56c43"/><path d="M68.9 91h-9q-1.3.7-.8 2c.3.8 2 3.1 5.3 3.1s5-2.3 5.3-3.1q.5-1.3-.8-2" style="fill:#875334"/><path d="M74.2 100.4a30 30 0 0 1-19.6 0c-2.1-1.3-4.3.7-3.4 2.6s7.5 6.4 13.2 6.4 12.4-4.5 13.2-6.4c1-2-1.2-3.8-3.4-2.6" style="fill:#473530"/><ellipse cx="45.1" cy="80.3" rx="5.7" ry="5.9" style="fill:#42312c"/><ellipse cx="82.9" cy="80.3" rx="5.7" ry="5.9" style="fill:#42312c"/><path d="M53.5 69.7c-1-1.4-3.6-3.5-8.4-3.5s-7.4 2-8.5 3.5q-.5 1 0 1.8t2.2.5c1-.4 3-1.4 6.3-1.4s5.2 1 6.2 1.4 2 0 2.2-.5q.7-.7 0-1.8m37.9 0c-1.1-1.4-3.6-3.5-8.5-3.5s-7.3 2-8.4 3.5q-.7 1 0 1.8t2.2.5c1-.4 3-1.4 6.2-1.4s5.2 1 6.2 1.4q1.7.4 2.3-.5.5-.7 0-1.8" style="fill:#42312c"/><path d="M83.7 18.5c-15.5-4.9-24.8.6-28.7 2.1-4.2 1.9-11.6 4-15.6 1.7-3.2-1.8-3.1-5.2-3.1-5.2s-10 3.8-6.6 14.3q.5 1.2.7 2.9c.4 3.3-11.2 6.5-8.5 23.3l5.5 1c-2.3 4.1-3.5 14.3-3.5 14.3a42 42 0 0 0 2 17.4q.6.6 1 0c1-4.7 5-20.8 4.6-23.6 0 0 13.3-2.6 25.9-12 16.5-14.2 25.6-1 25.6-1s13.7-.7 16.2 14c1.3 5.7 2.1 14.9 2.8 21.3 0 .4.7.5.9.1 1-2.5 3.3-7.6 3.8-12.7.1-.8-2-10-4.3-20l4.3 2c0-29.3-17.3-38.1-23-39.9" style="fill:#3c2c23"/><radialGradient id="g" cx="50.1" cy="117" r="10.9" gradientTransform="rotate(208.2 -17.93 65.73)scale(-1 1.186)" gradientUnits="userSpaceOnUse"><stop offset=".6" style="stop-color:#554138"/><stop offset="1" style="stop-color:#554138;stop-opacity:0"/></radialGradient><path d="M56.2 20.3c-1.3.6-11.8 4.9-16.8 2-3.1-1.8-3.1-5-3.1-5.2-1.5 1.8-5.8 15 6.9 15.8 5.5.4 8.8-4.4 10.8-8.4z" style="fill:url(#g)"/><radialGradient id="h" cx="158.3" cy="84.2" r="41.1" gradientTransform="matrix(-.938 -.394 -.218 .528 239.4 56.76)" gradientUnits="userSpaceOnUse"><stop offset=".7" style="stop-color:#554138;stop-opacity:0"/><stop offset="1" style="stop-color:#554138"/></radialGradient><path d="M82 18c8.6 2.3 17.5 8.6 22.2 22.9.4 1.7-7.1 7.2-37.5-10.9-11.3-6.7-8.2-11-6.8-11.4A36 36 0 0 1 82 18" style="fill:url(#h)"/><radialGradient id="i" cx="40.5" cy="104.7" r="10.9" gradientTransform="matrix(1 0 0 -1.223 0 155.4)" gradientUnits="userSpaceOnUse"><stop offset=".7" style="stop-color:#554138;stop-opacity:0"/><stop offset="1" style="stop-color:#554138"/></radialGradient><path d="M36.2 17.1c-1.2.5-9.7 4.4-6.5 14.3 0 0 .6 1.7.7 3l8.4-1.5c-8.2-6.4-2.6-15.8-2.6-15.8" style="fill:url(#i)"/><path d="M112.2 14.1c-2.7-.5-5.3 1.7-5.9 4.9q-.5 2.6.9 4.7c-2.9 2-12 7.8-23.8 4.8-11.6-3-15.1-8.9-16.3-14a5.9 5.9 0 1 0-6.2 0c-1.1 5-4.6 10.6-16.3 14a27 27 0 0 1-23.8-4.8q1.3-2 .9-4.7c-.6-3.2-3.2-5.4-5.9-4.9-2.6.5-4.3 3.5-3.7 6.7.5 2.5 2.1 4.4 4.1 4.8L21 54c-.4 0-1.6.6-1 3.2l.3 1.9c1.2-.1 21-1.8 43.7-1.8s42.5 1.7 43.7 1.8l.4-2c.5-2.5-.7-3-1-3.1l4.7-28.4c2-.4 3.6-2.3 4-4.8.7-3.2-1-6.2-3.6-6.7" style="fill:#ffca28"/><ellipse cx="64" cy="39.5" rx="6" ry="7.4" style="fill:#ff6f00"/><path d="M64 34c.2.2.4 1-.2 1.8-1 1.2-2.5 2.2-3 2.4q-.6.3-1 0c-.6-.6-.3-1.8 0-2.5 1-1.6 2.9-3.3 4.2-1.8" style="fill:#ffab00"/><path d="M63.6 42.3c-.7.3-3 1.1-2.2 2.6.5.7 2.3 1.5 4.5.4 3.5-1.8 3.5-6.8 2.9-7.2-.7-.3-1.3.5-1.7 1.4-.8 1.5-2 2-3.5 2.8" style="fill:#e65100"/><path d="M103.8 44c.5-3.1 2-5.6 4-5.3 2.6.5 3.5 3.4 3 6.6s-2.4 5.4-5 5c-1.6-.2-2.5-3-2-6.2" style="fill:#ff6f00"/><path d="M108.5 40.5q.4.2.4 1.3c-.2.8-1.7 2.3-2 2.6q-.4.4-.7.3c-.6-.3-.6-1.3-.5-2 .4-1.4 1.5-3 2.8-2.2" style="fill:#ffab00"/><path d="M24.2 43.5c-.5-3.3-2-5.7-4-5.4-2.6.5-3.5 3.4-3 6.6s2.4 5.4 5 5c1.6-.2 2.5-3 2-6.2" style="fill:#ff6f00"/><path d="M19.3 40c1-.4 1.7.3 1.3 1.2q-.8 2.1-.7 2.8 0 .8-.6.8-.8 0-1-1.2c-.2-1.4 0-3 1-3.5" style="fill:#ffab00"/><ellipse cx="40.5" cy="41.3" rx="3.9" ry="4.5" style="fill:#c62828" transform="rotate(-14.2 40.46 41.25)"/><path d="M39.9 38q.5 0 .6 1.2c.1.9-.9 2.7-1 3q-.5.6-.8.4c-.7-.1-1-1-1-1.7 0-1.5.7-3.4 2.2-2.9" style="fill:#f44336"/><ellipse cx="87.5" cy="41.3" rx="4.5" ry="3.9" style="fill:#c62828" transform="rotate(-75.8 87.53 41.25)"/><path d="M87.9 38.3q.4.1.3 1.3c-.2.9-1.7 2.3-2 2.6s-.6.3-.7.2c-.6-.3-.6-1.3-.5-2 .4-1.4 1.5-3 2.8-2.1" style="fill:#f44336"/><path d="M61.6 10.8c.4-3.3 2.7-3.5 3.1-3.5q1.5-.3 1-1.5c-.2-.9-1.4-.8-1.7-.8-1.8 0-4.6 1.8-4.1 5.7.1 1.2 1.6 1.2 1.7 0M23.1 54q5.4-.6 8.6-.6c1.7-.2 2.5.4 2.7.9q0 1.2-2 1.2l-8.7.5q-1.7.1-1.8-.8 0-.8 1.2-1.2M19 21c-.8-3-3-3.6-3.3-3.9q-.8-.5-.5-1.5.6-.7 1.4-.4c1.9.5 3.6 2.3 3.7 5.7 0 .7-1.1 1.1-1.4 0m2.7 8.5c-.8-.5-2.3-2-1.2-2.6 1.4-.8 2.2 1.1 7.3 3 2 .8 5.3 1.5 8.2 1.5 1.4 0 1.4 1-.2 1.3s-8.5.5-14-3.2M109 21c.8-3 3-3.6 3.3-3.9q.8-.5.5-1.5-.6-.7-1.4-.4c-1.9.5-3.6 2.3-3.7 5.7 0 .7 1.1 1.1 1.4 0m-2.7 8.5c.8-.5 2.3-2 1.1-2.6-1.3-.8-2.1 1.1-7.2 3-2 .8-5.3 1.5-8.2 1.5-1.4 0-1.4 1 .2 1.3s8.5.5 14-3.2" style="fill:#fff59d"/><path d="M64 55.3c-23.8 0-43.9 1.9-44 1.9l.3 1.9a540 540 0 0 1 87.4 0l.4-2c-.2 0-20.3-1.8-44.1-1.8" style="fill:#e2a610"/><path d="M64 50.3c-29.5 0-43.2 1.7-43.3 1.7l.3 2c.1 0 13.7-1.7 43-1.7s42.9 1.7 43 1.7l.4-2c-.2 0-14-1.7-43.4-1.7" style="fill:#f19534"/></svg>