<svg xml:space="preserve" width="16" height="16" viewBox="0 0 128 128"><path d="M65.8 80.6s-6.3 8.4-7.7 10c-1.4 1.8-5 5.7-6.6 6.7S49.3 100 32 100c-13.5 0-18.5-1.5-24.6-1.5-4.7 0-3.6 8.2-3 10.1s4.2 8.3 11 9.5c6.4 1.2 13.4.4 23.2-1.2a56 56 0 0 0 18.4-5.2c3-2 6.5-8.2 8.3-11l9-14.1v-2.3z" style="fill:#ffa828"/><path d="M68.7 80.8c-.1.4-12.2 16-13.3 17.2-1 1.2-2.8 2.9-2.5 5.3s2.5 3 4 2.4c2.9-1 3.7-3.3 5.2-5.2L74.2 83z" style="fill:#f08a34"/><path d="m65.5 81 10.2-14.4 8 5.7-9.8 15z" style="fill:#5d6365"/><path d="m72.1 71.7 8.1 6-3.5 5.5-8.4-6.2z" style="fill:#dfe0e0"/><path d="m75 67.7 7.9 6L115.3 25l-7-4.7z" style="fill:#fc2929"/><path d="M114.8 7.7c-1.9.1-4.3 4.8-4.4 5.4-.2 1 1.7 1.8 1.7 1.8l-4.6 6.7 6.8 4.7 4.7-6.6s1.4 1 2.1.5 3.8-4.9 3.7-6c-.2-1-8.5-6.6-10-6.5" style="fill:#5e6367"/><path d="m94 103.7-13 2.2q-.2 0-.2 5.8c0 3.9.6 5.2.6 5.2s2.8 6.1 16.4 6.3c14.8.3 17.9-6.1 17.9-6.1s.6-3.3.6-5.7c0-1.6 0-5.2-.4-5.7-1-1.2-21.8-2-21.8-2" style="fill:#9a9a9a"/><path d="M98 97.8c-12 0-17 5.1-17 8.1.1 2.3 4.7 8.4 17.8 8.6 14.1.2 17.1-7.6 17.2-8.7 0-1.4-3.3-7.8-18-8" style="fill:#5e6367"/></svg>