<svg xml:space="preserve" width="16" height="16" viewBox="0 0 128 128"><path d="M64 4A59.7 59.7 0 0 0 3.8 66.6C6 104.8 33.3 124.1 65.3 124a56.6 56.6 0 0 0 58.5-60.2A59 59 0 0 0 64 4.1" style="fill:#c8c8c8"/><path d="M35.9 15.2C11 29.5-4.8 69.8 21.7 100.4c3.2 3.7 8.4 6.4 12.3 8.1 26.7 12.1 59-6.5 71.5-20.6 10-11.2 13.6-18.7 12.4-34-1-12-6-23.4-16.6-32A57 57 0 0 0 36 15.2" style="fill:#fff"/><path d="M60.9 39.8s-9.3-5.4-16.5-8c-7.5-2.8-13-4.3-13-4.3l1-3.9c.2.1 5.7 1.6 13.4 4.4 7.5 2.8 16.7 8.1 17.1 8.3z" style="fill:#171717"/><path d="M71.7 18.2h20.2v4H71.7z" style="fill:#171717" transform="rotate(-74.3 81.82 20.18)"/><path d="M117.6 54.5a136 136 0 0 0-21.6-6l.8-4a181 181 0 0 1 22.2 6.3zM86.1 93.8A78 78 0 0 0 81 69.4l3.8-1.5A80 80 0 0 1 90 93.4zm19.9 5.5-2.6-3a68 68 0 0 0 15-21l3.7 1.4A71 71 0 0 1 106 99.4" style="fill:#171717"/><path d="M30.2 68h31v4h-31z" style="fill:#171717" transform="rotate(-41.8 45.75 70.04)"/><path d="M13 73.4c-.1-.4-1.5-9.7-1.5-18.2s1-16.2 1-16.5l4 .5s-1 7.9-1 16S17 72.8 17 72.9zm58.3 40.3a109 109 0 0 1-31.6-10.2l1.8-3.5c.1 0 7.7 4 14 6 10.2 3 16.2 3.7 16.3 3.7z" style="fill:#171717"/><path d="M53.4 32.7c-.3.8 0 28.6.7 29.5s28.6 10.3 29.9 10 16.2-23.8 16.2-24.8-18.4-23.6-19.4-23.8-27 8-27.4 9.1m64 3.4S113.2 50 113.2 51s2.5 6.8 3.7 13.9c1.1 7-.5 17.7.2 18.2s4.4.2 4.4.2 3.4-11 2-25c-1.5-14.2-6.1-22-6.1-22M87.6 90.7c-.8 0-22.8 19-22.7 19.5 0 .6 8.6 13.1 8.6 13.1s10.7-.8 20.5-6.1 13.6-10 13.6-10 1.3-12.7.8-12.8-19.7-3.8-20.8-3.7M14 67a51 51 0 0 0-6.2 19.8s2.5 7.3 6.3 12.7c4.7 6.6 10.7 11.3 10.7 11.3s19.8-6 19.9-6.8-2.3-8.2-4-14.2c-1.6-6.1-2-12.9-2.6-13.3s-7-2.4-12-4.4-11.4-5.5-12-5M7.9 41.9s5.5 4.7 6.3 4.7 6.1-7 11.5-11.3c7.2-5.7 10.7-7.6 10.9-8.3 0-.8 3.2-18.2 3.2-18.2s-11.6 4.4-20 14-12 19-12 19M67 4.1s6.7 3.5 9.1 5.2c2.5 1.6 6 5.2 7.1 5.3l15.6.1s-6.6-4.5-13.9-7C76.1 4.6 67 4 67 4" style="fill:#474c4f"/></svg>