<svg xml:space="preserve" width="16" height="16" viewBox="0 0 128 128"><path d="M55.8 36.5 37 39.3 16.6 28.5S15 39 27 43.1c10.8 3.7 24.4 3.4 38.4 3.6 14.4.2 23.3-.3 26.5 2.3 1.8 1.5.6 4.5.6 4.5s7-1 7-1.4 0-8.7-.7-9S75 36.6 75 36.6h-9zm-30.1-4.3-2.3-6.6 5-2.3 9.9 3.6 7.2.6s0 2.6-7.4 2.2c-8-.4-9-1.8-10-1s-.6 2.5.3 3.5c2 1.8 6.6 3 6.6 3zm2.1 29.7s-1.6 2.7-1.2 6.7c.5 3.9 3.4 8.2 10 10.2s19 3.8 28.8 4.7 18.4 2.2 20.3 3.2 1.4 3.1 1.7 3.4c.2.2 3.5 1.3 4.3.9s.7-8.4.7-8.4l-16.7-8.4-10.1-1c-5.7-.7-9.2-1.3-9.2-1.3s-14.8.6-15.5-.2c-.7-.7-13.1-9.9-13.1-9.9m27.8 44 19.2 2.6 4.9 4.4 8.4 4.9 3.3 4s-.3 2.2-2.4 1.3c-2-.8-2.2-3.6-8-6s-10.4-2.3-16-2.6-16.7-1.7-21.8-3.6c-4.2-1.5-7.7-4.5-7.9-9-.2-5.5 4.8-7.5 4.8-7.5l4 10.6z" style="fill:#5731a5"/><path d="M61.2 24.7V120c0 2.3.8 4.3 4.2 4.3 4 0 4.3-2.1 4.3-3.9l-.1-96zM34.9 34.9c-7.8-1.6-10.7-5.4-9.5-8.1.9-2.3 4-2 5.4-1.3 1 .4 4 2.5 8.1 2.8s6.6-.7 6.6-.7.3-.8-1-1c-2.1-.1-3.6 0-3.5-1.1 0-1 2-1.1 3.8-1.3q3.9-.4 4.2-1.4c.1-.4-3-8.3-14.2-8-11 .5-18.4 6.9-18.3 15.1.1 6.5 8.4 10 17 11.4s22.3 1.5 22.3 1.5v-6.4s-12.3.2-20.9-1.5m.2-13.5c0-1.2.6-2.5 2.2-2.5 1.5.1 2 1.6 2 2.7-.1 1.1-.9 2.3-2.2 2.2a2.2 2.2 0 0 1-2-2.4" style="fill:#7855bd"/><path d="M61.2 24.7v4s1.3 1.6 4.3 1.5 4.1-1.2 4.1-1.2v-4s4.3-.9 6.1-5.1c1.7-4 1-7.9 1-7.9H55s-1 4.4.8 8.1c1.9 4 5.4 4.7 5.4 4.7" style="fill:#5731a5"/><path d="M65.7 20.2c9.2.2 11.1-7.7 11.1-7.7s-.6-9-11-9.2c-9-.1-10.7 8-10.8 8.5s2 8.1 10.7 8.4" style="fill:#7855bc"/><path d="M105 47.4s.7 2.1-.3 7.2c-.3 1.6-2.6 7.2-12.8 8.8-9.7 1.5-22.3 1.6-22.3 1.6v4s-2.4.3-4.5.3-3.9-.5-3.9-.5V65l-16.5.2c-1.3 0-4.4.3-4.4 2.5 0 2.7 4.8 4.2 4.8 4.2s-9.5.8-9.6 0c-.1-.6 1-12 1-12l30.3-2.4s26-.3 27.3-.7c1.2-.5 10.8-9.4 10.8-9.4M47 103.2s-.8-2.6 2.8-2.7l11.4.2v5.3h8.4v-5.2s17.3.5 22.8-2.2c7.2-3.7 7.5-8 7.4-11.6 0-3.7-7.7 1.3-7.7 1.3l-8 6.2-27.8.5-13.6 2.7-.2 6.8z" style="fill:#5731a5"/><path d="M74.8 112.8v-4.4s6.4 1 10 3.8c6 4.5 6.5 8.4 6.6 9.5.2 1.1-3.5-3-5-4.2-5.8-4.5-11.7-4.7-11.7-4.7" style="fill:#7957bb"/><path d="m55.7 110.5-.1-4.8s-9.8-1.1-9.9-4.3c0-2.6 2-3.5 8.8-3.2 6.7.3 30.9 1.4 39.2-3.2q5.8-3 6.1-7.9c0-2.7-1.2-5.2-4.4-7.4-6.1-4.3-19.7-5.4-19.7-5.4l-.1 6.5s12.6 1.4 13 6.5C88.9 91.5 70.2 92 65 92c-8.5 0-28.4-1.9-28.3 7.4.1 7 8.2 9.4 13.7 10.2z" style="fill:#7855bc"/><path d="m55.6 79.2.8-7.3-6.3-.7c-5-.7-11.7-2.2-11.6-5 .2-5.6 10-4.8 20.3-4.6 17.6.2 32.3-1 37.5-2.1 7.8-2 9-6.7 8.8-10.9a10 10 0 0 0-4.4-7.8 22 22 0 0 0-9.4-3.2c-5.6-.8-16.2-1-16.2-1v6.6s13.1.3 16.1 1.4c5 1.9 3.7 8-1.6 9.1s-14.7 1.2-24.8 1.5c-6.3.1-26.6-2-34.3 3.7-1.8 1.4-3.3 3.2-3.4 5.5C26.7 73.7 40 76.2 48.5 78c4 .9 7 1.3 7 1.3" style="fill:#7855bd"/></svg>