<svg xml:space="preserve" width="16" height="16" viewBox="0 0 128 128"><path d="M6 71s-.2 4.8 1 6c1.3 1.2 3 1 5.4 1h107.3c2.1-.1 2.6-1.5 2.7-2.6l.2-3.9-25.3-8.7zm40.7-49.1s0 18.9 19.1 18.9C83.2 40.8 84 22.4 84 22.4L67.5 26zm-.9 79.7c-.1 2.1-1 7.1 2.2 13a17 17 0 0 0 15.7 9c9.3.1 14.5-5.1 16.3-9.6 2.2-5.4 2-11.7 2-11.7s-19.4 1-20 1.6-16.2-2.3-16.2-2.3" style="fill:#464c4f"/><path d="M65.3 3.3a18 18 0 0 0-18.6 18.6c.2 8.9 9 14.6 19.1 14.3S83.3 29 84 22.4A18 18 0 0 0 65.3 3.3m-1 83.2c-12.4 0-19.5 9-18.6 18.1.8 8.2 10.2 14 18.2 14.2 7.8.1 17.4-6 18-15 .5-8.6-6-17.2-17.6-17.3M5.7 51c0-2.3.7-3 4.3-3s105.9.1 108.5.3q4 0 4.1 5.5v17.4c0 1.3-.4 2.8-4 2.8H9.3c-2 0-3.3-.7-3.3-3.5z" style="fill:#606265"/><path d="M52.8 105c2.5.5 3-4 6.8-6.9s5.8-4 5.8-5.8c-.1-2.4-5.8-4.8-11.6 1-4 4.2-4 11-1 11.7M54 23c2.4.5 3.5-4.9 6.2-7.2 2.7-2.4 6-4 4.5-6.3-1.3-2-6.5-3.2-10.7 2.6s-2 10.6 0 11M23.9 51.4c.2 2.2-2.3 3.5-6.6 7-2.5 2.1-3.6 4.9-5.9 4.5-1.4-.3-1.4-3.2-1.5-6.1 0-2.5.2-4.7 1-5.6 1-1.2 3.3-1 5.9-1.2 3.3-.1 7 0 7 1.4" style="fill:#9a9a9a"/></svg>