<svg xml:space="preserve" width="16" height="16" viewBox="0 0 128 128"><path d="M76.4 91.2 37 51.6l6.6-6.5L83 84.6z"/><path d="M30.1 73.4c3.3 12.5-3 16.5-6.3 18.5s-5.5 2.5-9.6 4q-3 1.1-5.8 3.6c-5.7 5.8-5.9 15-.4 20.5a14.5 14.5 0 0 0 20.5-.5q2.5-2.5 3.6-5.8c1.4-4 2-6.2 4-9.5s6-9.6 18.5-6.3c11.8 3 17.7 1.5 22.8-3.6l3.7-3.7 42.3-44.2c.6-.6.9-1.8.2-2.5s-2-.2-2.5.3l-43 41q-1.2 1-2.4 0c-.7-.6-.7-1.7 0-2.4l41-43c.7-.6 1-1.8.3-2.5s-2-.2-2.5.3l-43 41q-1.2 1-2.4 0c-.7-.6-.7-1.7 0-2.4l41-43c.7-.6 1-1.7.3-2.4s-2-.4-2.5.2L65 72c-.6.7-1.7.6-2.4 0s-.6-1.8 0-2.4l41.1-43c.6-.6 1-1.8.2-2.5-.7-.7-1.9-.4-2.5.2l-43 41.1c-.6.7-1.7.7-2.4 0q-.9-1.2 0-2.4l41-43c.6-.6 1-1.8.2-2.5q-1.2-.9-2.5.2l-43 41.1c-.6.7-1.7.7-2.4 0q-.9-1.2 0-2.4l41.1-43c.5-.6 1-1.8.2-2.5-.6-.7-1.8-.4-2.4.2l-43 41.1c-.7.7-1.8.7-2.4 0-.7-.6-.7-1.7 0-2.4l41-43c.5-.5 1-1.8.3-2.5s-1.9-.4-2.5.2L37.4 47l-3.7 3.6c-5.2 5.2-6.7 11-3.6 22.9m-8.4 32.8a4.5 4.5 0 0 1-6.3 6.4 4.5 4.5 0 0 1 6.4-6.3" style="fill:#4c4c4c"/><path d="M38.3 54.3c1.5 1.5 0 3.4-1 5.4s-1.7 7.1-.7 13q1 6.5-1.6 10.5c-1.1 2-2.7 1.7-1.5-.9q1.8-3.8.6-9.2c-1-5.5-2.5-11-1-15.1.8-2.3 3.3-5.6 5.2-3.7" style="fill:#2f7889"/><path d="M13.3 114.7a5.8 5.8 0 0 0 9.8-5.2 4.5 4.5 0 1 1-4.6-4.6 5.8 5.8 0 0 0-5.2 9.8"/><path d="M13.5 117.4c-3.6-1.7-4.8-5.1-4.3-8.6s2-6.1 6.5-7q.9 0 1-1c0-.7-.8-1-1.3-1-5 0-8.2 4.2-9 9-.7 5 2 10 6 11.5 1 .4 2.5.5 2.9-.6.3-1.4-1.1-2-1.9-2.3" style="fill:#2f7889"/></svg>