<svg xml:space="preserve" width="16" height="16" viewBox="0 0 128 128"><path d="M8.5 12.6C7 15.1 7.1 24.6 8 28.1c.8 3.2 3.2 9 3.2 9s-1 11 1 20.4c2 10.3 9.4 17.8 9.4 17.8s4 27 20.7 36c15.6 8.2 33-2.7 40.5-1.6 10 1.3 13.7 8.6 21 8.6s8-5.7 7.8-8.8c-.2-3.8-1.4-7.7-2-10.4-1-5 14.8-41-.3-58.1-20-22.6-40.2-9.2-40.2-9.2s-2-8.4-9.5-11.7c-5.2-2.3-12.7-2.6-12.7-2.6s-3.8-3.9-10.2-4.9c-6.8-1-10.4.4-10.4.4s-3.5-1.4-9.1-2c-3.1-.3-7.5 0-8.6 1.6" style="fill:#e0e0e0"/><path d="M63.1 54.9c.7 3.1 1.4 13 6.8 17.9S87.4 86 94.7 90.6s6.2 2.4 6.2 2.4 4.3-25.4-8-38.3-29.8.2-29.8.2" style="fill:#ffcbac"/><path d="M63.5 47.1s7-4.3 14.9-3.5 15.9 5.6 20.8 13.9c5.5 9.4 7 23 3.1 36-.7 2.4-2.8 1-2.8 1s3.3-23.8-8-34.4-26.1-4.7-26.1-4.7z" style="fill:#eea25d"/><path d="M27.4 38.5A103 103 0 0 0 20 71.4c-.1 1.7.4 5 .9 6.7.3 1.4 4 12.4 4.8 11.7 1.2-1.2.5-16.7 3.4-31 3-14.6 7.3-24.8 11-31.5 2.4-4.7 7.3-9.8 7.3-9.8-.5-.8-2.1-2-3.2-2.2-1-.2-9 5.9-16.8 23.2M16.6 20.8a64 64 0 0 0-6.7 14c0 .6.4 2 .5 2.6 0 .5-.1 7 .4 6.8.6 0 5.8-14 8.8-19.6 5-9.2 8.3-11.2 8-12l-1.9-.4c-.4-.2-2-.5-2.6 0a61 61 0 0 0-6.5 8.6m40.2 35.4c1.1 15.5 14.8 25 21.6 29.3S99 98 100.8 99.2c1.6 1.1 4.5 4 5.6 2.3s-.6-5.2-4.1-8c-2.3-1.8-18.5-12.4-24.4-17.8A31 31 0 0 1 66.3 56c-1.9-9.5 1.5-18.2 1.8-20.2s1-4.1 1-4.1 0-2.7-1.6-5q-2.4-3.5-3.1-2.5c-.3.9-8.5 19-7.6 32" style="fill:#b0b0b0"/><path d="M72.4 38.8c1.9 3 6-.2 11-1 4.3-.8 10.1.4 10-2.4s-5.3-5.3-11.6-4.6c-4.4.5-12 4-9.4 8m-27.8-8.6c1.7 2.8 7.3 2 9.9-1 2-2.6 3.3-6.1.7-8s-6.3-1.1-9 1.4c-2.5 2.3-3 5.3-1.6 7.6M26 20.8c.7 2.1 3.9 2.7 8 0s3.8-5.6 1.7-6.5-5.6.3-7.2 1.5c-1.7 1.3-3.2 3-2.6 5M10 16.5c.7 2.2 2.6 2.1 5 1.5 2.5-.7 4.2-2.9 3.7-4.4s-3-2-4.8-1.3-4.4 2.1-3.8 4.2" style="fill:#fff"/></svg>