<svg xml:space="preserve" width="16" height="16" viewBox="0 0 128 128"><linearGradient id="a" x1="64" x2="64" y1="101.1" y2="24.5" gradientUnits="userSpaceOnUse"><stop offset=".5" style="stop-color:#504f4f"/><stop offset="1" style="stop-color:#757575"/></linearGradient><path d="M77.7 34.7q-.2 1.5-1.5 1.6-10.5 0-16.8 5.7a22 22 0 0 0-6.6 11.5c-.3 1.4 1.2 2.5 2.4 1.6q5-3.6 12.1-3.6 9.9 0 15.7 7c5.8 7 5.7 10.7 5.7 18Q88.7 88 82 95c-6.7 7-10.3 7-17.6 7q-11.2 0-18-8.2c-6.9-8.2-7-12.7-7-21.6V68q0-19.7 9.5-30.8c6-7 13.9-10.7 26.5-11.1a2 2 0 0 1 2 2zM60.5 62.1h-.3l-2.8 1.4a12 12 0 0 0-5.6 10.4q0 8.3 3.5 13.1 3.4 5 9 5c5.6 0 6.6-1.4 8.8-4.2q3.2-4.2 3.2-11c0-6.7-1-8.1-3.3-11q-4.3-5.6-12.5-3.7" style="fill:url(#a)"/></svg>