<svg xml:space="preserve" width="16" height="16" viewBox="0 0 128 128"><path d="M116 4H12a8 8 0 0 0-8 8v104a8 8 0 0 0 8 8h104a8 8 0 0 0 8-8V12a8 8 0 0 0-8-8" style="fill:#427687"/><path d="M109.7 4H11.5A7.6 7.6 0 0 0 4 11.5v97.9c0 4.1 3.3 7.5 7.5 7.5h98.1c4.1 0 7.5-3.3 7.5-7.5V11.5c0-4-3.1-7.4-7.2-7.5z" style="fill:#8cafbf"/><path d="m91 41.4-24-24a4 4 0 0 0-5.6-.3q-.3 0-.4.3l-24 24a4 4 0 0 0 3 6.6h14a2 2 0 0 1 2 2v22a4 4 0 0 0 4 4h8a4 4 0 0 0 4-4V50q.2-1.8 2-2h14a4 4 0 0 0 3-6.6" style="fill:#fafafa"/><path d="M39.7 12.9c0-2.3-1.6-3-10.8-2.7-7.7.3-11.5 1.2-13.8 4s-2.9 8.5-3 15.3c0 4.8 0 9.3 2.5 9.3 3.4 0 3.4-7.9 6.2-12.3 5.4-8.7 18.9-10.6 18.9-13.6" style="opacity:.5;fill:#b4e1ed"/><path d="M37.4 111.7h-6v-23H24v-4.9h21v5h-7.5zm38.6-14q.1 7-3.4 10.6c-3.5 3.6-5.5 3.7-9.8 3.7s-7.6-1.2-9.8-3.7-3.5-6-3.5-10.6S50.7 89.5 53 87q3.4-3.7 9.8-3.7c6.4 0 7.6 1.2 9.8 3.7q3.5 3.7 3.5 10.6m-20.3 0q0 4.7 1.8 7c1.8 2.3 3 2.4 5.3 2.4q7 0 7-9.4t-7-9.4q-3.4 0-5.3 2.4t-1.8 7m46.2-5.1q0 4.5-2.8 6.9a12 12 0 0 1-8 2.4h-2.5v9.9h-5.9V83.8h8.9q5.1 0 7.7 2.2t2.6 6.5M88.7 97h2q2.7 0 4-1 1.4-1.1 1.4-3.2t-1.2-3-3.5-1h-2.7z" style="fill:#fafafa"/></svg>