<svg xml:space="preserve" width="16" height="16" viewBox="0 0 128 128"><path d="M74 115.5a29.4 29.4 0 0 0 41.5 0 29.4 29.4 0 0 0 0-41.4L84.7 43.3 43.3 84.7z" style="fill:#f44336"/><path d="M84.7 43.3 53.9 12.5a29.4 29.4 0 0 0-41.4 0 29.4 29.4 0 0 0 0 41.4l30.8 30.8z" style="fill:#fdd835"/><path d="M35.8 63.6h58.5v3H35.8z" style="fill:#c62828" transform="rotate(135 65.06 65.06)"/><g style="opacity:.65"><path d="m69.4 36.3 34.3 38.2c2.8 2.6 6.7 9.3 4.2 11.7-2.8 2.4-9.1-2.8-12-5.4l-46.7-44c-2.8-2.5-12.4-11-10.5-17 3.5-11.1 17.2 1.7 30.7 16.5" style="fill:#fff"/></g></svg>