<svg xml:space="preserve" width="16" height="16" viewBox="0 0 128 128"><linearGradient id="a" x1="79.6" x2="51.1" y1="79" y2="40.8" gradientTransform="matrix(1 0 0 -1 0 128)" gradientUnits="userSpaceOnUse"><stop offset="0" style="stop-color:#a52714"/><stop offset=".5" style="stop-color:#d23f31"/><stop offset="1" style="stop-color:#ed4132"/></linearGradient><path d="M88 32q1-.5 1.8.4c2.1 3 7.7 13.2 5.6 32.5a165 165 0 0 1-11 36.5c-.3.8-1.4 1-2 .4-2.5-2.2-8.4-5.9-19.1-3.4-3.4.8-14 11.5-22.6 1.9-5.3-6-1.5-9.5-1.4-18 0-11-11-14.3-14.6-16.1-1-.5-1-1.8-.2-2.3 4.2-2.8 10.1-4 17.5-10 9.4-7.4 9.5-14.3 11.4-16.8 1-1.2 8.6-4.6 8.6-4.6l5.6 1.5 9.5 4.2q.6.3 1.2-.1z" style="fill:url(#a)"/><radialGradient id="b" cx="74.9" cy="64.6" r="18.6" gradientTransform="rotate(200.6 -5.62 80.71)scale(-1 1.938)" gradientUnits="userSpaceOnUse"><stop offset="0" style="stop-color:#212121"/><stop offset="1" style="stop-color:#212121;stop-opacity:0"/></radialGradient><path d="M90.4 73.7C95.8 56.9 92 43.2 92 43.2s-16 5.6-16 6.2-10.3 25.1-10.3 25.1-7.5 20.3-17 29.7c6.8-.7 12.3-5.3 14.6-5.8 7-1.6 12-.6 15.3 1 1.8-2.9 8-14 11.8-25.7" style="fill:url(#b)"/><linearGradient id="c" x1="44.4" x2="59.1" y1="72.9" y2="47.5" gradientTransform="matrix(1 0 0 -1 0 128)" gradientUnits="userSpaceOnUse"><stop offset="0" style="stop-color:#212121"/><stop offset="1" style="stop-color:#212121;stop-opacity:0"/></linearGradient><path d="m68 43.6-5.1-2.3s-8 18.4-12.1 24.7-11.5 16.3-11.5 16.3c0 8.5-4 12 1.4 18l1 1c3.4-4 9-12 13.2-18 11.4-16 13-39.7 13-39.7" style="fill:url(#c)"/><linearGradient id="d" x1="76" x2="75.8" y1="86.6" y2="66.9" gradientTransform="matrix(1 0 0 -1 0 128)" gradientUnits="userSpaceOnUse"><stop offset="0" style="stop-color:#42a5f5"/><stop offset="1" style="stop-color:#1e88e5"/></linearGradient><path d="M103.5 24.4c-1-2.8-6-10.7-6-10.7L92 16.5l2.2 9.8L84 35q-7.4-1.5-13-.5c-3-.3-11.3-.2-14.4 7.5L52 53l-3.7 1.2c-1 2.2 2.3 4.1 4.5 5.1s4 .3 5.7-2l5.3-8q.7 4.5.7 11.2l8.3 4L83 65a96 96 0 0 0 6.5-19.3l13.2-15.1c1.4-2 2-3.4 1-6.1" style="fill:url(#d)"/><g style="opacity:.29"><path d="M103.5 24.4c-1-2.8-6-10.7-6-10.7L92 16.5l2.2 9.8L84 35q-7.4-1.5-13-.5c-3-.3-11.3-.2-14.4 7.5L52 53l-3.7 1.2c-1 2.2 2.3 4.1 4.5 5.1s4 .3 5.7-2l5.3-8q.7 4.5.7 11.2l8.3 4L83 65a96 96 0 0 0 6.5-19.3l13.2-15.1c1.4-2 2-3.4 1-6.1" style="fill:none"/></g><linearGradient id="e" x1="50.4" x2="43.8" y1="75.4" y2="89.6" gradientTransform="matrix(1 0 0 -1 0 128)" gradientUnits="userSpaceOnUse"><stop offset="0" style="stop-color:#a52714"/><stop offset=".5" style="stop-color:#d23f31"/><stop offset="1" style="stop-color:#db4437"/></linearGradient><path d="M41.6 38.6c.6-1 2.4-1.8 3.8-2.2q1.4-.3 2 1l2 4.6q.2 1-.3 1.8l-1.9 2q1 1.5 2.5 2.3c1.7 1 3.3 1 3.5 1.1 2.1 1.7 3.7 3.7 2.5 7s-5.5 2.3-5.5 2.3-4.3-3-7.1-9.7c-1-2.2-2.7-8-1.5-10.2" style="fill:url(#e)"/><g style="opacity:.29"><path d="M41.6 38.6c.6-1 2.4-1.8 3.8-2.2q1.4-.3 2 1l2 4.6q.2 1-.3 1.8l-1.9 2q1 1.5 2.5 2.3c1.7 1 3.3 1 3.5 1.1 2.1 1.7 3.7 3.7 2.5 7s-5.5 2.3-5.5 2.3-4.3-3-7.1-9.7c-1-2.2-2.7-8-1.5-10.2" style="fill:none"/></g><linearGradient id="f" x1="55.1" x2="50.1" y1="44" y2="36.2" gradientTransform="matrix(1 0 0 -1 0 128)" gradientUnits="userSpaceOnUse"><stop offset="0" style="stop-color:#851f10"/><stop offset=".8" style="stop-color:#a52714"/></linearGradient><path d="M52.7 82.9s-5.6 5.1-6 7.4c-.7 3.8 2.6 7.4 4.3 6 3.6-3 4.6-6.6 6.4-9.3 1.8-2.6-2.3-6.6-4.7-4.2" style="fill:url(#f)"/><linearGradient id="g" x1="69.8" x2="60.6" y1="55.9" y2="35.4" gradientTransform="matrix(1 0 0 -1 0 128)" gradientUnits="userSpaceOnUse"><stop offset="0" style="stop-color:#42a5f5"/><stop offset="1" style="stop-color:#1e88e5"/></linearGradient><path d="m71.4 66.8-.2.6a6 6 0 0 0-3-3.9s-5.8-2-7.2.8c0 0-7 10.9-8 14-1.2 3-1.1 5.5 1.5 7 2 1.4 4.9.7 7.5-2.2 1.1-1.3 3.8-5.3 5.8-8.5.4-.5 1.1 0 1 .5L56.5 107l5.4 3.4S78 84.7 80.4 79.8s3.2-12.2 3.2-12.2z" style="fill:url(#g)"/><g style="opacity:.4"><path d="m61.2 63.9 2-3.3q.6-1 1.6-.5a26 26 0 0 0 17.7 4.3q1.2.1 1.2 1.3l-.3 3.5s-2.7 1.6-11.2-.2c-6-1.2-11-5.1-11-5.1" style="fill:#212121"/></g><linearGradient id="h" x1="62.7" x2="84.3" y1="65.6" y2="60.8" gradientTransform="matrix(1 0 0 -1 0 128)" gradientUnits="userSpaceOnUse"><stop offset="0" style="stop-color:#d32f2f"/><stop offset=".2" style="stop-color:#f44336"/><stop offset=".7" style="stop-color:#f44336"/><stop offset="1" style="stop-color:#d32f2f"/></linearGradient><path d="M83 69c-8.4.4-13.7-1.1-21.1-5q-1-.6-.5-1.7l1.2-2.5q.5-1 1.6-.6a30 30 0 0 0 19 4.4q1.2.1 1.3 1.3l-.3 2.9q-.1 1-1.1 1.1" style="fill:url(#h)"/><path d="m75.6 67-2.3 1.5a1 1 0 0 1-1.4-.3L70.4 66a1 1 0 0 1 .2-1.3L73 63a1 1 0 0 1 1.4.3l1.5 2.3q.5.8-.2 1.4" style="fill:#fdd835"/><path d="M70.5 45c1.3-.5 3.6-1.3 7-1.4h.7c3 0 5 .8 6 1.4l-7 7.4z" style="fill:#e53935"/><path d="M78.2 44.6q2.8 0 4.3.7l-5.3 5.6-5-5.4q2-.6 5.4-1zm0-2h-.7c-5.7.2-8.7 2.2-8.7 2.2l8.4 9.3 8.5-9.1s-2.2-2.4-7.5-2.4" style="fill:#fdd835"/><linearGradient id="i" x1="77.2" x2="77.2" y1="83.3" y2="73.4" gradientTransform="matrix(1 0 0 -1 0 128)" gradientUnits="userSpaceOnUse"><stop offset="0" style="stop-color:#0d47a1;stop-opacity:0"/><stop offset="1" style="stop-color:#0d47a1"/></linearGradient><path d="M68.8 44.7s3-2 8.7-2.2c5.8-.2 8.2 2.3 8.2 2.3L77.2 54z" style="opacity:.42;fill:url(#i)"/><linearGradient id="j" x1="66.1" x2="43.8" y1="27.6" y2="5.3" gradientTransform="matrix(1 0 0 -1 0 128)" gradientUnits="userSpaceOnUse"><stop offset="0" style="stop-color:#a52714"/><stop offset=".5" style="stop-color:#d23f31"/><stop offset="1" style="stop-color:#ed4132"/></linearGradient><path d="M57.9 97.6s-1.6 9.7-5.6 16c-2 2.6-5.1 4.7-6.8 9-.7 2.1 3.7 4 7 2.2 2.1-1.2 5.2-8 5.2-8 2.8-5 11-13 11-13-1.6-7.3-10.8-6.2-10.8-6.2" style="fill:url(#j)"/><path d="M53.4 37.1S59.1 30 69.3 32c7.5 1.5 6 6.4 6 6.4s-3.9 0-7.3-.8c-3.5-.8-6.6-2.4-8.4-2.2zm21.8 1.3s.5-5 3.8-6.1S89.8 30 89.8 30s-2.4 4.5-4.2 6c-3.8 3-10.4 2.4-10.4 2.4" style="fill:#ed4132"/><path d="M57.1 40.5s3.3-3 8.3-1.7c7 1.7 9.8-.4 9.8-.4s5.3 1.9 10.2-.5c3.4-1.7 4.4-8 4.4-8l-1.2 1.4s-4.4 4.8-8.7 6c-3.2 1-4.7 1-4.7 1s-11.7-4-14.4-2.8-3.7 5-3.7 5" style="opacity:.4;fill:#212121"/><linearGradient id="k" x1="98.4" x2="84.6" y1="104.1" y2="125" gradientTransform="matrix(1 0 0 -1 0 128)" gradientUnits="userSpaceOnUse"><stop offset="0" style="stop-color:#a52714"/><stop offset=".5" style="stop-color:#d23f31"/><stop offset="1" style="stop-color:#db4437"/></linearGradient><path d="M92.7 25c-.2-1-2-15.2-5.2-16l-3.6.2q-2.2 0-2.6-1.2t.5-3.9c.6-1.7 1.6-2 2.4-2q2.4 0 8 4.8a49 49 0 0 1 11 15.3c-.2 0-4.8 6.3-10.5 2.7" style="fill:url(#k)"/><g style="opacity:.29"><path d="M92.7 25c-.2-1-2-15.2-5.2-16l-3.6.2q-2.2 0-2.6-1.2t.5-3.9c.6-1.7 1.6-2 2.4-2q2.4 0 8 4.8a49 49 0 0 1 11 15.3c-.2 0-4.8 6.3-10.5 2.7" style="fill:none"/></g><path d="M75 31.3h-3.3l.1 2.6c0 3.1 3.4 4.5 3.4 4.5s3-1.7 3-4.6v-2.6zm7.5-9.8h-2.1l-11.2.3h-2c-1.7 0-3 1.5-3 3.3s1.4 3.2 3 3.1h2.1l11.2-.2h2.1c1.7 0 3-1.6 3-3.3 0-1.8-1.5-3.2-3.1-3.2" style="fill:#7a4c32"/><path d="M74.5 10.4c-4.9 0-9.3 5.4-9.1 12.9.1 7.5 4.9 11 9.6 11 4.8-.1 9.4-4 9.2-11.4-.1-7.5-4.8-12.6-9.7-12.5" style="fill:#a56c43"/><circle cx="70.4" cy="24.4" r="1.4" style="fill:#42312c" transform="rotate(-1.2 70.38 24.41)"/><circle cx="79.6" cy="24.2" r="1.4" style="fill:#42312c" transform="rotate(-1.2 79.62 24.22)"/><path d="M76 26.8h-2q-.5.3-.3.5c.1.2.5.8 1.3.8s1.2-.6 1.3-.8q0-.3-.2-.5" style="fill:#875334"/><path d="M77.4 29.4c-.9.6-3.9.7-4.8.2q-1-.3-.8.6c.3.5 1.9 1.5 3.3 1.4 1.4 0 3-1.1 3.1-1.6s-.3-.9-.8-.6" style="fill:#473530"/><path d="M72.4 21.9c-.3-.4-1-1-2.2-1s-1.9.7-2.2 1.1v.6q.2.2.6.1l1.6-.5q1.3.1 1.6.4.5.3.6-.1zm9.3-.3q-.4-.8-2.2-1c-1.8-.2-1.9.7-2.2 1.2v.5q.2.2.6.1l1.6-.4q1.3 0 1.6.3.5.3.6-.1z" style="fill:#42312c"/><path d="M74.5 8.8c-12.8.4-9.8 15-9.8 15l1 2 1.7-6.8q.4-1.3 1.8-1.2 2 .4 5.5.4 3.4-.1 5.5-.6 1.3-.2 2 1l2 6.8.8-2.2S87.3 8.6 74.5 8.8" style="fill:#3c2c23"/><radialGradient id="l" cx="74.9" cy="106.8" r="10.7" gradientTransform="rotate(178.5 .58 71.7)scale(-1 1.128)" gradientUnits="userSpaceOnUse"><stop offset=".8" style="stop-color:#554138;stop-opacity:0"/><stop offset="1" style="stop-color:#554138"/></radialGradient><path d="M85 23.2S87.3 8.5 74.5 8.8h-.6l-1.1.2c-10.8 1.6-8 14.7-8 14.7l.8 2.2h.2c.2-1.3 1.1-5.6 1.6-7q.5-1.2 1.8-1 2 .3 5.5.3 3.4-.1 5.5-.6 1.3-.2 2 1c.5 1.3 1.5 5.6 1.9 6.8q0 .2.2 0z" style="fill:url(#l)"/></svg>