<svg xml:space="preserve" width="16" height="16" viewBox="0 0 128 128"><path d="M26 70.8s.4 3.8 2 4.5q2.5 1 3.9 0c.7-.7 1.9-4 1.9-4l-3.9-.3z" style="fill:#feeed1"/><path d="M24.3 62.8h-.4c0-.1-2.5-1-5.5-1.5-2.8-.4-5.2-.4-5.3-.4a1 1 0 0 1-1-1q0-1 1-1.1s2.6 0 5.6.4c3.2.5 5.8 1.5 6 1.5q.8.4.6 1.4a1 1 0 0 1-1 .7m-11.8 5.4a1 1 0 0 1-.5-2 26 26 0 0 1 11.4-3q1 .1 1.1 1.1 0 1-1 1.1s-2.9.1-5.4.7-5 2-5 2zm2.3 6a1 1 0 0 1-.7-2l4.4-3.2c2.3-1.5 5.7-3.3 5.8-3.4a1 1 0 0 1 1 1.9s-3.4 1.8-5.6 3.3zM59 35.8c0 6.9-4.1 12.4-11 12.4s-13.6-3.7-13.8-12c-.2-6.8 3.7-12 11-12.9C53.3 22.3 59 29 59 35.8" style="fill:#a8a8a8"/><path d="M94.9 91.5s6.3 1.4 9.3 5.1c1.8 2.2 2.6 7.7 0 10.2-2.7 2.5-6.3 4.4-17.2 4.1-10.8-.2-16.2-.6-21.3-.2-3 .2-8.2.8-11.4 5-2 2.7-3.8 6.9-2.2 7.5 1.4.6 3.6-5.7 8.2-7 6.4-2 18.8.4 24.7.8 8.5.7 19.3 1.4 25.2-6.3a16 16 0 0 0-3.3-22.5c-6.3-4.7-9.7-4.6-9.7-4.6zm-16.3 7.3s-6.4.6-8.8 1.7-4 3.1-3 4.5 4-.4 7.8-.5 9.1.5 12.4-.3c3.2-.7 4.2-3.4 4.7-4.7.5-1.2-13.1-.7-13.1-.7m-30.9.4-2.3 1s-1.9.3-2.7 2c-1 1.7 1.8 1.9 3.4 1.9s2.2-.3 2.2-.3.8.9 2.6 1 4-.1 5-.8c1.2-.7 1-2.8 1-2.8z" style="fill:#feacab"/><path d="M48.1 82.3s-2.7-2-2.7.2 1.5 9.4 1.5 10.6-1.8 3-2.2 5q-.5 3 2.8 3.1c2.3.1 4.1-1 4.1-1l3.9-11.6z" style="fill:#a9a9a9"/><path d="M50.9 41.6s.8-12.9 12.6-13.4c10.1-.5 15.8 8 14.3 17-1.4 9-9.8 10.5-9.8 10.5s6.5-.1 9.8.3c3.5.3 14 2 18.8 9.9s5.7 16.5 3 23.7c-2.5 6.3-6.1 8.4-8 9.2s-7.3 1.6-9.5 1.6-7.1-3-7.1-3l-11.4.5s-4 3.2-5.4 3.8c-1.3.6-7.4 1.4-9.8-.1-1.3-.9.2-2.6.7-5.6s.6-3.6.6-4.8c-.1-1.2-4-4.6-5.5-9-.9-2.6-1.9-6.7-1.9-6.7l-.4-2-7.2-1.9s-3.1 1.2-5.8.6-4-2.6-4.9-4.4c-.8-1.8-1-5.3-.9-6.4.2-1.5 3.5-6.6 8.8-11.5a28 28 0 0 1 19-8.3" style="fill:#dfdfdf"/><path d="M71 35.7c-2.8-2.9-8.7-3.3-12.5 1-3 3.6-2.7 9 0 11.7 3 2.9 9.3 3.1 12.8-1.1 2.8-3.4 2.2-9-.4-11.6" style="fill:#ffa7a6"/><path d="M62.8 96.4s-2 1.9-3.4 2.8c-3.1 2-5.8 1.8-5.7 3 0 .4 3.7.5 6.4-1 2.5-1.2 3.6-2.3 3.6-2.3l12.3-.1s3.4 2.3 7.5 2.4c7.5.2 10.5-2.8 12.2-4.5 1.6-1.6 3.4-5 2-4s-6.4 5.3-11.2 5.6c-3.7.2-7.3-.3-9.7-3.4q-2.2-2.7-.9-8.3c1.2-5.5 5.8-7.6 8-7 4.2.9 4.2-1.7 0-3.1-4.5-1.6-9.7 1.3-11.7 8.7a14 14 0 0 0 1.1 10.7s-9 0-10.5.5" style="fill:#a9a9a9"/><path d="M45.8 59c-.7 1.8-2.7 2.7-4.2 2.1-1.5-.5-2-2.5-1.4-4.3s2.4-2.9 3.9-2.3c1.5.5 2.6 2 1.7 4.5" style="fill:#2a2a2a"/><path d="M23.3 65.4H26l3.3-3s-1.7-1.7-3-2.2q-2.3-.6-2.4-.4c-.2.2-1 1.2-1 2.8 0 1.4.5 2.8.5 2.8" style="fill:#ffa7a6"/><path d="M48.3 72.1c4.4-.5 8.6-2.5 10.5-5.1 1.3-1.9 2.5-3.8 3.7-3s-.7 3.6-3 5.6-6.3 4.7-11.5 4.8c-4.4 0-8.6-.2-11.2-.9-2.2-.6-4.8-1.7-4.8-1.7s-1.8 1.1-3.1.6-4-1.6-4.8-3.6c-.3-.8-1.4-3.1-.5-3.3 1.4-.4 1.4.5 1.7 1.2s.7 2 1.3 2.5 2.4 2 3.3 2c1 0 5.5-.7 5.5-.7s7.5 2.3 12.9 1.6" style="fill:#a9a9a9"/><path d="M29.7 62.3c-.8-.5-1.6.3-2.6 1s-1.9 1.3-2.6 1.4-2 0-2 1.1c.2 1.2 1.4 1 2.2 1 .8-.1 2.7-.8 3.5-1.5.9-.7 2.8-2.2 1.5-3m-5 6.2c-.8.7-.1 1.5 1 2.5 1.1 1.2 3 2 4.3 2q2.9.1 5.6-2.3c1.6-1.6 0-2.9-1.5-2.1s-3.4 1.9-4.1 1.8c-1 0-2.7-1.2-3.2-1.5s-1.2-1-2-.4" style="fill:#434b55"/></svg>