<svg xml:space="preserve" width="16" height="16" viewBox="0 0 128 128"><path d="M45.4 99s.6 7.2 0 8c-.6 1-4.8 1.3-8 4.4-2.7 2.6-2.1 5.5 1 5.2 3-.2 6.6-3 10.4-3.8s9.6-.2 9.6-2.6-5.1-3-5.1-3v-6.9l6.5.6-.3 11.8s-7 2.5-9.1 4.2c-2.2 1.7-4 4.4-2.4 6 1.5 1.5 5-.6 6.6-1s6.3-2.7 9.7-3.2 9.6.5 10.3-1.2-1.3-3.6-4-4.4l-2.6-.8v-14z" style="fill:#858585"/><path d="M47.4 43.9s-3.8-1.9-4-8.2c-.1-4.5 3-7.5 3-7.5s-1.3-4 1.4-7.9 5-3.6 5-3.6 0-4.8 4.2-7.3 7.3-.2 7.3-.2 1.7-4 6.2-4.3 5.9 2.4 5.9 2.4 3-4 7.3-2.7c4.4 1.3 5 4.8 5 4.8s3.9-3.5 8.5-.4c4.7 3 3.5 7.1 3.5 7.1s4.7-2.2 9 2.1c3.3 3.3 1.3 7.5 1.3 7.5s4.2.2 6 5c1.6 4.6-1.9 8-1.9 8s4.2.4 5.3 5.6c1.3 5.6-3 8.9-3 8.9s2.5 2.2 1.6 8c-.7 5-5.9 7-5.9 7s2 3.5-.5 8c-2.6 4.5-8 4.3-8 4.3s-.3 3.1-2.6 5.5c-3 3-7 1.6-7 1.6L46.4 53.2z" style="fill:#ffeac9"/><path d="m81.5 67.8 14.3 12 3.8 3.2s4-.1 7-4.2c2-3 .5-7 .5-7s5-.6 6.6-6.4-1.3-8.5-1.3-8.5 4.2-1.2 4.2-7c0-5.3-4.7-6.3-4.7-6.3s4.4-1.7 3-6.5c-1.4-4.3-5.9-4-5.9-4s2.6-4.6-.7-8.4c-2.8-3.2-6.7-1.4-6.7-1.4s.7-4-2.3-6.5-6.6-.6-6.6-.6.2-4.2-3.4-5.2c-3.5-1-5.3.9-5.3.9s-2.1-3.3-5.6-3c-3.6.3-5 2.8-5 2.8s-2-2.5-5.9-1.7c-4 1-4.2 4.5-4.2 4.5s-3.3-1.5-6 0c-3.4 2.2-2.9 6.2-2.9 6.2s-4 .6-5.5 3.4c-2 3.7-.1 7.3-.1 7.3l.6 9.7z" style="fill:#4d4d4d"/><path d="M98 79.5s3.9-.4 5-3.8-.4-5.6-.4-5.6 5-1.6 6.2-6.2-1.9-8.2-1.9-8.2 5-5 3-10-6.4-6-6.4-6 2.6-5 1-8.2c-2.2-4.5-8.1-4.2-8.1-4.2s1.5-4.8-3.9-7.7c-4.6-2.5-8.7.4-8.7.4s-2.2-4.7-7.6-4.7-7.1 5-7.1 5-4.5-3-8.8-.5-4 7.4-4 7.4-5-.2-8.8 4.7c-2.9 3.8-1.1 10.7-1.1 10.7L32.6 53.4s-.2-1.8-1.3-3.8c-1-1.9 2.6-13.1 2.6-13.1s-16.6 7.4-18.8 11.2A34 34 0 0 0 12 64.6a41 41 0 0 0 14.8 28.7 52 52 0 0 0 34.8 11.2c19.1-.2 27.8-5.3 30.2-6.3S98 79.5 98 79.5" style="fill:#845b52"/><radialGradient id="a" cx="25.9" cy="20.3" r="14.8" gradientTransform="rotate(-36.8 30.3 18.87)scale(1 .855)" gradientUnits="userSpaceOnUse"><stop offset=".2" style="stop-color:#5ea4ce"/><stop offset=".5" style="stop-color:#988aa4"/><stop offset="1" style="stop-color:#fe5d5a"/></radialGradient><path d="M30 40.5s5-4.5 6.5-6.6c1.6-2.1 5.2-7.5 4-16.5-1-7.5-8.2-11.6-13.7-10.3-3.1.7-7 7.8-7.6 10s3 11.4 3 11.4z" style="fill:url(#a)"/><ellipse cx="29.4" cy="19.2" rx="3.7" ry="3.8" style="fill:#000306"/><path d="M17.1 15.9a43 43 0 0 1-4 4.7c-2 2.1-4.3 4.5-4.1 5.4.2 1.3 2.6.4 4.2-.4a16 16 0 0 1 5.6-2.3c1 0 1.4.7 2.2.2.9-.6 2.2-3 2-3.8s-3.6-2.1-4.3-2.6l-1.6-1.3" style="fill:#898484"/><path d="M27.5 6.8c.9.2-3 2-4 6.2-1 3.7-1.9 7.3-5 5.7-4.1-2-1-7.8.2-9.2a9 9 0 0 1 8.8-2.7M23 20.1c0-1.5-1.8-.8-2.1.7a9 9 0 0 1-1 3.2c-.6 1.1-6.4 6-7.4 7.5s-3 4.6-1.3 7.6c1.6 2.6 7 1.8 7 1.8l6.4-9.1s-1-3.6-1.1-5z" style="fill:#a22911"/><path d="M28.4 30.9c2.6 3.1 2.8 6.6 2.4 9.4a23 23 0 0 1-8 14.2c-3 2.6-9.6 4.3-13.3.4-4.4-4.7 3-11 4.2-12.5s5.8-5.4 7.3-9c1-2.4 2.4-7.2 2.4-7.2s3 2.2 5 4.7" style="fill:#ff2219"/><path d="M94.5 75.4s3.4-.8 4.4-3.1c1.3-3-.2-5-.2-5s5.3-.8 5.8-6c.4-4-2.7-6-2.7-6s3.7-2.7 3-6.8c-.8-5.5-6-5.7-6-5.7s4.3-3.2 1-8.3c-2.1-3.2-7.1-2.4-7.1-2.4s1.8-4.6-2.6-7c-4.2-2.3-7.8 1.4-7.8 1.4s0-4.7-5.7-5.3c-5-.4-6.4 4.6-6.4 4.6s-3.3-3-7.8-.8c-4.2 2-3.8 6.8-3.8 6.8s-4.4-1-7.2 1.7c-3 2.7-2 8.2-2 8.2S29.3 52.7 28.2 54c-1.1 1.2-8 11-3.6 22.4s16.7 17.2 28 10.8c7.8-4.4 13-14.7 15.2-18 2.3-3.1 5.3-4 5.3-4z" style="fill:#b79277"/><path d="M64.3 67s6.3-.8 11.7 1.7a30 30 0 0 1 14 13.6c2.7 6 2.4 15.6 2.4 15.6s8.5.5 8.8-8.2c.2-6-2.7-8.7-2.7-8.7s2.4-3-1.6-8c-2.4-2.9-6.5-4.3-6.5-4.3s-3-3.7-9.2-5C72.7 62 64.3 67 64.3 67" style="fill:#faeacb"/><path d="M52.2 41.2s.4-4.7 4.7-6.2c5.4-1.8 8.3 1.3 8.3 1.3s2.5-5.2 8.8-4.8c7 .4 8 7.3 8 7.3s6.2-1.7 9.8 3.9 0 11.2 0 11.2 5 1.6 5 7.7c-.1 6-3.5 8.4-3.5 8.4s-1.6-.9-2.7-1c-1-.6-7.2-5.3-13-5.4S67 65.6 64.3 67s-13.1 9-14.7 10-12.2 7.6-20-2.2-2.2-22 2.3-26q7.7-7.3 20.3-7.6" style="fill:#4d4d4d"/><path d="M43.7 57.3c.3 1.3 3.2 4.4 11 7.1 3 1 9.6 2.6 9.6 2.6s4-1.7 6.3-2.5c.8-.3 5.5-1 5.5-1 .8.2-10.4-1.2-17.7-3.1-6.2-1.6-15.2-5-14.7-3.1" style="fill:#000306"/><path d="M91.5 87.4s1.7-.5 4.8-.4c2.5.1 5 .5 5 2s-2.2.8-5.3.8-4 .3-4 .3zM89 80.7l4.6-.7c1.8-.1 5.5 0 5.5-1.3s-4.6-1.6-6.4-1.4l-5.3.8zm-5.5-6.9s1.8-2 4.6-2.2c2.5-.3 6.3 0 5.6-1.3s-4.3-1.5-6-1.4c-5.3.4-6.7 3-6.7 3z" style="fill:#b49075"/></svg>