<svg xml:space="preserve" width="16" height="16" viewBox="0 0 128 128"><path d="M4 64h120v36.1H4z" style="fill:#82aec0"/><path d="M4.2 69.4H124v3.5H4.2z" style="fill:#757575"/><path d="M4 99.5v3l7.2 8.7V124H37v-12.8l7.1-8.7h39.5l7.2 8.7V124h26v-12.8l7.1-8.7v-3z" style="fill:#607d8b"/><path d="M112.7 124H95v-7.9a5 5 0 0 1 4.9-4.9h8a5 5 0 0 1 4.8 5zM33 124H15.3v-7.9c0-2.7 2.1-4.9 4.8-4.9h8a5 5 0 0 1 4.9 5z" style="fill:#82aec0"/><path d="M13.5 64s10 2 15 9c4.2 5.7 6.4 9.5 17.6 9.5H124V64z" style="fill:#455a64"/><path d="m29 62.5-11.8-5.9c-3.4-2.2-4.6-4.3-4.5-7s1.3-6 2.5-9.9C19.5 25.7 29.7 4 53.8 4H124v58.2z" style="fill:#e0e0e0"/><path d="m28.7 62.5 95.3-.4V49.6H64.7c-4.8 0-8-5-6.5-9.8 3-8.8 9.1-18 20.9-18H124V11.4H73.1C59.8 11.4 51 26 46.3 38 43.5 45 37 49.5 30 49.5H12.7q-.3 3 2.3 5.7c.5.5 13.7 7.3 13.7 7.3" style="fill:#f44336"/><path d="M13.5 53.3s.8 2 4.1 3.6l11 5.7 95.4-.4v-5H33.1c-7.6 0-19.6-3.9-19.6-3.9" style="fill:#c62828"/><path d="M124 79.2H48.5c-10.2 0-14.2-4-17.2-11.3l-2.7-5.6H124z" style="fill:#e0e0e0"/><path d="m36.1 70.7-2-3.9c-.3-.8.3-1.7 1.1-1.7H124v-2.8H28s2.2 3.1 3.2 5.6c3 7 6.8 11 16.4 11.2a18 18 0 0 1-11.5-8.4" style="fill:#bdbdbd"/><path d="m100.4 67.6-57.6 1.7s-5 .2-5.8-1.8c-.5-1.5.4-2.4 3.8-2.4l43 .2s11 0 16.6 2.3" style="fill:#fff"/><path d="M124 37V17.4l-69.5.6a47 47 0 0 0-14.4 19z" style="fill:#bae2fd"/><path d="M124 16.6H55.5c-6.3 0-13.7 13-17 19.3-.7 1.5.3 3.3 1.9 3.3H124zM43.3 36.2q-1 .1-.7-1.2c.2-.5 5.1-10.6 10.8-14.2q1-.4 1.1.7v13.9q0 .7-.7.8zm13.1-.8v-15q0-.7.8-.8h19q.8.1.8.8v15q0 .7-.7.8H57.2q-.8-.1-.8-.8m22.5 0v-15q0-.7.8-.8h19.1q.7.1.8.8v15q-.1.7-.8.8H79.7q-.8-.1-.8-.8m42.4.8h-19.1q-.7-.1-.8-.8v-15q.1-.7.8-.8h19.1q.7.1.8.8v15q-.1.7-.8.8" style="fill:#37474f"/><path d="M27.4 35c10-15 17.9-22.8 17.9-22.8H32.9l-2.5.8a62 62 0 0 0-15.2 26.8S22.7 42 27.4 35" style="fill:#bae2fd"/><path d="M29.2 36.2c10-15.9 18-23.2 21.3-25.2.4-.2.5-.9-.6-.9H34.1q-2 1.4-3.7 2.9h11c.5 0 .6.7.3 1-3.2 3.2-6.1 5.6-14.4 18a10 10 0 0 1-7 4.7c-1.2.2-3 .3-4.3.3l-2.7 8.8c3 .3 9.6.6 16-9.6" style="fill:#37474f"/><path d="M124 6.2V4H53.5C47 4 43 5.6 43 5.6z" style="fill:#bdbdbd"/><path d="M21.4 38.4c-.7-.8-2.2-.6-3.3.5-1.2 1-1.6 2.5-.9 3.3s2.3.6 3.4-.5c1.2-1 1.5-2.5.8-3.3" style="fill:#ffca28"/></svg>