<svg xml:space="preserve" width="16" height="16" viewBox="0 0 128 128"><path d="M64.3 103.3c-34 0-53.5-33.1-57-39.4 3.1-6.2 21-39.2 57-39.2s53.9 33 57 39.2c-3.4 6.3-23 39.4-57 39.4" style="fill:#fafafa"/><path d="M64.3 27.1q23.8 0 41.7 19.1A81 81 0 0 1 118.5 64c-4.5 8-23 37-54.2 37a56 56 0 0 1-40.9-19.2A91 91 0 0 1 10.1 64a80 80 0 0 1 12.5-17.7 56 56 0 0 1 41.7-19m0-5C22.6 22.2 4.7 64 4.7 64s20.2 41.8 59.6 41.8S124 64 124 64s-18-41.8-59.7-41.8m0 14.8c27 0 45.5 16.5 53.7 27.7 1 1.3 2-5 1.1-6.3-7.8-12.3-25.4-33-54.8-33s-47 20.7-54.8 33c-.8 1.3.3 6.8 1.4 5.6 8.6-9.2 26.4-27 53.4-27" style="fill:#b0bec5"/><circle cx="64.3" cy="60.8" r="33.1" style="fill:#9c7a63"/><path d="M64.3 37c10.9 0 20.4 2.7 28.4 6.6a33 33 0 0 0-57.1.7A61 61 0 0 1 64.3 37" style="fill:#806451"/><circle cx="64.3" cy="60.8" r="15.4" style="fill:#212121"/><circle cx="88.9" cy="59.4" r="7.7" style="fill:#d9baa5"/><path d="M7.2 67.2q-.8 0-1.5-.4a3 3 0 0 1-1.3-4.3c.9-1.6 21.3-40.3 60-40.3 38.6 0 58.4 38 59.2 39.5a3.2 3.2 0 0 1-5.6 3c-.2-.3-19-33.8-53.7-33.8S10.2 65.2 10 65.5q-1 1.7-2.8 1.7" style="fill:#616161"/></svg>