<svg xml:space="preserve" width="16" height="16" viewBox="0 0 128 128"><radialGradient id="a" cx="63.6" cy="512.9" r="57" gradientTransform="translate(0 -450)" gradientUnits="userSpaceOnUse"><stop offset=".5" style="stop-color:#fde030"/><stop offset=".9" style="stop-color:#f7c02b"/><stop offset="1" style="stop-color:#f4a223"/></radialGradient><path d="M63.6 118.8c-27.9 0-58-17.5-58-55.9S35.7 7 63.6 7c15.5 0 29.8 5.1 40.4 14.4 11.5 10.2 17.6 24.6 17.6 41.5s-6.1 31.2-17.6 41.4a61 61 0 0 1-40.4 14.5" style="fill:url(#a)"/><path d="M111.5 29.7a57 57 0 0 1 8.1 30.2c0 16.9-6.1 31.2-17.6 41.4a61 61 0 0 1-40.4 14.5 59 59 0 0 1-48.2-23 58 58 0 0 0 50.2 26c15.4 0 29.8-5.2 40.4-14.5a54 54 0 0 0 17.6-41.4q-.1-19.2-10.1-33.2" style="fill:#eb8f00"/><path d="M120.4 82a10.2 10.2 0 0 0-14.4-7 10.2 10.2 0 0 0-18.5-6.4c-3.7 5.4-2.7 13.2-1 19.3 1 3.6-.3 7.5-3.2 9.9 20.3 3.9 30.3 0 35.6-8q2.3-3.5 1.5-7.6" style="fill:#e53935"/><path d="M98 100.8c-1 0-10.8-1-14.7-3.1.1-.3 6 0 14.6 0q4.4.1 8.6-.9c4-1 7.8-3 10-6.5 1.3-2 2.7-4.8 2.4-7.2-.4-3-1.9-6-4-8.2q2.5.8 4.4 2.8c3.3 4 2.8 9.6-.2 14.2q-5.7 9-21 8.9" style="fill:#c62828"/><path d="M90.6 67.6q1.7-1.6 4.2-1.9c1.6 0 3.5.7 3.8 2.3q.3 1.7-1 3l-2.3 2.4c-1.8 2.3-2 5.6-3.3 8.3-.5 1-1.5 1.8-2.5 1.4l-.7-.6c-3.4-4.1-2.2-11.5 1.8-14.9" style="fill:#ef5350"/><path d="M104.7 79.1q-.5.5-1.2.3-.8 0-1-.9-.2-.7.3-1.3t.7-1.5q.5-1.8.3-3.6c-.2-1.8-1.5-4.6-2.3-6.3q2.8 1.6 4 4.5 1 2.3 1 5 0 2-1.6 3.7z" style="fill:#c62828"/><path d="m97.4 55.4-.2-.2-.5-.8-2.5-2.2a18 18 0 0 0-7.4-3l-.6-.1.6-.4 1.7-.9 3.1-1.5q1.5-.7 2.2-.8l.7-.3.3-.1a2.8 2.8 0 0 0-.9-5.4 13 13 0 0 0-4.2.6q-2 .4-4 1.3-1 .3-2 .9l-2.1 1-2 1.3-1.9 1.3A29 29 0 0 0 72 52l-.1.2q-.6 1-.3 2.2l.2.7a3 3 0 0 0 3.6 1.5l.2-.1.3-.1h.3l.8-.3 1-.2a22 22 0 0 1 7.6.2l.8.2q1 0 1.7.4a20 20 0 0 1 4.6 2l.6.3.3.2a2.7 2.7 0 0 0 3.8-3.8M72.9 85a9 9 0 0 0 3-6c.1-3.5-.8-4.8-2-6.3-2.7-3.7-10.4-2.8-10.4-2.8-2 0-4.4 1-4.1 3.4a4 4 0 0 0 2.9 2.7c3 .7 7.3 0 7.5 3 .1 3.6-5.2 2-5.6 5.8s5.6 3.2 5.6 5.7c0 2-2 2.3-4.1 2.7-1.8.4-5.2 1-5.5 3s.9 4.6 5.7 3.8c7.6-1.1 10.2-5.3 10.2-7.8 0-2.8-1.1-5.5-3.2-7.3M43.4 31c2.2-.6 1.9-3.8-.6-3.6q-3 .3-5.6 1.6a21 21 0 0 0-10.7 11c-.9 2.3 2.2 3.5 3.3 1.6q5-7.6 13.6-10.5m.3 9.9c-4.2 0-8 3.5-8 9.4s3.8 9.4 8 9.4 8-3.6 8-9.4-3.8-9.5-8-9.5" style="fill:#422b0d"/><path d="M43.3 44.9a3 3 0 0 0-3.8 1.3q-.8 1.8.6 3.3c1.4.7 3 0 3.8-1.3.5-1.1.3-2.5-.6-3.3" style="fill:#896024"/></svg>