<svg xml:space="preserve" width="16" height="16" viewBox="0 0 128 128"><path d="M49.1 27.3c10.3 15.2-4.7 31.2-3.4 38.1 2.3 12.2 12.1 18.2 2.9 30.5-1.5 2-8.3 6.7-18 1-10.4-6.1-24.1-45.1-17.8-61.5 6.6-17 30-17.3 36.3-8.1m.8-3c-4.6-3-3.1-24.5 9.8-17s-5.2 20-9.8 17m-11.6-6.4c-4.1-1-6.2-15.4 3-13.6s1.1 14.6-3 13.6m-9.5-.3c-2.5.6-12.4-9-3.2-12 8.8-2.8 5.7 11.3 3.2 12m-8.6 3.6c-2.5 1.5-12.2-5.5-5.8-9.9 6.1-4 8.3 8.4 5.8 9.9M13.9 27c-1.9 2.6-10.3-1.5-7-5.8s8.9 3.4 7 5.9m64.2 24.7C67.8 67 82.8 83 81.5 89.9c-2.3 12.2-12.1 18.2-2.9 30.5 1.5 2 8.3 6.7 18 1 10.4-6.1 23.6-48 18.4-62.2-5.8-16-30.6-16.6-36.9-7.4m-.8-3c4.6-3 3.1-24.5-9.8-17s5.2 20 9.8 17m11.6-6.4c4.1-1 6.2-15.4-3-13.6s-1.1 14.6 3 13.6m9.3-.1c2.5.7 12.3-8.9 3.2-11.9-8.9-2.9-5.7 11.2-3.2 11.9m8.8 3.4c2.5 1.5 12.2-5.5 5.8-9.9-6.1-4-8.3 8.4-5.8 9.9m6.7 5.6c1.9 2.5 10.3-1.6 7-5.9-3.5-4.3-9 3.4-7 5.9" style="fill:#176bc6"/></svg>