<svg xml:space="preserve" width="16" height="16" viewBox="0 0 128 128"><path d="m113.8 65.4-.6-.2h-4.9s6.7 7.5 6.7 10.7c0 15.5-21.5 28.1-48 28.1S19 91.4 19 75.9q0-4.8 2.7-9.2c.4-.7-.2-1.6-1-1.5h-4.9S7 79.4 7 87.9c0 20 26.9 36.1 60 36.1s60-16.1 60-36.1c0-8.5-4.9-16.3-13.2-22.5M54.4 83.9h4.9l.7-.2c6.6-4.5 23.6-18.9 13.5-41.3a56 56 0 0 1-2.9-37.1c.2-.7-.4-1.4-1-1.4h-5s-16.8 20.9-8.8 41.9c6.4 17.1-1.4 38.1-1.4 38.1m-29.1 0 4.9-.1.7-.2c5.9-4 21.1-16.8 12.1-36.9a49 49 0 0 1-2.6-33.2q.1-1-.8-1.2h-5S20 31.1 27.1 49.8c5.7 15.3-1.8 34.1-1.8 34.1" style="fill:#c33"/><path d="M108.8 65.4c-.9-.6-2 .4-1.5 1.3q2.6 4.4 2.7 9.2c0 15.5-21.5 28.1-48 28.1S14 91.4 14 75.9q0-4.8 2.7-9.2c.5-.9-.6-1.9-1.5-1.3C7 71.6 2 79.4 2 87.9c0 20 26.9 36.1 60 36.1s60-16.1 60-36.1c0-8.5-4.9-16.3-13.2-22.5M53.3 82.6c-.2.9.8 1.7 1.6 1.2 6.6-4.5 23.6-18.9 13.5-41.3a56 56 0 0 1-2.9-37.1c.3-1-.9-1.8-1.7-1.1C57.4 9.7 42.8 25 50.7 46a60 60 0 0 1 2.6 36.6m-28.9.1c-.2.8.7 1.5 1.5 1 5.9-4.1 21.2-16.9 12.1-37a49 49 0 0 1-2.6-33.2c.2-.9-.8-1.6-1.5-1-5.8 4.9-18.9 18.6-11.8 37.3a55 55 0 0 1 2.3 32.9" style="fill:#f44336"/><path d="M84.2 83.9H89q.4 0 .7-.2c5.9-4.1 21.2-16.9 12.1-37a49 49 0 0 1-2.6-33.2q.1-1-.8-1.2h-5S78.9 31 86 49.8c5.7 15.3-1.8 34.1-1.8 34.1" style="fill:#c33"/><path d="M83.2 82.7c-.2.8.7 1.5 1.5 1 5.9-4.1 21.2-16.9 12.1-37a49 49 0 0 1-2.6-33.2c.2-.9-.8-1.6-1.5-1C87 17.4 73.8 31.1 81 49.8a55 55 0 0 1 2.2 32.9" style="fill:#f44336"/><path d="M28 47.3q-1.4-.5-2.1-2a22 22 0 0 1-.6-17.5c.5-1.1 2-4.5 3.5-4q.9.2 1 1c.2 1-.5 1.7-1 2.4a12 12 0 0 0-1 8.2c.7 3 5.7 7.9 3.3 10.9q-1.5 1.7-3 1m58.3 0q-1.5-.5-2.2-2a22 22 0 0 1-.6-17.5c.5-1.1 2-4.5 3.6-4q.8.2 1 1c.1 1-.6 1.7-1 2.4a12 12 0 0 0-1 8.2c.6 3 5.6 7.9 3.2 10.9q-1.5 1.7-3 1m-29.9-4.5h-.4c-3.4-.5-4-9-3.8-11.5q.2-3.8 1.6-7.5c.5-1.1 2-4.5 3.6-4q.8.2 1 1c.2 1-.6 1.7-1 2.4a13 13 0 0 0-1 8.9c.3 1.8 4.1 10.8 0 10.7m-42 58.8a3 3 0 0 0 1 4.2c4.2 3 18.9 12.7 40.3 13.9 25.6 1.4 37-6 37-6s1.8-.6 1.1-1.7-3 0-3 0-25 6.4-44.3 1.3c-20.4-5.4-24.8-10-27-11.9q-1.5-1.2-3.4-1-.9.1-1.5.9z" style="fill:#ff8a80"/></svg>