<svg xml:space="preserve" width="16" height="16" viewBox="0 0 128 128"><path d="M50.3 115.5a63 63 0 0 1 12.4-26.6C72.4 77 60 69 60 69s-10.5-10.5-20.1 1.4A63 63 0 0 1 16.4 88c-4.7 2-7.4 7-6.3 12 1 4.6 3.9 10 11 15.8l.5.4.5.5a29 29 0 0 0 17.6 7.5 11 11 0 0 0 10.6-8.7m64.4-53.8-29.5-24-29.6-23.9-16.9 41.8C37.2 60 35.3 70 49 81.2s24.3 8.1 28.4 5.7z" style="fill:#ef8720"/><path d="M55.6 30.5q-.2 2 .9 3.9 1.6 3 4.7 4.8m2.8 1.5q0 1.5.9 2.7c1.8 3 4.8 5.6 8.3 6m2.6 2q1 3.3 3.9 5.3c2.9 2 4 2 6.3 1.9m3 1.4q-.1.9.3 1.6c1.3 2.3 3.8 3.4 6.3 4 1 .1 2 .3 2.7-.2m2.2.5q1.5 2 4.1 2.5 1.2.3 2-.3M52 22.5q-.7.5-.6 1.4 0 3 2.4 4.8" style="fill:none;stroke:#424242;stroke-width:1.2121;stroke-linecap:round;stroke-miterlimit:10"/><ellipse cx="84.7" cy="38.6" rx="14.9" ry="41" style="fill:#ffcc80" transform="rotate(-51 84.7 38.6)"/><path d="m89.3 52.6-.1.2-3.6 6.5s1.8 1.1 2 .5C88 59.2 92 55 92 55M56.8 16.4c-.5 1.2-1.7 1.8-2.6 3.3s-.3 2-1 2.8c-1 1.4-1.7 1-2 .7-.8-.7-.7-2.6 1.3-5.2l1.8-2.4" style="fill:#424242"/><path d="M52 21.7S40.5 47.5 37.8 56.6c-1.8 5.8.8 13.3.8 13.3" style="fill:none;stroke:#424242;stroke-width:1.8182;stroke-linecap:round;stroke-miterlimit:10"/><path d="m60.2 24.2.7 2-1.4 1.2-.9.6q-.8.6-1 1.4l-.6 1.3c-.5.4-1.8 1.4-2 1.2l-1-1.7 2.4-3.4 2.3-3zM111.8 61c-1 .7-1.4 2-2.7 3.2-1.3 1-1.8.7-2.5 1.5-1.2 1.2-.7 1.9-.3 2.2.8.6 2.7.1 4.8-2.4l2-2.3" style="fill:#424242"/><path d="M107.5 66.7S84.7 83.3 76.4 88C70 91.3 61 89 61 89" style="fill:none;stroke:#424242;stroke-width:1.8182;stroke-linecap:round;stroke-miterlimit:10"/><path d="m67.4 35.2 1.9 1.5-4.8 4.8-1-2zm35.2 24q-1.3-.2-2 1l-.1.4-.6 1.3q-.2.6-.9 1-.8.3-1.2.9c-.4.5-1 2-.8 2l.7.3q1.2.4 2-.5l2-2.1 2.6-3-.3-.4a2 2 0 0 0-1.4-1" style="fill:#424242"/><path d="M57.8 8c5.5-6.9 20-6 41.6 11.5s26.1 32.1 20.6 39c-5.5 6.7-23.3 1.3-40.7-12.7s-27-31-21.5-37.9" style="fill:#ffcc80"/><path d="M119.4 59.2C114 66 96.1 60.6 78.7 46.5s-27-31-21.6-37.8" style="fill:none;stroke:#e64a19;stroke-width:2.4243;stroke-linecap:round;stroke-miterlimit:10"/><ellipse cx="91.1" cy="30.5" rx="12.6" ry="34.6" style="fill:#fef6e0" transform="rotate(-51 91.07 30.5)"/><path d="M69.4 50.8a4.2 4.2 0 0 1 6.4 5.3C74.6 57.6 56 75.6 50.3 81.3q-.4.2-.3-.3c4.4-6.7 18.1-28.6 19.3-30.2z" style="fill:none;stroke:#424242;stroke-width:2.4243;stroke-linecap:round;stroke-miterlimit:10"/><path d="M77.5 50.2a3 3 0 0 1 1.5-1.9q1.1-.5 1.8-1.1.6-1-.2-2L79 44q-1-.8-1.9.2-.6.8-.8 2a3 3 0 0 1-1.5 1.8q-1 .4-1.5 1-.8 1 0 2t1.5 1.4q1.2.4 2.1-.5.5-.6.6-1.7" style="fill:#424242"/><path d="M86.8 65.6c3.6-2.8 2.8-5 1-6.4s-4-.9-5.8.6A701 701 0 0 0 57.2 87q-.2.5.3.3zm8.5 6.1c7.3-4.7 6.4-6 4.3-7-2.6-1.2-9.1 4.5-9.1 4.5l-28.1 21c2.6 1 31-17.3 33-18.5z" style="fill:none;stroke:#424242;stroke-width:1.8182;stroke-linecap:round;stroke-miterlimit:10"/><path d="M103 63.6c1.3-1.4 2.1-.5 3.1-2.3.7-1.2 0-2-.7-2.5s-2.6-1.4-3.7 0c0 0 1.2.6.6 1.8-.3.6-1.8 1.5-2.3 2.4q-1.4 2.3-2.2 2.6-.8.2-.5.7a4 4 0 0 0 2 1.1q1.6.4 2.9-1.4c.4-.7 0-1.5.8-2.4m-12.2-4.3c.2-.8 0-1.2.8-1.7q1-.4 2.1-1.6c.8-1-.4-2.2-1.3-2.8s-1.8-1.2-3-.6c0 0 .7.7.3 2.1a7 7 0 0 1-2.6 3.1c-.9.7-1.5 1.5-1.5 1.5s.1.6.8 1.2q1.5 1.2 2.3 1c1.3 0 2-1.4 2.1-2.2m25.7 3.3q.7-2.9-1.8-3c-1.9-.4-2.9 1.3-2.9 1.3s1.7.1 1 1.5c-.5 1-3 2.1-3.5 3-.8 1.5-2.7 3-2.7 3.2 0 0 2.7.4 4.4-1.2 1-.9.7-1.8 2.3-2.6 1.2-.6 3-1.3 3.2-2.2" style="fill:#424242"/><path d="M57.4 41.8c2-4 4.3-3.8 6-2.3s1.8 3.8.7 5.8c-2.3 4-17.2 24.2-21.4 29.9q-.3.2-.3-.2zm-7.7-7.1c3-8 4.6-7.4 6-5.6 1.6 2.3-2.5 9.9-2.5 9.9L38.5 70.8c-1.7-2.3 10.4-34 11.2-36z" style="fill:none;stroke:#424242;stroke-width:1.8182;stroke-linecap:round;stroke-miterlimit:10"/><path d="M56 25.5c1.1-1.6 0-2.1 1.6-3.5 1.1-1 2-.5 2.7.2s1.9 2.2.7 3.6c0 0-.8-1-1.8-.3-.6.5-1.2 2.2-2 2.8-1.5 1.4-1.8 2.1-2 2.8-.2.4-.1.8-.6.6a4 4 0 0 1-1.5-1.7q-.9-1.6.8-3.2c.6-.5 1.4-.3 2.1-1.3m6.8 11.1c.7-.3 1.2-.3 1.4-1.1.3-.7.4-1.6 1.2-2.5.9-1 2.2 0 3 .8s1.5 1.5 1.3 2.8c0 0-1-.6-2.2.2a7 7 0 0 0-2.5 3c-.4 1.1-1.1 1.8-1.1 1.8s-.6 0-1.4-.5q-1.4-1.3-1.4-2c-.2-1.6 1-2.2 1.7-2.5m-8.5-24.5q2.5-1.3 3.3 1.2c.7 1.7-.4 3-.4 3s-.8-1.6-2-.6c-.8.7-1.5 3.3-2.3 4-1.3 1.1-2.3 3.3-2.5 3.4 0 0-1-2.6.3-4.6.7-1.1 1.6-1 2-2.7.3-1.3.7-3.2 1.6-3.7M45 86c-9.2-7.4-9.9-11.6-10-12.1q0-1.5 1.5-1.7 1.4 0 1.7 1.3c0 .2.8 3.7 8.8 10.2 8.3 6.8 13.5 7.3 13.5 7.3q1.4.2 1.5 1.6-.2 1.4-1.7 1.5c-.2 0-6-.5-15.3-8m2-1.9A35 35 0 0 1 35.8 71q-.4-1.4.9-2 1.4-.4 2 .9s2 4.6 10.2 11.4a32 32 0 0 0 14.2 7.6 1.5 1.5 0 0 1-.4 3c-.2 0-6.5-.3-15.7-7.7" style="fill:#424242"/></svg>