<svg xml:space="preserve" width="16" height="16" viewBox="0 0 128 128"><path d="M116.5 4.1h-104a8 8 0 0 0-8 8v104a8 8 0 0 0 8 8h104a8 8 0 0 0 8-8v-104a8 8 0 0 0-8-8" style="fill:#f77e00"/><path d="M110.2 4.1H12a7.6 7.6 0 0 0-7.5 7.5v98c0 4 3.3 7.4 7.4 7.4h98.2c4.1 0 7.4-3.3 7.5-7.4v-98c0-4-3.2-7.4-7.2-7.5z" style="fill:#ff9800"/><path d="M40.2 13c0-2.3-1.6-3-10.8-2.7-7.7.3-11.5 1.2-13.8 4s-3 8.5-3 15.3c0 4.8 0 9.3 2.5 9.3 3.4 0 3.4-7.9 6.2-12.3C26.7 18 40.2 16 40.2 13" style="opacity:.75;fill:#ffbd52"/><path d="m107.5 62.1-40-25.7a2 2 0 0 0-3 2v22.3l-37-24.3c-1.4-.9-3 .2-3 2v51.4c0 1.8 1.7 3 3 2l37-24.4v22.3a2 2 0 0 0 3 2l40-25.6a2.4 2.4 0 0 0 0-4" style="fill:#fafafa"/><path d="M107.4 66.1 67.6 91.8q-.6.5-1.2.3H66l-.4-.3q-.5 0-.6-.5l-.2-.4-.3-1V67.3l-3 2-34 22.4q-.6.5-1.2.3h-.4l-.4-.3a3 3 0 0 1-1.1-2V38.3q0-1.6 1.5-2.2h.4q.6-.1 1.2.2l34 22.4 3 2V38.4q0-.6.3-1.2l.2-.4.6-.5.4-.2q.3-.2.4 0 .6-.1 1.2.2l39.8 25.8a2.4 2.4 0 0 1 0 4" style="opacity:.2;fill:#fff"/></svg>