<svg xml:space="preserve" width="16" height="16" viewBox="0 0 128 128"><path d="M43.5 5.3q0-1.5 1.8-1.5l38.2-.1c.6 0 1.3.6 1.2 1.4v12.8q0 1-1.3 1.4l-38.4.2c-.7 0-1.3-1-1.4-1.7zm5.2 13.4h4.8v5.2h-4.8zm26.5.2h4.5V24h-4.5z" style="fill:#546f7b"/><path d="M47.5 6.7h33.6v9.1H47.5z" style="fill:#c9c8c7"/><path d="M92.8 27.1 93 9.5c0-.7.5-1.3 1.4-1s2.6 1.2 5.4 2 6 2 6.3 2.4c.4.6-2 2.2-5.5 4l-4.8 2.8-.2 8.5-2.4.9z" style="fill:#2385f8"/><path d="M109.8 35.8V19.2c0-.9 1-1.3 1.7-1.1l4.6 2c2.2 1 6.1 2 6 2.7 0 1-3.2 2.3-5 3.5l-4.7 2.5v10.5z" style="fill:#4bc5fc"/><path d="M36 26.2v-18c0-.8-1.1-.8-2-.7-1 .2-2.5 1.4-4.8 1.9s-5.7.8-6.2 1.7c-.3.5 1.5 2.8 4 4l6.6 3.3v8.7z" style="fill:#2385f8"/><path d="m19.3 33.1-.1-15c0-.3-.7-.8-1.8-.4-1 .4-10.7 3.5-10.9 4.2-.3 1.3 5.1 3.2 6.4 3.8l3.8 1.7v8.3z" style="fill:#4bc5fc"/><path d="M5.2 53.9c-.7-6.7 7.2-33 58.3-32.5 54.2.5 59 29 58.7 32.3-.2 2.3-.6 24.1-.6 24.1s-57.7 18-57.7 17.5-52-17-52-17-6.1-19.4-6.7-24.4" style="fill:#ee3e23"/><path d="M62.6 21.4h3l.1 37.6-3-.1zm38.4 7L82.3 61.3l2.6 1 18.5-32.7zm21.3 25.8L99.5 70.9l.6 2.5 22-15.9zM26 27.9l16.6 34.4 1.7-2.4-15.9-33zM5.5 50l23.9 20.5-1.4 2L5.2 53.3v-1.7z" style="fill:#ae111f"/><path d="M25.4 78.3s-.3-3 .4-5.6c1.1-4.5 9.4-17.6 38.8-17.1 29 .5 37.6 12.6 37.7 18.9 0 6.3-3.4 6.2-3.4 6.2L62 90l-18.8-6z" style="fill:#b7d016"/><path d="M85.9 68q-.2-1.4-1.5-1.5H43.3q-1.4.2-1.5 1.5v16h3V69.6h17.8V86h2V69.5h18.3v14.4h3z" style="fill:#fff"/><path d="M5.4 50.5s-1 2-1 6.5v32.8l9 13.7 15.7 11 24.7 7.5h19.4l17.6-2.7 19.7-12.5L123 92l-.1-36.5c-.3-4.4-1.2-5.6-1.2-5.6s4.4 14.7-19 26.6a89 89 0 0 1-39 8c-24-.3-38.2-7.7-45-13.2C4.1 59.5 5.4 50.5 5.4 50.5" style="fill:#b0b0b0"/><path d="M4.5 93.7a51 51 0 0 0 21.7 21.5 80 80 0 0 0 75.5.7 54 54 0 0 0 21.5-22.7V87s-12.9 32.6-59 33a69 69 0 0 1-37.9-10c-15-9.2-21.8-22-21.8-22zm.2-29.3s10.4 26.2 59 26.5c46.2.3 59.2-24.5 59.2-24.5V61s-11.7 27.4-59.1 27C14 87.6 4.5 58.6 4.5 58.6z" style="fill:#858585"/><path d="M29.2 117c-.3-.6.3-24.2.3-25.3 0-1.5 1.2-4.2 5-3 3.5 1.2 4.2 4.6 4.2 6.5l.2 24c0 .5.2 1.8-.8 1.5l-4.8-1.6c-1.1-.5-3.8-1.7-4-2.2m-18.8-14.2V82c0-2.5 2-4.4 4.6-2.9q3.8 2.4 3.9 7.9l.1 22.8q.1.9-.8.4l-4.8-3.9c-1.4-1.3-3-3.5-3-3.5m78.4 18.7c-.7-.5-.4-23.3-.4-24.9s.5-6.5 5-7.3c5.1-.9 4.6 4.4 4.7 6.2 0 1.5.3 21.7.1 22.2 0 .2-2.4 1.3-4.6 2.2a27 27 0 0 1-4.8 1.6m19.6-10.5c-.4 0 0-21.8 0-24 .1-2.4 1.2-6.5 4.5-7.8 3.2-1.1 4.1.8 4.1 3.8l-.2 20c0 .3-1.4 1.7-3.2 3.6-2 2-5 4.5-5.2 4.5" style="fill:#2f2f2f"/><path d="M13.5 47.2c0 .7 3.5 3.8 4 3.7s3-2.8 3-3.3-3.6-3.7-3.8-3.7c-.6.1-3.1 2.8-3.2 3.3m16 5.3c0 .5 2.3 4.7 3.1 4.6 1 0 3.8-2.2 3.8-2.7S34 50 33.2 49.9c-.7 0-3.7 2-3.7 2.6M18.6 36c0 .4 2.5 4 3 4s3.2-2 3.3-2.6c0-.5-2.3-3.9-2.9-4s-3.4 1.9-3.4 2.6m18.9 2.6c0 .3 2 5.2 2.6 5.1.9 0 3.8-1 3.9-1.6 0-.5-2-5.4-2.3-5.4s-4.1 1.5-4.2 2m7.4-7.7c-.1.5 1 3.4 1.2 3.9q.4 1 2 .8c.8-.2 2.7-.9 2.8-1.6s-1.5-4.4-2-4.7-3.9.9-4 1.6m9.2 3.4c.4.2 4.4-.1 4.5-.4.4-.8 0-5.2-.5-5.6s-4.3 0-4.5.4c-.6 1.1-.1 5.2.5 5.6m-5 12.3c-.5.4 1 5 1.7 5.3.7.4 4-.9 4.3-1.3s-1.4-5-1.9-5.1c-.9-.3-3.5.5-4.1 1m21-14.4c-.9.6-.9 5.5-.4 6.3.3.6 4 .7 4.6.2.3-.3.8-5.7.5-6.2s-4-.8-4.7-.4m9.3-4.8a15 15 0 0 0-.8 6.2c.6.7 4 1 4.6.7s1.6-5.6 1.3-6.4c-.3-.7-4.4-1.2-5-.6m.8 20.1c-.7.2-2.5 5.7-2.4 6.2.3 1.2 4 2.2 4.7 1.7.4-.2 2.3-5.6 2.2-6s-3.8-2.2-4.5-2m25.4-9.1c-1.1.2-3.8 4.5-3.8 5.2s2.9 2.7 3.4 2.6 3.8-5.1 3.8-5.5-2.6-2.4-3.4-2.3m.1 16.4c-.9 0-4.9 4-4.9 4.6s2.3 2.8 3.1 3 4.9-4.2 5-5-2.4-2.6-3.2-2.6" style="fill:#ff7879"/><path d="M51.5 124c-.5-.4 0-16.6 0-19.3.2-3.3 2.4-11.8 12.5-12S77 102 77 105s.2 18.8-.2 19.3c-.2.3-5.3 1.1-13 1a42 42 0 0 1-12.3-1.2" style="fill:#2f2f2f"/></svg>