<svg xml:space="preserve" width="16" height="16" viewBox="0 0 128 128"><path d="M16.2 45.8h6.7v9.9h-6.7zM57 46.9h6.9v9.2H57z" style="fill:#5c6567"/><path d="M11 73.7h106.4v45.6H11z" style="fill:#e1e1e1"/><path d="M7 122.7q-.2 1.3 2.2 1.2l110.2-.2c.9 0 1.8-.7 1.8-1.9s.3-3.7-.1-4.7-3.9-2.3-3.9-2.3H10.7s-3 1.4-3.5 2.5-.2 4.4-.2 5.4" style="fill:#9a9a9a"/><path d="M46.5 74.9s-1.8.5-1.9 1.7v37.2c0 .5.3 1.4 1.5 1.4h36.4q1.1-.1 1.3-1.3V76.5c0-.8-1.2-1.5-2-1.6z" style="fill:#00c1ec"/><path d="M44.5 95.3h39.4v3.8H44.5z" style="fill:#178bfd"/><path d="M44.5 92.2h39.4v3.4H44.5z" style="fill:#00aa46"/><path d="M62.6 74.8h3.6v40.5h-3.6z" style="fill:#b0e4ff"/><path d="M64.7 59.7 6 72.1s.2 2.4 1.8 3.2c.8.5 3.2.3 3.2.3h109.2c.7 0 1.7-.8 1.8-1.9v-2z" style="fill:#016da7"/><path d="M6 72.1v-4.6l2.5-3.7L122.1 68v4z" style="fill:#178bfd"/><path d="M6 67.5v-6.8l55.3-3.6 60.8 3.6V68z" style="fill:#e1e1e1"/><path d="M6 60.8v-4c0-1.4.6-2.7 2.7-2.7h110.6c1.5 0 2.9.7 2.9 2v4.6z" style="fill:#02ab46"/><path d="M11.1 4.3h57q2.3.2 2.5 2.4v39.8a3 3 0 0 1-3 3H11.4A2.6 2.6 0 0 1 8.9 47L8.7 6.7q.2-2.2 2.4-2.4" style="fill:#ed6d30"/><path d="M22 21.6c.8-.4 2.6-3.5 5-3.3s2.4 3.3.4 5.8l-6.7 8.6c-3.1 4.3-3.1 8.3-2.7 9s1.8.5 5 .6 12.6 0 13-.3c.4-.4.2-4.7.2-5.2s-.7-1.5-1.5-1.5h-7.5l4.1-5.6c3.2-4.5 5.3-8.6 5-11.7-.6-5.2-4-8-10.4-7.2-5.4.7-8.9 6.6-8.6 7.3.6 1.4 3.8 4 4.6 3.6m38.5 7c0-.6-1.2-.6-2.1-.6h-2L56 10.8c0-1-1.3-1.6-2.9-1.5-1.4 0-2 0-3.2 1.5C49 12 38.6 28 37.8 29.5c-1.2 1.7-2.3 4.8 1 5.2 3.1.4 10.8 0 10.8 0v6q-.2 1 1.1 1.2h4.6q1 .2 1-1.6v-5.6h3.2c.7 0 .9-1.2.9-1.8zm-14.6-.3 3.7-6.1v6z" style="fill:#fff"/><path d="M89.1 79.3h23V97h-23zm-72.5.2h22.9v17.8H16.6z" style="fill:#a7d0d6"/></svg>