<svg xml:space="preserve" width="16" height="16" viewBox="0 0 128 128"><path d="M8 3.3c-2.7.8-3.6 3.4-3.3 6.2l14 112.1c.4 2.1 2.5 3 5 2.8 2.4-.2 4.4-2 4.2-4.2-.2-2.1-14.2-111.8-14.6-113.4S10.7 2.6 8 3.3" style="fill:#b0b0b0"/><path d="M22.4 117.1q-1.2 0-1.5-1.3L7.1 8.4q0-1.4 1.3-1.7 1.4 0 1.7 1.3l13.8 107.5q.1 1.3-1.3 1.6z" style="fill:#c8c8c8"/><path d="M21 73.6s.2 2.2.8 3.3c.5 1 2 .3 3-.7 1.3-1 7.3-5.3 16.7-7.5a121 121 0 0 0 35.3-13.2c12.8-8.4 16-15 21.9-22.3a47 47 0 0 1 15.2-13.8c5.6-3 8-3.5 8.7-3.5s1.8-2 0-2.8a96 96 0 0 0-14.2-1.7L24.3 59z" style="fill:#cc1935"/><path d="M12.7 8 21 73.5s4.3-5 13.6-8.3c10.7-3.8 25.3-6 32.6-9.8S84.5 44 91.1 36.2s11.2-14.4 18.1-19.4c5.9-4.1 13.5-3.7 13.5-3.7s-5.8-4.5-16.3-3.3c-12.2 1.2-27.8 10.7-34 9.6-11.7-2-13.4-10.3-25-12.8-18.3-4-34.7 1.3-34.7 1.3" style="fill:#fe2c23"/><path d="M25.5 53c1.6-.1 3.2-9.7 7.5-17s11-13.5 13.6-15.2 5.6-4 1.5-6.1-11.2-4-18.4-4c-7 0-8.8.8-9.2 1.6s1.7 23 2.4 28.2c.8 5.1 1.5 12.7 2.6 12.6m34.4-.6c.1.7 12-4.4 17.9-11.2C82.6 36 84.5 29.5 88.9 25l9-9s-13 1.6-20.3 10.1c-7.2 8.6-9.6 14.1-11.2 16.7s-6.6 9-6.5 9.8" style="fill:#ff5f5f"/></svg>