<svg xml:space="preserve" width="16" height="16" viewBox="0 0 128 128"><path d="M60.8 13.3c2.5-4 8.2-7.2 13-6.4 5.2.9 8 4.7 8.8 9.5q.4 2.7 0 4.7l-.4 1.6c-.2 1.3 2.3 2.6 2.6 4 .2 1-2 1.8-2.2 2-1 1 .5 5.5-5.7 6-2.4.2-1.9 0-2.6.3-1 .4-1 3.3-1 3.3s-.6 4.8-4.7 3.5c-4.6-1.4-4.8-4.7-4.8-4.7s1.7-4.6-1-9.4c-2.3-3.8-3.6-11.7-2-14.4" style="fill:#ffca28"/><path d="M82 31.2q-1.4.1-2.5-.7c-.8-.6-.2-1.2.7-.8q.8.3 2 .2z" style="fill:#795548"/><path d="M78.3 25.1q-1-.2-1-1.7.1-1.7 1.1-1.7 1 .2 1 1.7-.1 1.7-1.1 1.7" style="fill:#404040"/><path d="M79.2 20.8c1.2.3 1.4-.5 1-1s-1-.8-2.3-.4c-1.2.3-1.6 1-2 1.4q-.4.8 0 1c.5 0 2-1.3 3.3-1" style="fill:#6d4c41"/><path d="m42.7 108.7 14.1-16a6 6 0 0 0 1.5-3.7l1.4-22.4 15.5 1.7-5 23.2a16 16 0 0 1-5.8 9.4l-16.5 12.6z" style="fill:#616161"/><path d="m59.9 62.9 17.5 1.6L82 84.9q1.2 5.6.8 11.5l-1.6 23.2h-6.7l-3-25-5.1-13.4c-4-2-7.6-5-7.4-9.9q.1-4.2.9-8.4" style="fill:#7c7c7c"/><linearGradient id="a" x1="76.1" x2="58.9" y1="79.6" y2="67.6" gradientTransform="matrix(1 0 0 -1 0 130)" gradientUnits="userSpaceOnUse"><stop offset="0" style="stop-color:#f78c1f"/><stop offset=".5" style="stop-color:#f47f12"/><stop offset="1" style="stop-color:#ef6c00"/></linearGradient><path d="M63.1 73.5h12c2.2 0 4-2.2 4-4.8L77 46.2c-.5-4.2-2.5-8.1-4.6-9.6-2-1.4-4.9-1.7-4.9-1.7-1.5-.1-3.8.3-5.2 2.4-.9 1.3-1.5 3.7-1.7 5.9L59 68.7c0 2.6 1.8 4.8 4.1 4.8" style="fill:url(#a)"/><linearGradient id="b" x1="68.8" x2="72" y1="59.6" y2="78.3" gradientTransform="matrix(1 0 0 -1 0 130)" gradientUnits="userSpaceOnUse"><stop offset=".5" style="stop-color:#ffca28"/><stop offset="1" style="stop-color:#ffb300"/></linearGradient><path d="m61.2 60.3 2.3-13.8 7 1-2.2 13.3 3.5 9.8c.3.5 3.5 2 3.7 2q.8.5 1.4 2c.2.8.6 2.9-.4 3.2.4 1 .1 2.2-.1 2.5-.6.6-1.3.3-1.3.3s-.1.8-.8 1c-.8.4-1.4 0-1.4 0l-1 .3-1.1-.4c-.2 0-.7.4-1.4-.1-.4-.3-1.7-2-2.2-3.2-.2-.7-.2-4.5-.5-5.2l-5.2-10.2q-.6-1.2-.3-2.5" style="fill:url(#b)"/><linearGradient id="c" x1="74.7" x2="72.4" y1="46.8" y2="52.7" gradientTransform="matrix(1 0 0 -1 0 130)" gradientUnits="userSpaceOnUse"><stop offset=".5" style="stop-color:#ffca28"/><stop offset="1" style="stop-color:#ffb300"/></linearGradient><path d="M69.1 78.7q.3-.8.8-.5 1 .3 1.6-.6 0-.2.3-.2 1.2.5 1.7-.7 0-.4.6-.4c.1 0 .5.2.8-.2s-.1-1.3.4-1.4c.1 0 .9.1 1-.7.2-.5-.4-1-.4-1q.6.4 1 1.7c.1.7.6 2.8-.4 3.1.4 1 .1 2.2-.1 2.5-.6.6-1.4.3-1.4.3s0 .9-.7 1c-.8.4-1.4 0-1.4 0l-1 .3-1.1-.4c-.2 0-.8.4-1.4-.1a9 9 0 0 1-1.9-2.6c.5.4 1.5.4 1.6-.1" style="fill:url(#c)"/><path d="M73.4 124q-1 0-1.1-1.2V120c0-1.9 1.9-4 1.9-4h7l6.2 2a4 4 0 0 1 2.6 3.7v1.3q-.1.9-1 1z" style="fill:#4568ad"/><path d="M38.4 111.8q-.7-.7 0-1.6l2-2c1.3-1.3 4.2-1.5 4.2-1.5l4.9 5 3 5.9a4 4 0 0 1-.9 4.4l-.8.9a1 1 0 0 1-1.5 0z" style="fill:#325599"/><path d="M69.6 79.4q0 .7.3 1.2t.9.9q0-.7-.3-1.3zm2.1-.9q-.1 1 .2 1.7.3.8 1 1.4 0-.8-.3-1.7t-1-1.4m2.4-1q0 1 .2 1.7.2.8.8 1.5.1-1-.1-1.7-.2-.8-.9-1.5m.2-3.6.9.8.5 1q.2 1.1 1 2.2.2-1.3-.4-2.5-.3-.6-.8-1z" style="fill:#eda600"/><path d="m71.6 53-10.9-2 1.8-9.7a5.5 5.5 0 1 1 10.9 2z" style="fill:#ed6d23"/><path d="M57.3 13.5c1.4-3.3 4-4.3 5-4.5.3-1.2 2.4-5.8 10-4.5a11 11 0 0 1 4.3 2l1.4.8q.7.3 1.5.1c1.3-.4.9-2.2.9-2.2s4.4.9 2.5 5.2c1.5.6 2.2 2.2 2.4 3.7.4 2-.6 4-2.5 4.8 0 0 .4-3.2-4.4-3-1.4 0-3 .2-4.3-.3l-1.5-.8h-.2c-1.8 1 .6 5.2-1.4 7.6-.4.5-.7.3-.7.3l-.8-1.1q-.8-1.4-2-1.4c-2.1.5-1.7 4.5.9 5.4.3 0-.4 4.5-5.8 4.5-2.8 0-3.8-2.4-3.8-2.4s1.2.3 1.4-.7q.2-.8-1.2-2a5 5 0 0 1-1.2-5.7 7 7 0 0 1-.5-5.8" style="fill:#543930"/><radialGradient id="d" cx="-989.8" cy="678.7" r="1" gradientTransform="matrix(-6.68 2.466 3.552 9.622 -8958.8 -4064.29)" gradientUnits="userSpaceOnUse"><stop offset=".5" style="stop-color:#6d4c41;stop-opacity:0"/><stop offset="1" style="stop-color:#6d4c41"/></radialGradient><path d="M57.8 19.3c0-.1.8 2 4.4 1.6 1.4 0 3.5 3.6 1.3 6-1.9 2-4.7.8-4.7.8h1l.4-.7q.2-.8-1.2-2a5 5 0 0 1-1.2-5.7" style="fill:url(#d)"/><radialGradient id="e" cx="-1026.7" cy="643.5" r="1" gradientTransform="rotate(7.7 47022.29 -51482.04)scale(-7.219 9.11)" gradientUnits="userSpaceOnUse"><stop offset=".5" style="stop-color:#6d4c41;stop-opacity:0"/><stop offset="1" style="stop-color:#6d4c41"/></radialGradient><path d="M57.3 13.5a8 8 0 0 1 5-4.5 4 4 0 0 0 0 2.4s.5 1.3 1.6 2.3a12 12 0 0 0-1.6 3.8c-.3 1.1-.7 2.4-.1 3.5q-1.1.2-3-.4-1.7-1.1-2.1-3.1t.2-4" style="fill:url(#e)"/><radialGradient id="f" cx="-959.4" cy="634.7" r="1" gradientTransform="rotate(8.8 53008.33 -88365.16)scale(-14.858 11.168)" gradientUnits="userSpaceOnUse"><stop offset=".5" style="stop-color:#6d4c41;stop-opacity:0"/><stop offset="1" style="stop-color:#6d4c41"/></radialGradient><path d="M62.4 11.4c-.9-2.2.4-4.3 2.2-5.6 2.2-1.6 5-1.8 7.6-1.3a11 11 0 0 1 4.4 2l1.4.8q.7.3 1.5.1c1.3-.4.9-2.2.9-2.2s4.4.9 2.5 5.2c1.5.6 2.2 2.2 2.4 3.7.4 2-.6 4-2.5 4.8 0 0 .4-3.2-4.4-3-1.4 0-3 .2-4.3-.3s-1.6-1.1-3-1c-1.4 0-3.3.6-4.8.3-3-.4-3.9-3.4-4-3.5" style="fill:url(#f)"/><radialGradient id="g" cx="-988.8" cy="737.4" r="1" gradientTransform="matrix(-7.752 1.97 1.267 4.984 -8536.6 -1701.6)" gradientUnits="userSpaceOnUse"><stop offset=".5" style="stop-color:#6d4c41;stop-opacity:0"/><stop offset="1" style="stop-color:#6d4c41"/></radialGradient><path d="M63.5 26.9c1-1 1.3-2.7 2.8-3.6q.5 1.6 2.1 2.2c.3.1-.3 4.6-5.8 4.6-2.8 0-3.8-2.4-3.8-2.4s2.8 1.3 4.7-.8" style="fill:url(#g)"/></svg>