<svg xml:space="preserve" width="16" height="16" viewBox="0 0 128 128"><linearGradient id="a" x1="53" x2="53" y1="93.9" y2="121.9" gradientTransform="translate(0 2)" gradientUnits="userSpaceOnUse"><stop offset="0" style="stop-color:#616161"/><stop offset=".3" style="stop-color:#545454"/><stop offset=".8" style="stop-color:#323232"/><stop offset="1" style="stop-color:#212121"/></linearGradient><path d="M50.1 95.9H50c-18.2 0-36.8 3.6-46 12v16h98v-3c0-16.9-26-25-51.9-25" style="fill:url(#a)"/><path d="M84 110.2c-.3 0-5.2 3-12 5.5a75 75 0 0 1-56-5.9c-2.6-1.3-5.5-3.9-7.1-5.3l-2 1.2c1.3 1.2 3.7 3.4 7.5 5.6A25 25 0 0 0 8.8 124h2c.4-2 1.6-7.7 5.4-11.6q3.9 2.3 9.5 4.2c-2.1 3.3-2.4 6.5-2.5 7.4h2c0-.9.4-3.9 2.4-6.8a82 82 0 0 0 44.8.7 14 14 0 0 1 2 6.1h2c0-.8-.3-3.7-2-6.8q5.5-2 9.4-4.4a25 25 0 0 1 5 11.2h2c-.3-2-1.4-7.8-5.3-12.3 3.6-2.3 5.9-4.6 7-5.9l-1.7-1a36 36 0 0 1-6.8 5.5" style="opacity:.19;fill:#fff"/><path d="M50 90h-9v10c0 4.6 3.6 8.2 8.2 8.2h1.6c4.6 0 8.3-3.6 8.3-8.1V90zm27.3-39.6H22.7c-6 0-10.7 5.2-10.7 11.4s4.8 11.5 10.7 11.5h54.6c6 0 10.7-5.2 10.7-11.5s-4.8-11.4-10.7-11.4" style="fill:#c48e6a"/><path d="M50 11c-17.4 0-33.5 18.7-33.5 45.5C16.5 83 33 96.3 50 96.3S83.5 83 83.5 56.5C83.5 29.7 67.5 11 50 11" style="fill:#e0bb95"/><ellipse cx="33.6" cy="58.8" rx="4.9" ry="5.1" style="fill:#5d4037"/><ellipse cx="66.4" cy="58.8" rx="4.9" ry="5.1" style="fill:#5d4037"/><path d="M57.8 77.9H42.2c-3.3 0-2.7 2-1 2.6 2.4 1 6 1.4 8.8 1.4s6.4-.3 8.9-1.4c1.6-.7 2.2-2.6-1.1-2.6" style="fill:#6d4c41"/><path d="M53.9 68H46q-1 .5-.7 1.7a5.3 5.3 0 0 0 9.2 0q.4-1.2-.7-1.6" style="fill:#c48e6a"/><path d="M50 118.2s6.1-3.3 10.5-10.2c-3.8-1-10.9-2.6-10.5-2.1l-10.5 2.3c4.3 6.7 10.5 10 10.5 10" style="fill:#d8d8d8"/><linearGradient id="b" x1="42.7" x2="42.7" y1="103.6" y2="94.9" gradientTransform="translate(0 2)" gradientUnits="userSpaceOnUse"><stop offset="0" style="stop-color:#fff"/><stop offset="1" style="stop-color:#bdbdbd"/></linearGradient><path d="m41 96.2-5.5.5c.6 7.1 4.1 12.4 7.5 16l7-6.8a27 27 0 0 1-9-9.7" style="fill:url(#b)"/><linearGradient id="c" x1="57.2" x2="57.2" y1="103.6" y2="94.9" gradientTransform="translate(0 2)" gradientUnits="userSpaceOnUse"><stop offset="0" style="stop-color:#fff"/><stop offset="1" style="stop-color:#bdbdbd"/></linearGradient><path d="M59 96.2c-.6 1.3-2.7 5-9 9.7l7 6.7c3.2-3.5 6.6-8.7 7.5-15.8z" style="fill:url(#c)"/><path d="m99.2 119.5 4.6-24.9v-.8l-.7-8.9c-.1-2.3 1.7-2.6 4-2.4s4 1 3.4 3.2l-2.5 8.5-.1.8-.6 25.2zm7.2-43.6 2.3.2a3 3 0 0 1 2.8 3.5v.5c-.2 1.7-1.7 3-3.5 2.8l-2.3-.2c-1.7-.2-3-1.7-2.8-3.5v-.5c.3-1.7 1.8-3 3.5-2.8" style="fill:#dd8a3e"/><path d="M103.1 57.1h12.4v23.6h-12.4z" style="fill:#995f33" transform="rotate(-84.1 109.28 68.96)"/><path d="m112.4 76.9-9.6-1a2.5 2.5 0 0 1-2.2-2.8l1-10.1a2.5 2.5 0 0 1 2.8-2.2l9.6 1c1.4 0 2.4 1.3 2.2 2.7l-1 10.1a2.5 2.5 0 0 1-2.8 2.3m-13-9c.5-5.8.6-8-1.7-8.2s-4.4 3.1-4.8 7.5 1 8.1 3.2 8.4 2.7-2 3.3-7.7m18 1.9c.6-5.8 1-8 3.3-7.7s3.7 4 3.2 8.3-2.6 7.8-4.9 7.5-2.2-2.4-1.6-8.2" style="fill:#dd8a3e"/><radialGradient id="d" cx="35.5" cy="-9" r="19.3" gradientTransform="rotate(-92 123.86 25.98)scale(1 1.057)" gradientUnits="userSpaceOnUse"><stop offset=".3" style="stop-color:#e0bb95"/><stop offset="1" style="stop-color:#cca47a"/></radialGradient><path d="M101.2 103.6q-1.6.2-3.1.8c-1.4.7-8-1.3-8.4 5.1 0 1.8-.2 7.3 1.3 10 3 5.8 14.8 4.4 15.7 4.5 5.6.9 3.1-17.1 0-19.4l-1.6-1c-1.1-.5-2.9-.2-4 0" style="fill:url(#d)"/><radialGradient id="e" cx="117.3" cy="112.4" r="14.1" gradientTransform="rotate(-20.6 111.27 120)" gradientUnits="userSpaceOnUse"><stop offset="0" style="stop-color:#cca47a"/><stop offset="1" style="stop-color:#e0bb95"/></radialGradient><path d="m109 120.2-6.3-.2q-1.3.1-1.6 1.3-.2 1.3 1.3 1.8l6.2.9c1 .2 2-.5 2-1.5l.1-.5q0-1.6-1.7-1.8" style="fill:url(#e)"/><radialGradient id="f" cx="112" cy="99.9" r="14.1" gradientTransform="matrix(1.015 .168 -.167 .986 13.55 -13.82)" gradientUnits="userSpaceOnUse"><stop offset="0" style="stop-color:#cca47a"/><stop offset="1" style="stop-color:#e0bb95"/></radialGradient><path d="M89.7 113.8s1.3 1 3.2 1.7c6 2.4 6.7-5 6.8-6 .8-5.8 5.9-4.5 10.2-4.8.9 0 4-.6 4.8-2.6.9-3.4-2.6-3.3-9.9-3.8l-6 .2c-9.3 1.4-9.4 11-9 15.3" style="fill:url(#f)"/><radialGradient id="g" cx="118.3" cy="110.8" r="16.1" gradientTransform="rotate(-3.8 133.2 117.51)" gradientUnits="userSpaceOnUse"><stop offset="0" style="stop-color:#cca47a"/><stop offset="1" style="stop-color:#e0bb95"/></radialGradient><path d="m111 110-9 .7c-1.3 0-1.3 1-1.4 2.1 0 1.3 0 2.4 1.4 2.5l9.1.4c1.6 0 2.9-1.1 2.8-2.6v-.7c0-1.5-1.4-2.7-3-2.5" style="fill:url(#g)"/><radialGradient id="h" cx="118.8" cy="110" r="15.4" gradientTransform="rotate(4.4 87.98 91.98)" gradientUnits="userSpaceOnUse"><stop offset="0" style="stop-color:#cca47a"/><stop offset="1" style="stop-color:#e0bb95"/></radialGradient><path d="m110.9 104.6-7.8 1q-1.9.4-2 2.2.2 2 2.3 2.2h7.9c1.4 0 2.6-1.1 2.5-2.5v-.7a2.5 2.5 0 0 0-3-2.2" style="fill:url(#h)"/><radialGradient id="i" cx="117.4" cy="111" r="15.4" gradientTransform="rotate(-13 116.07 116.1)" gradientUnits="userSpaceOnUse"><stop offset="0" style="stop-color:#cca47a"/><stop offset="1" style="stop-color:#e0bb95"/></radialGradient><path d="m110.2 115.4-7.2.4a2 2 0 0 0-2 1.8q0 1.8 2 2.2l7 .7c1.4.1 2.6-.9 2.6-2.2v-.6q-.1-2.3-2.4-2.3" style="fill:url(#i)"/><path d="M111.3 115.7c.1-1-8 0-9-.8a2 2 0 0 1 .4-3.5c1.5-.7 9.2-1 9.2-1.4 0-.8-10 1.6-10-2-.1-2.3 2.2-2.3 3.8-2.6 1-.1 5.1-.4 5.1-.7s-1-.2-1.1-.2c-.8-.1-5.6.3-7 .6-2 .5-2.6 1.7-2.6 2.6 0 1.1-.4 2.6-.7 3.6-.8 2.2-3.4 4.3-3.5 4.5-.1.4 1.7-.5 2.8-1.7.7-.7 1.6-.4 1.8.5l.2 1.4c0 .5 0 3.5-.2 4.5v1.2l.5.9c.9 1.2 2.5 1.3 3.9 1.3.8 0 4 .4 4.8 0-1.8 0-8.1.1-7.9-2.3.2-1.4 1.5-1 2.4-1 1 .2 3 .2 4 0l1.9-.1c0-.4-3.2-.4-3.6-.4-1.3 0-4 .2-4.7-1.4q-.3-1 .3-1.8c.9-1.1 9.2-.7 9.2-1.2" style="fill:#ba8f63"/><path d="M26 50.7c3-4.2 9.8-4.6 13.7-1.5q1.1.8 1.6 2c.5 1.3-.8 2.3-2 2l-2.2-.9a11 11 0 0 0-3.6-.5c-1.8 0-3 .2-4.7 1-.7.2-1.3.7-2 .3-1-.4-1.4-1.5-.8-2.4m46 2.4-.8-.4c-1.8-.7-2.8-1-4.7-.9-1.7 0-2.7.2-4 .7-.9.3-1.9 1-2.8.7-1.3-.4-1.3-1.8-.6-2.8q1.4-1.6 3.3-2.4c3-1.3 6.5-1 9.2.6q1.5.8 2.4 2.1c.8 1.3-.4 3-2 2.4M50 4c-45.4.3-36.1 52.2-36.1 52.2l3 7.7c0 .4.6.3.6 0a309 309 0 0 1 6.3-24.4 6 6 0 0 1 6.8-3.8 111 111 0 0 0 19.3 1.8h.1c8 0 15-1 19.5-1.8a6 6 0 0 1 6.7 3.8c1.8 4.7 5.3 20 6.2 24.4q.3.5.8 0l3-7.7S95.4 4.3 50 4.1" style="fill:#ab872f"/><radialGradient id="j" cx="50" cy="45.3" r="38.1" gradientTransform="matrix(1 0 0 1.128 0 -3.92)" gradientUnits="userSpaceOnUse"><stop offset=".8" style="stop-color:#bfa055;stop-opacity:0"/><stop offset="1" style="stop-color:#bfa055"/></radialGradient><path d="M86.2 56.2S95.5 4.3 50 4.1l-6 .4h-.3C5.5 9.3 13.9 56.2 13.9 56.2l3 7.7c0 .3.6.3.6 0 1-4.4 4.5-19.7 6.3-24.4a6 6 0 0 1 6.8-3.8 111 111 0 0 0 19.3 1.8h.1c8 0 15-1 19.5-1.8a6 6 0 0 1 6.7 3.8c1.8 4.7 5.3 20 6.3 24.4 0 .4.5.4.7 0z" style="fill:url(#j)"/></svg>