<svg xml:space="preserve" width="16" height="16" viewBox="0 0 128 128"><path d="M64.6 4.1c-41 0-40.7 38-40.7 38.5 0 24.6 1.9 59.3 11.7 73 3.9 5.4 11.4 5.7 11.4 5.7h34s7.5-.3 11.4-5.7c9.8-13.7 11.7-48.4 11.7-73 0-.6 1.5-38.5-39.5-38.5" style="fill:#ab872f"/><radialGradient id="a" cx="64" cy="68.3" r="47.5" gradientTransform="matrix(1 0 0 -1.19 0 140.98)" gradientUnits="userSpaceOnUse"><stop offset=".8" style="stop-color:#bfa055;stop-opacity:0"/><stop offset="1" style="stop-color:#bfa055"/></radialGradient><path d="M64.6 4.1c-41 0-40.7 38-40.7 38.5 0 24.6 1.9 59.3 11.7 73 3.9 5.4 11.4 5.7 11.4 5.7h34s7.5-.3 11.4-5.7c9.8-13.7 11.7-48.4 11.7-73 0-.6 1.5-38.5-39.5-38.5" style="fill:url(#a)"/><linearGradient id="b" x1="64" x2="64" y1="100.5" y2="4.6" gradientTransform="matrix(1 0 0 -1 0 128)" gradientUnits="userSpaceOnUse"><stop offset="0" style="stop-color:#651fff"/><stop offset=".7" style="stop-color:#5914f2"/><stop offset="1" style="stop-color:#530eeb"/></linearGradient><path d="M108 124S96.5 95 96.2 95.6c-1.8 4.3-3.8 7.4-11.7 4.8a59 59 0 0 0-20.2-2.5h-.6c-8.3 0-13.8.4-20.1 2.5-8 2.6-10-.5-11.8-4.8C31.5 95 20 124 20 124z" style="fill:url(#b)"/><path d="M55 90v10c0 4.6 3.6 8.2 8.2 8.2h1.6c4.6 0 8.3-3.6 8.3-8.1V90z" style="fill:#c48e6a"/><path d="M64 16c-17.2 0-33.1 12.8-33.1 40A40 40 0 0 0 56 94.8a24 24 0 0 0 7.9 1.5q3.6 0 7.8-1.5A40 40 0 0 0 97.1 56c0-27.2-15.9-40-33.1-40" style="fill:#e0bb95"/><path d="M67.9 68H60q-1 .5-.6 1.7c.3.7 1.7 2.7 4.5 2.7s4.3-2 4.6-2.7q.3-1.2-.7-1.6" style="fill:#c48e6a"/><path d="M72.4 76.1a26 26 0 0 1-16.8 0c-1.8-1-3.7.6-3 2.3s6.5 5.4 11.4 5.4 10.6-3.8 11.3-5.4-1-3.4-2.9-2.3" style="fill:#6d4c41"/><ellipse cx="47.6" cy="58.8" rx="4.9" ry="5.1" style="fill:#5d4037"/><ellipse cx="80.4" cy="58.8" rx="4.9" ry="5.1" style="fill:#5d4037"/><path d="M55 49.8c-1-1.2-3-3-7.2-3s-6.3 1.8-7.3 3q-.5 1 0 1.6t2 .4c1.4-.2 2.4-1.2 5.3-1.2 2.8 0 4.5.9 5.3 1.2q1.4.3 2-.4.4-.6-.1-1.6m32.5 0c-1-1.2-3-3-7.2-3s-6.4 1.8-7.3 3q-.5 1 0 1.6t1.9.4c1.4-.2 2.5-1.2 5.4-1.2 2.8 0 4.4.9 5.3 1.2q1.4.3 1.9-.4t0-1.6M64.6 4.1c-41 0-40.7 38-40.7 38.5 0 7.8.2 16.6.7 25.4h6.8c-.1-3 2-21 8-22.4 22.4-5 35-16.9 35-16.9C77.7 36 88 43 91.7 45.6c3 2.2 4 18.5 4 22.4h7.6v-.2c.6-8.8.8-17.5.8-25.2 0-.6 1.5-38.5-39.5-38.5" style="fill:#ab872f"/><radialGradient id="c" cx="64.3" cy="64.3" r="49.8" gradientTransform="matrix(1 0 0 -1.214 0 141.73)" gradientUnits="userSpaceOnUse"><stop offset=".8" style="stop-color:#bfa055;stop-opacity:0"/><stop offset="1" style="stop-color:#bfa055"/></radialGradient><path d="M64.6 4.1c-41 0-40.7 38-40.7 38.5 0 7.8.2 16.6.7 25.4h6.8c-.1-3 2-21 8-22.4 22.4-5 35-16.9 35-16.9C77.7 36 88 43 91.7 45.6c3 2.2 4 18.5 4 22.4h7.6v-.2c.6-8.8.8-17.5.8-25.2 0-.6 1.5-38.5-39.5-38.5" style="fill:url(#c)"/><linearGradient id="d" x1="183.2" x2="142.9" y1="108.2" y2="108.2" gradientTransform="matrix(1 0 0 -1 -117.67 128)" gradientUnits="userSpaceOnUse"><stop offset=".6" style="stop-color:#e0bb95"/><stop offset="1" style="stop-color:#cca47a"/></linearGradient><path d="M29.3 16.5c2.9-3.2 8-6.2 13.5-8.3 8.6-3.3 11.7-4 16.5-4q3.5-.1 2.9 1.7c-.4 1.4-1.5 2.6-4.5 2.7-4.4.4-7 2-11.2 4.4-2 1-3.5 5.7-5.6 7.2a22 22 0 0 0-8 14c-.3 2.4-10.8 1.2-11-3.6 0-1.4 2.2-8.2 7.4-14.1" style="fill:url(#d)"/><linearGradient id="e" x1="21.1" x2="21.1" y1="105.6" y2="4.6" gradientTransform="matrix(1 0 0 -1 0 128)" gradientUnits="userSpaceOnUse"><stop offset="0" style="stop-color:#651fff"/><stop offset=".7" style="stop-color:#5914f2"/><stop offset="1" style="stop-color:#530eeb"/></linearGradient><path d="M37.8 29.1q.6-1.7-1-2.9l-11.4-6-.8-.2q-1.5.1-2 1.4L6 64.2a18 18 0 0 0-1.5 10.3s9.1 46.2 10.3 49.5h22.5s-4.5-21.4-4-21.2l-.6-4.8c-7.3-20-7.3-26.7-6.7-29z" style="fill:url(#e)"/><linearGradient id="f" x1="147.1" x2="106.8" y1="108.2" y2="108.2" gradientTransform="matrix(-1 0 0 -1 212.89 128)" gradientUnits="userSpaceOnUse"><stop offset=".6" style="stop-color:#e0bb95"/><stop offset="1" style="stop-color:#cca47a"/></linearGradient><path d="M98.7 16.5c-2.9-3.2-8-6.2-13.5-8.3-8.6-3.3-11.7-4-16.5-4q-3.5-.1-2.9 1.7c.4 1.4 1.5 2.6 4.5 2.7 4.4.4 7 2 11.2 4.4 2 1 3.5 5.7 5.6 7.2 1.9 1.4 6.6 6 8 14 .3 2.4 10.8 1.2 11-3.6a30 30 0 0 0-7.4-14.1" style="fill:url(#f)"/><linearGradient id="g" x1="106.9" x2="106.9" y1="105.6" y2="4.6" gradientTransform="matrix(1 0 0 -1 0 128)" gradientUnits="userSpaceOnUse"><stop offset="0" style="stop-color:#651fff"/><stop offset=".7" style="stop-color:#5914f2"/><stop offset="1" style="stop-color:#530eeb"/></linearGradient><path d="m122 64.2-16.5-42.8a2 2 0 0 0-2-1.4l-1 .2-11.3 6c-1.2.7-1.3 2-1 3l11.7 39.7c.7 2.4.7 9-6.5 29.1l-.6 4.8c.4-.2-4.1 21.2-4.1 21.2h22.6c1-3.3 10.2-49.5 10.2-49.5a18 18 0 0 0-1.5-10.3" style="fill:url(#g)"/></svg>