<svg xml:space="preserve" width="16" height="16" viewBox="0 0 128 128"><radialGradient id="a" cx="63.6" cy="-62.1" r="57" gradientTransform="translate(0 124.96)" gradientUnits="userSpaceOnUse"><stop offset=".5" style="stop-color:#fde030"/><stop offset=".9" style="stop-color:#f7c02b"/><stop offset="1" style="stop-color:#f4a223"/></radialGradient><path d="M63.6 118.8c-27.9 0-58-17.5-58-55.9S35.7 7 63.6 7c15.5 0 29.8 5.1 40.4 14.4 11.5 10.2 17.6 24.6 17.6 41.5s-6.1 31.2-17.6 41.4a61 61 0 0 1-40.4 14.5" style="fill:url(#a)"/><path d="M63 91.6c-9 0-17.7-3.7-23.8-10.5q-.7-.8-.3-1.9.5-1 1.7-1 .5 0 .9.2A45 45 0 0 0 63 84.6h.1c8.7 0 16.7-3.5 21.6-6.2q.4-.3.9-.3a1.8 1.8 0 0 1 1.3 3 32 32 0 0 1-23.8 10.5M44 41c-4.2 0-8 3.5-8 9.4s3.8 9.4 8 9.4 8-3.6 8-9.4-3.8-9.5-8-9.5" style="fill:#422b0d"/><path d="M43.7 44.9a3 3 0 0 0-3.9 1.3q-.7 1.8.6 3.3a3 3 0 0 0 3.9-1.3 3 3 0 0 0-.6-3.3" style="fill:#896024"/><path d="M82.4 41c-4.2 0-8 3.5-8 9.4s3.8 9.4 8 9.4 8-3.6 8-9.4-3.8-9.5-8-9.5" style="fill:#422b0d"/><path d="M82 44.9a3 3 0 0 0-3.8 1.3q-.7 1.8.6 3.3c1.4.7 3.1 0 3.8-1.3.5-1.1.3-2.5-.6-3.3" style="fill:#896024"/><radialGradient id="b" cx="37.8" cy="-769.2" r="26.4" gradientTransform="matrix(1 0 0 -1.54 0 -1115.13)" gradientUnits="userSpaceOnUse"><stop offset=".5" style="stop-color:#29b6f6"/><stop offset="1" style="stop-color:#1e88e5"/></radialGradient><path d="M37 104.5c-6.5 0-11.5-6.3-11.5-11.7 0-3.8 1.7-8.2 4.1-14.3l1.1-2.8q2.1-5.5 4.8-10.6.7-1.1 1.9-.7.5.3.7.7L43 75.9c4.2 9.4 5.4 13.2 5.4 17 .1 5.3-5 11.6-11.4 11.6" style="fill:url(#b)"/><path d="M44 97.3c-1.5 2.3-4.8 1.8-4.8-2 0-2.3.5-14.7 2.6-13 3.4 2.8 4.3 11.8 2.2 15" style="fill:#81d4fa"/><path d="M111.5 29.7a57 57 0 0 1 8.1 30.2c0 16.9-6.1 31.2-17.6 41.4a61 61 0 0 1-40.4 14.5 59 59 0 0 1-48.2-23 58 58 0 0 0 50.2 26c15.4 0 29.8-5.2 40.4-14.5a54 54 0 0 0 17.6-41.4q-.1-19.2-10.1-33.2" style="fill:#eb8f00"/></svg>