<svg xml:space="preserve" width="16" height="16" viewBox="0 0 128 128"><path d="M50.5 27c-.3-7.4-4.6-11.8.1-17.5C53.7 5.8 60 7.3 61 8.8c2.1 2.7-1.5 5.3-2.3 6.7-1.2 2 1 10.4-2.7 16.3-5 8.1-10 6.9-10 6.9S50.6 34 50.4 27" style="fill:#543930"/><radialGradient id="a" cx="-964.8" cy="627.8" r="1" gradientTransform="rotate(6.4 97739.01 -110508.95)scale(-13.503 16.326)" gradientUnits="userSpaceOnUse"><stop offset=".5" style="stop-color:#6d4c41;stop-opacity:0"/><stop offset="1" style="stop-color:#6d4c41"/></radialGradient><path d="M50 23.6c-1-5.5-3.3-9.4.6-14.1C53.7 5.8 60 7.3 61 8.8c2.1 2.7-1.5 5.3-2.3 6.7-1.2 2-8.7 8-8.7 8" style="fill:url(#a)"/><radialGradient id="b" cx="-828.3" cy="587.2" r="1" gradientTransform="rotate(189.8 5557.7 5756.12)scale(-14.44 17.815)" gradientUnits="userSpaceOnUse"><stop offset="0" style="stop-color:#6d4c41"/><stop offset=".5" style="stop-color:#6d4c41;stop-opacity:0"/></radialGradient><path d="M50.5 27a27 27 0 0 0-.9-5.4c-.4-1.6-.8-3 .2-4.4a7 7 0 0 1 7.5-2.3q1.3.3 1.2 1.5l-.2 1.7v4.1c0 3.3-.5 6.8-2.3 9.6-5 8.1-10 6.8-10 6.8s4.7-4.5 4.5-11.6" style="fill:url(#b)"/><radialGradient id="c" cx="-773.3" cy="592.6" r="1" gradientTransform="rotate(10 -88696.3 27849.1)scale(7.918 -25.257)" gradientUnits="userSpaceOnUse"><stop offset=".5" style="stop-color:#6d4c41;stop-opacity:0"/><stop offset="1" style="stop-color:#6d4c41"/></radialGradient><path d="M50.7 37.5s5.8-3.4 7-10.3q.8-4.2.6-6.5c0-1.4-1-5.8.2-7.3" style="fill:url(#c)"/><path d="M60.8 13.3c2.5-4 8.2-7.2 13-6.4 5.2.9 8 4.7 8.8 9.5q.4 2.7 0 4.7l-.4 1.6c-.2 1.3 2.3 2.6 2.6 4 .2 1-2 1.8-2.2 2-1 1 .5 5.5-5.7 6-2.4.2-1.9 0-2.6.3-1 .4-1 3.3-1 3.3s-.6 4.8-4.7 3.5c-4.6-1.4-4.8-4.7-4.8-4.7s1.7-4.6-1-9.4c-2.3-3.8-3.6-11.7-2-14.4" style="fill:#ba8d68"/><path d="M82 31.2q-1.4.1-2.5-.7c-.8-.6-.2-1.2.7-.8q.8.3 2 .2z" style="fill:#5d4037"/><path d="M78.3 25.1q-1-.2-1-1.7.1-1.7 1.1-1.7 1 .2 1 1.7-.1 1.7-1.1 1.7" style="fill:#49362e"/><path d="M79.2 20.8c1.2.3 1.4-.5 1-1s-1-.8-2.3-.4c-1.2.3-1.6 1-2 1.4q-.4.8 0 1c.5 0 2-1.3 3.3-1" style="fill:#613e31"/><path d="m42.7 108.7 14.1-16a6 6 0 0 0 1.5-3.7l1.4-22.4 15.5 1.7-5 23.2a16 16 0 0 1-5.8 9.4l-16.5 12.6z" style="fill:#616161"/><path d="m59.9 62.9 17.5 1.6L82 84.9q1.2 5.6.8 11.5l-1.6 23.2h-6.7l-3-25-5.1-13.4c-4-2-7.6-5-7.4-9.9q.1-4.2.9-8.4" style="fill:#7c7c7c"/><linearGradient id="d" x1="76.1" x2="58.9" y1="79.6" y2="67.6" gradientTransform="matrix(1 0 0 -1 0 130)" gradientUnits="userSpaceOnUse"><stop offset="0" style="stop-color:#651fff"/><stop offset=".7" style="stop-color:#5914f2"/><stop offset="1" style="stop-color:#530eeb"/></linearGradient><path d="M63.1 73.5h12c2.2 0 4-2.2 4-4.8L77 46.2c-.5-4.2-2.5-8.1-4.6-9.6-2-1.4-4.9-1.7-4.9-1.7-1.5-.1-3.8.3-5.2 2.4-.9 1.3-1.5 3.7-1.7 5.9L59 68.7c0 2.6 1.8 4.8 4.1 4.8" style="fill:url(#d)"/><linearGradient id="e" x1="68.8" x2="72" y1="59.6" y2="78.3" gradientTransform="matrix(1 0 0 -1 0 130)" gradientUnits="userSpaceOnUse"><stop offset=".5" style="stop-color:#ba8d68"/><stop offset="1" style="stop-color:#a47b62"/></linearGradient><path d="m61.2 60.3 2.3-13.8 7 1-2.2 13.3 3.5 9.8c.3.5 3.5 2 3.7 2q.8.5 1.4 2c.2.8.6 2.9-.4 3.2.4 1 .1 2.2-.1 2.5-.6.6-1.3.3-1.3.3s-.1.8-.8 1c-.8.4-1.4 0-1.4 0l-1 .3-1.1-.4c-.2 0-.7.4-1.4-.1-.4-.3-1.7-2-2.2-3.2-.2-.7-.2-4.5-.5-5.2l-5.2-10.2q-.6-1.2-.3-2.5" style="fill:url(#e)"/><linearGradient id="f" x1="74.7" x2="72.4" y1="46.8" y2="52.7" gradientTransform="matrix(1 0 0 -1 0 130)" gradientUnits="userSpaceOnUse"><stop offset=".5" style="stop-color:#ba8d68"/><stop offset="1" style="stop-color:#a47b62"/></linearGradient><path d="M69.1 78.7q.3-.8.8-.5 1 .3 1.6-.6 0-.2.3-.2 1.2.5 1.7-.7 0-.4.6-.4c.1 0 .5.2.8-.2s-.1-1.3.4-1.4c.1 0 .9.1 1-.7.2-.5-.4-1-.4-1q.6.4 1 1.7c.1.7.6 2.8-.4 3.1.4 1 .1 2.2-.1 2.5-.6.6-1.4.3-1.4.3s0 .9-.7 1c-.8.4-1.4 0-1.4 0l-1 .3-1.1-.4c-.2 0-.8.4-1.4-.1a9 9 0 0 1-1.9-2.6c.5.4 1.5.4 1.6-.1" style="fill:url(#f)"/><path d="M73.4 124q-1 0-1.1-1.2V120c0-1.9 1.9-4 1.9-4h7l6.2 2a4 4 0 0 1 2.6 3.7v1.3q-.1.9-1 1z" style="fill:#4568ad"/><path d="M38.4 111.8q-.7-.7 0-1.6l2-2c1.3-1.3 4.2-1.5 4.2-1.5l4.9 5 3 5.9a4 4 0 0 1-.9 4.4l-.8.9a1 1 0 0 1-1.5 0z" style="fill:#325599"/><path d="M69.6 79.4q0 .7.3 1.2t.9.9q0-.7-.3-1.3zm2.1-.9q-.1 1 .2 1.7.3.8 1 1.4 0-.8-.3-1.7t-1-1.4m2.4-1q0 1 .2 1.7.2.8.8 1.5.1-1-.1-1.7-.2-.8-.9-1.5m.2-3.6.9.8.5 1q.2 1.1 1 2.2.2-1.3-.4-2.5-.3-.6-.8-1z" style="fill:#91674d"/><path d="m71.6 53-10.9-2 1.8-9.7a5.5 5.5 0 1 1 10.9 2z" style="fill:#3615af"/><path d="M60.3 10.2a14 14 0 0 1 10.2-4.8c3.4-.2 8.2.7 11.2 3.6a8 8 0 0 1 2.5 6.6c-.2 1.5-1.4 2.3-1.4 2.3s-1.5-3.5-5-2.6c-3.8 1-5.4.1-5.4.1 1.2 3 .1 4.7-.9 5.6l-1.3 1.5q-.3.3-.4 0l-.6-1.7c-.7-1.4-1.8-1-1.8-1-1.5.6-2 3.7.4 5.5l.1.5C67 29 63.2 29.1 63 29q-.8-.4-1-1.3c-.2-2-1.2-2.7-1.8-3.6-.8-1-1.6-2.3-2.1-5.5q-.7-4.8 2.2-8.4" style="fill:#543930"/><radialGradient id="g" cx="-966.6" cy="643" r="1" gradientTransform="matrix(-12.501 0 0 12.501 -12012.56 -8021.13)" gradientUnits="userSpaceOnUse"><stop offset=".5" style="stop-color:#6d4c41;stop-opacity:0"/><stop offset="1" style="stop-color:#6d4c41"/></radialGradient><path d="M60.3 10.2a14 14 0 0 1 10.2-4.8c3.4-.2 8.2.7 11.2 3.6a8 8 0 0 1 2.5 6.6c-.2 1.5-1.4 2.3-1.4 2.3s-1.5-3.5-5-2.6c-3.8 1-5.4.1-5.4.1 1.2 3 .1 4.7-.9 5.6l-1.3 1.5q-.3.3-.4 0l-.6-1.7c-.7-1.4-1.8-1-1.8-1-1.5.6-2 3.7.4 5.5l.1.5C67 29 63.2 29.1 63 29q-.8-.4-1-1.3c-.2-2-1.2-2.7-1.8-3.6-.8-1-1.6-2.3-2.1-5.5q-.7-4.8 2.2-8.4" style="fill:url(#g)"/></svg>