<svg xml:space="preserve" width="16" height="16" viewBox="0 0 128 128"><linearGradient id="a" x1="64" x2="64" y1="35.7" y2="3" gradientTransform="matrix(1 0 0 -1 0 130)" gradientUnits="userSpaceOnUse"><stop offset="0" style="stop-color:#651fff"/><stop offset=".7" style="stop-color:#5914f2"/><stop offset="1" style="stop-color:#530eeb"/></linearGradient><path d="M64.1 94.5c-25.7 0-51.5 7.5-51.5 25.4v4h103v-4c0-16.9-25.6-25.5-51.4-25.5" style="fill:url(#a)"/><path d="M73 90H55v10c0 4.6 3.6 8.2 8.2 8.2h1.6c4.6 0 8.3-3.6 8.3-8.1zM36.7 72.3c-5.4 0-9.7-4.7-9.7-10.4s4.3-10.5 9.7-10.5h54.6c5.4 0 9.7 4.7 9.7 10.5s-4.3 10.4-9.7 10.4z" style="fill:#7a4c32"/><path d="M64.2 12c-21 0-33.3 14.7-33.3 41.8A41 41 0 0 0 56 93.6a24 24 0 0 0 7.9 1.5q3.6 0 7.9-1.4A41 41 0 0 0 97 53.8c0-27.1-12-41.9-33-41.9" style="fill:#a56c43"/><ellipse cx="47.6" cy="58.9" rx="4.9" ry="5" style="fill:#42312c"/><ellipse cx="80.4" cy="58.9" rx="4.9" ry="5" style="fill:#42312c"/><path d="M67.8 68h-7.6q-1 .5-.7 1.7c.3 1.2 1.7 2.6 4.5 2.6a5 5 0 0 0 4.5-2.6q.4-1.2-.7-1.7" style="fill:#875334"/><path d="M55.2 49.8c-1-1.2-3.1-3-7.3-3s-6.3 1.8-7.2 3q-.5 1 0 1.6t1.9.4c1.5-.2 2.5-1.2 5.3-1.2s4.5.9 5.4 1.2 1.6 0 1.9-.4q.5-.6 0-1.6m32.1 0c-1-1.2-3-3-7.2-3s-6.3 1.8-7.3 3q-.5 1 0 1.6t2 .4c1.4-.2 2.5-1.2 5.3-1.2s4.5.9 5.3 1.2 1.7 0 2-.4q.4-.6-.1-1.6" style="fill:#42312c"/><path d="M72.3 76.1a25 25 0 0 1-16.6 0c-1.8-1-3.6.6-2.9 2.3s6.4 5.3 11.2 5.3c4.9 0 10.5-3.7 11.2-5.4.7-1.6-1-3.2-2.9-2.2" style="fill:#473530"/></svg>