<svg xml:space="preserve" width="16" height="16" viewBox="0 0 128 128"><path d="M62.6 29.3 18.6 72l5.6 23-6 21 26.9 1.7 48.5.1 15.5-1 .7-45.2-45-44z" style="fill:#c8a68f"/><path d="m19.4 64.6-3.5 4.7 5.7 24.2-5 22.4 3.8.3 6.2-20L21 73.3l43.5-40 43 42.3v40l3.6-.2L111 69 70.2 25.9 63.1 23z" style="fill:#9e7b65"/><path d="M19.2 54V33.8L32 28.3l-.3 17z" style="fill:#ab5832"/><path d="m12.6 64.4-2.8 5H16s47.6-45.1 48.6-45.1c1.2-.1 46.3 45.8 46.3 45.8h6L67.5 16.8l-7.3-.5L47.7 29l-2.1 8.2-6.3.3z" style="fill:#2e1914"/><path d="M4 68.2c-.8 1 0 1.4.6 1.4l7.5-.1 50.5-48.8s1.1-1.1 2-1.1 2 1.2 2 1.2L116.8 70s5.8 0 6.7-.2.5-1.1-.7-2.5L70.2 15.2c-2.5-2.5-3.7-4-6.1-4-2.4.2-3.8 2-6.1 4L44.4 28l1 9-5.9-3.6z" style="fill:#553a30"/><path d="M44.3 74.5H26a3 3 0 0 0-2.8 2.9V97c0 1.6 1.3 2.9 2.9 2.9h18.3c1.6 0 2.9-1.3 2.9-2.9V77.4c0-1.6-1.3-2.9-2.9-2.9" style="fill:#3e2723"/><path d="M50.3 111.7v-31c.2-6.2 6-11.6 12.8-11.4 8.4.3 12.8 5 13 11.1.4 6.1.4 31.7.4 31.7z" style="fill:#36292b"/><path d="M53.5 113s-.2-26.3 0-31.2c.1-6 4.7-9.2 10-8.9 6.1.4 9.2 3.6 9.4 8.4s.3 31.8.3 31.8z" style="fill:#523833"/><path d="m70 91.6-.1-9.4c-.2-3.1-2.4-5.6-6.8-5.7a6 6 0 0 0-6.5 5.8v9.2zm-13.3 4.9v11.1H70v-11z" style="fill:#362729"/><path d="M70 93.8c0 1.4.6 2.6 2.2 2.6q2.4 0 2.4-2.3c.1-1.4-.8-2.6-2.4-2.5a2 2 0 0 0-2.2 2.2" style="fill:#886a57"/><path d="M100.6 74.5h-7.3v6.2h-3v-6.2h-8a3 3 0 0 0-2.8 2.9v8.4h5.4v3.3h-5.5V97c0 1.6 1.3 2.9 2.9 2.9h18.3c1.6 0 2.9-1.3 2.9-2.9V77.4c0-1.6-1.3-2.9-2.9-2.9" style="fill:#3e2723"/><path d="M33.7 51s6.7 2 7.2 2.6 3 7.8 3.3 8.1a88 88 0 0 0 14.3 1.2c.2-.6-11.3-5.6-11.3-5.6s.7-5.2.5-5.6c-.1-.5-8.1-5.4-8.1-5.4zM44 42s9 7.6 9.8 6.9a61 61 0 0 0-4-12.9z" style="fill:#2e1914"/><path d="m101.5 101.4.7 2.4s-9.4.5-9.6.8l-4.6 6c-.5.7-.5 1.6 1 .6l5.2-3.8s11.6-.6 11.9-1c.1-.1-.8-3.2-.8-3.2s4.7-2.9 5.8-3.9c.4-.3 0-4.4 0-4.4z" style="fill:#3e2723"/><path d="m83.7 95 9-11 8.4-8.2 4.2 3.4s-5 6.8-7 9-3.6 3.6-5.3 5.4c-1.8 1.9-5 6.2-5 6.2L83.5 96z" style="fill:#6d4c41"/><path d="M82.2 94.9s6.4-7.3 9.2-10.8l8.3-9.5 2.1 1.7-7.2 7.4-6.7 7.6c-1.4 1.6-3.7 5.2-3.7 5.2z" style="fill:#885c51"/><path d="M51 73.6s-1 1.2-1.5 2.3-1.4 4.1-1.4 4.1l9.8 5.2 9.4 1.8 1.5-3.6s-8.5-4.9-10.6-5.8c-2.2-.9-7.2-4-7.2-4" style="fill:#865c51"/><path d="M76.4 94.3s1.8-6 2-6l-9.6-5-10.9 2a527 527 0 0 0 18.5 9" style="fill:#6e4d42"/><path d="m49.7 110.6 3.5-.8 11.6-8.7s-7.4 1-10 1.6S48 104 48 104z" style="fill:#865c51"/><path d="m78 105-.4-6-16.3 2.6-5.8 5.4a14 14 0 0 0-2.3 2.8l13-2.8c4.4-.9 11.8-2 11.8-2" style="fill:#6d4c41"/><path d="M26.6 75.6 25.8 89l5.7.7 2.8-4.5.1-9.5zm9.7.4-.3 9.2 5.7-.5 3-4.8v-4z" style="fill:#865c51"/><path d="m25.7 97 .1-8 8.5-3.8.1 11.5zm10.3.5V84.2l8.7-4.2-.1 8c-.1 3 .2 9.3 0 9.5 0 0-2 .3-3.9.3-2.3 0-4.7-.3-4.7-.3" style="fill:#6d4c41"/><path d="M38.9 102c-.2.5-.4 4.4 0 4.6s8 0 8.1-.2.2-4.3-.1-4.6-7.9-.1-8 .2m-8.6-36.6c-.5.7-.3 4.9 0 5.2.2.4 3 .4 5.7.3 2 0 4.2 0 4.5-.2.4-.4.3-1.8.4-2.9 0-1.1.2-2-.5-2.4-.4-.3-2.6-.2-4.6-.2-2.8 0-5.3 0-5.5.2M78 56c-.7.5-.7 4.7-.3 5 .3.4 10.2.5 10.5.1s.4-4.6 0-5c-.3-.3-9.8-.4-10.3 0m9 8.7a13 13 0 0 0 0 4.7c.4.7 10.6.6 10.8.3s.3-5 .1-5.3-10.5-.7-11 .3m19.6 13.8c-.3.5-.3 4.4.2 4.9s5.6.3 5.9 0c.2-.3.1-4.6-.1-4.9s-5.7-.6-6 0m-1.5 29.9c-.5.6-.4 4.2 0 4.4s6 .1 6.4-.2c.3-.3.3-4 .1-4.2s-6.3-.3-6.5 0" style="fill:#865c51"/><path d="M78.6 119.2c.3 1 2.1.8 2.1.8l18.6-.1 11.7-.3s6-8.5 4.8-9-15.7 5.2-15.7 5.2 3.5-6.3 2.8-7c-.6-.8-10.5 2.7-12.6 3.6-8.8 3.8-11.7 6.8-11.7 6.8m-68-5.3c-.2.9 3.2 3.3 4.7 4.6s3.5 2.4 3.5 2.4 9.2 0 14.7-.2 11.2.2 12.6 0-.2-5-3.6-9.3q-5.5-6.4-6.7-5.7c-.8.5.6 5.6.6 5.6s-11.7-4.4-12.2-3 2.4 6.3 2.4 6.3-6.8-1.2-9.7-1.3-6.2-.1-6.3.6" style="fill:#728035"/><path d="M81 119s.3-6.5 0-7-18.5-.2-21.9-.2-13.2-.2-13.6.3 0 7.5 0 7.5L51 123z" style="fill:#858585"/><path d="M45.4 124.2v-4.6s6.6-.6 17-.8 18.5.1 18.5.1l-.6 3.6c-.1.9-.8 1.8-.8 1.8z" style="fill:#5e6367"/></svg>