<svg xml:space="preserve" width="16" height="16" viewBox="0 0 128 128"><linearGradient id="a" x1="82.2" x2="82.2" y1="49.9" y2="88.5" gradientTransform="translate(0 2)" gradientUnits="userSpaceOnUse"><stop offset=".6" style="stop-color:#f9ddbd"/><stop offset="1" style="stop-color:#ffd29c"/></linearGradient><path d="M86.6 90.9q-.3 0-.5-.2c-.5-.4-.4-2.6-.4-3.3a5 5 0 0 0-1-2.8q-.6-.5-1-.5h-.1l-.1.1q-.9.5-.7 1.8 0 1-.2 1.7-.3.4-.6.3-.7 0-1-.9v-.3c0-.4-.2-1-.1-2.6q0-2.7 1-5.3l.2-.2-5.4-19.3-2-6.9c.7-.4 2.5-1.2 4.4-1.2q3.1 0 4.5 3.3 2 5.3 2.7 13.7a63 63 0 0 0 1.4 9.8c.3 1 .4 1.3 1.7 4 .7 1.5.4 3 .1 4.6l-.3 1.7c-.2 1.3-1.7 2.5-2.6 2.5" style="fill:url(#a)"/><linearGradient id="b" x1="45.8" x2="45.8" y1="49.9" y2="88.5" gradientTransform="translate(0 2)" gradientUnits="userSpaceOnUse"><stop offset=".6" style="stop-color:#f9ddbd"/><stop offset="1" style="stop-color:#ffd29c"/></linearGradient><path d="M41.4 90.9c-1 0-2.4-1.3-2.6-2.5q0-1-.3-1.7c-.3-1.7-.6-3.1 0-4.6 1.4-2.6 1.5-3 1.8-4l.3-.8c.2-.8.8-4.5 1.2-9 .4-5.7 1.3-10 2.6-13.7q1.3-3.3 4.5-3.3c2 0 3.7.8 4.5 1.2l-2.1 6.9-5.4 19.3.1.2a14 14 0 0 1 1 8.2c0 .6-.6 1-1 1q-.5 0-.5-.4-.2-.8-.2-1.7.2-1.3-.8-1.8h-.2q-.4 0-.9.4-1 1.1-1 2.8c0 .7 0 3-.5 3.4z" style="fill:url(#b)"/><path d="m70.7 121.4-5.1-35q-.3-1.2-1.6-1.3c-1.3-.1-1.4.5-1.5 1.2l-5.2 35.1-6.2.2-1-46h27.8l-1 46z" style="fill:#7c7c7c"/><path d="M74 124h4.5c.8 0 1.4-1 1.1-1.8A6 6 0 0 0 74 118a6 6 0 0 0-5.6 4.5q-.3 1.4 1.2 1.6zm-20 0h-4.5c-.8 0-1.4-1-1.1-1.8A6 6 0 0 1 54 118a6 6 0 0 1 5.6 4.5c.3.8-.4 1.6-1.2 1.6z" style="fill:#424242"/><linearGradient id="c" x1="64" x2="64" y1="41.6" y2="75" gradientTransform="translate(0 2)" gradientUnits="userSpaceOnUse"><stop offset="0" style="stop-color:#00bfa5"/><stop offset=".7" style="stop-color:#00b29a"/><stop offset="1" style="stop-color:#00ab94"/></linearGradient><path d="M73.7 44.9q-3.6-1-9.6-1H64q-6 0-9.6 1c-7.5 2-9.5 6.5-11.7 12.6l7.4 3.2V78h28V60.7l7.2-3.2c-2.2-6-4-10.6-11.6-12.6" style="fill:url(#c)"/><path d="M64 40.7h-5V46c0 2.4 2 4.4 4.5 4.4h1c2.5 0 4.5-2 4.5-4.4v-5.3zm12-16.4H52c-2.5 0-4.7 2.3-4.7 5s2.2 5 4.7 5h24c2.6 0 4.7-2.2 4.7-5s-2.1-5-4.7-5" style="fill:#edc391"/><path d="M64 6.7c-7.6 0-14.7 8.1-14.7 19.9C49.3 38.2 56.6 44 64 44s14.7-5.8 14.7-17.4c0-11.8-7-20-14.7-20" style="fill:#f9ddbd"/><path d="M64 4c-19.5.1-15.5 22.4-15.5 22.4l1 3.7s2.4-8.6 3.3-11a3 3 0 0 1 2.9-1.6 48 48 0 0 0 16.7 0q2-.2 2.9 1.7c.8 2.3 3.1 11 3.1 11l1.1-3.8S83.5 4 64 4" style="fill:#312d2d"/><radialGradient id="d" cx="64" cy="20.9" r="16.4" gradientTransform="matrix(1 0 0 1.128 0 -.84)" gradientUnits="userSpaceOnUse"><stop offset=".8" style="stop-color:#454140;stop-opacity:0"/><stop offset="1" style="stop-color:#454140"/></radialGradient><path d="M79.5 26.4S83.5 4 64 4l-2.6.2h-.1c-16.4 2-12.8 22.2-12.8 22.2l1 3.7 3.2-11a2.6 2.6 0 0 1 3-1.6 48 48 0 0 0 16.7 0c1.2-.2 2.4.5 2.8 1.7 1 2.3 3.2 11 3.2 11z" style="fill:url(#d)"/><path d="M67.7 36c-1.4.8-6 .8-7.4 0-.8-.5-1.6.2-1.3 1 .4.7 2.9 2.3 5 2.3 2.2 0 4.6-1.6 5-2.3.3-.8-.5-1.5-1.3-1" style="fill:#444"/><path d="M65.7 32.4h-3.4q-.4.2-.3.7c.1.5.8 1.2 2 1.2s1.9-.9 2-1.2q.1-.5-.3-.7" style="fill:#dba689"/><circle cx="56.8" cy="28.3" r="2.2" style="fill:#312d2d"/><circle cx="71.2" cy="28.3" r="2.2" style="fill:#312d2d"/><path d="M68 24.3c.4-.5 1.4-1.3 3.2-1.3s2.8.8 3.2 1.3q.3.4 0 .7-.1.3-.8.2-.5-.3-2.4-.5-1.8.2-2.4.5-.5.1-.8-.2zm-14.4 0c.4-.5 1.4-1.3 3.2-1.3s2.8.8 3.2 1.3q.3.4 0 .7t-.8.2q-.6-.3-2.4-.5-1.8.2-2.4.5-.6.1-.8-.2z" style="fill:#454140"/></svg>