<svg xml:space="preserve" width="16" height="16" viewBox="0 0 128 128"><path d="m32.3 94.9 5.8-8.4L46.8 67l3.8 1.5-.7 1.5s-1 .7-1.8 2.6L42.5 87l19.4-6 23-3.3 13.5-7.8c2.1-1.2 14-14.3 14-14.3l6.2-12.4 1.4-14-1.9-12.4s8 7.3 5.4 23.3c-3.2 20-18 36.5-41.4 42.4-11 2.8-24 3.7-35.4 8.3A48 48 0 0 0 33.8 101zm18.9-54.2-2.1 14.7L47.4 66 59 70.9S50.8 57 55.6 44c6-16.4 22.2-30.5 35.5-31.5 9.2-.7 11.6 1.4 16.2 3.6 5.9 2.8 9.3 9.6 9.3 9.6s-1.3-9-1.7-9.4-14.7-8.7-14.7-8.7-15.4.5-15.8.7-13.4 6.3-13.6 7c-.2.6-12.4 13.5-13.7 15.4s-5.9 10-5.9 10" style="fill:#024ab1"/><path d="M105.7 64.5q-.6 0-1-.4L66 26.5a1.5 1.5 0 0 1 2.1-2.2L106.7 62a1.5 1.5 0 0 1-1 2.5m6.1-7.1q-.7 0-1-.5L73.1 19.5q-.9-1 0-2.1c.9-1.1 1.5-.6 2 0l37.6 37.4q.9 1 0 2.1-.3.5-1 .5m4.1-8.9q-.5 0-1-.5L82.3 14.7c-.6-.6-.6-1.6 0-2.2q1-.8 2.1 0L116.9 46c.6.6.6 1.6 0 2.1q-.5.5-1 .5M118 37q-.5 0-1-.5L93.2 13c-.6-.6-.6-1.6 0-2.2s1.5-.6 2 0l24 23.6c.5.5.5 1.5 0 2q-.5.6-1.1.5M98.5 71.4q-.6 0-1.1-.4L59.8 34a1.5 1.5 0 0 1 2.2-2l37.6 36.8a1.5 1.5 0 0 1-1 2.6m-10.1 5.1q-.6 0-1.1-.4L55.2 43.2a1.5 1.5 0 0 1 2.1-2L89.5 74a1.5 1.5 0 0 1-1 2.5m-10.3 2.4q-.7 0-1-.5L52.5 54.6a1.5 1.5 0 0 1 2.1-2.2l24.5 23.9a1.5 1.5 0 0 1-1 2.6M56.6 67q-.6.1-1-.4c-.7-.5-.7-1.5 0-2l50.1-49.4a1.5 1.5 0 0 1 2.1 2.1L57.6 66.8q-.4.4-1 .4m-2.6-9q-.6 0-1-.4-.9-1 0-2.1c16.5-17.1 41.5-43 42.9-44.7a1.5 1.5 0 0 1 2.6 1.5c-.1.2-.5 1-43.4 45.3q-.5.4-1 .4m2.2-14.6q-.6 0-1-.4-1-1.1-.1-2.2l27-28.5c.5-.6 1.6-.5 2.2 0q.9 1 0 2l-27 28.6q-.5.5-1.1.5m5.2 32.1q-.6 0-1-.5-.9-1 0-2.1l51.4-52.8c.5-.6 1.6-.7 2.2-.1s.5 1.6-.1 2.2L62.6 75.2q-.5.5-1.1.5m9.8 3.7q-.5 0-1-.4-.9-1.1 0-2.2L117.6 29a1.5 1.5 0 0 1 2 2.1L72.5 79l-1 .4m13.7-1.5q-.6 0-1-.4-1-1-.2-2c.5-.7 24.8-25 32.2-32.4q1-.9 2 0 1 1.1 0 2.2l-32 32q-.3.6-1 .6" style="fill:#b7cdd2"/><path d="M40 86.7s6-16.7 7.5-17.2c.8-.2 1.7 1.8 4.6 4.6 3.2 3.1 5 4.2 4.8 5.5-.4 2-16.8 7-16.8 7m77.6-53a48 48 0 0 1-30 40.6c-10.3 4-22.3 3-29.4-4.4-6.8-7.2-7.6-14.5-5.8-23 3-14.7 16.5-31 29-35.3s20.7-2.3 28.2 3.3c5.9 4.4 8.2 12.4 8 18.8m.1-17.5a30 30 0 0 0-29.4-11c-15.1 2.2-27.6 14.3-35 27.2C47.5 42.6 47 50.7 45.2 59c-1.7 8.1-8 23.7-9.3 26.3-3.1 6.2-6.3 7.3-6.7 8.2l2.4 7.8s2.2-3.8 7.2-9c5.1-5 16.5-7.4 21.4-8.4 5.6-1.2 14.4-1.1 28.7-6.3 16.5-6 32.2-25.3 32.8-41.8.4-9.8.1-14.8-4-19.7" style="fill:#1f87ff"/><path d="M30.3 91.5c-1.5.2-16.7 16.6-16.7 16.6l-6.8 3.6c-1.2.7-1.1 2.7 0 3.8l8.3 8.3c.9.8 3.2.7 3.7-1 .5-1.4 2.7-5.4 2.7-5.4s16.7-17.2 16.7-18-7.2-8-7.9-8" style="fill:#5f6369"/><path d="M11.8 113c.5 2.8 4.2 2.9 6.4 1.3 1.6-1.2.8-2.8 2-4 1.4-1.5 2.6-.6 4-2.1 1.2-1.5.8-2.5 1.6-3.4 1.1-1.4 2.3-.5 3.5-2 1.2-1.3.5-2.5 1.4-3.4s3-.4 2.5-2.7-3.6-2-5-1c-1.2 1-1.2 2.5-2.3 3.5s-2.2.6-3.5 1.8c-1.4 1.3-1 2.8-2 3.9-.9 1-2.2.2-3.6 1.8-1.5 1.7-.8 2.6-2.2 3.7-1 .7-3.3.4-2.8 2.7" style="fill:#858686"/><path d="M12.5 9.4 4.1 22.9s0 10 9.1 15a19 19 0 0 0 26.4-7.8c4.4-9.2.2-20-4.4-23.5-5.1-4-22.7 2.8-22.7 2.8" style="fill:#b6d401"/><path d="M15.1 3.4A19 19 0 0 0 3.8 22.7s2.8 9.7 15.1 10.5c13.3.9 19.5-7.4 19.9-16.5C39 9.6 35 6.2 35 6.2s-1.8-2.4-5.9-3.6c-1.7-.6-7.6-2.3-14 .8" style="fill:#d5f100"/><path d="M7.6 19c4.3 5.2 12 9.8 13.5 14.9 1.1 4.4-.7 6.5-.7 6.5s.5.3 1.2.3q1.1 0 1.3-.2c.2-.2 1.3-1.7.8-6.5s-5-8.6-8.2-11c-2.6-2-5.7-4.6-6.8-6.5-1.8-3.1-1.8-6.7-1.8-6.7s-.9.3-1.3 1.6c-.4 1.1-.9 4.2 2 7.5M26.4 1.7s.6 1.2 3 4c2.2 2.6 5.5 6.2 7.8 10.4 1.8 3.1 3.7 10.6 3.7 10.6s.7-2.6.7-4.3c0-1-1.5-5.2-2.9-7.9-1.6-3-4.7-6.7-6-8.4l-3.3-4s-2.8-.7-3-.4" style="fill:#fff"/></svg>