<svg xml:space="preserve" width="16" height="16" viewBox="0 0 128 128"><path d="M63.9 4.1c-40 1-61.7 30.7-59.7 63.6a59.6 59.6 0 0 0 60.8 56c36.9-.7 57.5-29.2 58.6-59.2A59 59 0 0 0 63.9 4" style="fill:#868686"/><path d="M64.3 17.5a45.7 45.7 0 0 0-46 49.7c1.1 23 21 43.7 46.6 42.6A46.3 46.3 0 0 0 109.3 64a45 45 0 0 0-45-46.6" style="fill:#434c4e"/><path d="M63.7 24.4c-26 .7-39.7 20-38.6 42 1 19.2 18 36.1 40 35.7 23.9-.4 37-17.7 38-38.4a39 39 0 0 0-39.4-39.3" style="fill:#b1b1b1"/><path d="M32 58.2c2.6.8 4.2-7.7 13-14.7 8.7-7 18.2-7.4 18-11.4s-10.3-3.2-16.4.4-11.2 8.2-14.1 15.3c-1.7 4.2-2.3 9.8-.4 10.4" style="fill:#dedede"/><path d="M40 14.8c-1.3-1.7-6.6-.3-12.8 5.1-5.1 4.6-7.7 10.5-5.8 12.2s6-3.6 10.3-7.5S42.2 18 40 14.8m70.5 69.6c-3.3-1.2-4.5 4.2-6 6.7a49 49 0 0 1-22.2 19c-3.5 1.4-6.6 1.5-5.6 5 .8 2.5 6.5.3 8.4-.5a61 61 0 0 0 15.4-10q7.6-6.8 10.2-13.8c.4-1 2.3-5.5-.2-6.4" style="fill:#b2b2b2"/></svg>