<svg xml:space="preserve" width="16" height="16" viewBox="0 0 128 128"><linearGradient id="a" x1="64" x2="64" y1="116.4" y2="-25.2" gradientTransform="matrix(1 0 0 -1 0 128)" gradientUnits="userSpaceOnUse"><stop offset="0" style="stop-color:#eee"/><stop offset="1" style="stop-color:#bdbdbd"/></linearGradient><path d="M63.8 9c-64 0-60 115-60 115h120.4S127.7 9 63.8 9" style="fill:url(#a)"/><linearGradient id="b" x1="64" x2="64" y1="33.4" y2="-.1" gradientTransform="matrix(1 0 0 -1 0 128)" gradientUnits="userSpaceOnUse"><stop offset=".2" style="stop-color:#fafafa"/><stop offset=".8" style="stop-color:#e0e0e0"/></linearGradient><path d="M113.1 98a8 8 0 0 0-8.1-2.8c-2.3.6-4.9 1.4-6.5 2.5a7 7 0 0 1-3.7 1.3l-1.8-.3a99 99 0 0 0-29.6-4.3h-.1a105 105 0 0 0-30.8 4q-1.9 0-3.4-1a19 19 0 0 0-7.9-2.5 8 8 0 0 0-6.3 3c-3 3.8-7 9.6-7 13.5 0 3.8 3.4 6.6 3.4 8.5v4.1h103v-4.1c0-1.7 5.7-4.2 5.7-8.5 0-3.9-4-9.6-6.9-13.3" style="fill:url(#b)"/><path d="M78.4 99.5c-3.9-2.3-3.6-8-3.6-8-.5-1.7-2.9-1.4-4.6-1.4H57.9c-1.8 0-4.2-.3-4.7 1.3 0 0 .3 5.8-3.6 8.1-3 1.8-6.6 4.5-6.6 8.3 0 5.4 0 2.8.1 3.7 0 .7 10.5 1 21 1 10.3 0 20.7-.3 20.8-1v-3.7c0-3.8-3.4-6.5-6.5-8.3" style="fill:#7a4c32"/><path d="M54.5 112c-1.2-3-5 .2-10.3 2.4s-10.2 2.5-9 5.5q.8 1.7 3.6 4h14c2.4-3.8 2.6-9.8 1.7-12" style="fill:#c2185b"/><ellipse cx="44.8" cy="114.5" rx="10.4" ry="4.2" style="fill:#ec407a" transform="rotate(-22.3 44.84 114.52)"/><ellipse cx="45.8" cy="115.3" rx="4" ry="1.6" style="fill:#d81b60" transform="rotate(-22.3 45.82 115.31)"/><path d="M74.7 109.4c.3-1.4 0-2.4 0-2.4-1.5-2-6.4-1.9-11.4-2-4.7-.2-9.4-.8-11.2.8-.7.5-.5 2-.4 2.8.2 4 4.5 14.8 10.7 15.4h1c8.4-.7 10.6-11 11.3-14.6M63.4 124h-1z" style="fill:#c2185b"/><ellipse cx="63.3" cy="107.1" rx="4.1" ry="11.5" style="fill:#ec407a" transform="rotate(-88.2 63.27 107.06)"/><ellipse cx="63.3" cy="107.8" rx="1.5" ry="4.1" style="fill:#d81b60" transform="rotate(-88.2 63.28 107.81)"/><path d="M92.2 119.9c1.2-3-3.7-3.3-9-5.5s-9-5.4-10.3-2.4c-.9 2.1-.6 8.1 1.6 12h14.1a13 13 0 0 0 3.6-4.1" style="fill:#c2185b"/><ellipse cx="83.1" cy="114.6" rx="5.5" ry="10.4" style="fill:#ec407a" transform="rotate(-67.7 83.07 114.64)"/><ellipse cx="83.1" cy="115.8" rx="2.3" ry="4.3" style="fill:#d81b60" transform="rotate(-67.7 83.07 115.76)"/><path d="M61.7 121c-2.3-4.4-9.3-5.1-9.3-5.1s-2.2 4.2-1.6 8.1h11.8q0-1.5-.9-3" style="fill:#2e7d32"/><path d="M49.6 122.4c-4.4-2.1-10.6 1.3-10.6 1.3v.3h12.7a7 7 0 0 0-2-1.6" style="fill:#43a047"/><path d="M77 118.9s-7 .8-9.3 5.1h11c-.5-2.8-1.6-5.1-1.6-5.1" style="fill:#2e7d32"/><path d="M73.1 116.6s-7-.3-10 3.7a8 8 0 0 0-1.4 3.7h12c.7-3.6-.6-7.4-.6-7.4m6.2 6.2-1.7 1.2h12.2c-.7-.4-6.3-3.2-10.5-1.2" style="fill:#43a047"/><path d="M91.3 50.4H36.7c-6 0-10.7 5.2-10.7 11.4s4.8 11.5 10.7 11.5h54.6c6 0 10.7-5.2 10.7-11.5s-4.8-11.4-10.7-11.4" style="fill:#7a4c32"/><path d="M64 11c-17.4 0-33.5 18.7-33.5 45.5C30.5 83 47 96.3 64 96.3S97.5 83 97.5 56.5C97.5 29.7 81.4 11 64 11" style="fill:#a56c43"/><path d="M40 50.7c3-4.2 9.8-4.6 13.6-1.5q1.2.8 1.7 2c.4 1.3-.8 2.3-2 2l-2.2-.8a11 11 0 0 0-3.6-.6c-1.8 0-3 .2-4.7 1-.7.2-1.3.7-2.1.3-1-.4-1.3-1.5-.7-2.4m46 2.4-.8-.4c-1.8-.7-2.8-1-4.7-.9-1.7 0-2.7.2-4 .7-.9.3-2 1-2.8.7-1.3-.4-1.3-1.8-.6-2.8q1.3-1.6 3.3-2.4c3-1.3 6.5-1 9.2.6q1.4.8 2.4 2.1c.8 1.3-.4 3-2 2.4" style="fill:#42312c"/><ellipse cx="47.6" cy="58.8" rx="4.9" ry="5.1" style="fill:#42312c"/><ellipse cx="80.4" cy="58.8" rx="4.9" ry="5.1" style="fill:#42312c"/><path d="M72.4 76.1a26 26 0 0 1-16.8 0c-1.8-1-3.7.6-3 2.3s6.5 5.4 11.4 5.4 10.6-3.8 11.3-5.4-1-3.4-2.9-2.3" style="fill:#473530"/><path d="M67.9 68H60q-1 .5-.6 1.7c.3.7 1.7 2.7 4.5 2.7s4.3-2 4.6-2.7q.3-1.2-.7-1.6" style="fill:#875334"/><path d="M64 4c-45.5.3-36.1 52.2-36.1 52.2l3 7.7c0 .3.6.3.6 0 1-4.4 4.5-19.8 6.3-24.5a6 6 0 0 1 6.7-3.8A111 111 0 0 0 64 37.4h.2c7.8 0 14.9-1 19.3-1.8a6 6 0 0 1 6.8 3.8c1.8 4.7 5.3 20 6.2 24.4.1.3.6.4.7 0l3-7.6s9.4-52-36-52.2" style="fill:#3c2c23"/><radialGradient id="c" cx="64" cy="80.9" r="38.1" gradientTransform="matrix(1 0 0 -1.128 0 138.37)" gradientUnits="userSpaceOnUse"><stop offset=".8" style="stop-color:#554138;stop-opacity:0"/><stop offset="1" style="stop-color:#554138"/></radialGradient><path d="m100.1 56.2-3 7.7c0 .3-.6.3-.6 0-1-4.4-4.5-19.8-6.3-24.5a6 6 0 0 0-6.8-3.8 111 111 0 0 1-19.3 1.8h-.2c-7.8 0-15-1-19.4-1.8a6 6 0 0 0-6.8 3.8c-1.7 4.7-5.2 20-6.2 24.4q-.2.6-.7 0l-3-7.6s-2.1-12 .7-24.6q1.3-5.8 4.2-11.2c4.4-7.8 12-14.3 25-16h.2l6-.4h.1c16.9.1 26.2 7.4 31.3 16.4q3 5.5 4.2 11.2c2.8 12.5.6 24.6.6 24.6" style="fill:url(#c)"/><linearGradient id="d" x1="64" x2="64" y1="113.8" y2="103.3" gradientTransform="matrix(1 0 0 -1 0 128)" gradientUnits="userSpaceOnUse"><stop offset=".3" style="stop-color:#fff"/><stop offset="1" style="stop-color:#e0e0e0"/></linearGradient><path d="M99.5 31.6a71 71 0 0 0-71 0q1.3-5.7 4.2-11.2c3-1.5 14.5-6.6 31.3-6.6 16.7 0 28.1 5 31.3 6.6q3 5.4 4.2 11.2" style="fill:url(#d)"/></svg>