<svg xml:space="preserve" width="16" height="16" viewBox="0 0 128 128"><path d="m79.8 73.2-27.3-1-4.9 46.7s7.5-.5 17.4-.5 18.3.7 18.3.7z" style="fill:#8a2e08"/><path d="m24.9 79.7-6.7-1.4S16.6 89 15.1 95.5s-4 15.4-4 15.4l15.8 7.9s14.4 1.3 14.7.8l10.8-25.1 2.5-9.5zm49.7 5.2 33.3-7 1.5 4s2.1 9.3 3.4 14.2c2 8 4.4 15.1 4.4 15.1l-15 9.2L87 120z" style="fill:#ff6110"/><path d="M18.1 74.4c0 .2.2 1.9.1 3.1l-.3 2.7s1 .2 1.8.8c.8.5 2.5 2.6 2.5 2.6s3.3-1.3 5.3-.5c3 1.2 4.3 4 4.3 4s3.1-3 7-2.3c3.7.6 5.2 4.1 5.2 4.1s2.8-2.3 5.2-2.1c3 .1 4 2.3 4 2.3l4.4-8.8-32.4-6z" style="fill:#af0d03"/><path d="m9.4 115 1.8-4.6s7.8 3.8 13.4 5.5 12.3 1.9 12.3 1.9 0-2.6-2.5-4.5l-6.3-5.2 5.3-1.7 3-1.2 9.2 11-3 7.4s-6.5.9-16.9-1.8S9.4 115 9.4 115" style="fill:#c9c9c9"/><path d="M74 78.7v5.5l2.8 3.2s1.6-2 5.1-1.9 5.1 1.8 5.1 1.8 2.2-2.6 5-3.1c3-.6 5.8 1 5.8 1s2-3.7 4.9-4.5c2.9-.9 6.7 1.3 6.7 1.3l-1.6-9.4-28.5 2z" style="fill:#af0d03"/><path d="m117 110.2 1.7 4.7s-5.5 4.4-12.7 6.3c-7.2 2-17.2 2.8-17.2 2.8l-3-16.4 10-3 5.3 2.4s-4.8 4-6 5.9c-2.6 3.5-1.7 5.7-1.7 5.7s7.7-.7 13.6-3.2c5.9-2.6 10-5.2 10-5.2" style="fill:#c9c9c9"/><path d="M31.8 108s3.4 1.5 5.1 2.8c2.2 1.5 4.3 3.8 5 7.5.5 2.5.7 5.3.7 5.3s2.4 1.8 7-6 7-18.5 7.4-26.2.3-9.4.3-9.4l-6.9 11.3-10.2 9.3z" style="fill:#d92f0a"/><path d="M57.3 82s.8 7-8.5 15.6c-5.8 5.4-11.5 9-15.4 10.6-1.3.5-2.5.3-3.3.3-2.8 0-2.3-.5-.7-1.3 1.8-1 7-2.9 16.8-11.9A24 24 0 0 0 54.6 81l2.7-1.5z" style="fill:#fffeff"/><path d="M89.2 124s-3.5 1.2-8.7-5.8-6.8-19.5-7-23.5-.2-11.5-.2-11.5l9.6 12s14.8 11.2 14.6 11.3-4.8 3-6.6 5.9c-3.5 5.9-1.7 11.6-1.7 11.6" style="fill:#d92f0a"/><path d="M72.8 80s-.1 2.6.4 4.5c1 4.2 4.7 8.8 9.5 13a68 68 0 0 0 14 9.5c.5.2 4.3.3 4.4 0 0-.2.2-.7-1-1.7-2.6-1.8-8.3-5-13-8.7C84 94 79.8 90.7 76 84c-.7-1.2-.4-4.3-.4-4.3z" style="fill:#fff"/><path d="M22 57.3s-8 1-8.2 2.2c-.3 1 .6 16.1.6 16.1s3.3-.6 5-.2 4.9 2.4 4.9 2.4l5.3-3.3 3.9 5.3s2.7-1.4 6.4-1 6.3 3 6.3 3l5.2-4.4 5.9 4.6s2.7-3.1 7.6-3.2c5 0 8 3.6 8 3.6l6.5-5.8 6.5 5s2.5-2 5.4-2.7 5 .5 5 .5l4.2-7.3 4.7 3.3s1.5-1.7 3.6-2 4.8-.4 4.8-.4l-.2-11.6c0-1.5-.6-4-1.2-4.4s-6.6-1.8-6.6-1.8z" style="fill:#d92f0a"/><path d="m32.5 61.7-7.8 1.8-.4 14.3s2.4-.7 4.8-.4 4.4 2.5 4.4 2.5v-11c0-1.5.7-4.5 1-5s-2-2.2-2-2.2m20.5 3-7 2.6s-.3 6.6 0 9.2c0 2.7.2 5.2.2 5.2s3.2-1 5.9-.9c2.6.2 5.2 1.2 5.2 1.2l-.1-14zm19.6 3 .4 8-.1 6.7s3.8-2 6.9-2.2c3-.3 6 1.4 6 1.4l-.5-9.7c-.2-2.8-1-5.3-1-5.3l-7.9-4.2zm23.8 11.7s2.5-2.9 4.6-3.5 4.2-.4 4.2-.4-.2-6.8-.5-9.8l-.6-4.8-9.6-4.1.3 7.5s1.1 2.5 1.5 6.9c.3 4.3 0 8.2 0 8.2" style="fill:#e1e1e1"/><path d="M64.4 29.8 53 35s-10.6 7.8-19 13-13 7.3-14 7.7c-1.7.7-4.2 1.5-5.3 2.2-1.9 1.3-1 2-.8 2s9.5 4.2 25.8 6.6 38.4 1.5 49.7-.7 22.7-8.8 22.7-8.8-1-1.6-7.3-4.3S93.3 47 84.2 41s-11.4-8.9-11.4-8.9z" style="fill:#ff6110"/><path d="M54.7 37S42 50 26.3 61c-1.7 1.2-1.6 2.6-1.6 2.6l4.3 1.2q4.9 1 5 .9 0-.2 4.5-4.7a143 143 0 0 0 13.1-15.3l6.2-8.1zm5.4 1.7s-4.6 10.7-6.8 15.4a121 121 0 0 1-5.5 9.5c-1.8 3-1.9 3.7-1.9 3.7a62 62 0 0 0 11.3.6s1.5-4.7 3.2-14.2c1-5.5 2.4-15 2.4-15zm6.4.5s1 10.3 2.2 15.7c1.6 7.4 4 12.8 4 12.8l6-.4 5.5-.7s-3.8-5.8-7.4-11.7c-2.4-3.9-7-13-7.7-16.4-.6-3-2.6.7-2.6.7m5.7-1.9c0 .3 3.3 7.4 11.5 16.2 6.6 7.2 11 10.9 11 10.9l5.5-1.8 3.9-1.7s-9-6.2-14.2-10.5a123 123 0 0 1-14.5-13c-2-2.7-3.2-.1-3.2-.1" style="fill:#fff"/><path d="M64.3 22.7c-2.2.2-3 3.9-4 5L52.8 35s1 5.7 12 5.6c10-.1 11.9-4.8 11.9-4.8l-7.9-8.5c-1.4-1.7-1.7-4.8-4.6-4.6" style="fill:#d92f0a"/><path d="M64.7 17.8s1.9-.6 4.6-.3c2.7.4 4.5 1.2 7.4 1.2 4.3 0 7.8-2.1 9.1-3.3s2.9-3 2-3.7c-.8-.6-4.4.3-8.4-1.2-3.5-1.4-5.3-5-10.3-5.6-4.3-.5-5.6 1.2-5.6 1.2z" style="fill:#ff6110"/><path d="M63 4.9v19.7l3.2-.9L65.8 5z" style="fill:#d92f0a"/></svg>