<svg xml:space="preserve" width="16" height="16" viewBox="0 0 128 128"><path d="m62.9 81.8-10.3 2.5s1.9 14.8 1.5 16.9a69 69 0 0 1-2.8 10c-.5.7-4.8 4.6-3.4 6.5 1 1.4 3.4 1.8 5.7 1.8 1.4 0 4.9-.1 5.5-1.6.7-1.5.6-3.6.6-3.6s4-8.7 4.5-11.2a270 270 0 0 0-1.3-21.3M88 88.2s2.3 10.6 1.9 12.5-1.9 7.4-2.2 8.2-3.8 5.3-1.7 6.8c1.6 1.2 3.8 1.2 5.6 1.2 2.7 0 4.5-1 5.1-2 .7-1.1.5-4.4.5-4.4s3-9.9 3-11.2-2.8-16-2.8-16zM55 18.5 39.5 38.2l-21.4.4.1-.4-5.9 5.2s2.5-.3 4.1-.9c1.1-.3 2.2-.8 3-.5.8.2 3.3 1.9 4.5 2.5l4 1.9.2 8.5 12.6 7.9 7.5-12s.1-6.5.7-7.6 4-3.2 5-10.5l.8-6.3s3.7-2.8 4.2-5c.7-3-.9-5.1-.9-5.1z" style="fill:#df9047"/><path d="M51.7 24.9s-.2 10.5-2.3 14.2c-1.6 2.8-6 6.4-9.7 6.7-8.5.8-18.5-6-20.7-5.7-1.9.2-7 7-13.1 1-4.5-4.3-2-17.4 8.6-19.7 3.8-.8 7.9-1 9.2-1.7 1.4-.6 4.4-4.5 7.8-6.2 3.9-1.9 6.8-2 6.8-2s.9-4 4.6-3.9c3.8.2 3.4 4.2 3.4 4.2s1.5.2 2.9 1.2c.8.6 2.2 2.2 2.2 2.2s4.3-2.5 6.5.7c3.4 5-6.2 9-6.2 9" style="fill:#f6b03e"/><path d="M7.5 30.8s4.6-3 6.2-1.3c2 2.2-5.5 4.5-5.5 4.5L8 37s1 1 2.8.9 3.5-1.6 4.5-.5S12 43.1 6.1 40c-2.1-1.2-3-4.5-2.5-4.8 1.1-.8 1 1.6 1.7 1 .2-.6.2-3.8.2-3.8s-1.3-3.6 0-4.3 2 2.7 2 2.7" style="fill:#ba8859"/><path d="M32.7 25.6q1.3-.3 4.6-.1c1.8 0 3.8 0 3.9 1 0 1.4-.9 2.2-1.7 2.6-1 .7-3 .8-4.5.2-2.5-1.2-3.3-3.6-2.4-3.7m.6.7q.2.1-1.8 1.5c-.7.4-2.3.3-2.3 1.4s1.7 1 3.1.4 2.4-2 2.4-2l.3 1s-.9 1-1.6 1.3-2.2 1-1.7 1.8 2.4.2 3.5-.8c1-.8 1.8-2 1.8-2l.8.2s-.6 1.1-1.2 1.7c-.5.7-1.9 1.6-1 2.5.7 1 2.6-.6 3.4-2.2.7-1.5.8-2.8.8-2.8z" style="fill:#323230"/><path d="M39.4 55C34.2 56 28 52.7 28 52.7s0 13.5 2.3 19.6c2.1 5.7 6.8 10.5 13 12.8s13 2.5 16.1 2.3 4.2-.5 4.2-.5l1.8 1c.5.3 1.5.5 1.5.5s2 8.6 1.7 11.8c-.2 3.2-3.3 13.7-3.3 13.7s-4.7 3.7-3 5.9c1 1.4 4.7 1.8 7.4 1.8s6-.6 6.9-3.6c.4-1.5.3-4.3.3-4.3l1.7-7.3c.5-1.8 1.3-4 1.3-5.2s-.6-4.6-.6-6.8V90s5.7 0 11.4-.7 8.8-2.7 8.8-2.7 2.7 6.1 3.5 8.6a26 26 0 0 1 1.2 4.8c0 .6-2.2 10.7-2.2 10.7s-4.6 4.6-4.2 7 4.2 2.2 8.7 1.8 4.8-2.7 4.8-5 3.4-11.5 3.4-13.8c0-2.2-3.2-12.5-2.9-14l1.5-6.8c.5-2.5.8-6.8.8-6.8s1.2 5.6 3 8.6 4.4 6 6 4.5c1.7-1.6-1.6-3-2.3-7.2s-1-16.4-4.1-23.6-10-9.6-10-9.6-3.1-14.5-5.2-18.9-7.2-9.6-13.5-9c-6.4.5-13 3.7-15.6 8.9s-3.3 15.8-4 16.4-6.6 3-8.9 8c-2.2 5-2.2 8.2-2.2 8.2s-3.7 1.2-6.4-1c-3.3-2.8-2.6-10-2.6-10s-1.4 4.8-9 6.4" style="fill:#f6b03e"/><path d="M86.7 13.4c-6 0-9.4 3.4-11.7 7.7-2.7 5.2-3.3 7.7-3.3 7.7s.8 0 2.3-1.7c1.3-1.5 2.2-3.7 4-3.2 3 .9-3.1 7.7 1.7 9 6.8 2 2.7-8.4 7-8.2 5.1.1-.1 9.5 6.5 8.5 6.3-1-.5-8.8 3.2-10 2.4-.8 2.5 2.4 3.5 3.7 1.5 2 2.7 2.7 2.7 2.7s-1.1-6.4-4.8-11a13 13 0 0 0-11.1-5.2" style="fill:#e09147"/></svg>