<svg xml:space="preserve" width="16" height="16" viewBox="0 0 128 128"><path d="M105.3 17c-.5 1.4-3.1.3-5.8 0-2-.3-12.5-3-22.5 4.9S54.4 48.2 49.5 65.2s-6.5 21-7.1 36.8.7 18.7-1.1 21c-1.7 2-5 1.8-7 .6s-1.9-5.2-1.8-11.6c.1-11.2 2-30.8 10.8-52.4s20.5-35.3 31.4-42 19.2-6.1 25.9-4.4c4.7 1.2 5 2.9 4.7 3.7" style="fill:#7cb23f"/><path d="M84.5 15.5c.2 1.2.8 2.5 2.4 2.2s1.6-2 1.3-3.5-1.3-2.5-2.8-2c-1.1.6-1.2 2.1-1 3.3m-20.5 9.2c-.8.8-.7 2.7 1.4 4.6 2.2 2.2 4 1.7 4.7 1 1-1.1 1-2.8-1.2-5-2.2-2.1-3.9-1.7-5-.6M48 46.6c-1.2 1.7-1.3 4.2 2.5 6q4.9 2.4 6.3-.6c1-2.1-1-4-3.3-5.4-2.3-1.3-4.4-1.7-5.5 0m-5 25.3c-2.5-.6-5.3-.4-5.8 1.9s.6 4 3.8 4.6c3.3.6 5.6.3 6-1.8.7-3.1-2-4.2-4-4.7M31.8 101c-.3 2.5 1 4 5.5 4.2s6-1.4 6-3.2c.2-2.4-2.1-3.4-5.5-3.7-2.7-.2-5.8.5-6 2.6" style="fill:#6a9a18"/><path d="M77.7 51.5s1.7-.8 3.6-1.3c1.4-.5 2.9-.7 2.9-.7s3.7 3.2 6.6 10 2.8 12.8 2.8 12.8l-3.2 1.2-3.9 1.2s-2.4-8.7-4-13.4c-2-5.6-4.8-9.8-4.8-9.8" style="fill:#ffc119"/><path d="M80.6 22.8c-.1 0 0 5.4 2.3 12.3S89 46.7 89 46.7s2.4.3 4.4-.2 3.3-1.6 3.3-1.6-4-6.6-6.2-13.2c-2.3-7.5-1.9-10-1.9-10z" style="fill:#ffb0da"/><path d="M54.3 48.3s6-6.3 12.6-9.9A56 56 0 0 1 85.1 32c4.7-.8 9.6-1.1 9.7-.3S83.3 35 80.4 36a57 57 0 0 0-17.8 9.4c-4.6 3.5-7.8 6.4-7.8 6.4z" style="fill:#6a9a18"/><path d="M83.6 33.9c.8.7 5.1-.6 9.8-4.8 3.7-3.3 5.7-8 5-8.5s-6 .5-9.6 3.8c-3.8 3.5-6.4 8.4-5.2 9.5m7.2-1.9c-.6 1.1 1.6 5.3 3.6 8.1 2.2 3.3 7.4 7.3 8.5 7 .7-.3.4-5-1.2-7.6a14 14 0 0 0-2.6-3.5s2.1.7 7 1.2c4.8.4 7-.4 7.2-.7.4-.5-3.5-7.7-11-8-7.2-.4-11 2.5-11.5 3.5M70 39.4c.5 1.3 3.4 4.5 6 6 2.7 1.6 10.7 3.6 11.4 2.9.6-.7-5-7.6-8.9-9.2-2.3-1-5-1.4-6.3-1.2s-2.5 1-2.3 1.5" style="fill:#7fce13"/><path d="M44.9 73.9s6-9.9 23.4-17c15.8-6.5 25-3.9 24.8-3s-9.2 0-22.5 5.2q-11.4 4.4-19.8 13.1l-4.6 5z" style="fill:#6a9a18"/><path d="M57.5 64.3c-1.2 0-1.5-3.6 1-8 2-3.4 8-9.4 9.1-9.2.7.2.7 5-1.7 9-2 3.5-5.6 8.3-8.4 8.2M49.6 72c.2.8 5 2.3 8.7 2.8s6.8-.5 8.9-.6 5.3-1 5.3-1.4c0-1-2.6-4.6-10.3-5.7-8.1-1.2-12.8 4-12.6 4.9" style="fill:#7fce13"/><path d="M99 65.4a505 505 0 0 0 2 21.8c.1.2 2.7 0 4.9-.8 1.8-.7 3.5-1.8 3.5-1.8s-.6-6.3-1.9-13.5a33 33 0 0 0-2.2-8.1c-.2-.3-6.4 2.4-6.4 2.4" style="fill:#52c2f3"/><path d="m87 53.4 3.3 4.8 5.1 7.5c1.3 1.7 4.2 4.7 4.4 4.6.9-.2 2.3-3.4 1-7.7-.4-1.7-2.5-4.4-2.5-4.4s4.2 1.4 7.4 3.7c5.4 4 8 7.8 8.4 7.6 1.7-.6 1.6-9.8-8-15.4-10.3-6-19.2-1.5-19-.7" style="fill:#7fce13"/><path d="M59.7 56.7s.2 6.7.1 11.3c-.1 4.2-1.4 12.4-1.4 12.4l6-.4 4.8-.4-.5-15.3c0-5.3-.7-10.7-.7-10.7s-8.3 2.6-8.3 3" style="fill:#ffd61c"/><path d="m72.8 73.7 4.7-.7 4.4-.5s1.8 9.5 3.4 13.7c1.7 4.6 4.3 8.7 4.3 8.7l-4.2 2.3C83 98.5 80 99 80 99s-3.3-6-4.8-12.1C73 78.3 73 73 72.8 73.7" style="fill:#ff2825"/><path d="M33.5 48.8c-1.2.3-2 .9-.8 3.6s2.7 5.3 3.8 10c1 4.2 1.6 11.5 1.6 11.5l3.3-1.2s-1.2-9.4-2.2-13c-1.1-4-4.2-11.3-5.7-11" style="fill:#6a9a18"/><path d="M15.2 48.8c.4.7 4.1 1.2 8.3 2s10 1.3 10.7.9c.9-.6 1-5.2-2.2-11.6-4.2-8.5-13.1-11.5-13.9-10.7-.4.3.8 4.6 4 8.9 2.5 3.5 4.4 5.5 4.4 5.5s-3.8.2-6.6 1.1c-2.9 1-5 3.2-4.7 4m23 17.8c-.6.6-4-1-6.4-2.2s-8.5-2.3-12.2-2-7 .8-7.4.3c-.6-1.4 5.1-7.8 13.9-7.7 11.5.1 13.5 10.3 12.1 11.6" style="fill:#80d114"/><path d="M49 46.5s-.5-11.4-2.4-17.3c-2-5.9-5.1-8.4-5.1-8.4l3.4-.9s3.2 4.5 4.7 9a75 75 0 0 1 2.2 17.7z" style="fill:#6a9a18"/><path d="M43 13s.1-2.7 1.7-5.4 4.4-3.9 4.9-3.7 1 4.2 0 9.5c-1.2 5.9-2.9 9.6-3.8 10.3q-1.5.9-10.3-.5c-5.1-.8-8-2.3-8.3-3.2s3.3-2.7 5.5-3c2-.4 4.3.2 4.3.2s-2.3-2.9-3.8-6.6-1.7-6.6-1.3-7c.5-.4 4.5 1.6 7 4a36 36 0 0 1 4 5.4" style="fill:#7fce1a"/><path d="M39.2 25.2c-.3 0-2.4 7.5-3.6 11.2a23 23 0 0 1-4 7.6c-1 1.2-2.9 3-2.9 3l8.6 5.3s4-5.4 6.2-12.6q3.2-9.8 2.5-11c-.4-.7-6.8-3.5-6.8-3.5" style="fill:#ff2622"/></svg>