<svg xml:space="preserve" width="16" height="16" viewBox="0 0 128 128"><path d="M85.6 49.7c-1-1.3-.3-3 1.2-5 2.2-3.4 4.1-10.6.2-17l-.7-1h-1.1a2146 2146 0 0 0-51 8.4l-1.5 1.5a16 16 0 0 0 5.7 16c2 1.5 3.3 2.8 2.7 4.4-.5 1.5-2.8 2.1-2.8 2.1s.8 1.4 2.2 2q2.1.5 3.8.2s4.8 4.8 15 3.2l5.7-1 5.7-1C81 61 84 55 84 55q1.7-.2 3.5-1.5c1.1-1 1.4-2.6 1.4-2.6s-2.3.2-3.3-1" style="fill:#3c2c23"/><radialGradient id="a" cx="106.9" cy="92.3" r="15.1" gradientTransform="rotate(-9.3 138.94 258.92)scale(1 .491)" gradientUnits="userSpaceOnUse"><stop offset=".7" style="stop-color:#554138;stop-opacity:0"/><stop offset="1" style="stop-color:#554138"/></radialGradient><path d="m65 63.5-1-6 18-4.4 2 1.8s-3 6-13.3 7.7z" style="fill:url(#a)"/><radialGradient id="b" cx="92" cy="94.6" r="4.5" gradientTransform="rotate(145.6 92.95 58.7)scale(1 .742)" gradientUnits="userSpaceOnUse"><stop offset=".7" style="stop-color:#554138"/><stop offset="1" style="stop-color:#554138;stop-opacity:0"/></radialGradient><path d="M83.5 52.3C80.1 48.6 86 46 86 46q-1.3 2.2-.3 3.7c1 1.3 3.3 1.1 3.3 1.1s-2.7 3.3-5.4 1.5" style="fill:url(#b)"/><radialGradient id="c" cx="103.6" cy="107.2" r="19.6" gradientTransform="rotate(256.4 68.5 75.48)scale(1 .833)" gradientUnits="userSpaceOnUse"><stop offset=".7" style="stop-color:#554138;stop-opacity:0"/><stop offset="1" style="stop-color:#554138"/></radialGradient><path d="M87 27.8a17 17 0 0 1 0 16.7c-.4.4-1.7 2.2-1.9 3.5 0 0-7.4-7.5-10-12.2q-.9-1.4-1.3-3-.4-1.2.2-2.5c.4-1 12.6-3.2 12.6-3.2z" style="fill:url(#c)"/><radialGradient id="d" cx="49.2" cy="107.2" r="19.6" gradientTransform="rotate(85 25.48 119.17)scale(-1 .833)" gradientUnits="userSpaceOnUse"><stop offset=".7" style="stop-color:#554138;stop-opacity:0"/><stop offset="1" style="stop-color:#554138"/></radialGradient><path d="M32.8 36.7C31 43.7 35 50 38.2 52.4c.5.4 2.3 1.6 2.8 2.8 0 0 4.7-9.5 5.7-14.8q.4-1.5.2-3.2Q47 36 46 35c-.7-.8-1.3-.4-2.3-.3-1.8.3-10 1.1-10.6 1.3z" style="fill:url(#d)"/><radialGradient id="e" cx="52.5" cy="92.3" r="15.1" gradientTransform="matrix(-.987 .161 .08 .485 98.8 3.13)" gradientUnits="userSpaceOnUse"><stop offset=".7" style="stop-color:#554138;stop-opacity:0"/><stop offset="1" style="stop-color:#554138"/></radialGradient><path d="m65 63.5-1-6L45.7 59l-1.3 2.4s4.8 4.7 15 3z" style="fill:url(#e)"/><radialGradient id="f" cx="37.6" cy="94.6" r="4.5" gradientTransform="rotate(15.8 -418.26 -.8)scale(1 -.742)" gradientUnits="userSpaceOnUse"><stop offset=".7" style="stop-color:#554138"/><stop offset="1" style="stop-color:#554138;stop-opacity:0"/></radialGradient><path d="M43.9 58.7c2-4.6-4.2-5.1-4.2-5.1q2 1.6 1.4 3.4c-.5 1.5-2.8 2.1-2.8 2.1s3.6 2.3 5.6-.4" style="fill:url(#f)"/><linearGradient id="g" x1="62.2" x2="62.2" y1="50.3" y2="8.7" gradientTransform="matrix(1 0 0 -1 0 128)" gradientUnits="userSpaceOnUse"><stop offset="0" style="stop-color:#f78c1f"/><stop offset="1" style="stop-color:#ed6d23"/></linearGradient><path d="M101.3 124H56q-7.3-.1-9.6-.7c-7.1-1.3-14.8-2.5-20.7-6.5-4.4-3.1-9.1-8.9-4.5-19 6.5-15 12.2-29.7 25.4-31.5 4.5-.7 11-.6 18.3-.6s12.2 1.2 15.3 1.9c21.8 4.8 22.7 22 24.7 40.7 0 0 1.7 15.7-3.6 15.7" style="fill:url(#g)"/><path d="M64.7 59.6h-7.1v8c0 3.5 2.9 6.4 6.5 6.4h1.3c3.6 0 6.5-3 6.5-6.5v-7.9z" style="fill:#7a4c32"/><linearGradient id="h" x1="78.2" x2="78.2" y1="-17.6" y2="54.3" gradientTransform="matrix(1 0 0 -1 0 128)" gradientUnits="userSpaceOnUse"><stop offset="0" style="stop-color:#212121;stop-opacity:.8"/><stop offset="1" style="stop-color:#212121;stop-opacity:0"/></linearGradient><path d="M101.7 109.3c-6.1-11-7.8-12.5-8.7-14.5-1.4-3.2-2.8-4.4-4-4.9q0-1.8-.8-4.5 1-.6 1.5-1.7.5-1.5 0-3l-3.2-7C86 72.6 54 86.3 54 86.3c-1 1.8-1.5 3.3-.2 6.2.8 1.7 2.6 3 3 2.9l3-1.2q.6 1 1.7 1.4c.3.1 1.4.4 2.9 0l7.8-3.4A4 4 0 0 0 76 94a7 7 0 0 0 3 3.7c-1 1.6.8 4.7 1.8 6.6 1.5 3-2 14.3-.7 19.7h21.2c1.6-3.3 3.4-9.4.4-14.7" style="fill:url(#h)"/><linearGradient id="i" x1="82.9" x2="57" y1="50.8" y2="38.4" gradientTransform="matrix(1 0 0 -1 0 128)" gradientUnits="userSpaceOnUse"><stop offset="0" style="stop-color:#81d4fa"/><stop offset="1" style="stop-color:#0288d1"/></linearGradient><path d="m92.8 77.6-3-7.2q-.7-1.4-2.2-2t-2.9 0l-23.2 10c-2 .8-2.8 3-2 5l3.1 7a4 4 0 0 0 3 2.3q1 .1 2-.3L91 82.5q1.4-.6 2-2 .5-1.5 0-3" style="fill:url(#i)"/><path d="M60.7 78.8c-1.3.6-2 2.7-1.3 4.1l3.6 8.2c.6 1.4 3.2 2 4.6 1.4l23.3-10z" style="fill:#fffde7"/><path d="M57.7 85.2q.9-.3 1.4.3L60 87q.6 1.5.7 2.9l-.1.3-.3.1-1.6.1c-1.1 0-1.7-1-2-2q-.3-.8-.2-1.8.2-1 1-1.5z" style="fill:#c53929"/><path d="m63 91.1-1.1.5a2 2 0 0 1-2.2-.5q-.6-.8-.6-2-.2-1.6-1.2-2.6l-.6-.5c-.8-.9 0-2.4.9-2.8l1-.5c1.1-.5 3 .4 4.2 3.2 1.1 2.7.6 4.8-.4 5.2" style="fill:#e06055"/><path d="M55 93.2c-.6 5.2-4.9 9.6-9.8 10.9-5.2 1.4-11.8-1.6-15-6.1-6-8.4.4-15.4 1.8-17 3.4-4 8.5-3.8 12.5-3.6C52.8 78 56 86.2 55 93.2" style="fill:#c5e1a5"/><path d="M43.2 75.8c-2.1 0-5.3.2-7.5 1.5-1 .6-1.4 1.7-1.4 1.7 2.7-1 5.5-1.3 8.8 0 6.4 2.3 7.5 7.7 7 14.5-.5 4.8-3.7 8.8-7.6 10q-2.9 1.2.7 1.7c8.6.6 14.7-6.6 14.7-14.7s-5.4-14.8-14.7-14.7" style="fill:#fef6e0"/><path d="M58.5 96.3c12.4 1.1 16 8 16 8 12.4 2.8 15.6 11 14.7 14.8 0 0-5.7 3.4-9.3 3.4q-7.6.2-15.3 0s.8-5.7-1-7.3c-1.2-1-3.2 0-5-1.1-3.2-2-8-4.8-12-7-4-2.1-7.6-3.1-7.6-3.1a22 22 0 0 1 19.5-7.7" style="fill:#bdbdbd"/><linearGradient id="j" x1="57.9" x2="57.9" y1="5.9" y2="47.7" gradientTransform="matrix(1 0 0 -1 0 128)" gradientUnits="userSpaceOnUse"><stop offset=".1" style="stop-color:#212121;stop-opacity:.4"/><stop offset="1" style="stop-color:#252525;stop-opacity:0"/></linearGradient><path d="M28.7 86s.9 6.7 7.2 8c8.6 1.7 14.3-2.5 14.3-2.5s.6 1.1 2.2.7c1.3-.3 4-1 4.6-2 .8-1.3.7-2.4.7-2.4l.1 1.4q0 2-.2 3.8c-.2 1.3-.8 3.1-.8 3.1-1.8.5-3.5 2.7-2.5 5.7A15.4 15.4 0 0 0 69.7 112q4.1-.3 8.3-1.3.8-.3 1.4 0c1.1 1.6-1.5 4.2-2.2 5 5.4 2.9 11.4.1 11.7.2s-3 3.6-9.2 3.6c-2.8 0-5.6-1-8.3-1.8-2.7-.7-6 .1-7.6-2.2-1-1.3-3.4-.3-5.1-1.3-3.4-1.9-11.4-6.8-15.2-8.4-3.2-1.3-3.9-1.5-5.1-1.9-4.1-1.1-7.9 1.7-11-2.5-1.7-2.3 1-6.3 1-6.3-1.8-4.6.3-9 .3-9" style="fill:url(#j)"/><linearGradient id="k" x1="91.7" x2="101" y1="29.1" y2="6.3" gradientTransform="matrix(1 0 0 -1 0 128)" gradientUnits="userSpaceOnUse"><stop offset="0" style="stop-color:#f78c1f"/><stop offset="1" style="stop-color:#ed6d23"/></linearGradient><path d="M83.4 93.6c-3 1.2-.6 5.2.6 7.5 1.8 3.5 3 13.4 5.4 17.4 3.1 5.4 11.6 7 15.2 4.4 3-2.2 4-10.2.4-16.8-6.1-11-7.9-12.6-8.7-14.5-2.9-6.4-5.7-5-5.7-5z" style="fill:url(#k)"/><linearGradient id="l" x1="62.5" x2="90.1" y1="10.8" y2="10.8" gradientTransform="matrix(1 0 0 -1 0 128)" gradientUnits="userSpaceOnUse"><stop offset="0" style="stop-color:#8d5738"/><stop offset=".5" style="stop-color:#a56c43"/></linearGradient><path d="M90.1 116.7c0-.6-.2-1.3-1.8-.7-4 1.6-7 2.7-11.5 1 .5.3 6-4.3 2.7-6.6-1.3-.5-4.2 2.7-7.1 3-2.9-.2-6.4-.3-8.9 2.3l-1 8.3c2.6 0 14.7.4 19.5-.3 2.8-.7 7.5-3 8.1-7" style="fill:url(#l)"/><linearGradient id="m" x1="97.2" x2="84" y1="-46.8" y2="-30.6" gradientTransform="matrix(.99 .143 .143 -.99 .38 35)" gradientUnits="userSpaceOnUse"><stop offset="0" style="stop-color:#8d5738"/><stop offset=".5" style="stop-color:#a56c43"/></linearGradient><path d="M79 70c-.9-.2-2.6-.1-2.9.7-.6 1.6 1.2 2.6 2.3 2.9l3.9.8 1.7 3s-3.8-1.1-5.5-1.2c-2.2 0-5 1.2-6.5 1.8-2 .9-.6 3.2 1.6 3.1a13 13 0 0 0 3.9-.8l2.5 1c-1 0-4 .3-4.6 2-.7 2 .6 3.5.6 3.5s-.8 1 0 2.7c.6 1.4 2.5 2.4 4.3 2.5a5 5 0 0 0 4.8 3.4c3 0 5.4-2 6.5-4 1.3-2.6 1.6-6-.7-11.1-1.3-3-3.6-7.8-5.6-8.7-2.5-1.2-2.8-1.1-6.3-1.6" style="fill:url(#m)"/><path d="m78.9 91.7 1.4.3q.6 1.7 1.8 2.4c-.3-.3-.8-1.2-.8-1.4-.3-1.3 0-1.8.3-2.6q.7-1.1.1-1.5c-.4-.3-2 .2-2.4.3 0 0 1 1 .6 1.8q-.3.6-1 .7M76 86.8s1.8-2 6.1-1.6c0 0-1.3-1-3.2-.7-2.2.3-2.9 2.3-2.9 2.3m4-5.5h2.7s-1.7-.7-2.7-.8l-2.5-.2z" style="fill:#875334"/><path d="m77.4 32.3-4.6.7-24.9 4-4.5.6c-3.7.6-6.2 4.3-5.6 8.2s4.1 6.6 7.8 6l4.6-.7L75 47.2l4.6-.7c3.7-.6 6.2-4.3 5.5-8.2s-4-6.6-7.7-6" style="fill:#7a4c32"/><path d="M82 34a26 26 0 0 0-21.3-21.7 18 18 0 0 0-5.3.1q-2.3.5-4.8 2c-7 4.2-14 14.3-11.2 28.3 3.1 15.7 13 22.2 23 21.8q1.8 0 3.5-.4C77 61.8 85.5 51.5 82 34" style="fill:#a56c43"/><path d="M54.3 35.2c-.7-.8-2.3-1.7-5-1.3-2.7.5-3.9 1.8-4.4 2.7q-.2.6.2 1t1.2 0c.9-.4 1.6-1 3.4-1.2 1.8-.3 3 .1 3.6.2s1-.2 1.2-.4q.2-.5-.2-1m21.1-3.4c-.7-.7-2.3-1.6-5-1.2s-4 1.8-4.4 2.7q-.2.6.2 1t1.2 0c.8-.4 1.6-1 3.4-1.2q2.7-.3 3.6.2.9 0 1.2-.4t-.2-1" style="fill:#42312c"/><path d="M68.3 50.5a17 17 0 0 1-10.8 1.7c-1.3-.6-2.3.7-1.7 1.7.7 1 4.7 2.8 7.8 2.3 3.2-.5 6.4-3.5 6.7-4.6.4-1.1-1-2-2-1.1" style="fill:#473530"/><path d="M64.3 44.4h-.2l-4.5.7h-.2q-.7.5-.3 1.2c.4.7 1.3 1.5 3.2 1.2a3 3 0 0 0 2.6-2.2q0-.6-.6-1" style="fill:#875334"/><path d="M50.6 42.7q-2 .2-3.5-.3-.6-.3-.4.4c.5 1.6 2.3 2.6 4.3 2.3s3.4-1.9 3.4-3.5q0-.6-.6-.3-1 1-3.2 1.4m21.2-3.3q-2 .2-3.5-.3-.6-.2-.5.4c.5 1.5 2.4 2.5 4.4 2.2s3.4-1.8 3.4-3.4q0-.7-.6-.3-1.2 1-3.2 1.4" style="fill:#42312c"/><path d="M83.2 14.3c-2-2-6-4.7-9.1-4.4C73 7 69.5 5 66 4.5c-8.8-1.3-13.8 2.6-16.5 4.7-.5.5-4.1 3.3-7.1 2.2-2-.7-2.3-3.4-2.3-3.4s-5.1 3-2.3 8.4a6 6 0 0 0-5 4.4 9 9 0 0 0 .5 7 7 7 0 0 0-1 8.5c1.6 2.6 6 3.3 6 3.3a23 23 0 0 0 2.7 9.3q.3.3.4-.1c.3-2.6 1-11.8.5-13.3 0 0 7-2.6 13-8.8q2-2 4.2-3.3c8-4.9 10.9.7 10.9.7s5.8-2.1 9 5.9c1.1 3 2.4 8 3.4 11.4 0 .2.4.2.4 0 .4-1.5 1.2-4.5 1-7.3 0-1 2.4-2.8 2.9-7.2.6-6-2.2-11-3.6-12.6" style="fill:#3c2c23"/><radialGradient id="n" cx="73.5" cy="117.6" r="23" gradientTransform="matrix(.457 .89 .66 -.34 -40.19 2.53)" gradientUnits="userSpaceOnUse"><stop offset=".7" style="stop-color:#554138;stop-opacity:0"/><stop offset="1" style="stop-color:#554138"/></radialGradient><path d="M83.9 34c0-1 2.4-2.7 2.8-7l.1-1.5a18 18 0 0 0-3.6-11.2 14 14 0 0 0-8.4-4.4h-.7s.4 1.4 0 2.6a4 4 0 0 1-1.9 2.1c9 6.4 9.4 12.9 11.7 19.5" style="fill:url(#n)"/><radialGradient id="o" cx="51.1" cy="142.7" r="6" gradientTransform="rotate(19 -478.3 -99.5)scale(1 -1.186)" gradientUnits="userSpaceOnUse"><stop offset=".6" style="stop-color:#554138"/><stop offset="1" style="stop-color:#554138;stop-opacity:0"/></radialGradient><path d="m51.3 8-1.7 1.2c-.5.4-4.1 3.3-7.1 2.2-2-.7-2.3-3.3-2.3-3.4-.7 1.1-1.9 8.6 5.1 8 3-.3 4.5-3.2 5.2-5.6z" style="fill:url(#o)"/><radialGradient id="p" cx="135.8" cy="49.6" r="18.5" gradientTransform="matrix(-.99 -.238 -.13 .557 200.66 20.27)" gradientUnits="userSpaceOnUse"><stop offset=".7" style="stop-color:#554138;stop-opacity:0"/><stop offset="1" style="stop-color:#554138"/></radialGradient><path d="M65.3 4.4q7 .9 8.8 5.6c.4.8 2 9.5-16.1 2.3-6.8-2.6-5.5-5.2-4.8-5.6a20 20 0 0 1 12-2.3" style="fill:url(#p)"/><radialGradient id="q" cx="48.7" cy="137.2" r="5.5" gradientTransform="rotate(170.7 3.62 94)scale(-1 1.223)" gradientUnits="userSpaceOnUse"><stop offset=".7" style="stop-color:#554138;stop-opacity:0"/><stop offset="1" style="stop-color:#554138"/></radialGradient><path d="M40.1 8c-.5.4-4.9 3.3-2.2 8.4h5C38 12.7 40.3 8 40.3 8" style="fill:url(#q)"/><radialGradient id="r" cx="47.9" cy="127.4" r="10.4" gradientTransform="rotate(5.8 956.5 983.07)scale(-1 .936)" gradientUnits="userSpaceOnUse"><stop offset=".7" style="stop-color:#554138;stop-opacity:0"/><stop offset="1" style="stop-color:#554138"/></radialGradient><path d="M41 16.4h-3l-.8.2a6 6 0 0 0-4.3 4.2 9 9 0 0 0 .6 7s1.3-1.6 5-2.3z" style="fill:url(#r)"/><radialGradient id="s" cx="45.4" cy="117.4" r="10.9" gradientTransform="rotate(-1.4 8137.23 18)scale(1 -1.405)" gradientUnits="userSpaceOnUse"><stop offset=".6" style="stop-color:#554138;stop-opacity:0"/><stop offset="1" style="stop-color:#554138"/></radialGradient><path d="M33.3 28a7 7 0 0 0-.7 8.4c1.6 2.6 5.8 3.2 5.8 3.2h1.2l-1.3-14.1q-3 .6-4.8 2.2z" style="fill:url(#s)"/></svg>