<svg xml:space="preserve" width="16" height="16" viewBox="0 0 128 128"><linearGradient id="a" x1="64" x2="64" y1="119.5" y2="39.9" gradientTransform="matrix(1 0 0 -1 0 128)" gradientUnits="userSpaceOnUse"><stop offset="0" style="stop-color:#424242"/><stop offset=".3" style="stop-color:#353535"/><stop offset=".8" style="stop-color:#131313"/><stop offset="1" style="stop-color:#000"/></linearGradient><path d="M120 88H8a4 4 0 0 1-4-4V12a4 4 0 0 1 4-4h112a4 4 0 0 1 4 4v72a4 4 0 0 1-4 4" style="fill:url(#a)"/><linearGradient id="b" x1="64" x2="64" y1="119.5" y2="39.9" gradientTransform="matrix(1 0 0 -1 0 128)" gradientUnits="userSpaceOnUse"><stop offset="0" style="stop-color:#bfbebe"/><stop offset=".1" style="stop-color:#212121;stop-opacity:0"/><stop offset=".8" style="stop-color:#212121;stop-opacity:0"/><stop offset="1" style="stop-color:#bfbebe"/></linearGradient><path d="M120 88H8a4 4 0 0 1-4-4V12a4 4 0 0 1 4-4h112a4 4 0 0 1 4 4v72a4 4 0 0 1-4 4" style="opacity:.3;fill:url(#b)"/><linearGradient id="c" x1="4.8" x2="124.1" y1="80" y2="80" gradientTransform="matrix(1 0 0 -1 0 128)" gradientUnits="userSpaceOnUse"><stop offset="0" style="stop-color:#bfbebe"/><stop offset=".1" style="stop-color:#212121;stop-opacity:0"/><stop offset=".9" style="stop-color:#212121;stop-opacity:0"/><stop offset="1" style="stop-color:#bfbebe"/></linearGradient><path d="M120 88H8a4 4 0 0 1-4-4V12a4 4 0 0 1 4-4h112a4 4 0 0 1 4 4v72a4 4 0 0 1-4 4" style="opacity:.3;fill:url(#c)"/><path d="M12 16h24v4H12zm74 0h16v4H86zm22 0h8v4h-8zM20 28h8v4h-8zm-8 12h16v4H12zm0 12h8v4h-8zm86 0h12v4H98zm6-12h12v4h-12zM12 64h16v4H12zm84 0h20v4H96zm4-36h12v4h-12z" style="fill:#76ff03"/><linearGradient id="d" x1="5.6" x2="22.5" y1="9.8" y2="9.8" gradientTransform="matrix(1 0 0 -1 0 128)" gradientUnits="userSpaceOnUse"><stop offset="0" style="stop-color:#a0f"/><stop offset="1" style="stop-color:#9500e0"/></linearGradient><path d="M7.6 124h12.9c1-.1 2-1.2 2-2.5v-.7c0-3.6-1.6-6.7-4-8.4v.4c0 4.1-2 7.4-4.4 7.4s-4.5-3.3-4.5-7.4v-.4c-2.4 1.7-4 4.8-4 8.4v.7c0 1.3 1 2.4 2 2.5" style="fill:url(#d)"/><path d="M14 120.2c9 0 4.4-3.3 4.4-7.4v-.4q-1.9-1.5-4.4-1.5c-2.5 0-3 .5-4.4 1.5v.4c0 4.1-4.6 7.4 4.4 7.4" style="fill:#7600b3"/><linearGradient id="e" x1="20.4" x2="10.7" y1="15.1" y2="28.9" gradientTransform="matrix(1 0 0 -1 0 128)" gradientUnits="userSpaceOnUse"><stop offset="0" style="stop-color:#cca47a"/><stop offset=".5" style="stop-color:#e0bb95"/></linearGradient><path d="M28 106.8c-.1-2.8-2.2-8.7-5-9.2l-.4-.2c-.5-.7-1.9-2.5-4.5-1.1Q16.6 97 17 98q-.1.2-.7.2-1.5-1.9-3.8-.3c-1.7 1.3-1.7 2.3-1.4 3.2 0 0 0 .7-.5.6q-.7-.7-2.1.3c-2.6 1.9-1.6 3.6-1.1 4.7l-.3.2q-.6-.3-1.4.1c-1.4.8-1.2 3.4-.8 4.2l3.6 5.2.6.4c.7.4 2 1 3.2.2 0 0 .8-.6.8-1.1 1.3.7 3.1-.7 3.1-.7q1.3-1 1-2 .8.4 1.4.4c1.4 0 2.6-.8 2.6-.8 2-1 2.4-2.2 2.4-3 1 .6 2.2.1 2.2.1 2.3-1 2.2-3.1 2.2-3.1" style="fill:url(#e)"/><linearGradient id="f" x1="99.2" x2="120.8" y1="9.2" y2="9.2" gradientTransform="matrix(1 0 0 -1 0 128)" gradientUnits="userSpaceOnUse"><stop offset="0" style="stop-color:#a0f"/><stop offset="1" style="stop-color:#9500e0"/></linearGradient><path d="M108 124h12.8s.6-9.8-15.2-10.3S108 124 108 124" style="fill:url(#f)"/><linearGradient id="g" x1="141.6" x2="131.9" y1="10.2" y2="24" gradientTransform="matrix(-1 0 0 -1 248.64 128)" gradientUnits="userSpaceOnUse"><stop offset="0" style="stop-color:#cca47a"/><stop offset=".5" style="stop-color:#e0bb95"/></linearGradient><path d="M99.5 111.6c0-2.8 2.2-8.7 5-9.1l.4-.3c.4-.7 1.8-2.5 4.4-1q1.5.7 1.1 1.6.3.3.7.2 1.5-1.8 3.8-.2c1.7 1.3 1.7 2.2 1.4 3.2 0 0 0 .6.6.6q.6-.8 2 .2c2.7 2 1.6 3.7 1.1 4.7l.4.2q.4-.3 1.3.2c1.4.7 1.2 3.3.8 4.2s-2.8 4.2-3.6 5.1l-.6.4c-.7.5-2 1-3.2.3 0 0-.7-.6-.8-1.2-1.3.7-3.1-.6-3.1-.6q-1.2-1-1-2l-1.4.3c-1.4 0-2.6-.7-2.6-.7-2-1.1-2.4-2.3-2.3-3-1 .6-2.3 0-2.3 0-2.2-1-2.1-3-2.1-3" style="fill:url(#g)"/><path d="m116.2 121.6-.4-.4h-.1q-.6-.4.4-1.8c2-2.7 2.7-4.7 2.7-4.7.6-1.4.4-1.6.4-1.6-.2-.3-.6.6-.6.6a26 26 0 0 1-4 5.8l-.4.1-.1.1h-.4l-.2.1h-.5l-1-.5v-.1l-.2-.2-.2-.2-.2-.3v-.4h-.1v-.9l.1-.4v-.1c2.3-3.2 3.5-6 3.5-6 .4-.8.5-1.7.5-1.7-.2-.4-.6.3-.6.3-2.6 4.8-4.1 6.7-4.1 6.7s-1.3 2.1-3.9.6c0 0-1.3-.9-1.5-1.5q-.5-.7.3-2.6s1.6-3.2 4.2-7.3c0 0 .2-.6-.4-.3l-1 1s-1.5 2.1-3.7 6.3c0 0-.5 1-1.1 1.4q-1 .4-2-.5c-1.8-1.2-1.2-3-.2-4.9l3.2-5.1q.5-.1.8-.5c.9-1.4.2-2.7-1-.7-3.2.5-5.5 6.7-5.6 9.7 0 .1 0 2.6 2.5 3.7.1 0 1 .4 2 .2q.3 1.3 2.5 2.7s1.5.9 3 .8h.8q.2.7 1.2 1.5c0 .1 1.6 1.3 3.1 1l.8.8q.7.5 1.5.5h.4q1 0 2-.7a16 16 0 0 0 3.8-5.9s-3.3 5.8-6.2 5.3m-87.8-15.3c0-3-2.3-9.2-5.5-9.7-1.2-2-2-.7-1 .7q.2.3.8.5l.3.1 2.8 5c1 1.9 1.6 3.7 0 5q-1.3.7-2.2.4c-.5-.5-1-1.4-1-1.4a56 56 0 0 0-3.8-6.2q-.3-.5-1-1c-.6-.4-.4.2-.4.2 2.6 4.1 4.2 7.4 4.2 7.4q.9 1.8.4 2.6c-.3.5-1.6 1.4-1.6 1.4-2.6 1.6-3.8-.5-3.8-.5s-1.6-2-4.2-6.8c0 0-.4-.7-.6-.2l.5 1.6s1.2 2.8 3.5 6v.1l.1.4v1.2l-.1.1-.1.3h-.1l-.2.3-.5.4-.6.2H14l-.4.1h-.5l-.2-.1-.4-.2c-.6-.7-2-2.2-4-5.8 0 0-.4-.9-.6-.6 0 0-.2.3.4 1.6 0 0 .8 2 2.8 4.7q.9 1.4.3 1.8l-.5.4c-2.8.5-6.2-5.4-6.2-5.4 0 .5 2.2 4.9 3.8 6q1 .6 2 .6h.4q.7 0 1.5-.4l.8-1c1.5.4 3-.8 3.1-.8q1-.8 1.2-1.7l.8.2a6 6 0 0 0 3-.9q2.2-1.4 2.5-2.7c1 .2 2-.1 2-.1 2.6-1.2 2.5-3.7 2.5-3.8" style="fill:#ba8f63"/><path d="M64.6 2.9c-41 0-40.7 37.9-40.7 38.5 0 24.6 1.9 59.2 11.7 72.9C39.5 119.7 47 120 47 120h34s7.5-.3 11.4-5.7c9.8-13.7 11.7-48.3 11.7-73 0-.5 1.5-38.4-39.5-38.4" style="fill:#ab872f"/><radialGradient id="h" cx="64" cy="69.6" r="47.5" gradientTransform="matrix(1 0 0 -1.19 0 141.22)" gradientUnits="userSpaceOnUse"><stop offset=".8" style="stop-color:#bfa055;stop-opacity:0"/><stop offset="1" style="stop-color:#bfa055"/></radialGradient><path d="M64.6 2.9c-41 0-40.7 37.9-40.7 38.5 0 24.6 1.9 59.2 11.7 72.9C39.5 119.7 47 120 47 120h34s7.5-.3 11.4-5.7c9.8-13.7 11.7-48.3 11.7-73 0-.5 1.5-38.4-39.5-38.4" style="fill:url(#h)"/><path d="M64 16c-17.2 0-33.1 12.7-33.1 39.9A40 40 0 0 0 56 94.7a24 24 0 0 0 7.9 1.5q3.6 0 7.8-1.5A40 40 0 0 0 97.1 56c0-27.2-16-40-33.1-40" style="fill:#e0bb95"/><path d="m67.8 68-.3-.1h-7.3q-1.1.5-.7 1.7c.4 1.2 1.7 2.6 4.5 2.6a5 5 0 0 0 4.5-2.6q.4-1.2-.7-1.6" style="fill:#c48e6a"/><ellipse cx="47.7" cy="58.8" rx="4.9" ry="5" style="fill:#5d4037"/><ellipse cx="80.2" cy="58.8" rx="4.9" ry="5" style="fill:#5d4037"/><path d="M55 49.7c-1-1.2-3.1-3-7.3-3s-6.3 1.8-7.2 3q-.5 1 0 1.6t1.9.4c1.5-.2 2.5-1.2 5.3-1.2s4.5.9 5.4 1.2 1.6 0 1.9-.4q.5-.6 0-1.6m32.5 0c-1-1.2-3.1-3-7.3-3s-6.3 1.8-7.2 3q-.5 1 0 1.6t1.9.4c1.5-.2 2.5-1.2 5.3-1.2s4.5.9 5.4 1.2 1.6 0 1.9-.4q.5-.6 0-1.6" style="fill:#ab872f"/><linearGradient id="i" x1="64" x2="64" y1="53.5" y2="-14.9" gradientTransform="matrix(1 0 0 -1 0 128)" gradientUnits="userSpaceOnUse"><stop offset="0" style="stop-color:#4dd0e1"/><stop offset="1" style="stop-color:#00bcd4"/></linearGradient><path d="M110 124V81.2c0-3.6-3-6.5-6.5-6.5h-79a6.5 6.5 0 0 0-6.5 6.5V124z" style="fill:url(#i)"/><linearGradient id="j" x1="64" x2="64" y1="35.4" y2="-3.9" gradientTransform="matrix(1 0 0 -1 0 128)" gradientUnits="userSpaceOnUse"><stop offset="0" style="stop-color:#00bcd4"/><stop offset="1" style="stop-color:#0097a7"/></linearGradient><path d="m79 124-2.1-6.4a89 89 0 0 1-2.2-18c-.1-3.3-3-6-6.4-6h-8.6a6.4 6.4 0 0 0-6.4 6 89 89 0 0 1-2.2 18L49 124z" style="fill:url(#j)"/><path d="M64.6 2.9c-41 0-40.7 37.9-40.7 38.5q0 11.9.7 25.3h6.8c-.1-3 2-21 8-22.3 22.4-5 35-17 35-17 3.3 7.2 13.6 14.3 17.3 17 3 2.1 4.3 18.5 4.2 22.3h7.4v-.2c.6-8.7.8-17.4.8-25.1 0-.6 1.5-38.5-39.5-38.5" style="fill:#ab872f"/><radialGradient id="k" cx="64.3" cy="65.5" r="49.8" gradientTransform="matrix(1 0 0 -1.214 0 142)" gradientUnits="userSpaceOnUse"><stop offset=".8" style="stop-color:#bfa055;stop-opacity:0"/><stop offset="1" style="stop-color:#bfa055"/></radialGradient><path d="M64.6 2.9c-41 0-40.7 37.9-40.7 38.5q0 11.9.7 25.3h6.8c-.1-3 2-21 8-22.3 22.4-5 35-17 35-17 3.3 7.2 13.6 14.3 17.3 17 3 2.1 4.3 18.5 4.2 22.3h7.4v-.2c.6-8.7.8-17.4.8-25.1 0-.6 1.5-38.5-39.5-38.5" style="fill:url(#k)"/></svg>