<svg xml:space="preserve" width="16" height="16" viewBox="0 0 128 128"><path d="M16.7 30c7.5-9.9 18.8-4 22-1.8s10.3 5.1 14.2 4 5.6-7 3.2-8.7c-3.1-2.3-5.5 0-5.4 2 0 1 .7 2.7-.7 3-.8.3-1.6-.7-2-1.9a6 6 0 0 1 1-4.8c2.5-4.2 10.5-3.1 11.8 2.7a9.3 9.3 0 0 1-6.1 10.8c-5.4 2-13-.3-16.5-3-4.4-3.4-13-5.5-17.5 0-6.7 7.7 6.7 22.6 6.7 22.6l-5.2 4.2-4.6-9.5c-3-6.2-5.2-13.8-.9-19.6" style="fill:#78de89"/><path d="m38 65.2-12.2 1.7s.8 2.4 1 4.2c.4 1.8.7 5.6-.6 6.4-2.3 1.5-5-2-11.8-1.2-3.8.5-9.3 2.6-9.8 7.6-.5 5.5 5.4-.6 9.8-1 3.2-.3 4.2 3.4 4.2 3.4s7.9 6.6 8.4 5.7a507 507 0 0 1 22.5-17.7z" style="fill:#d43330"/><path d="M22.8 67.4s-.6 5.6 1.2 6.1 2.8-2.8 2.8-2.8 1.6-.3 4.6-.3c1.8 0 4.3.7 4.3.7s-.6 2.4 1 3.3c2 1 6-6.4 6-6.4l-14.1-2.5zm-3.4 20.8 1.2-5.2c.2-.9.8-3 1.8-3.2s2.2 1.6 2.2 1.6l4.3-3c.8-.5 3.4-1.5 3.4-1.5s0-2.4 1.3-2.6c2.5-.4 3.1 4.5 3.1 4.5L26 90z" style="fill:#fffafe"/><path d="M23 96.4s1 4.9 9 9.7 13 5.6 16 5.9 5.9.3 5.9-1.1c0-1-2.1-2.3-4.8-2.9q-4.1-.7-3.1-2.3c1.2-2 7.7 2 13 3 5.4.8 16.1 3.4 17-.8s-7-1.3-7.4-4.2 8-2.7 13.1-1c5.2 1.7 9.7 6.3 11.7 6.6s3.4-1.2 2.8-3.5q-.8-3.8-5-6.6c-4.2-2.8-16-7.2-16-7.2l-28.7-2.1-10.5.3z" style="fill:#bcce46"/><linearGradient id="a" x1="131.4" x2="63.1" y1="52.4" y2="69.6" gradientUnits="userSpaceOnUse"><stop offset=".2" style="stop-color:#01ab46"/><stop offset=".5" style="stop-color:#128a3c"/><stop offset="1" style="stop-color:#2f502a"/></linearGradient><path d="M32.2 51.6s-1.3-8.6 3-12.1S43.6 37 46.3 37s9.4 2.4 18.9 1.6c10-1 18.7-5.3 27.4-6.4s15.8 1 15.5 4c-.3 3.2-13 1.8-12.1 5s18.4-2.5 19.7 2.7c1.3 5.5-9 2-8.9 5 .3 4.7 14.8-1.6 16.6 3.9 2.1 6.3-15.5 7-13.2 10.8s12.4-1.1 13.1 3c.6 3.5-2.3 5.8-6.5 6.9-2.9.7-12.5 1-12.4 3.6.2 4.4 8 .4 9.7 2.7 1.9 2.2-3 6.9-11.2 7.3-5.7.3-10.3-1.8-10.4.3-.2 2.1 5.4 2.3 7.6 3.4 3.5 1.7 4.7 3.3 3.2 6.2-1.6 2.8-5-.7-7.3-.9-3.8-.3-8.3 1.1-12 1.1s-10.6-2-10.6-2 1.3 1.3 0 2.5-4.6 1-8.8-1.3q-6.5-3.2-8.6-3a25 25 0 0 1-8.7-.6c-8.7-5.9 3.9-36.5 3.9-36.5z" style="fill:url(#a)"/><path d="M55 46.6s9-3.5 13.6-9.2c3-3.7 5-11.4 9.9-9.1 6.2 2.8-5.1 11.7-3.9 12 1.8.6 7-4 10.4-7.6 3.2-3.6 7.3-5.1 9.4-2.5 2.5 3-1.6 8.1-7.5 11.9a44 44 0 0 1-15 6.4c-3.8.6-11.2.7-11.2.7l-7-.2z" style="fill:#feb30b"/><path d="M67.5 63.7s3.7 2 8.6-2.1q4.3-3.8 11.8-6c5.5-1.3 7.6-.5 10.2-1.4l7.7-2.3c2.5-.7 5 2.9.7 5.2a26 26 0 0 1-8.9 2.8c-1.4.1-5.2 1.1-6.6 1.6-2.8 1-5.6 3.6-5.6 3.6s7-2.6 11.1-3c5-.3 10.4 0 12-1 1.5-.8 5.9-3 7.5-.2s-2.7 6.1-7 7.1-9.4.4-14.1 1.4c-2.8.5-8 2.6-13.7 6.1a26 26 0 0 1-14 4.5c-2.6-.2-7.6 6.8-7.6 6.8l-16.3 2.1-11.4 4s-3.8 7.3-11.3 4.7c-7.4-2.5-5.9-11.8-3.5-12.3s3.5 2.3 5.8 1.6 6.6-6.8 10.6-8.3c3.6-1.3 8.2-1 8.2-6.2s-11.2-4.3-13.7-4c-2.6.2-12.1 3.5-17.5-.7S3.7 48 10.8 46c5.9-1.7 11.2 6 17 6 4.7 0 5.9-3.9 10.6-8 3.6-3 7.6-4.2 10.4-3 2.3 1.2-5.2 3.5-3.8 4 0 0 5-2 9-2s4.7.3 5.2 1.2c.7 1.3-3.8 1.3-2.7 2.4 1.2 1.1 6-.7 9-.2 3.2.6 3.2 2.1 2.4 2.7-.7.6-5.5 1.6-5.6 3 0 1 3 1.2 4.6 3 1.5 1.7 1.3 4.1 1.1 5.4l-.5 3.1" style="fill:#01ab46"/><path d="M46.3 52c-3 .4-8.6-4.4-11.5 2.7-2.4 5.8 5.8 10 10.8 6.1 2.3-1.7 3.6-4 5.4-5.7 1.1-1.2 2.6-2 3-3.2.6-2-4.6-.2-7.7.1M32 93.5s1-6 6.5-7.9 15.2-.3 17.4-1 5.2-1.8 5.9-7.6c.4-4.6-1-5-1.3-11-.4-7 4.2-8.7 5.7-8.6q2.1.2 2.4 1.9l-.2 2.2c0 .1 2.5.5 3 4.5.8 6-3.6 8.6-4 11.7-.3 3.2 0 8.7-5 11.6s-5.4 1.2-9 2.4c-1.5.5-3.9 2-6.7 1.5s-3.6-1.6-7.3-1.6c-2.8 0-7.4 1.9-7.4 1.9" style="fill:#78de8a"/><path d="M42.6 58.2a4 4 0 0 1-5.1 1c-1.5-1-1.4-3.7 0-5.4 1.5-1.8 3.9-2 5.3-.9s1.2 3.6-.2 5.3" style="fill:#2a2c33"/><path d="M12 51.2c-1 1.2 0 2.7.3 3s1.4 1 1.2 1.8-1.4 2.4-.5 3.1 3.2-.7 3.5-3.3c.2-2.7-1-3.9-1.6-4.4s-2-1.2-2.9-.2" style="fill:#44484a"/></svg>