<svg xml:space="preserve" width="16" height="16" viewBox="0 0 128 128"><path d="M103 58.7v8a386 386 0 0 1-1 21.8l-.2 2.2-.6 6.6a184 184 0 0 1-1.8 12.4l-.4 1.9-1.9 7.8-.8 2.8-.4 1-.3.8H32.4q0-.5-.3-.8l-.3-1-.4-1.1-.2-.9-1.9-7.4v-.2l-1-5-.2-1.3q0-.8-.3-1.7a219 219 0 0 1-2.2-23.8l-.2-4.3v-1.2l-.3-8.5v-8.1c0-.6-.4-38.8 39.5-38.8S103 58.1 103 58.7" style="fill:#ab872f"/><radialGradient id="a" cx="64" cy="58.7" r="43.5" gradientTransform="matrix(1 0 0 -1.19 0 139.16)" gradientUnits="userSpaceOnUse"><stop offset=".8" style="stop-color:#bfa055;stop-opacity:0"/><stop offset="1" style="stop-color:#bfa055"/></radialGradient><path d="M103 58.7v8a386 386 0 0 1-1 21.8l-.2 2.2-.6 6.6a184 184 0 0 1-1.8 12.4l-.4 1.9-1.9 7.8-.8 2.8-.4 1-.3.8H32.4q0-.5-.3-.8l-.3-1-.4-1.1-.2-.9-1.9-7.4v-.2l-1-5-.2-1.3q0-.8-.3-1.7a219 219 0 0 1-2.2-23.8l-.2-4.3v-1.2l-.3-8.5v-8.1c0-.6-.4-38.8 39.5-38.8S103 58.1 103 58.7" style="fill:url(#a)"/><linearGradient id="b" x1="64.2" x2="64.2" y1="52.5" y2="1.7" gradientTransform="matrix(1 0 0 -1 0 128)" gradientUnits="userSpaceOnUse"><stop offset="0" style="stop-color:#651fff"/><stop offset=".7" style="stop-color:#5914f2"/><stop offset="1" style="stop-color:#530eeb"/></linearGradient><path d="M113 91.9C99 77.4 68.9 76.4 64.6 76.3H64c-4.4 0-34.6 1.1-48.6 15.6-10.2 10.6-8 20.8-5.9 23.8 4 5.7 14.8 8.3 14.8 8.3h79.9s10.7-2.6 14.7-8.3c2.1-3 4.4-13.2-5.9-23.8" style="fill:url(#b)"/><radialGradient id="c" cx="63.9" cy="19.7" r="38.7" gradientTransform="matrix(1 0 0 -.414 0 116.5)" gradientUnits="userSpaceOnUse"><stop offset=".8" style="stop-color:#000"/><stop offset="1" style="stop-color:#000;stop-opacity:0"/></radialGradient><path d="M64 92.7c-27.3 0-36.2 11-36.2 11l11 6.2q1.3 1 .7 2.4l-.5 1.3L54 124h20l15-10.4-.5-1.3a2 2 0 0 1 .7-2.4l10.8-6.3s-8.7-10.9-36-10.9" style="opacity:.2;fill:url(#c)"/><path d="M64 87h-9v10c0 4.6 4.2 8.2 9 8.2s9-3.6 9-8.1V87z" style="fill:#c48e6a"/><linearGradient id="d" x1="61.8" x2="40.4" y1="9.2" y2="9.2" gradientTransform="matrix(1 0 0 -1 0 128)" gradientUnits="userSpaceOnUse"><stop offset=".5" style="stop-color:#e0bb95"/><stop offset="1" style="stop-color:#cca47a"/></linearGradient><path d="m39 113.6 3.3.2q1.8 0 3.6.5c3.6 1 11.5 3.9 15.8 5q1.7.5 1.8 2.3A2.4 2.4 0 0 1 61 124H34.6z" style="fill:url(#d)"/><linearGradient id="e" x1="67.8" x2="88.3" y1="9.2" y2="9.2" gradientTransform="matrix(1 0 0 -1 0 128)" gradientUnits="userSpaceOnUse"><stop offset=".5" style="stop-color:#e0bb95"/><stop offset="1" style="stop-color:#cca47a"/></linearGradient><path d="m89 113.6-3.3.2q-1.8 0-3.5.5c-3.6 1-11.6 3.9-15.9 5q-1.6.5-1.8 2.3A2.4 2.4 0 0 0 67 124h26.5z" style="fill:url(#e)"/><path d="M64 25.3c-16.7 0-32.1 16.2-32.1 39.6C31.9 88 47.8 99.4 64 99.4S96.1 88 96.1 64.8 80.7 25.3 64 25.3" style="fill:#e0bb95"/><path d="m67.7 83.8-.3-.1h-7.1q-1 .5-.7 1.5c.3 1 1.7 2.3 4.4 2.3s4-1.7 4.4-2.3q.4-1-.7-1.4" style="fill:#c48e6a"/><ellipse cx="47.6" cy="74.8" rx="4.9" ry="4" style="fill:#5d4037"/><ellipse cx="80.4" cy="74.8" rx="4.9" ry="4" style="fill:#5d4037"/><path d="M55 65.8c-1-1.2-3-3-7.2-3s-6.3 1.8-7.3 3q-.5 1 0 1.6t2 .4c1.4-.2 2.4-1.2 5.3-1.2 2.8 0 4.5.9 5.3 1.2q1.4.3 2-.4.4-.7-.1-1.6m32.5 0c-1-1.2-3-3-7.2-3s-6.4 1.8-7.3 3q-.5 1 0 1.6t1.9.4c1.4-.2 2.5-1.2 5.4-1.2 2.8 0 4.4.9 5.3 1.2q1.4.3 1.9-.4t0-1.6M32.4 81.7c.6-5.8 2.8-18.9 7.8-20 21.7-5.1 34-17 34-17 3.2 7.2 13.2 14.2 16.8 17 2.5 1.7 3.5 13.5 3.7 19.6l7.1 2.8h.5V84c.6-8.8.7-17.6.7-25.3 0-.6 1.5-38.8-38.4-38.8S25 58.1 25 58.7c0 7.7.2 16.6.8 25.4h.8z" style="fill:#ab872f"/><radialGradient id="f" cx="64.4" cy="48.2" r="48.4" gradientTransform="matrix(1 0 0 -1.214 0 138.29)" gradientUnits="userSpaceOnUse"><stop offset=".8" style="stop-color:#bfa055;stop-opacity:0"/><stop offset="1" style="stop-color:#bfa055"/></radialGradient><path d="M32.4 81.7c.6-5.8 2.8-18.9 7.8-20 21.7-5.1 34-17 34-17 3.2 7.2 13.2 14.2 16.8 17 2.5 1.7 3.5 13.5 3.7 19.6l7.1 2.8h.5V84c.6-8.8.7-17.6.7-25.3 0-.6 1.5-38.8-38.4-38.8S25 58.1 25 58.7c0 7.7.2 16.6.8 25.4h.8z" style="fill:url(#f)"/><path d="M52.6 16 49.9 5.9M37 22.6 30.3 16m60 7.4 7.4-7.4m-22.3 0 2.7-10.1" style="fill:none;stroke:#b0bec5;stroke-width:4;stroke-linecap:round;stroke-miterlimit:10"/></svg>