<svg xml:space="preserve" width="16" height="16" viewBox="0 0 128 128"><path d="m120.5 85.4-26-17.6c-7.4-3.5-11.8-.5-14 3.3l-7.6 12.6c-2 3.2-2.1 5.9-1.9 10.7l.9 10.1c.4 4.6 2.6 6 5 8l8 5.9s10 7.8 16.6-.7zM101 112.6c-1.8 2.5-7.2 3.8-10.6 1.4-2.4-1.7-7.2-6.2-2.1-13.6l11.4-16.7c7.2-10.3 19.7 1.2 16.4 7z" style="fill:#a06841"/><path d="M26.3 4.8 24 4 5 16a1 1 0 0 0 0 2l4.9 2c1 .5 1.2 1.7.5 2.5l-3.4 4c-.5.7-.2 1.7.6 1.9l4.5 1c1 .3 1.6 1.7 1 2.6l-2.8 3.8a1 1 0 0 0 .8 1.7l4.6.7c1.1.1 1.7 1.6 1.1 2.5l-2.4 4c-.5.6 0 1.5.8 1.6l4.7.4c1.2 0 1.5 1.5 1 2.4l-2.2 4a1 1 0 0 0 1 1.7h4.6c1.2 0 1.8 1.2 1.3 2.3l-2 4.2c-.4.8.2 1.7 1 1.6l4.7-.2c1.2-.1 2 1.2 1.6 2.2l-1.8 4.4a1 1 0 0 0 1.2 1.5l4.6-.6c1.2-.1 2.6.7 2.1 2.1l-1.5 4.5c-.3.8.3 1.7 1.3 1.5l4.6-1c1-.2 1.8.7 1.5 1.8l-1.2 5c-.2.8.6 1.5 1.4 1.3l4.5-1.2c1.4-.5 2.6.3 2.4 1.8l-.8 4.6c-.1.8.7 1.5 1.5 1.2l4.4-1.6c1-.3 2.4 0 2.3 1.2l-.5 5.2c0 .9.8 1.5 1.6 1.1l4.2-1.9c1-.5 2-.1 2 1.7v4.7a1 1 0 0 0 1.7 1l9.9-6c-.2-.1 12.6-32 12.6-32A165 165 0 0 1 26.3 4.8M25 17.4a3.4 3.4 0 1 1-6.7-1.4 3.4 3.4 0 0 1 6.7 1.4" style="fill:#78a3ac"/><path d="m26.3 4.8-19.1 12a1 1 0 0 0 .1 2l4.8 2c1 .5 1.3 1.7.6 2.5L9.5 27a1 1 0 0 0 .5 1.8l4.6 1c1 .3 1.5 1.6.8 2.5L12.9 36a1 1 0 0 0 .7 1.7l4.7.7c1 .2 1.6 1.4 1 2.4l-2.4 3.9a1 1 0 0 0 .8 1.6l4.7.4c1.2.1 1.8 1.3 1.3 2.3l-2.3 4a1 1 0 0 0 1 1.6H27c1.2 0 2 1.2 1.4 2.2l-2.1 4.3c-.4.7.2 1.6 1 1.6l4.8-.3c1.1 0 2 1 1.5 2.1L31.8 69a1 1 0 0 0 1.1 1.5l4.7-.6c1.1-.1 2 1 1.7 2l-1.5 4.5c-.3.8.4 1.6 1.3 1.4l4.6-.9c1-.2 2 .8 1.8 2l-1.2 4.5c-.2.8.6 1.5 1.4 1.3l4.5-1.2q2.2-.5 2 1.8l-.8 4.6c-.2.8.6 1.5 1.4 1.2l4.4-1.6c1.1-.4 2.2.5 2.1 1.6l-.4 4.7c-.1.8.8 1.4 1.5 1l4.3-1.8c1-.5 2.1.2 2.2 1.4v4.6a1 1 0 0 0 1.6 1l10-6c-.3-.1 13.7-29.5 13.7-29.5a170 170 0 0 1-66-61.7M27 18a3.4 3.4 0 1 1-6.7-1.4A3.4 3.4 0 0 1 27 18" style="fill:#c3d9db"/><path d="m26.3 4.8-19.1 12a1 1 0 0 0 .1 2l4.8 2c1 .5 1.3 1.7.6 2.5L9.5 27a1 1 0 0 0 .5 1.8l4.6 1c1 .3 1.5 1.6.8 2.5L12.9 36a1 1 0 0 0 .7 1.7l4.7.7c1 .2 1.6 1.4 1 2.4l-2.4 3.9a1 1 0 0 0 .8 1.6l4.7.4c1.2.1 1.8 1.3 1.3 2.3l-2.3 4a1 1 0 0 0 1 1.6H27c1.2 0 2 1.2 1.4 2.2l-2.1 4.3c-.4.7.2 1.6 1 1.6l4.8-.3c1.1 0 2 1 1.5 2.1L31.8 69a1 1 0 0 0 1.1 1.5l4.7-.6c1.1-.1 2 1 1.7 2l-1.5 4.5c-.3.8.4 1.6 1.3 1.4l4.6-.9c1-.2 2 .8 1.8 2l-1.2 4.5c-.2.8.6 1.5 1.4 1.3l4.5-1.2q2.2-.5 2 1.8l-.8 4.6c-.2.8.6 1.5 1.4 1.2l4.4-1.6c1.1-.4 2.2.5 2.1 1.6l-.4 4.7c-.1.8.8 1.4 1.5 1l4.3-1.8c1-.5 2.1.2 2.2 1.4v4.6a1 1 0 0 0 1.6 1l10-6c-.3-.1 13.7-29.5 13.7-29.5a170 170 0 0 1-66-61.7M27 18a3.4 3.4 0 1 1-6.7-1.4A3.4 3.4 0 0 1 27 18" style="fill:#c9e3e6"/><path d="M120.5 82.1 98.8 67.8c-7.4-3.5-11.8-.5-14.1 3.3l-9.3 14.6c-2 3.1-2.2 5.8-2 10.6l1 10.1c.4 4.7 4.2 7.3 4.9 7.8l10 7.4s8 6.5 14.6-2zm-21.9 24.7c-1.8 2.5-5 4-7.4 2.3s-4-3.3-2-6l9.4-13.9c2-2.8 5.1-4.8 7.6-3.2 2.4 1.7 2.9 5.3 1 8z" style="fill:#a06841"/><path d="m120.5 82.1-21-13.9c-3.1-2-7.2-1-9.2 2.1L80.9 85a16 16 0 0 0-2.3 11l.5 9.5c.3 4 1.4 5.1 5.3 8.2l11 7.4c3 2 7 1 9-2.1l18-27.6c2-3.1 1.2-7.2-1.9-9.2m-18.4 26.3a6 6 0 0 1-8.4 2A6 6 0 0 1 92 102l10.3-16a6 6 0 0 1 8.3-2 6 6 0 0 1 1.7 8.4z" style="fill:#d68b52"/><path d="M44.3 29.1 35 70.2l2.8-.3c1-.2 2 1 1.6 2l-1.5 4.5c-.2.8.5 1.6 1.3 1.4l4.6-.9c1-.2 2 .8 1.8 1.9l-1.2 4.6c-.2.8.6 1.5 1.4 1.3l4.5-1.2q2.2-.5 2 1.8l-.8 4.6c-.2.8.6 1.4 1.4 1.2l1.7-.6 12.6-40.3a178 178 0 0 1-22.8-21" style="opacity:.5;fill:#fff"/></svg>