<svg xml:space="preserve" width="16" height="16" viewBox="0 0 128 128"><path d="M98.9 79.8c-1.2-2.3.3-4.6 3-7.5a25 25 0 0 0 4.7-25.7c0-.1-.9-1.9-.8-2H104a3374 3374 0 0 0-80 0l-2.6 2a25 25 0 0 0 4.7 25.7c2.7 2.9 4.3 5.2 3 7.5s-4.8 2.5-4.8 2.5.8 2.2 2.8 3.5a12 12 0 0 0 5.7 1.4s6.2 8.5 22.3 8.5H73c16 0 22.2-8.5 22.2-8.5 1.6 0 3.8-.3 5.7-1.4 2-1.3 2.8-3.5 2.8-3.5s-3.6-.3-4.8-2.5" style="fill:#543930"/><radialGradient id="a" cx="99.6" cy="45.9" r="23.4" gradientTransform="matrix(1 0 0 .491 -21.06 59.5)" gradientUnits="userSpaceOnUse"><stop offset=".7" style="stop-color:#6d4c41;stop-opacity:0"/><stop offset="1" style="stop-color:#6d4c41"/></radialGradient><path d="M64 95.7v-9.4L92.6 84l2.6 3.2s-6.2 8.5-22.3 8.5z" style="fill:url(#a)"/><radialGradient id="b" cx="76.6" cy="49.4" r="6.9" gradientTransform="rotate(155 84.45 60.4)scale(1 .742)" gradientUnits="userSpaceOnUse"><stop offset=".7" style="stop-color:#6d4c41"/><stop offset="1" style="stop-color:#6d4c41;stop-opacity:0"/></radialGradient><path d="M95.1 83c-4.3-6.4 5.2-8.9 5.2-8.9-1.6 2.1-2.4 3.9-1.4 5.7 1.2 2.2 4.8 2.5 4.8 2.5s-5 4.4-8.6.8" style="fill:url(#b)"/><radialGradient id="c" cx="94.5" cy="69" r="30.4" gradientTransform="rotate(-94.3 89.8 63.26)scale(1 .833)" gradientUnits="userSpaceOnUse"><stop offset=".7" style="stop-color:#6d4c41;stop-opacity:0"/><stop offset="1" style="stop-color:#6d4c41"/></radialGradient><path d="M106.6 46.6c4.3 10.3-.2 21-4.4 25.5-.6.6-3 3-3.6 4.9 0 0-9.5-13.3-12.3-21.1q-1-2.4-1.2-5-.2-2 .9-3.7a111 111 0 0 1 20.1-1.7z" style="fill:url(#c)"/><radialGradient id="d" cx="44.3" cy="69" r="30.4" gradientTransform="rotate(94.3 -.7 99.37)scale(-1 .833)" gradientUnits="userSpaceOnUse"><stop offset=".7" style="stop-color:#6d4c41;stop-opacity:0"/><stop offset="1" style="stop-color:#6d4c41"/></radialGradient><path d="M21.4 46.6c-4.2 10.3.2 21 4.4 25.5.6.6 3 3 3.6 4.9 0 0 9.5-13.3 12.4-21.1q.9-2.4 1.1-5 .1-2-.8-3.7c-1-1.4-2-1-3.5-1-2.8 0-15.5-.7-16.4-.7z" style="fill:url(#d)"/><radialGradient id="e" cx="49.4" cy="45.9" r="23.4" gradientTransform="matrix(-1 0 0 .491 98.88 59.5)" gradientUnits="userSpaceOnUse"><stop offset=".7" style="stop-color:#6d4c41;stop-opacity:0"/><stop offset="1" style="stop-color:#6d4c41"/></radialGradient><path d="M64 95.7v-9.4L35.5 84l-2.6 3.2S39 95.7 55 95.7z" style="fill:url(#e)"/><radialGradient id="f" cx="26.4" cy="49.4" r="6.9" gradientTransform="rotate(205 4.66 51.75)scale(-1 .742)" gradientUnits="userSpaceOnUse"><stop offset=".7" style="stop-color:#6d4c41"/><stop offset="1" style="stop-color:#6d4c41;stop-opacity:0"/></radialGradient><path d="M33 83c4.2-6.4-5.3-8.9-5.3-8.9q2.7 3 1.4 5.7c-1.2 2.2-4.8 2.5-4.8 2.5s5 4.4 8.6.8" style="fill:url(#f)"/><path d="M73.8 112V89.3H54.2V112zm17.5-61.7H36.7c-6 0-10.7 5.2-10.7 11.5s4.8 11.4 10.7 11.4h54.6c6 0 10.7-5.2 10.7-11.5s-4.8-11.4-10.7-11.4" style="fill:#e59600"/><path d="M64 11c-17.4 0-33.5 18.6-33.5 45.4C30.5 83 47 96.2 64 96.2S97.5 83 97.5 56.4C97.5 29.6 81.4 11 64 11" style="fill:#ffca28"/><path d="M54.8 49.7c-1-1.2-3-3-7.2-3s-6.3 1.8-7.3 3q-.5 1 0 1.6t2 .4c1.4-.2 2.5-1.2 5.3-1.2s4.5.9 5.3 1.2q1.4.3 2-.4.4-.6-.1-1.6m32.9 0c-1-1.2-3.1-3-7.3-3s-6.3 1.8-7.2 3q-.5 1 0 1.6t1.9.4c1.5-.2 2.5-1.2 5.3-1.2s4.5.9 5.4 1.2q1.3.3 1.9-.4t0-1.6" style="fill:#6d4c41"/><ellipse cx="47.6" cy="58.7" rx="4.9" ry="5.1" style="fill:#404040"/><ellipse cx="80.4" cy="58.7" rx="4.9" ry="5.1" style="fill:#404040"/><path d="M72.4 76a26 26 0 0 1-16.8 0c-1.8-1-3.7.6-3 2.3s6.5 5.4 11.4 5.4 10.6-3.8 11.3-5.4-1-3.3-2.9-2.2" style="fill:#795548"/><path d="m67.9 68-.4-.1h-7.4q-1 .5-.6 1.7c.3.7 1.7 2.7 4.5 2.7s4.3-2 4.6-2.7q.3-1.2-.7-1.6" style="fill:#e59600"/><path d="M99.3 23.5c-.8-4.8-13.9-13.2-18.8-14.7-13.2-4.2-21.8-2.5-26.4 0-1 .5-7.2 4-11.5 1.5C39.8 8.8 32 21.2 28 23.5c-4.6 2.8-4.2 7.8-3.5 9.8A11 11 0 0 0 21 45.9c1.6 4.4 8.2 6.5 8.2 6.5-.7 10.7 2.2 16 2.2 16s4.7-18.5 4.3-21.3c0 0 7.8-1.6 16.6-6.6 6-3.4 10-7.4 16.7-9 10.2-2.2 12.5 5.2 12.5 5.2s9.4-1.8 12.2 11.2c1.2 5.4 2 14.3 2.6 19.8 0-.5 3.2-6.3 3.8-12.3.2-1.6 4.4-3.6 6.2-10.3 2.4-8.9-.2-18.5-7.1-21.7" style="fill:#543930"/><radialGradient id="g" cx="82.9" cy="84.5" r="33.9" gradientTransform="rotate(252 -7 -7.2)scale(-1 .742)" gradientUnits="userSpaceOnUse"><stop offset=".7" style="stop-color:#6d4c41;stop-opacity:0"/><stop offset="1" style="stop-color:#6d4c41"/></radialGradient><path d="M106.4 45.1c-1.5 5.5-4.6 7.9-5.7 9.4-1.6-9.4-1.3-18.3-12.8-28.8 0 0 2.3-.5 3.4-2.5 1-1.6.6-3.6.6-3.6l1.2.1q3 .6 5.8 2.6l.4 1.2c6.9 3.1 9.5 12.7 7.1 21.6" style="fill:url(#g)"/><radialGradient id="h" cx="38.5" cy="84.7" r="16.9" gradientTransform="rotate(187.8 -2.6 78.52)scale(-1 1.405)" gradientUnits="userSpaceOnUse"><stop offset=".6" style="stop-color:#6d4c41;stop-opacity:0"/><stop offset="1" style="stop-color:#6d4c41"/></radialGradient><path d="M24.4 33.5A11 11 0 0 0 21.2 46c1.7 4.4 8 6.3 8 6.3s1.3.4 2 .4l1.4-22c-3 0-5.9 1-7.8 2.3z" style="fill:url(#h)"/><radialGradient id="i" cx="37.1" cy="95.8" r="12.9" gradientTransform="rotate(15 218 342.87)scale(-1 .936)" gradientUnits="userSpaceOnUse"><stop offset=".7" style="stop-color:#6d4c41;stop-opacity:0"/><stop offset="1" style="stop-color:#6d4c41"/></radialGradient><path d="M32.7 30.9c-3 0-6 .9-7.8 2.2l-.3.2c-.7-2-1-7 3.5-9.8l1.5-1.2a14 14 0 0 1 4.9-1l4.8.6z" style="fill:url(#i)"/><path d="M116.7 53.3c-1.3 0-2.3 1-2.3 2.1v9.2q.2 2 2.3 2.2c2.1.2 2.2-1 2.2-2.2v-9.2c0-1.1-1-2.1-2.2-2.1m-4.5 0c-1.3 0-2.3 1-2.3 2.1v9.2q.2 2 2.3 2.2c2.1.2 2.2-1 2.2-2.2v-9.2c0-1.1-1-2.1-2.2-2.1" style="fill:#e8ad00"/><path d="M114.4 53.3c-1.2 0-2.2 1-2.2 2.1v11.2q.2 2 2.2 2.2c2 .2 2.3-1 2.3-2.2V55.4c0-1.1-1-2.1-2.3-2.1" style="fill:#ffca28"/><ellipse cx="114.4" cy="52.1" rx="2.8" ry="2.6" style="fill:#ffca28"/><path d="M114.4 52a1 1 0 0 1-1-1V13q.1-.9 1-1 1 .1 1 1v38q0 1-1 1" style="fill:#504f4f"/><linearGradient id="j" x1="63.4" x2="63.4" y1="128.3" y2="99.7" gradientTransform="matrix(1 0 0 -1 0 128)" gradientUnits="userSpaceOnUse"><stop offset="0" style="stop-color:#424242"/><stop offset=".5" style="stop-color:#353535"/><stop offset="1" style="stop-color:#212121"/></linearGradient><path d="M115.4 12c-30.8-7.7-52-8-52-8s-21.1.3-52 8v.8a3 3 0 0 0 2.2 2.8C17.3 16.7 25 19 30 20c0 0-1.1 1.7-2 3.5 0 0 10 6 35.3 8.5 25.4-2.6 35.9-8.5 35.9-8.5l-2-3.5c4.5-.7 12.3-3.1 16-4.3a3 3 0 0 0 2.1-2.9z" style="fill:url(#j)"/><linearGradient id="k" x1="63.4" x2="63.4" y1="128.2" y2="97.2" gradientTransform="matrix(1 0 0 -1 0 128)" gradientUnits="userSpaceOnUse"><stop offset="0" style="stop-color:#616161"/><stop offset=".3" style="stop-color:#505050"/><stop offset="1" style="stop-color:#242424"/><stop offset="1" style="stop-color:#212121"/></linearGradient><path d="M63.4 4s-21.1.3-52 8c0 0 35.4 9.7 52 9.4 16.6.3 52-9.4 52-9.4-30.8-7.7-52-8-52-8" style="fill:url(#k)"/><linearGradient id="l" x1="13.3" x2="114.1" y1="110" y2="110" gradientTransform="matrix(1 0 0 -1 0 128)" gradientUnits="userSpaceOnUse"><stop offset="0" style="stop-color:#bfbebe"/><stop offset=".3" style="stop-color:#212121;stop-opacity:0"/><stop offset=".7" style="stop-color:#212121;stop-opacity:0"/><stop offset="1" style="stop-color:#bfbebe"/></linearGradient><path d="M115.4 12c-30.8-7.7-52-8-52-8s-21.1.3-52 8v.8a3 3 0 0 0 2.2 2.8C17.3 16.7 25 19 30 20c0 0-1.1 1.7-2 3.5 0 0 10 6 35.3 8.5 25.4-2.6 35.9-8.5 35.9-8.5l-2-3.5c4.5-.7 12.3-3.1 16-4.3a3 3 0 0 0 2.1-2.9z" style="opacity:.4;fill:url(#l)"/><path d="M114.5 121c0-14.6-21.7-21.6-40.7-23.1l-8.6 11q-.5.6-1.2.6t-1.2-.6l-8.6-11c-10.5.8-40.7 4.7-40.7 23v3.1h101z" style="fill:#212121"/><radialGradient id="m" cx="64" cy="5.4" r="54.2" gradientTransform="matrix(1 0 0 -.525 0 125.44)" gradientUnits="userSpaceOnUse"><stop offset=".6" style="stop-color:#212121"/><stop offset="1" style="stop-color:#616161"/></radialGradient><path d="M114.5 121c0-14.6-21.7-21.6-40.7-23.1l-8.6 11q-.5.6-1.2.6t-1.2-.6l-8.6-11c-10.5.8-40.7 4.7-40.7 23v3.1h101z" style="fill:url(#m)"/></svg>