<svg xml:space="preserve" width="16" height="16" viewBox="0 0 128 128"><path d="M106.6 124H30.4c-1.7 0-4.6 0-8.4-3.5-3-2.8-6.6-5.4-6.5-8.7l82.3-97.4c4.4 0 6.5 1.3 9.3 3 5.4 3.3 5.6 4.9 5.6 6.7V118a6 6 0 0 1-6 6" style="fill:#b9e4ea"/><path d="M69.2 87.6v29H98c3.2 0 5.8-2.5 5.8-5.7V87.6z" style="fill:#82aec0"/><path d="M75.1 116.6c-5.2 0 4.3-21.3 4.3-21.3s24.4-22.4 24.4-6.8-23.5 28.1-28.7 28.1" style="fill:#b9e4ea"/><path d="M85.1 96.4s18.7-1.2 18.7-8.5V20.5c0-3.4-2.4-6-6-6H21.3c-4 0-6 2.6-6 6v90.1a6 6 0 0 0 6 6h52.8c11.5-2.7 11-20.2 11-20.2" style="fill:#f5f5f5"/><ellipse cx="28.1" cy="20.5" rx="3.1" ry="3.5" style="fill:#2f7889"/><path d="M29.6 17.7q-.8-1.4-.8-3.3c0-2.8 1.5-5.1 3.2-5.1s3.2 2.3 3.2 5.1H40C40 8.7 36.4 4 32 4c-4.3 0-7.9 4.7-7.9 10.4q0 3.1 1.3 5.6c.7 1.5 2.2 2.1 3.5 1.4 1.1-.6 1.3-2.5.7-3.7" style="fill:#94d1e0"/><path d="M36.6 6s.6 1.5-.2 3c-.9 1.4-2.6 1.2-2.6 1.2q1.4 1.5 1.4 4.2H40Q39.8 9 36.6 6" style="fill:#2f7889"/><ellipse cx="49.1" cy="20.5" rx="3.1" ry="3.5" style="fill:#2f7889"/><path d="M50.6 17.7q-.8-1.4-.8-3.3c0-2.8 1.5-5.1 3.2-5.1s3.2 2.3 3.2 5.1H61C61 8.7 57.4 4 53 4c-4.3 0-7.9 4.7-7.9 10.4q0 3.1 1.3 5.6c.7 1.5 2.2 2.1 3.5 1.4 1.1-.6 1.3-2.5.7-3.7" style="fill:#94d1e0"/><path d="M57.6 6s.6 1.5-.2 3c-.9 1.4-2.6 1.2-2.6 1.2q1.4 1.5 1.4 4.2H61Q60.8 9 57.6 6" style="fill:#2f7889"/><ellipse cx="70.1" cy="20.5" rx="3.1" ry="3.5" style="fill:#2f7889"/><path d="M71.6 17.7q-.8-1.4-.8-3.3c0-2.8 1.5-5.1 3.2-5.1s3.2 2.3 3.2 5.1H82C82 8.7 78.4 4 74 4c-4.3 0-7.9 4.7-7.9 10.4q0 3.1 1.2 5.6c.7 1.5 2.2 2.1 3.6 1.4 1.1-.6 1.3-2.5.6-3.7" style="fill:#94d1e0"/><path d="M78.6 6s.6 1.5-.3 3c-.8 1.4-2.5 1.2-2.5 1.2q1.4 1.5 1.4 4.2H82c0-3.5-1.4-6.6-3.4-8.5" style="fill:#2f7889"/><ellipse cx="91.1" cy="20.5" rx="3.1" ry="3.5" style="fill:#2f7889"/><path d="M92.5 17.7q-.7-1.4-.7-3.3c0-2.8 1.5-5.1 3.2-5.1s3.2 2.3 3.2 5.1h4.7C102.9 8.7 99.3 4 95 4s-7.9 4.7-7.9 10.4q0 3.1 1.2 5.6c.7 1.5 2.2 2.1 3.6 1.4 1-.6 1.2-2.5.6-3.7" style="fill:#94d1e0"/><path d="M99.5 6s.6 1.5-.2 3c-.8 1.4-2.5 1.2-2.5 1.2q1.3 1.5 1.4 4.2l1.6.1s1.6.2 3.2.8c0 0 .5-6-3.5-9.4" style="fill:#2f7889"/><g style="opacity:.9"><path d="M84.3 104H15.5v-2h69.2c0 1.1-.4 2-.4 2M101 92.2H15.5v-2H103c-.8 1.4-2 2-2 2" style="fill:#4fc3f7"/><path d="M103.8 79.4H15.5m88.3-11.8H15.5m88.3-11.8H15.5M103.8 44H15.5m88.3-11.8H15.5" style="fill:none;stroke:#4fc3f7;stroke-width:2.0063;stroke-miterlimit:10"/></g><g style="opacity:.75"><path d="m112.6 38.1-8.8-5v-2l8.9 5z" style="fill:#2f7889"/></g><g style="opacity:.75"><path d="m112.6 50-8.8-5v-2l8.9 5z" style="fill:#2f7889"/></g><g style="opacity:.75"><path d="m112.6 61.8-8.8-5v-2l8.9 5z" style="fill:#2f7889"/></g><g style="opacity:.75"><path d="m112.6 73.6-8.8-5v-2l8.9 5z" style="fill:#2f7889"/></g><g style="opacity:.75"><path d="m112.6 85.4-8.8-5v-2l8.9 5z" style="fill:#2f7889"/></g><g style="opacity:.75"><path d="m112.6 97.2-8.8-5v-2l8.9 5z" style="fill:#2f7889"/></g><g style="opacity:.75"><path d="m112.6 109-8.8-5v-2l8.9 5z" style="fill:#2f7889"/></g></svg>