<svg xml:space="preserve" width="16" height="16" viewBox="0 0 128 128"><linearGradient id="a" x1="64" x2="64" y1="116.4" y2="-25.2" gradientTransform="matrix(1 0 0 -1 0 128)" gradientUnits="userSpaceOnUse"><stop offset="0" style="stop-color:#eee"/><stop offset="1" style="stop-color:#bdbdbd"/></linearGradient><path d="M63.8 9c-64 0-60 115-60 115h120.4S127.7 9 63.8 9" style="fill:url(#a)"/><path d="M64.6 4.1c-41 0-40.7 39.8-40.7 40.4 0 24.6 1.9 57.4 11.7 71 3.9 5.5 11.4 5.8 11.4 5.8h34s7.5-.3 11.4-5.7c9.8-13.7 11.7-46.5 11.7-71.1 0-.6 1.5-40.4-39.5-40.4" style="fill:#312d2d"/><radialGradient id="b" cx="63.8" cy="57.7" r="50" fx="112.9" fy="57.7" gradientTransform="matrix(0 -1 -.986 0 120.7 134.1)" gradientUnits="userSpaceOnUse"><stop offset=".8" style="stop-color:#454140;stop-opacity:0"/><stop offset="1" style="stop-color:#454140"/></radialGradient><path d="M64.6 4.1c-41 0-40.7 39.8-40.7 40.4 0 24.6 1.9 57.4 11.7 71 3.9 5.5 11.4 5.8 11.4 5.8h34s7.5-.3 11.4-5.7c9.8-13.7 11.7-46.5 11.7-71.1 0-.6 1.5-40.4-39.5-40.4" style="fill:url(#b)"/><linearGradient id="c" x1="64" x2="64" y1="36.6" y2=".5" gradientTransform="matrix(1 0 0 -1 0 128)" gradientUnits="userSpaceOnUse"><stop offset=".2" style="stop-color:#fafafa"/><stop offset=".8" style="stop-color:#e0e0e0"/></linearGradient><path d="M113.1 98a8 8 0 0 0-8.1-2.8c-2.3.6-4.9 1.4-6.5 2.5a7 7 0 0 1-3.7 1.3l-1.8-.3a99 99 0 0 0-29.6-4.3h-.1a105 105 0 0 0-30.8 4q-1.9 0-3.4-1a19 19 0 0 0-7.9-2.5 8 8 0 0 0-6.3 3c-3 3.8-7 9.6-7 13.5 0 3.8 3.4 6.6 3.4 8.5v4.1h103v-4.1c0-1.7 5.7-4.2 5.7-8.5 0-3.9-4-9.6-6.9-13.3" style="fill:url(#c)"/><path d="M78.4 99.5c-3.9-2.3-3.6-8-3.6-8-.5-1.7-2.9-1.4-4.6-1.4H57.9c-1.8 0-4.2-.3-4.7 1.3 0 0 .3 5.8-3.6 8.1-3 1.8-6.6 4.5-6.6 8.3 0 5.4 0 2.8.1 3.7 0 .7 10.5 1 21 1 10.3 0 20.7-.3 20.8-1v-3.7c0-3.8-3.4-6.5-6.5-8.3" style="fill:#edc391"/><path d="M54.5 112c-1.2-3-5 .2-10.3 2.4s-10.2 2.5-9 5.5q.8 1.7 3.6 4h14c2.4-3.8 2.6-9.8 1.7-12" style="fill:#c2185b"/><ellipse cx="44.8" cy="114.5" rx="10.4" ry="4.2" style="fill:#ec407a" transform="rotate(-22.3 44.84 114.52)"/><ellipse cx="45.8" cy="115.3" rx="4" ry="1.6" style="fill:#d81b60" transform="rotate(-22.3 45.82 115.31)"/><path d="M74.7 109.4c.3-1.4 0-2.4 0-2.4-1.5-2-6.4-1.9-11.4-2-4.7-.2-9.4-.8-11.2.8-.7.5-.5 2-.4 2.8.2 4 4.5 14.8 10.7 15.4h1c8.4-.7 10.6-11 11.3-14.6M63.4 124h-1z" style="fill:#c2185b"/><ellipse cx="63.3" cy="107.1" rx="4.1" ry="11.5" style="fill:#ec407a" transform="rotate(-88.2 63.27 107.06)"/><ellipse cx="63.3" cy="107.8" rx="1.5" ry="4.1" style="fill:#d81b60" transform="rotate(-88.2 63.28 107.81)"/><path d="M92.2 119.9c1.2-3-3.7-3.3-9-5.5s-9-5.4-10.3-2.4c-.9 2.1-.6 8.1 1.6 12h14.1a13 13 0 0 0 3.6-4.1" style="fill:#c2185b"/><ellipse cx="83.1" cy="114.6" rx="5.5" ry="10.4" style="fill:#ec407a" transform="rotate(-67.7 83.07 114.64)"/><ellipse cx="83.1" cy="115.8" rx="2.3" ry="4.3" style="fill:#d81b60" transform="rotate(-67.7 83.07 115.76)"/><path d="M61.7 121c-2.3-4.4-9.3-5.1-9.3-5.1s-2.2 4.2-1.6 8.1h11.8q0-1.5-.9-3" style="fill:#2e7d32"/><path d="M49.6 122.4c-4.4-2.1-10.6 1.3-10.6 1.3v.3h12.7a7 7 0 0 0-2-1.6" style="fill:#43a047"/><path d="M77 118.9s-7 .8-9.3 5.1h11c-.5-2.8-1.6-5.1-1.6-5.1" style="fill:#2e7d32"/><path d="M73.1 116.6s-7-.3-10 3.7a8 8 0 0 0-1.4 3.7h12c.7-3.6-.6-7.4-.6-7.4m6.2 6.2-1.7 1.2h12.2c-.7-.4-6.3-3.2-10.5-1.2" style="fill:#43a047"/><path d="M64 16c-17.2 0-33.1 12.8-33.1 40A40 40 0 0 0 56 94.8a24 24 0 0 0 7.9 1.5q3.6 0 7.8-1.5A40 40 0 0 0 97.1 56c0-27.2-15.9-40-33.1-40" style="fill:#f9ddbd"/><ellipse cx="47.6" cy="58.8" rx="4.9" ry="5.1" style="fill:#312d2d"/><ellipse cx="80.4" cy="58.8" rx="4.9" ry="5.1" style="fill:#312d2d"/><path d="M54.8 49.8c-1-1.2-3-3-7.2-3s-6.3 1.8-7.3 3q-.5 1 0 1.6t2 .4c1.4-.2 2.5-1.2 5.3-1.2s4.5.9 5.3 1.2q1.4.3 2-.4.4-.6-.1-1.6m32.9 0c-1-1.2-3.1-3-7.3-3s-6.3 1.8-7.2 3q-.5 1 0 1.6t1.9.4c1.5-.2 2.5-1.2 5.3-1.2s4.5.9 5.4 1.2q1.3.3 1.9-.4t0-1.6" style="fill:#454140"/><path d="M72.4 76.1a26 26 0 0 1-16.8 0c-1.8-1-3.7.6-3 2.3s6.5 5.4 11.4 5.4 10.6-3.8 11.3-5.4-1-3.4-2.9-2.3" style="fill:#444"/><path d="M67.9 68H60q-1 .5-.6 1.7c.3.7 1.7 2.7 4.5 2.7s4.3-2 4.6-2.7q.3-1.2-.7-1.6" style="fill:#dba689"/><path d="m25.3 77.9 9.7.1-.7-16.3v-1c-.1-2.9-1-13.7 5.1-15 22.4-5.1 35-17 35-17C77.7 36 88 43 91.7 45.6c3 2.2 2.6 11.2 2.5 15L93 78h9.7a382 382 0 0 0 1.5-34c0-10.4-1-39.9-39.9-39.9C24 4.1 24 43.7 24 43.7s-.2 8.3.3 18z" style="fill:#312d2d"/><radialGradient id="d" cx="65.2" cy="51.4" r="52.2" gradientTransform="matrix(1 0 0 -1.349 0 145.94)" gradientUnits="userSpaceOnUse"><stop offset=".8" style="stop-color:#454140;stop-opacity:0"/><stop offset="1" style="stop-color:#454140"/></radialGradient><path d="M35 78c-1.2-21.2-2.2-30.8 4.4-32.4 23-5.5 35-16.9 35-16.9C77.7 36 88 43 91.7 45.6c3 2.2 2.6 11.2 2.5 15L93 78h9.7a382 382 0 0 0 1.5-34c0-10.4-1-39.9-39.9-39.9C24 4.1 24 43.7 24 43.7s0 21.3 1.4 34.2z" style="fill:url(#d)"/><linearGradient id="e" x1="64.4" x2="64.4" y1="113.6" y2="103.1" gradientTransform="matrix(1 0 0 -1 0 128)" gradientUnits="userSpaceOnUse"><stop offset=".3" style="stop-color:#fff"/><stop offset="1" style="stop-color:#e0e0e0"/></linearGradient><path d="M103 32c-.6-6-4-11.3-4-11.3S83.5 14 64 14s-33 6.3-33 6.3-4.3 6.7-5.2 11.4c0 0 14.8-9.7 38.2-9.7s39 10 39 10" style="fill:url(#e)"/></svg>