<svg xml:space="preserve" width="16" height="16" viewBox="0 0 128 128"><path d="M48.8 5.6C8.3 5.6 8.5 42.3 8.5 43c-.1 23.9 1.6 57.8 11.4 71.2 3.9 5.4 11.4 5.7 11.4 5.7h34s7.4-.3 11.3-5.7c9.8-13.4 11.5-47.3 11.5-71.2 0-.6 1.3-37.3-39.3-37.3" style="fill:#543930"/><radialGradient id="a" cx="50.8" cy="68.2" r="46.4" gradientTransform="matrix(1.015 0 0 -1.19 -3.31 140.97)" gradientUnits="userSpaceOnUse"><stop offset=".8" style="stop-color:#6d4c41;stop-opacity:0"/><stop offset="1" style="stop-color:#6d4c41"/></radialGradient><path d="M48.8 5.6C8.3 5.6 8.5 42.3 8.5 43c-.1 23.9 1.6 57.8 11.4 71.2 3.9 5.4 11.4 5.7 11.4 5.7h34s7.4-.3 11.3-5.7c9.8-13.4 11.5-47.3 11.5-71.2 0-.6 1.3-37.3-39.3-37.3" style="fill:url(#a)"/><linearGradient id="b" x1="50.1" x2="50.1" y1="32" y2="4" gradientTransform="matrix(1 0 0 -1 0 128)" gradientUnits="userSpaceOnUse"><stop offset="0" style="stop-color:#651fff"/><stop offset=".7" style="stop-color:#5914f2"/><stop offset="1" style="stop-color:#530eeb"/></linearGradient><path d="M96.3 124v-2.9c0-16.7-23.6-25.1-47.7-25.1-18.3 0-36.9 4.4-44.6 14.3V124z" style="fill:url(#b)"/><path d="M39 89v10c0 4.4 3.6 8.1 8.2 8.1h1.6c4.6 0 8.3-3.7 8.3-8.2V89z" style="fill:#99674f"/><path d="M48.3 96.3c17.4 0 33.5-18.6 33.5-45.4S65.2 11 48.3 11 14.7 24.2 14.7 50.9c0 26.8 16.2 45.4 33.6 45.4" style="fill:#ba8d68"/><ellipse cx="31.8" cy="58.8" rx="4.9" ry="5.1" style="fill:#49362e"/><ellipse cx="64.7" cy="58.8" rx="4.9" ry="5.1" style="fill:#49362e"/><path d="M56.7 76.1a26 26 0 0 1-16.8 0c-1.9-1-3.7.6-3 2.3s6.5 5.4 11.4 5.4 10.5-3.8 11.3-5.4-1.1-3.4-3-2.3" style="fill:#5d4037"/><path d="M52.1 68h-7.7q-1 .5-.7 1.7c.3.7 1.7 2.7 4.6 2.7s4.2-2 4.5-2.7q.4-1.2-.7-1.6" style="fill:#99674f"/><path d="M48.8 5.6C8.3 5.6 8.5 42.3 8.5 43c0 7.5 0 16 .6 24.6h6.7c0-2.8 2-20.4 8-21.7a80 80 0 0 0 34.8-16.4c3.3 7 13.5 13.8 17.2 16.4 3 2 4 18 3.9 21.7h7.7v-.1c.5-8.5.7-17 .6-24.5 0-.6 1.4-37.3-39.2-37.3" style="fill:#543930"/><radialGradient id="c" cx="51.1" cy="64.6" r="48.7" gradientTransform="matrix(1.015 0 0 -1.214 -3.31 141.8)" gradientUnits="userSpaceOnUse"><stop offset=".8" style="stop-color:#6d4c41;stop-opacity:0"/><stop offset="1" style="stop-color:#6d4c41"/></radialGradient><path d="M48.8 5.6C8.3 5.6 8.5 42.3 8.5 43c0 7.5 0 16 .6 24.6h6.7c0-2.8 2-20.4 8-21.7a80 80 0 0 0 34.8-16.4c3.3 7 13.5 13.8 17.2 16.4 3 2 4 18 3.9 21.7h7.7v-.1c.5-8.5.7-17 .6-24.5 0-.6 1.4-37.3-39.2-37.3" style="fill:url(#c)"/><g style="opacity:.28"><linearGradient id="d" x1="79.3" x2="71.6" y1="14.5" y2="16.2" gradientTransform="matrix(1 0 0 -1 0 128)" gradientUnits="userSpaceOnUse"><stop offset=".3" style="stop-color:#262626"/><stop offset="1" style="stop-color:#262626;stop-opacity:0"/></linearGradient><path d="M81.5 102.7c-1.6-1.5-7.2-3-7.2-3L68.8 124h9.5z" style="fill:url(#d)"/></g><linearGradient id="e" x1="108.2" x2="100.2" y1="64.1" y2="52.9" gradientTransform="matrix(1 0 0 -1 0 128)" gradientUnits="userSpaceOnUse"><stop offset=".5" style="stop-color:#ba8d68"/><stop offset="1" style="stop-color:#a47b62"/></linearGradient><path d="M91.3 74.2c2.6.2 6.3 1 8.2.6 1.6-.3 2-1.8 3.7-2.2l19.7-4.5c2.2-.5 3-4.5-1.6-5.3S107.4 64 107.4 64s.5-1.4.2-2.4c-1-2.3-4-1.5-5.7-1l-10.6 3c-5.4 1.8-5.1 10.3 0 10.6" style="fill:url(#e)"/><linearGradient id="f" x1="90" x2="90" y1="55.9" y2="10.7" gradientTransform="matrix(1 0 0 -1 0 128)" gradientUnits="userSpaceOnUse"><stop offset="0" style="stop-color:#651fff"/><stop offset=".7" style="stop-color:#5914f2"/><stop offset="1" style="stop-color:#530eeb"/></linearGradient><path d="M102.6 73.7q-.1-1.5-1.6-1.7l-12.8-.8q-1.5 0-1.8 1.6L75.6 124h29z" style="fill:url(#f)"/><path d="M39.2 49.8c-.9-1.2-3-3-7.2-3s-6.3 1.8-7.2 3q-.5 1 0 1.6t1.9.4c1.5-.2 2.5-1.2 5.3-1.2s4.5.9 5.4 1.2q1.3.3 1.9-.4t0-1.6m32.4 0c-.9-1.2-3-3-7.2-3s-6.3 1.8-7.2 3q-.5 1 0 1.6t1.8.4c1.3-.2 2.6-1.2 5.4-1.2s4.5.9 5.3 1.2q1.5.3 2-.4t0-1.6" style="fill:#613e31"/></svg>