<svg xmlns:xlink="http://www.w3.org/1999/xlink" xml:space="preserve" width="16" height="16" viewBox="0 0 128 128"><path d="M65.3 114.8c-3.6-.4-9-.1-14.8-3.7-13.7-8.5-21.8-28.4-27.4-40.6-1.2-2.5-.2-2.9 1.6-2.4 3 .8 8.1 4 9 4.6 23.5 16 38.2 31.2 40 36.5 1.8 5.6-6.1 5.8-8.4 5.6" style="fill:#7cb342"/><defs><path id="a" d="M65.3 114.8c-3.6-.4-9-.1-14.8-3.7-13.7-8.5-21.8-28.4-27.4-40.6-1.2-2.5-.2-2.9 1.6-2.4 3 .8 8.1 4 9 4.6 23.5 16 38.2 31.2 40 36.5 1.8 5.6-6.1 5.8-8.4 5.6"/></defs><clipPath id="b"><use xlink:href="#a" style="overflow:visible"/></clipPath><path d="M77.2 116.1c0-13.6-6.9-17.3-6.9-17.3a113 113 0 0 0-48.5-35.4l-.3 5.5c5.8.2 35.4 27 43.5 38.3 3.2 4.4 3.8 7.5 3.8 7.5z" style="clip-path:url(#b);fill:#bdcf46"/><path d="M44.3 24.6c.6-3.9 6.8-18.4 16.2-19 6.4-.4 14 5.4 15.8 14.5 1.9 8.8 4.3 18 .1 26.2-3.5 6.8-11.4 15-19.8 10-9.4-5.7-14-20-12.3-31.7" style="fill:#eb4e9d"/><path d="M50.5 24.5c.4-2.5 4.3-11.6 10.2-12 4-.3 8.7 3.4 10 9.2 1 5.5 2.6 11.2 0 16.4-2.2 4.3-7.2 9.4-12.5 6.3-5.9-3.6-8.8-12.5-7.7-19.9" style="fill:#f387ab"/><path d="m68.2 111.3-.4 1.3-1 2.4q-.3 1-1.3 1.7-1.4.3-3-.1c-3.7-1.1-2.4-4.7-1.8-7.4a117 117 0 0 0 2.8-16.8c.4-5.9 0-11.7 0-17.6v-2.5h7.4v15.5c-.3 7.8-.4 16-2.7 23.5M54 118.6c1.7-5.3 16.4-20.6 39.9-36.5.9-.6 6-3.8 9-4.6 1.7-.5 2.7 0 1.6 2.4-5.6 12.2-13.7 32.1-27.4 40.6-5.8 3.5-11.2 3.3-14.8 3.7-2.3.2-10.2 0-8.4-5.6" style="fill:#7cb342"/><defs><path id="c" d="M54 118.6c1.7-5.3 16.4-20.6 39.9-36.5.9-.6 6-3.8 9-4.6 1.7-.5 2.7 0 1.6 2.4-5.6 12.2-13.7 32.1-27.4 40.6-5.8 3.5-11.2 3.3-14.8 3.7-2.3.2-10.2 0-8.4-5.6"/></defs><clipPath id="d"><use xlink:href="#c" style="overflow:visible"/></clipPath><path d="M58.8 124s.6-3 3.8-7.4c8-11.4 37.7-38.1 43.4-38.4l-.2-5.4S79.6 81 57.3 108.2c0 0-7 3.7-7 17.3z" style="clip-path:url(#d);fill:#bdcf46"/><path d="M75.6 12.4c2.5-2.6 7.2-6.8 12.1-1.9q-2.4-3.5-4.5-5-3.1-2.3-6.4-.3c-9.7 6.6-16.4 24.4-18 40.3l-.2 3.2A79 79 0 0 1 61.3 36a68 68 0 0 1 14.3-23.7" style="fill:#ea4e9c"/><path d="M96.9 43a72 72 0 0 0-9.2-32.5c-4.9-4.9-9.6-.7-12 1.9a68 68 0 0 0-14.1 22.8c-5.5-8-12.9-16.4-19.3-17.8-2.3-.5-5.1-1-7.9 3.1q-1.5 2.2-2.8 7-1 8.8.7 22.8c1.1 8.6 3.7 13.7 4.6 15.5a26 26 0 0 0 22 14.2 37 37 0 0 0 18.7-2.2c2.3-.5 15-4.6 18.3-18.6.4-2 1.8-7.6 1-16.2" style="fill:#f387ab"/><path d="M42.3 17.4c10.8 2.3 24 24.4 27.1 30.7q.5 1 1.7 5.3c-.8-4.3-1.9-7.8-2.2-8.7-3-8.2-14.6-31.5-25.5-35.7q-3.6-1.3-6.2 1.7c-2.2 2.5-4.7 7.7-5.6 16.8q1.3-4.8 2.8-7c2.8-4.2 5.6-3.6 8-3.1" style="fill:#ea4e9c"/></svg>