<svg xml:space="preserve" width="16" height="16" viewBox="0 0 128 128"><path d="M81.6 27.5c-9-1.4-14.6 2.8-16.3 3.7l-1.3.6-1.3-.6c-1.6-1-7.3-5.1-16.3-3.7C30.4 29.9 12 56 5 67.2c-1.7 2.6-1 6 1.6 7.7a91 91 0 0 1 12.2 9.4A58 58 0 0 0 64 102.9c25 0 35.9-10 45.3-18.6a91 91 0 0 1 12.2-9.4 5.6 5.6 0 0 0 1.6-7.7c-7-11-25.4-37.2-41.5-39.7" style="fill:#ef4d8f"/><path d="M63.9 76.8c-32.7 0-48.1-6.8-48.1-6.8S37 45.5 63.9 45.5s48.2 24.4 48.2 24.4-15.5 6.9-48.2 6.9" style="fill:#bdbdbd"/><path d="M63.9 64c-24.9 0-30.5-8.7-30.5-8.7a74 74 0 0 1 61.4.2s-6 8.5-30.9 8.5" style="fill:#fff"/><path d="M112.1 70S96.6 77 64 77s-48.1-6.8-48.1-6.8 6.5-8.4 16.8-16A54 54 0 0 1 64 42.6c12.3 0 23.4 5.7 31.8 12A89 89 0 0 1 112.1 70" style="fill:none"/><path d="M94.8 55.5a110 110 0 0 1-61.4-.2C22.6 62 15.8 70 15.8 70s15.4 8.7 48.1 8.7 48.2-8.8 48.2-8.8-6.7-7.7-17.3-14.4" style="fill:#3e2723"/><path d="M46.8 86c-2.7-2-1.1-5.4 2.1-4.8a96 96 0 0 0 30.2.5c3.3-.5 4.8 3 2 4.9 0 0-6.9 4-17 4C53 90.6 46.8 86 46.8 86" style="fill:#ff80ab"/></svg>