<svg xml:space="preserve" width="16" height="16" viewBox="0 0 128 128"><path d="M72.6 18.8c-2.4-4.2-8-7.7-12.8-7.1-5.4.6-8.5 4.4-9.5 9.2q-.4 2.8-.1 4.8l.3 1.6c.1 1.3-2.5 2.5-2.9 4-.2 1 2 1.9 2.2 2 .8 1.1-.8 5.8 5.5 6.5 2.1.2 3.5-.1 4.3 0 1.8 0 2.8 6 2.8 6l9.2-5.5s-3.1-4.6-.4-9.2c2.6-3.7 3-9.5 1.4-12.3" style="fill:#e0bb95"/><path d="M50.3 36q1.4.2 2.5-.6c.8-.5.3-1.2-.6-.9q-1 .4-2 .2z" style="fill:#6d4c41"/><ellipse cx="53.8" cy="28.3" rx="1.8" ry="1.1" style="fill:#5d4037" transform="rotate(-89.2 53.76 28.26)"/><path d="M53 25.6c-1.2.2-1.3-.5-1-1q.5-.9 2.4-.4c1.2.3 1.6 1.1 2 1.6q.3.8-.2.9c-.4 0-1.8-1.4-3.2-1m22.6-7c-1.5-3.8-5-4.4-5-4.4s-1.3-6-9.8-4.6c-2.6.4-4.2 2-5.8 2.8-1.3.6-2.7.5-3-1.8q-2.9 1.2-1.6 4.7c-1.7.4-2.3 2-2.7 3.6q-.5 3 2.4 4.4c.4-1.9 2.5-2.7 4.2-2.7 1.5 0 3.3 0 4.2-.2q1.4-.2 1.5 0c.5.4-.8 4.6 1.3 7 .4.6.7.4.7.4l.8-1.2q1-1.4 2-1.3c2.3.5 1.9 4.5-.8 5.4-.3 0 .1 4.3 6.4 4 2-.1 3-1.5 3-1.5s-2.3-1 .6-3.6c2.8-2.5 1-5.4 1-5.4s1.8-2.7.6-5.6" style="fill:#ab872f"/><radialGradient id="a" cx="65.5" cy="107.4" r="13.5" gradientTransform="rotate(77.7 2 -28.09)scale(1 -.742)" gradientUnits="userSpaceOnUse"><stop offset=".7" style="stop-color:#bfa055;stop-opacity:0"/><stop offset="1" style="stop-color:#bfa055"/></radialGradient><path d="M72.5 27.8c1.7-2.2 5-5.2 2.7-9.9a7 7 0 0 0-4.5-3.6s0 .7-.4 1.2c-.4.8-1.6.8-1.6.8 3.8 4.7 3.5 7.7 3.8 11.5" style="fill:url(#a)"/><radialGradient id="b" cx="54.6" cy="121.6" r="3.5" gradientTransform="rotate(204.2 -14.07 65.5)scale(-1 1.186)" gradientUnits="userSpaceOnUse"><stop offset=".6" style="stop-color:#bfa055"/><stop offset="1" style="stop-color:#bfa055;stop-opacity:0"/></radialGradient><path d="M58.8 10.3c-.8.3-2.3 1.3-2.6 1.5s-1.7 1-2.6 1c-1.5-.2-1.6-1.9-1.6-2.2-.2 1-.5 4.8 2.5 4.9 1.7 0 2.7-1.6 3.2-3z" style="fill:url(#b)"/><radialGradient id="c" cx="52.4" cy="117.7" r="3.1" gradientTransform="rotate(176 2.54 80.59)scale(-1 1.223)" gradientUnits="userSpaceOnUse"><stop offset=".7" style="stop-color:#bfa055;stop-opacity:0"/><stop offset="1" style="stop-color:#bfa055"/></radialGradient><path d="M50.4 15.4s1-.3 2.2.2c-1.3-.9-.6-5-.6-5-.3.2-3.1 1.4-1.6 4.8" style="fill:url(#c)"/><radialGradient id="d" cx="41.3" cy="109" r="6.5" gradientTransform="matrix(.916 .136 .177 -1.392 -3.95 167.27)" gradientUnits="userSpaceOnUse"><stop offset=".6" style="stop-color:#bfa055;stop-opacity:0"/><stop offset="1" style="stop-color:#bfa055"/></radialGradient><path d="M50.4 15.4c-2 .5-2.6 2.6-2.8 3.9q-.1 1.1.4 2.1c.8 1.5 1.7 1.8 2 2l2.6-7.8c-.6-.2-1-.4-2.2-.2" style="fill:url(#d)"/><radialGradient id="e" cx="155.8" cy="51.3" r="10.7" gradientTransform="matrix(-.938 -.394 -.218 .528 219.46 49.81)" gradientUnits="userSpaceOnUse"><stop offset=".7" style="stop-color:#bfa055;stop-opacity:0"/><stop offset="1" style="stop-color:#bfa055"/></radialGradient><path d="M66 9.9c2.5.7 4.2 2.6 4.6 4.3.1.5 0 4.8-9.1-.6-3.4-2-3-3.1-2.7-3.3 1.3-.6 4.4-1.2 7.2-.4" style="fill:url(#e)"/><radialGradient id="f" cx="360.7" cy="21.3" r="3.3" gradientTransform="rotate(180.3 217.3 23.85)scale(1 .742)" gradientUnits="userSpaceOnUse"><stop offset=".5" style="stop-color:#bfa055"/><stop offset="1" style="stop-color:#bfa055;stop-opacity:0"/></radialGradient><path d="M69.8 32c-.5-3.4 5-3 5-3l-1 .8q-1.1 1-1.3 2c-.1 1 1 1.5 1 1.5s-2.9.9-3.7-1.3" style="fill:url(#f)"/><radialGradient id="g" cx="71.4" cy="100" r="4.4" gradientTransform="rotate(-48.2 185.6 -23.8)scale(1 -.742)" gradientUnits="userSpaceOnUse"><stop offset=".7" style="stop-color:#bfa055;stop-opacity:0"/><stop offset="1" style="stop-color:#bfa055"/></radialGradient><path d="M75 24.3s-2 3.5-2.8 3.7 1.8 1.7 1.8 1.7 2.7-2 1-5.4" style="fill:url(#g)"/><path d="M43.4 116.7q1 .3 1.5-.7l.8-2.7c.6-1.8-.6-4.4-.6-4.4l-6.6-2.2h-6.6a4 4 0 0 0-3.6 2.8l-.4 1.2q-.1.9.7 1.3z" style="fill:#4568ad"/><path d="m83.1 67-17 3.7-.1 2.5-8 .2c-4.8.5-11.6.2-14.2 10.5l-7 22.6 10 3.4s7.8-21.4 8.3-21.4 15.2.8 24.8-.5 3.2-21 3.2-21" style="fill:#7c7c7c"/><radialGradient id="h" cx="67.6" cy="75.9" r="19.5" gradientTransform="rotate(161.8 1.6 75.94)scale(-1 1)" gradientUnits="userSpaceOnUse"><stop offset=".4" style="stop-color:#f58b21"/><stop offset=".7" style="stop-color:#f17e22"/><stop offset="1" style="stop-color:#ec6e24"/></radialGradient><path d="M64 72.2C65.7 60 63 60 60.9 52c-1-4 .4-8.6 2-10.5 3.4-3.2 7.1-4 10.1-1.2 6 5.4 12.5 26.9 12.5 26.9-4.7 8.7-21.3 4.9-21.3 4.9" style="fill:url(#h)"/><path d="M78.5 93.2h4v7.1h-4z" style="fill:#c62828"/><path d="m43.2 120-16-5.2a2.2 2.2 0 0 1 1.4-4.2l16 5.2q1.9.8 1.4 2.8a2.2 2.2 0 0 1-2.8 1.4" style="fill:#424242"/><path d="M49.5 111.6a6.5 6.5 0 1 0 0 13 6.5 6.5 0 0 0 0-13" style="fill:#78909c"/><path d="M93.6 59.9c-1.8 0-1.8 2-1.8 2.6l-.2 29.2-32.7-1.8c-9.4 0-13.7 3.6-17 14.2L37 118q-.3.7 0 1.5c.4.8.7.8 1.2 1l.7.1a2 2 0 0 0 1.9-1.3l3.5-10.3c1.8.6 3.1 2.3 3.1 4.3v4.9c0 1 1 2 2 2s2-1 2-2v-5c0-3.6-2.3-6.9-5.8-8 2.8-8.9 5.7-11.3 13-11.3l33 1.9q1.6.2 2.6-1c.7-1 .8-2.4.8-2.4l.3-30.2c0-2-1.1-2.3-1.8-2.3" style="fill:#f44336"/><path d="M49.5 120.3a2 2 0 0 1-2-1.6l-.3-3.4q0-.9 1-1h2.5q1 .1 1 1l-.1 3.4c0 .9-1 1.6-2 1.6M93 62.8c0-2.4-1.4-2.8-3.6-2.8h-1.6c-2.3 0-2.7 1-3.1 2.6a75 75 0 0 0-1.1 20.6l.1.4-29-.9c-1.7 0-3.1.6-3.7 4V89q.6 2.5 2.8 2.5l38.9 1.9v-.1z" style="fill:#424242"/><path d="M70.8 92.2q3.4-4.6 10-4.4a13 13 0 0 1 9.8 5.4H94l.2-13.8c-2.5-4.3-29.7-11.6-38.9 12z" style="fill:#212121"/><path d="m92.7 94 1.8-.6-.3-16c-2.7-4.4-32-12.6-40 15.8h5.2l8.3.5c2-4.6 7.5-7.7 13.2-7.4 8.6.4 11.8 7.7 11.8 7.7" style="fill:#f44336"/><radialGradient id="i" cx="76.5" cy="100.3" r="1.1" gradientTransform="translate(4)" gradientUnits="userSpaceOnUse"><stop offset="0" style="stop-color:#78909c"/><stop offset=".6" style="stop-color:#617a86"/><stop offset="1" style="stop-color:#546e7a"/></radialGradient><path d="M80.5 101.4q-1-.1-1.1-1.1 0-1.3 1-1.1 1.3.3 1.2 1.1-.2 1.2-1.1 1.1" style="fill:url(#i)"/><path d="M80.5 99.7q.5 0 .6.6t-.6.6-.6-.6.6-.6m0-1a1.6 1.6 0 1 0 0 3.2 1.6 1.6 0 0 0 0-3.2" style="fill:#82aec0"/><path d="M80.5 79.6V121m14.6-35.3L65.8 115m29.3 0L65.8 85.7m-6 14.6h41.4" style="fill:none;stroke:#82aec0;stroke-linecap:round;stroke-miterlimit:10"/><path d="M80.5 76a24.4 24.4 0 1 0 0 48.7 24.4 24.4 0 0 0 0-48.8m0 44a19.7 19.7 0 1 1 0-39.4 19.7 19.7 0 0 1 0 39.5" style="fill:#78909c"/><path d="M80.5 83.6a16.7 16.7 0 1 1 0 33.5 16.7 16.7 0 0 1 0-33.5m0-1a17.7 17.7 0 1 0 0 35.4 17.7 17.7 0 0 0 0-35.4" style="fill:#546e7a"/><circle cx="80.5" cy="100.3" r="4.1" style="fill:#757575"/><path d="m27.8 110.9 9.5 3.1" style="fill:none;stroke:#757575;stroke-linecap:round;stroke-miterlimit:10"/><path d="M92.9 76.2s1.4.7 2.3 1.8v-3.5c-.9-1-2.3-1.2-2.3-1.2zM54.7 91.4l-.7 3s-1.3 0-2.2-.7c-1.7-1.3-1.5-2.1-1.5-2.1.5-.4 1.8-.8 1.8-.8l1.3.5z" style="fill:#c62828"/><path d="M59.5 93.6a21 21 0 0 1 9.8-12.2" style="opacity:.8;fill:none;stroke:#94d1e0;stroke-width:2;stroke-linecap:round;stroke-miterlimit:10"/><linearGradient id="j" x1="85.9" x2="73.9" y1="62.9" y2="71.3" gradientTransform="matrix(1 0 0 -1 0 130)" gradientUnits="userSpaceOnUse"><stop offset=".5" style="stop-color:#e0bb95"/><stop offset="1" style="stop-color:#cca47a"/></linearGradient><path d="m74.9 47.1-5.2 5.6 9.9 6.9L75.9 73l4.4 1.8s5.1-11.4 6.1-13.3c1.6-3.1 1.4-5-.5-7.3-1-1.2-11-7-11-7" style="fill:url(#j)"/><linearGradient id="k" x1="74.2" x2="75.3" y1="48.7" y2="51.3" gradientTransform="matrix(1 0 0 -1 0 130)" gradientUnits="userSpaceOnUse"><stop offset="0" style="stop-color:#e0bb95"/><stop offset="1" style="stop-color:#cca47a"/></linearGradient><path d="M80.6 73.5 80 73l-1.3-1c-.8-.5-4.2.9-5 1.2l-.7.3q-.4.2-.6.6l-.1.2v.1s-.3 1.5-.7 2.3c-.2.3 0 .9.2 1 0 0-.1.8-.3 1.1q-.2.7-.1.9 0 .5.3.8c.4.2.5 0 .6.2l.2.5q.2.7.7.7l1-.3q.2 0 .2.3.2.3.6.5c.8 0 1.3-.6 1.3-.5.1.4.8.7 1.1.5.3 0 .5.2 2.4-2.7.3-.5 1-1.8 1.3-3l.2-.7q.4-1.6-.7-2.5" style="fill:url(#k)"/><linearGradient id="l" x1="75.6" x2="73.3" y1="52.2" y2="48.3" gradientTransform="matrix(1 0 0 -1 0 130)" gradientUnits="userSpaceOnUse"><stop offset=".5" style="stop-color:#e0bb95"/><stop offset="1" style="stop-color:#cca47a"/></linearGradient><path d="M79 71.9c-1.8-.7-6.7 1-6.8 2.6 0 .3.5 1 1 .7v.5c0 .6.7.6.9.6q.5.1.5.5a1 1 0 0 0 1.5 1q.3 0 .4.3 0 .4.4.7.6.2 1 .1l.3.2c.1 0 .1.6.4.7 1.4.8 2.2-2.2 2.8-4 .3-1.2-.5-3.2-2.5-4" style="fill:url(#l)"/><path d="m75 57.5 5.8-9.4-8.4-5.2a5.5 5.5 0 0 0-5.9 9.4z" style="fill:#ec6e24"/></svg>