<svg xml:space="preserve" width="16" height="16" viewBox="0 0 128 128"><linearGradient id="a" x1="22.7" x2="105.3" y1="64" y2="64" gradientUnits="userSpaceOnUse"><stop offset="0" style="stop-color:#eee"/><stop offset="1" style="stop-color:#757575"/></linearGradient><path d="M92.5 124h-57c-7 0-12.8-5.7-12.8-12.7V16.7c0-7 5.8-12.7 12.8-12.7h57c7 0 12.8 5.7 12.8 12.7v94.6c0 7-5.8 12.7-12.8 12.7" style="fill:url(#a)"/><path d="M87.8 124H40.2c-7.5 0-13.5-6-13.5-13.5v-93C26.7 10 32.7 4 40.2 4h47.6c7.5 0 13.5 6 13.5 13.5v93c0 7.4-6 13.5-13.5 13.5" style="fill:#bdbdbd"/><path d="M64 115.2a4 4 0 0 1-4-4V16.8a4 4 0 0 1 4-4 4 4 0 0 1 4 4v94.4a4 4 0 0 1-4 4" style="fill:#212121"/><path d="m64 12.8-1.2.2a4 4 0 0 1 2.9 3.8v94.5a4 4 0 0 1-3 3.7l1.3.2a4 4 0 0 0 4-4V16.8a4 4 0 0 0-4-4" style="fill:#e0e0e0"/><path d="M73.5 16.3h17.9m-17.9 9.5h17.9m-17.9 9.6h17.9m-17.9 9.5h17.9m-17.9 9.6h17.9M73.5 64h17.9m-17.9 9.5h17.9m-17.9 9.6h17.9m-17.9 9.5h17.9m-17.9 9.6h17.9m-17.9 9.5h17.9M36.6 16.3h17.9m-17.9 9.5h17.9m-17.9 9.6h17.9m-17.9 9.5h17.9m-17.9 9.6h17.9M36.6 64h17.9m-17.9 9.5h17.9m-17.9 9.6h17.9m-17.9 9.5h17.9m-17.9 9.6h17.9m-17.9 9.5h17.9" style="fill:none;stroke:#424242;stroke-width:2;stroke-linecap:round;stroke-linejoin:round;stroke-miterlimit:10"/><path d="M76.3 53.5H57.5a5 5 0 0 1-5-5v-2a5 5 0 0 1 5-5h18.8a5 5 0 0 1 5 5v2a5 5 0 0 1-5 5" style="opacity:.26"/><path d="M73.3 50.4H54.5a5 5 0 0 1-5-5v-2a5 5 0 0 1 5-5h18.8a5 5 0 0 1 5 5v2a5 5 0 0 1-5 5"/><path d="M59.4 43.6h-5.7c-1.8 0-2.6-2.4-1-3.4q1-.8 3-.8H65q.6.2.2.7c-2.3 1.6-2.4 3.5-5.9 3.5" style="fill:#455a64"/></svg>