<svg xml:space="preserve" width="16" height="16" viewBox="0 0 128 128"><path d="M4 112.8c-.1 6 4.1 10.3 15 10.7s85.3.4 91.6.3 13.5-2 13.6-10.5-11.4-10.5-11.4-10.5-92.3.2-96.1.4S4 105.3 4 112.8" style="fill:#b7d118"/><path d="M94.5 106.4s23.8.2 25 0 2-1.7 2.2-3.1c-.1-5-5.9-5.4-5.9-5.4s1-3.2-1.7-5.8c-3.4-3.8-8.5-2.3-8.5-2.3s-.8-2.7-3.2-4.2-7.7-1-7.7-1zM25.9 92s-3.1-1.4-5.6-.4c-3.8 1.5-3.6 4.2-4.7 5.2-1 1-6.4.6-7.8 5.3-.7 2-.1 3.9 1.6 3.9l14.3-.4z" style="fill:#5a9821"/><path d="M23.7 89.2v7.3c0 1.2-1 5.5-1.9 7-.7 1.6-.9 3 .2 3.2s8.2 0 8.2 0L29 89.2z" style="fill:#875b50"/><path d="M28.7 90.7C19.6 91 9.7 85 5.4 68s.3-36.7 5.7-45.2 10-12.5 15.7-12.3c7 .2 14.2 9.9 17.3 18 3 7.8 3 14.4 3 14.4L31.4 89z" style="fill:#b7d118"/><path d="M64.8 40 28.2 77l.3 29.2 27.2 4.3 45.1-3.4.1-33z" style="fill:#fff3e1"/><path d="m26.8 105 2.5-1.5V76.1L27 77.7s.3 27.2-.2 27.2m72.7-27.3v25.8l2.6 1.4V78.5z" style="fill:#5f4e47"/><path d="M65 44 27 79.7v-9l38-36.1 37 38.2v7.6z" style="fill:#bcaa93"/><path d="M23.3 69.1 21 73.2h6s37.4-36.4 38.2-36.4c1 0 36.8 37 36.8 37l5.4-.1-39.9-43-5.8-.3z" style="fill:#ab5832"/><path d="M16.4 72.2c-.7.8 0 1.2.5 1.2l6.3-.2L63.5 34s1-1 1.6-1c.8.1 1.7 1 1.7 1l40.5 39.7s4.6 0 5.4-.2q1-.3-.6-2l-42.4-42c-2-2-3-3.3-4.9-3.2s-3 1.5-5 3.3z" style="fill:#ed6c31"/><path d="M88.5 86.4h8.3v-6.8q-.2-2.1-2.3-2.3h-6zm-2.5 0v-9.2h-6.4q-2.1.2-2.3 2.4v6.8zm0 2.6h-8.7v6.5q.2 2.1 2.3 2.3H86zm2.5 0v8.8h6c1.2 0 2.3-1 2.3-2.3V89zm-45.7-2.6H51v-6.8q-.2-2.1-2.3-2.3h-6zm-2.5 0v-9.2h-6.5q-2.1.2-2.3 2.4v6.8zm0 2.6h-8.8v6.5q.2 2.1 2.3 2.3h6.5zm2.5 0v8.8h6q2-.2 2.2-2.3V89z" style="fill:#a6cfd5"/><path d="M53.7 107.3v-25c.1-5 4.9-9.3 10.3-9.1 6.8.2 10.3 4 10.5 8.9.3 5 .3 25.5.3 25.5z" style="fill:#d27857"/><path d="M56.2 108.4V83.2c.2-4.9 3.8-7.4 8.1-7.2 5 .3 7.4 3 7.6 6.8s.2 25.6.2 25.6z" style="fill:#ab5932"/><path d="m69.6 91-.1-7.5c-.2-2.5-2-4.5-5.5-4.6a5 5 0 0 0-5.2 4.7V91zm-10.8 4v9h10.8v-9z" style="fill:#d27857"/><path d="M69.6 92.9q-.1 1.8 1.8 2c1.9.2 1.8-.6 1.9-1.8q0-1.8-2-2c-1.2 0-1.7 1-1.7 1.8" style="fill:#ffba02"/><path d="M77 114h15q9.7 0 11.5-.8c.9-.5 1.1-8.6-2.9-10.8-3.9-2.2-6.7-.6-8-.5-2 .2-2.8-1.1-5.9-1.2a9 9 0 0 0-9 5.5zm-50.9-.6c.8.8 5.8.5 12.5.5H51l2.7-6.6-2.7-1.2s-.1-3.6-4.4-4.8c-3-.8-5.6.6-8.1.6s-3.8-1-6.6-.3a8 8 0 0 0-6 5.8c-.5 2.4-.3 5.4.3 6" style="fill:#728037"/><path d="M50.3 120.8v-7h.5v-7.7h27v7.8h.5v6.7z" style="fill:#b0b0b0"/><path d="M78.3 117.8v2.8l-28 .2v-3zm-27.5-6.9h27v3h-27z" style="fill:#9b9b9b"/><path d="M80.2 108q0 1.5 1.8 1.7c1.1 0 1.7-1 1.7-1.7s-.5-1.8-1.8-1.8-1.7 1-1.7 1.8m6.1-3.4c0 .8.7 2 1.8 1.8s1.7-1 1.6-1.9-1-1.3-1.8-1.3c-.7 0-1.5.5-1.6 1.4m9.8 4.4q0 1.7 1.8 1.8c1.2 0 1.7-.9 1.7-1.6q0-1.8-1.8-1.9c-1.8-.1-1.7.9-1.7 1.8" style="fill:#fdb900"/><path d="M30.1 108.4c-1.1 0-1.7 1-1.6 1.7 0 .8.6 1.7 1.6 1.6q1.6 0 1.7-1.6c0-.7-.5-1.8-1.7-1.7m7.8-4.9c-1 0-1.7.9-1.7 1.5s.5 1.7 1.7 1.6 1.5-.8 1.5-1.7-.8-1.4-1.5-1.4m2.1 5.8c-.1.8.4 2 1.6 1.9 1.3 0 1.7-1 1.6-1.9s-.8-1.4-1.6-1.5q-1.4 0-1.6 1.5m4.8-2.8c0 .7.4 1.6 1.5 1.4q1.3-.2 1.2-1.4-.2-1.3-1.4-1.3-1.6.1-1.3 1.3" style="fill:#feb800"/></svg>