<svg xml:space="preserve" width="16" height="16" viewBox="0 0 128 128"><path d="m104.2 85.7-78.5 3.8c.2 6 .8 7.8.8 7.8S57 123 58 123.6a41 41 0 0 0 14.8-.7c1.1-.9 31.8-30.2 31.8-30.2s0-5.3-.4-7M44.5 27.8s15.8 25 17 37.4c0 0-21-.8-38.6-6.8 0 0 4.5-22 21.6-30.6m50.8 7.4c-16.2 8.2-30 30.8-30 30.8 5.1 2.8 41 3.6 41 3.6 1.7-8-11-34.4-11-34.4" style="fill:#ff5252"/><path d="M44.5 27.8c-2.4-6.2-.3-11.2 4.5-13.5 7-3.2 12.6 1.9 15.2 2.8 8 2.8 17.2-2.7 25.3 0a9 9 0 0 1 3.8 2.2 11 11 0 0 1 2.5 6.1 39 39 0 0 1-1.2 10.7M59.7 25q-1 2-1 4.2c0 2.2 1.1 2.8 2.5 3.1C63.2 33 65 31 66 29c2.8-6 1.4-13.3 3.7-19.5 1-2.8 3.3-5.6 6.2-5.4q1.3 0 2.1 1c1.2 1.6-.2 3.8-1.5 5.1a68 68 0 0 1-9 7.8c-3 2.2-6 3.7-7.8 7.2zm21.5 4.2q-2 0-3.8-1-6.2-3.2-9.2-9.5" style="fill:none;stroke:#d52b2b;stroke-width:3.5984;stroke-linecap:round;stroke-miterlimit:10"/><circle cx="37.5" cy="40" r="3.6" style="fill:#ffada6"/><circle cx="47.8" cy="51.1" r="3.6" style="fill:#ffada6"/><circle cx="58.1" cy="62.3" r="3.6" style="fill:#ffada6"/><circle cx="89.5" cy="95.2" r="3.6" style="fill:#ffada6"/><path d="M100.2 90.3c.4-2.4 4.1-3 4.1-3 .4 2.3.2 7.5.2 7.5-3.4-.1-4.7-2.5-4.3-4.5" style="fill:#ffada6"/><circle cx="74.9" cy="55.9" r="3.6" style="fill:#ffada6"/><circle cx="84.8" cy="66.6" r="3.6" style="fill:#ffada6"/><circle cx="90.4" cy="52" r="3.6" style="fill:#ffada6"/><circle cx="100.7" cy="63.1" r="3.6" style="fill:#ffada6"/><circle cx="95" cy="39.8" r="3.6" style="fill:#ffada6"/><circle cx="34.4" cy="56.5" r="3.6" style="fill:#ffada6"/><circle cx="75.5" cy="99.8" r="3.6" style="fill:#ffada6"/><path d="M81.3 108c.4-2 2.2-3.2 4.2-2.9q3 .6 2.5 3.6l-3.9 3.6a4 4 0 0 1-2.8-4.2" style="fill:#ffada6"/><circle cx="50" cy="93.3" r="3.6" style="fill:#ffada6"/><circle cx="59.9" cy="103.4" r="3.6" style="fill:#ffada6"/><circle cx="70.2" cy="115.1" r="3.6" style="fill:#ffada6"/><circle cx="33.8" cy="95.7" r="3.6" style="fill:#ffada6"/><circle cx="44" cy="106.9" r="3.6" style="fill:#ffada6"/><circle cx="54.3" cy="118" r="3.6" style="fill:#ffada6"/><path d="M22 60.2a67 67 0 0 1 21.8-33.4A163 163 0 0 1 62.7 66m2-.7a138 138 0 0 1 30.2-31.1c5.8 11 9.4 18.9 12.3 34.6" style="fill:none;stroke:#d52b2b;stroke-width:3.4449;stroke-miterlimit:10"/><path d="M108 76c-35.5-.1-64.2-3.8-88.3-11a1 1 0 0 1-.6-1l2-6.6q.2-.7 1-.6a306 306 0 0 0 86 10.5q.7 0 .8 1.4V75q-.1.8-.8.9m-56.8 45.6c-3.2-3-12.1-11.1-24-20.1l-.5-2c-.3-1-.3-2.1-.3-2.1s14.9 7 32.1 26.5c0 0-2-.1-3.5-.5h-.6a7 7 0 0 1-3.2-1.8m27.5-1.3q-1.2 1.5-3 2.1c-1.6.6-3 .6-3 .6s15-21.7 31.7-30.6c0 0 .2 1.2 0 2.5l-.3 2a140 140 0 0 0-25.4 23.4M26.7 94.6q-1-.1-1-1l-.3-6.8q.2-1.1 1.2-1.2c6 .7 33.3 2.2 75.8-4.9q1.2 0 1.3 1l.9 6.7q0 1-1 1.2a339 339 0 0 1-76.9 5" style="fill:#d52b2b"/></svg>