<svg xml:space="preserve" width="16" height="16" viewBox="0 0 128 128"><path d="m76 75.4 2.3-2.4h1.3l.5.6.9.2q.6.2.5.9v.2q-.2.6-.8.5l-1.4-.3-2.4 1.7q-.6.3-1-.2l-.1-.2a1 1 0 0 1 .2-1" style="fill:#eda600"/><path d="M90.5 16.3c-16.3 0-16.2 15.1-16.2 15.4 0 9.8.8 23.6 4.7 29 1.5 2.2 4.5 2.3 4.5 2.3H97s3-.1 4.6-2.3c3.9-5.4 4.6-19.2 4.6-29 0-.3.6-15.4-15.7-15.4" style="fill:#543930"/><path d="M120.8 113.2c-.5-2.5-3.2-5.2-5.8-7.8-1.7-1.6-4.8-1.3-6.5.4s-2 4.8-.2 6.5c2.6 2.6 5.3 5.2 7.8 5.7 1.9.5 3.5-.2 4-.7.6-.6 1.2-2.2.7-4.1" style="fill:#504f4f"/><linearGradient id="a" x1="86.4" x2="87.2" y1="23.3" y2="12.2" gradientTransform="matrix(1 0 0 -1 0 128)" gradientUnits="userSpaceOnUse"><stop offset="0" style="stop-color:#ffb300"/><stop offset=".4" style="stop-color:#ffca28"/></linearGradient><path d="M91.3 123.8h-6L82 104.5a4.5 4.5 0 0 0 8.7-1.6z" style="fill:url(#a)"/><linearGradient id="b" x1="107.9" x2="109" y1="30.4" y2="13.8" gradientTransform="matrix(1 0 0 -1 0 128)" gradientUnits="userSpaceOnUse"><stop offset="0" style="stop-color:#ffb300"/><stop offset=".4" style="stop-color:#ffca28"/></linearGradient><path d="M115.6 113.5a3 3 0 0 1-3.2-.2l-12.2-10.7-.3-.3a4.6 4.6 0 0 0 7.7-4.7l8.6 11.2a3 3 0 0 1-.6 4.7" style="fill:url(#b)"/><linearGradient id="c" x1="90.7" x2="96.2" y1="37.6" y2="25.2" gradientTransform="matrix(1 0 0 -1 0 128)" gradientUnits="userSpaceOnUse"><stop offset="0" style="stop-color:#ffb300"/><stop offset=".4" style="stop-color:#ffca28"/></linearGradient><path d="M107.8 99a4.6 4.6 0 0 1-8.2 3l-.6-.9-6.8-12.6c0-.3-1.2-.4-1.4-.4s-.4.2-.4.4l.3 14.3v.1a4.5 4.5 0 0 1-8.7 1.6l-.3-1.7-3.5-20.2 11.4-8 12.7 8 4.7 13.7v.3l.6 1q.3.7.2 1.4" style="fill:url(#c)"/><path d="m104.9 75.1-2.7-2.2c-.1-.1-.7.3-.9.3l-.5.2-1 .1q-.5.2-.5.9v.2q.2.7.9.6l1.4-.4 2.4 1.7q.5.4 1-.2v-.1q.4-.7-.1-1" style="fill:#eda600"/><path d="M108.8 60.3s-2.1-7.4-19-7.4-18 7.4-18 7.4l6.3 4.9h23.3z" style="fill:#444"/><linearGradient id="d" x1="90.2" x2="90.2" y1="51.1" y2="97.7" gradientTransform="translate(0 .72)" gradientUnits="userSpaceOnUse"><stop offset="0" style="stop-color:#515151"/><stop offset=".9" style="stop-color:#313131"/></linearGradient><path d="M109.7 60.3s-3-7.4-20-7.4-19 7.4-19 7.4l7.5 7v15.4l9.7 6.4a6 6 0 0 0 5 0l9.3-6.4V67.2z" style="fill:url(#d)"/><linearGradient id="e" x1="100.2" x2="109.9" y1="61.9" y2="50.6" gradientTransform="matrix(1 0 0 -1 0 128)" gradientUnits="userSpaceOnUse"><stop offset=".2" style="stop-color:#ffb300"/><stop offset=".5" style="stop-color:#ffca28"/></linearGradient><path d="m115.7 69-7.4-9.8-6.2 4.4 7.5 7-5.2 4.3-2.7-.2h-.4s-1.7.1-2.1.5q-.5.6-.2 1t0 .9q-.4.3-.4.8t.5.7q.2.3.1.5l-.3.9.7.9s-.4.5 0 .9q.5.5 2.1.6 1.4 0 3.6-.8l10.4-8.4c1-1.2 1-3 0-4.2" style="fill:url(#e)"/><linearGradient id="f" x1="80.7" x2="70.3" y1="61.3" y2="50.9" gradientTransform="matrix(1 0 0 -1 0 128)" gradientUnits="userSpaceOnUse"><stop offset=".2" style="stop-color:#ffb300"/><stop offset=".5" style="stop-color:#ffca28"/></linearGradient><path d="M82.2 78q0-.6-.3-.9-.4-.4 0-.9.3-.4-.2-1c-.5-.4-2.1-.5-2.1-.5h-.4l-2.7.2-5.2-4.3 7.4-7-6.2-4.4-7.3 9.8c-1 1.2-1.1 3 0 4.2l10.3 8.4q2.3.8 3.7.8t2-.6c.5-.4 0-.8 0-1 .2-.3.6-.3.7-.8q0-.4-.3-.8 0-.4.2-.6.4-.3.4-.7" style="fill:url(#f)"/><linearGradient id="g" x1="90.3" x2="90.3" y1="50.1" y2="96.7" gradientTransform="translate(0 .72)" gradientUnits="userSpaceOnUse"><stop offset="0" style="stop-color:#515151"/><stop offset=".9" style="stop-color:#313131"/></linearGradient><path d="M109.8 60.3s-3.1-7.4-20-7.4-19 7.4-19 7.4l7.3 6.9h24.3z" style="fill:url(#g)"/><linearGradient id="h" x1="90.3" x2="90.3" y1="75.1" y2="68.3" gradientTransform="matrix(1 0 0 -1 0 128)" gradientUnits="userSpaceOnUse"><stop offset="0" style="stop-color:#ffb300"/><stop offset=".7" style="stop-color:#ffca28"/></linearGradient><path d="M100.8 54.4c-.1 3-3.9 7.2-10.5 7.2-6.8 0-10.5-4.4-10.5-7.4v-.1q3.7-1.1 10-1.2 7 0 11 1.5" style="fill:url(#h)"/><path d="M89.9 57.3c-2 0-3.6-1.5-3.6-3.4v-4.3h8V54c0 1.9-1.7 3.4-3.6 3.4z" style="fill:#e59600"/><path d="M90.3 20.3c-6.8 0-13.2 5-13.2 15.9a16 16 0 0 0 10 15.5q1.8.5 3.2.5c1.4 0 2-.2 3.1-.5 4.7-1.7 10-6.8 10-15.5 0-10.8-6.3-16-13.1-16" style="fill:#ffca28"/><ellipse cx="83.9" cy="38" rx="1.9" ry="2" style="fill:#404040"/><ellipse cx="96.8" cy="38" rx="1.9" ry="2" style="fill:#404040"/><path d="M91.8 41.7h-3.1q-.3 0-.2.6 0 1 1.8 1a2 2 0 0 0 1.8-1q0-.5-.3-.6" style="fill:#e59600"/><path d="M86.8 34.4c-.4-.5-1.2-1.2-2.9-1.2s-2.5.7-2.9 1.2v.6q.2.3.8.2.5-.3 2.1-.5 1.7.2 2.1.5.6.3.8-.2.2-.2 0-.6m12.9 0c-.4-.5-1.2-1.2-2.9-1.2s-2.5.7-2.8 1.2q-.3.4 0 .6.1.3.7.2.5-.3 2.1-.5 1.7.2 2.2.5t.7-.2q.2-.2 0-.6" style="fill:#6d4c41"/><path d="M90.5 16.3c-16.4 0-16.2 15.1-16.2 15.4 0 7.3.4 16.8 2.2 23.5l2.8-1c-.1-2-.8-10.9-.9-15.3 0-1.1-.3-5.5 2-6 9-2 14-6.8 14-6.8 1.3 2.9 5.4 5.7 6.9 6.7 1.2 1 1 4.5 1 6L101 54.5l.5.1 2.3 1a98 98 0 0 0 2.3-23.8c0-.3.6-15.4-15.7-15.4" style="fill:#543930"/><path d="M93.6 45a10 10 0 0 1-6.6 0c-.8-.4-1.5.3-1.2 1s2.5 2.1 4.5 2.1 4.1-1.5 4.4-2.1-.4-1.4-1.1-1" style="fill:#795548"/><radialGradient id="i" cx="90.3" cy="88.6" r="17" gradientTransform="matrix(1 0 0 -1.32 0 156.4)" gradientUnits="userSpaceOnUse"><stop offset=".8" style="stop-color:#6d4c41;stop-opacity:0"/><stop offset="1" style="stop-color:#6d4c41"/></radialGradient><path d="M106.2 31.7c0 7.4-.4 17-2.3 23.7A34 34 0 0 0 89.7 53a34 34 0 0 0-13.2 2.2 99 99 0 0 1-2.2-23.4c0-.3-.2-15.4 16.2-15.4s15.7 15.1 15.7 15.4" style="fill:url(#i)"/><path d="M88 124h-4.4c-.8 0-1.4-1-1.1-1.7.7-2.5 3-4.3 5.5-4.3a6 6 0 0 1 5.6 4.4q.2 1.4-1.2 1.6z" style="fill:#504f4f"/><radialGradient id="j" cx="90.4" cy="87.9" r="19.8" gradientTransform="matrix(1 0 0 -1.214 0 146.77)" gradientUnits="userSpaceOnUse"><stop offset=".8" style="stop-color:#6d4c41;stop-opacity:0"/><stop offset="1" style="stop-color:#6d4c41"/></radialGradient><path d="M90.5 16.3c-16.4 0-16.2 15.1-16.2 15.4q0 4.7.3 10h2.6c0-1.1.8-8.3 3.3-8.8 8.9-2 14-6.8 14-6.8 1.2 2.9 5.3 5.7 6.8 6.7 1.2 1 1.6 7.4 1.5 9h3.1l.3-10.1c0-.3.6-15.4-15.7-15.4" style="fill:url(#j)"/><linearGradient id="k" x1="90.3" x2="90.3" y1="7.4" y2="32.7" gradientTransform="translate(0 .72)" gradientUnits="userSpaceOnUse"><stop offset="0" style="stop-color:#504f4f"/><stop offset="1" style="stop-color:#212121"/></linearGradient><path d="M105.8 5.3c-.1-1-1.2-1.5-2.1-1.2-2.2.8-6 2.6-7.9 6-1.4 2.4-2 6-2.2 9.1q-.3 1.9-2.2 1.9h-2.3a2 2 0 0 1-2.1-1.9c-.3-3-.9-6.7-2.3-9.2a15 15 0 0 0-7.9-5.9c-1-.3-2 .2-2.1 1.2-.4 2.4-.7 6.6 1.2 9.9 1.4 2.4 4.3 4.8 6.8 6.5a1 1 0 0 1 0 1.6q-1.5 1.2-2.4 2.6c-.6.9.5 2 1.4 1.4q2.5-1.8 8.5-2c6-.3 6.9.9 8.6 2 1 .6 2-.5 1.4-1.4q-.9-1.5-2.4-2.6a1 1 0 0 1 0-1.6c2.5-1.7 5.4-4 6.9-6.6 1.9-3.2 1.5-7.4 1.1-9.8" style="fill:url(#k)"/><path d="M98.2 11.8c-1 1.8-1.3 4.8-1.3 6.1q0 .5.5.4c1.1-.7 3.7-2.5 4.7-4.3.9-1.5.8-3.5.7-4.6q-.1-.8-1-.5c-1 .4-2.7 1.3-3.6 2.9m-15.8 0c1 1.8 1.2 4.8 1.2 6.2q0 .4-.5.3c-1.1-.7-3.6-2.4-4.7-4.3a8 8 0 0 1-.7-4.6q.3-.7 1-.5c1 .4 2.7 1.3 3.6 2.9" style="fill:#ff4081"/><path d="m20.1 75.4 2.3-2.4h1.3l.5.6 1 .2q.6.2.5.9v.2q-.2.6-.9.5l-1.4-.3-2.4 1.7q-.5.3-1-.2v-.2a1 1 0 0 1 .1-1" style="fill:#eda600"/><path d="M34.7 16.3c-16.3 0-16.2 15.1-16.2 15.4 0 9.8.7 23.6 4.6 29 1.6 2.2 4.6 2.3 4.6 2.3h13.5s3-.1 4.5-2.3c4-5.4 4.7-19.2 4.7-29 0-.3.6-15.4-15.7-15.4" style="fill:#543930"/><path d="M65 113.2c-.6-2.5-3.3-5.2-5.9-7.8-1.7-1.6-4.7-1.3-6.4.4s-2 4.8-.3 6.5c2.6 2.6 5.4 5.2 7.8 5.7 2 .5 3.5-.2 4-.7.6-.6 1.2-2.2.8-4.1" style="fill:#504f4f"/><linearGradient id="l" x1="30.6" x2="31.3" y1="23.3" y2="12.2" gradientTransform="matrix(1 0 0 -1 0 128)" gradientUnits="userSpaceOnUse"><stop offset="0" style="stop-color:#ffb300"/><stop offset=".4" style="stop-color:#ffca28"/></linearGradient><path d="M35.5 123.8h-6.1L26 104.5a4.5 4.5 0 0 0 9-1.5z" style="fill:url(#l)"/><linearGradient id="m" x1="52" x2="53.2" y1="30.4" y2="13.8" gradientTransform="matrix(1 0 0 -1 0 128)" gradientUnits="userSpaceOnUse"><stop offset="0" style="stop-color:#ffb300"/><stop offset=".4" style="stop-color:#ffca28"/></linearGradient><path d="M59.7 113.5a3 3 0 0 1-3.2-.2l-12.1-10.7-.3-.3a4.6 4.6 0 0 0 7.7-4.7l8.5 11.2a3 3 0 0 1-.6 4.7" style="fill:url(#m)"/><linearGradient id="n" x1="34.9" x2="40.4" y1="37.6" y2="25.2" gradientTransform="matrix(1 0 0 -1 0 128)" gradientUnits="userSpaceOnUse"><stop offset="0" style="stop-color:#ffb300"/><stop offset=".4" style="stop-color:#ffca28"/></linearGradient><path d="M52 99a4.6 4.6 0 0 1-8.3 3l-.6-.9-6.8-12.6c0-.3-1.2-.4-1.4-.4s-.4.2-.4.4l.4 14.3v.1a4.5 4.5 0 0 1-8.8 1.6l-.3-1.7-3.4-20.2 11.3-8 12.7 8 4.7 13.7.1.3q.1.6.6 1z" style="fill:url(#n)"/><path d="M49 75.1 46.4 73c-.2-.1-.7.3-1 .3l-.5.2-.9.1q-.6.2-.5.9v.2q.2.7.9.6l1.3-.4 2.4 1.7q.6.4 1-.2l.1-.1q.3-.7-.2-1" style="fill:#eda600"/><path d="M53 60.3S50.8 53 33.8 53s-18 7.4-18 7.4l6.4 4.9h23.2z" style="fill:#444"/><linearGradient id="o" x1="34.4" x2="34.4" y1="51.1" y2="97.7" gradientTransform="translate(0 .72)" gradientUnits="userSpaceOnUse"><stop offset="0" style="stop-color:#515151"/><stop offset=".9" style="stop-color:#313131"/></linearGradient><path d="M53.9 60.3s-3-7.4-20-7.4-19 7.4-19 7.4l7.4 7v15.4l9.8 6.4a6 6 0 0 0 5 0l9.3-6.4V67.2z" style="fill:url(#o)"/><linearGradient id="p" x1="44.3" x2="54" y1="61.9" y2="50.6" gradientTransform="matrix(1 0 0 -1 0 128)" gradientUnits="userSpaceOnUse"><stop offset=".2" style="stop-color:#ffb300"/><stop offset=".5" style="stop-color:#ffca28"/></linearGradient><path d="m59.9 69-7.4-9.8-6.2 4.4 7.4 7-5.2 4.3-2.6-.2h-.4s-1.7.1-2.2.5q-.5.6-.1 1 .2.5 0 .9-.4.3-.4.8t.4.7q.3.3.2.5l-.3.9c0 .4.5.5.6.9 0 0-.3.5 0 .9q.6.5 2.2.6 1.3 0 3.6-.8l10.4-8.4c1-1.2 1-3 0-4.2" style="fill:url(#p)"/><linearGradient id="q" x1="24.9" x2="14.5" y1="61.3" y2="50.9" gradientTransform="matrix(1 0 0 -1 0 128)" gradientUnits="userSpaceOnUse"><stop offset=".2" style="stop-color:#ffb300"/><stop offset=".5" style="stop-color:#ffca28"/></linearGradient><path d="M26.4 78q0-.6-.3-.9-.4-.4-.1-.9t-.2-1c-.4-.4-2-.5-2-.5h-.5l-2.7.2-5.2-4.3 7.5-7-6.2-4.4L9.3 69c-1 1.2-1 3 0 4.2l10.4 8.4q2.3.8 3.6.8 1.5 0 2-.6c.5-.4 0-.8.1-1 .1-.3.6-.3.7-.8l-.3-.8.1-.6q.5-.3.5-.7" style="fill:url(#q)"/><linearGradient id="r" x1="34.4" x2="34.4" y1="50.1" y2="96.7" gradientTransform="translate(0 .72)" gradientUnits="userSpaceOnUse"><stop offset="0" style="stop-color:#515151"/><stop offset=".9" style="stop-color:#313131"/></linearGradient><path d="M54 60.3S50.8 53 33.8 53s-19 7.4-19 7.4l7.4 6.9h24.2z" style="fill:url(#r)"/><linearGradient id="s" x1="34.4" x2="34.4" y1="75.1" y2="68.3" gradientTransform="matrix(1 0 0 -1 0 128)" gradientUnits="userSpaceOnUse"><stop offset="0" style="stop-color:#ffb300"/><stop offset=".7" style="stop-color:#ffca28"/></linearGradient><path d="M45 54.4c-.2 3-4 7.2-10.6 7.2-6.8 0-10.5-4.4-10.5-7.4v-.1q3.6-1.1 10-1.2 7 0 11 1.5" style="fill:url(#s)"/><path d="M34 57.3c-2 0-3.6-1.5-3.6-3.4v-4.3h8V54c0 1.9-1.6 3.4-3.6 3.4z" style="fill:#e59600"/><path d="M34.5 20.3c-6.9 0-13.2 5-13.2 15.9 0 8.7 5.3 13.8 10 15.5q1.7.5 3.2.5c1.5 0 2-.2 3-.5a16 16 0 0 0 10.1-15.5c0-10.8-6.3-16-13.1-16" style="fill:#ffca28"/><ellipse cx="28.1" cy="38" rx="1.9" ry="2" style="fill:#404040"/><ellipse cx="41" cy="38" rx="1.9" ry="2" style="fill:#404040"/><path d="M36 41.7h-3.1q-.4 0-.3.6.2 1 1.8 1a2 2 0 0 0 1.8-1q.2-.5-.3-.6" style="fill:#e59600"/><path d="M31 34.4c-.4-.5-1.3-1.2-3-1.2s-2.5.7-2.8 1.2q-.2.4 0 .6.1.3.7.2.5-.3 2.2-.5 1.6.2 2.1.5t.8-.2zm12.9 0c-.4-.5-1.3-1.2-3-1.2s-2.4.7-2.8 1.2v.6q.2.3.8.2.5-.3 2-.5 1.8.2 2.2.5.6.3.8-.2z" style="fill:#6d4c41"/><path d="M34.6 16.3c-16.3 0-16.2 15.1-16.2 15.4 0 7.3.4 16.8 2.3 23.5l2.8-1-1-15.3c0-1.1-.3-5.5 2.1-6 9-2 14-6.8 14-6.8 1.3 2.9 5.3 5.7 6.8 6.7 1.2 1 1 4.5 1 6l-1.2 15.6.5.1 2.3 1a93 93 0 0 0 2.4-23.8c0-.3.6-15.4-15.8-15.4" style="fill:#543930"/><path d="M37.7 45a10 10 0 0 1-6.6 0c-.7-.4-1.4.3-1.1 1s2.5 2.1 4.4 2.1 4.2-1.5 4.5-2.1-.5-1.4-1.2-1" style="fill:#795548"/><radialGradient id="t" cx="34.5" cy="88.6" r="17" gradientTransform="matrix(1 0 0 -1.32 0 156.4)" gradientUnits="userSpaceOnUse"><stop offset=".8" style="stop-color:#6d4c41;stop-opacity:0"/><stop offset="1" style="stop-color:#6d4c41"/></radialGradient><path d="M50.4 31.7c0 7.4-.4 17-2.4 23.7A34 34 0 0 0 34 53q-9.1.2-13.2 2.2a99 99 0 0 1-2.3-23.4c0-.3-.1-15.4 16.2-15.4s15.8 15.1 15.8 15.4" style="fill:url(#t)"/><path d="M32.1 124h-4.3c-.8 0-1.4-1-1.2-1.7.7-2.5 3-4.3 5.5-4.3 2.7 0 5 1.9 5.6 4.4q.2 1.4-1.2 1.6z" style="fill:#504f4f"/><radialGradient id="u" cx="34.5" cy="87.9" r="19.8" gradientTransform="matrix(1 0 0 -1.214 0 146.77)" gradientUnits="userSpaceOnUse"><stop offset=".8" style="stop-color:#6d4c41;stop-opacity:0"/><stop offset="1" style="stop-color:#6d4c41"/></radialGradient><path d="M34.6 16.3c-16.3 0-16.2 15.1-16.2 15.4q0 4.7.3 10h2.7c0-1.1.8-8.3 3.2-8.8 9-2 14-6.8 14-6.8 1.3 2.9 5.4 5.7 6.8 6.7 1.2 1 1.6 7.4 1.6 9h3q.4-5.4.4-10.1c0-.3.6-15.4-15.8-15.4" style="fill:url(#u)"/><linearGradient id="v" x1="34.4" x2="34.4" y1="7.4" y2="32.7" gradientTransform="translate(0 .72)" gradientUnits="userSpaceOnUse"><stop offset="0" style="stop-color:#504f4f"/><stop offset="1" style="stop-color:#212121"/></linearGradient><path d="M50 5.3c-.2-1-1.2-1.5-2.1-1.2a15 15 0 0 0-8 6c-1.4 2.4-2 6-2.2 9.1 0 1.1-1 2-2.1 1.9h-2.4a2 2 0 0 1-2-1.9c-.3-3-1-6.7-2.4-9.2A15 15 0 0 0 21 4.1c-.9-.3-1.9.2-2 1.2-.5 2.4-.8 6.6 1.1 9.9 1.4 2.4 4.3 4.8 6.8 6.5a1 1 0 0 1 0 1.6q-1.5 1.2-2.3 2.6c-.6.9.4 2 1.3 1.4q2.6-1.8 8.6-2c6-.3 6.8.9 8.6 2 .9.6 2-.5 1.3-1.4q-.9-1.4-2.3-2.6a1 1 0 0 1 0-1.6c2.5-1.7 5.4-4 6.8-6.6 2-3.2 1.6-7.4 1.2-9.8" style="fill:url(#v)"/><path d="M42.3 11.8c-1 1.8-1.2 4.8-1.3 6.1q0 .5.6.4c1-.7 3.6-2.5 4.6-4.3 1-1.5.9-3.5.7-4.6q-.1-.8-1-.5c-1 .4-2.7 1.3-3.6 2.9m-15.8 0a15 15 0 0 1 1.3 6.2q-.1.4-.5.3c-1.2-.7-3.7-2.4-4.7-4.3-1-1.5-.9-3.5-.7-4.6q.1-.7 1-.5c1 .4 2.7 1.3 3.6 2.9" style="fill:#ff4081"/></svg>