<svg xml:space="preserve" width="16" height="16" viewBox="0 0 128 128"><path d="M69.2 71.9C49.8 71 43.7 83.3 36.4 88.4c-5.5 4-14.7 3.3-14.7 3.3-7 1.2-11.6 5-11.6 12 0 6.5 3.5 12.9 13 12.9l63.2-2.2s2.5-41.8-17.1-42.5" style="fill:#d3cac3"/><path d="m10 84.3 19.9-50 13.8 5.3S39 64.1 38.5 70.2s5.2 20.4 4 33c-1.3 14.1-6.9 17.8-17.5 19-7.5.9-15.8-2.5-18.2-6.8-3.4-6.3-4.4-14.1 3.2-31" style="fill:#90a4ae"/><path d="M28.4 37.8c.8 0 2-.3 4 2.1 1.5 1.9 5 5 8.9 5.2l1.2-5.7-12.6-5z" style="fill:#466b7d"/><linearGradient id="a" x1="42.2" x2="-3.7" y1="41.4" y2="163.1" gradientUnits="userSpaceOnUse"><stop offset=".3" style="stop-color:#d3cac3"/><stop offset=".7" style="stop-color:#6d94a5"/></linearGradient><path d="M14.1 98.7s15.2-45.6 21.1-62.2L30 34.3l-20 50c-7.5 17-6.5 24.8-3 31.1 2.3 4.3 9 7.9 16.5 7q2.8-.3 5-1z" style="fill:url(#a)"/><path d="M28.4 37.8c.8 0 2-.3 4 2.1 1.5 1.9 6.1 5.9 10 6.1.8-3.4 1.3-6.4 1.3-6.4l-13.8-5.3zM39 76s.2 6-4.8 10.2c-7.8 6.7-23.5 2.9-26.3 21.3-.7 4.9-2.7 4-2.7 4s2.6 11.8 17.9 11c11.3-1 17.6-9.2 19-18.4 1.6-9.7-3-28-3-28" style="fill:#466b7d"/><linearGradient id="b" x1="53.6" x2="53.6" y1="100.5" y2="122" gradientUnits="userSpaceOnUse"><stop offset=".3" style="stop-color:#d3cac3"/><stop offset="1" style="stop-color:#6d94a5"/></linearGradient><path d="M81.6 71.1c-25.3 0-32.7 7.7-38.7 13.8-3 3-5.3 5.4-9.3 6.4-3.6 1-9.2 2.1-10.8 2.5-8 1.3-12.6 6.8-12.6 14.7q0 6 3.8 9.8c2 2 5.6 4.4 12 4.4h.1l69-2.3s6.2-33-3-44.4a13 13 0 0 0-10.6-5" style="fill:url(#b)"/><path d="M76 80.4c-17.3-3.1-24 5.8-33.5 13.2A43 43 0 0 1 26.6 98c-7 1.2-11.5 5-11.5 12s3.5 12.5 12.9 12.5l63.2-2.2s4.3-36.6-15.1-40" style="fill:#90a4ae"/><path d="m70.8 88.2-.1-9.5v-.1q-.2-4.2-1-6.8h-.6c-4.2-.2-8.5.7-8.5.7s5 1.2 5.4 9c.2 2.6.3 3.3.2 7.5-.4 34.5 28 31.5 28 31.5l.2-1.7c-16.9-3.1-23.7-12-23.6-30.6" style="fill:#466b7d"/><circle cx="28.3" cy="111" r="7.4" style="fill:#466b7d"/><circle cx="28.4" cy="109.7" r="6.5" style="fill:#a38e7a"/><radialGradient id="c" cx="26.7" cy="105.7" r="10" gradientUnits="userSpaceOnUse"><stop offset="0" style="stop-color:#fff"/><stop offset=".9" style="stop-color:#cdd7db;stop-opacity:0"/></radialGradient><circle cx="28.4" cy="109.7" r="6.5" style="fill:url(#c)"/><circle cx="29.4" cy="110.2" r="5.4" style="fill:#c6b3a1"/><path d="M121.8 88.9c0-17.1-14.6-28.3-31-27.7C75.6 61.8 67.5 72 67.5 72s4.7 4.5 2.5 16.2l-.2 1a26.5 26.5 0 1 0 52-.2" style="fill:#90a4ae"/><linearGradient id="d" x1="67.5" x2="123.5" y1="91" y2="91" gradientUnits="userSpaceOnUse"><stop offset=".3" style="stop-color:#d3cac3"/><stop offset="1" style="stop-color:#6d94a5"/></linearGradient><path d="m121.8 88.9 1.7.2c-.4-16.8-16.3-28.5-32.7-27.9C75.6 61.8 67.5 72 67.5 72s.8.7 1.2 7.8l.1 9.4c0 16 7.5 28.3 21.9 31.1s29.3-6 32.1-20.4c.7-3.6-.3-7.6-1-11" style="fill:url(#d)"/><circle cx="98" cy="92.8" r="25.7" style="fill:#90a4ae"/><circle cx="100.5" cy="95" r="15.4" style="fill:#466b7d"/><circle cx="101.1" cy="92.9" r="14.3" style="fill:#a38e7a"/><radialGradient id="e" cx="95.8" cy="81.9" r="20.3" gradientUnits="userSpaceOnUse"><stop offset="0" style="stop-color:#fff"/><stop offset=".9" style="stop-color:#cdd7db;stop-opacity:0"/></radialGradient><circle cx="101.1" cy="92.9" r="14.3" style="fill:url(#e)"/><circle cx="102.8" cy="93.3" r="12.5" style="fill:#c6b3a1"/><path d="m68.4 20.1-8.7-4.5-8 8.4-.2 6.8 12.8 4.7L71 32c.3-.1-.1-5.6-.1-5.6z" style="fill:#212121"/><path d="M57.3 22.2c1.3-3.4 2.6-3.2 4.1-2.8 1.6.4 2.6 2.2 1.4 4.9l-2 6.1 6.9-2.1 2.8 3 1.7 3.6s-6.4 2.4-10.4 2.5-6.3-3.1-6.3-3.1L52.7 33z" style="fill:#466b7d"/><path d="m64.2 13.4.3-6c-.5-.1-3.1-.7-6.5-1-4-.5-6 .2-8 2.4L39 20.1c-3.1 3.9-.6 9.2-.6 9.2l14 2.4 11.2-14.5z" style="fill:#6d94a5"/><path d="M38.3 29.3s-2.5-5.3.6-9.2L50.1 8.8c1.9-2.2 4-3 8-2.5l6.4 1-.5 9.1c0 .2-11.6 15.3-11.6 15.3z" style="fill:#d3cac3"/><path d="M46 22.6 60.6 8l1.6 11.4-8.8 11.1-5-4.8zm22.4-11.2c-.8-2.6-1.7-3.5-4-4-4.2-1.3-7.4 3.4-4.7 8.2 2.9 5.1 7 13.6 7 13.6l6.3 5.1c1-.3 2-2 1.2-4.5z" style="fill:#90a4ae"/><path d="M67.3 9.5s0-.7-1-1.4q-.8-.6-1.8-.8c-4.3-1.2-7.5 3.5-4.8 8.3l8 16q.8.1 1.4-.6.2-.7 0-1.5l-7-14.3c-.6-1.3 4.2-6.6 5.2-5.7" style="fill:#466b7d"/><circle cx="64.5" cy="12.7" r="4.6" style="fill:#466b7d"/><circle cx="64.9" cy="12.2" r="4.3" style="fill:#a38e7a"/><radialGradient id="f" cx="61.1" cy="5.7" r="6.6" gradientTransform="rotate(12.2 45.28 22.59)" gradientUnits="userSpaceOnUse"><stop offset="0" style="stop-color:#fff"/><stop offset=".9" style="stop-color:#cdd7db;stop-opacity:0"/></radialGradient><circle cx="64.9" cy="12.2" r="4.3" style="fill:url(#f)"/><circle cx="65.7" cy="12.3" r="3.5" style="fill:#c6b3a1"/><circle cx="70.7" cy="31.3" r="4" style="fill:#466b7d"/><circle cx="70.9" cy="31.1" r="3.5" style="fill:#a38e7a"/><radialGradient id="g" cx="71.1" cy="23.4" r="5.4" gradientTransform="rotate(12.2 45.28 22.59)" gradientUnits="userSpaceOnUse"><stop offset="0" style="stop-color:#fff"/><stop offset=".9" style="stop-color:#cdd7db;stop-opacity:0"/></radialGradient><circle cx="70.9" cy="31.1" r="3.5" style="fill:url(#g)"/><circle cx="71.6" cy="31.3" r="2.8" style="fill:#c6b3a1"/><path d="M27.7 27.5c1.3-6.2 6.9-8 12.2-7.6a56 56 0 0 1 7.6 1.2c-.5 2.1-.6 17.3-1.8 19.1-1.4 2-8.1.6-12.5-2.6-2.6-2-4-1.5-4-1.5s-2.2-4.9-1.5-8.6" style="fill:#d9c6b6"/><ellipse cx="43.5" cy="30.7" rx="10.4" ry="9.9" style="fill:#90a4ae" transform="rotate(-75 43.51 30.68)"/><path d="M38.1 29.4c.8-3.2 4-5.6 8-4.4 3.2 1 18.9 6.8 18.9 6.8l.4 7.7s-18.2-.7-20-1c-7.5-.8-8-5.9-7.3-9" style="fill:#466b7d"/><path d="M68 37c.3-1.8-.8-3.6-2.5-4.1 0 0-14.5-5.5-17.8-6.2a6 6 0 1 0-2.5 11.7c1.6.4 17 1.2 19.1 1.3h.3c1.6 0 3-1.2 3.3-2.7" style="fill:#90a4ae"/><circle cx="47.3" cy="33.1" r="4.6" style="fill:#466b7d"/><circle cx="47.7" cy="32.6" r="4.3" style="fill:#a38e7a"/><radialGradient id="h" cx="48.6" cy="29.2" r="6.6" gradientTransform="rotate(12.2 45.28 22.59)" gradientUnits="userSpaceOnUse"><stop offset="0" style="stop-color:#fff"/><stop offset=".9" style="stop-color:#cdd7db;stop-opacity:0"/></radialGradient><circle cx="47.7" cy="32.6" r="4.3" style="fill:url(#h)"/><circle cx="48.4" cy="32.9" r="3.5" style="fill:#c6b3a1"/></svg>