<svg xml:space="preserve" width="16" height="16" viewBox="0 0 128 128"><path d="m118 60.5 3.5 53c.3 4.3-3.2 8-7.5 8H14a7.5 7.5 0 0 1-7.5-8l3.5-53c3-34 24.2-54 54-54s50 24 54 54" style="fill:#b9e4ea"/><circle cx="64" cy="60.5" r="40" style="fill:#fff"/><circle cx="64" cy="60.5" r="40" style="fill:#fff"/><path d="M64 20.5a40 40 0 1 1 0 80 40 40 0 0 1 0-80m0-3a43 43 0 1 0 .1 86.1 43 43 0 0 0-.1-86.1" style="fill:#78909c"/><path d="M64 18.5v8.2m0 67.6v8.2m42-42h-8.2m-67.6 0H22m42-42v8.2m0 67.6v8.2M43 24.1l4.1 7.2m33.8 58.5 4.1 7.1M43 24.1l4.1 7.2m33.8 58.5 4.1 7.1M27.6 39.5l7.2 4.1m58.5 33.8 7.1 4.1M85 24.1l-4.1 7.2M47.1 89.8 43 96.9m57.4-57.4-7.1 4.1M34.8 77.4l-7.2 4.1" style="fill:none;stroke:#78909c;stroke-width:3;stroke-miterlimit:10"/><path d="M64 91.5a13 13 0 0 1-13-13v-35a13 13 0 1 1 26 0v35a13 13 0 0 1-13 13" style="fill:#e0e0e0"/><path d="M76.9 42.7c-.6-5.6-3.3-8.9-8.1-11.4q-.7-.6-1.6-.5S66 73.2 66 77.3c0 4.6-.4 9.8-5.6 11.4q-1.4.2-2.7 1c3.6 3 9.3 2.6 13.1-.2 2.2-1.4 6.2-4 6.2-15" style="opacity:.52;fill:#78909c"/><path d="m31.6 97.6.3.3c5 5.1 11.5 8.6 16.8 13.6-2.9 1-6 .3-9-.6a42 42 0 0 1-26.1-20.4 15 15 0 0 1-1.9-7.8c.2-1.5.8-3.1 2.1-3.8q2-.7 3.8.6c2.6 1.9 3.9 6 5.8 8.6q3.8 4.9 8.2 9.5" style="fill:#f5f5f5"/><path d="M109.3 84.9A59 59 0 0 1 74 112.4c3.3 4.1 18.9 3.2 30-5s14.8-30.4 12.4-37.1c-1.2.3-1.6 1.6-2 2.8a56 56 0 0 1-5.1 11.8" style="opacity:.5;fill:#82aec0"/><path d="m63.5 16.5-5-10h11z" style="fill:#ff4638"/></svg>