<svg xml:space="preserve" width="16" height="16" viewBox="0 0 128 128"><path d="m53 41-8.8 10.6 2.7 2.4c1.7 1.7 2.6 4.7 2.6 4.7s15.6-1.3 15.6-1.6S60 47 60 47l-6.3-6zm-7.1 29.3-4 .6s-3 2.6-2.6 4.1a166 166 0 0 0 55.2 41.2c14 6 23 7 26.3 7 3-.1 4.2-2 3.1-2.7L87.4 92.3z" style="fill:#b0b0b0"/><path d="M60 47 49 57.4s.8 3.3-1.4 6.6-5.8 7-5.8 7 11.6 13.2 25.3 23.5a142 142 0 0 0 42.6 24c8.8 2.5 14.4 2.2 14.4 2.2s-9.2-14-19-26a845 845 0 0 0-32.4-35.3C66.5 53 60 47 60 47" style="fill:#e0e0e0"/><path d="m10.2 13.8-2.7-2.3s-5 6-4.1 8.9c.8 2.5 12 11.5 22.2 19.7 8.1 6.7 14.6 12.2 16.4 12.6 2 .5 3.4-1.2 3.4-1.2z" style="fill:#474c4f"/><path d="M17.3 4.7C14.5 4.1 8.7 9.2 6.5 13s0 6.1 3.1 9l35.7 29.6 5.3-5c2.3-2.4 4.8-4.6 4.8-5.6-.1-1.4-15.6-15.4-21.3-21.3a85 85 0 0 0-16.8-15" style="fill:#5e6367"/><path d="M18.9 13.7q-1.5-1.2-3.4.1c-1.2 1-1.4 2.9-.1 3.9s3 .6 3.8-.4.7-2.7-.3-3.6m27.8 25.7c-1.3-1-2.8-.4-3.5.5-.6 1-.8 2.5.3 3.4 1 .8 2.6.4 3.3-.5.9-1 .8-2.6-.1-3.4" style="fill:#b0b0b0"/></svg>