<svg xml:space="preserve" width="16" height="16" viewBox="0 0 128 128"><path d="M116 4H12a8 8 0 0 0-8 8v104a8 8 0 0 0 8 8h104a8 8 0 0 0 8-8V12a8 8 0 0 0-8-8" style="fill:#bdbdbd"/><path d="M109.7 4H11.5A7.6 7.6 0 0 0 4 11.5v97.9c0 4.1 3.3 7.5 7.5 7.5h98.1c4.1 0 7.5-3.3 7.5-7.5V11.5c0-4-3.1-7.4-7.2-7.5z" style="fill:#e0e0e0"/><path d="M39.7 12.9c0-2.3-1.6-3-10.8-2.7-7.7.3-11.5 1.2-13.8 4-1.9 2.3-2.3 5.6-2.6 8.4-.2 2.2-2.2 14.9 3.5 11.2q1-.6 1.6-1.8c1.2-2.1 1.9-3.5 3.3-5.6 5.3-8.6 18.8-10.5 18.8-13.5" style="fill:#fff"/><path d="M28.6 46c2-4 2-7.6 3-11.3a15.2 15.2 0 0 1 29.8 0c1 3.7 1 7.3 3 11.2 1.6 3.4 3.3 3.2 3.3 5S65.1 54 62 54.4c-2.6.4-5.4.1-7.5-.7 3.5-2.6 5.2-6.4 5.7-8.2.2-1.2.5-2.2-.1-2.3-.8-.2-.6 1.3-2.3 3.5-3.4 4.5-6.3 6-11.3 6s-7.8-1.5-11.2-6c-1.7-2.2-1.5-3.5-2.3-3.5s-.4 1.3 0 2.4c.4 1.8 2 5.6 5.5 8.1-2.1.8-4.9 1-7.5.7-3.2-.4-5.7-1.8-5.7-3.5 0-1.8 1.7-1.6 3.3-5m15.8 10.9h3.9c9.1 0 18.6 5.3 18.6 16.6v22.4a7 7 0 0 1-7 7H32.7a7 7 0 0 1-7-7V73.4c0-11.3 9.5-16.6 18.7-16.6"/><circle cx="89.5" cy="76.8" r="12.3"/><path d="M101.7 102.7c1 0 1.7-1 1.5-1.9-1.4-5-7-9-13.7-9s-12.3 4-13.6 9c-.3 1 .4 2 1.4 2z"/></svg>