<svg xml:space="preserve" width="16" height="16" viewBox="0 0 128 128"><path d="m27.4 102.2-14.6-2s0 18.7-.2 20.4q.1 2.8 2.4 3.1c2.6.2 7.5.2 9.2.1 1.8 0 3-1.3 3-3v-11.6zm70.6 6.3-.2 12.7c0 2.1 1.2 3.3 2.6 3.2h9.5c1.5 0 3.1-1.4 3.1-3.4l.3-20z" style="fill:#4e433d"/><path d="m19.6 55.9-3.3.2s0-3.3-.2-4.5-1.6-1.9-2.7-2c-1 0-6 0-7.4.2S2.2 51.4 2.2 55c.1 3.6 2.4 5.6 4.3 5.5h8.1l5.8.2zm89.8.5h3s0-3.6.4-4.7q.5-1.7 3.2-1.7l6.8.2c1.2 0 3.6 2.2 3.7 5.3.2 3.2-2 5.2-4.2 5.5s-10.4 0-10.4 0zm-4.9 5.3 9.2-.4s3.4 5.5 3 23.9c-.4 17.5-5 24.4-9 25.3s-19 2.5-43 2.6c-23.9.2-41.7-1.2-45-2s-7.2-6-7.6-9.6c-.6-5.7-.7-13.3-.4-24s2.6-16.3 2.6-16.3z" style="fill:#474c4f"/><path d="M26.8 92.2c-5.2-.9-12.7-4.1-13.3-1.7-.5 2.4 1.8 5.2 7.2 7s18.1 3.3 44.5 2.7c26.5-.6 35.4-1.3 40.6-2.8s11.4-5.4 9.4-7.7-7 1-11.8 2c-4.7.8-22.3 1.3-38.5 1.6-17.6.4-32.6-.2-38-1.1" style="fill:#858585"/><path d="M47.6 88.5c-2 .1-5-1-6.2-4.2s-1.4-5.2-1-6.9q.3-2.4 4.2-2.5c2.7-.3 8-.7 19.3-.7 11.3-.1 19 .1 21 .4 2 .2 3.2.9 3 3s-1.5 6.2-2.3 8.3q-1 2.3-5.1 2.6z" style="fill:#2f2f2f"/><path d="M114.8 76.2c-1-.6-22.5.3-23.1.9s-4.5 8.3-2.6 9 25 .4 25.8 0c1.2-.6.9-9.4 0-10m-78.3 1.1c-1.7-.5-23-1-23.9 0-.4.5-.3 6.8-.2 8q.1 1.7 2.5 1.6c1.5.1 21.3.3 22.7.1s1.6-1.5 1.3-2.6c-.2-1.2-1-6.7-2.4-7.1" style="fill:#fea826"/><path d="m37.9 27.7.2-7.5 6.7.9-.2 6zm17.8-5.9.1 4.7h19l.2-4.6zm29.3-.2v6.1l6.3.2-.4-6.5z" style="fill:#474c4f"/><path d="M56.5 12.9h18.1l3.4 6-3.5 4.3h-18L53 17.8z" style="fill:#cececf"/><path d="M35.4 21.2c0 1 0 1.8 1 1.8l20 .2V12.9H38c-1.3 0-2.6 1.5-2.6 2.6z" style="fill:#0f64c7"/><path d="M74.6 12.9s15.7.2 16.7.4 2.2 1.5 2.4 3c.1 1.6-.2 5.3-.2 6s-.9 1.1-2.3 1.1l-16.7-.2z" style="fill:#dd0c26"/><path d="M14.3 61.2c.2-.3 2.2-1 3.5-3.2.9-1.5 3.4-9.8 6.7-16.3s4.7-9.5 5.7-11q1.2-2.2 4.7-3.3c2.4-.7 10.7-2.6 30.9-2.2s25.2 1 27.1 1.6c1.6.5 4.6 2 6.5 5.7 2 3.5 10.1 21.8 10.9 23.4s3.4 5.4 3.4 5.4-7 7.2-23.2 9.1a205 205 0 0 1-57.7-.6c-17.2-3-18.7-8.3-18.5-8.6" style="fill:#e3e4de"/><path d="M32.2 33.5C30.4 35.2 26.4 44 24.4 49s-3.2 9.2-.5 9.3 28.5-.3 40-.3 38.5.5 40.5.5 3.2-1.7 2.3-3.9-7.6-17-9.2-19.4-3.7-3.2-7.5-3.4-18-1-27.7-1-28.5 1-30.1 2.7" style="fill:#2d2e35"/><path d="M26.1 54.2c.4.6 24.9-.5 39.6-.2s34.5.7 35.5.6 1-1.5 1-2l-1.9-4s-9-10-9.6-10l-26 1.6-28.6-.8L27.6 50s-1.7 4-1.5 4.2" style="fill:#96c8ed"/><path d="M27.6 50s4-9.6 5.5-12c.7-1 1.1-1.8 3.3-2.1s13.4-1.9 28.4-1.6 23.7.8 25.5 1q3.2.2 4.4 2.2l6.5 13-9.2-.8s0-4.2-.2-5.7q.1-2.1-2.6-2.4c-1.7-.1-5.5-.2-6.8-.1q-2 0-2.4 3l-.5 5-28.5.1s0-4.4-.2-6q-.3-1.9-2.4-2c-1.8 0-5-.1-7.4.2q-1.7.3-2 3.3l-.2 4.5z" style="fill:#afe3fb"/></svg>