<svg xml:space="preserve" width="16" height="16" viewBox="0 0 128 128"><path d="M119.7 102H8.4A4.3 4.3 0 0 1 4 97.7V30.3c0-2.4 2-4.4 4.4-4.4h111.2c2.4 0 4.4 2 4.4 4.4v67.4c0 2.4-2 4.4-4.3 4.4" style="fill:#9e7e54"/><path d="M119.8 90H8.2A4 4 0 0 1 4 85.6V30.3c0-2.4 2-4.4 4.4-4.4h111.2c2.5 0 4.4 2 4.4 4.4v55.4c0 2.3-1.9 4.2-4.2 4.2" style="fill:#f7b95e"/><circle cx="84.8" cy="57.9" r="18.5" style="opacity:.5;fill:#9e7e54"/><path d="M106.5 33.1c.8 5.4 5 9.7 10.5 10.5v28.6c-5.4.8-9.7 5.1-10.5 10.5h-85c-1.2-5-5.3-9-10.5-9.9V44.3c5.6-.9 10-5.5 10.6-11.2zm1.8-2H19.7v.7c0 5.9-4.8 10.7-10.7 10.7v32.2c5.7 0 10.3 4.4 10.7 10h88.6c0-5.9 4.8-10.7 10.7-10.7V41.8c-6 0-10.7-4.8-10.7-10.7" style="fill:#9e7e54"/><path d="M53 25.9h22v76.2H53z" style="fill:#ffecb3"/><path d="m36.5 55.5 6.2-13.3a1 1 0 0 1 1-.6h3q.8.1.6 1L40 56.7q-.3.9.5 1h4.1q.7 0 .8.7v1.3q-.1.6-.8.7h-5.9q-.5 0-.6.7v2.4q0 .5.6.6h6q.6.1.7.8v1.3q-.1.7-.8.7h-5.9q-.5 0-.6.6v5.8q-.1.8-.8.8h-2.7a1 1 0 0 1-.8-.8v-5.8q0-.5-.6-.6h-5.8a1 1 0 0 1-.7-.7V65q0-.7.7-.8h5.8q.5 0 .6-.6v-2.4q0-.6-.6-.7h-5.8a1 1 0 0 1-.7-.7v-1.3q0-.7.7-.8h4.1q.8-.1.6-.8l-7.3-14.4q-.3-.7.6-.9h3q.8 0 1 .6l6.2 13.3q.4.6 1 0" style="fill:#fff"/><path d="M53 89.9h22v12.2H53z" style="fill:#ffc06c"/></svg>