<svg xml:space="preserve" width="16" height="16" viewBox="0 0 128 128"><path d="M64 4a60 60 0 1 0 0 120A60 60 0 0 0 64 4m50 60c0 11.5-4 22.7-11.3 31.6L32.4 25.3A50 50 0 0 1 114 64M14 64c0-11.5 4-22.7 11.3-31.6l70.3 70.3A50 50 0 0 1 14 64" style="fill:#c33"/><circle cx="60.1" cy="63.1" r="56.1" style="fill:#f44336"/><path d="M95.6 102.7a50 50 0 0 1-70.3-70.3l7.1-7.1a50 50 0 0 1 70.3 70.3" style="fill:#fff"/><path d="M95.6 102.7a50 50 0 0 1-70.3-70.3l7.1-7.1a50 50 0 0 1 70.3 70.3" style="fill:#231f20"/><path d="M96.4 103.2A47.9 47.9 0 0 1 29 35.8l6.8-6.8a47.9 47.9 0 0 1 67.4 67.4" style="fill:#414042"/><path d="M58.7 34.4a7.6 7.6 0 1 1 15.2 0 7.6 7.6 0 0 1-15.2 0m4.4 0a3.2 3.2 0 1 0 3.2-3.2 3 3 0 0 0-3.2 3.1z" style="fill:#e2a610"/><path d="M72.8 30.5a2 2 0 0 1-1.2 2.1q-1.2.8-2.6.2.4.7.4 1.6a3.2 3.2 0 1 1-6.4 0q0-.8.3-1.4-2.2 1-4.6.2l-.1 1.2a7.6 7.6 0 1 0 15.2 0q0-2.1-1-3.9" style="fill:#9e740b"/><path d="M33.6 80.8c4-3.9 6.4-5.2 7.5-10.9s.2-17.6 4.6-25.4a21 21 0 0 1 18.8-10.1h1a21 21 0 0 1 18.8 10.1c4.4 7.8 3.6 19.7 4.6 25.4s3.5 7 7.5 10.9c1.7 1.7 3.8 4.4 3.8 6.1s-.9 2.4-3 3.2C91.3 92.6 83.4 95 65 95s-26.3-2.4-32.3-4.9c-2.1-.9-3-1.5-3-3.2s2.2-4.5 3.9-6.1" style="fill:#ffca28"/><path d="M94.2 87c0-2.6-13.1-4.7-29.2-4.7S35.8 84.4 35.8 87s13.1 5.7 29.2 5.7 29.2-3.1 29.2-5.7" style="fill:#4e342e"/><path d="m82.5 49.6.5 2.5c.7 4.1.6 8.4.9 12.6.5 5.6 1.4 8.6 3.7 11.2q.2.3 0 .7l-.5.1c-3-.5-5.5-.9-8.2-2.8-4.1-2.7-5.2-7.9-5.2-12.5 0-6.9.1-13.5-.5-16a21 21 0 0 0-2.6-7.1c-1.8-2.6 5.1 1 6.1 1.8 3.2 2.3 4.9 5.9 5.8 9.5" style="fill:#e2a610"/><path d="M45.6 58.8c-.1-4.5 0-9.1 1.7-13.1q1.8-3.8 5.2-6c1.8-1.1 5.5-2.3 6.8.2q.4.7.4 1.6c0 1.9-1 3.7-1.9 5.4-2.9 5-4.1 10.4-5.6 15.9q-.8 3.5-2.8 6.5c-.9 1.3-6.2 6-5 1.8q1.5-6 1.2-12.3" style="fill:#fff59d"/><path d="M70.3 86.1q0-1.4-1.8-2-3.9-1.3-7.8.3c-2 1.1-.6 7 4.2 7s5.4-4.6 5.4-5.3" style="fill:#e2a610"/><path d="M46.9 77.2c-5.2.9-8.9 2.9-10.5 4.4-1.3 1.3-1.3 2.2 1 1.2q5.7-2.2 11.9-2.8c8.2-.8 13.2-.8 14.1-.8 2 0 2.1-1.5-1.8-2q-7.4-1-14.7 0m16 13q1 .8 2.3.4t1-2H66q-.2-.4-.7-.7-1-.8-2.3-1.3l-1-.2q-.5 0-.8.5c-.5 1.2.6 2.6 1.6 3.3" style="fill:#fff59d"/><path d="M23.4 35.6 95 102.1l2-1.9-66.4-66.8" style="opacity:.8;fill:#231f20"/><path d="M103.9 96.8 25.3 18.9 18.2 26l78.6 77.9" style="fill:#f44336"/><path d="M45 10.9c1.7-.4 4.2-1.6 5.9-1.1 1 .3 1.8 1.4 1.5 2.5q-.6 1.3-2 1.5-5.9 1.5-11.3 4.1A52 52 0 0 0 21 33.7c-1.9 2.7-3.4 5.5-5.8 7.8q-.3.3-.8.4l-.5-.1q-1.6-.6-1.2-2.3.3-1.5 1-2.9 1.5-2.7 3.3-5.1a46 46 0 0 1 6.6-8A57 57 0 0 1 45 10.9" style="fill:#ff8a80"/><path d="m32.4 25.3-2 2 71.1 71.1 1.8-2.2z" style="fill:#c33"/></svg>