<svg xml:space="preserve" width="16" height="16" viewBox="0 0 128 128"><path d="M36.3 37s.2-15.4-1.3-20.6c-1.6-5.2-9.4-5.9-9.4-5.9s2-7.6 9-6.8S45.5 11.6 48 18c5.6 14 6.7 33.1 6.7 33.1L38 91.3l-17-5z" style="fill:#855c54"/><path d="m62.4 69.8 2.1-2.9s5.5 2.4 9.3 2.2c3.8-.3 13.6-2.1 13.6-2.1l.4 15.9-26.4-4.7z" style="fill:#606468"/><path d="M96 53.4s-.6-12-.6-16.7-2.7-21.3 8-21c8.2.2 6 12.3 6 12.3l-2.9 3.5s4.4 23.2 6.2 29.3c3.5 12.1-.9 15.7-.9 15.7l-16.7 2.1z" style="fill:#865b52"/><path d="M11.2 6.4c-4.8 1.4-4 5.8-4 7.6s1.2 2.1 3.3 2.3 18 3 21.5 3.9c3.6 1 12.7 3 20.5 3.7s30 4.2 32.2 4.8c2.1.5 6.3 2.2 16.3 3.5s15 2.5 15.8 1.8c.7-.7.4-9-.4-10.3a71 71 0 0 0-27.3-3.2s-11.3-2.3-17-3.7-16-2.5-22.9-3-20.8-2.6-20.8-2.6l-8.5-3.5c-1.2-.5-4.2-2.5-8.7-1.3" style="fill:#727f39"/><path d="M67 17.1 58 72s6.7 1 8.3-.9c1.5-1.8 4-7.5 4.3-16.9.2-4.5-.1-18.1-.1-18.1s6 15.2 7.6 19.8 5 21.3 5 21.3l9.2-8.9-19-48z" style="fill:#865b52"/><path d="M28 5.9c2 .5-.7 3-1.2 3.9S26 12 26 12s2-2.4 3.4-3.4c1.5-1.2 3.8-1.9 4.8-.8 1.3 1.5-.2 2-1.8 3.3q-.9.6-2 1.8l-2.3 3.2c-.8 1-2 2.1-3.2 1.7-.7-.2-.4-2.7-.4-2.7s0 1.3-1.2.7-1-4.2 0-6.4 3-4.1 4.9-3.6m4.3 10.4c2.9-2.9 8-4.1 6-5.8s-5.5.2-8 2.8-3.1 6-1.8 6.4c1.2.3 2.2-1.7 3.8-3.4m68.5 2.7c-2 .2-.5 2.7 0 3.7q.8 2.2 1 5.8c.3 3.4 1.7 3.3 2.4 1.9.6-1 .6-2.7.6-3.9 0-2-.4-2.8-.2-2.8.5 0 1 2.5 1.1 4.1.1 2-.2 3.9.8 4 1.5.2 2.3-1.6 2.3-3.8v-3.6c.2 0 .8 1.8.8 4.1 0 1.4-.2 3.8.8 3.7 1.4 0 2.3-4.4 1.7-7.4-.4-2.4-2-5-3.3-5.3-1.4-.2-1 1.7-1 1.7s-.7-2.2-2.7-2.4c-1.7-.1-1.6 1.6-1.6 1.6s-1-1.7-2.7-1.4" style="fill:#f8eac0"/><path d="M115.6 66c-3.3.4-7.2 6.5-7.2 6.5S103.3 61.6 99 55 85 31.6 83.8 27.5s-1.1-7.2.3-7.3c1.3-.2.5-.8.5-.8s.6-4.5-3.7-6.2c-3.6-1.5-6.7 1-6.7 1S72.4 12 67.8 12s-9.2 2-11.6 9.4c-2 6.3-2.2 18-2.3 22.2S52.2 57 48.7 63.2C45 69.4 40 76 39.3 79.2s.7 7.6-2 7.4-4.6-3.1-2.4-7.6 6.2-9.6 6.2-9.6l6.3-20.5 3.7 1.7c1-4.3 2.1-11.1-9.3-16.6s-30-1.2-34 13.4a50 50 0 0 0-1.3 13.2 82 82 0 0 0 3.6 20.8c2.7 9.2 7.2 16 8.7 18.6 3 5.3 8.8 11.4 9.7 11 1-.3 1.2-2.6 1.2-2.6s2.1 2.9 6.6 6c4.4 3.2 11 7.8 12.3 7.3s-.5-3.4-.5-3.4 5 2.7 10 4c4 1 12.6 1.3 12.5 0s-3.2-2.6-2.8-3.5c.4-1 1.8 1.7 10.8 1 6.6-.6 18.3-4 24.8-13.9s10.4-17.4 12.8-22.4 5.4-9.4 6-11.6c.4-2.1.4-6.8-6.7-5.9M83 70.4c-.4 1.3-4.6 2.7-9 2.8-4.2.1-8-1.2-9.2-3.2s1.5-5 2.4-11.1.5-17.5.6-24.5 2.1-14 2.1-14 .2 6.6.7 9.5a52 52 0 0 0 2.6 9c1 2.8 5.4 10.8 7.4 17.5a34 34 0 0 1 2.4 14" style="fill:#ae9580"/><path d="M33 42.2c-6-.4-4.4-2.8-9.8-3-5.3-.3-12 6.4-12 14-.2 8.1 5.3 18.6 19.7 19.3 5.5.2 8.5-.6 8.5-.6 3.8-5.5 7.2-9.9 9.5-14.3 1.5-2.8 2-5 2.4-7.4.4-2 .2-4-2.7-6.8-6.1-5.7-10.6-1-15.5-1.2" style="fill:#feeac7"/><path d="m19.4 46.7 3.4 5.9s-2.6 1-4.3 2.8l-5.6 6.2s-1.2-2.8-1.6-5c-.3-2.1-.2-4-.2-4s1.6-1.7 3.8-3.2 4.5-2.7 4.5-2.7m24 1-3.7 5a45 45 0 0 0 7.5 7.9s1-1.2 2.1-3.5c1-2 1.3-3.8 1.3-3.8s-2.4-2.2-3.7-3.1z" style="fill:#5c6268"/><circle cx="21.2" cy="49.6" r="3.4" style="fill:#010605"/><ellipse cx="41.9" cy="50.4" rx="3.4" ry="3.3" style="fill:#010605"/><path d="M32 48.4c-3.6-.4-5.6 2-5.6 2l1.8 2.8c.4.6 1.3 2 1.3 2.3 0 .5-1.9.9-3.1.8-2.5-.1-3.5-2-4.6-1.3-1 .8.2 2.7 1.5 3.3a8 8 0 0 0 4.3.8c1.7-.1 3.6-1.2 3.6-1.2s2.2 1.6 3.1 1.8q3.7.8 5.5-1c.9-.6 1.8-2.3 1.2-2.8-1.5-.9-2.3 1.5-4.4 1.5S33 55.7 33 55.7l1.7-1.8c.8-.6 2.2-2.3 2.2-2.3s-1-2.7-5-3.2" style="fill:#010605"/><path d="M35 101.6c-1 1.3-6-3.5-7.6-5.5s-4.1-5.2-2.4-6.6 4 3 5.5 5 5.1 6.4 4.5 7.1m5.3-1.1c-2.1 2.3 2.1 6 5.7 8.6s9.3 4 9.9 3.2-4-3-7.8-6-6.3-7.3-7.8-5.8m11.7 3.2c-.7 1.8 3.3 5.2 9.1 6.1 5.9 1 12-.5 11.8-2-.1-1.2-3.3 0-11.1-1.8-6-1.3-8.8-4.4-9.7-2.3m8.8-5.4c-.3 1.5 3 3 7.9 2.9s8.2-2.5 8-3.5-4.6.3-8.2.3-7.3-2.7-7.7.3m4.6 16c-.1 2.5 7.2 2.1 11.9.5 5.6-2 8.6-6.7 7.8-7.5-.8-.9-3.8 3-9.7 4.5-2.7.6-10 0-10 2.5" style="fill:#cdac93"/></svg>