<svg xml:space="preserve" width="16" height="16" viewBox="0 0 128 128"><path d="M103.1 54.4s3.5-.6 6.6-3c2.7-2 6.8-5.8 5.4-7.3-1.5-1.5-3.9 2.6-4.4 1.6-.4-.7 2.3-2.9 3.5-6.4 1-3-.2-6-2.9-2.7-.9 1-1.5 2.2-1.9 1.8s.6-3 1.4-5.4c1.3-4-.7-6.8-4-1.9-1.5 2.1-2.2 4.9-3.2 4.7-.8-.2-.4-1.7-.6-3.3-.2-3.2-3.3-2.9-4.4 2.8-.4 2.6 0 5.5-.6 5.7-1 .3-.8-4-2.4-3.6-1.2.4-1.6 3.3-1.5 6.4s2 8 2 8l2.7 5z" style="fill:#bdce44"/><path d="M95.5 52.2s-2.3 5.1.8 11.8c2.2 4.8 5.3 8.3 3.5 10.2-2.8 2.9-12.6-3.3-22.2-.5-7.5 2.2-11 6.5-13.2 14.3-1.6 5.9-3.3 8.1-6 9-2 .5-5.4 0-7.2-1.5A9 9 0 0 1 49 84.8c1.3-3.1 5.6-6.2 7.7-7.2 5.5-2.9 19.2-7.1 23-14.5 3.5-6.6 4.4-14.2 2.3-19-2.1-5-5.5-3.3-5.5-3.3l.8 11.7-13.5 14.1-19.3 13.2L41.8 94l6.8 11.4 13.9-1L76.7 83l13.7-1 13-.7 5-13.8z" style="fill:#6d8038"/><path d="M105.6 40.1c-2.3-1.5-10.2 5.7-10.3 13.8 0 8 4.8 13.8 5.8 15.4s4.1 7.3 0 9.8c-3.2 2-18.3-4.5-26.1.5S69.8 93 62.6 100c-2.7 2.6-17.1 5-18.3-9.4s16.2-15 24.8-21.3 11.3-11.5 11-19c-.3-7.3-2.4-9.6-2.4-9.6l-13.8 5.6-6.4 10.3s-8.3 3-15.6 8c-8.6 5.7-10.1 10-10.1 10s-2-.7-2-1.2 7-8.6 6.5-12.1c-.8-4.3-3.2-5.5-4.6-5.7-1.4-.1-2.2 1.1-1.2 2.7Q32.1 61 32 62c-.2.6-.8 1.3-1 .2a11 11 0 0 0-1.5-4c-.5-.7-2.1-2.6-4-2.3s-2.1 2.2-.5 3.7 3.1 3.6 2.3 4.5c-.8 1-2-2-3-3.2-.8-1.1-2.8-1.5-4.1-1.8s-3.5 1.2-2.2 3.3c1 1.5 2.2.8 3.7 2.4s1.6 2.3 1.6 2.7-3 2.6-3.3 4.6.2 3.1-.5 3.8c-.8.7-4 .6-5 1-1 .3-2.1 2.9-.2 3.7s5.6 1 7.3.5c1.2-.4 1.6-1 2.1-.8.5 0 4.6 3 4.6 3s-.6 4.4-.5 8c.1 4.9 1.6 8.6 1.6 8.6s1.4 2 .8 2c-1.7 0-6.5-4.8-8.8-5.3q-3.7-.8-5.1.7c-.9 1-1.2 3 .5 3.1 1.8.2 2.6-.2 2.6.5q0 .6-1.7 1.1-2.5 1-1.8 3.5c.4 1.6 2.5 1.1 3.1.7s.9-1 1.2-.6-1.1 1.5-1.6 2.5c-.8 2 .4 2.9 1.7 3 1.9.1 2.1-2.2 3-3.1s2-1.6 2.3-1.6c.4 0 .2 1.6 2 3.4 1.6 1.8 3.9.8 4.3 1.1s-.3 2.8 1.1 4.1 3.8.8 3.8-1.2.2-2.9.2-2.9 2.9 2.5 6.6 3.8 8.8 2.4 8.8 2.4-.5 1-.4 2.7c0 .7.2 3 2.3 3 1.6-.1 1.7-3 2.2-3.2.6 0-.5 3.9 2.3 4 2.9.3 2-3.5 2.5-3.6.5 0 .5 4.9 4.3 3.2 2-.9-.7-5.3-.5-5.6s2-.6 3.2-1.4c.8-.5 1.3-1.6 1.3-1.6s5.9-1.7 8.3-6.1c3.4-6 2.8-13.2 5.4-15.5s7.7-.5 10.2-.2l2.8.3c.1.1.4 1.2.2 1.6-.2.3-7 2.7-8.5 5.4-1.6 2.6-1.4 4.5-1.2 5.3.3 1.5 1.8 1.7 2.5.4s1-2.4 1.6-2.2-.5 2.3 0 3.3c.6 1.4 2.2 1.2 2.9.7s.8-2.6 1.3-2.3c.4.2 0 1 .8 2.6.8 1.4 3.4.1 3-1.9-.3-1.2-1.3-2.1.2-3.3s2.6-1.1 4.1-2c1.5-1 1.4-2.3 3-1.7 1.8.6 1.8 2.1 3 1.2 2-1.3 1-4-.5-5.2-1.6-1.2-4-1.4-4.3-1.5s-.5-2-.5-2 9.5-3.7 10.6-13S104.7 59.1 104 53c-.7-6 3.6-11.5 1.6-12.9" style="fill:#00aa48"/><path d="m40.6 113.5 4 1.7c3.8 1.2 7.7 2 7.7 2s.8-1.7 3.5-2.9c1.5-.7 4.8-1.2 4.8-1.2s-4.9-.2-9.7-1c-2.1-.3-4.8-1.2-7.2-2.8zm11.2-47.2q4.7-2.5 8.2-4l-2.7-5.5Q54 58 48.9 60.5zM36.3 80.4q2.1-4.4 5.5-7.5L38 67.5q-5.2 4.4-7.6 9.3zm-6.5-2.1c-1.7 4-2.2 7.3-2.1 12.2l6.6-.4q-.1-4.2 1.4-8.2zm2.5 27.4q1.8 2.4 4 4.6 1.1 1.2 3 2.3l3.2-4.2q-1.3-1-2.3-2.3-1.5-1.7-2.8-3.9zm-.9-1.3c-2-3.1-3.4-6.9-3.7-12.4l6.7-.6q.6 6.2 2.3 9.5zM43 71.8q1.3-1.2 2.8-2.1 2.2-1.5 4.6-2.7l-2.9-5.8a100 100 0 0 0-8.4 5.4zm18.2-10.1 1.3-.5c3.4-1.3 4.4-3.3 3.7-4.9-.6-1.5-3.2-1.1-3.8-.9l-3.8 1z" style="fill:#7bd989"/><linearGradient id="a" x1="88.6" x2="47" y1="32.8" y2="33.9" gradientUnits="userSpaceOnUse"><stop offset="0" style="stop-color:#01ab46"/><stop offset=".4" style="stop-color:#128a3c"/><stop offset="1" style="stop-color:#2f502a"/></linearGradient><path d="M34.4 24.1s-.4-5.3 3.2-8.1c3.5-2.8 9.2-1 12.3-.4s7 .5 10-.2 4-1.2 5.8-1.3l6.6-.5c2-.1 5.8-.6 6.4 1.2.4 1.3-.9 2.6-3 3.2-2 .5-2.6.7-2.2 1.7s3.9.3 4.6 0c.8-.2 5.1-1 5.1 1.5s-3.5 3.2-5.8 3.8-3.7.2-3.6 1.4c.1 1.9 6 .1 7.8-.1s4-.6 4.2 1.1-1.5 3.5-5 4c-3.3.6-5.5 1.2-5.4 2.1s4.2 0 5.4-.2c1.5-.3 3.7-.3 4 1.2.5 3.8-6.2 3.1-6.3 4.6s5.3 0 6 2.2c.6 2.2-1.4 4-4.7 4.4-2.3.2-10.1-1.4-11.3 0s3 1.5 4.3 1.8c1.9.5 5 .7 3.6 3.6-.9 1.8-4.3 1.3-6.8 1.4l-7 .4-10 .5-8.4-1-5.3-2-4-1.6-1.4-1.4L45.2 33z" style="fill:url(#a)"/><path d="M66.9 50.8c0 3.3-2.2 6.9-6.9 6.9-4.6 0-7-2.8-7.7-3s-1 2.7-3.5 2.8c-2.6.2-6.4-3.2-6.9-3.3s-.6 2.5-3.4 2.5c-2 0-4.2-3-5.7-4.4s-4-3.3-4-3.3h7.4s2.5-.3 5.6 0 5.5 2.6 10.6 2.5l4.1-.3s1-3.7 5.7-3.9c4.3-.2 4.7 2.8 4.7 3.5" style="fill:#bece44"/><path d="M51.5 20.8s4.9-1.9 5.5-3.2 2.5-6.3 5-7.2c2.5-.8 4 1.6 2.2 3.6s-4.3 3.5-2.9 4.4 4.5-3.5 5.3-4.5 2.7-3.7 4.7-3.7 3.4 3.6-.6 6.9-6 4.1-10.8 4.5l-7 .6z" style="fill:#ffba02"/><path d="M27.5 21S25 13.2 29.3 9.8s9.5-1.3 12.8.7c3 1.9 8.9 1.6 8.6-1.8-.1-3-3.4-2.2-3.7-.8q-.4 1.8-1.1 1.7c-.5-.1-.8-1.1-.8-1.7.2-2.7 2.5-3.5 4.3-3.3 1.4.1 3.7 1.2 3.5 5s-4.1 4.7-8 4c-3-.4-5.6-2.5-8.3-3.2a7 7 0 0 0-5.4 1c-1.7 1.2-2.1 3-2.1 4.7q0 1.6.3 2.6a48 48 0 0 0 2 6.3zm27.1 5.5s2.4.5 2.5 3.3-.3 3 0 3 2-1 3.1.4c1.3 1.6-1 4.3-2.4 5.2s-2 1-2.3 1.5c-.1.4-2 5.8-4.3 6.8-2.8 1.2-10.8.7-11.8.7-1.1 0-2.2 1-3.2 1.6s-2 .8-3.2.5c-1.2-.2-3-1.6-3-1.6z" style="fill:#7cdb8b"/><path d="m38.6 38.8 2.9.1 1.4-5s-4-1.4-5.4-1.2-4.4 1.5-5.4 2-1.8 1.8-3.7 1.6c-1.9-.3-5.9-1-8.3 1.6q-2.8 3.8.1 5.2c1.8.9 4-1.8 5.5-2 1.4-.2 3.7.8 3.7.8z" style="fill:#d43330"/><path d="M28 32.9s1 4 2 4c1.1 0 1.1-1.2 1.1-1.2s4.1-1.1 5-1.6c.7-.5 1.7-2.4 1.7-2.4l-7.3-.5zM28 44s-.9-1.8-.6-2.6.6-2.3 1.6-2.2 1.2 1.7 1.2 1.7 2.7-2.5 4.8-3.3c1.1-.5 3-.6 3.2.2.1 1-.6 3.5-.6 3.5z" style="fill:#fff"/><path d="M24.9 40.6c-.4.7-.7 3-.1 4.7s2.4 4.3 5.3 4.5 8.3-6 8.6-6.2c.4-.2 9.5 1 12.1-2.6 2.6-3.7 1.2-10.1 2.5-12.1 1.5-2.2 3.5-.8 3.5-.8s-.2-1.5-1.3-2.5c-1-1-2.5-.8-2-2 .4-1.3 3.6-.2 3.8-1 .2-1-1.1-1.8-2.6-2.1-.7-.1-2.4.2-2.5-.2 0-.5 1.4-.5 1.4-1.5s-3.7-.6-5.2-.4c-1.6.2-3.6 1-3.8.7 0-.4 2.6-1.8 2.5-2.3s-2.2-.9-5.4.8a41 41 0 0 0-7.2 5.9l-3-.3s-4.4-5-7.2-4.4c-2.9.7-3.9 3.5-3.8 7.5s1.7 6.2 6 7c2.5.4 8.8-.3 10.1-.3 3.4-.2 4 1.3 4.3 2.7s-2.4 2.7-3.6 3-2.9.6-4.2 1.5-2.8 3.3-3.7 3.3-1-1.6-1.5-2.5c-.5-1-2.2-2-3-.4" style="fill:#02ab47"/><path d="M48.6 23.5c0 .3-1 3.9-3.8 5.4s-5.4 1.1-6.2-1.1c-.8-2.5.6-5.1 3.9-4.7 3 .4 6.3-1.5 6.1.3" style="fill:#79da89"/><ellipse cx="41.6" cy="26.2" rx="2.2" ry="1.9" style="fill:#2f2e2f" transform="rotate(-51.3 41.61 26.22)"/><path d="M24.7 21.7c-.6.6.5 2 .5 2.8s-.3 2.3.8 2.2c1 0 1.4-1.3 1.1-2.8-.3-1.9-1.3-3.2-2.4-2.2" style="fill:#2f2e2f"/></svg>