<svg xml:space="preserve" width="16" height="16" viewBox="0 0 128 128"><path d="M97.8 43.7C96.6 44 5.2 60.5 5 64.6a60 60 0 0 0 1.2 16C8.7 86.8 13.4 93 17.8 99s9.6 13.4 14.9 16.6c5.2 3 16.5 10.7 38.5 7.8 22-3 40.6-21.9 43.9-27.7s5-12.7 5.5-14.6l3.5-18c.5-2.9 1.1-11.7.2-15.4s-26.5-4-26.5-4" style="fill:#d69640"/><radialGradient id="a" cx="65.5" cy="60.7" r="61.6" gradientUnits="userSpaceOnUse"><stop offset="0" style="stop-color:#ffeacd"/><stop offset=".4" style="stop-color:#ffe9cb"/><stop offset=".6" style="stop-color:#ffe6c4"/><stop offset=".7" style="stop-color:#ffe1b9"/><stop offset=".8" style="stop-color:#ffdaa8"/><stop offset=".9" style="stop-color:#ffd092"/><stop offset="1" style="stop-color:#ffc577"/><stop offset="1" style="stop-color:#ffc373"/></radialGradient><path d="M31.8 12.8c-7.5 6.3-13.2 14.7-16.5 19S4 46 4.4 58.2s2.3 17.7 4.8 22.3 7.7 12.6 12 18 7.7 9 17.1 13.9A54 54 0 0 0 63 117c8.9-.2 17-1.7 22.4-4.2s16.3-8.8 21-13.8c4.1-4.6 6.5-7.2 10-13.3 1.9-3.2 3.4-14.5 4.8-18.4 4.3-12 3.7-23 .8-29-1.5-3.2-7.2-11.6-10.3-13.9s-6.8-6.2-10.5-8.9-9.6-10.1-19-11.9-16.5.5-18.4.9-16.3 1-20.9 2.5-8.8 3.7-11 5.7" style="fill:url(#a)"/><radialGradient id="b" cx="26.6" cy="16.5" r="30.8" gradientTransform="matrix(.958 0 0 .932 1.08 3.74)" gradientUnits="userSpaceOnUse"><stop offset="0" style="stop-color:#82614e"/><stop offset=".2" style="stop-color:#93725c"/><stop offset=".7" style="stop-color:#bc987b"/><stop offset="1" style="stop-color:#cba787"/></radialGradient><path d="M25.8 54.7c-.3-.2 4.7-7 8.1-11S50 27.3 54 24s8.2-6 8.6-5.5-3.9 6-10.3 12.4-11 11.4-17.4 17a34 34 0 0 1-9 6.7" style="fill:url(#b)"/><radialGradient id="c" cx="63.4" cy="54.2" r="24.6" gradientUnits="userSpaceOnUse"><stop offset="0" style="stop-color:#82614e"/><stop offset=".4" style="stop-color:#9c7a63"/><stop offset=".9" style="stop-color:#cba787"/></radialGradient><path d="M52.3 46.1A191 191 0 0 0 31 71.3c1.2 1 12.1-7.6 26.2-22.3s21-23.3 19.7-24-16.2 12.5-24.6 21" style="fill:url(#c)"/><radialGradient id="d" cx="66.2" cy="59" r="39.6" gradientUnits="userSpaceOnUse"><stop offset="0" style="stop-color:#82614e"/><stop offset=".2" style="stop-color:#876652"/><stop offset=".5" style="stop-color:#96755e"/><stop offset=".8" style="stop-color:#af8d71"/><stop offset="1" style="stop-color:#cba787"/></radialGradient><path d="M63.2 57.2C57 63.7 52.7 67.7 48.4 72.4c-7.1 8-11.1 13-10.4 14.3.2.6 5.3-2.9 14.4-11.3 4.2-3.8 9.6-9.4 15.4-15q8.5-8.4 13.2-14c6.6-7.7 8.8-11.8 8.2-12a47 47 0 0 0-11.6 9c-4.7 4.5-10.8 10.1-14.4 13.8" style="fill:url(#d)"/><radialGradient id="e" cx="82.5" cy="77.5" r="33.5" gradientUnits="userSpaceOnUse"><stop offset="0" style="stop-color:#82614e"/><stop offset=".1" style="stop-color:#906f59"/><stop offset=".5" style="stop-color:#b08d72"/><stop offset=".8" style="stop-color:#c4a081"/><stop offset="1" style="stop-color:#cba787"/></radialGradient><path d="M72.6 68.5C65.9 76 50.9 92.7 52.6 94s20.8-18.6 26.1-24.4 19.7-22.2 18.9-23-16 11.7-25 21.9" style="fill:url(#e)"/><radialGradient id="f" cx="100.6" cy="93.3" r="24.4" gradientUnits="userSpaceOnUse"><stop offset="0" style="stop-color:#82614e"/><stop offset=".2" style="stop-color:#93725c"/><stop offset=".7" style="stop-color:#bc987b"/><stop offset="1" style="stop-color:#cba787"/></radialGradient><path d="M84.3 78.4c7.3-8 18.3-17.5 19.3-16.5S94.8 74.5 89 81c-6.4 7-18 17.5-18.6 16.7-1-1.2 7.8-12.4 14-19.3" style="fill:url(#f)"/></svg>