<svg xml:space="preserve" width="16" height="16" viewBox="0 0 128 128"><path d="M52.7 103.8C50 99.1 46.3 91 44.3 88.2a10 10 0 0 0-13.6-2.9 43 43 0 0 1-20.6 7.5c-2 .2-4.1.3-5.2 1.9-1 1.4-.6 3.4.4 4.7 3 3.7 9.6 4.4 13.2 4.8-1 .6-3 1.8-2.4 3.3 1.2 3.3 10.3 4.2 14.5 4.4-.6.3-2.7 2.1-2 3.3 1.5 2.6 9.9 3.5 14 2.8 0 0-2.5 2.4-.9 3.8 2.9 2.6 10.8 2.9 14.9 1.6s5.2-3.2 5.6-5.3c.6-3-5.4-7.6-9.5-14.3" style="fill:#f5f5f5"/><path d="M32.5 101.4a29 29 0 0 1-16.3 4.8c.5-1 1.6-1.6 2.3-2 6.1-.4 13-2.6 14-2.8m8.9 7.1c-1.1.8-4.2 3-6.1 3.7q-4.4 1.5-6.5 1.5a5 5 0 0 1 1.8-1.8q2.6-.3 5.1-1.2zm8.1 7.5c-1 .8-3 2.2-4.5 2.7l-3.6 1c.5-1 1.3-1.7 1.3-1.7 2.6-.5 4.5-1.2 6.8-2" style="fill:#bdbdbd"/><linearGradient id="a" x1="30.8" x2="52.8" y1="18" y2="42" gradientTransform="matrix(1 0 0 -1 0 128)" gradientUnits="userSpaceOnUse"><stop offset="0" style="stop-color:#e0e0e0"/><stop offset=".4" style="stop-color:#f5f5f5;stop-opacity:0"/></linearGradient><path d="M52.7 103.8C50 99.1 46.3 91 44.3 88.2a10 10 0 0 0-13.6-2.9 43 43 0 0 1-20.6 7.5c-2 .2-4.1.3-5.2 1.9-1 1.4-.6 3.4.4 4.7 3 3.7 9.6 4.4 13.2 4.8-1 .6-3 1.8-2.4 3.3 1.2 3.3 10.3 4.2 14.5 4.4-.6.3-2.7 2.1-2 3.3 1.5 2.6 9.9 3.5 14 2.8 0 0-2.5 2.4-.9 3.8 2.9 2.6 10.8 2.9 14.9 1.6s5.2-3.2 5.6-5.3c.6-3-5.4-7.6-9.5-14.3" style="fill:url(#a)"/><path d="M75 103.8c2.9-4.7 6.5-12.8 8.5-15.6 3.2-4.5 8.8-5.9 13.5-2.9 8.7 5.4 14.7 7 20.7 7.5 1.9.2 4.1.3 5.2 1.9 1 1.4.6 3.4-.5 4.7-3 3.7-9.5 4.4-13.2 4.8 1.2.6 3 1.8 2.4 3.3-1.2 3.3-10.2 4.2-14.4 4.4.6.3 2.7 2.1 2 3.3-1.5 2.6-10 3.5-14 2.8 0 0 2.4 2.4.9 3.8-2.9 2.6-10.8 2.9-14.9 1.6s-5.2-3.2-5.6-5.3c-.6-3 5.4-7.6 9.5-14.3" style="fill:#f5f5f5"/><path d="M95.3 101.4a29 29 0 0 0 16.3 4.8 6 6 0 0 0-2.4-2c-6-.4-13-2.6-14-2.8m-8.8 7.1c1 .8 4.1 3 6 3.7q4.5 1.5 6.6 1.5a6 6 0 0 0-1.8-1.8q-2.6-.3-5.2-1.2zm-8.1 7.5c1 .8 3 2.2 4.5 2.7l3.5 1c-.4-1-1.2-1.7-1.2-1.7-2.6-.5-4.5-1.2-6.8-2" style="fill:#bdbdbd"/><linearGradient id="b" x1="30.8" x2="52.8" y1="18" y2="42" gradientTransform="matrix(-1 0 0 -1 127.78 128)" gradientUnits="userSpaceOnUse"><stop offset="0" style="stop-color:#e0e0e0"/><stop offset=".4" style="stop-color:#f5f5f5;stop-opacity:0"/></linearGradient><path d="M75 103.8c2.9-4.7 6.5-12.8 8.5-15.6 3.2-4.5 8.8-5.9 13.5-2.9 8.7 5.4 14.7 7 20.7 7.5 1.9.2 4.1.3 5.2 1.9 1 1.4.6 3.4-.5 4.7-3 3.7-9.5 4.4-13.2 4.8 1.2.6 3 1.8 2.4 3.3-1.2 3.3-10.2 4.2-14.4 4.4.6.3 2.7 2.1 2 3.3-1.5 2.6-10 3.5-14 2.8 0 0 2.4 2.4.9 3.8-2.9 2.6-10.8 2.9-14.9 1.6s-5.2-3.2-5.6-5.3c-.6-3 5.4-7.6 9.5-14.3" style="fill:url(#b)"/><path d="M98.2 72H30c-7.4 0-13.4 5.3-13.4 11.8s6 11.9 13.4 11.9h68.2c7.4 0 13.4-5.4 13.4-11.9S105.6 72 98.2 72" style="fill:#7a4c32"/><path d="M63.9 20c-21.7 0-41.7 21.9-41.7 53.5 0 31.4 20.6 47 41.7 47s41.6-15.6 41.6-47c0-31.6-20-53.6-41.6-53.6" style="fill:#a56c43"/><path d="m68.5 88.2-.3-.1h-8.9q-1.3.6-.9 2a6 6 0 0 0 5.5 3 6 6 0 0 0 5.5-3q.4-1.4-.9-2" style="fill:#875334"/><circle cx="43.9" cy="82.2" r="5.9" style="fill:#42312c"/><circle cx="83.9" cy="82.2" r="5.9" style="fill:#42312c"/><path d="M92.5 71.8s-2.7-4.1-9-4.1-9.1 4.1-9.1 4.1q-.4.5-.4 1 .1 1.7 1.9 1.9l.8-.2c3.8-1.5 6.7-1.5 6.7-1.5s3 0 6.8 1.5l.8.2c1 0 1.9-.8 1.9-1.8q0-.7-.4-1m-39.1-.1s-2.7-4.1-9-4.1-9.1 4.1-9.1 4.1q-.4.5-.4 1 .1 1.7 1.9 1.9l.8-.2c3.8-1.5 6.7-1.5 6.7-1.5s3 0 6.8 1.5l.8.2q1.7-.2 1.9-1.8 0-.7-.4-1" style="fill:#42312c"/><path d="M64.2 15.4c-46 0-49.2 36.5-47.4 52.4C18.4 82 26 85.4 26 85.4s-1.4-12.3 1-21.2c1.9-7 6.4-12.3 6.4-12.3s8.4 7 23.9 11.5c7.4 2.2 17 1.1 17 1.1l-5.4-9.2s8.8 6.3 14.3 7.5c7 1.5 12.1.8 12.1.8L92.7 54s4.5 2.9 7.8 10.6 1.3 21 1.3 21 8-3.5 9.3-17.7c1.6-17.6-1-52.4-46.9-52.4" style="fill:#3c2c23"/><radialGradient id="c" cx="16.4" cy="17.2" r="49.1" gradientTransform="matrix(0 1.08 -.972 0 80.58 51.26)" gradientUnits="userSpaceOnUse"><stop offset=".8" style="stop-color:#554138;stop-opacity:0"/><stop offset="1" style="stop-color:#554138"/></radialGradient><path d="M64.2 15.4c-46 0-49.2 36.5-47.4 52.4C18.4 82 26 85.4 26 85.4s-1.4-12.3 1-21.2c1.9-7 6.4-12.3 6.4-12.3s8.4 7 23.9 11.5c7.4 2.2 17 1.1 17 1.1l-5.4-9.2s8.8 6.3 14.3 7.5c7 1.5 12.1.8 12.1.8L92.7 54s4.5 2.9 7.8 10.6 1.3 21 1.3 21 8-3.5 9.3-17.7c1.6-17.6-1-52.4-46.9-52.4" style="fill:url(#c)"/><path d="M63.8 4c-24 0-43.5 7.2-43.5 16.2s19.5 16.1 43.5 16.1 43.5-7.2 43.5-16.1S87.8 4 63.8 4m0 6.8c13.6 0 24.6 3 24.6 6.5 0 3.7-11 6.6-24.6 6.6s-24.6-3-24.6-6.6 11-6.5 24.6-6.5" style="fill:#40bfe6"/><path d="M75 98a33 33 0 0 1-22 0c-2.5-1.5-5 .7-4 3 1 2 8.5 7 15 7s13.9-5 14.9-7c1-2.3-1.5-4.5-3.9-3" style="fill:#473530"/></svg>