<svg xml:space="preserve" width="16" height="16" viewBox="0 0 128 128"><path d="M98.9 79.9c-1.2-2.3.3-4.6 3-7.5 4.4-4.5 9-15 4.7-25.8 0 0-.9-1.8-.8-1.9H104a3374 3374 0 0 0-80 0l-2.6 2a25 25 0 0 0 4.7 25.7c2.7 2.9 4.3 5.2 3 7.4s-2.8 2.6-2.8 2.6-1.2 2.2.8 3.5c1.9 1 4.2 1.3 5.7 1.4 0 0 6.2 8.5 22.3 8.5H73c16 0 22.2-8.5 22.2-8.5 1.6 0 3.8-.3 5.7-1.4 2-1.3 2.8-3.5 2.8-3.5s-3.6-.3-4.8-2.6" style="fill:#ab872f"/><radialGradient id="a" cx="99.6" cy="45.8" r="23.4" gradientTransform="matrix(1 0 0 .491 -21.06 59.63)" gradientUnits="userSpaceOnUse"><stop offset=".7" style="stop-color:#bfa055;stop-opacity:0"/><stop offset="1" style="stop-color:#bfa055"/></radialGradient><path d="M64 95.8v-9.4L92.6 84l2.6 3.2s-6.2 8.5-22.3 8.5z" style="fill:url(#a)"/><radialGradient id="b" cx="76.6" cy="49.3" r="6.9" gradientTransform="rotate(155 84.43 60.42)scale(1 .742)" gradientUnits="userSpaceOnUse"><stop offset=".7" style="stop-color:#bfa055"/><stop offset="1" style="stop-color:#bfa055;stop-opacity:0"/></radialGradient><path d="M95.1 83.2c-4.3-6.5 5.2-9 5.2-9-1.6 2-2.4 3.9-1.4 5.6 1.2 2.3 4.8 2.6 4.8 2.6s-5 4.3-8.6.8" style="fill:url(#b)"/><radialGradient id="c" cx="94.5" cy="68.9" r="30.4" gradientTransform="rotate(-94.3 89.88 63.27)scale(1 .833)" gradientUnits="userSpaceOnUse"><stop offset=".7" style="stop-color:#bfa055;stop-opacity:0"/><stop offset="1" style="stop-color:#bfa055"/></radialGradient><path d="M106.6 46.7c4.3 10.3-.2 21-4.4 25.5-.6.6-3 3-3.6 4.9 0 0-9.5-13.3-12.3-21.1q-1-2.4-1.2-5-.2-2 .9-3.8a111 111 0 0 1 20.1-1.7z" style="fill:url(#c)"/><radialGradient id="d" cx="44.3" cy="68.9" r="30.4" gradientTransform="rotate(-85.7 107.1 .83)scale(1 -.833)" gradientUnits="userSpaceOnUse"><stop offset=".7" style="stop-color:#bfa055;stop-opacity:0"/><stop offset="1" style="stop-color:#bfa055"/></radialGradient><path d="M21.4 46.7c-4.2 10.3.2 21 4.4 25.5.6.6 3 3 3.6 4.9 0 0 9.5-13.3 12.4-21.2q.9-2.3 1.1-4.8.1-2.1-.8-3.9c-1-1.3-2-1-3.5-1-2.8 0-15.5-.7-16.4-.7z" style="fill:url(#d)"/><radialGradient id="e" cx="49.4" cy="45.8" r="23.4" gradientTransform="matrix(-1 0 0 .491 98.88 59.63)" gradientUnits="userSpaceOnUse"><stop offset=".7" style="stop-color:#bfa055;stop-opacity:0"/><stop offset="1" style="stop-color:#bfa055"/></radialGradient><path d="M64 95.8v-9.4L35.5 84l-2.6 3.2S39 95.8 55 95.8z" style="fill:url(#e)"/><radialGradient id="f" cx="28" cy="49.3" r="6.1" gradientTransform="rotate(205 4.68 51.41)scale(-1 .742)" gradientUnits="userSpaceOnUse"><stop offset=".7" style="stop-color:#bfa055"/><stop offset="1" style="stop-color:#bfa055;stop-opacity:0"/></radialGradient><path d="M33 83.2c4.2-6.5-5.3-9-5.3-9q2.7 3 1.4 5.6c-1.2 2.3-2.8 2.6-2.8 2.6s3 4.3 6.6.8" style="fill:url(#f)"/><path d="M112.2 124v-4.4c0-13.4-23.8-19.9-47.2-19.8-23.3 0-47.2 5.6-47.2 19.8v4.3z"/><path d="M64 90h-9v10c0 4.6 3.6 8.2 8.2 8.2h1.6c4.6 0 8.3-3.6 8.3-8.1V90zm27.3-39.6H36.7c-6 0-10.7 5.2-10.7 11.4s4.8 11.5 10.7 11.5h54.6c6 0 10.7-5.2 10.7-11.5s-4.8-11.4-10.7-11.4" style="fill:#c48e6a"/><path d="M64 11c-17.4 0-33.5 18.7-33.5 45.5C30.5 83 47 96.3 64 96.3S97.5 83 97.5 56.5C97.5 29.7 81.4 11 64 11" style="fill:#e0bb95"/><linearGradient id="g" x1="53" x2="53" y1="91.1" y2="55" gradientTransform="matrix(1 0 0 -1 0 128)" gradientUnits="userSpaceOnUse"><stop offset="0" style="stop-color:#ff6d00"/><stop offset=".3" style="stop-color:#fd6900"/><stop offset=".5" style="stop-color:#f75e00"/><stop offset=".7" style="stop-color:#ee4c00"/><stop offset="1" style="stop-color:#e03200"/><stop offset="1" style="stop-color:#dd2c00"/></linearGradient><path d="m42.8 41.6 30.8-13.7-15.3 20 10-2-30.2 36.4 2-15.3-7.7 3.2z" style="fill:url(#g)"/><ellipse cx="47.6" cy="58.8" rx="4.9" ry="5.1" style="fill:#5d4037"/><ellipse cx="80.4" cy="58.8" rx="4.9" ry="5.1" style="fill:#5d4037"/><path d="M55 50.3c-1-1.2-3-3-7.2-3s-6.3 1.8-7.3 3q-.5 1 0 1.6t2 .4c1.4-.2 2.4-1.2 5.3-1.2 2.8 0 4.5.9 5.3 1.2q1.4.3 2-.4.4-.6-.1-1.6m32.5 0c-1-1.2-3-3-7.2-3s-6.4 1.8-7.3 3q-.5 1 0 1.6t1.9.4c1.4-.2 2.5-1.2 5.4-1.2 2.8 0 4.4.9 5.3 1.2q1.4.3 1.9-.4t0-1.6" style="fill:#ab872f"/><path d="M67.9 68H60q-1 .5-.6 1.7c.3.7 1.7 2.7 4.5 2.7s4.3-2 4.6-2.7q.3-1.2-.7-1.6" style="fill:#c48e6a"/><path d="M72.4 76.1a26 26 0 0 1-16.8 0c-1.8-1-3.7.6-3 2.3s6.5 5.4 11.4 5.4 10.6-3.8 11.3-5.4-1-3.4-2.9-2.3" style="fill:#6d4c41"/><linearGradient id="h" x1="111.2" x2="118.3" y1="46.9" y2="46.9" gradientTransform="matrix(1 0 0 -1 0 128)" gradientUnits="userSpaceOnUse"><stop offset=".5" style="stop-color:#e0bb95"/><stop offset="1" style="stop-color:#cca47a"/></linearGradient><path d="M113.8 86.8c1.8.2 3.3-.9 3.5-2.4l.8-6c.2-1.5-1-2.8-2.7-3s-3.3.8-3.5 2.3l-.8 6c-.2 1.5 1 3 2.6 3.1" style="fill:url(#h)"/><linearGradient id="i" x1="99.2" x2="123.8" y1="47.1" y2="47.1" gradientTransform="matrix(1 0 0 -1 0 128)" gradientUnits="userSpaceOnUse"><stop offset=".5" style="stop-color:#e0bb95"/><stop offset="1" style="stop-color:#cca47a"/></linearGradient><path d="M112.2 100c-5 .2-10.4-.8-12.1-5.9q-1.2-4-.1-8c.6-2.9.7-4.3.5-6.6L99.3 65s-.7-2.4 1.5-3c2.3-1 3.2 1.6 3.2 1.6l2.5 17.9 11 1.2q.2.1.6-2.5l.1-3 1.4-9.6a2 2 0 0 1 2.3-1.6c1.5.2 2 1.3 1.9 2l-.6 6.6q-.4 4.4-.1 8.7l.2 2.2c.3 3.6-.2 7.4-1.8 10.2-1.6 3-4.3 4.3-9.3 4.5" style="fill:url(#i)"/><linearGradient id="j" x1="105.7" x2="112.5" y1="47.1" y2="47.1" gradientTransform="rotate(178.7 -.26 65.22)scale(-1 1)" gradientUnits="userSpaceOnUse"><stop offset=".5" style="stop-color:#e0bb95"/><stop offset="1" style="stop-color:#cca47a"/></linearGradient><path d="M108.6 87c1.7 0 3.2-1.1 3.3-2.6l.3-7c0-1.4-1.3-2.7-3-2.7s-3.2 1.1-3.3 2.6l-.3 7c0 1.4 1.3 2.7 3 2.7" style="fill:url(#j)"/><linearGradient id="k" x1="108.6" x2="106.6" y1="44.1" y2="28.7" gradientTransform="matrix(1 0 0 -1 0 128)" gradientUnits="userSpaceOnUse"><stop offset=".5" style="stop-color:#e0bb95"/><stop offset="1" style="stop-color:#cca47a"/></linearGradient><path d="M113.8 82.8q-3-.6-6.6-.9h-1q-4.5-.2-6.2 5.4l-.1.3-.2.8-.2 1a8 8 0 0 0 .2 3.5c.8 3.4 3.3 5 3.3 5s6.2 3.2 7.7 0-.7-7.5-.7-7.5l-2.9-1.7q.7-1.1 3.3-1l2 .2 1.2.1q1.6 0 2.6-1c.9-1 .8-2.7.9-3.5-.8 0-2.2-.5-3.3-.7" style="fill:url(#k)"/><linearGradient id="l" x1="35.9" x2="35.9" y1="25.4" y2="-.3" gradientTransform="matrix(1 0 0 -1 0 128)" gradientUnits="userSpaceOnUse"><stop offset="0" style="stop-color:#666"/><stop offset="0" style="stop-color:#656565"/><stop offset=".3" style="stop-color:#484747"/><stop offset=".5" style="stop-color:#343131"/><stop offset=".8" style="stop-color:#272324"/><stop offset="1" style="stop-color:#231f20"/></linearGradient><path d="m54.4 124-.9-21.7a27 27 0 0 1-10.4 2.1c-6 0-11.1-1.9-15.3-3.4-2.8-1-5.3-2-7.1-2-2.3 0-3.2 2-3.2 6.9v18z" style="fill:url(#l)"/><linearGradient id="m" x1="3073" x2="3073" y1="25.4" y2="-.3" gradientTransform="matrix(-1 0 0 -1 3166.25 128)" gradientUnits="userSpaceOnUse"><stop offset="0" style="stop-color:#666"/><stop offset="0" style="stop-color:#656565"/><stop offset=".3" style="stop-color:#484747"/><stop offset=".5" style="stop-color:#343131"/><stop offset=".8" style="stop-color:#272324"/><stop offset="1" style="stop-color:#231f20"/></linearGradient><path d="M111.8 124v-18.1c0-4.9-1-6.8-3.2-6.8q-2.8.1-7.3 1.9a48 48 0 0 1-16 3.4q-5.7 0-10.7-2l.1 21.5z" style="fill:url(#m)"/><linearGradient id="n" x1="40.5" x2="40.5" y1="13.7" y2="0" gradientTransform="matrix(1 0 0 -1 0 128)" gradientUnits="userSpaceOnUse"><stop offset="0" style="stop-color:#666"/><stop offset=".3" style="stop-color:#717273"/><stop offset=".6" style="stop-color:#7c7e81"/><stop offset="1" style="stop-color:#808285"/></linearGradient><path d="m58 124-1.8-12-33 6.2 4 5.7z" style="fill:url(#n)"/><linearGradient id="o" x1="41.6" x2="41.6" y1="28.8" y2="1.3" gradientTransform="matrix(1 0 0 -1 0 128)" gradientUnits="userSpaceOnUse"><stop offset="0" style="stop-color:#ff6d00"/><stop offset=".3" style="stop-color:#fd6900"/><stop offset=".5" style="stop-color:#f75e00"/><stop offset=".7" style="stop-color:#ee4c00"/><stop offset="1" style="stop-color:#e03200"/><stop offset="1" style="stop-color:#dd2c00"/></linearGradient><path d="M39.6 124H58l-3-27-29.6 7.1 12.8 17.7z" style="fill:url(#o)"/><linearGradient id="p" x1="87.3" x2="87.3" y1="13.7" y2="0" gradientTransform="matrix(1 0 0 -1 0 128)" gradientUnits="userSpaceOnUse"><stop offset="0" style="stop-color:#666"/><stop offset=".3" style="stop-color:#717273"/><stop offset=".6" style="stop-color:#7c7e81"/><stop offset="1" style="stop-color:#808285"/></linearGradient><path d="m100.9 124 4-5.7-33.6-6.3-1.6 12z" style="fill:url(#p)"/><linearGradient id="q" x1="86.1" x2="86.1" y1="28.8" y2="1.3" gradientTransform="matrix(1 0 0 -1 0 128)" gradientUnits="userSpaceOnUse"><stop offset="0" style="stop-color:#ff6d00"/><stop offset=".3" style="stop-color:#fd6900"/><stop offset=".5" style="stop-color:#f75e00"/><stop offset=".7" style="stop-color:#ee4c00"/><stop offset="1" style="stop-color:#e03200"/><stop offset="1" style="stop-color:#dd2c00"/></linearGradient><path d="m87 124 2.6-3.7 12.8-17.7-29.3-5.7-3.3 27z" style="fill:url(#q)"/><linearGradient id="r" x1="110.3" x2="110.3" y1="30" y2="-8.4" gradientTransform="matrix(1 0 0 -1 0 128)" gradientUnits="userSpaceOnUse"><stop offset="0" style="stop-color:#666"/><stop offset=".6" style="stop-color:#393637"/><stop offset="1" style="stop-color:#231f20"/></linearGradient><path d="m121.7 124-.1-26H98.9v26z" style="fill:url(#r)"/><circle cx="99.7" cy="108" r="4.1" style="fill:#e6e7e8"/><circle cx="110.3" cy="107.9" r="4.1" style="fill:#ff3d00"/><circle cx="120.9" cy="107.9" r="4.1" style="fill:#808285"/><path d="m34.2 87.9-22.7 9.4-.3-.7-.3.2-1.2.7V124H6.5V99.3A1.8 1.8 0 0 1 5 96.2l4-2.5.5-.2-.6-1.2L30 79.5v1.1a9 9 0 0 0 4.1 7.3m8.6-1-.7.2-1.3.4q-2.3.4-4.4-.5l-1 .4a8 8 0 0 1-4-8.5l.7-.5a7 7 0 0 1 4-5 7.5 7.5 0 1 1 6.7 13.4" style="fill:#5d5f61"/><linearGradient id="s" x1="69.6" x2="69.6" y1="20.2" y2="3.8" gradientTransform="matrix(1 0 0 -1 0 128)" gradientUnits="userSpaceOnUse"><stop offset=".2" style="stop-color:#212121;stop-opacity:0"/><stop offset="1" style="stop-color:#bfbebe"/></linearGradient><path d="M17.5 112.5h104.2v11.4H17.5z" style="opacity:.3;fill:url(#s)"/><path d="M104 25.1c-2.4-3.7-7.8-8.6-12.8-9-.7-4.7-5.8-8.7-10.7-10.2-13.2-4.2-21.8.5-26.4 3-1 .5-7.2 4-11.5 1.5-2.8-1.5-2.7-5.7-2.7-5.7S31.4 7.9 34.3 17a10 10 0 0 0-8.8 5.4c-2.4 5-1.6 9-.9 11A11 11 0 0 0 21.1 46c1.6 4.4 8.2 6.5 8.2 6.5-.5 8 1 13 1.8 15 .1.3.6.2.7-.1 1-4 4.4-17.8 4-20.2 0 0 11.4-2.3 22.2-10.3a32 32 0 0 1 7.1-4c13.6-5.4 16.5 3.8 16.5 3.8S91 35 93.8 48c1 5 1.8 12.8 2.4 18.3 0 .3.6.4.7 0 1-2.1 2.9-6.4 3.3-10.8.2-1.6 4.4-3.6 6.2-10.3 2.4-8.9-.6-17.4-2.3-20" style="fill:#ab872f"/><radialGradient id="t" cx="82" cy="84.9" r="35.6" gradientTransform="rotate(72 9.13 -9.99)scale(1 -.742)" gradientUnits="userSpaceOnUse"><stop offset=".7" style="stop-color:#bfa055;stop-opacity:0"/><stop offset="1" style="stop-color:#bfa055"/></radialGradient><path d="M100.2 55.5c.2-1.5 4.4-3.6 6.2-10.3l.5-2.1a28 28 0 0 0-2.8-18 22 22 0 0 0-11.7-8.8l-1.2-.1s.3 2.1-.5 3.8a5 5 0 0 1-3.4 2.8c12 12 11 22 13 32.7" style="fill:url(#t)"/><radialGradient id="u" cx="47.3" cy="123.8" r="9.3" gradientTransform="rotate(208.2 -17.9 63.62)scale(-1 1.186)" gradientUnits="userSpaceOnUse"><stop offset=".6" style="stop-color:#bfa055"/><stop offset="1" style="stop-color:#bfa055;stop-opacity:0"/></radialGradient><path d="m57 7.4-3 1.5c-1 .5-7.1 4-11.5 1.5C40 8.9 40 4.8 40 4.7c-1.3 1.6-5 12.8 5.9 13.5 4.7.3 7.6-3.8 9.3-7.2z" style="fill:url(#u)"/><radialGradient id="v" cx="159.1" cy="62.9" r="28.7" gradientTransform="matrix(-.938 -.394 -.218 .528 231.04 50.68)" gradientUnits="userSpaceOnUse"><stop offset=".7" style="stop-color:#bfa055;stop-opacity:0"/><stop offset="1" style="stop-color:#bfa055"/></radialGradient><path d="M79.2 5.5c7.3 2 10.8 5.7 12 10.6.4 1.5.8 15.1-25.2-.4-9.7-5.7-7-9.3-5.9-9.7a31 31 0 0 1 19-.5" style="fill:url(#v)"/><radialGradient id="w" cx="43.5" cy="115.3" r="8.6" gradientTransform="matrix(1 0 0 -1.223 0 153.74)" gradientUnits="userSpaceOnUse"><stop offset=".7" style="stop-color:#bfa055;stop-opacity:0"/><stop offset="1" style="stop-color:#bfa055"/></radialGradient><path d="M39.8 4.7c-1 .4-8.3 3.8-5.5 12.3l7.7 1.2c-6.8-7-2-13.5-2-13.5" style="fill:url(#w)"/><radialGradient id="x" cx="42.3" cy="100.1" r="16.1" gradientTransform="rotate(-165 50.18 -32.8)scale(1 -.936)" gradientUnits="userSpaceOnUse"><stop offset=".7" style="stop-color:#bfa055;stop-opacity:0"/><stop offset="1" style="stop-color:#bfa055"/></radialGradient><path d="m39 17.7-4.7-.7H33a10 10 0 0 0-7.7 5.4 14 14 0 0 0-1.2 9.4l.4 1.6s2.4-2.3 8-2.4z" style="fill:url(#x)"/><radialGradient id="y" cx="38.5" cy="84.6" r="16.9" gradientTransform="rotate(187.8 -2.58 78.5)scale(-1 1.405)" gradientUnits="userSpaceOnUse"><stop offset=".6" style="stop-color:#bfa055;stop-opacity:0"/><stop offset="1" style="stop-color:#bfa055"/></radialGradient><path d="M24.4 33.6a11 11 0 0 0-3.2 12.6c1.7 4.4 8 6.3 8 6.3s1.3.4 2 .4l1.4-22c-3 0-5.9 1-7.8 2.3z" style="fill:url(#y)"/><circle cx="39.1" cy="80.3" r="8" style="fill:#434444"/><path d="m35.4 87.4-1.2.5a9 9 0 0 1-4-8.4l1-.6-.1 1.7a8 8 0 0 0 4.3 6.8" style="fill:#727475"/><path d="M42.7 87.4q-.6.4-1.3.6l-1.2-.9a16 16 0 0 1-3.8-4.8l-.3-.5a15 15 0 0 1-1.9-7.8 8 8 0 0 1 4.6-1.6h1.4a8 8 0 0 1 2.5 15" style="fill:#434444"/><path d="M40.9 86.4q-2.2-1.8-3.9-5c-1.7-3.4-2.1-6.5-1.6-8.1l-1.2.7a15 15 0 0 0 2.2 8.4q1.6 3 3.8 4.8l1.2.8 1.3-.5a6 6 0 0 1-1.9-1.1" style="fill:#5d5f61"/><path d="M118.2 77.6c-.2 1.3-1.4 5.2-1.4 5.2l-4-1.4-.6-4.3-1.2 4q-2.6-.4-4.5 0l-.5-3.8c-.2.6-.3 2-.4 2.5q0 1-.3 1.5-2 .7-3 1.4-.8.5-1.3 1.4v.1a8 8 0 0 1 3.5-1.6c3.4-.8 7.8-.5 11 .9q2 1 .7 2.7c-1.2 1.7-3.4 1-5.2.8-1.5-.1-4 0-4.5 2 3.4.4 4.7 4.2 4.6 7.2 1.2-2.8.4-5.8-2.6-7.8 2-1 8.3 2 9.3-2.9.4-2.2.4-6.9.4-8" style="fill:#ba8f63"/></svg>