<svg xml:space="preserve" width="16" height="16" viewBox="0 0 128 128"><path d="M64.5 51c-.2-9.5-.4-18-6.3-27C48.8 9.3 23-2.3 13 5.2c-11 8.3-4.2 34 6.6 45.4C34.3 66.2 46.7 60.2 53.5 64c5.8 3.3 18.2 20.4 26.3 29.8s22.1 25 25 28 6.9 2.7 8 2c1.6-.8 4.8-3.4 4.4-4.4S71.8 66.6 71.8 66.6L65 57.4z" style="fill:#9d9d9d"/><path d="M14.5 7.6c-9 7.3-3 28 3.8 36.5 13.5 16.7 26 11.2 33.5 14.3 7.6 3 9 6.5 18.4 16.9s36.2 46.4 43.3 48c1 .2 4-3 5.5-4.9s3-4.5 1.8-6.3-53-54.7-55.6-57.4-3-8-3.2-10.5c-.3-2.6-1.2-17-12.2-25.8S22.5 1 14.5 7.6" style="fill:#c8c8c8"/><path d="M53.7 29.4S55 43.6 42.3 41.8C29 40 23 22.1 20.3 16.1c-2.6-5.6-7.9-4.8-8 2.3-.3 8.3 5.7 26.8 21.9 33.2 15.2 6 25 .7 24.6-8.3s-5-14-5-14" style="fill:#e0e0e0"/><path d="M37.8 44.6c8.7 3 14.5-.5 15 5 .5 3.9-6.5 6.8-19 2S15 32.5 14 29.5s-1.7-7.5.1-8.2 3.7 2.5 6 6.8 6.6 12.6 17.6 16.4m67.9 67.3c-1.5 1.1 4.6 8.5 7.5 9s7.2-5.3 5.4-6.1c-1.2-.6-2 1-5.4.3s-5.7-4.6-7.5-3.2" style="fill:#fff"/></svg>