<svg xml:space="preserve" width="16" height="16" viewBox="0 0 128 128"><path d="M103.2 43.3c.1-1.8-1.6-10.2-8.6-13.6-1.8-.9-6.7-1.3-5.6 3.7 1 4.7 1.6 11.9 1 16.5-.5 4.6-2.6 10-8 12.2-4.6 2-10 1.2-13.9-2.1-5.2-4.5-6.8-11.5-6.8-18-.2-17.8-3.8-27-18-30.2-4.2-1-9.4-.8-13.7.5a31 31 0 0 0-19.1 16 63 63 0 0 0-5.8 40c7.2 43.6 42 54.4 67.4 46.7 28-8.5 36-32.3 38.4-46.5 1.3-7.8 2.4-15.1 7.1-21.7 3-4 9-9 5-11.6-7.8-5-17.4 3.6-19.4 8" style="fill:#cad8dd"/><circle cx="28.8" cy="22.7" r="3.3" style="fill:#212121"/><circle cx="50.1" cy="27.5" r="3.3" style="fill:#212121"/><path d="M42 31.7c-.3 1.1-3 2.1-4.4 1.8S34 31 34.3 29.9s2.1-1.4 4.3-1c2 .5 3.7 1.6 3.4 2.8m3.3 7.3c-.3.1-2 1-4 .3-2.2-.8-2.6-2-2.9-3-.5-1.1.4-4.3.4-4.3l-.9-.2-.8-.2s-.7 3.2-1.6 4.1c-.6.7-1.4 1.6-3.8 1.4a5 5 0 0 1-3.5-2c-.2-.2-1-.3-.7.6.3 1 1.2 2.5 4 3.2 2.5.6 4.6-.7 5-1 .4.5 1.7 2.5 4.2 3 2.8.7 4.4-.4 5-1.1s-.1-1-.4-.8m-30.1-9.3q1-1.5 2.8-2 1.6-.5 3.4-.4t3.5.5a8 8 0 0 1 3 1.7l-3.2-.9-3.3-.3q-3.3-.3-6.2 1.4M13.4 36q2-3.5 6-5a10 10 0 0 1 7.7.8q-3.8-1-7.4.1-3.6 1.3-6.3 4.2m3.5 3q.4-1.5 1.2-2.7a8 8 0 0 1 2.3-2l1.3-.7 1.5-.3q1.5-.1 3 .3-1.6.1-2.8.5-1.4.4-2.5 1-2.4 1.5-4 3.9m42.5.6q-1.9-2.9-5-4A22 22 0 0 0 48 34a8 8 0 0 1 3.4-.2q1.8.3 3.4 1t2.9 1.9a6 6 0 0 1 1.7 3M58 46.4a16 16 0 0 0-3.5-6.6Q52 37 48.1 36a10 10 0 0 1 7.2 3c1.8 2 2.8 4.7 2.8 7.3m-4.8.9q-.5-2.9-2-5.2-.7-1-1.8-2-1-1-2.3-1.7 1.6.3 2.8 1l1.2 1 1 1.2a8 8 0 0 1 1.1 5.7" style="fill:#212121"/><path d="M32.3 17.4q-.3.7.1 1.4.6.9 1.7.7c1.4-.2 3.7-2.1 2.2-3.5-1.3-1.3-3.5-.2-4 1.4m16.9 3.8q0 .8-.7 1.3-1 .4-1.9-.2c-1.2-.8-2.4-3.5-.4-4.1 1.8-.6 3.3 1.4 3 3" style="fill:#a8bac1"/><radialGradient id="a" cx="34.7" cy="55.4" r="137.2" gradientTransform="rotate(19.4 -6.3 48.44)scale(1 .747)" gradientUnits="userSpaceOnUse"><stop offset=".1" style="stop-color:#cfd8dc;stop-opacity:0"/><stop offset="1" style="stop-color:#6899ad"/></radialGradient><path d="M98.7 74.1c-4.6 3.5-20 12.3-37.7-6-6.8-7.1-13-11.6-24.3-9-13.8 3-16.7 11.2-19 17.8A28 28 0 0 0 16 94.4c11.4 21.7 37.4 26.2 56 20.6 28-8.5 36-32.3 38.4-46.5.8-4.8 1.5-9.4 3-13.8l.6-1.8c-.5.5-6.5 14.5-15.4 21.2" style="fill:url(#a)"/><path d="M111.2 35.5a20 20 0 0 0-7.3 6.5c-4.7-15-12.3-13-13.2-12.7q-1.4.5-1.8 2c1-1 4.3-2.1 8.2 2a19 19 0 0 1 3.5 9.7c.6 8.1-2 13.4-3.5 15.6-.2.5.4 1 1 .7q2.4-1.7 4.5-7.8c1.5-4.3 3.4-11 10.8-14.5 3.7-1.7 6.8-1.7 8.6-1.1 1.4.4 2 1.5 2 1.5 0-1-.7-2.2-1.7-2.8-.7-.4-4.6-2.6-11.1 1" style="fill:#78909c"/><path d="M58 56.2c3 11.9-1.1 15.3-1.2 26.5 0 8.8 2.8 17.8 9.5 15.8 5-1.6 12.5-21 8.9-31" style="fill:#cad8dd"/><path d="M59.6 58c2 10-2.1 18.2-1.2 28.5.7 8.7 4.3 10.7 6 10.8s3-1.2 4-2.7q2-2.7 4-7.3c3-7.4 3.3-16 2.9-19.1-.2-1 .5-1 .8-.2a43 43 0 0 1-1.5 20c-.5 1.7-2.2 6.2-4.8 9.6-.6.7-2 2.9-5.6 2.6-1 0-7.5-1-8.6-13.4-.1-1.8-.4-6 .6-10.5.6-3.5 1.7-6.7 2-10 .5-2.7.2-5.4.1-8.2 0-1 1-1.3 1.3 0" style="fill:#728e9c"/><path d="M18.3 65.3C21.2 76.2 42 79.5 47.1 97.4c1.5 5.5-2.4 7.5-6 7.5A36 36 0 0 1 12.3 89" style="fill:#cad8dd"/><path d="M19.2 67q2.8 3.8 6.4 6.3c3 2.2 6.3 4 9.4 6.3a41 41 0 0 1 8.5 7.8c5.2 7.5 5.6 12.3 5.2 14a6 6 0 0 1-2 3 10 10 0 0 1-6.2 1.9 33 33 0 0 1-26-14.1c-.8-1.2-1.2-2.7-.2-1.4a34 34 0 0 0 26.3 12.7c.4 0 3-.2 4.3-1.2q1.4-1.4 1-3.8c-1-4.1-4-11-13-17.6C29 78.2 20 72 18.2 67.3c-.4-1 .4-.9.9-.2" style="fill:#728e9c"/></svg>