<svg xml:space="preserve" width="16" height="16" viewBox="0 0 128 128"><path d="M89 79.9c-1.3-2.3-.2-5.3 3-7.5 10.7-7.3 1.3-19.7-.5-24.6l-.8-2h-1.8a440 440 0 0 0-70.1 0l-2.7 2c-1 4-9.7 14 0 24.6 2.7 3 4.3 5.2 3 7.4s-4.8 2.6-4.8 2.6.9 2.2 2.9 3.5a14 14 0 0 0 5.7 1.4s6.1 8.5 22.2 8.5h18c16 0 22.1-8.5 22.1-8.5 1.6 0 3.9-.3 5.7-1.4 2-1.3 2.9-3.5 2.9-3.5s-3.6-.3-4.8-2.6" style="fill:#543930"/><radialGradient id="a" cx="109.6" cy="45.8" r="23.4" gradientTransform="matrix(1 0 0 .491 -40.95 59.63)" gradientUnits="userSpaceOnUse"><stop offset=".7" style="stop-color:#6d4c41;stop-opacity:0"/><stop offset="1" style="stop-color:#6d4c41"/></radialGradient><path d="M54 95.8v-9.4L82.6 84l2.6 3.2s-6.1 8.5-22.2 8.5z" style="fill:url(#a)"/><radialGradient id="b" cx="86.5" cy="49.3" r="6.9" gradientTransform="rotate(155 84.43 58.2)scale(1 .742)" gradientUnits="userSpaceOnUse"><stop offset=".7" style="stop-color:#6d4c41"/><stop offset="1" style="stop-color:#6d4c41;stop-opacity:0"/></radialGradient><path d="M85.2 83.2c-4.3-6.5 5.2-9 5.2-9q-2.7 3-1.5 5.6c1.2 2.3 4.8 2.6 4.8 2.6s-4.9 4.3-8.5.8" style="fill:url(#b)"/><radialGradient id="c" cx="104.3" cy="68.4" r="29.5" gradientTransform="rotate(-94.3 90.34 72.45)scale(1 .833)" gradientUnits="userSpaceOnUse"><stop offset=".7" style="stop-color:#6d4c41;stop-opacity:0"/><stop offset="1" style="stop-color:#6d4c41"/></radialGradient><path d="M91.6 47.8c0 4 10.8 11.8.7 24.4-.6.6-3 3-3.6 4.9 0 0-9.5-13.3-12.4-21.1q-.9-2.4-1.2-5-.1-2 1-3.8c.8-1.3 15-.5 15-.5z" style="fill:url(#c)"/><radialGradient id="d" cx="34.3" cy="68.5" r="29.7" gradientTransform="rotate(-85.7 97.08 1.2)scale(1 -.833)" gradientUnits="userSpaceOnUse"><stop offset=".7" style="stop-color:#6d4c41;stop-opacity:0"/><stop offset="1" style="stop-color:#6d4c41"/></radialGradient><path d="M16.2 47.8c-1 4-9.7 13.9-.3 24.4.5.6 3 3 3.5 4.9 0 0 9.6-13.3 12.4-21.1q1-2.4 1.2-5 .1-2-.9-3.8c-.9-1.3-1.9-1-3.4-1-2.9 0-10.8.5-11.8.5z" style="fill:url(#d)"/><radialGradient id="e" cx="39.5" cy="45.8" r="23.4" gradientTransform="matrix(-1 0 0 .491 78.99 59.63)" gradientUnits="userSpaceOnUse"><stop offset=".7" style="stop-color:#6d4c41;stop-opacity:0"/><stop offset="1" style="stop-color:#6d4c41"/></radialGradient><path d="M54 95.8v-9.4L25.6 84 23 87.3s6.2 8.5 22.3 8.5z" style="fill:url(#e)"/><radialGradient id="f" cx="16.4" cy="49.3" r="6.9" gradientTransform="rotate(205 4.68 53.98)scale(-1 .742)" gradientUnits="userSpaceOnUse"><stop offset=".7" style="stop-color:#6d4c41"/><stop offset="1" style="stop-color:#6d4c41;stop-opacity:0"/></radialGradient><path d="M23 83.2c4.3-6.5-5.2-9-5.2-9 1.6 2 2.4 3.9 1.4 5.6-1.2 2.3-4.8 2.6-4.8 2.6s4.9 4.3 8.6.8" style="fill:url(#f)"/><radialGradient id="g" cx="54.8" cy="2.2" r="67.4" gradientTransform="matrix(1 0 0 -.586 0 127.1)" gradientUnits="userSpaceOnUse"><stop offset=".6" style="stop-color:#f8f8f7"/><stop offset="1" style="stop-color:#c6c6c6"/></radialGradient><path d="M103 120.6c0-12-14.3-20-32.2-22.7v-3.3c-.6 0-8.8 1.7-8.8 1.7H46.4l-8.9-1.8v3.7c-17.6 2.7-32 10-32 22.4v3.4H103z" style="fill:url(#g)"/><path d="M54.3 89h-9.1v7.1s8 1 8 11.1h2.7C56.2 96 63.3 96 63.3 96v-7z" style="fill:#99674f"/><path d="m54 108-.4-3.6c-.6-4.9-3.3-7.9-6.6-8.6l-9.8-2.5q-1 .2-1.1 1.5l1.5 11.9 13.5 3.5z" style="fill:#f8f8f7"/><circle cx="44.6" cy="119.5" r="2.3" style="fill:#9e9e9e"/><circle cx="71" cy="119.5" r="2.3" style="fill:#9e9e9e"/><path d="m54.4 108 .4-3.7c.5-4.8 3.3-7.8 6.6-8.5l9.7-2.5q1.1.1 1.2 1.4l-1.5 12-13.6 3.5z" style="fill:#f8f8f7"/><radialGradient id="h" cx="49.1" cy="8.9" r="19.9" gradientTransform="rotate(164.4 -7.7 69.64)scale(-1 .755)" gradientUnits="userSpaceOnUse"><stop offset=".2" style="stop-color:#bdbdbd"/><stop offset="1" style="stop-color:#bdbdbd;stop-opacity:0"/></radialGradient><path d="M56.1 104.4c-2.2-.1-6.2-.9-10.5 0-11 2-17.5 10.4-16 17.7q0 1 .6 1.9h5.7l1.2-10c1.4-1.5 19.1-5.7 19.1-5.7z" style="fill:url(#h)"/><linearGradient id="i" x1="48.6" x2="48.6" y1="4" y2="26.1" gradientTransform="matrix(1 0 0 -1 0 128)" gradientUnits="userSpaceOnUse"><stop offset=".3" style="stop-color:#bdbdbd"/><stop offset=".7" style="stop-color:#cdcdcd"/><stop offset="1" style="stop-color:#e0e0e0"/></linearGradient><path d="m54.8 104.3-.3 2.5.1 1-16 4.5a4 4 0 0 0-2.7 4v7.7h1l1.4-8.2c.2-1 1-1.2 1.4-1.3l17.4-5.3c0-12.6 4.3-13.5 4.3-13.5-3.3.8-6.1 3.8-6.6 8.6" style="fill:url(#i)"/><path d="M81.3 50.5H26.6c-5.9 0-10.7 5.1-10.7 11.4s4.8 11.4 10.7 11.4h54.7c5.9 0 10.7-5.1 10.7-11.4s-4.8-11.4-10.7-11.4" style="fill:#99674f"/><path d="M54 11.1c-17.5 0-33.6 18.6-33.6 45.4S37 96.3 54 96.3s33.6-13.2 33.6-39.8c0-26.8-16.2-45.4-33.6-45.4" style="fill:#ba8d68"/><path d="M16.2 47.9c.4 4 3.1 4.6 3.1 4.6-.4 8 1 13 1.8 15q.5.4.8-.1c1-4 4.3-17.8 4-20.2 0 0 11.3-2.3 22.2-10.3a32 32 0 0 1 7-4c13.7-5.4 16.5 3.9 16.5 3.9S81 35 84 48c1 5 1.8 12.8 2.4 18.3 0 .4.6.4.7 0 1-2.1 2.9-6.4 3.3-10.8.2-1.6 2.3-3.6 1.1-8.1-1.3-5.2-6.7-29.6-37.6-29.6s-38.2 23.8-37.6 30" style="fill:#543930"/><ellipse cx="38.4" cy="58.9" rx="4.9" ry="5.1" style="fill:#49362e"/><ellipse cx="69.5" cy="58.9" rx="4.9" ry="5.1" style="fill:#49362e"/><path d="M62.5 76.2a26 26 0 0 1-16.8 0c-1.9-1.1-3.7.6-3 2.2s6.5 5.4 11.4 5.4 10.5-3.7 11.3-5.4c.8-1.6-1.1-3.3-3-2.2" style="fill:#5d4037"/><path d="M45.7 49.8c-1-1.2-3-3-7.2-3s-6.4 1.8-7.3 3q-.5 1 0 1.6t2 .4c1.4-.2 2.4-1.2 5.3-1.2 2.8 0 4.4.9 5.3 1.2q1.4.3 2-.4.4-.6-.1-1.6m31 0c-1-1.2-3.1-3-7.3-3s-6.3 1.8-7.2 3q-.5 1 0 1.6t1.9.4c1.5-.2 2.5-1.2 5.3-1.2s4.5.9 5.4 1.2q1.3.3 1.9-.4t0-1.6" style="fill:#613e31"/><path d="M57.8 68.1h-7.7q-1.1.6-.7 1.6c.3.7 1.7 2.7 4.5 2.7s4.3-2 4.6-2.7q.4-1.1-.7-1.6" style="fill:#99674f"/><linearGradient id="j" x1="106.9" x2="102.6" y1="74.5" y2="28.8" gradientTransform="matrix(1 0 0 -1 0 128)" gradientUnits="userSpaceOnUse"><stop offset=".1" style="stop-color:#757575"/><stop offset=".2" style="stop-color:#7a7a7a"/><stop offset=".4" style="stop-color:#8a8a8a"/><stop offset=".5" style="stop-color:#9e9e9e"/><stop offset=".5" style="stop-color:#969696"/><stop offset=".5" style="stop-color:#7b7b7b"/><stop offset=".6" style="stop-color:#656565"/><stop offset=".6" style="stop-color:#545454"/><stop offset=".7" style="stop-color:#494949"/><stop offset=".8" style="stop-color:#424242"/><stop offset="1" style="stop-color:#404040"/></linearGradient><path d="M106.6 53.6a18.6 18.6 0 0 0-5.8 36.7l-1.3 9.7 7.2.9.8-10.3a18.6 18.6 0 0 0-1-37" style="fill:url(#j)"/><linearGradient id="k" x1="102.9" x2="108.4" y1="41.9" y2="71.6" gradientTransform="matrix(1 0 0 -1 0 128)" gradientUnits="userSpaceOnUse"><stop offset="0" style="stop-color:#212121"/><stop offset="1" style="stop-color:#404040"/></linearGradient><circle cx="105.3" cy="73.3" r="15.3" style="fill:url(#k)"/><path d="M116.1 72c2.1 7.5-3.3 15.2-10.4 10.6S92.3 79 94.6 72.4c2.2-6.7 4-12.6 9.3-11.4 5.2 1.2 10.1 3.5 12.2 11" style="fill:#fff"/><linearGradient id="l" x1="122.1" x2="122.1" y1="77" y2="67.4" gradientTransform="rotate(176.6 -8.52 75.22)scale(-1 1)" gradientUnits="userSpaceOnUse"><stop offset="0" style="stop-color:#ffca28"/><stop offset=".3" style="stop-color:#ffc825"/><stop offset=".6" style="stop-color:#ffc21a"/><stop offset=".9" style="stop-color:#ffb809"/><stop offset="1" style="stop-color:#ffb300"/></linearGradient><circle cx="105.1" cy="71.8" r="5.2" style="fill:url(#l)"/><path d="M116.1 72q1.7 4.7-.7 9.1a7 7 0 0 1-3.8 3.1 7 7 0 0 1-4.8-.5l-4-2.3-4.2-1.9c-1.4-.6-3-1.2-4-2.5q-.7-1.1-.6-2.4l.2-1.1.4-1.1-.3 1.1v1.2q0 1 .6 2 1.6 1.4 4 2.1l4.3 1.8 4 2.2a6 6 0 0 0 4.2.5 6 6 0 0 0 3.3-2.5 10 10 0 0 0 1.6-4.2q.3-2.2-.2-4.6" style="fill:#f7cb4d"/><path d="m99.2 101.6 1.6-11.3.2-.1q3.1-1.6 6.1.2l.4.2-.8 11.9z" style="fill:#757575"/><radialGradient id="m" cx="54.3" cy="106.5" r="54.7" gradientTransform="matrix(1 0 0 -.422 0 66.44)" gradientUnits="userSpaceOnUse"><stop offset=".5" style="stop-color:#fafafa"/><stop offset=".6" style="stop-color:#eaeaea"/><stop offset="1" style="stop-color:#c1c1c1"/><stop offset="1" style="stop-color:#bdbdbd"/></radialGradient><path d="M94.8 14.5C85 8.1 70.3 4 53.9 4S22.5 8.1 13 14.5c-6.1 4-8.7 9.8-7.2 15.2 1 4 10.2 10.5 10.2 10.5 11.2 5.3 12.2-3.7 38-3.7 25.6 0 26.7 9 37.8 3.7 0 0 9.2-6.5 10.3-10.5 1.4-5.4-1.1-11.2-7.2-15.2" style="fill:url(#m)"/><radialGradient id="n" cx="53.9" cy="94.4" r="40.7" gradientTransform="rotate(180.4 -.1 62.7)scale(-1 .976)" gradientUnits="userSpaceOnUse"><stop offset=".3" style="stop-color:#f8f8f7"/><stop offset=".5" style="stop-color:#e8e8e7"/><stop offset=".9" style="stop-color:#bfbfbf"/><stop offset="1" style="stop-color:#b3b3b3"/></radialGradient><path d="m16.2 47.9-1-8.2S22 28.4 54.3 28.4s38.2 11.2 38.2 11.2l-1.2 7.8c-24.7-5.5-50.6-5-75.2.5" style="fill:url(#n)"/><linearGradient id="o" x1="29.3" x2="36.8" y1="118.9" y2="97.4" gradientTransform="matrix(1 0 0 -1 0 128)" gradientUnits="userSpaceOnUse"><stop offset="0" style="stop-color:#757575;stop-opacity:0"/><stop offset="1" style="stop-color:#757575;stop-opacity:.9"/></linearGradient><path d="M31.6 10.5s2.6 9.8 8.7 18.9C29 29 26.7 16.8 31.6 10.5" style="fill:url(#o)"/><linearGradient id="p" x1="10.9" x2="25.4" y1="110.2" y2="95.1" gradientTransform="matrix(1 0 0 -1 0 128)" gradientUnits="userSpaceOnUse"><stop offset="0" style="stop-color:#757575;stop-opacity:0"/><stop offset="1" style="stop-color:#757575;stop-opacity:.9"/></linearGradient><path d="M17 15.6c.5 5.2.1 10.5 9.4 17-12.6 3.7-17.9-8.2-9.4-17" style="fill:url(#p)"/><linearGradient id="q" x1="273.1" x2="280.6" y1="118.9" y2="97.4" gradientTransform="matrix(-1 0 0 -1 351.97 128)" gradientUnits="userSpaceOnUse"><stop offset="0" style="stop-color:#757575;stop-opacity:0"/><stop offset="1" style="stop-color:#757575;stop-opacity:.9"/></linearGradient><path d="M76.5 10.5s-2.5 9.8-8.7 18.9c11.4-.4 13.7-12.6 8.7-18.9" style="fill:url(#q)"/><linearGradient id="r" x1="254.8" x2="269.3" y1="110.2" y2="95.1" gradientTransform="matrix(-1 0 0 -1 351.97 128)" gradientUnits="userSpaceOnUse"><stop offset="0" style="stop-color:#757575;stop-opacity:0"/><stop offset="1" style="stop-color:#757575;stop-opacity:.9"/></linearGradient><path d="M91.1 15.6c-.5 5.2 0 10.5-9.4 17 12.6 3.7 17.9-8.2 9.4-17" style="fill:url(#r)"/><linearGradient id="s" x1="54.1" x2="54.1" y1="120.6" y2="99.8" gradientTransform="matrix(1 0 0 -1 0 128)" gradientUnits="userSpaceOnUse"><stop offset="0" style="stop-color:#757575;stop-opacity:0"/><stop offset="1" style="stop-color:#757575;stop-opacity:.9"/></linearGradient><path d="M54 7.4q2.1 2.7 2.8 5.2a18 18 0 0 1 0 10.4q-.7 2.6-2.7 5.2a14 14 0 0 1-2.8-5.2 18 18 0 0 1 2.8-15.6" style="fill:url(#s)"/><radialGradient id="t" cx="34.1" cy="139.7" r="20.2" gradientTransform="rotate(88.6 43.11 193.15)scale(-1 1.057)" gradientUnits="userSpaceOnUse"><stop offset=".3" style="stop-color:#ba8d68"/><stop offset="1" style="stop-color:#a47b62"/></radialGradient><path d="M97 102.4q-1.7.2-3.2.9c-1.5.6-8.4-1.5-9 5.2 0 1.9-.2 7.7 1.3 10.6 3.2 6 15.6 4.7 16.5 4.8 5.9 1 3.4-18 .1-20.4l-1.6-1c-1.2-.5-3-.3-4.1 0" style="fill:url(#t)"/><radialGradient id="u" cx="113.6" cy="15.3" r="14.8" gradientTransform="rotate(-20 467 55.86)scale(1 -1)" gradientUnits="userSpaceOnUse"><stop offset="0" style="stop-color:#a47b62"/><stop offset="1" style="stop-color:#ba8d68"/></radialGradient><path d="m105 120-6.6-.3q-1.5 0-1.7 1.3-.2 1.5 1.3 1.9l6.6 1q1.7.2 2.2-1.5v-.5c.1-1-.7-2-1.8-2" style="fill:url(#u)"/><radialGradient id="v" cx="99.5" cy="18.4" r="13.5" gradientTransform="matrix(1 -.005 -.005 -1 .02 128.5)" gradientUnits="userSpaceOnUse"><stop offset="0" style="stop-color:#a47b62"/><stop offset="1" style="stop-color:#ba8d68"/></radialGradient><path d="M96.6 105.3c-.2 0-10 8-10 8a11 11 0 0 0 9.6 9.6c10 .3 8.8-17.7.4-17.7" style="fill:url(#v)"/><radialGradient id="w" cx="108.1" cy="26.7" r="14.8" gradientTransform="matrix(1.013 .178 .177 -.984 -7.52 109.42)" gradientUnits="userSpaceOnUse"><stop offset="0" style="stop-color:#a47b62"/><stop offset="1" style="stop-color:#ba8d68"/></radialGradient><path d="M84.8 113s1.4 1 3.4 1.8c6.2 2.6 7-5 7.2-6.2.8-6 6.2-4.7 10.7-5 1 0 4.2-.4 5-2.5 1-3.6-2.6-3.6-10.2-4.1q-3.1-.2-6.3.1c-9.9 1.3-10 11.3-9.8 15.8" style="fill:url(#w)"/><radialGradient id="x" cx="114.6" cy="16" r="16.9" gradientTransform="rotate(176.8 -1.46 66.8)scale(-1 1)" gradientUnits="userSpaceOnUse"><stop offset="0" style="stop-color:#a47b62"/><stop offset="1" style="stop-color:#ba8d68"/></radialGradient><path d="m107.2 109.2-9.5.7c-1.3 0-1.3 1-1.4 2.2-.1 1.4 0 2.5 1.4 2.6l9.6.5c1.6.1 3-1 3-2.6v-.8c0-1.6-1.5-2.8-3.1-2.6" style="fill:url(#x)"/><radialGradient id="y" cx="115.2" cy="16.5" r="16.1" gradientTransform="rotate(185 1.37 59.12)scale(-1 1)" gradientUnits="userSpaceOnUse"><stop offset="0" style="stop-color:#a47b62"/><stop offset="1" style="stop-color:#ba8d68"/></radialGradient><path d="m107.1 103.6-8.1 1q-2 .5-2.1 2.3.2 2.1 2.3 2.3l8.3.2c1.5 0 2.8-1.2 2.7-2.7v-.8a2.6 2.6 0 0 0-3-2.3" style="fill:url(#y)"/><radialGradient id="z" cx="113.7" cy="16.3" r="16.1" gradientTransform="rotate(167.6 -5.6 75.51)scale(-1 1)" gradientUnits="userSpaceOnUse"><stop offset="0" style="stop-color:#a47b62"/><stop offset="1" style="stop-color:#ba8d68"/></radialGradient><path d="m106.3 115-7.6.3c-1 0-2 .8-2 1.9q-.1 1.8 2 2.3l7.4.7c1.4.2 2.7-.9 2.7-2.2v-.7c0-1.4-1-2.5-2.5-2.4" style="fill:url(#z)"/><path d="M107.6 115.2c0-1-8.6 0-9.6-1-1.2-1-1-2.9.4-3.6 1.7-.7 9.9-.9 9.8-1.4 0-.8-11 1.2-10.6-2.2.2-2.4 2.4-2.4 4.1-2.6 1-.2 5.4-.5 5.4-.8s-1-.2-1.2-.2c-.8-.1-6 .1-7.3.5-1.8.6-3.2 2.1-2.7 4.1q0 .6.4 1c.4.5-.4 2-.5 2.7-.3 2 .8 3 .8 3.8 0 .5-.6.9-.7 1.7-.2 1 .6 2 .4 3v1.1q.1.8.8 1.5c1 1 2.2 1 3.5 1.1.9 0 4.4.3 5.2-.2-1.9 0-7.6-.1-8.4-2.3 0-1.5 1.5-1 2.5-1 1.1.2 3.2.2 4.3.1.3 0 1.6-.1 1.6-.4s-3-.2-3.4-.2c-1.4 0-4.3.1-5-1.5a2 2 0 0 1 .4-1.9c1-1.2 9.7-.7 9.8-1.3" style="fill:#91674d"/></svg>