<svg xml:space="preserve" width="16" height="16" viewBox="0 0 128 128"><path d="M36.7 100.8c4.6-4.6 6.8-7.7 6.8-7.7l-3.9-3.9-.2-.2-3.9-3.9s-3 2.3-7.6 6.8C23 96.7 16.3 99.6 13 103c-3 3-3.2 5.7-3.9 9q-.7 3.8-3 7.6c-1 1.4-2.4 2.3-1 3.7l.2.2c1.5 1.4 2.4 0 3.7-.9q3.8-2.4 7.6-3c3.3-.8 6.1-1 9-4 3.3-3.2 6.3-10 11-14.7" style="fill:#84b0c1"/><path d="M6.7 122.4q-1.3 1.1-1.3.9c-.2-.1.2-.6 1.6-2.3s10.3-10.3 10.3-10.3l.7.7s-9.7 9.8-11.3 11"/><circle cx="18.5" cy="110.2" r="2"/><path d="m108 7.7-2.8-2.5a5 5 0 0 0-3.6-1.2 5 5 0 0 0-3.4 1.7L86.4 17 67.3 36c-.9 1.1-.3 1.7-.2 1.8 1.3 1.5 3.6 1.7 5.3.8q2.6-1.7 3-4.7c.3-1.2.3-1.9 1.3-2.7.3-.3 19-17.6 21.8-20.9.4-.5 1.8-1.6 3.4-.4l5.6 4.7 3.4-4v-.1c0-.3 0-.3-3-2.9" style="fill:#ffc107"/><path d="m74.2 54-7.5-7.4a852 852 0 0 0-44 46.2q-.7 1 .1 2l10.7 10.3q1 .9 2 .1c3.4-2.6 15.3-13 46.3-43.5z" style="fill:#424242"/><path d="M105 10.4a8 8 0 0 0-3-2.8c-1.2-.5-2 0-2.8.7-1.3 1.1-10 10.2-12 12.6q-.4.4-.4 1c5-4.8 10-9.5 11.7-10.9 1.2-1 2.4-2 3.4-1l2 1.6z" style="fill:#d89a00"/><path d="M123 16.8c1.2-1.8-.5-5.6-3.3-8.2s-6.4-4.5-8.1-3.2A329 329 0 0 0 64 47.2c-.7.7-.7 2 0 2.6l14.6 14.6c.7.7 1.9.8 2.7 0A343 343 0 0 0 123 16.8" style="fill:#424242"/><path d="M73.1 32c-.8.5-.5 2.8-1 4q-.6 1.4.5 1.1c.8-.2 1.7-1.5 1.7-3.4 0-1-.4-2.3-1.2-1.7" style="fill:#ffee58"/><path d="M17.1 105.2c-.8.8-2.7 2.2-3.6 3-.8.9-1.4 2.8-2 4.3q-.9 1.8-1 .2l.4-2.8.9-3c1.5-3.2 4.9-5 6.3-5.8q.6-.1.6.5c-.1.9-.5 2.4-1.6 3.6" style="fill:#a8e3f0"/><path d="M119.8 8.6Q116.9 6 114 5s3 2.2 4.8 4.3c1.7 2.2 2.8 5.2 2 6.9a571 571 0 0 1-41 46.6l-1.2-1-1.3 1.2a751 751 0 0 1-42.2 40l-1.3 2.4q.4.3.7.3.6 0 1-.4a698 698 0 0 0 43.3-40.7q.5.4 1.2.4t1.3-.6A345 345 0 0 0 123 16.8c1.2-1.8-.5-5.6-3.2-8.2" style="fill:#757575"/><path d="M77.8 50.3c-3-3-6.5-5.8-9.7-7.4 0 0-.8 0-1.5.8l-.7 1.5q3.8 1.4 9.8 7.2a38 38 0 0 1 7.4 10.2s.9 0 1.6-.6.6-1.6.6-1.6c-1.5-3.2-4.4-7-7.5-10" style="fill:#ffc107"/><path d="M73.4 54.6c-4-4-6.5-5.7-9.5-7.3 0 0-.7.4-.9 1.6v1.4l.8-.8q3.6 2 8.3 6.5c3 3 5.4 6.2 6.7 8.5l-.8.9h1.4q1.8-.6 1.7-.8c-1.6-3-3.7-6-7.7-10" style="fill:#212121"/><path d="M115.1 13q-3-3.1-6.5-5.5s-1.5-.6-2.9.7-1.5 2.6-1.5 2.6q3.2 2 7.3 5.8 3.8 3.9 6 7.6s1.5-.2 2.6-1.4c1.1-1.3.7-3 .7-3a47 47 0 0 0-5.7-6.9" style="fill:#ffc107"/><path d="M107.3 8.7q-.9.2-1 1 .1.8.8 1.4 1.7 1.8 4.2 2.8.6.2 1-.1.3-.3.2-.7-.2-1.5-1.2-2.6c-1-1.1-2.3-2.2-4-1.8" style="fill:#ffee58"/><path d="M36.7 104.2q-2.1-3.2-6.2-7.5a29 29 0 0 0-6.8-5.1l-1 1.3q-.7 1 .1 2L33.5 105q1 .9 2 .1z" style="fill:#ffc107"/><path d="M28.8 95.6q1.7 1.5 2.3 3.6v.6q-.3.6-1 .6-.7-.1-1.2-.5l-1.7-1.4c-1-1-4-2.8-2.9-4.6 1-1.7 3.6.8 4.5 1.7" style="fill:#ffee58"/><path d="M33.7 89.7c-1 .8-4.4 2.4-1.8-1.6l3.5-4.4c3.3-4 11.2-13.5 24.4-26.2 0 0 4.8-4.4 5.9-3.4s-.6 3.9-6 9.9a353 353 0 0 1-26 25.7M82.3 41s-3.5 4.2-6 2c-2.1-1.7 2.6-5.7 2.6-5.7.1-.1 16.1-15.2 21-19 1.9-1.6 4.4-3.4 5-2.8q1.2 1-3.4 5.6z" style="fill:#757575"/></svg>