<svg xml:space="preserve" width="16" height="16" viewBox="0 0 128 128"><path d="M116 4H12a8 8 0 0 0-8 8v104a8 8 0 0 0 8 8h104a8 8 0 0 0 8-8V12a8 8 0 0 0-8-8" style="fill:#194fa5"/><path d="M109.7 4H11.5A7.6 7.6 0 0 0 4 11.5v97.9c0 4.1 3.3 7.5 7.5 7.5h98.1c4.1 0 7.5-3.3 7.5-7.5V11.5c0-4-3.1-7.4-7.2-7.5z" style="fill:#2262dd"/><path d="M39.7 12.9c0-2.3-1.6-3-10.8-2.7-7.7.3-11.5 1.2-13.8 4-2.1 2.6-5.2 14.3-2.4 16.5q1.7 1 3.6.5c3-1 4-4.3 5.8-6.5q3.1-3.5 7.3-5.6c1.8-1 10.3-3.6 10.3-6.2" style="fill:#68abe6"/><path d="M101 38a3 3 0 0 1 3 3v60a3 3 0 0 1-3 3H21a3 3 0 0 1-3-3V41a3 3 0 0 1 3-3zm0-5H21a8 8 0 0 0-8 8v60a8 8 0 0 0 8 8h80a8 8 0 0 0 8-8V41a8 8 0 0 0-8-8M76 53h-3v-8a4 4 0 0 0-4-4H53a4 4 0 0 0-4 4v8h-3a1 1 0 0 0-1 1v42q.1 1 1 1h30q1 0 1-1V54q-.1-.9-1-1m-22-8h14q1 .1 1 1v6q0 1-1 1H54a1 1 0 0 1-1-1v-6q.1-.9 1-1m-14 8h-7a8 8 0 0 0-8 8v28a8 8 0 0 0 8 8h7q1 0 1-1V54q-.1-.9-1-1m49 0h-7a1 1 0 0 0-1 1v42q.1 1 1 1h7a8 8 0 0 0 8-8V61a8 8 0 0 0-8-8M79 19H56.7a8 8 0 1 0 0 4H63v4q.2 1.8 2 2c1.8.2 2-.9 2-2v-4h4v4q.2 1.8 2 2c1.8.2 2-.9 2-2v-4h4q1.8-.2 2-2c.2-1.8-.9-2-2-2m-30 6a4 4 0 1 1 0-8 4 4 0 0 1 0 8" style="fill:#fafafa"/></svg>