<svg xml:space="preserve" width="16" height="16" viewBox="0 0 128 128"><path d="m83 85.8 24.5-28.5-2.8-7.3-11.1 6-.7.7-10.7 21.2c-1.6 3.3-1.8 4.6-1.5 5.6.2 1 2.2 2.3 2.2 2.3" style="fill:#82aec0"/><path d="M122 36.8c-4.4-2.5-10.3-.5-13.1 4.4-1.2 2-1.5 4.4-1.5 5.3-.1 1.3-2.2 2.9-2.9 3.3l-.1.4 3 6.9q.3.2.5 0l.8-.6c2.3-1.3 4.2-1 4.9-.9 4 1 8.5-1 11-5.2 2.8-5 1.7-11-2.7-13.6m-8.4 14.4c-2.6-1.5-3.3-5.2-1.6-8.1 1.7-3 5.2-4.2 7.8-2.7s3.3 5.2 1.6 8.1c-1.7 3-5.2 4.2-7.8 2.7" style="fill:#de3e31"/><circle cx="97.8" cy="60" r="2" style="fill:#b9e4ea"/><circle cx="97.8" cy="60" r="2" style="fill:#b9e4ea"/><path d="m99.6 52.7 1-.5 5 7.4-1.4 1.5-1.8 2.1zM92 58.5l-1.7 3.4 1.1 9.3 2.3 2.2z" style="fill:#2f7889"/><path d="M87.6 55.7a71 71 0 0 0-6-30.2c-13-28-56-28.5-71-.9C.2 44 6.1 74.3 19.2 91.8c3 4.1 17.8 31.9 63.7 31.9 31.1 0 37.6-40 14.4-49.6-8.8-3.3-9.7-6.2-9.7-18.4" style="fill:#543930"/><radialGradient id="a" cx="70.5" cy="37.5" r="42.9" gradientTransform="matrix(1 0 0 -.864 0 125.05)" gradientUnits="userSpaceOnUse"><stop offset=".8" style="stop-color:#6d4c41;stop-opacity:0"/><stop offset="1" style="stop-color:#6d4c41"/></radialGradient><path d="M82.9 123.7c-25.9 0-41.9-8.9-51.4-17.3l56.6-42c.8 5.3 3 7.4 9.2 9.7 23.2 9.7 16.7 49.6-14.4 49.6" style="fill:url(#a)"/><linearGradient id="b" x1="51.6" x2="51.6" y1="34.2" y2="6.4" gradientTransform="matrix(1 0 0 -1 0 130)" gradientUnits="userSpaceOnUse"><stop offset="0" style="stop-color:#651fff"/><stop offset=".7" style="stop-color:#5914f2"/><stop offset="1" style="stop-color:#530eeb"/></linearGradient><path d="M99.1 121v3H4v-18c5-3.6 12-6.1 19.8-7.7A115 115 0 0 1 45.5 96h1.8c25.6 0 51.8 8.3 51.8 25" style="fill:url(#b)"/><path d="M56.2 90v10c0 4.6-3.7 8.2-9 8.2-5.4 0-9.2-3.6-9.2-8.1V90z" style="fill:#e59600"/><path d="M80.4 56q0 9-2.9 16.2a39 39 0 0 1-21.3 22.2l-1.1.4A24 24 0 0 1 44.3 96a27 27 0 0 1-6.2-1.7 40 40 0 0 1-24-38.4c0-27 16-39.9 33.2-39.9s33 12.8 33 40" style="fill:#ffca28"/><path d="M55.7 76.1a26 26 0 0 1-16.8 0c-1.9-1-3.7.6-3 2.3s6.5 5.4 11.4 5.4 10.5-3.8 11.3-5.4c.7-1.7-1.1-3.4-3-2.3" style="fill:#795548"/><path d="M51.1 68h-7.7q-1 .5-.7 1.7c.3.7 1.7 2.7 4.6 2.7s4.2-2 4.5-2.7q.4-1.2-.7-1.6" style="fill:#e59600"/><ellipse cx="30.8" cy="58.8" rx="4.9" ry="5.1" style="fill:#404040"/><ellipse cx="63.7" cy="58.8" rx="4.9" ry="5.1" style="fill:#404040"/><path d="M38.2 49.8c-.9-1.2-3-3-7.2-3s-6.3 1.8-7.2 3q-.5 1 0 1.6t1.9.4c.8-.3 2.5-1.2 5.3-1.2s4.5.9 5.4 1.2q1.3.3 1.9-.4.4-.6 0-1.6m32.4 0c-.9-1.2-3-3-7.2-3s-6.3 1.8-7.2 3q-.5 1 0 1.6t1.8.4c1.3-.2 2.6-1.2 5.4-1.2s4.5.9 5.3 1.2q1.5.3 2-.4t0-1.6" style="fill:#6d4c41"/><path d="m77.4 72.7-.7-12c0-4 .5-13-2.5-15.1-3.7-2.7-14-9.7-17.3-16.9 0 0-12.7 11.9-35 17-6.1 1.3-5.2 12.1-5.2 15 0 5.6 1 11.3 2.3 15.9 1.5 5.9 3.2 10 3.2 10s-2.8-2.2-5.9-5A76 76 0 0 1 9 58.3c-1.8-12.4-.3-24 4.3-32.3a37 37 0 0 1 33-19A35 35 0 0 1 79 26.8q5.7 12.5 5.7 29 0 6.6.8 10.7z" style="fill:#543930"/><radialGradient id="c" cx="50.9" cy="74.3" r="53.3" gradientTransform="matrix(0 -1 -.846 0 111.76 106.81)" gradientUnits="userSpaceOnUse"><stop offset=".8" style="stop-color:#6d4c41;stop-opacity:0"/><stop offset="1" style="stop-color:#6d4c41"/></radialGradient><path d="M77.4 72.7c1.7-4.8 3-10.6 3-16.7 0-27.2-16-40-33.2-40s-33 12.8-33 40A40 40 0 0 0 38 94.3v2q-7.4.6-14.3 2c-2.4-3-3.8-5.5-4.5-6.5C6 74.3.2 44 10.6 24.6c15-27.6 58-27.1 71 .9a71 71 0 0 1 6 30.2q0 5.5.5 8.7z" style="fill:url(#c)"/><path d="M94 89.5 91.7 52l6.6-4.2 5.4 12.5-4.2 23.5c-.7 3.5-1.4 4.7-2.2 5.4-.7.6-3.1.4-3.1.4" style="fill:#82aec0"/><path d="m93.2 64.1-.9-1.2 1.8 26.6s2.3-.6 2.2-4.5l-1.4-15.8q0-2.8-1.7-5" style="fill:#b9e4ea"/><circle cx="97.8" cy="60" r="2" style="fill:#b9e4ea"/><path d="M82.2 36.2C81.6 41 84 45.4 87.8 47c.7.3 2.3 1.2 3.3 3.6l.3 1q0 .3.4.2l6.6-3.6.1-.3c-.2-.8-1-3.4-.3-4.4a14 14 0 0 0 2-5.1c.7-5.7-2.8-10.8-7.7-11.4s-9.6 3.5-10.3 9.2m3.6.4c.4-3.4 3.2-5.9 6.2-5.5 3 .3 5 3.4 4.6 6.8s-3.1 6-6.1 5.6-5.1-3.5-4.7-6.9" style="fill:#de3e31"/><path d="m83 85.8 24.5-28.5-2.8-7.3-11.1 6-.7.7-10.7 21.2c-1.6 3.3-1.8 4.6-1.5 5.6.2 1 2.2 2.3 2.2 2.3" style="fill:#82aec0"/><path d="M122 36.8c-4.4-2.5-10.3-.5-13.1 4.4-1.2 2-1.5 4.4-1.5 5.3-.1 1.3-2.2 2.9-2.9 3.3l-.1.4 3 6.9q.3.2.5 0l.8-.6c2.3-1.3 4.2-1 4.9-.9 4 1 8.5-1 11-5.2 2.8-5 1.7-11-2.7-13.6m-8.4 14.4c-2.6-1.5-3.3-5.2-1.6-8.1 1.7-3 5.2-4.2 7.8-2.7s3.3 5.2 1.6 8.1c-1.7 3-5.2 4.2-7.8 2.7" style="fill:#de3e31"/><circle cx="97.8" cy="60" r="2" style="fill:#b9e4ea"/><circle cx="97.8" cy="60" r="2" style="fill:#b9e4ea"/><path d="m99.6 52.7 1-.5 5 7.4-1.4 1.5-1.8 2.1zM92 58.5l-1.7 3.4 1.1 9.3 2.3 2.2z" style="fill:#2f7889"/><path d="M87.6 55.7a71 71 0 0 0-6-30.2c-13-28-56-28.5-71-.9C.2 44 6.1 74.3 19.2 91.8c3 4.1 17.8 31.9 63.7 31.9 31.1 0 37.6-40 14.4-49.6-8.8-3.3-9.7-6.2-9.7-18.4" style="fill:#543930"/><radialGradient id="d" cx="70.5" cy="37.5" r="42.9" gradientTransform="matrix(1 0 0 -.864 0 125.05)" gradientUnits="userSpaceOnUse"><stop offset=".8" style="stop-color:#6d4c41;stop-opacity:0"/><stop offset="1" style="stop-color:#6d4c41"/></radialGradient><path d="M82.9 123.7c-25.9 0-41.9-8.9-51.4-17.3l56.6-42c.8 5.3 3 7.4 9.2 9.7 23.2 9.7 16.7 49.6-14.4 49.6" style="fill:url(#d)"/><linearGradient id="e" x1="51.6" x2="51.6" y1="34.2" y2="6.4" gradientTransform="matrix(1 0 0 -1 0 130)" gradientUnits="userSpaceOnUse"><stop offset="0" style="stop-color:#651fff"/><stop offset=".7" style="stop-color:#5914f2"/><stop offset="1" style="stop-color:#530eeb"/></linearGradient><path d="M99.1 121v3H4v-18c5-3.6 12-6.1 19.8-7.7A115 115 0 0 1 45.5 96h1.8c25.6 0 51.8 8.3 51.8 25" style="fill:url(#e)"/><path d="M56.2 90v10c0 4.6-3.7 8.2-9 8.2-5.4 0-9.2-3.6-9.2-8.1V90z" style="fill:#e59600"/><path d="M80.4 56q0 9-2.9 16.2a39 39 0 0 1-21.3 22.2l-1.1.4A24 24 0 0 1 44.3 96a27 27 0 0 1-6.2-1.7 40 40 0 0 1-24-38.4c0-27 16-39.9 33.2-39.9s33 12.8 33 40" style="fill:#ffca28"/><path d="M55.7 76.1a26 26 0 0 1-16.8 0c-1.9-1-3.7.6-3 2.3s6.5 5.4 11.4 5.4 10.5-3.8 11.3-5.4c.7-1.7-1.1-3.4-3-2.3" style="fill:#795548"/><path d="M51.1 68h-7.7q-1 .5-.7 1.7c.3.7 1.7 2.7 4.6 2.7s4.2-2 4.5-2.7q.4-1.2-.7-1.6" style="fill:#e59600"/><ellipse cx="30.8" cy="58.8" rx="4.9" ry="5.1" style="fill:#404040"/><ellipse cx="63.7" cy="58.8" rx="4.9" ry="5.1" style="fill:#404040"/><path d="M38.2 49.8c-.9-1.2-3-3-7.2-3s-6.3 1.8-7.2 3q-.5 1 0 1.6t1.9.4c.8-.3 2.5-1.2 5.3-1.2s4.5.9 5.4 1.2q1.3.3 1.9-.4.4-.6 0-1.6m32.4 0c-.9-1.2-3-3-7.2-3s-6.3 1.8-7.2 3q-.5 1 0 1.6t1.8.4c1.3-.2 2.6-1.2 5.4-1.2s4.5.9 5.3 1.2q1.5.3 2-.4t0-1.6" style="fill:#6d4c41"/><path d="m77.4 72.7-.7-12c0-4 .5-13-2.5-15.1-3.7-2.7-14-9.7-17.3-16.9 0 0-12.7 11.9-35 17-6.1 1.3-5.2 12.1-5.2 15 0 5.6 1 11.3 2.3 15.9 1.5 5.9 3.2 10 3.2 10s-2.8-2.2-5.9-5A76 76 0 0 1 9 58.3c-1.8-12.4-.3-24 4.3-32.3a37 37 0 0 1 33-19A35 35 0 0 1 79 26.8q5.7 12.5 5.7 29 0 6.6.8 10.7z" style="fill:#543930"/><radialGradient id="f" cx="50.9" cy="74.3" r="53.3" gradientTransform="matrix(0 -1 -.846 0 111.76 106.81)" gradientUnits="userSpaceOnUse"><stop offset=".8" style="stop-color:#6d4c41;stop-opacity:0"/><stop offset="1" style="stop-color:#6d4c41"/></radialGradient><path d="M77.4 72.7c1.7-4.8 3-10.6 3-16.7 0-27.2-16-40-33.2-40s-33 12.8-33 40A40 40 0 0 0 38 94.3v2q-7.4.6-14.3 2c-2.4-3-3.8-5.5-4.5-6.5C6 74.3.2 44 10.6 24.6c15-27.6 58-27.1 71 .9a71 71 0 0 1 6 30.2q0 5.5.5 8.7z" style="fill:url(#f)"/><path d="M94 91.5 91.7 52l6.6-4.2 5.4 12.5-4.2 25.5c-.7 3.5-1.4 4.7-2.2 5.4-.7.6-3.1.4-3.1.4" style="fill:#82aec0"/><circle cx="97.8" cy="60" r="2" style="fill:#b9e4ea"/><path d="M82.2 36.2C81.6 41 84 45.4 87.8 47c.7.3 2.3 1.2 3.3 3.6l.3 1q0 .3.4.2l6.6-3.6.1-.3c-.2-.8-1-3.4-.3-4.4a14 14 0 0 0 2-5.1c.7-5.7-2.8-10.8-7.7-11.4s-9.6 3.5-10.3 9.2m3.6.4c.4-3.4 3.2-5.9 6.2-5.5 3 .3 5 3.4 4.6 6.8s-3.1 6-6.1 5.6-5.1-3.5-4.7-6.9" style="fill:#de3e31"/></svg>