<svg xml:space="preserve" width="16" height="16" viewBox="0 0 128 128"><linearGradient id="a" x1="64" x2="64" y1="100.1" y2="28.6" gradientUnits="userSpaceOnUse"><stop offset=".5" style="stop-color:#504f4f"/><stop offset="1" style="stop-color:#757575"/></linearGradient><path d="m51 67.9-21.1-6.1a2 2 0 0 1-1.3-2.4L32 49a2 2 0 0 1 2.5-1.2l20.8 8a2 2 0 0 0 2.6-1.8l-1-24c-.1-1 .7-2 1.8-2h11c1.2 0 2 1 2 2l-1 24.5a2 2 0 0 0 2.5 1.9l20.4-8a2 2 0 0 1 2.5 1.3l3.3 10.6a2 2 0 0 1-1.3 2.4l-21.4 6.1a2 2 0 0 0-1 3l13.9 18.6c.6.8.5 2-.4 2.7l-9 6.5a2 2 0 0 1-2.7-.5L65 79.2a2 2 0 0 0-3.2 0L49.6 98.4a2 2 0 0 1-2.8.5l-9-6.2a2 2 0 0 1-.4-2.8l14.5-19c.8-1.1.3-2.7-1-3" style="fill:url(#a)"/></svg>