<svg xml:space="preserve" width="16" height="16" viewBox="0 0 128 128"><path d="m26.4 112.2-.3 8.2c0 1.4-1.1 3.5-2.4 3.5-1.3.1-7 0-7.9-.1s-3.3-1-3.6-5-.5-8.5-.5-10.2l-.1-4.2zm76.6.4v7.8c0 1.2 1.1 3.4 4.4 3.5s4.8 0 6 0q2.7 0 3.3-5.7l.5-9.5.1-3.9s-13.5 3.4-13.6 3.7z" style="fill:#4e433c"/><path d="m18.8 55.5-4.5-.1-13.1.6c0 1.6.4 3.3 3.3 4.2s12.8.7 12.8.7l-1.3.8s-3.4 8.7-4.5 13.2c-1.7 6.4-.7 22.5-.7 22.5l1.3 9.2s2.1 5.6 7 6.5 28.2 1.7 44.3 2.2 44.5-1.7 47.5-2.5 5.8-4.7 6.6-7.2c.8-2.4 1-10.6 1-10.6s.9-11.8-.2-18.6a82 82 0 0 0-4.7-13.8c-.7-1.4-1.6-3.9-1.6-3.9s10.9.1 12.6-1c2-1.1 2.2-2.3 2.2-3.6q0-1.4-.6-1.5l-13.7 1h-3.8z" style="fill:#d70617"/><path d="m18 99.1-7.7-2.6s.3 9.3 2.6 11.2q3.4 3 10.3 3.7c6.9.7 27.2.8 40.9.8s42.9-1.3 47.1-2.5c4.3-1.3 5.5-2.6 6.3-4.3 1.2-2.4 1.5-9.6 1.5-9.6s-4.2 3.7-5.4 4.2c-1.1.5-53 2.3-53.3 2.3zM15.5 63c.3 1.7.8 4.5 5.6 5.7s19.5 7 43.7 6.6c24.1-.5 39.8-8 41.6-8.7 1.7-.7 5.8-2.8 6-5.4 0-1.8-1.3-5-1.3-5s-3.5-12.7-5.4-18-4.4-11.9-6-14.7-4.4-3.6-7.7-4-13.9-.6-28-.5c-15.5.1-25.7.6-28.3.7q-4 .2-6.5 4.5-2.4 4-7 17.6c-2.8 8.3-4.8 16.3-4.8 16.3zm97.3-9.3c.3.3 2.2 1.8 6.7 1.7 5 0 7.1-2.4 7.1-2.4s-.8-2.6-4.4-4.2c-4-1.9-7.6-1.7-9-.8-1.2.8-.4 5.7-.4 5.7m-97.2 2s1.3-4.3-1.3-5.6-9.2-.2-11.8 2.1C1.1 53.5 1.2 56 1.2 56s2.7 1.5 7.7 1.4 6.7-1.7 6.7-1.7" style="fill:#ff2a23"/><path d="M46.9 93.8c1.6.9 33.2.5 34.3 0s5-9 5.7-10.8c.3-1 .2-3-2.3-3.9s-11.4-1.7-20.7-1.8-18.4.7-21.2 1.8c-1.6.6-1.8 2-1.4 3.3 1.9 5 4 10.5 5.6 11.4" style="fill:#474c4f"/><path d="M10.7 95c-.9.2-.5 7 4 8.5 5.4 1.7 38.7 1.7 49.2 1.6s45.5.2 48.8-.9c4.9-1.7 7.4-9 5.9-9.3-2-.3-3.3 3-12.8 3-10.4.2-31.9.9-42 .8-10-.2-41.8 0-46.8-1.5s-5.5-2.4-6.3-2.2" style="fill:#ff6b5d"/><path d="M91.4 76c0 1 1.2 2.2 2.8 2.1s11.7-.6 13.4-1.1c1.2-.4 3.7-2.2 4-4.6q0-3.7-.2-4.7c0-1.3-.5-2.2-3.4-2.2l-13.3.5q-3.2 0-3.3 3.4z" style="fill:#feeccb"/><path d="M95.4 72c0 3.6 2.3 6 6.8 5.6 5.4-.4 6.3-3.4 6-6.5-.1-3.4-2.7-5.4-6.1-5.3-3.5 0-6.7 1.8-6.7 6.2" style="fill:#fffeff"/><path d="M36.8 77.7c.8-.8.5-5.5.3-8.3-.1-2.7-2.7-3-4.7-3s-13-.2-14.8 0c-1.1.1-.7 5.8-.3 7.2.3 1.2 2.1 4.2 5.5 4.4s13 .6 14-.3" style="fill:#feeccb"/><path d="M21 72.2c0 3 2 6.1 6.6 6 5 0 6.2-3.8 6.2-6s-1.3-6-6.6-6c-5.1.2-6.1 4-6.1 6" style="fill:#fffeff"/><path d="M37.4 23.3c-1.8.2-4.1.8-5.5 3.5a232 232 0 0 0-10 28.4c-.4 1.7 0 3.2 2.7 3.4a587 587 0 0 0 80.2-.5c1.8-.2 2.6-2 2.3-4s-3.8-12.1-5.4-16.6a95 95 0 0 0-4.5-10.8c-.7-1.3-1.8-2.5-5.3-3a476 476 0 0 0-54.5-.4" style="fill:#547078"/><path d="m35.9 52-8.7-2.3s2-6.9 3.8-11.7l3-7.7c.5-1.1 1.5-2.6 4.3-2.8s8.5-.6 26.6-.7c18 0 24 .6 25.6.9 1.8.3 3.8.4 5.2 3.7s3.2 9.2 4.5 13c.8 2.2 1.8 6.2 1.8 6.2z" style="fill:#afe3fb"/><path d="M38.5 48.1s.4-5.2.4-7.6 2-4.2 3.8-4.4 7.3-.1 8.6 0c1.3 0 3.3 1.5 3.4 3.8l.3 7.4h20v-7.7c0-2 1.5-3 3.5-3.2h9c1.6 0 3.1 1.4 3.3 3.7s.2 8.4.2 8.4 2.7 0 5.2.4l5.6.7s1.6 4-1 4.2c-2.3.2-23.6.4-37.7.5-14 .2-33.6 0-34.7 0-1.4 0-1.7-1.4-1.6-2.4s.5-2.2.5-2.2l5.6-1z" style="fill:#96c8eb"/></svg>