<svg xml:space="preserve" width="16" height="16" viewBox="0 0 128 128"><path d="M16.8 28A58 58 0 0 1 3.6 3.6l92.6 92.6-5.6 5.5z" style="fill:#82aec0"/><path d="M28 16.8A58 58 0 0 0 3.6 3.6l92.6 92.6 5.5-5.6z" style="fill:#c9e3e6"/><path d="m98 98 4.5-4.3 14.9 17.2-1.6 5-5 1.5-17.1-15z" style="fill:#874d36"/><path d="m98 98 4.5-4.3 15 17.2s1.3 1.9-1.7 4.9-4.9 1.6-4.9 1.6l-17.2-15z" style="fill:#693928"/><path d="M111.4 113.6c-.2.2-1.1.6-2.3-.3q-1-1 0-1.6a15 15 0 0 0 4.5-5.2l2 2.4q-1.5 3-4.2 4.7m-4.4-5.2c-.2.2-1.3.7-2.1.2-1.2-.7-1-1.6-.3-2 1.6-1 3.8-3.3 4.8-5l2 2.4a15 15 0 0 1-4.3 4.4m-5.4-3.8c-.3.1-1.2.4-2.2-.3-.6-.4-.8-1.4-.1-1.8 1.8-1.1 4.4-3.9 5.6-5.8l2 2.3a22 22 0 0 1-5.3 5.6" style="fill:#a65f3e"/><path d="m110.5 120.5.4-3.1s1.5 0 4-2.5 2.5-4 2.5-4l3.1-.4c2.3-.4 4.2 1.6 4 3.9q-.6 3.3-3.6 6.5a12 12 0 0 1-6.5 3.5 3.5 3.5 0 0 1-4-3.9m-32-8.3 10.5-12.8 5.2-5.3 5.3-5.2 12.8-10.5q1.2-.8 2.2 0 .8 1.1 0 2.2c-2.8 3-8.4 9.6-10.9 12.3A213 213 0 0 1 93 103.5l-12.3 10.9a1.6 1.6 0 0 1-2.2-2.2" style="fill:#9e740b"/><path d="M111.2 28a58 58 0 0 0 13.2-24.4L31.8 96.1l5.6 5.5z" style="fill:#82aec0"/><path d="M100 16.8a58 58 0 0 1 24.4-13.2L31.8 96.1l-5.5-5.6z" style="fill:#c9e3e6"/><path d="m30 98-4.5-4.3-14.9 17.2 1.6 5 5 1.5 17.1-15z" style="fill:#874d36"/><path d="m30 98-4.5-4.3-14.9 17.2s-1.5 1.8 1.6 4.9 5 1.6 5 1.6l17-15z" style="fill:#693928"/><path d="m17.5 120.5-.4-3.1s-1.5 0-4-2.5-2.5-4-2.5-4l-3.1-.4a3.5 3.5 0 0 0-4 3.9q.6 3.3 3.6 6.5 3.2 3 6.5 3.5c2.3.3 4.2-1.6 4-3.9m32-8.3L39.1 99.4 34 94.1 28.6 89 15.8 78.4q-1.2-.8-2.2 0-.8 1.1 0 2.2c2.8 3 8.4 9.6 10.9 12.3A213 213 0 0 0 35 103.5l12.3 10.9a1.6 1.6 0 0 0 2.2-2.2" style="fill:#9e740b"/><path d="M5.1 113.9a8 8 0 0 0 2.9 4.3c2 1.6 3.1.4 2.2-1.4-.7-1.5-1.3-2.2-2.4-4.1s-3.2-.8-2.7 1.2m12.4-31.2c-.9-1 .5-1.4 2.5.3l10.5 9c2.7 2.5 1.3 5 1.3 5a319 319 0 0 1-14.3-14.3" style="fill:#e2a610"/><path d="M16.6 113.6c.2.2 1.1.6 2.2-.3q1-1 0-1.6a15 15 0 0 1-4.4-5.2l-2.1 2.4q1.6 3 4.3 4.7m4.4-5.2c.2.2 1.3.7 2.1.2 1.2-.7 1-1.6.3-2-1.6-1-3.8-3.3-4.8-5l-2 2.4q1.8 2.7 4.3 4.4m5.4-3.8c.2.1 1.2.4 2.2-.3.6-.4.8-1.4 0-1.8a24 24 0 0 1-5.5-5.8L21 99c1.4 2.2 3.6 4.6 5.3 5.6" style="fill:#a65f3e"/><path d="m64 75.2 5.6 5.5 9.3-13-3.7-3.7z" style="fill:#2f7889"/><path d="M102.3 87.8c-2 1.6 1.4 2.1 3.8-.3l4.7-4.6c1.1-1.2 1.1-3.3-1-1.6zm16.5 27.2c-.7 1-.4 2 .7 2q1.2-.2 2-1 .8-.6 1.2-2.1c.4-1.6-1.3-3.2-2.3-1.7z" style="fill:#e2a610"/><path d="M157.2 21.5c-9.8-9.7-13.3-24.4-13.3-24.4l92.6 92.6-5.6 5.6z" style="fill:#82aec0"/><path d="M168.4 10.4A59 59 0 0 0 143.9-3l92.6 92.6 5.6-5.6z" style="fill:#c9e3e6"/><path d="m238.4 91.6 4.4-4.4 15 17.2-1.6 5-5 1.5L234.1 96z" style="fill:#874d36"/><path d="m238.4 91.6 4.4-4.4 15 17.2s1.4 1.9-1.6 5c-3 3-5 1.5-5 1.5l-17-14.9z" style="fill:#693928"/><path d="M251.8 107.2c-.3.1-1.2.5-2.3-.4q-1-1 0-1.6a15 15 0 0 0 4.4-5.2l2.1 2.5q-1.5 2.9-4.2 4.7m-4.4-5.2c-.2 0-1.3.7-2.2.2q-1.6-1.2-.2-2c1.5-1 3.7-3.4 4.7-5l2 2.4a15 15 0 0 1-4.3 4.3m-5.4-3.8c-.2.2-1.2.4-2.1-.3-.7-.4-.9-1.4-.2-1.8a21 21 0 0 0 5.7-5.8l2 2.4A21 21 0 0 1 242 98" style="fill:#a65f3e"/><path d="m250.8 114 .4-3s1.6 0 4-2.5c2.6-2.5 2.6-4 2.6-4l3-.5a3.5 3.5 0 0 1 4 4c-.3 2-1.5 4.5-3.5 6.5a12 12 0 0 1-6.5 3.4 3.5 3.5 0 0 1-4-3.9m-32.1-8.2 10.5-12.9 5.3-5.2 5.3-5.3 12.8-10.5q1-.7 2.1 0 .9 1.2 0 2.2L244 86.4A213 213 0 0 1 233.2 97c-2.6 2.6-9.1 8.2-12.2 11a1.6 1.6 0 0 1-2.3-2.2" style="fill:#9e740b"/><path d="M251.5 21.5c9.8-9.7 13.3-24.4 13.3-24.4l-92.6 92.6 5.6 5.6z" style="fill:#82aec0"/><path d="M240.3 10.4A59 59 0 0 1 264.8-3l-92.6 92.6-5.6-5.6z" style="fill:#c9e3e6"/><path d="m170.3 91.6-4.4-4.4-15 17.2 1.7 5 4.9 1.5L174.7 96z" style="fill:#874d36"/><path d="m170.3 91.6-4.4-4.4-15 17.2s-1.5 1.8 1.6 5c3.2 3 5 1.5 5 1.5L174.7 96z" style="fill:#693928"/><path d="m157.9 114-.4-3s-1.6 0-4-2.5c-2.6-2.5-2.5-4-2.5-4l-3.1-.5a3.5 3.5 0 0 0-4 4c.3 2 1.5 4.5 3.5 6.5q3.2 3 6.6 3.4c2.2.4 4.2-1.6 3.9-3.9m32.1-8.2-10.5-12.9-5.3-5.2-5.2-5.3-13-10.5q-1-.7-2.1 0-.9 1.2 0 2.2l10.8 12.3A213 213 0 0 0 175.5 97c2.7 2.6 9.1 8.2 12.2 11a1.6 1.6 0 0 0 2.3-2.2" style="fill:#9e740b"/><path d="m145 107.3.3.9q.3.4.7.6c2.4 1.8 5.1 0 3-2.7-1.6-2-4.4-1.1-4 1.2m12.8-31.1c-.8-1 .5-1.4 2.5.4l10.5 9c2.8 2.4 1.4 5 1.4 5a324 324 0 0 1-14.4-14.4" style="fill:#e2a610"/><path d="M157 107.2c.1.1 1 .5 2.2-.4q1-1 0-1.6a15 15 0 0 1-4.4-5.2l-2.1 2.5q1.5 2.9 4.2 4.7m4.4-5.2c.2 0 1.3.7 2.1.2 1.2-.7 1-1.6.3-2-1.5-1-3.8-3.4-4.7-5l-2.1 2.4q1.8 2.7 4.4 4.3m5.4-3.8c.2.2 1.1.4 2.1-.3.6-.4.8-1.4.1-1.8a21 21 0 0 1-5.6-5.8l-2 2.4c1.5 2.1 3.7 4.5 5.3 5.5" style="fill:#a65f3e"/><path d="m204.4 68.7 5.5 5.6 9.4-13-3.8-3.8z" style="fill:#2f7889"/><path d="M242.6 81.4c-1.9 1.5 1.5 2 3.8-.3l4.7-4.7c1.2-1.2 1.2-3.2-1-1.5z" style="fill:#e2a610"/></svg>