<svg xml:space="preserve" width="16" height="16" viewBox="0 0 128 128"><path d="M29 63.2s-2.4 6.8-1 14.2 3.3 14 3.3 14 .5 14.4 0 16-3.6 3.5-3.6 6.3 1 6.4 6.2 7.2 9.4-.9 11.2-3c2.5-3 2-5.2 2-7.4s.1-15.2.7-17.2q.8-3 3-3c1.5.2 3.2 2.6 3.3 7 .2 4.6.3 12.5.2 14-.2 1.6-1.6 6.8-.4 8.9 1 2 6.2 4.1 10.1 4 5.2-.4 8.3-3.6 8.6-6.1.3-2.6-1.4-8.3-1.4-10s2-13.3 2.5-14 2.3-.5 6-2.2c3.5-1.6 5.3-3.1 5.3-3.1v11.1c-.2 1.1-3.6 4.7-3 7.3.6 2.7 3.9 4.3 6.8 4.5 5 .5 9.8-3.4 11-6.7 1.3-3.4.8-7.6.5-9.9-.3-2.2-.3-10.1 0-12.2q.5-3 1-4.5c.2-1.9.1-4 .1-4s4.9 0 7.8-1.8 5.9-5.2 7.2-9.3c1.3-4 1-5.2-.1-5.3-1.2-.2-6.2 7-10.5 7.1-6.8.4-6.2-7-11.4-11.4-5.8-5-15-5.6-15-5.6s1.6-6 1.6-10.3c0-19-9.2-25.5-9.2-25.5S60.6 3.9 47.9 4.5 26 15.1 26 15.1L19 46a46 46 0 0 0 10 17.3" style="fill:#ffd2b1"/><path d="M20.1 8.3c-10.3.2-15.8 9-16 14.5 0 3.1-1.3 26.2 11.5 26.6 5 .2 8.9-5.7 10.8-12.4 2.4-8.5 2.3-17 2.6-19.2.5-3.7 1.2-6.3 1.2-6.3s-1.3-3.4-10-3.2m55.3-3.5c11.3.4 15.1 5.4 16.2 8.3 1.2 3.2 2.3 14.5.5 22-1.4 6.2-3.6 9.3-8.6 9.1-4.7-.2-7-6.9-10.5-16-3.4-8.8-6-16.6-6.4-17.8-.6-1.5-1.8-2-1.8-2s2.3-4 10.6-3.6" style="fill:#865b52"/><path d="M62.7 27.7c-5.6.3-8.3 6.5-7 12.7 1.2 6.7 5.6 9.9 11.1 9.2 6-.8 7.9-7.7 7.1-13-.7-4.7-3.4-9.4-11.2-9" style="fill:#d27856"/><path d="M69.2 39c0 3-1.6 5.4-4.2 5.3-3.5-.1-4.4-3.2-4.3-5.8 0-3 1.9-4.5 4.5-4.4 2.3 0 4 2 4 4.9m-29.3 1.6c0 3-1.7 5.6-4.2 5.5-3.5 0-4.4-3.3-4.4-6 .1-3.2 2.3-4.5 4.3-4.4 2.3.2 4.3 1.9 4.3 5m13.3 16.9s6.1-.6 5.9-5c-.3-4.5-4.5-4.8-7.7-4.7s-7.9 1.7-7.4 5.5 5.8 4.2 5.8 4.2 0 2.7-1.9 3c-2 .2-4.8-2.9-5.5-3.6s-2-.5-2.4 0-.2 2.1 1 3.3 4 4.3 6.9 4c2.8-.3 2.9-1.8 4-1.9s1 1.7 3.9 1.6c2 0 6-3.5 6.6-4.2q2.4-2.2 1.4-3.7c-1-1.5-2.7.4-3.7 1.2-1.1.8-2.8 2.6-4.5 2.9-2.7.5-2.4-2.6-2.4-2.6" style="fill:#060401"/><path d="m78.2 51-2.4 5.3c-1.4 2.8-3.3 5.2-3.3 5.2s2.2 14.9 15 13.6c4.7-.5 8.2-4 8.5-8 .6-6.4-1.9-9.4-5.7-12.4-6.2-4.8-12-3.7-12-3.7m-9 23.2c-2.3 2.1-1 6 2 6.5s4.6-2.1 4.4-4c-.4-3-3.8-4.9-6.4-2.5m-29.9-3.9s-2 5.5 2.2 12.5c1.8 3 5.9 4.6 8.7 4.5q4.6 0 8.1-4.1c3.8-4.6 2.7-12.4 2.7-12.4s-6 2.4-11.3 2.3a25 25 0 0 1-10.4-2.8M32 112.7c-1.5-.4-2 1.8-2.2 3.3s0 3.3 1.2 3.8c1.4.5 1.1-2.3 1.2-3.3.3-1.7 1.3-3.3-.2-3.8m5.8.9c-1 0-1.8.8-2 3.4 0 2.1 0 4 1.3 4 1.6.2 1.1-2 1.2-3.7 0-1 1.3-3.7-.5-3.7m22.4 2.8c-1.5 0-1.5 1.6-1.5 3.3s-.4 3.9 1.2 4c2 .3 1.6-2.3 1.6-3.7 0-1.3.2-3.6-1.4-3.6m6.4-.4c-1.1.3-1 1.8-1 3.7s-.2 3.9 1.4 3.7c1.4-.1 1.3-2.3 1.2-4 0-1.5.2-3.7-1.6-3.4m19.4-12.2c-1-.2-2.1.6-2.4 2.8-.2 2-.1 3.6 1.5 4 .9.1 1-2 1-3.6 0-1.3 1-3-.1-3.2m5.3 1.2c-1-.2-1.9.4-2.1 2.7-.2 1.4-.7 3.8 1 3.9 1.3 0 1.2-2.1 1.4-3.2.2-1.8 1.2-3.2-.3-3.5" style="fill:#d27856"/></svg>