<svg xml:space="preserve" width="16" height="16" viewBox="0 0 128 128"><path d="M4 4h120v120H4z" style="fill:#fff"/><path d="M24.7 4.2v119.6M44.4 4.2v119.6M64 4.2v119.6M83.7 4.2v119.6M103.3 4.2v119.6" style="fill:none;stroke:#b0bec5;stroke-width:1.9931;stroke-miterlimit:10"/><path d="M123.8 24.7H4.2m119.6 19.6H4.2M123.8 64H4.2m119.6 19.7H4.2m119.6 19.6H4.2" style="fill:none;stroke:#b0bec5;stroke-width:2;stroke-miterlimit:10"/><path d="M5.1 123v-6.2l26.8-48.5 23.7 22L119.4 5h3.5l.1 5.2L56.6 99 33.5 78 8.4 123z" style="fill:#e53935"/><path d="M122 6v116H6V6zm2-2H4v120h120z" style="fill:#b0bec5"/></svg>