<svg xml:space="preserve" width="16" height="16" viewBox="0 0 128 128"><linearGradient id="a" x1="82.2" x2="82.2" y1="49.9" y2="88.5" gradientTransform="translate(0 2)" gradientUnits="userSpaceOnUse"><stop offset=".6" style="stop-color:#e0bb95"/><stop offset="1" style="stop-color:#cca47a"/></linearGradient><path d="M86.6 90.9q-.3 0-.5-.2c-.5-.4-.4-2.6-.4-3.3a5 5 0 0 0-1-2.8q-.6-.5-1-.5h-.1l-.1.1q-.9.5-.7 1.8 0 1-.2 1.7-.3.4-.6.3-.7 0-1-.9v-.3c0-.4-.2-1-.1-2.6q0-2.7 1-5.3l.2-.2-5.4-19.3-2-6.9c.7-.4 2.5-1.2 4.4-1.2q3.1 0 4.5 3.3 2 5.3 2.7 13.7a63 63 0 0 0 1.4 9.8c.3 1 .4 1.3 1.7 4 .7 1.5.4 3 .1 4.6l-.3 1.7c-.2 1.3-1.7 2.5-2.6 2.5" style="fill:url(#a)"/><linearGradient id="b" x1="45.8" x2="45.8" y1="49.9" y2="88.5" gradientTransform="translate(0 2)" gradientUnits="userSpaceOnUse"><stop offset=".6" style="stop-color:#e0bb95"/><stop offset="1" style="stop-color:#cca47a"/></linearGradient><path d="M41.4 90.9c-1 0-2.4-1.3-2.6-2.5q0-1-.3-1.7c-.3-1.7-.6-3.1 0-4.6 1.4-2.6 1.5-3 1.8-4l.3-.8c.2-.8.8-4.5 1.2-9 .4-5.7 1.3-10 2.6-13.7q1.3-3.3 4.5-3.3c2 0 3.7.8 4.5 1.2l-2.1 6.9-5.4 19.3.1.2a14 14 0 0 1 1 8.2c0 .6-.6 1-1 1q-.5 0-.5-.4-.2-.8-.2-1.7.2-1.3-.8-1.8h-.2q-.4 0-.9.4-1 1.1-1 2.8c0 .7 0 3-.5 3.4z" style="fill:url(#b)"/><path d="m70.7 121.4-5.1-35q-.3-1.2-1.6-1.3c-1.3-.1-1.4.5-1.5 1.2l-5.2 35.1-6.2.2-1-46h27.8l-1 46z" style="fill:#7c7c7c"/><path d="M74 124h4.5c.8 0 1.4-1 1.1-1.8A6 6 0 0 0 74 118a6 6 0 0 0-5.6 4.5q-.3 1.4 1.2 1.6zm-20 0h-4.5c-.8 0-1.4-1-1.1-1.8A6 6 0 0 1 54 118a6 6 0 0 1 5.6 4.5c.3.8-.4 1.6-1.2 1.6z" style="fill:#424242"/><path d="M64.3 4c-18.2 0-18 16.8-18 17 0 11 .8 26.4 5.1 32.4 1.7 2.4 5 2.5 5 2.5h15.1s3.4 0 5-2.5c4.5-6 5.3-21.4 5.3-32.3 0-.3.6-17-17.5-17" style="fill:#ab872f"/><radialGradient id="c" cx="64" cy="26.8" r="21.1" gradientTransform="matrix(1 0 0 1.19 0 -3.26)" gradientUnits="userSpaceOnUse"><stop offset=".8" style="stop-color:#bfa055;stop-opacity:0"/><stop offset="1" style="stop-color:#bfa055"/></radialGradient><path d="M64.3 4c-18.2 0-18 16.8-18 17 0 11 .8 26.4 5.1 32.4 1.7 2.4 5 2.5 5 2.5h15.1s3.4 0 5-2.5c4.5-6 5.3-21.4 5.3-32.3 0-.3.6-17-17.5-17" style="fill:url(#c)"/><linearGradient id="d" x1="64" x2="64" y1="41.6" y2="75" gradientTransform="translate(0 2)" gradientUnits="userSpaceOnUse"><stop offset="0" style="stop-color:#651fff"/><stop offset=".7" style="stop-color:#5914f2"/><stop offset="1" style="stop-color:#530eeb"/></linearGradient><path d="M73.7 44.9q-3.6-1-9.6-1H64q-6 0-9.6 1c-7.5 2-9.5 6.5-11.7 12.6l7.4 3.2V78h28V60.7l7.2-3.2c-2.2-6-4-10.6-11.6-12.6" style="fill:url(#d)"/><path d="M64 40.7h-5V46c0 2.4 2 4.4 4.5 4.4h1c2.5 0 4.5-2 4.5-4.4v-5.3z" style="fill:#c48e6a"/><path d="M64 8.4c7.6 0 14.7 5.7 14.7 17.7 0 9.6-6 15.4-11.2 17.2q-1.8.7-3.5.7t-3.5-.7a18 18 0 0 1-11.2-17.2c0-12 7-17.7 14.7-17.7" style="fill:#e0bb95"/><path d="M64.3 4c-18.2 0-18 16.8-18 17q0 5.3.3 11.3h3c-.1-1.3.8-9.3 3.5-9.9 10-2.2 15.5-7.5 15.5-7.5 1.5 3.2 6 6.3 7.7 7.5 1.3 1 1.7 8.2 1.7 10h3.4v-.2q.4-5.9.4-11.1c0-.3.6-17-17.5-17" style="fill:#ab872f"/><radialGradient id="e" cx="64.1" cy="28.6" r="22.1" gradientTransform="matrix(1 0 0 1.214 0 -4.28)" gradientUnits="userSpaceOnUse"><stop offset=".8" style="stop-color:#bfa055;stop-opacity:0"/><stop offset="1" style="stop-color:#bfa055"/></radialGradient><path d="M64.3 4c-18.2 0-18 16.8-18 17q0 5.3.3 11.3h3c-.1-1.3.8-9.3 3.5-9.9 10-2.2 15.5-7.5 15.5-7.5 1.5 3.2 6 6.3 7.7 7.5 1.3 1 1.7 8.2 1.7 10h3.4v-.2q.4-5.9.4-11.1c0-.3.6-17-17.5-17" style="fill:url(#e)"/><path d="M67.7 36c-1.4.8-6 .8-7.4 0-.8-.5-1.6.2-1.3 1 .4.7 2.9 2.3 5 2.3 2.2 0 4.6-1.6 5-2.3.3-.8-.5-1.5-1.3-1" style="fill:#6d4c41"/><path d="M65.7 32.4h-3.4q-.4.2-.3.7c.1.5.8 1.2 2 1.2s1.9-.9 2-1.2q.1-.5-.3-.7" style="fill:#c48e6a"/><circle cx="56.8" cy="28.3" r="2.2" style="fill:#5d4037"/><circle cx="71.2" cy="28.3" r="2.2" style="fill:#5d4037"/><path d="M68 24.3c.4-.5 1.4-1.3 3.2-1.3s2.8.8 3.2 1.3q.3.4 0 .7-.1.3-.8.2-.5-.3-2.4-.5-1.8.2-2.4.5-.5.1-.8-.2zm-14.4 0c.4-.5 1.4-1.3 3.2-1.3s2.8.8 3.2 1.3q.3.4 0 .7t-.8.2q-.6-.3-2.4-.5-1.8.2-2.4.5-.6.1-.8-.2z" style="fill:#ab872f"/></svg>