<svg xml:space="preserve" width="16" height="16" viewBox="0 0 128 128"><path d="M64.7 4.1C11.5 4.1 12 53.4 12 54.1c0 21.5 1.1 48.9 5.7 69.9h92.8a355 355 0 0 0 5.7-69.8c0-.8 1.9-50-51.4-50" style="fill:#232020"/><path d="M64 19.6c-22.3 0-43 16.6-43 51.8a52 52 0 0 0 32.7 50.5q5.6 2 10.3 2 4.6 0 10.2-2A52 52 0 0 0 107 71.5c0-35.3-20.7-51.9-43-51.9" style="fill:#70534a"/><path d="M19 121q.8 1.6 1.9 3h7c-.6-9.8-2.3-33.7-2.5-46.4C25.3 73.8 24 59.8 32 58c29-6.5 45.4-21.9 45.4-21.9C81.8 45.4 95.2 54.5 100 58c3.9 2.8 3.4 14.5 3.3 19.5L99.6 124h7.7l2-3c3.8-8 4-66.8 4-66.8S114.4 8 64 8 14.8 54.2 14.8 54.2s.4 59 4.1 66.7" style="fill:#232020"/><radialGradient id="a" cx="64.4" cy="46.5" r="64.7" gradientTransform="matrix(1 0 0 -1.214 0 137.93)" gradientUnits="userSpaceOnUse"><stop offset=".8" style="stop-color:#444140;stop-opacity:0"/><stop offset="1" style="stop-color:#444140"/></radialGradient><path d="M64.7 4.1C11.5 4.1 12 53.4 12 54.1c0 10.1.2 21.5 1 33h8.7c0-3.9 2.6-27.3 10.5-29 29-6.6 45.5-22 45.5-22C81.8 45.4 95.2 54.5 100 58c4 2.8 5.6 24 5.5 29h9.6v-.2c.7-11.3 1-22.6 1-32.7 0-.7 1.9-50-51.4-50" style="fill:url(#a)"/><path d="m69 87.2-.5-.2h-9l-.4.2q-1.4.5-1 2c.5 1 2.3 3.5 5.9 3.5s5.5-2.5 5.8-3.5 0-1.7-.8-2" style="fill:#33251f"/><ellipse cx="42.9" cy="75.2" rx="6.3" ry="6.5" style="fill:#1a1717"/><ellipse cx="85.1" cy="75.2" rx="6.3" ry="6.5" style="fill:#1a1717"/><path d="M52.3 63.5c-1.2-1.6-4-4-9.4-4s-8.2 2.4-9.4 4q-.7 1.2 0 2c.3.4 1.3.9 2.4.5s3.3-1.5 7-1.5 5.8 1.1 7 1.5q1.7.4 2.4-.5t0-2m42.2 0c-1.2-1.6-4-4-9.4-4s-8.2 2.4-9.4 4q-.7 1.2 0 2c.3.4 1.3.9 2.5.5s3.3-1.5 7-1.5c3.6 0 5.7 1.1 6.9 1.5q1.7.4 2.4-.5t0-2M74.8 97.7c-4 2.4-17.5 2.4-21.6 0-2.3-1.4-4.7.7-3.8 2.8s8.3 7 14.6 7 13.6-4.9 14.5-7-1.3-4.2-3.7-2.8" style="fill:#1a1717"/><radialGradient id="b" cx="64" cy="51.4" r="61.8" gradientTransform="matrix(1 0 0 -1.19 0 137.78)" gradientUnits="userSpaceOnUse"><stop offset=".8" style="stop-color:#444140;stop-opacity:0"/><stop offset="1" style="stop-color:#444140"/></radialGradient><path d="M110.6 124a358 358 0 0 0 5.6-69.6c0-.8 1.9-50.1-51.5-50.1-53.3 0-52.9 49.3-52.9 50 0 21.4 1.1 48.6 5.6 69.6z" style="fill:url(#b)"/></svg>