<svg xml:space="preserve" width="16" height="16" viewBox="0 0 128 128"><path d="M114.1 70.8c-1.8-26-19.7-44.5-50.1-44.5S15.7 44.8 13.9 70.8a39 39 0 0 0 17 36.2s12.3 9.9 33.1 10.1C84.8 117 97 107 97 107a39 39 0 0 0 17.1-36.2" style="fill:#ffc022"/><path d="M54.1 45c1.1 1 3.4.8 4.8-.7 1.6-1.9 3.3-8.2 2.2-18q-7 .5-13.2 2c3.3 5.5 4.1 15 6.2 16.7m19.8 0c-1.2 1-3.4.8-4.8-.7-1.6-1.9-3.3-8.2-2.2-18q7 .5 13.2 2c-3.3 5.5-4.1 15-6.2 16.7" style="opacity:.47;fill:#ff7043"/><path d="M16.4 60.2C11 23.3 25 8 31.7 4.7q3.4-1.6 6.1.6c3.2 2.7 1.6 12 10 23" style="fill:#ffc022"/><path d="M25.4 44.5C24.2 46 23 44.7 23 43a41 41 0 0 1 6.7-25.5c1.1-1.5 3.5-1 3.9.8a38 38 0 0 0 4.8 12.9q.9 1.5-.5 2.6a45 45 0 0 0-12.5 10.8" style="fill:#ffd1d1"/><path d="M111.6 60.2C117 23.3 103 8 96.3 4.7c-2.1-1-4.4-1-6.1.6-3.2 2.7-1.6 12-10 23" style="fill:#ffc022"/><path d="M102.6 44.5c1.2 1.4 2.3.2 2.4-1.6a41 41 0 0 0-6.7-25.5 2.2 2.2 0 0 0-3.9.8c-.7 3.6-2.1 8.7-4.9 12.9q-.7 1.5.6 2.6a45 45 0 0 1 12.5 10.8" style="fill:#ffd1d1"/><path d="M56 69c0-2.9 4-4.3 8-4.3s8 1.2 8 4c0 2.9-4.8 6.7-8 6.7-3 0-8-3.6-8-6.4"/><path d="M86.8 68.8a11 11 0 0 1-10.6-9.2q-.7-4.6 1.8-8.3a10 10 0 0 1 8.5-4.6c5.2 0 9.7 3.9 10.6 9.2q.9 4.5-1.7 8.3a10 10 0 0 1-8.6 4.6" style="fill:#fffde7"/><path d="M86.6 48.2c4.4 0 8.3 3.3 9 8q.7 3.8-1.4 7.1a9 9 0 0 1-7.4 4 9.4 9.4 0 0 1-9-8q-.7-3.8 1.4-7.2a9 9 0 0 1 7.4-4m0-3q-1 0-2 .3c-6.7 1.1-11 7.6-9.8 14.4a12.4 12.4 0 0 0 14 10.3c6.6-1.2 11-7.6 9.8-14.5-1-6-6.2-10.4-12-10.4" style="fill:#ef6c00"/><path d="m40.6 68.8-1.8-.2q-4.2-.8-6.8-4.4a11 11 0 0 1-1.7-8.3 11 11 0 0 1 12.4-9c5.7 1 9.6 6.6 8.5 12.7a11 11 0 0 1-10.6 9.2" style="fill:#fffde7"/><path d="m40.9 48.2 1.5.1q3.7.7 5.8 3.8 2.2 3.3 1.5 7.2A9.4 9.4 0 0 1 39.1 67c-5-.8-8.2-5.8-7.3-11 .8-4.6 4.6-8 9-8m0-3c-5.7 0-11 4.4-12 10.5a12.3 12.3 0 0 0 11.8 14.7c5.8 0 11-4.4 12-10.5A12.3 12.3 0 0 0 41 45.2" style="fill:#ef6c00"/><path d="M66 80.6h-4c0 2.8-1.2 4.8-3.2 7-2.8 3-5.5 6.6-5.5 12 0 8 4.8 12.6 10.7 12.6s10.7-4.7 10.7-12.6c0-5.4-2.6-8.9-5.5-12q-3-2.9-3.2-7"/><path d="M64 70v19.8" style="fill:none;stroke:#000;stroke-width:4;stroke-linecap:round;stroke-miterlimit:10"/><path d="m108.7 83.2 14.5 1.7m-17.7-15.6 14.1-14.5M108 75.4l16.5-6.1M19.3 83.2 4.8 84.9m17.7-15.6L8.4 54.8M20 75.4 3.5 69.3" style="fill:none;stroke:#9e9e9e;stroke-width:3;stroke-linecap:round;stroke-miterlimit:10"/><path d="M105 87.3q0 1.5-.4 3.2c-1.6 7.7-3 13.9-.5 21.5q2 6.3 5.6 12H84.4s-6.2-26.7-7.6-33.7c-2.4-12 14.2-23.3 24-14.9 3.6 3 4.6 7.5 4.3 11.9" style="fill:#ff9b17"/><path d="M81.1 91.7c-2.3-11.2 8.4-18.8 19-15.1.9.2 2.2.9 2.3.8.4-.2-.7-1.3-1.5-2-10-8.4-26.5 2.8-24 15 1.3 7 7.5 33.6 7.5 33.6h4.3c-1.2-5.2-6.3-26.3-7.6-32.3" style="fill:#ef6c00"/><path d="M23 87.3q0 1.5.4 3.2c1.6 7.7 3 13.9.5 21.5a54 54 0 0 1-5.6 12h25.3s6.2-26.7 7.6-33.7c2.4-12-14.2-23.3-24-14.9-3.6 3-4.6 7.5-4.3 11.9" style="fill:#ff9b17"/><path d="M46.9 91.7c2.4-11.2-8.3-18.8-19-15.1-.9.2-2.2.9-2.3.8-.4-.2.7-1.3 1.5-2 10-8.4 26.5 2.8 24 15-1.3 7-7.5 33.6-7.5 33.6h-4.3z" style="fill:#ef6c00"/></svg>