<svg xml:space="preserve" width="16" height="16" viewBox="0 0 128 128"><path d="M120.8 12.5s-.4-.8-2.3-.5c-2 .4-6.4 3.7-7.8 11.9s-2.7 33.4-1.8 35c1.8 3.1 5.4 5.6 5.4 7.3.1 1.3-.3 31.4-.6 33.5s-1.8 8-2 9.5.7 2.6 1.6 2.7l6 .2zM21.6 49l-.5-21c0-.8-.4-1.9-1.6-1.8q-1 .4-1 1.6v17.9c0 1.6-2 1.3-2 0v-18q0-1.4-1.2-1.4-1 0-1.3 1.3c-.2 1.9-.2 17.1-.2 18.2 0 1.4-1.7 1.4-1.7-.1V27.6c0-.7-.3-1.5-1.1-1.4q-1.2.2-1.2 1.3l-.7 18C9 47 7.3 47 7.3 45.4l.5-17.7c0-.7-.3-1.6-1-1.6Q5.5 26 5 27.8c-.3 1.3-.6 8.7-1 13-.1 2.3-1.2 12 0 14.5 1.6 3.6 4.8 4.3 4.8 4.3s-.6 35.7-.9 38c-.4 3.4-2.3 8.2-2.1 10.7q.2 2 2.3 2.2c1.5 0 4.3.4 5.1.2.4-.1.5-22.2.5-22.2l.3-34.7z" style="fill:#9c9c9c"/><path d="m6.1 51 15.5 2s0 2.9-1.3 4.5c-1.6 2-3.5 2.3-3.5 2.3s-.2 36.9.1 39.5 2.6 8.9 1.9 10.2-2.2 1.5-5.4 1.4c-3.5-.1-4.5 0-4.6-2.4-.1-2.3 2-6.6 2-9.5.2-3 .5-40.8.5-40.8s-3.7-.4-5-3.6C5 52 6 51 6 51m112.4 11.2-5-1s3.4 2.7 3.4 5c.1 2.1.2 33-.1 35-.3 1.8-3 8.9-1.8 10.1.8 1 3.6.7 5.1.7s2.8 0 3.5-1c.6-.9.3-3.4 0-5.2l-1-5-1-41.9z" style="fill:#c8c8c8"/><path d="M120.3 12.3c-1.4 0-4.7 1.5-6.5 8a98 98 0 0 0-2 21.8c-.5 13 0 17 .5 17.3l6.6 3 2.6-3.5-.4-43.5c0-1.8.2-3.1-.8-3M5.7 49v3.3c0 .3 6.3.8 8.8.9s7.1-.3 7.1-.3v-4z" style="fill:#e0e0e0"/><path d="M7.1 55.1c2 .5 6.4-1.4 5.7-2-.7-.9-7-1.5-7.1-.9S6 55 7 55.2m9.6 53c.5-1 0-3.9-.2-5.4s-.4-2.7-1-2.6q-.7 0-.6 2c0 1.2.1 3.2-.4 3.7s-2.2 1.4-2 2.4 1.4.9 2.3.8q1 .1 1.9-1m104.5-4.1c-.6 0-.6 1-.6 2.1q0 1.7-.8 2.3c-.5.3-1.8 1-1.7 1.6q-.1 1 2.5.7c1.8 0 1.8-1.3 1.7-2.6s-.2-4-1-4m-9-45.1c-.5.3 1 2.1 2.7 3.6s2.5 2 4.3 1.9 2.8-5 1.6-5.4c-1-.5-1.4 1.3-2.9 1.6-1.4.2-4.8-2-5.7-1.6" style="fill:#fdfdfd"/><path d="m27 50.5 75-2.5s12 22-4.1 44.2c-15.9 21.7-49.2 19.2-64 1.5-16.6-20-7-43.2-7-43.2" style="fill:#d4d4d4"/><path d="M64 23.9C40 24 25.7 40.5 25.3 62.2A41 41 0 0 0 66 104.3c25.2 0 39.3-20.4 39.5-42A40 40 0 0 0 64 24" style="fill:#f6f6f6"/><path d="m36.9 62.8 2.2-6.3s6.2-18.3 25.7-18.2c18.3 0 25 17.4 25 17.4l2 6.7 1.2-3.8-2.6-9-8.8-10.3-14.8-4.6-12.4 1.8-10.2 6.4-6.7 10.4z" style="fill:#d5d5d5"/><path d="M64.7 92.5c-16 0-28.4-11.9-29.5-28.5A28 28 0 0 1 43 42.7c5.6-6 13.5-9.3 21.7-9.2a28.7 28.7 0 0 1 29.2 31.2 29 29 0 0 1-28.5 27.8zM64.4 36a27 27 0 0 0-19.6 8.4c-5 5.3-7.5 12.2-7 19.4A27 27 0 0 0 65.2 90c14.2-.3 25.2-11 26-25.4A26.3 26.3 0 0 0 64.7 36z" style="fill:#fff"/></svg>