<svg xml:space="preserve" width="16" height="16" viewBox="0 0 128 128"><path d="M119.6 71c-.4-3.4-2-3.1-3.5-1.9 0 0-12.7 13-15.7 15.2-2.6 2-1.4 3.8 0 4.6l2 1c-3.9 5-11.3 10.8-25.2 12.8-1.6.3-3-1-3-2.5l-3.3-41.1 12.8-2.2a3.7 3.7 0 0 0 0-7.3L70 47.3l-1-14.1a15 15 0 1 0-9.3 0l-1 14L45 49.7a3.7 3.7 0 0 0 0 7.3l13 2.2-2.7 41.5c0 1.6-1.5 2.8-3 2.6a38 38 0 0 1-26.4-14l2.4-1.7c1.5-.7 2.7-2.6 0-4.5-3-2.2-16.6-13.9-16.6-13.9-1.5-1.2-3.2-1.6-3.5 2-.4 3.2-.6 12.3 2 22.1.3 1.5 1 2.2 3.3 1.5l4.6-1.5c8.4 16 23.4 30.8 46.3 30.8A52 52 0 0 0 111 93.4l4.1 1.3c2.3.7 3 0 3.4-1.4 2.6-10 1.4-19 1-22.2M57.4 19a6.9 6.9 0 1 1 13.8 0 6.9 6.9 0 0 1-13.8 0" style="fill:#82aec0"/><path d="m57.6 21.2-.2-2.2a7 7 0 0 1 6-6.9h.4q1.6-.2 1.6-1.5c0-1.3-1-1.3-1.5-1.4a9 9 0 0 0-8 4 8 8 0 0 0-1 7.7q.6 1.4 1.6 1.3t1.1-1" style="fill:#2f7889"/><path d="M64.3 113.4s-4.7-9-12.1-10.2A40 40 0 0 1 26 89.6l-.4-.2-10.1-12.9s8.4 33.8 48.7 37" style="fill:#94d1e0"/><g style="opacity:.89"><path d="M77 113c-8 2.3-11.2 11-11.2 11s8-.3 15.3-2.9c14-5 24-16 29.9-27.7 0 0 2.5-6.9 3-12.1 0 0-5.3 22.5-37 31.7" style="fill:#2f7889"/></g><path d="M41.8 52.9h20.8c.6 0 1-.8.5-1.2l-4.4-4.4-13.8 2.3a4 4 0 0 0-3 3.3" style="fill:#94d1e0"/><path d="M86.8 53.6 66.5 53c-.6 0-1 .8-.5 1.2l5 5L83.7 57a4 4 0 0 0 3-3.3" style="fill:#2f7889"/></svg>