<svg xml:space="preserve" width="16" height="16" viewBox="0 0 128 128"><path d="M103.7 62.7c-.2-2.4-2.8-4.7-7.3-6a115 115 0 0 0-64.8 0q-6.9 2.1-7.2 6v50.1c-.2 2.8 3 5.8 10.2 7.8 7.5 2.2 17.6 3.5 29.4 3.5s21.9-1.4 29.4-3.5 10.6-5.3 10.2-8.2zm-79.3.7h79.3" style="fill:#e2a610"/><path d="m71.9 108.2-4.5-10.5a7.7 7.7 0 1 0-7.1-.3l-4.2 11c-.5 1.3.5 2.8 2 2.8H70c1.5 0 2.5-1.6 1.9-3" style="fill:#4e342e"/><path d="M71.5 107.3h-15l-.4 1c-.6 1.4.5 2.9 2 2.9H70c1.5 0 2.5-1.6 1.9-3zM61 95.4q.2-.8-.5-1.4a6 6 0 0 1-2-2.5c-1.8-4.4.4-6.4.4-6.4a7.6 7.6 0 0 0 1.4 12.3zm8.5-10.1s2.2 4.4-.4 7.3a7 7 0 0 1-2 1.7 1 1 0 0 0-.6 1.4l1 2a8 8 0 0 0 4.3-7c0-3.2-2.3-5.4-2.3-5.4" style="fill:#9e740b"/><path d="M94.7 56a113 113 0 0 0-61.4 0c-9.2 2.6-10 9.2 2.9 12.7 7 2 16.6 3.2 27.8 3.2s20.8-1.2 27.9-3.2c12.9-3.5 12-10.1 2.8-12.7" style="fill:#fdd835"/><path d="M91.2 42.2s-.4 1.7-5.3 1.7-3.8-1.7-3.8-1.7v-6C82 25.2 75.5 15 64 15c-9.4 0-17 8.1-17 18.2v29S44.7 64 41 64s-5.2-1.7-5.2-1.7v-29C35.8 17 48.5 3.9 64 3.9s27.2 14.8 27.2 32.3z" style="fill:#84b0c1;stroke:#84b0c1;stroke-width:1.9584;stroke-miterlimit:10"/><path d="M41.2 32.2c-.4 2-1 6.5-2.5 6.3-1.2 0-1.4-2.6-1.4-4.6s.6-8.2 3-14c1-2.1 4.8-8 8.5-6.2 2.5 1.3-1 5.7-2.5 7.5-2 2.4-4.2 6.7-5 11" style="fill:#b9e4ea"/><ellipse cx="85.7" cy="61.8" rx="6.4" ry="3.3" style="fill:#9e740b"/></svg>