<svg xml:space="preserve" width="16" height="16" viewBox="0 0 128 128"><radialGradient id="a" cx="103.9" cy="92.4" r="21.6" gradientUnits="userSpaceOnUse"><stop offset="0" style="stop-color:#fff"/><stop offset=".1" style="stop-color:#fef8ef"/><stop offset=".3" style="stop-color:#fdeed9"/><stop offset=".5" style="stop-color:#fde7c9"/><stop offset=".7" style="stop-color:#fce3bf"/><stop offset="1" style="stop-color:#fce2bc"/></radialGradient><path d="M112.8 105.5s4.7-7.8 5.3-11.1 1.3-9 .6-9-3.4 5.4-3.8 5.2c-.5-.3 2.2-9 2-12-.4-3.1-2.3-8.5-2.7-8.2s-3.1 8.7-4.3 10.7l-4.3 7S97 89 92 91.4c-5 2.3-14.1 8-14 9.2.2 1.3 14.1 1.7 18.3 1.5s8-1.5 8-1.5-6.7 4-6.4 4.8 5 1.3 8.3 1.3c3.2 0 6.5-1.1 6.5-1.1" style="opacity:.8;fill:url(#a)"/><linearGradient id="b" x1="53.4" x2="101" y1="39.6" y2="100.1" gradientUnits="userSpaceOnUse"><stop offset="0" style="stop-color:#ae7237"/><stop offset=".2" style="stop-color:#b0753a"/><stop offset=".4" style="stop-color:#b67d44"/><stop offset=".5" style="stop-color:#bf8b55"/><stop offset=".7" style="stop-color:#cd9f6c"/><stop offset=".8" style="stop-color:#dfb98b"/><stop offset=".9" style="stop-color:#f5d8b0"/><stop offset="1" style="stop-color:#fce2bc"/></linearGradient><path d="M104.5 57.8a156 156 0 0 0-44.2-39.3C35 2.2 9.8 1.5 6.5 4.7 4.8 6.2 4 9 4.7 14.7a24 24 0 0 0 6.8 14.5c1 1 3.4 2.3 6.1 3.3 4 1.6 7.1 1.6 7.1 2.7s-3 2-5.8 1.6a32 32 0 0 1-5.7-1.6l7 8.2s4.2-.3 6.6-.8 5.7-2.3 6.2-1-1.9 2.4-4 3.4-5.5 1.6-5.5 1.6 17 13.7 21.4 19 19.6 22 23.7 24.6c4 2.5 7.2 5.2 14.5 5s27.7.1 27.7.1-.4-14.3-.4-20-3-13.8-5.8-17.5" style="fill:url(#b)"/><path d="M89.2 60.3s-2-5.7-1.1-8.7 4.5-6.4 4.5-6.4 5.6 6.6 6.8 10.8c1.7 6 1 9-1 13-2.6 4.8-13.7 6-19.6 4.8-3.4-.6-9.7-3-9.7-3s5.6-8.2 10.7-10 9.4-.5 9.4-.5M71.5 27.2s-2.5 1.8-3 6.7c-.4 3.2.8 7.4.8 7.4s-4.9-.1-9.4 1.7c-6.9 2.8-10.1 8.6-10.1 8.6s5 2.4 10.6 3.2c3.7.6 10 .5 15.8-3.2l4.1-2.4s1-9.6-1.7-14.6c-2.9-5.5-7.1-7.4-7.1-7.4" style="fill:#6f4838"/><path d="M57.9 31s1.1-3.9-.6-7.8c-1.6-3.9-6.8-9.1-6.8-9.1s-2.7 4.7-3.3 7c-.8 3.2 1.7 7.3 1.7 7.3s-4.6.7-7.4 2.7c-6.4 4.3-7.2 10.4-7.2 10.4s8.6-1 13.2-2.3c6.6-1.8 10.6-5.2 10.6-5.2zM37.8 20.9s-2.5 3.2-8.1 4c-4.3.7-11.6.8-11.6.8s2.8-4 5-6.5 7.3-2.5 7.3-2.5-3.1-4.5-3-5.8 1.1-4 1.1-4 4.3 1.6 6.7 6 2.6 8 2.6 8" style="fill:#734b42"/><linearGradient id="c" x1="109.8" x2="48" y1="118.5" y2="31.5" gradientUnits="userSpaceOnUse"><stop offset=".1" style="stop-color:#cecece"/><stop offset=".3" style="stop-color:#a69c99"/><stop offset=".5" style="stop-color:#84706b"/><stop offset=".7" style="stop-color:#6b504a"/><stop offset=".8" style="stop-color:#5c3d35"/><stop offset=".9" style="stop-color:#56362e"/></linearGradient><path d="M123 121.6c1-.4 1-2 1-3.2s-15.3-37-28.6-53.6C83 49.2 64.7 36.5 55.8 29.8c-14.6-11-45.5-23.4-47.5-24s-3 .3-1 1.6 22.4 8.4 47 25c20 13.3 29.5 23.8 36.7 34.2s16 25.6 19 32.8l7.9 18.8c.7 1.7 3.7 3.9 5.2 3.4" style="fill:url(#c)"/></svg>