<svg xml:space="preserve" width="16" height="16" viewBox="0 0 128 128"><path d="M24.8 39.5a29 29 0 0 1-16.5-11l-1-1.4a2 2 0 0 1 .5-3l2.9-2.2c1-.7 2.4-.5 3 .5l1.1 1.5c3.5 4.7 9 7.8 14.8 8.2l4 .3-.6 8-4-.2zm0 0a29 29 0 0 1-16.5-11l-1-1.4a2 2 0 0 1 .5-3l2.9-2.2c1-.7 2.4-.5 3 .5l1.1 1.5c3.5 4.7 9 7.8 14.8 8.2l4 .3-.6 8-4-.2z" style="fill:#874d36"/><path d="M10.7 22c-.9.5-1.3.8-2.3 1.6-1.3.9 2.3 5.8 6.1 8.4 1.4 1 5.7 1.6 6.3-.9q.2-1-.4-1.7-1-1.1-2.3-2a20 20 0 0 1-3.3-3.5l-1-1.5c-.7-1-2.2-1.2-3.2-.5" style="fill:#de7340"/><path d="M25.3 31.3c1.3 2 2 5.4 2 7.8l3.3-2.9c-.7-3.5-1.3-4.1-1.3-4.1z" style="fill:#4e342e"/><path d="m31.8 44.6-.5-4A42 42 0 0 0 14.1 12l-1.3-1a2.3 2.3 0 0 1-.6-3.3L14.1 5a2.4 2.4 0 0 1 3.4-.6l1.3 1a50 50 0 0 1 20.5 34.2l.5 4zm0 0-.5-4A42 42 0 0 0 14.1 12l-1.3-1a2.3 2.3 0 0 1-.6-3.3L14.1 5a2.4 2.4 0 0 1 3.4-.6l1.3 1a50 50 0 0 1 20.5 34.2l.5 4z" style="fill:#874d36"/><path d="M19.4 51.9s21.7 52 76.5 70.4a3 3 0 0 0 3.9-3.6l-5.7-23q-.2-1.6 1.3-1.9c9.8-.9 18-2.7 23.3-4.1a3 3 0 0 0 .9-5.4C79.3 57.5 56.5 21.7 56.5 21.7a5 5 0 0 0-7.2-.8L20 44.7c-3 2.4-.7 7.2-.7 7.2m20.5-4a5.6 5.6 0 1 1 8.7-7 5.6 5.6 0 0 1-8.7 7" style="fill:#f44336"/><path d="M39.7 44.1h-1c-1-.4-1-1.9-1.4-2.8q-.9-1.5-2.1-2.8-1.4-1.6-3.2-2.2-1-.3-1.7 0v-1.6A7 7 0 0 1 33 31q1.4-1 3-1.6 1.7-.4 3 .5 3 1.5 4.8 4.2c1.6 2.4 2.6 5 .3 7.3q-1.4 1.5-3.3 2.3z" style="fill:#874d36"/><path d="M35.5 30.7q2-.5 3.7.2c.5.2 1.5 1.1 1.5 1.8 0 1.1-1 2-2 2.7q-1.6 1.3-3.3.4c-1-.5-3.7-1-3.4-1.9.4-1.4 2.2-2.7 3.5-3.2M11.8 9.4s.3-.8 1-1c.8 0 5 2.4 9 6.6 2.7 2.8 7.6 10 8.4 10.4q.8.5 1.8.2c1-.4 1-1.6 1-2.6-.5-3.8-2.8-6.6-5.2-9.5a50 50 0 0 0-9-8.2l-1.4-1q-1.6-1.2-3.3.4S11.2 8 11.8 9.4" style="fill:#de7340"/><path d="m65.4 68.5 7.1 3.2 6.7-4-.9 7.8 5.9 5-7.7 1.6-3 7.2-3.8-6.8-7.8-.7 5.3-5.7zm0 0 7.1 3.2 6.7-4-.9 7.8 5.9 5-7.7 1.6-3 7.2-3.8-6.8-7.8-.7 5.3-5.7z" style="fill:#fcebcd"/></svg>