<svg xml:space="preserve" width="16" height="16" viewBox="0 0 128 128"><path d="M5.4 74.6c0-.2 5-29.3 30.8-27 15 1.3 25.5 11.5 25.6 26.6 0 5.3.3 14.5-.2 18.6-1.8 17.6-7.7 28.5-8.5 28.7-4.2 1-41.4 3.3-44.1-2.3-6.3-12.8-5-35.6-3.6-44.6" style="fill:#ab872f"/><linearGradient id="a" x1="1210.8" x2="1210.8" y1="123.5" y2="110.9" gradientTransform="matrix(-1 0 0 1 1241.64 0)" gradientUnits="userSpaceOnUse"><stop offset="0" style="stop-color:#530eeb"/><stop offset="1" style="stop-color:#651fff"/></linearGradient><path d="M27 111.1h7.6c8.7-.6 21.6 3.3 24.5 12.9H2.6c3-9.6 15.8-13.5 24.5-12.9" style="fill:url(#a)"/><path d="M30.6 117.8c-3.8 0-6.8-3-6.8-6.8v-4.5h13.6v4.5c0 3.8-3 6.8-6.8 6.8" style="fill:#c48e6a"/><path d="M37.5 55.6C25.4 54.1 13 61.8 10.6 81a28 28 0 0 0 14.5 29.6q2.9 1.4 5.5 1.7 2.5.3 5.6-.4a28 28 0 0 0 21.2-25.2c2.4-19.2-7.7-29.6-19.9-31" style="fill:#e0bb95"/><path d="M36.6 94.2h-.2l-5-.7h-.2q-.7.3-.6 1.1c.2.6 1 2 3 2.3s3-1 3.4-1.5q.3-.8-.4-1.2" style="fill:#c48e6a"/><path d="M29 80.2c-.5-1-1.9-2.4-4.8-2.8s-4.6.8-5.4 1.5q-.4.6-.1 1.1.2.5 1.3.5 1-.5 3.8-.4 2.9.7 3.7 1.3 1 .3 1.4-.1t.1-1M52.2 83c-.5-.9-1.9-2.3-4.8-2.7s-4.6.7-5.4 1.5q-.4.7-.1 1 .2.7 1.3.5c.6-.1 1.9-.6 3.8-.3 2 .2 3.2 1 3.7 1.3q1 .2 1.4-.2.5-.3.1-1" style="fill:#ab872f"/><ellipse cx="46.3" cy="88.8" rx="3.6" ry="3.5" style="fill:#5d4037" transform="rotate(-83 46.34 88.83)"/><ellipse cx="23.1" cy="86" rx="3.6" ry="3.5" style="fill:#5d4037" transform="rotate(-83 23.13 85.98)"/><path d="M39.1 100.3A18 18 0 0 1 27.4 99c-1.2-1-2.6 0-2.3 1.3.4 1.2 4 4.3 7.5 4.7 3.4.5 7.7-1.7 8.4-2.8.6-1-.5-2.4-1.9-1.8" style="fill:#6d4c41"/><path d="M36.2 47.6c-25.8-2.3-30.7 26.8-30.8 27-.6 4.2-1.3 11.4-1.2 19.2l7.3.5c-.2-4 2.9-19.1 9.4-19.6 16.3-1.2 23.7-8.6 23.7-8.6 1.7 5.4 8.4 11.2 10.8 13.5 2 1.8.8 11.6.4 14.4h5.7l.1-1.1c.4-4.2.3-13.4.2-18.7-.1-15.1-10.5-25.3-25.6-26.7" style="fill:#ab872f"/><radialGradient id="b" cx="33.7" cy="88.6" r="30.7" gradientTransform="rotate(2.8 640.87 103.58)scale(1 1.341)" gradientUnits="userSpaceOnUse"><stop offset=".8" style="stop-color:#bfa055;stop-opacity:0"/><stop offset="1" style="stop-color:#bfa055"/></radialGradient><path d="M61.8 74.2C61.7 59 51.3 48.9 36.2 47.5 10.4 45.3 5.5 74.4 5.4 74.6c-1.3 8.4-2.6 28.9 2.4 42 5.4-4.2 13.3-6 19.3-5.5h7.5c6.5-.5 15.4 1.6 20.6 6.7a82 82 0 0 0 6.4-25c.4-4.1.3-13.3.2-18.6" style="fill:url(#b)"/><path d="M78.4 3.7C68 3.7 64 14.5 64 14.5S60.2 3.7 49.6 3.7c-8 0-17.1 6.4-13.7 20.7C39.2 38.8 64 56.7 64 56.7s24.7-18 28.1-32.3-5-20.7-13.7-20.7" style="fill:#ef5592"/><path d="M48 4.8c8.2 0 12.3 8.9 13.7 12.5.1.5.9.5 1 0l1.3-2.8A15 15 0 0 0 49.6 3.7c-3.4 0-6.9 1.1-9.6 3.5q3.8-2.4 8-2.4m30.4-1.1q-3.8.1-6.5 1.9 2-.8 4.2-.8c7.8 0 14.8 6 11.7 19.6C85 36 69.3 50.4 64.4 55.8c-.3.3-.4.9-.4.9s24.7-18 28.1-32.3S86.4 3.7 78.4 3.7" style="fill:#da2e75"/><path d="M41.4 11.4c1.8-2.3 5-4.2 7.8-2 1.4 1.1.8 3.5-.5 4.5-2 1.5-3.6 2.4-4.8 4.7q-1 2-1.3 4.4c-.1.6-1 .7-1.2.2-2-3.6-2.6-8.5 0-11.8M70.3 16q-1.4-.2-1.1-1.5.9-2.3 2.2-4.1c1.3-1.9 3.8-3 5.4-1.8s1.4 3.4.3 4.5c-2.5 2.4-5.6 3-6.8 3" style="fill:#f386ab"/><path d="M122.6 74.6c0-.2-5-29.3-30.8-27-15 1.3-25.5 11.5-25.6 26.6 0 5.3-.3 14.5.2 18.6 1.8 17.6 7.7 28.5 8.5 28.7 4.2 1 41.4 3.3 44.1-2.3 6.3-12.8 5-35.6 3.6-44.6" style="fill:#3c2c23"/><linearGradient id="c" x1="97.2" x2="97.2" y1="123.5" y2="110.9" gradientUnits="userSpaceOnUse"><stop offset="0" style="stop-color:#9900e6"/><stop offset="1" style="stop-color:#a0f"/></linearGradient><path d="M101 111.1h-7.5c-8.7-.6-21.6 3.3-24.5 12.9h56.5c-3-9.6-15.8-13.5-24.5-12.9" style="fill:url(#c)"/><path d="M97 117.8c-3.8 0-6.8-3-6.8-6.8v-4.5h13.6v4.5c0 3.8-3 6.8-6.8 6.8" style="fill:#7a4c32"/><path d="M90.5 55.6c12.1-1.5 24.5 6.2 26.8 25.4a28 28 0 0 1-14.4 29.6q-2.9 1.4-5.5 1.7a17 17 0 0 1-5.6-.4 28 28 0 0 1-21.3-25.2c-2.3-19.2 7.8-29.6 20-31" style="fill:#a56c43"/><path d="M91.4 94.2h.2l5-.7h.2q.7.3.6 1.1c-.2.6-1 2-3 2.3s-3-1-3.4-1.5q-.3-.8.4-1.2" style="fill:#875334"/><path d="M99 80.2c.5-1 1.9-2.4 4.8-2.8s4.6.8 5.4 1.5q.4.6.1 1.1-.2.5-1.3.5-1-.5-3.8-.4-2.9.7-3.7 1.3-1 .3-1.4-.1a1 1 0 0 1-.1-1M75.8 83c.5-.9 1.9-2.3 4.8-2.7s4.6.7 5.4 1.5q.4.7.1 1-.2.7-1.3.5c-.6-.1-1.9-.6-3.8-.3-2 .2-3.1 1-3.7 1.3q-1 .2-1.4-.2a1 1 0 0 1-.1-1" style="fill:#42312c"/><ellipse cx="81.7" cy="88.8" rx="3.5" ry="3.6" style="fill:#42312c" transform="rotate(-7 81.63 88.8)"/><ellipse cx="104.9" cy="86" rx="3.5" ry="3.6" style="fill:#42312c" transform="rotate(-7 104.84 85.95)"/><path d="M88.9 100.3c2.4 1 9.7.2 11.7-1.4 1.2-1 2.7 0 2.3 1.3-.4 1.2-4 4.3-7.5 4.7s-7.7-1.7-8.4-2.8c-.6-1 .5-2.4 1.9-1.8" style="fill:#473530"/><path d="M123.7 94.4c.2-8-.4-15.5-1.1-19.8 0-.2-5-29.3-30.8-27-15 1.3-25.5 11.5-25.6 26.6 0 5.3-.3 14.5.2 18.6l.1 1.1H72q-.5-4 0-8c1.6-9.9 15.3-7.4 27-19.8 0 0 4.2 5.5 13 11.3 5.4 3.5 4.6 13 4.4 17z" style="fill:#3c2c23"/><radialGradient id="d" cx="1153.8" cy="88.6" r="30.7" gradientTransform="rotate(177.1 621.5 -28.15)scale(1 -1.342)" gradientUnits="userSpaceOnUse"><stop offset=".8" style="stop-color:#554138;stop-opacity:0"/><stop offset="1" style="stop-color:#554138"/></radialGradient><path d="M66.2 74.1c.1-15 10.5-25.3 25.6-26.6 25.8-2.2 30.7 26.8 30.8 27.1 1.3 8.4 2.6 28.9-2.4 42a29 29 0 0 0-19.3-5.5h-7.5a28 28 0 0 0-20.6 6.7 82 82 0 0 1-6.4-25c-.4-4.1-.3-13.3-.2-18.7" style="fill:url(#d)"/></svg>