<svg xml:space="preserve" width="16" height="16" viewBox="0 0 128 128"><path d="M12.2 51.3c10-4.1 26.1 1.8 29.4 1.2 3.3-.5 3.8-3 9.4-3s9.9 3.7 9.9 3.7 1.6-1.4 4.7-1.5c3.6-.2 8.1 2.4 11.8 5.4C81 60 85.2 64 89 64.5s7.5.7 11-5 .8-14.4-.4-17.2-5-7.6-5-7.6v-7l5.9 2.8s8.6 6.6 11.8 10.6 12.3 15.3 8.1 35c-4.1 19.9-15.6 23-15.6 23l13.4.5 4.7 2.3s-1.4 3.4-4.5 5.2c-3.3 1.8-8.7 4.5-18.1 2.2s-62.3-2-62.3-2-4 5-12.9 5.3c-8.8.4-13-1.2-13.3-2.5s3-3.4 3-3.4l9.6-2L33 99 14.5 75.3l-8.3-7.6s-1.4-4.9.4-10.3a9 9 0 0 1 5.6-6m86.2-17.6s6.5-6.7 7-13.7c.3-6.4-1.7-8-2.6-7.6-.8.3-1.5 2.5-3 4s-5.4 4.3-6.5 5.8-.5 5-.5 5-4-1.2-6.6-.3-5 3.7-6.7 4.3c-1.8.7-4.4 1-4.4 2s5 4 11 4 12.3-3.5 12.3-3.5m4.8 21.7s-3.8-1-5.5 1.9c-1.8 3 .3 6 .3 6z" style="fill:#6ba4ae"/><path d="M74.7 77.7c.6 1.7-.4 3.6-2.2 4.3s-3.8-.2-4.4-1.9.4-3.4 2.2-4.2c2.1-1 3.8.1 4.4 1.8" style="fill:#2e302f"/><path d="M5.6 64s2.2-1.4 5.2-1.4S19 64 24 65.8s21 9 24.4 10.7a48 48 0 0 0 15.6 5S51.2 71.2 38.8 65.4s-19.4-8.7-27.6-8.6c-5.2.1-4.7.7-4.7.7s-1 3.8-1 6.4" style="fill:#fee9c6"/><path d="M8.2 66.1a66 66 0 0 1 16.4 3.5c6.3 2.4 16.7 7.5 22 9.5S67 85.7 75.9 90.9s13.1 11.2 16 13.5l6.1 4.7s-18.7 11.2-41.8 6.4-32.2-23.2-34-25.6-6.1-10.3-8-12.4-7-7.8-8-9.8C5.4 65.8 8.3 66 8.3 66m80.2 24.6c-1.1.3-1 3 5.3 6 6.3 3.1 15 3.6 20.4 3.6s8 2.8 8.7 1.6c.7-1-1-3.5-7.5-4-5.6-.5-11 .2-17.4-2.2-7.5-2.9-7.9-5.5-9.5-5m-58.6 8.5s-4.9 4-8.5 4.7-7.2 1.2-9 3.1-.6 3.2-.6 3.2 1.6-2.1 4.7-2.5 7.7-1.3 9.9-2.5l7.4-4.4z" style="fill:#a5d0d6"/><path d="M61.9 87.1s.3 3.3 6.4 8.5c6 5.1 14.4 7.2 17.6 9.3 3.2 2 7.5 6.5 7.5 6.5l1.9-1s-4.6-5.2-9.2-7.9c-3.6-2.1-10-4.3-14-7-4-2.6-6-4.3-7-5.4-.8-1.1-3.6-4.4-3.2-3m3.9 15.3c7.2 4.2 9.3 3.5 13.9 5.4s6.9 6 6.9 6l2.6-.9s-3.8-5.7-9-7.5c-5.2-2-11.6-3.2-14.9-6-3.2-2.8-6.1-7.5-9.9-12S49.7 82 50 82.9s3 4.4 5 7.6 5.5 8.8 10.8 12m-43-18.7c4.6 6.3 7.8 5.9 12.1 11.6s6.7 11.2 8.4 13.1 3.7 3.9 6.6 5l5.2 1.8s-6.4-.1-11.7-3.7c-5.3-3.5-6.4-9.5-10.3-14.5-2.8-3.7-5-5.3-7.5-7.3-4.7-3.8-7-8.7-8.4-11.6-2.4-5.2-7-9-5.5-8.5s3.5 2.7 5.3 5c2.6 3.5 3.6 6.1 5.8 9m-.3-11.1s.4 6.3 5.2 11 9.2 3.6 12 7.2 4.3 13.4 10 18c5.8 4.4 7.2 2.4 12.4 4.3 5.1 1.9 5 3.7 5 3.7l3.2-.1s-1.5-3.6-6.7-5.3c-5.1-1.7-8.3-.9-12.3-4.8-4-3.8-6.3-12.6-9.5-17-3.2-4.3-9.7-4.3-12.8-7.7-4.4-5-6-11-6.5-9.3m24.4 16.1c3 3.9 3.2 10.3 8.2 15s10.6 4.2 14.5 5.9 8 6.4 8 6.4l3.2-.7s-2.8-3.6-9.7-7.5c-6-3.2-9.5-1.3-13.9-5.4-4.4-4-4.5-10-8.4-15-3.8-5-8.9-5.5-11.9-7.1-2.6-1.4-6.4-7.6-5.7-5.2.4 1.5 1.9 5 4.9 7.2s7.6 2.4 10.8 6.4" style="fill:#dbecf7"/></svg>