<svg xml:space="preserve" width="16" height="16" viewBox="0 0 128 128"><path d="M32.1 27.9c.8-2-1.6-9-4-9.2-2.7-.4-6.3 5-6 11 .3 4.2 9.2.2 10-1.8m.9 46.7s-1.5 2.8-4.2 4.3c-2.7 1.6-9.4 4.8-9.4 4.8l3 4.7 19-2.3S37.8 69.9 33 74.6M44.7 45 51 34.4s1.9 8.8 3 11.2 3.5 7 5.8 7.7S67 52 75 56s17 15.5 17.6 26.6-2 13.4-.7 15c1.3 1.8 8.3 0 9.8-6.1s-.4-15-3.3-21.3c-3-6.3-7-12.6-3.6-22.2s15.2-12.8 21-11.8 8.1 3.6 8.2 7c.1 8.5-10.9 5.5-10.7 14.8.1 9.3 8.6 19 7.3 32-1.4 13.9-11.1 21-24.5 21.8a77 77 0 0 1-24.5-2.9l-8.9-39.7-17.4-12.6z" style="fill:#865b52"/><path d="M59.3 55.9c0 3.4 12.7 7.5 18.4 13.5 10.5 11 9.7 23.7 11.6 22.2.4-.3 2.9-13.2-7.6-25.4a34 34 0 0 0-22.5-10.3" style="fill:#fee5c1"/><path d="M12 83.7s-4 4.4-.9 8.6c3.6 4.8 10.6 1 10.6 1z" style="fill:#c49166"/><path d="M12.4 81.2s-2.7 3.5.4 7.7c3.2 4.3 6.1 6.6 10 6.1 3.7-.5 4.9-2.8 5-5.5s-15.4-8.3-15.4-8.3" style="fill:#ad3421"/><path d="M17.2 78c-2 0-4.4 1-5.3 3.8-1.1 3.7 2 6.3 2.8 7.2s2.2 2 4.7 2 6.7-4.7 6.7-4.7-.4-3.6-3.3-6a8 8 0 0 0-5.6-2.3" style="fill:#d97755"/><path d="M11.2 88.5q-.4 1.9.6 2.3c1 .4.5-1 .7-1.7s.2-1.7-.3-1.8c-.7-.2-1 .7-1 1.2m2.2 2.8c0 1-.2 1.8.5 1.8s.6-1 .6-1.6q.2-1.2-.1-1.7c-.7-.5-1 .6-1 1.5" style="fill:#865b52"/><path d="M34.5 92.3s-.4 4 2 7.5c2.3 3.4 5.5 5.8 5.3 6.1s-4 .9-9 1.3-7 .1-8.5 1.6c-1.6 1.5-3.9 4.8-2.1 6s8 .7 10.1.5l7.6-.8s-2.9 3-1.3 4.3 5.6 1 8.5 1c2.9-.2 15.6-.9 20.9-1s9.5.2 10.8-2c1.3-2.1-.5-3.4-.5-3.4s6.9-3 6.8-15.4-4.9-22-14.8-30c-7.5-5.8-15.3-7.6-19.4-14s-3.4-9.2-3.4-9.2 4-5.2 4.3-11.2-.5-12.8-4.3-13.5c-2.6-.6-6.6 2.8-8.7 6.3-2 3.4-7.1 10.9-7.1 10.9l-1 29 6.9 14.1s-.6 1.7-1.4 2c-.9.5-9.5 0-11.2.2-1.7 0-6 1.4-6.1 4.3-.2 2.5-.2 2.6 2 3.1 2.1.5 13.6 2.4 13.6 2.4" style="fill:#c49166"/><path d="M19.2 85.8c0 .5 1.4.4 2.6 0s2.9-.5 2.8-1.3c0-.7-1.8-.6-2.8-.2-1.3.6-2.6.8-2.6 1.5m4.3 1.5c0 .8-1.4.6-2.3.9-.8.1-2.3.6-2.3 0 0-.8 1.2-1 2.1-1.2s2.5-.6 2.5.3" style="fill:#865b52"/><path d="m38.5 92.7 9-3L55 78.2l5.3 4.1s-3.6 3.8-4 7.3c-.6 4.6.6 9.4 2.6 12.3l5.4 7.7s-3.6.9-7.6.2a26 26 0 0 1-13.6-8 19 19 0 0 1-4.6-9.2" style="fill:#fdc397"/><path d="m53.5 77.2 2.2 1.6s-2.5 8.4-9.1 12.2c-4.6 2.6-9.2 2.6-18 1.3-7.2-1-8.9-2.4-9.4-2.8-.6-.5.9.4 3.2.6s9.3 1.2 12 1.4 6.8-.2 9.8-1.9a20 20 0 0 0 7-7.5c1-1.7 2.3-5 2.3-5m-28.8 32.7c-.5-.3-1.4 1.2-2.2 2.5-.5 1-1 2.1-.4 2.5s1.4-1.3 1.9-2.1 1.7-2.5.7-3m.7 2.5c-.7 1-1.8 2.9-1.2 3.3s1.7-1.3 2.3-2.2 1.8-2.5 1.1-2.9-1.6.8-2.2 1.8m17.1 1.8c-.9-.2-2.2 1.2-2.7 2.2s-.7 2.9-.2 3.2c.8.5 1-1.7 1.8-2.8.6-.8 2.3-2.2 1.1-2.6m0 2.8c-.5 1.4-.6 3 0 3.2.9 0 .9-1.5 1.5-2.8s2.1-2.6 1.5-2.9-2.1.4-3 2.5" style="fill:#865b52"/><path d="M40 59a12 12 0 0 1 4.6 4.5L42 67.9c-1.4 2.1-2.7 8.3-3.1 10-1 4-2.7 4.6-2.7 4.6l-3-5c-.9-1.5-2.4-5.1-3-5.3s-6.5 2.1-10.4 2.5c-4.2.3-7.3-2.1-7.3-2.1l-3.1-4.2 2.2-4.6 5.6-3.7 14-4.2s4.3.5 8.7 3" style="fill:#fdc397"/><path d="m34.9 46.9 1-1.7S34.2 40 35.4 35c1.2-5.2 3-8 3-8s-8.2-3.3-19.6 4.8S8.2 51 8 54s-.4 4.7-1.5 5.6q-2.8 2.6-2.2 4.5c.2 1.3 4.8.4 4.8.4l2.5-.7 12.7-7.6z" style="fill:#9f7157"/><path d="M45.6 27.3c-.6-.1-3.8 2.8-4.7 6.3-1.1 4.3-.5 7.2 1.7 7.6 2.2.5 4-3 4.4-5.6.6-2.6 0-8-1.4-8.3" style="fill:#ffd2b2"/><path d="M7.3 62.8c-1.7.2-3.3.6-3 1.9s1.8 2.6 2.3 3.1 2.8.6 2.8.6 2.8-3.9 2.8-4.7c0-1.3-1.8-1.3-4.9-.9" style="fill:#f69c9c"/><path d="M36 45.2c-.2-.8-11.3-1.4-15.4 3.5-3.7 4.4-2.7 7.7-3.9 9.5-2 3.1-3.8 4.7-3.6 4.8.1.3 2.2-.5 4.4-1.1 2-.6 4.4-.2 6.7-.2 2.7 0 7.4-.5 10-5 3-5.3 2-9.9 1.7-11.5" style="fill:#ffeac6"/><path d="M23.7 52.2c-1.2 1-1.6 3-1.1 4.4a4 4 0 0 0 4.4 2.5c3.4-.4 4.4-4.2 2.8-6.5-.8-1.3-3.4-2.8-6-.4" style="fill:#100d0f"/><path d="M8.4 67.6s2.4-5 3.8-3.7c1 .8-1.5 4.5-1.5 4.5s1.6 2.8 3.7 3c2 .1 4.4-1.7 5-2.1s1.6-1.4 2.5-1 1.1 1.2-.1 2.4c-1.1 1-5 3.7-8.4 2.7-2.8-.8-4.9-3.4-5.8-4-.9-.8-4.2-3.2-3.2-4.3.7-.7 4 2.5 4 2.5" style="fill:#494949"/></svg>