<svg xml:space="preserve" width="16" height="16" viewBox="0 0 128 128"><path d="M116 4H12a8 8 0 0 0-8 8v104a8 8 0 0 0 8 8h104a8 8 0 0 0 8-8V12a8 8 0 0 0-8-8" style="fill:#427687"/><path d="M109.7 4H11.5A7.6 7.6 0 0 0 4 11.5v97.9c0 4.1 3.3 7.5 7.5 7.5h98.1c4.1 0 7.5-3.3 7.5-7.5V11.5c0-4-3.1-7.4-7.2-7.5z" style="fill:#8cafbf"/><path d="M98.9 41.4q5.3 0 8.4-.3a2 2 0 0 1 2.2 1.8v6.9a2 2 0 0 1-2 2h-.1l-8.4-.2h-8c-1 0-2 .9-1.9 2v1.6c0 26.7-5.9 41.7-29.5 52.7q-1.2.4-2.2-.3l-5.7-5.4a2 2 0 0 1 .6-3.2c17.7-7.1 26-16.6 26-43.1v-2.2c0-1-.8-2-1.9-2h-24a2 2 0 0 0-2 2v13.8c0 3 .2 6.1.3 8.1a2 2 0 0 1-1.9 2.1h-7.5a2 2 0 0 1-2-2.1c.2-2.1.4-5.1.4-8.1v-14a2 2 0 0 0-2-2h-8.4l-8.9.2c-1 0-2-.8-2-1.9v-7.1a1.8 1.8 0 0 1 2.1-1.9q3.5.4 8.8.5h8.4a2 2 0 0 0 2-2v-10q0-3.7-.3-6.3.1-1.8 1.9-2.1h7.5a2 2 0 0 1 1.9 2.2q-.3 3-.3 6.3v10.1q.2 1.8 2 2h23.9c1 0 2-.9 1.9-2V29.2q0-3.5-.3-7 .1-2 2-2.2h7.5q1.7 0 2 1.8l-.1.3q-.4 3.5-.4 7v10.2c0 1 .8 2 1.9 2z" style="fill:#fafafa"/><path d="M39.7 12.9c0-2.3-1.6-3-10.8-2.7-7.7.3-11.5 1.2-13.8 4s-2.9 8.5-3 15.3c0 4.8 0 9.3 2.5 9.3 3.4 0 3.4-7.9 6.2-12.3 5.4-8.7 18.9-10.6 18.9-13.6" style="opacity:.5;fill:#b4e1ed"/></svg>