<svg xml:space="preserve" width="16" height="16" viewBox="0 0 128 128"><path d="M32.7 59.8c-.4-.4-26-6-26-6s-1.4 2.3-1 3.8c.2.7 5.8 7.2 11.6 13.2 4.5 4.7 9.6 9.5 10.4 12.3 1.1 4.2 1.3 11 1.3 11l-16.7 10.1s2 10.4 15.2 10c12.4-.4 13-13.5 17-13.5.6 0 1.5-.3 3.2 1.5l14 15.2c3.5 3.4 5.9 6.8 7.1 6.7 1.3-.2 12-9.8 15.1-12.7 3.1-3 6-6.5 6-9.5s-4.4-5.2-4.4-5.2l-24.1 2.9zm70.9-38.2c.4 0 11.2-5.3 11.2-5.3s5.5 11.1-1.6 17.4c-7 6.4-8.6 2.8-12 6.5-2.6 2.9-1.3 8.8-1.3 8.8L121 69s1.2 2.1.3 3.7c-.6 1-7.6 9-13 14.6-2.5 2.6-6 3.4-7.8 3-4.7-1.1-5.4-4.8-6.2-11.3-.9-6.4-6.5-6.3-8.5-6-4.3.6-7 3.1-7 3.1S53.3 46 53.6 45s1.3-7.2-1.7-9.8-8.8-4-11.1-5.6-2.5-4.5-2.1-7.4 18.6-2.8 18.6-2.8S88.8 36.7 89 36s14.6-14.4 14.6-14.4" style="fill:#b0b0af"/><radialGradient id="a" cx="62.2" cy="-28.3" r="119.2" gradientUnits="userSpaceOnUse"><stop offset=".5" style="stop-color:#b7d118"/><stop offset=".6" style="stop-color:#b2d019"/><stop offset=".6" style="stop-color:#a5cd1d"/><stop offset=".7" style="stop-color:#8fc922"/><stop offset=".8" style="stop-color:#70c22a"/><stop offset=".9" style="stop-color:#48ba34"/><stop offset=".9" style="stop-color:#18b040"/><stop offset="1" style="stop-color:#02ab46"/></radialGradient><path d="M88.1 25c.8-2.8 0-9.6 5.2-14.1s13.6-4 18.6.7 5.7 13.7-.1 19.6c-6 5.9-8.6 2.6-12 5.8-3.2 3.1-2.6 5.7-.6 7.7 2 1.9 22.3 23 21.7 24.4s-14.4 17-16.6 18c-2.3 1.2-6.2 1.1-7-2.6s.5-11.2-5.1-13.1c-5.7-2-8.2-.4-13.7 5.5s-8 12.3-3.5 15.6 10.2 2 12.4 5.8-1 7.3-7 12.9c-6 5.5-10.7 10-11.5 9.5s-18-18.8-19.7-20.7c-1.7-2-5-3.7-8.1-.7-3.2 3-3.7 12.5-17 12.5S9 97.4 13.7 91.4 29 84.8 29.2 80.7c.1-1.8-5.6-6.9-10.8-12.3a124 124 0 0 1-12-13.9C6 53 19 40.2 21.6 38.3s5.3-.6 6.7.8c1.4 1.5 1.7 6 2.8 8.6 1.2 2.6 6.5 14 19.3 1C63 36 51 30.4 47 29.3s-7-1.5-8.2-5.7c-.9-3.2 4-7 9.3-12S56.3 4 57.7 4s19.6 19.5 22 21.8 3.8 2.8 5.5 2.4c1.7-.5 2.6-2 3-3.2" style="fill:url(#a)"/></svg>