<svg xml:space="preserve" width="16" height="16" viewBox="0 0 128 128"><path d="M38 10.6c-2.8 0-4.3 4.3-7 9.8-2.5 4.9-8.2 15.5-9.5 17.2-1.3 1.8-4.7 3-5.1 4s26.5.1 26.5.1L58 40s-2-1.7-4-4.2c-1.6-2-8-13.5-10.5-18.2-1.6-3-3-7-5.6-7" style="fill:#f687a9"/><path d="M19.9 47s-4.6-2.7-4.3-4.6c.2-1.5 3-2.4 3-2.4l39.3-.2s3.3 1.6 3.3 3.3c0 1.8-4.3 4.1-4.3 4.1l-1.5-3.8H22.3z" style="fill:#ef5593"/><path d="M38.4 58.8c-1 0-2 .4-2.1 1.7s.8 2 1.8 2.1c1 0 2-.6 2-1.7 0-1-.6-2-1.7-2" style="fill:#fea62d"/><path d="M39.9 43.8c-1.7-.3-1.7 1.5-1.7 1.5s-2.3-.2-3.9 2-1.4 6.2-2 7.4-2.6 2.5-2.6 2.9 1.6 1.7 8.1 2.2c6.6.4 8.5-.2 8.6-.7s-1.7-1.9-1.9-3.2.6-5.4-.3-7.5c-1-2.4-3.2-2.8-3.2-2.8s.4-1.5-1.1-1.8" style="fill:#feb804"/><path d="M32.7 53.5s2.2.6 5.5.8l6.3.2V56l.7 1.4s-3.2.1-7-.2c-4-.4-7-1-7-1s1-1 1-1.4z" style="fill:#fea62d"/><path d="M57 42.6s-37.3 0-37.3.2l-.1 3.3 6.7 22.6H53l4-22.8zM47.5 66H29.4s-.1-10.5.5-14.6c.5-3 3-6.8 9-6.8s8 4.5 8.5 7c.4 2.3.1 14.4.1 14.4" style="fill:#bfb5b3"/><path d="M19.5 70.7V46h2.6l2 25.4zM57 70V46h-2.4l-2.1 25.3z" style="fill:#5f4d4e"/><path d="M22.1 70.8V46h7.4s-1.8 2.7-1.9 5.7L27.4 68l22.6-.2-.3-17c-.2-2.6-2.3-4.8-2.3-4.8h7.2v25.7z" style="fill:#ebe7e6"/><path d="m8.3 85.8-4.5-1L15.1 70H113s11.3 14.1 11.2 14.3c0 .2-.4.6-.4.6l-93.1 2.6z" style="fill:#f687a9"/><path d="M8.5 87.8v5.4l14 29.5h96c1.2 0 1.6-1.3 1.6-2V88.3l-9-1.9-56.4.3-15.7-14-17.7 14z" style="fill:#c0b5b1"/><path d="m8.5 93.2-.1 29.6c0 .5 9.6-.8 9.6-.8l2.1-5.3 24-7.2 20.6 12.7-3.5-21.8-2.7-2.3-40.1.8-3.8 3.6-3.5-9.2zm111.5-.7h-3.5l-4 20.6 4.5 5.5h3.1z" style="fill:#5f4d4e"/><path d="M11.1 93.3h5l-.3 26.7-4.6-.9zm7.3 24.9V98.9l19.8-18.3L58.5 98v21H19.8zm42.6.4V92.4h56.2v26.2s-56.3.2-56.3 0" style="fill:#ebe7e6"/><path d="M93.2 116.2c.1.3 11.6.1 11.9 0s.1-15 .2-16.5c0-2-1.7-5.8-6-5.7s-6 3.3-6 5.5c-.1 2-.2 16.4 0 16.7m-7 0H74.5c-.3-.2-.1-13 0-16.2 0-2 1.5-6 5.8-6s6 3.7 6 5.8.3 16 0 16.4" style="fill:#a5d0d6"/><path d="m27.9 122.7.3-14.5c0-4 3-8.8 10-8.8a9 9 0 0 1 9.6 9v14.3z" style="fill:#d27856"/><path d="M46.5 109.2c0-3.3-2.4-8.5-8.5-8.6-6.3 0-8.6 5-8.6 8.4l-.1 11.9v.6h17.1v-.6s.2-8.5.1-11.7m-16-.2c.1-2 1.4-6.9 7-7.2v18.5h-7zm14.7 11.3h-6.4v-18.4c4.7.4 6.5 4.6 6.5 7.3z" style="fill:#ae5734"/><path d="M39.8 109.4c-.2.3-.2 5 0 5.1.2.2 1.5.2 1.7 0s.2-5 .1-5c-.1-.2-1.6-.3-1.8 0m-5.1-.1c-.2.2-.1 4.9 0 5 .3.2 1.6.2 1.8 0s.2-5 0-5c-.1-.2-1.6-.3-1.8 0" style="fill:#fac010"/><path d="M10.6 124c2.4.2 11 0 12.6 0s2-1.5 1-3.5a6 6 0 0 0-4.4-3c-2-.3-3.6.6-4 .5s-2-1-4.2-.6a4 4 0 0 0-3.6 4c0 2.1 1.6 2.6 2.6 2.7m40.7-1.9c0 1.3 2.3 1.4 8.4 1.4 6.1.1 8 .3 8-3s-2-4.8-4-4.8c-1.9 0-3.3.8-4 1-.6 0-1.6-1.5-4.1-.7-2 .6-4.4 4.2-4.3 6M25.5 99c-.6-.2-2-.2-3.7 2.2-1.2 1.8-1 4.2-.8 4.3s2.5-.3 3.8-1.7 1.4-4.3.6-4.7m-.4 12.7c.6 0 2-2 1.8-4.4s-1.7-3.8-2.2-3.7c-.4 0-1.5 1.2-1.5 3.4 0 2.9 1.5 4.7 1.9 4.7M51.3 100c-.2.4-1.3 3 .6 5.2 1.7 2 2.3 2.8 2.8 2.8s1-3.6.2-5.4c-.8-1.7-3.5-2.9-3.6-2.6m-.1 13.2c.4-.1 1.4-2.6 1.5-4.5.2-2.6-1-4.4-1-4.4s-2.7.6-2.7 4.2c0 3.7 1.9 4.8 2.2 4.7" style="fill:#709923"/><path d="M30 89.6c-1 .7-1.6 3.2-.4 4.8a3 3 0 0 0 4.2.7c1-.8 1-3.6.1-4.8s-3-1.6-4-.7m15-.4c-1.4.1-3.2 2.4-2.4 4.4s3.6 2 4.5 1.6c.9-.6 2-2.3 1.5-3.8-.3-1.1-2.3-2.3-3.6-2.2" style="fill:#ffb1d1"/><path d="M44.6 91.3c-.5.4-.7 1.4-.1 1.9q.9.7 1.8 0 .6-.9 0-1.8-.8-.7-1.7-.1m-13.6.1c-.4.4-.4 1.3 0 1.7q1 .7 1.7.1c.5-.4.5-1.4 0-1.8q-.7-.7-1.7 0m6.9-3.8s1.3-.1 2.3.2c1.6.6 2.2 2.4 2 3.2 0 .6-.4 2.3-.4 2.3l-2.2 1.2-2.7-.6-1.9-1.3.1-3zm11.6 6.9-2.5.7-1.3 2.7s-.2 3 2.3 3.9c2.3.9 3.5-.4 3.5-.4l1.3-2.3v-1.7l-1-2.3zm-19.8 4.1s-.9 2.5-3.8 1.8c-3-.7-2.3-5-2.3-5l1.7-1.7 1.7-.3 1.8.4 1.3 1.7-.1 1.6z" style="fill:#f687a9"/><path d="M53.5 97.7a4 4 0 0 0-1.7-3q-1.4-.9-2.9-.6a4 4 0 0 0-1-4.5c-1.4-1.2-4-1-5.2.2q-1 1.1-.9 2.8s-1.3 1.6-3.7 1.3q-1.5-.2-2.2-1.4a3 3 0 0 1 1.4-4.1q1.6-.3 2.5.3c.8.6.8 2 .5 2.6q-.7 1-1.8.7-.5 0-.6-.6 0-.3.3-.5t.6-.1q.3 0 .6-.3-.1-.6-.4-.7c-.1 0-.9-.2-1.5.2q-.5.2-.6 1.3.1 1.3 1.4 1.7c.9.2 2.2 0 2.9-1.3.5-1 .4-3-.8-3.8a4 4 0 0 0-3.4-.4 4 4 0 0 0-2.4 2.8c-.3-.9-1.7-1.9-3.9-1.2-2.5.9-2.6 3.1-2.3 4q-1.6-.6-3 0t-1.9 2.5q-.3 1.6.7 3 .8.8 1.8.8t1.7-.5q1-.8 1-2-.2-1-.8-1.4t-1.2-.2q-1 .5-1 .8s-.3.7 0 1c.5.1.7-.3.8-.3l.4-.5h.5l.2.7q.1.4-.5 1c-.4.4-1.5.5-2.1-.1q-.7-1-.5-2 .3-1.4 1.4-1.9c.9-.4 2.4-.2 3.1.7 1.2 1.5.3 3.7.3 3.7v.5q.4 0 .5-.2s1-1.5.7-3.1q.7.4 1.6.4.7 0 1.5-.4 1.1-.4 1.5-1.6l.2-.6A4 4 0 0 0 38 95h.8c1.6 0 2.7-.7 3.3-1.1q.4 1 1.3 1.5 1.2.8 2.3.8h.5l-.4 1.2a3 3 0 0 0 1 3q1.6 1 3.1.2 1.3-.9 1.2-2.5-.4-1.4-1-1.5-.7-.3-1.5 0-.9 1-.6 1.7s0 .6.6.5.4-.7.4-.7q-.1-.2.2-.6h.4q.4.1.5.8 0 1-.7 1.4-1 .6-2-.2-.8-.6-.6-2 .3-1.7 1.8-2.2a3 3 0 0 1 2.6.3 3 3 0 0 1 1.3 2.3 4 4 0 0 1-1.5 3.5q-.2 0-.2.4.2.2.4 0c.1 0 2.5-1.2 2.3-4M34 93.5q-.2.8-1 1c-1.7.8-3 0-3.6-1.2-.3-.6-.5-2.4 1.6-3.3q2-.6 2.9 1.1.5 1.1.1 2.4m13.6.8c-.6.6-2 1.3-3.8.2q-1-.7-1-1.6-.1-1.7.6-2.4c.8-.9 2.7-1 3.7-.1q1 .8 1 2 0 1.3-.5 1.9" style="fill:#bf077c"/><path d="M8 88.5S3.5 85 3.8 84.8s17.5 0 17.5 0l15.6-14q.8-.9 1.7-1c.9 0 1.7 1 2.3 1.4l15.3 13.5s68-.7 68-.4l-4 4.5h-59s3.8 3 3.6 3.2c0 .2-2.6 4-3 4S38.4 76 38.4 76L15.2 97 12 93l5.2-4.5z" style="fill:#ef5593"/><path d="M68.6 43s4.5-1.6 7 .6c2.7 2.3 2.2 5.1 2.2 5.1l3.1-4s5.4-2 7.5 2.6c2 4.3-1 8.8-4.6 11.8-4.1 3.3-8.9 5-8.9 5l-.2-1.6z" style="fill:#d82e75"/><path d="M76.9 48.7s-1.6-7.8-7.8-5.9c-4.4 1.4-4 7.2-2.4 10.6C69 58.2 75 64.2 75 64.2s4.5-2.9 8.1-6.3c2.5-2.3 7-8.9 2.6-12.4-5-4-8.7 3.2-8.7 3.2" style="fill:#ef5593"/><path d="M68.3 50c.4 0 .7-2.3 2-3 1-.5 2.2-1.1 1.6-2.2-.5-1.1-2.4-.7-3.4.6-1.4 1.9-1.2 4.7-.2 4.6m11.4-1.1c.2.3 1.6 0 2.7-.6.8-.6 1.5-1.6.8-2.1s-1.8-.2-2.4.2c-1 .8-1.4 2-1.1 2.5" style="fill:#f687a9"/><path d="M89.3 12s4.8-1.7 8.5 1.4c3.4 2.9 3.8 6.8 3.8 6.8l5.5-5.5s8.3-2.5 11.4 4.3c3 6.6-2 14.3-7.8 19a50 50 0 0 1-14.3 7.8z" style="fill:#d82e75"/><path d="M99.9 21.5s-2-12.9-12.2-9.2c-7 2.6-6.4 11.3-3.8 16.6 3.6 7.7 12.5 17 12.5 17s7.9-4.6 13.2-9.8c2.4-2.4 6.1-7.2 6.8-11.9.5-2.8 0-6.2-2.8-8.1-8.3-5.8-13.7 5.4-13.7 5.4" style="fill:#ef5593"/><path d="M86.3 23.6c.7 0 1.1-3.6 3.2-4.6 1.7-.9 3.6-1.7 2.6-3.6-.8-1.7-4.2-1.1-5.8.9-2.2 3-1.6 7.5 0 7.3m18.4-2.1c.3.6 2.6.1 4.2-1 1.4-.8 2.4-2.4 1.3-3.3s-2.9-.3-3.7.4c-1.5 1.2-2.3 3-1.8 4" style="fill:#f687a9"/></svg>