<svg xml:space="preserve" width="16" height="16" viewBox="0 0 128 128"><path d="M81.7 75.4V73s-2.9-.2-4.1-.7c-.7-.2-1.5-1.6-1.3-2.9q.3-2 2.6-1.9 2.3 0 5 .5 4.2 1 4.9 1.4c.6.2 1.1 2.6-.1 3.2-.7.3-2.5.4-2.5.4v2.4z" style="fill:#b50d22"/><path d="M5.3 114.4s-.7-3.5 1.7-5.7c2.9-2.7 6.2-3.7 10.1-5.2 3.4-1.3 8.5-2.9 8.5-2.9L36.1 94s4.6-1 13-1c7.1.2 19 1.2 19 1.2s2.6-2.6 6.4-3.1S80 91 80 91l.4-16.3s6.4 0 8.5.2c3.2.4 7 3.6 8.2 4.7l6.1 6.6L107 88s5.2-20.5 6-20.8l6.5-.3c4-.2 6.9 0 7.2.2.3.1-2.6 14-2.6 14l-27.7 36.3s-39.4-1-39.6-1.4-11.4-5.6-11.4-5.6-27.4 3-27.8 3.3-12.2.8-12.2.8" style="fill:#ff2a23"/><path d="m104.6 101.4 16.6-3.4 2.8-17s-7.4 0-13.4 6.9c-5.6 6.6-6 13.5-6 13.5M54.5 92c0 1.5 3 3.6 6 3.7 3.5.1 4.6-.5 4.6-1.8v-3.7l-8.4-1.8s-2.1 1.4-2.2 3.6" style="fill:#b50d22"/><path d="M56.4 88.6s2-1.8 4.4-2.3c2.1-.5 4.2-.4 4.2.3v3.6s-1.2 1.1-4.8.8a5 5 0 0 1-3.8-2.4" style="fill:#ff2a23"/><path d="M50.2 110.5s6.5.5 11.5-1.5c4-1.6 5.7-3.9 8.3-5.2 1.3-.7 4-.6 4-.6l1 11.8-22.3 1.5-2.4-3.5z" style="fill:#cf1a35"/><path d="m112.9 67.2-3.7 22.6-14.5-3.4s1.5-1.8 2-3.3c.5-1.7.4-3.6.4-3.6l8 6.4 2.8-15.7q.4-1.4 2.4-2.6c.9-.4 2.6-.4 2.6-.4m-.2 30.7h8.5s-.4 6.8-1 8.5c-1.1 3-3.4 2.8-3.4 2.8zM2.2 113.3c-.4.2-.5 7-.3 7.1l8 .2s.2-7.3-.8-7.3-6.7-.2-7 0" style="fill:#636866"/><path d="M18 113.4s.3 7.6-.2 7.8-8.4.2-8.7 0c-.3-.1-.1-7.8 0-8 0 0 9 0 8.9.2" style="fill:#b50d22"/><path d="M46.4 114.2h4.2l-3 4.6c-.3.5-.2 1.2 1.2 1.2h44.5l-4.7-6.2H51.4s-.2-2-1-3.7-2.2-3-2.2-3z" style="fill:#636866"/><path d="M72 102.8c-.2.2-.3 10.8 0 11s4.9.2 5 0c.2 0 .2-10.6.1-10.8s-5-.4-5.1-.2" style="fill:#8c1d0b"/><path d="M48.3 108.3c0 8.6-7 15.6-15.6 15.6s-15.6-5.8-15.6-15.6c0-8.5 6.6-15.4 15.6-15.5s15.6 7 15.6 15.5" style="fill:#4c4038"/><path d="M32.7 95.2c-7.3 0-13.3 6-13.3 13.2s6 13.1 13.3 13.1S46 115.6 46 108.4s-6-13.2-13.3-13.2m0 24.4a11.2 11.2 0 0 1-.1-22.4 11.2 11.2 0 1 1 0 22.4" style="fill:#f8a128"/><path d="M32.5 100c-4.5 0-8.2 3.7-8.2 8.2s3.7 8 8.2 8c4.6 0 8.3-3.6 8.3-8s-3.7-8.1-8.3-8.1m0 12.7c-2.6 0-4.7-2-4.7-4.5s2.1-4.6 4.7-4.6 4.7 2 4.7 4.6-2.1 4.5-4.7 4.5" style="fill:#858583"/><path d="M117.8 108.4c0 8.5-7 15.5-15.6 15.5s-15.6-5.8-15.6-15.5c0-8.6 6.6-15.5 15.6-15.5 9-.1 15.6 7 15.6 15.5" style="fill:#4c4038"/><path d="M102.2 95.3c-7.3 0-13.3 5.9-13.3 13.1s6 13.2 13.3 13.2 13.3-6 13.3-13.2-6-13.1-13.3-13.1m0 24.4a11.2 11.2 0 0 1-.1-22.5c6.2 0 11.1 5 11.1 11.2 0 6.3-5 11.3-11 11.3" style="fill:#f8a128"/><path d="M102 100.1c-4.5 0-8.2 3.6-8.2 8.1s3.7 8.1 8.2 8.1c4.6 0 8.3-3.6 8.3-8s-3.7-8.2-8.3-8.2m0 12.7c-2.6 0-4.7-2-4.7-4.6s2.1-4.6 4.7-4.6 4.6 2 4.6 4.6-2 4.6-4.6 4.6" style="fill:#858583"/></svg>