<svg xml:space="preserve" width="16" height="16" viewBox="0 0 128 128"><path d="M71.6 68.6H58.7c0 20.3-4.2 28.5-4.2 28.5h21.3s-4.2-8.2-4.2-28.5" style="fill:#b7d5e5"/><path d="m39.4 98.2.1-2.7s45.3-1.8 48.8 0c0 0 .5 1.6.2 2.7-.8 2.5-11 4.8-24.6 4.8s-24.3-2.2-24.5-4.8" style="fill:#2f7889"/><ellipse cx="64" cy="96" rx="24.6" ry="4.8" style="fill:#b7d5e5"/><path d="M71.6 68.6H58.7q0 10-1 16.1L73 87q-1.3-6.6-1.4-18.4" style="fill:#69a1ba"/><path d="M55.5 91.5S51.8 93 52.6 94c1.3 1.7 5 2.8 13.7 3.4 6.2.4 3.8 2.1-2 2.5-4.1.2-23.6.4-24.8-3.7-1-3.3 13.2-4.8 16-4.8m43.9 15.1h-71q-1.5.1-2.4 1.4l-7.8 10.7c-.7 1 0 2.4 1.2 2.4h89.2c1.2 0 1.9-1.4 1.2-2.4l-8-10.8a3 3 0 0 0-2.4-1.3" style="fill:#eee"/><g style="opacity:.57"><path d="M35.6 111.3h-4.9l.7-1.2h4.9zm7.7 0h-4.9l.6-1.2h5zm7.3 0h-5l.8-1.2h4.9zm7.3 0h-5l.9-1.2h4.6zm7.1 0h-4.9l.4-1.2h4.2zm7.3 0h-4.8l-.6-1.2h4.7zm7.6 0h-5L74 110h5zm7.2 0h-5l-.8-1.2h5zm9.9 0h-7.5l-.9-1.2h7.6zm-3.9 1.9H98l-.9-1.3h-5zm-7.9 0H90l-1-1.3h-4.8zm-7.4 0h4.9l-.8-1.3h-5zm-7.8 0h4.8l-.9-1.3h-4.6zm-7 0h4.8l-.6-1.3h-4zm-7.1 0h4.9l.3-1.3h-4.8zm-7.7 0h4.9l.6-1.3H49zm-8.6 0h5l.7-1.3h-5zm-9.9 0H37l.8-1.3h-7.5zm46.3 2h5l-.8-1.4h-5zm-7.7 0h4.9l-.7-1.4H68zm-9.3 0h5l-.1-1.4h-4.4zm-8.7 0h5l.4-1.4h-4.8zm-9.2 0H46l.7-1.4H42zm-12.4 0h9.8l.8-1.4h-9.8zm55.7 0h14.7l-.9-1.4H83.5zm11.1 1.8h5l-1-1.2h-5zm-9 0h4.8l-1-1.2h-4.8zm-39.2 0h33.3l-.7-1.2H48zm-10.5 0h5l.5-1.2h-4.7zm-9.3 0h4.9l.5-1.2h-4.7z" style="fill:#69a1ba"/></g><path d="M108.7 124H19.3q-1.5-.2-1.6-1.6V120h92.7v2.4q-.2 1.4-1.7 1.6" style="fill:#2f7889"/><path d="M99.4 107.5q1 0 1.7.9l8.2 11.3v.2H18.7v-.2l8.1-11.2q.6-1 1.7-1zm0-1h-71q-1.5.1-2.4 1.4l-8 11.2c-.6.8 0 1.9 1 1.9h90.3c1 0 1.5-1.1 1-2l-8.3-11.2a3 3 0 0 0-2.5-1.3" style="fill:#b7d5e5"/><path d="M113.5 79.7h-99a3.4 3.4 0 0 1-3.4-3.5v-67c0-1.9 1.5-3.4 3.4-3.4h99c1.9 0 3.4 1.5 3.4 3.4v67c0 2-1.5 3.5-3.4 3.5" style="fill:#69a1ba"/><path d="M113.5 77.9h-99a3.4 3.4 0 0 1-3.4-3.5v-67c0-1.8 1.5-3.4 3.4-3.4h99c1.9 0 3.4 1.6 3.4 3.5v67c0 1.8-1.5 3.4-3.4 3.4" style="fill:#b7d5e5"/><radialGradient id="a" cx="46.5" cy="-5.2" r="61" gradientUnits="userSpaceOnUse"><stop offset="0" style="stop-color:#2f7889"/><stop offset="1" style="stop-color:#424242"/></radialGradient><path d="M15.3 9.4h97.5v63.1H15.3z" style="fill:url(#a)"/><path d="M16.4 7h11.2" style="fill:none;stroke:#eee;stroke-width:3.0142;stroke-linecap:round;stroke-miterlimit:10"/></svg>