<svg xml:space="preserve" width="16" height="16" viewBox="0 0 128 128"><radialGradient id="a" cx="63.6" cy="512.9" r="57" gradientTransform="translate(0 -450)" gradientUnits="userSpaceOnUse"><stop offset=".5" style="stop-color:#fde030"/><stop offset=".9" style="stop-color:#f7c02b"/><stop offset="1" style="stop-color:#f4a223"/></radialGradient><path d="M63.6 118.8c-27.9 0-58-17.5-58-55.9S35.7 7 63.6 7c15.5 0 29.8 5.1 40.4 14.4 11.5 10.2 17.6 24.6 17.6 41.5s-6.1 31.2-17.6 41.4a61 61 0 0 1-40.4 14.5" style="fill:url(#a)"/><path d="M111.5 29.7a57 57 0 0 1 8.1 30.2c0 16.9-6.1 31.2-17.6 41.4a61 61 0 0 1-40.4 14.5 59 59 0 0 1-48.2-23 58 58 0 0 0 50.2 26c15.4 0 29.8-5.2 40.4-14.5a54 54 0 0 0 17.6-41.4q-.1-19.2-10.1-33.2" style="fill:#eb8f00"/><radialGradient id="b" cx="94.5" cy="89.7" r="23.9" fx="85.9" fy="82.6" gradientTransform="matrix(1 0 0 -1 0 130)" gradientUnits="userSpaceOnUse"><stop offset=".2" style="stop-color:#ff4081"/><stop offset=".9" style="stop-color:#cc1775"/></radialGradient><path d="m96 17.1-8.1 10.7a2 2 0 0 1-1.7.8L72.8 28a2 2 0 0 0-1.7 3.2l7.7 11q.5.8.2 1.8l-4.7 12.6a2 2 0 0 0 2.5 2.6l12.8-4a2 2 0 0 1 1.8.4l10.5 8.3a2 2 0 0 0 3.2-1.5l.3-13.4q0-1.1.9-1.6l11.1-7.4a2 2 0 0 0-.4-3.6l-12.7-4.3a2 2 0 0 1-1.3-1.4l-3.6-13a2 2 0 0 0-3.5-.6" style="fill:url(#b)"/><path d="m99.8 16.9 3 14q.4 1.5 2 2.2l13.5 4a2 2 0 0 1 .3 3.4l-12 6.5a3 3 0 0 0-1.6 2.7l.1 14.6a2 2 0 0 1-3.1 1.4l-10.5-9.4a3 3 0 0 0-3-.6l-13.3 4.5a2 2 0 0 1-2.4-1.3l.1-1.3 5.9-13.3a3 3 0 0 0-.4-3l-8.6-10.8a2 2 0 0 1 1.7-3l14 1.6a3 3 0 0 0 2.7-1.3l8.2-11.6c.7-.8 1.9-1 2.7-.3q.6.3.7 1" style="fill:#f44336"/><path d="m96.6 30.3 1-9.6c.1-.5.2-1.4 1-1.2.7.1.8 1.6.8 1.6l1.3 8c.4 3.2-.2 4-1.4 4.5-1.3.4-3-.5-2.7-3.3" style="fill:#ff847a"/><path d="m105.7 46 9.4-4.7c.5-.2 1.3-.6.9-1.4-.4-.5-1.8-.1-1.8-.1l-7.7 1.3q-3.6.4-4.3 2.5c-.5 1.7.8 3.5 3.5 2.4" style="fill:#c62828"/><path d="m32.5 14.5 8 11.7a3 3 0 0 0 2.8 1.3l13.9-1.3a2 2 0 0 1 1.6 3l-8.6 10.6a3 3 0 0 0-.4 3l5.6 13.5a2 2 0 0 1-2.3 2.5l-13.3-4.7a3 3 0 0 0-3 .5L26.2 64a2 2 0 0 1-3.1-1.5l.3-14.6a3 3 0 0 0-1.5-2.6L10 38.4a2 2 0 0 1 .4-3.5l13.4-3.8A3 3 0 0 0 26 29l3.2-13.9a2 2 0 0 1 3.4-.6" style="fill:#f44336"/><path d="m34.7 28.2-2.8-9.3c-.1-.5-.4-1.4.4-1.6.7-.1 1.3 1.2 1.3 1.2l4.3 7c1.7 2.7 1.4 3.8.5 4.6s-3 .7-3.7-2" style="fill:#ff847a"/><path d="m49 39.2 7-8c.3-.4 1-1 .2-1.6-.6-.4-1.7.6-1.7.6L48 34.3q-3.1 1.8-3 4c.1 1.8 2 2.9 4 .9" style="fill:#c62828"/><path d="M102 71.6a6 6 0 0 0-7-2.6 111 111 0 0 1-31.7 4.4A111 111 0 0 1 31.8 69c-2.7-1-5.8 0-7.2 2.6-1.3 2.5-.4 5.4.8 8A40 40 0 0 0 63.3 102h.1a40 40 0 0 0 37.9-22.6c1.1-2.5 2.1-5.4.8-7.9" style="fill:#422b0d"/><path d="m79.4 98.1-1.2-1a22 22 0 0 0-14.8-5.4A24 24 0 0 0 48 97l-1.1 1-.9 1a47 47 0 0 0 17.3 3.2h.2q8.5 0 16.5-3z" style="fill:#ed7770"/><path d="M95 69a111 111 0 0 1-31.7 4.4A111 111 0 0 1 31.8 69c-2.7-1-5.8 0-7.2 2.6l-.4 1.2 1.1.5c12 6 25.4 9.1 38.8 9a85 85 0 0 0 38.6-8.8q-.2-1-.6-1.9a6 6 0 0 0-7.2-2.6" style="fill:#fff"/><path d="M102.1 71.6A6 6 0 0 0 95 69a111 111 0 0 1-31.6 4.4A111 111 0 0 1 31.8 69c-2.7-1-5.8 0-7.2 2.6-1.3 2.5-.4 5.4.8 8q.7 1.6 1.7 3.2s-2.1-7.7-.3-10q1-1.5 2.8-1.6.8 0 1.4.2 15.7 4.5 32.2 4.6h.3A113 113 0 0 0 97 71.2q1.8 0 2.9 1.6c1.8 2.3-.3 10-.3 10l1.7-3.2c1.2-2.5 2.2-5.4.8-8" style="fill:#eb8f00"/></svg>