<svg xml:space="preserve" width="16" height="16" viewBox="0 0 128 128"><linearGradient id="a" x1="104.4" x2="117.4" y1="17.3" y2="17.3" gradientTransform="matrix(1 0 0 -1 0 128)" gradientUnits="userSpaceOnUse"><stop offset="0" style="stop-color:#448aff"/><stop offset=".4" style="stop-color:#3b7dff"/><stop offset="1" style="stop-color:#2962ff"/></linearGradient><path d="M117.3 122.3c0-6.8-3.9-20-11.8-24.7l-1 26.2h12.9z" style="fill:url(#a)"/><linearGradient id="b" x1="4.4" x2="96.4" y1="18.4" y2="18.4" gradientTransform="matrix(1 0 0 -1 0 128)" gradientUnits="userSpaceOnUse"><stop offset="0" style="stop-color:#448aff"/><stop offset=".4" style="stop-color:#3b7dff"/><stop offset="1" style="stop-color:#2962ff"/></linearGradient><path d="M50.5 95.5c-22.5 0-46 7.3-46 25v3.3h92v-3.2c0-16.8-23.2-25-45.9-25" style="fill:url(#b)"/><path d="m118.4 54.6-11.1-.4a8 8 0 0 0-7.8 7.8L99 98.4h3.8l.6-36.3c0-2.2 1.8-4 3.9-3.9l11 .3z" style="fill:#9e9e9e"/><path d="m107 60-1.4-.1a2 2 0 0 1-2-2.1v-2.2a2 2 0 0 1 2-2.1h1.5c1.1 0 2 1 2 2.1v2.2a2 2 0 0 1-2 2.1" style="fill:#504f4f"/><path d="m103.5 122.8.4-32.8c0-1-1.3-2-3-2s-3 .8-3 1.9l-.4 32.8z" style="fill:#616161"/><path d="m105.2 123.8.3-29c0-1.9-1.3-3.4-3-3.4h-3.3c-1.7-.1-3 1.4-3 3.3l-.4 29z" style="fill:#504f4f"/><path d="M113 61.3c-2.8 0-5.8-1.7-5.8-5.5 0-4.2 3.2-5.3 5.1-5.3 4.5 0 9.2 3.8 10.9 5.3-1.8 1.5-6.6 5.5-10.3 5.5" style="fill:#40c4ff"/><path d="M112.3 51.4c3.7 0 7.6 2.8 9.6 4.4-2.3 2-6.2 4.6-9 4.6-1.8 0-4.8-1-4.8-4.6s2.7-4.4 4.2-4.4m0-1.7c-2.5 0-5.9 1.7-5.9 6s3.5 6.4 6.5 6.4c5 0 11.5-6.3 11.5-6.3s-6-6.1-12-6.1" style="fill:#2962ff"/><path d="M113 53.4c3.5 1.3 5.3 2.4 5.3 2.4s-1.2 1.2-4.8 2q-4.2.7-4.4-2.2c0-1.7 2.1-2.8 4-2.2" style="fill:#84ffff"/><path d="M114.3 109.8q-.4-2.2-1.1-3.9a19 19 0 0 0-7-9.1 15 15 0 0 0-10-3.2q-3.3.5-4.1 2.6-.6 1.6 0 2.8c-1.1.3-2.6 1-3.1 2.4a4 4 0 0 0 .5 3.8c-.9.6-2 1.5-2.4 2.7-.5 1.6 1 3.4 2 4.3q-.8 1.1-1.2 2.2c-.7 3.3 3.7 5.2 6.4 5.8a1 1 0 0 0 1-.5l1-1.6a53 53 0 0 0 11.2 2.4 10 10 0 0 0 4.2-3.6l.6-.7a9 9 0 0 0 2-6.4" style="fill:#f44336"/><path d="m53 123.8 6.7-19.5H39.8l8 19.5z" style="fill:#f5f5f5"/><path d="M50.4 92.4h-9v10a8 8 0 0 0 8.2 8.1h1.6c4.6 0 8.3-3.6 8.3-8.1v-10zm27.3-41.9H23.1c-6 0-10.7 5.1-10.7 11.4S17.2 73.3 23 73.3h54.6c6 0 10.7-5.1 10.7-11.4s-4.8-11.4-10.7-11.4" style="fill:#e59600"/><path d="M50.4 11.1C33 11.1 17 29.7 17 56.5s16.6 39.8 33.5 39.8S84 83.1 84 56.5c0-26.8-16-45.4-33.5-45.4" style="fill:#ffca28"/><ellipse cx="34.6" cy="58.9" rx="4.9" ry="5.1" style="fill:#404040"/><ellipse cx="65.7" cy="58.9" rx="4.9" ry="5.1" style="fill:#404040"/><path d="M41.6 51c-1-1.6-3.2-3.7-7.6-3.7s-6.7 2.2-7.6 3.6q-.7 1.1 0 1.9.4.8 2 .5c1.5-.3 2.6-1.4 5.6-1.5 3 0 4.7 1.1 5.6 1.5q1.5.4 2-.5t0-1.9m32.9.1c-1-1.6-3.3-3.7-7.7-3.7s-6.6 2.2-7.6 3.6q-.5 1.1 0 1.9t2 .5c1.5-.3 2.7-1.4 5.7-1.5 3 0 4.7 1.1 5.6 1.5q1.5.4 2-.5t0-1.9" style="fill:#6d4c41"/><path d="M54.3 68.1h-7.8q-1 .6-.7 1.6a5.3 5.3 0 0 0 9.2 0q.4-1.1-.7-1.6" style="fill:#e59600"/><path d="M59 76.2a26 26 0 0 1-16.9 0c-1.8-1.1-3.7.6-3 2.2s6.5 5.4 11.5 5.4 10.5-3.7 11.3-5.4c.7-1.6-1.1-3.3-3-2.2" style="fill:#795548"/><linearGradient id="c" x1="37.3" x2="37.3" y1="32.2" y2="3" gradientTransform="matrix(1 0 0 -1 0 128)" gradientUnits="userSpaceOnUse"><stop offset="0" style="stop-color:#1565c0"/><stop offset=".7" style="stop-color:#0d47a1"/><stop offset="1" style="stop-color:#0d47a1"/></linearGradient><path d="M36.1 108.2q.5 0 .9.5l10.1 15h.6l-6.4-28L34 97l-7 14.9 8.8-3.5z" style="fill:url(#c)"/><linearGradient id="d" x1="36.5" x2="36.5" y1="32.2" y2="3" gradientTransform="matrix(-1 0 0 -1 100 128)" gradientUnits="userSpaceOnUse"><stop offset="0" style="stop-color:#1565c0"/><stop offset=".7" style="stop-color:#0d47a1"/><stop offset="1" style="stop-color:#0d47a1"/></linearGradient><path d="M64.7 108.2a1 1 0 0 0-.8.5l-10.2 15H53l6.4-28L67 97l6.9 14.9-8.8-3.5z" style="fill:url(#d)"/><path d="M50.4 5C5 5.3 14.3 57.2 14.3 57.2l3 7.7c0 .3.6.3.6 0a309 309 0 0 1 6.3-24.5 6 6 0 0 1 6.8-3.8 112 112 0 0 0 19.3 1.8h.1c8 0 15-1 19.5-1.8a6 6 0 0 1 6.7 3.8c1.8 4.7 5.3 20 6.2 24.4q.3.5.8 0l3-7.6S95.8 5.2 50.3 5" style="fill:#543930"/><radialGradient id="e" cx="50.4" cy="79.9" r="38.1" gradientTransform="matrix(1 0 0 -1.128 0 138.24)" gradientUnits="userSpaceOnUse"><stop offset=".8" style="stop-color:#6d4c41;stop-opacity:0"/><stop offset="1" style="stop-color:#6d4c41"/></radialGradient><path d="M86.6 57.2S95.9 5.2 50.3 5l-6 .4H44C5.9 10.2 14.3 57.2 14.3 57.2l3 7.6c0 .4.6.4.6 0 1-4.4 4.5-19.7 6.3-24.4a6 6 0 0 1 6.8-3.8 112 112 0 0 0 19.3 1.8h.1c8 0 15-1 19.5-1.8a6 6 0 0 1 6.7 3.8c1.8 4.7 5.3 20.1 6.3 24.4 0 .4.5.4.7 0z" style="fill:url(#e)"/><path d="M79.1 21.5H21.7V6s7.5-2.3 28.8-2.3C63.6 3.8 79 6.3 79 6.3z" style="opacity:.74;fill:#423f3e"/><path d="M12.4 43.8h-4a4 4 0 0 1-4-4v-8a4 4 0 0 1 4-4h4a4 4 0 0 1 4 4v8a4 4 0 0 1-4 4m80 0h-4a4 4 0 0 1-4-4v-8a4 4 0 0 1 4-4h4a4 4 0 0 1 4 4v8a4 4 0 0 1-4 4M50 32.6a95 95 0 0 0-39 11v9.9C18.4 47 33.6 42 50 42c16.5 0 29 6.3 39.8 11.6 0-2.1.4-10.2-.7-12.7-8-4.7-25.6-8.3-39-8.3" style="fill:#807978"/><linearGradient id="f" x1="50.4" x2="50.4" y1="123.8" y2="76.7" gradientTransform="matrix(1 0 0 -1 0 128)" gradientUnits="userSpaceOnUse"><stop offset="0" style="stop-color:#bdbdbd"/><stop offset="1" style="stop-color:#757575"/></linearGradient><path d="M90.4 31.4q0-1.7-.7-3.1L81.9 8.9a8 8 0 0 0-3-3q-.5-.2-.5.2v9.1q-.1 1.7-1.8 1.8H24.2q-1.7-.2-1.8-1.8V6q0-.3-.3-.2A8 8 0 0 0 19 8.9l-7.8 19.4q-.6 1.5-.6 3L6.5 56v.4c.1.6.6 1.8 1.7 2.4 0 0 11.2-19.3 40.5-21.5h3.4c29.4 2.2 40.6 21.5 40.6 21.5 1-.6 1.5-1.8 1.6-2.4l.1-.4z" style="fill:url(#f)"/><path d="M68 27.9q-.9-.1-1-.8v-4.7q.1-.7 1-.8 1 .1 1 .8v4.7q-.1.7-1 .8m-9.3 1.8q-1 0-1-.7v-8.5q0-.6 1-.7t1 .7V29q-.1.8-1 .8m-8.3-1.6q-.9 0-1-.7V22q.1-.6 1-.7t1 .7v5.4q0 .8-1 .8m-17.6-.3q-.9-.1-1-.8v-4.7q.1-.7 1-.8 1 .1 1 .8v4.7q0 .7-1 .8m9.3 1.8q-.9 0-1-.7v-8.5q.1-.6 1-.7t1 .7V29q0 .8-1 .8" style="fill:#807978"/><linearGradient id="g" x1="50.4" x2="50.4" y1="94.9" y2="69" gradientTransform="matrix(1 0 0 -1 0 128)" gradientUnits="userSpaceOnUse"><stop offset="0" style="stop-color:#bdbdbd"/><stop offset="1" style="stop-color:#757575"/></linearGradient><path d="M8.2 58.8s11.5-20 42.2-21.6c30.7 1.6 42.3 21.6 42.3 21.6 1-.6 1.5-1.8 1.6-2.4-2.9-5.7-12.6-17.8-36.4-22.8-3.5-.7-11.4-.7-14.8 0-23.8 5-33.7 17-36.6 22.8.1.6.6 1.8 1.7 2.4" style="fill:url(#g)"/></svg>