<svg xml:space="preserve" width="16" height="16" viewBox="0 0 128 128"><linearGradient id="a" x1="55.8" x2="55.8" y1="90.8" y2="56.1" gradientTransform="matrix(1 0 0 -1 0 130)" gradientUnits="userSpaceOnUse"><stop offset="0" style="stop-color:#05080f"/><stop offset=".1" style="stop-color:#070a15"/><stop offset=".3" style="stop-color:#0b1026"/><stop offset=".4" style="stop-color:#131a42"/><stop offset=".6" style="stop-color:#1d286a"/><stop offset=".8" style="stop-color:#2b399b"/><stop offset="1" style="stop-color:#384acc"/></linearGradient><ellipse cx="55.8" cy="56.7" rx="49.9" ry="18.3" style="fill:url(#a)"/><path d="M55.6 30.4s-23 1-35.8 5c-.4 3.1-3.8 66.5 6 80.1 4 5.4 13.2 5.7 13.2 5.7h16.6zm.1 0s23 1 35.7 5c.5 3.1 3.8 66.5-6 80.1-3.9 5.4-13.2 5.7-13.2 5.7H55.7z" style="fill:#e7e7e7"/><linearGradient id="b" x1="18.9" x2="55.6" y1="54.2" y2="54.2" gradientTransform="matrix(1 0 0 -1 0 130)" gradientUnits="userSpaceOnUse"><stop offset="0" style="stop-color:#bdbdbd"/><stop offset=".1" style="stop-color:#fff;stop-opacity:0"/></linearGradient><path d="M55.6 30.4s-23 1-35.8 5c-.4 3.1-3.8 66.5 6 80.1 4 5.4 13.2 5.7 13.2 5.7h16.6z" style="fill:url(#b)"/><linearGradient id="c" x1="55.7" x2="92.3" y1="54.2" y2="54.2" gradientTransform="matrix(1 0 0 -1 0 130)" gradientUnits="userSpaceOnUse"><stop offset=".9" style="stop-color:#fff;stop-opacity:0"/><stop offset="1" style="stop-color:#bdbdbd"/></linearGradient><path d="M55.7 30.4s23 1 35.7 5c.5 3.1 3.8 66.5-6 80.1-3.9 5.4-13.2 5.7-13.2 5.7H55.7z" style="fill:url(#c)"/><linearGradient id="d" x1="55.3" x2="55.3" y1="34" y2="-7.8" gradientTransform="matrix(1 0 0 -1 0 130)" gradientUnits="userSpaceOnUse"><stop offset="0" style="stop-color:#384acc"/><stop offset=".2" style="stop-color:#3548bf"/><stop offset=".6" style="stop-color:#2f449d"/><stop offset="1" style="stop-color:#283f7a"/></linearGradient><path d="M104.6 124v-3c0-16.7-25-25-49.3-25S6 103.3 6 121v3z" style="fill:url(#d)"/><linearGradient id="e" x1="96.3" x2="120.7" y1="16.9" y2="16.9" gradientTransform="matrix(1 0 0 -1 0 130)" gradientUnits="userSpaceOnUse"><stop offset="0" style="stop-color:#384acc"/><stop offset=".2" style="stop-color:#3548bf"/><stop offset=".6" style="stop-color:#2f449d"/><stop offset="1" style="stop-color:#283f7a"/></linearGradient><path d="M112.3 102.3q-1-.3-1.6.5c-2 3.1-5.6 5.5-9.2 7.7l-4.8 3.2q-.7.7-.3 1.5l3.8 8.8h20.3c.5-5.2.7-17-8.2-21.7" style="fill:url(#e)"/><path d="m36.7 102.2 2 2.3 3.1-.3-1.6 2.6 1.3 2.8-3-.6-2.2 2-.3-3-2.7-1.5 2.8-1.2zm-3.3 12.3.5 2.7 2.5 1.1-2.4 1.3-.3 2.7-2-1.9-2.6.6 1.2-2.5-1.4-2.3 2.7.4zm23.8 9.5H64l-.2-1 3-3.5-4.6-.3-2.3-4-1.7 4.3-4.5 1 3.5 3zm-40.1-14.4 2.2 2.2 3-.5-1.4 2.7 1.4 2.7-3-.5-2.2 2.2-.4-3-2.8-1.4 2.8-1.4zm62.2-2.4v3.3l3 1.8-3.2 1.2-.8 3.2-2.1-2.6-3.3.2 1.8-2.8-1.2-3 3.2.8z" style="fill:#f9f722"/><path d="M55.6 88.1h-9v10c0 4.5 3.6 8.2 8.2 8.2h1.6c4.6 0 8.3-3.7 8.3-8.2V88z" style="fill:#e59600"/><path d="M55.6 15c-17.2 0-33.1 12.8-33.1 40a40 40 0 0 0 25.2 38.8 24 24 0 0 0 8 1.5q3.5 0 7.8-1.5A40 40 0 0 0 88.7 55c0-27.2-15.9-40-33-40" style="fill:#ffca28"/><radialGradient id="f" cx="55.8" cy="126.3" r="33.9" gradientTransform="matrix(1 0 0 -.964 0 125.45)" gradientUnits="userSpaceOnUse"><stop offset="0" style="stop-color:#fff"/><stop offset=".4" style="stop-color:#faf9f8"/><stop offset="1" style="stop-color:#ebeae6"/><stop offset="1" style="stop-color:#ebeae6"/></radialGradient><path d="m89.9 40.8-3 47.8H83l2.2-28c0-3.8.5-12.8-2.5-15-3.7-2.7-14-9.7-17.3-16.9 0 0-12.6 11.9-35 17-6 1.3-5.2 12.1-5.2 15 .2 7.3 1 19.3 1.5 28.1h-3.3c-1.9-14.2-2-49.7-1.2-53.6 2-.9 18-8.7 26.3-9.8C60.7 24 82 36 89.9 40.9" style="fill:url(#f)"/><path d="M64.1 76.2a25 25 0 0 1-16.5 0c-1.8-1.1-3.6.5-2.8 2.2.7 1.6 6.3 5.3 11.1 5.3S66.3 80 67 78.3c.8-1.6-1-3.2-2.9-2.1" style="fill:#795548"/><path d="m59.7 68.4-.4-.1h-7.2q-1 .5-.7 1.7c.3 1.2 1.7 2.6 4.5 2.6s4.1-2 4.4-2.6q.4-1.2-.6-1.6" style="fill:#e59600"/><ellipse cx="39.7" cy="59.3" rx="4.8" ry="5" style="fill:#404040"/><ellipse cx="72.3" cy="59.3" rx="4.8" ry="5" style="fill:#404040"/><path d="M46.4 51.1c-.9-1.1-2.8-2.8-6.7-2.8S33.8 50 33 51.1q-.5.8 0 1.5t1.7.3c1.2-.3 2.4-1 5-1s4.1.7 5 1q1.2.3 1.7-.3t0-1.5m32.6 0c-.8-1.1-2.8-2.8-6.7-2.8-3.8 0-5.8 1.7-6.7 2.8q-.5.8 0 1.5t1.7.3c.8-.3 2.4-1 5-1s4.2.7 5 1q1.3.3 1.8-.3t0-1.5" style="fill:#fff"/><linearGradient id="g" x1="58.1" x2="57.7" y1="126" y2="107.5" gradientTransform="matrix(1 0 0 -1 0 130)" gradientUnits="userSpaceOnUse"><stop offset=".4" style="stop-color:#3649bf"/><stop offset="1" style="stop-color:#2c4585"/></linearGradient><path d="M74.2 17.5c.5-1 11.2 1.3 12.3-.5S81.9 7.4 69.3 5c-4.2-1-10-2-17 .3a40 40 0 0 0-27 32.8l64.2.2C87 29.8 73.6 18.5 74.2 17.5" style="fill:url(#g)"/><linearGradient id="h" x1="55.9" x2="55.9" y1="108.1" y2="71.3" gradientTransform="matrix(1 0 0 -1 0 130)" gradientUnits="userSpaceOnUse"><stop offset=".2" style="stop-color:#384acc"/><stop offset="1" style="stop-color:#1d3678"/></linearGradient><path d="M105.8 55c-6.7-28.5-46.5-40.4-73.1-28.5A50 50 0 0 0 9.9 45c-1.8 2.6-8.8 17 1.6 13 57.5-33.5 94.7 13 94.3-3" style="fill:url(#h)"/><path d="m112.2 81.5-3 2.7 2.4 6h7.6l4.1-11.7-13.2-11.3-14.6 11.4 7.4 15.4-4.5 17.7c-.8 3-1.7 7.6-2.7 12.2h7.8l8.8-28.8-7.8-14.2 5.4-3.6 5.4 2.4-.1 2.4z" style="fill:#cf8900"/><linearGradient id="i" x1="89.2" x2="112.8" y1="27.9" y2="12.2" gradientTransform="matrix(1 0 0 -1 0 130)" gradientUnits="userSpaceOnUse"><stop offset=".5" style="stop-color:#ffca28"/><stop offset="1" style="stop-color:#ffb300"/></linearGradient><path d="M115.6 111.1q-.4-2.1-1.1-3.9a19 19 0 0 0-7-9.1 15 15 0 0 0-10-3.1q-3.2.5-4 2.5-.6 1.5 0 2.8c-1.2.4-2.7 1.1-3.1 2.5-.6 1.5-.1 2.8.5 3.7-1 .6-2.1 1.5-2.4 2.7-.5 1.6 1 3.4 2 4.3q-.9 1.1-1.2 2.2c-.7 3.3 3.6 5.2 6.3 5.8a1 1 0 0 0 1-.5l1-1.6a53 53 0 0 0 11.2 2.4 10 10 0 0 0 4.3-3.6l.5-.7a9 9 0 0 0 2-6.4" style="fill:url(#i)"/></svg>