<svg xml:space="preserve" width="16" height="16" viewBox="0 0 128 128"><path d="m74 78-11.7 5.1s3 6 4.5 8.5 3.6 4 3.9 7-1.2 12-2.5 14.5c-1 2-2.3 3.8-1.3 5.2s6.6 1.5 7.4 0c.7-1 .9-4.5 1-5.7l1.4-10.2c.4-2.5 1.2-4.2 1.4-5.9s-2.6-4-3.6-5.6C72.3 86.9 74 78 74 78" style="fill:#8a5b51"/><path d="m86.1 66.9 3.7 2.4s5.3.2 6.5-4.8c1-4 0-8-1.7-6.8-.5.3-2 5.6-2 5.6zM34.2 40.6l-3 .3-2.5.9c-1 .3-2.7.5-3 1.3s-.2 5.4.8 6.8c.7 1 1.1 2.6 4.9 2.5l9-.2L39 42.1z" style="fill:#ffeac3"/><path d="M50.7 33.2s-2.3-3.1-6.7-2.7c-3.1.4-6 2.7-6 2.7s-3-5.6-5.8-7.7-8.4-4.5-9.4-3.2c-1 1.4 3.2 6.8 5.2 9.5s5.6 6.5 5.6 6.5-1 1.8-2.6 2.6a7 7 0 0 1 5.2 3c1.7 2.4 2.8 6 2.3 8.4-.5 2-3.2 5.4-2.8 12.2a29 29 0 0 0 3.1 13c1.3 2.2 4.4 6 4.4 6l.2 11.9c-.1 4-.9 11.5-1.6 15a14 14 0 0 1-2.4 6.4c-.8 1-2.3 3.3.3 4 2 .4 4.8 0 5.5-.1 1.4-.5 1-2.8 1-4s1.6-11.5 2-15.8c.4-4.1 1.2-9.2 1.5-11.6q.5-4.1 1.2-4 1-.1.8 3.4c0 2.3-.7 9.3-1 13.3-.2 4-1.3 13.8-1.5 14.6-.3.7-2.3 2.8-2.1 4.5.2 1.4 1.9 2 4 2s3.8-.6 4-1.8c.1-1.5-.2-2.6-.3-4.3s1.4-13.3 1.6-15.6c.2-2 1.8-10.7 2.1-11.8s.4-2.5.7-3c.1-.5 5.3.2 9.6-2 4.4-2 7.2-4.8 7.2-4.8l4.6 6c1.6 2 7 9.2 7.3 11.8s.4 12 .4 14.6q0 4.1-.2 5.2c-.2.5-2.7 3.8-2 5s2.7 1.5 4.9 1.3q3.3-.4 3.7-2.7c.6-2.6-.4-13.2-.2-18.6.1-5.4.9-7.3.3-8.7s-3.3-4.7-4.1-9c-.9-4.1 0-7.3 0-11s-.3-6-.3-6 2.8-1.1 4-3.2c1.1-2.1 1.6-6.8.5-7-1-.1-2.5 2.7-3.2 3.4-1 1.1-3 1.6-3 1.6s-2.4-6.2-9.2-7.5-15.1 2.2-19.4 3c-4.4.9-7 1.4-7.8.2-.7-1.3.2-3.8 1.7-6.3 1.5-2.4 2.2-4 2.5-5.8s.2-3.4.2-3.4 5-1 8.2-4.4c3-3.4 5.8-10.7 6.7-12.5s1.7-2.2 1.3-3.2-6.1-1.2-9.7-.3c-3.2 1-7.7 3.8-9.5 6.2-1.9 2.3-3 4.7-3 4.7" style="fill:#d17856"/><path d="M54.8 37.9q-2.3-2.2 1-6.5c3.3-4.3 5.1-4.6 7.7-5.6 2-.8 4.9-1.5 5.5-1a25 25 0 0 1-3.6 7.3c-1.9 3.1-4.3 5.5-6.2 6.2q-2.7 1-4.5-.4M25.9 25c-.3.7 1.6 3 4.2 6.4 2 2.6 3.4 4.6 4.4 4.8q1.2 0 1.1-1.5a14 14 0 0 0-3.8-5.8c-2.2-2.3-5.6-4.4-6-3.8" style="fill:#ffeac3"/><path d="M46.6 40.6q0 2.5-2.3 2.8c-1.2 0-2.3-1.4-2.3-3s1-2.5 2.3-2.5 2.4 1.1 2.3 2.6" style="fill:#0a070b"/><path d="M26.9 49s2.7-1.8 2.7-3.3c0-1.1-1-2-2.1-2.7-.6-.3-1.5-.6-2 0s-1 2-.6 4.4 1.6 3 1.6 3-.7 1.2 3.7 1.1 4.4-1.2 4.3-1.8c0-.7-2.7-.6-4.1-.4-2 .3-3.5-.4-3.5-.4" style="fill:#2c2a32"/><path d="M47.8 32.3s2.3-5.5 2.8-7.5c.3-1.7.4-4.6.4-6.3l-.4-2.2c0-1.2.7-2.4 2.3-2.5 1.4 0 2.3 1 2.3 2.2.1 1.2-.5 1.8-.5 2.5l-.3 5.6s2.8-2.7 3.1-3.5.4-4.9.4-5.7v-2s-.8-1.1-.8-2.2c0-.8.6-2 2-2 1.5-.1 2.1.9 2.2 1.9s-.4 2-.4 2l-.1 4.3 2.2-3c.6-.8 1.3-2.3 1.3-2.3s-.3-1.1-.2-2.3c.2-1 .9-2.2 2.3-2.2q2.2.2 2.2 2.2c0 1.8-1 3-1 3s-2.7 5-4.7 7.7q-2.1 3.1-3 3.8c-.7.4-4.7 2.6-6.6 5.3l-2.6 4.1s-.7 1-2 .6c-1-.4-.9-1.5-.9-1.5M23.5 10.8s2 5 3.4 7.9 3.5 5.6 3.5 5.6 2.9 2.1 3.8 3.3c1.7 2 3.6 5.8 3.6 5.8l2.4-1.7-2.1-3.5V20s.7-1.1.7-2.2-.6-2.4-2-2.5c-1.4 0-2.2 1.1-2.3 2.2 0 1 .5 2 .5 2l-.1 5.7-1.1-1.8-1.1-2.3c-.4-.6.3-5.6.3-6.4l.2-3.2s.7-1 .7-2.2c0-1-.6-2.2-1.9-2.3-1.4 0-2.1 1-2.3 1.9-.2 1.1.3 2 .3 2s-.3 5.2-.6 5.1c-.4 0-2.7-6.2-2.7-6.2s.5-1.3 0-3c-.3-1.4-1.5-2.4-3.2-1.9S21.4 7.2 22 8.7a6 6 0 0 0 1.5 2" style="fill:#bd9178"/></svg>