<svg xmlns:xlink="http://www.w3.org/1999/xlink" xml:space="preserve" width="16" height="16" viewBox="0 0 128 128"><path d="M55.9 10.9c23-6 50.7 13.6 44.9 46.1-4.6 26-16.5 34.1-28.9 44.4-5.8 4.8-12.4 19.5-25.1 18.1-15.3-1.7-18.1-14.2-17.7-23 .7-14 2.8-22 1.8-32-2.5-27.5 1.3-47.4 25-53.6" style="fill:#ffca28"/><defs><path id="a" d="M55.9 10.9c23-6 50.7 13.6 44.9 46.1-4.6 26-16.5 34.1-28.9 44.4-5.8 4.8-12.4 19.5-25.1 18.1-15.3-1.7-18.1-14.2-17.7-23 .7-14 2.8-22 1.8-32-2.5-27.5 1.3-47.4 25-53.6"/></defs><clipPath id="b"><use xlink:href="#a" style="overflow:visible"/></clipPath><g style="clip-path:url(#b)"><path d="M74.3 76.9c-2.1 8.5-8 9.1-13.7 11.9-4.4 2.1-5.9 3.8-9.2 7.5-2.8 3.2-9.4 2.7-13-2.6-1.2-1.8-1.6-6.4.5-9.9 4.7-7.6.1-11.6.8-15.4.8-4.1 4.7-4.4 7.3-2.8 5.3 3.2 8.5 11.5 9.3 9.5 4.4-10.5-17.1-22.9-9.4-40.9C52 22.3 63 18.8 74.5 24.1a30 30 0 0 1 18.5 29 26 26 0 0 1-7.6 16.5c.9-.9.3-21.3-9-25.8-4.2-2-10.2-.4-11.6 4-.8 2.7.2 5.8 1.8 8.2 1.6 2.5 3.6 4.5 5.1 7.1 2.8 4.6 3.6 9.5 2.6 13.8m24.1-48.5c-1.8 1.1-1.9 3.5-1.5 4.9a57 57 0 0 1-24.4 63.6c-4 2.5-2.1 10-2.1 10l23.2-19.4L105.7 52zM27.9 92c1.5.3 4.5.8 4.4 4.8-.2 5.5 2 20.8 18.3 19.8 4.5-.3 3.3 4.7.5 4.6s-19.5-1.5-19.5-1.5l-4.8-14.2z" style="fill:#faa700"/></g><defs><path id="c" d="M55.9 10.9c23-6 50.7 13.6 44.9 46.1-4.6 26-16.5 34.1-28.9 44.4-5.8 4.8-12.4 19.5-25.1 18.1-15.3-1.7-18.1-14.2-17.7-23 .7-14 2.8-22 1.8-32-2.5-27.5 1.3-47.4 25-53.6"/></defs><clipPath id="d"><use xlink:href="#c" style="overflow:visible"/></clipPath><g style="clip-path:url(#d)"><path d="m40.4 66.6-.7 1.8c-.7 3.8 3.9 7.8-.8 15.4a11 11 0 0 0-1.3 7.7c2.3.9 5.6 1 9.4-2.5 2.4-2.2 3.2-5.8 2.7-9-1.4-8.1-5.4-8.6-9.3-13.4M78 88.2c13.4-18 19.2-31 13.6-49.6a31 31 0 0 0-18.9-18.2 23 23 0 0 0-20.4 3.3A26 26 0 0 0 43 45.5c1 8.4 4.8 12.5 7.4 15.6 4.2 4.8 4.7 7.3 5.1 7.2s1.8-2-2.3-8.3c-2.1-3.2-5.7-7.7-6.6-14.9q-.2-2 0-4c1.9 3.5 7.1 8.7 17 16 15.5 11.5 8.3 25 2.9 27.3-4 1.6-8.1 2.8-11.2 5.8a9 9 0 0 0-2.7 4.9c4.5-5.8 10.5-5.4 16.4-8.4 5.1-2.5 7-4.9 7.8-12.2.7-5.9-1.4-11.6-5.4-15.9-2.7-2.9-15.3-12.6-17.3-15.8-2.3-3.9-3.6-9.8.6-14.6a20 20 0 0 1 17.1-2.8c6.5 2 14.6 9.2 16.7 16.3 3.9 12.9-.7 22.8-6.9 35.1C78 84 78 88.2 78 88.2m14.7-6.4c-.4-.4-1-1-1.6-.4-8.7 10.5-17.7 13.2-25.2 21.2-2.3 2.4-8.9 14.6-24 14.8q-.7 0-.9.9c0 .7 6.6 3.7 6.6 3.7h8.6l36.9-37.5z" style="fill:#b55e19"/></g></svg>