<svg xml:space="preserve" width="16" height="16" viewBox="0 0 128 128"><path d="M116.5 4h-104a8 8 0 0 0-8 8v104a8 8 0 0 0 8 8h104a8 8 0 0 0 8-8V12a8 8 0 0 0-8-8" style="fill:#427687"/><path d="M122.2 6.3a8 8 0 0 0-5.7-2.3h-104a8 8 0 0 0-8 8v104q0 3.1 2.3 5.7l16.8-16.8h76a6 6 0 0 0 5.9-6V23z" style="fill:#8cafbf"/><path d="M40.2 12.9c0-2.3-1.6-3-10.8-2.7-7.7.3-11.5 1.2-13.8 4s-3 8.5-3 15.3c0 4.8 0 9.3 2.5 9.3 3.4 0 3.4-8 6.2-12.3 5.4-8.7 18.9-10.6 18.9-13.6" style="opacity:.5;fill:#b4e1ed"/><path d="M84.4 68.8q0 14.5-5.4 21.8c-5.4 7.3-9.1 7.3-16.5 7.3s-12.7-2.4-16.3-7.2-5.5-12-5.6-21.2V58q0-14.5 5.4-21.7C51.4 29 55 29 62.5 29s12.8 2.4 16.4 7 5.4 11.8 5.5 21.2zM73.3 56.3q0-9.5-2.5-14C68.3 38 66.4 38 62.6 38a9 9 0 0 0-8.1 4.2 27 27 0 0 0-2.7 13v15.2q0 9.5 2.6 14c1.6 3 4.8 4.7 8.2 4.6a9 9 0 0 0 8-4.3q2.5-4.2 2.7-13.3z" style="fill:#fafafa"/></svg>