<svg xml:space="preserve" width="16" height="16" viewBox="0 0 128 128"><path d="m63.2 99-16.1 10.8s3.8 2 5.5 5.1c2.1 3.9.8 6.5 1.7 6.8s2.8-.4 3.4-1.5q.9-2.2.7-2.4c-.2-.2 1 .7 2.6 3.4 1 1.8 1.7 3.7 2.7 3.7 1.5 0 1.8-1.9 1.9-3l.1-3s2 3.6 2.9 4.5 2.2 1.1 2.8 0 .3-2.8 1.5-5.7c1.6-4.2 6.8-9.3 6.8-9.3z" style="fill:#bb9176"/><radialGradient id="a" cx="64.6" cy="87.4" r="115" gradientUnits="userSpaceOnUse"><stop offset=".2" style="stop-color:#eddfdf"/><stop offset=".3" style="stop-color:#e7ced1"/><stop offset=".5" style="stop-color:#e3c1c6"/><stop offset=".7" style="stop-color:#e1bdc2"/></radialGradient><path d="M27.4 96.6s3.3 7.6 9.3 10.5c8.2 4 15 2.7 15 2.7s5.1 4.1 13.7 4.1 16.3-7 16.3-7 5.4 2.2 13.4-2.1c6.9-3.8 7.4-9.3 7.4-9.3s6.7-2.7 9-9.7 2.3-14.7-2.4-21.9c-4.9-7.6-20-17.2-22.4-19.1S76 37.6 74.2 33.5 71 20.3 71 15.8c-.3-7.4.3-11-1.7-12-2-1.2-5.8 1-7.8 2s-6.6 3.1-6.9 4 .7 6.2 0 12.4-2.2 12.3-6.4 16.2c-9.6 9-20.8 13.5-26.9 22.1s-8 20-3.3 27.5c4.6 7.5 9.5 8.6 9.5 8.6" style="fill:url(#a)"/><radialGradient id="b" cx="64.6" cy="66.4" r="26" gradientTransform="rotate(-90.6 32.67 98.59)scale(1 1.97)" gradientUnits="userSpaceOnUse"><stop offset="0" style="stop-color:#f8f6f7;stop-opacity:.7"/><stop offset=".8" style="stop-color:#f8f6f7;stop-opacity:0"/></radialGradient><path d="M27.4 96.6s3.3 7.6 9.3 10.5c8.2 4 15 2.7 15 2.7s5.1 4.1 13.7 4.1 16.3-7 16.3-7 5.4 2.2 13.4-2.1c6.9-3.8 7.4-9.3 7.4-9.3s6.7-2.7 9-9.7 2.3-14.7-2.4-21.9a75 75 0 0 0-22.4-19.1C84.2 43 76 37.6 74.2 33.5S71 21.4 70.8 16.8c-.3-5.8-15.6-.8-16.2 5.4-.7 6.3-2.3 12.3-6.5 16.2-9.6 9-20.8 13.5-26.9 22.1s-8 20-3.3 27.5c4.6 7.5 9.5 8.6 9.5 8.6" style="fill:url(#b)"/><radialGradient id="c" cx="25.9" cy="98.6" r="35.8" gradientUnits="userSpaceOnUse"><stop offset=".2" style="stop-color:#c8a9b3"/><stop offset=".5" style="stop-color:#d2b2ba"/><stop offset=".7" style="stop-color:#dbbac0"/></radialGradient><path d="M40.4 64.1s-11.8 4-16.1 14.2c-3.3 7.9-1.7 15.4-1.7 15.4s1.5 1.6 2.6 2.1l2.2.8a22 22 0 0 0 3.6 5.7s-2.2-5.8 0-16.2c2.9-14.4 9.4-22 9.4-22" style="fill:url(#c)"/><radialGradient id="d" cx="107.7" cy="92" r="38.4" gradientUnits="userSpaceOnUse"><stop offset=".1" style="stop-color:#b494a7"/><stop offset=".3" style="stop-color:#bb9bac"/><stop offset=".6" style="stop-color:#c4a5b2"/></radialGradient><path d="M87.6 56.5s9.8 11.4 12.7 19.1c5 13.5 2.2 20 2.2 20s3.3-1 5.7-3.9 3.3-7 1.7-14.6c-1.5-7-8.9-12.5-8.9-12.5l1.7 6.4s-1.8-3.3-5.6-7.4c-5.1-5.5-9.5-7.1-9.5-7.1" style="fill:url(#d)"/><radialGradient id="e" cx="65.1" cy="6.8" r="108.4" gradientUnits="userSpaceOnUse"><stop offset=".1" style="stop-color:#a385a0"/><stop offset=".4" style="stop-color:#c0a0ad"/><stop offset=".4" style="stop-color:#c0a0ad"/><stop offset=".6" style="stop-color:#d5b7c0"/><stop offset=".7" style="stop-color:#e0c3ca"/></radialGradient><path d="M44.3 58.9s7.8-13.2 10.4-19.6c2.7-6.8 4.4-9.5 4-19.8a67 67 0 0 0-1.4-11.7l3-1.5s3.1 8 4.4 17.7c1.2 9.6 1.6 16-3.1 30.1-4 11.9-8.5 18.4-11.6 26-3 7.8-6.8 28 14.1 30.7 18.7 2.5 20.4-14.3 15-26.6-4.1-9.4-9.6-21-9.7-28.2s.3-10.1.3-10.1 6.1 10.3 9 15.8c2.7 5.5 9 16.5 9 27-.2 10-3.3 25-23.5 25.6-19 .7-28.4-19.9-21.6-36.4 7.3-17.6 11.2-21.7 13.3-27.1 2.8-7 2.8-10.7 2.8-10.7s-4.3 6.4-7.4 10.6c-2.1 2.8-7 8.2-7 8.2" style="fill:url(#e)"/><radialGradient id="f" cx="64.9" cy="86.3" r="52.1" gradientUnits="userSpaceOnUse"><stop offset="0" style="stop-color:#f8f6f7"/><stop offset=".8" style="stop-color:#f8f6f7;stop-opacity:0"/></radialGradient><path d="M67.4 35.6S68.8 40.3 69 48s1.5 12.5 3.2 20c1.3 6 9 16 9.3 28.2.2 8.2-3.7 15.2-15.8 14.7C46 110 47.4 92.5 48 86.9c.6-6 11.3-24.3 14.2-34.2z" style="fill:url(#f)"/><radialGradient id="g" cx="76.9" cy="46.4" r="63.1" gradientUnits="userSpaceOnUse"><stop offset=".2" style="stop-color:#e0c3ca"/><stop offset=".4" style="stop-color:#d8bbc5"/><stop offset=".5" style="stop-color:#c3a6b6"/><stop offset=".8" style="stop-color:#a385a0"/><stop offset=".8" style="stop-color:#a688a2;stop-opacity:.7052"/><stop offset=".9" style="stop-color:#b092a9;stop-opacity:.4718"/><stop offset=".9" style="stop-color:#c0a3b4;stop-opacity:.2595"/><stop offset="1" style="stop-color:#d7bac4;stop-opacity:.0608"/><stop offset="1" style="stop-color:#e0c3ca;stop-opacity:0"/></radialGradient><path d="M79.1 84.2c7.3 16.8-3 27-3 27 9.5-4.8 11.5-14.9 11.6-22.6 0-10.4-6.3-21.4-9-27-2.9-5.4-9-15.7-9-15.7s-.4 2.9-.3 10 5.5 18.9 9.7 28.3" style="fill:url(#g)"/></svg>