<svg xml:space="preserve" width="16" height="16" viewBox="0 0 128 128"><path d="M124 71.5c0-4.3-5.3-6.8-18.4-8.7a320 320 0 0 0-41.7-2.3c-17.4 0-32.1.8-42.5 2.3C9.1 64.7 4 67.2 4 71.5v37.7c0 7.3 26.8 14.3 60 14.3 33 0 59.9-7 59.9-14.3z" style="opacity:.6;fill:#4fc3f7"/><g style="opacity:.7"><path d="M64 63.8c34 0 56.8 3.4 56.8 7.7s-26 7.8-56.9 7.8-56.7-3.5-56.7-7.8 20.2-7.7 56.7-7.7m0-3.3c-17.4 0-32.1.8-42.5 2.3C9.1 64.7 4 67.2 4 71.5c0 3.6 3.3 6.5 19.6 8.7 10.9 1.5 25.2 2.3 40.3 2.3a317 317 0 0 0 40.5-2.3c16.2-2.2 19.6-5 19.6-8.7 0-4.3-5.3-6.8-18.4-8.7a319 319 0 0 0-41.7-2.3" style="fill:#fff"/></g><linearGradient id="a" x1="58.4" x2="148.6" y1="110" y2="110" gradientUnits="userSpaceOnUse"><stop offset="0" style="stop-color:#c62828"/><stop offset="1" style="stop-color:#b02424"/></linearGradient><path d="M121.1 100.5v6.4c0 7-25.6 12.6-57.2 12.6S6.8 113.8 6.8 107v-6.4z" style="fill:url(#a)"/><ellipse cx="63.9" cy="100.1" rx="57.2" ry="9.3" style="fill:#ff5252"/><path d="M42.5 98.7c-.3-2-5.5-4.8-12-4.8-5 0-9.3 1.7-11 3.4 0 0-3.5.5-5.5 1-1.2.4-1.6 1.4-.3 2 1.6.6 3.2 0 5 .9.8.4 1 1.6 5 2l3.1.1q2-.1 3.8.4c.5.1 2.6 1 4.3.7 3-.5 3-1.2 3.7-1.5s2.2-.8 3-.8c1.2 0 5.4-1 5.4-2 0-.8-2-.6-4.5-1.4m37-7.2c-1.5-1.4-5-2.8-9-2.8a15 15 0 0 0-8.7 2.4c-2.4.5-4 1.3-4 2 0 1.6 5.5 2.8 12.2 2.8s12-1.2 12-2.7q-.1-1-2.5-1.7" style="fill:#e8f5e9"/><radialGradient id="b" cx="70.5" cy="92.7" r="11.8" gradientTransform="matrix(1 0 0 .394 0 53.42)" gradientUnits="userSpaceOnUse"><stop offset=".6" style="stop-color:#00bfa5"/><stop offset="1" style="stop-color:#00bfa5;stop-opacity:0"/></radialGradient><path d="M80.2 92.8c0 1.7-4.4 2.2-9.8 2.2s-9.7-.5-9.7-2.2 4.3-4 9.7-4 9.8 2.3 9.8 4" style="fill:url(#b)"/><radialGradient id="c" cx="30.6" cy="100.5" r="14.5" gradientTransform="matrix(1 0 0 .394 0 55.81)" gradientUnits="userSpaceOnUse"><stop offset=".6" style="stop-color:#00bfa5"/><stop offset="1" style="stop-color:#00bfa5;stop-opacity:0"/></radialGradient><path d="M42.5 98.9c0 2.1-5.3 2.7-12 2.7s-12-.6-12-2.7 5.4-5 12-5 12 2.9 12 5" style="fill:url(#c)"/><path d="m111.3 98.7-.5.4-.2.6c-.3 1-2 1.7-3.8 2q-2.8.3-5.4.8-2.6 1-5.4 1.4l-5.6-.4-6-.1c-2 0-3 .5-6.3 0-1.4-.2-2.3-1.6-3.8-2-1.2-.2-3.7-.5-4.3-1.7q-1-1.5 2.3-2.8 2-1 4.4-1.6c4.5-1 9.6-1.4 14.4-1.4q7 0 13.5 1.2c2.1.4 8.6 2 6.8 3.5" style="fill:#f3e5f5"/><radialGradient id="d" cx="92.6" cy="96" r="20.8" gradientTransform="matrix(.918 0 0 .37 5.59 57.8)" gradientUnits="userSpaceOnUse"><stop offset=".6" style="stop-color:#ea80fc"/><stop offset="1" style="stop-color:#ea80fc;stop-opacity:0"/></radialGradient><path d="M105.9 97.3c0 2.8-6.9 5-15.3 5s-15.2-2.2-15.2-5 6.8-6.1 15.2-6.1 15.3 3.4 15.3 6.1" style="fill:url(#d)"/><path d="M12 76.3s5.6 1.9 17.8 3" style="fill:none;stroke:#fff;stroke-width:3.067;stroke-linecap:round;stroke-miterlimit:10"/><ellipse cx="48.4" cy="95" rx="4.3" ry="1.4" style="fill:#ffebee"/><ellipse cx="51.2" cy="104.6" rx="3.7" ry="1.2" style="fill:#ffebee"/><ellipse cx="60.7" cy="101.3" rx="6.7" ry="2.1" style="fill:#ffebee"/><g style="opacity:.46"><path d="M31.6 121.1a74 74 0 0 1-19.2-4.9v-38s8.7 2 19.2 2.9z" style="fill:#fff"/></g></svg>