<svg xml:space="preserve" width="16" height="16" viewBox="0 0 128 128"><linearGradient id="a" x1="77" x2="120.1" y1="74.8" y2="94.1" gradientUnits="userSpaceOnUse"><stop offset=".1" style="stop-color:#ffbfd6;stop-opacity:.0378"/><stop offset=".6" style="stop-color:#ffbfd6"/></linearGradient><path d="M118 47c-3 9.5-5.3 29.1-37 35.7l-24.5 30.8c64.6-2.6 65.7-47.3 64.4-66 0-1.7-2.4-2-3-.4" style="fill:url(#a)"/><linearGradient id="b" x1="75.8" x2="8.2" y1="24.7" y2="32.6" gradientUnits="userSpaceOnUse"><stop offset=".1" style="stop-color:#ffbfd6;stop-opacity:.0378"/><stop offset=".5" style="stop-color:#ffbfd6"/></linearGradient><path d="M77.1 12.1s-16-7-41 4A41 41 0 0 0 11 48c-.2 1 1 1.4 2 0a44 44 0 0 1 29-18c22.6-5.4 35 3 35 3z" style="fill:url(#b)"/><path d="M65.2 49.1c-15 0-20.6 15.4-20.6 15.4S39.1 49.1 24 49.1c-11.4 0-24.4 9-19.6 29.6 4.8 20.5 40.2 46 40.2 46s35.4-25.5 40.2-46S77.5 49 65.2 49" style="fill:#ef5592"/><path d="M21.7 50.7c11.8 0 17.7 12.7 19.5 17.8.3.8 1.3.8 1.6 0l1.8-4A21 21 0 0 0 24 49.1c-4.8 0-9.8 1.6-13.7 5q5.4-3.5 11.4-3.4m43.5-1.6q-5.5.2-9.3 2.7 2.7-1 6-1.1c11.2 0 21.2 8.4 16.7 28-3.9 16.7-26.5 37-33.4 44.8-.4.5-.6 1.3-.6 1.3S80 99.2 84.9 78.7 76.6 49 65.2 49" style="fill:#da2e75"/><path d="M12.3 60c2.6-3.2 7.2-5.8 11-2.8 2.2 1.7 1.3 5-.6 6.5-2.8 2.1-5.1 3.4-6.8 6.6q-1.4 3-2 6.3c0 .9-1.2 1.1-1.6.4-3-5.2-3.7-12.3 0-17m41.3 6.8c-1.2 0-2-1.2-1.6-2.3q1.2-3 3.2-5.9c1.8-2.6 5.4-4.1 7.7-2.5s2 4.9.4 6.4c-3.5 3.4-8 4.3-9.7 4.3" style="fill:#f386ab"/><path d="M109.2 5.2C98 5.2 93.8 16.7 93.8 16.7s-4-11.5-15.3-11.5c-8.5 0-18.2 6.8-14.6 22 3.5 15.4 30 34.5 30 34.5s26.3-19.1 30-34.4c3.5-15.3-5.5-22-14.7-22" style="fill:#ef5592"/><path d="M76.7 6.4c8.9 0 13.2 9.5 14.6 13.3.2.5 1 .6 1.2 0l1.3-3A16 16 0 0 0 78.5 5.2c-3.6 0-7.3 1.2-10.2 3.7 2.5-1.7 5.6-2.5 8.4-2.5m32.5-1.2q-4 .1-7 2 2.2-.8 4.6-.8c8.3 0 15.7 6.3 12.4 20.8-2.9 12.5-19.7 27.7-24.9 33.5-.3.4-.4 1-.4 1s26.3-19.1 30-34.4c3.5-15.3-6.2-22-14.7-22" style="fill:#da2e75"/><path d="M69.8 13.4C71.7 10.9 75 9 78 11.1c1.6 1.3 1 3.8-.5 4.9-2 1.5-3.8 2.5-5 5q-1.2 2.1-1.5 4.6c0 .7-1 .8-1.3.3-2.1-3.9-2.7-9.1 0-12.6m30.9 5.1c-1 0-1.6-.9-1.2-1.7q1-2.3 2.3-4.4c1.4-2 4.1-3.1 5.8-2 1.7 1.3 1.5 3.7.3 5a11 11 0 0 1-7.2 3.1" style="fill:#f386ab"/></svg>