<svg xml:space="preserve" width="16" height="16" viewBox="0 0 128 128"><radialGradient id="a" cx="-528.4" cy="-16.9" r="57" gradientTransform="matrix(-1 0 0 1 -464.8 79.8)" gradientUnits="userSpaceOnUse"><stop offset=".5" style="stop-color:#fde030"/><stop offset=".9" style="stop-color:#f7c02b"/><stop offset="1" style="stop-color:#f4a223"/></radialGradient><path d="M63.6 7c27.9 0 58 17.5 58 55.9s-30.1 55.9-58 55.9a61 61 0 0 1-40.4-14.4C11.7 94.2 5.6 79.8 5.6 62.9s6.1-31.2 17.6-41.4A61 61 0 0 1 63.6 7" style="fill:url(#a)"/><path d="M83.2 84.9c4.1 0 8-3.6 8-9.5 0-5.8-3.9-9.4-8-9.4-4.2 0-8 3.6-8 9.4 0 6 3.8 9.5 8 9.5" style="fill:#422b0d"/><path d="M83.6 81c1 .7 2.5.4 3.5-1q1.4-2.5-.3-3.7c-1-.7-2.6-.5-3.6 1s-.7 3 .3 3.6" style="fill:#896024"/><path d="M44.8 84.9c4.2 0 8-3.6 8-9.5 0-5.8-3.8-9.4-8-9.4s-8 3.6-8 9.4c0 6 3.8 9.5 8 9.5" style="fill:#422b0d"/><path d="M45.2 81c1 .7 2.6.4 3.6-1s.6-3-.4-3.7-2.6-.5-3.6 1-.6 3 .4 3.6" style="fill:#896024"/><path d="M64.2 34.2c10.7 0 19.1 5 23.8 10.5q.7.8.3 1.9-.5 1-1.7 1l-.9-.2a45 45 0 0 0-21.5-6.2h-.1a45 45 0 0 0-21.6 6.2q-.4.3-.9.3-1.1-.1-1.6-1.1t.3-2A32 32 0 0 1 64 34.3" style="fill:#422b0d"/><path d="M111.5 29.7a57 57 0 0 1 8.1 30.2c0 16.9-6.1 31.2-17.6 41.4a61 61 0 0 1-40.4 14.5c-18 0-37-7.3-48.2-23a58 58 0 0 0 50.2 26c15.4 0 29.8-5.2 40.4-14.5a54 54 0 0 0 17.6-41.4q-.1-19.2-10.1-33.2" style="fill:#eb8f00"/></svg>