<svg xml:space="preserve" width="16" height="16" viewBox="0 0 128 128"><path d="m123.9 118.8-6.2-16.5-4.3-11.3c-1-3-1.1-4.2-2.7-5.8L98.8 73.4 73.4 98.8l11.8 11.9q1.4 1.4 5.8 2.7l11.3 4.3 16.5 6.1a4 4 0 0 0 5-5" style="fill:#ffecb3"/><path d="m106.8 85.6.2.2z" style="fill:none"/><path d="m118.8 123.9-13.6-5.2s5.6-.3 9.4-4.1 4.2-9.5 4.2-9.5l5 13.7a4 4 0 0 1-5 5" style="fill:#616161"/><path d="M43.2 17.7 37.8 37l-20 6.2L6.3 31.8c-3.1-3-4.6-9.3 3.7-17.6l5-5c7.1-7.1 13.7-6 16.8-2.8z" style="fill:#ef5350"/><path d="m34.3 44.6 10.3-10.3L105 94.5s1.2 5.1-2 8.3-8.4 2-8.4 2z" style="fill:#ffc107"/><path d="m26.7 52.2 58.6 58.6c9.5 2 9-6 9-6l-60-60.2z" style="fill:#ffa000"/><path d="m44.7 34.3 60 60s10.9 0 6-9.2L52.1 26.7z" style="fill:#fdd835"/><path d="M94.3 106 33.7 45.4 35 44l61 61-1.6-.1z" style="fill:#d1762c"/><path d="m105.1 96.2-65-65 1.5-1.4L106 94.3l-1.1.2z" style="fill:#f19534"/><path d="M52.2 26.7s-5.5 8.1-10 12.7C33.5 48 26.7 52.2 26.7 52.2l1.8 1.7a49 49 0 0 0 25.7-25.3z" style="opacity:.2;fill:#4e342e"/><path d="M23.5 51.9q.8.9 2.1.7S33.8 50 42 41.9s10.9-16 10.9-16q.2-1.2-.7-2.2l-8.6-8.6q-.5-.5-1.3-.4h-.6q-1 .2-1.4 1.3s-3.9 7.6-10.4 14-14.3 10.3-14.3 10.3q-1.1.3-1.3 1.3 0 .9.5 1.5z" style="fill:#94d1e0"/><ellipse cx="15.1" cy="15" rx="15" ry="4.5" style="fill:#ff8383" transform="rotate(-45 15.05 15.04)"/><path d="M41.6 21.7a33 33 0 0 1-15.1 14.5q-.8.4-1.3 0-.2-.5.2-1 1.3-2 3.1-3.4A73 73 0 0 0 40 17.6c.6-1 1.6-3 3-1.6 1.2 1.2-.8 4.5-1.4 5.7m-3.7 11.8q-.4.3-.7.9-.3.8.2 1 .4.3 1 .1a10 10 0 0 0 4.6-2.3c2.9-2.4 5.4-5.8 5.6-9.6l-.1-1.3c-1.3-2.5-4 3.1-4.5 4a52 52 0 0 1-6.1 7.2" style="fill:#b9e4ea"/></svg>