<svg xml:space="preserve" width="16" height="16" viewBox="0 0 128 128"><path d="M100 64.6H28c-7.7 0-14 7-14 15.4s6.3 15.4 14 15.4h72c7.7 0 14-7 14-15.4s-6.3-15.4-14-15.4" style="fill:#edc391"/><path d="M64 12.5C29.3 12.5 20 37 20 72c0 34.8 17 52 44 52s44-17.2 44-52c0-35-9.3-59.4-44-59.4" style="fill:#f9ddbd"/><path d="M43 57.4q-1 0-1.4-1-.4-1.3.8-2c.4 0 9.1-3.5 21.3-3.5 12 0 21.4 3.4 21.8 3.6q1.3.5 1 1.9-.7 1.3-2 .9s-9.3-3.4-20.8-3.4-20 3.3-20.2 3.3zM79 49l-.5-.1s-6.8-2.1-14.5-2.1-14.4 2-14.5 2a1.5 1.5 0 1 1-1-2.8c.4 0 7.4-2.2 15.5-2.2s15.1 2.1 15.4 2.2a1.5 1.5 0 0 1-.4 3M43 90.5q-4.2 0-7.4-2.5-1-1-.2-2.2 1-1 2.2-.1c3 2.5 7.7 2.5 10.6 0q1.2-.8 2.2.1.7 1.2-.2 2.2-3.2 2.5-7.3 2.5m42.1 0c-2.5 0-5.2-.8-7.2-2.5q-1-1-.2-2.2 1-1 2.1-.1c3 2.5 7.8 2.5 10.7 0q1.2-.8 2.1.1.8 1.2-.1 2.2-3.2 2.5-7.3 2.5m-44.5 14.8q-.5 0-1-.4c-.6-.6-.6-1.6 0-2.2l9.5-9.5q1-.9 2.1 0c1.1 1 .6 1.6 0 2.1l-9.5 9.6q-.5.4-1 .4m46.7 0q-.7 0-1-.4l-9.6-9.6c-.6-.5-.6-1.5 0-2s1.5-.7 2.1 0l9.5 9.5c.6.5.6 1.5 0 2q-.5.6-1 .5" style="fill:#edbd82"/><path d="M63.8 4.1c-15.3 0-27.7 7.2-27.7 16s12.4 13 27.7 13 27.8-4.1 27.8-13-12.4-16-27.8-16m32 61.2c-1.3-1.6-4.1-4-9.7-4s-8.4 2.4-9.6 4q-.7 1.2 0 2c.3.5 1.4 1 2.5.6s3.4-1.6 7.1-1.6c3.8 0 6 1.2 7.2 1.6s2.1 0 2.5-.5q.7-1 0-2.1m-43.9 0c-1.2-1.6-4.1-4-9.6-4s-8.4 2.4-9.6 4q-.8 1.2 0 2c.3.5 1.3 1 2.5.6s3.3-1.6 7-1.6 6 1.2 7.2 1.6 2.2 0 2.5-.5q.7-1 0-2.1" style="fill:#9e9e9e"/><radialGradient id="a" cx="63.5" cy="58.4" r="63.8" gradientTransform="matrix(1 .007 -.006 .867 .34 9.35)" gradientUnits="userSpaceOnUse"><stop offset=".4" style="stop-color:#9e9e9e"/><stop offset="1" style="stop-color:#e0e0e0"/></radialGradient><path d="M100.6 27.2C91.8 17.5 69 11.7 64 16.8c-5-5.1-27.7.7-36.6 10.4-9.8 10.8-12 29.4-8.3 45.2.4 1.4 4 1.4 4 0 0-10.4 8.2-25.9 19.7-29.1 5.5-1.6 17.6-2 21.2-9.1 3.6 7.1 15.7 7.5 21.3 9 11.4 3.3 19.6 18.6 19.6 29.2 0 1.4 3.6 1.4 4 0 3.8-15.8 1.5-34.4-8.3-45.2" style="fill:url(#a)"/><ellipse cx="42.3" cy="77.3" rx="6.5" ry="6.7" style="fill:#312d2d"/><ellipse cx="86.1" cy="77.3" rx="6.5" ry="6.7" style="fill:#312d2d"/><path d="m69 89.6-.4-.1H59q-1.3.7-.9 2.2c.4 1 2.3 3.5 6 3.5s5.6-2.6 6-3.5 0-1.8-1-2.1" style="fill:#dba689"/><path d="M75 100a33 33 0 0 1-22 0c-2.5-1.5-5 .7-4 3 1 2 8.5 7 15 7s13.9-5 14.9-7c1-2.3-1.5-4.5-3.9-3" style="fill:#444"/></svg>