<svg xml:space="preserve" width="16" height="16" viewBox="0 0 128 128"><path d="m79.8 71.2-22.8 4L49 96c-.5 1.3-.5 3.4 1.5 3.4l16-.1-3.4 17c-.2 1.4 1.3 2.6 2.6 1.2s19.5-24.9 20.3-26c1.4-2 0-4-1.5-4l-12.3.1z" style="fill:#feca18"/><path d="m73.7 75-5.3 12c-.5 1.8 2 2.6 2.6 1l6.8-14zM50.8 96.3l14.1-.1c1.8-.2 2.1 2.3 0 2.3l-14.4.1c-1.6.1-1.9-2.2.3-2.3" style="fill:#fdb900"/><path d="m60 76-6.4 16c-1.4 4.8 3.7 4.6 5 2 .7-1.4 7.2-15 7.4-17.5s-6-.6-6-.6m2.5 15.3c-.8-.6-1.9-.1-2.5.9s-1.6 2.6-.1 3.4c1.2.8 2.3-.7 2.8-1.4s1.1-2-.2-3m9.5 3.3c-2.2-.5-3 1.4-3.4 3.7-.5 2.2-2.4 9.5-2.7 11.3-.5 2.5 1.8 2.9 2.8.5.8-1.7 4-9.5 4.4-10.8.6-1.9 1.3-4.2-1-4.7" style="fill:#ffe36a"/><path d="M107.4 50.2s1.2-34.8-27.5-39C53 7.2 48.2 32.6 48.2 32.6s-11.7-2.7-18 4.8-6.5 13.2-6.5 13.2S6.1 49 4.6 63.3 16 71.7 16 71.7L123.3 67s2.9-8-4.7-13.7c-4.5-3.4-11.2-3.1-11.2-3.1" style="fill:#e4eaee"/><radialGradient id="a" cx="65.4" cy="79.1" r="29.3" fx="52.3" fy="79.2" gradientTransform="rotate(-88.3 45.16 98.74)scale(1 1.498)" gradientUnits="userSpaceOnUse"><stop offset=".2" style="stop-color:#ffe366"/><stop offset=".3" style="stop-color:#eddd82"/><stop offset=".6" style="stop-color:#d0d4ad"/><stop offset=".8" style="stop-color:#bfcfc7"/><stop offset=".9" style="stop-color:#b8cdd1"/></radialGradient><path d="M58.8 55.7c.8-.3 6 4.2 19.8 3.8s26.6-7.3 26.6-7.3-.7 4.9-2.2 7.3-4.2 5.2-4.2 5.2 7.1 1.7 13.6.8 11.3-3.9 11.3-3.9.8 3.2.3 6.3c-.8 4-4.3 7-7.2 7.4a1105 1105 0 0 1-101.5 2.2c-5-.6-8.9-2.8-10.3-7.2C4 67 4.4 65 4.4 65s6.4 2.7 11.6 1.8c6.5-1.1 10-6.2 10-6.2s6.3 3.3 15.5 2.1 17.3-7 17.3-7" style="fill:url(#a)"/></svg>