<svg xml:space="preserve" width="16" height="16" viewBox="0 0 128 128"><path d="m33.3 123.9 61.4.1q2-.2 2.2-2V6.1c0-1-1-2-2.2-2L33.3 4q-2 .2-2.2 2v115.9c0 1 1 2 2.2 2" style="fill:#b06542"/><path d="M78.7 20.7V51H49.3V20.7zm5-5H44.3V56h39.2z" style="fill:#874d36"/><path d="m83.6 15.9-5 4.8h.1V51h-29l-5.3 5h39.2z" style="fill:#c87d5e"/><path d="M78.7 79v28.3H49.3V79zm5-5H44.3v38.3h39.2z" style="fill:#874d36"/><path d="m83.6 74.1-5 4.9h.1v28.3h-29l-5.3 5h39.2z" style="fill:#c87d5e"/><circle cx="44.2" cy="66" r="5.3" style="fill:#874d36"/><circle cx="42.1" cy="64.5" r="5.3" style="fill:#bdbdbd"/><path d="M43.4 61.1q0 1-.8 1.4T40.9 64q-.4 1-1 1.8-1 .5-1.5-.4c-.5-1-.5-2.6.7-4 1.2-1.2 4-2 4.3-.3" style="fill:#eee"/></svg>