<svg xml:space="preserve" width="16" height="16" viewBox="0 0 128 128"><path d="m66.1 68.3 56-29.2v-1.3L60 10.9h-1L4.9 39.6q-.3.1-.3.6v53q0 .8.9 1.4l1.6.9c1.6.7 56 29.2 57.8 28.6q.8-.3 1.2-1z" style="fill:#1976d2"/><path d="M64.7 67.3c6.7-3.2 57.6-27.8 57.5-29.4l-62.4-27h-.7L4.9 39.4q-.3.2 0 .4l58.4 27.4q.7.3 1.4 0" style="fill:#039be5"/><path d="M122.7 94.4 66 123.7c-1 .4-2-.2-2-1.2V68.9c0-1.2.9-1.7 1.3-2L121.5 38c.9-.5 2-.1 2 1.2v54q0 .8-.8 1.2" style="fill:#0d47a1"/><path d="M74.9 46.1 42.6 30l6-3L81 43z" style="fill:#212121"/><path d="M78.2 41.7 54.4 29.8s5.4-5 17.4-11.3c.5-.2 2.7-1.5 3.2-1.3l28.2 12.3a64 64 0 0 0-25 12.2M48.7 28.8 79 44l1.8-1-32.2-16-6 3 1.7.9z" style="fill:#0d47a1"/><path d="M99 18c-11.7 7-26.6 26.9-26.6 26.9L47.6 32.5S60.8 10.9 76.1 4.2q.8-.4 1.5 0l21.2 11.2c1.1.6 1.1 2 .2 2.5" style="fill:#dfecf5"/><path d="m64 74.9-59.4-28v2.2L64 77l.4-.2z" style="opacity:.7;fill:#0d47a1"/><path d="M64 74.9V77l59.5-30.5v-2.2z" style="fill:#0a3160"/><path d="M39.2 48.1c0-3.4 2.1-4.1 4.7-4.1s4.6.8 4.6 4.1c0 1.6-2 2.8-4.6 2.8s-4.7-1.2-4.7-2.8" style="fill:#616161"/><ellipse cx="43.9" cy="46.6" rx="4.4" ry="2.8" style="fill:#e0e0e0"/></svg>