<svg xml:space="preserve" width="16" height="16" viewBox="0 0 128 128"><path d="M116.5 45.7H13.1l5.7-18.2h90z" style="fill:#37474f"/><path d="M122.9 55.3 112 29a4 4 0 0 0-4-2.8H20a4 4 0 0 0-4 2.8L5.1 55.3a2 2 0 0 0 1.8 2.5h114.2a2 2 0 0 0 1.8-2.5m-7.4-1.5h-103a2 2 0 0 1-1.8-2.5l8.5-19.7a3 3 0 0 1 2.8-2h84a3 3 0 0 1 2.8 2l8.5 19.7a2 2 0 0 1-1.8 2.5" style="fill:#82aec0"/><path d="M5 56.1v65.4q.2 2.3 2.5 2.5h113q2.3-.2 2.5-2.5V56z" style="fill:#37474f"/><path d="M106.7 56.1V24.2q-.1-1.6-1.6-1.7v-6.3c0-1.4-1.2-2.6-2.6-2.6H85.2a2.6 2.6 0 0 0-2.6 2.6V18c0 2.5-2 4.5-4.6 4.5H23.7a2.5 2.5 0 0 0-2.4 2.5v31z" style="fill:#f3ab47"/><path d="M105 22.6v-6.4c0-1.4-1-2.6-2.5-2.6H85.2a2.6 2.6 0 0 0-2.6 2.6V18c0 1.8-1.3 4-4 4.6z" style="fill:#7cb342"/><path d="M21.3 27.5h85.5v5.2H21.3z" style="opacity:.75;fill:#de7340"/><path d="M112.4 56V32.9c0-1.6-1.3-2.8-2.8-2.8H81.9a5 5 0 0 1-5.2-5.2v-2a3 3 0 0 0-2.9-2.9H54.2a3 3 0 0 0-3 3v2a5 5 0 0 1-5 5H18.3a3 3 0 0 0-2.8 2.9v23z" style="fill:#ffca28"/><path d="M76.7 25v-2a3 3 0 0 0-2.9-3H54.2a3 3 0 0 0-3 3v2a5 5 0 0 1-5 5h35.7a5 5 0 0 1-5.2-5" style="fill:#0288d1"/><path d="M12.7 38.1h99.7v5.2H12.7z" style="fill:#f3ab47"/><path d="M117.4 56V43.8a3 3 0 0 0-3-3h-68a5.7 5.7 0 0 1-5.6-5.8v-2.2c0-1.8-1.5-3.2-3.2-3.2H15.9a3 3 0 0 0-3.2 3.2v8a2 2 0 0 0-2 2V56z" style="fill:#ffe36c"/><path d="M40.8 35v-2.2c0-1.7-1.5-3.2-3.2-3.2H15.9a3 3 0 0 0-3.2 3.2v8h33.8a5.7 5.7 0 0 1-5.7-5.8" style="fill:#f44336"/><path d="M117.4 51.3c.3 2.3-.6 2.5-2 2.5H12.6c-1.3 0-2.2.1-1.9-2.3l-4 .1-1.5 3.7A2 2 0 0 0 7 57.8h114.2a2 2 0 0 0 1.8-2.5l-2-4.3z" style="fill:#82aec0"/><path d="M46.5 82.7h33.4v17.4H46.5z" style="fill:#fafafa"/><path d="M77 86.4s-1.3 2.7-1.4 6.2c0 4.1 1.6 7.7 1.6 7.7l-28.1-.3s1.8-2.8 1.9-6.7c0-3.7-1.5-7-1.5-7zm1.8-4H48a3 3 0 0 0-3.2 3.1v15.6c0 1.8 1.4 3.2 3.2 3.2h30.8c1.7 0 3.1-1.4 3.1-3.2V85.6c0-1.8-1.4-3.2-3.2-3.2" style="fill:#263238"/><path d="M78 84.6s-2 2.9-2 6.4 2 7.5 2 7.5H48.7s1.8-3.7 1.8-7-1.8-7-1.8-7zm.8-4H48a3 3 0 0 0-3.2 3.1v15.6c0 1.8 1.4 3.2 3.2 3.2h30.8c1.7 0 3.1-1.5 3.1-3.2V83.7c0-1.7-1.4-3.2-3.2-3.2" style="fill:#9e9e9e"/><path d="M48 81.9h12.1" style="fill:none;stroke:#c9e3e6;stroke-width:2;stroke-linecap:round;stroke-miterlimit:10"/></svg>