<svg xml:space="preserve" width="16" height="16" viewBox="0 0 128 128"><path d="m3.7 43.1 17 .2V32.5q.1-1 1.6-1H34S38 12 64.5 12c25.1.1 30 19.4 30 19.4l11.9.1q1.1.1 1 1.4v10.3h16.9l-.8 1.9-5 8.2H9.4z" style="fill:#fadbbc"/><path d="M20.6 51.7H9.9s-4.5-7.4-5-8c-.5-.7-1.6-.6-2-.5-.7 0-.2 1.1.6 2.2l4 6.4v72h113.1l.1-71.7 4.4-7.2c.4-.6 1-1.7.3-1.7-.8 0-1.7-.2-2.5 1l-4.6 7.2h-10.8V40.2H91s-.6-22.9-27.1-22.7c-26.6.2-26.3 22.7-26.3 22.7H20.7z" style="fill:#b99277"/><path d="M9.9 56.2h10.5v44.3H9.9zm13.2-11.5V89l82-.1v-44H85.8s1.4-22.4-21.4-22.7c-23.7-.2-22 22.3-22 22.3z" style="fill:#e2c090"/><path d="M42.5 44.5h-6.2V124h6.4zm43.3.4h6.4v79h-6.7s.5-79.4.3-79" style="fill:#fadbbc"/><path d="M118.3 56.6h-10.4v43.9h10.3z" style="fill:#e2c090"/><path d="M50.2 99.5v24.7h28V98.7z" style="fill:#ffa828"/><path d="M52.8 102.7v18.6h9.9v-18.6zm12.7.2h9.8l.2 18.4h-10z" style="fill:#546f7a"/><path d="M20.7 99c0 .3 0 26.6.2 26.9s7.5.3 7.8 0v-27zm79 .3s-.3 25.4-.1 26c0 .3 7.3.5 7.7.2.3-.2.3-26.3.3-26.3z" style="fill:#faddc3"/><path d="M113.8 117c-1.5-.1-4.6-1.5-4.3-6.3s2.7-7.4 4.3-7.5 4.2 4.1 4.2 7.6q-.1 6.1-4.2 6.1m-99.1-13.6c-1.5 0-4.5 4-4.4 8.3.1 4.6 2.6 5.7 4.2 5.8s4.4-1.8 4.2-6-2.6-8.2-4-8.1" style="fill:#2f7c31"/><path d="M11 116.6c-.2.4 0 7.3 0 7.3h6.8v-7.3c0-.2-6.8-.2-6.8 0m99.2-.3c0-.3 6.9-.2 7 0l-.1 7.6h-6.9z" style="fill:#e2c090"/><path d="m19.4 92 .1 6.7c.1 1 0 2 2.1 2h85.8c1 0 2.2-.6 2.3-2.2.1-1.5 0-6.4 0-6.4l-46.3-1.6z" style="fill:#af0c1a"/><path d="M109.8 92.1v-2.9q.1-1-2.3-1.2l-86.3-.2c-1.8 0-1.7 1-1.8 1.8v2.3z" style="fill:#fadbbc"/><path d="M46.9 37.6h8.6v45.6h-8.6zm26.1 0h8.6v45.6H73zM54.2 56.4h20v9h-20z" style="fill:#6c1507"/><path d="M95.7 46.6h6.4v10.1h-6.4zm0 14h6.4v10.1h-6.4zm0 14.3h6.4V85h-6.4zm-69-27.8h6.4v10.1h-6.4zm0 14h6.4v10.1h-6.4zm0 14.2h6.4v10.1h-6.4zM11.9 61.2h6.4v10.1h-6.4zm0 14.2h6.4v10.1h-6.4zm98-14.7h6.4v10.1h-6.4zm0 14.2h6.4V85h-6.4z" style="fill:#536f79"/></svg>