<svg xml:space="preserve" width="16" height="16" viewBox="0 0 128 128"><path d="M109.1 39.6c.2 1 1 3.6.5 4.8l-3 7.9c-.7 2 .5 4.3 2.7 5.2s4.7 0 5.5-2l3-8c.6-1.2 2.6-2.7 3.4-3.3a1 1 0 0 0-.3-1.8q-4.7-1.7-10.4-4a1 1 0 0 0-1.4 1.2" style="fill:#616161"/><path d="m114.8 55.4 2.8-7.2s-3 2-9-.8l-2 4.9c-.7 2 .5 4.3 2.7 5.2s4.7 0 5.5-2" style="fill:#212121"/><path d="M119 53.8a1 1 0 0 0-.2-1.3l-14.4-5a6 6 0 0 1-3.2-3.2c-1.7-4.2-5.8-7-7.3-7.5l-3.5 2-6.6 15.5L86 58c1.6.6 6.3 1.4 10.2-.6q2.3-1 4.7-.3l9.9 3.2q1.3.4 2.3-.6z" style="fill:#616161"/><path d="M94 36.8 32.9 12c-1 2.3-8.8 21.4-9 23.3L85.8 58c2.3 1 6-3 8.3-9 2.3-5.8 2.2-11.3-.1-12.2" style="fill:#cfd8dc"/><path d="M27 36.6 85.9 58q1.9.6 4.2-2l-14.8-6s5-5.4 1.1-12.2L68 47.2 29 31.5z" style="fill:#bdbdbd"/><ellipse cx="14.6" cy="18.4" rx="15.3" ry="6.5" style="fill:#cfd8dc" transform="rotate(-69 14.59 18.44)"/><path d="M42.8 13.7c-3.2-1.3-8.1 3.8-11 11.4-3 7.5-2.7 14.6.5 15.8s8.2-3.8 11-11.4c3-7.5 2.7-14.6-.5-15.8m0 0L20.1 4.2 9 32.7l23.2 8.2z" style="fill:#616161"/><ellipse cx="13.8" cy="18.1" rx="12.5" ry="4.8" style="fill:#212121" transform="rotate(-69 13.79 18.15)"/><linearGradient id="a" x1="22.4" x2="12" y1="40.3" y2="35.7" gradientTransform="rotate(21 64.05 32.16)" gradientUnits="userSpaceOnUse"><stop offset="0" style="stop-color:#1565c0"/><stop offset=".1" style="stop-color:#2574c5"/><stop offset=".7" style="stop-color:#69b5d8"/><stop offset="1" style="stop-color:#84cfe0"/></linearGradient><path d="M12.4 17.6c1.8-4.6 5-8 8.2-8.4.4 0-.3 6.7-2.5 12-1.9 4.7-5.3 8.2-5.5 7.8-1.9-2.6-1.9-7-.2-11.4" style="fill:url(#a)"/><path d="m17.5 30.8 15.9 6c2.9 1 5 1.2 6.5-.7 1.8-2.3 2.2-3.4 2.8-5 1-2.2-1.5-4-2.4-4.3l-17.2-7.1q-1.7-.6-2.8 1l-4 7a2.2 2.2 0 0 0 1.2 3.1" style="fill:#212121"/><path d="M20 4.2c-3.3-1.3-8.4 4-11.5 11.9s-2.7 15.3.6 16.6 8.5-4 11.5-12c3-7.8 2.8-15.2-.5-16.5M9.8 28.8c-2-.8-1.8-6.2.4-12 2.3-6 5.8-10 7.8-9.3s1.8 6.2-.4 12c-2.3 6-5.8 10-7.8 9.3" style="fill:#9e9e9e"/><path d="M56 55.2c0 3.7 2 6.7 4.5 6.7s4.4-3 4.4-6.7q-.1-3.7-2-5.7H58a8 8 0 0 0-2 5.7m9 4c-1.1 0-3.5 2.1-3.5 4l.7 27.8.9 4 .2 25.5c0 1.7 1.4 3.1 1.4 3.2l.4.3.3-.3s1.6-1.5 1.6-3.2V94.8l1-4.2.6-28.3c0-1.8-2.3-3-3.5-3m-1-4.6c-1 .6-2 3.7-1.1 5.2l15.4 25.5 2.8 3.1 13 22a5 5 0 0 0 2.8 2h.5l.1-.4s.6-2-.2-3.5L84.5 86.3l-1.2-4-14.6-26.7c-1-1.5-3.5-1.5-4.6-.9m1.8 0c1 .6 2 3.7 1 5.2L51.6 85.5l-2.8 3.1-12.9 22a5 5 0 0 1-2.8 2h-.5l-.1-.4s-.7-2 .2-3.5l12.8-22.3 1.3-4 14.6-26.7c.9-1.5 3.5-1.5 4.6-.9M59.6 62s9.8 1.2 11.5.5c2.2-.8 3.9-3.7 3.7-7-.1-3.4-3-6-3.3-5.8 2-.8 3.8-2.5 5-7q.9-2.8.3-4.5-1.2-2.6-3.1-2.1c-1.2.3-1.7 2-2 3q-1 3.1-2.8 5.9a12 12 0 0 1-8 4z" style="fill:#82aec0"/><path d="m58.4 61 3.3.7v7L60 71.4s.3-3.8 0-5.8c-.3-3-1.6-4.5-1.6-4.5m10.8 9s.7-2.3 3.3-2.3c2.7 0 4.2 2.3 4.2 2.3L72.2 62s-1.4 1.3-3.6 1.4l-.1 5.6z" style="fill:#2f7889"/><ellipse cx="67.9" cy="56.1" rx="5.7" ry="6.3" style="fill:#b9e4ea"/><ellipse cx="68.3" cy="56.1" rx="2.5" ry="2.8" style="fill:#2f7889"/><path d="m56.3 47.3 4.7 1.6s5.6-.8 8-4c2.2-3.1 3-7.5 3.4-8q.8-1 2-.8l.8.2s-1.5-.1-1.9 1.5-1.9 6.3-3.8 8.3c-2 2-5.1 3-6.1 3.5s-2.2 4.6-3.7 5.3-3.5-.1-3.4-1.7 1.3-3.3 1.3-3.3z" style="fill:#2f7889"/><path d="m50.9 24.3 18.1 7" style="fill:none;stroke:#fff;stroke-width:3;stroke-linecap:round;stroke-linejoin:round;stroke-miterlimit:10"/></svg>