<svg xml:space="preserve" width="16" height="16" viewBox="0 0 128 128"><path d="m65.8 111.4-13.4.6c-4.5-.1-6-1.5-7.6-5.6l-3.4-8.6 6.3-1.3 3 7.5a2 2 0 0 0 2 1.2l10.4-.7c3-.3 3.4-2 2.8-3.6l-3.2-8 8-2.8 3.5 8.8c1 2.8 1.8 5.8.6 8.3-1.5 2.9-3.8 4-9 4.2" style="fill:#82aec0"/><path d="m41.6 98.4 1.9 4.6s.7-1 3-1.3c2.6-.2 3.6 1 3.6 1l-1.8-4.8zM64.4 97l8.8-.7c1.2 2.6 1.7 4.7 1.7 4.7s-1.8-1.6-5.3-1.4c-2.4.2-3.5 2-3.5 2z" style="fill:#2f7889"/><ellipse cx="15.3" cy="86.2" rx="9.9" ry="17.9" style="fill:#b8dade" transform="rotate(-21.6 15.33 86.2)"/><path d="M26.6 94.5c-2-1.5-7.3 2.6-7.3 2.6-.7 4.7-6 3.4-6 3.4q4.6 3.8 8.6 2.4c2.8-1.1 4.4-4.3 4.7-8.4" style="fill:#82aec0"/><path d="m81 14.6-67.6 55c-2.7 1.9-4 9.2-.7 17.6s9.4 13.3 12.6 12.2l86.9-6c9.4-3.7 10-24.4 1.4-46.1S90.4 10.9 81 14.6" style="fill:#f44336"/><path d="M95.2 80.5c3.2 4.7-2 5-22.5 8.4L19.4 97c1.3 1.2 3.9 3 6 2.3 0 0 85.3-5.3 86.9-6zM73.4 27.7c1.4-1 3.4-2.5 3.9-5.2.2-1.4.4-3 .7-3.7.7-1.4 3.2-4.6 3.2-4.6L13.4 69.6C11.6 71 11.3 73 11.3 73c10.4-7.8 51.8-37.8 62-45.3" style="fill:#c62828"/><ellipse cx="100.5" cy="52.5" rx="18.1" ry="44.8" style="fill:#b8dade" transform="rotate(-21.6 100.45 52.49)"/><ellipse cx="102.6" cy="51.6" rx="11.9" ry="37.1" style="fill:#2f7889" transform="rotate(-21.6 102.62 51.63)"/><linearGradient id="a" x1="115.7" x2="103.1" y1="83.1" y2="52.9" gradientUnits="userSpaceOnUse"><stop offset="0" style="stop-color:#353738"/><stop offset="1" style="stop-color:#353738;stop-opacity:0"/></linearGradient><path d="M116.3 86.2c6-2.4 4.9-19.9-2.6-39L91.5 56c7.6 19 18.6 32.6 24.7 30.2" style="fill:url(#a)"/><path d="M79.7 37.6a36 36 0 0 1-.4-14.9c.3-1 1-2.4 2.2-2.3q1.5.4 1.3 2.4a48 48 0 0 0 1 14c.1 1.1.1 2.6-1.5 3.1-1.3.5-2.4-1.3-2.6-2.3" style="fill:#fff"/><path d="m15 75.5 55.7-37.6c1.7-1 3.8-3 4.3.8.2 2.3.5 4.4.3 7.4-.1 1.9-3.8 3.4-5 4L15 78.7c-.8.5-2.4.9-2.1-.7s1.8-2.3 2.2-2.6" style="opacity:.45;fill:#ffca28"/></svg>