<svg xml:space="preserve" width="16" height="16" viewBox="0 0 128 128"><path d="M94.8 5.4Q94.6 4 93 4a495 495 0 0 1-58 0q-1.5.1-1.7 1.4c-.7 6.3-.4 27.8-.4 27.8v40.4c0 10.7 2 47 2 47 6.6 4.6 18.8 2.8 22.1-.2 0 0 1.6-31.7 2-44a476 476 0 0 1 3.2-37.1q.6-1.7 1.9-1.5 1.3-.1 1.9 1.5c.2 1.3 2.7 22 3.2 37.1.4 12.3 2 44 2 44 3.3 3 15.5 4.8 22 .2 0 0 2-36.2 2-47l.1-40.4s.3-21.5-.4-27.8" style="fill:#174da1"/><radialGradient id="a" cx="86.1" cy="21.4" r="9.7" gradientUnits="userSpaceOnUse"><stop offset="0" style="stop-color:#1976d2"/><stop offset=".9" style="stop-color:#1976d2;stop-opacity:.0514"/><stop offset="1" style="stop-color:#1976d2;stop-opacity:0"/></radialGradient><path d="M91.4 24c-1.2.1-4-.3-7-3-3.4-3.3-3.1-8-3.1-8l.8-.2s.7 4.5 3.9 7.4c3.5 3.3 6.5 2.9 6.5 2.8 0 0 .8 0 1.3-.3s-.1 1.2-2.4 1.3" style="fill:url(#a)"/><radialGradient id="b" cx="60.7" cy="21.4" r="9.7" gradientTransform="matrix(-1 0 0 1 102.68 0)" gradientUnits="userSpaceOnUse"><stop offset="0" style="stop-color:#1976d2"/><stop offset=".9" style="stop-color:#1976d2;stop-opacity:.0514"/><stop offset="1" style="stop-color:#1976d2;stop-opacity:0"/></radialGradient><path d="M36.7 24c1.2.1 4-.3 7-3 3.3-3.3 3-8 3-8l-.7-.2s-.7 4.5-3.9 7.4c-3.5 3.3-6.5 2.9-6.6 2.8 0 0-.7 0-1.2-.3s.1 1.2 2.4 1.3" style="fill:url(#b)"/><path d="M63.4 14c-17 0-30.5-2.7-30.5-2.7v-1.1s13.7 2 30.5 2S93.4 10 95 9.7V11c-.1 0-14.7 3-31.7 3" style="fill:#10356e"/><radialGradient id="c" cx="93.2" cy="12.6" r="11.2" gradientTransform="rotate(-19.3 68.38 16.77)scale(1 1.671)" gradientUnits="userSpaceOnUse"><stop offset=".5" style="stop-color:#10356e;stop-opacity:0"/><stop offset=".9" style="stop-color:#10356e"/></radialGradient><path d="m94.5 21.2.6-10.4-13 1.7s.7 5.5 4.7 8.5l2.9 1.6c2.1.9 4.6 1 4.8-1.4" style="fill:url(#c)"/><radialGradient id="d" cx="50.9" cy="12.6" r="11.2" gradientTransform="rotate(19.3 16.8 269.24)scale(-1 1.671)" gradientUnits="userSpaceOnUse"><stop offset=".5" style="stop-color:#10356e;stop-opacity:0"/><stop offset=".9" style="stop-color:#10356e"/></radialGradient><path d="m33.5 21.2-.6-10.4 13 1.7s-.7 5.5-4.7 8.5l-2.9 1.6c-2.1.9-4.6 1-4.8-1.4" style="fill:url(#d)"/><path d="M68.6 7.4q.3 0 .5.2l.2.3.2.8v.2l-.2.1q-2.3.6-4.5.7l-.5-.1Q64 9.4 64 9c-.5-2.5 3-1.8 4.5-1.7" style="fill:#10356e"/><linearGradient id="e" x1="63.6" x2="64" y1="9" y2="28.1" gradientUnits="userSpaceOnUse"><stop offset="0" style="stop-color:#1976d2"/><stop offset=".9" style="stop-color:#1976d2;stop-opacity:.0514"/><stop offset="1" style="stop-color:#1976d2;stop-opacity:0"/></linearGradient><path d="M59.5 27.8c-.2-2-.4-19.2-.3-20.4q0-2.4 1.5-2.4c2.4-.3 3.5-.2 4.6-.3l2.8.2c-8.1.7-7.3.9-7.2 6.5l.1 19.8c0 .6-1.2 0-1.5-3.4" style="fill:url(#e)"/><circle cx="64.3" cy="8.7" r="2.2" style="fill:#94d1e0"/><radialGradient id="f" cx="47" cy="56.1" r="10.3" gradientTransform="matrix(1.025 .083 -.2 2.473 8.8 -86.83)" gradientUnits="userSpaceOnUse"><stop offset="0" style="stop-color:#bbdefb;stop-opacity:.3"/><stop offset="1" style="stop-color:#bbdefb;stop-opacity:0"/></radialGradient><path d="M56.2 56.5C55 71.1 49.4 82.5 43.7 82s-9.4-12.6-8.2-27S42.3 29 48 29.5s9.3 12.6 8.2 27.1" style="fill:url(#f)"/><radialGradient id="g" cx="86.6" cy="52.7" r="10.3" gradientTransform="matrix(-1.025 .083 .2 2.473 160.35 -81.8)" gradientUnits="userSpaceOnUse"><stop offset="0" style="stop-color:#bbdefb;stop-opacity:.3"/><stop offset="1" style="stop-color:#bbdefb;stop-opacity:0"/></radialGradient><path d="M71.8 56.5c1.2 14.6 6.8 26 12.5 25.5s9.4-12.6 8.2-27.1-6.8-26-12.5-25.5-9.3 12.6-8.2 27.1" style="fill:url(#g)"/><linearGradient id="h" x1="87.1" x2="73.8" y1="27.3" y2="32.2" gradientUnits="userSpaceOnUse"><stop offset="0" style="stop-color:#10356e;stop-opacity:0"/><stop offset="1" style="stop-color:#10356e"/></linearGradient><path d="M70.9 33.2s3-2.8 7.9-4.4c5.1-1.6 8.8-1.3 8.8-1.3s-3.4 2.4-7.7 4-9 1.7-9 1.7" style="fill:url(#h)"/><linearGradient id="i" x1="41.5" x2="54.3" y1="26" y2="30.6" gradientTransform="rotate(6.6 49.88 29.58)" gradientUnits="userSpaceOnUse"><stop offset="0" style="stop-color:#10356e;stop-opacity:0"/><stop offset="1" style="stop-color:#10356e"/></linearGradient><path d="M50 30.4c-4.2-1.9-6.8-4.8-6.8-4.8s2.9.2 7.2 2.2 7 5 7.3 5.4c-.2-.2-3.5-.9-7.7-2.8" style="fill:url(#i)"/><linearGradient id="j" x1="34.1" x2="50.8" y1="28.4" y2="36.2" gradientTransform="rotate(-8.6 45.1 32.7)" gradientUnits="userSpaceOnUse"><stop offset="0" style="stop-color:#10356e;stop-opacity:0"/><stop offset="1" style="stop-color:#10356e"/></linearGradient><path d="M43.7 35.6c-4.8-1.6-7.4-7.2-7.6-7.3a47 47 0 0 0 18.8 7.2s-5.4 2-11.2.1" style="fill:url(#j)"/><path d="M63.2 31.3q-1.1.4-.4-.5l3-3.3q.5-1 .5-3V13h1.5v11.6c0 1.6.3 3.2-1.2 4.3zM45 116.9c-4.7 0-10.5-1.6-10.5-1.6v-1.8s5.9 1.1 10.2 1c5.3 0 12.5-1.2 12.5-1.2v1.6s-7.2 2-12.1 2" style="fill:#10356e"/><path d="M57.9 121.4q0 .8-.7 1c-2 .4-7.2 1.6-12.1 1.6s-9.3-1.1-11-1.6a1 1 0 0 1-.7-1v-5.6q.1-1.2 1-1a48 48 0 0 0 22.7-.2c.7-.2.8.4.8 1z" style="fill:#64b5f6"/><path d="M82.9 116.9c4.8 0 10.5-1.6 10.5-1.6v-1.8s-5.8 1.1-10.2 1c-5.2 0-12.5-1.2-12.5-1.2v1.6s7.3 2 12.2 2" style="fill:#10356e"/><path d="M70 121.4q.1.8.8 1c1.9.4 7.2 1.6 12 1.6 4.9 0 9.3-1.1 11-1.6q.7-.2.7-1v-5.6q0-1.2-1-1a48 48 0 0 1-22.7-.2c-.6-.2-.7.4-.7 1z" style="fill:#64b5f6"/></svg>