<svg xml:space="preserve" width="16" height="16" viewBox="0 0 128 128"><path d="M61 97.5s-7.7 2.4-20.1-.5S11.5 83.2 7 63s3.6-44 26.2-54.8 43.3 2.2 43.3 2.2l10 7.3L93 28.6 96.1 39l-.8 14.4-5 12.8-7.4 9.2L69.6 85z" style="fill:#4bddff"/><path d="M61.4 4.2c-.5.1-.2.9.4 1s5.4 1 9.9 3.3a46 46 0 0 1 17.5 17c5.3 11 5.5 20.2 2.6 31.6a35.4 35.4 0 0 1-36 27C32.2 83.3 21 59.3 26 44.7s15.5-23.2 30.3-21c16.8 2.5 22 16.8 19.2 26.9-3 10-14.3 19-25.5 13.3a13 13 0 0 1-5-19.3c3.3-3.1 8.7-5 12.7-1 3.6 3.7 1.5 7.7-.2 8.8-1.5 1-1.9 0-1.9 1.2s1.4 4 1.4 4l5.7-1.5 4.3-7.8-.8-13-17.7-.4-11.8 4.4-3.7 18 10.7 14.3L58.2 74l15-5.4 8.4-12.9.5-23.2-10.4-10-16.8-7.7-15.7 2.9L19.6 34l-3 27.9 10.6 16.9 15 11 25.6 4.3 21.8-17.3L98.2 61l1.2-10.7s0-8.8-.9-13.6a55 55 0 0 0-12.4-20.6 43 43 0 0 0-24.7-12" style="fill:#fff11b"/><path d="M99 37.5q-.7-1.2-.7.2a79 79 0 0 1-1.2 19.2C95 67.2 83.8 89.5 57 88.9a37 37 0 0 1-36.6-39.7A32 32 0 0 1 45 19.5c17.4-5.2 36.8 8.9 35.3 26.6-1.5 17.6-18 30.3-33.3 21.4-16.5-9.6-7.8-32 6.1-30.6 11.4 1.1 10.8 11 10.2 13.5-1.1 4.2-4.6 4.4-4.6 4.4l6.9-1L67.7 43l-2.5-9-11.4-4.4-12.4 3.3-9.1 11.6-1.7 12.4 7.1 12.4 7.2 6 14.9 2.1 13.8-5.7 9.2-10.8 4.5-16-3-12.6-5.5-8.4-9.4-7.8-20.2-5.8-19.1 6.2L17.6 32l-5 23.4 5.2 18L27.2 85l16.6 9 20.9 1 16.8-7.4s12.1-13.2 14.2-15.9c2.1-2.6 5.3-12 5.3-20.5 0-7.5-1.5-12.9-2-13.8" style="fill:#fdb3d1"/><path d="M94.8 73.8c.4-.7 1.2-2.1.8-2.3s-2.8 3.6-5.2 6.1c-3 3.1-9.7 13-28.6 15.4A42 42 0 0 1 22 74.6c-5.8-8.3-14.2-32.2 5-49.9a34.4 34.4 0 0 1 55 6.8c5.3 11.3 2.8 33.6-15 41.2a23 23 0 0 1-33-19.4c.2-12.8 9.3-21.7 19.2-20.7a12.5 12.5 0 0 1 11.5 17.7c-2 3.4-5.3 5.1-8.2 3.3-1.5-.9.4-6-3.1-7s-7 1.1-5.4 7.3c1.4 5.2 6.5 6.4 9.4 6.4C61.2 60.2 72 57.8 71 43c-1-15-20.9-20.3-32.7-10.4s-13.4 30.2 1.9 41.6 40 4.4 47-17.3S82 11 54.3 8.9s-45 23-43.9 45.2c1 19.3 12.6 35.2 32.3 41.6s33.4-2 36-3.7a64 64 0 0 0 16.1-18.2" style="fill:#ff2d8a"/><path d="m85.6 80.6-6 5.5 34.4 36.6c1.1 1 2.8 2.1 4.4 1.7a6 6 0 0 0 2.4-1.3l-10.2-11.8-20-25.8z" style="fill:#f4b043"/><path d="m87.6 89.1 3-3.6 30 31.4c.8.6 1.9 2.6 1.7 4a6 6 0 0 1-1.3 2.7z" style="fill:#f5c977"/><path d="M25.5 16.9C18.1 23.2 11.7 33.3 14.3 35c3 1.9 6-7.3 14-14.1 8.2-7 17.9-7.7 16.1-11.2-1.4-3-13.3 2.5-18.9 7.2M14.3 37.3c-2.8-.6-4.2 4-4.5 6.4-.2 1.9-.1 5.6 2 5.9 2.5.3 3-3.5 3.3-5.7.4-2.2 1.6-6-.8-6.6" style="fill:#fff"/></svg>