<svg xml:space="preserve" width="16" height="16" viewBox="0 0 128 128"><path d="M65.7 18.7c-40.6-2.6-33 55.4-33 61.5l74 .8c1.2-10 9.6-59.2-41-62.3" style="fill:#a0c787"/><path d="M54.6 46.7c1.6 3.4 5.6 5.5 9.5 5.5 5.4 0 10.7-3.8 12.4-9a33 33 0 0 1-18.3.9" style="fill:#75a768"/><path d="M16.4 47.7s-1.6 13.3-1 17c.6 3.8 3.4 10.3 9.5 11.1s9.3-2.7 9.3-2.7 7.1-7.8 7.1-8l-3.6-29z" style="fill:#a0c787"/><path d="M78.8 62.6A54 54 0 0 1 54 37c-1 1-4.2 3-4 3.5 5.4 16.6 13.5 23.9 13.5 23.9s-14-.3-31 12.3c-1 .7-1 2.2-.7 3.4a44 44 0 0 1 1.8 13.3c-1.3 9.8-3 10.2 3.7 16l-3.3 2.7s1 4.1 11.2 4.9c10.5.8 14.2-2.5 14.2-2.5-.2.2-3.1-3.2-3.1-3.2s3.7-1.3 4.3-3.5c.5-1.7.8-5.7 1.4-7.6 0 0 .6-3.3 1.9-5.4 1-1.7 2.5-1.7 3.5 0 1.5 2.7 1.9 5.4 1.9 5.4.4 2 .9 6 1.4 7.7.6 2.2 4.3 3.4 4.3 3.4s-2.9 3.4-3.1 3.2c0 0 3.7 3.3 14.2 2.5 10.2-.8 11.2-5 11.2-5l-3.4-2.6c6.7-5.8 5.1-6.2 3.7-16 0 0 6-13 3-17.8-2.3-3.5-16.8-10.2-22-13.2" style="fill:#9e705a"/><linearGradient id="a" x1="46.1" x2="46.1" y1="109.9" y2="123.2" gradientUnits="userSpaceOnUse"><stop offset="0" style="stop-color:#616161"/><stop offset="1" style="stop-color:#2f2829"/></linearGradient><path d="M46 124H36c-1.9 0-3.2-1.7-2.7-3.2C35 116.3 40 113 46 113s11.4 3.4 13 8c.5 1.5-1 3-2.8 3z" style="fill:url(#a)"/><path d="M85.5 106c1.8-.7 3.2-2.1 4.7-3.3s6-4 8.4-3.3c0 0 .6 2.4.4 3.5-.3 1.4-.4 2.6-5 6.6a30 30 0 0 0-19 2c-.3-.2-2.1-.8-3.2-2q-1-.9-1.2-2.2 0-.9.8-1c.5 0 7.3 1.9 14-.4" style="fill:#875845"/><path d="M33.4 46.9a9 9 0 0 0 1.9 7.1q.7 1 1.8 1.4 1.1.5 2.1-.2 1-1 1-2.4v-3.2a7 7 0 0 0-1.3-3.7c-.8-1-2.2-1.6-3.4-1.2" style="fill:#7d8e5f"/><path d="m40 66.9 1 8c7-5.1 9-9.9 10-15.9 1.7 1.4 1.9 5 1.9 5s8.9-9.6 8.8-22.7c0-3 1-6.6-1.1-9.4a11 11 0 0 0-9.5-3.8c-3.8.5-7.2 2.7-9.8 5.4C39 36 37.4 37 35.8 40c-6 11-4.5 20.2-4.5 20.2l3.7-2.8c-6.2 10-3.2 22.2-3.2 22.2 5-3.4 8.2-12.8 8.2-12.8m0 .1 1 8c7-5.1 9-9.9 10-15.9 1.7 1.4 1.9 5 1.9 5s8.9-9.6 8.8-22.7c0-3-2.6-13-10.6-13.2-3.8 0-7.2 2.7-9.8 5.4C39 36 37.4 37 35.8 40c-6 11-4.5 20.2-4.5 20.2l3.7-2.8c-6.2 10-3.2 22.2-3.2 22.2 5-3.4 8.2-12.8 8.2-12.8" style="fill:#757575"/><path d="M37.1 49c1-2.8 3-6.6 4.8-9q1.5-2 3.7-3.3c-.8-.6-5.7-.4-11.7 4.4-1.5 1.2 3.2 8 3.2 8" style="fill:#515151"/><path d="M97.4 37.4s-4 5.2-2 16.3 4.1 19 4.1 19l-.7 16.8-4 7.5c-.8 1.3 1 3.4 2.6 3s4.2-4.6 5.1-4.5c.4 0 1.5 5.7 0 7.5-1.4 1.8-3 3-3.5 3.6s-.4 4.4 1.6 4.4 10.4-4.7 11.7-6.5 3.3-6.2 2.2-15.3c-.3-2.9 2.3-15.9 2.5-20.7.9-16.2-3.2-26.5-9-30.2-6-3.7-10.6-1-10.6-1" style="fill:#a0c787"/><path d="m85.6 64.3 1.6-4c2 6.6 6.3 12.5 12 16.3.5-4 .5-15.2-.4-18.4a15 15 0 0 0 5.2 6c1.9-8.6-1-16.3-1-16.3l4.6 4.2s.7-6.1-.8-10.8l4.3 2c-1-8.3-5.2-10-9.4-12h4.4c-3-5.4-6.4-5.6-11.2-6l2.6-2s-8-6.4-24.7-6.4c0 0-.7 26-.6 28.3.3 5 1 10.4 4.1 14.5l3-6.2s1.5 6.9 6.3 10.8" style="fill:#757575"/><path d="M52.9 64.2s4-4.7 6.3-10c1.8-4 2.4-8.4 2.2-8.6 0-.1-5.2-5-8.2-6.7.2 5.7 3.2 9.8 3.2 14 0 4.6-3.3 10.3-3.5 11.3M40 66.9l1 8q3.7-2.7 6.2-6.1 2.2-3 3-6.7l.8-2.9s-.7-1.5-.7-3.8v-2.2c-1 .4-2.5 3.2-3.2 5-1 2.4-1.3 4.9-2 7.3q-.8 3.8-3.8 5.9c0-2.4-1.9-7.7-1-10.3 0 0-4 4-5.5 8.1-1.3 4.1-3 10.5-3 10.5s3.3-2.6 5.5-6.5c1.6-3 2.7-6.3 2.7-6.3m49.5-10.3c-3 1.7-4.1 6.9-4.1 6.9-3.3-6.6-2.1-12-1.8-14.5 0 0-2.3.6-4.5 3.8-1.6 2.4-2.6 5.7-2.6 5.7s-.7-1.4-1-5.3a30 30 0 0 1 3-12.9l-6.4 5c.2 5 1 10.5 4.2 14.7l3-6.5c.7 4.2 3.2 8.6 6.3 10.8l1.6-4c.2.6.7 4.5 5 9.8 4.4 5.2 7 6.5 7 6.5s-6-6.9-9.7-20" style="fill:#515151"/><linearGradient id="b" x1="95.5" x2="90.2" y1="59.5" y2="48.6" gradientUnits="userSpaceOnUse"><stop offset="0" style="stop-color:#b2947c"/><stop offset="1" style="stop-color:#b2947c;stop-opacity:0"/></linearGradient><path d="M88.2 51q1.8 5.7 6.7 9.2.3-4.9-.6-9.6c-.8-3.1-2.4-6.1-5-8" style="fill:url(#b)"/><linearGradient id="c" x1="100.5" x2="95.5" y1="48.2" y2="39.8" gradientUnits="userSpaceOnUse"><stop offset="0" style="stop-color:#a1887f"/><stop offset="1" style="stop-color:#a1887f;stop-opacity:0"/></linearGradient><path d="M92.7 40.3a78 78 0 0 0 7.3 8.4c.6-2.7.2-6-1.2-8.4a12 12 0 0 0-4.7-5" style="fill:url(#c)"/><radialGradient id="d" cx="92.7" cy="42.3" r="30.4" gradientTransform="rotate(42.8 72.54 34.43)scale(1 .626)" gradientUnits="userSpaceOnUse"><stop offset=".4" style="stop-color:#a1887f;stop-opacity:0"/><stop offset="1" style="stop-color:#b2947c"/></radialGradient><path d="M107.6 52c0-.2.7-6.1-.8-10.7 0 0 2.9 1.5 4.3 2-1-8.3-5.2-10-9.4-11.9h4.4c-3-5.4-6.5-5.7-11.2-6.2l2.6-1.9s-6-4.9-18.7-6v8.2c-.3 1.3 28.8 26.6 28.8 26.6" style="fill:url(#d)"/><path d="m8.5 59.5-1-.9c-.8-.6-.9-1.7-.2-2.4 0 0 26.3-29 28.3-30.8s9.5-4.2 9.5-4.2S62.4 6.7 65.7 5q1.3-.7 2.7-.7c1.6 0 2.5 1 3 1s3.2-1 5.2-1 2.7 1 4.6 1c2.4.2 3.8-.1 6.3 0 .3 0 1.2 0 1.7.7s-.4 1.8-.4 2 1 1.2 1 1.6c0 .7.2 3.8-.2 4.5S80.7 20 79.4 21l-4.6 3.8L46.2 34 10.5 59.7q-1 .6-2-.1" style="fill:#b7855f"/><linearGradient id="e" x1="48" x2="51.6" y1="19" y2="23.8" gradientUnits="userSpaceOnUse"><stop offset=".1" style="stop-color:#874d36;stop-opacity:0"/><stop offset=".7" style="stop-color:#874d36"/></linearGradient><path d="M58.4 16q5-3 9.4-6.5C69.6 7.7 71 5.9 73 5a8 8 0 0 0-3.9 1.7c-3.1 2.2-5.8 4.7-9.3 6.5s-7.3 3.4-10.5 6c-3.5 2.5-5.5 6.7-9.1 9.2-3.4 2-8.2 1.8-10.5 5.4L27 38.6l6-4c5-3.1 10.3-5.8 14.8-9.6 3.4-3.1 6.4-6.8 10.5-9" style="fill:url(#e)"/><linearGradient id="f" x1="54.8" x2="60.6" y1="19.6" y2="28" gradientUnits="userSpaceOnUse"><stop offset=".1" style="stop-color:#874d36;stop-opacity:0"/><stop offset=".7" style="stop-color:#874d36"/></linearGradient><path d="M76.6 10.4c3.2-2.7 7.7-.6 11.3-1.8q.8-.3 1.3-1.6s-.3.5-2 .6c-3 .2-6-.8-9 .2-2.7 1-5.2 2.7-7.9 4-2.2 1-4.6 1.6-6.8 2.8-2.7 1.4-13 11.8-23.3 19.6-4.5 3.4-7 2.2-11.5 10.1C33.7 38.7 52.2 32 61 23a22 22 0 0 1 10-5.7c4.9-1.2 11-1.1 14-5.8.3-.6 1.4-.7 2-1 1-.3 1.4-.1 2.4-1-2 .4-4 .6-5.6 1.8l-1.4 1c-1.5.9-8 2.2-9.4 1.7a21 21 0 0 1 3.5-3.5" style="fill:url(#f)"/><path d="M35.6 44.6q1-1.6-.7-4.2c-1-1.8-4-5.2-6.4-7.3-1.9-1.6-4.3-1.4-5.5-.1q-.7 1-.8 2 0 1.4-1.2 1.2-1.5-.1-2.5 1-.9 1-.8 2.3t-1.1 1.2a3 3 0 0 0-2.2 1 3 3 0 0 0-.8 2.2q0 1.2-1 1.2c-1.3 0-1.9 0-2.4 1-1 1.5-.3 3.4.5 4.8a20 20 0 0 0 7.9 5.9c1.7.6 3.3.9 4.8 0 2.6-1.5 6.9-4.9 6.9-4.9q1.2 1.8 3.6.3 2.5-1.6 3-2.6c1.5-2.3.6-4.2-1.3-5m-3.5.6" style="fill:#bee29f"/><path d="M80.6 17.9a10 10 0 0 1 5.3 5.8c1.5 3.4 1.6 9.5 6.5 10.8-3 4.6-7.5 3.4-7.5 3.4l2.3 2.7s-4.6 2-8-2.3c-5-6.3-8.2-13.5-3.4-19.1M51 17.9a11 11 0 0 0-5.3 5.8c-1.4 3.4-1.5 9.5-6.5 10.8 3.1 4.6 7.5 3.4 7.5 3.4l-2.2 2.7s4.5 2 8-2.3c5-6.3 8.1-13.5 3.3-19.1" style="fill:#2f2829"/><path d="M52.2 27.8c-1.7-3.2-5.6-2.7-7.7-1.8-1 .4-.6 1-.1 2 1 1.8 1.2 4.4 3.7 6 2.2 1.3 4.8 0 4.8 0s1.9-1.6-.7-6.2m26.9 0c1.8-3.2 5.6-2.7 7.7-1.8 1 .4.7 1 .2 2-1 1.8-1.3 4.4-3.8 6-2.2 1.3-4.7 0-4.7 0s-2-1.6.6-6.2" style="fill:#a0c787"/><linearGradient id="g" x1="49.3" x2="46.9" y1="29.4" y2="30.6" gradientUnits="userSpaceOnUse"><stop offset=".1" style="stop-color:#75a768"/><stop offset="1" style="stop-color:#75a768;stop-opacity:0"/></linearGradient><path d="M50.4 30.4c-1.3-1-2-4.5-5.2-3.7l2.2 4.7a5 5 0 0 0 2.8 2.3z" style="fill:url(#g)"/><linearGradient id="h" x1="62.2" x2="59.8" y1="29.4" y2="30.6" gradientTransform="matrix(-1 0 0 1 144.4 0)" gradientUnits="userSpaceOnUse"><stop offset=".1" style="stop-color:#75a768"/><stop offset="1" style="stop-color:#75a768;stop-opacity:0"/></linearGradient><path d="M81.1 30.4c1.3-1 2-4.5 5.2-3.7L84 31.4c-1 1.8-2.8 2.3-2.8 2.3z" style="fill:url(#h)"/><path d="M65.7 47.7c-9.2 0-14.4-4.7-14.4-16.4 0-9.5 6.5-17.5 14.4-17.5S80 21.8 80 31.3c0 11.7-5 16.3-14.3 16.3" style="fill:#a0c787"/><path d="M54.9 26.7a3.5 3.5 0 1 1 6.8-1.6c.4 2-1.2 3.9-3 3.3-3-.9-3.4.2-3.8-1.7m21.3 0a3.5 3.5 0 1 0-6.8-1.6c-.4 2 1.2 3.9 3 3.3 3-.9 3.4.2 3.8-1.7" style="fill:#75a768"/><ellipse cx="72.3" cy="26.5" rx="1.8" ry="1.9" style="fill:#2f2829"/><ellipse cx="59.1" cy="26.5" rx="1.8" ry="1.9" style="fill:#2f2829"/><radialGradient id="i" cx="18" cy="27" r="3.4" gradientTransform="matrix(.827 0 0 .504 44.18 13.39)" gradientUnits="userSpaceOnUse"><stop offset=".5" style="stop-color:#5b3127;stop-opacity:0"/><stop offset="1" style="stop-color:#5b3127"/></radialGradient><path d="M57.4 26.9c-.1-1.2.7-2 1.6-2q1.7.1 1.7 2" style="fill:url(#i)"/><radialGradient id="j" cx="34" cy="27" r="3.4" gradientTransform="matrix(.827 0 0 .504 44.18 13.39)" gradientUnits="userSpaceOnUse"><stop offset=".5" style="stop-color:#5b3127;stop-opacity:0"/><stop offset="1" style="stop-color:#5b3127"/></radialGradient><path d="M70.7 26.9c-.2-1.2.7-2 1.6-2s1.7.8 1.6 2" style="fill:url(#j)"/><path d="M70 36a11 11 0 0 1-8.5 0c-1-.4-1.9.3-1.5 1.2s3.3 2.7 5.7 2.7 5.3-2 5.7-2.7c.4-.9-.3-1.7-1.5-1.2" style="fill:#4a261f"/><path d="M62.6 37.1q.5 0 .8.7l.2 1.7s-1.2-.4-2.2-1l.4-1q.3-.5.8-.4m6.2 0q-.5 0-.8.7l-.2 1.7s1.2-.4 2.2-1l-.4-1q-.2-.5-.8-.4" style="fill:#fff8e1"/><path d="M54.1 4c-1 1.4-1.2 6.7-1.2 6.7l-4.8-3.4s-1.7 2.5-2 7.8C46 19.6 48 22.5 50 25q.4.4.4.8c-3.6 8.6-1 15.3 2.3 18.7 0-1.2-1.1-11.6-.5-16.8.3-2.5.5-3.8 3-4.5C64 21 72.2 16 72 15.4c1.2 3.6 4.3 7.2 6.8 10 2.1 2.5.1 19 0 19.2 7.7-9.2 2.6-18.2 2.6-18.2-.1-.4-.2-.3 0-.8 1-2.4 2.9-6 1.2-11C81 10 75 6.2 70.5 7.4 57.9 10.8 54 4 54 4" style="fill:#2f2829"/><radialGradient id="k" cx="66.7" cy="32.3" r="29.4" gradientTransform="matrix(1.078 -.004 .004 .914 -4.44 3.03)" gradientUnits="userSpaceOnUse"><stop offset=".3" style="stop-color:#2f2829"/><stop offset="1" style="stop-color:#3f518e"/></radialGradient><path d="M54.1 4c-1 1.4-1.2 6.7-1.2 6.7l-4.8-3.4a10 10 0 0 0 0 7.8q1.4 3.5 4.5 5.7.4 0 .4.4.1.3-.1.6-2.3 3.1-3.5 6.9a19 19 0 0 0-.7 6.7 16 16 0 0 0 2.6 7.5c.2.3 1.4 1.4 1.4 1.7 0-1.2-1.1-11.6-.5-16.7.3-2.5.5-3.9 3-4.6C64 21 72.2 16 72 15.4c1.2 3.7 4.3 7.2 6.8 10 2 2.5.1 19 0 19.2a17 17 0 0 0 3.8-15c-.5-1.7-1.5-3.3-1.7-5q-.3-2.8 0-5.4 1.4 1.5 1.8 3.4l.4-1.8a11 11 0 0 0-.5-6.1C81 10 75 6 70.5 7.3 57.9 10.8 54 4 54 4" style="fill:url(#k)"/><path d="M69.2 31.4c-.1 0-2-.4-3.5-.4-1.6 0-3.5.4-3.6.4q-.6-.3 0-1a4 4 0 0 1 3.6-2.2 4 4 0 0 1 3.7 2.2q.5.7-.2 1" style="fill:#75a768"/><circle cx="74" cy="67.9" r="3.8" style="fill:#784d30"/><ellipse cx="74.4" cy="67.3" rx="3.2" ry="3.4" style="fill:#82aec0" transform="rotate(-84.2 74.35 67.31)"/><linearGradient id="l" x1="43" x2="46.2" y1="61.2" y2="49.9" gradientUnits="userSpaceOnUse"><stop offset="0" style="stop-color:#a1887f"/><stop offset="1" style="stop-color:#a1887f;stop-opacity:0"/></linearGradient><path d="M43.7 49.2c-1.9 3.4-1.5 6.8-1.1 9.7q1.7-2.2 3.8-4.2c1.4-1.8 3.7-4.4 3-8.5" style="fill:url(#l)"/><linearGradient id="m" x1="39.7" x2="44.5" y1="48.7" y2="41.8" gradientUnits="userSpaceOnUse"><stop offset="0" style="stop-color:#a1887f"/><stop offset="1" style="stop-color:#a1887f;stop-opacity:0"/></linearGradient><path d="M46.3 42.5a21 21 0 0 1-5.7 6.3c.2-4 1-7.7 4.6-10.9" style="fill:url(#m)"/><linearGradient id="n" x1="86" x2="86" y1="109.9" y2="123.2" gradientUnits="userSpaceOnUse"><stop offset="0" style="stop-color:#616161"/><stop offset="1" style="stop-color:#2f2829"/></linearGradient><path d="M86 124H75.8c-1.8 0-3.2-1.7-2.6-3.2 1.6-4.5 6.8-7.8 12.8-7.8s11.3 3.4 12.9 8c.5 1.5-.9 3-2.8 3z" style="fill:url(#n)"/><path d="M58.4 106.5c-1.3.3-6.1 1.8-12.4-.6-1.8-.7-3.8-2-5.5-2.8-3.4-1.4-8.4-.8-7 2 1.1 2.4 4 4.4 4 4.4 11.4-2 17.8 1.8 19 1.9.4-.2 2.1-.7 3.2-1.8q1-1 1.2-2.3 0-.9-.8-1z" style="fill:#875845"/><path d="M35.5 44.7s-2 1-3.1-.8c-.7-1.3-1.8-3-2.4-3.7l-2.3-2q-1.2-.8-3-1.1l3.9 4.4 3.5 3.6c.3 2-1.2 4.1-3.9 4.3q-.4-1.2-1-2.2a11 11 0 0 0-4.3-4q-1.4-.8-3-1l3.8 4.2L28 50c.3 1.3.5 2.6-1 3.7-2 1.4-6.6-2-7.7-3q-2-1.5-4-3.5a8 8 0 0 0 2.8 4.7c1.4 1.2 3.9 2 5 2q.3 1.3-.6 2.4a3 3 0 0 1-2.3.7c-.9 0-3.4-1-4.2-1.5l-.5.3v.7c1 .6 3.2 1.6 4.3 1.8q3.4.6 6.3-1.2a21 21 0 0 0 4.9-4.5q-.6-1-.5-2.2c.2-2.7 3.8-5.4 4.9-5.8" style="fill:#75a768"/><path d="M54.1 4s-.5 2.9.6 5.3c1 2.4 2.5 3.2 2.5 3.2-1.8.2-4.3-1.8-4.3-1.8s0-2 .4-3.8c.2-1.5.8-2.9.8-2.9" style="fill:#2f2829"/></svg>