<svg xml:space="preserve" width="16" height="16" viewBox="0 0 128 128"><linearGradient id="a" x1="85.1" x2="92.3" y1="-6.3" y2="3" gradientTransform="rotate(-4.5 974.83 649.03)" gradientUnits="userSpaceOnUse"><stop offset=".5" style="stop-color:#ffca28"/><stop offset="1" style="stop-color:#ffb300"/></linearGradient><path d="M45.7 70.7q-.3.3-.7.2 0 .8-.3 1.4-.7.6-1.5.3.2 1-.8 1.7-1 .4-1.8-.4c.3 1.6-2.4 1.8-3.3 1.2a2 2 0 0 1-1-2.2v-.1l-.2-.1q-1.2-.3-2-1c-2-1.7-.6-5.7-.6-5.7l5.4.1h3.7c1.4.1 2.2.3 3 1.7q.6.9.7 1.9 0 .7-.6 1" style="fill:url(#a)"/><path d="M45.4 69.6c.5 1.2-.3 1.8-.3 1.8q0-1-.7-1.7c-.4-.7-1-.7-1.5-.8 0 0 1.8-.9 2.5.7m-2.2 1.2q.6.4.8 1.2c0 1.6-1.4 2.2-1.4 2.2q.5-1 .4-2 0-.6-.4-1l-.8-.6s.7-.2 1.4.2m-2.3 1.4q.4.7.3 1.3a2 2 0 0 1-1.5 1.7l.5-1.8q.1-1-.6-1.6s.7-.4 1.3.4m-3.3-.3q.4 0 .7.3.3.5 0 .8-.1.3-.5.2-.4-.2-.4-.4h-1c-.7 0-1.5-.6-1.5-.6s.9.2 1.7-.1z" style="fill:#eda600"/><path d="M87.4 123.6H92q.7-.1.8-.8v-1.2c0-3.3-2.3-3-3.6-3.2a5 5 0 0 1-3.2-2.3 119 119 0 0 0-9.8-3.4 18 18 0 0 0-2.3 8.4v1.7q0 .8.9.8H78q.8-.1.9-.8 0-.4.2-.7.5-.4 1.5-.3c3.4 1 2.7 1.8 6.7 1.8m-44.7 0H47q.8-.1.8-.8v-1.2c0-3.3-2.3-3-3.6-3.2a5 5 0 0 1-3.2-2.3 119 119 0 0 0-9.8-3.4A18 18 0 0 0 29 121v1.7q0 .8.9.8h3.4q.7-.1.8-.8 0-.4.2-.7.6-.4 1.5-.3c3.4 1 2.7 1.8 6.8 1.8" style="fill:#455a64"/><path d="M87.4 16.2Q84.5 15 82.8 18l-4.5 12.9L64 35.2c-1.3 1.7-.1 5.1 1 7 1.5 2.2 2.6 3.3 4.7 2.7 0 0 8-3 12-4.8 3.4-1.6 4.6-2.2 5.5-5.7 1-3.6 2.8-12.9 2.8-12.9 1-1.8-.8-4.2-2.7-5.3" style="fill:#aeeaf5"/><path d="M92.2 22.7 91 15l-7.1-1.4-2.4 8.2c3.2 2.4 10.8 1 10.8 1" style="fill:#00bfa5"/><path d="M70.2 37.1c14.6 8.2 16.2 27.1 16.2 27.1s-8.2 5.4-15.2 5.4-5-20.1-5-20.1-14-22.4 4-12.4" style="fill:#aeeaf5"/><path d="M68.4 38.3c14.3 8 16.4 26.9 16.4 26.9s-6.5 4.4-13.5 4.4-5-20.1-5-20.1-16-21.1 2-11.2" style="fill:#74ccf2"/><path d="M50.5 69.6c-2 7-4.4 17-6.7 20.8-4.4 7.3-17 20.6-17 20.6 5.4 7.7 17.5 7.4 17.5 7.4s4.6-16 17-30.4c3.6-4.3 5.3-4.8 6.4-4 2.5 2 10.6 10.8 10.6 10.8-1.5 4.6-9 20.1-9 20.1 8 5.9 19.1 3.4 19.1 3.4l1.8-20.4c.4-5.3.5-8.5-2.3-12.1-1.7-2.2-7.6-9-10-13.3-1.5-2.5-2-6.6-2-9.4l-2.8.3H53.4c-1.1 0-.1-3.4-2.9 6.2m12.1 6.6s2-6 2.7-13.3c.9-8.6-1.7-17.4-6.5-24.6-1.2-1.8-2.2-2.9-4.2-2-1 .4-2.6 1.9-3.8 2-2 .1-5.2 4.4-4.9 6.6a77 77 0 0 0 5.7 14.6c.2 4.4-3.4 10.1-5 12.5q-.4 1 .5 1.6c2.4 1.2 8 3.3 15.5 2.6" style="fill:#c2edf5"/><path d="m61.3 76.4 1 .2c.6-4.2 1.6-16.8-4.6-23.3l3.3-3.6c-3.7-1.9-8.7-2-8.7-2l-1-.2v1.2h1s3.8.1 7 1.3l-3 3.4s7.6 7.8 5 23" style="fill:#74ccf2"/><path d="M57.7 36.2c-6.7-.3-9.4-.6-14.1 2.5l-9.4 6c-3 2-5 4-4 9 .6 2.9 4 14 4 14s6-1.4 5.8-3.5l-.8-12.6L52.1 47c1.7-1.3 1.5-6.8.1-8.7z" style="fill:#c2edf5"/><linearGradient id="b" x1="63.5" x2="63.5" y1="68.2" y2="43.6" gradientUnits="userSpaceOnUse"><stop offset=".1" style="stop-color:#00ab94"/><stop offset=".4" style="stop-color:#00b29a"/><stop offset="1" style="stop-color:#00bfa5"/></linearGradient><path d="M65.3 65.2C66.3 44 59 41.5 55.9 44c-1.3 1-4.7 5.2-4.7 5.2S50.8 38 52 36s4.7-2.3 6.8-2.6 3.7.3 5.7.8c9.7 2.1 10.3 5.4 10.3 5.4S70.1 38 70 40c0 1 2 2.9 3.7 7.2s2.2 7.5 2.2 17.1z" style="fill:url(#b)"/><path d="m29 62.9 4.1 5.7 7-2.5-.1-6.7c-7.2-1.4-11 3.5-11 3.5" style="fill:#00bfa5"/><path d="M64.3 50.9q-1-2.3-2.4-4.3-1.4-2.1-3.3-2.6l-.9.1-.9.4-1.8 1.4-1.9 1.6-1.9 1.7a34 34 0 0 1 5.1-5.5q1.1-.8 2.4-.7a4 4 0 0 1 2.3 1.2l1.5 2a20 20 0 0 1 2 4.6z" style="fill:#009688"/><path d="m57.6 33.3 6 1 2.7 9.7s-9.6-4.9-11.8-9l-.6-1zm10.9-11.7-2.6-.1-13.9-.7-2.6-.1c-2-.1-3.8 1.6-3.9 3.8 0 2.1 1.5 4 3.6 4l2.5.2 14 .7 2.5.1c2 .1 3.8-1.6 4-3.7 0-2.2-1.5-4-3.6-4.2" style="fill:#e59600"/><path d="M59.8 7c-6.1-.2-12 6-12.5 15.2s5.2 14 11.1 14.4c5.9.2 11.9-4 12.3-13.3.5-9.2-4.9-16-11-16.2" style="fill:#ffca28"/><path d="M51 20.9s.8-1.1 2.5-1.1a3 3 0 0 1 2.7 1.3q.3.5-.1.8h-.6s-1-.7-2.3-.6q-1.5.2-1.4.3l-.2.1q-.5.2-.7-.3zm15.9 1.5s-.6-.5-1.9-.6q-1.8.2-1.9.4-.6.2-.8-.3l.1-.5c.3-.3 1.2-1.1 2.6-1.1a3 3 0 0 1 2.7 1.4q.3.4-.2.7z" style="fill:#6d4c41"/><ellipse cx="53.5" cy="24.1" rx="1.8" ry="1.7" style="fill:#404040" transform="rotate(-89.7 53.45 24.12)"/><ellipse cx="64.9" cy="24.7" rx="1.8" ry="1.7" style="fill:#404040" transform="rotate(-89.7 64.92 24.68)"/><path d="M61.8 30.8a9 9 0 0 1-6-.3c-.5-.4-1.2.2-1 .8.3.6 2.2 2 3.9 2s3.7-1 4-1.6-.3-1.2-1-.9" style="fill:#795548"/><path d="M60.2 27.6H60l-2.4-.2h-.1q-.4.1-.3.6c0 .2.5 1 1.5 1s1.5-.6 1.7-.8q0-.5-.2-.6" style="fill:#e59600"/><radialGradient id="c" cx="-29.6" cy="174.9" r="7.5" gradientTransform="rotate(9.7 961.06 622.92)" gradientUnits="userSpaceOnUse"><stop offset="0" style="stop-color:#6d4c41;stop-opacity:0"/><stop offset="1" style="stop-color:#6d4c41"/></radialGradient><path d="M70.9 4.2h-.3q-.5-.2-.8.2c-.9 1.8-3.8 2.3-6.8 2-1-.2-4.7 1.7-5.6 2.4-1 .8 7.3 5.2 7.3 5.2 3 .4 5 4.6 6.6 2.7C76 11.1 72.7 5.3 71 4.2" style="fill:url(#c)"/><path d="M59.7 5.9c-15.3-.5-13.1 16.9-13.1 16.9l1.1 2.6 2.8-8a2 2 0 0 1 2.3-1.2q2.4.6 6.4.8 4.1.1 6.6-.4 1.6 0 2.2 1.4l2.4 8.4.7-2.7S74.8 6.5 59.7 6" style="fill:#543930"/><radialGradient id="d" cx="58.8" cy="19.4" r="13.4" gradientTransform="matrix(1 0 0 1.015 0 -.28)" gradientUnits="userSpaceOnUse"><stop offset=".6" style="stop-color:#6d4c41;stop-opacity:0"/><stop offset="1" style="stop-color:#6d4c41"/></radialGradient><path d="M59.7 5.9c-15.3-.5-13.1 16.9-13.1 16.9l1.1 2.6 2.8-8a2 2 0 0 1 2.3-1.2q2.4.6 6.4.8 4.1.1 6.6-.4 1.6 0 2.2 1.4l2.4 8.4.7-2.7S74.8 6.5 59.7 6" style="fill:url(#d)"/><linearGradient id="e" x1="85.7" x2="88.4" y1="7.2" y2="7.2" gradientUnits="userSpaceOnUse"><stop offset=".5" style="stop-color:#ffca28"/><stop offset="1" style="stop-color:#ffb300"/></linearGradient><path d="M85.7 8s-.1-1.7 1.4-1.6c1.7 0 1.2 1.7 1.2 1.7z" style="fill:url(#e)"/><linearGradient id="f" x1="82.9" x2="85.9" y1="6.3" y2="6.3" gradientUnits="userSpaceOnUse"><stop offset=".5" style="stop-color:#ffca28"/><stop offset="1" style="stop-color:#ffb300"/></linearGradient><path d="m83.3 12.2-.2-.4c-.3-2.7 0-6.6.2-9.7.2-1.5.9-1.7 1.3-1.7q.9-.2 1.2 1.7v6.2h-.1L83.4 12v.2z" style="fill:url(#f)"/><linearGradient id="g" x1="83.1" x2="93.2" y1="11.3" y2="11.3" gradientUnits="userSpaceOnUse"><stop offset=".5" style="stop-color:#ffca28"/><stop offset="1" style="stop-color:#ffb300"/></linearGradient><path d="m83.7 10 .7-1.2c1.5-.8 3.4-.1 3.7-.2l.3-1.3c0-.6.8-.9 1.4-.7 1.2.3 1 1.3 1 1.3s.5-.6 1.4-.4c1.8.3 1.5 8.8-4.4 8.5h-.6c-3.1-.5-3.6-2-3.8-2.7l-.3-1.5q0-.9.6-1.8" style="fill:url(#g)"/><linearGradient id="h" x1="-42.4" x2="-45.2" y1="-726" y2="-723.3" gradientTransform="rotate(-177 13.17 366.64)scale(1 -1)" gradientUnits="userSpaceOnUse"><stop offset="0" style="stop-color:#ffb300"/><stop offset=".3" style="stop-color:#ffb707;stop-opacity:.6889"/><stop offset=".8" style="stop-color:#ffc31c;stop-opacity:.2257"/><stop offset="1" style="stop-color:#ffca28;stop-opacity:0"/></linearGradient><path d="M88.7 11.2q.7.2 1-.2c.2.8 1.2.8 1.2.8 0 .4-.5 1.5-.8 1.8-1 1-1.7.6-1.7.6l-1.3-1.8-1.2-1.1q0-.7.3-1l1.7-.1s.1.8.8 1" style="fill:url(#h)"/><path d="m91.9 10.7-.4.5-.5.3q-.3 0-.5-.3l-.1-.5v-.5l.7-2.2v-.2h-.3l-.2.3-.3.6-.5 1.1-.2.6v.2l-.2.1q-.2.3-.6.2t-.5-.5v-1l.2-1.5v-.7l-.2-.1v.2L88 8l-.3 1.3v.6l-.1.3v.3q0 .9.9 1h.7q.3 0 .5-.3v.1q0 .3.3.5l.3.3h1q.3 0 .7-.5l.3-.7.5-1.7v-.4l-.2-.1-.1.1-.2.5-.1.5z" style="fill:#eda600"/><linearGradient id="i" x1="725.1" x2="732.5" y1="-434.5" y2="-434.5" gradientTransform="rotate(-42 989.3 624.95)" gradientUnits="userSpaceOnUse"><stop offset=".5" style="stop-color:#ffca28"/><stop offset="1" style="stop-color:#ffb300"/></linearGradient><path d="M83 11.8c0 1.5 1.1 3 1.7 3.4 1.3.9 3.5 1 3.6.8v-1.4c.1-1-.7-2.1-1.5-2.6-.3-.3-1.3-1.3.3-1.5q1.6-.1 2-1c.3-.9-.5-1.2-.8-1.3 0 0-3.6-1.2-4.7 1.7q-.4 1-.5 1.9" style="fill:url(#i)"/><path d="M88 7.8a6 6 0 0 0-2.3 0q-.7 0-1 .3-1 .6-1.3 1.7l-.3 1V12c.6-.8.8-1.9 1.4-2.7l.4-.4q1.4-.8 2.9-.4.6.1.9.4l.1.2v.4q-.2.5-.5.7-.4.2-.9 0h-1.1v.1l-.4.8q0 .4.2.6l.8.8q.7.6 1 1.4l.2.7.2.1.2-.1q.2-1-.5-1.8t-1.5-1.4l.3-.7h.9q.8.2 1.4-.4l.3-.4v-1q0-.2-.4-.5-.5-.4-1-.5" style="fill:#eda600"/></svg>