<svg xml:space="preserve" width="16" height="16" viewBox="0 0 128 128"><path d="M116.5 4h-104a8 8 0 0 0-8 8v104a8 8 0 0 0 8 8h104a8 8 0 0 0 8-8V12a8 8 0 0 0-8-8" style="fill:#427687"/><path d="M122.2 6.3a8 8 0 0 0-5.7-2.3h-104a8 8 0 0 0-8 8v104q0 3.1 2.3 5.7l16.8-16.8h76a6 6 0 0 0 5.9-6V23z" style="fill:#8cafbf"/><path d="M40.2 12.9c0-2.3-1.6-3-10.8-2.7-7.7.3-11.5 1.2-13.8 4s-3 8.5-3 15.3c0 4.8 0 9.3 2.5 9.3 3.4 0 3.4-8 6.2-12.3 5.4-8.7 18.9-10.6 18.9-13.6" style="opacity:.5;fill:#b4e1ed"/><path d="M74.8 72.9a1.3 1.3 0 0 0-2.1-1.3A17 17 0 0 1 62 75.3q-9 0-14.3-6.3c-5.3-6.3-5.3-9.7-5.3-16.5q0-6.5 2.7-12.2a21 21 0 0 1 19.3-11.5q10.3 0 16.3 7.6c6 7.6 6 11.9 6 20.5V60q0 18.4-8.3 28c-8.3 9.6-13.8 9.7-24.8 9.8q-1.2-.1-1.3-1.3v-6.7q.1-1.2 1.3-1.3h.3q10-.2 15.4-4.8 4.6-4.6 5.5-11m-10.2-6.5q3.3 0 6-2h.2c2.8-2 4.5-5.2 4.5-8.6v-1q0-7.5-3-12a9 9 0 0 0-8-4.5 9 9 0 0 0-7.6 4q-3 4.6-3 10 0 6.5 3 10.4a9 9 0 0 0 7.9 3.7" style="fill:#fafafa"/></svg>