<svg xml:space="preserve" width="16" height="16" viewBox="0 0 128 128"><linearGradient id="a" x1="64.2" x2="64.2" y1="52.5" y2="1.7" gradientTransform="matrix(1 0 0 -1 0 128)" gradientUnits="userSpaceOnUse"><stop offset="0" style="stop-color:#00bfa5"/><stop offset=".5" style="stop-color:#00b29a"/><stop offset="1" style="stop-color:#009e89"/></linearGradient><path d="M113 91.9C99 77.4 68.9 76.4 64.6 76.3H64c-4.4 0-34.6 1.1-48.6 15.6-10.2 10.6-8 20.8-5.9 23.8 4 5.7 14.8 8.3 14.8 8.3h79.9s10.7-2.6 14.7-8.3c2.1-3 4.4-13.2-5.9-23.8" style="fill:url(#a)"/><path d="M64 87h-9v10c0 4.6 4.2 8.2 9 8.2s9-3.6 9-8.1V87z" style="fill:#99674f"/><radialGradient id="b" cx="63.9" cy="19.7" r="38.7" gradientTransform="matrix(1 0 0 -.414 0 116.5)" gradientUnits="userSpaceOnUse"><stop offset=".8" style="stop-color:#000"/><stop offset="1" style="stop-color:#000;stop-opacity:0"/></radialGradient><path d="M64 92.7c-27.3 0-36.2 11-36.2 11l11 6.2q1.3 1 .7 2.4l-.5 1.3L54 124h20l15-10.4-.5-1.3a2 2 0 0 1 .7-2.4l10.8-6.3s-8.7-10.9-36-10.9" style="opacity:.2;fill:url(#b)"/><linearGradient id="c" x1="61.8" x2="40.4" y1="9.2" y2="9.2" gradientTransform="matrix(1 0 0 -1 0 128)" gradientUnits="userSpaceOnUse"><stop offset=".5" style="stop-color:#ba8d68"/><stop offset="1" style="stop-color:#a47b62"/></linearGradient><path d="m39 113.6 3.3.2q1.8 0 3.6.5c3.6 1 11.5 3.9 15.8 5q1.7.5 1.8 2.3A2.4 2.4 0 0 1 61 124H34.6z" style="fill:url(#c)"/><linearGradient id="d" x1="67.8" x2="88.3" y1="9.2" y2="9.2" gradientTransform="matrix(1 0 0 -1 0 128)" gradientUnits="userSpaceOnUse"><stop offset=".5" style="stop-color:#ba8d68"/><stop offset="1" style="stop-color:#a47b62"/></linearGradient><path d="m89 113.6-3.3.2q-1.8 0-3.5.5c-3.6 1-11.6 3.9-15.9 5q-1.6.5-1.8 2.3A2.4 2.4 0 0 0 67 124h26.5z" style="fill:url(#d)"/><path d="M52.6 16 49.9 5.9M37 22.6 30.3 16m60 7.4 7.4-7.4m-22.3 0 2.7-10.1" style="fill:none;stroke:#b0bec5;stroke-width:4;stroke-linecap:round;stroke-miterlimit:10"/><path d="M90 60.6H37.5c-5.6 0-10.3 4.4-10.3 10s4.7 9.9 10.3 9.9H90c5.7 0 10.3-4.5 10.3-10s-4.6-10-10.3-10" style="fill:#99674f"/><path d="M63.8 25.4C47 25.4 31.7 41.6 31.7 65c0 23.2 15.9 34.6 32 34.6S96 88.2 96 65c0-23.4-15.5-39.6-32.1-39.6" style="fill:#ba8d68"/><path d="M67.5 83.9H60q-1 .4-.7 1.4c.3 1 1.7 2.4 4.4 2.4s4-1.8 4.3-2.4q.4-1-.6-1.4" style="fill:#99674f"/><ellipse cx="47.3" cy="74.9" rx="4.9" ry="4" style="fill:#49362e"/><ellipse cx="80.2" cy="74.9" rx="4.9" ry="4" style="fill:#49362e"/><path d="M39.8 66.8c3.1-4.5 10.6-4.6 14.4-.8.6.7 1.3 1.6.8 2.5q-1 1.3-2.5.6a13 13 0 0 0-7.6-1l-3.2 1.1c-1.4.5-2.9-1-2-2.4m46.1 2.5q-3.3-1.6-7-1.3a13 13 0 0 0-3.2.8c-.8.4-1.7.9-2.6.3-2.4-1.7 2-4.4 3.2-5 2.8-1.2 6-1 8.7.3q1.7.9 2.9 2.4c.8 1.3-.4 3-2 2.5" style="fill:#613e31"/><path d="M63.8 20.2c-43.5.2-34.6 47.1-34.6 47.1l2.8 7q.4.5.7 0c1-4 4.3-17.9 6-22.1 1-2.5 3.7-4 6.5-3.5 4.2.7 11 1.6 18.5 1.6h.2c7.4 0 14.2-.9 18.5-1.6a6 6 0 0 1 6.5 3.5c1.7 4.2 5 18 6 22 0 .3.5.4.6 0l2.8-6.9s9-47-34.5-47.1" style="fill:#543930"/><radialGradient id="e" cx="63.8" cy="79.2" r="36.4" gradientTransform="matrix(1 0 0 -1.067 0 143.6)" gradientUnits="userSpaceOnUse"><stop offset=".8" style="stop-color:#6d4c41;stop-opacity:0"/><stop offset="1" style="stop-color:#6d4c41"/></radialGradient><path d="M98.3 67.3s9-47-34.5-47.2l-5.8.4h-.3c-36.5 4.4-28.5 46.8-28.5 46.8l2.9 7c.1.2.6.2.6-.1 1-4 4.3-17.8 6-22a6 6 0 0 1 6.6-3.5c4.3.7 11 1.6 18.5 1.6h.1c7.5 0 14.3-.9 18.5-1.6 2.8-.5 5.5 1 6.5 3.5a269 269 0 0 1 6 22q.2.6.6 0z" style="fill:url(#e)"/></svg>