<svg xml:space="preserve" width="16" height="16" viewBox="0 0 128 128"><path d="M114 96.2 37 99s-3 13.8-2.3 16c.3.9 9.9-8.4 9.9-8.4s12 14.8 12.8 14.6c.8 0 10-9.4 10-9.4s13.7 11.4 14.6 11.4 9.3-12 9.3-12 10.6 7.5 11.3 7.4c.7-.2 7.9-11.6 7.9-11.6s11.2 3.4 12.3 3c1.2-.2-5-12.1-9-13.7" style="fill:#b1b1b1"/><path d="m33.2 55-.7-17.7 12-11.6 26.5.4s7 6.4 8.9 7.5c1.8 1.1 8.2 4.4 19.8 18.6 6.2 7.5 11.2 20.2 12.6 23.6s10.8 33.1 10.8 34-11.5-9.5-12.2-9-7.5 13.6-8.3 13.9-10.3-9.2-11.3-8.8-8.7 13.8-9.3 13.8-12-14.3-13.5-14.6c-1.4-.3-10 11.7-11.1 11.7S46 100.2 44.7 100.2s-9.2 13-9.9 13.6-2.2-20.5-2.5-23 .9-35.8.9-35.8" style="fill:#e0e0e0"/><path d="M59.4 83q-1.6 0-2.4-1.7l-1.7-5.8A2.5 2.5 0 0 1 60 74l1.8 5.8a2.5 2.5 0 0 1-2.4 3.3m20.4 6.5q-1.6 0-2.3-1.5l-2.8-6.8a2.5 2.5 0 1 1 4.6-1.9l2.8 6.8a2.5 2.5 0 0 1-2.3 3.4m13.5-8.4q-1.5 0-2.2-1.4l-2.6-5.4a2.5 2.5 0 1 1 4.5-2.1l2.6 5.3a2.5 2.5 0 0 1-2.3 3.6M77.2 64q-1.3 0-2-1.2l-4.7-6.6a2.5 2.5 0 0 1 4.1-2.9l4.6 6.7a2.5 2.5 0 0 1-2 4" style="fill:#fff"/><path d="M44.4 69.5c3 .2 29.2-4 19.8-24.7-7.2-16-27.5-2-31.2 3.6-.7 1-2 16.9-2 16.9s-9 13-6 20 11.7 8.6 17 2.5c4.4-5 2.9-16 2.4-18.3m-9.3-31.3c2.1-3.2 8.9-10 19.6-10.4a41 41 0 0 1 18.2 2.5l7.6 3.7S91 29 90.6 18 79 6.3 74.6 8.7s-5.1 5.9-8.4 6C63 15 60.5 7 50.3 11c-8.6 3.4-5.8 11.6-9 13.7-3.5 2.2-11.1-2.6-16.4 5s1.2 14.1 2.6 15.3c1.4 1 6 3.7 6 3.7S32 43 35.2 38.2" style="fill:#ff615e"/><path d="M41.4 65c1.3-.6.3-6.2-2.9-10.6S33 48 33 48s-11.6 2.6-19 6.7C9.9 57 4.8 62.1 5.3 64s11.2 1.4 20.2 1.1c9.5-.3 14.4.7 16-.1" style="fill:#fbbb02"/><path d="M5.2 63.3s10.7-.7 15.6-1.4q7.2-.8 9.8-1.5l6.2-1.7.2 2S26.9 63 21 63.5l-14.5 1q-1-.1-1.3-.5c-.3-.4 0-.7 0-.7" style="fill:#fe5f12"/><ellipse cx="37.8" cy="59.5" rx="1.6" ry="1.7" style="fill:#fe5f12"/><path d="M56.2 54.6c-.8 3.4-3.9 5.8-7.8 4.4-3-1-4-4.6-3-8s4.4-4.8 7.4-4.2 4.1 4.4 3.4 7.8" style="fill:#2c2b2c"/></svg>