<svg xml:space="preserve" width="16" height="16" viewBox="0 0 128 128"><path d="M12.8 29.7v-9.1c1-1.2 3.8-3.5 10.8-4.2L29 16c6.6 0 14.8.6 18.1 3.4Q50 21.6 51 23L35.5 35z" style="fill:#263238"/><path d="M119 94.9s-3.7-13.4-10-15.3c-4.7-1.4-9.6-1.6-14.4-2a14 14 0 0 1-8.7-3.3 265 265 0 0 1-20-24.6c-1.9-2.8-.2-7.5.7-11 .9-3.3 2-6.8 1.8-10.3-.3-4-2.2-6.5-8.3-7.3-4.7-.6-7-.4-7-.4-3.6-4.3-13.9-7-23.2-6.5-6.2.4-14.7 1.2-19.5 5.6-3 2.7-4.2 9-.3 13.1C7 35 6.5 39 7.4 42c.9 2.9 3 4 3 4.9.1.8.4 8.8.8 12 .5 3.5-1.4 7-2.5 10.3a32 32 0 0 0-1.3 10.7q0 1.5.2 2.5.5 1.2 1.2 1.7c7.9 6.5 24.6 10.6 28.2 12.7s21 14.2 32.2 16a55 55 0 0 0 38.6-6.6C120.8 98 119 95 119 95M25 18.6c15-1 20.7 2 22.6 4 0 0-5.3 1-7 4.5-.9 1.5-1.8 3.2-1.8 4.9-3.5-3-7.2-2.4-11.5-2.7-5.8-.4-12.5-2.2-12.3-5.7.2-4 8-4.9 10-5" style="fill:#784d30"/><path d="M34.9 29.3c-1.1 3.2.1 6.8 1.4 10l3.9 10.3" style="fill:none"/><path d="M94 96.4q1.3-.9 2.2-2.3c1-1.4.6-2.1 0-3-.7-1-2.2-1.3-3.4-1q-1.7.6-3.3 1.7c-1.4.8-4.8 2.1-8 3-3 .8-4.9 2.6-4.4 4.5.9 3.2 6.3 1.7 8 1.2 3-.8 6.3-2.3 8.8-4.1m-70.2-31c1.6 2.3 1.3 6-1 7.7-1.2 1-2.7 1.3-4 2.1-.8.5-2.7 2.5-4.8 2-1.2-.3-1.7-1.7-2-3-.6-3.6.5-7.5 3.2-10.2 2.4-2.4 6.9-1 8.6 1.4" style="fill:#a06841"/><path d="M123.6 100.2c.8-2.3.3-4.8-.4-7-.6-1-2-1.2-3-1.6a9 9 0 0 1-2.6-.7q.6 1.5.9 3c0 1.4-4.2 7-12.8 11-22 10.1-35.6 6-39 5.3-11-2-22-9.3-29.5-14-7.8-3.5-19.6-6.3-27-11.8q-1.7-.8-2.4-2.4l-.2-.5-.2-1.8c-1.5 1-3.3 2.4-3.3 4.5l-.1 7q0 1 .8 1.8a32 32 0 0 0 4.6 3c.8.6 1.8.4 2-.7l.3-1.2c.4-1.4 1.4-.5 2.4 0q.7.1.8.7v3.3q0 1.3 1.4 2c1.3.3 3.6 2 4.9.7.4-1 .3-2.2 1-3 .5-.4 1.9.3 2.4.5.8.3.2 3.2.1 3.6q0 1.4 1.3 2l2.7 1c.6.2 1.8.2 2.2-.4.5-.8.4-2 .9-2.9s2 .3 2.7.7l3.7 2c3.2 2.2 5 3 10 5.6l.2.6.2 3.2c.2 2.1 3 2.5 4.5 3.5.6.3 1.7.4 2.1-.2l.8-2.2c.4-.9 1.4-.6 2-.4 2.9.8 1.9 2.4 2 4.6 0 .8.8 1.5 1.5 1.8l4 1c2.3.5 2.2-1.9 2.3-3.2 0-.6.2-1.6 1-1.5l2.3.2q.6 0 .6.6l.2 2.9c0 1.1 1 2 2 2h5.7q1.6 0 1.6-1.6c.1-1.6-.9-3.3 1.2-3.8l3.7-.6q1 0 1 1.7-.1 1.3.6 2.2.7.5 1.6.3c12.8-1.9 28.2-9.4 34.3-21" style="fill:#e2a610"/><path d="M44.2 50.5c2.7 3.8 19 .3 24.3 2.8m-19.7 7.4c2 2.9 18.9-2.6 24.7-1M55 69.4c2.4 2.7 16-4.6 23.8-3.2" style="fill:none;stroke:#c62828;stroke-width:3.0673;stroke-linecap:round;stroke-miterlimit:10"/><path d="M62.3 76.5c1.7 3.3 15.4-5.5 23-2.2.8.3 1.7.9.9 1.3-6.2 2.7-14.3 9.3-17.2 7.2" style="fill:none;stroke:#c62828;stroke-width:3.0673;stroke-miterlimit:10"/><path d="M67.3 82.2c.5-6.6 6.5-12.4 11.4-16m-18.4 9.3c0-5.7 10.3-14.3 13.2-15.8M53 68.2c2.4-6.5 10-11.9 15.5-15m-20.8 5.3c3.7-5.6 11.7-9.3 17.4-11.2m-20.6.6c4.9-5.5 13.9-7 21.2-6" style="fill:none;stroke:#f44336;stroke-width:3.0673;stroke-linecap:round;stroke-miterlimit:10"/><path d="M39.5 35c1 4.3 1 9.1.9 13.6 4.8-4.2 5-11.2 4.9-17.1-.1-1.2 0-2.5 1.7-3.6a27 27 0 0 1 16.5-4.2c2.3.1 4 1.2 4 1.2-1.2-2.2-3.5-3.9-7.7-4.2a27 27 0 0 0-17 3.2c-4 2.7-5.2 6.8-3.3 11" style="fill:#a06841"/><path d="m44.2 50.5 3.2.9q1 0 .9-.9L47 46.1a.7.7 0 0 0-1.2-.4l-2.3 2.4a2.5 2.5 0 0 0-3.1-1.7l-1 .3a2 2 0 0 0-1.5 2.6l.8 3a2 2 0 0 0 2.7 1.5l1-.2a2.5 2.5 0 0 0 1.7-3.1m19.6 36.1 2.5 1.9c1 .7 2.3.4 3-.5l.7-.8c.8-1.2.5-2.7-.6-3.5l3-1.3q.8-.7.2-1.3l-3.7-2.7q-.8-.3-1.1.5l-.4 3.3a2.5 2.5 0 0 0-3.5.6l-.6.8c-.7 1-.5 2.3.5 3M56 79.3l2.2 2.2a2 2 0 0 0 3 0l.8-.7c1-1 1-2.5 0-3.5l3.2-.8c.6-.1.8-.8.4-1.2L62.4 72a.7.7 0 0 0-1.2.3l-.9 3.2c-1-1-2.5-1-3.5 0l-.8.7c-.8.8-.8 2.2 0 3m-7.2-9 1.8 2.6c.6 1 2 1.3 3 .6l.8-.6c1.1-.7 1.4-2.3.7-3.4l3.3-.2q.9-.2.5-1l-2.5-4a.7.7 0 0 0-1.2.1l-1.5 3a2.5 2.5 0 0 0-3.5-.6l-.8.5c-1 .7-1.3 2-.6 3m-6.3-9.4 1.4 2.8c.6 1 1.9 1.5 3 1l.8-.5a2.5 2.5 0 0 0 1.1-3.4l3.4.2q.9-.1.6-1l-2-4.1a.7.7 0 0 0-1.3 0l-1.8 2.7a2.5 2.5 0 0 0-3.4-1l-.9.4c-1 .6-1.4 1.9-.9 3" style="fill:#78a3ac"/><path d="M28.5 41.2c-7.7 0-17.4-2.7-18.9-6-.6-1.6.6-2.3.6-2.3 4.1 3.4 11 5.3 18.8 5.3q1.5.1 1.6 1.4-.1 1.5-1.5 1.6zm-.4 12.3c-6.8 0-13-1.5-17.5-4 0 0 .2-2.1-.5-2.8-1-1-1.6-2.6-1.6-2.6 4 4 11.4 6.3 19.8 6.3q1.5 0 1.6 1.5-.2 1.4-1.5 1.6z" style="fill:#4e342e"/><path d="M23.9 18.7q-2.7.3-5.2 1.2c-1.4.5-3 1.3-3.5 2.7-.6 1.7.4 3 1.6 4 1.7 1.3 5.9 1.5 5.2 4.2-1 3.8-9.1 1.5-11-.3-6-5.4-1.6-11.8 4.8-13.9 3-1 6.4-1.8 9.2-1.7.6 0 2.8.2 2.6 1.9-.2 1.5-1.6 1.8-3.7 2M12.4 39.4c1.5.9 4.9 1.3 5.1 3 .3 2.6-4.3 2.5-6 1.6a5 5 0 0 1-3.3-3.6c-.4-2.1 1-2.8 4.2-1" style="fill:#a06841"/></svg>