<svg xml:space="preserve" width="16" height="16" viewBox="0 0 128 128"><path d="M103 23.4c4.3 11.3 3 25-8 32s-22 12-31 21A67 67 0 0 0 44.7 124h57.9l.4-.5c7-4.5 14.2-8.6 21-13.2V3.9H87.5C92.1 9 99.7 14.6 103 23.4" style="opacity:.45;fill:#3bbcf7"/><path d="M4 46.6v77.3h13.5c-3.6-5.5-6-11.4-4.5-18.5 2-10 12-14 20-18C55.6 76 60.3 58 61 37.4A45 45 0 0 0 48.2 4h-36c19 24-6.9 42-8.2 42.7" style="opacity:.45;fill:#83d3f7"/><path d="M98.8 79.8c-1.3-2.3.3-4.6 3-7.4 4.3-4.6 9-15.1 4.7-25.8l-.9-2h-1.8a3374 3374 0 0 0-79.9 0l-2.6 2a25 25 0 0 0 4.6 25.8c2.7 2.8 4.3 5.1 3 7.4-1.1 2.2-4.7 2.5-4.7 2.5s.8 2.3 2.8 3.5c1.8 1.1 4.1 1.4 5.7 1.4 0 0 6.1 8.5 22.2 8.5h18c16 0 22.2-8.5 22.2-8.5a12 12 0 0 0 5.7-1.4c2-1.2 2.8-3.5 2.8-3.5s-3.6-.3-4.8-2.5" style="fill:#3c2c23"/><radialGradient id="a" cx="99.8" cy="45.9" r="23.4" gradientTransform="matrix(1 0 0 .491 -21.32 59.56)" gradientUnits="userSpaceOnUse"><stop offset=".7" style="stop-color:#554138;stop-opacity:0"/><stop offset="1" style="stop-color:#554138"/></radialGradient><path d="M63.9 95.7v-9.4L92.4 84l2.6 3.2s-6.1 8.5-22.2 8.5z" style="fill:url(#a)"/><radialGradient id="b" cx="76.7" cy="49.4" r="6.9" gradientTransform="rotate(155 84.44 60.38)scale(1 .742)" gradientUnits="userSpaceOnUse"><stop offset=".7" style="stop-color:#554138"/><stop offset="1" style="stop-color:#554138;stop-opacity:0"/></radialGradient><path d="M95 83.1c-4.3-6.5 5.2-9 5.2-9q-2.7 3.1-1.5 5.7c1.3 2.2 4.9 2.5 4.9 2.5s-5 4.4-8.6.8" style="fill:url(#b)"/><radialGradient id="c" cx="94.6" cy="69" r="30.4" gradientTransform="rotate(-94.3 89.84 63.4)scale(1 .833)" gradientUnits="userSpaceOnUse"><stop offset=".7" style="stop-color:#554138;stop-opacity:0"/><stop offset="1" style="stop-color:#554138"/></radialGradient><path d="M106.5 46.6c4.2 10.4-.2 21-4.4 25.5-.6.6-3 3-3.6 5 0 0-9.5-13.4-12.4-21.2q-.8-2.4-1.1-4.9-.3-2 .8-3.8a111 111 0 0 1 20.2-1.7z" style="fill:url(#c)"/><radialGradient id="d" cx="44.2" cy="69" r="30.4" gradientTransform="rotate(-85.7 107 .79)scale(1 -.833)" gradientUnits="userSpaceOnUse"><stop offset=".7" style="stop-color:#554138;stop-opacity:0"/><stop offset="1" style="stop-color:#554138"/></radialGradient><path d="M21.3 46.6c-4.3 10.4.2 21 4.4 25.5.6.6 3 3 3.6 5 0 0 9.5-13.4 12.3-21.2q1-2.4 1.2-4.9.1-2-.9-3.8c-.8-1.3-1.9-1-3.4-1-2.9 0-15.5-.7-16.5-.7z" style="fill:url(#d)"/><radialGradient id="e" cx="49.3" cy="45.9" r="23.4" gradientTransform="matrix(-1 0 0 .491 98.61 59.56)" gradientUnits="userSpaceOnUse"><stop offset=".7" style="stop-color:#554138;stop-opacity:0"/><stop offset="1" style="stop-color:#554138"/></radialGradient><path d="M63.9 95.7v-9.4L35.3 84l-2.6 3.2S39 95.7 55 95.7z" style="fill:url(#e)"/><radialGradient id="f" cx="26.2" cy="49.4" r="6.9" gradientTransform="rotate(25 -232.87 21)scale(1 -.742)" gradientUnits="userSpaceOnUse"><stop offset=".7" style="stop-color:#554138"/><stop offset="1" style="stop-color:#554138;stop-opacity:0"/></radialGradient><path d="M32.8 83.1c4.3-6.5-5.2-9-5.2-9 1.6 2.1 2.4 4 1.4 5.7-1.2 2.2-4.8 2.5-4.8 2.5s4.9 4.4 8.6.8" style="fill:url(#f)"/><radialGradient id="g" cx="63.9" cy="7.8" r="55.1" gradientTransform="matrix(1 0 0 -.463 0 123.81)" gradientUnits="userSpaceOnUse"><stop offset=".9" style="stop-color:#eceff1"/><stop offset="1" style="stop-color:#b0bec5"/></radialGradient><path d="M64.1 96c-25.5 0-52 7.2-52 25v3h104v-3c0-16.8-26.3-25-51.9-25" style="fill:url(#g)"/><linearGradient id="h" x1="64.3" x2="64.3" y1="31.6" y2="1.2" gradientTransform="matrix(1 0 0 -1 0 128)" gradientUnits="userSpaceOnUse"><stop offset=".5" style="stop-color:#a56c43"/><stop offset="1" style="stop-color:#8d5738"/></linearGradient><path d="M64 95.8c-29.6 0-21.5 19.5-16.5 28.1h34.3c4.6-8.6 11.9-28.2-17.8-28.2" style="fill:url(#h)"/><path d="M50 104c2-6.5 13.4-6.6 12.5-6.5h2.7c-.9-.1 10.6 0 12.5 6.4s-2.2 13.6-5.7 20h14c4-9 7.4-20.2 3.6-25.6-4.5-6.4-11.3-8.6-25.6-8.6s-21.4 2.2-26 8.6c-3.8 5.4-.4 16.7 3.7 25.6h14c-3.6-6.4-7.7-13.6-5.8-20" style="fill:#eceff1"/><radialGradient id="i" cx="84.4" cy="20.4" r="9.3" gradientTransform="rotate(6 -1354 32.06)scale(1 -2.115)" gradientUnits="userSpaceOnUse"><stop offset=".7" style="stop-color:#b0bec5"/><stop offset="1" style="stop-color:#eceff1;stop-opacity:0"/></radialGradient><path d="M89.4 123.8H86c3.9-8.6 7.2-19.3 4-25l3.7 1.1c2 6.7-1 16.3-4.4 24" style="fill:url(#i)"/><radialGradient id="j" cx="753.1" cy="20.4" r="9.3" gradientTransform="rotate(174 396.53 56.83)scale(1 2.115)" gradientUnits="userSpaceOnUse"><stop offset=".7" style="stop-color:#b0bec5"/><stop offset="1" style="stop-color:#eceff1;stop-opacity:0"/></radialGradient><path d="M38.4 123.8h3.3c-4-8.6-7.3-19.3-4.1-25l-3.7 1.1c-1.9 6.7 1.1 16.3 4.5 24" style="fill:url(#j)"/><linearGradient id="k" x1="64" x2="64" y1="20.6" y2="38.5" gradientTransform="matrix(1 0 0 -1 0 128)" gradientUnits="userSpaceOnUse"><stop offset=".2" style="stop-color:#a56c43"/><stop offset="1" style="stop-color:#8d5738"/></linearGradient><path d="M55 90v10a8 8 0 0 0 8.2 8.1h1.6c4.6 0 8.3-3.6 8.3-8.1V90z" style="fill:url(#k)"/><path d="M55 104.7q-.4-1.5-.5-2.9l-.2-2.8-.4-5.8q0-1 1-1c1 0 1 .3 1 .9q0 3-.3 5.8l-.2 3q0 1.4-.5 2.8m18.1 0-.4-2.9-.2-2.8-.3-5.8q0-1 1-1c1 0 1 .3 1 .9l-.4 5.8-.2 3q0 1.4-.4 2.8" style="fill:#875334"/><path d="M91.2 50.4H36.5c-5.9 0-10.7 5.2-10.7 11.4s4.8 11.5 10.7 11.5h54.7c5.9 0 10.7-5.2 10.7-11.5s-4.8-11.4-10.7-11.4" style="fill:#7a4c32"/><path d="M63.9 11c-17.4 0-33.6 18.7-33.6 45.5C30.3 83 47 96.3 64 96.3S97.4 83 97.4 56.5C97.4 29.7 81.3 11 63.9 11" style="fill:#a56c43"/><path d="M72.3 76.1a26 26 0 0 1-16.8 0c-1.8-1-3.7.6-3 2.3S59 83.8 64 83.8s10.6-3.8 11.3-5.4-1-3.4-3-2.3" style="fill:#473530"/><path d="M67.7 68H60q-1 .5-.7 1.7c.3.7 1.7 2.7 4.6 2.7s4.2-2 4.5-2.7q.4-1.2-.7-1.6" style="fill:#875334"/><path d="M47.5 60.3q-3.1 0-5.2-1.3-.8-.4-.7.5c.3 2.5 2.8 4.4 5.9 4.4 3 0 5.6-2 6-4.4q0-1-.8-.5a10 10 0 0 1-5.2 1.3m32.6 0Q77 60.3 75 59q-.8-.4-.7.5c.3 2.5 2.9 4.4 6 4.4s5.5-2 5.9-4.4q0-1-.8-.5a10 10 0 0 1-5.2 1.3m-25.3-9.5c-1-1.2-3.1-3-7.3-3s-6.3 1.8-7.2 3q-.5 1 0 1.6t1.9.4c1.5-.2 2.5-1.2 5.3-1.2s4.5.9 5.4 1.2q1.3.3 1.9-.4t0-1.6m32.5 0c-1-1.2-3.1-3-7.3-3s-6.3 1.8-7.2 3q-.5 1 0 1.6t1.9.4c1.5-.2 2.5-1.2 5.3-1.2s4.5.9 5.4 1.2q1.3.3 1.9-.4t0-1.6" style="fill:#42312c"/><path d="M104 25c-2.5-3.6-8-8.6-12.9-9-.8-4.6-5.8-8.6-10.7-10.2a31 31 0 0 0-26.5 3c-1 .6-7.1 4-11.5 1.6-2.7-1.6-2.7-5.8-2.7-5.8S31.2 8 34.1 17a10 10 0 0 0-8.8 5.5 14 14 0 0 0-.8 11A11 11 0 0 0 21 45.8c1.6 4.5 8.1 6.5 8.1 6.5-.4 8 1 13 1.8 15q.5.5.8 0c1-4 4.3-17.9 4-20.3 0 0 11.3-2.2 22.2-10.2a32 32 0 0 1 7-4c13.7-5.4 16.5 3.8 16.5 3.8S90.8 35 93.7 48c1 4.9 1.8 12.7 2.4 18.2 0 .4.6.5.7.1 1-2.1 2.9-6.5 3.3-10.9.2-1.5 4.3-3.6 6.1-10.2a27 27 0 0 0-2.3-20.1" style="fill:#3c2c23"/><radialGradient id="l" cx="81.9" cy="85" r="35.6" gradientTransform="rotate(72 9 -10.03)scale(1 -.742)" gradientUnits="userSpaceOnUse"><stop offset=".7" style="stop-color:#554138;stop-opacity:0"/><stop offset="1" style="stop-color:#554138"/></radialGradient><path d="M100 55.5c.2-1.6 4.4-3.6 6.2-10.3l.5-2.1a27 27 0 0 0-2.8-18 22 22 0 0 0-11.7-8.8l-1.1-.2s.3 2.2-.6 3.9a6 6 0 0 1-3.4 2.8c12 12 11.2 22 13 32.7" style="fill:url(#l)"/><radialGradient id="m" cx="47.1" cy="123.8" r="9.3" gradientTransform="rotate(28.2 -253.2 -71.2)scale(1 -1.186)" gradientUnits="userSpaceOnUse"><stop offset=".6" style="stop-color:#554138"/><stop offset="1" style="stop-color:#554138;stop-opacity:0"/></radialGradient><path d="M56.8 7.4 54 8.9c-1 .5-7.1 4-11.5 1.5-2.7-1.6-2.7-5.6-2.7-5.8-1.2 1.6-5 12.8 6 13.6 4.7.3 7.5-3.8 9.3-7.3z" style="fill:url(#m)"/><radialGradient id="n" cx="159.1" cy="62.7" r="28.7" gradientTransform="matrix(-.938 -.394 -.218 .528 230.89 50.7)" gradientUnits="userSpaceOnUse"><stop offset=".7" style="stop-color:#554138;stop-opacity:0"/><stop offset="1" style="stop-color:#554138"/></radialGradient><path d="M79 5.4c7.3 2 11 5.7 12.1 10.7.4 1.5.8 15-25.2-.4-9.7-5.8-7-9.4-6-9.8A31 31 0 0 1 79 5.4" style="fill:url(#n)"/><radialGradient id="o" cx="43.4" cy="115.3" r="8.6" gradientTransform="matrix(1 0 0 -1.223 0 153.75)" gradientUnits="userSpaceOnUse"><stop offset=".7" style="stop-color:#554138;stop-opacity:0"/><stop offset="1" style="stop-color:#554138"/></radialGradient><path d="M39.7 4.6c-1 .5-8.3 3.8-5.6 12.3l7.8 1.3c-6.9-7-2.2-13.6-2.2-13.6" style="fill:url(#o)"/><radialGradient id="p" cx="42.2" cy="100.2" r="16.1" gradientTransform="rotate(15 249.41 380.1)scale(-1 .936)" gradientUnits="userSpaceOnUse"><stop offset=".7" style="stop-color:#554138;stop-opacity:0"/><stop offset="1" style="stop-color:#554138"/></radialGradient><path d="m39 17.7-4.9-.8-1.2.1a10 10 0 0 0-7.6 5.4 14 14 0 0 0-1.3 9.4l.5 1.6s2.3-2.3 8-2.5z" style="fill:url(#p)"/><radialGradient id="q" cx="38.4" cy="84.7" r="16.9" gradientTransform="rotate(7.8 -1151.77 -38)scale(1 -1.405)" gradientUnits="userSpaceOnUse"><stop offset=".6" style="stop-color:#554138;stop-opacity:0"/><stop offset="1" style="stop-color:#554138"/></radialGradient><path d="M24.2 33.5A11 11 0 0 0 21 46.1c1.8 4.4 8.1 6.3 8.1 6.3s1.3.4 2 .4L32.4 31c-3 0-6 1-7.8 2.3z" style="fill:url(#q)"/><path d="M48 60.7c-6-5-16.2-7.8-20.8-5.8-2.1.9-3.1 2.6-1.1 6 4 6.5 9.8 13.4 3.4 20.9C21 92 9.5 90.2 4 104.3V124h26.6C32 96.4 55 100 56.1 81.1c.7-10.7-3-16.4-8-20.4" style="opacity:.45;fill:#fff"/><path d="M124 42.8c-16.3-24.2-42-20.4-39.3-16.7 2.2 3 8.5 7.8 12.4 15.9 2.6 5.4 4.5 12 2 17.4-7.4 16.3-21.4 19.3-28.7 25.8-5 4.4-14.4 14.7-11 38.7H81s2.2-13 25.4-21.4A29 29 0 0 0 124 87.3z" style="opacity:.35;fill:#fff"/></svg>