<svg xml:space="preserve" width="16" height="16" viewBox="0 0 128 128"><path d="M74.8 24.1 74 24l-1.2 4.4 1 .2q1.5 0 2.1-1.8c.5-1.8-1.1-2.6-1.1-2.6M56 19c-.5 0-1.8.1-2.3 1.7s.7 2.6 2 3l1.1-4.5zm12.7 9.8-3.6 10-8-1.8 4.4-20.8z" style="fill:#3c2b24"/><linearGradient id="a" x1="55" x2="75.5" y1="21.6" y2="21.6" gradientUnits="userSpaceOnUse"><stop offset=".5" style="stop-color:#70534a"/><stop offset="1" style="stop-color:#5c4037"/></linearGradient><path d="M68.8 9.4c-7.5-2-11 3.2-13.2 11.3-2.3 8.4 2.5 12 6.5 13 3.9 1.2 9.9.5 12.2-7.9 2.2-8 1.9-14.3-5.5-16.4" style="fill:url(#a)"/><radialGradient id="b" cx="66.2" cy="119.5" r="12.5" gradientTransform="rotate(183 -1.15 68.6)scale(-1 1)" gradientUnits="userSpaceOnUse"><stop offset="0" style="stop-color:#444140"/><stop offset="1" style="stop-color:#232020"/></radialGradient><path d="M68.5 32.4c.8-2.9 3.4-2.9 5.3-4.1l1.4-2.7s1.5-1.5 2.6-4.8c1.2-3.5.3-9.2-7.9-12.1l-.2-.1h-.2c-8.3-2.7-12.4 1.5-13.6 5-1 3.2-.8 5.4-.8 5.4l.2 3.1s2.7 3.5 1.5 6.4c-1.8 4.3 10.3 9 11.7 3.9" style="fill:url(#b)"/><radialGradient id="c" cx="64.3" cy="115.1" r="11.2" gradientTransform="rotate(110.3 22.48 -34.55)scale(1 -.823)" gradientUnits="userSpaceOnUse"><stop offset=".4" style="stop-color:#444140;stop-opacity:0"/><stop offset=".9" style="stop-color:#444140"/></radialGradient><path d="M68.5 32.3c.8-2.8 3.4-2.8 5.3-4l1.4-2.7s1.5-1.5 2.6-4.8c1.2-3.5.3-9.3-7.9-12.2h-.2l-.2-.1c-8.3-2.6-12.4 1.5-13.6 5-1 3.3-.8 5.4-.8 5.4l.2 3.2s2.7 3.4 1.5 6.3c-1.8 4.3 10.3 9 11.7 4" style="fill:url(#c)"/><path d="M41.9 22.4 39 20.7l1.6-2.5s3.9 1.8 4.2 2.4-.4 1.5-.4 1.5c-1 1.4-1.8.8-2.6.3" style="fill:#4a2f27"/><path d="M63.4 88.8q-1.5-1.4-2-3.5L60 74.2c1.3-3.7-.6-14.4-9.3-14.4q-1.6 0-3.6.6c-2.2.6-4.9 7.8-4.9 7.8l8.5 25.7a7 7 0 0 0 4 4.5l21.8 11.4 3.7-7z" style="fill:#616161"/><path d="m84.4 102.4-2.5-1.6q-1.7-.8-3.4-.8h-1.2l-4 6.1-2 6.6q-.4 2.7 1.7 4.4l1.1.7a1 1 0 0 0 1.5-.3l9-13.4q.6-1-.2-1.7" style="fill:#325599"/><path d="m41.2 62.3-4.7 22.2q-1.2 5.6-.4 11l3 22.2h7.2l2-24.8 6.2-19 .2-.3c2-2 2.7-6.9 2.7-6.9z" style="fill:#7c7c7c"/><path d="M47 115h-7.8l-7 2.3a5 5 0 0 0-3 4.2v1.4q.2 1 1.2 1.1h17.5q1.2-.1 1.3-1.3v-3.2c0-2.1-2.2-4.5-2.2-4.5" style="fill:#4568ad"/><path d="M96.7 58.7s4.6 2.6 5.2 3.8c.3.8.4 3.7.2 5.6s-1.1 2.3-1.1 2.3-1.6 1-3.3 1.3-1.8-1.3-1.8-1.3-.3-2.8-.2-3.7.9-2.6 1.8-3.7c.4-.5-.3-1-.3-1l-1.8-1.4z" style="fill:#504f4f"/><path d="m37.4 37.9 4.5-8.8-6.8-3.6-5.9 11.3a5 5 0 0 0 0 5q1.7 3.1 5.2 3.8l20.6 4 1.4-9.9z" style="fill:#201284"/><linearGradient id="d" x1="39.3" x2="68.1" y1="52.5" y2="52.5" gradientUnits="userSpaceOnUse"><stop offset="0" style="stop-color:#651fff"/><stop offset=".7" style="stop-color:#5914f2"/><stop offset="1" style="stop-color:#530eeb"/></linearGradient><path d="M67.2 37.4q-1-2.1-2.5-2.7l-6-1.9c-4-1.5-8.2 2.6-9.6 6Q44 48 39.5 64.5a5 5 0 0 0 .4 3.9 5 5 0 0 0 3 2.4 56 56 0 0 0 12 1.6q3.7 0 5.8-1.1 1.1-.7 1.3-2a84 84 0 0 1 5.5-24.2c1-2.2.8-5.4-.3-7.8" style="fill:url(#d)"/><radialGradient id="e" cx="69" cy="42.1" r="9.8" gradientUnits="userSpaceOnUse"><stop offset="0" style="stop-color:#444140"/><stop offset="1" style="stop-color:#232020"/></radialGradient><path d="M78.9 52s-9.1.5-15.7-5.2a11 11 0 0 1-4-8.3q-.1-1.7.1-3.1l.2-1 .6-2s5.5-1 8.4 7.4v.2l.2.6a15 15 0 0 0 3.7 6.2c3 3.3 6.5 5.1 6.5 5.1" style="fill:url(#e)"/><radialGradient id="f" cx="79.2" cy="30.2" r="21.8" gradientUnits="userSpaceOnUse"><stop offset=".8" style="stop-color:#444140"/><stop offset="1" style="stop-color:#444140;stop-opacity:0"/></radialGradient><path d="M78.9 52s-9.1.5-15.7-5.2a11 11 0 0 1-4-8.3q-.1-1.7.1-3.1l.2-1 .6-2s5.5-1 8.4 7.4v.2l.2.6a15 15 0 0 0 3.7 6.2c3 3.3 6.5 5.1 6.5 5.1" style="fill:url(#f)"/><path d="m72.4 46.8-12.8-8-.5-.3-6.6-4.2s2.7-1.9 3.6-1.8q.6 0 3.4 1.8l.6.4 8.4 5.3.2.5a15 15 0 0 0 3.7 6.3" style="opacity:.4;fill:#212121"/><path d="m95.4 60.6 1.3-1.9-50-34.7-1.8 2.5z" style="fill:#7c7d7d"/><path d="m45 26.5 1.7-2.5-15.2-10.4a1.5 1.5 0 0 0-1.7 2.5z" style="fill:#504f4f"/><path d="M46.7 21.8q-.5-.7-1.5-.6-.9.3-1.2 1l-.4.7q-.8 0-1.4.3l-3 1.3q-.4.2-.4.5v2.3c.2.6 1.4 1.5 2 1.7l.6.2.4-.1q.2 0 .7-1.3l.6-1.4c1-.5 2-.7 2-.7l.4-.2q.3-.1.3-.3l.1-.5.1-.3.8-1.4q.3-.5 0-1.2" style="fill:#4a2f27"/><linearGradient id="g" x1="39.9" x2="37.1" y1="16.4" y2="23.9" gradientUnits="userSpaceOnUse"><stop offset=".3" style="stop-color:#70534a"/><stop offset="1" style="stop-color:#5c4037"/></linearGradient><path d="M44 17.7c-.8-.8-1.1 0-1.7-.2s-.3-.7-.9-1c-.9-.3-1.2.3-1.7.1s-.3-.5-1-.7-1 .4-1.5.2-.4-.5-1-.6q-.8-.3-1.6.9c-1.6 2.3-2.5 7-2.5 7L39 27l5-6.4c.5-.8 1-2 .2-2.8" style="fill:url(#g)"/><path d="M59.3 40.6c0 2.8-2.1 4.8-4.2 5.3h-1.4l-23.2-.7q-1.8 0-3.2-1.1a4 4 0 0 1-1.3-4.8l5.5-16.8q0-.3.3-.4h.4l7.6 3.6q.3 0 .3.6L36.6 36l17-1h.3l1 .1a5.4 5.4 0 0 1 4.4 5.4" style="fill:#4300d9"/><path d="m58.8 38.2-5-3H55q2.4.5 3.8 3" style="opacity:.4;fill:#212121"/><ellipse cx="67.4" cy="12.7" rx="8.7" ry="10.6" style="fill:#1976d2" transform="rotate(-86 67.44 12.67)"/><radialGradient id="h" cx="67.9" cy="118" r="15.4" gradientTransform="matrix(1 0 0 -1 0 130)" gradientUnits="userSpaceOnUse"><stop offset=".2" style="stop-color:#42a5f5"/><stop offset=".5" style="stop-color:#3798eb"/><stop offset="1" style="stop-color:#1976d2"/></radialGradient><path d="M75 10.8c4.9 5.5 3.6 11.5 0 16.2-4 5-14 3.1-18.2-1.8s-3.3-11.4 1.3-15.3 12.6-4 17 1" style="fill:url(#h)"/><ellipse cx="67.3" cy="13.3" rx="1.2" ry="1.4" style="fill:#0665b2" transform="rotate(-79.7 67.34 13.28)"/></svg>