<svg xml:space="preserve" width="16" height="16" viewBox="0 0 128 128"><path d="m50.5 74.2-5 5c-1 1-2.5 1-3.5 0L4.7 42c-1-1-1-2.6 0-3.5l5-5c1-1 2.5-1 3.5 0l37.3 37.3c1 1 1 2.5 0 3.5m28.7-28.8-5 5c-1 1-2.5 1-3.5 0L33.4 13.2c-1-1-1-2.6 0-3.5l5-5c1-1 2.5-1 3.5 0L79.2 42c1 1 1 2.5 0 3.5" style="fill:#c9c9c9"/><path d="M28.1 59.5h12v6.7h-12z" style="fill:#9e9e9e" transform="rotate(-45 34.16 62.84)"/><path d="M56.9 30.8h12v6.7h-12z" style="fill:#9e9e9e" transform="rotate(-45 62.87 34.13)"/><path d="M88.4 36.6 36.6 88.3a3 3 0 0 1-4.5 0l-8.3-8.2a3 3 0 0 1 0-4.6l51.7-51.7a3 3 0 0 1 4.6 0l8.2 8.3a3 3 0 0 1 0 4.5M60 59.3 37.4 83s12 11.1 17.3 13.9a43 43 0 0 0 15.1 4.5c2 .3 5-.1 6.9.8 2.2 1 1.8 2.6 3 4.6 2.3 3.9 6.5 4.8 11.4 2.9a67 67 0 0 0 19.2-19.2q3.2-7.4-2.9-11.4c-2-1.3-3.5-.9-4.6-3-.9-2-.5-5-.8-7a43 43 0 0 0-4.5-15 151 151 0 0 0-13.8-17.4z" style="fill:#616161"/><path d="M92 75.7q0 .7.2 1t.8.1c2-.2 3.8-2 4.6-4s.6-4.1.4-6.2a31 31 0 0 0-8.4-17.2q-.8-.9-1.9-1c-1.6.2-3.7 5.3-3.9 6.7-.3 2.7 2.2 4 3.7 6a23 23 0 0 1 4.4 14.6M72 32.1c-.6 1.9 2.3 6.9 4.5 8.7 1.8 1.4 3.1 1 4.2.4 2.7-1.4 5.3-4.6 5.5-4.8q1.3-1.7-.4-3.8C83.4 29.3 81 27 80.2 26c-1.7-1.8-3.8-.6-4.7.2q-2.9 3-3.5 5.8" style="fill:gray"/><path d="m122.9 115.4-7.5 7.4q-2.2 2.4-5.7.2l-21-13.8a4 4 0 0 1-.1-6l14.7-14.7a4 4 0 0 1 6 .2l13.7 21c1.4 2.5 1.4 4.1-.1 5.7" style="fill:#616161"/><path d="m113.7 96.8-7.1 7.2a2.2 2.2 0 0 0 3.1 3.1l7-7-2.4-3.7zm-3.7 15.7c-.8-.9-2.3-.9-3.1 0l-5.2 5.2 3.8 2.5 4.5-4.5a2 2 0 0 0 0-3.2m11.2-5.5-5.8 5.8a2.2 2.2 0 0 0 3.2 3.2l5-5-.6-1.3zm-30.6 2.8s4.6-4 9.9-9.3 9.3-10 9.3-10c1.7 1.7-1.3 7.3-6.6 12.7s-11 8.3-12.7 6.6m-4.7-70.6-46 46 3.4 3c6.6-1.6 17-8.8 26.2-19.2 11.1-12.5 17.1-29 16.4-29.8M80 99c-.8 3.8 5.1 4.6 13.1-3.7 4.7-5 7-11 6.9-13.3-.2-2-1.9-1.8-3.2-.5L91.6 87c-8.2 7.6-11.2 9.4-11.7 12" style="fill:#424242"/><path d="M102 93.4c2.7.7 6.3-4 7-6.3.3-1.4.1-3.5-1.1-4.5-2-1.6-3.6-.7-4.7.6-1.5 1.8-4 9.4-1.3 10.2" style="fill:gray"/></svg>