<svg xml:space="preserve" width="16" height="16" viewBox="0 0 128 128"><ellipse cx="18.2" cy="101.4" rx="7.4" ry="10.8" style="fill:#616161" transform="rotate(-11 18.2 101.41)"/><path d="M15.4 60c-.6 13.2.4 27.8 2 41.9" style="fill:none;stroke:#616161;stroke-width:6;stroke-miterlimit:10"/><ellipse cx="109.8" cy="101.4" rx="10.8" ry="7.4" style="fill:#616161" transform="rotate(-79 109.8 101.4)"/><path d="M112.6 60c.6 13.2-.4 27.8-2 41.9" style="fill:none;stroke:#616161;stroke-width:6;stroke-miterlimit:10"/><path d="M114 66.6c-5.2-.2-9.5-4.1-10.2-9.2A38.7 38.7 0 0 0 64.1 23a39 39 0 0 0-40 34.7 10 10 0 0 1-9.4 8.9H14a6 6 0 0 1-6-6.1 66 66 0 0 1 11-34.7A55 55 0 0 1 64 4c18.4 0 34.4 7.7 45 21.8a66 66 0 0 1 11 34.7 6 6 0 0 1-6 6.1" style="fill:#616161"/><path d="M38.7 123.3c-9.7 1.3-20.8-5.8-23-22.4-2.3-16.5 5.5-26.6 13.5-28.1z" style="fill:#424242"/><path d="m39.3 69.4-8.5 1.4a9 9 0 0 0-6.8 6.7c-1 4.7-1.5 12 .4 22 2 10.1 5.3 16.7 7.9 20.7 2 2.9 5.4 4.3 8.8 3.6l8.5-1.4c4-.8 5-13.3 2.2-28s-8.4-25.8-12.5-25" style="fill:#757575"/><ellipse cx="45.7" cy="95.6" rx="6.3" ry="24.9" style="opacity:.5;fill:#424242" transform="rotate(-11 45.67 95.66)"/><linearGradient id="a" x1="142.6" x2="145.5" y1="234.5" y2="234.5" gradientTransform="rotate(-11 -627.9 670.45)" gradientUnits="userSpaceOnUse"><stop offset=".2" style="stop-color:#212121"/><stop offset="1" style="stop-color:#212121;stop-opacity:0"/></linearGradient><path d="M49.9 94.8c1.7 9.2 2.1 16.8.8 17-1.3.3-3.8-6.9-5.5-16S43 79 44.2 78.6s3.9 7 5.6 16.1" style="fill:url(#a)"/><path d="M89.3 123.3c9.7 1.3 20.8-5.8 23-22.4 2.3-16.5-5.5-26.6-13.5-28.1z" style="fill:#424242"/><path d="m88.7 69.4 8.5 1.4c3.4.7 6 3.3 6.8 6.7 1 4.7 1.5 12-.4 22a58 58 0 0 1-7.9 20.7 9 9 0 0 1-8.8 3.6l-8.5-1.4c-4-.8-5-13.3-2.2-28s8.4-25.8 12.5-25" style="fill:#757575"/><ellipse cx="82.3" cy="95.6" rx="24.9" ry="6.3" style="opacity:.5;fill:#424242" transform="rotate(-79 82.34 95.64)"/><linearGradient id="b" x1="152.9" x2="155.9" y1="236.5" y2="236.5" gradientTransform="rotate(11 697.17 1390.96)scale(-1 1)" gradientUnits="userSpaceOnUse"><stop offset=".2" style="stop-color:#212121"/><stop offset="1" style="stop-color:#212121;stop-opacity:0"/></linearGradient><path d="M78.2 94.8c-1.8 9.2-2.2 16.8-1 17s3.9-6.9 5.6-16c1.8-9.2 2.2-16.8 1-17.1s-3.9 7-5.6 16.1" style="fill:url(#b)"/><path d="M119 62.1c-2.7 2-6.2-.2-7.3-3.2a58 58 0 0 0-8.5-22.7A46 46 0 0 0 64 15.5c-15.1 0-30.2 7-39.2 20.7-4.8 7-7.3 15.5-8.5 22.7-1 3-4.6 5.1-7.4 3.2l-1-.8a6 6 0 0 0 6.2 5.3h.8c6.2 0 8.7-4 9.2-8.7A39 39 0 0 1 64 23a39 39 0 0 1 39.8 34.8c.6 5 3 9 9.8 8.9h.3c3.2.2 5.8-2.2 6.1-5.3z" style="fill:#424242"/><path d="M14.7 41.6c-1-.7-1.7-1.4-.4-6.4 1.6-6 9.1-17.8 24.2-25.5C41.2 8.2 48 6 50 9.8c2 3.6-7.5 6.1-10.9 8a52 52 0 0 0-18.4 16.5c-1 1.7-4 8.9-6.1 7.3" style="fill:#757575"/></svg>