<svg xml:space="preserve" width="16" height="16" viewBox="0 0 128 128"><path d="M32.7 26.6h.1" style="fill:#1976d2"/><path d="M119.6 103.9a82 82 0 0 0-18.2-3.5l-.1.1v-.9a26 26 0 0 0 17.5-17.3q.6-.2 1-.7c2.8-2.8 4.3-11.9 3.4-13.2.4-2.5 1.8-13.9-2-24.1l-.3-.7-.6-1.4-1.7-3.3-.4-.7-1.8-2.4-1-1.2c-4.5-4.7-11.3-8-21.5-8s-15 3.3-19.4 8l-1 1.2-1.8 2.4-.4.7-1.7 3.3-.6 1.4-.3.7a52 52 0 0 0-2 24.1c-1 1.3.6 10.4 3.4 13.2q.4.5 1 .7 2.3 6.6 6.6 10.8c3 3.1 4.9 5.3 8.9 6.5v.9c-8.6.7-16.7 2.6-23 5.7q-4 2.1-6.8 4.8a13 13 0 0 0-4.3 9.7v3.3h71.7v-18z" style="fill:#1798f3"/><path d="M63.7 106.2a41 41 0 0 0-12-4.2q-5.6-1.2-11.5-1.6v.1-.9a26 26 0 0 0 17.4-17.3q.6-.2 1-.7c2.8-2.8 4.3-11.9 3.4-13.2.4-2.5 1.8-13.9-2-24.1l-.3-.7-.6-1.4q-.7-1.7-1.7-3.3l-.4-.7-1.8-2.4-1-1.2c-4.5-4.7-11.3-8-21.4-8-10.2 0-15 3.3-19.5 8l-1 1.2-1.8 2.4q-.1.4-.4.7l-1.7 3.3-.6 1.4-.3.7a52 52 0 0 0-2 24.1c-.9 1.3.6 10.4 3.4 13.2q.4.5 1 .7 2.3 6.6 6.6 10.8c3.1 3.1 5 5.3 9 6.5v.9c-8 .6-15.5 2.3-21.4 5V124h70.1v-3.3c0-6.5-4.2-11.2-10.5-14.5" style="fill:#1976d2"/></svg>