<svg xml:space="preserve" width="16" height="16" viewBox="0 0 128 128"><path d="M64 90h-9v10c0 4.5 3.6 8.2 8.2 8.2h1.6c4.6 0 8.3-3.7 8.3-8.2V90z" style="fill:#e59600"/><linearGradient id="a" x1="64" x2="64" y1="34.2" y2="-.2" gradientTransform="matrix(1 0 0 -1 0 130)" gradientUnits="userSpaceOnUse"><stop offset="0" style="stop-color:#f44336"/><stop offset=".4" style="stop-color:#e73b32"/><stop offset="1" style="stop-color:#c62828"/></linearGradient><path d="M64.1 96c-25.6 0-52 7-52 25v2.7h104V121c0-16.9-26.1-25-51.9-25" style="fill:url(#a)"/><radialGradient id="b" cx="64.3" cy="115.2" r="6.4" gradientUnits="userSpaceOnUse"><stop offset=".5" style="stop-color:#f5f5f5"/><stop offset="1" style="stop-color:#bdbdbd"/></radialGradient><circle cx="64" cy="116.2" r="5" style="fill:url(#b)"/><radialGradient id="c" cx="64.1" cy="18.9" r="31.9" gradientTransform="matrix(1 0 0 -.88 0 127.74)" gradientUnits="userSpaceOnUse"><stop offset=".8" style="stop-color:#f5f5f5"/><stop offset="1" style="stop-color:#e0e0e0"/></radialGradient><path d="M81.6 89.1A30 30 0 0 1 64 93.8a30 30 0 0 1-17.6-4.7c-3-1.7-10.9 10.3-10.9 10.3s3.5 7.5 9 12.1c7.8 6.4 19.5-8 19.5-8s11.8 14.4 19.5 8c5.6-4.6 9-12.1 9-12.1s-8-12-11-10.3" style="fill:url(#c)"/><path d="M90.8 49.6H37.2c-5.8 0-10.5 5.1-10.5 11.4s4.7 11.5 10.5 11.5h53.6c5.7 0 10.5-5.1 10.5-11.5s-4.8-11.5-10.5-11.5" style="fill:#99674f"/><path d="M64.2 94.2c-17.2 0-33-11.4-33-35.4a35.7 35.7 0 0 1 33-35.8q3.7 0 7.9 1.3a36 36 0 0 1 25.3 34.5c0 24-16 35.4-33.2 35.4" style="fill:#ba8d68"/><path d="M48.3 44.6a1 1 0 0 1-1-.7 1 1 0 0 1 .6-1.3c.3 0 6.8-2.6 15.8-2.6s16 2.5 16.3 2.6q.8.4.6 1.3a1 1 0 0 1-1.3.6s-7-2.5-15.6-2.5-15 2.5-15 2.5zm26.8-6.1h-.3s-5-1.6-10.8-1.6c-5.7 0-10.8 1.5-10.9 1.6a1 1 0 0 1-1.2-.7 1 1 0 0 1 .6-1.2 42 42 0 0 1 23 0q.8.3.6 1.2a1 1 0 0 1-1 .7M46.6 79.8l-.8-.3a1 1 0 0 1 0-1.4L53 71a1 1 0 1 1 1.4 1.4l-7.1 7.1zm34.8 0-.7-.3-7.1-7A1 1 0 1 1 75 71l7.1 7.1a1 1 0 0 1-.7 1.7" style="fill:#91674d"/><path d="M55 50c-1-1.1-3-2.9-7.2-2.9s-6.3 1.8-7.2 3q-.5.9 0 1.5t1.9.4c1.4-.3 2.5-1.1 5.3-1.2s4.5 1 5.3 1.2 1.6 0 1.9-.4q.5-.7 0-1.5m32.5-.1c-.9-1.1-3-2.9-7.1-2.9s-6.3 1.8-7.2 3q-.5.9 0 1.5t1.8.4c.9-.3 2.6-1.1 5.3-1.2 2.8 0 4.5 1 5.4 1.2s1.6 0 1.8-.4q.5-.7 0-1.5" style="fill:#9e9e9e"/><ellipse cx="47.8" cy="59.1" rx="4.8" ry="5" style="fill:#49362e"/><ellipse cx="80.4" cy="59.1" rx="4.8" ry="5" style="fill:#49362e"/><path d="m67.8 68.2-.4-.1h-7.2q-1 .5-.7 1.7c.3 1.2 1.7 2.6 4.5 2.6s4.1-2 4.4-2.6q.4-1.2-.6-1.6" style="fill:#99674f"/><path d="M72.2 76a25 25 0 0 1-16.5 0c-1.8-1.1-3.6.5-2.9 2.1s6.4 5.4 11.2 5.4 10.3-3.8 11-5.4c.8-1.6-1-3.2-2.8-2.1" style="fill:#5d4037"/><path d="m54.2 65.9.3-.1c0-5.2 18.6-5.1 18.6.1h0" style="fill:none;stroke:#eee;stroke-width:3;stroke-linecap:round;stroke-linejoin:round;stroke-miterlimit:10"/><path d="M55 70.9H40.6a2.5 2.5 0 0 1-2.6-2.6V63c0-1.4 1.1-2.6 2.6-2.6h14.2c1.4 0 2.6 1.2 2.6 2.6v5.3c0 1.4-1.1 2.6-2.6 2.6m32.7 0H73.2a2.5 2.5 0 0 1-2.5-2.6V63c0-1.4 1.1-2.6 2.5-2.6h14.3c1.4 0 2.6 1.2 2.6 2.6v5.3c0 1.4-1.2 2.6-2.6 2.6" style="fill:#bbdefb"/><linearGradient id="d" x1="64" x2="64" y1="10.3" y2="45.3" gradientUnits="userSpaceOnUse"><stop offset="0" style="stop-color:#e0e0e0"/><stop offset="1" style="stop-color:#9e9e9e"/></linearGradient><path d="M91.2 22.7C84.7 15.5 68 11 64 14.8c-3.9-3.7-20.6.7-27.2 7.9A45 45 0 0 0 28.4 59c.3 1 2.8 1 3 0 1.5-8.6 8.3-20.5 16.9-23 4-1.1 13-1.5 15.7-6.6 2.8 5.2 11.7 5.5 15.8 6.6 8.5 2.5 15.3 14.4 16.8 23 .2 1 2.7 1 3 0 2.8-11.7-1-28.4-8.4-36.4" style="fill:url(#d)"/><radialGradient id="e" cx="63.5" cy="87.6" r="40.7" gradientTransform="matrix(1 0 0 -.871 0 118.71)" gradientUnits="userSpaceOnUse"><stop offset=".4" style="stop-color:#c62828"/><stop offset="1" style="stop-color:#f24235"/></radialGradient><path d="M64.6 4.2c-47.3 0-38.5 50.1-38.5 50.1S31.1 28 63.5 28s38 27.3 38 27.3 10.5-51-36.9-51" style="fill:url(#e)"/><radialGradient id="f" cx="64.1" cy="35.1" r="46.9" gradientTransform="matrix(1 0 0 1.021 0 -.75)" gradientUnits="userSpaceOnUse"><stop offset=".8" style="stop-color:#f5f5f5"/><stop offset="1" style="stop-color:#e0e0e0"/></radialGradient><path d="M95.7 38.7H95c-1 0-1.8-1-1.5-2q.6-1.7.6-3.7a10.5 10.5 0 0 0-16.5-8c-1 .7-2.3.1-2.4-1-.4-4-2.6-9.8-11.7-9.8S52.3 20.1 52 24c-.1 1.1-1.4 1.7-2.4 1q-3.1-2.3-7.4-1.9a10.5 10.5 0 0 0-8.5 13.6c.3 1-.4 2-1.4 2q-1.8 0-4 1a10 10 0 0 0-5.6 8.9c.1 8.2 8.5 15 8.5 15S31.3 51 36 42.9c4.4-7.5 13.8-14 27.6-14C77 29 86.3 35.2 91 42.6c4 6.4 6.2 21 6.2 21s9-7.8 8.2-15.1c-.4-5.3-4.3-9.7-9.6-9.7" style="fill:url(#f)"/></svg>