<svg xml:space="preserve" width="16" height="16" viewBox="0 0 128 128"><path d="M109 38c-.3-3.6-2.7-4.8-2.7-4.8q3.6-7-3.2-10.1.7-7.8-6.6-8.6-1.7-7.6-9-5.7Q83.8 2.2 77.3 6c-3.7-4.2-9-5.4-13.2-.7-4.3-4.7-9.5-3.5-13.3.7q-6.5-3.8-10.3 2.8-7.1-2-9 5.7-7.1.8-6.5 8.6-6.8 3.4-3.2 10S19.3 34.5 19 38a8 8 0 0 0 1.9 5.9c-3 3.5-2 7.2 1.5 9.8 0 0-2.3 7.4 5.8 9.4 0 0 0 6.4 5.8 7.2v-3c-2-.4-2.8-2.4-2.8-4.3l1 .1c.2-.4 57-1.3 64.5-1.4.3 2.2-.2 5-2.7 5.5v3c5.7-.7 5.7-7 5.7-7 8.1-2 5.8-9.5 5.8-9.5 3.5-2.5 4.5-6.3 1.6-9.8 0 0 2.3-2.5 2-6" style="fill:#ab872f"/><linearGradient id="a" x1="64" x2="64" y1="35.8" y2="8" gradientTransform="matrix(1 0 0 -1 0 130)" gradientUnits="userSpaceOnUse"><stop offset="0" style="stop-color:#f78c1f"/><stop offset="1" style="stop-color:#ed6d23"/></linearGradient><path d="M114.4 119.9v4H13.6v-4c0-12.4 12.1-19.8 28-23.2q10.7-2.2 22.4-2.2h.1q11.7 0 22.3 2.3c15.8 3.6 28 11.3 28 23" style="fill:url(#a)"/><path d="M72.9 90H55v10a8 8 0 0 0 8 8.2h1.7a8 8 0 0 0 8.1-8.2zM36.7 72.2c-5.4 0-9.7-4.6-9.7-10.4s4.3-10.4 9.7-10.4h54.6c5.4 0 9.7 4.7 9.7 10.4s-4.3 10.4-9.7 10.4z" style="fill:#c48e6a"/><path d="M64 10.3c-21.4 0-33.5 18.7-33.5 45.4S47 95.5 64 95.5s33.5-13.1 33.5-39.8S85.4 10.3 64 10.3" style="fill:#e0bb95"/><path d="M54.6 49.8c-1-1.2-3-3-7.2-3s-6.3 1.8-7.3 3q-.5.9 0 1.6.5.6 2 .3c1.4-.3 2.5-1.1 5.3-1.1s4.5.8 5.3 1.1 1.7 0 2-.4q.4-.6-.1-1.5m33.3 0c-1-1.2-3.1-3-7.3-3s-6.3 1.8-7.2 3q-.5.9 0 1.6.4.6 1.9.3c1.5-.3 2.5-1.1 5.3-1.1s4.5.8 5.4 1.1 1.6 0 1.9-.4q.5-.6 0-1.5" style="fill:#ab872f"/><ellipse cx="47.4" cy="58.8" rx="4.9" ry="5.1" style="fill:#5d4037"/><ellipse cx="80.6" cy="58.8" rx="4.9" ry="5.1" style="fill:#5d4037"/><path d="M67.9 68H60q-1 .5-.7 1.7c.4 1.2 1.8 2.7 4.6 2.7a5 5 0 0 0 4.6-2.7q.3-1.1-.7-1.7" style="fill:#c48e6a"/><path d="M72.4 76.1a26 26 0 0 1-16.8 0c-1.8-1-3.7.6-3 2.3s6.5 5.4 11.4 5.4 10.6-3.8 11.3-5.4-1-3.4-2.9-2.3" style="fill:#6d4c41"/><path d="M97.1 62.8s2.6-6.2 4.3-11.7c1-3.6 1.5-7.7 1.4-7.8 4.5-3.3 4-6.7-1.1-8.9 3.8-4.4 3.5-7.7-2.2-9 1.6-5.8-.3-8.6-6.1-7.4q.3-9.5-7.7-5.2s-.2-4-2.9-5-6.4 2-6.4 2q-5.7-8.3-12.4 0-6.6-8.3-12.4 0s-3.8-3-6.4-2-2.9 5-2.9 5q-8-4.4-7.7 5.2c-5.8-1.2-7.7 1.6-6 7.5-5.8 1.2-6 4.5-2.3 9-5.2 2-4.9 5.2-.3 8.4 2 1.5 1.8 5.6 2.5 9 2 8.4 2.7 10.5 2.7 10.5s2.6-2.7 3-4.4.9-4.5-.2-6c3.5-2.7 2.2-7.2 2.2-7.2s3-.7 4.8-3.5c.8-1.3 1.2-2 2.6-1.3a8 8 0 0 0 9.7-2.8q1.4.9 3.3.9c3 0 5.4-2 6.3-4.7a7 7 0 0 0 7.6 2s.8 4.6 7 4.3c4.7-.2 6.1-3 6.1-3s1.2 2.4 3.3 3.1 3.8.5 3.8.5-1.1 5.6 4.4 8.8c0 0-1.5 3.5-.7 7.1.6 2.8 2.7 6.6 2.7 6.6" style="fill:#ab872f"/><radialGradient id="b" cx="63.6" cy="88.6" r="48" gradientTransform="matrix(1 0 0 -.88 0 119.45)" gradientUnits="userSpaceOnUse"><stop offset=".8" style="stop-color:#bfa055;stop-opacity:0"/><stop offset="1" style="stop-color:#bfa055"/></radialGradient><path d="M107.1 43.9c2.9 3.5 2 7.2-1.5 9.8 0 0 2 6.6-4.6 9v-.9q-.1-5-3.5-8C96.9 28 84.8 10.3 64 10.3S31 28.1 30.5 53.8a11 11 0 0 0-3.5 9c-6.6-2.5-4.6-9.1-4.6-9.1-3.5-2.6-4.4-6.3-1.5-9.8 0 0-2.3-2.5-2-6 .4-3.5 2.8-4.7 2.8-4.7q-3.6-7 3.2-10.1-.6-7.8 6.5-8.6 1.9-7.6 9-5.7Q44.3 2.2 50.7 6c3.8-4.2 9-5.4 13.3-.7 4.3-4.7 9.5-3.5 13.2.7q6.5-3.8 10.4 2.8 7.1-2 9 5.7 7.2.8 6.5 8.6 6.8 3.3 3.2 10s2.4 1.3 2.7 4.9c.4 3.4-1.9 5.9-1.9 5.9" style="fill:url(#b)"/></svg>