<svg xml:space="preserve" width="16" height="16" viewBox="0 0 128 128"><path d="M116.5 4h-104a8 8 0 0 0-8 8v104a8 8 0 0 0 8 8h104a8 8 0 0 0 8-8V12a8 8 0 0 0-8-8" style="fill:#8e24aa"/><path d="M110.2 4H12a7.6 7.6 0 0 0-7.5 7.5v97.9c0 4.1 3.3 7.5 7.4 7.5h98.2c4.1 0 7.4-3.4 7.5-7.5v-98c0-4-3.2-7.3-7.2-7.4z" style="fill:#ab47bc"/><path d="M40.2 12.9c0-2.3-1.6-3-10.8-2.7-7.7.3-11.5 1.2-13.8 4s-3 8.5-3 15.3c0 4.8 0 9.3 2.5 9.3 3.4 0 3.4-8 6.2-12.3 5.4-8.7 18.9-10.6 18.9-13.6" style="opacity:.3;fill:#fafafa"/><g style="opacity:.2"><path d="M64.5 16a5 5 0 0 1 5 5v6h14a5 5 0 0 1 0 10h-14v9h30a5 5 0 0 1 0 10h-30v25L82 88a5 5 0 0 1-2.5 9.3q-1.5 0-2.5-.7l-7.5-4V107a5 5 0 0 1-10 0V86.9l-12.5-7a5 5 0 0 1 2.5-9.2q1.3 0 2.5.7l7.5 4V56h-30a5 5 0 0 1 0-10h30v-9h-14a5 5 0 0 1 0-10h14v-6a5 5 0 0 1 5-5" style="fill:#424242"/></g><path d="M99.5 56a5 5 0 0 0 0-10h-30v-9h14a5 5 0 0 0 0-10h-14v-6a5 5 0 0 0-10 0v6h-14a5 5 0 0 0 0 10h14v9h-30a5 5 0 0 0 0 10h30v19.3l-7.5-4a5 5 0 0 0-6.8 1.7 5 5 0 0 0 1.8 7l12.5 7v20a5 5 0 0 0 10 0V92.8l7.5 4q1.1.7 2.5.7A5 5 0 0 0 82 88l-12.5-7V56z" style="fill:#fafafa"/></svg>