<svg xml:space="preserve" width="16" height="16" viewBox="0 0 128 128"><path d="M110.8 70.7c-6.3-7-21.9-9.3-35.2-17.5-3.6-2.2-11.5-8.6-12.5-13-.8-3.1 4.5-18.8 2.4-20-3.7-2-8.4 2.4-8.4 2.4s-1.7-8.1-9.8-9.7C40 11.5 32.9 16.1 11 17.1c-4 .2-6 3.2-5.4 7C6 27 9 27.8 9 27.8s-3.1 2-2.8 5.4 3.6 4.2 3.6 4.2-3.1 1.8-3 5.4 3.3 5.1 3.3 5.1L8 63.1c-1.5 10.1-.7 19.4 6.9 26.4h95.8c4.7-3.7 5.6-12.8.2-18.8" style="fill:#039be5"/><path d="M36 13.9q3.3-1.2 6.9-1.3 3.5-.2 7 1 3.5 1.5 5.4 4.8 1.7 3.3 2.4 6.7a82 82 0 0 1 1.2 10.2l.3 1.7.3 1.6q1.6 6.5 6 12Q60.2 45.9 58 39l-.5-1.7-.3-1.7-.5-3.4-1-6.7c-.8-4.3-2.5-8.7-6.5-10.4q-3-1.4-6.3-1.5-3.5-.2-6.8.3" style="fill:#81d4fa"/><circle cx="53.5" cy="40.2" r="3.3" style="fill:#eee"/><circle cx="58.9" cy="50.3" r="3.3" style="fill:#eee"/><circle cx="66.2" cy="57.3" r="3.3" style="fill:#eee"/><circle cx="75.6" cy="62.7" r="3.3" style="fill:#eee"/><circle cx="86.3" cy="67.1" r="3.3" style="fill:#eee"/><path d="m53.5 40.2 9.2-2.1m-3.4 12 6.9-4.8m0 12 5.8-6.2m3.3 11.6 4.4-7.2m6.6 11.6 2.7-7.3M62.9 36.7c-26.8.8-15.1-21.6 0 0 2.8 4 6.4 5.5 8.2 6 9 2.7 13.4-15.5-11-4.7" style="fill:none;stroke:#f6bf26;stroke-width:3;stroke-linecap:round;stroke-miterlimit:10"/><path d="M29.1 55.3A93 93 0 0 1 9.8 50c-.4 3.2-1.3 9.3-2 13q-1 6.4-.2 12.2c14.2 4.8 36.2-9.8 45.9 14.2h8.8C59.6 64.2 47.8 58.8 29 55.3" style="fill:#f6bf26"/><path d="M27.2 60.7A73 73 0 0 1 8.8 57l-1 6q-1 6.4-.3 12.1c14.3 5 36.3-9.7 46 14.3h6.3C56.6 66.8 40.4 62 27.3 60.7" style="fill:#f4511e"/><path d="M21.4 67.9a32 32 0 0 1-13.9-1.8 39 39 0 0 0 0 9.2c14.3 4.8 36.3-9.8 46 14.2H56C52.5 69.2 34.3 67.3 21.4 68" style="fill:#9ccc65"/><path d="m108.6 104.5 5.7-4.4-3.5-7.4 1.7-5.3s-87.6-1-92.1-1.4c-3-.3-6-1-6-1-2.3-.4-4-.9-4-.9l9.7 20.1 5.4-2-4.2-9.5H34l-2.3 7.4c-.6 1.6.4 3.4 2 4l6.6 2a3 3 0 0 0 4-2L48 92.7h17.6l3.7 11.4a3 3 0 0 0 4 2.1l6.6-2.1a3 3 0 0 0 2-4l-2.3-7.4h13.8l-5.3 9.5 6.2 2 6-11.4z" style="fill:#616161"/><radialGradient id="a" cx="28.2" cy="109.6" r="15.2" gradientUnits="userSpaceOnUse"><stop offset=".7" style="stop-color:#ffd740"/><stop offset="1" style="stop-color:#f6bf26"/></radialGradient><circle cx="28.2" cy="109.5" r="14.4" style="fill:url(#a)"/><g style="opacity:.76"><linearGradient id="b" x1="28.2" x2="28.2" y1="114.5" y2="101.9" gradientUnits="userSpaceOnUse"><stop offset="0" style="stop-color:#bf360c;stop-opacity:0"/><stop offset="1" style="stop-color:#bf360c"/></linearGradient><circle cx="28.2" cy="109.5" r="7" style="fill:url(#b)"/></g><circle cx="28.2" cy="109.5" r="3.6" style="fill:#757575"/><linearGradient id="c" x1="105.5" x2="121.9" y1="105.6" y2="92.6" gradientUnits="userSpaceOnUse"><stop offset=".2" style="stop-color:#757575"/><stop offset=".8" style="stop-color:#9d9d9d"/></linearGradient><path d="m103.6 95.9 5.3-3.9c1.4-1 3.3-.9 4.5.3l8 7.4a3 3 0 0 1-.2 4.7l-9.8 7a3 3 0 0 1-4.5-1.2l-4.5-10a4 4 0 0 1 1.1-4.3" style="fill:url(#c)"/><radialGradient id="d" cx="85.4" cy="109.6" r="15.2" gradientUnits="userSpaceOnUse"><stop offset=".7" style="stop-color:#ffd740"/><stop offset="1" style="stop-color:#f6bf26"/></radialGradient><circle cx="85.5" cy="109.5" r="14.4" style="fill:url(#d)"/><g style="opacity:.76"><linearGradient id="e" x1="85.4" x2="85.4" y1="114.5" y2="101.9" gradientUnits="userSpaceOnUse"><stop offset="0" style="stop-color:#bf360c;stop-opacity:0"/><stop offset="1" style="stop-color:#bf360c"/></linearGradient><circle cx="85.5" cy="109.5" r="7" style="fill:url(#e)"/></g><circle cx="85.5" cy="109.5" r="3.6" style="fill:#757575"/><g style="opacity:.57"><path d="M13.7 30.7a105 105 0 0 0 27.5-4 1.5 1.5 0 1 0-.8-2.8C21 29.2 9 27.9 9 27.9s-1.3.8-2.2 2.4c.1 0 4.6.4 6.9.4m1.5 9.9c8.8 0 18.9-1.5 28.5-4.2a1.5 1.5 0 1 0-.8-3c-19 5.1-33.1 4-33.1 4s-1.4.8-2.2 2.4c.2.3 3.5.8 7.6.8M45.3 46c.8-.1 1.2-1 1-1.8q-.6-1.3-1.9-1C29.9 48.7 10.1 48 10.1 48l-.3 2s4.5.7 7.2.6a103 103 0 0 0 28.3-4.5" style="fill:#01579b"/></g></svg>