<svg xml:space="preserve" width="16" height="16" viewBox="0 0 128 128"><path d="M116.5 4h-104a8 8 0 0 0-8 8v104a8 8 0 0 0 8 8h104a8 8 0 0 0 8-8V12a8 8 0 0 0-8-8" style="fill:#427687"/><path d="M122.2 6.3a8 8 0 0 0-5.7-2.3h-104a8 8 0 0 0-8 8v104q0 3.1 2.3 5.7l16.8-16.8h76a6 6 0 0 0 5.9-6V23z" style="fill:#8cafbf"/><path d="M86.2 97.9H44q-1.6-.2-1.8-1.8v-5.3q0-.8.5-1.2l22.2-24.2q4-4.4 7-9.2 2-3.5 2-7.4.2-4.5-2.6-8-3.2-3-7.4-3a11 11 0 0 0-8.6 3.5 13 13 0 0 0-3 7.5q-.3 1.5-1.8 1.7h-7.7a2 2 0 0 1-1.8-2 22 22 0 0 1 2.8-9.2q2.9-5 8-7.7 5.8-3 12.2-2.8 9.9 0 15.7 5c5.8 5 5.7 7.9 5.7 13.8q-.1 5.7-3 10.7A62 62 0 0 1 73.2 71L59.3 85.8a1.8 1.8 0 0 0 1.3 3h25.6c1 0 1.7.9 1.8 1.8v5.5q-.2 1.7-1.8 1.8" style="fill:#fafafa"/><path d="M40.2 12.9c0-2.3-1.6-3-10.8-2.7-7.7.3-11.5 1.2-13.8 4s-3 8.5-3 15.3c0 4.8 0 9.3 2.5 9.3 3.4 0 3.4-8 6.2-12.3 5.4-8.7 18.9-10.6 18.9-13.6" style="opacity:.5;fill:#b4e1ed"/></svg>