<svg xml:space="preserve" width="16" height="16" viewBox="0 0 128 128"><path d="m30.6 103.5 10.5-10.2s-8-3.2-11-3.7l-1.6 14.7q1.5 0 2.1-.8" style="fill:#37474f"/><path d="M104.8 90.4s5 1.5 7.8 3.7.3 6.4.3 6.4c-6.3-2-12.5-2.8-12.5-2.8z" style="fill:#546e7a"/><path d="m5.3 74.5.1 21q0 1 .9 1.6c8 6.3 18 7.1 22.2 7.2 1.2 0 2.2-1 2.2-2.1l.6-10.6c17.8 4.3 20.6 19.5 37.6 25.9 25 9.4 49.7 4 53.6-3.4 0 0 .8-5.6-.5-8-.6-1-112.6-32.9-116.7-31.6" style="fill:#874d36"/><path d="M118 113.7c-4.3 3-24.5 8.3-47.5 0-13.7-5-18.3-18.4-33.4-25-5.2-2.3-12.5-4.1-18-5.6a24 24 0 0 1-13.8-9c.1-2.7 2.9-3.6 5.4-4.4a56 56 0 0 1 37.3 4C63.5 80 70.8 89 82.8 93.2c9.1 3 18.8 4.1 28.1 6.4 13.3 3.3 13.8 9.4 7 14" style="fill:#ffcc80"/><path d="M22.6 70q11.1 0 24.6 5.5c7.6 3.2 13 6.9 18.4 10.5a68 68 0 0 0 34.1 13.3q5.4 1 10.8 2.3c5.7 1.4 9.3 3.5 9.7 5.6q.3 2.2-3.4 4.9c-1.9 1.3-9.5 4-21 4q-12.7 0-24.6-4.3a42 42 0 0 1-15.6-11.5 55 55 0 0 0-17.7-13.4c-4.4-2-10.1-3.5-15.2-5l-3-.8c-7-2-12.4-5-12.4-7 0-.3.2-2.5 9.6-3.7h.3q2.7-.4 5.4-.4m0-2q-2.8 0-5.7.4c-2 .2-11.7 1.3-11.6 5.7S15 81.9 19 83c5.5 1.5 12.8 3.4 18 5.6 15 6.7 19.7 20 33.4 25a75 75 0 0 0 25.3 4.4c11.3 0 19.6-2.6 22.2-4.4 6.7-4.7 6.2-10.8-7-14-9.4-2.4-19-3.4-28.2-6.5-12-4-19.3-13.1-34.8-19.5a68 68 0 0 0-25.4-5.7M88 118.1s.5-9 4.3-14c2.9-4 9.2-7.6 15-9.4 2.5-.8 6.4-.8 6.4-.8a58 58 0 0 0-22.9-9.1c-9.8 0-18.8 5.2-22.7 12-2.3 4-2.7 10.2-2.2 13.6 0 0 3.4 5.7 22 7.7" style="fill:#de7340"/><path d="M87 118.2c0-.5-1-12.8 10.5-20.6 6.6-4.5 11-5 14.8-4.4 4.1.7 1.7 7.3 1.7 7.3l-2.3-.7s1.5-4.4-.5-4.6c-1.2-.2-6.8 0-12.6 4A22 22 0 0 0 89 118z" style="fill:#753d29"/><path d="M72.6 97.3c5.2-4.6 5.7-.7 10 0l3.3.3c2.9.4 3.6 2.8 2.2 5.3-1 1.8-2.4 4.4-4.8 4.5q-1.2-.1-2.3-.8a16 16 0 0 0-8.4-1.6c-5.3 0-2.2-5.8 0-7.7" style="fill:#f2aa7b"/></svg>