<svg xmlns:xlink="http://www.w3.org/1999/xlink" xml:space="preserve" width="16" height="16" viewBox="0 0 128 128"><path d="M18 52.5c0 9.3 20.6 17 46 17s46-7.7 46-17-92-9.4-92 0" style="fill:#ffea00"/><path d="M105.4 52.5c-8.1-5.3-19.6-9.7-41.4-9.7-21.9 0-33.3 4.4-41.4 9.7q-1 .8-.3 1.8C26.7 60 45.8 65.9 64 65.9s38-6.6 41.7-11.6q.7-1-.3-1.8" style="fill:#edbf00"/><linearGradient id="a" x1="64" x2="64" y1="34.2" y2="-7.6" gradientTransform="matrix(1 0 0 -1 0 130)" gradientUnits="userSpaceOnUse"><stop offset="0" style="stop-color:#448aff"/><stop offset=".4" style="stop-color:#3b7dff"/><stop offset="1" style="stop-color:#2962ff"/></linearGradient><path d="M116 124v-3.1c0-16.8-26.3-25.1-52-25.1-25.5 0-52 7.3-52 25v3.2z" style="fill:url(#a)"/><linearGradient id="b" x1="44" x2="44" y1="31.8" y2="-5.9" gradientTransform="matrix(1 0 0 -1 0 130)" gradientUnits="userSpaceOnUse"><stop offset="0" style="stop-color:#ff9100"/><stop offset=".4" style="stop-color:#ff8400"/><stop offset="1" style="stop-color:#ff6d00"/></linearGradient><path d="M58.5 124h-29v-22.8q2.7-1 5.7-1.8a83 83 0 0 1 15.6-3z" style="fill:url(#b)"/><linearGradient id="c" x1="43.1" x2="43.1" y1="32" y2="-6.7" gradientTransform="matrix(1 0 0 -1 0 130)" gradientUnits="userSpaceOnUse"><stop offset="0" style="stop-color:#ff0"/><stop offset=".7" style="stop-color:#fff200"/><stop offset="1" style="stop-color:#ffea00"/></linearGradient><path d="M51 124H36.3l-1.1-24.6q4.4-1.2 9-2z" style="fill:url(#c)"/><linearGradient id="d" x1="84" x2="84" y1="31.8" y2="-5.9" gradientTransform="matrix(1 0 0 -1 0 130)" gradientUnits="userSpaceOnUse"><stop offset="0" style="stop-color:#ff9100"/><stop offset=".4" style="stop-color:#ff8400"/><stop offset="1" style="stop-color:#ff6d00"/></linearGradient><path d="M98.5 101.5V124h-29l7.7-27.5a97 97 0 0 1 21.3 5" style="fill:url(#d)"/><linearGradient id="e" x1="84.9" x2="84.9" y1="31.9" y2="-6.6" gradientTransform="matrix(1 0 0 -1 0 130)" gradientUnits="userSpaceOnUse"><stop offset="0" style="stop-color:#ff0"/><stop offset=".7" style="stop-color:#fff200"/><stop offset="1" style="stop-color:#ffea00"/></linearGradient><path d="m92.8 99.6-1 24.4H77l6.7-26.5q4.7.8 9.1 2.1" style="fill:url(#e)"/><path d="M64 90.2h-9v10c0 4.4 3.6 8.1 8.2 8.1h1.6c4.6 0 8.3-3.6 8.3-8.2v-10zm27.3-39.7H36.7c-6 0-10.7 5.2-10.7 11.4s4.8 11.4 10.7 11.4h54.6c6 0 10.7-5.1 10.7-11.4s-4.8-11.4-10.7-11.4" style="fill:#edc391"/><path d="M64 11.2c-17.4 0-33.5 18.6-33.5 45.3S47 96.4 64 96.4s33.5-13.2 33.5-39.9S81.4 11.2 64 11.2" style="fill:#f9ddbd"/><path d="M67.9 68.1H60q-1 .5-.6 1.7c.3.7 1.7 2.7 4.5 2.7s4.3-2 4.6-2.7q.3-1.2-.7-1.7" style="fill:#dba689"/><path d="M72.4 76.2a26 26 0 0 1-16.8 0c-1.8-1-3.7.6-3 2.3s6.5 5.4 11.4 5.4 10.6-3.8 11.3-5.4-1-3.4-2.9-2.3" style="fill:#444"/><path d="M87.2 50.8s-2.3-3.7-7.6-3.7-7.6 3.7-7.6 3.7l-.3 1q.1 1.5 1.6 1.6l.7-.2c3-1.2 5.6-1.2 5.6-1.2s2.5 0 5.6 1.3l.7.2q1.4-.1 1.6-1.6 0-.6-.3-1M56 50.8s-2.3-3.7-7.6-3.7-7.5 3.7-7.5 3.7q-.3.4-.3 1 .2 1.5 1.5 1.6l.7-.2C46 52 48.4 52 48.4 52s2.5 0 5.7 1.3l.6.2q1.5-.1 1.6-1.6 0-.6-.3-1" style="fill:#454140"/><path d="M64.3 11.1c-45.4.2-36.1 45.2-36.1 45.2l5 8.8c0-7.3 2.8-20.1 4.9-25.6a6 6 0 0 1 6.8-3.8 111 111 0 0 0 19.3 1.8h.2c7.8 0 15-1 19.4-1.8a6 6 0 0 1 6.8 3.8 90 90 0 0 1 4.8 25.6l5-8.8s9.4-45-36-45.2" style="fill:#312d2d"/><ellipse cx="48.4" cy="58.8" rx="4.9" ry="5.1" style="fill:#312d2d"/><ellipse cx="79.6" cy="58.8" rx="4.9" ry="5.1" style="fill:#312d2d"/><radialGradient id="f" cx="64" cy="98.3" r="34.6" gradientTransform="matrix(1 0 0 -.98 0 127.58)" gradientUnits="userSpaceOnUse"><stop offset="0" style="stop-color:#ff0"/><stop offset=".3" style="stop-color:#fff600"/><stop offset=".9" style="stop-color:#ffde00"/><stop offset="1" style="stop-color:#ffd600"/></radialGradient><path d="M64.4 8C17.6 8 21.2 54.3 21.2 54.3s12.2-10.8 43.5-10.8 42 9.8 42 9.8 4.5-45.5-42.3-45.5" style="fill:url(#f)"/><linearGradient id="g" x1="64.3" x2="64.3" y1="125.2" y2="88.2" gradientTransform="matrix(1 0 0 -1 0 130)" gradientUnits="userSpaceOnUse"><stop offset="0" style="stop-color:#ff0"/><stop offset=".4" style="stop-color:#fff900"/><stop offset="1" style="stop-color:#ffea00"/></linearGradient><path d="M74.7 42.2H54V9a5 5 0 0 1 5-5h10.8a5 5 0 0 1 5 5z" style="fill:url(#g)"/><defs><path id="h" d="M64.4 8C17.6 8 21.2 54.3 21.2 54.3s12.2-10.8 43.5-10.8 42 9.8 42 9.8 4.5-45.5-42.3-45.5"/></defs><clipPath id="i"><use xlink:href="#h" style="overflow:visible"/></clipPath><path d="m47.1 10.2 7-2.3v23.3c-1.4-10-3.5-17.3-7-21" style="opacity:.5;clip-path:url(#i);fill:#edbf00"/><defs><path id="j" d="M64.4 8C17.6 8 21.2 54.3 21.2 54.3s12.2-10.8 43.5-10.8 42 9.8 42 9.8 4.5-45.5-42.3-45.5"/></defs><clipPath id="k"><use xlink:href="#j" style="overflow:visible"/></clipPath><path d="m81.7 10.2-7-2.3v23.3c1.5-10 3.5-17.3 7-21" style="opacity:.5;clip-path:url(#k);fill:#edbf00"/><path d="m109.5 51-1-1C90.4 39.6 64 40 64 40s-26.4-.4-44.5 10q-.6.4-1 1c-.6 1-1 2.6.7 5 0 0 11-10.8 44.8-11.4 33.8.7 44.8 11.5 44.8 11.5 1.7-2.5 1.3-4.2.7-5" style="fill:#ffea00"/></svg>