<svg xml:space="preserve" width="16" height="16" viewBox="0 0 128 128"><path d="M4 5.5h120" style="fill:none;stroke:#607d8b;stroke-width:3;stroke-miterlimit:10"/><path d="M57.7 30.3h13.8v4H57.7z" style="fill:#607d8b"/><path d="M76.6 31.5h-24q-1.6-.2-1.8-1.8v-.2q.1-1.7 1.8-1.8h24q1.6.2 1.8 1.8v.2q-.1 1.7-1.8 1.8" style="fill:#82aec0"/><path d="m65.9 29.4 11-10.6q.8-.7 0-1.5L63.7 5.7" style="fill:none;stroke:#82aec0;stroke-width:3;stroke-miterlimit:10"/><path d="m62.7 6.8 4.7 4.1 2.2-2-5-4.4z" style="fill:#607d8b"/><path d="M74 15.6v4.6l2.3-2.3z" style="fill:#82aec0"/><path d="m63.4 29.4-11-10.6a1 1 0 0 1 0-1.5L65.5 5.7" style="fill:none;stroke:#82aec0;stroke-width:3;stroke-miterlimit:10"/><path d="M66.6 6.8 62 10.9l-2.2-2 5-4.4z" style="fill:#607d8b"/><path d="M55.2 15.6v4.6L53 17.9zm11.9-6.9h-5q-1-.1-1-1v-4q0-1 1-1.1h5q1 .1 1.1 1v4q-.1 1-1 1.1" style="fill:#82aec0"/><path d="M38 33.9a25 25 0 0 0-22.2 12.6C3.3 68 4.4 98.8 4.4 98.8s0 2.6 2.4 4.6l6.5 5.9-8.1 8.5c-1.8 1.6-1.3 2.3-1.3 2.3a4 4 0 0 0 3.9 4H124V34z" style="fill:#e0e0e0"/><path d="M60.2 51.7s-5.7 3-11.1 10.4-9.3 16.3-9.3 16.3H124V51.3z" style="fill:#bae2fd"/><path d="M98.3 76.6q-1.1-.1-1.2-1.1V55q0-1 1.2-1.1H124v-4.1H62.9c-3.2 0-6 .2-9.6 4a117 117 0 0 0-14.8 21.3c-1.1 2-1 5.6 3.6 5.6H124v-4.1zm-37-1.1q-.1 1-1 1H44.7c-.9 0-1.4-.8-1-1.5 0 0 8-15.6 15-20.4 1.2-.8 2.5-.8 2.5.4zm33 0q0 1-1 1H65.2q-1 0-1.1-1V55q.1-1 1-1.1h28.2q1 .1 1 1z" style="fill:#37474f"/><path d="M22.3 79.3 40 43.8l-22.4-.4-2 3a101 101 0 0 0-11 45c5-.5 13.4-2.7 17.6-12.1" style="fill:#bae2fd"/><path d="M26 77.7c8-16.3 14-25.8 15.3-28s3.1-5.1 2.4-7c-.5-1.3-.8-2.4-4.8-2.4H20.6a25 25 0 0 0-6 8H33a1 1 0 0 1 .9 1.8S28 60.9 21.3 73.2c-3 5.2-12.4 6.3-15.7 6.3-1.3 10-1 16-1 16s7.2.2 11.8-3c5.4-3.9 7.3-10 9.7-14.8" style="fill:#37474f"/><path d="M13.2 82.1c-1.6-.5-3.4 1-4.2 3.3-.7 2.3 0 4.6 1.5 5 1.6.6 3.5-1 4.2-3.2s0-4.6-1.5-5M16 46h13a1.7 1.7 0 1 0 0-3.3H18.4Q17.1 44 16 46" style="fill:#ffca28"/><path d="M9.3 120.8c-2.3 0-3.7-.8-4.5-1.5-.3-.4-1-.2-1 .3v.5a4 4 0 0 0 4 3.9H124v-3.2z" style="fill:#9e9e9e"/><path d="M5.2 101.6c2.4 5 8 7.7 8 7.7H124v-7.7z" style="fill:#bdbdbd"/></svg>