<svg xml:space="preserve" width="16" height="16" viewBox="0 0 128 128"><path d="M108.7 45.3a25 25 0 0 0-16.4-2.2v-4s2.4-.9 2.1-3.7-6.8-3.1-6.8-3.1L28 32.2s-3.1.5-3.1 3.3S27 39 27 39s-.7 58.5-1 60c-.2 1.7-2 8.1-2.5 10.2q-.8 3 1.6 4.9c1.6 1.3 11.8 9.6 33.8 10.3 21.4.6 31.3-7.6 33.3-9.3 1.2-1.1 2-3.1 1.6-4.6s-1.3-9-1.3-9l-.1-4.4q2.5-.1 5.5-1c6.2-2 13.6-7.5 16-14 3.3-9 5.7-30-5.2-36.7M101 81.6a13 13 0 0 1-8.8 3.7V54.5c2.3-.4 6.6-1 9.2.1 2.4 1 3.7 2.6 4.5 6.2.4 2 1.2 14.6-4.9 20.8" style="opacity:.5;fill:#fff"/><path d="M108.7 45.3a25 25 0 0 0-16.4-2.2v-4s2.4-.9 2.1-3.7-6.8-3.1-6.8-3.1L28 32.2s-3.1.5-3.1 3.3S27 39 27 39s-.7 58.5-1 60c-.2 1.7-2 8.1-2.5 10.2q-.8 3 1.6 4.9c1.6 1.3 11.8 9.6 33.8 10.3 21.4.6 31.3-7.6 33.3-9.3 1.2-1.1 2-3.1 1.6-4.6s-1.3-9-1.3-9l-.1-4.4q2.5-.1 5.5-1c6.2-2 13.6-7.5 16-14 3.3-9 5.7-30-5.2-36.7M101 81.6a13 13 0 0 1-8.8 3.7V54.5c2.3-.4 6.6-1 9.2.1 2.4 1 3.7 2.6 4.5 6.2.4 2 1.2 14.6-4.9 20.8" style="opacity:.7;fill:#e0e0e0"/><path d="m28.8 94.8-.4 13 6.3 6.3 2 1.4.2-11.5-4.3-3.7z" style="fill:#fff"/><path d="M26.5 109.4c0 .5 5.1 5.9 15.1 9.2s22.3 3.5 33.7.8 15.8-9.4 15.8-9.4.2-1.5-1-2-4.5-.8-6.5 1.4c-2 2-2.2 5.3-2.2 5.3s-2.2-4.2-7.5-3.1c-5.5 1-7.3 6.6-7.3 6.6s-2.2-4.7-7.7-4.8-8.5 5.6-8.5 5.6 1-6.5-5.8-8.4c-6.4-1.7-9 3.6-9 3.6s-.2-5.2-3.2-7c-4-2.4-6 2.2-6 2.2" style="fill:#d5d5d5"/><path d="M29.6 34v10l-.1 3.8L66.3 70l22.6-25V34.4z" style="fill:#ebc990"/><path d="M30 92.3s-2 .2-1.5 2.7c.2 1.4 5.8 17 31 16.7 24.2-.2 29.7-15.4 29.9-16.7.3-2.7-3-1.8-3-1.8z" style="fill:#9d9d9c"/><radialGradient id="a" cx="60.3" cy="13.5" r="96.2" gradientTransform="rotate(91 58.67 11.77)scale(1 .75)" gradientUnits="userSpaceOnUse"><stop offset=".6" style="stop-color:#db8116"/><stop offset=".9" style="stop-color:#fdb408"/></radialGradient><path d="M59 50.6c-18.3.5-29.5-6.2-29.5-6.2l-.2 46.2c0 4 4.9 19.5 29.7 19.3 24.9-.3 30-15.7 30-19.7V44.4s-8 5.5-30 6.2" style="fill:url(#a)"/><path d="M91.7 47c.3 3 4.6 1 8.8 1.1 4.7.1 7.5 2 7.7-.6.3-2.7-4.5-3.4-8.4-3.6-2.6-.2-8.3.4-8 3.2" style="fill:#fff"/><path d="M92.1 52.4c-.6.7-.1 4.2.2 4.5.6.4 4.2-1.7 8-.4 6.3 2 5.5 6.1 5.9 6s1.3-6.9-3.9-9.7c-3.9-2.1-9.6-1-10.2-.4" style="fill:#9e9e9e"/><path d="M92.7 87c-.8.7-.5 3 2 3 2.7 0 6.5-.9 9.6-4.6 2.2-2.6 2.7-7.4 1.9-7.4s-2.5 4.9-6.9 7.2c-4 2-5.9 1.2-6.6 1.9" style="fill:#fff"/><path d="m92.2 93.6.2 4.6s7.4.4 15-5.6c9.2-7.4 9-21.6 9-21.6-.1 0-3 12.4-11 18.2-6.5 4.7-13.2 4.4-13.2 4.4" style="fill:#9e9e9e"/><path d="M62.7 61.9c-1 1.6-.6 3.2.2 3.7 1 .6 2.6 0 3.3-1.6.7-1.3.7-2.8-.6-3.4q-1.5-.7-3 1.3M54.4 72c-1.1.8-.7 2 0 3 .8 1 2.2 1.4 3 .7s.7-2.1 0-3.1q-1.3-1.6-3-.7m-1.3 9.4c-2 0-2.2 2-2 2.9 0 .5.6 1.8 2.4 1.7s2.1-2 2-2.7-.6-2-2.4-1.9m6.3 1.5c-1 0-1.9 1-1.6 2.3.2 1.4 1.2 1.8 2 1.7.7-.1 1.5-.9 1.4-2.2-.1-1.2-1-1.8-1.8-1.8m4.1 7c-1.2 0-2 1.2-2 2.6.1 1.5 1 3.2 2.7 3 1.3-.1 1.9-2.1 1.6-3.3s-1-2.3-2.3-2.3m-6.9 6.5c-1.3.4-1 2.7-.7 3.3.2.7.9 2 2.3 1.8s1.2-2.3.7-3.5c-.4-1-1-2-2.3-1.6" style="fill:#ffe265"/><path d="M29.8 22.8c-.3.3-6.3 1-6.1 6.5.1 5.4 6 7.2 8.2 8 2.3.8 7.4 1.6 9 6.6 1.4 5 1.7 7.4 4 8 2.9.8 4.8-3.3 6.2-5.6 1.5-2.4 3-4.6 5.3-4.9s16.1 0 24-2c8-2 14.4-6.5 14-13-.4-9.2-13-8.2-13-8.2s-5-12.5-18.2-14C46.7 2.1 43 12.4 43 12.4s-6-1.7-10.5 2.4c-3.7 3.4-2.7 7.9-2.7 7.9" style="fill:#fadfb1"/><path d="M44.7 17.1c-.8.5-5.5-2.8-9 1-3.1 3.1-.8 6-1.8 7.3-1.3 1.6-6 1-5.6 4.4.3 3.4 5 3.7 7.4 4.4a17 17 0 0 1 6.7 3.6c2.3 2 1.5 7.2 3.8 7.6 2.3.5 2.8-4.6 5.7-6.8s5-2 12.5-2.4c7.4-.5 26-.8 25.2-9.2-.5-6.8-8.4-4.2-10.8-5.4S73.6 9.9 62 8.3c-12-1.6-16.1 8-17.4 8.8M32.5 42.6c-.3 2-.5 46.3-.5 46.3s-.2 3.5 2.8 3.9c2.7.4 3.8-2.3 3.8-4 .1-1.8.5-41.6.4-43.4s-1.8-3.8-3.5-4.3-2.8.2-3 1.5" style="fill:#fff"/></svg>