<svg xmlns:xlink="http://www.w3.org/1999/xlink" xml:space="preserve" width="16" height="16" viewBox="0 0 128 128"><linearGradient id="a" x1="64" x2="64" y1="64.7" y2="-97" gradientTransform="matrix(1 0 0 -1 0 130)" gradientUnits="userSpaceOnUse"><stop offset="0" style="stop-color:#3a3233"/><stop offset=".3" style="stop-color:#2d2728"/><stop offset=".9" style="stop-color:#0b0909"/><stop offset="1" style="stop-color:#070606"/></linearGradient><path d="M4 74.8s24-9 60-8.8c17.6 0 37.3 3 60 8.8 0 0-23.4 45.4-60 45.4S8 83.8 4 74.8" style="fill:url(#a)"/><linearGradient id="b" x1="64" x2="64" y1="64" y2="18.6" gradientTransform="matrix(1 0 0 -1 0 130)" gradientUnits="userSpaceOnUse"><stop offset="0" style="stop-color:#f70000"/><stop offset=".2" style="stop-color:#f30000"/><stop offset=".4" style="stop-color:#e90000"/><stop offset=".6" style="stop-color:#d60000"/><stop offset=".8" style="stop-color:#bd0000"/><stop offset="1" style="stop-color:#a00000"/></linearGradient><path d="M4 74.8s52.7-19.9 120 0c0 0-23.6 37-60.2 37S8 82.6 4 74.8" style="fill:url(#b)"/><path d="M64.6 4.1c-41 0-40.7 38-40.7 38.5 0 24.6 1.9 59.3 11.7 73 3.9 5.4 11.4 5.7 11.4 5.7h34s7.5-.3 11.4-5.7c9.8-13.7 11.7-48.4 11.7-73 0-.6 1.5-38.5-39.5-38.5" style="fill:#543930"/><linearGradient id="c" x1="64" x2="64" y1="9.4" y2="38.5" gradientTransform="matrix(1 0 0 -1 0 130)" gradientUnits="userSpaceOnUse"><stop offset=".4" style="stop-color:#ffca28"/><stop offset=".8" style="stop-color:#ffb300"/></linearGradient><path d="M91.5 99.3Q82.8 96.9 73 96v-6H55v6q-9.9.6-18.4 3-.3 1-.3 2.3c0 9.8 12.4 17.7 27.7 17.7s27.7-8 27.7-17.7z" style="fill:url(#c)"/><path d="M64 16c-17.2 0-33.1 12.8-33.1 40A40 40 0 0 0 56 94.8a24 24 0 0 0 7.9 1.5q3.6 0 7.8-1.5A40 40 0 0 0 97.1 56c0-27.2-15.9-40-33.1-40" style="fill:#ffca28"/><ellipse cx="47.8" cy="58.9" rx="4.9" ry="5" style="fill:#404040"/><ellipse cx="80.3" cy="58.9" rx="4.9" ry="5" style="fill:#404040"/><path d="M55 49.8c-1-1.2-3-3-7.2-3s-6.3 1.8-7.3 3q-.5 1 0 1.6t2 .4c1.4-.2 2.4-1.2 5.3-1.2 2.8 0 4.5.9 5.3 1.2q1.4.3 2-.4.4-.6-.1-1.6m32.5 0c-1-1.2-3-3-7.2-3s-6.4 1.8-7.3 3q-.5 1 0 1.6t1.9.4c1.4-.2 2.5-1.2 5.4-1.2 2.8 0 4.4.9 5.3 1.2q1.4.3 1.9-.4t0-1.6" style="fill:#6d4c41"/><path d="M72.3 76.1a25 25 0 0 1-16.6 0c-1.8-1-3.6.6-2.9 2.3s6.4 5.3 11.2 5.3 10.5-3.7 11.2-5.4c.8-1.6-1-3.2-2.9-2.2" style="fill:#795548"/><path d="M67.8 68h-7.6q-1.1.5-.7 1.7a5 5 0 0 0 4.5 2.6c2.8 0 4.2-2 4.5-2.6q.4-1.2-.7-1.6" style="fill:#e59600"/><path d="M64 7C25 7 26 42.7 26 42.7s.1 45.4 3 51.4c3 6 7.7 3.7 7.7 3.7s-3-23.2-3-37C33.8 35.7 51 22.1 64 36c13-13.8 30.2-.2 30.2 24.6 0 13.9-3 37-3 37s4.7 2.5 7.6-3.6c3-6 3-51.3 3-51.3S103 7 64.2 7" style="fill:#543930"/><radialGradient id="d" cx="64.2" cy="63.8" r="59.9" gradientTransform="matrix(0 1 .782 0 14.28 -.2)" gradientUnits="userSpaceOnUse"><stop offset=".8" style="stop-color:#6d4c41;stop-opacity:0"/><stop offset="1" style="stop-color:#6d4c41"/></radialGradient><path d="M104.1 42.7c0 18.3-1 42.3-5.7 59-9.6-3.8-22-5.7-34.3-5.7H64c-12.3 0-24.8 1.7-34.5 5.4a248 248 0 0 1-5.6-58.7C23.9 42 23.6 4 64.6 4s39.5 38 39.5 38.6" style="fill:url(#d)"/><defs><path id="e" d="M72.4 76.1a26 26 0 0 1-16.8 0c-1.8-1-3.7.6-3 2.3s6.5 5.4 11.4 5.4 10.6-3.8 11.3-5.4-1-3.4-2.9-2.3"/></defs><clipPath id="f"><use xlink:href="#e" style="overflow:visible"/></clipPath><g style="clip-path:url(#f)"><path d="m55.3 75.7 1 5 2.4-4zm17.4 0-1 5-2.4-4z" style="fill:#fff"/></g><linearGradient id="g" x1="63.8" x2="63.8" y1="34.8" y2="23.2" gradientTransform="matrix(1 0 0 -1 0 130)" gradientUnits="userSpaceOnUse"><stop offset="0" style="stop-color:#3a3233"/><stop offset=".3" style="stop-color:#2d2728"/><stop offset=".9" style="stop-color:#0b0909"/><stop offset="1" style="stop-color:#070606"/></linearGradient><path d="M76.7 95.1q-1.8-.5-3.4.7a19 19 0 0 1-9.5 3l-1.6-.2a17 17 0 0 1-7.8-2.8q-1.6-1-3.4-.7c-2.7.9-.1 11.3 12.8 11.4 13-.1 15.6-10.5 12.9-11.4" style="fill:url(#g)"/><linearGradient id="h" x1="28.7" x2="52.4" y1="81" y2="108.4" gradientTransform="matrix(1 0 0 -1 0 130)" gradientUnits="userSpaceOnUse"><stop offset="0" style="stop-color:#e0e0e0;stop-opacity:0"/><stop offset=".7" style="stop-color:#e0e0e0"/></linearGradient><path d="M64 25.1S52.4 8.3 37.3 21.2C24 32.6 28.5 67.4 28.5 67.4s.5-35.7 15.5-44c10.8-5.8 20 1.7 20 1.7" style="fill:url(#h)"/><radialGradient id="i" cx="64.6" cy="6.8" r="64.5" gradientTransform="matrix(1 0 0 -.548 0 127.76)" gradientUnits="userSpaceOnUse"><stop offset=".6" style="stop-color:#212121"/><stop offset="1" style="stop-color:#616161"/></radialGradient><path d="M116 120.8v3.2H12v-3.2c0-11 10-17.9 24.6-21.6q-.3 1-.3 2.2c0 9.8 12.4 17.7 27.7 17.7s27.7-8 27.7-17.7l-.2-2q5 1.4 8.7 3c7.2 3.1 15.8 8.9 15.8 18.4" style="fill:url(#i)"/></svg>