<svg xml:space="preserve" width="16" height="16" viewBox="0 0 128 128"><path d="M67.2 13.3c-2.5-4-8.2-7.2-13-6.4-5.2.9-8 4.7-8.8 9.5q-.4 2.7 0 4.7l.4 1.6c.2 1.3-2.3 2.6-2.6 4-.2 1 2 1.8 2.2 2 1 1-.5 5.5 5.7 6 2.4.2 1.9 0 2.6.3 1 .4 1 3.3 1 3.3s.6 4.8 4.7 3.5c4.6-1.4 4.8-4.7 4.8-4.7s-1.7-4.6 1-9.4c2.3-3.8 3.6-11.7 2-14.4" style="fill:#f9ddbd"/><path d="M46 31.2q1.4.1 2.5-.7c.8-.6.2-1.2-.7-.8q-.8.3-2 .2z" style="fill:#444"/><ellipse cx="49.6" cy="23.4" rx="1.1" ry="1.7" style="fill:#312d2d" transform="rotate(-1.8 49.65 23.39)"/><path d="M48.8 20.8c-1.1.3-1.4-.5-1-1s1-.8 2.3-.4q1.6.6 2 1.4.4 1 0 1c-.5 0-2-1.3-3.3-1" style="fill:#454140"/><path d="m85.3 108.7-14.1-16a6 6 0 0 1-1.5-3.7l-1.4-22.4-15.5 1.7 5 23.2a16 16 0 0 0 5.9 9.4L80 113.5z" style="fill:#616161"/><path d="m68.2 62.9-17.6 1.6L46 84.9q-1.2 5.6-.8 11.5l1.6 23.2h6.7l3-25 5.1-13.4c4-2 7.6-5 7.4-9.9q-.2-4.2-.8-8.4" style="fill:#7c7c7c"/><linearGradient id="a" x1="51.9" x2="69.1" y1="77.6" y2="65.6" gradientTransform="matrix(1 0 0 -1 0 128)" gradientUnits="userSpaceOnUse"><stop offset="0" style="stop-color:#f78c1f"/><stop offset=".5" style="stop-color:#f47f12"/><stop offset="1" style="stop-color:#ef6c00"/></linearGradient><path d="M64.9 73.5h-12c-2.2 0-4-2.2-4-4.8L51 46.2c.5-4.2 2.6-8.1 4.7-9.6a11 11 0 0 1 4.8-1.7c1.5-.1 3.8.3 5.2 2.4.9 1.3 1.5 3.7 1.7 5.9L69 68.7c0 2.6-1.8 4.8-4.1 4.8" style="fill:url(#a)"/><linearGradient id="b" x1="59.2" x2="56" y1="57.6" y2="76.3" gradientTransform="matrix(1 0 0 -1 0 128)" gradientUnits="userSpaceOnUse"><stop offset=".5" style="stop-color:#f9ddbd"/><stop offset="1" style="stop-color:#ffd29c"/></linearGradient><path d="m66.8 60.3-2.2-13.8-7 1 2.1 13.3-3.5 9.8c-.3.5-3.5 2-3.7 2q-.9.5-1.4 2c-.2.8-.6 2.9.4 3.2-.4 1-.1 2.2.1 2.5.6.6 1.3.3 1.3.3s.1.8.8 1c.8.4 1.4 0 1.4 0l1 .3 1.1-.4c.2 0 .7.4 1.4-.1.4-.3 1.7-2 2.2-3.2.2-.7.2-4.5.5-5.2l5.2-10.2q.6-1.2.3-2.5" style="fill:url(#b)"/><linearGradient id="c" x1="53.3" x2="55.6" y1="44.8" y2="50.7" gradientTransform="matrix(1 0 0 -1 0 128)" gradientUnits="userSpaceOnUse"><stop offset=".5" style="stop-color:#f9ddbd"/><stop offset="1" style="stop-color:#ffd29c"/></linearGradient><path d="M58.9 78.7q-.3-.8-.8-.5-1 .3-1.6-.6 0-.2-.3-.2-1 .5-1.7-.7 0-.4-.6-.4c-.1 0-.4.2-.8-.2s.1-1.3-.4-1.4c-.1 0-.8.1-1-.7-.2-.5.4-1 .4-1q-.6.4-1 1.7c-.1.7-.6 2.8.4 3.1-.4 1-.1 2.2.1 2.5.6.6 1.4.3 1.4.3s0 .9.7 1c.8.4 1.4 0 1.4 0l1 .3 1.1-.4c.2 0 .8.4 1.4-.1.4-.3 1.4-1.5 1.9-2.6-.5.4-1.5.4-1.6-.1" style="fill:url(#c)"/><path d="M54.6 124q1 0 1.2-1.2V120c0-1.9-2-4-2-4h-7l-6.2 2a4 4 0 0 0-2.6 3.7v1.3q.1.9 1 1z" style="fill:#4568ad"/><path d="M89.7 111.8q.6-.7 0-1.6l-2-2c-1.4-1.3-4.3-1.5-4.3-1.5l-4.9 5-3 5.9a4 4 0 0 0 .9 4.4l.8.9q.7.6 1.5 0z" style="fill:#325599"/><path d="M58.4 79.4q0 .7-.3 1.2a2 2 0 0 1-.9.9q0-.7.3-1.3.2-.5.9-.8m-2-.9q0 1-.3 1.7-.3.8-1 1.4 0-.8.3-1.7t1-1.4m-2.4-1q0 1-.2 1.7-.2.8-.8 1.5-.2-1 .1-1.7.2-.8.9-1.5m-.2-3.6-.9.8-.5 1q-.2 1.1-1 2.2-.2-1.3.4-2.5.3-.6.8-1z" style="fill:#edbd82"/><path d="m56.4 53 10.9-2-1.8-9.7c-.5-3-3.4-5-6.4-4.4s-5 3.4-4.5 6.4z" style="fill:#ed6d23"/><path d="M70.7 13.5a8 8 0 0 0-5-4.5c-.3-1.2-2.4-5.8-10-4.5a11 11 0 0 0-4.3 2l-1.4.8q-.7.3-1.5.1c-1.2-.4-.9-2.2-.9-2.2s-4.4.9-2.5 5.2c-1.5.6-2.2 2.2-2.4 3.7-.4 2 .6 4 2.5 4.8 0 0-.4-3.2 4.4-3 1.4 0 3 .2 4.3-.3l1.5-.8h.2c1.8 1-.6 5.2 1.4 7.6.4.5.7.3.7.3l.8-1.1q.9-1.4 2-1.4c2.1.5 1.7 4.5-.9 5.4-.3 0 .4 4.5 5.8 4.5 2.8 0 3.8-2.4 3.8-2.4s-1.2.3-1.4-.7q-.2-.8 1.2-2a5 5 0 0 0 1.2-5.7c.4-.8 1.5-3.2.5-5.8" style="fill:#312d2d"/><radialGradient id="d" cx="63.4" cy="103.5" r="7.1" gradientTransform="rotate(20.3 -422.21 -62.3)scale(1 -1.44)" gradientUnits="userSpaceOnUse"><stop offset=".5" style="stop-color:#454140;stop-opacity:0"/><stop offset="1" style="stop-color:#454140"/></radialGradient><path d="M70.2 19.3c0-.1-.8 2-4.4 1.6-1.4 0-3.5 3.6-1.3 6 1.9 2 4.7.8 4.7.8h-1l-.4-.7q-.2-.8 1.2-2a5 5 0 0 0 1.2-5.7" style="fill:url(#d)"/><radialGradient id="e" cx="64.3" cy="110.7" r="7.2" gradientTransform="rotate(172.3 4.13 82.83)scale(-1 1.262)" gradientUnits="userSpaceOnUse"><stop offset=".5" style="stop-color:#454140;stop-opacity:0"/><stop offset="1" style="stop-color:#454140"/></radialGradient><path d="M70.7 13.5a8 8 0 0 0-5-4.5 4 4 0 0 1 0 2.4s-.5 1.3-1.6 2.3a12 12 0 0 1 1.6 3.8c.3 1.1.7 2.4.1 3.5q1.1.2 3-.4 1.7-1.1 2.1-3.1t-.2-4" style="fill:url(#e)"/><radialGradient id="f" cx="56.2" cy="113.2" r="14.9" gradientTransform="rotate(171.2 2.71 54.29)scale(-1 .752)" gradientUnits="userSpaceOnUse"><stop offset=".5" style="stop-color:#454140;stop-opacity:0"/><stop offset="1" style="stop-color:#454140"/></radialGradient><path d="M65.6 11.4c.9-2.2-.3-4.3-2.2-5.6q-3.5-2.2-7.6-1.3a11 11 0 0 0-4.4 2l-1.4.8q-.7.3-1.5.1c-1.3-.4-.9-2.2-.9-2.2s-4.4.9-2.5 5.2c-1.5.6-2.2 2.2-2.4 3.7-.4 2 .6 4 2.5 4.8 0 0-.4-3.2 4.4-3 1.4 0 3 .2 4.3-.3s1.6-1.1 3-1c1.4 0 3.3.6 4.8.3 3-.4 3.9-3.4 4-3.5" style="fill:url(#f)"/><radialGradient id="g" cx="65.1" cy="102.6" r="8" gradientTransform="rotate(194.3 -2.54 37.54)scale(-1 .643)" gradientUnits="userSpaceOnUse"><stop offset=".5" style="stop-color:#454140;stop-opacity:0"/><stop offset="1" style="stop-color:#454140"/></radialGradient><path d="M64.5 26.9c-1-1-1.3-2.7-2.8-3.6q-.5 1.6-2.1 2.2c-.3.1.4 4.6 5.8 4.6 2.8 0 3.8-2.4 3.8-2.4s-2.8 1.3-4.7-.8" style="fill:url(#g)"/></svg>