<svg xml:space="preserve" width="16" height="16" viewBox="0 0 128 128"><path d="M105.8 94.3H22.5c-2 0-3-1.4-3-3l14.2-54.6a3 3 0 0 1 3-3h83.2a3 3 0 0 1 3 3l-14.2 54.6a3 3 0 0 1-3 3" style="fill:#fff"/><path d="M122.8 36s-1-1.1-2.5 0L76.8 64.8a8 8 0 0 1-10 0L36.3 35.5q-.7-.5-1.5.1-.6.9.1 1.6L53 57 20.5 92.1q-.7.8-.2 1.1c.4.3.7 1.3 1.2.7l34.6-33.4 8.7 9.5a10 10 0 0 0 13.5 0l9.7-7.6 18 30.5q.8.8 1.4.4c.3-.2 1.5-1 1.1-1.4L92 59.5l29.5-22.8c.5-.4 1.4-.6 1.4-.6z" style="fill:#6fbff0;stroke:#6fbff0;stroke-width:.5;stroke-miterlimit:10"/><path d="M105.8 94.3H22.5c-2 0-3-1.4-3-3l14.2-54.6a3 3 0 0 1 3-3h83.2a3 3 0 0 1 3 3l-14.2 54.6a3 3 0 0 1-3 3z" style="fill:none;stroke:#6fbff0;stroke-width:4;stroke-miterlimit:10"/><path d="M5.1 36.1h21.6M5.1 47.3h15.5m-15.5 0h12.5M5.1 57.5h6.3" style="fill:none;stroke:#b0bec5;stroke-width:4;stroke-linecap:round;stroke-linejoin:round;stroke-miterlimit:10"/></svg>