<svg xml:space="preserve" width="16" height="16" viewBox="0 0 128 128"><radialGradient id="a" cx="63.5" cy="64.9" r="33.8" gradientTransform="rotate(66.6 181.48 142.33)scale(1 3.384)" gradientUnits="userSpaceOnUse"><stop offset=".1" style="stop-color:#e8d59a"/><stop offset=".3" style="stop-color:#e9d297"/><stop offset=".4" style="stop-color:#eac78c"/><stop offset=".6" style="stop-color:#edb67b"/><stop offset=".6" style="stop-color:#eeb075"/><stop offset=".9" style="stop-color:#f5a97f"/></radialGradient><path d="M48.5 35.1a33.6 33.6 0 0 0-17.3 37.2q1 5 3.5 9.7c8.1 15.3 29.3 20.4 45.8 11.4A33.4 33.4 0 0 0 95 50a35 35 0 0 0-5.7-8.3 33 33 0 0 0-40.8-6.6" style="fill:url(#a)"/><radialGradient id="b" cx="49.9" cy="39" r="62.2" gradientTransform="rotate(63.2 107.37 74.4)scale(1 2.814)" gradientUnits="userSpaceOnUse"><stop offset=".2" style="stop-color:#e3dda6"/><stop offset=".3" style="stop-color:#e4d9a0"/><stop offset=".4" style="stop-color:#e8cd90"/><stop offset=".4" style="stop-color:#eac788"/></radialGradient><path d="M89.3 41.7a33 33 0 0 0-40.8-6.6 33.6 33.6 0 0 0-17.3 37.2s8.9.3 32.5-13.4 25.5-17.2 25.5-17.2" style="fill:url(#b)"/><path d="M38.6 42.9S49.5 42.2 52 41c1.9-.8 9-9.8 9-9.8s-6 .4-12.6 3.8c-6.4 3.4-9.8 8-9.8 8" style="fill:#c6ddcb"/><path d="M31.2 72.3s9-.8 30.3-12.3 26.9-19.2 26.9-19.2a36 36 0 0 0 8.8 14.8L77.4 69s-1.1-4 1.5-7.3c2.6-3.4 7-5.9 6.4-7.6s-5.5 0-9.5 3.3c-4 3.4-8 7.2-9.5 6.2s2.8-4.2 1-4.6-5.1 1.6-9.9 5.7c-4.7 4-7.6 7.6-14.7 9.2-6.3 1.4-11.2-.1-11.2-.1z" style="fill:#f8dbaf"/><radialGradient id="c" cx="60.7" cy="68.5" r="26.6" gradientUnits="userSpaceOnUse"><stop offset=".4" style="stop-color:#f6dfb4"/><stop offset="1" style="stop-color:#f9d4a4"/></radialGradient><path d="M34.2 81s5 .9 10.9-1.3c9-3.4 11.5-7.6 15.5-9.7 2-1 4.6-1.2 4.2 2.5-.4 4-8.4 9.2-8.4 9.2L39 88l-2.7-3.3c-1-1.3-2.1-3.8-2.1-3.8" style="fill:url(#c)"/><radialGradient id="d" cx="81.3" cy="66.7" r="37.8" gradientUnits="userSpaceOnUse"><stop offset="0" style="stop-color:#f6dfb4"/><stop offset=".9" style="stop-color:#f9d4a4"/></radialGradient><path d="M45.5 93.2S57.9 91 74.9 80.9s23.3-17 23.3-17l-.1 2.6-.3 2.1s-8.2 9-21.2 16.5c-15.1 8.7-25.8 10.5-25.8 10.5l-2.7-1z" style="fill:url(#d)"/><path d="m32.4 53.6-.8 2.6L31 59s7.6-.9 25.2-10 21.4-15.6 21.4-15.6l-2.7-1c-1.1-.4-2.6-.7-2.6-.7S64.5 39 53.9 44.4a157 157 0 0 1-21.5 9.2m-1.7 7.2-.1 1.3-.1 1.5S40 62.8 57.7 53 82 35.7 82 35.7l-1.4-.9-1.4-.7s-6.5 8.2-22.8 16.6a92 92 0 0 1-25.6 10.1" style="fill:#f6cb89"/><path d="M87.2 39.6s33.2-14.3 38.8-6.9-25.6 28.8-57.5 46S5.9 106.8 2.2 99s28.6-28.7 28.6-28.7l.5 2.8L17 85l-1.8 8.3L32.9 90s20.2-7 33.3-14S107 49.7 107 49.7l7.8-13.2-25.8 5-.8-.9z" style="fill:#94c7ea"/><path d="M31 71.8S5 87.3 8.3 95.6c3 7.5 36.2-4.7 63.8-20.5 25.4-14.4 52.7-32 48-39.8-4.1-7-32 5.2-32 5.2l.7.6.5.6c.3.3 20.7-5.2 22.2-2.2s-19.2 22.6-41 34S19 97 17.4 92c-2.5-7.1 14-18.7 14-18.7l-.2-1z" style="fill:#6ba5af"/><path d="M89 41.5s24.3-9.3 27.7-4.4-15.9 21-46.5 37.3-56.2 25.3-59 19.4 20-21.3 20-21.3l.2 1L32 75c0 .6-14.1 10.6-12 13.2 2.3 2.5 18.6.1 48.1-15 29.8-15 41.2-28.2 38.1-31.2-2-2-15.5 1.5-15.5 1.5l-.8-1z" style="fill:#a7ced6"/><path d="M90.3 43s16.4-6.7 19-1.5c3 6-22.3 22.6-41.5 33C49 84.8 21 94.8 18 89.6c-2.4-4.2 13.5-15.4 13.5-15.4l.3 1.1.3 1s-10.7 7.5-8.7 10.5 22.2-2.4 43.3-13.4C92 60.1 107 47 104.8 43.4c-2.1-3.5-13.4 1-13.4 1l-.5-.7z" style="fill:#ddecf6"/></svg>