<svg xml:space="preserve" width="16" height="16" viewBox="0 0 128 128"><path d="m75.3 5.5-7.5 106.7" style="fill:none;stroke:#82aec0;stroke-width:3;stroke-linecap:round;stroke-miterlimit:10"/><path d="M11.8 103.1s6.6-26.9 21.8-53.3C47.3 26 74.1 4 74.1 4s-8 34.7-9.6 55.3c-1.9 26.2 2.6 38.5 2.6 38.5S56 92.8 44 94c-17.6 1.8-32.2 9.1-32.2 9.1" style="fill:#ff7043"/><path d="m76.3 92 32.6-1.7-32-85z" style="fill:#f4511e"/><path d="M64 72a92 92 0 0 0-42.2 2c-2 4.5-4.5 11.4-4.5 11.4a75 75 0 0 1 47.1-3.2q-.3-4.5-.4-10.3M34.4 48.5l-.8 1.3q-3 5.2-5.5 10.5a81 81 0 0 1 36.5-1.6q.3-4.9 1.1-10.3a98 98 0 0 0-31.3 0m18.1-23.6q-4.6 5-9.1 10.7c7-1.2 17-.5 24.3.4l1.7-9.6c-5-.8-12-1.7-17-1.5" style="fill:#ffab91"/><path d="m76.3 81.5 28.5-2.2-3.2-8.2L76.4 73zm17.2-32-17 1.2v8.6l20.2-1.4zm-8.1-21.6-8.7.6v8.6l11.8-.9z" style="fill:#bf360c"/><path d="m84.3 99-31.7-2.6-10.2.2c-4.8 0-7.1 10-7.1 10L90 110l-2-7.6c-.4-1.8-2-3.1-3.7-3.3" style="fill:#e0e0e0"/><path d="M46.2 107.3s3.1-10.9 6.4-10.9c2.7 0 24.5 2 32 2.7 1.7 0 3 1.2 3.3 2.7l2 8z" style="fill:#82aec0"/><path d="M24.3 124c-9.7 0-13.3-17.9-13.8-20.6q0-.7.7-.7c35.7 4.3 98 7.1 107.2 7.5q.8.2.5 1l-6.9 11q-1 1.7-3 1.8z" style="fill:#b9e4ea"/><circle cx="62" cy="102.4" r="2.8" style="fill:#37474f"/><circle cx="72.2" cy="103.2" r="2.7" style="fill:#37474f"/><circle cx="82.5" cy="103.9" r="2.5" style="fill:#37474f"/><path d="m62 99.6-.7.1a2.8 2.8 0 0 1 0 5.5h.7c1.6 0 2.8-1.2 2.8-2.7s-1.2-2.9-2.8-2.9m10.2.9-.6.1a2.7 2.7 0 0 1 0 5.1l.6.1a2.7 2.7 0 1 0 0-5.3m10.3.9-.7.1a2.5 2.5 0 0 1 0 4.8l.7.1a2.5 2.5 0 0 0 0-5" style="fill:#e0e0e0"/><path d="M116.7 114.7c-77.4-1.4-104.5-4.6-104.5-4.6l-1-3.5a3257 3257 0 0 0 106.4 6.6z" style="fill:#bf360c"/><path d="M71.1 91.8h36.8" style="fill:none;stroke:#82aec0;stroke-width:3;stroke-linecap:round;stroke-miterlimit:10"/></svg>