<svg xml:space="preserve" width="16" height="16" viewBox="0 0 128 128"><path d="m104 24-80-.1c-15 0-20 6-20 18.8v42.4C4 95.6 7.2 104 24 104l80 .1c15 0 20-6.4 20-18.8V42.9c0-14-5.3-18.9-20-18.9" style="fill:#504f4f"/><path d="M109.5 66.6c0 2.1-1.6 3.8-3.8 3.8H22.2a4 4 0 0 1-3.8-3.8V42c0-2.1 1.7-3.8 3.8-3.8h83.5c2.2 0 3.8 1.7 3.8 3.8z" style="fill:#8dcc47"/><path d="M41.6 51.6 40 53.2q-.4.3-1 0l-1.5-1.6-.2-.5v-4.5q0-.3.2-.5l1.6-1.6q.5-.4.9 0l1.6 1.6q.3.2.2.5V51q0 .3-.2.5m0 10.9L40 64q-.4.5-1 0l-1.5-1.6-.2-.4v-4.6q0-.3.2-.4l1.6-1.7q.5-.3.9 0l1.6 1.7q.3 0 .2.4V62zM50 51.6l-1.6 1.6q-.5.3-1 0l-1.6-1.6-.2-.5v-4.5l.2-.5 1.7-1.6q.4-.5.9 0L50 46l.2.5V51q0 .3-.2.5m11.9.1-1.6 1.6q-.5.3-1 0l-1.6-1.6-.2-.5v-4.5l.2-.5 1.6-1.6q.5-.5 1 0l1.6 1.6.2.5V51q0 .3-.2.5m0 10.9-1.6 1.7q-.5.3-1 0l-1.6-1.7-.2-.4v-4.6l.2-.4 1.6-1.7q.5-.3 1 0l1.6 1.7.2.4V62zM51.1 45.5l-1.6-1.6a.6.6 0 0 1 0-1l1.6-1.6.5-.2H56l.5.2 1.6 1.7q.4.4 0 .9l-1.6 1.6-.5.2h-4.5q-.3 0-.5-.2m.1 10.9-1.6-1.7a1 1 0 0 1 0-.9l1.6-1.6.5-.2H56q.3 0 .5.2l1.6 1.6q.4.5 0 1l-1.6 1.6-.5.1h-4.5zm0 10.8-1.6-1.6a.6.6 0 0 1 0-1l1.6-1.6.5-.2H56l.5.2 1.6 1.7q.4.4 0 .9l-1.6 1.6-.5.2h-4.5q-.3 0-.5-.2m19.3-15.6-1.7 1.6q-.4.3-.9 0l-1.6-1.6-.2-.5v-4.5q0-.3.2-.5l1.6-1.6q.5-.5 1 0l1.6 1.6.1.5V51q0 .3-.2.5m12 .1-1.7 1.6q-.4.3-.9 0L78 51.6l-.2-.5v-4.5q0-.3.2-.5l1.6-1.6q.5-.5 1 0l1.6 1.6.1.5V51zm0 10.8-1.7 1.7q-.4.3-.9 0L78 62.4l-.2-.4v-4.6q0-.3.2-.4l1.6-1.7q.5-.3 1 0l1.6 1.7.1.4V62zM71.4 45.5l-1.6-1.6a.6.6 0 0 1 0-1l1.6-1.6.4-.2h4.6l.5.2 1.6 1.7q.3.4 0 .9l-1.6 1.6-.5.2h-4.6zm0 10.9-1.6-1.7a1 1 0 0 1 0-.9l1.6-1.6.4-.2h4.6q.3 0 .5.2l1.6 1.6q.3.5 0 1l-1.6 1.6-.5.1h-4.6zm0 10.8-1.6-1.6a.6.6 0 0 1 0-1l1.6-1.6.4-.2h4.6l.5.2 1.6 1.7q.3.4 0 .9l-1.6 1.6-.5.2h-4.6zm19.1-15.6L89 53.2q-.5.3-1 0l-1.6-1.6-.1-.5v-4.5q0-.3.2-.5l1.6-1.6q.4-.5.9 0l1.6 1.6.2.5V51q0 .3-.2.5m11.8.1-1.6 1.6q-.5.3-1 0l-1.6-1.6-.1-.5v-4.5l.1-.5 1.7-1.6q.4-.5.9 0l1.6 1.6.2.5V51q0 .3-.2.5M90.5 62.4 89 64.1q-.5.3-1 0l-1.6-1.7-.1-.4v-4.6q0-.3.2-.4l1.6-1.7q.4-.3.9 0l1.6 1.7.2.4V62l-.2.4m11.8 0-1.6 1.7q-.5.3-1 0l-1.6-1.7-.1-.4v-4.6l.1-.4 1.7-1.7q.4-.3.9 0l1.6 1.7.2.4V62zM91.7 45.5 90 43.9a.6.6 0 0 1 0-1l1.7-1.6.4-.2h4.6l.4.2 1.7 1.7q.3.4 0 .9L97 45.5l-.4.2H92q-.3 0-.4-.2m.1 10.9L90 54.7a1 1 0 0 1 0-.9l1.7-1.6q0-.2.4-.2h4.6l.4.2 1.7 1.6q.3.5 0 1L97 56.3l-.4.1H92zm0 10.8L90 65.6a.6.6 0 0 1 0-1l1.7-1.6.4-.2h4.6l.4.2 1.7 1.7q.3.4 0 .9L97 67.2l-.4.2H92q-.3 0-.4-.2" style="opacity:.5"/><path d="M106 94.6h-8.6c-3.9 0-5.9-3-5.9-7 0-3.8 2-6.8 5.9-6.8h8.7c3.8 0 5.8 3 5.8 6.9 0 3.6-2 6.9-5.8 6.9"/><path d="M105.6 90h-7.8c-2 0-2-1-2-2.3s0-2.3 2-2.3h7.8c2 0 2 1 2 2.3s0 2.3-2 2.3" style="fill:#8bc34a"/><path d="M30.6 94.6H22c-3.8 0-5.8-3-5.8-7 0-3.8 2-6.8 5.8-6.8h8.7c3.9 0 5.9 3 5.9 6.9 0 3.6-2 6.9-5.9 6.9"/><circle cx="26.3" cy="87.7" r="4.2" style="fill:#f44336"/><path d="M81 94.6h-8.8c-3.8 0-5.8-3-5.8-7 0-3.8 2-6.8 5.8-6.8H81c3.9 0 5.9 3 5.9 6.9 0 3.6-2 6.9-5.9 6.9"/><path d="m74.5 83.5 7 4.2-7 4.1z" style="fill:#eee"/><path d="M47 94.6h8.8c3.8 0 5.8-3 5.8-7 0-3.8-2-6.8-5.8-6.8H47c-3.9 0-5.9 3-5.9 6.9 0 3.6 2 6.9 5.9 6.9"/><path d="m53.5 83.5-7 4.2 7 4.1z" style="fill:#eee"/><path d="M105.8 38.1c2 0 3.8 1.7 3.8 3.8v24.7c0 2.1-1.7 3.8-3.8 3.8H22.2a4 4 0 0 1-3.8-3.8V41.9c0-2.1 1.7-3.8 3.8-3.8zm0-5.2H22.2c-5 0-9 4-9 9v24.7c0 5 4 9 9 9h83.5c5 0 9-4 9-9V42c0-5-4-9-9-9"/></svg>