<svg xml:space="preserve" width="16" height="16" viewBox="0 0 128 128"><path d="M116.5 4h-104a8 8 0 0 0-8 8v104a8 8 0 0 0 8 8h104a8 8 0 0 0 8-8V12a8 8 0 0 0-8-8" style="fill:#f77e00"/><path d="M110.2 4H12a7.6 7.6 0 0 0-7.5 7.5v97.9c0 4.1 3.3 7.5 7.4 7.5h98.2c4.1 0 7.4-3.3 7.5-7.5V11.5c0-4-3.2-7.4-7.2-7.5z" style="fill:#ff9800"/><path d="M40.2 12.9c0-2.3-1.6-3-10.8-2.7-7.7.3-11.5 1.2-13.8 4s-3 8.5-3 15.3c0 4.8 0 9.3 2.5 9.3 3.4 0 3.4-7.9 6.2-12.3 5.4-8.7 18.9-10.6 18.9-13.6" style="opacity:.75;fill:#ffbd52"/><path d="M67.8 66H90a2 2 0 0 0 2-3.1L66.5 23a2.4 2.4 0 0 0-4 0L36.8 62.9a2 2 0 0 0 2 3.1H61l-24.4 37c-1 1.4.2 3 2 3h51.5c1.8 0 2.9-1.7 2-3z" style="fill:#fafafa"/></svg>