<svg xml:space="preserve" width="16" height="16" viewBox="0 0 128 128"><path d="M94 21.1C94 11.7 80.6 4 64 4c-16.5 0-31 7-30 17v88.7c0 7.9 13.4 14.3 30 14.3s30-6.4 30-14.3V21" style="fill:#98adb8"/><ellipse cx="64.2" cy="18.3" rx="23.6" ry="11.4" style="fill:#d9d9d9"/><path d="M76.6 7.2v.6z" style="fill:#9e9e9e"/><path d="M77 52.3q0-1-.9-1.3-.9-.2-2.2.2a20 20 0 0 1-5 .6q-.7-.2-.6-1.1v-5.5c0-.6 0-1.3-1.1-1.3L64 44l-3.2-.2c-1 0-1.2.7-1.2 1.3v5.5q.2.9-.5 1.2a20 20 0 0 1-5-.7q-1.4-.4-2.3-.2t-.8 1.3v5q.3 1.3.8 1.6 1.4 1 6.3 1.4c.7 0 1.4-.2 1.5.5.1.4 0 4.7 0 6.4 0 1.6 2.3 1.8 3.6 1.9h1.6c1.2-.1 3.5-.3 3.5-1.9v-6.4c.2-.7 1-.5 1.6-.5a18 18 0 0 0 6.2-1.4q.6-.3 1-1.5z" style="fill:#fff"/><path d="M58.6 28.6c1.6-1.6-4.2-3-6.9-3.9-3.4-1.1-7-3.2-8-7.2-.9-3-2.3-2.1-2.6-1.7s-1.8 3.5 1 6.8c1.9 2.2 5 4 7.5 4.9 3.6 1.2 8 2 9 1M56 14c.3-1.2 3.2-1.9 5-2 3 0 6.1 2.4 6.6 3.2 1.3 2.2-1.7 3-6.8 2.5-3.5-.3-5.1-2.6-4.8-3.8" style="fill:#f5f5f5"/><path d="m73.1 15.8-1-2c-.4-.6-.4.1-.5.4q-.7 2-1.8 2.3Q67.2 18 64 18t-5.8-1.4q-1-.4-1.8-2.3c0-.3 0-1-.4-.3l-1 1.9c-1 1.5-.2 3.3 1 4.4 2 2 5 2.9 8 2.9s6-1 8.1-2.9c1.1-1.1 2-2.9 1-4.4" style="fill:#9e9e9e"/><path d="M40.3 90.2v21.7c.8 4.8 12.8 7.8 23.7 7.8 11.2 0 23.7-3 23.7-7.8V90.2z" style="fill:#c62828"/><path d="M87.7 90.6c0 4.8-12.5 7.8-23.7 7.8-10.9 0-22.9-3-23.7-7.8C39.6 85.5 51 82 64 82s23.7 3.8 23.7 8.6" style="fill:#f44336"/><path d="M75 103.3s-3.8 1.2-11 1.2-11-1.2-11-1.2c-1.4-.2-2 .9-2 2v4.2q0 1.5 1.8 2.5 3.7 1.8 10.9 1.9h.7q7 0 10.8-2 1.8-.8 1.8-2.4v-4.3c0-1-.6-2.1-2-1.9" style="fill:#fff"/></svg>