<svg xml:space="preserve" width="16" height="16" viewBox="0 0 128 128"><circle cx="106.1" cy="57.9" r="16.9" style="opacity:.42;fill:#4dd0e1"/><path d="M104.2 46.2c.7 1.4-1.5 3.3-2.4 4.5-2.3 3-1.1 5.4-2.8 8.2-1.3 2-5.4 3.5-6.2-1.6-.5-3.2 1.5-6.8 2.9-8.3 4.5-4.9 8-4 8.5-2.9" style="fill:#fff"/><path d="M106 76.2a18.4 18.4 0 1 1 .1-36.8 18.4 18.4 0 0 1 0 36.8m-.3-34.1a15.8 15.8 0 1 0 0 31.6 15.8 15.8 0 0 0 0-31.6" style="fill:#4dc6e1"/><circle cx="89.3" cy="99.9" r="21.6" style="opacity:.42;fill:#4dd0e1"/><path d="M89.3 123.5a23.7 23.7 0 1 1 0-47.3 23.7 23.7 0 0 1 0 47.3m.6-44.4a21 21 0 1 0 0 41.8 21 21 0 0 0 0-41.8" style="fill:#4dc6e1"/><path d="M84 83.3c4.4-.3 6 2.9 4.8 5.3-1.4 3.2-4.6 2.1-7.5 5.2-2 2.2-6.2 4.5-6.8-.3-.5-4.2 4.2-9.8 9.5-10.2" style="opacity:.7;fill:#fff"/><path d="M96.7 89c2.7 0 3-3 1.6-4.6-1.7-2.4-7.2-2.2-5.9 1.9C93 88 94 89 96.7 89" style="fill:#fff"/><circle cx="43" cy="43.9" r="38.4" style="opacity:.42;fill:#4dd0e1"/><path d="M38.6 14.7a6.4 6.4 0 0 1 4.2 8.8c-1.3 3-6 4.5-8.9 6a24 24 0 0 0-10 10c-2.4 4.4-8.7 6.1-9.5-.2-.7-4.8 2.4-11.8 5.2-15.4 2.5-3.1 6-6 9.6-7.7 2.6-1.3 6.6-2.4 9.4-1.5" style="opacity:.7;fill:#fff"/><path d="M59 17c1.8 1.5 2 4.3-.5 5.1-1.1.3-2.3-.2-3.4-.3-2.3-.1-3.3.7-5.3-.1-3-1.3-4.2-3.9-2.8-6q1.2-1.5 3.2-1.8a10 10 0 0 1 8.8 3" style="fill:#fff"/><path d="M43.5 84.2a40 40 0 1 1 0-79.8 40 40 0 0 1 0 79.8M44 8.7a36.4 36.4 0 1 0 0 72.8 36.4 36.4 0 0 0 0-72.8" style="fill:#4dc6e1"/><path d="M72 50.5c-3.1-1-3 2.5-6.4 8A24 24 0 0 1 51 68.7c-4.5 1.1-6.6 2-6.7 3.8-.2 2.8 3.6 3.5 9.2 2 14.8-3.8 25.3-22 18.5-24m33.6 54.5c-2.4-.9-1.8 2.9-6.6 6.3-5.2 3.6-8.3 2.7-8.5 4.8-.2 2.2 5.2 2.2 10.7-2 4.9-3.6 6.9-8.3 4.4-9.1m13.8-45.1c.6-3.1-.2-9.6-3.3-7.5-1.2.8.7 4.4.1 7.4-.8 4.1-2.3 6.3-5.9 8.8-.8.6-.3 1.7 1.2 1.1 4.1-1.5 6.9-4.5 7.9-9.9" style="fill:#fff"/></svg>