<svg xml:space="preserve" width="16" height="16" viewBox="0 0 128 128"><path d="M92.5 66H42.3l-7.8 5.7.1 35.8c0 8.5 8.4 12.1 9.8 12.7h46c1.3-.6 9.8-4.2 9.8-12.7V71.7z" style="fill:#f4511e"/><path d="M44.1 120s4.5 3.5 11.1 3.5h24.3c6.7 0 11.1-3.4 11.1-3.4z" style="fill:#c62828"/><path d="M100.3 83V71.7c0-2.2-7-5.8-8.7-5.8H43.2c-1.8 0-8.7 3.8-8.7 6v11z" style="fill:#e0e0e0"/><path d="M79.1 64.6H55.7a3 3 0 1 1 0-5.9H79a3 3 0 1 1 0 5.9" style="fill:#607d8b"/><path d="M48.6 62.4h37a9 9 0 0 1 6.6 3.4H42.5s2.3-3.4 6.1-3.4" style="fill:#82aec0"/><path d="M59.7 121h16.5c1.8 0 3.3-1.5 3.3-3.3v-40a4 4 0 0 0-4-4H59.7a3.5 3.5 0 0 0-3.5 3.5v40.4c0 1.9 1.6 3.4 3.5 3.4z" style="fill:#f4511e;stroke:#c62828;stroke-width:2;stroke-miterlimit:10"/><path d="M4 4.7v4L124 35v-4.1z" style="fill:#9e9e9e"/><path d="M92.2 15.5 34 4c-1.1-.3-2.2.6-2.3 1.7 0 2.5-1 6 5 7.2 6.6 1.4 13.9 3.3 13.9 3.3 3.4.7 5.8 3.7 6 7q.2 1.9 2 2.4l4.2.8q1.9.4 2.8-1.4c1.5-3 4.8-4.7 8.2-4 0 0 7.5 1 14.2 2.4 6 1.2 8 1.4 8 1.4s1.6-8-4-9.3" style="fill:#607d8b"/><circle cx="50.5" cy="13.4" r="5.3" style="fill:#37474f"/><circle cx="38.9" cy="11" r="5.3" style="fill:#37474f"/><circle cx="87.1" cy="20.8" r="5.3" style="fill:#37474f"/><circle cx="75.5" cy="18.5" r="5.3" style="fill:#37474f"/><circle cx="50.1" cy="15.7" r="5.3" style="fill:#82aec0"/><circle cx="38.5" cy="13.3" r="5.3" style="fill:#82aec0"/><circle cx="87" cy="23.2" r="5.3" style="fill:#82aec0"/><circle cx="75.4" cy="20.8" r="5.3" style="fill:#82aec0"/><path d="M35.2 12.3q.3-1.2 1.4-1.8t2.2-.5m7.9 4.5q1.4-2 3.8-2M72 19a4 4 0 0 1 3.8-2.2m8.1 4.7a3.4 3.4 0 0 1 4-1.7" style="fill:none;stroke:#94d1e0;stroke-width:2;stroke-miterlimit:10"/><path d="M41.5 68.9c1.5-2.3 3.5-2 4.7-2h11.1c.6 0 1 1 .5 1.7l-.1.3Q56 71 53.9 71l-9.4-.3c-.4 0-4.5.3-3-2" style="fill:#fff"/><path d="M69.8 61A14 14 0 0 1 58 54c-2.4-4-4-8.4-3-16s4.5-15.8 4-22.7h7c-.2 11.2-3.7 17.7-4.2 24.9-.4 7 1.8 12.2 9.5 15.3 3.6 1.4 3.4 3.7 3.4 3.7z" style="fill:#607d8b"/><path d="M62.7 58.8h11.9S74 56.6 69 56s-6.4 2.8-6.4 2.8m20.1 45.9V79.9c0-1.6 1.3-2.8 2.8-2.8h14.8l-.2 30.4H85.5a3 3 0 0 1-2.8-2.8" style="fill:#37474f"/><path d="M84.3 102.6V81.8c0-1.2 1-2.2 2.2-2.2h13.7l-.1 25.1H86.5c-1.2 0-2.2-1-2.2-2.1" style="fill:#bae2fd"/><path d="M52 104.7V79.9c0-1.6-1.2-2.8-2.8-2.8H34.5l.2 30.4h14.5c1.6 0 2.9-1.3 2.9-2.8" style="fill:#37474f"/><path d="M50.4 102.6V81.8c0-1.2-1-2.2-2.1-2.2H34.5l.1 25.1h13.7c1.2 0 2.1-1 2.1-2.1" style="fill:#bae2fd"/><path d="M73.5 77h-12a3 3 0 0 0-2.6 2.7v25c0 1.5 1.2 2.7 2.7 2.7h11.9c1.5 0 2.6-1.2 2.6-2.7v-25c0-1.5-1.2-2.7-2.6-2.7" style="fill:#37474f"/><path d="M72.4 79.6h-9.7a2 2 0 0 0-2 2v21.1q.2 1.8 2 2h9.7a2 2 0 0 0 2-2v-21a2 2 0 0 0-2-2" style="fill:#bae2fd"/></svg>