<svg xml:space="preserve" width="16" height="16" viewBox="0 0 128 128"><path d="M122.2 46.3c-2.4-4.6-13-21.6-23.5-28a76 76 0 0 0-13-4.4c-4.3-1.5-5.7-1.3-7.1-.6a30 30 0 0 1-14.2 3.6h-.9c-5.3 0-8.9-1.1-14.1-3.6-1.4-.7-2.8-.9-7 .6a76 76 0 0 0-13.1 4.4c-10.6 6.3-21.1 23.4-23.6 28-.3.6-.8 1.2-.5 1.9 1.2 3 5.6 7.1 15.2 12.8q1 .6 2 0c2.6-2 8.7-9.5 8.7-9.5s4.3 17.6 2.5 32.9c-1.9 15.2-5 27-5 27q0 1.3 1 1.8A112 112 0 0 0 64 118c16.8 0 31.4-3.3 34.4-4.8q1-.5 1-1.8s-3.2-11.8-5-27A107 107 0 0 1 97 51.5s6.1 7.5 8.6 9.5q1 .6 2.1 0c9.6-5.6 14-9.7 15.2-12.8q.2-1-.6-2" style="fill:#cfb0ea"/><path d="M82.4 9.5c-.8-.7-2.4-2-5.3-1.3-3.1.9-7.8 1.5-13.2 1.5s-10.1-.6-13.2-1.5c-2.9-.8-4.6.6-5.3 1.3-1.1 1-4.7 3.8-4.7 5 0 3.7 1.9 15.3 12.6 17.2 5.2.9 8.6-3.6 10-5.9q0-.3.6-.4.4 0 .6.4c1.4 2.3 4.7 6.8 10 5.9 10.7-1.9 12.6-13.4 12.6-17.3 0-1-3.6-3.8-4.7-5" style="fill:#eee"/><path d="M40.8 14.4q.6 4.6 2.8 8.5t5.8 5.9q1.9.9 3.9 1.2a6 6 0 0 0 3.6-.4 9 9 0 0 0 3-2.2l1.8-2.5.1-.2.7-.8a2.4 2.4 0 0 1 3.4.5l.1.2v.1l.4.5.5.9 1.3 1.6a7 7 0 0 0 6.7 2.5q2-.4 3.8-1.3 3.8-1.8 5.7-5.9 1-2 1.6-4.1l1-4.5h.2q-.3 4.6-1.8 9A13 13 0 0 1 75.2 32q-2.5.5-4.6-.3a10 10 0 0 1-3.9-2.6l-1.4-1.8-.6-1-.3-.4q-.1-.3-.4-.3h-.3l-.2.2-.1.3-.6 1-1.5 1.7q-1.5 1.8-3.8 2.7a8 8 0 0 1-4.5.4 14 14 0 0 1-10.4-8.4q-2-4.3-2-9z" style="fill:#b881cf"/><path d="M82.4 9.5c-.8-.6-2.4-2-5.3-1.3-3.1.9-7.8 1.5-13.2 1.5s-10.1-.6-13.2-1.5c-2.9-.8-4.6.6-5.3 1.3-1.1 1-4.5 3.7-4.7 4.8.5.2 4.3-3.5 5.5-3.4 1 0 2.4 3.3 4.7 4.1s25.8.4 25.8.4 2.2-1.8 3.4-3.4q1-1.6 2.4-.9c1 .5 4.4 3.9 4.6 3.3-.1-1.2-3.4-3.8-4.7-5" style="fill:#b7d5e5"/><path d="M21.4 62.2Q11.4 56.1 4.2 49a1 1 0 0 1 0-1l1.2-2q.4-.4 1 0a107 107 0 0 0 17.5 13.3q.5.4.1 1l-1.7 2q-.4.2-1 0m85.3-.1q10-6.1 17.2-13.4.3-.3.1-.8l-1.3-2a1 1 0 0 0-1-.1 107 107 0 0 1-17.5 13.3q-.5.4-.1 1l1.8 2q.3.2.8 0" style="fill:#b881cf"/><linearGradient id="a" x1="64" x2="64" y1="9.6" y2="23.1" gradientUnits="userSpaceOnUse"><stop offset=".2" style="stop-color:#b881cf"/><stop offset="1" style="stop-color:#754ca5"/></linearGradient><path d="M77.3 10c-1.7.4-7.3 2-13.1 2h-.4c-5.9 0-11.4-1.6-13.1-2q-2.6-.7-2 1.4c1.4 3.6 5.7 9 15.3 9s13.9-5.4 15.3-9q.5-2-2-1.4" style="fill:url(#a)"/></svg>