<svg xml:space="preserve" width="16" height="16" viewBox="0 0 128 128"><radialGradient id="a" cx="64" cy="8" r="15.2" gradientTransform="matrix(1 0 0 -.305 0 122.44)" gradientUnits="userSpaceOnUse"><stop offset=".1" style="stop-color:#504f4f;stop-opacity:.8"/><stop offset=".9" style="stop-color:#616161;stop-opacity:0"/></radialGradient><path d="M79.3 120c0 2.2-6.8 4-15.3 4s-15.3-1.8-15.3-4 6.9-4 15.3-4 15.3 1.8 15.3 4" style="fill:url(#a)"/><path d="M76.5 30.7q-.5-1.2 1-2.8a10 10 0 0 0 1.8-9.4l-.3-.7H49.8l-1 .7a9 9 0 0 0 1.7 9.4q1.6 1.6 1 2.8c-.4.8-1.7.9-1.7.9s.3.8 1 1.3q1.2.5 2 .5s2.3 3.1 8 3.1h6.4c5.8 0 8-3.1 8-3.1q.8 0 2-.5c.7-.5 1-1.3 1-1.3s-1.3-.1-1.7-1" style="fill:#312d2d"/><radialGradient id="b" cx="109" cy="96.4" r="8.4" gradientTransform="matrix(1 0 0 .505 -39.74 -17.13)" gradientUnits="userSpaceOnUse"><stop offset=".7" style="stop-color:#454140;stop-opacity:0"/><stop offset="1" style="stop-color:#454140"/></radialGradient><path d="M64 36.5V33l10.2-.8 1 1.2s-2.2 3.1-8 3.1z" style="fill:url(#b)"/><radialGradient id="c" cx="100.7" cy="97.6" r="2.5" gradientTransform="matrix(-.906 .435 -.314 -.69 199.42 53.75)" gradientUnits="userSpaceOnUse"><stop offset=".7" style="stop-color:#454140"/><stop offset="1" style="stop-color:#454140;stop-opacity:0"/></radialGradient><path d="M75.1 31.9c-1.5-2.4 1.9-3.3 1.9-3.3q-1 1-.5 2c.4.9 1.7 1 1.7 1s-1.7 1.6-3 .3" style="fill:url(#c)"/><radialGradient id="d" cx="107.1" cy="104.6" r="10.9" gradientTransform="matrix(-.075 -1.024 .831 -.064 -7.87 139.48)" gradientUnits="userSpaceOnUse"><stop offset=".7" style="stop-color:#454140;stop-opacity:0"/><stop offset="1" style="stop-color:#454140"/></radialGradient><path d="M79.3 18.5a9 9 0 0 1-1.6 9.3c-.2.2-1.1 1.1-1.3 1.8 0 0-3.4-4.9-4.4-7.7q-.4-.9-.4-1.8t.3-1.4c.3-.5 7.2-.6 7.2-.6z" style="fill:url(#d)"/><radialGradient id="e" cx="57" cy="104.6" r="10.9" gradientTransform="matrix(.075 -1.024 -.831 -.064 139.68 88.1)" gradientUnits="userSpaceOnUse"><stop offset=".7" style="stop-color:#454140;stop-opacity:0"/><stop offset="1" style="stop-color:#454140"/></radialGradient><path d="M48.8 18.5a10 10 0 0 0 1.6 9.3c.2.2 1 1.1 1.3 1.8 0 0 3.4-4.9 4.4-7.7l.4-1.8q0-.8-.3-1.4-.5-.6-1.2-.4l-6-.2z" style="fill:url(#e)"/><radialGradient id="f" cx="58.8" cy="96.4" r="8.4" gradientTransform="matrix(-1 0 0 .505 117.65 -17.13)" gradientUnits="userSpaceOnUse"><stop offset=".7" style="stop-color:#454140;stop-opacity:0"/><stop offset="1" style="stop-color:#454140"/></radialGradient><path d="M64 36.5V33l-10.2-.8-.9 1.2s2.2 3.1 8 3.1z" style="fill:url(#f)"/><radialGradient id="g" cx="50.6" cy="97.6" r="2.5" gradientTransform="matrix(.906 .435 .314 -.69 -25.92 75.58)" gradientUnits="userSpaceOnUse"><stop offset=".7" style="stop-color:#454140"/><stop offset="1" style="stop-color:#454140;stop-opacity:0"/></radialGradient><path d="M53 31.9c1.5-2.4-2-3.3-2-3.3q1.1 1 .6 2c-.5.9-1.7 1-1.7 1s1.7 1.6 3 .3" style="fill:url(#g)"/><path d="M64 35.9h-4V40c0 2 1.6 3.5 3.6 3.5h.8c2 0 3.6-1.5 3.6-3.5v-4z" style="fill:#edc391"/><linearGradient id="h" x1="51.9" x2="51.9" y1="58.6" y2="48" gradientTransform="matrix(1 0 0 -1 0 128)" gradientUnits="userSpaceOnUse"><stop offset="0" style="stop-color:#ffd29c"/><stop offset=".5" style="stop-color:#f9ddbd"/></linearGradient><path d="M48.7 70.1a8 8 0 0 0 1.5 3.3c1.2 1.7 3.6 1.6 4.4 1.6 1.6 0 1-4 1-4.2 0 0-.4-6.4-4.7-6.4-1.7 0-3 1.6-2.7 3.3z" style="fill:url(#h)"/><linearGradient id="i" x1="76.1" x2="76.1" y1="58.9" y2="48.3" gradientTransform="matrix(1 0 0 -1 0 128)" gradientUnits="userSpaceOnUse"><stop offset="0" style="stop-color:#ffd29c"/><stop offset=".5" style="stop-color:#f9ddbd"/></linearGradient><path d="M79.3 70.1a8 8 0 0 1-1.5 3.3c-1.2 1.7-3.6 1.6-4.4 1.6-1.6 0-1-4-1-4.2 0 0 .4-6.4 4.7-6.4 1.7 0 3 1.6 2.7 3.3z" style="fill:url(#i)"/><linearGradient id="j" x1="60.6" x2="60.6" y1="27.6" y2="16.2" gradientTransform="matrix(1 0 0 -1 0 128)" gradientUnits="userSpaceOnUse"><stop offset="0" style="stop-color:#212121"/><stop offset=".8" style="stop-color:#616161"/></linearGradient><path d="M64 108.5c0 1.5-.1 3.6-2.4 3.6-2.7 0-4-5.8-4.2-7.3-.2-1.4-.2-4.1-.2-4.1H64z" style="fill:url(#j)"/><linearGradient id="k" x1="60.7" x2="60.7" y1="27.3" y2="20.5" gradientTransform="matrix(1 0 0 -1 0 128)" gradientUnits="userSpaceOnUse"><stop offset=".1" style="stop-color:#bdbdbd"/><stop offset=".7" style="stop-color:#eee"/></linearGradient><path d="M63 105.3c0 1-.8 2.5-1.6 2.5-1.9 0-2.8-4.1-3-5.1s0-2.2 0-2.2H63z" style="fill:url(#k)"/><linearGradient id="l" x1="67.2" x2="67.2" y1="27.6" y2="16.2" gradientTransform="matrix(1 0 0 -1 0 128)" gradientUnits="userSpaceOnUse"><stop offset="0" style="stop-color:#212121"/><stop offset=".8" style="stop-color:#616161"/></linearGradient><path d="M64 108.5c0 1.5.1 3.6 2.3 3.6 2.6 0 4-5.8 4.2-7.3s.1-4.1.1-4.1H64z" style="fill:url(#l)"/><linearGradient id="m" x1="67.2" x2="67.2" y1="27.3" y2="20.5" gradientTransform="matrix(1 0 0 -1 0 128)" gradientUnits="userSpaceOnUse"><stop offset=".1" style="stop-color:#bdbdbd"/><stop offset=".7" style="stop-color:#eee"/></linearGradient><path d="M64.8 105.3c0 1 .8 2.5 1.7 2.5 1.8 0 2.8-4.1 3-5.1s0-2.2 0-2.2h-4.7z" style="fill:url(#m)"/><linearGradient id="n" x1="64" x2="64" y1="63.4" y2="29.4" gradientTransform="matrix(1 0 0 -1 0 128)" gradientUnits="userSpaceOnUse"><stop offset="0" style="stop-color:#212121"/><stop offset=".9" style="stop-color:#616161"/></linearGradient><path d="M69.7 102H58.3c-1 0-2-.8-2-1.9l-3-32.4h21.4l-3 32.4c-.1 1-1 1.9-2 1.9" style="fill:url(#n)"/><linearGradient id="o" x1="63.9" x2="63.9" y1="27" y2="56.1" gradientTransform="matrix(1 0 0 -1 0 128)" gradientUnits="userSpaceOnUse"><stop offset="0" style="stop-color:#616161;stop-opacity:.2"/><stop offset=".8" style="stop-color:#212121"/></linearGradient><path d="M63.2 72q-.8.5-.8 1.4l1 27.5h1.2l.8-27.6q0-.8-.7-1.2-.7-.5-1.5 0" style="opacity:.5;fill:url(#o)"/><path d="M73.4 68.9H79q1.7-.1 2-1.9l.2-2.9h-7.8zm-18.5 0h-5.6q-1.7-.1-2-1.9l-.2-2.9h7.8z" style="fill:#e5e5e5"/><linearGradient id="p" x1="64" x2="64" y1="88.6" y2="50.7" gradientTransform="matrix(1 0 0 -1 0 128)" gradientUnits="userSpaceOnUse"><stop offset=".3" style="stop-color:#5f5f5f"/><stop offset="1" style="stop-color:#212121"/></linearGradient><path d="M79.5 37.8s-6-1.7-11.7-2.3l-3.7 5-3.8-5c-5.8.6-11.8 2.3-11.8 2.3q-4 1.2-3.5 7.4l1.9 20.3h6l.8 7.3h20.6l.7-7.3h6.1L83 45.2q.5-6.2-3.5-7.4" style="fill:url(#p)"/><path d="m68.6 50.5-4.6 6-4-6v-9h8.6z" style="fill:#e5e5e5"/><path d="m64.1 57.1-2.3-3.9 1.2-9.4h2.2l1.3 9.4zm1.1-13.2H63l-1-2.2.5-1.3h3.3l.4 1.3z" style="fill:#d32f2f"/><path d="m60.3 35.5 3.8 4.9-3.8 3.3-2.4-7.9zm7.4 0-3.6 4.9 3.6 3.2 2.6-7.8z" style="fill:#fff"/><path d="M74.4 51h-5.2v-.7l2.6-2 2.6 2z" style="fill:#d32f2f"/><linearGradient id="q" x1="57.7" x2="57.7" y1="98.9" y2="72.5" gradientTransform="matrix(1 0 0 -1 0 128)" gradientUnits="userSpaceOnUse"><stop offset=".2" style="stop-color:#616161"/><stop offset=".8" style="stop-color:#212121"/></linearGradient><path d="m52.7 36.9 2 3.6-3.4.4L64 59.1v-4l-6.2-19.5z" style="fill:url(#q)"/><linearGradient id="r" x1="70.4" x2="70.4" y1="98.9" y2="72.5" gradientTransform="matrix(1 0 0 -1 0 128)" gradientUnits="userSpaceOnUse"><stop offset=".2" style="stop-color:#616161"/><stop offset=".8" style="stop-color:#212121"/></linearGradient><path d="m75.4 36.9-2 3.6 3.4.4L64 59.1v-4l6.3-19.5z" style="fill:url(#r)"/><linearGradient id="s" x1="52.8" x2="52.8" y1="63.5" y2="81.4" gradientTransform="matrix(1 0 0 -1 0 128)" gradientUnits="userSpaceOnUse"><stop offset="0" style="stop-color:#616161;stop-opacity:.2"/><stop offset=".8" style="stop-color:#212121"/></linearGradient><path d="m51.7 47.6 1 17h1.2l-.3-17.2q0-.8-1-.8c-.8 0-1 .6-1 1" style="opacity:.5;fill:url(#s)"/><linearGradient id="t" x1="75.3" x2="75.3" y1="63.5" y2="81.4" gradientTransform="matrix(1 0 0 -1 0 128)" gradientUnits="userSpaceOnUse"><stop offset="0" style="stop-color:#616161;stop-opacity:.2"/><stop offset=".8" style="stop-color:#212121"/></linearGradient><path d="m76.4 47.6-1 16.9h-1.2l.3-17.1q0-.6 1-.8 1 .2.9 1" style="opacity:.5;fill:url(#t)"/><circle cx="64.2" cy="63.2" r="2" style="fill:#212121"/><path d="M73.7 21.3H54.3c-2 0-3.8 1.8-3.8 4s1.7 4 3.8 4h19.4c2 0 3.8-1.7 3.8-4s-1.7-4-3.8-4" style="fill:#edc391"/><path d="M64 7c-6.2 0-11.9 6.6-11.9 16S58 37.3 64 37.3 75.9 32.5 75.9 23 70.2 7 64 7" style="fill:#f9ddbd"/><path d="M55.5 21.4c.7-1 2.2-1.4 3.4-1.2q1 .1 1.7 1c.4.3.6 1-.2 1l-1-.2q-1-.4-2-.1l-.9.2-.6.2q-.6-.3-.4-.9m16.4.9q-1.5-.7-3-.4c-.4 0-2.4 1-1.7-.5.6-1.1 2.5-1.4 3.5-1.2q1 .3 1.6 1c.4.4.4 1.4-.5 1" style="fill:#454140"/><path d="M67 31.2a9 9 0 0 1-6 0c-.6-.4-1.3.1-1 .7.2.6 2.3 2 4 2s3.8-1.4 4-2c.3-.5-.4-1.1-1-.7" style="fill:#444"/><path d="M65.4 27.8h-2.8q-.3.2-.2.6c.1.2.6 1 1.6 1s1.5-.8 1.6-1q.1-.5-.2-.6" style="fill:#dba689"/><path d="M75.4 27.2c0-.2 1.2-2.3 1.4-4.5.1-.7.6-3.2.1-4.8-1.6-6.5-6-10.4-13-10.4-7.3 0-11.8 3.9-13 10.9 0 1.3.5 3.3.5 3.3-.2 3.8 1 5.7 1 5.7s1.5-6.6 1.4-7.7c0 0 2.7-.5 5.9-2.3 2.1-1.2 3.6-2.7 6-3.2C69.3 13.4 70 16 70 16s3.4-.6 4.4 4c.5 2 .6 5.2.9 7.2" style="fill:#312d2d"/><linearGradient id="u" x1="64" x2="64" y1="125.3" y2="106.1" gradientTransform="matrix(1 0 0 -1 0 128)" gradientUnits="userSpaceOnUse"><stop offset=".4" style="stop-color:#5f5f5f"/><stop offset="1" style="stop-color:#212121"/></linearGradient><path d="M77 14.9s-1.1-7.4-2.6-9C73 4.3 67.4 4 64 4s-9 .3-10.4 1.9-2.7 9-2.7 9-5.5 1.6-3.1 3C49 18.6 54.1 19 64 19c10 0 15-.4 16.2-1 2.4-1.5-3.1-3.1-3.1-3.1" style="fill:url(#u)"/><linearGradient id="v" x1="64" x2="64" y1="106.7" y2="97.7" gradientTransform="matrix(1 0 0 -1 0 128)" gradientUnits="userSpaceOnUse"><stop offset="0" style="stop-color:#616161"/><stop offset=".4" style="stop-color:#212121"/></linearGradient><path d="M75.7 22.1h-.3a22 22 0 0 0-5-.6l-2.8.3q-3.5.6-7.2 0l-2.7-.3q-2.6 0-5 .6h-.3q-.4 0-.4.4v1.1q0 .5.6.5l.4 2.7c.3 2 2 3.6 4.7 3.6 3 0 4.4-2.7 5-4.9q.4-.8 1.3-.9t1.3 1c.7 2.1 2 4.8 5 4.8 2.8 0 4.5-1.7 4.8-3.6l.4-2.7q.4 0 .5-.5v-1q0-.3-.3-.5" style="fill:url(#v)"/></svg>