<svg xml:space="preserve" width="16" height="16" viewBox="0 0 128 128"><path d="M31.1 77s-3.7 3.5-5 7C25 87.3 23 95.8 22 96.5s-3.7 2-4.7 2.5-3.3 1-3.3 2.6 2 1.6 5.7 1 4.8-.7 5.5-1.6 4.3-14.2 4.9-15c.5-.9 1.6-3.2 4.8-5.6l6.8-5.5-6-3.7z" style="fill:#868686"/><path d="M12.6 45s-1.1-2.6-4.2-1.8c-2.7.7-4.1 4.7-3.4 6.6s3 2.7 3 2.7z" style="fill:#151413"/><path d="M15 16c-.7.1-2 5-5.5 4.4-2.7-.6-2.2-4.3 1.2-6.1 3-1.6 5-1 6.7-.3 2.7 1 5.4 4 6.8 7.4a56 56 0 0 1 3.5 13c.6 5.1.3 5.3.3 5.3l-2.6.2s.5-1.3-.4-7a56 56 0 0 0-3-10.2c-1.4-3.3-4-7-7-6.7m21.4 3.5c-.7-.1-2.5 2.3-5 .9-2.1-1.3-1.1-4.5 2.1-4.8 2.1-.2 4.7 1.3 6 2.6 2 2 3.4 5.3 4 8.7.8 3.5.7 6.7-.8 11.5-1.5 5-3.3 7.2-3.3 7.2l-2-2s1.4-2 2.8-6c1-3 1.7-6.2 1-10-.7-3.5-2.9-7.8-4.9-8M15.2 41C10.1 43.4 3.4 51 4.6 60c1 7 6.1 14.4 16 16.6s16.1-1 16.1-1l5-.7 4.3 6 12.9.1 8.4-3.4s6 8.3 7.9 11.3A57 57 0 0 0 87 99.5c1.7.9 9.8 4.8 17.2 5.2 12.9.6 16.8-3 17.6-4 .4-.5.8-2.5 1-3.6.1-.9 1.5-8.8.5-15-.9-5.1-3.6-14.1-13.8-23.1s-24.2-11.3-32.9-6.2a27 27 0 0 0-11 11.7s-2.7-7-9.8-7.9C50 56 47.5 59 47.5 59s.6-12.7-12.2-18.4a24 24 0 0 0-20 .5" style="fill:#5d6265"/><path d="M52.3 58.8c-2.8.7-4 3.8-2.9 5.7q1.7 3 5.2 2c2.8-.7 3.9-3.2 3.2-5-.6-2-3-3.4-5.5-2.7m24.2 4.4c1.3 2.6 5.2 2.7 8.8.5 4-2.5 4.2-6 2.8-7.6-2-2.4-6-2-8.4-.4s-4.9 4-3.2 7.5" style="fill:#afafae"/><path d="M20 49.6c-1.6 2.6-2 7 1.8 8.6 4.3 2 7-1.2 8-3.6s1-6.4-2.3-7.7c-3.5-1.5-6 .2-7.6 2.7" style="fill:#0a0a0a"/><path d="M8.5 62q.3 2-.8 2.7c-.9.6-1.6.3-1.6.3s-1.3-1.2-1.6-3.7c-.2-1.4 0-3.4 0-3.4s3.7 1.7 4 4.1" style="fill:#44484e"/><path d="M44.4 68.5c.7.2-.4 6.6.2 7.5.5 1 4.7 3.7 10.4 3s8.2-4.3 9.1-6.3c.6-1.2 1.2-3.3 1.6-3.4.4 0 3.4 4.7 5.4 7.2 2 2.6 3.3 4.6 7.4 8.6 4 4 9.4 7.1 9.4 7.1l-2 2.5-2.1 2.6s-6.5-4.9-9.7-9c-3-4-6.4-8-6.9-7-.2.4 2 3.4 2.8 5 1.3 2.3 2.7 4.6 3.2 5.8s2.7 6.8 3.8 10.4c.7 2.4 1.1 5.3 1.3 5.4l4.7 4.5c.9.8 2.4 2.5 1.3 3.7s-3.6-.6-4.2-1-6-4-6.6-4.8-1.5-5.1-2-6.8c-.4-1.9-3.1-8.3-3.5-9.6-.5-1.2-3-5.6-3.7-6.6-1-1.5-1.9-3.5-3.6-3q-1.2.2-2.3.7c-.1.9-.2 13.3-.4 14.4s-.9 10.3-.8 11.1c0 .9 4 6.2 4.6 6.8s.6 1.9-.2 2.6-3.2.3-3.8-.2a30 30 0 0 1-5.2-5.8c-.3-1.2-.3-12.4-.3-14.2s.5-14 .2-14.6c-.4-.1-1.2 0-3.6-.5-1.3-.3-2.5-1-2.9-1-.2.4-3.9 9.1-4.6 11.7s-3.6 15.7-4 16.3a15 15 0 0 1-6.2 4.2c-1.7.6-6.6 1.8-7.6.5s2.8-3.8 4.7-4.8c2-1.1 4.3-2.5 4.6-2.8s2.5-12.9 2.8-14.4 5-12.6 5-13.1c-2.3-2-4.1-5.3-4.1-5.3s2.7-1 4.7-2.9c1.5-1.5 3.1-4.5 3.1-4.5M91 94.2l-2.2 3c-1 1.3-2 2.1-2 2.1s4.7 2.3 7.6 3.4c4.4 1.5 7 1.7 7 1.7l2.3-2.6c1.1-1.4 2-2.9 2-2.9s-4.8-.5-8.1-1.7c-4.5-1.5-6.5-3-6.5-3m18.9 5.3-2.2 3.2c-.7 1-1.8 2-1.8 2s6.8.2 10.5-1c2-.6 4.4-1.7 5.3-2.8.7-.9 1.2-4.4 1.2-4.4s-2.2 2.4-6.6 2.9c-3.3.3-6.5.1-6.5.1" style="fill:#4d4d4d"/><path d="m105.8 99 1.9.2c2 .4 2.3.3 2.3.3s4.5-7.6 6.7-14.1c2.2-6.7 2.4-15 2.4-15l-1.7-2.6-1.6-2.2s-.8 11.6-3.1 18.8c-2.8 8.7-7 14.5-7 14.5m-17.8-6.7s6.8-9.9 9.2-16.8c1-3.1 2.6-9.4 3-12 .7-5.6.2-10.4.2-10.4a18 18 0 0 0 4 2.1s.7 3.9-.4 9.6q-1.2 6.9-3.4 13a95 95 0 0 1-9.4 16.6z" style="fill:#838383"/></svg>