<svg xml:space="preserve" width="16" height="16" viewBox="0 0 128 128"><path d="M64.2 55s-7.6-5-11.7-22.2A117 117 0 0 1 49.8 4h-1.6c-.1 7.6.2 18.9 2.7 29.2 4.4 18 12.1 23 12.4 23.2l.5.1q.4 0 .6-.4.4-.6-.2-1" style="fill:#1c75bc"/><path d="m74.2 39.2-.3-.3-9.8-6.4-8-12.8q-.2-.2-.6-.2l-2.6 1a2 2 0 0 0-1 2.4l6 13.5q.4 1 1.3 1.6L70 45l.3.2h.1q.2 0 .3-.3l3.5-5.3z" style="fill:#eda600"/><path d="m64.1 32.5-4 7 7.4 4c2.2 1.3 5 .5 6.2-1.4 1.1-1.8.2-5-.7-5.6z" style="fill:#3615af"/><linearGradient id="a" x1="63.6" x2="44.2" y1="56.8" y2="57.4" gradientTransform="matrix(1 0 0 -1 0 128)" gradientUnits="userSpaceOnUse"><stop offset="0" style="stop-color:#ffb300"/><stop offset=".5" style="stop-color:#ffca28"/></linearGradient><path d="M45 61a5.5 5.5 0 0 1 5.8-3.6l23.4 3-2 11.4-19.7-4.4-7 16.7-7-2.5z" style="fill:url(#a)"/><path d="M46.5 81.6 39 79.1l-1.7 7 6.4 2.2z" style="fill:#e0e0e0"/><path d="M80.1 67.3a7 7 0 0 0-5.6-7.9L59 57.2 56.7 70l15.5 2.9c3.7.6 7.3-1.9 7.9-5.6" style="fill:#646464"/><path d="M38.8 93.1q.7.7 1.4.1l1.9-1.5c1.2-1 1.6-3.6 1.6-3.6L39.3 83l-4.4-2.4a3 3 0 0 0-3.8.3l-.9.7q-.5.6 0 1.2z" style="fill:#4568ad"/><linearGradient id="b" x1="72.1" x2="61.9" y1="63.2" y2="29.9" gradientTransform="matrix(1 0 0 -1 0 128)" gradientUnits="userSpaceOnUse"><stop offset="0" style="stop-color:#ffb300"/><stop offset=".5" style="stop-color:#ffca28"/></linearGradient><path d="m56.5 84 12-20.3L78 70 65.6 87l3.5 19.8-7.2 1.7-5.8-20s-.7-2.7.4-4.6" style="fill:url(#b)"/><path d="m68.6 104.3-7.6 1.8 3 8.5 6-3.2z" style="fill:#e0e0e0"/><path d="M78 59.8a7 7 0 0 0-9.4 2l-8.3 13.5 11 7 8.8-13a7 7 0 0 0-2-9.5" style="fill:#7c7c7c"/><path d="M72.9 116.5q.8-.6.5-1.4l-1.2-2.4C71.4 111 69 110 69 110l-7.9 4.5-2.7 2.9a4 4 0 0 0-.6 4.2l.5 1q.4.8 1.3.5z" style="fill:#4568ad"/><path d="M84.9 20.9c-.5-4.3-3.8-9-7.9-10.2-4.5-1.4-8.3.5-10.7 4q-1.5 2-1.8 3.8l-.3 1.4c-.4 1.1-2.9 1.2-3.7 2.2-.6.8 1 2.2 1 2.4.4 1.1-1.8 4 1.4 6.3.8.6 3.5 1 3.5 1 1.5 1-.1 4.9-.1 4.9l8.7 1.4s-1.4-3.6 2.8-6.5c3.2-2.3 7.4-8 7-10.7" style="fill:#ffca28"/><path d="M61.1 27q1 .6 2.3.4c.9-.2.7-.9-.2-1a4 4 0 0 1-1.8-.6z" style="fill:#795548"/><ellipse cx="67" cy="22" rx="1.5" ry="1" style="fill:#404040" transform="rotate(-66.1 66.96 22)"/><path d="M67.3 19.8c-1 0-1.1-.7-.6-1q.5-.7 2 0c1 .6 1.2 1.3 1.4 1.8s0 .8-.2.7c-.4 0-1.4-1.4-2.7-1.5" style="fill:#6d4c41"/><path d="m85 23-.2-2q-.3-1.4-1-2.6-1.7-3.4-5-5c-3.4-1.7-4.8-1.5-7.2-.9-1.8.5-3.7 1.7-4.2 3.5 1 .4 2 .2 2.8.6 1.2.6 2.3 1.4 3.6 1.5h1.7c1 1.5-2.5 4-1.9 6.7l.4 1s1.5-2.4 3-1.3c1.4 1.1.4 2.8-1 3.7-1.6 1-2 0-2 .6-.2 1.1 2 3.1 2.8 3.5 1 .6 2.5 0 3.7-.3 1.4-.4 2.2-1.6 3-2.8q1.1-2.1 1.3-4.5z" style="fill:#543930"/><radialGradient id="c" cx="275.2" cy="-629.9" r="12.2" gradientTransform="matrix(.87 .582 .577 -.864 198.22 -681.72)" gradientUnits="userSpaceOnUse"><stop offset=".7" style="stop-color:#6d4c41;stop-opacity:0"/><stop offset="1" style="stop-color:#6d4c41"/></radialGradient><path d="m85 23-.2-2q-.3-1.4-1-2.6-1.7-3.4-5-5c-3.4-1.7-4.8-1.5-7.2-.9-1.8.5-3.7 1.7-4.2 3.5 1 .4 2 .2 2.8.6 1.2.6 2.3 1.4 3.6 1.5h1.7c1 1.5-2.5 4-1.9 6.7l.4 1s1.5-2.4 3-1.3c1.4 1.1.4 2.8-1 3.7-1.6 1-2 0-2 .6-.2 1.1 2 3.1 2.8 3.5 1 .6 2.5 0 3.7-.3 1.4-.4 2.2-1.6 3-2.8q1.1-2.1 1.3-4.5z" style="fill:url(#c)"/><linearGradient id="d" x1="16" x2="38.5" y1="-177.3" y2="-177.3" gradientTransform="rotate(11.4 771.64 351.78)scale(1 -1.1)" gradientUnits="userSpaceOnUse"><stop offset="0" style="stop-color:#651fff"/><stop offset=".7" style="stop-color:#5914f2"/><stop offset="1" style="stop-color:#530eeb"/></linearGradient><path d="M69.8 34.7c-4.6-.3-6.5 3.8-6.5 7.5 0 7.9 1.2 12.4.4 19.9 0 .5 2.3 3.4 6.8 5 6.4 2.2 10.7-.3 10.7-.7 0-4.4-1-16.1-4.2-25.2-1.8-5.2-2.8-6.2-7.2-6.5" style="fill:url(#d)"/><path d="M51.6 15.3q-.8-1.2-1.9-.7-1 .9-.2 2l3 5.5q1.4-.6 2.6-1.6z" style="fill:#e59600"/><path d="m56 21.2.4-.7-1.3-5.8-.8-1.6-1.6-2.3-.9-1-2.3-1.7q-.6-.3-1.3-.1t-1 .8q-.1.8.2 1.5.5.9 1.7 1.3l.2.3 1.3 2.6.1.6.2.9q.4 1 .3 3.4c-.2 2.1.6 3.4.7 3.5l.3.3.4-.2.2-.6 2.7-1.9z" style="fill:#eda600"/><linearGradient id="e" x1="61.8" x2="45.5" y1="82.8" y2="82.8" gradientTransform="matrix(1 0 0 -1 0 128)" gradientUnits="userSpaceOnUse"><stop offset="0" style="stop-color:#ffb300"/><stop offset=".5" style="stop-color:#ffca28"/></linearGradient><path d="m71.2 45.7-2.3-5.9-.2-.2q-.2-.1-.4 0l-10.6 4L46.4 41q-1.7-.4-2.6 1.5c-.5 1-.4 2.6 1 3.4l11.6 4.8h.2a4 4 0 0 0 2 0h.2l12-4.3q.3 0 .3-.3.1-.1 0-.4" style="fill:url(#e)"/><path d="m60 42.2 3.5 9.2 8.6-3.4c2.3-1 3.5-3.6 2.6-6l-.3-.6a4.6 4.6 0 0 0-6-2.6z" style="fill:#3615af"/><linearGradient id="f" x1="61.8" x2="45.5" y1="87.7" y2="87.7" gradientTransform="matrix(1 0 0 -1 0 128)" gradientUnits="userSpaceOnUse"><stop offset="0" style="stop-color:#ffb300"/><stop offset=".5" style="stop-color:#ffca28"/></linearGradient><path d="m44.2 37.2-1-1-2-1q-.5-.3-1-.3l-2.4-.2q-.6 0-1 .5-.6.6-.5 1.4 0 .6.5 1 .6.3 1.9.2l1.8 1.5.3.3.3.6q.6.7 1.2 2.6c.5 1.9 1.2 2.4 2 2.9l.5.2-.2-.8.2-.3-.4-.4 1.6-2.6h.6l.2-.4.1-.3z" style="fill:url(#f)"/><linearGradient id="g" x1="61.8" x2="45.5" y1="87.2" y2="87.2" gradientTransform="matrix(1 0 0 -1 0 128)" gradientUnits="userSpaceOnUse"><stop offset="0" style="stop-color:#ffb300"/><stop offset=".5" style="stop-color:#ffca28"/></linearGradient><path d="m43.6 40.1-4-1.2q-.7-.3-1.2 0-.4 0-.7.6-.3 1.2 1 1.7l3.8 1.6q.5.1.5-.1l.2-.3.5-1.5.1-.4z" style="fill:url(#g)"/><linearGradient id="h" x1="15.9" x2="31.8" y1="130.4" y2="33" gradientTransform="matrix(1 0 0 -1 0 128)" gradientUnits="userSpaceOnUse"><stop offset=".4" style="stop-color:#795548"/><stop offset=".7" style="stop-color:#6c4b40"/><stop offset="1" style="stop-color:#5d4037"/></linearGradient><path d="m43.2 25.5-6.1 10 1.5 1.8-4.7 9.2 3.4 11-5.2 9.3-.4 15.7 2.1 3.5 2.5 4.1 1.3 8.3 2.6 16.2L43 124H4V4h41.3l4.8 8.6 1 1.7z" style="fill:url(#h)"/><path d="m36.3 124-6.9-31.7L31 124zM20 124h1.7l-3.5-40-8.4-49.9 5.4 69zm-15.9 0 .7-10-.6-50.6-.1 1.2zM31 4l-9.5 26.3L18.7 4h-4.6l1.1 14.1 7.6 32.7L31.9 4zm6.3 53.5-5.2 9.3 1.7-11zM51 14.3l-7.8 11.2 4.9-11 .2-3.2 1.8 1.3zM35.4 101l4.8-5.7-8.3-12.2z" style="fill:#4e342e"/><path d="M80.8 63.5c-2.2 2.3-6.6 1-9.4 0-3-1-8.1-4.9-8-5.7s0-2 .4-2q.7-.6 2.4.5C71 59.4 73 61.8 79 60.9q1.5-.5 1.6-1.6c.3-.7 1.2 3.1.2 4.2" style="fill:#1b75bc"/><path d="M86 42c-1.4 4.8-5 4.8-5 4.8s3.4-2.6 1-7a8 8 0 0 0-1.6-2c-1.5-1.3-3-2.8-2-5.5.5-1.1 2.9-1.7 4.9-.4q1.2.8 2 2.6Q87 38 86 42" style="fill:#543930"/><radialGradient id="i" cx="81" cy="89.8" r="6.2" gradientTransform="matrix(1 0 0 -1.614 0 183.13)" gradientUnits="userSpaceOnUse"><stop offset=".6" style="stop-color:#6d4c41;stop-opacity:0"/><stop offset="1" style="stop-color:#6d4c41"/></radialGradient><path d="M86 42c-1.4 4.8-5 4.8-5 4.8.3-.1 5.5-2.5 2.7-10.3-1.2-3.5-3.4-4.1-5.5-3.7l.2-.5c.5-1.1 2.9-1.7 4.9-.4q1.2.9 2 2.6 1.6 3.7.7 7.5" style="fill:url(#i)"/><radialGradient id="j" cx="82.2" cy="94.3" r="4.4" gradientTransform="rotate(173.6 2.26 78.47)scale(-1 1.21)" gradientUnits="userSpaceOnUse"><stop offset=".7" style="stop-color:#6d4c41;stop-opacity:0"/><stop offset="1" style="stop-color:#6d4c41"/></radialGradient><path d="M83.4 33.1c-.3.9-2.3 3.7-3 4.7-1.5-1.3-3-2.8-2-5.5.5-1.1 2.9-1.7 4.9-.4q.3.6 0 1.2" style="fill:url(#j)"/><radialGradient id="k" cx="74.5" cy="85.2" r="23.5" gradientTransform="matrix(1 0 0 -1 0 128)" gradientUnits="userSpaceOnUse"><stop offset=".3" style="stop-color:#6d4c41"/><stop offset=".4" style="stop-color:#6d4c41;stop-opacity:0"/></radialGradient><path d="M81 46.8c.2-.1 3.3-2.7 1-7a8 8 0 0 0-1.7-2c-1.3-1.2-2.8-2.6-2-5 2-.4 4.2.2 5.4 3.7 2.8 7.8-2.4 10.2-2.7 10.3" style="fill:url(#k)"/><linearGradient id="l" x1="311.1" x2="311.1" y1="-821.3" y2="-828" gradientTransform="rotate(42.8 1205.42 123)scale(1 -1)" gradientUnits="userSpaceOnUse"><stop offset="0" style="stop-color:#646464"/><stop offset="1" style="stop-color:#262626"/></linearGradient><path d="M71.2 29.7c-.9 1.3-4.7 2-4.8 2-.4.3 1 1.2 1.5 1.1s3.7.3 7.4-1.4c1.6-.7 5.8-3 5.8-3l-1.3-2.6S74.6 31.2 73 30s3-6.8 3-6.8L71.7 22s0 7-.5 7.7" style="fill:url(#l)"/><radialGradient id="m" cx="227.2" cy="-719.3" r="18.4" gradientTransform="rotate(37.9 1180.26 138.98)scale(1 -1)" gradientUnits="userSpaceOnUse"><stop offset="0" style="stop-color:#81d4fa"/><stop offset=".4" style="stop-color:#5eb3e7"/><stop offset=".8" style="stop-color:#3c92d3"/><stop offset="1" style="stop-color:#2f85cc"/></radialGradient><path d="M79 9.9a14 14 0 0 0-9.3.3q-2.4 1-4 2.8c-.7.7-1.7 2-1.6 3q.2 1 1 1.3c1 .4 3.5 1 4.1 1.5 1.4.9 1.6 2.6 1.7 3 .4 1.3 1 2.3 3.3 2.3 1.4 0 2-.3 3 .1.5.4 1.3 1.1 1 3.5-.2 2.6 1.1 3.8 2.5 3.7 1.8-.2 8.3-4.2 7.1-11.4-.7-4.7-4.3-8.5-8.8-10.1" style="fill:url(#m)"/></svg>