<svg xml:space="preserve" width="16" height="16" viewBox="0 0 128 128"><path d="M22.4 6.2S25.3 2 38 4.2c12 2.2 14.4 5.6 13.4 7.9s-14.3 7.3-14.3 7.3l-9.6 1.9-.7 2.6-.5 6.1-5.5-9.5z" style="fill:#ca8865"/><path d="M52 60.7s2.9-.6 4.7-2.8 3.6-5.6 3.7-7.2c.1-2.2-.5-3.2-1-3.6-1-.8-6.8 5.6-6.8 5.6z" style="fill:#e4bf8f"/><path d="M83.2 16.5 71.9 25s-2 2.7 5 4S90 30.2 90 30.2s12.8-5.6 12.7-6.5-1.2-6.3-1.6-6.2z" style="fill:#ca8865"/><path d="M74.5 87.9c-.3 1-1.1 2.7-2 4-.9 1-2.5 1.2-2.4 2.1 0 1.6 3.5 4.2 4.6 4.2s2.7-1.7 2.6-4c-.2-2.4-.2-6.6-.2-6.6z" style="fill:#efc2a2"/><path d="m48.7 41.3 1.3-4.1 2.2-3 3.5 2.3 3.4 9.2-.1 4.7s-1.3 3-4.2 7.1-4 6-5.8 9.6c-1.3 2.6-3 6.7-3.6 12.2-1.1 8.2 0 14.8-.2 22.7s-1.2 15.7-3.8 18.5c-2.3 2.5-5.5 4-12.3 4s-7.3-1.6-7.3-1.6l-3.5-39.6L38.7 41z" style="fill:#ca8865"/><path d="M47.2 42.5s-2.4-.4-5.7 2.4c-2.6 2.3-4.4 7.4-7.6 15.6a150 150 0 0 1-13 27.3c-1 1.9-4.3 1.2-4.3.9S13 84.6 13 84.6l-.3-4.6s5.2-7.5 5.2-7.8 6-13 6-13L28.8 40c.2-.5 6.6-9.2 6.6-9.2L47.6 29l1 7.1-.2 6.3z" style="fill:#865c52"/><path d="M48.7 28.5s1.6.4 3.6 2q3.7 2.8 5.4 6.3c1.1 2 1.9 5 2.1 7.8s-.4 5.3-.8 5.8-1.7-7-3.2-10c-1.4-3-2.6-4-4.4-3.9-2 .2-1.8.7-1.8.7zM28 85.6l3-.2a120 120 0 0 0 4.1 32.9c0 2-.6 3.8-3 5a17 17 0 0 1-8.7.7c-2.1-.4-3.8-2.7-5.5-5.6s-4-8.3-5.6-15C9.9 92.7 10.7 85 10.7 85l8.6 4.5z" style="fill:#dca282"/><path d="M26 43.2s-1.6 10.5-3 14.5a44 44 0 0 1-6.4 13.7c-2.5 3.6-5.1 5.9-6 8.4q-1.4 3.8 0 6.9c1.4 3 2 2.4 2 2.4s-.8 1.2-1.8 2.1-2.2 1.3-2.2 1.9.8 1.8 2.2 2.9c1 .7 2.5 1.4 2.9 1.4s2.8-4.5 2.8-4.3c0 .1 2.3 5.3 2.8 5.3 2.2.3 5.5-3.3 5.5-4.2 0-.5-3.7-3.7-3.7-3.7s4.8.3 9.2-4 10.5-14.3 15-26.1 6.3-22.3 5.1-27.7-2.6-5.8-2.6-5.8L46.2 29s1.8 4.7.8 11.3-4.9 19.7-9 28c-3.6 7.2-8.7 15-14.9 18-6.2 2.8-11.2-3.1-8.7-7.2 1.6-2.5 4.5-5.4 7.1-11 3.1-6.3 5.1-15 5.7-18l1.3-6.1z" style="fill:#f8e2d5"/><path d="M18.8 40.8s-3.6 9.6-3.5 10.7 2 5 3.4 7c2.4 3.3 4.3 5.6 4.7 5.6s3-9.5 3-9.5-2-2.7-3.3-5c-2.3-4.3-1.3-7.4-1.4-7.6-.2-.3-2.9-1.2-2.9-1.2" style="fill:#ca8865"/><path d="M15 101.6c-1.1.3-.6 2 .4 5.2s4 10.3 7.6 12.8c2.4 1.7 6.5 1.8 6.3-1.1-.1-2-3-2-5.3-4.2a32 32 0 0 1-6.2-8.2c-.9-1.5-1.7-5-2.8-4.5" style="fill:#fde1cc"/><path d="M35.5 14.2C23 12.3 22.7 6.8 22.7 6.5c-.1-.7-.4-.2-.5.2L20.1 17c-.4 1.9-2.7 10.2-2.6 10.6 0 .5.3 2.1.9 3.2l2 3.9-3.2 2.3c-1.4 1.1-2.8 3-2.8 3s-.3.7-.2 4.1 1.1 7.4 1.1 7.4 1-2.3 3.8-5c2.9-2.7 5.6-4.1 5.6-4.1s3.3 5.2 6.5 9.3S40.8 62 40.8 62l1.7-4.5 1.4-4.6-6.1-6.2c-4-4-5.8-8-5.8-8s4.6-1.9 9-4.4c5.6-3.2 8.4-5.4 8.4-5.4s.7-3 1.2-7.4c.6-5 1-10.2 1-10.2s-3 5-16.1 3m.9 12.4-8.5 3.6-4.2-10.6s2.3 1.7 7.1 3 12.2 1 12.2 1zM75 9.6 71.8 25s6.3-2 14.5-2.7 15-.5 15 .6-8.5 2-16.6 5.6-14 8.4-14 8.4-.2 4.8.2 8.8 1 7 1 7 4.4 3 7.7 4.8l5.3 2.5 3.3-8.8-6.2-3.4c-2-1.2-3.7-2-3.9-3.4 0-1.5 5.1-5 11.8-8s10.8-3.7 10.8-3.7 4.4-3 4.3-3.2c0-.2-1-4.6-1-10.1s.2-9.5.2-9.5-3.5-3.2-14.8-2.7S75 9.6 75 9.6" style="fill:#e7ac84"/><path d="m108 32.5 1 11.7-8.1 43.5 7.4 31.5s-2.2 5.6-11.6 5.7c-5.9.1-8-2.4-8.9-3-.8-.8-6-10.8-8.1-16.4-4.5-12.6-5.2-17.6-5.2-17.6l3.9-9.3 8.8-26 8.3-14.4 8.1-7.4z" style="fill:#dda281"/><path d="m109 29.8-4.4 1.8s3 1.4 3.1 6.1c0 10-5 18-9.3 26-2.8 5-5.2 7-7.6 7.7-1.6.5-3.4 0-3.2 1.2.2 1.6 4 2.5 4 2.5s-2 2.8-4.2 4.4C85 81 81.9 82 82.4 83s6.7-.2 6.7-.2-1.4 2.7-2.7 3.8-2.6 1.6-2 2.6 3.6 0 4.4-.4l2-1s-1 9 0 16c.9 6 3.2 13.6 7.6 16.6 2.4 1.6 7 1.4 9 0 1.5-1.1 3-5.1 3.1-7.3s-11-23.5-11-23.5l7.4-24.9L118 53s1.7-2.4 1.8-7.5-3.6-10.9-5.8-13a13 13 0 0 0-4.8-2.7" style="fill:#ca8865"/><path d="m112.3 55.5-2-5.7s2.2-8.1.8-12.7-3.6-5.4-5.7-5.5c-1.3 0-11 8.4-16.9 23S80 81 77.7 84.5s-4 4.1-4.6 3.1c-1.2-2 .9-4 2.2-6.4s7.4-22 10.5-29a62 62 0 0 1 15.5-21.7c3.3-2.5 5.7-2.4 5.7-2.4s5 1.5 8 5.3 2.5 9.4 1.6 15.8-4.3 6.3-4.3 6.3m-33 32.4c-1.6.4-1.1 3.3.9 10 2.5 8.4 6.4 16.4 7.1 17.7.7 1.2 1.3 2.4 2.3 2 1-.6-.4-2.9-1.2-4.7q-1.5-3.4-5-15.6c-1.4-4.4-2-10-4-9.5M101.8 37c-.8-.3-3.8 1.9-6 8.3-2.1 6.5-1.9 11.9 0 12 2 0 1.6-6.8 3.3-11.4 1.9-5.3 3.8-8.7 2.7-9" style="fill:#f8e2d5"/><path d="M116.2 48c-4.6-2.2-15.2 7.8-20.7 31.9s0 41.7 10.8 38.3c11.6-3.6-2.5-31 .4-41.8a65 65 0 0 1 6.2-15.1c1.7-2.6 9-10.4 3.3-13.2" style="fill:#e4bf8c"/><path d="m97.9 71 11.7-3.2s-2.2 5.6-2.8 8.4c-.5 2.4-.4 4.2-.4 4.2l-11.9 3.5 1.7-7z" style="fill:#dda281"/></svg>