<svg xml:space="preserve" width="16" height="16" viewBox="0 0 128 128"><path d="M116 4H12a8 8 0 0 0-8 8v104a8 8 0 0 0 8 8h104a8 8 0 0 0 8-8V12a8 8 0 0 0-8-8" style="fill:#f77e00"/><path d="M109.7 4H11.5A7.6 7.6 0 0 0 4 11.5v97.9c0 4.1 3.3 7.5 7.5 7.5h98.1c4.1 0 7.5-3.3 7.5-7.5V11.5c0-4-3.1-7.4-7.2-7.5z" style="fill:#ff9800"/><path d="M39.7 12.9c0-2.3-1.6-3-10.8-2.7-7.7.3-11.5 1.2-13.8 4s-2.9 8.5-3 15.3c0 4.8 0 9.3 2.5 9.3 3.4 0 3.4-7.9 6.2-12.3 5.4-8.7 18.9-10.6 18.9-13.6" style="opacity:.75;fill:#ffbd52"/><path d="M102.1 37v15.7a2 2 0 0 1-2 2h-4.2a2 2 0 0 1-2-2v-8.4q0-.8-.9-.9H34.7q-.8 0-.9.9v8.4a2 2 0 0 1-2 2h-3.9a2 2 0 0 1-2-2V37q0-.8.9-.9h9.6q.9 0 1-1l-.2-.4a63 63 0 0 0-4.5-6.5 2 2 0 0 1 .8-3.1l3.7-1.5q1.3-.4 2.3.5c2 2.3 5.7 8 7.4 10.6a3 3 0 0 0 2.5 1.4H59q1-.1 1-1l-.1-.3q-2-4.6-4.7-8.7a2 2 0 0 1 1-2.9l3.6-1.3a2 2 0 0 1 2.3.7 244 244 0 0 1 7.4 12.1q.8 1.3 2.2 1.3h6.9q.4 0 .7-.3 4.3-5.7 7.8-11.9.9-1.2 2.3-1l4.8 1.5a2 2 0 0 1 1 3.1l-5.6 7.1q-.5.7.1 1.3l.6.2h10.8q1 .1 1 1M66.8 71.5l-1.9 4.8q-.2.8.6 1.3h28.3a2 2 0 0 1 2 2v24.6a2 2 0 0 1-2 2h-4.6a2 2 0 0 1-2-2v-.3q0-.8-.9-.9H42.1q-.8 0-.9.9v.4a2 2 0 0 1-2 2H35a2 2 0 0 1-2-2V79.5q.2-1.8 2-2h20.3q.7 0 .9-.7l1.3-4.8a1 1 0 0 0-.9-1.2H41.9a2 2 0 0 1-2-2V51.3q.2-1.8 2-2H86a2 2 0 0 1 2 2v17.6a2 2 0 0 1-2 2H67.6q-.6 0-.8.6M86.3 85H42.1q-.8 0-.9.9v8.7q0 .8.9.9h44.2q.8 0 .9-.9v-8.7q0-.8-.9-.9M48.7 64.5h30q.8 0 .9-.9v-7q0-.8-.9-.9h-30q-.8 0-.9.9v7q0 .8.9.9" style="fill:#fafafa"/></svg>