<svg xml:space="preserve" width="16" height="16" viewBox="0 0 128 128"><path d="M87 79.9c-1.2-2.3.4-4.6 3-7.5 4.4-4.5 9-15 4.7-25.8l-.8-1.9H92a3374 3374 0 0 0-80 0l-2.6 2a25 25 0 0 0 4.7 25.7c2.7 2.9 4.3 5.2 3 7.4s-4.8 2.6-4.8 2.6.8 2.2 2.8 3.4 4.2 1.4 5.7 1.5c0 0 6.2 8.5 22.3 8.5H61c16 0 22.2-8.5 22.2-8.5 1.6 0 3.9-.3 5.7-1.4 2-1.3 2.8-3.5 2.8-3.5s-3.6-.3-4.8-2.6" style="fill:#3c2c23"/><radialGradient id="a" cx="111.5" cy="45.8" r="23.4" gradientTransform="matrix(1 0 0 .491 -44.83 59.63)" gradientUnits="userSpaceOnUse"><stop offset=".7" style="stop-color:#554138;stop-opacity:0"/><stop offset="1" style="stop-color:#554138"/></radialGradient><path d="M52.1 95.8v-9.4L80.7 84l2.6 3.2S77 95.8 61 95.8z" style="fill:url(#a)"/><radialGradient id="b" cx="88.5" cy="49.3" r="6.9" gradientTransform="rotate(155 84.43 57.78)scale(1 .742)" gradientUnits="userSpaceOnUse"><stop offset=".7" style="stop-color:#554138"/><stop offset="1" style="stop-color:#554138;stop-opacity:0"/></radialGradient><path d="M83.2 83.2c-4.3-6.5 5.2-9 5.2-9-1.6 2-2.4 3.9-1.4 5.6 1.2 2.3 4.8 2.6 4.8 2.6s-4.9 4.3-8.6.8" style="fill:url(#b)"/><radialGradient id="c" cx="106.4" cy="68.9" r="30.4" gradientTransform="rotate(-94.3 89.88 74.3)scale(1 .833)" gradientUnits="userSpaceOnUse"><stop offset=".7" style="stop-color:#554138;stop-opacity:0"/><stop offset="1" style="stop-color:#554138"/></radialGradient><path d="M94.7 46.7c4.3 10.3-.2 21-4.4 25.5-.5.6-3 3-3.5 4.9 0 0-9.6-13.3-12.4-21.1q-1-2.4-1.2-5-.2-2 .9-3.8a111 111 0 0 1 20.1-1.7z" style="fill:url(#c)"/><radialGradient id="d" cx="32.4" cy="68.9" r="30.4" gradientTransform="rotate(-85.7 95.2 .83)scale(1 -.833)" gradientUnits="userSpaceOnUse"><stop offset=".7" style="stop-color:#554138;stop-opacity:0"/><stop offset="1" style="stop-color:#554138"/></radialGradient><path d="M9.5 46.7c-4.2 10.3.2 21 4.4 25.5.6.6 3 3 3.6 4.9 0 0 9.5-13.3 12.4-21.2q.9-2.3 1.2-4.8.1-2.1-1-3.9c-.8-1.3-1.9-1-3.4-1-2.8 0-15.5-.7-16.4-.7z" style="fill:url(#d)"/><radialGradient id="e" cx="37.6" cy="45.8" r="23.4" gradientTransform="matrix(-1 0 0 .491 75.1 59.63)" gradientUnits="userSpaceOnUse"><stop offset=".7" style="stop-color:#554138;stop-opacity:0"/><stop offset="1" style="stop-color:#554138"/></radialGradient><path d="M52.1 95.8v-9.4L23.6 84 21 87.3s6.1 8.5 22.2 8.5z" style="fill:url(#e)"/><radialGradient id="f" cx="14.5" cy="49.3" r="6.9" gradientTransform="rotate(205 4.68 54.41)scale(-1 .742)" gradientUnits="userSpaceOnUse"><stop offset=".7" style="stop-color:#554138"/><stop offset="1" style="stop-color:#554138;stop-opacity:0"/></radialGradient><path d="M21 83.2c4.3-6.5-5.2-9-5.2-9q2.7 3 1.4 5.6c-1.2 2.3-4.8 2.6-4.8 2.6s5 4.3 8.6.8" style="fill:url(#f)"/><radialGradient id="g" cx="53.2" cy=".8" r="68.2" gradientTransform="matrix(1 0 0 -.604 0 127.67)" gradientUnits="userSpaceOnUse"><stop offset=".6" style="stop-color:#f5f5f5"/><stop offset="1" style="stop-color:#c6c6c6"/></radialGradient><path d="M51.8 95.9c-23.6 0-48.1 7.3-48.1 25v3.1h96.2v-3c0-17.8-24.5-25-48.1-25.1" style="fill:url(#g)"/><linearGradient id="h" x1="87.8" x2="102.2" y1="13.6" y2="11.7" gradientTransform="matrix(1 0 0 -1 0 128)" gradientUnits="userSpaceOnUse"><stop offset="0" style="stop-color:#9e9e9e;stop-opacity:0"/><stop offset=".8" style="stop-color:#9e9e9e"/></linearGradient><path d="M89.9 104.6 84.1 124h15.8v-3c0-7-3.9-12.5-10-16.4" style="fill:url(#h)"/><path d="M52 92.5h-9v10c0 4.5 3.6 8.2 8.2 8.2h1.6c4.6 0 8.3-3.7 8.3-8.2v-10zm27.4-41.9H24.8c-6 0-10.7 5.2-10.7 11.5s4.8 11.4 10.7 11.4h54.6c6 0 10.7-5.2 10.7-11.5s-4.8-11.4-10.7-11.4" style="fill:#7a4c32"/><path d="M52.1 11.3c-17.4 0-33.5 18.6-33.5 45.4 0 26.6 16.6 39.8 33.5 39.8s33.5-13.2 33.5-39.8c0-26.8-16-45.4-33.5-45.4" style="fill:#a56c43"/><path d="m55.9 68.3-.4-.1h-7.4q-1 .5-.7 1.7a5.3 5.3 0 0 0 9.2 0q.3-1.2-.7-1.6" style="fill:#875334"/><path d="M60.5 76.4a26 26 0 0 1-16.8 0c-1.8-1.1-3.7.5-3 2.2.8 1.6 6.5 5.4 11.4 5.4s10.6-3.8 11.3-5.4-1-3.3-2.9-2.2" style="fill:#473530"/><path d="M43.8 50c-1-1.3-3.1-3-7.3-3s-6.3 1.8-7.2 3q-.5.8 0 1.5t1.9.4c1.4-.3 2.5-1.2 5.3-1.2 2.9 0 4.5 1 5.4 1.2q1.4.3 1.9-.4t0-1.5M75 50c-1-1.3-3.1-3-7.3-3s-6.3 1.8-7.2 3q-.7.8 0 1.5.5.7 1.8.4c1.3-.3 2.6-1.2 5.4-1.2s4.5 1 5.3 1.2q1.5.3 2-.4t0-1.5" style="fill:#42312c"/><ellipse cx="36.5" cy="59" rx="4.9" ry="5.1" style="fill:#42312c"/><ellipse cx="67.7" cy="59" rx="4.9" ry="5.1" style="fill:#42312c"/><linearGradient id="i" x1="52.1" x2="52.1" y1="22.8" y2="3.8" gradientTransform="matrix(1 0 0 -1 0 128)" gradientUnits="userSpaceOnUse"><stop offset="0" style="stop-color:#80cbc4"/><stop offset=".3" style="stop-color:#73c6be"/><stop offset=".9" style="stop-color:#51b8ae"/><stop offset="1" style="stop-color:#4db6ac"/></linearGradient><path d="M62.7 105.2H41.5L44 124h16.6z" style="fill:url(#i)"/><linearGradient id="j" x1="38.5" x2="38.5" y1="11.2" y2="31.4" gradientTransform="matrix(1 0 0 -1 0 128)" gradientUnits="userSpaceOnUse"><stop offset=".3" style="stop-color:#e0e0e0"/><stop offset=".7" style="stop-color:#d0d0d0"/><stop offset="1" style="stop-color:#bdbdbd"/></linearGradient><path d="M43 96.2q-8.9.8-8.8 1l-3.1 7.3 5.3 4.3-5 6.2 7.2 9H46z" style="fill:url(#j)"/><linearGradient id="k" x1="38.7" x2="38.7" y1="11.2" y2="31.4" gradientTransform="matrix(-1 0 0 -1 104.16 128)" gradientUnits="userSpaceOnUse"><stop offset=".3" style="stop-color:#e0e0e0"/><stop offset=".7" style="stop-color:#d0d0d0"/><stop offset="1" style="stop-color:#bdbdbd"/></linearGradient><path d="M61 96.2q8.9.8 8.8 1l3.1 7.3-5.2 4.3 4.8 6.2-7 9H58z" style="fill:url(#k)"/><path d="M56 68.2h-7.7q-1 .6-.7 1.6c.3.7 1.7 2.7 4.5 2.7s4.2-2 4.5-2.7q.4-1.1-.7-1.6" style="fill:#875334"/><linearGradient id="l" x1="51.7" x2="51.7" y1="83.7" y2="59.5" gradientTransform="matrix(1 0 0 -1 0 128)" gradientUnits="userSpaceOnUse"><stop offset=".2" style="stop-color:#b3e5fc;stop-opacity:.5"/><stop offset="1" style="stop-color:#b3e5fc;stop-opacity:.2"/></linearGradient><path d="M31.1 44.3h42.7l5.7 5.1v15s-3.9 5.5-13.4 3.2-8.2-8-13.9-8-8.2 9.1-20.6 8.9c0 0-6.4-.6-7.6-4.6l-.2-16.6z" style="fill:url(#l)"/><linearGradient id="m" x1="80.2" x2="80.2" y1="72.2" y2="84.8" gradientTransform="matrix(1 0 0 -1 0 128)" gradientUnits="userSpaceOnUse"><stop offset="0" style="stop-color:#bdbdbd"/><stop offset="1" style="stop-color:#e0e0e0"/></linearGradient><path d="M88.3 54.8q0 1-.6 1.8l-5.5 8c-2 3-9.3 4.5-9.3 4.5l8.2-9.1-1.5-11.5-7.5-5.8s3.1.3 5.3.3 4.3 1.4 5.4 2.1l4 2.8q1.4 1 1.4 2.7z" style="fill:url(#m)"/><linearGradient id="n" x1="25" x2="25" y1="72.4" y2="84.5" gradientTransform="matrix(1 0 0 -1 0 128)" gradientUnits="userSpaceOnUse"><stop offset="0" style="stop-color:#bdbdbd"/><stop offset="1" style="stop-color:#e0e0e0"/></linearGradient><path d="m18.2 59 3.8 5.7c2 2.8 9.3 4.4 9.3 4.4L23.1 60l1.6-11.5 7.4-5.8s-3 .3-5.2.3-4.4 1.4-5.5 2.1l-2.8 2c-.9.6-.8 11.4-.5 12" style="fill:url(#n)"/><radialGradient id="o" cx="52.1" cy="71.9" r="22.9" gradientTransform="matrix(0 1 1.408 0 -49.11 4.02)" gradientUnits="userSpaceOnUse"><stop offset="0" style="stop-color:#f5f5f5"/><stop offset=".7" style="stop-color:#eee"/><stop offset="1" style="stop-color:#e0e0e0"/></radialGradient><path d="M71.6 45.6A9 9 0 0 1 76 47c2 1.3 2.1 2.9 2.1 3.4l.1 2.2.2 6.6c0 4.4-3.9 7.4-9.5 7.4-4 0-8.4-3.3-10.4-5.6a9 9 0 0 0-6.5-2.7q-4 0-6.5 2.7c-2 2.3-6.5 5.6-10.4 5.6-5.6 0-9.5-3-9.5-7.4l.2-6.6v-2.2c0-.5.1-2 2.2-3.4a9 9 0 0 1 4.5-1.4zm0-3h-39c-3.5 0-9.4 2.3-9.6 7.7l-.3 9c0 6 5.2 10.3 12.5 10.3 5 0 10.1-3.8 12.6-6.5q1.8-1.8 4.3-1.8c2.5 0 3.2.6 4.3 1.8 2.5 2.7 7.6 6.5 12.6 6.5 7.3 0 12.5-4.4 12.5-10.4l-.3-9c-.2-5.3-6-7.6-9.6-7.6" style="fill:url(#o)"/><path d="M122.2 73.5c1.1 7.7-.1 16.8-.1 16.8l-10.3-.9s-.4-5.9 0-5.9z" style="fill:#80cbc4"/><linearGradient id="p" x1="97.8" x2="123.6" y1="23.3" y2="19.9" gradientTransform="matrix(1 0 0 -1 0 128)" gradientUnits="userSpaceOnUse"><stop offset=".4" style="stop-color:#f5f5f5"/><stop offset="1" style="stop-color:#c6c6c6"/></linearGradient><path d="M111.9 87.8c-6.7-.8-9.6-1.6-9.6-1.6L90.9 124h28.2l4.2-36.2s-3.2 1-11.4 0" style="fill:url(#p)"/><linearGradient id="q" x1="118.4" x2="96" y1="76" y2="23.3" gradientTransform="matrix(1 0 0 -1 0 128)" gradientUnits="userSpaceOnUse"><stop offset="0" style="stop-color:#b3e5fc;stop-opacity:.8"/><stop offset=".1" style="stop-color:#aee3fc;stop-opacity:.8165"/><stop offset=".7" style="stop-color:#8dd8fa;stop-opacity:.9349"/><stop offset="1" style="stop-color:#81d4fa"/></linearGradient><path d="M110.4 112.6c-2.3 1.4-9.2.1-15.8-2.3-5.1-1.8-9.2-4.1-9.3-4.1-.5-.3-5.5-3-5.5-5.8 0-2.3 2-3.9 2.5-4.4v-.1l17.5-17.6L113 46.5s2.4-.8 5.7.5 5 3.4 5 3.4l-11.9 32.7v25.4c0 2.7-.3 3.4-1.4 4" style="opacity:.86;fill:url(#q)"/><radialGradient id="r" cx="112.2" cy="40.4" r="25.4" gradientTransform="rotate(193.3 1.94 51.9)scale(-1 1)" gradientUnits="userSpaceOnUse"><stop offset="0" style="stop-color:#ce93d8"/><stop offset=".2" style="stop-color:#ca8ad5"/><stop offset=".5" style="stop-color:#bf73cc"/><stop offset="1" style="stop-color:#ad4cbe"/><stop offset="1" style="stop-color:#ab47bc"/></radialGradient><path d="m106.8 111-23-9.1c-1.6-.6-2-2.6-.8-3.8l7.4-7.5 19.5-1V109c0 1.6-1.6 2.7-3.1 2.1" style="opacity:.8;fill:url(#r)"/><path d="M99.2 96.7h2v6.8h-2z" style="fill:#fff" transform="rotate(-67.3 100.24 100.12)"/><path d="M101.3 91.3h2v6.8h-2z" style="fill:#fff" transform="rotate(-67.3 102.26 94.68)"/><path d="M103.3 85.8h2v6.8h-2z" style="fill:#fff" transform="rotate(-67.3 104.29 89.24)"/><path d="M105.3 80.4h2v6.8h-2z" style="fill:#fff" transform="rotate(-67.3 106.31 83.8)"/><path d="M107.3 75h2v6.8h-2z" style="fill:#fff" transform="rotate(-67.3 108.33 78.36)"/><path d="M109.3 69.5h2v6.8h-2z" style="fill:#fff" transform="rotate(-67.3 110.35 72.92)"/><path d="M111.4 64.1h2v6.8h-2z" style="fill:#fff" transform="rotate(-67.3 112.37 67.48)"/><path d="M113.9 57.8h2v6.8h-2z" style="fill:#fff" transform="rotate(-67.3 114.88 61.16)"/><path d="M115.9 52.3h2v6.8h-2z" style="fill:#fff" transform="rotate(-67.3 116.9 55.72)"/><path d="M98.6 79.6s-2.5-2.2-2.5-4.1c0-1.6 1.9-3 1.9-3s-1.8-2.9-1.2-4.4c1-2.1 3.4-2.5 3.4-2.5s-1-2.8.7-4.4c1.2-1.2 4.9-.7 4.9-.7s.4-4.6 4.8-3.5c1.8.5 8 4 10.2 11.5 1.5 4.7 2 6 1.6 13-.2 3-7.7 3-10.6 2-7-2.5-9-5.6-10-5.6s-3.2 1.6-3.2 1.6" style="fill:#80cbc4"/><path d="M99.5 70.7Q98.3 71 98 72v.3l4-1.3q-1.5-.7-2.6-.3m5.2-4.8q-1-1-1.9-1.2-1.6-.5-2.5.9zm3.3-6.1q-1.4-.4-2 .6h-.1a22 22 0 0 1 4.4 1.4q-.9-1.5-2.4-2" style="fill:#26a69a"/><ellipse cx="95.8" cy="105.1" rx="3.4" ry="14.4" style="fill:#8f5d9b" transform="rotate(-68.5 95.85 105.1)"/><ellipse cx="118.2" cy="48.8" rx="3.1" ry="5.7" style="fill:#81d4fa" transform="rotate(-68.5 118.24 48.8)"/><path d="M92.2 25.1c-2.5-3.7-8-8.6-12.8-9-.8-4.7-5.9-8.7-10.8-10.2-13.2-4.2-21.8.5-26.4 3-1 .5-7.2 4-11.5 1.5C27.9 8.9 28 4.7 28 4.7S19.5 7.9 22.4 17a10 10 0 0 0-8.8 5.4c-2.4 5-1.6 9-.9 11A11 11 0 0 0 9.2 46c1.6 4.4 8.2 6.5 8.2 6.5-.5 8 1 13 1.8 15 .1.3.6.2.7-.1 1-4 4.4-17.8 4-20.2 0 0 11.4-2.3 22.2-10.3a32 32 0 0 1 7.1-4c13.6-5.4 16.5 3.8 16.5 3.8S79 35 81.9 48c1.1 5 1.8 12.8 2.4 18.3 0 .3.6.4.8 0 .9-2.1 2.8-6.4 3.3-10.8.1-1.6 4.3-3.6 6-10.3 2.5-8.9-.5-17.4-2.2-20" style="fill:#3c2c23"/><radialGradient id="s" cx="70.1" cy="84.9" r="35.6" gradientTransform="rotate(252 -7.27 2)scale(-1 .742)" gradientUnits="userSpaceOnUse"><stop offset=".7" style="stop-color:#554138;stop-opacity:0"/><stop offset="1" style="stop-color:#554138"/></radialGradient><path d="M88.3 55.5c.2-1.5 4.4-3.6 6.2-10.3l.5-2.1a28 28 0 0 0-2.8-18 22 22 0 0 0-11.7-8.8l-1.2-.1s.4 2.1-.5 3.8a5 5 0 0 1-3.4 2.8c12 12 11.1 22 13 32.7" style="fill:url(#s)"/><radialGradient id="t" cx="35.4" cy="123.8" r="9.3" gradientTransform="rotate(208.2 -17.9 66.6)scale(-1 1.186)" gradientUnits="userSpaceOnUse"><stop offset=".6" style="stop-color:#554138"/><stop offset="1" style="stop-color:#554138;stop-opacity:0"/></radialGradient><path d="m45 7.4-2.8 1.5c-1 .5-7.2 4-11.5 1.5C28 8.9 28 4.8 28 4.7c-1.2 1.6-5 12.8 6 13.5 4.6.3 7.5-3.8 9.2-7.2z" style="fill:url(#t)"/><radialGradient id="u" cx="164.4" cy="52.2" r="28.7" gradientTransform="matrix(-.938 -.394 -.218 .528 221.87 58.42)" gradientUnits="userSpaceOnUse"><stop offset=".7" style="stop-color:#554138;stop-opacity:0"/><stop offset="1" style="stop-color:#554138"/></radialGradient><path d="M67.3 5.5c7.3 2 10.9 5.7 12 10.6.4 1.5.8 15.1-25.2-.4-9.7-5.7-7-9.3-5.9-9.7a31 31 0 0 1 19-.5" style="fill:url(#u)"/><radialGradient id="v" cx="31.6" cy="115.3" r="8.6" gradientTransform="matrix(1 0 0 -1.223 0 153.74)" gradientUnits="userSpaceOnUse"><stop offset=".7" style="stop-color:#554138;stop-opacity:0"/><stop offset="1" style="stop-color:#554138"/></radialGradient><path d="M28 4.7h-.1c-1 .4-8.2 3.8-5.5 12.3l7.8 1.2c-7-7-2.2-13.5-2.2-13.5" style="fill:url(#v)"/><radialGradient id="w" cx="30.5" cy="100.1" r="16.1" gradientTransform="rotate(15 249.07 291.2)scale(-1 .936)" gradientUnits="userSpaceOnUse"><stop offset=".7" style="stop-color:#554138;stop-opacity:0"/><stop offset="1" style="stop-color:#554138"/></radialGradient><path d="m27.2 17.7-4.8-.7h-1.2a10 10 0 0 0-7.6 5.4 14 14 0 0 0-1.3 9.4l.4 1.6s2.4-2.3 8-2.4z" style="fill:url(#w)"/><radialGradient id="x" cx="26.6" cy="84.6" r="16.9" gradientTransform="rotate(187.8 -2.58 79.32)scale(-1 1.405)" gradientUnits="userSpaceOnUse"><stop offset=".6" style="stop-color:#554138;stop-opacity:0"/><stop offset="1" style="stop-color:#554138"/></radialGradient><path d="M12.5 33.6a11 11 0 0 0-3.2 12.6c1.7 4.4 8 6.3 8 6.3s1.3.4 2 .4l1.4-22c-3 0-5.9 1-7.8 2.3z" style="fill:url(#x)"/></svg>