<svg xml:space="preserve" width="16" height="16" viewBox="0 0 128 128"><radialGradient id="a" cx="63.6" cy="1992.9" r="57" gradientTransform="translate(0 -1930)" gradientUnits="userSpaceOnUse"><stop offset=".5" style="stop-color:#fde030"/><stop offset=".9" style="stop-color:#f7c02b"/><stop offset="1" style="stop-color:#f4a223"/></radialGradient><path d="M63.6 118.8c-27.9 0-58-17.5-58-55.9S35.7 7 63.6 7c15.5 0 29.8 5.1 40.4 14.4 11.5 10.2 17.6 24.6 17.6 41.5s-6.1 31.2-17.6 41.4a61 61 0 0 1-40.4 14.5" style="fill:url(#a)"/><path d="M111.5 29.7a57 57 0 0 1 8.1 30.2c0 16.9-6.1 31.2-17.6 41.4a61 61 0 0 1-40.4 14.5 59 59 0 0 1-48.2-23 58 58 0 0 0 50.2 26c15.4 0 29.8-5.2 40.4-14.5a54 54 0 0 0 17.6-41.4q-.1-19.2-10.1-33.2" style="fill:#eb8f00"/><path d="M64 79.4c10.8 0 18.4 5.6 20.7 9.1q1.3 1.8.5 3.9-.7 1.3-2.2 1.3l-1-.2a65 65 0 0 0-36.9.3q-1.5 0-2.2-1.3-.9-2.1.5-3.9c2.2-3.6 9.9-9.2 20.6-9.2" style="fill:#422b0d"/><radialGradient id="b" cx="37.8" cy="-408.9" r="26.4" gradientTransform="matrix(1 0 0 -1.54 0 -560.29)" gradientUnits="userSpaceOnUse"><stop offset=".5" style="stop-color:#29b6f6"/><stop offset="1" style="stop-color:#1e88e5"/></radialGradient><path d="M37 104.5c-6.5 0-11.5-6.3-11.5-11.7 0-3.8 1.7-8.2 4.1-14.3l1.1-2.8q2.1-5.5 4.8-10.6.7-1.1 1.9-.7.5.3.7.7L43 75.9c4.2 9.4 5.4 13.2 5.4 17 .1 5.3-5 11.6-11.4 11.6" style="fill:url(#b)"/><path d="M44 97.3c-1.5 2.3-4.8 1.8-4.8-2 0-2.3.5-14.7 2.6-13 3.4 2.8 4.3 11.8 2.2 15" style="fill:#81d4fa"/><path d="M30 46.7c-1.2 1.9-4.2.7-3.3-1.6A21 21 0 0 1 43 32.7a1.8 1.8 0 1 1 .7 3.5h-.1A26 26 0 0 0 30 46.7m67.3 0c1.2 1.9 4.2.7 3.3-1.6a21 21 0 0 0-16.3-12.4q-1.7-.2-2.2 1.4c-.5 1.6.5 2 1.4 2.1h.2a26 26 0 0 1 13.6 10.5m-52.6.3c-4.2 0-8 3.5-8 9.4s3.8 9.4 8 9.4 8-3.6 8-9.4-3.8-9.5-8-9.5" style="fill:#422b0d"/><path d="M44.3 50.9a3 3 0 0 0-3.8 1.3q-.8 1.8.6 3.3c1.4.7 3 0 3.8-1.3.5-1.1.3-2.5-.6-3.3" style="fill:#896024"/><path d="M83 47c-4.2 0-8 3.5-8 9.4s3.8 9.4 8 9.4 8-3.6 8-9.4-3.8-9.5-8-9.5" style="fill:#422b0d"/><path d="M82.6 50.9a3 3 0 0 0-3.8 1.3q-.7 1.8.6 3.3c1.4.7 3.1 0 3.8-1.3.6-1.1.3-2.5-.6-3.3" style="fill:#896024"/></svg>