<svg xml:space="preserve" width="16" height="16" viewBox="0 0 128 128"><radialGradient id="a" cx="63.6" cy="-2088.9" r="57" gradientTransform="matrix(1 0 0 -1 0 -2026)" gradientUnits="userSpaceOnUse"><stop offset=".5" style="stop-color:#fde030"/><stop offset=".9" style="stop-color:#f7c02b"/><stop offset="1" style="stop-color:#f4a223"/></radialGradient><path d="M63.6 118.8c-27.9 0-58-17.5-58-55.9S35.7 7 63.6 7c15.5 0 29.8 5.1 40.4 14.4 11.5 10.2 17.6 24.6 17.6 41.5s-6.1 31.2-17.6 41.4a61 61 0 0 1-40.4 14.5" style="fill:url(#a)"/><path d="M111.5 29.7a57 57 0 0 1 8.1 30.2c0 16.9-6.1 31.2-17.6 41.4a61 61 0 0 1-40.4 14.5c-18 0-37-7.3-48.2-23a58 58 0 0 0 50.2 26c15.4 0 29.8-5.2 40.4-14.5a54 54 0 0 0 17.6-41.4q-.1-19.2-10.1-33.2" style="fill:#eb8f00"/><path d="M62.7 80.4c-12.8 0-24.6-1-34.4-2.9a3.5 3.5 0 0 0-4.1 4.2c3.2 16 19 29.2 38.5 29.2 21.2 0 35.6-13.6 38.5-29.3a3.5 3.5 0 0 0-4.1-4c-9.9 1.8-21.7 2.8-34.4 2.8" style="fill:#422b0d"/><path d="M89.6 57.3q-.5-1-1.3-2-.9-.8-2.1-1.4l-2.2-1v-8.4l.4.2q.8.4 1.3 1a5 5 0 0 1 1 2.4q.2 1.2 1.4 1.3 1.6-.2 1.6-1.8a7 7 0 0 0-1.4-3.5q-1.5-2-4.3-2.4v-2.2q-.1-1.3-1.5-1.4-1.3.1-1.4 1.4v2.3q-1.2.1-2.1.6a6 6 0 0 0-3 3.3q-.6 1.2-.5 2.5 0 1.5.5 2.6t1.4 2 2 1.6l1.7.6v8.7a4 4 0 0 1-2-.9 4 4 0 0 1-1.3-2.5q-.4-1.2-1.5-1.3h-.1c-1 0-1.6.9-1.5 1.7a7 7 0 0 0 1.9 3.8q1 .9 2 1.3l2.4.6v1.8q.2 1.3 1.5 1.4 1.3-.1 1.4-1.4v-1.8q1.4-.2 2.4-.6l2-1.3q.8-.9 1.3-2a7 7 0 0 0 .4-2.6q0-1.5-.4-2.6zm-10-6.4a3 3 0 0 1-1-2.7q0-1.8 1-2.8.6-.6 1.5-.9v7.3q-.8-.4-1.4-1zm7 10.7q-.3.7-.9 1.2l-1.5.8H84v-7.5l1.8 1.2Q87 58.4 87 60z" style="fill:#422b0d;stroke:#422b0d;stroke-width:.5;stroke-miterlimit:10"/><path d="M44.5 87.8v21.1c0 9.5 7.7 17.2 17.3 17.2H65c9.5 0 17.2-7.7 17.2-17.2V87.6a93 93 0 0 1-37.7.2M62.7 85q-9.3 0-18.2-.7v3.5a93 93 0 0 0 37.7-.2v-3.4q-9.4.8-19.5.8" style="fill:#05e005"/><path d="M62.7 85q-9.3 0-18.2-.7v3.5a93 93 0 0 0 37.7-.2v-3.4q-9.4.8-19.5.8" style="opacity:.3;fill:#ab3f2e"/><path d="M71 108.3q-.5-1.2-1.4-2t-2-1.5l-2.3-.9v-8.4q.3 0 .5.2.8.3 1.3 1a5 5 0 0 1 1 2.4q.2 1.2 1.4 1.3c1 0 1.7-.9 1.6-1.8a8 8 0 0 0-1.4-3.6q-1.5-1.9-4.4-2.3v-2.2Q65.2 89 64 89q-1.3.2-1.5 1.5v2.3q-1 0-2 .6a6 6 0 0 0-3 3.3q-.6 1.1-.5 2.5 0 1.5.5 2.6t1.3 2 2.2 1.5l1.5.7v8.7a4 4 0 0 1-1.9-1 4 4 0 0 1-1.4-2.4q-.3-1.2-1.4-1.3h-.2q-1.5.2-1.4 1.7a7 7 0 0 0 1.9 3.8q1 .8 2 1.3l2.4.6v1.7q.1 1.3 1.5 1.5 1.3-.2 1.4-1.5v-1.8q1.3 0 2.3-.6 1.2-.4 2-1.3t1.4-2a7 7 0 0 0 .4-2.5q0-1.5-.4-2.6m-10-6.5a3 3 0 0 1-1-2.7q0-1.6 1-2.8.6-.5 1.4-.8v7.2q-.8-.4-1.3-.9m7 10.7q-.3.8-1 1.3l-1.4.7-.3.1v-7.5l2 1.2q1 1 1 2.6 0 .9-.3 1.6" style="fill:#404040"/><path d="M29.8 32.8c-1.7 1.4-4.2-.6-2.6-2.6q1.8-2.2 4.4-3.8a21 21 0 0 1 15-3c2.5.6 1.7 3.7-.5 3.7-5.7 0-11.6 1.8-16.3 5.7m67.7 0c1.7 1.4 4.2-.6 2.6-2.6a21 21 0 0 0-19.5-6.7c-2.4.5-1.6 3.6.6 3.6 5.7 0 11.6 1.8 16.3 5.7" style="fill:#422b0d"/><path d="M50.7 57.3q-.5-1-1.3-2-.9-.8-2.1-1.4l-2.2-1v-8.4l.4.2q.8.4 1.3 1a5 5 0 0 1 1 2.4q.2 1.2 1.4 1.3 1.6-.2 1.6-1.8a8 8 0 0 0-1.4-3.5q-1.6-2-4.3-2.4v-2.2q-.2-1.3-1.5-1.4-1.3.1-1.4 1.4v2.3q-1.2.1-2 .6a6 6 0 0 0-3.2 3.3q-.4 1.2-.4 2.5 0 1.5.5 2.6t1.4 2 2.1 1.6l1.6.6v8.7a4 4 0 0 1-2-.9 4 4 0 0 1-1.3-2.5q-.4-1.2-1.5-1.3h-.1c-1 0-1.6.9-1.5 1.7a7 7 0 0 0 1.9 3.8q1 .9 2 1.3l2.4.6v1.8q.2 1.3 1.5 1.4 1.3-.1 1.4-1.4v-1.8q1.4-.2 2.4-.6l2-1.3q.8-.9 1.3-2a7 7 0 0 0 .4-2.6q0-1.5-.4-2.6zm-10-6.4a3 3 0 0 1-1-2.7q0-1.8 1-2.8.6-.6 1.5-.9v7.3q-.9-.4-1.4-1zm7 10.7q-.3.7-.9 1.2l-1.4.8H45v-7.5l1.9 1.2q1 1.1 1 2.6z" style="fill:#422b0d;stroke:#422b0d;stroke-width:.5;stroke-miterlimit:10"/></svg>