<svg xml:space="preserve" width="16" height="16" viewBox="0 0 128 128"><path d="M111.3 69h6.4q1 0 1.6-.9 1.1-1.3 1.3-5.8c0-3.2-.8-5.2-1.4-6.3a2 2 0 0 0-1.6-1h-6.3c-1 0-2 .9-2 2v10c0 1.1 1 2 2 2" style="fill:#b0bec5"/><path d="M111.3 69h6.4q1 0 1.6-.9 1.1-1.3 1.3-5.8c0-3.2-.8-5.2-1.4-6.3a2 2 0 0 0-1.6-1h-6.3c-1 0-2 .9-2 2v10c0 1.1 1 2 2 2" style="fill:#90a4ae"/><path d="M106.9 69h4q.7 0 1-.9.6-1.3.8-5.8a20 20 0 0 0-.9-6.3q-.3-1-1-1h-4q-1 .2-1.2 2v10q.1 1.8 1.3 2" style="fill:#607d8b"/><path d="M97.4 25.3c-1.4-6-5.8-8.5-8.7-8.5H39.3c-2.9 0-7.3 2.4-8.7 8.5-1.2 5.1-1.9 11-1.9 11L64 35.1l35.3 1.2s-.7-5.9-2-11" style="fill:#78909c"/><path d="M89.6 4H38.2l-3.7 15.3a6 6 0 0 0 5.7 7.5h47.5a6 6 0 0 0 5.7-7.6z" style="fill:#a06841"/><path d="M30.6 102.8c1.4 6 5.8 8.4 8.7 8.4h49.4c2.9 0 7.3-2.4 8.7-8.4 1.2-5.2 1.9-11 1.9-11l-35.3 1-35.3-1.2s.7 6 1.9 11" style="fill:#78909c"/><path d="M38.4 124h51.4l3.7-15.2a6 6 0 0 0-5.7-7.6H40.3a6 6 0 0 0-5.7 7.6z" style="fill:#a06841"/><path d="M87.8 101.2H40.3a6 6 0 0 0-5.7 7.6L36 114c3.6-6.4 19.9 1 29.6-.1 12-1.3 17.3-5 21.9-2.4 1.5.9 2.8 2.2 4.6 2.3h.3l1.2-5a6 6 0 0 0-5.7-7.6M40.3 26.9h47.5a6 6 0 0 0 5.7-7.7L92.2 14c-3.6 6.4-20-.9-29.6.2-12 1.2-17.4 5-22 2.3-1.4-.9-2.8-2.2-4.5-2.3h-.3l-1.2 5a6 6 0 0 0 5.7 7.7" style="fill:#784d30"/><circle cx="64" cy="64" r="47.3" style="fill:#b0bec5"/><circle cx="64.2" cy="64" r="37.9" style="fill:#fff3e0"/><path d="M53.2 25.5c-5 1.4-12.1 3.7-19.7 12.7s-9 19.4-9.5 26.6c0 0-4.3 5.4-4.6 4.4a48 48 0 0 1 10.3-34.7c10-10.7 23-14.6 27.8-15.3.8-.1-2.8 5.8-4.3 6.3" style="opacity:.64;fill:#eceff1"/><circle cx="64" cy="64" r="35.9" style="fill:#fff"/><circle cx="64.3" cy="64" r="4" style="fill:#563428"/><path d="M64 37q-1.2-.1-1.3-1.4v-3.9q.1-1.2 1.3-1.3 1.2.1 1.3 1.3v4q-.1 1.2-1.3 1.3m0 60.6q-1.2-.1-1.3-1.3v-4q.1-1.2 1.3-1.3 1.2.1 1.3 1.3v4q-.1 1.2-1.3 1.3m32.3-32.3h-4q-1.2-.1-1.3-1.3.1-1.2 1.3-1.3h4q1.2.1 1.3 1.3-.1 1.2-1.3 1.3m-60.6 0h-4q-1.2-.1-1.3-1.3.1-1.2 1.3-1.3h4q1.2.1 1.3 1.3-.1 1.2-1.4 1.3M64 37q-1.2-.1-1.3-1.4v-3.9q.1-1.2 1.3-1.3 1.2.1 1.3 1.3v4q-.1 1.2-1.3 1.3m0 60.6q-1.2-.1-1.3-1.3v-4q.1-1.2 1.3-1.3 1.2.1 1.3 1.3v4q-.1 1.2-1.3 1.3M48.7 40.1l-2-3.4c-.4-.6-.1-1.5.5-1.8q1-.6 1.8.5l2 3.4q.4 1-.5 1.8c-.6.4-1.5.1-1.8-.5M79 92.6l-2-3.4q-.4-1 .5-1.8c.6-.4 1.5-.1 1.8.5l2 3.4c.3.6.1 1.5-.5 1.8q-1 .6-1.8-.5M48.7 40.1l-2-3.4c-.4-.6-.1-1.5.5-1.8q1-.6 1.8.5l2 3.4q.4 1-.5 1.8c-.6.4-1.5.1-1.8-.5M79 92.6l-2-3.4q-.4-1 .5-1.8c.6-.4 1.5-.1 1.8.5l2 3.4c.3.6.1 1.5-.5 1.8q-1 .6-1.8-.5M38.8 51l-3.4-2q-1-.7-.5-1.8.8-1 1.8-.5l3.4 2q1 .8.5 1.8-.7 1-1.8.5m52.5 30.3-3.4-2q-1-.6-.5-1.8.8-1 1.8-.5l3.4 2q1 .8.5 1.8-.7 1-1.8.5M77.5 40.6q-1-.7-.5-1.8l2-3.4q.8-1 1.8-.5 1 .8.5 1.8l-2 3.4c-.3.6-1.2.9-1.8.5M47.2 93.1c-.6-.3-.9-1.2-.5-1.8l2-3.4q.6-1 1.8-.5 1 .8.5 1.8l-2 3.4q-.7 1-1.8.5m40.2-42.6q-.5-1.2.5-1.8l3.4-2q1-.5 1.8.5.6 1-.5 1.8l-3.4 2q-1 .4-1.8-.5M34.9 80.8q-.6-1 .5-1.8l3.4-2q1-.4 1.8.5.4 1.2-.5 1.8l-3.4 2c-.6.4-1.5.1-1.8-.5" style="fill:#b2947c"/><path d="M49.5 55.7 64 64" style="fill:none;stroke:#563428;stroke-width:4.4863;stroke-linecap:round;stroke-miterlimit:10"/><path d="M84.8 52.1 64.7 64" style="fill:none;stroke:#563428;stroke-width:3.1404;stroke-linecap:round;stroke-miterlimit:10"/><path d="M47 12c6.8.1 13.6-.9 20.3-.5l2.9-.1q1.5-.2 2.4-1.4c.6-.8.6-2 0-2.7a3 3 0 0 0-1.5-.7c-2.8-.9-5.8-.6-8.7-.4q-7.5.4-14.8.1c-1.8 0-4.4-.8-6 .3-1.2.7-1.8 2.2-1 3.4 1.2 1.9 4.5 2 6.5 2" style="fill:#b7855f"/><path d="M113.9 60.4c-.4 0-.7-1 .2-1.3a16 16 0 0 1 4.9 0c.6.1.8 1.4-.4 1.5-1 0-4.3 0-4.7-.2m-.1-2.7c-.8 0-1.8-1.7-.4-1.8h4.6c1.1.1 1.3 1.8.1 1.8z" style="opacity:.75;fill:#fff3e0"/></svg>