<svg xml:space="preserve" width="16" height="16" viewBox="0 0 128 128"><linearGradient id="a" x1="64" x2="64" y1="101.2" y2="29.7" gradientUnits="userSpaceOnUse"><stop offset=".5" style="stop-color:#504f4f"/><stop offset="1" style="stop-color:#757575"/></linearGradient><path d="M88.2 69.8q0 16-6 24-6 8.2-18.1 8.2-12 0-18-8-6.2-7.8-6.3-23.3V57.9q0-15.9 6-24Q51.8 26 64 26q12 0 18 7.8c6 7.8 6.1 13 6.2 23.2zM75.9 56q0-10.5-2.9-15.2-2.9-5-9-4.9t-9 4.6A29 29 0 0 0 52 55v16.7q0 10.4 3 15.5c3 5 5 5 9 5q6 0 8.9-4.6 2.7-4.7 3-14.7z" style="fill:url(#a)"/></svg>