<svg xml:space="preserve" width="16" height="16" viewBox="0 0 128 128"><path d="m68.6 59.3-9.2-1.5s-.5 39-.1 43.6c0 0 2.4 14 3 21q.2 1.5 1.7 1.6 1.4-.1 1.6-1.5l3-21.1z" style="fill:#82aec0"/><path d="M68.6 59.8V67c0 1.5-1.3 3.9-4.7 3.9s-4.6-2.3-4.6-3.8v-7.4z" style="fill:#2f7889"/><path d="M35.7 32.4v1.4a28.7 28.7 0 0 0 28.4 27q1.2 0 2.3-.2c14-1.3 25-12.5 25.9-26.8v-1.5a28.2 28.2 0 1 0-56.6 0" style="fill:#f44336"/><path d="M67 8.8c2.6 2.6 2 5.6.5 8.3-1.6 3-5.4 4.4-11 12.5-4.2 6-13.1 3.2-14.4-1.5-1-3.7-.1-7.6 1.8-10.8 7.6-12 20.4-11.1 23-8.5" style="fill:#ff7555"/></svg>