<svg xml:space="preserve" width="16" height="16" viewBox="0 0 128 128"><path d="M116 4H12a8 8 0 0 0-8 8v104a8 8 0 0 0 8 8h104a8 8 0 0 0 8-8V12a8 8 0 0 0-8-8" style="fill:#f77e00"/><path d="M109.7 4H11.5A7.6 7.6 0 0 0 4 11.5v97.9c0 4.1 3.3 7.5 7.5 7.5h98.1c4.1 0 7.5-3.3 7.5-7.5V11.5c0-4-3.1-7.4-7.2-7.5z" style="fill:#ff9800"/><path d="M39.7 12.9c0-2.3-1.6-3-10.8-2.7-7.7.3-11.5 1.2-13.8 4-1.9 2.3-2.3 5.6-2.6 8.4-.2 2.2-2.2 14.9 3.5 11.2q1-.6 1.6-1.8c1.2-2.1 1.9-3.5 3.3-5.6 5.3-8.6 18.8-10.5 18.8-13.5" style="opacity:.3;fill:#fff"/><path d="M61.4 69.3c-13.6 0-21 8.5-23.1 11.3q-.6.9 0 1.7l3.8 4.8q1 .9 1.9 0c2-2.8 8-9.2 17.4-9.2s15.2 6.4 17.3 9.2c.5.6 1.4.7 1.9 0l3.8-4.8q.6-.8 0-1.7c-2-2.7-9.5-11.3-23-11.3m0-20.5c-14.1 0-26.7 6-35.7 15.7q-.7.8 0 1.7l3.6 4.6c.4.6 1.3.7 1.8.1a41 41 0 0 1 30.3-13.5c12 0 22.8 5.2 30.3 13.5q1 .8 1.7 0l3.7-4.7q.6-.9 0-1.7a48 48 0 0 0-35.7-15.7m0-19.8A70 70 0 0 0 13 48.4q-.7.9 0 1.9l3.5 4.5q.9.9 1.7.1a62 62 0 0 1 86 0q1 .8 1.8 0l3.6-4.6q.6-1-.1-1.9A70 70 0 0 0 61.4 29" style="fill:#fafafa"/><circle cx="61.4" cy="96.9" r="8.8" style="fill:#fafafa"/></svg>