<svg xml:space="preserve" width="16" height="16" viewBox="0 0 128 128"><path d="m92.8 99.2 24.5 25s3.5.9 5.7-1.5c2-2.3 1.8-4.7 1.8-4.7L94.7 86.4z" style="fill:#f3c975"/><path d="M69 67c-8.8 8.6-13.8 21.5-4 33.2 8.8 10.6 26 6.6 33.8-1.8s12-19.7 3-30.8C92.3 56 77 59.4 69 67" style="fill:#919f50"/><path d="M71.9 94.4c3.1-1.3 1.6-5.3 1-8.9-.4-3.6 0-6.8-2.6-6.7-2.7.2-4.7 2.8-4.3 8.4.3 4.6 3.5 8.3 5.9 7.2" style="fill:#fffffe"/><path d="M41.3 38.6c-8 7.3-14.4 21-5 32.6C47.7 85 62.7 81.3 73 70.9s8-24.8-1.1-33-22.5-6.6-30.6.7" style="fill:#ffebcc"/><path d="M42 50c-3.8.7-4.4 5.8-4 9 .4 3 2 6.9 5.6 6.9s1.7-3.9 1.3-8.4 1.3-8.3-2.8-7.5" style="fill:#fffffe"/><path d="M44.8 44.3c5.9-6.5 13.2-20 .9-32-12-11.7-26-5-33.2 2-7 6.9-11.2 22.5-.7 32.1s25.9 5.7 33-2" style="fill:#ffa8a7"/><path d="M14.9 21.7c-3.8.7-4.7 4.8-4.5 8.3.4 3.7 3 6.8 5.7 6.4 3.4-.6 1.7-3.5 1.4-8.3-.3-3.8 1-7-2.6-6.4" style="fill:#fff"/><path d="M4 4.3c-1.5 1.2 7 13.3 7 13.3s2.6-.4 4.3-2 2.2-4.6 2.2-4.6S6 2.8 4.1 4.3" style="fill:#f8c972"/></svg>