<svg xml:space="preserve" width="16" height="16" viewBox="0 0 128 128"><radialGradient id="a" cx="63.9" cy="74.9" r="64.9" gradientTransform="matrix(1 0 0 1.084 0 -6.29)" gradientUnits="userSpaceOnUse"><stop offset=".4" style="stop-color:#e1e7ea"/><stop offset="1" style="stop-color:#d6e1e6"/></radialGradient><path d="M111.8 67.6c.6-3.4 3-15.6.8-27.5a46 46 0 0 0-11.4-22.5C91 7.9 76.7 4 63.7 4S37 8 26.9 17.6c-5.3 5-10 15-11.4 22.5-2.2 12 .2 24 .7 27.5.8 4.6-1.2 9.8-1.6 14.4-.5 5 2 9 6.2 11.7 3.5 2.3 7.7 3.5 11.5 5.3 4.6 2.2.4 9.9 2.1 13.7q1.6 2.9 4.6 4.3c2.5 1.2 5.3 2 8 1.3-.5.1.7 2.4 2.2 3.4q2.3 1.4 4.8 2c3.2.8 6.3-.4 8.3-1.4q1.8-.9 3.4 0c2 1 5.2 2.2 8.4 1.5q3.7-1 6-3.8 1.3-1.5 3-1.3c3.4.2 8.6-1.2 10.8-6.3 1.2-2.8 0-6 .8-9 1.4-5 6.3-6.3 10.3-8.6 5.2-3 8.3-6.5 8.5-11.4.1-5.2-2.4-11.8-1.7-15.8" style="fill:url(#a)"/><ellipse cx="39.8" cy="64.2" rx="13.7" ry="12.5" style="fill:#424242" transform="rotate(-75 39.83 64.15)"/><ellipse cx="88.2" cy="64.2" rx="12.5" ry="13.7" style="fill:#424242" transform="rotate(-15 88.2 64.15)"/><path d="M56 86.7c0-4.4 3.6-15.4 8-15.4s8 11 8 15.4c0 9-8 2.9-8 2.9s-8 6.6-8-2.9" style="fill:#424242"/><path d="M42.6 118.4a8 8 0 0 1-3.3-1.3q1.3-.2 2.5-.8c1.9-1 1.8-2.5 2.3-4.5l1.1-5c.3-1.1 1-2.2 2.2-2q2 .4 1.3 2.7l-2 11c0 .4-2.9.1-3.2 0zm43.4 0a8 8 0 0 0 3.4-1.3q-1.2-.2-2.5-.8c-2-1-1.9-2.5-2.3-4.5l-1.2-5c-.2-1.1-1-2.2-2.1-2-1.5.2-1.6 1.2-1.4 2.7l2 11c0 .4 3 .1 3.2 0zm-26.5 5.1s2.2-3.1 2.3-5.2l.4-11.7q0-1.8 1.8-2 1.9 0 1.9 1.9l.2 11.6c0 2.1 2.5 5.3 2.5 5.3-1-.4-2.8-1.3-4.6-1.2-2.3.1-4.5 1.3-4.5 1.3" style="fill:#8abfd1"/></svg>