<svg xmlns:xlink="http://www.w3.org/1999/xlink" xml:space="preserve" width="16" height="16" viewBox="0 0 128 128"><path d="M93.3 60c.2.3.7.1.7-.2.6-5.4 2.2-20.3 12.8-23.5 3.4-1 6.8 1.4 7.2 4.5.7 5-5 17.9-4.5 29.7.1 1.9 3.3 22-5.2 33.9s-28.7 24-48.8 5.6c-10.4-9.5-10.4-13.3-23.3-26.6-2.6-2.6-13-14-15.8-17.5-3.7-4.7 2.2-10.9 6.7-7.7A920 920 0 0 1 44.5 76c1.4 1.2 3.1-.5 2.1-1.7-11.4-15-22.4-28.5-25.4-33.7s4.2-10.8 8.4-6.3c2.9 3 24.4 28.1 25.4 29.2s2.7-.3 2.1-1.7S39 30.2 35.9 23.3c-2.7-6.1 6.3-11.8 10.5-5.5 3.4 5 22.4 36.6 23.1 37.7.9 1.6 2.9.6 2.1-1.2C71 53 59.3 21 58.4 17.7c-1.6-5.8 6.7-10.6 10.6-4 5.3 9.1 15.8 36.9 24.3 46.3" style="fill:#ba8d68"/><defs><path id="a" d="M93.3 60c.2.3.7.1.7-.2.6-5.4 2.2-20.3 12.8-23.5 3.4-1 6.8 1.4 7.2 4.5.7 5-5 17.9-4.5 29.7.1 1.9 3.3 22-5.2 33.9s-28.7 24-48.8 5.6c-10.4-9.5-10.4-13.3-23.3-26.6-2.6-2.6-13-14-15.8-17.5-3.7-4.7 2.2-10.9 6.7-7.7A920 920 0 0 1 44.5 76c1.4 1.2 3.1-.5 2.1-1.7-11.4-15-22.4-28.5-25.4-33.7s4.2-10.8 8.4-6.3c2.9 3 24.4 28.1 25.4 29.2s2.7-.3 2.1-1.7S39 30.2 35.9 23.3c-2.7-6.1 6.3-11.8 10.5-5.5 3.4 5 22.4 36.6 23.1 37.7.9 1.6 2.9.6 2.1-1.2C71 53 59.3 21 58.4 17.7c-1.6-5.8 6.7-10.6 10.6-4 5.3 9.1 15.8 36.9 24.3 46.3"/></defs><clipPath id="b"><use xlink:href="#a" style="overflow:visible"/></clipPath><g style="clip-path:url(#b)"><path d="M91.2 60.2c-12.4 10.1-17.9 24.5-7.7 39.5.9 1.3 2.8.1 2-1.4-4.2-7.5-7.3-21 7.2-35.1 1.7.8 3.7-.9 3.8-2.4 1.1-9.4 2.2-17.2 9.2-21.6 2.7-1.7 6.2-.5 6.4 3.6l3.1.3 1.5-6-11.8-4.5-10.3 10.2zm-20-4.1c1.4-.7 2.6-1.8 2-3.3L60.8 18.7c-1.4-4.2 2.1-7.5 5.2-6.1 1.7.8 2.5-1.9 1.6-2.3s-3-2.3-7.2-.2c-7.5 3.8-3.1 12.2-1.1 17.1zm-14.5 7.5c1.7-1.2 3-2.2 1.5-4.6L38.6 23.7c-2.5-4.3 2.7-8.1 5.6-5.4 1.3 1.2 3.3-1.4 2.3-2.4s-4.5-3.9-8.9-1-4.5 6.4-3.9 7.9c.5 1.5 23 40.8 23 40.8m-10 12.3c1.2-1.8 2-2.7.3-5L24 40.7c-2.8-3.7 1.3-6.9 3.3-5.8s3-2 1.4-2.8-4.2-1.7-6.6 0-3.8 5.2-3.4 7.2 28 36.6 28 36.6m46.1 37.7a30 30 0 0 1-36.1-5.9C47.8 99 43.6 91 37.7 85.6A381 381 0 0 1 18 64c-1.5-2.4 1.5-6.5 4.8-4.2 2.1 1.4 3.1-1.6 1.7-2.4s-4.5-2.5-7.8 0c-3.3 2.4-3.4 6.7-2.6 8.1s49.4 57.2 49.4 57.2l19.8-.5 10.6-6.5z" style="fill:#9a6648"/></g><defs><path id="c" d="M93.3 60c.2.3.7.1.7-.2.6-5.4 2.2-20.3 12.8-23.5 3.4-1 6.8 1.4 7.2 4.5.7 5-5 17.9-4.5 29.7.1 1.9 3.3 22-5.2 33.9s-28.7 24-48.8 5.6c-10.4-9.5-10.4-13.3-23.3-26.6-2.6-2.6-13-14-15.8-17.5-3.7-4.7 2.2-10.9 6.7-7.7A920 920 0 0 1 44.5 76c1.4 1.2 3.1-.5 2.1-1.7-11.4-15-22.4-28.5-25.4-33.7s4.2-10.8 8.4-6.3c2.9 3 24.4 28.1 25.4 29.2s2.7-.3 2.1-1.7S39 30.2 35.9 23.3c-2.7-6.1 6.3-11.8 10.5-5.5 3.4 5 22.4 36.6 23.1 37.7.9 1.6 2.9.6 2.1-1.2C71 53 59.3 21 58.4 17.7c-1.6-5.8 6.7-10.6 10.6-4 5.3 9.1 15.8 36.9 24.3 46.3"/></defs><clipPath id="d"><use xlink:href="#c" style="overflow:visible"/></clipPath><g style="clip-path:url(#d)"><path d="M111.5 36a12 12 0 0 1 .5 6.7c-2.3 11.6-6.1 18.4-4.9 30.9 2.2 24-6.2 42.2-35.1 45.8-2.9.4-2.1 2.6-.6 2.4l21.3-3.8s19.1-16.3 19.1-16.5l4.8-62.4zm-50-25.5c1.3.2 4.1 1.3 6.1 5.2s11.8 26.4 13.1 28.8 6.6 14.3 10.9 17.9c1.4 1.1 2.1-.8 2.1-.8l.1-3.1L70.6 5.7l-7.7.3zm9.7 45.6c-1.9.9-3.3 1.7-4.7-.5C65.6 54 55.9 37.4 43.7 18c-1-1.5-3.3-2.8-5.1-2.1-1.8.8-2.2-1.5-1.3-2s6.5-3.6 10.3 2.8zm-14.5 7.5c-1.5 1.1-3 2.5-4.9.2L28.3 35.7c-1.2-1.5-3.7-2.8-5.6-1.6-1.3.8-2.5-1.6-1.7-2.2s5.3-4.6 8.3-1.2 27.4 32.9 27.4 32.9m-10 12.3c-1.3 1.4-2.7 2.2-4.6.8S23.2 61 22.1 60s-4.3-2.5-6.7-.1c-.9.9-2.5-.6-1.6-1.5s5.8-6 9.7-2.7z" style="fill:#62392b"/></g><path d="M10.6 81.3a36 36 0 0 0 15.5 20.1c1.4 1 .6 3-1 2.3A27 27 0 0 1 8 81.7c-.3-1.7 2.1-2 2.6-.4m6-5.5a36 36 0 0 0 15.5 20.1c1.4 1 .6 3-1 2.3a27 27 0 0 1-17.1-22c-.2-1.7 2.1-2 2.6-.4m76.9-41.2a36 36 0 0 0-14.1-21c-1.4-1-.4-3 1.2-2.3 7 3.3 14.6 10.3 15.6 23.1.1 1.7-2.3 1.9-2.7.2m6.5-4.8a36 36 0 0 0-14.1-21c-1.4-1-.4-3 1.2-2.3 7 3.3 14.6 10.3 15.6 23.1.1 1.6-2.2 1.8-2.7.2" style="fill:#b0bec5"/></svg>