<svg xml:space="preserve" width="16" height="16" viewBox="0 0 128 128"><path d="M98.7 78.2c-1.3-2.4.1-4.9 2.7-7.9 4-4.8 8-15.6 3.2-26.3l-1-2H102a3049 3049 0 0 0-76 0l-2.6 2a26 26 0 0 0 3.2 26.3c2.6 3 4 5.5 2.7 8-1.3 2.3-5 2.7-5 2.7s.8 2.4 2.7 3.8c1.8 1.2 4.1 1.5 5.7 1.5 0 0 5.9 9.5 22.2 9.5h18.2c16.3 0 22.2-9.5 22.2-9.5 1.6 0 3.9-.3 5.7-1.5 2-1.4 2.6-3.8 2.6-3.8s-3.6-.4-4.9-2.8" style="fill:#ab872f"/><radialGradient id="a" cx="99.6" cy="47.3" r="24.7" gradientTransform="matrix(1 0 0 .491 -20.91 57.45)" gradientUnits="userSpaceOnUse"><stop offset=".7" style="stop-color:#bfa055;stop-opacity:0"/><stop offset="1" style="stop-color:#bfa055"/></radialGradient><path d="M64 95.8V85.3l28.6-2.5 2.7 3.5s-5.9 9.5-22.2 9.5z" style="fill:url(#a)"/><radialGradient id="b" cx="76.7" cy="51" r="7.2" gradientTransform="rotate(155 84.75 60.19)scale(1 .742)" gradientUnits="userSpaceOnUse"><stop offset=".7" style="stop-color:#bfa055"/><stop offset="1" style="stop-color:#bfa055;stop-opacity:0"/></radialGradient><path d="M95 81.8c-4.4-7 4.8-9.6 4.8-9.6q-2.4 3.2-1.1 6c1.3 2.4 5 2.8 5 2.8s-4.8 4.7-8.6.8" style="fill:url(#b)"/><radialGradient id="c" cx="95.4" cy="71.2" r="31.2" gradientTransform="rotate(-94.3 87.93 63.87)scale(1 .833)" gradientUnits="userSpaceOnUse"><stop offset=".7" style="stop-color:#bfa055;stop-opacity:0"/><stop offset="1" style="stop-color:#bfa055"/></radialGradient><path d="M104.6 44c4.6 10.3.9 21.3-3 26-.5.7-2.8 3.2-3.3 5.3 0 0-9.9-14-12.9-22q-.9-2.4-1.2-5-.2-2 .7-3.7c.8-1.3 19.2-1.7 19.2-1.7z" style="fill:url(#c)"/><radialGradient id="d" cx="45.2" cy="71.2" r="31.2" gradientTransform="rotate(94.3 1.18 99.98)scale(-1 .833)" gradientUnits="userSpaceOnUse"><stop offset=".7" style="stop-color:#bfa055;stop-opacity:0"/><stop offset="1" style="stop-color:#bfa055"/></radialGradient><path d="M23.4 44a27 27 0 0 0 3 26c.5.7 2.8 3.2 3.3 5.3 0 0 9.9-14 12.9-22q1-2.4 1.2-5 .3-2-.7-3.7c-.8-1.3-1.8-1-3.2-1-2.8 0-14.8-.7-15.7-.7z" style="fill:url(#d)"/><radialGradient id="e" cx="49.4" cy="47.3" r="24.7" gradientTransform="matrix(-1 0 0 .491 98.74 57.45)" gradientUnits="userSpaceOnUse"><stop offset=".7" style="stop-color:#bfa055;stop-opacity:0"/><stop offset="1" style="stop-color:#bfa055"/></radialGradient><path d="M64 95.8V85.3l-28.6-2.5-2.7 3.5s5.9 9.5 22.2 9.5z" style="fill:url(#e)"/><radialGradient id="f" cx="26.5" cy="51" r="7.2" gradientTransform="rotate(205 4.36 51.53)scale(-1 .742)" gradientUnits="userSpaceOnUse"><stop offset=".7" style="stop-color:#bfa055"/><stop offset="1" style="stop-color:#bfa055;stop-opacity:0"/></radialGradient><path d="M33 81.8c4.5-7-4.8-9.6-4.8-9.6 1.5 2.2 2.2 4.1 1.1 6-1.3 2.4-4.9 2.8-4.9 2.8s4.7 4.7 8.6.8" style="fill:url(#f)"/><linearGradient id="g" x1="64" x2="64" y1="31.5" y2="2.3" gradientTransform="matrix(1 0 0 -1 0 128)" gradientUnits="userSpaceOnUse"><stop offset="0" style="stop-color:#3b78e7"/><stop offset=".2" style="stop-color:#386eda"/><stop offset=".6" style="stop-color:#3052b8"/><stop offset="1" style="stop-color:#283593"/></linearGradient><path d="M64.1 96c-25.6 0-52 7.1-52 25v3h104v-3c0-16.9-26.1-25-51.9-25" style="fill:url(#g)"/><path d="M76.3 106.3s6.9.6 13.9 2.7c13 4 16.9-2.9 16.9-2.9s-14.3-9.3-32.2-9.4c0 0-1.2 8.8 1.4 9.6m-55.7-.3s4 7 17 3c7-2.1 13.8-2.7 13.8-2.7 2.7-.8 1.5-9.6 1.5-9.6a67 67 0 0 0-32.3 9.3" style="fill:#283593"/><path d="M45.8 119.7h-11c-1.2 0-2.1-1-2.1-2.2s1-2.1 2.1-2.1h11c1.2 0 2.1 1 2.1 2.1s-1 2.2-2.1 2.2" style="fill:#e0e0e0"/><linearGradient id="h" x1="116.4" x2="106.5" y1="9.4" y2="9.4" gradientTransform="matrix(1 0 0 -1 0 128)" gradientUnits="userSpaceOnUse"><stop offset="0" style="stop-color:#666"/><stop offset=".1" style="stop-color:#606060"/><stop offset=".7" style="stop-color:#3f3f3f"/><stop offset="1" style="stop-color:#333"/></linearGradient><path d="M113.9 113.2h-5l-2.4 4.3 4.9 6.5h5c.2-7.4-2.5-10.8-2.5-10.8" style="fill:url(#h)"/><linearGradient id="i" x1="11.6" x2="21.4" y1="9.4" y2="9.4" gradientTransform="matrix(1 0 0 -1 0 128)" gradientUnits="userSpaceOnUse"><stop offset="0" style="stop-color:#666"/><stop offset=".1" style="stop-color:#606060"/><stop offset=".7" style="stop-color:#3f3f3f"/><stop offset="1" style="stop-color:#333"/></linearGradient><path d="m19 113.3-5-.1s-2.7 3.4-2.4 10.8h5l4.8-6.5z" style="fill:url(#i)"/><path d="M109.3 114h4.6q.6-.2.7-.9 0-.9-.7-.7l-5.5.1-3 5.6 4.2 5.9h1.9l-4.3-6zm2.5 2.7 3.4-.2q.5 0 .5-.5 0-.3-.5-.4l-3.9.1-1.6 2.3 4 6h1.2l-4-6zm-92.3-4.2h-5.4q-.7 0-.8.7 0 .7.8.7l4.5.1 2.2 4-4.3 6h1.8l4.2-6zm-2.8 3.2-4-.2q-.3 0-.4.5 0 .5.4.6h3.4l1 1.4-4 6h1.2l4-6z" style="fill:#bdbdbd"/><path d="m64 122 9.3-17.1H53.4z" style="fill:#212121"/><path d="M55 86v14c0 4.6 3.6 8.2 8.2 8.2h1.6c4.6 0 8.3-3.6 8.3-8.1V86z" style="fill:#c48e6a"/><path d="m47.1 97.2-8 16.2 10.9-3.3L64 122l-9.1-25.6zm26-.9-9 25.6 14.7-11.6 10.1 3.1-8-16.2z" style="fill:#3674ce"/><path d="M91.3 50.4H36.7c-6 0-10.7 5.2-10.7 11.4s4.8 11.5 10.7 11.5h54.6c6 0 10.7-5.2 10.7-11.5s-4.8-11.4-10.7-11.4" style="fill:#c48e6a"/><path d="M64 11c-17.4 0-33.5 18.7-33.5 45.5C30.5 83 47 96.3 64 96.3S97.5 83 97.5 56.5C97.5 29.7 81.4 11 64 11" style="fill:#e0bb95"/><path d="M72.4 76.1a26 26 0 0 1-16.8 0c-1.8-1-3.7.6-3 2.3s6.5 5.4 11.4 5.4 10.6-3.8 11.3-5.4-1-3.4-2.9-2.3" style="fill:#6d4c41"/><path d="M67.9 68H60q-1 .5-.6 1.7c.3.7 1.7 2.7 4.5 2.7s4.3-2 4.6-2.7q.3-1.2-.7-1.6" style="fill:#c48e6a"/><ellipse cx="47.6" cy="58.8" rx="4.9" ry="5.1" style="fill:#5d4037"/><ellipse cx="80.4" cy="58.8" rx="4.9" ry="5.1" style="fill:#5d4037"/><path d="M54.8 49.8c-1-1.2-3-3-7.2-3s-6.3 1.8-7.3 3q-.5 1 0 1.6t2 .4c1.4-.2 2.5-1.2 5.3-1.2s4.5.9 5.3 1.2q1.4.3 2-.4.4-.6-.1-1.6m32.9 0c-1-1.2-3.1-3-7.3-3s-6.3 1.8-7.2 3q-.5 1 0 1.6t1.9.4c1.5-.2 2.5-1.2 5.3-1.2s4.5.9 5.4 1.2q1.3.3 1.9-.4t0-1.6m13.5-26.5c-2.5-3.5-7.7-8-12.2-8.3-.9-4.3-5.6-8-10-9.3C67 2 59.2 6 55 8.4 54 9 48.4 12 44.5 9.8c-2.5-1.4-10.1-2.3-7.8 6a10 10 0 0 0-8.3 5A13 13 0 0 0 27 31c-2.5 2-5.7 6.5-4 12.2 1.4 4.4 7.5 6.5 7.5 6.5q-1 12.1.1 15.3.4.4.7 0c1.1-4.2 6-18.2 5.7-20.6 0 0 10.9-2.2 21.2-10q3.2-2.4 6.7-3.8c12.7-5.2 15.5 3.6 15.5 3.6s8.8-1.7 12 11c1.2 5 3.3 12.9 4.2 18.6q.2.7.7 0a47 47 0 0 0 1.5-11.1c.1-1.6 4-3.6 5.4-10.2a28 28 0 0 0-3.1-19.3" style="fill:#ab872f"/><radialGradient id="j" cx="80.4" cy="87.1" r="34.4" gradientTransform="rotate(72 7.94 -11.9)scale(1 -.742)" gradientUnits="userSpaceOnUse"><stop offset=".7" style="stop-color:#bfa055;stop-opacity:0"/><stop offset="1" style="stop-color:#bfa055"/></radialGradient><path d="M98.9 52.8c0-1.5 4-3.6 5.4-10.2l.4-2.1c.9-7.9-2-15-3.5-17.2A21 21 0 0 0 90 15l-1-.1s.3 2-.4 3.5c-1 2.1-3 2.6-3 2.6 11.5 11.3 11 21 13.3 31.7" style="fill:url(#j)"/><radialGradient id="k" cx="157.6" cy="62" r="26.3" gradientTransform="matrix(-.938 -.394 -.218 .528 229.24 48.97)" gradientUnits="userSpaceOnUse"><stop offset=".7" style="stop-color:#bfa055;stop-opacity:0"/><stop offset="1" style="stop-color:#bfa055"/></radialGradient><path d="M77.7 5.3c6.7 1.8 10 5.2 11.3 9.7.4 1.3 1.2 14-23.2-.4-8.8-5.2-6.3-8.4-5.3-8.8 4-1.4 9.8-2.4 17.2-.5" style="fill:url(#k)"/><radialGradient id="l" cx="44.2" cy="102.1" r="15.1" gradientTransform="rotate(-165 52.26 -34.8)scale(1 -.936)" gradientUnits="userSpaceOnUse"><stop offset=".7" style="stop-color:#bfa055;stop-opacity:0"/><stop offset="1" style="stop-color:#bfa055"/></radialGradient><path d="m41.1 16.4-4.4-.7-1 .1a9 9 0 0 0-7.3 5A14 14 0 0 0 27 31s2.3-2.2 7.6-2.3z" style="fill:url(#l)"/><radialGradient id="m" cx="40.5" cy="87.1" r="16.5" gradientTransform="rotate(187.8 -2.79 78.87)scale(-1 1.405)" gradientUnits="userSpaceOnUse"><stop offset=".6" style="stop-color:#bfa055;stop-opacity:0"/><stop offset="1" style="stop-color:#bfa055"/></radialGradient><path d="M26.9 31.3c-2.4 2-5.6 6.5-3.7 12.2 1.5 4.4 7.5 6.3 7.5 6.3s1.2.4 1.8.4l2.2-21.4q-4.4.1-7.4 2.1z" style="fill:url(#m)"/><linearGradient id="n" x1="64.1" x2="64.1" y1="103.7" y2="82.9" gradientTransform="matrix(1 0 0 -1 0 128)" gradientUnits="userSpaceOnUse"><stop offset="0" style="stop-color:#666"/><stop offset=".1" style="stop-color:#606060"/><stop offset=".7" style="stop-color:#3f3f3f"/><stop offset="1" style="stop-color:#333"/></linearGradient><path d="M63.8 24.2c-33.6 0-39 11.4-39 11.4s10.4 9.9 39 10c28.6-.1 39.5-10.7 39.5-10.7s-6-10.7-39.5-10.7" style="fill:url(#n)"/><linearGradient id="o" x1="64" x2="64" y1="123.6" y2="93.7" gradientTransform="matrix(1 0 0 -1 0 128)" gradientUnits="userSpaceOnUse"><stop offset="0" style="stop-color:#3b78e7"/><stop offset="0" style="stop-color:#3b77e6"/><stop offset=".3" style="stop-color:#335bc2"/><stop offset=".6" style="stop-color:#2d46a8"/><stop offset=".8" style="stop-color:#293998"/><stop offset="1" style="stop-color:#283593"/></linearGradient><path d="M20 34.5c1.7 6.2 3.3 8.8 3.3 8.8C25 41.3 35.3 32 64 32h.2c28.6 0 38.4 9.4 40.2 11.4 0 0 2-2.8 3.7-9C112 20 92.3 4 64 4 35.9 4 16 20.2 20 34.5" style="fill:url(#o)"/><path d="M100 35.6a5 5 0 0 0-1.7-2.8 56 56 0 0 0-34.2-10.1 55 55 0 0 0-34.3 10.1q-1.4 1.1-1.7 2.8-.4 2 .8 3.5a71 71 0 0 1 35-7.1h.2c18.7 0 29.4 4 35 7.3q1.3-1.5 1-3.7" style="fill:#3b78e7"/><path d="M71.3 13.2q-.4 0-.7.3Q70 15 68 15c-1.4 0-2.5-1.3-3-2a1 1 0 0 0-.9-.5 1 1 0 0 0-.8.5c-.6.7-1.6 2-3 2q-2 0-2.7-1.4l-.7-.3q-.4 0-.6.3l-.3.4q-.5.8-.2 1.6.7 1.2.7 2.6v3.5c0 2.5 4.1 7.7 7.6 7.7s7.7-5.2 7.7-7.7V18q0-1.4.6-2.6.5-.8-.1-1.6l-.3-.4z" style="fill:#fc0"/></svg>