<svg xml:space="preserve" width="16" height="16" viewBox="0 0 128 128"><path d="M4 39.4v4.4q-.1 2.3 2.5 2.4h47.7c1.4 0 2-1 2-2v-4.4l-28-2zm18.6 49.7v7.5q.1 1.4 2 1.7h11c.9 0 2-.5 2-2.1v-6.4l-9.4-6.3zM60 90.5v5.8c0 .8.1 1.9 2.1 1.9h10.3q1.7-.1 1.8-1.9v-6.5c0-.3-7.7-3.3-7.7-3.3zm24.4 1.7s1.4 4 2 4.8c.5.8 2 1 5.8 1 4 0 5-.5 5.4-1.4l1.6-4.3-6.6-7.7zm26.6-1.4v4.4c0 1 .6 2.3 2.2 2.4h9.3c1.6 0 1.8-1.1 1.8-2.3l.1-4.1-8-8z" style="fill:#464c4f"/><path d="M4 41.9c-.1-.2-.2-12.1 0-12.3s52 .2 52.3.2 0 8.3 0 10.2c0 1.4 0 1.9-2.6 2h-16l-.1 47.8c-.1 1.5-1.1 3.2-3.8 3.2h-8.3c-1.4 0-2.8-.9-2.9-3.5V42zm59.4-11.8c-1 0-3.5.1-3.4 2.8v57.7c0 1 1.2 3 4 3h6.7a4 4 0 0 0 3.5-3.4c.2-1.6.3-22.7.3-22.7l9.9 24.7c.4 1 4.5 1 7.7 1s6.7.1 7-.9l11.4-29 .5 27.5c.1.9 3.2 2.5 7.3 2.4s6.1-2 6.1-2v-58c0-2-1.6-3-3.1-3h-14.6c-.4.3-14.6 38.2-14.6 38.2S78.6 30.3 78 30z" style="fill:#616266"/><path d="M7.2 32.7c-1.2 1-1.7 5.4-.2 6s2.8 0 5.3-1.6 3.5-2.2 3.4-3.6c-.3-2-7.1-2-8.5-.8m57.6 9.2c2 0 3-2.8 4-3.9 1.2-1.1 3.8-2 3-4.6-.6-1.9-6.6-2.3-8.4.6-1.9 3-1.3 7.8 1.4 7.9m43.8-7.6c-1.7 1.8-3.6 6.8-1 7.7 2.5.9 4.1-3 5.3-3.9s3.8-2.8 2.3-4.8c-1.4-1.7-4.5-1.3-6.6 1" style="fill:#9a9a9a"/></svg>