<svg xml:space="preserve" width="16" height="16" viewBox="0 0 128 128"><path d="M13.6 58.6c-1.6 0-2.2.8-2.2 5.5 0 2.8.2 56.5.1 57.7q.2 2.3 2.9 2.1l99.8-.1c1.2 0 1.3-1 1.3-2.6l1-62c0-.9 0-1.7-1.7-1.7h-4.9c-3.3-.2-5.3-3.1-9-3.2a27 27 0 0 0-10.2 2.5L69.3 30l-.1-8.6Q68.7 17 64 17c-3.3 0-5.2 1.9-5.3 4.5l-.2 8.3-22 28.2-8.8 3.3s-5.4-2.7-9.9-2.7zM16.3 28 27 33l9.7-5s-2.2-2.6-2.1-3c0-.3 3.2-1.7 3.2-6.9 0-6.4-8.5-14.2-11-14.2s-11.2 7.5-11.2 13.9c0 4.9 3 7.2 3 7.7S16.1 28 16.1 28m74.5 0s2.6-2.7 2.6-3.1c0-1-3.5-2-3.2-8 .3-5.8 8.6-13.4 11.1-13.4 2.6 0 11 8.4 10.8 14-.1 5.4-3 7-3 7.7 0 .6 2.4 2.5 2.4 2.5s-12.7 6.6-12.7 6.4-8-6.2-8-6.2" style="fill:#875b52"/><path d="M35.8 68s27.1-34.8 28-34.8c1 0 27.5 32.5 27.5 32.5l.6 27.2-56.4-2z" style="fill:#e4c5b0"/><path d="m16.4 124-.2-96h20.5s.3 60.3.7 60.6c.4.2 52.4.4 52.7 0s.5-60.7.5-60.7l20.7-.2-.6 96z" style="fill:#b79277"/><path d="M20.1 62.9h13.4v32H19.9zm74.4-2.4h13.1v32.8H94.5zM90.7 31h20.6l-.2 26-20.5-.3zm-74.4 0h20.4l.2 26.4-20.6.2z" style="fill:#e4c5b0"/><path d="M24.5 51.6v-15h5v14.9s-4.9.2-5 .1m.1 19.4h4.9v15h-5zM99 35.4h4.9v15.3h-5zm-.2 33.3h4.7V84h-5s.5-15.2.3-15.2" style="fill:#69769c"/><path d="m38 123.9.1-22.6c.1-2.3 1.3-7 7.5-7 6 0 7 4.4 7 7.2v22.4zm19.4-.1s-.2-19.6-.1-22.3c.1-4 2.2-7.5 7.1-7.6 5.3-.1 7.6 3.5 7.7 7.1l.2 22.8zm19.4 0-.1-22.5c0-2.8 2.1-7.3 7-7.3 5.3 0 7.3 4.1 7.3 7.4v22.4z" style="fill:#865c50"/><path d="M63.4 50.3c-9 .2-17.3 6.7-17.4 18 0 10.2 8 17.4 18 17.7 11.4.2 18-8 18-18 .1-9.7-6.9-17.8-18.6-17.6" style="fill:#504644"/><path d="M65.4 84.7c-.3.5-1.3.6-1.6 0L49.3 61.5c-.7-1.3-.1-2.7.3-2.7l27.9.1c.5 0 1.5.8.6 3zM54 61.4l10.5 17.3 9.6-17.2zM49.1 76 64 52.9 78.7 76c.2.3.4 1.6-.7 1.6l-28 .3c-1.1-.2-1-1.4-.9-1.7M64 56.9l-10 17h20.2z" style="fill:#ff8c02"/><path d="M64 83.3 49.5 59.5c-.3-.4 0-1 .5-1l27.7.2q.8.2.6 1l-13 23.5q-.6.7-1.1 0M52.5 60.6l12.1 19.6 10.8-19.5zM49.2 76l14.3-24.3q.3-.4.8 0l14.3 24q.3.6-.4.7l-28.6.2a.5.5 0 0 1-.4-.7m14.3-20.4L52.7 74q-.2.6.4.7l21.6-.1q.6-.1.4-.7L64.3 55.6a.5.5 0 0 0-.8 0" style="fill:#ffd324"/></svg>