<svg xml:space="preserve" width="16" height="16" viewBox="0 0 128 128"><path d="M6.9 57.4q.7-1 1.7-.4l67.5 41.4c1 .6 1.5 1.9.8 3s-2 1.5-3 .9L4.1 64.4q-1-.6-.5-1.7z" style="fill:#d36337"/><path d="m6.8 57.4-3 5.3c-.3.3-.4 1.2 0 1.4s1.5-.2 2.8-2.4l1.7-2.9 43.8 27-2.3-3.5L8.7 57c-.6-.3-1.5-.2-1.9.4" style="fill:#f29657"/><path d="m65 93.8-13.8 7.6s2.8 8.8 12.9 8.8 13-9.4 13-9.4z" style="fill:#d36337"/><path d="m66.6 94.4 41-49-3-2.5L70 84.3l18.5-50.7-3.7-1.4L66 83.7V29h-4v54.6L43.4 32.3l-3.7 1.3L58 84.3 23.4 43l-3 2.6 41 49z" style="fill:#f29657"/><path d="M64 63.5a29 29 0 0 1 26.9 18.3l32.3-20.4A67 67 0 0 0 64 25.8 66 66 0 0 0 3.7 62.7s-.7 1 .5 1.7l32.7 17.8A29 29 0 0 1 64 63.5" style="fill:#ff0303"/><path d="m7 56.8 32 21q1.6-2.7 3.7-5l-32.3-21zm16-17.6 23 30.6q2.4-1.9 5.1-3.3l-23-30.7q-2.7 1.6-5 3.4m21.1-10.6 11 36.3q3-1 6-1.3l-11-36.5zm23.9-2.7-2 37.7q3 .1 6 1l2-38q-3-.6-6-.7m23.3 5.7L76.5 66.3q2.8 1.4 5.3 3.3l15-35.3q-2.6-1.5-5.4-2.7M110.9 45 85 72.5q2.1 2.2 3.8 4.9l26.2-28z" style="fill:#db0000"/><path d="M124.3 62.9q.4 1-.5 1.7l-69.6 37.7c-1 .6-2.3.3-3-.9s-.3-2.4.7-3L119.7 57q1-.6 1.7.4z" style="fill:#ffcc80"/><path d="m124.4 62.8-3-5.3c-.3-.4-1-1-1.3-.6-.4.2-.6 1.3.7 3.6l1.6 2.9-71 38.4q1 1.2 2.8.5l69.5-37.7c.6-.3 1-1.2.7-1.8" style="fill:#f29657"/><circle cx="64" cy="94.1" r="1.5" style="fill:#d36337"/></svg>