<svg xml:space="preserve" width="16" height="16" viewBox="0 0 128 128"><linearGradient id="a" x1="64" x2="64" y1="4.3" y2="31" gradientTransform="matrix(1 0 0 -1 0 128)" gradientUnits="userSpaceOnUse"><stop offset="0" style="stop-color:#e3e3e3"/><stop offset="1" style="stop-color:#c9c9c9"/></linearGradient><path d="M116 121v3H12v-3c0-14.7 17.6-22 38.2-24.3Q57 96 64 96t13.8.8C98.3 99.2 116 107 116 121" style="fill:url(#a)"/><path d="M77.8 96.8v7.1c0 5.5-5.7 10-12.6 10h-2.5c-7 0-12.5-4.5-12.5-10v-7.2Q57 96 64 96t13.8.8m-16.1 14.7h4.5V124h-4.5z" style="fill:#b9bbbd"/><path d="M73 90H55v10c0 4.6 3.6 8.2 8.2 8.2h1.6c4.6 0 8.3-3.6 8.3-8.1z" style="fill:#edc391"/><path d="M64 12.9c-23.2 0-40.4 23.3-40.4 44.8S40.8 94.9 64 94.9s40.3-15.7 40.3-37.2S87.2 12.9 64 12.9" style="fill:#312d2d"/><radialGradient id="b" cx="64.2" cy="64.5" r="40.7" gradientTransform="matrix(1 0 0 -1 0 128)" gradientUnits="userSpaceOnUse"><stop offset=".8" style="stop-color:#454140;stop-opacity:0"/><stop offset="1" style="stop-color:#454140"/></radialGradient><path d="M64 12.9c-23.2 0-40.4 23.3-40.4 44.8S40.8 94.9 64 94.9s40.3-15.7 40.3-37.2S87.2 12.9 64 12.9" style="fill:url(#b)"/><path d="M91.3 50.4H36.7c-6 0-10.7 5.2-10.7 11.4s4.8 11.5 10.7 11.5h54.6c6 0 10.7-5.2 10.7-11.5s-4.8-11.4-10.7-11.4" style="fill:#edc391"/><path d="M64 16c-17.2 0-33.1 12.8-33.1 40A40 40 0 0 0 56 94.8a24 24 0 0 0 7.9 1.5q3.6 0 7.8-1.5A40 40 0 0 0 97.1 56c0-27.2-15.9-40-33.1-40" style="fill:#f9ddbd"/><path d="M96 57.8c0 4.4-2 15-2 15s5.3-4.7 7.4-16.8c2.8-16.5 1.5-47.8-37.3-47.8S26 43.8 26 43.8s0 9.7 1.6 16c1.4 4.8 5.6 11.7 6.3 13-.8-6.1-1-5.7-1.2-12.1-.3-6.8.7-11.8 6.6-14 20.8-7.4 35-16.8 35-16.8 3.3 7.2 12.7 13.8 16.4 16.4 3 2.2 5.2 7 5.2 11.5" style="fill:#312d2d"/><path d="M67.8 68h-7.6q-1.1.5-.7 1.7c.4 1.2 1.7 2.6 4.5 2.6a5 5 0 0 0 4.5-2.6q.4-1.2-.7-1.7" style="fill:#dba689"/><ellipse cx="47.8" cy="58.9" rx="4.9" ry="5" style="fill:#312d2d"/><ellipse cx="80.3" cy="58.9" rx="4.9" ry="5" style="fill:#312d2d"/><path d="M55 49.8c-1-1.2-3-3-7.3-3s-6.3 1.8-7.2 3q-.5 1 0 1.6t1.9.4c1.4-.2 2.5-1.2 5.3-1.2 2.9 0 4.5.9 5.4 1.2s1.6 0 1.9-.4q.5-.6 0-1.6m32.5 0c-1-1.2-3-3-7.2-3s-6.4 1.8-7.3 3q-.5 1 0 1.6t1.9.4c1.4-.2 2.5-1.2 5.4-1.2 2.8 0 4.4.9 5.3 1.2s1.6 0 1.9-.4q.5-.6 0-1.6" style="fill:#454140"/><path d="M72.3 76.1a25 25 0 0 1-16.6 0c-1.8-1-3.6.6-2.9 2.3s6.4 5.3 11.2 5.3 10.5-3.7 11.2-5.4c.8-1.6-1-3.2-2.9-2.2" style="fill:#444"/><path d="M107.6 43.9s-6-8.4-32.8-16.7A132 132 0 0 0 24.4 22q0-.2-1 1.3s25.3-2.8 53.6 7.5c10.4 3.8 24.3 8.6 30 16.5z" style="fill:#b9bbbd"/><path d="M65 39.2c-24.6-5.1-39.8-6.4-44.6-1.9a20 20 0 0 1 3-13.9A51 51 0 0 1 64 4c10.7 0 23.6 6.2 33.3 12.7 3 2.1 5.1 3.7 7.3 6.7 8.3 11.4-.3 34.3-.3 34.3S93.6 45 64.9 39.2" style="fill:none"/><linearGradient id="c" x1="64" x2="64" y1="3.6" y2="55.3" gradientTransform="translate(0 .68)" gradientUnits="userSpaceOnUse"><stop offset="0" style="stop-color:#eee"/><stop offset=".3" style="stop-color:#e3e3e3"/><stop offset=".9" style="stop-color:#c5c5c5"/><stop offset="1" style="stop-color:#bdbdbd"/></linearGradient><path d="M60.5 40.5c24.6-4.5 39.8-7.4 47.6-3 .7-6.7-1.5-11.6-3.6-14A66 66 0 0 0 63.8 4C53.2 4 33.3 9 23.3 23.4c-8.1 11.6.3 34.3.3 34.3s8.2-11.9 37-17.2" style="fill:url(#c)"/><path d="M20.2 43.9s6-8.4 32.8-16.7c21.2-6.5 41.9-6.3 50.4-5.2q0-.2 1 1.3s-25.3-2.8-53.6 7.5c-10.4 3.8-24.3 8.6-30 16.5z" style="fill:#b9bbbd"/><path d="M108.1 36.7v.7a46 46 0 0 1-.9 9c-1.2 6.4-3 11.3-3 11.3S93.9 45.5 66.3 39.5l-1.4-.3-4.6-1-2.5-.4c-20.3-4-33-4.6-37.4-.5a20 20 0 0 1 4.5-15.7A55 55 0 0 1 52.3 5.2q4.5-1 9-1.1h1.3l1.2-.1a35 35 0 0 1 7.4.8A80 80 0 0 1 101.4 20q1.5 1.5 3.1 3.5 3 4.6 3.5 10.4z" style="fill:#c4c6c7"/><path d="m107.7 43-.5 3.4c-6.5-7.3-19.7-11.8-29.7-15.5-24.9-9-47.5-8.4-53.7-8l1-1.3c9.8-1 29.9-.8 50.3 5.6 21 6.4 29.7 13 32.6 15.8" style="fill:#b9bbbd"/><linearGradient id="d" x1="64" x2="64" y1="123.7" y2="74" gradientTransform="matrix(1 0 0 -1 0 128)" gradientUnits="userSpaceOnUse"><stop offset="0" style="stop-color:#eee"/><stop offset=".3" style="stop-color:#e3e3e3"/><stop offset=".9" style="stop-color:#c5c5c5"/><stop offset="1" style="stop-color:#bdbdbd"/></linearGradient><path d="M108.2 36.8c-6.6-3.3-38.7-.8-47.8 1.4l-.7.2c-35 10-36 18.8-36.1 19.3l-1.2-4A72 72 0 0 1 20 43a42 42 0 0 1 .8-14.4q.8-2.8 2.4-5.2a47 47 0 0 1 29-18.2q4-.8 7.9-1l1.1-.1h1.3l1.2-.1H66l5.1.8a65 65 0 0 1 14.3 4.8A58 58 0 0 1 104.2 23l.3.4a18 18 0 0 1 3.7 13.4" style="fill:url(#d)"/><path d="M104.2 23a134 134 0 0 0-53.9 8c-10 3.6-23.1 8.1-29.7 15.4l-.5-3.4c3-2.9 11.7-9.4 32.6-15.8 20.5-6.4 40.7-6.5 50.3-5.6zm4 13.8v.6a198 198 0 0 0-41.9 2 137 137 0 0 0-13 2.8 66 66 0 0 0-29.7 15.5l-1.2-4a79 79 0 0 1 35.4-16 235 235 0 0 1 50.5-4zM85.5 9.6c-8.9 0-25.4 1.7-40 7.8-7.1 3-20.8 10.4-25.4 15q.2-2 .8-3.8c2.4-2.3 9.2-7.8 23-13.1a104 104 0 0 1 38.7-7.2z" style="fill:#b9bbbd"/></svg>