<svg xml:space="preserve" width="16" height="16" viewBox="0 0 128 128"><path d="m106.2 14.3-6.5-7.9-6.5 8-6.5-8-6.5 8-6.5-8-6.5 8-6.5-8-6.5 8-6.5-8-6.4 8-6.5-8-6.5 8L21.5 6h-.7l.1 116 79.1.1c16.7 0 13.3-34.8 13.3-34.8V6.1h-.3z" style="fill:#fff"/><circle cx="65.6" cy="31.2" r="8" style="fill:#94d1e0"/><path d="M32.4 47.6h38.5m17.5 0h11.7M88.4 60.8h11.7m-40.8 0h10.6m-37.5 0H50m32.1 37.1h18m-11.7-24h11.7m-67.7 0h31.2M32.8 87h.4" style="fill:none;stroke:#82aec0;stroke-width:4;stroke-linecap:round;stroke-miterlimit:10"/><path d="M40.7 87h54.1" style="fill:none;stroke:#82aec0;stroke-width:4;stroke-linecap:round;stroke-miterlimit:10;stroke-dasharray:.751,7.5103"/><path d="M98.5 87h.5" style="fill:none;stroke:#82aec0;stroke-width:4;stroke-linecap:round;stroke-miterlimit:10"/><path d="M115.1 3h-.2c-.1 0-1.5 0-3.7 2.4l-5 6.1-6.5-7.9-6.5 8-6.5-8-6.5 8-6.5-8-6.5 8-6.5-8-6.5 8-6.5-8-6.5 8-6.5-8-6.5 8L25 7.1c-3.5-4.1-5.6-3.8-5.7-3.7H19v103l-5.3 6-5.8-7s-3.4 5 1 11.9c3.6 5.4 15.1 4.9 19.8 4.9h68c11.5 0 14.7-2.5 16.9-12.8 1.5-7.2 1.5-17.7 1.5-21.6zM70.7 105.6l-6.3 6.9-6.4-7-6.3 7-6.3-7-6.4 7-6.3-7-6.3 7-3.7-4-.1-98.2 5.7 6.8 6.5-7.9 6.4 8 6.5-8 6.5 8 6.5-8 6.5 8 6.5-8 6.5 8 6.5-8 6.5 8 6.5-8 6.5 8 5.3-6.6v77.7c0 4.1 0 14-1.4 20.4-1.6 6.7-4 9.4-9 10-1.5.1-9.2.3-16.4-13.1q-.3-.3-.4-.2l-.1-.5-7.2 7.6z" style="fill:#6fbff0"/></svg>