<svg xml:space="preserve" width="16" height="16" viewBox="0 0 128 128"><path d="M112 50.2c3.7-3.4 1.9-7.9-1.2-10 1.9-4.9.3-7.9-4-9.5q1.2-7-5.2-8.5c.6-5-1.7-7.8-6.7-7.5-.5-4.8-3.2-7-7.8-5.6q-2.8-6.7-8.7-3.9c-2.7-3.3-6-3.5-9.1-.7 0 0-1.7-2.6-5.3-2.6s-5.2 2.5-5.2 2.5q-5-4.2-9.2.8-5.8-2.8-8.7 3.9c-4.6-1.4-7.3.8-7.8 5.6-5-.3-7.3 2.5-6.7 7.5q-6.4 1.6-5 8.5-6.9 2.3-4.1 9.5c-3.2 2.1-5 6.6-1.2 10q-5.3 5.5.8 10.5-3.3 5.4 2.7 9.5-3 6 4.7 9.4c-1 2.9.5 8.4 7.1 8.6 0 0-.6 7.5 9 6.2 0 0 1.4 6 9.8 4 0 0 4.9 7 13.8 7.2 9-.2 13.8-7.1 13.8-7.1 8.5 2 9.9-4 9.9-4 9.5 1.2 9-6.3 9-6.3 6.5-.2 8.1-5.7 7-8.5q7.7-3.6 4.7-9.5 6-4 2.8-9.5 6-5 .7-10.5" style="fill:#543930"/><linearGradient id="a" x1="64" x2="64" y1="35.8" y2="8" gradientTransform="matrix(1 0 0 -1 0 130)" gradientUnits="userSpaceOnUse"><stop offset="0" style="stop-color:#651fff"/><stop offset=".7" style="stop-color:#5914f2"/><stop offset="1" style="stop-color:#530eeb"/></linearGradient><path d="M114.4 119.9v4H13.6v-4c0-12.4 12.1-19.8 28-23.2q10.7-2.2 22.4-2.2h.1q11.7 0 22.3 2.3c15.8 3.6 28 11.3 28 23" style="fill:url(#a)"/><path d="M72.9 90H55v10a8 8 0 0 0 8 8.2h1.7a8 8 0 0 0 8.1-8.1z" style="fill:#99674f"/><path d="M64 16.7c-16.8 0-32.4 11-32.4 38.1a40 40 0 0 0 24.7 38.9q4.1 1.5 7.7 1.4 3.5 0 7.7-1.4a40 40 0 0 0 24.8-38.9c0-27.1-15.7-38.1-32.5-38.1" style="fill:#ba8d68"/><path d="M55 49.8c-1-1.2-3-3-7-3s-6.3 1.8-7.2 3q-.5 1 0 1.6t1.9.4c1.4-.2 2.5-1.2 5.2-1.2s4.4.9 5.3 1.2 1.6 0 1.8-.4q.5-.6 0-1.6m32.2 0c-1-1.2-3-3-7.1-3s-6.2 1.8-7 3q-.7 1-.1 1.6.4.6 1.9.4c1.5-.2 2.4-1.2 5.2-1.2 2.7 0 4.4.9 5.2 1.2s1.6 0 1.9-.4q.5-.6 0-1.6" style="fill:#613e31"/><ellipse cx="47.9" cy="58.9" rx="4.8" ry="5" style="fill:#49362e"/><ellipse cx="80.1" cy="58.9" rx="4.8" ry="5" style="fill:#49362e"/><path d="M67.7 68h-7.4q-1 .5-.7 1.7c.3 1.2 1.7 2.6 4.4 2.6s4.1-2 4.4-2.6q.4-1.2-.7-1.7" style="fill:#99674f"/><path d="M72.1 76.1c-3 2-13.1 2-16.2 0-1.8-1-3.6.6-2.9 2.3s6.3 5.3 11 5.3 10.2-3.7 11-5.4c.7-1.6-1-3.2-2.9-2.2" style="fill:#5d4037"/><path d="M106.8 50.4c3.3-2.3 6.1-6.8-1.2-8.5 4.4-5.4 4.2-8.7-3.2-8 3-6 2-9.4-4.8-8.5 1-2.1 2.3-5.4.3-7s-6 .1-6 .1.6-5-1.3-6.3c-2-1.4-6 1-6 1s0-4-2.3-5.1c-2.4-1-4.7 2.2-4.7 2.2-1.4-5.4-6.4-5-8.6-1.6 0 0-1.7-3.4-5-3.4s-4.9 3.4-4.9 3.4c-2.2-3.5-7.3-3.8-8.7 1.6 0 0-2.3-3.3-4.7-2.2-2.3 1-2.3 5.1-2.3 5.1s-4-2.5-6-1c-2 1.3-1.4 6.3-1.4 6.3s-4-1.8-6-.1-.6 4.9.4 7c-6.8-.9-7.8 2.6-4.8 8.5-7.4-.7-7.6 2.6-3.2 8-6.6 1.2-5.5 4.8-.6 8.8-.1 0 .8 4.1 1.8 6.1A70 70 0 0 0 31 67c1.4-1.5 2.5-3.9 2.7-5.4.3-2.7-.3-5.5-.3-5.5s4.5-3.4 2.5-9.3c2.8-.4 5-2.8 5.3-5.5a9 9 0 0 0 5 1.7c2.7.1 5-1.4 6.5-3.6q1.4 1 3.2 1c3 0 5.5-2 6.4-4.8q1.9 2.4 5.1 2.5c.9 0 2.6-.4 3.3-.7 0 0 .4 3.5 5.3 4.1 4.7.6 6.8-4 6.8-4s.5 5.4 8.3 6.8c0 0-1 1.8-.2 4.5.4 1.6 3.2 3.5 3.2 3.5-3 5.6 2.7 12.3 2.7 12.3 10-5 9.8-14.2 9.8-14.2" style="fill:#543930"/><radialGradient id="b" cx="63.8" cy="46.8" r="49.8" gradientTransform="rotate(-.1 64.88 50.4)" gradientUnits="userSpaceOnUse"><stop offset=".7" style="stop-color:#6d4c41;stop-opacity:0"/><stop offset="1" style="stop-color:#6d4c41"/></radialGradient><path d="M112 50.2c3.6-3.4 1.9-7.9-1.3-10 2-5 .3-7.9-4-9.5q1.2-7-5.2-8.5c.6-5-1.7-7.8-6.7-7.4Q94 7.2 87 9q-2.8-6.6-8.8-3.8c-2.6-3.3-5.9-3.5-9-.7 0 0-1.7-2.6-5.3-2.6s-5.3 2.5-5.3 2.5c-3.1-2.8-6.5-2.5-9 .8q-6-2.8-8.8 4-7-2-7.8 5.6c-5-.4-7.3 2.5-6.7 7.5q-6.4 1.4-5 8.5-6.8 2.3-4.1 9.4c-3.1 2.2-4.9 6.7-1.2 10q-5.2 5.5.8 10.6-3.2 5.4 2.8 9.5-3 5.9 4.7 9.4c-1 2.8.5 8.3 7.2 8.5 0 0-.6 7.6 8.9 6.3 0 0 .3 1 1.2 2.1q6.5-1.4 13.6-2v-1.5A40 40 0 0 1 31.6 56v-2C31.4 26.8 47 15.7 63.9 15.7c16.5 0 31.9 10.5 32.5 36.5v2.6A40 40 0 0 1 73 93.2v1.6q7 .5 13.4 2c1-1.2 1.3-2.3 1.3-2.3 9.6 1.2 9-6.3 9-6.3 6.6-.2 8.1-5.8 7-8.6q7.7-3.4 4.7-9.4 6-4 2.7-9.5 6.2-5.1.8-10.5" style="fill:url(#b)"/></svg>