<svg xml:space="preserve" width="16" height="16" viewBox="0 0 128 128"><path d="M36 98.8A19.4 19.4 0 0 0 16.7 118v5.9h10.5v-6a8.9 8.9 0 0 1 17.7 0v6h10.5v-6c0-10.6-8.7-19.2-19.4-19.2m0-59.9a19.4 19.4 0 0 0-19.3 19.4v11.6a19.4 19.4 0 0 0 38.7 0V58.2c0-10.7-8.7-19.4-19.4-19.4m8.9 31a8.9 8.9 0 0 1-17.7 0V58.2a8.9 8.9 0 0 1 17.7 0zM36 29.2c10.7 0 19.4-8.6 19.4-19.3V4H44.9v6a8.9 8.9 0 0 1-17.7 0V4H16.7v6c0 10.6 8.7 19.2 19.3 19.2m56 39.6a19.4 19.4 0 0 0-19.4 19.3v11.7a19.4 19.4 0 0 0 38.7 0V88c0-10.6-8.7-19.3-19.3-19.3m8.8 31a8.9 8.9 0 0 1-17.7 0V88a8.9 8.9 0 0 1 17.7 0zM92 8.9a19.4 19.4 0 0 0-19.4 19.3V40a19.4 19.4 0 0 0 38.7 0V28.2C111.3 17.6 102.6 9 92 9m8.8 31a8.9 8.9 0 0 1-17.7 0V28.2a8.9 8.9 0 0 1 17.7 0z" style="fill:#84b0c1"/><path d="M36 89.2q-4.4 0-8-1.8A72 72 0 0 1 29.6 76a9 9 0 0 0 13-.4l.1.5q.3 2.2 1.3 4.3a6 6 0 0 0 3.1 3 4 4 0 0 0 2.4.2A19 19 0 0 1 36 89.2m0-60q-4.4 0-8-1.8a72 72 0 0 1 1.7-11.3 9 9 0 0 0 13-.4l.1.4q.3 2.3 1.3 4.4a6 6 0 0 0 3.1 3 4 4 0 0 0 2.4.1A19 19 0 0 1 36 29.2m12.2 13.9q-1.6.3-2.5 1.5a9 9 0 0 0-2 5.2l-.4 3.3a8.8 8.8 0 0 0-14-.6q-.7-5.9-.8-11.6v-.5A19 19 0 0 1 48.2 43M92 59.2q-4.4 0-8.1-1.8a72 72 0 0 1 1.7-11.3 9 9 0 0 0 13-.5l.2.5q.3 2.3 1.2 4.3a6 6 0 0 0 3.2 3.1 4 4 0 0 0 2.4 0A19 19 0 0 1 92 59.3m12.1-46.1q-1.5.3-2.5 1.4a9 9 0 0 0-2 5.3l-.3 3.3a8.8 8.8 0 0 0-14.1-.7q-.7-5.7-.7-11.6v-.5a19 19 0 0 1 19.6 2.8M92 119.1q-4.4 0-8.1-1.8a72 72 0 0 1 1.7-11.3 9 9 0 0 0 13-.4l.2.4q.3 2.3 1.2 4.3a6 6 0 0 0 3.2 3.1 4 4 0 0 0 2.4.1 19 19 0 0 1-13.6 5.6m12.1-46q-1.5.3-2.5 1.4a9 9 0 0 0-2 5.3l-.3 3.3a8.8 8.8 0 0 0-14.1-.6q-.7-5.8-.7-11.7v-.5a19 19 0 0 1 19.6 2.8" style="fill:#2f7889"/><path d="M92 41.3a5 5 0 0 0-5.3 5.2v35a5.2 5.2 0 0 0 10.5 0v-35c0-2.9-2.4-5.2-5.2-5.2m0-14.5c2.8 0 5.2-2.3 5.2-5.2V4H86.7v17.6c0 2.9 2.4 5.2 5.3 5.2m0 74.4a5 5 0 0 0-5.3 5.2V124h10.5v-17.6c0-2.9-2.4-5.2-5.2-5.2M36.4 71.6a5 5 0 0 0-5.2 5.3v35a5.2 5.2 0 0 0 10.5 0v-35c0-3-2.4-5.3-5.3-5.3m0-59.9a5 5 0 0 0-5.2 5.3v35a5.2 5.2 0 0 0 10.5 0V17c0-3-2.4-5.3-5.3-5.3" style="fill:#84b0c1"/><path d="M33.5 17.8q-.9 5.1 0 10.3c.2 1.4 1.3 2.6 2.2.7a28 28 0 0 0 3.3-12c0-1.4-.6-3-2.3-3-2 .1-2.9 2.1-3.2 4m0 59.4q-.9 5.1 0 10.2c.2 1.5 1.3 2.7 2.2.7 1.8-3.4 3.3-8 3.3-11.9 0-1.4-.6-3-2.3-3-2 0-2.9 2.1-3.2 4m55.3-29.7q-.9 5.2 0 10.2c.2 1.5 1.2 2.7 2.2.8 1.7-3.5 3.2-8 3.3-12 0-1.4-.7-3-2.3-3-2 0-2.9 2.1-3.2 4m0 59.3q-.9 5.2 0 10.3c.2 1.5 1.2 2.7 2.2.7 1.7-3.4 3.2-8 3.3-12 0-1.4-.7-3-2.3-2.9-2 0-2.9 2-3.2 4" style="fill:#a8e3f0"/></svg>