<svg xml:space="preserve" width="16" height="16" viewBox="0 0 128 128"><path d="m14.4 69.4-8.7 8.2s0 9.5 6.3 17.3c5.6 7 28.2 19.9 66.7 4 45.6-18.7 43.9-49 42-55.6-2.5-8.8-6.7-13.6-17.1-17.2S14.4 69.4 14.4 69.4" style="fill:#1e86ff"/><path d="M44.6 30.6C15.6 43.6.3 70.1 7.4 84c7.8 15.3 40.2 19.4 72 4.7C112.2 73.5 123.2 46 114.8 34s-38-17.7-70-3.4" style="fill:#00c1ec"/><path d="M12 70.3c-2 .6-2.3 8.2 1.9 13.5 5.3 6.9 17.1 8.6 17.7 6 .6-2.8-7.2-2.6-13.2-8.8-4.2-4.3-5.1-11.2-6.5-10.7m29.8 21c1 2.5 11.8.4 16.4-.6 7.4-1.6 18-6.3 26.2-11.2s15.2-12.3 18-15.8 4-7 2.6-7.8c-1.5-.8-4.5 4.7-10.7 10.2a92 92 0 0 1-37.7 20.2c-7 1.7-15.8 2.7-14.8 5M107 34.1c-1.7 1 .6 2.8.7 5.9 0 2.1-1.4 5.8.5 6.2 2 .3 3.8-2.7 3.8-6.9 0-2.7-3-6.3-5-5.2" style="fill:#6fe8fd"/><path d="M44.3 79.9c-11.4 0-19.6-4.1-22.2-10.2-4-9.2 4.2-24 26.4-34 21.7-9.7 41.6-7.1 47 1.8 2 3.4 2.6 8 1 12.8C93.3 60 83.2 68.6 69 74.4a65 65 0 0 1-24.7 5.4m5.2-41.5c-14.7 6.8-29.3 20-24.8 30.2 3.3 7.6 19.9 12.7 43 3.1 19-7.9 24.5-18.3 25.9-22.6q2-5.9-.4-9.8c-4-6.7-21.7-10.8-43.7-1" style="fill:#dfeef1"/><path d="M34 29.5c.9 1.5 3.6-1 8.3-3.4a93 93 0 0 1 55.3-8q5.4 1.1 5.8 0c.2-.8-.6-2-5.8-3.4S79.8 11.5 69 13.2s-21.4 5.6-27.6 9.6-8 5.2-7.2 6.6m18.4-18.8c.3 2 9.2-1.9 16.9-2.7s15.4-.3 17-.2q2.3.1 2.6-1C89.3 6 85 2.5 69.5 4c-13 1.2-17 5.6-17 6.7m-37.4 102c-.2.7 2.6 2 7.6 3s17.5 2 29.5.2a85 85 0 0 0 25.1-7.6c2.3-1.3 5-3.8 4.2-4.6-.8-.9-6 2.1-10.2 3.3s-12.7 4-23.6 5.1-21.4.6-24.8.5-7.5-1-7.8 0m35.3 10.1c.2 1.5 8.6 2.6 21-1.8 13-4.6 16.5-10 16-10.9-1-1.5-7.6 4-17.7 7.2-12.7 4-19.6 4-19.3 5.5" style="fill:#c9c9c9"/></svg>