<svg xml:space="preserve" width="16" height="16" viewBox="0 0 128 128"><path d="m20.9 60 86.6.2v14.2c0 23-17.4 41.7-38.8 41.7h-9.4C38 116 20.6 97.4 20.5 74.5zM13 52l-.6 22.5c0 27.4 21 49.6 46.8 49.6h9.3a48 48 0 0 0 46.9-49.6V52.3z" style="fill:#784d30"/><path d="M71.4 124h-15a8.3 8.3 0 0 1-8.4-8.3v-.6a3 3 0 0 1 3-3h25.8a3 3 0 0 1 3 3v.6c0 4.5-3.8 8.3-8.4 8.3" style="fill:#b0805c"/><path d="M112.1 63q-2.2-.8-4.6-.3v11.7q0 7-2 13.3.8-1.5 2-2.5a6 6 0 0 1 7-.6q1-5 1-10.2v-8.6Q114 64 112 63M22 86.2q-1.5-5.5-1.6-11.7l.2-6.8c-.7-1.8-2-3.5-3.8-4q-2.2-.2-4 1l-.3 9.7q0 4.2.7 8.3 5 .3 8.9 3.5" style="fill:#4f3320"/><path d="M64 49.4c23.5 0 59.4 11.5 59.4 11.5.6 2 0 5 0 5 0 9.2-26.6 16.6-59.4 16.6S4.5 75.1 4.5 65.9c0 0-.4-1.6 0-4.7 0 0 37.5-11.8 59.5-11.8" style="fill:#c62828"/><path d="M117 55c-1.2-15.3-10-40.4-36.3-48v-.3c0-1.5-1.4-2.7-3-2.7H50.3c-1.7 0-3 1.2-3 2.7V7C21 14.5 12.1 39.3 11 54.7c-1.5 2.3-6.5 4.3-6.5 7C4.5 71 31 78.4 64 78.4s59.5-7.4 59.5-16.5c0-3.6-5.2-4.2-6.5-6.8" style="fill:#f44336"/><path d="M39.5 38.8c2.8-3.4 6-9 7.2-17.4.6-4.2.6-12 .6-14.3q-4.7 1.3-8.7 3.4a35 35 0 0 1-.9 27.3c-.5 1 1 2 1.8 1m48.9 0c.8 1 2.3 0 1.8-1a35 35 0 0 1-1-27.3A49 49 0 0 0 80.6 7a65 65 0 0 0 .7 14.4c2.1 8.5 4.4 14 7.2 17.4" style="fill:#c62828"/><path d="M33.6 31.5a46 46 0 0 0-7.5 7.8c-1 1.3-2.1 4-4.4 3.5S19.5 40 19.9 38c1.2-5.4 4-11 8.6-14.2q4.5-3 6.8.2c2.2 3 1 5.4-1.7 7.5M39 67.6c8.3.9 7 3.4-1.2 4-8 .5-22.5-2.2-25.7-6.3-1.6-2 .8-5 4.5-3.5 7.2 2.8 7.3 4 22.4 5.8" style="fill:#ff7555"/><path d="M80.3 38.3h-9.1q-1.4-.1-1.5-1.6v-9.5q-.1-1.5-1.6-1.6H60q-1.5.1-1.6 1.6v9.5q-.2 1.5-1.5 1.6h-9q-1.5.1-1.6 1.6v8.7q.2 1.5 1.5 1.6h9.1q1.4.1 1.5 1.6v9.6q.1 1.5 1.6 1.6h8q1.5-.2 1.6-1.6v-9.6q0-1.5 1.5-1.6h9q1.5-.1 1.6-1.6v-8.7q-.2-1.5-1.5-1.6" style="fill:#fafafa"/></svg>