<svg xml:space="preserve" width="16" height="16" viewBox="0 0 128 128"><path d="M64.6 4.1c-41 0-40.7 38-40.7 38.5 0 24.6 1.9 59.3 11.7 73 3.9 5.4 11.4 5.7 11.4 5.7h34s7.5-.3 11.4-5.7c9.8-13.7 11.7-48.4 11.7-73 0-.6 1.5-38.5-39.5-38.5" style="fill:#543930"/><radialGradient id="a" cx="64" cy="68.3" r="47.5" gradientTransform="matrix(1 0 0 -1.19 0 140.98)" gradientUnits="userSpaceOnUse"><stop offset=".8" style="stop-color:#6d4c41;stop-opacity:0"/><stop offset="1" style="stop-color:#6d4c41"/></radialGradient><path d="M64.6 4.1c-41 0-40.7 38-40.7 38.5 0 24.6 1.9 59.3 11.7 73 3.9 5.4 11.4 5.7 11.4 5.7h34s7.5-.3 11.4-5.7c9.8-13.7 11.7-48.4 11.7-73 0-.6 1.5-38.5-39.5-38.5" style="fill:url(#a)"/><linearGradient id="b" x1="64" x2="64" y1="32.7" y2="1.6" gradientTransform="matrix(1 0 0 -1 0 128)" gradientUnits="userSpaceOnUse"><stop offset="0" style="stop-color:#651fff"/><stop offset=".7" style="stop-color:#5914f2"/><stop offset="1" style="stop-color:#530eeb"/></linearGradient><path d="M64.1 96c-25.5 0-52 7.3-52 25v3h104v-3c0-16.7-26.3-25-51.9-25" style="fill:url(#b)"/><path d="M55 90v10c0 4.6 3.4 8.2 9 8.2s9-3.6 9-8.1V90z" style="fill:#99674f"/><path d="M64 16c-17.2 0-33.1 12.8-33.1 40A40 40 0 0 0 56 94.8a24 24 0 0 0 7.9 1.5q3.6 0 7.8-1.5A40 40 0 0 0 97.1 56c0-27.2-15.9-40-33.1-40" style="fill:#ba8d68"/><path d="M72.3 76.1a25 25 0 0 1-16.6 0c-1.8-1-3.6.6-2.9 2.3s6.4 5.3 11.2 5.3 10.5-3.7 11.2-5.4c.8-1.6-1-3.2-2.9-2.2" style="fill:#5d4037"/><path d="M67.9 68H60q-1 .5-.6 1.7c.3.7 1.7 2.7 4.5 2.7s4.3-2 4.6-2.7q.3-1.2-.7-1.6" style="fill:#99674f"/><path d="M47.6 60.3q-3.1 0-5.1-1.3-1-.4-.8.5c.3 2.5 2.9 4.4 6 4.4 3 0 5.5-2 5.9-4.4q0-1-.8-.5a10 10 0 0 1-5.2 1.3m32.7 0Q77 60.3 75 59q-1-.4-.8.5c.4 2.5 2.9 4.4 6 4.4s5.5-2 5.9-4.4q.1-1-.8-.5a10 10 0 0 1-5.2 1.3" style="fill:#49362e"/><path d="M55 49.8c-1-1.2-3-3-7.2-3s-6.3 1.8-7.3 3q-.5 1 0 1.6t2 .4c1.4-.2 2.4-1.2 5.3-1.2 2.8 0 4.5.9 5.3 1.2q1.4.3 2-.4.4-.6-.1-1.6m32.5 0c-1-1.2-3-3-7.2-3s-6.4 1.8-7.3 3q-.5 1 0 1.6t1.9.4c1.4-.2 2.5-1.2 5.4-1.2 2.8 0 4.4.9 5.3 1.2q1.4.3 1.9-.4t0-1.6" style="fill:#613e31"/><path d="M64.6 4.1c-41 0-40.7 38-40.7 38.5 0 7.8.2 16.6.7 25.4h6.8c-.1-3 2-21 8-22.4 22.4-5 35-16.9 35-16.9C77.7 36 88 43 91.7 45.6c3 2.2 4 18.5 4 22.4h7.6v-.2c.6-8.8.8-17.5.8-25.2 0-.6 1.5-38.5-39.5-38.5" style="fill:#543930"/><radialGradient id="c" cx="64.3" cy="64.3" r="49.8" gradientTransform="matrix(1 0 0 -1.214 0 141.73)" gradientUnits="userSpaceOnUse"><stop offset=".8" style="stop-color:#6d4c41;stop-opacity:0"/><stop offset="1" style="stop-color:#6d4c41"/></radialGradient><path d="M64.6 4.1c-41 0-40.7 38-40.7 38.5 0 7.8.2 16.6.7 25.4h6.8c-.1-3 2-21 8-22.4 22.4-5 35-16.9 35-16.9C77.7 36 88 43 91.7 45.6c3 2.2 4 18.5 4 22.4h7.6v-.2c.6-8.8.8-17.5.8-25.2 0-.6 1.5-38.5-39.5-38.5" style="fill:url(#c)"/><linearGradient id="d" x1="30.9" x2="30.9" y1="124.4" y2="64.2" gradientTransform="matrix(1 0 0 -1 0 128)" gradientUnits="userSpaceOnUse"><stop offset=".6" style="stop-color:#ba8d68"/><stop offset="1" style="stop-color:#a47b62"/></linearGradient><path d="M43.4 33c-.4-.9-1-1.5-3-1.8-.6-.1-3.6-.5-5.9-3.6a13 13 0 0 1-2.4-8.4l2.7-15.5H20.7l-.6 12.5-2 11.8.6 15.6 2 18.6c.2 1.3 1 2.6 3 2.6 2.8 0 3.6-2.3 3.9-5.6l.2-16q.2-3.4 3.2-4.9 1-.4 2-.4 2.3.2 4.3.8l1 .1c1.7 0 3.9-.9 4.7-2.3q1.2-2.3.4-3.6" style="fill:url(#d)"/><linearGradient id="e" x1="97.1" x2="97.1" y1="124.4" y2="64.4" gradientTransform="matrix(1 0 0 -1 0 128)" gradientUnits="userSpaceOnUse"><stop offset=".6" style="stop-color:#ba8d68"/><stop offset="1" style="stop-color:#a47b62"/></linearGradient><path d="m107.9 16.2-.6-12.5H93.2l2.6 15.5c.5 3-1 6.4-2.3 8.3-2.3 3.1-5.3 3.5-6 3.7q-2.5.6-2.9 1.7-.8 1.4.4 3.5c.8 1.5 3 2.4 4.7 2.4l1-.1q2-.6 4.3-.8 1 0 2 .4c2 .8 3.2 2.7 3.2 4.8l.2 16c.3 3.3 1 5.7 3.8 5.7 2.1 0 2.9-1.3 3-2.7l2.2-18.6.5-15.5z" style="fill:url(#e)"/></svg>