<svg xml:space="preserve" width="16" height="16" viewBox="0 0 128 128"><path d="M98.9 79.9c-1.2-2.3.3-4.6 3-7.5 4.4-4.5 4.7-7.7 2.4-14.7-11-22.5-77-19.9-80.6 0q-4 8 2.4 14.7c2.7 2.9 4.3 5.2 3 7.4s-4.8 2.6-4.8 2.6.8 2.2 2.8 3.5c1.9 1 4.2 1.3 5.7 1.4 0 0 6.2 8.5 22.3 8.5H73c16 0 22.2-8.5 22.2-8.5 1.6 0 3.8-.3 5.7-1.4 2-1.3 2.8-3.5 2.8-3.5s-3.6-.3-4.8-2.6" style="fill:#ab872f"/><radialGradient id="a" cx="99.6" cy="45.8" r="23.4" gradientTransform="matrix(1 0 0 .491 -21.06 59.63)" gradientUnits="userSpaceOnUse"><stop offset=".7" style="stop-color:#bfa055;stop-opacity:0"/><stop offset="1" style="stop-color:#bfa055"/></radialGradient><path d="M64 95.8v-9.4L92.6 84l2.6 3.2s-6.2 8.5-22.3 8.5z" style="fill:url(#a)"/><radialGradient id="b" cx="76.6" cy="49.3" r="6.9" gradientTransform="rotate(155 84.43 60.42)scale(1 .742)" gradientUnits="userSpaceOnUse"><stop offset=".7" style="stop-color:#bfa055"/><stop offset="1" style="stop-color:#bfa055;stop-opacity:0"/></radialGradient><path d="M95.1 83.2c-4.3-6.5 5.2-9 5.2-9-1.6 2-2.4 3.9-1.4 5.6 1.2 2.3 4.8 2.6 4.8 2.6s-5 4.3-8.6.8" style="fill:url(#b)"/><radialGradient id="c" cx="92" cy="61" r="29.4" gradientTransform="matrix(-.075 -.854 .831 -.053 42.4 150.06)" gradientUnits="userSpaceOnUse"><stop offset=".7" style="stop-color:#bfa055;stop-opacity:0"/><stop offset="1" style="stop-color:#bfa055"/></radialGradient><path d="M104.2 58.1c2.9 6.4 1.4 10.9-1.7 13.8-.5.3-3.6 3.8-4 5 0 0-7-8.4-9.2-13.4q-.7-1.5-.8-3-.2-1.4.6-2.5c.7-.8 11.5-7.2 11.5-7.2z" style="fill:url(#c)"/><radialGradient id="d" cx="33.5" cy="66.9" r="23.9" gradientTransform="matrix(.062 -.715 -.687 -.045 79.05 92.53)" gradientUnits="userSpaceOnUse"><stop offset=".7" style="stop-color:#bfa055;stop-opacity:0"/><stop offset="1" style="stop-color:#bfa055"/></radialGradient><path d="M23.6 57.7c-2.9 6-1.3 10.6 2.2 14.5.5.4 3 3 3.4 4.3 0 0 8-9.4 10.4-15q.7-1.7 1-3.5 0-1.5-.8-2.7c-.7-1-5.2-7.7-6.4-7.7-2.4 0-9.8 10-9.8 10" style="fill:url(#d)"/><radialGradient id="e" cx="49.4" cy="45.8" r="23.4" gradientTransform="matrix(-1 0 0 .491 98.88 59.63)" gradientUnits="userSpaceOnUse"><stop offset=".7" style="stop-color:#bfa055;stop-opacity:0"/><stop offset="1" style="stop-color:#bfa055"/></radialGradient><path d="M64 95.8v-9.4L35.5 84l-2.6 3.2S39 95.8 55 95.8z" style="fill:url(#e)"/><radialGradient id="f" cx="26.4" cy="49.3" r="6.9" gradientTransform="rotate(205 4.68 51.77)scale(-1 .742)" gradientUnits="userSpaceOnUse"><stop offset=".7" style="stop-color:#bfa055"/><stop offset="1" style="stop-color:#bfa055;stop-opacity:0"/></radialGradient><path d="M33 83.2c4.2-6.5-5.3-9-5.3-9q2.7 3 1.4 5.6c-1.2 2.3-4.8 2.6-4.8 2.6s5 4.3 8.6.8" style="fill:url(#f)"/><linearGradient id="g" x1="64" x2="64" y1="4.3" y2="31" gradientTransform="matrix(1 0 0 -1 0 128)" gradientUnits="userSpaceOnUse"><stop offset="0" style="stop-color:#e3e3e3"/><stop offset="1" style="stop-color:#c9c9c9"/></linearGradient><path d="M116 121v3H12v-3c0-14.7 17.7-22 38.2-24.3Q57 96 64 96h.1q7 0 13.7.8C98.4 99.2 116 107 116 121" style="fill:url(#g)"/><path d="M77.8 96.8v7.1c0 5.5-5.6 10-12.5 10h-2.6c-6.9 0-12.5-4.5-12.5-10v-7.2Q57 96 64 96h.1q7 0 13.7.8m-16 14.7h4.5V124h-4.5z" style="fill:#b9bbbd"/><path d="M73 90H55v10c0 4.6 3.6 8.2 8.2 8.2h1.6c4.6 0 8.3-3.6 8.3-8.1zm18.3-39.6H36.7c-6 0-10.7 5.2-10.7 11.4s4.8 11.5 10.7 11.5h54.6c6 0 10.7-5.2 10.7-11.5s-4.8-11.4-10.7-11.4" style="fill:#c48e6a"/><path d="M64 11c-17.4 0-33.5 18.7-33.5 45.5C30.5 83 47 96.3 64 96.3S97.5 83 97.5 56.5C97.5 29.7 81.4 11 64 11" style="fill:#e0bb95"/><ellipse cx="47.6" cy="58.8" rx="4.9" ry="5.1" style="fill:#5d4037"/><ellipse cx="80.4" cy="58.8" rx="4.9" ry="5.1" style="fill:#5d4037"/><path d="M55 49.8c-1-1.2-3-3-7.3-3s-6.3 1.8-7.2 3q-.5 1 0 1.6t1.9.4c1.4-.2 2.5-1.2 5.3-1.2 2.9 0 4.5.9 5.4 1.2s1.6 0 1.9-.4q.5-.6 0-1.6m32.5 0c-1-1.2-3-3-7.2-3s-6.4 1.8-7.3 3q-.5 1 0 1.6t1.9.4c1.4-.2 2.5-1.2 5.4-1.2 2.8 0 4.4.9 5.3 1.2s1.6 0 1.9-.4q.5-.6 0-1.6" style="fill:#ab872f"/><path d="M67.9 68h-7.7q-1.1.5-.7 1.7c.4 1.2 1.7 2.7 4.5 2.7a5 5 0 0 0 4.6-2.7q.3-1.2-.7-1.6" style="fill:#c48e6a"/><path d="M72.4 76.1a26 26 0 0 1-16.8 0c-1.8-1-3.7.6-3 2.3s6.5 5.4 11.4 5.4 10.6-3.8 11.3-5.4-1-3.4-2.9-2.3" style="fill:#6d4c41"/><path d="M104 25.1c-2.4-3.7-7.8-8.6-12.8-9-.7-4.7-59.8-8.2-57 .9a10 10 0 0 0-8.7 5.4c-2.5 5-1.6 9-.9 11A11 11 0 0 0 21.1 46c1.6 4.4 8.1 6.5 8.1 6.5-.4 8 1 13 1.9 15 .1.3.6.2.7-.1 1-4 4.3-17.8 4-20.2 0 0 11.4-2.3 22.2-10.3a32 32 0 0 1 7.1-4c13.6-5.4 16.5 3.8 16.5 3.8S91 35 93.8 48c1 5 1.8 12.8 2.4 18.3 0 .3.6.4.7 0 1-2.1 2.9-6.4 3.3-10.8.2-1.6 4.4-3.6 6.2-10.3 2.4-8.9-.6-17.4-2.3-20" style="fill:#ab872f"/><path d="M107.7 43.9s-6.1-8.4-32.9-16.7A132 132 0 0 0 24.4 22q0-.2-1 1.3s25.4-2.8 53.7 7.5c10.4 3.8 24.3 8.6 30 16.5z" style="fill:#b9bbbd"/><path d="M65 39.2c-24.5-5.1-39.7-6.4-44.6-1.9a20 20 0 0 1 3-13.9A51 51 0 0 1 64 4c10.7 0 23.7 6.2 33.3 12.7 3.1 2.1 5.2 3.7 7.4 6.7 8.3 11.4-.4 34.3-.4 34.3S93.8 45 65 39.2" style="fill:none"/><linearGradient id="h" x1="64" x2="64" y1="3.6" y2="55.3" gradientTransform="translate(0 .68)" gradientUnits="userSpaceOnUse"><stop offset="0" style="stop-color:#eee"/><stop offset=".3" style="stop-color:#e3e3e3"/><stop offset=".9" style="stop-color:#c5c5c5"/><stop offset="1" style="stop-color:#bdbdbd"/></linearGradient><path d="M60.6 40.5c24.6-4.5 39.8-7.4 47.6-3 .6-6.7-1.6-11.6-3.6-14A66 66 0 0 0 63.9 4C53.3 4 33.4 9 23.3 23.4c-8 11.6.3 34.3.3 34.3s8.2-11.9 37-17.2" style="fill:url(#h)"/><path d="M20.2 43.9s6.1-8.4 32.9-16.7c21.1-6.5 41.8-6.3 50.4-5.2q0-.2 1 1.3S79 20.5 50.8 30.8c-10.4 3.8-24.3 8.6-30 16.5z" style="fill:#b9bbbd"/><path d="M108.2 36.7v.7a46 46 0 0 1-1 9c-1.1 6.4-3 11.3-3 11.3S94 45.5 66.5 39.5l-1.4-.3-4.6-1-2.5-.4c-20.4-4-33.1-4.6-37.5-.5A20 20 0 0 1 25 21.6 55 55 0 0 1 52.3 5.2q4.5-1 9-1.1h1.3L64 4a35 35 0 0 1 7.4.8 80 80 0 0 1 30 15.2q1.6 1.5 3.2 3.5 2.9 4.6 3.4 10.4z" style="fill:#c4c6c7"/><path d="m107.8 43-.6 3.4c-6.5-7.3-19.6-11.8-29.7-15.5a140 140 0 0 0-53.7-8l1.1-1.3c9.7-1 29.8-.8 50.3 5.6 21 6.4 29.6 13 32.6 15.8" style="fill:#b9bbbd"/><linearGradient id="i" x1="64.1" x2="64.1" y1="123.7" y2="74" gradientTransform="matrix(1 0 0 -1 0 128)" gradientUnits="userSpaceOnUse"><stop offset="0" style="stop-color:#eee"/><stop offset=".3" style="stop-color:#e3e3e3"/><stop offset=".9" style="stop-color:#c5c5c5"/><stop offset="1" style="stop-color:#bdbdbd"/></linearGradient><path d="M108.2 36.8c-6.6-3.3-38.7-.8-47.8 1.4l-.6.2c-35 10-36.1 18.8-36.2 19.3l-1.2-4A72 72 0 0 1 20.2 43a42 42 0 0 1 .7-14.4q.8-2.8 2.4-5.2a47 47 0 0 1 29-18.2q4-.8 8-1l1-.1h1.3L64 4h2.3l5 .8a65 65 0 0 1 14.3 4.8A58 58 0 0 1 104.2 23l.4.4a18 18 0 0 1 3.6 13.4" style="fill:url(#i)"/><path d="M104.2 23c-6-.5-28.8-1.3-53.8 8-10 3.6-23.2 8.1-29.7 15.4l-.5-3.4c3-2.9 11.7-9.4 32.5-15.8 20.6-6.4 40.7-6.5 50.4-5.6zm4 13.8v.6a198 198 0 0 0-41.8 2 137 137 0 0 0-13 2.8 66 66 0 0 0-29.8 15.5l-1.2-4a79 79 0 0 1 35.5-16 235 235 0 0 1 50.4-4zM85.5 9.6c-8.8 0-25.3 1.7-39.9 7.8-7.2 3-20.9 10.4-25.5 15q.2-2 .8-3.8c2.5-2.3 9.2-7.8 23-13.1 14.9-5.9 31-7.6 38.8-7.2z" style="fill:#b9bbbd"/></svg>