<svg xml:space="preserve" width="16" height="16" viewBox="0 0 128 128"><path d="m68 113.2-1.8-1.2 48.6-71.5 1.8 1.2z" style="fill:#f7cf92"/><path d="m114.8 40.5 4.8 3.3-49.8 73.7 3 3.4 50-74.2c2.3-3.6 1.1-5.2-.3-6-1.2-.8-2.1-.6-1.5-1.2.5-.4 1.3-1 1-1.6-.2-.6-.8-1.3-3-.2a13 13 0 0 0-4.2 2.8" style="fill:#ff7043"/><path d="M76.3 115.7c-1.2-.8-3.9-2.1-5-.5v.1q-.4 1-1 .5l-2.2-1.4q-.7-.3-.1-1.2l.2-.3c.4-.7 0-1.8-1-2.4l-2.5 3.9q-1 1.6.5 2.6l3.5 2.3-.6.9q-.6 1.3.7 2.4l.3.2q1.6.9 2.6-.3l1-1.5zm14.1-91.6q-1 0-1.7.4c-1.4.6-2.4.1-2.9-.5-1-1.2-.5-3.2 1-4.4 1.6-1.3 3.6-1.4 4.6-.2q.6.8.5 1.8v.9l1.3 1c.2.3-.7 1.9-1 1.7z" style="fill:#455a64"/><ellipse cx="97.8" cy="16.7" rx="3.6" ry="2.8" style="fill:#455a64" transform="rotate(-39.3 97.85 16.68)"/><path d="m75 53.3-1-.8-58 56.6a38 38 0 0 0 23.5 14c9.2 1.3 15-3.5 18.5-11.2 1.2-2.5 3.2-5.9 5-6.6.6-.3 1.5-.8 1.2-1.7q-.2-.4-1-1l-1.1-1.3c-3-3.8-5.1-6.1-.8-10.7s9.1-4.7 11.3-2.6q.7.5 1.5.3l.2-.1q1-.5.8-1.7-.5-2 .4-4C77.2 79 92.1 70 75 53.4" style="fill:#a65f3e"/><path d="M100.2 27.5 70.4 58" style="fill:none;stroke:#ff7043;stroke-width:2.5166;stroke-miterlimit:10"/><path d="M71.3 49.4c-18.9-16.2-26.7 4.4-32.7 2.9-1.4-.4-2.3 1.1-1.7 2.4.3.6 2.5 4-1.3 8.3q-4.2 4.5-8.3 3.1l-2.2-1c-.7-.2-1.5 0-1.7 2q0 1.7-2.5 2.7a39 39 0 0 0-9.6 5C5 79.5 2 86.8 5.9 95.5s14.5 21.7 30 24c9.4 1.5 15.3-3.3 18.7-11 1.2-2.6 2.7-5.6 4.5-6.4q1.2-.2 1.4-1.3c0-.9-1.3-1.3-2.3-2.6-2.7-3-4.7-6.7-.3-11.3 4.2-4.6 9.1-4.7 11.4-2.6q.7.6 1.5.4l.1-.1q1-.5.8-1.8-.5-2 .5-3.9c1.6-3.7 19-12.5-.9-29.5" style="fill:#ff7043"/><path d="M15 80.8c2.2 2.1 4 5 4.3 7.9a12 12 0 0 1-3 8.9c-.7 1-1.8 2-2 3.9-.3 3.6 2.2 4.4 2.8 5.2.5.9.8 2.1.2 2.7q-.9.5-2 0l-1.5-1.7c-6-7-10.2-12.7-9.6-21.9 0-1.7 2.6-8.8 4.5-9.4s5 3 6.3 4.4" style="fill:#455a64"/><path d="m32.5 79.1-4.7 10m7.1-8.6-5.7 9.8m8.3-8.2-7 9.3m8.9-7.5L32.1 93" style="fill:none;stroke:#cfd8dc;stroke-width:.5;stroke-miterlimit:10"/><path d="M104 30.3c3.2-4.3 6-5 10.2-6 5-1.4 8.7-2.3 9.6-7.4 1.1-6.4-5.5-12-11-12.1-2.6-.1-6 1.6-6.1 5 0 2.4 1.5 3.6 2.5 4.5-2.8 2.4-16.6 2.7-18.3 12-.9 4.5 0 4 3.5 6.3 1.5 1 6 2.6 9.5-2.3" style="fill:#ff7043"/><path d="M110.8 15.5s2.6 2 3.4 2.4c0 0-7.5 3-11.2 4.7-6 2.6-7.3 8-7.3 8C94 32.5 58 68.8 58 68.8l-9.4-7s41.2-34.9 47-39.4c4.2-3.3 15.3-7 15.3-7" style="fill:#455a64"/><path d="M116.6 20c-2.5-.6-2.8-2.3-2.8-2.3s2.6 2.2 5 .4q1.4-1.1 1.1-1.9c-.2-1.7-2-1-2-1q-.7.4-1.1-.2c-.3-.3-.1-1 .3-1.2 1.4-.9 4.8-.6 4.6 2.9-.3 3.2-3.4 3.6-5 3.2M50.3 98.1c.4-.8 0-2-1-2.2q-1.3-.2-1.8 1C44 94.4 49.3 89 50.8 87c3.4-3.9 4.2-7.2 1.3-9 0 0-1-.7-1.7-.4-1 .5-1.3 1.4-1.2 1.7.4 1.2 1.9 2.2 2.8.6 1.3 4-7 8.3-7.3 13.5-.6 2.6 2.6 6.3 5 5.3zM22.5 72.2c.7-.5 1.8-.2 2.1.7q.3 1-.6 1.6c2.4 3 6.7-2.3 8.2-4 3.1-3.3 6-4.4 8-2 0 0 .7.9.5 1.5q-.8 1.4-1.4 1.2c-1-.2-2.1-1.4-.8-2.4-3.8-.7-6.6 7-11.2 7.9-2.2.8-6-1.6-5.4-3.9z" style="fill:#37474f"/><path d="M123.4 12.6c-.9-1.3-1.8-1.5-3-1.7q-2.2-.3-3.7.6a6 6 0 0 0-3 6.2c-1-.7-2.2-4 .8-7 1.5-1.5 4.3-2 6.2-1.3 2 .8 2.7 3.2 2.7 3.2" style="fill:#f7cf92"/><path d="M34.2 94.5S32 97 29.5 98.1c-1.7.7-2.2 1.1-3.7 2s-7.5 8.1-7.5 8.1q-.4.8-1.3 1.2c-.9.4-2.2-1.6-2.2-1.6L22.5 93a18 18 0 0 1 4.4-5.5z" style="fill:#455a64"/><path d="m32.5 79.1 60.7-53.7M34.9 80.5l59.3-54.2M37.5 82.1l57.6-54.9M39.4 83.9l56.8-55.8" style="fill:none;stroke:#cfd8dc;stroke-width:.5;stroke-linecap:round;stroke-miterlimit:10"/><path d="M41 89.5 29.4 79.2s3-2.6 4.9-.8c0 0 4 3.3 6 5.4s.5 5.7.5 5.7" style="fill:#a65f3e"/><path d="M110.7 34.3c-1.6 1.2-3.7 1.4-4.6.2-1-1.5.3-2.8-.5-4.3l-1-1.2q-.4-.8.2-1.5c.8-.7 1.7.2 2 .4 1.8 1.8 2 1.3 3.3 1.2 1.8-.2 2.7.8 2.7 2 0 1-1 2.4-2.1 3.2m8.8-4.3c-1.5 1.2-3.6 1.3-4.6 0q-.5-.6-.5-1.9.2-2.4-.7-2.8l-.6-.6q-.6-.6-.3-1.1.5-.6 1-.5.9.2 1.6.8c1.6 1.3 2.4.9 3.3.9s1.6.3 1.8.7c1 1.2.6 3.2-1 4.4" style="fill:#455a64"/></svg>