<svg xml:space="preserve" width="16" height="16" viewBox="0 0 128 128"><path d="M3.2 76.2s-.3-4 1.5-5.8c2.1-2.1 4-1.7 8.4-1.8l12.3-.2s9-17 10.8-19.9c2-2.9 5.5-7.2 11.3-7.8s18.8 0 20.4 0q2.7 0 2.9 3c.2 3 0 26 0 26h48.6c1.5 0 2.2 1.7 2.6 2.7l.9 3-7.8 7.2z" style="fill:#ff5117"/><path d="M3.8 99.7 3.2 88V75.5h119.7v24.8l.4 7.2-83.6.6z" style="fill:#ee3e23"/><path d="M10.1 104.1c.4 0 7-5 7-5s1.6-3.1 2.3-4q1-1 2.7-.8h14.7c1.2 0 2.4 1.3 3.1 2.4l6 9.8h41l4-10c.5-1 1-1.9 2.4-2l18.5.2q1.5.1 2 1.4c.5.8 4 10.3 4 10.3h4l-1.1 4H10.5z" style="fill:#b22519"/><path d="M15.7 110.5c0 5.5 4.1 13.4 13.5 13.5s14.3-7.3 14-14.8c-.3-7.7-6.1-13-14.5-12.8-7.8.2-13.2 6.4-13 14m72.7.1c.1 5.5 4.4 13.4 13.8 13.5s14.3-7.3 14-14.8c-.3-7.7-6-13-14.5-12.8-7.8.2-13.4 6.4-13.3 14" style="fill:#4e433d"/><path d="M21.9 110c0 2.9 2.4 7 7.5 7.1s7.7-3.6 7.5-7.6-3.5-7-7.8-7A7 7 0 0 0 22 110m72.9 0c0 2.9 2.4 7 7.5 7.1s7.6-3.6 7.5-7.6c-.2-4-3.5-7-7.8-7A7 7 0 0 0 95 110" style="fill:#c8c8c8"/><path d="m3.1 100.4.3 8.7q0 1.6 2 1.8H12s1-2.9 2.4-5.8l3-6.6-11.8-.1c-1 0-2.4.3-2.4 2m117.1-2.1-.1 12.2h5c.8 0 1.5-1.2 1.5-2l-.2-8.7c0-.7-1-1.5-1.9-1.5z" style="fill:#b0b0b1"/><path d="M119 75.7a98 98 0 0 0 0 15.8c.2.3 4.4.1 4.4.1l.2-7.5c.1-4.2-.7-8.6-.7-8.6s-3.6-.2-4 .2" style="fill:#d50916"/><path d="M54 76.5c-1.6 0-2.4 1.2-2.4 2.4 0 1.5 1.2 2.1 2.4 2.2h6c1-.1 2-1 2-2.5 0-1.1-1-2-1.8-2zm14.8-6.2q0-1.5 1.1-1.4c.6 0 1.2.2 1.2 1.5v40q0 1-1 1.2-1 0-1.3-1.2z" style="fill:#8a1e0c"/><path d="M5 76.4s1.8.1 2.4.7c.8.8 2 4.1 2 4.8v8.8l-4.2.1s-1-6-1-7.5c0-4 .6-6.8.8-6.9" style="fill:#fdfefe"/><path d="M3.3 90.8 3 83l.1-6.6 2 .2s.2 3 .2 6.8c0 3.2.3 7.5.3 7.5z" style="fill:#dbcdc7"/><path d="M47.9 44.6c-3.7.3-5.6 2.4-7.6 5S31 66.8 30.8 67.8c-.2 1.2 1.7.9 4.2.9h29.3c1 0 2-1 2.1-3.5V47.8c0-1.5-.8-2.9-3-3-1.7-.1-13.4-.4-15.5-.2" style="fill:#546f79"/><path d="M36 65.4c-.4-.3 5.1-10.6 5.7-11.7Q44 50 46 49t4.4-1c2.5-.1 12-.3 12.4.1.3.4.2 13.4.1 14.7 0 1.3-.2 2.4-1.6 2.5-3 .2-8.4 0-13.4 0-6 0-11.5.3-11.7.1" style="fill:#afe3fb"/><path d="M38 68c0 1.2 2.4 4 6 3.9 4 0 5-3.1 5-5 0-3.2-2.4-4.4-2.4-4.4l-7.5 3S38 66.7 38 68" style="fill:#b52213"/><path d="M42.4 62.7c-1.7.7-3.3 2.7-3.3 2.7s.1 2.7 4.3 2.5c4.2-.1 3.3-5.3 3.3-5.3s-1.5-1-4.3.1" style="fill:#ee3e23"/></svg>