<svg xml:space="preserve" width="16" height="16" viewBox="0 0 128 128"><path d="M74.5 114.4q-5.8 0-10.8-4c-5-4-5.3-10-5.3-10.2q.1-1 1-1.2 1.1.1 1.2 1.1s.3 5.3 4.5 8.6c4.2 3.4 9.2 4.4 14 2.7 7.2-2.5 13-10.5 15.7-21.4C96 84.7 96 80 96 75.3c.1-4.7.1-9.5 1.4-15 2.5-11 9.6-15.9 15.6-15.9h.3c7.7.2 10 3.7 10 3.8q.7 1 .1 1.7-.9.3-1.6-.5s-2.1-2.6-8.6-2.8h-.2c-5.1 0-11.2 4.3-13.5 14.1-1.2 5.3-1.2 10-1.3 14.6 0 4.8 0 9.6-1.4 15.2-2.8 11.7-9.2 20.3-17.1 23a16 16 0 0 1-5.3 1" style="fill:#bfccd2"/><path d="M39 37.4C39 38 51.3 25 51.3 25s35.8-5.6 36-4.8c.2.4-1.2 5.3-3.3 10.5s-6.8 17.6-11.6 33.7-9.8 41-11.4 41c-1 0-3-3-3-3S38 33.7 38.8 37.3" style="fill:#ff8e00"/><path d="M23.6 29.6S2.8 38.2 2.3 39c-.3.8 14.7 15.7 21 22S36 75 40.5 80.4a955 955 0 0 1 18.7 24.2c.9 1.3 1.9.8 1.9.8L44.8 32.6z" style="fill:#917bf1"/><path d="M42.9 9.1s-2-2-2.7-2.1l-1.2.7a638 638 0 0 0-18.7 15.6C13.7 29.1 1.9 38.5 2.3 39S18 38.5 26 37.6s19.2-3 19.2-3S47.2 22 47 18s-4-8.9-4-8.9" style="fill:#ec3e24"/><path d="M87.5 20.3s-8.3 5.1-20.8 9-21.5 5.3-21.5 5.3c-.3-.4-5-27.6-5-27.6h1c.9.3 10.7 3.5 21.7 6.3s24.7 5.5 24.6 7" style="fill:#feb804"/><path d="M5.1 87.9q-.5 0-1-.6-.3-.9.5-1.5c.1 0 11.7-6.8 24.8-25a133 133 0 0 0 14.3-26.2 1.1 1.1 0 1 1 2 .8c0 .1-5.4 14-14.5 26.6-13.4 18.7-25 25.4-25.5 25.7zM58 95.6c0-.1-5.8-11.3-12-20.1-7.8-10.9-13.8-16.7-13.8-16.8a1.1 1.1 0 0 1 1.5-1.6c.3.3 6.2 6 14 17 6.5 9.1 11.5 20.7 11.5 20.9q.4.8-.2 1.2-.7 0-1-.6" style="fill:#bfccd2"/><path d="M71.8 103.1c-.7.1-2.5 2.9-4.3 4.5-1.7 1.5-2.9 2-3.1 2.7-.3.6.6 4.8 1 6.6.3 1.8.6 4.5 1.9 4.4s5.9-1.3 6-2.2c.3-1-6.5-6.6-5.9-7.7.6-1 8.2-1.8 8.4-3 .2-.5-3.5-5.4-4-5.3" style="fill:#b7d214"/><path d="M80 99.9c-.3 1 .2 4 .5 6 .3 1.8.4 4.6.7 5.1.3.8 2.7 1.4 5.6 2.3s4.7 1.6 5.7 1.3.7-6.2-.1-6.8c-.8-.7-7.6.5-7.6.5s2.1-10.7.7-11.2c-.8-.3-1.8.6-3.1 1.1q-2 .7-2.5 1.6" style="fill:#7ade8d"/><path d="M88.3 87.5c0 .6 1 1.6 1.8 4.3s1.6 6.5 2.5 7 6-1.9 7.6-3c1.7-1 3.9-2.8 4-3.8s-1.4-2.6-2.3-3.4c-1-.9-1.9-2.5-2.5-2.5-.5 0-2 3.4-2.7 4.4-.7 1.3-1.7 3.5-2 3.3-.2-.2-.3-8.5-1.9-9s-4.5 2.1-4.5 2.7" style="fill:#a1d2d3"/><path d="M90.2 67.3c-.5.5.5 4.1 1.9 7s4 6.6 5.3 6.3c.6-.1 1.2-1.8 3.3-4.6q3.5-4.5 3.7-5.2c0-.8-5.6-3.2-6.3-3.3-.6 0-1.9 4.3-1.9 4.3l-.8-4.2c-.8-.7-4.8-.8-5.2-.3" style="fill:#56c2f9"/><path d="M98.3 59.9c1.5.4 3.8.6 5 1 3.8 1.4 5.4 2 6.2 2 1 0 1.7-7.5.6-8.2-1.5-.9-10 2.6-10.5 2.2-.3-.2.2-10.5-.6-11.4-1-.9-1.6 0-3.4.5-.7.2-2.7.8-2.9 1.2A39 39 0 0 0 96 57c.4 1 1.5 2.7 2.3 2.9" style="fill:#907afa"/><path d="M109.4 46c0 .5 7.9 9.6 8.4 9.8.5.1 3.5-3.4 3.4-4-.1-.8-6.7-5.8-6.7-6.3s7.3-6 7-6.6c-.1-.5-3.3-3.5-4-3.4-.9.1-8 9.2-8 10.5" style="fill:#dcbcf6"/></svg>