<svg xml:space="preserve" width="16" height="16" viewBox="0 0 128 128"><path d="M98.3 98.3H29.7L4 124h120z" style="fill:#bdbdbd"/><path d="M33.3 124h-5L44 100.6l2.6 2z" style="fill:#e0e0e0"/><path d="M37 124h-5.1L47 101.2l2.6 2z" style="fill:#616161"/><path d="M94.7 124h5L84 100.6l-2.6 2z" style="fill:#e0e0e0"/><path d="M91 124h5.1L81 101.2l-2.7 2z" style="fill:#616161"/><path d="M33.7 101s-7 5.3-5.9 8.8 14.3 8.2 33.3 8.2c23.8 0 38-5 39.7-8.9 1.6-4-7-9.4-7-9.4z" style="opacity:.4;fill:#212121"/><path d="m41.5 100.8.6 4.4s9.9.8 22.2.8 21.7-1 21.7-1v-5zm7-7.5h31.6l-3.5 15H51.4zm-7.8.6v-.1s-4.7 0-5 .9-1.2 7.9.1 14.2q.3 1.2 1.2 1.4h1.8c.7 0 1.4-.4 2.5 2 1 1.9 2.8 1.6 2.8.6v-19zm47 0v-.1s4.7 0 5 .9 1.2 7.9-.1 14.2q-.2 1.2-1.2 1.4h-1.8c-.7 0-1.4-.4-2.5 2-.9 1.9-2.7 1.6-2.7.6v-19z" style="fill:#455a64"/><path d="M100.9 88.2V41a5 5 0 0 0-5-5H32.2a5 5 0 0 0-5 5v47l-2.5 6.7s7.8 6 39.3 6 39.6-6 39.6-6z" style="fill:#ffca28"/><path d="M73.7 17H55q-1.6-.1-1.7-1.6.2-1.6 1.7-1.7h18.6q1.6.2 1.7 1.7-.2 1.6-1.7 1.7" style="fill:#82aec0"/><path d="m57.7 20.7-2-14.6m15.2 14.4 1.6-14.8" style="fill:none;stroke:#82aec0;stroke-width:3;stroke-miterlimit:10"/><path d="M78.3 9.6q-.6.5-1 0c-1-.7-2.5-1.7-3.4-2-.5-.1-2.5-.6-9-.6-5.8 0-9.8.3-10.8.6a10 10 0 0 0-3 2.2q-.5.6-1.2.2a1 1 0 0 1-.3-1.4c.7-1.3 2.1-3.5 3.7-4 2.2-.8 10-.8 11.6-.8 3.4 0 7.8.1 9.8.8 1.6.5 3 2.7 3.7 3.9q.4.7-.1 1.1" style="fill:#82aec0"/><path d="M27.2 31.2v25h73.7V31.8l-35.3-7.2z" style="fill:#eee"/><path d="m24.5 31.2 2.7 2.6s13.3-4.4 36.7-4.4 37 4.1 37 4.1l2.6-2.6C102 24.6 96.2 19.6 79 19.6H46.5c-13.8 0-20.5 6.5-22 11.6" style="fill:#9e9e9e"/><path d="M24.5 31.2s16.1-5.4 39.4-5.4 39.6 5 39.6 5c-1.5-6.1-7.3-13-24.5-14.2a159 159 0 0 0-32.6 0c-13.7 1-20.5 8.4-22 14.7" style="fill:#bdbdbd"/><path d="M103.5 100.8s-9 3-39.6 3-39.4-3-39.4-3v-6s18.9 3 39.6 3 39.4-3 39.4-3z" style="fill:#82aec0"/><circle cx="81.3" cy="84.1" r="5" style="fill:#fffde7"/><circle cx="46.7" cy="84.1" r="5" style="fill:#fffde7"/><path d="M59 20h10c2.4 0 4.4 2 4.4 4.3v3c0 2.4-2 4.3-4.4 4.3H59a4.3 4.3 0 0 1-4.3-4.3v-3c0-2.4 1.9-4.3 4.3-4.3" style="fill:#37474f"/><path d="M61.7 22.3h4.6c2 0 3.8 1.6 3.8 3.5s-1.7 3.5-3.8 3.5h-4.6c-2 0-3.8-1.4-3.8-3.5s1.7-3.5 3.8-3.5" style="fill:#ffca28"/><path d="M38.6 39.6c17.7-3.3 33.2-3.3 50.8 0V70a132 132 0 0 1-50.9 0z" style="fill:#bae2fd"/><path d="M64 73.8c-6.2 0-18-.7-23.6-1a3.5 3.5 0 0 1-3.3-3.6v-28q.2-2.7 2.8-3.5C43.6 37 51 36 63.5 36c12.9 0 20.7 1 24.5 1.8 1.7.3 3 1.8 3 3.5v27.9c0 1.9-1.5 3.4-3.4 3.5A356 356 0 0 1 64 73.8m-21.7-5.5a262 262 0 0 0 43.4 0 2.6 2.6 0 0 0 2.3-2.7V44q-.2-2.1-2.2-2.6a128 128 0 0 0-43.6 0A2.6 2.6 0 0 0 40 44v21.7c0 1.4 1 2.6 2.3 2.7" style="fill:#37474f"/><path d="M62.2 39.5h2zm3 0h-1z" style="fill:#6fbff0"/><path d="M88 44c0-1.4-1-2.5-2.2-2.7q-10.7-1.8-21-1.8H62q-9.5 0-19.7 1.8A2.6 2.6 0 0 0 40 44v3.7a99 99 0 0 1 22.4-2.5v24.1h3V45.1c12.2.1 20.3 1.4 22.6 1.8zM55.5 58.9c-1.3-.4-2.8-.2-2.8-.2-1 0-2.4.8-3 1.6-.4.5-1.3.6-1.7 0a4 4 0 0 0-2.7-1.4s-2.5-.5-4.2.4l-1 .5v5.9c0 1.3 1 2.5 2.3 2.6 6 .5 11.4.8 17.2.8 0-1.4 0-4.7-.5-6.7a4 4 0 0 0-3.6-3.5m30.5 0-.7-.2v-.2c-.1-1 .4-1.2.5-2l.3-1.2c0-1.7-1.2-3-2.7-3q-.8 0-1.5.5a3.4 3.4 0 0 0-1 3.7q.8 1.1 1.2 2.4-1.3.4-2.5 1.5-1 .8-2 0a4 4 0 0 0-2.3-1.5s-1.2-.3-2.6-.2C71.3 59 69 60 68.4 62c-.4 1.4-.6 5.8-.6 7.2q8.7-.2 17.8-1a3 3 0 0 0 2.4-2.6V60q-1-.8-2-1" style="opacity:.66;fill:#82aec0"/></svg>