<svg xml:space="preserve" width="16" height="16" viewBox="0 0 128 128"><path d="M83 124H45a9.5 9.5 0 0 1-9.6-9.5v-101C35.4 8.3 39.7 4 45 4h38c5.3 0 9.6 4.3 9.6 9.5v101c0 5.2-4.3 9.5-9.5 9.5" style="fill:#424242"/><circle cx="64" cy="102.9" r="13.4" style="fill:#4caf50"/><path d="M54.6 104c-1.1-.3-1.4-4.3 1.3-7.5 4-4.8 9.7-4.6 10.3-2.1.8 3.6-3.7 2.2-7.1 5-2.2 1.8-2.6 5.3-4.5 4.7" style="fill:#6fd86f"/><circle cx="64" cy="66.2" r="13.4" style="fill:#ffca28"/><path d="M54.6 67.4c-1.1-.4-1.4-4.4 1.3-7.6 4-4.8 9.7-4.6 10.3-2.1.8 3.6-3.7 2.2-7.1 5-2.2 1.8-2.6 5.3-4.5 4.7" style="fill:#fff59d"/><circle cx="64" cy="29.5" r="13.4" style="fill:#f44336"/><path d="M54.6 30.7c-1.1-.4-1.4-4.4 1.3-7.6 4-4.8 9.7-4.7 10.3-2.1.8 3.6-3.7 2.1-7.1 5-2.2 1.8-2.6 5.3-4.5 4.7" style="fill:#ff8155"/><path d="M49.5 23.1c-.5 1-2 .9-1.8-.5.3-3.4 2.3-6 3.9-7.7a17.3 17.3 0 0 1 24.9 0c1.5 1.6 3.8 5.3 3.8 7.8 0 1.1-1.3 1.4-1.7.5-1.2-2.2-4.7-9.5-14.6-9.5S50.6 20.9 49.5 23m0 73.6c-.5 1-2 .9-1.8-.5.3-3.4 2.3-6 3.9-7.7 3.1-3.4 7.8-5.2 12.4-5.2s9.3 1.8 12.4 5.2c1.6 1.6 3.9 5.3 3.9 7.8 0 1.1-1.3 1.4-1.7.5-1.2-2.2-4.7-9.5-14.6-9.5s-13.4 7.2-14.5 9.4m0-36.7c-.5.9-2 .8-1.8-.6.3-3.4 2.3-6 3.9-7.7a17.3 17.3 0 0 1 24.9 0c1.5 1.6 3.8 5.3 3.8 7.9 0 1-1.3 1.4-1.7.5-1.2-2.3-4.7-9.6-14.6-9.6S50.6 57.7 49.5 60" style="fill:#757575"/></svg>