<svg xml:space="preserve" width="16" height="16" viewBox="0 0 128 128"><path d="M4 20.8v86.4a40 40 0 0 1 10.6-4.8q2.5-.8 5.1-1.3l4.9-.7 4.8-.2a68 68 0 0 1 9.1.7l4.4.7 4.3.9 4.2 1.1 4.2 1.2 4.2 1.2 4.2 1.2 4.2 1.2 4.2 1.2 4.2 1.2 4.2 1.1 4.3.9 4.4.7 4.5.5 4.6.2 4.8-.2q2.4-.2 4.9-.7t5.1-1.3c2.6-.9 3.5-1.2 5.2-2s3.6-1.7 5.4-2.8V20.8a58 58 0 0 1-10.6 4.9q-2.6.8-5.1 1.3c-2.5.5-3.3.5-4.9.7s-3.2.2-4.8.2l-4.6-.2-4.5-.5-4.4-.7-4.3-.9-4.2-1-4.2-1.1-4.2-1.2-4.2-1.2-4.2-1.2-4.2-1.2-4.2-1.1-4.2-1-4.3-.9-4.4-.7-4.5-.5-4.6-.2-4.8.2q-2.4.2-4.9.7t-5.1 1.3a37 37 0 0 0-5.2 2Q6.8 19 4 20.8" style="fill:#f2f2f2"/><linearGradient id="a" x1="5.4" x2="122.4" y1="736.6" y2="819.1" gradientTransform="translate(0 -714)" gradientUnits="userSpaceOnUse"><stop offset="0" style="stop-color:#fff;stop-opacity:0"/><stop offset=".2" style="stop-color:#c8c8c8;stop-opacity:.1646"/><stop offset=".4" style="stop-color:#828282;stop-opacity:.3934"/><stop offset=".6" style="stop-color:#4a4a4a;stop-opacity:.5997"/><stop offset=".8" style="stop-color:#222;stop-opacity:.7759"/><stop offset=".9" style="stop-color:#090909;stop-opacity:.9151"/><stop offset="1" style="stop-color:#000"/></linearGradient><path d="M124 107.2q-10.5 6.3-22.6 6.9c-12.1.6-16-1-23.8-3-15.8-4-31.4-10.8-48-10.9-9 0-17.8 2.3-25.6 7V20.7c.2-.4 1.3-.7 1.6-.9L9.1 18a47 47 0 0 1 15.1-4C34.7 13 45 15.3 55 18.1c20 5.6 41.5 14.5 62.1 6.1q3.6-1.4 6.8-3.5v85.2z" style="opacity:.3;fill:url(#a)"/><g style="opacity:.2"><path d="M120 27v78.3l-.7.3-1.4.6-3.4 1.3c-16.4 5.6-33.4.7-49.2-4.1-16.4-4.9-34-10.5-51-5.1q-3.2 1-6.2 2.5V23.1q-.1-.7.7-1a38 38 0 0 1 6.4-2.4c16-4.8 32.5 0 48 4.7 16.3 4.9 33.8 10.4 50.7 5q3-.9 6.1-2.4m4-6.2a50 50 0 0 1-30 6.8c-10.7-.8-21-4.1-31.1-7.1a129 129 0 0 0-31.2-6.6A52 52 0 0 0 4 20.8v86.4a51 51 0 0 1 30.2-6.8c10.7.8 21.1 4.1 31.3 7.2s20.5 6.1 31.2 6.5a51 51 0 0 0 22.8-4.5l3.2-1.7c.3-.2 1.2-.5 1.3-.8v-.4q.2-2.7 0-5.5c-.2-2.8 0-3.7 0-5.5z" style="fill:#424242"/></g><path d="M58 73.7c0-3.1.2-6.6 1.7-9.3 1.7-3 4.8-4.2 7.4-6.2q4.1-3.2 3-8.3a9 9 0 0 0-6.2-6.3q-2.4-.8-4.6.4c-1.4 1-1.8 2.8-1.9 4.5a144 144 0 0 0-11-2.9q-.8 0-.5-.8l.1-1.2q.2-2.3 1-4.3c2.6-6.3 9.6-7 15.5-5.5a28 28 0 0 1 16.1 9.9c3.6 4.9 5.1 12.8 1.4 18.1-2 2.8-5 4.7-7.8 6.6a8 8 0 0 0-3.2 3.7q-.8 2.3-.8 4.8zm-1.1 12c0-2.5 1.5-4.5 4.1-4.6a9 9 0 0 1 7.2 3.6c1.5 2 2.5 5.3 1 7.6-1.5 2.4-4.7 1.9-6.9 1a9 9 0 0 1-5.4-7.6" style="fill:#0071bc"/></svg>