<svg xml:space="preserve" width="16" height="16" viewBox="0 0 128 128"><path d="M14.7 40.5s-11 19.3-10 35.7 5.4 20.6 15.8 25.5c10.4 5 10.6-49.5 10.6-49.5zm98.1-2.5L98.4 54s2.3 48.9 4.7 49.3 14.5-4.8 18.3-12.6 2.2-20.7 1.3-25.2a201 201 0 0 0-9.9-27.5" style="fill:#ffd2b1"/><path d="M64.2 8.8c-10.4-.1-20 3.3-20 3.3S26.7-.6 14.9 9.5C0 22.2 13.2 40.8 14.3 42s6.2 13.3 6.2 13.3-3.1 12-3.2 20.5c-.3 11.9 2.3 25.5 2.3 25.5s5 2.3 9.5 3.8c3.6 1.2 5.9 1.5 7.1 2.5 1.3 1 9.5 12.4 19 14 8.5 1.3 22 .4 29.3-7.4 5.7-5.9 6.8-7.4 7.8-8s13.3-3.3 13.3-3.3S110 82.2 110 73s-1.3-16-1.3-16l4.8-12.4s15.5-19.9 1.3-32c-13-11.1-27.9.8-27.9.8S75.5 9 64.2 8.8" style="fill:#ff8e01"/><path d="M19 16.4c8.5-7.3 15.7-.1 15.7.6 0 .3-5 3.2-8.9 6.9-4.2 3.9-7.4 8.6-7.8 8.6-.9 0-6.4-9.6 1-16m90.5 1.9c-5.2-4.8-13.7-.7-14 0-.1.3 4.5 3.5 8 7 3.7 3.6 6.8 7.7 7 7.8.7.1 6-8.3-1-14.8" style="fill:#ff6011"/><path d="M39.8 87.4s-.3 28.5 22.8 27.8C89.8 114.4 86 88.6 86 88.6z" style="fill:#ffd2b1"/><path d="M63.4 81.2S45 90.9 45 90.3c0-.2 4.6 3.3 9.4 7 5.2 4.1 18.7 1.2 18.7 1.2l9-8z" style="fill:#fea7a5"/><path d="M64.6 64.1S42 53.3 34.4 64s0 21.3 5.4 23.5 13.8 9.4 13.8 9.4 1.4-3 1.3-4.4l-1.2-5.7 9.7-5.5 8 7.1s-1.2 7.2-.6 8 4.9-1 4.9-1l2.2-7s5.4-.3 9-.7 10.9-5.3 10-13.9-8.5-13.5-14.5-13.4c-5.9.2-17.8 3.8-17.8 3.8" style="fill:#fff"/><path d="M90.9 86.7c-.6-1.5-10.2-1.9-16.4-5.5-6.5-3.9-6-8.3-6-8.3s4.7-2.4 8.9-5.5 7.8-6.9 6.6-8.9c-2.8-4.8-11.5 1.6-19.9 1.1-8-.4-18.6-5.2-20.4-2.6-1.9 2.7 1.9 7 6.4 10.2 4.5 3.3 9.7 5.5 9.7 5.5s0 5.7-7.2 8.8c-8 3.4-15.6 3.2-16 3.6-1.5 1.3.5 2.7 2 3.3 1.6.5 3.3.5 3.3.5s1.3 11 21.5 11.4c19.8.4 20.5-9.8 20.5-9.8s2-.4 3.8-1.1 3.6-1.7 3.2-2.7m-27.8 9c-11.6-.2-15.6-5.5-15.6-5.5s4.4 0 7.5-.7c3.8-.9 8.3-4.7 8.3-4.7s3.6 3.9 6.8 5c2.8 1 8 1.5 8 1.5s-3.3 4.5-15 4.4M48 41.6c0 3.5-3 6.3-6.5 7-3.5.5-6.7-2.6-6.5-7.1 0-3.5 3-5.7 6.6-5.7s6.3 2 6.3 5.8M87 48.2c-3.3-1-5.3-3.9-4.5-7.9q1.7-6.6 8.2-4.5c3.3 1.2 4.8 5.3 3.8 8.7-1 3-4 5-7.6 3.7m15.1-7.1c-1.3 1.6-5.2.4-5.7 2.5-.7 3 7.2 5.6 10.2 1.8 2.9-3.9-.4-12.5-3.1-10.6-1.7 1 0 4.7-1.4 6.3m7.5-2.8c-1 .5.2 3.9.6 6.5s0 7-1.5 8.8-2.9 1.3-2.9 1.3-3.5-6.4-5.4-3.8c-1.8 2.4 2 2.8 1.6 7.6-.5 4.8-3.8 7.1-.4 7.9 1.8.3 3.6-3 3.6-3s5.8.1 8.7-6.7c2.2-5.2.8-9-.2-13s-3.7-5.8-4.1-5.6m.5 30.9c-3.5 4-8.8 8.4-9.2 9.5s-.3 3.7 4.8 2.9 10-5.6 11.6-8.6c2-3.9 2.8-10.4 1.7-12.7-1.2-2.4-3.2-1.2-3.9.7a36 36 0 0 1-5 8.2M28.6 38.8c-.1-2.4 2.2-4.4.8-5.6-1.9-1.7-7 2.8-5.3 8.1s7.9 4.7 9 3.9c1.6-1.4.4-2.7-.6-3.1-1.4-.7-3.9-1-4-3.3m-4.6 13.8s2.1-3.6 4-2c1.7 1.4-2.2 4-1.8 8.3s3 7.5 1.7 8.7c-1.7 1.7-4.3-1.9-5.1-3.2-.9-1.3-1.5-3-1.5-3s-5.8-4.9-6.8-10.8c-.8-4.5.5-9.8 3.3-12.4 1.9-1.7 2.9-1.7 3.6-1 1.2 1.2-1.8 5.7-.8 10.1 1 4.5 3.4 5.3 3.4 5.3m-4.1 17.1c-2.5-3.3-7.1-10.8-8.9-10.2-2 .8-1.7 10.6 3.2 16.2 6.2 7.1 14.2 7 15.1 4.1.7-2.1-4.9-4.5-9.4-10.1M58.4 9s.7 5-4.9 6.7-9-.4-8.7 4c0 2.3 2.5 3.5 4.9 3.6s4.8-.7 6.1-1.3c2.8-1 7.3-6.7 8.1-6.8s3.2 3.8 8 6c2.2.9 5 1.7 7.2 1.4s4.2-1.8 4-4.8c-.1-2.2-3.3-1.1-8.7-2.8s-4.6-5.8-4.6-5.8-4-.4-6-.4zm5.8 11c-1.1 0-3.7 3.5-6.2 4.7s-7.7 1.5-8.4 3.7c-.6 2.3 1.4 5 6.7 4.3 5.6-.8 7.4-5.1 8.1-5.2.7 0 3 5.1 9 5.6 5.2.4 6.7-4 5-5.5-2.2-2-6.2-2.5-8.2-3.4-2.4-1.1-5-4.2-6-4.2" style="fill:#2f2f2f"/></svg>