<svg xmlns:xlink="http://www.w3.org/1999/xlink" xml:space="preserve" width="16" height="16" viewBox="0 0 128 128"><path d="M98.5 79.5c-1.2-2.3.3-4.6 2.9-7.5 4.1-4.6 8.4-15 3.9-25.4 0 0-1-1.8-.9-1.9h-1.7a3159 3159 0 0 0-77.4 0l-2.6 1.9a25 25 0 0 0 4 25.4c2.5 2.9 4 5.2 2.8 7.5S24.6 82 24.6 82s.8 2.3 2.8 3.5c1.8 1.1 4 1.4 5.6 1.5 0 0 6 8.7 22 8.7h18c16 0 22-8.7 22-8.7 1.6 0 3.8-.4 5.6-1.5 2-1.2 2.8-3.5 2.8-3.5s-3.6-.4-4.9-2.6" style="fill:#3c2c23"/><radialGradient id="a" cx="99.7" cy="45.2" r="23.6" gradientTransform="matrix(1 0 0 .491 -21.22 59.61)" gradientUnits="userSpaceOnUse"><stop offset=".7" style="stop-color:#554138;stop-opacity:0"/><stop offset="1" style="stop-color:#554138"/></radialGradient><path d="M64 95.8V86l28.3-2.3L95 87s-6 8.8-22 8.8z" style="fill:url(#a)"/><radialGradient id="b" cx="78.4" cy="52.5" r="6.9" gradientTransform="rotate(155 85.47 61.17)scale(1 .742)" gradientUnits="userSpaceOnUse"><stop offset=".7" style="stop-color:#554138"/><stop offset="1" style="stop-color:#554138;stop-opacity:0"/></radialGradient><path d="M94.8 82.8c-4.3-6.5 5-9 5-9q-2.6 3-1.3 5.7c1.3 2.2 4.8 2.6 4.8 2.6s-4.7 4.4-8.5.7" style="fill:url(#b)"/><radialGradient id="c" cx="97.2" cy="69" r="30" gradientTransform="rotate(-94.3 90.8 64.7)scale(1 .833)" gradientUnits="userSpaceOnUse"><stop offset=".7" style="stop-color:#554138;stop-opacity:0"/><stop offset="1" style="stop-color:#554138"/></radialGradient><path d="M105.3 46.6a25 25 0 0 1-3.7 25.1c-.5.6-2.9 3-3.4 5 0 0-9.6-13.3-12.5-21q-1-2.4-1.2-4.8-.2-2 .8-3.7c.8-1.3 19.5-1.7 19.5-1.7z" style="fill:url(#c)"/><radialGradient id="d" cx="46.8" cy="71.4" r="30" gradientTransform="rotate(94.3 -.69 101.7)scale(-1 .833)" gradientUnits="userSpaceOnUse"><stop offset=".7" style="stop-color:#554138;stop-opacity:0"/><stop offset="1" style="stop-color:#554138"/></radialGradient><path d="M22.7 46.6a25 25 0 0 0 3.7 25.1c.6.6 2.9 3 3.4 5 0 0 9.6-13.3 12.5-21q1-2.4 1.2-4.8.3-2-.8-3.7c-.8-1.3-1.8-1-3.3-1-2.8 0-15-.7-15.9-.7z" style="fill:url(#d)"/><radialGradient id="e" cx="51.5" cy="45.2" r="23.6" gradientTransform="matrix(-1 0 0 .491 101.04 59.61)" gradientUnits="userSpaceOnUse"><stop offset=".7" style="stop-color:#554138;stop-opacity:0"/><stop offset="1" style="stop-color:#554138"/></radialGradient><path d="M64 95.8V86l-28.3-2.3L33 87s6 8.8 22 8.8z" style="fill:url(#e)"/><radialGradient id="f" cx="26.4" cy="51.3" r="6.9" gradientTransform="rotate(205 4.64 52.3)scale(-1 .742)" gradientUnits="userSpaceOnUse"><stop offset=".7" style="stop-color:#554138"/><stop offset="1" style="stop-color:#554138;stop-opacity:0"/></radialGradient><path d="M33.2 82.8c4.3-6.5-5-9-5-9 1.6 2.1 2.3 3.9 1.3 5.7-1.3 2.2-4.8 2.6-4.8 2.6s4.7 4.4 8.5.7" style="fill:url(#f)"/><linearGradient id="g" x1="64" x2="64" y1="34.2" y2="-7.6" gradientTransform="matrix(1 0 0 -1 0 130)" gradientUnits="userSpaceOnUse"><stop offset="0" style="stop-color:#448aff"/><stop offset=".4" style="stop-color:#3b7dff"/><stop offset="1" style="stop-color:#2962ff"/></linearGradient><path d="M116 124v-3.2c0-16.7-26.3-25-52-25-25.5 0-52 7.3-52 25v3.2z" style="fill:url(#g)"/><path d="M64 90.1h-9v10c0 4.5 3.6 8.2 8.2 8.2h1.6c4.6 0 8.3-3.7 8.3-8.2V90z" style="fill:#7a4c32"/><linearGradient id="h" x1="44" x2="44" y1="31.8" y2="-5.9" gradientTransform="matrix(1 0 0 -1 0 130)" gradientUnits="userSpaceOnUse"><stop offset="0" style="stop-color:#ff9100"/><stop offset=".4" style="stop-color:#ff8400"/><stop offset="1" style="stop-color:#ff6d00"/></linearGradient><path d="M58.5 124h-29v-22.8q2.7-1 5.7-1.8a83 83 0 0 1 15.6-3z" style="fill:url(#h)"/><linearGradient id="i" x1="43.1" x2="43.1" y1="32.1" y2="-6.7" gradientTransform="matrix(1 0 0 -1 0 130)" gradientUnits="userSpaceOnUse"><stop offset="0" style="stop-color:#ff0"/><stop offset=".7" style="stop-color:#fff200"/><stop offset="1" style="stop-color:#ffea00"/></linearGradient><path d="M51 124H36.3l-1.1-24.6q4.4-1.3 9-2z" style="fill:url(#i)"/><linearGradient id="j" x1="84" x2="84" y1="31.8" y2="-5.9" gradientTransform="matrix(1 0 0 -1 0 130)" gradientUnits="userSpaceOnUse"><stop offset="0" style="stop-color:#ff9100"/><stop offset=".4" style="stop-color:#ff8400"/><stop offset="1" style="stop-color:#ff6d00"/></linearGradient><path d="M98.5 101.5V124h-29l7.7-27.5a97 97 0 0 1 21.3 5" style="fill:url(#j)"/><linearGradient id="k" x1="84.9" x2="84.9" y1="32" y2="-6.6" gradientTransform="matrix(1 0 0 -1 0 130)" gradientUnits="userSpaceOnUse"><stop offset="0" style="stop-color:#ff0"/><stop offset=".7" style="stop-color:#fff200"/><stop offset="1" style="stop-color:#ffea00"/></linearGradient><path d="m92.8 99.6-1 24.4H77l6.7-26.6q4.7.9 9.1 2.2" style="fill:url(#k)"/><path d="M91.3 50.4H36.7c-6 0-10.7 5.2-10.7 11.4s4.8 11.5 10.7 11.5h54.6c6 0 10.7-5.2 10.7-11.5s-4.8-11.4-10.7-11.4" style="fill:#7a4c32"/><path d="M64 11.1c-17.4 0-33.5 18.6-33.5 45.4C30.5 83.1 47 96.3 64 96.3s33.5-13.2 33.5-39.8c0-26.8-16.1-45.4-33.5-45.4" style="fill:#a56c43"/><ellipse cx="48.4" cy="58.8" rx="4.9" ry="5.1" style="fill:#42312c"/><ellipse cx="79.6" cy="58.8" rx="4.9" ry="5.1" style="fill:#42312c"/><path d="M55.6 49.8c-.9-1.2-3-3-7.2-3s-6.3 1.8-7.2 3q-.5 1 0 1.6t1.9.4c1.5-.2 2.5-1.2 5.3-1.2s4.5.9 5.4 1.2q1.3.3 1.9-.4.4-.6 0-1.6m31.1 0c-.9-1.2-3-3-7.2-3s-6.3 1.8-7.2 3q-.5 1 0 1.6t1.8.4c1.4-.2 2.6-1.2 5.4-1.2s4.5.9 5.4 1.2q1.3.3 1.8-.4t0-1.6" style="fill:#42312c"/><path d="M67.9 68H60q-1 .5-.6 1.7c.3.7 1.7 2.7 4.5 2.7s4.3-2 4.6-2.7q.3-1.2-.7-1.6" style="fill:#875334"/><path d="M72.4 76.1a26 26 0 0 1-16.8 0c-1.8-1-3.7.6-3 2.3s6.5 5.4 11.4 5.4 10.6-3.8 11.3-5.4-1-3.4-2.9-2.3" style="fill:#473530"/><path d="M64 11c-37.3 0-34.7 41.5-34.7 41.5-.5 8 1 13 1.8 15q.3.4.7-.1c1-4 4.4-17.8 4-20.2 0 0 11.4-2.3 22.2-10.3a32 32 0 0 1 7.1-4c13.6-5.4 16.5 3.8 16.5 3.8S91 35 93.8 48c1 5 1.8 12.8 2.4 18.3 0 .3.6.4.7 0 1-2.1 3.1-6.4 3.3-10.8C101 40.7 92.2 11 64 11" style="fill:#3c2c23"/><radialGradient id="l" cx="64" cy="98.3" r="34.6" gradientTransform="matrix(1 0 0 -.98 0 127.58)" gradientUnits="userSpaceOnUse"><stop offset="0" style="stop-color:#ff0"/><stop offset=".3" style="stop-color:#fff600"/><stop offset=".9" style="stop-color:#ffde00"/><stop offset="1" style="stop-color:#ffd600"/></radialGradient><path d="M64.4 8C17.6 8 21.2 54.3 21.2 54.3s12.2-10.8 43.5-10.8 42 9.7 42 9.7S111.3 8 64.5 8" style="fill:url(#l)"/><linearGradient id="m" x1="64.3" x2="64.3" y1="125.3" y2="88.2" gradientTransform="matrix(1 0 0 -1 0 130)" gradientUnits="userSpaceOnUse"><stop offset="0" style="stop-color:#ff0"/><stop offset=".4" style="stop-color:#fff900"/><stop offset="1" style="stop-color:#ffea00"/></linearGradient><path d="M74.7 42.2H54V9a5 5 0 0 1 5-5h10.8a5 5 0 0 1 5 5z" style="fill:url(#m)"/><defs><path id="n" d="M64.4 8C17.6 8 21.2 54.3 21.2 54.3s12.2-10.8 43.5-10.8 42 9.7 42 9.7S111.3 8 64.5 8"/></defs><clipPath id="o"><use xlink:href="#n" style="overflow:visible"/></clipPath><path d="m47.1 10.2 7-2.3v23.3c-1.4-10-3.5-17.3-7-21" style="opacity:.5;clip-path:url(#o);fill:#edbf00"/><defs><path id="p" d="M64.4 8C17.6 8 21.2 54.3 21.2 54.3s12.2-10.8 43.5-10.8 42 9.7 42 9.7S111.3 8 64.5 8"/></defs><clipPath id="q"><use xlink:href="#p" style="overflow:visible"/></clipPath><path d="m81.7 10.2-7-2.3v23.3c1.5-10 3.5-17.3 7-21" style="opacity:.5;clip-path:url(#q);fill:#edbf00"/><path d="m109.5 51-1-1C90.4 39.6 64 40 64 40s-26.4-.4-44.5 10q-.6.4-1 1c-.6.9-1 2.6.7 5 0 0 11-10.8 44.8-11.5 33.8.7 44.8 11.6 44.8 11.6 1.7-2.5 1.3-4.2.7-5.1" style="fill:#ffea00"/></svg>