<svg xml:space="preserve" width="16" height="16" viewBox="0 0 128 128"><path d="M38.4 78.8c6-2.6 28.8-6.4 30-14 1.8-12-18-12.8-26.7-13.3Q26.3 50.6 16.1 41C6.3 32.5 2 11.7 14.5 3.8c0 0-.6 10.4 7 14.4 18.8 9.8 42.2-.6 61.9 6.9 11 4 17.6 15.7 13.9 27-2.3 10.7-17 20.5-31 22.7z" style="opacity:.5;fill:#bdbdbd"/><path d="M118.6 119.9H18.2V96.8h100.4s5.4 2 5.4 11.5-5.4 11.6-5.4 11.6" style="fill:#eee"/><linearGradient id="a" x1="71.1" x2="71.1" y1="126.6" y2="112.3" gradientUnits="userSpaceOnUse"><stop offset="0" style="stop-color:#bdbdbd"/><stop offset="1" style="stop-color:#bdbdbd;stop-opacity:0"/></linearGradient><path d="M118.6 119.9H18.2V96.8h100.4s5.4 2 5.4 11.5-5.4 11.6-5.4 11.6" style="fill:url(#a)"/><path d="M118.6 96.8H92.8s5.4 2 5.4 11.5-5.4 11.6-5.4 11.6h25.8s5.4-2 5.4-11.6-5.4-11.5-5.4-11.5" style="fill:#f19534"/><path d="m123.6 112.6-.6-.7q-.6-.7-1.7-.6l-.6.2q-.4.3-.3.9c0 .3 1 1.8 1.1 5q1.3-1.5 2-4.8m-17.3-3.1q.7.6.9 1.5 0 1-.7 1.7l-1.5 1.5q-.3.3-.7.3-.7-.2-.9-1.1l-1-6c.8-1 3.5 1.8 3.9 2.1m8.1-2.2 1.5-1.3q.7-.8.6-1.9l-.2-.5h-.6l-4.2 1.6-.3.5-.2 1.6c0 2.1 2.4.5 3.4 0m-7.1-6.6q-.1.4-.7.7-1.3.5-2.7.5c-1.2 0-4.4-2.3-2-2.6 1-.1 5.5.3 5.4 1.4m3.5 12.9c.4-.3 1.2 0 1.6.3 1.8 1.3 2.2.8 3.4.4 1.4-.5 1.3.5.8 1.3s-3 2.4-4.4 2.1c-.8-.2-1.9-3.7-1.4-4.1m13.3-5.7c0-3.7-1-6.4-2-8l-.6.3c-.5.3-1.5 2.6-1.4 3.1.2 1 3 3.6 4 4.6m-12-9.2c1.1 1.2 1.9.2 2.1-.3q.4-.7.2-1.6h-4.5c.7.5 1.3.9 2.3 2m-12.6 18.9c.9-.6 2.2-.8 2.9 0l2 2.2h-6.3q.8-1.7 1.4-2.2" style="fill:#ffcc80"/><path d="M24.6 104.9c-.6-.8-1.8-1.2-2.2-2.1-.6-1.2.2-2.7-.2-3.9-.4-1.3-2-1.7-3.3-2q-1.3-.3-2.6 0l-1 .4c-1.2.4-2.5 0-3.8.1q-1.3.1-2.2 1l-.7 1.2c-.5.6-1.3.7-2 1.2q-1 .6-1.6 1.6c-.5 1.1.2 2.5 0 3.7l-.8 2v.2q-.5 1.7.4 3.3 1 1.2 1.7 2.5c.3.8 0 1.8.3 2.6q.6 1.2 1.9 1.3l4.5.9 2.5 1a8 8 0 0 0 5.7-.6q1.2-.6 1.3-1.8v-.6q.2-.4.5-.6.8-1.2.3-2.8-.5-1.4-.2-2.7.3-.8.9-1.5a6 6 0 0 0 1-2.4q.2-1.1-.4-2" style="fill:#607d8b"/><path d="M7.7 115.2c.3 1.7 4 2.8 3.7.3-.3-1.5-1.2-1.8-1.6-2.6q-.7-.8-.1-1.5c.4-1 .8-2.5 0-3.2-1.5-1.4-3.8.2-2.9 2 .4.9 1.7 1 2 1.9.4 1.2-1.4 1.8-1 3m6.5-14.7c.3.8 0 2 .3 2.8.5 1.4 2 1.2 2.8 3.3.4 1.3.6 3.3-.8 4.7q-.9.8-1.5.4-1.3-1-.6-3.3 0-.3-.3-.4-1.2-.6-1-1.8c.1-1.3 1.3-1.8 1-2.9q-.3-1.2-1.6-1.1c-.6 0-.5.5-1.3.9-.6.3-1.4-.6-2-.4s0 2.2-1.2 2.8q-.8.1-1.2-.8c-.4-.7-.2-1.9.6-2.3.6-.3 1.1.3 1.8-.1s.4-2.1 1.2-2.9c1.5-1.2 3.3-.5 3.8 1.1" style="fill:#f44336"/><path d="M16.3 79.8c7-9.1 18.7-11.6 29-15.1 3.8-1.4 10-3.7 9-7.8-1.3-6-13-5.2-17.6-6A36 36 0 0 1 11 34.7c-4.6-7.2-7.6-23.6 3.5-30.9 0 0-7 10 6.8 22.7 15.3 14.3 40.8 3.8 58.2 15 20.7 14.6 2.3 30.8-16.4 33.7q-12.8 2-25.3 3.7c-11 1.5-19.4 3.9-25.5 13.7-.6-4.7 1.1-9.1 4-12.8" style="opacity:.5;fill:#bdbdbd"/><path d="M19.9 98c.8.4 1.6 1.2 1.4 2.1q-.1.7-.5 1.2-.5 1.6.8 3c.7.5 1.7.7 2 1.6.5.8 0 1.7-.6 2.4-.8 1-2 2-2 3.3q0 .9.7 1.8l.4.7q0 .5-.2.9l-.6.4q-.7.6-.6 1.5c0 .6 0 1.6-.3 2a6 6 0 0 1-2.6 1c1.3 0 3.8.5 4.4-1l.3-1c.3-.7 1.2-1 1.9-1.7q1-.8 1-2.1v-1.8c0-1.6 1.4-1.8 2.3-2.9q.7-.7.8-1.8l-.1-1.5a6 6 0 0 0-2-2.9c-1-.7-2.2-1.4-2.2-2.5v-1c.1-1.8-1.6-2.1-2.7-2.5-1-.5-3.8-.4-3.8-.4q1 .7 2.2 1.2" style="fill:#424242"/><linearGradient id="b" x1="108.4" x2="108.4" y1="126.6" y2="112.3" gradientUnits="userSpaceOnUse"><stop offset="0" style="stop-color:#a15d38"/><stop offset="1" style="stop-color:#a15d38;stop-opacity:0"/></linearGradient><path d="M118.6 96.8H92.8s5.4 2 5.4 11.5-5.4 11.6-5.4 11.6h25.8s5.4-2 5.4-11.6-5.4-11.5-5.4-11.5" style="fill:url(#b)"/></svg>