<svg xml:space="preserve" width="16" height="16" viewBox="0 0 128 128"><path d="M35.9 98.6c0-.2-1-14.3-1-23.6l.1-31-3.3-5.3c-1.6-2.4-4.8-8.5-4.9-8.8l1.8-.9s3.2 6.3 4.7 8.5l3.6 5.8.1.2v.3l-.1 31c0 9.3 1 23.4 1 23.5zm12.9 1-2-.2q.2 0-.1-6.5l-.2-3.6c-.5-7.2-1-14-1.1-24-.2-11.5 0-20.4.1-21.5a34 34 0 0 0-2.1-6.2 30 30 0 0 1-2.1-8.8l2-.2s.3 4.3 2 8.2c1.7 4.1 2.2 6.7 2.2 6.8v.2s-.3 9.3-.1 21.5c.1 10 .6 16.7 1 23.9l.3 3.5q.3 6.8.1 6.9m8.6-1.6-.8-42.4c-.1-5.5 0-11.4 0-12.3-.2-.8-1.2-4.8-1.4-8v-6.8l2 .1s-.2 4.2 0 6.4c.2 3.4 1.4 7.9 1.4 7.9v.3s-.1 6.4 0 12.3l.8 42.5zm12.1 0-.6-53.9 1-7.3q.6-3 .6-7.7h2q0 5-.6 8.1l-1 7 .6 53.9zm13.4.6h-2l-.2-27.2-.1-27V44s1-2.8 1.7-5.6l2.2-9 2 .4-2.2 9-1.7 5.7.1 26.8zm8.8-1.3-.5-52.5.1-.2 4.7-9c1.6-3.1 4-6.9 4.1-7l1.7 1c0 .1-2.5 3.9-4 6.9l-4.6 8.8.5 52zm-74 6.7-1.9-.8c.5-1.1 1.8-4.3 1.8-6v-8l-.1-25.7c0-8.9.3-25.7.3-25.9h2c0 .2-.3 17-.3 25.8l.1 25.8v8c0 2.5-1.9 6.6-2 6.8m90.6-2.9c0-.1-.2-17.9 0-27l.1-8.5c.2-10.4.5-26.1.3-28.3l2-.2c.2 2.3 0 16.9-.3 28.6l-.1 8.4c-.2 9.1 0 26.8 0 27zM60 55.4c-24.9 0-34.4-2.8-34.8-3H25s-3.2-2-6.7-3.3c-3.7-1.5-8-4.7-8.3-4.8l1.2-1.6s4.3 3.1 7.8 4.5c3.4 1.3 6.3 3 7 3.4 1 .3 11.8 3 37.6 2.8 25.4-.2 38-2.4 39.6-2.7l11.7-8.2 1.1 1.6-12 8.5h-.2c-.1 0-12.7 2.5-40.2 2.8zm4.6 8.6C36 64 26.4 61 25 60.5H11v-2l7.7.2 6.4-.2h.4c.1.1 8.9 3.5 39.2 3.5 30.5 0 38.5-2 38.6-2l13.6-3.6.5 1.9-13.6 3.6c-.3.1-8.2 2.1-39 2.1m-5.5 9.7c-25.3 0-32.2-2-34-2.9l-6.6 1.7c-4.2 1-8.2 1.1-8.3 1.2l-.1-2s3.9-.2 8-1.2l7-1.7.5-.2.4.4s5 3 37.4 2.7c33-.3 38.8-2.6 39-2.7l.3-.2h.3s2.5.5 6 .5l8.8.2-.1 2-8.7-.2c-3 0-5.3-.3-6-.4-1.6.5-9.5 2.5-39.6 2.8zM11.8 84.5l-.3-2s3.4-.5 6.8-1.3c3.3-.9 7.1-2.3 7.1-2.3l.3-.1h.3c.1 0 11.4 2.5 38.2 2 26.9-.7 38.7-2.5 38.8-2.6h.3l.2.1q-.2.1 6 1.7l8.4 2-.5 2-8.3-2-6-1.7c-2 .2-14 1.9-38.9 2.4-25 .5-36.4-1.5-38.3-1.9-1 .4-4.2 1.6-7.2 2.3-3.5.9-6.8 1.3-7 1.4M117 96.8l-8.5-3.8q-3.5-1.7-4.7-2.8l-.7.5h-.3c-.2 0-14.2.8-38.3 1.2C42 92.3 27 91.2 25 91l-12.8 5-.7-1.8L24.8 89h.2c.2 0 15.4 1.3 39.5.9 22-.4 35.6-1 37.8-1.1l1.5-1.3.6.6s1.9 1.7 4.9 3l8.4 3.9zM70.2 35.6h-6.6c-35.8-.4-46.6-1.4-46.7-1.4l.2-2c.1 0 10.8 1 46.5 1.3 35.6.3 47.6-1.8 47.7-1.8l.4 2c-.5 0-10.8 1.9-41.5 1.9m.6 4.8h-7c-36.7-.2-42.8-1.5-43-1.5l.4-2c.2 0 6.5 1.3 42.6 1.5 36.2.1 43.1-.9 43.2-.9l.3 2c-.3 0-6 .9-36.5.9" style="fill:#b7cbd3"/><path d="m104.5 96.5.4-51L116.5 33l-2.7-4.3L101 42.9l-74.5-.7L12 26.5 8.3 30l15.5 16 .1 51.8-11.5 4.7-.4 5.4 14.7-6 76.8-.8 12.7 6.5v-4.9zm-3.8-.7c-.7.4-72.3.8-72.6.5S27 48 27.8 47.2c.6-.7 71.7-.3 73.1.3.7.3.5 11 .4 22.8-.2 12.1-.3 25.4-.6 25.5" style="fill:#9a9a9a"/><path d="m6 105.7 3 3.3 2-.3q2-.3 2.3-1.7c.4-1.3-.3-72-.3-72 .1-1.6 0-3.4 2.2-3.4l97-.1c1 0 2.7.3 2.7 2.7l-.4 72.5c.1.6.7 1.5 2.5 1.9s4.2 0 4.2 0l1.2-11-1.4-71.5L9.2 25l-4 6.1z" style="fill:#df0a2b"/><path d="M5.6 24.7c-2.2 3-1.7 6.1-1.7 15v65.8c.2 1.6.4 2.7 2.3 3.2 1.4.4 2.7.3 2.7.3l.2-78c0-1.1-.2-3.3 2-3.6s103 .3 104.2.2 3.1 1 3.1 2.4l.8 78.8s3.6.2 4.3-1.3c.8-1.6.6-77.3.3-79.4s-2-4.6-5.4-5.4S12.8 22 11 22.1s-4.2 1-5.4 2.6" style="fill:#ff180a"/></svg>