<svg xml:space="preserve" width="16" height="16" viewBox="0 0 128 128"><linearGradient id="a" x1="27.6" x2="105.5" y1="97.1" y2="97.1" gradientTransform="matrix(1 0 0 -1 0 130)" gradientUnits="userSpaceOnUse"><stop offset="0" style="stop-color:#f44336"/><stop offset=".4" style="stop-color:#e73b32"/><stop offset="1" style="stop-color:#c62828"/></linearGradient><path d="M91 11.6C85.5 7 77.5 4.3 63.5 4.3c-25.6 0-36 16.5-36 36.9l3 .3L64 32s30 9.4 30.3 10.2l5.7 17.5q.6 1.6 2.4 1.8c1.2 0 2.3-1 2.4-2.3.2-2.9.5-8 .6-13 .2-7.3.9-21.8-14.5-34.7" style="fill:url(#a)"/><circle cx="101.9" cy="63.9" r="6.8" style="fill:#e0e0e0"/><linearGradient id="b" x1="64" x2="64" y1="33.2" y2="4.7" gradientTransform="matrix(1 0 0 -1 0 130)" gradientUnits="userSpaceOnUse"><stop offset="0" style="stop-color:#f44336"/><stop offset=".4" style="stop-color:#e73b32"/><stop offset="1" style="stop-color:#c62828"/></linearGradient><path d="M64.1 96c-25.6 0-52 7-52 25v3h104v-3c0-16.9-26.1-25-51.9-25" style="fill:url(#b)"/><path d="M55.3 105.7V124h17.4v-18.3z" style="fill:#fff"/><path d="M90.8 47.6H37.2c-5.8 0-10.5 5.1-10.5 11.4s4.7 11.5 10.5 11.5h53.6c5.7 0 10.5-5.1 10.5-11.5s-4.8-11.5-10.5-11.5" style="fill:#3c2b24"/><path d="M35.8 35q-3.6 9.2-3.6 20c0 11.7 3.4 21.5 9.8 28.3 5.7 6 13.3 9.3 21.6 9.3s16-3.3 21.6-9.3A40 40 0 0 0 95 55q0-10.9-3.6-20z" style="fill:#70534a"/><ellipse cx="47.7" cy="59.3" rx="4.8" ry="5" style="fill:#1a1717"/><ellipse cx="80.3" cy="59.3" rx="4.8" ry="5" style="fill:#1a1717"/><path d="M87.4 50.4s-2.2-3.6-7.5-3.6-7.5 3.6-7.5 3.6l-.3 1q.1 1.4 1.6 1.6l.6-.2c3.2-1.3 5.6-1.3 5.6-1.3s2.5 0 5.6 1.3l.7.2q1.4-.2 1.5-1.6 0-.6-.3-1m-31.9 0s-2.2-3.6-7.4-3.6-7.5 3.6-7.5 3.6q-.3.4-.3 1 .2 1.4 1.5 1.6l.7-.2c3.1-1.3 5.6-1.3 5.6-1.3s2.4 0 5.5 1.3l.7.2q1.4-.2 1.5-1.6 0-.6-.3-1" style="fill:#f5f5f5"/><linearGradient id="c" x1="64" x2="64" y1="100.6" y2="20.9" gradientUnits="userSpaceOnUse"><stop offset=".5" style="stop-color:#f5f5f5"/><stop offset=".8" style="stop-color:#bdbdbd"/></linearGradient><path d="M102.4 73.5A88 88 0 0 1 98.7 52c.2-6.4.2-10.7.2-13.8 0-3.7-3-6.6-6.8-6.6h-.7V38c.7 3.3.7 9.4.7 17.2 0 12.5-3.6 18.9-11.9 18.9-8.6 0-10.1-2.6-16.5-2.6s-8 2.6-16.4 2.6c-7.6 0-11.5-8.8-11.5-19.2l-.2-12.6V31.5c-3.7 0-6.6 3-6.6 6.7l.3 13.7c.3 5-2 16.7-3.7 22-2.6 8-2.2 17.7 1.5 25.2C30.4 106 46.5 116.6 56 122c3.6 2 12 2 15.7 0 9.3-5 24.9-15.2 28.5-21.6 4.3-7.8 5-18.3 2.2-26.8" style="fill:url(#c)"/><radialGradient id="d" cx="64.3" cy="75.4" r="48.6" gradientUnits="userSpaceOnUse"><stop offset=".7" style="stop-color:#fff;stop-opacity:0"/><stop offset="1" style="stop-color:#bdbdbd"/></radialGradient><path d="M102.4 73.5A89 89 0 0 1 98.7 52c.2-6.4.2-10.7.2-13.8 0-3.7-3-6.6-6.8-6.6v23.7c0 12.5-3.6 18.9-11.8 18.9-8.7 0-10.2-2.6-16.6-2.6s-8 2.6-16.4 2.6c-7.6 0-11.5-8.8-11.5-19.2 0-5.3-.3-10.5-.2-14.3v-9.1c-3.7 0-6.6 3-6.6 6.8l.3 13.6c.3 5-2 16.7-3.7 22-2.6 8-2.2 17.7 1.5 25.2C30.4 106 46.5 116.6 56 122c3.6 2 12 2 15.7 0 9.3-5 24.9-15.2 28.5-21.6 4.3-7.8 5-18.3 2.2-26.8" style="fill:url(#d)"/><path d="M72.2 76.2a25 25 0 0 1-16.5 0c-1.8-1.1-3.6.5-2.8 2.2.7 1.6 6.3 5.3 11.1 5.3s10.4-3.7 11-5.3c.8-1.7-1-3.3-2.8-2.2" style="fill:#1a1717"/><path d="m67.8 68.4-.3-.1h-7.3q-1 .5-.7 1.7c.3 1.2 1.7 2.6 4.5 2.6s4.2-2 4.5-2.6q.4-1.2-.7-1.6" style="fill:#33251f"/><path d="M98 32.1a70 70 0 0 0-68 0c-3.9 3-5 6-4.4 11 .3 2.8 3 3.8 4.6 3.2 0 0 16.3-3.9 33.8-3.9s33.8 4 33.8 4c1.7.5 4.3-.5 4.6-3.4.6-4.9-.5-8-4.4-10.9" style="fill:#f5f5f5"/></svg>