<svg xml:space="preserve" width="16" height="16" viewBox="0 0 128 128"><path d="M116 4H12a8 8 0 0 0-8 8v104a8 8 0 0 0 8 8h104a8 8 0 0 0 8-8V12a8 8 0 0 0-8-8" style="fill:#194fa5"/><path d="M109.7 4H11.5A7.6 7.6 0 0 0 4 11.5v97.9c0 4.1 3.3 7.5 7.5 7.5h98.1c4.1 0 7.5-3.3 7.5-7.5V11.5c0-4-3.1-7.4-7.2-7.5z" style="fill:#2262dd"/><path d="M65.4 21.2a3 3 0 0 1 2.2-5H99a2 2 0 0 1 2 2v5.1a2 2 0 0 1-2 2H72.1c-3.6 0-6.7-4.1-6.7-4.1M96 112H70a1 1 0 0 1-1-.9V105q0-.9.9-1H96q.9 0 1 .9v6.1q0 .9-.9 1zm5-82a2 2 0 0 0-2-2H71.1q-1.2 0-2.4.5l-4.3 1.9a2 2 0 0 0 1.1 3.7H70q1 0 1 1v1a15 15 0 0 0 30 0zm-88 8.8v25.4a2 2 0 0 0 1.4 1.9l18.4 5.8q1.4.3 2-1V41.7a2 2 0 0 0-1.7-2l-17.7-2.9a2 2 0 0 0-2.4 2M38.9 34l-19.4.9q-.2 0-.2.3t.2.2L35 38a2 2 0 0 1 1.7 2v23.1q.3.2.6.1l2.1-.5a2 2 0 0 0 1.6-2V36a2 2 0 0 0-2-2zm30.2 39.2V87a1 1 0 0 0 1.8.6L93.5 60c.5-.7 1.8-4-.8-4H76.1q-4 0-7.1 2.5l-1.4 1.4-14.3 13.9q-1.6 1.5-3.6 1.4H28.3c-2.7 0-5 2-5.4 4.7a5.2 5.2 0 0 0 5.1 5.7h26.8q2.2 0 3.7-1.6l6.5-6.6zm34.1-13.8-.6-.4a1 1 0 0 0-1.4.2L69.3 98.4a1 1 0 0 0 .8 1.6H97V73q.1-.9 1-1 1.2 0 1 1v33.8c0 2.6 1.9 4.9 4.5 5.2a5 5 0 0 0 5.5-5V71.4c0-4.7-2.1-9.1-5.8-12" style="fill:#fafafa"/><path d="M39.7 12.9c0-2.3-1.6-3-10.8-2.7-7.7.3-11.5 1.2-13.8 4-1.9 2.3-2.3 5.6-2.6 8.4-.2 2.2-2.2 14.9 3.5 11.2q1-.6 1.6-1.8c1.2-2.1 1.9-3.5 3.3-5.6 5.3-8.6 18.8-10.5 18.8-13.5" style="fill:#68abe6"/></svg>