<svg xml:space="preserve" width="16" height="16" viewBox="0 0 128 128"><path d="M111.8 64.6s11.5-1.5 11.8-.7c.6 1.3-7.7 10.2-7.7 10.2z" style="fill:#5c6063"/><path d="M70 68s6-7 17.2-9.5 24.8 2 27.8 9.7a24 24 0 0 1-3.4 24 33 33 0 0 1-29.4 13.2c-11.7-.9-15.4-5.8-15.4-5.8z" style="fill:#fcd41e"/><path d="M99 76.3c3 7.8 3.6 15.4 3.5 19.3 0 3.8-.4 5.1-.4 5.1s4-2.5 6.4-4.8c2.1-2 3.7-4.3 3.7-4.3s1-11.1-3-20.5S96.8 58 96.8 58s-2.9-.6-6.1-.2-7.1 1.7-7.1 1.7S94.3 63.8 99 76.3M74.8 63.9s6.9 3.6 11.3 14c4.7 11.1 3.7 27.4 3.7 27.4s-2.9.5-6 .4c-2.1 0-5.8-.8-5.8-.8s1-13.2-2.7-21.9c-1.7-3.9-6-8.7-6-8.7l.7-6.6z" style="fill:#414340"/><path d="M40 89.6s-5 2.1-9.6 3c-4.5 1-8.2 1.1-9.5 1.2s-3 .7-2.7 3.6c.2 2.5 3.9 2.2 6.1 2.1a51 51 0 0 0 22.5-6.7z" style="fill:#5a6066"/><path d="m66.3 65.3 24.6-31.6c3-4 7.3-11 12.2-11 5-.2 9.5 4.3 11.7 10.9 2.3 6.6 2.4 13.3-1.1 17.7-4.8 6-18 15.4-28.5 18-10.4 2.7-16.4 3.4-16.4 3.4z" style="opacity:.7;fill:#6da3af"/><path d="M65.4 63.3s15.2-26.5 18.4-32.8c3.3-6.3 6.2-12.3 5.4-16.3-.7-3.2-7-6.5-15.8-5.2s-16.2 4.8-17.3 12.9c-1.1 8.6-.6 33.2-.6 33.2l-1.2 12.1L65.5 69z" style="opacity:.7;fill:#a1c5cb"/><path d="M14 47.5S8.4 43.4 6.2 52c-2.4 10 5.1 8.3 5.1 8.3z"/><path d="M31 37.5s-1.5-7-3.9-11.9-5.6-8.2-7.2-9A32 32 0 0 0 9.7 15C6.8 15 4 14.9 4 17c0 2.6 3.3 2.9 5.5 3.1 3.2.3 6.7.8 7.9 1 2.2.6 5.1 6.3 6 8.8s2.6 9 2.6 9z" style="fill:#848484"/><path d="m58.6 59.2 2.6 4.4S65.4 60 66 60c.7 0 1.8 6 1.8 6s4-1 4.5-.7.3 4.6.3 4.6 4.9.3 5 .7c.2.4-2.1 4.3-2.1 4.3s3.9 2.4 3.8 3c0 .7-3.3 3.3-3.3 3.3s3 3.5 2.8 4.4S74 87 74 87s1 4.5.7 5-5.2.3-5.2.3 2.4 3.9 2 4.3-7.6 2-7.6 2-3.6 4-6.3 4.6-3.8-.1-3.8-.1l-3-3s-7 .6-7.5.2c-.7-.5-.8-8.5-.8-8.5s-4.4.3-4.7-.2.7-5 .7-5L50 68.3z" style="fill:#fe8d00"/><path d="M49.4 94.5c-2.7-1.9-5.8 1.9-7.5 3.2-2.5 2-5 5.4-13.2 7.6-4.8 1.3-4.5 3-4 4.7.6 2 3.5 1.8 7.1.8s7.8-3.2 9.5-4.4c2-1.5 6.9-6 7.8-7 .9-.8 2.5-3.3.3-4.9m7.6 2.2c-2.3-1-3.8.7-5 4.1s-3.4 9.6-4.5 12c-1 2.4-3.7 7-.7 8.4 3.2 1.6 4.7-1.3 5.6-3.2a126 126 0 0 0 6-16.1c.3-1 1.2-4.1-1.4-5.2m7.8-.3c-3.2.4-2.6 4.2-2.3 7 .2 2.7.6 11.5.4 13.4-.1 1.8 0 5 3.3 4.8 3.2 0 3-3.6 3.2-4.7s-.5-12-.6-13.7.2-7.4-4-6.8" style="fill:#848484"/><path d="M15.7 43.5c-5 5.2-8.4 20.7-5.3 29.6 3.3 9.2 9.9 15.5 21.7 16s22.2-7 26-19.7c3.5-12.2-1-27.2-14-31.8a26 26 0 0 0-28.4 6" style="fill:#febb00"/><path d="M44.6 59.4c0 5.3-4.2 9.6-9.4 9.6s-9.4-3.4-9.4-9.6c0-5.4 4.2-9.8 9.4-9.7 5.8 0 9.4 4.3 9.4 9.6"/><path d="M13.2 74.7c.8-.8 2.5-3.5 4.3-1.7s-1.4 4.2-2 4.7c-.7.7-2.2 1-3 0q-.7-1.5.7-3" style="fill:#fe8d00"/><path d="M27.3 12.8c-.3 1.9.7 2.5 3.3 3.2 2.3.6 7 1.7 8.2 2.5 1 .6 3.2 6.4 3.7 13.5a76 76 0 0 1 0 10c0 2.2.4 3.8 2.2 4q2.7.6 3.2-4c.3-4 .5-6 0-11-.3-3.9-1-7-2.2-11.1-1-3.4-2.6-5.2-4.2-6.4-1.9-1.4-6-2.2-9.4-2.5-2.8-.3-4.6-.3-4.9 1.8" style="fill:#848484"/></svg>