<svg xml:space="preserve" width="16" height="16" viewBox="0 0 128 128"><path d="m78 67.8-22.8 4L47 92.5c-.5 1.4-.4 3.3 1.6 3.3h16l-3.4 17c-.2 1.4 1.3 2.6 2.6 1.2s19.5-24.8 20.3-26c1.4-2 0-3.8-1.5-4l-12.4.2z" style="fill:#feca18"/><path d="M72 70.5s-5.2 11.3-5.4 12c-.5 1.8 2 2.6 2.6 1l6.8-14zM50 92.2l14-.2c1.9-.1 2.2 2.4 0 2.4H49.7c-1.6.2-1.8-2.2.4-2.2" style="fill:#fdb900"/><path d="M59.4 69s-6 15-6.3 16.2c-1.4 4.7 3.6 4.6 5 1.9.6-1.3 7-15 7.4-17.5.3-2.4-6-.6-6-.6M61 86.6q-1.5-.7-2.5.9c-.7 1-1.6 2.6-.2 3.4 1.3.8 2.4-.7 3-1.4.4-.7 1-2-.3-3m10.3 3.3c-2.2-.5-3 1.4-3.5 3.7-.5 2.2-2.3 9.5-2.6 11.3-.5 2.5 1.8 2.9 2.8.5.7-1.7 4-9.5 4.3-10.8.7-1.9 1.4-4.2-1-4.7" style="fill:#ffe36a"/><path d="M108 46.3s2.5-35-27.4-39.5c-26.9-4-32.2 21.6-32.2 21.6S38.3 26 31 32.5s-6.7 14.2-6.7 14.2S6.4 43.9 4.6 59.2C2.9 73.5 24 70 24 70l100.4-7.4s2.4-7.5-5.2-13.2c-4.5-3.4-11.3-3.1-11.3-3.1" style="fill:#e4eaee"/><radialGradient id="a" cx="65.8" cy="75.3" r="29.4" fx="52.6" fy="75.4" gradientTransform="rotate(-88.3 46.51 94.02)scale(1 1.498)" gradientUnits="userSpaceOnUse"><stop offset=".2" style="stop-color:#ffe366"/><stop offset=".3" style="stop-color:#eddd82"/><stop offset=".6" style="stop-color:#d0d4ad"/><stop offset=".8" style="stop-color:#bfcfc7"/><stop offset=".9" style="stop-color:#b8cdd1"/></radialGradient><path d="M53.8 54.2c.9-.3 5.6 3.8 19.4 4 19 .1 33.4-11 33.4-11s.4 3.3-1 5.8c-2 3-4.9 3.5-4.9 3.5s5.3 3.7 12.5 3.1c6.5-.5 11.2-2.7 11.2-2.7s.7 3.2.3 6.4c-.7 6.2-4.3 8.7-8.4 9.2-3 .3-28.3.5-38.7.6-9.4 0-57.3 1.2-62.2.7s-8.9-3.6-10.3-8c-1-3.3-.6-5.4-.6-5.4s9.4 2.5 14.6 1.9c6.6-.8 11-5 11-5s4 2.3 12.7 1.6c7.5-.7 11-4.7 11-4.7" style="fill:url(#a)"/><path d="M103.9 74.2c-1-.6-4.6 2.8-6.7 4.9-1.2 1.2-5.2 4.5-5.8 7.6-1.3 7.8 7.6 9.5 11 6 2.8-2.8 2.3-8 2.3-9.8 0-2.5.5-8-.8-8.7M31 78.4c-1-.6-4.4 2.7-6.4 4.7-1.2 1.2-5 4.3-5.5 7.4-1.4 7.6 7 9.3 10.5 5.9 2.5-2.7 2.1-7.8 2.1-9.6 0-2.4.5-7.7-.7-8.4m16.2 22.3c-1.1-.4-4.8 3-6.9 5-1.2 1.3-4.9 4.5-5.4 7.6-1.4 7.7 7.2 9.6 10.7 6 2.7-2.7 2.2-8 2.2-9.8 0-4.6.1-8.5-.6-8.8" style="fill:#52c0ee"/><path d="M97.8 84.2c-1.4-.7-3.1-.4-4.2 1.8-1 2.3-.2 4 1 4.6s2.8 0 4-1.8c1-1.8.4-4-.8-4.6M40 111c-1.4-.6-3 0-3.7 2.3s.4 3.9 1.5 4.2c1.3.4 2.8-.4 3.6-2.3s-.2-3.9-1.4-4.3M24 88c-1.4-.5-3 .2-3.6 2.6-.6 2.5.6 4 1.8 4.3 1.4.3 2.9-.6 3.6-2.6.6-2-.4-4-1.7-4.3" style="fill:#b2e6fe"/></svg>