<svg xml:space="preserve" width="16" height="16" viewBox="0 0 128 128"><path d="M44.5 30.8h38.6v50.3H44.5z" style="fill:#aca299"/><path d="M64.5 6.2c-3 0-4.3 4.2-11.2 13.4-5.4 7.2-8.4 9.8-8.8 11v1H83s.1-.9-.2-1.4S78 24 75.3 20c-7.5-10.3-8-13.9-10.8-13.9" style="fill:#a62714"/><path d="M57.9 41v11c0 1-.4 1.8 1.1 1.7h11V41c-.2-1.3-1.6-5.2-6-5.2-4.6 0-6 3.3-6 5" style="fill:#2f2f2f"/><path d="M44.5 53.2H83v4.2l-5 2.2-5 4-6.5-4.1-4.7.1-5 4.4-5.4-4.4-6.8-1.6z" style="fill:#d9d1c6"/><path d="M44.5 60.7s4.2-.5 6.6.5c2.7 1 5.3 5.1 5.7 5.1.9 0 2.6-5.2 7.8-5.6s7.2 6.1 8.4 6.2c.8 0 2.8-4.7 5.1-6 2.4-1.3 5-1.3 5-1.3v-2.2s-3.2-.3-5.8 1c-3 1.3-4 4-4.4 4s-3-4.4-8.5-4.2c-5.2.2-7.1 4-7.6 4-.2 0-2.2-2.5-4.8-3.5-3.1-1.3-7.5-.7-7.5-.7z" style="fill:#6f6b67"/><path d="m37.2 82.5-25.8 2.2-.3 37.5c-.1 1.1.3 2.2 1.6 2.2l103.4-.5c1.1 0 1.8-1.5 1.8-2.8V87L101 82.6z" style="fill:#aca299"/><path d="M30 84.8h68.3l-2.8-10.6H81q-1 0-1 1.1v4.1h-9.2v-3.9q0-1.3-1.5-1.3h-9.5c-1 0-1 .6-1 1.4v3.6h-10v-3.7q.2-.9-1.4-1H33.2z" style="fill:#e5ddd2"/><path d="m109 55.4-16 5.8q-.1.2.7 8.2l1.2 7.4 15.4 4 11.8-6.5s.8-3.7 1.2-8c.3-3 .5-5.4.3-5.6-1.9-1.5-14.5-5.3-14.5-5.3M5 62.3 6.6 75l14.9 3.4 12.4-3.6s.5-3.5.6-6.9a29 29 0 0 0 0-5.6c-.2-.2-14.2-6.4-14.2-6.4z" style="fill:#aca299"/><path d="m6.6 75 27.3-.2-1 6c-.4 1.9-1.2 4-1.2 4v39.5h-2.9v-36H11.4S8.8 86 7.8 81.6C6.9 77.8 6.6 75 6.6 75m87.7-.9 27.7.2s-.6 3.2-1.8 7l-2.2 7H99.7l-.4 35.7H97l.2-37.8-1.7-6.7c-.6-2.2-1.1-5.4-1.1-5.4" style="fill:#89847e"/><path d="M99 58.8v10.3q0 1.8 1.6 1.8c1.2 0 1.3-1 1.3-1.7l-.1-10.5zm8.3 0v10.4q0 1.6 1.4 1.8 1.5-.2 1.4-1.6c-.1-1.4.1-11 .1-11zm8.7.5v10.1c0 .5 0 1.7 1.4 1.6 1 0 1.2-1.3 1.2-2v-9.7z" style="fill:#2e2e2f"/><path d="M107 38.3v-14c0-.5.6-1.2 1.5-1 2.2.6 4.7 2 8.2 2.7 3.5.5 7.8-.2 8.5-.2s1.4 1 .1 1.6-3.3 3-7.8 4.2c-4 1.1-5.5 1.3-7 2-.7.4-.4 4.4-.4 4.4z" style="fill:#fe2a22"/><path d="M92.9 61.2s5-1.4 15.6-1.3 15 .8 15 .8-.4-1-1.4-2-6.5-6.8-9.4-14.5c-1.6-4.2-1.5-7.8-4.4-7.8-2.6.1-2.7 2.5-4.5 7.6-1.8 5.2-2.9 6.6-4.8 9.3q-3.1 3.9-4.9 5.4c-1.3 1.6-1.2 2.5-1.2 2.5" style="fill:#a62714"/><path d="m9.5 60.6.3 9.5c0 .7.3 1.6 1.4 1.6 1.2 0 1.3-1.3 1.3-1.6l-.3-10zm9.4 0V70c.1.8.4 1.7 1.5 1.7s1.5-1 1.4-1.7v-9.4zm9 .1V70c0 .8.4 1.7 1.3 1.7q1.4-.1 1.4-1.6v-9.3z" style="fill:#2e2e2f"/><path d="M18.1 39.7V25.3c0-2.1 2.9-.5 3-.5 2.2.6 5 1.4 7.4 1.9s8 .8 8.5.9 1 .7 0 1.2L27 33c-2.5 1-6 1.7-6 1.7V40z" style="fill:#ff2a23"/><path d="M19.6 37.9c-2.9 0-4.6 8.3-7.2 13.2s-5.5 8.2-6.3 9C4.7 61.2 5 62.2 5 62.2s6.4-.8 15-.8 14.6 1 14.6 1-.2-1.4-1.2-2.6c-.7-.8-3.9-4.2-6.4-9-2.8-5.4-4.5-13-7.4-13" style="fill:#a62714"/><path d="M48.2 124.2s-.4-15.6 1.8-21c2.3-5.6 5.5-8.7 7.7-11a24 24 0 0 1 7-5.8c1.3-.2 5.1 3.5 8.1 6.7 2.9 3 6.5 6 8 11.4 1.1 4 .8 19.6.8 19.6z" style="fill:#6f6a67"/><path d="M64.8 90.1c-.6 0-10.3 8-12 15.2-1.5 5.8-1.2 18.9-1.2 18.9l27-.1s.7-15.2-1.2-19.8a37 37 0 0 0-12.6-14.2" style="fill:#89847e"/><path d="M55.7 124.2s-.2-15-.1-17c0-2 2.8-8 9.4-7.9 6.6.2 9.4 5.7 9.5 7.9V124z" style="fill:#6e4d42"/><path d="M58.2 124.2h2.2v-23.8s-.9.5-1.3.9l-.9.8zm6.1 0V99.3h1l1 .1v24.7zm6.2-23.2 2 1.8V124h-2.2z" style="fill:#8f6d61"/><path d="M84.5 107.3v-3.7h6.6v3.7zm17.9 3.8a12 12 0 0 0 0 3.8h6.2v-4s-6 0-6.2.2M49.5 94.6v3.6s-6.5.2-6.7 0v-3.5zm-10.7 6.7h6.5l.1 3.6H39zm-19.4-9v3.5c.3.2 6.8.2 6.9 0s.1-3.4 0-3.5z" style="fill:#d8d0c5"/></svg>