<svg xml:space="preserve" width="16" height="16" viewBox="0 0 128 128"><path d="m115 55.3-50.4 39 .5 18.4s1.5.8 3.9-.4c1.9-1 11.8-9.5 16.8-13.7l25-20.5c3.8-3.2 9.3-7 11.1-10a34 34 0 0 0 2.2-13.4 9 9 0 0 0-4.5-5z" style="fill:#cf7120"/><path d="M55 22.3c-.4 1-45.8 32.8-45.8 32.8l8.1 10.4s40 26.4 47.8 26 32.3-19 32.3-19l20.2-20-7.6-5.7-41-25.1-7.1-1.8z" style="fill:#e07d15"/><path d="M14.5 60.3s5.5-5 8.2-5 7.5 3.3 7.5 3.3L23 66.2l6.6 3.2s4-4.3 6.7-4.7 7.4 3.4 7.4 3.4l-6 7.2 6 2.8s4.6-4.6 7.4-4.7 6 2.8 6 2.8l-5.5 8 6.3 3s4.5-4.7 6.8-5.5 9.4 3.9 9.4 3.9l4.3-4.3L50.6 66l-28-20.3L8 55.5zm14.7-11s5-5 8.4-5.2c1.8 0 7 3.8 7 3.8l-7.4 8 5.7 3s5.8-5.7 7.4-5.4c1.5.3 18.8 12.8 18.8 12.8L64 71.8l7.1 3.7s5.3-5 8-5 8.4 4.6 8.4 4.6l6.6-5-56.8-35.3-14.5 10.6zM49 28.5s-11 6.8-10 7.2 5.3 3.2 5.3 3.2 4.9-4.5 7-4.5 6 3.5 6 3.5L51 44.2l5.4 3.5s4.8-4.3 7.6-4.2 7.5 3.2 7.5 3.2l.4 4.6 4.5 3.1s1.9-2.3 3.8-2.4c2-.1 5.6 3.2 5.6 3.2l-4.6 6.7 4.4 2.4s5.3-4.7 7.5-4.6c2.1 0 8 4.6 8 4.6l4.5-4-55.7-33zm4.3-2.3 4.6 3.5s2.8-3.9 6-3.8c3.1.1 6.2 3 6.2 3L64.9 34l6.1 3.4s5.1-4 7.2-3.7c2 .2 6.3 3.8 6.3 3.8L81 43.9l5.1 2.6s4.1-3.2 6-3.4 5.9 2.7 5.9 2.7L93.4 52l6.1 3s3.6-3.7 6.2-3.8c2.5-.1 6.9 4 6.9 4l4.7-3.8-49.9-31.2h-8z" style="fill:#ac5811"/><path d="M119.5 49.3c-2-1.4-17.3-10.7-25.8-15.6s-21.2-14-26.6-15.4c-5.3-1.6-9.2.6-10.9 1.5s-14.4 9.7-22.9 15.4C24.6 41 10.1 50 8.2 52.1s-3.6 5-3.7 7.1-.5 10.3.1 12.3c.7 2.2 1.7 3.5 4.7 5.6 3 2.2 21.9 14.3 26.9 17.7a678 678 0 0 0 26.1 17C64.7 113 67 113 67 113s-.8-13.4-.3-14.6S84 84.8 93.8 76.7c9-7.4 23.6-17.6 26.5-21.1s1.2-5-.8-6.4m-8.1 6-15.6 12C88 73 70.2 86 67 88s-5.6.7-7.3-.4L39.4 75.4c-8.7-5.2-17.8-11.7-20.8-13.8-3.1-2.1-5.8-3.2-6-5.3 0-2 5-4.5 8.2-6.5s13.5-9.2 18.4-12.1 17.1-12.1 20-14.4 5.6-1.6 6.9-1a605 605 0 0 1 34.3 20.5c6.1 4 10.8 5.5 12.7 7.6 2 2-.4 3.8-1.7 4.8m-92.2 9.1s21.5-15 30.7-21.7c9-6.6 24.2-17 24.2-17l4.4 1.8S63.4 38 52 46.6 23.2 67.5 23.2 67.5zM33.8 73c1-.2 23.1-16.3 33.7-24l21-15.4 4 2.3-29.1 21.9-25.6 19zM48 81.6c2.5-.5 21.3-14.1 30-21l23.5-18.3 4.3 2.3s-18.7 14.7-27.7 22-29.8 21-29.8 21zM25 44.4l-4 3s9.5 7.7 14.1 11a474 474 0 0 0 27.6 17.4l13.5 7.4 5-3.5s-23-12-28.8-15.8c-6.6-4.4-17-11-19.5-13-4.7-3.7-7.9-6.5-7.9-6.5M40.6 34 36 37.3s4.8 5 11.9 9S73.6 62 78.8 64.9s12.4 7.9 12.4 7.9l4-4s-21.8-12.2-29.4-17-14.5-9.5-17.7-11.4a51 51 0 0 1-7.7-6.3m12.2-9.7-3.7 3.4s8.6 6.4 15.2 10c6.5 3.7 20.4 11.8 26.1 15.5l15.4 10 3.5-3.4-24-14.7-21.8-13a45 45 0 0 1-10.7-7.8" style="fill:#f5b03e"/><path d="M51.4 55.2s-7 3.7-7.5 5.6c-.7 2.2 2.5 3.4 4.8 5.1 1.8 1.4 12.9 8 14.1 8.7s4 1.2 5.4-.2 15.4-10.6 16.4-12.6c.7-1.3-2.8-3-4.5-3.7s-28.7-3-28.7-3" style="fill:#ad5910"/><path d="M63.4 44.7c-1.9-.2-6.2 3.4-9.1 5.5-2.6 1.8-8 5.4-8.4 6-1.4 2 .8 4.1.8 4.1s15.8 8.1 16.3 8 4.2-.5 6.2-2c1.9-1.6 10.5-11 10.5-11S80 54 78.5 53c-1-.8-5.8-3.6-7.3-4.6s-5.3-3.5-7.8-3.7" style="fill:#ffe265"/><path d="M62.6 66.5s1 .4 2.3-.4 8-5.5 12.8-10c.6-.5 1.7-2 1.3-2.6-.4-.5 1.5.4 1.5 3 0 2.7-1 3.7-1.7 4.3-1 .9-13.2 11.5-14.7 11-1-.3-2.9-1.7-2.9-1.7z" style="fill:#fcb602"/><path d="M46 56.3c-1.2.7-.5 3.3-.2 4.2.6 1.4 5.7 4 7.6 5.3 4.8 3.2 9.7 6 10.4 6s.8-2.8 0-4.8c-.5-1.2-6-3.8-9-5.6-4.3-2.5-7.9-5.6-8.7-5.1" style="fill:#ffebc9"/><path d="M2.4 63q-.1 2.9 3.6 6c3.9 3.4 14 9.8 24.2 16.6s25.7 16.4 28.4 18 6.7 5.2 8.2 4.8S95 86 101 81s21.7-17.2 22.9-18.3 1.5-3 1.1-4-1.2-1-1.2-1L111 68c-5 3.8-23 18.2-26.6 21-3.6 2.7-16 13.6-17.7 13.6S37.9 86 33.4 83s-14.8-9.7-20-13.5c-4.6-3.4-9-8.7-9-8.7s-1.8.2-2 2.3" style="fill:#e08016"/></svg>