<svg xml:space="preserve" width="16" height="16" viewBox="0 0 128 128"><path d="M80 76.1s4-3.2 4.2-4-1.7-4-.7-10 7.2-12.3 10-10.4S96 55 96 55l2.8-.3 2.2 1.5.5 3.1L105 61l3.4 4-2.4 8.7-10.7 4.5-15 5.4z" style="fill:#6e4d44"/><path d="M89.4 52.5s3-1.1 4.5.7c1 1.2.3 3-.6 4.1-.8 1.2-2 2.7-2.7 4-.8 1.4-1.6 3.3-1.2 3.7.7.7 2.2-1.2 3.2-2.6l3.6-4.7c.8-1 2-1.7 3.5-.5 1.6 1.2-.1 3.6-.6 4.2l-3.2 4c-.7 1-1.6 2.4-1 3 .3.4 1.7-.9 2.5-1.7l3.2-3.4c1.1-1 2.3-2.3 4-.9 1.6 1.3-4.2 10-4.2 10l4-2.4s5-7.5 1.7-10.3c-2-1.6-4.2 0-4.2 0s1.6-2.7-.7-4.7c-2.1-1.9-4.5-.7-4.5-.7s0-2-1.9-3c-2-1-4.8.7-5.4 1.2" style="fill:#50362d"/><radialGradient id="a" cx="68.4" cy="81.5" r="37.4" gradientTransform="rotate(110.8 70.85 85.06)scale(1 1.087)" gradientUnits="userSpaceOnUse"><stop offset=".3" style="stop-color:#b68d76"/><stop offset=".4" style="stop-color:#a87f6a"/><stop offset=".7" style="stop-color:#875b4e"/></radialGradient><path d="M46.8 49 16.6 64.5a82 82 0 0 0 4.3 19.2A53 53 0 0 0 51.3 113a56 56 0 0 0 38.2 2c9-3.2 12.8-7.3 18.3-12.6s11.4-16.1 11.4-16.1 6.3-10.7 4.8-25C122.4 47 112.5 34.5 101.6 32c-9.4-2.2-9.5.3-5.5 5.4 3.8 5 7.9 9.2 9.6 14.4S109 67.7 99.3 72s-20.8 3.8-28.7-1.4-13.4-11.4-16-15.2-3.9-8.3-3.9-8.3z" style="fill:url(#a)"/><path d="M53.2 105q-.8 0-1.1-.6l-2-3.7q-.5-1 .4-1.6 1-.4 1.6.5l2 3.6a1.2 1.2 0 0 1-1 1.8m9.6 4q-.7 0-1-.7l-1.7-3.8q-.3-1 .7-1.6 1-.3 1.5.7l1.6 3.7q.4 1-.6 1.6zm6-6.6q-.6 0-1-.5l-2-2.7a1.2 1.2 0 1 1 1.9-1.5l2 2.8a1.2 1.2 0 0 1-1 2m9.8 7.8q-.7 0-1-.6l-1.7-3q-.6-1 .4-1.6t1.7.4l1.6 3a1.2 1.2 0 0 1-1 1.8" style="fill:#52322a"/><radialGradient id="b" cx="29.7" cy="46.8" r="24" gradientTransform="rotate(152.7 28.08 40.25)scale(1 .72)" gradientUnits="userSpaceOnUse"><stop offset=".3" style="stop-color:#fbe5cb"/><stop offset=".4" style="stop-color:#efd7be"/><stop offset=".5" style="stop-color:#cfb09b"/><stop offset=".8" style="stop-color:#9c7464"/><stop offset=".9" style="stop-color:#875b4e"/></radialGradient><path d="M11.7 63.3c2.9 3.6 10 9.4 28-1.3 16.6-9.8 12.5-20 10.8-23.4-1.6-3.1-3.6-4.4-3.6-4.4s1.7-3.7-1.5-5.6c-3.6-2-5.5 1.3-5.5 1.3s-7.7-3.3-17.7 1.1C9.3 36.8 8.7 46.7 8.7 46.7s-3.9 0-4.3 4.3C3.8 56.3 9 57 9 57s.2 3.4 2.6 6.3" style="fill:url(#b)"/><path d="M44.4 68.5c2.4-1.5 2.5-5.3 2.6-7.8 0-2.5-1-4.3-2.8-4-2.2.3-2.1 2.6-2.1 2.6s-1.4-2.8-3.8-1.8c-2.5 1.1-1 4.5-1 4.5s-3-2.2-4.1.9c-.6 1.6 1.2 4.3 4 5.8 2.7 1.6 7.2-.2 7.2-.2" style="fill:#e0dfe2"/><path d="M39.1 59.2q-.9.4.3 3.2 1.4 2.2 2.3 1.5c.5-.3 0-1.7-.5-2.7-.3-.7-1.1-2.4-2-2m4 1.5c0 .8.1 2.3 1.1 2.4 1 0 .9-2 .9-2.5s0-2-1-2c-.8 0-1 1-1 2m-7.9 3.9c1 1 1.8 2 2.5 1.5s-.5-2-.9-2.5-1.3-1.5-2-1c-.5.3-.1 1.3.4 2" style="fill:#fefcfe"/><path d="M52 60s3.8-7.1 12.1-1.3c9 6.2 2 13.3-2.6 13.2s-8 .5-10.6-.4-5-3.4-5-3.4l-2.5 1.7s.5 4.8-1.2 6.9c-1.7 2 1.8 11.5-.8 14s-7 4.3-9.7 3c-2.8-1.2-5.7-5.8-6.3-9.9-.5-4 1.4-13.5 5.3-13.8s4.4 0 4.4 0 1.2-4.5 4.6-4 4.8 2 4.8 2l1-.8s-1.3-2 1.2-4.2 5.3-.3 5.3-.3z" style="fill:#875b4e"/><path d="M26.5 82c.4.9 1.3 0 1.2-2.9s.5-5.5 2.5-7.2c2-1.6 4.2-.3 4.2-.3s-.4 1.3 0 2.9 1.4 2.2 1.2.4c-.2-1.7 0-8.7 4.5-8s3.5 6.4 1.7 9c-1.3 1.7-3.4 1.4-3.4 1.7s1.7 5.6 1.8 8.3 0 6.4-3 6.8-7-1-6.8 0 5.8 4.4 10.5 1.9c5-2.7 3.6-9.4 3.4-10.7S43 79.4 43 78.7c0-.1 2-1.8 2.4-4 .7-3.1.1-4.6.1-4.6s1.8 2.3 4.5 3c2.6.8 5.7 0 5.7 0s5.4 1.7 9.3-.9c3.8-2.6 3.9-5.8 3.7-6.5-.6-2-1 .2-1.6 1.2a9 9 0 0 1-6.2 3.9c-3.3.5-4.7-.7-5.2-.7s-3.3 1.6-6.2-.4c-3.7-2.6-2.7-6-.8-6.4 1.5-.4 4.3.5 5.4 2 1 1.6 1.8 3.9 2.2 3.4.3-.5 0-2.8-1.1-4.3s-2.4-2-2.5-2.6q0-1.8 1.2-3.1c1.2-1.3 2.8-1.4 2-2-.7-.5-3.2-.2-4.4 1.6-1.1 1.7-.5 3.1-.5 3.1s-3.5-1.4-5.8 1.2c-1.8 2.1-1 4.5-1 4.5s-1.9-2.8-5-2.2c-3.3.6-4.4 4-4.4 4s-3-1.3-5.7.5-3.6 5.8-3.5 7.9q0 3.2.8 4.7" style="fill:#6a493b"/><path d="M19 47c-2.4.5-2.4 2.7-2.3 3.5 0 .8.8 2.2 2.7 2 2-.1 2.7-2 2.5-3.3s-1.5-2.4-2.9-2.1m17.4-8.2c-1.2 1-1 2.9.1 4 1.2 1 3.3 1 4.2-.6.9-1.5.3-2.7-.6-3.5s-2.8-.6-3.7.1m-8.1 3c-2.3 1-1.6 3.4-1.8 5.2-.2 2-1.5 2.4-1.5 4 0 1.4 2.1 1 4 1.1 1.7 0 3.3 1.8 2.3 3.1-.6.8-1.7.6-2.4 0q-1-.9-1.4-.2c-.3.5.5 3 3.3 2.7 2.6-.2 3.2-3.1 3.2-3.1s2.4 1 4-.2c2-1.2 1.5-3.7.8-4.5s-1.4-.2-1.4 0c-.1.7.3.9.4 1.4s-.2 1.3-.8 1.7c-.5.3-1.3-.2-1.6-.6-.4-.5-.4-1.5-.3-2 .2-1.6 3.8-3.7 3-5.2-.9-1.4-1.8.3-4.4-1.5-1-.7-2.5-3.3-5.4-2" style="fill:#27282d"/><path d="M20.4 67.6h-.1a1 1 0 0 1-.6-.9l.9-5.2c.4-2.7 1-4.8 1-4.9a.8.8 0 1 1 1.4.4l-1 4.7-.8 5.3q-.2.5-.8.6m4.6.7s0 1-.9 1c-.8-.1-.6-1.1-.6-1.1l.3-5.5.4-5s0-1 .8-.9.7 1 .7 1l-.4 5c0 2-.3 5.5-.3 5.5m2.6-1.3a1 1 0 0 1-.7-.7l-.2-3.3v-4.8q0-.7.7-.8.9.1.7.8v4.6l.3 3.5q0 .6-.8.8m21-12.9h-.4l-4-2.2c-1.5-.8-3.8-1.6-3.9-1.6a1 1 0 0 1-.4-1q.2-.6 1-.5l4 1.7c1.7.8 4 2.1 4 2.2q.7.4.4 1-.3.4-.7.4m1.4-3-.3-.1s-2.3-1.3-4.1-2-4.5-1.2-4.6-1.2a.7.7 0 1 1 .3-1.4s2.9.4 4.8 1.2c2 .7 4.3 2 4.4 2q.5.4.2 1-.1.5-.6.5m-.4-4.8h-.1l-4.1-.6c-1.5-.2-4.2 0-4.2 0a.7.7 0 1 1-.1-1.6l4.4.1 4.2.6q.6.1.7.8-.2.6-.8.7" style="fill:#e2e2e4"/><linearGradient id="c" x1="88.9" x2="111.3" y1="107.7" y2="87.2" gradientUnits="userSpaceOnUse"><stop offset=".2" style="stop-color:#875b4e"/><stop offset=".6" style="stop-color:#765247"/><stop offset=".9" style="stop-color:#6e4d44"/></linearGradient><path d="M83 106.7c-.2-3.2.4-6.2.8-7.8 1-4.1 2-6.6 4.3-8 6-3.5 10-3 12.1-4.6 2.5-1.8 7.4-9.5 11-8 2.5 1 2.3 5.3 2.3 5.3s4 0 4.5 2.3c.7 2.4-.8 4.8-.8 4.8s3 1.4 3.2 3.4-.7 4.3-5.5 5.8-11 1.7-11 1.7-1.3 8.3-11 10.8c-6.2 1.6-9.8-.9-10-5.7" style="fill:url(#c)"/><path d="M83.2 103.3c-.4.2-2.3-9.1 3.6-13.2 4.9-3.3 9.8-2.6 12.5-4.8s9.2-11.4 13.9-7.5c2.5 2.2 1.2 4.8 1.2 4.8s3-.6 4.7 2.3c1.7 3-.8 5.6-.8 5.6s3 1 3 3.3-.9 4.7-3.4 5.9c-3 1.3-7.5 2.5-10 2.6-2.6.2-5.5-.6-3.3-1 2.1-.2 10.1-2.8 11.9-3.3 3-.9 2.9-3.1 2-4-1.1-1.2-2.2-.9-5.7.2-2.9.8-6.5 2.5-6.7 1.5-.1-1.1 3.4-2.3 5.7-3.6s6.2-2.7 5.2-5.1-3.3-2-5.8-.4c-2.5 1.5-6.8 4.8-7 3.5-.1-.5 4-4 5.3-4.8 1.2-.9 3.7-2.7 2-4.7s-4 .3-5.8 1.9-3.9 4.6-6.2 5.6c-3.5 1.5-8.6 2-11 3.8-5 3.8-4.4 11-5.3 11.4" style="fill:#50362d"/></svg>