<svg xml:space="preserve" width="16" height="16" viewBox="0 0 128 128"><path d="M60.4 41.1a147 147 0 0 0 33.5 50l-11.7 3c-7.4 1.8-13.2 4-20.4.5-9.4-4.5-15-22.7-17.8-40.2C40.2 29.8 30.9 22 27.7 8.6c-.6-2.4 1-3 3-1.9 9 5.1 24.6 24 29.8 34.4" style="fill:#263238"/><path d="M73.4 96.6a73 73 0 0 1-20.7-31.2 65 65 0 0 0-8.4-14.9s2.4 29.9 12.6 40c7.7 7.8 16.5 6 16.5 6" style="fill:#2f7889"/><path d="M119 109.5c-1.8-4-6.9-8.6-9.2-10.3-5.5-4-18.4-12.1-30.5-28.9-7.5-10.4-11.1-20.5-18.5-33C46.3 12.5 31.4.7 26.2 4.7a61 61 0 0 0-15.9 21.9c-2.7 8.4-3 12.9-.6 19.2q.7 1.8 1.7 3.3c8 16.7 6.7 57.2 6.7 57.2s.7 2 3.7 2 4-1.9 4-1.9S25 78 29 66.7q2 2.2 3.6 5.2c7.3 12.6 8.8 35 17.7 42.3 7.4 6.2 17.9 7.7 27.1 8.6 12 1.3 24.3 2.3 35.9-1.6 2.3-.8 5-2 6-4.5.9-2.2.5-5-.5-7.2m-35-17c-8.2 2.2-13.3 4.4-20.2 1.3-11.2-5.1-14.1-19.2-18.2-41.6C42.1 34.6 34 22.5 28.2 8.9c-.4-1 1-1.6 2-1.1C43 14.6 57.9 38.4 61.5 46.3c15 33 30 44.6 30 44.6z" style="fill:#f44336"/><path d="M96.9 113.2c-.9 2.2-7.4 2.6-9.6 2.5-4.4-.2-10.9-.6-13.4-2.4s-1.3-2.7.2-3.7 6.7-1.8 10.7-1.5c1.4 0 13.7 1.2 12 5.1" style="opacity:.94;fill:#ff9f9f"/><path d="m119.5 116.5.3-1.4s-4.2 7-36 5.3c-9.9-.5-23.3-2.3-31.2-9-7.2-6.1-11.2-28-13.6-34.2-7.8-19.7-18.2-20-18.2-20s7 6.1 12 14.7c7.2 12.6 8.5 35.3 17.6 42.3 11.1 8.6 28.5 9.2 36.8 9.5 17 .6 30-1 32.3-7.2m-93.7-10.1v-2.3l-2 .8q-3 .9-5.6-1v2.4s.6 2 3.6 2 4-1.9 4-1.9" style="fill:#a12524"/><path d="M21.2 29.7q-2.3 4.5-3 9.4c-.3 1.1-.5 2.6-1.6 2.9-1.3.3-5.1-2.9-3.7-12 .6-4 3-7 6-7.5 4.4-.7 3.6 4.9 2.3 7.2" style="fill:#ff9797"/></svg>