<svg xml:space="preserve" width="16" height="16" viewBox="0 0 128 128"><path d="m44.6 73.9-24.8-2.3v5.6c0 3 .6 5.6.6 5.6S5.3 86.5 4 98.1s21.4 26.3 55.5 25.9 54.9-13.7 56-25.8-18.1-15-18.1-15l.8-6.4s20.1-1.1 21.1-11.1-8.7-9.2-8.7-9.2 3.2 3.4 3 6c0 2.7-1.9 5.7-6.5 7-4.7 1.2-11.3 2-11.3 2z" style="fill:#bbced3"/><path d="m101.7 52.3-4.6 3.1.5 2.1s9.2-.8 12.8.6 7.2 7.3 7.2 7.3l4.4-6-15.4-8.5zM40.2 95.2s-11.7-3-12.8-.5c-.7 1.8 4.3 7.2 7.8 10a40 40 0 0 0 23.4 7.8c12.2 0 20-4.5 24.6-8 4-3 7.9-9.4 7-10.4s-50 1.1-50 1.1" style="fill:#6aa5ac"/><path d="M21 86.4S8.2 90.3 8.5 98.2c.3 8.6 16.9 21 51.3 20.8 34.5 0 50.6-14.5 51.5-22.2S96.5 86.7 96.5 86.7s-4.3 24.7-36.8 25.3C28.5 112.5 21 86.4 21 86.4m75.6-38.5s8.4-.7 12.9-.2c5.6.7 14.4 4.9 14.2 15s-9.4 14.7-15 16.5c-4 1.4-14.3 1.8-14.3 1.8l1-6.2s8.6 0 13-1.6 8.5-5.2 8.6-10.7c0-6.2-7.2-8-12.5-8C99 54.7 94 56 94 56zM58.5 29c-25.8.7-39.8 12-40.3 20S20 79.1 23 86.6c3.2 8.1 12.5 22 37.7 21S93 92.8 95.1 84a190 190 0 0 0 4-36.3c-.9-6-12.6-19.3-40.6-18.6" style="fill:#e0e0e0"/><path d="M96.6 90.4c0 1.3 3.7 2 2.8 6-1 4.4-5.1 5.2-5 6.9 0 2 10.7.4 11.1-6.4s-9-7.9-8.9-6.5m-76 1.3c1.1 1-1 2.3-1.8 4.4-1.1 3 3.3 7.7 8.6 10.3 3.8 1.8 9.4 3.5 9.2 5.2-.2 2.7-25-4-25-13 0-7.4 7.5-8.2 9-6.9M23.5 63c-1.5 1.6-1 13.4 1.6 20.8 2.3 6.5 4.8 10.4 7.3 10.5 2.6 0-1.6-10.5-1.4-17.4s0-8.7-1.4-10.3-4.8-5.2-6.1-3.7" style="fill:#fff"/><path d="M59.3 36C42 36.4 24 43.5 24.4 52.7s18.3 14 35.6 14.2c17.3 0 33-7 33-14.7.1-7.6-13.6-16.3-33.7-16" style="fill:#6d4b41"/><path d="M28.8 50.7c0 3 4.2 4.2 7 4.3 3.6.2 6.2-1 6.5-2.7s-1.4-3.4 1-4.8c2.3-1.4 5.1-.6 8.6.5 4 1.2 10.5 5.4 14 3.7 3.4-1.7-.4-4.6 1.2-5.7s5.2-1.1 10.2.7c5 1.7 9.5 4.8 11.2 3.5s-4-7.3-17.1-9.6c-11.9-2-25-.7-32 1.7-6.5 2.4-10.6 5.8-10.6 8.4" style="fill:#b59075"/><path d="M70.4 55c-5.8 2.2-15.6-4-21.1-3.3-3 .4-3.7 3.7-1 4.8 2.7 1.2 3.1-1 6.5.3 4.5 1.7 13.8 3.5 17 2.3 4.5-1.7 3.9-4 5.6-4.3 2.8-.4 5.6 2.6 7.1.9q2.2-2.5-4.7-5.2c-3.6-1.3-6.5-1.6-7.3-.5-1 1.2.8 3.8-2 5" style="fill:#b59074"/><path d="M82.9 3.5c-.9 2.2 3.7 4.2.8 8.4-2.5 3.4-22.4-1-30.7 9.2-7.3 9-1.3 18.4.3 21.2 1.7 2.7 5.5 7 8.3 6.3s-1.5-11 6.4-16.2 19-5.2 24-11.6c3.7-4.9 1.3-12.1-2.3-15.8-2.5-2.7-5.9-4-6.8-1.5" style="opacity:.4;fill:#b8ced4"/></svg>