<svg xml:space="preserve" width="16" height="16" viewBox="0 0 128 128"><path d="M64 4a60 60 0 1 0 .1 120.1A60 60 0 0 0 64 4m50 60c0 12-4.2 23-11.3 31.6L32.4 25.3A50 50 0 0 1 114 64M14 64c0-12 4.2-23 11.3-31.6l70.3 70.3A50 50 0 0 1 14 64" style="fill:#c33"/><circle cx="60.1" cy="63.1" r="56.1" style="fill:#f44336"/><path d="M95.6 102.7a50 50 0 0 1-70.3-70.3l7.1-7.1a50 50 0 0 1 70.3 70.3" style="fill:#fff"/><path d="M95.6 102.7a50 50 0 0 1-70.3-70.3l7.1-7.1a50 50 0 0 1 70.3 70.3" style="fill:#231f20"/><path d="M96.4 103.2A48 48 0 0 1 29 35.8l6.8-6.8a48 48 0 0 1 67.4 67.4" style="fill:#414042"/><path d="M91 69H25a1 1 0 0 1-1-1v-8q.1-.9 1-1h66q1 .1 1 1v8q0 1-1 1m12 0h-6q-1 0-1-1v-8q0-.9 1-1h6q1 .1 1 1v8q0 1-1 1m-4.9-15.6c-1.1.5-.3 2.2.8 1.9a23.5 23.5 0 0 0 15.6-24c-.6-14.4-.6-21.4 9.1-26 .6-.3.4-1.3-.3-1.2-6.6.1-22.2 2.9-20.2 20.4 1.6 14.2 2 25.5-5 28.9" style="fill:#fafafa"/><g style="opacity:.2"><path d="M123.4 4c-6.6.1-22.2 2.9-20.2 20.4 1.6 14.3 2 25.6-5 29-1 .5-.4 1.9.5 1.9h.3a23.5 23.5 0 0 0 15.6-24c-.6-14.4-.6-21.4 9.1-26 .5-.4.3-1.3-.3-1.3" style="fill:#424242"/></g><path d="M23.4 35.6 95 102.1l2-1.9-66.4-66.8" style="opacity:.8;fill:#231f20"/><path d="M103.9 96.8 25.3 18.9 18.2 26l78.6 77.9" style="fill:#f44336"/><path d="M45 10.9c1.7-.4 4.2-1.6 5.9-1.1 1 .3 1.9 1.5 1.5 2.5q-.6 1.2-2 1.5A52 52 0 0 0 21 33.7c-1.9 2.7-3.4 5.5-5.8 7.8q-.3.3-.8.4l-.5-.1q-1.7-.6-1.2-2.3.3-1.5 1-2.9 1.5-2.6 3.3-5.1a46 46 0 0 1 6.6-8A57 57 0 0 1 45 10.9" style="fill:#ff8a80"/><path d="m32.4 25.3-2 2 71.1 71.1 1.8-2.2z" style="fill:#c33"/></svg>