<svg xml:space="preserve" width="16" height="16" viewBox="0 0 128 128"><path d="M24 19.3s1-6.6 2.2-9.2c1.3-2.7 3.3-5.4 7-6.2 4.6-.9 57.1-.4 60.7-.2q5.5.4 7.5 3.7a19 19 0 0 1 2 7l.7 6.1z" style="fill:#ffa828"/><path d="m50.6 37.2-28.1-4.7s.6-11.7 1.8-14.7 2.7-4.9 7.1-5.7c4.5-.7 15.6-.4 32.2-.6s31.3.9 34 1c2.5.2 5 1.5 5.7 4 .8 2.4 1.2 5.7 1.7 11.5.2 2.2 0 6.2 0 6.2l-32.2 2.2z" style="fill:#f1edec"/><path d="M22.2 35.5c.2-3 .3-6.3 2.6-8.3 2-1.7 5.4-1.4 9.3-1.5 3.7-.2 13 0 30.6 0s32.3.2 35 .2 5.2 2.1 5.5 4.1-1.1 86.2-1.3 88-.7 5.5-4.7 5.8-66.4.3-69 0-5-2.6-5.4-6.9-2.7-79-2.6-81.4" style="fill:#d8cdc9"/><path d="M29.6 49.9c2.3.3 4.2-9.6 7.2-12 3-2.3 8.6-3.5 8.6-5.8 0-1.1-3.6-1.1-7-1-3.3 0-6.2-.3-7.9 1.4-1.8 2-2 5-2 8-.3 5-.3 9.2 1.1 9.4m49.7 67.6c0 1.7 1.3 2.2 8 2 5.5-.2 8.3-1 10-3s2.1-6.1 2.2-11.2c0-3.4 0-6.8-1.8-6.8-2.5 0-2.5 5.7-4.5 9-4 6.3-13.9 7.8-13.9 10" style="fill:#f1edec"/><path d="M60 49.8s-.7-2.2-1.7-3.5-1.9-1.7-1.8-2.4 2.2-3.2 3.9-3.3 6.3 2 8 3.4a5 5 0 0 1 .9 6.6l-.6 53.2c0 2.3-.5 6.5-3.5 6.5s-3.3-3.7-3.5-5.6c-.5-3.5-1.7-54.9-1.7-54.9m-21.5 7.9c-.1 2 6 26.8 6.4 27.5s2.5 3.3 4.2 2.7c1.6-.7 0-19.5-.3-22.7-.4-4-2-7.5-5.2-8.8s-5 0-5.1 1.3m7 2s14.7-.7 20.7-1.2c4.7-.3 11.4-.9 13.5-1.2s4.7-1.7 5.5-1.6 6.6 3 6.6 3.4.1 2-.1 2.4-2.3 2.3-3 4.3c-.8 1.9-4 14.8-4.5 15.6s-5.5-1.1-5.5-1.1L81 67c.3-.8-.9-2-.9-2l-33.1.7zm2.6 19.1 28-.6c2 0 6-.7 7.3-.3s3.9 2 4.3 3.6.1 3-1.3 3.2-38 0-38 0z" style="fill:#df0b26"/></svg>