<svg xml:space="preserve" width="16" height="16" viewBox="0 0 128 128"><path d="M64 4a60 60 0 1 0 0 120A60 60 0 0 0 64 4m50 60c0 11.5-4 22.7-11.3 31.6L32.4 25.3A50 50 0 0 1 114 64M14 64c0-11.5 4-22.7 11.3-31.6l70.3 70.3A50 50 0 0 1 14 64" style="fill:#c33"/><circle cx="60.1" cy="63.1" r="56.1" style="fill:#f44336"/><path d="M95.6 102.7a50 50 0 0 1-70.3-70.3l7.1-7.1a50 50 0 0 1 70.3 70.3" style="fill:#fff"/><path d="M95.6 102.7a50 50 0 0 1-70.3-70.3l7.1-7.1a50 50 0 0 1 70.3 70.3" style="fill:#231f20"/><path d="M96.4 103.2A47.9 47.9 0 0 1 29 35.8l6.8-6.8a47.9 47.9 0 0 1 67.4 67.4" style="fill:#414042"/><path d="M81.8 28.1c-2-.5-7.2-2.1-17.9-2.1S47 27.8 46 28.1a3 3 0 0 0-2.3 3V97q.2 2.3 2.3 3c1.1.3 7.2 2.1 17.9 2.1s16-1.6 17.9-2.1a3 3 0 0 0 2.3-3V31.1q-.2-2.2-2.3-3m-25 2.4H71q1 .1 1 1 0 1.2-1 1H56.8q-.9 0-1-1c-.1-1 .5-1 1-1m-6.9 0q1 .1 1 1 0 1.2-1 1c-1-.2-1-.4-1-1q.1-.9 1-1M71 97.4H56.8q-.9 0-1-1c-.1-1 .5-1 1-1H71q1 .1 1 1-.1.9-1 1m8.1-5H48.7a1 1 0 0 1-1-.9V36.6q.1-.9 1-1h30.4q.9 0 1 .9v54.9q0 .9-1 1" style="fill:#fafafa"/><path d="M23.4 35.6 95 102.1l2-1.9-66.4-66.8" style="opacity:.8;fill:#231f20"/><path d="M103.9 96.8 25.3 18.9 18.2 26l78.6 77.9" style="fill:#f44336"/><path d="M45 10.9c1.7-.4 4.2-1.6 5.9-1.1 1 .3 1.8 1.4 1.5 2.5q-.6 1.3-2 1.5-5.9 1.5-11.3 4.1A52 52 0 0 0 21 33.7c-1.9 2.7-3.4 5.5-5.8 7.8q-.3.3-.8.4l-.5-.1q-1.6-.6-1.2-2.3.3-1.5 1-2.9 1.5-2.7 3.3-5.1a46 46 0 0 1 6.6-8A57 57 0 0 1 45 10.9" style="fill:#ff8a80"/><path d="m32.4 25.3-2 2 71.1 71.1 1.8-2.2z" style="fill:#c33"/></svg>