<svg xml:space="preserve" width="16" height="16" viewBox="0 0 128 128"><path d="M66.6 15.4c-27.1 0-49.1 7.2-49.1 16l8.2 72.5c.7 8.8 16.8 20.1 41 20.1s39.9-10.6 40.9-20l8.1-72.5c0-8.9-22-16.1-49-16.1" style="fill:#03a9f4"/><path d="M115.5 25.8c0-8.9-21.4-15.3-49.4-15.3-24 0-44.3 5-49.6 12.1L18 36.1s11 8.6 48.6 8.6h4l1.2 13.7H74l2.8-14c29.5-1.5 38.5-9.2 38.5-9.2z" style="fill:#1f6abf"/><path d="M122.6 18s-22.4-5-56.7-5C31.7 13 10 17.5 10 17.5c.7 7.3 3.5 13.8 3.5 13.8s9.4 10 52.9 10 52.6-9 54-10.5 2.2-12.7 2.2-12.7" style="fill:#03a9f4"/><path d="M122.5 16c-2-7.3-22-12-56.2-12S12.1 8.7 10.1 16c-1.8 6.5 15.7 13.7 56.2 13.7s58-7.1 56.2-13.7" style="fill:#81d4fa"/><ellipse cx="66.3" cy="15.4" rx="47.6" ry="7.8" style="fill:#1f6abf"/><linearGradient id="a" x1="18.7" x2="60.7" y1="15.4" y2="15.4" gradientUnits="userSpaceOnUse"><stop offset="0" style="stop-color:#0a488f"/><stop offset="1" style="stop-color:#0a488f;stop-opacity:0"/></linearGradient><path d="M60.7 7.6c-28.7 1-42 4.7-42 7.8 0 4.3 20.5 7.3 42 7.8z" style="fill:url(#a)"/><path d="M83 53.8c-12.3 6.9-43.7 23.3-60.5 22L24 89.3c1.4.2 34.7 1 63.5-32.7z" style="fill:#1f6abf"/><path d="M17.9 35C10.7 42 2.7 51 6.6 60.5a12 12 0 0 0 6.2 6.1L13 65q1-6.6 6.6-14.6z" style="fill:#757575"/><path d="M88.1 52.5c-1.4-4-5.9-1.8-5.9-1.8-13.6 7.7-50 25.4-67.8 18.3C9.8 67 6 64.8 3.5 58.6c0 4.5 5.6 17.2 10.3 19.6Q19.3 81 27 81.3q13.2 0 32.8-9c14.8-6.8 26-14.4 26.6-14.7 0 0 3-1.5 1.7-5.1" style="fill:#9e9e9e"/><path d="M86.4 48.4c-2-1.5-5.6-.8-8.4.7-1.2.4-10.2 6.4-25 12.2C33.8 68.8 19.5 70 11.8 65q-6.3-4.1-4.9-11.2A39 39 0 0 1 18 36.1l-.2-2-1.6-.9a42 42 0 0 0-12.5 20Q2 62.3 10 67.8q6 3.6 14.2 3.5c23.3 0 55-18.8 56.7-19.8 0 0 4.5-2.7 6.8.7q.7.8.7 2.8s1.1-4.1-2-6.6" style="fill:#e0e0e0"/></svg>