<svg xml:space="preserve" width="16" height="16" viewBox="0 0 128 128"><path d="M63 99.9s-3.8 9.7-5.9 13.3c-1.6 2.9-8.3 3.7-12.3 4.7-3.5 1-8 .9-8.5 2.9q-.8 3 4.6 3.1c3.6.2 29.4 0 31.2 0s3.1-2.3-.6-4.8c-3.3-2.3-4.5-2.4-3.2-5.3 1.3-3 7.4-12.4 7.4-12.4z" style="fill:#e8a631"/><path d="M32.6 21s2.1 2.9 2 5.5c-.2 1.7 0 4.3-8.3 7.7-10 4.1-15 8.6-14.9 16.4.1 11 6.7 16.6 9.6 18.7s1.5 8.3 9 15.6c10.7 10.4 16.6 9 22.2 11.5 2 1 2.3 1 4.8 4.5 2 2.8 6.3 7.1 12.2 7.1 7.5 0 8.7-6.4 11.6-7.7s24-3.2 26.5-20.7C109.2 66 93.8 44.5 68.8 39c-11.2-2.5-18.3.7-22.1 1.6-1 .2-3.2 1.2-3.2 1.2-.7-1.9 2.5-3.6 4.9-5.8 2.6-2.4 5.7-5 7.1-7.7C63 15.1 52 1 38.7 4.6 34 5.9 32.6 21 32.6 21" style="fill:#78a3ad"/><path d="M91.6 50.1S90 44 94.6 41c3.4-2.2 7.2-1.9 9.6.6a11 11 0 0 1 4.2-2.6c4.6-1.2 9.4 0 11.7 4.3 3.1 5.9.4 9-3.3 12.5 0 0 4.5 2 4.7 9.3.1 6.4-2.3 13-11.4 15.7-3.6 1-14 1.7-17.9-5.8-1.9-3.6-.2-5.7.6-6.7 2.7-3.5 7.1-1.7 7.1-1.7.4-10.3-8.3-16.5-8.3-16.5" style="fill:#e0e0e0"/><path d="M113.4 66.4c0-6.6-6.8-6.6-6.8-6.6s5.1 1.7 2.6 6.6c-1.4 2.6-5.5 1.8-7.4-.2-1-1.1-2.3-4.3-2.3-4.3s.4 2.9.4 4.7c0 0-4.4-1.8-7.1 1.7l-.5.6c3.3-3.1 6.7-.6 8.6 1.6a7 7 0 0 0 7.4 2.3 6 6 0 0 0 5-6.4m3.9-10.6c7.7-4.7 3-12.5 3-12.5s1.3 5.7-2.8 8.1c-2.3 1.4-6.2 1.2-7-2.8-.4-2.6 2.5-3.7 2.5-3.7s-2.2-.6-4 .8a5.6 5.6 0 0 0-1.2 7.1c2 3.6 6.3 4.7 9.5 3" style="fill:#bdbdbd"/><path d="M72.8 79.6c1.5-3 4.7-7.7 1.6-14.8-.6-1.3-1.7-1.6-1.7-.4s.7 4 .7 5.5.1 3.2-.8 4.4c-.2.3-2.6-.5-5.7-5.4-.2-.4-1-1.5-1.5-1-.1 0-.6 1 .5 3.6 1.5 3.4 5.4 4.8 4 10.2-.2.6-4-1-6.8-5.4q-1-1.6-1.9-1.5c-.7.2 0 2.2.3 3.2 1.3 3 3.2 4.5 5 5.6 4 2.3 4.5 4.6 4.4 5 0 .3-5 2-10.1-2.4-6.6-5.7-6.3-15-6.4-17.6-.2-3.5 0-6.5-2.9-9.3a6 6 0 0 0-4.6-1.4q-.6.2-.7.9t.8 1c3 .9 4.3 2.1 4.3 9 0 19.3 11 23 16.8 23.2 3.5.2 6.4-1.5 6.6-2.3s-1-2-1.6-3.6c-1.6-4.3-.5-6.2-.3-6.5" style="fill:#546e7a"/><path d="M20.7 7c4.4 1.7 7.8 2.6 10.7 1.8 2.5-.6 5.8-5.3 8.5-3.4q1.3 1 2.2 2.4a14 14 0 0 1 2.4 9.5c-.1 1.3-1.7 9.8-7.4 10.2-2 .2-4-.9-5.5-2.2s-2.8-2.7-5.4-4.3c-3.5-2.2-7-2.5-10.8-4z" style="fill:#e0e0e0"/><path d="M15.3 5.4c2-.6 5-.2 7.2 2.1 5.3 6-.4 11.4-3.6 11.5-4.1.2-4.6-1-7-1.8-1.8-.6-3.1.3-4.4 1a.9.9 0 0 1-1.3-1c2.2-8 5.3-10.7 9.1-11.8" style="fill:#e8a631"/><ellipse cx="37" cy="13.7" rx="2.6" ry="2" style="fill:#212121" transform="rotate(-54 37 13.72)"/><path d="M31.2 18c-1.7-.6-8.9-2.5-14-2.8-4.5-.2-7.5 1.9-7.6 2q-.3 0-.4.2 1.1-.6 2.6-.2 1.8-.7 5.2-.6c5.1.3 15.7 3.4 15.8 3.5.1 0 1.8.6 1.6 0 0 0 0-1-3.2-2.1" style="fill:#424242"/></svg>