<svg xml:space="preserve" width="16" height="16" viewBox="0 0 128 128"><path d="M105.5 121.6H34a5 5 0 0 1-5-5V16a5 5 0 0 1 5-5h71.5c3.8 0 6.9 2.2 6.9 6.9v96.8a7 7 0 0 1-7 7" style="fill:#e2a610"/><path d="M31.5 115.8q2.6 3 5.6 2.9l67-.1q4.5-.2 4.5-3.4l-.2-21.4h-84l-.6 14s6 6 7.6 8" style="fill:#94c6d6"/><path d="M101.6 105.8s-2 5.9 0 8.8c2.6 3.4 7 2.6 7 1V16.4a1 1 0 0 0-1.3-1c-1.4.3-3.9.3-7.2-2z" style="fill:#f5f5f5"/><path d="M94.3 110.8h-68c-7 0-5.6-7.3-5.6-7.3l3-91A6.3 6.3 0 0 1 30 6.4h66q3.5 0 4.7 1.6 1.5 2 1.5 5.5v89c0 6-3.5 8.3-7.9 8.3" style="fill:#e2a610"/><path d="M92.2 107.7H25.7a5 5 0 0 1-5-5V11.4a5 5 0 0 1 5-5h66.5c3.8 0 6.9 2.2 6.9 7v87.4a7 7 0 0 1-7 7" style="fill:#ffca28"/><path d="m31 20 1.3-4c-4.3-1.6-9.8-.7-11.6.6v4.6A17 17 0 0 1 30.9 20" style="fill:#e2a610"/><circle cx="32.3" cy="16" r="4.2" style="fill:#9e740b"/><path d="M17.9 22.2c0-3 4-5.4 9-5.4q2.1 0 4 .6 2 .5 2.8-1.4c.4-1.1-.3-2.3-1.4-2.7q-2.5-.8-5.5-.8c-7.4 0-13.3 4.2-13.2 9.6.1 5.5 3.3 8.5 7.1 10.2v-5.7C18 25 18 23.2 18 22" style="fill:#94d1e0"/><path d="M18 21c-.5.5-1.7 3.8-1 6.4.3 1.3 1 3.4 3.7 5v-6C17.5 24 18 21.3 18.1 21" style="fill:#2f7889"/><path d="m31 36.2 1.3-4c-4.3-1.6-9.8-.8-11.6.6v4.6a17 17 0 0 1 10.2-1.2" style="fill:#e2a610"/><circle cx="32.3" cy="32.3" r="4.2" style="fill:#9e740b"/><path d="M17.9 38.3c0-2.9 4-5.3 9-5.3q2.1 0 4 .6 2 .5 2.8-1.4c.4-1.1-.3-2.3-1.4-2.7q-2.5-.8-5.5-.8c-7.4 0-13.3 4.2-13.2 9.6.1 5.5 3.3 8.5 7.1 10.2v-5.7C18 41.2 18 39.3 18 38.3" style="fill:#94d1e0"/><path d="M18 37.5a9 9 0 0 0-1 6.3 7 7 0 0 0 3.7 4.7v-5.7c-3.2-2.2-2.7-5-2.7-5.3" style="fill:#2f7889"/><path d="m31 52.9 1.3-4.1c-4.3-1.6-9.8-.7-11.6.6V54c1.5-.7 4.7-2 10.2-1.1" style="fill:#e2a610"/><circle cx="32.3" cy="48.6" r="4.2" style="fill:#9e740b"/><path d="M17.9 55c0-3 4-5.4 9-5.4q2.1 0 4 .6 2 .5 2.8-1.3a2 2 0 0 0-1.4-2.7q-2.5-.9-5.5-.9c-7.4 0-13.3 4.2-13.2 9.7s3.4 8.4 7.1 10v-5.7C18 58 18 56 18 55" style="fill:#94d1e0"/><path d="M18 53.9c-.5.4-1.7 3.7-1 6.3.3 1.3 1 3.4 3.7 5v-6c-3.2-2.2-2.7-5.1-2.6-5.3" style="fill:#2f7889"/><path d="m31 69 1.3-4.1c-4.3-1.6-9.8-.8-11.6.6V70a17 17 0 0 1 10.2-1.2" style="fill:#e2a610"/><circle cx="32.3" cy="64.9" r="4.2" style="fill:#9e740b"/><path d="M17.9 71.4c0-3 4-5.4 9-5.4q2.1 0 4 .7 2 .3 2.8-1.4a2 2 0 0 0-1.4-2.7q-2.5-.9-5.5-.9c-7.4 0-13.3 4.3-13.2 9.7s3.3 8.4 7.1 10.1v-5.7C18 74.3 18 72.4 18 71.4" style="fill:#94d1e0"/><path d="M18 70.3a9 9 0 0 0-1 6.3c.3 1.3 1 3.4 3.7 5v-6c-3.2-2.2-2.7-5.1-2.6-5.3" style="fill:#2f7889"/><path d="m31 85.3 1.3-4c-4.3-1.7-9.8-.8-11.6.5v4.6c1.5-.6 4.7-2 10.2-1.1" style="fill:#e2a610"/><circle cx="32.3" cy="81.3" r="4.2" style="fill:#9e740b"/><path d="M17.9 87.4c0-3 4-5.4 9-5.4q2.1 0 4 .7 2 .3 2.8-1.4a2 2 0 0 0-1.4-2.7q-2.5-.9-5.5-.9c-7.4 0-13.3 4.3-13.2 9.7s3.3 8.4 7.1 10.1v-5.7C18 90.3 18 88.4 18 87.4" style="fill:#94d1e0"/><path d="M18 86.3a9 9 0 0 0-1 6.3c.3 1.3 1 3.4 3.7 5v-6c-3.2-2.2-2.7-5-2.6-5.3" style="fill:#2f7889"/><path d="m31 101.3 1.3-4c-4.3-1.6-9.8-.8-11.6.6v4.6a17 17 0 0 1 10.2-1.2" style="fill:#e2a610"/><circle cx="32.3" cy="97.6" r="4.2" style="fill:#9e740b"/><path d="M26.7 110.8h-.5q-3.8-.2-4.7-2.3c-3.6-1.9-3.6-4.4-3.6-5 0-3 4-5.5 9-5.5q2.1 0 4 .7 2 .4 2.8-1.4.4-2-1.4-2.7-2.5-.9-5.5-.9c-7.4 0-13.2 4.3-13.2 9.7 0 6.5 2.4 9.8 15.4 12v-2.2zm0 0h-.5q-3.8-.2-4.7-2.3c-3.6-1.9-3.6-4.4-3.6-5 0-3 4-5.5 9-5.5q2.1 0 4 .7 2 .4 2.8-1.4.4-2-1.4-2.7-2.5-.9-5.5-.9c-7.4 0-13.2 4.3-13.2 9.7 0 6.5 2.4 10 15.4 12v-2.2z" style="fill:#94d1e0"/><path d="M26.7 110.8h-.5q-3.8-.2-4.7-2.3c-3.6-1.9-3.6-4.4-3.6-5l.2-1.2c-.6.5-1.8 3.8-1.2 6.3.3 1 .5 2.8 3.7 4.7q3.1 1.2 8.4 2v-2.1z" style="fill:#2f7889"/></svg>