<svg xml:space="preserve" width="16" height="16" viewBox="0 0 128 128"><path d="M65.8 57.9a5 5 0 0 0 0 6.5c2 2.7 5.2 2.8 6.9 6.1 1.5 3 .6 8.3-6 8.7s-13-4.9-14.4-11.2c-1.7-7.8.6-16.6 9.9-21s21.4-2.3 28 5c7 7.4 12 17 8.6 30.9S81 108.7 58.1 106.4c-18.8-2-36.1-19-35.3-44.7.8-25 21.6-40.3 41.1-43.4a53 53 0 0 1 42.8 12c5.1 4.2 9.6 8.8 10.9 10.2 1.8 2 4.5 2 4.8-1.1q.9-6.2-8-17A61 61 0 0 0 62.2 4.3C18 8.3 2.9 47.6 5.9 72s20.3 51.2 60.2 52a49 49 0 0 0 49.2-35.4 48 48 0 0 0-4.6-36.8c-9.3-15-19.8-21-34.2-22.5A39 39 0 0 0 46.8 38C32.1 51.2 31.7 75 47 87a28 28 0 0 0 25.1 5 19 19 0 0 0 12.2-9.3c3-6 2.8-12 .6-16.6a20 20 0 0 0-8.8-8.7c-4.9-2.5-8.4-1.8-10.3.4" style="fill:#1f87fd"/></svg>