<svg xml:space="preserve" width="16" height="16" viewBox="0 0 128 128"><path d="m20.6 21 20.9 4.8L82 27l25-4 6.6-6.8 1 4.3-43.1 43-2.6 4.8v27.5s.9 6.5 3.5 7.8c2.7 1.3 12.3 2.5 16.1 5.4s2.1 5.7 2.1 5.7l-6.9 5-19.4 3.1-21.4-2.2s-8-5-8-6.7c0 0-.4-3.4 3.8-5.8 3.6-2 13-2.5 15.1-4.1 4.3-3.3 4.6-6.8 4.6-6.8l.3-28.9-6-6.8s-27.6-25.8-31.5-30a68 68 0 0 1-7.2-9c-4-5.9-.3-9.9-.3-9.9z" style="opacity:.5;fill:#fff"/><path d="m17.6 11.9 17.9-4.6 30.5-1 31.4 3.8 16.3 6 1 4.4-43.1 43-2.6 4.8v27.5s.9 6.5 3.5 7.8c2.7 1.3 12.3 2.5 16.1 5.4s2.1 5.7 2.1 5.7l-6.9 5-19.4 3.1-21.4-2.2s-8-5-8-6.7c0 0-.4-3.4 3.8-5.8 3.6-2 13-2.5 15.1-4.1 4.3-3.3 4.6-6.8 4.6-6.8l.3-28.9-6-6.8s-27.6-25.8-31.5-30a68 68 0 0 1-7.2-9c-4-5.9-.3-9.9-.3-9.9z" style="opacity:.7;fill:#e0e0e0"/><path d="M24.9 26.3s11.8-6 39.3-5.7 38.3 8 38.3 8L87 39.4l-41.8-2z" style="fill:#fef9e5"/><path d="M64.9 33c-25.6-.5-40.4-6.6-40.4-6.6l30.4 30s3.6 4.6 8.3 4.6c4.6 0 6.3-2 8-3.2 1.5-1.2 31.4-29.2 31.4-29.2s-16 5-37.7 4.5" style="fill:#e5dda0"/><path d="M112.5 20.9 111 23S76.3 56.7 69.6 62.9c-2.7 2.6-3.6 4.6-3.5 7.6.1 2.8-1.8 16.9-1.8 16.9l1.9 15.6s.9 2.5 2.9 4c2 1.6 7 2.2 7 2.2s-4-2.3-5.3-6-1.3-5-1.3-7.2V69.4c0-1.7 2.2-4 3.7-5.6A3494 3494 0 0 0 112 25.6c2.7-3 3.6-4.9 3.7-6.4.1-1.6-.3-3.6-.9-2.6zm-62.2 87.5s4.5-2.4 5.7-5.8 1.6-5.7 1.6-10.2V68.6c0-2.4-3-4.9-4.4-6.7-.2-.4 1.8.3 3.9 1.5 2.4 1.5 4.8 2.9 4.6 6.5-.2 3.5.2 12.2.2 12.2l-.1 15.7s0 6.3-3.8 8.4a22 22 0 0 1-7.7 2.2M35 113.5c-.2.3-.3 3.6 2.2 5.2 1.8 1.1 7.3 5.5 25.7 5.6 21.2 0 27-6.5 27.8-8.4s.4-4.1.2-4l-1.1 1.7c-.6.6-4.7 5.5-15.7 6.7s-22.5.7-29.8-1.5-9.3-5.5-9.4-5.3" style="fill:#9e9e9e"/><path d="M37.8 111.8c-.5 1-.2 2.4 2 3.8 3.1 2 10.3 3.6 14.3 3.4s4-2.7.4-3.3c-3.5-.6-8.5-1-12.8-3.4-1.2-.6-3-2-3.9-.5m22-.4c.2 1.8 2.9 1.4 4.2 1.4s3.1-.2 3-1.6c0-1.5-2.4-1.3-3.4-1.3-1.2 0-4-.2-3.8 1.5m4-43.8c-2 0-3 1-3 7.8 0 5.7-.2 26.6-.5 27.7s-1.3 3.4-1 4.5q.1 1.6 4 1.6c2.6 0 4-1.3 4-2.8s-.5-2.1-.7-3.3c-.2-1.3-.1-21.8-.1-27.4 0-4.4 0-8.1-2.7-8M23.2 25.3C22 26.6 35.4 39.5 40.5 44.7S58 60.8 59 59.7 46.4 45.8 41.8 41.2c-7.1-7-17.3-17.3-18.6-16" style="fill:#fff"/><path d="M12.8 15.1c-.2-2.4 2-11.4 52.4-10.8 49.7.5 50.5 11.8 50.3 14-.1 2-4.4-1-4.4-1s-9.9-8.9-46.4-9-46.3 4.1-46.6 6.4l-.6 4z" style="fill:#bfbfbf"/><path d="m76.7 32.8 31.6-25.2c2.2-1.7 8.6-5.7 9.1-5.2s-3.7 6-6.5 8.7a1276 1276 0 0 1-25.4 21c-6 4.9-12.5 3.7-8.8.7" style="fill:#f8c977"/><path d="m70 38.5 6.7-5.7s2.3 0 4.3-.2l4.5-.5-12.4 10.3z" style="fill:#e3c08f"/><path d="M75 38c-3-3.7-9.7-3.4-13.6.2-4.2 3.8-5 9.4-1.7 13s8.4 4.1 13.2-.2c4.9-4.3 4.3-10.4 2-13" style="fill:#919f50"/><path d="M61.3 43.5c1 1.3 2.6.8 3.9-.3 1.2-1 2-2.5 1-3.6s-2.6-.6-3.7.3-2.2 2.5-1.2 3.6" style="fill:#e8de9f"/><path d="M59.4 46.4c-1.4 1 0 3.3.7 4.3.6.8 2.2 2.6 3.5 1.5 1.2-1 0-3-1-4.4-.5-.8-1.7-2.3-3.2-1.4" style="fill:#ef3e24"/><path d="M64.1 29.4c21 .3 43.5-1.4 49.3-7.2 5.2-5.1-.4-9-.4-9l-2 4.1-3 3.5-8.7 2.6-9 1.3-18.5 1-19.4-.5L37.6 23l-11.4-2.3-7.7-4-2-3.6s-3.7 1-3.7 1.8q0 2 1.5 4c2 2.3 12 10 49.8 10.6" style="fill:#bfbfbf"/><path d="M72.2 26.2h-7.6c-33.4-.8-44-5.6-47.2-9.4-1.2-1.5-1-2.7-1-3a1 1 0 0 1 2 .4q-.2.1.8 1.6c2.5 2.8 11.8 7.6 45.5 8.3 34.7.8 43.1-3.8 45.1-5.9q.9-1.1.7-1.2a1 1 0 0 1 .8-1.1q.8-.1 1.2.8c0 .2.2 1.3-1 2.6-2.7 3.2-11.8 7-39.3 7" style="fill:#fefefe"/></svg>