<svg xml:space="preserve" width="16" height="16" viewBox="0 0 128 128"><path d="M4 11.4v59.5c0 15.2-.5 49 .8 49.4 1.2.4 11-10.3 13-12.3s4.3-4.7 5.8-4.9c1.4-.1 13.9 1.1 19.2 1s13.2 0 17.1-3.5c4-3.4 3.5-12.3 4.4-13.4s3.2-5 3.8-6.4-.1-3.2-.7-3.5-1.2-2.3-1.2-2.3l3.3-5.3s0-2.2-1-2.5c-1-.4-4.6-.6-4.7-1-.1-.3 2-2 3.3-3.5s1.8-4.5 1-5.3c-.7-.7-8.2-4.8-9.6-7.4a91 91 0 0 1-4-8c-.6-1.5-2-6-3.2-7.7-1-1.7 1.4-2.7 1.4-2.7s6.8-5.5 6.1-12.9S52.8 6.6 43.5 8 31 15 31 15s-5.9-4.4-13.4-5.1-13.3.7-13.7 1.6" style="fill:#afe3fe"/><radialGradient id="a" cx="40.8" cy="59.1" r="80.7" gradientUnits="userSpaceOnUse"><stop offset=".6" style="stop-color:#afe3fe"/><stop offset=".7" style="stop-color:#b9e7fe"/><stop offset=".9" style="stop-color:#d2f0fe"/><stop offset="1" style="stop-color:#dbf3fe"/></radialGradient><path d="m77 69.6-5 5.3s.7.8 1.4 1.2l1.8.8 4.6-3.2 11.5.5s-8 4-8.7 12.3c-.6 8.6 4.7 17.2 16.1 17.2s17.1-8 17.4-15-3.5-11.8-3.5-11.8S125 73.3 125.7 62c1-11.9-7-21.8-19.2-23a17 17 0 0 0-18.4 14 21 21 0 0 0 3.2 12.4z" style="fill:url(#a)"/><path d="M71 69.4c.4 3.7-3.2 6.1-3.2 6.1s1.5.4 1.8 1.8-.6 2.5-1.3 3.3c0 0-.8-1-2-2-.8-.6-1.7 0-2.3-1s1-3.3 1-3.3l2-3.7 1.4-3.5s2.1-.4 2.5 2.3M57.2 65c-.6.9.5 7.5 0 14-.6 8.3-4.8 13.9-4.2 14.8 1 1.2 7.6-.6 9-15.2 1-10.5-3.8-15.1-4.8-13.6" style="fill:#4fc1f5"/><path d="M49.7 52.7c-2 .4-.3 3.9-1.9 4.4q-1.4.5-4-.9C40.5 54.6 37.4 51 36 53s5.3 14.3 14 11.7c2.2-.6 3.2-2.7 3.4-4.6.3-3.4-1.7-7.7-3.8-7.3" style="fill:#159df5"/><path d="M74.9 76.7q.9.8 3.4-.7a17 17 0 0 1 16.3.4c5.5 3.5 7 9.6 3.6 12.8-2.9 2.7-7.9 1.7-8.3-1.1-.4-2.3 2.7-3.2 3.3-.8.3 1 2 1.9 2.8 0 .7-2-1.8-7.1-7.2-5-5 1.9-3.5 11.1 3.8 12.6 6.6 1.4 14.6-5 11.2-14.7-2.5-7-11.6-11.3-21.3-9.4-4.7 1-9 4.3-7.6 6m-2.6-1.5c1 .8 1.4-1.5 3.9-3.5 2.1-1.7 7.2-4.5 14.3-3.4 7.2 1 16.2 4 22.8-1.4s5.3-18-4.5-21.4-15.6 2.2-15.2 8.7c.4 7.4 9.3 7 11.2 3.7 1.6-3 .2-5.4-1.1-6s-3 0-2.4 1.8c.7 2.4-2 3-3.1 1.6s-.6-5.7 2.6-6.6c4.9-1.5 13.4 1.9 11.9 10.8-1.7 9.2-16.7 5.9-22.9 5S76.6 66.8 74 69.4s-3 5-1.7 6" style="fill:#4fc1f5"/><path d="M4 92c-.4.5-.6 4.6 0 4.6 1.3.2 11.6-6.8 16.8-21S24 47.1 24 47.1s3.4-4.2 5-7.2c1.8-3 2.9-7.7 2.9-7.7s2.7 3.6 10 3.9 18.4-2.8 20-12.7c1.5-9.2-6.9-13.7-8.6-14a11 11 0 0 1 5 6.2c1 3.8.3 7.4-.5 9.3a12 12 0 0 1-7 6.6c-8.1 3-18.1.2-18-4.9 0-5 6.1-8.4 10.3-8.3 3 0 4.7 2.7 2 4.2s-4.9.6-6.1 1.7c-1 1-.5 3 4 2.3s8.1-4 7-7.4-7.4-6.6-15.3-1.2c-6.7 4.5-5 10.7-5 11.2 0 .3-2 6.4-4.4 10.5s-5.5 7.9-5.5 7.9 1.3 14-2 23.6C13 85.3 4 92 4 92" style="fill:#fff"/></svg>