<svg xml:space="preserve" width="16" height="16" viewBox="0 0 128 128"><radialGradient id="a" cx="63.6" cy="67.1" r="57" gradientTransform="matrix(1 0 0 -1 0 130)" gradientUnits="userSpaceOnUse"><stop offset=".5" style="stop-color:#fde030"/><stop offset=".9" style="stop-color:#f7c02b"/><stop offset="1" style="stop-color:#f4a223"/></radialGradient><path d="M63.6 118.8c-27.9 0-58-17.5-58-55.9S35.7 7 63.6 7c15.5 0 29.8 5.1 40.4 14.4 11.5 10.2 17.6 24.6 17.6 41.5s-6.1 31.2-17.6 41.4a61 61 0 0 1-40.4 14.5" style="fill:url(#a)"/><path d="M111.5 29.7a57 57 0 0 1 8.1 30.2c0 16.9-6.1 31.2-17.6 41.4a61 61 0 0 1-40.4 14.5 59 59 0 0 1-48.2-23 58 58 0 0 0 50.2 26c15.4 0 29.8-5.2 40.4-14.5a54 54 0 0 0 17.6-41.4q-.1-19.2-10.1-33.2" style="fill:#eb8f00"/><linearGradient id="b" x1="97.8" x2="97.8" y1="55.4" y2="72.9" gradientTransform="matrix(1 0 0 -1 0 130)" gradientUnits="userSpaceOnUse"><stop offset="0" style="stop-color:#fcc21b"/><stop offset=".7" style="stop-color:#fde030"/><stop offset="1" style="stop-color:#f4a223"/></linearGradient><path d="m126.2 60.8-1.7-1.8a9 9 0 0 0-5.4-1.9H70a2 2 0 0 0-2 2v13.5l.2.8.1.3.6.6q.5.3 1.1.3h48.8a9 9 0 0 0 4.2-1 9 9 0 0 0 4.7-7.7v-.4q0-2.6-1.5-4.7" style="fill:url(#b)"/><linearGradient id="c" x1="63.6" x2="101.1" y1="64.2" y2="64.2" gradientTransform="matrix(1 0 0 -1 0 130)" gradientUnits="userSpaceOnUse"><stop offset=".4" style="stop-color:#fde030"/><stop offset="1" style="stop-color:#f4a223;stop-opacity:0"/></linearGradient><path d="M63.6 57.1h37.5v17.5H63.6z" style="fill:url(#c)"/><linearGradient id="d" x1="110.2" x2="127.7" y1="64.2" y2="64.2" gradientTransform="matrix(1 0 0 -1 0 130)" gradientUnits="userSpaceOnUse"><stop offset="0" style="stop-color:#f4a223;stop-opacity:0"/><stop offset=".6" style="stop-color:#fcc21b"/></linearGradient><path d="M110.2 57.1h8.9a9 9 0 0 1 7.1 3.7q1.5 2.1 1.5 4.7v.4a9 9 0 0 1-6.3 8.3q-1.3.4-2.6.4H111" style="fill:url(#d)"/><path d="M59.3 90.5c7.1-2.3 13.4-.3 15.7 1.6q1.3 1 1.2 2.5-.2 1-1.2 1.4l-.7.1c-8.5.2-16.7 2.9-23.7 7.7l-.6.3q-1 .3-1.8-.4-1-1.3-.5-2.7c.6-2.8 4.5-8.1 11.6-10.5m31.5-36.1c0-5.9-3.8-9.4-8-9.4s-8 3.5-8 9.4q0 1.4.3 2.7h15.4zM45.2 45c-4.2 0-8 3.5-8 9.4s3.8 9.4 8 9.4 8-3.5 8-9.4-3.8-9.4-8-9.4" style="fill:#422b0d"/><path d="M72.6 74q14.7-.7 29.4-1 7.4 0 14.7-.2h1.8l1.6-.2q1.6-.3 2.8-1.4a7 7 0 0 0 2.5-5.4 6 6 0 0 0-1.4-4.3l-.5-.6-.6-.5a7 7 0 0 0-4.4-1.6h-1.8l-14.7-.3Q87.3 58 72.6 57q14.7-.6 29.4-.6h16.6a9 9 0 0 1 6.6 2.7l.7.8q.8.8 1.2 1.7a9 9 0 0 1 .9 4.1 9 9 0 0 1-7.3 9.2l-2.1.3h-1.9L102 75q-14.7-.3-29.4-1" style="fill:#eb8f00"/><path d="M31 40.5c-1.6 1.5-4.2-.4-2.8-2.3A21 21 0 0 1 47 29.9a1.8 1.8 0 0 1-.1 3.7h-.2a26 26 0 0 0-15.6 6.9m63.7-6.1c1.5 1.6 4.2-.1 3-2.2a21 21 0 0 0-18.3-9.6 1.8 1.8 0 0 0 0 3.7 26 26 0 0 1 15.3 8" style="fill:#422b0d"/></svg>