<svg xml:space="preserve" width="16" height="16" viewBox="0 0 128 128"><path d="M64 4a60 60 0 1 0 0 120A60 60 0 0 0 64 4m50 60c0 11.5-4 22.7-11.3 31.6L32.4 25.3A50 50 0 0 1 114 64M14 64c0-11.5 4-22.7 11.3-31.6l70.3 70.3A50 50 0 0 1 14 64" style="fill:#c33"/><circle cx="60.1" cy="63.1" r="56.1" style="fill:#f44336"/><path d="M95.6 102.7a50 50 0 0 1-70.3-70.3l7.1-7.1a50 50 0 0 1 70.3 70.3" style="fill:#fff"/><path d="M95.6 102.7a50 50 0 0 1-70.3-70.3l7.1-7.1a50 50 0 0 1 70.3 70.3" style="fill:#231f20"/><path d="M96.4 103.2A47.9 47.9 0 0 1 29 35.8l6.8-6.8a47.9 47.9 0 0 1 67.4 67.4" style="fill:#414042"/><circle cx="63.9" cy="33.8" r="7.8" style="fill:#fafafa"/><path d="M77.7 65.7c1.4.4 2.8-.4 3.3-1.7l3.2-10.5c.6-1.5 0-3.3-1.5-4.1 0 0-8.9-6.5-18.9-6.6-3.3 0-6.2.9-7.5 2.3-1.1 1.2-5.5 9.5-7 12.3q-.6 1-1.6 1.3l-9.6 2.7q-1.8.6-2 2.5a2.6 2.6 0 0 0 3.3 2.5L51.3 63l.2-.1.2-.1.4-.2h.1q.5-.3.7-.9L56 55c.3-.6.9-.7.9 0l-.2 14.7q0 .8-.5 1.5l-7 8.5q-1.2 1.6-.5 3.3l3.9 15.7a3 3 0 0 0 3.9 2.4h.1a3.3 3.3 0 0 0 2.4-4V97l-3.4-13.7q-.1-.8.3-1.4l6.5-8q.4-.5 1-.5h1q1.2 0 1.3 1.2 0 4.2.8 8.4l.8 1.8 10.9 15.7a3.3 3.3 0 0 0 5.3.2c1-1.2 1-2.9.1-4.1l-10-14.5q-.6-1-.7-2l-.5-7.6V51.6q0-.5.6-.7l.3.1 4.9 2q.5.3.4.8L76 62.4c-.5 1.4.3 2.8 1.6 3.3z" style="fill:#fafafa"/><path d="M23.4 35.6 95 102.1l2-1.9-66.4-66.8" style="opacity:.8;fill:#231f20"/><path d="M103.9 96.8 25.3 18.9 18.2 26l78.6 77.9" style="fill:#f44336"/><path d="M45 10.9c1.7-.4 4.2-1.6 5.9-1.1 1 .3 1.8 1.4 1.5 2.5q-.6 1.3-2 1.5-5.9 1.5-11.3 4.1A52 52 0 0 0 21 33.7c-1.9 2.7-3.4 5.5-5.8 7.8q-.3.3-.8.4l-.5-.1q-1.6-.6-1.2-2.3.3-1.5 1-2.9 1.5-2.7 3.3-5.1a46 46 0 0 1 6.6-8A57 57 0 0 1 45 10.9" style="fill:#ff8a80"/><path d="m32.4 25.3-2 2 71.1 71.1 1.8-2.2z" style="fill:#c33"/></svg>