<svg xml:space="preserve" width="16" height="16" viewBox="0 0 128 128"><path d="M58.5 3.9c-1.6 0-1.9 1.6-2 2.7S54.7 15 54.7 15l12 2.5 6-3-1.2-8.2c-.2-1.3-.6-2.2-2-2.3z" style="fill:#fc2b26"/><path d="M54.3 18c-.2 1.4 1.2 2.7 2 2.8h15c1.2 0 2.4-.8 2.1-2.4l-.6-4-17.9.1z" style="fill:#da0a26"/><path d="M92.6 19.3c-1.6 0-1.9 1.6-2 2.7l-1.7 8.3 12 2.5L107 30s-1-7.1-1.3-8.3c-.2-1.2-.6-2.2-2-2.3z" style="fill:#ff8e05"/><path d="M88.3 33.4c-.2 1.5 1.2 2.8 2.1 2.8h15.2c1.1 0 2.3-.8 2-2.3l-.5-4H89z" style="fill:#ff4c1c"/><path d="M106.2 53.4c-1.5 0-1.8 1.6-2 2.7l-1.6 8.3 12 2.5 6.1-3-1.2-8.3c-.2-1.2-.6-2.1-2.1-2.2z" style="fill:#ffd61c"/><path d="M102 67.5c-.2 1.4 1.2 2.7 2 2.8h15.3c1 0 2.3-.8 2-2.4l-.6-3.9h-18z" style="fill:#ffa42d"/><path d="M91.4 88c-1.6 0-1.9 1.7-2.1 2.8l-1.6 8.3 12 2.5 6.2-3s-1-7-1.3-8.2c-.2-1.3-.6-2.2-2.1-2.3z" style="fill:#02ad41"/><path d="M87.1 102.2c-.2 1.5 1.2 2.7 2.1 2.8h15.2c1.1 0 2.3-.8 2-2.4l-.6-3.9h-18z" style="fill:#2f7c31"/><path d="M58.7 98.3c-1.6 0-1.9 1.7-2 2.8s-1.7 8.3-1.7 8.3l12 2.5 6.2-3-1.3-8.3c-.3-1.3-.6-2.1-2-2.2z" style="fill:#69a5ad"/><path d="M54.4 112.5c-.2 1.4 1.2 2.7 2.1 2.8h15.2c1.1 0 2.3-.8 2-2.4l-.6-4-18 .1z" style="fill:#41727a"/><path d="M27.4 88.3c-1.7 0-2 1.7-2.2 2.8l-1.6 8.3 12.2 2.5 6.4-3-1.3-8.3c-.2-1.2-.6-2.1-2.2-2.2z" style="fill:#2584ff"/><path d="M23 102.5c-.2 1.4 1.2 2.7 2.1 2.8h15.6c1.1 0 2.3-.8 2.1-2.4l-.6-4-18.5.1z" style="fill:#014fab"/><path d="M11.3 53.7c-1.6 0-1.9 1.7-2.1 2.8l-1.6 8.3 12 2.5 6.1-3-1.2-8.3c-.2-1.2-.6-2.1-2.1-2.2z" style="fill:#a47ecc"/><path d="M7 67.8c-.2 1.5 1.2 2.8 2 2.8 1 0 14.2.2 15.3.1 1 0 2.3-.9 2-2.4l-.6-4h-18z" style="fill:#7a56bf"/><path d="M23.8 19.6c-1.6 0-1.8 1.6-2 2.8l-1.6 8.3 12 2.5 6.1-3-1.2-8.3c-.2-1.2-.6-2.1-2.1-2.2z" style="fill:#f47daa"/><path d="M19.6 33.7c-.2 1.5 1.2 2.8 2 2.8 1 0 14.2.2 15.3.1 1 0 2.3-.9 2-2.4l-.6-4h-18s-.6 2.4-.7 3.5" style="fill:#ea4889"/><path d="M79.6 99.4a44 44 0 0 1-30.3-.7l-2.2 4.3a51 51 0 0 0 34.4.1z" style="fill:#9b9b9b"/><path d="M101.4 22A54 54 0 0 0 64 6.2 49.6 49.6 0 0 0 14.8 59a47 47 0 0 0 29.8 43l2.5-4a42.5 42.5 0 0 1-28.3-39.2 45.7 45.7 0 0 1 45.3-48.5 50 50 0 0 1 34.4 14.6c8.3 8.6 12.4 20 12 33a44.5 44.5 0 0 1-28.7 40.9l1.7 3.8a48 48 0 0 0 31-44.5c.5-14.2-4-26.6-13.1-36" style="fill:#c9c9c9"/><path d="M62.4 7.6h3v35.1h-3z" style="fill:#c8c8c8"/><path d="M18.7 54.8h92.4v3H18.7z" style="fill:#c8c8c8" transform="rotate(-47.8 64.86 56.34)"/><path d="M63 8.2h3v96.6h-3z" style="fill:#c8c8c8" transform="rotate(-45.1 64.48 56.5)"/><path d="M63 9h3v96.9h-3z" style="fill:#c8c8c8" transform="rotate(-90 64.48 57.5)"/><path d="M74.4 31.5 63.9 8.2 66.6 7 76 27.6l19.7-8.2 1.2 2.7zm37.1 26.2L90 46.7l5.4-25.3 3 .6-5 23.2 19.4 9.8zm-15.2 32-5.7-22.4 20-10.8L112 59 94 69l5.2 20zm-61.9.9-3-.7 4.7-19.5-20.2-11 1.4-2.7L39.7 69l-.3 1.1zM18.5 57.8 17 55.2l18-10.4-6.7-20.2 2.8-1 7.5 22.6zm35.6-25.9-23.3-8.4 1-2.8 20.7 7.4L61.7 8l2.8 1z" style="fill:#c8c8c8"/><path d="M32.4 86.3h23v3h-23z" style="fill:#c8c8c8" transform="rotate(-19.3 43.88 87.84)"/><path d="M83.6 75h3v23.4h-3z" style="fill:#c8c8c8" transform="rotate(-74.9 85.06 86.65)"/><path d="M64 106 53.4 88.3l2.6-1.6 8 13.5L72.9 87l2.5 1.7zm-1.6-36.8h3.1v30.6h-3.1zm2.9 16.6H64c-11-.6-27.7-8.2-28.3-27.1A29 29 0 0 1 64.3 28c6 0 14.8 2.3 21.4 9.1 5.3 5.5 8 12.8 7.7 21a28 28 0 0 1-28.1 27.6m-1-54.7a26 26 0 0 0-25.5 27.4c.5 17 15.5 23.8 25.4 24.2A25 25 0 0 0 90.3 58c.3-7.4-2-14-6.8-18.8a28 28 0 0 0-19-8.2zm1.4 71.6h-2C46 101.5 19 89.2 18 58.6A46.4 46.4 0 0 1 64 9.4c9.5 0 24.4 3.7 35 14.8a45 45 0 0 1 12.3 33.6 45.4 45.4 0 0 1-45.6 44.8m-1.6-90.8a44 44 0 0 0-43.7 46.9c.9 28.9 26.5 40.6 43.4 41.4a43 43 0 0 0 45-42.4A42 42 0 0 0 97.5 26 48 48 0 0 0 64 11.8" style="fill:#9b9b9b"/><path d="M45.3 117.7 59.6 86l3.1-16-3.4-2.6-7.1 21.3-20.2 31zM65 70.6c.2 1.8 4.5 16.1 4.5 16.1L85.2 118l11.9.4-22.5-32.6-6.9-19.9z" style="fill:#7956c0"/><path d="M30.8 116.3c.8-1 20.3-31.2 20.3-31.2l7-19.2 2.9 3.5L57 86l-21.9 32.8-4.5.3zm36-47.5 5.1 17.3 22.2 33 5.2-.4L77 85l-7.2-18.7zm-42.7 47.9c-.9 1-.6 6.8.1 7l40 .3c20.2.1 41.1.2 41.5 0 .7-.3.5-6.5 0-7-.3-.3-20.8-.4-41.2-.5-20.2-.1-40-.2-40.4.2" style="fill:#8f7cf3"/><path d="m46.9 57.4 5.4 4.4.1 7.2 6.7-.7 5 5 4.7-4.6 7.4-.3-.7-6.8 4.4-4-5.2-5.6.3-6.9-6.8.6-4.3-5.1-4.8 5.4-7-1.7.2 7.7z" style="fill:#c8c8c8"/><path d="m52 57.3 3.9 3v5l4.7-.4 3.4 3.4 3.3-3.2 5.1-.2-.4-4.7 3-2.8-3.5-3.9.1-4.7-4.7.4-3-3.6-3.3 3.7-5-1.1.3 5.3z" style="fill:#f1edec"/></svg>