<svg xml:space="preserve" width="16" height="16" viewBox="0 0 128 128"><path d="M84 20.3S73.6 6.5 63 6.5 43.4 20.3 43.4 20.3l-1.1 97.3s20.7 3.4 45.7 0c4.5-.7-4-100-4-97.3" style="fill:#5995b3"/><path d="M102 37.9C97 23.2 91.7 21 91.7 21l-10.4-6.8c-4.3-4.4-7.7-8.4-12-9.7H56.9c-1.7 0-5.3 3.8-5.3 3.8L48 13l-11.3 8s-7.9 4.3-12.2 17C17.8 57.8 10 99.4 10 99.4c1.3 1.3 9.3 4.2 13.9 4.6 0 0 6.6-26.7 12.3-44.8.4 12.4-3.5 59.2-3.5 59.2s13 5.4 29.3 3.3c0 0 1-39.3.3-54.9-.8-16.7-2.5-25.7-2.5-25.7-2.1-10.3-5.6-25.4-4.7-29.6 1.2-5.7 15-4.5 16.2-.7 2.3 8-5.5 28.9-5.4 46.4v64.3c14.5 1.8 28.4-3 28.4-3s-2.4-52.1-2.5-59c4 16 13 45.1 13 45.1 4.6-1 12.4-4 13.3-6 0 0-9.2-40.9-16-60.7" style="fill:#fff"/><path d="M73.7 9.4c0-3.2-2.6-5.4-10.6-5.4-6.3 0-8.4 1.2-9.2 2.5-2.8 4.5.2 6.3 2.4 17.8 0 0-.8-6.4-.4-9.5.5-4 15.3-4 15.2-.7 0 2-1.2 13.3-1.2 13.3 2.6-9.8 3.8-13.6 3.8-18M33 46.7c-3-3-3.9-7.7-3.8-10.3 0-.9.3-4 1.2-4.6 1-.5 1 1.4 1 2 0 3.2 1 9.7 1.7 13" style="fill:#b7d5e5"/><circle cx="57.7" cy="60.6" r="2.2" style="fill:#b7d5e5"/><circle cx="57.7" cy="91.1" r="2.2" style="fill:#b7d5e5"/><circle cx="57.1" cy="106.8" r="2.2" style="fill:#b7d5e5"/><circle cx="57.7" cy="76" r="2.2" style="fill:#b7d5e5"/><path d="M9.8 99.2s7-36.6 9.6-47.5a140 140 0 0 1 5-16.5c1.6-4.2 2.3-5.3 5.2-9C34 20.6 45.6 14.9 48 12s1.2-.1-.4 2.3-13 9-16.5 13.1c-.8 1-2.7 3.6-4.3 7.5-2 5-3.8 11.3-5 17.6L11.6 99.8zm37.3-86c3-4.5 5.7-5.7 5.7-5.7a97 97 0 0 0-7.4 13l7.8.6-4.5 7.2c1.2 2 10.2 18 11.2 23.4 0 0-7.2-14-13.2-21.4-1.2-1.5-1-2.4-.6-3l3.5-4.5-4.6-.3c-1.2-.1-2-1.4-1.5-2.5.5-1 1.4-3.4 3.6-6.8m33.4 0c-3.7-5.4-8.9-7.6-8.9-7.6 6.7 4.9 10.6 15 10.6 15l-7.8.5 4.8 7.4c-1.3 2-7 12-10.4 22.9l11.8-20.8c1.3-2 1.3-2.7.9-3.3L78 23l4.6-.4c1.2 0 2-1.3 1.4-2.4-.4-1.2-1.3-3.6-3.5-7M62.3 83.3 60.8 120q0 .6-.7.7c-14.4.6-22.4-2.4-26-3.7a954 954 0 0 0 3.8-63.4 87 87 0 0 0-2.7-26.3c-.3 1.2.3 9.6.3 16.4 0 5.7-.5 9.7-1.1 13.5a749 749 0 0 1-13 46.5l2.8 1c0-.2 6.4-20.5 11.2-41 0 0-3.8 48.6-4.4 53.7q0 1.3 1 1.8c12 5.1 25.7 4.8 29.7 4.6q1.1-.1 1.2-1.2c.1-6 0-33.3-.6-39.4m44.9-27.8c-2.2-8.2-3.2-20-10.8-31.2-3-4.2-12.8-9-16.6-12.4-1.7-1.4.3 2 1.8 3.4 4.6 4.2 10.2 6.1 13.3 10.3 5 6.7 8.1 20.8 10.3 30.7C109 72.6 117 99.1 117 99.4l2-.5s-8.7-31.3-11.8-43.5M93.5 32.2c-5.3 27.5-1.2 76-.9 84.6-5.6 1.7-15 3.7-25.3 3.7a.5.5 0 0 1-.6-.5V61.3c0-9.5.6-20 .6-20s-1.6 8.1-1.6 17.7c0 9-.8 55.9-1 63.5q.1 1 1.1 1.1h4c12.3 0 22.6-3.2 25.2-4.1q.6-.3.6-1l-2.3-46.9s7.7 26.2 11.1 33l2.8-1a353 353 0 0 1-13.7-45.3c1-21.3 0-26.1 0-26.1" style="fill:#b7d5e5"/><path d="M118 100.4q1.4-1 1-1.5t-2.4 0c-3.7 1-6.1 1.9-9.7 3.6a10 10 0 0 0-2.5 1.7c-.7 1.8 4.8 0 5.5-.3 2.3-.7 6.3-2 8.2-3.6" style="fill:#5995b3"/><path d="M87.2 89.7v13.8q0 .5-.5.7a28 28 0 0 1-9.3 1.8 1 1 0 0 1-1-1V90.6a25 25 0 0 0 6.6 0q1.9 0 4.2-.8m2-3.3c-1.6 1.5-4.4 2-6.5 2.2l-2.8.2c-3.3 0-5.4-.7-5.4-.7v17a3 3 0 0 0 2.9 3c4.1 0 7.9-1.2 10-2q1.7-.7 1.8-2.6zM40 89.3a15 15 0 0 0 7.3 1.7q2.1 0 3.7-.3l-.3 14q-.2 1.3-1.7 1.5c-3.2-.1-6.3-1-8.4-1.6q-1.1-.5-1.2-1.7zM38 86l-.6 17c0 1.6 1 3.1 2.6 3.6 2.2.7 5.5 1.6 9 1.7 2 0 3.6-1.6 3.7-3.5l.4-16.4s-2.6.7-5.8.7l-2.7-.2A18 18 0 0 1 38 86" style="fill:#b7d5e5"/><path d="M38.4 86.1c4 3 8.5 3.5 14.4 2.4m21.7-.5c5 1.7 14.2.2 14.7-1.6z" style="fill:#5995b3"/><path d="m85.8 50.4-.4 11.3q0 .4-.4.4a26 26 0 0 1-8 .7q-.6 0-.5-.5V51l2.8.2q3 0 6.5-.9m2.1-2.7a26 26 0 0 1-8.6 1.6c-3.1 0-4.8-.8-4.8-.8v13.8q0 2.1 2.3 2.4a24 24 0 0 0 8.7-.6q1.7-.5 1.9-2.3z" style="fill:#b7d5e5"/><path d="M74.5 48.5c2 1.8 13 1 13.4-.8m-77.3 52.7q-1.3-1-.8-1.5.1-.4 2.3 0c3.7 1 6.1 1.9 9.7 3.6a10 10 0 0 1 2.4 1.7c.8 1.8-4.7 0-5.4-.3-2.3-.7-6.3-2-8.2-3.6" style="fill:#5995b3"/></svg>