<svg xml:space="preserve" width="16" height="16" viewBox="0 0 128 128"><path d="m105.4 9.8.2 2.6c1.3-.1 3.6.3 6.8 3.5s3.6 5.5 3.5 6.7l2.6.3c3 .3 5.8-2.5 5.5-5.5a15 15 0 0 0-4.4-8.7 15 15 0 0 0-8.7-4.4c-3-.3-5.8 2.5-5.5 5.5" style="fill:#9e740b"/><path d="M87.5 40.8 80 33.4l25.5-21.7s2.8-2 7.9 3c5 5.2 3 8 3 8L95 48.2z" style="fill:#693928"/><path d="M28 112.3c-9 8.8-24 11.4-24 11.4l80.5-80.5 8.5 8.6z" style="fill:#82aec0"/><path d="M15.4 99.6A53 53 0 0 0 4 123.7l80.5-80.5-8.6-8.5z" style="fill:#c9e3e6"/><path d="m59.5 20.6 14.7 18s1.6 2.2 1.7 4c0 2.6.2 4.4 2.5 6.8 2.4 2.3 5.4 2.4 7 2.4s3.6 1.7 3.6 1.7l18 14.7c1 .8 2.5.7 3.3-.4.6-.8.4-2-.3-2.8L94.8 47.9s-1.7-2.2-1.7-4 0-4.1-2.6-6.7-4.5-2.5-7-2.5c-2-.1-3.7-1.8-3.7-1.8l-17-15.2q-1.4-1.1-3-.3c-1 .8-1.1 2.3-.3 3.2" style="fill:#9e740b"/><path d="M84.6 43.3 59.3 18q-.8 1.4.2 2.6l14.7 18s1.6 2.2 1.7 4q0 2.2.6 4c.6 1.6 2.8 2 4 .7z" style="fill:#e2a610"/><circle cx="84.5" cy="43.2" r="4" style="fill:#1e4ea6"/><path d="M83.8 42.2a2 2 0 0 0-.4 1.4c0 .4.3 1 0 1.3-.3.5-1.2.4-1.6 0q-.7-1.2-.5-2.3.3-2 2-2c.7 0 1 1 .5 1.5" style="fill:#42a5f5"/><path d="M93.6 34.1q2.6 2.6 4.3 5.1l.5-.4c1.6-1.6.9-5.1-1.8-7.7s-6-3.4-7.7-1.7l-.4.5q2.5 1.6 5.1 4.2m5.1-5.1q2.3 2.4 3.7 4.6.3 0 .5-.4c1.5-1.5 1-4.7-1.4-7s-5.5-3-7-1.4l-.4.5q2.2 1.5 4.6 3.7m5.1-5q2 2 3.2 4l.4-.4c1.4-1.4 1-4.2-1-6.2s-4.9-2.5-6.3-1.1l-.4.4q2 1.3 4 3.3m5.1-5q1.7 1.6 2.7 3.4l.4-.4c1.4-1.3 1-3.8-.7-5.5s-4.2-2-5.5-.7l-.3.4q1.6 1 3.4 2.7" style="fill:#a65f3e"/><path d="M113.5 11.7a8 8 0 0 0-3.3-1.7 2 2 0 0 1 1-3.9 12 12 0 0 1 5 2.7 2 2 0 0 1-.2 3 2 2 0 0 1-2.5 0" style="fill:#e2a610"/><path d="M23.3 70.4a8 8 0 0 0-4.1-1.6l-.3-1.3q-.4-1.5-1.3-2.9a8 8 0 0 0-1.7 4.2l-1.2.2a8 8 0 0 0-2.9 1.4q1.5 1 2.9 1.3l1.3.3.2 1.3q.3 1.5 1.4 2.8 1-1.5 1.3-2.8l.3-1.3 1.2-.2q1.5-.4 3-1.4m28 30.6q.8 0 1.6-.5-.7-.6-1.6-.6 0-.8-.6-1.6-.4.7-.6 1.6-.8 0-1.5.6l1.5.6.6 1.5q.6-.7.6-1.5" style="opacity:.6;fill:#fff"/><path d="m18.2 89.7 1.5-.6q-.7-.6-1.6-.6 0-.7-.6-1.6-.5.7-.6 1.6-.7 0-1.5.6l1.5.6.6 1.5q.6-.8.6-1.5m61.5 7.8a9 9 0 0 0-4.5-1.7q0-.7-.3-1.3a9 9 0 0 0-1.4-3.1 9 9 0 0 0-1.7 4.4q-.8 0-1.4.3a9 9 0 0 0-3 1.4 9 9 0 0 0 4.4 1.8l.2 1.3q.4 1.5 1.5 3.1a9 9 0 0 0 1.7-4.4l1.4-.3q1.5-.4 3-1.5" style="fill:#fff"/><path d="M90 75.6a8 8 0 0 0-4-1.6l-.2-1.2a8 8 0 0 0-1.3-2.8 8 8 0 0 0-1.5 4q-.7 0-1.3.3a8 8 0 0 0-2.7 1.3 8 8 0 0 0 4 1.5l.2 1.2a8 8 0 0 0 1.3 2.8 8 8 0 0 0 1.5-4l1.3-.3a8 8 0 0 0 2.7-1.2" style="opacity:.6;fill:#fff"/><path d="M41.6 60.7a6 6 0 0 0-2.8-1l-.1-1q-.3-.9-1-1.8a6 6 0 0 0-1 2.7l-.8.2q-1 .2-2 .9 1 .6 2 .8l.8.2q0 .5.2.9.2.9.8 1.9.7-1 1-2v-.8a6 6 0 0 0 2.9-1m5.6 52.9a6 6 0 0 0-2.8-1.1q0-.5-.2-.8-.1-1-.9-2a6 6 0 0 0-1 2.8l-.8.2q-1 .2-2 .8a6 6 0 0 0 2.8 1.1l.2.8q.2 1 .9 2 .6-1 .8-2l.2-.8.9-.2a5 5 0 0 0 1.9-.8M31.7 76.2l1.6-.6q-.7-.6-1.6-.6 0-.8-.6-1.6-.5.7-.6 1.6-.7 0-1.6.6l1.6.6q0 .8.6 1.5.5-.7.6-1.5" style="fill:#fff"/></svg>