<svg xml:space="preserve" width="16" height="16" viewBox="0 0 128 128"><path d="M40.2 98.5c.2.8.1 3.2.1 4.4l.1 8.8s-6.7-1.2-8.7-1.2-4.8 1.2-5 3.6c-.2 2.2 1.1 2.7 2.8 3.2 1.8.5 30.7 6.1 32.2 6.4s4.2-.1 4.5-2.5c.2-1.3-.5-3.3-3.3-4.7-2.2-1.2-11.4-3.3-11.4-3.3l-.1-13.2zm37.2 2.5s-1.1.7-1.1 2 1 1.5 3.8 2.1c4.2 1 21.6 3.8 23.4 4s4.6.6 4.3-1.9c-.3-2.7-2.2-4.3-7.5-5.7-4.5-1.2-6.5-1.3-7-2-.8-1.2-.1-4.5-.1-4.5L78 97.8z" style="fill:#858585"/><path d="M27.3 90.3s.6 3.5 3.9 5.6a64 64 0 0 0 15.9 5.6 66 66 0 0 0 16.4 2.6q5.6-.3 24.8-5.8c12.6-4 17.6-6.7 18.2-8 .7-1.6.2-5.3.2-5.3l-20.5-6.3z" style="fill:#9b9b9b"/><path d="m106.4 79 .4 3c0 1.3.1 2.6-.1 3s-4.9 2.7-15.1 5.9a159 159 0 0 1-27.2 6.4c-2-.4-.5-9.9-.5-9.9z" style="fill:#172789"/><path d="M84.8 67.8s-.6-2-.1-3.1 2.4-1.2 5.7-1c3.4 0 14.2 1 15.4 1.2.9 0 1.7-.9 1.7-.9l-1.4-6-20.7-3.6-12.5-.2 2 17.4z" style="fill:#b0b0b0"/><path d="M105.7 64.9s1-2.5-.3-4c-1.7-2-14.7-2-17-2.2s-5.8 0-5.7-2.4c.1-2.6 2.7-1.8 6.2-1.7 3.6.1 14.3 1 16.7 1.9q3 1.2 3.4 2.6c.5 1.2.7 3.2-.3 4.5-1.3 1.7-3 1.3-3 1.3" style="fill:#858585"/><path d="M63.8 90.4s6.3-.2 11.3-1c5.1-.6 22.8-5.4 26.3-6.6 3.4-1.2 5.2-2.3 5.2-2.3s-1-7-2-8.8c-1.1-1.8-8.5-3.4-13.5-4-4.5-.7-14.2-.4-14.2-.4L44 72l-14 5.4L57.7 84z" style="fill:#024fac"/><path d="M31.1 77.5s7.2.1 15.6 1.3 13.1 2 16 4.7c1.9 1.8 2.5 4.8 2.8 8.5.3 3.4 1.2 6.3-3.6 5.4-3.8-.6-7-4.8-7.6-5l-21.7-7.3z" style="fill:#0c66c8"/><path d="m77.6 65 .3 2.4c0 .3-3.2 1-4.5 1.2l-16.3 3c-2.3.4-25.3 6-25.3 6L28 76.2l2.1-4.6s24.7-9.2 28.3-9.7A48 48 0 0 1 77.6 65" style="fill:#172b86"/><path d="m53.5 67.8 12-1.5 12.1-1.2s-.6-5.4-2-10.2c-1.2-4.6-4.1-8.6-5.1-13.4l-1-6-15.3-5.4s-29.5 6-29.6 6.7.7 29.9.7 29.9z" style="fill:#024fac"/><path d="M25.4 38.9s7 0 13.4-.7q9.4-1.2 16.7-1.8l14-.9s-.3-3.6-.2-4 1.7-2.3 2.2-3.3l1.2-2.7c.2-.6-2.2-8.7-2.2-8.7l-30.9-10-12.8.8L25 32.4z" style="fill:#182b85"/><path d="M27.7 29.3s9.2-1 9.6-1.3c.3-.2.3-9.2 0-11.6l-1.5-9c0-.3-2.4-2-2.4-2l-8.2 5zm38.2-9.9s.5 4 .5 5.4c0 .4-.1 1.4.2 1.4l6.1-.7s1.1-4.8-.3-10.6-4-8.4-4-8.4l-9.4.1z" style="fill:#024fac"/><path d="M61.8 7.6h7.4s-1-2.1-2.6-2.8-9.5-.4-9.5-.4l-23 .2s-8.2.5-10.9 2.3-3.3 4.4-3.8 6.6c-.3 1.4-.8 12.6-.6 23.4.2 15.1 1.7 25.5 1.7 25.5l4.3 6 4.9-5.3s.4-8-.7-14S26.4 39 26.4 39s3.2-3.8 3.2-14.7-1-15-1-15l5.4-.7c1.5-.2 27.8-1 27.8-1" style="fill:#0c66c8"/><path d="M39.9 27.8c.4.5 24.8-2.1 25.3-2.4s1.7-4.2.8-9.4c-1.4-8-6.1-12.1-6.1-12.1s-26.4 0-26.7.5c-.3.3 4.1 3.2 5.7 11.4 1.3 7.3.5 11.6 1 12" style="fill:#e0e0e0"/><path d="M61.9 97.4s-6.6.4-16.4-1.8a99 99 0 0 1-18.2-5.3 58 58 0 0 1-5.5-16.8c-1.2-5.7-2-10.8-1.3-11.1 1.2-.6 14.8.9 14.8.9l24.5 7.6-4 4.8-24-.9s.2 4.6 2.8 7.4c1.8 2 3.9 2.9 10 3.3 6 .5 12.6 1 15.4 4.4 3.2 3.8 1.9 7.5 1.9 7.5" style="fill:#b0b0b0"/><path d="M35.3 63.3c-1-.1-2.3.4-2.7 2.3C32.2 68 34.5 69 38 69l12 1c2.5.1 5.9.7 6.3 2.4.5 1.6-.6 3.3-.6 3.3s2.1 0 3.1-.2c1.3-.5 2-2.2 2-3.8s-1.1-3.9-5.5-5.3c-4.3-1.5-20-3.1-20-3.1" style="fill:#858585"/></svg>