<svg xml:space="preserve" width="16" height="16" viewBox="0 0 128 128"><path d="m36 94.2-9.2-7.7-4.5-5.8-7-6.8s-.7-1.5-1-2.7c-.2-1-.2-3.2-.2-3.2l-6.4-7.5-2.3-5.3-1.1-5.7L9.7 53l5 3.2.9-7.5 2.2-8.8 4-2s.3-2.7 2.7-5 5.6-3.3 5.6-3.3l12.8-.8 11-.8 10.8-7s4.8-.6 9.8.7 17.3 7.6 17.3 7.6l16.8 1 3.7 4s4.3 1.7 7.4 4c2.8 2 3 3.3 3 3.3l-3 14.2L108.2 74 93 80.4 59 95.1l-3 5.1-13-2.7z" style="fill:#b7885a"/><path d="M30.7 60s-2.6 1.6-4.3.6c-1.8-1-3.1-2.7-3.5-6.8-.5-5.2 1.4-9.1 1.4-9.1l5-3.1 4.2.8L44 34.2h13.1l5.4-.8 14.8-.8 20.8 6 7.2 8.7-2.6 8-1.8 1.5s-1 2.1-5.5 4.6L91 64l-43.7.3z" style="fill:#8c6238"/><path d="M105.2 69.2s-1.5-1-.8-2.8 2-2.5 5-4.3a20 20 0 0 0 7.5-7.3c2.8-4.8 5.9-13.3 5.9-13.3s1.7 4 .7 10.8c-.6 4.4-2 7-2 7s-.3 6-1 8.4-3 6.8-3 6.8l-6 8.2s-.6 3.7-4 8.2a12 12 0 0 1-6.4 3.8 66 66 0 0 0-13.2 5c-2 1-10.8 7-15.8 8.5-8.7 2.5-13.7-2-15.6-3-1-.5-4.5-2-6.2-3.1S47 99.6 47 99.6s-6.5 0-8-1.3c-1.7-1.2 1.7-4 1.7-4s3.1 2.1 7 3.2 7.2 1.5 7.4.3c.1-1.3-3.3-1.6-6.4-3.1a40 40 0 0 1-7.1-4.2c-1-1-1-2.4-.5-3.4s1.7-1.6 3.7-.8c2 .7 5.4 2.7 8.6 3.8 3 1.2 6.4 2.4 7 .1s-2.2-2.7-4.6-4-4.6-2.8-5.5-3.6-1-2.5.2-3.6c1.3-1.1 3.4-.6 3.4-.6L65.1 82l11.2.2 9.2-4.5 3.1-.8 3.5-1.7zm-90 4.5s.7-.7 1.5 0c.7.8 3.6 4.7 7.1 5.7 3.6 1 5.8.6 6 2.8.4 2.4-3.5 2.2-6.4 1.1C19.7 82 18 79 17 77.4zm-3.7-15.4Q10 60 12.6 62.4c2.5 2.5 3.2 3 4.3 3.6s2.2.5 2.7-.4q.8-1-.6-2.6l-3.7-3.4c-.9-.8-2.3-2.8-3.8-1.3" style="fill:#a2764a"/><path d="M78 88.7c-.1 1.6 1.6 2.2 6.4 1.5 5.2-.8 5.6-1.9 5.4-3.7s-3-1.2-5.9-.7-6 .4-6 2.9M118 71.4c-1 0-4 3.1-7.5 5.5s-7.1 4.5-8.2 5.2c-1 .6-1.8 1.8-1.3 3s2.5 1.6 4.6.8c2.2-.9 5-2.4 7.1-4 2.7-2 5-4 6-7.2.3-1.7.2-3.3-.7-3.3" style="fill:#b7885a"/><path d="m54.8 54.6 8.9-6.1 1.7 3.6c.6 1.4 1.4 4 1.4 4l27.1-10.5s1.8 3 1.6 10c-.1 3.1-.6 6.2-.6 6.2s-3.7 3.9-12.4 5c-10.3 1.3-17.4 0-17.4 0s-2.6 2.5-9.1 3-10 .3-10-1.2c.1-1.5 2-.6 4.2-1.3s4-2.5 4-2.5z" style="fill:#08a5eb"/><path d="M90.5 41.7c-3-2-9-3-16.2 2.4-6 4.6-8 10.5-8 10.5s1.1 2.9 1.4 6.2c.2 3.2 0 6.3 0 6.3l2 .2H72s6-1.8 13.6-8S95 48.8 95 48.8s-.2-2-1.5-4.1q-1-1.6-3-3" style="fill:#50c1f6"/><path d="M83.7 43.2c-1.9-.7-5.6.2-9.5 6s-5.1 10-2.6 11.3c2.4 1.2 4.2-.7 5.4-3 1.7-3.2 3.3-6.6 5.7-9.6 1-1.3 2.8-4 1-4.7" style="fill:#afe3ff"/><path d="M36.5 61.5s-.2-6 1.5-11.2 4.8-11.2 11.8-11.7c9.2-.7 13.9 9.8 13.9 9.8s-1.2 6.6-5.4 11-6.5 5.4-6.5 5.4l-12.1-1z" style="fill:#50c1f6"/><path d="M43 48.8c-1-1.3-.5-4 1.4-6 2-2.2 4.2-2.4 6-1.6 1.6.8 1.2 2.8-1 4.6-1.3 1.1-1.4 2.6-2.8 3.6-.8.7-2.8.5-3.6-.6" style="fill:#afe3ff"/><path d="M72.2 72.6c.4.7 1.2 1.2 3.2.1 4.1-2.4 8.8-5.9 12.4-8.5 4.2-3 8.7-7.3 9.5-8.2s2.4-2.9 1.3-3.9c-1.5-1.4-2.8.3-5 2.3-2.6 2.4-6.4 5.7-8.8 7.6-2.5 2-9.4 6.6-10.3 7.2-.8.5-3.4 1.8-2.3 3.4M27.6 55.3c-1 .8-.7 2.7 1.1 4.5s3.9 4 10.5 5.9a31 31 0 0 0 13.9.6c1.8-.5 3.5-2.5 2-4-1-1-7.5 1.1-14.8-1.1-9-2.8-9.9-8-12.7-6m2.3 9.8q-1.2 2 2.3 3.3c3.5 1.3 6.4 2.1 7.7 2.9 2 1 3.3.4 3.7-.6.6-1.4-.4-2.4-1.6-3a86 86 0 0 0-8.4-3.3c-1.4-.4-3-1-3.7.7m57.8 7.7c-.5 1.4.1 3.3 6 3.6 4.6.3 8.4-1.4 10.6-2.8 2.4-1.5 3.6-4 2.6-5s-2.5-.2-4.7 1a14 14 0 0 1-9.6 2.2c-2.1-.2-4.5-.5-5 1m-9.4 6.6s-2.5-.7-3.1-1.8q-.8-2 1-2.6c1.1-.2 2.6.6 5.4.9 2.7.3 5.2.2 6.4.2 2.3 0 2.3 2.7.3 3.6-2.1.9-4.4.5-4.4.5s-2.8 4.7-12 4.4c-9-.4-16.8-4.9-18-5.6-2.2-1.2-.9-3.4.5-3s11 4.7 16.4 4.8 7.5-1.4 7.5-1.4m-49-2.1q-1 2.6-5 .4A87 87 0 0 1 9.9 65.7c-3.6-3.7-4-5-4.3-6 0-.7-.4-2-.4-2s-2.8-3-3-5.1c-.3-2.7.9-3.6 2.3-3 1.3.5.7 1.7 1.2 3.4.2.7 2.5 2.7 2.8 4l.6 2.4c0 .7 2.1 3.7 8 8.3 5 4 8.3 5.5 9.7 6.2s3 1.5 2.4 3.3M14.3 56s-5-6.8-1.8-14c2.2-5 6-5 7.5-4.9 1 0 2.3.6 2.1 2.3-.3 2.3-2 1.3-3.5 2.8q-2.3 2-1.1 8.8c1 4.4 3.1 7.3 3.4 8.6s-.6 1.8-1.6 1.3-3.4-2.9-5-5" style="fill:#d29b64"/><path d="M27.7 92.3s-3 3.2-5 8.7c-2.1 5.4-2.7 9.9-1.8 10.8s10.6-2.2 15.7-6.1C44 100 42 94.8 42 94.8s-1.6-1.7-4.2-3C35.3 90.7 33 90 33 90s-.7-2.3-2.9-4q-3.2-2.5-8-2.4a14 14 0 0 0-10.2 5c-2 2.3-3.7 4.6-3.4 5.4.5 1.2 6.4-1 10.8-1.1 4.4 0 8.4-.6 8.4-.6" style="fill:#6e9921"/><path d="M25.9 105.8c.8.5 5.2-5 8-7.5l5.6-5.5-1.7-1-1.5-.6s-2.2 1.2-5.3 5.4c-2.5 3.5-5.9 8.8-5.1 9.2M15 89.1c.5 1.3 2.7-.9 7.3-1.4 4.4-.5 9.7.4 9.7.4s-.6-1.1-1.6-2L28.5 85s-4.6-.6-7.7.6c-2.8 1-6.4 2.3-5.8 3.6" style="fill:#2f7c31"/><path d="M108.8 40c-1-.3-2.5-.8-3.3.6l-.3.8a7 7 0 0 0-4-2.4c.4 0 6 1 6-1.2 0-2.4-2.9-2.9-6.1-3.4s-8.4-.5-8.4-.5 3.1-1.5 6.5-1.8c3-.3 4.6-.2 6.7.8s2.9 3 4 3c1.1.1 2.9-1 2.8-2 0-1.2-1.4-3.3-3.3-4.8l-.1-.1q-1.3-1.1-4.7-2h-.7s-2.4-2.7-4.4-4.5-3.4-3-4.6-3-1.3.9-1.1 1.6a45 45 0 0 0 5 5.6C91 27 86 30.2 86 30.2s-4-2.6-10-3.7c-5-.9-8.9 0-8.9 0s2.2-1.2 1.8-3.6c-.3-2-5-3.4-11.7-.5-5.2 2.3-7.6 4.7-7.6 4.7l-7.3-3c-2.2-1-4.2-2.2-5-2.2s-1.8 1.8-1.7 2.2 2.3 2.4 2.3 2.4l-9.6-.3c-4.5-.2-6.2-.3-7.5-.2-1.4.1-3.4 1.5-3.2 2.7s5.3 1.1 8.4 1.3 7.1.1 7.1.1-3.4 2-5.1 3.6c-2 1.7-3 3.3-1.7 4.8 1.2 1.4 3.1-.3 4.8-1.8q2.4-2.6 5.5-3.6c2.2-.5 4-.3 4-.3s-3.2 2-4.5 3.3c-2 1.7-2.8 3.6-2.8 3.6s-4.2-.7-6.3.4-5.6 2.7-5.8 7.6 1.5 4.7 2.1 4.8 1.3-1.2 1.5-2.6.4-3.6 2.5-5.2c2.2-1.7 4.3-1.1 4.3-1.1s-1 2.5.3 3.3 2.2-1 3.5-2.4c1.4-1.5 3.5-4 9.7-6.5 6.3-2.7 8.1-2.8 9.6-3 1.6 0 3-.4 3-1.7s-3-1.5-3-1.5 1-2.2 4-4c3.2-1.8 5.6-1.7 5.8-1 .6 1.5-3.7 1.9-4 5s4 2.2 5.8 2.2a39 39 0 0 1 17 2.9C87 38 89 40.2 90 40.6s5.5 0 9.5 2.6a7.6 7.6 0 0 1 3 9.3c-.7 1.8-1.6 3.1-1.6 4q.1 1.3 1.9.1c3-2.4 5-6.2 5-8V47l-.1-.5-.1-.4v-.2l-.6-1.4c1.2.4 4.2 1.8 4.3 2.8 0 2.2-3.2 6.5-6.1 9-3 2.3-10.5 5.4-11.5 5.8s-2.5 1.2-2.1 2.5 2.4 1.5 3.6 1.1a36 36 0 0 0 12.6-6.4c4.4-3.6 7.3-8.5 7.6-12 .4-3.6-5.5-6.7-6.5-7.1" style="fill:#d29b64"/></svg>