<svg xml:space="preserve" width="16" height="16" viewBox="0 0 128 128"><path d="M36 3.2c-.5.3-.2 24.4 0 24.9.4.6 5.2 5 9.4 8.7 3.3 2.9 6.2.9 6.8.9l22.8.2c.3 0 4 2.2 7.2-.5a78 78 0 0 0 9.8-9.3c.1-.6.1-24.6-.2-24.8-.1-.1-4-.2-9.2-.2C78 3 68.9 5.3 63 5.3c-7.5 0-11.8-2.4-17.7-2.3-5.3 0-9.3 0-9.4.2" style="fill:#176bc6"/><path d="M45.4 3v33.8l6.5 5.3c1.1-.1 23.8.4 24.3.2.2-.1 2-1.4 3.5-2.7l2.5-2.2.4-34.4h-6.5s-9.3 1-12.8 1c-4.2.1-8-1-11.7-1z" style="fill:#fff"/><path d="M51.8 42.1c-.6-.5-.2-39.2-.2-39.2h12.9L76 3s.3 38.6 0 39.3c-.4.6-6.9 3.8-11.2 3.9S52 42.3 51.9 42" style="fill:#db0d2a"/><path d="M64.3 52.5c2 0 12.2-10 12-10.2-.1-.3-6.2-.3-12.3-.3s-12.3-.2-12.3 0c0 .5 10 10.7 12.5 10.5m-.2-1.7c-.7 0-1.2 1.3-1.6 2.2L51.5 77.1c0 .2-23.3.5-24.4.6q-1.7.2-1.9 1-.4 1.2.5 2C26.3 81 45 96.6 45 97s-6.1 25-6 25.5q0 .9.8 1.5.4.4 1.3.2c1.3-.3 21.7-12.8 22-12.7.2 0 21.1 12.3 21.7 12.4q.8 0 1.5-.3c.7-.3.8-1.3.6-2-.2-.8-4.4-22.5-4.3-23 .2-.3 18.1-15.8 18.5-16.5s-.4-2.3-1-2.8-23.6-2-24-2.3C75.5 76.7 66 53.2 66 52.7s-1.3-1.9-2-1.9" style="fill:#fbc21f"/><path d="M54.5 77.3c0 .5 6.4 13.4 6.8 13.4.5 0 2.9-1 2.9-1s0-33.2-.1-32.9c-.2.4-9.6 19.4-9.6 20.5M68 91a62 62 0 0 1 6.8-10.8c.8-.3 22.8 1 22.7 1.4 0 .5-29.3 9.7-29.5 9.4m-20.3 6.4a251 251 0 0 0-5 21.1c.4.5 18-21 18-21.3v-4.3s-12.5 4-13 4.5" style="fill:#fdefaa"/><path d="m66 89.7-.8-3.7q-.2-1.2-1.3-1.4-1 .1-1.4 1.6l-.8 3.5-3.1-.3c-.9 0-2 0-2.1.9q-.5.7 1.3 2l2.5 1.4-.7 2.8c-.2.7-.6 2.1.1 2.5s1.6-.2 2.4-1l1.8-1.7 2 1.6c.8.6 1.9 1 2.4.5q.8-.9.2-2.3l-1-2.5 2.7-1.8c.5-.3 1-1 .7-1.9q-.5-.7-1.9-.6zm7.7-.7c.4 1.3 1.6 1 3.7.5s22.2-6.7 22.9-7 1.9-1 1.5-2q-.6-1.5-2.6-1c-1.2.2-21.1 7-22.4 7.4-.9.3-3.4 1-3 2.2m-9.8-8c1.3-.1 1.2-2.8 1.4-5l.4-24.2c0-.8-.4-2-1.5-2q-1.5.1-1.7 2v23.9c.2 2.2.3 5.5 1.4 5.3m-10.7 7.7c.3-1.2-2.1-2-4.1-2.9s-21-7.6-21.8-7.8c-.7-.3-2-.3-2.3.7q-.4 1.6 1.3 2.4c1.7.8 20 7 21.4 7.3 2.2.5 5.2 1.6 5.5.3M58 101c-1-.7-2.6 1-4 2.6l-14.6 18c-.5.7-1 2-.1 2.7q1.3.9 2.7-.6l14-17.8c1.2-1.9 3-4.3 2-5m11.9-.3c-1 .9.5 2.6 1.6 4.5s12.1 17.6 12.6 18.2 1.6 1.5 2.4.9c1-.7.8-1.7.2-2.8l-13-18c-1.4-1.7-3-3.6-3.8-2.8" style="fill:#f6922c"/></svg>