<svg xml:space="preserve" width="16" height="16" viewBox="0 0 128 128"><path d="M101.5 46.8a31 31 0 0 0 1-14.7c-1.6-6.1-3.8-7-3.8-7s.4-6-1-9.2C92.3 2.6 57 .7 44.3 8.4c-12.7 7.5-15.4 24.8-15.7 32.9-.4 8.1 6.4 17.3 14.8 23.2 5 3.5 14.7-5.5 19-7.2L43.7 39c.7-4.2 2.4-8.5 6.2-11.4 6.8-5.3 35.2-6 34.5 4-.3 4.5-14 22.5-21.8 31.6 0 0 1 20.7-1.6 40.2a110 110 0 0 0 31.7-.7c-.1-9.6.4-8.6.2-18.1a53 53 0 0 0-3-20.7c-.3-.5-1.3-1-1.6-1.5 6.5-3.3 11-8.2 13.1-15.6" style="fill:#f44336"/><path d="M43.6 29.8c.4-5 .5-10.3 3-14.7 2.6-4.5 11.4-6 16.2-6.6 9-1 24.7.5 25.9 12 .4 4-4.2 11.1-4.2 11.1s-.4-2.4-1.8-3c-6-3-12.8-4.4-19.4-3.8C51.4 26 46.2 30.3 43.6 42q-.3-6 0-12.2m51.1 10c-1.5-.5-.2-2.5.3-3.5a42 42 0 0 0 3.4-17.7c0 .5 2 1.8 2.2 9.7 0 3.9-1.5 8-4 11q-.7.8-1.9.5m-45 8.6c-1.7-.7-7.7-6-9.8-8.6-4.3-5.4-9.1-12.5-6.2-19.5 1.6 10.7 10 19 17.8 26 1 .9-.3 2.7-1.8 2" style="fill:#823b1f"/><path d="M95 118.7a87 87 0 0 1-2.1-17.5q-15.8 2.5-31.6.7c-1 6.1-1 10.2-2.8 17.5-.4 1.6-.8 3 .7 3.7q.9.3 1.5-.4c2.6-3.2 1.5-9.8 3.4-10 3.1-.5 0 8.3.7 10s2.4 1.6 3 .2q.4-1 .4-2l.5-5.1c0-1 0-3.1 1.9-3.1 1.4 0 1.2 2.2 1.2 3.4.1 3-.7 6-.2 7s2 1.2 2.6.6c2-2.4 1-6.3 1.3-9.1 0-2.8 2.4-3.5 3.1-.7q.5 3.4 0 6.7c-.2 1.5.3 3.9 2.2 3.5 1-.3 1.2-1.4 1.3-2.4.3-2.5.1-5 .2-7.4 0-.8.3-1.8 1.2-1.9 2.4-.2 2 4.2 2.2 7.8.2 1.8.1 3.7 1.7 3.7s2-1.1 2-2.3c-.4-2.6-1-5.2-1-8.3q0-.7.6-1c1-.4 1.7.8 1.9 1.6.7 2.5 1 5 1.7 7.6.3 1 1 2.4 2 2.2 2-.7.6-3.5.4-5" style="fill:#c62828"/><path d="M63.5 90.4s5.3-13.9 7.8-27.5A56 56 0 0 1 78 44.3q-4.3-2-9-1.2l-4.2.7c-3.2.3-5.4-1-9.8-.4-3 .4-5 2.3-6.7 4.5a29 29 0 0 0-3.6 7.3C42 61.9 39.5 73.2 35 82c9.7 5.3 28.4 8.4 28.4 8.4" style="fill:#ff7555"/><path d="M55.7 62.1c-1 .2-1.7-1-1.7-1.8a21 21 0 0 1 6-12.7q4.2-4.5 9.4-4.5a23 23 0 0 0-10.8 13.6c-.6 1.6-1.3 5-2.9 5.4m21.8 2.7c-1.7-1.8-2.1-4.8-2-7.4.1-6.4 3-14.6 3-14.6q-1.2 1.5-2.2 3.4a88 88 0 0 0-6.8 21 378 378 0 0 1-8 30.4c0 .3.9-.2 1.3-.8 5.5-8.3 7.4-15.5 11-24.7q0-.4.3-.7c.2-.3 11-3.5 17-10.5q-6.6 3.1-13.6 4" style="fill:#823b1f"/><path d="M51.2 85.5C45.2 84.3 41 83 36 80c0 0-4 8-13.7 13.1-.4.3-1.8.8-1.4 2.1s2 1.6 2.6 1.5c2.8-.5 4.8-2.7 6.9-4.6.4-.3 1.4-1 2.4-.5q.9.5 0 1.6a31 31 0 0 1-5.5 4.8c-.8.5-1.6 1.8-.2 2.6 2.9 1.5 6.2-1.9 9.2-5.8.3-.5 1-1 2-.6.9.3.6 1.5.1 2.2a29 29 0 0 1-4.2 4.7c-.7.6-1.4 2 0 2.9s3.6.2 7.5-6.2c.3-.5 1-1.5 2.1-1.4q1.6 0 .8 2c-1.4 3-2.5 3.6-3.5 5-1.2 1.7-.7 2.5 0 3.2.5.5 1.7.6 3.2-.8.8-.8 1.6-2.7 3.5-5.8q1-2 2.5-1.5c1.2.2.9 1.6.2 2.9a33 33 0 0 1-2.9 4.4q-1.5 2-.2 3c.7.6 2.3.4 3-.4.5-.8 1.1-1 3-5.5.7-1.6 1.2-3 2.2-3 1.5-.1 1.2 1.3.8 3-.7 2.8-2.6 5.7-2.7 5.7q-1.2 2.6.5 3.2 2.2.7 3.9-3.2c.2-.4 4.9-13.2 5.7-19.6 0 0-4-1.9-12.7-3.5" style="fill:#f44336"/></svg>