<svg xml:space="preserve" width="16" height="16" viewBox="0 0 128 128"><path d="M116.5 4h-104a8 8 0 0 0-8 8v104a8 8 0 0 0 8 8h104a8 8 0 0 0 8-8V12a8 8 0 0 0-8-8" style="fill:#8e24aa"/><path d="M110.2 4H12a7.6 7.6 0 0 0-7.5 7.5v97.9c0 4.1 3.3 7.5 7.4 7.5h98.2c4.1 0 7.4-3.4 7.5-7.5v-98c0-4-3.2-7.3-7.2-7.4z" style="fill:#ab47bc"/><path d="M40.2 12.9c0-2.3-1.6-3-10.8-2.7-7.7.3-11.5 1.2-13.8 4s-3 8.5-3 15.3c0 4.8 0 9.3 2.5 9.3 3.4 0 3.4-8 6.2-12.3 5.4-8.7 18.9-10.6 18.9-13.6" style="opacity:.3;fill:#fafafa"/><path d="M64.5 16a48 48 0 1 0 0 96 48 48 0 0 0 0-96m0 16.5a7.5 7.5 0 1 1 0 15 7.5 7.5 0 0 1 0-15m3.6 73.3q-6.4.5-12.4-.8-6.4-1.4-10.5-6.3a17 17 0 0 1-3.8-9.8v-1.2c0-13 10.5-23.6 23.5-23.8a23.8 23.8 0 0 0 19.6-37 42 42 0 0 1-16.5 79" style="fill:#fafafa"/><circle cx="64.5" cy="85" r="6" style="fill:#fafafa"/></svg>