<svg xml:space="preserve" width="16" height="16" viewBox="0 0 128 128"><path d="M54.4 6.8C16 6.8 16.2 42.4 16.2 43c0 23 1.7 55.7 11 68.5 3.6 5 10.7 5.3 10.7 5.3h32s7-.2 10.7-5.3c9.2-12.9 11-45.5 11-68.5 0-.6 1.4-36.2-37.2-36.2" style="fill:#232020"/><radialGradient id="a" cx="53.9" cy="69" r="44.7" gradientTransform="matrix(1 0 0 -1.19 0 141.12)" gradientUnits="userSpaceOnUse"><stop offset=".8" style="stop-color:#444140;stop-opacity:0"/><stop offset="1" style="stop-color:#444140"/></radialGradient><path d="M54.4 6.8C16 6.8 16.2 42.4 16.2 43c0 23 1.7 55.7 11 68.5 3.6 5 10.7 5.3 10.7 5.3h32s7-.2 10.7-5.3c9.2-12.9 11-45.5 11-68.5 0-.6 1.4-36.2-37.2-36.2" style="fill:url(#a)"/><radialGradient id="b" cx="54.9" cy="2.2" r="67.4" gradientTransform="matrix(1 0 0 -.586 0 127.1)" gradientUnits="userSpaceOnUse"><stop offset=".6" style="stop-color:#f8f8f7"/><stop offset="1" style="stop-color:#c6c6c6"/></radialGradient><path d="M103.1 120.6c0-12-14.3-20-32.2-22.7v-3.3c-.6 0-8.8 1.7-8.8 1.7H46.5l-8.9-1.8v3.7c-17.6 2.7-32 10-32 22.4v3.4h97.5z" style="fill:url(#b)"/><path d="M54.3 89h-9.1v7.1s8 1 8 11.1h2.7C56.2 96 63.3 96 63.3 96v-7z" style="fill:#3c2b24"/><path d="m54 108-.3-3.6c-.6-4.9-3.3-7.9-6.6-8.6l-9.8-2.5q-1 .2-1.1 1.5l1.5 11.9 13.5 3.5z" style="fill:#f8f8f7"/><circle cx="44.7" cy="119.5" r="2.3" style="fill:#9e9e9e"/><circle cx="71.1" cy="119.5" r="2.3" style="fill:#9e9e9e"/><path d="m54.5 108 .4-3.7c.5-4.8 3.3-7.8 6.6-8.6l9.7-2.4q1 .1 1.2 1.4l-1.5 12-13.6 3.5z" style="fill:#f8f8f7"/><radialGradient id="c" cx="49.2" cy="8.9" r="19.9" gradientTransform="rotate(164.4 -7.7 69.65)scale(-1 .755)" gradientUnits="userSpaceOnUse"><stop offset=".2" style="stop-color:#bdbdbd"/><stop offset="1" style="stop-color:#bdbdbd;stop-opacity:0"/></radialGradient><path d="M56.2 104.4c-2.2-.1-6.2-.9-10.5 0-11 2-17.5 10.4-16 17.7q0 1 .6 1.9H36l1.2-10c1.4-1.5 19.1-5.7 19.1-5.7z" style="fill:url(#c)"/><linearGradient id="d" x1="48.7" x2="48.7" y1="4" y2="26.1" gradientTransform="matrix(1 0 0 -1 0 128)" gradientUnits="userSpaceOnUse"><stop offset=".3" style="stop-color:#bdbdbd"/><stop offset=".7" style="stop-color:#cdcdcd"/><stop offset="1" style="stop-color:#e0e0e0"/></linearGradient><path d="m54.9 104.3-.3 2.5.1 1-16 4.5a4 4 0 0 0-2.8 4v7.7h1l1.5-8.2q.5-1.3 1.4-1.3l17.4-5.3c0-12.6 4.3-13.5 4.3-13.5-3.4.8-6.1 3.8-6.6 8.6" style="fill:url(#d)"/><path d="M54 95.3q-3.6 0-7.6-1.5A39 39 0 0 1 21.8 56c0-28.8 17.3-39 32.1-39s32.2 10.2 32.2 39a39 39 0 0 1-24.6 37.9 23 23 0 0 1-7.6 1.4" style="fill:#70534a"/><path d="M62.5 76.2a26 26 0 0 1-16.8 0c-1.9-1.1-3.7.6-3 2.2s6.5 5.4 11.4 5.4 10.5-3.7 11.3-5.4c.8-1.6-1.1-3.3-3-2.2M45.6 49.8c-1-1.2-3-3-7.2-3s-6.3 1.8-7.3 3q-.5 1 0 1.6t2 .4c1.4-.2 2.5-1.2 5.3-1.2s4.5.9 5.3 1.2 1.7 0 2-.4q.4-.6-.1-1.6m31.2 0c-1-1.2-3.1-3-7.3-3s-6.3 1.8-7.2 3q-.5 1 0 1.6t1.9.4c1.5-.2 2.5-1.2 5.3-1.2s4.5.9 5.4 1.2 1.6 0 1.9-.4q.5-.6 0-1.6" style="fill:#1a1717"/><ellipse cx="38.4" cy="58.9" rx="4.9" ry="5.1" style="fill:#1a1717"/><ellipse cx="69.5" cy="58.9" rx="4.9" ry="5.1" style="fill:#1a1717"/><path d="M57.8 68.1h-7.7q-1.1.6-.7 1.6c.3.7 1.7 2.7 4.5 2.7s4.3-2 4.6-2.7q.4-1.1-.7-1.6" style="fill:#33251f"/><path d="M54.4 6.8C16 6.8 16.2 42.4 16.2 43q0 11.1.7 23.8l6-.1c-.1-2.8 2.2-22.7 8-24C51.8 38 63.6 25 63.6 25a80 80 0 0 0 16.3 20.8c2.8 2 5 17.3 4.9 21h6c.5-8.3.7-16.5.7-23.7 0-.6 1.4-36.2-37.2-36.2" style="fill:#232020"/><radialGradient id="e" cx="54.2" cy="69.1" r="45.3" gradientTransform="matrix(1 0 0 -1.214 0 142.75)" gradientUnits="userSpaceOnUse"><stop offset=".8" style="stop-color:#444140;stop-opacity:0"/><stop offset="1" style="stop-color:#444140"/></radialGradient><path d="M54.4 6.8C16 6.8 16.2 42.4 16.2 43q0 11.1.7 23.8h6c-.1-2.8 2.2-22.8 8-24 21-4.8 32.8-18 32.8-18a81 81 0 0 0 16.3 21c2.8 2 5 17.2 4.9 20.8l6 .2v-.2c.5-8.2.7-16.4.7-23.6 0-.6 1.4-36.2-37.2-36.2" style="fill:url(#e)"/><radialGradient id="f" cx="54.7" cy="115.1" r="60.3" gradientTransform="matrix(1 0 0 -.455 0 65.29)" gradientUnits="userSpaceOnUse"><stop offset=".2" style="stop-color:#fafafa"/><stop offset=".5" style="stop-color:#eaeaea"/><stop offset="1" style="stop-color:#cacaca"/></radialGradient><path d="M94.9 14.5A88 88 0 0 0 54 4h-.2A88 88 0 0 0 13 14.5c-6.1 4-8.7 9.8-7.2 15.2 1 4 10.2 10.5 10.2 10.5 11.2 5.3 12.2-3.7 38-3.7 25.6 0 26.7 9 37.8 3.7 0 0 9.2-6.5 10.3-10.5 1.4-5.4-1.1-11.2-7.2-15.2" style="fill:url(#f)"/><radialGradient id="g" cx="54" cy="94.4" r="40.7" gradientTransform="rotate(180.4 -.1 62.7)scale(-1 .976)" gradientUnits="userSpaceOnUse"><stop offset=".3" style="stop-color:#ededed"/><stop offset=".5" style="stop-color:#ddd"/><stop offset="1" style="stop-color:#b4b4b4"/><stop offset="1" style="stop-color:#b3b3b3"/></radialGradient><path d="m16.3 47.9-1-8.3s6.9-11.2 39.2-11.2 38.2 11.2 38.2 11.2l-1.2 7.8a175 175 0 0 0-75.2.5" style="fill:url(#g)"/><linearGradient id="h" x1="29.4" x2="36.9" y1="118.9" y2="97.4" gradientTransform="matrix(1 0 0 -1 0 128)" gradientUnits="userSpaceOnUse"><stop offset="0" style="stop-color:#757575;stop-opacity:0"/><stop offset="1" style="stop-color:#757575;stop-opacity:.9"/></linearGradient><path d="M31.7 10.5s2.5 9.8 8.7 18.8C29 29 26.8 16.8 31.7 10.5" style="fill:url(#h)"/><linearGradient id="i" x1="11" x2="25.5" y1="110.2" y2="95.1" gradientTransform="matrix(1 0 0 -1 0 128)" gradientUnits="userSpaceOnUse"><stop offset="0" style="stop-color:#757575;stop-opacity:0"/><stop offset="1" style="stop-color:#757575;stop-opacity:.9"/></linearGradient><path d="M17 15.6c.6 5.2.2 10.5 9.5 17-12.6 3.7-17.9-8.2-9.4-17" style="fill:url(#i)"/><linearGradient id="j" x1="273" x2="280.5" y1="118.9" y2="97.4" gradientTransform="matrix(-1 0 0 -1 351.97 128)" gradientUnits="userSpaceOnUse"><stop offset="0" style="stop-color:#757575;stop-opacity:0"/><stop offset="1" style="stop-color:#757575;stop-opacity:.9"/></linearGradient><path d="M76.6 10.5s-2.5 9.8-8.7 18.8c11.3-.3 13.6-12.5 8.7-18.8" style="fill:url(#j)"/><linearGradient id="k" x1="254.7" x2="269.2" y1="110.2" y2="95.1" gradientTransform="matrix(-1 0 0 -1 351.97 128)" gradientUnits="userSpaceOnUse"><stop offset="0" style="stop-color:#757575;stop-opacity:0"/><stop offset="1" style="stop-color:#757575;stop-opacity:.9"/></linearGradient><path d="M91.2 15.6c-.5 5.2 0 10.5-9.4 17 12.6 3.7 17.9-8.2 9.4-17" style="fill:url(#k)"/><linearGradient id="l" x1="54.2" x2="54.2" y1="120.6" y2="99.8" gradientTransform="matrix(1 0 0 -1 0 128)" gradientUnits="userSpaceOnUse"><stop offset="0" style="stop-color:#757575;stop-opacity:0"/><stop offset="1" style="stop-color:#757575;stop-opacity:.9"/></linearGradient><path d="M54.2 7.4q2 2.6 2.7 5.2a18 18 0 0 1 0 10.4q-.7 2.6-2.7 5.2a14 14 0 0 1-2.8-5.2 18 18 0 0 1 2.8-15.6" style="fill:url(#l)"/><radialGradient id="m" cx="53.4" cy="89.2" r="66.1" gradientTransform="matrix(1 0 0 -.509 0 84.2)" gradientUnits="userSpaceOnUse"><stop offset=".8" style="stop-color:#fafafa;stop-opacity:0"/><stop offset=".8" style="stop-color:#eaeaea;stop-opacity:.3206"/><stop offset="1" style="stop-color:#c1c1c1;stop-opacity:.943"/><stop offset="1" style="stop-color:#bdbdbd"/></radialGradient><path d="M94.9 14.5A88 88 0 0 0 54 4h-.2A88 88 0 0 0 13 14.5c-6.1 4-8.7 9.8-7.2 15.2 1 4 10.2 10.5 10.2 10.5 11.2 5.3 12.2-3.7 38-3.7 25.6 0 26.7 9 37.8 3.7 0 0 9.2-6.5 10.3-10.5 1.4-5.4-1.1-11.2-7.2-15.2" style="fill:url(#m)"/><linearGradient id="n" x1="106.9" x2="102.7" y1="74.5" y2="28.8" gradientTransform="matrix(1 0 0 -1 0 128)" gradientUnits="userSpaceOnUse"><stop offset=".1" style="stop-color:#757575"/><stop offset=".2" style="stop-color:#7a7a7a"/><stop offset=".4" style="stop-color:#8a8a8a"/><stop offset=".5" style="stop-color:#9e9e9e"/><stop offset=".5" style="stop-color:#969696"/><stop offset=".5" style="stop-color:#7b7b7b"/><stop offset=".6" style="stop-color:#656565"/><stop offset=".6" style="stop-color:#545454"/><stop offset=".7" style="stop-color:#494949"/><stop offset=".8" style="stop-color:#424242"/><stop offset="1" style="stop-color:#404040"/></linearGradient><path d="M106.7 53.6a18.6 18.6 0 0 0-5.8 36.7l-1.3 9.7 7.2.9.8-10.3a18.6 18.6 0 0 0-1-37" style="fill:url(#n)"/><linearGradient id="o" x1="103" x2="108.5" y1="41.9" y2="71.6" gradientTransform="matrix(1 0 0 -1 0 128)" gradientUnits="userSpaceOnUse"><stop offset="0" style="stop-color:#212121"/><stop offset="1" style="stop-color:#404040"/></linearGradient><circle cx="105.4" cy="73.3" r="15.3" style="fill:url(#o)"/><path d="M116.2 72c2.1 7.5-3.3 15.2-10.4 10.6S92.4 79 94.7 72.4c2.2-6.7 4-12.6 9.2-11.4 5.3 1.2 10.2 3.5 12.3 11" style="fill:#fff"/><linearGradient id="p" x1="122.2" x2="122.2" y1="77" y2="67.4" gradientTransform="rotate(176.6 -8.52 75.22)scale(-1 1)" gradientUnits="userSpaceOnUse"><stop offset="0" style="stop-color:#ffca28"/><stop offset=".3" style="stop-color:#ffc825"/><stop offset=".6" style="stop-color:#ffc21a"/><stop offset=".9" style="stop-color:#ffb809"/><stop offset="1" style="stop-color:#ffb300"/></linearGradient><circle cx="105.2" cy="71.8" r="5.2" style="fill:url(#p)"/><path d="M116.2 72q1.7 4.7-.7 9.1a7 7 0 0 1-3.8 3.1 7 7 0 0 1-4.8-.5l-4-2.3-4.3-1.9c-1.3-.6-2.9-1.2-4-2.5q-.6-1.1-.5-2.4l.2-1.1.4-1.1-.3 1.1v1.2q0 1 .6 2 1.6 1.4 4 2.1l4.3 1.8 4 2.2a6 6 0 0 0 4.2.5 6 6 0 0 0 3.3-2.5 10 10 0 0 0 1.6-4.2q.3-2.2-.2-4.6" style="fill:#f7cb4d"/><path d="m99.3 101.6 1.6-11.3.2-.1q3.1-1.5 6 .2l.5.2-.8 11.9z" style="fill:#757575"/><radialGradient id="q" cx="34.1" cy="138.9" r="19.8" gradientTransform="rotate(88 43.12 193.84)scale(-1 1.057)" gradientUnits="userSpaceOnUse"><stop offset=".3" style="stop-color:#70534a"/><stop offset="1" style="stop-color:#5c4037"/></radialGradient><path d="M97.4 102.8q-1.7.2-3.2.9c-1.4.6-8.2-1.4-8.6 5.2 0 1.8-.2 7.5 1.3 10.3 3.2 5.9 15.3 4.4 16.2 4.6 5.8.9 3.2-17.6 0-20l-1.7-1c-1.2-.5-3-.2-4 0" style="fill:url(#q)"/><radialGradient id="r" cx="113.9" cy="15.1" r="14.5" gradientTransform="rotate(-20.6 456.77 56)scale(1 -1)" gradientUnits="userSpaceOnUse"><stop offset="0" style="stop-color:#5c4037"/><stop offset="1" style="stop-color:#70534a"/></radialGradient><path d="m105.4 119.8-6.5-.1q-1.3 0-1.6 1.3-.2 1.4 1.3 1.8l6.5 1c1 .1 2-.5 2-1.5l.1-.6q0-1.7-1.8-1.9" style="fill:url(#r)"/><radialGradient id="s" cx="108.6" cy="26.5" r="14.5" gradientTransform="matrix(1.015 .168 .167 -.986 -7.66 110.58)" gradientUnits="userSpaceOnUse"><stop offset="0" style="stop-color:#5c4037"/><stop offset="1" style="stop-color:#70534a"/></radialGradient><path d="M85.6 113.3s1.3 1 3.3 1.7c6.1 2.4 6.9-5 7-6.2.8-6 6-4.6 10.5-4.9.9 0 4-.5 4.9-2.6.9-3.5-2.7-3.4-10.2-3.9q-3-.1-6 .2c-9.7 1.4-9.8 11.3-9.5 15.7" style="fill:url(#s)"/><radialGradient id="t" cx="114.9" cy="15.9" r="16.5" gradientTransform="rotate(-3.8 2044.9 53.52)scale(1 -1)" gradientUnits="userSpaceOnUse"><stop offset="0" style="stop-color:#5c4037"/><stop offset="1" style="stop-color:#70534a"/></radialGradient><path d="m107.5 109.3-9.4.8c-1.2 0-1.2 1-1.3 2.2 0 1.3 0 2.4 1.4 2.5l9.4.4c1.6 0 3-1.1 2.9-2.6v-.8c0-1.5-1.4-2.7-3-2.5" style="fill:url(#t)"/><radialGradient id="u" cx="115.5" cy="16.4" r="15.8" gradientTransform="rotate(184.4 1.07 59.67)scale(-1 1)" gradientUnits="userSpaceOnUse"><stop offset="0" style="stop-color:#5c4037"/><stop offset="1" style="stop-color:#70534a"/></radialGradient><path d="m107.3 103.8-8 1.1q-1.8.4-2 2.3c0 1.2 1 2.2 2.4 2.2h8c1.6 0 2.8-1.1 2.7-2.6v-.7a2.5 2.5 0 0 0-3-2.3" style="fill:url(#u)"/><radialGradient id="v" cx="114" cy="16.1" r="15.8" gradientTransform="rotate(-13 670.2 52.1)scale(1 -1)" gradientUnits="userSpaceOnUse"><stop offset="0" style="stop-color:#5c4037"/><stop offset="1" style="stop-color:#70534a"/></radialGradient><path d="m106.6 115-7.4.3c-1 0-2 .9-2 2q0 1.7 2 2.2l7.3.6c1.4.2 2.6-.8 2.7-2.2v-.7c0-1.3-1.2-2.4-2.6-2.3" style="fill:url(#v)"/><path d="M107.8 115.2c0-1-8.3 0-9.3-.8-1.2-1-1-3 .4-3.6 1.6-.7 9.5-1 9.5-1.4 0-.9-10.3 1.6-10.3-2.1 0-2.3 2.3-2.3 4-2.6 1-.2 5.2-.5 5.2-.8s-1-.2-1.2-.2c-.8 0-5.7.3-7 .6-2.3.5-2.8 1.8-2.8 2.7q-.2 2-.8 3.7c-.7 2.3-3.5 4.4-3.6 4.7 0 .3 1.8-.6 3-1.8.6-.8 1.6-.4 1.8.5l.2 1.4c0 .5 0 3.6-.2 4.7v1.2l.5.9c1 1.2 2.6 1.3 4 1.4.8 0 4.1.4 4.9 0-1.8 0-8.3 0-8-2.4.2-1.4 1.4-1 2.4-1 1 .1 3 .2 4.2 0 .3 0 1.8 0 1.8-.2s-3.3-.4-3.6-.4c-1.4 0-4.2.2-4.8-1.4q-.3-1 .2-1.8c1-1.2 9.4-.8 9.5-1.3" style="fill:#4a2f27"/></svg>