<svg xml:space="preserve" width="16" height="16" viewBox="0 0 128 128"><radialGradient id="a" cx="44" cy="29.1" r="91" gradientTransform="rotate(51.3 36.26 25.37)scale(1 .745)" gradientUnits="userSpaceOnUse"><stop offset=".5" style="stop-color:#17a1f3"/><stop offset=".8" style="stop-color:#1b7ffa"/><stop offset="1" style="stop-color:#1366f0"/><stop offset="1" style="stop-color:#1160ee"/></radialGradient><path d="M3.1 64.7c.7 24.4 17 59.5 61.5 59 43.3-.4 60.8-36.2 59.4-62A60 60 0 0 0 62.2 4.5c-40.1.2-59.8 34-59 60.2" style="fill:url(#a)"/><path d="M47.2 22.1c.3.4 1.6 0 2.2 0q1 0 1.3.8c0 .6-.5.6-.9 1.3-.2.4-1.4 2.8-.7 3.1.9.4 1.3-.5 1.5-.9l.6-1.3s.6-1.1 1.2-1c1.3.1.8 1.9.8 1.9s-.3 1.3.3 1.6 1.3 0 1.7-.1q.6 0 1.6-.3l1.5-.8q.9 0 1-.5 0-.7-1.1-.9c-1.1-.2-1.6.8-2 1-.2.3-1.2.5-1.3-.2s.5-.7 1-1l.7-.7-1-1.1c-.3-.1-1.3.2-2.3-.5S52 21 51.8 20.8s-1.3-.6-2.4-.4-2.6 1.1-2.2 1.7" style="fill:#4b9eec"/><path d="M5.5 47c6-20.3 23-39.8 51-42.2l.1 1.3s2.6.7 3.8.8h3c.4-.2 2.2-2.4 2.2-2.4a64 64 0 0 1 19.6 3.8s.2 2.4-.2 2.9-.2 2.5 0 3.2.7 3.5.5 5.1c-.2 1.7.1 4-1 3.9-1.2-.3-2.2-4.4-3-5.2-.8-.9.3-2.9-.2-4.1s-1-1.7-2.2-1.3-1.5 3-2.8 3.5-2.4-.6-3.1-.6-3.5 1.3-4 2.9-.4 2.9 1 3c1.6.2 1.4-.6 2.2-.4s1 2.3 1.4 3 .9 1.5 1 2.9-.6 3.8-1.3 4.6-1.1 3-2.2 3.6c-1 .6-2.3.3-3.3.6s-.6 1.6-1.4 2.3l-1.8 1c-.2 0 2 2.2 2 3.7s0 2.5-1.8 3.3c-1.8.9-1.5-.2-1.4-1.7l-.1-2.2s-1.3-.4-1.5-.7l-.4-.7-2-.3c-.3-.1-.9.1-1.1-.4s.5-1.4 0-1.7c-.3-.2-2.5 1.3-3 2-.4.8.5 1.4.8 1.8s1.4 0 1.4.5-.2 1.5-.5 1.9-.9.8-.8 1.2 1.9 1.8 2.1 2.3 1.1.4 1.2 1.8q0 2.1-1 3.2l-1.4 1.5c-.1 0-1.3 2-2.1 2.6s-2.7 2.1-4 2.6-3.8.2-5 1-.9 2.1-1.7 2.8q-1 1-1.8.1c-.8-.9-.3-1.4 0-1.7s1-.6.3-1q-1-.4-1.8.5c-.7.4-1.7 1-1.4 2 .4 1.1 2 2.4 2.5 3.2q.9 1.1.9 2.2c0 .8.1 1-.6 1.6-.8.6-.9.4-2.1 1.1s-2.2 1.6-2.9 1.2-.8-1-.8-1-1.8-2.3-2.3-2.7-1.8-.7-2-.3v2.4l.4 2c0 .4 1.2 1.2 1.8 1.6s1.3.3 1.7.9l1.3 2.7c.3.8 1.4 2.1 1.4 2.1s2.4 2.2 2.6 2.7 1.3 1 1 1.8q-.2 1.5-1.6 1.4c-1 0-2.6-1-3.1-1.4l-1.7-.8L33 81c-.4-.4-2.2-1.8-2.5-2.3-.3-.6-1.9-2-2.1-2.4s0-1 .5-.8 2.6 2 3 2.3l2 .8L32 76c-.4-.6-1.4-1.4-1.7-3.3l-.5-3.8c-.1-.4-1-2.7-1.3-3s-1.5.3-2-.4-.2-3.7-.2-3.7-2.2-4.2-2.7-4.3-2.2-.4-2.8 0L17.7 60 15 62.2l-1 .4s-.4 2.4-.6 2.6-.3 2.1-.6 2.8-.6 1.8-1.4 1.8-.8-.6-1-2.4c-.3-1.7-1.1-4-1.3-5.7l-.6-7c-.1-.4-1 0-1-.9-.1-.8.3-3.9 0-4.7-.5-1-2-2-2-2" style="fill:#7add8a"/><radialGradient id="b" cx="21.8" cy="33.6" r="43.5" gradientTransform="matrix(.96 .278 -.168 .58 6.5 8.04)" gradientUnits="userSpaceOnUse"><stop offset="0" style="stop-color:#e3dda6"/><stop offset="1" style="stop-color:#e3dda6;stop-opacity:0"/></radialGradient><path d="M5.5 47c6-20.3 23-39.8 51-42.2 0 0 3.6 7.8 4 8 2 1.8 9.2 4.1 8.6 5.8-.5 1.6-.3 2.9 1.2 3s1.3-.6 2.1-.4 1 2.3 1.4 3 1 1.5 1 2.9-.6 3.8-1.3 4.6-1.1 3-2.2 3.6c-1 .6-2.3.3-3.2.6s-.6 1.6-1.5 2.3-1.8 1-1.8 1 2.1 2.2 2 3.7c0 1.5.1 2.5-1.7 3.3-2 .9-1.6-.2-1.5-1.7v-2.2s-1.3-.4-1.6-.7l-.4-.7-2-.3c-.3-.1-.8.1-1.1-.4s.5-1.4.1-1.7c-.4-.2-2.6 1.3-3 2-.4.8.4 1.4.7 1.8s1.4 0 1.4.5-.2 1.5-.5 1.9-.8.8-.8 1.2 2 1.8 2.1 2.3 1.1.4 1.2 1.8q0 2.1-1 3.2l-1.4 1.5c-.1 0-1.3 2-2.1 2.6s-2.6 2.1-4 2.6-3.7.2-4.9 1-1 2.1-1.7 2.8q-1.1 1-1.8.1c-.7-.9-.4-1.4 0-1.7.2-.3.8-.6.2-1q-.8-.4-1.8.5c-.7.4-1.7 1-1.4 2 .4 1.1 2 2.4 2.6 3.2q.8 1.1.8 2.2c0 .8.2 1-.6 1.6-.7.6-.8.4-2.1 1.1s-2.2 1.6-2.8 1.2-.9-1-.9-1-1.8-2.3-2.3-2.7-1.8-.7-2-.3v2.4l.5 2c0 .4 1.1 1.2 1.8 1.6s1.2.3 1.6.9 1 1.9 1.3 2.7 1.4 2.1 1.4 2.1 2.4 2.2 2.6 2.7 1.3 1 1 1.8q-.2 1.5-1.6 1.4c-1 0-2.6-1-3-1.4l-1.8-.8L33 81c-.3-.4-2.2-1.8-2.5-2.3-.3-.6-1.9-2-2.1-2.4s0-1 .5-.8 2.6 2 3 2.3l2 .8L32 76c-.4-.6-1.4-1.4-1.7-3.3l-.5-3.8c0-.4-1-2.7-1.3-3s-1.5.3-2-.4-.2-3.7-.2-3.7-2.2-4.2-2.7-4.3-2.1-.4-2.8 0L17.7 60 15 62.2l-1 .4s-.4 2.4-.6 2.6-.3 2.1-.6 2.8-.6 1.8-1.4 1.8-.7-.6-1-2.4l-1.3-5.7c-.1-1.8-.4-6.8-.6-7-.1-.4-1 0-1-.9-.1-.8.4-3.9 0-4.7-.5-1-2-2-2-2" style="fill:url(#b)"/><path d="M50 20c-.6-.1-1 1.2-2 2-1.1.6-2.2.7-2.2 1.2s1 2.2 1.8 2.2 2.3-.7 3-1.4c.9-1 1.1-3.7-.6-4" style="fill:#159ff7"/><path d="M75 22q-.4.2-.5 1c0 .7 1.2 2.5 1.3 3l.3 2.8q0 1.3.5 1.6c.6 0 1.3-1 1.5-1.7.2-.5.5-2.7.4-3.1q-.2-.8-1-1.9c-.8-.7-2-1.9-2.5-1.7m2.1 9.5q-.6.3-.7 2.4c-.2 1.5 0 3.9 0 4.6v1.1l-.7 2c0 .2-1.3 1.3-1.7 1.7l-1.5 1.3s-1.5-.2-2.2 0c-2.4.7-2.5 1.9-2.5 1.9s-.7.5-.8 1.1c-.2 1 .8 1.9 1.8 1.7 1 0 2.2-.9 3-1 .6-.2 1.9-.5 2.8-1.5l2.5-2.8c.4-.2 1.1-.5 1.3-2.1 0-1.7.5-5.4.4-5.6 0-.3 1.5-1 1.6-1.4s.4-1.5 0-1.6c-.4 0-1.4-.2-1.8-.4-.9-.5-.9-1.5-1.5-1.4M55.2 62.2c-.2 0-.2 1.6-.2 2.4 0 .2-.4.8.2 2.1.4 1.1 1.2 1.8 1.2 1.8s-.3 3.2.6 4.2c.2.4 1.5 0 1.8.4l1.3.9c.5.1 2 .2 2.2-.2s-.5-1.4-.5-1.6.5-.8.3-1.3a19 19 0 0 0-3.3-4.3c-.5-.1-.8.2-1.3-.4q-.7-.5-.6-2.1c0-1-.5-2.2-1.7-2M50.9 69c-.5.6-1.1 2.9-1.3 3.2S48 74 47.4 74.4c-.6.3-1.9 1.6-2 2s-1.3 0-2 0c-.6.1-1.6 1-1.8 1.4q-.2.7.6 1.9c.4.7 1.3 1.4 1.5 1.7s1.2 1 1.5 1.2c.5.3 1.8-.3 2.8 0s1.8.7 2 .5c1-.4 1.5-2.3 2-3.6l.9-2.3s.6-.5.9-1.2 0-1.7.3-3.2l.7-3q.3-1.1-.2-1.5c-.5-.4-2.6-.4-3.7.8M54 82.8c-.1-.2-.6-.9-.5-2.4q.5-2.4.7-2.7a6 6 0 0 1 2.6-1.5q1 .2 1.2.5 0 .2.6.2c.4 0 .7-.7.6-1q-.1-.5.4-.6.4.1.3 1.2.2.9-.6 1c-.8.2-2 .6-2.5 1.2s-.1 1.9-.1 2.1 1 .7 1 1.3c0 .5-.2 1-2 1-1.2.1-1.7-.3-1.7-.3m8.6-5.6-1.2.6c-.2.1-.2.7 0 .9s1.5 0 2.1 0l1.8.2c.6 0 .9-.9.7-1.1s-1.2-2.2-1-2.6l.5-1.2c0-.5-1.3-.4-1.6-.2s-.8 1-1.1 1.5-.2 2-.2 2M44 85.2c-.2 0-.9 1.2-.6 1.6s.7.4 3.8.5 3.7-.1 4-.2 2.4-.2 3.3-.8c1-.6 2.3-.9 2.7-1h1.4c.3-.3 1.1-.6 1-1.2s-.7 0-3.3 0c-2.2.2-6.2 1.1-6.8 1.1-.8 0-5.3-.2-5.6 0M62 82.3q-1.6 1-1 1.7c.2.4 1.1-.3 1.7-.8s1.6-1 1.1-1.6c-.4-.5-1.2.1-1.9.7m5.6-7.8v1.2c0 .2 1.1.6 1.7 1.2l.8 1.5c.1.1 2.7 0 3.2 0l2.5-.2h3q.7.3 1 .9.2.6 0 1-.5.3-.8.7c-.3.4 0 1 .6.9H83c.5 0 1.6.5 2.2.2s2.1-.6 2.2-1.1-.4-.7-.2-1.2q.4-.7 1.4-.1c.7.3 2.4 1.6 2.9 1.7s1.6-.2 1.6-.6q-.2-.7-.8-.8l-1.2-.3-1.8-2.3c-.2-.3-.2-1.3-.2-1.5-.1-.1-1.3-.2-1.5-.4S84.9 73.2 84 73s-7.6 0-8 .2c-.3.2-2.1 3-2.9 3-.7-.1-.5-2.1-1.4-2.6s-4 .7-4.2 1M81 114.4c-.3 0-1.4-.2-1.6.1s-.6 1.3-.5 1.8.6 1.4 1.3 1.5c1 0 2.6-1.6 2.6-2.3 0-.8-1-1.3-1.9-1m12.3-1.3c-.5.2-1-1.5-1.6-1.4-.5 0-1.9 1.1-3 2-1.3.8-2 1-2.3 2 0 .2.1 1 1.3 1 1.1.2 5.3-2.2 6.1-2.7s3.7-2.4 3.9-3c0-.7-1-2.4-1-3 0-.4-.4-1.6-.8-1.5q-.7 0-.6 1.4v1.4q-.2.8-.7.9t-1 1c-.2.8.4 1.6-.3 1.9M77.5 87.5c0 .7 1 1.6 1.4 2 .7.6 1.7 1.4 2.7 1.5q1.7 0 2.2-1c.2-.4 1.4-3 1.4-3.6s.5-2.3.5-2.7q0-.7 1-.6.6 0 1 1l1 2.2 1.2 2s-.2 1.8 0 2.7 2.5 3.5 2.5 4.3-.2 1.4.2 2c.4.5 1.2.8 1.3 1.1s.4 1.7.3 2.4-.7 2.7-2 4-3.2 2.8-3.2 2.8-2 2.8-3 3.5q-1.2 1-2 1.4c-.3.2-1.3 1.2-4.2 1-2.8 0-3.5-1.2-4-1.5s-1.6-.3-1.9-.7c-.4-.7 0-1.1-.1-1.9 0-.3-.5-1.2-2-1.4s-5.4.2-6.3.5c-1 .3-1.9 1.4-2.8 1.2-1.1-.1-2.3.5-4 .3-2 0-3.2-1.2-2.6-1.7.3-.2.8-.7.5-1.4l-3-6c-.6-1.3-1.4-2.7-1.3-3.8.2-3.3 1.6-3.2 2-3.3.2-.2.6 0 1.2-.3s2.7-1.1 3-1.6.4-1.8.8-2.2L64 86q1.1-.6 1.6.2.7 1.1 1.8.7c1.6-.3 1.2-2.2 2-2.7.7-.5 3.3-1 5.5-.7s3.3.2 3.5 1.4-.8 2.7-.8 2.7" style="fill:#7add8a"/><radialGradient id="c" cx="64.5" cy="89" r="19.1" fx="54" fy="95.8" gradientTransform="rotate(86.1 86.56 109.54)scale(1 1.463)" gradientUnits="userSpaceOnUse"><stop offset=".6" style="stop-color:#e3dda6"/><stop offset="1" style="stop-color:#e3dda6;stop-opacity:.0871"/><stop offset="1" style="stop-color:#e3dda6;stop-opacity:0"/></radialGradient><path d="M87.1 105.6s7-4.1 7-4.8a6 6 0 0 0-.2-2.4c-.1-.3-1-.6-1.3-1.2s-.2-1-.2-2c0-.7-2.3-3.4-2.5-4.2v-2.7l-1.1-2-1-2.3q-.5-1-1.1-1-.9 0-1 .7c0 .4-.4 2-.4 2.7s-1.3 3.2-1.5 3.7-1.2 1-2.2.9-2-1-2.7-1.6c-.4-.3-1.4-1.2-1.4-2 0 0 1.1-1.5.8-2.6s-1.3-1.2-3.5-1.5-4.8.3-5.6.8-.3 2.4-2 2.7q-1.2.1-1.7-.7c-.5-.8-1-.6-1.6-.2l-4.6 3.8c-.4.3-.4 1.6-.7 2.1s-2.6 1.4-3.1 1.7-1 .1-1.3.3-1.7 0-1.9 3.3q.2 1.8 1.3 3.7l3 6.1c.3.7-.2 1.2-.5 1.4-.6.5.7 1.6 2.5 1.7s3-.5 4.1-.3c1 .1 1.8-1 2.8-1.2 1-.3 5-.8 6.4-.6s1.8 1.2 1.9 1.5c.1.7 6.8-1.1 6.8-1.1z" style="fill:url(#c)"/></svg>