<svg xml:space="preserve" width="16" height="16" viewBox="0 0 128 128"><linearGradient id="a" x1="64" x2="64" y1="81.5" y2="49.4" gradientUnits="userSpaceOnUse"><stop offset=".1" style="stop-color:#242322"/><stop offset=".9" style="stop-color:#6d4c41"/></linearGradient><ellipse cx="64" cy="62.4" rx="48.9" ry="23.9" style="fill:url(#a)"/><path d="M25.2 93a14 14 0 0 0-3.5 8.9c0 12.2 19 22.1 42.3 22.1s42.3-10 42.3-22.1q0-4.8-3.5-8.9z" style="fill:#c2362b"/><path d="M64 86.7c-46.4-3.2-50.7-25-50.7-25 0 16.4 14.7 40.1 14.7 40.1S39.4 116 64 116s36-14.2 36-14.2 14.7-23.7 14.7-40c0 0-4.3 21.7-50.7 24.9" style="fill:#f54536"/><path d="M64 76.5c-35.9-2.3-37.3-17.8-37.3-17.8 0 11.7 9.5 28.5 9.5 28.5S44.8 97.3 64 97.3s27.9-10 27.9-10 9.4-17 9.4-28.6c0 0-1.4 15.5-37.3 17.8" style="fill:#c2362b"/><path d="M63.6 75.6c-16 0-25.6-6.1-25.6-6.1 3 15.4 13.5 27.8 26 27.8s23-12.5 26-28c0 0-10.3 6.3-26.4 6.3" style="fill:#e0e0e0"/><path d="M63.6 86.7a68 68 0 0 1-31.4-6.8c3.7 17 16.6 27.6 31.8 27.6s28-10.6 31.8-27.7c0 0-12.7 6.9-32.2 6.9" style="fill:#fafafa"/><path d="M64 40.4c13 0 25 2.6 34 7.2 8 4 12.7 9.5 12.7 14.7S106.1 73 98 77.2c-9 4.7-21 7.2-34 7.2S39 81.8 30 77c-8-4-12.7-9.5-12.7-14.7S21.9 51.7 30 47.6c9-4.6 21-7.2 34-7.2m0-4c-28 0-50.7 11.7-50.7 26S36 88.3 64 88.3s50.7-11.6 50.7-26S92 36.6 64 36.6" style="fill:#f2b87e"/><path d="M48.4 117q6 1.1 12 1.3 6 .3 11.8-.4l3-.4 2.9-.6a67 67 0 0 0 16.8-6 34 34 0 0 1-10.4 6.4 46 46 0 0 1-36-.2" style="fill:#e89b9b"/><path d="M64 73.9a63 63 0 0 0 24.8-4.5V62C88 54 86 49 84 45c-5.1-11-1.8-15.7-1.8-21.9C82.3 13.2 74 4 64 4s-18.2 9.1-18.2 19.2c0 6.2 3.3 11-1.9 22A53 53 0 0 0 39 69.3 61 61 0 0 0 64 74" style="fill:#f54536"/><path d="m88.9 69.4-.1-7.4q-.2-2.3-.6-4.5A29 29 0 0 1 64 70a29 29 0 0 1-24-12l-.6 4.2-.3 7.2A62 62 0 0 0 64 74a62 62 0 0 0 24.9-4.6" style="fill:#bf1a1a"/><path d="M64 74c6.3 0 12-.9 16.6-1.9 0 0 .5-5.3.5-7.5C81.1 51 73.7 40 64.6 40S48.1 51 48.1 64.6c0 2.2.5 7.8.5 7.8A81 81 0 0 0 64 74" style="fill:#fff"/><path d="M80.7 72c.2-1.8.4-5.8.4-7.4 0 0-6.7 4.8-17.1 4.8s-15.9-4-15.9-4l.4 7a74 74 0 0 0 32.2-.3" style="fill:#c7c7c7"/><path d="m84.6 46.2-.5-1c-5.1-11-1.8-15.8-1.8-22A18 18 0 0 0 64 4c-10 0-19 8-18.1 19.2 0 6.2 3.3 11-1.9 22l-.5 1C51 45 56.8 40 64.5 40s12.8 4.9 20.1 6.2m-22.2 3.2c2.5-4 2.2-9.6 2.2-9.6s-4.6 1-7.2 5c-2.6 3.9-2 9.2-2 9.2s4.4-.7 7-4.6m11 4.6s.6-5.2-2-9.2c-2.4-4-7-5-7-5s-.5 5.6 2 9.6a11 11 0 0 0 7 4.6" style="fill:#00897b"/><ellipse cx="64" cy="22.3" rx="12.6" ry="13.2" style="fill:#ffca28" transform="rotate(-1 63.93 22.27)"/><ellipse cx="58.5" cy="24.5" rx="2" ry="2.8" style="fill:#3e2723"/><ellipse cx="69.5" cy="24.5" rx="2" ry="2.8" style="fill:#3e2723"/><path d="M76.6 22.4v-.3A13 13 0 0 0 63.8 9c-7 .1-12.5 6-12.4 13.3 1-.4 3.9-1.7 6.8-4.5 3.5-3.5 5.7-6.8 5.8-6.8s2.3 3.3 5.8 6.7c3 3 5.9 4.2 6.8 4.6" style="fill:#3e2723"/><path d="M84.8 46.5q1 2.1 1.9 4.8c6.8 2.6 10.6 6 10.6 9 0 5.3-12.6 12.6-33.3 12.6s-33.3-7.3-33.3-12.6c0-3 4-6.5 11-9.1q.8-2.6 1.7-4.8c-10 3-16.7 8.1-16.7 13.9 0 9.1 16.7 16.6 37.3 16.6s37.3-7.5 37.3-16.6c0-5.8-6.6-10.8-16.5-13.8" style="fill:#f2b87e"/></svg>