<svg xml:space="preserve" width="16" height="16" viewBox="0 0 128 128"><path d="M62.6 13.6s1.8-4.2 6-7c2-1.2 5.5-3.2 6.2-2 .2.4-.7 1.7-1.6 3.6L72 11.7s3.7-4.8 10-6c5.1-1 10.6-.4 11.2.7.7 1.2-2.9 3.9-4 6.2s-2 5.3-2 5.3l8.5-3.9c2-.8 6.7-2.6 7.3-1.8s-2 5.2-2.6 6l-1.8 2.9s3.3-1.5 4.5-2.3 4.1-3 4.8-2.5c.6.4.6 4.7.2 6.5-.6 2.5-3.2 5.2-3.2 5.2s3.7.8 5.8 3.4 3.2 4.7 4 7.3c1.3 3.8 1.9 9.1 1.6 10.1s-1.8-.3-4.7-.6l-2.1-.1s1.6 2 2.3 3.7c1 2.3 2.1 6 2.7 7.6l2 4.7c.3.5-1.8 1-4-1l-1.6-1.4s1.2 7.7 1.2 12.9c-.1 3.8-1 10.7-2 11.3-1.2.6-3.5-4.2-3.5-4.2s-1 5.5-2 9.2c-1.4 4.3-2.7 6.4-3.4 9-1 3.1-1.9 5.3-2.5 4.4l-1.7-3.2-1.4-2.8s-1 6-5.8 10-7.9 7.3-10.1 7.6c-1.3.1.2-5.9.2-5.9l-11 8.5c-1.7 1.2-3.2 5.2-4.3 5-1.1-.4-4-4.7-5.8-6s-5.3-3-5.8-3.2l-2.8-1.8s.6 3.3 0 3.6c-1.5.7-7-3.2-8.5-5.6s-4.2-7.3-4.2-7.3-.4 4.7-1.5 4c-1.2-.9-7-5.2-9.1-8.4-1.4-2.3-4-8.8-4-8.8s-2.1 2.3-2.8 2.6-2.2.9-2-1.6c.3-2.4-1.6-8-2-11.4-.3-4.3.5-8.9.5-8.9s-3.6 4.8-5.3 4.8-.7-9.3-.2-12.1c.4-2.9 1.8-7.8 2.3-9.5.6-1.8 2.7-4.4 2.7-4.4s-5.2 1.8-6 1 .5-7 1.2-10.7c.3-2 1.9-5 3.8-7.3s5-1.8 5.3-2.8-1.1-1.8-2.1-3.4C16.8 24 16 19 16.8 18.2c.4-.6 3.1 1.5 6.4 1.9s6 .1 6 .1-1.8-2.2-2.6-4c-1.1-2.5-1.2-5.6-.5-6.3s3.2 1.6 6.5 2.4c3.3.9 8.2 1 8.2 1s-2-2.3-2.6-5q-.9-3.8.5-4.4c.9-.3 3.6 2.2 5.5 2.8 2 .6 8.9.2 12 1.1s6.4 5.8 6.4 5.8" style="fill:#865c50"/><path d="M84.8 35.6S97 24 104 32.6C112.3 42.8 90.2 54 90.2 54zm-42.2 2.9S31.3 23.7 23 31.7 32 52 32 52z" style="fill:#fec000"/><path d="M95.3 45.4s8.8-6.2 5.2-10.1c-4-4.2-11.2 3-11.2 3zm-57.9-6.5s-7.3-7.3-11.1-2.8c-3.4 4 6.3 11.8 6.3 11.8z" style="fill:#ff8e06"/><path d="M64.7 89.5s7.2-2 11.7-4.3S97.6 73.7 98.9 62s0-14.6-5.4-21.7-14.7-8.6-19.5-7.6c-5.8 1.3-6.8 5.5-9.3 5.7-2.4.1-1.7-2.6-8.6-5.1-8.8-3.2-33 5.5-28.7 28.7 2.2 12.3 20 22.7 22.4 24 5.5 3 14.9 3.5 14.9 3.5" style="fill:#fec000"/><circle cx="79.1" cy="49.5" r="4.2" style="fill:#2e2f2f" transform="rotate(-68.3 79.1 49.5)"/><circle cx="48.8" cy="49" r="4.3" style="fill:#2e2f2f" transform="rotate(-22.1 48.78 48.96)"/><path d="M64.5 57c-8.5-.3-16 9.4-16 25.4 0 15.6 8.2 19.3 14.9 19.3 8.4 0 16.4-5.6 15.5-20.7-.9-14-5.3-23.7-14.4-24" style="fill:#ffd899"/><path d="M54.6 65.8c-.9.9.7 5.5 2.1 7.8s5.5 6.2 7.7 6.1c2.3 0 6.5-4.8 7.8-8.3q2-5.2 1.1-6.4c-.9-1.2-7.2.2-9.7.2s-8.2-.2-9 .6m9.6 10.7s-3.6 4-5.2 4.5c-2.2.9-5.6.2-5.7 1.5s2.1 2.9 5.6 2.4c4-.5 5.4-2.9 5.4-2.9s2.2 3.2 6.5 3.4 5.2-2.6 4-3c-1.6-.5-2.6-.4-5-1.1-2-.6-5.6-4.8-5.6-4.8" style="fill:#2e2f2f"/></svg>