<svg xml:space="preserve" width="16" height="16" viewBox="0 0 128 128"><path d="M116 4H12a8 8 0 0 0-8 8v104a8 8 0 0 0 8 8h104a8 8 0 0 0 8-8V12a8 8 0 0 0-8-8" style="fill:#427687"/><path d="M109.7 4H11.5A7.6 7.6 0 0 0 4 11.5v97.9c0 4.2 3.4 7.5 7.5 7.5h98.1c4.2 0 7.5-3.4 7.5-7.5V11.5a7.3 7.3 0 0 0-7.4-7.5" style="fill:#8cafbf"/><path d="M39.7 12.9c0-2.3-1.6-3-10.8-2.7-7.7.3-11.5 1.2-13.8 4s-2.9 8.5-3 15.3c0 4.8 0 9.3 2.5 9.3 3.4 0 3.4-7.9 6.2-12.3 5.4-8.7 18.9-10.6 18.9-13.6" style="opacity:.5;fill:#b4e1ed"/><path d="M59.5 104.4h-8.6l-2.7-2.6q-4.4 3-9.9 3a14 14 0 0 1-8.8-2.5 8 8 0 0 1-3.3-7q0-3 1.4-5.3a13 13 0 0 1 4.7-4q-1.6-2.2-2.3-4a10 10 0 0 1-.8-3.9q0-3.5 2.6-5.6a11 11 0 0 1 7.2-2.1q4.1 0 6.8 2 2.5 1.9 2.5 5.3 0 2.7-1.6 5-1.5 2.2-5 4.2l6.4 6.4q1.6-2.7 2.8-7h7.3a33 33 0 0 1-5.5 11.3zm-26-9.7q0 2 1.6 3.1 1.5 1.2 3.7 1.2 3 0 5.2-1.4l-7.6-7.5q-1.4 1-2 2-.8 1.2-.8 2.6m8.3-16.2q0-1.2-.8-2-.9-.6-2.2-.6-1.5 0-2.4.7-.9.8-.9 2.1 0 2 2.2 4.4 2-1 3-2.1 1-1 1-2.5m32.5 7.2a8 8 0 0 1-4.2-7.3 8 8 0 0 1 4.2-7.2 9 9 0 0 1 4.5-1.2q2.4 0 4.3 1.2a8.3 8.3 0 0 1 0 14.5 9 9 0 0 1-4.3 1.1q-2.6 0-4.5-1.1m6.9-4.7q1-1 1-2.6 0-1.5-1-2.6-1-1-2.4-1-1.5 0-2.4 1-1 1-1 2.6t1 2.6 2.3 1 2.5-1m-5.9 21.6L97.1 70l3.9 2.6-21.8 32.5zm17.8 1.4a8.3 8.3 0 0 1 0-14.5 9 9 0 0 1 4.5-1.1 9 9 0 0 1 7.5 4.2 8 8 0 0 1 1 4.2 8 8 0 0 1-4.2 7.2 9 9 0 0 1-4.4 1.2q-2.3 0-4.4-1.2m6.9-4.6q1-1 1-2.6t-1-2.6-2.4-1-2.4 1-1 2.6 1 2.5 2.3 1 2.5-1m-72.3-76h24.4v5.8H27.7zm0 15.8H37v17.3h5.8V39.1H52v-5.8H27.7zm56.7-14.9v22.5q-1.3-.4-2.7-.4c-3.8 0-6.8 2.4-6.8 5.3s3 5.3 6.8 5.3c3.6 0 6.6-2.3 6.7-5.2v-21l8.2-2.7v-7.4z" style="fill:#fafafa"/></svg>