<svg xml:space="preserve" width="16" height="16" viewBox="0 0 128 128"><path d="M116 4H12a8 8 0 0 0-8 8v104a8 8 0 0 0 8 8h104a8 8 0 0 0 8-8V12a8 8 0 0 0-8-8" style="fill:#194fa5"/><path d="M109.7 4H11.5A7.6 7.6 0 0 0 4 11.5v97.9c0 4.1 3.3 7.5 7.5 7.5h98.1c4.1 0 7.5-3.3 7.5-7.5V11.5c0-4-3.1-7.4-7.2-7.5z" style="fill:#2262dd"/><path d="M39.7 12.9c0-2.3-1.6-3-10.8-2.7-7.7.3-11.5 1.2-13.8 4-1.9 2.3-2.3 5.6-2.6 8.4-.2 2.2-2.2 14.9 3.5 11.2q1-.6 1.6-1.8c1.2-2.1 1.9-3.5 3.3-5.6 5.3-8.6 18.8-10.5 18.8-13.5" style="opacity:.65;fill:#68abe6"/><path d="M39.7 12.9c0-2.3-1.6-3-10.8-2.7-7.7.3-11.5 1.2-13.8 4-1.9 2.3-2.3 5.6-2.6 8.4-.2 2.2-2.2 14.9 3.5 11.2q1-.6 1.6-1.8c1.2-2.1 1.9-3.5 3.3-5.6 5.3-8.6 18.8-10.5 18.8-13.5" style="opacity:.3;fill:#68abe6"/><circle cx="62.4" cy="25.5" r="9.3" style="fill:#fff"/><path d="m83.7 68-8.6-25.2c-1.2-3.5-6.4-6.1-12.8-6.1-6.3 0-11.6 2.6-12.7 6.1L41 68.1c-.6 1.7.3 3.7 2 4.3s3.5-.4 4.1-2.1l5.1-16.5q.3-.3.5.1v5.4l-6 24.4c-.2 1 .6 2 1.6 2H52q.8 0 .8 1v14.8c0 2.2 1.6 4.2 3.7 4.4 2.4.2 4.4-1.8 4.4-4.2V87.4q.1-1.5 1.6-1.6 1.5.1 1.6 1.6v14.1c0 2.2 1.6 4.1 3.7 4.4 2.4.2 4.4-1.8 4.4-4.2v-15q0-1 .8-1h3.5c1 0 1.8-1 1.6-2l-6-24.4V54c0-.3.5-.3.6 0l5 16.4a3 3 0 0 0 4.1 2 3.4 3.4 0 0 0 2-4.2" style="fill:#fff"/></svg>