<svg xml:space="preserve" width="16" height="16" viewBox="0 0 128 128"><path d="M60.5 28.7h7v70.6h-7zm31.9 7.1a18 18 0 0 0 15.4-8.2l-5.7-4C96.7 31 89.4 29 81.8 26.2l-.9-.4c-5-1.8-11-2.9-16.9-2.9v7c5 0 10.2 1 14.5 2.5l.8.3c3.2 1.2 8 3 13.1 3m-52 77.7c2-2.1 12-5 14.5-7.3 2.6-2.5 0-5.3 1.2-11 1.6-7.4 8-8.2 8-8.2s6.3.8 7.9 8.2c1.2 5.7-1.4 8.5 1.2 11 2.6 2.4 12.4 5.2 14.5 7.3 2.1 2.2 2.2 5.2 0 6.2 0 0-7.5 3.1-23.7 3.1s-23.6-3-23.6-3c-1.9-.7-2.1-4 0-6.3" style="fill:#4c889b"/><path d="M67.5 38c0 .5.5 3-2.3 3.5-2.5.5-4.7-.6-4.7-3.6q.1-3.7.3-3.7c.2 0 6.7 2.3 6.7 3.8" style="fill:#335e68"/><path d="M72.4 30.4c0-4.6-3.8-17-8.4-17s-8.3 12.4-8.3 17a8.3 8.3 0 1 0 16.7 0" style="fill:#4c889b"/><circle cx="64" cy="10.8" r="5.5" style="fill:#4c889b"/><circle cx="104.3" cy="24.2" r="5.5" style="fill:#4c889b"/><path d="M35.7 35.8c5.1 0 10-1.8 13-3l1-.3A43 43 0 0 1 64 30v-7c-5.8 0-11.8 1-16.8 3l-1 .3C38.8 29 31.5 31 26 23.5l-5.7 4.1a18 18 0 0 0 15.4 8.2" style="fill:#4c889b"/><path d="M59.2 91.9c-1.5 1-1.3 3-1.2 3.3q.4 1 1.6 1.4 2.7.9 5.4-.3c1.2-.6 3.6-2.3 3.4-3.9-.5-2.6-7.8-1.6-9.2-.5m7.8 24.6c-7.5 1.7-15.3.8-21.7-1.3-2.6-1-1.7-2-1.5-2q2-1.7 4.7-2c3.1-.2 5.7 1 8.7 2q5.3 1.5 10.7 1 .8-.2 1.5.1c1.7 1.1-2.4 2.2-2.4 2.2M63.2 11q-.8.4-1.7.2-1.3-.6-1.2-2c.2-1.5 2.5-3.6 4-2.8 2.2 1 .3 4-1.1 4.6m-5 16.2c1.4 1.7 4.6 1.4 6.1-2.4 1.1-2.7.8-5.6.6-6.5-.3-2.5-2.5-3-4-1-3.2 4.4-3.6 8.8-2.7 9.9" style="fill:#81afc1"/><circle cx="23.8" cy="24.9" r="1.8" style="fill:#4c889b"/><path d="M3.4 92.3 22 24.5s1-1.3 1.8-1.3 1.9 1.3 1.9 1.3l18.6 67.9-2.6.7L25.2 33l-2.7.3L6 93z" style="fill:#4c889b"/><path d="M44.4 92.4H3.3c0 4.6 10.8 10.8 20.5 10.8s20.6-6.6 20.6-10.8" style="fill:#81afc1"/><ellipse cx="23.8" cy="92.6" rx="20.6" ry="3.1" style="fill:#335e68"/><path d="M23.8 90.5c8.6 0 14.9.7 17.9 1.5.5.2.5 1 0 1-3 .9-9.3 1.7-17.9 1.7S9 93.9 6 93c-.5-.1-.5-1 0-1a73 73 0 0 1 17.8-1.6m0-1c-11.3 0-20.5 1.3-20.5 3 0 1.8 9.2 3.2 20.5 3.2s20.6-1.4 20.6-3.1-9.2-3.2-20.6-3.2m-6.2 10.4c2 1 1.6 1.5.4 1.7-2.3.2-6.2-1.3-8.5-3.3-.7-.5-1.5-2.5.7-2.2 3.5.5 3.2 1.7 7.4 3.8" style="fill:#a3cdd9"/><path d="M22.5 24.6a1.4 1.4 0 0 1 2.7 0v71.2a1.4 1.4 0 0 1-2.7 0z" style="fill:#4c889b"/><circle cx="23.8" cy="24.5" r="5.5" style="fill:#4c889b"/><path d="M24.8 20.2c1.3.6.7 1.7.4 2-.7 1-1.9 1-2.8 2-.3.4-.5 1.4-1.4 1.7a1 1 0 0 1-1.2-.7q-.4-3 1.8-4.4c.6-.4 1.8-1.2 3.2-.6" style="fill:#81afc1"/><path d="m83.8 92.2 18.8-67.8s1-1.2 1.8-1.2 1.9 1.2 1.9 1.2l18.4 68-2.7.8-16.2-60.3-2.8.3L86.4 93z" style="fill:#4c889b"/><path d="m124.8 92.5-41.2-.1c0 4.6 10.8 10.8 20.5 10.8 9.8 0 20.6-6.5 20.7-10.7" style="fill:#81afc1"/><ellipse cx="104.2" cy="92.6" rx="3.1" ry="20.6" style="fill:#335e68" transform="rotate(-89.8 104.17 92.57)"/><path d="M104.2 90.5a78 78 0 0 1 17.8 1.6c.6.1.5 1 0 1-3 .8-9.3 1.6-17.8 1.6s-14.9-.9-17.9-1.7c-.5-.1-.5-.9 0-1a75 75 0 0 1 17.9-1.5m0-1c-11.4-.1-20.6 1.3-20.6 3s9.2 3.2 20.6 3.2 20.5-1.3 20.5-3c0-1.8-9.2-3.2-20.5-3.3M98 99.7c1.9 1 1.3 1.4.1 1.5-2.3.2-5.8-1.4-8.4-3.4-.7-.6-2-2.5.9-2 3.4.7 3.4 2 7.3 3.9" style="fill:#a3cdd9"/><path d="M103 24.6a1.4 1.4 0 1 1 2.8 0l-.3 71.2a1.4 1.4 0 1 1-2.7 0z" style="fill:#4c889b"/><path d="M104.8 20.1c1.3.6.8 1.8.5 2.1l-2 1.6c-.7.5-1.3 1.1-2.4.5-1.2-.8-.5-2.6.6-3.4.7-.4 2-1.4 3.3-.8" style="fill:#81afc1"/></svg>