<svg xml:space="preserve" width="16" height="16" viewBox="0 0 128 128"><path d="M96.6 70.4c5.6-5.9-70.7-5.9-65.2 0q-1.8 6.9-2.6 12.3c-2.4 13.8-.7 25.6 7.8 34.8 3.7 4 11.4 4 11.4 4h32s7.7 0 11.4-4c8.5-9.2 10.2-21 7.9-34.8q-.8-5.4-2.7-12.3" style="fill:#3c2c23"/><radialGradient id="a" cx="64" cy="44.9" r="34.5" gradientTransform="matrix(1 0 0 -1.19 0 138.37)" gradientUnits="userSpaceOnUse"><stop offset=".8" style="stop-color:#554138;stop-opacity:0"/><stop offset="1" style="stop-color:#554138"/></radialGradient><path d="M95 58.1c0-.3-15.2-4.3-31-8.4-15.8 4-31 8.1-31 8.4-1.1 16-7.5 26.9-4.4 43.6 1.6 8.5 4.5 11.8 7.3 17 1.3 2.6 3.3 4.2 5.2 5.2H87c1.8-1 3.8-2.6 5.1-5.2 2.8-5.2 5.7-8.5 7.3-17C102.5 85 96.1 74 95 58" style="fill:url(#a)"/><linearGradient id="b" x1="64" x2="64" y1="33.6" y2="4.3" gradientTransform="matrix(1 0 0 -1 0 130)" gradientUnits="userSpaceOnUse"><stop offset="0" style="stop-color:#3b78e7"/><stop offset=".2" style="stop-color:#386eda"/><stop offset=".6" style="stop-color:#3052b8"/><stop offset="1" style="stop-color:#283593"/></linearGradient><path d="M116 121v3H12v-3c0-6.4 3.3-11.3 8.6-15.1l1.8-1.2h.1q2.7-1.6 6-3c7-2.8 15.5-4.5 24.4-5.3Q58.5 96 64 96h.2q5.3 0 10.6.5c9 .8 17.7 2.7 24.6 5.6a42 42 0 0 1 7.6 4c5.6 3.9 9 8.8 9 15" style="fill:url(#b)"/><path d="m64 121.9 9.3-17H53.4z" style="fill:#212121"/><path d="M55 86v14c0 4.6 3.6 8.2 8.2 8.2h1.6c4.6 0 8.3-3.6 8.3-8.1V86zm36.3-35.6H36.7c-6 0-10.7 5.2-10.7 11.4s4.8 11.5 10.7 11.5h54.6c6 0 10.7-5.2 10.7-11.5s-4.8-11.4-10.7-11.4" style="fill:#7a4c32"/><path d="M64 16c-17.2 0-33.1 12.8-33.1 40A40 40 0 0 0 56 94.8a24 24 0 0 0 7.9 1.5q3.6 0 7.8-1.5A40 40 0 0 0 97.1 56c0-27.2-15.9-40-33.1-40" style="fill:#a56c43"/><path d="M72.4 76.1a26 26 0 0 1-16.8 0c-1.8-1-3.7.6-3 2.3s6.5 5.4 11.4 5.4 10.6-3.8 11.3-5.4-1-3.4-2.9-2.3" style="fill:#473530"/><path d="M67.9 68H60q-1 .5-.6 1.7c.3.7 1.7 2.7 4.5 2.7s4.3-2 4.6-2.7q.3-1.2-.7-1.6" style="fill:#875334"/><ellipse cx="47.6" cy="58.8" rx="4.9" ry="5.1" style="fill:#42312c"/><ellipse cx="80.4" cy="58.8" rx="4.9" ry="5.1" style="fill:#42312c"/><path d="M54.8 49.8c-1-1.2-3-3-7.2-3s-6.3 1.8-7.3 3q-.5 1 0 1.6t2 .4c1.4-.2 2.5-1.2 5.3-1.2s4.5.9 5.3 1.2q1.4.3 2-.4.4-.6-.1-1.6m32.9 0c-1-1.2-3.1-3-7.3-3s-6.3 1.8-7.2 3q-.5 1 0 1.6t1.9.4c1.5-.2 2.5-1.2 5.3-1.2s4.5.9 5.4 1.2q1.3.3 1.9-.4t0-1.6" style="fill:#42312c"/><path d="M104 41.5C104 36.2 102.9 7 64 7S24.4 33 24.4 43c0 16.4 8.4 25.1 8.4 25.1s-.1-4.1.3-9 .3-12 6.4-13.3c22.4-5 35-16.9 35-16.9C77.7 36 88 43 91.7 45.7c3 2.1 4.5 21.7 4.5 21.7s7.8-9 7.8-26" style="fill:#3c2c23"/><radialGradient id="c" cx="64.4" cy="40.6" r="38.3" gradientUnits="userSpaceOnUse"><stop offset=".8" style="stop-color:#554138;stop-opacity:0"/><stop offset="1" style="stop-color:#554138"/></radialGradient><path d="M104 41.5C104 36.2 102.9 7 64 7S24.4 33 24.4 43c0 16.4 8.4 25.1 8.4 25.1s-.1-4.1.3-9 .3-12 6.4-13.3c22.4-5 35-16.9 35-16.9C77.7 36 88 43 91.7 45.7c3 2.1 4.5 21.7 4.5 21.7s7.8-9 7.8-26" style="fill:url(#c)"/><path d="M107 106c-.5.9-4.7 6.8-16.8 2.9-7-2.2-13.9-2.8-13.9-2.8-2.4-.7-1.6-8.3-1.5-9.7A70 70 0 0 1 107 106m-55.5 0s-7 .7-13.9 2.9c-12.3 3.9-16.5-2.3-17-3l1.8-1.2h.1q2.1-1.3 6-3c7-2.8 15.5-4.5 24.4-5.3.2 1.4 1 9-1.4 9.7" style="fill:#283593"/><path d="M45.8 119.7h-11c-1.1 0-2.1-1-2.1-2.2q.2-2 2.2-2.2h10.9c1.2 0 2.2 1 2.2 2.2s-1 2.2-2.2 2.2" style="fill:#e0e0e0"/><linearGradient id="d" x1="116.4" x2="106.6" y1="11.5" y2="11.5" gradientTransform="matrix(1 0 0 -1 0 130)" gradientUnits="userSpaceOnUse"><stop offset="0" style="stop-color:#666"/><stop offset=".1" style="stop-color:#606060"/><stop offset=".7" style="stop-color:#3f3f3f"/><stop offset="1" style="stop-color:#333"/></linearGradient><path d="M113.9 113.1h-5l-2.3 4.4 4.8 6.4h5c.3-7.3-2.5-10.8-2.5-10.8" style="fill:url(#d)"/><linearGradient id="e" x1="11.6" x2="21.4" y1="11.5" y2="11.5" gradientTransform="matrix(1 0 0 -1 0 130)" gradientUnits="userSpaceOnUse"><stop offset="0" style="stop-color:#666"/><stop offset=".1" style="stop-color:#606060"/><stop offset=".7" style="stop-color:#3f3f3f"/><stop offset="1" style="stop-color:#333"/></linearGradient><path d="M19.1 113.2h-5s-2.7 3.4-2.5 10.7h5l4.8-6.4z" style="fill:url(#e)"/><path d="m109.4 114 4.5-.1q.7-.1.7-.8 0-.9-.7-.7h-5.5l-3 5.6 4.3 6h1.8l-4.3-6.1zm2.5 2.6 3.3-.1q.5-.1.5-.5t-.5-.5l-3.9.1-1.5 2.3 4 6h1.1l-4-6zm-92.3-4.1-5.5-.1q-.7 0-.7.7t.7.8h4.6l2.1 4-4.3 6h1.8l4.3-5.9zm-2.9 3.2-3.9-.2q-.5 0-.5.5t.5.5l3.3.1 1 1.4-4 6h1.2l4-6z" style="fill:#bdbdbd"/><path d="m47.1 97.1-8 16.3L50 110l14 11.8-9-25.6zm26-.9-9 25.7 14.7-11.7 10.1 3.1-8-16.2z" style="fill:#3674ce"/><linearGradient id="f" x1="64.3" x2="64.3" y1="105.7" y2="85.3" gradientTransform="matrix(1 0 0 -1 0 130)" gradientUnits="userSpaceOnUse"><stop offset="0" style="stop-color:#666"/><stop offset=".1" style="stop-color:#606060"/><stop offset=".7" style="stop-color:#3f3f3f"/><stop offset="1" style="stop-color:#333"/></linearGradient><path d="M64 24.2c-33 0-38.2 11.1-38.2 11.1S35.9 45 64 45.3c28-.3 38.8-10.6 38.8-10.6S97 24.2 64 24.2" style="fill:url(#f)"/><linearGradient id="g" x1="64.2" x2="64.2" y1="125.3" y2="95.9" gradientTransform="matrix(1 0 0 -1 0 130)" gradientUnits="userSpaceOnUse"><stop offset="0" style="stop-color:#3b78e7"/><stop offset="0" style="stop-color:#3b77e6"/><stop offset=".3" style="stop-color:#335bc2"/><stop offset=".6" style="stop-color:#2d46a8"/><stop offset=".8" style="stop-color:#293998"/><stop offset="1" style="stop-color:#283593"/></linearGradient><path d="M21 34.3c1.7 6 3.3 8.6 3.3 8.6 1.7-2 11.8-11.1 39.9-11.1h.1c28 0 37.7 9.2 39.4 11.1 0 0 2-2.7 3.7-8.8 3.9-14-15.4-29.8-43.1-29.8s-47.1 16-43.3 30" style="fill:url(#g)"/><path d="M99.6 35.4q-.5-1.7-1.7-2.8a55 55 0 0 0-33.6-9.9c-19.3 0-30 7-33.7 9.9q-1.2 1-1.6 2.7-.4 2.1.8 3.5a70 70 0 0 1 34.3-7h.2A67 67 0 0 1 98.6 39q1.3-1.6 1-3.6" style="fill:#3b78e7"/><path d="m72 13.8-.3-.4-.6-.3q-.5 0-.6.4-.8 1.3-2.8 1.4c-1.4 0-2.4-1.3-3-2a1 1 0 0 0-.9-.5 1 1 0 0 0-.8.4c-.6.8-1.5 2-3 2q-2 0-2.7-1.3l-.7-.3-.6.2-.3.4q-.6.8-.1 1.7.6 1.2.6 2.6v3.4c0 2.6 4.1 7.8 7.7 7.8 3.5 0 7.6-5.2 7.6-7.8v-3.4q0-1.5.6-2.6.5-1 0-1.7" style="fill:#fc0"/></svg>