<svg xml:space="preserve" width="16" height="16" viewBox="0 0 128 128"><path d="M71.8 8.8H66V1.6h-4.4v7.2h-6v4h6V26l4.3-1.7V12.8h5.9z" style="fill:#614f46"/><path d="M49.7 59.9S16 90.8 16 91.2c.1.5 3.7 3 3.7 3L53 83.8zM78 58.3s34.3 32.5 34.1 33.1c-.1.5-3.8 2-3.8 2S72.7 76 72.8 75.2c0-.8 5.2-16.9 5.2-16.9" style="fill:#896159"/><path d="M49.8 66.5 19.7 94.2v28.2q0 1.4 1.3 1.5c1.3 0 86.9.2 87.4 0 0 0 .2-1.4.1-2.4V93.3l-31-28.7z" style="fill:#c0b8b3"/><path d="M45.4 44.4c-.2-1.2 2.2-2 3-3.2l11.7-16.5c1.2-1.5 2.3-3.4 3.5-3.4s3.3 3 4.3 4.4c1.6 2 10.5 14.4 11 15 1 1 3.1 2.3 3.1 3.1s-4.6 4.5-4.6 4.5l-28.1-1.1s-3.6-1.2-3.9-2.8" style="fill:#896159"/><path d="M48.6 45s29.7-.5 29.9-.2.1 4.8.1 4.8l-18.1 2.2-12-2.1z" style="fill:#bdb8b1"/><path d="m48.8 121.4-.2-71.7 30-.1 1 71.8z" style="fill:#5f4d4e"/><path d="M106 95.9 82.3 74.2l.5 47 23.5.2zM45 76 22 96.9l-1 16.4 1.1 8h23.3zm6-26.4.4 71.8h25.9l-.7-71.8z" style="fill:#efebea"/><path d="m106 95.9 2.5 2.3v23.3l-2.3-.1zm-84 1L19.6 99v22.4l2.4-.1z" style="fill:#5f4d4e"/><path d="M54.4 121.4s-.2-18.9-.1-24c0-5.3 3.2-10.3 9.7-10.2 7 0 9.9 4.8 9.9 10.3l.2 23.9z" style="fill:#d27856"/><path d="M69.6 100h-3.8v-6.7h-3.3v6.8h-3.8v3.4h3.8v13.7h3.3v-13.7h3.8zm2.8 20-16.4-.1V97c.1-1.9 1-7.8 8-8q3.6-.2 5.9 2a9 9 0 0 1 2.3 6l.1 22.2zm-14.9-1.6h13.3V97.2c0-.3-.1-3.2-2-5q-1.7-1.5-4.8-1.6c-5.6.2-6.4 4.7-6.5 6.6z" style="fill:#ac5832"/><path d="M70.4 104.6c-.9 0-.9.9-.9 2.3 0 1.5 0 2.4 1 2.4s.9-1 .8-2.5c0-1 .2-2.2-.9-2.2" style="fill:#f5bf0a"/><path d="M29.8 96.4V107l3 8.4h2.1l3-9v-9.9z" style="fill:#e4bbab"/><path d="M29.8 106.7s1.6.8 2.3 3.2c.6 2.3.7 5.4.7 5.4h-2.2c-.7 0-.7-.7-.7-1.3zm8-.5s-1.5.6-2.3 3.4c-.6 2.5-.6 5.7-.6 5.7h2.3c.5 0 .7-.7.7-1.2z" style="fill:#6da5b0"/><path d="M37.9 101s-1.8 1.6-4.1 1.6c-2.6 0-4-1.7-4-1.7v3.5s1.2.3 2.5 1.4c.9.7 1.4 2.2 1.4 2.2s.4-1.3 1.5-2.4a6 6 0 0 1 2.6-1.5z" style="fill:#fccb7e"/><path d="M29.8 96.2c0 1.5.9 4.2 4.2 4.2 2.9 0 3.9-2.2 3.9-4s-1-4.2-4.1-4.3c-2.5 0-4 2-4 4.1" style="fill:#9f7cdc"/><path d="M33.9 94.6q-1.6 0-1.8 1.6C32 97.8 33 98 34 98q1.7-.2 1.7-1.8-.1-1.6-1.7-1.6" style="fill:#d05e53"/><path d="M90.2 96.5v10.2l3 8.3h2.1l3-9.1v-9.7z" style="fill:#e4bbab"/><path d="M95.2 115s0-3.9.6-5.3c.7-2 2.5-3.8 2.5-3.8v7.8c0 .5 0 1.3-.5 1.3zm-5-8.3s1.5.6 2.3 2.7c.8 2.2.7 5.6.7 5.6H91q-1 0-.8-1.6z" style="fill:#6da5b0"/><path d="M90.2 100.7v3.2s1.6.7 2.3 1.5c.9.8 1.7 2.3 1.7 2.3s.8-1.8 1.6-2.5a9 9 0 0 1 2.5-1.5v-3s-1.7 1.8-4.2 1.8-3.9-1.8-3.9-1.8" style="fill:#fccb7e"/><path d="M94.2 92a4 4 0 0 0-4 4.2c0 2.8 2.2 4 4.1 4s3.9-1.2 4-4a4 4 0 0 0-4-4.2" style="fill:#9f7cdc"/><path d="M94.2 94.4q-1.6 0-1.7 1.8.2 1.7 1.8 1.7 1.6.1 1.7-1.9 0-1.5-1.8-1.6" style="fill:#d05e53"/><path d="M63.7 55.3c-7.3 0-11 5.8-10.7 11.3.4 6 4.5 10.4 10.9 10.3 6.8 0 10.5-5 10.5-11.1s-4.5-10.4-10.7-10.5" style="fill:#63697f"/><path d="M63.4 56.8c-5 .1-9 4.1-9 9.6a9 9 0 0 0 9.2 9 9 9 0 0 0 9.3-9c.3-6.3-4.4-9.7-9.5-9.6" style="fill:#6da5b0"/><path d="M63.9 61.5c-2.9 0-4.8 2-4.7 4.6 0 2.3 1.3 4.8 4.6 4.8 3 0 4.7-2.2 4.7-4.5 0-2.1-1-4.8-4.6-4.9" style="fill:#e4bbab"/><path d="m69.1 63.2 1.6-1q-1.2-2.1-3.4-3l-.7 1.8q1.6.7 2.5 2.2" style="fill:#9f7cdc"/><path d="m69.6 67.8 1.7.6a9 9 0 0 0 0-4.3l-1.7.5a7 7 0 0 1 0 3.2" style="fill:#fccb7e"/><path d="M69 69.3q-.8 1.3-2 2l.9 1.6q1.6-.9 2.7-2.7z" style="fill:#9f7cdc"/><path d="M65.6 71.8a7 7 0 0 1-3.1 0l-.5 2a8 8 0 0 0 4.2-.2z" style="fill:#fccb7e"/><path d="M58.9 69.4 57 70.6q1.2 1.7 3 2.6l1-1.8q-1.4-.7-2.2-2" style="fill:#9f7cdc"/><path d="m58 64.6-1.9-.4q-.3 1-.3 2.2 0 1.5.5 2.7l2-1a6 6 0 0 1-.2-3.5" style="fill:#fccb7e"/><path d="M59.7 59.4a8 8 0 0 0-2.9 3l1.8 1q.8-1.5 2.2-2.2z" style="fill:#9f7cdc"/><path d="M63.5 58.4q-1 0-2.1.3l.7 2a7 7 0 0 1 3.1-.2l.4-2q-1-.2-2-.1" style="fill:#fccb7e"/></svg>