<svg xml:space="preserve" width="16" height="16" viewBox="0 0 128 128"><path d="M4 93.3V34.7c0-4.7 3.8-8.5 8.5-8.5h103c4.7 0 8.5 3.8 8.5 8.5v58.6c0 4.7-3.8 8.5-8.5 8.5h-103A8.5 8.5 0 0 1 4 93.3" style="fill:#b9e4ea"/><path d="M42.4 89.1H15.2q-1.5-.2-1.6-1.5v-37q.1-1.5 1.6-1.6h27.2q1.5.1 1.6 1.6v37q-.1 1.3-1.6 1.5" style="fill:#fff"/><linearGradient id="a" x1="28.8" x2="28.8" y1="74.3" y2="39" gradientTransform="matrix(1 0 0 -1 0 128.11)" gradientUnits="userSpaceOnUse"><stop offset=".2" style="stop-color:#1e88e5"/><stop offset="1" style="stop-color:#1565c0"/></linearGradient><path d="M43.9 88v1H13.8v-1c0-4.7 5.8-7 12.3-7.4v-.3a10 10 0 0 1-6.4-6.3c-1.2-.4-2-4.5-1.6-5-.2-1.7-1.8-15.1 10.7-15.2s11 13.4 10.7 15.1c.3.6-.4 4.6-1.6 5a10 10 0 0 1-6.4 6.4v.3c6.5.5 12.4 3 12.4 7.4" style="fill:url(#a)"/><path d="M115.5 26.2h-103A8.5 8.5 0 0 0 4 34.7V40h120v-5.3c0-4.7-3.8-8.5-8.5-8.5" style="fill:#2f7889"/><path d="M79 53.8H54.4c-1.3 0-2.3-1.1-2.3-2.4s1-2.4 2.3-2.4h24.8a2.4 2.4 0 1 1 0 4.7M88 65.6H54.3c-1.3 0-2.3-1.1-2.3-2.4s1-2.4 2.3-2.4H88q2.1.1 2.3 2.4-.2 2.1-2.3 2.3M75.3 77.3h-21q-2.1-.2-2.3-2.3c0-1.3 1-2.4 2.3-2.4h21q2.1.2 2.3 2.4-.2 2.1-2.3 2.3m-5.7 11.8H54.3q-2.1-.2-2.3-2.3.2-2.3 2.3-2.4h15.3q2.1.2 2.3 2.4-.2 2.1-2.3 2.3" style="fill:#82aec0"/><path d="M124 53.8h-.5a14.2 14.2 0 1 0 0 28.3h.5z" style="fill:#94d1e0"/></svg>