<svg xml:space="preserve" width="16" height="16" viewBox="0 0 128 128"><path d="M122.7 46.9 80.9 32.4 4 66.6c0 4.4.4 15.1 1.2 16.2s3.8 3.6 3.4 4.9c-.3 1-1.4 1.5-2.1 2.3-2.4 2.6 1 7.9 2.8 10q3 3.7 7 6c2.6 1.7 9.2 6.2 12.4 5l1.2-.9q1.2-1 2.7-1 1.6.1 2.6 1.4c1.5 2.4 2 3.5 5 4.2a64 64 0 0 0 24.6.9c6.6-1.6 12.5-5.6 14.5-12.4C82.7 92 99 87.3 106 86l4.2-.9c1-.2 3.6-.4 4.1-1.2q.3-.4.3-1 .5-1.8 2-2.8c1-.6 2.4-.6 3.3.2l.2.2c.8.4 2.4-1.8 2.7-2.3a9 9 0 0 0 1.3-4.4c.1-8.4-1.3-27-1.3-27" style="fill:#eebd1c"/><path d="M102.7 29.2c-16.7-6.8-28.6-7.8-37-6q-.6.1-.5.8v.6c0 1.2-2 2.6-4.8 2.9q-1.6 0-3-.3-1.1-.2-2.2.4a24 24 0 0 0-7.6 9.3 13 13 0 0 1-6 5.4c-4.7 2.5-10 4-15 5.7-13.7 4.7-16 7.5-16.5 8.9l-.6 1.6C8.7 59.8 7 60.2 5.8 61c-.6.4-1.6 2.5-1.8 5.2-.5 9.7 9.7 15.8 17.3 19 22 9.3 36 12.6 47.8-.6 5-5.5 8.5-10.6 11.7-12.2-1.2-.4-3-1.5-2.3-2.8 1.8-3.8 10.8-1.4 11-1.4s3-2.5 16-3c11-.5 34.4-20.9-2.8-36" style="fill:#ffeb3b"/><path d="M28.2 88c.2 2.4-1.3 4.1-3.3 3.8s-3.8-2.5-4-4.9l.1-1.6s5.2-2.6 8.7-.9c3.6 1.8-1.5 3.6-1.5 3.6" style="fill:#d19600"/><path d="M28.2 88a6 6 0 0 1-5.7-1c-.3-.2-1.5-1.1-1.5-1.5 0-.5 1.2-.7 1.6-.9 2.2-.7 5-1.2 7.2-.2 1.7.9 1.3 2-.2 3z" style="fill:#eebd1c"/><path d="M19.2 100c.2 2.1-1.2 3.6-3 3.4s-3.4-2.3-3.6-4.5 1.2-3.7 3-3.4 3.5 2.2 3.6 4.4m23.6 1.7c.2 2.5-1.1 4.3-3 4-2-.3-3.6-2.5-3.8-5s1.2-4.3 3.1-4 3.5 2.5 3.7 5m10.5 8.1q0 2.5-1.8 2.5c-1.8 0-2.2-1.6-2.3-3-.1-1.6.7-2.7 1.8-2.5s2.2 1.5 2.3 3m16.6-16.3c0 2.7-1.4 5.4-3 6.1-1.8.8-3.2-.8-3.2-3.4s1.3-5.3 3-6 3.1.7 3.1 3.3m40.9-14.1c0 2-1.2 4-2.5 4.5s-2.4-.7-2.3-2.7c0-2 1.2-4 2.5-4.5s2.3.7 2.3 2.7m9.5-11.1c0 2-1.2 4-2.5 4.6s-2.3-.7-2.3-2.7 1.2-4 2.5-4.6 2.4.7 2.3 2.7m-20 5.9c0 3-1.8 6-4 6.8s-3.7-.9-3.6-3.9 1.8-6 4-6.8 3.7 1 3.6 3.9" style="fill:#d19600"/><ellipse cx="23.8" cy="59.6" rx="6.9" ry="3.8" style="fill:#eebd1c" transform="rotate(-4.3 23.75 59.58)"/><ellipse cx="51.4" cy="62.1" rx="10.5" ry="5.2" style="fill:#eebd1c" transform="rotate(-4.3 51.38 62.04)"/><ellipse cx="62.6" cy="36.1" rx="7.4" ry="4.1" style="fill:#eebd1c" transform="rotate(-4.3 62.54 36.06)"/><ellipse cx="42.1" cy="51.4" rx="4.2" ry="2.3" style="fill:#eebd1c" transform="rotate(-4.3 42.14 51.36)"/><ellipse cx="38.6" cy="73" rx="4.2" ry="2.3" style="fill:#eebd1c" transform="rotate(-4.3 38.6 73)"/><ellipse cx="50.9" cy="80.3" rx="5.9" ry="3.2" style="fill:#eebd1c" transform="rotate(-4.3 50.9 80.24)"/><ellipse cx="62.8" cy="48.1" rx="3.8" ry="2.1" style="fill:#eebd1c" transform="rotate(-4.3 62.8 48.1)"/><ellipse cx="60.8" cy="71.5" rx="3.8" ry="2.1" style="fill:#eebd1c" transform="rotate(-4.3 60.73 71.49)"/><ellipse cx="78" cy="30.7" rx="3.8" ry="2.1" style="fill:#eebd1c" transform="rotate(-4.3 77.96 30.66)"/><ellipse cx="107.9" cy="52.8" rx="6.8" ry="3.7" style="fill:#eebd1c" transform="rotate(-2 107.76 52.73)"/><ellipse cx="99.3" cy="45.9" rx="3.2" ry="1.8" style="fill:#eebd1c" transform="rotate(-2 99.15 45.8)"/><ellipse cx="83.3" cy="38.4" rx="3.2" ry="1.8" style="fill:#eebd1c" transform="rotate(-4.3 83.24 38.33)"/><ellipse cx="80.9" cy="53.4" rx="7.4" ry="4.1" style="fill:#eebd1c" transform="rotate(-4.3 80.86 53.36)"/><path d="M84 69.6q2.4 0 4.7-1.2 0 1.5-.7 2.7-.5 1.4-1.5 2.3-1.4.9-3.2.4-1.5-.4-2.9-1.4c-.9-.6-3.2-2.7-1.3-3.7q.9-.3 1.7.3 1.5.6 3.1.6" style="fill:#d19600"/><radialGradient id="a" cx="31.8" cy="51.6" r="16.7" gradientTransform="rotate(11.6 66.35 59.28)scale(1 1.009)" gradientUnits="userSpaceOnUse"><stop offset=".4" style="stop-color:#80deea;stop-opacity:0"/><stop offset="1" style="stop-color:#80deea;stop-opacity:.8"/></radialGradient><circle cx="33.7" cy="43.6" r="16.5" style="fill:url(#a)"/><radialGradient id="b" cx="27.8" cy="22.1" r="7" gradientTransform="rotate(5.3 105.89 110.83)" gradientUnits="userSpaceOnUse"><stop offset=".4" style="stop-color:#80deea;stop-opacity:0"/><stop offset="1" style="stop-color:#80deea;stop-opacity:.8"/></radialGradient><circle cx="35.5" cy="14.2" r="6.7" style="fill:url(#b)"/><radialGradient id="c" cx="11.3" cy="40.4" r="8.8" gradientTransform="rotate(5.3 105.89 110.83)" gradientUnits="userSpaceOnUse"><stop offset=".4" style="stop-color:#80deea;stop-opacity:0"/><stop offset="1" style="stop-color:#80deea;stop-opacity:.8"/></radialGradient><circle cx="18" cy="31.8" r="8" style="fill:url(#c)"/><path d="M27.6 32.3q.2.8 1 1c1.6.3 3.7-.3 5.3-.2 1.7.2 2.8.3 4.6.9 1 .3 3.2.4 2.8-1.3-.4-1.5-2.9-2.6-4.2-2.9-2.9-.7-5.9-.6-8 .5-1.4.6-1.5 1.7-1.5 2" style="opacity:.8;fill:#fff"/><radialGradient id="d" cx="96.4" cy="90" r="11.4" gradientTransform="rotate(11.6 64.09 59.06)" gradientUnits="userSpaceOnUse"><stop offset=".2" style="stop-color:#80deea;stop-opacity:0"/><stop offset="1" style="stop-color:#80deea;stop-opacity:.8"/></radialGradient><circle cx="87.8" cy="92.9" r="10.9" style="fill:url(#d)"/><radialGradient id="e" cx="114.6" cy="92.9" r="6" gradientTransform="rotate(11.6 64.09 59.06)" gradientUnits="userSpaceOnUse"><stop offset=".3" style="stop-color:#80deea;stop-opacity:0"/><stop offset="1" style="stop-color:#80deea"/></radialGradient><circle cx="106.4" cy="102.7" r="5.3" style="opacity:.7;fill:url(#e)"/><path d="M96 91.5q.3 1.1-.1 2.2-.6 1-1.8.9-.9-.4-1.3-1.3a10 10 0 0 0-4.8-3.6c-1.1-.4-3.8-1-3.4-2.8.6-2.8 5.8-1.9 7.9-.5q2.9 1.9 3.6 5m-65.4-78c.5 0 1-.9 2-1.6s2.2-1 3-1.1q.9 0 1.4-.6c.1-.3 0-1.6-2-1.4-2.2.3-4.1 1.8-4.6 3q-.6 1.6.2 1.7" style="opacity:.8;fill:#fff"/></svg>