<svg xml:space="preserve" width="16" height="16" viewBox="0 0 128 128"><path d="M116 4H12a8 8 0 0 0-8 8v104a8 8 0 0 0 8 8h104a8 8 0 0 0 8-8V12a8 8 0 0 0-8-8" style="fill:#bdbdbd"/><path d="M109.7 4H11.5A7.6 7.6 0 0 0 4 11.5v97.9c0 4.1 3.3 7.5 7.5 7.5h98.1c4.1 0 7.5-3.3 7.5-7.5V11.5c0-4-3.1-7.4-7.2-7.5z" style="fill:#e0e0e0"/><path d="M28.1 24.7h73c1.6 0 2.9 1.3 2.9 2.9v73c0 1.6-1.3 2.9-2.9 2.9h-73a3 3 0 0 1-2.9-2.9V27.7c0-1.6 1.1-3 2.7-3z" style="fill:#575757"/><path d="M28.1 24.7h67.4c1.6 0 2.9 1.3 2.9 2.9V95c0 1.6-1.3 2.9-2.9 2.9H28.1a3 3 0 0 1-2.9-2.9V27.7c0-1.6 1.1-3 2.7-3z" style="fill:#424242"/><path d="M49 33.5c0-1.5-1-1.9-6.9-1.7-4.9.2-7.3.8-8.8 2.6s-1.9 5.4-1.9 9.8c0 3.1 0 5.9 1.6 5.9 2.2 0 2.2-5 4-7.9 3.3-5.5 12-6.7 12-8.7" style="fill:#787878"/></svg>