<svg xml:space="preserve" width="16" height="16" viewBox="0 0 128 128"><linearGradient id="a" x1="77" x2="77" y1="71.4" y2="109.7" gradientTransform="translate(0 2)" gradientUnits="userSpaceOnUse"><stop offset="0" style="stop-color:#8d5738"/><stop offset=".5" style="stop-color:#a56c43"/></linearGradient><path d="m87.5 86.8-6.2-6.6c-4-4.2-8.8-7.3-8.8-7.3l-8 8.7A38 38 0 0 0 78 95.5q-.5 1.5-.8 3.8c-.4 4.8.4 11 .4 11.8l.2 6.3H84L89.4 94a8 8 0 0 0-2-7.2" style="fill:url(#a)"/><linearGradient id="b" x1="51" x2="51" y1="71.4" y2="109.7" gradientTransform="translate(0 2)" gradientUnits="userSpaceOnUse"><stop offset="0" style="stop-color:#8d5738"/><stop offset=".5" style="stop-color:#a56c43"/></linearGradient><path d="M55.5 73s-4.8 3-8.8 7.2l-6.1 6.6a8 8 0 0 0-2 7.2l5.3 23.4h6.3l.2-6.3c0-.7.8-7 .4-11.8q-.2-2.3-.7-3.8a38 38 0 0 0 13.5-13.9z" style="fill:url(#b)"/><path d="m42.3 111 1.6 6.4h6.3l.2-6.3z" style="fill:#e0e0e0"/><path d="M52.4 120c0-2-1.6-4.2-1.6-4.2H43l-6 2.2a4 4 0 0 0-2.5 3.7v1.3q0 .9 1 1h15.8q1-.1 1.1-1.2z" style="fill:#4568ad"/><path d="m77.6 111 .2 6.4H84l1.6-6.3z" style="fill:#e0e0e0"/><path d="m91 118-6-2.2h-7.7s-1.7 2.2-1.7 4.2v2.8q.1 1 1.1 1.2h15.8q1 0 1-1v-1.3A4 4 0 0 0 91 118" style="fill:#4568ad"/><path d="M64.2 17.7c-12.6 0-12.5 11.6-12.5 11.8 0 7.6.6 18.2 3.6 22.4 1.2 1.7 3.5 1.8 3.5 1.8h10.4s2.3-.1 3.5-1.8c3-4.2 3.6-14.8 3.6-22.4 0-.2.5-11.8-12.1-11.8" style="fill:#3c2c23"/><radialGradient id="c" cx="64" cy="32.9" r="14.6" gradientTransform="matrix(1 0 0 1.19 0 -4.42)" gradientUnits="userSpaceOnUse"><stop offset=".8" style="stop-color:#554138;stop-opacity:0"/><stop offset="1" style="stop-color:#554138"/></radialGradient><path d="M64.2 17.7c-12.6 0-12.5 11.6-12.5 11.8 0 7.6.6 18.2 3.6 22.4 1.2 1.7 3.5 1.8 3.5 1.8h10.4s2.3-.1 3.5-1.8c3-4.2 3.6-14.8 3.6-22.4 0-.2.5-11.8-12.1-11.8" style="fill:url(#c)"/><linearGradient id="d" x1="80.7" x2="93.5" y1="41.7" y2="20.6" gradientTransform="translate(0 2)" gradientUnits="userSpaceOnUse"><stop offset="0" style="stop-color:#8d5738"/><stop offset=".5" style="stop-color:#a56c43"/></linearGradient><path d="m96.3 23.1-4.6-2.3a25 25 0 0 0-7 12 21 21 0 0 0-8.3 7.7c-2 2.8-3.3 4.3-4.8 7.1-1 2.1-.3 4.5 1.7 6q1.5 1 2.5 1 1.3 0 2.6-1c2.1-1.3 5-4.4 6.7-6.7a34 34 0 0 0 5.7-10.7c3.2-3.4 5.5-7.8 5.5-13" style="fill:url(#d)"/><linearGradient id="e" x1="47.2" x2="34.3" y1="41.5" y2="20.7" gradientTransform="translate(0 2)" gradientUnits="userSpaceOnUse"><stop offset="0" style="stop-color:#8d5738"/><stop offset=".5" style="stop-color:#a56c43"/></linearGradient><path d="M56.4 47.6c-1.5-2.8-2.8-4.3-4.8-7.1a22 22 0 0 0-8.3-7.7 25 25 0 0 0-7-12l-4.6 2.3a19 19 0 0 0 5.5 13.1 35 35 0 0 0 12.4 17.4q1.4 1 2.6 1 1 .1 2.4-1c2-1.4 2.9-3.8 1.8-5.9" style="fill:url(#e)"/><linearGradient id="f" x1="64" x2="64" y1="44.1" y2="69.6" gradientTransform="translate(0 2)" gradientUnits="userSpaceOnUse"><stop offset="0" style="stop-color:#651fff"/><stop offset=".7" style="stop-color:#5914f2"/><stop offset="1" style="stop-color:#530eeb"/></linearGradient><path d="M76.4 40.5c-1.8 2.4-3 4-4.2 6.1q-1.8-.5-4.2-.5h-8q-2.3 0-4.1.5c-1.3-2.2-2.5-3.7-4.2-6.1L43 46.9c1.8 2.3 5.7 6.6 5.7 6.6.8 4 5.6 20.2 5.6 20.2h20.2l5.2-20.3s3.8-4.2 5.5-6.5z" style="fill:url(#f)"/><path d="M60.5 46.8a3 3 0 0 0 3.2 3h.6a3 3 0 0 0 3.2-3v-3.6h-7z" style="fill:#7a4c32"/><path d="M64 21.4c-5.3 0-10.2 4-10.2 12.3 0 6.7 4.2 10.6 7.8 12q1.3.4 2.4.4t2.4-.5c3.6-1.2 7.8-5.2 7.8-11.9 0-8.4-5-12.3-10.2-12.3" style="fill:#a56c43"/><path d="M65.2 37.5h-2.4q-.3.1-.2.5c0 .2.5.8 1.4.8s1.3-.6 1.4-.8q.1-.3-.2-.5" style="fill:#875334"/><path d="M66.6 40c-1 .6-4.2.6-5.2 0-.6-.4-1.2.1-1 .7.3.5 2 1.6 3.6 1.6s3.3-1.1 3.5-1.6-.3-1-.9-.7" style="fill:#473530"/><ellipse cx="59" cy="34.6" rx="1.5" ry="1.6" style="fill:#42312c"/><ellipse cx="69" cy="34.6" rx="1.5" ry="1.6" style="fill:#42312c"/><path d="M61.2 31.8q-.4-.8-2.2-1-2 .2-2.2 1-.2.3 0 .5.1.2.5.1T59 32q1.3.1 1.6.4.5.1.6-.1zm10.1 0q-.4-.8-2.3-1-2 .2-2.2 1v.5q0 .2.6.1c.6 0 .7-.3 1.6-.4q1.3.1 1.7.4.4.1.6-.1z" style="fill:#42312c"/><path d="M64.2 17.7c-12.6 0-12.5 11.6-12.5 11.8l.2 7.8h2c0-1 .7-6.5 2.6-6.9 6.8-1.5 10.7-5.2 10.7-5.2 1 2.2 4.2 4.4 5.3 5.2s1.2 5.7 1.2 6.9h2.4q.3-4.2.2-7.8c0-.2.5-11.8-12.1-11.8" style="fill:#3c2c23"/><radialGradient id="g" cx="64.1" cy="34.2" r="15.3" gradientTransform="matrix(1 0 0 1.214 0 -5.47)" gradientUnits="userSpaceOnUse"><stop offset=".8" style="stop-color:#554138;stop-opacity:0"/><stop offset="1" style="stop-color:#554138"/></radialGradient><path d="M64.2 17.7c-12.6 0-12.5 11.6-12.5 11.8l.2 7.8h2c0-1 .7-6.5 2.6-6.9 6.8-1.5 10.7-5.2 10.7-5.2 1 2.2 4.2 4.4 5.3 5.2s1.2 5.7 1.2 6.9h2.4q.3-4.2.2-7.8c0-.2.5-11.8-12.1-11.8" style="fill:url(#g)"/><radialGradient id="h" cx="35.4" cy="19.2" r="5.7" gradientTransform="translate(0 2)" gradientUnits="userSpaceOnUse"><stop offset="0" style="stop-color:#8d5738"/><stop offset=".5" style="stop-color:#a56c43"/></radialGradient><path d="M40.3 17.2c-1-.6-5.2-1.2-8.2-1.2q-2.6 0-2.8.7v3.5c0 3.4 2.2 6.2 6 6.2 6.7 0 7.2-8 5-9.2" style="fill:url(#h)"/><path d="m40 20.8-.7.4q-.6 0-2 .6C36 22.2 36 24 36 24c-.3-1 .3-2.6 1.2-3l1.4-.4h.6q.8 0 1 .2" style="fill:#875334"/><linearGradient id="i" x1="64" x2="64" y1="13.4" y2="19.4" gradientTransform="translate(0 2)" gradientUnits="userSpaceOnUse"><stop offset="0" style="stop-color:#bdbdbd"/><stop offset="1" style="stop-color:#757575"/></linearGradient><path d="M124 18.5c0 1.4-.7 2.5-1.6 2.5H5.6C4.7 21 4 19.9 4 18.5S4.7 16 5.6 16h116.8c.9 0 1.6 1.1 1.6 2.5" style="fill:url(#i)"/><radialGradient id="j" cx="-102.3" cy="115.9" r="24.3" gradientTransform="matrix(0 .902 .507 0 -37.87 100.88)" gradientUnits="userSpaceOnUse"><stop offset=".4" style="stop-color:#9e9e9e"/><stop offset=".8" style="stop-color:#646464"/></radialGradient><path d="M21 33a6 6 0 0 0 6-6V10a6 6 0 0 0-12 0v17a6 6 0 0 0 6 6" style="fill:url(#j)"/><radialGradient id="k" cx="-1251.9" cy="123.8" r="24.3" gradientTransform="matrix(0 .902 -.507 0 169.88 1137.5)" gradientUnits="userSpaceOnUse"><stop offset=".4" style="stop-color:#9e9e9e"/><stop offset=".8" style="stop-color:#646464"/></radialGradient><path d="M107 33a6 6 0 0 1-6-6V10a6 6 0 0 1 12 0v17a6 6 0 0 1-6 6" style="fill:url(#k)"/><radialGradient id="l" cx="-172.5" cy="114.1" r="3.5" gradientTransform="matrix(1.333 0 0 -2.306 240.16 275.93)" gradientUnits="userSpaceOnUse"><stop offset=".4" style="stop-color:#9e9e9e"/><stop offset="1" style="stop-color:#646464"/></radialGradient><path d="M10 27.2a4 4 0 0 0 4-4V14a4 4 0 1 0-8 0v9.3a4 4 0 0 0 4 4" style="fill:url(#l)"/><radialGradient id="m" cx="-1204.1" cy="114.1" r="3.5" gradientTransform="matrix(-1.333 0 0 -2.306 -1487.73 275.93)" gradientUnits="userSpaceOnUse"><stop offset=".4" style="stop-color:#9e9e9e"/><stop offset="1" style="stop-color:#646464"/></radialGradient><path d="M118 27.2a4 4 0 0 1-4-4V14a4 4 0 1 1 8 0v9.3a4 4 0 0 1-4 4" style="fill:url(#m)"/><path d="M38.6 21h-9.3l-.8-5h10.1z" style="fill:#646464"/><linearGradient id="n" x1="34.8" x2="34.9" y1="14.6" y2="11.3" gradientTransform="translate(0 2)" gradientUnits="userSpaceOnUse"><stop offset="0" style="stop-color:#8d5738"/><stop offset=".5" style="stop-color:#a56c43"/></linearGradient><path d="m41.2 15-.3 1.6v.3l-.2.8v.4a2 2 0 0 1-2.2 1.5q-.7 0-1.2-.7-.5.5-1.2.5l-1.3-.5-.1-.2-.1.1q-.1.2-1.2.4-.8-.2-1.2-.5l-.7.6-.6.2h-.3q-.6 0-1-.4-.8-.4-.8-1.2l-.2-.9-.1-1q-.2-.8.3-1.5a2 2 0 0 1 1.6-.8h.1q.4 0 1 .4l.3-.6.2-.1.1-.1q.5-.5 1.1-.5h.4l1 .5.5-.5.2-.1.8-.2q.6 0 1 .3l.7.8a2 2 0 0 1 1.3-.7 2 2 0 0 1 1.8.7q.5.8.3 1.4" style="fill:url(#n)"/><path d="m75.5 74.1-.7-2h-21l-.4 2-9 8 10 10.4 7.4-6.2a3 3 0 0 1 2-.7 3 3 0 0 1 2 .7l7.4 6.2 10.4-10.4z" style="fill:#7c7c7c"/><path d="M41 16.1c-.3 1-2.2 0-3-.3l-.2-1.5q0 .9-.9.7-.8-.4-1.6-.3H35l-.2-.6v.1q0 .5-.5.9c-1 .7-1.3 2 0 3.4q-.9.5-1.6 0c-.5-.6-.7-2.2-1-3.4.1.9.4 2.4.3 3q-.4 1.1-1.6 1-1-.2-1.7-2l.2.8q0 .8.7 1.2a2 2 0 0 0 2 .2l.7-.6s.5.5 1.2.5l1.2-.3h.2s2.4.9 2.3 1.8v.3l.2.8c.3-.2.8 0 .9-.4q.2-2 0-4.1l2.5.4z" style="fill:#875334"/><linearGradient id="o" x1="35" x2="40.3" y1="18.3" y2="15.7" gradientTransform="translate(0 2)" gradientUnits="userSpaceOnUse"><stop offset="0" style="stop-color:#8d5738"/><stop offset=".5" style="stop-color:#a56c43"/></linearGradient><path d="M41.5 19.4c-.5-2.7-3.7-3.8-5-4.3-.1 0-2.3-.5-2.6 1.4q0 1.5 1.4 2.2c2.2.8 2.2 1.3 2.2 1.6 0 .9.5 2.4 1.2 2.9l.5.2.3-.1a4 4 0 0 0 2-4" style="fill:url(#o)"/><radialGradient id="p" cx="39.4" cy="19.2" r="5.7" gradientTransform="matrix(-1 0 0 1 132.12 2)" gradientUnits="userSpaceOnUse"><stop offset="0" style="stop-color:#8d5738"/><stop offset=".5" style="stop-color:#a56c43"/></radialGradient><path d="M87.9 17.2a24 24 0 0 1 8-1.2c1.7 0 3 .2 3 .7v3.5c0 3.4-2.3 6.2-6 6.2-6.8 0-7.3-8-5-9.2" style="fill:url(#p)"/><path d="m88.1 20.8.8.4q.6 0 2 .6c1.3.4 1.4 2.2 1.4 2.2.2-1-.4-2.6-1.3-3l-1.4-.4h-.5q-.9 0-1 .2" style="fill:#875334"/><path d="M89.5 16h10.1l-.8 5h-9.3z" style="fill:#646464"/><linearGradient id="q" x1="38.8" x2="38.9" y1="14.6" y2="11.3" gradientTransform="matrix(-1 0 0 1 132.12 2)" gradientUnits="userSpaceOnUse"><stop offset="0" style="stop-color:#8d5738"/><stop offset=".5" style="stop-color:#a56c43"/></linearGradient><path d="m86.9 15 .3 1.6v.3l.2.8v.4a2 2 0 0 0 2.3 1.5q.6 0 1-.7.6.5 1.3.5l1.3-.5.1-.2.1.1q.1.2 1.2.4.9-.2 1.3-.5l.6.6.6.2h.3q.6 0 1.1-.4t.8-1.2V17l.3-1q.1-.8-.4-1.5a2 2 0 0 0-1.6-.8q-.6 0-1 .4h-.1l-.3-.6-.2-.1v-.1H96q-.5-.5-1.1-.5h-.4l-.3.1q-.4 0-.7.4l-.5-.5-.2-.1-.8-.2q-.5 0-1 .3l-.7.8A2 2 0 0 0 89 13a2 2 0 0 0-1.8.7q-.5.8-.3 1.4" style="fill:url(#q)"/><path d="M87 16.1c.4 1 2.3 0 3-.3l.3-1.5q.1.9 1 .7.7-.4 1.5-.3h.4l.2-.6v.1q0 .5.5.9c1 .7 1.4 2 0 3.4q.9.5 1.6 0c.5-.6.7-2.2 1-3.4-.1.9-.4 2.4-.2 3q.3 1.1 1.5 1 1-.2 1.7-2l-.1.8q-.2.8-.8 1.2a2 2 0 0 1-2 .2l-.6-.6s-.6.5-1.2.5q-1.4-.2-1.3-.3h-.2s-2.4.9-2.3 1.8v.3l-.2.8c-.2-.2-.8 0-.9-.4q-.2-2 0-4.1l-2.5.4z" style="fill:#875334"/><linearGradient id="r" x1="39" x2="44.3" y1="18.3" y2="15.7" gradientTransform="matrix(-1 0 0 1 132.12 2)" gradientUnits="userSpaceOnUse"><stop offset="0" style="stop-color:#8d5738"/><stop offset=".5" style="stop-color:#a56c43"/></linearGradient><path d="M86.6 19.4c.5-2.7 3.8-3.8 5-4.3.1 0 2.3-.5 2.6 1.4q0 1.5-1.3 2.2c-2.3.8-2.3 1.3-2.3 1.6 0 .9-.4 2.4-1.2 2.9l-.5.2-.3-.1a4 4 0 0 1-2-4" style="fill:url(#r)"/></svg>