<svg xml:space="preserve" width="16" height="16" viewBox="0 0 128 128"><path d="M109.8 96.9c1.4-.8 3.8-2.3 7.5-2.1 4.8.2 6.6 1.9 7.1 3 .6 1 .4 7.8-.6 9.4l-3.9 6 3.7 2.2q.4.2.4.7l-.1 1.9q-.1.7-.8.6l-3.2-.2v7q-.1.6-.9.4l-5.2-3.7-.2-.4-.2-9.4-2.7-.6s-2.4-14.1-1-14.9" style="fill:#455a64"/><path d="M123.5 98.5q.6-.5.7-1.1c-.7-1-2.6-2.4-7-2.6-3.6-.1-6 1.4-7.4 2q-.3.2-.4.6v.2q.8 1.2 2.3 1t2.9-.4a12 12 0 0 1 4 .4q1.2.4 2.5.6t2.4-.7" style="fill:#546e7a"/><path d="m65.2 58.2-.4 7.7m6.8-7.3-.5 7.4m-13.5-.2.2-4.7c.1-1.9 1.4-3.3 2.8-3.2l19.5 1.3" style="fill:none;stroke:#94d1e0;stroke-width:2;stroke-linecap:round;stroke-miterlimit:10"/><path d="m42.6 86.4 27.9 2.9V65.9h-14z" style="fill:#c9e3e6"/><path d="M92.6 73s3.2 0 5.1-1.3 1.6-3.6 1-3.6l-28.2-2.2-11.6 19-15.2-.1-1.1 1.6 57 7.5z" style="fill:#94d1e0"/><path d="M56.5 69.3h8.3l-7.2 12.1h-8.4z" style="fill:#82aec0"/><path d="m78.2 71-5-.4q-1 0-1.7 1l-4.9 9a1 1 0 0 0 1.1 1.5l10.4-1.7zm2 .2v8.9l7.9-1.3a2 2 0 0 0 1.7-2V72z" style="fill:#2f7889"/><path d="M36 80 4.7 76.4m2.3.5a18 18 0 0 0 .5 7.7m24.3-5.1a15 15 0 0 0 1 6.9m-13.1-8.3c0 2 .3 4.8 1.3 7.1" style="fill:none;stroke:#94d1e0;stroke-width:2;stroke-linecap:round;stroke-miterlimit:10"/><path d="M112.3 109.4 110 94q0-.3-.4-.4c-67.8-10.1-103-9.8-103-9.8q-.7.1-.6 1a71 71 0 0 0 12.8 20c10 11.6 17.6 14 32.8 15.2l56.2-.2 3.5-3.8h2.9q2-.2 2.2-2.8v-.6c.2-1.6-.8-3-2-3z" style="fill:#c9e3e6"/><path d="M44 114.2c-12.3-1-17.1-1.6-17.1-1.6 5.8 5.3 13.6 7.4 24.7 7.4l56.2-.2 1.2-1.3.8-1.2c-2.2-.9-54.6-2-65.8-3" style="fill:#82aec0"/><path d="M110.7 98.3C57.6 92 9.1 91.4 9.1 91.4l-2.4-4.7s49.8 2.1 103.7 9.2z" style="fill:#1565c0"/><path d="M111.3 102.8c-46-5.2-97.4-4.4-97.4-4.4L10.6 94s41.8.9 100.4 6.3z" style="fill:#f44336"/></svg>