<svg xml:space="preserve" width="16" height="16" viewBox="0 0 128 128"><radialGradient id="a" cx="63.6" cy="1104.9" r="57" gradientTransform="translate(0 -1042)" gradientUnits="userSpaceOnUse"><stop offset=".5" style="stop-color:#fde030"/><stop offset=".9" style="stop-color:#f7c02b"/><stop offset="1" style="stop-color:#f4a223"/></radialGradient><path d="M63.6 118.8c-27.9 0-58-17.5-58-55.9S35.7 7 63.6 7c15.5 0 29.8 5.1 40.4 14.4 11.5 10.2 17.6 24.6 17.6 41.5s-6.1 31.2-17.6 41.4a61 61 0 0 1-40.4 14.5" style="fill:url(#a)"/><path d="M111.5 29.7a57 57 0 0 1 8.1 30.2c0 16.9-6.1 31.2-17.6 41.4a61 61 0 0 1-40.4 14.5 59 59 0 0 1-48.2-23 58 58 0 0 0 50.2 26c15.4 0 29.8-5.2 40.4-14.5a54 54 0 0 0 17.6-41.4q-.1-19.2-10.1-33.2" style="fill:#eb8f00"/><path d="M64 101a20 20 0 0 1-16.5-9.8 5 5 0 0 1-.3-3.9A2 2 0 0 1 49 86q.5 0 .8.2c4.3 1.6 8 4.1 14.3 4.1s10-2.4 14.2-4.1l.8-.2a2 2 0 0 1 1.8 1.3q.7 2-.4 4A20 20 0 0 1 64 101M49.5 54.4l-.2.2-.5.5-.7.5a14 14 0 0 1-3.6 2L43 58h-3l-1.5-.4-2.6-1.3-1.7-1.3-.6-.6-.2-.2a3.5 3.5 0 0 0-4.6-.2q-1.5 1.3-.8 3.3l.2.3.4.8a14 14 0 0 0 6.6 5.7q1.5.7 3 1l1.7.3h1.6q1.8 0 3.4-.3a17 17 0 0 0 5.5-2.4 14 14 0 0 0 3.2-3l.5-.8.4-.6.4-.8.1-.2c.6-1.4 0-3-1.5-3.7h-.3q-2-.7-3.6.8m44.9 0-.2.2-.5.5-.7.5a14 14 0 0 1-3.6 2L88 58h-3l-1.5-.4-2.6-1.3-1.7-1.3-.6-.6-.2-.2a3.5 3.5 0 0 0-4.6-.2q-1.5 1.3-.8 3.3l.2.3.4.8a14 14 0 0 0 6.6 5.7q1.5.7 3 1l1.8.3h1.6l3.3-.3a16 16 0 0 0 5.6-2.4 14 14 0 0 0 3.2-3l.5-.8.4-.6.4-.8.1-.2c.6-1.4 0-3-1.5-3.7h-.3a4 4 0 0 0-3.7.8M28.4 43.3q-1.2 1-2.6 0-1-1-.2-2.4 1.7-2.4 4-4.1a21 21 0 0 1 14.8-4.3c2.5.3 2 3.5-.2 3.7q-9.2.8-15.8 7m70.1.1c.7.7 1.9.7 2.6 0q1-1 .2-2.4-1.7-2.4-4-4.1a21 21 0 0 0-14.8-4.3c-2.5.3-2 3.5.2 3.7q9.2.8 15.8 7" style="fill:#422b0d"/></svg>