<svg xml:space="preserve" width="16" height="16" viewBox="0 0 128 128"><path d="M118 102.3 72.3 123a9 9 0 0 1-8.5-.4L6.1 93.3c-1.7-1-2.2-2.6-2-3.7 0-1 .3-2.2 3.2-3l4.3-1.6 57.9 31.5 41.2-16.8z" style="fill:#01579b"/><path d="M71.7 119.7a8 8 0 0 1-7.2-.3L8 91q-1.2-.8-.6-2.2c1.3-2 3.6-8.5-.2-14L71 105.6z" style="fill:#f5f5f5"/><path d="m115.6 100-43.9 19.7a7 7 0 0 1-7.6-.5q4 .2 5.4-2.7c1-1.7.7-4.5-.5-6.1-.7-1-2.5-2.5-3.3-3.3L113 88.5c4.2-1.7 8.1.9 8.8 4 .7 3.6-3.9 6.5-6.3 7.5" style="fill:#94c6d6"/><path d="m117.8 87-45.3 20.2c-2.8 1-6 1-8.8-.4L6 77.4q-1-.4-1.7-2.1c-.6-1.8.1-4 2.2-4.7l62.7 32L112 84.2z" style="fill:#01579b"/><path d="m121.2 89.9-5-1.8-10.1.6-33.6 15q-4.4 1.7-8.8-.4L6 73.9c-1.5-.8-1.2-3 .5-3.3L48 52q1.8-.3 3.5.4L111 80.7s9.4 6.5 10 9.2" style="fill:#0091ea"/><path d="M105.5 89s6.3-2.5 11.2-2.2c5 .2 6.6 3.6 6.6 3.6-.9-4.2-5.3-6.4-5.3-6.4L53 51.3c-.4-.2-2-.6-4.6.5l-8.8 4z" style="fill:#616161"/><path d="M123.6 91.2a7 7 0 0 0-3.7-4.8c-2.9-1.3-6.9-1-9.5.4l-4.9 2.2v3.4l6.2-2.7c6-2.7 8.8 1.3 9 2.2 1 4-1 6.2-6.4 8.7l-9 4v3.5l10.3-4.6c4.6-1.8 9.8-5.2 8-12.3" style="fill:#424242"/><path d="M33 90.3 15.7 66.4l2.8-1.2L37.8 92zm22.2 11L52 99l53.4-11v1.8L98 92.5z" style="fill:#01579b"/><path d="m14.8 46.2 67.5-11.3 29.5 32.5c1.5 1.5.7 4.1-1.4 4.6L40.7 86.3z" style="fill:#9ccc65"/><path d="M110.4 69.2 41 83.2l-.2 3.3 69.5-14.3c2-.4 2.7-2.6 1.7-4.2q-.6.9-1.7 1.2m3.7 15.1a2 2 0 0 1-1.2 3l-63.7 12.9a6.5 6.5 0 0 1-8-5.6c-.2-3.3 2-6.3 5.3-7l61.2-13.8z" style="fill:#689f38"/><path d="M55.6 80.1 30.2 43.8l-14.5 3.8c-3.3 3.3-2 8.8-2 8.8s22 35.6 25.5 40.1 8.6 3.9 8.6 3.9l8.6-1.8-.9-16z" style="fill:#616161"/><path d="M55.6 80.3 43.4 83c-3.3.7-4 3.8-4 3.8L10 44.6s-4.2 5-1.4 9.4l30.7 42.5c3.4 4.8 8.6 4 8.6 4l8.6-1.8-.9-15.8z" style="fill:#424242"/><path d="M110.3 83q.4 1.3-.9 1.6L48.5 97.1c-3.8.8-6.5-1.7-6.4-5.2.2-4.4 2.6-6.2 5.9-6.9l61.2-12.5s-2 2.4-.5 6.7z" style="fill:#b9e4ea"/><path d="M45.2 83.7 19.1 46.8" style="fill:none;stroke:#424242;stroke-width:2.071;stroke-miterlimit:10"/><path d="M47.3 68 13.7 51l-1.4 2.7 38.8 19.8z" style="fill:#424242"/><path d="m108.8 64-2.5-2.7-37.8 17.4-21.2-10.5 3.6 5.2 14 7.1L75.5 79z" style="fill:#689f38"/><path d="M118 57.4 72.3 78a9 9 0 0 1-8.5-.3L6.1 48.4c-1.7-1.1-2.2-2.7-2-3.7s.3-2.3 3.2-3.1l2.7-1 59.3 29 48.2-19.8z" style="fill:#c62828"/><path d="M71.7 74.7a8 8 0 0 1-7.2-.2L8 46q-1.2-1-.6-2.3c1.3-2 3.6-8.5-.2-13.9l62.2 31.7z" style="fill:#f5f5f5"/><path d="M115.6 55 71.7 74.7a7 7 0 0 1-7.6-.5q3.9.1 5.4-2.6c1-1.8.6-4.6-.5-6.2-.7-1-2.5-2.5-3.3-3.3L113 43.5c4.2-1.7 8.1.9 8.8 4 .7 3.6-3.9 6.5-6.3 7.5" style="fill:#94c6d6"/><path d="M117.8 42 72.5 62.2c-2.8 1.1-6 1-8.8-.4L6 32.4c-.6-.3-1.5-1-1.8-2.2-.4-1.6.1-3.7 2.3-4.5l53-11.3z" style="fill:#c62828"/><path d="m121.2 45-5-1.9-10.1.6-33.6 15q-4.4 1.7-8.8-.4L6 29c-1.5-.7-1-2.7.5-3.2L48 7q1.8-.2 3.5.4L111 35.8s9.4 6.4 10 9.1" style="fill:#f44336"/><path d="M105.5 44s5.2-1.8 10.2-1.6 7.6 3 7.6 3A10 10 0 0 0 118 39L53 6.3c-.4-.2-2-.6-4.6.5l-8.8 4z" style="fill:#616161"/><path d="M111.5 41.9 45 8.3l2.2-1 67.6 34zm12.1 4.4c-.5-2-1.2-3.7-3.5-4.7-2.8-1.2-5.4-1.4-9.7.2l-4.9 2.2v3.5l6.2-2.8c3.2-1.5 7.8-1.2 9 2.3 1.3 3.8-1 6-6.4 8.6l-9 4v3.5l10.3-4.6c4.6-1.8 9.8-5.2 8-12.2" style="fill:#424242"/></svg>