<svg xml:space="preserve" width="16" height="16" viewBox="0 0 128 128"><path d="M63.8 20a36.3 36.3 0 0 0-39.3 30.2c-.5 6.6-3.3 30.6 10.4 46.7 7 8.4 18.4 12.5 30.4 12.2 12-.2 23-2.7 30.4-12.4 12.4-16.3 11-40.7 9.4-48.6-1.6-7.3-7.7-27.3-41.3-28.1" style="fill:#ffeac8"/><path d="M96.8 64.4c1 7.8-2.3 15.3-11.3 15.8-8.1.5-13.2-4.7-13.6-12.4S76 52.7 82.6 52c7.3-.8 13.2 4.7 14.2 12.5M18.9 26.7s-9.8 3.9-12.2 9.6c-3.2 7.7-1.7 23 0 28.9S12.9 77 19.8 76.8s13-7.2 15.2-16.4 2.7-25 3.3-27.8 1.8-5 1.8-5-8.6-8.4-21.2-.9m82.3-1.2s13.3.5 16.5 1.9 6.1 7.8 5.8 16.3-.8 22.4-5.1 27.1c-3.6 4-10.8 4.3-14.8-.6S97 57 96 51.7a136 136 0 0 0-3.5-15.4 48 48 0 0 0-4.9-10.7c-1.3-1.4 1.3-2.7 13.6-.1" style="fill:#d27856"/><path d="M30 22.3c-7.3-.5-19.2 5.3-21.6 11.2s-1 25 1 30.7c2.2 5.9 6.7 13.3 14.5 7s9.8-22.5 10.6-27.7 1.8-11.4 2.9-12.7l2.7-3.2S39 22.9 30 22.3m72.8-1.3c6.8.6 14.2 3 16.9 9s1.7 20 .6 26.6-3.4 13.6-9.5 12.8-9.2-9-11-16.8c-2-7.8-4-15.6-6.4-21.2-1.5-3.4-6.6-5.9-6.6-5.9s2.3-5.4 16-4.4" style="fill:#865b51"/><path d="M50.5 67.7c-.4 3.4-2.2 6.2-6 5.8-2.7-.3-4.5-3.6-4.1-7s1.6-5.9 4.8-5.8c5 0 5.7 3.6 5.3 7m39.2-1c.2 3.5-1.2 6.4-5.1 6.7-3.5.3-5.3-2.7-5.4-6.2-.2-3.4 1.5-6.2 4.8-6.6 4.3-.5 5.6 2.7 5.7 6.1M75.1 84c.2 3.5-2.1 6.7-9.4 6.6-7 0-9.6-2.9-9.7-6.3-.2-3.5 3.8-6.6 9.5-6.7 8-.2 9.5 3 9.6 6.5" style="fill:#2f2f2f"/><path d="M59.2 98s.8 8.1 1.6 10.6c1.8 5.1 9.3 4.3 10.7-.6 1-4.1.3-11.3.3-11.3l-6.6-.9z" style="fill:#e94b8c"/><path d="M66 100.7c-1.2 0-1.2 1.1-1.2 3.6q-.2 3.9 1.3 4c1.1-.1 1-2 1-3.8s0-3.9-1.1-3.8" style="fill:#ef87b2"/><path d="M50.2 90.2c-1.4 2 1.2 3.8 3.4 5.2 2.1 1.5 4.8 3.7 7.9 3.6 3.4 0 4.4-2.4 4.4-2.4s1.1 2.8 6 2.3c2.6-.3 5.9-3.2 6.9-3.9 1.8-1.3 4.1-2.9 3.1-4.2-1.1-1.5-3.5.5-6 1.8-2.4 1.3-3.2 1.9-5 1.9s-3.2-.8-3.3-3.8v-3h-4.2l.2 3.4q0 2.8-3 3c-2 0-4.1-1.6-5.2-2.3-1-.5-4.2-3.2-5.2-1.6" style="fill:#2f2f30"/></svg>