<svg xmlns:xlink="http://www.w3.org/1999/xlink" width="16" height="16" viewBox="0 0 128 128"><path fill="currentColor" stroke="currentColor" stroke-miterlimit="10" stroke-width="2" d="m48.7 31.8-17.3 76.4c5.3 1.5 11 3 16.4 3.6 8 .8 15.8-3.4 23.8-2 5.8 1.1 9.5 2.2 15.3.4q4.8-1.5 9.5-3.7L76 31.8z"/><g fill="currentColor" stroke="currentColor" stroke-miterlimit="10"><path stroke-width="1.4" d="M35.6 14.5 48.2 10l16 23-6.7.5-10-20z"/><path stroke-width="1.2" d="M36.6 21.5 47 17.2l14.3 17.6-5.8 1.3-9.1-15.5zm.2 7.8 7.7-4.9 16 13.1-5.5 2.3L44.3 28z"/><path stroke-width="1.4" d="M92.2 14.5 79.6 10l-16 23 6.7.5 10-20z"/><path stroke-width="1.2" d="m91.2 21.5-10.4-4.3-14.3 17.6 5.8 1.3 9.2-15.5zm-.2 7.8-7.7-4.9-16 13.1 5.5 2.3L83.5 28z"/></g><path fill="currentColor" d="M86.3 53q-1 0-1.8-.8L70.3 38.1c-1-1-1-2.6 0-3.6l2-2q.5-.3 1.8-.4 2.5.1 3.7 1L87.6 47l3.2-4.1q.7-.5 1.6-.5 1.1 0 1.9.8l.2.3c1 1 .8 2.6-.3 3.5l-6.1 5.3q-.7.6-1.7.6zM74.2 32.6c1.3 0 2.7.5 3.2.9l9.4 13.2.8 1.1.8-1 2.7-3.5a2 2 0 0 1 2.8.3l.2.2a2 2 0 0 1-.2 2.8L87.7 52a2 2 0 0 1-1.3.4h-.2a2 2 0 0 1-1.4-.5L70.7 37.7a2 2 0 0 1 0-2.8l2-2q.1-.2 1.5-.3m0-1q-1.5 0-2.3.6l-2 2a3 3 0 0 0 0 4.2l14.2 14.2a3 3 0 0 0 2.1.8h.2a3 3 0 0 0 2-.7l6.2-5.3a3 3 0 0 0 .3-4.2l-.2-.3a3 3 0 0 0-4.2-.3L87.6 46l-9.5-13.3a7 7 0 0 0-4-1.2M83 89.4c-1.6-2.7-9.4-11.8-14.2-17a4.3 4.3 0 0 0-6.2 0L47.2 88.3a66 66 0 0 1-9.8-3 327 327 0 0 1 9.4-16.7L48 67l7.5-11.3q1.7.4 8.2 4 1.2.5 2.4.6c2.2 0 3.8-1.9 4.5-2.9l2.2 2.4a523 523 0 0 0 16.1 22.8c-.7 1-3.4 5-5.7 6.8M55.6 56.3q2 .6 7.8 3.7 1.2.7 2.6.7c2 0 3.6-1.4 4.5-2.5l1.6 1.6c.3 1 8.8 12.8 16 22.8-.8 1.3-3 4.3-5 6a213 213 0 0 0-14-16.5 5 5 0 0 0-6.9 0c-6 6-13 13.3-15.2 15.6-3.2-.6-7.1-2-9-2.7a319 319 0 0 1 10.3-17.8zm-.5-1.1c0 .2-8.6 13-8.7 13.2-4.5 7.3-9.8 17.3-9.8 17.3S43 88 47.4 88.8a616 616 0 0 1 15.6-16q1.1-1.2 2.6-1.2t2.8 1.2c5.5 5.9 14.2 16 14.5 17.3 3-2 6.5-7.5 6.5-7.5s-16-22-16.3-23c0-.2-2.7-2.8-2.7-3 0 0-1.7 3.1-4.4 3.1q-1 0-2.1-.5C58.4 56 55.1 55 55.1 55M66 63.9q-1.4 0-2.5-1l-7-6.8q-1-1-1.2-2.3-.3-2.2-1.4-6.9c-1.4-5.2-3.1-9.7-4.2-12.7l-1-2.6q-1-3.4.2-5.2 1.3-1.7 5.1-1.7c4.6 0 10.2 2 10.2 2l3.6 1.1c5.5 1.8 11.8 3.7 11 10v.7A491 491 0 0 0 73 57.8q-.3 1-1 1.8l-3.2 3.2q-1.2 1-2.7 1M54 25.2c4.5 0 10 2 10 2l3.6 1.1c5.6 1.8 11.5 3.6 10.8 9.5l-.1.6a488 488 0 0 0-5.8 19.2q-.3 1-.9 1.6l-3.2 3.2a3 3 0 0 1-4.6 0l-7-6.7q-1-.8-1-2a49 49 0 0 0-1.4-6.9 138 138 0 0 0-5.2-15.3q-1-3.3 0-4.8 1.2-1.5 4.8-1.5m0-1c-4.2 0-7.7 1.6-5.7 7.6.6 2 3.2 8.1 5.1 15.3q1.1 4.6 1.4 6.8 0 1.5 1.2 2.5l7.1 6.8a4 4 0 0 0 6 0l3.2-3.3q.9-.8 1.2-2a498 498 0 0 1 5.9-20c1-8.1-9-9.4-15-11.7 0 0-5.7-2-10.4-2m18-1.5q-.4-1.2 1-2.3c.8-.9 2.4-4.3 1-7.1l-5.6.1-4.5-.1-4.5-.2-5.6-.5c-1.6 2.8-.2 6.3.6 7.2q1.3 1.2.8 2.4-.5.7-1 .7l.3.3q.7.4 1.2.4.3 0 .5.3c1.4 1.6 2.3 2 7.3 2.1s6-.1 7.4-1.7l.5-.2q.5 0 1.2-.3.3 0 .3-.3-.4 0-.9-.8"/><path fill="none" stroke="currentColor" stroke-miterlimit="10" d="M72 22.7q-.4-1.2 1-2.3c.8-.9 2.6-4 .7-7.4l-19.9-.1a6 6 0 0 0 .6 7q1.3 1.2.8 2.3-.5.7-1 .7l.3.3q.7.4 1.2.4.3 0 .5.3c1.3 1.6 2.3 2 7.3 2.1s6-.1 7.4-1.7l.5-.2q.5 0 1.2-.3.3 0 .3-.3-.4 0-.9-.8z"/><path fill="currentColor" d="M64 30.5a2.6 2.6 0 0 1-2.6-2.6v-3.2h5.7V28c0 1.4-1.1 2.6-2.5 2.6zm2.8-5.5v3c0 1.1-1 2.1-2.2 2.1H64c-1.2 0-2.2-1-2.2-2.2v-2.8zm.7-.7h-6.4v3.5a3 3 0 0 0 2.9 3h.6a3 3 0 0 0 3-3zm-10.7-3.8c-1.4 0-2.6-1.3-2.6-2.8s1.1-2.7 2.5-2.7H71c1.4 0 2.6 1.2 2.6 2.7s-1.2 2.8-2.6 2.8zM71 15.3q2.1.2 2.3 2.4c.2 2.2-1 2.5-2.3 2.5H56.7q-2-.2-2.2-2.5c-.2-2.3 1-2.4 2.2-2.4zm0-.6H56.7c-1.5 0-2.8 1.4-2.8 3s1.3 3 2.9 3H71c1.6 0 2.8-1.3 2.8-3s-1.2-3-2.8-3m-7.1 11.8c-4.1 0-8.5-3.2-8.5-10.2 0-5.5 3.2-11.6 8.5-11.6s8.5 6 8.5 11.6c0 7-4.4 10.2-8.5 10.2m0-21.5c5 0 8.2 5.9 8.2 11.3 0 4.8-2.6 10-8.2 10-5.7 0-8.2-5.2-8.2-10C55.7 11 58.8 5 63.9 5m0-.5c-4.6 0-8.8 4.8-8.8 11.8s4.4 10.4 8.8 10.4 8.8-3.4 8.8-10.4-4.3-11.8-8.8-11.8m-1.2 15.2c0 .2 1.2 1.2 1.2 1.2l1.2-1.2c0-.2-2.5-.2-2.4 0m6.1 1a10 10 0 0 1-9.9 0c-.2-.1 1.1 3.5 5 3.5 3.8 0 5.2-3.6 5-3.5M60.5 4.3c-3.1 1.1-3.5-.8-3.5-.8-1.6.9-.5 2.7-.5 2.7s-1.7-.1-2.4 1.4 0 2.7 0 2.7-1.6 1-1 3C53.7 14.5 55 15 55 15c0 2.7.8 4 .8 4l.5-5.2c.3-2 .6-3.1 2.6-3.9 1.6-.6 5.2 1.2 5.2 1.2s1.8-1.4 3.5-1.6 3.5.1 4 3.6c.3 1.4.4 5.4.4 5.4 0-.2.9-1.7 1-3.2 0-.6.9-2 1.1-3a6 6 0 0 0-.6-4.5c-.7-1-2.2-2.2-3.4-2 0-1.2-1-2.3-2-2.7-3.3-1-6.6.8-7.5 1.2"/><defs><path id="a" d="m55.5 2-3 5.4-.3 6.5 1.4.8.8-2 12-6 5.6 3.6 1.6 3.5 1.4-1.3-.8-11z"/></defs><clipPath id="b"><use xlink:href="#a"/></clipPath><g clip-path="url(#b)"><path fill="none" stroke="currentColor" stroke-miterlimit="10" d="M60.5 4.3c-3.1 1.1-3.5-.8-3.5-.8-1.6.9-.5 2.7-.5 2.7s-1.7-.1-2.4 1.4 0 2.7 0 2.7-1.6 1-1 3C53.7 14.5 55 15 55 15c0 2.7.8 4 .8 4s1-4.7.8-5.4c0 0 2-.4 4.2-1.8 1.5-.9 2.5-2 4.2-2.3 2.5-.7 3.1 1.2 3.1 1.2s2.4-.5 3.2 2.8c.3 1.3.5 3.6.7 5 0-.2.9-1.7 1-3.2 0-.6.9-2 1.1-3a6 6 0 0 0-.6-4.5c-.7-1-2.2-2.2-3.4-2 0-1.2-1-2.3-2-2.7-3.3-1-6.6.8-7.5 1.2z"/></g><path d="M62.4 16.5h-.7l-.4-.1-.3-.1-.6-.2-.7-.2-2.3-1.1-.5-.4V14l.3-.6.1-.2.1-.3.3-.5.4-.6L58 13l-.2 1.1 1.1.5 1.2.6 1.2.6 1.1.6"/><path fill="currentColor" d="m60.5 18-1.3-.3c-1.1-.5-2-1.5-2-1.5l-.3-.4.5-.1h.9q.9 0 1.6.2 1.2.3 1.7 1v.6q-.1.5-1 .5"/><path d="m58.3 16 1.5.1q1.6.5 1.6 1.2 0 .4-.9.4l-1.1-.2c-1.1-.6-2-1.5-2-1.5zm0-.6h-1l-1 .1.7.8s1 1.1 2.1 1.7l1.4.3q1.2 0 1.4-.8.4-1-2-2zm7.1 1.1h.7l.3-.1.4-.1.6-.2.6-.2q1.4-.5 2.4-1.1l.5-.4-.1-.4-.2-.6-.1-.2-.2-.3-.2-.5-.4-.6.1 1.2.2 1.1-1.1.5-1.2.6-1.2.6z"/><path fill="currentColor" d="M67.2 18q-1 0-1.1-.6V17c.3-.5 1.4-1 1.8-1q.7-.3 1.6-.3h.8l.6.1-.4.4s-.8 1-2 1.6q-.6.3-1.3.3"/><path d="M69.5 16h.8s-.8 1-1.9 1.4l-1.2.3q-.7 0-.8-.3-.1-.8 1.6-1.3zm0-.5q-1 0-1.7.2-2.3.8-2 2 .3.6 1.4.7l1.5-.3c1.2-.6 2-1.6 2-1.7l.7-.8-1-.1z"/><path fill="currentColor" d="m62.8 16.4-.5-.2c.5-.9.1-2.4.1-2.5l.5-.1s.5 1.8-.1 2.8m2.2 0c-.7-1-.2-2.7-.2-2.8l.5.1s-.4 1.6.1 2.5zm-.8 20 1.7-4 2.3 3.9-1.6 6.6z"/><path d="m66 33.2 1.8 3.1-1.3 5.5-2-5.4zm0-1.5-.6 1.2-1.3 3.2-.1.3v.2l2 5.4.7 2 .5-2 1.3-5.5V36l-2-3.2z"/><path fill="currentColor" d="M33.4 40c-1.6 0-3.2-1-3.8-2.6l-4-10.6a2 2 0 0 1 1-2.6l2.8-1.1.7-.2a2 2 0 0 1 2 1.3l2.7 7.3L51 27.2l1-.1a4 4 0 0 1 1 7.8l-18 4.8zm-3.3-16.7q1.1 0 1.5 1l2.7 7 .3.7.7-.2L51 27.6l1-.1a3.6 3.6 0 0 1 .8 7l-18 4.8h-.1q-.6.3-1.3.3-2.4-.1-3.4-2.4l-4.2-10.6c-.3-.8.1-1.8 1-2l2.7-1.1zm0-.7-.8.1-2.8 1a2.4 2.4 0 0 0-1.4 3.2l4.2 10.6a4.5 4.5 0 0 0 5.7 2.6l18-4.8a4.4 4.4 0 0 0-2.2-8.5L35.1 31l-2.7-7q-.7-1.4-2.3-1.4m10.8 100.6c-6 0-9-1.2-10.7-2.2l-.2-.5q-.1-.3.4-.4c17.7-3.8 18.3-5.2 18.5-5.7q.1-.5 0-.8A620 620 0 0 1 33 84.9l.4-.2h.2l13.1 3.8q.3 0 .4.3l9.6 31q0 .5-.2.8c-.9 1.3-4.5 1.7-6.4 1.9h-1q-4.5.7-8.2.7"/><path d="M33.7 85.4 46.5 89l9.5 31v.3c-.8 1-4.5 1.4-6 1.5l-1.2.2q-4.5.6-8 .6a20 20 0 0 1-10-2c17.7-3.7 18.3-5.2 18.6-6q.3-.7-.1-1.4c-3.8-6-12.2-21.2-15.7-27.8m-.3-1.4c-.8 0-1.4 1-1 1.7 3.3 6.1 12 22 16 28.2.8 1.4-12.8 4.4-18.1 5.5-1 .3-1.3 1.6-.4 2.1 1.7 1.1 5 2.3 11 2.3q3.4 0 8.2-.6c2.3-.3 8.9-.5 8.2-3.6l-9.6-31q-.2-.5-.8-.7l-13-3.9z"/><path fill="currentColor" d="M101.4 118.5H99c-6.9-.4-9-2-9.6-3.2l-8.5-24v-.2l8.9-10h.2q.3 0 .3.3c.8 6.5 2.6 22.4 3.4 28.1.1.6.3 1.7 15.4 7.6q.3.1.3.4l-.3.3q-2.7.6-7.7.7"/><path d="M89.9 81.9c.7 6.8 2.5 22 3.3 27.7.1.8.3 2 15 7.8a39 39 0 0 1-9.2.5c-7-.4-8.7-2-9-2.8l-8.6-23.8zm.2-1.4q-.4 0-.7.3l-8.8 9.9q-.3.4-.2.9l8.6 24c1.4 2.9 8 3.3 10 3.4a39 39 0 0 0 10.3-.7c.8-.2 1-1.4.1-1.7a63 63 0 0 1-15-7.1c-.9-6-2.8-22.5-3.4-28.2q-.2-.8-.9-.8"/><path fill="currentColor" stroke="currentColor" stroke-linecap="round" stroke-linejoin="round" stroke-miterlimit="10" d="M34.1 9.1q.7.6 1.4 0 .4-.7 0-1.3l-1.3-1.6c-1.3-1.6-2.6-.8-2.6-.8v-.5a1 1 0 0 0-1.2-.5s-1.6.2-1.7 0a1 1 0 0 0-1.3 0l-2.2 1.8a23 23 0 0 0-2.7 8c-.7 6 .7 13.9 4.1 21 0 0 1.4-3.7 3-5.5a8 8 0 0 1 5.3-2.4s-.5-2.4-4.3-8.1c-1.7-2.5-2.2-4-2.1-5.4h2.8a1 1 0 1 0 0-1.9h-1.6c-2.1-1.2 0-3.1 1.1-3.9.7-.5 1.4-.2 1.4-.2zm69.7 15.6L101 22c-1-.5-.8-.6-1.4 0-1.2 1 1.2 2.5 1.2 2.5L97.9 23a1 1 0 0 0-1.2.2h0q-.4.7.1 1.2l1.9 1.3-2.9-.8a1 1 0 0 0-1 .5h0q-.3.9.5 1.1l1.8.6q0 0 0 0l.7 1.8c.4 1 .4 2.4-.8 2.5h-1.3c-.8-.1-2.3 1.4 0 1.8l3.3.5c-.2 1.4-1.1 2.8-4.2 4.8-5.5 3.4-7 5.3-7 5.3 1.7.7 2.9 2.4 3.3 3.8.7 2-.2 6.6-.2 6.6 5.8-4.7 10.2-13 11.9-17.6v0c1.2-3.5.7-7.5.8-8 0 0 .4-3.6.2-4"/></svg>