<svg xml:space="preserve" width="16" height="16" viewBox="0 0 128 128"><path d="M64.6 4.1c-41 0-40.7 38-40.7 38.5 0 24.6 1.9 59.3 11.7 73 3.9 5.3 11.4 5.6 11.4 5.6h34s7.5-.3 11.4-5.7C102.2 102 104 67.2 104 42.6c0-.6 1.5-38.5-39.5-38.5" style="fill:#232020"/><radialGradient id="a" cx="64" cy="68.3" r="47.5" gradientTransform="matrix(1 0 0 -1.19 0 140.99)" gradientUnits="userSpaceOnUse"><stop offset=".8" style="stop-color:#444140;stop-opacity:0"/><stop offset="1" style="stop-color:#444140"/></radialGradient><path d="M64.6 4.1c-41 0-40.7 38-40.7 38.5 0 24.6 1.9 59.3 11.7 73 3.9 5.3 11.4 5.6 11.4 5.6h34s7.5-.3 11.4-5.7C102.2 102 104 67.2 104 42.6c0-.6 1.5-38.5-39.5-38.5" style="fill:url(#a)"/><path d="M64 16c-17.2 0-33.1 12.8-33.1 40A40 40 0 0 0 56 94.8a24 24 0 0 0 7.9 1.5q3.6 0 7.8-1.5A40 40 0 0 0 97.1 56c0-27.2-15.9-40-33.1-40" style="fill:#70534a"/><path d="M67.8 68h-7.6q-1.1.5-.7 1.7c.4 1.2 1.7 2.6 4.5 2.6a5 5 0 0 0 4.5-2.6q.4-1.2-.7-1.7" style="fill:#33251f"/><ellipse cx="47.8" cy="58.9" rx="4.9" ry="5" style="fill:#1a1717"/><ellipse cx="80.3" cy="58.9" rx="4.9" ry="5" style="fill:#1a1717"/><path d="M55 49.8c-1-1.2-3-3-7.3-3s-6.3 1.8-7.2 3q-.5 1 0 1.6t1.9.4c1.4-.2 2.5-1.2 5.3-1.2 2.9 0 4.5.9 5.4 1.2s1.6 0 1.9-.4q.5-.6 0-1.6m32.5 0c-1-1.2-3-3-7.2-3s-6.4 1.8-7.3 3q-.5 1 0 1.6t1.9.4c1.4-.2 2.5-1.2 5.4-1.2 2.8 0 4.4.9 5.3 1.2s1.6 0 1.9-.4q.5-.6 0-1.6M70.4 83.3c0 3.1-2.9 3.8-6.4 3.8s-6.4-.7-6.4-3.8c0-3.3 2.9-5.3 6.4-5.3s6.3 2 6.3 5.3" style="fill:#1a1717"/><radialGradient id="b" cx="99.6" cy="45.9" r="23.4" gradientTransform="matrix(1 0 0 .491 -21.03 59.48)" gradientUnits="userSpaceOnUse"><stop offset=".7" style="stop-color:#444140;stop-opacity:0"/><stop offset="1" style="stop-color:#444140"/></radialGradient><path d="M64 95.7v-9.5L92.6 84l2.6 3.2s-6.2 8.5-22.3 8.5z" style="fill:url(#b)"/><radialGradient id="c" cx="76.6" cy="49.4" r="6.9" gradientTransform="rotate(155 84.45 60.4)scale(1 .742)" gradientUnits="userSpaceOnUse"><stop offset=".7" style="stop-color:#444140"/><stop offset="1" style="stop-color:#444140;stop-opacity:0"/></radialGradient><path d="M95.1 83c-4.3-6.4 5.2-8.9 5.2-8.9-1.6 2-2.4 3.9-1.4 5.7 1.2 2.2 4.8 2.5 4.8 2.5s-4.9 4.3-8.6.8" style="fill:url(#c)"/><radialGradient id="d" cx="49.5" cy="45.9" r="23.4" gradientTransform="matrix(-1 0 0 .491 98.9 59.48)" gradientUnits="userSpaceOnUse"><stop offset=".7" style="stop-color:#444140;stop-opacity:0"/><stop offset="1" style="stop-color:#444140"/></radialGradient><path d="M64 95.7v-9.5L35.5 84l-2.6 3.2S39 95.7 55 95.7z" style="fill:url(#d)"/><radialGradient id="e" cx="26.4" cy="49.4" r="6.9" gradientTransform="rotate(205 4.66 51.75)scale(-1 .742)" gradientUnits="userSpaceOnUse"><stop offset=".7" style="stop-color:#444140"/><stop offset="1" style="stop-color:#444140;stop-opacity:0"/></radialGradient><path d="M33 83c4.2-6.4-5.3-8.9-5.3-8.9q2.7 3 1.4 5.7c-1.2 2.2-4.8 2.5-4.8 2.5s5 4.3 8.6.8" style="fill:url(#e)"/><path d="M108 123.9c0-17.6-22-26.6-44-26.6-21.9 0-43.9 8-43.9 26.6z" style="fill:#651fff"/><g style="opacity:.4"><linearGradient id="f" x1="64" x2="64" y1="15.8" y2="4.6" gradientTransform="matrix(1 0 0 -1 0 128)" gradientUnits="userSpaceOnUse"><stop offset=".3" style="stop-color:#212121"/><stop offset="1" style="stop-color:#212121;stop-opacity:0"/></linearGradient><path d="M108 123.4c-1.2-14-22-24-44-24-21.9 0-40.7 8-43.9 24z" style="fill:url(#f)"/></g><path d="M64.6 4.1c-41 0-40.7 38-40.7 38.5 0 7.8.2 16.6.7 25.3h6.8c-.1-2.9 2-21 8-22.3 22.4-5 35-17 35-17C77.7 36 88 43 91.7 45.7c3 2.1 4 18.5 4 22.3h7.6v-.1c.6-8.8.8-17.5.8-25.2 0-.6 1.5-38.5-39.5-38.5" style="fill:#232020"/><radialGradient id="g" cx="64.3" cy="64.3" r="49.8" gradientTransform="matrix(1 0 0 -1.214 0 141.73)" gradientUnits="userSpaceOnUse"><stop offset=".8" style="stop-color:#444140;stop-opacity:0"/><stop offset="1" style="stop-color:#444140"/></radialGradient><path d="M64.6 4.1c-41 0-40.7 38-40.7 38.5 0 7.8.2 16.6.7 25.3h6.8c-.1-2.9 2-21 8-22.3 22.4-5 35-17 35-17C77.7 36 88 43 91.7 45.7c3 2.1 4 18.5 4 22.3h7.6v-.1c.6-8.8.8-17.5.8-25.2 0-.6 1.5-38.5-39.5-38.5" style="fill:url(#g)"/><path d="m21.9 82-12-5.1a3.3 3.3 0 0 1-1.6-4.3v-.2a3.3 3.3 0 0 1 4.3-1.7l12 5c1.6.7-1 7-2.7 6.2" style="fill:#4a2f27"/><linearGradient id="h" x1="210.8" x2="236.8" y1="58.6" y2="58.6" gradientTransform="matrix(1 0 0 -1 -206.48 128)" gradientUnits="userSpaceOnUse"><stop offset=".6" style="stop-color:#70534a"/><stop offset="1" style="stop-color:#5c4037"/></linearGradient><path d="M39 76.1s-18-11.3-22.3-15c-2.7-2.3-5.5-6.1-7-8-1.4-1.6-5.1.3-5.4 2.4q-.3 2 1.2 4.6s6.7 16 14.7 21.4l11 4.8z" style="fill:url(#h)"/><linearGradient id="i" x1="105.8" x2="62.3" y1="6.2" y2="32.1" gradientTransform="matrix(1 0 0 -1 0 128)" gradientUnits="userSpaceOnUse"><stop offset="0" style="stop-color:#651fff"/><stop offset=".7" style="stop-color:#5914f2"/><stop offset="1" style="stop-color:#530eeb"/></linearGradient><path d="M102.3 104.2 36.3 73a2 2 0 0 0-2.2.7l-6.5 11.4c-.5.8-.3 1.9.5 2.4L83.3 124h32.5c-1-8.3-6-15.7-13.5-19.7" style="fill:url(#i)"/><linearGradient id="j" x1="58.7" x2="72.2" y1="43.1" y2="19" gradientTransform="matrix(1 0 0 -1 0 128)" gradientUnits="userSpaceOnUse"><stop offset="0" style="stop-color:#212121;stop-opacity:0"/><stop offset=".5" style="stop-color:#212121"/><stop offset="1" style="stop-color:#212121;stop-opacity:0"/></linearGradient><path d="M91.5 99.2 69 114.5 39.7 95.1l20.7-10.7z" style="fill:url(#j)"/><path d="m106.3 82 12-5.1a3.3 3.3 0 0 0 1.6-4.3v-.2a3.3 3.3 0 0 0-4.3-1.7l-12 5c-1.6.7 1 7 2.7 6.2" style="fill:#4a2f27"/><linearGradient id="k" x1="460.2" x2="485.6" y1="58.6" y2="58.6" gradientTransform="matrix(-1 0 0 -1 581.82 128)" gradientUnits="userSpaceOnUse"><stop offset=".6" style="stop-color:#70534a"/><stop offset="1" style="stop-color:#5c4037"/></linearGradient><path d="M89.1 76.1s18-11.3 22.5-15c2.6-2.3 5.4-6.1 7-8 1.3-1.6 5 .3 5.3 2.4q.3 2-1.2 4.6s-6.7 16-14.7 21.4l-11 4.8z" style="fill:url(#k)"/><linearGradient id="l" x1="19.4" x2="63.3" y1="4.8" y2="30.3" gradientTransform="matrix(1 0 0 -1 0 128)" gradientUnits="userSpaceOnUse"><stop offset="0" style="stop-color:#651fff"/><stop offset=".7" style="stop-color:#5914f2"/><stop offset="1" style="stop-color:#530eeb"/></linearGradient><path d="M100.5 85 94 73.8q-.7-.9-1.6-.9l-.8.2-65.9 31.2A26 26 0 0 0 12.3 124h32.4L100 87.5c.8-.5 1-1.6.6-2.4" style="fill:url(#l)"/></svg>