<svg xmlns:xlink="http://www.w3.org/1999/xlink" xml:space="preserve" width="16" height="16" viewBox="0 0 128 128"><radialGradient id="a" cx="63.6" cy="7861.4" r="57" gradientTransform="translate(0 -7798.45)" gradientUnits="userSpaceOnUse"><stop offset=".5" style="stop-color:#fde030"/><stop offset=".9" style="stop-color:#f7c02b"/><stop offset="1" style="stop-color:#f4a223"/></radialGradient><path d="M63.6 118.8c-27.9 0-58-17.5-58-55.9S35.7 7 63.6 7c15.5 0 29.8 5.1 40.4 14.4 11.5 10.2 17.6 24.6 17.6 41.5s-6.1 31.2-17.6 41.4a61 61 0 0 1-40.4 14.5" style="fill:url(#a)"/><path d="M43 47.7a17.4 17.4 0 1 1-.1 34.7 17.4 17.4 0 0 1 .1-34.7" style="fill:#fff"/><circle cx="42.7" cy="62.8" r="15.4" style="fill:#422b0d"/><ellipse cx="48.1" cy="68.6" rx="2.6" ry="2.4" style="fill:#fff" transform="rotate(-40 48.13 68.62)"/><ellipse cx="38.7" cy="58" rx="9" ry="7.3" style="fill:#fff" transform="rotate(-36.7 38.7 58)"/><path d="M86 47.7a17.4 17.4 0 1 1-.1 34.7 17.4 17.4 0 0 1 .1-34.7" style="fill:#fff"/><circle cx="85.7" cy="62.8" r="15.4" style="fill:#422b0d"/><ellipse cx="91.2" cy="68.6" rx="2.6" ry="2.4" style="fill:#fff" transform="rotate(-40 91.2 68.56)"/><ellipse cx="81.7" cy="58" rx="9" ry="7.3" style="fill:#fff" transform="rotate(-36.7 81.7 58.02)"/><path d="M43 47.7a17.4 17.4 0 1 0 .1 34.7 17.4 17.4 0 0 0-.1-34.7" style="fill:none"/><circle cx="43.3" cy="62.8" r="15.4" style="fill:none"/><ellipse cx="37.8" cy="68.6" rx="2.4" ry="2.6" style="fill:none" transform="rotate(-50 37.79 68.56)"/><ellipse cx="47.3" cy="58" rx="7.3" ry="9" style="fill:none" transform="rotate(-53.3 47.3 58.01)"/><defs><path id="b" d="M86 47.7a17.4 17.4 0 1 0 .1 34.7 17.4 17.4 0 0 0-.1-34.7"/></defs><clipPath id="c"><use xlink:href="#b" style="overflow:visible"/></clipPath><g style="clip-path:url(#c)"><path d="M102.4 68.5a6 6 0 0 0-5.8 2.2 5 5 0 0 1-4 2h-.3a6 6 0 0 0-3.1.8q-2.5 1.4-4.9 0a6 6 0 0 0-3.1-.9h-.7q-2.7.4-4.5-1.8a6 6 0 0 0-4.9-2.4 6 6 0 0 0-6 6 6 6 0 0 0 6.9 6c1.6-.3 3.3.4 4.3 1.7a6 6 0 0 0 8.2 1.6q2.3-1.2 4.6 0a6 6 0 0 0 8-1.4q1.4-2 3.9-1.9h.4a6 6 0 0 0 1-12" style="fill:#29b6f6"/></g><defs><path id="d" d="M43 47.7a17.4 17.4 0 1 0 .1 34.7 17.4 17.4 0 0 0-.1-34.7"/></defs><clipPath id="e"><use xlink:href="#d" style="overflow:visible"/></clipPath><g style="clip-path:url(#e)"><path d="M59.9 68.5a6 6 0 0 0-5.7 2.2 5 5 0 0 1-4.1 2h-.3q-1.7 0-3 .8-2.5 1.4-5 0-1.4-.9-3-.9H38q-2.7.4-4.5-1.8a6 6 0 0 0-4.9-2.4 6 6 0 0 0 0 12h1q2.6-.3 4.2 1.7a6 6 0 0 0 8.2 1.7q2.3-1.5 4.6 0a6 6 0 0 0 8-1.4q1.5-2 4-2h.3a6 6 0 1 0 1-12" style="fill:#29b6f6"/></g><path d="M27.4 39.8c-2.2.4-2.3 3.6.1 3.7a21 21 0 0 0 18-10 1.8 1.8 0 1 0-3-2.1l-.1.1a26 26 0 0 1-15 8.3m57.1-8.4a1.8 1.8 0 1 0-3 2.1q1.5 2.6 3.7 4.5a21 21 0 0 0 14.3 5.5c2.5-.1 2.3-3.3.1-3.7q-9-1.6-15.1-8.4" style="fill:#422b0d"/><path d="M111.5 29.7a57 57 0 0 1 8.1 30.2c0 16.9-6.1 31.2-17.6 41.4a61 61 0 0 1-40.4 14.5 59 59 0 0 1-48.2-23 58 58 0 0 0 50.2 26c15.4 0 29.8-5.2 40.4-14.5a54 54 0 0 0 17.6-41.4q-.1-19.2-10.1-33.2" style="fill:#eb8f00"/><path d="M64 103.2c10.8 0 17.8-7.9 19.7-11.6q1-2.2.1-3.1a2 2 0 0 0-2.1 0l-.9.5A29 29 0 0 1 64 94.5a30 30 0 0 1-17.7-5.9 2 2 0 0 0-2.1 0q-1 1 .1 3.1A24 24 0 0 0 64 103.2" style="fill:#422b0d"/></svg>