<svg xml:space="preserve" width="16" height="16" viewBox="0 0 128 128"><path d="M77.5 31.3c0 1.2-2.5 1.4-2.7 1.6q-.4.4-.7 1.2l-.5 1.3c-.7 1.6-2.2 3.1-6 2.7l-3.5-.5c-1.6-.2-2.8 2.2-2.8 2.2s-2.7 5.7-6.8 3.6c-4.6-2.5-4.3-4-4.3-4s4.4-6 3-10.8C52 24 52.9 14.8 55 12.4c3.6-3.7 10.1-5.9 15-4.1 5.3 2 7.5 6.5 7.4 11.7a14 14 0 0 1-1 5c-.1.1-.7 1.2-.7 1.5-.5 1.4 1.9 3.2 1.9 4.8" style="fill:#f9ddbd"/><path d="m74.1 34.1-.5 1.3q-1.5 0-2.4-1.1c-.7-.8 0-1.4.8-.8q.9.5 2.1.6" style="fill:#444"/><ellipse cx="71.4" cy="26.5" rx="1.9" ry="1.2" style="fill:#312d2d" transform="rotate(-77.3 71.4 26.51)"/><path d="M72.8 24c1.2.5 1.5-.2 1.2-1q-.2-.8-2.2-.8c-1.4 0-2 .7-2.4 1.2q-.6.6-.1.9c.4 0 2.2-1 3.5-.3" style="fill:#454140"/><radialGradient id="a" cx="50.5" cy="48.2" r="17.1" gradientTransform="translate(0 2)" gradientUnits="userSpaceOnUse"><stop offset=".4" style="stop-color:#00bfa5"/><stop offset=".8" style="stop-color:#00b29a"/><stop offset="1" style="stop-color:#00ab94"/></radialGradient><path d="m36.1 65.4.6-2.3 8-16.9c1.6-3.6 4.6-8 9.2-9.3q1.3-.4 2.6-.4c1.5 0 4.1.4 5.5 3.1l2.3 5-2.4 8.7-4.3 12.3-.4 1.8z" style="fill:url(#a)"/><path d="M35.1 72.2V69l1.5-5.5L58 66.3l15.8 3v3z" style="fill:#7c7c7c"/><radialGradient id="b" cx="63.4" cy="42.4" r="40.4" gradientTransform="matrix(1 0 0 -.46 0 105.15)" gradientUnits="userSpaceOnUse"><stop offset=".5" style="stop-color:#ff9800"/><stop offset=".8" style="stop-color:#fa8b00"/><stop offset="1" style="stop-color:#f57c00"/></radialGradient><path d="M7.6 73.2h111.6s-.1 17.8-10.1 25H27s-13.2-10-19.5-25" style="fill:url(#b)"/><path d="M124 72.1c0 2.5-2 4.5-4.5 4.5H8.5a4.5 4.5 0 1 1 0-9h111c2.5 0 4.5 2 4.5 4.5" style="fill:#e65100"/><path d="M4 93.6h120V124H4z" style="fill:#039be5"/><path d="M124 85.4c-2.6 0-4.8 6-10.7 6s-11.7-7-17.3-7-9 6.1-14.7 7h-2.6c-5.7-.9-9-7-14.7-7-4.3 0-9 6.1-14.6 7h-2.7c-5.7-.9-9-7-14.7-7s-9 6.1-14.6 7h-2.8c-4.2-.7-7.7-6-10.6-6v20.9c3.5-1.8 6.4-5.3 10.6-6h2.8c5.7.9 9 7 14.6 7s9-6.1 14.7-7h2.7c5.7.9 9 7 14.6 7s9-6.1 14.7-7h2.6c5.8.9 9 7 14.7 7s9-6.1 14.7-7h2.6c4.3.6 7.2 4.2 10.7 6z" style="fill:#29b6f6"/><path d="m60.3 99.2 22.3-22.6 8.9-9h-9.3l-9 9-14.8 15z" style="opacity:.2;fill:#3d3d3d"/><path d="M50.8 71h49v6.7h-49z" style="fill:#ffa726" transform="rotate(-45.3 75.26 74.34)"/><path d="m90.4 63.8-8.9-.5 9.9-10.2 5.3 4.3z" style="fill:#ea960f"/><path d="M60.8 88.8a8 8 0 0 0-11.6.1l-9 9A8.2 8.2 0 1 0 52 109.6l9-9a8 8 0 0 0-.1-11.7" style="fill:#ffd54f"/><linearGradient id="c" x1="86.5" x2="67" y1="73.4" y2="80.4" gradientTransform="matrix(1 0 0 -1 0 128)" gradientUnits="userSpaceOnUse"><stop offset=".6" style="stop-color:#f9ddbd"/><stop offset="1" style="stop-color:#ffd29c"/></linearGradient><path d="M98.7 53.6c-.4-.5-1.9-1-2.5-1.3q0-.5-.3-.9l-1.3-1.7-.7-.4h-1.1v.1l-3.4 2.1-.3.2-11.7-.4-10.7-7.5-.7-.4-4.2 6 12 8.4.2.2h.2l.4.3.3.1.3.1.3.1h.8l10 .4h-.1v.1s4.7 3.2 7 3.5q.5.2 1.7.3.8 0 1.1-.4l.2-1c.3-.5.9-.4 1.2-1v-1.3q-.2-.5.3-.7.7-.2.8-.8v-.3q.1-.5-.1-1l-.1-.3q0-.5.3-1 .3-.1.4-.8 0-.3-.3-.7" style="fill:url(#c)"/><path d="M61.6 37.8a6 6 0 0 0-8.1 1.3 6 6 0 0 0 1.3 8.1l9.6 7 6.8-9.5z" style="fill:#04a287"/><path d="M54.8 9.4a16 16 0 0 1 12-3q4.5.6 7.7 3s4 3 4.6 5.4c.7 2.5-.6 3.7-.9 3.9-.4.3-1.2 0-1.2 0-1.7-.5-6.9-1.9-9.7-1.9q-.7-.1-1.2.4l-.5 1.4c-.6 2.4-.7 4-1.8 5.4-.1.2-.7.4-.7.4l-.7-1.7q-.5-1.7-1.7-1.9c-2.5 0-3 4.3-.4 5.9 0 0-1.2 3.2-4.4 3.2-2.7 0-3-.7-3-1.8-.1-2.3-.5-3.3-1-4.5s-1-2.7-1-6q.2-5 4-8.2" style="fill:#312d2d"/><radialGradient id="d" cx="397.4" cy="76.3" r="17.4" gradientTransform="rotate(184 230.13 54.5)scale(1 .986)" gradientUnits="userSpaceOnUse"><stop offset=".5" style="stop-color:#454140;stop-opacity:0"/><stop offset="1" style="stop-color:#454140"/></radialGradient><path d="M54.8 9.4a16 16 0 0 1 12-3q4.5.6 7.7 3s4 3 4.6 5.4c.7 2.5-.6 3.7-.9 3.9-.4.3-1.2 0-1.2 0-1.7-.5-6.9-1.9-9.7-1.9q-.7-.1-1.2.4l-.5 1.4c-.6 2.4-.7 4-1.8 5.4-.1.2-.7.4-.7.4l-.7-1.7q-.5-1.7-1.7-1.9c-2.5 0-3 4.3-.4 5.9 0 0-1.2 3.2-4.4 3.2-2.7 0-3-.7-3-1.8-.1-2.3-.5-3.3-1-4.5s-1-2.7-1-6q.2-5 4-8.2" style="fill:url(#d)"/></svg>