<svg xml:space="preserve" width="16" height="16" viewBox="0 0 128 128"><path d="M116 4H12a8 8 0 0 0-8 8v104a8 8 0 0 0 8 8h104a8 8 0 0 0 8-8V12a8 8 0 0 0-8-8" style="fill:#c33"/><path d="M109.7 4H11.5A7.6 7.6 0 0 0 4 11.5v97.9c0 4.1 3.3 7.5 7.5 7.5h98.1c4.1 0 7.5-3.3 7.5-7.5V11.5c0-4-3.1-7.4-7.2-7.5z" style="fill:#f44336"/><path d="M39.7 12.9c0-2.3-1.6-3-10.8-2.7-7.7.3-11.5 1.2-13.8 4s-2.9 8.5-3 15.3c0 4.8 0 9.3 2.5 9.3 3.4 0 3.4-7.9 6.2-12.3 5.4-8.7 18.9-10.6 18.9-13.6" style="fill:#ff8a80"/><path d="M33.2 106V22q.2-1.8 2-2h28.2q14.9 0 22.7 6c7.8 6 7.8 9.9 7.8 17.8a19 19 0 0 1-9.1 16.4 2 2 0 0 0 .2 3.5q4.3 2 7 5.8 4.2 5.7 4 12.8 0 12.4-7.9 19c-7.9 6.6-12.9 6.7-22.8 6.7H35.2a2 2 0 0 1-2-2m15.3-51q.2 1.8 2 2h13q7.2 0 11.2-3.2c4-3.2 4-5.2 4-9.2q0-6.5-3.7-9.4c-3.7-2.9-6.3-2.9-11.6-2.9H50.5a2 2 0 0 0-2 2zm0 15.3v23.4q.2 1.8 2 2h15q7.2 0 11.2-3.6c2.8-2.5 4.3-6.1 4.1-9.9q0-13.7-14-14H50.5c-1.1 0-2 1-2 2.1" style="fill:#fafafa"/></svg>