<svg xml:space="preserve" width="16" height="16" viewBox="0 0 128 128"><path d="M90.3 33.5C92.7 23.3 87 12 78.7 8.5a27 27 0 0 0-19.2.2C50 12 46 20.4 46.7 29.5c.3 4.7 1.6 7.3 3.3 11 .8 2.4-3 5.5-3 8.2 0 2 4.4 2.3 4.7 2.6q.8.5 1.1 1.8c2 4.6 3.5 7.6 11.5 6.6 2.6-.5 4.5-1.3 5.4-1.1s1.1 4.2 1.1 4.2l17.8-2.2s-4.7-7.7-1.2-19z" style="fill:#f9ddbd"/><path d="M52.9 53.1H54q1.5-.3 2.4-1c1.5-1 2.7-.1 1.5 1.3q-1.2 1.3-2.9 1.9l-1 .3z" style="fill:#444"/><path d="M86.3 12.5c-4.9-4.7-13-7.2-20.5-6.6-8.3.7-18.6 5.7-21.5 14.5-1.4 4.2.7 6.4 1.1 6.7.8.6 3.7.2 3.7.2 3-.3 7.3-1.5 12.4-2.2 2.3-.3 4 1.7 4.3 2.6 1 4.2.7 6 2.3 8.5l1.2.8 1.4-2.9c.9-1.7 1.7-3.1 3.2-3 4.2.2 4.7 7.7 0 10.1 0 0 1.7 5.7 7.1 6 4.8.3 6.3-.3 6.5-2.1.4-4 1.3-5.8 2.2-7.7 1-2.2 2.1-4.6 2.3-10.3q.4-8.6-5.7-14.6" style="fill:#312d2d"/><radialGradient id="a" cx="66.6" cy="30.8" r="27.5" gradientTransform="rotate(-.2 500.41 48)scale(1 .986)" gradientUnits="userSpaceOnUse"><stop offset=".7" style="stop-color:#454140;stop-opacity:0"/><stop offset="1" style="stop-color:#454140"/></radialGradient><path d="M86.3 12.5c-4.9-4.7-13-7.2-20.5-6.6-8.1.7-18.6 5.5-21.5 14.5-1.3 4.3.6 6.4 1.1 6.7 1.7 1 5.8-.4 15.7-2 2.8-.4 4.5 1.7 4.7 2.6.8 4.2.7 6 2.3 8.4l1.2.9 1.4-3c.9-1.6 1.7-3 3.1-3 4.3.3 4.8 7.8.1 10.2 0 0 1.7 5.7 7.1 6 4.8.3 6.3-.3 6.5-2.1.4-4 1.3-5.8 2.2-7.7 1-2.3 2.1-4.6 2.3-10.3q.4-8.6-5.7-14.6" style="fill:url(#a)"/><path d="M59.4 42.8c1.8 0-.8 2.3-3.2 2.4-1.7.1-3.8-.7-3-3.3.3-1.2 1 .8 2.5 1s3.7-.1 3.7-.1" style="fill:#312d2d"/><path d="M53.6 37.5c-2.1.4-2.6-.6-2-1.7q.8-1.4 4.4-.8c2.5.4 3.4 1.4 4 2.1q1 1.4.2 1.7c-.7.1-3.1-2-6.6-1.3" style="fill:#454140"/><radialGradient id="b" cx="48.9" cy="97.6" r="45.2" gradientUnits="userSpaceOnUse"><stop offset=".3" style="stop-color:#00bfa5"/><stop offset="1" style="stop-color:#009e89"/></radialGradient><path d="M36.2 124h57.5s-2.3-8-1.7-14.7c1-10.2 4.3-13.4 4.3-29.5 0-11.6-6.3-22-14.6-21.6-10.5.4-14 5.5-21.8 10.3C49.4 75 48.3 79.8 49.1 85.4c.3 1.8-.7 2.2-2 3-9.2 6-16 12-15.4 24.6.4 6.8 4.5 11 4.5 11" style="fill:url(#b)"/><linearGradient id="c" x1="62.5" x2="62.5" y1="81" y2="124.6" gradientUnits="userSpaceOnUse"><stop offset="0" style="stop-color:#ffd29c"/><stop offset=".5" style="stop-color:#f9ddbd"/></linearGradient><path d="M88.2 71c-2.6-6-12.4-2.8-13.4 4.7-1 6.3 2 28.1 2 28.1s-7.3 4-15.7 5c-2 .3-5.8.4-6.4.2-1-.6-1.4-1.7-2-2.4q-.8-1.2-2-2.2l-2-1.2q-1.8-.7-3.6-1.7-.4-.2-.9-.1l-.3.3q-.4 1.1.5 2t1.9 1.4q1.3.7 1 1.9a25 25 0 0 1-5.9 0l-3.4-.6c-.6-.2-1.8-.6-2.2.3q-.2 1 .5 1.5h.1l-.6-.3-1-.2q-.8.3-.8 1c-.1 1.1 1 1.8 1.1 1.8 0 0-.7 0-.9.8q0 .8.6 1.7l1.3 1.2s-.6 0-.7.5q-.3 1.2 1.3 2s1.6 1 3.1 1.6a20 20 0 0 0 8.4 1.2c3.6-.4 31.9-2.7 37.3-4.5 5-1.8 5.1-5.8 5.4-9 .3-4 0-29-2.7-35" style="fill:url(#c)"/><path d="M43.4 109.9c.5 0 1 .2.5.7-.3.3-2.4-.2-3.7-.5a9 9 0 0 1-4-1.9l-.1-.3q1.8 1 3.9 1.4zm.2 4c0 .4-.7.3-1 .3q-2.6-.3-4.7-1.3c-2.9-1.3-3.1-2.6-3.1-2.6s2 1.3 3.4 1.8q2 .8 4.6 1.2.6-.1.8.5m0 3.1c0 .5-.7.4-1.2.3 0 0-2-.3-4-1.2-2-1-3-2.4-3-2.4s2.3 1.3 3.2 1.6c.8.3 2.7.8 4 1 .3.1 1 .2 1 .7" style="fill:#edbd82"/><path d="m77 91.3 12.7-.8c2.5-.1 4.4-1 4.4-3.3l-1.4-14.7c-1-7-5.2-8.5-11.2-8-6 .3-9.5 4.8-9.4 10.3l.5 14c0 2.2 2 2.7 4.5 2.5" style="fill:#009688"/></svg>