<svg xml:space="preserve" width="16" height="16" viewBox="0 0 128 128"><path d="M124 38.2a40 40 0 0 1-10.6 4.8q-2.6.8-5.1 1.3c-2.5.5-3.3.5-4.9.7s-3.2.2-4.8.2L94 45l-4.5-.5-4.4-.7-4.3-.9-4.2-1-4.2-1.2-4.2-1.2-4.2-1.2-4.2-1.2-4.2-1.2-4.2-1.2-4.2-1-4.3-.9-4.4-.7-4.5-.5-4.6-.2-4.8.2q-2.4.2-4.9.7t-5.1 1.3c-2.6.9-3.5 1.2-5.2 2Q6.7 36.8 4 38.4V21a58 58 0 0 1 10.6-4.9l5.1-1.3 4.9-.7 4.8-.2a68 68 0 0 1 9.1.7l4.4.7 4.3.9 4.2 1 4.2 1.1 4.2 1.2 4.2 1.2 4.2 1.2 4.2 1.2 4.2 1.1 4.2 1 4.3.9 4.4.7 4.5.5 4.6.2 4.8-.2q2.5-.2 4.9-.7t5.1-1.3c2.6-.9 3.5-1.2 5.2-2s3.6-1.7 5.4-2.9z" style="fill:#5bcefa"/><path d="M124 55.6a48 48 0 0 1-22.6 7 90 90 0 0 1-23.7-3c-16-3.9-31.6-10.8-48.3-10.8-8.9 0-17.7 2.3-25.4 6.8V38.2l2.6-1.5a49 49 0 0 1 22-5.5c10.7-.2 21 2.8 31.2 5.7 10.3 3 20.5 6.3 31.2 7.6 11.5 1.4 23-.4 33-6.5z" style="fill:#f5a9b8"/><path d="M124 73a48 48 0 0 1-22.6 7c-8 .3-16-1-23.7-3L53 69.7A104 104 0 0 0 29.4 66Q15.8 66 4 73V55.6l2.3-1.3a50 50 0 0 1 22.4-5.7 104 104 0 0 1 30.7 5.6c10.4 3 20.8 6.3 31.6 7.7 11.5 1.4 23-.4 33-6.5z" style="fill:#fff"/><path d="M124 73a40 40 0 0 1-5.4 2.8q-2.7 1.2-5.2 2c-2.5.8-3.4.9-5.1 1.3l-4.9.7q-2.4.3-4.8.2l-4.6-.2a69 69 0 0 1-8.9-1.2l-4.3-.9-4.2-1.1-4.2-1.2-4.2-1.2L64 73l-4.2-1.2-4.2-1.2-4.2-1.2-4.2-1-4.3-.9-4.4-.7-4.5-.5-4.6-.3-4.8.2q-2.4.2-4.9.7t-5.1 1.3c-2.6.9-3.5 1.2-5.2 2Q6.8 71.3 4 73V55.6q2.8-1.7 5.4-2.8c2.6-1.1 3.5-1.5 5.2-2s3.4-1 5.1-1.3l4.9-.7 4.8-.2a68 68 0 0 1 9.1.7l4.4.7 4.3.9 4.2 1 4.2 1.2 4.2 1.2 4.2 1.2 4.2 1.2 4.2 1.2 4.2 1.2 4.2 1 4.3.9 4.4.7 4.5.5 4.6.2 4.8-.2q2.4-.2 4.9-.7t5.1-1.3c2.6-.9 3.5-1.2 5.2-2s3.6-1.7 5.4-2.8z" style="fill:none"/><path d="M124 90.4a48 48 0 0 1-22.3 6.9q-12 .4-23.6-2.9l-24.8-7a89 89 0 0 0-23.5-4c-9.1 0-18 2.3-25.8 7V73l3.7-2q7.5-3.7 15.8-4.7A84 84 0 0 1 56 70.6l16.8 4.8A116 116 0 0 0 89 79.1a49 49 0 0 0 35-6.1z" style="fill:#f5a9b8"/><path d="M124 107.8a40 40 0 0 1-5.4 2.8q-2.7 1.2-5.2 2c-2.5.8-3.4.9-5.1 1.3s-3.3.5-4.9.7l-4.8.2a68 68 0 0 1-13.5-1.4l-4.3-.9-4.2-1.1-4.2-1.2-4.2-1.2-4.2-1.2-4.2-1.2-4.2-1.2-4.2-1.2-4.2-1.1-4.3-.9-4.4-.7-4.5-.5-4.6-.2-4.8.2q-2.4.2-4.9.7A47 47 0 0 0 4 107.8V90.4a40 40 0 0 1 5.4-2.8l5.2-2c2.5-.9 3.4-.9 5.1-1.3l4.9-.7 4.8-.2a68 68 0 0 1 9.1.7l4.4.7 4.3.9 4.2 1.1 4.2 1.2 4.2 1.2 4.2 1.2 4.2 1.2 4.2 1.2 4.2 1.2 4.2 1.1 4.3.9 4.4.7 4.5.5 4.6.2 4.8-.2q2.5-.2 4.9-.7t5.1-1.3c2.6-.9 3.5-1.2 5.2-2s3.6-1.7 5.4-2.8z" style="fill:#5bcefa"/><g style="opacity:.2"><path d="M120 26.6V106s-10.6 5-20.2 4.8a116 116 0 0 1-31-5.5c-7.5-2.2-15-4.7-22.6-6.5a63 63 0 0 0-31.1 0q-3.7 1-7.1 2.9V22.4s6.7-3.8 16.7-4.8 20 1.3 29.7 4c19 5.2 39 14 58.9 7.7q3.4-1.1 6.7-2.7m4-6.2c-8.9 5.4-19 7.6-29.3 7-10.4-.7-20.4-3.8-30.3-6.6-10-2.9-20.3-6-30.8-6.7-5-.4-13.7-.2-22.2 3.1L4 21v86.9c8.8-5.3 19-7.5 29.1-6.9 10.6.7 20.7 4 30.9 6.9 10 2.9 20.2 6.2 30.7 6.9a49 49 0 0 0 29.3-6.9z" style="fill:#424242"/></g></svg>