<svg xml:space="preserve" width="16" height="16" viewBox="0 0 128 128"><path d="M32 4S19.9 7.3 14 25c-6.2 18.6 2.3 28.4 2.3 28.4l70 32.6 4.3-1.4 8.7-5.5 9.8-16.6 5.4-23-5-14.4z" style="opacity:.7;fill:#e0e0e0"/><path d="M39.6 11.5c-6.3-2-15.9 6.9-18.4 18.2s-.3 20.6 5.4 22.7c5.6 2 14.1-6.7 17.1-17.1s2.4-21.7-4.1-23.8" style="fill:#cfcfcf"/><path d="M24.3 17.5c-2.2-1-5.4 1-8.3 11.5-1.9 7-1.3 13.7 2.3 13.9 3.5 0 1.3-4.1 3.6-13s5.9-11 2.4-12.4m35.6 12.8c.6 2.6 4.1 4 12 6.7L88 42.4l7.5-10.8s-18.6-6-23-7.1c-4.3-1.2-7.3-1-9.9.4-1.9 1.1-3.2 3.5-2.7 5.4" style="fill:#fff"/><path d="m109.5 25-2.6 2.7s4.3.1 5.2 7.6c.8 6.8-.3 14.6-2.9 22a55 55 0 0 1-13.5 22c-4.3 4-7.6 2.8-7.6 2.8l-1.8 4s5.2 2.2 12-4a56 56 0 0 0 14.3-23.6c3.3-10 3.8-17.9 2.9-24-1-6-3-8.4-6-9.4" style="fill:#c8c8c8"/><path d="M24 51.6c-.3.6.7 1 6.5 3.7a1333 1333 0 0 0 33 15c11 4.8 22.5 10.2 23.3 10.8 2.1 1.6 2.9 3.3 2.9 9.5 0 7.6-.5 24.5-.5 27.3 0 3.4-.5 8.3 3.7 8.6s4-5 4-7.7 0-23.3-2.3-35c-.5-2.8-1.5-6.5-6.7-9.6q-3.3-2-9.4-4c-16.3-6.5-37.6-15.6-46-18.7-3.4-1.2-7.4-2-8.5 0" style="fill:#865c50"/><path d="M92.4 111.1c-.9 0-1.2 1-1.3 5.6 0 4.6 0 6 1.3 6s1.2-1.9 1.1-6.1c0-3.1 0-5.4-1.2-5.5" style="fill:#fff"/><path d="M83.4 49.9A50 50 0 0 0 80 78.5c1.8 6.8 6.2 7.5 6.2 7.5l1.8-3.8s-2.4.2-4-3.8a52 52 0 0 1 2.8-28c5.8-13.4 12.8-19.2 16-20.8 3.5-1.8 6-.9 6-.9l.7-3.6s-4.8-2.2-11.5 2.8a52 52 0 0 0-14.7 22" style="fill:#c8c8c8"/><path d="M109.7 29.3c-.4.8-2 0-5.2 1.4-4.6 1.9-8.3 6.2-12.2 12.5-3.2 5.4-7 13.8-7.4 23.8s2 14 2.8 15 1.1 1 .8 1.6c-.4 1-1.9.6-2.7 0-1.4-1.1-4.5-5.3-3.9-15.7.6-8.7 4-19.8 9.4-28.4 5-8 9.3-11 14.3-11.9 3.3-.6 4.6.6 4 1.7" style="fill:#fff"/></svg>