<svg xmlns:xlink="http://www.w3.org/1999/xlink" xml:space="preserve" width="16" height="16" viewBox="0 0 128 128"><path d="M47.3 65.5q-1.1-2-1.8-4.8l-2-8.9c-.4-1.7-1.3-7 5.1-10.9-1.2-2.1-6.5-1.6-9.1-.7-6.5 2.3-14.4 6.3-22.8 4.8-4.5-.8-8.2-5.8-3.5-10.3 2.3-2.2 6.1-3.6 9.8-5.5 4-2 7-3.9 10.7-5.2 4.1-1.4 9.6-3.4 17.9-4.7 2-.3 4 .4 4.9.7l12.7 4.9s7.8-3.7 14.2 1.2c2.7 2 4.9 2.1 6 2.2 2.9.1 6.1 1.4 8 3.4s3.8 2.9 6.1 3.6 8.4 1.4 9.9 9.7c.7 3.6.3 4.5.5 7.4l2 22.6q.1 3 1.7 6.9c1.6 3.9 2.7 5.6 3.2 6.4s.6 2.1-.3 3.2c-4.5 6.4-20.7 20.8-31.6 23.5-1.7.4-2.5-.7-2.9-1.1-.5-.4-2.4-3-6.8-4.5-8.3-.8-22.1-2.1-35.6-18-3.9-4.6-7.4-12.2-15.2-17a83 83 0 0 1-15.2-11.1c-2.9-3.1-2.7-9.8 2.4-11.8 2-.8 13.5-1.6 23 6.8 4.9 4.1 4.1 5 8.7 7.2" style="fill:#ffca28"/><defs><path id="a" d="M47.3 65.5q-1.1-2-1.8-4.8l-2-8.9c-.4-1.7-1.3-7 5.1-10.9-1.2-2.1-6.5-1.6-9.1-.7-6.5 2.3-14.4 6.3-22.8 4.8-4.5-.8-8.2-5.8-3.5-10.3 2.3-2.2 6.1-3.6 9.8-5.5 4-2 7-3.9 10.7-5.2 4.1-1.4 9.6-3.4 17.9-4.7 2-.3 4 .4 4.9.7l12.7 4.9s7.8-3.7 14.2 1.2c2.7 2 4.9 2.1 6 2.2 2.9.1 6.1 1.4 8 3.4s3.8 2.9 6.1 3.6 8.4 1.4 9.9 9.7c.7 3.6.3 4.5.5 7.4l2 22.6q.1 3 1.7 6.9c1.6 3.9 2.7 5.6 3.2 6.4s.6 2.1-.3 3.2c-4.5 6.4-20.7 20.8-31.6 23.5-1.7.4-2.5-.7-2.9-1.1-.5-.4-2.4-3-6.8-4.5-8.3-.8-22.1-2.1-35.6-18-3.9-4.6-7.4-12.2-15.2-17a83 83 0 0 1-15.2-11.1c-2.9-3.1-2.7-9.8 2.4-11.8 2-.8 13.5-1.6 23 6.8 4.9 4.1 4.1 5 8.7 7.2"/></defs><clipPath id="b"><use xlink:href="#a" style="overflow:visible"/></clipPath><g style="clip-path:url(#b)"><path d="M14.9 45.7c3.1 1.3 3.8-2.2 2.5-2.4-2-.3-5.1-3.5-2.5-6.6 1.8-2.1 7-3.8 10.4-5.4 4.2-2 6.4-4.1 10.3-5.2l13.1-3.6c2.5-.6 4.3-1.2 7.3 0 1.9.7 4.4 1.9 5.1 2.2s1.4 1.1.7 1.9c-1.9 2.1-2.6 3.8-7.5 3.8s-12 1.2-19.6 6.9a94 94 0 0 1-11.6 7c-1.1.6-.9 1.9.3 1.6l18-2.3c.2 0 23-13.1 25.1-14.6 4.7-3.3 9.7-4.7 14.4-1.8 2.3 1.4 4.8 3.3 8.9 3.4 6.7.1 6.2 4.6 10.6 6 4 1.2 8.9 1.9 10.7 7.2 1 2.8 2 7.9 2.7 19.3h4.8l-1.4-23.9-33.8-21.8-33.2-2.6L5.7 33.5 10 46.1zm.7 17.4c-1.9-2-2.5-6.2-.3-7.4 4 3.4 16.8 3.2 21.3 2.1s1.6-4 1.6-4S19.6 45 10 51.1s-.2 13.2 1.3 14.2 4.3-2.2 4.3-2.2m82.3-4c1-1 1.4-1.3 2-1.6s2.7-.8 2.5 1.9l-.5 8.2c0 1-.5 3.6-3.5 2.5-.1-2.8.1-5.9-1.9-6.9s1.4-4.1 1.4-4.1M88 74.2c-1-.6-1.8-1.4-1.8-3.4v-9.1c-.1-1.6-.2-3.3-2.1-4.1l-3.8-1.4c-.8-.2-2.7-.5-3 1.6s-2.6 1.3-2.7.1c-.2-1.3-.7-4.1-3.8-5.1L64.9 51c-1.3-.4-5.1-.5-5.1 2.9 0 3.1-2.5 1.6-2.6.2s-.8-4.7-3.2-5.6a56 56 0 0 0-6.9-2c-1.4-.4-4 0-3.8 2.9.3 4.2 1.1 11.6 2.4 13.8s2 4.7 4.4 5.4 7.6.2 9.3 1.1 6.5 7.8 11.3 8.2 9.1-1.1 11.2-2.3 4.7-.4 5.6-.2c.8 0 .5-1.2.5-1.2" style="fill:#faa700"/></g><defs><path id="c" d="M47.3 65.5q-1.1-2-1.8-4.8l-2-8.9c-.4-1.7-1.3-7 5.1-10.9-1.2-2.1-6.5-1.6-9.1-.7-6.5 2.3-14.4 6.3-22.8 4.8-4.5-.8-8.2-5.8-3.5-10.3 2.3-2.2 6.1-3.6 9.8-5.5 4-2 7-3.9 10.7-5.2 4.1-1.4 9.6-3.4 17.9-4.7 2-.3 4 .4 4.9.7l12.7 4.9s7.8-3.7 14.2 1.2c2.7 2 4.9 2.1 6 2.2 2.9.1 6.1 1.4 8 3.4s3.8 2.9 6.1 3.6 8.4 1.4 9.9 9.7c.7 3.6.3 4.5.5 7.4l2 22.6q.1 3 1.7 6.9c1.6 3.9 2.7 5.6 3.2 6.4s.6 2.1-.3 3.2c-4.5 6.4-20.7 20.8-31.6 23.5-1.7.4-2.5-.7-2.9-1.1-.5-.4-2.4-3-6.8-4.5-8.3-.8-22.1-2.1-35.6-18-3.9-4.6-7.4-12.2-15.2-17a83 83 0 0 1-15.2-11.1c-2.9-3.1-2.7-9.8 2.4-11.8 2-.8 13.5-1.6 23 6.8 4.9 4.1 4.1 5 8.7 7.2"/></defs><clipPath id="d"><use xlink:href="#c" style="overflow:visible"/></clipPath><g style="clip-path:url(#d)"><path d="M115 47.2c-1 .7-2.3.7-2.3 4.7s1 20.8 1.2 22.6.5 5.4 1.8 8.2c1.2 2.8 5.7 11.6 5.7 11.6l3.7-3.3zM10.1 58.3q2.3-.5 3.5 1.7c1.6 3.4 8.1 6.3 19.6 14.5 3.1 2.1 5.6 5.9 7.7 10C47.5 97 56.6 104.8 74.6 106c10.5.7 12.8.8 14.1 2.3 1.1 1.3.7 3.2-1 3.6s-9-.4-9-.4-16.3-1.5-19.7-2.2-38.1-23.5-43.2-33.6-7-13.1-7.6-14.5 1.9-2.9 1.9-2.9m38.6-17.4c1.3-.7 17.7-11.7 18.5-12.2 1.2-.8 0-2.6-1.4-1.8-1.1.6-13.9 8.5-16.6 10.3-12.4-1.9-15.8 5-27.9 6.3a7 7 0 0 1-3.4-.3c-.8-.2-2.6-.5-3.5 1.2-1 1.7 4.4 3.3 8.6 3a155 155 0 0 0 25.7-6.5M14.3 51.2c.6.9 1.3 2.4 4.8 2.4 5.3 0 14.3 1.2 21 10 3 4 8.2 6.7 12.6 6.9s7.2-.2 9.6 3.2c4.7 6.6 12 7 19.3 2.9q.6-.3 1.3-.3c3.8.2 16 .3 16.8-7.6.2-2.2.1-3.9-1.6-5.7a1 1 0 0 1 .1-1.3l1.6-1.6c.4-.6.4-2.6-1.8-1.8-1.2.4-4.3 2-6.4.7q-.7-.5-.9.2c-.2.7-.1 1.8-.1 2.1s-.2.8.6 1c1.7.5 6.2 1.4 6 5.8-.2 3.5-3 5-12.7 5q-1.9.2-3.6-1.3l-2-1.9q-.8-.6-1.1-2.8c-.3-2.2-.3-7.9-.3-9.3q-.2-3.1 1.6-5c5.8-5.7 10.7-8.3 16.8-11.9 1.7-1 .4-3-1.5-2.1a73 73 0 0 0-18 12.3 7 7 0 0 0-2.1 4.8c-.2 1.4.1 9.9.1 10.9s.5 3.2 1.9 4.8q1 1.2 1.6 1.4c.9.6 1.2 1.8.1 2.2-1.9.8-7.8 2.8-12.9-1.7q-2.7-2.4-3.4-6.1-1.2-5.7-1.6-14.9c-.1-2.2.7-4.6 2.2-5.8C69.7 40.6 80.5 34.1 84 32c1.2-.7 0-2.2-1.1-1.6-4.6 2.1-16.1 8.7-22.6 14a9 9 0 0 0-3.3 7.2c.1 3.6.2 9.8.4 12.3q0 2.3-1.4 2.8c-1.5.3-3.8.2-5.6-.7-2-1-4.9-4.7-7-11.8-.8-2.8-12.4-5.4-15.5-5.6s-14.2-1.4-14.1 0 .5 2.6.5 2.6" style="fill:#b55e19"/></g></svg>