<svg xml:space="preserve" width="16" height="16" viewBox="0 0 128 128"><path d="m45.7 90.5 16 9.5s27.2 9.9 30.7 9.6 19-1.6 19.2-2.9c.4-1.4-4-6.7-4-6.7s11.7-6.3 11.6-7.9c-.2-2.3-4.5-4.5-4.5-4.5s8.2-11.3 7.8-12.3c-1-2.6-6.7-2.5-6.7-2.5s8-8.6 7.7-10c-.5-3-11.5-4-11.5-4s5.7-5.5 4.7-7.5c-1-2.2-14.6-3.2-14.6-3.2s5.6-8 4.8-9c-2-2.6-18.8-1.3-18.8-1.3s2.3-7.2 1-7.9c-.9-.4-14.4 5.5-14.4 5.5s-.1-6.7-2.2-6.3c-2.2.4-13.1 12.4-13.1 12.4S54 33.7 53 33.7s-7 7.9-7 7.9-3.7-8.4-5.5-8.4c-1.9 0-7.8 13.2-7.8 13.2s-6.4-7.2-7.4-6.6c-1 .5-2.2 5.8-2.5 8.6l-.8 7s-5.1-1.5-5.8-2-3.3-2.6-4.3-1.8c-.7.5 1.3 5.8 2.7 8.4 1.8 3.5 5.7 8.4 5.7 8.4z" style="fill:#6d4a37"/><path d="M44 77.7 30.3 96.1s-.7 5-1.4 6.4c-.6 1.3-6.2 6.8-3.8 8.6s8.3 1.2 10.2-1.3c2.2-2.9 4.7-8.2 4.7-8.2s6.4-2.3 8.2-5 2.3-5.2 2.3-6.5.4-4.5.3-5.9-1.4-7-1.4-7z" style="fill:#f7bb86"/><path d="M18 59.8s8.3-3.4 13.6-2.4 14.5 7.3 19 14 8.6 13.7 15 18.8c6.6 5 11.6 10 19.4 13 7.7 3.2 15 2.4 17.6 2.3s8.4 0 8.4-.7-4.5-8.1-4.5-8.1 11.6-4.7 12-5.7-5.2-5.9-5.2-5.9 8.4-10.3 8.2-11-8.8-3.3-8.8-3.3 9.6-7.6 9.6-9.2-11-3.1-11.8-4.5 5.5-5.5 5.5-6.5-16.7-3.5-17-4.3c-.2-.9 7-7 6.5-8s-12.2-1.6-15-1.6-6 .7-6.8 0 4.7-5.2 5.4-6.5-6 1.1-9.7 2.1-7 3.4-8 2.4c-.8-1 2.8-5.5 1-5.6-1.6-.2-7.1 4-8.8 5.9l-5 5.2s-3.6-5.3-4-4.8c-.6.6-4 6.5-5 6.8s-7-7.8-7.7-7.8-7.3 12.3-7.3 12.3-6.5-5.4-7.5-5.8c-.8-.4-2.6 13.8-2.6 13.8s-4.5-.4-6.5-1.1-6-3.3-6.2-2 1.8 4.2 3.1 5.6 3 2.6 3 2.6" style="fill:#865b52"/><path d="M42.5 72.3s-4.2-8.4-13-9.5-13.5 8-16 9.3-7.7.7-8.5 5 1.8 9.5 6.8 13.1a32 32 0 0 0 20 6.4c9.3.1 14.3-7.7 15.2-12.8.3-2.4.3-5.2.3-5.2s6.7-1.8 8.8-9.9c2-8-5.7-8.6-9.4-4-3.4 4-4.2 7.6-4.2 7.6" style="fill:#fed3b4"/><path d="M56.1 102.8s-18.3 11-16.5 11.9c1.7.9 3 1.8 7.4 0 4.3-1.8 12-7.2 12-7.2s5.2 1.6 10.4 1.8l14.2.6 4.5-5.5-27.4-6.3z" style="fill:#f6ba84"/><path d="M59.5 90.8a93 93 0 0 1 17.4 5.4c5 2 15.8 7 16 12 .1 3.6-2.6 6-4.6 6.6-2.4.8-10.2 2-13.1.4s-3.7-4.3 0-6.2 8.9-1.9 8.5-3.7c-.3-1.8-7.4.3-13.4-.3l-12.5-1-7.5 6.7c-3.3 3-6.1 5.8-10.3 4.5-3.5-1-4.8-3.2-3.3-4.6s3.4-2.9 4-3.6 1.4-2.6 1.4-2.6l-1.9-2.2q-1.2-1.7-1.2-1.9c0-.2 5.3-2.9 7.3-4.8 2-2 3.8-5.5 3.8-5.7s3.8 0 9.4 1" style="fill:#ffd1b7"/><path d="M30.7 75.4c.1 2 1 4.3 3.7 4.3s3.1-2.5 3-4.8-1.4-4.2-3.5-4.1c-2.1 0-3.3 2.2-3.2 4.6" style="fill:#000304"/><path d="M45.2 74.3c1.2 1.9 3.8.6 5.4-1.2s2.5-4 1.2-5.3c-1.5-1.6-4 .1-5 1.4-1.2 1.3-2.7 3.6-1.6 5.1" style="fill:#f27cb6"/><path d="M10.5 82.2s3-2.7 3.1-4.1q0-2-4-3.1c-2.7-.7-4.7-1-5 2-.2 2.9 1.8 4 1.8 4s-.5.9-.8 1-.5 1-.4 1.4c.5 1 1.2.6 1.6.4l1-.7s1.4 4.3 4.5 5.4c3.3 1 6-1.3 6.7-2s.4-2.7-1.6-1.8c-1.7.8-1.5 1.7-4 1.3s-2.9-3.8-2.9-3.8" style="fill:#4b4c4d"/><path d="M27 107c.8.5.1 2.3-.3 2.7-.4.3-1.5 1.7-2.5 1-1.1-.8-.3-2.5.3-3.1s1.6-1.3 2.6-.6m13.5 3c1 .8.5 2.2-.4 3-.9.6-2.5 1.9-3.4.8-1.2-1.2 1-2.9 1.4-3.2s1.5-1.2 2.4-.5m3.8 1.6c.9.8.3 1.8-.5 2.6-.9 1-2.4 1.7-3.3 1-.9-.8.7-2.5 1.3-3s1.5-1.4 2.5-.6m30.3-.5c-.7.5-2.1 2-1 3s2.8-.5 3.3-1 1.4-1.6.6-2.6-2-.1-3 .6m2.5 4.4c.8.8 2.1 0 3-.8.5-.5 1.3-1.7.4-2.5-.6-.5-2-.1-2.9.9s-1.2 1.6-.5 2.4" style="fill:#f47dad"/><path d="M37 50.3c-1.4 3.6 2.3 5.1 3.8 2a56 56 0 0 0 3.6-9c.7-2.3-1-3.2-2.5-1-1.5 2.4-3.8 5.5-4.9 8" style="fill:#9d6c5b"/><path d="M56.8 47.5c-2 1.6-6.5 6.9-7.9 8.8-2.3 3.1 1.7 5.8 3.8 3s5.2-8.3 6.3-10-.5-3.2-2.2-1.8" style="fill:#c5886f"/><path d="M60.3 42.5c-1.3 1.2.2 4 2.6 2.2 2.5-1.8 3.8-3 5.1-4.3s.4-2.8-1.6-1.9-4.6 2.5-6 4" style="fill:#6f4b3b"/><path d="M64.6 48.2c-3 2.3.4 5.9 3 3.8s7.5-6.9 9.3-8.8.7-4-2-2.2c-2.2 1.5-7.5 4.8-10.3 7.2" style="fill:#9d6c5b"/><path d="M62.2 63c-3 2.5 0 6.2 3.3 3.4 3.5-2.9 8.3-7 10.6-9.4 2-2 0-4-2.5-2-2.3 1.5-7.6 5.1-11.4 8" style="fill:#c5886f"/><path d="M84.8 55.2c-3.6 2-1.2 5.2 1.7 3.6 2.2-1.2 9-5.7 10-6.6s.4-2.5-1.2-2c-2 .8-8.1 3.7-10.5 5" style="fill:#9d6c5b"/><path d="M81.7 45.9c-2.9 2.2-.2 5.6 2.4 3.7 1.9-1.5 7.3-7.2 8.1-8.2s0-2.4-1.5-1.3c-1.3.9-6.5 4-9 5.8" style="fill:#6f4b3b"/><path d="M93.5 59.5a728 728 0 0 0-23.7 13.3c-3.3 2.2-.5 7 2.8 4.8l22.7-15.4c2.4-1.7 1-4.3-1.8-2.7M83.4 79c-3.7 1.6-1.8 5.5 1.4 4.3a164 164 0 0 0 15-6.6c2.3-1.3 1.3-3.7-.8-3-2 .7-11.7 3.7-15.7 5.4" style="fill:#c5886f"/><path d="M100.4 64c-2.5 1.5-.6 4 1.6 3a42 42 0 0 0 5.5-2.9c1-.7.6-2.7-1.4-2-1.4.4-3.8.8-5.7 1.9" style="fill:#6f4b3b"/><path d="M92.2 87.3c-2.8.5-2.1 4.8.8 4.4 4-.7 11.2-3 12.5-3.4 1.8-.4 2.2-3.3-1.3-2.8-3.2.5-8.7 1.2-12 1.8m5.8 8.4c-2.8-.2-2.9 3.7.3 3.7q3.1 0 5.2-.4c1.8-.4 1.9-2.5-.4-2.8z" style="fill:#c5886f"/><path d="M105.5 77c-2 .8-1.1 3.6 1 3q2.9-1 5.2-2.3c1.3-.7.7-2.7-.9-2.4s-3.9 1-5.3 1.7" style="fill:#9d6c5b"/></svg>