<svg xml:space="preserve" width="16" height="16" viewBox="0 0 128 128"><path d="M97.4 62.6s4.5-9.7 4-18.4c-.4-5.5.9-29.6-35.7-30.3S26.8 34.6 26.8 45c0 8 3.5 15.4 3.5 15.4s-3-.7-6.3 3.2-3.5 12.5-1.1 17.2c3 6 8 9.3 8 9.3l10.4 15.3s-1.5 4.3-4.2 7.5c-1.8 2.1-5.6 5.5-5.5 6.8.1 2 4.2 1 10.1 1.2 6 .3 22.7-2.5 22.7-2.5l25 1.5c2.3.2 7.2.5 7.8-1 .4-.9-3.4-4.1-5-7-2-3.6-3.3-9.4-3.3-9.4s4.7-9.7 6.6-11.3c2-1.5 7.5-8.4 9-12s2.1-10.6-1.1-13.9c-2.4-2.4-6-2.8-6-2.8m-11.2-43s2-4.5 6.3-7.2c4-2.6 8.5-2.3 8.9-2 .3.4-.6 3.7-2.1 6-1.4 1.9-2.8 3.4-2.6 3.6.4.4 1.8-1.4 3.5-2.8 2.3-1.9 5.3-2.6 5.7-2.3s.8 5.3-1.4 9.6c-2.1 4-6 6.6-6 6.6l-5.4-7.3zM44.3 19s-2.5-5.2-5.6-8.3-7.7-4.9-8.3-4.3-.5 4 .2 6.3 2.8 4.5 2.2 4.9-1.7-2.1-2.8-3.3c-1.8-2-5-3.5-5.5-3.1s-2 5.7.8 10.6c2.3 4.4 5.8 8.5 5.8 8.5l8.2-7.8z" style="fill:#6e4f44"/><path d="M47 111s-.5 2.1-3.1 4.5c-3 2.6-8 6-4.8 7.2 3.2 1.1 7.7 1.1 12.4.2s9.3-2.4 12.5-2.4c3.3 0 10 1.3 13.3 1.7 3.3.5 7.4 1 9.8.4 2.2-.5 3.3-1.4-.5-5.4a51 51 0 0 1-4.4-6.4l-19 3z" style="fill:#878787"/><path d="M36.5 61.4s-3.9.4-5.5 2.5-3.7 8.3-3.4 17a40 40 0 0 0 9 22.4c5 6.4 11.6 13 26.7 12.5s23-4.3 27-11.2c3.9-7 8.8-16.2 9.2-24.8.5-8.6-3.8-16.5-5.2-17.6a341 341 0 0 0-30.5-2.4z" style="fill:#875d54"/><linearGradient id="a" x1="63.4" x2="63.7" y1="60.8" y2="110.7" gradientUnits="userSpaceOnUse"><stop offset="0" style="stop-color:#f5dbb8"/><stop offset=".2" style="stop-color:#f2d2af"/><stop offset=".5" style="stop-color:#e9b996"/><stop offset=".9" style="stop-color:#dc9673"/></linearGradient><path d="M42.2 61.4s-9.3 8.4-7.6 23c1.5 13 10.7 26.2 28.8 26.3 20.5 0 28.1-14.6 29.2-26.5A29 29 0 0 0 84.9 61c-1-.8-42.7.4-42.7.4" style="fill:url(#a)"/><path d="M64.2 73.4s8.1-8.5 14.5-10.2 15.6-1 15.6-1 4.3-6.4 4.6-18.7c.3-13.3-6.7-19-6.7-19s-11.6-2.2-19.7 6.2c-6.8 7-6 15.6-6 15.6l-3.6-.6s0-9.5-6.6-15.3-15.8-7.3-15.8-7.3-11.2 6-11.4 19.7c-.3 14.7 5.3 19 5.3 19s9 .2 17 3 12.8 8.6 12.8 8.6" style="fill:#f2a35b"/><path d="M93.2 42.8c0 7.3-3.9 13-12 14-9 1-13.3-5.8-13.3-13.1s5.7-13.3 12.7-13.3 12.6 5.1 12.6 12.4m-33.5-6.2c3.6 6.6 2.1 16.4-4 19-7 3-14.6 0-18.2-6.6s-1.2-14 4.9-17.5S56 30 59.7 36.6m18.7 36.5c1.6.4 2.5-2.8 4.4-1.2s-.8 4.5-3.8 4.6-6.2-2-5.1-4 2.5.2 4.4.6m7.2 8.2c2.4-.3 3.6-3 5.1-1.3s-1 4.5-5 4.7-6.2-1.8-5.3-3.4 2.3.2 5.2 0m-20.9 1c3 .2 3.1-2.8 5.3-1.7s-.4 5.5-5 5.5c-5.3-.1-7.2-4-5.8-5.1 2.1-1.7 2.3 1.2 5.5 1.3M50.2 74c2-.2 1.7-2.7 4.4-1.8 2.4.8-.3 5.3-4.7 5.2-4 0-6-3.3-5-4.3 2.1-2 3 1 5.3.8m-8.8 7.3c1.8 0 2.1-2.4 4-1.3 2 1.2.3 4.8-4.1 4.8-4 0-5.5-2.7-4.4-3.9 1.7-1.9 2.8.4 4.5.4" style="fill:#d0805f"/><path d="M70.5 45.1c1.5 4.6 6.9 7 11.7 5.5a9 9 0 0 0 5.9-11.4c-1.8-5.6-7-6.8-11.8-5.3a9 9 0 0 0-5.8 11.2m-28.7-9.2c-3 3.8-2.5 9.2 1.6 12.3s9.6 3.2 12.7-1c3.6-4.7 2-10-2-13S44.6 32 41.7 36" style="fill:#fffeff"/><path d="M84.8 39.8c1.2 3 .1 6.5-3 7.8-3.2 1.2-7.3-.3-8.5-3.3a6 6 0 0 1 3.3-7.9c3.4-1.4 7 .3 8.2 3.4M55 44.5c-1.7 2.9-6 3.7-9.4 1.6-2.9-1.9-3.1-5.6-1.5-8.5 1.7-2.8 5.4-3.3 8.5-2 3.8 1.6 4 6 2.4 9" style="fill:#303232"/><path d="M59.4 46.1s-.2 6.1 0 8.2q.4 4.3 1.7 6.8c1 2 2.4 4 3 4 .8 0 2.2-2 3-4q1.3-2 1.9-7.4c.2-3.1.2-7 .2-7z" style="fill:#2f2f2f"/><path d="M64.2 40.6c3.3 0 4.2 1.9 5 3.6.3 1 .6 3 .3 3.5-.2.3-2.7 1-4.9 1s-6-.9-6-1.5.6-2.9 1.2-3.8c1.1-1.6 2.2-2.8 4.4-2.8" style="fill:#feb903"/></svg>