<svg xml:space="preserve" width="16" height="16" viewBox="0 0 128 128"><path d="M62.5 104.8s-17 12.7-24.3 16.9c-1.3.7-30-27.3-26.7-30.6 1.9-1.9 12.2-8.8 14.4-11.7 0 0 .2-.3-.3-.7-6-5-12.4-10.6-17-18.8a47 47 0 0 1 1.2-40.1c1.5-2.5 9-3.1 16.7-1.5 10.2 2.1 15.8 5.7 14 12C38.6 36 34 46 34 53.1c0 6 7.2 10 7.2 10s4.6-6.5 6.7-17c1.4-6.6 0-16.3-.6-23.1-.7-7.3-.1-21.6 37.3-18.6 21.7 1.8 24 5.7 25.2 14 .5 3.3 0 17.2 0 17.2s5.5 1.8 6.9 4.4c1 2 1 9.6.7 12.2-.2 2.9-8.4 5.5-14.2 7.2-2 .7-6.4 8-9.1 12.5a175 175 0 0 1-14.9 16.5c3 1.1 8.6-1.2 11-2.8q3-2.1 5.1-5c1.8-2.4 3.2-5.3 5.8-6.8 2.6-1.6 9.8-.4 15.4 6 6.6 7.9 6.3 12.9 5.1 15.9-.8 2.2-7.6 12.4-24 15.8-17.2 3.7-35.2-6.7-35.2-6.7" style="fill:#e5b27f"/><path d="M48.6 43.6a36 36 0 0 1 25.9-10.1c5.4-.1 13 1 22.8-2.7 4.5-1.7 7.8-5 8-2.2.2 3.5-.8 4.6-2.1 6s0 2 .5 1.8q3.3-1.2 6.8-.7c-.4-1.3.4-13 .3-16.5-.2-5.3-1.3-9.3-5.8-11.7a69 69 0 0 0-14.8-2.7A203 203 0 0 0 73.1 4c-.6 0-1.8 1 .7 1.5S91 8.1 94.4 9.2c2.4.7 7.3 2.6 7.2 7.6 0 2.3 0 5.7-10.4 8.9-11 3.3-22.9 1.1-33.2 6.2a26 26 0 0 0-9 7.1q-.3.1-.4.8zm69.8 36.6c-2.6-3.3-7.3-7.8-14.3-7.6q-2 .1-3.4 1.6c-2.5 2.4-1.3 6-.3 9 1.3 3.7 6.7 9.7 10.5 12.8.7.5 2.6 1.9 1.4 4-1 1.4-4.5 4.2-9.8 5.7-1.5.4-3-.4-3.6-1.2a32 32 0 0 1-7.6-19q-.1-.7-.8-.1l-1.5 1c-.5.3-.7 1.6-.7 2a42 42 0 0 0 5 17.7c.5 1 .5 1.5-1.5 2a30 30 0 0 1-13.5-.7c-1.8-.6-1.7-2-1.6-3.1.8-8.8 5.3-15.6 5.3-15.6s-1.5 0-2.5.8a14 14 0 0 0-4 5 36 36 0 0 0-3 9.9s-.2 1.6-2.2 1.3c-1.9-.4-5.1-1.6-6.9-3.7-2-2.6 2.2-10.5 7-13 4.5-2.3 9-.6 9-.6a80 80 0 0 0 17.3-19.1c2-3.2 4.6-7.4 6.4-8.9 2.6-2.1 9.5-2.3 14-6 1.5-1.2 2.6-4.3 2-8.5-.6-4.1-2.9-7.8-4.2-7.1-2 1-2.9 6.2-1 11.4.8 1.9-1.2 2.5-2.7 3-2.3.7-5.4 1.4-7.5.2-3-1.7-2.7-7.7-2-10.2.9-2.5-.9-3.6-2.6-1.9-3.3 3.4-3.4 8.9-2.3 13.5.2.6.4 2.6-2.7 3.6-5.6 1.8-13.5-1.5-18.4-3.7-13-5.9-20.9-4.3-25.3-2.1-7 3.5-9 10.3-9 10.3s-5.9-3.7-6.9-8.9c-.2-1.4.1-4.1.4-5.5 1.7-7.1 5-15.2 5.8-17.9 1.6-5.5-3.5-9-6.3-10-2.7-1.2-4.9-1-3.2 0 2 1.2 4.6 2.6 5 4.3.3 1.7-.6 3.5-6 3.7-5 .2-12.1-1.7-14.7-4.3-1.4-1.4-2.5-2.9-1-4.2 1-.9 4-1.2 7-1.5 2-.1 2-.9.9-1-5.1-.7-12.6-.7-13.4 3.7-.6 4 5.6 8.4 10 10.1a44 44 0 0 0 13.7 3q1.1 0 .8 1.4c-.3 1.1-1.6 6.3-3 10-.4 1-.9 1.6-3.5 2a29 29 0 0 1-22.2-5l.3 4.5a30 30 0 0 0 22.3 4.9c1.2-.2 2.7-.6 2.8.4.1 1.2-1.5 1.5-5.7 3.2-5 2-8.5 5.7-11 9.9-.4.6-.3.9.6 2 1 1 1.4 1.6 2 .8 3.8-4.5 7.6-9 14.9-10.2.4-.1 1.4 0 2.2 1.2l2.8 4.3q.7.9-1.4 2.5c-7 6-8.7 11.5-8.8 12.1s.1.9.4.6c0 0 3.2-2.7 6-4.3q3.8-2.4 8.8-2.8c4-.3 8.4 1.4 10.2 5.8 1.4 3.8.4 8 .6 12 0 4 2 8.3 2.8 11.7.7 2.7-2.5 4.2-5.2 6.2l-4.2 2.9c-.9.5-2 0-2.3-1-.6-3-2.6-8.9-9.1-15.1-6.7-6.4-17.3-8.7-23.6-2-5.4 5.3-3.4 16 4.4 23.9 7 7 15 9.2 22.2 6.8 4.7-1.6 16-10.7 22.7-14.1 2-1 2.7-2.3 4.7-1.6 4.5 1.6 15 5.4 22.6 5.8a42 42 0 0 0 24.2-5.8c5-2.8 9.2-7.7 11.2-11.3q3.4-6.2-3.8-15.9M60.8 89c-2.3 1-1.3-5.9-1.2-6.9a12 12 0 0 0-5.9-11.3c-4.6-2.7-9.7-2.5-11.6-3.2s.5-5 3.9-7.6c4.2-3.4 11-6.2 17-4.3 10.1 3.2 19 9.3 25 10.7 3.8.8 1 4.6-1.3 7.3-2.6 3.2-6.3 8.1-9.5 8.7-4.5.8-8.6.9-12 3.5-1.2.9-4 2.9-4.4 3" style="fill:#bc8346"/><path d="M115.7 91.3c4 1.1 4.3-1.3 3.4-4.2-1.3-4-4.8-8.9-10-11.1-6-2.7-5.6 2.2-3.7 6.2a19 19 0 0 0 10.3 9.1" style="fill:#e5b27f"/><ellipse cx="24" cy="106.7" rx="10.2" ry="14.7" style="fill:#ffe57f" transform="rotate(-45 23.98 106.72)"/></svg>