<svg xml:space="preserve" width="16" height="16" viewBox="0 0 128 128"><path d="m79 78.1 1.6 4.4s-2.5 1.1-2.2 4.7 3 5.6 5.2 5.9c2.8.4 5-2.5 4.6-5.7s-2.8-5.1-2.8-5.1v-3.8z" style="fill:#858585"/><path d="M28.7 27c0-.4 4-4 6.9-6.3 2.8-2.3 4.5-3.9 5.2-3.9s3 1.3 4.5 2.2c1.4.7 3.2 1.9 3.2 1.9l-3 5s-10 12.4-10.2 12.3z" style="fill:#00c1e9"/><path d="m35.6 35.6 7.8-9.3 5-5.4s1 .5 1 1.5q0 1.4-1.2 2.6c-.6 1-9.8 12.8-9.8 12.8z" style="fill:#0d9abb"/><path d="M75.3 44.4s35.6-32.8 36-33 2 .2 4.4 1a20 20 0 0 1 6.4 3l-.5 2.9S93.2 63.4 91.3 60.9s-16-16.5-16-16.5" style="fill:#00c1e9"/><path d="m92.7 58 28.2-41.1c.6-.8.1-1.7-.5-2.5l-1.3-1 3.2 1.6q2 1 1.9 2.3c-.2.8-28.9 44.4-29 44.1z" style="fill:#0d9abb"/><path d="M14.9 10s-.9-.7-1.4 0c-.5.5 4.3 27.5 4.3 27.5l11.5 8 26.7 24 24.8 9.8 5.8 2s5.5-3.8 5.5-4l-5.7-17.8-52.8-19.7z" style="fill:#9a9a9a"/><path d="M25.4 15.5c-1-1.2-10.5-5.5-10.5-5.5l14.4 31.3 2 2.1s6 6.2 12.6 11.1 11.9 7 16.6 9.5c5.7 3 10.4 4.6 14.2 6.2 4.5 2 8.5 3.1 10.6 5.8 1.8 2.5 1.3 5.2 1.3 5.2s3.8 1.8 8.5 2.8c4.6 1 14.7 2.4 17.3-3.7s-1-12.3-9.9-17.6-12.8-6-12.8-6l-2.5-6.8s-6.4-5.4-10.4-6.9-21-4.6-21-4.6L36 36.1s-9.8-19.7-10.6-20.6" style="fill:#c8c8c8"/><path d="M53.5 39.5c-.5 1 .1 2 5.1 3.4 4.7 1.5 7.2 2.5 9.8 3.5 2.5 1.1 6.2 3.2 8.2 3.8 2.1.6 4.6.9 6-1 1-1 0-3-3.1-5s-7.1-3.3-13.7-4.5-11.5-1.6-12.3-.2" style="fill:#e0e0e0"/><path d="M17.3 34.9c-.6.1-12.9 14-13 14.5-.2.5 1 2.3 1 2.3l7 3 20.4-14.2s-14.6-5.8-15.4-5.6" style="fill:#00c1e9"/><path d="M4.3 49.4s6.9 3.4 8.3 3.3 20.2-12.2 20.2-12.2 1.9 1.3.8 2.7A112 112 0 0 1 12.8 56c-1.8-.1-8.4-3-8.8-4-.7-1.7.3-2.7.3-2.7" style="fill:#0d9abb"/><path d="M54.2 67.7c-.9.3-9.4 11-11.5 13.6-1.9 2.2-22.9 26.7-23.5 27.9s1 2.7 1 2.7l11.8 4.7 38-31.3 8.3-10.8s-5.5-3.2-12.2-4.7-11-2.4-11.9-2" style="fill:#00c1e9"/><path d="M78.3 74.5s-44.9 39.8-46 40c-.7.2-5-.9-8.4-2.5-3-1.4-4.7-2.8-4.7-2.8s-1.3 1.4.3 3.6 10.8 6 12.4 5.8c1.7-.2 4.3-2.9 6.6-4.8l42-35.7s0-1.3-.5-2c-.7-1.2-1.7-1.6-1.7-1.6" style="fill:#0d9abb"/><path d="M56 70.9c-1.2-.6-2.6 1-3.8 2.5l-25.5 30.5c-.7 1-1.3 2.2-.2 2.8 1 .7 2.2-.5 3.2-1.8L56 73.6c.7-.8 1.7-1.9 0-2.7" style="fill:#b4ddfa"/><path d="M46.8 46.7q-1.3-.5-1.5 1c0 .8.3 4 .5 4.6.1.5 7 4.4 7.7 4.4.2 0 0-1.9-.2-3.5q-.2-3.5-.6-4.2c-.2-.2-5.3-2-6-2.4m10.2 3.7c-1.2-.4-.9.2-.9 1.2l1 6.5c0 .4 0 1 1.3 1.5l7.7 4c.5.3.7-.6.5-1.7s-.9-7.3-1.1-7.7-7.8-3.7-8.4-3.9m12.6 5.4q-1-.3-.8 1c0 .6 1.4 8 1.5 8.6q.2.9 1.7 1.5c.9.4 6.5 3 7.2 3.2s.9-.8.5-2-2-6.5-3.7-8.7c-1.3-1.8-5-3.1-6.4-3.7M86.5 50l-2.9 2.8c-2 1.8-4.3 3-4.2 4.1q.2 1.7 2.5 6c1.3 2.7 2.6 5.5 3 6 .8 1.3 2.5 1.7 3.8.8s2.8-2 4.6-4.1 2.3-3.4 2.2-5.1-7.3-9.7-7.7-10.1q-.3-.9-1.3-.3" style="fill:#3b5361"/><path d="M107.6 97.1c1 1.2 9-3.6 13.3-11 4-7 6.3-15.8 3.6-15.9s-2.2 5-3.3 8.7c-.7 2.4-2.4 7.1-6.9 11.6s-7.6 5.5-6.7 6.6M117 60c.5.8-5.7 1.9-12.2 10.6-6.8 9.3-6.4 13.9-6.4 15.5-.1 2.5-.6 4.8-2.3 4.3-1.1-.4-1.9-2.7-.4-8.9a33 33 0 0 1 10.7-17.2c6.8-5.2 10.2-5 10.6-4.3" style="fill:#e1e0df"/><path d="M111.9 74s1-4.4 3.9-8.3c2.8-4 5.4-6 6.5-6 1 .1 1.5.9 1.5.9L116 76.5l1.1 1.5c.6 1-.3 2.6-.3 2.6l-6.9 1.8-10.3 15.5s-1.8-.3-1.6-2.4c.1-2.2 1.7-6.3 4.2-9.5s6.1-4.8 6.1-4.8l.6-2.1s-1-1-.4-2.7c.9-2 3.3-2.5 3.3-2.5" style="fill:#799fae"/><path d="m114.2 75 2 1.5s3.3-3.8 5.1-7.5c1.7-3.5 3.6-7.8 2.5-8.4s-5.1 5-6.6 7.7-3 6.6-3 6.6m-5.6 1.5s.8 3 3.3 3.6c3 .9 5.3-2 5.3-2s1.3 2 .8 3.5c-.6 1.7-3.8 2.5-5.1 2.5h-2.3s-1.4 4.6-4 8.2c-2.1 3.2-5.7 6.6-6.9 5.7s1.4-5.3 3.2-8c2.3-3.7 6-6.8 6-6.8s-1-1.1-1-2.8c-.3-2.3.7-3.9.7-3.9" style="fill:#40717a"/></svg>