<svg xml:space="preserve" width="16" height="16" viewBox="0 0 128 128"><path d="M73.6 22.6v-18q0-.5-.7-.6H55q-.6 0-.7.7v18q0 .5-.6.6h-9.2q-1 .2-.5 1L63.5 44q.4.5 1 0L84 24.4a.7.7 0 0 0-.5-1.1h-9.2a1 1 0 0 1-.6-.7" style="fill:#f44336"/><path d="M117.6 124H10.4c-2.8 0-3.9-1.7-3.9-3.8v-69c0-2 1.7-3.8 3.9-3.8h107.2c2.2 0 3.9 1.7 3.9 3.8v69c0 2.1-1.7 3.8-3.9 3.8" style="fill:#fff"/><path d="M117.5 51.4V120h-107V51.4zm.1-4H10.4a4 4 0 0 0-3.9 3.8v69c0 2.1 1.1 3.8 3.9 3.8h107.2c2.2 0 3.9-1.7 3.9-3.8v-69c0-2-1.7-3.8-3.9-3.8" style="fill:#6fbff0"/><path d="m88 78.4 29-26.1c.6-.5 1.8-.8 1.8-.8s-1.4-1.4-3.1 0L70 87.7a10 10 0 0 1-6 2.1q-3.2 0-6-2.2L12.2 51.5c-1.7-1.3-3 .1-3 .1s1 .3 1.7.8L39.7 78 10 119.5c-.5.6.9 1.5 1.5.9L44 81.9l11.9 10.7q3.6 3 8.2 3.3 4.6-.1 8.2-3.3L84 82l31.7 38.4c.6.6 2-.3 1.5-.9z" style="fill:#6fbff0;stroke:#6fbff0;stroke-width:.5;stroke-miterlimit:10"/></svg>