<svg xml:space="preserve" width="16" height="16" viewBox="0 0 128 128"><radialGradient id="a" cx="63.6" cy="2584.9" r="57" gradientTransform="translate(0 -2522)" gradientUnits="userSpaceOnUse"><stop offset=".1" style="stop-color:#fac742"/><stop offset=".3" style="stop-color:#fac440"/><stop offset=".5" style="stop-color:#fbba3b"/><stop offset=".6" style="stop-color:#fba931"/><stop offset=".8" style="stop-color:#fc9224"/><stop offset=".9" style="stop-color:#fe7413"/><stop offset="1" style="stop-color:#ff5100"/></radialGradient><path d="M63.6 118.8c-27.9 0-58-17.5-58-55.9S35.7 7 63.6 7c15.5 0 29.8 5.1 40.4 14.4 11.5 10.2 17.6 24.6 17.6 41.5s-6.1 31.2-17.6 41.4a61 61 0 0 1-40.4 14.5" style="fill:url(#a)"/><path d="M111.5 29.7a57 57 0 0 1 8.1 30.2c0 16.9-6.1 31.2-17.6 41.4a61 61 0 0 1-40.4 14.5 59 59 0 0 1-48.2-23 58 58 0 0 0 50.2 26c15.4 0 29.8-5.2 40.4-14.5a54 54 0 0 0 17.6-41.4q-.1-19.2-10.1-33.2" style="fill:#d84213"/><path d="M84 103.1q-.6 0-1-.6a25.4 25.4 0 0 0-35.9-.7l-.7.7q-.3.5-.9.6-1.2.5-2.2-.4t-.5-2c3-7.7 11.9-13.7 22-13.7s18.8 6 21.8 13.6q.4 1.3-.5 2.1t-2.2.4M58.1 68.8A65 65 0 0 0 43.3 59a23 23 0 0 0-4.6-1.5q-2.1.2-2.7 2.3a3 3 0 0 0 1.7 3.3l7.1 3.9a8 8 0 0 0-3.8 6.7v1.5a7.5 7.5 0 0 0 15 0v-1.7q1.6-.1 2.5-1.6.8-1.7-.4-3m35.4-9.1a3 3 0 0 0-3.5-2.1q-2 .3-4 1.3a68 68 0 0 0-14.8 9.8q-1 1.4-.3 3a3 3 0 0 0 2.5 1.7v1.7a7.5 7.5 0 0 0 15 0v-1.5c0-2.7-1.4-5.3-3.8-6.7 2.8-1.6 5.6-3 7.2-3.8a3 3 0 0 0 1.6-3.4" style="fill:#422b0d"/><path d="M48.1 68.5a3 3 0 0 0-3.8 1.3q-.7 1.8.6 3.3c1.4.7 3.1 0 3.8-1.3q.8-2-.6-3.3m32.5 0a3 3 0 0 0-3.8 1.3q-.7 1.8.6 3.3c1.4.7 3.1 0 3.8-1.3q.8-2-.6-3.3" style="fill:#896024"/></svg>