<svg xml:space="preserve" width="16" height="16" viewBox="0 0 128 128"><linearGradient id="a" x1="64" x2="64" y1="119.5" y2="39.9" gradientTransform="matrix(1 0 0 -1 0 128)" gradientUnits="userSpaceOnUse"><stop offset="0" style="stop-color:#424242"/><stop offset=".3" style="stop-color:#353535"/><stop offset=".8" style="stop-color:#131313"/><stop offset="1" style="stop-color:#000"/></linearGradient><path d="M120 88H8a4 4 0 0 1-4-4V12a4 4 0 0 1 4-4h112a4 4 0 0 1 4 4v72a4 4 0 0 1-4 4" style="fill:url(#a)"/><linearGradient id="b" x1="64" x2="64" y1="119.5" y2="39.9" gradientTransform="matrix(1 0 0 -1 0 128)" gradientUnits="userSpaceOnUse"><stop offset="0" style="stop-color:#bfbebe"/><stop offset=".1" style="stop-color:#212121;stop-opacity:0"/><stop offset=".8" style="stop-color:#212121;stop-opacity:0"/><stop offset="1" style="stop-color:#bfbebe"/></linearGradient><path d="M120 88H8a4 4 0 0 1-4-4V12a4 4 0 0 1 4-4h112a4 4 0 0 1 4 4v72a4 4 0 0 1-4 4" style="opacity:.3;fill:url(#b)"/><linearGradient id="c" x1="4.6" x2="123.9" y1="80" y2="80" gradientTransform="matrix(1 0 0 -1 0 128)" gradientUnits="userSpaceOnUse"><stop offset="0" style="stop-color:#bfbebe"/><stop offset=".1" style="stop-color:#212121;stop-opacity:0"/><stop offset=".9" style="stop-color:#212121;stop-opacity:0"/><stop offset="1" style="stop-color:#bfbebe"/></linearGradient><path d="M119.8 88H7.8a4 4 0 0 1-4-4V12a4 4 0 0 1 4-4h112a4 4 0 0 1 4 4v72a4 4 0 0 1-4 4" style="opacity:.3;fill:url(#c)"/><path d="M12 16h24v4H12zm74 0h16v4H86zm22 0h8v4h-8zM20 28h8v4h-8zm-8 12h16v4H12zm0 12h8v4h-8zm86 0h12v4H98zm6-12h12v4h-12zM12 64h16v4H12zm84 0h20v4H96zm4-36h12v4h-12z" style="fill:#76ff03"/><path d="M98.9 79.8c-1.2-2.3.3-4.6 3-7.5a25 25 0 0 0 4.7-25.7c0-.1-.9-1.9-.8-2H104a3374 3374 0 0 0-80 0l-2.6 2a25 25 0 0 0 4.7 25.7c2.7 2.9 4.3 5.2 3 7.5s-4.8 2.5-4.8 2.5.8 2.2 2.8 3.5a12 12 0 0 0 5.7 1.4s6.2 8.5 22.3 8.5H73c16 0 22.2-8.5 22.2-8.5 1.6 0 3.8-.3 5.7-1.4 2-1.3 2.8-3.5 2.8-3.5s-3.6-.3-4.8-2.5" style="fill:#312d2d"/><radialGradient id="d" cx="99.6" cy="45.9" r="23.4" gradientTransform="matrix(1 0 0 .491 -21.06 59.5)" gradientUnits="userSpaceOnUse"><stop offset=".7" style="stop-color:#454140;stop-opacity:0"/><stop offset="1" style="stop-color:#454140"/></radialGradient><path d="M64 95.7v-9.4L92.6 84l2.6 3.2s-6.2 8.5-22.3 8.5z" style="fill:url(#d)"/><radialGradient id="e" cx="76.6" cy="49.4" r="6.9" gradientTransform="rotate(155 84.45 60.4)scale(1 .742)" gradientUnits="userSpaceOnUse"><stop offset=".7" style="stop-color:#454140"/><stop offset="1" style="stop-color:#454140;stop-opacity:0"/></radialGradient><path d="M95.1 83c-4.3-6.4 5.2-8.9 5.2-8.9-1.6 2.1-2.4 3.9-1.4 5.7 1.2 2.2 4.8 2.5 4.8 2.5s-5 4.4-8.6.8" style="fill:url(#e)"/><radialGradient id="f" cx="94.5" cy="69" r="30.4" gradientTransform="rotate(-94.3 89.8 63.26)scale(1 .833)" gradientUnits="userSpaceOnUse"><stop offset=".7" style="stop-color:#454140;stop-opacity:0"/><stop offset="1" style="stop-color:#454140"/></radialGradient><path d="M106.6 46.6c4.3 10.3-.2 21-4.4 25.5-.6.6-3 3-3.6 4.9 0 0-9.5-13.3-12.3-21.1q-1-2.4-1.2-5-.2-2 .9-3.7a111 111 0 0 1 20.1-1.7z" style="fill:url(#f)"/><radialGradient id="g" cx="44.3" cy="69" r="30.4" gradientTransform="rotate(94.3 -.7 99.37)scale(-1 .833)" gradientUnits="userSpaceOnUse"><stop offset=".7" style="stop-color:#454140;stop-opacity:0"/><stop offset="1" style="stop-color:#454140"/></radialGradient><path d="M21.4 46.6c-4.2 10.3.2 21 4.4 25.5.6.6 3 3 3.6 4.9 0 0 9.5-13.3 12.4-21.1q.9-2.4 1.1-5 .1-2-.8-3.7c-1-1.4-2-1-3.5-1-2.8 0-15.5-.7-16.4-.7z" style="fill:url(#g)"/><radialGradient id="h" cx="49.4" cy="45.9" r="23.4" gradientTransform="matrix(-1 0 0 .491 98.88 59.5)" gradientUnits="userSpaceOnUse"><stop offset=".7" style="stop-color:#454140;stop-opacity:0"/><stop offset="1" style="stop-color:#454140"/></radialGradient><path d="M64 95.7v-9.4L35.5 84l-2.6 3.2S39 95.7 55 95.7z" style="fill:url(#h)"/><radialGradient id="i" cx="26.4" cy="49.4" r="6.9" gradientTransform="rotate(205 4.66 51.75)scale(-1 .742)" gradientUnits="userSpaceOnUse"><stop offset=".7" style="stop-color:#454140"/><stop offset="1" style="stop-color:#454140;stop-opacity:0"/></radialGradient><path d="M33 83c4.2-6.4-5.3-8.9-5.3-8.9q2.7 3 1.4 5.7c-1.2 2.2-4.8 2.5-4.8 2.5s5 4.4 8.6.8" style="fill:url(#i)"/><path d="M91.3 50.3H36.7c-6 0-10.7 5.2-10.7 11.5s4.8 11.4 10.7 11.4h54.6c6 0 10.7-5.2 10.7-11.5s-4.8-11.4-10.7-11.4" style="fill:#edc391"/><path d="M64 11c-17.4 0-33.5 18.6-33.5 45.4C30.5 83 47 96.2 64 96.2S97.5 83 97.5 56.4C97.5 29.6 81.4 11 64 11" style="fill:#f9ddbd"/><path d="M54.8 49.7c-1-1.2-3-3-7.2-3s-6.3 1.8-7.3 3q-.5 1 0 1.6t2 .4c1.4-.2 2.5-1.2 5.3-1.2s4.5.9 5.3 1.2q1.4.3 2-.4.4-.6-.1-1.6m32.9 0c-1-1.2-3.1-3-7.3-3s-6.3 1.8-7.2 3q-.5 1 0 1.6t1.9.4c1.5-.2 2.5-1.2 5.3-1.2s4.5.9 5.4 1.2q1.3.3 1.9-.4t0-1.6" style="fill:#454140"/><ellipse cx="47.6" cy="58.7" rx="4.9" ry="5.1" style="fill:#312d2d"/><ellipse cx="80.4" cy="58.7" rx="4.9" ry="5.1" style="fill:#312d2d"/><path d="M72.4 76a26 26 0 0 1-16.8 0c-1.8-1-3.7.6-3 2.3s6.5 5.4 11.4 5.4 10.6-3.8 11.3-5.4-1-3.3-2.9-2.2" style="fill:#444"/><path d="m67.9 68-.4-.1h-7.4q-1 .5-.6 1.7c.3.7 1.7 2.7 4.5 2.7s4.3-2 4.6-2.7q.3-1.2-.7-1.6" style="fill:#dba689"/><path d="M104 25c-2.4-3.7-7.8-8.6-12.8-9-.7-4.7-5.8-8.7-10.7-10.2-13.2-4.2-21.8.5-26.4 3-1 .5-7.2 4-11.5 1.5-2.8-1.5-2.7-5.7-2.7-5.7s-8.5 3.2-5.6 12.3a10 10 0 0 0-8.8 5.4c-2.4 5-1.6 9-.9 11a11 11 0 0 0-3.5 12.6c1.6 4.4 8.2 6.5 8.2 6.5-.7 10.7 2.2 16 2.2 16s4.7-18.5 4.3-21.3c0 0 7.8-1.6 16.6-6.6 6-3.4 10-7.4 16.7-9 10.2-2.2 12.5 5.2 12.5 5.2s9.4-1.8 12.2 11.2c1.2 5.4 2 14.3 2.6 19.8 0-.5 3.2-6.3 3.9-12.3.1-1.6 4.3-3.6 6.1-10.3 2.4-8.9-.6-17.4-2.3-20" style="fill:#312d2d"/><radialGradient id="j" cx="82" cy="85" r="35.6" gradientTransform="rotate(72 9.15 -10.07)scale(1 -.742)" gradientUnits="userSpaceOnUse"><stop offset=".7" style="stop-color:#454140;stop-opacity:0"/><stop offset="1" style="stop-color:#454140"/></radialGradient><path d="M100.2 55.4c.2-1.5 4.4-3.6 6.2-10.3l.5-2.1c1.4-8-1.2-15.5-2.8-18a22 22 0 0 0-11.7-8.8l-1.2-.1s.3 2.1-.5 3.8a5 5 0 0 1-3.4 2.8c12 12 11 22 13 32.7" style="fill:url(#j)"/><radialGradient id="k" cx="47.3" cy="123.9" r="9.3" gradientTransform="rotate(28.2 -253.3 -71.38)scale(1 -1.186)" gradientUnits="userSpaceOnUse"><stop offset=".6" style="stop-color:#454140"/><stop offset="1" style="stop-color:#454140;stop-opacity:0"/></radialGradient><path d="m57 7.3-3 1.5c-1 .5-7.1 4-11.5 1.5C40 8.8 40 4.7 40 4.6c-1.3 1.6-5 12.8 5.9 13.5 4.7.3 7.6-3.8 9.3-7.2z" style="fill:url(#k)"/><radialGradient id="l" cx="159" cy="62.8" r="28.7" gradientTransform="matrix(-.938 -.394 -.218 .528 230.93 50.57)" gradientUnits="userSpaceOnUse"><stop offset=".7" style="stop-color:#454140;stop-opacity:0"/><stop offset="1" style="stop-color:#454140"/></radialGradient><path d="M79.2 5.4c7.3 2 11.2 5.9 12 10.7.3 1.4.8 15-25.2-.4-9.7-5.8-7-9.4-5.9-9.8a31 31 0 0 1 19-.5" style="fill:url(#l)"/><radialGradient id="m" cx="43.5" cy="115.4" r="8.6" gradientTransform="matrix(1 0 0 -1.223 0 153.76)" gradientUnits="userSpaceOnUse"><stop offset=".7" style="stop-color:#454140;stop-opacity:0"/><stop offset="1" style="stop-color:#454140"/></radialGradient><path d="M39.8 4.6c-1 .4-8.3 3.8-5.5 12.3L42 18c-6.8-6.9-2-13.4-2-13.4" style="fill:url(#m)"/><radialGradient id="n" cx="42.3" cy="100.2" r="16.1" gradientTransform="rotate(15 249.74 381.12)scale(-1 .936)" gradientUnits="userSpaceOnUse"><stop offset=".7" style="stop-color:#454140;stop-opacity:0"/><stop offset="1" style="stop-color:#454140"/></radialGradient><path d="m39 17.6-4.7-.7H33a10 10 0 0 0-7.7 5.4 14 14 0 0 0-1.2 9.4l.4 1.6s2.4-2.3 8-2.4z" style="fill:url(#n)"/><radialGradient id="o" cx="38.5" cy="84.7" r="16.9" gradientTransform="rotate(187.8 -2.6 78.52)scale(-1 1.405)" gradientUnits="userSpaceOnUse"><stop offset=".6" style="stop-color:#454140;stop-opacity:0"/><stop offset="1" style="stop-color:#454140"/></radialGradient><path d="M24.4 33.5A11 11 0 0 0 21.2 46c1.7 4.4 8 6.3 8 6.3s1.3.4 2 .4l1.4-22c-3 0-5.9 1-7.8 2.3z" style="fill:url(#o)"/><linearGradient id="p" x1="5.6" x2="22.5" y1="9.8" y2="9.8" gradientTransform="matrix(1 0 0 -1 0 128)" gradientUnits="userSpaceOnUse"><stop offset="0" style="stop-color:#fb8c00"/><stop offset=".5" style="stop-color:#f67f00"/><stop offset="1" style="stop-color:#ef6c00"/></linearGradient><path d="M7.6 124h12.9c1-.1 2-1.2 2-2.5v-.7c0-3.6-1.6-6.7-4-8.4v.4c0 4.1-2 7.4-4.4 7.4s-4.5-3.3-4.5-7.4v-.4c-2.4 1.7-4 4.8-4 8.4v.7c0 1.3 1 2.4 2 2.5" style="fill:url(#p)"/><path d="M14 120.2c9 0 4.5-3.3 4.5-7.4v-.4q-2-1.5-4.5-1.5c-2.5 0-3 .5-4.4 1.5v.4c0 4.1-4.6 7.4 4.5 7.4" style="fill:#e14301"/><linearGradient id="q" x1="20.4" x2="10.7" y1="15.1" y2="28.9" gradientTransform="matrix(1 0 0 -1 0 128)" gradientUnits="userSpaceOnUse"><stop offset="0" style="stop-color:#ffd29c"/><stop offset=".5" style="stop-color:#f9ddbd"/></linearGradient><path d="M28 106.8c-.1-2.8-2.2-8.7-5-9.2l-.4-.2c-.5-.7-1.9-2.5-4.5-1Q16.6 97 17 98q-.1.2-.7.2-1.5-1.9-3.8-.3c-1.7 1.4-1.7 2.3-1.4 3.2 0 0 0 .7-.5.6q-.7-.7-2.1.3c-2.6 1.9-1.6 3.7-1.1 4.7l-.3.2q-.6-.3-1.4.1c-1.4.8-1.2 3.4-.8 4.3l3.6 5 .6.5c.7.4 2 1 3.2.2 0 0 .8-.5.8-1.1 1.3.7 3.1-.7 3.1-.7q1.3-1 1-2 .8.4 1.4.4c1.4 0 2.6-.8 2.6-.8 2-1 2.4-2.2 2.4-3 1 .6 2.2.1 2.2.1 2.3-1 2.2-3.1 2.2-3.1" style="fill:url(#q)"/><linearGradient id="r" x1="99.2" x2="120.8" y1="9.2" y2="9.2" gradientTransform="matrix(1 0 0 -1 0 128)" gradientUnits="userSpaceOnUse"><stop offset="0" style="stop-color:#fb8c00"/><stop offset=".5" style="stop-color:#f67f00"/><stop offset="1" style="stop-color:#ef6c00"/></linearGradient><path d="M108 124h12.8s.6-9.8-15.2-10.3S108 124 108 124" style="fill:url(#r)"/><linearGradient id="s" x1="141.6" x2="131.9" y1="10.2" y2="24" gradientTransform="matrix(-1 0 0 -1 248.64 128)" gradientUnits="userSpaceOnUse"><stop offset="0" style="stop-color:#ffd29c"/><stop offset=".5" style="stop-color:#f9ddbd"/></linearGradient><path d="M99.5 111.6c0-2.8 2.2-8.7 5-9.1l.4-.3c.4-.7 1.8-2.5 4.4-1q1.5.7 1.1 1.6.3.3.7.2 1.5-1.8 3.8-.2c1.7 1.3 1.7 2.2 1.4 3.2 0 0 0 .6.6.6q.6-.8 2 .2c2.7 2 1.6 3.7 1.1 4.7l.4.2q.4-.3 1.3.2c1.4.7 1.2 3.3.8 4.2s-2.8 4.2-3.6 5.1l-.6.4c-.7.5-2 1-3.2.3 0 0-.7-.6-.8-1.2-1.3.7-3.1-.6-3.1-.6q-1.2-1-1-2l-1.4.3c-1.4 0-2.6-.7-2.6-.7-2-1.1-2.4-2.3-2.3-3-1 .6-2.3 0-2.3 0-2.2-1-2.1-3-2.1-3" style="fill:url(#s)"/><path d="m116.2 121.6-.4-.4h-.1q-.6-.4.4-1.8c2-2.7 2.8-4.7 2.8-4.7.5-1.4.3-1.6.3-1.6-.2-.3-.6.6-.6.6a26 26 0 0 1-4 5.8l-.4.2h-.5l-.2.1h-.5l-1-.5v-.1l-.2-.2-.1-.1-.1-.1-.1-.3-.2-.4v-.9l.1-.4v-.1c2.4-3.2 3.5-6 3.5-6l.6-1.6c-.3-.5-.7.2-.7.2-2.6 4.8-4.1 6.7-4.1 6.7s-1.2 2.2-3.9.6c0 0-1.3-.9-1.5-1.5q-.5-.6.3-2.6s1.6-3.2 4.2-7.3c0 0 .2-.6-.4-.3l-1 1s-1.5 2.1-3.7 6.3c0 0-.5 1-1.1 1.4q-1 .4-2-.5c-1.8-1.2-1.2-3-.2-4.9l3.2-5.1q.5-.1.8-.5c.9-1.4.2-2.6-1-.7-3.2.5-5.5 6.7-5.6 9.7 0 .1 0 2.6 2.5 3.8q.3.2 2 .1.3 1.3 2.6 2.7s1.4.9 2.9.9q.5 0 .8-.2.2.9 1.2 1.7s1.6 1.2 3.1.9q.5.7.9.8.7.5 1.4.5h.5q1 0 2-.6a17 17 0 0 0 3.7-6s-3.3 5.8-6.2 5.4m-87.8-15.4c0-3-2.3-9.2-5.5-9.7-1.2-2-2-.7-1 .7q.2.3.8.5l.3.1 2.8 5c1 1.9 1.6 3.7 0 5q-1.3.7-2.2.4c-.5-.5-1-1.4-1-1.4a56 56 0 0 0-3.8-6.2q-.3-.5-1-1c-.6-.4-.4.2-.4.2 2.6 4.1 4.2 7.4 4.2 7.4q.9 1.8.4 2.6c-.3.5-1.6 1.4-1.6 1.4-2.6 1.6-3.8-.5-3.8-.5s-1.6-2-4.2-6.8c0 0-.4-.7-.6-.2l.5 1.6s1.2 2.8 3.5 6v.1l.1.4v1.2l-.1.1-.1.3h-.1l-.2.3-.5.4-.6.2H14l-.4.1h-.5l-.2-.1-.4-.2c-.6-.7-2-2.2-4-5.8 0 0-.4-.9-.6-.6 0 0-.2.3.4 1.6 0 0 .8 2 2.8 4.7q.9 1.4.3 1.8l-.5.4c-2.8.5-6.2-5.4-6.2-5.4 0 .5 2.2 4.9 3.8 6q1 .6 2 .6h.4q.7 0 1.5-.4l.8-1c1.5.4 3-.8 3.1-.8q1-.8 1.2-1.7l.8.2a6 6 0 0 0 3-.9q2.2-1.4 2.5-2.7c1 .2 2-.1 2-.1a4 4 0 0 0 2.5-3.8" style="fill:#edbd82"/><linearGradient id="t" x1="64" x2="64" y1="53.5" y2="-14.9" gradientTransform="matrix(1 0 0 -1 0 128)" gradientUnits="userSpaceOnUse"><stop offset="0" style="stop-color:#4dd0e1"/><stop offset="1" style="stop-color:#00bcd4"/></linearGradient><path d="M110 124V81.2c0-3.6-3-6.5-6.5-6.5h-79a6.5 6.5 0 0 0-6.5 6.5V124z" style="fill:url(#t)"/><linearGradient id="u" x1="64" x2="64" y1="35.4" y2="-3.9" gradientTransform="matrix(1 0 0 -1 0 128)" gradientUnits="userSpaceOnUse"><stop offset="0" style="stop-color:#00bcd4"/><stop offset="1" style="stop-color:#0097a7"/></linearGradient><path d="m79 124-2.1-6.4a89 89 0 0 1-2.2-18c-.1-3.3-3-6-6.4-6h-8.6a6.4 6.4 0 0 0-6.4 6 89 89 0 0 1-2.2 18L49 124z" style="fill:url(#u)"/></svg>