<svg xml:space="preserve" width="16" height="16" viewBox="0 0 128 128"><path d="M93.4 13.5c-2.4-4.3-8-7.7-12.8-7.2-5.4.7-8.5 4.4-9.5 9.3q-.4 2.7-.1 4.8l.3 1.6c.1 1.3-2.5 2.5-2.9 4-.3 1 2 1.8 2.2 2 .8 1-1.4 5.4 4.9 6 2.1.3 2.3 0 2.7.2.3.2-1.6 3.5-1.6 3.5h10s1-6.7 4.6-10.3c3.2-3.2 3.7-11.2 2.2-14" style="fill:#a56c43"/><path d="M70.8 29.3H73c1-.4 1.4.3.6.8s-1.9.6-2.7.5z" style="fill:#473530"/><ellipse cx="74.7" cy="22.8" rx="1.8" ry="1.1" style="fill:#42312c" transform="rotate(-89.2 74.68 22.82)"/><path d="M74 20.2c-1.2.2-1.4-.6-1-1.1q.4-.7 2.3-.4 1.7.8 2 1.6.3 1.1-.1 1c-.4 0-1.9-1.4-3.3-1.1" style="fill:#42312c"/><path d="M97.4 15.3c-1-4-4.2-5.2-4.2-5.2s-.4-6-9-6.1c-2.7 0-4.7 1.3-6.3 1.8S75 5.8 75 3.5q-3 .8-2.3 4.5c-1.8.1-2.6 1.5-3.2 3.1a4 4 0 0 0 1.6 4.7c.7-1.7 2.6-1.4 4.3-1a12 12 0 0 0 5.2-.3h.2c1.7 1.3-.4 4.2 1.2 7q.7.7.7.5l1-1q1.2-1.4 2.2-1c2.2.8 1.1 4.7-1.7 5.1-.3 0 .7 2.8.8 3 1.7 2.2 3.1 2 4.5 2.4 2 .4 3.3-1 3.3-1s-2.2-1.5 1-3.5 2-5.2 2-5.2 2.2-2.4 1.5-5.5" style="fill:#3c2c23"/><radialGradient id="a" cx="87.9" cy="118.3" r="13" gradientTransform="rotate(86.8 31.65 -32.29)scale(1 -.742)" gradientUnits="userSpaceOnUse"><stop offset=".7" style="stop-color:#554138;stop-opacity:0"/><stop offset="1" style="stop-color:#554138"/></radialGradient><path d="M92.8 23.9c2-2 5.8-4.4 4.3-9.4a7 7 0 0 0-4-4.4s0 .7-.5 1.2-1.8.5-1.8.5c3 5.2 2.3 8.2 2 12" style="fill:url(#a)"/><radialGradient id="b" cx="75.5" cy="125.7" r="3.5" gradientTransform="matrix(.835 .55 .652 -.99 -66.58 86.56)" gradientUnits="userSpaceOnUse"><stop offset=".6" style="stop-color:#554138"/><stop offset="1" style="stop-color:#554138;stop-opacity:0"/></radialGradient><path d="M82 4.2c-.8.2-2.5 1-2.8 1-.4.2-1.8 1-2.8.7-1.4-.4-1.2-2.1-1.2-2.4-.4.8-1.2 4.7 1.7 5.2 1.7.3 3-1.1 3.7-2.4z" style="fill:url(#b)"/><radialGradient id="c" cx="73.9" cy="121.7" r="3.1" gradientTransform="rotate(5.2 -1650 -52.1)scale(1 -1.223)" gradientUnits="userSpaceOnUse"><stop offset=".6" style="stop-color:#554138;stop-opacity:0"/><stop offset="1" style="stop-color:#554138"/></radialGradient><path d="M72.8 8s1-.1 2.2.5c-1.1-1 .2-5 .2-5-.3.1-3.3.8-2.4 4.5" style="fill:url(#c)"/><radialGradient id="d" cx="64.1" cy="114.4" r="6.6" gradientTransform="matrix(.883 .28 .397 -1.346 -27.2 150.08)" gradientUnits="userSpaceOnUse"><stop offset=".6" style="stop-color:#554138;stop-opacity:0"/><stop offset="1" style="stop-color:#554138"/></radialGradient><path d="M72.8 8c-2 .1-3 2.1-3.3 3.4q-.4 1.1 0 2.2c.5 1.5 1.4 2 1.7 2.2L75 8.5c-.6-.3-1-.6-2.2-.5" style="fill:url(#d)"/><radialGradient id="e" cx="142.2" cy="66.2" r="10.2" gradientTransform="matrix(-.863 -.54 -.353 .574 230.57 48.62)" gradientUnits="userSpaceOnUse"><stop offset=".6" style="stop-color:#554138;stop-opacity:0"/><stop offset="1" style="stop-color:#554138"/></radialGradient><path d="M89.3 5c2.4 1 3.7 3.3 3.9 5 0 .6-.9 4.7-9-2-3-2.6-2.6-3.6-2.2-3.8a12 12 0 0 1 7.3.8" style="fill:url(#e)"/><radialGradient id="f" cx="343.3" cy="36" r="3.3" gradientTransform="rotate(189.5 218.52 37.4)scale(1 .742)" gradientUnits="userSpaceOnUse"><stop offset=".5" style="stop-color:#554138"/><stop offset="1" style="stop-color:#554138;stop-opacity:0"/></radialGradient><path d="M89.5 27.6c0-3.5 5.3-2.3 5.3-2.3l-1 .8q-1.2.7-1.6 1.7c-.3 1 .7 1.7.7 1.7s-3 .4-3.4-1.9" style="fill:url(#f)"/><radialGradient id="g" cx="93.5" cy="105.4" r="4.4" gradientTransform="rotate(141 9 83.82)scale(-1 .742)" gradientUnits="userSpaceOnUse"><stop offset=".7" style="stop-color:#554138;stop-opacity:0"/><stop offset="1" style="stop-color:#554138"/></radialGradient><path d="M96 20.8s-2.8 3-3.5 3.2c-.9.1 1.5 2 1.5 2s3-1.7 2-5.2" style="fill:url(#g)"/><path d="M39 107q1 .3 1.5-.7l.8-2.6c.6-1.8-.5-4.5-.5-4.5l-6.6-2h-6.6a4 4 0 0 0-3.5 2.7l-.4 1.2q-.1.8.7 1.2z" style="fill:#4568ad"/><path d="M82.3 65.5H63.8L62.6 69l-12.1 2.1c-4.4.8-8 1.3-11.1 8.8l-6.8 17 9.4 4 9-17.7s15.2.7 24.7-.5c9.5-1.3 6.6-17.2 6.6-17.2" style="fill:#7c7c7c"/><radialGradient id="h" cx="73.8" cy="50.4" r="16.4" gradientUnits="userSpaceOnUse"><stop offset=".5" style="stop-color:#f58b21"/><stop offset=".7" style="stop-color:#f17e22"/><stop offset="1" style="stop-color:#ec6e24"/></radialGradient><path d="M62 69s1.8-13.5 6.8-23c2.8-5.3 4.6-7.3 7-8.9 3-1.8 8.8-3 11.2-.1 2.3 2.8 1.6 4 1.2 7l-6.5 29.2C71 74.2 62 69 62 69" style="fill:url(#h)"/><circle cx="99.7" cy="117.2" r="6.8" style="fill:#78909c"/><circle cx="99.7" cy="117.2" r="2.9" style="fill:#afb8b6"/><path d="M99.7 114.8a2.4 2.4 0 1 1 0 4.8 2.4 2.4 0 0 1 0-4.8m0-1a3.4 3.4 0 1 0 0 6.8 3.4 3.4 0 0 0 0-6.8" style="fill:#37474f"/><path d="M99.7 99.8q-1.2 0-1.3.6v1.3h-13v5.5h13v9.8q.1 1.3 1.3 1.4 1.6-.1 1.4-1.4v-16.6q-.1-.5-1.4-.6" style="fill:#616161"/><path d="M47.6 124a6.8 6.8 0 1 1 0-13.7 6.8 6.8 0 0 1 0 13.7" style="fill:#607d8b"/><path d="M47.6 120.1a3 3 0 1 1 0-5.8 3 3 0 0 1 0 5.8" style="fill:#afb8b6"/><path d="M47.6 114.8a2.4 2.4 0 1 1 0 4.8 2.4 2.4 0 0 1 0-4.8m0-1a3.4 3.4 0 1 0 0 6.8 3.4 3.4 0 0 0 0-6.8" style="fill:#37474f"/><path d="m46.2 101.4-4.8 5.2-.4.1-17.7-5.9h-.6a1.7 1.7 0 0 0-.5 3.3l18.4 6a4 4 0 0 0 4.1-.7l1.6-1.7v9.3q.1 1.3 1.4 1.4c1.3 0 1.3-.6 1.3-1.4v-12.2z" style="fill:#616161"/><path d="M47.3 107.4c-1.6 0-3.1-1.3-3.1-2.9v-1.1q.5-1.6 1.4-2.6l8.2-7.8 2.7 14.4z" style="fill:#c62828"/><path d="M58.3 110c-2.3 0-2.8-1.4-3.2-4.4l-2.1-15h36.9l-2.2 15c-.3 3-.8 4.3-3 4.3z" style="fill:#f44336"/><path d="m53 90.8.3 1.4h36.3l.3-1.6zm18.4 4.7c-8 0-14.4 5.6-14.4 12.5 0 1 .1 1 .4 2l28-.1c.3-1 .5-1 .5-2 0-6.8-6.5-12.4-14.5-12.4" style="fill:#c62828"/><path d="M71.4 124a12.8 12.8 0 1 1 0-25.7 12.8 12.8 0 0 1 0 25.7" style="fill:#78909c"/><path d="M71.4 117.1a6.2 6.2 0 1 1 0-12.4 6.2 6.2 0 0 1 0 12.4" style="fill:#afb8b6"/><path d="M71.4 105.2a5.7 5.7 0 1 1 0 11.4 5.7 5.7 0 0 1 0-11.4m0-1a6.7 6.7 0 1 0 0 13.4 6.7 6.7 0 0 0 0-13.4" style="fill:#2f3b4b"/><path d="M71.4 108.4a2.5 2.5 0 1 0 0 5 2.5 2.5 0 0 0 0-5" style="fill:#141111"/><path d="m92 38.8 1.2-5.6 3 .6-1.2 5.5z" style="fill:#757575"/><path d="M96.5 35h-.4l-3.8-.6q-1.1-.2-1.8-1-.6-1-.5-2.1l2-12a2.7 2.7 0 0 1 3-2.3l3.8.6c1.5.2 2.5 1.6 2.3 3l-2 12.1a3 3 0 0 1-2.6 2.3" style="fill:#424242"/><path d="M94 19.5c.4-2.2 3.5-2.1 3.5-2.1L95 17h-.4c-1.3 0-2.5 1-2.7 2.3l-1.9 12q-.1 1 .5 2c.3.4 2.9-11.6 3.4-13.8" style="fill:#616161"/><path d="M96.7 42.9q.4-2.5-.8-4a4 4 0 0 0-3.4-1.6q-3 0-4.6 3.9c-2.2 5.5-4.8 13.5-6.5 21.6-1.8-.1-7.7-.3-12.6-.3l-6.2.2c-2.4.2-4 .6-3.8 3.1.1 2 .6 2.5 3.9 2.6l17.5.9-.4 4.7c-.3 4.9 1.8 7.6 4.4 9.1l-31.1.2q-1.3.1-1.5 1.4v4.6a1.5 1.5 0 0 0 1.4 1.5l36 .2q1 0 1.8-.8.6-.5.7-2.9 0-3.3-.2-3.3l.4-1c1.3-9.7 4.4-32.8 5-40.1M68.4 86.8c-.7-1-2.5-4-2.5-10.1 0-6.3 1.8-9.2 2.5-10.2l4.5 2c-.7 1-2 3.6-2 8.2s2.1 8.8 3.6 10.7zM54.7 66.6v-.9q0-1.4.6-2.6l.3-.5q.3-1.5-1-2.1c-1.4-.6-2 .1-2.3 1q-.1.9.3 1.6.6 1 .5 2.2v1.3c0 .2 1.5.3 1.5 0m4.6-2.2-1.7 1.7h-7L44 62.7c-.4-.2-1.5.4-.6 1.2l7.7 5.4q.7.5 1.5.5h2.5q2 0 3.2-2.2l.9-1.4z" style="fill:#424242"/><path d="M82 62.8c-.2 0-7.4-.3-13.2-.3q-3.9 0-5.7.2h-.5c-1.6.2-2.9.4-3.4 1.4.4.7 1.3 1 3.5 1l18 1c2.6 0 6 .1 5.7-1.4-.1-1.4-2.8-2-4.5-2" style="fill:#757575"/><path d="M80.3 69.3h3.3q1.6 0 2.8-1.2.2 1.5-1 2.5-1 1-2.5 1-1.5.3-3 .1" style="fill:#212121"/><path d="M54 60.7q1.2.4.6 1.3-.6 1.1-1.6.8-.7-.5-.4-1.4.6-.9 1.5-.7M51 67.3l5.9.2.6-1.4h-7L44 62.7l.2.4z" style="fill:#757575"/><path d="M71.4 72.4q.5-2.3 1.2-3.5l-5.3-.2q-.4.8-.7 2c.8 0 2.5.1 4.8 1.7" style="fill:#212121"/><path d="M61.9 108c.7-3 3-5.5 6-6.4" style="opacity:.8;fill:none;stroke:#94d1e0;stroke-width:2;stroke-linecap:round;stroke-miterlimit:10"/><radialGradient id="i" cx="59.5" cy="69.5" r="22.6" gradientTransform="rotate(181.6 -.2 64.07)scale(-1 1)" gradientUnits="userSpaceOnUse"><stop offset=".5" style="stop-color:#a56c43"/><stop offset="1" style="stop-color:#8d5738"/></radialGradient><path d="M84 50.4c.1-.3-9-2.5-9-2.5l-3.2 7.3-9 2-2.6.2c-1 0-5.2-1-5.2-1q-1.2-.3-2.1.4L48.2 60c-1.5 1-.5 2.8 1 2.3l4-1.7 2.1.5s1 1.6 3.5 1.8q.9 0 1.8-.3H73c5.3.2 6-1.3 7.1-3.3.8-1.5 4.1-8.8 4-9" style="fill:url(#i)"/><path d="m86.2 45.4-3 9.3-.6-.2-8.9-2.8-.9-.2 2.9-9.4a5.5 5.5 0 1 1 10.5 3.3" style="fill:#ec6e24"/></svg>