<svg xml:space="preserve" width="16" height="16" viewBox="0 0 128 128"><path d="m60.6 29.8-17.8 13-11.6 9.7s-5.3 3.6-6.7 4c-1.3.3-4.6-10-7.2-10.7-6.2-1.5-12.8-3.3-12.6.8 0 2 7.2 2.2 8.6 3.2s4 11.7 8.3 13.8 16.5-5 16.5-5l.4 2.3S28 66.4 27.4 69.4c-.8 3 0 19 1.1 20.7.8 1.1.7 1.6.4 2.4s0 4.2.6 6.9c.8 3.6 2.7 6.3 4 5.9 3.6-1.2-.5-9.7.9-13.3.7-2 .1-6.9-.2-10.5-.3-3.7-.9-5.1-.4-7 .6-1.7 5.3-5 8.2-6 2.9-1.2 4.1 5.8 4.1 5.8s-3.4-1.5-6 2.5q-1.9 2.7 3.8 11.5c3.7 6 11.4 14.8 11.7 16.3s-.6 3.7-.1 5c.4 1.1 6.7 16.1 10.3 14.8 4.2-1.7-4.7-12.9-4.2-16.7.2-1.7 1.3-3.3.7-5.4-1-3.1-13.6-22.3-13.6-22.3l37.9-22.9s11.8 17.6 15 19.2l13.5 7.2c2 1 7.4 3.4 8 2 1-2.3-2.4-5.2-6.1-7.6a40 40 0 0 1-9.8-7c-1-3-2.7-9-4.7-12.4s-11-12.8-11-12.8l-6.7-7.4s5.2 2.7 7.3 3 6.7.2 8.4.3 4.6 1 5.5 0c1.2-1.7-4.5-4.7-7.4-4.8s-6.2-.6-7.1-.7c-1 0-15.6-12.4-19.7-8.5-1.4 1.4-.3 6.8-.3 6.8l-1.4-2s.3-12-2-15.4-12.9-3.6-14.3-5.5S55 3.6 51 4.1c-2.3.3-2.7 10.1-1.2 11.7s9.7 2.3 12 5.8c.1 4.5-1.2 8.1-1.2 8.1M36.3 41.5l15.5-16.3S52.3 23 49 22c-2-.5-4.9 0-4.9 0s-3.7-1.8-5.9-2-5 .6-5 .6-3.3-3-5.5-2.6-1.5 2.6-2.3 3.3c-1 .6-2.3.2-3 2.1s3 6.4 3 6.4-1.3 6.8.9 10.7c2.1 3.9 4.4 6.5 4.4 6.5z" style="fill:#728037"/><ellipse cx="39.1" cy="24.9" rx="2.5" ry="2.7" style="fill:#2f2f2f" transform="rotate(-73.5 39.07 24.95)"/><ellipse cx="31.7" cy="32.1" rx="2.8" ry="2.9" style="fill:#2f2f2f" transform="rotate(-71 31.7 32.12)"/><path d="M26.6 7q-1.9 2 3.3 5.5c3.3 2.3 4.6 3 4.6 3s.1 2.2.4 3.4c.7 2.6 2.4 2.9 4.4 2.8 3-.1.5-2.7 0-4.6-.4-1.5-.2-3.6-1.2-4.4l-2.6-2.4s3-5 .3-6.2c-2-1-4 3.6-4 3.6s-4-2.2-5.2-.7M7.5 25.4c-.4 1.8 3.2 2.8 3.5 3.3 0 0-3.6 2.9-2.4 4.7 1.5 2.4 5.5-1.5 5.8-1.6.3 0 1.6 3.4 3.2 3.7s5-3.2 6.9-2c1 .5 1 1 2.4.8s1.2-4.2-2-5.5c-3-1.3-6.2 1.4-6.2 1.4s-.7-2.1-3-4c-2-1.8-7.4-4-8.2-.8" style="fill:#4e5725"/><path d="M66.9 29.7s-.5-5.8-5.8-7.1-11.4-1-19.2 5.4c-7 5.7-17.2 15.3-12.2 24.3 1.8 3.3 4.8 3.6 4.8 3.6s-1.8 3.9 1 9.7C38 70.6 47 87.4 67 93.9c20.9 6.8 32-6.6 33.8-11.5.6-1.6 5.5-12.2-1.3-28.7a40 40 0 0 0-25.7-23.8c-4.5-1.6-7-.2-7-.2" style="fill:#02ab47"/><path d="M42.6 31c-4 3.7-12.4 13.4-7.7 15.6 4 2 5.4-6 12-11.7s13-5.1 11.8-8.8c-1-3.7-9.3-1.3-16.1 5M44 61.7c-3.2 1.8 1.3 6.6 3.9 9.4 3.2 3.6 7 7.7 8.8 6.3 3-2.3-2.2-5.9-4.7-8.7-2-2.1-6-8.2-8-7m8.2-5.1c-2.6 2 1.1 5.6 4.8 9.6 4.3 4.6 6.4 7.2 8.5 5.8 2.8-2-3.2-6.6-5.8-9.3s-5.3-7.7-7.5-6m8.2-4.5c-2 1.4 1.5 5.3 4 7.8 2.8 3.1 5.8 6.3 7.6 4.8 2.1-1.7-2.4-6-4.3-8-2.4-2.5-4.8-6.3-7.3-4.6m11.2-11.1c2.1-2.3 6.9 2.1 9.1 4 2.6 2.4 6.2 6 4 8.2-1.7 1.6-5.2-2.5-7.4-4.6-3.5-3.2-7.6-5.4-5.7-7.6m4.4-5.7c-1.2 2.8 4.2 5 7.2 7.1 3.6 2.6 6.6 7.1 8.5 5.7 2.8-2-2.6-6.6-6-9.2-3.1-2.2-8.7-5.8-9.7-3.6" style="fill:#79dc8a"/><path d="M68.4 28.4c-2.4-1-2.6 1.6-3.6 3.4a50 50 0 0 1-8.7 11.5c-4.5 4-11.1 7.4-17.6 10-2.6 1-6.3 1.1-5.6 3.7.5 1.4 2.3 1.2 7.2-.5a81 81 0 0 0 14.7-7q4.6-3.4 8.3-7.6c2.3-2.8 4.9-7.3 5.8-10.3.4-1.7.7-2.6-.6-3.2m34.2 46.3S97 85 96.2 84.3c-.5-.4-3.7-8-6.5-12.8q-4.5-7.9-9.2-14a78 78 0 0 0-14.4-14l-5-3-2.5 3.3s4 2.6 5.4 3.8c2.6 2.1 8.9 8.2 11.7 11.5 3.5 4 8.8 13.1 9.9 15.4 3.4 7 5.9 12.7 5.7 14S87 92 84.6 93c-1.4.5-8.2 2.1-8.2 2.1s-1.3.6 1.4.7c6 .3 11.2.5 18-4.8 6.7-5.1 8.2-18.2 6.7-16.4" style="fill:#4e5725"/></svg>