<svg xml:space="preserve" width="16" height="16" viewBox="0 0 128 128"><path d="M17.8 18.6s-3.2-7.2-5.3-6.6-.3 10-.3 10z" style="fill:#feaf5f"/><path d="M101.7 56.3s3.7-1.3 6.4 2.4c2.7 3.6 1.6 7.9 5.2 12.8 2.3 3.1 5 2.3 8 1.5 3-.9 5.2-1 5.3 1 0 .5-.7 4.2-4 7.5a13 13 0 0 1-15.5 3.4c-6.6-2.6-8.4-11.2-8.4-11.2zM58.5 44.7s7.8-4.7 6.2-9.3c-1.6-4.8-7.6-.7-9-2.3-1.4-1.7 6-6.1 1.8-10.7s-8.6 2-10.2.1c-1.5-1.7 3.5-5.5.3-9.4s-8.5-.2-10.1 1c-1.2.9-3.4 2.5-6.2 3-2.7.7-7.2-1-11-1s-9.7 2.6-10.9 7.6-1.9 7.5-2.8 7.9-3.4 0-3.5 1.7 2.4 2.3 5.8 2.1 8.1-2.6 10.1-5 3.7-6.3 3.7-6.3z" style="fill:#865b52"/><linearGradient id="a" x1="23.9" x2="19.9" y1="70.8" y2="102.3" gradientUnits="userSpaceOnUse"><stop offset=".3" style="stop-color:#b3875d"/><stop offset=".6" style="stop-color:#a87c5b"/><stop offset=".9" style="stop-color:#916656"/></linearGradient><path d="M30.6 70.4s-5.3 3.3-8 4-6.2-.3-8.7 2.2-1.1 4.8-2.1 7.3-4.9 6.2-4.5 10c.5 4.8 4.7 7.1 4.7 7.1s4-3.8 4-7.4-.1-5.2.4-7 2.4-4.6 4-5.1c1.4-.5 6.8-.3 9.2-.4l6.8-.5z" style="fill:url(#a)"/><linearGradient id="b" x1="76.4" x2="72.3" y1="58.6" y2="104.1" gradientUnits="userSpaceOnUse"><stop offset=".5" style="stop-color:#b3875d"/><stop offset=".7" style="stop-color:#a4785a"/><stop offset="1" style="stop-color:#916656"/></linearGradient><path d="M87 59.6 62.7 80.8l-1.2 4.7 5.2-1 3.1-1s.7 1 1 3q.8 3.7.3 4.3c-.6.9-4.4 2.4-5.9 2.5s-5.2-.5-7 2.3c-1.4 2.2-.7 3.1-.8 3.7-.2.8-1.9 1.2-1.3 2.7s8.1.6 8.1.6.5-2 1-2c1-.2 2.7-.6 3.8-2s9.5-2 10.4-3.8c1.3-2.6-.2-6-.3-9.1s-.1-6 .2-6.5C82.1 77.5 86 74 86 74l6.8-12z" style="fill:url(#b)"/><path d="m29 48 2.7 5.3 13.5-10.7L32.8 32l-5.3 9z" style="fill:#b3875d"/><path d="M31 52q.6 1.6 1 3.5l.2 3s-3.9 2.2-4.4 6a23 23 0 0 0 1.7 12 13 13 0 0 0 6.7 6c2.8 1 6.2 2.8 12.8 3.4 4.6.4 11 1.3 18.8-2.7S82 69.6 83 67.6s3.3-5.2 4.3-4.3c1.1 1-2 3-2.7 7s.2 9 6 10.8c6.2 1.9 14.1-1.2 15.6-12.8s-5.3-19.7-11.5-23a20 20 0 0 0-13.5-1.7c-1.7.5-3.3 1.9-4.8 2.3-1.3.5-6.8.6-9.7.4-3.4-.2-2.7-1.5-5.7-3.4-3.1-2-4-1.5-5.2-2.6-1.5-1.5-7.5-10.2-15.7-15.7C33 19.8 29 19.5 29 19.5s.7-2 .2-5c-.3-2-2-5.2-3-5.3-1.1-.1-3 2.7-3.5 5.3-.6 3.3.3 5.4.3 5.4s-.2 6.5-4 11 12 2.2 14.1 3.2c2.2 1 3.9 5.6 3.6 9.6-.4 5.2-5.7 8-5.6 8.2" style="fill:#feaf5f"/><linearGradient id="c" x1="41.3" x2="46" y1="112.1" y2="70.5" gradientUnits="userSpaceOnUse"><stop offset="0" style="stop-color:#865b52"/><stop offset=".5" style="stop-color:#feaf5f"/></linearGradient><path d="M41.6 82s-.7 2-1 2.4c-.5.3-3 3-4 4.1l-3.2 3.2c-.6.5-3 2-3 4.5.3 4 2.2 4.4 2.7 6.5.3 1.7.7 4.2 1.8 6q2 3.3 6.2 3.3c3 0 4.8-6 4.8-6s-2.6-3.7-3.8-3.5-1.4 1.4-2.1 1c-.8-.5-1-2.3-1.3-3.2-.2-1-.8-2.2-.4-2.6.3-.5 4.1-2.5 6-3.8 3.4-2.2 12-9 12-9s6-15.4-5.9-13.5c-10.2 1.7-8.8 10.7-8.8 10.7" style="fill:url(#c)"/><linearGradient id="d" x1="62.1" x2="96.7" y1="118.4" y2="69" gradientUnits="userSpaceOnUse"><stop offset="0" style="stop-color:#865b52"/><stop offset=".1" style="stop-color:#9f6c55"/><stop offset=".4" style="stop-color:#dd985b"/><stop offset=".6" style="stop-color:#feaf5f"/></linearGradient><path d="M95.9 59.4c-3-.5-11 3.8-11.8 14.8a95 95 0 0 1-1.7 12.3c-.3 1.5-1 3.6-1.4 4-.3.2-2.5 1.6-4.2 4.1s-1.2 5.2-1.7 6-2.5 2.3-4.2 4c-1.2 1.2-5 1-6.5 2.7s-1.2 3.6-1.2 3.6-3 .7-3.7 2.7c-.9 1.9 1 4.4 2.7 4.6s5.2.8 5.5.4c1.1-1.2.3-3.7.3-3.7s1.6 0 3.1-2 3.5-3.3 5.2-4.7 8.1-6 9.4-8.3c1.6-3 1-5.7 2.1-7.5s3.3-3.7 7.4-7c3.3-2.7 7.1-5 9.8-11.7 3.8-9.5-7.3-14-9.1-14.3" style="fill:url(#d)"/><radialGradient id="e" cx="-.1" cy="70.6" r="51.7" gradientUnits="userSpaceOnUse"><stop offset=".2" style="stop-color:#865b52"/><stop offset=".3" style="stop-color:#895d52"/><stop offset=".3" style="stop-color:#946554"/><stop offset=".4" style="stop-color:#a67255"/><stop offset=".4" style="stop-color:#c08358"/><stop offset=".5" style="stop-color:#e09a5c"/><stop offset=".5" style="stop-color:#feaf5f"/></radialGradient><path d="M34 33.4c-1.2.4-2 .3-2 1.3s3 3.4 2.3 7.9-3.7 7-6.4 7.9-5.5.8-5.5.8l-3.9 4.3s.3 3.7-2.1 5.3c-1.8 1.2-3 .8-3 .8s-1.5 1.4-3.3.8c-2.4-.7-6.6-3.7-6.2-10.2.5-5.9 4.9-9.6 5.9-11.8.4-1 .2-5.2.2-5.2s5.8-1.4 8.6-4.7c2-2.4 3.9-5.9 4-7.3 0-1.4 16.9 5 16.9 5z" style="fill:url(#e)"/><path d="M22.9 35.2c.7 1.4.2 3-1 3.7-1 .5-3 0-3.6-1.4q-1-2.5 1-3.5c1.1-.7 2.8-.1 3.6 1.2" style="fill:#2f2927"/><path d="M7 53.6c-.8.7-.8 2.3.1 3.8s2 2.3 3 1.7.5-2.6-.1-4-2.2-2.3-3-1.6m7.4 1.8c0-.3-1.5-2.8.2-3.8 1.2-.6 2.4.3 2.3 1.9s-.8 2-.8 2 .2.8-.4 3.7c-.4 2.1-1.2 2.4-1.7 2.8s-2.4 1-2 .5c.2-.5 1.7-2.3 2-4 .3-1.2.4-3 .4-3" style="fill:#523226"/><path d="m16 93.8-2 3.4c-.9 1.7-2.6 3.3-2.6 3.3s1.9 2.7 4.2 3.7 3.3-3.2 3-6.7q-.2-2.5-1.2-3.4c-.5-.3-1.5-.3-1.5-.3m25.4 9.1a9 9 0 0 1 1.4 4.8c-.1 2.6-1.8 4.3-1.8 4.3s2 .6 5.1.5q3-.1 3.7-1.1c.3-.6-.4-3.8-2-6.3s-3-2.8-3.7-3c-1.1-.4-2.7.8-2.7.8m19.1-.9c-2.3 0-4.5-.8-4.5-.8s-.5 1.5-.6 3.7c-.2 2-.3 3.8.6 4 .8.4 3.2-.1 5.6-1.7a10 10 0 0 0 2.7-3.2c.2-.5.2-2 .2-2zm-.3 10.6c-.5.3-1.5 2-2.2 3.2-.7 1.1-1.6 2.8-1.6 3.3.2.9 1.4 1.5 5 1.4 3.5 0 5.7-1.2 6-1.4s.6-.8.6-.8-1.3-1.7-3.7-3.5a13 13 0 0 0-4-2.2" style="fill:#6b4733"/><path d="M39.8 83.8s-1.2-1.2-2-2.3c-1-1.7-1.4-2.8-1.7-5.3-.2-1.8 1-5-1.4-5.3-1.9-.2-2.8.8-2.6 4a15 15 0 0 0 2 6.3q.4.6 2.5 1.7c2.1 1 3.2.9 3.2.9" style="fill:#b3875d"/></svg>