<svg xml:space="preserve" width="16" height="16" viewBox="0 0 128 128"><path d="M116.6 124.3H11.3a7.5 7.5 0 0 1-7.5-7.6V11.4C3.8 7.3 7.2 4 11.3 4h105.3c4.2 0 7.5 3.4 7.5 7.5v105.3c0 4.2-3.3 7.6-7.5 7.6m0-.1H11.3a7.5 7.5 0 0 1-7.5-7.6V11.4C3.8 7.3 7.2 4 11.3 4h105.3c4.2 0 7.5 3.4 7.5 7.5v105.3c0 4.2-3.3 7.6-7.5 7.6" style="fill:#aed0d7"/><radialGradient id="a" cx="77.8" cy="113.2" r="101.8" gradientTransform="rotate(-92 28.32 164.48)scale(1 1.906)" gradientUnits="userSpaceOnUse"><stop offset=".6" style="stop-color:#92bdcc"/><stop offset=".6" style="stop-color:#b9d5de"/><stop offset=".7" style="stop-color:#fff"/></radialGradient><path d="M3.8 46.3v23.2L124.2 62l.1-41.9s-5.6-4.5-14.3-1.8-10.4 7.9-10.4 7.9-8.6-2.8-17.7 1c-11.8 5.2-16.4 16.2-16.4 16.2s-11.8-4-25.2-3.9a128 128 0 0 0-36.5 6.7" style="fill:url(#a)"/><radialGradient id="b" cx="66.5" cy="139.6" r="86.4" fx="63.7" fy="139.8" gradientTransform="rotate(-83.7 -5.2 203.76)scale(1 1.92)" gradientUnits="userSpaceOnUse"><stop offset=".6" style="stop-color:#a1c3ce"/><stop offset=".6" style="stop-color:#a8c8d2"/><stop offset=".7" style="stop-color:#cee0e5"/><stop offset=".8" style="stop-color:#e9f1f3"/><stop offset=".9" style="stop-color:#f9fbfc"/><stop offset=".9" style="stop-color:#fff"/></radialGradient><path d="M42.2 59.4s8-3.8 19-4.2c7-.3 15.3 2.3 15.3 2.3s6.9-3.8 24.4-2.6 23.2 4.8 23.2 4.8v39.2L3.9 95.6V59.1s10-2.2 22.7-1.8c9.9.4 15.7 2.1 15.7 2.1" style="fill:url(#b)"/><path d="M124.2 61.9c-.3-.2-6.7-3.2-11-6-3.8-2.5-11.7-8.7-21.4-17.9-8-7.5-14.5-18.5-14.8-19l2-1.2c.1 0 6.8 11.2 14.4 18.5a175 175 0 0 0 21.2 17.6c4.1 2.7 9.5 5.2 9.5 5.2zM106 99.6h-2l.3-51.2h2z" style="fill:#b11f2b"/><path d="M86.5 63.4h52.3v2H86.5z" style="fill:#b11f2b" transform="rotate(-89.9 112.7 64.4)"/><path d="M110 67.8h20.4v2H110z" style="fill:#b11f2b" transform="rotate(-89.7 120.22 68.8)"/><path d="M24.5 82.6h17.9v2H24.5z" style="fill:#b11f2b" transform="rotate(-88.8 33.44 83.59)"/><path d="M9 77.1h27.3v2H9z" style="fill:#b11f2b" transform="rotate(-88.8 22.66 78.06)"/><path d="M43.7 98.3h-2l.3-44.9h2zm10.1 5.7h-2l.2-39.6h2zM61 37.5h2v69.6h-2z" style="fill:#b11f2b"/><path d="M69.3 51.3h2v49.9h-2z" style="fill:#b11f2b" transform="rotate(-.1 70.24 76.27)"/><path d="M124.2 48.8s-6.7-5-12.7-10a150 150 0 0 1-11.3-11.3c-4.3-5-6.8-8.7-7-8.8l2-1.4s2.6 3.8 6.8 8.6a127 127 0 0 0 22.2 19.9z" style="fill:#ff2d26"/><path d="M78.4 17h4.8l.1 78.5-7.9 3.2zm15 .1h4.2c.4.3.3 25.2.3 25.2h.8V98l-4.9-5.2z" style="fill:#b01522"/><path d="M95.9 42.5h-1.4V17.1h-4.3v2.7s-1.6 1.6-5 1.7c-3.5.1-4.9-2.1-4.9-2.1V17h-5.1L75 42.5h-1v50.2l.2 16.7 6.4-5-.1-33.7h9v31.1l6.3.3zM80.3 29c.2-.4 9.7 0 9.7 0v13.5h-9.7zm9.6 34.2h-9.6V50h9.6z" style="fill:#ff2d26"/><path d="M95 17s.3-3.1-1.6-3.1-1.5 3.2-1.5 3.2H95m-15.5-3.3c-1.8 0-1.5 3.3-1.5 3.3h1.6L81 17s.3-3.2-1.6-3.2" style="fill:#dd0c29"/><path d="M3.8 84.4v-2.5s8.8-1.5 11.5-2.4l1.6-.4c5.8-1.7 23.4-6.7 43-20.3 21.6-15 31-40.2 31.2-40.5l2.2.9c0 .2-9.7 26-32 41.5A145 145 0 0 1 16 81.8c-2.9 1-12 2.5-12.3 2.6" style="fill:#ff2d26"/><path d="M3.8 70.9v-2.4c.1 0 15.7-.2 39-16.7C51.6 45.7 63.6 35 68.5 29c5.6-7 5.9-8.6 6.6-10.3 0 0 .3-1.6 1.2-1.8H78c-.1.6-1.8 6.4-7.6 13.6-5 6-17.2 17-26 23.2-24.1 17-39.8 17-40.5 17" style="fill:#b11f2b"/><radialGradient id="c" cx="68.8" cy="149.3" r="135.9" gradientTransform="rotate(-90.4 -10.85 229.5)scale(1 2.075)" gradientUnits="userSpaceOnUse"><stop offset=".1" style="stop-color:#fff"/><stop offset=".8" style="stop-color:#fff;stop-opacity:0"/></radialGradient><path d="M116.6 124.3H11.3a7.5 7.5 0 0 1-7.5-7.6V11.4C3.8 7.3 7.2 4 11.3 4h105.3c4.2 0 7.5 3.4 7.5 7.5v105.3c0 4.2-3.3 7.6-7.5 7.6" style="fill:url(#c)"/><radialGradient id="d" cx="17.7" cy="130.8" r="81.6" gradientTransform="rotate(-80.6 -10.52 154.73)scale(1 1.366)" gradientUnits="userSpaceOnUse"><stop offset=".2" style="stop-color:#c0d0d5"/><stop offset=".6" style="stop-color:#fafbfb"/><stop offset="1" style="stop-color:#fafbfb;stop-opacity:0"/></radialGradient><path d="M99.5 124.3H11.3a7.5 7.5 0 0 1-7.5-7.6V76.3s6.2-3.7 16.6-.8S37 87.6 37 87.6s7-6 18.7-3.1c15 3.6 23.5 22.2 23.5 22.2z" style="fill:url(#d)"/><radialGradient id="e" cx="70.6" cy="51.2" r="79.9" gradientUnits="userSpaceOnUse"><stop offset=".1" style="stop-color:#fafbfb;stop-opacity:0"/><stop offset=".6" style="stop-color:#fafbfb"/><stop offset=".7" style="stop-color:#eef2f3"/><stop offset=".9" style="stop-color:#d6e1e3"/></radialGradient><path d="M124.2 73.2v43.5c0 4.2-3.4 7.6-7.6 7.6H33.1s4.2-16.6 20.3-26.3c14.2-8.6 24.3-5.5 24.3-5.5s9.4-16 24-20 22.5.7 22.5.7" style="fill:url(#e)"/></svg>