<svg xml:space="preserve" width="16" height="16" viewBox="0 0 128 128"><path d="M64 42.2q-12.7 0-19.2-7.2C41 31 37 23.3 38.5 8.8v-.6c.1-1.7 3.4-2.5 4.4-2.7 1.6 0 3 1.2 5.4 7A17 17 0 0 0 64 23.3c5.2 0 12.5-1 16.2-8.8l1.6-3.3c1.6-3.8 2.5-5.6 3.7-5.7.7.2 3.4 1.5 3.8 3 .2 1.2 1.8 16.9-6.5 26.3q-6.5 7.4-18.8 7.4" style="fill:#2167a1"/><path d="M43 7c.5 0 1.6.4 3.9 6 3 7.2 9.7 11.8 17.1 11.8 3.2 0 13 0 17.6-9.7l1.5-3.3A27 27 0 0 1 85.5 7c.9.4 2.1 1.2 2.3 1.7.3 2 1.5 16.3-6.1 25q-6 7-17.7 7-12 0-18.1-6.8c-3.4-3.7-7.2-11.1-6-25l.1-.6c.2-.5 1.6-1.2 3-1.4m0-3h-.2S37.3 4.7 37 8c-.2 3.4-4.5 35.6 27 35.6S90.8 8.2 90.8 8.2C90.2 5.7 86.2 4 85.5 4c-2.7 0-3.7 3.6-6.6 9.8-3 6.4-8.6 8-14.9 8s-12-4-14.3-10C47.3 6.3 45.5 4 42.9 4" style="fill:#01579b"/><path d="M107.9 49.5c-.3-.4-2.9-3.4-5-7.6-5.5-10.9.4-26.5-4.9-36L85.2 4c1.3 7.2-1.2 15.8-1.6 17.7-1 4.5-5.7 15.8-19.6 15.8S45.4 26.2 44.4 21.7c-.4-2-2.9-10.5-1.6-17.7L30 5.8c-5.3 9.6.6 25.2-4.9 36-2 4.3-4.7 7.3-5 7.7 0 0 4.1 42.4-.4 69.3 7 2 25.6 3 44.3 3s37.3-1 44.3-3c-4.5-26.9-.4-69.3-.4-69.3" style="fill:#56bfe6"/><path d="M100.4 20.7C81 44.4 46.8 68 21.8 82.7c0 9.2-.1 19.1-1 28a398 398 0 0 0 86.5-62c-1-1.2-2.9-3.6-4.5-6.8-3-6.2-2.5-14-2.4-21.2" style="fill:#ffca28"/><path d="M98 36.8a25 25 0 0 0 2.2 6.4q1.5 2.9 3.2 5.4c1 1.4 2.3 3.2 4.3 3.2l.2-1c.2-1.2 0-1.3 0-1.3-.3-.4-2.9-3.4-5-7.6-5.5-10.9.4-26.5-4.8-36-.5-.5-2.6-.7-2.8-.5q1.5 4 1.9 8.2.5 4.8.2 9.5c-.1 4.5-.2 9.2.6 13.7m-68.3 0a25 25 0 0 1-2.1 6.4q-1.4 2.9-3.3 5.4c-1 1.4-2.3 3.2-4.2 3.2 0 0-.2 0-.3-1-.2-1.2 0-1.3 0-1.3.3-.4 3-3.4 5-7.6 5.5-10.9-.4-26.5 4.9-36 .5-.5 2.5-.7 2.7-.5q-1.4 4-1.9 8.2-.4 4.8-.1 9.5c0 4.5.2 9.2-.7 13.7M88.1 5.3a1 1 0 0 0-.4-.8c-.6-.5-2.5-.6-2.9-.5 1.3 7.2-1.2 15.8-1.6 17.7-1 4.5-5.6 15.6-19.2 15.8a20 20 0 0 1-19.2-15.8c-.4-2-2.9-10.5-1.6-17.7-.4 0-2.3 0-3 .5l-.3.8q-.2 8.4 1.8 16.4l.2.7c1.9 8.3 8.8 18 22.1 18.1a22.6 22.6 0 0 0 22.1-18.1l.2-.7q2-8 1.8-16.4" style="fill:#039be5"/></svg>