<svg xml:space="preserve" width="16" height="16" viewBox="0 0 128 128"><path d="M26.2 20.3C3.2 42.6-.2 80 22 104.1s61.9 20.6 80.8 2.9c15.6-14.7 18.3-25.1 19-40.3a54 54 0 0 0-14.3-41A60 60 0 0 0 63.2 6.4c-15 .1-27.8 5-37 14m15.6-6.9s-3.7-6.9-5.4-8.3C34.8 3.7 23.8.7 14.2 9.8 6.5 17 7.4 28 8.9 29.5s7.8 6.2 7.8 6.2l4.3-7-5-4.4s.7-6.2 5-9.8 10.2-2.9 10.2-2.9l3.6 4.6zM87.6 115s4.2 5.8 5.5 7a18 18 0 0 0 21.6-3.2c11.6-10.8 7-20.6 5.4-22-1.4-1.5-6-5.6-6-5.6l-4.6 6.2s4 3.7 4.6 5-1 7.4-4.7 10.3-8.6 4.1-10.2 3-4.5-5-4.5-5-7.9 3.7-7.1 4.3" style="fill:#6c6e70"/><path d="M65.5 10.5a51 51 0 0 0-42.9 19.6 55 55 0 0 0-11.3 38.2c2.7 39.1 35.1 49.7 54.8 49.2 23.6-.6 53.3-20.3 51.7-54.7-1.6-34.6-28.3-50-52.3-52.3" style="fill:#302f2f"/><path d="M24.2 35.2a49.5 49.5 0 0 0 77.3 62c15.7-16.5 19-45-3.2-68.3-14.2-15-52.1-25.6-74.1 6.3" style="fill:#d28333"/><path d="M41 27.4c-9.1 6-24.5 23-19.7 43.9 4.7 20 17.8 36.6 44.7 37 26.8.4 41-23.6 41.8-40.2s-8-36-26.1-43.3S49 22 41 27.4" style="fill:#f2ab47"/><path d="m56.4 45.5-3 1.2s-2.3 6.2-.4 7c2 .8 4.2-.6 5.5-1.5s7.3-6.2 8.7-7.7 4.1-2.8 4-3.8q.2-1.5-2-2.5c-1.5-.6-12.8 7.3-12.8 7.3" style="fill:#a05c3c"/><path d="M60.2 35c-2 .6-4 5-5 7.2-.9 2-3.1 6.2-1 7s5-1.5 7.3-3.8c2.4-2.3 5-5.4 6.1-6.1l1.7-1s-3.6-2.4-5.5-3.1c-2-.7-2.6-.6-3.6-.2" style="fill:#c67c5d"/><path d="M36.4 35.5s0-.5 1.5-.2 1.2 1.7 1.4 3.2.6 7.2-.1 8.6-1.3 1.7-2 2-2.5.2-2.8 0-1-1.4-1-2l-.9-6z" style="fill:#a05c3c"/><path d="M32.5 38c-.7.8-.7 3-.1 5.6l1 3.5s2.6-.6 3.4-2.3c.8-1.8 0-9.6 0-9.6s-1.7.4-2.3 1.3c-.5.5-1.3.5-2 1.4" style="fill:#c67c5d"/><path d="M49.7 72.3s-1.2 2.7.2 3.6q2.1 1.6 7.7 2.7c3.7.6 8.1.6 9.6 0q2.5-1 2.3-3.8c0-1.7-1.4-3.2-2.4-3.9l-5.3-3z" style="fill:#a05c3c"/><path d="M54.3 66c-2.4.6-3.6 3.2-4 4.2l-.6 2.1s2.2 2.4 5.3 3.2q4.3 1 5 .8c.7-.2 4.4-1.2 4.6-2.4s-1.6-5.2-2.6-6-2.5-1.3-4-1.6c-1.4-.2-2.3-.6-3.7-.3" style="fill:#c67c5d"/><path d="M86 48s-1.1-.1-1.8.8c-.3.5-.2 2.2.7 2.8q1.7 1 3.3.7c1.3-.3 4-1.9 5.4-2.8 1.7-1 3.4-2 3.7-3q.4-1.6 0-2.1C96.8 43.5 86 48 86 48" style="fill:#a05c3c"/><path d="M90.9 43.4 87 46.2l-2.7 2.3s1.1 1.7 3.6 1.7c2.6-.1 5.5-2.5 6.4-3.3l3-2.5s-.5-1.5-2.8-2q-2.4-.2-3.7 1" style="fill:#c67c5d"/><path d="M88.4 70.2s3.4.7 5.3 2.5c1 .9 3.2 5 3 6.7-.4 1.5-1 3-3.2 3.2-2.9.5-4.7-1.1-4.7-1.1z" style="fill:#a05c3c"/><path d="M87.3 70.5q-2.4 1.2-.7 7.2c1 4 3.1 4.2 3.8 4.4s3.7-1 3.8-2.7c0-1.6-3-6.6-4-7.7-.8-1-1.3-2-3-1.2" style="fill:#c67c5d"/><path d="m37.3 87.4-.9 4s1 3.1 3 3.1 3.7-1.8 4-3.4a28 28 0 0 0-3.9-11c-.7-.8-2.2 7.3-2.2 7.3" style="fill:#a05c3c"/><path d="M38 79.2c-.7 0-2.5 1-3.8 3s-1 4.2-.4 5.2 1.6 1.9 1.6 1.9l1 2.2s2.6 1 3.8 0 1.2-6.4.1-9.5c-1-3.2-1.7-2.8-2.3-2.8" style="fill:#c67c5d"/><path d="M39.2 97.3c-.8 1-.3 2 1.1 4.2 1.7 2.7 3.2 3 4.6 2.7 1.3-.4 1.8-3.5-.5-6.6-1.7-2.3-4.6-.9-5.2-.3M97.5 82c-1.7.6-3.8 4.2-3.4 5.6.5 1.5 2.6 2 3 2s4.3-1.6 5-3.8-.2-3.4-1.2-4a5 5 0 0 0-3.5.1M94 63.5c-1.4.1-2.4 2-1.8 4.3s2.1 4 3.6 4 2.6-.7 1.9-3.4-1.2-5.2-3.6-5M65 19.8c-.8.4-2.4 3.2-1.8 5.6s1.6 2.5 3 2.3 2.3-2.4 2.2-4.2-1.6-4.8-3.5-3.7m-14.3.2c-.6 1.2-.4 2.8 1.5 4.1a5 5 0 0 0 4.2 1c.8-.2 3.4-2 2.3-4s-3.1-1.4-4.1-1.6-3-1.5-4 .4m-1.3 8.5c-1.3.3-1.6 2.2-1.3 2.8.3.7 1.3 2 3 3s4.1 1.2 4.7-.4q1-2.4-.5-4a6 6 0 0 0-6-1.4M42 37.2c-.2.9.8 4 2.3 5.1 1.8 1.4 3.6.8 3.8-1.8s-1.4-5.1-2.8-5.5c-1.4-.3-3.1 1-3.3 2.2" style="fill:#97a63b"/><path d="M77.3 101.2c-1 2 0 4.4 3 5 3 .4 4.8-3.6 2.8-5.8-1.6-1.7-5-1.3-5.8.8m24.4-56.7c-2 .9-2 3.4-1.5 4.6s2 2.2 4 1.5c1.4-.6 2.4-2.7 1.5-4.5s-2.6-2.1-4-1.6M68 32.2c-1.3 1.7-1 3.7.7 4.5 1.7.9 3.8-.1 4.4-1.6q.8-2.2-1-3.6a3 3 0 0 0-4.1.7M38.8 30c-1.5 1.3-1.6 3.7-.5 4.8 1.3 1.3 3.9 1.1 5.1 0s1.4-2.9 0-4.5c-1.2-1.4-3.1-1.7-4.6-.4M53.2 57c-.8 1.4-.9 3.5 1.2 4.6 1.5.9 3.5.4 4.4-1 .9-1.6.5-3.5-1-4.4-1.3-.8-3.4-1-4.6.9M40.1 67.5c-1.3 1.3-1.4 4.4 1 5.5s4.2.4 5.1-1.5c1-2-.2-4-1.7-4.6-2-.9-3.5-.3-4.4.6" style="fill:#684d42"/><path d="M72.2 91c-.5.8 0 3.6-.1 4.1 0 .6.8 1.4 1.3 1.3s4.2.4 4.8-1.1c.7-1.5 1.4-4.6-.8-5.9-1.8-1-4.8.7-5.2 1.5M78 64c-.2 1.6 2.5 5 5 4s2.1-6 .8-6.7-3.4.2-4.1.5a3 3 0 0 0-1.7 2.3M88.7 54c-1.5 1.6-.7 4.2.2 5 1 1 3.7.8 4.7.6s2-1.6 1.8-2.8-.3-3.7-2-4.4c-1.4-.5-3.4.1-4.7 1.6m-17.5-8.9c-.4.9-.9 4.8.8 5.7s5.7-1.1 5.9-2a8 8 0 0 0-.5-3.5c-.4-.9-1-2.4-2-2.6s-3.5 1.1-4.2 2.4M29 37c-1-.4-4 1.3-4.4 2s-.4 5 .4 5.6 2.9.3 3.6 0c.8-.4 2.2-1.2 2.3-2.5s-.2-4.6-1.9-5.1m3.7 33.2c-1.7.2-3.1 2.8-3.1 3.5s.8 2.6 1.6 3.3q1.1 1 2.6.7c1.5-.3 3.1-2.1 2.9-3.6-.2-1.4-2.4-4-4-4" style="fill:#ea4333"/><path d="M62.3 84.8c.2 1.3 1.7 2.2 5 .8q3.7-1.5 3.2-2.9-.5-1.7-4.8-.9c-2.7.6-3.6 2-3.4 3M72 76c0 1.5.3 3.4 1.8 3.3s1.6-2.3 1.5-3.5c0-2-.8-3.5-2-3.4-1.3.2-1.5 2-1.4 3.6m-8.4 20q.6 1.7 3.4 1t2.4-2.3c-.3-1-3.1-1.3-4-1-.7.3-2.2 1.3-1.8 2.3m19.9-5.7q-2.2.4-1.6 4.1c.3 2.4.7 4.2 2 4.2s2.2-2.8 1.8-4.8c-.3-2-1-3.6-2.2-3.5m-53.7-5.2c-1.2.4-1 2.2.3 4.2q2 3 3.3 2.1c.9-.4.4-2.7-.5-4.1-.8-1.5-1.6-2.8-3.1-2.2m.3-28.3c-1.5 0-2.1 2.2-2 4.1 0 1.9.5 3.7 2 3.6 1.5 0 1.7-2 1.7-4.1s-.4-3.6-1.8-3.6m6 1c-1.4 0-2 2.2-2 4.4s.5 2.9 1.7 3 1.7-1.9 1.8-3.6 0-3.9-1.5-3.8m-7.7-10.4c-.7.5-1.2 2.9-.3 4.4s2.6 3.6 4 2.8c1.4-.7-.3-4-1-5.2s-1.5-3-2.7-2m18.2-3.1q-1.9.4-1.2 3.6.5 3 2.2 3c1.2 0 1.5-2.6 1.4-4-.1-1.1-.6-2.9-2.4-2.6m6-7q-2.4-1-3 3.1t1 4.3c.7.3 2.1-.8 3-3.6.6-2 .6-3.3-1-3.8m5.4-5.6c1 .8 2.3-.4 3.3-1.6q1.7-1.7.7-2.8c-1-1-2.3-.1-3.3 1.1s-1.6 2.5-.7 3.3m34 3.6q-1.7 0-1.8 3.3c0 2.1.6 2.7 1.6 2.8q1.6-.2 1.8-3c0-1.8-.3-3.2-1.6-3m-9.1 17c-1.3 0-1.4 1.6-1.3 3.2q.4 2.7 1.6 2.7c1-.1 1.9-1 1.8-3.3q-.3-2.6-2.1-2.6m-15.3-1.1c-.9 1-.7 1.6 1.2 3.5s3.1 2.4 4.4 1.2c1.2-1.3-.4-2.7-1.6-3.7-1.4-1-3-2.2-4-1m9.9 1.3c-.7.2-2 1.5-1.9 3.1s1.7 4.7 2.7 4.5 1.5-1 1-4.3q-.3-3.5-1.8-3.3" style="fill:#d28333"/><path d="M44.4 85.8c0 1.1 2.2 2 5.9 1.4 5.5-1 10-4.3 9.6-6-.4-1.5-5.2.6-8 1.4-3 .8-7.6 1.5-7.5 3.2m3.3 5.9c-.3.8-.6 2.2.2 2.6s4.2.5 6.6.4 3.8-.3 5.5-.7 8.6-3.3 8.7-4-.6-2.6-2.2-2.8c-.6-.1-3 1.6-8.8 2.7-5.7 1-9.5.8-10 1.8m4.6 9.8c-.2 1.1.5 2.2 2.6 2.4 2.2.2 7.3.6 12 .2 4.5-.3 8.5-2.3 9.4-3.1q1.6-1.5-.3-2.6c-1.3-.5-4.7.8-10.7 1.4-3.2.3-6.2.5-10.2.6-1 0-2.5-.4-2.8 1m22.5-17.6c.6 1.2 4.4-.4 6.8 1.1 2.2 1.3 6.8 4.2 9.2 7.8.7 1.1 2.4 1.6 3.2.8 1-.8.6-3.1-1-5a28 28 0 0 0-8-6 15 15 0 0 0-7-2c-.9 0-2.4 1.3-2.8 1.7q-.9.4-.4 1.6M97.4 51c-1.3.3-.6 2.2-.4 3.2.3 1 1.4 4.6 1.9 7.8.4 3.1.8 8.5.6 9.9q-.4 1.9.9 2.3c.8.2 1.9-.5 2.2-2s.6-8.5 0-13-2.8-9-5.2-8.3m-35 6.3c-.3 1.4 1.1 1.5 2.6 3 1.4 1.4 3.5 2.7 5.3 4.7l5.8 5.8 2 3.2c.8 1.4 1.5 2.4 2.4 2.1s.6-2.6.2-4-1.9-5-6-9.4-7.2-7-9-7q-2.9-.1-3.4 1.6m-21.2-9.7c-1.1-.2-1.9.6-2.3 1s-1 2.4-.9 3.2q.3 1.2 5.4 6.5c2.9 3 5.6 4.4 6.5 4.9.8.4 2.5.7 3-.5.2-.7-1-1.5-1.5-2.1l-4.5-5.7c-1.8-2.6-4.5-7-5.7-7.3m-16.7-3.2c-1.2-.2-2.4 1.5-2.7 3.8-.4 3-.2 8.2.5 12.8.5 3.7 1.7 7.3 3 9.3.8 1.3 1.8 2.4 2.4 2s1-1 .5-3c-.5-1.8-2-6.8-2.5-11.7s-.3-8.6-.3-9.6c.1-1 1-3.2-1-3.6m-4.9 23.6c-.5.2-2.2 2-2 2.6s2 3.9 4.8 6.9S28 83 29 83s2-.6 2.1-1.4q.1-1.5-.5-2.2c-.5-.5-4-2.1-6.2-4.8s-3.9-7.2-5-6.7m53.5-42.3c-.8.5-1.6 1.9-.6 3.3l4.3 6.3c2 3.1 3.5 7.3 3.8 8 .4.6 1.4 1 2 .4s1-2.2.6-4a33 33 0 0 0-8-13.8q-1.3-.7-2.2-.2m8.4 1.4c-.8.6-.3 1.7.4 2.6s2 2.8 2.9 5.1 1.4 4.6 1.6 5.1q.4 1.5 1.4 1.3 1 0 1-1.7a19 19 0 0 0-5.4-11.9c-.5-.5-1.2-1.1-2-.5" style="fill:#768040"/></svg>