<svg xml:space="preserve" width="16" height="16" viewBox="0 0 128 128"><path d="M17 107.4V6.6h95V106H34q-1.6.1-1.8 1.4c-.7 3.7-3 13-8.3 13-3 0-6.8-3.7-6.8-13.1" style="fill:#fff"/><path d="M33.3 28.4h61.2M33.3 43h61.2M33.3 57.7h61.2M33.3 72.3h61.2M33.3 86.9h26.2" style="fill:none;stroke:#b0bec5;stroke-width:3.8648;stroke-linecap:round;stroke-miterlimit:10"/><path d="M121 105h-7.2V6.8c0-1.5-1.3-2.8-2.8-2.8H17a3 3 0 0 0-2.8 2.8v99.5c0 4.8-.8 17.7 14.3 17.7h80.9c11.5 0 13.1-12.4 13.3-17.2q-.1-1.6-1.7-1.8m-102.8 1.3V8h91.6v97h-76q-1.5.1-1.8 1.4c-.7 3.6-2.8 12.7-8.1 12.7-4.1 0-5.7-3.6-5.7-12.8" style="fill:#6fbff0"/></svg>