<svg xml:space="preserve" width="16" height="16" viewBox="0 0 128 128"><path d="M25.7 34.7c27 0 31.4 19.6 31.4 47.6 0 24-10.3 39.3-28.5 41.3-9.3 1-18-.8-24.6-5.7V40.6a37 37 0 0 1 21.7-5.9" style="fill:#70534a"/><path d="M21.4 77.4c-1-1.3-3.3-3.2-7.6-3.2s-6.6 1.9-7.6 3.2q-.5.9 0 1.6t2 .4c.9-.3 2.6-1.2 5.6-1.3 3 0 4.7 1 5.6 1.3q1.4.3 2-.4.5-.7 0-1.6m32.9 0c-1-1.3-3.2-3.2-7.5-3.2s-6.7 1.9-7.6 3.2q-.7.9 0 1.6.4.7 2 .4c.8-.3 2.6-1.2 5.5-1.3 3 0 4.8 1 5.7 1.3q1.5.3 2-.4t0-1.6m-35 8.2c.6-.7 1-.1 1.2.4.4 1.8-.3 4.5-3.5 5.4-4.4 1.2-8.8-1.4-9.3-5q.2-.7.9-.5c1.3.7 2.9 2.2 6.3 1.9 3.2-.3 3.6-1.3 4.4-2.2m32.8 0c.7-.7 1-.1 1.2.4.5 1.8-.2 4.5-3.5 5.4-4.3 1.2-8.7-1.4-9.2-5q.1-.7.8-.5c1.3.7 3 2.2 6.3 1.9s3.7-1.3 4.4-2.2m-15.8 29.3c3 .3 8-2.3 6.9-5.2-.5-1.2-2.1-1.5-2.1-1.5s2.7-3.1 1.3-4.8c-2-2.2-5-.5-7.4-1.2q-.7-.4-1.5-.2.3 1.4 2 2c1.3.5 2.8.2 3.5.8s.1 1.6-.9 2.2c-1.4.8-3.4 1.3-3.3 2 0 .6 2.5.7 3 .9q1 .1 1.4.8c.4.9-1 1.9-1.6 2.3l-2.7 1q-.1.1 0 .4c.1.2 1 .4 1.4.4" style="fill:#1a1717"/><path d="M38.4 93.5h-8q-1 .6-.8 1.7c.4.7 1.8 2.8 4.8 2.8a5 5 0 0 0 4.7-2.8q.4-1.2-.7-1.7" style="fill:#33251f"/><path d="M62.5 55.4C61.1 50 59 38.8 51.1 33c-11.3-8.5-18.1-2.4-20.6-4s-2.5-5.5-.8-8c0 0-10.1-.6-10.3 9.6-5.6-2.6-12-.7-15.4 1.9V71c17.3-.7 27.9-13.1 36.7-14.2 3.4-.4 7 6.3 8.3 6.3 1.1 0 5.9-3.5 7 1 .9 4.1 1.1 15.3 1.1 15.3a25 25 0 0 0 5.4-24" style="fill:#232020"/><radialGradient id="a" cx="33.7" cy="27.1" r="11.8" gradientTransform="rotate(20.3 39.77 28.14)scale(1 1.08)" gradientUnits="userSpaceOnUse"><stop offset=".2" style="stop-color:#444140"/><stop offset=".6" style="stop-color:#444140;stop-opacity:0"/></radialGradient><path d="m37.4 28.5-2.6.4c-1.8.4-3.9.8-4.7 0-2-1.9-2-5.2-.4-7.7 0 0-2.9 1-4.3 5-.7 2.1-1.2 8.9 3.6 11 6.2 3 13.7 1.2 15.5-1 2.3-2.6-4.6-8.3-7.1-7.7" style="fill:url(#a)"/><radialGradient id="b" cx="28.4" cy="31.3" r="9" gradientTransform="rotate(25.2 59.84 38.35)scale(1 1.448)" gradientUnits="userSpaceOnUse"><stop offset=".6" style="stop-color:#444140;stop-opacity:0"/><stop offset="1" style="stop-color:#444140"/></radialGradient><path d="M30.5 29c-2.5-1.5-2.5-5.4-.8-7.8h-2q-2.3.4-4.2 1.5a8 8 0 0 0-3.5 4.5 9 9 0 0 0-.6 3.8s2.2 1.4 2.6 4.7c0 .6 9.8-5.8 8.5-6.6" style="fill:url(#b)"/><radialGradient id="c" cx="30.9" cy="54" r="36.3" gradientTransform="rotate(-17.2 53.7 50.6)scale(1 .873)" gradientUnits="userSpaceOnUse"><stop offset=".6" style="stop-color:#444140;stop-opacity:0"/><stop offset="1" style="stop-color:#444140"/></radialGradient><path d="M18.3 49c1.5-2.6 3.3-8.2 3.6-11.2a9 9 0 0 0-.1-3.2 7 7 0 0 0-2.8-4c-8.5-3.2-14.7 1.8-15 2V64c.3 0 7.8-4.2 14.3-15" style="fill:url(#c)"/><radialGradient id="d" cx="49.4" cy="51.2" r="18.6" gradientTransform="matrix(1 0 0 1.553 0 -28.32)" gradientUnits="userSpaceOnUse"><stop offset=".5" style="stop-color:#444140;stop-opacity:0"/><stop offset=".8" style="stop-color:#444140"/></radialGradient><path d="M62.5 55.4C61.1 50 59 38.8 51.1 33q-2.4-1.7-4.4-2.7l2.3 33c1.1 0 5.9-3.5 7 1 .9 4.1 1.1 15.3 1.1 15.3a25 25 0 0 0 5.4-24" style="fill:url(#d)"/><path d="M102.3 34.7c-27 0-31.4 19.6-31.4 47.6 0 24 10.3 39.3 28.5 41.3 9.3 1 18-.8 24.6-5.7V40.6a37 37 0 0 0-21.7-5.9" style="fill:#70534a"/><path d="M106.7 77.4c1-1.3 3.2-3.2 7.5-3.2 4.4 0 6.6 1.9 7.6 3.2q.5.9 0 1.6t-2 .4c-.9-.3-2.6-1.2-5.6-1.3-3 0-4.7 1-5.6 1.3q-1.5.3-2-.4t0-1.6m-32.9 0c1-1.3 3.2-3.2 7.5-3.2 4.4 0 6.7 1.9 7.6 3.2q.7.9 0 1.6-.4.7-2 .4c-.8-.3-2.6-1.2-5.5-1.3-3 0-4.8 1-5.7 1.3q-1.5.3-2-.4t0-1.6m35.1 8.2c-.7-.7-1.1-.1-1.2.4-.5 1.8.2 4.5 3.4 5.4 4.4 1.2 8.8-1.4 9.3-5q-.2-.7-.9-.5c-1.3.7-2.9 2.2-6.2 1.9s-3.7-1.3-4.4-2.2m-32.9 0c-.7-.7-1-.1-1.2.4-.4 1.8.3 4.5 3.5 5.4 4.3 1.2 8.7-1.4 9.2-5q-.1-.7-.8-.5c-1.3.7-3 2.2-6.3 1.9s-3.7-1.3-4.4-2.2m15.9 29.3c-3 .3-8-2.3-7-5.2.5-1.2 2.1-1.5 2.1-1.5s-2.7-3.1-1.3-4.8c2-2.2 5-.5 7.4-1.2q.8-.4 1.5-.2-.2 1.4-2 2c-1.3.5-2.8.2-3.5.8s-.1 1.6.9 2.2c1.4.8 3.4 1.3 3.3 2 0 .6-2.4.7-3 .9q-1 .1-1.4.8c-.3.9 1 1.9 1.6 2.3l2.7 1q.2.1 0 .4c-.1.2-1 .4-1.3.4" style="fill:#1a1717"/><path d="M89.7 93.5h7.9q1 .6.8 1.7c-.4.7-1.8 2.8-4.8 2.8-2.9 0-4.3-2-4.7-2.8q-.4-1.2.8-1.7" style="fill:#33251f"/><path d="M124 27.9s-3-2.1-9.4-.7c-2.8.7-5.7 3.4-8.2 1.9-2.5-1.6-2.5-5.4-.8-8 0 0-10.1-.6-10.3 9.6a16 16 0 0 0-15.4 2c-6.2 4.8-5.4 12.1-5.4 12.1s-15.6 4.8-7.7 24.8c0 0-1.7 2.4-1.2 8.6.4 4.2 2.5 8.2 5.5 9.4 0 0 .5-20.2 1.6-20 5 1.3 9.2.1 11.1-.5 11-3.7 15.6-10.7 23-10.2 2.8.2 4.7 6.3 6 6.3 1.1 0 6.3-4.2 8.6-.3L124 67z" style="fill:#232020"/><radialGradient id="e" cx="106.8" cy="27" r="11.6" gradientTransform="rotate(20.3 110.03 27.52)scale(1 1.043)" gradientUnits="userSpaceOnUse"><stop offset=".2" style="stop-color:#444140"/><stop offset=".7" style="stop-color:#444140;stop-opacity:0"/></radialGradient><path d="M124 27.9s-3-2.1-9.4-.7c-2.8.7-5.7 3.4-8.2 1.9-2.5-1.6-2.5-5.4-.8-8 0 0-3.8 1.2-5.2 4.5-2.8 6.6-1.2 18.3 23.6 21.6z" style="fill:url(#e)"/><radialGradient id="f" cx="97.7" cy="57.3" r="33.8" gradientTransform="rotate(35.9 115.84 63.18)scale(1 1.205)" gradientUnits="userSpaceOnUse"><stop offset=".6" style="stop-color:#444140;stop-opacity:0"/><stop offset="1" style="stop-color:#444140"/></radialGradient><path d="M124 27.9s-3-2.1-9.4-.7c-2.8.7-5.7 3.4-8.2 1.9-2.5-1.6-7.3 25.4 17.6 28.7z" style="fill:url(#f)"/><radialGradient id="g" cx="84.2" cy="50.6" r="20.9" gradientTransform="matrix(1 0 0 1.35 0 -3.38)" gradientUnits="userSpaceOnUse"><stop offset=".6" style="stop-color:#444140;stop-opacity:0"/><stop offset="1" style="stop-color:#444140"/></radialGradient><path d="M83.6 48.7c-6.8.9-9.1-3.9-9.1-3.9-9.5 4-9.8 10.8-9.9 15.2q.1 5 2.2 9.6s-1.9 2.9-1.3 8.6c.3 2.9 2 7.8 5.6 9.4 0 0 .1-7.9.3-10.3 0-.6.6-9.8 1.3-9.6 5 1.1 17.8-13.3 10.9-19" style="fill:url(#g)"/><radialGradient id="h" cx="92.5" cy="47.1" r="19.6" gradientTransform="rotate(-17.2 112.36 44.1)scale(1 .873)" gradientUnits="userSpaceOnUse"><stop offset=".6" style="stop-color:#444140;stop-opacity:0"/><stop offset="1" style="stop-color:#444140"/></radialGradient><path d="M97.7 34.6c-1.8-7-12.9-5.9-17.9-2a15 15 0 0 0-5.3 12.2 9 9 0 0 0 6.2 4c4.4.7 9-.6 12.6-3.4a12 12 0 0 0 4.5-7.6q.3-1.8-.1-3.2" style="fill:url(#h)"/><radialGradient id="i" cx="104.3" cy="31.3" r="9" gradientTransform="rotate(25.2 135.74 38.35)scale(1 1.448)" gradientUnits="userSpaceOnUse"><stop offset=".6" style="stop-color:#444140;stop-opacity:0"/><stop offset="1" style="stop-color:#444140"/></radialGradient><path d="M106.4 29c-2.5-1.5-2.5-5.4-.8-7.8h-2q-2.3.4-4.2 1.5a8 8 0 0 0-3.5 4.5 9 9 0 0 0-.6 3.8s2.2 1.4 2.6 4.7c0 .6 9.8-5.8 8.5-6.6" style="fill:url(#i)"/><path d="M78.4 3.7C68 3.7 64 14.5 64 14.5S60.2 3.7 49.6 3.7c-8 0-17.1 6.4-13.7 20.7C39.2 38.8 64 56.7 64 56.7s24.7-18 28.1-32.3-5-20.7-13.7-20.7" style="fill:#ef5592"/><path d="M48 4.8c8.2 0 12.3 8.9 13.7 12.5.1.5.9.5 1 0l1.3-2.8A15 15 0 0 0 49.6 3.7c-3.4 0-6.9 1.1-9.6 3.5q3.8-2.4 8-2.4m30.4-1.1q-3.8.1-6.5 1.9 2-.8 4.2-.8c7.8 0 14.8 6 11.7 19.6C85 36 69.3 50.4 64.4 55.8c-.3.3-.4.9-.4.9s24.7-18 28.1-32.3S86.4 3.7 78.4 3.7" style="fill:#da2e75"/><path d="M41.4 11.4c1.8-2.3 5-4.2 7.8-2 1.4 1.1.8 3.5-.5 4.5-2 1.5-3.6 2.4-4.8 4.7q-1 2-1.3 4.4c-.1.6-1 .7-1.2.2-2-3.6-2.6-8.5 0-11.8M70.3 16q-1.4-.2-1.1-1.5.9-2.3 2.2-4.1c1.3-1.9 3.8-3 5.4-1.8s1.4 3.4.3 4.5c-2.5 2.4-5.6 3-6.8 3" style="fill:#f386ab"/></svg>