<svg xml:space="preserve" width="16" height="16" viewBox="0 0 128 128"><path d="M34.2 113c0-2.9 8.9-9.2 30.4-8.4s29.7 3.3 30 7.4-13.8 11.8-31.6 10.8-28.7-5.5-28.8-9.8" style="fill:#fee5ad"/><path d="M34.2 112.6s6.2-1.2 6.8 0c.4.5-3.6 2.4-3.6 2.4s4.8 6 27.2 6.2c20.5.2 27.9-7.4 28.4-8 .8-.8 1.2-2 1.4-2 .4 0 1.6 3.6-2.7 6.7s-10.8 6.4-27.4 6.2c-18 0-25.7-4.8-28.1-6.5-3-2.2-2-5-2-5m59.3 1s-4-2-5-1.5c-1.4.8 3.3 3.3 3.3 3.3zm-6.3 4.3s-4.2-2.8-5.4-2.3c-1.7.6 2.3 4.1 2.3 4.1zm-40.3 1.9s2.2-4 3.4-3.9-.4 4.6-.4 4.6zM40 117s2.5-2.7 3.4-2.3c.9.3-1.2 3.4-1.2 3.4s-2.2-1.2-2.3-1" style="fill:#fda72c"/><path d="M44 91.4s-.5 20-.3 20.3 7.3 4.2 19.9 4.4c15.6.3 21.8-4.9 21.9-5.2l.5-20.6-21.4 6z" style="fill:#ffcb80"/><path d="M43.8 100.6s7.8 4.3 20.8 4 21.2-4.5 21.2-4.5l-.1 4s-5.5 4.4-21.2 4.4-20.8-3.7-20.8-3.7zm20.4.9c-.8 0-4.7 4.2-4.7 5s4.2 5 5.2 5 4.7-4 4.7-5-4-5-5.2-5" style="fill:#eb961b"/><path d="M39.8 57.9s-3.5 1.8-2.8 5l2 8.2-4.5-2.8s-2.5 1.6-1.8 4.6c.5 2.8 2 4.4 2 4.4l-2-.7s-1.7 1.6-1.2 3.5 3 4.6 5.6 7.2c3 2.9 6.4 5.5 7 5.8a53 53 0 0 0 41.8-.6s6.2-4.3 8-6.1q3-2.7 2.6-4.2c-.1-1-.9-1.8-.9-1.8l-5.5 2.2 2-16.3s.3-2.3-.6-3.5c-1.3-1.5-3-1.7-3-1.7s-2.4 2-2.9 1.3 1.9-6.2.3-8.1c-1.6-2-3.5-.7-3.5-.7L67.2 65.7 49.6 55.2s-3-.6-4.7 1.6c-1.8 2.5-.8 5.1-.8 5.1z" style="fill:#1f6721"/><path d="M51.6 89s4.2 5.7 13.6 5.6c9.8-.1 12.8-5 12.8-5s2.7 2 8.3-1c2.3-1.2 9.8-7.4 9.3-8.2s-2.3 0-2.3 0 7-9.2 3.7-13.4c-3-4-7 2.2-8.2 1.2-1-.7 3-5.7 0-7-2-1-5.3 1.7-5.3 1.7s.5-2.8 1-4.6c.6-1.9 1-4.5-.3-5-1.6-.6-3.6 1.2-5.6 3.4-3 3.2-29-1.4-29-1.4s-1.8-.3-2.8 1.8c-.7 1.6-.5 4.6-1 4.7s-2.7-4.7-5.4-4.2q-2.7.7-1 5.8l2 7.4s-4.5-4.1-6.9-2.5c-2.8 2 1.4 7.6 1.1 8-.1.2-2.7-.6-3.2.8-.7 1.9 4.4 6.1 8.4 9.6C48.9 94 51.6 89 51.6 89" style="fill:#2f7f32"/><path d="M43.3 76.9s-1.5-5.7 2.5-8.9c4.6-3.7 10-.6 10-.6l20.5-.8s5-.2 7.9 1.6c3.4 2.2 3.3 3.4 2.9 3.8q-.4.4-2.3 1.5c-2.4 1.6-4.2 3.8-4.2 3.8l-18-4.6L49.3 75s-1.2-.8-3.3-.4-2.7 2.3-2.7 2.3" style="fill:#1f6721"/><path d="m50.7 16.3.5 24.8 6-5.2 11.2 4.4V16z" style="fill:#7fb240"/><path d="M60.6 27v9.8s7.5 2 7.7 1.8V17z" style="fill:#737f35"/><path d="M59.6 3.9c-3.4-.1-8.9 3.4-8.9 12.4 0 9.4 5.2 12.1 8.8 12.2 4.3.1 9-3.7 9-12.8-.2-9-5.9-11.8-8.9-11.8" style="fill:#f9dfaf"/><path d="M59.5 7.7c-3.1-.2-6 4-5.6 9.2.3 5.2 2.8 8 5.3 8.2 2.7.1 5.7-2.2 6-8.3 0-4.7-2-9-5.7-9.1" style="fill:#b69b5a"/><path d="m50.7 46.8-1.3 2.7V75q.2 0 2.2 1.7c2 1.7 2.3 3.3 2.3 3.3s.9-3.5 3.5-3.8c5-.5 7.7 7.3 7.7 7.3s2.5-7 7.9-6.5c4.4.5 4.2 4.5 4.2 4.5l1.5-2.2 1.9-2 .3-42.1z" style="fill:#7fb240"/><path d="m63.5 54.3-.1 25.8 1.7 3.4s.7-1.7 1.7-3 2-2.2 2-2.2V42l-3.1-2z" style="fill:#737f35"/><path d="M52 58.1c1.4 0 1.4 1.9 1.4 5.9v9c0 1.1-.3 2.8-1.4 2.8-1.3 0-1.5-2-1.5-4.5l.1-10.7q0-2.4 1.4-2.5m18.3-12.2c-1.4 0-1.6 1.7-1.6 4.4v24.1c0 1 .3 2.3 1.3 2.3q1.6-.1 1.7-3.2l.1-24.8c0-1.4-.3-2.9-1.5-2.8" style="fill:#e3de9e"/><path d="M72.2 20.5c-3.5-.1-9 3.5-9 12.2 0 9 4.6 12.5 9 12.5 5.6 0 9-4.2 8.8-13-.2-8.7-5.7-11.7-8.8-11.8" style="fill:#f9dfaf"/><path d="M72.2 24c-3.1 0-6 4-5.6 9.4s2.8 8 5.3 8.2c2.7.1 5.7-2.2 6-8.4 0-4.7-2-9-5.7-9.2" style="fill:#b69b5a"/><path d="M58 34.3c-3.6 0-9 3.5-9 12.5 0 9.2 4.8 12 9 12.1 5.2.1 9.2-3.6 9-12.7 0-9-5.8-11.9-9-11.9" style="fill:#f9dfaf"/><path d="M58 38c-3.1-.1-5.9 4-5.6 9.2.3 5.3 2.8 8 5.3 8.2 2.7.2 5.7-2.1 6-8.3.1-4.7-2-9-5.7-9.1" style="fill:#b69b5a"/></svg>