<svg xml:space="preserve" width="16" height="16" viewBox="0 0 128 128"><path d="M98.9 79.9c-1.2-2.3.3-4.6 3-7.5 4.4-4.5 9-15 4.7-25.8 0 0-.9-1.8-.8-1.9H104l-40-.2H28a19 19 0 0 0-2.1 28.6c2.5 3 4.5 4.5 3.2 6.8s-4.8 2.5-4.8 2.5.8 2.2 2.8 3.5a12 12 0 0 0 5.7 1.4s6.2 8.5 22.3 8.5H73c16 0 22.2-8.5 22.2-8.5 1.6 0 3.8-.3 5.7-1.4 2-1.3 2.8-3.5 2.8-3.5s-3.6-.3-4.8-2.6" style="fill:#bdbdbd"/><g style="opacity:.5"><radialGradient id="a" cx="99.1" cy="81.9" r="23.4" gradientTransform="matrix(1 0 0 -.491 -20.07 122.19)" gradientUnits="userSpaceOnUse"><stop offset=".7" style="stop-color:#d6d6d6;stop-opacity:0"/><stop offset=".8" style="stop-color:#e6e6e6;stop-opacity:.2791"/><stop offset=".9" style="stop-color:#f8f8f8;stop-opacity:.7007"/><stop offset="1" style="stop-color:#fff"/></radialGradient><path d="M64 95.8v-9.4L92.6 84l2.6 3.2s-6.2 8.5-22.3 8.5z" style="fill:url(#a)"/><radialGradient id="b" cx="76.6" cy="78.7" r="8.1" gradientTransform="rotate(155 75.1 18.48)scale(1 -.6)" gradientUnits="userSpaceOnUse"><stop offset="0" style="stop-color:#fff"/><stop offset=".3" style="stop-color:#f8f8f8;stop-opacity:.7007"/><stop offset=".7" style="stop-color:#e6e6e6;stop-opacity:.2791"/><stop offset="1" style="stop-color:#d6d6d6;stop-opacity:0"/></radialGradient><path d="M95.1 83.2c-4.3-6.5 5.2-9 5.2-9-1.6 2-2.4 3.9-1.4 5.6 1.2 2.3 4.8 2.6 4.8 2.6s-5 4.3-8.6.8" style="fill:url(#b)"/><radialGradient id="c" cx="87.2" cy="57.2" r="30.4" gradientTransform="rotate(-94.3 131.82 9.39)scale(1 -.61)" gradientUnits="userSpaceOnUse"><stop offset=".6" style="stop-color:#d6d6d6;stop-opacity:0"/><stop offset=".7" style="stop-color:#e6e6e6;stop-opacity:.2791"/><stop offset=".9" style="stop-color:#f8f8f8;stop-opacity:.7007"/><stop offset="1" style="stop-color:#fff"/></radialGradient><path d="M106.6 46.7c4.3 10.3-.2 21-4.4 25.5-.6.6-3 3-3.6 4.9 0 0-9.5-13.3-12.3-21.1q-1-2.4-1.2-5c0-1.2.1-2.7.9-3.7a111 111 0 0 1 20.1-1.7z" style="fill:url(#c)"/><radialGradient id="d" cx="141.1" cy="81.9" r="23.4" gradientTransform="matrix(-1 0 0 -.491 190.02 122.19)" gradientUnits="userSpaceOnUse"><stop offset=".7" style="stop-color:#d6d6d6;stop-opacity:0"/><stop offset=".8" style="stop-color:#e6e6e6;stop-opacity:.2791"/><stop offset=".9" style="stop-color:#f8f8f8;stop-opacity:.7007"/><stop offset="1" style="stop-color:#fff"/></radialGradient><path d="M64 95.8v-9.4L35.6 84 33 87.2s6 8.6 22 8.6z" style="fill:url(#d)"/><radialGradient id="e" cx="118.5" cy="78.7" r="8.1" gradientTransform="rotate(25 1.9 -144.07)scale(1 .6)" gradientUnits="userSpaceOnUse"><stop offset="0" style="stop-color:#fff"/><stop offset=".3" style="stop-color:#f8f8f8;stop-opacity:.7007"/><stop offset=".7" style="stop-color:#e6e6e6;stop-opacity:.2791"/><stop offset="1" style="stop-color:#d6d6d6;stop-opacity:0"/></radialGradient><path d="M33 83.2c4.2-6.5-5.3-9-5.3-9q2.7 3 1.5 5.6c-1.2 2.3-4.8 2.6-4.8 2.6s4.9 4.3 8.6.8" style="fill:url(#e)"/><radialGradient id="f" cx="36.6" cy="56.7" r="31.3" gradientTransform="rotate(-85.7 49.2 45.08)scale(1 .59)" gradientUnits="userSpaceOnUse"><stop offset=".6" style="stop-color:#d6d6d6;stop-opacity:0"/><stop offset=".7" style="stop-color:#e6e6e6;stop-opacity:.2791"/><stop offset=".9" style="stop-color:#f8f8f8;stop-opacity:.7007"/><stop offset="1" style="stop-color:#fff"/></radialGradient><path d="M25.8 73.1q2.3 2.5 3.3 4c.6-.9 9.6-13.5 12.3-21q1-2.5 1.2-5c0-.9-.6-4.4-1.2-6.6H28a19 19 0 0 0-2 28.6" style="fill:url(#f)"/></g><linearGradient id="g" x1="64" x2="64" y1="34.5" y2="1.8" gradientTransform="matrix(1 0 0 -1 0 130)" gradientUnits="userSpaceOnUse"><stop offset="0" style="stop-color:#f44336"/><stop offset=".4" style="stop-color:#e73b32"/><stop offset="1" style="stop-color:#c62828"/></linearGradient><path d="M64.1 96c-25.6 0-52 7-52 25v3h104v-3c0-16.9-26.1-25-51.9-25" style="fill:url(#g)"/><path d="M90.8 49.6H37.2c-5.8 0-10.5 5.1-10.5 11.4s4.7 11.5 10.5 11.5h53.6c5.7 0 10.5-5.1 10.5-11.5s-4.8-11.5-10.5-11.5" style="fill:#e59600"/><path d="M63.6 10.5c-17 0-32.9 18.2-32.9 44.5 0 26.1 16.3 39 32.9 39s32.9-12.9 32.9-39c0-26.3-15.8-44.5-33-44.5" style="fill:#ffca28"/><path d="M91.5 61.5h-.4l-4.4-1.8a1 1 0 0 1-.2-1.7l3.5-2.8a1 1 0 0 1 1.4.1q.5.8-.2 1.4L89 58.5l2.9 1q.8.5.5 1.4a1 1 0 0 1-.9.6M46.6 79.8l-.8-.3a1 1 0 0 1 0-1.4L53 71a1 1 0 1 1 1.4 1.4l-7.1 7.1zm34.8 0-.7-.3-7.1-7A1 1 0 1 1 75 71l7.1 7.1a1 1 0 0 1-.7 1.7M36.5 61.5a1 1 0 0 1-1-.6 1 1 0 0 1 .6-1.3l2.9-1.2-2.2-1.7a1 1 0 0 1-.2-1.4 1 1 0 0 1 1.4-.1l3.5 2.8q.5.3.4.9 0 .5-.6.8l-4.4 1.7zm15.1-18.2a1 1 0 0 0 1.2 1 48 48 0 0 1 22.3 0 1 1 0 1 0 .4-2 54 54 0 0 0-23.2 0 1 1 0 0 0-.7 1" style="fill:#eda600"/><path d="M72.2 76.2a25 25 0 0 1-16.5 0c-1.8-1.1-3.6.5-2.8 2.2.7 1.6 6.3 5.3 11.1 5.3s10.4-3.7 11.1-5.3c.7-1.7-1-3.3-2.9-2.2" style="fill:#795548"/><ellipse cx="47.7" cy="59.3" rx="4.8" ry="5" style="fill:#404040"/><ellipse cx="80.3" cy="59.3" rx="4.8" ry="5" style="fill:#404040"/><path d="M54.8 49.8c-1-1.2-3-3-7.2-3s-6.3 1.8-7.3 3q-.5 1 0 1.6t2 .4c.8-.3 2.5-1.2 5.3-1.2s4.5.9 5.3 1.2q1.4.3 2-.4.4-.6-.1-1.6m32.9 0c-1-1.2-3.1-3-7.3-3s-6.3 1.8-7.2 3q-.5 1 0 1.6t1.9.4c.9-.3 2.5-1.2 5.3-1.2s4.5.9 5.4 1.2q1.3.3 1.9-.4t0-1.6" style="fill:#9e9e9e"/><path d="M99.3 30.1c-2.4-6.5-53-18.6-69.5 3.7-3.3 4.4-.5 18.7-.5 18.7-.5 8 1 13 1.8 15q.4.4.7-.1c1-4 4.4-17.8 4-20.2 0 0 11.4-2.3 22.2-10.3q3.3-2.4 7.1-4c13.6-5.4 16.5 3.8 16.5 3.8S91 35 93.8 48c1.1 5 1.8 12.8 2.4 18.3 0 .3.6.4.8 0 1-2.1 8.1-20.5 2.3-36.2" style="fill:#bdbdbd"/><linearGradient id="h" x1="27.6" x2="105.5" y1="97.1" y2="97.1" gradientTransform="matrix(1 0 0 -1 0 130)" gradientUnits="userSpaceOnUse"><stop offset="0" style="stop-color:#f44336"/><stop offset=".4" style="stop-color:#e73b32"/><stop offset="1" style="stop-color:#c62828"/></linearGradient><path d="M91 11.6C85.5 7 77.5 4.3 63.5 4.3c-25.6 0-36 16.5-36 36.9l3 .3L64 32s30 9.4 30.3 10.2l5.7 17.5q.6 1.6 2.4 1.8c1.2 0 2.3-1 2.4-2.3.2-2.9.5-8 .6-13 .2-7.3.9-21.8-14.5-34.7" style="fill:url(#h)"/><radialGradient id="i" cx="98.5" cy="62.4" r="14.2" gradientTransform="matrix(1 0 0 1.01 0 -.58)" gradientUnits="userSpaceOnUse"><stop offset=".5" style="stop-color:#f5f5f5"/><stop offset="1" style="stop-color:#bdbdbd"/></radialGradient><circle cx="101.9" cy="63.9" r="6.8" style="fill:url(#i)"/><path d="M97 30.7C96 30 81.7 22 62 22s-34 8-34.9 8.7c-4 3-4.3 7.5-1.9 11.9 1.5 2.5 4.8 2 5.4 1.4 0 0 13.5-5.5 31.5-5.5S93.6 44 93.6 44c.6.6 3.9 1.1 5.3-1.4 2.5-4.4 2.2-9-1.8-11.9" style="fill:#f5f5f5"/><path d="m67.8 68.4-.3-.1h-7.3q-1 .5-.7 1.7c.3 1.2 1.7 2.6 4.5 2.6s4.2-2 4.5-2.6q.4-1.2-.7-1.6" style="fill:#e59600"/><radialGradient id="j" cx="81.4" cy="29" r="11.7" gradientTransform="rotate(-30 373.84 22.45)scale(1 -1.931)" gradientUnits="userSpaceOnUse"><stop offset="0" style="stop-color:#e0e0e0"/><stop offset=".7" style="stop-color:#f5f5f5"/></radialGradient><path d="M96.2 103c-.8 1.9-5.2 4.6-10 6.5L86 107c0-6-1.1-11.3-6.5-14.2q-1.9-.9-3.8-1.3l5.9-3.3a3 3 0 0 1 1.5-.4c3.6 0 7.3 6.1 8.8 7.8s5 5.7 4.2 7.3" style="fill:url(#j)"/><linearGradient id="k" x1="31.7" x2="74.4" y1="28.6" y2="28.6" gradientTransform="matrix(1 0 0 -1 0 130)" gradientUnits="userSpaceOnUse"><stop offset=".7" style="stop-color:#f5f5f5"/><stop offset="1" style="stop-color:#e0e0e0"/></linearGradient><path d="M71.7 112.9c-1.8.2-4.7.3-6.5.3h-2.4c-14.5 0-29.3-6-31-10.2-.7-1.6 2.6-5.5 4.2-7.3 1.5-1.7 5.3-6.2 9-6.2q1 0 1.8.3c6.5 2.6 8.7 4.6 18.2 3.5 0 0 6 7.3 6.3 10.7.1 1.8.4 5.1.4 8.9" style="fill:url(#k)"/><path d="M87.1 106.7c0-6.1-1.7-12.2-6.8-14.6q-2.9-1.3-5.6-1.2c-5.7 0-10.4 2.5-10.4 2.5s6 7.3 6.3 10.8c.2 3.4.1 12.7 0 19.8h17z" style="fill:#fafafa"/></svg>