<svg xml:space="preserve" width="16" height="16" viewBox="0 0 128 128"><path d="M85.7 25.4C85.7 25 83.2 4 61.4 4q-2.5 0-5.2.3c-23.6 3.2-22.5 25-22.5 29.2s2.2 38.3 6 45.8c1.6 3 5.6 3.7 9.3 3.7 4 0 7.7-1 7.7-1l11-1.7 8.6-1.3s4.7-.8 6.7-4.7c5-9.9 5.3-33 2.7-49" style="fill:#312d2d"/><radialGradient id="a" cx="61.1" cy="85.6" r="42.1" gradientTransform="rotate(86.5 14.43 120.99)scale(-1 .813)" gradientUnits="userSpaceOnUse"><stop offset=".8" style="stop-color:#454140;stop-opacity:0"/><stop offset="1" style="stop-color:#454140"/></radialGradient><path d="M85.7 25.4C85.7 25 83.2 4 61.4 4q-2.5 0-5.2.3c-23.6 3.2-22.5 25-22.5 29.2s2.2 38.3 6 45.8c1.6 3 5.6 3.7 9.3 3.7 4 0 7.7-1 7.7-1l11-1.7 8.6-1.3s4.7-.8 6.7-4.7c5-9.9 5.3-33 2.7-49" style="fill:url(#a)"/><linearGradient id="b" x1="62.2" x2="62.2" y1="50.3" y2="8.7" gradientTransform="matrix(1 0 0 -1 0 128)" gradientUnits="userSpaceOnUse"><stop offset="0" style="stop-color:#651fff"/><stop offset="1" style="stop-color:#530eeb"/></linearGradient><path d="M101.3 124H56q-7.3-.1-9.6-.7c-7.1-1.3-14.8-2.5-20.7-6.5-4.4-3.1-9.1-8.9-4.5-19 6.5-15 12.2-29.7 25.4-31.5 4.5-.7 11-.6 18.3-.6s12.2 1.2 15.3 1.9c21.8 4.8 22.7 22 24.7 40.7 0 0 1.7 15.7-3.6 15.7" style="fill:url(#b)"/><path d="M64.7 59.5h-7.1v7.9c0 3.5 2.9 6.4 6.5 6.4h1.3c3.6 0 6.5-2.8 6.5-6.4v-7.9z" style="fill:#edc391"/><path d="M82.1 33.8C78.9 18 69 11.5 59 12q-1.7 0-3.4.4c-11.1 2.3-19.7 12.6-16.1 30a26 26 0 0 0 21.3 21.7 18 18 0 0 0 5.3 0q2.3-.5 4.8-2c7-4.2 14-14.3 11.2-28.3" style="fill:#f9ddbd"/><path d="M54.3 35c-.7-.7-2.3-1.6-5-1.2s-3.9 1.8-4.4 2.7q-.2.6.2 1t1.2 0c.8-.3 1.6-1 3.4-1.2q2.7-.3 3.6.2c.9.5 1-.2 1.2-.5q.2-.4-.2-1m21.1-3.3c-.7-.7-2.3-1.6-5-1.2s-4 1.8-4.4 2.7q-.2.6.2 1t1.2 0c.8-.3 1.5-1 3.4-1.2q2.7-.3 3.6.2.8 0 1.1-.5t-.1-1" style="fill:#454140"/><path d="M68.2 50.4A17 17 0 0 1 57.5 52c-1.3-.5-2.4.8-1.7 1.8s4.7 2.8 7.8 2.3c3.2-.5 6.4-3.5 6.7-4.6.4-1.1-1-2-2-1.1" style="fill:#444"/><path d="M64.3 44.3H64l-4.5.7h-.2q-.7.4-.3 1.2c.4.8 1.3 1.5 3.2 1.2a3 3 0 0 0 2.6-2.2q0-.6-.6-1" style="fill:#dba689"/><path d="M50.6 42.6q-2 .2-3.5-.3-.6-.2-.4.4c.5 1.6 2.3 2.5 4.3 2.2s3.4-1.8 3.4-3.4q0-.7-.6-.3-1 1-3.2 1.4m21.2-3.3q-2.1.2-3.5-.3-.6-.3-.5.4c.5 1.5 2.4 2.5 4.3 2.2 2-.3 3.5-1.8 3.5-3.5q0-.6-.6-.2-1.2 1-3.2 1.4" style="fill:#312d2d"/><linearGradient id="c" x1="78.2" x2="78.2" y1="-17.6" y2="54.3" gradientTransform="matrix(1 0 0 -1 0 128)" gradientUnits="userSpaceOnUse"><stop offset="0" style="stop-color:#212121;stop-opacity:.8"/><stop offset="1" style="stop-color:#212121;stop-opacity:0"/></linearGradient><path d="M101.7 109.3c-6.1-11-7.8-12.5-8.7-14.5-1.4-3.2-2.8-4.4-4-4.9q0-1.8-.8-4.5 1-.6 1.5-1.7.5-1.5 0-3l-3.2-7C86 72.6 54 86.3 54 86.3c-1 1.8-1.5 3.3-.2 6.2.8 1.7 2.6 3 3 2.9l3-1.2q.6 1 1.7 1.4c.3.1 1.4.4 2.9 0l7.8-3.4A4 4 0 0 0 76 94a7 7 0 0 0 3 3.7c-1 1.6.8 4.7 1.8 6.6 1.5 3-2 14.3-.7 19.7h21.2c1.6-3.3 3.4-9.4.4-14.7" style="fill:url(#c)"/><linearGradient id="d" x1="82.9" x2="57" y1="50.8" y2="38.4" gradientTransform="matrix(1 0 0 -1 0 128)" gradientUnits="userSpaceOnUse"><stop offset="0" style="stop-color:#81d4fa"/><stop offset="1" style="stop-color:#0288d1"/></linearGradient><path d="m92.8 77.6-3-7.2q-.7-1.4-2.2-2t-2.9 0l-23.2 10c-2 .8-2.8 3-2 5l3.1 7a4 4 0 0 0 3 2.3q1 .1 2-.3L91 82.5q1.4-.6 2-2 .5-1.5 0-3" style="fill:url(#d)"/><path d="M60.7 78.8c-1.3.6-2 2.7-1.3 4.1l3.6 8.2c.6 1.4 3.2 2 4.6 1.4l23.3-10z" style="fill:#fffde7"/><path d="M57.7 85.2q.9-.3 1.4.3L60 87q.6 1.5.7 2.9l-.1.3-.3.1-1.6.1c-1.1 0-1.7-1-2-2q-.3-.8-.2-1.8.2-1 1-1.5z" style="fill:#c53929"/><path d="m63 91.1-1.1.5a2 2 0 0 1-2.2-.5q-.6-.8-.6-2-.2-1.6-1.2-2.6l-.6-.5c-.8-.9 0-2.4.9-2.8l1-.5c1.1-.5 3 .4 4.2 3.2 1.1 2.7.6 4.8-.4 5.2" style="fill:#e06055"/><path d="M55 93.2c-.6 5.2-4.9 9.6-9.8 10.9-5.2 1.4-11.8-1.6-15-6.1-6-8.4.4-15.4 1.8-17 3.4-4 8.5-3.8 12.5-3.6C52.8 78 56 86.2 55 93.2" style="fill:#c5e1a5"/><path d="M43.2 75.8c-2.1 0-5.3.2-7.5 1.5-1 .6-1.4 1.7-1.4 1.7 2.7-1 5.5-1.3 8.8 0 6.4 2.3 7.5 7.7 7 14.5-.5 4.8-3.7 8.8-7.6 10q-2.9 1.2.7 1.7c8.6.6 14.7-6.6 14.7-14.7s-5.4-14.8-14.7-14.7" style="fill:#fef6e0"/><path d="M58.5 96.3c12.4 1.1 16 8 16 8 12.4 2.8 15.6 11 14.7 14.8 0 0-5.7 3.4-9.3 3.4q-7.6.2-15.3 0s.8-5.7-1-7.3c-1.2-1-3.2 0-5-1.1-3.2-2-8-4.8-12-7-4-2.1-7.6-3.1-7.6-3.1a22 22 0 0 1 19.5-7.7" style="fill:#bdbdbd"/><linearGradient id="e" x1="57.9" x2="57.9" y1="5.9" y2="47.7" gradientTransform="matrix(1 0 0 -1 0 128)" gradientUnits="userSpaceOnUse"><stop offset=".1" style="stop-color:#212121;stop-opacity:.4"/><stop offset="1" style="stop-color:#252525;stop-opacity:0"/></linearGradient><path d="M28.7 86s.9 6.7 7.2 8c8.6 1.7 14.3-2.5 14.3-2.5s.6 1.1 2.2.7c1.3-.3 4-1 4.6-2 .8-1.3.7-2.4.7-2.4l.1 1.4q0 2-.2 3.8c-.2 1.3-.8 3.1-.8 3.1-1.8.5-3.5 2.7-2.5 5.7A15.4 15.4 0 0 0 69.7 112q4.1-.3 8.3-1.3.8-.3 1.4 0c1.1 1.6-1.5 4.2-2.2 5 5.4 2.9 11.4.1 11.7.2s-3 3.6-9.2 3.6c-2.8 0-5.6-1-8.3-1.8-2.7-.7-6 .1-7.6-2.2-1-1.3-3.4-.3-5.1-1.3-3.4-1.9-11.4-6.8-15.2-8.4-3.2-1.3-3.9-1.5-5.1-1.9-4.1-1.1-7.9 1.7-11-2.5-1.7-2.3 1-6.3 1-6.3-1.8-4.6.3-9 .3-9" style="fill:url(#e)"/><linearGradient id="f" x1="93" x2="107.5" y1="22.9" y2="2.9" gradientTransform="matrix(1 0 0 -1 0 128)" gradientUnits="userSpaceOnUse"><stop offset="0" style="stop-color:#651fff"/><stop offset=".8" style="stop-color:#530eeb"/></linearGradient><path d="M83.4 93.6c-3 1.2-.6 5.2.6 7.5 1.8 3.5 3 13.4 5.4 17.4 3.1 5.4 11.6 7 15.2 4.4 3-2.2 4-10.2.4-16.8-6.1-11-7.9-12.6-8.7-14.5-2.9-6.4-5.7-5-5.7-5z" style="fill:url(#f)"/><linearGradient id="g" x1="62.5" x2="90.1" y1="10.8" y2="10.8" gradientTransform="matrix(1 0 0 -1 0 128)" gradientUnits="userSpaceOnUse"><stop offset="0" style="stop-color:#ffd29c"/><stop offset=".5" style="stop-color:#f9ddbd"/></linearGradient><path d="M90.1 116.7c0-.6-.2-1.3-1.8-.7-4 1.6-7 2.7-11.5 1 .5.3 6-4.3 2.7-6.6-1.3-.5-4.2 2.7-7.1 3-2.9-.2-6.4-.3-8.9 2.3l-1 8.3c2.6 0 14.7.4 19.5-.3 2.8-.7 7.5-3 8.1-7" style="fill:url(#g)"/><linearGradient id="h" x1="97.2" x2="84" y1="-46.8" y2="-30.6" gradientTransform="matrix(.99 .143 .143 -.99 .38 35)" gradientUnits="userSpaceOnUse"><stop offset="0" style="stop-color:#ffd29c"/><stop offset=".5" style="stop-color:#f9ddbd"/></linearGradient><path d="M79 70c-.9-.2-2.6-.1-2.9.7-.6 1.6 1.2 2.6 2.3 2.9l3.9.8 1.7 3s-3.8-1.1-5.5-1.2c-2.2 0-5 1.2-6.5 1.8-2 .9-.6 3.2 1.6 3.1a13 13 0 0 0 3.9-.8l2.5 1c-1 0-4 .3-4.6 2-.7 2 .6 3.5.6 3.5s-.8 1 0 2.7c.6 1.4 2.5 2.4 4.3 2.5a5 5 0 0 0 4.8 3.4c3 0 5.4-2 6.5-4 1.3-2.6 1.6-6-.7-11.1-1.3-3-3.6-7.8-5.6-8.7-2.5-1.2-2.8-1.1-6.3-1.6" style="fill:url(#h)"/><path d="m78.9 91.7 1.4.3q.6 1.7 1.8 2.4c-.3-.3-.8-1.2-.8-1.4-.3-1.3 0-1.8.3-2.6q.7-1.1.1-1.5c-.4-.3-2 .2-2.4.3 0 0 1 1 .6 1.8q-.3.6-1 .7M76 86.8s1.8-2 6.1-1.6c0 0-1.3-1-3.2-.7-2.2.3-2.9 2.3-2.9 2.3m4-5.5h2.7s-1.7-.7-2.7-.8l-2.5-.2z" style="fill:#edbd82"/><path d="M84 28.2c-.5-5-4.4-24.9-28.1-21.6-22 3-20.2 25-20 30 .3 3.7.8 11 1.3 15 .5 4.3 5 5.2 5 5.2s0-6.2-.3-12.2c-.3-5.4-.2-9.8 2.2-10.7 14-5.2 21-14.5 21-14.5 2.8 4.3 10.2 7.8 12.9 9.1 2.2 1.2 2.8 7 3.2 9.5l-.7 17.8s4.4-2.6 4.7-7c.2-4-.6-15.6-1.2-20.6" style="fill:#312d2d"/><radialGradient id="i" cx="60.7" cy="86.7" r="43.1" gradientTransform="rotate(85 16.72 122.66)scale(-1 .828)" gradientUnits="userSpaceOnUse"><stop offset=".7" style="stop-color:#454140;stop-opacity:0"/><stop offset="1" style="stop-color:#454140"/></radialGradient><path d="M84 28.2c-.5-5-4.4-24.9-28.1-21.6-22 3-20.2 25-20 30 .3 3.7.8 11 1.3 15 .5 4.3 5 5.2 5 5.2s0-6.2-.3-12.2c-.3-5.4-.2-9.8 2.2-10.7 14-5.2 21-14.5 21-14.5 2.8 4.3 10.2 7.8 12.9 9.1 2.2 1.2 2.8 7 3.2 9.5l-.7 17.8s4.4-2.6 4.7-7c.2-4-.6-15.6-1.2-20.6" style="fill:url(#i)"/></svg>