<svg xml:space="preserve" width="16" height="16" viewBox="0 0 128 128"><path d="M63.4 20.5C39.4 21 20.8 31.8 12.6 58s8.2 65.3 50.4 66 63.8-41.9 50-73.1a52 52 0 0 0-49.6-30.5" style="fill:#efe4af"/><path d="M82 112c-1 .7-5.6 10.7-5.6 10.7l2.4-.6 2.2-.6s3.8-6.7 3.6-8c-.2-1.1-1.8-1.8-2.6-1.4m7-2.6c-1.3.5-1.6 5.2.4 5.6 2 .5 3.2-1.7 3.4-3 .2-1.1-2-3.3-3.8-2.6m-9.4-.5c.8 0 4.2-8.6 4.1-9.4s-4-2.9-5.3-2.3-3 4.8-2.3 7.5c.6 2.8 2.4 4 3.5 4.2m2.1-21.3c-1 .2-2.6 4.9-2.4 5.6.9 2.5 5.1 2.8 5.7 2.5.6-.4 1.5-5.3 1.1-6s-3.4-2.3-4.4-2.1m-12.7 4c-.1.3 2.5.1 2.5.1s3.1 1.7 3.2 3.4c0 1.8-2.4 5.3-2.7 4.6-.4-.6-3-8.6-3-8m5.9 17.8c-.5.8-.1 4 1.1 4.4s2.3-.9 2.1-2.8-2.7-2.7-3.2-1.6m13.3-14.7c-1.2.1-2.2 3.8-1.4 4.9.7 1 3.6.7 4.2-.5s-1.7-4.6-2.8-4.4m-2.7 8.7c-1.4.6-1.5 3.4-1.4 4s1.4 1.6 2.1 1.5c.8 0 2.1-2.3 2.1-3.7s-2-2.1-2.8-1.8m6.2.2c0 .9 1 2.5 1.8 2.5.7 0 2.9-4.3 2.9-4.3l-1.7-5.8s-3.1 3.6-3 7.6M89 91.9c0 .5 1 1.5 1.6.2.7-1.2 3-7.5 3.3-8.4S93.2 81 92 81s-3 9.4-3 10.9m-18.9-6.4s2.4 3.9 5 3.8c2.5-.1 3.7-2.8 3.5-3.3s-4.5-4.3-5.3-4-3.2 3.5-3.2 3.5m-.5-28.1s4.7-.5 5.3 3.1S70 72.9 70 72.9l-3-10.1zm-2.8-12.6s3.7-1 3.8-.3-4 9.5-4 8.4c-.1-1.1.2-8.1.2-8.1m3.8 7.4c.6 2 4.2 3.2 5.1 3.2 1-.1 3.1-3.2 3.3-4 .1-1-.6-6.1-2.3-6.3s-6.6 5.5-6.1 7.1M78.4 65c.6 1.4 5.2 1.8 5.4 1.2s1.3-4 .6-5.4-5.4-1.4-5.9-.6-.8 3.4-.1 4.8m-4.6 7.4c-.4.6-1.4 4-.5 3.6s9.5-4.1 9.3-5.6S79.9 69 79 69a13 13 0 0 0-5.2 3.4m1.7 6.6c.3.9 2.6 2 3.6 2 1-.1 4.6-4.8 5-5.5.3-.8 0-2.2-1.8-2s-7.2 4.6-6.8 5.5m10.7-4.6c-.1.8 1.9 4 4.4 3.4s2.3-9.6 1.5-10-3 3.1-3.6 4-2.3 1.6-2.3 2.6m-1.1 4.2c-.8 0-3.5 4.7-3.1 5.4s3.6 3 5 2.1c1.2-.8.9-5.8.7-6.4s-2-1.1-2.6-1.1m11.2-26.2s1.8-1 2.4-.4 2.3 2.4 1.7 3-3.8 4.1-3.8 3.8zm-14-2.3c-.7.3-2.6 6-2.4 6.8s4.3.1 4.8-.3.4-4.6 0-5.2c-.3-.6-1.9-1.5-2.4-1.3m3.9 18.5c0 .7 1 1 1.6.6.5-.5 2.7-4.3 2.6-5.3 0-1-1.8-1.7-2.3-1.1s-1.7 2-1.9 5.8M70.4 41c.5 0 2.9-2.2 2.6-3.6s-2.3-3.2-2.9-2.6c-.5.6-.2 6 .3 6.1m10.4-8.6c-.8.6.9 2.7 2 2.8 1 0 2.7-.5 2.8-1.3s.5-2.8-1-3.2-3 1.1-3.8 1.7m7.2-3.2s.3 5.4 1.6 5.6c1.2.2 2.8-4.5 2.8-4.5zm3.3 9.9c0 .8 3.9.8 4.5.2.6-.5-.3-5.4-.8-5.6s-3.8 4.6-3.7 5.5m.7 4.7c-.3.9.4 2.7 1.8 2.8s2.1-2.3 1.8-2.9-3.2-.5-3.5.1m7.3-1c-1 .4-2.8 5.1-2.4 5.7s2.3 1.6 3 1.5c.7 0 2.8-4.7 2.5-5.7s-2.3-1.8-3.2-1.5m4.7 5.1c-.3-.2-2.4 3.7-2.3 4 0 .3.5 1.5 1.3 1.1s2.3-2.5 2.3-3-.7-2-1.2-2.1m-2 9.3c-.5 1 .8 1.8.4 3.1-.3 1.4-1 3.6-.6 4.2.4.5 4.8-.6 5.1-1 .4-.4.8-4.6.4-5.6s-4.4-2.6-5.3-.7m3.6-3.1c.3.7 5 .5 5 .1l-1.1-3.8s-4.3 2.8-4 3.7m4.7 6.5c-.5.5-1.7 4.5-1.5 6s1.9 5.3 2.6 5.4c.8 0 .3-8 .2-9.2-.2-1.1-.7-2.7-1.3-2.2m-6.6 7.6c0 .8 1.7 8 3 8.3s2.8-1 2.9-2c0-1-2.4-6.8-3-7.8-.4-1-2.8.4-2.9 1.5m2.7 11.8c-.6.9-1.8 3.4-1.2 4.3q1 1.3 4 .7c1.9-.4 2-1.4 2.2-2 0-.5.6-3 0-3.8s-4.7.4-5 .9m-1.6 11.5c1.8 0 1.8-1.1 3.6-1.8s3-1.2 3-1.6.8-2.6.4-2.8-1.3 1-2.7 1.2c-1.5.3-2.5.2-3.3.6s-2.1 1.6-2 2.6c0 1 .6 1.8 1 1.8m.3 4.1c-1 1.5.7 3.2 1.4 3.4.8.2 2.8 0 2.8 0l1.9-3.3 1.2-2.6s.2-1.5-.4-2-2.8.5-3.9 1.4-2.4 2.4-3 3.1M48.4 22.3l2.7-.6 2.4-.4s0 1.2-.8 1.5c-.8.2-4.3-.5-4.3-.5m16.9-1.9s6.7 0 11.3 1.3l9.2 2.9-6.2 1s2.2-.8 1.7-1.5-3.2-1.7-3.7-1 .3 2.2.3 2.2l-2 .7s.5-1.8-.4-2.2-1.5-.3-2.3-1c-.6-.6-3.2-2.8-6.1-1.2-2 1.2-1.8-1.2-1.8-1.2m-29.6 8.1 14.2-2.3s.8-1-.4-1.3-4.2-.2-4.2-.2-.4-.5-1-.6l-1-.2s-4.5 1.7-6.4 2.8-3 2.2-3 2.2zm.6 4.2s.6 2.4 2.2 2c1.5-.3 1.9-1.2 2.4-2.6l.5-1.7zm6.7-3c0 .2.4.8 0 2s-1.6 3-.6 3.6 3.1-2 3.7-2.4c.6-.5-.1-3.4-.1-3.4zm-9.9 6c.1.8 2.9 3.5 3.6 3.7.7 0 1.8-1 1.3-1.7a19 19 0 0 0-3.3-3.1c-.6-.4-1.7-.1-1.6 1.1M32 39.5c-.3-.3-1.4.4-1.3 1.2s1.3 1.9 1.5 3.1-.6 3.3 0 4.1c1.3 1.4 3.7-1.5 3.5-3.3s-3-4.5-3.7-5.1m-7 3.3c0 .3 1.4 4.3 2.3 4.5s1.6-2 1.6-3c-.1-.9-2.6-6.3-2.6-6.3zm3.4 9.2c-.4.8-.3 3.8.1 4 .5.4 3-1 3.5-1.4.7-.4 2.4-1.3 2.3-2 0-.8.2-3.6-.4-3.8s-2.2 1.4-3.2 1.8q-1.7.4-2.3 1.3M17.2 53l1.5 1.4 3.1-2.6q1.3-.6 1.4-2.2.3-2.4-.2-2.7c-.5-.2-3.7-.4-3.7.1s-2 6-2 6m3.5 2.7c-.3 2 1 4.7 1.8 4.8.7.1 1.3-1.5 2-1.8.5-.3 1.3-.3 1.5-.7.3-.4 0-2.9-.2-3.6-.1-.7 0-2.1-1-2-1.1.2-3.7 1.4-4 3.3m5.5 6.5c-.7 0-2.3 1.2-2.6 1.9l-1.1 2.2c-.4.4-1.4 1.1-1 2.2.5 1.1 2.5 2.4 3.9 2.3s2-2.8 2-4.5-.5-4.1-1.2-4.1m-10 10.1c0 .8 2.2 2.5 3.1 3.4s2.6 2.6 3.2 2.6 2.9-2.3 2.6-3c-.2-.9-2-2.6-2.6-3.4-.7-.9-2-2.2-3.1-2.1-1.1 0-3.2 1.8-3.2 2.5m-3-2.8c.4-.1 3-1.5 4.4-2.6s2.3-1.9 2.3-2.4-.3-1.9-.7-2.9-2-3.2-2-3.2-4.2 4.2-4.2 5.4zM31.8 71c-1 .4-3.4 1.9-3.3 4.2a5 5 0 0 0 1.5 3.5l3-4.5zM20.3 82.6c-1.6-.2-2.7-.6-3.1.6-.5 1.1 1 2.7 1.7 3.6s3.6 3.9 5.1 3.9 3.4-2 3.4-2.7c0-1-3.7-5-4-5.2zm-.6 9.4c-.7.2.3 3.2 1.3 4.6 1 1.5 2.5 2.4 3 2.5s3-1.2 2.9-1.6c0-.3-1.8-1.5-2.8-2.6s-1.5-2-2.2-2.4-1.8-.6-2.2-.5m6.9 1c-.2.6 1 1.6 2 2.2 1.5 1 5.3 1.3 5.3 1.3s-3-8-3.2-7.8l-2.9 2.6c-.3.4-1 1-1.2 1.8m-2.9 8.6c.3.6 1.1 2.5 3 2.5 1.5 0 2-3.4 1.7-3.8s-5.5-.5-4.7 1.3m-1.4 3.7s1-.6 3 .4c4.8 2.4 4.4 7 4.4 7l-4.5-4.1zm22.7 8c-.6.8 1.5 3.4 1.5 3.4s-.2 3.2.3 3.8 2.7 1.2 4 1.3c1.8.2 2.4-1 2.3-1.3 0-.3-.3-2-1.8-4.7q-1.9-3-2.8-3.4c-1-.4-3.1.4-3.5 1m4-4.5c-.2 1 2.7 3.2 3.6 4s1.6 1.6 2.3 1.4c.8-.2 1.5-2 2-2.5q1.1-1 1.3-2.2c.2-1.2-1-4-1.4-4.4s-5-.9-5.4-.6c-.6.3-1.2 1.2-1.3 1.7s-1 2-1 2.6m9.1 5.6c.5 0 2.5 2.7 2.5 3.3s-1.2 4.1-1.7 4.3-3 .2-3.3-.3-.6-4.7 0-5.3 2.2-2 2.5-2M46.8 98.2c-.1.7 1.3 2 2 2.6s1.2 1.8 2.7 1.4q2.4-.5 3.4-3a16 16 0 0 0 1.3-5.5c-.2-.4-3.3-2.8-4-2.3s-5.3 6-5.4 6.8M59 96c-.9.2-2.6 5-2.4 5.4 0 .5 1.3 1.9 2.5 1.7s2.8-2.8 2.8-3.4c0-.5-2.2-3.7-3-3.6m-14.3 5.7c.3.2 1.4 1.7 1 2.8-.3 1.2-1.6 6.2-2.2 6.1s-2-5-2-5.4 2.9-3.7 3.2-3.5m-4.4-5.3c-.4.2-1.4 2.2-1.4 3-.1.6 0 3 1 3.1 1.8.3 3.6-3.4 3.6-3.8s-1.2-1.7-1.6-2c-.4-.2-1-.7-1.6-.3m-.8-5.6c0 1 2.9 3.6 4.9 3.7s3.7-2.8 3.6-3.5-5.5-5.2-6-5c-.5 0-1.1 2.1-1.1 2.1S39.3 90 39.4 91M48 76.1c-.5.2-1.4 3.2-1.7 4s-.7 3.2-.4 3.6 2.2 1.4 4.1 1.2c2-.1 2.9-2 3.2-2.5a23 23 0 0 0 1.2-5.6c-.3-.8-5.4-1-6.4-.7m-5.2-1.9c-.9 0-2.7 3-2.7 3.8s1.7 2.8 2.6 2.8 1.9-1.8 2.1-2.6c.3-1 0-2.4 0-2.6s-.8-1.4-2-1.4m-6 7.8c-.3.7 1.3 3.5 2 3.9.9.3 2-.7 2.2-2.5q.1-2.8-1.7-3.2c-.4 0-2 1-2.5 1.8m17.7 5.3c0 .6 3.3 2 4 2 .3 0 2.1-3.5 2.2-4.7 0-2.5-.4-4.6-2.5-5.2C57 79 57 81.2 56.6 82s-1.9 2.3-2.1 5.3m3.4-14.7c-.2 1.5 1 3.7 1.8 4.2l4.6 3-.1-8s-6-1-6.3.8M62.2 62s-3.8-1-5-.6a5 5 0 0 0-2.4 2.1c-.1.3 1.4 3.4 2 3.5s6 1.5 6 .4-.6-5.4-.6-5.4m-17.5 6.5c-.6 0-1.3 1.6.1 2.3 1.5.8 5.4 1 6.6 1.1 1.1 0 4.3.6 4.3-.3s-.4-3.2-.6-3.6-2.4-3.1-2.9-3c-.5 0-3.4 2.1-4.3 2.5s-2.2.9-3.2 1m-7-4.9c1.8-.6 2.4-2 4-2.4 1.7-.6 4-2 4.4-1.8s3.5 2.7 3.5 3c0 .4-3 2-3.7 2.3l-4 1.8-3 2.3zm2.2-10.8 4.6-.4c1.7-.2 1.7.7 1.7 1s.2 3.2-1.6 4-3.4.7-3.5 1c-.2.2-3 2-3 1.8zm8.8 1.6c-.4 1 .8 3.7 1 4s2.3 2 4 2 5.2-3.9 5.5-4.5-2-4-2.6-4.2c-.5 0-2.7 1-2.7 1s-5 1.3-5.2 1.7m-.5-10.1c-.4.5-1 6.8-.5 6.9.4 0 3-1 3-1H53c.6 0 1.9-1 2-1.5s-1.7-5.1-2.2-5.4-4 .3-4.6 1m7.2-3.1c-.1.2 1.8 6.5 2.5 6.5s2-2.3 2-2.7c.1-.3-.9-4.4-2-4.8-1.3-.5-2.2.4-2.5 1m-.4-3.5c.3.7 2.2.8 3.3.4s2.6-.8 2.5-1.6c0-.8-2-2.7-3.7-2.5q-.9.2-1.7 1.5t-.5 2.2m46.4 63.9s3.4-.2 4.2-.1c.8 0 1.7.8 1.7.8l-2 2.6-3 3.6-1.9-6.1z" style="fill:#b4de58"/><path d="M52.4 34.8c-1.6-1.7-10.5 2-13.8 6s-2 8.5-3.8 12.2-5.1 5.4-5.3 9.8 1.1 7.1.5 11.4c-.6 4.2-3.5 5.7-2.1 11.7s3.3 10.6 2.9 13.3-1.6 5.3-.8 8.3 1.7 3.5 1.7 4.6l.2 2.4s2.6 2 4.5 3c2.2 1.4 6.6 3 6.6 3s-1.2-4.8-2.7-7.9c-1.5-3-4-5.5-4-10.5s2-4.9 1.2-10.2c-.8-5.4-2.8-7.3-2.7-11 0-3.9 4.3-7 4.5-12s-1-6.4-.2-10.5 3.9-7 4.9-10.3.6-4.2 1.9-6.5c1.8-3 8.6-4.7 6.5-6.8m13.5 2.4c-1.4-.4-2 .4-3.7 4a15 15 0 0 0-1.6 9.1c.5 2 2.2 4.7 1.6 8.3s-3 4.5-2.2 10.1c.9 5.6 3 8.1 2.5 12.2s-2 7.5-1.4 11 1.9 3.8 1.8 8c0 4.1-1.8 6.8-1.2 10.2.6 3.5 1.5 5.4 1 8-.5 2.7-1.6 5.9-1.6 5.9h5.5c2-.1 5-.6 5-.6s1.6-2.8 1.6-5.6-1.8-4.8-1.5-8.2 1-6 .6-10c-.4-3.9-1.8-7.2-1.5-10.2.2-3 .9-5.6.6-10.7S69 70.3 69.5 67s1-5.8.7-9.7c-.4-4-2.6-4.7-3-8.9-.4-4.1 1.3-10.5-1.3-11.2M76.7 34c-.8 1.2.5 4.9.8 5.7 1.2 4.3 3.9 5.4 6.5 7.7.3.2 2 1.1 2 2.3.4 2.3.3 3.2 1.4 5.8 1.2 2.7 3 5 3.9 6.6s2.3 3 2.4 6-.2 6.2.8 8.8c1 2.5 2.3 4.8 1.7 7.5s-3.6 7.9-2.7 12.3c1 4.3 2.6 6 2.3 9-.4 3.2-1.6 5.7-2 7.5l-.5 2.7c0 .1 4.7-3.1 7.3-5.7 1.7-1.7 3.4-3.4 3.3-7.2 0-3.8-3.4-4.8-2.7-10 .7-5.4 3.3-11.5 2.6-16.6-1-7.6-4.4-9.1-5-12-.8-2.7.8-7.6-1.3-13s-6.3-3.7-8.3-6.4-2-4.4-3.6-6.8-8-5.6-9-4.2m-1.9-6c.6 1.3 2 2 6.4 1.8s6.3-.5 8.8 1.2 2.2 3 5.2 5c3 2.1 5.3 2.2 7.6 5.3s4.4 10.1 6 12.7 4.1 4.6 4.9 9.2.2 9.1 0 14.1l-1.2 15.9s3.5-7.4 4.4-16a49 49 0 0 0-31-52.7l-4.9.1c-3.6.3-7.4 1.2-6.2 3.5m-43 7.1c2.2-2 3.3-1 6.7-2.3s2.8-2.3 5.7-2.7 8.8.8 9-1.6c.3-2.4-3.5-3.8-8.7-3l-7.4 1s-9.3 4.8-14.8 12.2a53 53 0 0 0-11.7 36A50 50 0 0 0 21 103.7l-2.5-8.2c-.4-1.3-1.9-4.9-2.3-7-1.2-5.3.7-5.3-.2-9.2-.4-1.6-1.1-4.5-1.3-7.8s3.3-6.3 3.6-10c.3-3.6-.2-6.2 1.9-10.7s5-5.3 6.8-8c1.8-2.6 1.6-4.8 4.7-7.6" style="fill:#a8ce5f"/><path d="m55.8 21 3.2-.4h2.6l2.2 1.8s-3.8 0-4.9-.7c-1-.7-3-.7-3-.7" style="fill:#b4de58"/><path d="m60.4 14.7.2 10.5s-4.4 1.1-4.3 3.7 3.5 3.9 7.9 3.7 7.5-1.9 7.7-4.2-3.2-3-3.2-3l.2-11s7.4-.2 14.3-1.7c6.6-1.6 10.2-2.4 10.7-4.4s.7-5.4-1.2-5.8-12 4-29.1 4.4c-18.8.3-24-1.9-24.8-1.5S36.4 9.6 38 12s9.6 2.6 12.3 2.6z" style="fill:#5e8a28"/></svg>