<svg xml:space="preserve" width="16" height="16" viewBox="0 0 128 128"><path d="M116 4H12a8 8 0 0 0-8 8v104a8 8 0 0 0 8 8h104a8 8 0 0 0 8-8V12a8 8 0 0 0-8-8" style="fill:#427687"/><path d="M109.7 4H11.5A7.6 7.6 0 0 0 4 11.5v97.9c0 4.2 3.4 7.5 7.5 7.5h98.1c4.2 0 7.5-3.4 7.5-7.5V11.5a7.3 7.3 0 0 0-7.4-7.5" style="fill:#8cafbf"/><path d="M39.7 12.9c0-2.3-1.6-3-10.8-2.7-7.7.3-11.5 1.2-13.8 4s-2.9 8.5-3 15.3c0 4.8 0 9.3 2.5 9.3 3.4 0 3.4-7.9 6.2-12.3 5.4-8.7 18.9-10.6 18.9-13.6" style="opacity:.5;fill:#b4e1ed"/><path d="M36.7 23h7l12.1 32.4h-6.7l-2.7-7.8H34.1l-2.7 7.7h-6.7zm7.7 19-2.8-8-1.2-4h-.3l-1.2 4-2.9 8zm-11 60A17 17 0 0 1 25 87.2a16.7 16.7 0 0 1 29-11.6L49.6 80a10 10 0 0 0-7.7-3.7q-3 0-5.5 1.4t-3.9 3.9a10 10 0 0 0-1.4 5.8q0 3.3 1.4 5.8c1.4 2.5 2.3 3 3.9 3.9s3.5 1.4 5.5 1.4q5 0 8.5-4.3l4.3 4.1a16 16 0 0 1-12.8 6q-4.7 0-8.6-2.3m40.5-79h12.6q2.7 0 5 1.2a9 9 0 0 1 3.5 3 7 7 0 0 1 1.4 4.3 7 7 0 0 1-4.4 7v.3q2.5 1 4 2.9 1.5 2 1.5 4.7 0 2.6-1.4 4.7c-1.4 2.1-2.2 2.4-3.8 3.1q-2.4 1.1-5.4 1.1h-13zm12.1 13.2q2 0 3.2-1 1.2-1.2 1.2-2.8t-1.1-2.8a4 4 0 0 0-3-1h-6.4v7.6zm.7 13.6q2.2 0 3.5-1.1t1.2-3c0-1.8-.4-2.3-1.3-3q-1.2-1.2-3.6-1.2h-6.6v8.3zM74 71.2h11q5 0 8.7 2t5.8 5.7 2 8.4c0 4.8-.7 6-2 8.4s-3.3 4.4-5.8 5.7-5.4 2-8.8 2H74zm10.7 26.5q5.1 0 8-2.8 2.7-2.8 2.7-7.6t-2.8-7.6-8-2.8h-4.5v20.8z" style="fill:#fff"/></svg>