<svg xml:space="preserve" width="16" height="16" viewBox="0 0 128 128"><path d="M116 4H12a8 8 0 0 0-8 8v104a8 8 0 0 0 8 8h104a8 8 0 0 0 8-8V12a8 8 0 0 0-8-8" style="fill:#427687"/><path d="M121.7 6.3A8 8 0 0 0 116 4H12a8 8 0 0 0-8 8v104q0 3.3 2.3 5.7l16.8-16.8h76A6 6 0 0 0 105 99V23z" style="fill:#8cafbf"/><path d="M39.7 12.9c0-2.3-1.6-3-10.8-2.7-7.7.3-11.5 1.2-13.8 4s-2.9 8.5-3 15.3c0 4.8 0 9.3 2.5 9.3 3.4 0 3.4-7.9 6.2-12.3 5.4-8.7 18.9-10.6 18.9-13.6" style="opacity:.5;fill:#b4e1ed"/><path d="m51.4 67.7-20.3-5.9c-1-.2-1.5-1.2-1.3-2l.1-.3 3.3-10q.6-1.6 2.2-1.2l.2.1 20 7.7a1.8 1.8 0 0 0 2.5-1.8l-1-23.1q.1-1.6 1.7-1.9h10.8q1.7.1 1.8 1.7v.2l-1 23.6a1.8 1.8 0 0 0 2.5 1.8L92.5 49q1.7-.5 2.4 1v.2l3.2 10.2q.3 1.7-1.3 2.3l-20.7 5.9a2 2 0 0 0-1 2.9l13.5 17.9c.6.8.4 2-.4 2.6l-8.6 6.3a2 2 0 0 1-2.7-.5L65 78.7a1.8 1.8 0 0 0-3.1 0L50.1 97.2c-.5.9-1.7 1.1-2.5.6l-.1-.1-8.7-6.1a1.7 1.7 0 0 1-.4-2.6l14-18.4a2 2 0 0 0-1-2.9" style="fill:#fafafa"/></svg>