<svg xml:space="preserve" width="16" height="16" viewBox="0 0 128 128"><path d="M116 4H12a8 8 0 0 0-8 8v104a8 8 0 0 0 8 8h104a8 8 0 0 0 8-8V12a8 8 0 0 0-8-8" style="fill:#427687"/><path d="M109.7 4H11.5A7.6 7.6 0 0 0 4 11.5v97.9c0 4.2 3.4 7.5 7.5 7.5h98.1c4.2 0 7.5-3.4 7.5-7.5V11.5a7.3 7.3 0 0 0-7.4-7.5" style="fill:#8cafbf"/><path d="M39.7 12.9c0-2.3-1.6-3-10.8-2.7-7.7.3-11.5 1.2-13.8 4s-2.9 8.5-3 15.3c0 4.8 0 9.3 2.5 9.3 3.4 0 3.4-7.9 6.2-12.3 5.4-8.7 18.9-10.6 18.9-13.6" style="opacity:.5;fill:#b4e1ed"/><path d="M15 78q-3.1-2.8-3.1-7.3a9 9 0 0 1 1.6-5.3 10 10 0 0 1 4.3-3.5q2.7-1.2 6-1.2 4.7 0 8 1.3v-1.2q0-2.5-2-4a8 8 0 0 0-4.8-1.5q-2.1 0-4.1 1a9 9 0 0 0-3.2 2.5l-5-3.9q2.2-2.8 5.5-4.3t7.1-1.5q6.9 0 10.4 3.1 3.6 3.2 3.6 9.3v18.3h-7.6v-3h-.4q-1.4 1.6-3.6 2.8a11 11 0 0 1-5 1.1 11 11 0 0 1-7.8-2.7m14.8-5.3q2-2.2 2-5-3-1.5-6.3-1.4-6 0-6 4.4 0 1.8 1.3 3 1.2 1 3.7 1 3.3 0 5.3-2m27.8 6.8a9 9 0 0 1-3.5-3.3h-.5v3.6h-7.2V38H54v11.4l-.5 4.2h.5q1.2-1.8 3.6-3.2 2.3-1.3 5.3-1.3 4 0 7.4 2s3.9 3.2 5.1 5.6q2 3.7 1.9 8.2 0 4.6-1.9 8.2c-1.9 3.6-3 4.3-5.2 5.6q-3.3 2-7.3 2-3 0-5.4-1.2m8.1-7a8 8 0 0 0 3-3 9 9 0 0 0 1.1-4.6q0-2.5-1.1-4.5a8 8 0 0 0-7-4.2q-2.1 0-4 1a8 8 0 0 0-3 3.2 9 9 0 0 0-1 4.5q0 2.5 1 4.6a8 8 0 0 0 7 4.2q2.1 0 4-1.1m23.5 6.1a14 14 0 0 1-5.5-5.6q-2-3.7-2-8.2t2-8.1T89 51t8.1-2q5 0 8.5 2.1 3.6 2.1 5.2 6l-7 3q-2-4-6.7-4-3.4 0-5.7 2.4a9 9 0 0 0-2.3 6.3 9 9 0 0 0 2.3 6.4 8 8 0 0 0 5.7 2.4q4.9 0 7-4.2l7 3a14 14 0 0 1-5.5 6 16 16 0 0 1-8.5 2.2q-4.5 0-8-2" style="fill:#fafafa"/></svg>