<svg xml:space="preserve" width="16" height="16" viewBox="0 0 128 128"><radialGradient id="a" cx="63.6" cy="-7019.1" r="57" gradientTransform="matrix(1 0 0 -1 0 -6956.18)" gradientUnits="userSpaceOnUse"><stop offset=".5" style="stop-color:#fde030"/><stop offset=".9" style="stop-color:#f7c02b"/><stop offset="1" style="stop-color:#f4a223"/></radialGradient><path d="M63.6 118.8c-27.9 0-58-17.5-58-55.9S35.7 7 63.6 7c15.5 0 29.8 5.1 40.4 14.4 11.5 10.2 17.6 24.6 17.6 41.5s-6.1 31.2-17.6 41.4a61 61 0 0 1-40.4 14.5" style="fill:url(#a)"/><path d="M111.5 29.7a57 57 0 0 1 8.1 30.2c0 16.9-6.1 31.2-17.6 41.4a61 61 0 0 1-40.4 14.5c-18 0-37-7.3-48.2-23a58 58 0 0 0 50.2 26c15.4 0 29.8-5.2 40.4-14.5a54 54 0 0 0 17.6-41.4q-.1-19.2-10.1-33.2" style="fill:#eb8f00"/><path d="M44.7 46c-4.2 0-8 3.5-8 9.4s3.8 9.4 8 9.4 8-3.6 8-9.4-3.8-9.5-8-9.5" style="fill:#422b0d"/><path d="M44.3 49.9c-1-.8-2.6-.5-3.6 1-1 1.4-.7 2.9.4 3.6 1 .7 2.5.5 3.5-1 1-1.4.7-3-.3-3.6" style="fill:#896024"/><path d="M83 46c-4.2 0-8 3.5-8 9.4s3.8 9.4 8 9.4 8-3.6 8-9.4-3.8-9.5-8-9.5" style="fill:#422b0d"/><path d="M82.6 49.9c-1-.8-2.5-.5-3.5 1-1 1.4-.7 2.9.3 3.6s2.6.5 3.6-1c1-1.4.7-3-.4-3.6" style="fill:#896024"/><path d="M89.3 79.3a242 242 0 0 1-21.5 9.9h-.1c-12 5.2-18.8 7.9-22 8.7-2 .6-3.6-1.4-2-4 3.1-4.6 38.5-19.7 44-18.7 3 .5 3.3 3 1.6 4.1" style="fill:#422b0d"/></svg>