<svg xml:space="preserve" width="16" height="16" viewBox="0 0 128 128"><circle cx="102.3" cy="116.3" r="7.7" style="fill:#78909c"/><circle cx="102.3" cy="116.3" r="3.3" style="fill:#afb8b6"/><path d="M102.3 113.6a2.7 2.7 0 1 1 0 5.5 2.7 2.7 0 0 1 0-5.5m0-1a3.8 3.8 0 1 0 0 7.6 3.8 3.8 0 0 0 0-7.7" style="fill:#37474f"/><path d="M102.3 96.9q-1.4 0-1.5.6V99H86.2v6.1h14.6v11q.1 1.6 1.6 1.6 1.3-.2 1.5-1.5V97.5q-.1-.5-1.6-.6" style="fill:#616161"/><path d="M43.8 124a7.7 7.7 0 1 1 0-15.3 7.7 7.7 0 0 1 0 15.3" style="fill:#607d8b"/><path d="M43.8 119.6a3.3 3.3 0 0 1 0-6.5 3.3 3.3 0 0 1 0 6.5" style="fill:#afb8b6"/><path d="M43.8 113.6a2.7 2.7 0 1 1 0 5.5 2.7 2.7 0 0 1 0-5.5m0-1a3.8 3.8 0 1 0 0 7.6 3.8 3.8 0 0 0 0-7.7" style="fill:#37474f"/><path d="m42.3 98.6-5.4 5.8q0 .3-.4.2h-.2L16.5 98a1.9 1.9 0 0 0-1.2 3.6l20.6 6.9c.4.1 2.9.8 4.7-.8l1.7-2v10.5q.1 1.4 1.5 1.5 1.5-.1 1.6-1.5v-13.8z" style="fill:#616161"/><path d="M43.5 105.4a3.4 3.4 0 0 1-3.4-3.3V101c.2-1 1-2.3 1.6-3l9.1-8.7 3 16.2z" style="fill:#c62828"/><path d="M55.9 108.2c-2.6 0-3.2-1.5-3.6-4.8L50 86.5h41.4L89 103.4c-.4 3.3-1 4.8-3.5 4.8z" style="fill:#f44336"/><path d="m50 86.8.3 1.5 40.6.1.4-1.9zM70.6 92c-9 0-16.2 6.3-16.2 14 0 1.1.2 1.2.5 2.2h31.5c.2-1 .4-1 .4-2.2 0-7.7-7.2-14-16.2-14" style="fill:#c62828"/><path d="M70.6 124a14.4 14.4 0 1 1 0-28.8 14.4 14.4 0 0 1 0 28.8" style="fill:#78909c"/><path d="M70.6 116.3a7 7 0 1 1 0-14 7 7 0 0 1 0 14" style="fill:#afb8b6"/><path d="M70.6 103a6.4 6.4 0 1 1 0 12.7 6.4 6.4 0 0 1 0-12.8m0-1.1a7.5 7.5 0 1 0 0 15 7.5 7.5 0 0 0 0-15" style="fill:#2f3b4b"/><path d="M70.6 106.5a2.8 2.8 0 1 0 0 5.6 2.8 2.8 0 1 0 0-5.6" style="fill:#141111"/><path d="m93.6 28.5 1.4-6.3 3.3.7L97 29z" style="fill:#757575"/><path d="M98.7 24.3h-.5l-4.2-.7a3 3 0 0 1-2.5-3.5l2-13.5A3 3 0 0 1 97 4l4.3.7a3 3 0 0 1 2.5 3.5l-2 13.5a3 3 0 0 1-3 2.6M99 33q.3-2.6-1-4.4a5 5 0 0 0-3.7-1.8q-3.4.1-5.2 4.3c-2.5 6.3-5.5 15.3-7.3 24.3a129 129 0 0 0-21 0c-2.8.1-4.5.5-4.3 3.4.1 2.1.6 2.7 4.3 2.9l19.7 1-.6 5.2c-.3 5.5 2.1 8.6 5 10.3l-34.9.1q-1.5.2-1.6 1.7l-.1 5.1q0 .8.5 1.2.5.5 1.1.5l40.5.2q1.1 0 1.9-.8c.5-.6.7-1.4.8-3.3.1-2.5-.3-3.8-.3-3.8q.5-.4.5-1.2c1.5-10.7 5-36.7 5.7-44.8" style="fill:#424242"/><path d="M93.4 27.6c1.7 1.1 1 4 .6 4.8-1.7 5.5-4.3 10.7-5.6 16.4-.4 1.5-.7 3.2-2 4l-2.6.9q-1.9.8-1.9 1c0 .2 3.1-14.2 7.2-23.6 2.1-4.9 4.3-3.5 4.3-3.5M85 78.2c-2.8-.1-35 .1-35 .1q-1.5.1-1.6 1.7s1.6 1.7 16.4 1.7c8.1 0 20.2 0 23.2-.9 4-1 0-2.5-3-2.6" style="fill:#757575"/><path d="M67.2 82.3c-.8-1.1-2.8-4.4-2.8-11.4s2-10.3 2.8-11.4l5 2.2C71.6 63 70 65.8 70 71s2.4 10 4 12.1zM51.8 59.7v-1q0-1.7.8-3l.2-.5a2 2 0 0 0-1.2-2.4 2 2 0 0 0-2.2 3q.8 1 .7 2.5v1.3c0 .3 1.7.4 1.7 0m5.2-2.4-2 1.9h-7.8l-7.4-3.8c-.4-.2-1.6.4-.6 1.3l8.6 6.1a3 3 0 0 0 1.8.6h2.7c1.7 0 2.6-1 3.6-2.5l1-1.5z" style="fill:#424242"/><path d="M82.4 55.4c-.1 0-8.2-.4-14.7-.4q-4.5 0-6.5.2h-.5c-1.8.3-3.2.5-3.9 1.6q.6 1.1 4 1.3L81 59c3 0 6.6.2 6.4-1.5s-3.2-2.2-5-2.2" style="fill:#757575"/><path d="M80.5 62.6q1.9.3 3.7.1c1.8-.2 2.4-.5 3.2-1.4q.2 1.6-1 2.8-1.3 1-3 1.3h-3.2" style="fill:#212121"/><path d="M51.1 53q1.2.4.7 1.6c-.4.7-1.3 1-1.8.8q-.9-.5-.4-1.6.6-1 1.5-.8m-3.3 7.4 6.5.3.7-1.6h-7.8l-7.4-3.8.3.5z" style="fill:#757575"/><path d="M70.5 66.1q.7-2.6 1.4-3.8l-6-.4-.7 2.4c1 0 2.8.1 5.3 1.8" style="fill:#212121"/><path d="M96.6 4a3 3 0 0 0-3 2.6L91.5 20c-.2 1.7 2.4 2 3.6.9 1.7-1.6 2.7-4 3.8-10 1.3-6.6-1.9-7-1.9-7z" style="fill:#757575"/><path d="M60 106.2a10 10 0 0 1 6.6-7.3" style="opacity:.8;fill:none;stroke:#94d1e0;stroke-width:2;stroke-linecap:round;stroke-miterlimit:10"/></svg>