<svg xml:space="preserve" width="16" height="16" viewBox="0 0 128 128"><path d="M116 4H12a8 8 0 0 0-8 8v104a8 8 0 0 0 8 8h104a8 8 0 0 0 8-8V12a8 8 0 0 0-8-8" style="fill:#c33"/><path d="M109.7 4H11.5A7.6 7.6 0 0 0 4 11.5v97.9c0 4.1 3.3 7.5 7.5 7.5h98.1c4.1 0 7.5-3.3 7.5-7.5V11.5c0-4-3.1-7.4-7.2-7.5z" style="fill:#f44336"/><path d="M39.7 12.9c0-2.3-1.6-3-10.8-2.7-7.7.3-11.5 1.2-13.8 4s-2.9 3.5-3 10.3c0 4.8 0 10.3 2.5 10.3 3.4 0 3.4-5.9 6.2-10.3 5.4-8.7 18.9-8.6 18.9-11.6" style="fill:#ff8a80"/><path d="M40.5 77.1q0 7.5-4.4 11.8t-12 4.3q-7.2 0-12.6-3.3V79a46 46 0 0 0 7.6 3.5q3 1 5.7 1 3 0 4.8-1.4 1.6-1.5 1.6-4.4 0-1.6-.7-3a9 9 0 0 0-2.2-2.3q-1.3-1.2-5.7-3.8a27 27 0 0 1-6.1-4.6A17 17 0 0 1 12 52.2a16 16 0 0 1 4-11.6q4-4 11-4.1 3.5 0 6.7 1 3 1 6.5 2.8l-3 9.1a39 39 0 0 0-5.9-2.5q-2.2-.7-4.6-.7-2.7 0-4 1.5-1.5 1.6-1.5 4a6 6 0 0 0 2.4 5q1.2 1 6 3.9 6.2 3.8 8.5 7.4 2.4 3.7 2.4 9.1m40.7-12.3q0 13.7-5 21-5 7.5-14.2 7.4c-9.2-.1-11-2.5-14.3-7.4q-5-7.4-5-21.1c0-13.7 1.7-16.2 5-21q5-7.3 14.4-7.3t14.2 7.3q5 7.4 5 21m-29.5 0q0 9.2 2.6 13.9a8 8 0 0 0 7.7 4.7q10.2 0 10.2-18.6T62 46q-5.1 0-7.7 4.7a30 30 0 0 0-2.6 14m60.4 12.4q0 7.5-4.3 11.8-4.5 4.3-12.1 4.3-7.2 0-12.6-3.3V79a46 46 0 0 0 7.6 3.5q3 1 5.7 1 3 0 4.8-1.4 1.6-1.5 1.6-4.4 0-1.6-.7-3a9 9 0 0 0-2.1-2.3q-1.5-1.2-5.8-3.8A27 27 0 0 1 88 64a17 17 0 0 1-4.5-11.8 16 16 0 0 1 4-11.6q4-4 11-4.1 3.6 0 6.7 1 3 1 6.6 2.8l-3 9.1a39 39 0 0 0-6-2.5q-2.2-.7-4.6-.7-2.6 0-4 1.5-1.5 1.6-1.5 4 0 1.6.6 2.8t1.8 2.2l6 3.9q6.3 3.8 8.6 7.4t2.3 9.1" style="fill:#fafafa"/></svg>