<svg xml:space="preserve" width="16" height="16" viewBox="0 0 128 128"><path d="M69.7 64.8s-.4-6.3-1-8c-1.5-4.4-1.4-12 5-11.6s5 7.8 3.7 11.7-.7 8-.7 8zm-11.1.4c0-.3-.4-5 0-8.8s2.6-10-3.4-11-8.5 7-6 12.6 2.6 8.4 2.6 8.4z" style="fill:#ff9003"/><path d="M42.6 26.7c4.8-3.4 15-7 16-5.2 1 2-8.5 8.7-8.5 8.7s2.7 5.1 2.7 6.5 0 5-1.5 6.1S38 51.3 38 51.3s-.1 1.5-.5 2.6c-.8 2.2-2 2.9-2 2.9l-.7 5.3 3.9 8.4 7.5 29-4.4 2.8s-7.1-2-8.7-2c-1.6-.1-4.5-.4-5.2-.1s-1-3.5-1-3.5 4.5-3.4 4.4-4.3-3-1-4.4-1.1-5.3.4-5.7-.2-.3-2.8 1.2-3.5 6.6-2.8 6.6-3.4-5-1.7-8.4-2.7c-3.3-1-5-1.6-7.4-2.2-1.8-.5-4.2-.4-4.2-.4l3.6-4.7 17 2s-8-6.2-9.2-7.3l-2.3-2.4s1.4-1 2.7-.6 8.9 6.6 8.9 6.6-.2-2.4.4-3.5q1.1-1.3 1.3-1.2c.2 0 1 .9 1.5.3.3-.5-1.7-2.7-2.4-4.6-.8-2-.8-3.2-.8-3.2s-3.7-1-4.3-5.9 5-8.2 5-8.2zm27.2-4.9c-.7 2.9 5.9 9.3 5.9 9.3l-.2 2.4s-2.2 5.8-.6 8c1.7 2 8.4 3.8 8.4 3.8l7.8 8s2.4 3 3.4 4-4.6 8-4.6 8l-2.8 22.4 2.4 12.2 11.8-1-1.2-3.5c-.4-1.2-4.3-4.6-4.3-4.6s1.7-1.9 4.7-2 6 1.1 5.6 0c-.3-1.1-1.8-3.5-1.8-3.5l-6.6-2.6s3.5-2.2 5.9-3l11.2-3.3c1-.4 4.5.5 3.4-1.4-1.1-2-7.1-2-7.1-2l-13 1.2s2.7-2.7 5.5-4.8l7.5-5.3-3.8-1.1L97 66.7s-2.3 1.5-2.3.5 4.4-2.8 5.9-6.1c1-2.4.1-3.4.1-3.4s2.3-1.2 2.4-4.7-2.6-7.2-2.6-7.2L78.4 23s-8-3.5-8.6-1.4" style="fill:#fa1c1f"/><path d="M34.2 57.6c-2.6 1.2-1.8 4.4-1.2 5.9.5 1.4 2 4.3 2 4.3s-1.4 3-1.8 4.2-1.2 6.5.4 11.6c1.5 5.1 5 12.8 6 14.3s3.9 6.8 10.3 9.8 14.3 3 20.2 2.6a26 26 0 0 0 15.8-7c1.2-1.8 4-3.3 5.6-8.9a67 67 0 0 0 2.7-20c-.4-6-2.5-8.5-2.5-8.5s2.7-1.2 4.2-3.3 2.3-4.6.1-5.4-5.5 1.5-6.4 2.6c-1.3 1.7-2 3.5-2 3.5s-16.4-.1-24 .2c-12 .6-18.5 2-18.5 2l-5.2.3s-.2-10.6-5.7-8.2M8.2 71c-1.4-1 .8-4 4.6-6.7 3.9-2.6 6.2-3.4 8-3.1s6.4 3.3 8.5 4.7c1.8 1.2 3.7 2.2 3.8 2.5s-1 .1-2 1.9c-.6 1-1.2 2.8-1 2.7 0 0-9.4-5.9-10.2-5.9s-5 2.2-6.4 2.7-4.2 2-5.3 1.2M.4 85.9c.4.8 2 1 5.2-1.1s7.4-6.6 8.2-6.9 7.2 1 10.7 1.4l5.6 1-.3-4s-9.8-3-13.2-3.3c-3.3-.4-3.7-1-5.5-.2S5 78.6 3.9 80 0 85 .4 85.8m20.3-1.6a29 29 0 0 0-10 7.8c-1.2 2.1-4 8.6-4.7 11-.6 2.5.8 2.6 2.3 2s5.3-6.5 6-7.4 4-3.6 5-4.5c1-1 4-3.5 4.7-3.7.7-.1 8 .7 8.3.3s-.1-2.1-.7-3.1-2.4-2-2.4-2-6.8-.8-8.5-.4m11.5 9.2c-2.4-.6-7.2 1-8.5 1.8q-2.2 1.3-3.6 6.3c-1.4 5-1.7 8.6-1 9 .8.4 3.8-1 5-3.8s2.7-5.6 4-6.6c1.1-1 3-1.3 4.8-1.3h4l-2-3.7q-.6-1.1-2.7-1.7" style="fill:#ff5f00"/><path d="M45 70.3c-1.6-2-4.5-.3-6.3 2.2-1.9 2.6-2.2 3.8-2 8.5.4 4.7 4.6 5.1 4.7 1.8 0-3.4-.6-4.4.5-6s4.9-4.4 3.2-6.5M39.4 90c1.2 1.4 4.4 1 4.6-1.4.3-2.3-1.3-3-3-3-2.3 0-2.9 2.8-1.6 4.4" style="fill:#ff9003"/><path d="M95.6 67.4q.2 0 1.1 1.7l.9 2c.2.3 8.2-6.4 10.5-6.8s8 3.7 10.4 4.1c2 .3 3.4 0 2.2-2s-8.2-7.7-11.2-7.5c-3.4.3-13.4 8.1-14 8.5m2.7 6.8s13.6-5.2 16.8-4.5c3.6.7 6.9 5.7 8.1 7 1.4 1.4 5.8 6 3.4 7-4.1 1.5-11.6-7.9-12.9-8.5s-2-.2-5.4.3-10.4 2.7-10.4 2.7L98 76zm-.6 8c-.4.3-.6 2.5-.7 3l-.4 2s7.3.2 8 .5 3 2.6 4.8 4.3l5.6 5.3s3.2 6.4 5.2 6.4 2-2.6 1-5c-.9-2.5-2.2-6.7-2.7-7.2s-2.2-3-4.3-5c-1-1.1-4.8-4.4-5.8-4.5-1-.2-10-.5-10.7.2m-1.8 8.4s6.9 1 9.4 3.3c1.6 1.4 3.4 5.3 3.7 8.5.1 1 .8 7.1-1 7.4s-4-3.2-4.6-5l-1.8-5s-3.2-2-3.4-2c-1.2-.5-4.9-.6-4.9-.6s1.2-2.2 1.6-3.4zM34.9 26.4c-7.7 4.9-12 18-4.6 23.6 8 6 19.2-2.7 24-9.3s7.4-10 5.9-12-8.7 4.2-8.7 4.2.6 2.3.5 4.9-.3 5-1.4 5c-1.2 0-1-3.8-2.2-7s-2.2-3.8-2.2-5c0-1.4 5.9-4.7 7.4-5.5 3.1-1.9 5.8-3.5 4.5-4.2-1-.7-11.8-2-23.2 5.3" style="fill:#ff5f00"/><path d="M31.4 44.6c3.5-.4 1.9-3.9 2.7-6.7.9-3.5 3.9-5.4 1.6-7.3-2.4-2.2-5.2 2-6.1 6.5-.6 2.7-.7 7.8 1.8 7.5" style="fill:#ff9003"/><path d="M79.8 32.7c0 1-2.4 1.9-3.1 5.2s-.8 6.1 5 10.4 12.8 8.2 17.6 2.6S102 34 92.9 26.8c-7.3-5.9-17.6-7.5-22-6-2.5.9 2 3.6 4.7 6.2q4.5 4.4 4.3 5.7m-11-3.5c-1 1-.3 4.5 1.4 6.8 1.3 1.8 4.5 5 4.5 5s-.6-4.1-.2-5 .2-2.8.2-2.8L72.3 31c-1-.7-2.6-2.7-3.4-1.8" style="fill:#ff5f00"/><path d="M79.6 36.5c-1.8.3-1.2 3.2 0 5.7C81 44.8 83 46 84.2 45s-.2-3.3-1-4.7c-.7-1.3-1.8-4-3.6-3.7" style="fill:#ff9009"/><ellipse cx="73.5" cy="52.4" rx="4.3" ry="3.4" style="fill:#322d2e" transform="rotate(-73.4 73.53 52.44)"/><ellipse cx="53.8" cy="52.4" rx="3.6" ry="4.3" style="fill:#322d2e" transform="rotate(-5.8 53.78 52.4)"/><path d="M78 30.1c-.7-1.1-3 .7-3.9 3-1 2.6-1 6.3.4 7.7s0-3.6 1.4-6.3c1.2-2.2 2.8-3.3 2-4.4M48 28.9c-.8.7.3 1.1 1 2.8s1.1 2.9 1.5 4.9c.3 1.6 0 6.9 1.1 5.3 1.1-1.5 1.4-8-.1-10.5-1.3-2.2-2.7-3.4-3.6-2.5m34.3 34.7c.2 1.1 4.2.7 6.7 2 2.6 1.5 4.5 5 4.4 12.2A75 75 0 0 1 90.7 94c-.9 2.9-4 7.8-4.5 8.5s-1.8 2.3.5.7c2.6-1.8 3.5-3.2 3.5-3.2s4.6.1 4.7-.8-3.7-1.3-3.7-1.3.8-1.6 1.5-3.6l1.1-3.8 3.7-.3c2.7-.3 6.7-.4 7.2-1.2.7-1-4-.8-6.5-.5-2 .2-4 0-4 0l.5-3.2.3-2.8s5-1.1 6.5-1.6 6.8-2.2 6.7-3c0-.5-4 .2-6.8.9L95 80.3l.3-3.4v-2.4s1.8.2 2.9-.3 2.7-2.2 4-3c1.3-1 5.2-3.8 5-4.4-.3-.8-5 2-6.6 3a16 16 0 0 1-3.6 2.4l-1.8.2-1-4c-.4-1.1-1.6-3.4-3.6-4.6s-9-2.6-8.4-.2" style="fill:#a62616"/><path d="M36.8 66.1c-3.1 1-5 4.3-5.3 6.4v2.9c0-.1-3.5-2.4-4.8-3.5-.9-.8-7-5.7-7.6-4.6-.7 1.2 6 6.2 6.7 6.9s5.5 4 5.5 4l.6 3.2s-1.6.5-3.3.7-8.4-2.6-8.6-.8c0 .4 7.9 2.8 8.5 2.9 1.3.2 4.4-.2 4.4-.2l2.3 6.7h-3.7c-1.3 0-6.5-.5-6.7.5-.1.7 5.5 1 7.3 1.4l3.9.5a30 30 0 0 0 4.3 7.3s-7-1.3-6.8 0c.1.6 8.4 2.8 8.4 2.8s8.3 5.4 9.4 5.1c1.1-.2-2.9-2-6.1-5.2a39 39 0 0 1-7.6-11.6c-.8-2-4.2-12.7-4-16.3q.5-5.4 3.9-6.7c2.2-1 9.8-2 8.3-3.2-1.6-1.2-7 .2-9 .8" style="fill:#a32916"/></svg>