<svg xml:space="preserve" width="16" height="16" viewBox="0 0 128 128"><path d="M47.3 31A34 34 0 0 0 49 55.6c4 8 7.4 9 8.8 14 .8 2.4.3 13.7-.3 15.7-.6 2.1-3.7 8.2-3.9 17.8a29 29 0 0 0 6.3 17.4c2 2.3 2.7 3 4.1 3 .9 0 4.4-6.7 4.3-7.2l-2.6-50.7 5.5-37.1z" style="fill:#f79226"/><path d="M65.5 4.9C62.3 4.8 49.2 21.5 47.3 31s1.8 20.2 6.4 26.5S64 68.2 64.2 68.9s-.2 54.5-.2 54.5.8 0 1.4-.4q.9-.3 4.3-5.7a30 30 0 0 0 4.6-15.2c0-10-4.2-15.7-4.5-18.7s.2-12.6.6-14.1c1-4.2 8-8.2 11-15.5a35 35 0 0 0-1.6-29C73.5 10.7 68 5 65.5 4.7" style="fill:#ffc516"/><path d="M63.8 11.3C62 11.6 49 26 50.6 39.3c1.2 11.1 10.4 22.7 13 22 1.4-.4 1-12.6 1.1-24.6.1-12.6.3-25.6-1-25.4" style="fill:#ffeda8"/><path d="M80 31.6c-1.3-.3-.8 8-4.2 16-4 9.2-10 11.8-7.7 13.9s9.2-1.8 12-11.1c2.1-7.2 2.2-18.3-.1-18.8m15.3 55s3.3 0 4.7 3c1.7 3.7-.5 14-12 13.5S73.2 90.4 73.2 85.8c0-3 5.8-9.6 5.8-9.6l13.7-13.7 8.1-3.4 21.5 7.4S109.7 86.4 109.1 86c-.5-.2-2.3-.8-2.4-2.8-.2-2.6 1.9-4.6 1-9.5-.5-3-4-7.3-11.3-5.6S84 75.7 83 82.9c-1.3 10.7 4.6 11 4.6 11s5.8 1.3 5.9 1zm-78.1-.2s3.3-.2 3.3-3.4c0-2.7-3.3-11.5 2.5-14 5.8-2.7 13.8-.4 18.8 6.2 4.4 5.9 4 17-.8 18.1S33.2 92 33.2 92l-1.6-5.6s-5 1.2-4.4 6.8c.5 4.9 4.4 10.2 13 9.9C50 102.6 55 92 54.5 83.3c-.4-7.6-13.8-19-14.2-19.1-1.6-.4-19.3-4.7-20.1-3.8L9 75z" style="fill:#f79226"/><path d="M108.3 85.7c-.2-.2 5.6-6.7 5-13.9-.8-7.5-10.3-11.6-21.9-6.2-11.2 5.3-14.2 23.8-6.7 27.2s9-6 10.6-6.2 5.7 6.3-.4 11c-8.4 6.6-21.2-1.9-21.8-13.4a30 30 0 0 1 17.5-30c9.7-5 18.7-3.7 24.8-.5a16 16 0 0 1 8.4 11c1.4 6.7-1 12.2-3.1 15.6-4.7 7.5-11 6.5-12.4 5.4m-90.7.6c-.5.5-5.7.4-9.9-4.6-5.3-6.4-6.4-19.8 2.4-26.3 10.1-7.6 26.2-5.1 37.3 7.6a26 26 0 0 1 5.3 27.9c-2.3 5.3-6.6 9-12.3 9.1-7.2.2-10.4-4.2-10.8-8-.2-2.9.8-5.4 2-5.6 2-.4 1.2 8 9.4 7 7.2-.9 12-14-.7-25-13-11.3-24.6-4.7-25.8 3.7-1.4 9.3 4.2 13.2 3.1 14.2" style="fill:#ffc516"/><path d="M77 75.6c.6.4 2.8-4.1 6-7.6 3.7-4.2 7.3-6 11.4-8 8.6-4.5 14-1.2 14-4.7.1-3-9.7-3-17 1C79 62.7 75.9 75 76.9 75.5" style="fill:#ffeda8"/><path d="M43.5 78.1c-1.9 0-3 1.7-3 3.6 0 2.1 1.7 3.7 4.3 3.8H83c2.1 0 3-2 3.1-3.8 0-1.7-1.3-3.2-3-3.3z" style="fill:#f79226"/><path d="M43.8 81.3h38.9c1.4 0 2-1.2 1.8-2 0-.7-1.3-1-2.6-1s-37.5-.3-38.4-.2q-1.5.4-1.4 1.6c0 .7.5 1.6 1.7 1.6m-35.2-10c1.4.1 3-7.8 8.2-11 4.4-2.8 8.5-3.1 13.8-2.2s8 2.7 8.5 1.8c.6-1.2-10.8-9.9-22.8-5.7s-9.5 17-7.7 17.1" style="fill:#ffeda8"/></svg>