<svg xml:space="preserve" width="16" height="16" viewBox="0 0 128 128"><linearGradient id="a" x1="63.8" x2="63.8" y1="4.4" y2="35.7" gradientTransform="matrix(1 0 0 -1 0 128)" gradientUnits="userSpaceOnUse"><stop offset="0" style="stop-color:#b3b3b3"/><stop offset="0" style="stop-color:#b7b7b7"/><stop offset=".4" style="stop-color:#d9d9d9"/><stop offset=".6" style="stop-color:#e6e6e6"/></linearGradient><path d="M64.3 92.2c-25.9 0-52.2 9.3-52.2 31.4v.4h103.5v-.4c0-20.8-25.3-31.4-51.2-31.4" style="fill:url(#a)"/><path d="M89 124v-8.7a4 4 0 0 0-4-4H44.6a4 4 0 0 0-4 4v8.7z" style="fill:#a6a6a6"/><path d="M116 124v-.4c0-5.1-2.2-8.3-3.4-11.2l-8 2.8 3.3 8.8zm-95.6 0q.3-1.5.3-3.2-.1-6-4.4-10.8a20 20 0 0 0-4.3 12.3v1.7z" style="fill:#757575"/><linearGradient id="b" x1="63.9" x2="63.9" y1="36.1" y2="18.1" gradientTransform="matrix(1 0 0 -1 0 128)" gradientUnits="userSpaceOnUse"><stop offset="0" style="stop-color:#e6e6e6"/><stop offset=".3" style="stop-color:#d9d9d9"/><stop offset=".9" style="stop-color:#b7b7b7"/><stop offset="1" style="stop-color:#b3b3b3"/></linearGradient><path d="M97.3 102.5a85 85 0 0 1-63.6 1.3c-2.7-1-5.4-2-7.4-4.2a8 8 0 0 1-2.2-7.2 9 9 0 0 1 5-5.8 11 11 0 0 1 8.5.2 68 68 0 0 0 50 1l5-1.8c3-.6 6.2 0 8.5 2a8 8 0 0 1 2.3 8.3 11 11 0 0 1-6 6.2" style="fill:url(#b)"/><ellipse cx="63.9" cy="53" rx="49.2" ry="48.7" style="fill:#4c4c4c"/><path d="M110.3 53A45 45 0 0 1 91 90.3a46 46 0 0 1-38 7.3 46 46 0 0 1-26.2-17.2l-1-1.4a45 45 0 0 1 4-57.1A46.6 46.6 0 0 1 110.3 53" style="fill:#212121"/><path d="M89 54H38.5c-5.5 0-9.9 4.8-9.9 10.6S33.1 75 38.6 75h50.3c5.5 0 9.9-4.8 9.9-10.5S94.4 54 88.9 54" style="fill:#c48e6a"/><path d="M63.8 17.8c-16 0-31 17.1-31 41.8 0 24.5 15.4 36.7 31 36.7S94.6 84 94.6 59.6c0-24.7-14.8-41.8-30.8-41.8" style="fill:#e0bb95"/><ellipse cx="48.6" cy="61.8" rx="4.5" ry="4.7" style="fill:#5d4037"/><ellipse cx="78.9" cy="61.8" rx="4.5" ry="4.7" style="fill:#5d4037"/><path d="M71.5 77.7a23 23 0 0 1-15.5 0c-1.7-1-3.4.5-2.7 2 .7 1.6 6 5 10.5 5s9.7-3.4 10.4-5c.7-1.5-1-3-2.7-2" style="fill:#6d4c41"/><path d="m67.3 70.3-.3-.1h-6.8q-1 .6-.6 1.6c.4 1 1.5 2.4 4.1 2.4 2.7 0 4-1.8 4.2-2.4q.4-1.1-.6-1.5" style="fill:#c48e6a"/><path d="M63.8 11.2c-42.3.2-33.6 48.4-33.6 48.4l2.7 7.2q.3.5.7 0c.9-4.1 4.1-18.4 5.8-22.7 1-2.6 3.6-4.1 6.3-3.6 4.1.7 10.7 1.7 18 1.7h.1c7.3 0 13.9-1 18-1.7 2.7-.5 5.4 1 6.4 3.6a285 285 0 0 1 5.7 22.6c0 .3.6.4.7 0l2.8-7S106 11.3 63.7 11" style="fill:#ab872f"/><radialGradient id="c" cx="63.8" cy="76.8" r="35.4" gradientTransform="matrix(1 0 0 -1.128 0 137.85)" gradientUnits="userSpaceOnUse"><stop offset=".8" style="stop-color:#bfa055;stop-opacity:0"/><stop offset="1" style="stop-color:#bfa055"/></radialGradient><path d="M97.4 59.6s8.6-48.2-33.6-48.4l-5.6.3h-.3C22.4 16 30.2 59.6 30.2 59.6l2.8 7.1c0 .4.5.3.6 0 1-4 4.2-18.3 5.8-22.7 1-2.5 3.6-4 6.3-3.5 4.1.7 10.7 1.7 18 1.7h.2c7.2 0 13.8-1 18-1.7 2.6-.5 5.3 1 6.3 3.5 1.6 4.4 4.8 18.7 5.7 22.7q.3.6.7 0z" style="fill:url(#c)"/><radialGradient id="d" cx="64.6" cy="120.5" r="26" gradientTransform="matrix(1 0 0 -1 0 128)" gradientUnits="userSpaceOnUse"><stop offset="0" style="stop-color:#f2f2f2"/><stop offset=".4" style="stop-color:#e5e5e5"/><stop offset="1" style="stop-color:#ccc"/></radialGradient><path d="M113 53.2v.7a54.4 54.4 0 0 0-98.3 0v-.7a49.2 49.2 0 1 1 98.4 0" style="fill:url(#d)"/><path d="M41.6 54.3c2.8-4 9-4.3 12.6-1.4q1.1.7 1.6 1.9c.4 1.1-.8 2-1.9 1.8l-2-.8a10 10 0 0 0-3.3-.5 10 10 0 0 0-4.4.8q-.9.6-2 .4a1.5 1.5 0 0 1-.6-2.2m42.6 2.2-.8-.4a10 10 0 0 0-4.4-.8c-1.6 0-2.5.2-3.7.6-.8.3-1.7 1-2.6.7-1.2-.4-1.1-1.7-.5-2.6q1.3-1.5 3-2.2c2.8-1.2 6-1 8.5.5q1.4.7 2.3 2c.7 1.2-.4 2.8-1.8 2.2" style="fill:#ab872f"/></svg>