<svg xml:space="preserve" width="16" height="16" viewBox="0 0 128 128"><linearGradient id="a" x1="64" x2="64" y1="101.5" y2="25.8" gradientTransform="matrix(1 0 0 -1 0 128)" gradientUnits="userSpaceOnUse"><stop offset="0" style="stop-color:#757575"/><stop offset=".5" style="stop-color:#504f4f"/></linearGradient><path d="m41.9 62 3.7-34.2a2 2 0 0 1 2-1.8H84a2 2 0 0 1 2 2v6.8a2 2 0 0 1-2 2H58a2 2 0 0 0-2 1.8l-1.5 12.6a2 2 0 0 0 2.7 2q4-1.4 8.6-1.4 10.8 0 16.7 6.8 6 6.9 6 18.4a25 25 0 0 1-6.7 18.2 24 24 0 0 1-18 6.8q-10.3 0-17.1-5.8-6-5.2-7.1-13.2a2 2 0 0 1 2-2.3h8.2q1.5.1 2 1.6.9 4.3 3.6 6.8 3.2 3 8.3 3 5.9 0 9-4.2Q76 83.7 76 76.7t-3.5-10.9c-3.5-4-5.7-4-9.8-4q-3.4 0-5.8 1a15 15 0 0 0-4.3 2.7 2 2 0 0 1-1.8.5l-7.3-1.8a2 2 0 0 1-1.5-2.1" style="fill:url(#a)"/></svg>