<svg xml:space="preserve" width="16" height="16" viewBox="0 0 128 128"><path d="m62 31 21.2 3.7.4-11.7-21.2-4.6z" style="fill:#94d1e0"/><path d="m112.2 50.3.3-12.2-55.6-9.7-2.5 55.2 64.5 5.6 1.2-37.9z" style="fill:#2f7889"/><path d="m112.2 49.7.3-12.2L56.9 28l-1.7 45 64 6 1-28.1zM63.2 69l-4.6-.5.4-6.7 4.5.5zm.5-12.7-4.4-.5.4-7.5 4.4.7zm.7-13.4-4.4-.6.3-7.6 4.5.8zm6.2 26.8-4.5-.4.3-6.6 4.5.5zm.6-12.5-4.5-.6.4-7.2 4.4.6zm.5-13.2-4.3-.6.3-7.4 4.4.8zM78 70.4l-4.4-.5.3-6.4 4.4.5zm.5-12.5-4.4-.5.4-7 4.3.6zm.6-13-4.4-.6.4-7.1 4.3.8zm6.4 26.2-4.5-.4.3-6.4 4.4.6zm.5-12.3-4.5-.5.3-6.9 4.4.6zm.5-12.8-4.4-.6.3-7 4.3.8zM93 71.8l-4.5-.4.2-6.2 4.5.5zm.4-12.1-4.5-.5.3-6.7 4.4.6zm.5-12.6-4.5-.7.3-6.6 4.4.7zm6.5 25.5-4.4-.4.2-6.1 4.4.5zm.4-12-4.4-.5.2-6.5 4.4.6zm.4-12.5-4.4-.6.3-6.4 4.3.7zm6.6 25.2-4.4-.4.2-6 4.4.6zm.4-11.8-4.4-.6.2-6.3 4.4.6zm.4-12.3-4.4-.6.2-6.3 4.4.8zm6.7 24.9-4.4-.5.1-5.7 4.4.5zm.3-11.8-4.4-.5.2-6.1 4.4.6z" style="fill:#94d1e0"/><path d="m62.4 18.4-14.7 1v8.8l-8.4.1-1 14.3h-5.4L17.7 82.8l37 1.2 2.8-56 4.8.8z" style="fill:#dfecf5"/><path d="m31 57.3 21.4.4V47.3H34.8zm-8.2 24.1L52.4 83l-2.9-21.9-17.8-.1z" style="fill:#82aec0"/><path d="m49.5 61.1-17.7-.3-2.3 5.1L42 82.4l10.5.6zM34.8 47.4l17.6 6v-6z" style="fill:#2f7889"/><path d="m53.7 77.6 20.4 1.8 47.1 4q1.5.5 1.4 1.8l-.3 3.7" style="fill:none;stroke:#82aec0;stroke-width:2;stroke-miterlimit:10"/><path d="M8.2 80.9v-4.6q.1-1.4 1.5-1.4s24.3.8 45.5 2.8" style="fill:none;stroke:#94d1e0;stroke-width:2;stroke-linecap:round;stroke-miterlimit:10"/><path d="m46.4 34-4.1.1-.6 7.6 4.1-.1zm2.6 0-.6 7.6H53l.5-7.8z" style="fill:#82aec0"/><path d="m84 24.3-21.6-4.7-15.7.9q-1.1 0-1.2-1.2v-.6q.1-1 1-1.1l16-1 22 4.7q1 .3 1 1.1l-.1.9c0 .7-.7 1.1-1.3 1" style="fill:#2167a1"/><path d="m54 22.3-3 .2v4h3zm2 0v4h3.4v-4z" style="fill:#82aec0"/><path d="M77.3 25v4.4l4 .9v-4.6z" style="fill:#2f7889"/><path d="M66.6 78.6V84m19.8-3.6v4.7m17.9-3.1v5.3" style="fill:none;stroke:#82aec0;stroke-width:2;stroke-miterlimit:10"/><path d="M31.7 81.1v-5.2" style="fill:none;stroke:#94d1e0;stroke-width:2;stroke-miterlimit:10"/><path d="m69.2 23.2-4.4-.9V27l4.3.9zm1.9.4v4.6l4.2.9v-4.6z" style="fill:#2f7889"/><path d="M6 80.4s-2.2 0-2 2c0 0 .3 16.4 4.2 26C13 119.7 21.6 124 30.1 124h83c3.2 0 5.4-2.8 8-9.4a133 133 0 0 0 2.9-24.4q-.1-1.3-1.3-1.5s-73-8.4-116.8-8.3" style="fill:#2167a1"/><path d="m21.9 56.1 38.1.5s-.2 4.8-4.5 4.8L26 60.7c-4-.5-4-4.6-4-4.6" style="fill:#dfecf5"/><path d="M116.8 63.3v4.9l2 .2c4.2.3 4.9-4.5 4.9-4.5z" style="fill:#94d1e0"/></svg>