<svg xml:space="preserve" width="16" height="16" viewBox="0 0 128 128"><path d="M13.8 102c-2 12.3 16.5 22.5 52.3 22.5s49-13.3 48.2-21.5-15.6-21.2-53-20C24 84.4 15 95 13.8 102" style="fill:#179cf5"/><path d="M26.7 96.9c.3.7 4 1.2 5.7 2.9 3 2.9 3.4 5 7.2 6.3 4 1.1 7-.9 11.6-.2 4.7.7 6.7 3.6 11.6 3.9 5.7.3 5.7-3.6 12-4.1 6.4-.5 7.2 1.7 12.3.2 5-1.4 5.6-4.3 8.3-6.3S100 97 100 97s-7.7-16.9-30.6-18c-24.8-1-42.7 18-42.7 18" style="fill:#f6c973"/><path d="M40.2 94.3s5.3.3 11-1 11-3.1 11.6-2-4.8 5.3-4.8 5.3 2.4 1.8 8 1.2 9.6-2.7 11.6-4 5.1-3.2 9.3-4.2 6.7-.7 6.7-.7-5.1-5.4-10.2-6.8c-11.1-2.9-14.1-2-21.2.1a72 72 0 0 0-22 12.1" style="fill:#eda052"/><path d="M71.6 37.2 64.4 42s5.6 6.7 7.4 16c1 6 1.9 11.2 1.2 16.2-.3 2-2.3 6.2-2.9 7.6-.5 1.4-1.4 4.7 1.2 5.3s10.8 1 12 .8 2.7-1 2-4c-.4-2-1-7.7-1.5-11.6-.4-4-.6-11.5-4-20.8-3.4-9-8.2-14.2-8.2-14.2" style="fill:#dc8124"/><path d="M78.2 77c3.7.3 6.1-.4 6.1-.4l.5 3.7s-2.2.7-6.5.4c-3.8-.2-7.2-1.2-7.2-1.2l1.4-3.6s2 1 5.7 1.2M73 66.8l.2 1.7v1.7s2.8.4 5 .3c3.7-.2 5.4-1 5.4-1l-.2-1.8-.2-1.8s-1.8 1-5.6 1.2c-2.6.1-4.5-.3-4.5-.3m-1.5-9.5s1.7.3 5-.4c3-.7 4.4-1.8 4.4-1.8l.4 1.6.4 1.6s-1.2 1.2-4.6 1.9-5 .2-5 .2l-.3-1.6z" style="fill:#c0711f"/><path d="M69.9 51.4s1.6 0 4.6-1c2.7-1 3.9-2.4 3.9-2.4l-3.8-8.3-9 3.3z" style="fill:#a2672b"/><path d="m70.4 41 15.2 5.8s.7-2 1-3.6c.3-1.2.5-3 1-3 .8 0 1.3 1.3 1.3 3s-.4 4.4-.4 4.4l3.2 1S92.5 47 93 45s.2-3.3.7-3.3c.9 0 1.5 1.7 1.5 4.1-.1 2-.5 3.6-.4 3.6.1.2 1.9.5 3.3.9l2.3.5s2.3-11-4.8-15.8C87.3 29.5 77 33.7 77 33.7l6.6-5.6q.1-.1-1.4-3c-.6-.9-1.6-2-1.9-2.7-.1-.4 1.3-.6 3.2.6 1.6.9 3.7 2.8 3.8 2.8l1.7-1.3s-.1-1.4-.8-2.7c-.6-1-1.2-2.1-1-2.3.6-.2 2 .1 3 1.1s1.6 2.2 1.6 2.2l5.1-3.4s-3.6-5.6-11.4-5.3-11.2 4.5-12.5 6-3.4 4.9-3.4 4.9l.8-9.1q0-.2-1.8-1c-1.3-.4-2.4-.2-2.5-.3 0-.7 1-1.7 2.8-2l2 .1.8-8.8s-9.5.2-12.6 8.8c-2.6 7.4 2.2 14.2 1.4 14.9-.8.6-7-6.2-16.2-4-10.1 2.3-13 13-12.3 13 1.5 0 6.2.2 6.5 0 .2 0 .6-1.4 1.5-2.8s3.3-3.5 4.2-3c.5.1-.2 1-.8 2.5L42.1 37h4.3s1.5-5 3.3-5.4c.8-.2 0 1.2-.1 2.5-.2 1.3-.1 3-.1 3l6.8.4s-8.5.3-14.2 5.5a17 17 0 0 0-6 15.5c.3 3.3 1 5.7 1.3 6a29 29 0 0 0 4.7-4.9c.1-.4-.3-2.8-.3-5s.5-3.5 1-3.5.3 1.6.6 3q.8 2.5 1.2 2.8c.2.2 2.7-3.2 2.7-3.2l-.4-2.9c-.1-1.3.1-2.8.5-3 .4-.4.6 1.2 1 2.5l1 1.9 4.5-4.3s-3.4 6.3-3 12.8c.7 7.2 5.1 9.1 5.4 9s3.5-7 3.5-7-1-1.3-1.9-3c-1-2-1-3.9-.6-4.1.6-.4 1.4 1.9 2.3 3q1.2 1.5 1.6 1.4c.4-.1 2.5-4.9 2.5-4.9l-1.2-1.6c-.5-.7-1-2-.5-2.7.4-.4.8.6 1.5 1.1l1.2 1.1z" style="fill:#728137"/><path d="M71.6 44.8c.3-.2 1-4.6 1.3-6.8.3-2 1-5-.5-5.3-1-.2-1.5 1.3-1.8 2.8l-.8 3.4-2.2-4.2c-.7-1.1-2-3.5-3.2-2.8s.1 3.5.9 5l1.7 3-3.8-1.2c-1.5-.4-3.5-.9-3.8 0-.5 1.4 1.4 2 5 3.6 3.6 1.4 6.6 2.8 7.2 2.5" style="fill:#bdcf47"/><path d="M61.2 76.6c-2.5.3-4.4 2.4-3.8 5.7s3.9 3.7 5.7 3.4c2.3-.4 4.7-2.9 3.1-6.5-1-2.4-3.5-2.8-5-2.6" style="fill:#a2672b"/><path d="M17.6 100.1c-.8-.6-2.6 2.4 0 5.7.9 1.1 1.6 2.8 3.2 4 1.6 1 2.7 1.1 4.9 2.7a9 9 0 0 0 3.9 1.6q1.8-.2 1.4-.7c-.1-.5-1.9-1-3.2-2.3s-2-3.3-3.5-4.5c-1.9-1.4-2.8-.8-5-3.3a7 7 0 0 1-1.7-3.2m81 13.7c.3.6 5-2.7 7.1-3.8s5.3-1.4 6.2-5.1c.5-2.5-1.3-4.9-1.9-4.8-.5 0-.8 2.3-2 3.8-1.6 2.2-3.7 2.5-5.7 4.4-1.5 1.4-4.1 4.7-3.7 5.5" style="fill:#0fcaff"/><path d="M24.5 93.4c.6.7-1.5 2.3-1.2 3.7.9 2.5 2.2 1.8 5.5 4.4 3.3 2.5 2.8 3.9 5.3 5.9 2 1.6 4.8 2.9 8.8 2.6s5.2-.6 8.2-.2c4.9.6 4.7 2.5 9.8 3.7q3.6.8 6.9-1.5c2-1.2 4.7-2.6 8.7-2.7 4 0 9 1.2 13.3-.5 3.6-1.4 4.4-3.6 7-6 2.7-2.5 6-2.7 6.6-4.8.7-2.4-2.4-3.8-2.8-4.3-.5-.6-.5-1.5.6-1.5s6.5 2.3 6.2 6.3c-.3 3.2-3 4.2-4.4 5-1 .4-3.1 1.5-5.4 4.4s-3.5 4.7-6.6 5.7q-5.2 1.3-12.1.7a20 20 0 0 0-9.6 2 15 15 0 0 1-8.6 1.7c-4.4-.7-6-3-10.2-3.7-4-1-7.2 1.5-13.7-.7-5-1.6-6.5-4.7-7.8-6.2s-2.3-3-5.5-4.4-3.8-3.4-3.7-4.8c.1-2.3 1.8-3.5 2.5-4.1s2-1 2.2-.7" style="fill:#76f8ff"/></svg>