<svg xml:space="preserve" width="16" height="16" viewBox="0 0 128 128"><path d="M3.2 33.5v65.2q.2 1.8 2 2h116a2 2 0 0 0 2-2V33.5a2 2 0 0 0-2-2H5.1a2 2 0 0 0-2 2m83 62.8c-5.6 3.6-11.5-2.4-8-8l1-.9a5.7 5.7 0 0 1 8 8zm0-16.8a5.7 5.7 0 0 1-8-8l1-.9c5.6-3.6 11.5 2.3 8 8zm0-17.9c-5.6 3.6-11.5-2.3-8-7.9l1-1a5.7 5.7 0 0 1 8 8zm0-16.8c-5.6 3.6-11.5-2.3-8-8l1-.9a5.7 5.7 0 0 1 8 8z" style="fill:#a65f3e"/><path d="M3.2 30.5v65.2q.2 1.8 2 2h116a2 2 0 0 0 2-2V30.5a2 2 0 0 0-2-2H5.1a2 2 0 0 0-2 2m83 62.8c-5.6 3.6-11.5-2.4-8-8l1-.9a5.7 5.7 0 0 1 8 8zm0-16.8a5.7 5.7 0 0 1-8-8l1-.9c5.6-3.6 11.5 2.3 8 8zm0-17.9c-5.6 3.6-11.5-2.3-8-7.9l1-1a5.7 5.7 0 0 1 8 8zm0-16.8c-5.6 3.6-11.5-2.3-8-8l1-.9a5.7 5.7 0 0 1 8 8z" style="fill:#ffd54f"/><g style="opacity:.8"><path d="M15.1 51h32.5M15.1 66.5h23m16 0h4.8" style="fill:none;stroke:#4e342e;stroke-width:8;stroke-linecap:round;stroke-miterlimit:10"/></g><g style="opacity:.5"><path d="M13.6 80.5h3v9.3h-3zm25.1 0h3v9.3h-3zm5.4 0h3v9.3h-3zm-24.6 0h6v9.3h-6zm30.2 0h7v9.3h-7zm-21.6 0h8v9.3h-8z" style="fill:#6d4c41"/></g><path d="M122 28.5H4.3q-1 0-1.1 1v10h74.4a6 6 0 0 1 .8-5.8l.7-.7c4.4-3 9 .1 9 4.3q.1 1.2-.4 2.2h35.4v-10q0-1-1-1" style="fill:#e2a610"/><path d="M97.8 48.7H116v16.7H97.8z" style="opacity:.5;fill:#6d4c41"/><path d="M99 74.1h9m-9 6.4h14.3" style="opacity:.8;fill:none;stroke:#4e342e;stroke-width:3;stroke-linecap:round;stroke-miterlimit:10"/></svg>