<svg xml:space="preserve" width="16" height="16" viewBox="0 0 128 128"><path d="M116 4H12a8 8 0 0 0-8 8v104a8 8 0 0 0 8 8h104a8 8 0 0 0 8-8V12a8 8 0 0 0-8-8" style="fill:#194fa5"/><path d="M109.7 4H11.5A7.6 7.6 0 0 0 4 11.5v97.9c0 4.1 3.3 7.5 7.5 7.5h98.1c4.1 0 7.5-3.3 7.5-7.5V11.5c0-4-3.1-7.4-7.2-7.5z" style="fill:#2262dd"/><path d="M39.7 12.9c0-2.3-1.6-3-10.8-2.7-7.7.3-11.5 1.2-13.8 4-1.9 2.3-2.3 5.6-2.6 8.4-.2 2.2-2.2 14.9 3.5 11.2q1-.6 1.6-1.8c1.2-2.1 1.9-3.5 3.3-5.6 5.3-8.6 18.8-10.5 18.8-13.5" style="opacity:.65;fill:#68abe6"/><circle cx="20.5" cy="102.5" r="5.8" style="fill:#fafafa"/><circle cx="40.8" cy="102.5" r="5.8" style="fill:#fafafa"/><circle cx="61" cy="102.5" r="5.8" style="fill:#fafafa"/><circle cx="101.5" cy="102.5" r="5.8" style="fill:#fafafa"/><circle cx="81.2" cy="102.5" r="5.8" style="fill:#fafafa"/><path d="M77.4 24.4c0-4.8-3.9-8.6-8.7-8.6H53.3a8.7 8.7 0 0 0-8.7 8.6v2q0 .9-1 1h-3.8c-1 0-2 .8-2 1.9V87c0 1 1 1.9 2 1.9h42.4c1 0 2-.9 2-2V29.3c0-1.1-1-2-2-2h-3.9a1 1 0 0 1-1-1zm-28 0c0-2.1 1.8-3.8 3.9-3.8h15.4c2.1 0 3.9 1.7 3.9 3.8v2q-.1.9-1 1H50.4a1 1 0 0 1-1-1zM14.8 35v46.3c0 4.2 3.4 7.7 7.7 7.7h5.7q1.8-.2 2-2V29.3q-.2-1.8-2-2h-5.7a7.7 7.7 0 0 0-7.7 7.7m84.7-7.7h-5.7q-1.8.2-2 2V87c0 1 .9 1.9 2 1.9h5.7c4.3 0 7.8-3.5 7.8-7.7V35c0-4.2-3.5-7.7-7.8-7.7" style="fill:#fafafa"/><path d="M39.7 12.9c0-2.3-1.6-3-10.8-2.7-7.7.3-11.5 1.2-13.8 4-1.9 2.3-2.3 5.6-2.6 8.4-.2 2.2-2.2 14.9 3.5 11.2q1-.6 1.6-1.8c1.2-2.1 1.9-3.5 3.3-5.6 5.3-8.6 18.8-10.5 18.8-13.5" style="opacity:.3;fill:#68abe6"/></svg>