<svg xml:space="preserve" width="16" height="16" viewBox="0 0 128 128"><path d="M89 105.2v4.2c0 .5 2 1.4 5.7 1.5s5.9-1 5.9-1.3v-4.4s-2.7-2.6-5.2-2.7-6.4 2.7-6.4 2.7" style="fill:#464c4f"/><path d="M25.9 3.1c-1 0-1.6.1-1.6 2.5l.2 75.6q0 1.2 2.2 1.2h5.5q1.3 0 1-2c-.2-2 0-74.7 0-75.6s-.5-1.6-1.9-1.6z" style="fill:#606265"/><path d="M16.4 29.6s-.1-4.1 2.8-6.8c2.6-2.4 5.1-2.3 5.1-2.3v4.1s1.6-.5 4.1-.4 4.7 1 4.7 1V21s1.5 0 3.6 2.5c1.1 1.3 2 4 2.3 5.3.4 1.8 1 2.6 2.7 2.7h4c1.6 0-3.1-8.2-3.1-8.2s-5.3-8-7-8a97 97 0 0 0-13.4.8c-1 .5-7.7 5.2-7.7 5.2l-.9 7.2s2.5 3 2.5 2.8zm-5.1 0-5-4s-1 8.2 3 13c3 3.7 6.4 5.1 9.5 6.5 2.8 1.2 5.6 2.1 5.6 2.1V52l8.8 4.7v-6.3s3.3 1.8 5 3.6c1.7 1.7 1.8 4 1.9 5.3 0 1.5-.7 3.7-.7 3.7l-1 4.3L49.8 56 23.3 38.4zM6.9 54.9S5.5 56 5.9 59s2 7.4 7 11.4 11.6 4.8 11.6 4.8v3.3h8.7v-3.3s5.3-.3 9.7-3c4.6-3 8-9 7.8-14.6-.1-2-1.4-1.6-1.4-1.6s-16 13.9-17 14c-1.2.1-11.6-1.7-11.6-1.7L11 57.8z" style="fill:#464c4f"/><path d="M11 53.7c-3.3.3-4.4 1-4.5 2s2.8 17.8 22.7 17.5c19.1-.3 21.4-11.9 21.5-16.4q.5-8-10.2-14.2c-5.4-3.1-18.3-7.9-20.5-9.2-2-1.3-4.7-4-4.3-8.1.3-4 4.8-8.1 13-8 8.3 0 11.5 5.7 12.1 7.4 1 2.7.8 6.3 2.3 6.8.7.2 2.8 0 4 0a4 4 0 0 0 3-3.5c0-2.7-2.8-18-21.9-18-18.1.2-22.6 11.4-22 17.8.7 6 5.7 11.8 13.6 15s22 7.1 22 14.4c-.2 6.5-7.8 8.8-14 8.5s-9.7-4-11-8.3c-1.2-4.1-3.6-4-5.8-3.7" style="fill:#606265"/><path d="M14 55.8c-.7-1.3-5.1-1.1-5.7 1S9.7 62.2 11 62c1.9-.4.3-2.6 1-3.5.8-.9 2.7-1.1 1.9-2.6M28.4 4.3c-1.3 0-2.8-.1-2.8 1.7-.1 1.7 0 3 .7 3 .7.1 1.8-1.5 2.2-2.2.6-.9 1.3-2.5-.1-2.5m-10 10.3c-.5-.7-3.4-1.3-7.2 3.5s-2.5 7.3-1.6 7.4q1.7.1 2.6-2.4c1-2.4 2.3-3.8 4.3-5.3 1.7-1.2 2.7-2 1.9-3.2" style="fill:#9a9a9b"/><path d="M74 84.5v1.8q0 1 1.7 1.1h38.9q.4-.1.3-.7v-2.2l-35-1.9zm0 10.2v2.9q0 .7 1.2.6h38.3q.9 0 1-.9v-2.6l-20.2-2.1z" style="fill:#464c4f"/><path d="M74 79.8h41v4.7H74zm0 10.6h40.5v4.3H74zm15 14.8.5-25.4S66.3 45 66.5 44.5c.3-.6 13.7-.3 14.4.1s14 21.3 14.5 21.3 13.2-20.6 13.8-21c.5-.4 14.2-.5 14.2 0s-23 35-23 35l.2 25.4-5.8.2z" style="fill:#606265"/><path d="M79.1 46.8c0 .7-4 4.7-4.8 4.7S71.5 48.7 71 47c-.3-1 3.2-1.2 4.5-1.2s3.6 0 3.6 1m31.5.2c-.5.3-4.2 4.6-2.6 5.9 1.2 1 3.6-1.4 5.4-2.2 1.7-.8 4.7-1.4 4.7-2.9 0-1.8-6-1.7-7.5-.7" style="fill:#9a9a9b"/><path d="M54.7 16.6c1 1.4 5-.6 8.4-1.1s9-1.4 17.1 2.5 13 9.5 13 9.9c-.1.4-7.7 2.4-9.8 3.4Q80.7 32.8 81 35q.6 2 3.1 2.6c2.9.7 22.7 2.7 25.7-.2 3.8-3.5 2.8-22.1 2.6-24.3-.4-3.4-1.3-4.5-3-4.8q-2.4-.6-3.9 2.6c-1 2.6-2.8 9-3.3 9S96.5 12 87 8.5s-18-1.8-23 .1c-5.4 2-10.5 6.2-9.2 8M42.3 103c-.3.5 4.2 8.3 14 11.2s21.4-2.3 22.7.2c1.6 3.2-12.4 13.8-29.6 8-14.5-4.7-16.9-14-17.3-14s-4 4.7-5 5.8c-2.2 2.5-7.3 1-6-3.7 1.9-6.5 6.8-21 9.4-22 3.5-1.3 21 7.4 22.2 8.1 2.4 1.4 3 5.7-1.3 6-2.7.1-8.8.1-9 .5" style="fill:#02ab47"/></svg>