<svg xml:space="preserve" width="16" height="16" viewBox="0 0 128 128"><path d="M18 18.3c-.2-1.3-.4-6.9-5.2-6.4-4 .4-3.9 4.8-3.5 6.8l13.2 103.6c.2 1.4 2.3 3 4.6 2.7 2.4-.2 3.7-2 3.7-3.8C30.8 120 18.2 20 18 18.2" style="fill:#b0b0b0"/><path d="M25.8 118.8q-1-.1-1.2-1.1L11.5 16.5a1.2 1.2 0 1 1 2.5-.3l13 101.1q.2 1.2-1 1.4z" style="fill:#c8c8c8"/><path d="m18 19.2 8.2 65s2.7-3.5 10.2-3.4c5.2.2 13.2 1.3 23.6-2.2C73.8 73.9 81.5 66 96.6 63.4c11.4-2 21.8.2 22-.5.2-.5-.3-3.8-.4-3.8a791 791 0 0 1-32.3-18.5L21.4 17.3l-1.9 1q-1.4.7-1.4.9" style="fill:#9a9a9a"/><path d="M21.4 17.2s2.5-2 8.8-2.4c11-.8 16 2.4 25.8.3C67 12.7 74.2 5 85.7 3.6c13-1.7 21.3 2.3 21.3 2.3s3.8 12 6.2 25.6l5 27.6-3.4-.5L22 22.2z" style="fill:#d7cdc7"/><path d="M104.5 8.5c-1-.9-12.3-4.1-22.6-1.3s-15.3 9-25.3 11.3-17.8-.8-23.4-.3C24 18.8 22 21.5 22 21.5l6.7 55.8s3.3-1 8-.9c7.3.1 12.5.7 21-1.8s20.7-10.4 32.3-14c14.1-4.4 25.6-1.6 25.5-2l-5.7-29.8c-2.7-14.2-5.2-20.4-5.2-20.4" style="fill:#f1edec"/><path d="M67.4 19.9c-.4 2.4 1.4 21.4-.9 30s-7 15.1-10 18-4.5 4.6-4 5.2 7.7-2 15.3-6.5 10.7-7 11.5-8.2 3.2-9.6 4.3-18.6 2-21 2.5-24.3c.4-2.6 1.4-5.3.8-5.5s-6.1.4-10.6 2.7c-4.7 2.4-8.6 5-8.9 7.2m-40.7 3.4c-.3 1.7 1.3 17.7 2.1 26 1 8.1 2.9 22.5 4.4 22.4 2.7-.3 4.4-26 9.6-36.4 4-7.8 7.8-11.2 7.7-11.9s-13.3-3.8-18.2-2.9c-5.7 1-5.6 2.8-5.6 2.8" style="fill:#fefefe"/></svg>