<svg xml:space="preserve" width="16" height="16" viewBox="0 0 128 128"><radialGradient id="a" cx="63.6" cy="3189.1" r="50.7" gradientTransform="translate(0 -3114)" gradientUnits="userSpaceOnUse"><stop offset=".5" style="stop-color:#fde030"/><stop offset=".9" style="stop-color:#f7c02b"/><stop offset="1" style="stop-color:#f4a223"/></radialGradient><path d="M63.6 124.8c-24.8 0-51.6-15.6-51.6-49.7s26.8-49.7 51.6-49.7c13.8 0 26.5 4.5 36 12.8 10.2 9 15.6 21.9 15.6 36.9s-5.4 27.7-15.7 36.8a54 54 0 0 1-35.9 12.9" style="fill:url(#a)"/><path d="M106.2 45.5a50 50 0 0 1 7.2 27 47 47 0 0 1-15.7 36.7 54 54 0 0 1-35.9 13c-16 0-33-6.6-42.8-20.5a52 52 0 0 0 44.6 23.1c13.7 0 26.5-4.6 36-12.9a48 48 0 0 0 15.6-36.8q0-17.1-9-29.6" style="fill:#eb8f00"/><radialGradient id="b" cx="69.6" cy="-1087.7" r="19.4" gradientTransform="matrix(.98 0 0 -.88 -34.44 -882.08)" gradientUnits="userSpaceOnUse"><stop offset="0" style="stop-color:#ed7770"/><stop offset=".9" style="stop-color:#ed7770;stop-opacity:0"/></radialGradient><ellipse cx="33.8" cy="71.6" rx="17.5" ry="16.5" style="opacity:.8;fill:url(#b)"/><radialGradient id="c" cx="126.5" cy="-1042.6" r="19.4" gradientTransform="matrix(1 0 0 -1 0 130)" gradientUnits="userSpaceOnUse"><stop offset="0" style="stop-color:#ed7770"/><stop offset=".9" style="stop-color:#ed7770;stop-opacity:0"/></radialGradient><ellipse cx="94.2" cy="71.6" rx="17.5" ry="16.5" style="opacity:.8;fill:url(#c)"/><ellipse cx="24" cy="15" rx="7" ry="5" style="fill:#ff00a2"/><ellipse cx="49.6" cy="25.4" rx="4.2" ry="5.5" style="fill:#fd3b3b" transform="rotate(-45 49.56 25.38)"/><ellipse cx="72.5" cy="18.2" rx="8.4" ry="3.9" style="fill:#0ef" transform="rotate(-37.7 72.51 18.21)"/><ellipse cx="22.7" cy="81.7" rx="2.9" ry="6.5" style="fill:#0048ff" transform="rotate(-30 22.7 81.68)"/><ellipse cx="96.5" cy="110.5" rx="3.5" ry="5.5" style="fill:#f63bbe"/><ellipse cx="115.4" cy="57.1" rx="6.5" ry="2" style="fill:#0c0" transform="rotate(-35.1 115.37 57.1)"/><ellipse cx="19.2" cy="116" rx="2.5" ry="6" style="fill:#0048ff" transform="rotate(-33.3 19.19 116.02)"/><ellipse cx="15" cy="99" rx="6" ry="2.5" style="fill:#7acded" transform="rotate(-4 15 99)"/><ellipse cx="24" cy="86.7" rx="7.2" ry="1.7" style="fill:#ff82b2" transform="rotate(-3.8 24.03 86.77)"/><linearGradient id="d" x1="82.2" x2="119.4" y1="-902.7" y2="-902.7" gradientTransform="matrix(1 0 0 -1 0 -820)" gradientUnits="userSpaceOnUse"><stop offset="0" style="stop-color:#004054"/><stop offset="1" style="stop-color:#45a4ff"/></linearGradient><path d="M118.9 78.2q-1.4-4.6-5.6-6.8a9.5 9.5 0 0 0-12.8 3.8l-.1.1a8 8 0 0 0 3.3 10.9 7 7 0 0 0 5.1.7 6 6 0 0 0 4.1-3.2q1.3-3-.2-5.9a5 5 0 0 0-4.2-2.8 1.9 1.9 0 0 0-.3 3.7q.8 0 1.2.8.6 1 .2 2.3-.5 1.1-1.7 1.3-1.3.3-2.4-.3-1.5-.8-2.1-2.5-.4-1.7.3-3.3 1.2-2.2 3.4-2.8t4.4.4a8 8 0 0 1 3.1 10.5c-1.9 3.6-5.6 6-11 6l-21.5-.5.2 4.6 21.1-.3c6.3 0 11.5-2.5 14.5-8.1q2.4-4 1-8.6" style="fill:url(#d)"/><path d="M70 93q.8 1 1.4 2.2h11.5l-.2-4.6-11.1-.3q-.5 1.6-1.7 2.7z" style="fill:#7f0099"/><path d="m104.8 54.8 3.5.5.9-3.5.5-2L89.6 47c9.1 6.9 14.6 7.8 15.2 7.8m16.1-49.4-8.1 4.6-2 1.1 8.4 1.2zM103 15.5l-8.3 4.7 21.7 3.1 1.4-5.7zM79.3 28.9l34.5 5 1.3-5.3-28.1-4zm2.9 11.5 28.8 4.1 1.4-5.4-34.7-5c.4 1.1 1.6 3.3 4.5 6.3" style="fill:#ff4545"/><path d="m86.9 24.6 28.1 4 1.4-5.3-21.7-3.1zm31.7-10.1.5-2.1-8.4-1.2-7.8 4.4 14.8 2.1zm-42.3 16 1.1 3.2.2.5 34.7 5 1.3-5.3L79.1 29zm12.9 16.2.4.3 20.1 2.9 1.3-5.3-28.8-4.1q3.3 3.3 7 6.2" style="fill:#ff9c9c"/><circle cx="120.8" cy="6.5" r="4.8" style="fill:#c93737"/><path d="M71.8 91.8q2.3-1.9 2.6-5 .4-3-1.6-5.4c-2.3-3-8.8-2.3-8.8-2.3-1.7.1-3.7 1-3.5 3 .3 1 1.3 2 2.4 2.2 2.6.6 6.2 0 6.3 2.6.2 3-4.3 1.7-4.7 4.8s4.7 2.7 4.7 4.8c0 1.7-1.6 2-3.4 2.3-1.5.3-4.4.8-4.6 2.5s.7 3.9 4.8 3.3c6.4-1 8.6-4.5 8.6-6.7s-1-4.6-2.8-6M49.9 65.4l-.2-.2-.4-.5-.5-.5-.7-.7-1.6-1.2-.6-.2h-.2.1-.5q.1 0 0 0l-.7.2-.8.5-.7.7-1.3 1.3-.4.6-.3.2a4 4 0 0 1-5.2.6q-1.7-1.3-1.4-3.3l.2-1q.5-1.5 1.2-2.7a11 11 0 0 1 7.8-5.7l.6-.1h2.2l1 .1a11 11 0 0 1 4.6 2 12 12 0 0 1 4 5.2l.4 1.3.2.6v.3c.2 2-1.1 3.7-3 4h-.2a4 4 0 0 1-3.6-1.5m37.1 0-.1-.2-.5-.5-.4-.5-.7-.7-1.6-1.2-.6-.2H83h.1-.5q-.2 0 0 0l-.7.2-.8.5-.8.7-1.2 1.3-.5.6-.2.2a4 4 0 0 1-5.3.6q-1.6-1.3-1.4-3.3l.3-1q.3-1.5 1.1-2.8a12 12 0 0 1 6-5.2l1-.2 1-.3h2.7l1 .1q2.4.5 4.6 2a12 12 0 0 1 4.5 7.1v.2c.3 2-1 3.7-3 4a4 4 0 0 1-3.8-1.4" style="fill:#422b0d"/></svg>