<svg xml:space="preserve" width="16" height="16" viewBox="0 0 128 128"><linearGradient id="a" x1="64" x2="64" y1="32.8" y2="-.2" gradientTransform="matrix(1 0 0 -1 0 128)" gradientUnits="userSpaceOnUse"><stop offset="0" style="stop-color:#00bfa5"/><stop offset=".5" style="stop-color:#00b29a"/><stop offset="1" style="stop-color:#009e89"/></linearGradient><path d="M64.1 96c-25.5 0-52 7.3-52 25v3h104v-3c0-16.7-26.3-25-51.9-25" style="fill:url(#a)"/><path d="M55 90v10c0 4.6 3.6 8.2 8.2 8.2h1.6c4.6 0 8.3-3.6 8.3-8.1V90zm36.3-39.6H36.7c-6 0-10.7 5.2-10.7 11.4s4.8 11.5 10.7 11.5h54.6c6 0 10.7-5.2 10.7-11.5s-4.8-11.4-10.7-11.4" style="fill:#99674f"/><path d="M64 11c-17.4 0-33.5 18.7-33.5 45.5C30.5 83 47 96.3 64 96.3S97.5 83 97.5 56.5C97.5 29.7 81.5 11 64 11" style="fill:#ba8d68"/><path d="M67.8 68h-7.6q-1.1.5-.7 1.7a5 5 0 0 0 4.5 2.6c2.8 0 4.2-2 4.5-2.6q.4-1.2-.7-1.6" style="fill:#99674f"/><path d="M47.7 60.3q-3.2 0-5.2-1.3-.8-.4-.8.5c.4 2.5 3 4.4 6 4.4s5.6-2 6-4.4q0-1-.8-.5a10 10 0 0 1-5.2 1.3m32.6 0q-3.1 0-5.2-1.3-.8-.4-.7.5c.3 2.5 2.9 4.4 6 4.4s5.5-2 5.9-4.4q0-1-.8-.5a10 10 0 0 1-5.2 1.3" style="fill:#49362e"/><path d="M40 50.7c3.2-4.5 10.8-4.6 14.5-.7.6.7 1.3 1.7.6 2.6s-1.9.6-2.8.2a12 12 0 0 0-9-.2l-1.6.6c-1.4.3-2.5-1.3-1.7-2.5m46 2.4q-3.2-1.6-6.9-1.2a13 13 0 0 0-3.3.8c-.8.3-1.7.9-2.5.3-2.5-1.7 1.8-4.4 3.1-5 2.8-1.2 6-1 8.7.3q1.8.9 2.9 2.4c.8 1.3-.4 3-2 2.4" style="fill:#613e31"/><path d="M74 81.8c0 1-4.5 1.2-10 1.2s-10-.2-10-1.2S58.6 80 64 80s10 .6 10 1.7" style="fill:#5d4037"/><path d="M64 4.6C18.5 5 27.9 56.8 27.9 56.8l3 7.7c0 .3.6.3.6 0A309 309 0 0 1 37.8 40a6 6 0 0 1 6.7-3.8A111 111 0 0 0 64 38h.2c7.8 0 14.9-1 19.3-1.8a6 6 0 0 1 6.8 3.8c1.8 4.7 5.3 20 6.2 24.4.1.3.6.4.7 0l3-7.7s9.4-51.8-36-52" style="fill:#543930"/><radialGradient id="b" cx="64" cy="80.3" r="38.1" gradientTransform="matrix(1 0 0 -1.128 0 138.3)" gradientUnits="userSpaceOnUse"><stop offset=".8" style="stop-color:#6d4c41;stop-opacity:0"/><stop offset="1" style="stop-color:#6d4c41"/></radialGradient><path d="M100.2 56.8s9.3-52-36.2-52.2L58 5h-.3C19.4 9.8 27.9 56.8 27.9 56.8l3 7.6c0 .4.6.3.6 0 1-4.4 4.5-19.7 6.3-24.4a6 6 0 0 1 6.7-3.8A111 111 0 0 0 64 38h.2c7.8 0 14.9-1 19.3-1.8a6 6 0 0 1 6.8 3.8c1.8 4.7 5.3 20.1 6.3 24.4q.2.6.7 0z" style="fill:url(#b)"/><linearGradient id="c" x1="70.6" x2="58" y1="42.7" y2="36.8" gradientTransform="matrix(1 0 0 -1 0 128)" gradientUnits="userSpaceOnUse"><stop offset=".5" style="stop-color:#000"/><stop offset="1" style="stop-color:#000;stop-opacity:0"/></linearGradient><path d="M82.4 74.2c1.8-4.4 1.5-6.5.2-10.6-.3-1-.5-3.3-.6-4.1-.3-3 .7-6.8 1.4-7.5a6 6 0 0 0 1.4-4.4c-.3-2.2-4-5-8-.8-1.6 1.7-2.2 4.3-2.2 4.3l-5.4-12.9-.1-.1a6 6 0 0 0-3.3-3.4 5 5 0 0 0-4 .3q-1.5.8-2 2.1a5 5 0 0 0-5-1.1 5 5 0 0 0-3 2.8q-.4 1.3-.3 2.8-1.6-.3-3.2.6c-1 .6-3.8 2.7-1.5 7.2l.2.4q-1.4.1-2 .5a5 5 0 0 0-2.6 3.3q-.4 2.3 1 4.4l6.3 9 5.4 8.4a19 19 0 0 0 4.3 4.7q-.5 1.5.1 3l15 40.9h34.4z" style="opacity:.2;fill:url(#c)"/><linearGradient id="d" x1="58.3" x2="75.1" y1="91.6" y2="53.3" gradientTransform="matrix(1 0 0 -1 0 128)" gradientUnits="userSpaceOnUse"><stop offset=".5" style="stop-color:#ba8d68"/><stop offset="1" style="stop-color:#a47b62"/></linearGradient><path d="M81.8 45.9c-1.1-.5-2.9 0-4.4 1.8s-1 4.5-1.7 6c-.2.6-.9.6-1.1 0l-6.7-16c-.7-1.6-2.3-2.6-3.9-1.7-1.2.7-1.5 2.3-.9 3.7l4.3 11.5-.1.4q-.3 0-.4-.2L60 39c-.7-1.3-2-2.2-3.3-1.8-1.7.6-2 2.4-1.2 4L61.7 54q.2.5-.2.8-.5.2-.9-.2l-6.2-10c-.8-1.2-2.2-2.3-3.8-1.4s-1.3 2.4-.5 3.9c.6 1.2 4.6 8 5.8 9.8q.1.5-.2.9-.5.1-.9-.2l-4.1-5c-1-1.3-2.2-2-3.4-1.2-1.6.8-1.7 2.6-.6 4l6.2 9.1 5.4 8.4c4.2 6.4 8.6 6.2 9.5 6.2 2.4 0 7.3-2 8.9-2.8 8.8-4.2 4.4-11.9 4-16.5-.3-2.8.8-8 2.2-10 1.4-1.8-.2-3.5-1.1-3.9" style="fill:url(#d)"/><linearGradient id="e" x1="98.2" x2="77.5" y1="31.5" y2="21.8" gradientTransform="matrix(1 0 0 -1 0 128)" gradientUnits="userSpaceOnUse"><stop offset="0" style="stop-color:#00bfa5"/><stop offset=".5" style="stop-color:#00b29a"/><stop offset="1" style="stop-color:#009e89"/></linearGradient><path d="M78.7 124 63 80.9l-.1-.1q-.3-.6 0-1.2.3-.8.7-.8l16.6-7.3.6-.2q.9 0 1.3.8L112 124z" style="fill:url(#e)"/></svg>