<svg xml:space="preserve" width="16" height="16" viewBox="0 0 128 128"><path d="M116.6 124.2H11.3a7.5 7.5 0 0 1-7.5-7.5V11.4c0-4.2 3.4-7.5 7.5-7.5h105.3c4.2 0 7.5 3.3 7.5 7.5v105.3c0 4.1-3.3 7.5-7.5 7.5" style="fill:#1f87fd"/><path d="M91.3 6c-1.5 0-2.1 2.7-1.9 4s1 5.1.9 6.4-2.1 3.4-2.3 4.5.1 2.4 0 3-1.4 1.7-1.9 1.5-1.8-1.5-3-1.6-1.5.8-1.4 1.3.7 1.4.3 2.2-1.9 1.3-2.8 2.5-.8 2.3-.7 2.8.7 1.6 1 2c.5.6 1.2 1 1.1 2s-1.1 2.8-.4 3.7 2.2-.2 2.6-.5.8-1.1 1.7-1.4 2.5-.7 2.5-1.7-1.9-1.6-2.9-1.8-2-1.6-2-2.3q.4-1.1 1.7-1.2c1.3 0 1 1.6 2.6 1.6s2.6-2.6 4.1-2.6 2.3 2.1 4 3q2.7 1.4 3.4 1.4c.5.1.8.8 2 .8s2.1-3.8 2.5-4.4 2-2.7 2.6-2.8 3.2.2 5.4-.7c2.1-.8 4.5-1.7 4.7-2.6s-3.2-2-3.1-4.2c0-2.1 1.3-3 .7-3.7q-.9-.8-2.5.5c-1 .8-2 1.8-2.5 1.6s-2-1.9-2.8-2-2 0-2.5-.4c-.5-.3-2.3-1.6-5.2-5.4C94.7 8.2 93 6 91.3 6M10.9 108.9c-.8.1-2.6.7-2.6 1.4q-.2 1.4 1.8 1.2c2-.2 1.9-1.1 1.9-1.5s-.8-1.2-1.2-1.1m9.2.9c-.3-.6-1.6-.3-2.1.5-.4.6-.3 3 .8 2.7.9-.2.8-1.2 1-1.5s1-.8.4-1.7m3.5-11q-1-.3-2.6.8c-1.5 1-2 2.5-2.5 2.7s-2.4 1-2.8 1.3-.6 2.9.4 3.6 1.7.8 2.6.9 2.3-.2 2.5.2 0 2.8-.2 3.3-1.4 1.4-1.5 2.8c-.1 1.5-.3 3.4-.1 3.8s3.6 1.7 4 1.8 3.4-3 3.7-3.9.6-4.1.8-4.5c0-.3 2-3.8 2-4.6s-.2-2.6-.5-3-.5-1.7-1.1-2.4-2.6-.5-2.6-.5zM71 65.3c-.8-.3-1.3 1-1.7 1.4s-.9 1.5-.4 2.1 1.3 1 1.5.8 1.2-1.2 1-2.2q-.1-1.9-.5-2M39.5 98.2c.6-.6 1.6-2.7 3.1-2.8 1.1-.1 3.1 1 3.5 1.5s1.3 1.8 1.2 2.4-1.1 2-2 3c-1 1.1-1.7 2-2.4 1.8s-1.2-.9-2.2-.9-3 3-3.4 3.7-.8 1.7-1.5 1.7-2.4-2-2.9-3.2q-.9-1.5-.9-2.6c.1-.4 2-2.5 2.1-2.8s.5-2 1.8-2.3 1.2.6 2.2.7 1.3 0 1.4-.2M23 96.4c-.2.4.2 2.6.7 2.7s4.6-.5 6.7-.8 9-3.4 9.8-3.4 1.5.3 2 0l2.2-1.8 2.2-.7s1.6 1 2.7 1.2c1 0 2.3-1.3 2.6-1 .2.4-.5 1.8-1 2.7s-1.5 2.4-1.4 3 1 2.4 1.6 3 1.8 1.7 2.4 1.6 4-5.7 4.2-5.7 3.4-.6 3.4-1.4-1.4-.6-1.5-1c-.2-.3-1.9-1.4-1.7-1.8s.8-1.7 1.8-1.7 2.9 2 3.8 2.1c.9 0 3.8.5 4.5.3s2-1.8 2.5-2c.5 0 1.4.3 1.4.3s0 1.8 1 1.7q1.3-.4 1.3-1.9c.2-1 .9-1.8.9-1.8s1.3-1.5 2.2-2.2 1.4-2.4 1.8-2.4q.9.2.9 2.2c0 2-1 2-1 2.9 0 1 .2 2 .8 2s1-1.5 1.3-2.1 2.9-3.7 3-4.3-.4-4.8-.2-5.4 1.8-2.7 2.2-5.6-.4-7 .4-8.2 2.3-.4 2.9-1.2c.6-.9.7-3.2 1.3-4.6s2.2-4 2.2-6.3-4.4-7.8-4.2-9.1c.1-1.3.7-2.7.4-3.5-.4-.7-2.4-2.4-3.4-2.3-1 0-1 2-.6 2.3s1-.5 1.5-.4 1.6 1.3.1 2.4c-1.4 1.1-2.3.3-2.4 0s-.2-2.5-.9-2.5-1.4.7-1.5 1.2c0 .4.3 1.1 0 1.8s-1.8 1.3-2.2 2c-.4.8.1 10.3.1 11.2 0 1-1.3 2.7-1.8 4.2a15 15 0 0 1-2.4 5.2c-.8.6-1.4.5-2 1.2s-2.4 3.6-3.2 4.2-4.3 3.3-5.6 3.1-2.7-1-2.6-2 1.7-1.7 1.2-2.3-3.2.6-3.9 1.5.1 3 0 3.6c-.2.6-1 2.9-1.3 3.4s-2.1 2-2.5 3-.2 2.2-.4 2.5c-.2.4-2.3 1.7-3.1 1.6s-2.5-1.9-3.5-1.9-2.6 1.1-3.8 1.4-5.5 0-7.1-.2-3.8 2-5 2.8l-4.8 4c-1.5 1.8-4.7 2.6-5 3.2" style="fill:#7add8a"/><radialGradient id="a" cx="124.5" cy="47.1" r="43.5" gradientUnits="userSpaceOnUse"><stop offset=".4" style="stop-color:#e3dda6"/><stop offset=".9" style="stop-color:#e3dda6;stop-opacity:0"/></radialGradient><path d="M91.3 6c-1.5 0-2.1 2.7-1.9 4s1 5.1.9 6.4-2.1 3.4-2.3 4.5.1 2.4 0 3-1.4 1.7-1.9 1.5-1.8-1.5-3-1.6-1.5.8-1.4 1.3.7 1.4.3 2.2-1.9 1.3-2.8 2.5-.8 2.3-.7 2.8.7 1.6 1 2c.5.6 1.2 1 1.1 2s-1.1 2.8-.4 3.7 2.2-.2 2.6-.5.8-1.1 1.7-1.4 2.5-.7 2.5-1.7-1.9-1.6-2.9-1.8-2-1.6-2-2.3q.4-1.1 1.7-1.2c1.3 0 1 1.6 2.6 1.6s2.6-2.6 4.1-2.6 2.3 2.1 4 3q2.7 1.4 3.4 1.4c.5.1.8.8 2 .8s2.1-3.8 2.5-4.4 2-2.7 2.6-2.8 3.2.2 5.4-.7c2.1-.8 4.5-1.7 4.7-2.6s-3.2-2-3.1-4.2c0-2.1 1.3-3 .7-3.7q-.9-.8-2.5.5c-1 .8-2 1.8-2.5 1.6s-2-1.9-2.8-2-2 0-2.5-.4c-.5-.3-2.3-1.6-5.2-5.4C94.7 8.2 93 6 91.3 6" style="fill:url(#a)"/><radialGradient id="b" cx="106.8" cy="84.5" r="42" gradientTransform="rotate(221.8 95.18 114.87)scale(1 1.718)" gradientUnits="userSpaceOnUse"><stop offset=".4" style="stop-color:#e3dda6"/><stop offset=".8" style="stop-color:#e3dda6;stop-opacity:0"/></radialGradient><path d="M23 96.4c-.2.4.2 2.6.7 2.7s4.6-.5 6.7-.8 9-3.4 9.8-3.4 1.5.3 2 0l2.2-1.8 2.2-.7s1.6 1 2.7 1.2c1 0 2.3-1.3 2.6-1 .2.4-.5 1.8-1 2.7s-1.5 2.4-1.4 3 1 2.4 1.6 3 1.8 1.7 2.4 1.6 4-5.7 4.2-5.7 3.4-.6 3.4-1.4-1.4-.6-1.5-1c-.2-.3-1.9-1.4-1.7-1.8s.8-1.7 1.8-1.7 2.9 2 3.8 2.1c.9 0 3.8.5 4.5.3s2-1.8 2.5-2c.5 0 1.4.3 1.4.3s0 1.8 1 1.7q1.3-.4 1.3-1.9c.2-1 .9-1.8.9-1.8s1.3-1.5 2.2-2.2 1.4-2.4 1.8-2.4q.9.2.9 2.2c0 2-1 2-1 2.9 0 1 .2 2 .8 2s1-1.5 1.3-2.1 2.9-3.7 3-4.3-.4-4.8-.2-5.4 1.8-2.7 2.2-5.6-.4-7 .4-8.2 2.3-.4 2.9-1.2c.6-.9.7-3.2 1.3-4.6s2.2-4 2.2-6.3-4.4-7.8-4.2-9.1c.1-1.3.7-2.7.4-3.5-.4-.7-2.4-2.4-3.4-2.3-1 0-1 2-.6 2.3s1-.5 1.5-.4 1.6 1.3.1 2.4c-1.4 1.1-2.3.3-2.4 0s-.2-2.5-.9-2.5-1.4.7-1.5 1.2c0 .4.3 1.1 0 1.8s-1.8 1.3-2.2 2c-.4.8.1 10.3.1 11.2 0 1-1.3 2.7-1.8 4.2a15 15 0 0 1-2.4 5.2c-.8.6-1.4.5-2 1.2s-2.4 3.6-3.2 4.2-4.3 3.3-5.6 3.1-2.7-1-2.6-2 1.7-1.7 1.2-2.3-3.2.6-3.9 1.5.1 3 0 3.6c-.2.6-1 2.9-1.3 3.4s-2.1 2-2.5 3-.2 2.2-.4 2.5c-.2.4-2.3 1.7-3.1 1.6s-2.5-1.9-3.5-1.9-2.6 1.1-3.8 1.4-5.5 0-7.1-.2-3.8 2-5 2.8l-4.8 4c-1.5 1.8-4.7 2.6-5 3.2" style="fill:url(#b)"/></svg>