<svg xml:space="preserve" width="16" height="16" viewBox="0 0 128 128"><radialGradient id="a" cx="63" cy="-2091.1" r="57" gradientTransform="matrix(1 0 0 -1 0 -2028)" gradientUnits="userSpaceOnUse"><stop offset=".5" style="stop-color:#fde030"/><stop offset=".9" style="stop-color:#f7c02b"/><stop offset="1" style="stop-color:#f4a223"/></radialGradient><path d="M63 119c-27.9 0-58-17.5-58-55.9S35.1 7.2 63 7.2c15.5 0 29.8 5.1 40.4 14.4C114.9 31.8 121 46.2 121 63.1s-6.1 31.2-17.6 41.4A61 61 0 0 1 63 119" style="fill:url(#a)"/><linearGradient id="b" x1="63" x2="63" y1="1457" y2="1345.2" gradientTransform="translate(0 -1338)" gradientUnits="userSpaceOnUse"><stop offset="0" style="stop-color:#f4a223"/><stop offset=".4" style="stop-color:#f7c02b"/><stop offset=".7" style="stop-color:#fde030;stop-opacity:0"/></linearGradient><path d="M63 119c-27.9 0-58-17.5-58-55.9S35.1 7.2 63 7.2c15.5 0 29.8 5.1 40.4 14.4C114.9 31.8 121 46.2 121 63.1s-6.1 31.2-17.6 41.4A61 61 0 0 1 63 119" style="fill:url(#b)"/><path d="M110.9 29.9A57 57 0 0 1 119 60c0 16.9-6.1 31.2-17.6 41.4A61 61 0 0 1 61 116c-18 0-37-7.3-48.2-23A58 58 0 0 0 63 119c15.4 0 29.8-5.2 40.4-14.5A54 54 0 0 0 121 63.1q-.1-19.2-10.1-33.2" style="fill:#eb8f00"/><radialGradient id="c" cx="35.5" cy="72.6" r="19.4" gradientTransform="matrix(.98 0 0 .93 -3.76 10.85)" gradientUnits="userSpaceOnUse"><stop offset="0" style="stop-color:#ed7770"/><stop offset=".9" style="stop-color:#ed7770;stop-opacity:0"/></radialGradient><circle cx="31.1" cy="78.3" r="17.5" style="opacity:.8;fill:url(#c)"/><radialGradient id="d" cx="101.6" cy="72.6" r="19.4" gradientTransform="matrix(.98 0 0 .93 -3.76 10.85)" gradientUnits="userSpaceOnUse"><stop offset="0" style="stop-color:#ed7770"/><stop offset=".9" style="stop-color:#ed7770;stop-opacity:0"/></radialGradient><circle cx="95.8" cy="78.3" r="17.5" style="opacity:.8;fill:url(#d)"/><circle cx="82" cy="58.2" r="18.5" style="fill:#fff"/><circle cx="81.9" cy="58.2" r="8" style="fill:#422b0d"/><path d="M81.1 52.7c-1-.6-2.6 0-3.5 1.7s-.4 3.3.6 3.8 2.6 0 3.5-1.7c1-1.7.5-3.2-.6-3.8" style="fill:#896024"/><path d="m70 92.4-1.7.4c-6 2.7-11.3.1-11.5 0a4 4 0 0 0-5.4 1.8 4 4 0 0 0 1.8 5.4c.3.2 9 4.4 18.5 0a4 4 0 0 0-1.7-7.6" style="fill:#422b0d"/><linearGradient id="e" x1="48.2" x2=".5" y1="75.9" y2="123.9" gradientTransform="rotate(55.4 55.82 191.13)scale(-1 1)" gradientUnits="userSpaceOnUse"><stop offset="0" style="stop-color:#fff176"/><stop offset="1" style="stop-color:#ffc400"/></linearGradient><path d="M76.7 97.9c-1.5-1.9-4-6-8.8-12.2-3.4-4.3-15.8-13-19.1-17.5-1.7-2.3-3.1-4.7-2.2-6.4 3-5.8 6.9-.9 6.9-.9s-8.8-4.9-3.1-10c2.5-2.3 5-2 10.1 1.8 0 0 22.3 15.4 24.2 14 1.8-1.2-4.2-25.4-4.5-33.3-.1-4.2-.3-7.6 3.6-8.7 5.7-1.5 6.3 6.5 6.2 5.3s1.5-4.1 5.6-5c3.2-.6 4.7 3.5 5.8 9.5s6.6 28 9.2 30c0 0 1-12 6.8-16.2 2.6-2 7.2-2.7 7.8.5.3 2 .3 5.3-1.2 10.2a88 88 0 0 0-.8 22.3c.4 6.5 2 17-12.5 25-15.9 8.7-27.6-.1-34-8.4" style="fill:url(#e)"/><path d="M79.5 33.8c-.3-3.4-.5-6 1.9-8.3 2.6-2.5 5.4-2.4 6.9-1q.9 1 1.8 3.1 1.5-3.5 5.2-3.8c2.9-.5 5.3 1.6 6.3 6.2a325 325 0 0 0 8.4 29.6s0-9.3 8.7-13.4c2.3-1.1 5-1 7.2 1.2s-.5 6.3-2.2 17c-.9 5.8-.6 12.6-.6 12.6s-2.8-3.7-1.4-16.5c.5-4.9 3.8-9.9 1.4-11.7-1.6-1.2-3.1-1.4-6.1 1.4-6.1 5.6-4.6 14.7-5 15.9-.3 1.1-1.4 1.8-3.5-3.6a625 625 0 0 1-8.9-31.6c-1.3-5-3.1-5.4-5.4-4.2-2.9 1.5-2 6.2-1.6 7.8.3 1.3 3.6 18.8 5.4 24.8.4 1.3 1.4 3.3 1.2 4.2s-3.6 3-4.2-2.2c-.7-5.7-5-26.4-5-26.4s-.6-4.3-1.8-7c-.6-1.2-2.3-2.6-5.2-.4-2.4 2-1 7.7-1 7.7l4.6 28.1s.7 3.3-.7 4.6c-1.6 1.4-4.4-.7-4.4-.7S62.2 54.5 59.2 52.8c-3-1.6-4.8-3.5-7.7-1.7-.8.5-2.4 2.9.3 5.2a257 257 0 0 0 22.7 16.8c.6.4 5.2 1.7 3.3 4.8s-5-1.6-5.6-2c-7.2-5.6-15.3-12-20-14.6-3.6-2-5.8 2.1-2.4 5.9a103 103 0 0 0 9.6 9c3.9 3.3 7 6.6 8.8 8.8 4 5.3 5.9 8.3 8.6 12.3 12 14.3 24.5 13.8 38 6.3-1.7 2-25.4 19.3-42.3-7.5q-2.1-3.4-6.7-9.4c-1.5-2-4.8-5-8.3-8.3s-14-12.1-12.2-17c1.1-3.2 4-3.4 4-3.4s-4.3-5 1.5-9c3-2.2 7.7 1.1 7.7 1.1l22.1 14.2 2.2 1.3c1.6.8 1.4-1.5 1.4-2-1-5.6-4.3-27-4.6-29.7" style="fill:#eb8f00"/><radialGradient id="f" cx="58.7" cy="87.7" r="71.8" gradientTransform="rotate(-38.8 248.14 31.05)scale(1 -1)" gradientUnits="userSpaceOnUse"><stop offset=".3" style="stop-color:#fff176"/><stop offset="1" style="stop-color:#ffc400"/></radialGradient><path d="M56.8 39.6c-4.1-1.2-6.8 5.6-6.8 5.6l1.3-8c.3-2.5-.8-6.3-3.4-7.3-2.7-1-5.9 1.8-6.7 4L38 43s1.6-3-1-7.6a4 4 0 0 0-6.2-1.3q-2.1 2-2.8 4.8c-2 7-7.5 25-10.4 27-1.1.7-1.4.6-3-6-.8-4-3.4-7.5-7-9.4-2.1-1.2-5.9 1-5.6 3.6.2 1.8 2 5.3 3 9.4a97 97 0 0 1 1.7 18.8c.6 7.4 1.8 21 16 25.9 12.6 4.3 25.6-5.4 30.2-13 8.9-14.4 13.5-32 13.5-32.2.8-3.6.8-8-2-9.5-3.6-2-6 2.7-6 2.7q1.7-4.6 1.8-9.6c0-3.3-.6-6-3.4-6.9" style="fill:url(#f)"/><path d="M61.9 46.4c0-2-.1-7-4.6-8.4a6 6 0 0 0-4.6.5c.7-3.3-.3-9-5.2-10.4-1.9-.5-4.3-.1-6.4 2.6a13 13 0 0 0-2.2 4.8c-.1-.3-2-5.8-8-2.6-2.4 1.2-3.7 4.5-4.2 6.6A110 110 0 0 1 17.2 64c0-6.7-4-13.2-9-15-2-1.2-7.5 1-7 4.6.3 2.9 3.3 8.1 4 13.6.6 4.2.7 20.2 3.2 26.2l-.6-10.8c-.2-6.8-.3-15.8-1.2-19.5-.7-3.2-2.4-6.5-3-9.2-.1-1.2 1.2-3.5 4.4-2 3.3 1.4 5 4.9 6 9.6 1.3 5.2.6 6 2.1 6.2 5 .6 11.7-23.3 13.5-28.4q.6-2.4 2.3-4c2-2.2 4.6 1.2 4.6 1.2 1.5 3.2 1 3.5.2 8a119 119 0 0 1-6 19.3s.8 1 2.4-1.3a100 100 0 0 0 7-20.7S42 32.4 45 31.2c3-1.3 4 .6 4.6 2.8s.1 5.7-1.1 10.6c-2.2 8.9-6.2 21.8-6.2 21.8s.8.7 2.1-1.1c2.7-3.8 7-20.6 7-20.6.4-1.3 2.5-4.5 5-3.5 1.3.4 2.3 2 2.2 6 0 5-3.5 16.2-7 25.2 0 0 1.1.5 2.5-1.6s5-12.7 6-14c.8-1.4 1.7-2.7 3.6-2 2.5 1.2 2.5 3.8 1.6 7.7 0 .2-4.4 19-13.4 33C47.1 103 39 107.7 26.2 109c10 2 23.2-4 28.5-12.9a146 146 0 0 0 13.7-32.7c.7-3 2-9-3.5-11.5a5 5 0 0 0-3.5-.2q.5-2.5.5-5.2" style="fill:#eb8f00"/></svg>