<svg xml:space="preserve" width="16" height="16" viewBox="0 0 128 128"><path d="M45 69.5s11.8-.7 10-16.8c-1.8-16-7.6-16.3-9.9-24.3-2.2-8-2.3-16-3.3-16.6-.9-.5-7.4 4.5-7.4 4.5s-6 5-6.4 3.6c-.7-2 5-11 5.9-13 .8-1.7.5-4.7-3.4-2.4C27 6.5 6.3 23.3 6.7 36.4s16 27.7 16 27.7l9.5-9.4z" style="fill:#4f3b37"/><linearGradient id="a" x1="68.6" x2="76.9" y1="90.5" y2="115.6" gradientUnits="userSpaceOnUse"><stop offset=".2" style="stop-color:#ac8979"/><stop offset=".3" style="stop-color:#b59482"/><stop offset=".5" style="stop-color:#cdb099"/><stop offset=".7" style="stop-color:#f4ddbe"/><stop offset=".8" style="stop-color:#ffeac8"/></linearGradient><path d="M67.9 90.7S78.8 97 81.6 99l7.1 5.7s-2 5-4 6.2-4.4 1.6-4.4 1.6-3.4 3.5-5.7 3.7-4.4-1-4.4-1-3 1.1-4.4 1c-1.3 0-5.1-3-5.1-3z" style="fill:url(#a)"/><path d="M51.2 61.6s5.1.5 7.7-8c2.5-8.6 2-15.4 6.8-20.4s9.7-6.1 15-6.5c5.2-.4 25.1-1.2 30-1.5 5-.4 9.2-1.7 9.6-.7.4.8-5.5 10.8-5.5 10.8s-13.2.2-13.5 3 9.9 1.3 10 2.7c0 2-8.6 13-11.7 16-3 3.2-5.6 3.5-6.7 5.1s-5.5 15.4-10.8 20.3-12.2 5.3-12.2 5.3 4 5.6 2.8 10.4a42 42 0 0 1-6.5 14.4c-2 2.3-5.1 4.4-8.3 2.1-3.5-2.5-3.3-7.6-2.4-10.7s.4-5.1.4-5.1-5 5.2-8 7.8c-3.2 2.7-6 7.2-10.2 2.2-4.5-5.6.4-8.8 2.3-11.3l2.5-3.4-6.7-14.3z" style="fill:#70534c"/><path d="M24.7 53c-2.1 2-7.5 7.5-.3 13.7s7.4 9.9 9.3 12.5 3.4 5.1 4.6 6.4 4.3 3.9 5.3 3.6-1-7.8-.6-8.2 6 3.4 6.9 2.8c.8-.6-1-7.8-.6-8.1.4-.4 5.3 3 6 2.4.9-.7-2.8-15.7-3.2-16.4a102 102 0 0 0-9.7-7.2c-3.9-2.7-5.5-3.9-9.2-4.4a12 12 0 0 0-8.6 2.8" style="fill:#ffeac8"/><path d="M23.7 75.8c.4-1.1.9-2.3 3.6-4.3s7-5 7.2-6c.1-1-5.7-.3-7.5-.5-1.8-.1-3.8-.4-4.9-1.3-1-.8-1-1.6-1-1.6s-4.3 3-4.8 6.4q-.7 5.6 3.2 8.3c4 2.7 3.6 2.3 4.3 2 .8-.5-.1-3-.1-3" style="fill:#ffb903"/><path d="M21.9 74.5a8 8 0 0 1 2.6-5.2c1.8-1.8 5-4.3 5.9-4.3h2.4s-.7 1.4-2 2.2a41 41 0 0 0-4.8 3.9c-2.1 1.9-2.3 4.6-2.3 4.6s.8 2.2.2 3c-.6.6-2.2-3.2-2-4.2" style="fill:#ff8e01"/><path d="M29 61.3c0 .6.6 2 2.4 1.5 1.6-.3 2.7-2.4 2.2-3.8-.4-1.2-1.4-1.5-2-1s-2.8 1.8-2.6 3.3" style="fill:#302f2f"/><path d="M80 111.3c-.3.2-1.9 3-4.8 3.8-3 .7-4.2-.8-4.8-.8s-2.7 1.3-4.6 1.1c-1.5-.2-4-2.3-4-2.3l-1 1.7s2.4 2.5 5 2.7c2.7.1 4.4-1 4.4-1s2.7 1.3 5.4.7c3.9-.7 5.3-4 5.3-4s3.2-.4 5.3-2 4-5.8 2.6-6.4-2.1 2.8-3.8 4.2-4.4 2-5 2.3" style="fill:#70534c"/><path d="M25.9 111.5c-.5-1.2 1.6-6.7 7.2-6.5s8.2 4.4 7.7 8.5-3.2 5.4-3.9 5-1.3-3.5-1.3-3.5l-2.9-3.6s-5.7 2.4-6.8 0m21.8 6.5c-.8-1.6.8-4.8 3.1-6 3-1.5 5-1.6 8.3 1 4.4 3.6 1 9.9-1 10.7-2.7 1.1-2 0-2-1.4a21 21 0 0 0-1.2-4.8z" style="fill:#ffb903"/><path d="M37 112.5c.3 1.4.7 5.9-.3 5.8-.7 0-1.5-2.6-1.9-3.6s-2.7-2.4-3.6-2.5c-1 0-4 .6-4 0-.3-1.1 3.4-2.9 4.9-2.8 1.2 0 4.4 1.5 4.8 3m10.7 5.2c0 1.1 3 .4 4.1.5 1.2.1 2.7.7 3.4 2 .3.7.6 3.8 1.2 3.9 1.2 0 1.6-4.2 1.4-4.5-.4-1.2-2-4-5.3-4.3-1.6-.2-4.8 1.9-4.8 2.4" style="fill:#f4821e"/></svg>