<svg xml:space="preserve" width="16" height="16" viewBox="0 0 128 128"><path d="M70.5 94c0 1.5.5 5.2.5 6.7s.9 4.5 5 5c6.3.6 7.8-2.7 8.6-6.5 1-5.2.4-11.4.4-11.4z" style="fill:#ffa8a7"/><path d="M119.8 19.7c1.8-.4 4.1.1 4.2-1.7.1-2.1-2.6-3.5-5.9-2.6-3.3 1-4.3 3.8-4.3 3.8s-3.7-1.8-7 .8c-3.6 3-4 9-4 9l5.3 5s0-5.8.9-7.9c1-2.7 2.8-2.2 2.8-2.2s-2 5.4.8 8.7c3.2 4 10.5 2.2 9.4-4.4-.6-4-4.4-6.4-4.4-6.4s.9-1.9 2.2-2.2M117 30.8c-3 .4-2-4.9-1.5-6.4 2.4 1 4 6.1 1.5 6.4m-71-5.9c18.2-7.4 54-9.1 66.1 10.2 12.3 19.6 3.8 32.1 2.4 35.7-2 5-3.8 11.5-4.2 14.9-.5 4-1.1 14.2-1.5 16.3-.5 2.1-4.1 5.2-8 5-3.7-.3-6.8-2.7-7.1-5s.8-7.9-1.8-9.8c-2.7-2-10.7-.7-15.5 1.8S49 108.3 23.7 97.2 4.3 62 10.5 55s5.5-8.5 5.5-8.5-6.2 1.6-3.8-3.3 8.6-13.1 9.7-13.9c1.1-.7 4.8-1.8 6.8-.5s2 3 2 3 3.2-2 15.3-7m-25.2 69s.2 9.9.4 12.3.5 6.3.8 8.2q.6 3.1 5.5 3.5c4.7.3 7-1.7 7.3-3.4.5-1.7.9-16.9.9-16.9zm26.3 4.4.1 9.9c.2 3.8.2 8.1.6 9.2.7 2 4 3 7 3.1 3.3.2 5.5-1.4 6.8-2.8.7-.7.7-4.2.8-9.3l.3-11.6z" style="fill:#ffd2b1"/><path d="M62.8 43.6c-.7-1.7-4.6 0-5.5 2.4-1.2 3.1 0 6.1 1.8 9.5 1.2 2.3 6.7 9.5 13.1 8 7.4-1.8 5.4-13.3 5-14.7-.2-1.3-1.1-3-2.6-2.8-1.8.3-1 3.3-.9 5.5.1 2.4.2 6.5-2.7 7.2-3.1.7-5.3-1.4-7-4.1-1.7-2.8-3.7-4.8-3.1-7.4.3-1.5 2.5-2.4 2-3.6m-38.1-3.1c-1.4-.6-3 1.6-4.7 2.9s-4.5 3-5.6 1.6c-1.2-1.5 2.5-5.3 4.7-9 1.9-3.2 3.6-6.9 6-7 3.7-.3.9-2-1.8-1.5-2 .4-4.7 2.2-6.2 5.2s-8.6 10.6-6.3 14c2.7 4 8.7 2.2 11.3 0 2.6-2 4.3-5.6 2.6-6.2" style="fill:#e6508f"/><path d="M29.5 69.2c-5.2-1-13.4.5-14 6.3-.5 4.5 2.5 10 12 12s14-1.5 14.5-6.6-4.9-10.3-12.6-11.7" style="fill:#ff7d86"/><path d="M26.2 77.3c.2 2.2-.4 3.9-1.8 4s-3.2-1.5-3.4-3.7.4-4.2 2.1-4.2c1.4 0 3 1.6 3.1 3.9" style="fill:#2d2d2b"/><ellipse cx="32.4" cy="79" rx="3.9" ry="2.6" style="fill:#2d2d2b" transform="rotate(-84.6 32.35 78.96)"/><ellipse cx="52.6" cy="66.2" rx="4.8" ry="4.1" style="fill:#2d2d2b" transform="rotate(-84.3 52.65 66.24)"/><ellipse cx="22.8" cy="60.2" rx="4.8" ry="4.2" style="fill:#2d2d2b" transform="rotate(-84.3 22.84 60.2)"/></svg>