<svg xml:space="preserve" width="16" height="16" viewBox="0 0 128 128"><path d="M97.7 95.3a51 51 0 0 1-22.6-6q-1.1-.5-2-1.3-.5-1-.7-2c-.9-2.5-3-2.7-3.5-3-1.3-.6-3.8-2.4-3-4.1.4-1.1 7.7-4.5 6.2-10.8-.7-3-3-1.7-10.2-4.3a17 17 0 0 1-7.6-6.2C47.7 48.8 47 40 50 29.7Q53.9 17.2 63 8c1.6-1.5.3-4.1-1.8-3.9a60.2 60.2 0 1 0 58.2 91.4c1.2-1.8-.7-4-2.7-3.3a51 51 0 0 1-19.1 3.2m.1-.1a51 51 0 0 1-22.6-6q-1.1-.5-2-1.3-.5-1-.7-2c-.9-2.5-3-2.7-3.5-3-1.3-.6-3.8-2.4-3-4.1.4-1.1 7.7-4.5 6.2-10.8-.7-3-3-1.7-10.2-4.3a17 17 0 0 1-7.6-6.2C47.7 48.8 47 40 50 29.7Q53.9 17.2 63 8c1.6-1.5.3-4.1-1.8-3.9a60.2 60.2 0 1 0 58.2 91.4c1.2-1.8-.7-4-2.7-3.3a51 51 0 0 1-19.1 3.2" style="fill:#ffe558"/><path d="M111.3 103.6a67 67 0 0 1-44.5 15.3 60.4 60.4 0 0 1-56.6-57.2 60 60 0 0 1 4.7-25.6 60.4 60.4 0 0 0 104.7 59.4q.4-.9.2-1.8-3.4 5.5-8.5 9.9" style="fill:#fbc02d"/><radialGradient id="a" cx="44.6" cy="28.7" r="40.9" gradientTransform="matrix(1 0 0 1.055 0 -1.59)" gradientUnits="userSpaceOnUse"><stop offset="0" style="stop-color:#fff7b3"/><stop offset="1" style="stop-color:#fff7b2;stop-opacity:0"/></radialGradient><path d="M61.3 4S49 14.2 44.7 26.5C41 36.6 38.4 57.3 62.4 65.8L45.2 82.6c-.6-.5 0-6.9-10.8-12.2-3.3-1.6-10.7 1.5-14.2.2-16.7-5.9-7.7-29.9-6.5-32C31.4 4.5 61.3 4 61.3 4" style="fill:url(#a)"/><path d="M40.7 69c3.5.7 6.3-2.2 6.7-5.5.3-2.6-.8-5-2-6-5.1-4.4-15 0-14.8 8.7q0 1 .7 1.5c.3-.7 1-4 4-5.4h.7c.3.2-.3 5.9 4.7 6.8m21.4 24.1c-6.5 0-10-2.9-11.6-4.9-.5-.7-.3-1.7.4-2.2q.6-.5 1.6 0a18 18 0 0 0 16.8.2c1.1-.5 1.9-2 2.6-1.2.8.7.5 2.5-.3 3.6-1.2 1.8-3.8 4.5-9.5 4.5" style="fill:#5d4037"/><path d="M65.8 79.8v-1c.5-1 7.8-4.4 6.3-10.7q0-.5-.3-.8a10 10 0 0 1-4.8 6.5l-2.2 1.3q-1.1.8-1.2 2.1 0 1.6 1.7 2.5z" style="fill:#f2a600"/><radialGradient id="b" cx="-2352.9" cy="72.8" r="16.1" gradientTransform="rotate(23 1159 -5612.13)scale(-1 .8)" gradientUnits="userSpaceOnUse"><stop offset="0" style="stop-color:#fbc02d"/><stop offset="1" style="stop-color:#fbc02d;stop-opacity:0"/></radialGradient><path d="M45.2 82.6c-1.6 3.7-7.7 4.7-13.6 2.3-6-2.5-9.5-7.5-8-11.3 1.6-3.7 7.7-4.8 13.6-2.3 6 2.5 9.5 7.5 8 11.3" style="fill:url(#b)"/></svg>