<svg xml:space="preserve" width="16" height="16" viewBox="0 0 128 128"><path d="M116 4H12a8 8 0 0 0-8 8v104a8 8 0 0 0 8 8h104a8 8 0 0 0 8-8V12a8 8 0 0 0-8-8" style="fill:#427687"/><path d="M121.7 6.3A8 8 0 0 0 116 4H12a8 8 0 0 0-8 8v104q0 3.3 2.3 5.7l16.8-16.8h76A6 6 0 0 0 105 99V23z" style="fill:#8cafbf"/><path d="M39.7 12.9c0-2.3-1.6-3-10.8-2.7-7.7.3-11.5 1.2-13.8 4s-2.9 8.5-3 15.3c0 4.8 0 9.3 2.5 9.3 3.4 0 3.4-7.9 6.2-12.3 5.4-8.7 18.9-10.6 18.9-13.6" style="opacity:.5;fill:#b4e1ed"/><path d="M64.9 79.2h-7q-1.4 0-1.8 1.5L53 97.3q-.5 1.4-1.8 1.5h-4.3a2 2 0 0 1-1.8-2.1L48 81.3a2 2 0 0 0-1.8-2.1h-7q-1.6-.1-1.8-1.8v-3.9q.1-1.6 1.8-1.8h9.1q1.4 0 1.8-1.5l2.1-11.4a2 2 0 0 0-1.8-2.1h-7.6q-1.6-.1-1.8-1.8V51q.1-1.6 1.8-1.8h9.7q1.4 0 1.8-1.5l3.2-16.9q.5-1.4 1.8-1.5h4.3a2 2 0 0 1 1.8 2.1l-3 15.6a2 2 0 0 0 1.8 2.1h7.1q1.4 0 1.8-1.5l3.2-16.9q.4-1.4 1.8-1.5h4.3a2 2 0 0 1 1.8 2.1L81.1 47a2 2 0 0 0 1.8 2.1h5.9q1.6.1 1.8 1.8v3.9q-.2 1.6-1.8 1.8h-8q-1.4 0-1.8 1.5l-2.1 11.4a2 2 0 0 0 1.8 2.1h6.6q1.6.2 1.8 1.8v3.9q-.2 1.6-1.8 1.8h-8.7q-1.4 0-1.8 1.5l-3.1 16.6q-.5 1.4-1.8 1.5h-4.3a2 2 0 0 1-1.8-2.1l2.8-15.3a1.7 1.7 0 0 0-1.7-2.1M60 71.6h7q1.4 0 1.8-1.5l2.1-11.4a2 2 0 0 0-1.8-2.1h-7q-1.4 0-1.8 1.5l-2.1 11.4a2 2 0 0 0 1.8 2.1" style="fill:#fafafa"/></svg>