<svg xml:space="preserve" width="16" height="16" viewBox="0 0 128 128"><path d="m60.2 96.6-.3-42.9 5.6.3.3 44.9z" style="fill:#6aa5ad"/><path d="M47.5 104.6q-5 0-4.6 7c.5 4.6 3.2 11.6 12.6 11.4 11-.2 11.8-7.8 11.6-16.2-.1-5.8 0-10.5-.3-10.7s-7.9-.4-8.3 0-.1 9.6-.2 11.8.2 6.6-3.8 6.5c-3.2 0-3.6-2.7-3.6-4s.8-5.6-3.4-5.8" style="fill:#3f7377"/><path d="m52.1 36.2 10.4-18.7S42 14.9 23.7 29C.5 47 4.2 66.9 4.2 66.9s8.9-8.5 16-7.8 16.4 9.4 16.4 9.4z" style="fill:#937ef3"/><path d="m65 23.2-1.4-5.7s20.8-.3 36.4 10c26.7 17.4 23.8 37 23.8 37s-5.8-8-18.6-7.5-17.4 12-17.4 12z" style="fill:#5547f4"/><path d="M87.9 68.1s-1.2-19.1-5.6-29C74.2 21.3 63 17.9 63 17.9s-13.4 6.5-20.5 22.8-5.8 27.8-5.8 27.8S47.5 56 63.4 57.7 87.9 68 87.9 68" style="fill:#6e62ed"/><path d="M59.1 18.2V8.8C59 6.4 61 4.9 62.6 5 65.2 5 66 7 66 8.5v9.7q-.1 1.4-3.5 1.6c-1.5 0-3.2-.8-3.4-1.6" style="fill:#6ca4ab"/><path d="M87.8 70.6c1.6-.1 8.2-11.4 18.5-11.3 14 .2 15.7 7.4 17.2 6.7 1.6-.9-.8-3.9-2.9-6-3-3.1-7.7-5-15.2-4.5-10.8.7-17.7 10.3-17.7 10.3s-9.2-10-25.3-10c-15.6 0-25.7 11-25.7 11s-5.1-9-17.5-9.2c-11-.2-15.7 8.6-15 9.4.8.8 6.7-6.2 14.9-5.9 11.2.5 15.2 10 17.3 10S47 59.8 62.6 60c16.7.2 23.7 10.6 25.2 10.5" style="fill:#004dae"/></svg>