<svg xml:space="preserve" width="16" height="16" viewBox="0 0 128 128"><path d="M64.6 4.1c-41 0-40.7 38-40.7 38.5 0 24.6 1.9 59.3 11.7 73 3.9 5.4 11.4 5.7 11.4 5.7h34s7.5-.3 11.4-5.7c9.8-13.7 11.7-48.4 11.7-73 0-.6 1.5-38.5-39.5-38.5" style="fill:#ffe13b"/><radialGradient id="a" cx="64" cy="62.7" r="50.2" gradientUnits="userSpaceOnUse"><stop offset=".7" style="stop-color:#ffee58;stop-opacity:0"/><stop offset="1" style="stop-color:#ffee58"/></radialGradient><path d="M64.6 4.1c-41 0-40.7 38-40.7 38.5 0 24.6 1.9 59.3 11.7 73 3.9 5.4 11.4 5.7 11.4 5.7h34s7.5-.3 11.4-5.7c9.8-13.7 11.7-48.4 11.7-73 0-.6 1.5-38.5-39.5-38.5" style="fill:url(#a)"/><linearGradient id="b" x1="64" x2="64" y1="94.2" y2="122.5" gradientUnits="userSpaceOnUse"><stop offset="0" style="stop-color:#651fff"/><stop offset=".7" style="stop-color:#5914f2"/><stop offset="1" style="stop-color:#530eeb"/></linearGradient><path d="M64.1 94.5c-25.7 0-51.5 7.5-51.5 25.4v4h103v-4c0-16.9-25.6-25.5-51.4-25.5" style="fill:url(#b)"/><path d="M64 90h-9v10c0 4.6 3.6 8.2 8.2 8.2h1.6c4.6 0 8.3-3.6 8.3-8.1V90z" style="fill:#c48e6a"/><path d="M63.8 15c-17.2 0-33.1 12.7-33.1 39.8a40 40 0 0 0 25.2 38.8 24 24 0 0 0 8 1.5q3.5 0 7.8-1.4A40 40 0 0 0 97 54.8C97 27.7 81 15 63.8 15" style="fill:#e0bb95"/><path d="M67.8 68h-7.6q-1 .5-.7 1.7a5 5 0 0 0 4.5 2.6 5 5 0 0 0 4.5-2.6q.4-1.2-.7-1.7" style="fill:#c48e6a"/><path d="M54.8 49.8c-1-1.2-3-3-7.2-3s-6.3 1.8-7.3 3q-.5 1 0 1.6t2 .4c.8-.3 2.5-1.2 5.3-1.2s4.5.9 5.3 1.2q1.4.3 2-.4.4-.6-.1-1.6m32.9 0c-1-1.2-3.1-3-7.3-3s-6.3 1.8-7.2 3q-.5 1 0 1.6t1.9.4c.8-.3 2.5-1.2 5.3-1.2s4.5.9 5.4 1.2q1.3.3 1.9-.4t0-1.6" style="fill:#ab872f"/><ellipse cx="80.4" cy="58.9" rx="4.9" ry="5" style="fill:#5d4037"/><ellipse cx="47.6" cy="58.9" rx="4.9" ry="5" style="fill:#5d4037"/><path d="M72.3 76.1a25 25 0 0 1-16.6 0c-1.8-1-3.6.6-2.9 2.3s6.4 5.3 11.2 5.3 10.5-3.7 11.2-5.4c.8-1.6-1-3.2-2.9-2.2" style="fill:#6d4c41"/><path d="M64.6 4.1c-41 0-40.7 38-40.7 38.5 0 7.8.2 16.6.7 25.4h6.8c-.1-3 2-21 8-22.4 22.4-5 35-16.9 35-16.9C77.7 36 88 43 91.7 45.6c3 2.2 4 18.5 4 22.4h7.6v-.2c.6-8.8.8-17.5.8-25.2 0-.6 1.5-38.5-39.5-38.5" style="fill:#ffe13b"/><radialGradient id="c" cx="67.2" cy="66.7" r="55.3" gradientTransform="matrix(1 0 0 1.183 0 -12.2)" gradientUnits="userSpaceOnUse"><stop offset=".7" style="stop-color:#ffee58;stop-opacity:0"/><stop offset="1" style="stop-color:#ffee58"/></radialGradient><path d="M64.6 4.1c-41 0-40.7 38-40.7 38.5 0 7.8.2 16.6.7 25.4h6.8c-.1-3 2-21 8-22.4 22.4-5 35-16.9 35-16.9C77.7 36 88 43 91.7 45.6c3 2.2 4 18.5 4 22.4h7.6v-.2c.6-8.8.8-17.5.8-25.2 0-.6 1.5-38.5-39.5-38.5" style="fill:url(#c)"/></svg>