<svg xml:space="preserve" width="16" height="16" viewBox="0 0 128 128"><path d="M119.7 102H8.4A4.3 4.3 0 0 1 4 97.7V30.3c0-2.4 2-4.4 4.4-4.4h111.2c2.4 0 4.4 2 4.4 4.4v67.4c0 2.4-2 4.4-4.3 4.4" style="fill:#1565c0"/><path d="M119.8 90H8.2A4 4 0 0 1 4 85.6V30.3c0-2.4 2-4.4 4.4-4.4h111.2c2.5 0 4.4 2 4.4 4.4v55.4c0 2.3-1.9 4.2-4.2 4.2" style="fill:#29b6f6"/><circle cx="84.8" cy="57.9" r="18.5" style="opacity:.5;fill:#1565c0"/><path d="M106.5 33.1c.8 5.4 5 9.7 10.5 10.5v28.6c-5.4.8-9.7 5.1-10.5 10.5h-85c-1.2-5-5.3-9-10.5-9.9V44.3c5.6-.9 10-5.5 10.6-11.2zm1.8-2H19.7v.7c0 5.9-4.8 10.7-10.7 10.7v32.2c5.7 0 10.3 4.4 10.7 10h88.6c0-5.9 4.8-10.7 10.7-10.7V41.8c-6 0-10.7-4.8-10.7-10.7" style="fill:#1565c0"/><path d="M53 25.9h22v76.2H53z" style="fill:#ffecb3"/><path d="M53 89.9h22v12.2H53z" style="fill:#ffc06c"/><path d="M42 62.4h-8q-.5.1-.5.5.2 4.2 2.2 6.6a8 8 0 0 0 6 2.5q2.3 0 4.2-.6a1 1 0 0 1 1.1.8l.2 1.9q.1.9-.7 1-2.4.6-4.8.6-6 0-9.2-3.5a14 14 0 0 1-3.5-9.3q0-.5-.5-.5h-3.2l-.6-.6v-1.7q0-.6.6-.6h3.2q.4 0 .5-.5v-2.3q-.1-.4-.5-.5h-3.2l-.6-.5v-1.8q0-.6.6-.6h3.2q.5 0 .5-.5.3-6 3.5-9 3.4-3.5 9.1-3.5 2.2 0 4.9.6.8.1.7 1l-.2 1.8q-.2 1-1.2.8-2-.5-4.1-.5-3.9 0-6 2.4-2 2.2-2.2 6.4 0 .4.5.5h8q.5 0 .6.6v1.8q0 .5-.6.5h-8q-.5.1-.5.5V59q0 .5.5.5h8q.5 0 .6.5v1.8q0 .6-.6.6" style="fill:#fff"/></svg>