<svg xml:space="preserve" width="16" height="16" viewBox="0 0 128 128"><path d="M28 15c-11.2 4.2-16 1-16 1 0 11 5 11 5 11S4 37.9 4 56c0 21 10.5 28.2 10.5 28.2l1.4 1.8.3 2.4c0 5.4-.2 11.6 5.8 17.6s13.2 6.2 16 7c6.2 1.7 40 1 47.2.6q13.3-.8 22-9.4c7.5-7.5 4.4-17.5 4.8-18.6S125 70 124 52c-2-33-26-32-26-32S92 4 68 4c-28 0-36 9.5-40 11" style="fill:#3c2c23"/><radialGradient id="a" cx="628.7" cy="34" r="33.7" gradientTransform="rotate(151.4 345.85 -11.84)scale(1 .65)" gradientUnits="userSpaceOnUse"><stop offset=".7" style="stop-color:#554138;stop-opacity:0"/><stop offset="1" style="stop-color:#554138"/></radialGradient><path d="M64 114.1c11 0 21.8.3 25.1-.7 2.9-.8 11-2.4 17.9-9a18 18 0 0 0 4.5-17.9c-.1-.7-47.5 27.6-47.5 27.6" style="fill:url(#a)"/><radialGradient id="b" cx="46.8" cy="34.4" r="34" gradientTransform="rotate(208.6 9.1 46.04)scale(-1 .65)" gradientUnits="userSpaceOnUse"><stop offset=".7" style="stop-color:#554138;stop-opacity:0"/><stop offset="1" style="stop-color:#554138"/></radialGradient><path d="M64 114.1c-11 0-22.6-.2-26-1.1-2.8-.8-10-1-16-7s-5.9-12.2-5.8-17.6l-.3-2.3.1-.1z" style="fill:url(#b)"/><radialGradient id="c" cx="26.6" cy="80.1" r="34.3" gradientTransform="rotate(94.3 8.78 82.03)scale(-1 .833)" gradientUnits="userSpaceOnUse"><stop offset=".7" style="stop-color:#554138;stop-opacity:0"/><stop offset="1" style="stop-color:#554138"/></radialGradient><path d="M11.6 81.3S21 68 24 60.2c.5-1.6 2.4-22.5 1.5-25.2-1.7-5-3.7-11.6-8.5-8A39 39 0 0 0 4 53.8a40 40 0 0 0 7.6 27.5" style="fill:url(#c)"/><path d="M101.8 68H26.3c-8 0-14.7 6.3-14.7 14.1s6.6 14.3 14.7 14.3h75.5c8.1 0 14.8-6.4 14.8-14.3S109.9 68 101.8 68" style="fill:#7a4c32"/><path d="M63.8 9.2c-23.9 0-46 25-46 61.2 0 35.8 22.8 53.6 46 53.6s46-17.8 46-53.6c0-36.1-22.2-61.2-46-61.2" style="fill:#a56c43"/><path d="M68.9 87.1H58.7q-1.3.7-.9 2.2c.4 1.5 2.3 3.5 6 3.5s5.6-2.6 6-3.5q.6-1.5-1-2.2" style="fill:#875334"/><path d="m32.5 68.4.5-.7.3-.3.5-.4.5-.5.7-.5.7-.4.8-.5.8-.4 1-.3 2-.5 2.1-.2 2.2.2 2 .5 1.8.7.8.5.7.4.6.5.5.4.5.4q0 .3.3.4l.6.8a2 2 0 0 1-.5 2.8 2 2 0 0 1-1.8.3l-.4-.1-.7-.3-.3-.1-.4-.1-1-.4-.4-.1-.6-.2H46l-.3-.1-.6-.1-1.3-.2H41l-1.3.2h-.6l-.3.2h-.3l-.6.2-.5.1-.5.2-.3.1-.4.1-.4.2-.7.4a2.1 2.1 0 0 1-2.6-3.2m60.1 3.2-.8-.4-.4-.2h-.3l-.4-.2-.5-.2-.5-.1-.6-.2h-.3l-.3-.1-.6-.2-1.3-.1h-2.7l-1.4.1-.6.2h-.3l-.3.1-.5.2-.6.1-.9.4H79l-.3.2-.6.3-.4.1a2 2 0 0 1-2.6-1.3q-.3-1 .2-1.8l.6-.8.4-.4.4-.4.6-.5.6-.4.7-.5.8-.4.8-.4 1-.3 2-.5 2.1-.2 2.2.2q1 .1 2 .5l1.8.7.8.4.7.5.6.5.6.5.4.4.3.3.5.7c.7 1 .4 2.3-.5 3a2 2 0 0 1-2 .2" style="fill:#42312c"/><ellipse cx="42" cy="80.3" rx="6.5" ry="6.7" style="fill:#42312c"/><ellipse cx="85.7" cy="80.3" rx="6.5" ry="6.7" style="fill:#42312c"/><path d="M75 98a33 33 0 0 1-22 0c-2.5-1.5-5 .7-4 3 1 2 8.5 7 15 7s13.9-5 14.9-7c1-2.3-1.5-4.5-3.9-3" style="fill:#473530"/><path d="M64 7C44.2 7 29 18.3 21.7 36.5c-2.9 7.3-5.3 15-5.3 22.9A136 136 0 0 0 19 85c7-9 5-18 5-18 9-12 35.8-21.6 36-22l-5.4 10.8c-.7 1.4.5 3 2 2.7C82 53 93.2 43.2 93.2 43.2S94 58 105 68c0 0 0 8 3 17 0 0 5-18 1.6-37.3a53 53 0 0 0-20-32.7A43 43 0 0 0 64 7" style="fill:#3c2c23"/><radialGradient id="d" cx="172.2" cy="61.1" r="46.5" gradientTransform="matrix(-.938 -.394 -.218 .528 236.46 66.99)" gradientUnits="userSpaceOnUse"><stop offset=".7" style="stop-color:#554138;stop-opacity:0"/><stop offset="1" style="stop-color:#554138"/></radialGradient><path d="M81.2 6c10 3.2 16 9.5 18 17.4.5 2.3 0 23.7-41.3-1-15.4-9-11.2-14.8-9.4-15.4 7-2.5 19.8-5.2 32.7-1" style="fill:url(#d)"/><radialGradient id="e" cx="161.3" cy="92.2" r="48.1" gradientTransform="rotate(58.4 9.21 -61.73)scale(1 -.742)" gradientUnits="userSpaceOnUse"><stop offset=".7" style="stop-color:#554138;stop-opacity:0"/><stop offset="1" style="stop-color:#554138"/></radialGradient><path d="M116.2 79.2S131 58.4 120 35a24 24 0 0 0-22-15s1.6 3.8 1 6.8c-1 5-5.1 6.4-5.1 6.4 16.4 10 10.8 35.5 22.3 46" style="fill:url(#e)"/><radialGradient id="f" cx="183.6" cy="211.4" r="8.7" gradientTransform="rotate(184.6 -88.02 127.37)scale(-1 1.186)" gradientUnits="userSpaceOnUse"><stop offset=".6" style="stop-color:#554138"/><stop offset="1" style="stop-color:#554138;stop-opacity:0"/></radialGradient><path d="M27.3 15.3C16.7 19 12 16 12 16c-.3 1.2.4 8.7 7 6.4 2.7-1 8.3-6.8 8.3-7.1" style="fill:url(#f)"/><radialGradient id="g" cx="340.3" cy="96" r="7.2" gradientTransform="rotate(-51.6 362 264.9)scale(1 -1.587)" gradientUnits="userSpaceOnUse"><stop offset=".7" style="stop-color:#554138;stop-opacity:0"/><stop offset="1" style="stop-color:#554138"/></radialGradient><path d="M12 16c0 1.2 0 10.2 5 11l7.6-3.3A14 14 0 0 1 12 16" style="fill:url(#g)"/></svg>