<svg xml:space="preserve" width="16" height="16" viewBox="0 0 128 128"><path d="M110.8 23.1 81.7 63.5q-.6 1.1 0 2.2l29.1 42.3c1.2 1.8-1 3.9-2.8 2.8L65.1 82.2q-1.1-.6-2.2 0L20 110.8c-1.8 1.2-3.9-1-2.8-2.8l29.1-42.3q.6-1.1 0-2.2L17.2 23.1c-1.2-1.8 1-3.9 2.8-2.8l42.9 26.6q1.1.6 2.2 0L108 20.3c1.8-1.1 3.9 1 2.8 2.8" style="fill:#f77e00"/><path d="m66 5.6 8.4 46.5q.4 1.3 1.5 1.5l46.5 8.4c2.1.5 2.1 3.5 0 3.9l-46.6 8.4q-1.3.4-1.5 1.5L66 122.4c-.4 2.1-3.5 2.1-3.9 0l-8.4-46.6q-.4-1.3-1.5-1.5L5.6 66c-2.1-.4-2.1-3.5 0-3.9l46.5-8.4q1.3-.4 1.5-1.5L62 5.6c.5-2.1 3.5-2.1 4 0" style="fill:#ff9800"/><path d="M52.7 57c-2.3 1.5-6.4 1.5-6.4 3.2 0 1.3 2.4 1.3 4.8 1.3q5.4.1 7.9-1.6c1.4-1.1 1.9-3 2-7 .2-4.7-.2-5.6-1.4-5.6-1.5 0-2.5 7-7 9.7" style="opacity:.75;fill:#ffbd52"/></svg>