<svg xml:space="preserve" width="16" height="16" viewBox="0 0 128 128"><path d="m98.5 98.6-26.2-5.7.4-1.7L99 96.6zM72 108.3l-.2-1.7 28.1-5.8.4 2z" style="fill:#b9baba"/><path d="M70.4 91.1c-5.3-.2-9.2 5.2-8.7 9.6a8.3 8.3 0 0 0 8.9 7.7c4.8 0 8.1-3.4 8.2-8.5s-2.6-8.5-8.4-8.8m2.5 12.8a5 5 0 0 1-6.5-2c-1.2-2.3.2-5.6 2.6-6.4 2.2-.8 4.5.2 5.6 2 1.3 2 .8 5.1-1.7 6.4" style="fill:#858587"/><path d="M94.8 87.6h17.4v1H94.8z" style="fill:#b9baba" transform="rotate(-77.4 103.48 88.1)"/><path d="M101.4 98.4 113 83.7l.8.6-9.2 11.5 13.8-6.1.4.9zm18.4 8.4-18.2-7 19-3 .2 1-15.4 2.5 14.7 5.6zM99.4 96l-3-16.4 1-.2 3 16.4z" style="fill:#b9baba"/><path d="M91.5 82.8h1v16.9h-1z" style="fill:#b9baba" transform="rotate(-40.8 92.04 91.31)"/><path d="m85.2 113.5-.6-.8.3.4-.3-.3 13-13.2.7.7z" style="fill:#b9baba"/><path d="M99.6 101.9h1v18.7h-1z" style="fill:#b9baba" transform="rotate(-7.8 100.17 111.26)"/><path d="m92.8 119.4-.9-.5 9.2-16.8 14.8 11.1-.6.8-13.9-10.4z" style="fill:#b9baba"/><path d="M105.8 100.7h1V119h-1z" style="fill:#b9baba" transform="rotate(-21.3 106.36 109.83)"/><ellipse cx="100.7" cy="99.5" rx="4.1" ry="4" style="fill:#c9c8c8"/><path d="M100.2 75.1c-13.9.2-24 10.5-24.4 24.2a24.4 24.4 0 0 0 23.8 25c14.9.4 25.8-11 25.5-24.7A24.6 24.6 0 0 0 100 75m-.5 45.5A21 21 0 0 1 79 99.1c.3-11.8 9-20.6 21-20.8s21 9.6 21.3 21a21 21 0 0 1-21.8 21.2" style="fill:#484d50"/><path d="M100.3 77.9a21.4 21.4 0 0 0-21.6 21.4 21.6 21.6 0 0 0 21 22.1c13.2.4 22.9-9.7 22.6-21.9a22 22 0 0 0-22-21.6m-.6 41.7a19.4 19.4 0 0 1-19-20.1c.4-11 8-19 19.3-19.2a19.6 19.6 0 1 1-.3 39.3" style="fill:#c9c9c9"/><path d="M16.5 110.1h20.2v1.1H16.5z" style="fill:#b9baba" transform="rotate(-77.7 26.62 110.62)"/><path d="M28.6 95.7h18.7v1.1H28.6z" style="fill:#b9baba" transform="rotate(-21 37.99 96.26)"/><path d="M41.2 115 28 98.6l-4.7-19.1 1-.3L29 98.1l13 16.2zM27 98.6l-1-.5 6.3-18.3 1 .3z" style="fill:#b9baba"/><path d="M25.5 91.9h19.9V93H25.5z" style="fill:#b9baba" transform="rotate(-43.2 35.44 92.42)"/><path d="M17.3 83.5h1.1v19h-1.1z" style="fill:#b9baba" transform="rotate(-60.4 17.84 92.99)"/><path d="m17 117.8-1-.5 8.6-17.2-18-4.2.2-1.1 19.4 4.5zM6.8 105.3l-.3-1.1L26 98.7 15.8 82.5l1-.6 10.9 17.4zm4 8-.6-1 17-11 19.3 5-.2 1-19-4.7z" style="fill:#b9baba"/><path d="M29.6 101h1.1v19.4h-1.1z" style="fill:#b9baba" transform="rotate(-23.4 30.1 110.71)"/><path d="M38.6 90.2h1.1v17.2h-1.1z" style="fill:#b9baba" transform="rotate(-84 39.12 98.81)"/><path d="M27.3 75.2A24 24 0 0 0 2.9 99.3a24.4 24.4 0 0 0 23.8 25c14.8.5 25.8-11 25.5-24.7a24.6 24.6 0 0 0-25-24.4m-.6 45.4A21 21 0 0 1 6.4 99.2c.3-11.7 9-20.6 21-20.7s21 9.6 21.2 21c.3 11.7-9 21.5-21.7 21.1" style="fill:#484d50"/><path d="M27.4 78A21.4 21.4 0 0 0 5.8 99.4a21.6 21.6 0 0 0 21 22c13.2.5 22.9-9.7 22.6-21.8a22 22 0 0 0-22-21.6m-.6 41.7a19.4 19.4 0 0 1-19-20.2c.4-11 8-19 19.3-19.1a19.6 19.6 0 1 1-.3 39.3m21.3-66.5s1.4-3.4 1.5-4.2c0-.8-.2-1.7-1.6-1.8l-4.3-.2-2.8-5.5-1.9-3s-1.4-.6-2.3.2-1.2 1.8-.5 3 4 8.3 4.7 8.6 4 0 4.2.1-1 2.6-1 2.6z" style="fill:#c9c9c9"/><path d="m90.2 55-4.9 3-3.5-2s-1.7-1.3-3-1.8c-1.6-.6-3.7-.3-4.8-1.8-.8-1.1 14.4-1.6 14.4-1.6z" style="fill:#b3b3b3"/><path d="M76.6 48.9c-2.6.2-3.8.3-4 1.3-.4 1.2 1.9 2.8 2.9 3.3s5.9-1 6.6-.8c2 .4 5 3 6.7 3 1.6.2 6.3-3.6 6.7-4 .8-.5 1-2.7-1.4-2.9s-15.5 0-17.5 0M39.4 37.4c-1.4.1-1.2 3-.7 3.7q.9 1.8 3.2 2c1.7.1 15.5-.7 16.5-.8s1-1.6.7-3c-.3-1-1.1-2.6-2.2-2.7z" style="fill:#5e6268"/><path d="M101.3 97.7 84.5 63.8l1-5.9-4.6-.4s-.8 4.5-1 4.7c-.3.2-33-.6-33-.6l1.7-5.8-4.8-.6c-.5 1.5-9.2 31.4-11.3 35.1-2 3.7-4.3 7-4.3 7s-1-.4-2 0c-.7.3-2.1 1.2-1.7 3.2a3 3 0 0 0 3.5 2c2.2-.7 2-2.7 2-2.7s5.2-5 7-8c1.8-2.9 5.7-17 5.8-17 .4 0 26 28.1 26.8 28.4.6.2 30.6-2 30.6-2l1.7-1.3zM69 95.5S44.4 69.6 44.6 69l.7-2.3c.2-.3 32.9.7 32.9.7zm3.9 3.2L82.4 69l14.9 28.6z" style="fill:#67a6ad"/><path d="M27 98.2c-.2 0-1.6 1.4-1.6 2 0 .5 1.5 1.5 2 1.6.4 0 1.6-1.5 1.6-1.9s-1.6-1.7-2-1.7m73.1-.6a5 5 0 0 0-1.2 1.8c0 .4.6 1.9.9 2h2c.4 0 1.2-1.4 1.2-1.8s-.5-1.4-.8-1.7-1.9-.5-2-.3" style="fill:#626168"/><path d="M79.8 56c-.4.2-.8 2.8 0 2.9s5.7.1 6 0 .4-2.4.2-2.8-5.9-.4-6.2-.2" style="fill:#c9c9c9"/><path d="M43.3 52c-.6.1-1.8 3.7-1.5 4.1a36 36 0 0 0 8 1.2c.4 0 1.3-4 1-4.3s-7-1.3-7.5-1M60 106.6l7.5-7.4c.6-.6 1.3-1.4 2.4-1.2 1.2.1 1.5.8 1.5.8l-1.3 3.1-7.6 6.6-1 4-6.8-1.6V108c0-.6-.1-1.3 1.3-1.3z" style="fill:#b3b3b3"/><path d="M61.4 108.1c-.2.2 0 2.2-.2 2.5-.1.4-1.9.2-2.8.3h-3.7v2q-.1.8 1.6.9l5.8-.2c.6 0 1.4-.6 1.4-1.7v-2.6s6.7-6.5 7.5-7.1c.7-.7 1.1-1 1-2 0-.6-.6-1.4-.6-1.4z" style="fill:#858587"/></svg>