<svg xml:space="preserve" width="16" height="16" viewBox="0 0 128 128"><path d="M46.2 28v-1.8c0-3.5-2-4.2-4.4-3.8l-19 3.5a5 5 0 0 0-4 4.8v4.5c0 1.6-1.2 3-2.7 3.3h-.4a3 3 0 0 0-2.3 2.9l1 74s0 1.2 1.1 1.3c1.2 0 2-.8 3.2-1.1l89.6-21.4a3 3 0 0 0 2.4-2.8v-66c0-1.8-1.6-3.2-3.3-2.9L51 32.2c-2.6.4-5-.5-5-4.3" style="fill:#f3ab47"/><path d="m112.6 91.7 2-59.7c0-1.8-1.6-3.1-3.3-2.8L55 38.8a6 6 0 0 0-4.7 5.3l-.2 3.7c-.2 3-2.5 5.6-5.4 6l-22.7 4a5 5 0 0 0-3.9 4.6l-2.6 54.3s.4.2 4-.8l89.3-21a7 7 0 0 0 3.8-3.1" style="fill:#ffe36c"/><path d="m21.6 58.7 22.8-3.9c5.7-1.2 6.6-3.4 6.6-8v-1.1q.2-5.1 5.2-6L112 30" style="fill:none;stroke:#fff9c4;stroke-width:2;stroke-linecap:round;stroke-miterlimit:10"/></svg>