<svg xml:space="preserve" width="16" height="16" viewBox="0 0 128 128"><path d="M116.5 4h-104a8 8 0 0 0-8 8v104a8 8 0 0 0 8 8h104a8 8 0 0 0 8-8V12a8 8 0 0 0-8-8" style="fill:#427687"/><path d="M122.2 6.3a8 8 0 0 0-5.7-2.3h-104a8 8 0 0 0-8 8v104q0 3.1 2.3 5.7l16.8-16.8h76a6 6 0 0 0 5.9-6V23z" style="fill:#8cafbf"/><path d="M69 97.9h-9q-1-.1-1.1-1.2V44.3a1.2 1.2 0 0 0-1.6-1.2l-13.6 4.6a1.2 1.2 0 0 1-1.6-1.2v-7q0-.9.8-1.2l25.8-9.5q0-.2.4-.1 1 0 1.2 1.2v66.5q0 1.2-1.3 1.5" style="fill:#fafafa"/><path d="M40.2 12.9c0-2.3-1.6-3-10.8-2.7-7.7.3-11.5 1.2-13.8 4s-3 8.5-3 15.3c0 4.8 0 9.3 2.5 9.3 3.4 0 3.4-8 6.2-12.3 5.4-8.7 18.9-10.6 18.9-13.6" style="opacity:.5;fill:#b4e1ed"/></svg>