<svg xml:space="preserve" width="16" height="16" viewBox="0 0 128 128"><path d="m57.6 21-29.4 5.3s.3 29.1 0 42.8a847 847 0 0 0-.2 35.4c.2 2.1 6.8 9 6.8 9l22 7.9 21.5-.8 18.8-8.7s2.7-3.8 3.3-5c.4-1 0-28.2 0-41.1 0-10.9.6-40.5.6-40.5z" style="fill:#feb502"/><path d="M28.3 109.4c.3 1.5 12.2 14.9 36.2 14.9s35.4-11.7 35.7-13c.2-1.2.2-4.6.2-4.6s-11.6 12.6-35.6 12.7c-24.3.2-36.8-15-36.8-15s0 3.6.3 5" style="fill:#b0b0b0"/><path d="M38.4 10.4 28.2 18l-.3 4.8.3 3.4s6.9 11.2 36.7 12c26.9.7 36-9.5 36-9.5s1.1-2.4 1.4-4.1c.4-2.9 0-5.3 0-5.3z" style="fill:#e0e0e0"/><path d="M65.4 3.9C47.6 3.2 28.2 9.3 28 18.7c-.1 9.8 24.5 15.5 36.7 15.6 15.2.1 37.2-5.3 37.5-14 .4-8.9-17.5-15.7-37-16.4" style="fill:#b0b0b0"/><path d="M65.4 16.7s-28.8 5.5-30.5 4c-1.6-1.3-3-2.6.8-5.9s14-7.7 30.6-7c17.3.7 30.2 6.6 31 11.3.2.8 0 2.3-1 2.8l-5.5 2.7s-26.2-8-25.4-7.9" style="fill:#858585"/><path d="M83.2 13.2c-11.2-3.1-29.5-4-39.1.3S35 20.8 35 20.8s8.3 7.9 30 8.1c23.3.3 31.3-7 31.3-7s-.7-5.1-13.1-8.7" style="fill:#e0e0e0"/><path d="M40.6 46.8q-.9.6-.9 3.3c0 1.6-.4 49.1-.2 49.6s7.8 8.5 25.1 8.2c16.6-.3 24.7-6.2 24.7-6.2l.4-37c0-7 .9-15.3 0-16.2-1.5-1.3-8.6.6-25 .3s-22.8-2.7-24-2" style="fill:#719921"/><path d="M44.1 52c-.7 1-.4 22.5-.4 26.8v17.9s6.6 6.3 19.8 6.3c13.4 0 21.6-4.4 21.6-4.4l.5-26.3.3-19.3c0-1.2-12.5.8-22.4.3C51 52.8 44.8 51 44.2 52" style="fill:#e5dda0"/><path d="M50.2 60c-.7.3-1.1.6-1.2 1.8-.2 1.5.5 2.4 1.2 2.8.8.5 6.8.8 14.4.8 8 0 14.7-.2 14.7-.2s.8-1 .8-2.6q0-2-.8-2.2c-.4-.3-9.3 0-15 0-6.5 0-13.5-.8-14.1-.5" style="fill:#749b22"/><path d="M50.3 82.4c0 8 5.1 14.2 14.6 14.1s13.6-8.7 13.3-13.7c-.3-6.2-3.9-13.5-13.9-13.5s-14 7.2-14 13" style="fill:#ff5119"/></svg>