<svg xml:space="preserve" width="16" height="16" viewBox="0 0 128 128"><path d="M73.8 89H54.2v19.4c0 4.9 4 8.8 9 8.8h1.7c4.9 0 8.9-4 8.9-8.8zm17.5-38.6H36.7c-6 0-10.7 5.1-10.7 11.4s4.8 11.4 10.7 11.4h54.6c6 0 10.7-5.1 10.7-11.4 0-6.2-4.8-11.4-10.7-11.4" style="fill:#7a4c32"/><path d="M64 11c-17.4 0-33.5 18.7-33.5 45.4S47 96.3 64 96.3 97.5 83 97.5 56.4 81.4 11.1 64 11.1" style="fill:#a56c43"/><ellipse cx="47.6" cy="58.8" rx="4.9" ry="5.1" style="fill:#42312c"/><ellipse cx="80.4" cy="58.8" rx="4.9" ry="5.1" style="fill:#42312c"/><path d="M67.9 68h-7.7q-1.1.5-.7 1.7c.4 1.2 1.7 2.7 4.5 2.7s4.3-2 4.6-2.7q.3-1.1-.7-1.7" style="fill:#875334"/><path d="M72.4 76.1a26 26 0 0 1-16.8 0c-1.8-1-3.7.6-3 2.3s6.5 5.4 11.4 5.4 10.6-3.8 11.3-5.4-1-3.4-2.9-2.3" style="fill:#473530"/><path d="M64 5c-45.5.3-36.1 50.2-36.1 50.2l3 7.7c0 .3.6.3.6 0 1-4.4 4.5-19.8 6.3-24.5a6 6 0 0 1 6.7-3.8c4.5.8 11.6 1.8 19.4 1.8h.1c7.9 0 15-1 19.5-1.8a6 6 0 0 1 6.7 3.8c1.8 4.7 5.3 20 6.2 24.4q.3.5.8 0l3-7.6S109.4 5.2 64 5" style="fill:#3c2c23"/><radialGradient id="a" cx="64" cy="81.2" r="37.9" gradientTransform="matrix(1 0 0 -1.128 0 138.3)" gradientUnits="userSpaceOnUse"><stop offset=".8" style="stop-color:#554138;stop-opacity:0"/><stop offset="1" style="stop-color:#554138"/></radialGradient><path d="M100.2 55.2S109.5 5.2 64 5l-6 .4h-.3c-38.3 4.8-29.9 49.8-29.9 49.8l3 7.6q.4.6.7 0c1-4.4 4.5-19.7 6.2-24.4a6 6 0 0 1 6.8-3.8c4.5.8 11.6 1.8 19.4 1.8h.1c7.9 0 15-1 19.5-1.8a6 6 0 0 1 6.7 3.8c1.8 4.7 5.3 20.1 6.3 24.4q.2.6.7 0z" style="fill:url(#a)"/><path d="M40 50.7c3-4.2 9.8-4.6 13.7-1.5q1 .8 1.7 2c.4 1.3-.9 2.3-2 2l-2.3-.9a11 11 0 0 0-3.6-.5c-1.8 0-3 .2-4.7 1-.7.2-1.3.7-2 .3-1-.4-1.3-1.5-.8-2.4m46 2.4-.8-.4a11 11 0 0 0-8.7-.2c-.9.3-1.9 1-2.8.7-1.3-.4-1.3-1.9-.6-2.8q1.4-1.6 3.3-2.4c3-1.3 6.5-1 9.2.5q1.5.9 2.4 2.2c.8 1.3-.4 3-2 2.4" style="fill:#42312c"/><path d="M116.5 54.3c-1.2 0-2.2 1-2.2 2.1v9.2c0 1.2 1 2.2 2.2 2.2s2.3-1 2.3-2.2v-9.2q-.2-2-2.3-2.1m-4.5 0c-1.2 0-2.2 1-2.2 2.1v9.2c0 1.2 1 2.2 2.2 2.2s2.3-1 2.3-2.2v-9.2q-.2-2-2.3-2.1" style="fill:#e8ad00"/><path d="M114.3 54.3c-1.3 0-2.3 1-2.3 2.1v11.2q.2 2 2.3 2.2c2.1.2 2.2-1 2.2-2.2V56.4c0-1.2-1-2.1-2.2-2.1" style="fill:#ffca28"/><ellipse cx="114.3" cy="53" rx="2.8" ry="2.6" style="fill:#ffca28"/><path d="M114.3 53a1 1 0 0 1-1-1V14q0-.9 1-1 .9.1 1 1v38q-.1 1-1 1" style="fill:#504f4f"/><linearGradient id="b" x1="64" x2="64" y1="127.4" y2="98.7" gradientTransform="matrix(1 0 0 -1 0 128)" gradientUnits="userSpaceOnUse"><stop offset="0" style="stop-color:#424242"/><stop offset=".5" style="stop-color:#353535"/><stop offset="1" style="stop-color:#212121"/></linearGradient><path d="M116 13C85.2 5.2 64 5 64 5s-21.2.2-52 8v.8a3 3 0 0 0 2.1 2.8c3.8 1.1 13.2 3.5 18.2 4.6l-1.8 3.5S38.6 30.4 64 33c25.4-2.6 33.8-7.6 33.8-7.6L96 21.9c4.5-.7 14.2-4 18-5.3a3 3 0 0 0 2-2.8z" style="fill:url(#b)"/><linearGradient id="c" x1="64" x2="64" y1="127.2" y2="96.2" gradientTransform="matrix(1 0 0 -1 0 128)" gradientUnits="userSpaceOnUse"><stop offset="0" style="stop-color:#616161"/><stop offset=".3" style="stop-color:#505050"/><stop offset="1" style="stop-color:#242424"/><stop offset="1" style="stop-color:#212121"/></linearGradient><path d="M64 5s-21.2.2-52 8c0 0 35.4 9.7 52 9.4 16.6.3 52-9.4 52-9.4-30.8-7.8-52-8-52-8" style="fill:url(#c)"/><linearGradient id="d" x1="13.9" x2="114.7" y1="109" y2="109" gradientTransform="matrix(1 0 0 -1 0 128)" gradientUnits="userSpaceOnUse"><stop offset="0" style="stop-color:#bfbebe"/><stop offset=".3" style="stop-color:#212121;stop-opacity:0"/><stop offset=".7" style="stop-color:#212121;stop-opacity:0"/><stop offset="1" style="stop-color:#bfbebe"/></linearGradient><path d="M116 13C85.2 5.2 64 5 64 5s-21.2.2-52 8v.8a3 3 0 0 0 2.1 2.8c3.8 1.1 13.2 3.7 18.2 4.7 0 0-1 1.6-1.8 3.6 0 0 8.1 5.5 33.5 8 25.4-2.5 33.8-7.5 33.8-7.5L96 21.9c4.5-.7 14.2-4 18-5.2a3 3 0 0 0 2-3z" style="opacity:.4;fill:url(#d)"/><path d="M114.5 121c0-14.6-21.7-21.6-40.7-23.1l-8.6 11q-.5.6-1.2.6t-1.2-.6l-8.6-11c-10.5.8-40.7 4.7-40.7 23v3.1h101z" style="fill:#212121"/><radialGradient id="e" cx="64" cy="5.4" r="54.2" gradientTransform="matrix(1 0 0 -.525 0 125.44)" gradientUnits="userSpaceOnUse"><stop offset=".6" style="stop-color:#212121"/><stop offset="1" style="stop-color:#616161"/></radialGradient><path d="M114.5 121c0-14.6-21.7-21.6-40.7-23.1l-8.6 11q-.5.6-1.2.6t-1.2-.6l-8.6-11c-10.5.8-40.7 4.7-40.7 23v3.1h101z" style="fill:url(#e)"/></svg>