<svg xml:space="preserve" width="16" height="16" viewBox="0 0 128 128"><path d="M52.8 24.9c-60.6 0-38.8 75.8-29 89.4 4 5.4 11.5 5.7 11.5 5.7h33.9s7.5-.3 11.4-5.7c9.9-13.6 32.8-89.4-27.8-89.4" style="fill:#232020"/><radialGradient id="a" cx="52.5" cy="55.6" r="44.2" gradientTransform="matrix(1 0 0 -1 0 128)" gradientUnits="userSpaceOnUse"><stop offset=".8" style="stop-color:#444140;stop-opacity:0"/><stop offset="1" style="stop-color:#444140"/></radialGradient><path d="M52.8 24.9c-60.6 0-38.8 75.8-29 89.4 4 5.4 11.5 5.7 11.5 5.7h33.9s7.5-.3 11.4-5.7c9.9-13.6 32.8-89.4-27.8-89.4" style="fill:url(#a)"/><path d="M51.5 38C25.4 37.1-5.4 8.7 5 39.1c6 17.5 26.2 26 46.5 25.8 20.2.2 40.4-8.3 46.4-25.8 10.4-30.4-20.3-2-46.4-1.3" style="fill:#e59600"/><path d="M51.7 90.7h-8.9v10.7c0 4.8 3.6 8.7 8.1 8.7h1.6c4.5 0 8.1-4 8.1-8.7V90.7z" style="fill:#3c2b24"/><linearGradient id="b" x1="51.7" x2="51.7" y1="4" y2="30" gradientTransform="matrix(1 0 0 -1 0 128)" gradientUnits="userSpaceOnUse"><stop offset="0" style="stop-color:#709e3b"/><stop offset=".3" style="stop-color:#73a13e"/><stop offset=".6" style="stop-color:#7dab47"/><stop offset=".8" style="stop-color:#8dbc57"/><stop offset="1" style="stop-color:#9ccc65"/></linearGradient><path d="M95.7 120.8C95.7 103 70.2 99 61.1 98l-7.7 10.6h-3.3L42.5 98c-9.8 1-18.2 3.3-24.3 6.8q-10.5 6-10.5 16v3.2h88z" style="fill:url(#b)"/><linearGradient id="c" x1="51.8" x2="51.8" y1="3.5" y2="28.1" gradientTransform="matrix(1 0 0 -1 0 128)" gradientUnits="userSpaceOnUse"><stop offset="0" style="stop-color:#1e88e5"/><stop offset="1" style="stop-color:#1565c0"/></linearGradient><path d="m83.6 120-7.1-5.4.2-.4-26 .5-23.8-.5.2.4L20 120l-.1 3.9h64z" style="fill:url(#c)"/><linearGradient id="d" x1="28.3" x2="28.3" y1="4" y2="27.4" gradientTransform="matrix(1 0 0 -1 0 128)" gradientUnits="userSpaceOnUse"><stop offset="0" style="stop-color:#1e88e5"/><stop offset="1" style="stop-color:#1565c0"/></linearGradient><path d="m33.8 107.1-.1-7.8s-5.8 1.2-7.9 2.1l-3 6.6 3.9 5.9z" style="fill:url(#d)"/><linearGradient id="e" x1="65.9" x2="65.9" y1="4" y2="27.4" gradientTransform="matrix(-1 0 0 -1 141.16 128)" gradientUnits="userSpaceOnUse"><stop offset="0" style="stop-color:#1e88e5"/><stop offset="1" style="stop-color:#1565c0"/></linearGradient><path d="m69.8 107.1.1-7.8s5.8 1.2 7.9 2.1l2.9 6.6-3.8 5.9z" style="fill:url(#e)"/><path d="m73 115.6 5.1 1c1.4.3 2.8-.7 3-2s-.6-2.7-2-3l-5.2-1c-1.4-.3-2.7.7-3 2s.7 2.8 2 3m-42.3 0-5.2 1c-1.3.3-2.7-.7-3-2s.7-2.7 2-3l5.3-1c1.3-.3 2.7.7 3 2s-.7 2.8-2 3" style="fill:#bdbdbd"/><linearGradient id="f" x1="43.2" x2="43.2" y1="27.7" y2="13" gradientTransform="matrix(1 0 0 -1 0 128)" gradientUnits="userSpaceOnUse"><stop offset="0" style="stop-color:#aed581"/><stop offset="1" style="stop-color:#8bc34a"/></linearGradient><path d="m42.4 98-7.5 1-.3 21 17.1-11.5z" style="fill:url(#f)"/><linearGradient id="g" x1="60.3" x2="60.3" y1="29.9" y2="12.5" gradientTransform="matrix(1 0 0 -1 0 128)" gradientUnits="userSpaceOnUse"><stop offset="0" style="stop-color:#aed581"/><stop offset="1" style="stop-color:#8bc34a"/></linearGradient><path d="M68.6 99.1q-4.6-.8-7.5-1l-9.4 10.4L68.8 120z" style="fill:url(#g)"/><path d="M51.7 17.3c-17.1 0-33 12.7-33 39.8A40 40 0 0 0 44 95.7a24 24 0 0 0 7.8 1.5q3.6 0 7.8-1.4A40 40 0 0 0 84.7 57c0-27-15.8-39.8-33-39.8" style="fill:#70534a"/><ellipse cx="36.2" cy="60" rx="4.8" ry="5" style="fill:#1a1717"/><ellipse cx="66.8" cy="60" rx="4.8" ry="5" style="fill:#1a1717"/><path d="M59.9 77a25 25 0 0 1-16.6 0c-1.8-1-3.6.6-2.9 2.2s6.4 5.4 11.2 5.4 10.4-3.7 11.1-5.4c.8-1.6-1-3.2-2.9-2.2M43.4 51.1c-1-1.2-3-3-7.1-3s-6.2 1.8-7.1 3q-.5 1 0 1.6t1.8.3c1.4-.3 2.5-1.1 5.3-1.1s4.4.8 5.2 1.1q1.4.3 1.9-.3t0-1.6m30.4 0c-1-1.2-3-3-7.1-3s-6.2 1.8-7.1 3q-.5 1 0 1.6t1.8.3c1.3-.3 2.5-1.1 5.3-1.1s4.4.8 5.3 1.1 1.6 0 1.8-.3q.5-.6 0-1.6" style="fill:#1a1717"/><path d="M55.3 69h-7.6q-1.1.6-.7 1.7c.3.7 1.7 2.6 4.5 2.6s4.1-2 4.4-2.6q.4-1.2-.6-1.6" style="fill:#33251f"/><path d="M91.6 66.7h-7.7c0-3.8 0-15.7-4-19.4-3.3-3-14-9.6-17.2-16.8 0 0-12.7 11.8-35 16.9-6.1 1.3-8.1 16.4-8.1 19.3h-7.7c0-.3-3.4-41.8 41-41.8s38.7 41.8 38.7 41.8" style="fill:#232020"/><radialGradient id="h" cx="52.9" cy="61.4" r="41.5" gradientTransform="matrix(1 0 0 -1 0 128)" gradientUnits="userSpaceOnUse"><stop offset=".8" style="stop-color:#444140;stop-opacity:0"/><stop offset="1" style="stop-color:#444140;stop-opacity:.8"/></radialGradient><path d="M91.6 66.7h-7.7c0-3.8 0-15.7-4-19.4-3.3-3-14-9.6-17.2-16.8 0 0-12.7 11.8-35 16.9-6.1 1.3-8.1 16.4-8.1 19.3h-7.7c0-.3-3.4-41.8 41-41.8s38.7 41.8 38.7 41.8" style="fill:url(#h)"/><linearGradient id="i" x1="51.5" x2="51.5" y1="120.4" y2="96.6" gradientTransform="matrix(1 0 0 -1 0 128)" gradientUnits="userSpaceOnUse"><stop offset="0" style="stop-color:#fff59d"/><stop offset=".6" style="stop-color:#fee565"/><stop offset="1" style="stop-color:#fdd835"/></linearGradient><path d="M77.5 29C72.7 17 67.9 7.6 61.9 7c-1.7-.3-5.9-1-10.2-1-4.4 0-9 .6-10.6.8C35 7.6 30.3 17 25.5 29c-2.7 6.5 54.6 6.5 52 0" style="fill:url(#i)"/><linearGradient id="j" x1="51.5" x2="51.5" y1="101.5" y2="72.4" gradientTransform="matrix(1 0 0 -1 0 128)" gradientUnits="userSpaceOnUse"><stop offset="0" style="stop-color:#fff59d"/><stop offset=".6" style="stop-color:#fee565"/><stop offset="1" style="stop-color:#fdd835"/></linearGradient><path d="M91.6 24.7C82 26.4 66.4 28.4 52 28.5h-1c-14.4 0-30.1-2-39.5-3.8C3.3 23.2 3 28.6 3 28.6s2.6-3.2 7.1 1.2c7 6.8 18.5 17.7 40.8 17.8h1.3A54 54 0 0 0 93 29.8c4.5-4.4 7.1-1.2 7.1-1.2s-.3-5.4-8.4-3.9" style="fill:url(#j)"/><path d="M51.5 20.4c-15.2 0-25 6.5-25 6.5s14.3 1.5 25 1.5 25-1.5 25-1.5-9.8-6.5-25-6.5" style="fill:#78909c"/><path d="M107.5 109v15" style="fill:none;stroke:#d18100;stroke-width:5;stroke-miterlimit:10"/><path d="M108.6 116.8h-2.3c-1.4 0-2.5 0-2.5-2.5v-12h7.3v12c0 2-1 2.5-2.5 2.5" style="fill:#636363"/><path d="M116.7 99.5h-9l-10-.1C90 99.4 90 72.7 90 72.7v24.7c0 6.7 3.4 8.8 9.4 9H115c5.4 0 7.3-3.7 7.3-8.1l-.3-4.9s-1.5 6.1-5.2 6.1" style="fill:#616161"/><linearGradient id="k" x1="106.8" x2="106.8" y1="19.5" y2="78.2" gradientTransform="matrix(1 0 0 -1 0 128)" gradientUnits="userSpaceOnUse"><stop offset="0" style="stop-color:#757575"/><stop offset=".5" style="stop-color:#9e9e9e"/></linearGradient><path d="M123.4 38.4c-.1-.4-.8-.4-.9 0l-1.1 4.7-2 52.2v.4c0 1.5-1.2 2.6-2.8 2.6s-2.8-1.1-2.8-2.6l.6-52.4-1.2-5.2c0-.4-.7-.4-.8 0l-1.3 5-.7 52.2c0 1.7-1 3-2.7 3a3 3 0 0 1-3-3l-.4-52.2-1.1-5c-.2-.4-.8-.4-.9 0l-1.5 5.2V95c0 1.8-1.2 3.2-3 3.2s-3.3-1.4-3.3-3.2l-2-52-1.4-5q-.3-.5-.7 0L89 43l1.6 53.7c0 4.5 2.9 8 8.9 8.2h15.4c5.4 0 7.5-3.7 7.5-8.2l2.1-53.4z" style="fill:url(#k)"/></svg>