<svg xml:space="preserve" width="16" height="16" viewBox="0 0 128 128"><path d="m48.3 34.6-17 13.6 7.9 32.9 8.6 9L81 88l9.2-9.4s-1-32.9-1.6-33.2l-7.5-6.7z" style="fill:#8fd0eb"/><path d="M52 76.5c1 1.1 6.1-4.2 12-4.3s10.6 4.4 11.4 3.7c.7-.7-3.5-6.4-3.5-12.3s5.4-11 4.6-12-6 3.7-12.6 3.8-10.9-5.1-12.4-4.2c-1.5 1 4 6.9 3.7 13-.1 6-4 11.4-3.2 12.3" style="fill:#fefefe"/><radialGradient id="a" cx="64.2" cy="51.8" r="35.9" gradientUnits="userSpaceOnUse"><stop offset=".4" style="stop-color:#1f87fb"/><stop offset=".8" style="stop-color:#05bfea"/></radialGradient><path d="M63.7 3c-1.7 0-7 7-11.8 11.4S41.1 25 42.1 32.8 51.3 49.5 65 49.6s21.4-11.4 21.6-17.3c.1-9-8.2-15.5-12.8-20-5-4.7-8-9.4-10-9.3" style="fill:url(#a)"/><radialGradient id="b" cx="70.2" cy="63.7" r="38.3" gradientUnits="userSpaceOnUse"><stop offset=".4" style="stop-color:#1f87fb"/><stop offset=".8" style="stop-color:#05bfea"/></radialGradient><path d="M77.7 64.4c-.5 17 14 25.4 25.2 19.1s21.2-19 21.4-20.2c0-.6-4-4.8-8.9-9.4-5-4.8-10-9.8-18.2-10.7-8.5-1-19 5.8-19.5 21.2" style="fill:url(#b)"/><radialGradient id="c" cx="52.5" cy="62.9" r="36.6" gradientUnits="userSpaceOnUse"><stop offset=".4" style="stop-color:#1f87fb"/><stop offset=".8" style="stop-color:#05bfea"/></radialGradient><path d="M3.5 64.4c-.4 1.3 5.1 5.8 12.3 12 5.4 4.8 11 9.4 16.9 9.2 5.8-.1 16-5.8 16-22.2-.2-18.8-11.9-23.2-18-22.2C24.9 42 20 46.3 15 51.3A72 72 0 0 0 3.5 64.4" style="fill:url(#c)"/><radialGradient id="d" cx="63.9" cy="78" r="32.5" gradientUnits="userSpaceOnUse"><stop offset=".4" style="stop-color:#1f87fb"/><stop offset=".8" style="stop-color:#05bfea"/></radialGradient><path d="M63.9 78.5c-11 0-22.5 7.7-21.1 20.7.6 5.6 5 10 9.4 14.5 5.7 5.7 12 10.6 13 10.8.9.1 7.3-6 12.6-12.8C81.5 107 85 102 85 98.6c.1-8.7-5.9-20-21.1-20" style="fill:url(#d)"/><path d="M85.8 34.6c-1 0-5.2 10.6-3.7 12s12-2.8 11.9-4.5c-.2-1.8-6.5-7.6-8.2-7.5m-43.3-1.9c-1.7-.7-8.4 5.5-8.3 8 .1 1.8 10.5 6.1 12.1 4.6 1.6-1.4-2.4-12-3.8-12.6M47 81c-1-1-11 1.5-11 4.2-.1 3.8 5.1 7.4 6.9 7 1.8-.6 6-9 4-11.2m33.7.4c-1.5 1.5 2.1 11 3.9 11.3 3.1.7 8-6 7.4-7.5-.6-2-10.3-4.8-11.3-3.8" style="fill:#034eac"/></svg>