<svg xml:space="preserve" width="16" height="16" viewBox="0 0 128 128"><path d="M116 4H12a8 8 0 0 0-8 8v104a8 8 0 0 0 8 8h104a8 8 0 0 0 8-8V12a8 8 0 0 0-8-8" style="fill:#427687"/><path d="M109.7 4H11.5A7.6 7.6 0 0 0 4 11.5v97.9c0 4.1 3.3 7.5 7.5 7.5h98.1c4.1 0 7.5-3.3 7.5-7.5V11.5c0-4-3.1-7.4-7.2-7.5z" style="fill:#8cafbf"/><path d="m47.4 71-24-24a4 4 0 0 1-.3-5.6q0-.3.3-.4l24-24a4 4 0 0 1 6.6 3v14q.2 1.8 2 2h46a4 4 0 0 1 4 4v8a4 4 0 0 1-4 4H56a2 2 0 0 0-2 2v14a4 4 0 0 1-6.6 3" style="fill:#fafafa"/><path d="M39.7 12.9c0-2.3-1.6-3-10.8-2.7-7.7.3-11.5 1.2-13.8 4s-2.9 8.5-3 15.3c0 4.8 0 9.3 2.5 9.3 3.4 0 3.4-7.9 6.2-12.3 5.4-8.7 18.9-10.6 18.9-13.6" style="opacity:.5;fill:#b4e1ed"/><path d="M41.3 111.7h-16V83.8h16v4.9H31.2v6h9.4v5H31v7.1h10.2zm32.7 0h-7.6l-12-21h-.2l.3 7.9v13h-5.3V83.9h7.5l12 20.9h.2l-.3-7.7V83.8H74zm30-14.2q0 6.8-3.9 10.5t-11.3 3.7H81V83.8h8.7q6.7 0 10.6 3.6c3.9 3.6 3.7 5.8 3.7 10m-6 .1q0-9-8-9h-3.2v18.2h2.6q8.5 0 8.5-9.2" style="fill:#fafafa"/></svg>