<svg xml:space="preserve" width="16" height="16" viewBox="0 0 128 128"><path d="M57.5 49.6s-3-2-6.6-2c-3.5.2-7.9 2.9-7.9 2.9s-6 .3-10.7.1-15.6-1.4-21.2 1.2c-5.7 2.5-7 7.3-6.2 11 .8 3.9 1.7 9.9 20.5 20.6a60 60 0 0 0 25 7c.4 1.5 1.3 11.7 2.9 17 2.1 7.1 5.1 7.4 6.2 7.7 4.4 1.1 2.5-4.6 2.4-9-.2-7.3 1.4-14.2 2.2-14.2 1.7 0 7 1.8 8.2 1.8 10.1 17 19 19.2 22.1 17 2.4-1.7-.1-5-2.7-11.1-1.5-3.8-2.6-5.6-1-5.7 13.6-1 29.4-6.4 31.7-27 1.5-13.8-6.7-24.3-7.4-26.3.4-2 3.4-7.5 4.7-11.6 2.2-6.8 2.5-9.8 1.5-10-1.2 0-5.1 3.3-9.3 6-3.5 2.2-4.9 8.3-4.9 8.3s-5.7-3.5-10.9-1.3c-6.2 2.7-9.4 3.3-9.6 4.2s6.4 3.3 10.9 4.5l9.8 2.4s4.5 11.9-3 15.2c-7.4 3.4-12.9-1-20-4.5s-13.5-7.8-19-7.2c-4.9.7-7.7 3-7.7 3" style="fill:#6ba4ae"/><path d="M61.3 25.5s-.5-3 3-4c3.6-1 7.4-1 7.6-4.7.3-4-3.7-4.9-7-4-4.3 1.4-7.5 6.3-7.5 6.3s-3.8-7.3-9.9-7.3c-5 0-5.5 3.7-5 5.4.6 2.7 3.6 3.9 6.9 4.2 3.5.4 3.9 3.9 3.9 3.9s-6.1-4-6.9 0 6.2 3.2 7.7 7c1 2.3 1.2 14.2 3.8 14.1 2.7-.1 1.6-13.5 3.4-15 1.8-1.6 7.8-3.4 6.6-6.1-1.7-4-6.7.2-6.7.2" style="fill:#36b4e1"/><circle cx="76.7" cy="11.8" r="2.2" style="fill:#36b4e1"/><ellipse cx="76.6" cy="21.6" rx="1.6" ry="1.5" style="fill:#36b4e1"/><ellipse cx="35.8" cy="11.6" rx="2.5" ry="2.6" style="fill:#36b4e1"/><ellipse cx="33.9" cy="20" rx="1.9" ry="2" style="fill:#36b4e1"/><ellipse cx="38.9" cy="29.8" rx="1.9" ry="1.8" style="fill:#36b4e1" transform="rotate(-32.7 38.92 29.8)"/><path d="M60.9 74.8c.7 2.9-16 2.7-30.1.2S6 66.8 6 66.8c0 .2-1.4-3.3-1.5-5.9 0-2 .7-3.6.7-3.6s4.8 4 12.7 6.9c7.9 2.8 17.1 6 24.7 7.1C55.5 73.1 60.4 73 61 74.8" style="fill:#fdeacb"/><ellipse cx="62.3" cy="70.4" rx="3.5" ry="3.3" style="fill:#2c292a" transform="rotate(-8.8 62.34 70.38)"/><path d="M117.8 80.8s-5.4 5.7-17.8 5.6c-8.3-.1-21.4-1.6-21.4-1.6s4.5 2.1 7 5c2.6 2.8 6 9.5 6 9.5s11.7-3.3 17.2-8c5.5-4.6 9-10.5 9-10.5M9.4 71.7s11.1 7 21.8 9 20.4 3 26.2 3.3 11.4.1 11.4.1 7.2 11 9 14.1 5.4 9.7 9.3 11.3c4 1.5 7.5 1.1 7.5 1.1s-5.2 4-11.2-.1c-2.5-1.8-8.5-9.1-8.5-9.1s-7.3 0-11.8-.6c-4.3-.4-9-1.3-9-1.3s-.2 4.6.1 7 2 6.8 6 7.7c.8.2 1.9.2 1.8.3-.4.9-4.4 2.6-8.1-1C49 108.5 50 99 50 99s-6.9-1.5-15-6.4c-4.6-2.9-14-8.8-18.3-12.9-3.5-3.2-7.4-8-7.4-8" style="fill:#a4ced5"/><path d="M54.6 86.9c3.2.8 7.2-.3 7.3.5 0 1.3-4.6 1.8-7.5 1.4-3.8-.4-6.4-3.1-6.4-4 0-1.5 2.8 1 6.6 2M33 83c-.4.8 2.8 3.1 5 3.7q3.1.6 5.4 2c2.3 1.3 3.1 4.6 6.6 5.6s6.5-1.3 10.3-1.2c3.7.2 6 .1 5.5-.5s-3.3-1.4-5.6-1.6c-2.3-.1-6.8 1.7-9.6.8-3-1-3.5-4.2-6.4-5.4s-5.3-1.2-6.6-1.7-4-2.6-4.5-1.8M25 81.5c-.7.1.5 3.4 4.9 5.8s8 3 9.8 4c2.8 1.7 3.3 4.6 7.6 6.3 5.6 2.1 10.3.7 14 .6 3.9 0 10.2 1.6 10.4.6.3-1.2-6-2.6-10.5-2.7-3.1 0-6.7 1.4-11.9 0-5-1.3-5-4.5-9-6.6-3.3-1.7-6.7-2.6-9.4-3.8-2.7-1.3-5-4.5-5.9-4.2" style="fill:#d9ebf3"/></svg>