<svg xml:space="preserve" width="16" height="16" viewBox="0 0 128 128"><path d="M4 4h120v120H4z" style="fill:#fff"/><path d="M124 24.4H5.6M124 43.7H5.5M124 63H5.4M124 82.3H5.3M124 101.6H5.2" style="fill:none;stroke:#b0bec5;stroke-width:2;stroke-miterlimit:10"/><path d="M38.7 122H22V55.3c0-1.4 1-2.5 2.5-2.5h11.9c1.3 0 2.4 1.1 2.4 2.5z" style="fill:#9ccc65"/><path d="M72.4 122H55.6V74.7c0-1.3 1-2.4 2.4-2.4h12c1.3 0 2.4 1 2.4 2.4z" style="fill:#f44336"/><path d="M103.6 122H91.7a2.5 2.5 0 0 1-2.4-2.6V26q.2-2.3 2.4-2.5h12c1.3 0 2.4 1.1 2.4 2.5v93.6c0 1.3-1.1 2.4-2.5 2.4" style="fill:#0091ea"/><path d="M124 120H8V4H4v120h120zM122 6v116H6V6zm2-2H4v120h120z" style="fill:#b0bec5"/></svg>