<svg xml:space="preserve" width="16" height="16" viewBox="0 0 128 128"><linearGradient id="a" x1="64" x2="64" y1="32.2" y2="-2.4" gradientTransform="matrix(1 0 0 -1 0 128)" gradientUnits="userSpaceOnUse"><stop offset="0" style="stop-color:#616161"/><stop offset=".3" style="stop-color:#545454"/><stop offset=".8" style="stop-color:#323232"/><stop offset="1" style="stop-color:#212121"/></linearGradient><path d="M64.1 96c-25.6 0-52 7.1-52 25v3h104v-3c0-16.9-26.1-25-51.9-25" style="fill:url(#a)"/><path d="M64 90h-9v10c0 4.6 3.6 8.2 8.2 8.2h1.6c4.6 0 8.3-3.6 8.3-8.1V90z" style="fill:#e59600"/><path d="m52.7 106 3.8 18H72l3.4-18z" style="fill:#e0e0e0"/><path d="M53.8 114.5 64 106s-3 0-6.1-4.2c-1.9-2.4-3.1-6-3.1-6l-3.2.8zm20.5 0L64 106s3 0 6.1-4.2c1.9-2.4 3.1-6 3.1-6l3.2.8z" style="fill:#fff"/><path d="M51.7 96.6h-.4q-5.3.6-10.3 1.5l-4 6.4 7.2 4.3-4.8 6.1 9.3 9.1h9zm39.3 7.9-4-6.2q-5.1-1-10.7-1.7l-6 27.4h9l9.3-9-4.7-6.2z" style="fill:#9e9e9e"/><path d="M64.8 115.1h-1.4q-2.6-.1-3.2-2.5l-.6-2.2a3.3 3.3 0 0 1 3.2-4.1h2.5c2.1 0 3.7 2 3.2 4l-.5 2.3a3 3 0 0 1-3.2 2.5m-16 1.9v-12a2 2 0 0 1 3-1.7l10.6 6a2 2 0 0 1 0 3.4l-10.6 6.1a2 2 0 0 1-3-1.7m30-.1v-12a2 2 0 0 0-3-1.7l-10.6 6a2 2 0 0 0 0 3.4l10.6 6.1a2 2 0 0 0 3-1.7" style="fill:#212121"/><circle cx="63.8" cy="120" r="2" style="fill:#212121"/><path d="M91.3 50.4H36.7c-6 0-10.7 5.2-10.7 11.4s4.8 11.5 10.7 11.5h54.6c6 0 10.7-5.2 10.7-11.5s-4.8-11.4-10.7-11.4" style="fill:#e59600"/><path d="M64 11c-17.4 0-33.5 18.7-33.5 45.5C30.5 83 47 96.3 64 96.3S97.5 83 97.5 56.5C97.5 29.7 81.4 11 64 11" style="fill:#ffca28"/><path d="M40 50.7c3-4.2 9.8-4.6 13.6-1.5q1.2.8 1.7 2c.4 1.3-.8 2.3-2 2l-2.2-.8a11 11 0 0 0-3.6-.6c-1.8 0-3 .2-4.7 1-.7.2-1.3.7-2.1.3-1-.4-1.3-1.5-.7-2.4m46 2.4-.8-.4c-1.8-.7-2.8-1-4.7-.9-1.7 0-2.7.2-4 .7-.9.3-2 1-2.8.7-1.3-.4-1.3-1.8-.6-2.8q1.3-1.6 3.3-2.4c3-1.3 6.5-1 9.2.6q1.4.8 2.4 2.1c.8 1.3-.4 3-2 2.4" style="fill:#6d4c41"/><ellipse cx="47.6" cy="58.8" rx="4.9" ry="5.1" style="fill:#404040"/><ellipse cx="80.4" cy="58.8" rx="4.9" ry="5.1" style="fill:#404040"/><path d="M72.4 76.1a26 26 0 0 1-16.8 0c-1.8-1-3.7.6-3 2.3s6.5 5.4 11.4 5.4 10.6-3.8 11.3-5.4-1-3.4-2.9-2.3" style="fill:#795548"/><path d="M67.9 68H60q-1 .5-.6 1.7c.3.7 1.7 2.7 4.5 2.7s4.3-2 4.6-2.7q.3-1.2-.7-1.6" style="fill:#e59600"/><path d="M64 4c-45.4.3-36 52.2-36 52.2l2.9 7.7q.4.5.7 0c1-4.4 4.4-19.8 6.2-24.5a6 6 0 0 1 6.8-3.8A111 111 0 0 0 64 37.4h.1c7.9 0 15-1 19.4-1.8a6 6 0 0 1 6.8 3.8c1.7 4.7 5.2 20 6.2 24.4 0 .3.6.4.7 0l3-7.6S109.5 4.2 64 4" style="fill:#543930"/><radialGradient id="b" cx="64.1" cy="80.9" r="38.1" gradientTransform="matrix(1 0 0 -1.128 0 138.37)" gradientUnits="userSpaceOnUse"><stop offset=".8" style="stop-color:#6d4c41;stop-opacity:0"/><stop offset="1" style="stop-color:#6d4c41"/></radialGradient><path d="M100.2 56.2s9.3-52-36.1-52.2l-6 .4h-.4C19.5 9.2 28 56.2 28 56.2l3 7.6q.3.6.7 0c1-4.4 4.4-19.7 6.2-24.4a6 6 0 0 1 6.8-3.8A111 111 0 0 0 64 37.4h.1c7.9 0 15-1 19.4-1.8a6 6 0 0 1 6.8 3.8c1.8 4.7 5.2 20.1 6.2 24.5 0 .3.6.3.7 0z" style="fill:url(#b)"/></svg>