<svg xml:space="preserve" width="16" height="16" viewBox="0 0 128 128"><path d="M41.2 13.6c2.5-4 8.2-7.2 13-6.4 5.2.8 8 4.6 8.8 9.4q.4 2.8 0 4.8l-.4 1.5c-.2 1.3 2.3 2.6 2.6 4 .2 1.1-2 1.8-2.2 2-.9 1 .5 5.6-5.7 6-2.3.2-1.9 0-2.6.3-1 .5-1 3.4-1 3.4s-.6 4.7-4.7 3.5c-4.6-1.5-4.8-4.8-4.8-4.8s1.2-4.6-1-9.4c-2.3-3.8-3.6-11.7-2-14.3" style="fill:#a56c43"/><path d="M62.4 31.5q-1.3 0-2.5-.7c-.8-.6-.2-1.3.7-.9q.8.4 2 .3z" style="fill:#473530"/><path d="M58.7 25.4q-1-.2-1-1.8.1-1.6 1.1-1.7 1 .1 1 1.8c0 1.7-.5 1.7-1 1.7m.8-4.4c1.2.3 1.4-.4 1-1q-.4-.7-2.3-.4c-1.2.3-1.6 1-2 1.5s-.2.8.1.9 1.9-1.3 3.2-1" style="fill:#42312c"/><linearGradient id="a" x1="70.1" x2="92.1" y1="47.7" y2="22.9" gradientTransform="matrix(1 0 0 -1 0 130)" gradientUnits="userSpaceOnUse"><stop offset=".5" style="stop-color:#e0e0e0"/><stop offset="1" style="stop-color:#bdbdbd"/></linearGradient><path d="m104.3 121.2 2.1-2-35.7-37.5-10-10.3-2 2 15.3 16z" style="fill:url(#a)"/><path d="m93.7 105.9 12.7 13.3-2.1 2L91.6 108z" style="fill:#ff3d00"/><linearGradient id="b" x1="103.6" x2="107.8" y1="11.3" y2="7.5" gradientTransform="matrix(1 0 0 -1 0 130)" gradientUnits="userSpaceOnUse"><stop offset=".5" style="stop-color:#e0e0e0"/><stop offset="1" style="stop-color:#bdbdbd"/></linearGradient><path d="M106.2 124a2.9 2.9 0 1 1 0-5.8 2.9 2.9 0 0 1 0 5.7" style="fill:url(#b)"/><path d="m70.7 81.7-2.2 2-11.8-12.3a1 1 0 0 1 0-1.4l.7-.7a1 1 0 0 1 1.5 0z" style="fill:#636262"/><path d="m23.6 108.8 14-16a6 6 0 0 0 1.5-3.6L40.5 67l15.4 1.7-4.9 23a16 16 0 0 1-5.9 9.4l-16.4 12.5z" style="fill:#616161"/><path d="m40.7 63.2 17.5 1.6L62.7 85q1.2 5.6.8 11.4L62 119.6h-6.7l-2.9-24.9-5.1-13.3c-3.3-1.6-7.4-4-7.4-9.7z" style="fill:#7c7c7c"/><path d="M54.2 124q-1.1 0-1.2-1.2v-2.7c0-2 2-4.1 2-4.1h6.9l6.2 2a4 4 0 0 1 2.6 3.7v1.3q-.1 1-1 1z" style="fill:#4568ad"/><path d="M19.3 111.9q-.7-.8 0-1.6l2-2c1.3-1.3 4.2-1.5 4.2-1.5l4.9 5 3 5.8a4 4 0 0 1-.9 4.4l-.9.9a1 1 0 0 1-1.4 0z" style="fill:#325599"/><radialGradient id="c" cx="-937.2" cy="627.4" r="1" gradientTransform="matrix(-21.188 0 0 21.188 -19804.14 -13241.22)" gradientUnits="userSpaceOnUse"><stop offset=".4" style="stop-color:#f58b21"/><stop offset="1" style="stop-color:#ec6e24"/></radialGradient><path d="M41.9 73.8h13.9c2.2 0 4-2.2 4-4.9l-2.1-22.4c-.4-4-1.9-8-4.7-9.6-4.8-3.4-8.5-1.3-10 .8a12 12 0 0 0-1.6 5.9L39 68.9c0 2.9.6 4.9 2.9 4.9" style="fill:url(#c)"/><linearGradient id="d" x1="53" x2="49.5" y1="76.3" y2="64.4" gradientTransform="matrix(1 0 0 -1 0 130)" gradientUnits="userSpaceOnUse"><stop offset="0" style="stop-color:#8d5738"/><stop offset=".5" style="stop-color:#a56c43"/></linearGradient><path d="m41.9 57.3 1.8-10 8 1-2.5 9.9 9.4 9.7c2.6 2.6-2.2 5.2-3.9 4.1l-8.5-6.9c-1.5-1.3-4.7-3.5-4.3-7.8" style="fill:url(#d)"/><linearGradient id="e" x1="64.4" x2="54.7" y1="57.4" y2="57.4" gradientTransform="matrix(1 0 0 -1 0 130)" gradientUnits="userSpaceOnUse"><stop offset="0" style="stop-color:#8d5738"/><stop offset=".5" style="stop-color:#a56c43"/></linearGradient><path d="m57.4 68.4-.1-.6q0-.4.6-.3l4.5 1.6c.5.2 1.9.7 2 2.5v3.6L62 72.8l.1 3.6q-.2 2-2.3 1c-2.1-1-3.3-1.3-4.2-2.8-.3-.5-.8-3.6-1-4.2z" style="fill:url(#e)"/><path d="m52.4 53.4-10.9-2 1.8-9.7c.5-3 3.4-5 6.3-4.4 3 .5 5 3.4 4.5 6.4z" style="fill:#ec6e24"/><path d="M50.7 73c1.1-3 5-6.5 8.1-6.2 2.3 0 2.2 1.8 2.2 1.8l-2.3-.8c-2.3-.3-6 3-7 5.6-.4 1-.6 2.4.7 3.2q.3.3.6.1c.6-.2 1.7-1.8 2.4-3 0 0 .1.7.3 1l.3.4a7 7 0 0 1-2.7 2.5l-.5.1-.9-.2Q49.7 76 50.7 73" style="fill:#504f4f"/><path d="M38 14.3a7 7 0 0 1 4.7-4.4s1.2-5.8 9.5-4.7c2.6.4 4.3 2 5.8 2.6 1.3.6 2.7.4 3-1.8q2.8 1.1 1.6 4.6c1.7.4 2.3 1.8 2.7 3.4.4 1.8-.5 3.6-2.2 4.4-.5-1.8-2.6-2.6-4.3-2.5-1.4 0-3 .3-4.3-.2l-1.6-.7h-.2c-1.7 1 .7 5-1.2 7.6-.4.5-.7.3-.7.3l-.8-1.1q-1-1.4-2-1.3c-2.2.6-1.7 4.5 1 5.3q.2.2-1 2.3t-4.3 2c-2 0-3.3-1.5-3.3-1.5s2.3-1-.6-3.5c-2.9-2.4-1.2-5.3-1.2-5.3s-1.7-2.6-.6-5.5" style="fill:#3c2c23"/><radialGradient id="f" cx="-872.7" cy="703.8" r="1" gradientTransform="rotate(101 -8596.55 1328.29)scale(13.222 -9.81)" gradientUnits="userSpaceOnUse"><stop offset=".7" style="stop-color:#554138;stop-opacity:0"/><stop offset="1" style="stop-color:#554138"/></radialGradient><path d="M41.2 23.2c-1.7-2.1-5-5-3-9.6a7 7 0 0 1 4.5-3.7l.3 1.3c.5.7 1.7.7 1.7.7-3.7 4.6-3.3 7.5-3.5 11.3" style="fill:url(#f)"/><radialGradient id="g" cx="-1073" cy="807.2" r="1" gradientTransform="rotate(154.5 -2158.7 -1203.2)scale(3.393 -4.023)" gradientUnits="userSpaceOnUse"><stop offset=".6" style="stop-color:#554138"/><stop offset="1" style="stop-color:#554138;stop-opacity:0"/></radialGradient><path d="M54.2 5.8C55 6 56.5 7 56.8 7s1.6 1 2.6 1c1.4-.1 1.6-1.8 1.6-2 .2.8.5 4.7-2.3 4.7-1.7 0-2.7-1.5-3.3-2.7z" style="fill:url(#g)"/><radialGradient id="h" cx="-1197.5" cy="721.4" r="1" gradientTransform="rotate(2.7 57450.91 -73105.43)scale(-3.03 3.707)" gradientUnits="userSpaceOnUse"><stop offset=".7" style="stop-color:#554138;stop-opacity:0"/><stop offset="1" style="stop-color:#554138"/></radialGradient><path d="M62.6 10.6s-1-.3-2.2.2c1.2-.9.5-4.8.5-4.8.3 0 3 1.2 1.7 4.6" style="fill:url(#h)"/><radialGradient id="i" cx="-1030" cy="673.9" r="1" gradientTransform="matrix(-5.855 1 1.516 8.868 -6993.73 -4926.15)" gradientUnits="userSpaceOnUse"><stop offset=".6" style="stop-color:#554138;stop-opacity:0"/><stop offset="1" style="stop-color:#554138"/></radialGradient><path d="M62.6 10.6c1.9.4 2.6 2.5 2.7 3.7q.1 1.1-.2 2.1-1.4 1.9-2 2l-2.7-7.6c.6-.2 1-.4 2.2-.2" style="fill:url(#i)"/><radialGradient id="j" cx="-836.4" cy="471.4" r="1" gradientTransform="rotate(156 4774.16 470.36)scale(-10.638 5.978)" gradientUnits="userSpaceOnUse"><stop offset=".7" style="stop-color:#554138;stop-opacity:0"/><stop offset="1" style="stop-color:#554138"/></radialGradient><path d="M47.2 5.5a6 6 0 0 0-4.5 4.4c-.1.5.2 4.6 9-.9 3.2-2 2.9-3 2.5-3.2-1.3-.6-4.3-1.1-7-.3" style="fill:url(#j)"/><radialGradient id="k" cx="-622.3" cy="397" r="1" gradientTransform="rotate(178.5 1000.9 461.67)scale(-3.234 2.399)" gradientUnits="userSpaceOnUse"><stop offset=".5" style="stop-color:#554138"/><stop offset="1" style="stop-color:#554138;stop-opacity:0"/></radialGradient><path d="M43.9 27.3c.4-3.4-4.9-3-4.9-3l.9.9q1.1 1 1.3 2c.2 1-.8 1.4-.8 1.4s2.8.8 3.5-1.3" style="fill:url(#k)"/><radialGradient id="l" cx="-1116.6" cy="502.6" r="1" gradientTransform="rotate(46.9 4268.87 -4704.41)scale(-4.325 3.209)" gradientUnits="userSpaceOnUse"><stop offset=".7" style="stop-color:#554138;stop-opacity:0"/><stop offset="1" style="stop-color:#554138"/></radialGradient><path d="M38.6 19.8s2.2 3.4 2.9 3.6c.8.2-1.7 1.7-1.7 1.7s-2.8-2-1.2-5.3" style="fill:url(#l)"/></svg>