<svg xml:space="preserve" width="16" height="16" viewBox="0 0 128 128"><path d="m49.2 25 1.7-8.6c1.2-5.6 1.8-9.5 5-11.3a8 8 0 0 1 6.6-.7c6 2 6.5 13 7 27.9l-4.3-3.1c-.3-10.8-.4-19.6-4-20.8a4 4 0 0 0-3.2.3c-2 1.2-2 4.2-3 8.5l-1.6 8.6zm67.8 90.5s-.4 1-2.2 1-2-1-2-1V104l4.1 2zm-52.3-1.6s-.5 1.2-2 1.2-2.2-1.2-2.2-1.2V94l4.2 5.9z" style="fill:#78909c"/><path d="m89.8 113.6 28.1-7s-.8-2.2-2.2-2.6l-29 7.5z" style="fill:#82aec0"/><path d="M87.5 123s-.3 1-2.1 1-2.1-1-2.1-1v-11l4.2 2z" style="fill:#78909c"/><path d="m119.2 106.2-.3-8.5c0-2-1-3-2.3-3.7s-4-1.4-4-1.4c-8.4-3-12.8-7.9-15.7-16.5-2.2-6.6-10.6-29.5-15.4-41.5a21 21 0 0 0-11.7-12.2c-4-1.6-14.2-3.1-15.3-3.4l-4.2.4-1.5 8c4 .8 15 3 17.5 4q4.1 1.6 6.3 6.8c4.7 11.9 13 34.4 15.1 41a33 33 0 0 0 23.3 22.4l5 1.9.1 3.5z" style="fill:#82aec0"/><path d="M116.8 98.6a5 5 0 0 0-3.3-4l-2.9-1c-8.3-3-12.8-7.8-15.7-16.5-2.2-6.6-10.5-29.4-15.3-41.5a21 21 0 0 0-11.8-12.2c-4-1.5-16.3-3.8-17.5-4l-1.8 9.1c4 .8 13.4 3 15.8 4q4.2 1.6 6.3 6.7c4.8 12 13 34.5 15.2 41a33 33 0 0 0 23.3 22.5l7.8 1.3z" style="fill:#2f7889"/><path d="M60.5 94v6.5q2 3 4.2 5.3v-6zm22.8 18v3.3l4.2 1V114z" style="fill:#546e7a"/><path d="M73.7 105.5c.2-.3 22-6.4 22-6.4q2-.3 3.8.5c1.6 1 5 2 9.2 3.3.7.2.7 1.2 0 1.4L86 110.8z" style="fill:#b9e4ea"/><path d="M41.2 86.2s-.2 1-1.9 1.1c-1.9.2-2.4-.8-2.2-1.6l11.4-58.1 4 .8zM47 39.7l-26.7 6.6-.6 3 26.5-6.6s1.7-.3 1.9-1.5-.5-1.7-1.1-1.5m-2.3 12L18 58.3l-.6 3L44 54.7s1.7-.3 1.9-1.6c.1-1-.6-1.6-1.2-1.4m-2.2 11.9-27 6.7-.5 3 26.8-6.7s1.6-.2 1.8-1.5c.2-1.1-.5-1.6-1.1-1.5m-2.2 12-27 6.7-.7 3 27-6.7s1.6-.2 1.8-1.5c.2-1.1-.5-1.7-1.1-1.5" style="fill:#78909c"/><path d="m46 40-17.5 4.3 3.4 1 1.5.6 12-3-1.7 9-4.1 1 1 2.6L43 55l-.8 4.3 2.7 7.7 7.6-38.5-4.2-.8z" style="fill:#546e7a"/><path d="M87.5 111.7s-9.7.3-18.3-8.2c-9.9-10-26.5-58.2-31.4-61-7.7-4.3-14.3-8.7-14.3-8.7l24.7-6.2a87 87 0 0 0 16.4 4c1.5.6 4.4 2 6.9 8.5 4.1 10.5 10 28 15.2 40.1a36 36 0 0 0 8 13.3 56 56 0 0 0 22 10.5z" style="fill:#94d1e0"/><path d="M97.1 95.3 95 93.6a36 36 0 0 1-8-13.4c-5.2-12-11.2-29.6-15.3-40.1q-1.2-2.8-2.3-4.4l-25 6.3 22.4 58.1 2 2.7z" style="fill:#66b7c4"/><path d="m90.1 113.4-.3-8.5c0-1.7-1.3-3.1-3-3.5l-2.2-.5a22 22 0 0 1-16.7-15.3C65.7 79 57.4 56.1 52.6 44.1a21 21 0 0 0-11.8-12.2c-4-1.6-14-3.6-15.2-3.9l-3.4.5.3 8.7C27 38.2 35 40 37.3 41q4.2 1.6 6.3 6.8c4.8 11.9 13 34.5 15.2 41A33 33 0 0 0 82 111.2l5.4.8v2.2z" style="fill:#b0f2f7"/><path d="M87.3 107.3c-.1-2-1.5-3.7-3.4-4.2l-1.6-.4a23 23 0 0 1-16.7-16.3C63.4 79.8 55.1 57 50.3 45a21 21 0 0 0-11.8-12.2c-4-1.5-15-3.9-16.3-4.1l-2 9.4c4.5 1 12.4 2.7 14.8 3.7 2.7 1 5.3 2 6 4C45.9 57.4 54.4 83 56.6 89.4A33 33 0 0 0 79.8 112l7.7 2.2z" style="fill:#94d1e0"/><path d="M13 93.5s-.3 1-2.1 1.2q-.9 0-1.3-.2-1-.6-.8-1.5L22 25.6c1-5.6 1.8-9.6 4.9-11.4a8 8 0 0 1 6.7-.6c6.1 2 6.6 16.5 7.2 32.4 0 0-1.5.4-2.7-.2s-1.2-2-1.2-2c-.5-11.8-.5-24.9-4.6-26.2a4 4 0 0 0-3.3.3c-2 1.1-2 4.2-3 8.5z" style="fill:#78909c"/><path d="M112.8 107.8v1.9l4.1-1v-1.9z" style="fill:#546e7a"/><path d="M25.5 18.8q-.7-.6-.3-1.5a6 6 0 0 1 4.4-2.8c1-.1 1 0 1.2.4q.1.7-.8 1a5 5 0 0 0-3.1 2.3q-.7 1-1.4.6" style="fill:#cfd8dc"/></svg>