<svg xml:space="preserve" width="16" height="16" viewBox="0 0 128 128"><path d="M49.8 54.7s-2.7-.3-6.4 2.4c-2.9 2-5.2 4.8-8.8 7a41 41 0 0 1-13.2 4.5C10 70.9 4.3 79.6 4 86.7Q3.5 94.3 8.4 97c3.3 1.6 6.3.6 6.3.6s1.6 5 7 5.6c5.8.5 8.2-3.7 8.5-4s2.7-.6 3.4.3c.8 1.1 1.3 8.9 2 12.2.5 3.3 1.2 4 3.5 5s8.2 1.4 10.1-1.4 4.4-14.7 4.4-14.7L57 103s14.1 16.7 15 16.7l34.4-.2c4.7 0 15.6 0 16.6-.4s1.2-2.1.5-3.9-2.9-5.9-5.4-9.7l-3.4-5s1.5.2 3.2-.5c1.4-.6 1.6-2 .5-2.6-.7-.4-3-1.4-4.7-2.6l-3-2.3s2.8-.6 3.8-1.3.8-1.7.2-2.3-3-1.2-4-1.7c-3.5-1.6-6.2-3.9-10.2-7-3.7-3-10.2-8.7-12.5-11.3s-6-6-6-6-10-5.2-15.6-6.5c-9.2-2-16.7-1.6-16.7-1.6" style="fill:#875d51"/><path d="M13.7 80.4c-1.3.2-1.8 1.3-2 2.2-.1 1.9.3 4-.3 5.4-.5 1.3-2 2.8-2.3 3.6-.2 1 .6 1.9 2 1.6.7-.2 2.2-.9 3.4-2 1.1-1.3 2-3 2-3.8q.4-3.3 0-4.8c-.2-1-1-2.4-2.8-2.2m-3.3 17.1q.9 0 4.5-1.6 4-2 6.5-4.7c1.8-1.7 3.4-4 4.7-4.9q1.8-.9 2.9 0c.5.5.9 1.5.4 3-.7 2-3.3 4.7-6.4 6.4s-6 2-7.8 2.2a17 17 0 0 1-4.8-.4" style="fill:#533731"/><path d="M72.7 54.9s1-2.4 1.4-4.7a32 32 0 0 0-.4-13c-1.3-2.4-10.5 2.5-16.1 8.5-4.7 5-8.4 13.2-8.4 13.2s-.6-.6-.8.6c-.3 1.8 1.4 5.8 5.8 6.5 3.6.5 5.4-.7 6.3-1.4 1.9-1.5 3-3.6 6.9-3.5 2 .1 4.1.8 7.8 3 3.8 2.4 6 4 7.9 4.3 1.8.4 4.1-.5 4.1-.5s-4.9-6.2-8.6-9c-3.8-3-5.9-4-5.9-4" style="fill:#6c4b41"/><path d="M37.8 97c0 1 3.7 1.7 7.7 1.9 3.4.2 5.6-.1 6 .1.2.2-.2 5.5-.4 7.3-.2 2-.6 6.8-3.4 8.8a10 10 0 0 1-7.3 1.2 13 13 0 0 1-3.8-1.5c0 .2 1.6 3.6 7.3 3.6 8.3 0 8.6-4 9.5-9 .6-3.3.9-6.6 1.5-6.7.7 0 1.3 3 1.5 3.9l3.2 9.9c.4 1 .8 2.4 1.5 2.8.4.3 2.4.3 3.4.3h7.6s-2.9-3.3-4.6-5.7a208 208 0 0 1-10-16.7c.1-.3 2.6-2.8 4.2-7.1 1.3-3.4 1.5-9 1.4-10s-1.5-.8-2 .7c-.4 1-2.4 5.1-3.3 6.7a19 19 0 0 1-5 5.2c-2 1.2-6.1 2-8.4 2.5-2.6.6-6.5 1-6.6 1.9" style="fill:#533731"/><path d="M46.7 63.8q-3.1.1-3.2 5c0 2.7 1.8 4 3.3 3.9 1.6-.1 2.9-1.7 3-4.2 0-2.5-.6-4.6-3.1-4.7" style="fill:#060708"/><path d="M46.3 67c-.2 1.1-.7 2.4-1.7 2.2-.9 0-1.1-1.5-.8-2.8q.8-2 1.8-1.9 1.2.6.7 2.4" style="fill:#fffdff"/><path d="M48.4 59.3c0 .6.4 3.6 5.4 3.6 4 0 5.1-2.3 5.2-3.2s.1-3.7.9-5.4c1-2.2 2.2-4.2 8.2-5.5s10.2-1 18.7-3.4a55 55 0 0 0 32.6-24.2c1.2-2.3 1.1-5-.4-6-2.6-1.6-4.6 1-5.6 2.3a41 41 0 0 1-5.3 6.2c-2.4 2.2-5.3.8-4-1.5 1.2-1.8 2.4-3.1 3.4-5 .7-1.3 1-3.6-.8-5s-4-.6-5.4 1-3.3 5.3-6 7.8c-1.6 1.7-4.4 1.7-3.6-1.5.4-1.6 1.4-3.7 1.9-5.4.6-2 0-4.3-1.9-4.8s-3.8-.4-5.6 3.3c-2 3.9-4.3 8.6-6.4 11.8-.7 1.1-3.9 2.7-5.8.2-1.5-2-2.2-11.4-3.1-13.7q-1.4-3.5-4.3-3.2c-2.2.2-4 2-4 5.2s1 14.7 1 17c.1 2.1-.7 7-5.9 7.5-4.9.6-8.4-1.8-11.5-8-3.2-6.1-6.2-12.2-8-15.3q-2.4-4.1-5.5-2.7c-2 1-2.4 3.3-1.8 5.9 1 3.7 2.5 7 3.3 9.8s-1.2 5.5-4.3 3.6a61 61 0 0 1-11.5-10.2c-2.5-3-4.9-4.3-7.4-2.5-1.7 1.2-1.3 4.3.8 7.7a46 46 0 0 0 24 20c3.5 1.4 9.7 3.2 11.5 6.1s1.1 6 1.2 7.5" style="fill:#ec9168"/></svg>