<svg xml:space="preserve" width="16" height="16" viewBox="0 0 128 128"><path d="M14.5 4c-2 0-3.5 1.6-3.5 3.5v113c0 2 1.5 3.5 3.4 3.5h99.1c2 0 3.5-1.6 3.5-3.5V7.5c0-2-1.5-3.5-3.5-3.5z" style="fill:#607d8b"/><path d="M105.7 62.4H22.3a4.7 4.7 0 0 1-4.7-4.8V15c0-2.6 2-4.7 4.7-4.7h83.4c2.6 0 4.8 2.1 4.8 4.7v42.7c0 2.6-2.2 4.8-4.8 4.8m0 55.3H22.3a4.7 4.7 0 0 1-4.7-4.7V70.4c0-2.6 2-4.8 4.7-4.8h83.4c2.6 0 4.8 2.2 4.8 4.8V113c0 2.6-2.2 4.7-4.8 4.7" style="fill:#37474f"/><path d="M51.9 76.3h24.2v13.8H51.9z" style="fill:#fafafa"/><path d="M74.8 78.9s-1 2-1 5a15 15 0 0 0 1.4 6H52.8s1.4-3 1.4-5.6c0-3-1-5.4-1-5.4zm1.3-3.2H52a2.5 2.5 0 0 0-2.5 2.5v12.3q.2 2.3 2.5 2.5h24q2.3-.2 2.5-2.5V78.2q-.2-2.3-2.5-2.5" style="fill:#263238"/><path d="M75.5 77.4S74 79.7 74 82.5a16 16 0 0 0 1.5 5.9h-23s1.4-2.9 1.4-5.5-1.4-5.5-1.4-5.5zm.6-3.1H52a2.5 2.5 0 0 0-2.5 2.5V89c0 1.3 1.1 2.5 2.5 2.5h24c1.4 0 2.5-1.2 2.5-2.5V76.8q-.2-2.3-2.5-2.5" style="fill:#9e9e9e"/><path d="M52.3 75.7h8.2" style="fill:none;stroke:#c9e3e6;stroke-width:1.5756;stroke-linecap:round;stroke-miterlimit:10"/><path d="M71.4 109.2H58a8 8 0 0 1-8-8v-.7c0-1 .9-3.5 2-3.5 3.6 0 26 .1 26.2.5 3.4 5-1.2 11.7-6.8 11.7" style="fill:#263238"/><path d="M70.5 106.7h-13a8 8 0 0 1-8.1-8.2v-.4q.2-1.8 2-2h25.3c1 0 2 .9 2 2v.4c0 4.5-3.7 8.2-8.2 8.2" style="fill:#607d8b"/><path d="m58.6 100-6 .2c-.4 0-2-.2-1.6-1.9s4.5-1.2 6-1.2c5.4 0 6 .5 6 1.2s-.5 1.3-4.4 1.6" style="fill:#c9e3e6"/><path d="M51.9 20.9h24.2v13.8H51.9z" style="fill:#fafafa"/><path d="M74.8 23.4s-1 2-1 5.1c-.1 2.8 1.4 5.9 1.4 5.9H52.8s1.4-2.9 1.4-5.5c0-3-1-5.5-1-5.5zm1.3-3.1H52a2.5 2.5 0 0 0-2.5 2.5V35c0 1.4 1.1 2.5 2.5 2.5h24q2.3-.1 2.5-2.5V22.8q-.2-2.3-2.5-2.5" style="fill:#263238"/><path d="M75.5 22S74 24.3 74 27s1.5 6 1.5 6h-23s1.4-3 1.4-5.6-1.4-5.4-1.4-5.4zm.6-3.2H52a2.5 2.5 0 0 0-2.5 2.5v12.3c0 1.4 1.1 2.5 2.5 2.5h24c1.4 0 2.5-1.1 2.5-2.5V21.3q-.2-2.3-2.5-2.5" style="fill:#9e9e9e"/><path d="M52.3 20.3h8.2" style="fill:none;stroke:#c9e3e6;stroke-width:1.5756;stroke-linecap:round;stroke-miterlimit:10"/><path d="M71.4 53.7H58a8 8 0 0 1-8-7.9v-.7c0-1 .9-3.5 2-3.5 3.6 0 26 0 26.2.5 3.4 5-1.2 11.6-6.8 11.6" style="fill:#263238"/><path d="M70.5 51.2h-13a8 8 0 0 1-8.1-8.1v-.5c0-1 .9-2 2-2h25.3c1 0 2 1 2 2v.5a8 8 0 0 1-8.2 8" style="fill:#607d8b"/><path d="m58.6 44.5-6 .2c-.4 0-2-.2-1.6-1.8s4.5-1.3 6-1.3c5.4 0 6 .5 6 1.2s-.5 1.3-4.4 1.7" style="fill:#c9e3e6"/></svg>