<svg xml:space="preserve" width="16" height="16" viewBox="0 0 128 128"><path d="M23.4 116.3V109c7.4-1.9 67.8 0 81.2 0v7.4c0 4.3-18.2 7.7-40.6 7.7s-40.6-3.4-40.6-7.7" style="fill:#8b5738"/><ellipse cx="64" cy="108.5" rx="40.6" ry="7.7" style="fill:#ffb17a"/><ellipse cx="64" cy="108.5" rx="40.6" ry="7.7" style="fill:#cc8552"/><path d="M70 65.5q-1.2-.5-1.1-1.7-.1-1.2 1-1.7c4.6-1.8 27.7-10.7 27.7-38.3l-.1-4.9h-67l-.1 5c0 26.8 23 36.3 27.6 38.1q1.3.4 1.3 1.8T58 65.4c-4.6 1.9-27.7 10.7-27.7 38.4a7 7 0 0 0 5.3 6.5c5 1.2 14.4 2.5 30.5 2.5 14 0 21.7-1 26-2a7 7 0 0 0 5.4-6.6v-.6c0-26.8-23-36.2-27.6-38.1" style="opacity:.75;fill:#81d4fa"/><path d="m97.5 19-67-.1-.1 4.5S37.6 27 64 27s33.6-3.7 33.6-3.7z" style="opacity:.39;fill:#1d44b3"/><path d="M23.4 18v-8c7.1-.9 70.9 0 81.2 0v8c0 3.3-18.2 6-40.6 6s-40.6-2.7-40.6-6" style="fill:#8b5738"/><ellipse cx="64" cy="10.1" rx="40.6" ry="6.1" style="fill:#cc8552"/><path d="M90.6 108.6q1.5-.7 1-2.2c-3.2-6-16.6-6.1-21.6-17.3-3.4-7.4-3.6-17.8-3.7-22.2-.2-6 2.8-7.3 2.8-7.3C83.3 54 93.7 40.8 94.3 29c0-1.2-22.2 9.2-29.8 10.7-14.2 2.7-28.3-.9-28.3-.4A42 42 0 0 0 59 59.6c1.7.7 4.5 3.3 4.4 11.2 0 5.6-.8 20.4-10.5 26.7-3.6 2.3-11.6 5.8-13.1 9.6q-.5 1.4 1 2A117 117 0 0 0 65 111c10.3 0 20.5-1 25.6-2.4" style="fill:#ffca28"/><path d="M42.4 43.3c5.3 2.8 17 6.7 22.9 4.7s28.2-16 29-19c1-3.7-26 5.7-35.5 8-6.4 1.4-18.7.6-21.5 1.2-2.7.6.1 2.5 5 5" style="fill:#e2a610"/><g style="opacity:.6"><path d="M45.8 37.7c1.3 2.9 3.6 9.6.6 10.7-3 1.2-7.4-3.1-9.5-7.4s-2-10 1.2-10c3.2-.1 6 2.8 7.7 6.7" style="fill:#fff"/></g><g style="opacity:.6"><path d="M42.9 80.6c-3.1 3.7-5.5 8.6-4.6 13.3 1 5 5.6 3.7 7.2 2.4 5.2-4 3.8-9.3 7.8-15 .7-1 3.5-4.2 3-6.2-.1-1.1-2.9-1.7-7.8.7a19 19 0 0 0-5.6 4.8" style="fill:#fff"/></g></svg>