<svg xml:space="preserve" width="16" height="16" viewBox="0 0 128 128"><path d="M3.8 65.4V32.3s8-.7 14.4 2.9 14 13.6 16.9 15.9 6.8 6.2 8.7 7c2 .6 5.2.7 7.1 1.8 2.8 1.5 3.8 3.8 3.8 3.8l1.8 7.6L6.2 68zm120.4-.7V37s-4.3-.3-11.5 6.4-13 12.8-16.3 14-12 1.6-15.5 2.4c-5.2 1.1-8 5-8 5l13.7 3.8z" style="fill:#a7d0d6"/><path d="M124.2 63.7v53c0 4.1-3.4 7.5-7.5 7.5H11.4a7.5 7.5 0 0 1-7.5-7.5V64.4z" style="fill:#7db240"/><path d="M3.8 54.9v32.5h8.3c3.6-.1 8.1-.8 8.7-2 .6-1.3-2.8-18-4.9-18s-5 9.8-5 9.8S9 54.9 3.9 55M30 50.8c-1.5 0-6.4 15.3-5.5 16.4 1.7 2.1 10.1 1.6 11 0 .4-1-3.4-16.4-5.5-16.4M86.9 67c.5 1.6 9.2 1.8 9.6 0 .3-1.4-2.3-15.4-4.6-15.4-2 0-5.7 13.6-5 15.4m22.8-9.5c-1.3-.1-5.2 8-4.8 9.2s7 1 7 1-.6 2.7.6 3.5c1.3.9 9.5 1.2 10.3.2s-2-19.7-5-20c-1.5 0-4.4 11.1-4.4 11.1s-2.3-5-3.7-5" style="fill:#528d30"/><path d="M52.2 64H75s2.3 1.8 2.9 3.2c.5 1.5.2 2 1.4 3.2s3.3 2.5 4.9 4.8c1.5 2.2 1.9 5.2 2.9 6.9 2.4 3.9 6.2 6.4 7.8 8.9 3.3 5 2.5 8.7 5 13s6.5 5.7 8.4 9.8c2.5 5.4 1.4 10.4 1.4 10.4H14s.1-5.3 2.6-9.6c2.5-4.4 6-5.2 8-8.8 2.2-3.6 1.2-7.2 4-11.3 3.4-4.8 6-4.3 8.1-7.9 1.2-1.8 2-5 4.3-7.9 2.9-3.3 5-4 6.4-6.4 1.3-2.4 1.2-4 2.3-6 1.1-1.9 2.6-2.2 2.6-2.2" style="fill:#dad0c5"/><path d="M53.4 66.3s-.5 2 .4 2.2c1.1.2 19.5.3 20.1 0s.3-1.8.3-1.8zm-4.3 6.5v.9s-.2 1.2 1.5 1.4c1.5.2 24.3 0 25.4 0 1.2 0 2.4-1 2.5-1.8s-15.1-2.6-15.1-2.6zm-3.7 8-.7.7s-.4 1.6 1 2c.8.3 9.7 0 18.7 0h18.1c1.2 0 1.8-1.8 1.2-2.7-.2-.2-10.4-3-20-2.9-9.4 0-18.3 2.9-18.3 2.9M38 90.1s-1 1.5 0 2.7c1.2 1.4 16.6.1 27.7.3s21.5-.1 22.3-.3 1-2.6 1-2.6l-24.6-4.4zm-7.1 12.1c.3 0-1.2 2.7.1 3.7s22.5.8 32.8.8 28.8-.5 30.4-.8 2.4-2.2 2-3.2-3.6-2.2-3.6-2.2l-47.8-1zm-6.1 15-5.4 1.7s-.2 3.3.5 4.3c.5.8 1.2 1 1.2 1h80s3.2-.1 4.7-2c1.3-1.6.7-4 .7-4l-46-5.4z" style="fill:#88857c"/><path d="m54.7 64.8-1.2.2v1.2q0 .8.5.9h20.2s.3-1.6.2-2c0-.5-.8-1.2-.8-1.2zM50 70.5s-.7.4-.8 1.5q-.3 1.8 1 1.8H64l14.2-.3c.5-.1.6-1.7 0-2.2S50 70.5 50 70.5m-5.3 8.6s-.5 1.8 0 2.4c.4.7 38.3.4 38.7.3.3 0 .7-1.7.1-2.4S63 78 63 78zM38 89.2s-.3.8-.2 1.4q0 1.4 1.6 1.2c1.4 0 15.1-.2 25.6 0 10.6 0 23-.5 23.6-.7.5-.3.9-1.7.4-2.5-.3-.7-25-1.5-25-1.5zm-6.3 9.3s-1.3 2.6-1 4.4 1 1.6 2.9 1.6h31.3c10.1.1 27.8-.1 29.1-.2s1.9-1.8 1.8-2.8c-.2-2.5-2.2-4.9-2.2-4.9zM99 113.7l5.5 1.9s1.8 1.6 2 2.5c.2 1-.5 2.5-1.3 2.9s-44 .3-44 .3-39.6.3-40.2.2q-1.1-.4-1.6-2c-.2-1.1.4-2.3.8-3s9.7-2.8 9.7-2.8z" style="fill:#543529"/><path d="M25.6 109.7c-1 .4-4.7 5.6-5.4 6.7-.7 1 .7 2 1.9 2s84 0 84.3-.5c.3-.9-1.6-2.8-3.2-4.7l-3.5-4zm8.8-13.8q-1.2.2-2.7 2.6a3 3 0 0 0 .2 3l62.4-.1s1.5-1.4.1-3.7c-1.3-2.2-2.4-2.3-2.4-2.3zm6.9-10.5c-1 .3-3.3 3.6-3.3 3.8 0 .5 50.8.2 51.1-.1s-2-4-3.2-4.2c-.6-.2-43.3.2-44.6.5m5.5-8.8c-.4 0-2.6 2.3-2 3 .4.2 10.1.1 19.3 0 10 0 19.6.3 19.6 0 0-.4-2-2.7-2.7-3-.7-.4-33.1-.2-34.2 0m4.2-7.3c-.5.1-1.8 1.8-1.7 2.1s29 .4 29.2.2-1.3-2.2-1.7-2.2c-.5-.1-25.4-.2-25.9 0m2.6-4.4c0 .1 21 .3 21 0s-.4-1.3-.9-1.4l-19.1.1c-.5.1-1 1-1 1.3" style="fill:#b88956"/><path d="m61.5 65.6-21.6 58.3-5-.1-1.9-1.9 25.2-58 3-.5s.7.8.3 2.2m27 56.6S66 65.9 66 65.3s0-1.6.4-1.8c.2-.2 2.8.2 2.8.2L95.8 122l1 2.1-8.5-.1z" style="fill:#88857c"/><path d="M34.3 121.8c.3-1 23.8-58 24-58.5.5-.6 3.1-.3 3 .3L38.5 122q-.4 1.3-2.5 1.2c-2 0-2-.3-1.7-1.5m56.7.9c-.8-1.6-24.7-58.7-24.6-59 0-.5 2.2-.7 2.7 0S94.8 121.7 95 122s0 1.6-1.7 1.6c-1.8 0-2.3-1.1-2.3-1.1" style="fill:#c8c9c6"/></svg>