<svg xml:space="preserve" width="16" height="16" viewBox="0 0 128 128"><path d="M8.6 103.7v7.1l54.6-.6v-5zm58.1 2.2v4.4L93 114l27.6-3.4v-5.3l-22.6-5-25 3.4z" style="fill:#c0b699"/><path d="M8.7 117.7c0 .3 0 1.2.5 1.2h8.2v-9h-8c-.4 0-.7 0-.7 1z" style="fill:#db0d2a"/><path d="M17.3 109.9v9h4.2v-9z" style="fill:#044fab"/><path d="M21.4 109.8h10.4v9H21.4z" style="fill:#fcde97"/><path d="M31.8 109.8h9.4v9h-9.4z" style="fill:#db0d2a"/><path d="M41.3 109.9h3.9v9h-3.9z" style="fill:#7cda87"/><path d="M45.1 109.9h9.3v9h-9.3z" style="fill:#fcde96"/><path d="M62.9 109.9h-8.5v8.9h8q.8-.1.8-.8v-7.8q0-.3-.4-.3m12.4 8.8V110H67q-.2 0-.3.3v7.5q-.1.7 1 .8z" style="fill:#db0d2a"/><path d="M75.2 110.1H79v8.6h-3.8z" style="fill:#034dad"/><path d="M79 110.1h9.8v8.6H79z" style="fill:#fcde96"/><path d="M88.8 110.1h9.8v8.6h-9.8z" style="fill:#da0e28"/><path d="M98.6 110.1h4.2v8.6h-4.2z" style="fill:#ff5117"/><path d="M102.8 110.1h9.3v8.6h-9.3z" style="fill:#fcde96"/><path d="M120.4 110.1H112v8.6h7.2q1.3-.1 1.5-1.6v-6.6q0-.3-.3-.4" style="fill:#db0d2a"/><path d="M82.3 23.2c-.8.8-3.7 1.3-8.3 6a24 24 0 0 0-7 17.3c.1 7.4 9 11.8 12.2 13.8l6.5 4.2 16.8-2s5.3-3 9.4-6.6c3.7-3.2 5.1-4.7 5.4-9.8a23 23 0 0 0-8.3-17.8c-4-3.5-6.4-4-7.2-4.9-.9-.7-.2-7.6-9.5-7.8-9-.2-9.7 7.1-10 7.5" style="fill:#2f2f2f"/><path d="M33 90.6s-15 13.6-13.3 13.8 5 1 8.4 1.5c3 .4 6.6.5 6.6.5s6.8-10 6.6-10.2c-.2-.3-8.4-5.6-8.4-5.6M45 106.7h3c1.4 0 2.7-.5 2.7-.5l-1.4-7.3-7.6 1.6z" style="fill:#0a1237"/><path d="m78.8 90.7-5 14.2s4.5 2 19 2.3c12.9.2 21.1-3 21.1-3l-9.1-18.9z" style="fill:#db0d2a"/><path d="M40.1 56.2c-7.2 0-14.5 2.5-19.6 12-4.8 9-5.5 15-8.3 18.3-4.8 5.5-9.3 5.1-10.3 10-.6 3.1.8 9.3 11.3 9.6 11.7.4 18.3-10.6 19-11.4s1.5-2.3 2-2.2.4 14 .4 14 2.1.8 5.3.8 5.1-.6 5.1-.6l.3-5.2s1.7 2.6 5.4 4.7c2.4 1.3 9.1 3.2 12.5.6 3-2.4 3-10 3-10l1.6-9.4c1.2 1.3 1.5 1.5-3.9-5.9C60 76 58 67.2 51.7 61q-4.2-4.5-11.6-4.7" style="fill:#172d86"/><path d="M92.7 57.2c-3.7-.1-10.2.4-15.5 7-5 6.1-5.8 15.7-8.9 18.8-3 3.1-3.2 6.5-3.7 12.3-.3 3.8-.9 9.9 1.6 11.3 2.2 1.3 6 .7 10.6-2.9S86 91.4 86 91.4l13.7-.2s2.9 5.2 6.3 9c3.1 3.4 7.5 6.1 12.4 6.2 7.4 0 11-8.8 3-15.9-3.4-3-5.9-7.1-7.2-10-3.3-7-3.5-11-6.8-15.4a18 18 0 0 0-14.7-8" style="fill:#ff4f1c"/><path d="M29.6 59s0 7.3.4 7.5c.4.1 19.4.3 19.7 0 .2-.3.3-8.3.3-8.3zm17.7 22.4c1.9-2 3.4-4.2 4.5-4.6 1.4-.3 1.9.9 1.5 2.1s-1.5 3.4-4.8 4.6c-2.6 1-5.2 1.2-5.2 1.2s2.4-1.5 4-3.3M30 75s-4.5 3.1-7 4.3c-2 1-4 0-5.4 1.5-1 1-1.3 3.6 1 3s5.1-2.7 7-4 3.6-1.7 3.6-1.7z" style="fill:#091238"/><path d="M27.3 87.5s-1.9 3.3-6.6 5.7c-7.7 4-14.9.6-15.8 4.2-.7 2.3 2.9 6 9 5.6s9-3 12-6.4c2-2 4-6.6 4.7-9.4.3-1.4 1.2-3.8 1.2-3.8zm15.5 3.3s1 5.8 4.7 9.2c3.5 3.2 6.7 4.5 10.9 4.4s4.8-2.7 4.4-4.2q-.4-2.6-5.2-3.5-4.6-1-7.6-2.8c-3-1.8-4.5-3.3-4.5-3.3z" style="fill:#db0d2a"/><path d="M29.2 78.1V65.3h5v14.1z" style="fill:#f9df96"/><path d="M27.3 87.5s1.4-2.4 1.7-5q.3-4.2.2-4.4c0-.2 3.5-1 5.4.7 1.6 1.3 1.3 4.8-1.4 6.8s-5.9 2-5.9 2m18.9 3.5s-1.1-.7-2.5-3c-1-1.8-.4-3.3-.4-3.3s-3.8 0-5.9 1.5-2.3 3.2-1.8 4.1c.8 1.4 3 1.5 5.6 1.4s5-.7 5-.7" style="fill:#d9cbc7"/><path d="m85.4 58.2-.8.3s7 7.5 7.7 7.5c.7-.1 7.2-7.4 7.2-7.4l-1.2-.5-6.7-1z" style="fill:#d8cdc7"/><path d="M102.2 60s-3.5 3.4-3.2 9.3 3.4 11.9 3.4 11.9 1.9 2.4 5.5 3.4c3.4 1 5.8.5 4.5-1.6-1-1.8-4.5-.8-7.4-2.4-2-1.2-1.8-10.4-1.8-10.4s.3-2.8 1.2-4.5q1.3-2.5 1.5-2.4c.2 0-1.2-1.3-1.8-1.8zm-19.8-.4s2 1.3 3 5.2c1.1 4.5.5 6.7.5 6.7l-3.9 9s-2.7 2.6-5.4 4.2-3.6 1.4-4.3.5c-.6-1 0-2.6 2.8-3.3q4.1-1.2 5.4-2.7c1-1 1.5-8.4 1.5-8.4s0-3-1-5.4c-1-2-2-3.1-2-3.1l1.7-1.5z" style="fill:#db0d2a"/><path d="M85.5 84.7c-.7-.3-7.2 5.7-10.8 8-2.6 1.6-5 2.4-6.7 5-1.3 2-1.4 5.6 1.1 5.8 2.8.2 5.6-2 9.5-6.5s7.8-11.8 7-12.3m14.4.3c-.3.5 4.4 9.1 8.9 13.3 3.7 3.6 7.9 5.6 11.5 5 3.7-.7 3.6-6.3-.4-8.9s-9-4.3-11.7-5.5c-2-1-8-4.4-8.4-3.9" style="fill:#7ed989"/><path d="M92.7 88c.8 0 16.4-10.1 16.6-10.8s-5.1-10.6-16.7-10.3c-11.2.2-16 9.5-16 10S92 88 92.7 88" style="fill:#f9df96"/><path d="M84 30.8s-5.4 4.7-5.3 14.2c.1 8.3 5.4 15.4 13.3 15.5s13.7-6.3 13.7-15.4c0-10-5.8-14-5.8-14S96.6 33 92.2 33 84 30.8 84 30.8" style="fill:#f2edec"/><path d="M96.8 20a7 7 0 0 0 1.3 4c0 2.8-2.3 5.7-6.2 5.6s-6-3-6-5.6c0-3 1.3-4 1.3-4s-1.8-2.2-2.3-4-.2-3.4.8-4c2-1.3 3.7 1.5 3.7 1.5s0-4 2.7-4.1c2.9 0 2.7 4.2 2.7 4.2s2-2.9 4-1.7c1.2.8 1 3 .3 4.7-.9 2-2.3 3.3-2.3 3.3" style="fill:#fbc21f"/><path d="M24 39.6s-4.3-.3-4.1 5.2c.2 5 4.9 5.1 4.9 5.1zm30 .6s4.2-.8 4.2 4.4-4.6 5.6-4.6 5.6l-.5-6z" style="fill:#d7ccc7"/><path d="M30.5 15.4v5.4L22 21v3.3s6.1-.3 16.5-.2h16.9v-3.4h-7v-5.3z" style="fill:#868686"/><path d="M39.8 63.2c11.2 0 14.5-8.6 14.9-16.2.3-7.9.2-14 .2-15.8 0-3.3-1.8-6-4.3-6.8-2.6-.8-4.8-.7-4.8-.7s.3-7 0-9.5c-.4-2.4-1.5-5.5-6.5-5.4s-6.3 3.8-6.4 6v9s-3.8-.3-6 .9c-2 .9-3.7 2.8-3.7 6.7-.1 3.3-.2 14 .5 18s4 13.8 16 13.8" style="fill:#2f2f2f"/><path d="M29 34.5h20.4s-.2 2.3.6 4c1 1.9 2 2.6 2 2.6s1 7.4-1.3 13.1C49 58 45.4 61 39.3 61c-5.6 0-9.7-3.4-11.6-7-2.7-5.1-2-11.7-2-11.7s1.7-1.1 2.5-3.6.7-4.2.7-4.2" style="fill:#f2edec"/><path d="M46.3 42.6c-1.4 0-3.2-1-4 .2-.8 1.3.8 3.4 4 3.4s5.2-2.4 4-3.6-2.6 0-4 0m-14.2-.1c-1.2 0-3.1-1.4-4 0-.9 1.2.5 3.8 4 3.7 3.4-.1 5-2 4.2-3.4-1-1.5-2.8-.3-4.2-.3" style="fill:#2f2f2f"/><path d="M39.3 50.9c-3.2 0-4.2.4-4.3 1.1-.1 1.4 1.2 2.7 4 2.7 3.6 0 4.4-1.6 4.4-2.6s-.8-1.2-4.1-1.2" style="fill:#db0d2a"/><path d="M47 37.3c0 1-1 2-2.6 1.8-1.3 0-2-1.3-1.2-2.2s1.8-.9 2.4-.8q1.2.2 1.4 1.2m-15.3.4c-.1.8 1 1.4 2.3 1.4s2.3-.6 2.2-1.4-1-1.4-2.1-1.4c-1 0-2.4.6-2.4 1.4" style="fill:#848485"/><path d="M99.4 42c-1.5 0-3.2-.8-4 .4s.8 3.3 4 3.4c3.4 0 5.2-2.4 4-3.6s-2.6-.2-4-.2m-14.2 0c-1.2 0-3-1.2-4 .2-.9 1.2.5 3.6 4 3.6s5-2 4.2-3.3c-1-1.5-2.8-.6-4.2-.6" style="fill:#2f2f2f"/><path d="M92.2 50.4c-3 0-3.7.5-4 1.3-.2 1.3 1.1 2.6 4 2.7 3.6 0 4.3-1.6 4-2.7-.2-.9-.7-1.2-4-1.3" style="fill:#db0d2a"/><path d="M99.9 36.5c0 1-1 2-2.6 1.8-1.3 0-2-1.3-1.2-2.2s1.8-.9 2.4-.8q1.2.1 1.4 1.2m-15.4 0c-.2 1 1 1.7 2 1.8 1.2 0 2.4-.6 2.4-1.5s-1-1.5-2-1.6-2.3.4-2.5 1.3" style="fill:#848485"/></svg>