<svg xml:space="preserve" width="16" height="16" viewBox="0 0 128 128"><linearGradient id="a" x1="64" x2="64" y1="101.7" y2="25" gradientTransform="matrix(1 0 0 -1 0 128)" gradientUnits="userSpaceOnUse"><stop offset="0" style="stop-color:#757575"/><stop offset=".5" style="stop-color:#504f4f"/></linearGradient><path d="M75.3 74.5c.3-1.3-1.2-2.3-2.3-1.5q-5.2 4-11.8 4-9.9 0-15.7-6.8c-5.8-6.8-5.8-10.7-5.8-18.2q0-7.3 3-13.3c3-6 4.7-7.1 8.4-9.4A24 24 0 0 1 63.8 26q11.2 0 18 8.4c6.7 8.4 6.5 13.1 6.5 22.5v3.5q0 20.3-9 30.8C70.2 101.7 64 102 52 102q-1.4-.2-1.5-1.5v-7.3q.1-1.4 1.5-1.5h.3q11-.2 16.9-5.3 4.8-4.1 6.1-12m-11.2-7.2q3.6 0 6.7-2.1c3.2-2.2 5-5.9 5-9.7v-1q0-8.2-3.3-13.2c-3.3-5-5.2-5-8.7-5s-6.4 1.5-8.5 4.4S52 47.3 52 51.8q0 7 3.3 11.3c2 2.7 5.3 4.3 8.7 4.2" style="fill:url(#a)"/></svg>