<svg xml:space="preserve" width="16" height="16" viewBox="0 0 128 128"><linearGradient id="a" x1="64" x2="64" y1="66.8" y2="141.5" gradientUnits="userSpaceOnUse"><stop offset="0" style="stop-color:#424242"/><stop offset=".3" style="stop-color:#222"/><stop offset=".9" style="stop-color:#000"/></linearGradient><ellipse cx="64" cy="82" rx="57.1" ry="29.7" style="fill:url(#a)"/><linearGradient id="b" x1="64.1" x2="64.1" y1="50.8" y2="113" gradientUnits="userSpaceOnUse"><stop offset="0" style="stop-color:#bdbdbd"/><stop offset=".6" style="stop-color:#919191"/><stop offset="1" style="stop-color:#757575"/></linearGradient><path d="M118 95.7c25-27.3-28.8-49.4-65.6-44.4-41.9 3.6-69 33.4-29 53.8 30.5 15.4 79.4 7.9 94.6-9.4m-54 13.6c-24.1 0-45.2-7.9-52.9-18.5 13.7-34.2 94-32.3 105.8 0-7.7 10.6-28.8 18.5-52.9 18.5" style="fill:url(#b)"/><path d="M11.1 90.8q2.8-6.8 8.5-11.6L19 65C10.6 69.7 7.3 76.2 7.3 81.5c0 4.4 3.8 9.3 3.8 9.3m105.9 0a28 28 0 0 0-8.6-11.7L109 65c8.4 4.7 11.7 11.2 11.7 16.5 0 4.4-3.8 9.3-3.8 9.3" style="fill:#757575"/></svg>