<svg xml:space="preserve" width="16" height="16" viewBox="0 0 128 128"><path d="M119 7c-4.4-4-9-3-10.5-2.5q-.6.1-1 .6L6.2 105l17 17 100-103.6q.6-.6.7-1.3c.1-1.7-.1-5.8-5-10.2" style="fill:#f6bc41"/><path d="M30.8 113.9c1.1-4.2-.2-9.2-3.9-12.8s-8.7-5-12.9-4L6 105l17 16.9z" style="fill:#a65f3e"/><ellipse cx="14.6" cy="113.3" rx="9.1" ry="12" style="fill:#f6bc41" transform="rotate(-45 14.63 113.34)"/><ellipse cx="14.6" cy="113.3" rx="6.2" ry="8.2" style="fill:#3e2723" transform="rotate(-45 14.63 113.34)"/><ellipse cx="30" cy="92.3" rx="4.5" ry="4.6" style="fill:#3e2723" transform="rotate(-45.8 30.04 92.33)"/><path d="M28.6 90.9c1.6-1.5 4-1.5 5.7 0l-1-1.7a4.5 4.5 0 0 0-6.4-.2 4.5 4.5 0 0 0 0 6.4q.7.7 1.5 1a4 4 0 0 1 .2-5.5" style="fill:#a65f3e"/><ellipse cx="40.2" cy="82.2" rx="4.3" ry="4.4" style="fill:#3e2723" transform="rotate(-45.8 40.23 82.18)"/><path d="M38.9 80.8a4 4 0 0 1 5.4 0q-.3-.9-1-1.6a4.4 4.4 0 0 0-6.1-.2 4.3 4.3 0 0 0 0 6.2q.6.7 1.4 1a4 4 0 0 1 .3-5.4" style="fill:#a65f3e"/><ellipse cx="50.4" cy="72" rx="4.2" ry="4.3" style="fill:#3e2723" transform="rotate(-45.9 50.43 72.04)"/><path d="M49.1 70.7a4 4 0 0 1 5.3 0q-.3-.9-1-1.5a4 4 0 0 0-6-.2 4 4 0 0 0 0 6l1.5 1a4 4 0 0 1 .2-5.3" style="fill:#a65f3e"/><ellipse cx="60.6" cy="61.9" rx="4" ry="4.1" style="fill:#3e2723" transform="rotate(-45.9 60.62 61.9)"/><path d="M59.4 60.6a4 4 0 0 1 5 0l-.9-1.5a4 4 0 0 0-5.7-.2 4 4 0 0 0 0 5.8q.5.6 1.3 1a3.7 3.7 0 0 1 .3-5.1" style="fill:#a65f3e"/><ellipse cx="70.8" cy="51.8" rx="3.9" ry="4" style="fill:#3e2723" transform="rotate(-46 70.81 51.75)"/><path d="M69.6 50.5a3.6 3.6 0 0 1 4.9 0l-1-1.4a4 4 0 0 0-5.4-.2 4 4 0 0 0 0 5.5q.5.6 1.3 1a3.6 3.6 0 0 1 .2-4.9" style="fill:#a65f3e"/><ellipse cx="81" cy="41.6" rx="3.7" ry="3.8" style="fill:#3e2723" transform="rotate(-46 81 41.6)"/><path d="M79.8 40.4a3.4 3.4 0 0 1 4.7 0l-.8-1.4a4 4 0 0 0-5.3-.1 3.7 3.7 0 0 0 0 5.3q.5.6 1.2.9c-1.1-1.4-1-3.5.2-4.7" style="fill:#a65f3e"/><ellipse cx="106.7" cy="15" rx="3.4" ry="3.6" style="fill:#3e2723" transform="rotate(-43.5 106.67 15.02)"/><path d="M105.6 13.8c1.2-1 3.1-1 4.4.2l-.8-1.3a3.5 3.5 0 0 0-5-.3c-1.4 1.2-1.4 3.5 0 5q.5.5 1.2.8c-1.1-1.3-1-3.2.2-4.4m2.9 20.1s.7-5.6-4.6-11-10-4.3-10-4.3l-6.3 6s6.3 0 10.5 4.2 4.7 11 4.7 11z" style="fill:#a65f3e"/><path d="m14.8 100.3 2-1.9a2 2 0 0 1 1.6-.5c1.4 0 4.3.7 7.6 3.6.6.6.6 1.6 0 2.2l-2.4 2.5q-.9.8-1.8 0a14 14 0 0 0-6.5-3.8c-1-.3-1.2-1.5-.5-2.2M92.2 23l2.9-2.8q.6-.4 1.1-.4c1.6 0 4 .6 7.3 4q1.1 1.2.2 2.3l-2.1 2.1c-.7.7-1.8.7-2.4 0a15 15 0 0 0-6.4-3.6q-1.5-.6-.6-1.7" style="fill:#de7340"/></svg>