<svg xml:space="preserve" width="16" height="16" viewBox="0 0 128 128"><path d="M51.9 55S29 63.8 23.7 65.7C19.5 67 9.7 70.9 7.2 72s-3.3 2.2-3.6 4c-.3 2-.1 4.4.8 5.7s6.6 7 14 12.4 15.4 11.5 22.4 11.7c7.1.1 27.7-10.4 47.7-19.5s30-13.8 31.4-14.6 4.7-2.3 4.6-6.8c-.1-3.6-8-6.9-8-6.9L88.8 45z" style="fill:#6ca4ae"/><path d="M56 62.6s-8.8 3.4-11.9 5-27.4 10.6-27.4 10.6-6.1 2.5-6.8 3.3.6 2.7 1.4 3.8S23 94.6 27 97c4.3 2.7 9 5 10.6 5 1.6.2 9.8-1.4 9.8-1.4l36-14.6 22.2-10.4C111.5 73 117 70.1 119 69c1.8-1.2 4-2.6 4-5.4 0-2.1-1.9-3-4.2-4.4s-11.3-5.4-11.3-5.4z" style="fill:#a8cfd7"/><path d="M97.6 58.9 49.3 66s-2.2.7-1.7 2.2 3 2.5 6 4.3 21.4 12.8 24 12.8c.8 0 3.5-1.2 5.8-2.2 5.5-2.3 13.7-6.3 18-8.4 6.3-3.1 13.7-5.7 13.5-8s-4.6-3.7-4.6-3.7zM51.8 78.3c3.7 1 9.9 3.1 9.9 3.1l11.7 6.1-14 8-8 2.2s-5.3 1.2-8.5 1.2c-3.3.1-8-1.9-8-1.9z" style="fill:#6ba3ac"/><path d="M6 72.2s-1.5.7-2.2 2.3c-1 2.3.8 3.9 1.5 4.8 1.2 1.8 7 7 7 7s-2.1-2.3-2-4c0-.7.3-1.8.3-1.8s-2.8-3.2-3.3-4-1.4-2-.8-2.8c.5-1 1.8-1.5 1.6-2-.2-.2-1.3.2-2.1.5m31.3 29.4c-.7.5 3 1.4 8.3.7 5.7-.7 40.3-17.4 40.3-17.4s-.2-1-.8-1.4c-.7-.6-1.7-.4-1.7-.4l-32 14c-2 .9-7.2 2.9-8.5 3.3-2 .6-5.3 1-5.6 1.2" style="fill:#dcedf6"/><path d="M53.2 48.4s-4.6-12.1-3.5-13a153 153 0 0 1 35-12.5c1.3 0 6.8 1.8 11.9 3.5 5 1.7 16.2 6.3 16.3 9 0 2.8-17.3 23-17.3 23z" style="fill:#ffe265"/><path d="M78 48c.7-1.3 8.7-4.2 18.6-8a64 64 0 0 1 16.1-5c1.2.7 1 6.4 1 16.2-.2 7-.4 12.7-1.4 13.8s-11 5.7-16.8 8.4c-5.7 2.7-16.3 7.8-18.1 8-2.4.3-4.9-1-4.9-1z" style="fill:#feb502"/><path d="M48.8 66.4c1 2 6.9 5.2 12 8 5.7 3.1 13.4 7.9 15.7 7C78 80.5 78 66 78 60.1s.2-11.9-.1-12.3c-.6-.8-10.6-5.1-14-6.8-3.4-1.6-13.2-6.9-14.3-5.6-1 1.3-.7 8.8-.8 17.3s-.8 11.8 0 13.6" style="fill:#ffebc9"/><path d="M36.4 89 12.8 74.3s-1.8-.4-2 1-.7 5.8-.3 6.6c.5.9 6.5 5.9 9.7 8.2s12.7 9.4 13.6 9.4S41 93 41 93z" style="fill:#ffe265"/><path d="m33.9 91 7.6-7.9 20.2-1.7s1.8.3 1.8 1.8.3 5.1-.6 5.9-8 2.9-13.7 4.8c-6.8 2.4-14.6 5.7-15.5 5.5-.4 0 .1-8.4.1-8.4" style="fill:#feb502"/><path d="M37.8 68c-2.5-.2-11.4 3-15.2 3.8s-10.2 1.8-11 2.6 2 2.8 4.2 4.3c2.5 1.9 14.2 10 15.6 11 1.3 1.1 2.5 1.8 4.3 1 1.9-.7 7.7-3 13.9-4.7s13.6-3.7 13.3-4c-.3-.4-9-5.5-14.1-8.5-3.6-2-7.6-5.4-11-5.5" style="fill:#ffebc9"/></svg>