<svg xml:space="preserve" width="16" height="16" viewBox="0 0 128 128"><path d="M116 4H12a8 8 0 0 0-8 8v104a8 8 0 0 0 8 8h104a8 8 0 0 0 8-8V12a8 8 0 0 0-8-8" style="fill:#427687"/><path d="M109.7 4H11.5A7.6 7.6 0 0 0 4 11.5v97.9c0 4.2 3.4 7.5 7.5 7.5h98.1c4.2 0 7.5-3.4 7.5-7.5V11.5a7.3 7.3 0 0 0-7.4-7.5" style="fill:#8cafbf"/><path d="M39.7 12.9c0-2.3-1.6-3-10.8-2.7-7.7.3-11.5 1.2-13.8 4s-2.9 8.5-3 15.3c0 4.8 0 9.3 2.5 9.3 3.4 0 3.4-7.9 6.2-12.3 5.4-8.7 18.9-10.6 18.9-13.6" style="opacity:.5;fill:#b4e1ed"/><path d="M29.3 50a8 8 0 0 1-2.7-6.5q0-2.7 1.4-4.7c1.4-2 2.2-2.4 3.9-3.2q2.5-1 5.4-1 4.2 0 7.1 1.1v-1.1q0-2.3-1.6-3.6a7 7 0 0 0-4.5-1.3q-1.8 0-3.6.8a9 9 0 0 0-3 2.3l-4.3-3.5q2-2.5 4.9-3.8 3-1.4 6.3-1.4 6.1 0 9.4 2.8 3.1 3 3.2 8.3v16.5h-6.8v-2.8H44q-1.2 1.6-3.2 2.6a10 10 0 0 1-4.5 1 10 10 0 0 1-7-2.5m13.3-4.8a6 6 0 0 0 1.8-4.5 13 13 0 0 0-5.6-1.2q-5.3 0-5.3 4 0 1.6 1.1 2.6t3.3 1a6 6 0 0 0 4.8-1.9m41 6.1a8 8 0 0 1-3.2-2.8h-.4v3.2h-6.4V14.2h6.8v10.2l-.4 3.8h.4a10 10 0 0 1 8-4A12 12 0 0 1 99.7 31q1.8 3.2 1.7 7.3 0 4.1-1.7 7.4a13 13 0 0 1-11.2 6.8q-2.7 0-4.8-1.2m7.2-6.1q1.7-1 2.7-2.8t1-4.1-1-4.1a7 7 0 0 0-6.3-3.7 7 7 0 0 0-6.2 3.7q-1 1.8-1 4 0 2.4 1 4.2a7 7 0 0 0 6.2 3.8q2 0 3.6-1m-57.4 57.3a13 13 0 0 1-5-5 15 15 0 0 1-1.8-7.4q0-4 1.8-7.3a13 13 0 0 1 5-5q3-1.8 7.2-1.9 4.5 0 7.6 2 3.3 1.8 4.6 5.4l-6.2 2.6q-1.8-3.6-6-3.6-3.1 0-5.2 2.2c-2 2.2-2 3.3-2 5.6q0 3.6 2 5.8c2 2.2 3 2.1 5.2 2.1q4.3 0 6.3-3.8l6.2 2.8a13 13 0 0 1-5 5.4q-3 2-7.5 2-4 0-7.2-1.9m45.1 0q-3-1.8-4.7-5c-1.7-3.2-1.7-4.6-1.7-7.4q0-4 1.7-7.3c1.7-3.3 2.7-3.9 4.6-5q3-2 6.6-1.9a10 10 0 0 1 8 4.1h.5l-.5-3.7V66h6.9v37.5h-6.4v-3.2H93a8 8 0 0 1-3.1 2.9 12 12 0 0 1-11.4-.6M89.9 97q1.6-1 2.7-2.8 1-1.8 1-4c0-2.3-.4-3-1-4.2a7 7 0 0 0-6.3-3.7A7 7 0 0 0 80 86q-1 1.8-1 4.1c0 2.3.3 3 1 4.1a7 7 0 0 0 6.2 3.8q2 0 3.6-1" style="fill:#fafafa"/></svg>