<svg xml:space="preserve" width="16" height="16" viewBox="0 0 128 128"><path d="M14.8 37.3s-1.2 1.3-2 3.7c-.7 2.5-.3 5-.3 5s3.7 2 10 2.2c5.2.2 8-.7 12-3.6S45 46.4 48 47.8s30 11.8 30 11.8l19.7 1.2s.7-2.1 0-7.3-5.5-9.3-9.1-10.8c-3.7-1.5-6-1.7-6-1.7l-24-14s-6.6-.5-13.3 1c-5.1 1.1-15.8 10.9-22 10.7s-8.6-1.4-8.6-1.4" style="fill:#d43330"/><path d="M58.6 20.8 56 7s1.3-1.9 3.8-2.3 4.3.8 4.3.8l2.4 16h1.9L70 7s1-1.2 4.2-.7c3 .5 3.4 1.8 3.4 1.8l-1.6 15-16.8 7-7.4-.9-9.3-13.6s.2-2.3 2.5-3.6 4-1.1 4-1.1l8.9 13 .8-.8zm16.2 21.5s2-1 4.5-1.3 3.3 0 3.3 0 3.5-4.5 0-12.7-14.8-10.3-21-8.2S47.7 27 46.9 36.8l-1.1 15 6 3 23.4-3.6z" style="fill:#f44236"/><path d="M68.2 27.2s1.8.8 5-.3c3.7-1.3 10.6-3.3 13.3-4.6s5-3.6 6.5-4c1.5-.5 5.4-.3 7.2 3.5S98.8 29 98.8 29l-17.2 4.3-6.4 6.9-1.5 6.9V53l28.6 21.8s.4 7.3-3.5 18.6-7.5 18.7-9 21.5-1.5 6.4-5.6 8c-4 1.7-12.2-2.6-21.6-6.7s-21.4-11.7-26-17.8S28 86 26.8 76.5s3.1-19.1 7.8-21.7 15.6-2 15.6-2 .7-1.2 5-2.6 7.4-1.8 7.4-1.8l-1.1-7.5.8-8.5z" style="fill:#d43330"/><path d="M80.6 57s3.7-3.6 9-3 10.5 6.2 11.8 11a34 34 0 0 1 0 15.7c-1.1 4-6.1 14.1-12.8 14.1-3 0-4-2.5-4.2-3.6s1.6 7.8-3 9.7c-4.3 1.7-3.7-1.2-3.7-1.2l2-4.5s-8.3-14.9-12-19.5c-4-4.7-15.7-14-15.3-18.3s1.5-6.2 5.7-7c4.2-1 9.3 0 9.3 0l8 4z" style="fill:#fe5f5f"/><path d="M50.9 65.4s-2.4 4.3-5.7 0c-3.3-4.4-6-8.4-5.8-17.7s.8-14-.4-18.9q-1.8-7.4-1.6-7.6l-3.3 3-3.1.8-2-1.1s-1.9.3-1.2 1 3 4 4.1 6a25 25 0 0 1-.1 17.6 30 30 0 0 0-3.8 18c.7 4.3 5.3 9.8 5.3 9.8l3.4 2.5 7.7-.7 6-6.3z" style="fill:#ff6a65"/><path d="M36.5 16c-3.1-.4-7.4 1.8-8.7 4.7-1.1 2.7-.5 5.6 3 5 3.4-.6 5.1-2.4 5.8-3s2.4 6.1 2.8 10 0 13 0 16.3c-.1 4.4 1.2 16 5.2 18.4 2.8 1.6 5-.6 6.8-.8l-.8-6.2-3-9.2-1-2.4c-.8-2-.8-14.9-2.2-21.5-1-4.2-4-10.7-8-11.3" style="fill:#ff8f8c"/><path d="M95.8 20.8c-.6 1-.5 4.3-.5 4.3s-8.8 2.6-13 5c-4 2.2-8.7 5.7-10 11.3s.5 9.4.5 9.4-2.8-1.3-5-2c-2-.8-3.8-1.1-3.8-1.1s-.1-4.4-.5-5.8c-.3-1.3-1.2-2.8-1.2-4.5s1-4.8 2.4-6.6c1.2-1.7 3.9-3.5 3.9-3.5s-.2-.2-1.2-.2c-2.3-.1-5.3 2.3-6.7 6-1.4 3.6-.8 9.2-.7 11.6l.1 3.2s-2.8.4-4.9 1c-2 .5-5.6 3-5.6 3s-1-.8-1.9-2c-.7-1.1-1.6-4.1-1.6-4.1s.5 6 1.6 9a32 32 0 0 1 2 14.1c-1.2 5.2-4.9 8-9.3 8.1S33 74.3 31 71c-1.4-2.6-3.2-8.8-3.2-8.8s-.6 2.5-.5 4.6c0 2.2 1.1 7.3 5.4 10.7 3.8 3 6.7 3 9 2.9 4-.3 9.2-4.4 10.4-9.6s0-10-.4-11.6l-1.2-4.3s3.6-3.7 7.7-4.5c4.2-.7 11.3 1.6 14.4 3.6s10.6 8.3 10.2 13-3.5 8-4.7 9.5c-1.5 2-3.6 3.4-3.1 4.4.6 1.5 2.7-.1 4.2-1.3 1.6-1.2 3.6-3.8 4.6-5.4s1.9-4.4 1.9-4.4 2.5 2.2 3.3 6c.9 3.8-.4 8.8 1.2 8.5s2.2-4.9 1.9-9c-.4-4.2-3-7-4.3-8.4-1.4-1.5-2.1-2.8-2.1-2.8s-2.6-6.5-5.8-9.2c-4-3.3-5-11-3-14.4q3.8-6.6 10.2-7.9c5.8-1.2 8.6-1 11.2-1.3 2.3-.2 3.4-2.8 3-5.7s-1.6-5-3.1-5.7c-1.2-.5-2 .5-2.4 1M39.3 79.3s2.2 6.7 2.2 9.6-.3 6-2.2 7.5c-1.9 1.6 2.5 1.8 3.8-.5 1.7-3 1.2-5 1.2-5l2 2.2s2.1 5.9 5 9.4c3.3 3.8 5.8 4.5 9.5 4.5 3.9 0 4.3-1.7 2.7-1.8s-5-.2-7.3-1.7a15 15 0 0 1-5-5.6c-.7-1.2-2-4.3-2-4.3s3.2 1.4 4.4 0c1-1.2-3.3-2-4.5-2.6-2-1.1-3.2-3-4.2-4.8-.9-1.6-2.6-6.9-2.6-6.9zm42.4-4.5s.2 6.2-.2 10.3c-.3 4-1.1 8-2.8 10.7-1 1.8-3 3.4-3.6 4.5-.5 1.1.6 1.8 1.8 1.1s3.4-2.7 4.4-4.8l1.7-4s1.3 4.9 2 6.3c.9 1.4 2 4.3 3.3 3.7s0-2.8-.4-3.8c-.5-1.2-1.5-4-2-6.4s-1-10.6-1-12.7-.3-7-.7-8.8-2.5 4-2.5 4" style="fill:#a62714"/><path d="M29.5 23c.6 1.1 2.5.8 4.8-1 2.5-1.7 2.9-3.5 1.7-4.3-1-.7-3.1 0-4.6 1C30 20 29 21.5 29.5 23" style="fill:#f44236"/></svg>