<svg xml:space="preserve" width="16" height="16" viewBox="0 0 128 128"><path d="m76.7 61.5 25.7-27.6-2.6-7.4-12 6.3-11.5 20.8c-1.7 3.2-2 4.5-1.7 5.6.1.9 2.1 2.3 2.1 2.3" style="fill:#82aec0"/><path d="M117.5 14c-4.3-2.7-10.2-1-13.2 4a12 12 0 0 0-1.7 5.1c-.2 1.3-2.3 2.8-3 3.2q-.2.2-.1.4l2.8 7q.1.3.4.1l.9-.6c2.3-1.3 4.1-1 4.9-.7 3.9 1.1 8.5-.8 11.1-4.9 3-4.9 2.1-11-2.1-13.6m-8.9 14c-2.5-1.6-3.1-5.2-1.3-8.1 1.9-3 5.4-4 8-2.4s3 5.3 1.2 8.2-5.3 4-7.9 2.3" style="fill:#de3e31"/><circle cx="92.5" cy="36.2" r="2" style="fill:#b9e4ea"/><circle cx="92.5" cy="36.2" r="2" style="fill:#b9e4ea"/><path d="m94.4 29.3.9-.5 4 4.5.2 3.7-2.8 3zm-7.7 5.5-1.4 2.5 1 6.4 2 2.4z" style="fill:#2f7889"/><linearGradient id="a" x1="51.6" x2="51.6" y1="34.5" y2="3.8" gradientTransform="matrix(1 0 0 -1 0 130)" gradientUnits="userSpaceOnUse"><stop offset="0" style="stop-color:#00bfa5"/><stop offset=".5" style="stop-color:#00b29a"/><stop offset="1" style="stop-color:#009e89"/></linearGradient><path d="M47.3 96H47c-16.4 0-33.2 3-43 10v18h95v-3c0-16.7-26.2-25-51.8-25" style="fill:url(#a)"/><path d="M74.6 50.4H19.9c-5.9 0-10.7 5.2-10.7 11.4S14 73.3 20 73.3h54.7c5.9 0 10.7-5.2 10.7-11.5s-4.8-11.4-10.7-11.4M38 90v10c0 4.6 3.8 8.2 9.1 8.2s9.1-3.6 9.1-8.1V90z" style="fill:#3c2b24"/><path d="M47.3 11c-17.4 0-33.6 18.7-33.6 45.5 0 26.6 16.6 39.8 33.6 39.8S80.8 83 80.8 56.5C80.8 29.7 64.7 11 47.3 11" style="fill:#70534a"/><path d="M55.7 76.1a26 26 0 0 1-16.8 0c-1.9-1-3.7.6-3 2.3s6.5 5.4 11.4 5.4 10.5-3.8 11.3-5.4c.7-1.7-1.1-3.4-3-2.3" style="fill:#1a1717"/><path d="M51.1 68h-7.7q-1 .5-.7 1.7c.3.7 1.7 2.7 4.6 2.7s4.2-2 4.5-2.7q.4-1.2-.7-1.6" style="fill:#33251f"/><ellipse cx="30.8" cy="58.8" rx="4.9" ry="5.1" style="fill:#1a1717"/><ellipse cx="63.7" cy="58.8" rx="4.9" ry="5.1" style="fill:#1a1717"/><path d="M23 50.7c3.3-4.5 10.8-4.6 14.5-.8.7.7 1.3 1.5.9 2.5q-1 1.4-2.6.5a13 13 0 0 0-7.6-.9l-3.1 1.1c-1.5.5-3-1-2-2.4m46.4 2.4q-3.3-1.6-7-1.2a13 13 0 0 0-3.2.8c-.8.3-1.7.9-2.6.3-2.4-1.7 2-4.4 3.2-5 2.8-1.2 6-1 8.7.3q1.7.9 2.9 2.4c.7 1.3-.4 3-2 2.4" style="fill:#1a1717"/><path d="M85.6 42.4c-1.2-1.6-1.4-3-1.5-3.1C82.8 24 75.6 4.1 47.5 4 2 4.3 11.2 56.2 11.2 56.2l5.1 8.8a95 95 0 0 1 4.8-25.6 6 6 0 0 1 6.8-3.8 111 111 0 0 0 19.4 1.8h.2c7.8 0 14.9-1 19.3-1.8a6 6 0 0 1 6.8 3.8A90 90 0 0 1 78.5 65l5-8.5s5.3 1.2 12-1.7a15 15 0 0 0 8.3-8.2c-13.8 2-17.5-3.3-18.2-4.2" style="fill:#232020"/><radialGradient id="b" cx="46.8" cy="86.4" r="37.3" gradientTransform="matrix(1 0 0 -1.045 0 133.88)" gradientUnits="userSpaceOnUse"><stop offset=".8" style="stop-color:#444140;stop-opacity:0"/><stop offset="1" style="stop-color:#444140"/></radialGradient><path d="M85.6 42.4c-1.2-1.6-1.4-3-1.5-3.1C82.8 24 75.6 4.1 47.5 4 2 4.3 11.2 56.2 11.2 56.2l5.1 8.8a95 95 0 0 1 4.8-25.6 6 6 0 0 1 6.8-3.8 111 111 0 0 0 19.4 1.8h.2c7.8 0 14.9-1 19.3-1.8a6 6 0 0 1 6.8 3.8A90 90 0 0 1 78.5 65l5-8.5s4.5 1.3 12-1.7c6.3-2.6 8.3-8.2 8.3-8.2-13.3 2-17.5-3.3-18.2-4.2" style="fill:url(#b)"/><path d="m90.9 68-5-39.4L92 24l6.3 12.2-2.7 25.6c-.4 3.6-1 4.9-1.7 5.6s-3.1.7-3.1.7" style="fill:#82aec0"/><circle cx="92.5" cy="36.2" r="2" style="fill:#b9e4ea"/><path d="M75.4 13.6c-.3 4.8 2.4 9 6.3 10.4.7.2 2.4 1 3.5 3.4l.4 1q.1.2.4 0l6.3-4q.2 0 .1-.3c-.2-.8-1.1-3.3-.5-4.4.4-.8 1.5-3 1.6-5.2C93.8 8.7 90 3.9 85 3.6s-9.3 4.2-9.6 10m3.6.1c.2-3.4 2.7-6 5.7-6 3 .2 5.3 3.1 5.2 6.6-.2 3.4-2.8 6-5.8 6-3-.2-5.3-3.1-5.1-6.6" style="fill:#de3e31"/></svg>