<svg xml:space="preserve" width="16" height="16" viewBox="0 0 128 128"><path d="M74.7 26.7s5.7-14.4 12.2-13.1c7.4 1.4 3.3 18.7 3.3 18.7zm-19.4-2.4s-7-13.7-12.7-11.7-1.6 20-1.6 20z" style="fill:#ffb903"/><path d="M48 25.3s2-2.4 18.4-1.8S92 29.8 92 29.8s5.7-4.4 11.2-6.2c8.2-2.8 19.3 1.9 20.2 3.7.7 1.3-3.1 13.5-8 17.7-5.5 4.7-11.4 4.4-11.4 4.4s-1.3 8.5-1.6 14.9c-.1 3.6.4 7.5 1 9.4a74 74 0 0 1 3.3 19.5L41.3 76.6z" style="fill:#dfdfdf"/><path d="M38.8 75.5s10.2-2.7 13-4.1C54 70 67 64.4 68 46.8S56.6 24.1 54.9 23.7a28 28 0 0 0-16.1 6s-6.5-6.8-16.6-7.8-17.8 4.4-17.9 5c-.1.8 3.8 14.6 11 19.4 2.1 1.4 4.8 2 6.7 2.3 4.8.7 6.7 0 6.7 0s-.7 7.5-.9 11.3-.2 9.2-.6 13c-.3 2.6-3.7 9.2-3.8 14 0 3.3 15.4-11.4 15.4-11.4" style="fill:#bc8954"/><path d="M65.7 74.4c12.2.3 15-1.8 23.3-1.3s19 9.3 18 21.9-11.5 21.5-22.6 24c-11.1 2.6-36 2.9-47.7-3.5-11.8-6.3-14.3-15-14.4-23S28 73 41 71.7s12.7 2.5 24.7 2.8M98 39.6c-2.2-3.6 0-9.4 6.5-10.9 6.6-1.4 13.1 1.6 13.1 1.6s-2 7.7-6.5 10.6c-3.9 2.6-10.2 4-13.2-1.3M25 29.1c-5.8-1.8-13.4.6-13.4.6s.3 3.4 2.7 6.6c1.4 2 3.6 4.3 7 5.5 8 2.6 11-2.2 11.6-4.3.6-2.2-.6-6.1-7.8-8.4" style="fill:#ffd3b0"/><ellipse cx="49.5" cy="57.3" rx="6.8" ry="5.4" style="fill:#0a0a0a" transform="rotate(-81.8 49.52 57.3)"/><ellipse cx="83.6" cy="57.7" rx="5.4" ry="6.9" style="fill:#0a0a0a" transform="rotate(-8.9 83.67 57.74)"/><path d="M73.1 99.5c-3-2.3-1.3-8.5 3.7-12 5.3-3.7 10.7-2.3 11.7 0 1.3 2.8-.2 4.6-1.7 5.8-1.6 1.2-3.6 1-5 1.7-1.2.8-1.8 2.7-3.6 4.3-1.6 1.5-4 1-5 .2M40.5 87.9c1-4.2 7.6-4 12.5-.4 5 3.9 6 9.4 3.9 11.3-2.5 2.1-4.8 1-6.3-.2-1.5-1.3-2-2.3-3-3.3-1.2-1-3.2-1.3-5.3-2.5q-2.5-2-1.8-5" style="fill:#2e2f31"/></svg>