<svg xml:space="preserve" width="16" height="16" viewBox="0 0 128 128"><path d="M67.8 14.3s4.5 4.3 11.5 7c8 3.1 21.9 1.3 25.2 7.6 3.6 6.7-3.7 14.3-2.5 18.2s13 4.6 14.5 13.7c1.5 9.3-6 13.2-5.3 16.3.8 3.6 9.3 5 9.5 11.7.2 5.2-4.6 10-5 13.2-.7 5.4 2.8 8.2.7 13.5-1.1 3-3.8 4.4-5.8 4.8S96 101.2 96 101.2L65.7 17.5z" style="fill:#845846"/><path d="M49.1 31.9S37 40.3 31.1 47L17.6 62.2c-.5.4-8.8 4.8-10.8 12.7-1.3 5.2 1.7 12.8 6 15.2s8.8 2 13.7-.6c5-2.7 8.5-5.5 8.5-5.5s9.8.1 13.8-.2c5-.4 10.8-1.5 10.8-1.5s-2.5 10-3.3 16.3c-1 8-4 19.5-3.2 20.4.7 1 7.9 2.8 18.5 3.6 12.1.9 27.3-.3 31-.9 4-.7 7.6-1 8-1.8a197 197 0 0 0-17-68.4q-4.5-9.2-11.3-16.7c-6.8-7.5-7.7-6.6-7.7-6.6s1-2.5.6-5.6-5.1-12.5-6-14.3-2.6-5.1-4.5-5c-1.8.2-3.4 6-4.5 9.9s-4 12.3-4 12.3z" style="fill:#feaf5f"/><path d="M26.3 22.8c-1.6 1 .8 8.5 4.6 12.2 4.3 4.3 11 6.8 19.7 4.4 8.6-2.5 10.7-8 10.7-8s-2.8-3.3-3-7.1 1.6-9.8 1.6-9.8-2.8-1.3-7.9.7-12.4 10-16 10.6c-4.9.6-7.7-4.2-9.7-3" style="fill:#825948"/><ellipse cx="53.5" cy="54.1" rx="4.4" ry="5.3" style="fill:#00000d" transform="rotate(-3.6 53.54 54.12)"/><path d="M67.8 75c-3.2 2.7-7 4.7-9.3 6-1.7.9-5.3 2-6.2 2.4A35 35 0 0 0 70.5 81c3.1-2 5.5-8.8 6-10.6s2.7-8.9.7-9-5.5 10.3-9.4 13.5" style="fill:#cd935f"/><radialGradient id="a" cx="7" cy="87.8" r="39.1" gradientUnits="userSpaceOnUse"><stop offset=".5" style="stop-color:#ffe5c6"/><stop offset=".6" style="stop-color:#ffdab2"/><stop offset=".7" style="stop-color:#fec88e"/><stop offset=".8" style="stop-color:#feba74"/><stop offset=".9" style="stop-color:#feb264"/><stop offset="1" style="stop-color:#feaf5f"/></radialGradient><path d="M32.1 49.2 24 58.4c-1 1.2-4.5 6.3-4.5 6.3s-5.1 1.9-7.6 5-4.1 8.4-2 13.2 5.8 8.4 11.7 6.7c6.4-1.8 12-7.4 12-7.4s8.5.3 11.1.2c2.6-.2 13-3.5 13-3.5l-21-34.7z" style="fill:url(#a)"/><path d="M18 70.1c-1.4 1.2.2 3.6.7 4.9s.1 3.7 1.9 3.8 3.2-4.3 2.4-6.6-3.3-3.6-5-2" style="fill:#513635"/><path d="m12.3 90 4.2-2.7c1.5-1 7.7-6.1 7.7-6.1l1.8 1.6s-3.3 3.5-5.7 5.4-3.9 2.5-5.3 2.7a4 4 0 0 1-2.7-1" style="fill:#2d3133"/><path d="M26.4 79c1.7.9.8 2.7.3 3.4-.6 1-2 2-3.2 1s.2-3.2.9-3.8q1-.8 2-.5" style="fill:#000502"/></svg>