<svg xml:space="preserve" width="16" height="16" viewBox="0 0 128 128"><path d="M62.3 53c-36 .4-57.8 15.6-57 36.5.8 22.2 28 35.2 59.8 35.1 36.1 0 56.8-17.5 57.3-34 .5-19.2-18.8-38.2-60.1-37.7" style="fill:#dbdad8"/><path d="M62.3 51.2c-33.8.4-54.4 15-53.7 35 .8 21.3 28 34 56.3 33.7 32.8-.3 53.6-16.8 54-32.6.5-18.4-17.7-36.6-56.6-36.1" style="fill:#f6f6f6"/><path d="M36.7 68.4s-6.5 1-10.6 4.8-5.6 13.6 1.3 22.3 13.8 7.4 13.8 7.4 3 3.1 5.5 4.6 6.3 3.7 7.6 5 4.3 4.2 6.3 3.7q1-.5 1.3-1c.4-.5 0-.9-.1-1.3-.3-.5-8-6-8-6l-.3-1.7s4 1.6 6 3c2.2 1.4 6 3.7 7.4 3.5s1.7-.8 1.9-1c.8-1-.8-3.1-.8-3.1s1.4-.8 4-.7 14.3 1.6 19.7-3.2c3.3-3 4.1-5.2 4.2-6.6l.2-1.5s8 1 11.1-3.7 3.8-11.1 2-14.1-3.6-5.6-3.6-5.6-.4-2.6-2.9-4.2a20 20 0 0 0-6.2-2.6z" style="fill:#ffa726"/><path d="M77.6 102.6s3.3-1.2 5.2-2.3 3.7-2.5 4.6-1.7c1 .8-.6 2.7-2.9 3.3-3.3.8-6.9.7-6.9.7m-45.4-8.1s.9 1.8 2.7 3c1.6 1 3.2 1.7 3.4 1.2s-.2-.6-1-1.4c-.6-.6-1-1.3-1-1.3s-1 0-2-.4c-1.2-.4-2.1-1.1-2.1-1.1" style="fill:#f6f6f6"/><path d="M69.2 79c0 .2 1.8 2.5 4.4 2.4s4.9-3.3 4.9-3.3l-7-1c0 .2-2.3 2-2.3 2m34.5-2.6s1.7-3.5-1-5.7c-2.5-2.3-5.5-2.5-5.5-2.5l-4 2.3s4.1.2 6 1.1 2.3 2.3 1.8 2.8-2.5-.6-5.6-.6c-3.2 0-4.5.7-4.5.7l.3 2.8s7.3-.9 10.2 2c3 3 3.7 9.4-2.3 11.3-6.1 1.8-12.2-5.3-19.5-4.2-6.3 1-8.6 8.4-8.6 8.4s3.3-3.8 8.5-5.2c3.8-1 10.1 2.9 10.1 2.9l-3.9.2s-3.1-2.2-7.3-.7c-4.7 1.6-8.5 7.4-15.2 8.6A25 25 0 0 1 46.1 97a37 37 0 0 1-9.9-10.7c-.5-1-1.2-2.2-.6-2.6.6-.5 1.4 1.2 2.2 2.2s9.1 13.6 23 12.5 9-12.8 9-12.8 3.3 1 6.5.1c4.8-1.3 6.8-5.4 6.8-5.4l-3.2-.5s-3 3.4-6.8 3c-3.8-.2-5.9-3-5.9-3L64.1 81l2.2 2.4s-2.5-.7-4.6-.1c-2.2.5-3.5 1.7-2.6 3s3 0 3.5-.2c1-.4 3.8-.2 4.7 2.2s.3 6.4-5.5 7c-5.7.7-13-1.8-18-6.5s-4.4-6.8-7.6-8.5c-2.9-1.6-4.4.5-4.2 3 .2 2.9 2.5 6.8 2.5 6.8s-4-3-4.7-7q-1-6 2-6c2-.2 2.3 1.1 2.8.6s-2.1-4.2-5.8-2c-3.6 2-2 8-1.6 9.5.6 2.2 2.9 6.5 6 7.8 2.3.9 3.2.2 3.2.2s4.1 4.8 8 7 10.5 4.9 14.8 7c4.3 2.3 7.3 4.6 8.3 5 1.1.3 2.5-1.2 1.4-2.7q-1.8-2-3.3-2.8l-4-2.2s1.8.3 3.3.2q2.3-.3 2.2-.4c-.1 0 0 2 1.6 2.4s3.6-.5 6.5-.1c4.4.5 13.8.5 17.3-5s-.2-7.8-.2-7.8 9.2 2.6 13.4-4c4.2-7-2-13.3-2-13.3M76.4 95.9c3.1-2 5.5-1.5 5.5-1.5s-2.2 1.7-5 3.2a22 22 0 0 1-5.5 2.2c.3-.1 3-2.6 5-3.9m8.7 7c-5.6 1.6-12.4 0-12.4 0s5.5-1.9 8.4-4.1 7.5-4.4 9.2-2.3c1.6 2-2 5.4-5.2 6.3m-4.5-17.9c0 .1 3.3-.3 6.9 1.2 3.6 1.4 11.3 5.7 13.7.7 2.3-4.5-1.3-7.3-4.8-7.6q-3.6-.5-5.1.2c-1.3.5-1.3 2.5.6 2.5 2 0 7-.6 6 3-.8 2.9-6.9-1-9.6-1.8-4.3-1.2-7.5.7-7.7 1.8m14.9 10.6q.4.5.4 1.1V98c0 .2 11.3 2.2 14.8-8 2-6-.4-11.3-1.7-13.2s-3-4-3.4-3.8c-.4.1 0 2.6 1 4.2 1.1 2 4 7.8 1.3 12.7-4.1 7.6-12.4 5.7-12.4 5.7m-55.7-24c0 .9 1.4 4.3 5.8 10 3 3.8 6.9 5.9 9 6.1 2.4.3 2.5-2.5.6-3.2q-3.1-1.2-5.4-3.2c-3-2.7-4.6-6.2-4.6-6.2L42.4 72zm15.8 18c-3.6-.7-8.3-2.4-12.9-9.5s-6.2-10.5-9.9-11.2-9 1.4-11.2 7.9c-1.4 4.3-.7 15.7 7.5 22.8s11 5.7 12.2 4.4c.9-1 .7-2.4.7-2.4s1.7 2.2 5.2 4.5c2.2 1.4 5.3 3 7.1 4.5 2.8 2.3 4 4 5.7 4.7 1.4.7 3-.2 2-1.7s-3.2-3.4-5.2-5c-1.4-1.3-3.5-2.5-3.5-2.5l-5.5-2.2c-4.7-2.2-7.9-5.1-8.1-5.2-.3-.1.1 2.7-2 2.5-2-.2-8.4-5-11-10.2-2.4-4.5-3.1-11-1.5-14.3 2-4 5.4-4.1 7.2-3.9 2.3.4 3.7 3.2 5.3 5.6s8 13.2 16.7 14.9C64 95 66 89.4 64.6 88.8s-3.4 1.9-9 .8" style="fill:#f7df92"/><path d="M39 62.4s-7.4 2.3-7.5 6c-.1 2.3 5.7 3.6 9.5 5.7 3.8 2 7 6.7 12.5 8 5.7 1.5 10.1-.7 12.5-1.3s6-1.8 8.7-1.4c2.7.3 7.5 1.8 11.3 1s6.1-3 7.5-5.5c1-2 1.2-4.1 1.2-4.1s4-1.5 4.2-4.1c.4-3.4-5.2-5.1-5.2-5.1z" style="fill:#bc2a16"/><path d="M35.4 64c0 .4 2.8 1.2 5.7 1.1q4.3 0 6.5 2.1c1.3 1.6 1.3 6 6.6 7.9 5.7 2 13-2 19.2-2.3s8.2 1.3 12.4-.7 4-6.2 5.2-7.8 2.8-2.7 2.8-2.7-3.2-1.2-5.6-2.5-5.2-3.5-7.4-4.5l-5.5-2c-.7-.2-4.4-2.6-8.4-2.4-4 .1-9.2 2-11 2.7-1.7.7-6.6.8-9.8 3.7S43 60.7 40 62c-2.2.8-4.5 2-4.5 2" style="fill:#dc4e20"/><path d="M75.4 65c-.1 1.6 1 3.2 3.5 3.2s3.5-2 3.2-3.5q-.6-2.6-3.7-2.4a3 3 0 0 0-3 2.7m-3.9 3.3c-1.3.5-1.5 2-1.2 2.6q.6 1.1 2.5 1c.8-.2 2-1.3 1.6-2.5-.4-1.3-1.7-1.7-3-1.1m-25-5.4c.2 2 2.3 3.4 5.3 2 3.3-1.5 2.8-4.1 1.7-5.5-1-1.3-3.1-1.3-4.5-.7-1.6.7-2.8 1.6-2.5 4.2" style="fill:#bc2a16"/><path d="M60.2 22.7c-1 2-.6 3-.3 6l.8 8.8s-1.2-.2-1.2.9c.1 1 5 19.3 4.8 19.4s-1 7.6-.5 7.9c0 0 .7.5 1.8-.8s.7-7.4.3-10.5-1.9-7-2.6-9.3-.7-4-.7-4l.7-.5.6-.7s-.2 2.6.8 6.5c.5 2 2 5.4 2.5 8.9.7 5-.2 8.2.3 8.8.8 1.2 2.2.2 2.8-2.5.4-1.7-.3-8.6-1.5-11.9s-1.7-5.5-2-7.2l.1-2.8s.5.7 1.3.5c.7-.1 1.1-.7 1.1-.7L67.8 37l-1.7.3s-.9-1.4-1-2.6-.8-6.1-1-6.3l-2.4-4.8zm-8.5 3.5s-.6-.8-1.9.1c-.7.5-.6 2-.5 3.7a29 29 0 0 0 1.2 6.3c.8 2.4 3 4.8 5 4.7s-.6-2.4-1.8-5.9c-1-2.7-1.2-6.1-1.3-6.4z" style="fill:#fbc11a"/><path d="M42.8 31.2c0 .5.6 1.5 1.8 1.3l21-4.8-.9-2.2-15.5 4c-.8.3-5.5 1.3-5.8 1.4zm.5 3q-.2 0 .3.8 0 .6 1.5.6L67.9 32l-.2-1.7-1-.9zm1.1 3.5s0 .8.7 1.1a256 256 0 0 0 23-1.7c3.2-.4 8.4-1.5 13-4.4s6-9 6.9-11.1c.8-2 3.9-6.3 8-7.5 4.3-1.1 13.7-3.4 17.9-4.2s6-1.4 6.9-2.5.7-2.8.7-2.8-13 2.1-13.4 2.3l-15.4 4.8-9.4 9.2-12.6 12.2-7.5 2.2z" style="fill:#adadad"/><path d="M117.5 3.3c1.5-.3 3.3-.5 3.8.3.5.7.2 1.6.2 1.6l-16.9 4.2c-3.7.8-10.8 3.4-12.4 4.3s-3.9 3-5.4 5.3-3.4 8-6 10.8-8.7 5-13.5 6-22.8 2.4-22.8 2.4-.5-1.1 0-1.3c.3-.2 3.7-.5 3.7-.5L66 34c.5 0 1.3-.5 1.3-1.2s-.1-1.6-1.1-1.7-21.7 4-22.5 3.9c-.6 0-.7-1.2-.2-1.3s21.8-4.4 22.1-4.7-.4-2.2-1-2.3c-.5-.2-20.8 5-21.2 5-.5.2-1.1-.8-.3-1.2.7-.5 11.4-3.2 13.2-3.7s15-3.5 18.3-4.4a18 18 0 0 0 7.7-4c1.5-1.4 5.3-5 7.6-6.2a94 94 0 0 1 27.5-8.8" style="fill:#d0d0d2"/><path d="m67 22.4-1.5.7 2.9 5.3.6 6.8-.1 3.2s2.4.6 2.4.3l.4-7.6-1.3-6.3z" style="fill:#ffa724"/><path d="M51.5 31.2c0 .2 0 1 1.2 1s1.2-1 1.2-1.8l-.2-3c0-.3 0-1 .4-1 1 0 1.8 2.3 2.1 6 .4 4.3-.1 5.5-1 5.9-.5.2-.7.1-1.3.6-.3.3 0 1.6.9 2q.6.3 1.5.2c2.4-.3 2.8-5 2.6-8.3-.4-5.2-1.1-6.2-2.1-7.6a3 3 0 0 0-4.3-1q-1.4.8-1.3 3.3z" style="fill:#fcc01e"/><path d="M53.2 24.3c-.1.5.5 1 .9 1.4q.8.7 1.5 2.4c.3.7.7 3.5 2 3.2 1.5-.3.7-3.3.2-4.4-.5-1-1-2.3-2.5-3-1-.4-2 0-2.1.4" style="fill:#fddd9c"/><path d="M63.7 20.9s-1-.2-2.2.5c-.6.4-1.5 1.2-1.5 2q0 .8.2 1.1.4.3 1.2 1.4c.7 1.3 1.7 2.8 2 4.5q.8 4.6-.3 6.6C62 39 62 38 62 38l2.7 1.3s.7-1.5.7-2L65.2 27s1.3 1.6 1.7 3.6.6 4.3.5 5.3l-.4 2.3 2.5 1.4s.4-.3.6-1.7c0-.8 0-3.5-.2-6q-.4-2.3-.6-2.2l-3.1-6 .6-1.7 1.3 1 1.5 2.7.7 2.3s1 2.8 1 5.4-1.3 5-1.3 5l-1.5 1.8s-.3 1.6 1 1.9 2.4-1.4 3.1-3.3q.8-1.5 1-4.7c.1-2-.4-4.5-1-6.7-1.2-4.3-3.6-5.7-5-6.7-1.5-1-4 .2-4 .2" style="fill:#fbc11a"/><path d="M61.8 22.2s-1 .3-1.3.9c-.5.8.5 1.5 1 2s1.5 2 2 3.3c.7 1.4 1 3.8 1 5.1 0 2.7-1 4.3-1 4.5-.2.3 0 1 .8 1.1q1.4 0 2.1-3.5a16 16 0 0 0-.5-7.1c-.7-2.2-1.9-4-1.8-4.2s1.4.8 2.5 3.6l1.3 3.6c.2.8 1 1.2 1.5.7.8-.7.1-3.4-.8-5.6-.8-1.7-2.1-3.5-2-3.6 0-.1 1.7.6 2.6 2.2.8 1.4 1.3 3 2.2 2.9s1-2.5-.4-4.5a10 10 0 0 0-3.6-3c-.8-.3-1.8-.7-2.7-.3q-.7.5-.7.7c0 .2-.7-.4-1.6.1-.7.4-.6 1.1-.6 1.1m-.4 16.3c-.2-.2-1.5-.5-1.8.3q-.7 1.3 0 4.9c.7 3.6 2.6 8.6 3.2 12.2 1 6 0 8.7.3 9.2.2.8 1.3.8 1.6 0q.5-1 .5-4.5a35 35 0 0 0-1-8.6c-.8-2.3-2-6.4-2.5-8.8-.6-2.6-.3-4.7-.3-4.7" style="fill:#fddd9c"/></svg>