<svg xml:space="preserve" width="16" height="16" viewBox="0 0 128 128"><path d="M116 4H12a8 8 0 0 0-8 8v104a8 8 0 0 0 8 8h104a8 8 0 0 0 8-8V12a8 8 0 0 0-8-8" style="fill:#c33"/><path d="M109.7 4H11.5A7.6 7.6 0 0 0 4 11.5v97.9c0 4.1 3.3 7.5 7.5 7.5h98.1c4.1 0 7.5-3.3 7.5-7.5V11.5c0-4-3.1-7.4-7.2-7.5z" style="fill:#f44336"/><path d="M39.7 12.9c0-2.3-1.6-3-10.8-2.7-7.7.3-11.5 1.2-13.8 4s-2.9 8.5-3 15.3c0 4.8 0 9.3 2.5 9.3 3.4 0 3.4-7.9 6.2-12.3 5.4-8.7 18.9-10.6 18.9-13.6" style="fill:#ff8a80"/><path d="M36.3 48.2a59 59 0 0 1-9.3 9.9 2 2 0 0 1-2.8-.3L22 55.2a2 2 0 0 1 .3-3 54 54 0 0 0 12.6-13 1 1 0 0 0-.8-1.6h-8.5a2 2 0 0 1-2-2v-3q.2-1.8 2-2h11.7q.9-.1 1-1V24q.2-1.8 2-2h3.9a2 2 0 0 1 2 2v5.7q.1.9 1 1h9.2a2 2 0 0 1 2 2v3a2 2 0 0 1-2 2h-9.2c-.5 0-.8.8-.3 1L59 47a1 1 0 0 1 .2 1.4l-2.5 3.2c-.7.9-2 1-2.9.3l-6.2-5.2a1 1 0 0 0-1.6.8v11.4q-.1.9-1 1h-4.9a2 2 0 0 1-2-2v-9a1 1 0 0 0-1.8-.6M24.8 75.7h75.4a2 2 0 0 1 2 2v3.2a2 2 0 0 1-2 2H67.6a1 1 0 0 0-1 .9V104a2 2 0 0 1-2 2h-4.9a2 2 0 0 1-2-2V83.9q-.1-.9-1-1h-32a2 2 0 0 1-2-2v-3.2c0-1.1 1-2 2.1-2m22 16q-6.4 6.8-14.1 11.8c-1.1.7-2.6.6-3.6-.2l-1.4-1.2a3 3 0 0 1 .4-4.9q7-4 12.4-10.1a3 3 0 0 1 3.2-.9l1.8.6a3 3 0 0 1 1.3 4.9M35 62.7h56a2 2 0 0 1 2 2v3a2 2 0 0 1-2 2H35a2 2 0 0 1-2-2v-3q.2-1.8 2-2m40.9-15.8q-4.7 6.1-11 10.7a2 2 0 0 1-2.7-.4q-1-1.4-2.2-2.6a2 2 0 0 1 .4-3.1q7.7-5 13.2-12.3a1 1 0 0 0-.8-1.6h-8.1q-2.8-.2-2.8-2v-3q.2-1.8 2-2h12.8q1-.1 1-1V24q.2-1.8 2-2h4a2 2 0 0 1 2 2v5.7q.1 1 1 1h12.6a2 2 0 0 1 2 2v3a2 2 0 0 1-2 2H92a1 1 0 0 0-1 1q0 .4.3.7a101 101 0 0 1 10.8 11.1c1 1.2.8 3-.3 4.1l-1 .9a3 3 0 0 1-4.2-.2l-.2-.2q-4.2-5.2-8.9-9.9a1 1 0 0 0-1.7.7v11.9q0 2-1 1.9h-5a2 2 0 0 1-2-2V47.5a1 1 0 0 0-1.9-.6m6.5 39.3Q90 91 96.9 96.5a3 3 0 0 1-.2 4.8l-1.6 1.1a3 3 0 0 1-4-.1Q84.9 96.7 78 92a3 3 0 0 1 .1-5l1.2-.8q1.6-.9 3.1 0" style="fill:#fafafa"/></svg>