<svg xml:space="preserve" width="16" height="16" viewBox="0 0 128 128"><path d="M124.2 28v87.4c0 4.9-4 8.8-8.8 8.8H12.6c-4.9 0-8.8-4-8.8-8.8V12.6c0-4.9 4-8.8 8.8-8.8h89.6c3.6 0 7 1.6 9.2 4.4l10 12.2a12 12 0 0 1 2.8 7.6" style="fill:#616161"/><path d="M104 124.2H24v-53c0-1.8 1.5-3.2 3.3-3.2h73.4c1.8 0 3.2 1.4 3.2 3.2z" style="fill:#fff"/><path d="M24 111.9h79.9v12.3H24z" style="fill:#039be5"/><path d="M16.8 3.8v47.8c0 1.8 1.5 3.1 3.6 3.1h76.7c2 0 3.6-1.3 3.6-3.1V3.8z" style="fill:#424242"/><path d="M35 3.8v45c0 1.7 1.2 3 2.7 3h57.5c1.6 0 2.8-1.3 2.8-3v-45zm51 42.7q-.1 1.2-1.3 1.3H67.3q-1.2-.1-1.3-1.3V9.1q0-1.1 1.3-1.3h17.4q1.2.1 1.3 1.3z" style="fill:#e0e0e0"/></svg>