<svg xml:space="preserve" width="16" height="16" viewBox="0 0 128 128"><path d="M64 4a60 60 0 1 0 0 120A60 60 0 0 0 64 4m50 60c0 11.5-4 22.7-11.3 31.6L32.4 25.3A50 50 0 0 1 114 64M14 64c0-11.5 4-22.7 11.3-31.6l70.3 70.3A50 50 0 0 1 14 64" style="fill:#c33"/><circle cx="60.1" cy="63.1" r="56.1" style="fill:#f44336"/><path d="M95.6 102.7a50 50 0 0 1-70.3-70.3l7.1-7.1a50 50 0 0 1 70.3 70.3" style="fill:#fff"/><path d="M95.6 102.7a50 50 0 0 1-70.3-70.3l7.1-7.1a50 50 0 0 1 70.3 70.3" style="fill:#231f20"/><path d="M96.4 103.2A47.9 47.9 0 0 1 29 35.8l6.8-6.8a47.9 47.9 0 0 1 67.4 67.4" style="fill:#414042"/><g style="opacity:.2"><path d="M75.7 22.5c2.1 0 4.2 1.4 4.2 3.8v29.4h.5c2 0 3.6 1.6 3.6 3.5v9.5a3.6 3.6 0 0 1-4.1 3.5v29.5c0 2.4-2 3.8-4.3 3.8q-1.9 0-3.5-1.5a120 120 0 0 0-22.7-20.6h-11a3 3 0 0 1-2.8-2.8V47.4c0-1.6 1.2-2.8 2.7-2.8h11.1s9-5.5 22.7-20.5q1.6-1.6 3.6-1.6" style="fill:#424242"/></g><path d="M82.4 71.7c1.9 0 3.4-1.5 3.4-3.3v-8.8a3.3 3.3 0 0 0-6.7 0v8.8c0 1.8 1.5 3.3 3.3 3.3M58 82H39.8a2.6 2.6 0 0 1-2.6-2.5v-31c0-1.4 1.2-2.6 2.6-2.6h18zM42.5 45.9h2.6V82h-2.6zm28.8-19.1c-12.7 14-21.1 19.1-21.1 19.1v36.2s8.5 5.1 21.2 19.1c2.4 2.7 7.2 1.4 7.2-2.1V28.9c0-3.5-4.8-4.8-7.3-2.1" style="fill:#fafafa"/><path d="M78.5 24.8h3.6v78h-3.6z" style="fill:#414042"/><path d="M51.6 44.8c.8 1.7 2 6.1 10.3 16 .3.4 1.5 2 .8 2.7q-1 .6-2.5-1.2c-4.1-4-8-9.3-10.8-15.3-1.6-3.4 1.1-4.6 2.2-2.2" style="fill:#fff"/><path d="M23.4 35.6 95 102.1l2-1.9-66.4-66.8" style="opacity:.8;fill:#231f20"/><path d="M103.9 96.8 25.3 18.9 18.2 26l78.6 77.9" style="fill:#f44336"/><path d="M45 10.9c1.7-.4 4.2-1.6 5.9-1.1 1 .3 1.8 1.4 1.5 2.5q-.6 1.3-2 1.5-5.9 1.5-11.3 4.1A52 52 0 0 0 21 33.7c-1.9 2.7-3.4 5.5-5.8 7.8q-.3.3-.8.4l-.5-.1q-1.6-.6-1.2-2.3.3-1.5 1-2.9 1.5-2.7 3.3-5.1a46 46 0 0 1 6.6-8A57 57 0 0 1 45 10.9" style="fill:#ff8a80"/><path d="m32.4 25.3-2 2 71.1 71.1 1.8-2.2z" style="fill:#c33"/></svg>