<svg xml:space="preserve" width="16" height="16" viewBox="0 0 128 128"><path d="M102.7 78.5a8 8 0 0 0-1.3-4.2V53.7q1.3-2 1.3-4.2c0-2.2-.4-2.9-1.3-4.2V20.5H26.5v24.8q-1.2 2-1.2 4.2c0 2.2.4 2.9 1.2 4.2v20.6q-1.2 2-1.2 4.2c0 2.2.4 2.9 1.2 4.2v20.6a8 8 0 0 0-1.2 4.2c0 9.1 17.3 16.5 38.7 16.5s38.7-7.4 38.7-16.5a8 8 0 0 0-1.3-4.2V82.7a8 8 0 0 0 1.3-4.2" style="fill:#2686c6"/><path d="M90.3 58.4c5.3-2.3 8.7-5.2 9.4-7.9q.4-1 1.4-1 1.3.1 1.5 1.3l.1-1.3a8 8 0 0 0-1.3-4.2V20.5H85L60.6 37l11.6 2.8c2.7.7 4.7 3.2 4.7 6.2v11c0 2.6 2.3 4.6 4.8 4q4.7-1 8.6-2.7m11.2 16V53.7c-3.2 5-11.9 9.2-23.2 11.1Q71.6 66 64 66a61 61 0 0 1-32.6-7.7c12.8 14.2 38.3 11.9 38.3 11.9l2.7-.2a4 4 0 0 1 4.5 4.2v13.5c0 1.7 1.5 3 3.1 2.7q5.7-1 10.3-3 8.2-3.7 9.4-7.9.4-1 1.4-1 1.3.1 1.5 1.3l.1-1.3a8 8 0 0 0-1.2-4.2m0 29V82.8c-3.2 5-11.9 9.1-23.2 11Q71.6 95 64 95c-15.5 0-28.8-3.9-35-9.5 11.7 17.6 40.7 15 40.7 15l2.8-.3a4 4 0 0 1 4.4 4.1v8.8c0 3.7 3.4 6.4 6.9 5.5q3.5-1 6.6-2.2c5.2-2.3 8.7-5.1 9.4-7.9q.3-1 1.3-1 .7 0 1.5 1.2a7 7 0 0 0-1.1-5.4" style="fill:#2167a1"/><ellipse cx="64" cy="20.5" rx="38.7" ry="16.5" style="fill:#b0bec5"/><path d="M37.7 58.4c-5.3-2.3-8.7-5.2-9.4-7.9q-.2-1-1.4-1c-.9 0-1.6 1-1.4 1.9 2 7.5 16 13.5 33.6 14.4q1.5 0 1.6-1.5-.2-1.3-1.4-1.5c-8.2-.4-15.7-2-21.6-4.4m0 29c-5.3-2.3-8.7-5.1-9.4-7.9q-.2-1-1.4-1c-.9 0-1.6 1-1.4 1.9 2 7.5 16 13.5 33.6 14.4q1.5 0 1.6-1.5-.2-1.3-1.4-1.5c-8.2-.4-15.7-2-21.6-4.4m0 29c-5.3-2.3-8.7-5.1-9.4-7.9q-.2-1-1.4-1c-.9 0-1.6 1-1.4 1.9 2 7.5 16 13.5 33.6 14.5q1.5-.1 1.6-1.6-.2-1.3-1.4-1.5c-8.2-.4-15.7-2-21.6-4.4" style="fill:#56bfe6"/><path d="M29.4 23.7c0-4.8 4.5-7.1 9-9 6.8-3 15.9-4.6 25.6-4.6s18.8 1.6 25.6 4.6c4.4 1.9 9 4 9 9l2.8-2.4c-2-10.1-18.3-16-37.4-16s-36 5.7-37.4 16z" style="fill:#2167a1"/><path d="M64 7a69 69 0 0 1 26.2 4.6c6 2.5 9.5 5.9 9.5 8.9s-3.5 6.4-9.5 8.9C83.2 32.4 74 34 64 34s-19.3-1.6-26.2-4.6c-6-2.5-9.5-5.9-9.5-9s3.5-6.3 9.5-8.8A69 69 0 0 1 64 7m0-3c-21.4 0-38.7 7.4-38.7 16.5S42.6 37 64 37s38.7-7.4 38.7-16.5S85.4 4 64 4" style="fill:#b9e4ea"/><path d="M77.8 26.9v-2.5l11.6-.1v2.6c0 1.4-2.6 2.5-5.8 2.5s-5.8-1.1-5.8-2.5M43 17v-1.8c.6-.1 7 .2 7.6.2V17c0 .9-1.7 1.6-3.7 1.6-2.1 0-3.8-.7-3.8-1.6" style="fill:#2167a1"/><ellipse cx="83.6" cy="24.6" rx="5.8" ry="2.5" style="fill:#e0e0e0"/><ellipse cx="46.8" cy="15.4" rx="3.8" ry="1.6" style="fill:#e0e0e0"/><path d="M35.2 29.8c4 2 9 3.5 13.1 4.2" style="fill:none;stroke:#fff;stroke-width:3;stroke-linecap:round;stroke-miterlimit:10"/></svg>