<svg xml:space="preserve" width="16" height="16" viewBox="0 0 128 128"><linearGradient id="a" x1="60.2" x2="60.2" y1="43.8" y2="10.9" gradientTransform="matrix(1 0 0 -1 0 128)" gradientUnits="userSpaceOnUse"><stop offset="0" style="stop-color:#00bfa5"/><stop offset=".7" style="stop-color:#00b29a"/><stop offset="1" style="stop-color:#00ab94"/></linearGradient><path d="M115.2 124a28 28 0 0 0-13.8-21A81 81 0 0 0 64 96c-9 0-16 2.6-24.4 0-4.4-1.4-7.5-3.7-9-8.2l-1.2-4-24.2 6s5 21.9 7.6 34.2z" style="fill:url(#a)"/><path d="M73 90H55v10c0 4.6 3.6 8.2 8.2 8.2h1.6c4.6 0 8.3-3.6 8.3-8.1zm18.3-39.6H36.7c-6 0-10.7 5.2-10.7 11.4s4.8 11.5 10.7 11.5h54.6c6 0 10.7-5.2 10.7-11.5s-4.8-11.4-10.7-11.4" style="fill:#c48e6a"/><path d="M64 11c-17.4 0-33.5 18.7-33.5 45.5C30.5 83 47 96.3 64 96.3S97.5 83 97.5 56.5C97.5 29.7 81.4 11 64 11" style="fill:#e0bb95"/><path d="M72.4 76.1a26 26 0 0 1-16.8 0c-1.8-1-3.7.6-3 2.3s6.5 5.4 11.4 5.4 10.6-3.8 11.3-5.4-1-3.4-2.9-2.3" style="fill:#6d4c41"/><path d="M67.9 68h-7.7q-1.1.5-.7 1.7c.4 1.2 1.7 2.7 4.5 2.7a5 5 0 0 0 4.6-2.7q.3-1.2-.7-1.6" style="fill:#c48e6a"/><ellipse cx="47.6" cy="58.8" rx="4.9" ry="5.1" style="fill:#5d4037"/><ellipse cx="80.4" cy="58.8" rx="4.9" ry="5.1" style="fill:#5d4037"/><path d="M88 50.8s-2.2-3.6-7.5-3.6-7.6 3.6-7.6 3.6q-.3.4-.3 1 .1 1.3 1.6 1.5l.6-.2c3.2-1.3 5.7-1.3 5.7-1.3s2.5 0 5.6 1.3l.7.2q1.5-.1 1.6-1.6 0-.5-.3-1m-33.1.1s-2.2-3.6-7.5-3.6-7.6 3.6-7.6 3.6q-.3.4-.3 1 .1 1.3 1.6 1.5l.6-.2c3.2-1.3 5.7-1.3 5.7-1.3s2.5 0 5.7 1.3l.6.2q1.5-.1 1.6-1.6 0-.5-.3-1M64 4c-45.5.3-36.2 52.2-36.2 52.2l3 7.7q.4.5.7 0a309 309 0 0 1 6.2-24.5 6 6 0 0 1 6.8-3.8A111 111 0 0 0 64 37.4h.2c7.8 0 14.9-1 19.3-1.8a6 6 0 0 1 6.8 3.8c1.8 4.7 5.3 20 6.2 24.4.1.4.6.4.7 0l3-7.6s9.3-52-36-52.2" style="fill:#ab872f"/><radialGradient id="b" cx="64" cy="80.9" r="38.1" gradientTransform="matrix(1 0 0 -1.128 0 138.37)" gradientUnits="userSpaceOnUse"><stop offset=".8" style="stop-color:#bfa055;stop-opacity:0"/><stop offset="1" style="stop-color:#bfa055"/></radialGradient><path d="M100.1 56.2s9.4-52-36-52.2H64l-6 .4h-.3C19.4 9.2 27.8 56.2 27.8 56.2l3 7.6q.4.6.7 0c1-4.4 4.5-19.7 6.2-24.4a6 6 0 0 1 6.8-3.8A111 111 0 0 0 64 37.4h.2c7.8 0 14.9-1 19.3-1.8a6 6 0 0 1 6.8 3.8c1.8 4.7 5.3 20.1 6.2 24.5.1.3.6.3.7 0z" style="fill:url(#b)"/><linearGradient id="c" x1="32.5" x2="24.6" y1="118" y2="83.7" gradientTransform="matrix(1 0 0 -1 0 128)" gradientUnits="userSpaceOnUse"><stop offset=".5" style="stop-color:#e0bb95"/><stop offset="1" style="stop-color:#cca47a"/></linearGradient><path d="M44.3 31.4c-2.3 0-6.6 3.6-8.4 5.8-2.8 3.6-4.8 11.2-14.2 8.3-1.7-.5-8.3-1.6-9.5-2.3-.8-.4-2.8-4.1-1.5-11.7l1.6-9.8L14 10.8c.2-1.8 1.5-3 3.2-2.6q2 .8 1.7 3.3l-.4 6.5q0 .5.5.7.6 0 .7-.5L22.2 7c.5-1.5 1.3-2.8 3-2.4 1.9.4 2.1 2.2 1.8 3.7l-2 11.4q-.2.6.4.8.5 0 .7-.5l4.2-13.5c.4-1.8 2-2.9 3.6-2.2Q35.6 5.5 35 8l-3.5 13.8q0 .3.2.4.2 0 .3-.2l4.7-11.3c.6-1.5 1.8-2.5 3.2-2 1.8.3 2.3 2.1 1.6 3.8l-5.9 16.1v.2a.6.6 0 0 0 .5.9h.3l.3-.2v-.1c1.5-.9 2.8-2.8 5-3.1 2.4-.3 4 .6 4.5 1.6s.4 3.6-1.9 3.6" style="fill:url(#c)"/><linearGradient id="d" x1="17.6" x2="17.6" y1="45" y2="-27.9" gradientTransform="matrix(1 0 0 -1 0 128)" gradientUnits="userSpaceOnUse"><stop offset="0" style="stop-color:#00bfa5"/><stop offset=".7" style="stop-color:#00b29a"/><stop offset="1" style="stop-color:#00ab94"/></linearGradient><path d="M29.1 83q-.7-2.9-.5-5.9l.6-29.1a2 2 0 0 0-1-2l-.8-.2-16-3.7a2 2 0 0 0-2.2 1.5L4.8 77c-.3 2.4-1.1 5.5-.3 9.2l.7 3.6L31 89z" style="fill:url(#d)"/><path d="M35.8 29.5c-3 .2-6.2.5-9 2q-2 1-3.5 2.8a16 16 0 0 0-2.2 3.2l-.1-.1s.9-2.6 1.6-3.6q1.6-2.1 3.7-3.4 2.3-1.2 4.7-1.6t4.6-.3v.2q-.2.6.2.8" style="fill:#ba8f63"/></svg>