<svg xml:space="preserve" width="16" height="16" viewBox="0 0 128 128"><path d="M119.7 102H8.4A4.3 4.3 0 0 1 4 97.7V30.3c0-2.4 2-4.4 4.4-4.4h111.2c2.4 0 4.4 2 4.4 4.4v67.4c0 2.4-2 4.4-4.3 4.4" style="fill:#7e57c2"/><path d="M119.8 90H8.2A4 4 0 0 1 4 85.6V30.3c0-2.4 2-4.4 4.4-4.4h111.2c2.5 0 4.4 2 4.4 4.4v55.4c0 2.3-1.9 4.2-4.2 4.2" style="fill:#b39ddb"/><path d="M106.5 33.1c.8 5.4 5 9.7 10.5 10.5v28.6c-5.4.8-9.7 5.1-10.5 10.5h-85c-1.2-5-5.3-9-10.5-9.9V44.3c5.6-.9 10-5.5 10.6-11.2zm1.8-2H19.7v.7c0 5.9-4.8 10.7-10.7 10.7v32.2c5.7 0 10.3 4.4 10.7 10h88.6c0-5.9 4.8-10.7 10.7-10.7V41.8c-6 0-10.7-4.8-10.7-10.7" style="fill:#5e35b1"/><circle cx="84.8" cy="57.9" r="18.5" style="opacity:.5;fill:#7e57c2"/><path d="M53 25.9h22v76.2H53z" style="fill:#ffecb3"/><path d="M53 89.9h22v12.2H53z" style="fill:#ffc06c"/><path d="M32.3 60.3q-.8 0-.8.9l.1 4.7q0 3-.9 5-.2 1 .8 1.1h16.2q.7 0 .8.9v2.3q-.1.7-.8.8H23.3a1 1 0 0 1-.8-.8v-2.3q.1-.8.8-.8h1.3q.8-.4 1.5-2t.6-4V66l-.1-4.8q0-.7-.9-.8h-2.5a1 1 0 0 1-.8-.8v-2.3q.1-.7.8-.8h2.4q.7 0 .8-.9l-.2-5.7q0-5 3-8 3.1-3 8.2-3 4.8 0 7.6 2.7a9 9 0 0 1 2.7 6.3q0 .7-.8.8h-3.1a1 1 0 0 1-.9-.7 5 5 0 0 0-1.5-3.5 6 6 0 0 0-4.4-1.6q-2.7 0-4.3 2-1.5 1.9-1.6 5l.2 5.8q0 .7.8.8h6.4q.7.1.8.8v2.3q-.1.8-.8.8z" style="fill:#fff"/></svg>