<svg xml:space="preserve" width="16" height="16" viewBox="0 0 128 128"><path d="M26 33.6s.9-2.3 2.6-5.2c1.6-2.7 3.4-3 4.8-2s-.1 5-.1 5L29 36zm16.2 8.1-24.5 24s2.4 2.6 4 3.8 3.9 3.8 3.9 3.8l22-12.5.3-8.2s-2.1-2.4-3.5-4.5c-1-1.5-2-6.6-2.2-6.5M31 82.8c0 .4-2.3 5.6-4.6 9-2.4 3.5-6 8.6-7.1 11.8-1 2.8-1.7 8.7 3.8 9.8 6.6 1.3 8-3.7 8.3-6.3.2-1.3 2.7-4.1 3.7-5.5s5.3-5.7 5.3-5.7zm42.8 5c.2 0 2.5 5 2.8 6.1.3 1.2 0 8.4-.2 10.1s-4.5 4.5-4 8q.3 2.4 5.5 2.5c3.6 0 8.5-.4 8.5-.4l4.3-15.7L77 86.8zm22.8-20L95 62.6s4.8 2.4 8.8 11.3c1.6 3.6 3.8 13 8.4 13 4.6.2 6.2-5.7 6.2-5.7s6.3 4.8 5.6 7c-.8 2.4-5.4 8.5-12.6 8s-9.6-6.6-12.7-10.9c-3.2-4.3-2.1-17.5-2.1-17.5" style="fill:#ff8f04"/><path d="M24.8 108c-1.3.8-3 2.8-1.4 4.8 1 1.2 3.6 1.2 5.3-.3 1-.9 2.4-3.5.7-4.7q-2-1.3-4.6.2m-2.8 3.1c.1-1-1-1.5-1.8-1.3-.6.3-1.1 1.4-.3 2.1s1.9.2 2-.8" style="fill:#fd6a21"/><path d="M116.3 85s1.4 2 3.1 3.2c1.5 1.2 3.6 2 3.6 2s3.7-3.9 3.8-8.3c0-2.8-1.9-4.4-4.8-4.2s-3.3 2.3-3.8 4c-.5 1.5-1.9 3.3-1.9 3.3m.3 10.4s-1-.6-1.4-1.5 0-2.3 1.2-3c1.1-.5 2.5 0 3 1.1s.3 1.7.3 1.7l-1.4 1zm-8-10.7s-1.6 1-1 2.8c.3 1.4 2.4 2 3.4 1.4 1.1-.7 1.2-2 1.2-2s-1.2-.1-2-.7-1.6-1.5-1.6-1.5m-3.4-7s-1.2.4-1.6 1.7c-.3 1 .3 2.9 2 2.9q1.4-.1 1.4-.3l-.9-2.1zm-.8 15.4s.3-1 1.9-1.1c1.3-.2 2.6.5 3 1.9.4.9.2 2 .2 2s-1.4-.3-2.8-1c-1.2-.7-2.3-1.8-2.3-1.8M28.9 35s3-3.7 4.3-4.9 5.2-3.9 8.2-1.8 3 6.9 2.8 9.3c-.3 2.6-1.3 7.1-1.5 8.4 0 .9-.4 2.8-1.3 2.2s-11-10.4-11-10.4z" style="fill:#33312e"/><path d="M21.5 33.6c-3.3.9-5.3 2.5-7.3 4.2s-2.9 3.7-4 4c-1 .3-5.9 1.1-7.1 2s-1.1 2-1.1 2l8.5 16 7.6 5s2-1.6 3.3-2.3c1.1-.7 3.1-1.6 3.1-1.6s3.8.1 7.8-.7c5-1.2 10-3.8 10-12.1.2-5-3.8-7.9-4.2-8.3s.4-1.3 1-2.2c1.3-1.6 4.4-6.3 1.2-8.8S33 33.4 32.4 34c-.5.5-1 1.7-1.3 1.5s-4.3-3.4-9.6-2" style="fill:#ffba06"/><path d="M33.3 36.3c-.2.2 1 .7 1.6 1.4 1 1 1.1 1.5 1.6 1.4 1-.1 4.1-5.6 2.6-6.7-2.1-1.6-5.5 3.2-5.8 3.9M9 45.3c-.4 0-6.8 2-6.8 2l1.6 8.5s-1.9 5.9 2 9c4 3 9 2.3 11.2 2.1s1.6-1.2 1.5-1.9-1.7-6.5-3.2-8.3-2.8-3.2-3-3.8-2-7.7-3.3-7.6" style="fill:#ffeacf"/><path d="M10 45c.6.6-1.3 1.7-2.8 2.9l-3 2.5s-.3 4.1 1.6 4.9 5.2 0 5.6.7-.9 3.2-3.5 3.3-4.5-2.2-4.7-3-1.3-2.7-1.8-6c-.3-2-.4-4.7 0-5.1s3.2-.6 4.6-.6h2.8s1 .1 1.2.4m12-1.8s.3-1.9-2-1.5c-1.8.4-2.8 2.2-3 3-.3 1.2.3 1.8.3 1.8s-1.8 1.9-1 2.7C17.5 50.3 19 48 19 48s.4.7 1.1.5q1.4-.6 2.7-2.6c1.3-2 2.7-1.8 2.4-3-.5-1.6-3.1.3-3.1.3" style="fill:#33312e"/><circle cx="27.4" cy="52.8" r="1.7" style="fill:#33312e"/><circle cx="34.3" cy="49.3" r="1.8" style="fill:#33312e"/><circle cx="33.3" cy="55.5" r="1.8" style="fill:#33312e"/><ellipse cx="23.4" cy="58.9" rx="1.8" ry="1.7" style="fill:#33312e"/><ellipse cx="26.9" cy="36.3" rx="1.8" ry="1.7" style="fill:#33312e"/><path d="M22 34.7q.4 1.5-1.1 2-1.6.6-2.2-.5c-.4-.9.3-1.6 1.2-2q1.5-.6 2.1.5" style="fill:#33312e"/><path d="M47.2 51.7s-.7 6.7-6.1 11S24.2 72 24.2 72s3.2 3.3 4 5c.7 1.6 2.2 10.7 5 14s8.6 7.8 9.2 8.8 1.8 7.2.7 9.5-1.5 2.1-1.5 2.1-5.8 2-5 6c1.1 4.9 10 2.8 11.2 2.7s3.7-3.2 3.7-3.2l3.6-4.3 1.5-6.3 1.8-8.4 2.8-4.4 6.2-2L75 89l5.1 4.8 4.5 5.3.7 4.4-.2 4-2.7 5.8-.6 4.6s1 2.1 2.3 2.6 7 .8 9.2-.8c2.2-1.5 3.5-5.4 3.7-9 .2-3.4.2-8.5.4-11 .2-2-.4-4.8-.4-4.8s4.3-5.4 4.5-15.8-4.3-15.4-8-17.9A43 43 0 0 0 74.3 56c-8.4-.6-12.5.1-18-.8s-9.1-3.4-9.1-3.4" style="fill:#ffba06"/><path d="M37.6 117.6c0 1 .3 2.4 1.5 2.7 1.2.2.8-1.5.9-2.5s1-2 .2-2.6c-1-.5-2.6.4-2.6 2.4m5.7-1.8c-1-.1-2 .3-2.1 2 0 1.5.3 3 1.6 3s.8-2 .9-2.6c0-1.3.8-2.3-.4-2.4m42.7.6q-1.6 0-1.6 2-.2 2.4 1.4 2.5c1.6.1 1-1.4 1-2.1s.3-2.3-.7-2.4m3.9.2q-1.2 0-1.3 2.2 0 2.3 1.3 2.2c.8 0 1-1.2 1-2.1s0-2.2-1-2.3" style="fill:#ff8f04"/><path d="M46.6 119.5c0 .8 1.3.8 2.4.3 1.2-.5 3.4-1.7 4.3-2.7q1.9-2.1 3-5l2.2-9.4c.9-3.9 1.5-5.3 1.7-5.9.4-1.1 1.6-2.6 1.6-2.6l6.3-2c2.1-.7 6.3-2.4 6.8-2.2s2.6 2.3 5 4.9c1.7 1.8 4.2 5 4.2 5l.4 3.9v3.6c0 .2-2.6 4.1-3 5.8-.6 1.8-1.3 3.6.2 6 .8 1.2 2.5 1.7 2.7 1.2.2-.3-.5-.8-1-1.4q-.7-.9-.8-2.4.2-2.8 1-4.2c.5-1.1 2.3-3.9 2.5-4.6s.2-3 0-4.8c0-1.3-.2-3.2-.5-3.8-.3-.7-1.3-2-3.8-4.7q-5.4-6-6.6-6.3c-1.2-.3-6.8 2-7.8 2.4s-6.3 2-6.8 2.3-2 2.2-2.6 4.1l-1.5 5.7-2.2 8.7q-1 2.6-2.6 4.3l-3.2 2.2c-.5.3-1.8.7-1.9 1.6" style="fill:#fd6a21"/><path d="M90.6 69.5s2.2-1 2.1-2.4c0-1-.5-2.3-2.3-2.4-1.5 0-3 .7-3.1 2.3-.2 1.4 1.4 2.4 1.4 2.4s-3.9-1-3.7 2.7a5 5 0 0 0 1 2.9c1.7 2.2 6 2 8 .1a4 4 0 0 0 1-3.8c-.5-2.9-4.4-1.8-4.4-1.8m-10.1-7.1s2.3-.2 2.2-2.3q0-1.9-3.1-2c-2 .1-3.1 1.2-3.2 2.2-.1 1.8 1.7 2.1 1.7 2.1l-.3 1s-1.4-1.6-2.7-.7-1.2 4.3 1.6 5.9c2.2 1.2 5.4.4 7-1q1.5-1.4 1.3-2.9 0-1.8-1.3-2.2c-1-.4-2.8.7-2.8.7zm16 16.6s-.5-.8-.5-1.5q-.1-1 1.6-1.4c1.2-.2 1.8 1 1.8 1.7 0 .9-1 1.6-1 1.6l-.1.9s1.2.4 1.5 1.6c.4 1.6-2 3.6-4.6 2.5-1.2-.4-2-1.7-2-2.7s.8-2 1.3-2.2c.9-.5 2-.5 2-.5M67.8 62.6s1.4-.6 1.1-2c-.3-1.6-2.3-2-4-1.9-1.5.2-2.8 2-2.2 3.2.7 1.3 1.6 1.4 1.6 1.4s-2.6-.3-2.7 1.9c-.2 2 1 4.4 5.2 4.6s5.5-5.6 4.1-7c-1.2-1-3.1-.2-3.1-.2M56 72.8s3.5-.6 2.1-3c-1-1.7-5.5-.6-5.1 1.8 0 .6 1 1.2 1.5 1.3.3 0-.4.6-.4.6s-2.4-.6-3 1c-1 2.2.5 4.4 3.1 5.2 3.4.9 6.8-1 6.8-3.6-.1-2.8-3.1-2.4-3.1-2.4zm-16.5-1s-1.3-.6-1.1-2.1q.1-1.3 2-1.5c2.6 0 3.5 1.4 3 3.2-.4.9-2.4 1.4-2.4 1.4l.8 1.1s1.6-.8 2.3.2a3 3 0 0 1-.3 3.5c-.6.7-2.4 1.7-5.1 1q-3-.7-3.7-2.9c-.5-1.4 0-2.8.7-3.2 1.6-1 3.5.3 3.5.3zm10.4-10.9s-2.4-.6-3 .5-1 3.5 1.7 4.8c2.5 1.3 6.8-.6 7-3.2.2-2-1.1-3.9-2.8-3.8-2.3 0-1.6.5-1.6.5l-.2-.9s1.5-1.3.2-2.4c-1.4-1.2-3.9.7-3.8 2s1.5 1.4 1.5 1.4z" style="fill:#33312e"/><path d="M42.9 73q-.1 2.4-2.4 2.5c-1.5 0-3-1-3-2.5 0-1.4 1.3-2.3 2.8-2.3s2.6.8 2.6 2.3m15.5-.2c.7 1.2.3 2.7-1 3.2q-2.6 1-3.8-.9c-.7-1.2 0-2.6 1.2-3.3 1.3-.8 3-.2 3.6 1m10-10.5c.8 1.4.4 3.5-1 4.2-1.9 1-3.6.1-4.4-1.2s-.2-3 1.2-3.8 3.4-.5 4.2.8M53 59.5c.8 1.2.3 3-1 3.8a3 3 0 0 1-4-1q-.8-2 1.3-3.4c2.1-1.4 3.1-.6 3.8.6m29.4 1.9c1.3 1.8.3 3.6-1.2 4.4-2 1-4 .6-4.7-.6s0-3.4 1.5-4.3 3.5-.6 4.4.5m9.1 6.1c1.9 1 1.9 2.8 1 4-1.2 1.6-3 2-4.2 1.2s-1.5-2.8-.7-4.1 2.6-1.8 3.8-1.1m7.4 11c1.1 1.3.7 2.6-.3 3.3-1.2.8-2.6.5-3.3-.5s-.4-2.4.6-3 2.2-.6 3 .2" style="fill:#d2735b"/><ellipse cx="49" cy="102.1" rx="2" ry="1.9" style="fill:#33312e" transform="rotate(-78 49.01 102.1)"/><circle cx="61.4" cy="83.7" r="2" style="fill:#33312e" transform="rotate(-45 61.35 83.66)"/><ellipse cx="59" cy="89.5" rx="1.5" ry="1.3" style="fill:#33312e" transform="rotate(-38.6 58.98 89.48)"/><ellipse cx="82.5" cy="81.9" rx="2.2" ry="1.7" style="fill:#33312e" transform="rotate(-38.6 82.54 81.9)"/><ellipse cx="55.7" cy="86.9" rx="2.7" ry="2" style="fill:#33312e" transform="rotate(-85 55.7 86.93)"/><ellipse cx="35.3" cy="86.2" rx="2" ry="1.9" style="fill:#33312e" transform="rotate(-78 35.33 86.2)"/><ellipse cx="48.2" cy="94.4" rx="2.3" ry="2.1" style="fill:#33312e" transform="rotate(-30 48.21 94.39)"/><ellipse cx="45" cy="86.5" rx="2.4" ry="2.1" style="fill:#33312e" transform="rotate(-30 45.04 86.54)"/><path d="M62 84.1c1.4 1.4.7 3.1-.6 4-1.8 1.1-3.5 1-4.3-.1s-.2-3 1-3.9 3.1-.9 4 0" style="fill:#d2735b"/><ellipse cx="76.7" cy="78.8" rx="1.9" ry="1.8" style="fill:#33312e" transform="rotate(-78 76.71 78.83)"/><ellipse cx="71.2" cy="74.9" rx="2.4" ry="1.9" style="fill:#33312e" transform="rotate(-38.6 71.17 74.93)"/><ellipse cx="88.5" cy="83.3" rx="1.6" ry="1.8" style="fill:#33312e" transform="rotate(-45 88.45 83.3)"/><path d="M72.8 78.3c-.6-.2-3.4-1.4-5 .7s-1.4 6.3 2.8 6.5c4.3.2 6-5.9 2.2-7.2M84.3 86c-1.4-.3-4.3.5-4 3 .2 2.1 2 3.1 4.3 2.8 2.8-.4 4.2-4.7-.3-5.8" style="fill:#33312e"/><path d="M75.7 79.9c-.8 1.9-2.6 2-3.8 1.2-1.7-1-2.2-2.8-1.5-4 .7-1.1 2.6-1.6 3.9-.8 1.3.7 2 2.3 1.4 3.6M87.3 83c1.5 1.7.7 3.7-.8 4.6-2 1.3-4 1-5-.2s-.2-3.4 1.2-4.5c1.5-1 3.5-1 4.6.1" style="fill:#d2735b"/></svg>