<svg xml:space="preserve" width="16" height="16" viewBox="0 0 128 128"><path d="m119.9 54.2-.4.2" style="fill:none"/><path d="M39.9 84.3c-8 5.3-19.3.5-27 12.5Q11 99.6 9 107c-1.1 3.8-7.3 6.6-7.3 6.6s5.3 5.5 10.3 6.6c7.2 1.6 17.5 2.4 24.5-5.3 8-8.7 4.4-16.7 11.4-21.5 0 0 0-14.5-8-9.2" style="fill:#f09300"/><path d="M34 86.8q-1.2 1.2-1 3a9 9 0 0 0 7.3 8.4c1.6.3 3.5 0 4.4-1.3 1.2-1.5.7-3.6 0-5.2q-1.4-2.8-3.7-4.8" style="fill:#c67100"/><path d="M122.3 6.5s-2-2.7-7 .3a339 339 0 0 0-56 48.2c-6 6.2-8.4 9.8-8.4 9.8s-1.5 2.3 4.2 8a25 25 0 0 0 11 6.8l4.6-4.6c32.2-33.2 48.4-54.5 51.5-61.4 2.4-5.4.1-7 .1-7" style="fill:#1565c0"/><path d="M58 72.7c-5.6-5.6-6.5-8.5-6.5-8.5s-1.7 1.1-2.7 2.4c-1.6 2-1.8 3.5-1.8 3.5L34.2 86s-1.6 3 3.3 7.8c4.8 4.7 7.8 3 7.8 3L61 83.6s1.4-.2 3.4-1.8c1.3-1 2.3-2.8 2.3-2.8s-3-.8-8.6-6.3" style="fill:#bdbdbd"/><path d="M55.1 72.8q-.7.5-1.5.3-3-.6-4-3.4-.5-1.3 0-2.6c.8-1.4 1.8-.4 2.6.4q1.6 1.5 2.7 3.3l.4 1z" style="fill:#eee"/><path d="M61.6 59.6c1.8 4 17-11.8 20.8-16 2-2 15.2-13.9 12.2-14.4s-9.8 5.4-12 7.2a169 169 0 0 0-14.8 13.9c-2.2 2.3-6.9 7.8-6.2 9.3" style="fill:#2196f3"/><path d="M43.7 77q.6-.9 1.6-1 .8.2 1.5.9c1.3 1.3 2.6 3.1 1.8 4.8q-.5.9-1.4 1.6l-6.7 6c-1.3 1.1-2.6-.4-3-1.6q-.6-1.5.4-2.9a46 46 0 0 1 5.8-7.9" style="fill:#eee"/><path d="M59.5 82.6q.4.3.4.7l-.1.3q-1 1-2.5.5-1.2-.5-2.2-1.5-4-3.4-6.8-7.7c-.2-.5-1.7-3.1-.7-3.3.7-.2 2.1 2.1 2.5 2.6a54 54 0 0 0 9.4 8.4" style="fill:#9e9e9e"/><path d="M36.5 115s-9.6 5.4-19.8 3.9c0 0 8-1.5 11.5-12.4 0 0-7.8 8-14.8 8.6 0 0 6.7-3.5 7.1-14-3.5 6.3-5.9 9.5-11.6 11.4 6.1-6.5 3.9-15.7 3.9-15.7q-1.7 3-3.8 10.2c-1.1 4-7.3 6.6-7.3 6.6s5.3 5.6 10.3 6.7c7.2 1.6 17.5 2.3 24.5-5.3" style="fill:#c67100"/></svg>