<svg xml:space="preserve" width="16" height="16" viewBox="0 0 128 128"><radialGradient id="a" cx="68.9" cy="124.3" r="70.6" gradientTransform="rotate(-179.8 65.9 -39.82)scale(1 -1.64)" gradientUnits="userSpaceOnUse"><stop offset=".3" style="stop-color:#ff9800"/><stop offset=".7" style="stop-color:#ff6d00"/><stop offset="1" style="stop-color:#f44336"/></radialGradient><path d="M35.6 40.7c-.6 6.1-1 16.9 2.6 21.4 0 0-1.7-11.8 13.4-26.6 6.1-6 7.5-14 5.4-20.2A24 24 0 0 0 51.7 7 1.8 1.8 0 0 1 53 4c10 .4 26 3.2 32.8 20.2a41 41 0 0 1 1.8 23c-1 5.1-4.1 16.3 3.2 17.6 5.2 1 7.7-3.1 8.8-6.1a1.8 1.8 0 0 1 3-.6c8.8 10 9.6 21.8 7.7 32-3.5 19.6-23.4 33.9-43.1 33.9-24.7 0-44.3-14.1-49.4-39.7-2-10.3-1-30.7 15-45 1-1.1 3-.2 2.9 1.4" style="fill:url(#a)"/><radialGradient id="b" cx="64.9" cy="54.1" r="73.9" gradientTransform="rotate(90.6 18.65 7.31)scale(1 -.753)" gradientUnits="userSpaceOnUse"><stop offset=".2" style="stop-color:#fff176"/><stop offset=".3" style="stop-color:#fff27d"/><stop offset=".5" style="stop-color:#fff48f"/><stop offset=".7" style="stop-color:#fff7ad"/><stop offset=".8" style="stop-color:#fff9c4"/><stop offset=".8" style="stop-color:#fff8bd;stop-opacity:.804"/><stop offset=".9" style="stop-color:#fff6ab;stop-opacity:.529"/><stop offset=".9" style="stop-color:#fff38d;stop-opacity:.2088"/><stop offset=".9" style="stop-color:#fff176;stop-opacity:0"/></radialGradient><path d="M76.1 77.4c-9-11.7-5-25-2.8-30.4.3-.7-.5-1.3-1.1-.9-4 2.7-12 9-15.7 17.7-5 12-4.7 17.8-1.7 25 1.8 4.2-.3 5.1-1.3 5.3q-1.6 0-2.7-1.3a16 16 0 0 1-4.5-7.6c-.1-.6-1-.8-1.3-.2a28 28 0 0 0-4.3 14.4A24.4 24.4 0 0 0 65.2 124c17.1 0 29.6-18.9 19.8-34.7-2.9-4.6-5.6-7.6-8.9-11.9" style="fill:url(#b)"/></svg>