<svg xml:space="preserve" width="16" height="16" viewBox="0 0 128 128"><radialGradient id="a" cx="64" cy="2880.9" r="57" gradientTransform="translate(0 -2818)" gradientUnits="userSpaceOnUse"><stop offset=".5" style="stop-color:#fde030"/><stop offset=".9" style="stop-color:#f7c02b"/><stop offset="1" style="stop-color:#f4a223"/></radialGradient><path d="M64 118.8c-27.9 0-58-17.5-58-55.9S36.1 7 64 7c15.5 0 29.8 5.1 40.4 14.4C115.9 31.6 122 46 122 62.9s-6.1 31.2-17.6 41.4A61 61 0 0 1 64 118.8" style="fill:url(#a)"/><linearGradient id="b" x1="64" x2="64" y1="2936.8" y2="2825" gradientTransform="translate(0 -2818)" gradientUnits="userSpaceOnUse"><stop offset=".2" style="stop-color:#f4a223"/><stop offset=".3" style="stop-color:#f7c02b"/><stop offset=".8" style="stop-color:#fde030;stop-opacity:0"/></linearGradient><path d="M64 118.8c-27.9 0-58-17.5-58-55.9S36.1 7 64 7c15.5 0 29.8 5.1 40.4 14.4C115.9 31.6 122 46 122 62.9s-6.1 31.2-17.6 41.4A61 61 0 0 1 64 118.8" style="fill:url(#b)"/><path d="M111.9 29.7a57 57 0 0 1 8.1 30.2c0 16.9-6.1 31.2-17.6 41.4A61 61 0 0 1 62 115.8a59 59 0 0 1-48.2-23 58 58 0 0 0 50.2 26c15.4 0 29.8-5.2 40.4-14.5A54 54 0 0 0 122 62.9q-.1-19.2-10.1-33.2" style="fill:#eb8f00"/><ellipse cx="63.3" cy="85.3" rx="28.2" ry="24.7" style="fill:#422b0d"/><path d="M96.2 49s-6.2-11-19-8.6m-45 8.6s6.2-11 19-8.6" style="fill:none;stroke:#35220b;stroke-width:6;stroke-linecap:round;stroke-miterlimit:10"/><radialGradient id="c" cx="50.1" cy="49.2" r="65.1" gradientTransform="matrix(1 0 0 -1 0 130)" gradientUnits="userSpaceOnUse"><stop offset=".3" style="stop-color:#fff176"/><stop offset="1" style="stop-color:#ffc400"/></radialGradient><path d="M81.9 85.7c-2.2-3.2-8 0-8 0l5.5-5c1.6-1.5 3-4.8 1.7-7s-5.2-2-7-.9l-7.3 4.5s2.7-1.2 3.5-6a3.6 3.6 0 0 0-3.6-4.4q-2.6.2-4.8 1.8c-5.2 3.8-19.4 13.4-22.6 13.1-1.2 0-1.3-.3 1.3-5.8 1.7-3.3 1.9-7.3.4-10.7-.8-2-4.8-2.6-6-.6-1 1.4-1.6 4.9-3.2 8.4-2.7 5.7-9 13.4-9.5 14.2-3.7 5.5-10.7 15.8-3.4 27.3 6.4 10.3 21.1 10.7 28.7 8a122 122 0 0 0 27.9-15c2.6-2.1 5-5.2 3.9-8-1.3-3.4-5.8-1.4-5.8-1.4q4-2.3 6.8-5.8c1.8-2.3 3-4.6 1.5-6.7" style="fill:url(#c)"/><path d="M81.6 93.4c1.2-1.6 4-5.1 1.5-8.6q-1.3-1.9-3.5-2.2c2.4-2 5-6.6 2.2-10.4-1-1.4-3-2.5-6-1.8-2.2.5-4.2 2.2-4.2 2.2.1-.3 1.8-5.2-4.2-6.4-2.4-.5-5.1 1-6.7 2.3A100 100 0 0 1 40 80.3c3.8-4.7 4.6-11.6 2.3-15.7-.9-2-6-3.5-7.7-.8-1.3 2.3-2.3 7.7-4.8 12-2 3.2-11 14.6-12.7 20.3 0 0 2.2-3.3 5.7-8 3.7-5 8.8-11.3 10.3-14.4 1.3-2.7 2-6 3.1-8.2.6-1 2.8-1.8 4.3 1 1.5 2.9.7 6.3-1.3 10.2-2 4.4-3 4.6-2 5.6 3.1 3.3 21.5-9.8 25.6-12.4a8 8 0 0 1 3.9-1.5c2.7-.4 2.6 3.4 2.6 3.4-.8 3.2-1.3 3.2-4.4 5.8a109 109 0 0 1-15.2 10.2s0 1.2 2.4.5S64 81.8 69 77.7c0 0 6.5-5.5 9.3-4.7s2.5 2.7 1.6 4.6-3.2 4-6.8 6.9c-6.6 5-16.8 11.8-16.8 11.8s.2 1 2.2.4a112 112 0 0 0 16.6-10.5c1-.7 4.3-1.8 5.6.4.6 1 .5 2.6-2 5.5a91 91 0 0 1-19.2 13.7s.5 1 2.6.3 10.9-6 12.3-6.5c1.3-.5 2.7-.9 3.6.7 1.1 2.3-.3 4-3.2 6.4-.1 0-13.9 10.8-28.2 15.7-7.6 2.5-16 1.2-25.7-5.1a27 27 0 0 0 27.4 7A132 132 0 0 0 76.6 109c2.1-1.7 6.5-5.1 4.1-10a5 5 0 0 0-2.4-2.3q1.8-1.5 3.3-3.3m-22.4 25.2c4.3.2 8.4.1 8.4.1a39 39 0 0 0 13-14c.7-1.9-24.3 13.7-21.4 13.9" style="fill:#eb8f00"/></svg>