<svg xml:space="preserve" width="16" height="16" viewBox="0 0 128 128"><circle cx="72.1" cy="19.2" r="8.6" style="fill:#e2a610"/><path d="M65.2 24.2q-.8-1-1.3-2l-.1-.2v-.4a7 7 0 0 0 .3-2.5l-.2-2c0-.4.2-1.8.8-1.5.4.4.8 1.5 1 2a8 8 0 0 1-.5 6.6" style="fill:#9e740b"/><path d="M74 12.6c.5.4.7 1.3.3 1.8q-.5.5-1.5.4-2 .1-3 .5c-1.6.7-2.4.3-2.5-.3s.1-2 2.6-2.7 3.8 0 4.1.3m-9.5 21.2 1.5-5.5c.8-2.9 1.5-8 5.6-7.4 1.8.3 3.3 2 3 3.9l-2.5 9z" style="fill:#ffca28"/><circle cx="55.9" cy="19.2" r="8.6" style="fill:#ffca28"/><path d="M57 13.3q.8 1.3-2 3c-2.1 1.3-2.4 2.5-3.3 3.4-.7.7-2 .4-2.2-.6a6 6 0 0 1 1.8-5.2c1.6-1.6 4.8-2.5 5.7-.6" style="fill:#ffe36c"/><path d="m62.8 24.2.9-1.5q-.1-.2-.7.4c-.8.7-2.3 2.2-5.1 3-3.7 1.2-6.3-.2-6.7 0-.4 0 1 .7 1.2.8q1 .6 2.2.7l.5 1.7h7.7l-1.2-3.8z" style="fill:#9e740b"/><path d="M101.5 29.3h-75C16 29.3 13 36.8 13 43.1v26h102V43c0-6.4-3-13.8-13.5-13.8" style="fill:#ffca28"/><path d="M13 55.5s.7 1.4 4 .4c3.4-1 5-7 5-7L21.5 69H13zm102-.9s-.8 1.4-4.1.4-4.6-7.5-4.6-7.5l.2 21.5h8.5z" style="fill:#e2a610"/><radialGradient id="a" cx="68.8" cy="54.7" r="127.4" gradientTransform="matrix(1 .003 -.002 .553 .1 24.2)" gradientUnits="userSpaceOnUse"><stop offset=".4" style="stop-color:#ff689b"/><stop offset="1" style="stop-color:#d6336b"/></radialGradient><path d="M112.3 64a36 36 0 0 1-6.2-18c-.4-4.6-1.7-8.1-6.2-8.1H28.1c-4.5 0-5.8 3.5-6.2 8-.6 7-1.7 10.5-6.2 18C8.8 75.5 3.1 86 4.1 93.1c2 14 14.4 29.8 24.3 29.8h71.2c9.9 0 22.3-15.9 24.3-29.8 1-7.2-4.7-17.6-11.6-29.2" style="fill:url(#a)"/><path d="M57 38S38.2 54 44 58c6 4 13-20 13-20m7.2 30c8.1 0-.4-30.2-.4-30.2S56 68 64.2 68m7.3-30.2s5.9 24.6 12.2 20.3-12.2-20.3-12.2-20.3" style="fill:#d6336b"/></svg>