<svg xml:space="preserve" width="16" height="16" viewBox="0 0 128 128"><path d="m66.6 64.7 4.5-.4s.7 50.5 0 52.4c-.8 1.9-8.3 9.7-13 4.3s0-6.2 3.8-6.6 4.8.4 5-.9-.3-48.8-.3-48.8M38.7 9s5.7-6 13.8-3.8 8.6 12.5 3.9 20.5C52.3 32.4 43.9 44.4 44 51c.1 6 5.6 5.4 8 1 2.5-4.6 3.2-6.6 3.2-6.6L65 69.1s-14.7 9-27.4-2.6c-12-10.9 2-32 5-37.3 1.6-3 2.8-5.7 2.5-8.5-.2-1.7-2.4-3.1-4-3.7-1.4-.6-9.5-3.2-9.5-3.2z" style="fill:#f77eae"/><path d="M66.3 70.7s19.2 10.9 18.2 11.4a153 153 0 0 1-13.1 3c-3.3.7-7.8 1.3-9.6 2.3s-4.6 5-5.2 6.4c-.5 1.3-1 3.8 2.7 5.6s6-.6 6-2.8-.7-5.2 0-5.5c.8-.5 7-2.1 10.8-3L88.6 85c1.2-.3 3.2-.4 3.6-2.2s-2.4-2.4-3.9-3.3l-7.6-4.9C79 73.6 73 69 73 69l-6.2-.6z" style="fill:#f2478d"/><path d="M38.7 7.5s.6-.5 3-.5C44 7 48 8.9 50 9.8c2.1 1 4.2 1.9 4.2 2.5s-5 1.6-7.4 2.2l-6.9 2L34 11z" style="fill:#ffd4ac"/><path d="M50.4 11.6q-.2 2.3-2.5 2.5c-1.5 0-2.7-1.2-2.7-2.5s1-2.5 2.5-2.5 2.7 1.2 2.7 2.5" style="fill:#1a191e"/><path d="m41.3 7-5.2.2-7 7.8-.3 3.1s2.7-1 5.4-1.4a19 19 0 0 1 6-.2s1.8-2.7 1.9-4.5c.1-3.2-.8-5-.8-5" style="fill:#f2478d"/><path d="M28 7.9c-1.6 1-3.2 4-4.3 5.9s-2.6 6.2-.5 7.2c1.4.7 4.2-2.1 6-2.9q3-1.1 3.2-1c.2 0 .2-.8.5-1s5.6-1.1 5.6-1.1v-1.4s-6.2 1.2-6.3.8 1.4-3 2.7-4.3c1.2-1.3 4-3 4-3l-5.4-.4c-2.6-.2-3.8 0-5.5 1.2" style="fill:#5f6369"/><path d="m36.3 14.4 2-1s1.2-1.2 2-.3c1 .9-.3 2.5-1.5 2-1-.5-2.5-.7-2.5-.7" style="fill:#1a191e"/><radialGradient id="a" cx="57" cy="45.2" r="52.1" gradientUnits="userSpaceOnUse"><stop offset=".2" style="stop-color:#f77eae"/><stop offset=".4" style="stop-color:#f678aa"/><stop offset=".6" style="stop-color:#f568a1"/><stop offset=".8" style="stop-color:#f24c90"/><stop offset=".8" style="stop-color:#f2478d"/></radialGradient><path d="M54.5 58.9c1.3 3.8 3.4 13 18.6 13 11 0 14.3-.2 17.6.5 2.1.5 4.5 2 6.6 2.6.6.2-.2-2.5-.6-4l-1-2.4s1.9.5 3.5 1.2c1.3.5 3 1.3 4 2 .8.3-.1-3-1-5-.6-1.6-2.7-4.1-2.7-4.1l2.9 1q.9.6 2.4 1c.7.2-3.6-7.6-5.5-9.8s-5.7-5.7-7.5-6.9c-1.8-1.1-16-.8-16-.8l-21 1s-2 5.8-.3 10.7" style="fill:url(#a)"/><linearGradient id="b" x1="69.2" x2="81.2" y1="39.5" y2="67.7" gradientUnits="userSpaceOnUse"><stop offset=".2" style="stop-color:#f77eae"/><stop offset=".4" style="stop-color:#f982a4"/><stop offset=".7" style="stop-color:#fc8a8f"/></linearGradient><path d="M66.1 37.9c8.6-1 16.3 3.4 21 6.1 4.7 2.8 10.5 9 10.5 9s-3.3.4-5.8.4c-2.3 0-5.4-.5-5.4-.5s2.8 2.3 4.3 4.8l2.2 3.8s-5.5.1-10.8-2.2C78.9 58 74 55 74 55l2.1 5.5 1.1 3.4s-5.3-.2-9.7-3.9-4.2-4.5-4.2-4.5l1.6 5.8.9 4.4s-5.8-.6-8.9-3.8a13 13 0 0 1-3.4-8c-.1-2.6.6-14.4 12.6-16" style="fill:url(#b)"/></svg>