<svg xml:space="preserve" width="16" height="16" viewBox="0 0 128 128"><path d="M31 25c-.3-.1 1.7-2.6 2.4-3.8s1.2-3.1 2.7-3 1.6 2.8 1.6 4c-.2 2.2-1.4 4.7-1.4 4.7z" style="fill:#ffbd16"/><path d="m90.2 74-42 7.6s.5 2.7 1.3 5.8S53.2 99 53 102.6c-.1 3.6-2.9 10.9-1.9 12.4s4.6 1.5 6.7 1 4.3-2 4.6-3-.4-9-.3-10.8.5-5.6 1.2-8.4 1.1-8 1.1-8l10.2-5.2s7.1 5.4 9.1 8.3 3.5 9.1 3.4 11.6c0 2.6-1.7 9.8-.7 11.1 1.4 1.7 4.6 1.9 6.7 1.7 2.6-.2 4.8-1.7 4.8-1.7V81.3z" style="fill:#adadb8"/><path d="M117 81.6c-1.6 0-3.2 6-2.7 8.7.7 3.8 3.5 5.2 4.4 6.4s1.5 2.9 2.6 3.3c1.1.5 2.4-4.9 2.3-9-.1-5.2-4.2-9.3-6.5-9.4" style="fill:#4d4d4d"/><path d="m84.3 81.9-5.5 5s2.5 2.8 4.5 4.3c2.4 1.6 4.7 2 4.7 2s-.5 4 1.9 4.3c2.2.3 2-4 2.4-4.2.3 0 1 3.3 3 3.2s5.4-7.5 5.4-7.5l-4.4-11z" style="fill:#fea8a7"/><path d="M44.2 29c.1-.3-1.4-1.6-3-2.6-1.4-1-4.3-1.3-4.3-1.3L24 31.3 16.2 39l-4.7 3.3-4.9 3.3c-1.2.8-2.2 1.2-2.4 2.1S8.6 56 8.6 56l2.3 1.8 5.7-.5s7.6 3.5 11.2 4.7l11.5 4s1.5 4 2.5 6.2 3 5.4 3 5.4l20.6 10s2 7.7 2.3 9.8.8 7.7.7 10.5-.8 7.2-.7 8.4 1.3 3 3 3.2c3 .5 6.4-.5 7.9-2.6s-.4-7.6-.6-10c-.2-2.3-1.2-7.6-.5-9.3 1.2-2.9 2.4-6.6 2.6-7.8l.7-3.3s3.8 0 7-.4l6.1-1s1 4.1 1.1 6.6c.2 2.6.7 7.6.6 11.5s-1.4 8.7-1 9.7 1.3 2.7 5.2 2.2c4.2-.6 5.2-2.7 5.6-3.7s1-9.7 1.5-12c.6-2.2 2.4-11.1 3.4-14.1l4.7-14.4s0 4.7.2 6.6.9 6 2 5.9c1.1-.2.8-3.6.9-5.8 0-2.3-.1-5.4.7-8.1.9-2.7 1.7-6.9 1.7-7.4.5-4 0-8.7-.1-9.4s-5.7-4.5-5.7-4.5.1-2.9-.2-3.3-5.5-4.3-7.1-4.7c-2.7-.5-5.4.4-5.4.4l-14.9 11-27.2-11.1h-3.5c-.8 0-4.9-1.8-4.9-1.8L47 34.4z" style="fill:#dfdfdf"/><path d="M107.1 60.8c-.5-5.2 1.7-10.1 3-12.2s2.8-4 3.2-4.6 7.2 5.5 7 8.4c0 .5-.9 6.5-1.8 9.2-.8 2.3-2.7 7.9-3.3 8-.6.3-7.4-2.4-8-8.8m-.2 7c-2 0-3.4 1.8-5 3.7-1.8 2-3.1 3.4-2.8 5.3s2.4 5 6.2 4.6c4-.4 5-4.4 5-6.8.1-2.4-.7-6.7-3.5-6.8M81.8 40.2c-9.6 0-21 0-22.2.3-.7.2 1.8 8.6 6 13s17 20 26.6 15.9c6.5-2.9 5.2-12 6.3-16.9s5.9-12.2 5.9-12.2-14.8-.3-22.6-.1M60.3 25.4c.9 1.2-3.6 7.7-5.1 9.4s-4.4 3.6-4.4 3.6 2.5 1 2.9 1.3 3.8 6.6 3.8 8.4c0 3-6.5 10.8-9.5 10.7-3 0-10.3-4.9-11.3-6.2-1-1.4-2.3-13-.8-16.8s4.4-6.8 5.2-7 2 .2 2 .2 3.3-2.5 8.4-3.4 8.3-1 8.8-.2" style="fill:#4d4d4d"/><path d="M45 36.8c-.5-.5.7-4.6 4-7 3.5-2.5 7.3-2.4 7.9-2 .7.6-1.5 4.6-4.2 6.6-3.4 2.6-7.2 3-7.7 2.4" style="fill:#ffd1b3"/><path d="M16.4 44.8s4.2-8.5 7.5-10.9 6.8-3.2 9.7-4.3c4.4-1.5 6.1-4.8 6.1-4.8s-6-1.4-10.8.1c-3.7 1.1-7.4 3.5-9 5.4s-2.5 5.3-3.6 7a18 18 0 0 1-4.5 4.7q.2-.1 2.4 1z" style="fill:#4d4d4d"/><path d="M37.5 26.4c.2.6.6 1.8 1.7 2.5 1.1.9 3 1.1 4.2.7 2.1-.9 2.9-5.7 3-7.2.4-2.5 0-4.7-1.4-4.4-1 .1-3.6 3.5-4.4 4-1.2 1-3.6 2.4-3 4.4" style="fill:#ffbd16"/><path d="M26.5 38c.5-.3 1.3-2 2.8-1.8s2.6 2 2.2 3.9q-.9 2.9-3 2.3c-1.2-.2-1.8-1.5-2-1.7-.3-.2-2.6-.5-2.6-1.5s2.6-1.2 2.6-1.2" style="fill:#1b1b1b"/><path d="M7.3 55.6c-.4.5.4 2.2 2.3 2.8q3.1 1 5.3.3c1.3-.3 2.6-1.1 2.6-1.1s2.6-1 1.5-2.4c-1.6-1.9-3.6 1.1-3.6 1.1s-1.4.8-3.8.5c-1.9-.3-3.2-2-3.2-2z" style="fill:#4d4d4d"/><path d="M13 50.2c.2-1 .5-1.7-2.1-2.4-2.7-.8-5.2-1.3-6.3-.7-.6.2-1.2 3 .3 6 .8 1.5 2.5 4.3 3.2 4s2.3-2.7 2.7-3.3c.6-.8 1.9-2 2.2-3.6" style="fill:#fca4a7"/><path d="M11.3 49.7c0 1.4-2 2.8-4.5 2S3.9 49.4 4 48.4s2 0 3.2.2 4-.2 4 1.2" style="fill:#ffd3af"/><path d="M70.2 69.5c-2.2.5-4.3 4.3-4 7.4a7 7 0 0 0 6.1 6.6c3.5.4 6.1-2.9 6-5.8 0-2.1-2.4-3.3-3.8-4.9-2.2-2.6-2.9-3.6-4.3-3.3M45.6 69c-1.1.4-1.5 2.4-1.7 3.5s0 3.5.6 4.6c.5 1.2 3.7 6.3 4.6 7s4.9 2.4 9.5 3 6.9.5 6.9.5l-2.2-5c-1-2.4-2.4-6.4-4.3-8.6s-11.4-6-13.4-5" style="fill:#4d4d4d"/></svg>