<svg xml:space="preserve" width="16" height="16" viewBox="0 0 128 128"><ellipse cx="40.5" cy="16.6" rx="5.4" ry="5.9" style="fill:#f19534" transform="rotate(-10.5 40.46 16.65)"/><ellipse cx="87.1" cy="16.7" rx="5.9" ry="5.8" style="fill:#f19534" transform="rotate(-79.5 87.13 16.72)"/><path d="M38.9 18.2c-.3-3 1.3-3.6 1.6-3.8q1.3-1 .5-1.8c-.5-.6-1.6-.3-2-.1-1.5.6-3 3-1.9 6 .1.3.5 1 1.3.8.6-.2.5-.9.5-1.2m45.7-.5c.7-2.7 2.4-2.7 3-2.8q1.7-.4 1.5-1.3c-.2-1.2-1.6-1.2-2.5-1A4.6 4.6 0 0 0 83 17c0 .3 0 1.4.8 1.5.8 0 .9-.8 1-1" style="fill:#ffca28"/><path d="m36.4 32.2 2.7 7.3H88l3.6-7c-4-4-3.6-11.8-3.6-11.8l-3.4-1.4S80 29.8 62.9 29.8 43.1 19.3 43.1 19.3l-3.9 1.4s1.6 7.2-2.8 11.5" style="fill:#f19534"/><path d="M106.4 55.3S97 21.6 64.6 21.6h-1.2c-32.5 0-41.8 33.7-41.8 33.7a103 103 0 0 0-3.5 35.5v.2s1 20.1 4.3 33h83.2a205 205 0 0 0 4.2-33.2c.7-10.2.1-26-3.4-35.5" style="fill:#543930"/><radialGradient id="a" cx="65.4" cy="91.1" r="48.5" gradientTransform="matrix(1 0 0 1.214 0 -19.45)" gradientUnits="userSpaceOnUse"><stop offset=".8" style="stop-color:#6d4c41;stop-opacity:0"/><stop offset="1" style="stop-color:#6d4c41"/></radialGradient><path d="M106.4 55.3S97 21.6 64.6 21.6h-1.2c-32.5 0-41.8 33.7-41.8 33.7a103 103 0 0 0-3.5 35.5c0 .1 1 20.3 4.3 33.2h83.2c3.3-12.9 4.2-33.2 4.2-33.2.7-10.2.1-26-3.4-35.5" style="fill:url(#a)"/><path d="M64 124c20.3 0 39.1-21.7 39.1-53 0-31-19.4-46.4-39.1-46.4S24.9 39.9 24.9 71c0 31.3 18.8 53 39.1 53" style="fill:#ffca28"/><path d="M68.5 91h-9q-1.3.7-.8 2c.3.8 2 3.1 5.3 3.1s5-2.3 5.3-3.1q.5-1.3-.8-2" style="fill:#e59600"/><path d="M73.8 100.4a30 30 0 0 1-19.6 0c-2.1-1.3-4.3.7-3.4 2.6s7.5 6.4 13.2 6.4 12.3-4.5 13.2-6.4c1-2-1.2-3.8-3.4-2.6" style="fill:#795548"/><ellipse cx="45.1" cy="80.3" rx="5.7" ry="5.9" style="fill:#404040"/><ellipse cx="82.9" cy="80.3" rx="5.7" ry="5.9" style="fill:#404040"/><path d="M53.5 69.7c-1-1.4-3.6-3.5-8.4-3.5s-7.4 2-8.5 3.5q-.5 1 0 1.8t2.2.5c1-.4 3-1.4 6.3-1.4s5.2 1 6.2 1.4 2 0 2.2-.5q.7-.7 0-1.8m37.9 0c-1.1-1.4-3.6-3.5-8.5-3.5s-7.3 2-8.4 3.5q-.7 1 0 1.8t2.2.5c1-.4 3-1.4 6.2-1.4s5.2 1 6.2 1.4q1.7.4 2.3-.5.5-.7 0-1.8" style="fill:#6d4c41"/><path d="M64.6 16.5c-39.2 0-43.6 25-43.9 35q0 1.5.3 2.5l-.2 1.4C20.3 59.1 17 72 18.2 91h7.6c0-3.4 2.4-24.5 9.5-26A94 94 0 0 0 76 45.1c4 8.5 16 16.7 20.3 19.9 3.5 2.5 4.6 21.6 4.5 26.1h9s1-21.2-3.4-35.7c0 0 7-38.8-41.8-38.8" style="fill:#543930"/><radialGradient id="b" cx="65.3" cy="43.6" r="48.2" gradientTransform="matrix(1 0 0 -1.214 0 143.94)" gradientUnits="userSpaceOnUse"><stop offset=".8" style="stop-color:#6d4c41;stop-opacity:0"/><stop offset="1" style="stop-color:#6d4c41"/></radialGradient><path d="M64.6 16.5c-39.2 0-43.6 25-43.9 35q0 1.5.3 2.5l-.2 1.4C20.3 59.1 17 72 18.2 91h7.6c0-3.4 2.4-24.5 9.5-26A94 94 0 0 0 76 45.1c4 8.5 16 16.7 20.3 19.9 3.5 2.5 4.6 21.6 4.5 26.1h9s1-21.2-3.4-35.7c0 0 7-38.8-41.8-38.8" style="fill:url(#b)"/><path d="M112.2 14.1c-2.7-.5-5.3 1.7-5.9 4.9q-.5 2.6.9 4.7c-2.9 2-12 7.8-23.8 4.8-11.6-3-15.1-8.9-16.3-14a5.9 5.9 0 1 0-6.2 0c-1.1 5-4.6 10.6-16.3 14a27 27 0 0 1-23.8-4.8q1.3-2 .9-4.7c-.6-3.2-3.2-5.4-5.9-4.9-2.6.5-4.3 3.5-3.7 6.7.5 2.5 2.1 4.4 4.1 4.8L21 54c-.4 0-1.6.6-1 3.2l.3 1.9c1.2-.1 21-1.8 43.7-1.8s42.5 1.7 43.7 1.8l.4-2c.5-2.5-.7-3-1-3.1l4.7-28.4c2-.4 3.6-2.3 4-4.8.7-3.2-1-6.2-3.6-6.7" style="fill:#ffca28"/><ellipse cx="64" cy="39.5" rx="6" ry="7.4" style="fill:#ab47bc"/><path d="M64 34c.2.2.4 1-.2 1.8-1 1.2-2.5 2.2-3 2.4q-.6.3-1 0c-.6-.6-.3-1.8 0-2.5 1-1.6 2.9-3.3 4.2-1.8" style="fill:#ea80fc"/><path d="M63.6 42.3c-.7.3-3 1.1-2.2 2.6.5.7 2.3 1.5 4.5.4 3.5-1.8 3.5-6.8 2.9-7.2-.7-.3-1.3.5-1.7 1.4-.8 1.5-2 2-3.5 2.8" style="fill:#7b1fa2"/><path d="M103.8 44c.5-3.1 2-5.6 4-5.3 2.6.5 3.5 3.4 3 6.6s-2.4 5.4-5 5c-1.6-.2-2.5-3-2-6.2" style="fill:#ab47bc"/><path d="M108.5 40.5q.4.2.4 1.3c-.2.8-1.7 2.3-2 2.6q-.4.4-.7.3c-.6-.3-.6-1.3-.5-2 .4-1.4 1.5-3 2.8-2.2" style="fill:#ea80fc"/><path d="M24.2 43.5c-.5-3.3-2-5.7-4-5.4-2.6.5-3.5 3.4-3 6.6s2.4 5.4 5 5c1.6-.2 2.5-3 2-6.2" style="fill:#ab47bc"/><path d="M19.3 40c1-.4 1.7.3 1.3 1.2q-.8 2.1-.7 2.8 0 .8-.6.8-.8 0-1-1.2c-.2-1.4 0-3 1-3.5" style="fill:#ea80fc"/><ellipse cx="40.5" cy="41.3" rx="3.9" ry="4.5" style="fill:#6119ff" transform="rotate(-14.2 40.46 41.25)"/><path d="M39.9 38q.5 0 .6 1.2c.1.9-.9 2.7-1 3q-.5.6-.8.4c-.7-.1-1-1-1-1.7 0-1.5.7-3.4 2.2-2.9" style="fill:#536dfe"/><ellipse cx="87.5" cy="41.3" rx="4.5" ry="3.9" style="fill:#6119ff" transform="rotate(-75.8 87.53 41.25)"/><path d="M87.9 38.3q.4.1.3 1.3c-.2.9-1.7 2.3-2 2.6s-.6.3-.7.2c-.6-.3-.6-1.3-.5-2 .4-1.4 1.5-3 2.8-2.1" style="fill:#536dfe"/><path d="M61.6 10.8c.4-3.3 2.7-3.5 3.1-3.5q1.5-.3 1-1.5c-.2-.9-1.4-.8-1.7-.8-1.8 0-4.6 1.8-4.1 5.7.1 1.2 1.6 1.2 1.7 0M23.1 54q5.4-.6 8.6-.6c1.7-.2 2.5.4 2.7.9q0 1.2-2 1.2l-8.7.5q-1.7.1-1.8-.8 0-.8 1.2-1.2M19 21c-.8-3-3-3.6-3.3-3.9q-.8-.5-.5-1.5.6-.7 1.4-.4c1.9.5 3.6 2.3 3.7 5.7 0 .7-1.1 1.1-1.4 0m2.7 8.5c-.8-.5-2.3-2-1.2-2.6 1.4-.8 2.2 1.1 7.3 3 2 .8 5.3 1.5 8.2 1.5 1.4 0 1.4 1-.2 1.3s-8.5.5-14-3.2M109 21c.8-3 3-3.6 3.3-3.9q.8-.5.5-1.5-.6-.7-1.4-.4c-1.9.5-3.6 2.3-3.7 5.7 0 .7 1.1 1.1 1.4 0m-2.7 8.5c.8-.5 2.3-2 1.1-2.6-1.3-.8-2.1 1.1-7.2 3-2 .8-5.3 1.5-8.2 1.5-1.4 0-1.4 1 .2 1.3s8.5.5 14-3.2" style="fill:#fff59d"/><path d="M64 55.3c-23.8 0-43.9 1.9-44 1.9l.3 1.9a540 540 0 0 1 87.4 0l.4-2c-.2 0-20.3-1.8-44.1-1.8" style="fill:#e2a610"/><path d="M64 50.3c-29.5 0-43.2 1.7-43.3 1.7l.3 2c.1 0 13.7-1.7 43-1.7s42.9 1.7 43 1.7l.4-2c-.2 0-14-1.7-43.4-1.7" style="fill:#f19534"/></svg>