<svg xml:space="preserve" width="16" height="16" viewBox="0 0 128 128"><path d="M108.6 45.7s2-34.4-28-38.9c-26.9-4-32.2 21.6-32.2 21.6s-9.5-2.5-16.8 4C24.4 39 25 46.2 25 46.2S6.8 44.3 5 59.6C3.3 74 24 70 24 70l100.4-7.4s2.4-7.5-5.2-13.2a22 22 0 0 0-10.7-3.7" style="fill:#e4eaee"/><path d="M57 55.8c.8-.2 3.3 3 17.1 3 14.4 0 32.1-12.1 32.1-12.1s0 4.7-1.5 7.2c-2 3.2-6.5 5-6.5 5s6.5 2.7 15 2c6.6-.5 11.2-4 11.2-4s.7 3.2.3 6.3c-.7 6.3-4.3 8-8.3 8.5-3 .4-28.4 1.2-38.9 1.3-9.3.1-57 .3-61.8-.3-5-.5-8.9-3.2-10.3-7.6-1-3.3-.4-6.5-.4-6.5S10.8 61 17.7 61c6.6 0 11.5-3.1 11.5-3.1s5.2 3.6 14 2.8C50.6 60 57 55.8 57 55.8" style="fill:#b9ced2"/><path d="M104 81.6s2.3-3.7 3-4.4c.5-.8 1.5-1.6 2.8-.9s.8 2.2.5 2.8l-2.5 4.8h4.9c.9 0 2.5.7 2.5 2.2q0 2.1-2.2 2.3c-2.2.2-5.3 0-5.3 0l2.6 4.4c.6 1 .7 2.3-.2 3-1.1 1-2.6.4-3.5-1l-2.7-4-3 4.3c-.7.8-1.8 1.7-3 .8-1.4-1-.6-2.3 0-3.2l2.6-4.1-5.7-.1q-2.1 0-2.3-2.2.2-2 2.5-2l5.6-.1s-2.5-3.5-3.1-4.6-.7-2.3.2-3c1-.8 2.2-.3 3 .6zm-38.8 3.6 2.9-4.4c.6-.7 1.6-1.5 2.8-.8 1.3.7.9 2.1.5 2.8L69 87.5h4.8c.8 0 2.5.7 2.5 2.3q.1 2-2.2 2.2h-5.3l2.7 4.4c.7 1 .6 2.3-.2 3q-2 1.4-3.5-1l-2.7-4-3 4.4c-.7.7-1.9 1.7-3 .8-1.5-1.1-.7-2.3 0-3.3l2.6-4L56 92c-1.3 0-2.4-.7-2.3-2.1q.1-2.2 2.5-2.1h5.5l-3.1-4.6c-.6-1-.7-2.3.3-3q1.6-1 2.9.5c1.3 1.5 3.4 4.4 3.4 4.4m-21 20.3L47 101c.6-.7 1.7-1.5 3-.8 1.2.7.8 2.1.4 2.8l-2.4 4.7h4.8c.8 0 2.5.7 2.5 2.3q.1 2-2.2 2.2l-5.3.1 2.7 4.4q1 1.7-.2 3-2 1.2-3.5-1l-2.7-4L41 119c-.6.7-1.8 1.7-3 .8-1.4-1.1-.6-2.3 0-3.3l2.6-4-5.7-.2q-2.1 0-2.3-2.1.2-2.2 2.5-2.1h5.6l-3.1-4.6c-.7-1-.7-2.3.3-3q1.6-1 2.9.6zM26.9 82.2s2.3-3.7 3-4.4 1.6-1.5 2.8-.8c1.3.7.8 2.2.5 2.8l-2.6 4.7h4.9c.9 0 2.4.8 2.4 2.4q.1 2-2.2 2.2h-5.3l2.6 4.4q1 1.6-.3 3c-1.1.9-2.6.3-3.4-1l-2.7-4-3.1 4.2c-.7.7-1.8 1.6-3 .7-1.4-1-.5-2.3 0-3.2l2.7-4-5.7-.3c-1.2 0-2.3-.7-2.2-2.1q.1-2.2 2.5-2.1h5.6s-2.5-3.5-3-4.6c-.7-1-.7-2.3.3-3q1.6-1 2.8.7zm60.1 23s2.3-3.7 3-4.4c.5-.8 1.5-1.6 2.8-.9s.9 2.2.5 2.8l-2.5 4.7h5c1 0 2.4.7 2.4 2.3q0 2-2.2 2.3c-2.2.3-5.3 0-5.3 0l2.6 4.4q1 1.7-.2 3c-1 1-2.6.4-3.4-1l-2.8-4-3 4.3c-.6.8-1.8 1.7-3 .8-1.4-1-.6-2.3 0-3.3l2.6-4-5.7-.2c-1.2 0-2.3-.7-2.3-2.1q.2-2.1 2.5-2.1h5.6l-3.1-4.6c-.7-1-.7-2.3.2-3q1.6-1 3 .6z" style="fill:#92c9f4"/></svg>