<svg xml:space="preserve" width="16" height="16" viewBox="0 0 128 128"><path d="M53.3 18.8a12.9 12.9 0 1 1 25.8 0 12.9 12.9 0 0 1-25.8 0m7.5 0a5.4 5.4 0 1 0 10.8 0 5.4 5.4 0 0 0-10.8 0" style="fill:#e2a610"/><path d="M77.2 12.3s.6 2.2-2 3.5c-2.7 1.2-4.4.3-4.4.3q.8 1.2.8 2.7a5.4 5.4 0 1 1-10.3-2.4c-4.4 2.2-7.8.3-7.8.3a12.7 12.7 0 0 0 12.7 15 13 13 0 0 0 11-19.4" style="fill:#9e740b"/><path d="M10.5 97.8c6.7-6.6 11-8.9 12.7-18.5s.3-30 7.9-43.3a36 36 0 0 1 32-17.2h1.8c12.4 0 25 5 32 17.2 7.6 13.3 6.2 33.6 8 43.3 1.6 9.6 5.9 11.8 12.6 18.5 3 2.9 6.5 7.4 6.5 10.4s-1.5 4-5 5.5c-10.2 4.2-23.7 8.4-55 8.4s-44.8-4.2-55-8.4c-3.5-1.5-5-2.6-5-5.5 0-3 3.5-7.5 6.5-10.4" style="fill:#ffca28"/><path d="M113.7 108.4c0-4.5-22.2-8-49.7-8s-49.7 3.5-49.7 8S36.5 118 64 118s49.7-5.3 49.7-9.7" style="fill:#4e342e"/><path d="m93.8 44.8 1 4.2c1.2 7 1 14.3 1.6 21.4.8 9.6 2.5 14.6 6.3 19.1.5.6 0 1.5-.8 1.4a32 32 0 0 1-14-4.7c-7-4.6-8.8-13.4-8.9-21.2 0-11.7.2-23-.7-27.4a31 31 0 0 0-4.5-12c-3-4.5 8.6 1.7 10.4 3a29 29 0 0 1 9.6 16.2" style="fill:#e2a610"/><path d="M30.9 60.3c-.1-7.6 0-15.4 3-22.4 1.8-4.1 4.8-7.9 8.8-10.2 3-1.8 9.3-3.9 11.5.3q.7 1.3.7 2.7c0 3.4-1.6 6.4-3.3 9.3-5 8.5-7 17.7-9.5 27.1q-1.5 6.1-4.8 11c-1.6 2.3-10.5 10.3-8.5 3a66 66 0 0 0 2-20.8" style="fill:#fff59d"/><path d="M73 106.8q.2-2.5-3-3.4c-4.4-1.6-10-1.3-13.2.5-3.4 1.8-1 11.9 7.2 11.9s9.1-7.7 9-9" style="fill:#e2a610"/><path d="M33.3 91.8a36 36 0 0 0-18 7.6c-2.1 2-2.1 3.8 1.7 2a85 85 0 0 1 20.3-4.8c14-1.4 22.5-1.4 24-1.4 3.3 0 3.6-2.5-3.2-3.4-6.8-1-16-1.5-24.8 0m27.2 22c1.1.8 2.7 1.2 4 .7s2.1-2.2 1.5-3.5q-.5-.7-1.1-1.2a16 16 0 0 0-4-2.2l-1.7-.4q-1 0-1.4.9c-1 2.2 1 4.6 2.7 5.7" style="fill:#fff59d"/></svg>