<svg xml:space="preserve" width="16" height="16" viewBox="0 0 128 128"><path d="M87.6 22.7v-3c-.1-3.8-.7-8.3-5.5-10.2Q80.6 9 79.2 9h-5s-2.4 3.3-4 5L58 27.4a2 2 0 0 1-3.4-.8l-3.9-14.7c-1.2-4.2-2.9-6.3-6-7.5q-1-.4-2.2-.4h-4.7s-1.7 2-3.4 3.7L8.3 31.2a4 4 0 0 0-.4 5.3l4.5 10.2h5.1q1.7 0 3.1-1.1L34 33.9a2 2 0 0 1 3.3 1l4.2 17.6c.5 2.2 4.1 7.3 4.1 7.3h5.1c2.7 0 5.4-1.2 7.2-3.3L67 45.8c.6-.7 1.6-.3 1.8.5 2.4 20.2 36.9 77.6 36.9 77.6h5q1.7 0 3-1.2L126 110a4 4 0 0 0-.1-5.7 128 128 0 0 1-38.3-81.6" style="fill:#f2a600"/><path d="M82.6 22.7v-3c-.1-3.8-.7-8.3-5.5-10.2Q71.4 7.3 65.3 14L53.1 27.4a2 2 0 0 1-3.4-.8l-3.9-14.7c-1.2-4.2-2.9-6.3-6-7.5-3-1.1-7.3.3-10.4 3.3L3.3 31.2a4 4 0 0 0-.4 5.3l6.7 8.7a4 4 0 0 0 5.9.4L29 33.9a2 2 0 0 1 3.3 1l4.2 17.6a9 9 0 0 0 7 7c3.4.8 7.1-.4 9.4-3L62 45.8c.6-.7 1.6-.3 1.8.5a149 149 0 0 0 39.2 76.5 4 4 0 0 0 5.7-.1L121 110a4 4 0 0 0-.1-5.7 128 128 0 0 1-38.3-81.6" style="fill:#ffcc32"/><circle cx="102.4" cy="95" r="3.3" style="fill:#fff170"/><path d="M96 90.6q-1.6 0-2.6-1.4a178 178 0 0 1-10-20.2c-1.5-3.7-4.3-10.4-6.5-18.7-1.5-6-2.6-14.2-3-16.8-.6-5.3-.7-10.7-1.2-10.8-1.6-.5-2.5 3-4 3.4-2.4.7-4.5-1.9-3.5-4.2 1.1-2.3 3.7-4.4 5.3-5.6q2.4-1.8 4.7-1c3 1 3 4.4 3.4 8.6a108 108 0 0 0 10.2 43c2.4 5.3 8.4 17.2 9.7 19.3a3 3 0 0 1-1 4q-.7.4-1.5.4m-50.5-66c-1.4-7-2-9-3-12.4a5 5 0 0 0-7-3.3c-2.2 1-5.8 4.3-7 5.4-1.4 1.2-3.6 3.6-2 5.4 1.6 1.7 4.2 0 5-.6l3.4-2.8c1-.8 2.3-.2 2.6 1 1.2 6.2 2 8.2 2.2 9.5.4 1.4 1.3 4.6 4.3 3.7s1.8-4 1.5-5.9" style="fill:#fff170"/></svg>