<svg xml:space="preserve" width="16" height="16" viewBox="0 0 128 128"><path d="M106 121.7H36.2c-1.7 0-1.3-1.4-1.3-3V14a3 3 0 0 1 3-3h69.4a5 5 0 0 1 5 4.9v99.7q0 6-6.3 6" style="fill:#616161"/><path d="M18.5 115.1c0 2 3.1 3.6 5 3.6H104c3 0 4.6-1.6 4.6-3.6l-.3-21.3H18.5z" style="fill:#94c6d6"/><path d="M101.5 105.9s-2.2 5.8 0 8.8c2.5 3.4 6.9 2.5 6.9 1V16.3a1 1 0 0 0-1.3-1c-1.3.3-3.8.3-7.2-1.9z" style="fill:#f5f5f5"/><path d="M94.2 110.9H23.6V6.4H96q3.5 0 4.6 1.6 1.5 2 1.5 5.5V103c0 4.3-3.5 7.8-7.8 7.8" style="fill:#616161"/><path d="M92 107.8H25.5a5 5 0 0 1-5-5V11.5a5 5 0 0 1 5-5H92c3.8 0 7 2.1 7 6.9v87.5a7 7 0 0 1-7 6.9" style="fill:#212121"/><path d="M34.4 109.8V6.5H23.2s-2.3-.4-3.9 0c-2.8.7-3.5 2.7-3.5 6V107c0 6.7.4 9.6 2.4 11.8-.1-1.6.9-6.9 1.7-8.3.7-1.3 14.5-.7 14.5-.7" style="fill:#616161"/><path d="M23.2 6.5v104.3" style="fill:none;stroke:#424242;stroke-width:2;stroke-miterlimit:10"/><path d="m34.4 109.3-11.3.3c-3.8 0-5 4-4.4 6.7.8 3.3 4.3 3.9 5.2 3.9h12.6" style="fill:none;stroke:#424242;stroke-width:3;stroke-miterlimit:10"/><path d="M56 96.7c.8-2-1-1.1-1.8-2q-.7-1.1 0-2.2c.5-.5 1.4-.6 1.7 0 .5.5.3 1.3.7 1.8s1 .3 1.4.5c1 .5 1.4 2 .4 2.7-.7.8-2.7.5-2.4-.8m-4.3-17.1c.6.2 1.2.9 1 1.4-.5.9-1.5 1.2-1.4 2.4.2 1.8 2 1.9 2.8.4q.5-.9 1.4-1.3c.9-.4 1.5.3 1.3 1 0 .3-.5.5-.6.9q-.2.5 0 1c.3 1 .7 2.5 2 2.6q1-.1.8-1c-.1-.6-.8-.9-.8-1.4 0-.8 1.7-.5 2-1.3.4-.7-.6-1.3-.9-2-.2-1.6-.6-1.7-2-1.4q-1.6.1-2.5-1.2c-.5-.7-.6-1.8-1.4-2q-.9 0-1.4.4c-.7.1-.9 0-1.5-.3q-1-.6-2 .2c-.4.4-.8 1-.3 1.5.7.8 2.6-.2 3.5.1m-2.6 9.7h1.7l1.2.9q1 .3 1.6-.6c.6-1.1-.7-2.5-2-2.4q-.7 0-1.6.4c-.5 0-2-.5-2.4 0-.5.7 1 1.7 1.5 1.7m-5.5-8.8q.8.5.7 1.4c-.1.5-.5 1 0 1.5.3.3.8 0 1.2 0 2-.2 2.4 2.6 0 2.3q-1-.3-2-.3-1 .3-1.2-.9c-.3-.9-.7-4.8 1.3-4m26.8 9.3c-1.1.7-1.2 2.7.2 3.1.5.2 1 0 1.4.5q.1.5.4.9c.9.4 1.2-.6.9-1.4q-.3-.7.5-.6c.6.1 1 1 1.6 1.2 1 .3 2.9-.3 2.2-1.5-.4-.4-1-.2-1.6-.5q-.4-.2-.6-.7c-.3-.6-.9-1.1-1-1.8l.2-1q-.1-.7-1-.7c-1.2.3 0 2-.8 2.4-.4.2-.8-.3-1.2-.3q-.6 0-1.2.4m-6.5-2.1q1.2.3 2 1 .1.9-.5 1.1c-.8.2-1.9-.1-2.4.6-.3.4-.2 1.2.3 1.4s1.2 0 1.6.3c.4.5.3 1.3 1 1.6q.6.3.9-.4c-.1-.7-.5-1.3.1-2 .4-.6 1.3-1 1.3-1.7 0-.8-1.2-1.3-1.3-2.1s.6-1.5.2-2.2-1.1-.2-1.6 0l-1.4.3c-1 .2-1.4 1.4-.2 2m-.3-4.8c1 .7 1.8-.4 2.7-.5q.8.2 1.4-.1.4-.5 0-1c-.5-.7-1.4-.6-2-1-1.2-.7-2.6-1.2-4-.6q-1 .2-.3.8c.5.5 1.1.3 1.5 1 .3.5.2 1 .7 1.4m-3-7c1 1.1 2.7.6 4.1.8l1.8.2 1.6-.5c.7 0 1.9.4 2-.6q0-.6-.7-1.3c-.3-.7.3-2-.6-2.3-1-.5-.9 1-.9 1.6q-1.3-.4-2.4.2l-.6.6c-1.4 1-2.8-.8-4.2-.4-.6.4-.5 1.3 0 1.7m1-8.1c.7 0 1.7-.3 2.1.4s0 1.2-.1 1.8A2 2 0 0 0 65 72q.6.2.8-.3c0-.4-.6-.7-.6-1.1-.1-.5.5-.8.6-1.3l-.2-.9c-.5-1.3 0-2.9-.7-4q-.5-.4-1-.3l-.4.6q-.6.6-1.7.5c-1.5.2-2.3 2.5-.2 2.5m-1.4 3c.9.4 1 1.5.1 2-1.2.6-3.1-1.1-3.4-2.3q-.1-1.1 1-1.3c1 0 1.6 1 2.3 1.6M50 96.4c-.2 1.1 1.2 1.7 1.8.6.2-.5.2-2.6-.8-2.9s-1 1.8-1 2.3m-7.8-26.9c-1 .4-1 1.5-.8 2.4.2 1.3-1 1.8-2 2.3-1.6 1.4.8 2.4 2 1.5s1.3-3 3-3.3c.7 0 1.7.4 2.2-.1.9-1-.4-2.1-.8-3-.5-1.5.6-3.2-.2-4.5-.6-.8-2-1-2.7-.2-.5.5-.2 1.4.5 1.6q.5 0 .9.3v.5c0 1 .5 2.7 0 3s-1.2-.7-2.1-.5m7.3 2.5c-2.2 1.7 1.1 2.6 2.5 1.7q.7-.3.6-1c-.4-.5-1-1-.8-1.8l.3-1.3c0-1.3-2.3-2.1-2.9-.8s1.9 1.7.3 3.1m7 1.9.5 1.3c.2.5 1 1.2.4 1.7q-.2.2-.6 0c-1-.5-2.5-1.5-2.4-2.9 0-1.3 1.5-1.1 2 0m-8-10.6c.7.2 1.3-.7 2-.5s1 1 1.5 1.5c2.7 2.3 3.5-3.2.9-3.6l-1.8.2c-1.5.2-1.6-2-2.7-1-.7.6-1.3 3 0 3.4m9.4-2.9c.5 1.5-1.8 2.8-.6 4.3q.5.7 1.3.4.5-.3.8-.8c.7-.7 2-.7 2.5-1.6q.3-.9-.5-1.3h-.8c-.8-.2-.7-1.2-.7-1.9 0-1.5-1.7-3-3.2-2.2-.8.5.3 1 .6 1.5zm11.3-1q-2.5.2-1.6 2.2c.3.9.1 2.3 1.3 2.6 2-.1 1 .8.3 1.8s-.1 2 .8 2.5c.5.2 1.3 0 1.5-.6s-.1-1.2 0-1.8q0-.8.8-1.2.5 0 .9-.4c.7-.7-.6-2.7-1.6-2.4l-.7.7c-.3.5-1 .6-1.1 0-.3-.9.1-1.9 1-2.1q1-.4 0-1.2zm2.4 11.5c-.3 1.4 1.3 2.4 2.3 1.3q1.1-.9 2.2-.2l1 1.1c.6.3 1.4-.2 1.4-.8s-.9-1.3-.8-2L78 69c.1-1-1-1.7-1.1-2.7 0-.7.5-1.4.3-2.1q-.4-1-1.4-.9c-2.6.4-1 4.1-1 5.7-.1 2.1-2.8-.2-3.4 1.9m3.6 5.5q.3 0 .4.4c.3.5-.6 1.1-.2 1.7l.6.5c.5.6-.4 1.2-.5 1.7-.2.8.8 1.6.4 2.3-1.1-.1-2.8-2.3-3.1-3.4-.4-1.6.3-4 2.4-3.2m2.7.9q.7.7 1.6.5c.8 0 1.6 0 1.7-.9q0-.9-.8-1.5c-1.1-.6-3.3.6-2.5 2m1.5 4.3q.3.7-.2 1-.5.5-.8 1.1-.2 1 .6 1.5c.6.4 1.3.1 2 .3.8.4 1 1.5 1.9 2 .7 0 0-1 0-1.5-.3-1 1-2.2 0-3.1-.5-.4-1.3-.3-1.8-.9l-.7-1.2q-.3-.7-1-.5c-1 .4-.3.8 0 1.3m8.2-1.1q1.9-1.2 2.5 1 .2 2.4-2 1.7c-1-.4-2.7 0-2.6 1.3 0 .6.7 1.1 1.2 1l.8-.5c1.1-.4 2 1.8 3.1 1.2.5-.3.4-1 .7-1.4.5-.8 1.8-.6 2.2-1.4s-.8-1.7-.9-2.7l.2-1.5c.1-2.1-2-.3-2.9-.4-1.3-.2-2.4-1-3.8-1-3.4 0-.7 3.8 1.5 2.7M81.7 72l.9.1q.6.6.6 1.4c.3 1.5 2.2 3 3.6 2.2q.6-.5.4-1.2-.2-.4-.7-.7-.4-1-1-1.9-.9-.6-2.1-.5c-.2 0-.7-2.6-2.2-2-1 .4-.7 2.4.5 2.6m1.3-7.4c.8-.3 1.7 0 2.3-.5q.5-.4 0-.8c-1-.8-4-1.3-5-.2q-.6 1 .3 1.8c1 .8 1.6 0 2.5-.3m-6-7.3c1.8-1.2-1.6 3.9 3.2 3.3q1 0 1.7-.2.7-.5.2-1.2c-1-1.2-3.3-.1-3.8-1.8.3-.8 1.5-.3 2-.7q.6-.5.6-1.7.4-.7.4-1.6c-.7-1.4-2.5-.6-2.1.8-1.4-.4-1.8.4-2.7 1-.7.5-1.5.4-2.2.7q-1.2.5-.4 1.7c.8 1.3 2.4.4 3.1-.3M44.2 75.4c1.1-.5 4 0 2.7 1.6-1 1.3-1.7 3.4-3.3 1.4-1-1.2-1-2.5.6-3M40 66.5q-.3-.9-1.2-1c-.5-.2-1 0-1.5-.2-1-.4-1.5-1.6-2.9-1.4v3.6l.9.3c.8.6 1 2.7 2.5 2 .9-.7-.5-2-.1-2.9.5.3 2.5.5 2.3-.4M34.4 74v4.5c.6-.2 1.2-1.2 1.7-1.7 1.4-1.6-.4-3.5-1.7-2.8m6 14.6q-.9-.3-.6-1.2.3-2-1.3-3.3c-.6-.4-1.3-.9-1.1-1.5q.1-.6.7-.8c1.7-1.5-1.5-2-2.5-1.3l-1.2.8V86q1.1-.4 2.1-1c.8-.2 1.1.9 1.1 1.5q0 1 .6 1.8c.6.8 1.2.5 1.5 1s-.2 1-.2 1.4q0 .8.8 1.2c.8.3 1.7-.5 1.7-1.4q-.2-1.4-1.6-2m4.4 6.5c2.7 2 3.7-4.8.7-3.9-.9.3-.7.8-1 1.6-.3 1-1 1.6.3 2.4m-5.4.4c-1.1-1.2-3 0-2-2.4.3-2-2.1-2.4-3-.7v4.4c1.1.3 1.8-.6 2.6-1q.3 0 .4.3c.2 2.5 3.5 1.3 2-.6m2.1 3.9c-.4.6-1.2.4-1.8.5-1.3.3-1 1.5-1.4 2.5-.4.7-2.2 1.2-1.6 2.3.8 1 2.2-.3 3.1-.7q1.2-.5 1.8-1.6c1-1.2 2.2-.3 3.1-1 1.1-1.1 0-5-1.8-4.7q-.8.1-1.3.8c-.4.6.1 1.3-.1 1.8m-.4 8.5c-.3-.7.6-1.5 1.2-2q.7-.3 1.3-.8l.7-.8q.7-.2 1.4.6.8 1.3.6 3m5-7.3c-1-.5-2.6-.3-2.4 1 0 .6.7 1 .9 1.4.3.8-.6 1.8-.3 2.6.3.6 1.2.7 1.7.2q.7-.7.2-1.8l-.1-.5c.2-.4 1-.5 1.4-.3.6.4.3 1.3.3 2 .2 1.4 2.2 1.6 2.5.2q-.1-.8.1-1.4l1.1-.6c.5-.3.6-1 1.2-1l1 .1c.7 0 1.6-1 1.6-1.8-.1-.9-1.2-1.2-2-.8-.6.3-.8 1.3-1.6 1.4-.6.1-1.5-.3-2.2-.3-1.3 0-2.1 0-3.4-.4m10.1-8.1c-.4-.9-1.1-1.9-2.1-1.8-2.3.3-.6 1.9.2 2.6l.8.6c1 .6 1.6-.6 1-1.5m-3.5 15.5c-.2-2.2 2.5-2.9 4.1-1.9q.6.4 1.1.2c.6-.6-.5-1.7-.2-2.6 0-.9 1.3-1.6 1.9-.7q.2.7 0 1.3c0 1.2 1.3 2.5 1.1 3.7m-.7-12c-1.2.3-1.7 1.8-.4 2.3 1 .5 1.9 1.4 3 1.4 1.2-.2 1.7-2.1 1-3-.7-1-2.6-1-3.6-.7m7.5 2.1-.5 1.5c-.7 1.4-3.5 2.3-2.6 4.2l1 1q.6.8 1.3 1.2.9 0 1-.8.3-.8-.5-1.3-1.1-.6 0-1.3c.5-.5.2-1.9.7-2.1s.5.4.5.7c.2.5 1 .7 1.3.3q.6-1 1.6-.4c.9.7 1.8 2 3 1.5.7-.3 1-1.3.5-1.8-.8-.6-1.9-.6-2.8-1q-.7 0-.6-.8c.4-2.5-2.9-2.7-3.9-1m10.3-5.5c.1-1-.5-2.5-1.8-2.5q-.3 0-.7.3c-.9.5-.2 2.2.3 2.8.8.9 2 .6 2.2-.6m-1.4 6.1q1 .8 2.2 1.3c2.4.7 4.3-2 1.7-3.2-1.7-.8-6.9-.7-4 2m0 9.3c-.7-.7 0-1.8.5-2.5s.2-1.6.6-2.3c.6-.8 2-.7 2.3.2l.4.7q.7.5 1.4-.3l.6-1.4c.5-1 1.8-1.3 2.6-.7q.8.6 0 1.4c-.4.5-.8 0-1.5.5s-.4 1-.5 1.2c-.5.9-1.9.6-2.4.9s.6 1.4.8 2.1m3-17.5c2.6.4 4.7 3.4 4 6-.5.7-1.4.4-1.5-.4v-1.4c-.9-1-1.5 1.2-2.3 1.3q-1-.1-1-1c0-.9 0-1 .3-1.5v-.3c-1-.9-1.6.5-2.4.9-1.6.7-1.4-1.6-.8-2.4.7-1 2.6-1.4 3.7-1.2M99 86c-.4-.6-1.4-.6-2-.4-.6.4-.4 1.4-.8 2q-.5.4-1.1.6c-.9.4-1 1.4 0 1.7q.6 0 1 .2c1 .4 1.7 1.6 2.8 1.2m-4.3 10c1 .1 1.7 1.4 1.6 2.3a5 5 0 0 1-1.6 2.3c-1.6 1-2.7.8-2-1.3.3-1 .5-3.3 2-3.3m4.4-6c-1.3.3-1.5-.3-2.3.4-1.5 1.4 1 3.3 2.2 4.1M69.2 83.6c0 2.5 3.8 2 2.7-.8 0 0-2.7-1.8-2.7.8M58.3 51h-.8v-.6c-.1-1-1.6-2.3-2.7-2-.3.1-.4.7-.1.9q.4 0 .7.3l-.3.7q-.1.6.2 1l.9.7.1.7c.2 1.4 2 1.6 2.7.8.7-.7.7-2.7-.7-2.5m2-36c-.4.5-.4 1.3.1 1.6 1 .4 2 0 2.6 1q.6 1-.1 2c-1.1 1-2.6-.5-3.8-.1-.6.2-1 1.2-.5 1.6l1.1.3q.5.4.6 1c.5.9 1 2.3 0 3.1-.4.4-1.1.3-1.3-.3s.2-1.1-.2-1.5c-.5-.7-1.6.6-2.4.2-.6-.3-.3-1.4-.5-2.2-.8-1.4-.6-1.7.8-2.3q1.4-1 1.2-2.5c-.2-1.5-.6-1.8 0-2.5q.5-.4 1.2-.5.7-.4 1-1.2.5-1 1.7-1 1-.1 1.2 1c-.1 1-2.2 1.4-2.7 2.3m8 6q-.7.4-1.3 1c-.3.5-.2 1-.5 1.4-.2.6-1 .8-1.5.6-1.3-.6-1-2.4 0-3.1l1.5-.7c.5-.3 1.4-1.7 1.9-1.6.9.3.3 2 0 2.4m-1.2-10.4q-.4.9.3 1.6c.4.3 1.1.5 1 1.1 0 .5-.6.6-1 .8-1.7 1-.3 3.6 1.4 1.8q.6-.8 1.4-1.4c.7-.2.8-1 .5-1.5-.4-.9-2.5-4.2-3.6-2.4m.5 40.8c1.4-.1 2.6 1.4 1.8 2.6q-.6.6-.8 1.1l.2 1c0 .4-.6.6-.9.4-.5-.2-.5-1-.9-1.3-1 0-.6 1.6-1 2.2q-.5.6-1 .7c-.7.3-1.6.2-1.6-.6 0-.5.7-.8.9-1.3q.2-1.1-.1-2.2 0-.5-.2-.8l-.8-.7c-.2-.3 0-.9.3-1 1.2-.6 1.3 1.4 2.2 1.3.4 0 .5-.7.8-1q.5-.4 1.1-.4m19.1-28c-.3.7-1 1.3-.8 2q.2.8 1 .6c.7-.3 1.3-1.3 2.2-1 .5.1 1 .8.6 1.3-.2.5-1 .6-1 1.2s.6 1.2.2 1.9q-.4.6-1 .2c-.4-.6-.4-1.3-1.3-1.6-.7-.1-1.6.1-2-.4-.6-.7 0-1.8-.4-2.5-.3-.7-1.3-.8-1.4-1.6-.2-.9.7-.8 1.3-1l1.2-.6c1-.5 2 .2 1.4 1.5m-33.9 1.4c-.3 1-1.7.7-2.5 1.2q-.6.6-1.1.8-.6-.2-.6-.8c0-.8.7-1.3 1-2q.5-2.1 2.7-3 .9-.3.8.5c-.1.7-.7 1-.7 1.7zm-2.4-8.4q.5.4.4 1c-.1 1.6-1.8 2.2-2.7 3.1q-.6.8-1.4 1.3l-1.5.6-.9.8q-.6.4-1 0c-.4-.3-.2-1-.3-1.5s-.5-.8-.7-1.2q-.6-.6-.3-1.3c.2-.4.9-.4 1.2 0l.6.8c.9.5 1.6-.2 2.2-.7s1.7-.2 2.3-.7c.8-.6.8-2.4 2-2.2M45 11.6c-.5.5-1.4.9-1.3 1.7s.8 1 1.2 1.4c.7.6.8 1.8.2 2.5q-.4.5-.9.2c-.3-.2 0-.9-.2-1.3s-.8-.2-1.2-.5q-.4-.4-.4-.9c-.4-1.3-1.8-2.2-2-3.6q0-.6.7-.8l.6.2q1 0 1.7-.6c1.3-.8 3.3.5 1.7 1.7m3 1.4c-.5 1 .1 2 1.2 1.8 1.3-.3 1.8-2.9 1.2-4q-.6-.9-1.6-.3c-.8.6-.5 1.7-.8 2.6m.4 24.6c.8.8 0 2.1-1 1.6s-2.3-2.7-.6-2.7q1 .2 1.6 1M61.3 47c.8.9 0 2.2-1 1.6-.9-.4-1.5-1.6-.8-2.3.4-.4 1.5.4 1.8.7M53.9 7.3q.4.5 1 .8.7.8.5 1.9.3.6 1 .4c1.6-.1 3.7-2.8 1-3q-1.4 0-1.2-1h-2.6q0 .4.3.9m-.9 6q.1.7.4 1.3c.1.6 0 1.6.7 1.7q.3 0 .4-.4c.5-1.1 1-2.8.2-3.8-1-1-2 0-1.7 1.2m-13.8 1.1c-.4-1-1.6-1-2.4-1.3s.1-1 .5-1.2q.4-.7 0-1.5l-1-2.3q-.8-.7-1.9 0v2.1c1.4.2 2 2.5 0 1.8v2.8q1.1-.6 2 .2l1.2 1.4c1.3.6 1.9-1 1.6-2m.9 4.9c-1.8-1.4-2.4 2.1-3.8.5-.6-.6-1.1-2.1-1.9-3.1V22c1.2.3.7 1.7 1.2 2.5.3.5 1.2.4 1.5-.2.2-.5 0-1 .2-1.5q.5-1.2 1.8-1.2c1.5.2 2.2-1.5 1-2.4m-.1 7.5-.2.6c.2.6 1.2.5 1.3 1.2l-.2.8q0 .5.6.7.5 0 1 .3c.6.5.2 1.7 1 2 .8-.7.8-3.5.3-4.6-.6-1.5-2.7-3-3.8-1m-1.6 2.4q-.1.9-1 1.4c-.6.4-1.2 1-1.9.3q-.5-.7-.2-1.7c.5-1.1 3-1.6 3 0m2.8 4.1.6.3q.9.1 1.6.7.9.8.4 1.6c-.3.6-1 .8-1.3 1.4-.5.8 0 1.9-.3 2.8-.7.4-.8-.8-1-1.2-.4-1-2.2-1.2-2-2.4.2-.7.9-1.1 1-1.9l-.3-1.3q0-.9.6-1.1c1-.3.5.5.7 1m-6.7.8v3.4c2.3-.6 2.3-4.7 0-3.4m4.2 5.1c-.8-1-2.3-.2-3 .7q-.3.9-1.2 1V43q1.7 1.4 2-.8.2-1 .9-1.5l.9-.1c.5-.2.7-1 .4-1.5M63.6 7c-1.2.3-3.1 2.4-1.2 3 1.6.4 3.5 1.6 3.5-1 0-1.5-.7-2.5-2.3-2m7.9.4c-.4 1.3 1.4.6 2 1 .5.5.2 1.3 0 2q-.5 1.8 1 3.4.8.4.2 1.2-.7 1.3 0 2.6c.5.7 1.8.8 2.2 0q.2-.7-.2-1.4c-.4-.7-.7-.7-1-1q.8-.6.6-1.7 0-1-.6-1.7c-.4-.6-.9-1.6 0-2 1-.1 2.2.4 2.8-.9.5-1-1.8-2.4-1.8-2.4h-4.6zm3.8 15.5c-1 3.2-6-1.6-3-2.7.8-.4 1 .2 1.7.6.8.6 1.8.7 1.3 2M83 15c-1-.6-2.3-1.2-3.2-.4-.7.6-.7 1.7 0 2.2l.7.5q.8.5 0 1.2-.7.5-.7 1.3c0 2.5 3.2 1.4 1.9-.7q-.1-.7.5-.6 1 .2 2-.3c.5-.4.7-1.3.3-1.8m1.8 37c0-.7-1-.9-1.4-1.2-1-.8-.3-1.8-.2-2.8-.1-1-1.5-2-.5-2.9 1-.4 1.9 1.3 2.5 2q.9.9 1 2.2c.3 1.5 2 1.1 2.4 2.2.6 1.4-2 4.5-3.5 3.5q-.8-.5-.9-1.2c-.1-.8.6-1.2.6-1.8m1.4 7.6c-.6-1-.7-2.6.6-2.7.6 0 1 .6 1.5.7 1 0 1.6-1 2.5-.8q1 .5.6 1.6-.7.9-1.8.6h-.5c-.4.2-.3 1.1 0 1.4.5.5 1.3 0 2 0 1.3-.1 2 1.8.6 2.4q-.7 0-1.3.3-.3.5-.4 1.2c-.2.5-.8.8-.8 1.3l.3 1c.1.8-.7 1.7-1.4 1.9-1 0-1.4-1-1.3-1.7.2-.8 1.2-1 1.2-1.9 0-.7-.7-1.4-.7-2.1a8 8 0 0 0-1-3.3m-15.7-8.4c-.2-1-.4-2.3.5-3 .5-.2 1.4 0 1.7.4q.3 1-.2 2l-.2 1c-.5 1.2-1.7.6-1.8-.4m7.3-5.7c1.1-.5 2.4.3 1.7 1.6-.5 1-.6 2.2-1.5 2.8-1 .7-2.6-.5-2.7-1.7 0-1.1 1.5-2.3 2.5-2.7m13.4-32-.8 1.4c-.5 1.5.9 4.1-1.1 4.8h-3.2c-1-.9 0-2.2 1.1-1.9q1.3.4 1-.9c0-.8 1.2-1.2 1-2-.2-1-.6 0-.9.2-.5.2-1.2-.3-1.1-.8q.2-1-.8-1.4c-1.2-.1-2.7.1-3.2-1.2-.3-.6.2-1.5 1-1.5.9.2 1.7.9 2.6 1.3q.5.5 1 0c1.5-2.2 4 0 3.4 2m-48 29.7c-1.1.3-2.3-1.3-2.3-2.3 0-1.4 1.5-2 2.5-.9.7.8 1 2.7-.2 3.2m4.4 2.8q-.4 1.4-1 2.4c-1.5 2-4.7 1-3.3-1.5a7 7 0 0 1 2.4-2.4c1.4-.9 2.3 0 1.9 1.5m3.1 6.5c-.7-.4-1.2-1.2-2-1.5s-1.9.6-1.6 1.6l.1.8c0 .6-.8.7-1.3.6l-1.3-.8c-1.1-.5-2.8.4-2.5 1.7.5 1 2 .5 2.8.4l.7.2c1.2.6 1.2-.4 2.1-.5 1.5-.2 1.5 2.3 2.8 2.4 1 .1 1.4-1 1.5-1.7q.6-2.3-1.3-3.2m-15.1-7.5c-1.9 1.9-1.6 5.5.5 7 .8.4 1.4-.4 1-1l-.9-1.2c.1-1.3 1.9 0 2.6-.5 1-.7 0-2-1-2.3l-.2-.2c.5-.9 1.6-.6 2.4-.8 1.8-.4.2-2-.7-2.4-1.2-.3-3 .5-3.7 1.4m2.7 12.1c-.8.7-.5 2.1 0 2.8a5 5 0 0 0 2.8.8c1.8-.1 2.6-1 .7-2.2-.8-.6-2.4-2.3-3.5-1.4m-4.5-2.8a1 1 0 0 0-1-.2v6.1c1.2-1.3 2.7-4.5 1-6m10.1-24.4c.3-1.2 1.7-1.8 2.6-.7 1.1 2.2-1.9 3.9-2.6 1m48.2 37.1c-.1.6.1 1.3-.3 1.7-.6.7-1.7.6-2.3 1.3-1 1-.6 2.2.8 2.1h1.5c.7.3 1.3 1.2 2 1 1.2-.3.9-1.8 1.2-2.6s1.1-1.4 1.4-2.2c.6-1.2-3.7-3.5-4.3-1.3m4.3 11c0-.8-.4-2-1.5-2q-.7.2-1 .8c-.6.9-.1 2.3.8 2.7s2-.4 1.8-1.5M87.2 40q.3.4.2 1c-.1.4-.7.4-1 .7-.7.5-.5 1.6.3 1.9q1 .2 2-.7l.8-.8v-1.4l.3-.2c.9.1 1.9.5 2.4-.4 2.8-3.7-6.3-4.3-5 0m1.7 5.1c-.8.6-.7 1.8-.3 2.6.3.6 1 1.3 1.6 1.1 1.7-.6 1.1-5.5-1.3-3.7m6.1 4.1.4.9 1 .8c1.2.8 1.8 2.4 1.2 3.7-.5 1.3-2 2.2-3.4 1.9q-1-.2-1.1-1.1c.2-.8 1.2-.7 1.9-.5q-1-1.4-.3-2.9c-1-.3-2.4-1-2-2.3.2-1 1.7-1.6 2.3-.5m1.8 9.6c-1.7-.2-1.5 3.3-.3 3.5 1.6.2 2.1-3 .7-3.5M93 44c.7.8 2 .2 3 .2q1.2-.1 1.4-1.3c.4-1.7 2-5.1-.3-6.1-1.2-.4-1.5.5-1.5 1.5s.4 2-.2 3c-.5.7-3.4 1.6-2.5 2.8M79.1 25.5c-.7.2-1.5.6-2.2.4v-.5c.3-.7 1.3-1.9 2.8-2.4s1.6 1.6-.6 2.5m7.1 7.7c.7-.8 2-1.3 2.9-.8 1 1.3-1.1 2.5-2 3.1-1.4.9-1.8-1.1-1.3-2zm6.2-4.2c.2.5.8.9 1 1.4 0 .8-.6 1.5-.3 2.2.5 1 2 .7 2.7 1.3q.4.5 1 .6.6-.2.5-.9c-.2-.7-1.2-.9-1.4-1.5s.6-1.1.6-1.8c0-.5-.7-1-.6-1.5q.1-.3.5-.6c1.4-1.3.8-3.9-1.1-4.3-1.8-.5-1 1.3-1.4 2.1-.5 1-2.1 1.5-1.5 3m2.8-11.4c-1 .5-1.5 1.5-.6 2.4.5.4 1.2 1.2 1.7 1.4q.7-.1 1-.8 1-2.2 1-4.6-.2-.6-.6-.8c-.7 0-.6.9-.9 1.3q-.6.7-1.6 1.1m-9.9-9.7-1 .1c-.5.1-1.7.4-1.5 1.2q.1.4.7.5 1.9.3 3.7.3c.6 0 1.3-.1 1.3-.8.2-1.2-1.2-2-2.3-1.7zm9.3 3.4q.3.5.2 1.1c0 1 1 1.4 1.6.6.9-1.1-.7-2.6-1.6-3.1-2-1.2-.6.5-.2 1.4M47.1 7.4c-1 .1-1.4 1.2-.4 1.6q1.3.2 2.5.1c.7-.1 1.5-1 .7-1.6-.7-.5-2.1-.2-2.8-.1m-6.6.1c.5 1-.4 2.4-1.3 3h-.4c-1.9-1.5.5-4.6 1.7-3m33 100.3c1.2-.6 1.3-2.8 2.8-3 1.8.1 1.3 1.9 1 3M98.9 51q-.9-1.5-2.4-2.8-.8-.6-.8-1.3c.5-1.1 2-1.5 3-1.1m-31.9.4-.3.4c-.7.5-1.3 1.5-.7 2.3q.5.6 1.2.3.5-.5.6-1.2c.4-.8 1.4-1.2 2-1.8zM71 26.4c-.3-1.4-2-2.5-2.9-.6l-.3.6z" style="fill:#f5f5f5"/><path d="M79.7 45.5h-26a4 4 0 0 1-4-4V30.8a4 4 0 0 1 4-4h26a4 4 0 0 1 3.9 4v10.7a4 4 0 0 1-4 4" style="fill:#fff"/></svg>