<svg xml:space="preserve" width="16" height="16" viewBox="0 0 128 128"><path d="M5.4 78.6c.2 8.9 14.3 9.7 21.4 15 9.7 7.2 13.5 21.7 24.7 26s27 6.5 45.1 2.3 28.5-14.8 25.4-25.7c-3.8-13.5-20.7-26.7-54.4-30.3s-51 2-54.8 3.5c-3.8 1.4-7.6 4-7.5 9.2" style="fill:#94a61d"/><path d="M20.8 75.5c.8 4.2 10.3 4.9 16.5 13s9 14.8 18.3 18.6a57 57 0 0 0 38.9-.3c21.8-6.8 17.4-28.2-16.5-35.3-32.1-6.8-58.3-2.3-57.2 4" style="fill:#b7d118"/><path d="M67.6 81.6c-6.2-.2-10.4 1.6-10.4 6 0 3.9 4.6 5.5 10.4 5.5 7 0 8.8-3 8.7-5.6 0-3-2.2-5.6-8.7-5.9" style="fill:#4a4a29"/><path d="M66.6 3.8Q64 4 64.2 6v81s.7 1 2.6 1 2.6-1 2.6-1L69 5.4s-.3-1.7-2.4-1.7" style="fill:#f7c875"/><path d="M117.3 17c.3.4-3 4-7.8 6.6a216 216 0 0 1-22.3 10.3c-5.5 2-10.4 3.8-13.1 5.3-2 1.2-4.5 4.7-5 4.2-.4-.2-.4-10.5-.5-20.3-.1-9 .2-17.1.3-17.3.4-.3 1.2-.6 2 0s6.7 3.4 15.2 6 15.7 4.1 21.7 4.4q9 .3 9.5.7" style="fill:#ff4f28"/></svg>