<svg xmlns:xlink="http://www.w3.org/1999/xlink" xml:space="preserve" width="16" height="16" viewBox="0 0 128 128"><path d="M111 59.2s2.4 14.4 2.4 17.3c0 17.6-23.3 24.7-48.7 24.7V45.9c19.3 0 30.1 4.5 37.3 8.3 3.3 1.7 9 5 9 5m-94 0s-2.4 14.4-2.4 17.3c0 17.6 23.3 24.7 48.7 24.7V45.9A75 75 0 0 0 26 54.2c-3.4 1.7-9 5-9 5" style="fill:#ef5350"/><linearGradient id="a" x1="85.7" x2="85.7" y1="83.4" y2="30.6" gradientTransform="matrix(1 0 0 -1 0 128)" gradientUnits="userSpaceOnUse"><stop offset=".3" style="stop-color:#b71c1c"/><stop offset="1" style="stop-color:#d32f2f"/></linearGradient><path d="M100.3 48.4c2.6 2.8 7.1 6.8 7.8 10.5 1.2 6 1.2 15.2 1.2 17 0 8.9-7.3 14.7-16.8 18.7-14.3 6-30.4-4.1-30.4-19.1V62c0-19.2 24.7-28.2 37.9-14q0 .3.3.4" style="fill:url(#a)"/><linearGradient id="b" x1="42.9" x2="42.9" y1="83.4" y2="30.6" gradientTransform="matrix(1 0 0 -1 0 128)" gradientUnits="userSpaceOnUse"><stop offset=".3" style="stop-color:#b71c1c"/><stop offset="1" style="stop-color:#d32f2f"/></linearGradient><path d="M28 48.4c-2.6 2.8-6.5 6.8-7.2 10.5-1.1 6-1.3 14.7-1.3 16.5 0 9 6.9 15.2 16.4 19.2 14.3 6 30.3-4.1 30.3-19.1V62c0-19.2-24.6-28.2-37.9-14q0 .3-.3.4" style="fill:url(#b)"/><path d="M99.3 82.7C96.8 68.3 91.2 40.3 64 39.3c-27.2 1-32.8 29-35.2 43.4-2.4 13.8-.7 25.6 7.8 34.8 3.7 4 11.4 4 11.4 4h32s7.7 0 11.4-4c8.5-9.2 10.2-21 7.8-34.8" style="fill:#232020"/><radialGradient id="c" cx="63.8" cy="44.3" r="51.3" gradientTransform="matrix(0 1 .688 0 33.28 19.93)" gradientUnits="userSpaceOnUse"><stop offset=".8" style="stop-color:#444140;stop-opacity:0"/><stop offset="1" style="stop-color:#444140"/></radialGradient><path d="M99.3 82.7C96.8 68.3 91.2 40.3 64 39.3c-27.2 1-32.8 29-35.2 43.4-2.4 13.8-.7 25.6 7.8 34.8 3.7 4 11.4 4 11.4 4h32s7.7 0 11.4-4c8.5-9.2 10.2-21 7.8-34.8" style="fill:url(#c)"/><linearGradient id="d" x1="12" x2="116" y1="17.9" y2="17.9" gradientTransform="matrix(1 0 0 -1 0 128)" gradientUnits="userSpaceOnUse"><stop offset="0" style="stop-color:#f44336"/><stop offset=".4" style="stop-color:#e73b32"/><stop offset="1" style="stop-color:#c62828"/></linearGradient><path d="M64.1 96c-25.6.1-52 7.2-52 25v3h104v-3c0-16.8-26.1-25-51.9-25" style="fill:url(#d)"/><path d="M64 90.2h-9v10c0 4.4 3.6 8.1 8.2 8.1h1.6c4.6 0 8.3-3.6 8.3-8.2v-10z" style="fill:#3c2b24"/><linearGradient id="e" x1="64" x2="64" y1="43.9" y2=".1" gradientTransform="matrix(1 0 0 -1 0 128)" gradientUnits="userSpaceOnUse"><stop offset="0" style="stop-color:#ffeb3b"/><stop offset=".6" style="stop-color:#ffdd12"/><stop offset="1" style="stop-color:#ffd600"/></linearGradient><path d="M94 124v-6q-.2-2.3-2.5-2.5H66v-5l13.4-6.3c3-1.3 5-4.2 5.5-7.6l1.7-12-15.7 8.9c-4 2.4-6.7 6.7-7.2 11.4h-.2a15 15 0 0 0-7.2-11.4L41.4 84l1.2 12.3a10 10 0 0 0 5.6 8l13.2 6.2v5h-25a2.5 2.5 0 0 0-2.4 2.4v6.1z" style="fill:url(#e)"/><path d="M22.6 47.9c0-21.2 82.8-21.2 82.8 0S87 83.4 64 83.4 22.6 69 22.6 47.9" style="fill:#232020"/><radialGradient id="f" cx="64" cy="104.3" r="42.6" gradientTransform="matrix(1 0 0 -.731 0 132.5)" gradientUnits="userSpaceOnUse"><stop offset=".8" style="stop-color:#444140;stop-opacity:0"/><stop offset="1" style="stop-color:#444140"/></radialGradient><path d="M22.6 47.9c0-21.2 82.8-21.2 82.8 0S87 83.4 64 83.4 22.6 69 22.6 47.9" style="fill:url(#f)"/><path d="M63.7 16.1c-17.2 0-33.2 12.8-33.2 40a40 40 0 0 0 25.3 38.7 24 24 0 0 0 7.9 1.5q3.5 0 7.8-1.4A40 40 0 0 0 96.8 56c0-27.1-16-39.9-33.1-39.9" style="fill:#70534a"/><path d="M99.3 42c0-5.2 3-31.9-35.9-31.9s-38 32.6-38 32.6.5 7.5 2.5 14.7S32 68 32 68s0-4.1.3-9c.5-5 .3-12 6.4-13.3 22.4-5 35-16.9 35-16.9C77.2 36 87.4 43 91 45.7c3 2.1 4.6 21.7 4.6 21.7s3.7-5 3.7-25.4" style="fill:#232020"/><path d="M67.8 68h-7.6q-1.1.5-.7 1.7a5 5 0 0 0 4.5 2.6c2.8 0 4.2-2 4.5-2.6q.4-1.2-.7-1.6" style="fill:#33251f"/><ellipse cx="47.8" cy="58.9" rx="4.9" ry="5" style="fill:#1a1717"/><ellipse cx="80.3" cy="58.9" rx="4.9" ry="5" style="fill:#1a1717"/><path d="M55 49.8c-1-1.2-3-3-7.2-3s-6.3 1.8-7.3 3q-.5 1 0 1.6t2 .4c1.4-.2 2.4-1.2 5.3-1.2 2.8 0 4.5.9 5.3 1.2q1.4.3 2-.4.4-.6-.1-1.6m32.5 0c-1-1.2-3-3-7.2-3s-6.4 1.8-7.3 3q-.5 1 0 1.6t1.9.4c1.4-.2 2.5-1.2 5.4-1.2 2.8 0 4.4.9 5.3 1.2q1.4.3 1.9-.4t0-1.6M72.3 76.1a25 25 0 0 1-16.6 0c-1.8-1-3.6.6-2.9 2.3s6.4 5.3 11.2 5.3 10.5-3.7 11.2-5.4c.8-1.6-1-3.2-2.9-2.2" style="fill:#1a1717"/><radialGradient id="g" cx="64" cy="96.2" r="34.6" gradientTransform="matrix(1 0 0 -1 0 128)" gradientUnits="userSpaceOnUse"><stop offset="0" style="stop-color:#f44336"/><stop offset=".3" style="stop-color:#eb3e33"/><stop offset=".8" style="stop-color:#d3302c"/><stop offset="1" style="stop-color:#c62828"/></radialGradient><path d="M64.4 8C17.6 8 21.2 55.5 21.2 55.5s12.2-11 43.5-11 42 10 42 10 4.5-46.3-42.3-46.3" style="fill:url(#g)"/><defs><path id="h" d="M64.4 8C17.6 8 21.2 55.5 21.2 55.5s12.2-11 43.5-11 42 10 42 10 4.5-46.3-42.3-46.3"/></defs><clipPath id="i"><use xlink:href="#h" style="overflow:visible"/></clipPath><path d="m47.1 10.4 7-2.3v23.7c-1.4-10.2-3.5-17.7-7-21.4" style="clip-path:url(#i);fill:#c62828"/><defs><path id="j" d="M64.4 8C17.6 8 21.2 55.5 21.2 55.5s12.2-11 43.5-11 42 10 42 10 4.5-46.3-42.3-46.3"/></defs><clipPath id="k"><use xlink:href="#j" style="overflow:visible"/></clipPath><path d="m81.7 10.4-7-2.3v23.7c1.5-10.2 3.5-17.7 7-21.4" style="clip-path:url(#k);fill:#c62828"/><path d="M69.6 43H59a5 5 0 0 1-5-5.1V9.2A5 5 0 0 1 59 4h10.6c2.8 0 5.1 2.3 5.1 5v29a5 5 0 0 1-5 5" style="fill:#e53935"/><linearGradient id="l" x1="46.5" x2="81.5" y1="102.8" y2="102.8" gradientTransform="matrix(1 0 0 -1 0 128)" gradientUnits="userSpaceOnUse"><stop offset="0" style="stop-color:#ffee58"/><stop offset=".4" style="stop-color:#fee84f"/><stop offset="1" style="stop-color:#fdd937"/><stop offset="1" style="stop-color:#fdd835"/></linearGradient><path d="M79.8 25.6c-3.9-6.7 1-9.6 1-9.6l-4.1-5.2s-3.3 1-6.7.5c-3.3-.5-5.8-3.3-6-3.5-.2.2-2.7 3-6 3.5-3.4.5-6.7-.5-6.7-.5l-4 5.2s4.8 3 1 9.6-1.5 13.8 9.3 15c2.9.4 5.7 1.6 5.7 1.6h.2v.3l.5-.1.5.1v-.3h.2s2.9-1.2 5.7-1.5c10.8-1.3 13.2-8.4 9.4-15.1" style="fill:url(#l)"/><ellipse cx="64" cy="25.7" rx="12.5" ry="11.8" style="fill:#6d4c41"/><path d="M62.8 19.2q-.8-.9-.7-2-.6.7-.6 1.4c-.2 2 2 2.5 2 2.5q.2 0 0-.8c-.2-.7.5-1 .5-1s-.3.5 0 .7l.6.6q.2.4-.1.5c1 0 1.8-1 2-1.8q.3-1.6-.5-2.8c0 .7-.8 1.3-1.5 1.3.2-.3.6-1 .3-1.9s-1.5-1.3-1.5-1.3.4.4.4 1.2-1.8 1.6-.9 3.4m6.5 13.6-10-9.7-1.7 1.2 10 9.7.6.2.7-.2q.5-.3.5-.8zM60.2 22l-.6-.1s.4-.7.8-.8c.3-.1.2-.6 0-.7-.8-.2-2.2-.2-3.4 1l-4 3.7a3 3 0 0 0 1.2 1.7c.6.4 1.9.7 1.9.7q.9 0 1.1-.6-.1-.4.2-.8l3.2-3q.3-.6-.5-1.2m-1.4 10.9 10-9.7 1.7 1.2-10 9.7-.6.2-.7-.2q-.5-.3-.5-.8zM67.8 22l.6-.1s-.4-.7-.8-.8c-.3-.1-.2-.6 0-.7.8-.2 2.2-.2 3.5 1l3.8 3.8a3 3 0 0 1-1.2 1.7l-1.9.7q-.8 0-1.1-.6.1-.4-.2-.8l-3.2-3q-.3-.6.5-1.2" style="fill:#ffeb3b"/><path d="M64.1 38.3h-.6a71 71 0 0 0-35.2 7.3c-10 5.8-11.2 13-11.3 13.5l3.5 2s2.4-4.8 5.6-7c7.6-5 18-8.1 37.4-8.2h.7zm-.1 0h.7c17.4.1 28.3 3.4 35.1 7.3 10 5.8 11.2 13 11.3 13.5l-2.6 2s-3.3-4.8-6.4-7c-7.6-5-18-8.1-37.4-8.2H64z" style="fill:#ef5350"/></svg>