<svg xml:space="preserve" width="16" height="16" viewBox="0 0 128 128"><path d="M79 88H49a4 4 0 1 1 0-8h30a4 4 0 1 1 0 8" style="fill:#823e00"/><path d="M44.7 46c-4.2 0-8 3.5-8 9.4s3.8 9.4 8 9.4 8-3.6 8-9.4-3.8-9.5-8-9.5M83 46c-4.2 0-8 3.5-8 9.4s3.8 9.4 8 9.4 8-3.6 8-9.4-3.8-9.5-8-9.5" style="fill:#af6300"/><linearGradient id="a" x1="63.7" x2="63.7" y1="118.8" y2="7" gradientUnits="userSpaceOnUse"><stop offset="0" style="stop-color:#eb8f00"/><stop offset="1" style="stop-color:#ffd54f"/></linearGradient><path d="M63.8 118.8h-.2q-6 0-12-1l.6-3q5.7 1 11.4 1h.2zm12-1-.6-3q5.6-1 11-3.2l1 2.8a63 63 0 0 1-11.5 3.3M40 114.4a59 59 0 0 1-10.7-5.4l1.6-2.5q4.8 3 10.2 5.1zm58-5.4-1.6-2.5a52 52 0 0 0 8.7-7.3l2.2 2.1A50 50 0 0 1 98 109m-77.8-7.4a50 50 0 0 1-7.3-9.7l2.6-1.5q3 5 6.9 9zm94.3-10-2.6-1.4q2.7-5 4.4-10.5l3 .9a52 52 0 0 1-4.8 11M8 80.9A60 60 0 0 1 5.9 69l3-.3q.5 6 2 11.2zm113.2-12.1-3-.3a63 63 0 0 0 0-11.4l3-.3a67 67 0 0 1 0 12M9 57.3 6 57q.5-6 2.1-11.8l3 .9q-1.6 5.3-2.2 11.2M116 45.8a49 49 0 0 0-4.5-10.4l2.6-1.5q3 5.1 4.8 11zM15.4 35.6l-2.7-1.5q3-5.2 7.3-9.6l2.1 2a48 48 0 0 0-6.8 9.1m89.4-9.3a49 49 0 0 0-8.8-7.2l1.6-2.5a55 55 0 0 1 9.3 7.6zm-74-7-1.6-2.5A58 58 0 0 1 40 11.3l1.1 2.8q-5.4 2.1-10.1 5.2M86 14a60 60 0 0 0-11-3l.6-3a63 63 0 0 1 11.5 3.2zm-34-3-.5-3q6-1 12-1v3A64 64 0 0 0 52 11" style="fill:url(#a)"/><path d="M44.3 49.9c-1-.8-2.6-.5-3.6 1-1 1.4-.7 2.9.4 3.6 1 .7 2.5.5 3.5-1 1-1.4.7-3-.3-3.6m38.3 0c-1-.8-2.5-.5-3.5 1-1 1.4-.7 2.9.3 3.6s2.6.5 3.6-1c1-1.4.7-3-.4-3.6" style="opacity:.4;fill:#fff"/></svg>