<svg xml:space="preserve" width="16" height="16" viewBox="0 0 128 128"><path d="m75.8 75.4 2.4-2.4h1.3l.5.6.9.2q.6.2.5.9v.2q-.2.6-.9.5l-1.3-.3-2.4 1.7q-.6.3-1-.2l-.1-.2a1 1 0 0 1 .1-1" style="fill:#eda600"/><path d="M120.7 113.2c-.5-2.5-3.2-5.2-5.9-7.8-1.7-1.6-4.7-1.3-6.4.4s-2 4.8-.3 6.5c2.7 2.6 5.4 5.2 7.8 5.7 2 .5 3.5-.2 4.1-.7.6-.6 1.2-2.2.7-4.1" style="fill:#504f4f"/><linearGradient id="a" x1="86.3" x2="87" y1="23.3" y2="12.2" gradientTransform="matrix(1 0 0 -1 0 128)" gradientUnits="userSpaceOnUse"><stop offset="0" style="stop-color:#ffb300"/><stop offset=".4" style="stop-color:#ffca28"/></linearGradient><path d="M91.2 123.8h-6l-3.4-19.3a4.5 4.5 0 0 0 8.8-1.6z" style="fill:url(#a)"/><linearGradient id="b" x1="107.8" x2="108.9" y1="30.4" y2="13.8" gradientTransform="matrix(1 0 0 -1 0 128)" gradientUnits="userSpaceOnUse"><stop offset="0" style="stop-color:#ffb300"/><stop offset=".4" style="stop-color:#ffca28"/></linearGradient><path d="M115.4 113.5a3 3 0 0 1-3.1-.2L100 102.6l-.3-.3a4.6 4.6 0 0 0 7.7-4.7l8.6 11.2a3 3 0 0 1-.7 4.7" style="fill:url(#b)"/><linearGradient id="c" x1="90.6" x2="96.1" y1="37.6" y2="25.2" gradientTransform="matrix(1 0 0 -1 0 128)" gradientUnits="userSpaceOnUse"><stop offset="0" style="stop-color:#ffb300"/><stop offset=".4" style="stop-color:#ffca28"/></linearGradient><path d="M107.7 99a4.6 4.6 0 0 1-8.3 3l-.5-.9L92 88.5c0-.3-1.2-.4-1.4-.4s-.3.2-.4.4l.4 14.3v.1a4.5 4.5 0 0 1-8.8 1.6l-.2-1.7L78 82.6l11.4-8 12.7 8 4.6 13.7.1.3q.2.6.6 1z" style="fill:url(#c)"/><path d="M104.8 75.1 102 73c-.1-.1-.7.3-.9.3l-.6.2-.9.1q-.5.2-.5.9v.2q.2.7.9.6l1.4-.4 2.3 1.7q.7.4 1-.2l.1-.1q.4-.7-.1-1" style="fill:#eda600"/><path d="M108.7 60.3s-2.1-7.4-19-7.4-18 7.4-18 7.4l6.3 4.9h23.3z" style="fill:#444"/><linearGradient id="d" x1="90.1" x2="90.1" y1="51.1" y2="97.7" gradientTransform="translate(0 .72)" gradientUnits="userSpaceOnUse"><stop offset="0" style="stop-color:#515151"/><stop offset=".9" style="stop-color:#313131"/></linearGradient><path d="M109.6 60.3s-3-7.4-20-7.4-19 7.4-19 7.4l7.4 7v15.4l9.8 6.4a6 6 0 0 0 5 0l9.3-6.4V67.2z" style="fill:url(#d)"/><linearGradient id="e" x1="100.1" x2="109.7" y1="61.9" y2="50.6" gradientTransform="matrix(1 0 0 -1 0 128)" gradientUnits="userSpaceOnUse"><stop offset=".2" style="stop-color:#ffb300"/><stop offset=".5" style="stop-color:#ffca28"/></linearGradient><path d="m115.6 69-7.4-9.8-6.2 4.4 7.4 7-5.1 4.3-2.7-.2h-.4s-1.7.1-2.1.5q-.6.6-.2 1t0 .9q-.4.3-.4.8t.5.7q.2.3.1.5l-.3.9.7.9s-.4.5 0 .9q.6.5 2 .6 1.5 0 3.7-.8l10.4-8.4c1-1.2 1-3 0-4.2" style="fill:url(#e)"/><linearGradient id="f" x1="80.6" x2="70.2" y1="61.3" y2="50.9" gradientTransform="matrix(1 0 0 -1 0 128)" gradientUnits="userSpaceOnUse"><stop offset=".2" style="stop-color:#ffb300"/><stop offset=".5" style="stop-color:#ffca28"/></linearGradient><path d="M82.1 78q0-.6-.3-.9-.4-.4 0-.9.2-.4-.2-1c-.5-.4-2.2-.5-2.2-.5H79l-2.6.2-5.2-4.3 7.4-7-6.2-4.4L65 69c-1 1.2-1 3 0 4.2l10.4 8.4q2.3.8 3.6.8 1.5 0 2.1-.6c.4-.4 0-.8 0-1 .2-.3.6-.3.7-.8l-.3-.8q0-.4.2-.6.4-.3.4-.7" style="fill:url(#f)"/><linearGradient id="g" x1="90.2" x2="90.2" y1="50.1" y2="96.7" gradientTransform="translate(0 .72)" gradientUnits="userSpaceOnUse"><stop offset="0" style="stop-color:#515151"/><stop offset=".9" style="stop-color:#313131"/></linearGradient><path d="M109.7 60.3s-3.1-7.4-20-7.4-19 7.4-19 7.4l7.3 6.9h24.3z" style="fill:url(#g)"/><linearGradient id="h" x1="90.1" x2="90.1" y1="75.1" y2="68.3" gradientTransform="matrix(1 0 0 -1 0 128)" gradientUnits="userSpaceOnUse"><stop offset="0" style="stop-color:#ffb300"/><stop offset=".7" style="stop-color:#ffca28"/></linearGradient><path d="M100.6 54.4c0 3-3.8 7.2-10.5 7.2s-10.5-4.4-10.5-7.4v-.1q3.7-1.1 10-1.2 7.2 0 11 1.5" style="fill:url(#h)"/><path d="M87.9 124h-4.4c-.8 0-1.4-1-1.2-1.7.8-2.5 3-4.3 5.6-4.3s4.9 1.9 5.5 4.4q.3 1.4-1.2 1.6z" style="fill:#504f4f"/><path d="m20 75.4 2.3-2.4h1.3l.5.6 1 .2q.5.2.5.9v.2q-.3.6-1 .5l-1.3-.3-2.4 1.7q-.5.3-1-.2v-.2a1 1 0 0 1 0-1" style="fill:#eda600"/><path d="M64.9 113.2c-.6-2.5-3.3-5.2-5.9-7.8-1.7-1.6-4.8-1.3-6.4.4s-2 4.8-.3 6.5c2.6 2.6 5.4 5.2 7.8 5.7 1.9.5 3.5-.2 4-.7.6-.6 1.2-2.2.8-4.1" style="fill:#504f4f"/><linearGradient id="i" x1="30.4" x2="31.2" y1="23.3" y2="12.2" gradientTransform="matrix(1 0 0 -1 0 128)" gradientUnits="userSpaceOnUse"><stop offset="0" style="stop-color:#ffb300"/><stop offset=".4" style="stop-color:#ffca28"/></linearGradient><path d="M35.3 123.8h-6L26 104.5a4.5 4.5 0 0 0 8.8-1.6z" style="fill:url(#i)"/><linearGradient id="j" x1="51.9" x2="53" y1="30.4" y2="13.8" gradientTransform="matrix(1 0 0 -1 0 128)" gradientUnits="userSpaceOnUse"><stop offset="0" style="stop-color:#ffb300"/><stop offset=".4" style="stop-color:#ffca28"/></linearGradient><path d="M59.6 113.5a3 3 0 0 1-3.2-.2l-12.1-10.7-.3-.3a4.6 4.6 0 0 0 7.6-4.7l8.6 11.2a3 3 0 0 1-.6 4.7" style="fill:url(#j)"/><linearGradient id="k" x1="34.8" x2="40.2" y1="37.6" y2="25.2" gradientTransform="matrix(1 0 0 -1 0 128)" gradientUnits="userSpaceOnUse"><stop offset="0" style="stop-color:#ffb300"/><stop offset=".4" style="stop-color:#ffca28"/></linearGradient><path d="M51.9 99a4.6 4.6 0 0 1-8.3 3l-.6-.9-6.8-12.6c0-.3-1.2-.4-1.4-.4s-.4.2-.4.4l.4 14.3v.1a4.5 4.5 0 0 1-8.8 1.6l-.3-1.7-3.4-20.2 11.3-8 12.7 8L51 96.3v.3l.6 1q.3.7.3 1.4" style="fill:url(#k)"/><path d="M49 75.1 46.2 73c-.2-.1-.7.3-1 .3l-.5.2-1 .1q-.5.2-.4.9v.2q.2.7.8.6l1.4-.4 2.4 1.7q.5.4 1-.2v-.1q.4-.7 0-1" style="fill:#eda600"/><path d="M52.8 60.3s-2-7.4-19-7.4-18 7.4-18 7.4l6.4 4.9h23.2z" style="fill:#444"/><linearGradient id="l" x1="34.3" x2="34.3" y1="51.1" y2="97.7" gradientTransform="translate(0 .72)" gradientUnits="userSpaceOnUse"><stop offset="0" style="stop-color:#515151"/><stop offset=".9" style="stop-color:#313131"/></linearGradient><path d="M53.8 60.3s-3.1-7.4-20-7.4-19 7.4-19 7.4l7.4 7v15.4l9.7 6.4a6 6 0 0 0 5 0l9.4-6.4V67.2z" style="fill:url(#l)"/><linearGradient id="m" x1="44.2" x2="53.9" y1="61.9" y2="50.6" gradientTransform="matrix(1 0 0 -1 0 128)" gradientUnits="userSpaceOnUse"><stop offset=".2" style="stop-color:#ffb300"/><stop offset=".5" style="stop-color:#ffca28"/></linearGradient><path d="m59.7 69-7.3-9.8-6.2 4.4 7.4 7-5.2 4.3-2.7-.2h-.3s-1.7.1-2.2.5q-.5.6-.2 1 .4.5 0 .9-.3.3-.3.8t.4.7q.3.3.2.5-.4.5-.3.9c0 .4.5.5.6.9 0 0-.4.5 0 .9q.7.5 2.1.6t3.6-.8l10.4-8.4c1-1.2 1-3 0-4.2" style="fill:url(#m)"/><linearGradient id="n" x1="24.8" x2="14.3" y1="61.3" y2="50.9" gradientTransform="matrix(1 0 0 -1 0 128)" gradientUnits="userSpaceOnUse"><stop offset=".2" style="stop-color:#ffb300"/><stop offset=".5" style="stop-color:#ffca28"/></linearGradient><path d="M26.3 78q0-.6-.4-.9-.3-.4 0-.9t-.2-1c-.4-.4-2.1-.5-2.1-.5h-.4l-2.7.2-5.2-4.3 7.4-7-6.1-4.4L9.2 69c-1 1.2-1 3 0 4.2l10.4 8.4q2.3.8 3.6.8 1.5 0 2-.6c.5-.4 0-.8.1-1 .1-.3.5-.3.6-.8l-.2-.8q-.1-.4.1-.6.4-.3.4-.7" style="fill:url(#n)"/><linearGradient id="o" x1="34.3" x2="34.3" y1="50.1" y2="96.7" gradientTransform="translate(0 .72)" gradientUnits="userSpaceOnUse"><stop offset="0" style="stop-color:#515151"/><stop offset=".9" style="stop-color:#313131"/></linearGradient><path d="M53.8 60.3s-3-7.4-20-7.4-19 7.4-19 7.4l7.4 6.9h24.2z" style="fill:url(#o)"/><linearGradient id="p" x1="34.3" x2="34.3" y1="75.1" y2="68.3" gradientTransform="matrix(1 0 0 -1 0 128)" gradientUnits="userSpaceOnUse"><stop offset="0" style="stop-color:#ffb300"/><stop offset=".7" style="stop-color:#ffca28"/></linearGradient><path d="M44.8 54.4c-.1 3-3.8 7.2-10.5 7.2s-10.5-4.4-10.5-7.4v-.1q3.7-1.1 10-1.2 7 0 11 1.5" style="fill:url(#p)"/><path d="M32 124h-4.4c-.8 0-1.3-1-1.1-1.7.7-2.5 3-4.3 5.5-4.3 2.7 0 5 1.9 5.6 4.4q.2 1.4-1.2 1.6z" style="fill:#504f4f"/><path d="M33.9 57.3c-2 0-3.6-1.5-3.6-3.4v-4.3h8V54c0 1.9-1.7 3.4-3.6 3.4zM45 34.4H23.5c-2.3 0-4.2 2-4.2 4.4s2 4.5 4.2 4.5H45c2.3 0 4.2-2 4.2-4.4s-2-4.5-4.2-4.5" style="fill:#e59600"/><path d="M34.2 18.5c-6.8 0-13.2 7.3-13.2 17.9C21 46.8 27.7 52 34.3 52s13.2-5.2 13.2-15.6c0-10.6-6.4-17.9-13.2-17.9" style="fill:#ffca28"/><path d="m24.8 34.5.2-.2v-.1l.2-.1.2-.2.2-.1.2-.2.2-.1.3-.1.2-.1.7-.2h1.2l.6.2h.3l.3.2.2.1.2.2.2.1.2.1.1.2h.1l.2.3q.3.5-.2.9h-.8l-.1-.1h-.1l-.3-.2h-.5l-.2-.1h-1.9l-.3.1h-.3v.1h-.2v.1l-.3.1q-.6.2-.8-.3zm18.2.9h-.3l-.1-.1h-.1l-.1-.1h-.2l-.1-.1h-.3l-.3-.1h-2l-.1.1h-.2l-.3.1-.2.1-.2.1q-.6.2-.9-.3l.1-.6.2-.2v-.1l.2-.2.2-.1.2-.1.2-.2.2-.1.3-.1.3-.1.6-.2h1.2l.6.2h.3l.3.2.2.1.2.2.2.1.2.2h.1l.1.2.2.2q.2.5-.2.9z" style="fill:#6d4c41"/><ellipse cx="27.8" cy="38" rx="1.9" ry="2" style="fill:#404040"/><ellipse cx="40.7" cy="38" rx="1.9" ry="2" style="fill:#404040"/><path d="M37.5 45.2a10 10 0 0 1-6.6 0c-.8-.4-1.5.2-1.2.9s2.5 2.1 4.5 2.1 4.1-1.5 4.4-2.1-.4-1.3-1.1-.9" style="fill:#795548"/><path d="M35.5 41.6h-3q-.4.2-.3.6c.1.4.7 1.1 1.8 1.1a2 2 0 0 0 1.8-1q0-.5-.3-.7" style="fill:#e59600"/><path d="M34.3 16.2C16.5 16.2 20 36.6 20 36.6l1.2 3q.1.2.2 0c.4-1.7 1.8-7.8 2.5-9.6q.8-1.6 2.6-1.5 2.9.6 7.6.7c3.1 0 6-.4 7.7-.7 1-.2 2.2.4 2.6 1.5.7 1.8 2 7.8 2.4 9.5q.1.3.3 0l1.2-3s3.7-20.1-14-20.2" style="fill:#543930"/><radialGradient id="q" cx="34.3" cy="95" r="14.9" gradientTransform="matrix(1 0 0 -1.128 0 140.18)" gradientUnits="userSpaceOnUse"><stop offset=".8" style="stop-color:#6d4c41;stop-opacity:0"/><stop offset="1" style="stop-color:#6d4c41"/></radialGradient><path d="M48.4 36.6S52 16.3 34.3 16.2l-2.4.1h-.1C16.8 18.2 20 36.6 20 36.6l1.2 3h.3c.3-1.8 1.7-7.8 2.4-9.6q.8-1.6 2.6-1.5 2.9.6 7.6.7c3.1 0 6-.4 7.7-.7 1-.2 2.2.4 2.6 1.5.7 1.8 2 7.9 2.4 9.6h.3z" style="fill:url(#q)"/><linearGradient id="r" x1="34.3" x2="34.3" y1="8.7" y2="34.1" gradientTransform="translate(0 2)" gradientUnits="userSpaceOnUse"><stop offset="0" style="stop-color:#504f4f"/><stop offset="1" style="stop-color:#212121"/></linearGradient><path d="M49.8 5.3c-.1-1-1.2-1.5-2.1-1.2-2.2.8-6 2.6-7.9 6-1.4 2.4-2 6-2.2 9.1q-.3 1.9-2.2 1.9h-2.3a2 2 0 0 1-2.1-1.9c-.3-3-.9-6.7-2.3-9.2a15 15 0 0 0-7.9-5.9c-1-.3-2 .2-2.1 1.2-.4 2.4-.8 6.6 1.2 9.9 1.4 2.4 4.3 4.8 6.7 6.5a1 1 0 0 1 0 1.6q-1.4 1.2-2.3 2.6c-.6.9.5 2 1.4 1.4q2.5-1.8 8.6-2c6-.3 6.8.9 8.5 2 1 .6 2-.5 1.4-1.4q-.9-1.5-2.4-2.6a1 1 0 0 1 0-1.6c2.5-1.7 5.4-4 6.9-6.6 1.9-3.2 1.5-7.4 1.1-9.8" style="fill:url(#r)"/><path d="M42.2 11.8c-1 1.8-1.3 4.8-1.3 6.1q.1.5.5.4c1.1-.7 3.7-2.5 4.7-4.3.9-1.5.8-3.5.7-4.6 0-.5-.6-.7-1-.5-1 .4-2.7 1.3-3.6 2.9m-15.8 0c1 1.8 1.2 4.8 1.3 6.2q0 .4-.6.3c-1.1-.7-3.6-2.4-4.7-4.3a8 8 0 0 1-.7-4.6q.3-.7 1-.5c1 .4 2.7 1.3 3.7 2.9" style="fill:#ff4081"/><path d="M89.9 57.3c-2 0-3.6-1.5-3.6-3.4v-4.3h8V54c0 1.9-1.6 3.4-3.6 3.4zM101 34.4H79.6c-2.3 0-4.2 2-4.2 4.4s1.8 4.5 4.2 4.5H101c2.3 0 4.2-2 4.2-4.4s-1.9-4.5-4.2-4.5" style="fill:#e59600"/><path d="M90.3 18.5c-6.9 0-13.2 7.3-13.2 17.9C77 46.8 83.6 52 90.3 52s13.1-5.2 13.1-15.6c0-10.6-6.3-17.9-13.2-17.9" style="fill:#ffca28"/><path d="m80.9 34.5.1-.2.1-.1.1-.1.2-.2.2-.1.2-.2.3-.1.2-.1.3-.1.6-.2h1.3l.6.2h.2l.3.2.3.1.2.2.1.1.2.1.1.2h.1l.2.3q.3.5-.1.9h-.9v-.1h-.2l-.3-.2H85l-.3-.1h-2l-.1.1h-.3l-.1.1H82l-.2.1-.2.1q-.5.2-.8-.3zm18.1.9h-.3v-.1h-.2l-.1-.1h-.1L98 35h-.4l-.1-.1h-2l-.2.1h-.1l-.3.1h-.1l-.1.1-.2.1h-.1q-.6.2-.8-.3v-.6l.2-.2.1-.1.2-.2.1-.1.2-.1.2-.2.3-.1.2-.1.3-.1.6-.2h1.3l.6.2h.3l.2.2.3.1.2.2.2.1.1.2h.2v.2l.2.2q.3.5-.2.9z" style="fill:#6d4c41"/><ellipse cx="83.8" cy="38" rx="1.9" ry="2" style="fill:#404040"/><ellipse cx="96.8" cy="38" rx="1.9" ry="2" style="fill:#404040"/><path d="M93.5 45.2a10 10 0 0 1-6.6 0c-.7-.4-1.4.2-1.1.9s2.5 2.1 4.4 2.1 4.2-1.5 4.4-2.1c.4-.7-.4-1.3-1-.9" style="fill:#795548"/><path d="M91.5 41.6h-2.9q-.5.2-.4.6c.1.4.7 1.1 1.8 1.1a2 2 0 0 0 1.8-1q.1-.5-.3-.7" style="fill:#e59600"/><path d="M90.3 16.2c-17.8 0-14.1 20.4-14.1 20.4l1.1 3h.3c.4-1.7 1.7-7.8 2.4-9.6.4-1 1.6-1.7 2.7-1.5q2.8.6 7.6.7c3 0 5.9-.4 7.6-.7 1.1-.2 2.3.4 2.7 1.5.7 1.8 2 7.8 2.4 9.5q0 .3.3 0l1.1-3s3.7-20.2-14.1-20.3" style="fill:#543930"/><radialGradient id="s" cx="90.3" cy="95" r="14.9" gradientTransform="matrix(1 0 0 -1.128 0 140.18)" gradientUnits="userSpaceOnUse"><stop offset=".8" style="stop-color:#6d4c41;stop-opacity:0"/><stop offset="1" style="stop-color:#6d4c41"/></radialGradient><path d="M104.4 36.6s3.7-20.3-14.1-20.4l-2.4.1c-15 1.9-11.7 20.3-11.7 20.3l1.1 3h.3c.4-1.8 1.8-7.8 2.4-9.6.4-1 1.6-1.7 2.7-1.5a43 43 0 0 0 15.2 0c1.1-.2 2.3.4 2.7 1.5.7 1.8 2 7.9 2.4 9.6h.3z" style="fill:url(#s)"/><linearGradient id="t" x1="90.3" x2="90.3" y1="9.5" y2="34.9" gradientTransform="translate(0 2)" gradientUnits="userSpaceOnUse"><stop offset="0" style="stop-color:#504f4f"/><stop offset="1" style="stop-color:#212121"/></linearGradient><path d="M105.9 5.3q-.5-1.6-2.2-1.2c-2.2.8-6 2.6-7.8 6-1.5 2.4-2 6-2.3 9.1q-.3 1.9-2.1 1.9H89a2 2 0 0 1-2.1-1.9 22 22 0 0 0-2.3-9.2 15 15 0 0 0-7.9-5.9c-.9-.3-2 .2-2 1.2-.5 2.4-.8 6.6 1.1 9.9 1.4 2.4 4.3 4.8 6.8 6.5a1 1 0 0 1 0 1.6q-1.5 1.2-2.4 2.6c-.5.9.5 2 1.4 1.4q2.6-1.8 8.6-2c6-.3 6.8.9 8.6 2 .9.6 2-.5 1.3-1.4q-.8-1.5-2.3-2.6a1 1 0 0 1 0-1.6c2.5-1.7 5.3-4 6.8-6.6 1.9-3.2 1.6-7.4 1.2-9.8" style="fill:url(#t)"/><path d="M98.2 11.8c-1 1.8-1.2 4.8-1.3 6.1q.1.5.5.4c1.2-.7 3.7-2.5 4.7-4.3 1-1.5.9-3.5.7-4.6q-.1-.8-1-.5c-1 .4-2.7 1.3-3.6 2.9m-15.8 0c1 1.8 1.2 4.8 1.3 6.2q-.1.4-.5.3c-1.2-.7-3.7-2.4-4.7-4.3-1-1.5-.9-3.5-.7-4.6q.1-.7 1-.5c1 .4 2.7 1.3 3.6 2.9" style="fill:#ff4081"/></svg>