<svg xml:space="preserve" width="16" height="16" viewBox="0 0 128 128"><path d="m52.4 93.2-3.8 7.6c-.7 1.3-3.4 8.5-3.6 8.9l-.5 3.6c-.2.4-2.2 2.6-6.1 2.4-3.3-.2-4.3-1.6-4.3-2.1s3-6 3.3-6.6l2.8-8.5c.3-1.1 2.6-15.7 3.2-16.1s9.3-6.2 10-.5-1 11.3-1 11.3" style="fill:#88847d"/><path d="M22.6 87.8s-.8 3-7.5 4.3c-5.7 1.2-7.7-1.3-8-2s3-1.9 5-2.8c2.8-1.3 7.2-3.9 7.2-3.9l4-3.6z" style="fill:#aca39b"/><path d="M44 62.7c-.1-1.9-7.7-1.8-13.7.6-4.3 1.8-5 4.4-5 4.4s-3 .7-5.2 2.9c-4.2 4-2.7 7.5-2.7 8s-2.8 4.6.6 8a5 5 0 0 0 5.8 1.3c.7-.4 20.3-25.2 20.3-25.2" style="fill:#706c66"/><path d="M68.8 35.5c.5-.9 5.2-4.2 8.2-6.4s8.2-6.2 8.6-9.6c.4-3.5-2.2-7.3-8.2-6-6.1 1.3-8.3 5.1-8.3 5.1l-2.7-1.3S69 12.8 75 11c4.5-1.4 11.7-1.7 14 5q2.7 7.9-9.8 16.1c-.9.6-10.4 4.4-10.3 3.4m14.6 11.8c2 .5 10.7.6 11.3.6.8 0 3.9-.4 5.3-.1 1.1.2 2 1 2.5 3.8s3 11.5 4 12.1c.5.4 2.3 0 2.3 0s2.7.6 3.6 2.8-1.5 4.3-1.5 4.3-5.2.5-7.5 0-3.5-2.6-4.1-4.6l-2-5.5c-.6-1.4-1.2-3.6-2.3-3.2l-1.2.5-16.1-.8z" style="fill:#aca39b"/><path d="M84 46.6s8.4 1.3 9.5 1.3H95s.3 2.5-.1 5.2q-.8 4.7-1 4.9c-.2.2-2.4 1.6-6.1 2.7-7.6 2.2-11.6.8-11.6.8l-4-3.4zM66.9 16.7q.1-.1 1.4.4 1.1 1 1 1.1c0 .1-.6 1-.6 2s1.3 1.2 2.5.3c1.1-.7 2.8-2.2 3.6-1.8.7.4 0 3-1.1 4.9-2.1 3.5-7 5.6-9.5 3-1.9-1.8-1.4-4.8-.2-6.7s2.9-3.2 2.9-3.2" style="fill:#88847d"/><path d="m109 63.8 2.8-.8c.5 0 2.5 1.3 3.6 3a8 8 0 0 1 1.3 4q-.1 1-1.3 1l-4.4-.2s-.2-2.3-.8-4c-.5-1.5-1.3-3-1.3-3" style="fill:#706c66"/><path d="m80.6 49.7 5.4 2.5s1.6 8.6-6 17.7c-7.2 8.5-17.6 10.4-17.6 10.4l-1-14.6z" style="fill:#f2eded"/><path d="M84.2 53.1c-.6 1 0 8.4-6.2 15.7-5.6 6.5-12 9-12.7 9.8q-.7.8-1.8 8c-.7 4.8-1 8.3-1 8.9-.3 1-2.2 5.2-3 7l-4 10.5-4.8 3-3.8-4.2s4.4-12.3 4.9-15.8.1-11-.5-11.8-1.6-.8-2.5-.7l-3.6.4s.1 1.5-.1 3.3-1 3.2-1 5.4l.2 2.4s-2.9 2.4-4.3 3c-2 1-6.1 1.3-6.1 1.3s-1.5-2.5-4-4.5-5.4-4-7.6-6.8-2.6-4.5-2.6-4.5-2.6 2-8.7 2c-4.7 0-7.2-2-7.2-3.1 0-.6.5-1 2.8-1.4 4.2-.6 6.3-2.3 9-3 1.6-.4 4.2-.4 4.2-.4s.7-3.7 6-6.8c6.8-4 16.7-7.4 18.4-8.6a16 16 0 0 0 3.4-3c.5-.8 4.8-7.7 11.9-15 7.7-8 11.2-12.4 20.3-12.4 6.8 0 8.2 2.7 12.6 2.3s6-3.7 7.5-4.2 4.4.1 8.5-1 5.2-3 5.2-3l7.3 1.6L119 32s-3.4 1.7-6.5 2.8c-3 1-6.8 2-8 2.7-1.5 1-5 7-10 10.9-5.3 3.9-9.9 3.8-10.4 4.7" style="fill:#c8beb3"/><path d="M113.6 26s1-1.3 1.7-1.6c.8-.4 2.6-.6 5.4.8 2.8 1.5 3.7 3.6 3.4 4.2-.5 1-5 2.6-5 2.6s-.6-2.2-2-3.8c-2-2-3.5-2.3-3.5-2.3M47 111.7l-1.4 2.7c-.5 1-1 2.4-.7 2.8q1 1.2 5 1c2.8-.1 4.6-1.1 5-1.8l.8-4s-2.3.5-4.7.4c-2 0-4-1-4-1" style="fill:#88847d"/><path d="M33.9 99.3s1.2-2 3.3-3c4.4-2.5 7-1.3 7-1.3s1 1.2 1.6 3q.8 2.6.3 3.6c-.4.7-1 .6-1 .6s.1 3.5-3 4.1c-6.2 1.3-8.2-7-8.2-7" style="fill:#f2eded"/><path d="M41.2 97.4c0 .6.7.8 1.4 1.7a10 10 0 0 1 1.7 2.7c.4 1 .5 2.2.5 2.2l.7-1.5.4-.6c.2-.2-.6-1.9-1.2-3q-.9-1.8-2.4-2.3-1.1.2-1 .8" style="fill:#aca39b"/><path d="M42.6 101.8c0 .5-1 1-2.3.4s-1.3-1.6-.6-2c.5-.4 1.4 0 1.8.1.5.3 1.2.9 1.1 1.5" style="fill:#88847d"/><path d="M28.8 84.6c-1 1.5-.5 3.8.9 5 1.7 1.6 5 1.7 5.9.6 1.1-1.4 0-4.7-2.1-6.2-1.9-1.2-3.8-.7-4.7.6" style="fill:#f2eded"/><path d="M31.4 84.9c-.5 0-1.5.6-1.3 2 .1 1.2 1 2.4 2.5 2.5q1.5-.2 1.5-.8c0-.6-1-1.5-1.3-2.2s-.6-1.6-1.4-1.5" style="fill:#141414"/></svg>