<svg xml:space="preserve" width="16" height="16" viewBox="0 0 128 128"><radialGradient id="a" cx="63.6" cy="216.9" r="57" gradientTransform="translate(0 -154)" gradientUnits="userSpaceOnUse"><stop offset=".5" style="stop-color:#fde030"/><stop offset=".9" style="stop-color:#f7c02b"/><stop offset="1" style="stop-color:#f4a223"/></radialGradient><path d="M63.6 118.8c-27.9 0-58-17.5-58-55.9S35.7 7 63.6 7c15.5 0 29.8 5.1 40.4 14.4 11.5 10.2 17.6 24.6 17.6 41.5s-6.1 31.2-17.6 41.4a61 61 0 0 1-40.4 14.5" style="fill:url(#a)"/><path d="M111.5 29.7a57 57 0 0 1 8.1 30.2c0 16.9-6.1 31.2-17.6 41.4a61 61 0 0 1-40.4 14.5 59 59 0 0 1-48.2-23 58 58 0 0 0 50.2 26c15.4 0 29.8-5.2 40.4-14.5a54 54 0 0 0 17.6-41.4q-.1-19.2-10.1-33.2" style="fill:#eb8f00"/><path d="M101.7 72.2a6 6 0 0 0-7.1-2.6c-9 2.8-20 3.8-31.1 3.9A111 111 0 0 1 31.9 69c-2.7-1-5.7 0-7.1 2.6-1.4 2.5-.4 5.4.7 8A40 40 0 0 0 63.4 102h.2c17.3 0 30.9-7.9 37.3-22 1.2-2.5 2.2-5.4.8-7.9" style="fill:#fff"/><path d="m49 56.9-.1-.2-.5-.6-.5-.5-.7-.8-.9-.7-.8-.5-.7-.3h-.4.3-.5q-.2 0 0 0-.4 0-.7.3l-1.7 1.2-1.3 1.4-.5.6-.2.3a4 4 0 0 1-5.7.6 4 4 0 0 1-1.4-3.5l.2-1.1a14 14 0 0 1 4.7-6.8 11 11 0 0 1 4.9-2.1l.6-.1h3.4l1.8.6q1.7.6 3 1.6a13 13 0 0 1 4.9 7.6v.2c.3 2-1.2 4-3.2 4.3h-.1q-2.4.2-3.9-1.5m39.5 0-.2-.2-.4-.6-.6-.5-.7-.8-1.7-1.2-.6-.3h-.4.3-.6.1-.1q-.3 0-.7.3l-.8.5-.8.7-1.3 1.4-.6.6-.2.3a4 4 0 0 1-5.6.6 4 4 0 0 1-1.5-3.5l.3-1.1 1.2-3a13 13 0 0 1 7.3-5.7l1-.2.7-.1h3.3q1 .2 1.9.6 1.5.6 3 1.6a13 13 0 0 1 4.7 6.9l.1.7v.2c.3 2-1 4-3.1 4.3h-.1q-2.4.4-4-1.5" style="fill:#422b0d"/><path d="M100.9 75.8c-.1 0-6.2 4.7-17.7 7.6V72.1l-4 .5v11.7q-7 1.4-14.1 1.5V73.4h-4V86q.6 0 0 0-7-.2-13.8-1.4V72.3l-4-.6v12a51 51 0 0 1-17.9-7.4l-1.1-.4a36 36 0 0 0 2.4 6 63 63 0 0 0 16.6 5.9v9.9q2 1 4 1.6V88.6Q54 89.8 61 89.9V102h4V90q7.2-.1 14.2-1.5v11.2l4-1.6V87.6q9.2-2.1 17.4-6.8l.3-.7q1.2-2.1 1.4-4.7-.8 0-1.4.4" style="fill:#b3b3b3"/><path d="M102.1 71.6A6 6 0 0 0 95 69a111 111 0 0 1-31.6 4.4A111 111 0 0 1 31.8 69c-2.7-1-5.8 0-7.2 2.6-1.3 2.5-.4 5.4.8 8q.7 1.6 1.7 3.2s-2.1-7.7-.3-10q1-1.5 2.8-1.6.8 0 1.4.2 15.7 4.5 32.2 4.6h.3A113 113 0 0 0 97 71.2q1.8 0 2.9 1.6c1.8 2.3-.3 10-.3 10l1.7-3.2c1.2-2.5 2.2-5.4.8-8" style="fill:#eb8f00"/></svg>