<svg xml:space="preserve" width="16" height="16" viewBox="0 0 128 128"><radialGradient id="a" cx="63.6" cy="1696.9" r="57" gradientTransform="translate(0 -1634)" gradientUnits="userSpaceOnUse"><stop offset=".5" style="stop-color:#fde030"/><stop offset=".9" style="stop-color:#f7c02b"/><stop offset="1" style="stop-color:#f4a223"/></radialGradient><path d="M63.6 118.8c-27.9 0-58-17.5-58-55.9S35.7 7 63.6 7c15.5 0 29.8 5.1 40.4 14.4 11.5 10.2 17.6 24.6 17.6 41.5s-6.1 31.2-17.6 41.4a61 61 0 0 1-40.4 14.5" style="fill:url(#a)"/><path d="M111.5 29.7a57 57 0 0 1 8.1 30.2c0 16.9-6.1 31.2-17.6 41.4a61 61 0 0 1-40.4 14.5 59 59 0 0 1-48.2-23 58 58 0 0 0 50.2 26c15.4 0 29.8-5.2 40.4-14.5a54 54 0 0 0 17.6-41.4q-.1-19.2-10.1-33.2" style="fill:#eb8f00"/><path d="M77.6 92.4a12.8 12.8 0 1 1-12.8-12.8c7 0 12.8 5.7 12.8 12.7zM42.7 47c-4.2 0-8 3.5-8 9.4s3.8 9.4 8 9.4 8-3.6 8-9.4-3.8-9.5-8-9.5" style="fill:#422b0d"/><path d="M42.3 50.9a3 3 0 0 0-3.8 1.3q-.8 1.8.6 3.3c1.4.7 3 0 3.8-1.3.5-1.1.3-2.5-.6-3.3" style="fill:#896024"/><path d="M86 47c-4.2 0-8 3.5-8 9.4s3.8 9.4 8 9.4 8-3.6 8-9.4-3.8-9.5-8-9.5" style="fill:#422b0d"/><path d="M85.6 50.9a3 3 0 0 0-3.8 1.3q-.7 1.8.6 3.3c1.4.7 3.1 0 3.8-1.3.6-1.1.3-2.5-.6-3.3" style="fill:#896024"/><path d="M28.7 38c-.7.7-1.9.8-2.6 0q-1-1-.2-2.4 1.7-2.4 4.1-4.2a21 21 0 0 1 14.7-4.2c2.5.3 2 3.4-.2 3.6q-9.2.8-15.8 7.2m71.1.2q1.2 1.2 2.6 0 1-1 .2-2.3-1.7-2.4-4-4.2a21 21 0 0 0-14.8-4.3c-2.5.3-2 3.5.2 3.7q9.2.9 15.8 7.1" style="fill:#422b0d"/></svg>