<svg xml:space="preserve" width="16" height="16" viewBox="0 0 128 128"><radialGradient id="a" cx="63.6" cy="3176.9" r="57" gradientTransform="translate(0 -3114)" gradientUnits="userSpaceOnUse"><stop offset=".5" style="stop-color:#fde030"/><stop offset=".9" style="stop-color:#f7c02b"/><stop offset="1" style="stop-color:#f4a223"/></radialGradient><path d="M63.6 118.8c-27.9 0-58-17.5-58-55.9S35.7 7 63.6 7c15.5 0 29.8 5.1 40.4 14.4 11.5 10.2 17.6 24.6 17.6 41.5s-6.1 31.2-17.6 41.4a61 61 0 0 1-40.4 14.5" style="fill:url(#a)"/><path d="M111.5 29.7a57 57 0 0 1 8.1 30.2c0 16.9-6.1 31.2-17.6 41.4a61 61 0 0 1-40.4 14.5 59 59 0 0 1-48.2-23 58 58 0 0 0 50.2 26c15.4 0 29.8-5.2 40.4-14.5a54 54 0 0 0 17.6-41.4q-.1-19.2-10.1-33.2" style="fill:#eb8f00"/><path d="M64 93.8c-11.5 0-19.7-6-22.2-9.7a4 4 0 0 1-.5-4.2q.8-1.5 2.4-1.5l1.1.2a65 65 0 0 0 38.4 0l1-.2q1.7 0 2.5 1.5c.6 1.3.4 3-.5 4.2A28 28 0 0 1 64 93.8m60-48.4s-4.3.1-4.3 3.5c0 8.4.1 26.5-22 26.5-17.6 0-26-9.1-27.5-19.2-.6-4.2-2-8.7-6.2-8.7s-5.7 4.5-6.3 8.7c-1.4 10-9.8 19.2-27.5 19.2-22 0-22-18-22-26.5 0-3.4-4.2-3.5-4.2-3.5v-8.3q10.2-1.4 20.6-1.3c12.5 0 17.5 0 27.4 1 5.9.6 12 .7 12 .7s6-.1 12-.7c10-1 14.9-1 27.4-1q10.4 0 20.6 1.3z" style="fill:#422b0d"/><path d="M21.1 52q0 2.6-2.3 3.4h-.5q-2.3-.2-2.9-2.4-.8-4.3 1.9-7.9 2.6-3 6.5-3c1.6-.2 2.9 1 3 2.4v.1c0 2-1.5 2.7-3 3.2a5 5 0 0 0-2.7 4.2m63.6 0q0 2.6-2.3 3.4h-.5q-2.4-.2-2.9-2.4-.9-4.3 1.8-7.9 2.5-3 6.6-3c1.5-.2 2.9 1 3 2.4v.1c0 2-1.5 2.7-3 3.2a5 5 0 0 0-2.7 4.2" style="fill:#896024"/></svg>