<svg xml:space="preserve" width="16" height="16" viewBox="0 0 128 128"><path d="M16.8 19.8q-1.6.1-1.7 1.7v.2c-1.5 25.9 3 59.2 24 83.5 12 14.7 23.9 18.5 24.5 18.7h1.1c.5-.2 12.5-4 24.5-18.7 19.9-24.2 24-58.8 24-83.5v-.1q-.2-1.6-1.7-1.8c-.3 0-29.1-1-46-15.3q-1.2-.9-2.4 0C46 18.7 17 19.7 16.8 19.8" style="fill:#b0bec5"/><path d="M111.5 19.8c-.3 0-29.1-1-46-15.3q-.6-.6-1.3-.5v120l.5-.1c.6-.3 12.5-4 24.5-18.7 19.9-24.2 24-58.8 24-83.5v-.1q-.2-1.7-1.7-1.9" style="fill:#84b0c1"/><path d="M26.3 28.3c-.8 0-1 1-1 1.7v.1c0 19.8 3 47.4 19 66.8a45 45 0 0 0 19.4 14.9h.8c.4-.1 9.8-3.2 19.4-15 16-19.3 19-46.8 19-66.6V30q0-1.3-1.2-1.4h.1c-.2 0-23.2-.8-36.7-12.1-1.1-1-1.9-.2-1.9-.2-13.6 11.3-36.6 12-36.9 12" style="fill:#2f7889"/><path d="M29.2 30c-.8 0-1 1-1 1.7v.1c0 18.6 2.9 44.7 17.6 62.9a42 42 0 0 0 18 14l.3.1.4-.1c.4-.1 9-3 18-14C97.2 76.5 100 50.5 100 31.8q0-1.4-1-1.4c-.2 0-21.4-.8-34-11.5-.8-1-1.7-.2-1.7-.2-12.6 10.7-33.8 11.4-34.1 11.4" style="fill:#c9e3e6"/><path d="M98.9 30.4c-.1 0-21.4-.8-33.8-11.5l-1-.5v90.4l.4-.1c.4-.1 9-3 18-14 14.7-18.4 17.5-44.3 17.5-63v-.1q0-1.2-1.1-1.3" style="fill:#b0bec5"/><circle cx="70.6" cy="14.4" r="1.9" style="fill:#37474f"/><circle cx="82.2" cy="19.7" r="1.9" style="fill:#37474f"/><circle cx="95" cy="23.2" r="1.9" style="fill:#37474f"/><circle cx="108.2" cy="25.1" r="1.9" style="fill:#37474f"/><circle cx="108.6" cy="36.9" r="1.9" style="fill:#37474f"/><circle cx="107" cy="50.8" r="1.9" style="fill:#37474f"/><circle cx="64.1" cy="118.1" r="1.9" style="fill:#37474f"/><circle cx="75.4" cy="112.7" r="1.9" style="fill:#37474f"/><circle cx="85.7" cy="102.7" r="1.9" style="fill:#37474f"/><circle cx="93.8" cy="91.3" r="1.9" style="fill:#37474f"/><circle cx="99.7" cy="79" r="1.9" style="fill:#37474f"/><circle cx="104.3" cy="64.7" r="1.9" style="fill:#37474f"/><circle cx="70.2" cy="13.8" r="1.9" style="fill:#b9e4ea"/><circle cx="81.7" cy="19" r="1.9" style="fill:#b9e4ea"/><circle cx="94.5" cy="22.6" r="1.9" style="fill:#b9e4ea"/><circle cx="107.7" cy="24.5" r="1.9" style="fill:#b9e4ea"/><circle cx="108.1" cy="36.3" r="1.9" style="fill:#b9e4ea"/><circle cx="106.5" cy="50.1" r="1.9" style="fill:#b9e4ea"/><circle cx="63.6" cy="117.5" r="1.9" style="fill:#eee"/><circle cx="74.9" cy="112.1" r="1.9" style="fill:#b9e4ea"/><circle cx="85.3" cy="102.1" r="1.9" style="fill:#b9e4ea"/><circle cx="93.3" cy="90.6" r="1.9" style="fill:#b9e4ea"/><circle cx="99.2" cy="78.4" r="1.9" style="fill:#b9e4ea"/><circle cx="103.8" cy="64" r="1.9" style="fill:#b9e4ea"/><circle cx="58" cy="14.4" r="1.9" style="fill:#2f7889"/><circle cx="46.4" cy="19.7" r="1.9" style="fill:#2f7889"/><circle cx="33.6" cy="23.2" r="1.9" style="fill:#2f7889"/><circle cx="20.4" cy="25.1" r="1.9" style="fill:#2f7889"/><circle cx="20" cy="36.9" r="1.9" style="fill:#2f7889"/><circle cx="21.6" cy="50.8" r="1.9" style="fill:#2f7889"/><circle cx="53.2" cy="112.7" r="1.9" style="fill:#2f7889"/><circle cx="42.9" cy="102.7" r="1.9" style="fill:#2f7889"/><circle cx="34.8" cy="91.3" r="1.9" style="fill:#2f7889"/><circle cx="28.9" cy="79" r="1.9" style="fill:#2f7889"/><circle cx="24.3" cy="64.7" r="1.9" style="fill:#2f7889"/><circle cx="57.5" cy="13.8" r="1.9" style="fill:#eee"/><circle cx="46" cy="19" r="1.9" style="fill:#eee"/><circle cx="33.2" cy="22.6" r="1.9" style="fill:#eee"/><circle cx="20" cy="24.5" r="1.9" style="fill:#eee"/><circle cx="19.6" cy="36.3" r="1.9" style="fill:#eee"/><circle cx="21.1" cy="50.1" r="1.9" style="fill:#eee"/><circle cx="52.8" cy="112.1" r="1.9" style="fill:#eee"/><circle cx="42.4" cy="102.1" r="1.9" style="fill:#eee"/><circle cx="34.4" cy="90.6" r="1.9" style="fill:#eee"/><circle cx="28.5" cy="78.4" r="1.9" style="fill:#eee"/><circle cx="23.9" cy="64" r="1.9" style="fill:#eee"/></svg>