<svg xml:space="preserve" width="16" height="16" viewBox="0 0 128 128"><path d="M37 80.8S9.7 74.9 9.2 75s-6 5.6-5.7 6.5c.1.8 24.2 13.5 24.2 13.5l7-7.3zm-3.7 19.4s13.3 23.1 14 23.1 6.6-4.7 6.6-5.2l-5.6-28-9.8 1.1z" style="fill:#006ca8"/><path d="M22.8 25.8s-2 2.2-2.3 3-.5 2 .4 2.5 2 .1 2.4-.5l3.2-3.8s-3.5-1.4-3.7-1.2m14 7.8-2.2 2.7c-.6.8-.6 2 .3 2.7 1.2.9 2.4-.1 3-.8l2.4-2.7zM50 40.8s-2 2-2.6 2.8c-.6.9-.8 2.2.1 2.9q1.6 1 3-.4c1-.8 3-3 3-3zM85.1 75s-2.4 1.7-3 2.3c-.5.7-1 2-.2 2.6s1.9.6 2.5.2l4-3s-3-2.2-3.3-2m8 12.5-2.8 2c-.8.7-1 1.9-.4 2.7 1 1.1 2.4.5 3.2 0l3-2zm7.4 12.9-3.3 2c-.8.8-1.3 2-.6 2.9q1.4 1.4 3 .3l3.7-2.2zM57.3 23.7s-.4-2.3 1.5-5C60.7 16.2 67 10 68 10s3.3 1.1 5.7 3.4A12 12 0 0 1 77 19c0 .7-4.4 5-5.5 6l-4.2 4.6z" style="fill:#9a9a9a"/><path d="M60.1 24s7.7-9.3 9.8-7.9c2 1.4-6.3 9.5-6.3 9.5z" style="fill:#c8c8c8"/><path d="M58.4 23.5s4.3-4.4 4.8-5.1 0-1.8-.4-2.4c-.3-.5-1-.8-1-.8s-3 2.8-4 5.2c-.9 1.9-.7 2.8-.7 2.8zm7.5 2.3s1.6-1.8 2.4-2.4q1.4-.8 2.6-.2c.8.5 1 1.4 1 1.4l-3 3.2z" style="fill:#848484"/><path d="M102 59.5s2.5-3 4-4.4c1.4-1.5 3.9-3.6 4.4-3.6a20 20 0 0 1 8.7 9.2c0 .3-4.4 4.8-6.4 6.5a41 41 0 0 1-10.2 4.3z" style="fill:#9a9a9a"/><path d="M103.4 65.1s7.3-8 9-6.5c1.6 1.5-8.4 10.5-8.4 10.5z" style="fill:#c8c8c8"/><path d="m102.9 63.1 2.6-3c1-1 .9-2.3.6-3s-1.3-.9-1.3-.9l-3.4 3.7zm2.5 6.6 4.8-4.3c.8-.6 2-1 2.8-.4l1 1c0 .1-3.2 3.5-5.1 4.7-1.2.8-4.1 1.2-4.1 1.2z" style="fill:#848484"/><path d="M11.7 9c-1 0-7.2 7.3-7.5 7.9s0 1.4 1.6 2.2c1.5.7 44.4 23.4 45.1 24 .7.5 9.2 10 9.2 10S81 38.6 81 38l-.8-9.4S13.1 8.8 11.7 8.9M73 65.8S86 77.5 87 79s23.3 42 23.6 42.6 1.8 1.2 2.6.5 6.5-5.8 6.6-7-21.4-70.4-21.4-70.4l-16.5 6z" style="fill:#006ca8"/><path d="M66.8 43.3 56 32.9c-.7-.5-48.3-20.2-48.3-20.2l-2 2.2s48.3 20.3 49 20.9L64.8 46zm15.6 17.2L94.2 75c.6.9 20.3 45.6 20.3 45.6l2-1.8s-19.6-45.7-20-46.3L83.2 55.8z" style="fill:#014eac"/><path d="M24.2 98.4s-4.2 6-4.2 6.5 2.8 3.5 3.2 3.5 6.4-4.3 6.4-4.3l-.9-4.4z" style="fill:#9a9a9a"/><path d="M24.2 98.4s8.3-14 17.2-26.4c9-12.8 16.5-20.1 27.8-32.5a193 193 0 0 1 32.5-30.2c7.3-4.9 17.7-8.2 21.4-4.9 4.1 3.6-.4 15.1-5 21.7C107.9 40.9 99 48 88.8 57.9 78.6 67.6 70 76 59.6 84c-7.2 5.4-30 20-30 20z" style="fill:#c8c8c8"/><path d="m104 11 2.7 3s4.6-4.5 8.1-1.2c3.6 3.4-1.3 8.3-1.3 8.3l3 3.3s8-9.2 1.4-15.1C112.2 4 104 11 104 11" style="fill:#3b5361"/><path d="M47.8 74 30.5 94.4c-1.1 1.3-1.6 3-.4 4s2.6 0 3.8-.8C35.4 96.6 53 81 54.2 80c1.9-1.7 2.2-4.8.2-6.6-2.1-2-4.6-1.2-6.6.7" style="fill:#9a9a9a"/><path d="M47.3 70q-1.4-1-3.1.9c-1 1-1.4 2.7-.4 3.4s2.2-.3 3-1.3c.9-1 1.5-2.2.5-3m2.8-6c-.9 1.1-2.2 2.8-1 4s3-.3 3.9-1.2 9.8-11.5 21.3-23C85.4 32.8 93 25.7 94 24.5c1-1 1-2.8 0-3.3q-1.4-.9-3.5 1.2c-1.4 1.4-10.9 10-19.9 19.1S51.2 62.8 50.1 64.1" style="fill:#dfdfdf"/><path d="M105.5 41.6s-.6-3.7-2.9-2.3c-2.5 1.6-.6 5.9-.6 5.9l1.9-2zm-8.9 8.8s-.4-4.8-3-2.8c-2.1 1.5-.7 6.2-.7 6.2l2-1.8zm-8.5 8s-.3-4-2.6-2.7-.8 6-.8 6l1.7-1.6zm-9.5 9.2s-.2-3.9-2.5-2.8c-2.4 1-1 6-1 6l1.8-1.6z" style="fill:#3b5361"/></svg>