<svg xml:space="preserve" width="16" height="16" viewBox="0 0 128 128"><path d="m55.2 63.5 20.4.2s2 2 3.7 0l13.3-13.4c1.3-1.3 3.3-3.4 5-3.4s9.3 5.8 12.7 8.5c2.4 2 8.6 7.3 10.3 7.8 1.6.4 5.6 1.1 5.6 3s-5.6 1.1-7.3 1-11.1-6.6-12.6-7.5-6.1-4.4-7-4.4S85.6 68 85.6 68l10.2-3.7c2.3-.9 4.7-2 5.8-1.8 1.2.2 9.6 9.4 11 10.6 1.3 1.2 5.6 5.3 6.8 6s8.6 4 7.7 5.9-10-1-11.6-1.7c-1.8-1-6.5-4.2-9.4-7.4a28 28 0 0 0-6.1-5.4c-1.3-.3-15.6 5.3-15.6 5.3s10-.6 11.7.3 6.4 11.3 7.3 13.4c1.2 2.9 5 11.9 6.1 13.4 1.2 1.5 5.7 5.3 4.3 7.1-1.3 1.8-7-2.6-8-4-1.1-1.6-4.7-5.8-9.6-15.2-1.6-3-3.7-7.1-4.6-7.7S82 84 82 84s-1 7-.6 9.2c.3 2.2 4.3 20.5 5 24.3q1.3 5.4-.6 6c-1.3.4-3-1.1-4.7-5.3-1-2-6.2-17.1-7-19.1-1.3-3.7-1-10-1-10l-29.5-5s-3.8.2-4.4 1.2-3.3 13.6-4 16c-.8 2.6-6.3 12.6-6.9 13.3s-2 3-3.7 1c-1.2-1.3 1.2-4.7 2-7.5 0 0 1.9-4.5 2.2-7.3S31 81.2 31.9 80c1.2-1.6 5.4-3.2 5.4-3.2l-5-2-4.1-1.2c-.8.2-5.5 8-7.4 10.6S12 94.6 11 95.2s-3.2 1.6-4-.2c-1-1.8 1.4-3.1 2.8-4.9s6.5-9.7 8.2-12.5 6.2-12 7.7-12.7 11 3.9 11 3.9l-7.6-6.2c-2.2-1.8-4-4.5-5.1-4s-6.6 5.7-9 7.6-8.2 5.7-10 6.5c-2.1.9-4 .3-4.3-1s3.9-4 7-6.6 7.1-7.5 9.2-9.6c2.7-2.6 5.2-5.3 6.6-6.3 2.6-1.9 17.6 13 17.6 13l-9.6-13.3c-1.6-2.3-3-5-3.4-6s-.9-3.1.7-4.3 4-1.2 6.3 2l16.7 22.7z" style="fill:#868686"/><path d="M77 65.2s15-12.4 14.8-28.5-12.1-23.4-21.2-24c-10.3-.5-25.6 6.8-26.3 24A41 41 0 0 0 51 63s-8.1 1.7-9.8 11.7c-1 6 1.8 18 15.7 20.2 17.7 2.8 24.8-10.4 24.2-19.6-.4-6.3-4-10.1-4-10.1" style="fill:#616569"/><path d="M61.8 57.5q5.5 0 9 1.7c5.4 2.6 7.2 7 6.6 6.8-1.2-.5-6-5.4-16.7-5.5-5.8 0-9.5 2.7-10.3 2.7-.6-.1 4.9-5.9 11.4-5.7" style="fill:#4e4d50"/><path d="M66.1 49.1q-1.3-.3-1.2-1.5l.5-4a1.4 1.4 0 0 1 2.7.3l-.5 4q-.2 1.1-1.4 1.2M76.5 52l-.5-.1q-1.1-.7-.7-1.9l2-4.1q.7-1.1 1.9-.6t.6 1.8l-2 4.1q-.4.9-1.3.8m-21.1-2.7q-1.1-.1-1.3-1.1l-.7-4.1q-.2-1.3 1-1.6 1.3 0 1.7 1.1l.7 4a1.4 1.4 0 0 1-1.4 1.7M61.3 35q-1.3-.1-1.4-1.3l-.1-4q.1-1.2 1.3-1.3 1.3.1 1.4 1.3l.1 3.9q0 1.2-1.3 1.4m13.2 1.6H74q-1.1-.5-1-1.7l1.1-4.3q.5-1.2 1.7-1 1.2.5 1 1.7l-1.1 4.3q-.4 1-1.3 1" style="fill:#888a8a"/><ellipse cx="53.5" cy="75.6" rx="4.5" ry="3.7" style="fill:#050402" transform="rotate(-83.9 53.5 75.62)"/><ellipse cx="66.3" cy="77.2" rx="3.7" ry="4.5" style="fill:#050402"/><ellipse cx="73.7" cy="75.3" rx="2.5" ry="3.4" style="fill:#050402" transform="rotate(-5.8 73.65 75.28)"/><ellipse cx="46.8" cy="71.9" rx="3.4" ry="2.5" style="fill:#050402" transform="rotate(-78.5 46.78 71.9)"/></svg>