<svg xml:space="preserve" width="16" height="16" viewBox="0 0 128 128"><path d="m16.5 123.8 1.6-7.5-13.8 3.5s-1-13.3 11-21c13-8.4 28 .5 28 .5s-1.6 10-10.5 18.7c-6 5.8-16.3 5.8-16.3 5.8m95 0-1.6-7.5 13.8 3.5s1-13.3-11-21c-13-8.4-28 .5-28 .5s1.6 10 10.5 18.7c6 5.8 16.3 5.8 16.3 5.8" style="fill:#312d2d"/><radialGradient id="a" cx="22.7" cy="18.5" r="23" gradientTransform="rotate(153 -11.9 65.62)scale(-1 .584)" gradientUnits="userSpaceOnUse"><stop offset=".5" style="stop-color:#454140;stop-opacity:0"/><stop offset="1" style="stop-color:#454140"/></radialGradient><path d="m16.5 123.8 1.6-7.5-13.8 3.5s-1-13.3 11-21c13-8.4 28 .5 28 .5s-1.6 10-10.5 18.7c-6 5.8-16.3 5.8-16.3 5.8" style="fill:url(#a)"/><radialGradient id="b" cx="13.5" cy="8.5" r="15.4" gradientTransform="rotate(-33 222.11 57.6)scale(1 -.507)" gradientUnits="userSpaceOnUse"><stop offset="0" style="stop-color:#454140"/><stop offset=".7" style="stop-color:#454140;stop-opacity:0"/></radialGradient><path d="m16.5 123.8 1.6-7.5-13.8 3.5s-1-13.3 11-21c13-8.4 26.4 10.6 17.5 19.2-6 5.8-16.3 5.8-16.3 5.8" style="fill:url(#b)"/><radialGradient id="c" cx="37.6" cy="18.5" r="23" gradientTransform="rotate(207 83.32 52)scale(1 .584)" gradientUnits="userSpaceOnUse"><stop offset=".5" style="stop-color:#454140;stop-opacity:0"/><stop offset="1" style="stop-color:#454140"/></radialGradient><path d="m111.5 123.8-1.6-7.5 13.8 3.5s1-13.3-11-21c-13-8.4-28 .5-28 .5s1.6 10 10.5 18.7c6 5.8 16.3 5.8 16.3 5.8" style="fill:url(#c)"/><radialGradient id="d" cx="28.4" cy="8.5" r="15.4" gradientTransform="rotate(213 88.53 49.13)scale(1 .507)" gradientUnits="userSpaceOnUse"><stop offset="0" style="stop-color:#454140"/><stop offset=".7" style="stop-color:#454140;stop-opacity:0"/></radialGradient><path d="m111.5 123.8-1.6-7.5 13.8 3.5s1-13.3-11-21c-13-8.4-26.4 10.6-17.5 19.2 6 5.8 16.3 5.8 16.3 5.8" style="fill:url(#d)"/><path d="M26.8 94.8c-7.3 0-13.3-5.7-13.3-12.7s6-12.7 13.3-12.7h75.4c7 0 12.3 5.4 12.3 12.7s-5.3 12.7-12.3 12.7z" style="fill:#edc391"/><path d="M64 122.4c-18 0-43.5-16.1-43.5-52 0-33.5 19.1-59.7 43.5-59.7s43.5 26.2 43.5 59.6c0 36-25.5 52.1-43.5 52.1" style="fill:#f9ddbd"/><path d="M69 87H59q-1.3.7-.9 2.2c.4 1 2.3 3.6 6 3.6s5.6-2.6 6-3.6q.5-1.5-1-2.1" style="fill:#dba689"/><path d="M32.5 68.4c4-5.8 13.4-6 18.4-1.5 1 .9 2.3 2.1 1.6 3.6-.5 1.3-2 1.4-3 1a18 18 0 0 0-10-1.4q-1.3.2-2.6.7l-2 .8c-1.9.6-3.6-1.5-2.4-3.2M93 71.5q-4.3-2-9-1.6-2.5.3-5 1.3c-1 .5-2.2.9-3.1-.2-2.5-2.6 3.3-5.8 5.2-6.5 3.5-1.3 7.6-1 11 .8 1.3.8 2.9 1.9 3.6 3.3.9 1.7-.9 3.7-2.7 3" style="fill:#454140"/><ellipse cx="42.4" cy="80.3" rx="6.5" ry="6.7" style="fill:#312d2d"/><ellipse cx="85.6" cy="80.3" rx="6.5" ry="6.7" style="fill:#312d2d"/><path d="M75 98a33 33 0 0 1-22 0c-2.5-1.5-5 .7-4 3 1 2 8.5 7 15 7s13.9-5 14.9-7c1-2.3-1.5-4.5-3.9-3" style="fill:#444"/><path d="M103.9 18.5c-6-6.2-11.7-8.9-12.2-9A68 68 0 0 0 64.3 4C13.4 4 9.9 45.6 11.9 63.9c1.8 16 11.5 20 11.5 20L22 68.3S40.2 63.4 49.8 56s14-13.8 14-13.8 3.3 4.8 14 13.6S106 68.4 106 68.4l.1 15.6s8.5-4 9.9-20.1c1.8-20.2-.7-32.3-12.1-45.4" style="fill:#312d2d"/><radialGradient id="e" cx="64" cy="74" r="51.7" gradientTransform="rotate(181.1 -.1 62.4)scale(-1 .974)" gradientUnits="userSpaceOnUse"><stop offset=".7" style="stop-color:#454140;stop-opacity:0"/><stop offset="1" style="stop-color:#454140"/></radialGradient><path d="M103.9 18.5c-6-6.2-11.7-8.9-12.2-9A68 68 0 0 0 64.3 4C13.4 4 9.9 45.6 11.9 63.9c1.8 16 11.5 20 11.5 20L22 68.3S40.2 63.4 49.8 56s14-13.8 14-13.8 3.3 4.8 14 13.6S106 68.4 106 68.4l.1 15.6s8.5-4 9.9-20.1c1.8-20.2-.7-32.3-12.1-45.4" style="fill:url(#e)"/></svg>