<svg xml:space="preserve" width="16" height="16" viewBox="0 0 128 128"><radialGradient id="a" cx="66.5" cy="139.7" r="134.9" gradientUnits="userSpaceOnUse"><stop offset=".4" style="stop-color:#a8d793"/><stop offset=".6" style="stop-color:#7dad8b"/><stop offset=".7" style="stop-color:#4c7d82"/><stop offset=".8" style="stop-color:#457986"/><stop offset=".9" style="stop-color:#326c8f"/><stop offset="1" style="stop-color:#185b9d"/></radialGradient><path d="M116.6 124.3H11.3a7.5 7.5 0 0 1-7.5-7.6V11.4C3.8 7.3 7.2 4 11.3 4h105.3c4.2 0 7.5 3.4 7.5 7.5v105.3c0 4.2-3.3 7.6-7.5 7.6" style="fill:url(#a)"/><path d="M121.3 62.4h-19v21.9H60.2V18.8H28.6v65.4h-4.4v-35H12.3v42.6h9.5v25.4H119v-11h2.3z" style="fill:#6ba3ae"/><path d="M96.2 17.9c-.4 0 1.4 4 1.3 9.1-.1 7-5.6 11.5-12.2 11.4-4.9-.2-8.1-2.3-8.4-1.8-.2.2.8 4.7 5.4 7.2a15 15 0 0 0 18.3-2.6c3.8-4 5.1-10.6 2.8-16.1-2.4-5.8-6.7-7.3-7.2-7.2" style="fill:#fef7b0"/><path d="M109 42.1c.2.4 3.7 0 3.7 0s1.9 2.7 2.3 2.7c.6 0 1.3-3.5 1.3-3.5s3.2-.2 3.3-.6c.1-.6-2.7-2.6-2.7-2.6s.5-3.4 0-3.6-3.1 1.8-3.1 1.8-3.4-1.8-3.8-1.3.9 3.8.9 3.8-2.2 3.1-2 3.3m-43-16.9c.1.4 3.8.8 3.8.8s1.3 3.6 1.8 3.7c.7.2 2.2-3.3 2.2-3.3s3.6 0 3.8-.5c.4-.8-2.3-3.2-2.3-3.2s1.7-3.4 1-3.8c-.8-.5-4 1.2-4 1.2s-3-2.8-3.6-2.4c-.8.5.2 4.3.2 4.3s-3.3 2.4-3 3.2M9.7 14.7c.2.3 3.5.6 3.5.6s1.4 3.2 1.8 3.2 2-2.9 2-2.9 3.4-.2 3.5-.6c.2-.6-2.2-2.7-2.2-2.7s.8-3.8.5-4-3.4 1.4-3.4 1.4-2.8-2-3.3-1.6.3 3.8.3 3.8-3 2.1-2.7 2.8M16 27.2c0 .3 2.7.7 2.7.7s1 2.8 1.3 2.9c.5.1 1.7-2.5 1.7-2.5s2.6.2 2.8-.1-1.4-2.5-1.4-2.5.8-2.5.5-2.8c-.2-.2-2.8.8-2.8.8s-2-1.9-2.4-1.7-.3 3-.3 3-2.3 1.7-2.1 2.2" style="fill:#ffd420"/><path d="M32.4 25.1h2.4v7.6h-2.4zm5.1 0H40v7.6h-2.5zm7.8 0h-2.4v7.6h2.3zm5.1 0h-2.6l.1 7.6h2.5zm-18 0h2.4v7.6h-2.4zm5.1 0H40v7.6h-2.5zm7.8 0H43v7.6h2.4zm5.1 12h-2.6l.1 7.6h2.5zm-18 0h2.4v7.6h-2.4zm5.1 0H40v7.6h-2.5zm7.8 0H43v7.6h2.4zm-12.9 12h2.4v7.6h-2.4zm5.1 0H40v7.6h-2.5zm7.8 0H43v7.6h2.4zm8.1-24v7.6h2.5v-7.6zm52.1 56.1h2.9v3.9h-2.9zm5.8 0h2.9v3.9h-2.9z" style="fill:#3f737b"/><path d="M105.5 73.8h2.9v3.9h-2.9z" style="fill:#fde064"/><path d="M111.3 73.8h2.9v3.9h-2.9zm-5.8-7h2.9v3.9h-2.9z" style="fill:#3f737b"/><path d="M111.3 66.8h2.9v3.9h-2.9z" style="fill:#fde064"/><radialGradient id="b" cx="66.1" cy="-50.9" r="173" gradientUnits="userSpaceOnUse"><stop offset="0" style="stop-color:#163387"/><stop offset=".4" style="stop-color:#163284"/><stop offset=".6" style="stop-color:#17317b"/><stop offset=".8" style="stop-color:#182e6b"/><stop offset="1" style="stop-color:#1a2b59"/></radialGradient><path d="M115 49.4c-.4.7 0 42.7 0 42.7H99.1v-24h-5v-7.7h-4.6V54h-8.2v6.9h-5.2V68h-5.3v35h-5V64H68v-7.5h-2.4V41H63l-3.5-11h-7.1l-3.6 11H46v15.4h-2.5V64H46v39h-7.2V68H17.2V28.4H3.8v88.2c0 4.2 3.4 7.6 7.5 7.6h105.3c4.2 0 7.5-3.4 7.5-7.6V49.4z" style="fill:url(#b)"/><path d="M5.7 116.2h30v2.4h-30zm0-8.3h30v2.4h-30zm0-8.7h30v2.4h-30zm0-8.3h30v2.4h-30zm0-9.7h30v2.4h-30z" style="fill:#3f737b"/><path d="M5.7 72.9h30v2.4h-30z" style="fill:#fde064"/><path d="M5.7 63.3h1.8V67H5.7zm6 0h1.8V67h-1.8z" style="fill:#3f737b"/><path d="M5.7 55.9h1.8v3.7H5.7z" style="fill:#fde064"/><path d="M11.7 55.9h1.8v3.7h-1.8z" style="fill:#3f737b"/><path d="M5.7 48.5h1.8v3.7H5.7z" style="fill:#fde064"/><path d="M11.7 48.5h1.8v3.7h-1.8zm-6-7.5h1.8v3.7H5.7z" style="fill:#3f737b"/><path d="M11.7 41h1.8v3.7h-1.8zm-6-7.4h1.8v3.7H5.7z" style="fill:#fde064"/><path d="M11.7 33.6h1.8v3.7h-1.8z" style="fill:#3f737b"/><path d="M49.8 64.5h2.3v4.8h-2.3z" style="fill:#fde064"/><path d="M55.2 64.5h2.3v4.8h-2.3zm5.2 0h2.3v4.8h-2.3zm-10.6 9h2.3v4.8h-2.3zm0 24.2h2.3v4.8h-2.3zm5.4 0h2.3v4.8h-2.3zm5.2 0h2.3v4.8h-2.3zm-5.2-24.2h2.3v4.8h-2.3z" style="fill:#3f737b"/><path d="M60.4 73.5h2.3v4.8h-2.3z" style="fill:#fde064"/><path d="M49.8 82.5h2.3v4.8h-2.3z" style="fill:#3f737b"/><path d="M55.2 82.5h2.3v4.8h-2.3z" style="fill:#fde064"/><path d="M60.4 82.5h2.3v4.8h-2.3zM54 54h4.7v-7s.1-2.6-2.4-2.6C54 44.4 54 47 54 47z" style="fill:#3f737b"/><path d="M79.8 64.2h2.3v9.7h-2.3zm8.6 0h2.3v9.7h-2.3zm-4.2 0h2.3v9.7h-2.3zm-7.8 13.4h2.3v3.1h-2.3zm7.8 0h2.3v3.1h-2.3zm7.8 0h2.3v3.1H92z" style="fill:#fde064"/><path d="M76.4 87.6h2.3v3.1h-2.3z" style="fill:#3f737b"/><path d="M84.2 87.6h2.3v3.1h-2.3zm7.8 0h2.3v3.1H92z" style="fill:#fde064"/><path d="M76.4 97h2.3v3.1h-2.3zm7.8 0h2.3v3.1h-2.3z" style="fill:#3f737b"/><path d="M92 97h2.3v3.1H92z" style="fill:#fde064"/><path d="M76.4 107h2.3v3.1h-2.3z" style="fill:#3f737b"/><path d="M84.2 107h2.3v3.1h-2.3z" style="fill:#fde064"/><path d="M92 107h2.3v3.1H92zm-15.6 9.5h2.3v3.1h-2.3zm7.8 0h2.3v3.1h-2.3zm7.8 0h2.3v3.1H92z" style="fill:#3f737b"/></svg>