<svg xml:space="preserve" width="16" height="16" viewBox="0 0 128 128"><radialGradient id="a" cx="119.4" cy="354.8" r="7.4" gradientTransform="rotate(-20.7 -809.88 477.68)scale(1 1.009)" gradientUnits="userSpaceOnUse"><stop offset=".4" style="stop-color:#80deea;stop-opacity:0"/><stop offset="1" style="stop-color:#80deea;stop-opacity:.8"/></radialGradient><circle cx="14.4" cy="36.1" r="5.6" style="fill:url(#a)"/><radialGradient id="b" cx="126.5" cy="353.5" r="7.4" gradientTransform="rotate(-20.7 -809.85 477.67)scale(1 1.009)" gradientUnits="userSpaceOnUse"><stop offset=".4" style="stop-color:#80deea;stop-opacity:0"/><stop offset="1" style="stop-color:#80deea;stop-opacity:.8"/></radialGradient><circle cx="20.6" cy="32.4" r="5.6" style="fill:url(#b)"/><path d="M39 70s-1.4-4.8.4-6.3c.6-.5.9-.4 2.8-1.9 3.4-2.5 3.4-4.7 2.9-6.5l-.6-1.5q-.4-.8-.4-1.5c0-.3 1.9-2.3 1-3.3-1.2-1.2-4.5-1-5-2.3l-.7-1.8a15 15 0 0 0-2.8-4.7c-3.8-4.3-9-6.3-14.6-4-5.2 2.2-8.9 8.9-8.8 14.4 0 3.6 6 9.7 10.5 12.2a10 10 0 0 1 4.2 4.4z" style="fill:#ffca28"/><path d="M42.2 56q1.5.3 2.8-.7l-.5-1.5q-1 .9-2.1 1c-1.2.2-1.3 1.2-.2 1.3" style="fill:#795548"/><path d="M38.7 49q-.4-.2-.6 0c-.5 1.3-1.5 1.5-2.7 1.7l-.4.3q0 .3.3.5c.8.4 2.2.2 3-.3q1-.3.8-1.2 0-.9-.5-1" style="fill:#404040"/><path d="M36 47c1.3-.3 1.2-1.2.5-1.6-.5-.3-1.4-.4-2.6.5q-1.4 1.5-1.4 2.5c0 1 .1 1 .4 1 .5-.2 1.5-2.2 3-2.5" style="fill:#6d4c41"/><path d="M10 52c-.6-4 1.6-6.5 2.3-7.3-.2-1.4-.7-7.2 7.6-10.1q3-.9 5.5-.5h2q.7 0 1.6-.6c1-1.1-.5-2.7-.5-2.7s5-1.6 5.5 3.8c1.8-.2 3.4 1 4.5 2.3a5 5 0 0 1 .1 6.4s-1.4-3.5-6-.7c-1.5.9-3 2-4.6 2.1h-2l-.1.2c-1.3 2 3.4 4.9 2.8 8.5-.1.7-.6.7-.6.7l-1.4-.7c-1-.5-2-1-2.7-.3-2 1.7.7 5.5 3.8 4.9.3 0 2.2 4.7-3.3 7.8-2.9 1.6-5.2-.2-5.2-.2s1.4-.4 1-1.6q-.2-.9-2.3-1.3c-3.8-1-4.4-4-4.4-5A8 8 0 0 1 9.9 52" style="fill:#543930"/><radialGradient id="c" cx="-2458" cy="315.3" r="8.2" gradientTransform="rotate(130.7 -1126.76 825.38)scale(1 1.44)" gradientUnits="userSpaceOnUse"><stop offset=".5" style="stop-color:#6d4c41;stop-opacity:0"/><stop offset="1" style="stop-color:#6d4c41"/></radialGradient><path d="M13.6 57.7c-.1-.1 1.9 1.5 5.4-.8 1.4-.9 5.5 1.6 4.7 5.2-.8 3.2-4.4 3.5-4.4 3.5s.5-.1 1-.7c.2-.3.1-.9.1-.9q-.2-.9-2.4-1.3c-3.8-.9-4.3-4-4.4-5" style="fill:url(#c)"/><radialGradient id="d" cx="-2472.8" cy="327.4" r="8.3" gradientTransform="rotate(158.7 -1193.29 466.62)scale(1 1.262)" gradientUnits="userSpaceOnUse"><stop offset=".5" style="stop-color:#6d4c41;stop-opacity:0"/><stop offset="1" style="stop-color:#6d4c41"/></radialGradient><path d="M10 52a9 9 0 0 1 1.3-6c.2-.3.6-1 1-1.3q.3 1.4 1.6 2.4s1 1.1 2.7 1.5q-.1 2.4.5 4.7c.4 1.3.7 2.8 1.9 3.6-.8.3-1.8 1.1-3.3 1.2-1.5.2-2.8-.8-3.8-1.9a8 8 0 0 1-2-4.1" style="fill:url(#d)"/><radialGradient id="e" cx="-2482.6" cy="317.2" r="17.2" gradientTransform="rotate(159.8 -1211.5 364.87)scale(1 .752)" gradientUnits="userSpaceOnUse"><stop offset=".5" style="stop-color:#6d4c41;stop-opacity:0"/><stop offset="1" style="stop-color:#6d4c41"/></radialGradient><path d="M13.9 47.1c-2.2-1.7-2-4.5-1-7 1.3-2.8 4.1-4.5 7-5.5 2-.7 3.9-.6 5.5-.5h1.9q.9 0 1.6-.6c1-1.1-.4-2.7-.4-2.7s5-1.6 5.5 3.8c1.8-.2 3.4 1 4.5 2.4a5 5 0 0 1 .1 6.3s-1.4-3.5-6-.7c-1.5.9-3 2-4.6 2.2-1.5.1-2.2-.3-3.6.5-1.4 1-3 2.6-4.7 3.2-3.2 1.2-5.8-1.3-5.8-1.4" style="fill:url(#e)"/><radialGradient id="f" cx="-2459.9" cy="284.8" r="9.2" gradientTransform="rotate(136.8 -1194.6 613.98)scale(1 .643)" gradientUnits="userSpaceOnUse"><stop offset=".5" style="stop-color:#6d4c41;stop-opacity:0"/><stop offset="1" style="stop-color:#6d4c41"/></radialGradient><path d="M23.7 62c.4-1.5-.3-3.3.7-5.1q1.3 1.4 3.4 1.1c.3 0 2.2 4.8-3.3 7.8-2.9 1.6-5.2-.2-5.2-.2s3.5-.3 4.4-3.5" style="fill:url(#f)"/><radialGradient id="g" cx="147.8" cy="474.4" r="4.4" gradientTransform="rotate(-19.5 -1192.13 601.89)" gradientUnits="userSpaceOnUse"><stop offset=".3" style="stop-color:#80deea;stop-opacity:0"/><stop offset="1" style="stop-color:#80deea;stop-opacity:.8"/></radialGradient><circle cx="28.1" cy="34" r="3.9" style="fill:url(#g)"/><radialGradient id="h" cx="136.6" cy="482.3" r="4.4" gradientTransform="rotate(-19.5 -1192.13 601.89)" gradientUnits="userSpaceOnUse"><stop offset=".3" style="stop-color:#80deea;stop-opacity:0"/><stop offset="1" style="stop-color:#80deea;stop-opacity:.8"/></radialGradient><circle cx="20.1" cy="45.2" r="3.9" style="fill:url(#h)"/><radialGradient id="i" cx="5.5" cy="41.9" r="7.3" gradientTransform="rotate(-45.8 10.91 32.6)" gradientUnits="userSpaceOnUse"><stop offset=".3" style="stop-color:#80deea;stop-opacity:0"/><stop offset="1" style="stop-color:#80deea;stop-opacity:.8"/></radialGradient><circle cx="13.6" cy="43" r="6.6" style="fill:url(#i)"/><radialGradient id="j" cx="14.8" cy="44.2" r="7.5" gradientTransform="rotate(-45.8 10.91 32.6)" gradientUnits="userSpaceOnUse"><stop offset=".3" style="stop-color:#80deea;stop-opacity:0"/><stop offset="1" style="stop-color:#80deea;stop-opacity:.8"/></radialGradient><circle cx="21.7" cy="38" r="6.8" style="fill:url(#j)"/><path d="M10.8 45.1v.8l-.5.5c-2 .4-3-4.3-1.8-5.4.8-.7 2-.2 2 .8q0 1.7.3 3.3m9.4-9.9q-1 1-1.3 2.3l-.3 1q-.3.4-.8.3-.4 0-.6-.6c-.7-1.7.8-3.5 2-4.7.4-.3 1-.8 1.4-.4.8.7 0 1.5-.4 2m-8-1.1q-.7.5-1 1.3-.2.3-.6.5-.3 0-.5-.3L10 35c0-1.4 1-2.5 2.2-3q.8-.4 1.2.5c.2.8-.8 1.1-1.2 1.5" style="opacity:.8;fill:#fff"/><path d="M117.3 17.6c.2-5-2-9.7-6-11.9a11 11 0 0 0-15.6 4l-1.5 2.6 3.4 2 1.3-2.4c2.2-3.8 6.6-5 10.4-2.7 2.5 1.4 4.2 4.3 4 8.3V79h4z" style="fill:#bdbdbd"/><radialGradient id="k" cx="54.1" cy="77.2" r="5.6" gradientTransform="rotate(5.3 104.17 197.79)scale(.992)" gradientUnits="userSpaceOnUse"><stop offset=".2" style="stop-color:#80deea;stop-opacity:0"/><stop offset="1" style="stop-color:#80deea;stop-opacity:.8"/></radialGradient><circle cx="65" cy="72.3" r="5" style="fill:url(#k)"/><radialGradient id="l" cx="231.9" cy="464.2" r="6.3" gradientTransform="rotate(31.6 855.56 59.23)scale(.992)" gradientUnits="userSpaceOnUse"><stop offset=".3" style="stop-color:#80deea;stop-opacity:0"/><stop offset="1" style="stop-color:#80deea;stop-opacity:.8"/></radialGradient><circle cx="112.5" cy="73.5" r="5.7" style="fill:url(#l)"/><radialGradient id="m" cx="64.4" cy="77.8" r="8.8" gradientTransform="rotate(5.3 104.17 197.79)scale(.992)" gradientUnits="userSpaceOnUse"><stop offset=".3" style="stop-color:#80deea;stop-opacity:0"/><stop offset="1" style="stop-color:#80deea;stop-opacity:.8"/></radialGradient><circle cx="75.1" cy="73.3" r="7.9" style="fill:url(#m)"/><radialGradient id="n" cx="76.1" cy="73" r="10.6" gradientTransform="rotate(5.3 104.17 197.79)scale(.992)" gradientUnits="userSpaceOnUse"><stop offset=".3" style="stop-color:#80deea;stop-opacity:0"/><stop offset="1" style="stop-color:#80deea;stop-opacity:.8"/></radialGradient><circle cx="87" cy="70.1" r="9.5" style="fill:url(#n)"/><radialGradient id="o" cx="90.8" cy="76.5" r="10.9" gradientTransform="rotate(5.3 104.17 197.79)scale(.992)" gradientUnits="userSpaceOnUse"><stop offset=".3" style="stop-color:#80deea;stop-opacity:0"/><stop offset="1" style="stop-color:#80deea;stop-opacity:.8"/></radialGradient><circle cx="101.1" cy="74.9" r="9.7" style="fill:url(#o)"/><radialGradient id="p" cx="195.8" cy="343.3" r="9.6" gradientTransform="rotate(30.4 668.32 24.74)scale(.992 1)" gradientUnits="userSpaceOnUse"><stop offset=".4" style="stop-color:#80deea;stop-opacity:0"/><stop offset="1" style="stop-color:#80deea;stop-opacity:.8"/></radialGradient><circle cx="97.9" cy="59.7" r="8.1" style="fill:url(#p)"/><path d="M100.5 9.9a4 4 0 0 0-3.4-2.2q-1 0-1.7 1.4-.7 1.7.7 2.6l1.6 1q1.6.7 2.6-.7c.5-1 .6-1.4.2-2.1" style="fill:#78909c"/><path d="M98 10.6c-4.3-2.5-10.1-.4-12.6 3.9 0 0 2.5 3.3 7.2 5.9s8.5 3.1 8.5 3.1c2.4-4.3 1.3-10.4-3-12.9" style="fill:#bdbdbd"/><path d="M99 25.6s-3.6-.6-8.1-3.4-6.7-5.2-6.7-5.2q-1.3-1.1-.7-2.5c.5-1 2-1.4 2.6-.7a30 30 0 0 0 14.9 8.5c1.1.3 1.2 1.7.6 2.6s-1.9 1-2.5.7" style="fill:#78909c"/><path d="M89 13.2c.4-1.5 2.8-2.6 4.4-2.8q2.5-.2 2.5 1.1c0 .8-.9 1-1.6 1-2.3 0-3.2.5-3.6.8-1.7 1-1.8 0-1.7-.1" style="fill:#dfecf5"/><radialGradient id="q" cx="71.1" cy="52.8" r="6.3" gradientTransform="rotate(5.3 104.17 197.79)scale(.992)" gradientUnits="userSpaceOnUse"><stop offset=".4" style="stop-color:#80deea;stop-opacity:0"/><stop offset="1" style="stop-color:#80deea;stop-opacity:.8"/></radialGradient><circle cx="83.3" cy="49" r="6" style="fill:url(#q)"/><path d="M79 48.2c.5 0 .9-.8 1.8-1.5s2-.9 2.7-1q.8.1 1.2-.5c.2-.2 0-1.4-1.7-1.2-2 .3-3.8 1.6-4.2 2.8q-.5 1.3.2 1.4" style="opacity:.8;fill:#fff"/><path d="M13 76c5.4 20.3 5 36.8 23.2 36.8l66.2.5c20.9-.3 14.6-27.5 19.5-37.2-16.7 1.7-31.8 2-50.2.8-13-.9-24.4-9.2-37-12-8.6-1.4-18.2-3.4-26.7-.6Q11.2 70 13 76" style="fill:#eee"/><path d="M114.2 82.3c-2.6 1.5-2.8 7.5-2.5 10.7.8 9 0 14.4-4.3 16.3l-.2-1c-.6-1.5-1.9-2.7-3.4-2.7-2.9 0-3.8 1-5.5 2.4-1.2.9-2.7 2-5 2.2l-48.6-.3c-2-.2-3.6-1.3-4.8-2.2-1.9-1.4-2.5-1.9-5-2.4-1.4-.3-2.8.7-3.3 2q-.5 1.2-.2 2C19.5 107.7 20.1 81.5 13.7 69c-2.1-4-5-3.6-4.9-3.2q2.7 4.8 4.3 10.1c5.3 20.4 4.9 36.9 23.1 36.9l66.2.5c15-.2 16.9-14.3 17.9-31.6 0-1.5-4.8-.1-6 .6" style="fill:#b7d5e5"/><path d="M10.4 69c5-1 10 0 11.6.3 15 3.2 24.8 9.5 42.5 13.4a142 142 0 0 0 55.7 0s.5-3.5 1-4.9c0 0-27.8 3.6-46 1.4-19.2-2.4-41.2-13-54-14.6-9.6-1.2-12.8.8-12.8.8z" style="fill:#69a1ba"/><path d="M33 105.3c-2.4-.3-2.8 2.8-2.8 2.8s-1.5-1.8-3.9-1.2c-1.5.4-2 2.2-1.3 2.7 1.1.8 5 2.8 3.8 5.5q-1 1.3-2.8 1.9a7 7 0 0 0-4 4.4q-.2.5.6 1.2c.8.7 2 .7 5.1.7s5.4-.6 5.8-1.1c1.2-1.6-1-4.7 1.4-7.8 1-1.2 1.8-1 4.2-1.6.6-.1.5-1.7-.3-2.7-.7-.7-2.6-1.1-4-.4 0 0 1.2-4-1.8-4.4" style="fill:#bdbdbd"/><path d="M39.6 110c-1.5-1.7-3.7-.8-4.1-.6.3-.2.1-1.7 0-2 0-1-1.1-2-2.4-2 2.5 1.2 1 4.7 1 4.7l1.8-.4c1.2-.3 2.7 0 2.8 1.6 0 .8-1.2 1-1.7 1.2-3.3 1-3.6 2.7-4 4s.6 3.4-.1 4.6c-.9 1.7-4.3 1.8-6.9 1.4-2-.3-4-1-4-1s-.1 1 .6 1.3c3.4 2 9.5 1.2 11.3.1q.5-.3.5-.7a7 7 0 0 0-.2-3 5 5 0 0 1 1-4.4c.8-1.1 1.7-1.3 4-1.6 1.6-.1 1.3-2.3.4-3.2" style="fill:#78909c"/><path d="M26.5 117.4c1.4-.5 3.1-.4 3 .6q-.5.9-1.7 1.2c-.8.2-2.5.3-2.6-.2q-.2-1.2 1.3-1.6" style="fill:#dfecf5"/><path d="M88 81.1c-7 0-21.7 0-39-6.7-10.3-4-27.3-11.2-41.5-8a3 3 0 0 1-1.2-5.8c16-3.6 34 4.4 45 8.3 16.8 6 30.5 6.2 37 6.2 11 0 21.6-.2 32.2-2.4a3 3 0 1 1 1.2 5.8 164 164 0 0 1-33.4 2.6z" style="fill:#b7d5e5"/><path d="M31.2 78q1.6 3.5 1.2 7.7c-.4 4.2-.7 5.2-.5 7.9.1 2.3 2.2 6.2 2.3 7.6q-.2 1.6-1.7 2-1.6-.1-2.7-1c-3.2-2.4-5-6.3-5.9-10.2-1.2-5.3-2.6-10.4-3.2-12.1-2-5 1.2-7.3 5-6.3q3.7 1.1 5.5 4.3" style="fill:#fff"/><path d="M105 105.3c2.4-.3 2.9 2.8 2.9 2.8s1.4-1.8 3.8-1.2c1.5.4 1.7 2.3 1.2 2.8-1.2 1-4.8 2.7-3.7 5.4q1 1.3 2.9 1.9a7 7 0 0 1 4 4.4q.2.5-.7 1.2c-.7.3-2 .7-5.1.7s-5.4-.6-5.8-1.1c-1.1-1.6 1-4.7-1.4-7.8-1-1.2-1.8-1-4.2-1.6-.6-.1-.5-1.7.3-2.7.7-.7 2.7-1.1 4-.4 0 0-1.2-4 1.8-4.4" style="fill:#bdbdbd"/><path d="M98.4 110c1.5-1.7 3.7-.8 4.1-.6-.3-.2-.1-1.7 0-2 .1-1 1.2-2 2.4-2-2.5 1.2-1 4.7-1 4.7l-1.7-.4c-1.2-.3-2.7 0-2.9 1.6 0 .8 1.2 1 1.7 1.2 3.4 1 3.6 2.7 4 4s-.6 3.4.1 4.6c.9 1.7 4.4 1.8 7 1.4 1.9-.3 4-1 4-1s0 1-.7 1.3c-3.4 2-9.5 1.2-11.3.1l-.5-.7a7 7 0 0 1 .2-3 5 5 0 0 0-.9-4.4c-1-1.1-1.7-1.3-4.1-1.6-1.6-.1-1.3-2.3-.4-3.2" style="fill:#78909c"/><path d="M107.8 117.4c-.8.6-1.6 2-1 2.8.3.3 1.2-.4 1.4-.6l1.6-1.3q.5-.3.4-.8c-.2-.7-1.7-.7-2.4-.2" style="fill:#dfecf5"/><path d="M82.1 68q-.4.4-1 .6-.5 0-1-.3C78.5 66 84 61.7 86 62.6c1.3.5 1.5 2.4.2 3q-2.2 1.1-4 2.5" style="opacity:.8;fill:#fff"/><path d="M93.6 59.2q-.8-.2-1-.9-.4-.8 0-1.7a5 5 0 0 1 2.9-2.8l1-.2q1 .2 1.4 1.2c.4 1.6-1.3 1.7-2.1 2.5-.7.5-1 1.7-2 1.8zm-80.2 3.5c-.4 1.3 1 1.5 5.8 1.5 5.7 0 9.7 1.8 9.2.6-.4-.9-4.5-3-7.9-3.4-2-.2-6.7-.4-7.1 1.3" style="fill:#fff"/></svg>