<svg xml:space="preserve" width="16" height="16" viewBox="0 0 128 128"><path d="M53 7.7S35 2.5 28.2 10s-7 16-7.7 21.4S23 48 25 53s5.3 13.4 5 19.5.7 21.5 1.3 25c1.3 8.1 7.4 22.8 13.8 24.5s8.3-1.3 8.3-7.7 2-42.5 13.4-41.2c11.4 1.4 10.7 14.8 11 21.5s3.4 28.4 9.1 27.7 12.7-15.7 13-28.4-3-18.4 0-28.1 7.8-19.1 7.8-29.2c0-7.8.4-20.5-7.4-26.8-7.1-5.6-12.1-4.2-15.7-4-9.1.5-14.1 7-31.5 2" style="fill:#e1e7ea"/><path d="M67.2 24c4.2 0 19.8-7.5 18-9.4-2.8-3-14.8 3.6-19.2 3.3-4.7-.3-9.5-2.2-14-2.7-1.6-.1-3.6.4-1.9 2.4a46 46 0 0 0 17 6.5" style="fill:#95cbde"/><path d="M50.2 24.2c2.2 1.5 4.5 3.4 5.2 6q.2.5 0 1.1-.1.5-.6.8a8 8 0 0 1-4.8 1.3 21 21 0 0 1-13.2-4.6c-2.3-2-7.6-9.6-1.6-10.3 4.9-.7 11 3.1 15 5.7M91 20.3c1-.3 2.4-.6 3.3 0q.7.6 1 1.3c.8 1.8.4 4-.6 5.7s-2.6 3-4.2 4.1q-3.6 2.6-8 3.6c-4.4 1-6 .2-8.6-1.2L73 33q-.4-1.2.8-2.2A50 50 0 0 1 91 20.3" style="fill:#fff"/></svg>