<svg xml:space="preserve" width="16" height="16" viewBox="0 0 128 128"><path d="M116 4H12a8 8 0 0 0-8 8v104a8 8 0 0 0 8 8h104a8 8 0 0 0 8-8V12a8 8 0 0 0-8-8" style="fill:#bdbdbd"/><path d="M109.7 4H11.5A7.6 7.6 0 0 0 4 11.5v97.9c0 4.1 3.3 7.5 7.5 7.5h98.1c4.1 0 7.5-3.3 7.5-7.5V11.5c0-4-3.1-7.4-7.2-7.5z" style="fill:#e0e0e0"/><path d="M39.7 12.9c0-2.3-1.6-3-10.8-2.7-7.7.3-11.5 1.2-13.8 4-1.9 2.3-2.3 5.6-2.6 8.4-.2 2.2-2.2 14.9 3.5 11.2q1-.6 1.6-1.8c1.2-2.1 1.9-3.5 3.3-5.6 5.3-8.6 18.8-10.5 18.8-13.5" style="fill:#fff"/><path d="M42.6 56.7h9.2c10.6 0 17.3 4.7 17.3 14v25a7 7 0 0 1-7 7H32.3a7 7 0 0 1-7-7v-25c0-9.3 6.8-14 17.4-14"/><circle cx="47.2" cy="37.9" r="15.2"/><path d="M104.2 102.7c1 0 1.8-1 1.5-1.9-1.4-5-7-9-13.7-9s-12.3 4-13.6 9c-.3 1 .5 2 1.5 2z"/><circle cx="92" cy="76.8" r="12.3"/></svg>