<svg xml:space="preserve" width="16" height="16" viewBox="0 0 128 128"><path d="M122.9 34s-16.3-14-26-18.5a69 69 0 0 0-17.2-4.8S75 13.2 64 13.2s-15.7-2.5-15.7-2.5c-.6 0-10.5 1.6-17.2 4.8C21.4 20 5 34 5 34q-.9.8-.6 1.9c1 3.3 4.6 13.4 14.8 21.3q1 .7 2.1 0c2.5-2.2 10.4-7 10.4-7l-.7 61q0 1.1 1 1.8c2.9 1.5 13 5 32 5s29-3.5 31.9-5q1-.7 1-1.9l-.8-61s7.9 5 10.4 7q1 .8 2.1 0A44 44 0 0 0 123.5 36q.3-1.1-.6-1.9" style="fill:#b7e4ea"/><path d="M47.5 12.4s2.5 13.4 16 13.4c16.8 0 17.9-14 17.9-14s-9.9 3-17.3 3-16.6-2.4-16.6-2.4" style="fill:#75c6d3"/><path d="M63.6 16.7c-5 0-10.1-1-13.5-1.7l-2-4.9s8.2 2.3 15.6 2.3c7.3 0 16.2-2.3 16.3-2.3l-1.6 4.7c-3.5.8-9.5 2-14.8 2" style="fill:#0288d1"/><path d="M51.7 11q-3.6-.7-3.7-.9l2.2 4.9 2.1.5a10 10 0 0 1-.6-4.5M75 15.5l3.3-.7 1.7-4.7-3.3.8q-.5 2.4-1.7 4.6" style="fill:#01579b"/><path d="M63.5 28.2c-12 0-18.3-9.9-19.9-16.3 0 0-.2-.6.5-.8.5-.2 2.6-.9 3.5-1q.5-.2.7.4c1 2.5 5 12.8 16 12.8S79 13.2 79.7 10.5q.1-.5.7-.5c1 .2 3 1 3.5 1.2q.7.4.5.6c-1 6.3-6 16.4-21 16.4m57.1 3.8h-.3c-.3 1.3-1.8 6.5-6.3 13a65 65 0 0 1-9.1 10.8l1.8 1.4q.6.4 1 .4.6 0 1.1-.3a44 44 0 0 0 14.8-21.4q.3-.6-.2-1.5c-.3-.5-2.1-2-2.8-2.5M7.5 32q.2-.2.3 0c.3 1.3 1.8 6.5 6.3 13a65 65 0 0 0 9.1 10.8l-1.8 1.4q-.6.4-1 .4-.6 0-1.1-.3A44 44 0 0 1 4.5 35.9q-.2-.6.1-1.5c.4-.5 2.2-2 2.9-2.5" style="fill:#29b6f6"/></svg>