<svg xml:space="preserve" width="16" height="16" viewBox="0 0 128 128"><radialGradient id="a" cx="63.5" cy="56.1" r="68.7" gradientUnits="userSpaceOnUse"><stop offset=".3" style="stop-color:#6092ab"/><stop offset=".5" style="stop-color:#5989a1"/><stop offset=".7" style="stop-color:#457287"/><stop offset=".8" style="stop-color:#3d687d"/></radialGradient><circle cx="64" cy="64" r="60" style="fill:url(#a)"/><radialGradient id="b" cx="63.7" cy="50.2" r="85.6" gradientUnits="userSpaceOnUse"><stop offset=".8" style="stop-color:#b2ebf2;stop-opacity:0"/><stop offset="1" style="stop-color:#e0f7fa"/></radialGradient><circle cx="64" cy="64" r="60" style="fill:url(#b)"/><path d="M85.5 59.8c1.5 1.3 4.2 1.4 6.4.5q4-1.7 4-5.7c0-3.4-2.9-7-8.5-7.4-9.3-.6-12.8 7.7-13 8-.1.7.2 1.6 2 .1 5.7-4.4 7.7-3.7 7.7-3.7s-3.3 4.4 1.4 8.2m-42.2 0c1.5 1.3 4.1 1.4 6.4.5q3.8-1.7 3.9-5.7c0-3.4-2.8-7-8.4-7.4-9.3-.6-12.8 7.7-13 8-.2.7.1 1.6 2 .1 5.6-4.4 7.7-3.7 7.7-3.7s-3.3 4.4 1.4 8.2M80 78q-1.2-.5-2 .1c-1.6 1.4-8 3.9-14 4-6-.2-12.4-2.6-14-4q-.9-.7-2-.1-1.2.9-.4 2.1c2 2.6 7.5 6.5 16.4 6.6 8.9-.1 14.3-4 16.4-6.6q.8-1.2-.4-2" style="fill:#212121"/><path d="M61.8 93.2c-.7.2-1.6.8-1.4 1.5q0 .4.4.6 1 .7 2 1 3.3.8 6.3-.8c1.1-.6 4.6-3.2 3.8-4.8-.6-1.4-3 .5-4 .9-2.2 1-4.7 1-7.1 1.6m-3.1-20.9c-1.5-1.7-.1-2.5 1.4-2 2 .6 5.2.3 6-1.5 1.7-3.5-.3-5.4-2.8-11.4-2.5-6.2.7-13 4.4-13.4 3-.3 2 1.3 1 2-1.8 1.2-3.7 5.5-.8 10.4 5 8.1 5.4 12 2.4 16a7.7 7.7 0 0 1-11.6-.1" style="fill:#274c5e"/><radialGradient id="c" cx="91.9" cy="62.8" r="16.4" gradientTransform="rotate(-23 122.8 56.54)scale(1 .8)" gradientUnits="userSpaceOnUse"><stop offset="0" style="stop-color:#fff"/><stop offset="1" style="stop-color:#fff9b9;stop-opacity:0"/></radialGradient><path d="M82.6 73c1.5 3.7 7.6 4.7 13.6 2.2 5.9-2.4 9.5-7.5 8-11.2-1.6-3.8-7.7-4.8-13.7-2.3-6 2.4-9.5 7.5-8 11.2" style="opacity:.3;fill:url(#c)"/><radialGradient id="d" cx="-2357.1" cy="63.1" r="16.1" gradientTransform="rotate(23 1168.04 -5620.82)scale(-1 .8)" gradientUnits="userSpaceOnUse"><stop offset="0" style="stop-color:#fff"/><stop offset="1" style="stop-color:#fff9b9;stop-opacity:0"/></radialGradient><path d="M49.4 73c-1.5 3.7-7.6 4.7-13.5 2.2-6-2.4-9.6-7.5-8-11.2 1.5-3.8 7.6-4.8 13.6-2.3 6 2.4 9.5 7.5 8 11.2" style="opacity:.3;fill:url(#d)"/></svg>