<svg xml:space="preserve" width="16" height="16" viewBox="0 0 128 128"><path d="M4.3 26.3s-3-4.1-3-6.6C1 17.5 4 18.1 7.1 18.1l77.8-.2c2 0 3.6-.4 3 3-.6 2.6-2.3 5.4-2.3 5.4l-42 2z" style="fill:#e4c5b1"/><path d="M91.4 55.5v5.2l5.3-.8v-4.4H114v4.1l5.4.2v-4.4h2.4c1.3 0 1.6-1.2 1.6-1.7s-.3-1.6-2.2-1.5c-1.9 0-15.9-1.4-15.9-1.4L89 52.3s-1.3 0-1.3 1.5q.1 1.9 2 1.7z" style="fill:#858687"/><path d="M120.6 30.8H90.1q-1 0-1 1.6v19.9h32.5l.1-20.2q0-1.3-1-1.3" style="fill:#e0dfde"/><path d="M92.3 33.5V50h26.2l.2-16.4z" style="fill:#ffa627"/><path d="M92.2 41.6s4.6-4.5 9-4.2c4.2.4 3.5 5 6 4.8 2.7 0 11.5-6.9 11.5-6.9l-.1 4.4s-7.6 6.6-12.1 6.5c-4.5-.2-3.5-4.4-6.3-4.6-3.1-.2-8 5.1-8 5.1z" style="fill:#eb2901"/><path d="M89.5 123.7H122q1.6-.1 1.8-2.5v-55l-17.7-2.8-17.5 3-1.7 41.2z" style="fill:#c4aa9d"/><path d="M88.7 66.4H124s1.4-4.3 1.6-5.5c.3-1 .8-2.3-1.5-2.4H89.4z" style="fill:#e4c5b1"/><path d="M89.4 58.5v65.2H6q-1.9 0-1.7-3c.2-3 0-24.2 0-24.2V26.3h81.4v32.3z" style="fill:#987869"/><path d="M4.3 30h81.5v66.5H4.3S4 30 4.3 30" style="fill:#c6a99d"/><path d="m19 123.8.2-22.2c0-.2 12.4-.1 25-.1h26.2l-.1 22.2z" style="fill:#765f57"/><path d="M7.8 106.5h6.9v14.8H7.8z" style="fill:#464b4e"/><path d="M9.2 107.8h4.4V120H9.2z" style="fill:#a7d0d6"/><path d="M75.1 106.9h6.8v14.3h-6.8z" style="fill:#464b4e"/><path d="M76.4 108.2h4.1v11.6h-4.1z" style="fill:#a7d0d6"/><path d="M75.2 100.2h6.6L84 108q.3 1.1-1.4 1.4h-9.3q-1-.3-.5-1.9zM8 99.9h6.8l2 7c.3 1.2-.4 2-1.2 2h-9c-.6 0-1.3-1-.8-2.5z" style="fill:#385661"/><path d="M36.3 123.7H23V108h13.2zm15.8 0H38.7v-15.6h13.4zm14.7 0H54.4v-15.5h12.4z" style="fill:#464b4e"/><path d="M65.5 123.7h-9.7v-14.2h9.7zm-14.6 0H39.8v-14.1h11zm-16.1 0H24.4v-14.2h10.4z" style="fill:#a8cfd6"/><path d="M8.2 34.6h7.5v17.7H8.2zm0 22.5h7.4v16.2H8.2zm-.3 20.5h7.7v15.9H7.9zm19.5-43.4h10.9v59.3H27.4zm13.2.1h11v59.2h-11zm13.8-.2h10.3v59.1H54.4z" style="fill:#464b4e"/><path d="M29.4 36.7h7.2v54.9h-7.2zm13.1.2h7.3v54.8h-7.3zM10 36.5h3.9v13.7H10zM9.8 59h4v12.2h-4zm.1 20.8h4v11.7h-4zm46.5-42.9h6.5v54.5h-6.5z" style="fill:#a8cfd6"/><path d="M74.9 34.6h7.5v17.7h-7.5zM74.8 57h7.4v16.2h-7.4zm-.2 20.6h7.7v15.9h-7.7z" style="fill:#464b4e"/><path d="M76.7 36.5h3.9v13.7h-3.9zm-.2 22.4h4v12.2h-4zm.1 20.9h4v11.7h-4z" style="fill:#a8cfd6"/><path d="M93.9 105.3h25.7v16.1H93.9z" style="fill:#464b4e"/><path d="M95.4 106.3h22.7V120H95.4z" style="fill:#a7d0d6"/><path d="m93.9 100.5-2.2 7.7q-.3.9 1 1h28.5q1 0 .5-1.8l-2.1-7z" style="fill:#385661"/><path d="M95.5 84.5h9v9.7h-9zm-.1-15h9v9.7h-9z" style="fill:#464b4e"/><path d="M96.9 85.9h6v6.8h-6zm0-14.9h6v6.6h-6z" style="fill:#a8cfd6"/><path d="M108.8 84.4h9v9.7h-9zm-.1-14.9h9v9.7h-9z" style="fill:#464b4e"/><path d="M110.2 85.8h6v6.7h-6zm0-14.9h6v6.6h-6z" style="fill:#a8cfd6"/></svg>