<svg xml:space="preserve" width="16" height="16" viewBox="0 0 128 128"><path d="m68.9 99.8-59-11.2s3.6 14.8 4.8 16.8c1.3 2 8.7 7.4 15.9 10s62 .9 66.6-1c4.6-1.7 13-5.4 14.8-7.8 1.5-2 5.9-19 5.9-19z" style="fill:#878787"/><path d="m16.5 96.1 4 14.2a47 47 0 0 0 17 7.4s6.5-10.3 6.3-11-8.1-2.8-8.1-2.8-6.6-1.8-10.2-3.2-9-4.6-9-4.6" style="fill:#e0e0e0"/><path d="M96.5 103s4.6-1.4 7-2.3c2.8-1 6-2.8 6-2.8l-3.3 12.6s-2.8 1.6-5.4 2.7l-6.5 2.5-2.5-5.9z" style="fill:#ababab"/><path d="M37.5 117.7s13.1 3 28.8 2.5c14.3-.4 28-4.5 28-4.5l2.2-12.7s-8.9 3.4-33.6 4c-15 .4-27.2-3.1-27.2-3.1z" style="fill:#c8c8c8"/><radialGradient id="a" cx="65.7" cy="51.9" r="43.3" gradientTransform="matrix(0 1 -2.179 0 178.83 -13.82)" gradientUnits="userSpaceOnUse"><stop offset=".4" style="stop-color:#fac470"/><stop offset=".8" style="stop-color:#ed9c2c"/></radialGradient><path d="M8.7 72.6c0 1.2 1.3 11 1.3 11s2.9 4 4.4 4.9c1.5.8 23.7 8.1 24.6 8.4s34.5 1.5 37 1.5 29.1-6.3 29.1-6.3l15.2-7.4.7-7c0-.6-1.7-8.2-2.3-8.7-.9-.8-5.6-3-5.6-3s-2.4-3-6.7-5.5A121 121 0 0 0 83 51.3c-7.1-1.8-28.8-2.8-40.7.1q-18 4.3-23.8 10c-5.8 5.8-5.2 6.6-5.2 6.6z" style="fill:url(#a)"/><path d="M54 53.3c.1 1-2 .8-7 3-3.6 1.7-7.8 6.2-8.9 3.6-1.2-2.7 2.7-5.2 8-6.4 4-.9 7.6-1 7.8-.2m4.9 4.2c-.8-.4-2.8 2-4.7 5-2 3.1-4.5 7.2-1.8 8.1 3 1.1 4-4 4.6-6 1.2-3.8 2.6-6.8 2-7.1M69 57c-.5.2.4 2.6 1.4 5.5s2 8 5.1 7c3.2-1.1-1.2-7-2-8.2-1.3-1.7-3.7-4.7-4.5-4.4m5.3-3c0 1 4.3 2 8.5 4.3 3.4 1.8 7.3 4.3 8 2.2s-1.1-3.1-6.3-5-10.2-2.6-10.2-1.5" style="fill:#ce701d"/><path d="M71 7.8c-1.4.8 0 4.2-1.4 7.2s-5 5.7-7.8 7.6c-3 2-11.6 7-10.7 16.4.6 8 4 12 7 15 2.8 2.8 6.6 5.5 8.3 5.3s-.1-6.4 2.9-10.8 8.2-8 11.8-11 7.7-10.2 3.1-17.8-12-12.6-13.2-12" style="opacity:.6;fill:#eaeaea"/><path d="M79.1 94.4s3.7-3.9 9.6-4c5.8 0 8.2 1.7 8.2 1.7s2.5-4.4 6.9-5.6c5.1-1.3 8.2 1.1 8.5.7.2-.5 1.2-5.9 3-8.4 2-2.8 3.7-2.8 3.7-2.8s-.5-3-2.4-5.8c-1.6-2.3-3.5-4.3-3.5-4.3s4.2-.7 7.3 3c2.3 2.6 1.8 7.4 1.8 7.4s3 2 1.2 6.5-5.4 7.9-11 11.3a86 86 0 0 1-33.7 9.5c-15.6 1-33.6 1.5-50.9-4.8C15.4 94.2 5.3 87 4 80.2A10.4 10.4 0 0 1 9.1 69c1.6-1 4.2-1 4.2-1s-1.3 1.8-1.8 3.5l-.8 3.1s2 2.4 2.5 4 .5 5.6.5 5.6 2.4-2.5 6.3-1c5.2 2.1 11 9.6 11 9.6s1.7-3.4 8.2-2.9 15.4 7 15.4 7 5.2-5.6 13.4-5.4c7.4.2 11 2.9 11 2.9" style="fill:#e08013"/><path d="M119.6 78.2c-1-.5-2.2.6-3.2 2-1.2 1.8-1.5 4.2-.8 4.5 1.1.4 2.2-2 3.3-3.4.7-.9 1.8-2.3.7-3m-12.4 10.6c.6 1-1.6 1.9-2.4 3-.9 1.2-.8 2.8-1.6 3-1.7.4-3.3-2.3-3.2-3.3s2.6-2.5 3.4-2.8 3.2-1 3.8 0m-17.7 4.3c.3.9-2.4 3.3-3.5 4.4-1 1.2-2.1 3.4-3.4 3.2-1.5-.2-2-3.2-1.2-4.9s2.1-3.2 4.1-3.6c1.6-.3 3.6 0 4 1m-32 9.1c1.9 1.8 4.8-2.2 5.6-3.2 2.3-3 5-4 5-4.9 0-1.3-4-1.4-7 .2-2.6 1.4-5.9 5.8-3.6 7.9M40 92.6c0 1.2-1.8 1.7-3.1 3.3-1 1.1-2 4.4-4.3 3.3-2.2-1-1.2-4.4.4-6 2.1-2 7.1-2 7-.6M15.6 91c1.2.7 1.3-2.2 2.2-3.3 1-1.2 2.4-1.2 2.4-2.6s-3.2-1.7-4.5-.8c-2.3 1.5-1.7 5.8-.1 6.7m-7.8-7.8c1.5.2 1-2.7 1.7-3.9.8-1.2 2-1.6 1.2-3-.8-1.5-3.6-1.2-4.5 1.2-.6 1.8-.7 5.2 1.5 5.7" style="fill:#ec9c2a"/></svg>