<svg xml:space="preserve" width="16" height="16" viewBox="0 0 128 128"><path d="M88 41.6s31.6-5.4 33.4-3 2.3 9.6 1.3 13.6-4.7 10.4-15.4 13.3c-9 2.5-12 2.5-16.6 5.3C87 73 81.6 89 80.7 91.2s-7 11.1-20 9.3C48.2 98.7 40.4 86.8 43 75s45-33.5 45-33.5" style="fill:#a92813"/><path d="M65.1 70.8s-17.6.4-23-5.4-11.3-18.6-12.9-28.9-6.6-16.3-9-17.8-4.8-2-5.1-.5c-.3 1.6 4 6.8 4.8 9.2 2 6 1 20.1 2.6 26.6s3 8.9 6.7 13.2c2.8 3.3 7.2 6.4 7.2 6.4s-17 4-21.8-1-4.2-9.3-3.8-11.4 3.8-7.9 2.8-8.5-7.2 4.3-8 10.6 1.2 11.6 4.8 15.5c4.6 5 13.3 5.9 18.4 5.4s10.1-2 10.1-2 0 20.7-10 20.5c-7.4-.1-8.3-2.5-9-3.8s-1.4-2.3-1 1.7c.2 2.7 3.4 11 13.2 8.8 8.3-1.8 13.4-9.4 15.1-11.8 2-2.5 6.2-8.4 6.2-8.4s-1.6 11.4-1.3 19.5c.2 3.4 1 11.3 7.3 14s14-.7 15.5-6c1.4-5.4-1.5-8.4-1.9-8.8s-2.4 6-2.4 6-5 3.4-7 1 .4-21 .7-24.9c.3-4 4.3-.1 5.7 1.9s3.7 6.8 7.2 10.2c5.8 5.7 12 8.1 20.8 7.5 9.3-.7 15-4.4 18.1-9 3.1-4.7 3.8-9.3 2.8-10.1s-7.7 7.3-9.2 8.4-15.4 0-17.4 0-2.4-3.5-2.4-3.5 8-2.1 10.8-4.2S111.3 84.6 112 72c.4-9.7 0-35.8 1-40s4.7-7.8 3.8-9.2-4.6 1-5.1 1.3c-.6.5-6.5 3.3-6.6 8.4s-1.9 41.2-4.7 44.2-12 8.8-17 8.1-18.2-14-18.2-14" style="fill:#ffa8a8"/><path d="M118.5 90.3c-1.7-.1-3.1 2.1-4.8 3.4s-5 4.5-14 4.2C91 97.6 85 88 85 88s2.8.3 6-.5 8.4-3.6 11.6-9.5c3.9-7 3-24 3-31.7a30 30 0 0 1 4.9-17.8c2.2-3 5.8-4.8 6-5.8 0-1-4.6-.4-7.2 1.1-2.9 1.7-4.3 3.7-4.3 3.7s-6.8-.7-10.5-.7-10.7.5-16.8 2c-7.5 1.7-13.1 6-14.7 6.3 0 0-5-5-13.2.7-8.6 6-2.4 18.4-2.4 18.4s-.4 1.8-2.7 2.4c-3.2.9-8-2.3-9.8-8-1.5-4.7-1.2-11.3-2.6-18.9s-5.5-11-9.1-12.6c-3.7-1.7-8.3-.2-7.6.8s6 2.8 9.3 8.7c3.2 6 1.7 19.8 5.2 29.6s10 13.1 10 13.1-3.7 1.7-5.6 2.1a32 32 0 0 1-12.3.4c-5.1-1-8.6-4.8-9.1-9-.5-3.5 1.8-9.7.5-10s-5.8 6.2-6 11.6c0 5.3 4 11.5 10.2 14.5S37 79 37 79s-1 1.7-1.2 4.8-2 10-5.3 12c-2.3 1.4-4.3 1.8-5 0s2.9-2.5 2.8-4.4c-.2-1.8-3.1-2.2-6-.5-1.9 1.1-5 5.3-3 9.8s6.8 6.1 12.2 4.7c8-2.2 17.3-17 20.3-19.6 3-2.5 4.9-1.8 4.9-1.8s-1.4 13-1.1 22 6 14.6 12.2 13.6c7-1.1 7.5-6.9 6.4-10-1-2.7-4.8-3.7-5.8-3-1.4 1-.5 2.7 0 3.2 1.3 1 .3 3.6-1.7 3-2-.5-.1-7.1.7-10.4.8-3.2 2.8-10.8 5-11.4s4.6 3.4 6.7 5.8c3.6 4 9.4 7.2 17.6 7.4a26 26 0 0 0 19.3-8.3c1.5-1.6 4.2-5.4 2.5-5.6M93 61c3.3-2.2 6-3.3 6-3.3s.1 11.6-4.3 17.5c-3.6 5-7.2 3.8-7.2 3.8s3.7-2 4-5.8c.4-5.2-5-6.1-5-6.1S90.2 63 93 61m19-7s11.7-3.5 10.6-12-9.7-10.3-9.7-10.3-1.2 4.4-1 10.2z" style="fill:#ff615e"/><path d="M87.5 75.6c-1.3 2-3.5 2.5-5 1.5-1.7-1-2-3-.6-5 1.3-2.1 4-3 5.5-2s1.4 3.4.1 5.5M65.3 63.5c1.8-.1 1.2-1.9.9-4.3-.4-2.4-1.7-8.7 2-12.5 3.1-3.1 7-3 9.9-1.2 2.1 1.4 3.1 2 4 .9q.6-1.2-1.7-3.2c-1.8-1.6-8-4.7-13.7.1-5.5 4.5-4.6 13.3-4 16.3.8 3 1.5 4 2.6 3.9M47.7 35.1c-3.7 3.8-4.5 6.9-4 12 .3 4.6 2 8 3.7 7.4 1.4-.6.8-3.3.3-4.7s-1.3-8.2 2.3-11.9c3.6-3.6 7.6-3.1 9.5-2.7S62 36 63 35s-1-2.8-2.8-3.2-7.7-1.7-12.5 3.3" style="fill:#a52914"/><path d="M82 57.7c0 2.9-2.2 5.8-5 5.7-2.9-.2-4.2-2.9-4.2-5.8s1.7-5.3 4.6-5.5c3.4-.2 4.6 2.6 4.6 5.6" style="fill:#2c2b2d"/><ellipse cx="108.8" cy="47.5" rx="2.2" ry="2.1" style="fill:#fcd4b0" transform="rotate(-80.9 108.77 47.47)"/><ellipse cx="110.7" cy="33.5" rx="2.2" ry="1.9" style="fill:#fcd4b0" transform="rotate(-69.4 110.68 33.5)"/><ellipse cx="108.8" cy="63.1" rx="2.6" ry="2.7" style="fill:#fcd4b0"/><ellipse cx="106.3" cy="78.9" rx="2.8" ry="2.6" style="fill:#fcd4b0" transform="rotate(-66 106.31 78.94)"/><ellipse cx="110" cy="103.5" rx="2.1" ry="1.9" style="fill:#fcd4b0" transform="rotate(-23 110.02 103.45)"/><ellipse cx="97.6" cy="106.7" rx="2.4" ry="2.3" style="fill:#fcd4b0"/><ellipse cx="84.7" cy="104.3" rx="2.3" ry="2.4" style="fill:#fcd4b0"/><ellipse cx="60.9" cy="120.8" rx="2.5" ry="2.4" style="fill:#fcd4b0"/><ellipse cx="53.6" cy="106.8" rx="1.7" ry="2.3" style="fill:#fcd4b0" transform="rotate(-3.9 53.57 106.76)"/><ellipse cx="40.6" cy="102.6" rx="2.6" ry="2.3" style="fill:#fcd4b0" transform="rotate(-42.7 40.62 102.57)"/><ellipse cx="28.3" cy="108.3" rx="2.6" ry="2.4" style="fill:#fcd4b0"/><ellipse cx="25.7" cy="82.4" rx="2.3" ry="2.1" style="fill:#fcd4b0"/><ellipse cx="13.9" cy="79" rx="2.2" ry="2.3" style="fill:#fcd4b0" transform="rotate(-60 13.92 79.05)"/><ellipse cx="6.9" cy="70.3" rx="1.9" ry="2.2" style="fill:#fcd4b0" transform="rotate(-21 6.9 70.33)"/><ellipse cx="25.2" cy="51.5" rx="2.2" ry="2.3" style="fill:#fcd4b0"/><ellipse cx="24" cy="38.3" rx="2.2" ry="2.3" style="fill:#fcd4b0"/><ellipse cx="22.2" cy="26.6" rx="1.9" ry="2.1" style="fill:#fcd4b0" transform="rotate(-21.2 22.17 26.6)"/></svg>