<svg xml:space="preserve" width="16" height="16" viewBox="0 0 128 128"><linearGradient id="a" x1="55.3" x2="55.3" y1="43.1" y2="106.9" gradientUnits="userSpaceOnUse"><stop offset=".1" style="stop-color:#1483bc"/><stop offset=".2" style="stop-color:#1f8cc2"/><stop offset=".4" style="stop-color:#3ca4d3"/><stop offset=".6" style="stop-color:#62c2e8"/><stop offset="1" style="stop-color:#99d6ef"/></linearGradient><path d="m103 76-4.2-6.2-16.7-20.4s-15-6.6-25.3-6.2c-7 .2-20.7-2.3-35.6 10a40 40 0 0 0-13.6 20l11.1 6.1-8.4 5.6s9.7 17.9 36.6 21.3c31.9 4.2 43.6-12.4 50.7-21.7z" style="fill:url(#a)"/><path d="M57.7 27.6a57 57 0 0 0-9.3 8.6c-2.3 3-4.8 7.3-4.8 7.3s12.6-.4 21.8 2.7S85 56.1 93 65.5c6.2 7.3 7.8 10.2 7.9 11.5 0 1.3-5 7.8-10.7 13.4A63 63 0 0 1 66 106.1s10.2 1.7 15.2 1.8q8.4.2 9.1-1.6c.4-1.3-5.8-6-5.8-6s6.6-5.4 11.3-10.9c1.9-2.2 6.7-8.4 6.7-8.4s5.2 5.4 8.2 7.9c3 2.6 10.4 8.2 11.5 7.7 1.3-.5-1.5-9-3.4-12.3s-6.7-8-6.7-8 6.2-4.7 8.4-10c2.3-5.4 4-12.4 2.6-13-1.4-.7-10.7 8.8-12.6 10.7s-7 8-7 8l-5.4-5.7-4.3-5.4s-7-14.3-19.6-24.3c-8.7-7-16.5-9-16.5-9M49 77.8c0 1.7-.8 7.3 4.1 11A31 31 0 0 0 71 93.7c5-.3 7.2-1.6 7.2-1.6S73 85.6 64 81.2s-15-3.4-15-3.4m-43.7-5c-.9 1.7.3 2.4 3 3.7l7.2 3s-2.7 1-4.1 2-4 1.9-3.3 3.6q.7 1.7 4-.1c3.3-1.8 7.2-4.4 7.3-5.6s-3.2-3.2-5.8-4.6c-3.1-1.6-7.3-4-8.3-2" style="fill:#1b65a6"/><path d="M35.6 69c0 2-1.2 3.6-3.7 3.8-2.8.2-3.9-1.9-3.9-3.8s1.8-3.5 3.6-3.7c2.3-.2 4 1.8 4 3.7" style="fill:#262d33"/><path d="M46.3 70.9q-1.4.2-1.2 3.2c0 1.9.5 3.4.3 4.4a69 69 0 0 1-5 7.5c-.8 1-1.7 2.5-.7 3.4s2.4-.3 3.1-1c.8-.8 5.9-7.5 6-9 .2-1.5-.4-5.1-.5-5.9-.1-.7-.6-2.8-2-2.6m4.9 0c-.1 1.6 1.8 1.7 4 1.7l19.5.8c6.6.4 15.6 2 19.5 2.6 2.4.4 4.6 1 4.6-.6 0-1.5-2.4-1.8-4.9-2.3-2-.4-8.5-2.1-19.1-2.8-8-.5-18.7-.8-20-.7-1.2 0-3.5-.2-3.6 1.3" style="fill:#e0ecf3"/></svg>