<svg xml:space="preserve" width="16" height="16" viewBox="0 0 128 128"><path d="M79.7 62.7c7.3 15.6 30.4 33 32.4 42.8 1.3 6.7-3.3 12.2-9.2 11.2-6.6-1.2-6.9-10.7-4.3-18 6.5-18.4 8.8-29 6.5-39l-1-4.7" style="fill:none;stroke:#616161;stroke-width:6;stroke-miterlimit:10"/><path d="M80.8 56.1c-1.9 0-1.1-1.6-1.1-3.6V25.9c0-2-.8-3.6 1.1-3.6S86 23.4 86 26v26.6c0 2-3.2 3.6-5 3.6" style="fill:#82aec0"/><path d="M82.1 114V28a24 24 0 0 0-24-24H35a24 24 0 0 0-24 24v86a8 8 0 0 0-5.7 7.6v.3c0 1.1 1 2.1 2.1 2.1h78.3c1.1 0 2.1-1 2.1-2.1v-.3a8 8 0 0 0-5.7-7.7" style="fill:#f44336"/><path d="M65.7 56.6H26.9a3 3 0 0 1-3.2-3.2v-31c0-1.7 1.5-3.2 3.2-3.2h38.8c1.8 0 3.2 1.5 3.2 3.2v31c0 1.7-1.4 3.2-3.2 3.2" style="fill:#fff"/><path d="M32.2 29.6h29.3v7.6H32.2zm0 11.8h29.3V49H32.2z" style="fill:#9e9e9e"/><path d="M24.1 47c0 .5-.8.5-.8 0q-1.1-10.9-1.5-21.8c-.5-4 2.6-7.5 6.8-7.2q17.7-.6 35.4 0a6.4 6.4 0 0 1 6.8 7.2Q70.3 36 69.3 47c0 .6-.8.6-.9 0a399 399 0 0 1-1.6-23q-.5-1.6-2-1.6h-37q-1.6.1-2 1.6l-.1.4Q25.2 35.7 24 47" style="fill:#82aec0"/><ellipse cx="46.3" cy="84.1" rx="16.8" ry="17.9" style="fill:#f5f5f5"/><path d="M38.9 86.6c0-4.4 7.4-13 7.4-13s7.4 8.6 7.4 13-3.3 8-7.4 8-7.4-3.6-7.4-8" style="fill:#212121"/><path d="M11 110h71.1v3.9H11z" style="fill:#c62828"/><path d="M17.5 22c.8-5 5.1-11 14-11" style="fill:none;stroke:#ff7555;stroke-width:5;stroke-linecap:round;stroke-miterlimit:10"/><path d="M101.7 55.9h6v3.9h-6z" style="fill:#9e9e9e" transform="rotate(165.7 104.68 57.84)"/><path d="m104.8 29.9 6.7-12.2q.8-1.4 2-2.4c2.4-2 8-6.6 9-7.8 1.6-1.7-1.2-5.1-3.2-3.8-1.6 1.1-7.3 6.2-9.7 8.3q-1 .9-1.7 2.1l-7 12.8z" style="fill:#9e9e9e"/><path d="m100.7 37.7 9.4-2 3.3 11.9c.5 2-.4 2.7-2.3 3.1l-6.6 1.9m-5.2-15.3 8 18.4 7.6-2.2c3.2-.9 3.1-3.5 2.6-5.4l-3.9-14.4z" style="fill:#757575"/><path d="m103.8 21.1 4.9 2.8q1 .6.5 1.8l-1 2 2.3 1.6a9 9 0 0 1 3.2 4.8l.3 1-7 1.8a2.7 2.7 0 0 0-2 3.4l3.3 12.6c.3 1.4.4 2.5-1 2.8l-5.6 1.4c-1.3.3-2.6-.5-3-1.9L95 40c-1.7-6.9 1-9.2 1.5-10.3s3.5-4.3 3.5-4.3l2-3.7q.7-1.1 2-.6" style="fill:#f44336"/><path d="m106.8 29.3-4.8-2.4" style="fill:none;stroke:#ff7555;stroke-width:4;stroke-linecap:round;stroke-miterlimit:10"/></svg>