<svg xml:space="preserve" width="16" height="16" viewBox="0 0 128 128"><linearGradient id="a" x1="19.4" x2="33.7" y1="60.2" y2="29.5" gradientTransform="matrix(1 0 0 -1 0 128)" gradientUnits="userSpaceOnUse"><stop offset="0" style="stop-color:#646464"/><stop offset="1" style="stop-color:#444"/></linearGradient><path d="m48.8 116.4-12.3 5.4-25.7-58.2L23 58z" style="fill:url(#a)"/><path d="M15 69.1q.7-1.4 1.7-2.1a9 9 0 0 1 4.4-2l2.8.2q-.7 1.4-1.7 2.2a8 8 0 0 1-4.4 2q-1.3 0-2.8-.3m7 15.6q.6-1.4 1.6-2.2a9 9 0 0 1 4.4-2q1.2 0 2.7.3-.6 1.4-1.6 2.2a8 8 0 0 1-4.5 2q-1.2 0-2.7-.3m-4.6-10.4Q18 73 19 72.2a9 9 0 0 1 4.4-2q1.2-.1 2.8.2-.7 1.4-1.7 2.2a8 8 0 0 1-4.5 2q-1.2 0-2.7-.3M26.5 95q.7-1.3 1.7-2a9 9 0 0 1 4.4-2q1.2-.2 2.7.2-.6 1.4-1.6 2.2a8 8 0 0 1-4.5 2q-1.2 0-2.7-.3m-2.3-5.2q.7-1.4 1.7-2.2a9 9 0 0 1 4.4-2q1.2 0 2.7.3-.6 1.4-1.6 2.2a8 8 0 0 1-4.5 2q-1.2 0-2.7-.3m9.2 20.8q.6-1.5 1.7-2.2a9 9 0 0 1 4.4-2l2.7.2q-.6 1.5-1.7 2.2a9 9 0 0 1-4.4 2zM19.6 79.5q.7-1.4 1.7-2.2a9 9 0 0 1 4.4-2q1.2 0 2.7.3-.6 1.4-1.6 2.2a8 8 0 0 1-4.5 2q-1.2 0-2.7-.3m11.4 26q.7-1.5 1.8-2.2a9 9 0 0 1 4.4-2q1.2 0 2.7.3-.6 1.4-1.6 2.1a9 9 0 0 1-4.5 2zm-2.3-5.2q.6-1.4 1.7-2.2a9 9 0 0 1 4.4-2q1.2 0 2.7.3-.6 1.4-1.6 2.2a9 9 0 0 1-4.5 2q-1.2 0-2.7-.3" style="fill:#ffc107"/><path d="m23.3 59.9-11.4 5c-1.4.6-3 0-3.6-1.4s0-3 1.4-3.6l11.4-5c1.4-.6 3 0 3.6 1.4s0 3-1.4 3.6" style="fill:#ffa000"/><g style="opacity:.81"><linearGradient id="b" x1="35.8" x2="28" y1="24.4" y2="43.3" gradientTransform="matrix(1 0 0 -1 0 128)" gradientUnits="userSpaceOnUse"><stop offset="0" style="stop-color:#000"/><stop offset="1" style="stop-color:#000;stop-opacity:0"/></linearGradient><path d="m28.6 103.5-7-15.5 11.1-7.4 8.6 17.7z" style="fill:url(#b)"/></g><linearGradient id="c" x1="18.3" x2="16.9" y1="64" y2="67.3" gradientTransform="matrix(1 0 0 -1 0 128)" gradientUnits="userSpaceOnUse"><stop offset="0" style="stop-color:#000"/><stop offset="1" style="stop-color:#000;stop-opacity:0"/></linearGradient><path d="M9 64.4c.8 1 2.4.7 2.4.7l.5 1 12.3-5.4-.4-1s1.2-1 1.1-2.7z" style="fill:url(#c)"/><linearGradient id="d" x1="67.2" x2="67.2" y1="2.5" y2="15.5" gradientTransform="matrix(1 0 0 -1 0 128)" gradientUnits="userSpaceOnUse"><stop offset=".2" style="stop-color:#646464"/><stop offset="1" style="stop-color:#757575"/></linearGradient><path d="M14.5 120.9v3h105.4v-3c0-17-26.7-25.5-52.7-25.4-25.8 0-52.7 7.3-52.7 25.4" style="fill:url(#d)"/><path d="M21.9 101.3c0 9.4 14.7 22.5 14.7 22.5h59.5s13.7-13.5 13.7-24.5c0 0-15.2-4.4-42.6-3.8-30.6.6-45.3 5.8-45.3 5.8" style="fill:#212121"/><linearGradient id="e" x1="65.8" x2="65.8" y1="32.6" y2="4.2" gradientTransform="matrix(1 0 0 -1 0 128)" gradientUnits="userSpaceOnUse"><stop offset="0" style="stop-color:#646464"/><stop offset=".3" style="stop-color:#575757"/><stop offset=".8" style="stop-color:#353535"/><stop offset="1" style="stop-color:#212121"/></linearGradient><path d="M72 98.5c17.7 0 29.7 2 34.5 3.1a48 48 0 0 1-11.7 19.2h-57a48 48 0 0 1-12.6-17.3 179 179 0 0 1 46.8-5m0-3h-4.8c-30.6.6-45.3 5.8-45.3 5.8 0 9.4 14.7 22.5 14.7 22.5h59.5s13.7-13.5 13.7-24.5c0 0-13.5-3.9-37.8-3.9" style="fill:url(#e)"/><linearGradient id="f" x1="67.2" x2="67.2" y1="34.6" y2="12.4" gradientTransform="matrix(1 0 0 -1 0 128)" gradientUnits="userSpaceOnUse"><stop offset=".1" style="stop-color:#444"/><stop offset=".7" style="stop-color:#212121"/></linearGradient><path d="M52.5 97.5c0-3 .2-8.2 3.7-9.9 2.5-1.1 19-.5 21.6.8 3.3 1.6 4.2 6.3 4.2 9 0 5.1-6.6 20.2-14.8 20.2s-14.7-15-14.7-20.1" style="fill:url(#f)"/><path d="m53.4 90-.7 3.3s5.2 6.2 14.5 6.2c10.7 0 14.4-5.4 14.4-5.4l-1-3.1z" style="opacity:.61"/><path d="M76.9 123.9a66 66 0 0 0 16.3-27.2l-7.8-2q-1.7-.3-2.3 1.2c-2.9 9.4-12.7 20-21.6 28z"/><linearGradient id="g" x1="85.2" x2="74.2" y1="30.8" y2="13.7" gradientTransform="matrix(1 0 0 -1 0 128)" gradientUnits="userSpaceOnUse"><stop offset="0" style="stop-color:#646464"/><stop offset="1" style="stop-color:#444"/></linearGradient><path d="M74.8 123.9c7.7-8.3 15-18.3 17.2-28l-7.8-2.1q-1.7-.3-2.3 1.2c-3 9.7-13.5 20.7-22.7 28.9z" style="fill:url(#g)"/><path d="M52.6 95.7s11.9 17.7 26.3 27.7c0 0-8.1 1-8.3.5s-17.3-19.2-17.3-19.2z" style="opacity:.31"/><linearGradient id="h" x1="59.1" x2="42.8" y1="13.9" y2="37.3" gradientTransform="matrix(1 0 0 -1 0 128)" gradientUnits="userSpaceOnUse"><stop offset="0" style="stop-color:#646464"/><stop offset="1" style="stop-color:#9e9e9e"/></linearGradient><path d="M74.7 123.9c-8.9-8-18.8-18.7-22-28.2-.5-1.2-1.8-2-3-1.5l-7.8 2.6a63 63 0 0 0 16.7 27z" style="fill:url(#h)"/><path d="M67.2 9.4c-17.6 0-34 18.9-34 46 0 27 16.9 39.2 34 39.2s34-12.2 34-39.2-16.4-46-34-46" style="fill:#a56c43"/><ellipse cx="50.5" cy="57.8" rx="5" ry="5.2" style="fill:#42312c"/><ellipse cx="83.9" cy="57.8" rx="5" ry="5.2" style="fill:#42312c"/><path d="M58 48.7c-.9-1.3-3-3-7.3-3s-6.4 1.7-7.3 3q-.5.8 0 1.5t2 .4c.8-.3 2.5-1.2 5.3-1.2 2.9 0 4.6 1 5.5 1.2q1.3.3 1.9-.4t0-1.5m32.9 0c-1-1.3-3.1-3-7.3-3s-6.4 1.7-7.4 3q-.5.8 0 1.5t2 .4c1.5-.3 2.5-1.2 5.4-1.2 2.8 0 4.5 1 5.4 1.2q1.5.3 2-.4t-.1-1.5" style="fill:#42312c"/><path d="M67.2 8c-18.7 0-34 12.6-34 41.2 0 28.8 14.7 44.5 34 44.5s35.6-16.1 35.6-44.9c0-28.5-16.9-40.7-35.6-40.7m0 83.3c-12.6 0-29.3-6.5-29.3-30 0-23.4 14-22.8 29.3-22.8s29.3-.6 29.3 22.8-16.7 30-29.3 30" style="opacity:.17"/><linearGradient id="i" x1="67.2" x2="67.2" y1="56.9" y2="32.6" gradientTransform="matrix(1 0 0 -1 0 128)" gradientUnits="userSpaceOnUse"><stop offset=".1" style="stop-color:#444"/><stop offset=".7" style="stop-color:#212121"/></linearGradient><path d="M67.6 60.8c11.1 0 31 10.7 31 10.7-.5 10.3-13.9 22-30.3 21.8-27.6-.4-32.6-21-32.6-21s20.7-11.5 31.9-11.5" style="fill:url(#i)"/><path d="m98.6 72-3.2-2c-6-3-19.4-9-27.8-9-7.7 0-20.8 5.7-28.8 9.9-1.6 1-.6 1.1-2.2 2.1 5.3-1.8 20.4-8.7 30.8-8.7 10.2 0 25.6 6 31.2 7.7" style="opacity:.4;fill:#bdbdbd"/><linearGradient id="j" x1="67.2" x2="67.2" y1="123.5" y2="33.6" gradientTransform="matrix(1 0 0 -1 0 128)" gradientUnits="userSpaceOnUse"><stop offset=".1" style="stop-color:#444"/><stop offset=".7" style="stop-color:#212121"/></linearGradient><path d="M67.2 4C47.6 4 28.5 18.1 28.5 46.7c0 28.8 18.6 48.8 38.7 48.8s38.7-20 38.7-48.8C106 18.1 86.7 4 67.2 4m0 89.3c-13.2 0-30.6-12.6-30.6-36 0-23.5 14.7-22.8 30.6-22.8s30.6-.7 30.6 22.7c0 23.5-17.4 36-30.6 36" style="fill:url(#j)"/><linearGradient id="k" x1="36.8" x2="58.4" y1="85.4" y2="112.1" gradientTransform="matrix(1 0 0 -1 0 128)" gradientUnits="userSpaceOnUse"><stop offset="0" style="stop-color:#0d0c0c"/><stop offset="1" style="stop-color:#0d0c0c;stop-opacity:0"/></linearGradient><path d="M68.3 13.7s-14.5-4.5-27.6 9.7C28 37 32 63 32 63s-1.4-22.6 13.5-36.8c13-12.4 22.8-12.5 22.8-12.5" style="fill:url(#k)"/><linearGradient id="l" x1="95.3" x2="80.4" y1="85.6" y2="103.2" gradientTransform="matrix(1 0 0 -1 0 128)" gradientUnits="userSpaceOnUse"><stop offset="0" style="stop-color:#0d0c0c"/><stop offset="1" style="stop-color:#0d0c0c;stop-opacity:0"/></linearGradient><path d="M92.5 33.1c8.5 8.2 8.6 30 8.6 30s6.3-22-5.3-33.8C86.3 19.6 73 23.5 73 23.5s10.7 1 19.5 9.6" style="fill:url(#l)"/><g style="opacity:.38"><linearGradient id="m" x1="67.2" x2="67.2" y1="124" y2="32.5" gradientTransform="matrix(1 0 0 -1 0 128)" gradientUnits="userSpaceOnUse"><stop offset="0" style="stop-color:#bdbdbd"/><stop offset="1" style="stop-color:#646464"/></linearGradient><path d="M67.2 6c9.7 0 18.7 3.6 25.3 10 7.5 7.4 11.4 18 11.4 30.7 0 12.4-3.6 23.8-10.2 32.5 3.7-5.8 6-13.2 6-22q.2-16.1-9.6-21.4c-5.6-3-12.6-3.3-20.5-3.3h-4.8c-13.4 0-30.2 0-30.2 24.7 0 8.8 2.4 16.2 6 22a53 53 0 0 1-10.1-32.5c0-12.7 4-23.3 11.4-30.6A36 36 0 0 1 67.2 6m0-2C47.6 4 28.5 18.1 28.5 46.7c0 28.8 18.6 48.8 38.7 48.8s38.7-20 38.7-48.8C106 18.1 86.7 4 67.2 4m0 30.5h2.4c14.4 0 28.2.5 28.2 22.7 0 23.5-18 36-30.6 36s-30.6-12.5-30.6-36c0-22.2 13.8-22.8 28.2-22.8z" style="fill:url(#m)"/></g></svg>