<svg xml:space="preserve" width="16" height="16" viewBox="0 0 128 128"><path d="M47 39.4c-.4-13.2-2.6-15.8-14.4-23.5-5.6-3.6-6-7-7.5-7.3-.9-.3-1.7.4-1.7 1.2l1 42.3q-.1.9-1 .9a18 18 0 0 0-15 6C2 65.7.9 75 5.9 79.7c5 4.8 14.2 3.3 20.6-3.4q5.9-6.4 5.5-14l-.8-35q.2-1.1 1.3-1c2.4.8 9.3 3 11.4 14.5.4 2.2 3 2 3-1.4m78.1 7.3c-.8-13.2-3-15.8-15.1-23.1-5.7-3.4-6.3-6.8-7.7-7.1-.9-.2-1.7.4-1.6 1.3l2.3 42.1q-.1 1-1 1A18 18 0 0 0 87 67.4c-6.1 6.9-7 16.2-1.8 20.8s14.3 2.8 20.5-4q5.7-6.6 5-14.3l-1.8-35q.2-1 1.2-.9c2.5.7 9.4 2.7 12 14.2.4 2.1 3 1.9 2.8-1.6M77.5 68.5c.6-13.2-1.4-16-12.7-24.5-5.3-4-5.5-7.4-7-7.9q-1.4-.2-1.7 1.2l-1.9 42.2q-.1 1-1 .9a18 18 0 0 0-15.5 5c-6.8 6.2-8.5 15.3-3.9 20.4 4.7 5.1 14 4.3 20.8-2q6.3-6 6.5-13.6l1.6-35q.2-1.1 1.3-.7c2.4.8 9 3.5 10.4 15.2.3 2.1 3 2.2 3.1-1.2" style="fill:#546e7a"/></svg>