<svg xml:space="preserve" width="16" height="16" viewBox="0 0 128 128"><path d="M113.2 45.2c-.7-2.2-7-6.7-10-6.7 0 0-25.6-1.5-39.2-1.5s-39.2 1.5-39.2 1.5c-3 0-9.3 4.5-10 6.7-6.4 19.5-10.5 58.5-8 71.9 0 0 .5 4.5 4.7 5.3 0 0 20.2 1.6 52.5 1.6s52.5-1.6 52.5-1.6c3.8-.8 4.8-5.3 4.8-5.3 2.4-13.3-1.7-52.3-8-72" style="fill:#e6a467"/><path d="M64 43c5 0 35.8 1 46 1.2 2.7 0 3 .7 3.1.7-1-2.2-6.5-7-9.5-7.1 0 0-10-1.5-39.2-1.5s-39.2 1.5-39.2 1.5c-4.2.7-9.7 5.2-10.4 7.4 0 0 1-.6 4.6-.9 7.6-.6 23.7-1.2 44.6-1.2" style="fill:#784d30"/><path d="M107.7 51S91 49.7 64 49.7 20.3 51 20.3 51c-4.6 13.3-6 43.3-6 43.3 5.1-.2 19 3.8 19.7 22.6a321 321 0 0 0 60 0c.6-18.8 14.6-22.8 19.7-22.6 0 0-1.4-30-6-43.3m0 0S91 49.7 64 49.7 20.3 51 20.3 51c-4.6 13.3-6 43.3-6 43.3 5.1-.2 19 3.8 19.7 22.6a321 321 0 0 0 60 0c.6-18.8 14.6-22.8 19.7-22.6 0 0-1.4-30-6-43.3" style="fill:#a15d38"/><path d="M63.2 72.4 57 66.2a1 1 0 0 1 0-1.6l6.2-6.2a1 1 0 0 1 1.6 0l6.2 6.2q.8.9 0 1.6l-6.2 6.2a1 1 0 0 1-1.6 0" style="fill:#f6bc41"/><path d="M63.8 59.1s.9 1.6-.1 2.7c-.8 1-2.6 3-3.5 3.8-1 .8-2.7-.2-2.7-.2z" style="fill:#fff176"/><path d="m110.2 41.5-2.4-1.9c-37.7-1.6-72.1-.7-87.5.2l-2.5 1.8c14.3-.9 50.6-2 92.4-.1" style="fill:#3e2723"/><path d="M97.4 61c0-.7-.7-2.3-1.1-2.8-1-1-2.7-1.1-3.5-5.4C92.6 51.3 90.2 4 64 4S35.4 48.3 35.2 50c-1 7.1-1.8 6.6-3.3 7.6q-2 1.3-2.2 4.3L29 79c0 2 .8 2.6 3.2 3l8.2.3c2.5 0 2.7-2.3 2.7-3.2l.4-16.6c0-2.5-.8-3.7-1-4.2-1-1.6-2-2.5-.8-9.2 0-1 3.7-38.8 22.1-38.8S86.4 50 86.7 52.8c0 5-.4 4.8-1.4 5.5-1.9 1.2-1.2 3.6-1.2 3.6.1 8.1.9 19.4 1.3 19.3q.2 1.3 1.5 1.4h9.4c3.1 0 2.4-3 2.4-3-.2-10.3-1.3-18.7-1.3-18.7" style="fill:#e6a467"/><path d="M30.5 80.9c-1.2-1.1.2-17.5.2-18.7 0-.4 0-2.5 1.7-3.9 1.1-1 2.3-1.2 2.7-5.6s.6-9.2.6-9.2l-1.5 7.6c-1 4.6-1.1 4.5-2.8 5.7a6 6 0 0 0-2.3 5L28 79.3c0 2 1.1 2.5 1.3 2.9zm58.3.7c-.5 0-2.4.4-2.9-1.3-.2-.8-.6-12.5-.8-16.6-.2-3.5-.4-3.9 1.7-5.8 1.2-1 1-2.8.5-6.7-.8-5.1-1.9-7.5-1.9-7.5l.5 7c.2 3 .9 4.9-1.1 6.9-2 1.9-1.7 3.4-1.7 4.4 0 3.7.7 15.5.9 17.2 0 1.3-.2 3.2 2.2 4.4.6.3 1.9-2 2.6-2" style="fill:#ffc697"/><path d="M93.5 43.8h-1.7l.8 6.3 2.2.1q-.3-2.4-1.3-6.4" style="fill:#a15d38"/><path d="M95.3 58.5c1.4 1.4 1.4 3.2 1.5 5l1.3 15.8c0 .7-.2 2.3-2 2.3h-9.2l-.4-.3-1.2 1.8q.7.6 1.6.6h10.3c2.9 0 2.8-2.9 2.8-2.9-.2-9.9-1.4-18.7-1.5-19.5q.1-2.2-1.9-4.5c-1.8-2-1.8-6.6-1.8-6.6h-2.2l.2 2.6c.3 3 1 4.3 2.5 5.7m-49.8-42" style="fill:#3e2723"/><path d="M44.3 43.3h-1.8q-1 3.8-1.4 6.6h2q.3-2.8 1.2-6.6" style="fill:#a15d38"/><path d="M41.6 58.6c.2.3 1.3 1.6 1.2 3.5L42.3 79c0 1.2-.9 2.2-1.8 2.2l-10-.2-1.3 1.3s1.1.8 4.8.8h7.5c1.4 0 2.6-1.2 2.6-2.6l.5-19a8 8 0 0 0-.8-3c-.8-1.6-2.2-2.8-.7-8.5h-2c-.7 4.8-1 5.9.5 8.6" style="fill:#3e2723"/><path d="M47 18.3c-.7 1-2.5 1.8-2.1 0 .5-2.4 2.7-5.7 5-7.9 1.6-1.3 3.5-3 5.5-3.4 1.2-.5 3.3.4 2.6 1.9-1.8 1.4-4 2.1-5.7 3.7a31 31 0 0 0-5.3 5.7" style="fill:#ffc697"/></svg>