<svg xml:space="preserve" width="16" height="16" viewBox="0 0 128 128"><path d="M69.8 112.8s-6.7 4.6-7.4 5.4c-.6.8-.9 1.7.4 2.1s3.1-.1 3.1-.1-1 1.4 1.3 2c1.6.3 4.5-1.3 4.5-1.3s-.5 1.4 1.6 1.7c3 .4 8-6 9-7.9s.6-3.7.6-3.7zm-17.6-4.2s-8.2 5-8.9 5.2-3.2 1.7-2.2 3.3c.7 1.2 3.6.3 3.6.3s-.6 1.3 1 2.1 5.2-1.1 5.2-1.1-.4 1.7 1.9 2c2.9.3 9.4-8.6 9.4-8.6z" style="fill:#adadb7"/><path d="M85 38.4s1.1-17.6-7.5-25.8-19.1-7.2-22.4-6.4A22 22 0 0 0 42.3 15c-5.3 7.6-3.1 14.7-5.6 19.3-1.9 3.6-7.2 14-8 21.5s-1.5 21.6-1 26.6.6 9.2 3.2 13.2c1.6 2.4 4.7 2.5 5.8 1.1.6-.7.4-1.9.4-1.9s4.3 6.4 6 8.6A30 30 0 0 0 61.3 114c12.6 2.1 33.2-4.5 33.2-4.5s1.8 1.2 4.6 1.3c1.4 0 3.1-1.3 2.9-2.7s-1.8-3.4-2.2-4.2c-.3-.8.7-22.3-2.6-37S87.5 40.4 85 38.5" style="fill:#4d4d4d"/><linearGradient id="a" x1="55.6" x2="69.5" y1="105.7" y2="34.3" gradientUnits="userSpaceOnUse"><stop offset=".4" style="stop-color:#fff"/><stop offset=".4" style="stop-color:#fffaef"/><stop offset=".5" style="stop-color:#ffedc7"/><stop offset=".6" style="stop-color:#ffd985"/><stop offset=".8" style="stop-color:#ffc139"/><stop offset=".8" style="stop-color:#ffb92e"/><stop offset=".9" style="stop-color:#ff9700"/></linearGradient><path d="M39.8 38.4s-6.1 6.3-6.7 15c-.4 7.4-.5 20.7 3.7 32.7s12.3 21.9 24 24.2c12.6 2.5 26.6-2 27-2 .5-.2-2.5-3.3-4.6-6.4-1.5-2.4-3.6-7.6-3.6-7.6s.2 4-2.4 4.3c-2 .3-4.8-1.7-7-6.3-2-4.7-5-17.3-5.7-27.7-.7-9.3.3-15.2 1.2-17.9.6-1.5 1.7-2.6 1.7-2.6s3.2 3.9 8.3 2.6c4.9-1.3 6-6.6 5.3-11-1-5.2-3.1-10.8-10.2-9.3-8 1.8-5.3 12.1-5.3 12.1s-5.7 4.7-13.7 3.9-12-4-12-4" style="fill:url(#a)"/><path d="M47.1 18.2s-1-3.7-3.4-4.1c-4.8-1-11.3 2.2-14 3.8-2.2 1.3-5.1 4.2-4.2 5.6s5.7.1 10 .8c2.8.5 6.8 1.7 8.5 1.6 1.4 0 3.1-2.3 3.3-3.4.3-1 .3-3-.2-4.4" style="fill:#adadb7"/><path d="M47.3 18.5s-4 1.8-12.4 2.3c-3.5.3-9.5 2-9.5 2s-.6.6.3 1.1c1 .5 6-.9 9.1-1l14.3-1z" style="fill:#4d4d4d"/><path d="M63.8 22c0 2.2-2 4-4 3.7-2.3-.4-3.5-2.7-3.2-5s2.3-3.3 4.2-3.1 2.9 2.1 3 4.4" style="fill:#000409"/></svg>