<svg xml:space="preserve" width="16" height="16" viewBox="0 0 128 128"><path d="m65.9 43.5 18.5 18.4c1.1 1.1 1 2.9-.1 3.9L65.9 84.4a3 3 0 0 1-4 0L43.5 65.9a3 3 0 0 1-.1-3.9l18.5-18.4a3 3 0 0 1 4-.1" style="fill:#1976d2"/><path d="M62.9 46.1 79 62.2c.9 1 .9 2.5-.1 3.4l-16 16.2c-1 1-2.5 1-3.5 0L43.3 65.7c-1-.9-1-2.5-.1-3.4l16.2-16.1c1-1 2.5-1 3.5-.1" style="fill:#2196f3"/><path d="M60 47.5 48.3 59s-.9.8-.3 1.7 1.5.4 2 0l10.9-10.8q.6-1 .2-1.9-.4-1-1.1-.5" style="fill:#90caf9"/><circle cx="46.8" cy="62.7" r="1.2" style="fill:#90caf9"/></svg>