<svg xml:space="preserve" width="16" height="16" viewBox="0 0 128 128"><path d="M29.4 61.4s.3-5-4.2-4.6-3 6.6-3 6.6z" style="fill:#afafaf"/><path d="m48.6 93.8-6 .7s.3 12-.5 13.4c-.8 1.3-6 4.6-6 4.6s-.5 1.8 2.3 2.8 8.3.6 8.3.6l7.9-19.3zm43.4.9c-.7 0-8.5 2.8-8.5 2.8s2.8 10.3 1.1 12-4.8 3-2.9 4.4c2 1.3 9.3 1 11.3-1s2.2-3.8 2.3-6c.1-2-.2-12.6-.2-12.6z" style="fill:#171717"/><path d="M46.8 100s.9 10-.2 11.3c-1 1.4-5.4 4.2-5.6 4.7s0 4 5.8 3.8 9.7-.8 12.3-3.8c2.5-3 2.2-12.3 2.2-12.3s10.7-.3 14-.7l7.7-.7s1 4.7.5 6.4-2.8 3.2-2.2 3.8 3.5-.2 4.3-2.5c.9-2.2.2-8.1.2-8.1s4.7-.7 7.6-1.3l4.5-.8s1.2 6.9.7 9c-.4 2.2-5.8 7.2-3.9 7.7 2 .4 5.6 1.2 9.1.3 2.9-.7 5.4-3.4 5.6-5l.2-3.7-.4-17.1-53.7-23-7.7-1.3-4.2-1.9c-1.8-.8-4-1.4-4-1.4s0-5-2.4-5.2-4 2.8-4 2.8l-6.4 1.3-10.7 5.1-4.5 8.2-4.4.5s-5.8 1-6.5 3.7c-.6 2.4 1 3.3 1 3.3s0 1.6.8 2.6S4.3 87 4.3 87s1 1.8 2.4 2.4c3 1.2 5.2.6 8.2.4l7-.5L33 93.9c4.2 1.7 8.7 3.8 8.7 3.8s0 7.8-.5 10c-.6 2.1-5.9 3.6-5.7 4.7.1 1.1 2.8 0 4.5-1s2.7-2.2 3.1-3.5.5-9.6.5-9.6z" style="fill:#575a5b"/><path d="m113.3 88.6-2 5.3s1.4 2.8 3.6 5c2 1.8 3.3 2.7 5.4 2.7 3.1 0 8.3-3.9 7-5.4-1-1.2-5-4.5-5-4.5z" style="fill:#dfdfdf"/><path d="M81.2 56.8c15.4.7 24.4 7.7 27.5 14.3S113 81 114 82.6s9.5 10 9.5 10-2 2-6 2.6c-3.2.5-5.6-.1-5.6-.1l-1-1.6c-.4-.6-1-1.3-2-.6-1.2.8-4.1 5.3-9.2 5.6-6 .4-11.7-1.8-11.7-1.8s.2 2.8-.4 3a37 37 0 0 1-6.6-2.4L76.1 94s1.7 5.2 1.2 5.8-3.7-.5-5.9-2.3L64 91.2s1.8 5.5 1.4 6.1-4.6-1.2-7.4-4.7c-3-3.8-4.8-7.8-6-13.7-1-5.4-1.5-7.4-2.2-9.3s-2-3-2-3 3.5.2 4.7-.5 14.9-10 28.7-9.3" style="fill:#afafaf"/><path d="M49.3 84.8c0 .6-12.1.5-15.4.7S23 87.5 20 87.9s-8.1 1.3-10.5 1-2.7-1-2.6-1.4c0-.4 3 0 3.5-.8.6-1 0-1.8-.9-1.4s-2.7.8-3.9.7-2-1.2-2-1.9 1.9-.8 2.6-1.5q1.5-1.3 1.4-4.3c-.1-1.4-.6-2-.3-2.2.4-.3 1.5-.3 2.4-2.7.7-2 2.3-5.5 5.1-7.6 3.2-2.4 6-4 11.1-4.7s5.6-.4 5.6-.4 1.6-4.7 6.2-4 3 7 3 7l-2-.3s.6-3.1-1.6-3.5c-2.1-.4-3 2.5-3 2.5s-8 .8-11.3 2.7c-3.6 2.2-11.3 8.6-9.2 13.2s11.9 0 13.6-1c1.7-1.2 6.7-4.8 9.7-4s4 3 6.7 5.5c1.7 1.5 5.8 5 5.7 6" style="fill:#dfdfdf"/><path d="M24 74.8q-1 2.6-3.8 2c-1.6-.4-2.4-3.1-1.4-5s2.8-1.9 4.1-1.4c1.5.5 1.9 2.6 1.2 4.4" style="fill:#191919"/><path d="M21.4 73.2c-.4.8-1.4 1.4-2 .8s-.4-1.6.3-2.5c.6-1 1.6-1.2 2-.7.5.6.1 1.7-.3 2.4" style="fill:#e1e1e1"/><path d="M33.7 113c.1 1 3.4 1.3 3.2-.4s-3.3-.7-3.2.4m1.9 2.8c.5.9 4 0 3.2-1.7s-3.8.6-3.2 1.7M39 118c.5 1 4.5-.4 3.8-1.8s-4.4.2-3.7 1.8m1.7 2.2c.6 1 4.8-.7 3.6-2.1s-4.2 1-3.6 2" style="fill:#dfdfdf"/><path d="M79.5 113.7c.2.7 3.3 0 3-1s-3.3.1-3 1m2.5 1.8c.6.5 3.5-1.3 2.1-2s-3 1.4-2 2m2.9.5c1.3.4 3.5-1.9 2-2.3-1.6-.5-2.8 2-2 2.3m10.9-1c-.9-.8-3.6.8-2.8 2 .9 1 4-1 2.8-2m0 3.7c1.2.7 3.7-2.6 2.3-3s-3.4 2.4-2.4 3m5.3-2.7c-1.6-.2-3.5 2.7-1.8 2.9s3.3-2.7 1.8-2.9" style="fill:#e0e0e0"/><path d="M65.8 85a1 1 0 0 1-.8-.5l-2.3-2.8a1 1 0 0 1 1.7-1.3l2.2 2.8a1 1 0 0 1-.8 1.8m12 1.2L77 86l-3.7-3a1 1 0 1 1 1.3-1.7l3.7 3a1 1 0 0 1-.6 2m4.4-9.5-.6-.2-3.7-2.6a1 1 0 1 1 1.2-1.8l3.7 2.6a1 1 0 0 1-.6 2m11.4-3.2-.6-.2-3.8-2.8a1 1 0 0 1 1.3-1.7l3.7 2.8q.7.6.3 1.5a1 1 0 0 1-.9.4m2.1 9.6-.5-.1-3.4-1.8a1 1 0 0 1-.4-1.4 1 1 0 0 1 1.4-.5l3.4 1.8q.8.6.4 1.5a1 1 0 0 1-.9.5m9.4-6.5-.5-.2-3-2.2a1 1 0 1 1 1.2-1.8l3 2.2a1 1 0 0 1-.7 2" style="fill:#999"/></svg>