<svg xml:space="preserve" width="16" height="16" viewBox="0 0 128 128"><linearGradient id="a" x1="64" x2="64" y1="99.5" y2="-6.8" gradientTransform="matrix(1 0 0 -1 0 128)" gradientUnits="userSpaceOnUse"><stop offset="0" style="stop-color:#eee"/><stop offset="1" style="stop-color:#bdbdbd"/></linearGradient><path d="M63.8 9c-64 0-60 115-60 115h120.4S127.7 9 63.8 9" style="fill:url(#a)"/><linearGradient id="b" x1="64" x2="64" y1="28" y2="5.9" gradientTransform="matrix(1 0 0 -1 0 128)" gradientUnits="userSpaceOnUse"><stop offset=".2" style="stop-color:#fafafa"/><stop offset=".8" style="stop-color:#e0e0e0"/></linearGradient><path d="M113.1 98a8 8 0 0 0-8.1-2.8c-2.3.6-4.9 1.4-6.5 2.5a7 7 0 0 1-3.7 1.3l-1.8-.3a99 99 0 0 0-29.6-4.3h-.1a105 105 0 0 0-30.8 4q-1.9 0-3.4-1a19 19 0 0 0-7.9-2.5 8 8 0 0 0-6.3 3c-3 3.8-7 9.6-7 13.5 0 3.8 3.4 6.6 3.4 8.5v4.1h103v-4.1c0-1.7 5.7-4.2 5.7-8.5 0-3.9-4-9.6-6.9-13.3" style="fill:url(#b)"/><path d="M98.5 79.9c-1.2-2.3.4-4.6 3-7.5 4.4-4.5 9-15 4.7-25.8l-.8-1.9h-1.8a3374 3374 0 0 0-80 0l-2.6 2a25 25 0 0 0 4.7 25.7c2.7 2.9 4.3 5.2 3 7.4S24 82.4 24 82.4s.8 2.2 2.8 3.5c1.9 1 4.2 1.3 5.7 1.4 0 0 6.2 8.5 22.3 8.5h17.9c16 0 22.2-8.5 22.2-8.5 1.6 0 3.9-.3 5.7-1.4 2-1.3 2.8-3.5 2.8-3.5s-3.6-.3-4.8-2.6" style="fill:#ab872f"/><radialGradient id="c" cx="100" cy="45.8" r="23.4" gradientTransform="matrix(1 0 0 .491 -21.82 59.63)" gradientUnits="userSpaceOnUse"><stop offset=".7" style="stop-color:#bfa055;stop-opacity:0"/><stop offset="1" style="stop-color:#bfa055"/></radialGradient><path d="M63.6 95.8v-9.4L92.2 84l2.6 3.2s-6.2 8.5-22.3 8.5z" style="fill:url(#c)"/><radialGradient id="d" cx="77" cy="49.3" r="6.9" gradientTransform="rotate(155 84.43 60.33)scale(1 .742)" gradientUnits="userSpaceOnUse"><stop offset=".7" style="stop-color:#bfa055"/><stop offset="1" style="stop-color:#bfa055;stop-opacity:0"/></radialGradient><path d="M94.7 83.2c-4.3-6.5 5.2-9 5.2-9-1.6 2-2.4 3.9-1.4 5.6 1.2 2.3 4.8 2.6 4.8 2.6s-4.9 4.3-8.6.8" style="fill:url(#d)"/><radialGradient id="e" cx="94.9" cy="68.9" r="30.4" gradientTransform="rotate(-94.3 89.88 63.63)scale(1 .833)" gradientUnits="userSpaceOnUse"><stop offset=".7" style="stop-color:#bfa055;stop-opacity:0"/><stop offset="1" style="stop-color:#bfa055"/></radialGradient><path d="M106.2 46.7c4.3 10.3-.2 21-4.4 25.5-.5.6-3 3-3.5 4.9 0 0-9.6-13.3-12.4-21.1q-1-2.4-1.2-5-.2-2 .9-3.8a111 111 0 0 1 20.1-1.7z" style="fill:url(#e)"/><radialGradient id="f" cx="43.9" cy="68.9" r="30.4" gradientTransform="rotate(-85.7 106.7 .83)scale(1 -.833)" gradientUnits="userSpaceOnUse"><stop offset=".7" style="stop-color:#bfa055;stop-opacity:0"/><stop offset="1" style="stop-color:#bfa055"/></radialGradient><path d="M21 46.7c-4.2 10.3.2 21 4.4 25.5.6.6 3 3 3.6 4.9 0 0 9.5-13.3 12.4-21.2q.9-2.3 1.2-4.8.1-2.1-1-3.9c-.8-1.3-1.8-1-3.3-1-3 0-15.5-.7-16.5-.7z" style="fill:url(#f)"/><radialGradient id="g" cx="49.1" cy="45.8" r="23.4" gradientTransform="matrix(-1 0 0 .491 98.11 59.63)" gradientUnits="userSpaceOnUse"><stop offset=".7" style="stop-color:#bfa055;stop-opacity:0"/><stop offset="1" style="stop-color:#bfa055"/></radialGradient><path d="M63.7 95.8v-9.4L35 84l-2.6 3.2s6.1 8.5 22.2 8.5z" style="fill:url(#g)"/><radialGradient id="h" cx="26" cy="49.3" r="6.9" gradientTransform="rotate(205 4.68 51.85)scale(-1 .742)" gradientUnits="userSpaceOnUse"><stop offset=".7" style="stop-color:#bfa055"/><stop offset="1" style="stop-color:#bfa055;stop-opacity:0"/></radialGradient><path d="M32.5 83.2c4.3-6.5-5.2-9-5.2-9q2.7 3 1.4 5.6c-1.2 2.3-4.8 2.6-4.8 2.6s5 4.3 8.6.8" style="fill:url(#h)"/><path d="M78.4 99.5c-3.9-2.3-3.6-8-3.6-8-.5-1.7-2.9-1.4-4.6-1.4H57.9c-1.8 0-4.2-.3-4.7 1.3 0 0 .3 5.8-3.6 8.1-3 1.8-6.6 4.5-6.6 8.3 0 5.4 0 2.8.1 3.7 0 .7 10.5 1 21 1 10.3 0 20.7-.3 20.8-1v-3.7c0-3.8-3.4-6.5-6.5-8.3" style="fill:#c48e6a"/><path d="M54.5 112c-1.2-3-5 .2-10.3 2.4s-10.2 2.5-9 5.5q.8 1.7 3.6 4h14c2.4-3.8 2.6-9.8 1.7-12" style="fill:#c2185b"/><ellipse cx="44.8" cy="114.5" rx="10.4" ry="4.2" style="fill:#ec407a" transform="rotate(-22.3 44.84 114.52)"/><ellipse cx="45.8" cy="115.3" rx="4" ry="1.6" style="fill:#d81b60" transform="rotate(-22.3 45.82 115.31)"/><path d="M74.7 109.4c.3-1.4 0-2.4 0-2.4-1.5-2-6.4-1.9-11.4-2-4.7-.2-9.4-.8-11.2.8-.7.5-.5 2-.4 2.8.2 4 4.5 14.8 10.7 15.4h1c8.4-.7 10.6-11 11.3-14.6M63.4 124h-1z" style="fill:#c2185b"/><ellipse cx="63.3" cy="107.1" rx="4.1" ry="11.5" style="fill:#ec407a" transform="rotate(-88.2 63.27 107.06)"/><ellipse cx="63.3" cy="107.8" rx="1.5" ry="4.1" style="fill:#d81b60" transform="rotate(-88.2 63.28 107.81)"/><path d="M92.2 119.9c1.2-3-3.7-3.3-9-5.5s-9-5.4-10.3-2.4c-.9 2.1-.6 8.1 1.6 12h14.1a13 13 0 0 0 3.6-4.1" style="fill:#c2185b"/><ellipse cx="83.1" cy="114.6" rx="5.5" ry="10.4" style="fill:#ec407a" transform="rotate(-67.7 83.07 114.64)"/><ellipse cx="83.1" cy="115.8" rx="2.3" ry="4.3" style="fill:#d81b60" transform="rotate(-67.7 83.07 115.76)"/><path d="M61.7 121c-2.3-4.4-9.3-5.1-9.3-5.1s-2.2 4.2-1.6 8.1h11.8q0-1.5-.9-3" style="fill:#2e7d32"/><path d="M49.6 122.4c-4.4-2.1-10.6 1.3-10.6 1.3v.3h12.7a7 7 0 0 0-2-1.6" style="fill:#43a047"/><path d="M77 118.9s-7 .8-9.3 5.1h11c-.5-2.8-1.6-5.1-1.6-5.1" style="fill:#2e7d32"/><path d="M73.1 116.6s-7-.3-10 3.7a8 8 0 0 0-1.4 3.7h12c.7-3.6-.6-7.4-.6-7.4m6.2 6.2-1.7 1.2h12.2c-.7-.4-6.3-3.2-10.5-1.2" style="fill:#43a047"/><path d="M91.3 50.4H36.7c-6 0-10.7 5.2-10.7 11.4s4.8 11.5 10.7 11.5h54.6c6 0 10.7-5.2 10.7-11.5s-4.8-11.4-10.7-11.4" style="fill:#c48e6a"/><path d="M64 11c-17.4 0-33.5 18.7-33.5 45.5C30.5 83 47 96.3 64 96.3S97.5 83 97.5 56.5C97.5 29.7 81.4 11 64 11" style="fill:#e0bb95"/><ellipse cx="47.6" cy="58.8" rx="4.9" ry="5.1" style="fill:#5d4037"/><ellipse cx="80.4" cy="58.8" rx="4.9" ry="5.1" style="fill:#5d4037"/><path d="M54.8 49.8c-1-1.2-3-3-7.2-3s-6.3 1.8-7.3 3q-.5 1 0 1.6t2 .4c1.4-.2 2.5-1.2 5.3-1.2s4.5.9 5.3 1.2q1.4.3 2-.4.4-.6-.1-1.6m32.9 0c-1-1.2-3.1-3-7.3-3s-6.3 1.8-7.2 3q-.5 1 0 1.6t1.9.4c1.5-.2 2.5-1.2 5.3-1.2s4.5.9 5.4 1.2q1.3.3 1.9-.4t0-1.6" style="fill:#ab872f"/><path d="M72.4 76.1a26 26 0 0 1-16.8 0c-1.8-1-3.7.6-3 2.3s6.5 5.4 11.4 5.4 10.6-3.8 11.3-5.4-1-3.4-2.9-2.3" style="fill:#6d4c41"/><path d="M67.9 68H60q-1 .5-.6 1.7c.3.7 1.7 2.7 4.5 2.7s4.3-2 4.6-2.7q.3-1.2-.7-1.6" style="fill:#c48e6a"/><path d="M103.7 25.1c-2.5-3.7-8-8.6-12.8-9C90 11.4 85 7.4 80 6c-13.2-4.2-21.8.5-26.4 3-1 .5-7.2 4-11.5 1.5-2.8-1.5-2.7-5.7-2.7-5.7S31 7.9 33.9 17a10 10 0 0 0-8.8 5.4c-2.4 5-1.6 9-.9 11A11 11 0 0 0 20.7 46c1.6 4.4 8.2 6.5 8.2 6.5-.5 8 1 13 1.8 15 .1.3.6.2.7-.1 1-4 4.4-17.8 4-20.2 0 0 11.4-2.3 22.2-10.3a32 32 0 0 1 7.1-4c13.6-5.4 16.5 3.8 16.5 3.8S90.6 35 93.4 48c1.1 5 1.8 12.8 2.4 18.3 0 .3.6.4.8 0 .9-2.1 2.8-6.4 3.3-10.8.1-1.6 4.3-3.6 6-10.3 2.5-8.9-.5-17.4-2.2-20" style="fill:#ab872f"/><radialGradient id="i" cx="81.6" cy="84.9" r="35.6" gradientTransform="rotate(72 8.75 -9.99)scale(1 -.742)" gradientUnits="userSpaceOnUse"><stop offset=".7" style="stop-color:#bfa055;stop-opacity:0"/><stop offset="1" style="stop-color:#bfa055"/></radialGradient><path d="M99.8 55.5c.2-1.5 4.4-3.6 6.2-10.3l.5-2.1a28 28 0 0 0-2.8-18A22 22 0 0 0 92 16.3l-1.2-.1s.4 2.1-.5 3.8a5 5 0 0 1-3.4 2.8c12 12 11.1 22 13 32.7" style="fill:url(#i)"/><radialGradient id="j" cx="46.9" cy="123.8" r="9.3" gradientTransform="rotate(208.2 -17.9 63.72)scale(-1 1.186)" gradientUnits="userSpaceOnUse"><stop offset=".6" style="stop-color:#bfa055"/><stop offset="1" style="stop-color:#bfa055;stop-opacity:0"/></radialGradient><path d="m56.6 7.4-3 1.5c-.9.5-7.1 4-11.4 1.5-2.7-1.5-2.7-5.6-2.7-5.7-1.2 1.6-5 12.8 6 13.5 4.6.3 7.5-3.8 9.2-7.2z" style="fill:url(#j)"/><radialGradient id="k" cx="159.2" cy="62.5" r="28.7" gradientTransform="matrix(-.938 -.394 -.218 .528 230.74 50.93)" gradientUnits="userSpaceOnUse"><stop offset=".7" style="stop-color:#bfa055;stop-opacity:0"/><stop offset="1" style="stop-color:#bfa055"/></radialGradient><path d="M78.8 5.5c7.3 2 10.9 5.7 12 10.6.4 1.5.8 15.1-25.2-.4-9.7-5.7-7-9.3-5.9-9.7a31 31 0 0 1 19-.5" style="fill:url(#k)"/><radialGradient id="l" cx="43.1" cy="115.3" r="8.6" gradientTransform="matrix(1 0 0 -1.223 0 153.74)" gradientUnits="userSpaceOnUse"><stop offset=".7" style="stop-color:#bfa055;stop-opacity:0"/><stop offset="1" style="stop-color:#bfa055"/></radialGradient><path d="M39.5 4.7h-.1c-1 .4-8.2 3.8-5.5 12.3l7.8 1.2c-7-7-2.2-13.5-2.2-13.5" style="fill:url(#l)"/><radialGradient id="m" cx="42" cy="100.1" r="16.1" gradientTransform="rotate(-165 50 -32.93)scale(1 -.936)" gradientUnits="userSpaceOnUse"><stop offset=".7" style="stop-color:#bfa055;stop-opacity:0"/><stop offset="1" style="stop-color:#bfa055"/></radialGradient><path d="m38.7 17.7-4.8-.7h-1.2a10 10 0 0 0-7.6 5.4 14 14 0 0 0-1.3 9.4l.4 1.6s2.4-2.3 8-2.4z" style="fill:url(#m)"/><radialGradient id="n" cx="38.1" cy="84.6" r="16.9" gradientTransform="rotate(187.8 -2.58 78.53)scale(-1 1.405)" gradientUnits="userSpaceOnUse"><stop offset=".6" style="stop-color:#bfa055;stop-opacity:0"/><stop offset="1" style="stop-color:#bfa055"/></radialGradient><path d="M24 33.6a11 11 0 0 0-3.2 12.6c1.7 4.4 8 6.3 8 6.3s1.3.4 2 .4l1.5-22c-3 0-6 1-7.9 2.3z" style="fill:url(#n)"/><linearGradient id="o" x1="72.6" x2="72.6" y1="123.9" y2="113.4" gradientTransform="rotate(179 -3.93 72.75)scale(-1 1)" gradientUnits="userSpaceOnUse"><stop offset=".3" style="stop-color:#fff"/><stop offset="1" style="stop-color:#e0e0e0"/></linearGradient><path d="M63 20a97 97 0 0 0-32 6.3c-4.6 1.7-8.6 7.6-9.6 12.2 0 0 18.8-10 41.6-10.5 23-.4 43.7 9 43.7 9a15 15 0 0 0-10.2-11.4C89.6 23.2 77.5 20 63 20" style="fill:url(#o)"/></svg>