<svg xmlns:xlink="http://www.w3.org/1999/xlink" xml:space="preserve" width="16" height="16" viewBox="0 0 128 128"><path d="M8.6 96.6c3.1-13.8 14.7-11.8 23.4-9.8C41.8 89 62.2 93 62.2 93s16.7-8.6 27.6-16.8c3-2.2 6.8-3 10.2.7 3.8 4.1 7.2 13.1 2.3 18.3 0 0-26 21.4-33.3 24.9a32 32 0 0 1-13.3 2 253 253 0 0 1-34.8-4.5c-4.2-1.2-15.4-7-12.3-21" style="fill:#f78c1f"/><defs><path id="a" d="M8.6 96.6c3.1-13.8 14.7-11.8 23.4-9.8C41.8 89 62.2 93 62.2 93s16.7-8.6 27.6-16.8c3-2.2 6.8-3 10.2.7 3.8 4.1 7.2 13.1 2.3 18.3 0 0-26 21.4-33.3 24.9a32 32 0 0 1-13.3 2 253 253 0 0 1-34.8-4.5c-4.2-1.2-15.4-7-12.3-21"/></defs><clipPath id="b"><use xlink:href="#a" style="overflow:visible"/></clipPath><path d="M59.2 89.4c-8.5 7.1-7.1 17.5-6.8 18.5s1.4.9 1.5 0c.7-7.7 3.4-11.5 8.2-14.9 2.4-1.6-2.9-3.6-2.9-3.6" style="clip-path:url(#b);fill:#d36600"/><path d="m95.8 67.7-16.2 1.1c-5.5 1-5.9-2.3-5.8-5l2.7-51.4c.2-3.5 1.3-4.6 2.7-5.6 2-1.4 6.1-.8 6.1-.8 4.9.8 14.4 9.3 14.2 11.9l1.9 45.4c0 2.6-2.6 4.6-5.6 4.4" style="fill:#757575"/><path d="m98 69.1-15.9-.9c-2.7-.1-5-1.6-4.8-4.2l2.8-53.5c.1-2.6 2.5-4.7 5.3-4.6l14.3 3.4a5 5 0 0 1 4.8 5l-1.1 50.3c-.2 2.6-2.6 4.6-5.4 4.5" style="fill:#9e9e9e"/><ellipse cx="87.3" cy="13.5" rx="2.7" ry="2.4" style="fill:#424242" transform="rotate(-86.8 87.34 13.46)"/><path d="M80.7 37.3c1.3 4.9 8.9 6.7 10.8 9.3 1.8 2.7 4.1 9 4.1 9s-21.8-1-19.3 2.7 8.7 3 11.4 4.7c1.1.7 3.2 2.6 2.4 3.1-1.1.7-6.9 1.7-10.7 1.7s12.9 3.8 16.2 2 3.1-11.5 3.1-11.5L98 47c0-.3-5.6-6.1-5.6-6.1s-12.8-7.7-11.7-3.6" style="fill:#757575"/><path d="M102.8 81.5c1.2 5.1-.2 11.2-3.7 12s-7.9-3.9-9.1-9q-.7-3.2 0-6s3-1.3 5-1.8c3.5-.7 6.6-.2 7.8 4.8" style="opacity:.7"/><path d="m108.6 70.1-.7 2.8a69 69 0 0 1-8.9 18c-2.1 1.3-6.4-.3-8-3.7-.7-1.5-1.7-3.7-1.6-6.3.2-2.6 1-3.5 1-3.5l.5-.6 1.3-1.5q-.9-.5-2-.7c-3.2-.4-9.7-.5-12.3-1.2-2.9-.8-2.9-4.5 0-4.7s7.6-.3 10-.8 6-1 5.8-2.6-4.1-4.4-5.5-4.9-3.5-.5-5.6-.8c-2.2-.3-5.5.2-6.6-2.5-1.3-3.3 2.8-3.8 2.8-3.8s-3.5-.1-4.2-2.8c-.4-1.6.7-2.9 2.8-3.1 3.2-.6 6-1.3 9.3-1.3 4.9 0 10.7 2.8 10.7 2.8a17 17 0 0 0-5.5-5.9C89.7 41.5 81 39.7 80 36c-1-3.6 1.4-3.9 3.8-3s9.4 2.6 12.7 4.5c3.4 1.9 8.3 8 8.6 9.7a71 71 0 0 1 3.5 22.9" style="fill:#ffca28"/><defs><path id="c" d="m108.6 70.1-.7 2.8a69 69 0 0 1-8.9 18c-2.1 1.3-6.4-.3-8-3.7-.7-1.5-1.7-3.7-1.6-6.3.2-2.6 1-3.5 1-3.5l.5-.6 1.3-1.5q-.9-.5-2-.7c-3.2-.4-9.7-.5-12.3-1.2-2.9-.8-2.9-4.5 0-4.7s7.6-.3 10-.8 6-1 5.8-2.6-4.1-4.4-5.5-4.9-3.5-.5-5.6-.8c-2.2-.3-5.5.2-6.6-2.5-1.3-3.3 2.8-3.8 2.8-3.8s-3.5-.1-4.2-2.8c-.4-1.6.7-2.9 2.8-3.1 3.2-.6 6-1.3 9.3-1.3 4.9 0 10.7 2.8 10.7 2.8a17 17 0 0 0-5.5-5.9C89.7 41.5 81 39.7 80 36c-1-3.6 1.4-3.9 3.8-3s9.4 2.6 12.7 4.5c3.4 1.9 8.3 8 8.6 9.7a71 71 0 0 1 3.5 22.9"/></defs><clipPath id="d"><use xlink:href="#c" style="overflow:visible"/></clipPath><g style="clip-path:url(#d)"><path d="M82.2 68c-2.4 0-2.6 4.4-.1 4.6l8.1.5c4.6.7 3.3 2.8 7.1 3.4 1.8.3 1.6 2.3-.1 2.3-1.9 0-4.6 0-6.8-2.3-.6-.7-13.7-.3-13.7-.3L73 69.8l3.8-4.3h5.9zm14.4 24.4c0-.1 5.5-7.3 9-17.2 0 0 1.2-2.7 1.1-5.8a86 86 0 0 0-3.2-21.9q-.5-1.6-1.9-3L99.3 42c-.7-.7-1.8-2-2.2-5.2-.2-2.1 2.3-2.5 3.2-1.6l8.5 10.4 3.4 26.7-11.6 22.3zM73.3 51.7c3.1-.4 9.3 0 11.4-.1 1.9 0 4.7-.2 6.5.6s6.1 3.1 7.3 3.7.4 2.3-.9 1.6l-6.4-3.2q-1.4-.8-3.5-.8l-9-.4c-1.6-.1-5.8.1-5.8.1s-2.7-1.1.4-1.5" style="fill:#faa700"/></g></svg>