<svg xmlns:xlink="http://www.w3.org/1999/xlink" xml:space="preserve" width="16" height="16" viewBox="0 0 128 128"><radialGradient id="a" cx="63.6" cy="808.9" r="57" gradientTransform="translate(0 -746)" gradientUnits="userSpaceOnUse"><stop offset=".5" style="stop-color:#fde030"/><stop offset=".9" style="stop-color:#f7c02b"/><stop offset="1" style="stop-color:#f4a223"/></radialGradient><path d="M63.6 118.8c-27.9 0-58-17.5-58-55.9S35.7 7 63.6 7c15.5 0 29.8 5.1 40.4 14.4 11.5 10.2 17.6 24.6 17.6 41.5s-6.1 31.2-17.6 41.4a61 61 0 0 1-40.4 14.5" style="fill:url(#a)"/><path d="M111.5 29.7a57 57 0 0 1 8.1 30.2c0 16.9-6.1 31.2-17.6 41.4a61 61 0 0 1-40.4 14.5 59 59 0 0 1-48.2-23 58 58 0 0 0 50.2 26c15.4 0 29.8-5.2 40.4-14.5a54 54 0 0 0 17.6-41.4q-.1-19.2-10.1-33.2" style="fill:#eb8f00"/><defs><path id="b" d="M66.8 76.5a186 186 0 0 1-33.5 8.2 3.5 3.5 0 0 0-2.6 5.2c8.2 14.2 27.4 21.6 45.8 15.4 20.2-6.8 29.4-24.2 27.2-40.1a3.5 3.5 0 0 0-5.2-2.5 198 198 0 0 1-31.7 13.8"/></defs><clipPath id="c"><use xlink:href="#b" style="overflow:visible"/></clipPath><g style="clip-path:url(#c)"><linearGradient id="d" x1="30.2" x2="104" y1="45.1" y2="45.1" gradientTransform="matrix(1 0 0 -1 0 130)" gradientUnits="userSpaceOnUse"><stop offset="0" style="stop-color:#404040"/><stop offset=".1" style="stop-color:#3e3a35"/><stop offset=".4" style="stop-color:#392d1e"/><stop offset=".7" style="stop-color:#362510"/><stop offset="1" style="stop-color:#35220b"/></linearGradient><path d="M66.8 76.5a186 186 0 0 1-33.5 8.2 3.5 3.5 0 0 0-2.6 5.2c8.2 14.2 27.4 21.6 45.8 15.4 20.2-6.8 29.4-24.2 27.2-40.1a3.5 3.5 0 0 0-5.2-2.5 198 198 0 0 1-31.7 13.8" style="fill:url(#d)"/></g><path d="M80.4 22.9a18 18 0 0 1 6.8 34.6q-3.3 1.3-6.8 1.3a18 18 0 0 1-6.8-34.6q3.3-1.3 6.8-1.3" style="fill:#fff"/><circle cx="80.4" cy="41" r="7" style="fill:#422b0d"/><path d="M35.9 44.8a12.1 12.1 0 1 0 0 24.2 12.1 12.1 0 0 0 0-24.2" style="fill:#fff"/><circle cx="36" cy="57" r="7" style="fill:#422b0d"/><path d="M44.7 90.9v18c0 9.4 7.7 17.1 17.2 17.1h3.3c9.5 0 17.2-7.7 17.2-17.2L82 80zM82 76 44.8 87v3.8l37.4-11z" style="fill:#ff4081"/><path d="M63.6 106.3a2 2 0 0 0 2-2V80.9l-4 1v22.3q.2 1.8 2 2M82 76 44.8 87v3.8l37.4-11z" style="opacity:.3;fill:#ab3f2e"/></svg>