<svg xml:space="preserve" width="16" height="16" viewBox="0 0 128 128"><path d="m39.8 108.2.2 7s3.2 5.8 23.7 5.8c20 0 24.8-4.6 24.8-4.6l.5-9.1z" style="fill:#b0b0b0"/><path d="M63.4 44.3C14.7 44.4 4.2 60.5 4 62.7s1 50.4 59.6 51.3c56.9 1 59.9-46.7 60.3-49.6.3-2.4-9.5-20.2-60.5-20.1" style="fill:#d4d2d6"/><path d="M7.6 63.3c0 5 4 47 57.2 47 52.9 0 55.9-45.8 55.4-45s-11.9 10-11.9 10l-16.8 6c-1.3.2-32.7 2.1-32.7 2.1l-31.2-4.8S14 70.7 13 69.8s-5.3-7-5.3-6.5" style="fill:#f6f6f6"/><path d="M65.6 91h-1c-28.3-.2-44.2-6.4-52.8-12.3-3-2-5.3-4.4-6.8-6.1L4.5 69C4 66.8 4 64.4 4 64.4c0 .2 8.8 22.4 60.7 22.5h.8c48-.6 58-20.4 58.1-20.5l-.6 4.2-.7 3c-2.5 2.5-6.2 6-11.7 8.9-8.8 4.5-22.5 8.4-45 8.4" style="fill:#ff635f"/><path d="M11.4 67.1s2.5-6 19.8-9.4a151 151 0 0 1 60.5.1 106 106 0 0 1 23.5 10.5l-6 6.1-28.4 8.1-26.7 1c-1 0-11-2.2-14.8-2.8-3.7-.7-16.6-4-16.6-4z" style="fill:#fec56c"/><path d="M89.7 73.6s2.8.2 3 2.4c0 2.4-1.6 3-1.6 3l-4.7.8zm6.4 4.2s-1.5 0-1.3-1.4 3-1.7 5-2.3 4.2-1.4 4.9-.9c.7.6 0 2 0 2zM48.3 76c-1.1.2-1 5 3.1 5.3s3-2.4 5.7-2.2 2.4 3.1 4.3 3.2 5.5-1.9 5.5-1.9l-6-3.5s-2.7-2.7-5.8-1.4c-2 .8-1.6 3-3.5 2.8-2.3-.3-.7-2.7-3.3-2.3m-32.5-6.9c.2.7 2.3 1.6 6.2 1s3.7-1 6-.8 4.2.7 5.4.5c1.2-.3.5-2.7.5-2.7l-6.5-.3c-1.4 0-6.2 1.1-7.8 1.1s-4.2-.3-3.8 1.2M16 66c.6.8 2.2.5 3.5-.2 1.4-.8 2.6-2 2-2.8-.6-.9-2.4-.3-3.4.3S15.4 65 16 66m6.7-2.6q.4 1 2.4 0 1.8-1 1.2-1.9c-.6-.9-1.4-.4-2.2 0-.9.3-1.8 1-1.4 1.9m7.1-.2c-.4-.6-.5-1.7.7-2.7q1.6-1.6 4-1.5c1.5 0 3 .1 2.8 1s-2.2.7-2.9.7c-1.4.1-1.3 1.3-1.3 1.3l-2 1.8zm10-4c.1 1.3 1.6 1.1 3.4 1q2.7-.4 2.6-2c-.2-1.2-1.8-1.1-3-1s-3.2.4-3 2m8.9-1.7q-.4 1.3 1.5 1.7c1.3.1 1.6-.5 1.7-1 .1-.8-.8-.9-1.4-1-.7-.3-1.5-.5-1.8.3m31.6 5.3c.3.6 2.3.6 3.5 0l4.5-2.1-2.5-2.7s-2 .3-3.7 1.4-2.3 2.2-1.8 3.3M74 57.4c-1 .8.5 2.2 1.8 2.8s2 1 3 .3c1-.8-.6-1.9-1.5-2.5s-2.2-1.5-3.3-.6m-5.2 2.3c-1 .3-.5 2.2.8 2.7s2.2-.2 3.4.7c1.1 1 .7 3 .7 3l3-1s.1-1.8-1.1-3.2c-1.7-1.7-3-1.7-4.5-1.7-1.9 0-1.7-.7-2.3-.5M36 66s-.4-1.2.4-2.6q1.3-2 4.5-2c3.2 0 6.6.6 7.7.2s1.3-1.3 2.1-1 .3 2.9-1.4 3.2-4.7.1-6.3 0c-1.7-.3-3.4 0-3.7 1s.2 2.4.2 2.4-3.7-1.5-3.5-1.1" style="fill:#fca72e"/><path d="M21.7 74.2V73l2.3-1 2-.8 4.2-1s1.3 0 2 .6 1.5 1.5 1.5 1 0-4.7.2-4.8l4.5-.6 1.1.7 1.6-.2 3 1.5 3 .2c.2 0 1.4-.8 1.3.1l-.3 2.8 1.6 2s3.8.3 3.4.9 0 2-4 1.6c-4-.6-3.2-3.1-3.2-3.1s-.6 0-1.3.5c-.1 0 1 1.8-.8 3.7-.4.5 4.7 0 4.7 0s.6 1-.4 1.7-2.1 2-2.1 2-10.5-.6-10.7-1l-.6-1.5s-1.2-1-1.8-2q-1 .6-2.7 1c-1 0-9.1-4.3-8.5-3.2" style="fill:#709823"/><path d="M20.7 73s1.5-2 3.5-1.6 2 2.1 2 2.9l-.3 1.3-1.9-.5s.5-1.3-.4-1.6-1.2.7-1.2.7zm9.7-2.1c-.2.1-1.3-.3-1.5.5q0 1.3 2 1.1c1.1 0 1.7-.2 1.8.3s0 2.2-3.1 2.1c-3.2 0-4-2.7-3.3-4.2.6-1 2-2 3.2-1.6s1.3 1.5 1 1.8m4.1 1.9c.7-.7-.5-2.5-.2-3.7.3-1 1.8-1.8 2.7-1.1s0 1.5-.4 2-.5 1.5.9 1.2q2-.6 2.4-2.4.2-2.1-1.7-3.3a5 5 0 0 0-5.9 1.7c-1 1.3-.4 3.3.4 4.6q1.3 1.8 1.8 1m5.1 6.9h1.8s.1-.8 1.7-.6c.8.1 1.3.4 2.4-.1q.9-.8 1.5-1.1c.6-.2 1.4 0 1.6-.4s-.3-1.8-2.1-1.5c-1 .2-1.2.6-2.1.8-1.4.2-1.7-.5-3.3 0-2 .6-2 2-2.2 2.5s.6.4.6.4" style="fill:#a7c32f"/><path d="M63.2 85c-33 0-46.4-9-51.5-14.5-2.4-2.6-4.2-5.4-4-7.2.4-6.5 20.5-16 55.2-16.5 31.4-.3 49.8 7.3 55.9 13.9q2 2.3 1.9 4.1c-.4 4.2-11 19.9-56.2 20.2zM11.7 63.5c0 .8 1.9 5.3 9.5 9.5 6.7 3.8 19.7 8.4 43.2 8.2 41.2-.3 52-13.9 52.5-16.6-.6-2-13.5-14.4-54-14-34.5.4-50.7 10-51.2 12.9m105.2 1.1" style="fill:#fff"/><path d="M120 6.8c.3.5 1.3 8.4 1.3 8.4L52.6 27s69-1.4 69.3-1c.2.5.1 8.4.1 8.4l-73.4-2.3c-2.6-.1-4.4-.7-4.4-2.4.1-1.8 2.3-2 2.3-2s-2.4.5-2.9-1.4c-.5-2 2-3 6-4S120 6.8 120 6.8" style="fill:#ae5731"/><path d="M58.6 32.5s-1.3 3.7-2 5c-.7 1.1-1.7 3.6-.6 4.8s2.8 4.6 2.9 5.8-1.4 7.7-1.4 7.7l1.4 8s2.3-.4 2.3-.8S65 51.8 65 51.8v-4.6s-4.7-6.1-4.5-7.3 1.3-6.3 1.3-7.3z" style="fill:#fec56c"/><path d="M47.2 66s1.2-.8 2.6-.3S53 68 53 68s-.8-8.4-.5-12.1c.2-2.3 1.3-4.7.9-6.2-.5-2-3.3-2.9-3.7-6.5-.5-3.7 2-6.1 2.3-9 .4-4 .2-5.7.2-6.5-.1-.8.3-2 1.3-2q1.4 0 1.4 1.5c0 1.5.5 4.5-.5 8.5-.7 3-2 3.6-1.8 6.8.4 4 3.3 3 3.7 7 .2 2.5-.7 4.5-.9 7-.1 1.9 1 13.7.8 14.4s-1.9 1.3-2.8.9c-1-.5-2.8-3.4-4-3.7s-3.5.3-3.5.3z" style="fill:#fca72e"/><path d="M70.2 67.5s-.6-1.8.1-3.4c.8-1.5 2.3-2.5 3.4-2s1.2 1.6.8 2.1-.4 1.4-.4 1.4z" style="fill:#a7c32f"/><path d="M26.6 64.8c0 .7 2.1 1.5 4.2 1.5 1 0 3.5-1.5 3.6-2l.2-2.5-7.4.8s-.7 1-.6 2.2M21.8 67s-1.8 2.1-1.6 2.7.8 1.7 1.3 1.7 4.5-1.5 4.7-2c.1-.6-.1-1.8-.6-2s-3.8-.4-3.8-.4" style="fill:#709823"/><path d="M21.8 66c-.7.2-2.3 4-1.5 3.8 1 0 1.7-.8 3-1.2 1.3-.5 2.6-.5 2.7-1s-2.8-2-4.2-1.6m5.4-2.9c.3.5 2.6 1.6 3.6 1.4s3.1-1.2 3.5-1.8c.4-.5.5-1.4-.4-1.6s-2.7 1.4-3.2 1-.2-1.2-1.2-1.3-2.8 1.6-2.4 2.3m6.7 12.7c.2.4 1.9-.3 3.7-.3 1.7 0 3 0 3-.6s-2-2.3-3.5-2c-1.3.2-3.9 1.9-3.2 2.9m5.6-4.6c0 .7 1.7 1.4 2.2 2 .6.5.6 3.5 1.3 3.3.6-.2 2-.9 2-2.3.1-1.3-1.6-2.6-2.2-3.2-.5-.5-1.4-1.3-1.8-1.2s-1.6 1-1.5 1.4m9.8-1.2c-1.2.3-1.3.1-1.7.9s-.9 2.2-.5 2.5c.4.4 1.8 1.2 2.8 1.4q2.3.3 3.1-.1c.4-.1.7-3.2.3-3.7s-3-1.3-4-1" style="fill:#a7c32f"/><path d="M49.6 72c-.4.4 0 .9.3 1s1.1 0 1.4-.2q.4-.5-.2-.8c-.5-.1-1.3-.2-1.5 0" style="fill:#fec56c"/><path d="M40.8 67c0 .5 2.8 3 4.3 2.9 1.6-.1 3.2-1 3.3-1.2 0-.3.1-1.8-.1-2.2s-2.2-2.1-4.4-2.2c-2.3 0-3.2 2-3.1 2.8" style="fill:#a7c32f"/><path d="M44.1 66.3c-.2.2 0 1.1.3 1.3s1.1.1 1.3-.2-1.2-1.4-1.6-1.1" style="fill:#fec56c"/><path d="M82.2 56c0 1 2.2 2.8 2.9 5.9l1.2 7 4.8 6s2 1.3 8.5-1.2c6.8-2.8 10-2.4 12.7-4 2.7-1.8 5.1-4.9 5.5-5.6.3-.8-2.6-6.1-5-8.2-1.4-1.2-4.4-2.2-6-5.5-1.5-3.4-1.9-4.5-2.8-4.6s-5.2 1.5-7.2 2.8-3.4 3.7-7.5 5C85.2 55 82.1 55 82.2 56" style="fill:#363b34"/><path d="M58.1 18.8C57 19.2 57 21 57 21l1 6 3.6-.1s-.6-4-.5-4.8-1-4.2-3-3.4" style="fill:#fec56c"/><path d="M65.3 17.9c-1.2.4-.4 2.5 0 4.7.9 5.9.7 10.4.3 12.7s-1.3 4.4-1.5 5.6c-.2 1-.1 2.7-.1 2.7s-1.6-2-1.6-3.7c0-2.5 1.2-4.3 1.4-10.5.1-3.4-.1-4.3-.6-7.2-.5-3.4-1.6-3.6-2.6-3.3-1.1.4-.2 2.7 0 4.1q.8 3.2.8 6s-.2 4.8-.9 6.9c-1 3.2-1.5 4.7-.5 6.9.8 1.5 3.6 3.7 3.4 7q-.1 2.6-1.2 4.5c-.7 1.2-1.7 2.9-2 5.2-.2.7-.3 3.3-.3 3.3s-1.2-4.3-.3-8 1.2-5.1.6-7.2c-.5-2-3.2-3.5-3.3-6.4-.2-3.4 1.6-4.5 2-7.6.6-3.6 0-6.8-.4-9-.3-1.4-1.4-4.7-1.4-4.7s-1.4-.6-2 .8c-.3.8.4 3 .7 4.4.3 1.1.7 4.7.7 6.7q-.2 2.8-1.4 5a8 8 0 0 0-.5 6.2c.8 2.4 3 4.4 3.1 6.1.1 1.8-.7 4.4-1 7-.4 3.4 0 6.2.3 9l.3 6.7h3.4l-.3-4.9s0 1.6 1 3.1c.7.9 2.3 2 2.3 2l2.4-2s-1.6-.7-2.6-3.7a11 11 0 0 1-.2-6.4c.6-2 1-2.7 1.3-3.4l.8-1.6-.8 3a19 19 0 0 0-.5 5.1c.2 1.6.7 3.8 1.8 5l1.9 1.7 2.4-1.9s-2.3-.9-3-4.5c-.3-2.6 1.1-8.5 1.5-10.3q.6-2.8-.4-6c-.5-1-1.8-3.2-1.4-5.4.3-2.1 2-4.5 2-9.8s-.4-8.8-1.3-11.7c-.4-1.3-1-2.7-2.3-2.2" style="fill:#fca72e"/><path d="M63 81.6s-3-1.6-2.8-4.7c.2-3.2 2.7-8.5 13.7-11.8 10.8-3.2 15.1-.3 16.6 1.6 1.5 1.8 1.9 7.3-2.1 11.6S63 81.6 63 81.6" style="fill:#fff"/><path d="M68 75.5c1 2.6 6 3.6 11.3 1.7 4.8-1.7 6.7-4.8 5.8-7.8s-6.5-4-11-2.3c-3.1 1.3-7.6 4.3-6.1 8.4" style="fill:#fe8d06"/><path d="M20.8 85.8c-1.3 1-.3 6.2 6.1 10.8s11 4.5 12.2 2.7c.8-1.4-4.1-4.8-8.6-8s-8.1-7-9.7-5.5" style="fill:#fff"/><path d="M54.4 71.9c.2.8 1.9 2.4 3 2.3s2.1-2 2-2.4c0-.4-3.9-1-4.2-1s-1 .7-.8 1" style="fill:#709823"/><path d="M59.8 70.8c.2.4-.6 2.2-1.4 2.2s-3.2-1.8-3.1-2.3c0-.4 4-.5 4.5 0" style="fill:#a7c32f"/></svg>