<svg xml:space="preserve" width="16" height="16" viewBox="0 0 128 128"><path d="M119.7 102H8.4A4.3 4.3 0 0 1 4 97.7V30.3c0-2.4 2-4.4 4.4-4.4h111.2c2.4 0 4.4 2 4.4 4.4v67.4c0 2.4-2 4.4-4.3 4.4" style="fill:#2e7d32"/><path d="M119.8 90H8.2A4 4 0 0 1 4 85.6V30.3c0-2.4 2-4.4 4.4-4.4h111.2c2.5 0 4.4 2 4.4 4.4v55.4c0 2.3-1.9 4.2-4.2 4.2" style="fill:#66bb6a"/><path d="M39.7 65.4q0-2-1.3-3.1A11 11 0 0 0 34 60q-4.3-1.3-6.2-3.4a8 8 0 0 1-2-5.4q0-3.3 2-5.4 1.8-2 5.2-2.5V40q0-.9 1-1h1q1 .1 1 1v3.5q3.4.4 5.3 2.8a10 10 0 0 1 1.8 5.6q0 .8-.8.9h-2a1 1 0 0 1-.9-.8 7 7 0 0 0-1.3-3.7 4 4 0 0 0-3.6-1.7q-2.5 0-3.7 1.2-1.2 1.3-1.3 3.5 0 2 1.4 3.3t4.4 2.2 4.8 2.2 2.5 2.7a8 8 0 0 1 .8 3.8q0 3.3-2 5.4a9 9 0 0 1-5.7 2.5v2.9q-.1.8-1 .9h-1.1a1 1 0 0 1-1-1v-2.8a9 9 0 0 1-5.8-2.7 9 9 0 0 1-2-5.4q0-.8.7-.9h2.1q.8 0 .8.7.2 2.3 1.5 3.6 1.5 1.5 4.2 1.5 2.5 0 4-1.2 1.6-1.4 1.6-3.5M35.6 74l-3-.8.4-29.8v-1l3 1-.4 29.8z" style="fill:#fff"/><circle cx="84.8" cy="57.9" r="18.5" style="opacity:.5;fill:#2e7d32"/><path d="M106.5 33.1c.8 5.4 5 9.7 10.5 10.5v28.6c-5.4.8-9.7 5.1-10.5 10.5h-85c-1.2-5-5.3-9-10.5-9.9V44.3c5.6-.9 10-5.5 10.6-11.2zm1.8-2H19.7v.7c0 5.9-4.8 10.7-10.7 10.7v32.2c5.7 0 10.3 4.4 10.7 10h88.6c0-5.9 4.8-10.7 10.7-10.7V41.8c-6 0-10.7-4.8-10.7-10.7" style="fill:#2e7d32"/><path d="M53 25.9h22v76.2H53z" style="fill:#ffecb3"/><path d="M53 89.9h22v12.2H53z" style="fill:#ffc06c"/></svg>