<svg xml:space="preserve" width="16" height="16" viewBox="0 0 128 128"><path d="M116 4H12a8 8 0 0 0-8 8v104a8 8 0 0 0 8 8h104a8 8 0 0 0 8-8V12a8 8 0 0 0-8-8" style="fill:#427687"/><path d="M109.7 4H11.5A7.6 7.6 0 0 0 4 11.5v97.9c0 4.1 3.3 7.5 7.5 7.5h98.1c4.1 0 7.5-3.3 7.5-7.5V11.5c0-4-3.1-7.4-7.2-7.5z" style="fill:#8cafbf"/><path d="M39.7 12.9c0-2.3-1.6-3-10.8-2.7-7.7.3-11.5 1.2-13.8 4s-2.9 8.5-3 15.3c0 4.8 0 9.3 2.5 9.3 3.4 0 3.4-7.9 6.2-12.3 5.4-8.7 18.9-10.6 18.9-13.6" style="opacity:.5;fill:#b4e1ed"/><path d="M17.7 41.2h10.2l18.7 31.2h.5l-.5-9V41.3h8.7v46.6h-9.2l-19.8-33h-.5l.5 9v24h-8.6zm56.8 44.5a24 24 0 0 1-12.3-21.2 24 24 0 0 1 12.3-21.2q5.5-3 12.3-3.1 5.5 0 10 2 4.5 1.8 7.7 5.3l-6 6a16 16 0 0 0-5.2-3.7q-2.8-1.3-6.6-1.3a16 16 0 0 0-7.9 2 15 15 0 0 0-5.6 5.7 16 16 0 0 0-2.2 8.3q0 4.7 2.2 8.4a15 15 0 0 0 5.7 5.6q3.6 2 8 2 6.4 0 10.6-3.8 1.3-1.2 2.3-3 .8-1.8 1.4-4H86.6v-7.5h22.8q.4 1.9.4 4.1 0 4.7-1.4 8.6-1.4 4-4.2 7-3.1 3.4-7.6 5.1a26 26 0 0 1-22.1-1.3" style="fill:#fafafa"/></svg>