<svg xml:space="preserve" width="16" height="16" viewBox="0 0 128 128"><path d="m36 124-2-.2a12 12 0 0 1-9.4-8l-20-60a12 12 0 1 1 22.8-7.6l13 39 62.2-78.6a12 12 0 0 1 19 14.9l-76 96A12 12 0 0 1 36 124" style="fill:#546d7a"/><path d="M75.2 59c1.5-1.3 30-35.3 30-35.3s2.3-2.5.3-4.8c-1.9-2-4.4-.7-5.6.7S73 51.2 72 52.6q-1.5 2.9 0 5.6 1.6 2.2 3.3.7" style="opacity:.35;fill:#fff"/><circle cx="108.5" cy="12.8" r="3.3" style="opacity:.35;fill:#fff"/><path d="M12.7 65.5c.7 0 .6-3.8 2.3-7.4 1.2-2.5 2.8-3.8 2.8-5.2S16 44.6 14.5 45c-2 .6-4.6 3.2-5.1 7.2-1 6.3 2.1 13.3 3.3 13.3" style="opacity:.35;fill:#fff"/></svg>