<svg xml:space="preserve" width="16" height="16" viewBox="0 0 128 128"><path d="m123.6 65.5-3-25.1-.2-3.5c0-2.6-2.2-4.7-4.7-4.7H12.6A5 5 0 0 0 8 36.9l-.1 3-3.4 25.8c-.2 1.5 1 2.3 2.3 3.1 22 13.8 35.7 30.7 40.2 36.8 1 1.3 4.2 1.4 4.2 1.4l13 .1 12.4-.2s3.3 0 4.2-1.3c5-6.8 20.9-26.7 40.6-37 1.4-.6 2.5-1.6 2.3-3" style="fill:#0288d1"/><path d="M4.2 67s3 5.4 18.5 20.5c12.4 12.2 25.3 19 25.3 19s-7.5-14-19.4-23.9S4.2 67 4.2 67M124 67s-4 5.6-19.3 20.7C92.3 100 80 106.4 80 106.4s7.6-13.9 19.5-23.8S124 67 124 67" style="fill:#143c7c"/><path d="M124 65.2q-.6-2.4-.7-2.3l-1 .4c-.3 0-3.2 1.3-7.4 3.6l-3-23.5 9-.3-.4-4c-.3 0-31.4 1.3-58.5 1.3S8 38.8 7.8 38.8l-.4 4 8.7.5-3 23.6c-4.1-2.3-7-3.5-7.2-3.6l-1.1-.4-.7 2.3v1.7s17.4 9.5 24.5 15.7a171 171 0 0 1 19.3 23.7q-.2.1 1.2.5c1.1.3 3.8.2 3.8.2l-1.3-2.5a106 106 0 0 0-31-33l3.7-27.9a981 981 0 0 0 79.4.1l3.7 27.8a97 97 0 0 0-30.8 33l-1.3 2.5s2.6 0 3.7-.2q1.4-.4 1.2-.5c.9-1.6 12.3-17.4 19.4-23.7C106.6 76.4 124 67 124 67s.2-.8 0-1.7" style="fill:#4fc3f7"/><path d="M7.2 44.8a1012 1012 0 0 0 114 .3l-.3-2c-5.9.2-34.5 1.4-58.8 1.4-24.8 0-50.3-1.5-54.7-1.7z" style="opacity:.6;fill:#0d47a1"/><g style="opacity:.6"><g style="opacity:.6"><path d="M100 77c9-7.2 19.3-12.4 23.3-14.2l-.3-2.2a133 133 0 0 0-24.3 14.8 121 121 0 0 0-26 31.6H75c3-5.2 12.5-20 25-30" style="fill:#0d47a1"/></g><path d="M29.1 75.4c-10-8-21.1-13.4-24-14.8l-.3 2.1a127 127 0 0 1 23 14.3A118 118 0 0 1 53 107h2.4a121 121 0 0 0-26.2-31.6" style="fill:#0d47a1"/></g></svg>