<svg xml:space="preserve" width="16" height="16" viewBox="0 0 128 128"><path d="M49.4 5.3c-27.7 0-36.3 38.5-36.4 39-3.5 24.4-1.2 57.6 8.6 71.3 3.9 5.4 11.4 5.7 11.4 5.7h34s7.5-.3 11.4-5.7c9.8-13.7 12.1-47.3 8.6-70.8 0-.6-3.2-39.5-37.6-39.5" style="fill:#3c2c23"/><linearGradient id="a" x1="50" x2="50" y1="32.3" y2="-3.2" gradientTransform="matrix(1 0 0 -1 0 128)" gradientUnits="userSpaceOnUse"><stop offset="0" style="stop-color:#303f9f"/><stop offset=".5" style="stop-color:#273492"/><stop offset="1" style="stop-color:#1a237e"/></linearGradient><path d="M96 120.8v3.2H4v-3.2c0-8 4.7-13.8 11.9-17.8 8.9-5 21.6-7.2 34.1-7.3s25.2 2.5 34 7.6c7.3 4.1 12 10 12 17.5" style="fill:url(#a)"/><path d="M50 92.4h-9v10a8 8 0 0 0 8.2 8.1h1.6c4.6 0 8.3-3.6 8.3-8.1v-10z" style="fill:#7a4c32"/><path d="m104.2 104.7-4 19.3h15v-3.2c0-6.7-4.2-12.1-11-16.1" style="fill:#1b2b8f"/><path d="M50.4 16c-17.2 0-33.1 12.8-33.1 40a40 40 0 0 0 25.2 38.8 24 24 0 0 0 7.9 1.5q3.6 0 7.9-1.5A40 40 0 0 0 83.5 56c0-27.2-15.9-40-33.1-40" style="fill:#a56c43"/><path d="M54.2 68h-7.6q-1.1.5-.7 1.7c.3.7 1.7 2.6 4.5 2.6s4.2-2 4.5-2.6q.4-1.2-.7-1.6" style="fill:#875334"/><ellipse cx="35.1" cy="58.9" rx="4.9" ry="5" style="fill:#42312c"/><ellipse cx="65.6" cy="58.9" rx="4.9" ry="5" style="fill:#42312c"/><path d="M41.4 49.8c-1-1.2-3-3-7.2-3s-6.4 1.8-7.3 3q-.5 1 0 1.6t1.9.4c1.4-.2 2.5-1.2 5.4-1.2 2.8 0 4.4.9 5.3 1.2q1.4.3 1.9-.4t0-1.6m32.5 0c-1-1.2-3-3-7.3-3s-6.3 1.8-7.2 3q-.5 1 0 1.6t1.9.4c1.4-.2 2.5-1.2 5.3-1.2 2.9 0 4.5.9 5.4 1.2q1.4.3 1.9-.4t0-1.6" style="fill:#42312c"/><path d="M58.5 76.1a25 25 0 0 1-16.6 0c-1.9-1-3.7.6-3 2.3s6.4 5.3 11.3 5.3 10.4-3.7 11.1-5.4c.8-1.6-1-3.2-2.8-2.2" style="fill:#473530"/><path d="M85.2 40.1s-.6-33-35.2-33-35.2 33-35.2 33-1.8 46.8.7 53.3c2.6 6.6 7 6.3 7 6.3s-1-28.8-.8-41.7c0-3-.4-13.6 5.3-15a74 74 0 0 0 32.5-16.2c3 6.8 12.7 13.6 16.3 16.2 2.9 2.1 2.8 11 2.9 15L77 99.7s4.7.4 7.4-6.3c2.7-6.6.7-53.3.7-53.3" style="fill:#3c2c23"/><path d="M59.3 104.6H39.4l8 19.4h5z" style="fill:#f5f5f5"/><linearGradient id="b" x1="30.6" x2="41.2" y1="28.7" y2="2.8" gradientTransform="matrix(1 0 0 -1 0 128)" gradientUnits="userSpaceOnUse"><stop offset="0" style="stop-color:#5c6bc0"/><stop offset="1" style="stop-color:#3949ab"/></linearGradient><path d="m40.9 96-7.8.9-8 17.2 10.9-4.3 9.5 14.2h2.7z" style="fill:url(#b)"/><linearGradient id="c" x1="69" x2="61.2" y1="29.9" y2="2.7" gradientTransform="matrix(1 0 0 -1 0 128)" gradientUnits="userSpaceOnUse"><stop offset="0" style="stop-color:#5c6bc0"/><stop offset="1" style="stop-color:#3949ab"/></linearGradient><path d="m67 96.9-7.9-1-7.3 28.1h3l10-14 10.1 4.1z" style="fill:url(#c)"/><linearGradient id="d" x1="110.1" x2="98.9" y1="75.4" y2="4.9" gradientTransform="matrix(1 0 0 -1 0 128)" gradientUnits="userSpaceOnUse"><stop offset="0" style="stop-color:#90a4ae"/><stop offset=".3" style="stop-color:#889da8"/><stop offset=".6" style="stop-color:#78909c"/><stop offset="1" style="stop-color:#607d8b"/></linearGradient><path d="M121.8 56.7q-.5-.8-1.5-.8-1.3 0-1.6 1.3l-1.5 8q-.1.8-1 1.2l-8 3.8-.7.2q-.8 0-1.3-.5l-6.1-6.5q-.6-.7-.5-1.5l1.5-7.9c.2-1.1-.7-2-1.7-2q-.6 0-1 .4a17.2 17.2 0 0 0-1.2 25.5 7 7 0 0 1 2.2 6.4L92.1 124h10.3l7-37.8q.7-3.8 4.3-5.3c5-2 9-6.7 10-12.6q1-6.3-1.9-11.6" style="fill:url(#d)"/><radialGradient id="e" cx="50" cy="63.7" r="64.8" gradientTransform="matrix(0 -1 -.631 0 90.2 114.32)" gradientUnits="userSpaceOnUse"><stop offset=".8" style="stop-color:#554138;stop-opacity:0"/><stop offset="1" style="stop-color:#554138"/></radialGradient><path d="M84 103.3c-8.8-5-21.5-7.6-34-7.6S24.8 98 16 103c-5-16.3-5.7-40-3-58.6.1-.6 8.7-39.1 36.4-39.1 34.4 0 37.5 39 37.6 39.5 2.7 18.1 2 42.1-3 58.5" style="fill:url(#e)"/><linearGradient id="f" x1="86.7" x2="111.9" y1="20.5" y2="20.5" gradientTransform="matrix(1 0 0 -1 0 128)" gradientUnits="userSpaceOnUse"><stop offset="0" style="stop-color:#8d5738"/><stop offset=".5" style="stop-color:#a56c43"/></linearGradient><path d="m94.5 117.4-1.9 2.1s-5.7-1.2-5-4.5c.1-.8 1.5-2.4 1.5-2.4s-2.8-2.4-2.4-4c.5-1.5 3.2-2.8 3.2-2.8s-2-1.2-1.3-3.6c.6-1.6 3.6-2.2 3.6-2.2s-2.8-4 2.8-5c1.8-.2 5.8.4 9.3 3s5.2 4.2 6.8 7.7c2.5 5.2-1.9 14.2-5.3 14.3-2.8 0-11.3-2.7-11.3-2.7" style="fill:url(#f)"/><linearGradient id="g" x1="50" x2="50" y1="89.1" y2="129.3" gradientTransform="matrix(1 0 0 -1 0 128)" gradientUnits="userSpaceOnUse"><stop offset="0" style="stop-color:#0068b5"/><stop offset=".8" style="stop-color:#4c8eea"/><stop offset="1" style="stop-color:#5e97f6"/></linearGradient><path d="M49.7 4.6c18 0 34.4 11.7 37.3 40.2 0 0-9.7-8-36.8-8C21 36.8 13 45.3 13 44.4 16.1 15.9 32.6 4.6 50.2 4.6z" style="fill:url(#g)"/><linearGradient id="h" x1="49.7" x2="49.7" y1="82.5" y2="108.3" gradientTransform="matrix(1 0 0 -1 0 128)" gradientUnits="userSpaceOnUse"><stop offset="0" style="stop-color:#0068b5"/><stop offset="1" style="stop-color:#5e97f6"/></linearGradient><path d="M27 34.5c0-18.8 8.9-28.9 22.7-28.9s22.8 10.5 22.8 28.9c0 14.9-10.7 3.1-22.8 3.1S27 49.4 27 34.5" style="fill:url(#h)"/><path d="M50 28.5c-21.6 0-32 11.9-32 11.9 0 2 2.2 5.5 7.2 6.3 7 1.1 11.5-4.5 24.9-4.5h.1c13.5 0 18 5.6 24.9 4.5 5-.8 6.9-3.8 6.9-5.8 0 0-9.8-12.4-31.8-12.4" style="fill:#5e97f6"/></svg>