<svg xml:space="preserve" width="16" height="16" viewBox="0 0 128 128"><path d="M53 5.4s-2.6-.3-5.5 1.9c-3.7 2.8-3.3 4-3.3 4s-7.5 1-15.8 7.5-14 18.4-16.9 24.3-7 13.9-7.6 16-.4 3.8.3 7.5 4.1 15.7 5 19c.7 3.4 2.9 8.9 3 10.3s4.5 1.8 9.3.8c4.1-1 8-3.4 8.4-4.8S27 81 25.4 76.6s-2.6-9-2.6-9 2.3-3.7 4.3-7.4 6.2-10.4 6.2-10.4.3 4 .3 8.4-1.4 10-.3 12.8l3 7.6s-2.1 9.4-4.8 17.9L27 109.8s1.2 1 2.7 1.7 2.8 1 2.8 1l-.6 3.2s10.6 7.1 32.6 7.6 38-6.8 38.5-8.5-6.6-26.4-7.1-28.3l-2.7-10.1s3-2.6 3.4-8.8-.5-17.7.3-17.9 8.2 16.8 8.2 16.8-.6 8.3-2.4 14.5c-1.8 6.3-2.8 9.9-2.2 11s3.3 3.3 9 4.4 9.8 1 10.3-.8c.5-1.7 3-16 3.7-25.6s-.8-14.5-2.3-18.5-6.7-12.2-8.5-17.2-5.1-13.5-7.6-15S97 15 92.3 13.7L83.5 11s-.9-2.5-5.1-4.4c-2.7-1.2-4.4-.7-4.4-.7l-10 2z" style="fill:#c9c9c9"/><path d="M27.3 23.9s-5.6 4.6-10.6 14.3-6 15-7.7 17-3.5 4.9-2.2 11 7 27.8 7 27.8 5-.9 7.6-1.7 5.7-2 5.5-2.9l-6.2-21.9s-6.8-3.5-6.2-4.2 7 0 7 0L28 52.9c1.4-2.6 2.8-4.2 2.7-5.5-.2-1.2-3-9.3-2.2-10.2s6 6.7 7.3 8.1q1.8 2.2 1.6 2.2c-.2 0-1.8 18.9-.6 20.4s2.8 1.5 2.8 1.5S46.8 59 50.9 52.2s6.3-11.6 6.3-11.6-6.5-9.5-10-16.6c-2.8-6-3.6-10.4-3.6-10.4s-3.8 1.4-6.7 3.1-5.3 3.5-5.3 3.5 4.6 11.9 3.2 13.2c-1.5 1.4-7.5-9.5-7.5-9.5M59 39s2.8-5 2.6-5.7-6.5-8-9-13.2C48 10.8 50 7.7 50 7.7s-1.3.4-2.7 2-2 3.4-2 3.4 1 5 3.8 10.7A81 81 0 0 0 58.9 39M73.7 8l2.3-.6c.8 0 2.8 1 4 2s2.3 3 2.3 3-2.6 8.7-10 22.5c-7.3 13.7-14.2 26-17.7 31.3s-6.4 9.3-6.4 9.3-1.8.7-2.4-1.2l-1.3-5.6L55.6 52l8.7-16.3L72 18.8zm10.6 5.6c.6-.2 3.9.7 8.3 2.4s8.5 3.7 8.6 4.7c.2 1-4 13.2-2.7 13.8s6.4-9.8 7.1-9.8c.8 0 3 3.5 4 6.5s1.5 5.7 2.5 7.7 8.7 12.5 8.9 25.2-2.9 27.3-3.2 28.2-4.1 1.3-7.3.6-7.7-2-7.3-3.5l3-10c.8-3.2 1-7 1.4-7.5s7.4-3.4 7.3-4.4-5.7-.9-6.7-2.2-8.8-17.9-9-19c0-1.2 3.8-6.9 2.6-7.6-1.1-.8-10 10.2-10.2 11-.1.6 1.6 4.4 1.7 10.2s1 9.7-3 12c-4 2.1-11.4 3-16.3 1.7s-6.5-3.3-6.5-3.3-3.4 1.9-8 3.2-8.2 1.7-8.2 1.7 12-17 21.1-35.5a244 244 0 0 0 11.9-26.1M41.9 90.4c-1.8.3-2.2 5.5-3.1 9.8L35.6 113s2.7 1.3 8.6 2.6L50 117l5.7-23.3-7.6-2c-2.9-.8-4.7-1.6-6.2-1.3m22.9 6.2c-.8 0-3.2 5.7-4.5 11.4-1.3 5.6-2.1 10.4-2.1 10.4s3 .6 5.8.7 5.8-.4 5.8-.4-.4-7.3-1-11.3c-.6-4.2-2.7-10.7-4-10.8m10.7-3.7s3.6-.3 8.4-1.3c4.7-1 6.8-2.5 8-1.6 1.2 1 2.8 8.2 4 13s2.6 9.7 2 10.4c-.8.7-8.8 2.5-10.9 3.2s-7.6-8.1-7.6-8.7z" style="fill:#fefefe"/><path d="M37.4 83.7c0 .2-3 11-3.8 14.5l-3.8 13.3 2.8 1L37 95.2l2.4-8.9.8-2.4zm1.2-6.5s.3-1.9.6-2.6 12.4-18 17.3-26.8c5.2-9.6 7.5-15.3 7.5-15.3s-5.3-6.1-8.2-11-4.1-9.8-3.9-11.9 2-4 2-4S57 4.4 64.1 4.2c7.4-.3 11.4 1.7 11.4 1.7s2.2 4-1.5 12.9c-5 12-9.2 20.4-14.5 29.7S42 78.2 42 78.2zM13.7 94.1c.3 1.2 2.4 1.9 7.4.5s6.6-3.5 6.3-4.5-2-.6-7.2 1-6.8 1.9-6.5 3m89.1-3.8c0 1.4 2.7 3.6 7 4.5s7.7 0 8-1.3-3.1-1.6-7-2.5c-4-.8-8-2.2-8-.7" style="fill:#9a9a9a"/><path d="M33.7 75.2c-1.4.6-.7 2.8-.8 4.7q-.2 2.8.7 4c.7 1 10.3 5.6 31 5.4s30.7-4.2 31.2-4.8c.8-1 .8-3.3.8-5.3 0-2.6-.3-5-1.7-4.5-1 .3-9.3 3.5-18.2 4.4-9 .9-21.5.5-27.7-.4-11-1.5-14-4-15.3-3.5m34.5 4.3S67 78 65 78c-1.6 0-3 1.6-3 1.6s-8.4 8.4-12 17c-2.7 6.6-5 14-7.1 18.3s-4.3 7.2-3.5 8.7 9.9 3.2 11.5 2c1.5-1 4-13 5.8-19A49 49 0 0 1 62.9 92c.4-.5 1.1 0 2.2.4.4 0 1.7-.7 1.8-.5 1.3 2 3 5.1 4.9 10.2 3.8 10.4 4.8 23 5.6 23.6s3.8.8 6.6.4c2.5-.4 5.5-1.3 6-2.3s-4.3-14-9.6-24.9a109 109 0 0 0-12.2-19.4" style="fill:#434343"/><path d="M59.3 79.5H62s-4 4.6-3.7 5.8 5.2 5.8 6.8 5.6 6-4.9 6-5.8-3-5.6-3-5.6H71s3.2 4.1 3 6c0 2-6 7.8-8.9 8-2.9 0-9.2-5.2-9.4-8.2-.2-2.4 3.6-6 3.5-5.8" style="fill:#606568"/></svg>