<svg xml:space="preserve" width="16" height="16" viewBox="0 0 128 128"><path d="M112.2 124v-4.4c0-13.4-23.8-19.9-47.2-19.8-23.3 0-47.2 5.6-47.2 19.8v4.3z"/><path d="M64 90h-9v10c0 4.6 3.6 8.2 8.2 8.2h1.6c4.6 0 8.3-3.6 8.3-8.1V90zm27.3-39.6H36.7c-6 0-10.7 5.2-10.7 11.4s4.8 11.5 10.7 11.5h54.6c6 0 10.7-5.2 10.7-11.5s-4.8-11.4-10.7-11.4" style="fill:#e59600"/><path d="M64 11c-17.4 0-33.5 18.7-33.5 45.5C30.5 83 47 96.3 64 96.3S97.5 83 97.5 56.5C97.5 29.7 81.4 11 64 11" style="fill:#ffca28"/><linearGradient id="a" x1="53" x2="53" y1="91.1" y2="55" gradientTransform="matrix(1 0 0 -1 0 128)" gradientUnits="userSpaceOnUse"><stop offset="0" style="stop-color:#1de9b6"/><stop offset=".2" style="stop-color:#19ddaf"/><stop offset=".5" style="stop-color:#10be9c"/><stop offset="1" style="stop-color:#018c7d"/><stop offset="1" style="stop-color:#00897b"/></linearGradient><path d="m45.8 33.3 27.8-5.4-15.3 20 10-2-30.2 36.4 2-15.3-7.7 3.2z" style="fill:url(#a)"/><ellipse cx="47.6" cy="58.8" rx="4.9" ry="5.1" style="fill:#404040"/><ellipse cx="80.4" cy="58.8" rx="4.9" ry="5.1" style="fill:#404040"/><path d="M40 50.7c3-4.2 9.8-4.6 13.7-1.5q1.1.8 1.6 2c.4 1.3-.8 2.3-2 2l-2.2-.8q-1.7-.6-3.6-.6c-1.8 0-3 .2-4.7 1-.7.2-1.3.7-2.1.3-1-.4-1.3-1.5-.7-2.4m46 2.4-.8-.4c-1.8-.7-3-.8-4.7-.9q-2.2-.1-4 .7c-.9.3-2 1-2.8.7-1.3-.4-1.3-1.8-.6-2.8q1.3-1.6 3.3-2.4c3-1.3 6.5-1 9.2.6q1.5.8 2.4 2.1c.8 1.3-.4 3-2 2.4" style="fill:#6d4c41"/><path d="M67.9 68H60q-1 .5-.6 1.7c.3.7 1.7 2.7 4.5 2.7s4.3-2 4.6-2.7q.3-1.2-.7-1.6" style="fill:#e59600"/><path d="M72.4 76.1a26 26 0 0 1-16.8 0c-1.8-1-3.7.6-3 2.3s6.5 5.4 11.4 5.4 10.6-3.8 11.3-5.4-1-3.4-2.9-2.3" style="fill:#795548"/><linearGradient id="b" x1="111.4" x2="118.5" y1="46.9" y2="46.9" gradientTransform="matrix(1 0 0 -1 0 128)" gradientUnits="userSpaceOnUse"><stop offset=".5" style="stop-color:#ffca28"/><stop offset="1" style="stop-color:#ffb300"/></linearGradient><path d="M114 86.8h.2c1.7.2 3.2-.9 3.4-2.4l.9-6c.2-1.5-1-2.8-2.8-3s-3.3.8-3.5 2.3l-.8 6c-.2 1.5 1 3 2.7 3.1" style="fill:url(#b)"/><linearGradient id="c" x1="99.4" x2="124" y1="47.1" y2="47.1" gradientTransform="matrix(1 0 0 -1 0 128)" gradientUnits="userSpaceOnUse"><stop offset=".5" style="stop-color:#ffca28"/><stop offset="1" style="stop-color:#ffb300"/></linearGradient><path d="M112.4 100c-5 .2-10.4-.8-12-5.9-1-2.7-.7-5.4-.2-8 .6-2.9.7-4.3.5-6.6L99.5 65s-.6-2.4 1.5-3c2.3-1 3.2 1.6 3.2 1.6l2.5 17.9 11 1.2q.2.1.6-2.5c.2-.7 0-2.1.1-3l1.4-9.6a2 2 0 0 1 2.4-1.6c1.5.2 1.9 1.3 1.8 2l-.6 6.6q-.4 4.4 0 8.7l.1 2.2c.4 3.6-.2 7.4-1.7 10.2-1.7 3-4.4 4.3-9.4 4.5" style="fill:url(#c)"/><linearGradient id="d" x1="105.9" x2="112.7" y1="47.1" y2="47.1" gradientTransform="rotate(178.7 -.26 65.22)scale(-1 1)" gradientUnits="userSpaceOnUse"><stop offset=".5" style="stop-color:#ffca28"/><stop offset="1" style="stop-color:#ffb300"/></linearGradient><path d="M108.8 87c1.7 0 3.2-1.1 3.3-2.6l.3-7c.1-1.4-1.2-2.7-3-2.7-1.7 0-3.2 1.1-3.2 2.6l-.4 7c0 1.4 1.3 2.7 3 2.7" style="fill:url(#d)"/><linearGradient id="e" x1="108.9" x2="106.9" y1="44.1" y2="28.7" gradientTransform="matrix(1 0 0 -1 0 128)" gradientUnits="userSpaceOnUse"><stop offset=".5" style="stop-color:#ffca28"/><stop offset="1" style="stop-color:#ffb300"/></linearGradient><path d="M114 82.8q-3-.6-6.6-.9h-1q-4.5-.2-6.2 5.4l-.1.3-.2.8-.2 1a8 8 0 0 0 .2 3.5c.8 3.4 3.3 5 3.3 5s6.2 3.2 7.7 0-.7-7.5-.7-7.5l-2.9-1.7q.8-1.1 3.3-1l2 .2 1.2.1q1.6 0 2.6-1c.9-1 .8-2.7.9-3.5-.8 0-2.2-.5-3.2-.7" style="fill:url(#e)"/><linearGradient id="f" x1="36" x2="36" y1="25.4" y2="-.3" gradientTransform="matrix(1 0 0 -1 0 128)" gradientUnits="userSpaceOnUse"><stop offset="0" style="stop-color:#666"/><stop offset="0" style="stop-color:#656565"/><stop offset=".3" style="stop-color:#484747"/><stop offset=".5" style="stop-color:#343131"/><stop offset=".8" style="stop-color:#272324"/><stop offset="1" style="stop-color:#231f20"/></linearGradient><path d="m54.4 124-.9-21.7a27 27 0 0 1-10.4 2.1c-6 0-11.1-1.9-15.3-3.4-2.8-1-5.3-2-7.1-2-2.3 0-3.2 2-3.2 6.9v18z" style="fill:url(#f)"/><linearGradient id="g" x1="3073" x2="3073" y1="25.4" y2="-.3" gradientTransform="matrix(-1 0 0 -1 3166.25 128)" gradientUnits="userSpaceOnUse"><stop offset="0" style="stop-color:#666"/><stop offset="0" style="stop-color:#656565"/><stop offset=".3" style="stop-color:#484747"/><stop offset=".5" style="stop-color:#343131"/><stop offset=".8" style="stop-color:#272324"/><stop offset="1" style="stop-color:#231f20"/></linearGradient><path d="M111.8 124v-18.1c0-4.9-.9-6.8-3.1-6.8q-2.9.1-7.4 1.9a48 48 0 0 1-16 3.4q-5.6 0-10.7-2l.1 21.5z" style="fill:url(#g)"/><linearGradient id="h" x1="40.6" x2="40.6" y1="13.7" y2="0" gradientTransform="matrix(1 0 0 -1 0 128)" gradientUnits="userSpaceOnUse"><stop offset="0" style="stop-color:#666"/><stop offset=".3" style="stop-color:#717273"/><stop offset=".6" style="stop-color:#7c7e81"/><stop offset="1" style="stop-color:#808285"/></linearGradient><path d="m58 124-1.8-12-33 6.2 4 5.7z" style="fill:url(#h)"/><linearGradient id="i" x1="41.6" x2="41.6" y1="28.8" y2="1.3" gradientTransform="matrix(1 0 0 -1 0 128)" gradientUnits="userSpaceOnUse"><stop offset="0" style="stop-color:#00bfa5"/><stop offset=".3" style="stop-color:#00bba2"/><stop offset=".5" style="stop-color:#00af99"/><stop offset=".8" style="stop-color:#009c89"/><stop offset="1" style="stop-color:#00897b"/></linearGradient><path d="M39.6 124H58l-3-27-29.6 7.1 12.9 17.7z" style="fill:url(#i)"/><linearGradient id="j" x1="87.3" x2="87.3" y1="13.7" y2="0" gradientTransform="matrix(1 0 0 -1 0 128)" gradientUnits="userSpaceOnUse"><stop offset="0" style="stop-color:#666"/><stop offset=".3" style="stop-color:#717273"/><stop offset=".6" style="stop-color:#7c7e81"/><stop offset="1" style="stop-color:#808285"/></linearGradient><path d="m100.9 124 4-5.7-33.5-6.3-1.7 12z" style="fill:url(#j)"/><linearGradient id="k" x1="86.1" x2="86.1" y1="28.8" y2="1.3" gradientTransform="matrix(1 0 0 -1 0 128)" gradientUnits="userSpaceOnUse"><stop offset="0" style="stop-color:#00bfa5"/><stop offset=".3" style="stop-color:#00bba2"/><stop offset=".5" style="stop-color:#00af99"/><stop offset=".8" style="stop-color:#009c89"/><stop offset="1" style="stop-color:#00897b"/></linearGradient><path d="m87.1 124 2.5-3.7 12.9-17.7L73 96.9l-3.3 27z" style="fill:url(#k)"/><linearGradient id="l" x1="110.3" x2="110.3" y1="30" y2="-8.4" gradientTransform="matrix(1 0 0 -1 0 128)" gradientUnits="userSpaceOnUse"><stop offset="0" style="stop-color:#666"/><stop offset=".6" style="stop-color:#393637"/><stop offset="1" style="stop-color:#231f20"/></linearGradient><path d="m121.8 124-.2-26H99v26z" style="fill:url(#l)"/><circle cx="99.7" cy="108" r="4.1" style="fill:#e6e7e8"/><circle cx="110.3" cy="107.9" r="4.1" style="fill:#00bfa5"/><circle cx="120.9" cy="107.9" r="4.1" style="fill:#808285"/><path d="M64 4c-45.5.3-36.2 52.2-36.2 52.2l3 7.7q.4.5.7 0a352 352 0 0 1 6.2-24.5 6 6 0 0 1 6.8-3.8A111 111 0 0 0 64 37.4h.2c7.8 0 14.9-1 19.3-1.8a6 6 0 0 1 6.8 3.8c1.8 4.7 5.2 20 6.2 24.4.1.3.6.4.7 0l3-7.6S109.4 4.2 64 4" style="fill:#543930"/><radialGradient id="m" cx="64" cy="80.9" r="38.1" gradientTransform="matrix(1 0 0 -1.128 0 138.37)" gradientUnits="userSpaceOnUse"><stop offset=".8" style="stop-color:#6d4c41;stop-opacity:0"/><stop offset="1" style="stop-color:#6d4c41"/></radialGradient><path d="M100.1 56.2S109.4 4.2 64 4l-6 .4h-.3C19.4 9.2 27.8 56.2 27.8 56.2l3 7.6q.4.6.7 0c1-4.4 4.5-19.7 6.2-24.4a6 6 0 0 1 6.8-3.8A111 111 0 0 0 64 37.4h.2c7.8 0 14.9-1 19.3-1.8a6 6 0 0 1 6.8 3.8c1.8 4.7 5.3 20.1 6.2 24.5.1.3.6.3.7 0z" style="fill:url(#m)"/><path d="m34.4 87.9-22.7 9.4-.3-.7-.3.2-1.2.7V124H6.7V99.3a1.8 1.8 0 0 1-1.6-3.1l4.2-2.5.5-.2-.6-1.2 21.2-12.8v1.1a9 9 0 0 0 4 7.3" style="fill:#5d5f61"/><circle cx="39.3" cy="80.3" r="8" style="fill:#434444"/><path d="m35.6 87.4-1.2.5a9 9 0 0 1-4-8.4l1-.6v1.7a8 8 0 0 0 4.2 6.8" style="fill:#727475"/><path d="m43 87.4-1.4.6-1.2-.9a16 16 0 0 1-3.8-4.8l-.3-.5a15 15 0 0 1-1.9-7.8 8 8 0 0 1 4.6-1.6h1.4a8 8 0 0 1 2.5 15" style="fill:#434444"/><path d="M41 86.4q-2-1.9-3.8-5c-1.7-3.4-2.1-6.5-1.6-8.1l-1.2.7a15 15 0 0 0 2.2 8.3q1.6 3 3.8 4.9l1.2.8 1.4-.5q-1-.3-2-1.1" style="fill:#5d5f61"/><path d="M118.4 77.6c-.2 1.3-1.4 5.2-1.4 5.2l-4-1.4-.6-4.3-1.2 4q-2.6-.4-4.5 0l-.5-3.8c-.2.6-.3 2-.4 2.5q0 1-.3 1.5-2 .7-3 1.4-.8.5-1.3 1.4v.1a8 8 0 0 1 3.5-1.6c3.4-.8 7.8-.5 11 .9q2 1 .7 2.7c-1.2 1.7-3.4 1-5.2.8-1.5-.1-4 0-4.4 2 3.4.4 4.6 4.2 4.5 7.2 1.2-2.8.4-5.8-2.6-7.8 2-1 8.3 2 9.3-2.9.4-2.2.5-6.9.4-8" style="fill:#eda600"/></svg>