<svg xmlns:xlink="http://www.w3.org/1999/xlink" width="16" height="16" viewBox="0 0 128 128"><path fill="currentColor" d="M64 14.5c-73.8.4-58.7 84.7-58.7 84.7s8.3 14.6 8.3 14.3A146 146 0 0 1 21.4 72a10 10 0 0 1 11-6.3 181 181 0 0 0 31.5 3h.3a181 181 0 0 0 31.4-3 10 10 0 0 1 11 6.3 143 143 0 0 1 7.8 41.5c0 .3 8.3-14.3 8.3-14.3S137.8 14.9 64 14.5"/><defs><path id="a" d="M64 14.5C-9.8 15 5.3 99.2 5.3 99.2s8.3 14.6 8.3 14.3c0-2.3.7-11.2.7-11.2L10 97.6S16.3 56.3 21 57a801 801 0 0 0 43 3.4c12.7 0 24.3-.6 31.5-2 4.7-.8 15.6 2.8 17.3 7.3 2.2 5.8 5.1 32 5.1 32l-4.3 4.6s.8 9 .7 11.2c0 .3 8.3-14.3 8.3-14.3S137.8 15 64 14.5"/></defs><clipPath id="b"><use xlink:href="#a"/></clipPath><g clip-path="url(#b)"><path fill="currentColor" d="M64 19.4q27.7.2 41.6 16.8C123 57.2 118.9 92 118 97.6v.2a160 160 0 0 0-6.8-27.5A15 15 0 0 0 94.7 61c-7.2 1.3-18.3 2.8-30.6 2.8h-.2c-12.3 0-23.4-1.5-30.6-2.8a15 15 0 0 0-16.5 9.3c-2.2 6-5 17-6.7 27.5l-.1-.2c-1-5.7-5.1-40.3 12.4-61.4Q36.3 19.6 64 19.4m0-4.9C-9.9 15 5.2 99.2 5.2 99.2s8.1 14.3 8.3 14.3A146 146 0 0 1 21.3 72a10 10 0 0 1 11-6.2 181 181 0 0 0 31.5 3h.3a181 181 0 0 0 33.3-3.2c4 0 7.8 2.5 9.2 6.4 3.4 8.9 8 29.8 7.8 41.5.2 0 8.3-14.3 8.3-14.3S137.8 15 64 14.5"/></g><path d="M128 0h-4q-.9.1-1 1 0 1.2 1 1h4zm-12 0h-4q-.9.1-1 1 0 1.2 1 1h4q1 0 1-1c0-1-.4-1-1-1m-12 0h-4q-.9.1-1 1 0 1.2 1 1h4q1 0 1-1c0-1-.4-1-1-1M92 0h-4q-.9.1-1 1 0 1.2 1 1h4q1 0 1-1c0-1-.4-1-1-1M80 0h-4q-.9.1-1 1 0 1.2 1 1h4q1 0 1-1c0-1-.4-1-1-1M68 0h-4q-.9.1-1 1c-.1.9.5 1 1 1h4q1 0 1-1c0-1-.4-1-1-1M56 0h-4q-.9.1-1 1c-.1.9.5 1 1 1h4q1 0 1-1c0-1-.4-1-1-1M44 0h-4q-.9.1-1 1c-.1.9.5 1 1 1h4q1 0 1-1c0-1-.4-1-1-1M32 0h-4q-.9.1-1 1c-.1.9.5 1 1 1h4q1 0 1-1c0-1-.4-1-1-1M20 0h-4q-.9.1-1 1 0 1.2 1 1h4q1 0 1-1c0-1-.4-1-1-1M8 0H4q-.9.1-1 1c-.1.9.5 1 1 1h4q1 0 1-1c0-1-.4-1-1-1M1 3a1 1 0 0 0-1 1v4q.1 1 1 1 1.2 0 1-1V4q0-.9-1-1m0 12a1 1 0 0 0-1 1v4q.1 1 1 1 1.2 0 1-1v-4q0-.9-1-1m0 12a1 1 0 0 0-1 1v4q.1 1 1 1 1.2 0 1-1v-4q0-.9-1-1m0 12a1 1 0 0 0-1 1v4q.1 1 1 1 1.2 0 1-1v-4q0-.9-1-1m0 12a1 1 0 0 0-1 1v4q.1 1 1 1 1.2 0 1-1v-4q0-.9-1-1m0 12a1 1 0 0 0-1 1v4q.1 1 1 1 1.2 0 1-1v-4q0-.9-1-1m0 12a1 1 0 0 0-1 1v4q.1 1 1 1 1.2 0 1-1v-4q0-.9-1-1m0 12a1 1 0 0 0-1 1v4q.1 1 1 1 1.2 0 1-1v-4q0-.9-1-1m0 12a1 1 0 0 0-1 1v4q.1 1 1 1 1.2 0 1-1v-4q0-.9-1-1m0 12a1 1 0 0 0-1 1v4q.1 1 1 1 1.2 0 1-1v-4q0-.9-1-1m0 12a1 1 0 0 0-1 1v4h2v-4q0-.9-1-1m11 3H8q-.9.1-1 1 0 1.2 1 1h4q1 0 1-1c0-1-.4-1-1-1m12 0h-4q-.9.1-1 1c-.1.9.5 1 1 1h4q1 0 1-1c0-1-.4-1-1-1m12 0h-4q-.9.1-1 1c-.1.9.5 1 1 1h4q1 0 1-1c0-1-.4-1-1-1m12 0h-4q-.9.1-1 1c-.1.9.5 1 1 1h4q1 0 1-1c0-1-.4-1-1-1m12 0h-4q-.9.1-1 1c-.1.9.5 1 1 1h4q1 0 1-1c0-1-.4-1-1-1m12 0h-4q-.9.1-1 1 0 1.2 1 1h4q1 0 1-1c0-1-.4-1-1-1m12 0h-4q-.9.1-1 1 0 1.2 1 1h4q1 0 1-1c0-1-.4-1-1-1m12 0h-4q-.9.1-1 1 0 1.2 1 1h4q1 0 1-1c0-1-.4-1-1-1m12 0h-4q-.9.1-1 1 0 1.2 1 1h4q1 0 1-1c0-1-.4-1-1-1m12 0h-4q-.9.1-1 1 0 1.2 1 1h4q1 0 1-1c0-1-.4-1-1-1m7-3a1 1 0 0 0-1 1v4h2v-4q0-.9-1-1m0-12a1 1 0 0 0-1 1v4q.1 1 1 1 1.2 0 1-1v-4q0-.9-1-1m0-12a1 1 0 0 0-1 1v4q.1 1 1 1 1.2 0 1-1v-4q0-.9-1-1m0-12a1 1 0 0 0-1 1v4q.1 1 1 1 1.2 0 1-1v-4q0-.9-1-1m0-12a1 1 0 0 0-1 1v4q.1 1 1 1 1.2 0 1-1v-4q0-.9-1-1m0-12a1 1 0 0 0-1 1v4q.1 1 1 1 1.2 0 1-1v-4q0-.9-1-1m0-12a1 1 0 0 0-1 1v4q.1 1 1 1 1.2 0 1-1v-4q0-.9-1-1m0-12a1 1 0 0 0-1 1v4q.1 1 1 1 1.2 0 1-1v-4q0-.9-1-1m0-12a1 1 0 0 0-1 1v4q.1 1 1 1 1.2 0 1-1v-4q0-.9-1-1m0-12a1 1 0 0 0-1 1v4q.1 1 1 1 1.2 0 1-1v-4q0-.9-1-1m0-12a1 1 0 0 0-1 1v4q.1 1 1 1 1.2 0 1-1V4q0-.9-1-1"/></svg>