<svg xml:space="preserve" width="16" height="16" viewBox="0 0 128 128"><path d="M83.5 99c-1.8.4-45 5.9-45 5.9s-1 7.6.4 10.2c1.2 2.5 9.4 8.4 25 8.4s24-5 25.2-7.9-.5-15.3-.5-15.3z" style="fill:#77a3ab"/><path d="M34 42.8 4.8 56.5S7 84 25.4 99.3a62.7 62.7 0 0 0 84.3-6C126.4 73.8 123.3 48 123.3 48z" style="fill:#a7d0d6"/><path d="M4 50.5c-.9 11.9 11 26.4 59.7 27 50.8.5 68.8-24.5 57.4-37.6-11.3-13-39-14.6-58.2-14.4s-57.6 5.7-59 25" style="fill:#77a3ac"/><path d="M10.4 55.3s-.6-2.4.3-5S13 47 13.3 46c.2-.8-1.9-5.2 1.7-11s5.8-4.5 6.8-5.7 1-5.4 5.4-9.3 8.5-3.6 8.5-3.6 2-5.1 6.7-7 9.6-.8 9.6-.8 4.3-4 10.3-4c6-.2 7.8 1.5 9.1 1.6 1.4.2 4.5-1.4 10.2.7s5.7 5.2 7 5.7 4.7-.5 9.8 3.7 4.3 6 5 6.9c.8.8 5.6.8 8.3 7.6 2 5 1 8.7 1.1 9.2s3 3.4 4.2 6.4c1.1 2.7 1.6 6.6 1.6 6.6s-2.6 4.5-8.8 8.6c-6.6 4.4-80.9 4.6-85.8 3-8.5-2.7-13.6-9.4-13.6-9.4" style="fill:#cdcbc0"/><path d="M18.5 47.9s-.6-6.2 1-9.6c2.4-4.8 7-5.3 7-5.3s.5-5.5 4.4-8.5c4.8-3.7 6.6-2.7 8.2-4.2 1.6-1.4 2.6-4 6.5-5.7s7.1-.6 8.5-1.3 3.5-3.1 7.8-3.4c5.5-.4 5.9 1.8 9 2.1 2.3.3 4-1 8.8.4 4.8 1.5 5 4.4 6.4 5.4 1.6 1 5.3 0 9.4 3.2 3.7 2.8 3.6 5.4 4.6 6.5s4.1 1.4 6.3 7.2c1.8 4.8.5 6.2 1 7.8s3.2 3 4.9 7.6c2 5.6 1.5 8.6 1.5 8.6S103.7 72 59 71.5C26.8 71.3 15.3 60 15.3 60s-.5-6 .7-8.3 2.5-3.9 2.5-3.9" style="fill:#fff"/><path d="M61.2 68.3c1 2.2 4.9 2.6 8.1-1.1 3-3.3 1.3-8.4-1.9-8-2.9.4-2 3.4-3.3 4.5-1.4 1.2-3.8 2.6-3 4.5m15.4-13.6c.9 1.9 6 1.5 7.9-1.9s1.6-8.3-1.2-8.2c-3.6 0-2.3 3.8-3.6 5-1.2 1-4.5 2-3.1 5.1M96.2 36c-2.1.8-1 3.5-1.9 5.4-.8 1.8-3.1 4-1.3 5.5 1.8 1.6 5.9-1 6.4-5 .6-3.9-1-6.5-3.2-5.8M87.3 61c-1.3 2.2-3.8 1-4.3 3.3s4.6 3 7.5.4c2.9-2.7 2-7.2.3-7.6-1.8-.3-2.4 2.2-3.5 3.9m-8-24.5c1.1 1.3 5.9-.1 7.4-4.8 1.6-4.7-1.5-7.8-3.6-6.7-2 1-.6 3.3-1 4.8s-5.1 4-2.8 6.7" style="fill:#d4d4d4"/></svg>