<svg xml:space="preserve" width="16" height="16" viewBox="0 0 128 128"><path d="M30.5 104.2h13.4v13.4H30.5zm53.5 0h13.4v13.4H84z" style="fill:#995aa8"/><path d="M30.5 10.5h13.4v13.4H30.5zm53.5 0h13.4v13.4H84z" style="fill:#b574c3"/><radialGradient id="a" cx="64.3" cy="9.4" r="83.1" gradientUnits="userSpaceOnUse"><stop offset=".5" style="stop-color:#b574c3"/><stop offset=".7" style="stop-color:#b070bf"/><stop offset=".9" style="stop-color:#a363b2"/><stop offset="1" style="stop-color:#995aa8"/></radialGradient><path d="M97.5 64V37.4H84V23.9H70.7v13.4H57.3V23.9H43.9v13.4H30.5v26.8H17v13.4h13.4v13.4h13.4v13.4h13.4V90.9h13.4v13.4H84V90.9h13.5V77.5h13.3V64zm-40.2 0H43.9V50.8h13.4zM84 64H70.6V50.8H84z" style="fill:url(#a)"/><radialGradient id="b" cx="63.1" cy="24.1" r="65.3" gradientUnits="userSpaceOnUse"><stop offset=".5" style="stop-color:#b574c3"/><stop offset=".7" style="stop-color:#b070bf"/><stop offset=".9" style="stop-color:#a363b2"/><stop offset="1" style="stop-color:#995aa8"/></radialGradient><path d="M110.8 37.3h13.4v26.8h-13.4z" style="fill:url(#b)"/><radialGradient id="c" cx="62.8" cy="13.1" r="75.1" gradientUnits="userSpaceOnUse"><stop offset=".5" style="stop-color:#b574c3"/><stop offset=".7" style="stop-color:#b070bf"/><stop offset=".9" style="stop-color:#a363b2"/><stop offset="1" style="stop-color:#995aa8"/></radialGradient><path d="M3.7 37.3h13.4v26.8H3.7z" style="fill:url(#c)"/></svg>