<svg xml:space="preserve" width="16" height="16" viewBox="0 0 128 128"><path d="M77.5 31.3c0 1.2-2.5 1.4-2.8 1.6l-.6 1.3-.6 1.3c-.7 1.6-2.2 3.1-6 2.7-2.6-.3-2.8-.5-3.6-.5C62.3 37.5 61 40 61 40s-2.8 5.7-6.9 3.6c-4.6-2.5-4-5-4-5s3.6-4.6 3-9.1l-.3-1a20 20 0 0 1-.6-5.5q0-3.1.6-6.1.4-2.5 1.3-3.9 0-.3.3-.5l.2-.3.7-.6c3.2-3 8.4-4.8 12.7-4a9 9 0 0 1 2.8.9c4.6 2.1 6.5 6.5 6.4 11.4v.2l-.1.9v.3q-.3 2.1-1 3.6l-.7 1.6c-.4 1.3 2 3.2 2 4.8" style="fill:#e0bb95"/><path d="m74 34.2-.4 1.3a4 4 0 0 1-2.5-1.2c-.7-.8 0-1.4.9-.8q.8.5 2 .6" style="fill:#6d4c41"/><ellipse cx="71.3" cy="26.4" rx="1.9" ry="1.2" style="fill:#5d4037" transform="rotate(-77.3 71.32 26.45)"/><path d="M72.8 23.9c1.1.5 1.5-.2 1.2-1q-.3-.8-2.3-.8a3 3 0 0 0-2.4 1.2q-.6.6-.1 1c.4 0 2.2-1 3.6-.4" style="fill:#ab872f"/><radialGradient id="a" cx="50.5" cy="48.2" r="17.1" gradientTransform="translate(0 2)" gradientUnits="userSpaceOnUse"><stop offset=".4" style="stop-color:#651fff"/><stop offset=".8" style="stop-color:#5914f2"/><stop offset="1" style="stop-color:#530eeb"/></radialGradient><path d="m36.1 65.4.6-2.3 8-16.9c1.6-3.6 4.6-8 9.2-9.3q1.3-.4 2.6-.4c1.5 0 4.1.4 5.5 3.1l2.3 5-2.4 8.7-4.3 12.3-.4 1.8z" style="fill:url(#a)"/><path d="M35.1 72.2V69l1.5-5.5L58 66.3l15.8 3v3z" style="fill:#7c7c7c"/><radialGradient id="b" cx="63.4" cy="42.4" r="40.4" gradientTransform="matrix(1 0 0 -.46 0 105.15)" gradientUnits="userSpaceOnUse"><stop offset=".5" style="stop-color:#ff9800"/><stop offset=".8" style="stop-color:#fa8b00"/><stop offset="1" style="stop-color:#f57c00"/></radialGradient><path d="M7.6 73.2h111.6s-.1 17.8-10.1 25H27s-13.2-10-19.5-25" style="fill:url(#b)"/><path d="M124 72.1c0 2.5-2 4.5-4.5 4.5H8.5a4.5 4.5 0 1 1 0-9h111c2.5 0 4.5 2 4.5 4.5" style="fill:#e65100"/><path d="M4 93.6h120V124H4z" style="fill:#039be5"/><path d="M124 85.4c-2.6 0-4.8 6-10.7 6s-11.7-7-17.3-7-9 6.1-14.7 7h-2.6c-5.7-.9-9-7-14.7-7-3.8 0-9 6.1-14.6 7h-2.7c-5.7-.9-9-7-14.7-7s-9 6.1-14.6 7h-2.8c-4.2-.7-7.7-6-10.6-6v20.9c3.5-1.8 6.4-5.3 10.6-6h2.8c5.7.9 9 7 14.6 7s9-6.1 14.7-7h2.7c5.7.9 9 7 14.6 7s9-6.1 14.7-7h2.6c5.8.9 9 7 14.7 7s9-6.1 14.7-7h2.6c4.3.6 7.2 4.2 10.7 6z" style="fill:#29b6f6"/><path d="m60.3 99.2 22.3-22.6 8.9-9h-9.3l-9 9-14.8 15z" style="opacity:.2;fill:#3d3d3d"/><path d="M50.8 71h49v6.7h-49z" style="fill:#ffa726" transform="rotate(-45.3 75.26 74.34)"/><path d="m90.4 63.8-8.9-.5 9.9-10.2 5.3 4.3z" style="fill:#ea960f"/><path d="M60.8 88.8a8 8 0 0 0-11.6.1l-9 9A8.2 8.2 0 1 0 52 109.6l9-9a8 8 0 0 0-.1-11.7" style="fill:#ffd54f"/><linearGradient id="c" x1="70" x2="87.7" y1="82.2" y2="72.3" gradientTransform="matrix(1 0 0 -1 0 128)" gradientUnits="userSpaceOnUse"><stop offset="0" style="stop-color:#cca47a"/><stop offset=".5" style="stop-color:#e0bb95"/></linearGradient><path d="M98.7 53.6c-.4-.5-1.9-1-2.5-1.3q0-.5-.3-.9l-1.3-1.7-.7-.4h-1.1v.1l-3.4 2.1-.3.2-11.7-.4-10.7-7.5-.7-.4-4.2 6 12 8.4.2.2h.2l.4.3.3.1.3.1.3.1h.8l10 .4h-.1v.1s4.7 3.2 7 3.5q.5.2 1.7.3.8 0 1.1-.4l.2-1c.3-.5.9-.4 1.2-1v-1.3q-.2-.5.3-.7.7-.2.8-.8v-.3q.1-.5-.1-1l-.1-.3q0-.5.3-1 .3-.1.4-.8 0-.3-.3-.7" style="fill:url(#c)"/><path d="M61.6 37.8a6 6 0 0 0-8.1 1.3 6 6 0 0 0 1.3 8.1l9.6 7 6.8-9.5z" style="fill:#3615af"/><path d="M39.8 24.7c1.2-8.1-2.5-13.9 3.9-19.1C47.8 2 54.3 5.2 55.2 7c1.7 3.5-2.8 5.5-4 6.8-1.7 2-1 11.6-6.4 17.4-7.1 7.8-12.5 5.3-12.5 5.3s6.2-4 7.5-11.8" style="fill:#ab872f"/><radialGradient id="d" cx="-172.1" cy="128.6" r="15.1" gradientTransform="rotate(197.4 -72.01 70.93)scale(1 1.209)" gradientUnits="userSpaceOnUse"><stop offset=".5" style="stop-color:#bfa055;stop-opacity:0"/><stop offset="1" style="stop-color:#bfa055"/></radialGradient><path d="M40 20.9c0-6.2-1.6-11 3.7-15.3C47.9 2 54.3 5.2 55.2 7c1.7 3.5-2.8 5.5-4 6.8-1.7 2-11.1 7-11.1 7" style="fill:url(#d)"/><radialGradient id="e" cx="-158.4" cy="116.8" r="16.1" gradientTransform="rotate(20.7 251.55 609.74)scale(1 1.234)" gradientUnits="userSpaceOnUse"><stop offset="0" style="stop-color:#bfa055"/><stop offset=".5" style="stop-color:#bfa055;stop-opacity:0"/></radialGradient><path d="M39.8 24.7q.4-3 .2-6.1c0-1.8-.3-3.4 1.2-4.8 2.2-2.1 6-2.6 8.6-1q1.4.8 1 2l-.6 1.8-.9 4.6q-.9 5.6-4.5 10c-7.2 7.8-12.5 5.3-12.5 5.3s6.2-4 7.5-11.8" style="fill:url(#e)"/><radialGradient id="f" cx="-165.2" cy="126.3" r="8.8" gradientTransform="rotate(21 971.83 771.92)scale(1 3.19)" gradientUnits="userSpaceOnUse"><stop offset=".5" style="stop-color:#bfa055;stop-opacity:0"/><stop offset="1" style="stop-color:#bfa055"/></radialGradient><path d="M37.8 36.3s7-2.6 10-9.8a31 31 0 0 0 1.9-7c.2-1.5.2-6.5 1.8-8" style="fill:url(#f)"/><path d="M54.5 9.3c3.1-2.6 7.6-3.8 12-3.1 3.7.5 8.7 2.4 11.2 6.2 1.6 2.2 2.2 5 1.4 7.6-.5 1.6-2 2.2-2 2.2s-.9-4-5-3.8-5.7-1-5.7-1c.7 3.5-.8 5-2 5.8l-1.9 1.4q-.3.3-.3-.1l-.3-2C61.4 20.8 60 21 60 21c-1.8.3-3 3.5-.7 6v.5c-1.7 3.2-5.7 2.6-6 2.4q-.7-.6-.7-1.6c.1-2.3-.7-3.1-1.2-4.2-.6-1.3-1.3-2.8-1.2-6.4q.3-5.3 4.2-8.5" style="fill:#ab872f"/><radialGradient id="g" cx="-187.5" cy="132.7" r="13.7" gradientTransform="rotate(191 -66.87 63.77)" gradientUnits="userSpaceOnUse"><stop offset=".5" style="stop-color:#bfa055;stop-opacity:0"/><stop offset="1" style="stop-color:#bfa055"/></radialGradient><path d="M54.5 9.3c3.1-2.6 7.6-3.8 12-3.1 3.7.5 8.7 2.4 11.2 6.2 1.6 2.2 2.2 5 1.4 7.6-.5 1.6-2 2.2-2 2.2s-.9-4-5-3.8-5.7-1-5.7-1c.7 3.5-.8 5-2 5.8l-1.9 1.4q-.3.3-.3-.1l-.3-2C61.4 20.8 60 21 60 21c-1.8.3-3 3.5-.7 6v.5c-1.7 3.2-5.7 2.6-6 2.4q-.7-.6-.7-1.6c.1-2.3-.7-3.1-1.2-4.2-.6-1.3-1.3-2.8-1.2-6.4q.3-5.3 4.2-8.5" style="fill:url(#g)"/></svg>