<svg xml:space="preserve" width="16" height="16" viewBox="0 0 128 128"><path d="M64.6 9.6c-.7-5.1-3.8-5.7-5.4-5.6-1.5.2-4 .3-5.5 1-1.9.8-4 3.2-6 3.8L27 12.6c-1.5.2-3.8-1.2-5.6-1a15 15 0 0 0-4.8 1.2c-1.3.7-2.8 2-2 6.4.7 4.2 3.7 4.7 4.5 4.7 1.3 0 3.3-.3 4.8-.8 1.6-.5 3.9-3 5.3-3.2l20-3.8c2-.2 3.7.6 5.5 1.1s5.4-.1 6.9-.5 3.6-1.7 2.8-7.1" style="fill:#616161"/><path d="m33.3 10.6 7.3-1.4q1.3-.3 2.1.5s-2.3 1-1.8 4.3 2.6 3.3 2.6 3.3c0 1.2-1.3 1.5-2.5 1.6l-6.3.9a3 3 0 0 1-2.7-1.1c-1.6-2-1.5-4.3-.6-6.3q.7-1.6 1.9-1.8m2.2 33.2 5-26.7s0-1.4-2.7-1.3S35 17 35 17l-4.8 26.8z" style="fill:#bdbdbd"/><path d="m116.8 113.4-.6-6.4c-1.6 1-4.9 3.7-6.8 2.5-2-1.3-2.4-6.3-2.4-6.3l-4.9 3.4s5.3 2 5.7 4.3c.5 3-3.3 6.4-3.3 6.4l5.3 1.5c-.5-2.1-1-6 .4-6.7s4.3 0 6.6 1.3" style="fill:#546e7a"/><path d="M107.3 123.9a12.9 12.9 0 1 1 0-25.8 12.9 12.9 0 0 1 0 25.8m1-19.5a6.5 6.5 0 1 0 0 13 6.5 6.5 0 0 0 0-13" style="fill:#78909c"/><path d="M21.4 89.3s-.2 1.2-.7 1.6c-.4.3-1.7 1-2 2-.8 2-1.7 12-1.7 12l5.7.4 2.1-15.4z" style="fill:#1976d2"/><path d="M101.9 99.3a13 13 0 0 0-6.7 16s1 .6 4.3 0c1.8-.2 3.4-1 3.4-1-.7-.7-1-1.6-1-3.5 0-2 .3-3.2 2.8-5.3 0 0-1.9-1.7 1.7-4.1 3.5-2.5 9.2-.3 9.2-.3s-5.6-5.5-13.7-1.8" style="fill:#455a64"/><path d="m25.6 82.4 13.6 24.9a8 8 0 0 0 5 4.3l9.3 2.6L30.7 81z" style="fill:#1e4ea6"/><path d="m31.9 115.4.6-7.3c-1.6 1-6 2.8-8.2 1.5-2.7-1.5-3.8-7.6-3.8-7.6l-4.7 4.8s5.5 2.1 6 4.2c.5 3.4-5 6.6-5 6.7l6.3 2.6c-.3-3.8.7-7 1.7-7.8s7 3 7 3" style="fill:#546e7a"/><path d="m50.3 103.8 42.8.6 4.7 2.2s5.5.1 8.1.4c2 .2 4.7 3 4.7 3l-57.7.5z" style="fill:#42a5f5"/><path d="M22 124a14.2 14.2 0 1 1 0-28.4 14.2 14.2 0 0 1 0 28.4m1.3-21.3a7.1 7.1 0 1 0 0 14.2 7.1 7.1 0 0 0 0-14.2" style="fill:#78909c"/><path d="m110.2 109.8-3.6-1.1q-1.2-.5-2.6-.5H59.4c-2 0-5.8.3-9.3-5.5L30.8 73l5.5-29.8q.2-.7-.4-1.1-.8-.8-3.3-.8c-2.8 0-2.8 1.3-2.8 1.3l-8.5 47q-.3 1.5.6 2.8a9 9 0 0 1 1 3.8c-.2 2.2-1.7 9.5-1.7 9.5q-.3 1.2 0 2.3l.7 4a1.6 1.6 0 0 0 3 .5l1.9-3.6.7-1.9s1.3-7 1.6-10-1.6-5.5-1.6-5.5l1.6-9.1 18.3 26.8c1.8 3.4 5.3 5.5 9.1 5.5l47.4-1q1.6 0 2.8-.4l3.6-1.3c1-.4 1-1.9 0-2.2" style="fill:#1976d2"/><path d="M26 91.6c1.2.4 2 1.7 2.2 2.9q.3 1-.7.5c-.5-.1-1-.4-2.9-.6q-.7 0-1.4-.5l-1.7-2q-.3-.8.3-.9c.3 0 2.2 0 4.3.6" style="fill:#42a5f5"/><path d="M117.4 93.9c-5.4-4.3-14.8-3.7-20 .1a18 18 0 0 0-7.5 12.7h9c2.5-13.8 16.5-10.8 16.5-10.8l3.4.6a4 4 0 0 0-1.4-2.6" style="fill:#bdbdbd"/><path d="M117.1 95.3c-5.2-1.3-10.3-1-14.4 1.8a15 15 0 0 0-5.6 9.6h2.9c.7-3.5 4.4-12.3 17-9.5 0 0 1.3.4 1.7-.4q.6-1-1.6-1.5" style="fill:#90a4ae"/><ellipse cx="61.2" cy="10.4" rx="3.9" ry="6.1" style="fill:#757575" transform="rotate(-6.1 61.24 10.4)"/><path d="M19.8 95.8s.2-1.5.7-1.9q.5-.6 1.6.4.7 1 .7 1.3-.2-.1-3 .2" style="fill:#37474f"/></svg>