<svg xml:space="preserve" width="16" height="16" viewBox="0 0 128 128"><path d="M101 22.6C97.3 6.2 74.6 4.6 64.9 4.4h-2.2C53 4.6 30.8 6.2 27 22.6a248 248 0 0 0-2.8 43.6c1 11.1 5.6 14.7 20.3 19 10.7 3.3 16 4.4 18.2 4.7h1.1c1 .2 1.1 0 1.1 0 2.2-.3 8-1.4 18.7-4.6 14.7-4.4 19.5-8 20.5-19a249 249 0 0 0-3-43.7" style="fill:#424242"/><path d="M64.5 12.1c-37.4 0-37.1 35.3-37.1 36 0 22.8 1.7 55.1 10.6 67.8 3.6 5 10.5 5.4 10.5 5.4h30.9s6.9-.3 10.4-5.4c9-12.7 10.7-45 10.7-67.9 0-.5 1.3-35.9-36-35.9" style="fill:#543930"/><linearGradient id="a" x1="64" x2="64" y1="34" y2="7.7" gradientTransform="matrix(1 0 0 -1 0 130)" gradientUnits="userSpaceOnUse"><stop offset="0" style="stop-color:#f44336"/><stop offset="1" style="stop-color:#cc2623"/></linearGradient><path d="M64.1 96c-25.6 0-52 7.1-52 25v3h104v-3c0-16.8-26.1-25-51.9-25" style="fill:url(#a)"/><linearGradient id="b" x1="64" x2="64" y1="5.9" y2="21" gradientTransform="matrix(1 0 0 -1 0 130)" gradientUnits="userSpaceOnUse"><stop offset="0" style="stop-color:#bfbebe"/><stop offset=".7" style="stop-color:#fff"/></linearGradient><path d="M66 124v-17.2q-.2-.9-2-1c-1.8 0-2 .5-2 1V124z" style="fill:url(#b)"/><circle cx="74.1" cy="118.3" r="3" style="fill:#fff"/><path d="m46.7 90.8-2.3.3c-5.1 1.3-15.5 3.4-20.1 3.4h-1.1c-7.4 0-9.5 7-7.3 10.5q3 4 8.4 3.9c8 0 18.8-5.7 24.1-8.1 7-3.1 4.5-10-1.7-10m58.1 3.7h-1.1c-4.6 0-15-2-20-3.4l-2.4-.3c-6.2 0-8.7 6.9-1.7 10 5.4 2.4 16 8.1 24.2 8.1 3.4 0 6.5-1 8.3-4 2.2-3.3.1-10.4-7.3-10.4" style="fill:#494949"/><path d="M76.3 92.2c-.5 0-1.2.7-2 1-2.2.9-5.6 1.8-7.6 2.2-1.3.3-2.4 1.6-2.7 3-.3-1.4-1.4-2.7-2.7-3-2-.4-5.3-1.6-7.7-2.3q-.7-.3-1.4-.3c-.7 0-1.3.5-1.3 2.6v9.3q0 1.1 1 1.8c1.2.7 6.6 1 12 1s11-.3 12.1-1q1-.6 1-1.8v-9.3c.1-2.5-.2-3.2-.7-3.2" style="fill:#383535"/><path d="M64 16c-17.2 0-33.2 13-33.2 40a40 40 0 0 0 25.3 38.8 24 24 0 0 0 7.9 1.5q3.6 0 7.8-1.5A40 40 0 0 0 97.1 56c0-27.1-16-40-33.1-40" style="fill:#ba8d68"/><path d="M99.5 43s2-34.7-36-34.7-35 35.7-35 35.7 2.2 39 5 45l3 2s-1.8-17.8-2-30.3c-.1-3-1-13.7 5-15 21.8-5.1 34.1-17 34.1-17C77 36 87 43 90.6 45.6c2.9 2.2 2.5 11.2 2.4 15L91.5 90l2-1c2.9-6 6-46 6-46" style="fill:#543930"/><radialGradient id="c" cx="64.1" cy="54.1" r="36.8" gradientTransform="matrix(1 0 0 -1.585 0 161.3)" gradientUnits="userSpaceOnUse"><stop offset=".9" style="stop-color:#6d4c41;stop-opacity:0"/><stop offset="1" style="stop-color:#6d4c41"/></radialGradient><path d="M64.4 13.7c-37.3 0-37 34.5-37 35 0 13.8.6 31 3.2 45.2 4.8-.7 10.4-2 13.8-2.8l2.3-.3q1 0 1.9.3A41 41 0 0 1 30.9 56c0-27.1 15.9-40 33-40s33.3 13 33.3 40c0 17.3-8.4 29-17.8 35l2-.2 2.3.3c3.4.9 9 2 13.7 2.8 2.5-14.2 3.2-31.4 3.2-45.1 0-.6 1.3-35.1-36-35.1" style="fill:url(#c)"/><path d="M67.7 74h-7.6q-1 .5-.7 1.7a5 5 0 0 0 4.5 2.6c2.8 0 4.2-2 4.5-2.6q.4-1.2-.7-1.6" style="fill:#99674f"/><path d="M72.3 81.1a25 25 0 0 1-16.7 0c-1.8-1-3.6.6-2.9 2.3s6.4 5.3 11.3 5.3 10.4-3.7 11-5.4c.8-1.6-1-3.2-2.8-2.2" style="fill:#5d4037"/><ellipse cx="47.5" cy="64.3" rx="4.9" ry="5.1" style="fill:#49362e"/><ellipse cx="80.4" cy="64.3" rx="4.9" ry="5.1" style="fill:#49362e"/><path d="M92.1 64.2S84.8 93.4 64 93.4 35.9 64.2 35.9 64.2m56.2-.1S84.8 93.4 64 93.4 35.9 64 35.9 64" style="fill:none;stroke:#4e342e;stroke-width:3;stroke-linecap:round;stroke-linejoin:round;stroke-miterlimit:10"/><radialGradient id="d" cx="63.6" cy="55.9" r="42.6" gradientTransform="matrix(1 .01 -.012 1.267 .67 -15.54)" gradientUnits="userSpaceOnUse"><stop offset=".6" style="stop-color:#424242"/><stop offset="1" style="stop-color:#616161"/></radialGradient><path d="M104 66.2a249 249 0 0 0-3-43.6C97.3 6 74.6 4.6 64.9 4.4h-2.2C53 4.5 30.8 6 27 22.6a248 248 0 0 0-2.6 45c1.9.6 4.3.9 6 .7 11-1.7 22.1-4 33.3-4 11.4 0 22.8 2.3 34 4 1.6.2 4 0 6.2-.6z" style="fill:url(#d)"/></svg>