<svg xml:space="preserve" width="16" height="16" viewBox="0 0 128 128"><path d="M11.8 122q8-4 23.3-16.7l-12-12a145 145 0 0 0-16.6 23.3c3 .1 5.2 2.5 5.3 5.4" style="fill:#bdbdbd"/><path d="M4.9 123.6q1.3 1.2 5.2-.8l1.6-.8a5.5 5.5 0 0 0-5.3-5.4l-.8 1.6q-1.8 4.1-.7 5.4" style="fill:#616161"/><path d="m12 113.5-.6.4q-.5.5-1 .5.2-1 .9-2c2.8-4.8 4.8-8.4 8.8-12.1q.4-.4 1-.6.8 0 1.4.9.7 1 .7 2c0 .7-.8 1.1-1.3 1.6-3.6 3.3-6.2 6-10 9.3" style="fill:#eee"/><path d="M107.9 7.8 105 5.3q-1.6-1.5-3.7-1.3a5 5 0 0 0-3.5 1.7l-12 11.7-19.5 19.3c-1 1.1-.3 1.8-.2 1.9 1.3 1.4 3.7 1.6 5.4.7q2.6-1.6 3.1-4.8c.2-1.2.3-1.9 1.3-2.7.3-.3 19.2-18 22.1-21.3.5-.5 2-1.7 3.5-.5l5.8 4.9 3.5-4v-.2c0-.3 0-.3-3-3" style="fill:#bdbdbd"/><path d="m73.4 55-7.6-7.6a865 865 0 0 0-44.8 47q-.7 1.2.1 2.1L32 107q1 .8 2 .1c3.5-2.7 15.6-13.2 47.1-44.3 0-.2-7.7-7.8-7.7-7.8" style="fill:#1565c0"/><path d="M123.1 17v-.1c1.1-2.6-.5-5.6-3.3-8.2-2.7-2.7-5.7-4.4-8.2-3.2l-.1-.1S88 21.8 63 48c-.7.7-.7 2 0 2.6l14.9 15c.6.6 1.8.7 2.6 0C106.7 40.3 123.1 17 123.1 17" style="fill:none"/><path d="M105 10.5c-.7-1-2.2-2.3-3.3-2.8-1.2-.5-2 0-2.8.6a250 250 0 0 0-12.2 12.9q-.4.4-.4 1a206 206 0 0 1 11.9-11c1.2-1.2 2.5-2.1 3.4-1.2l2 1.7z" style="fill:#757575"/><path d="M123.1 17c1.2-1.8-.5-5.7-3.3-8.3s-6.5-4.6-8.3-3.3S88.1 21.8 63.1 48c-.7.8-.7 2 0 2.6l14.9 15c.6.6 1.8.7 2.6 0A350 350 0 0 0 123.1 17" style="fill:#1565c0"/><path d="M29.4 94c-1.1 1-4.4 2.5-2-1.5l3.6-4.4c3.3-4 22.2-23.1 25.6-26.7 2.8-2.8 5.2-3.5 6-1.5.5 1.3-.6 3-6.5 9.2a425 425 0 0 1-26.7 25M83.7 41s-3.5 4.2-6 2c-2-1.7 2.6-5.7 2.6-5.7.2-.1 16.2-15.2 21-19 2-1.6 4.4-3.4 5.1-2.8q1 1-3.4 5.6z" style="fill:#2196f3"/><path d="M123.1 17v-.1c1.1-2.6-.5-5.6-3.3-8.2-2.7-2.7-5.7-4.4-8.2-3.2l-.1-.1S88 21.8 63 48c-.7.7-.7 2 0 2.6l14.9 15c.6.6 1.8.7 2.6 0C106.7 40.3 123.1 17 123.1 17" style="fill:none"/><path d="M72.3 32.5c-.7.5-.4 2.8-1 4q-.6 1.6.5 1.2c.9-.2 1.8-1.5 1.8-3.5 0-1-.5-2.2-1.3-1.7" style="fill:#eee"/><path d="m104 11-.9.6a42 42 0 0 1 11 10.3q.8 1.8.3 4.4c-.5 1.8-1.3 2.5-1.6 4.3l4.8-6s-1.4-3.6-6.2-8.4c-4.7-4.8-7.4-5.3-7.4-5.3m15.8-2.2C117.7 6.6 115 5 113 5c0 0 3.5 1.9 5.5 4.5 2.2 2.8 3.6 5.3 2.6 6.9A343 343 0 0 1 80.3 63a1 1 0 0 1-1.5-.2 45 45 0 0 0-6.1-7.3 33 33 0 0 0-9.8-7.5s-.7.4-.8 1.6q-.2 1.3 0 1.5l.8-.8a40 40 0 0 1 12 10.5c0 .3 1.1 2.5-1 6l-.8 1a590 590 0 0 1-39 36.5c-2.4 1.7-3.6 1.1-3.6 1.1l1.7 1.6c.7.6 1.5.2 1.8 0 2.9-2.2 11.8-10 33-30.6h.1l10.2-10h1.4c1.3-.2 1.7-.8 1.7-.8l.2-.2c26.1-25 41.3-46.7 42.5-48.5s-.5-5.7-3.3-8.3" style="fill:#0d47a1"/><path d="M77 51.2a42 42 0 0 0-9.8-7.5q-.2-.2-1.5.7c-.5.7-.7 1.5-.7 1.5q3.9 1.5 10 7.4a39 39 0 0 1 7.5 10.4s1 0 1.7-.6c.8-.8.6-1.6.6-1.6a40 40 0 0 0-7.7-10.3" style="fill:#ffc107"/><path d="M115.2 13.1q-3.2-3.1-6.7-5.5s-1.5-.6-3 .7-1.4 2.6-1.4 2.6q3.1 1.9 7.3 6 4 3.9 6.2 7.6s1.5 0 2.6-1.4.7-3 .7-3a47 47 0 0 0-5.7-7" style="fill:#bdbdbd"/><path d="M107.2 8.8q-.9.1-1 1t.7 1.4q2 1.9 4.3 2.9.6.2 1-.1l.2-.7q-.1-1.6-1.2-2.7c-1-1.1-2.4-2.2-4-1.8" style="fill:#eee"/></svg>