<svg xml:space="preserve" width="16" height="16" viewBox="0 0 128 128"><path d="M72.9 72c.4.5 21.8-17.8 21.8-17.8L97 23.7l-18.5 8-31.2-1.3-15.7-7L34 53.2z" style="opacity:.5;fill:#fff"/><path d="M62.7 6 46.8 7.4l-12 4.3-6.6 7 7.2 84-.1 10.6s8.5 11 28.5 11 29.8-10 29.8-10l-.1-10.9 6.5-84-4.7-6.7-18-5.8z" style="opacity:.7;fill:#e0e0e0"/><path d="M33.9 53.3c0 2.7 3.5 50.3 5 52.9 1.5 2.5 9.5 10.3 25.1 10s25.1-7.1 26-9.5 4.7-52.5 4.7-52.5-.4-5.4-11.7-9.2-25.3-3-32.4-1.5c-9 1.8-16.7 6.7-16.7 9.8" style="fill:silver"/><path d="m39 62.6-3-6v-2.8c.3-1 2.1-6 14-8.4a71 71 0 0 1 29.9.7c5.9 1.6 11.6 4.7 12.4 7.8.9 3.5-.7 5-.7 5l-5.8 9.4-43-.6z" style="fill:#fcf9e9"/><path d="M40.8 104.8c.3 1.3 6.4 8.8 22.9 8.8s23.8-6.1 24-7.5l4.8-49s-6.8 8.8-28.3 8.4-28.3-8.9-28.3-8.9 4.4 46.8 4.9 48.2" style="fill:#f0e7ba"/><path d="M42.1 38.2c-2.3.1-3.6 2-3 5.7.3 2.5 1 5.2 4.3 4.9 3.3-.4 3.4-4 3-6-.5-3-1.6-4.8-4.3-4.6m1.2 12c-2.3.2-3 1.6-2.7 5.7L44 98c.3 3 1.6 4 3.4 4s3.2-1.8 3.1-3.8c0-2-3.1-40.5-3.4-42.7s-.6-5.5-3.8-5.3M38.5 109c-.7 1.8 1.6 5.4 6.3 7.8 5.3 2.7 11.1 2.3 11.2 0s-3.5-1.6-9-4.2c-4.5-2.2-7.5-6.4-8.5-3.6" style="fill:#fff"/><path d="M66.2 119.5c-.2 1.7 8.7 1.1 15.6-1.2 7.8-2.7 10-6.5 9.2-7.8-1-1.4-2.7 2-10.4 4.5-10.7 3.5-14.1 1.8-14.4 4.5" style="fill:#d5d5d5"/><path d="M65.1 34.3h-.7c-22.5-.2-30.9-6-33.9-9.7a9 9 0 0 1-2.1-7.5c2.2-6.8 15-12.8 35.7-13 23.3 0 35.3 8.2 35.8 13.8.2 1.8-.1 5-2.8 7.8-4.9 5.1-16.4 8.6-32 8.6m-32-16.4c-.3 1.7-.4 3 1 4.7 2.2 2.6 8.3 8 30.3 8.1h.7c19.8 0 26.1-4.3 28.8-7.2q2.1-2.4 1.8-4.8C95.3 15 85.6 7.9 64.3 8c-22.6 0-30.3 5.8-31 9.7z" style="fill:#c8c8c8"/><path d="M35.9 13.9c-.5-.5-2.1-.2-3.4 1.3-1.2 1.4-2.8 4.2-.5 7.4 2.4 3.1 9.6 9 33.3 9.4 21.3.3 31.6-7 31.9-12s-2.8-4.8-2.8-4 .6 2 .4 3.6c-.2 2-5 10-29.8 10.1-23.8 0-31.6-7.6-31.5-10.1.1-3.8 3.4-4.7 2.4-5.7" style="fill:#fff"/></svg>