<svg xml:space="preserve" width="16" height="16" viewBox="0 0 128 128"><path d="M102.7 116.6s-4-1.6-6-3.1-3.7-3.4-4.8-4.5q-1.2-1-2-1-1 0-1.6.9l-2.6 3.2c-1 1.8-.2 4.1-.2 4.1s-2.7 2.9 1.8 3.9 10.2 1.5 10.2 1.5l1 .1c1.9 0 4.6-.7 5.4-2.7 0 0 1.3-1.4-1.2-2.4" style="fill:#4568ac"/><path d="M85.3 111.5 70 109.7s5.1-15.8 6.6-23.3c0 0-12.5 3.7-19 3.7l-1 19.8c-.4 8.4 2.2 10.9 6.3 11.8q1.4.3 3.2.3c5.3 0 12.9-1.7 19-2.5 2.4-.2 1.7-6.9 0-8" style="fill:#616161"/><path d="M47 119.6c0-2-2-4.4-2-4.4h-7.6l-6.9 2.3a4 4 0 0 0-2.8 4v1.4q.1 1 1.1 1.1h17q1.2-.1 1.3-1.3z" style="fill:#4568ac"/><path d="M77.4 77.6q0-.5-.5-.4l-18 1.2c-.2 0-10.4 1.4-16.7 2-7.4.6-8.1 8-7.8 15a375 375 0 0 0 2.2 20.3s1.8 1 5 1c3 0 4.6-1 4.7-1l.2-.4L49 94.6c1.3-.1 5.4-.3 8.7-.2 6.5.3 13 0 16.8-4.2q3.9-4.2 2.8-12.6" style="fill:#7c7c7c"/><path d="M69 29c1-3.7 1.6-8.3 1.1-11.1q0-1-.5-1.6-.9-1.7-2.4-3.1l-.8-.7-.1-.1-.7-.5-.1-.2-.7-.4-.2-.2-.7-.4-.2-.1-.7-.4-.2-.1-.8-.4h-.1q-2.4-1-4.8-1H56c-5.7.7-9 4.7-10 9.9a14 14 0 0 0-.2 5l.3 1.8c.2 1.4-2.6 2.6-3 4.2-.3 1.1 2.1 2 2.3 2.2.9 1-.9 6 5.8 6.8l3.6.3c1.6.3 1.1 6.7 1.1 6.7l11.5-2.3s-1.5-7.4.2-10.7q.8-1.5 1.3-3.6" style="fill:#ffca28"/><path d="M46 34.6q1.3.2 2.6-.6c.9-.6.3-1.3-.7-1a4 4 0 0 1-2.2.2z" style="fill:#795548"/><ellipse cx="50.2" cy="26.3" rx="1.9" ry="1.2" style="fill:#404040" transform="rotate(-89.2 50.2 26.34)"/><path d="M49.4 23.5c-1.2.2-1.4-.6-1-1.2q.5-.7 2.5-.3 1.8.8 2 1.7.4 1.2 0 1c-.5 0-2-1.5-3.5-1.2" style="fill:#6d4c41"/><radialGradient id="a" cx="62" cy="72.2" r="17" gradientTransform="matrix(1 0 0 -1 0 128)" gradientUnits="userSpaceOnUse"><stop offset=".4" style="stop-color:#00bfa5"/><stop offset=".8" style="stop-color:#00b29a"/><stop offset="1" style="stop-color:#00ab94"/></radialGradient><path d="M71.3 48.8c-1.9-6.4-5-8-7.8-8-3 0-5.4 1.7-5.4 1.7C53.3 46 53.3 51 52.9 58s-.8 21-.8 21 5.4 2.2 13.7 2.2h.7c8.6-.1 11.8-3.1 11.8-3.1s-4.6-21.4-7-29.3" style="fill:url(#a)"/><linearGradient id="b" x1="53.1" x2="51" y1="47.9" y2="62.3" gradientTransform="matrix(1 0 0 -1 0 128)" gradientUnits="userSpaceOnUse"><stop offset=".5" style="stop-color:#ffca28"/><stop offset="1" style="stop-color:#ffb300"/></linearGradient><path d="M71.4 66.9c-.4-3-2.7-14.4-2.7-14.5q-.2-.5-.6-.4L58 53l-.5.5L61 68.8c-1.8 1-10.4 6.1-12.9 6.6-1.6.4-4.5.8-7.8 1.2-2.6.4-5.3 3.8-6.6 5.9a1.7 1.7 0 0 0 2.3 2.3l3.6-2.2q.9.2 4 .2c2.6-.1 5-1.2 5.1-1.2 1-.4 5.3-1.1 9.5-1.9l8.5-1.6C73 76.8 72 69.6 71.4 67" style="fill:url(#b)"/><path d="M69.7 52.9c-.5-3-2.9-6.6-6.8-6.6l-1 .1c-4.6.8-6 5.6-5.4 8.8l2 9.6 13.1-2.3z" style="fill:#04a287"/><path d="M70.4 13a17 17 0 0 0-11.7-5.4q-4.6-.1-8.3 1.6s-4.7 2.4-5.8 4.7 0 3.8.2 4c.4.4 1.3.3 1.3.3a49 49 0 0 1 10.2 0q.8 0 1.1.6l.2 1.5c.2 2.6 0 4.2.9 5.8 0 .3.6.6.6.6l1-1.6q1-1.7 2.1-1.6c2.6.4 2.3 5-.7 6 0 0 .6 3.6 3.8 4.1 2.9.5 3.2-.1 3.5-1.2.5-2.3 1.2-3.3 1.8-4.4.8-1.2 1.6-2.5 2.2-6q.8-5-2.4-9" style="fill:#543930"/><radialGradient id="c" cx="57.9" cy="103.8" r="18" gradientTransform="rotate(186.7 -2.28 59.92)scale(-1 .986)" gradientUnits="userSpaceOnUse"><stop offset=".5" style="stop-color:#6d4c41;stop-opacity:0"/><stop offset="1" style="stop-color:#6d4c41"/></radialGradient><path d="M70.4 13a17 17 0 0 0-11.7-5.4q-4.6-.1-8.3 1.6s-4.7 2.4-5.8 4.7 0 3.8.2 4c.4.4 1.3.3 1.3.3a49 49 0 0 1 10.2 0q.8 0 1.1.6l.2 1.5c.2 2.6 0 4.2.9 5.8 0 .3.6.6.6.6l1-1.6q1-1.7 2.1-1.6c2.6.4 2.3 5-.7 6 0 0 .6 3.6 3.8 4.1 2.9.5 3.2-.1 3.5-1.2.5-2.3 1.2-3.3 1.8-4.4.8-1.2 1.6-2.5 2.2-6q.8-5-2.4-9" style="fill:url(#c)"/></svg>