<svg xml:space="preserve" width="16" height="16" viewBox="0 0 128 128"><path d="m32.2 68.3 16.3-2.7S42.3 58.8 34 57s-11.8-1.5-11.8-1.5-6.1-3.8-10.3-5.1-8-.8-8-.8V67zM94.6 70 80 65.2s9.3-6.7 14.4-8c5.4-1.5 11.3-1 11.3-1s4.4-3.8 9.5-5.8 9-2.1 9-2.1v17.5s-5 6-5.2 5.8z" style="fill:#a1d1da"/><path d="M99.2 65s2.6-4 5.6-4.2c4-.3 5.3.7 5.3.7s2-1.4 3.7-1.4c2.5.1 4 2.6 4 2.6s1.2-3.5 2.6-3.5c2.4 0 2.7 6 2.7 6l-8.1 3.2zm-94.4.9s2-6.5 3.6-6.4c1.5 0 2.6 2.9 2.6 2.9s1.4-7.3 3.6-7.3c2 0 3.3 10.2 3.3 10.2l3 1.3 3.4-.9s1.7-4.4 2.8-4.3c1 0 1.7 2.3 1.7 2.3s.8-4.2 2.4-4.2c1.9 0 3 6 3 6l-15.8 5.4z" style="fill:#518e2c"/><path d="M124.2 64.7v52c0 4.1-3.4 7.5-7.5 7.5H11.4a7.5 7.5 0 0 1-7.5-7.5V65.4z" style="fill:#7db240"/><path d="m48.5 65.1 16.8-.1H81l33.8 59.2H12.4z" style="fill:#5e6367"/><path d="m18.4 124.2 32-59.1h2.3l-30.5 59.1h-1.8zM79.5 65h-2.8l29.4 59.2h3.2zm-33.9 55 4.4.2 3-13.6h-4.1zM75 106.9h4l3 13.2h-5zm-.9-5.6 3.9-.1-2.5-10.8h-3.2zM56.3 90.1h-3.4l-2.6 11.3H54zM56 77.8h2.8l-1.5 7.6h-3.4zm1.9-7.8-1.2 4.6h2.8l.8-4.5zm.6-2.2h2.4l.5-2.8h-2.2zm10.3 0h2.7l-.6-2.8h-2.4zm.7 2.5h2.3l1 4.3H70zm1.1 7.5h2.7l1.5 7.8h-3.3z" style="fill:#fff"/><path d="M17.5 20.2v60h5.7v-61zm87 62.5.4-62.9 5.7.4-.3 62.5z" style="fill:#9a9a9a"/><path d="M113.1 21.4H14c-1.1 0-2-1-2-2s.9-2 2-2h99q1.8.2 2 2c.2 1.8-.9 2-2 2M14.1 41a2 2 0 1 1 0-4l99.4-.2a2 2 0 1 1 0 4z" style="fill:#c8c8c8"/><path d="M85.1 26.7h25.7v3.5H85.1z" style="fill:#c8c8c8" transform="rotate(-45 97.89 28.43)"/><path d="M28.8 16.2h3.5v25.6h-3.5z" style="fill:#c8c8c8" transform="rotate(-45 30.58 28.98)"/><path d="M90.8 48.6h-54c-2 0-3.5-1.6-3.5-3.6V11.8c0-2 1.6-3.6 3.6-3.6h53.9c2 0 3.6 1.6 3.6 3.6V45c0 2-1.6 3.6-3.6 3.6" style="fill:#dfe1e0"/><path d="m36.4 45.5.3-34.6 54.5.2v34.3z" style="fill:#1b9372"/><path d="m69.8 25.5.2-8.6h14.8v8.7zM45.1 21c0 3.5 2.8 5.8 6 5.8 3 0 5.7-2.3 5.7-5.9S53.5 15 51 15c-3.2 0-6 2.2-6 6" style="fill:#85d59e"/><path d="M48.6 29.2h5v5.2s6-2.2 6.5-1.6-7.8 9.2-8.8 9.2a43 43 0 0 1-9.3-9c.3-.7 6.7 1.2 6.7 1.2zm26.6.3h5v5.2s6-2.2 6.4-1.6a38 38 0 0 1-8.7 9.2 43 43 0 0 1-9.5-9.1c.3-.7 6.8 1.2 6.8 1.2z" style="fill:#fefffe"/></svg>