<svg xml:space="preserve" width="16" height="16" viewBox="0 0 128 128"><path d="M116 4H12a8 8 0 0 0-8 8v104a8 8 0 0 0 8 8h104a8 8 0 0 0 8-8V12a8 8 0 0 0-8-8" style="fill:#bdbdbd"/><path d="M109.7 4H11.5A7.6 7.6 0 0 0 4 11.5v97.9c0 4.1 3.3 7.5 7.5 7.5h98.1c4.1 0 7.5-3.3 7.5-7.5V11.5a7.3 7.3 0 0 0-7.2-7.5z" style="fill:#e1e1e1"/><path d="M39.7 12.9c0-2.3-1.6-3-10.8-2.7-7.7.3-11.5 1.2-13.8 4-1.9 2.3-2.3 5.6-2.6 8.4-.2 2.2-2.2 14.9 3.5 11.2q1-.7 1.6-1.8c1.2-2.1 1.9-3.5 3.3-5.6 5.3-8.6 18.8-10.5 18.8-13.5" style="fill:#fff"/><path d="M81.7 45.9c-2-4-1.9-7.5-2.9-11.2a15.2 15.2 0 0 0-29.8 0c-1 3.7-1 7.3-2.9 11.2-1.7 3.3-3.4 3.1-3.4 4.9s2.6 3.2 5.8 3.6q4 .5 7.5-.7a16 16 0 0 1-5.7-8.2c-.3-1.1-.6-2.2.1-2.3.8-.2.6 1.3 2.3 3.6 3.4 4.5 6.2 6 11.2 6.1s7.8-1.6 11.2-6.1c1.7-2.2 1.5-3.5 2.3-3.6.8 0 .4 1.4.1 2.5-.4 1.8-2.1 5.5-5.6 8.1 2.1.8 4.9 1.1 7.5.7 3.2-.4 5.8-1.8 5.8-3.6-.1-1.8-1.8-1.6-3.5-5m-26.5 27s2.7-2 6.3-1.7S67 73 68.6 75a17 17 0 0 1 15.2-6.8C81.5 60.5 73.7 56.8 66 56.8h-6.3c-7.3 0-13.6 3.9-15.7 11.5 5 .1 9.4 2.3 11.2 4.6"/><circle cx="82.2" cy="84.8" r="12.3"/><path d="M70 110.8c-1 0-1.8-.9-1.5-1.9 1.4-5 7-9 13.6-9 6.7 0 12.3 3.9 13.7 9 .3 1-.5 1.9-1.5 1.9zm-37.5 0c-1 0-1.8-.9-1.5-1.9 1.4-5 7-9 13.6-9 6.7 0 12.3 3.9 13.7 9 .3 1-.5 1.9-1.5 1.9zm33.3-23.3c1.7-5.6 1-10.1-3.4-11.5-3.8-1.2-7 1.5-7.6 2.2-2.2-3.3-6-5.5-10.2-5.5s-8 2.2-10.2 5.5c-.6-.8-3.8-3.5-7.6-2.2-4.5 1.5-5.2 5.9-3.4 11.5a7 7 0 0 1-.3 5.1q-.2 1 .7.8c6.2-1.7 6.2-7.6 6.5-9.9.3-2.7 1.8-2.8 2.7-2.6q-.9 2.6-.6 5.5a12.3 12.3 0 1 0 23.8-5.6c1-.2 2.3-.2 2.7 2.6.3 2.2.3 7.8 5.9 9.7a1 1 0 0 0 1.1-1.1 8 8 0 0 1-.1-4.5m3.9 8.9c-.8-1-2.9-1.4-4.4-.2l-1.4 1.5-1.4-1.5c-1.6-1.3-3.6-.8-4.4.2q-2 2.4.5 5.5c2.3 2.8 5.2 5.5 5.3 5.5s3-2.7 5.3-5.5q2.6-3.2.5-5.5"/></svg>