<svg xml:space="preserve" width="16" height="16" viewBox="0 0 128 128"><radialGradient id="a" cx="63.6" cy="1400.9" r="57" gradientTransform="translate(0 -1338)" gradientUnits="userSpaceOnUse"><stop offset=".5" style="stop-color:#fde030"/><stop offset=".9" style="stop-color:#f7c02b"/><stop offset="1" style="stop-color:#f4a223"/></radialGradient><path d="M63.6 118.8c-27.9 0-58-17.5-58-55.9S35.7 7 63.6 7c15.5 0 29.8 5.1 40.4 14.4 11.5 10.2 17.6 24.6 17.6 41.5s-6.1 31.2-17.6 41.4a61 61 0 0 1-40.4 14.5" style="fill:url(#a)"/><linearGradient id="b" x1="63.6" x2="63.6" y1="1456.8" y2="1345" gradientTransform="translate(0 -1338)" gradientUnits="userSpaceOnUse"><stop offset=".2" style="stop-color:#f4a223"/><stop offset=".3" style="stop-color:#f7c02b"/><stop offset=".8" style="stop-color:#fde030;stop-opacity:0"/></linearGradient><path d="M63.6 118.8c-27.9 0-58-17.5-58-55.9S35.7 7 63.6 7c15.5 0 29.8 5.1 40.4 14.4 11.5 10.2 17.6 24.6 17.6 41.5s-6.1 31.2-17.6 41.4a61 61 0 0 1-40.4 14.5" style="fill:url(#b)"/><path d="M111.5 29.7a57 57 0 0 1 8.1 30.2c0 16.9-6.1 31.2-17.6 41.4a61 61 0 0 1-40.4 14.5 59 59 0 0 1-48.2-23 58 58 0 0 0 50.2 26c15.4 0 29.8-5.2 40.4-14.5a54 54 0 0 0 17.6-41.4q-.1-19.2-10.1-33.2" style="fill:#eb8f00"/><path d="M79.7 68.3c-9 2.2-11.8 2-15.5 2h-.4c-3.7 0-6.5.2-15.5-2-1.6-.3-2.9 1.9-.5 3.8 4.8 3.9 10.5 5 16.2 5s11.4-1.1 16.2-5c2.4-2 1.1-4.1-.5-3.8m-36-13.2q2.8 0 5.5.6 1.7.3 2.4-1.1a11 11 0 0 0 1.1-5c0-5.9-3.8-9.4-8-9.4s-8 3.5-8 9.4q0 2.3.9 4.5a2 2 0 0 0 2.2 1.2zm40.6 0q-2.7 0-5.5.6-1.7.3-2.4-1.1a11 11 0 0 1-1.1-5c0-5.9 3.8-9.4 8-9.4s8 3.5 8 9.4q0 2.3-.9 4.5a2 2 0 0 1-2.2 1.2zM68.7 70h-2a36 36 0 0 0-.3 6.3l2.2-.2q-.2-3 .1-6.1" style="fill:#422b0d"/><radialGradient id="c" cx="65.5" cy="50.8" r="41.9" gradientTransform="rotate(85.6 2.89 21.26)scale(1 -.721)" gradientUnits="userSpaceOnUse"><stop offset="0" style="stop-color:#fff176"/><stop offset=".1" style="stop-color:#ffee6e"/><stop offset=".4" style="stop-color:#ffe658"/><stop offset=".7" style="stop-color:#ffd835"/><stop offset="1" style="stop-color:#ffc503"/><stop offset="1" style="stop-color:#ffc400"/></radialGradient><path d="M92.4 93.9a4 4 0 0 0-1.2-1.9 8 8 0 0 0-7.7-2.4l-.1-.3a13 13 0 0 0-.8-8.2 8 8 0 0 0-7-4.3c-2.2-.2-7 1-7.6 1.1 0 0 1-3 1.1-9.6.4-13-3-14.3-5.5-14.7-3.9-.6-4.5 2.2-4.3 6.6 0 2.3.3 7-2 16.7a26 26 0 0 1-4.2 9c-8.7 13-6.9 25.3-1.4 31.9 3.4 3.8 8.1 5 13.2 5.2 4.1.3 10.2-.4 14-4.2 4-3.7 5.5-13.7 5.6-14.6q1.8 0 3.6-.6a7 7 0 0 0 3.6-3q1.2-2 1-4.5z" style="fill:url(#c)"/><path d="M88.8 101.4s-1.3 1.3-4.5 1.2a7 7 0 0 0-1.4-3.1c.8-1.8 2.5-5.5 1.4-8.7 4-.4 6.1 1.6 6.6 3.8a6.4 6.4 0 0 1-4.7 8c-2.3.4 3.4 1.8 3.6 2 4.2-2 4.2-6.9 4.1-9.2-.5-6.3-6.4-7.6-9.5-7 0-6.3-2.2-12-9.4-12.3q-3.8 0-5.3.5s.4-1.8.6-6.6c.4-10.4-1.4-17.8-7.6-17.8-3.8 0-3.9 2.8-4.2 7.4s.9 14-6.5 26.7c-2 3.4-5.2 10.7-4.8 16.7 0 0 2.2-9.4 6.5-16.2 7.7-12.3 6.7-23 6.8-26.8.2-4.7.8-5 2.2-5.2 4.5 0 5.7 4.9 5.3 14.4-.2 4-.3 7.1-1.6 8.6-1.3 1.4-5.5 4.2-6.1 6-.6 2 3.7-3.7 12.4-5 5.8-.7 8.8 2.3 8.7 7.9-5.8-4-13.8 1.5-15.4 3s-2.2 3-2.2 3c3.8-1.9 10.4-5.7 15-4 3.5 1.5 3.3 5.5 1.8 8.6-4.7-3.2-11.2-.2-13.1 1.4s-1.7 2.9-1.7 2.9c8.8-6.1 13.7-1.6 14.7-.3 2 2.3 2 4-.4 7.8-1.7 2.8-4.4 2-4.9 1.5-1-1-1.5-3-.5-4 1-.8 1.9-1 1.5-1.3-.3-.5-2-.7-3 0-1.9 1.3-1.8 4.9 0 7 3 2 4.6 1.4 5.8.8.8-.4.3 2.8-3.3 5.7-4.2 3.3-20 4.7-26.8-5.5 0 0 1.8 9.9 19 10.2 8 .2 13-4 14.4-8.9l2-6.2c1-3.3 1.7-2.8 2.6-3q1.7-.3 3.1-1z" style="fill:#eb8f00"/><path d="M42.6 43.7a2.6 2.6 0 0 0-1.7 4.8 2.6 2.6 0 0 0 1.7-4.8m38.5 0a2.6 2.6 0 0 0-1.7 4.8 2.6 2.6 0 0 0 1.7-4.8" style="fill:#896024"/></svg>