<svg xml:space="preserve" width="16" height="16" viewBox="0 0 128 128"><path d="m64.4 5.6-1 3.6-3.3-.3c-.2 2.2.8 4.1 2.3 4.5l-1 3.7-5.6-.9c-.2 2.4 1 4.4 2.7 4.6l1.8.5-1.6 6 5.8 1.6 2.3-23.1z" style="fill:#94d1e0"/><path d="M59.6 40.4H28.4c-7.2 0-7.9-4.4-7.6-7.4q.7-5.5 5.5-5.6L56.6 26z" style="fill:#dfecf5"/><path d="m56.6 39.8 22.5 3.3v-8.4q-.2-3-3.2-4l-19-4.6q-1-.3-2 .5c-.8.7-1.9 2.2-2.2 5q-.7 7.3 4 8.2" style="fill:#82aec0"/><path d="m53.5 35.9-32.3.6q-.2 0-.4-2.9c-.2-2.9.8-3.3.8-3.3l31.9-1.4z" style="fill:#8ec9d6"/><path d="m52.9 35.9 22.3 3.4a1 1 0 0 0 1.2-1v-3q0-1-.8-1.1l-22.3-5.3c-1.5 3.4-.4 7-.4 7m63.7 47.4L53.8 79l2.8-38 54.5 8.1-.5 13 7.5.9z" style="fill:#2f7889"/><path d="m102.7 27.2 8.5 1.3q.5.1.6 1s.4 1.4-.6 1.8c-.5.3-2.4.8-2.4.8-.8.4-1.3.8-1.4 2.9v12.8l-12-1.1 5.7-17.7q.6-1.8 1.6-1.8" style="fill:#f44336"/><path d="m96 45.7.4-1.5 11 .3v3.3z" style="fill:#c62828"/><path d="m111.4 61.4.5-13.6L59.7 40l-.5 4.7 5 .7-.5 10.8-4.8-.5v5l4.6.4-.5 11-7.2-.5-.4 4.7 62.3 4.8 1.1-19zm-41 11.3-5.5-.4.5-11 5.5.7zm.8-15.6-5.5-.6.5-10.8 5.4.8zm6.9 16.2-5.6-.4.5-10.7 5.5.5zm.7-15.4-5.5-.6.4-10.4 5.5.8zm6.9 16-5.5-.4.4-10.5 5.6.6zm.7-15.2-5.6-.6.5-10.1 5.6.8zm6.9 15.8-5.5-.4.5-10.3 5.5.6zm.7-15-5.5-.5.5-9.8 5.5.8zm6.9 15.6-5.5-.5.5-10 5.5.6zm.7-14.7-5.5-.6.5-9.5 5.5.8zm6.9 15.3-5.5-.5.5-9.8 5.4.6zm.7-14.5-5.5-.6.5-9.2 5.4.8zm6.7 15-5.3-.4.4-9.6 5.5.6z" style="fill:#94d1e0"/><path d="m109.5 54.7-52-7.2 2-2.8 52.2 7.8zm6.9 14.8-60-5.3 2.5-3.5 59.6 6.2z" style="fill:#82aec0"/><path d="m59.4 44.7.3-4.7-32.7.4-.8 4 2.7 2.3-1.9 8.5h-2.3l-.4 5 1.3 1.5-3.5 16L56 78.9l.5-14.9 2.4-3.3v-5h-1.5v-8.2z" style="fill:#dfecf5"/><path d="M6.2 75.4s57-1 111.4 5.7l-.1 5s-8.5-.8-12.4-.8-6 9.4-10.5 9.4-27.7-1-32.7-2.4-3.6-9.5-8.1-10.7C49.2 80.6 6.2 79 6.2 79z" style="fill:#82aec0"/><path d="m99 87.6-.4.9a7 7 0 0 1-6.6 4.3l-25-1.5a7 7 0 0 1-6.6-5.3l-.5-2a7 7 0 0 0-6.1-5L6.2 75.4q-2 .2-2 2s.8 9.6 2 17.3l117 3.8.8-14-18.4-1.1a6.4 6.4 0 0 0-6.6 4.2" style="fill:#dfecf5"/><path d="M6.2 93.6s.9 10.4 4.4 19 12.3 10.9 16.7 10.9h83.4c5 0 8.8-4.2 10.3-9.4.8-2.7 1.8-10.1 2.3-17z" style="fill:#2167a1"/><path d="m30.3 54.5 22 .2-.7-8.7-19.4-.2zM26.5 71l27.3.5-1.2-8.6-23.8-.2z" style="fill:#8ec9d6"/><path d="m84.1 89.1 9.3.5a1 1 0 0 0 1-1.6l-3.2-4.6a1 1 0 0 0-.8-.4l-5-.4a1 1 0 0 0-1.2.8l-1 4.4a1 1 0 0 0 .9 1.3M78 82l-9.6-.6a1 1 0 0 0-1 .5l-2.5 4.7a1 1 0 0 0 .9 1.6l13.4.7a1 1 0 0 0 1-1.4L79 83a1 1 0 0 0-1-.8" style="fill:#2f7889"/><circle cx="24.6" cy="85.5" r="3.9" style="fill:#2f7889"/><ellipse cx="36.9" cy="85.9" rx="3.5" ry="3.6" style="fill:#2f7889"/><ellipse cx="49.2" cy="86.4" rx="3" ry="3.4" style="fill:#2f7889"/><ellipse cx="105.6" cy="89.7" rx="2.4" ry="2.7" style="fill:#2f7889"/><ellipse cx="113.2" cy="89.9" rx="2.1" ry="2.5" style="fill:#2f7889"/><ellipse cx="119.9" cy="90.2" rx="1.8" ry="2.3" style="fill:#2f7889"/><path d="m124 84.5-23.1-2.3" style="fill:none;stroke:#82aec0;stroke-miterlimit:10"/></svg>