<svg xmlns:xlink="http://www.w3.org/1999/xlink" xml:space="preserve" width="16" height="16" viewBox="0 0 128 128"><radialGradient id="a" cx="63.6" cy="1104.9" r="57" gradientTransform="translate(0 -1042)" gradientUnits="userSpaceOnUse"><stop offset=".5" style="stop-color:#fde030"/><stop offset=".9" style="stop-color:#f7c02b"/><stop offset="1" style="stop-color:#f4a223"/></radialGradient><path d="M63.6 118.8c-27.9 0-58-17.5-58-55.9S35.7 7 63.6 7c15.5 0 29.8 5.1 40.4 14.4 11.5 10.2 17.6 24.6 17.6 41.5s-6.1 31.2-17.6 41.4a61 61 0 0 1-40.4 14.5" style="fill:url(#a)"/><path d="m49.5 41-1-.5a16.9 16.9 0 1 0 1 .5" style="fill:#fff"/><defs><path id="b" d="m49.5 41-1-.5a16.9 16.9 0 1 0 1 .5"/></defs><clipPath id="c"><use xlink:href="#b" style="overflow:visible"/></clipPath><g style="clip-path:url(#c)"><circle cx="41.8" cy="43.5" r="7.3" style="fill:#422b0d"/></g><path d="m94.2 41-1-.5a16.8 16.8 0 1 0 1 .5" style="fill:#fff"/><defs><path id="d" d="m94.2 41-1-.5a16.8 16.8 0 1 0 1 .5"/></defs><clipPath id="e"><use xlink:href="#d" style="overflow:visible"/></clipPath><g style="clip-path:url(#e)"><circle cx="86.4" cy="43.5" r="7.3" style="fill:#422b0d"/></g><path d="M69.7 55.8a18 18 0 0 0 5.7 10.8 16 16 0 0 0 10.7 4q6.1-.1 10.8-4.1a18 18 0 0 0 5.7-10.7h.2a16.7 16.7 0 0 1-33.3 0zm-44.6 0A18 18 0 0 0 31 66.6a16 16 0 0 0 10.7 4q6.1-.1 10.7-4.1A18 18 0 0 0 58 55.8h.2a16.7 16.7 0 0 1-33.3 0z" style="fill:#f4a223"/><path d="M111.5 29.7a57 57 0 0 1 8.1 30.2c0 16.9-6.1 31.2-17.6 41.4a61 61 0 0 1-40.4 14.5 59 59 0 0 1-48.2-23 58 58 0 0 0 50.2 26c15.4 0 29.8-5.2 40.4-14.5a54 54 0 0 0 17.6-41.4q-.1-19.2-10.1-33.2" style="fill:#eb8f00"/><path d="M75 98H53a4 4 0 1 1 0-8h22a4 4 0 1 1 0 8" style="fill:#422b0d"/></svg>