<svg xml:space="preserve" width="16" height="16" viewBox="0 0 128 128"><path d="M85.9 74.4q0 2.8-1.1 6.7c-1.6 5-2.7 7.6-6.3 14.3-2.7 4.9-6 10.5-7.4 14.7-2.1 6.6 0 11.6 5.6 13.4 5.5 1.7 10.2-1 12.3-7.6 1.4-4.3 2-10.8 2.6-16.3 1-7.5 1.2-10.5 2.8-15.4a22 22 0 0 1 2.6-5.5zM68.2 93.6c-1.8-4-5.8-9.3-9-13.9-4.3-6.2-6.1-8.5-8.2-13.3q-1.2-2.5-1.6-4.7l-10.3 4.4q1.4 1.7 2.6 4.5C44 75.3 45 78 46.6 85.4c1.3 5.4 2.6 11.8 4.4 15.9 2.8 6.3 7.8 8.6 13 6.2 5.4-2.4 7-7.6 4.2-14" style="fill:#e6a467"/><path d="M49.2 55.7c-.2 2.5 0 6.3 1.3 9.7a22 22 0 0 1-9.2 4.2q-2.9-5.1-6-7.2a49 49 0 0 1 13.9-6.7" style="fill:#784d30"/><path d="M49.5 24.5a38 38 0 0 1 1.7 20.3c-.5 4-1.7 7.3-2 11.4-3 3.2-9.6 6.1-14 6.2l-6-3.8a61 61 0 0 1-14.4-12q-2.4-2.9-4-6.3C3.6 24.3 6.7 11 18.2 5.7 29.9.2 43 8.5 49.5 24.5" style="fill:#7cb342"/><path d="M30.9 4.8c1 2.9-2.9 7.2-8.7 9.8-6 2.6-11.8 2.6-13.2 0q2.9-6 9.2-8.9 6.4-3 12.7-.9" style="fill:#784d30"/><path d="M27.8 57.6q-2.4-1.5-4.6-3.2 7-.8 14.9-4.2a47 47 0 0 0 13.5-9c0 1.6-.6 5.2-.8 6a55 55 0 0 1-23 10.4" style="fill:#ffd600"/><ellipse cx="19" cy="7.5" rx="7" ry="2" style="fill:#88b151" transform="rotate(-24.2 18.98 7.51)"/><path d="M7.2 27.9c3.9.5 10.7-.3 18.5-3.8s14-8.6 16.3-11.9A39 39 0 0 1 51.3 31S47.5 37.6 35 43.2s-19.6 4-19.6 4l-.6-.6q-2.4-2.9-4-6.3A44 44 0 0 1 7.2 28" style="fill:#ffd600"/><path d="m25 30.6 1.7-.1-.4-1.7q-.2-1.7 1-2.3c1-.4 2.2 0 2.6.6l1 1.6 1.4-1.3a2 2 0 0 1 2.3-.1 2 2 0 0 1 .7 2.4l-.8 1.6 1.8.4q1.1.3 1.3 2 0 1.7-1.7 2h-1.7l.4 1.8q0 1.4-1 2A2 2 0 0 1 31 39l-1-1.5-1.3 1.2c-.7.6-2 .7-2.6 0q-1-.7-.6-2.2L26 35l-1.6-.5q-1.5-.6-1.3-2.3.3-1.6 1.8-1.6M9 35.6l1 .2-.3-1.6q0-1.5 1-2 1.2-.4 1.8.8c.5 1.2.7 1.3.7 1.3l1.2-1q1.2-.6 2.2.2c.5.5.8 1.7.5 2.3l-.6 1.3 1.6.5c.6.3 1.1 1.3 1.1 2q-.1 1.3-1.3 1.7c-.6.2-1.6.2-1.6.2l.6 2q.1 1.3-.8 1.7t-2-.7c-1-1-.9-1.3-.9-1.3l-.6.4q-1-1.5-1.8-3.3zm37.7-16.9-.6.8-1-1.2q-1.2-1.1-2.3-.5-.8.5-.5 1.7L43 21l-1.6.2q-1.2.3-1.3 1.6c0 .7.2 1.7 1.2 2 .6.3 1.6.5 1.6.5L42 27q-.4 1.2.6 2 1.1 1 2.2.3l1.2-1 1.1 1.6c.4.6 1.4.9 2 .5q.7-.5.6-1.8l-.4-1.6.9-.2-1.4-3.5q-1-2.4-2.2-4.5" style="fill:#f4511e"/><path d="m15 18.3.1 3c0 1.3.4 2.8 0 3.5q-.6 1.3-2.7 1c-1-.4-1.5-1.5-1.7-2.3a9 9 0 0 1 0-4.1c.4-1.8 1.7-2.2 2.3-2.2q1.5 0 2 1" style="fill:#ccff90"/><path d="M15.1 11.8q.6.4.2 1.9-.1 1.4-1 2c-1 .3-2.6 0-3-.8q-.2-1 .2-2 .8-1.4 1.5-1.5c.4-.1 1.9.2 2.1.4" style="fill:#a65f3e"/><circle cx="30.4" cy="33.2" r="2.5" style="fill:#ffd600"/><ellipse cx="12.9" cy="38.7" rx="1.4" ry="2.5" style="fill:#ffd600" transform="rotate(-19.6 12.88 38.73)"/><ellipse cx="46.4" cy="23.4" rx="1.4" ry="2.5" style="fill:#ffd600" transform="rotate(-26.5 46.35 23.45)"/><path d="M100.2 75a24 24 0 0 0-5.4 8.1 22 22 0 0 1-9.7-3c1-3.8.8-7 .3-9.4 2.1-.2 13.2 3 14.8 4.3" style="fill:#784d30"/><path d="M121.4 52A38 38 0 0 1 109 68.3c-3 2.6-6 4.3-9.1 7-4.4.4-11.2-1.8-14.5-4.6-.6-2.6-1-4-1.9-6.9a61 61 0 0 1-2.7-18.5q0-3.8 1.2-7.4c5.4-16.7 16.7-24.6 28.7-20.8 12.4 3.8 16.6 18.7 10.7 35" style="fill:#7cb342"/><path d="M120.7 25c-1.2 2.7-6.9 3.4-13 1.4-6.2-2-10.5-6-9.7-8.9q6-2.4 12.7-.4 6.7 2.1 10 7.9" style="fill:#784d30"/><path d="m83 62.1-1.2-5.5q5.8 4.3 13.9 7a47 47 0 0 0 16 2.4l-4.5 3.8A55 55 0 0 1 83 62.1" style="fill:#ffd600"/><ellipse cx="110.1" cy="19" rx="2" ry="7" style="fill:#88b151" transform="rotate(-72.1 110.08 19.01)"/><path d="M87.7 26.2c2.5 3 8.1 7 16.3 9.6 8.1 2.6 16.2 3 20 2.2a39 39 0 0 1-5.6 20S111 60.6 98 56.4 80.8 46.2 80.8 46.2v-1Q81 41.7 82 38q2.1-6.5 5.7-11.7" style="fill:#ffd600"/><path d="M99 40c.7.5 1.4 1.3 1.4 1.3l.9-1.6a2 2 0 0 1 2.6-.8q1.2.5 1.2 2l-.3 1.8 1.8-.2c.7 0 1.6.3 1.9 1.7q.2 1.5-1 2l-1.8.8s.7.9 1 1.6q.5 1.2-.3 2.3c-.6.6-1.9.8-2.6.4s-1.3-1.1-1.3-1.1l-1 1.5c-.4.9-1.5 1-2.4.8-.7-.3-1.4-1.1-1.3-2l.3-1.8-1.8.1q-1.5-.2-1.8-1.5c-.3-.9 0-2 1-2.4l1.5-.7-.9-1.5q-.4-1.4.5-2.3c.6-.6 1.8-.7 2.5-.3m-15.3-6.9.6.7 1-1.3q1-1.2 2-.8 1.2.5.8 1.7l-.4 1.5h1.6c.4 0 1.2.3 1.4 1.5q.4 1.5-.9 2.2l-1.5.6.8 1.4q.5 1-.3 2.2c-.5.7-1.7.8-2.2.5l-1.3-1-1 1.9c-.2.5-1.2.8-2 .3-.5-.3-.7-1-.6-1.3l.2-1.7h-.8l.8-3.7zm39.4 12.6-1 .3v-1.6q0-1.5-1-1.8c-1-.3-1.6.4-1.8.9l-.6 1.4-1.3-.9q-1.3-.7-2.3.5-.8 1.2-.1 2.3l.7 1.3-1.5.7q-.4 0-.8.9c-.4 1 .1 2.6 1.3 2.7h1.7l-.4 2q-.1 1.2 1 1.7 1 .3 1.8-1l.8-1.4.8.4 1.4-3.7c.7-2 1.3-4.7 1.3-4.7" style="fill:#f4511e"/><path d="M99.8 24.2q-.6 1-1.3 1.7l-1.6 1.9c-.3.5-1 1.4-1.9 1.4q-1.4-.2-2.2-1.1c-.6-.7-.3-1.7 0-2.5a8 8 0 0 1 3-3.4q.8-.6 2-.8 1 0 1.5.8.7 1 .5 2" style="fill:#ccff90"/><path d="M103.4 18.1q.4.3.7 1.3c.4 1-.2 1.2-.7 1.6q-.9.9-2.1 1-1-.3-1.6-1.3c-.2-.3-.7-1.2 0-1.9q.8-.7 1.8-1c.4-.2 1.2-.4 1.9.3" style="fill:#a65f3e"/><circle cx="101.4" cy="45.7" r="2.5" style="fill:#ffd600"/><ellipse cx="84.6" cy="38.1" rx="2.5" ry="1.4" style="fill:#ffd600" transform="rotate(-67.6 84.64 38.12)"/><ellipse cx="119.7" cy="49.2" rx="2.5" ry="1.4" style="fill:#ffd600" transform="rotate(-74.5 119.73 49.17)"/><path d="M10.5 52.7a24 24 0 0 0 9.4 7.5c1 .5.7 1.7-.8 1.7q-7.3-.2-12.3-7.3a15 15 0 0 1-2.5-11.7c.2-1.1 1.2-.8 1.4-.1.8 2.8 1.2 5 4.8 9.9m50.3-25.6c1.4 6.3-.5 11.4-2.4 13.7-.4.5-1.2.2-1.1-.4.2-2.4.8-7-.3-12.7-1-5-3.6-8.3-4.8-10-.4-.5.1-1.2.7-1 2.6 1 6.5 4.2 7.9 10.4m12.8 8.1a15 15 0 0 1 8-9.4c1.1-.5 1.8.6 1 1.4q-3.5 3.1-5.3 9.3a34 34 0 0 0-.6 12.5c.2 1.2-.9 1.6-1.5.5-1.4-2.5-3.4-8-1.6-14.3m44 39.3a14 14 0 0 1-11.7 2.7c-1.2-.3-1-1-.2-1.3a27 27 0 0 0 9.7-4.8c3.4-2.7 5-5.1 6-7.2.5-1 1.3-.5 1.2.4a13 13 0 0 1-5 10.2" style="fill:#b0bec5"/><path d="M52.3 90.2c1.4-.6 3.5 2.5 4.7 5.1 1.1 2.5 3 6.3.6 7.7s-4.8-2.2-5.7-6.6c-.8-3.2-.7-5.7.4-6.2M78 104.4c3.5 1.2.8 9.5-3.1 9s-.4-10.2 3-9" style="fill:#ffcc80"/><path d="M67.6 25c-1-4.9-4.3-6.2-5-6.7s-2.5 0-1.4 1.2a15 15 0 0 1 3.4 6.5c.6 2.5.4 6.2 0 8.3-.2 1.6 1 1.4 1.6.4s2.4-4.5 1.4-9.7" style="fill:#b0bec5"/></svg>