<svg xml:space="preserve" width="16" height="16" viewBox="0 0 128 128"><radialGradient id="a" cx="63.6" cy="1992.9" r="57" gradientTransform="translate(0 -1930)" gradientUnits="userSpaceOnUse"><stop offset=".5" style="stop-color:#fde030"/><stop offset=".9" style="stop-color:#f7c02b"/><stop offset="1" style="stop-color:#f4a223"/></radialGradient><path d="M63.6 118.8c-27.9 0-58-17.5-58-55.9S35.7 7 63.6 7c15.5 0 29.8 5.1 40.4 14.4 11.5 10.2 17.6 24.6 17.6 41.5s-6.1 31.2-17.6 41.4a61 61 0 0 1-40.4 14.5" style="fill:url(#a)"/><path d="M111.5 29.7a57 57 0 0 1 8.1 30.2c0 16.9-6.1 31.2-17.6 41.4a61 61 0 0 1-40.4 14.5 59 59 0 0 1-48.2-23 58 58 0 0 0 50.2 26c15.4 0 29.8-5.2 40.4-14.5a54 54 0 0 0 17.6-41.4q-.1-19.2-10.1-33.2" style="fill:#eb8f00"/><path d="m38.8 91.6 6.1 5.7 9.5-9.2 9.6 9.2 9.5-9.2 9.6 9.2 6.2-5.8" style="fill:none;stroke:#35220b;stroke-width:8;stroke-linecap:round;stroke-linejoin:round"/><path d="m32.2 69.1 12.2-2.4-12.5-5.2-.4-.2c-2.6-1.6-3.1-4.9-.7-6.9a6 6 0 0 1 6.9-.3l21.3 13q.8.4.5 1.3a1 1 0 0 1-.7.6l-22.9 8.6-.5.2c-3 .8-6.3-.9-6.8-3.8-.5-2.2 1.2-4.3 3.6-4.9m63.6-.3-12.2-2.4 12.6-5.2.4-.2c2.6-1.6 3.1-4.9.7-6.9a6 6 0 0 0-6.9-.3l-21.3 13a1 1 0 0 0-.5 1.3q.2.5.7.6l22.9 8.6.5.2c3 .8 6.3-.9 6.8-3.8.4-2.2-1.3-4.2-3.7-4.9" style="fill:#422b0d"/></svg>