<svg xml:space="preserve" width="16" height="16" viewBox="0 0 128 128"><path d="M39 42.9s2.6-1.7 3.2-4.5q.3-2.7-.8-6.5c-1-4.5-2.3-9.7 2.4-13.2 5.2-3.9 11.2-.5 11.2-.4q.3 0 .3.4v1.8q0 .3-.4.5s-3.3.7-4.1 3.2q-.9 2.9-.6 6.5c0 3.2.1 6.5-1.6 9.2-2.2 3.6-4.8 4.4-6.8 4.4-1.6 0-2.7-.6-2.7-.6l-.3-.4q0-.3.2-.4" style="fill:#543930"/><radialGradient id="a" cx="-962.9" cy="641" r="1" gradientTransform="matrix(-13.177 0 0 13.177 -12639.55 -8416.23)" gradientUnits="userSpaceOnUse"><stop offset=".5" style="stop-color:#6d4c41;stop-opacity:0"/><stop offset="1" style="stop-color:#6d4c41"/></radialGradient><path d="m41.4 32 .1.5 8.8-5.9q0-1.3.5-2.5c.8-2.5 4-3.1 4-3.1q.4-.1.4-.5v-1.8q0-.3-.2-.4s-6-3.5-11.2.4c-4.7 3.5-3.5 8.7-2.4 13.2" style="fill:url(#a)"/><radialGradient id="b" cx="-951.5" cy="635" r="1" gradientTransform="matrix(-15.836 0 0 15.836 -15028.53 -10014.58)" gradientUnits="userSpaceOnUse"><stop offset="0" style="stop-color:#6d4c41"/><stop offset=".5" style="stop-color:#6d4c41;stop-opacity:0"/></radialGradient><path d="M38.8 43.3q0 .3.3.4s1.1.6 2.7.6c2 0 4.6-.8 6.8-4.4 1.7-2.7 1.6-6 1.6-9.2v-4l-8.7 5.8q1 3.3.7 5.9c-.6 2.8-3.1 4.4-3.2 4.5z" style="fill:url(#b)"/><path d="M55.4 18.8c2.4-4.2 8-7.7 12.8-7.1 5.4.6 8.5 4.4 9.5 9.2q.4 2.8.1 4.8l-.3 1.6c-.1 1.3 2.5 2.5 2.9 4 .2 1-2 1.9-2.2 2-.8 1.1.8 5.8-5.5 6.5-2.1.2-3.5-.1-4.3 0-1.8 0-2.8 6-2.8 6l-9.2-5.5s3.1-4.6.4-9.2c-2.6-3.7-3-9.5-1.4-12.3" style="fill:#ffca28"/><path d="M77.7 36q-1.4.2-2.5-.6c-.8-.5-.3-1.2.6-.9q1 .4 2 .2z" style="fill:#795548"/><path d="M54.8 15.8c2.3-3 6-5 10.2-5.5 3.6-.4 8.5.3 11.7 3.1q3 2.6 3 6.7c-.2 1.6-1.7 2.4-1.7 2.4l-.1-.1-.2-.3c-.5-.8-1.7-3-4.7-2-3.8 1.2-5.5.5-5.5.5 1.4 3-1 6.6-1.4 7q-.2.3-.3 0c-.2-.5-.5-1.4-.8-1.8-.7-1.4-1.9-.8-1.9-.8-1.5.6-1.9 3.8.8 5.6l.1.4a6 6 0 0 1-4.7 4q-2 .3-2.2-1.3c-.5-2.2-1-2.8-1.7-3.7-.8-1-1.8-2.2-2.4-5.5q-1-4.9 1.8-8.7" style="fill:#543930"/><radialGradient id="c" cx="-952.3" cy="635.4" r="1" gradientTransform="matrix(-15.616 0 0 15.616 -14804.62 -9899.65)" gradientUnits="userSpaceOnUse"><stop offset=".5" style="stop-color:#6d4c41;stop-opacity:0"/><stop offset="1" style="stop-color:#6d4c41"/></radialGradient><path d="M54.8 15.8c2.3-3 6-5 10.2-5.5 3.6-.4 8.5.3 11.7 3.1q3 2.6 3 6.7c-.2 1.6-1.7 2.4-1.7 2.4l-.1-.1-.2-.3c-.5-.8-1.7-3-4.7-2-3.8 1.2-5.5.5-5.5.5 1.4 3-1 6.6-1.4 7q-.2.3-.3 0c-.2-.5-.5-1.4-.8-1.8-.7-1.4-1.9-.8-1.9-.8-1.5.6-1.9 3.8.8 5.6l.1.4a6 6 0 0 1-4.7 4q-2 .3-2.2-1.3c-.5-2.2-1-2.8-1.7-3.7-.8-1-1.8-2.2-2.4-5.5q-1-4.9 1.8-8.7" style="fill:url(#c)"/><path d="M73 28.3q.1-1.7 1.2-1.8 1.1.2 1.2 1.7-.1 1.6-1.1 1.8-1.1-.1-1.2-1.7" style="fill:#404040"/><path d="M75 25.6c1.2.2 1.4-.5 1-1q-.5-.9-2.4-.4c-1.2.3-1.6 1.1-2 1.6q-.3.8.2.9c.4 0 1.8-1.4 3.2-1" style="fill:#6d4c41"/><path d="M84.6 116.7q-1 .3-1.5-.7l-.8-2.7c-.6-1.8.6-4.4.6-4.4l6.6-2.2h6.6a4 4 0 0 1 3.6 2.8l.4 1.2q.1.9-.7 1.3z" style="fill:#4568ad"/><path d="m44.9 67 17 3.7.1 2.5 8 .2c4.8.5 11.6.2 14.2 10.5l7 22.6-10 3.4S73.5 88.5 73 88.5s-15.2.8-24.8-.5S45 67 45 67" style="fill:#7c7c7c"/><radialGradient id="d" cx="-946.2" cy="613.8" r="1" gradientTransform="rotate(18.2 46495.23 -51480.78)scale(-19.484 19.484)" gradientUnits="userSpaceOnUse"><stop offset=".4" style="stop-color:#651fff"/><stop offset=".8" style="stop-color:#5914f2"/><stop offset="1" style="stop-color:#530eeb"/></radialGradient><path d="M64 72.2C62.3 60 65 60 67.1 52c1-4-.4-8.6-2-10.5-3.4-3.2-7.1-4-10.1-1.2-6 5.4-12.5 26.9-12.5 26.9 4.7 8.7 21.3 4.9 21.3 4.9" style="fill:url(#d)"/><path d="M45.5 93.2h4v7.1h-4z" style="fill:#c62828"/><path d="m84.8 120 16-5.2a2.2 2.2 0 0 0-1.4-4.2l-16 5.2a2.2 2.2 0 0 0 1.4 4.2" style="fill:#424242"/><path d="M78.5 111.6a6.5 6.5 0 1 1 0 13 6.5 6.5 0 0 1 0-13" style="fill:#78909c"/><path d="M34.4 59.9c1.8 0 1.8 2 1.8 2.6l.2 29.2 32.7-1.8c9.4 0 13.7 3.6 17 14.2l4.8 13.8q.3.8 0 1.6a2 2 0 0 1-1.2 1l-.7.1a2 2 0 0 1-1.9-1.3L83.6 109a5 5 0 0 0-3.1 4.3v4.9c0 1-1 2-2 2s-2-1-2-2v-5c0-3.6 2.3-6.9 5.8-8-2.8-8.9-5.7-11.3-13-11.3l-33 1.9q-1.6.2-2.5-1c-.8-1-.8-2.4-.8-2.4l-.4-30.2c0-2 1.1-2.3 1.8-2.3" style="fill:#f44336"/><path d="M78.5 120.3a2 2 0 0 0 2-1.6l.3-3.4q0-.9-1-1h-2.5q-1 .1-1 1l.1 3.4c0 .9 1 1.6 2 1.6M35 62.8c0-2.4 1.4-2.8 3.6-2.8h1.6c2.3 0 2.7 1 3.1 2.6.8 2.6 2.2 16.7 1.1 20.6l-.1.4 29-.9c1.7 0 3.1.6 3.7 4V89q-.6 2.5-2.8 2.5l-38.9 1.9v-.1z" style="fill:#424242"/><path d="M57.2 92.2a11 11 0 0 0-10-4.4 13 13 0 0 0-9.8 5.4H34l-.2-13.8c2.5-4.3 29.7-11.6 38.9 12z" style="fill:#212121"/><path d="m35.3 94-1.8-.6.3-16c2.7-4.4 32-12.6 40 15.8h-5.2l-8.3.5c-2-4.6-7.5-7.7-13.2-7.4-8.6.4-11.8 7.7-11.8 7.7" style="fill:#f44336"/><radialGradient id="e" cx="-1703.7" cy="1034.2" r="1" gradientTransform="matrix(-1.107 0 0 1.107 -1837.97 -1044.25)" gradientUnits="userSpaceOnUse"><stop offset="0" style="stop-color:#78909c"/><stop offset=".6" style="stop-color:#617a86"/><stop offset="1" style="stop-color:#546e7a"/></radialGradient><path d="M47.5 101.4q1-.1 1.1-1.1-.1-1-1-1.1-1.3 0-1.2 1.1.1 1 1.1 1.1" style="fill:url(#e)"/><path d="M47.5 99.7q-.5 0-.6.6t.6.6.6-.6q0-.5-.6-.6m0-1a1.6 1.6 0 1 1 0 3.2 1.6 1.6 0 0 1 0-3.2" style="fill:#82aec0"/><path d="M47.5 79.6V121M32.9 85.7l29.3 29.2m-29.3.1 29.3-29.3m6 14.6H26.8" style="stroke:#82aec0;stroke-linecap:round;stroke-miterlimit:10"/><path d="M47.5 76a24.4 24.4 0 1 1 0 48.7 24.4 24.4 0 0 1 0-48.8m0 44a19.7 19.7 0 1 0 0-39.4 19.7 19.7 0 0 0 0 39.5" style="fill:#78909c"/><path d="M47.5 83.6a16.7 16.7 0 1 0 0 33.5 16.7 16.7 0 0 0 0-33.5m0-1a17.7 17.7 0 1 1 0 35.4 17.7 17.7 0 0 1 0-35.4" style="fill:#546e7a"/><path d="M47.5 104.4a4.1 4.1 0 1 1 0-8.2 4.1 4.1 0 0 1 0 8.2" style="fill:#757575"/><path d="m100.2 111-9.5 3" style="stroke:#757575;stroke-linecap:round;stroke-miterlimit:10"/><path d="M35.1 76.2s-1.5.7-2.3 1.8v-3.5c.9-1 2.3-1.2 2.3-1.2zm38.2 15.2.7 3s1.3 0 2.2-.7c1.7-1.3 1.5-2.1 1.5-2.1-.5-.4-1.8-.8-1.8-.8l-1.3.5z" style="fill:#c62828"/><path d="M68.5 93.6a21 21 0 0 0-9.8-12.2" style="opacity:.8;stroke:#94d1e0;stroke-width:2;stroke-linecap:round;stroke-miterlimit:10"/><linearGradient id="f" x1="42.1" x2="54.1" y1="62.9" y2="71.3" gradientTransform="matrix(1 0 0 -1 0 130)" gradientUnits="userSpaceOnUse"><stop offset=".5" style="stop-color:#ffca28"/><stop offset="1" style="stop-color:#ffb300"/></linearGradient><path d="m53.2 47.1 5.1 5.6-9.9 6.9L52.1 73l-4.4 1.8s-5.1-11.4-6.1-13.3c-1.6-3.1-1.4-5 .5-7.3 1-1.2 11-7 11-7" style="fill:url(#f)"/><linearGradient id="g" x1="53.8" x2="52.6" y1="48.7" y2="51.3" gradientTransform="matrix(1 0 0 -1 0 130)" gradientUnits="userSpaceOnUse"><stop offset="0" style="stop-color:#ffca28"/><stop offset="1" style="stop-color:#ffb300"/></linearGradient><path d="m47.4 73.5.6-.5q.5-.6 1.3-1c.8-.5 4.2.9 5 1.2l.7.3q.4.2.6.6l.1.2v.1s.3 1.5.7 2.3c.2.3 0 .9-.3 1l.4 1.1.1.9q0 .5-.3.8c-.4.2-.5 0-.6.2q-.2 0-.2.5c0 .5-.6.7-.7.7l-1-.3q-.2 0-.2.3-.1.3-.7.5c-.7 0-1.2-.6-1.2-.5-.1.4-.8.7-1.1.5-.3 0-.5.2-2.4-2.7-.3-.5-1-1.8-1.3-3l-.2-.7q-.4-1.6.7-2.5" style="fill:url(#g)"/><linearGradient id="h" x1="52.4" x2="54.7" y1="52.2" y2="48.3" gradientTransform="matrix(1 0 0 -1 0 130)" gradientUnits="userSpaceOnUse"><stop offset=".5" style="stop-color:#ffca28"/><stop offset="1" style="stop-color:#ffb300"/></linearGradient><path d="M49 71.9c1.8-.7 6.7 1 6.8 2.6 0 .3-.5 1-1 .7v.5c0 .6-.7.6-.9.6q-.5.1-.5.5a1 1 0 0 1-1.5 1q-.3 0-.4.3 0 .4-.4.7-.6.2-1 .1-.2 0-.3.2c-.1 0-.1.6-.4.7-1.4.8-2.2-2.2-2.8-4-.4-1.2.5-3.2 2.5-4" style="fill:url(#h)"/><path d="m53 57.5-5.8-9.4 8.4-5.2a5.5 5.5 0 0 1 5.8 9.4z" style="fill:#3615af"/></svg>