<svg xml:space="preserve" width="16" height="16" viewBox="0 0 128 128"><path d="M58.5 18.3h11V27h-11z" style="fill:#607d8b" transform="rotate(90 63.97 22.64)"/><path d="M55.2 6.8q0-1.1 1-1.6C57.3 4.6 59.5 4 64 4s6.7.6 7.8 1.2q1 .6 1 1.6v9c0 1.4-1.2 1.6-2.3 1.6L57 17.2c-1.5-.2-1.7-.3-1.7-1.3z" style="fill:#b0bec5"/><ellipse cx="64" cy="16.6" rx="8.7" ry="1.6" style="fill:#607d8b"/><path d="M61.4 12.6c0 .5-1.2.8-1.5-.3a30 30 0 0 1 0-6c.2-.8 1.6-1.1 1.7.4 0 1.2 0 5.4-.2 6m-3 0c-.1 1-1.9 2.3-2 .5V7.5c.1-1.5 2-1.7 2-.2z" style="fill:#fbe9e7"/><path d="M66.9 12.6c0 .5 1.2.8 1.4-.3.4-1.4.2-4.5 0-6 0-.8-1.5-1.1-1.6.4 0 1.2 0 5.4.2 6" style="fill:#78909c"/><path d="M69.8 12.7c0 1 1.9 2.3 2 .5V7.5c-.2-1.5-2-1.7-2-.2z" style="fill:#607d8b"/><path d="M97.5 33.6h9.3v7.3h-9.3z" style="fill:#607d8b" transform="rotate(135 102.17 37.22)"/><path d="M106.3 22.6q.7-.6 1.6-.4c1 .4 2.7 1.3 5.4 4s3.6 4.3 3.9 5.3q.3 1-.4 1.6l-5.3 5.3c-.8.8-1.7.2-2.3-.4l-8-8.2c-.8-1-.8-1.2-.2-1.8z" style="fill:#b0bec5"/><ellipse cx="105.8" cy="33.6" rx="1.3" ry="7.3" style="fill:#607d8b" transform="rotate(-45 105.8 33.62)"/><path d="M106.6 29.7c-.3.3-1.2-.2-.7-1 .6-1 2.6-2.8 3.6-3.6.6-.4 1.5.3.7 1.2-.7.8-3.2 3.2-3.6 3.4m-1.8-1.7c-.7.5-2.5.2-1.5-.9l3.4-3.4c1-.8 2.1.2 1.2 1-.8 1-2.4 2.6-3.2 3.3" style="fill:#fbe9e7"/><circle cx="64" cy="73.1" r="50.9" style="fill:#b0bec5"/><circle cx="64" cy="73.1" r="40.9" style="fill:#fafafa"/><path d="M64 43q-1.3-.1-1.5-1.4v-4.4q.1-1.4 1.5-1.5 1.3.1 1.5 1.5v4.4q-.2 1.3-1.5 1.5m0 67.6q-1.3-.2-1.5-1.5v-4.4q.1-1.4 1.5-1.5 1.3.2 1.5 1.5v4.4q-.2 1.4-1.5 1.5m36-36h-4.4q-1.3-.2-1.5-1.5.1-1.3 1.5-1.5h4.4q1.3.2 1.5 1.5-.1 1.3-1.5 1.5m-67.6 0H28q-1.3-.2-1.5-1.5.2-1.3 1.5-1.5h4.4q1.3.2 1.5 1.5-.2 1.3-1.5 1.5M64 43q-1.3-.1-1.5-1.4v-4.4q.1-1.4 1.5-1.5 1.3.1 1.5 1.5v4.4q-.2 1.3-1.5 1.5m0 67.6q-1.3-.2-1.5-1.5v-4.4q.1-1.4 1.5-1.5 1.3.2 1.5 1.5v4.4q-.2 1.4-1.5 1.5M47 46.6l-2.3-3.8q-.5-1.2.6-2 1.2-.6 2 .5l2.2 3.8q.5 1.2-.6 2-1.2.6-2-.5m33.8 58.5-2.2-3.8q-.5-1.2.6-2 1.2-.6 2 .5l2.2 3.8q.5 1.2-.6 2-1.2.7-2-.5M47 46.6l-2.3-3.8q-.5-1.2.6-2 1.2-.6 2 .5l2.2 3.8q.5 1.2-.6 2-1.2.6-2-.5m33.8 58.5-2.2-3.8q-.5-1.2.6-2 1.2-.6 2 .5l2.2 3.8q.5 1.2-.6 2-1.2.7-2-.5M36 58.7l-4-2.2q-1.1-.8-.5-2 .8-1.1 2-.6l3.8 2.2q1.2.8.5 2-.8 1.2-2 .6m58.6 33.8-3.8-2.2q-1.2-.8-.5-2 .8-1.1 2-.6l3.8 2.2q1.2.8.5 2-.8 1.1-2 .6M79 47.1q-1-.8-.5-2l2.2-3.8q.8-1.2 2-.5 1.1.8.6 2L81 46.6q-.8 1.2-2 .5m-33.7 58.6q-1.1-.8-.6-2l2.2-3.9q.8-1.1 2-.5 1.1.8.6 2l-2.2 3.8q-.8 1.1-2 .6M90 58.2q-.4-1.4.6-2l3.8-2.3q1.2-.5 2 .6.6 1.2-.5 2l-3.8 2.2q-1.2.5-2-.6M31.6 92q-.7-1.4.5-2l3.8-2.3q1.2-.5 2 .6.6 1.2-.5 2l-3.8 2.2q-1.2.5-2-.6" style="fill:#b2947c"/><circle cx="64" cy="56.1" r="9.8" style="opacity:.42;fill:#82aec0"/><path d="M65.5 38.6s.2-3.2-1.5-3.2-1.6 3.2-1.6 3.2l-1.1 34.6h5.5z" style="fill:#563428"/><circle cx="64" cy="73.2" r="4.1" style="fill:#563428"/><path d="M52 31.4c-5.4 1.6-13 4-21.2 13.8-8 9.6-9.8 20.8-10.3 28.6 0 0-4.6 5.8-4.8 4.7a51 51 0 0 1 11-37.3 56 56 0 0 1 30-16.5c.8-.1-3 6.2-4.7 6.7" style="opacity:.64;fill:#eceff1"/></svg>