<svg xml:space="preserve" width="16" height="16" viewBox="0 0 128 128"><linearGradient id="a" x1="64" x2="64" y1="121" y2="63" gradientUnits="userSpaceOnUse"><stop offset="0" style="stop-color:#fff"/><stop offset="1" style="stop-color:#dee0e1"/></linearGradient><path d="M124 124H4V59.4c55 19.3 88.6-9.5 120 0z" style="fill:url(#a)"/><linearGradient id="b" x1="63.1" x2="67.4" y1="103.7" y2="46.4" gradientUnits="userSpaceOnUse"><stop offset=".1" style="stop-color:#b9e4ea;stop-opacity:0"/><stop offset="1" style="stop-color:#b9e4ea"/></linearGradient><path d="M124 124H4V59.4c55 19.3 88.6-9.5 120 0z" style="fill:url(#b)"/><linearGradient id="c" x1="122.1" x2="-3.6" y1="104.5" y2="104.5" gradientUnits="userSpaceOnUse"><stop offset="0" style="stop-color:#fff;stop-opacity:0"/><stop offset="0" style="stop-color:#9e9e9e"/><stop offset=".9" style="stop-color:#9e9e9e;stop-opacity:.1454"/><stop offset="1" style="stop-color:#9e9e9e;stop-opacity:0"/></linearGradient><path d="M124 106.6s-103.4 2.7-112.1 0-1.1-4 8.7-4S124 101 124 101z" style="fill:url(#c)"/><path d="M73.2 42.1s7-5.1 15-7.5 12.5-1.9 12-.6-20.1 13.6-20.6 13.7-6.5.1-6.4 0z" style="fill:#1976d2"/><path d="M25.8 94s-6.9-.8-10.5-5.4c-2.4-3.1-5.4-1.2-4.8 1.9a20 20 0 0 0 20 14.7H124V94z" style="fill:#82aec0"/><path d="M32.3 103a20 20 0 0 1-20-14.6q-.3-.8-.1-1.3c-1.2.3-2 2.8-1.7 4.6.7 5 5.5 14.7 20 14.7H124V103z" style="fill:#2f7889"/><path d="M105.5 69.8s2 6.6 1.3 15.8a61 61 0 0 1-1.7 12.6H48.4L50 95s-.3-6.3-.1-7.5c.4-3 1.8-5.3 5.2-6.6 3.8-1.4 17-7 19-8.4s2.9-3.9 2.9-3.9z" style="fill:#1976d2"/><path d="m75 84-3-6.4c-1-2-2.6-2.6-2.6-2.6l-.1-.8 4.4-2.4a1 1 0 0 1 1.3.3q1.2 1.2 2 3l3.2 6.4z" style="fill:#bdbdbd"/><path d="m75.6 82.4-3-5.6a7 7 0 0 0-2.4-2.3q-.8-.4-1-.3v.8q.5.1.6.3 1.2.6 2.2 2.3l3 6.3 5.2-2.4-.5-1z" style="fill:#757575"/><path d="M79.9 85.4c1.5-1 1.9-3 1-4.5l-2.6-5c-.2-.6-1-.9-1.5-.5h-.2q-.8.7-.4 1.5c.8 1.9 1.7 3.5 1.7 3.5q.5.7-.4 1.4-1 .4-1.5-.5l-1.6-3.2q-.6-1-1.6-.6-.8.6-.5 1.5c1.1 2.3 2 3.6 2.7 5.2 1 1.7 3.2 2.3 4.9 1.2" style="fill:#212121"/><path d="m65.3 88.2-2.6-6.5c-.8-2-2.3-2.8-2.3-2.8V78l4.5-2q.8-.3 1.3.3 1 1.2 1.9 3l2.6 6.7z" style="fill:#bdbdbd"/><path d="M66 86.7 63.4 81q-1-1.7-2.2-2.6-.7-.4-.9-.3v.8q.4.1.5.3 1 .7 2 2.5l2.5 6.5 5.4-2-.4-1.1z" style="fill:#757575"/><path d="M70 89.7a3.5 3.5 0 0 0 1.3-4.4L69.1 80q-.6-1-1.5-.6h-.3q-.8.5-.5 1.4l1.5 3.6c.2.4.3 1-.5 1.3q-1 .4-1.4-.6L65 82c-.2-.6-1-.8-1.5-.6q-1 .5-.6 1.5l2.3 5.3c.8 1.9 3 2.6 4.7 1.6" style="fill:#212121"/><path d="M60.3 94h43.9v4.3H60.3z" style="opacity:.7;fill:#0d47a1"/><path d="M97.4 98.2s.3-5.4 3.5-7.8 6-2 6-2 1-2 4.4-5.3a16 16 0 0 1 5-3.4 1 1 0 0 1 1.5 1.3l-5.6 17.2zm-57.7 0s2.3-4.1 5-6.7c1.7-1.7 4.6-2.6 6.6-.8l2.7 2.5c1.2 1 2.7 1 3.6-.3l.4-.6c.6-.8 1.8-1 2.6-.2q.6.7 1 1.6c.4 1.8.3 4.5.3 4.5zm52.3 0c-1.8-1.7-5.8-2.9-10.5-2.9s-8.7 1.2-10.5 3z" style="fill:#212121"/><path d="m73.2 42.1-1.4 1.6L76 70.2s1.5 1.5 4.7 2c3.5.4 7 3.2 9.3 5.6 2 2.2 4.2 4.2 8.5 3.2 4.4-1 6.2-4.7 7.4-7.3s1.5-5 1.5-5l-5-33.3s-.9-3-5-1.8c-6.3 1.7-11.7 6.6-15.1 8.6-7 4.2-9.1-.2-9.1-.2" style="fill:#5fb2de"/><path d="m78.6 60.8-4.3-.2c-.9-.1-1.2-1.2-1.2-1.2l-.5-4.3s.6-.5.9-.4c3.8.6 7.4.4 12-.1 7.5-.9 13.1-2 13.2-2l1.1 5.6a176 176 0 0 1-21.2 2.6" style="fill:#9e9e9e"/><path d="M85.5 55.3c7.5-.9 13.1-2 13.2-2l1 4.9h.1l-1.1-5.7s-5.7 1.2-13.2 2c-4.6.6-8.2.8-12 .2-.3 0-1 .4-1 .4 4 1 8.7.7 13 .2" style="fill:#e0e0e0"/><path d="M73.9 43.8s-1.5-4.5-.9-5.6c.7-1.2 3-2.5 6.5-1.2 3.6 1.3 5 3.5 5 3.5s-2.8 2.9-5.8 3.6-4.8-.3-4.8-.3M71 45.4v-.5s5.6 1 16.5-.5c7.8-1 14.4-3.8 16.5-4.5l.2.5 1 6.4q0 .8-.7 1.2c-2 .6-7.9 2.3-16.3 3.4-7.8 1-13.2.8-15.1.8a1 1 0 0 1-1-.9z" style="fill:#424242"/><path d="M88.9 51.3q1-1 1-3.6c0-1.7-1-2.7-2-3.4l-.4.1c-10.9 1.4-16.5.5-16.5.5v.5l1 6q.3.6 1 .8c2 0 7.4.2 15.2-.8z" style="fill:#616161"/><path d="M71.6 45.6c.7.1 3.5.8 16.4-.9 9.8-1.3 16-4.2 16-4.2s.4-.5-.3-1.2q-.6-.3-.7-.2v.5s-6 2.8-15.3 4q-9.6 1.2-13 1H72l-.1-.7q-.5.3-.8.8-.2.6.6 1m15.1 5.9c1.2-.2 2.5-.9 2.7-3q0-2.3-1-3c-1-.8-3-.6-3-.6v-1s2.4-.4 3.8.8q1.4 1.1 1.5 3.1 0 2.3-1.2 3c-1.1 1-2.8.8-2.8.8" style="fill:#9e9e9e"/><path d="M100.8 54.6a3.5 3.5 0 0 0-4-2.4c-1.7.3-3.2.7-5.6 1q-1 .3-1 1.3l.1.3q.3 1 1.2.9l3.8-.6q.9-.3 1.3.8 0 1-1 1.2l-3.5.6q-1 .1-1 1.2c0 .6.7 1 1.3 1l5.7-1c2-.4 3.2-2.3 2.7-4.3" style="fill:#212121"/><path d="M80 69.8q-2.2 0-4.3-.2c-1-.1-1.3-1.3-1.3-1.3L74 64s.7-.4 1-.3c3.7.6 7.4.4 12-.1 7.4-1 13.1-2 13.2-2l1.1 5.5A176 176 0 0 1 80 69.8" style="fill:#9e9e9e"/><path d="M86.9 64.3c7.4-1 13.1-2 13.1-2l1 4.9h.2l-1.2-5.7s-5.7 1.2-13.1 2c-4.6.6-8.3.8-12 .2l-1 .3c4 1 8.7.8 13 .3" style="fill:#e0e0e0"/><path d="M102.2 63.6a3.5 3.5 0 0 0-4-2.4l-5.7 1q-1 .3-.9 1.3v.3q.3 1 1.3.9l3.8-.7q.8-.2 1.2.8.1 1.1-.9 1.3l-3.6.6q-1 .1-1 1.2.3 1 1.3 1l5.8-1c2-.4 3.2-2.3 2.7-4.3" style="fill:#212121"/><circle cx="97.7" cy="74.6" r="2.5" style="fill:#616161"/><path d="M79.6 37c-3.6-1.3-6 0-6.6 1.2l-.1.5q1.6-1.2 3.7-.7 2 .5 3.6 1.8l2.8 2q1.5-1.2 1.4-1.3s-1.3-2.2-4.9-3.5" style="fill:#616161"/><linearGradient id="d" x1="78.7" x2="78.7" y1="113.4" y2="101.3" gradientUnits="userSpaceOnUse"><stop offset="0" style="stop-color:#fff;stop-opacity:0"/><stop offset=".5" style="stop-color:#fff"/><stop offset="1" style="stop-color:#b9e4ea"/></linearGradient><path d="M46.8 111.8c17.1-1.7 17.7-10.9 30.5-10.8q3.7 0 5.8 1.2 3.3 1.5 6.7.2a18 18 0 0 1 6.3-1.3c9.8 0 14.4 8.6 14.4 8.6" style="fill:url(#d)"/></svg>