<svg xmlns:xlink="http://www.w3.org/1999/xlink" xml:space="preserve" width="16" height="16" viewBox="0 0 128 128"><linearGradient id="a" x1="64" x2="64" y1="34" y2="-7.8" gradientTransform="matrix(1 0 0 -1 0 130)" gradientUnits="userSpaceOnUse"><stop offset="0" style="stop-color:#448aff"/><stop offset=".4" style="stop-color:#3b7dff"/><stop offset="1" style="stop-color:#2962ff"/></linearGradient><path d="M116 124.1v-3c0-16.9-26.3-25.2-52-25.1-25.5 0-52 7.2-52 25v3.1z" style="fill:url(#a)"/><path d="M18 52.3c0 9.4 20.6 17 46 17s46-7.6 46-17-92-9.3-92 0" style="fill:#ffea00"/><path d="M105.4 52.3C97.3 47 85.8 42.6 64 42.6c-21.9 0-33.3 4.4-41.4 9.7q-1 .8-.3 1.8c4.4 5.8 23.5 11.6 41.7 11.6S102 59 105.7 54q.7-1-.3-1.8" style="fill:#edbf00"/><path d="M104.1 45.4c0 17.5-1 40-5 56.6-9.8-4-22.5-6-35.1-6a99 99 0 0 0-35.1 5.7c-4-16.5-5-39-5-56.3 0-.6-.3-35.5 40.7-35.5S104 44.8 104 45.4" style="fill:#312d2d"/><path d="M64 90.1h-9v10c0 4.5 3.6 8.2 8.2 8.2h1.6c4.6 0 8.3-3.7 8.3-8.2V90z" style="fill:#edc391"/><path d="M64 15.8c-17.2 0-33.1 12.8-33.1 39.9A40 40 0 0 0 56 94.5a24 24 0 0 0 8 1.5q3.6 0 7.9-1.5A40 40 0 0 0 97 55.7c0-27.1-15.9-40-33.1-40" style="fill:#f9ddbd"/><path d="M101.9 45.4s1-35.6-37.8-35.6-38 35.6-38 35.6.3 31.3 3.2 37.2 7.2 5.8 7.2 5.8-2-12.5-2.3-25c0-2.9-.9-15.7 5.2-17 22.4-5 35-15 35-15 3.3 7.3 13.6 14.3 17.3 17 3 2.1 2.6 11.1 2.5 15l-3 24.9s4.7.4 7.6-5.7c3-6 3-37.2 3-37.2" style="fill:#312d2d"/><ellipse cx="48.4" cy="58.8" rx="4.9" ry="5.1" style="fill:#312d2d"/><ellipse cx="79.6" cy="58.8" rx="4.9" ry="5.1" style="fill:#312d2d"/><path d="M55.6 49.8c-.9-1.2-3-3-7.2-3s-6.3 1.8-7.2 3q-.5 1 0 1.6t1.9.4c1.5-.2 2.5-1.2 5.3-1.2s4.5.9 5.4 1.2q1.3.3 1.9-.4.4-.6 0-1.6m31.1 0c-.9-1.2-3-3-7.2-3s-6.3 1.8-7.2 3q-.5 1 0 1.6t1.8.4c1.4-.2 2.6-1.2 5.4-1.2s4.5.9 5.4 1.2q1.3.3 1.8-.4t0-1.6" style="fill:#454140"/><path d="m67.8 68.2-.3-.1h-7.3q-1 .6-.7 1.7c.3.7 1.7 2.6 4.5 2.6s4.2-2 4.5-2.6q.4-1.2-.7-1.6" style="fill:#dba689"/><path d="M72.3 76.2a25 25 0 0 1-16.6 0c-1.8-1-3.6.6-2.9 2.2s6.4 5.4 11.2 5.4 10.5-3.7 11.2-5.4c.8-1.6-1-3.2-2.9-2.2" style="fill:#444"/><radialGradient id="b" cx="64.2" cy="60" r="57.4" gradientTransform="matrix(0 1 .76 0 18.53 3.46)" gradientUnits="userSpaceOnUse"><stop offset=".8" style="stop-color:#454140;stop-opacity:0"/><stop offset="1" style="stop-color:#454140"/></radialGradient><path d="M104.1 42.7c0 18.4-.6 42-5 59.3-9.6-3.8-22.6-6-35-6s-25.6 2-35.2 5.7c-4.4-17-5-40.8-5-59 0-.6-.3-29.5 40.7-29.5S104 42 104 42.7" style="fill:url(#b)"/><linearGradient id="c" x1="44" x2="44" y1="31.7" y2="-6" gradientTransform="matrix(1 0 0 -1 0 130)" gradientUnits="userSpaceOnUse"><stop offset="0" style="stop-color:#ff9100"/><stop offset=".4" style="stop-color:#ff8400"/><stop offset="1" style="stop-color:#ff6d00"/></linearGradient><path d="M58.5 124.1h-29v-22.7l5.7-1.9a83 83 0 0 1 15.6-2.8z" style="fill:url(#c)"/><linearGradient id="d" x1="43.1" x2="43.1" y1="31.9" y2="-6.8" gradientTransform="matrix(1 0 0 -1 0 130)" gradientUnits="userSpaceOnUse"><stop offset="0" style="stop-color:#ff0"/><stop offset=".7" style="stop-color:#fff200"/><stop offset="1" style="stop-color:#ffea00"/></linearGradient><path d="M51 124.1H36.3l-1.1-24.6q4.4-1.2 9-2z" style="fill:url(#d)"/><linearGradient id="e" x1="84" x2="84" y1="31.6" y2="-6" gradientTransform="matrix(1 0 0 -1 0 130)" gradientUnits="userSpaceOnUse"><stop offset="0" style="stop-color:#ff9100"/><stop offset=".4" style="stop-color:#ff8400"/><stop offset="1" style="stop-color:#ff6d00"/></linearGradient><path d="M98.5 101.7v22.4h-29l7.7-27.4a97 97 0 0 1 21.3 5" style="fill:url(#e)"/><linearGradient id="f" x1="84.9" x2="84.9" y1="31.8" y2="-6.8" gradientTransform="matrix(1 0 0 -1 0 130)" gradientUnits="userSpaceOnUse"><stop offset="0" style="stop-color:#ff0"/><stop offset=".7" style="stop-color:#fff200"/><stop offset="1" style="stop-color:#ffea00"/></linearGradient><path d="m92.8 99.8-1 24.3H77l6.7-26.5q4.7.9 9.1 2.2" style="fill:url(#f)"/><radialGradient id="g" cx="64" cy="98.2" r="34.6" gradientTransform="matrix(1 0 0 -.98 0 127.58)" gradientUnits="userSpaceOnUse"><stop offset="0" style="stop-color:#ff0"/><stop offset=".3" style="stop-color:#fff600"/><stop offset=".9" style="stop-color:#ffde00"/><stop offset="1" style="stop-color:#ffd600"/></radialGradient><path d="M64.4 8.1c-46.8 0-43.2 46.4-43.2 46.4s12.2-10.8 43.5-10.8 42 9.8 42 9.8 4.5-45.4-42.3-45.4" style="fill:url(#g)"/><linearGradient id="h" x1="64.3" x2="64.3" y1="125.1" y2="88" gradientTransform="matrix(1 0 0 -1 0 130)" gradientUnits="userSpaceOnUse"><stop offset="0" style="stop-color:#ff0"/><stop offset=".4" style="stop-color:#fff900"/><stop offset="1" style="stop-color:#ffea00"/></linearGradient><path d="M74.7 42.3H54v-33a5 5 0 0 1 5-5.1h10.8a5 5 0 0 1 5 5z" style="fill:url(#h)"/><defs><path id="i" d="M64.4 8.1c-46.8 0-43.2 46.4-43.2 46.4s12.2-10.8 43.5-10.8 42 9.8 42 9.8 4.5-45.4-42.3-45.4"/></defs><clipPath id="j"><use xlink:href="#i" style="overflow:visible"/></clipPath><path d="m47.1 10.4 7-2.3v23.3c-1.4-10-3.5-17.3-7-21" style="opacity:.5;clip-path:url(#j);fill:#edbf00"/><defs><path id="k" d="M64.4 8.1c-46.8 0-43.2 46.4-43.2 46.4s12.2-10.8 43.5-10.8 42 9.8 42 9.8 4.5-45.4-42.3-45.4"/></defs><clipPath id="l"><use xlink:href="#k" style="overflow:visible"/></clipPath><path d="m81.7 10.4-7-2.3v23.3c1.5-10 3.5-17.3 7-21" style="opacity:.5;clip-path:url(#l);fill:#edbf00"/><path d="m109.5 51.2-1-1C90.4 39.8 64 40 64 40s-26.4-.3-44.5 10q-.6.4-1 1c-.6 1-1 2.7.7 5.1 0 0 11-10.8 44.8-11.5 33.8.7 44.8 11.5 44.8 11.5 1.7-2.4 1.3-4.1.7-5" style="fill:#ffea00"/></svg>