<svg xml:space="preserve" width="16" height="16" viewBox="0 0 128 128"><path d="M116.9 32.3H11L4 50h120z" style="fill:#f44336"/><path d="M99.9 26.6H28.1a11 11 0 0 0-4 .7l-13 5H117l-13-5a11 11 0 0 0-4-.7" style="fill:#ff7555"/><path d="M120 117.6H8a4 4 0 0 1-4-4V50h120v63.6a4 4 0 0 1-4 4" style="fill:#c62828"/><path d="M4 70.1h120" style="fill:none;stroke:#a80707;stroke-width:2.1329;stroke-miterlimit:10"/><path d="M41 65.3H24.5q-1.6 0-1.7 1.5v9.7q.2 1.3 1.7 1.4H27v5c0 2.3 2 4 4.5 4h2.6c2.5 0 4.5-1.7 4.5-4v-5h2.5q1.5-.1 1.7-1.4v-9.7q-.2-1.4-1.7-1.5" style="fill:#a80707"/><path d="M39.9 76H25.7a1 1 0 0 1-1-1.2V64.6q0-1 1-1.1h14.2q1 .1 1 1v10.3q0 1-1 1.1" style="fill:#558ea0"/><path d="M28 70h9.5" style="fill:none;stroke:#332424;stroke-width:2.8301;stroke-miterlimit:10"/><path d="M37.6 68.6H28v-5.3c0-1.6 1.3-2.9 2.9-2.9h3.8a3 3 0 0 1 2.9 3zM28 71.3h9.5v10.6c0 1.5-1.2 2.8-2.8 2.8h-3.8A3 3 0 0 1 28 82z" style="fill:#82aec0"/><path d="M35.8 79.6q.9 0 1 1 .2.7-.3 1.3-.8.7-2 1a7 7 0 0 1-3.3 0q-1.8-.5-2.6-1.8c-.5-1.4 1.4-1.5 7.2-1.5" style="fill:#a1d5e5"/><path d="M103.5 65.3H87q-1.6 0-1.8 1.5v9.7q.1 1.3 1.8 1.4h2.4v5c0 2.3 2 4 4.5 4h2.6c2.5 0 4.5-1.7 4.5-4v-5h2.5q1.6-.1 1.7-1.4v-9.7q-.2-1.4-1.7-1.5" style="fill:#a80707"/><path d="M102.3 76H88.1a1 1 0 0 1-1-1.2V64.6q0-1 1-1.1h14.2q1 .1 1 1v10.3q0 1-1 1.1" style="fill:#558ea0"/><path d="M90.5 70h9.5" style="fill:none;stroke:#332424;stroke-width:2.8301;stroke-miterlimit:10"/><path d="M100 68.6h-9.5v-5.3c0-1.6 1.2-2.9 2.8-2.9h3.8a3 3 0 0 1 2.9 3zm-9.5 2.7h9.5v10.6c0 1.5-1.3 2.8-2.9 2.8h-3.8a3 3 0 0 1-2.9-2.8z" style="fill:#82aec0"/><path d="M98.6 79.6q.6-.2 1 .7c.4.9-.2 1.2-.7 1.6s-1.2.7-2 .9a7 7 0 0 1-3.3 0q-1.6-.4-2.6-1.7-1-1.9 7.5-1.5" style="fill:#a1d5e5"/><path d="M90.5 27c-.4-.6-2-1.2-2.4-1.5-3-1.8-2.7-6.7-4.7-9.9-1.8-2.9-5-5.2-8.4-5.2H56c-3.4 0-6.6 2.3-8.4 5.2-2 3.2-1.7 8.1-4.7 10-.5.2-2 .8-2.5 1.4-.6.8 0 1.6 0 1.6H46c2.7 0 4.2-4.4 4.4-5 .9-2.6 2.6-6.2 5.7-6.2H75c3.1 0 4.8 3.7 5.7 6.1.2.7 1.7 5.1 4.4 5.1h5.4s.6-.8 0-1.6" style="fill:#424242"/><path d="M51.2 13.4a8 8 0 0 1 5.2-1.9q.8-.1 1.4.4.8.4.6 1.3-.3.7-1.2 1c-1.8.7-4 .9-5.4 2.2q-1.4 1.6-2.3 3.4-.4.9-1.5 1.2l-.6-.2q-.3-.6 0-1.1l1.5-3.5q1-1.6 2.3-2.8" style="fill:#616161"/><path d="M33.2 63.5a4 4 0 0 0-3.2 1.7q-.2.4-.6.4-.3-.1-.4-.5-.4-1.3.3-2.5.9-1.2 2.4-1.4c2-.3 3.4-.4 3.7.9s-1.2 1.3-2.2 1.4m62.4 0a4 4 0 0 0-3.2 1.7q-.1.4-.6.4-.3-.1-.4-.5-.4-1.3.2-2.5.9-1.2 2.5-1.4c2-.3 3.4-.4 3.7.9s-1.2 1.3-2.2 1.4" style="fill:#a1d5e5"/></svg>