<svg xml:space="preserve" width="16" height="16" viewBox="0 0 128 128"><path d="m26.9 63 5.6-20 47.7 56.2-15.5 1.5z" style="fill:#bf8400"/><path d="M4 5.9V124h118.1c.7 0 1-.8.6-1.3L5.3 5.3A.8.8 0 0 0 4 6m24.6 54L70 100.8H28.6z" style="fill:#eaa700"/><path d="M26.9 101.8 4 124h118.1c.7 0 1-.8.6-1.3l-5.3-5.3z" style="fill:#bf8400"/><linearGradient id="a" x1="30.7" x2="81.3" y1="97.3" y2="46.7" gradientUnits="userSpaceOnUse"><stop offset=".5" style="stop-color:#fdd835"/><stop offset=".8" style="stop-color:#f9a825"/></linearGradient><path d="M7.1 8.8v111.4q0 .7.7.7h111.4c.6 0 1-.8.5-1.2L8.3 8.3c-.4-.4-1.2-.1-1.2.5M29 61.3l37.8 37.8H28.9z" style="fill:url(#a)"/><path d="M10 19.8q-.6.9 0 1.8l1 1q1 .9 1.9 0l4.9-4.8-2.9-2.9z" style="fill:#795548"/><linearGradient id="b" x1="51.8" x2="53.3" y1="109.9" y2="108.4" gradientTransform="translate(-37.77 -91.2)" gradientUnits="userSpaceOnUse"><stop offset="0" style="stop-color:#5d4037;stop-opacity:0"/><stop offset="1" style="stop-color:#5d4037"/></linearGradient><path d="m15 15-2.4 2.3 2.8 2.8 2.4-2.3z" style="fill:url(#b)"/><path d="M28.9 38.6q-.7.9 0 1.8l1 1q.9.8 1.8 0l4.9-4.8-2.9-2.9z" style="fill:#795548"/><linearGradient id="c" x1="70.6" x2="72.1" y1="128.7" y2="127.2" gradientTransform="translate(-37.77 -91.2)" gradientUnits="userSpaceOnUse"><stop offset="0" style="stop-color:#5d4037;stop-opacity:0"/><stop offset="1" style="stop-color:#5d4037"/></linearGradient><path d="m33.7 33.7-2.3 2.4 2.8 2.8 2.4-2.3z" style="fill:url(#c)"/><path d="M47.7 57.4q-.9.9 0 1.8l1 1q.9.8 1.8 0l4.9-4.8-2.9-2.9z" style="fill:#795548"/><linearGradient id="d" x1="89.4" x2="90.9" y1="147.5" y2="146" gradientTransform="translate(-37.77 -91.2)" gradientUnits="userSpaceOnUse"><stop offset="0" style="stop-color:#5d4037;stop-opacity:0"/><stop offset="1" style="stop-color:#5d4037"/></linearGradient><path d="M52.5 52.5 50.2 55l2.8 2.8 2.4-2.3z" style="fill:url(#d)"/><path d="M66.5 76.2q-.7.9 0 1.8l1 1q.9.7 1.8 0l4.9-4.8-2.9-2.9z" style="fill:#795548"/><linearGradient id="e" x1="108.2" x2="109.7" y1="166.3" y2="164.8" gradientTransform="translate(-37.77 -91.2)" gradientUnits="userSpaceOnUse"><stop offset="0" style="stop-color:#5d4037;stop-opacity:0"/><stop offset="1" style="stop-color:#5d4037"/></linearGradient><path d="M71.3 71.3 69 73.7l2.8 2.8 2.4-2.3z" style="fill:url(#e)"/><path d="M85.3 95q-.7.9 0 1.8l1 1q.9.7 1.8 0L93 93l-3-3z" style="fill:#795548"/><linearGradient id="f" x1="127" x2="128.5" y1="185.1" y2="183.6" gradientTransform="translate(-37.77 -91.2)" gradientUnits="userSpaceOnUse"><stop offset="0" style="stop-color:#5d4037;stop-opacity:0"/><stop offset="1" style="stop-color:#5d4037"/></linearGradient><path d="m90.1 90.1-2.3 2.4 2.8 2.8L93 93z" style="fill:url(#f)"/><path d="M104 113.8q-.8.9 0 1.8l1 1q1 .8 1.9 0l4.9-4.8-2.9-2.9z" style="fill:#795548"/><linearGradient id="g" x1="145.8" x2="147.3" y1="203.9" y2="202.4" gradientTransform="translate(-37.77 -91.2)" gradientUnits="userSpaceOnUse"><stop offset="0" style="stop-color:#5d4037;stop-opacity:0"/><stop offset="1" style="stop-color:#5d4037"/></linearGradient><path d="m109 109-2.4 2.3 2.8 2.8 2.4-2.3z" style="fill:url(#g)"/><path d="M34 51.5q-.7.9 0 1.8l1.8 1.8q.9.8 1.8 0l8.2-8.3-3.5-3.5z" style="fill:#795548"/><linearGradient id="h" x1="80.1" x2="81.4" y1="137.9" y2="136.6" gradientTransform="translate(-37.77 -91.2)" gradientUnits="userSpaceOnUse"><stop offset="0" style="stop-color:#5d4037;stop-opacity:0"/><stop offset="1" style="stop-color:#5d4037"/></linearGradient><path d="M42.8 42.8 40.4 45l3.6 3.6 2.3-2.4z" style="fill:url(#h)"/><path d="M52.8 70.3q-.7.9 0 1.8l1.8 1.8q.9.7 1.8 0l8.2-8.3-3.5-3.5z" style="fill:#795548"/><linearGradient id="i" x1="98.9" x2="100.2" y1="156.7" y2="155.4" gradientTransform="translate(-37.77 -91.2)" gradientUnits="userSpaceOnUse"><stop offset="0" style="stop-color:#5d4037;stop-opacity:0"/><stop offset="1" style="stop-color:#5d4037"/></linearGradient><path d="m61.6 61.6-2.4 2.3 3.6 3.6L65 65z" style="fill:url(#i)"/><path d="M15.2 32.7q-.8.9 0 1.8l1.8 1.8q.9.8 1.8 0L27 28l-3.5-3.5z" style="fill:#795548"/><linearGradient id="j" x1="61.4" x2="62.6" y1="119.1" y2="117.8" gradientTransform="translate(-37.77 -91.2)" gradientUnits="userSpaceOnUse"><stop offset="0" style="stop-color:#5d4037;stop-opacity:0"/><stop offset="1" style="stop-color:#5d4037"/></linearGradient><path d="m24 24-2.4 2.3 3.6 3.6 2.3-2.4z" style="fill:url(#j)"/><path d="M71.6 89q-.7 1 0 2l1.8 1.7q.9.8 1.8 0l8.2-8.3L80 81z" style="fill:#795548"/><linearGradient id="k" x1="117.7" x2="119" y1="175.5" y2="174.2" gradientTransform="translate(-37.77 -91.2)" gradientUnits="userSpaceOnUse"><stop offset="0" style="stop-color:#5d4037;stop-opacity:0"/><stop offset="1" style="stop-color:#5d4037"/></linearGradient><path d="M80.4 80.4 78 82.7l3.6 3.6 2.3-2.4z" style="fill:url(#k)"/><path d="M90.4 107.9q-.7.9 0 1.8l1.8 1.8q.9.8 1.8 0l8.2-8.3-3.5-3.5z" style="fill:#795548"/><linearGradient id="l" x1="136.5" x2="137.8" y1="194.3" y2="193" gradientTransform="translate(-37.77 -91.2)" gradientUnits="userSpaceOnUse"><stop offset="0" style="stop-color:#5d4037;stop-opacity:0"/><stop offset="1" style="stop-color:#5d4037"/></linearGradient><path d="m99.2 99.2-2.4 2.3 3.6 3.6 2.3-2.4z" style="fill:url(#l)"/></svg>