<svg xml:space="preserve" width="16" height="16" viewBox="0 0 128 128"><radialGradient id="a" cx="71.4" cy="54.8" r="41" gradientTransform="rotate(3.9 250.5 86.8)" gradientUnits="userSpaceOnUse"><stop offset=".5" style="stop-color:#42a5f5"/><stop offset="1" style="stop-color:#fce8b2"/></radialGradient><path d="M82.6 5.7C72 5 54.7 15.6 59 40.7c2.6 15.4 12.6 23 19.6 23.5s18-5.7 22.7-20.7c7.5-24.2-8.1-37-18.7-37.8" style="fill:url(#a)"/><linearGradient id="b" x1="75.6" x2="66.6" y1="30.5" y2="114.1" gradientUnits="userSpaceOnUse"><stop offset=".1" style="stop-color:#fce8b2"/><stop offset=".6" style="stop-color:#42a5f5"/></linearGradient><path d="M118 83.3a36 36 0 0 0-30.6-27.7c-5.5-.7-11-1-16.5 0-1.3.2-2.7.8-4 .9-1 0-32.3-12-33.6-12.5a11 11 0 0 0-14.1 7c-4 10.5 12 18 35 36l-1 37H120s1.1-28-2-40.7" style="fill:url(#b)"/><linearGradient id="c" x1="28.1" x2="63.8" y1="135.3" y2="46.6" gradientUnits="userSpaceOnUse"><stop offset="0" style="stop-color:#0d47a1"/><stop offset=".7" style="stop-color:#1976d2"/></linearGradient><path d="M89.2 70c-3-5-9.8-1.1-12 1-16 15-19.7 17.2-23 15.4-1-.5-3-1.9-8.2-6L22.2 62c-18 15-14 62-14 62h45l.8-15c5.7 1 10-1 14.2-4 7.6-5.6 13-10.7 18-19 3-5 6-11 3-16" style="fill:url(#c)"/><radialGradient id="d" cx="45.6" cy="49.2" r="46.6" gradientTransform="rotate(-22.6 44 45.52)" gradientUnits="userSpaceOnUse"><stop offset=".5" style="stop-color:#1565c0"/><stop offset="1" style="stop-color:#fada80"/></radialGradient><path d="M39.5 8c-9.8 4-20.6 21.2-5.6 41.7C43 62.4 55.5 64.7 62 62s13.6-13.2 11-28.6C69 8.3 49.4 3.8 39.6 7.9" style="fill:url(#d)"/><path d="M103.8 60.2S93.2 67 89.2 60c-3.6-6.3 7-12.7 7-12.7 3.2-1.8 7.3-1.6 9.6 2.5 2.8 4.9 1 8.6-2 10.4" style="fill:#1976d2"/></svg>