<svg xml:space="preserve" width="16" height="16" viewBox="0 0 128 128"><path d="M41 114.7 30.8 83.5l15 .8.8 8.8c1 1.8 3 2.6 4 4.3q.7 1.4.4 3c-.2 2-1.3 4.2-.3 6 1.3 2.2 4.4 2.8 4.3 5.7-.1 2.7-12.7 6.3-14 2.6" style="fill:#c62828"/><path d="m39.5 121.4-1 .3a7 7 0 0 1-9.1-4.4l-11.8-34h16.3l1.3 4c.6 1.4 1.3 2.2.8 3.8s-.9 3.4 0 4.9c.9 1.7 3 2.5 4 4.2q.6 1.5.4 3c-.3 2-1.4 4.3-.3 6.1 1.2 2.1 4.4 2.7 4.3 5.7-.1 2.7-2.4 5.5-5 6.4" style="fill:#f44336"/><path d="M39.8 106.2c-.4 1.5.5 1.8 1.5 1.8 2.3 0 5.3-.9 6.8-1.6q.8-.3 1.5-1 .6-.3.7-1c0-1.4.6-2.7.7-4v-1.7c0-.5-.6-.7-1-.5-1 .6-2.6 1.4-3.8 1.7q-3.2.5-4.6.4-1.2.2-1.2 1.4v1.5zm4.6 8.8c-1.4 4.2-4.7 5.7-8.2 6s-5.7-1.7-5.7-1.7c4.8 7.2 17.2 2.7 19.8 1.3 3.8-2 4.5-4.2 4.7-8.2 0-.3-.4-1.1-1.2-.5a9 9 0 0 1-4 1.6q-2.8.5-3.7.3-1.4 0-1.7 1.2" style="fill:#a12524"/><path d="m17.6 83.3 3.1 9s2-4.2 9.5-3.4c5.2.5 6.7 2.3 6.7 2.3l.4-7.7z" style="fill:#c62828"/><path d="M103.2 110.6s-33.9-25-62-25.7c-12-.4-20.8-.4-23-.4-6.5 0-14.2-9.4-14.2-26s8.6-27.7 15.2-27.7c1 0 11.5.6 24.1.3 29.8-.9 59.9-24.6 59.9-24.6z" style="fill:#e0e0e0"/><path d="M80.1 73.5c-1 2-1.1 6.6-.8 10.8.2 3-2.8 5.3-5.7 4.2-19.4-7.6-35.4-6.9-35.4-6.9l.8 3.2h2.2c17 .5 36 9.8 48.5 17.1 0 0-3.8-5.5-5.8-13z" style="fill:#bdbdbd"/><path d="M34.3 58.6c0-9.5 3-20.1 7-27.5-11.8.3-21.1-.3-22-.3C12.5 30.8 4 42 4 58.5s7.7 26 14.3 26c2 0 10.9 0 23 .4h.2c-4.5-8-7.2-17-7.2-26.4" style="fill:#f44336"/><ellipse cx="103.2" cy="58.5" rx="20.8" ry="52.1" style="fill:#2f7889"/><linearGradient id="a" x1="103.2" x2="103.2" y1="103.8" y2="45.2" gradientUnits="userSpaceOnUse"><stop offset="0" style="stop-color:#353738"/><stop offset="1" style="stop-color:#353738;stop-opacity:0"/></linearGradient><path d="M83.2 43.3q-.9 7.3-.9 15.3c0 28.7 9.4 52 20.9 52s20.8-23.3 20.8-52q0-8-.9-15.3z" style="fill:url(#a)"/><path d="M103.2 113.6c-13.6 0-23.9-23.6-23.9-55 0-31.5 10.3-55.1 23.9-55.1s20.8 23.7 20.8 55c0 31.5-7.2 55.1-20.8 55.1m0-104.1c-8.5 0-17.9 20.1-17.9 49s9.4 49.1 17.9 49.1 17.8-20.1 17.8-49-9.4-49.1-17.8-49.1" style="fill:#e0e0e0"/><path d="M89.6 23.2c-1 2.5-4.2 7.9-5.7 25.7 0 .6-.4 3.2-1.8 3.2q-1.4-.2-1.3-3.5-.1-12.2 4.4-25.4c1.7-4.9 5.6-3.3 4.4 0" style="fill:#fff"/><radialGradient id="b" cx="101.2" cy="60.2" r="20.9" gradientTransform="matrix(1 0 0 1.702 0 -42.26)" gradientUnits="userSpaceOnUse"><stop offset=".4" style="stop-color:#82aec0"/><stop offset="1" style="stop-color:#7fa9bb;stop-opacity:0"/></radialGradient><path d="m85.9 46.5 18.9 2.2v19.9L86 72c-1.2-15.8-.1-25.5-.1-25.5" style="fill:url(#b)"/><ellipse cx="104.8" cy="58.6" rx="4.7" ry="9.9" style="fill:#e0e0e0"/><path d="m38.2 87.4-.7 1.3 3.2 6.3a2 2 0 0 0 2 1l5.5-1.1 1.8-2.6.2-.8-6.2 1.2z" style="fill:#353738"/><path d="m42.3 92-4.1-4.6h7.5l4.2 3.7c.5.5.2 1.2-.5 1.3l-4.3.7a3 3 0 0 1-2.8-1.1" style="fill:#616161"/><path d="M57.5 37.5a43 43 0 0 0 18-6.2A60 60 0 0 0 72 58.5q-4.5-2.3-9-3.8-4-1.1-8.2-1.5c-6.8-.9-13.2-1-20.1-.9.2 0 .7-4.6 1.6-8.1.8-3.5 1.7-5.5 1.7-5.5s13.5-.4 19.5-1.2" style="fill:#fff"/><path d="m35.3 38.3-20.5.4s-5 4.2-5.8 13.6c0 0 11.5 0 22 .2a42 42 0 0 1 4.3-14.2" style="fill:#ff7555"/></svg>