<svg xml:space="preserve" width="16" height="16" viewBox="0 0 128 128"><path d="M74.7 52.7s-2.8-2.3-5.2-3.4c-1.6-.7-4.2-2.7-6.5-1.4q-1.6 1-2.4 4.2l-.9 4.7s-3.4-5.6-6.2-4.8c-2.5.6-3 8.5-3 8.5s-4.8-6.8-7-6-3.4 5.8-4.4 12.4c-.7 4.7-3.2 30.2-3.8 31.1S23 110.2 22.4 110.7s-2 1.7-.7 3c1 1.2 2.7 0 3.5-.8s13.2-12.5 13.6-13.4c.8-1.5 3.7-28.1 4-30s1.5-8.6 2.2-8.7c.8-.2 5.5 6 5.5 6l3.7-2.3s.4-7 1-7c.8-.2 3.5 5.3 3.5 5.3zM36.4 68s-3 2-15.5 3a37 37 0 0 1-13.6-2.3c-2.4-1-3-2-3-2s.5-2.2-1.2-2.2-1.5 2.3-.8 3.3a13 13 0 0 0 6 3.7q5.5 1.8 12.9 1.6c8.8-.4 14.6-2.7 14.6-2.7z" style="fill:#848484"/><path d="M60.4 59.7s1.5-5.2 5.3-7.1c3.7-2 12.8-4 18.7-5.2s22.2-3.8 28-4.2c8.5-.5 10 1.4 10.2 3.3.3 1.8-1.4 6-9.1 8.5-6.6 2-27.3 7.3-30.7 8.1-2.8.7-7.1 1.8-10.3 1.6-3.2 0-5 1.2-4.7 1l-1.5 1.7-4.2 4-1.7 3-3.3.3-3.3-4.2-1.7 3.7-1.7-.2s-.4 3.6-4.2 5.6c-3 1.6-6.3.8-6.3.8s-6 4.6-9 6.6c-2.5 1.7-7.5 5-8.4 6.2s-3.5 8-4.4 10.6c-1.2 3-2.4 6.4-4.5 5.5-2.4-1-1.3-4 .4-9 2.1-6.4 3-9.6 5.3-11.6S35.5 77 35.5 77s-3.3-8.7 2.9-11.8c5.7-2.7 9.2.4 9.2.4s.4-4.6 5-5.8 7.8-.1 7.8-.1" style="fill:#5e6467"/><radialGradient id="a" cx="85.7" cy="57.1" r="32.5" fx="53.5" fy="61.4" gradientTransform="rotate(-5 373.2 44.54)scale(1 .56)" gradientUnits="userSpaceOnUse"><stop offset="0" style="stop-color:#745963;stop-opacity:0"/><stop offset=".4" style="stop-color:#894b51;stop-opacity:.3605"/><stop offset="1" style="stop-color:#aa3535"/></radialGradient><path d="M66 58c-.2 2.3.8 5.4 10.5 3.6 10.6-2 32-7.3 35.6-8.3 5-1.3 9.4-4.5 8.6-6.8s-8.8-1.9-20.6.1c-10.7 1.8-21 4-24.6 5-3.8 1-9.1 2-9.5 6.4" style="fill:url(#a)"/><path d="M37 71.3c.7 1.3-2 2.2-4.6 3s-10.6 3.4-19 3.3c-6.5-.2-9.7-2.4-11-3.3s-3-3.3-1.2-4.2 2 2.3 2 2.3 2.6 2.8 10 3.1 18.2-2.7 20.2-3.5q3-1.4 3.7-.7" style="fill:#848484"/><path d="M47.4 75.4c-1 2-3.2 2.6-5.1 1.8s-2.6-2.7-2.1-4.9c.5-2 3.3-3.4 5.5-2.5 2.5 1 2.6 3.6 1.7 5.6" style="fill:#020204"/><path d="M60.4 59.7s-.6-.5-.2-2c.3-1.4 6-8.2 10.1-13S90.6 22.8 92.8 21s6.9-6.7 9.3-4.6c2 1.8.3 5-.6 6.5S98.6 27 98.6 27z" style="fill:#77a8af;fill-opacity:.65"/><path d="M66.7 65.3s7.9-5.3 12-8.9l27.2-23.3c1.8-1.8 6.2-6.9 4.1-9.4s-6.8.5-9.1 1.8c-2 1.1-2.3 1.5-2.3 1.5L60.4 59.7s3 1.2 4 2.3c1.3 1.4 2.3 3.3 2.3 3.3" style="fill:#5a8d91;fill-opacity:.65"/><path d="M46.5 100.8a77 77 0 0 1-8.6 9l-7.5 6.9c-.8.6-2 1.9-.6 3.1 1 1 3-.4 3.8-1.2 1-1 4.8-4.1 7.8-7a84 84 0 0 0 8.7-9.1c.5-1 4.4-29.2 5.2-29 .3 0 1 2.8 1.3 3.7q1 2 2.2 1.6c1.1-.4 1.1-1.9 1.1-1.9s.2 1.1 1.4 1.4c1.6.3 2-.7 2.2-2 .5-2.5.7-4.5 1.3-4.5s.7 4.4 1.1 8.7S67 95.3 67.7 96s6.3 7.7 9.8 11.4l10.8 11.2c.8.8 2.5 1.4 3.1.8s.2-2-1-3.3l-10-11.7A184 184 0 0 1 71 93.8c-.4-.9-2.4-24.3-2.4-24.3s4.8-6.8 5.5-6.8 9.1 9.3 11.3 12.1 11.1 14 12 14.4l27.4 12.3q1.4.4 2.2-.5c.4-.7 0-2-2.3-3L111 91c-1.7-1-10.1-4.6-10.8-5.1s-10-11.2-12.3-14.3-10.7-12.3-11.3-13c-.6-.5-1.2-1.8-2.7-1.6-1.4.2-2.6 2.2-4 3.8-1.9 2.4-3.5 5-3.5 5s-1.5-1.2-3.4-.3c-2 .9-3.3 8.1-3.3 8.1L58 69.2q-1.5-3.2-4-2.5c-1.7.6-2.4 2.7-3 5.6-.5 3-3.8 27.1-4.5 28.5" style="fill:#848484"/></svg>