<svg xml:space="preserve" width="16" height="16" viewBox="0 0 128 128"><path d="M116 4H12a8 8 0 0 0-8 8v104a8 8 0 0 0 8 8h104a8 8 0 0 0 8-8V12a8 8 0 0 0-8-8" style="fill:#bdbdbd"/><path d="M109.7 4H11.5A7.6 7.6 0 0 0 4 11.5v97.9c0 4.1 3.3 7.5 7.5 7.5h98.1c4.1 0 7.5-3.3 7.5-7.5V11.5c0-4-3.1-7.4-7.2-7.5z" style="fill:#e0e0e0"/><path d="M39.7 12.9c0-2.3-1.6-3-10.8-2.7-7.7.3-11.5 1.2-13.8 4-1.9 2.3-2.3 5.6-2.6 8.4-.2 2.2-2.2 14.9 3.5 11.2q1-.6 1.6-1.8c1.2-2.1 1.9-3.5 3.3-5.6 5.3-8.6 18.8-10.5 18.8-13.5" style="fill:#fff"/><path d="M90.2 56.8h-6.4c-8.3 0-15.2 5-16.4 14.9 1.6.3 3.8 1.5 5.4 3.4a16.7 16.7 0 1 1 23.6 23q3.1 1.8 5.3 4.6h.1a7 7 0 0 0 7-7V73.5c0-11.3-9.5-16.6-18.6-16.6M105.9 46c-2-4-2-7.6-3-11.3a15.2 15.2 0 0 0-29.8 0c-1 3.7-1 7.3-3 11.2-1.6 3.4-3.3 3.2-3.3 5s2.6 3.1 5.7 3.5c2.6.4 5.4.1 7.5-.7a16 16 0 0 1-5.6-8.2c-.3-1.2-.6-2.2 0-2.3.8-.2.6 1.3 2.3 3.5 3.5 4.5 6.3 6 11.3 6s7.8-1.5 11.2-6c1.7-2.2 1.5-3.5 2.3-3.5s.4 1.3.1 2.4c-.5 1.8-2.1 5.6-5.6 8.1 2.1.8 5 1 7.5.7 3.2-.4 5.7-1.8 5.7-3.5s-1.7-1.6-3.3-5M38.6 98.2a11 11 0 0 1-3.6-4.4 11 11 0 0 1-6.3 3q-4 .5-4.9-.8t-.2-3.6c.6-1.6 0-3.4-.1-4-3.9-12.7 3.6-15.8 6-16.6q1.6-.6 3.4-.5 2.8 0 4.9 1 4.7-3.9 11-4 6.1 0 9.8 3.6c1.5 1.4 1.5-.1 1.4-1a15.7 15.7 0 0 0-16.3-14.1h-6.3c-9.1 0-18.6 5.3-18.6 16.6v22.4a7 7 0 0 0 7 7h7.6q2-2.8 5.2-4.6M57.4 46c-2-4-2-7.6-3-11.3a15.2 15.2 0 0 0-29.7 0c-1.1 3.7-1 7.3-3 11.2-1.7 3.4-3.4 3.2-3.4 5s2.6 3.1 5.8 3.5c2.5.4 5.3.1 7.4-.7a16 16 0 0 1-5.6-8c-.2-1.2-.6-2.6.1-2.6.9 0 .6 1.4 2.3 3.6 3.5 4.5 6.3 6 11.3 6s7.8-1.5 11.2-6c1.7-2.2 1.5-3.7 2.3-3.6s.4 1.2 0 2.4a15 15 0 0 1-5.6 8.2c2.1.8 5 1 7.5.7 3.2-.4 5.8-1.8 5.8-3.6S59 49.3 57.4 46"/><circle cx="86.3" cy="84.9" r="12.3"/><path d="M74.1 110.8c-1 0-1.7-1-1.5-1.9 1.4-5 7-9 13.7-9s12.3 4 13.6 9c.3 1-.4 2-1.4 2zm-37.5 0c-1 0-1.8-1-1.5-1.9 1.3-5 7-9 13.6-9 6.8 0 12.4 4 13.7 9 .3 1-.5 2-1.5 2zM70 87.5c1.7-5.6 1-10-3.5-11.5-3.7-1.2-7 1.4-7.6 2.2a12.2 12.2 0 0 0-20.4 0c-.6-.7-3.9-3.4-7.6-2.2-4.5 1.4-5.2 5.9-3.5 11.5q.8 2.3-.2 5-.2.9.7 1c6.2-1.8 6.2-7.6 6.5-10S36 80.8 37 81q-.9 2.6-.6 5.5c.8 6 6 10.7 12.1 10.8A12.3 12.3 0 0 0 60.3 81c1-.2 2.3-.2 2.7 2.6.4 2.2.3 7.7 6 9.7a1 1 0 0 0 1-1.1 7 7 0 0 1 0-4.7m3.9 8.9c-.9-1-3-1.5-4.5-.2-.6.5-1.3 1.5-1.3 1.5l-1.4-1.5c-1.5-1.3-3.6-.8-4.4.2q-2 2.3.5 5.5c2.3 2.8 5.3 5.5 5.3 5.5s3-2.7 5.2-5.5q2.5-3.1.6-5.5"/></svg>