<svg xml:space="preserve" width="16" height="16" viewBox="0 0 128 128"><linearGradient id="a" x1="82.8" x2="60.8" y1="20.1" y2="38" gradientTransform="rotate(185 6.02 61.57)scale(-1 1)" gradientUnits="userSpaceOnUse"><stop offset=".6" style="stop-color:#ffca28"/><stop offset="1" style="stop-color:#ffb300"/></linearGradient><path d="m78.3 96-4-15.4-12.5 5s2.9 8.3 4 12a13 13 0 0 0 7.5 8.8l22.2 9.3.6-7.7z" style="fill:url(#a)"/><path d="M90.2 104c-3.2 4.2-2.4 8.5-2.4 8.5l8.5 3.8 1-8.2z" style="fill:#e0e0e0"/><path d="M101.8 105.2c-.3-.6-1.4-1.2-2.7-.9l-2.2.6c-1.6.8-2 1.8-2 1.8-.4 5.1.6 9 .6 9l4.6 5.3q2 2 4.7 1.3l1.2-.4c.6-.2 1.2-1.2.9-2.3z" style="fill:#4568ad"/><path d="M60.8 83.3A62 62 0 0 0 65 95c7.2-.5 14.7-7.3 14.7-7.3s-4-4.4-3.6-12.6z" style="fill:#616161"/><linearGradient id="b" x1="40.1" x2="56.1" y1="28.6" y2="45.2" gradientTransform="matrix(1 0 0 -1 0 130)" gradientUnits="userSpaceOnUse"><stop offset=".6" style="stop-color:#ffca28"/><stop offset="1" style="stop-color:#ffb300"/></linearGradient><path d="M44.1 108.6h8.5S49.8 93 49 90.1l19.8-6.6L64.5 70 41.7 80.3c-2.8 1.3-5.7 4.8-4.1 10.8.9 3.5 6.5 17.4 6.5 17.4" style="fill:url(#b)"/><path d="M51.5 101.6c-5.6-.4-9.1 2.6-9.1 2.6l3 9 7.7-2.8z" style="fill:#e0e0e0"/><path d="M54 115.4c.6-.2 1.2-1.3.9-2.7l-.6-2.2a9 9 0 0 0-2.2-3.1c-5.2-.5-8.6 3-8.6 3l-5.3 3.1a4 4 0 0 0-1.4 4.7l.5 1.2c.1.6 1.1 1.2 2.2 1z" style="fill:#4568ad"/><path d="M47.2 115q-6.7 2.7-8.8 4.1c-1.3 1-.1 1.6 1.2 1.2l12.3-3.7q3.4-1.2 3-3c0-1-3.6-.1-7.7 1.5" style="fill:#294b7c"/><path d="M46.5 78.2c5.3 1 11.7 11.6 11.7 11.6S68.4 85.2 72 83c6.8-4 5-11.8 2.8-15.6l-2.8-6-19.3 5-.3 4.1.8 4.2z" style="fill:#7c7c7c"/><path d="M53.2 74.7c10-7 22.6-5 22.6-5-1.5-4.2-4.5-9.6-4.5-9.6s-18.8 5-19.2 7.5c-.3 2.6 1.1 7.1 1.1 7.1" style="opacity:.2"/><linearGradient id="c" x1="32.4" x2="50.6" y1="66.3" y2="71.1" gradientTransform="matrix(1 0 0 -1 0 130)" gradientUnits="userSpaceOnUse"><stop offset=".6" style="stop-color:#ffca28"/><stop offset="1" style="stop-color:#ffb300"/></linearGradient><path d="m58.5 54.8-4.8-7.1-20.6 21.9s0 1.5 1.8 2.6c1.8 1 3.5.2 3.5.2z" style="fill:url(#c)"/><path d="M33 72s-1.5 2.5-2 5.8c-.2 1.3.2 2.5.4 2.7.5.7 1.5.9 1.8.3.3-.5-.4-1.4-.4-1.9s.4-1 .4-1c.2.5 1.6 1.9 2 1.7 1.4-.3-.6-2-.5-3.1.2-2.9 1.3-4.7 1.3-4.7z" style="fill:#eda600"/><linearGradient id="d" x1="31" x2="35.8" y1="56.1" y2="51.1" gradientTransform="matrix(1 0 0 -1 0 130)" gradientUnits="userSpaceOnUse"><stop offset=".6" style="stop-color:#ffca28"/><stop offset="1" style="stop-color:#ffb300"/></linearGradient><path d="M39.4 70.5c.2 1.8-.2 1.6-.6 3.9-.2 1.4.5 2 .5 3 0 .5-.7 1.2-1.4.8-1.5-.9-.8-4.5-3.7-3.7-2.1.6-3 5.3-4.9 6.7-1.7 1.5-3.1.3-2.7-.2l2-3.6c1.4-2.2 1.9-6.3 5.7-8.8z" style="fill:url(#d)"/><path d="M61 40a92 92 0 0 0-12.8 12.8c4.3.3 8 6.5 8 6.5S66.8 35.3 61 40" style="fill:#008f76"/><path d="M69.4 15.9c-2.2-4.8-9.5-7.2-14.5-6-5.7 1.4-8.4 5.7-8.9 11q-.2 3 .5 5.1c0 .2.5 1.3.5 1.7.3 1.4-2.3 3-2.5 4.5-.1 1.2 2.3 1.8 2.6 2 1 1-.1 5.9 6.6 6 2.3.1 2.8-.2 2.8-.2l.4 7.7 11.2-8.3s-2-3.3-.4-6.6c2.1-4.3 4.4-11 1.6-17" style="fill:#ffca28"/><path d="M48 37a4 4 0 0 0 2.5-1c.8-.7.2-1.4-.8-.9a4 4 0 0 1-2.1.4z" style="fill:#795548"/><ellipse cx="51.2" cy="28.1" rx="1.2" ry="1.9" style="fill:#404040" transform="rotate(-6.1 51.2 28.14)"/><path d="M50 25.5c-1 .6-1.5-.1-1.2-.8q.3-.9 2.3-1 1.9.2 2.4 1 .7 1 .2 1c-.4.1-2.3-.8-3.7-.2" style="fill:#6d4c41"/><radialGradient id="e" cx="80.9" cy="113.7" r="11.7" gradientTransform="rotate(189.3 .8 55.15)scale(-1 1)" gradientUnits="userSpaceOnUse"><stop offset="0" style="stop-color:#ced7db"/><stop offset=".3" style="stop-color:#bfcbd0"/><stop offset=".9" style="stop-color:#99abb4"/><stop offset="1" style="stop-color:#90a4ae"/></radialGradient><circle cx="93.5" cy="15.1" r="11.7" style="fill:url(#e)"/><linearGradient id="f" x1="88.9" x2="63" y1="99.9" y2="76.4" gradientTransform="rotate(189.7 4.2 54.24)scale(-1 1)" gradientUnits="userSpaceOnUse"><stop offset=".6" style="stop-color:#ffca28"/><stop offset="1" style="stop-color:#ffb300"/></linearGradient><path d="M68.5 38.9c-5.6 2.6-.6 9.1-.6 9.1s10.7-1.8 15-2.8c6.3-1.4 7.2-3.6 8.7-5.4L99 29.4l-.4-3.2-5.5 1.2-9.3 8.5s-10.4.7-15.2 3" style="fill:url(#f)"/><linearGradient id="g" x1="117.6" x2="91.8" y1="114.1" y2="90.6" gradientTransform="rotate(175.2 -4.58 69.67)scale(-1 1)" gradientUnits="userSpaceOnUse"><stop offset=".6" style="stop-color:#ffca28"/><stop offset="1" style="stop-color:#ffb300"/></linearGradient><path d="M93.2 27.9c-.2-2.9 3.4-4.3 3.4-4.3l-1.6-4c-.5-1-.2-1.6 0-1.7q1-.3 1.4.2l1.9 2.6c.5-.2-.3-2.8-.7-4.6-.2-1 1-2.1 1.9-.3.7 1.5 1.7 4.4 1.7 4.4q.2-1.8-.3-5.3-.1-1.6 1-1.6c.5 0 1 0 1.3 2.2.2.6.3 4.3.3 4.3 1-.6 1.3-3.4 1.4-5.2 0-1.2 1.7-1.5 2 .4.4 3.8-1.6 7.2-2.6 8.7-.4.8-5.7 5.8-5.7 5.8z" style="fill:url(#g)"/><radialGradient id="h" cx="9.9" cy="66.9" r="19.4" gradientTransform="rotate(199.5 23.03 51.32)scale(-1 1)" gradientUnits="userSpaceOnUse"><stop offset="0" style="stop-color:#00bfa5"/><stop offset="1" style="stop-color:#009e89"/></radialGradient><path d="M79 65.6c-8.8-8.3-4.6-15.4-4.6-15.4s0-1.2 4.6-2.1c0 0-.7-5.3 2-12.3 0 0-10 .1-14.2 1.5-2.5.8-6.5 1.4-10.2 5.6-2.2 2.4-3.7 4.7-5.2 12-1.7 8.4 1.8 19.9 1.8 19.9C61 66 79 65.6 79 65.6" style="fill:url(#h)"/><path d="M69.5 13.6a17 17 0 0 0-19.3-2.4S45.8 13.9 45 16c-1 2.4.1 3.7.4 3.9q.3.3.7.2h.5c1.7-.3 7-1 9.7-.7q.8 0 1.1.6l.3 1.4c.4 2.4.3 4 1.1 5.5l.7.5.9-1.6q.6-1.6 1.9-1.6c2.4.2 2.4 4.5-.3 5.8 0 0 .8 3.1 3.9 3.6l.8.1h.3q1.8 0 2-1.4a12 12 0 0 1 1.5-4.3c.7-1.3 1.4-2.6 1.7-5.8q.5-5-2.7-8.6" style="fill:#543930"/><radialGradient id="i" cx="58.5" cy="21.5" r="13.1" gradientUnits="userSpaceOnUse"><stop offset=".5" style="stop-color:#6d4c41;stop-opacity:0"/><stop offset="1" style="stop-color:#6d4c41"/></radialGradient><path d="M69.5 13.6a17 17 0 0 0-19.3-2.4S45.8 13.9 45 16c-1 2.4.1 3.7.4 3.9q.3.3.7.2h.5c1.7-.3 7-1 9.7-.7q.8 0 1.1.6l.3 1.4c.4 2.4.3 4 1.1 5.5l.7.5.9-1.6q.6-1.6 1.9-1.6c2.4.2 2.4 4.5-.3 5.8 0 0 .8 3.1 3.9 3.6l.8.1h.3q1.8 0 2-1.4a12 12 0 0 1 1.5-4.3c.7-1.3 1.4-2.6 1.7-5.8q.5-5-2.7-8.6" style="fill:url(#i)"/></svg>