<svg xml:space="preserve" width="16" height="16" viewBox="0 0 128 128"><radialGradient id="a" cx="64" cy="55" r="51.7" gradientUnits="userSpaceOnUse"><stop offset=".5" style="stop-color:#fde030"/><stop offset=".9" style="stop-color:#f7c02b"/><stop offset="1" style="stop-color:#f4a223"/></radialGradient><path d="M79.2 6.7c-39.1-13-77 23-63.2 61.6 3 10-.4 11.7 1.3 16.3 2 5.5 8.3 3 8.3 3s0 12 2 15.8a4 4 0 0 0 3.8 1.8c5-1 4-10.3 4.2-12.7.6-4.3 3.2-2.4 4.1-1.4s1 2.5 1.2 3.8c.9 8.3 4.3 13.6 12.9 10.4.5-.2 2.4-.6 2.1.4-.2 3-.4 8.9-.2 12 0 3 1 7.1 4.8 6.2 9.2-2.6 4.5-13.9 5-21.3 0-6.2 7-5.2 7-.7s-1.6 10.6 2.1 13.3c6.5 4.6 8-2.3 7.6-5.6 0 0-.4-7.8.7-9.1 1-1.4 1.5 3 6.1 2 6.3-1.5 6-8.5 6.6-11.8s2.4-6.3 3.5-3c1.2 3.4-.7 8.3 0 12.1.7 3.9 2.2 5 4.9 4.7 4.2-.3 4.9-4.9 5-8.5 0-3.7 0-10.6.7-14 1.3-7 2-9.9 2.9-12.8A50 50 0 0 0 79.2 6.7" style="fill:url(#a)"/><radialGradient id="b" cx="64.8" cy="56.7" r="54.1" gradientTransform="rotate(10.2 51.76 55.5)scale(1 .959)" gradientUnits="userSpaceOnUse"><stop offset=".5" style="stop-color:#fde030"/><stop offset=".9" style="stop-color:#f7c02b"/><stop offset="1" style="stop-color:#f4a223"/></radialGradient><path d="M79.2 6.7c-39.1-13-77 23-63.2 61.6 3 10-.4 11.7 1.3 16.3 2 5.5 8.3 3 8.3 3s0 12 2 15.8a4 4 0 0 0 3.8 1.8c5-1 4-10.3 4.2-12.7.6-4.3 3.2-2.4 4.1-1.4s1 2.5 1.2 3.8c.9 8.3 4.3 13.6 12.9 10.4.5-.2 2.4-.6 2.1.4-.2 3-.4 8.9-.2 12 0 3 1 7.1 4.8 6.2 9.2-2.6 4.5-13.9 5-21.3 0-6.2 7-5.2 7-.7s-1.6 10.6 2.1 13.3c6.5 4.6 8-2.3 7.6-5.6 0 0-.4-7.8.7-9.1 1-1.4 1.5 3 6.1 2 6.3-1.5 6-8.5 6.6-11.8s2.4-6.3 3.5-3c1.2 3.4-.7 8.3 0 12.1.7 3.9 2.2 5 4.9 4.7 4.2-.3 4.9-4.9 5-8.5 0-3.7 0-10.6.7-14 1.3-7 2-9.9 2.9-12.8A50 50 0 0 0 79.2 6.7" style="fill:url(#b)"/><radialGradient id="c" cx="87.7" cy="-537" r="6.7" gradientTransform="matrix(1 .007 -.019 .862 -10.16 557.3)" gradientUnits="userSpaceOnUse"><stop offset="0" style="stop-color:#f7c02b"/><stop offset=".8" style="stop-color:#f7c02b;stop-opacity:0"/></radialGradient><path d="M81.8 95.7c-.7-5.6 2.6-8.2 5.8-8.2s6.7 0 5.9 8.2c-.3 3.2-2.6 5.7-5.9 5.7s-5.5-2.5-5.8-5.7" style="fill:url(#c)"/><radialGradient id="d" cx="53.3" cy="-179.6" r="5.6" gradientTransform="matrix(.9 .01 -.017 1.179 -29.36 291)" gradientUnits="userSpaceOnUse"><stop offset="0" style="stop-color:#f7c02b"/><stop offset=".8" style="stop-color:#f7c02b;stop-opacity:0"/></radialGradient><path d="m17.1 79.8.5-3.5c0-1.3-.4-2.7-.4-2.7q1.6-2.3 3.9-2.4c3 0 5.3 3.5 5.3 7.8S24 86.7 21 86.7q-2.1 0-3.6-2s-.7-2.2-.4-4.9" style="fill:url(#d)"/><radialGradient id="e" cx="30.5" cy="90.6" r="4.8" gradientTransform="rotate(11.8 712.58 160.95)scale(1 2.554)" gradientUnits="userSpaceOnUse"><stop offset="0" style="stop-color:#f7c02b;stop-opacity:.9706"/><stop offset=".9" style="stop-color:#f7c02b;stop-opacity:0"/></radialGradient><path d="M25.6 87.6c0-2-.6-8.6 2.6-8.6s5 2.5 5.5 7c.6 4.3.1 10.2 0 12.5-.4 4.7-3 6.6-6.4 4.3 0 0-1.7-4.1-1.7-15.2" style="fill:url(#e)"/><radialGradient id="f" cx="60.5" cy="107.9" r="5.3" gradientTransform="matrix(1 .014 -.037 2.554 3.96 -168.5)" gradientUnits="userSpaceOnUse"><stop offset=".3" style="stop-color:#f7c02b;stop-opacity:.9706"/><stop offset="1" style="stop-color:#f7c02b;stop-opacity:0"/></radialGradient><path d="M56.1 104.3c0-1.9-.2-9.8 3-9.8s5.1 1 5.7 5.5 1.7 13.2.7 17c-1.6 5.9-7.2 5-8.6 2.8-1.9-3-.8-15.5-.8-15.5" style="fill:url(#f)"/><radialGradient id="g" cx="76.8" cy="103.2" r="6.6" gradientTransform="matrix(1 0 0 2.026 0 -105.87)" gradientUnits="userSpaceOnUse"><stop offset=".1" style="stop-color:#f7c02b"/><stop offset=".8" style="stop-color:#f7c02b;stop-opacity:0"/></radialGradient><path d="M73.2 96q.5-5.7 5.4-5.8c4.9-.1 9.8 4.4 4.3 10.2-1.2 1.3-.7 4.8-1.3 10-.4 3.7-3.2 3.3-4.5 3.3-5.8 0-5.3-4.2-3.9-17.6" style="fill:url(#g)"/><radialGradient id="h" cx="102.7" cy="88.1" r="5.5" gradientTransform="rotate(12.3 721.8 155.02)scale(1 2.518)" gradientUnits="userSpaceOnUse"><stop offset="0" style="stop-color:#f7c02b"/><stop offset=".8" style="stop-color:#f7c02b;stop-opacity:0"/></radialGradient><path d="M99.1 87.5c-1-3.8 2.5-16.2 5.8-16.2s0 7 1.8 26.3c.4 3.5-2.7 4.6-4 4.6-5.9 0-2.3-9.8-3.6-14.7" style="fill:url(#h)"/><path d="M109.5 32.2c-.1 2 6.3 17.8.2 36-1 3.1-1.6 6.3-3 13.1-1.5 5.7.9 19.9-3.7 23.2 4.7.7 6-4.8 6-8.5s0-10.6.7-14c1.3-7 2-9.9 2.9-12.8a48 48 0 0 0-3.1-37M97.6 84.6c-.4-1.9-3.7-1-4.6 1.5-1.2 3.3-.6 6.7-1.3 10-.5 1.8-2.7 5.3-6 3-1.6-1-3.3-2.9-5.2-.5-3 5 .4 12.3-1.9 16.4a3 3 0 0 1-1.8 1.4c3.6 1.1 5-1.3 5.4-4.7.3-3.6-.6-8.4.7-11.2q.2-.3.4-.3c.7 0 1.5 2.4 4.4 2.4l1.3-.2c5.3-1 6.2-7 6.5-11.4.3-4.3 2.7-3.8 2-6.4M68.3 96.5c-2.2-1-4.2 1.2-4.7 3.2-2 5.5.8 10.1-.8 15.7-.8 2-1.5 3.2-3 3.6-3 .7-4 2.9-2.2 4.3q1.3 1 3 .6c12.3-3-.4-23.1 7.7-25.6.1 0 .6-.2 2.2.3 0 0 0-1-2.2-2m-26.8-8a4 4 0 0 0-4.9-1.8c-3.6 1.5-4 3.7-3.4 11 .2 2.4-.5 7-.5 7s3.3-1.6 3-12.3c-.1-3 2.6-3 4-1.4.9 1 1 2.5 1.2 3.8.7 6.6 3 11.4 8.3 11.4 1.6 0 4.1-1 5.3-1.2s1.7-1.3 1.4-2c-1-3-4.9.6-6.7.2-1.1 0-4.9 0-5.7-8.5-.1-2-1-4.6-2-6.2M27 79.5c-.4-.6-.9 2-2 3.8q-2.5 3.6-7 2.5c.4 1.4 2.3 3 5.6 2.3 3-.6 3.5-2.3 3.5-8.6" style="fill:#eb8f00"/><path d="M48.6 24.6c-3.7-.7-7.6 1.7-8.7 6.9-1 5.1 1.7 8.9 5.4 9.6 3.7.8 7.6-1.7 8.7-6.8 1-5.2-1.7-9-5.4-9.7" style="fill:#422b0d"/><path d="M47.6 28a2.6 2.6 0 0 0-3.6 3.5 2.6 2.6 0 0 0 3.6-3.5" style="fill:#896024"/><path d="M77.5 34c-3.7 0-7.1 3.1-7.1 8.4s3.4 8.4 7.1 8.4c3.8 0 7.2-3.2 7.2-8.4s-3.4-8.5-7.2-8.5" style="fill:#422b0d"/><path d="M77.2 37.5a2.5 2.5 0 0 0-3.4 1.2q-.7 1.7.5 3c1.3.5 2.8 0 3.4-1.3q.7-1.6-.5-3" style="fill:#896024"/><path d="M63.2 73.1a29 29 0 0 1-20.4-13.8q-.4-1 0-2 .8-1 1.8-.8.4 0 .8.4c4 3.4 10.9 8 18.9 9.3h.8c8.7 1 13.4-1.7 18-3.6.2-.1 1.8-.6 2.4 1q.1 1-.8 2a24 24 0 0 1-21 7.6z" style="fill:#422b0d;stroke:#422b0d;stroke-width:1.0587;stroke-miterlimit:10"/></svg>