<svg xml:space="preserve" width="16" height="16" viewBox="0 0 128 128"><radialGradient id="a" cx="63.6" cy="-2088.9" r="57" gradientTransform="matrix(1 0 0 -1 0 -2026)" gradientUnits="userSpaceOnUse"><stop offset=".5" style="stop-color:#fde030"/><stop offset=".9" style="stop-color:#f7c02b"/><stop offset="1" style="stop-color:#f4a223"/></radialGradient><path d="M63.6 118.8c-27.9 0-58-17.5-58-55.9S35.7 7 63.6 7c15.5 0 29.8 5.1 40.4 14.4 11.5 10.2 17.6 24.6 17.6 41.5s-6.1 31.2-17.6 41.4a61 61 0 0 1-40.4 14.5" style="fill:url(#a)"/><path d="M79.4 46c-4.2 0-8 3.5-8 9.4s3.8 9.4 8 9.4 8-3.6 8-9.4-3.8-9.5-8-9.5" style="fill:#422b0d"/><path d="M79 49.9c-1-.8-2.6-.5-3.6 1-1 1.4-.6 2.9.4 3.6s2.6.5 3.6-1c1-1.4.6-3-.4-3.6" style="fill:#896024"/><path d="M111.5 29.7a57 57 0 0 1 8.1 30.2c0 16.9-6.1 31.2-17.6 41.4a61 61 0 0 1-40.4 14.5c-18 0-37-7.3-48.2-23a58 58 0 0 0 50.2 26c15.4 0 29.8-5.2 40.4-14.5a54 54 0 0 0 17.6-41.4q-.1-19.2-10.1-33.2" style="fill:#eb8f00"/><g style="opacity:.9"><radialGradient id="b" cx="198.2" cy="53" r="21.3" gradientTransform="matrix(.89 0 0 .778 -74.8 30.46)" gradientUnits="userSpaceOnUse"><stop offset="0" style="stop-color:#ed7770"/><stop offset=".9" style="stop-color:#ed7770;stop-opacity:0"/></radialGradient><ellipse cx="101.7" cy="71.8" rx="17.4" ry="16" style="fill:url(#b)"/></g><g style="opacity:.9"><radialGradient id="c" cx="114.9" cy="55.4" r="21.3" gradientTransform="matrix(.89 0 0 .778 -74.8 31.3)" gradientUnits="userSpaceOnUse"><stop offset="0" style="stop-color:#ed7770"/><stop offset=".9" style="stop-color:#ed7770;stop-opacity:0"/></radialGradient><ellipse cx="27.4" cy="74.4" rx="17.4" ry="16" style="fill:url(#c)"/></g><path d="M45.4 37.4c1.3-1.7 4.2-.2 3 2Q47.2 42 45 44a21 21 0 0 1-14.3 6c-2.5 0-2.4-3.2-.2-3.7 5.6-1 11-4.1 14.9-8.8m35.5 1.3c-2.2-.7-1.8-3.9.7-3.6q2.8.3 5.6 1.6a21 21 0 0 1 10.7 11c.9 2.3-2.2 3.4-3.4 1.5-3-4.8-7.8-8.7-13.6-10.5M37.7 53.6a3.5 3.5 0 0 0-2 4c1.1 4.4 4.4 6.9 8 6.9 4.4 0 8.3-3.7 8.3-9.8q0-1.7-.4-3.2c-.6-2-3-3-4.9-2.2z" style="fill:#422b0d"/><path d="M47.3 52.8c-.5-.9-2-1-3.4 0s-1.9 2.2-1.3 3 2 1 3.4 0q2.2-1.7 1.3-3.1" style="fill:#896024"/><path d="M36.1 80.6a14 14 0 0 0-9.6 1.5m5.2.6a9 9 0 0 0 3.8 8.7 9 9 0 0 0 9.5.2l3.4-2.4c4.2-2.6 9.7-1.4 14.2.6s8.6 5 13.5 5.7a17 17 0 0 0 18.7-12.9m4.4 3.9a10 10 0 0 0-7.8-4.7" style="fill:none;stroke:#35220b;stroke-width:4.4377;stroke-linecap:round;stroke-linejoin:round;stroke-miterlimit:10"/></svg>