<svg xml:space="preserve" width="16" height="16" viewBox="0 0 128 128"><radialGradient id="a" cx="64" cy="125.6" r="20.3" gradientTransform="matrix(1 0 0 -1 0 130)" gradientUnits="userSpaceOnUse"><stop offset="0" style="stop-color:#d777e0"/><stop offset="1" style="stop-color:#b346bd"/></radialGradient><path d="M87 60c-3-3 .8-9.5 1.7-12.3 1.1-3.3-.3-6-2.7-7.7s-5.9-2.4-7.5-3.4c-4.5-2.6 0-10 .7-14.3.7-3.9-.6-7.3-2.4-10.7-5.2-9.9-20.4-9.9-25.5 0a20 20 0 0 0-2.1 7.4c-.1 1 0 6.4-2.6 11-2 3.6-4.8 6.4-4 12.1C44.4 54 57 56.6 61.2 56.3c1.9-.2 4.6-.7 6.3.3 4.2 2.4 4.4 6.1 6.4 10.3 2.6 5.3 9.5 8 15 6 3.8-1.4 7-4 10.1-6.6 4.1-3.3 11 1 11 1s-4-11.3-14.8-7.6C91 61.1 90 63 87 60" style="fill:url(#a)"/><path d="M27 73.4q-.3-.4-1.3-.6h-.5c-1.1-.6-3.2 0-4 .4-2.7 1.3-2.8 5.5-2.7 7.2q.2 1.6 1.6 1.7 1.1 0 1.3-1.1.1-1.4 1-4.2c.1-.3 2-1.3 2.8-1.7 1.5-.8 1.8-1 1.9-1.2zm71.3-35.2-.4-.2q-.3 0-.5-.3-.8-.7-.5-1.8l.7-1.4.7-1.4q.3-1.1-.5-1.7-1.3-.5-2.2.7c-1 1.4-2.8 5-1.2 7.2q1 1.5 2.7 1.6h.3q.6 0 1-.2.8-.5.7-1.3 0-.7-.8-1.2" style="fill:#7a4c32"/><linearGradient id="b" x1="59.9" x2="59.9" y1="32" y2="75.1" gradientUnits="userSpaceOnUse"><stop offset=".1" style="stop-color:#8d5738"/><stop offset=".4" style="stop-color:#a56c43"/></linearGradient><path d="M103.6 40.4 99 35c-1-1.3-3.9-.3-1.8 2.5 1.2 1.5-.3 1.3-1.6 0s-.8-5.5-2-6q-1.2-.4-1.7.4c-.6 1.5-.6 4.6.4 7 1 2 5 4 5.2 6.2.3 2.8-9 12.3-9 12.3l-5.6-12.2C82.2 43.9 81 40 68 38.9v-4h-8.5v3.9c-13.1 1-12.6 3.3-15.8 8.7L38 60.3s-8.7 11.2-10.5 11.4-5.3-.2-7.7 1.9c-1.3 1.2-3.5 3-4.4 4-1.7 1.8 1.4 4.9 6.4-.6 1.4-1.6 4.3-1.2 4.6-.5.6 1.4-.2 2.7-2.4 2.5-2.3-.3-2.8 2-.3 2.5 2 .4 5 1 8.5-2.6l12-13.3s5.6-8.4 8.2-13l-.7 18.7L55 76c2 1.1 9.9 5.8 12 5l9.5-7.7.2-19.6c3.2 6 6.9 15.7 10.9 15.2 2.9-.3 11.2-11.8 16-20.2 1.9-3.2 1.6-6.5 0-8.3" style="fill:url(#b)"/><path d="M64.2 8.5c6 0 11.6 4.6 11.5 14.2a14 14 0 0 1-9.1 13.6q-1.5.6-2.8.5t-2.8-.5a14 14 0 0 1-8.7-13.9c0-9.6 5.8-14 11.9-14" style="fill:#a56c43"/><radialGradient id="c" cx="64" cy="125.6" r="20.3" gradientTransform="matrix(1 0 0 -1 0 130)" gradientUnits="userSpaceOnUse"><stop offset="0" style="stop-color:#d777e0"/><stop offset="1" style="stop-color:#b346bd"/></radialGradient><path d="M49.4 26.9c1-5.4.5-7.3.8-9.2.3-1.7 2-12.6 14-12.4C77.9 5.5 77.4 18 77.4 18v4.5s-.5 2.7-2 5.8-3 5.2-3 5.2 2-4.7 2-9.1c0-1 .5-4.9-1.7-5.4-7.9-1.9-12.3-6.1-12.3-6.1-1.2 2.5-4.9 5-6.2 5.9-1 .7-1 4-1 5.3l.5 6.2c-1.3-.9-3.7-2-4.3-3.4" style="fill:url(#c)"/><path d="M62.6 26.8h2.6q.5.2.3.6-.2.8-1.6 1c-1 0-1.5-.8-1.6-1q0-.4.3-.6" style="fill:#875334"/><path d="M61 29.7a9 9 0 0 0 5.8 0c.7-.3 1.3.3 1 .8-.2.6-2.2 2-4 1.9-1.7 0-3.6-1.4-3.9-2-.2-.5.4-1.1 1-.7" style="fill:#473530"/><ellipse cx="69.7" cy="23.7" rx="1.8" ry="1.7" style="fill:#42312c" transform="rotate(-89.3 69.71 23.68)"/><ellipse cx="58.2" cy="23.5" rx="1.8" ry="1.7" style="fill:#42312c" transform="rotate(-89.3 58.22 23.53)"/><path d="M67.2 20.4q.3-.8 2.6-1a3 3 0 0 1 2.5 1.1v.6h-.7l-1.9-.4q-1.5.1-1.9.4-.5.1-.6-.1-.2-.2 0-.6m-11.5-.1q.4-.8 2.6-1 2.1.2 2.5 1 .2.4 0 .6 0 .3-.6.2c-.7-.2-1-.5-2-.5q-1.4.1-1.8.4-.5.1-.7-.1z" style="fill:#42312c"/><linearGradient id="d" x1="55.2" x2="89" y1="61.5" y2="3.4" gradientTransform="matrix(1 0 0 -1 0 130)" gradientUnits="userSpaceOnUse"><stop offset="0" style="stop-color:#ffa1de"/><stop offset=".1" style="stop-color:#f99de0"/><stop offset=".2" style="stop-color:#e691e6"/><stop offset=".3" style="stop-color:#c87df1"/><stop offset=".5" style="stop-color:#9f62ff"/><stop offset=".5" style="stop-color:#9e61ff"/><stop offset=".8" style="stop-color:#b98aff"/><stop offset="1" style="stop-color:#cba6ff"/></linearGradient><path d="m105.2 106-.6.2q-2.3.3-4.7 0a36 36 0 0 0-10 .9c-.3 0-2.7 1-2.7 1-.3-.4-.2-1.4-.3-2l-.6-2.1c-1-2.7-3.3-4.5-4.5-7a6 6 0 0 1-.5-3.8c.2-.7.7-2.4 1-2.8l-.7.4-1.9 1.1a18 18 0 0 0-5 14.7c.5 3 2.3 5.9 4 8.3-2 1.7-4.5 3.2-7.1 3-3.7-.5-5.8-2-5.8-8 0-19.8 12.8-16.5 10.7-37.6 0-1-6.7 3.3-15.2 3-8.7-.4-9.4-5.3-9.7-4.7A48 48 0 0 0 47.5 84c-3.3 17.5-.8 33.5 10 39.1 7.5 4 20.1 1.5 25-5.2 18 6.8 25.3-9.6 25.7-14.4q-.7 2-3 2.6" style="fill:url(#d)"/><path d="M51 78q.3 1.1.8 1.6l1.2 1 1.3.4 1.9-.1c-.9 1-2.5 1.3-3.8.6A4 4 0 0 1 51 80q-.5-1-.1-2m7.3 3.4 1.6.7a5 5 0 0 0 2.7.2q.7 0 1.7-.5-1.1 1.7-3.1 1.7-2-.4-3-2zm2 3.7q.8.7 1.5 1a6 6 0 0 0 2.6.6l1.8-.2q-1.4 1.5-3.4 1.1a4 4 0 0 1-2.6-2.4zm5.1-2.8 1.7.3a6 6 0 0 0 4-1.5h.2a4 4 0 0 1-2.6 2.5q-2 .2-3.4-1.2M49 84.6q.1 1.1.8 1.6l1.3 1q.7.5 1.6.6h2c-1.1 1-2.8 1-4.1.4q-1-.7-1.6-1.6t-.2-2.1zm6.2 3.2q.8.7 1.4 1a6 6 0 0 0 4.4.7q-1.4 1.5-3.5 1a4 4 0 0 1-2.4-2.6m6.9 2q.8.5 1.5.7a5 5 0 0 0 2.6.3l1.6-.5h.1q-1 1.6-3 1.6-2-.3-2.9-2.1zm-14.1 3.7q.2 1 .7 1.4l1 1 1.2.5h1.8c-.9 1-2.4 1-3.5.4q-.9-.7-1.2-1.5-.5-1-.1-1.9m4.9 3.1 1.4.9a6 6 0 0 0 4 .6v.1q-1.3 1.2-3.2.8-1.7-.6-2.3-2.4zm5.6 1.7 1.3.8a5 5 0 0 0 2.3.3l1.6-.3q-1 1.5-2.9 1.4-1.7-.4-2.4-2.1M55 76.2l1.5 1.2a6 6 0 0 0 3 .8q.8 0 1.9-.3v.1q-1.5 1.6-3.8 1a4 4 0 0 1-2.8-2.8zm9 1.8 1.9.3 2.7-.1q.8-.3 1.5-.8h.1q-.3.9-1.1 1.5-.7.5-1.8.5a4 4 0 0 1-1.8-.3q-.8-.3-1.5-1m-11.3 5.1q.7.9 1.5 1.2a6 6 0 0 0 3 .9l2-.3q-1.7 1.6-3.9 1.1a4 4 0 0 1-2.7-2.8m5.4 9.9 1.4 1a6 6 0 0 0 2.7.5l1.7-.2.1.1q-1.5 1.5-3.4 1a4 4 0 0 1-2.6-2.4M50.6 90l1.4 1.3a5 5 0 0 0 3 1.1l2-.1a4 4 0 0 1-4 .8 4 4 0 0 1-2.5-3.1zm5.4 12.2 1.4 1a6 6 0 0 0 2.7.5l1.7-.2v.1q-1.3 1.5-3.4 1a4 4 0 0 1-2.6-2.4zm-7.4-2.2 1.4 1.3a5 5 0 0 0 3 1.1l1.9-.1a4 4 0 0 1-3.9.8 4 4 0 0 1-2.5-3.1m3.8 4.7 1.7 1a6 6 0 0 0 3.1.4l1.9-.6v.1a4 4 0 0 1-3.6 1.6 4 4 0 0 1-3.2-2.5M84.4 115q1.3-1.7 3.1-2.8a9 9 0 0 1 4-1.3q-1.5 1.4-3.4 2.3-1.7 1-3.7 1.8m6.3-.3 2.8-2.3 2.8-2.3a6 6 0 0 1-2.1 3.1q-1.5 1.3-3.5 1.5m5.9-.3 2.3-2.7 2-2.9a5 5 0 0 1-1.1 3.6q-1.2 1.6-3.2 2m-15.8-1.2q.7-2 1-3.7l.6-3.9q1 2 .5 4a6 6 0 0 1-2.1 3.6m-1.1-2.4a4 4 0 0 1-1.4-3q-.2-1.5.3-3.2c.4-2 1-3.9.3-6q1 1.4 1.1 3 0 1.7-.4 3.3l-.5 3q0 1.4.6 2.8" style="fill:#983ba1"/><linearGradient id="e" x1="-1.6" x2="-1.6" y1="-30.4" y2="-40.9" gradientTransform="rotate(186.5 30.63 7.24)scale(-1 1)" gradientUnits="userSpaceOnUse"><stop offset="0" style="stop-color:#de8be9"/><stop offset="1" style="stop-color:#c36dd5"/></linearGradient><path d="M47.9 51.7a2 2 0 0 1 1.7-.7 2 2 0 0 1 2.1-2.6q.9 0 1.4.7a2 2 0 0 1 3.9.5 2 2 0 0 1 3.1 1.3q.1.7-.2 1.3h.1a2 2 0 0 1 1.7 2.6 2 2 0 0 1-1 1.1l-4 2.1q0 .6-.4 1H56l-4-.4-.3-.2q-.3-.5-.2-1L48 54.5a2 2 0 0 1-.2-2.8" style="fill:url(#e)"/><path d="M53.3 57.6a10 10 0 0 1-2.4-3q-1-1.5-1.3-3.6l2 3.3zm.5.1q-.8-2.1-1-4.2-.2-2.2.2-4.4h.1l.4 4.3zm3.2-8.1q0 2.3-.7 4.2t-2 4l1.3-4.2zm2.9 2.6q-.7 1.9-2 3.2-1.2 1.5-3 2.4l2.4-2.9z" style="fill:#903eb3"/><linearGradient id="f" x1="88.3" x2="88.3" y1="121.2" y2="110.6" gradientTransform="rotate(177 -7.45 86.55)scale(-1 1)" gradientUnits="userSpaceOnUse"><stop offset="0" style="stop-color:#de8be9"/><stop offset="1" style="stop-color:#c36dd5"/></linearGradient><path d="M64.9 52.8q.6-1 1.6-1a2 2 0 0 1 1.7-3q.8.1 1.4.6a2 2 0 0 1 3.9-.2 2 2 0 0 1 2.4-.4 2 2 0 0 1 .9 2.5h.1a2 2 0 0 1 1.3 3.6l-3.5 2.7q0 .5-.3 1l-.4.2-4 .2-.3-.2-.4-1-3.8-2.2a2 2 0 0 1-.6-2.8" style="fill:url(#f)"/><path d="M71.2 57.8q-1.7-1-2.9-2.6-1.1-1.4-1.8-3.3l2.4 2.9zm.5-.1q-1.2-1.9-1.7-4-.5-2-.5-4.2h.1l1.1 4zm1.8-8.5q.4 2.3 0 4.4-.2 2.1-1.2 4.1h-.1l.6-4.3zm3.3 2.2q-.4 1.9-1.4 3.5-1 1.5-2.6 2.8l2-3.2z" style="fill:#903eb3"/></svg>