<svg xml:space="preserve" width="16" height="16" viewBox="0 0 128 128"><path d="M4.5 58.4s-2.9 21 9.3 39.4c10 15.1 26 25.3 48.1 25.8 21 .4 36.4-6.9 48.2-21.3 16-19.5 13.5-41 13.5-43.7 0-4.6-8.6 21-8.6 21l-24.3 31.7-35.6 6.5s-28.5-12.5-28.6-13.2z" style="fill:#474c4f"/><path d="M64.8 4.4A58 58 0 0 0 4.5 62.9c1.1 28 23 57.6 59.6 57.2 36.8-.5 58.7-31 59.5-58S101.3 4.5 64.8 4.3m.5 105.4c-21.6 1-48.8-16.2-48.1-45.6a46 46 0 0 1 45.6-46.5c17.2-.4 47.6 11.8 47.6 47.2 0 28.5-24.9 44.1-45.1 45" style="fill:#606265"/><path d="M10.1 45c-.4 1.6-.6 3.4 1 4s2.6-1.8 3.1-3.4S21 31.1 30.5 23.3c10.3-8.4 23.2-11.3 25-11.9s3-1.7 2.7-2.8c-.3-1.4-2.2-1.3-3.7-1.1-1.3.2-14.1 1.4-27.4 12.2a51 51 0 0 0-17 25.2" style="fill:#9a9a9a"/><path d="M48.2 59.7c.2-1.7 2-9.7 6.2-13.2 8.9-7.5 18.1-3 21 1.9 2.5 4.6 1 8.7 5 9.8 4.2 1 8.7.2 10-2.4 1.7-3.6-.1-9.2-1-10.1s-24-10.8-24-10.8-17.8 9.4-17.8 9.8l-1.4 16zm-15 15.1s1.1 8 7.7 15.8c5.3 6.3 14 9.4 23.3 9.3C86.4 99.6 91 82.5 91 80.3s-15 11-15 11l-13.8-2.2z" style="fill:#474c4f"/><path d="M63.2 28.7c-16.4 0-32.4 11.4-31 38.3 1.5 29.4 25.2 30.3 31.4 30.4 13.2.3 26.1-8.3 27.8-18 1.4-7.9-3-8.8-6.6-8.8s-5.6.5-7.7 5.1c-2 4.6-5.9 10.3-13.3 10S48 81 48.1 62.8s9.7-22.1 16.6-22c7.4.1 10.4 2.8 12.4 5.8s2.6 7.1 5.6 7.7c2.7.6 8.3.2 8.4-1.8s-2.4-23.5-28-23.7" style="fill:#606265"/><path d="M54.6 35.2c2 1.8-3 3.4-7.2 7.8s-6 9.7-7.7 9c-2.6-1.2-1.4-7.7 3.8-12.9s9.6-5.4 11.1-4m21.5 49.8c1.7 1.2 6-2.4 7.8-4.8 1.7-2.3 4-5.6 1.4-6.9-2.7-1.3-4.5 1.2-6 4.6-1.3 2.6-5.5 5.4-3.2 7.1" style="fill:#9a9a9a"/></svg>