<svg xml:space="preserve" width="16" height="16" viewBox="0 0 128 128"><path d="M32.6 5.4c-.5.8 0 2 2.2 2.8 2 .8 6.4 2.7 7.8 4.8s2 3.7.5 7.2 2 4 2 4 3.5-4 1.4-10c-2-5.9-9.2-8.3-10.2-8.7s-3.1-1.2-3.7-.1" style="fill:#70853c"/><ellipse cx="36.5" cy="99.6" rx="5.2" ry="5.4" style="fill:#70853c" transform="rotate(-40.4 36.52 99.58)"/><ellipse cx="52" cy="109.3" rx="5.2" ry="5.4" style="fill:#70853c" transform="rotate(-64.2 52.01 109.3)"/><ellipse cx="72.3" cy="113" rx="5.2" ry="5.4" style="fill:#70853c" transform="rotate(-80.8 72.27 112.95)"/><ellipse cx="91.3" cy="116.8" rx="5.2" ry="5.4" style="fill:#70853c" transform="rotate(-80.8 91.28 116.75)"/><ellipse cx="23.8" cy="53" rx="5.1" ry="4.9" style="fill:#70853c"/><ellipse cx="24.5" cy="68.4" rx="5.1" ry="4.9" style="fill:#70853c" transform="rotate(-4.9 24.49 68.32)"/><ellipse cx="28.2" cy="84.7" rx="5.4" ry="5.5" style="fill:#70853c" transform="rotate(-19 28.15 84.68)"/><path d="M55.4 73.6C61.6 84 80.7 83.8 99 89.8c12 3.8 19.3 13 17.9 21.6s-7.5 10.8-12.7 10.6c-6.2-.3-13.6-5.5-19.3-6.8-5.6-1.2-27.9-3.4-33.8-5.9a45 45 0 0 1-20.7-17.8c-4.9-8.6-5.9-24-6-31s.1-13.8-.4-15.5-10-1.8-12-10.3c-2.1-9.3 4.7-19.1 14.6-21s22.6 3 26 14.5-1.8 37.5 3 45.4" style="fill:#b7d019"/><path d="M30.7 62.3c-.6 1.5 1.2 2.6 3.8 2.8 3.3.3 8.4-1 12.3-2.5s6.6-3.5 6.6-3.5l-.1-4.3s-2.8 2.7-9 4.7c-3 .9-7.4 1.8-8.8 1.9s-4.3-.4-4.8.9M45.1 4.8c-.9.7-.3 2 .5 3 .8 1.2 3 4 3 6.5a21 21 0 0 1-1.2 6.8c-1.1 2 1.4 3.4 2.7 2.6 1.5-1 2.2-7.4 1.9-10-.5-4.8-3.2-7-4.1-8-.8-.7-2-1.6-2.8-1M98 89.5s.3 6.8-.8 10.3a51 51 0 0 1-3.4 8.8c-.3.7-.5 1.6.3 2.2s2.1.1 2.7-.7c.7-1 3-4.8 4-9.5 1.4-6.3 1-9.9 1-9.9l-2-.7zm-17-4.2s.3 5.2-1 9.6c-.7 3-2.8 7.1-3.2 8-.4.8-1.3 2.2-.5 3.3 1.3 1.5 3.3-.3 4-1.8.4-1 2.4-4.2 3.5-8.8 1.4-5.2 1-9.5 1-9.5zm-16.7-4.6s-.5 6.7-2 9.8c-2.6 4.7-5.9 7.3-6.3 7.7s-2 1.8-.5 3c1.3.8 2.9 0 3.3-.5s5-3.4 7.2-9.3c1.8-4.8 2-9.4 2-9.4l-1.8-.7zm-9.8-9.2s-3.9 4.6-6.6 6.4a24 24 0 0 1-8.7 3.8c-1.4.1-3.3.3-3 2 .2 1.8 2.8 1.7 4.1 1.7 2.2 0 7.2-2 10.4-4.3 3-2.2 5.9-5.8 5.9-5.8s-1.2-1.5-1.3-2z" style="fill:#70853c"/><circle cx="32.2" cy="55" r="3.1" style="fill:#fe6014"/><circle cx="32.9" cy="74.9" r="3.1" style="fill:#fe6014"/><circle cx="46.4" cy="94.7" r="3.1" style="fill:#fe6014"/><ellipse cx="68.5" cy="103.3" rx="2.9" ry="2.8" style="fill:#fe6014"/><ellipse cx="87" cy="107.8" rx="2.9" ry="2.7" style="fill:#fe6014"/><ellipse cx="103.7" cy="113" rx="2.9" ry="2.7" style="fill:#fe6014"/><path d="M109.1 96c-2.2-1-3.8 2.6-4.8 6.5-1 4-1.9 6.6.6 7.4 3 1 5-3.4 5.8-6.8s.4-6-1.6-7M93 88.8c-3.5-1-4 3.8-4.9 7.6-.8 4-3 7.4.1 8.4 4 1.2 6-3.9 6.7-7 .7-3.4 1.4-8-2-9m-18.1-4.5c-3.6-1-4.1 3.8-5.3 7.8s-1.7 7.4.5 8.2c2.7 1 4.9-2 6-6.1 1.3-4.1 2.6-8.9-1.2-9.9m-24.9 8.4c2.5 2.7 6.4-.7 8.5-3.6 2-2.7 5.5-7.4 2.4-9.7-2.7-2-6 2.2-8 4.8-1.8 2.3-5.3 6-3 8.5m-13.5-19c.6 2.4 6.3 3 10.7.5 3.2-1.8 6.8-4.7 6-8-1-3.4-6.3-.3-9.5 1-3.1 1.3-8.3 2.3-7.2 6.5m16.5-25.5c-.7-2.4-4.5 0-8.7 1.4-3.7 1.3-8.8 1-8.5 5 .2 3.3 8 2 11 .8 3.5-1.3 7.2-3.9 6.2-7.2" style="fill:#2e2e27"/><ellipse cx="31.1" cy="26.9" rx="3.4" ry="3.2" style="fill:#2e2e27" transform="rotate(-60 31.08 26.95)"/></svg>