<svg xml:space="preserve" width="16" height="16" viewBox="0 0 128 128"><path d="M111.7 75 83.9 59.7m-27.8 43.7L29.6 88.3" style="fill:none;stroke:#82aec0;stroke-width:8;stroke-miterlimit:10"/><path d="M43.3 95c3-4.6 7.7-5.8 11.3-4.3C60.1 93.1 61 95 61 95l-10.9 15.8s-4-1.7-6.3-3.8c-2.9-2.7-3.5-7.6-.5-12" style="fill:#f44336"/><path d="M42.1 97s-.4 2.7 1.4 3.6c3 1.4 4.6-1.4 4.6-1.4s2.2-3.6 6-5c5.6-2 7.6 1.8 7.6 1.8s-1.4-4.5-8-5.6c-1.8-.3-5.8 1-7 1.7-3.9 2.3-4.6 5-4.6 5" style="fill:#c62828"/><ellipse cx="54.6" cy="102.2" rx="9.8" ry="7.1" style="fill:#ff7555" transform="rotate(-56.5 54.56 102.19)"/><path d="M53.1 104c.8-1 1.4-1.8 2.2-.7.3.4.6 1.2 1.2 1.3 1.8.4 2.4-2 2.2-3.3-.5-3-4-2.7-5.6-.1-1 1.4-.9 3.2-.5 4.1 0 0 .3-1.1.5-1.3" style="fill:#c62828"/><path d="M17.4 82.8c3-4.5 7.7-5.8 11.3-4.2 5.5 2.3 6.4 4.3 6.4 4.3L24.2 98.7s-4-1.8-6.3-3.9c-2.9-2.6-3.5-7.5-.5-12" style="fill:#f44336"/><ellipse cx="28.7" cy="90" rx="9.8" ry="7.1" style="fill:#c62828" transform="rotate(-56.5 28.66 90.05)"/><path d="M100.4 66.8c3-4.5 7.7-5.8 11.3-4.2 5.6 2.4 6.4 4.3 6.4 4.3-1.4 2.3-11 15.8-11 15.8s-3.8-1.8-6.2-3.9c-2.9-2.6-3.5-7.6-.5-12" style="fill:#f44336"/><path d="M99.3 69s-.5 2.6 1.3 3.4c3 1.5 4.6-1.4 4.6-1.4s2.5-3.8 6.5-5.1c5-1.7 7.2 2 7.2 2s-1.5-3.7-7.6-5.4c-3.9-1-7.4.8-8.3 1.6-3.6 2.8-3.7 4.8-3.7 4.8" style="fill:#c62828"/><ellipse cx="111.7" cy="74.1" rx="9.8" ry="7.1" style="fill:#ff7555" transform="rotate(-56.3 111.65 74.06)"/><path d="M110.2 76c.5-.6 1.3-1.6 2-.6q.5.9 1.4 1c1.9.3 2.4-2 2.2-3.3-.4-3-4-2.6-5.6 0-1 1.4-.9 3.2-.5 4 0 0 .2-.7.5-1" style="fill:#c62828"/><path d="M124 39.9c-3.5-10.2-9.9-11.5-12.4-12.4 0 0 4.5 3.8 6.6 8.5 2.6 6 2.4 13.5-3.3 17.6L39.5 88.9C21.9 93.2 3.3 75.5 3.3 75.5c-.6 4-2 11.6 13 17.2 13.4 5 26.8 3.9 32.4 1L117 61.1c6.7-3.8 9.9-12.9 7-21.2" style="fill:#ddb98c"/><path d="M121.5 36.5c-3.5-10.2-15.3-10.6-22-9A49 49 0 0 0 83.3 38c-2.5 2-6.4 3.8-6.4 3.8L20.2 69s-1.7.7-4.4.8c-2.8 0-11-.4-12.3 4.4-1.1 4.4.7 10.1 13.8 15 13.5 5.2 23.2 4 29 1.2l68.1-32.6c6.8-3.8 10-12.9 7-21.2" style="fill:#424242"/><ellipse cx="37.4" cy="81.3" rx="2" ry="2.7" style="fill:#757575" transform="rotate(-83.6 37.38 81.35)"/><ellipse cx="28.1" cy="75.8" rx="2" ry="2.7" style="fill:#757575" transform="rotate(-83.6 28.1 75.82)"/><ellipse cx="46.9" cy="76.9" rx="2" ry="2.7" style="fill:#757575" transform="rotate(-83.6 46.86 76.9)"/><ellipse cx="37.6" cy="71.4" rx="2" ry="2.7" style="fill:#757575" transform="rotate(-83.6 37.59 71.37)"/><ellipse cx="88.8" cy="56.3" rx="2" ry="2.7" style="fill:#757575" transform="rotate(-83.6 88.82 56.24)"/><ellipse cx="79.5" cy="50.7" rx="2" ry="2.7" style="fill:#757575" transform="rotate(-83.6 79.55 50.72)"/><ellipse cx="98.5" cy="51.9" rx="2" ry="2.7" style="fill:#757575" transform="rotate(-83.6 98.45 51.88)"/><ellipse cx="89.2" cy="46.4" rx="2" ry="2.7" style="fill:#757575" transform="rotate(-83.6 89.18 46.35)"/></svg>