<svg xml:space="preserve" width="16" height="16" viewBox="0 0 128 128"><linearGradient id="a" x1="64" x2="64" y1="116.6" y2="39.5" gradientTransform="matrix(1 0 0 -1 0 128)" gradientUnits="userSpaceOnUse"><stop offset="0" style="stop-color:#26a69a"/><stop offset="1" style="stop-color:#00796b"/></linearGradient><path d="M6.4 10.9h115.3v77.5H6.4z" style="fill:url(#a)"/><linearGradient id="b" x1="64" x2="64" y1="119.5" y2="37.2" gradientTransform="matrix(1 0 0 -1 0 128)" gradientUnits="userSpaceOnUse"><stop offset="0" style="stop-color:#8d6e63"/><stop offset=".8" style="stop-color:#795548"/></linearGradient><path d="M119.3 13.3V86H8.7V13.3zm4.7-4.7H4v82.2h120z" style="fill:url(#b)"/><path d="M98.9 79.9c-1.2-2.3.3-4.6 3-7.5 4.4-4.5 9-15 4.7-25.8 0 0-.9-1.8-.8-1.9H104a3374 3374 0 0 0-80 0l-2.6 2a25 25 0 0 0 4.7 25.7c2.7 2.9 4.3 5.2 3 7.4s-4.8 2.6-4.8 2.6.8 2.2 2.8 3.5c1.9 1 4.2 1.3 5.7 1.4 0 0 6.2 8.5 22.3 8.5H73c16 0 22.2-8.5 22.2-8.5 1.6 0 3.8-.3 5.7-1.4 2-1.3 2.8-3.5 2.8-3.5s-3.6-.3-4.8-2.6" style="fill:#312d2d"/><radialGradient id="c" cx="99.6" cy="45.8" r="23.4" gradientTransform="matrix(1 0 0 .491 -21.06 59.63)" gradientUnits="userSpaceOnUse"><stop offset=".7" style="stop-color:#454140;stop-opacity:0"/><stop offset="1" style="stop-color:#454140"/></radialGradient><path d="M64 95.8v-9.4L92.6 84l2.6 3.2s-6.2 8.5-22.3 8.5z" style="fill:url(#c)"/><radialGradient id="d" cx="76.6" cy="49.3" r="6.9" gradientTransform="rotate(155 84.43 60.42)scale(1 .742)" gradientUnits="userSpaceOnUse"><stop offset=".7" style="stop-color:#454140"/><stop offset="1" style="stop-color:#454140;stop-opacity:0"/></radialGradient><path d="M95.1 83.2c-4.3-6.5 5.2-9 5.2-9-1.6 2-2.4 3.9-1.4 5.6 1.2 2.3 4.8 2.6 4.8 2.6s-5 4.3-8.6.8" style="fill:url(#d)"/><radialGradient id="e" cx="94.5" cy="68.9" r="30.4" gradientTransform="rotate(-94.3 89.88 63.27)scale(1 .833)" gradientUnits="userSpaceOnUse"><stop offset=".7" style="stop-color:#454140;stop-opacity:0"/><stop offset="1" style="stop-color:#454140"/></radialGradient><path d="M106.6 46.7c4.3 10.3-.2 21-4.4 25.5-.6.6-3 3-3.6 4.9 0 0-9.5-13.3-12.3-21.1q-1-2.4-1.2-5-.2-2 .9-3.8a111 111 0 0 1 20.1-1.7z" style="fill:url(#e)"/><radialGradient id="f" cx="44.3" cy="68.9" r="30.4" gradientTransform="rotate(-85.7 107.1 .83)scale(1 -.833)" gradientUnits="userSpaceOnUse"><stop offset=".7" style="stop-color:#454140;stop-opacity:0"/><stop offset="1" style="stop-color:#454140"/></radialGradient><path d="M21.4 46.7c-4.2 10.3.2 21 4.4 25.5.6.6 3 3 3.6 4.9 0 0 9.5-13.3 12.4-21.2q.9-2.3 1.1-4.8.1-2.1-.8-3.9c-1-1.3-2-1-3.5-1-2.8 0-15.5-.7-16.4-.7z" style="fill:url(#f)"/><radialGradient id="g" cx="49.4" cy="45.8" r="23.4" gradientTransform="matrix(-1 0 0 .491 98.88 59.63)" gradientUnits="userSpaceOnUse"><stop offset=".7" style="stop-color:#454140;stop-opacity:0"/><stop offset="1" style="stop-color:#454140"/></radialGradient><path d="M64 95.8v-9.4L35.5 84l-2.6 3.2S39 95.8 55 95.8z" style="fill:url(#g)"/><radialGradient id="h" cx="26.4" cy="49.3" r="6.9" gradientTransform="rotate(205 4.68 51.77)scale(-1 .742)" gradientUnits="userSpaceOnUse"><stop offset=".7" style="stop-color:#454140"/><stop offset="1" style="stop-color:#454140;stop-opacity:0"/></radialGradient><path d="M33 83.2c4.2-6.5-5.3-9-5.3-9q2.7 3 1.4 5.6c-1.2 2.3-4.8 2.6-4.8 2.6s5 4.3 8.6.8" style="fill:url(#h)"/><linearGradient id="i" x1="64" x2="64" y1="25.9" y2="10.9" gradientTransform="matrix(1 0 0 -1 0 128)" gradientUnits="userSpaceOnUse"><stop offset="0" style="stop-color:#e1f5fe"/><stop offset="1" style="stop-color:#81d4fa"/></linearGradient><path d="M114.5 120.8c0-15.5-25.3-23.6-50.4-23.6H64c-25.1 0-50.5 7.3-50.5 23.5v3.3h101z" style="fill:url(#i)"/><path d="M64 92.3h-9v10l9 2.4 9-2.4v-10z" style="fill:#edc391"/><linearGradient id="j" x1="29.1" x2="29.1" y1="29.2" y2="5" gradientTransform="matrix(1 0 0 -1 0 128)" gradientUnits="userSpaceOnUse"><stop offset="0" style="stop-color:#ffa000"/><stop offset=".3" style="stop-color:#ff9300"/><stop offset="1" style="stop-color:#ff7100"/><stop offset="1" style="stop-color:#ff6f00"/></linearGradient><path d="M12 120.8v3.2h32.9l1.3-27C27.5 99.7 12 107.2 12 120.8" style="fill:url(#j)"/><linearGradient id="k" x1="98.9" x2="98.9" y1="29.4" y2="4.8" gradientTransform="matrix(1 0 0 -1 0 128)" gradientUnits="userSpaceOnUse"><stop offset="0" style="stop-color:#ffa000"/><stop offset=".3" style="stop-color:#ff9300"/><stop offset="1" style="stop-color:#ff7100"/><stop offset="1" style="stop-color:#ff6f00"/></linearGradient><path d="m81.8 97 1.3 27H116v-3.2c0-13.6-15.5-21-34.2-23.8" style="fill:url(#k)"/><path d="M54 92.1 64 105l-16.2 6.7L45.4 97zm20 0L64 105l16.2 6.7L82.6 97z" style="fill:#66c0e8"/><path d="M48.9 95s-1.2 2.7-2 6c-1.5 6.5-1.6 15.8-1.6 15.8s-7-2.3-9-8C33.6 102 38 98.3 38 98.3l4.6-2.5c3.7-2 6.3-.8 6.3-.8m30.2 0s1.2 2.7 2 6a85 85 0 0 1 1.7 15.8s6.8-2.3 9-8C94.3 102 90 98.3 90 98.3l-4.6-2.5c-3.8-2-6.3-.8-6.3-.8" style="fill:#af5214"/><path d="M91.1 50.4H36.5c-6 0-10.7 5.2-10.7 11.4s4.8 11.5 10.7 11.5H91c6 0 10.7-5.2 10.7-11.5S97 50.4 91.1 50.4" style="fill:#edc391"/><path d="M63.8 11c-17.4 0-33.5 18.7-33.5 45.5 0 26.6 16.6 39.8 33.5 39.8S97.3 83 97.3 56.5C97.3 29.7 81.2 11 63.8 11" style="fill:#f9ddbd"/><ellipse cx="48" cy="58.8" rx="4.9" ry="5.1" style="fill:#312d2d"/><ellipse cx="79.1" cy="58.8" rx="4.9" ry="5.1" style="fill:#312d2d"/><path d="M55.4 49.8c-1-1.2-3.1-3-7.3-3s-6.3 1.8-7.2 3q-.5 1 0 1.6t1.9.4c1.5-.2 2.5-1.2 5.3-1.2s4.5.9 5.4 1.2q1.3.3 1.9-.4t0-1.6m31 0c-1-1.2-3.1-3-7.3-3s-6.3 1.8-7.2 3q-.5 1 0 1.6t1.9.4c1.5-.2 2.5-1.2 5.3-1.2s4.5.9 5.4 1.2q1.3.3 1.9-.4t0-1.6" style="fill:#454140"/><path d="M67.7 68h-7.8q-1 .5-.7 1.7c.3.7 1.8 2.7 4.6 2.7s4.2-2 4.5-2.7q.5-1.2-.6-1.6" style="fill:#dba689"/><path d="M72.3 76.1a26 26 0 0 1-16.8 0c-1.8-1-3.7.6-3 2.3S59 83.8 64 83.8s10.6-3.8 11.3-5.4-1-3.4-2.9-2.3" style="fill:#444"/><path d="M93.8 53c0-1.3 0-1.4-1.7-1.9a63 63 0 0 0-14-.6C73.5 51 68 52.8 63.8 53c-1.7 0-9-1.9-14-2.3h-1c-5.2-.3-12 .3-13.1.7-1.6.5-1.7.6-1.7 1.8q-.2 2 1 2.5c1.3.4 1.3 2 2.2 6.5.7 4.2 2.6 7.5 10.5 8h1c7 .2 9.5-4.5 10.3-6 1.5-2.9 1-6.8 5-6.8 3.9 0 3.5 3.8 5 6.7.8 1.5 3.2 6.2 10.1 6h1c8-.6 9.9-3.9 10.6-8 .8-4.6.8-6.1 2.1-6.6q1.3-.6 1-2.5zM53.3 68.1q-2 .8-4.6.8c-3.6 0-7.6-1.2-9-3.8-2-3.6-2.6-11 0-12.5 1.2-.6 5-1 9-1 4.1.3 8.4 1.1 10 3.1 2.5 3.4-1.6 11.5-5.4 13.4zM88.2 65c-1.4 2.5-5.5 3.8-9 3.8q-2.8 0-4.6-.8c-3.8-1.8-8-10-5.4-13.3 1.5-2 5.8-3 10-3.1a22 22 0 0 1 8.9.9c2.6 1.5 2.1 8.8 0 12.5z" style="fill:#212121;stroke:#212121;stroke-width:.5499;stroke-miterlimit:10"/><linearGradient id="l" x1="79.6" x2="76.9" y1="22.7" y2="11.7" gradientTransform="matrix(1 0 0 -1 0 128)" gradientUnits="userSpaceOnUse"><stop offset="0" style="stop-color:#212121;stop-opacity:.2"/><stop offset="1" style="stop-color:#212121;stop-opacity:.6"/></linearGradient><path d="m101.7 121.6.5-2.2 2-7.6-7-2-34.8-10h-.2a6 6 0 0 0-7.5 4.2L49 124h52z" style="opacity:.67;fill:url(#l)"/><path d="M105.8 111.9q.3-1.7-1.3-2.4l-38.7-11c-3.3-1-6.7.9-7.7 4.2L52 124h50.3z" style="fill:#424242"/><linearGradient id="m" x1="81.8" x2="79.9" y1="17.1" y2="10.5" gradientTransform="matrix(1 0 0 -1 0 128)" gradientUnits="userSpaceOnUse"><stop offset="0" style="stop-color:#ef5350"/><stop offset="1" style="stop-color:#e53935"/></linearGradient><path d="M105 120.3c.4-1.2-.3-2.5-1.5-2.8l-41.6-12c-4.5-1.2-5.3 2.4-6.6 6.8L52 124h52z" style="fill:url(#m)"/><linearGradient id="n" x1="58.4" x2="60.3" y1="19.1" y2="25" gradientTransform="matrix(1 0 0 -1 0 128)" gradientUnits="userSpaceOnUse"><stop offset="0" style="stop-color:#212121"/><stop offset="1" style="stop-color:#424242"/></linearGradient><path d="M63.3 98.2c-2.4.3-4.5 2-5.2 4.5L52 124h3.9z" style="fill:url(#n)"/><g style="opacity:.2"><path d="M64.3 101.6h.6l37.3 10.7-.3 1.1c-11.8-3.3-34.3-9.6-39-11.1q.4-.7 1.4-.7m0-3.4c-4.5 0-6.7 5.6-3 7 4 1.5 42.8 12.3 42.8 12.3l1.6-5.5c.3-1-.2-2.2-1-2.4l-39-11.2z" style="fill:#424242"/></g><linearGradient id="o" x1="-117.4" x2="-74" y1="-972.3" y2="-972.3" gradientTransform="rotate(16 -4393.16 122.7)scale(1 1.157)" gradientUnits="userSpaceOnUse"><stop offset="0" style="stop-color:#bdbdbd"/><stop offset="1" style="stop-color:#f8f8f7"/></linearGradient><path d="m103.4 112.1-39.8-11.4c-1.1-.3-2.3.5-2.7 1.7v.2c-.4 1.3.2 2.6 1.3 2.9l39.8 11.4s-.3-.8 0-2.3a7 7 0 0 1 1.4-2.5" style="fill:url(#o)"/><path d="M104 25.1c-2.4-3.7-7.8-8.6-12.8-9-.7-4.7-5.8-8.7-10.7-10.2-13.2-4.2-21.8.5-26.4 3-1 .5-7.2 4-11.5 1.5-2.8-1.5-2.7-5.7-2.7-5.7S31.4 7.9 34.3 17a10 10 0 0 0-8.8 5.4c-2.4 5-1.6 9-.9 11A11 11 0 0 0 21.1 46c1.6 4.4 8.2 6.5 8.2 6.5-.5 8 1 13 1.8 15 .1.3.6.2.7-.1 1-4 4.4-17.8 4-20.2 0 0 11.4-2.3 22.2-10.3a32 32 0 0 1 7.1-4c13.6-5.4 16.5 3.8 16.5 3.8S91 35 93.8 48c1 5 1.8 12.8 2.4 18.3 0 .3.6.4.7 0 1-2.1 2.9-6.4 3.3-10.8.2-1.6 4.4-3.6 6.2-10.3 2.4-8.9-.6-17.4-2.3-20" style="fill:#312d2d"/><radialGradient id="p" cx="82" cy="84.9" r="35.6" gradientTransform="rotate(72 9.13 -9.99)scale(1 -.742)" gradientUnits="userSpaceOnUse"><stop offset=".7" style="stop-color:#454140;stop-opacity:0"/><stop offset="1" style="stop-color:#454140"/></radialGradient><path d="M100.2 55.5c.2-1.5 4.4-3.6 6.2-10.3l.5-2.1a28 28 0 0 0-2.8-18 22 22 0 0 0-11.7-8.8l-1.2-.1s.3 2.1-.5 3.8a5 5 0 0 1-3.4 2.8c12 12 11 22 13 32.7" style="fill:url(#p)"/><radialGradient id="q" cx="47.3" cy="123.8" r="9.3" gradientTransform="rotate(208.2 -17.9 63.62)scale(-1 1.186)" gradientUnits="userSpaceOnUse"><stop offset=".6" style="stop-color:#454140"/><stop offset="1" style="stop-color:#454140;stop-opacity:0"/></radialGradient><path d="m57 7.4-3 1.5c-1 .5-7.1 4-11.5 1.5C40 8.9 40 4.8 40 4.7c-1.3 1.6-5 12.8 5.9 13.5 4.7.3 7.6-3.8 9.3-7.2z" style="fill:url(#q)"/><radialGradient id="r" cx="159.1" cy="62.9" r="28.7" gradientTransform="matrix(-.938 -.394 -.218 .528 231.04 50.68)" gradientUnits="userSpaceOnUse"><stop offset=".7" style="stop-color:#454140;stop-opacity:0"/><stop offset="1" style="stop-color:#454140"/></radialGradient><path d="M79.2 5.5c7.3 2 10.8 5.7 12 10.6.4 1.5.8 15.1-25.2-.4-9.7-5.7-7-9.3-5.9-9.7a31 31 0 0 1 19-.5" style="fill:url(#r)"/><radialGradient id="s" cx="43.5" cy="115.3" r="8.6" gradientTransform="matrix(1 0 0 -1.223 0 153.74)" gradientUnits="userSpaceOnUse"><stop offset=".7" style="stop-color:#454140;stop-opacity:0"/><stop offset="1" style="stop-color:#454140"/></radialGradient><path d="M39.8 4.7c-1 .4-8.3 3.8-5.5 12.3l7.7 1.2c-6.8-7-2-13.5-2-13.5" style="fill:url(#s)"/><radialGradient id="t" cx="42.3" cy="100.1" r="16.1" gradientTransform="rotate(-165 50.18 -32.8)scale(1 -.936)" gradientUnits="userSpaceOnUse"><stop offset=".7" style="stop-color:#454140;stop-opacity:0"/><stop offset="1" style="stop-color:#454140"/></radialGradient><path d="m39 17.7-4.7-.7H33a10 10 0 0 0-7.7 5.4 14 14 0 0 0-1.2 9.4l.4 1.6s2.4-2.3 8-2.4z" style="fill:url(#t)"/><radialGradient id="u" cx="38.5" cy="84.6" r="16.9" gradientTransform="rotate(187.8 -2.58 78.5)scale(-1 1.405)" gradientUnits="userSpaceOnUse"><stop offset=".6" style="stop-color:#454140;stop-opacity:0"/><stop offset="1" style="stop-color:#454140"/></radialGradient><path d="M24.4 33.6a11 11 0 0 0-3.2 12.6c1.7 4.4 8 6.3 8 6.3s1.3.4 2 .4l1.4-22c-3 0-5.9 1-7.8 2.3z" style="fill:url(#u)"/></svg>