<svg xml:space="preserve" width="16" height="16" viewBox="0 0 128 128"><path d="M116 4H12a8 8 0 0 0-8 8v104a8 8 0 0 0 8 8h104a8 8 0 0 0 8-8V12a8 8 0 0 0-8-8" style="fill:#bdbdbd"/><path d="M109.7 4H11.5A7.6 7.6 0 0 0 4 11.5v97.9c0 4.1 3.3 7.5 7.5 7.5h98.1c4.1 0 7.5-3.3 7.5-7.5V11.5c0-4-3.1-7.4-7.2-7.5z" style="fill:#e0e0e0"/><path d="M39.7 12.9c0-2.3-1.6-3-10.8-2.7-7.7.3-11.5 1.2-13.8 4-1.9 2.3-2.3 5.6-2.6 8.4-.2 2.2-2.2 14.9 3.5 11.2q1-.6 1.6-1.8c1.2-2.1 1.9-3.5 3.3-5.6 5.3-8.6 18.8-10.5 18.8-13.5" style="fill:#fff"/><path d="M90.1 56.8h-6.3c-7.5 0-13.8 4-15.9 12q3.8 1 6.8 3.5c1.4-.6 5.4-1.6 8.8-.3 1.3.5 3.6 1.5 5 4.4 1.1 2.4 1.9 7 .4 11.4-1 3.1.7 5 .1 7-.6 2.4-6.7 3.6-11.6-1.1-1 1.5-2 3.3-3.5 4.4 0 0 3.2 4.6 8 4.6h19.9a7 7 0 0 0 7-7V73.5c0-11.3-9.5-16.6-18.7-16.6M105.9 46c-2-4-2-7.6-3-11.3a15.2 15.2 0 0 0-29.8 0c-1 3.7-1 7.3-3 11.2-1.6 3.4-3.3 3.2-3.3 5s2.5 3.1 5.7 3.5c2.6.4 5.4.1 7.5-.7a16 16 0 0 1-5.7-8.2c-.2-1.2-.5-2.2.1-2.3.8-.2.6 1.3 2.3 3.5 3.4 4.5 6.3 6 11.2 6 5 0 7.9-1.5 11.3-6 1.7-2.2 1.5-3.5 2.3-3.5s.4 1.3 0 2.4c-.4 1.8-2 5.6-5.5 8.1 2.1.8 4.9 1 7.5.7 3.1-.4 5.7-1.8 5.7-3.5s-1.7-1.6-3.3-5M53.7 98.2c-1.5-1.1-2.6-3-3.6-4.5-4.9 4.7-11 3.5-11.6 1.1-.5-2 1.2-3.9.1-7a16 16 0 0 1 .5-11.4 9 9 0 0 1 5-4.4c3.3-1.3 7.3-.3 8.7.4q3-2.6 6.8-3.6c-2-8-8.4-12-15.9-12h-6.3c-9.2 0-18.6 5.3-18.6 16.6v22.4a7 7 0 0 0 7 7h19.8c4.8 0 8-4.6 8-4.6M57.4 46c-2-4-2-7.6-3-11.3a15.2 15.2 0 0 0-29.7 0c-1.1 3.7-1 7.3-3 11.2-1.7 3.4-3.4 3.2-3.4 5s2.6 3.1 5.8 3.5c2.5.4 5.3.1 7.4-.7a16 16 0 0 1-5.6-8c-.2-1.2-.6-2.6.1-2.6.9 0 .6 1.4 2.3 3.6 3.5 4.5 6.3 6 11.3 6s7.8-1.5 11.2-6c1.7-2.2 1.5-3.7 2.3-3.6s.4 1.2 0 2.4a15 15 0 0 1-5.6 8.2c2.1.8 5 1 7.5.7 3.2-.4 5.8-1.8 5.8-3.6S59 49.3 57.4 46m-5.7 64.8c-1 0-1.8-1-1.5-2 1.3-5 7-9 13.6-9 6.7 0 12.3 4 13.7 9 .2 1-.5 2-1.5 2zM85 87.5c1.8-5.7 1-10.1-3.4-11.6-3.8-1.2-7 1.5-7.6 2.3a12.2 12.2 0 0 0-20.4 0c-.6-.8-3.9-3.5-7.6-2.3-4.5 1.5-5.2 6-3.5 11.6q.8 2.3-.2 5-.2.9.7.9c6.2-1.8 6.2-7.6 6.4-9.9.3-2.7 1.8-2.8 2.8-2.6q-.9 2.6-.6 5.6c.8 6 6 10.7 12 10.7A12.3 12.3 0 0 0 75.5 81c1-.2 2.3-.1 2.7 2.6.3 2.2.3 7.8 6 9.7a1 1 0 0 0 1-1 7 7 0 0 1 0-4.7"/></svg>