<svg xmlns:xlink="http://www.w3.org/1999/xlink" xml:space="preserve" width="16" height="16" viewBox="0 0 128 128"><path d="M111 59.1s2.4 14.5 2.4 17.4c0 17.6-23.3 24.6-48.7 24.7V45.8c19.3.1 30.1 4.6 37.3 8.3zm-94 0s-2.4 14.5-2.4 17.4c0 17.6 23.3 24.6 48.7 24.7V45.8A78 78 0 0 0 26 54.1z" style="fill:#ef5350"/><linearGradient id="a" x1="85.7" x2="85.7" y1="83.4" y2="30.7" gradientTransform="matrix(1 0 0 -1 0 128)" gradientUnits="userSpaceOnUse"><stop offset=".3" style="stop-color:#b71c1c"/><stop offset="1" style="stop-color:#d32f2f"/></linearGradient><path d="M100.3 48.3c2.6 2.9 7.1 6.8 7.8 10.6 1.2 6 1.2 15.1 1.2 17 0 8.8-7.3 14.6-16.8 18.6-14.3 6.1-30.4-4-30.4-19V61.8C62 42.8 86.8 33.7 100 48z" style="fill:url(#a)"/><linearGradient id="b" x1="42.9" x2="42.9" y1="83.4" y2="30.7" gradientTransform="matrix(1 0 0 -1 0 128)" gradientUnits="userSpaceOnUse"><stop offset=".3" style="stop-color:#b71c1c"/><stop offset="1" style="stop-color:#d32f2f"/></linearGradient><path d="M28 48.3c-2.6 2.9-6.5 6.8-7.2 10.6-1.1 6-1.3 14.7-1.3 16.5 0 8.9 6.9 15.1 16.4 19.2 14.3 6 30.3-4.2 30.3-19.2V62c0-19.1-24.6-28.2-37.9-13.9z" style="fill:url(#b)"/><linearGradient id="c" x1="12" x2="116" y1="18" y2="18" gradientTransform="matrix(1 0 0 -1 0 128)" gradientUnits="userSpaceOnUse"><stop offset="0" style="stop-color:#f44336"/><stop offset=".4" style="stop-color:#e73b32"/><stop offset="1" style="stop-color:#c62828"/></linearGradient><path d="M64.1 96c-25.6 0-52 7.1-52 25v3h104v-3c0-16.8-26.1-25-51.9-25" style="fill:url(#c)"/><path d="M64 90.1h-9v10c0 4.5 3.6 8.2 8.2 8.2h1.6c4.6 0 8.3-3.7 8.3-8.2V90z" style="fill:#3c2b24"/><linearGradient id="d" x1="64" x2="64" y1="44" y2=".1" gradientTransform="matrix(1 0 0 -1 0 128)" gradientUnits="userSpaceOnUse"><stop offset="0" style="stop-color:#ffeb3b"/><stop offset=".6" style="stop-color:#ffdd12"/><stop offset="1" style="stop-color:#ffd600"/></linearGradient><path d="M94 124v-6c0-1.4-1.1-2.6-2.5-2.6H66v-5l13.4-6.2c3-1.4 5-4.2 5.5-7.6l1.7-12-15.7 8.8c-4 2.4-6.7 6.7-7.2 11.5h-.2c-.5-4.8-3.1-9-7.2-11.5L41.4 84l1.2 12.3a10 10 0 0 0 5.6 8l13.2 6.1v5h-25A2.5 2.5 0 0 0 34 118v6.1z" style="fill:url(#d)"/><path d="M91.5 50.4H36.8c-5.8 0-10.7 5.2-10.7 11.4S31 73.3 36.8 73.3h54.7c5.9 0 10.7-5.2 10.7-11.5s-4.8-11.4-10.7-11.4" style="fill:#3c2b24"/><path d="M64.2 16c-17.2 0-33 12.8-33 40a40 40 0 0 0 25.1 38.8 24 24 0 0 0 8 1.5q3.5 0 7.8-1.5A40 40 0 0 0 97.4 56c0-27.2-16-40-33.2-40" style="fill:#70534a"/><path d="M72.6 76.1a26 26 0 0 1-16.8 0c-1.9-1-3.7.6-3 2.3s6.5 5.4 11.4 5.4 10.6-3.8 11.3-5.4-1-3.4-3-2.3" style="fill:#1a1717"/><path d="M68 68h-7.7q-1 .5-.7 1.7a5 5 0 0 0 4.6 2.7 5 5 0 0 0 4.5-2.7q.4-1.2-.7-1.6" style="fill:#33251f"/><path d="M64.3 13.2C18.7 13.5 28 55.4 28 55.4l3 7.7q.4.4.7 0A309 309 0 0 1 38 38.5a6 6 0 0 1 6.8-3.8 111 111 0 0 0 19.4 1.8h.1c7.8 0 15-1 19.4-1.8a6 6 0 0 1 6.8 3.8c1.7 4.7 5.2 20 6.2 24.4 0 .4.6.4.7 0l3-7.6s9.3-42-36.1-42.2" style="fill:#232020"/><radialGradient id="e" cx="64.2" cy="78.9" r="37.1" gradientTransform="matrix(1 0 0 -1.128 0 138.1)" gradientUnits="userSpaceOnUse"><stop offset=".8" style="stop-color:#444140;stop-opacity:0"/><stop offset="1" style="stop-color:#444140"/></radialGradient><path d="M100.4 55.4s9.3-42-36.1-42.2l-6 .4h-.4c-38.2 4.9-29.8 41.8-29.8 41.8l3 7.7q.4.4.7 0c1-4.5 4.4-19.8 6.2-24.5a6 6 0 0 1 6.8-3.8 111 111 0 0 0 19.4 1.8h.1c7.8 0 15-1 19.4-1.8a6 6 0 0 1 6.8 3.8 352 352 0 0 1 6.2 24.5c0 .3.6.4.7 0z" style="fill:url(#e)"/><ellipse cx="47.7" cy="58.8" rx="4.9" ry="5.1" style="fill:#1a1717"/><ellipse cx="80.6" cy="58.8" rx="4.9" ry="5.1" style="fill:#1a1717"/><path d="M40 50.7c3.2-4.5 10.7-4.6 14.5-.8.6.7 1.3 1.5.8 2.5q-1 1.4-2.6.5a13 13 0 0 0-7.5-.9L42 53.2c-1.4.5-2.9-1-2-2.4m46.4 2.3q-3.3-1.6-7-1.2a13 13 0 0 0-3.2.8c-.9.3-1.8.9-2.6.3-2.5-1.7 1.9-4.4 3.2-5 2.7-1.2 6-1 8.7.3q1.7.9 2.8 2.4c.8 1.3-.4 3-2 2.4" style="fill:#1a1717"/><radialGradient id="f" cx="64" cy="96.3" r="34.6" gradientTransform="matrix(1 0 0 -1 0 128)" gradientUnits="userSpaceOnUse"><stop offset="0" style="stop-color:#f44336"/><stop offset=".3" style="stop-color:#eb3e33"/><stop offset=".8" style="stop-color:#d3302c"/><stop offset="1" style="stop-color:#c62828"/></radialGradient><path d="M64.4 8C17.6 8 21.2 55.4 21.2 55.4s12.2-11 43.5-11 42 10 42 10S111.3 8 64.5 8" style="fill:url(#f)"/><defs><path id="g" d="M64.4 8C17.6 8 21.2 55.4 21.2 55.4s12.2-11 43.5-11 42 10 42 10S111.3 8 64.5 8"/></defs><clipPath id="h"><use xlink:href="#g" style="overflow:visible"/></clipPath><path d="m47.1 10.4 7-2.4v23.8c-1.4-10.3-3.5-17.7-7-21.4" style="clip-path:url(#h);fill:#c62828"/><defs><path id="i" d="M64.4 8C17.6 8 21.2 55.4 21.2 55.4s12.2-11 43.5-11 42 10 42 10S111.3 8 64.5 8"/></defs><clipPath id="j"><use xlink:href="#i" style="overflow:visible"/></clipPath><path d="m81.7 10.4-7-2.4v23.8c1.5-10.3 3.5-17.7 7-21.4" style="clip-path:url(#j);fill:#c62828"/><path d="M69.6 43H59a5 5 0 0 1-5-5.2V9.1a5 5 0 0 1 5-5h10.6a5 5 0 0 1 5.1 5v28.7a5 5 0 0 1-5 5.1" style="fill:#e53935"/><linearGradient id="k" x1="46.5" x2="81.5" y1="102.9" y2="102.9" gradientTransform="matrix(1 0 0 -1 0 128)" gradientUnits="userSpaceOnUse"><stop offset="0" style="stop-color:#ffee58"/><stop offset=".4" style="stop-color:#fee84f"/><stop offset="1" style="stop-color:#fdd937"/><stop offset="1" style="stop-color:#fdd835"/></linearGradient><path d="M79.8 25.5c-3.9-6.6 1-9.5 1-9.5l-4.1-5.3s-3.3 1-6.7.5c-3.3-.5-5.8-3.2-6-3.4-.2.2-2.7 3-6 3.4-3.4.5-6.7-.5-6.7-.5l-4 5.3s4.8 2.9 1 9.5-1.5 13.8 9.3 15.1c2.9.3 5.7 1.5 5.7 1.5h.2v.4l.5-.2.5.2v-.3h.2s2.9-1.3 5.7-1.6c10.8-1.3 13.2-8.4 9.4-15" style="fill:url(#k)"/><ellipse cx="64" cy="25.6" rx="12.5" ry="11.8" style="fill:#6d4c41"/><path d="M62.8 19.1q-.8-.8-.7-2-.6.8-.6 1.5c-.2 1.9 2 2.5 2 2.5q.2-.2 0-.8c-.2-.7.5-1.1.5-1.1s-.3.5 0 .8l.6.5q.2.4-.1.6c1 0 1.8-1 2-1.9q.3-1.5-.5-2.8c0 .7-.8 1.3-1.5 1.3.2-.3.6-1 .3-1.8s-1.5-1.3-1.5-1.3.4.4.4 1.1-1.8 1.7-.9 3.4m6.5 13.6-10-9.7-1.7 1.3 10 9.7.6.2.7-.2q.5-.4.5-.9zM60.2 22l-.6-.2s.4-.7.8-.8c.3 0 .2-.5 0-.6-.8-.2-2.2-.2-3.4.9L53 25a3 3 0 0 0 1.2 1.7c.6.5 1.9.8 1.9.8q.9 0 1.1-.7-.1-.3.2-.8l3.2-3q.3-.5-.5-1.1m-1.4 10.8 10-9.7 1.7 1.3-10 9.7-.6.2-.7-.2q-.5-.4-.5-.9zM67.8 22l.6-.2s-.4-.7-.8-.8c-.3 0-.2-.5 0-.6a4 4 0 0 1 3.5.9l3.8 3.8a3 3 0 0 1-1.2 1.7l-1.9.8q-.8 0-1.1-.7.1-.3-.2-.8l-3.2-3q-.3-.5.5-1.1" style="fill:#ffeb3b"/><path d="M64.1 38.3h-.6a71 71 0 0 0-35.2 7.3c-10 5.8-11.2 13-11.3 13.5l3.5 2s2.4-4.9 5.6-7c7.6-5.1 18-8.2 37.4-8.3h.7zm-.1 0h.7a70 70 0 0 1 35.1 7.3c10 5.8 11.2 13 11.3 13.5l-2.6 2s-3.3-4.9-6.4-7c-7.6-5.1-18-8.2-37.4-8.3H64z" style="fill:#ef5350"/></svg>