<svg xml:space="preserve" width="16" height="16" viewBox="0 0 128 128"><path d="M64 28c19.8 0 36 16.2 36 36s-16.2 36-36 36-36-16.2-36-36 16.2-36 36-36m0-24a60 60 0 1 0 .1 120.1A60 60 0 0 0 64 4" style="fill:#f44336"/><path d="M64 4A60 60 0 0 0 9.8 38.3 56 56 0 1 1 4 63.5v.5A60 60 0 1 0 64 4m1.6 22.7c-15 0-28 8.8-34 21.5A35.2 35.2 0 1 1 28 64v.3a37.6 37.6 0 1 0 37.6-37.6" style="fill:#c33"/><path d="M24 29.7c4.5-7.1 14.1-13 24.1-14.8q3.9-.8 7.1.2c1.6.6 2.9 2.1 2 3.8-.7 1.4-2.6 2-4.1 2.5-9.3 3-17.8 9.5-23 17.4-2 3-5 11.3-8.7 9.2-3.9-2.3-3.1-9.5 2.6-18.3" style="opacity:.2;fill:#fff"/></svg>