<svg xml:space="preserve" width="16" height="16" viewBox="0 0 128 128"><path d="M67.8 93.2c-17.1 0-30.9-6.7-30.9-23 0-16.1 13.7-22.5 30.9-22.5H94V17H67.8c-30 0-55.2 15-61.6 40.5H4.7v13c0 33.2 28.2 53.5 63 53.5h26.4V93.2z" style="fill:#c62828"/><path d="M94 93.2h29.3V124H94zM94 17h29.3v30.8H94z" style="fill:#82aec0"/><path d="M67.8 80.3c-17.1 0-30.9-6.8-30.9-23s13.7-22.5 30.9-22.5H94V4H67.8C32.9 4 4.7 24.3 4.7 57.5s28.2 53.5 63 53.5H94V80.3z" style="fill:#f44336"/><path d="M94 80.3h29.3v30.8H94zM94 4h29.3v30.8H94z" style="fill:#e0e0e0"/></svg>