<svg xml:space="preserve" width="16" height="16" viewBox="0 0 128 128"><path d="m16 63.6 8.5-4s-2-3.3-2.8-5.2-2-6.2-4.3-6.2-3.4 5.2-3.2 8.4 1.9 7 1.9 7" style="fill:#ffeac9"/><path d="M108.1 56.7s2.9-.8 5.7-.3 7.2 2.2 8.1 1.9c1-.4 1.3-2 .4-2.8s-14.5-2-14.5-2zm.5 14.7 1.8 3.6s4.1 26.4 4.8 26.4 2.5 0 2.8-1.6a40 40 0 0 0-3.7-23.8s2 .5 3.7 1.3c2 1 4.8 2.6 5.5 2.5s-.1-3.4-.6-4c-.4-.8-14.3-4.4-14.3-4.4M94.5 89l.6 8 5 14.4h1.6c2 .1 1.2-5 .4-9.5-.9-4.5-4.1-12-4.1-12zm-14.6 12.5-4.1.7-2.7 17.7s1.5.8 2.5.2 2.4-3.7 3-8.7z" style="fill:#543731"/><path d="M69.8 26.6s-11-1.8-18.2 1.7C43.7 32 38.3 40.5 32.5 47.7c-5.3 6.6-10.2 11-13 11.7-2.9.8-8.7 1.7-8.7 1.7l-1.5 20s-.2 4.4 1.7 5.6c1.9 1 5.8 3.1 7.1 3.1 1.4 0 5.7.6 5.7.6s.2 2.4 4 4c3.7 1.4 12 3.1 15.9 5.4s14.6 9.2 17.6 11.8 10.8 9.2 13 8.5c1.1-.4 2.2-16.7 3-17.1s8.5 4.3 13.5 6 9.4 3 10 2.4c.8-.7-.3-6.5-1.6-10.3-1.3-3.7-3.8-8.9-2.8-10s17.6 11.5 19.2 10.3c.8-.6.5-10.4-.7-16.8-1.5-7.1-4-10-3.5-10.9.4-.7 4.8.4 7.3 1.6 1.9 1 4.3 2.7 4.7 2.2.6-.8-3.4-8.6-6-12.4-4-5.6-9-9.4-9-10s3.4-.6 6.6-.2c3.4.4 7.4 2 7.7 1.6.3-.6-1.5-4.4-5.6-8.5-4.2-4.1-13.4-7.7-13.4-7.7l-5.2-16.5s1-2.5.4-4.5c-.8-2.2-2.5-2.7-2.7-3.2-.1-.5 4.2-4.3.4-7.5s-14.8 4.3-19 8.2c-4 4-7.8 9.8-7.8 9.8" style="fill:#865b52"/><path d="M90.5 27.1s6.1-4.1 14.5-5.8c9.2-1.8 14.3-1.2 16.4-1.2 2.3 0 2.8 1.1 1.6 4.3s-3.3 9.7-6.7 14.9c-3.7 5.6-7 9.2-12.1 11.6C99 53.3 88 56 87.4 52.8c-.5-2 1.6-2.4 5.4-5 4-3 7.5-6.6 6.1-9.2s-7-.9-12.1 2.6c-5 3.3-8.6 8.7-11.6 5.7s1.9-8.7 3.6-10.7 6.4-5.7 6.4-5.7-2.8-.9-4.8-1.2l-6.8-1.7s6-1.2 10.1-1c4 0 6.8.5 6.8.5" style="fill:#543731"/><path d="M38.4 89.4s-2.2-6.4-1.7-12.3 2-10.2 4.8-9.9c2.6.3 4 6 4.7 8.6q1.1 3.8 1.8 4.6l3 3-6.1 5z" style="fill:#ffeaca"/><path d="M51.8 83.2c1 1.2.3 3.2-2 5A30 30 0 0 1 36 92.7c-5.4.8-9.2.3-11 0-2.2-.5-3.1-1.2-3.1-1.2s-3.7-.5-6.9-2c-2.9-1.2-6-3.6-5.7-4.3.4-1.4 5.6 2.4 9 3.1s8 .9 12.7.7 9.6-1.4 12.7-2.9c4.4-2 6.5-4.8 8-2.9" style="fill:#503430"/><path d="M10.4 60.3c-2.9-.5-5.9 5-6 10.4 0 5.6 1.3 8.4 2 10.3s2.2 5 4.9 5c2.5 0 10.4-5 10.6-11.2.3-7-5.4-13.5-11.5-14.5" style="fill:#ffd3b0"/><ellipse cx="13.5" cy="72.1" rx="2.2" ry="4.2" style="fill:#47302d"/><path d="M8 70.4c-.2 2.3-1.1 4.4-2.1 4.3S4.4 72.3 4.4 70c.1-2.2.7-3.9 1.8-3.8s1.8 2 1.7 4.2" style="fill:#47302d"/><ellipse cx="61.8" cy="56.8" rx="6.3" ry="4.3" style="fill:#090a0b" transform="rotate(-81.4 61.8 56.8)"/><ellipse cx="60" cy="54.2" rx="2.9" ry="1.7" style="fill:#fffcff" transform="rotate(-66.7 59.98 54.17)"/><path d="M71.9 97.8c.9 0 2-14.3-3.9-11.7-6.7 3 3 11.7 3.9 11.7m13.7-13.4c.5-.8-5.2-11.5-8.3-7.2-4 5.5 7.7 8.1 8.3 7.2m7.8-15.6c.2-.5-7.7-10.3-10-4.2-1.7 4.6 9.6 5 10 4.2m8.9 15.4c.3-.5-5.4-11.2-8.6-6.4-3 4.5 8.3 7 8.6 6.4M87 100c.7-.5-2.7-11-6.5-7.8s5.7 8.3 6.5 7.8" style="fill:#b79277"/></svg>