<svg xml:space="preserve" width="16" height="16" viewBox="0 0 128 128"><linearGradient id="a" x1="48.4" x2="65" y1="56.7" y2="78.8" gradientTransform="rotate(171 58.25 .45)scale(1 -1)" gradientUnits="userSpaceOnUse"><stop offset="0" style="stop-color:#cca47a"/><stop offset=".4" style="stop-color:#e0bb95"/></linearGradient><path d="M72 53s-3.6 12-5 15.3l-4.4 11a3.6 3.6 0 0 0 1.4 4.5c1.6 1 4.1.2 5-1.5l12.4-26.5-1-3.4z" style="fill:url(#a)"/><linearGradient id="b" x1="66.9" x2="70.3" y1="77.1" y2="71.5" gradientUnits="userSpaceOnUse"><stop offset="0" style="stop-color:#cca47a"/><stop offset="1" style="stop-color:#e0bb95;stop-opacity:0"/></linearGradient><path d="m66.4 69.8-1.8 4.5L66 77l4 3 3.6-7.7z" style="fill:url(#b)"/><path d="M105.6 74.6v48h-5.7l-7.9-38q0-.4-.4-.4t-.5.4l-7.8 38.2h-5.7v-48z" style="fill:#7c7c7c"/><path d="M102.6 124h4.5c.8 0 1.4-1 1.1-1.8a6 6 0 0 0-5.6-4.3 6 6 0 0 0-5.6 4.5q-.3 1.4 1.2 1.6zm-22 0H76c-.8 0-1.4-1-1.2-1.8a6 6 0 0 1 5.7-4.3 6 6 0 0 1 5.6 4.5q.2 1.4-1.2 1.6z" style="fill:#424242"/><linearGradient id="c" x1="2029.7" x2="2010.3" y1="53.5" y2="86.6" gradientTransform="matrix(-1 0 0 1 2133.46 0)" gradientUnits="userSpaceOnUse"><stop offset="0" style="stop-color:#cca47a"/><stop offset=".4" style="stop-color:#e0bb95"/></linearGradient><path d="m100.1 54.1 9.7-.6 6 13.3L122 76c1.8 2 2.3 2.6 3 5.2.8 2.8.4 4.4 0 5-.3.7-2.2 2.5-3.4 1.4s-1.1-5.2-2.3-5c-.6.2.2 1.5.3 2.7s-.9 1.4-1.5 1c-.4-.1-1.9-2.7-1.9-2.7l-.6-4.2-15.2-21.2z" style="fill:url(#c)"/><linearGradient id="d" x1="2041.9" x2="2041.9" y1="43.8" y2="78" gradientTransform="matrix(-1 0 0 1 2133.46 0)" gradientUnits="userSpaceOnUse"><stop offset=".4" style="stop-color:#f78c1f"/><stop offset=".7" style="stop-color:#f47f12"/><stop offset="1" style="stop-color:#ef6c00"/></linearGradient><path d="M81 44.9c2.4-.7 6.6-1 10.6-1 4-.1 8.2.3 10.6 1 7.6 2 9.4 5.5 11.7 11.6l-8.3 3.2V78h-28V59.7l-8.4-3.2c2.3-6 4.2-9.6 11.7-11.6" style="fill:url(#d)"/><path d="M106.6 37c-.5-1 .2-2 1.3-3.2a11 11 0 0 0 2-11.1l-.3-.9h-.8a1356 1356 0 0 0-34.5 0l-1.2.9c-1.9 4.6.2 9.1 2 11C76.3 35 77 36 76.4 37s-2 1.1-2 1.1.3 1 1.2 1.5q1.3.7 2.5.6s2.6 3.7 9.6 3.7h7.7c7 0 9.6-3.7 9.6-3.7q1.2 0 2.5-.6c.9-.5 1.2-1.5 1.2-1.5s-1.6-.1-2-1" style="fill:#ab872f"/><radialGradient id="e" cx="80.4" cy="38" r="10.1" gradientTransform="matrix(1 0 0 -.491 17.45 56.67)" gradientUnits="userSpaceOnUse"><stop offset=".7" style="stop-color:#bfa055;stop-opacity:0"/><stop offset="1" style="stop-color:#bfa055"/></radialGradient><path d="M91.5 43.9v-4l12.4-1 1.1 1.3s-2.7 3.7-9.6 3.7z" style="fill:url(#e)"/><radialGradient id="f" cx="70.4" cy="36.5" r="3" gradientTransform="rotate(155 82.04 8.87)scale(1 -.742)" gradientUnits="userSpaceOnUse"><stop offset=".7" style="stop-color:#bfa055"/><stop offset="1" style="stop-color:#bfa055;stop-opacity:0"/></radialGradient><path d="M105 38.4c-1.9-2.8 2.2-3.8 2.2-3.8q-1.1 1.3-.6 2.4c.5 1 2 1 2 1s-2 2-3.6.4" style="fill:url(#f)"/><radialGradient id="g" cx="78.2" cy="28" r="13.1" gradientTransform="rotate(85.7 8.43 121.73)scale(-1 .833)" gradientUnits="userSpaceOnUse"><stop offset=".7" style="stop-color:#bfa055;stop-opacity:0"/><stop offset="1" style="stop-color:#bfa055"/></radialGradient><path d="M110 22.7a11 11 0 0 1-2 11c-.2.2-1.3 1.3-1.5 2.1 0 0-4.1-5.7-5.4-9.1l-.5-2.1q0-1 .4-1.7c.4-.5 8.7-.7 8.7-.7z" style="fill:url(#g)"/><radialGradient id="h" cx="83" cy="28" r="13.1" gradientTransform="rotate(-85.7 85.53 25.7)scale(1 .833)" gradientUnits="userSpaceOnUse"><stop offset=".7" style="stop-color:#bfa055;stop-opacity:0"/><stop offset="1" style="stop-color:#bfa055"/></radialGradient><path d="M73.1 22.7a11 11 0 0 0 2 11c.2.2 1.2 1.3 1.5 2.1 0 0 4-5.7 5.3-9.1l.5-2.1q0-1-.3-1.7-.6-.6-1.5-.4l-7.2-.3z" style="fill:url(#h)"/><radialGradient id="i" cx="85.2" cy="38" r="10.1" gradientTransform="matrix(-1 0 0 -.491 170.47 56.67)" gradientUnits="userSpaceOnUse"><stop offset=".7" style="stop-color:#bfa055;stop-opacity:0"/><stop offset="1" style="stop-color:#bfa055"/></radialGradient><path d="M91.6 43.9v-4l-12.4-1-1.1 1.3s2.6 3.7 9.6 3.7z" style="fill:url(#i)"/><radialGradient id="j" cx="75.3" cy="36.5" r="3" gradientTransform="rotate(25 54.08 31.79)scale(1 .742)" gradientUnits="userSpaceOnUse"><stop offset=".7" style="stop-color:#bfa055"/><stop offset="1" style="stop-color:#bfa055;stop-opacity:0"/></radialGradient><path d="M78.1 38.4c1.9-2.8-2.2-3.8-2.2-3.8q1.1 1.3.6 2.4c-.6 1-2.1 1-2.1 1s2.1 2 3.7.4" style="fill:url(#j)"/><path d="M91.5 40.7h-5V46c0 2.4 2 4.4 4.6 4.4h.9c2.5 0 4.5-2 4.5-4.4v-5.3zm12-16.4H79.6c-2.6 0-4.7 2.3-4.7 5s2 5 4.7 5h23.9c2.6 0 4.7-2.2 4.7-5s-2.1-5-4.7-5" style="fill:#c48e6a"/><path d="M91.5 6.7C84 6.7 77 14.8 77 26.6 76.9 38.2 84 44 91.5 44s14.7-5.8 14.7-17.4c0-11.8-7-20-14.7-20" style="fill:#e0bb95"/><path d="M108.9 13.3c-1.1-1.6-3.5-3.7-5.6-3.8-.3-2-2.5-3.8-4.6-4.5-5.7-1.8-9.5.2-11.5 1.3-.4.3-3 1.8-5 .7-1.1-.7-1.1-2.5-1.1-2.5s-3.7 1.4-2.4 5.3a4 4 0 0 0-3.8 2.4 6 6 0 0 0-.4 4.7c-1.1 1-2.5 3-1.5 5.5.7 1.9 3.5 2.8 3.5 2.8a14 14 0 0 0 .8 6.4q.2.3.3 0a60 60 0 0 0 1.7-8.7s5-1 9.6-4.4q1.5-1 3.1-1.8c5.9-2.3 7.1 1.7 7.1 1.7s4-.8 5.3 4.8c.5 2.2.8 5.6 1 8q.1.2.4 0c.4-1 1.2-2.8 1.4-4.7 0-.7 1.9-1.6 2.6-4.5a12 12 0 0 0-1-8.7" style="fill:#ab872f"/><radialGradient id="k" cx="99.3" cy="21.1" r="15.4" gradientTransform="rotate(72 95.58 18.38)scale(1 .742)" gradientUnits="userSpaceOnUse"><stop offset=".7" style="stop-color:#bfa055;stop-opacity:0"/><stop offset="1" style="stop-color:#bfa055"/></radialGradient><path d="M107.2 26.5c0-.7 1.9-1.6 2.6-4.5l.3-.9a12 12 0 0 0-1.2-7.8c-1-1.4-3.1-3.4-5.1-3.8h-.5s.1 1-.2 1.6c-.5 1-1.5 1.2-1.5 1.2 5.2 5.2 4.8 9.6 5.6 14.2" style="fill:url(#k)"/><radialGradient id="l" cx="84.3" cy="4.3" r="4" gradientTransform="rotate(28.2 85.9 4.7)scale(1 1.186)" gradientUnits="userSpaceOnUse"><stop offset=".6" style="stop-color:#bfa055"/><stop offset="1" style="stop-color:#bfa055;stop-opacity:0"/></radialGradient><path d="m88.5 5.7-1.3.6c-.4.3-3 1.8-5 .7-1.1-.7-1.1-2.4-1.1-2.5-.5.7-2.1 5.5 2.6 5.9 2 .1 3.2-1.7 4-3.2z" style="fill:url(#l)"/><radialGradient id="m" cx="138.1" cy="46.4" r="12.4" gradientTransform="matrix(-.938 -.394 .218 -.528 212.75 90.67)" gradientUnits="userSpaceOnUse"><stop offset=".7" style="stop-color:#bfa055;stop-opacity:0"/><stop offset="1" style="stop-color:#bfa055"/></radialGradient><path d="M98 4.9q4.8 1.3 5.3 4.6c.2.6.3 6.5-10.9-.2-4.2-2.5-3-4-2.5-4.2a13 13 0 0 1 8.2-.2" style="fill:url(#m)"/><radialGradient id="n" cx="82.7" cy="8" r="3.7" gradientTransform="matrix(1 0 0 1.223 0 -1.78)" gradientUnits="userSpaceOnUse"><stop offset=".7" style="stop-color:#bfa055;stop-opacity:0"/><stop offset="1" style="stop-color:#bfa055"/></radialGradient><path d="M81 4.5c-.3.2-3.5 1.6-2.3 5.3l3.3.6c-3-3-.9-5.9-.9-5.9" style="fill:url(#n)"/><radialGradient id="o" cx="82.2" cy="14.5" r="7" gradientTransform="rotate(195 82.23 14.06)scale(1 .936)" gradientUnits="userSpaceOnUse"><stop offset=".7" style="stop-color:#bfa055;stop-opacity:0"/><stop offset="1" style="stop-color:#bfa055"/></radialGradient><path d="m80.8 10.2-2.1-.4h-.5c-1.2.2-2.6.8-3.3 2.4a6 6 0 0 0-.4 4.7s1-1 3.5-1z" style="fill:url(#o)"/><radialGradient id="p" cx="80.5" cy="21.2" r="7.3" gradientTransform="rotate(7.8 143.4 25.55)scale(1 1.405)" gradientUnits="userSpaceOnUse"><stop offset=".6" style="stop-color:#bfa055;stop-opacity:0"/><stop offset="1" style="stop-color:#bfa055"/></radialGradient><path d="M74.4 17c-1 1-2.4 3-1.4 5.5.8 1.8 3.5 2.7 3.5 2.7l.8.1.7-9.4q-2 0-3.4 1z" style="fill:url(#p)"/><path d="M95.2 36c-1.4.8-6 .8-7.3 0-.8-.5-1.7.2-1.3 1 .3.7 2.8 2.3 5 2.3s4.6-1.6 4.9-2.3c.3-.8-.5-1.5-1.3-1" style="fill:#6d4c41"/><path d="M93.2 32.4H90q-.5.2-.3.7c0 .3.7 1.2 2 1.2 1.2 0 1.8-.9 2-1.2q.1-.5-.4-.7" style="fill:#c48e6a"/><circle cx="84.3" cy="28.3" r="2.2" style="fill:#5d4037"/><circle cx="98.7" cy="28.3" r="2.2" style="fill:#5d4037"/><path d="M95.5 24.3c.5-.5 1.4-1.3 3.3-1.3s2.8.8 3.2 1.3v.7q-.3.3-.9.2-.5-.3-2.3-.5-1.9.2-2.4.5-.6.1-.9-.2zm-14.4 0c.4-.5 1.4-1.3 3.2-1.3s2.8.8 3.2 1.3q.3.4 0 .7-.1.3-.8.2-.5-.3-2.4-.5-1.8.2-2.3.5-.7.1-.9-.2z" style="fill:#ab872f"/><path d="M22.5 74.6v48h5.7l7.8-38q0-.4.4-.4t.5.4l7.8 38.2h5.7v-48z" style="fill:#7c7c7c"/><path d="M25.5 124H21c-.8 0-1.4-1-1.1-1.8a6 6 0 0 1 5.6-4.3 6 6 0 0 1 5.6 4.5c.3.8-.4 1.6-1.2 1.6zm22 0H52c.8 0 1.4-1 1.2-1.8a6 6 0 0 0-5.7-4.3 6 6 0 0 0-5.6 4.5q-.2 1.4 1.2 1.6z" style="fill:#424242"/><linearGradient id="q" x1="65.3" x2="45.8" y1="53.5" y2="86.6" gradientTransform="translate(-40.9)" gradientUnits="userSpaceOnUse"><stop offset="0" style="stop-color:#cca47a"/><stop offset=".4" style="stop-color:#e0bb95"/></linearGradient><path d="m28 54.1-9.7-.6-6 13.3L6 76a9 9 0 0 0-3 5.2c-.8 2.8-.4 4.4 0 5s2.2 2.5 3.4 1.4 1.1-5.2 2.3-5c.6.2-.2 1.5-.3 2.7s.9 1.4 1.5 1c.4-.1 1.9-2.7 1.9-2.7l.6-4.2 15.2-21.2z" style="fill:url(#q)"/><linearGradient id="r" x1="143.2" x2="123.6" y1="74.6" y2="41.3" gradientTransform="rotate(185 96.67 65.76)" gradientUnits="userSpaceOnUse"><stop offset="0" style="stop-color:#cca47a"/><stop offset=".4" style="stop-color:#e0bb95"/></linearGradient><path d="M47 57.5 61 81s-1.5 2.6-.3 4.9c1.6 1.1 2.3-2.3 3-2.4 1.1-.1 3 4.6 4.3 4.6 2.4 1 3.5-2.2 3.5-4 1-3.4-5.3-6.9-5.3-6.9-1.7-3-4.7-9.8-4.7-9.8l-4.8-13.8-9.7-.2z" style="fill:url(#r)"/><linearGradient id="s" x1="14.1" x2="58.8" y1="60.9" y2="60.9" gradientUnits="userSpaceOnUse"><stop offset=".2" style="stop-color:#4fc3f7"/><stop offset=".4" style="stop-color:#42bff6"/><stop offset=".7" style="stop-color:#20b3f5"/><stop offset="1" style="stop-color:#03a9f4"/></linearGradient><path d="M47 44.9c-2.3-.7-6.6-1-10.6-1-4-.1-8.2.3-10.6 1-7.5 2-9.4 5.5-11.6 11.6l8.2 3.2V78h28V59.7l8.4-3.2c-2.3-6-4.2-9.6-11.7-11.6" style="fill:url(#s)"/><path d="M51.6 37q-.7-1.4 1.3-3.2a11 11 0 0 0 2-11.1l-.4-.9h-.8a1356 1356 0 0 0-34.5 0l-1.2.9a11 11 0 0 0 2 11c1.2 1.3 2 2.3 1.4 3.3s-2.1 1.1-2.1 1.1.3 1 1.2 1.5q1.3.7 2.5.6s2.6 3.7 9.6 3.7h7.7c7 0 9.6-3.7 9.6-3.7q1.2 0 2.5-.6c.9-.5 1.2-1.5 1.2-1.5s-1.5-.1-2-1" style="fill:#ab872f"/><radialGradient id="t" cx="135.5" cy="38" r="10.1" gradientTransform="matrix(1 0 0 -.491 -92.7 56.67)" gradientUnits="userSpaceOnUse"><stop offset=".7" style="stop-color:#bfa055;stop-opacity:0"/><stop offset="1" style="stop-color:#bfa055"/></radialGradient><path d="M36.5 43.9v-4l12.3-1 1.1 1.3S47.3 44 40.3 44z" style="fill:url(#t)"/><radialGradient id="u" cx="125.5" cy="36.5" r="3" gradientTransform="rotate(155 82.04 -3.38)scale(1 -.742)" gradientUnits="userSpaceOnUse"><stop offset=".7" style="stop-color:#bfa055"/><stop offset="1" style="stop-color:#bfa055;stop-opacity:0"/></radialGradient><path d="M49.9 38.4c-1.8-2.8 2.3-3.8 2.3-3.8q-1.2 1.3-.7 2.4c.6 1 2.1 1 2.1 1s-2.1 2-3.7.4" style="fill:url(#u)"/><radialGradient id="v" cx="133.2" cy="28" r="13.1" gradientTransform="rotate(-94.3 112.96 43.29)scale(1 -.833)" gradientUnits="userSpaceOnUse"><stop offset=".7" style="stop-color:#bfa055;stop-opacity:0"/><stop offset="1" style="stop-color:#bfa055"/></radialGradient><path d="M54.9 22.7a11 11 0 0 1-2 11c-.2.2-1.2 1.3-1.5 2.1 0 0-4-5.7-5.3-9.1q-.5-1-.5-2.1 0-1 .3-1.7c.4-.5 8.8-.7 8.8-.7z" style="fill:url(#v)"/><radialGradient id="w" cx="27.9" cy="28" r="13.1" gradientTransform="rotate(-85.7 30.46 25.7)scale(1 .833)" gradientUnits="userSpaceOnUse"><stop offset=".7" style="stop-color:#bfa055;stop-opacity:0"/><stop offset="1" style="stop-color:#bfa055"/></radialGradient><path d="M18 22.7a11 11 0 0 0 2 11c.2.2 1.2 1.3 1.5 2.1 0 0 4.1-5.7 5.3-9.1q.5-1 .5-2.1 0-1-.3-1.7-.6-.6-1.5-.4l-7.1-.3z" style="fill:url(#w)"/><radialGradient id="x" cx="30.2" cy="38" r="10.1" gradientTransform="matrix(-1 0 0 -.491 60.33 56.67)" gradientUnits="userSpaceOnUse"><stop offset=".7" style="stop-color:#bfa055;stop-opacity:0"/><stop offset="1" style="stop-color:#bfa055"/></radialGradient><path d="M36.5 43.9v-4l-12.4-1-1.1 1.3s2.7 3.7 9.6 3.7z" style="fill:url(#x)"/><radialGradient id="y" cx="20.2" cy="36.5" r="3" gradientTransform="rotate(25 -1 31.79)scale(1 .742)" gradientUnits="userSpaceOnUse"><stop offset=".7" style="stop-color:#bfa055"/><stop offset="1" style="stop-color:#bfa055;stop-opacity:0"/></radialGradient><path d="M23 38.4c1.9-2.8-2.2-3.8-2.2-3.8q1.1 1.3.6 2.4c-.5 1-2 1-2 1s2 2 3.6.4" style="fill:url(#y)"/><path d="M36.5 40.7h5V46c0 2.4-2 4.4-4.6 4.4H36c-2.5 0-4.5-2-4.5-4.4v-5.3zm11.9-16.4H24.5c-2.6 0-4.7 2.3-4.7 5s2.1 5 4.7 5h23.9c2.6 0 4.7-2.2 4.7-5s-2-5-4.7-5" style="fill:#c48e6a"/><path d="M36.5 6.7c-7.7 0-14.7 8.1-14.7 19.9C21.8 38.2 29 44 36.5 44s14.7-5.8 14.7-17.4c0-11.8-7.1-20-14.7-20" style="fill:#e0bb95"/><path d="M40.2 36c-1.5.8-6 .8-7.4 0-.8-.5-1.6.2-1.3 1 .3.7 2.8 2.3 5 2.3s4.6-1.6 5-2.3c.3-.8-.5-1.5-1.4-1" style="fill:#6d4c41"/><path d="M53.8 13.3c-1-1.6-3.4-3.7-5.6-3.8-.3-2-2.5-3.8-4.6-4.5-5.7-1.8-9.4.3-11.4 1.3-.5.3-3.1 1.8-5 .7C26 6.3 26 4.5 26 4.5S22.3 6 23.6 9.8a4 4 0 0 0-3.8 2.4 6 6 0 0 0-.4 4.7c-1 1-2.4 3-1.5 5.5.7 1.9 3.5 2.8 3.5 2.8-.2 3.4.5 5.6.8 6.4q.2.3.3 0a60 60 0 0 0 1.8-8.7s4.9-1 9.5-4.4q1.5-1 3.1-1.8c6-2.3 7.1 1.7 7.1 1.7s4.1-.8 5.3 4.9c.5 2 .8 5.5 1 7.8q.1.3.4 0c.4-.8 1.2-2.7 1.4-4.6 0-.7 1.9-1.6 2.7-4.5a12 12 0 0 0-1-8.7" style="fill:#ab872f"/><radialGradient id="z" cx="44.2" cy="21.1" r="15.4" gradientTransform="rotate(72 40.5 18.38)scale(1 .742)" gradientUnits="userSpaceOnUse"><stop offset=".7" style="stop-color:#bfa055;stop-opacity:0"/><stop offset="1" style="stop-color:#bfa055"/></radialGradient><path d="M52.1 26.5c0-.7 1.9-1.6 2.7-4.5l.2-.9a12 12 0 0 0-1.2-7.8c-1-1.4-3-3.4-5-3.8h-.6s.2 1-.2 1.6c-.5 1-1.5 1.2-1.5 1.2 5.2 5.2 4.8 9.6 5.6 14.2" style="fill:url(#z)"/><radialGradient id="A" cx="29.2" cy="4.3" r="4" gradientTransform="rotate(28.2 30.82 4.7)scale(1 1.186)" gradientUnits="userSpaceOnUse"><stop offset=".6" style="stop-color:#bfa055"/><stop offset="1" style="stop-color:#bfa055;stop-opacity:0"/></radialGradient><path d="m33.4 5.7-1.2.6c-.5.3-3.1 1.8-5 .7C26 6.3 26 4.6 26 4.5c-.5.7-2.1 5.5 2.6 5.9 2 .1 3.3-1.7 4-3.2z" style="fill:url(#A)"/><radialGradient id="B" cx="163" cy="95.8" r="12.4" gradientTransform="matrix(-.938 -.394 .218 -.528 170.25 126.55)" gradientUnits="userSpaceOnUse"><stop offset=".7" style="stop-color:#bfa055;stop-opacity:0"/><stop offset="1" style="stop-color:#bfa055"/></radialGradient><path d="M43 4.9q4.6 1.3 5.2 4.6c.2.6.4 6.5-10.9-.2-4.2-2.5-3-4-2.5-4.2a13 13 0 0 1 8.2-.2" style="fill:url(#B)"/><radialGradient id="C" cx="27.6" cy="8" r="3.7" gradientTransform="matrix(1 0 0 1.223 0 -1.78)" gradientUnits="userSpaceOnUse"><stop offset=".7" style="stop-color:#bfa055;stop-opacity:0"/><stop offset="1" style="stop-color:#bfa055"/></radialGradient><path d="M26 4.5c-.4.2-3.6 1.6-2.4 5.3l3.4.6c-3-3-1-5.9-1-5.9" style="fill:url(#C)"/><radialGradient id="D" cx="27.1" cy="14.5" r="7" gradientTransform="rotate(195 27.16 14.07)scale(1 .936)" gradientUnits="userSpaceOnUse"><stop offset=".7" style="stop-color:#bfa055;stop-opacity:0"/><stop offset="1" style="stop-color:#bfa055"/></radialGradient><path d="m25.7 10.2-2.1-.4h-.5c-1.2.2-2.6.8-3.3 2.4a6 6 0 0 0-.4 4.7s1-1 3.5-1z" style="fill:url(#D)"/><radialGradient id="E" cx="25.4" cy="21.2" r="7.3" gradientTransform="rotate(7.8 88.32 25.55)scale(1 1.405)" gradientUnits="userSpaceOnUse"><stop offset=".6" style="stop-color:#bfa055;stop-opacity:0"/><stop offset="1" style="stop-color:#bfa055"/></radialGradient><path d="M19.3 17c-1 1-2.4 3-1.4 5.5.8 1.8 3.5 2.7 3.5 2.7l.9.1.6-9.4q-2 0-3.4 1z" style="fill:url(#E)"/><path d="M38.2 32.4h-3.4q-.5.2-.3.7c.2.5.7 1.2 2 1.2 1.2 0 1.8-.9 2-1.2q.1-.5-.4-.7" style="fill:#c48e6a"/><circle cx="29.3" cy="28.3" r="2.2" style="fill:#5d4037"/><circle cx="43.7" cy="28.3" r="2.2" style="fill:#5d4037"/><path d="M40.5 24.3c.4-.5 1.3-1.3 3.2-1.3s2.8.8 3.2 1.3q.2.4 0 .7t-.8.2q-.6-.3-2.4-.5-1.9.2-2.4.5-.6.1-.8-.2zm-14.5 0c.5-.5 1.4-1.3 3.3-1.3s2.8.8 3.2 1.3v.7q-.2.3-.9.2-.4-.3-2.3-.5-1.9.2-2.4.5-.6.1-.8-.2v-.7" style="fill:#ab872f"/><path d="m67.3 86.4-.5-.1q.4-1.2-.6-1.7l-.5-.2h-.2q.4-.9-.5-1.5l-.6-.2q-.4 0-.7.3 0-.6-.6-1h-.6q-.6 0-1 .6l-1 2q-.3 1 .6 1.7l.6.1.5-.1v.3q.2.5.6.7l.5.2.6-.2q0 .6.6 1h1q0 .5.6.8l.5.1q.9 0 1.1-.7l.2-.4q.4-1-.6-1.7" style="fill:#e0bb95"/><path d="M67.6 86.3c.5-1.8-1.5-2.2-1.5-2.2.3-1-1.3-2.2-2.3-1.6-1.5-1.5-2.5-.1-2.7.8 0 0 .8-1.1 1.5-.7q.8.4.4 1.2l-.5 1.5 1-1.6c.2-.2.7-.6 1.3-.3.5.3.5 1 .5 1.2l-1 2 1-1q.3-.7 1-.5.8.6.4 1.2l-.8 1.5s.8-1.2 1.6-.6c.5.5 0 1.5.1 1.5 1.5-1.5 0-2.4 0-2.4" style="fill:#ba8f63"/></svg>