<svg xml:space="preserve" width="16" height="16" viewBox="0 0 128 128"><radialGradient id="a" cx="63.6" cy="808.9" r="57" gradientTransform="translate(0 -746)" gradientUnits="userSpaceOnUse"><stop offset=".5" style="stop-color:#fde030"/><stop offset=".9" style="stop-color:#f7c02b"/><stop offset="1" style="stop-color:#f4a223"/></radialGradient><path d="M63.6 118.8c-27.9 0-58-17.5-58-55.9S35.7 7 63.6 7c15.5 0 29.8 5.1 40.4 14.4 11.5 10.2 17.6 24.6 17.6 41.5s-6.1 31.2-17.6 41.4a61 61 0 0 1-40.4 14.5" style="fill:url(#a)"/><path d="M111.5 29.7a57 57 0 0 1 8.1 30.2c0 16.9-6.1 31.2-17.6 41.4a61 61 0 0 1-40.4 14.5 59 59 0 0 1-48.2-23 58 58 0 0 0 50.2 26c15.4 0 29.8-5.2 40.4-14.5a54 54 0 0 0 17.6-41.4q-.1-19.2-10.1-33.2" style="fill:#eb8f00"/><path d="M64.3 95.4c-12.8 0-21.9-6.6-24.6-10.7a5 5 0 0 1-.6-4.7 3 3 0 0 1 2.7-1.6l1.2.2a72 72 0 0 0 42.5 0l1.2-.2a3 3 0 0 1 2.7 1.6q1 2.4-.6 4.7C86.1 88.8 77 95.4 64.3 95.4M97.5 62l-.2-.3-.6-.7q-1-1.2-2.4-2.2a18 18 0 0 0-7.4-3l-.6-.2.6-.3 1.7-.9L94 52l.7-.3h.2a2.8 2.8 0 0 0-.8-5.3 13 13 0 0 0-4.2.5l-4 1.3-2 1-2.1 1-3.9 2.5a27 27 0 0 0-5.6 5.8l-.2.3a4 4 0 0 0 0 2.8 3 3 0 0 0 3.5 1.5h.3l.2-.1h.2l.8-.3 1.2-.2a22 22 0 0 1 7.5.2l.8.2 1.7.4a22 22 0 0 1 4.6 2l.6.3.3.2c1.2 1 3 .7 3.8-.5q1.2-1.7 0-3.3M44.7 47c-4.2 0-8 3.5-8 9.4s3.8 9.4 8 9.4 8-3.6 8-9.4-3.8-9.5-8-9.5m-14.9-2.1q-1.2 0-2.2-1.1-.6-1.2-.2-2.5A21 21 0 0 1 44.7 28q2 .1 2.5 2.1c.2 1.3-.6 2.6-1.9 3l-.4-.7.3.7q-8.3 3.1-13 10.4-.8 1.3-2.3 1.3" style="fill:#422b0d"/><path d="M44.3 50.9a3 3 0 0 0-3.8 1.3q-.8 1.8.6 3.3c1.4.7 3 0 3.8-1.3.5-1.1.3-2.5-.6-3.3" style="fill:#896024"/></svg>