<svg xmlns:xlink="http://www.w3.org/1999/xlink" xml:space="preserve" width="16" height="16" viewBox="0 0 128 128"><linearGradient id="a" x1="64" x2="64" y1="116.6" y2="39.5" gradientTransform="matrix(1 0 0 -1 0 128)" gradientUnits="userSpaceOnUse"><stop offset="0" style="stop-color:#26a69a"/><stop offset="1" style="stop-color:#00796b"/></linearGradient><path d="M6.4 10.9h115.3v77.5H6.4z" style="fill:url(#a)"/><linearGradient id="b" x1="64" x2="64" y1="119.5" y2="37.2" gradientTransform="matrix(1 0 0 -1 0 128)" gradientUnits="userSpaceOnUse"><stop offset="0" style="stop-color:#8d6e63"/><stop offset=".8" style="stop-color:#795548"/></linearGradient><path d="M119.3 13.3V86H8.7V13.3zm4.7-4.7H4v82.2h120z" style="fill:url(#b)"/><path d="M64.6 2.9c-41 0-40.7 37.9-40.7 38.5 0 24.6 1.9 59.2 11.7 72.9C39.5 119.7 47 120 47 120h34s7.5-.3 11.4-5.7c9.8-13.7 11.7-48.3 11.7-73 0-.5 1.5-38.4-39.5-38.4" style="fill:#ab872f"/><radialGradient id="c" cx="64" cy="69.6" r="47.5" gradientTransform="matrix(1 0 0 -1.19 0 141.22)" gradientUnits="userSpaceOnUse"><stop offset=".8" style="stop-color:#bfa055;stop-opacity:0"/><stop offset="1" style="stop-color:#bfa055"/></radialGradient><path d="M64.6 2.9c-41 0-40.7 37.9-40.7 38.5 0 24.6 1.9 59.2 11.7 72.9C39.5 119.7 47 120 47 120h34s7.5-.3 11.4-5.7c9.8-13.7 11.7-48.3 11.7-73 0-.5 1.5-38.4-39.5-38.4" style="fill:url(#c)"/><linearGradient id="d" x1="64" x2="64" y1="18.3" y2="4.8" gradientTransform="matrix(1 0 0 -1 0 128)" gradientUnits="userSpaceOnUse"><stop offset="0" style="stop-color:#b3e5fc"/><stop offset="1" style="stop-color:#70afe3"/></linearGradient><path d="M114.5 124v-3.2c0-15.5-25.3-23.6-50.4-23.6H64c-25.1 0-50.5 7.3-50.5 23.6v3.1z" style="fill:url(#d)"/><path d="M15 124v-3.2c0-15.2 24.6-22 49-22.1h.1c13 0 25.5 2.2 34.4 6 6.6 2.8 14.5 8 14.5 16v3.2h3v-3.2c0-16.7-26.3-25-51.9-25H64c-25.5 0-52 7.3-52 25v3.2z" style="fill:#3488c1"/><linearGradient id="e" x1="30.4" x2="30.4" y1="32.3" y2="5" gradientTransform="matrix(1 0 0 -1 0 128)" gradientUnits="userSpaceOnUse"><stop offset="0" style="stop-color:#651fff"/><stop offset=".7" style="stop-color:#5914f2"/><stop offset="1" style="stop-color:#530eeb"/></linearGradient><path d="M12 120.8v3.1h32.6c.8-21.7 4.2-28 4.2-28-17 3.7-36 8.1-36.8 24.8" style="fill:url(#e)"/><linearGradient id="f" x1="98" x2="98" y1="31" y2="5" gradientTransform="matrix(1 0 0 -1 0 128)" gradientUnits="userSpaceOnUse"><stop offset="0" style="stop-color:#651fff"/><stop offset=".7" style="stop-color:#5914f2"/><stop offset="1" style="stop-color:#530eeb"/></linearGradient><path d="M79.6 96s3.4 6.2 4.2 28h32.6v-3.2c-.8-16.8-19.8-21.2-36.8-24.9" style="fill:url(#f)"/><linearGradient id="g" x1="39" x2="39" y1="29" y2="5.4" gradientTransform="matrix(1 0 0 -1 0 128)" gradientUnits="userSpaceOnUse"><stop offset="0" style="stop-color:#d1c4e9;stop-opacity:.2"/><stop offset=".8" style="stop-color:#d1c4e9;stop-opacity:.6"/></linearGradient><path d="M38.5 124c0-5 .5-15.3 4-26.7l-3.3.8a97 97 0 0 0-3.8 25.8z" style="fill:url(#g)"/><linearGradient id="h" x1="997.5" x2="997.5" y1="30.2" y2="5.6" gradientTransform="matrix(-1 0 0 -1 1086.48 128)" gradientUnits="userSpaceOnUse"><stop offset="0" style="stop-color:#d1c4e9;stop-opacity:.2"/><stop offset=".8" style="stop-color:#d1c4e9;stop-opacity:.6"/></linearGradient><path d="M92.6 124c0-5-.6-14.7-3.8-26l-3.4-.7a96 96 0 0 1 4.2 26.6z" style="fill:url(#h)"/><path d="M64 92.3h-9v10c0 4.5 3.6 8.2 8.2 8.2h1.6c4.6 0 8.3-3.7 8.3-8.2v-10z" style="fill:#c48e6a"/><linearGradient id="i" x1="54.3" x2="55.2" y1="16.9" y2="37.2" gradientTransform="matrix(1 0 0 -1 0 128)" gradientUnits="userSpaceOnUse"><stop offset="0" style="stop-color:#e1f5fe"/><stop offset="1" style="stop-color:#81d4fa"/></linearGradient><path d="m54 91.9 10 12.8s.5-.4 0 0l-16.2 6.6-2.5-14.5z" style="fill:url(#i)"/><linearGradient id="j" x1="73" x2="73.8" y1="16.1" y2="36.4" gradientTransform="matrix(1 0 0 -1 0 128)" gradientUnits="userSpaceOnUse"><stop offset="0" style="stop-color:#e1f5fe"/><stop offset="1" style="stop-color:#81d4fa"/></linearGradient><path d="m74.2 91.9-10 12.8s-.5-.4 0 0l16.3 6.6 2.4-14.5z" style="fill:url(#j)"/><linearGradient id="k" x1="79.1" x2="72.8" y1="21.1" y2="-5.5" gradientTransform="matrix(1 0 0 -1 0 128)" gradientUnits="userSpaceOnUse"><stop offset="0" style="stop-color:#212121;stop-opacity:.2"/><stop offset="1" style="stop-color:#212121;stop-opacity:.6"/></linearGradient><path d="m101 124 .7-2.7.7-2.2-1.6-.5 1.6-5.7v-1.2q-.3-.9-1.1-1.1h-.2l-3.7-1.1-35-10v-.1c-3.3-.9-6.7 1-7.6 4.3l-1.4 5-.4 1.1-1.3 4.6L49 124z" style="fill:url(#k)"/><path d="m102.3 124 3.5-12.1q.3-1.7-1.3-2.4l-38.7-11c-3.3-1-6.7.9-7.7 4.2l-6 21.2z" style="fill:#424242"/><linearGradient id="l" x1="81.9" x2="76.7" y1="17.3" y2="-.1" gradientTransform="matrix(1 0 0 -1 0 128)" gradientUnits="userSpaceOnUse"><stop offset="0" style="stop-color:#ef5350"/><stop offset="1" style="stop-color:#e53935"/></linearGradient><path d="m104 124 1-3.7c.4-1.2-.3-2.5-1.5-2.8l-41.6-12c-4.5-1.2-5.3 2.4-6.5 6.8L52 124z" style="fill:url(#l)"/><g style="opacity:.2"><path d="M64.3 101.6h.6l37.3 10.7-.3 1.1c-11.8-3.3-34.3-9.6-39-11.1q.4-.7 1.4-.7m0-3.4c-4.5 0-6.7 5.6-3 7 4 1.5 42.8 12.3 42.8 12.3l1.6-5.5c.3-1-.2-2.2-1-2.4l-39-11.2z" style="fill:#424242"/></g><linearGradient id="m" x1="-117.4" x2="-74" y1="-972.3" y2="-972.3" gradientTransform="rotate(16 -4393.16 122.7)scale(1 1.157)" gradientUnits="userSpaceOnUse"><stop offset="0" style="stop-color:#bdbdbd"/><stop offset="1" style="stop-color:#f5f5f5"/></linearGradient><path d="m103.4 112.1-39.8-11.4c-1.1-.3-2.3.5-2.7 1.7v.2c-.4 1.3.2 2.6 1.3 2.9l39.8 11.4s-.3-.8 0-2.3a7 7 0 0 1 1.4-2.5" style="fill:url(#m)"/><defs><path id="n" d="m105.7 118-44.5-12.6c-3.6-1-4 .2-4.8 3.4L52 124h52z"/></defs><clipPath id="o"><use xlink:href="#n" style="overflow:visible"/></clipPath><linearGradient id="p" x1="52.6" x2="56.9" y1="6" y2="19.7" gradientTransform="matrix(1 0 0 -1 0 128)" gradientUnits="userSpaceOnUse"><stop offset="0" style="stop-color:#212121"/><stop offset="1" style="stop-color:#424242"/></linearGradient><path d="m55.9 124 7.7-27-6.4-1.9-8.3 28.8z" style="clip-path:url(#o);fill:url(#p)"/><path d="M64.3 16c-17.2 0-33.1 12.8-33.1 40a40 40 0 0 0 25.2 38.8 24 24 0 0 0 8 1.5q3.5 0 7.8-1.5A40 40 0 0 0 97.4 56c0-27.2-15.9-40-33-40" style="fill:#e0bb95"/><path d="M68.4 68h-7.7q-1 .5-.6 1.7a5 5 0 0 0 4.5 2.6 5 5 0 0 0 4.5-2.6q.3-1.2-.7-1.6" style="fill:#c48e6a"/><ellipse cx="49.3" cy="58.9" rx="4.9" ry="5" style="fill:#5d4037"/><ellipse cx="79.8" cy="58.9" rx="4.9" ry="5" style="fill:#5d4037"/><path d="M55.5 49.8c-.9-1.2-3-3-7.2-3s-6.3 1.8-7.2 3q-.5 1 0 1.6t1.9.4c1.5-.2 2.5-1.2 5.3-1.2s4.5.9 5.4 1.2q1.3.3 1.9-.4t0-1.6m32.4 0c-.9-1.2-3-3-7.2-3s-6.3 1.8-7.2 3q-.5 1 0 1.6t1.9.4c1.5-.2 2.5-1.2 5.3-1.2s4.5.9 5.4 1.2q1.3.3 1.9-.4.4-.6 0-1.6" style="fill:#ab872f"/><path d="M72.6 76.1a25 25 0 0 1-16.6 0c-1.8-1-3.6.6-2.9 2.3s6.4 5.3 11.2 5.3 10.5-3.7 11.2-5.4c.8-1.6-1-3.2-2.9-2.2" style="fill:#6d4c41"/><path d="M94 53c-.1-1.3-.2-1.4-1.8-1.9a63 63 0 0 0-14-.6C73.6 51 68 52.8 63.9 53c-1.7 0-9-1.9-14-2.3h-1c-5.2-.3-12 .3-13.1.7-1.6.5-1.7.6-1.7 1.8q-.2 2 1 2.5c1.3.4 1.3 2 2.2 6.5.7 4.2 2.6 7.5 10.5 8h1c7 .2 9.5-4.5 10.3-6 1.5-2.9 1-6.8 5-6.8 3.9 0 3.5 3.8 5 6.7.8 1.5 3.2 6.2 10.1 6h1c8-.6 9.9-3.9 10.6-8 .8-4.6.8-6.1 2.1-6.6q1.3-.6 1-2.5zM53.3 68.1q-2 .8-4.6.8c-3.6 0-7.6-1.2-9-3.8-2-3.6-2.6-11 0-12.5 1.2-.6 5-1 9-1 4.1.3 8.4 1.1 10 3.1 2.5 3.4-1.6 11.5-5.4 13.4zm35-3.1c-1.5 2.5-5.5 3.8-9 3.8q-2.7 0-4.6-.8c-3.9-1.8-8-10-5.4-13.3 1.5-2 5.8-3 10-3.1a22 22 0 0 1 8.9.9c2.6 1.5 2 8.8 0 12.5z" style="fill:#212121;stroke:#212121;stroke-width:.5499;stroke-miterlimit:10"/><path d="M64.6 2.9c-41 0-40.7 37.9-40.7 38.5q0 11.9.7 25.3h6.8c-.1-3 2-21 8-22.3 22.4-5 35-17 35-17 3.3 7.2 13.6 14.3 17.3 17 3 2.1 4.6 18.5 4.5 22.3h7.1v-.2c.6-8.7.8-17.4.8-25.1 0-.6 1.5-38.5-39.5-38.5" style="fill:#ab872f"/><radialGradient id="q" cx="64.3" cy="65.5" r="49.8" gradientTransform="matrix(1 0 0 -1.214 0 142)" gradientUnits="userSpaceOnUse"><stop offset=".8" style="stop-color:#bfa055;stop-opacity:0"/><stop offset="1" style="stop-color:#bfa055"/></radialGradient><path d="M64.6 2.9c-41 0-40.7 37.9-40.7 38.5q0 11.9.7 25.3h6.8c-.1-3 2-21 8-22.3 22.4-5 35-17 35-17 3.3 7.2 13.6 14.3 17.3 17 3 2.1 4.6 18.5 4.5 22.3h7.1v-.2c.6-8.7.8-17.4.8-25.1 0-.6 1.5-38.5-39.5-38.5" style="fill:url(#q)"/></svg>