<svg xml:space="preserve" width="16" height="16" viewBox="0 0 128 128"><path d="m4.4 94.2-.1-65.8c0-2 1-2.3 2.7-2.4h114.3c2.3 0 2.5 1.5 2.5 3.3v65l-62.6 1.1z" style="fill:#bacfd4"/><path d="M4.4 94.2v28q0 2.1 2.9 2.3c2.9.2 112.6-.2 114-.2s2.5-1.4 2.6-3.7V94.3z" style="fill:#6ba4ae"/><path d="m33.8 102.6.1 21.8h59.4v-22.2z" style="fill:#546f7a"/><path d="M40.1 103.7v20.7h3.3v-21zm21.9-.4v21h3.4V103zm22.6 0v21.1h3.5V103z" style="fill:#b9ced3"/><path d="M39.5 94.5 39 7q-.1-3 2.6-3.4H85q2.6.1 2.7 3.2l.2 87.6 17 2v5.1q0 2.4-2.3 2.3h-79c-1.5 0-2-1.6-2-3.2v-5.4z" style="fill:#f1edec"/><path d="M21.7 97h83.1v-2.7c0-1.2-1.1-1.3-3.6-1.3H23.6q-1.7 0-2 1.5c-.3 1.5 0 2.5 0 2.5" style="fill:#fefffd"/><path d="M47.5 65.4c.2.2 31.3.4 31.5.2s.3-11.7 0-12a605 605 0 0 0-31.5 0c-.2.3-.2 11.6 0 11.8m.1 9.8c-.4.1-.1 11.6-.1 11.6l31.7-.2s.2-11.2-.3-11.4c-.3-.2-30.8-.2-31.3 0M92 33.8v12.8h12v-13zm16.8-.1h11.4l.1 12.7h-11.6zm-.1 20.3-.1 12.3H120l.2-12.3zm-4.7-.1H92v12.4h12.2zm.2 20.5H92V87h12.2s-.3-12.8-.1-12.7m4.6 0H120v12.9h-11.4zM24.4 86.8V74H36v12.8zm-4.5 0V74h-12v13zM7.8 53.6H20v12.3H7.8zm16.7 0V66H36V53.6zm.2-20.4h11.1v13H24.7zm-5 .5-11.8-.1V46h11.8z" style="fill:#546f7a"/><path d="M57 20.8V7.6q.1-1.2 1.2-1h11.4q.9.1.9 1.6v12.5l12.7.1q.9.1 1 1.3v11.1c0 .8 0 1.6-1 1.7H70.4V49q0 .9-1.3 1.2c-1.3.3-11 0-11.6 0s-.5-1.7-.5-2.3V35.2H43.7q-.8 0-.9-1.6V22.2q.1-1.4 1-1.4z" style="fill:#dd0c26"/><path d="M62.1 11.6h3.2v34.1h-3.2zM47.7 26.3h31.6v3.2H47.7z" style="fill:#fff"/></svg>