<svg xml:space="preserve" width="16" height="16" viewBox="0 0 128 128"><path d="M12.8 118.6c6.6 6.6 14.7 4.3 19.3-1l7.4-8.6c6-8.8 30.5-38 51.5-59.1a24 24 0 0 0 24.6-4 24 24 0 0 0 8.3-18.3 1.4 1.4 0 0 0-2-1.2l-14.5 8.3c-7-2.4-11.1-9.6-9.7-16.7l14.4-8.3q.7-.4.7-1.2 0-1-.7-1.2a23.8 23.8 0 0 0-33 32A881 881 0 0 1 20.5 93s-4.5 3.2-8.7 7.6-5.7 11.2 1 18m4.8-10.3a5.3 5.3 0 1 1 10.7 0 5.3 5.3 0 0 1-10.7 0" style="fill:#82aec0"/><path d="m76 42.5 3.2-3.2a24 24 0 0 1-2-18.3c.7-1.1 1.8-2.3 2.4-1.6A32 32 0 0 0 87.8 43a23 23 0 0 0 17 7c1.3-.2 4.7-1.4 5.4-.5a24 24 0 0 1-19.2.4Q80.9 60.1 73.8 68.4c2.4-4.5 9.4-12.7 11.2-15.8.4-.7 1-2.6-.3-4.2a27 27 0 0 0-8.7-5.8" style="fill:#2f7889"/><path d="M47.7 77.8c.5-.6 0-1.5-.8-1.4q-2.1.3-5.9 3.1C36.3 83.4 23.6 94 22 96s4.8 0 7-.4a170 170 0 0 0 18.7-17.7M91.4 11q-3.8 2.9-7.5 6.2c-.7.6-1.6 1.1-2.3.6s-.3-1.7.3-2.4c4.7-6.5 13.5-11.2 22-9.3-4.4 1.4-8.5 2-12.5 4.8" style="fill:#b9e4ea"/><path d="m112.7 33.2-3.4 1.7c-1 .3-3.9-.8-4.7-1.4l10.7-7q.5-.4 1.2-.6l1.7-.2c.7 0 4.6 0 5 .6s-1.1 1.4-1.6 1.7zm-40.9 37-11.2-13q-6 5.8-11.9 11.1l3.3-.7q2.2-.5 4 1.2l5.1 5.8c1.1 1.1 1.3 3 1 4.5l-.7 2.8z" style="fill:#2f7889"/><path d="m121.4 116.7-6.7 5.8a6 6 0 0 1-8.7-.6L26.6 26l10.2-7.7 85.1 89.8a6 6 0 0 1-.5 8.6" style="fill:#a06841"/><path d="m33.8 34.8 19 22.8a44 44 0 0 0 5.6-16.5L40 21.9a17 17 0 0 0-3.7 4.3 20 20 0 0 0-2.6 8.6" style="fill:#7d5133"/><path d="M71.3 5C54 4.6 47.5 6.2 37.9 14.5L29.2 22c-3.2 3-7.4 5.2-6.7 10 .2 1.8.8 3.5.5 5.2a2.4 2.4 0 0 1-3.6 1.5c-1.2-.9-2.6-2-4.1-2.1q-2.4-.2-4 1.3l-6.8 6s-1 3.8 6.6 12.3 12.3 8 12.3 8l6.3-5.6q1.7-1.5 1.6-3.7c0-1.7-1-3-1.5-4.4-.2-.3-.8-1.3.3-2.2 1-.9 3-.6 4.2-.3l3.4 1.1c2.2.6 3.3-.4 4.9-1.8L55 36.4c5.6-4.9-3-13.3-3-13.3-4-4.5 20.4-16 20.4-16 1.7-.5 1.2-2.1-1.2-2.2" style="fill:#82aec0"/><path d="M37.7 49q.7.3 1.2.2V49c0-1-.7-2-1.3-3a65 65 0 0 0-15-16q-.3.9-.1 2c.2 1.7.8 3.4.5 5.1-.4 1.8-2.2 2.3-3.6 1.6q5.6 3.6 9 9.2l1 1.6q0-.8.7-1.3c1-.9 3-.6 4.2-.3zM17 51.2c5.3 5.5 8.2 11.2 6.6 12.7-1.6 1.6-7.2-1.6-12.5-7.1S3 45.3 4.5 43.8c1.6-1.6 7.2 1.8 12.5 7.4" style="fill:#2f7889"/><path d="M37.5 22.7c4.2-1.8 8-5.6 12.8-9.8q2.2-1.9 5-3.2c.7-.4.4-1.4-.3-1.4q-3.7.2-7 1.8a38 38 0 0 0-8.4 5.5l-8.7 7.2c-.5.4-.1 1.1.5 1.1 2 0 3 .1 6.1-1.2M11.1 40.2c-1.8 2 .5 2.5 4.5 5.8 2.8 2.3 5.8.1 5.8-2 0-2-.5-3-3.3-4.8s-5.4-.8-7 1" style="fill:#b9e4ea"/></svg>