<svg xml:space="preserve" width="16" height="16" viewBox="0 0 128 128"><path d="m44.8 33.4-27.4 5.8 4.4 39.3 5.5 30.3s4.6 4.9 10.4 4.7 8.4-3.7 8.4-3.7 8.7 4.8 21.6 4.4c16.3-.5 23.5-6.2 23.5-6.2s4.8 2.3 9.4 1.8c7-.9 10.5-6.4 11.2-11 .7-5-.4-7.2-.4-7.2s8.9-10 11.8-25.2-1.3-29.3-3.5-32.1-14.2 34.1-14.2 34.1l-10.8 4.8-3 3.8-17 15.3-8.6-.4c-2.3-.3-12.1-2-19.3-8s-18.2-15-19.2-28c-1.4-18.5 17.2-22.5 17.2-22.5M74 31s27.2-2 27.3-1.4l.4 14.5s-6.4-9-16.5-3.3C79.3 44.1 79 52.3 79 52.3s3.2 3.3 3.4 7.4-1.5 8-1.5 8l7 5.8-14.4 17.8-4-5.1-2.2-3.2-8.4 9.4s-15.6-4.1-15-6.2c.5-2 25.8-28.3 25.6-31-.3-2.8 4.9-24.5 4.6-24.2" style="fill:#ad5834"/><path d="M59.6 104.4a36 36 0 0 0 26.6-4s-11.6-10.1-11.6-9.8a11 11 0 0 1-4.6 1.3l-4.5-.1s-2.3 3.3-3.7 6.4zM65.8 26c-1.1-1-14.3-15-37.8-7.6C4.4 26-3.3 59.5 11.1 81.3c8 12.3 13.2 15.1 13.2 15.1l11.7-16s-16.7-12.3-12.7-29c4.7-18.8 23.2-12.3 27-8.5 3.6 3.8 2.4 3 2.4 3z" style="fill:#e17f16"/><path d="M61.2 28c-.5-.7-9.2 4.8-11.3 14.8-2.2 10.6.8 16.4 2 18.8a14 14 0 0 0 2.9 3.8l3.5-7s-.7-8.3.7-16.5 2.6-13.1 2.2-13.9m15.5 29.6s-2.4-6-9.6-5.8c-5.8 0-12.6 8.4-23.9 19.7-8.4 8.4-16.1 15.2-19 20.7-4.6 8.4 1.6 14.9 1.6 14.9l30-39.3zm-3.9 25.2-3 3.8s6.3 8.3 10.3 12.4c4.6 4.7 8.6 9 14 10 4 .7 7.7-1.4 7.7-1.4s-4.1-4-9.2-8.5a545 545 0 0 0-19.8-16.3" style="fill:#ffb502"/><path d="M84.4 70.6s-4 3.4-7.4 7c-3.3 3.7-5.3 6.6-5.3 6.6s11.7 13.3 19.4 18.2 10.7 5.2 10.7 5.2 5.7-2.8 5.8-8.8-4.3-13.6-10-17.9z" style="fill:#e47d17"/><path d="M94.7 73.2s3.6 1.6 6.7 4c3 2.5 7 7 7 7s9.3-9.9 12.7-25.6c2.6-11.8 2.4-23-6.1-32.6-9.5-10.5-20.3-12.3-32.2-10.8s-20.8 8.3-26 20.2c-5.4 12.3.9 22 .9 22s5.8-4.3 8.9-4.9c3.9-.8 6.5 1 6.5 1s.8-7.4 4.7-12.3a14 14 0 0 1 14.7-4.4c14.8 4.1 9.2 22 7.4 26.5-1.9 4.8-5.2 10-5.2 10" style="fill:#e07f14"/><path d="M42.6 108c-3 3.5-9.6 5.4-15 .8-6.5-5.3-.4-14.5 5.8-21.4C40 80.3 55.6 64.2 60 60.6c4.7-3.8 10-7.5 13.6-6.2 3.7 1.3 5 6.7 3.8 11.6-1 3.8-5.6 8.3-9.4 12-1.5 1.4-6.1 5.8-10.8 11.4-6.3 7.5-11.1 14.5-14.6 18.5" style="fill:#e47d17"/><path d="M93.7 90.4c-.5.7 1.3 4.9 2.3 4.8s3.4-3 3.2-4.1c0-1-4.9-1.3-5.5-.7" style="fill:#fff"/><path d="M65 63.6c-.2.7 1.9 5.9 2.6 5.8s4-5.3 3.8-6c-.2-.6-6-.6-6.3.2M53.5 79.2c-1-.8-3-1-4.2.6q-1.5 2.5.7 4.1c1 .7 3 .7 3.9-.7.8-1.2 1-2.8-.4-4m-26-3.2c-.9-.8-2.8-1-3.8.5q-1.3 2.3.7 3.8c.8.6 2.7.6 3.4-.7.7-1.1.9-2.6-.3-3.6M17.1 61.8c.9-.8 1.4-2.7 0-4q-2-1.4-3.8.3c-.7.7-1 2.9.2 3.8q1.7 1.5 3.6-.1m-6.3 11.5c-.2 1 3.4 4.4 4 4.3s2.2-6.4 1.7-6.7-5.6 1.8-5.7 2.4m10.6-41.8c-.6-.1-3.4 4.7-3 5.3s5 .6 5.3 0c.4-.5-1.3-5.2-2.3-5.3m3.6-8.3c-.3 1 4.2 4.6 4.8 4.5.8-.1 3.3-5 2.8-6.1-.3-.7-7.5.9-7.7 1.6m18.6 3.5c0 1.7 1.3 2.4 2.5 2.4 1.3 0 2.5-1 2.4-2.8S46.7 24 45.7 24c-1 .1-2.3 1.1-2.2 2.5m20.1 17c0 .7 3.6 4.5 4.8 4 .8-.2 1.1-6.2.2-6.6s-5 1.8-5 2.6m5.2-16.1c-.1.6 3 4.3 3.8 4 .9-.2 1.9-5.5 1.7-5.8-.3-.7-5.3.8-5.5 1.8m25 2.4c.7-.7-.6-5.3-1.5-5.3s-4.2 3.8-3.4 4.8 4.1 1.4 5 .5m12.6 10.4c.4 1.1 5 1.6 5.8 1 .9-.7-1.5-5.2-2.4-5.4-1-.1-3.8 3.3-3.4 4.4m-5.2-16.6q-.9 2.1 1.2 3.4c1.4.7 2.8-.1 3.2-1 .7-1.5 0-3-1-3.6-1.3-.6-2.9-.1-3.4 1.2m3.6 37.6c-.4 1 1.2 3.5 2.1 3.4s2.9-4.3 2.3-5-4 .7-4.4 1.6M113 54a3 3 0 0 0 .5 3.9c.8.7 3 1 3.9-.7 1-1.7 0-3.2-.8-3.7-1-.5-2.7-.7-3.5.6" style="fill:#fdffff"/></svg>