<svg xml:space="preserve" width="16" height="16" viewBox="0 0 128 128"><path d="M9.2 43.3s-2.7 1.4-3.7 2.6q-1.7 1.6-1.6 3.6c.4 2.8 10 10 16.5 16.6 5.5 5.5 17.3 15.8 17.3 15.8l5.6-5.8-9.6-12.4z" style="fill:#50352f"/><path d="m79.9 37.5-16.3-17C59 15.9 49.8 5.6 48.8 4.9s-3.5-1.2-5 .3L28.3 21.6 5.5 45.9s2-1.2 4 .7l31.3 30.7 27.4-10.8z" style="fill:#865c50"/><path d="M46.7 73.8 17.7 46q-.7-.9 0-1.8L46 14.4q.3-.3.9-.3.4 0 .9.3l27.6 28-1.8 1.8L47 17.1 20.3 45l28 26.8z" style="fill:#50352f"/><path d="M45.5 24.9H48v36.2h-2.5z" style="fill:#50352f" transform="rotate(-45.1 46.74 43)"/><path d="M22.8 39.1h40.7v2.5H22.8z" style="fill:#50352f" transform="rotate(-46.7 43.12 40.36)"/><path d="M33.4 49.6h39.5v2.5H33.4z" style="fill:#50352f" transform="rotate(-47.3 53.2 50.86)"/><path d="m48.4 80.7-.7 7 14.4 14.7c4 4 17.7 16.3 17.7 16.3s6.9-3.2 7-3.9c.3-.7 35-37.4 35-37.4L104.3 60A491 491 0 0 1 90 44z" style="fill:#dc0d28"/><path d="m90.2 52.6 3.5 6.4c.5 1.1 1.3 3 0 3.5-1.7.7-15.7 3.8-15.7 3.8s-.3 14.1-1.7 15.6c-1.7 1.6-24.4 3.7-25.1 3.8-1.4.2-.2 1.4.6 2.4l29.7 28.5-1.5 5.8-2.9-2.4-18-17.5c-9.3-9-17.3-17.3-17.3-17.3l43-36z" style="fill:#b0091b"/><path d="m83.9 116-2.9.3-3.9 3.7s3 3.8 4.6 4 19.3-19.2 24.7-24.5 18.3-18.6 18.3-19c0-1.2-3-3.1-3-3.1z" style="fill:#b0b3af"/><path d="M83.6 118.7c.3-.6 39.8-40 39.8-40l-2.5-2.1L81 116.3z" style="fill:#e4e0e8"/><path d="m66 46 8.4-3.6s4.3-5.6 4.8-6c.5-.6 6.6-1 6.6-1l5.2 4.2 1.4 5.8c.2 1 2.2 8.5 1.4 10.7-.7 2-16 5.5-17.6 6-1 .2-.7.9-.9 2.4-.1 1-.5 11.7-1.4 12.9-.9 1-10 2.6-13.1 3.2L47.4 83l-3 4.4s.4 1.6-.7 2.1c-1 .5-3.8-.8-4.3-1.4s-4.1-7-3.7-8 4.3-6.4 5-6.8c.7-.5 6.2-1.8 6.2-1.8s5.2-13.7 6.3-14.8C54 56 63.4 52 63.4 52z" style="fill:#e0e0e0"/><path d="M68.3 48.8c-.7 0-2.1 7.8-2 8.3.3.4 14.4.2 14.5-1s-10.4-7.4-12.5-7.3m20.4-6c.3.9-3 4-3.3 4S78 45 77.8 43.4c-.2-1.4 4-1.2 5.9-1.2 1.8 0 4.8 0 5 .6M55 60.6c-1.4-.7-4.6 8.2-5 9.3-.6 1.4 2.4 2 4.1 2a45 45 0 0 0 11.5 0c.3-1.3-8.6-10.4-10.6-11.3M41.8 75.9c-1.3.6 2.3 11.4 2.6 11.4s3-4.4 3-4.4-4.2-7.6-5.6-7" style="fill:#fff"/></svg>