<svg xml:space="preserve" width="16" height="16" viewBox="0 0 128 128"><path d="M111.4 113.3H16.6a5 5 0 0 1-4.9-4.8V42a13 13 0 0 1 12.6-13.1h79.4c7 0 12.6 5.9 12.6 13.1v66.5c0 2.7-2.2 4.8-4.9 4.8z" style="fill:#fafafa;stroke:#bdbdbd;stroke-width:3;stroke-miterlimit:10"/><path d="M112.1 4h-4.8q-1.6.1-1.8 1.8V10q0 1.1 1 1.6a5.8 5.8 0 1 1-6 0q1-.6 1-1.6V6c0-1-.8-1.9-1.8-1.9H28.3q-1.7.1-1.8 1.8V10q0 1 1 1.6a5.8 5.8 0 1 1-6 0q1-.7 1-1.6V5.8q-.2-1.6-1.8-1.8H16a6 6 0 0 0-6 5.8v37.5h107.6l.2-37.5c0-3.2-2.6-5.8-5.8-5.8" style="fill:#f44336"/><path d="M45 15.5h4.2v13.8q0 2-.8 3.4a5 5 0 0 1-2.4 2.2q-1.5.9-3.5.8-3 0-5-1.6a6 6 0 0 1-1.7-4.5H40q0 1.5.6 2.1t2 .7q1 0 1.8-.8.7-.8.7-2.3V15.5zM61.4 34a5 5 0 0 1-4 1.7q-2.5 0-3.7-1.4t-1.3-4v-9.7h4v9.6q0 2.4 2 2.3 2 0 2.8-1.4V20.6h4v14.9h-3.7zm11 1.5h-4V14.4h4zm8.8-5.7 2.8-9.2h4.2l-6 17.1-.3.8q-1.3 3-4.4 3-.8 0-1.7-.3v-3h.6q1.1 0 1.6-.4.6-.3 1-1.1l.4-1.2-5.2-15h4.3z" style="fill:#fff"/><path d="M53.2 102.3h-8.6v-33l-10.2 3.1v-7l17.9-6.3h1zm40.4-38.4-16.7 38.4h-9L84.5 66H63v-6.9h30.5z"/></svg>