<svg xml:space="preserve" width="16" height="16" viewBox="0 0 128 128"><path d="m78.7 52.9-18.5-16 6.9-5.2S87 20.6 106 34c18.6 13.2 16.9 52.5 2.4 70.4s-24.4 19-29.9 18.8-6.3-2.8-11.6-2.2-7 3.5-16.7 2.8c-8.8-.7-16-4-19.6-8-3.3-3.6 48.1-63 48.1-63" style="fill:#6ea517"/><path d="M100.2 34.4s-8 3.4-15.8 4c-8 .7-22.1-.4-22.1-.4s-1.6-8.3-2-8.3c-.5 0-21.3-7.2-36.6 4.2-16 12-17.6 35.5-15 46.7 5.9 25.6 24.8 37.7 24.8 37.7s16.8 1.9 38-7.4 39.4-25.7 39-47.6c-.5-23.3-10.3-28.9-10.3-28.9" style="fill:#87c244"/><path d="M37.7 38.9c-2.7-3.1-10.1-2.4-16 5.8-6 8.6-6.2 24.4-1.3 24.8 4.1.4 5.2-6.5 7.7-11.4 4.6-9.1 15.8-12 9.6-19.2" style="fill:#e5dd9f"/><path d="M44.3 35.4c-1.2 2.4 2.7 8.5 17.3 9 15.4.5 20.5-8.1 18.7-10.1-1.7-2-7.5 1.3-18.4 1.2s-15.6-4.4-17.6-.1" style="fill:#59702c"/><path d="M51.9 18.6c-1.2-.2-6-1-6.5-2.9-.2-.9 1-3.8 4-5.9s6.1-2.7 6.8-1c.7 1.6.5 2.7.5 3 0 .4 2.4 3.2 4 6.8a32 32 0 0 1 3.5 15c-.2 3.7-.2 9-2.3 8.5-2.2-.3-1.8-5.5-2.9-9.1a34 34 0 0 0-7-14.4" style="fill:#513532"/><path d="M82.6 24.4c.2-.4 24.6-15.7 24.7-16.6s-12.6-3.2-20.6-.2-16.3 7.6-20.2 15.8c-3.2 6.6-3.2 11-2.4 12.1.4.5 18.5-11.1 18.5-11.1" style="fill:#2f7c31"/><path d="M79.9 23.4c10.7-6.8 27.4-15.6 27.4-15.6s.5 1.3-2.7 6.8a47 47 0 0 1-24.1 19.6C69.6 37.4 64 35.5 64 35.5s7.3-6.7 15.8-12" style="fill:#4c8c19"/></svg>