<svg xmlns:xlink="http://www.w3.org/1999/xlink" xml:space="preserve" width="16" height="16" viewBox="0 0 128 128"><path d="M118.8 76.8c-2.9-.3-6.9-1-9.6-3-15.1-11-28-19.7-39.4-29.6-4.6-4-11.3-7.8-20.9-4.1-8 3-21.6 8.2-28.3 10.1-6.1 1.7-10 4.9-10 13.1 0 5 1.6 14.5-.7 20.8-1.5 4.2-3 8.1-1.8 10.5s3.5 2.8 5.4 3c-.5 2.5.2 7 4.8 7.1 3.1 0 6-1.6 6-1.6a12 12 0 0 0 3.5 1.5c2.9 4.5 4.6 9.1 7.8 9.7 1 .2 3.5.1 5.2-1 4.3-2.8 3-8.7 2.4-10.5l2.8-1.3c3.1 3 6.6 7.4 8.2 8.6a6 6 0 0 0 6.9.3c1.9-1.3 3.2-3.3 2.4-6.9a45 45 0 0 0 27.6 11c6.1.2 8.8-1.1 15.2-1.2 4.2-.1 7.2 1 9.1.9q1-.1 1.7-1c2.8-3.5 5.6-27.2 3.3-35.1q-.4-1.4-1.6-1.3" style="fill:#f9ddbd"/><defs><path id="a" d="M118.8 76.8c-2.9-.3-6.9-1-9.6-3-15.1-11-28-19.7-39.4-29.6-4.6-4-11.3-7.8-20.9-4.1-8 3-21.6 8.2-28.3 10.1-6.1 1.7-10 4.9-10 13.1 0 5 1.6 14.5-.7 20.8-1.5 4.2-3 8.1-1.8 10.5s3.5 2.8 5.4 3c-.5 2.5.2 7 4.8 7.1 3.1 0 6-1.6 6-1.6a12 12 0 0 0 3.5 1.5c2.9 4.5 4.6 9.1 7.8 9.7 1 .2 3.5.1 5.2-1 4.3-2.8 3-8.7 2.4-10.5l2.8-1.3c3.1 3 6.6 7.4 8.2 8.6a6 6 0 0 0 6.9.3c1.9-1.3 3.2-3.3 2.4-6.9a45 45 0 0 0 27.6 11c6.1.2 8.8-1.1 15.2-1.2 4.2-.1 7.2 1 9.1.9q1-.1 1.7-1c2.8-3.5 5.6-27.2 3.3-35.1q-.4-1.4-1.6-1.3"/></defs><clipPath id="b"><use xlink:href="#a" style="overflow:visible"/></clipPath><g style="clip-path:url(#b)"><path d="M121.2 102.4c-11.2-4-15.4 6.7-32.6 2.6-9.6-2.3-18-10.9-24.5-12.2L54 90.7q-5-1.4-7.3.7c-1.5 1.5-6.7 6.9-14.4 7.8-1.5.2-2.5.6-2.5 2.8 0 1.1-2.1 6-2.4 7.5-.3 1.6-1.6 7 10.7 7.9s80.9 1.9 80.9 1.9zm.6-23-6.7-.3c-.9-.1-2.9-.1-5.3-1.7S78.5 54.1 78.5 54.1s-15.4 7-20.1 19.9c-.4 1.1-8.2.6-8.2.6l-20.9 6.1V67.9l16-4.8 24.9-23.7 53.4 35.3zM59.9 35l4.5 2.4s-4.4 5.9-5.3 5.5-2.1-1.7-5.6-.8-32.6 11.2-33.9 11.6c-2.1.7-5.6 2.6-6 6.3-.9 9.7 1 20.3-2.4 26.3-1.9 3.3-2.3 8.8 2 8.8 3.2 0 7-1.1 7-1.1l.3 11.4-11.2.6-5.6-20.8 5.5-34.6z" style="fill:#efb682"/></g><defs><path id="c" d="M118.8 76.8c-2.9-.3-6.9-1-9.6-3-15.1-11-28-19.7-39.4-29.6-4.6-4-11.3-7.8-20.9-4.1-8 3-21.6 8.2-28.3 10.1-6.1 1.7-10 4.9-10 13.1 0 5 1.6 14.5-.7 20.8-1.5 4.2-3 8.1-1.8 10.5s3.5 2.8 5.4 3c-.5 2.5.2 7 4.8 7.1 3.1 0 6-1.6 6-1.6a12 12 0 0 0 3.5 1.5c2.9 4.5 4.6 9.1 7.8 9.7 1 .2 3.5.1 5.2-1 4.3-2.8 3-8.7 2.4-10.5l2.8-1.3c3.1 3 6.6 7.4 8.2 8.6a6 6 0 0 0 6.9.3c1.9-1.3 3.2-3.3 2.4-6.9a45 45 0 0 0 27.6 11c6.1.2 8.8-1.1 15.2-1.2 4.2-.1 7.2 1 9.1.9q1-.1 1.7-1c2.8-3.5 5.6-27.2 3.3-35.1q-.4-1.4-1.6-1.3"/></defs><clipPath id="d"><use xlink:href="#c" style="overflow:visible"/></clipPath><g style="clip-path:url(#d)"><path d="M95.9 60.1c-1.5 1.2-4 3.9-7.3 1.6-4.7-3.3-16.8-12.3-18.1-13.3l2.6-4.3zm-49.6-.8L31 65.5c-.6.2-1.2.5-1.8-.3s-3.3-4.9-6.4-5.1c-.9 0-1.2.8-.7 1.3 1.6 1.7 4.8 5 5 9.5.5 8.9-3.2 17.8-10.2 23-1.7 1.2-6.3 2.7-9.8-.6-1.2-1.3-2.4-.3-2.3.5.3 1.9 2.4 4.7 8.7 3.8 2.4-.3 4.9-1.5 6-3.1-1.3 7.2 3.2 9.3 11.6 10.1a24 24 0 0 0 12.2-1.9l2.8-1.3 2.7-1.2q.4-.5 1.5-.3l9.1 1c.5.1 1-.1 1.6.4l2.6 2c1 .8 6.5 14 20.1 14.3 10.2.3 34.7 0 34.7 0l2.4-5.3c-1.1-.5-8.7-1.5-10.1-1.8s-4.1-.3-6.2-.1c-7.6 1-15.2 1.2-21.6-.6-8.5-2.4-15.1-7.4-21-11.1-.9-.6-1.5-1-2.8-1.1l-8.4-.9c-.5-.1-2 0-2.9.5-10.6 6.3-25.3 7-26.1-4.5q-.3-3 2.9-5.6C26.3 85.8 43.7 76 43.7 76l7.3 1.1 13 .5 1.7-.3c2.8-1.2 8.2-2.8 14.5-2.2 1.8.2 1.8-1.8.4-2.1-.7-.1-7.7-1.6-14.8 1.2-1.4.6-1.8.4-5.5.5a2 2 0 0 1-1.5-.6l-5.9-4.8-16.3 2.8-6.2 3.4s.4-2.2.2-4.8c3.5-1.5 12.8-5 12.8-5z" style="fill:#b26830"/></g><defs><path id="e" d="M51.6 77.1c-3.7-.1-6.3-.7-9.2 1.2-3.3 2.2-10.9 6.2-16.8 8.4-1.7.7-5.5 3.9-5.7 7.4-.2 4.1 2.3 9.7 11.2 10.4-3.8 5.5-3.8 6.9-3.8 6.9L14.4 118l-3.7-2.6L13 91.6 83.1 2.3 101.8 14z"/></defs><clipPath id="f"><use xlink:href="#e" style="overflow:visible"/></clipPath><g style="clip-path:url(#f)"><path d="m94.6 17.3-64.1 87.8c-1 1.3-1.7 1.7-2.7 2.5s-9.6 5.6-11 6.4-3.1-.7-2.9-2l2.6-12.4q.4-1.7 1.5-3.4c1.1-1.7 64.2-87.9 64.2-87.9a4 4 0 0 1 3.3-1.5c3.6.4 8.2 4 9.4 6.8q.9 2-.3 3.7" style="fill:#78909c"/><path d="M43 68.9q1.2.8 2.3-.4c6.2-8.2 40.3-54.4 42.3-56.9 1.2-1.6-2.5-4.3-4.3-2.1l-40.7 57q-.7 1.5.4 2.4" style="fill:#82aec0"/></g></svg>