<svg xml:space="preserve" width="16" height="16" viewBox="0 0 128 128"><path d="M64 14a50 50 0 1 1-.1 100.1A50 50 0 0 1 64 14m0-10a60 60 0 1 0 0 120A60 60 0 0 0 64 4" style="fill:#d68b52"/><path d="M64 14a50 50 0 1 1-.1 100A50 50 0 0 1 64 14m0-3a53 53 0 1 0 0 106 53 53 0 0 0 0-106" style="fill:#784d30"/><path d="M111.2 77.5 73.8 65.3 112.2 53a3 3 0 0 0-1.9-5.7L72 59.6l24-33a3 3 0 0 0-4.9-3.5l-24 33V14.8a3 3 0 1 0-6 0v41.3L37.1 23a3 3 0 1 0-5 3.5l24.2 33.2L17.7 47a3 3 0 0 0-1.9 5.7l38.6 12.6-37.7 12.2a3 3 0 1 0 1.9 5.7L56.3 71l-23 31.6a3 3 0 1 0 5 3.5L61 74.6v38.3a3 3 0 1 0 6 0V74.5l23 31.6a3 3 0 1 0 4.8-3.5L72 71l37.4 12.2 1 .1a3 3 0 0 0 2.8-2 3 3 0 0 0-2-3.8M64 73.7a8.2 8.2 0 1 1 0-16.3 8.2 8.2 0 0 1 0 16.3" style="fill:#a65f3e"/><path d="M64 55a10.5 10.5 0 1 0 0 21 10.5 10.5 0 0 0 0-21m0 13.5a3 3 0 1 1 0-6 3 3 0 0 1 0 6" style="fill:#d68b52"/><path d="M64 62.5a3 3 0 1 1 0 6 3 3 0 0 1 0-6m0-2a5 5 0 1 0 0 10 5 5 0 0 0 0-10" style="fill:#784d30"/></svg>