<svg xml:space="preserve" width="16" height="16" viewBox="0 0 128 128"><path d="M85 79.9c-1.3-2.3.2-4.6 3-7.5 4.3-4.5 8-17.6-.5-26.5 0-.1-.9-1.9-.8-2h-1.8c-.6-.1-15.2.6-34.9.6H13l-.7 1C4.7 53.2 4 65 12.1 72.4c2.8 2.7 4.3 5.2 3 7.4s-4.8 2.6-4.8 2.6.8 2.2 2.8 3.4 4.2 1.4 5.7 1.5c0 0 6.2 8.5 22.3 8.5H59c16 0 22.2-8.5 22.2-8.5 1.6 0 3.9-.3 5.7-1.4 2-1.3 2.8-3.5 2.8-3.5s-3.6-.3-4.8-2.6" style="fill:#ab872f"/><radialGradient id="a" cx="113.6" cy="45.8" r="23.4" gradientTransform="matrix(1 0 0 .491 -49.04 59.63)" gradientUnits="userSpaceOnUse"><stop offset=".7" style="stop-color:#bfa055;stop-opacity:0"/><stop offset="1" style="stop-color:#bfa055"/></radialGradient><path d="M50 95.8v-9.4L78.6 84l2.6 3.2s-6.2 8.5-22.3 8.5z" style="fill:url(#a)"/><radialGradient id="b" cx="90.6" cy="49.3" r="6.9" gradientTransform="rotate(155 84.43 57.3)scale(1 .742)" gradientUnits="userSpaceOnUse"><stop offset=".7" style="stop-color:#bfa055"/><stop offset="1" style="stop-color:#bfa055;stop-opacity:0"/></radialGradient><path d="M81.1 83.2c-4.3-6.5 5.2-9 5.2-9-1.6 2-2.4 3.9-1.4 5.6 1.2 2.3 4.8 2.6 4.8 2.6s-4.9 4.3-8.6.8" style="fill:url(#b)"/><radialGradient id="c" cx="108.4" cy="69.4" r="31.1" gradientTransform="rotate(-94.3 89.5 76.12)scale(1 .833)" gradientUnits="userSpaceOnUse"><stop offset=".7" style="stop-color:#bfa055;stop-opacity:0"/><stop offset="1" style="stop-color:#bfa055"/></radialGradient><path d="M87.5 45.9c7.2 7.6 6.2 18.8.7 26.3-.5.6-3 3-3.6 4.9 0 0-9.5-13.3-12.3-21.2q-1-2.3-1.2-4.8-.2-2.1.9-3.9c.8-1.3 15-2.5 15-2.5z" style="fill:url(#c)"/><radialGradient id="d" cx="30.3" cy="69.5" r="31.5" gradientTransform="rotate(-85.7 93 .25)scale(1 -.833)" gradientUnits="userSpaceOnUse"><stop offset=".7" style="stop-color:#bfa055;stop-opacity:0"/><stop offset="1" style="stop-color:#bfa055"/></radialGradient><path d="M12.3 45.5c-8 8.2-7.8 19.8-.5 26.7.6.5 3 3 3.6 4.9 0 0 9.5-13.3 12.4-21.2q.9-2.3 1.2-4.8.1-2.1-1-3.9c-.8-1.3-1.8-1-3.4-1-2.8 0-10.5-1.8-11.5-1.8z" style="fill:url(#d)"/><radialGradient id="e" cx="35.4" cy="45.8" r="23.4" gradientTransform="matrix(-1 0 0 .491 70.9 59.63)" gradientUnits="userSpaceOnUse"><stop offset=".7" style="stop-color:#bfa055;stop-opacity:0"/><stop offset="1" style="stop-color:#bfa055"/></radialGradient><path d="M50 95.8v-9.4L21.5 84l-2.6 3.2S25 95.8 41 95.8z" style="fill:url(#e)"/><radialGradient id="f" cx="12.4" cy="49.3" r="6.9" gradientTransform="rotate(205 4.68 54.88)scale(-1 .742)" gradientUnits="userSpaceOnUse"><stop offset=".7" style="stop-color:#bfa055"/><stop offset="1" style="stop-color:#bfa055;stop-opacity:0"/></radialGradient><path d="M19 83.2c4.2-6.5-5.3-9-5.3-9q2.7 3 1.4 5.6c-1.2 2.3-4.8 2.6-4.8 2.6s5 4.3 8.6.8" style="fill:url(#f)"/><linearGradient id="g" x1="50" x2="50" y1="32.3" y2="-3.2" gradientTransform="matrix(1 0 0 -1 0 128)" gradientUnits="userSpaceOnUse"><stop offset="0" style="stop-color:#303f9f"/><stop offset=".5" style="stop-color:#273492"/><stop offset="1" style="stop-color:#1a237e"/></linearGradient><path d="M50 95.7c-22.5 0-46 7.3-46 25.1v3.2h92v-3.2c0-16.8-23.3-25-46-25" style="fill:url(#g)"/><linearGradient id="h" x1="107.7" x2="107.7" y1="20.9" y2="4" gradientTransform="matrix(1 0 0 -1 0 128)" gradientUnits="userSpaceOnUse"><stop offset="0" style="stop-color:#303f9f"/><stop offset=".5" style="stop-color:#273492"/><stop offset="1" style="stop-color:#1a237e"/></linearGradient><path d="M113.8 120.8q-.1-8-8.6-13.7l-3.5 16.9h12z" style="fill:url(#h)"/><path d="M106.2 109.7q6 4.9 6 11.1v3.2h3v-3.2c0-6.8-4.2-12.1-11-16.1l-4 19.3h3z" style="fill:#1b2b8f"/><path d="M50 92.4h-9v10a8 8 0 0 0 8.2 8.1h1.6c4.6 0 8.3-3.6 8.3-8.1v-10z" style="fill:#c48e6a"/><path d="M57 94.4v8a6 6 0 0 1-6.2 6.1h-1.6a6 6 0 0 1-6.3-6.1v-8zm2-2H41v10a8 8 0 0 0 8.2 8.1h1.6c4.6 0 8.3-3.6 8.3-8.1z" style="fill:none"/><path d="M77.3 50.5H22.7c-6 0-10.7 5.1-10.7 11.4s4.8 11.4 10.7 11.4h54.6c6 0 10.7-5.1 10.7-11.4s-4.8-11.4-10.7-11.4" style="fill:#c48e6a"/><path d="M50 11.1c-17.4 0-33.5 18.6-33.5 45.4S33 96.3 50 96.3s33.5-13.2 33.5-39.8c0-26.8-16.1-45.4-33.5-45.4" style="fill:#e0bb95"/><path d="M58.3 76.1a25 25 0 0 1-16.6 0c-1.8-1-3.6.6-2.9 2.3s6.4 5.3 11.2 5.3 10.5-3.7 11.2-5.4c.8-1.6-1-3.2-2.9-2.2" style="fill:#6d4c41"/><path d="M53.8 68h-7.6q-1.1.5-.7 1.7c.3.7 1.7 2.6 4.5 2.6s4.2-2 4.5-2.6q.4-1.2-.7-1.6" style="fill:#c48e6a"/><ellipse cx="33.6" cy="58.8" rx="4.9" ry="5.1" style="fill:#5d4037"/><ellipse cx="66.4" cy="58.8" rx="4.9" ry="5.1" style="fill:#5d4037"/><path d="M41 49.8c-1-1.2-3-3-7.2-3s-6.3 1.8-7.3 3q-.5 1 0 1.6t2 .4c1.4-.2 2.5-1.2 5.3-1.2s4.5.9 5.3 1.2q1.5.3 2-.4t-.1-1.6m32.5 0c-1-1.2-3-3-7.2-3s-6.4 1.8-7.3 3q-.5 1 0 1.6t1.9.4c1.4-.2 2.5-1.2 5.3-1.2 2.9 0 4.5.9 5.4 1.2q1.4.3 1.9-.4t0-1.6" style="fill:#ab872f"/><path d="M59.3 104.6H39.4l8 19.4h5z" style="fill:#f5f5f5"/><linearGradient id="i" x1="30.6" x2="41.3" y1="28.7" y2="2.8" gradientTransform="matrix(1 0 0 -1 0 128)" gradientUnits="userSpaceOnUse"><stop offset="0" style="stop-color:#5c6bc0"/><stop offset="1" style="stop-color:#3949ab"/></linearGradient><path d="m40.9 96-7.8.9-8 17.2 10.9-4.3 9.5 14.2h2.7z" style="fill:url(#i)"/><linearGradient id="j" x1="69" x2="61.2" y1="29.9" y2="2.7" gradientTransform="matrix(1 0 0 -1 0 128)" gradientUnits="userSpaceOnUse"><stop offset="0" style="stop-color:#5c6bc0"/><stop offset="1" style="stop-color:#3949ab"/></linearGradient><path d="m67 96.9-7.9-1-7.3 28.1h3l10-14 10.1 4.1z" style="fill:url(#j)"/><linearGradient id="k" x1="110.1" x2="98.9" y1="75.4" y2="4.9" gradientTransform="matrix(1 0 0 -1 0 128)" gradientUnits="userSpaceOnUse"><stop offset="0" style="stop-color:#90a4ae"/><stop offset=".3" style="stop-color:#889da8"/><stop offset=".6" style="stop-color:#78909c"/><stop offset="1" style="stop-color:#607d8b"/></linearGradient><path d="M121.8 56.7q-.5-.8-1.5-.8-1.3 0-1.6 1.3l-1.5 8q-.1.8-1 1.2l-8 3.8-.7.2q-.8 0-1.3-.5l-6.1-6.5q-.6-.7-.5-1.5l1.5-7.9c.2-1.1-.7-2-1.7-2q-.6 0-1 .4a17.2 17.2 0 0 0-1.2 25.5 7 7 0 0 1 2.2 6.4L92.1 124h10.3l7-37.8q.8-3.8 4.3-5.3c5-2 9-6.7 10-12.6q1-6.3-1.9-11.6" style="fill:url(#k)"/><linearGradient id="l" x1="86.7" x2="111.9" y1="20.5" y2="20.5" gradientTransform="matrix(1 0 0 -1 0 128)" gradientUnits="userSpaceOnUse"><stop offset="0" style="stop-color:#cca47a"/><stop offset=".5" style="stop-color:#e0bb95"/></linearGradient><path d="m94.5 117.4-1.9 2.1s-5.7-1.2-5-4.5c.2-.8 1.6-2.4 1.6-2.4s-2.9-2.4-2.4-4c.4-1.5 3.1-2.8 3.1-2.8s-2-1.2-1.3-3.6c.6-1.6 3.6-2.2 3.6-2.2s-2.8-4 2.8-5c1.8-.2 5.8.4 9.3 3s5.2 4.2 6.9 7.7c2.5 5.2-2 14.2-5.4 14.3-2.8 0-11.3-2.7-11.3-2.7" style="fill:url(#l)"/><path d="M105.8 121c-2.6 0-9-1.9-11-2.5l-1.4 1.7a1 1 0 0 1-1 .3c-2.5-.6-6.5-2.3-5.8-5.7q.4-1 1.2-2.1c-1-1-2.4-2.8-2-4.4q.8-1.6 2.5-2.7a4 4 0 0 1-.6-3.7c.5-1.4 2-2.1 3-2.5q-.5-1.3 0-2.8.9-2 4.2-2.5c2-.3 6.2.2 10 3a19 19 0 0 1 7.2 8.1c1.8 3.7.4 9-1.6 12.2q-2.2 3.5-4.6 3.6zm-11.3-4.7.3.1c2.3.7 8.7 2.6 11 2.6q1.4 0 3-2.7c1.8-2.8 2.8-7.3 1.5-10.2-1.6-3.2-3-4.7-6.6-7.3a13 13 0 0 0-8.5-2.7c-1 .1-2.3.5-2.6 1.3s.4 2 .4 2q.3.5.1 1a1 1 0 0 1-.7.6c-1 .2-2.5.8-2.8 1.5a2 2 0 0 0 .9 2.5q.5.3.4.9 0 .8-.6.8c-1 .5-2.4 1.4-2.6 2.2-.1.5 1 2 2.1 2.9l.4.7q0 .3-.3.7-1.1 1.4-1.3 2c-.4 1.8 2.4 2.8 3.7 3.2l1.5-1.7q.3-.3.7-.4" style="fill:none"/><path d="M13 44.8c1.6 4.5 2.3 7.7 2.3 7.7-.5 8 1 13 1.8 15 .1.3.6.2.7-.1 1-4 4.4-17.8 4-20.2 0 0 11.4-2.3 22.2-10.3a32 32 0 0 1 7.1-4c13.6-5.4 16.5 3.9 16.5 3.9S77 35 79.8 48c1.1 5 1.8 12.8 2.4 18.3 0 .4.6.4.8 0 .9-2.1 2.8-6.4 3.3-10.8.1-1.6.9-3.8.7-10.7-.1-4.1-18.6-21-37-20.7-19.1.2-38.1 17.7-37 20.7" style="fill:#ab872f"/><linearGradient id="m" x1="50" x2="50" y1="89.1" y2="129.3" gradientTransform="matrix(1 0 0 -1 0 128)" gradientUnits="userSpaceOnUse"><stop offset="0" style="stop-color:#0068b5"/><stop offset=".8" style="stop-color:#4c8eea"/><stop offset="1" style="stop-color:#5e97f6"/></linearGradient><path d="M49.7 4.6c18 0 34.4 11.7 37.3 40.2 0 0-9.7-8-36.8-8C21 36.8 13 45.3 13 44.4 16.1 15.9 32.6 4.6 50.2 4.6z" style="fill:url(#m)"/><linearGradient id="n" x1="49.7" x2="49.7" y1="82.5" y2="108.3" gradientTransform="matrix(1 0 0 -1 0 128)" gradientUnits="userSpaceOnUse"><stop offset="0" style="stop-color:#0068b5"/><stop offset="1" style="stop-color:#5e97f6"/></linearGradient><path d="M27 34.5c0-18.8 8.9-28.9 22.7-28.9s22.8 10.5 22.8 28.9c0 14.9-10.7 3.1-22.8 3.1S27 49.4 27 34.5" style="fill:url(#n)"/><path d="M50 28.5c-21.6 0-32 11.9-32 11.9 0 2 2.2 5.5 7.2 6.3 7 1.1 11.5-4.5 24.9-4.5h.2c13.4 0 17.9 5.6 24.8 4.5C80 46 82 43 82 41c0 0-9.8-12.4-31.8-12.4" style="fill:#5e97f6"/></svg>