<svg xml:space="preserve" width="16" height="16" viewBox="0 0 128 128"><radialGradient id="a" cx="88.2" cy="51.5" r="56.4" gradientTransform="matrix(0 -1 1.826 0 -5.84 139.7)" gradientUnits="userSpaceOnUse"><stop offset=".2" style="stop-color:#febc45"/><stop offset=".2" style="stop-color:#f8ae44"/><stop offset=".3" style="stop-color:#e98b40"/><stop offset=".4" style="stop-color:#e0763e"/><stop offset=".5" style="stop-color:#dd6e3d"/><stop offset=".8" style="stop-color:#c05e5d"/><stop offset="1" style="stop-color:#a95e75"/></radialGradient><path d="M116.6 124.3H11.3a7.5 7.5 0 0 1-7.5-7.6V11.4C3.8 7.3 7.2 4 11.3 4h105.3c4.2 0 7.5 3.4 7.5 7.5v105.3c0 4.2-3.3 7.6-7.5 7.6" style="fill:url(#a)"/><radialGradient id="b" cx="25.5" cy="113.1" r="140.6" gradientUnits="userSpaceOnUse"><stop offset=".8" style="stop-color:#dd6e3d;stop-opacity:0"/><stop offset=".9" style="stop-color:#b86365;stop-opacity:.6509"/><stop offset="1" style="stop-color:#a95e75"/></radialGradient><path d="M116.6 124.3H11.3a7.5 7.5 0 0 1-7.5-7.6V11.4C3.8 7.3 7.2 4 11.3 4h105.3c4.2 0 7.5 3.4 7.5 7.5v105.3c0 4.2-3.3 7.6-7.5 7.6" style="fill:url(#b)"/><radialGradient id="c" cx="87.9" cy="113.7" r="112.2" gradientUnits="userSpaceOnUse"><stop offset=".4" style="stop-color:#fd960c"/><stop offset=".6" style="stop-color:#f2811b;stop-opacity:.662"/><stop offset=".8" style="stop-color:#ea7028;stop-opacity:.2833"/><stop offset="1" style="stop-color:#e76a2c;stop-opacity:0"/></radialGradient><path d="M116.6 124.3H11.3a7.5 7.5 0 0 1-7.5-7.6V11.4C3.8 7.3 7.2 4 11.3 4h105.3c4.2 0 7.5 3.4 7.5 7.5v105.3c0 4.2-3.3 7.6-7.5 7.6" style="fill:url(#c)"/><circle cx="91.9" cy="49.2" r="13.3" style="fill:#fef7b2"/><path d="M121.3 62.4h-19v21.9H60.2V18.8H28.6v65.4h-4.4v-35H12.3v42.6h9.5v25.4H119v-11h2.3z" style="fill:#d17757"/><path d="M32.4 25.1h2.4v7.6h-2.4zm5.1 0H40v7.6h-2.5zm7.8 0h-2.4v7.6h2.3z" style="fill:#3f737b"/><path d="M50.4 25.1h-2.6l.1 7.6h2.5zm-18 0h2.4v7.6h-2.4zm5.1 0H40v7.6h-2.5zm7.8 0H43v7.6h2.4zm5.1 12h-2.6l.1 7.6h2.5zm-18 0h2.4v7.6h-2.4zm5.1 0H40v7.6h-2.5zm7.8 0H43v7.6h2.4zm-12.9 12h2.4v7.6h-2.4zm5.1 0H40v7.6h-2.5zm7.8 0H43v7.6h2.4zm8.1-24v7.6h2.5v-7.6z" style="fill:#ffe066"/><path d="M105.5 81.2h2.9v3.9h-2.9zm5.8 0h2.9v3.9h-2.9z" style="fill:#ffb65a"/><path d="M105.5 73.8h2.9v3.9h-2.9zm5.8 0h2.9v3.9h-2.9z" style="fill:#ffc55c"/><path d="M105.5 66.8h2.9v3.9h-2.9zm5.8 0h2.9v3.9h-2.9z" style="fill:#ffd360"/><radialGradient id="d" cx="57" cy="23.3" r="100.4" gradientUnits="userSpaceOnUse"><stop offset=".5" style="stop-color:#911f4e"/><stop offset=".9" style="stop-color:#6d0c36"/></radialGradient><path d="M115 49.4c-.4.7 0 42.7 0 42.7H99.1v-24h-5v-7.7h-4.6V54h-8.2v6.9h-5.2V68h-5.3v35h-5V64H68v-7.5h-2.4V41H63l-3.5-11h-7.1l-3.6 11H46v15.4h-2.5V64H46v39h-7.2V68H17.2V28.4H3.8v88.2c0 4.2 3.4 7.6 7.5 7.6h105.3c4.2 0 7.5-3.4 7.5-7.6V49.4z" style="fill:url(#d)"/><path d="M5.7 116.2h30v2.4h-30z" style="fill:#fc7143"/><path d="M5.7 107.9h30v2.4h-30z" style="fill:#fc7444"/><path d="M5.7 99.2h30v2.4h-30z" style="fill:#fc7c47"/><path d="M5.7 90.9h30v2.4h-30z" style="fill:#fd894a"/><path d="M5.7 81.2h30v2.4h-30z" style="fill:#fda152"/><path d="M5.7 72.9h30v2.4h-30z" style="fill:#fcb95a"/><path d="M5.7 63.3h1.8V67H5.7zm6 0h1.8V67h-1.8zm-6-7.4h1.8v3.7H5.7zm6 0h1.8v3.7h-1.8zm-6-7.4h1.8v3.7H5.7zm6 0h1.8v3.7h-1.8zm-6-7.5h1.8v3.7H5.7zm6 0h1.8v3.7h-1.8zm-6-7.4h1.8v3.7H5.7zm6 0h1.8v3.7h-1.8z" style="fill:#fedc61"/><path d="M49.8 64.5h2.3v4.8h-2.3zm5.4 0h2.3v4.8h-2.3zm5.2 0h2.3v4.8h-2.3z" style="fill:#fece60"/><path d="M49.8 97.7h2.3v4.8h-2.3zm5.4 0h2.3v4.8h-2.3zm5.2 0h2.3v4.8h-2.3z" style="fill:#fe7a47"/><path d="M49.8 73.5h2.3v4.8h-2.3zm5.4 0h2.3v4.8h-2.3zm5.2 0h2.3v4.8h-2.3z" style="fill:#fcb757"/><path d="M49.8 82.5h2.3v4.8h-2.3zm5.4 0h2.3v4.8h-2.3zm5.2 0h2.3v4.8h-2.3z" style="fill:#fe9c51"/><path d="M54 54h4.7v-7s.1-2.6-2.4-2.6C54 44.4 54 47 54 47z" style="fill:#fdcb61"/><path d="M79.8 64.2h2.3v9.7h-2.3zm8.6 0h2.3v9.7h-2.3zm-4.2 0h2.3v9.7h-2.3z" style="fill:#ffcf62"/><path d="M76.4 77.6h2.3v3.1h-2.3zm7.8 0h2.3v3.1h-2.3zm7.8 0h2.3v3.1H92z" style="fill:#feb359"/><path d="M76.4 87.6h2.3v3.1h-2.3zm7.8 0h2.3v3.1h-2.3zm7.8 0h2.3v3.1H92z" style="fill:#ff9a4f"/><path d="M76.4 97h2.3v3.1h-2.3zm7.8 0h2.3v3.1h-2.3zm7.8 0h2.3v3.1H92z" style="fill:#ff844b"/><path d="M76.4 107h2.3v3.1h-2.3zm7.8 0h2.3v3.1h-2.3zm7.8 0h2.3v3.1H92z" style="fill:#ff7942"/><path d="M76.4 116.5h2.3v3.1h-2.3zm7.8 0h2.3v3.1h-2.3zm7.8 0h2.3v3.1H92z" style="fill:#fc7544"/><path d="M23.1 49.2h2v18.6h-2z" style="fill:#fff6b2" transform="rotate(-.2 24.15 58.5)"/><path d="M16.2 28.5h2v39.4h-2z" style="fill:#fff6b2" transform="translate(-.07 .03)"/><path d="M107.2 56.4h2v11.9h-2z" style="fill:#fff6b2" transform="rotate(-89.8 108.23 62.37)"/><path d="M99.1 93.1v-2H114V48.4h10.2v2H116v42.7zm-5.1-26h5.1v2H94zm-17.9-7.3h5.2v2h-5.2zm-5.3 7.1h5.4v2h-5.4zm-3.1 36h-2v-40h2.4v-5.5h-2.4V42h-2.4l-3.8-12V19h2v10.8l.2.8 3.1 9.5h3v15.4H70V65h-2.4z" style="fill:#fff6b2"/><radialGradient id="e" cx="91.8" cy="49.5" r="22.9" gradientTransform="matrix(.036 -1.31 1.146 .038 31.6 168.05)" gradientUnits="userSpaceOnUse"><stop offset=".2" style="stop-color:#fff6b2"/><stop offset=".8" style="stop-color:#fff6b2;stop-opacity:0"/></radialGradient><ellipse cx="92.3" cy="49.5" rx="28.4" ry="30.1" style="opacity:.63;fill:url(#e)"/></svg>