<svg xml:space="preserve" width="16" height="16" viewBox="0 0 128 128"><path d="M78.4 43.3H47.7l-5 19.7 5 2.6s-.2-4.5 2-8.7a15 15 0 0 1 14.4-8.3c15 .3 15.6 17.2 15.6 17.2s10-6.6 8.6-8.5c-1.5-1.8-9.9-14-9.9-14M35.3 61s-1.4 9.5 3.9 18.4a27 27 0 0 0 24 13.5c12.2.3 21-6.1 25-13.4 4.7-8.6 3.8-18 3.8-18L80.7 75.3c-.8 1-16.2 8.8-16.2 8.8s-12.8-.4-13.7-2.7C49.8 79.1 35.3 61 35.3 61" style="fill:#f17900"/><path d="M64 35.5a27.5 27.5 0 0 0-29 27.8c.3 11.9 8.1 26.8 28.4 26.8S92 74 92.2 62c.1-7.2-5.2-26.5-28.2-26.6m15.7 29.7c-.5 9.6-8.5 15-16.4 15S47.8 74 47.7 63.8c-.1-11.3 6.8-17.7 16.3-17.4 12.3.3 16.1 9.9 15.7 18.8" style="fill:#ffa624"/><path d="M58 20.7s-1.2 8 6.2 8.2c7.2.2 6.4-7.1 6.4-7.1L67 14zm43.7 7.6s3.4 4.5-1.2 9l-3.2 2.9c-2 1.7-6.1 2.2-8.6-.3-3.7-3.8-1.1-7.7-1.1-7.7zm-2.2 34.9c-.1 2.2.3 7 4.9 7.3 4.5.3 6.4.2 8.3 0s4-2 4.3-5c.2-2.8-.6-4.2-.9-4.3zM89.2 89.5s-2.8 2-3 5.5c-.2 3.3 4.8 8 7.7 9.2 4.5 1.6 7.6-1.6 7.8-4 .4-3-1.2-5.3-1.2-5.3zm-31.8 21.2c0 .9-.7 7.3 5.8 7.4 7.3.1 6.2-6.6 6.2-7.7 0-1-6.7-2.6-6.7-2.6s-5.3 2-5.4 2.9m-33.9-12s-.3 2.6 2 4.6c1.6 1.5 4.3 2.1 7.2.7 1-.5 2.7-2 4.2-3.9 1.9-2.2 4.4-4.6 2.8-8.1-1.3-3-2.8-3-2.8-3zM10.7 62.5s-1.3 6.3 3.5 8c2.5.9 6.5.5 9 .5 4.2 0 5.7-4.1 5.3-8.1-.2-3.3-7.2-1.8-7.2-1.8zM28 26s-5 3.5-2.7 8.6c1.5 3.3 4.1 5 6.4 6.2 3 1.8 6.5.4 8-1.3 2.3-2.8.8-6.7.8-6.7z" style="fill:#f17900"/><radialGradient id="a" cx="66.7" cy="9.6" r="17.5" gradientUnits="userSpaceOnUse"><stop offset=".4" style="stop-color:#ffa624"/><stop offset=".8" style="stop-color:#ff8c0c"/></radialGradient><path d="M64.4 11.5c-3.3 0-6.2 2-6.3 5.4l-.1 4.4c0 2.6 2 4.7 6 4.8 5.1.1 6.7-2.9 6.7-3.9V17c0-1.9-1.3-5.5-6.3-5.5" style="fill:url(#a)"/><radialGradient id="b" cx="99.7" cy="24.9" r="15.8" gradientUnits="userSpaceOnUse"><stop offset=".4" style="stop-color:#ffa624"/><stop offset=".8" style="stop-color:#ff8c0c"/></radialGradient><path d="M92.2 27.7C90.8 29 89 30.5 87.8 32c-1.3 1.6-1.3 4 1 6 1.7 1.3 5.2 1.5 7.8-.2 1.1-.8 2.2-1.5 4-3.8 1.6-1.9 2.8-4.4 0-7-2.8-2.4-6-1.4-8.4.7" style="fill:url(#b)"/><radialGradient id="c" cx="115" cy="63.4" r="19.9" gradientUnits="userSpaceOnUse"><stop offset=".3" style="stop-color:#ffa624"/><stop offset=".8" style="stop-color:#ff8c0c"/></radialGradient><path d="M104.5 58.2c-2.5.1-5 2.2-5 5s1.6 4.5 5.8 4.7 4.4.1 6.9 0c2.6 0 4.5-2.4 4.4-5.2 0-3.4-3.4-4.4-6-4.5z" style="fill:url(#c)"/><radialGradient id="d" cx="98.3" cy="100.6" r="12.7" gradientUnits="userSpaceOnUse"><stop offset=".4" style="stop-color:#ffa624"/><stop offset=".8" style="stop-color:#ff8c0c"/></radialGradient><path d="M89 89.5c-1.6 1.6-2.9 4.2.8 8.6q1.5 2 3.6 3.4c2 1.5 4.5 1.4 6.5-.6 1.3-1.4 2-4.2.6-6-1.9-2.7-3-3.6-5-5.3a5 5 0 0 0-6.4 0" style="fill:url(#d)"/><radialGradient id="e" cx="63.4" cy="113.6" r="16.9" gradientUnits="userSpaceOnUse"><stop offset=".4" style="stop-color:#ffa624"/><stop offset=".8" style="stop-color:#ff8c0c"/></radialGradient><path d="M63.5 100c-3.4 0-6 2.6-6.1 6.5v4.5c0 2.4 3 4.3 5.9 4.3 4.6-.1 6.1-3.1 6.2-4.5v-4.7c0-3.2-2.2-6.1-6-6.1" style="fill:url(#e)"/><radialGradient id="f" cx="24.9" cy="101.1" r="15.3" gradientUnits="userSpaceOnUse"><stop offset=".4" style="stop-color:#ffa624"/><stop offset=".8" style="stop-color:#ff8c0c"/></radialGradient><path d="M37.7 89.3c-2.1-1.5-5.3-1.9-9 1.5q-2.2 2.1-3.9 4.3c-1.7 2.2-2.2 4.3-.6 6.2s5.6 2.1 8.3-.1c2.6-2.3 4-4 5.6-6.5q2.2-3.1-.5-5.4" style="fill:url(#f)"/><radialGradient id="g" cx="10.3" cy="63.3" r="17.8" gradientUnits="userSpaceOnUse"><stop offset=".4" style="stop-color:#ffa624"/><stop offset=".8" style="stop-color:#ff8c0c"/></radialGradient><path d="M16 58c-2.8.2-5.4 1.8-5.4 5.2s2.6 4.8 5.4 5 4.5 0 7.1 0c3.8-.2 5.5-2.4 5.5-5.2-.1-3-2.3-4.6-5.4-4.8z" style="fill:url(#g)"/><radialGradient id="h" cx="29" cy="27.3" r="14.1" gradientUnits="userSpaceOnUse"><stop offset=".4" style="stop-color:#ffa624"/><stop offset=".8" style="stop-color:#ff8c0c"/></radialGradient><path d="M27.7 26.3c-1.8 1.6-2.4 4.3 0 7.6.8 1 2.8 3 4.3 3.9 2.4 1.4 5.5 1.7 7.5-.7 1.8-2.1 2-4.2-1-7.4-1.2-1.3-2-2.1-3.6-3.3-2.1-1.6-5.2-1.9-7.2-.1" style="fill:url(#h)"/></svg>