<svg xml:space="preserve" width="16" height="16" viewBox="0 0 128 128"><path d="M48 111.5h37.5l39.7-16.1s.3-12.6-.5-25.7c-.7-13-4.3-32.8-4.3-32.8s.2-3.6-.3-5.6c-.4-1.8-1.5-3.4-4.6-3.5-2.9-.2-67.1 0-68.9.2-1.7.2-12.3 13-12.3 13L19 66c-.4.6-10.2 7.1-11.7 9.1C5.7 77.3 5.8 79 5.8 79v16.8z" style="fill:#e1e1e1"/><path d="M125.3 95.4S103.5 95 99 96s-7.5 3.6-10 7.7c-2.6 4-3.6 7.8-3.6 7.8h36.7c1.2 0 2.8-1.8 3-4.4zM48 111.5s-3.1-7.4-6.3-10.7-8-5.5-13.6-5.7S6 94.8 6 94.8s-3.8 3-4 7.4 0 8.6 3.4 8.8 42.7.5 42.7.5" style="fill:#516c73"/><path d="M15.5 112.5c0 4.7 3.8 11.5 12 11.6s12.5-6.3 12.3-12.7c-.3-6.6-5.4-11.2-12.7-11-6.9.2-11.7 5.5-11.6 12" style="fill:#4e433d"/><path d="M21.4 112.2c0 2.5 2 6 6.3 6 4.3.1 6.4-3 6.3-6.4s-3-6-6.6-6-6.1 3-6 6.4" style="fill:#c8c8c8"/><path d="M94 111.9c0 4.7 3.8 11.5 12 11.6s12.5-6.3 12.2-12.7c-.2-6.6-5.3-11.2-12.7-11-6.8.2-11.7 5.5-11.6 12" style="fill:#4e433d"/><path d="M99.8 111.6c0 2.5 2 6.1 6.4 6.1 4.3 0 6.4-3 6.2-6.5-.1-3.4-2.9-6-6.5-6a6 6 0 0 0-6 6.4" style="fill:#c8c8c8"/><path d="m5.8 90.9 119.5.4v-9.7H5.6z" style="fill:#d70617"/><path d="M5.8 79h12.8q1.1 0 1.2 1.3c0 .9.3 4-2.3 6.5-1.1 1-3.5 1.2-5.8 1.3h-6V79" style="fill:#ffe365"/><path d="M34 41.4h87.1l-.3-2.3-.4-2.2-73.9.1.1-9s-1.8-.2-2.7.7a60 60 0 0 0-6 6.7c-1.9 2.4-3.9 6-3.9 6" style="fill:#c9c9c9"/><path d="M37.3 31.9c-2.3 2.5-1.6 6.8-1.6 6.8s7.5.2 7.7-.2.2-9.5.2-9.5-3.2-.6-6.3 2.9" style="fill:#fa2b23"/><path d="m46.6 28 23.8-.2v-5.4c0-2-1.7-3.5-4.5-3.6-2 0-13.3-.2-15.1 0-1.8 0-3.9 1.5-4 3.8z" style="fill:#dd0f26"/><path d="m55.4 23.2 1.3 2.9h-3.1S51 23.6 51 23c0-.4 2.7-2.5 2.7-2.5h3.4zm5.6.1-1 2.9h2.6s2.7-2.4 2.8-2.8c0-.7-2.7-2.8-2.7-2.8h-3z" style="fill:#ff5b5e"/><path d="M90.8 44.7c-.2 1.7-.4 16.3-.4 16.3l.1 14.9 7.5-.1.4-15.3-.3-15.7zm-11 20.5 12.5-8.6 13-8.2 4 6-12.8 9-13 8zm3.3-16.5-3.9 5.8 12.4 9.2 12.9 8 4.1-6-13-9z" style="fill:#1e86fe"/><path d="M38 45.8q-2-.1-3.7 2.1l-11 19.6q-.9 1.3-.9 3.1.5 1.4 2 1.6l30.3-.1q2.5-.1 2.8-3.5c.3-3.4.2-18.4 0-20.2-.2-2-1.5-2.6-3.2-2.7z" style="fill:#557077"/><path d="M39.7 50q-2-.2-3.5 2.3l-8 14.8q-.4 1.1 1.3 1.2c1.7.1 21.2-.1 22.4-.1q2 0 2-2.8V51.9q0-1.7-2-1.9z" style="fill:#afe3fb"/></svg>