<svg xml:space="preserve" width="16" height="16" viewBox="0 0 128 128"><path d="m69.8 88.1 1.8-80a4 4 0 0 0-4-4.1H55.9a4 4 0 0 0-4 4.1l1.8 80a4 4 0 0 0 4 3.9h8a4 4 0 0 0 4.1-3.9" style="fill:#f44336"/><path d="M64 50c.3-1.9-.5-26.2-.5-26.2s.1-3.5-2.8-3.8c-2.8-.3-3.8 2.3-3.8 4.1s.4 21.5.6 23.3 1.9 3.7 3.6 4.2 2.7-.2 2.9-1.6" style="opacity:.2;fill:#fff"/><circle cx="59.6" cy="13.4" r="3.3" style="opacity:.2;fill:#fff"/><circle cx="64.1" cy="112" r="12" style="fill:#c33"/><circle cx="62.4" cy="112" r="10.3" style="fill:#f44336"/><path d="M56.5 108.4a10 10 0 0 1 6.5-3.7 4 4 0 0 1 1.9.1q.8.3.5 1-.4.5-1.1.6-4 1.2-6.2 4.4c-.5.8-1.4 2.9-2.4 2.4-1-.7-.7-2.6.8-4.8" style="opacity:.2;fill:#fff"/><path d="M71.9 4h-4.3a4 4 0 0 1 4 4.1l-1.8 80a4 4 0 0 1-4 3.9H70a4 4 0 0 0 4-3.9l1.8-80C76 5.9 74.1 4 71.9 4" style="fill:#c33"/></svg>