<svg xml:space="preserve" width="16" height="16" viewBox="0 0 128 128"><path d="m12.7 56.6-.7 29c0 3.5-.3 7.2 2.5 9.3 1.7 1.3 9.5 7.2 19.9 13s24.2 12.9 27 14c3 1.2 6.2.6 9.8-.8 3.4-1.2 10.9-5 21.8-10.5s15.9-8.4 19-10.8c2.2-1.8 4.4-4.2 4.1-8.3s-.2-13.8-.6-17.8S115 55 115 55l9-16.5s-.2-3.4-1-5.5a12 12 0 0 0-3.3-4.9L48.9 15.7s-36 8.6-38 9.7c-2 1.2-7.3 5.5-7.1 13.2.2 11 9 18 9 18" style="fill:#e07f14"/><path d="M17.4 55s-1.3 29.4-.6 33.7c.6 3.5 11.4 9.8 19.3 14.3 7 4 22.1 10.4 24.2 11.4s3-.8 3-2.5l.1-36.9s9.2-1.6 10.9-9.7-7.6-21-32.5-30.7c-25.7-10-33.2-4.2-33.5 3-.5 10.6 9 17.5 9 17.5" style="fill:#ffebca"/><path d="M81.5 57.1S84.4 67.3 79 73s-10 6.7-10 6.7-.3 4.6-.1 5.2c.5 1.2 16.5-5.3 26.6-9.5l19.6-8.3s-.3-5 0-4.8 5.6-5 7.4-11.6c1.9-6.7 1.4-12.1 1.4-12.1s-16.6 7-22.4 9.6c-5.6 2.5-17.5 7.5-20 9" style="fill:#ac5811"/><path d="M77 48.8c.6.7 44.6-18.4 44.6-18.4s-15-23.6-52.7-24.2c-38.5-.7-60.3 20-60.7 21.4-.4 1 7-8.6 31.4-.7s33.7 18 37.3 21.9" style="fill:#f5b03e"/></svg>