<svg xml:space="preserve" width="16" height="16" viewBox="0 0 128 128"><path d="M23.4 116.3V109c7.4-1.9 67.8 0 81.2 0v7.4c0 4.3-18.2 7.7-40.6 7.7s-40.6-3.4-40.6-7.7" style="fill:#8b5738"/><ellipse cx="64" cy="108.5" rx="40.6" ry="7.7" style="fill:#ffb17a"/><ellipse cx="64" cy="108.5" rx="40.6" ry="7.7" style="fill:#cc8552"/><path d="M70 65.5q-1.2-.5-1.1-1.7-.1-1.2 1-1.7c4.6-1.8 27.7-10.7 27.7-38.3l-.1-4.9h-67l-.1 5c0 26.8 23 36.3 27.6 38.1q1.3.4 1.3 1.8T58 65.4c-4.6 1.9-27.7 10.7-27.7 38.4 0 3 1.6 5.5 5.3 6.5 5 1.2 14.4 2.5 30.5 2.5 14 0 21.7-1 26-2s5.3-3.4 5.4-6.6v-.6c0-26.8-23-36.2-27.6-38.1" style="opacity:.75;fill:#81d4fa"/><path d="m97.5 19-67-.1-.1 4.5S37.6 27 64 27s33.6-3.7 33.6-3.7z" style="opacity:.39;fill:#1d44b3"/><path d="M23.4 18v-8c7.1-.9 70.9 0 81.2 0v8c0 3.3-18.2 6-40.6 6s-40.6-2.7-40.6-6" style="fill:#8b5738"/><ellipse cx="64" cy="10.1" rx="40.6" ry="6.1" style="fill:#cc8552"/><path d="M60.3 74.4c1-1.6 1.3-4.5 4.5-4.5 1.8 0 28 34.5 26 36.8q-1 1-2.5 1.3a93 93 0 0 1-49-1c-4-1.6 3.6-11.3 5.5-13.6.6-.8 12-13.6 15.5-19" style="fill:#ffca28"/><path d="M65.5 74.2A68 68 0 0 1 72 94.8c.8 4.1 4 15.5 7.7 15q4.6-.6 8.6-1.8 1.6-.2 2.6-1.3c.5-.7 0-3.6-4.3-9.6-3.8-5.2-9.2-12.4-10-14-3.9-7.5-9.8-13.4-11.8-13.2-1.4.2-.2 2.6.7 4.3" style="fill:#e2a610"/><g style="opacity:.6"><path d="M42.9 80.6c-3.1 3.7-5.5 8.6-4.6 13.3 1 5 5.6 3.7 7.2 2.4 5.2-4 3.8-9.3 7.8-15 .7-1 3.5-4.2 3-6.2-.1-1.1-2.9-1.7-7.8.7a19 19 0 0 0-5.6 4.8" style="fill:#fff"/></g><g style="opacity:.6"><path d="M45.8 37.7c1.3 2.9 3.6 9.6.6 10.7-3 1.2-7.4-3.1-9.5-7.4s-2-10 1.2-10c3.2-.1 6 2.8 7.7 6.7" style="fill:#fff"/></g></svg>