<svg xml:space="preserve" width="16" height="16" viewBox="0 0 128 128"><path d="M22.7 99.5a7 7 0 0 0-5.8 3.2L5 121.1c-1 0-2 .9-2 2q.1.7.8.7h18q.6 0 .7-.7a2 2 0 0 0-1.5-2l1.8-11.4z" style="fill:#f44336"/><path d="M43.4 22.2c2.2 0 4 1.7 6.2 2.2 8.2 1.6 10.2-2.3 13-3.1s6.8 2.7 13.6-.3c3.5-1.6 4.8-6.5 3.2-9.9C79 10 76 3.6 65.1 5.2q-1.3.2-2.5.6C57 7 54.4 3 43.8 4.8c-17.2 3-16.7 20-15.3 23 0 0 5.7-5.7 14.9-5.6" style="opacity:.85;fill:#bdbdbd"/><path d="M27 8.9c3.8-3.6 10.6-4.5 14.8-1.4q1 .8 2 1.2 1.2.2 2.4-.1c2.9-.5 6.1 0 8.1 2.1s1.8 5.8-.7 7.2c-4.8 3-8.6-1.1-16.8 1.6-5 1.7-8.4 6-9.7 10.8 0 0-8.8-13 0-21.4" style="opacity:.65;fill:#e0e0e0"/><path d="M45 21.8q-.1-.9-1-1H17.7a1 1 0 0 0-1 1v5.4a61 61 0 0 0 8.3 17v19.6h11.9V44c1-1.3 5.8-8.2 8.2-16.8zm76.9 63.6-6 2.3H22.8v22h10.5v8h15.2v-8H122zm-82 4.1H22.7s.8-6.3.8-13.8-.9-13.8-.9-13.8h16.8s1 4 1 13.4-.5 14.2-.5 14.2" style="fill:#424242"/><path d="M54.4 98.5h-3a11 11 0 0 0-.7-4.3q-.5-1-1.6-1c-.6 0-16.5 7-16.5 7 0 3.8.7 7 1.6 7h14.6c2.2 0 2.7-2.3 2.7-5.7h2.4l19.6 8.3H80z" style="fill:#212121"/><path d="M103 89.5H70l-.4-27.6 8.6-2.7-.2 15.2h25.7z" style="fill:#606060"/><path d="M39.3 89.5h29.2Q69.7 84 70 75.8c0-11.1-1.8-14-1.8-14h-29s1 6.4 1 14c0 7.4-.8 13.7-.8 13.7" style="fill:#00796b"/><path d="M50 112.2a4 4 0 1 1 0 7.8 4 4 0 0 1 0-7.8m0-4a8 8 0 1 0 0 15.8 8 8 0 0 0 0-15.8" style="fill:#546e7a"/><circle cx="50" cy="116.1" r="4.6" style="fill:#f44336"/><path d="M31.6 112.2a4 4 0 1 1 0 7.8 4 4 0 0 1 0-7.8m0-4a8 8 0 1 0 0 15.8 8 8 0 0 0 0-15.8" style="fill:#546e7a"/><circle cx="31.6" cy="116.1" r="4.6" style="fill:#f44336"/><path d="M78 39v44.6h44.2V39zm39.7 39H82.5V43.9h35.2z" style="fill:#c62828"/><path d="M29.5 27.9H19.3v-5.5q0-.9 1-1h8.2q.9.1 1 1zm-2.8 16.2h5.6v17.8h-5.6zm-2.2 23.7.5 5.8q0 1.4 1.3 1.4h10.9q1.2-.2 1.4-1.5a36 36 0 0 0-.4-6.2q-.3-1-1.4-1h-11q-1.3.2-1.3 1.5" style="fill:#2f7889"/><path d="m41.6 67.8.4 5.8q0 1.4 1 1.4h8.4q1-.2 1-1.5-.1-4.7-.5-6.2-.2-1-1-1h-8.2q-1.2.2-1 1.5m15.3 0 .4 5.8q.1 1.3 1 1.4h8.4q1-.2 1-1.5-.1-4.7-.5-6.2-.2-1-1-1H58q-1.2.2-1 1.5" style="fill:#4ca854"/><path d="M80.6 44v33q.1 1.7 1.8 1.8H118q1.6-.2 1.7-1.8V44.1q-.2-1.6-1.7-1.8H82.4q-1.6.1-1.8 1.8m27.6 25.5q-.1 1-1 1h-14q-1 0-1-1v-17c.6-1 3-3.7 8-3.7 4.8 0 7.2 2.8 7.9 3.7z" style="fill:#f44336"/><path d="M19.3 104.7h-1.1l-9.5 16.4H11zm2.3 0h-1L15 121h2z" style="fill:#424242"/><path d="M56.1 76c0-7.2-1-14.1-1-14.1h-2s1 6.2 1 14c0 8-.9 13.6-.9 13.6h2s1-6 1-13.5M71 76a102 102 0 0 0-1.1-14.1h-2s1 6.2 1 14c0 8-.9 13.6-.9 13.6h2s1-6 1-13.5" style="fill:#e2a610"/><path d="M107.6 98.4a11.3 11.3 0 1 1 0 22.6 11.3 11.3 0 0 1 0-22.6m0-3q-2.4 0-4.7.8a14.3 14.3 0 1 0 4.7-.8" style="fill:#546e7a"/><path d="M107.6 100.2a9.5 9.5 0 0 1 0 19 9.5 9.5 0 0 1 0-19m0-2a11.5 11.5 0 1 0 0 23 11.5 11.5 0 0 0 0-23" style="fill:#f44336"/><path d="M117.7 109.7H97.5m5-8.7 10.1 17.4m-10.1 0 10.1-17.4" style="fill:none;stroke:#f44336;stroke-width:3;stroke-miterlimit:10"/><path d="M76.5 98.4a11.3 11.3 0 1 1 0 22.6 11.3 11.3 0 0 1 0-22.6m0-3q-2.3 0-4.7.8a14.3 14.3 0 1 0 4.7-.8" style="fill:#546e7a"/><path d="M76.5 100.2a9.5 9.5 0 0 1 0 19 9.5 9.5 0 0 1 0-19m0-2a11.5 11.5 0 1 0 0 23 11.5 11.5 0 0 0 0-23" style="fill:#f44336"/><path d="M86.6 109.7H66.4m5-8.7 10.1 17.4m-10.1 0L81.5 101" style="fill:none;stroke:#f44336;stroke-width:3;stroke-miterlimit:10"/><path d="M119.6 89.6h-39a2.6 2.6 0 0 1-2.6-2.7v-3.3h44.2V87c0 1.5-1.2 2.7-2.6 2.7" style="fill:#e2a610"/><path d="M78 82.6h44.2" style="fill:none;stroke:#ffca28;stroke-width:3;stroke-linecap:round;stroke-miterlimit:10"/><path d="M56.1 98.5H34.2m76.9 11.2H81L53.3 97.6" style="fill:none;stroke:#e2a610;stroke-width:3;stroke-linecap:round;stroke-miterlimit:10"/><path d="M22.6 61.9s-2.9 4.2-2.9 13.8 3 13.8 3 13.8.8-2.5.8-12.3-.9-15.3-.9-15.3" style="fill:#616161"/><path d="M17.5 73.3h3s.3.2.3 2.4-.4 2.4-.4 2.4h-3z" style="fill:#424242"/><path d="M18.7 75.7c0 2.4 0 4.3-.6 4.3s-1.8-2-1.8-4.3 1-4.3 1.8-4.3c.6 0 .6 1.9.6 4.3" style="fill:#757575"/><path d="m23.1 86.2-.4 3.3h16.6l.3-3.1c.1-1.5-1-2.8-2.5-2.8H26q-2.4.2-2.9 2.6" style="fill:#212121"/><path d="M33.1 92.4h15.3v13.2H33.1z" style="fill:#606060"/><ellipse cx="48.5" cy="99" rx="1.6" ry="6.6" style="fill:#606060"/><ellipse cx="33.1" cy="99" rx="1.6" ry="6.6" style="fill:#606060"/><path d="M47.6 96.6H34a1 1 0 0 1-.8-1q.1-1.3.8-1.9l.4-.1h13q.3 0 .5.2.6.7.6 1.8 0 1-.8 1" style="fill:#78909c"/><path d="M122.2 40.5H78l-2.8-1.6H125z" style="fill:#004d40"/><path d="M75.2 35.2h49.9V39H75.2z" style="fill:#00796b"/><path d="M108.2 69.5q-.1 1-1 1h-14q-1 0-1-1v-17c.6-1 3-3.7 8-3.7 4.8 0 7.2 2.8 7.9 3.7z" style="fill:none;stroke:#c62828;stroke-width:2;stroke-miterlimit:10"/></svg>