<svg xml:space="preserve" width="16" height="16" viewBox="0 0 128 128"><path d="m42 78.4-5.6 2.2s3.5 15.6 3 20.6-1.1 8.8-2.4 10.4-1.3 3-1.1 3.5 2.1 2 7 1.8 5.2-2.4 5.7-3.5-1-8-.6-12.4c.4-4.3 1.3-6.8 1.4-9.3l.4-6.2zm24.7 3.3-.1 8.4s3.7-.8 7.7-.3 8.6 3.3 9 3.3c.3 0 2.8-2.2 2.8-2.2s1.5 7.6 1.6 10c0 2.5 0 5.9-.7 7.7s-1.8 4-1.3 4.7 5.2 1.3 7 .8c3.5-1 4.3-1.8 4.4-3.5.1-1.4-.3-6.3-.4-8.4s-1-7.2-.9-8.8 1.6-9.5 1.6-9.5l-2-11zm48.5-1.7s-1 3.8.1 8.1c.9 3.4 3.5 5.6 4.7 7.5 1 1.9 2.4 5.4 3.1 5.3 1 0 .9-8.6-.5-13s-5.5-8.6-5.5-8.6z" style="fill:#51362f"/><path d="m8.4 15.2 3.9 10.5 8.8 3.8 3.9-4.3s-5.3-2.5-7.2-4.3q-3.7-3.5-3.3-5.5c.4-2 1.5-1 1.4-2 0-1.2-2.6-1.7-2.6-1.7z" style="fill:#f6c519"/><path d="M16.6 33.4s-5.3-4.5-7.7-7.6q-3.6-4.9-3-8.7c.6-3.8 1.9-5.4 5.5-5.7 2.6-.2 4.2 1.1 4.1 1.4 0 .3-3.7.4-3.9 3.1q-.4 3.7 3.8 7.5c4.2 3.8 8.8 5 8.8 5z" style="fill:#b48958"/><path d="M27.7 21.9c-4 .5-3.9 3.7-6 4.8-2.3 1.1-3.8 1.5-5.3 3.2S15.3 33 14 34.2 8.3 39.7 8 41s5.5 14.2 6.6 15.4 6 1.6 6 1.6 2.8 4 5.4 5 4.6.7 4.6.7-.5 4.7 1 9.1a24 24 0 0 0 8.7 12.5c4.8 3.3 13.5 4.7 13.5 4.7s2.6 7.3 2.5 10.6c0 3.2-.6 6.5-.8 8.3-.1 1-2.2 7-1.7 8.2s3 3.3 6.2 3.5c3 .1 6.5-2.8 6.6-3.9.2-1-1.6-9.6-1.6-12.3a95 95 0 0 1 3.4-17.5s6.3.6 12.1-.9 9.7-4 9.7-4-1-5.4.8-5.4 1.6 3.8 2.6 7.6c1.2 4.5 3.6 8.8 5 12.2s2.7 8.1 2.5 10.8-3.6 7.3-3 8.8 3.2 1.7 5.2 1.6 5.2-.6 5.8-1.5c.7-1 .3-8.5.6-10.2.4-1.8 2.2-8.1 2-10.5s-5-2.5-4.6-10.8c.5-9.2 3.6-16.5 3.6-16.5s.8 4.6 1.8 7.7c.7 2.5 3.1 7 4.6 6.3s-.4-2-1.5-8.6c-.8-4.7-2.2-16.8-2.4-19.2s-1-4.6-1.5-5.5c-1.7-2.5-4.1-3.8-6-5.2s-4.5-3.2-6.1-3.5c-3.9-.6-11 .4-16.2.1-5.3-.2-12.2-.7-15.1-1.5s-4-1.4-4-1.4-12-7.8-14.7-9.4-6.7-3.5-9.6-3.2-7.4-3.3-12.2-2.7" style="fill:#865b52"/><path d="M53 87.6s-1.1-3.5-.3-6.9c.8-3 3.8-5.5 1.4-6-1.8-.4-3.7 1.7-4.3 5.1-.8 4.6 3.2 7.8 3.2 7.8M37 55.7c.7 1 7.1-.4 9.2-2.9s1-9.6.7-11.1l-.7-3.9s4-1.7 4-2.6c.1-.8-2.3-7.5-8.4-7.6s-11.9-2.3-12 .4 1.8 5.3 5.8 5.2c4-.2 4.5-3 6.7-2.8s5.4 3 5 3.4-9.6-.6-9.4 1.4 4.3 2.3 4.6 2.8 2.7 8.8 1.4 11.7-7.6 5.2-7 6" style="fill:#51362f"/><path d="M19 14.4s8.6 1.2 10.9 4.3 3.9 9.4 7.1 9.3c4-.3 4.6-.4 4.4-4.5S38.1 14 34 11.6s-9.7-1.5-12.1-.7c-2.6 1-4.2 3-2.9 3.5" style="fill:#f7c515"/><path d="M18.4 13.9c-.4.7 3.8 2.1 5.3 3q5 2.9 5.8 7.7c.4 3.2 1 4 2.7 5.1 2.4 1.4 6 .5 7.3-.5 2.3-2 1.8-2.9 2-3.7 0-.4-2.3 2-4.2 1.5a4 4 0 0 1-2.8-2.5c-.4-1.3-1.4-5.6-3.9-7.9S19.3 11.8 18.4 14" style="fill:#b48958"/><path d="M28.2 35.7c.8 1.7.4 4-1.9 4.2q-2.3 0-3.1-2.8c-.5-1.8.3-3.5 1.7-3.8 1.4-.4 2.6.7 3.3 2.4" style="fill:#0c090c"/><path d="M13 46.4s1.1-8.2-4-6.7c-2.2.6-4.8 5-4.7 6.4 0 2.5 1 7 4.3 8.8 1.4.8 3.2 1.2 3.7 1.4s2.2 1 3 .5q1.5-1.2 1-5.6a6 6 0 0 0-3.3-4.8" style="fill:#be9079"/><path d="M5.8 46.5c.7-1 1.3-3 2.8-2.3s.4 3-.5 4c-1 1.1-2.8 1.8-3.2.9q-.4-1 .9-2.6m0 4.2c-.6.6.5 2 2.5 2.8s5.5.3 5.3-1.1c-.2-1.2-1.9-.7-3.6-.8-2.3-.2-3.3-1.9-4.2-.9" style="fill:#2c2f33"/></svg>