<svg xml:space="preserve" width="16" height="16" viewBox="0 0 128 128"><path d="M6.2 99.4c0-9.6 25.9-15 57.8-15s57.9 5.4 57.9 15c0 13.6-26 24.6-57.9 24.6S6.2 113 6.2 99.4" style="fill:#94d1e0"/><path d="M11.2 50.7v45.5c.7 11.9 23.9 21.4 52.5 21.4s51.9-9.5 52.5-21.4V50.7z" style="fill:#e63f33"/><path d="M23.4 75.6c11 4.6 25.2 7 40.3 7s29.4-2.3 40.3-7c9.7-4.1 10.7-6.9 12.2-8.5v-6A34 34 0 0 1 102 71c-10.3 4.3-23.9 6.6-38.3 6.6s-28-2.3-38.3-6.6A34 34 0 0 1 11 61v7.5l5 3.5q3.4 2 7.3 3.6" style="fill:#bdbdbd"/><path d="M43.1 76.8v40.5m41.2-40.5v40.5" style="fill:none;stroke:#94d1e0;stroke-width:4.0928;stroke-linecap:round;stroke-miterlimit:10"/><path d="M42 106q-1.5-.5-2.2-1.9c-.9-1.5-.8-3.4-.8-5.4-.1-4.3 1-5.3 2.5-5.3h3.3c2.5 1 2.5 3 2.5 4.4v2.4c0 2.1.1 4.2-1.9 5.6-.2 0-1.7.9-3.4.3m43.4-.1q1.3-.6 2.2-1.9c1.2-1.7.8-3.4.8-5.4 0-4-1.1-5.3-2.5-5.3h-3.4c-2.5 1-2.5 3-2.5 4.4v2.4c0 2.1 0 4 2 5.6.8.7 2.5.7 3.4.3M120.3 83c0-4.6-1-5.4-3.2-5.2V61.3l-3.3 2 .3 39.3s3 1 3-2.3v-9.6c3.3-1.2 3.5-4.7 3.2-7.6M13.5 62.9l-3.3-2v16.9C8 77.6 7 78.4 7 83c0 2-.3 3.7.7 5.4q.9 1.6 2.5 2.2v9.2c0 3.3 3 2.3 3 2.3zm105.7-10.4c-1.7-19.2-36.4-24.7-55.5-24.6-19-.2-55.3 5.7-55.4 25.4C-2.2 72 30.9 84.4 64 84.5c33.2 0 67.5-13.2 55.2-32" style="fill:#94d1e0"/><ellipse cx="63.7" cy="52.7" rx="52.5" ry="21.9" style="fill:#ffcc80"/><ellipse cx="63.7" cy="54.7" rx="48.5" ry="20.2" style="fill:#fef6e0"/><path d="M54 67 19 44l5.5-2.7 31 23.6zm20.4 0 34.9-23-5.5-2.7-31 23.6z" style="fill:#ffcc80"/><path d="M57.6 62.7c-1.4-2-3.7-2.4-4-3l-1-2-1-1.5-39.7-51a3 3 0 1 0-4.6 3.6l40 50.4q.8 1 1.8 1.8l1.7 1.3c.4.3.4 2.5 2 4 1.3 1.1 3.3 1.6 4.6.2 1-1 1-2.7.2-3.9m13.2.1c1.4-2 3.7-2.4 4-3l1.2-2q.4-1 1-1.5l39.6-51a3 3 0 1 1 4.6 3.7L81.2 59l-1.8 2-1.7 1.3c-.5.3-.4 2.5-2 4-1.3 1.2-3.4 1.6-4.7.2a3 3 0 0 1-.2-3.9" style="fill:#ba793e"/><path d="M19 72.2c-5.8-3.6-8.4-7.2-8-8.4.3-.8 1.5-.8 2-.2a45 45 0 0 0 23.8 12c.8.2 1.4 1.7-.8 1.9-1.9.1-9.3-.5-17-5.3M83.6 104q-1.2.3-1.7-1.6c-.3-1-.5-4.7-.3-5.7q.1-1.7 1.2-1.8 1.6.2 1.5 1.5v5c0 1 0 2.3-.7 2.6m-41.1 0q-1.1.3-1.8-1.6c-.7-1.9-.5-4.7-.3-5.7s.4-1.8 1.3-1.8 1.4.7 1.4 1.5v5c0 1 0 2.3-.6 2.6" style="fill:#fff"/></svg>