<svg xml:space="preserve" width="16" height="16" viewBox="0 0 128 128"><radialGradient id="a" cx="64.1" cy="4.2" r="69.5" gradientTransform="matrix(-1.08 .004 .003 .584 133.4 121.1)" gradientUnits="userSpaceOnUse"><stop offset=".6" style="stop-color:#f5f5f5"/><stop offset="1" style="stop-color:#c6c6c6"/></radialGradient><path d="M64 96.2c-25.5 0-52 7.3-52 25v3.1h104v-3c0-17.8-26.5-25-52-25" style="fill:url(#a)"/><path d="M55 90.4v21c0 5.2 3.6 9.5 8.2 9.5h1.6c4.6 0 8.3-4.3 8.3-9.6v-21z" style="fill:#99674f"/><path d="m52.7 102.3 3.8 22H72l3.4-22z" style="fill:#81d4fa"/><linearGradient id="b" x1="26.7" x2="26.7" y1="11" y2="31.2" gradientTransform="matrix(-1 0 0 -1 104.16 128)" gradientUnits="userSpaceOnUse"><stop offset=".3" style="stop-color:#e0e0e0"/><stop offset=".7" style="stop-color:#d0d0d0"/><stop offset="1" style="stop-color:#bdbdbd"/></linearGradient><path d="M73 96.5q8.9.8 8.8.9l3.1 7.3-5.2 4.4 2.8 6.2-5.6 9h-6.8z" style="fill:url(#b)"/><linearGradient id="c" x1="12.8" x2="12.8" y1="11" y2="31.2" gradientTransform="matrix(1 0 0 -1 37.76 128)" gradientUnits="userSpaceOnUse"><stop offset=".3" style="stop-color:#e0e0e0"/><stop offset=".7" style="stop-color:#d0d0d0"/><stop offset="1" style="stop-color:#bdbdbd"/></linearGradient><path d="M55 96.5q-8.9.8-8.8.9l-3.1 7.3 5.2 4.4-2.8 6.2 5.6 9H58z" style="fill:url(#c)"/><path d="M33 104.6c1.5-.8 3.3-2 4.2-2.7 2-1.7 6.5-6 9.8-3 3.7 3.2 0 8.3-1.5 10.4q-1 1.5-1.7 3.4" style="fill:none;stroke:#03a9f4;stroke-width:3;stroke-miterlimit:10"/><linearGradient id="d" x1="34" x2="24.6" y1="23.2" y2="12.4" gradientTransform="matrix(1 0 0 -1 0 128)" gradientUnits="userSpaceOnUse"><stop offset="0" style="stop-color:#757575"/><stop offset="1" style="stop-color:#000"/></linearGradient><path d="M29.8 111.6c-.5.1-1 .3-1.6-.2q-.6-.6-.6-2c.1-.9 1-1.2 3-2q2.3-1 4.1-2.2L33 103l-3.4 1.7c-2 .8-4.5 1.7-4.9 4.3a6 6 0 0 0 5.2 7q2.2-.1 2.4-2.3c.2-2.2-1.4-2.1-2.4-2" style="fill:url(#d)"/><linearGradient id="e" x1="42.8" x2="33.4" y1="15.6" y2="4.7" gradientTransform="matrix(1 0 0 -1 0 128)" gradientUnits="userSpaceOnUse"><stop offset="0" style="stop-color:#757575"/><stop offset="1" style="stop-color:#000"/></linearGradient><path d="M37 117c0 .6-.1 1.1.5 1.6.3.2 1.3.5 2.1.3s1-1.2 1.5-3.2l1.6-4.4 2.5 1.5s-.9 2.3-1.1 3.5c-.5 2.2-1 4.7-3.6 5.5a6 6 0 0 1-7.6-4.2q-.4-2.1 1.8-2.6c1.4-.2 2.3 1 2.3 2" style="fill:url(#e)"/><path d="M55 94c-4.6.2-7.8 2.5-9 4l2.2 2c0-.1 2.4-2.8 6.8-3zm31.3 8.8A15 15 0 0 0 73 93.4v3q1.6.2 4 .9a12 12 0 0 1 6.4 6.7l3.5 7.9 2.8-1.2z" style="fill:#03a9f4"/><linearGradient id="f" x1="87.9" x2="93.2" y1="18.6" y2="7.2" gradientTransform="matrix(1 0 0 -1 0 128)" gradientUnits="userSpaceOnUse"><stop offset="0" style="stop-color:#757575"/><stop offset="1" style="stop-color:#000"/></linearGradient><circle cx="90.2" cy="114.3" r="7" style="fill:url(#f)"/><circle cx="90.2" cy="114.3" r="4" style="fill:#9e9e9e"/><path d="M91.3 50.4H36.7c-6 0-10.7 5.2-10.7 11.4s4.8 11.5 10.7 11.5h54.6c6 0 10.7-5.2 10.7-11.5s-4.8-11.4-10.7-11.4" style="fill:#99674f"/><path d="M64 11c-17.4 0-33.5 18.7-33.5 45.5C30.5 83 47 96.3 64 96.3S97.5 83 97.5 56.5C97.5 29.7 81.4 11 64 11" style="fill:#ba8d68"/><path d="M40 50.7c3-4.2 9.8-4.6 13.6-1.5q1.2.8 1.7 2c.4 1.3-.8 2.3-2 2l-2.2-.8a11 11 0 0 0-3.6-.6c-1.8 0-3 .2-4.7 1-.7.2-1.3.7-2.1.3-1-.4-1.3-1.5-.7-2.4m46 2.4-.8-.4c-1.8-.7-2.8-1-4.7-.9-1.7 0-2.7.2-4 .7-.9.3-2 1-2.8.7-1.3-.4-1.3-1.8-.6-2.8q1.3-1.6 3.3-2.4c3-1.3 6.5-1 9.2.6q1.4.8 2.4 2.1c.8 1.3-.4 3-2 2.4" style="fill:#613e31"/><ellipse cx="47.6" cy="58.8" rx="4.9" ry="5.1" style="fill:#49362e"/><ellipse cx="80.4" cy="58.8" rx="4.9" ry="5.1" style="fill:#49362e"/><path d="M72.4 76.1a26 26 0 0 1-16.8 0c-1.8-1-3.7.6-3 2.3s6.5 5.4 11.4 5.4 10.6-3.8 11.3-5.4-1-3.4-2.9-2.3" style="fill:#5d4037"/><path d="M67.9 68H60q-1 .5-.6 1.7c.3.7 1.7 2.7 4.5 2.7s4.3-2 4.6-2.7q.3-1.2-.7-1.6" style="fill:#99674f"/><path d="M64 4c-45.5.3-36.2 52.2-36.2 52.2l3 7.7q.4.5.7 0a352 352 0 0 1 6.2-24.5 6 6 0 0 1 6.8-3.8A111 111 0 0 0 64 37.4h.2c7.8 0 14.9-1 19.3-1.8a6 6 0 0 1 6.8 3.8c1.8 4.7 5.2 20 6.2 24.4.1.3.6.4.7 0l3-7.6S109.4 4.2 64 4" style="fill:#543930"/><radialGradient id="g" cx="64" cy="80.9" r="38.1" gradientTransform="matrix(1 0 0 -1.128 0 138.37)" gradientUnits="userSpaceOnUse"><stop offset=".8" style="stop-color:#6d4c41;stop-opacity:0"/><stop offset="1" style="stop-color:#6d4c41"/></radialGradient><path d="M100.1 56.2S109.4 4.2 64 4l-6 .4h-.3C19.4 9.2 27.8 56.2 27.8 56.2l3 7.6q.4.6.7 0c1-4.4 4.5-19.7 6.2-24.4a6 6 0 0 1 6.8-3.8A111 111 0 0 0 64 37.4h.2c7.8 0 14.9-1 19.3-1.8a6 6 0 0 1 6.8 3.8c1.8 4.7 5.3 20.1 6.2 24.5.1.3.6.3.7 0z" style="fill:url(#g)"/></svg>