<svg xml:space="preserve" width="16" height="16" viewBox="0 0 128 128"><path d="M116 4H12a8 8 0 0 0-8 8v104a8 8 0 0 0 8 8h104a8 8 0 0 0 8-8V12a8 8 0 0 0-8-8" style="fill:#427687"/><path d="M109.7 4H11.5A7.6 7.6 0 0 0 4 11.5v97.9c0 4.1 3.3 7.5 7.5 7.5h98.1c4.1 0 7.5-3.3 7.5-7.5V11.5c0-4-3.1-7.4-7.2-7.5z" style="fill:#8cafbf"/><path d="m106.6 41-24-24a4 4 0 0 0-6.6 3v14a2 2 0 0 1-2 2H54a2 2 0 0 1-2-2V20a4 4 0 0 0-6.6-3l-24 24a4 4 0 0 0 0 6l24 24a4 4 0 0 0 6.6-3V54q.2-1.8 2-2h20a2 2 0 0 1 2 2v14a4 4 0 0 0 6.6 3l24-24a4 4 0 0 0 0-6" style="fill:#fafafa"/><path d="M39.7 12.9c0-2.3-1.6-3-10.8-2.7-7.7.3-11.5 1.2-13.8 4s-2.9 8.5-3 15.3c0 4.8 0 9.3 2.5 9.3 3.4 0 3.4-7.9 6.2-12.3 5.4-8.7 18.9-10.6 18.9-13.6" style="opacity:.5;fill:#b4e1ed"/><path d="M56.5 97.7q0 7-3.4 10.6c-3.4 3.6-5.6 3.7-9.8 3.7s-7.6-1.2-9.9-3.7-3.4-6-3.4-10.6 1.2-8.2 3.4-10.6q3.4-3.7 9.9-3.7c6.5 0 7.5 1.2 9.8 3.7q3.4 3.7 3.4 10.6m-20.3 0q0 4.7 1.8 7c1.8 2.3 3 2.4 5.3 2.4q7 0 7-9.4t-7-9.4q-3.5 0-5.3 2.4t-1.8 7m49.4 14h-7.5l-12-21h-.3q.4 5.5.4 7.9v13h-5.3V83.9h7.5l12 20.9h.2l-.3-7.7V83.8h5.3zm4.6-2.7q0-.9.2-1.6a3 3 0 0 1 1.8-1.5 5 5 0 0 1 2.6 0l1 .5q.5.4.8 1t.3 1.5-.3 1.5q-.3.8-.7 1l-1 .6-1.4.2q-.7 0-1.3-.2t-1-.6-.8-1zm5.7-6.6h-4.7l-1-18.6h6.6z" style="fill:#fafafa"/></svg>