<svg xml:space="preserve" width="16" height="16" viewBox="0 0 128 128"><path d="m37.6 61.9-.4-1.4q-.1-.4-.5-.3c-3.6.5-12.1 1.7-12.9 2.4q-.6.6-.4 1.4.3.9 1.3 1l1.2.2v.5q.3.6.8.8h.6c3 0 9.3-3.6 10-4q.4-.3.3-.6" style="fill:#edbd82"/><linearGradient id="a" x1="32.6" x2="47.5" y1="64.6" y2="76" gradientTransform="matrix(1 0 0 -1 0 128)" gradientUnits="userSpaceOnUse"><stop offset="0" style="stop-color:#f9ddbd"/><stop offset="1" style="stop-color:#ffd29c"/></linearGradient><path d="m48.8 42.8-6.2 11.8-10.8 5.7c-1.8 1 0 5.7 1.9 5.7l.4-.1 12.3-5q1.2-.5 1.8-1.6l7.1-13z" style="fill:url(#a)"/><linearGradient id="b" x1="38.2" x2="24.2" y1="64.6" y2="63.7" gradientTransform="matrix(1 0 0 -1 0 128)" gradientUnits="userSpaceOnUse"><stop offset="0" style="stop-color:#f9ddbd"/><stop offset="1" style="stop-color:#ffd29c"/></linearGradient><path d="M36.7 60.5c-1.3-1.5-2.2-1.4-3.5-1.1l-1 .2q-1.3.5-4 .8c-2.6.3-5.8.2-5.8.2h-.1q-.9.3-1.2 1-.2.8.4 1.4c1 1 4.4 1.2 6.5 1h2.8v.3q-.7.8-1.6 1.2-1 .8-1 1.5 0 .8 1.2 1.3l.7.1c1.8 0 4.4-1.7 5.4-2.6 1-1.1 2.5-3.8 1.2-5.3" style="fill:url(#b)"/><path d="m55.5 38.9-1-.5a5 5 0 0 0-7 2.3l-4.9 9.6 10.3 5.2 4.9-9.7a5 5 0 0 0-2.3-6.9" style="fill:#ed6d23"/><path d="M86 82.6 71.2 61l-10.9 7.9 17.4 22q1.6 2 3.9 2.3v.1l26.8 3.4 1.6-8.8z" style="fill:#edbd82"/><path d="m102.5 86.2-1.7 9.5 7.7 1 1.6-8.8z" style="fill:#bdbdbd"/><path d="M60.4 12.2c-2.7-4-8.6-6.8-13.2-5.8-5.3 1.1-8 5-8.4 9.9q-.2 2.7.3 4.7l.4 1.5c.3 1.3-2.2 2.7-2.4 4.2-.2 1 2.1 1.6 2.3 1.8 1 1-.2 5.6 6 5.8 2.3 0 1.9 0 2.6.2 1 .3 2.5 3.6 2.5 3.6s-.5 4.4 3.5 3c4.6-1.8 5.6-6 5.6-6s-3-3.6-.4-8.5c2-4 3-11.9 1.2-14.4" style="fill:#f9ddbd"/><path d="M40.2 31q1.2 0 2.3-.7c.8-.7.2-1.3-.7-.9q-.8.5-2 .4z" style="fill:#444"/><ellipse cx="43.4" cy="23.1" rx="1.1" ry="1.7" style="fill:#312d2d" transform="rotate(-4.6 43.37 23.08)"/><path d="M42.4 20.6c-1.1.3-1.4-.5-1-1q.4-.8 2.2-.6 1.7.6 2 1.4.5.7 0 .9c-.3 0-1.9-1.1-3.2-.7" style="fill:#454140"/><path d="M63.9 12.2a8 8 0 0 0-5.1-4.3c-.5-1.2-2.8-5.6-10.2-4Q46 4.7 44.3 6L43 7q-.6.3-1.5.2c-1.2-.4-1-2.2-1-2.2s-4.3 1-2.2 5.3c-1.5.7-2 2.3-2.3 3.8-.2 2 .9 4 2.8 4.7 0 0-.5-3.2 4.2-3.3 1.5 0 3 .2 4.3-.4l1.5-.9h.2c1.8.9-.3 5.2 1.8 7.6q.6.4.7.2l.7-1.2q.8-1.4 1.9-1.4c2.2.4 2 4.4-.6 5.4-.3 0 .6 4.4 6 4.2 2.8-.2 3.7-2.6 3.7-2.6s-1.2.4-1.5-.6q-.2-.8 1.1-2.1c2.5-2.4 1.4-5 1-5.7a7 7 0 0 0 .2-5.8" style="fill:#312d2d"/><radialGradient id="c" cx="57.4" cy="103.6" r="7.1" gradientTransform="rotate(17.5 -505.1 -63.4)scale(1 -1.44)" gradientUnits="userSpaceOnUse"><stop offset=".5" style="stop-color:#454140;stop-opacity:0"/><stop offset="1" style="stop-color:#454140"/></radialGradient><path d="M63.7 18c0-.1-.7 2-4.3 1.9-1.4 0-3.3 3.7-1 6 2 2 4.7.5 4.7.5s-.3.2-1 0c-.3-.1-.4-.6-.5-.6q-.2-.8 1.2-2.1c2.4-2.4 1.4-5 1-5.7" style="fill:url(#c)"/><radialGradient id="d" cx="58.2" cy="110.7" r="7.2" gradientTransform="rotate(169.5 5.42 83.35)scale(-1 1.262)" gradientUnits="userSpaceOnUse"><stop offset=".5" style="stop-color:#454140;stop-opacity:0"/><stop offset="1" style="stop-color:#454140"/></radialGradient><path d="M63.9 12.2a8 8 0 0 0-5.1-4.3 4 4 0 0 1 0 2.5s-.4 1.3-1.4 2.3q1.1 1.6 1.7 3.7c.4 1.1.8 2.3.3 3.4.7 0 1.8.1 3-.5s1.7-2 2-3.1q.3-2.2-.5-4" style="fill:url(#d)"/><radialGradient id="e" cx="50.2" cy="113.2" r="14.9" gradientTransform="rotate(168.4 3.29 54.73)scale(-1 .752)" gradientUnits="userSpaceOnUse"><stop offset=".5" style="stop-color:#454140;stop-opacity:0"/><stop offset="1" style="stop-color:#454140"/></radialGradient><path d="M58.7 10.4c.8-2.3-.5-4.3-2.5-5.6-2.2-1.5-5-1.5-7.6-1Q46 4.8 44.3 6L43 7q-.6.3-1.5.2c-1.2-.4-1-2.2-1-2.2s-4.3 1-2.2 5.3c-1.5.7-2 2.3-2.3 3.8-.2 2 .9 4 2.8 4.7 0 0-.5-3.2 4.2-3.3 1.5 0 3 .2 4.3-.4s1.6-1.2 3-1.2 3.3.4 4.8.1c3-.6 3.7-3.6 3.7-3.6" style="fill:url(#e)"/><radialGradient id="f" cx="59" cy="102.7" r="8" gradientTransform="matrix(.98 .198 .127 -.63 -12.04 77.3)" gradientUnits="userSpaceOnUse"><stop offset=".5" style="stop-color:#454140;stop-opacity:0"/><stop offset="1" style="stop-color:#454140"/></radialGradient><path d="M58.4 25.8c-1-1-1.4-2.6-3-3.5q-.3 1.6-2 2.4c-.2.1.6 4.5 6 4.2 2.8 0 3.7-2.5 3.7-2.5s-2.7 1.4-4.7-.6" style="fill:url(#f)"/><linearGradient id="g" x1="59.2" x2="53.7" y1="51.8" y2="19.6" gradientTransform="matrix(1 0 0 -1 0 128)" gradientUnits="userSpaceOnUse"><stop offset="0" style="stop-color:#ffd29c"/><stop offset="1" style="stop-color:#f9ddbd"/></linearGradient><path d="M60.5 61.5 48 82.6q-3 5-2.4 10.8l2.8 24.8H56l.9-27.5 15-22z" style="fill:url(#g)"/><path d="m47.2 108.2.8 8.5h7.9l.4-8.5z" style="fill:#e0e0e0"/><path d="M72.2 60a8 8 0 0 0-12.9 9.5l9 11.6 12.3-9z" style="fill:#646464"/><path d="M70.6 58.3a8 8 0 0 0-11 2.4L52 73.3l12.8 8.2L73 69.3a8 8 0 0 0-2.4-11" style="fill:#7c7c7c"/><radialGradient id="h" cx="57.6" cy="81.7" r="15.2" gradientTransform="matrix(1 0 0 -1 0 128)" gradientUnits="userSpaceOnUse"><stop offset=".4" style="stop-color:#f78c1f"/><stop offset=".7" style="stop-color:#f37f21"/><stop offset="1" style="stop-color:#ed6d23"/></radialGradient><path d="M74.2 61.4c-2-7.9-5.4-15.8-9-23.6a8 8 0 0 0-9.7-4.3 9.3 9.3 0 0 0-6 11.9c2.3 8 3.5 12.9 4.3 20.9a2 2 0 0 0 2 1.8l.6-.1 16.3-4.2a2 2 0 0 0 1.5-2.4" style="fill:url(#h)"/><linearGradient id="i" x1="62.8" x2="96.9" y1="77" y2="77" gradientTransform="matrix(1 0 0 -1 0 128)" gradientUnits="userSpaceOnUse"><stop offset="0" style="stop-color:#ffd29c"/><stop offset="1" style="stop-color:#f9ddbd"/></linearGradient><path d="m96.6 59.9-1.4-2.6a26 26 0 0 0-5.5-5.5 193 193 0 0 0-7.9-10.2 4 4 0 0 0-2-1.3l-14.2-4.5-.6.3-2.2 7q-.2.5.3.7l13 4c2.2 2 7.2 7 8 7.6q.3 2 .1 4-.1 2.1.4 3.1.8.8 1.2.6c.7 0 1.2-.7 1.4-1.2q.4-1.2.3-2v-.3c.6.4.8 2 1 3.4.2 1.7.4 3.1 1.5 3.3h.1l.6-.2c.5-.5.5-1.7.5-2.6v.9c.1.8.2 1.8 1.3 1.8q.5 0 .7-.3.5-.6.4-1.7.4.8 1 .7.4 0 .7-.6l.2-1.4q0 .2.2.2h.4q.3 0 .6-.6.5-1-.1-2.6" style="fill:url(#i)"/><path d="M62.3 33.2 61 33a5 5 0 0 0-5 3.7l-.3 1.3c-.8 2.7.8 5.6 3.5 6.4l10.5 3L73 36.2z" style="fill:#ed6d23"/><path d="M56 115.8h-8l-5.4 2a4 4 0 0 0-2.6 3.8v1.2q0 1 1 1h15.7q1.1-.1 1.2-1.1v-2.8c0-2-2-4-2-4" style="fill:#4568ad"/><path d="m116.3 87.4-2.8-.5h-.6a9 9 0 0 0-3.7 1.2l-1.5 7.8 1 5.7a4 4 0 0 0 3.2 3.3l1.2.2h.2a1 1 0 0 0 1-.8l2.9-15.5q.1-1-1-1.4" style="fill:#325599"/><radialGradient id="j" cx="19.3" cy="75" r="12.8" gradientTransform="translate(0 2)" gradientUnits="userSpaceOnUse"><stop offset="0" style="stop-color:#fb8c00"/><stop offset=".4" style="stop-color:#f47900"/><stop offset=".8" style="stop-color:#d95a1e"/></radialGradient><path d="M35.4 81c0 6.3-5.3 11.4-11.9 11.4-6.5 0-11.8-5.1-11.8-11.4S17 69.5 23.5 69.5 35.4 74.6 35.4 81" style="fill:url(#j)"/><radialGradient id="k" cx="17" cy="55.3" r="21.5" gradientTransform="matrix(1 0 0 -1 0 128)" gradientUnits="userSpaceOnUse"><stop offset="0" style="stop-color:#ffa726"/><stop offset=".5" style="stop-color:#fc950d"/><stop offset=".8" style="stop-color:#fb8c00"/></radialGradient><path d="M23.8 92.4h-.3q-1.7 0-3.3-.4a21 21 0 0 1-3.3-17v-.1l.4-1.3.5-1a8 8 0 0 1 2.6-2.7q1.5-.4 3-.4a8 8 0 0 0-4.6 4.2L18 76l-.2 3.3c.2 6.3 4.1 11.2 6 13.1" style="fill:url(#k)"/><radialGradient id="l" cx="17" cy="55.3" r="21.5" gradientTransform="matrix(1 0 0 -1 0 128)" gradientUnits="userSpaceOnUse"><stop offset="0" style="stop-color:#ffa726"/><stop offset=".5" style="stop-color:#fc950d"/><stop offset=".8" style="stop-color:#fb8c00"/></radialGradient><path d="M29.5 71c-3.5 0-6.3 2.5-10.7 2.7h-1.5q-1.4-.6-1.5-1.4l1-.7q-.3.8 1 1h1.5c2.5-.3 6-2 7-2.4l1-.1q1.1.3 2.2 1" style="fill:url(#l)"/><radialGradient id="m" cx="17" cy="55.3" r="21.5" gradientTransform="matrix(1 0 0 -1 0 128)" gradientUnits="userSpaceOnUse"><stop offset="0" style="stop-color:#ffa726"/><stop offset=".5" style="stop-color:#fc950d"/><stop offset=".8" style="stop-color:#fb8c00"/></radialGradient><path d="M32.8 88 31 90c-1-1.7-2.7-4.3-6-7.4a11 11 0 0 0-8-3.2l-.8.1c-2.6.8-3.2 4.3-3.3 6.5q-.8-1.4-1-3.2c.6-1.7 1.9-4 4.4-4.7h.7l.9-.2c3.5 0 6 1.7 8.5 3.5 3.3 2.4 5.4 5.3 6.4 6.8" style="fill:url(#m)"/><radialGradient id="n" cx="17" cy="55.3" r="21.5" gradientTransform="matrix(1 0 0 -1 0 128)" gradientUnits="userSpaceOnUse"><stop offset="0" style="stop-color:#ffa726"/><stop offset=".5" style="stop-color:#fc950d"/><stop offset=".8" style="stop-color:#fb8c00"/></radialGradient><path d="M35.4 80.8v.2q0 1.3-.4 2.6c-3.1-3-9.5-7.8-17-7.6l-1.4.1a8 8 0 0 0-4.5 2l.7-2q1.4-.8 4.1-1.2h.6l.9-.1a26 26 0 0 1 17 6" style="fill:url(#n)"/></svg>