<svg xml:space="preserve" width="16" height="16" viewBox="0 0 128 128"><circle cx="23" cy="115" r="9" style="fill:#455a64"/><path d="M25.2 116.4q-.8 1-2.2 1t-2.2-1h-3.6a6 6 0 0 0 11.6 0z" style="fill:#607d8b"/><circle cx="46.7" cy="115" r="9" style="fill:#455a64"/><path d="M49 116.4q-1 1-2.3 1c-1.3 0-1.6-.4-2.2-1H41a6 6 0 0 0 11.5 0z" style="fill:#607d8b"/><path d="M46.6 117.4H23.5l-3-7.6h28.7z" style="fill:#455a64"/><circle cx="82.1" cy="115" r="9" style="fill:#455a64"/><path d="M84.3 116.4q-.8 1-2.2 1c-1.4 0-1.6-.4-2.2-1h-3.5a6 6 0 0 0 11.5 0z" style="fill:#607d8b"/><circle cx="105.9" cy="115" r="9" style="fill:#455a64"/><path d="M108 116.4q-.7 1-2.1 1c-1.4 0-1.7-.4-2.2-1H100a6 6 0 0 0 11.5 0z" style="fill:#607d8b"/><path d="M105.7 117.4h-23l-3-7.6h28.6z" style="fill:#455a64"/><path d="M6.3 44h115.4v64.9H6.3z" style="fill:#ffecb3"/><path d="M6.3 91.9h115.4v16H6.3z" style="fill:#ffca28"/><path d="M6.3 42.4h115.4c-1.3-5.6-6.3-8.3-12.3-8.3H18.6c-6 0-11 2.7-12.3 8.3" style="fill:#00796b"/><path d="M6.3 42.4h115.4v3H6.3z" style="fill:#004d40"/><path d="M122.8 114.2H5.2q-1.1 0-1.2-1.2v-4q0-1 1.2-1.2h117.6q1 .1 1.2 1.3v3.9q0 1.1-1.2 1.2" style="fill:#82aec0"/><path d="M6.3 95.8h115.4v6H6.3z" style="fill:#e2a610"/><path d="M6.3 89.8h115.4v6H6.3z" style="fill:#4ca854"/><path d="M25.3 81H12.8a1 1 0 0 1-1-1V65q.1-1 1-1h12.5q1 0 1 1v15q0 .9-1 1" style="fill:#bae2fd"/><path d="M12.3 66v13q0 .8.8.9h12q.6 0 .7-1V66q0-.8-.8-.9H13.1q-.7 0-.8 1m13 16H12.8c-1.1 0-2-1-2-2.1V65q.2-2 2-2.1h12.5c1.1 0 2 1 2 2.1v15c0 1.2-.9 2.2-2 2.2" style="fill:#37474f"/><path d="M47.8 81H35.3a1 1 0 0 1-1-1V65q0-1 1-1h12.5q1 0 1 1v15q0 .9-1 1" style="fill:#bae2fd"/><path d="M34.8 66v13q0 .8.8.9h11.9q.8 0 .8-1V66q0-.8-.8-.9h-12q-.7 0-.7 1m13 16H35.3c-1.1 0-2-1-2-2.1V65q.2-2 2-2.1h12.5c1.1 0 2 1 2 2.1v15c0 1.2-.9 2.2-2 2.2m-13-11v-.6q0-.5.5-.5h12.4q.5 0 .6.5v.6h1v-1.7q0-.5-.6-.5H34.3q-.5 0-.5.5v1.7z" style="fill:#37474f"/><path d="M70.3 81H57.7a1 1 0 0 1-1-1V65q.1-1 1-1h12.6q.9 0 1 1v15q-.1.9-1 1" style="fill:#bae2fd"/><path d="M57.2 66v13q.1.8.8.9h12q.7 0 .8-1V66q-.1-.8-.8-.9H58q-.7 0-.8 1m13 16H57.8c-1 0-2-1-2-2.1V65a2 2 0 0 1 2-2.1h12.6c1 0 2 1 2 2.1v15c0 1.2-1 2.2-2 2.2m-13.2-11v-.6q0-.5.6-.5h12.4q.5 0 .6.5v.6h1v-1.7q0-.5-.6-.5H56.8q-.5 0-.6.5v1.7z" style="fill:#37474f"/><path d="M92.7 81H80.2a1 1 0 0 1-1-1V65q.1-1 1-1h12.5q1 0 1 1v15q0 .9-1 1" style="fill:#bae2fd"/><path d="M79.7 66v13q.1.8.8.9h12q.7 0 .7-1V66q0-.8-.8-.9H80.5q-.7 0-.8 1m13 16H80.2c-1.1 0-2-1-2-2.1V65q.2-2 2-2.1h12.5c1.1 0 2 1 2 2.1v15c0 1.2-.9 2.2-2 2.2" style="fill:#37474f"/><path d="M115.2 81h-12.5a1 1 0 0 1-1-1V65q0-1 1-1h12.5q.9 0 1 1v15q0 .9-1 1" style="fill:#bae2fd"/><path d="M102.2 66v13q0 .8.8.9h11.9q.8 0 .8-1V66q0-.8-.8-.9h-12q-.7 0-.7 1m13 16h-12.5c-1.1 0-2-1-2-2.1V65q.1-2 2-2.1h12.5c1.1 0 2 1 2 2.1v15c0 1.2-.9 2.2-2 2.2m-35.5-11v-.6q0-.5.5-.5h12.5q.5 0 .5.5v.6h1v-1.7q0-.5-.5-.5H79.3q-.5 0-.6.5v1.7zm22.5 0v-.6q0-.5.5-.5h12.4q.6 0 .6.5v.6h1v-1.7q0-.5-.6-.5h-14.4q-.5 0-.5.5v1.7zm-89.9 0v-.6q0-.5.5-.5h12.5q.5 0 .5.5v.6h1v-1.7q0-.5-.5-.5H11.9q-.6 0-.6.5v1.7z" style="fill:#37474f"/></svg>