<svg xmlns:xlink="http://www.w3.org/1999/xlink" xml:space="preserve" width="16" height="16" viewBox="0 0 128 128"><linearGradient id="a" x1="64" x2="64" y1="116.6" y2="39.5" gradientTransform="matrix(1 0 0 -1 0 128)" gradientUnits="userSpaceOnUse"><stop offset="0" style="stop-color:#26a69a"/><stop offset="1" style="stop-color:#00796b"/></linearGradient><path d="M6.4 10.9h115.3v77.5H6.4z" style="fill:url(#a)"/><linearGradient id="b" x1="64" x2="64" y1="119.5" y2="37.2" gradientTransform="matrix(1 0 0 -1 0 128)" gradientUnits="userSpaceOnUse"><stop offset="0" style="stop-color:#8d6e63"/><stop offset=".8" style="stop-color:#795548"/></linearGradient><path d="M119.3 13.3V86H8.7V13.3zm4.7-4.7H4v82.2h120z" style="fill:url(#b)"/><path d="M64 90.8h-9.5v10.8c0 5 3.9 8.9 8.6 8.9H65c4.7 0 8.6-4 8.6-8.9V90.8z" style="fill:#c48e6a"/><linearGradient id="c" x1="64" x2="64" y1="31.9" y2="5.1" gradientTransform="matrix(1 0 0 -1 0 128)" gradientUnits="userSpaceOnUse"><stop offset="0" style="stop-color:#e1f5fe"/><stop offset="1" style="stop-color:#81d4fa"/></linearGradient><path d="M82.7 97.2q-6-1-12.3-1.3l-2.7 2.9-3.6 3.9-3.7-4-2.7-2.8q-6.3.3-12.3 1.2C27 99.9 12 107.4 12 120.8v3.2h104v-3.2c0-12.7-15-20.5-33.3-23.6" style="fill:url(#c)"/><linearGradient id="d" x1="63.6" x2="63.6" y1="31.2" y2="4.8" gradientTransform="matrix(1 0 0 -1 0 128)" gradientUnits="userSpaceOnUse"><stop offset="0" style="stop-color:#00bfa5"/><stop offset="1" style="stop-color:#00ab94"/></linearGradient><path d="M104.1 124h-81c.2-6.2 1.2-13.8 4-21.9 0 0 2.1-1 5.5-2.2a56 56 0 0 1 12.7-3.1l2.5 14.5 15.6-8.2h1.3l15.7 8.2 2.4-14.5c10 1.2 18.2 5.3 18.2 5.3a58 58 0 0 1 3.1 21.9" style="fill:url(#d)"/><linearGradient id="e" x1="32.4" x2="32.4" y1="32.8" y2="5" gradientTransform="matrix(1 0 0 -1 0 128)" gradientUnits="userSpaceOnUse"><stop offset="0" style="stop-color:#b2dfdb;stop-opacity:.2"/><stop offset=".8" style="stop-color:#b2dfdb;stop-opacity:.6"/></linearGradient><path d="M36.1 98.7a125 125 0 0 0-4.3 25.3h-3a125 125 0 0 1 3.8-24.1z" style="fill:url(#e)"/><linearGradient id="f" x1="948.7" x2="948.7" y1="32.9" y2="5" gradientTransform="matrix(-1 0 0 -1 1044.09 128)" gradientUnits="userSpaceOnUse"><stop offset="0" style="stop-color:#b2dfdb;stop-opacity:.2"/><stop offset=".8" style="stop-color:#b2dfdb;stop-opacity:.6"/></linearGradient><path d="M99.3 124c-.3-5.4-1.6-14.6-4.3-24.3l-3.5-1.1c3 10 4.5 19.8 4.7 25.4z" style="fill:url(#f)"/><linearGradient id="g" x1="64.1" x2="64.1" y1="12.3" y2="35.2" gradientTransform="matrix(1 0 0 -1 0 128)" gradientUnits="userSpaceOnUse"><stop offset="0" style="stop-color:#e1f5fe"/><stop offset="1" style="stop-color:#81d4fa"/></linearGradient><path d="m74.1 91.9-3.7 4-1.3 1.4-1.4 1.5-3.6 3.9-3.7-4-1.4-1.4-1.3-1.4-3.7-4-8.7 4.9v.3l.3 1.5.3 1.5 1.9 11.2 16.3-8.5 16.3 8.5 1.8-11.1.3-1.5.2-1.5v-.4z" style="fill:url(#g)"/><linearGradient id="h" x1="79.1" x2="72.8" y1="21.1" y2="-5.5" gradientTransform="matrix(1 0 0 -1 0 128)" gradientUnits="userSpaceOnUse"><stop offset="0" style="stop-color:#212121;stop-opacity:.2"/><stop offset="1" style="stop-color:#212121;stop-opacity:.6"/></linearGradient><path d="m101 124 .8-2.7.6-2.2-1.6-.5 1.6-5.7v-1.2q-.3-.9-1.1-1.1h-.2l-3.7-1.1-35-10v-.1c-3.3-.9-6.7 1-7.6 4.3l-1.4 5-.4 1.1-1.3 4.6L49 124z" style="fill:url(#h)"/><path d="m102.3 124 3.5-12.1q.3-1.7-1.3-2.4l-38.7-11c-3.3-1-6.7.9-7.7 4.2L52 124z" style="fill:#424242"/><linearGradient id="i" x1="81.9" x2="76.7" y1="17.3" y2="-.1" gradientTransform="matrix(1 0 0 -1 0 128)" gradientUnits="userSpaceOnUse"><stop offset="0" style="stop-color:#ef5350"/><stop offset="1" style="stop-color:#e53935"/></linearGradient><path d="m104 124 1-3.7c.4-1.2-.3-2.5-1.5-2.8l-41.6-12c-4.5-1.3-5.3 2.4-6.6 6.8L52 124z" style="fill:url(#i)"/><g style="opacity:.2"><path d="M64.3 101.6h.6l37.3 10.7-.3 1.1c-11.8-3.3-34.3-9.6-39-11.1q.4-.7 1.4-.7m0-3.4c-4.5 0-6.7 5.6-3 7 4 1.5 42.8 12.3 42.8 12.3l1.6-5.5c.3-1-.2-2.2-1-2.4l-39-11.2z" style="fill:#424242"/></g><linearGradient id="j" x1="-117.4" x2="-74" y1="-972.3" y2="-972.3" gradientTransform="rotate(16 -4393.16 122.7)scale(1 1.157)" gradientUnits="userSpaceOnUse"><stop offset="0" style="stop-color:#bdbdbd"/><stop offset="1" style="stop-color:#f5f5f5"/></linearGradient><path d="m103.4 112.1-39.8-11.4c-1.1-.3-2.3.5-2.7 1.7v.2c-.4 1.3.2 2.6 1.3 2.9l39.8 11.4s-.3-.8 0-2.3a7 7 0 0 1 1.4-2.5" style="fill:url(#j)"/><defs><path id="k" d="m105.7 118-44.5-12.6c-3.6-1-4 .2-4.8 3.4L52 124h54.2z"/></defs><clipPath id="l"><use xlink:href="#k" style="overflow:visible"/></clipPath><linearGradient id="m" x1="52.6" x2="56.9" y1="6" y2="19.7" gradientTransform="matrix(1 0 0 -1 0 128)" gradientUnits="userSpaceOnUse"><stop offset="0" style="stop-color:#212121"/><stop offset="1" style="stop-color:#424242"/></linearGradient><path d="m55.9 124 7.7-27-6.4-1.9-8.3 28.9z" style="clip-path:url(#l);fill:url(#m)"/><path d="M91.3 50.4H36.7c-6 0-10.7 5.2-10.7 11.4s4.8 11.5 10.7 11.5h54.6c6 0 10.7-5.2 10.7-11.5s-4.8-11.4-10.7-11.4" style="fill:#c48e6a"/><path d="M64 11c-17.4 0-33.5 18.7-33.5 45.5C30.5 83 47 96.3 64 96.3S97.5 83 97.5 56.5C97.5 29.7 81.4 11 64 11" style="fill:#e0bb95"/><ellipse cx="48.2" cy="58.8" rx="4.9" ry="5.1" style="fill:#5d4037"/><ellipse cx="79.3" cy="58.8" rx="4.9" ry="5.1" style="fill:#5d4037"/><path d="M67.9 68H60q-1 .5-.6 1.7c.3.7 1.7 2.7 4.5 2.7s4.3-2 4.6-2.7q.3-1.2-.7-1.6" style="fill:#c48e6a"/><path d="M72.5 76.1a26 26 0 0 1-16.8 0c-1.8-1-3.7.6-3 2.3s6.5 5.4 11.4 5.4 10.6-3.8 11.4-5.4c.7-1.7-1.1-3.4-3-2.3" style="fill:#6d4c41"/><path d="M40 50.7c3-4.2 9.8-4.6 13.7-1.5q1 .8 1.7 2c.4 1.3-.9 2.3-2 2l-2.3-.9a11 11 0 0 0-3.6-.5c-1.8 0-3 .2-4.7 1-.7.2-1.3.7-2 .3-1-.4-1.4-1.5-.8-2.4m46 2.4-.8-.4c-1.8-.7-2.8-1-4.7-.9-1.7 0-2.7.2-4 .7-.9.3-1.9 1-2.8.7-1.3-.4-1.3-1.8-.6-2.8q1.4-1.6 3.3-2.4c3-1.3 6.5-1 9.2.6q1.5.8 2.4 2.1c.8 1.3-.4 3-2 2.4M64 4c-45.5.3-36.2 52.2-36.2 52.2l3 7.7q.4.5.7 0a352 352 0 0 1 6.2-24.5 6 6 0 0 1 6.8-3.8A111 111 0 0 0 64 37.4h.2c7.8 0 14.9-1 19.3-1.8a6 6 0 0 1 6.8 3.8c1.8 4.7 5.2 20 6.2 24.4.1.3.6.4.7 0l3-7.6S109.4 4.2 64 4" style="fill:#ab872f"/><radialGradient id="n" cx="64" cy="80.9" r="38.1" gradientTransform="matrix(1 0 0 -1.128 0 138.37)" gradientUnits="userSpaceOnUse"><stop offset=".8" style="stop-color:#bfa055;stop-opacity:0"/><stop offset="1" style="stop-color:#bfa055"/></radialGradient><path d="M100.1 56.2S109.4 4.2 64 4l-6 .4h-.3C19.4 9.2 27.8 56.2 27.8 56.2l3 7.6q.4.6.7 0c1-4.4 4.5-19.7 6.2-24.4a6 6 0 0 1 6.8-3.8A111 111 0 0 0 64 37.4h.2c7.8 0 14.9-1 19.3-1.8a6 6 0 0 1 6.8 3.8c1.8 4.7 5.3 20.1 6.2 24.5.1.3.6.3.7 0z" style="fill:url(#n)"/><path d="M94 53c-.1-1.3-.2-1.4-1.8-1.9a63 63 0 0 0-14-.6C73.6 51 68 52.8 63.9 53c-1.7 0-9-1.9-14-2.3h-1c-5.2-.3-12 .3-13.1.7-1.6.5-1.7.6-1.7 1.8q-.2 2 1 2.5c1.3.4 1.3 2 2.2 6.5.7 4.2 2.6 7.5 10.5 8h1c7 .2 9.5-4.5 10.3-6 1.5-2.9 1-6.8 5-6.8 3.9 0 3.5 3.8 5 6.7.8 1.5 3.2 6.2 10.1 6h1c8-.6 9.9-3.9 10.6-8 .8-4.6.8-6.1 2.1-6.6q1.3-.6 1-2.5zM53.3 68.1q-2 .8-4.6.8c-3.6 0-7.6-1.2-9-3.8-2-3.6-2.6-11 0-12.5 1.2-.6 5-1 9-1 4.1.3 8.4 1.1 10 3.1 2.5 3.4-1.6 11.5-5.4 13.4zm35-3.1c-1.5 2.5-5.5 3.8-9 3.8q-2.7 0-4.6-.8c-3.9-1.8-8-10-5.4-13.3 1.5-2 5.8-3 10-3.1a22 22 0 0 1 8.9.9c2.6 1.5 2 8.8 0 12.5z" style="fill:#212121;stroke:#212121;stroke-width:.5499;stroke-miterlimit:10"/></svg>