<svg xml:space="preserve" width="16" height="16" viewBox="0 0 128 128"><path d="M112 124H16a12 12 0 0 1-12-12V16A12 12 0 0 1 16 4h96a12 12 0 0 1 12 12v96a12 12 0 0 1-12 12" style="fill:#bdbdbd"/><g style="opacity:.7"><circle cx="34.8" cy="91.5" r="18.8" style="fill:#757575"/></g><circle cx="34.8" cy="91.5" r="15.9" style="fill:#37474f"/><path d="m50.4 88.4-.4-1.7L37.6 89a2.1 2.1 0 0 0 .8 4.2l12.2-2.4q0-1.2-.3-2.5" style="fill:#fff"/><g style="opacity:.7"><circle cx="18.2" cy="107.7" r="1.8" style="fill:#212121"/><circle cx="12.4" cy="98.3" r="1.8" style="fill:#212121"/><circle cx="11.6" cy="87.5" r="1.8" style="fill:#212121"/><circle cx="15.7" cy="77.4" r="1.8" style="fill:#212121"/><circle cx="24.3" cy="70.1" r="1.8" style="fill:#212121"/><circle cx="34.8" cy="67.7" r="1.8" style="fill:#212121"/><circle cx="45.3" cy="70.1" r="1.8" style="fill:#212121"/><circle cx="53.9" cy="77.4" r="1.8" style="fill:#212121"/><circle cx="58" cy="87.5" r="1.8" style="fill:#212121"/><circle cx="57.2" cy="98.3" r="1.8" style="fill:#212121"/><circle cx="51.4" cy="107.7" r="1.8" style="fill:#212121"/></g><path d="M22.4 89.3c1-4.6 4.4-8.5 8.7-10.3q1-.4 1.7.5.6 1.2-.8 2a14 14 0 0 0-6 8.6c-.2 1-1.3 1.6-2.3 1.3q-1.6-.6-1.3-2.2" style="fill:#2f7889"/><g style="opacity:.7"><circle cx="34.8" cy="37.2" r="18.8" style="fill:#757575"/></g><circle cx="34.8" cy="37.2" r="15.9" style="fill:#37474f"/><path d="m46.5 26.5-1.3-1.3-9.1 8.5a2.1 2.1 0 0 0 2.8 3.1l9.2-8.3z" style="fill:#fff"/><g style="opacity:.7"><circle cx="18.2" cy="53.5" r="1.8" style="fill:#212121"/><circle cx="12.4" cy="44" r="1.8" style="fill:#212121"/><circle cx="11.6" cy="33.3" r="1.8" style="fill:#212121"/><circle cx="15.7" cy="23.2" r="1.8" style="fill:#212121"/><circle cx="24.3" cy="15.9" r="1.8" style="fill:#212121"/><circle cx="34.8" cy="13.4" r="1.8" style="fill:#212121"/><circle cx="45.3" cy="15.9" r="1.8" style="fill:#212121"/><circle cx="53.9" cy="23.2" r="1.8" style="fill:#212121"/><circle cx="58" cy="33.3" r="1.8" style="fill:#212121"/><circle cx="57.2" cy="44" r="1.8" style="fill:#212121"/><circle cx="51.4" cy="53.5" r="1.8" style="fill:#212121"/></g><path d="M22.4 35a15 15 0 0 1 8.7-10.3q1-.4 1.7.5.6 1.3-.8 2a14 14 0 0 0-6 8.6c-.2 1-1.3 1.6-2.3 1.3-1-.2-1.5-1.2-1.3-2.1" style="fill:#2f7889"/><g style="opacity:.7"><circle cx="93.2" cy="91.5" r="18.8" style="fill:#757575"/></g><circle cx="93.2" cy="91.5" r="15.9" style="fill:#37474f"/><path d="m106 82-1.2-1.3-10 7.4a2.1 2.1 0 1 0 2.5 3.4l10-7.3z" style="fill:#fff"/><g style="opacity:.7"><circle cx="76.6" cy="107.7" r="1.8" style="fill:#212121"/><circle cx="70.8" cy="98.3" r="1.8" style="fill:#212121"/><circle cx="70" cy="87.5" r="1.8" style="fill:#212121"/><circle cx="74.1" cy="77.4" r="1.8" style="fill:#212121"/><circle cx="82.7" cy="70.1" r="1.8" style="fill:#212121"/><circle cx="93.2" cy="67.7" r="1.8" style="fill:#212121"/><circle cx="103.7" cy="70.1" r="1.8" style="fill:#212121"/><circle cx="112.3" cy="77.4" r="1.8" style="fill:#212121"/><circle cx="116.4" cy="87.5" r="1.8" style="fill:#212121"/><circle cx="115.6" cy="98.3" r="1.8" style="fill:#212121"/><circle cx="109.8" cy="107.7" r="1.8" style="fill:#212121"/></g><path d="M80.7 89.3c1-4.6 4.4-8.5 8.7-10.3.5-.2 1.4-.2 1.7.5q.5 1.2-.8 2a14 14 0 0 0-6 8.6c-.2 1-1.3 1.6-2.3 1.3q-1.6-.6-1.3-2.2" style="fill:#2f7889"/><g style="opacity:.7"><circle cx="93.2" cy="37.2" r="18.8" style="fill:#757575"/></g><circle cx="93.2" cy="37.2" r="15.9" style="fill:#37474f"/><path d="m80.5 27.6-1 1.5 10 7.5a2.1 2.1 0 1 0 2.6-3.3l-9.9-7.5q-1 .8-1.7 1.8" style="fill:#fff"/><g style="opacity:.7"><circle cx="76.6" cy="53.5" r="1.8" style="fill:#212121"/><circle cx="70.8" cy="44" r="1.8" style="fill:#212121"/><circle cx="70" cy="33.3" r="1.8" style="fill:#212121"/><circle cx="74.1" cy="23.2" r="1.8" style="fill:#212121"/><circle cx="82.7" cy="15.9" r="1.8" style="fill:#212121"/><circle cx="93.2" cy="13.4" r="1.8" style="fill:#212121"/><circle cx="103.7" cy="15.9" r="1.8" style="fill:#212121"/><circle cx="112.3" cy="23.2" r="1.8" style="fill:#212121"/><circle cx="116.4" cy="33.3" r="1.8" style="fill:#212121"/><circle cx="115.6" cy="44" r="1.8" style="fill:#212121"/><circle cx="109.8" cy="53.5" r="1.8" style="fill:#212121"/></g><path d="M82.8 45.4c-2-3.2-2.3-5.4-2.2-8.5 0-.9.4-2.3 1.7-2.1 1.1.2 1 1.2 1 2 .5 2.6 1.1 4 2.6 6.6q.8 1.5-.7 2.6c-.8.4-1.9.2-2.4-.6" style="fill:#2f7889"/></svg>