<svg xml:space="preserve" width="16" height="16" viewBox="0 0 128 128"><path d="M110.5 59c9.5-24.8 3.6-43.8.3-49.3-1.4-2.1-4-2.7-6.3-2-6.2 2-23 15.7-30.4 34.9M17.5 59C8 34.2 14 15.2 17.2 9.7c1.4-2.1 4-2.7 6.3-2 6.2 2 23 15.7 30.4 34.9m60.2 28.2c-1.8-26-19.7-44.5-50.1-44.5S15.7 44.8 13.9 70.8a39 39 0 0 0 17 36.2s12.3 9.9 33.1 10.1C84.8 117 97 107 97 107a39 39 0 0 0 17.1-36.2" style="fill:#ffc022"/><path d="M54.1 45c1.1 1 3.4.8 4.8-.7 1.6-1.9 3.3-8.2 2.2-18q-7 .5-13.2 2c3.3 5.5 4.1 15 6.2 16.7m19.8 0c-1.2 1-3.4.8-4.8-.7-1.6-1.9-3.3-8.2-2.2-18q7 .5 13.2 2c-3.3 5.5-4.1 15-6.2 16.7" style="opacity:.47;fill:#ff7043"/><path d="m6.1 64.8 15.1 7.5M4 77l18.1 3.2m99.8-15.4-15.1 7.5M124 77l-18.1 3.2" style="fill:none;stroke:#9e9e9e;stroke-width:3;stroke-linecap:round;stroke-miterlimit:10"/><path d="m32.6 70.3-1-.2a2.2 2.2 0 0 1-1-3c.3-.7 3.5-7.8 9.3-7.8 5.7 0 9.2 6.7 9.5 7.5.6 1.1.1 2.4-1 3q-1.6.6-3-1c-1-1.1-3-3.5-5.5-3.5s-4.6 2.6-5.3 3.6q-.8 1.3-2 1.4m62.8 0 1-.2a2.2 2.2 0 0 0 1-3c-.3-.7-3.5-7.8-9.3-7.8-5.7 0-9.1 6.7-9.5 7.5-.6 1.1-.1 2.4 1 3q1.7.6 3-1c1-1.1 3-3.5 5.5-3.5s4.6 2.6 5.3 3.6q.8 1.3 2 1.4M56 77c0-2.9 4-4.3 8-4.3 3.8 0 8 1.2 8 4s-4.8 6.7-8 6.7-8-3.6-8-6.4"/><path d="M90 90.4a6 6 0 0 0-6.7-1.3c-2.7 1-11 4.2-15.2 1.5-3.7-2.4-3.5-7.1-3.5-7.1H63s.3 5.2-3.1 7c-4.3 2.6-12.5-.3-15.2-1.4a6 6 0 0 0-6.8 1.3 5 5 0 0 0-.7 5.9C39.5 100.6 47.8 108 64 108s24.5-7.4 26.8-11.7q1.5-3.3-.7-6" style="fill:#fff"/><path d="M91.6 88.8a6 6 0 0 0-7.2-1.4c-2.8 1.1-11.6 4.7-16 1.6-4-2.6-2.4-6.8-2.4-6.8h-4s1.2 4.7-2.3 6.8c-4.6 2.9-13.3-.5-16.1-1.6-2.6-1-5.4-.5-7.2 1.4a6 6 0 0 0-.7 6.7c2.4 4.9 11.2 13.2 28.3 13.3 17.2 0 25.9-8.4 28.3-13.3 1.2-2.4 1-5-.7-6.7m-2 5.3c-2 4-9.9 11.6-25.6 11.7S40.4 98 38.3 94q-.9-1.9.3-3.3a3 3 0 0 1 2.3-1q.8 0 1.5.4c5.7 2.2 13.7 4.8 19 1.3l2.6-2 2.7 2c5.2 3.5 13.2 1 18.9-1.3l1.5-.3a3 3 0 0 1 2.3 1q1.2 1.3.3 3.2"/><path d="M42.9 89.5v12.4m10.6-10.4v13.7M64 86.8v19.9m21.1-18.3v12.3M74.5 90.5v14.2" style="fill:none;stroke:#000;stroke-width:2;stroke-miterlimit:10"/><path d="M99 75a1 1 0 0 1 .8-1 29 29 0 0 1 20 10.3c3.6 4.7 4.8 13.1-.5 17a9.6 9.6 0 0 1-15.1-5.3l-2.1-11.5a59 59 0 0 0-3-9.5" style="fill:#28b3f2"/><path d="M120.9 98.2c-6.4 4.6-13.1 1-14.6-5.3 0 0-1.6-7.5-2.7-10.7-1.8-5.2-4.4-8-4.4-8s-.4.4-.2.9q1.1 2 3 9.4l2.2 11.5a9.6 9.6 0 0 0 15.1 5.3 9 9 0 0 0 3.3-5.2q-.6 1.3-1.7 2.1" style="fill:#0277bd"/><path d="M113.5 83.7c1.9-1 5.4.8 7 5.5 1.8 4.8-1.5 7.8-4.8 4-2.4-2.6-4.1-8.5-2.2-9.5" style="fill:#81d4fa"/><path d="M29 75a1 1 0 0 0-.8-1 29 29 0 0 0-20 10.3c-3.6 4.7-4.8 13.1.5 17 6.3 4.7 14 .4 15.1-5.3L26 84.5q2-7.4 3-9.5" style="fill:#28b3f2"/><path d="M7.1 98.2c6.4 4.6 13.1 1 14.6-5.3 0 0 1.6-7.5 2.7-10.7 1.8-5.2 4.5-8 4.5-8s.3.4 0 .9q-1 2-3 9.4-1 4.7-2 11.5a9.6 9.6 0 0 1-15.2 5.3 9 9 0 0 1-3.3-5.2q.6 1.3 1.7 2.1" style="fill:#0277bd"/><path d="M14.5 83.7c-1.9-1-5.4.8-7 5.5-1.7 4.8 1.5 7.8 4.8 4 2.4-2.6 4.1-8.5 2.2-9.5" style="fill:#81d4fa"/><path d="M92.2 36.2c-1.6-1.3-1.5-3.3-.6-5.1 2.1-4.3 7.3-8.8 9.1-10.3 3-2.3 5.3-3.1 6.2.7 1.7 7 1.5 16.7-.2 22-.6 1.8-2.6 2.8-4 1.5zm-56.4 0c1.6-1.3 1.5-3.3.6-5.1a38 38 0 0 0-9.1-10.3c-3-2.3-5.3-3.1-6.2.7-1.7 7-1.5 16.7.2 22 .6 1.8 2.6 2.8 4 1.5z" style="fill:#ffd1d1"/></svg>