<svg xml:space="preserve" width="16" height="16" viewBox="0 0 128 128"><path d="M48.8 38.9h75.3v7H48.8z" style="fill:#ffca28" transform="rotate(-43.3 86.5 42.45)"/><path d="m23.3 101.9 69.6-65.5c4.6-4.4 12.1-3.9 16.8 1 0 0 9 8.6 0 17l-33 31.1c-4.4 4-11 2.8-15.3-.8-4.4-3.7-7.1-12 .4-19" style="fill:none;stroke:#ffca28;stroke-width:7.1779;stroke-miterlimit:10"/><path d="M58.7 63.6C35.7 81 12.4 72 10.8 71.5c-4-1.4-5 .1-5.5.6-3.9 4 1.2 16.6 13 30S44 124.8 48.1 121c2.8-2.7 2-5.2 1.7-9.5-.3-5.6-4.8-25.2 13.8-42.7z" style="fill:#ffca28"/><ellipse cx="25.9" cy="98.5" rx="4.6" ry="26.6" style="fill:#dd7341" transform="rotate(-41.6 25.87 98.47)"/><path d="M53.5 69.2a49 49 0 0 1-30.9 7.9c-1-.1-2-.2-2.7.5-1 .9 5.9 7.9 10.5 7a53 53 0 0 0 26.4-15.7c.7-.7-.2-1.8-1-1.2z" style="fill:#fff9c4"/><path d="M94.2 83q-.8 1.6-3.5 3.1-1.5.7-2.6-.4L57.5 53.2l5.8-5.4 30.6 32.5q1 1.3.3 2.7" style="fill:#ffca28"/><ellipse cx="56.8" cy="46.7" rx="3.5" ry="1.9" style="fill:#9e740b" transform="rotate(-43.3 56.82 46.73)"/><path d="M60.2 48.4 58.9 47l-2 1.8 1.4 1.4q-1.5 2-1 2.9c.6.6 2.4-.1 4-1.6s2.4-3.3 1.8-3.9q-.9-.6-2.9.8" style="fill:#9e740b"/><path d="M103.5 74.4q-.8 1.6-3.5 3.2c-.8.4-2 .3-2.6-.4L66.8 44.5l5.8-5.4 30.6 32.6q1 1.2.3 2.6" style="fill:#ffca28"/><ellipse cx="66.2" cy="38.2" rx="3.5" ry="1.9" style="fill:#9e740b" transform="rotate(-43.3 66.16 38.17)"/><path d="m69.5 39.8-1.3-1.4-2 1.8 1.4 1.4q-1.6 2-1 2.9c.7.6 2.4-.1 4-1.6s2.4-3.2 1.9-3.8q-.9-.7-3 .7" style="fill:#9e740b"/><path d="M112.4 65.7q-.8 1.6-3.5 3.1-1.4.7-2.6-.4L75.7 35.9l5.8-5.4L112.1 63q1 1.2.3 2.7" style="fill:#ffca28"/><ellipse cx="78.5" cy="33" rx="4" ry="1.5" style="fill:#9e740b" transform="rotate(-43.3 78.49 33.04)"/><ellipse cx="75.1" cy="29.4" rx="3.5" ry="1.9" style="fill:#9e740b" transform="rotate(-43.3 75.08 29.42)"/><path d="M76 30.1h2.6v3.4H76z" style="fill:#9e740b" transform="rotate(-43.3 77.32 31.8)"/><path d="M120.3 9.7c-4-4-7-4.2-8.6-2.6q-1 1.1-.5 3 .5 1.5-.4 2.5l-1.6 1.7c-1.4 1.4-.8 2.8-.8 2.8s1.4.5 3 1.8c1.3 1.6 2 3 2 3s1.3.6 2.7-.8l1.7-1.7q1-.7 2.3-.4 2 .5 3-.5c1.6-1.6 1.3-4.8-2.8-8.8" style="fill:#616161"/></svg>