<svg xml:space="preserve" width="16" height="16" viewBox="0 0 128 128"><radialGradient id="a" cx="63.6" cy="-2088.9" r="57" gradientTransform="matrix(1 0 0 -1 0 -2026)" gradientUnits="userSpaceOnUse"><stop offset=".5" style="stop-color:#fde030"/><stop offset=".9" style="stop-color:#f7c02b"/><stop offset="1" style="stop-color:#f4a223"/></radialGradient><path d="M63.6 118.8c-27.9 0-58-17.5-58-55.9S35.7 7 63.6 7c15.5 0 29.8 5.1 40.4 14.4 11.5 10.2 17.6 24.6 17.6 41.5s-6.1 31.2-17.6 41.4a61 61 0 0 1-40.4 14.5" style="fill:url(#a)"/><radialGradient id="b" cx="63.6" cy="-2088.9" r="57" gradientTransform="matrix(1 0 0 -1 0 -2026)" gradientUnits="userSpaceOnUse"><stop offset=".1" style="stop-color:#f4a223"/><stop offset=".4" style="stop-color:#f49f22"/><stop offset=".5" style="stop-color:#f6951d"/><stop offset=".7" style="stop-color:#f88416"/><stop offset=".9" style="stop-color:#fb6d0c"/><stop offset="1" style="stop-color:#ff5100"/></radialGradient><path d="M63.6 118.8c-27.9 0-58-17.5-58-55.9S35.7 7 63.6 7c15.5 0 29.8 5.1 40.4 14.4 11.5 10.2 17.6 24.6 17.6 41.5s-6.1 31.2-17.6 41.4a61 61 0 0 1-40.4 14.5" style="fill:url(#b)"/><linearGradient id="c" x1="63.6" x2="63.6" y1="-2144.8" y2="-2033" gradientTransform="matrix(1 0 0 -1 0 -2026)" gradientUnits="userSpaceOnUse"><stop offset="0" style="stop-color:#f4a223"/><stop offset=".1" style="stop-color:#f4a223;stop-opacity:.9051"/><stop offset=".9" style="stop-color:#f4a223;stop-opacity:0"/></linearGradient><path d="M63.6 118.8c-27.9 0-58-17.5-58-55.9S35.7 7 63.6 7c15.5 0 29.8 5.1 40.4 14.4 11.5 10.2 17.6 24.6 17.6 41.5s-6.1 31.2-17.6 41.4a61 61 0 0 1-40.4 14.5" style="fill:url(#c)"/><path d="M111.5 29.7a57 57 0 0 1 8.1 30.2c0 16.9-6.1 31.2-17.6 41.4a61 61 0 0 1-40.4 14.5c-18 0-37-7.3-48.2-23a58 58 0 0 0 50.2 26c15.4 0 29.8-5.2 40.4-14.5a54 54 0 0 0 17.6-41.4q-.1-19.2-10.1-33.2" style="fill:#d84213"/><radialGradient id="d" cx="25.7" cy="63.1" r="19.4" gradientTransform="matrix(.98 0 0 .93 2.09 6.47)" gradientUnits="userSpaceOnUse"><stop offset="0" style="stop-color:#ed0e00"/><stop offset=".1" style="stop-color:#ed1709;stop-opacity:.8431"/><stop offset=".4" style="stop-color:#ed2f23;stop-opacity:.582"/><stop offset=".7" style="stop-color:#ed554c;stop-opacity:.2513"/><stop offset=".9" style="stop-color:#ed7770;stop-opacity:0"/></radialGradient><circle cx="27.3" cy="65.2" r="17.5" style="fill:url(#d)"/><radialGradient id="e" cx="100.8" cy="63.1" r="19.4" gradientTransform="matrix(.98 0 0 .93 2.09 6.47)" gradientUnits="userSpaceOnUse"><stop offset="0" style="stop-color:#ed0e00"/><stop offset=".1" style="stop-color:#ed1709;stop-opacity:.8431"/><stop offset=".4" style="stop-color:#ed2f23;stop-opacity:.582"/><stop offset=".7" style="stop-color:#ed554c;stop-opacity:.2513"/><stop offset=".9" style="stop-color:#ed7770;stop-opacity:0"/></radialGradient><circle cx="100.8" cy="65.2" r="17.5" style="fill:url(#e)"/><ellipse cx="64" cy="91.2" rx="28.5" ry="11.8" style="fill:#422b0d"/><path d="M65.1 98.3a2 2 0 0 0 2-2V82.6h-4v13.7q.2 1.8 2 2" style="fill:#f04"/><path d="M65.1 98.3a2 2 0 0 0 2-2V82.6h-4v13.7q.2 1.8 2 2" style="opacity:.3;fill:#1f0b08"/><radialGradient id="f" cx="20.6" cy="495.1" r="33.4" gradientTransform="matrix(1 0 0 1.54 0 -699.47)" gradientUnits="userSpaceOnUse"><stop offset=".5" style="stop-color:#4fc3f7"/><stop offset="1" style="stop-color:#1e88e5"/></radialGradient><path d="M19.5 107c-8.4 0-15-8.2-15-15.2 0-5 2.3-10.7 5.4-18.6l1.4-3.7c1.5-3.7 2.8-7.7 4.8-11.2a3.5 3.5 0 0 1 6.2 0c1.8 3.5 3.1 7.2 5 11.5 5.5 12.2 7 17.2 7 22.1.2 7-6.4 15.1-14.8 15.1" style="fill:url(#f)"/><path d="M28.7 97.7c-2 3-6.3 2.4-6.3-2.6 0-3.1.7-19.2 3.4-17 4.3 3.7 5.6 15.4 2.9 19.6" style="fill:#81d4fa"/><path d="M27.4 39.8c-2.2.4-2.3 3.6 0 3.7a21 21 0 0 0 18.1-10c1.2-2.2-1.6-3.7-3-2a26 26 0 0 1-15.1 8.3m58.7-8.3c-1.5-1.7-4.3-.2-3 2q1.3 2.5 3.7 4.5c4 3.8 9.4 5.6 14.3 5.5 2.4-.1 2.3-3.3 0-3.7a26 26 0 0 1-15-8.3" style="fill:#422b0d"/><path d="M63.1 85.9v10.4q.2 1.8 2 2c1.8.2 2-.9 2-2V86z" style="fill:none"/><path d="M67.1 85.9v10.4q-.2 1.8-2 2c-1.8.2-2-.9-2-2V86c-7.5.2-13.4 1.5-16.9 2.4V101c0 9.6 7.8 17.3 17.3 17.3h3.2c9.5 0 17.2-7.8 17.2-17.3V88.3Q75 86 67.1 86m0-3.4v3.3q7.8 0 16.9 2.4v-1.7a42 42 0 0 0-16.9-4" style="fill:#ff4081"/><path d="M67.1 82.6v3.3q7.8 0 16.9 2.4v-1.7a42 42 0 0 0-16.9-4" style="opacity:.3;fill:#ab3f2e"/><path d="M63.1 82.6a33 33 0 0 0-16.8 4v1.8a68 68 0 0 1 16.8-2.5z" style="fill:#ff4081"/><path d="M63.1 82.6a33 33 0 0 0-16.8 4v1.8a68 68 0 0 1 16.8-2.5z" style="opacity:.3;fill:#ab3f2e"/><radialGradient id="g" cx="113.6" cy="467.6" r="29.5" gradientTransform="matrix(1 0 0 1.54 0 -699.47)" gradientUnits="userSpaceOnUse"><stop offset=".5" style="stop-color:#4fc3f7"/><stop offset="1" style="stop-color:#1e88e5"/></radialGradient><path d="M112.6 59.6c-7.5 0-13.2-7.3-13.2-13.5 0-4.4 2-9.4 4.7-16.5l1.3-3.2c1.3-3.3 2.4-6.8 4.2-10a3.1 3.1 0 0 1 5.5.1c1.6 3 2.7 6.3 4.4 10.1 4.9 10.9 6.3 15.2 6.3 19.6 0 6.1-5.8 13.4-13.2 13.4" style="fill:url(#g)"/><path d="M120.7 51.3c-1.7 2.6-5.5 2-5.5-2.3 0-2.7.5-17 3-15 3.8 3.3 5 13.6 2.5 17.3" style="fill:#81d4fa"/><path d="M44 46c-4.2 0-8 3.5-8 9.4s3.8 9.4 8 9.4 8-3.6 8-9.4-3.8-9.5-8-9.5" style="fill:#422b0d"/><path d="M43.7 49.9c-1-.8-2.6-.5-3.6 1-1 1.4-.7 2.9.3 3.6s2.6.5 3.6-1 .7-3-.4-3.6" style="fill:#896024"/><path d="M82.4 46c-4.2 0-8 3.5-8 9.4s3.8 9.4 8 9.4 8-3.6 8-9.4-3.8-9.5-8-9.5" style="fill:#422b0d"/><path d="M82 49.9c-1-.8-2.6-.5-3.6 1-1 1.4-.6 2.9.4 3.6s2.6.5 3.6-1c1-1.4.6-3-.4-3.6" style="fill:#896024"/></svg>