<svg xml:space="preserve" width="16" height="16" viewBox="0 0 128 128"><path d="M68.5 16.1s-9.6 5-11.8 13.7 1.2 16-.4 20.8-3.8 6.4-4.6 7.6c-.8 1.3-6.2 5.4-6.2 5.4l3.7 2.4s9.4-8.2 10.6-15.4c1.2-7-1.5-14.7.2-20.2 1.8-5.3 5.9-8.7 9.3-11 4-2.5-.8-3.3-.8-3.3" style="fill:#bbccd3"/><path d="M26.8 97.5c-1.1-.2-6.3 1.8-10.7 3.2s-7.6 2-7.5 2.9c.1 1 3.2 2.8 7.1 3.3s6.4-1 6.4-1 .4 2.3 1.4 4.7c1.5 3.3 4.6 6.1 5.8 5.7.8-.4-.9-14.3-1-15.7s-1.6-3-1.6-3m.7-31.8s-.6-.6-2-.6c-1.2 0-11 3.6-11 5.2 0 1.5 1.5 6.2 3.4 10.2s5.7 11.1 5.7 11.1z" style="fill:#1966a4"/><radialGradient id="a" cx="10.9" cy="62" r="46.8" gradientUnits="userSpaceOnUse"><stop offset=".8" style="stop-color:#1383bb"/><stop offset=".8" style="stop-color:#208bc0"/><stop offset=".8" style="stop-color:#42a0ce"/><stop offset=".9" style="stop-color:#79c1e3"/><stop offset=".9" style="stop-color:#90cfec"/></radialGradient><path d="M24 102.8s-5.3-19.5-1.2-32a22 22 0 0 1 16.5-14.7c3.9-.8 9.9 0 9.9 0l1.1.8.5 5.9 5-1.9s5.8 12.5-2 25.2c-10.3 17-30 17-29.9 16.7" style="fill:url(#a)"/><path d="M40.1 77.5c-.9.8-1.8 5.2-1.8 9.7s-.3 7.1.5 7.4 5.6-4.7 6.5-10.9-4-7.4-5.2-6.2m8.8-21.4s.8-1 1.6-1 1.4 1 1.4 1.4v4.8s2.3-1.5 2.7-1.6c.8-.3 1.8.7 1.7 1.6s-4.2 3.9-6 3.2c-1.3-.6-1.5-3.1-1.5-4.5z" style="fill:#1966a4"/><path d="M40.2 64.5c-.9.8-1.2 2.8.4 4 1.1.9 3 .3 3.6-.5 1-1.1.4-3.2-.7-3.9s-2.5-.4-3.3.4" style="fill:#292d26"/><path d="m109.3 78.4-8.6-2.7s22-53.7 4-63.3c-17.2-9.2-32.5 6-34.1 7.2s-3.1 1-3.6.2-1-2.7 2.5-5.7S86-2 105.6 6c19 7.7 12.8 36.2 12.2 41.3-1 9.7-8.5 31.2-8.5 31.2" style="fill:#40717b"/><path d="M100.6 73c1.1-1.3 2-1.9 6.4-.3 4.3 1.6 4.1 3.9 3.6 5.1a239 239 0 0 1-17.4 44c-.6.9-2.5 2.7-6.9 1.5-4.3-1.3-4.5-6-4-7.4 1-3.2 8.8-18.2 12.2-27.6s5-13.9 6-15.3" style="fill:#e3c08c"/><path d="M102.1 79.9q-2.5-1-4.4 4.6c-1.4 3.8-2.9 6.6-2.9 6.6s-1 3.4 1.3 4.2 3.2-1.6 4-3.4c1-2.7 2.6-6.3 3-8 .6-1.6.7-3.5-1-4m-14.9 7.8-10.9 1.5-1.4 3.7-4 2-3.8 2.1h-3.7l-1 5.5s2 1 4 1c1.8-.1 5.7-3 7.3-4.4l.1.4c.5 1.9 2 2.8 2 2.8s-2.7 5.2-2 7.1c.5 1.4 3.6 3.4 6.7 3.3 2.4-.1 4.7-6.9 4.7-6.9s4 .6 6-3.4 3-6.7 3-6.7z" style="fill:#40727b"/><path d="M57.8 97.2c-1 2.3 0 4.4 2.7 5.5s5 .7 5 .7-1.7-2.4-.6-4.3c1-1.7 2.2-2.1 2.2-2.1s-2-2.5-5.1-2.6c-1.7 0-3.5 1-4.2 2.8" style="fill:#f5a055"/><path d="M89.9 82.2c-6.2-2.4-9.4-.1-10.7 1.2s-2.9 5.8-2.9 5.8a41 41 0 0 0 17.8 7s2.4-5.3 1.4-8.5c-.6-2.2-1.7-4-5.6-5.5" style="fill:#6aa5ad"/></svg>