<svg xml:space="preserve" width="16" height="16" viewBox="0 0 128 128"><radialGradient id="a" cx="63.6" cy="1992.9" r="57" gradientTransform="translate(0 -1930)" gradientUnits="userSpaceOnUse"><stop offset=".5" style="stop-color:#fde030"/><stop offset=".9" style="stop-color:#f7c02b"/><stop offset="1" style="stop-color:#f4a223"/></radialGradient><path d="M63.6 118.8c-27.9 0-58-17.5-58-55.9S35.7 7 63.6 7c15.5 0 29.8 5.1 40.4 14.4 11.5 10.2 17.6 24.6 17.6 41.5s-6.1 31.2-17.6 41.4a61 61 0 0 1-40.4 14.5" style="fill:url(#a)"/><path d="M111.5 29.7a57 57 0 0 1 8.1 30.2c0 16.9-6.1 31.2-17.6 41.4a61 61 0 0 1-40.4 14.5 59 59 0 0 1-48.2-23 58 58 0 0 0 50.2 26c15.4 0 29.8-5.2 40.4-14.5a54 54 0 0 0 17.6-41.4q-.1-19.2-10.1-33.2" style="fill:#eb8f00"/><path d="M89.7 79.1A86 86 0 0 0 64 75.5q-13.3 0-26 3.8-4.6 7.2-4.6 15.8a6.4 6.4 0 0 0 9.2 5.8q10.2-4.7 21.4-5 11.2.2 21.4 5a6.4 6.4 0 0 0 9.2-5.8q0-8.7-4.9-16" style="fill:#422b0d"/><path d="M89.7 79.1c-6-9.5-16.6-11.9-25.7-11.9-9.9 0-20.3 2.5-26 12a87 87 0 0 1 26-3.7 86 86 0 0 1 25.7 3.6" style="fill:#fff"/><path d="M33.7 31c-2.2.3-2.3 3.5.1 3.6a21 21 0 0 0 18-10 1.8 1.8 0 1 0-3-2 26 26 0 0 1-15 8.3m44.6-8.4a1.8 1.8 0 1 0-3 2.1q1.5 2.6 3.7 4.5a21 21 0 0 0 14.3 5.5c2.5 0 2.3-3.3.1-3.7-5.8-1-11.2-4-15-8.4m-44 18.7s13 1.4 22 10.9a2.6 2.6 0 0 1-1.5 4.3c-3.5.3-8.7 2.1-16 7.6 0 0-4 3.8-7 0-2.5-3 2-6.4 2-6.4s5.2-4.7 11.4-5L34 49.9a6 6 0 0 1-3.2-1.5 4 4 0 0 1-1-3.9 5 5 0 0 1 4.8-3.3m59.4 0s-13 1.4-22 10.9a2.6 2.6 0 0 0 1.5 4.3 33 33 0 0 1 16 7.6s4 3.8 7 0c2.5-3-2-6.4-2-6.4s-5.2-4.7-11.4-5l11.4-2.7q1.8-.1 3.2-1.5 1.7-1.7 1-3.9a5 5 0 0 0-4.7-3.3" style="fill:#422b0d"/><path d="M64 65.7q5.3 0 10.4 1.3 5.3 1.2 9.7 4.3 4.5 3.3 7 8a32 32 0 0 1 4 15.1q.1 1.4-.2 2.7a7 7 0 0 1-8.8 4.5l-2.4-1A52 52 0 0 0 63.9 96q10.5 0 20 4l2.4 1q1.2.2 2.3.1 2.5-.2 4-2.2.8-1 1-2 .3-1.2.2-2.4a29 29 0 0 0-4.4-14.2 22 22 0 0 0-6.6-7q-4.2-2.7-9-3.7-5-1-9.9-.8zm.2 3a44 44 0 0 0-9.9.9q-4.8.9-9 3.6a22 22 0 0 0-6.6 7 31 31 0 0 0-4.4 14.3l.2 2.3q.2 1.3 1 2 1.5 2 4 2.3 1.2 0 2.3-.2l2.4-1q9.6-4 20-4a52 52 0 0 0-19.8 4.7l-2.4 1q-1.3.4-2.7.4a7 7 0 0 1-6-5l-.4-2.6a30 30 0 0 1 11.1-23q4.5-3.2 9.7-4.4t10.5-1.3z" style="fill:#eb8f00"/></svg>