<svg xml:space="preserve" width="16" height="16" viewBox="0 0 128 128"><path d="M116 4H12a8 8 0 0 0-8 8v104a8 8 0 0 0 8 8h104a8 8 0 0 0 8-8V12a8 8 0 0 0-8-8" style="fill:#f77e00"/><path d="M109.7 4H11.5A7.6 7.6 0 0 0 4 11.5v97.9c0 4.1 3.3 7.5 7.5 7.5h98.1c4.1 0 7.5-3.3 7.5-7.5V11.5c0-4-3.1-7.4-7.2-7.5z" style="fill:#ff9800"/><path d="M39.7 12.9c0-2.3-1.6-3-10.8-2.7-7.7.3-11.5 1.2-13.8 4-3.5 4.2-3 10.6-3 15.7q-.2 2 1.3 3.2 1.9.8 3.5-.6c2-1.5 3.3-3.9 4.2-6.3l1-2.1c1.8-3 6.6-4.6 9.8-6 1.8-.7 7.8-2.6 7.8-5.2" style="opacity:.75;fill:#ffbd52"/><path d="M13.8 36.9H25l11.3 33 2 7h.6l2.2-7 11.8-33H64L44 91.8H33zM75.3 89a21 21 0 0 1-7.8-11.6l9.8-3.8q1 4.4 3.9 7a10 10 0 0 0 6.9 2.6 10 10 0 0 0 5.9-1.7 6 6 0 0 0 2.4-4.8q0-3-2.3-5a30 30 0 0 0-8.3-4.2l-3.4-1.2a23 23 0 0 1-9-5.7 13 13 0 0 1-3.8-9.5q0-4.4 2.2-7.8 2.3-3.5 6.3-5.6t9.2-2q7.5 0 11.7 3.5a18 18 0 0 1 6 8.1l-9.2 3.9a9 9 0 0 0-3-4.3 8 8 0 0 0-5.3-1.7q-3.4 0-5.6 1.5a5 5 0 0 0-2.2 4.1q0 2.5 2 4.2a22 22 0 0 0 6.9 3.3l3.5 1.2q7.1 2.4 10.9 6.5t3.8 10.5q0 5.4-2.8 9a17 17 0 0 1-7 5.7 23 23 0 0 1-9 1.8q-7.2 0-12.7-4" style="fill:#fafafa"/></svg>