<svg xml:space="preserve" width="16" height="16" viewBox="0 0 128 128"><linearGradient id="a" x1="64" x2="64" y1="102.5" y2="24.7" gradientTransform="matrix(1 0 0 -1 0 128)" gradientUnits="userSpaceOnUse"><stop offset="0" style="stop-color:#757575"/><stop offset=".5" style="stop-color:#504f4f"/></linearGradient><path d="M65 80.8h-7.7a2 2 0 0 0-2 1.6L52 100.8a2 2 0 0 1-2 1.6h-4.8a2 2 0 0 1-2-2.4l3.2-16.9a2 2 0 0 0-2-2.3h-7.7a2 2 0 0 1-2-2v-4.3q.2-1.8 2-2h10a2 2 0 0 0 2-1.7L51 58.3a2 2 0 0 0-2-2.4h-8.4a2 2 0 0 1-2-2v-4.3q.2-1.8 2-2h10.7a2 2 0 0 0 2-1.7l3.5-18.6a2 2 0 0 1 2-1.7h4.7a2 2 0 0 1 2 2.4l-3.3 17.2a2 2 0 0 0 2 2.4H72a2 2 0 0 0 2-1.7l3.5-18.6a2 2 0 0 1 2-1.7h4.7a2 2 0 0 1 2 2.4l-3.3 17.2a2 2 0 0 0 2 2.4h6.5a2 2 0 0 1 2 2v4.3a2 2 0 0 1-2 2h-8.8a2 2 0 0 0-2 1.7L78.3 70a2 2 0 0 0 2 2.4h7.2a2 2 0 0 1 2 2v4.3a2 2 0 0 1-2 2h-9.6a2 2 0 0 0-2 1.6l-3.4 18.4a2 2 0 0 1-2 1.6h-4.7a2 2 0 0 1-2-2.3L67 83a2 2 0 0 0-2-2.3m-5.4-8.4h7.8a2 2 0 0 0 2-1.6l2.2-12.6a2 2 0 0 0-2-2.3H62a2 2 0 0 0-2 1.6L57.7 70a2 2 0 0 0 2 2.3" style="fill:url(#a)"/></svg>