<svg xml:space="preserve" width="16" height="16" viewBox="0 0 128 128"><path d="M98.9 79.9c-1.2-2.3.3-4.6 3-7.5 4.4-4.5 9-15 4.7-25.8 0 0-.9-1.8-.8-1.9H104a3374 3374 0 0 0-80 0l-2.6 2a25 25 0 0 0 4.7 25.7c2.7 2.9 4.3 5.2 3 7.4s-4.8 2.6-4.8 2.6.8 2.2 2.8 3.5c1.9 1 4.2 1.3 5.7 1.4 0 0 6.2 8.5 22.3 8.5H73c16 0 22.2-8.5 22.2-8.5 1.6 0 3.8-.3 5.7-1.4 2-1.3 2.8-3.5 2.8-3.5s-3.6-.3-4.8-2.6" style="fill:#d6d6d6"/><g style="opacity:.5"><radialGradient id="a" cx="99.1" cy="81.9" r="23.4" gradientTransform="matrix(1 0 0 -.491 -20.07 122.19)" gradientUnits="userSpaceOnUse"><stop offset=".7" style="stop-color:#d6d6d6;stop-opacity:0"/><stop offset=".8" style="stop-color:#e6e6e6;stop-opacity:.2791"/><stop offset=".9" style="stop-color:#f8f8f8;stop-opacity:.7007"/><stop offset="1" style="stop-color:#fff"/></radialGradient><path d="M64 95.8v-9.4L92.6 84l2.6 3.2s-6.2 8.5-22.3 8.5z" style="fill:url(#a)"/><radialGradient id="b" cx="77.8" cy="78.6" r="8.1" gradientTransform="rotate(155 73.9 12.66)scale(1 -.742)" gradientUnits="userSpaceOnUse"><stop offset="0" style="stop-color:#fff"/><stop offset=".3" style="stop-color:#f8f8f8;stop-opacity:.7007"/><stop offset=".7" style="stop-color:#e6e6e6;stop-opacity:.2791"/><stop offset="1" style="stop-color:#d6d6d6;stop-opacity:0"/></radialGradient><path d="M95.1 83.2c-4.3-6.5 5.2-9 5.2-9-1.6 2-2.4 3.9-1.4 5.6 1.2 2.3 4.8 2.6 4.8 2.6s-5 4.3-8.6.8" style="fill:url(#b)"/><radialGradient id="c" cx="94.1" cy="60.1" r="30.4" gradientTransform="rotate(-94.3 140.27 9.63)scale(1 -.833)" gradientUnits="userSpaceOnUse"><stop offset=".6" style="stop-color:#d6d6d6;stop-opacity:0"/><stop offset=".7" style="stop-color:#e6e6e6;stop-opacity:.2791"/><stop offset=".9" style="stop-color:#f8f8f8;stop-opacity:.7007"/><stop offset="1" style="stop-color:#fff"/></radialGradient><path d="M106.6 46.7c4.3 10.3-.2 21-4.4 25.5-.6.6-3 3-3.6 4.9 0 0-9.5-13.3-12.3-21.1q-1-2.4-1.2-5c0-1.2.1-2.7.9-3.7a111 111 0 0 1 20.1-1.7z" style="fill:url(#c)"/><radialGradient id="d" cx="44" cy="62.6" r="30.4" gradientTransform="rotate(-85.7 49.65 57.37)scale(1 .833)" gradientUnits="userSpaceOnUse"><stop offset=".6" style="stop-color:#d6d6d6;stop-opacity:0"/><stop offset=".7" style="stop-color:#e6e6e6;stop-opacity:.2791"/><stop offset=".9" style="stop-color:#f8f8f8;stop-opacity:.7007"/><stop offset="1" style="stop-color:#fff"/></radialGradient><path d="M21.4 46.7c-4.2 10.3.2 21 4.4 25.5.6.6 3 3 3.6 4.9 0 0 9.5-13.3 12.4-21.2q.9-2.3 1.1-4.8.1-2.1-.8-3.9c-1-1.3-2-1-3.5-1-2.8 0-15.5-.7-16.4-.7z" style="fill:url(#d)"/><radialGradient id="e" cx="40.9" cy="85.5" r="23.4" gradientTransform="matrix(-1 0 0 -.491 81.73 127.47)" gradientUnits="userSpaceOnUse"><stop offset="0" style="stop-color:#d6d6d6;stop-opacity:0"/><stop offset=".2" style="stop-color:#e6e6e6;stop-opacity:.2791"/><stop offset=".5" style="stop-color:#f8f8f8;stop-opacity:.7007"/><stop offset=".8" style="stop-color:#fff"/></radialGradient><path d="M64 95.8v-9.4L35.5 84l-2.6 3.2S39 95.8 55 95.8z" style="fill:url(#e)"/><radialGradient id="f" cx="28.2" cy="79.5" r="6.9" gradientTransform="rotate(25 -18 69.27)scale(1 .742)" gradientUnits="userSpaceOnUse"><stop offset="0" style="stop-color:#fff"/><stop offset=".3" style="stop-color:#f8f8f8;stop-opacity:.7007"/><stop offset=".7" style="stop-color:#e6e6e6;stop-opacity:.2791"/><stop offset="1" style="stop-color:#d6d6d6;stop-opacity:0"/></radialGradient><path d="M33 83.2c4.2-6.5-5.3-9-5.3-9q2.7 3 1.4 5.6c-1.2 2.3-4.8 2.6-4.8 2.6s5 4.3 8.6.8" style="fill:url(#f)"/></g><linearGradient id="g" x1="64" x2="64" y1="108.3" y2="123.8" gradientUnits="userSpaceOnUse"><stop offset="0" style="stop-color:#f78c1f"/><stop offset=".5" style="stop-color:#f37f21"/><stop offset="1" style="stop-color:#ed6d23"/></linearGradient><path d="M64.1 94.7C38.6 94.7 13 102.2 13 120v4h102v-4c0-16.8-25.4-25.3-51-25.3" style="fill:url(#g)"/><path d="M55 90v10c0 4.6 3.6 8.2 8.2 8.2h1.6c4.6 0 8.3-3.6 8.3-8.1V90zm36.3-39.6H36.7c-6 0-10.7 5.2-10.7 11.4s4.8 11.5 10.7 11.5h54.6c6 0 10.7-5.2 10.7-11.5s-4.8-11.4-10.7-11.4" style="fill:#7a4c32"/><path d="M64 11c-17.4 0-33.5 18.7-33.5 45.5C30.5 83 47 96.3 64 96.3S97.5 83 97.5 56.5C97.5 29.7 81.4 11 64 11" style="fill:#a56c43"/><ellipse cx="47.6" cy="58.8" rx="4.9" ry="5.1" style="fill:#42312c"/><ellipse cx="80.4" cy="58.8" rx="4.9" ry="5.1" style="fill:#42312c"/><path d="M55 49.8c-1-1.2-3-3-7.3-3s-6.3 1.8-7.2 3q-.5 1 0 1.6t1.9.4c.9-.3 2.5-1.2 5.3-1.2 2.9 0 4.5.9 5.4 1.2q1.4.3 1.9-.4t0-1.6m32.5 0c-1-1.2-3-3-7.2-3s-6.4 1.8-7.3 3q-.5 1 0 1.6t1.9.4c.9-.3 2.5-1.2 5.4-1.2 2.8 0 4.4.9 5.3 1.2q1.4.3 1.9-.4t0-1.6" style="fill:#9e9e9e"/><path d="M67.9 68h-7.7q-1.1.5-.7 1.7a5 5 0 0 0 4.5 2.7 5 5 0 0 0 4.6-2.7q.3-1.2-.7-1.6" style="fill:#875334"/><path d="M72.4 76.1a26 26 0 0 1-16.8 0c-1.8-1-3.7.6-3 2.3s6.5 5.4 11.4 5.4 10.6-3.8 11.3-5.4-1-3.4-2.9-2.3" style="fill:#473530"/><path d="M104 25.1c-2.4-3.7-7.8-8.6-12.8-9-.7-4.7-5.8-8.7-10.7-10.2a31 31 0 0 0-26.4 3c-1 .5-7.2 4-11.5 1.5-2.8-1.5-2.7-5.7-2.7-5.7S31.4 7.9 34.3 17a10 10 0 0 0-8.8 5.4c-2.4 5-1.6 9-.9 11A11 11 0 0 0 21.1 46c1.6 4.4 8.2 6.5 8.2 6.5-.5 8 1 13 1.8 15 .1.3.6.2.7-.1 1-4 4.4-17.8 4-20.2 0 0 11.4-2.3 22.2-10.3q3.3-2.4 7.1-4c13.6-5.4 16.5 3.8 16.5 3.8S91 35 93.8 48c1.1 5 1.8 12.8 2.4 18.3 0 .3.6.4.8 0 1-2.1 2.8-6.4 3.3-10.8.1-1.6 4.3-3.6 6.1-10.3 2.4-8.9-.6-17.4-2.3-20" style="fill:#d6d6d6"/><g style="opacity:.5"><radialGradient id="h" cx="82" cy="43.1" r="35.6" gradientTransform="rotate(72 74.38 37.5)scale(1 .742)" gradientUnits="userSpaceOnUse"><stop offset=".6" style="stop-color:#d6d6d6;stop-opacity:0"/><stop offset=".7" style="stop-color:#e6e6e6;stop-opacity:.2791"/><stop offset=".9" style="stop-color:#f8f8f8;stop-opacity:.7007"/><stop offset="1" style="stop-color:#fff"/></radialGradient><path d="M100.2 55.5c.2-1.5 4.4-3.6 6.2-10.3l.5-2.1a28 28 0 0 0-2.8-18 22 22 0 0 0-11.7-8.8l-1.2-.1s.3 2.1-.5 3.8a6 6 0 0 1-3.4 2.8c12 12 11 22 13 32.7" style="fill:url(#h)"/><radialGradient id="i" cx="41.7" cy="4.7" r="17.3" gradientTransform="rotate(28.2 43.43 5.08)scale(1 1.186)" gradientUnits="userSpaceOnUse"><stop offset=".3" style="stop-color:#fff"/><stop offset=".8" style="stop-color:#d6d6d6;stop-opacity:0"/></radialGradient><path d="m57 7.4-3 1.5c-.9.5-7.1 4-11.4 1.5-2.7-1.5-2.7-5.6-2.7-5.7-1.2 1.6-5 12.8 6 13.5 4.6.3 7.5-3.8 9.2-7.2z" style="fill:url(#i)"/><radialGradient id="j" cx="155.5" cy="66.1" r="28" gradientTransform="matrix(-.938 -.394 .218 -.528 200.04 114.03)" gradientUnits="userSpaceOnUse"><stop offset=".6" style="stop-color:#d6d6d6;stop-opacity:0"/><stop offset=".7" style="stop-color:#e6e6e6;stop-opacity:.2791"/><stop offset=".9" style="stop-color:#f8f8f8;stop-opacity:.7007"/><stop offset="1" style="stop-color:#fff"/></radialGradient><path d="M79.2 5.5c7.3 2 10.8 5.7 12 10.6.4 1.5.8 15.1-25.2-.4-9.7-5.7-7-9.3-5.9-9.7a31 31 0 0 1 19-.5" style="fill:url(#j)"/><radialGradient id="k" cx="40.1" cy="17.7" r="8.6" gradientTransform="matrix(1 0 0 1.223 0 -3.96)" gradientUnits="userSpaceOnUse"><stop offset="0" style="stop-color:#d6d6d6;stop-opacity:0"/><stop offset=".3" style="stop-color:#e6e6e6;stop-opacity:.2791"/><stop offset=".7" style="stop-color:#f8f8f8;stop-opacity:.7007"/><stop offset="1" style="stop-color:#fff"/></radialGradient><path d="M39.8 4.7c-1 .4-8.3 3.8-5.5 12.3l7.7 1.2c-6.8-7-2-13.5-2-13.5" style="fill:url(#k)"/><radialGradient id="l" cx="42.4" cy="27.3" r="20.4" gradientTransform="rotate(195 42.52 26.42)scale(1 .936)" gradientUnits="userSpaceOnUse"><stop offset=".4" style="stop-color:#d6d6d6;stop-opacity:0"/><stop offset=".6" style="stop-color:#e6e6e6;stop-opacity:.2791"/><stop offset=".8" style="stop-color:#f8f8f8;stop-opacity:.7007"/><stop offset="1" style="stop-color:#fff"/></radialGradient><path d="m39 17.7-4.7-.7H33a10 10 0 0 0-7.7 5.4 14 14 0 0 0-1.2 9.4l.4 1.6s2.4-2.3 8-2.4z" style="fill:url(#l)"/><radialGradient id="m" cx="37.4" cy="44.5" r="16.9" gradientTransform="rotate(7.8 169.02 53.5)scale(1 1.405)" gradientUnits="userSpaceOnUse"><stop offset=".4" style="stop-color:#d6d6d6;stop-opacity:0"/><stop offset=".6" style="stop-color:#e6e6e6;stop-opacity:.2791"/><stop offset=".8" style="stop-color:#f8f8f8;stop-opacity:.7007"/><stop offset="1" style="stop-color:#fff"/></radialGradient><path d="M24.4 33.6a11 11 0 0 0-3.2 12.6c1.7 4.4 8 6.3 8 6.3s1.3.4 2 .4l1.4-22c-3 0-5.9 1-7.8 2.3z" style="fill:url(#m)"/></g></svg>