<svg xml:space="preserve" width="16" height="16" viewBox="0 0 128 128"><linearGradient id="a" x1="64" x2="64" y1="84.3" y2="123.7" gradientUnits="userSpaceOnUse"><stop offset="0" style="stop-color:#00bfa5"/><stop offset=".5" style="stop-color:#00b29a"/><stop offset="1" style="stop-color:#00ab94"/></linearGradient><path d="M105.9 103.2c-2.2-4.7-8.4-19.6-16-23-8.2-3.8-25.9.6-25.9.6s-17.4-4.2-25.7-.5c-7.6 3.5-14 18.2-16.2 23-2 4.7-3.8 11.3-1 15.3 2.6 4 5.8 5.4 11.8 5.4H94c8 0 10.3-1.3 13-5.4 2.7-4 1-10.6-1.2-15.4" style="fill:url(#a)"/><linearGradient id="b" x1="26.3" x2="53.3" y1="99.8" y2="99.8" gradientUnits="userSpaceOnUse"><stop offset=".5" style="stop-color:#f9ddbd"/><stop offset="1" style="stop-color:#ffd29c"/></linearGradient><path d="M52.9 101q.6-.1.3-.9a19 19 0 0 0-10.8-7.8q-5-.8-9.1.4c-2.4.6-5.1 2.2-5.8 3.2-1.7 2.3.3 3.2.3 3.2s-2 1.4-1.4 3c.7 1.8 3.3.9 3.3.9s-1.3 1.1-.1 2.5c1 1.1 3.3.3 3.3.3s-.3 1 .8 1.6c1.6 1 4-1.2 5.6-1.8l3.6-1.4c3.3-1.1 7.3-2 10-3.2" style="fill:url(#b)"/><path d="M48 124a139 139 0 0 0 32.2-11.4c.6-.5.2-2 .2-2s12.5-5.2 13.2-4.2.4 1.2-.5 1.8c-.7.5-11.1 4.7-15.8 7.7-7.3 4.7-14.2 8-14.2 8z" style="fill:#00796b"/><linearGradient id="c" x1="68.6" x2="94.1" y1="104.2" y2="104.2" gradientUnits="userSpaceOnUse"><stop offset=".5" style="stop-color:#f9ddbd"/><stop offset="1" style="stop-color:#ffd29c"/></linearGradient><path d="M68.6 99s7.6 3 11.8 11.6c0 0 2-.2 4.4-1s3.3-1.7 4.9-2 4-.3 4.2-.9c.8-1.4-2-6.1-7.3-7.7-8.2-2.6-18 0-18 0" style="fill:url(#c)"/><path d="m31.3 106.1 1.7-1.6q2.5-2.2 6.2-3.2.4-.1.6.3t-.4.7q-4.2 1.2-6.5 3.6l-.7.2zm-3.3-2.9a15 15 0 0 1 9-5q.5-.2.7.4c.2.6-.1.5-.4.6q-4.7 1-7.7 3.8l-.7.2zm-1-4.8a17 17 0 0 1 7.7-3.7q.4 0 .6.4 0 .5-.4.7a16 16 0 0 0-7 3.3l-.5-.2z" style="fill:#edbd82"/><path d="M71.8 77.1H56.2v8.6a7 7 0 0 0 7.1 7h1.4a7 7 0 0 0 7.1-7zM87.5 43h-47c-5 0-9.2 4.4-9.2 9.8s4.1 9.8 9.2 9.8h47c5 0 9.2-4.4 9.2-9.8S92.6 43 87.5 43" style="fill:#edc391"/><path d="M64 9.1c-15 0-28.8 16-28.8 39S49.4 82.5 64 82.5s28.8-11.3 28.8-34.2S79 9.2 64 9.2" style="fill:#f9ddbd"/><path d="M54.1 50.2q0 2-1.5 3.3h-5.5q-1.5-1.3-1.5-3.3c0-2.4 2-4.4 4.2-4.4 2.4 0 4.3 2 4.3 4.4m28.3 0q0 2-1.5 3.3h-5.5q-1.5-1.3-1.5-3.3c0-2.4 1.9-4.4 4.2-4.4s4.3 2 4.3 4.4" style="fill:#312d2d"/><path d="M67.3 58.2 67 58h-6.3q-1 .5-.6 1.5c.2.6 1.5 2.3 3.9 2.3s3.7-1.7 4-2.3q.3-1-.7-1.4" style="fill:#dba689"/><path d="M72.3 70c-.5-1.4-4.1-4.7-8.5-4.7a10 10 0 0 0-8 4.8v.4q.2.2 1.2-.5a13 13 0 0 1 6.8-2.5c2.8 0 5.3 1.5 6.8 2.4q1 .7 1.4.7h.2z" style="fill:#444"/><path d="M63.9 71.9c2.5 0 4.5 1.3 4.3.6s-2-2.5-4.4-2.5a5 5 0 0 0-4.3 2.5c-.1.6 2-.6 4.4-.6" style="fill:#edbd82"/><path d="M63.9 3.2c-39.3.2-31.2 45-31.2 45l2.5 6.6c.1.3.6.3.6 0 .9-3.7 3.9-17 5.4-21a5.3 5.3 0 0 1 5.9-3.4A96 96 0 0 0 63.8 32h.2a96 96 0 0 0 16.7-1.6c2.5-.4 5 1 5.9 3.3 1.5 4 4.5 17.3 5.3 21q.3.6.6.1l2.6-6.6s8-44.8-31.2-45" style="fill:#312d2d"/><radialGradient id="d" cx="63.9" cy="88.8" r="32.9" gradientTransform="matrix(1 0 0 -1.128 0 140.49)" gradientUnits="userSpaceOnUse"><stop offset=".8" style="stop-color:#454140;stop-opacity:0"/><stop offset="1" style="stop-color:#454140"/></radialGradient><path d="M95.1 48.2s8-44.8-31.2-45l-5.2.3h-.2c-33 4.1-25.8 44.7-25.8 44.7l2.5 6.6q.4.4.7 0c.8-3.8 3.8-17 5.3-21a5.3 5.3 0 0 1 5.9-3.4A96 96 0 0 0 63.8 32h.1a96 96 0 0 0 16.8-1.6c2.5-.4 5 1 5.9 3.3 1.5 4 4.5 17.4 5.4 21.1q.2.5.6 0z" style="fill:url(#d)"/><path d="M43.3 43c2.8-4 9.2-4.1 12.5-.8.5.6 1.1 1.3.7 2.2s-1.4.7-2.2.4q-3.2-1.3-6.5-.7-1.4.3-2.8.9c-1.2.4-2.5-.9-1.7-2M83 45q-2.8-1.2-6-1-1.4.2-2.8.7c-.7.3-1.5.8-2.2.3-2.1-1.5 1.6-3.9 2.7-4.3 2.4-1 5.3-1 7.6.2q1.5.8 2.4 2.1c.7 1.1-.3 2.6-1.6 2" style="fill:#454140"/></svg>