<svg xml:space="preserve" width="16" height="16" viewBox="0 0 128 128"><linearGradient id="a" x1="119.9" x2="42.7" y1="127.4" y2="34.5" gradientTransform="rotate(-2.3 69.79 72.9)" gradientUnits="userSpaceOnUse"><stop offset="0" style="stop-color:#ffcc80"/><stop offset="1" style="stop-color:#ffdca6"/></linearGradient><path d="M120 80.2 68 25.7a10 10 0 0 0-6.2-2.7l-26 4q-3.6.4-4.4 4.3l-5.1 27.2c0 2 1 4.8 2.4 6.3l53 55.1a4 4 0 0 0 5 .1l30.6-30.2c.8-.8 3-3.6 3.5-6.1.4-1.8-.6-3.5-.6-3.5M46.7 47.5a5.2 5.2 0 1 1-.4-10.3 5.2 5.2 0 0 1 .4 10.3" style="fill:url(#a)"/><path d="M120 80s1.5 2.2-.7 4.6l-34 34q-.5.5-1 .5-.8 0-1.4-.5L30 63.4c-1.2-1.6-2.2-2.7-1.9-4.7l5.2-28s.3-1.9 1.1-2.7c.8-1 1.6-1.1 1.6-1.1q-2.7.1-4.6 1.6c-1.2 1.1-1.7 2.3-2.3 5.2l-5 26.1c-.4 3.1.6 4.5 1.7 5.8L80.2 123q1.1 1.2 2.7 1 1.4 0 2.4-1L118 90.4c1.5-1.6 3-3 3.2-5.3.1-2-.2-4.2-1.3-5" style="fill:#f19534"/><path d="m45.7 36.3 2.5.5q2.4-5.6 1.7-12l-3.2.5q1 6-1 11" style="fill:#f7c272"/><path d="M46.4 37.2a5.2 5.2 0 0 1 .2 10.3h-.2a5.2 5.2 0 0 1-.2-10.3zm0-3H46a8.1 8.1 0 0 0 .3 16.2h.3a8.1 8.1 0 0 0-.3-16.1" style="fill:#82aec0"/><linearGradient id="b" x1="31.7" x2="37.8" y1="35.1" y2="71.2" gradientUnits="userSpaceOnUse"><stop offset="0" style="stop-color:#82aec0"/><stop offset="1" style="stop-color:#2f7889"/></linearGradient><path d="M30.4 4A23.7 23.7 0 0 0 26 50.9l.7-3.9a20 20 0 0 1-16-19.4A19.8 19.8 0 1 1 41.6 44s0 .6 1 1.7c.6.8 1.6 1.2 1.6 1.2A23.6 23.6 0 0 0 30.4 4" style="fill:url(#b)"/><path d="M83 124q1.3 0 2.3-1L118 90.3c1.5-1.6 3-3 3.2-5.3.1-2-.2-4.2-1.3-5 0 0 1.5 2.3-.7 4.7l-33.9 34-1 .4-2 4.9z" style="fill:#d1762c"/></svg>