<svg xml:space="preserve" width="16" height="16" viewBox="0 0 128 128"><path d="M124.6 112.6c.2-.4-.9-4-2.1-5.9s-3.4-3.6-3.4-3.6l-5.4 1.5s2.8 1.6 3 4.3c0 1.7-1.5 3.7-4.6 4-1.3 0-7.4.2-15.2 0-1-.6-2.8-1.9-3.1-3.7-.5-2.3-.1-5-.1-5l-8 .6c0 .3.5 3.3-1 5.1a9 9 0 0 1-3.7 2.4l-16.6-.7-31.6-1.9c-1.1-1-2.5-2.6-2.7-4.3-.4-3 0-6.2 0-6.2l-9.4-.3s0 5.6-1.7 7.6a9 9 0 0 1-3.4 2.5c-2.7.1-6.4-.4-10 .8-3.8 1.3-4.3 6.5-4.3 6.5s8 1.3 21 2 44.8 2.8 65.6 2.8c23.8.1 31.7-.5 32.1-1.4.3-.5-1.4-3-1.4-3s4.4.2 4.6-.3-2.3-3.5-2.3-3.5 3.5.1 3.7-.3" style="fill:#b0b0b0"/><path d="M8.4 113c-.2 1.8 1 1.8 4.4 2s39.7 1.7 48.7 2.3 50.3 1.1 51.3 1.1q1.6-.2 1.6-1.5c0-.9-1-1-1.8-1s-37.9-.5-51-1.2L12.3 112c-2.2 0-3.7-.4-4 1" style="fill:#c8c8c8"/><path d="m24.1 76.6-11 1s.2 1 .7 1.8l.8 1.4.4 11c.3 3.2 1.3 6.8 1.8 7.3s.3 1.9 8.9 2.6 10.2-1.2 10.3-1.7l.4-4.8s11.3.5 19.3 4 15.5 6.5 17.5 6.7c2.1.3 13.7.6 24.5.5a77 77 0 0 0 22.6-2.4c2.1-1 3.6-2.5 3.6-4.1 0-.9-.3-2.1-.3-2.1L62 85.6z" style="fill:#474c4f"/><path d="M66.8 9.1s-8.3-1-9.4.6-2 3.8-2 3.8L26 21.7s-3.2 12-5.8 19.7c-2.1 6.4-7.2 16-7.9 24.5-.6 7.7.8 11.7.8 11.7s4 2.2 10.2 3.9c8.2 2.1 12.6 2.1 22.2 5.6s26.1 13 30.2 14.2c4.9 1.4 24 .8 32 .3s15.7-1.9 16-3 1-8.5-2.7-11.6c-4.3-3.5-9-4.6-9-4.6l-1-.6s-2.3-2.4-4.5-3.7l-4.6-2.3L100 74l-7.2-6.4c-2.5-2-9.9-6.8-9.9-6.8L80.7 57c-1.9-3-6.3-7.2-6.3-7.2l-.8-6.2s-.8-19.9-3.4-26.8C68 10.5 66.8 9 66.8 9" style="fill:#d8cdc9"/><path d="M28.8 30.4c-2.2.1-2.2 2.2-3.6 6.5L21 48.4c-3 7.5-5.1 12-5.6 16.4-.5 6 2.1 9.5 4.5 9.4C23 74 22 68 22.6 62c.4-6 1.9-12 3.5-17.2s6.5-14.6 2.6-14.5" style="fill:#feffff"/><path d="M26 22.9s9-2.5 15.1-4c6.2-1.5 12.4-2.4 12.4-2.4s1.6 13.1 2.8 20.1 3 13.9 6.6 19.2c3.8 5.5 12 12 19.2 17.6A47 47 0 0 0 106 85.1c6.5.3 6.6-1.8 6.4-2.4s-1-1.1-1.8-.8-3.6.4-5 .4-7.3-1-13-5a143 143 0 0 1-20-15.1c-3.5-3.8-6.7-6.6-8.7-10.5-1.1-2.2-3.6-7.7-4.7-14.9s-2.9-17.6-2.6-19 4-1.8 4.7-.8 1 2.6 1.2 5.4 1.8 18 5.4 23.6c3.5 5.6 7.7 5.7 8 5.7s1-1-.6-2.6-3-3.7-4-5.3c-1.2-2.4-2.5-4.9-3.8-12.5s-1.7-15.2-4-18.2C61 10.2 59 10.6 59 10.6s.9-.8 4-.9c3 0 4.1.4 4.1.4s.6-2.5-1.7-3.5S56 6.4 54.5 8c-1.3 1.4-1 3-1 3S46 12 42 13c-6.3 1.7-14 4-14.8 5-1.7 1.7-1.1 4.8-1.1 4.8" style="fill:#b1b0b0"/><path d="M61.1 42.8c-1.8.2-3 3.2-2 5.4 1.2 2.6 3.2 3 5 2.3s1.3-3.1.6-5q-.9-3-3.6-2.7M65.5 54c-1 .8-1.6 3.5.6 5.7a3.6 3.6 0 0 0 4.7.6c1-.8 1.6-2.5-.1-5-1.7-2.6-4.2-2-5.2-1.2m9.9 8.2a4 4 0 0 0 0 5.6c1.8 2 4 1.4 5 .6 1.4-1 2-3.4 0-5.6-1.9-2-4.1-1.4-5-.6m9.8 8.3c-1.3 1.4-1 4.2.7 5.6a4 4 0 0 0 5.3 0c1-1 1.5-3.3-.5-5.2s-4.2-1.8-5.5-.4m9.5 6.9c-1 1.4-.9 3.8 1.6 5 2.2 1 4.3 0 5-1 .5-1 .4-3.3-1.7-4.3s-4.1-.7-4.9.3" style="fill:#464c4e"/><path d="M59.3 17.5c.2 1.3 1.2 2.5 3.2 2.3 4.5-.5 8.5-.2 8.5-.2s1.1-.9.4-3.1c-.5-1.7-2.1-2.2-2.1-2.2s-5.3-.2-7.4.4c-1.1.3-2.8.8-2.6 2.8m2.1 8.8c.2 2.2 2.3 2.3 3.4 2.3l4.3-.3 3.4-.3c.3-.1.9-.9.8-3 0-1-.9-1.9-1.7-2-.7 0-4 0-6 .2-1.7.2-4.4.5-4.2 3.1m1.6 9.5c.2 2.2.6 2.6 3.2 2.4s6.7.4 7.5-.1 1.3-2 1-3.6c-.3-1-1.4-2-2-2l-7 .8q-3 .3-2.7 2.5" style="fill:#f2edec"/><path d="M58.4 15c-1.4.2-2.8 1.3-2.4 3.4s2 2.4 3 2.2q2.7-.6 2.4-3.5c-.3-1.9-1.8-2.2-3-2M57 27c.2 1.7 1.5 3 3.4 2.6 2-.3 2.7-1.7 2.5-3.3 0-1.5-1.6-2.8-3.3-2.6-2 .3-2.7 1.8-2.6 3.4m4.1 6.2c-1.7 0-3 1.5-2.6 3.7s2 2.5 3.6 2.2q2.5-.5 2.2-3.5a3 3 0 0 0-3.2-2.4" style="fill:#fff"/><path d="M61.1 46.9c.5 2.9 3.4 3 5.3 2.5s3.8-1.1 5.3-1c1.6.1 3.9 1 4.7.3.7-.7-.3-4.8-1.3-5.5s-3.7-1.1-6-1q-3.7.2-5.1.8c-1.4.6-3.3 1.2-2.9 3.9M67 58q1.5 2 5.3.4l6.6-2.5c.9-.4 2.5-1.6.6-3.7s-4.5-1-6.2-.6q-2.7.8-4.6 1.9c-1.5.8-3.1 2.6-1.6 4.5m9.9 8.8c-1.2-1.1-.7-4 1.2-5.1a13 13 0 0 1 4.3-2q2-.4 3.5.8c.9.7 1.8 2 1 2.6l-3.7 2.6c-1.4.8-4 3.4-6.3 1.1m10.6 6.8c1.8 2 3.4 1.5 5.4-.4 1.7-1.5 2.6-2.1 2.6-3 0-.7-.7-3.6-4-3.3-1.2.2-3.1 1.9-3.8 2.7s-1.3 2.8-.2 4m9.1 2.5c-.5.7-1.3 3.1 1 4s3.6-.5 3.9-.7c.3-.3 2-2.1 2-2.4.1-.4.5-1.9-1.2-3-1.7-1.3-3-.4-3.4-.1q-1 .5-2.3 2.2" style="fill:#f2edec"/></svg>