<svg xml:space="preserve" width="16" height="16" viewBox="0 0 128 128"><path d="m96.9 56 1.3-12.6-3.8-17.5s2.8-3 4.4-3.8 3.3-1.2 3.3-1.2 4.2-.7 6.9-.8c2.7 0 5.8.4 5.7-1 0-1.2-12.3-3.3-19-3.5s-28.9.8-44.9 8.6S30.5 39 30.5 39l-5.3 10.6-5.4 2.1s-4.9 8.2-6.5 13-3.2 8.3-4 9.2c-1 1-5.2 4.2-5.2 4.9s4.4 3 4.4 3.7S5 84 5 84.8s6.1 7.6 15.3 14.5 20.5 12 29 14.1c8.3 2 19.4 3 19.9 2.6s-8.7-7.6-8.7-7.6 8.8 3.8 14.3 4.4 6.4.7 11.9.5 14.1-7.9 14.1-7.9l4.7-15.5-2-10s-3-4.6-3-5.6c-.2-.9 1.1-.2 2.3.1 1.4.4 4.7 2.6 6.7 4.8l6.8 7.3c.8.8 2.2.5 2.5-.6l1.5-8.8-.8-27.8-3.2-11c-.3-.9-1.6-1-2.2-.2-2.2 3.2-7.1 10.7-8.6 12.5-2 2.6-5.3 6.4-7.2 7-1.2.5-1.6.3-1.6.3z" style="fill:#ffb800"/><path d="M85.3 113.1s14.4-2.8 17-16.7c1.9-10.9-2.2-22.1-2.2-22.1s.2-1.6 1.8.5a28 28 0 0 1 1.5 29.7c-6.2 11-17.7 9-18.4 9s.3-.4.3-.4M102.1 21s-8.8-.7-9.1 7.4c-.3 6.4 3.2 10.9 3 17.8 0 6.9-.8 11.9.7 11.7 1-.2 3.4-3.5 3.5-10.6s-4.7-14.5-4.6-19c.1-4.7 6.5-7.4 6.5-7.4" style="fill:#b5d219"/><path d="M115 37.5c-1.5.6 0 5.1.5 6.5s2 9 2 20.4c.1 8-.6 16-1 17.7s-1.1 4.4.8 4.9 3.8-3.6 4.8-10.3c.9-5.2.8-10 .9-15a49 49 0 0 0-3.3-19.5c-1-2.3-2.8-5.5-4.7-4.7m-37.3 1.8c-1.7.2 1.2 6.4 2 11 1.1 7.3 1.1 12 1 18a57 57 0 0 1-6 23.5c-.9 1.8-1.5 3.4-.1 3.5 2.6.3 7.7-6.2 10.2-13.2 3-8 3.5-15 2.4-23.3a48 48 0 0 0-3.4-13.5c-1-2.1-3.1-6.4-6-6M54.4 26.5c-2.6.7 1 6.1 2.6 10.2 2.5 6.5 7.7 18.1 7.8 30.5S61 88.5 60 91.3l-3.5 8.4c-.6 1.2-.6 2.6 0 2.7 1.4.4 3.8-1.2 6.2-3.6 1.6-1.6 4.6-4.8 8-14.7a58 58 0 0 0-6.6-49.4c-3-4.5-6.7-9-9.7-8.2M38 38.4c-2 .6 3.9 6.8 6.7 14s3.7 13.2 4 19.4c.4 6.3-.5 13-1 17.1-.6 3.4-2.4 9.4-2 10.6s2.4 1.1 4-1.4a52 52 0 0 0 7-20 45 45 0 0 0-5.7-28c-5.2-8-10.5-12.3-13-11.7M19.8 51.8s4-5.7 5.7-7.7c1.7-2.1 6.3-6.8 6.3-6.8s.1 13.4.6 17a75 75 0 0 0 3.9 15.6 28 28 0 0 1 2.4 9.5c-.5 3.9-4.8 9.7-6.7 9.9-3.9.5-7.7-7-9.5-12a52 52 0 0 1-2.7-25.5" style="fill:#2c2f30"/><path d="M34.2 75.5c0 2.7-2.1 4.5-4.5 4.5s-4-2.3-4-4.6 2-4 4.2-4 4.1 1.6 4.3 4.1" style="fill:#ffb805"/><path d="M30 75.4c-.5.7-2.2.7-2.9 0s-.5-2.2.4-3 2.1-.8 2.8.3q.8 1.4-.2 2.7" style="fill:#ffedc7"/></svg>