<svg xml:space="preserve" width="16" height="16" viewBox="0 0 128 128"><path d="M65 79.6a76 76 0 0 1-27.5-14.1V68c-.5 8.8-5 20.2-7 24.8a2.6 2.6 0 0 0 1 3.3s6.8 5.8 13 12.7c5 5.6 9 11.2 10.7 13.7q1 1.4 2.7 1.4h11.3q1.6 0 2.6-1.3a167 167 0 0 1 15.7-19.2c-1.3-4-4.8-18.4-22.6-23.9" style="fill:#008deb"/><path d="M92.8 98.2c-.6-2.4-4-17.9-21.1-27.8-38-22-32.5-49.8-32.5-49.8h-1.6c-2 7.8-3.8 16.2-3.9 19.1-.3 8.9 4.3 18 3.8 28.5v.3c9 10.2 29.3 11.9 37.9 19.8 9.7 9 10.3 17 10.3 17a46 46 0 0 1 7-7.1" style="fill:#214485"/><path d="M92.2 80.9S79.7 67.1 74.7 61.2a48 48 0 0 1-9-20.6l-2.2.1C52 40.8 47 29.6 46.8 19.3q-.2-10.3.4-14c0-1-.8-1.6-1.6-1.2l-3.2 1.5c-.9.5-1.9 3.5-4.2 12.4a39 39 0 0 0 4.4 27.8c15 26.1 44 27.1 48.8 53.5 2.7-2.2 5.7-3.8 5.7-3.8q.8-.5.5-1.3c-1.2-2.5-3-6.6-5.4-13.4" style="fill:#59c7bd"/><path d="M93.4 39.7c-.1-3.9-3.1-16.7-5.5-25-1.8-6.3-2.6-8.7-3.4-9Q83 4.6 81.4 4c-.8-.3-1.7.3-1.6 1.1q.4 3.8.4 14c-.2 7.9-3 16.2-9.5 19.8a14 14 0 0 1-5.7 1.8c.5 8 3.2 16 9.9 22.9 8.2 8.5 14.7 15.8 18.4 20.2-1.7-5-3.4-10.8-3.6-15.7-.5-10.4 4-19.6 3.7-28.5" style="fill:#00796b"/></svg>