<svg xml:space="preserve" width="16" height="16" viewBox="0 0 128 128"><path d="m120.6 116.8-6.6 5.7a6 6 0 0 1-8.6-.6L37.1 40.6l10.1-9.3 73.9 77a6 6 0 0 1-.5 8.5" style="fill:#a06841"/><path d="m58.4 43-11-11.6L37 40.7l15.6 18.5c2.8-5 4.8-10.8 5.7-16.2" style="fill:#7d5133"/><path d="M86.4 4c-35-.5-54.9 19.5-54.9 19.5S10 44 5.5 79c0 .8 0 1.5 1 1.7 1.3.3 1.6-.5 2-1 4.1-8.7 13.3-26 32.4-43.6S78.2 10.5 87.2 7q1-.5 1-1.6c0-1-.9-1.4-1.8-1.4" style="fill:#82aec0"/><path d="m38 19.6-.6-.6a1 1 0 0 0-.9-.1A26 26 0 0 0 26 28.7q-.3.5 0 .8l.6.6c.9 1 4.2-.6 7.3-3.5s5-6 4-7" style="fill:#a06841"/><path d="M39.9 30.9C13.5 54.5 7.7 80.6 7.7 80.6s.3 0 .5-.5c3.8-8 12.4-22.8 28.2-38.7l7.4 8.6c.9 1 4.5-.7 7.8-3.8S57 40 56 39l-7.7-8.4A145 145 0 0 1 87.3 7l.7-.6c-.2-.1-22 1-48.1 24.6" style="fill:#2f7889"/></svg>