<svg xml:space="preserve" width="16" height="16" viewBox="0 0 128 128"><path d="M27.6 78H25c-7.7-1-13.4-4-15.4-8q-1.5-3 0-6c.7-1.3 3.8-2.4 7.2-2.4q2.2 0 3.8.6l3.3 1.4C28 65.5 33.6 67.9 38 68h7.8c-2.6 3.3-9 10-18.3 10" style="fill:#263238"/><path d="m5 90.5.6 12q0 .6.6 1c1.7 1.2 7.6 4.7 18.7 4.5q1.3-.1 1.3-1.3v-7.5z" style="fill:#4e342e"/><path d="M25.1 108q1-.1 3-1.2l4.1-2.2s-7-1.8-6.9-1.6-.2 5-.2 5" style="fill:#263238"/><path d="M118.7 98.9c-3-2.8-9.6-4.6-21.8-8.3S73.1 76 68.7 70.6 60.5 58 52.8 59.8c-5.3 1.3-5.3 6-5.3 6s-1.6.3-3.9 1.3h-5.5c-5.6-.3-13.3-4.3-17-5.8q-2-.7-4.3-.7c-3.5 0-7 .6-8.4 3.1s-2.7 6-3.6 11.5c-2.1 12.4.7 16.7.7 16.7S15 98 22.3 99.4a59 59 0 0 1 21 8.3c4.3 3.3 14 11.1 36.3 11.9a101 101 0 0 0 42-7.6c2.2-1.1 1.4-9.2-2.9-13.1M10.5 64.7c1.2-1.5 2.9-1.8 6.3-1.9 2.2 0 5.4 1.3 6.6 1.9a43 43 0 0 0 16.2 4.5L37.2 71c-3.5 3-8.7 6-18 3.9-4.8-1-11-7.2-8.7-10.2" style="fill:#a06841"/><path d="M122.7 110.4q-.7 1.5-1.2 1.6a101 101 0 0 1-42 7.6c-22.2-.8-31.8-8.5-36.1-11.9a59 59 0 0 0-21-8.2l-3-.8-.3 3.3 2.6.7c7.3 1.4 16 4.8 19.6 7.6l.2.1c4.5 3.5 14.9 11.7 38 12.5h3.3a100 100 0 0 0 40-8c.4 0 1.2-1 1.2-1.6 0-1.5-1.2-3.2-1.3-3M57.6 101q-.8.6-1.7 0l-.7-.6c-2.1-1.7-8-5.7-14.3-5.9-8.4-.2-9.6.8-11.6 1.8S26.5 98 27 97s2-2.8 4.7-3.7a28 28 0 0 1 9.3-1 28 28 0 0 1 15 5.8q.9.6 1.7 0c2.8-2.5 8.6-8.1 8.7-12.8S59 72.2 54.7 68c-1.6-1.6-4.6-2.3-7.2-2.1l.2-.8c2.3-1.3 6.4-.7 8.5 1.3s12.5 12.5 12.4 19c0 6-7.3 12.6-10 15z" style="fill:#4e342e"/><path d="M53.6 72.4c3-3.4 6.9-6.3 11.4-6.8m-8.2 11.1c3.2-3.4 7.1-6.3 11.8-7m-8.1 11.2c2.2-2.4 8-7.2 12.4-7.2M64 85.5c4-3.6 7.7-6.1 13-7.4" style="fill:none;stroke:#263238;stroke-width:2.1873;stroke-linecap:round;stroke-miterlimit:10"/><path d="m43.6 67-4 2.3s-3 0-5.9-.8c-2.5-.9 4-1.3 6.2-1.4z" style="fill:#784d30"/><path d="M18.7 74.7c.6.3 1.4.4 1.4 1.2 0 .4-1 .6-1.4.6A10 10 0 0 1 9 70q-.4-1.5 0-2c1-.7 2 1.2 2.5 1.8a15 15 0 0 0 7.1 5m16.8 15.4c.9-.2 3.2-.5 3.5.8.2 1.2-1.2 1.3-1.5 1.3-2.6.4-4 .5-6.5 1.3-1.1.4-1.7 1-2.6 1.6q-1 1-1.7 2c-.4-1.5 1-3.2 2-4q2.9-2.4 6.8-3m61.8 21.6c7.4-1.8 6.7-3.5 6.4-4.4-.7-2-7.7 1-14.6 2-6.2.8-11.1.2-11.8.7-1.5 1.1 8.9 4.3 20 1.7" style="opacity:.7;fill:#f29657"/></svg>