<svg xml:space="preserve" width="16" height="16" viewBox="0 0 128 128"><path d="m98.3 39.8-55.4 60.8-38.4 14.7s-1.5 3.3 1.5 6c2.6 2.3 6.3 1.2 7.9.6s4.4.1 7.4.2c2.3 0 7.7-.9 11-2.5s10-5.3 21.8-16.2S80 78.3 85.7 72c10.5-11.6 12-14 21.3-26.6 7.2-9.9 11.4-18.2 13.3-22.4s4.7-9.7 4.1-13-3.4-4-3.4-4z" style="fill:#e38413"/><radialGradient id="a" cx="47.5" cy="49.9" r="43.8" gradientTransform="rotate(45.2 137.16 87.24)scale(1 2.495)" gradientUnits="userSpaceOnUse"><stop offset=".4" style="stop-color:#db8316"/><stop offset=".5" style="stop-color:#df8a1b"/><stop offset=".7" style="stop-color:#e99c2a"/><stop offset=".8" style="stop-color:#f6b23b"/></radialGradient><path d="M83.5 18.5a270 270 0 0 0-33.3 32 413 413 0 0 0-38 45.4c-5.1 9.4-4 11.4-5.4 14.3s-4 5.3-2.1 8.6c1.5 2.6 5.5 1.3 7.7.5 1.8-.7 4.6-.3 8.1-.1 6.1.3 13.5-2.4 22-9.3s31.1-29.6 46.6-46.4 29.7-42 32.3-47.3 3-6.1 3-7-1.6-5.4-12-4-21.4 7.9-29 13.3" style="fill:url(#a)"/><radialGradient id="b" cx="99.3" cy="16.9" r="9.9" gradientTransform="matrix(.8 -.6 .378 .504 13.47 67.91)" gradientUnits="userSpaceOnUse"><stop offset="0" style="stop-color:#fbd8a9"/><stop offset="1" style="stop-color:#fbd8a9;stop-opacity:0"/></radialGradient><path d="M102.2 8.5a26 26 0 0 0-10.4 5.8c-4.6 5-1.4 10 2.5 10.1 7.4.3 13.3-4.6 14.6-9 1.6-5.8-2.7-7.2-6.7-6.9" style="fill:url(#b)"/><radialGradient id="c" cx="76.4" cy="40.2" r="13.4" gradientTransform="matrix(.993 -.528 .47 .646 -18.34 54.6)" gradientUnits="userSpaceOnUse"><stop offset=".1" style="stop-color:#fde5bf"/><stop offset=".4" style="stop-color:#fce1b9;stop-opacity:.7419"/><stop offset=".7" style="stop-color:#fad8a9;stop-opacity:.4159"/><stop offset=".8" style="stop-color:#fce0b6;stop-opacity:.2113"/><stop offset="1" style="stop-color:#fde5bf;stop-opacity:0"/></radialGradient><path d="M75.2 28.1c-3.4 1.2-9.1 7-10.8 8.5-4 3.9-6.8 15.4 5.8 16.1 10.3.6 22.8-9.4 20.7-18.9-1.5-6.7-8.7-8.2-15.7-5.7" style="fill:url(#c)"/><radialGradient id="d" cx="47.6" cy="72.8" r="13.1" gradientTransform="matrix(.76 -.71 .686 .612 -37.33 62.34)" gradientUnits="userSpaceOnUse"><stop offset=".2" style="stop-color:#fbd8a9"/><stop offset="1" style="stop-color:#fbd8a9;stop-opacity:0"/></radialGradient><path d="M49.8 60.7c-4.9.4-9 1.4-13.3 8-5.8 8.8.2 17 8.2 17.4 7.7.4 15.6-4.1 17.5-11.8C64.4 65.7 57 60 49.8 60.7" style="fill:url(#d)"/><radialGradient id="e" cx="24.2" cy="100.1" r="16.8" gradientTransform="matrix(.743 -.677 .383 .412 -31.99 75.17)" gradientUnits="userSpaceOnUse"><stop offset="0" style="stop-color:#fde5bf"/><stop offset="1" style="stop-color:#fde5bf;stop-opacity:0"/></radialGradient><path d="M28 86.6a26 26 0 0 0-15.9 11.8c-5.4 9-3.9 14.6 1 16.4s19.7-5.4 25-15c6.5-11.5-2-15.2-10-13.2" style="fill:url(#e)"/><path d="M66 38c-.6-1.2 2.4-4.2 6.3-7.5A51 51 0 0 1 91 20.3c7.6-1.8 17.2-2 17.4-.1.1 1.4-7 5.8-7 5.8l-30 11.5s-5 1.5-5.5.5" style="fill:#ce701b"/><path d="M86.2 27C75 31.9 68.9 38.1 68.9 38.1s10 .2 23.7-5c7.4-2.9 14.6-11.2 14.6-11.2s-10.2.4-21 5.1" style="fill:#fdce8c"/><path d="M44.3 66.8s-4.5 2.3-5.6 2c-1.1-.5 0-2.3 1.3-4.3 1-1.4 6.6-8.4 13-12.2 6.6-4 13.3-5.5 19.7-6 5.8-.4 13 0 11.6 1.7l-3 3.7z" style="fill:#ce701b"/><path d="M58.5 54.5c9-3.7 12.6-4 16.8-4.6 4.2-.8 7.9-.5 7.9-.5S81 52 78.3 54.6c-2.6 2.5-6 5-7.6 5.5s-10.9 3.2-17.2 4.6C48.2 66 41 68.3 41 68.3s8-9.8 17.6-13.8" style="fill:#fdce8c"/><path d="M15.8 96.2c-.2-1.2 6-10.7 15.1-15.5S50.8 76 53.5 76s5.2.4 5 1.6-1.4 1.8-1.4 1.8L18 96.5s-1.9.7-2-.3" style="fill:#ce701b"/><path d="M27.8 87.2A44 44 0 0 1 48.5 80c5.7-.8 8.6-.4 8.6-.4s-4 4.4-6 6.1-5.8 4.5-7.6 5.3c-1.2.5-8.8 2.2-12 3s-13.9 2.7-13.9 2.7 2-3.5 10.2-9.4" style="fill:#fdce8c"/></svg>