<svg xml:space="preserve" width="16" height="16" viewBox="0 0 128 128"><radialGradient id="a" cx="66.2" cy="137.2" r="134.9" gradientUnits="userSpaceOnUse"><stop offset=".4" style="stop-color:#f4704f"/><stop offset=".5" style="stop-color:#ef6f55"/><stop offset=".5" style="stop-color:#e16d66"/><stop offset=".6" style="stop-color:#ca6982"/><stop offset=".7" style="stop-color:#a964a9"/><stop offset=".7" style="stop-color:#a463b0"/><stop offset=".8" style="stop-color:#9361b0"/><stop offset=".9" style="stop-color:#655caf"/><stop offset=".9" style="stop-color:#3657ae"/></radialGradient><path d="M116.6 124.3H11.3a7.5 7.5 0 0 1-7.5-7.6V11.4C3.8 7.3 7.2 4 11.3 4h105.3c4.2 0 7.5 3.4 7.5 7.5v105.3c0 4.2-3.3 7.6-7.5 7.6" style="fill:url(#a)"/><path d="M121.3 62.4h-19v21.9H60.2V18.8H28.6v65.4h-4.4v-35H12.3v42.6h9.5v25.4H119v-11h2.3z" style="fill:#a47fcd"/><path d="M32.4 25.1h2.4v7.6h-2.4zm5.1 0H40v7.6h-2.5zm7.8 0h-2.4v7.6h2.3z" style="fill:#3f737b"/><path d="M50.4 25.1h-2.6l.1 7.6h2.5z" style="fill:#a363b0"/><path d="M32.4 25.1h2.4v7.6h-2.4zm5.1 0H40v7.6h-2.5zm7.8 0H43v7.6h2.4z" style="fill:#fde064"/><path d="M50.4 37.1h-2.6l.1 7.6h2.5z" style="fill:#a463b0"/><path d="M32.4 37.1h2.4v7.6h-2.4z" style="fill:#fde064"/><path d="M37.5 37.1H40v7.6h-2.5zm7.8 0H43v7.6h2.4zm-12.9 12h2.4v7.6h-2.4zm5.1 0H40v7.6h-2.5zm7.8 0H43v7.6h2.4z" style="fill:#a463b0"/><path d="M53.4 25.1v7.6h2.5v-7.6z" style="fill:#a363b0"/><path d="M105.5 81.2h2.9v3.9h-2.9zm5.8 0h2.9v3.9h-2.9z" style="fill:#a463b0"/><path d="M105.5 73.8h2.9v3.9h-2.9z" style="fill:#fde064"/><path d="M111.3 73.8h2.9v3.9h-2.9z" style="fill:#a463b0"/><path d="M105.5 66.8h2.9v3.9h-2.9zm5.8 0h2.9v3.9h-2.9z" style="fill:#fde064"/><radialGradient id="b" cx="57" cy="23.3" r="100.4" gradientUnits="userSpaceOnUse"><stop offset=".5" style="stop-color:#513076"/><stop offset="1" style="stop-color:#412769"/></radialGradient><path d="M115 49.4c-.4.7 0 42.7 0 42.7H99.1v-24h-5v-7.7h-4.6V54h-8.2v6.9h-5.2V68h-5.3v35h-5V64H68v-7.5h-2.4V41H63l-3.5-11h-7.1l-3.6 11H46v15.4h-2.5V64H46v39h-7.2V68H17.2V28.4H3.8v88.2c0 4.2 3.4 7.6 7.5 7.6h105.3c4.2 0 7.5-3.4 7.5-7.6V49.4z" style="fill:url(#b)"/><path d="M5.7 116.2h30v2.4h-30zm0-8.3h30v2.4h-30z" style="fill:#a463b0"/><path d="M5.7 99.2h30v2.4h-30zm0-8.3h30v2.4h-30zm0-9.7h30v2.4h-30zm0-8.3h30v2.4h-30z" style="fill:#fde064"/><path d="M5.7 63.3h1.8V67H5.7z" style="fill:#a463b0"/><path d="M11.7 63.3h1.8V67h-1.8zm-6-7.4h1.8v3.7H5.7zm6 0h1.8v3.7h-1.8zm-6-7.4h1.8v3.7H5.7zm6 0h1.8v3.7h-1.8zm-6-7.5h1.8v3.7H5.7zm6 0h1.8v3.7h-1.8zm-6-7.4h1.8v3.7H5.7z" style="fill:#fde064"/><path d="M11.7 33.6h1.8v3.7h-1.8z" style="fill:#a463b0"/><path d="M49.8 64.5h2.3v4.8h-2.3zm5.4 0h2.3v4.8h-2.3zm5.2 0h2.3v4.8h-2.3zm-10.6 9h2.3v4.8h-2.3zm0 24.2h2.3v4.8h-2.3z" style="fill:#fde064"/><path d="M55.2 97.7h2.3v4.8h-2.3zm5.2 0h2.3v4.8h-2.3zm-5.2-24.2h2.3v4.8h-2.3z" style="fill:#a463b0"/><path d="M60.4 73.5h2.3v4.8h-2.3z" style="fill:#fde064"/><path d="M49.8 82.5h2.3v4.8h-2.3z" style="fill:#a463b0"/><path d="M55.2 82.5h2.3v4.8h-2.3zm5.2 0h2.3v4.8h-2.3z" style="fill:#fde064"/><path d="M54 54h4.7v-7s.1-2.6-2.4-2.6C54 44.4 54 47 54 47z" style="fill:#a463b0"/><path d="M79.8 64.2h2.3v9.7h-2.3zm8.6 0h2.3v9.7h-2.3zm-4.2 0h2.3v9.7h-2.3zm-7.8 13.4h2.3v3.1h-2.3zm7.8 0h2.3v3.1h-2.3zm7.8 0h2.3v3.1H92z" style="fill:#fde064"/><path d="M76.4 87.6h2.3v3.1h-2.3z" style="fill:#a463b0"/><path d="M84.2 87.6h2.3v3.1h-2.3zm7.8 0h2.3v3.1H92zM76.4 97h2.3v3.1h-2.3zm7.8 0h2.3v3.1h-2.3zm7.8 0h2.3v3.1H92z" style="fill:#fde064"/><path d="M76.4 107h2.3v3.1h-2.3z" style="fill:#a463b0"/><path d="M84.2 107h2.3v3.1h-2.3z" style="fill:#fde064"/><path d="M92 107h2.3v3.1H92zm-15.6 9.5h2.3v3.1h-2.3zm7.8 0h2.3v3.1h-2.3zm7.8 0h2.3v3.1H92z" style="fill:#a463b0"/></svg>