<svg xml:space="preserve" width="16" height="16" viewBox="0 0 128 128"><circle cx="109.2" cy="107.1" r="7" style="fill:#2f7889"/><path d="M47.4 69.8V30.9c0-2.5 1.8-4 4.6-4.6l18-3.6c-.5 1.4-.3 3.3-.3 3.3l24.4.3c0-5.2-1.7-11.7-8.2-14.4-7.4-3.1-15.4-4.7-23.3-6.4a69 69 0 0 0-19.4-1.7 22 22 0 0 0-20.7 21.8v45.5c0 14 9.8 21.9 21.9 21.9h45.4V74.3H52c-2.5 0-4.6-2-4.6-4.5" style="fill:#82aec0"/><ellipse cx="81.9" cy="26" rx="12.2" ry="2.8" style="fill:#82aec0"/><path d="M89 20.1c.2 2-2.3 3.8-5.1 2.1-1.3-.7-3.6-4.4-4.7-5.3-3.4-2.9-12.7-6.7-12.6-7.2s2.7-.6 5.2.1c2.6.7 4 1.1 6.5 2 9.6 3.6 10.5 5.5 10.7 8.3M69.7 80.2v-4.6s-20.8-.2-21.7 0c-1 .2-3.6 1.5-5.4 2.7C40.3 80 46 80 46.3 80z" style="fill:#94d1e0"/><path d="M47.4 69.7V30.9c0-2.6 1.8-4 4.6-4.6l17-3.4c.8-.2 0 1.4.7 3.4 0 0 .6-3 3-6.6q.5-.4.3-1a19 19 0 0 0-4.1-.3c-7.4 0-20.2-1-25 .3-.7.1-3.2 1-4 5.2C39 28 39.4 73 39.6 75c.6 4.4 6.5.2 7.8-2.5.4-.8 0-2 0-2.8m23.2 19.7L70 82s-2.2 4.3-8.5 4.7c-3.2.2-13.2 0-19.3-.5-6-.5-12.5-5.1-13.3-15.7l-1.2-26.9c-.2-1-1.5 1.9-1.7 6.2-.3 5.2-.1 14 .2 21C26.7 83 34.6 88.2 42 89.2s28.6.2 28.6.2" style="fill:#2f7889"/><path d="m79.9 112.4 27.2-4.6" style="fill:none;stroke:#84b0c1;stroke-width:5;stroke-linecap:round;stroke-miterlimit:10"/><ellipse cx="81.8" cy="116.5" rx="8.2" ry="2.6" style="fill:#82aec0"/><path d="M90 116.5H73.7V110c0-3.2-.6-5.6 3-7q2-.6 4.2-.5c2.5 0 5.2.1 7.4 1.4 2.5 1.4 1.7 4.7 1.7 7.1z" style="fill:#82aec0"/><path d="m49.8 117.5 27.1-4.6" style="fill:none;stroke:#94d1e0;stroke-width:5;stroke-linecap:round;stroke-miterlimit:10"/><path d="M84.2 109.8c0 .4.2 5.5.8 6.6.8 1.3 3 .1 3.5-1.6.4-1.4 1.2-8.5 0-7.6-3 2.4-4.3 1.3-4.3 2.6" style="fill:#94d1e0"/><circle cx="51" cy="117.2" r="7" style="fill:#2f7889"/><path d="M93.6 109.8c1.9 1.7 2 2.5 2 2.5l-5.6 1v-5.1s2.5.5 3.6 1.6" style="fill:#2f7889"/><path d="M86.2 105.4s-.4 1.5-4.3 1.5-4.4-1.6-4.4-1.6V80.6h8.7z" style="fill:#84b0c1"/><path d="M77.5 81.7v2.1q3.2 2.5 6 3 1.3.5 1.5 2v.1c0 1.7-1.7 2.7-3.2 2-1-.4-3-1.2-4.3-2.2v2.5q3.2 2.4 6 3 1.3.5 1.5 2v.1c0 1.6-1.7 2.7-3.2 2-1-.5-3-1.5-4.3-2.7v3q3.2 2.3 6 3 1.3.4 1.5 2v.1c0 1.6-2.5 2-4 1.5a9 9 0 0 1-3.5-2.2v2.3c0 .9 2.1 1.6 4.4 1.6s4.3-.7 4.3-1.6V81.2s-7 1.6-8.7.5" style="fill:#2f7889"/><ellipse cx="81.9" cy="91.2" rx="12.2" ry="3.9" style="fill:#82aec0"/><path d="M69.7 71.7h24.4v19.2H69.7z" style="fill:#82aec0"/><ellipse cx="81.9" cy="71.7" rx="12.2" ry="3.9" style="fill:#b9e4ea"/><path d="M86.2 79.3a44 44 0 0 0 .5 11.2c.4 1.4 1.7 1.2 2.3 1.1 1.8-.2 2.2-1.8 2.3-2.4 0 0 1.4-10.6.1-11.8-1.2-1.1-4.8.8-5.2 1.9" style="fill:#94d1e0"/><path d="M86.2 70.8s-.4 1.5-4.3 1.5-4.4-1.5-4.4-1.5v-25h8.7z" style="fill:#82aec0"/><path d="M77.5 47v2.2q3.2 2.5 6 3 1.3.5 1.5 2v.1c0 1.7-1.7 2.8-3.2 2-1-.4-3-1.2-4.3-2.1v2.4q3.2 2.4 6 3 1.3.5 1.5 2v.1c0 1.7-1.7 2.7-3.2 2-1-.4-3-1.5-4.3-2.6V64q3.2 2.3 6 3 1.3.4 1.5 2v.1c0 1.6-2.5 2-4 1.5a9 9 0 0 1-3.5-2.2v2.3c0 .9 2.1 1.6 4.4 1.6s4.3-.7 4.3-1.6V46.6s-7 1.6-8.7.5" style="fill:#2f7889"/><path d="M81.9 35.8h-8.7c0 2.2 1.5 7.5 3.5 11 .4.7 2.8 1.5 5.2 1.5s4.8-.8 5.2-1.5c2-3.5 3.5-8.8 3.5-11z" style="fill:#82aec0"/><ellipse cx="81.9" cy="35.8" rx="8.7" ry="2.8" style="fill:#b9e4ea"/><path d="M45.9 115.7c-.5 2.7.7 3.4 1.6 3.4.8 0 1.1-2.3 2.9-4.2q.4-.5.4-1.2c0-.8-.9-1.4-1.7-1.3s-2.7.6-3.2 3.3" style="fill:#82aec0"/></svg>