<svg xml:space="preserve" width="16" height="16" viewBox="0 0 128 128"><path d="M63.4 4.5c31.7 0 51.7 51.5 43.8 84.1-7 29-27 35-43 35S28.5 115.7 21 89.7C12.3 59.6 33.9 4.5 63.4 4.5" style="fill:#f2a05b"/><path d="M39.3 29a56 56 0 0 0-8.5 20.1c-1.5 11.7 7.1 13 10.1 7.2S47 44.6 52 36.8c6.8-10.8 17.9-18 12.4-22.7s-17 2.2-25 15" style="fill:#fecc88"/><ellipse cx="91.4" cy="43.6" rx="2" ry="2.1" style="fill:#d47858"/><circle cx="91.7" cy="94" r="2.2" style="fill:#d47858" transform="rotate(-67.6 91.66 94.05)"/><circle cx="32.9" cy="102.9" r="2" style="fill:#d47858" transform="rotate(-67.6 32.91 102.87)"/><ellipse cx="97.7" cy="62.6" rx="3.1" ry="2.7" style="fill:#d47858" transform="rotate(-27.4 97.64 62.57)"/><ellipse cx="68.5" cy="89.4" rx="3.1" ry="2.7" style="fill:#d47858" transform="rotate(-27.4 68.52 89.4)"/><ellipse cx="64.8" cy="104.3" rx="3.2" ry="2.7" style="fill:#d47858" transform="rotate(-51.4 64.8 104.32)"/><ellipse cx="52.4" cy="107" rx="3.6" ry="3.5" style="fill:#d47858" transform="rotate(-48.4 52.4 107.01)"/></svg>