<svg xml:space="preserve" width="16" height="16" viewBox="0 0 128 128"><path d="M22.5 58.6 3.7 65.8s.3 56 .2 56.8.2 1.5 1.1 1.6h117.8q1.5-.1 1.4-1.4V66.1L66 56.7z" style="fill:#f7b03c"/><path d="M7 60.8v60.5h24.2V61zm90.3 1.6v58.3H121V61.3z" style="fill:#f9dfb1"/><path d="M10.4 89.4V109c0 .5 0 1.3 1 1.3h15.8q.9 0 1-1.4V89.3z" style="fill:#6ba4ae"/><path d="M18.2 90.6v19.7h2V89.7z" style="fill:#a7d0d6"/><path d="M10.4 82.5Q9 82.6 8.9 84c-.2 1.4-2 7.2-2.1 8.4q-.3 1.3 2.1 1l21.8.2c.9 0 1.5-.3 1-2.4l-2-7.2q-.4-1.5-1.3-1.5z" style="fill:#024fac"/><path d="m100.5 90-.1 19.5c0 .6 0 1.3 1.2 1.4l16 .2q.7-.2.7-1.6V89.3z" style="fill:#6ba4ae"/><path d="M108.5 88.6V111h2.5V88.9z" style="fill:#a7d0d6"/><path d="M100.8 82.3q-1.1.1-1.4 1.5c-.3 1.4-2.3 7-2.4 8.1q-.2 1.3 2.4 1.2h21.2q1.5.2.6-2.7l-2.5-6.6q-.3-1.5-1.3-1.6z" style="fill:#024fac"/><path d="m36.3 53.3-.5 67.6 56.8-.1.8-68.3-27-25.8z" style="fill:#f9dfb1"/><path d="M35.7 119.5v4.7h56.9v-4.5zm.3-44v6h57V76zM3.7 65.8h32.5v-10l28.4-25.5 28.7 25.4v10.8l31-.4s-3-8.3-3-9-.4-1.2-2.8-1.3-24.2 0-24.2 0 5.5-4.8 5.4-5c0-.4-31-28-31.5-28.4-.5-.5-2-2-3.3-2S62 21.8 61 22.7L30.7 50.1c.2-.2 4.5 5.1 4.5 5.1s-27-.2-27.3-.1-4.2 10.7-4.2 10.7" style="fill:#866054"/><path d="m53.5 124.3.3-39.6q-.1-1 .7-1h20.2q.7 0 .7 1.2l-.1 39.2z" style="fill:#395661"/><path d="m57 87-.3 30.3h15.4L72 87z" style="fill:#6ba4ae"/><path d="M68.8 104.1c-.3 0-.5 1-.5 1.9q0 1.6.3 1.8c.3.2 5.3 0 5.5 0s.4-.9.4-1.7c0-1.2-.5-2-.6-2z" style="fill:#e0a614"/><path d="M49.2 56.4s0-2.4-.8-2.5c-.7-.2-3.5 2-3.3 2.8s2.4 1.1 2.4 1.1z" style="fill:#e2a613"/><path d="m85.6 63.8-4.3-1.4-6.8 1s.5-1.4.7-2.5c.3-2 0-3.8 0-3.8s-3.5-8-10.5-8.2-9 6-9 6l-.9 6.9-2.4-2.2-3.2-3.7-2.2 1.8s2.6 4.4 7 8.7c6.6 6.1 12 5.2 15.7 4.6C75 70.3 82 65.4 82 65.4l3-.3c2.3-.2 2.7-.8 2.7-.8zm-20.5 3c-7 .8-6.7-3.9-6.7-3.9s-1-2-1-4.3q-.1-2.1 1.6-4.4 1.5-2.1 5.2-2.3c5.7 0 7.2 4.5 7.1 7.5 0 3.6-2.8 6.9-6.2 7.3" style="fill:#9e730a"/><path d="M74.7 59.4q-1 0-2-3.1a10 10 0 0 0-7.6-5.9c-1.9-.2-4.6.4-6.2 2a8 8 0 0 0-1.4 9c1.4 2.9 3.5 5 7 5 6 0 11.6-4.7 12.2-6.8.6-2.2.8-6.3 1.6-7s4 0 7.2 4.7 2.8 6.5 2.2 7-5.5-.4-6.9-.1c-1.3.2-8.3 6.3-16.4 5.7a12 12 0 0 1-7.4-3c-3-2.7-4.7-7.7-3-12.2 3.2-8.7 13.4-8.4 17.5-4.6 2.8 2.5 3.2 4.6 3.5 6 .2 1.2.4 3.3-.3 3.3" style="fill:#e2a613"/><path d="M79.5 54.2c-.2 0 .3 3.1 2.4 5.5 1.8 2.3 4.3 3.5 4.6 3.3.3 0-.4-2.4-2.4-5.2-2.2-3-4.3-3.6-4.6-3.6" style="fill:#9e730a"/><path d="M61.5 65.7c0 .1 0 5.8.2 5.8.3.1 6.3.2 6.5 0 .2 0 .2-5.8.2-6z" style="fill:#f83c30"/></svg>