<svg xml:space="preserve" width="16" height="16" viewBox="0 0 128 128"><path d="m78.5 99.5-5.4.5s-.5 13.8 1 16.8c1.6 3 6.4 3.7 10.6 3.2 4-.4 4.2-3 3.6-4.8-.5-1.8-3-3.5-5.2-4.8-1.7-1-2-4.3-2.3-9.1-.2-2.5-2.3-1.8-2.3-1.8m-22.2.3-8.2.5s.3 6.6-.2 9.2c-.5 3-6 3.2-7.7 5.5-1.3 1.8.3 5 3.9 5.4 2.3.2 8.5.6 10.6-3.2 1.8-3.3 1.5-17.4 1.5-17.4" style="fill:#fe8f01"/><path d="M30 50s-4-16.3 9.4-31.7 37.5-13 49.7.4S98.9 51 98.9 51s4.8 9.2 12.3 15.4c5.2 4.2 14.3 11 12.2 15.4-2 4.3-4 3.4-7.7 3.2s-14.2-5.5-14.2-5.5-2.5 26.7-36 27.4-39-27.2-39-27.2-13.8 4.3-16 4.3-6.2-1-6-5.4c.1-4.7 9.1-9.2 12.9-12.8 3.8-3.5 10-9.2 12.6-15.7" style="fill:#ffb903"/><ellipse cx="82" cy="36.9" rx="5.3" ry="4.6" style="fill:#2e302d" transform="rotate(-86 81.97 36.92)"/><ellipse cx="46.4" cy="37.1" rx="4.6" ry="5.3" style="fill:#2e302d" transform="rotate(-7.6 46.35 37.06)"/><path d="M64 40.3c-7 .2-9.2 3.7-9.2 6 0 2.6 6.8 8.5 9 8.5s9.2-6.1 9.3-8.5c0-2.3-2.8-6.1-9.1-6M122.1 84s-2.4 3-6 3.2c-4 .3-10.4-.7-14.4-4.2s-4.9-11.1-3.5-12.7 3.5 5 9.2 8.5a47 47 0 0 0 14.7 5.1m-103.6-4c5.4-2.4 13-11.8 14-10.8 1.5 1.7 0 9.6-4.8 13.6s-12 4.7-18.1 2.2c-3.3-1.4-4.4-3-4.9-3.9-1.1-2.2 6.6 2.1 13.8-1.1" style="fill:#fe8f01"/></svg>