<svg xmlns:xlink="http://www.w3.org/1999/xlink" xml:space="preserve" width="16" height="16" viewBox="0 0 128 128"><path d="m42.8 71 .4-54.9c.3-12.8 16.8-12.7 17-.7l1.3 32.2c2-5.2 11.9-7.5 14.9 3.1 2.6-5 12.9-6.4 14.7 4.2 2.5-3.8 10.9-4.3 14.2 6a81 81 0 0 1-2.3 40.3c-3.3 9.1-5.8 8.4-5.6 16.7 0 1.4-1.1 2.1-2.4 2.4a131 131 0 0 1-33.8.3c-1.6-.4-1.8-1.7-1.9-2.2-.4-2.1-2.5-4.2-4.3-5-6.4-3.2-12.8-12.8-18.2-23.4q-4.1-8.4-18.3-10.4A6.3 6.3 0 0 1 16 67.8c3.6-2.2 7-2.9 10.4-2.9 6.1-.2 10 1.7 16.4 6.1" style="fill:#e0bb95"/><defs><path id="a" d="m42.8 71 .4-54.9c.3-12.8 16.8-12.7 17-.7l1.3 32.2c2-5.2 11.9-7.5 14.9 3.1 2.6-5 12.9-6.4 14.7 4.2 2.5-3.8 10.9-4.3 14.2 6a81 81 0 0 1-2.3 40.3c-3.3 9.1-5.8 8.4-5.6 16.7 0 1.4-1.1 2.1-2.4 2.4a131 131 0 0 1-33.8.3c-1.6-.4-1.8-1.7-1.9-2.2-.4-2.1-2.5-4.2-4.3-5-6.4-3.2-12.8-12.8-18.2-23.4q-4.1-8.4-18.3-10.4A6.3 6.3 0 0 1 16 67.8c3.6-2.2 7-2.9 10.4-2.9 6.1-.2 10 1.7 16.4 6.1"/></defs><clipPath id="b"><use xlink:href="#a" style="overflow:visible"/></clipPath><g style="clip-path:url(#b)"><path d="M61.2 56.4c1.6-.1 2.9-2.8 6.4-2.8 3.7 0 4.7 3 7.5 3.1s3.8-2 7.7-1.5c4.5.6 4 4.1 7.1 4.2 2.7 0 3.2-1.8 6.6-1.8 3.1 0 5.8 3 7 5.5s3.4 1.2 3.4 0-1.3-11.9-8.2-14.5c-8-3-29.6-11-36.9-8.8L60 53.5c-.1.7-.6 3 1.2 2.9M42.4 69.6q1.4.2 1.5-1c0-1 2.1-43.6 2.3-51.6.2-9.2 7.6-8.7 10.1-5.9 1.7 1.9 4-.6 2.6-2.2s-3.4-4.4-8.4-4.3S41.9 9 41.6 13c-.3 3.8.8 56.6.8 56.6m21 51.9c0-15.9-11.7-14.1-18.9-25.2C34.4 81 33.4 80.1 19.3 76.7c-4.9-1.2-4.4-5.7-2.1-7.7s-1.3-4.9-2.7-3.6-7.7 7.8-1.1 14.8 46.2 42 46.2 42z" style="fill:#d19661"/></g><defs><path id="c" d="m42.8 71 .4-54.9c.3-12.8 16.8-12.7 17-.7l1.3 32.2c2-5.2 11.9-7.5 14.9 3.1 2.6-5 12.9-6.4 14.7 4.2 2.5-3.8 10.9-4.3 14.2 6a81 81 0 0 1-2.3 40.3c-3.3 9.1-5.8 8.4-5.6 16.7 0 1.4-1.1 2.1-2.4 2.4a131 131 0 0 1-33.8.3c-1.6-.4-1.8-1.7-1.9-2.2-.4-2.1-2.5-4.2-4.3-5-6.4-3.2-12.8-12.8-18.2-23.4q-4.1-8.4-18.3-10.4A6.3 6.3 0 0 1 16 67.8c3.6-2.2 7-2.9 10.4-2.9 6.1-.2 10 1.7 16.4 6.1"/></defs><clipPath id="d"><use xlink:href="#c" style="overflow:visible"/></clipPath><g style="clip-path:url(#d)"><path d="M42.8 71v1.9c0 .4-.4.8-1.3.2s-8-5.8-15-5.8a23 23 0 0 0-12.4 3.4c-.9.6-1.4-.2-1-.9.5-.7 3.2-6.4 13.4-6.5A22 22 0 0 1 42.8 71m8.8-65.1c0 .5-.2 1.1 1 1.7 1.5.7 4.4 3.1 4.7 8.4l2.5 38.9c0 1.1 1.9 1.2 1.8-.1l-.2-7.2s1.8-30.9-.6-36.9-9.2-4.8-9.2-4.8m18.6 37.2q-.2.5.3 1c2 1.5 3.5 4.6 3.3 10.6 0 1.4 2.7 1.6 2.7-.1l-.1-4-.2-6.6zm15.1 3.6q-.2.5.4 1.1c2 1.5 2.8 3.5 3 9.7.1 1.5 2.6 1.4 2.6-.2l-.1-2.4-.6-7zM98 52.1q-.3.5.4 1.2c1.1.8 3 2.9 4.4 7.5a97 97 0 0 1-.7 32.5c-.5 2.3-3 9.9-5.3 13.6s-1.6 7.3-1.4 8.3l.7 6.3 3.7-2.5 8.6-27-.6-38.5z" style="fill:#8d542e"/></g></svg>