<svg xml:space="preserve" width="16" height="16" viewBox="0 0 128 128"><path d="m51.9 100.2-10-19.6s-1.6-11-.5-25.5c1-12.8 3.5-21.7 10-29.7C56.7 19.2 64.9 13 73 10s9-3 9-2-13 6.6-21.8 19-8.4 24-9 31.7.6 41.5.6 41.5" style="fill:#717f35"/><path d="M19.5 48.2c5.3 9.6 10.4 27.5 16.2 41 5.5 12.5 11.2 22.2 16.2 27s9.6 4.3 11.6 2.6c3-2.5 1.4-9.5 1.4-13.5 0-7.3 1.3-12.3 3.5-16 2-3.2 5.5-6.5 9.2-5.4 4.6 1.4 7.6 5.8 9 8C88 93.8 90 98 91 98s-.7-10.8-5.3-17.1-11-7.5-17-5C55.7 81.7 55.2 99 55.2 99s-8.3-7-14-25.3C39.9 69.3 35.5 53.4 31 47c-6.7-10-13.9-12-18-13.5-4-1.4-8.9-2.8-9-2-.2 1 9.4 6 15.4 16.7" style="fill:#94a61d"/><path d="M59.4 105.6c-.4-2.8-1.6-10-1.1-19.2.3-6.3 2-16.9 11.7-20.4a25 25 0 0 1 22 1.2c7.7 3.7 4-1.2.4-3-2.5-1.4-13.1-6.7-23.6-3.2-12.2 4.2-15.5 18.8-15.5 18.8s-.9-15.9 2.4-23.7c3.2-7.9 9.1-14.3 7.5-14.8-.6-.2-8 2.8-12.2 12.4-4.4 10.2-4.6 19.4-4.4 24.7s1 10.4 1 10.4 2.2 4.9 4.6 8c2.3 2.9 7.4 9.6 7.2 8.8m7.8-78.7c-.5-.1-5.7 1.9-8.3 8.1-2.6 6.3-.4 11.5-.4 11.5s7-6.1 8.3-9.9 1-9.6.4-9.7m13.1 17.8c.1-.4-5.3-4.9-9.4-5s-9.2 3.5-9.2 3.5 1.8 4.1 8.3 4.8c4.7.6 10.2-2.8 10.3-3.4M69.2 37c.5.5 5.8-.1 8.8-3.8 3.3-3.8 3.3-12.4 2.3-12.4-1.1 0-2 1.2-4 2.5-2 1.2-5.7 4.9-6.7 7.7s-.9 5.7-.4 6m5.2.7c.1 1.1 4.2 5 8.8 5.2 4.5.2 8.5-1.6 8.5-2.2s-2.9-5.8-7.9-6.3c-5.4-.5-9.4 2.8-9.4 3.3m6.7-5c.6 1 6.8-.2 9.8-4.2 2.7-3.7 2.1-7.9 1.9-8.4S88 20 84.6 24c-2.8 3.3-4 7.9-3.5 8.7m6.5 0c0 1 2.6 4.5 5.6 5.9 4.5 2 10.2.8 10.5 0 .2-.8-2.5-6-6-7.6-4.4-1.9-10 .3-10 1.7m6.3-4c0 1.2 7 1 9.6-.7s5-6.3 5.7-7 .7-1.2-.6-1.6-7.6-.6-11.2 2-3.5 7-3.5 7.3m8 1.6c-.7.4.3 1.6.8 2.6s2.2 5.2 5.8 7 8.2 1.7 8.4 1.4c.2-.2-.9-6-4.4-8.7-4.3-3.2-9.4-3-10.6-2.3m5.3-2.3c.1.6 4.9 3.1 9 3.5s8-3.8 8-4.2-3.6-4.4-7.8-4.3c-5.5.2-9.3 4.4-9.2 5M89.4 49.7c0-1-7.7-1.1-11.6 3s-4 7.7-4 7.7l2.9 1.9s5.3-2.4 8.2-5.2c3.3-3.2 4.6-6.3 4.5-7.4m-6.9 25.8c1.2 0 1-5.1-.2-8.4-1.3-3.4-4.6-5.8-4.6-5.8l-4.1.9s0 4 2 7.6c2.7 4.6 5.7 5.7 6.9 5.7M83.6 63s-.4 4.2 1.5 8c2 4.1 6.4 6.5 7.4 6 1-.3.5-5.2-.1-7.6s-3.6-6-3.6-6zm-.6-2s3.2-5.2 7-6.7c5.5-2.3 12.4.5 12.4 1.6.1 1-4.7 4.5-7 5.3-2.4 1-7.2 1.7-7.2 1.7zm19.7 0c-4.2.3-8.3 2.6-8.4 4s3.6 4.2 8.7 4.2 8.3-3.4 8.3-4c0-.4-3-4.4-8.6-4.1m-7.2 5.7c-1-.2-2.2 5.3-.4 9.7s6.9 6.6 7.3 6.8c1.2.5.9-7.4-.6-10.5-1.4-3-4.7-5.7-6.3-6m7.2 3.9c-.5.7.5 5.7 2.7 8.7 3.6 4.6 8.9 5 9.4 4.7s0-7.3-3.5-10.6c-3.3-3.2-8.3-3.5-8.6-2.8" style="fill:#ffbd13"/></svg>