<svg xml:space="preserve" width="16" height="16" viewBox="0 0 128 128"><path d="M91.1 79.9c-1.2-2.3.4-4.6 3-7.5 4.4-4.5 9-15 4.7-25.8l-.8-1.9h-1.8a3374 3374 0 0 0-80 0l-2.6 2a25 25 0 0 0 4.7 25.7c2.7 2.9 4.3 5.2 3 7.4s-4.8 2.6-4.8 2.6.9 2.2 2.9 3.5c1.8 1 4 1.3 5.7 1.4 0 0 6.1 8.5 22.2 8.5h17.9c16 0 22.2-8.5 22.2-8.5 1.6 0 3.9-.3 5.7-1.4 2-1.3 2.8-3.5 2.8-3.5s-3.6-.3-4.8-2.6" style="fill:#ab872f"/><radialGradient id="a" cx="107.4" cy="45.8" r="23.4" gradientTransform="matrix(1 0 0 .491 -36.61 59.63)" gradientUnits="userSpaceOnUse"><stop offset=".7" style="stop-color:#bfa055;stop-opacity:0"/><stop offset="1" style="stop-color:#bfa055"/></radialGradient><path d="M56.2 95.8v-9.4L84.8 84l2.6 3.2s-6.2 8.5-22.3 8.5z" style="fill:url(#a)"/><radialGradient id="b" cx="84.4" cy="49.3" r="6.9" gradientTransform="rotate(155 84.43 58.69)scale(1 .742)" gradientUnits="userSpaceOnUse"><stop offset=".7" style="stop-color:#bfa055"/><stop offset="1" style="stop-color:#bfa055;stop-opacity:0"/></radialGradient><path d="M87.3 83.2c-4.3-6.5 5.2-9 5.2-9-1.6 2-2.4 3.9-1.4 5.6 1.2 2.3 4.8 2.6 4.8 2.6s-4.9 4.3-8.6.8" style="fill:url(#b)"/><radialGradient id="c" cx="102.3" cy="68.9" r="30.4" gradientTransform="rotate(-94.3 89.88 70.49)scale(1 .833)" gradientUnits="userSpaceOnUse"><stop offset=".7" style="stop-color:#bfa055;stop-opacity:0"/><stop offset="1" style="stop-color:#bfa055"/></radialGradient><path d="M98.8 46.7c4.3 10.3-.2 21-4.4 25.5-.5.6-3 3-3.5 4.9 0 0-9.6-13.3-12.4-21.1q-1-2.4-1.2-5-.2-2 .9-3.8a111 111 0 0 1 20.1-1.7z" style="fill:url(#c)"/><radialGradient id="d" cx="36.5" cy="68.9" r="30.4" gradientTransform="rotate(-85.7 99.31 .83)scale(1 -.833)" gradientUnits="userSpaceOnUse"><stop offset=".7" style="stop-color:#bfa055;stop-opacity:0"/><stop offset="1" style="stop-color:#bfa055"/></radialGradient><path d="M13.6 46.7A26 26 0 0 0 18 72.2c.6.6 3 3 3.6 4.9 0 0 9.5-13.3 12.4-21.2q.9-2.3 1.2-4.8.1-2.1-1-3.9c-.8-1.3-1.8-1-3.3-1-3 0-15.5-.7-16.5-.7z" style="fill:url(#d)"/><radialGradient id="e" cx="41.7" cy="45.8" r="23.4" gradientTransform="matrix(-1 0 0 .491 83.32 59.63)" gradientUnits="userSpaceOnUse"><stop offset=".7" style="stop-color:#bfa055;stop-opacity:0"/><stop offset="1" style="stop-color:#bfa055"/></radialGradient><path d="M56.3 95.8v-9.4L27.7 84 25 87.3s6.1 8.5 22.2 8.5z" style="fill:url(#e)"/><radialGradient id="f" cx="18.6" cy="49.3" r="6.9" gradientTransform="rotate(205 4.68 53.5)scale(-1 .742)" gradientUnits="userSpaceOnUse"><stop offset=".7" style="stop-color:#bfa055"/><stop offset="1" style="stop-color:#bfa055;stop-opacity:0"/></radialGradient><path d="M25.2 83.2c4.2-6.5-5.3-9-5.3-9q2.7 3 1.5 5.6c-1.3 2.3-4.9 2.6-4.9 2.6s5 4.3 8.6.8" style="fill:url(#f)"/><linearGradient id="g" x1="4.2" x2="108.2" y1="18.2" y2="18.2" gradientTransform="matrix(1 0 0 -1 0 128)" gradientUnits="userSpaceOnUse"><stop offset="0" style="stop-color:#e3e3e3"/><stop offset="1" style="stop-color:#c9c9c9"/></linearGradient><path d="M56.4 95.7h-.2c-25.5 0-52 7.3-52 25v3.2h104v-3.1c0-16.8-26.2-25.1-51.8-25.1" style="fill:url(#g)"/><path d="M56.2 90h-9v10c0 4.6 3.6 8.2 8.2 8.2h1.7c4.5 0 8.2-3.6 8.2-8.1V90z" style="fill:#c48e6a"/><linearGradient id="h" x1="67.7" x2="64.2" y1="36.4" y2="21.7" gradientTransform="matrix(1 0 0 -1 0 128)" gradientUnits="userSpaceOnUse"><stop offset="0" style="stop-color:#0053ab"/><stop offset=".4" style="stop-color:#0068bf"/><stop offset="1" style="stop-color:#008ee3"/></linearGradient><path d="M71.6 95.2c1.5 2.2 1.7 7-2.6 11.1-2.5 2.4-6.7 2.8-10 2.7q-1.1 0-1.8-.8-.3-1.4.8-2.1 1-.5 2.1-.8c1.5-.5 4-3.3 4.5-7.4.4-2.7.1-4 .2-4.8 0-.7 5.7.4 6.8 2" style="fill:url(#h)"/><linearGradient id="i" x1="38.5" x2="59.2" y1="31.7" y2="17.7" gradientTransform="matrix(1 0 0 -1 0 128)" gradientUnits="userSpaceOnUse"><stop offset="0" style="stop-color:#008ee3"/><stop offset="1" style="stop-color:#0053ab"/></linearGradient><path d="M41.5 106.6a21 21 0 0 0 17.7 3.6c.9-.2 1.9-.7 2-1.5 0-1.2-1.6-2.4-2.8-2.6-3-.4-6.3-2-8.2-4.2-1.7-2.1-2.4-3.7-2.4-7.4 0-1.5-6.7-.2-8.4.7-2.6 1.3-4 7 2 11.4" style="fill:url(#i)"/><linearGradient id="j" x1="-317.7" x2="-317.7" y1="47.3" y2="32.5" gradientTransform="matrix(.812 -.008 .008 -.812 317.57 146.42)" gradientUnits="userSpaceOnUse"><stop offset="0" style="stop-color:#0053ab"/><stop offset="1" style="stop-color:#008ee3"/></linearGradient><path d="M57 113.5c.2 4.5 2.5 6 1.1 9.5q3.5-2.5 4.4-6.4c1-4 .5-5.3-.3-7.8a4 4 0 0 0-1.1-2c-2.7-2.3-4.2 5-4.1 6.7" style="fill:url(#j)"/><linearGradient id="k" x1="62.9" x2="72.2" y1="20.5" y2="14.2" gradientTransform="matrix(1 0 0 -1 0 128)" gradientUnits="userSpaceOnUse"><stop offset="0" style="stop-color:#0053ab"/><stop offset="1" style="stop-color:#008ee3"/></linearGradient><path d="M66 114c4.4 2 6.7.5 9.6 5 .3-3.2-1-6.5-3-9s-5-4.1-8.1-5.1q-1.3-.5-2.7-.3c-4.4 1 .3 7.8 4.2 9.5" style="fill:url(#k)"/><ellipse cx="59.5" cy="107.4" rx="5.3" ry="3.4" style="fill:#1565c0" transform="rotate(-11.8 59.51 107.42)"/><path d="M83.6 50.4H28.9c-5.9 0-10.7 5.2-10.7 11.4S23 73.3 28.9 73.3h54.6c6 0 10.8-5.2 10.8-11.4s-4.9-11.5-10.7-11.5" style="fill:#c48e6a"/><path d="M56.2 11c-17.4 0-33.5 18.7-33.5 45.5 0 26.6 16.6 39.8 33.5 39.8S89.7 83 89.7 56.5c0-26.8-16-45.4-33.5-45.4" style="fill:#e0bb95"/><path d="M47 50.2c-1-1.3-3-3-7.2-3s-6.3 1.7-7.2 3q-.5.8 0 1.5c.2.3 1 .7 1.8.4s2.6-1.2 5.4-1.2 4.5.9 5.3 1.2q1.5.3 2-.4t0-1.6m32.8.1c-1-1.3-3-3-7.2-3s-6.4 1.7-7.3 3q-.5.8 0 1.5c.3.3 1 .7 2 .4s2.4-1.2 5.3-1.2c2.8 0 4.4.9 5.3 1.2q1.4.3 2-.4.4-.6-.1-1.6" style="fill:#ab872f"/><ellipse cx="72.7" cy="58.8" rx="4.9" ry="5.1" style="fill:#5d4037"/><ellipse cx="39.8" cy="58.8" rx="4.9" ry="5.1" style="fill:#5d4037"/><path d="M60 68h-7.6q-1.1.5-.7 1.7c.3.7 1.7 2.7 4.5 2.7s4.3-2 4.6-2.7q.4-1.2-.7-1.6" style="fill:#c48e6a"/><path d="M64.6 76.1a26 26 0 0 1-16.8 0c-1.8-1-3.7.6-3 2.3s6.5 5.4 11.5 5.4 10.5-3.8 11.3-5.4c.7-1.7-1.1-3.4-3-2.3" style="fill:#6d4c41"/><path d="M109.4 66.8 106 79.4l1 .3 3 1 1 .5 1 .4 4-12.9z" style="fill:#a7a9ac"/><path d="m111.7 79.4-1-.5q-1.4-.7-3.4-1.2l-1-.2-13 46.3H99l13.6-44.1z" style="fill:#603913"/><linearGradient id="l" x1="100.4" x2="99.9" y1="39" y2="-6.5" gradientTransform="matrix(1 0 0 -1 0 128)" gradientUnits="userSpaceOnUse"><stop offset="0" style="stop-color:#ffdbb5"/><stop offset="1" style="stop-color:#a97c50"/></linearGradient><path d="M105.7 89.1q-4.7 0-10 2.2a32 32 0 0 0-16.4 17.5 35 35 0 0 0-3 15.1h43.1c10.3-16.7 2.2-34.8-13.7-34.8" style="fill:url(#l)"/><path d="M99 99c-.3-1.7-1.8-3.3-3.6-3.4-2-.1-3.2 1.7-3.7 3.4q-1 2.9.7 5.3a3.2 3.2 0 0 0 5 0 6 6 0 0 0 1-2.2q1-1.3.7-3" style="fill:#00aeef"/><path d="M110.4 94c-1.7-1.2-4.3-.2-5.8 1-1.7 1-3 3.4-2 5.4s3.4 2.7 5.3 1.9c1.7-.7 3.7-2.6 3.6-4.6q1-2.1-1-3.8" style="fill:#00c853"/><path d="M115.6 103.2q-2.7 0-4.8 1.8c-1.4 1.1-2.4 2.8-1.5 4.6.9 1.6 2.8 2.2 4.5 2q2.5-.4 4-2.5.5-.7.6-1.6l.3-1c.2-1.9-1.3-3.2-3.1-3.3" style="fill:#fff200"/><path d="M112 116.6c-.8-1.3-2.4-1.7-3.8-2-1.6-.3-3.5-.2-4.7 1-1.5 1.4-1.2 3.6.4 4.7l1.2.6c1.5 1 3.4.7 5 .1q2.1-.7 2.3-2.8.2-1.1-.4-1.6" style="fill:#ef4136"/><path d="M119.6 68.2a7 7 0 0 1-1.2 2.5 7 7 0 0 1-5.7 3q-1 0-2-.4a6.4 6.4 0 0 1-4.6-5.9q0-1.7.8-3.8.8-1.8 2-3.3l1.4-2.3c.3-.7 1.5-3.4 2-4.9q.1-.9 1-1 1-.2 1.5.5c2.6 3.2 6.9 8.4 4.8 15.6" style="fill:#00aeef"/><path d="M118.4 70.7a7 7 0 0 1-5.7 3q-1 0-2-.4a6 6 0 0 1-4.4-4.7c4.2 2.7 4.8-5.4 9.2-5.3 3.9 0 0 6.5 2.8 7.4" style="fill:#d1d3d4"/><path d="M96.3 25.1c-2.4-3.7-8-8.6-12.8-9-.8-4.7-5.9-8.7-10.8-10.2-13.2-4.2-21.8.5-26.4 3-1 .5-7.2 4-11.5 1.5C32 8.9 32 4.7 32 4.7S23.6 7.9 26.5 17a10 10 0 0 0-8.8 5.4c-2.4 5-1.6 9-.9 11A11 11 0 0 0 13.3 46c1.7 4.4 8.2 6.5 8.2 6.5-.5 8 1 13 1.8 15q.4.4.7-.1c1-4 4.4-17.8 4-20.2 0 0 11.4-2.3 22.2-10.3a32 32 0 0 1 7.2-4c13.5-5.4 16.4 3.8 16.4 3.8S83.2 35 86 48c1.1 5 1.8 12.8 2.4 18.3 0 .3.6.4.8 0 1-2.1 2.8-6.4 3.3-10.8.1-1.6 4.3-3.6 6.1-10.3 2.4-8.9-.5-17.4-2.3-20" style="fill:#ab872f"/><radialGradient id="m" cx="74.2" cy="84.9" r="35.6" gradientTransform="rotate(72 1.35 -9.99)scale(1 -.742)" gradientUnits="userSpaceOnUse"><stop offset=".7" style="stop-color:#bfa055;stop-opacity:0"/><stop offset="1" style="stop-color:#bfa055"/></radialGradient><path d="M92.4 55.5c.2-1.5 4.4-3.6 6.2-10.3l.5-2.1a28 28 0 0 0-2.8-18 22 22 0 0 0-11.7-8.8l-1.2-.1s.4 2.1-.5 3.8a5 5 0 0 1-3.4 2.8c12 12 11.1 22 13 32.7" style="fill:url(#m)"/><radialGradient id="n" cx="39.5" cy="123.8" r="9.3" gradientTransform="rotate(208.2 -17.9 65.57)scale(-1 1.186)" gradientUnits="userSpaceOnUse"><stop offset=".6" style="stop-color:#bfa055"/><stop offset="1" style="stop-color:#bfa055;stop-opacity:0"/></radialGradient><path d="m49.2 7.4-3 1.5c-.9.5-7.1 4-11.4 1.5C32 8.9 32 4.8 32 4.7c-1.2 1.6-5 12.8 6 13.5 4.6.3 7.5-3.8 9.2-7.2z" style="fill:url(#n)"/><radialGradient id="o" cx="162.6" cy="55.9" r="28.7" gradientTransform="matrix(-.938 -.394 -.218 .528 225.04 55.75)" gradientUnits="userSpaceOnUse"><stop offset=".7" style="stop-color:#bfa055;stop-opacity:0"/><stop offset="1" style="stop-color:#bfa055"/></radialGradient><path d="M71.4 5.5c7.3 2 10.9 5.7 12 10.6.4 1.5.8 15.1-25.2-.4-9.6-5.7-7-9.3-5.9-9.7a31 31 0 0 1 19-.5" style="fill:url(#o)"/><radialGradient id="p" cx="35.8" cy="115.3" r="8.6" gradientTransform="matrix(1 0 0 -1.223 0 153.74)" gradientUnits="userSpaceOnUse"><stop offset=".7" style="stop-color:#bfa055;stop-opacity:0"/><stop offset="1" style="stop-color:#bfa055"/></radialGradient><path d="M32 4.7c-1 .4-8.2 3.8-5.5 12.3l7.8 1.2c-7-7-2.2-13.5-2.2-13.5" style="fill:url(#p)"/><radialGradient id="q" cx="34.6" cy="100.1" r="16.1" gradientTransform="rotate(-165 42.6 -32.93)scale(1 -.936)" gradientUnits="userSpaceOnUse"><stop offset=".7" style="stop-color:#bfa055;stop-opacity:0"/><stop offset="1" style="stop-color:#bfa055"/></radialGradient><path d="m31.3 17.7-4.8-.7h-1.2a10 10 0 0 0-7.6 5.4 14 14 0 0 0-1.3 9.4l.4 1.6s2.4-2.3 8-2.4z" style="fill:url(#q)"/><radialGradient id="r" cx="30.8" cy="84.6" r="16.9" gradientTransform="matrix(.99 .136 .19 -1.392 -15.86 157)" gradientUnits="userSpaceOnUse"><stop offset=".6" style="stop-color:#bfa055;stop-opacity:0"/><stop offset="1" style="stop-color:#bfa055"/></radialGradient><path d="M16.6 33.6a11 11 0 0 0-3.2 12.6c1.8 4.4 8 6.3 8 6.3s1.3.4 2 .4l1.5-22c-3 0-6 1-7.8 2.3z" style="fill:url(#r)"/></svg>