<svg xml:space="preserve" width="16" height="16" viewBox="0 0 128 128"><circle cx="64" cy="64" r="60" style="fill:#455a64"/><path d="M34.4 68c17.5-10.4 45-8.3 59-1.1 6.5 3.3 9.7 6.9 17.7 11.1 6.9 3.7 7.8.7 8.3-.7 1.3-4.9 1-8 1-13.3A58 58 0 0 0 64 5.8a58 58 0 0 0-55.6 68c2.7 9 17.3-.6 26-5.8"/><path d="M104 108.6 90.5 92.3 82 92l11.3 24.4 5.5-3.5c4-2.5 5.3-4.2 5.3-4.2" style="fill:#82aec0"/><path d="m84.8 90.2 14.9 22s-2.6 2-3.5 2.4l-2.9 1.8-11.2-24.5z" style="fill:#263238"/><path d="m24 108.6 13.6-16.3L46 92l-11.3 24.4-5.5-3.5c-4-2.5-5.2-4.2-5.2-4.2" style="fill:#82aec0"/><path d="m43.3 90.2-15 22a61 61 0 0 0 6.4 4.1L46 92z" style="fill:#263238"/><path d="M32.2 92.6q0 3.4.8 7 .2 1.4 1.3 1.6h2c.7 0 1.4-.4 2.6 2.1q.5 1 1.2 1.4a83 83 0 0 0 47 0c.7.3 1.8 0 2.5-1.4 1.2-2.5 1.9-2.1 2.6-2.1h2c.7 0 1.1-.8 1.3-1.5q.7-3.7.8-7.1z"/><path d="M97.6 93.2H30.4c-1.2 0-2.2-1-2.2-2.2V80.2h71.6V91q-.2 2-2.2 2.2" style="fill:#82aec0"/><path d="M99.8 82.3H28.2v3h25.7v5.1h19.5v-5.2h26.4z" style="fill:#37474f"/><path d="M99.2 82.6H28.8q-1.4-.2-1.5-1.5V42.9c0-14 5.4-27 32-27h10.2c23.3 0 31.2 13 31.2 27v38.2q-.2 1.4-1.5 1.5" style="fill:#f44336"/><path d="M27.3 41.4c0 5.2 4.8 6.3 4.8 6.3h40.7l23.2-.1s4.7-1.5 4.7-6.2S99.3 15.7 69.5 16H59.2c-31.9-.4-31.9 20.3-31.9 25.4" style="fill:#82aec0"/><path d="M71 79.5H57a3.5 3.5 0 0 1-3.5-3.4V39c0-2 1.5-3.5 3.4-3.5h14.2c1.9 0 3.4 1.6 3.4 3.5v37c0 2-1.5 3.5-3.4 3.5z" style="fill:#f44336;stroke:#9b1313;stroke-width:2;stroke-miterlimit:10"/><path d="M48.8 23.2q2 .1 1.9 1.7V62q-.2 1.6-1.9 1.7H34q-1.6-.1-1.8-1.7V43c0-17.9 13.4-20 16.6-20M69 38.6H59a2.7 2.7 0 0 0-2.8 2.6v20c0 1.5 1.2 2.7 2.7 2.7h10.2c1.5 0 2.6-1.2 2.6-2.6v-20c0-1.5-1.2-2.7-2.6-2.7" style="fill:#bae2fd"/><path d="M48.8 23.2q2 .1 1.9 1.7V62q-.2 1.6-1.9 1.7H34q-1.6-.1-1.8-1.7V43c0-17.9 13.4-20 16.6-20M69 38.6H59a2.7 2.7 0 0 0-2.8 2.6v20c0 1.5 1.2 2.7 2.7 2.7h10.2c1.5 0 2.6-1.2 2.6-2.6v-20c0-1.5-1.2-2.7-2.6-2.7" style="fill:#37474f"/><path d="M71.7 31.2H56.4a3 3 0 0 1-2.8-2.8v-3c0-1.4 1.2-2.7 2.8-2.7h15.3c1.5 0 2.7 1.3 2.7 2.8v2.9c0 1.5-1.2 2.8-2.7 2.8"/><path d="M55.9 24.9h3v4h-3zm13.2 0h3v4h-3zm-8.6 0h2v4h-2zm5.7 0h1.4v4h-1.4z" style="fill:#ffeb3b"/><path d="M47.8 26.1q1.5.1 1.5 1.4v32.2q-.1 1.4-1.5 1.5h-12q-1.2-.1-1.4-1.5V43.2c0-14.7 10.7-17 13.4-17M68.3 41H60a2 2 0 0 0-2 2v16.5q.2 1.8 2 2h8.3a2 2 0 0 0 2-2V43a2 2 0 0 0-2-2" style="fill:#bae2fd"/><circle cx="36.7" cy="72.8" r="4.7" style="fill:#ffff8d"/><circle cx="91.3" cy="72.8" r="4.7" style="fill:#ffff8d"/><path d="M79.8 23.2q-1.9.1-1.8 1.7V62q.2 1.6 1.8 1.7h14.9q1.7-.1 1.8-1.7V43c0-17.9-13.5-20-16.7-20" style="fill:#37474f"/><path d="M80.9 26.1q-1.6.1-1.5 1.4v32.2q0 1.4 1.5 1.5h11.9q1.4-.1 1.5-1.5V43.2c0-14.7-10.8-17-13.4-17" style="fill:#bae2fd"/><path d="m34.4 41.4 14.9 14.8v-7L35.6 35.5s-.5 1.3-.8 3l-.4 3m45-.1 14.8 14.8v-7L79.5 34.3zM58 42.8 70.3 55v-7l-7.4-7.2h-3c-1 0-2 .9-2 1.9" style="fill:#fff"/><path d="m45.4 102.9 1.3-2.5q.6-.8 1.5-.9h30q1.1 0 1.6 1L81 103a1 1 0 0 1-.7 1.2H46c-.6 0-1-.7-.7-1.3" style="fill:#424242"/><path d="m87 116.2-46-.5c-1 0-1.5-.9-1.1-1.6l1.7-2.8q.6-1 1.9-1h41.2q1.3 0 2 1.1l1.5 3.3c.4.7-.2 1.5-1.1 1.5" style="fill:#82aec0"/></svg>