<svg xml:space="preserve" width="16" height="16" viewBox="0 0 128 128"><path d="M114.7 31.2q-1.7-.4-3.3-1.1c-1.4-.8-2.7-3.2-4-4-3.8-2.1-5.1-1.9-8.9-7.6-.9-1.5-2.7-2.4-4.2-3.3q-1.6-.9-2.8.5C88.7 18.2 86.1 21 83 23l-2.8 2.3q-.6.5-1.1.6c-.6 0-1-.7-1.6-1q-1.2-.4-2.5.2l-9.5 3.5q-1.3.7-2.8 1.2S77 44.7 87.1 48s15.7 4.6 24 1.2c6-2.4 10.7-4.9 13-6V32.7z" style="opacity:.72;fill:#a0c7e8"/><path d="M124 85H4v31.5l.1 1.2h119.8l.1-1.2z" style="fill:#608c3d"/><path d="m7 94.8 1.6 2.8 1.3-3.5 1.9 2.3 1-1.5 2.5 1.3s3.5-3.5 4.1-3.4l9.8 1.5c20 2.4 74.2-1.1 77-.7 1.5.1 6 1.6 6 1.6l2-2.9 1.5 2.4 1.3-4.3c1 1.5 1.2 5.7 1.2 5.7l1.7-2.6 2 2.4 1.6-2.5v-7.7h.5V41l-3.8 2.3q-.9.6-1.8.5c-.7-.1-1.2-.7-1.8-.6-2 .7-6.5 5.2-17 5.2-7.6 0-15.1-3.2-21.3-7.7-3.4-2.4-7-4.5-9.7-7.7-2.6-3-9.9-10.9-19.2-10.6-1.7 0-4.4 0-7-1.9-2.5-1.3-3.8-4-6-5.9-1.3-1.2-2.2-2.3-4-2.8-1-.4-2.4-.9-4.3-.1a25 25 0 0 0-9.1 6.1A71 71 0 0 1 7 27l-3 2.2V95l2.2 2z" style="fill:#9bc4d1"/><path d="m124 99.7-3.1 6-1.9-4.4-1.4 4.3-1.5-1.3-1.4 2.2-.8-1.8-2.5 2-1.1-2.2-1.8 1.8-1.8-1.2s-5.2 2.3-5.6 2.2c-1-.3-1.5-1.3-2.3-2-1-1-27.2-.6-27.2-.6l-2 2.8-1.4-2.2-1.4 2.2-2.6-2.4-2.6 2.2-1.1-2.8s-1 1.7-1.6 2.2l-1.6-2.8-2.7 2.8c-.7 0-3-.1-3.6-.3s-.9-.9-1.3-1.3c-.7-.6-14.5-.4-15.6 0-1.7.5-3.3 1.8-5 1.6-1.2 0-2.2-.7-3.4-.6q-1 .3-2.1.9c-.8.3-2.7 0-2.7 0l-1.9-1.5-1 1.3-1.6-2-2 1.6-1.2-2.2-1 2.5-1.4-2.2-1.5 2.2-1.6-2.9-1 2.8-1.7-1.9-1 2.6s-.1 8 .3 11.2l119.5-.3.2-1.7z" style="fill:#9ccc65"/><path d="m9.2 86.9.3 2.2 4.2 3 .7-2.2-.9-3.6z" style="fill:#74adba"/><path d="M10.6 38.2c.7-1 1-3.6 1.4-4.8l.9-1.6 1.3-1.5a115 115 0 0 1 7.1-7l-1 6.2c1.4-2 3-3.9 4-6.1.9-2 2.1-8 2.2-8.2.4-1.1 3.6-3.8 3.6-3.8s-2.2-.3-4.8.3c-1 .2-3.7 1.6-4.4 2.2-3.1 2.7-11.4 8.9-16.9 13v4.3c3.7-2 8.5-5.2 10.2-7l-2.4 6.3q-.5 1.5-1.5 3-1.1 1-2.4 1.9l-1.2 1-1.3 1.3-1.4.6v5.3c3-2.4 6.3-5 6.6-5.4m-.6 14 1-7.4 3.5-11-5.1 5.3-1.4 5-4 4v13.8L6.8 57z" style="fill:#b9e4ea"/><path d="M56 22.2c-2.5-.4-9.8-1.3-12-2.2-2-1-5.4-5.6-6.4-6.2s-3.2-2.1-4.6-2.3-2.9 0-2.9 0 4.2 1.6 4.7 2.7c1 2 4.7 9.3 6.8 11.4 2.2 2.1 10.5 7.4 10.5 7.4s-5-6-5.5-8.1 2.4.2 5.2.5c4.4.6 5-.2 5-.2s2 2.4 4 3.7 7.8 4.2 7.8 4.2l-5.3-5.6c-1.5-1.5-5-4.8-7.4-5.3M7 94.8l1.6 2.8 1.3-3.5 1.9 2.3-.3-3.7-3-2.6L4 87.3v8.1l2.2 1.8zm111.8-10.5-2 4.5-4.1 2.3-.5 4.1 2-2.9 1.5 2.4 1.3-4.3 1.2 5.7 1.8-2.6 1.8 2.4 2.2-2V83zm.6-7.3-3.6 4v3.2l4.6-3.8L124 79V65.7l-4.6 7z" style="fill:#74adba"/><path d="M59.6 13.6q-.2-1.8-2.3-1.9c-1.2.2-2.1 1.2-1.8 2.4s1 1.6 2 1.6 2.1-.7 2-2.1" style="fill:#fff"/><path d="M65 17.4q-1.3.1-1.5 1.4c0 .7.8 1.3 1.3 1.4.8 0 1.6-.6 1.6-1.3 0-.6-.3-1.4-1.3-1.5" style="opacity:.56;fill:#fff"/><path d="M106.3 8.1q-1.4.1-1.6 1.3c0 .8.8 1.4 1.3 1.4q1.4 0 1.6-1.3c0-.5-.3-1.3-1.3-1.4" style="fill:#fff"/><path d="M14.3 8.1Q13 8.2 13 9.6c0 1.4.9 1.3 1.4 1.3.8 0 1.5-.8 1.5-1.5s-.5-1.3-1.5-1.3" style="opacity:.56;fill:#fff"/><path d="M112.3 17.3c-.8-.9-2-.6-2.6 0s-1 1.8 0 2.8c1.2 1.2 2.6.1 3-.4.1-.4.6-1.3-.4-2.4M79.8 10s1-2.2 1.3-2.2 1.2 2.4 1.2 2.4 2 .2 2 .6c.2.5-1.5 1.6-1.5 1.6s.5 2.2.3 2.4-2.3-1.3-2.3-1.3-1.8 1.6-2.3 1.3.5-2.5.5-2.5-1.6-1.2-1.6-1.8 2.4-.4 2.4-.4" style="fill:#fff"/><circle cx="30.6" cy="104" r="7.3" style="fill:#455a64"/><path d="M32.4 105a2.3 2.3 0 0 1-3.6 0h-3a4.8 4.8 0 0 0 9.5 0z" style="fill:#607d8b"/><circle cx="49.9" cy="104" r="7.3" style="fill:#455a64"/><path d="M51.7 105a2.3 2.3 0 0 1-3.6 0h-2.9a4.8 4.8 0 0 0 9.4 0z" style="fill:#607d8b"/><path d="M49.8 106H31l-2.5-6.3H52z" style="fill:#455a64"/><circle cx="78.8" cy="104" r="7.3" style="fill:#455a64"/><path d="M80.6 105a2.3 2.3 0 0 1-3.6 0h-3a4.8 4.8 0 0 0 9.5 0z" style="fill:#607d8b"/><circle cx="98.2" cy="104" r="7.3" style="fill:#455a64"/><path d="M100 105a2.3 2.3 0 0 1-3.6 0h-3a4.8 4.8 0 0 0 9.5 0z" style="fill:#607d8b"/><path d="M98 106H79.2l-2.4-6.3h23.4z" style="fill:#455a64"/><path d="M17 46h94.1v52.9H17z" style="fill:#ffecb3"/><path d="M17 85.1h94.1v13H17z" style="fill:#ffca28"/><path d="M17 44.8h94c-1-4.6-5-6.8-10-6.8H27c-5 0-9 2.2-10 6.8" style="fill:#00796b"/><path d="M17 44.7h94.1v2.5H17z" style="fill:#004d40"/><path d="M111.7 103.3H16.3q-1.1 0-1.2-1.2v-2.8q0-1 1.2-1.2h95.4q1.1.1 1.2 1.2v2.8q0 1.1-1.2 1.2" style="fill:#82aec0"/><path d="M17 88.3h94.1v4.9H17z" style="fill:#e2a610"/><path d="M17 83.4h94.1v4.9H17z" style="fill:#4ca854"/><path d="M32.3 76.2h-9.9a1 1 0 0 1-1-1V63.3q.1-.9 1-1h9.9q.9.1 1 1v11.9q-.1 1-1 1" style="fill:#bae2fd"/><path d="M21.8 64v10.6q0 .7.7.7h9.7q.7 0 .7-.7V63.9q0-.6-.7-.7h-9.7q-.7 0-.7.7M32.5 77H22.3q-1.6-.2-1.7-1.8v-12c0-1 .7-1.9 1.6-1.9h10.3q1.5.2 1.6 1.8v12.1q-.1 1.6-1.6 1.8m-10.7-8.2v-1q0-.5.5-.5h10.1q.5 0 .5.5v1h.8v-2q0-.4-.5-.4H21.5q-.5 0-.5.5v2z" style="fill:#37474f"/><path d="M50.6 76.2h-9.8a1 1 0 0 1-1-1V63.3q0-.9 1-1h9.8q1 .1 1 1v11.9q0 1-1 1" style="fill:#bae2fd"/><path d="M40.2 64v10.6q0 .7.6.7h9.7q.7 0 .7-.7V63.9q0-.6-.7-.7h-9.7q-.5 0-.6.7M50.8 77H40.6q-1.6-.2-1.7-1.8v-12c0-1 .8-1.9 1.7-1.9h10.2q1.5.2 1.6 1.8v12.1q-.1 1.6-1.6 1.8" style="fill:#37474f"/><path d="M69 76.2H59a1 1 0 0 1-1-1V63.3q.1-.9 1-1h10q.9.1 1 1v11.9q-.1 1-1 1" style="fill:#bae2fd"/><path d="M58.5 64v10.6q0 .7.6.7H69q.5 0 .6-.7V63.9q0-.6-.6-.7H59q-.5 0-.6.7M69 77H59q-1.5-.2-1.6-1.8v-12c0-1 .7-1.9 1.6-1.9h10q1.6.2 1.7 1.8v12.1q-.2 1.6-1.7 1.8" style="fill:#37474f"/><path d="M87.3 76.2h-9.9a1 1 0 0 1-1-1V63.3q.1-.9 1-1h9.9q.9.1 1 1v11.9q-.1 1-1 1" style="fill:#bae2fd"/><path d="M76.8 64v10.6q0 .7.7.7h9.7q.5 0 .6-.7V63.9q0-.6-.6-.7h-9.7q-.7 0-.7.7M87.4 77H77.2q-1.5-.2-1.6-1.8v-12c0-1 .7-1.9 1.6-1.9h10.2q1.6.2 1.7 1.8v12.1q-.2 1.6-1.7 1.8" style="fill:#37474f"/><path d="M105.6 76.2h-9.9a1 1 0 0 1-1-1V63.3q.1-.9 1-1h9.9q.9.1 1 1v11.9q-.1 1-1 1" style="fill:#bae2fd"/><path d="M95.1 64v10.6q0 .7.7.7h9.7q.6 0 .7-.7V63.9q0-.6-.7-.7h-9.7q-.7 0-.7.7M105.8 77H95.5q-1.5-.2-1.6-1.8v-12c0-1 .7-1.9 1.6-1.9h10.2q1.6.2 1.7 1.8v12.1q-.1 1.6-1.7 1.8m-65.5-8.2v-1q0-.5.4-.5h10.1q.5 0 .5.5v1h.8v-2q0-.4-.4-.4H39.8q-.4 0-.5.5v2zm18.3 0v-1q0-.5.4-.5h10.2q.4 0 .4.5v1h.8v-2q0-.4-.4-.4H58q-.4 0-.4.5v2zm18.3 0v-1q0-.5.5-.5h10q.5 0 .5.5v1h.9v-2q-.1-.4-.5-.4H76.4q-.4 0-.4.5v2zm18.3 0v-1q0-.5.5-.5h10.1q.5 0 .5.5v1h.8v-2q0-.4-.5-.4H94.8q-.5 0-.5.5v2z" style="fill:#37474f"/><path d="M11.5 124h105c3.9 0 7.1-3 7.5-6.8v-.1H4a7.5 7.5 0 0 0 7.5 6.9M4 108.8h120v4.3H4z" style="fill:#757575"/><path d="M4 108.8h120v1.4H4z" style="fill:#dfecf5"/><path d="M123.6 119.2v-.3zM4 117q.1 1.2.5 2.2h119v-.3l.3-1.8z" style="fill:#424242"/><path d="M11.5 124h105q3.4-.1 5.5-2.5h-15l-5-1-6.5 2.2-15.1-2.4-14.5 2.4-3.7-1.2-4.6 1.2-5.8-2.4H39.4l-8.4 2.4-6.6-.8-5.5-1.6-13.5.5q2.2 3.1 6.1 3.2" style="fill:#9e9e9e"/><path d="M14 113.2H5.2q-1.1 0-1.2 1.2v2.6q0 1 1.2 1.2h8.6q1.1-.1 1.2-1.2v-2.6q0-1.1-1.2-1.2m18.2 0h-8.6q-1.1 0-1.2 1.2v2.6q0 1 1.2 1.2h8.7q1-.1 1.2-1.2v-2.6q-.1-1.1-1.2-1.2m18.1 0h-8.7q-1 0-1.2 1.2v2.6q.1 1 1.2 1.2h8.7q1.1-.1 1.2-1.2v-2.6q0-1.1-1.2-1.2m18.1 0h-8.6q-1.1 0-1.2 1.2v2.6q0 1 1.2 1.2h8.6q1.1-.1 1.2-1.2v-2.6q0-1.1-1.2-1.2m18.2 0h-8.7q-1.1 0-1.2 1.2v2.6q0 1 1.2 1.2h8.7q1-.1 1.2-1.2v-2.6q-.1-1.1-1.2-1.2m18.1 0h-8.7q-1 0-1.2 1.2v2.6q.1 1 1.2 1.2h8.7q1.1-.1 1.2-1.2v-2.6q0-1.1-1.2-1.2m18.1 0h-8.6q-1.1 0-1.2 1.2v2.6q0 1 1.2 1.2h8.6q1.1-.1 1.2-1.2v-2.6q0-1.1-1.2-1.2" style="fill:#784d30"/><path d="M13.3 115H5.7q-1 0-1 .7v1.7q0 .7 1 .8h7.6q.9-.1 1-.8v-1.7q-.1-.7-1-.7m109 0h-7.6q-.9 0-1 .7v1.7q.1.7 1 .8h7.6q1-.1 1-.8v-1.7q0-.7-1-.7m-18.2 0h-7.5q-1 0-1 .7v1.7q0 .7 1 .8h7.5q1-.1 1-.8v-1.7q0-.7-1-.7M86 115h-7.6q-1 0-1 .7v1.7q0 .7 1 .8H86q.9-.1 1-.8v-1.7q-.1-.7-1-.7m-18.2 0h-7.6q-1 0-1 .7v1.7q0 .7 1 .8h7.6q1-.1 1-.8v-1.7q0-.7-1-.7m-18.2 0H42q-.9 0-1 .7v1.7q.1.7 1 .8h7.6q1-.1 1-.8v-1.7q0-.7-1-.7m-18.2 0H24q-1 0-1 .7v1.7q0 .7 1 .8h7.5q1-.1 1-.8v-1.7q0-.7-1-.7" style="fill:#ba793e"/></svg>