<svg xml:space="preserve" width="16" height="16" viewBox="0 0 128 128"><path d="M97.1 59.4c2.2-1.9 15-9.8 22-16.5 5.6-5.2 7.7-18.8-.7-25.5-11-8.6-21.5.5-21.5.5s-1-5.2-7.4-8.2c-8-3.7-18.2-5.1-27.6-5a57 57 0 0 0-25 4.8c-6.6 3.3-7 8-7 8S21.2 9 10.5 15.9 2.8 36.3 8 42c6.7 7.4 14.8 11.2 18.4 14 3.7 2.7 7.2 5.3 7.2 7.7 0 2.3-1 2.8-1.5 2.7s-1-2.4-2.8-1.4c-2.5 1.3-1.7 6.8 3.3 7.3s6-4.7 6-4.7l.7-5.1 8 5.6 9 7.3-.3 6.3s-.4 4.8-2.7 9S47 99 47 99l-.1 3.8 32.9-.8-1-3.6s-4.3-4.7-6.8-9.7a22 22 0 0 1-2.2-7.2v-9l17-10.4s1.9 1.4 1.6 2c-.3.5-.3 5.8 3.8 7.8s7.3-.5 7-4c-.5-3.3-2.6-2.2-3.2-1.6-.7.5-2.1.6-2.5-1.4-.4-1.9 1.3-3.7 3.5-5.6M13 40.8l-4-12 4.8-6.1 5.3-1.5s6.8 5 7 5.4l4.3 8.8L36 55zm77 15.7 5-20.8c0-.3 3.5-1.9 3.5-2.2s6.4-10.7 6.4-10.7l10.6.4 2.2 10.5-5.3 8.7S89.9 57 89.9 56.5" style="fill:#fec417"/><path d="M120 30.6c-.9-9.3-10-11.5-13.9-10.2s-6.2 4-7 7.5q-1 4.6-2.2 5.2-1.5.3-1.7.2c-.2-.1 0-6.3 0-8.9 0-5.2 1.6-6.6 1.6-6.6s-.3-1.7-1-2.7-2-2.2-2-2.2.4 2.5-.9 3-2.6-.2-2.6-.2l1.3 5.2s-2 26.1-2.3 26.7l-7.8 13.9s-4.5 4.2-6.6 5.1c-2.2 1-4 3.5-12.3 3.6-8.2.1-15.3-6.4-15.3-6.4l-7-6.8L35 41.6l-.8-15.7.3-5.8.2-2.3-.3-1.3s-.7.7-2 .4c-1.2-.3-1.7-2-1.7-2l-.6 1.3-.2 1.3a7 7 0 0 0 1.7 3.4c.2 2-.1 10.5-1.6 10.3s-1-7.3-6.5-10c-4.8-2.3-12-1.6-14.9 4.3S8 38.4 17 44.9s18.8 12 20.4 17.2C39.2 68.3 35 72 35 72s3-.4 4.5-3.7c.5-1 .6-2.5.7-3.5a28 28 0 0 0 22.6 11.4h1.6q6.2-.2 11.3-2.7 7-3.4 11.1-9.3c0 .9.5 3.1 1.6 4.9 1.8 3.1 4.9 3.3 4.9 3.3s-4.3-2.5-3.4-8.6 4.9-8.1 10.9-12 19.8-11.8 19-21.2M21.2 44c-2.7-2-7.5-4.5-9.5-8.4-2.6-5.2-.4-11.5 4.5-12.2 10.4-1.8 10.6 11 11.3 12.6s2.6 1.6 2.6 1.6l.4 2.6v.3l.8 4.1v.1a47 47 0 0 0 2.4 7.9zm93.3-7.2c-2.2 3.4-6.5 6-9.7 8.2l-12 8.2a56 56 0 0 0 2.5-8c1-4.6 1.1-8.7 1.1-8.7s2 .5 3.3-.8 1.8-5.6 3-7.6c1.8-3.1 5.5-6.3 11-2.4 3.2 2.2 3.3 7 .8 11m-54 42.6h5.7s.1 6.1 1 10.7l2 9.7s-11.4 3.9-11.3-.3 1.7-12.2 1.7-12.2zM51 15.2s6.3-.7 12.2-.6S75 15.8 75 15.8s-.3 19.6-1.4 30.6-5.2 19.2-6.3 21.5l-1.8 3.5-5.7-.7-9.7-19.5z" style="fill:#ffa828"/><path d="M43.5 18.1s1.8-.9 4.3-1.8c2.4-1 4.5-1.2 4.5-1.2l.2 22.3a99 99 0 0 0 4.6 24.2c1.4 3.5 4 8.8 4 8.8s-5.2-.8-8.4-4.8c-1.6-2.1-9.5-18.5-9.7-29.3s.8-18.4.5-18.2" style="fill:#ffefab"/><path d="M40.6 19.6a68 68 0 0 0 8.2 42.3q2.9 3.7 4 3.7c1 0-3-8.6-4.7-15.3s-2.6-14.8-2.7-18.8L45 17.2l-2.4 1.2z" style="fill:#fffcfd"/><path d="M53.3 99s3.9-6.2 4.7-10.9 1.2-8.8 1.2-8.8h2.4L61 90.9c-.3 4.6-1.1 9.1-1.1 9.1z" style="fill:#ffefab"/><path d="M56.3 75.4s1.7-1.7 6.6-1.7 7 1.8 7 1.8l.1 6s-3.2-1-7.2-1c-3.3 0-6.8 1.2-6.8 1.2zM35 15.7c.8-.7 8.7-6.6 27.3-6.8 20-.2 27.5 5.6 28 6 .5.3 1.1 1.9.9 2.6s-.8 1-2.3.4-9-6.1-26.9-5.5c-17.2.5-24.5 5.7-25.2 6.2-.6.3-1.8.4-2.3-.3-.6-.7 0-2 .5-2.6m56.2 4.2c-2.3.2-.7 18.7-5.6 30.3-5.2 12.4-11.9 16-11.6 16.6.3.8 6.8-1.2 10.9-7A38 38 0 0 0 92 43.2c1-6.4 1.6-23.5-1-23.3M34.5 22c-.6 0 0 9.2-1 13.3-.3 1.5-1.2 1.9-1.3 2.2 0 .4 2 12.2 5.4 17.5 3.2 5 9.7 11.3 10.8 10.2 1-1-4.7-4.6-8.6-12.3-2.2-4.4-4.5-11-4.6-18.7 0-5 .5-12.1-.7-12.2" style="fill:#d1701c"/><path d="M86.8 112.7V98.4h-46c.2 0 .1 11.6.1 14.4h-6.5V123h58.2v-10.3z" style="fill:#865c50"/><path d="M55.6 106c-1.1-.1-2.4.1-2.5 1.5v6.2q-.1 1.3 2.2 1.5h17.4c1 0 1.6-.9 1.6-1.8v-5.7c0-1.7-1.5-1.7-2.6-1.7z" style="fill:#fcc219"/></svg>