<svg xml:space="preserve" width="16" height="16" viewBox="0 0 128 128"><linearGradient id="a" x1="74.7" x2="73.4" y1="227.6" y2="253.4" gradientUnits="userSpaceOnUse"><stop offset="0" style="stop-color:#484d51"/><stop offset=".4" style="stop-color:#424548"/><stop offset=".9" style="stop-color:#343434"/></linearGradient><path d="M84.2 227.4 64 233.3l2.8 15.1c.7 4 1 7.5.7 8.8-.4 1.2-4 3.7-3.3 6 .7 2.4 6.3 3 12.2 2.2s6.9-2.8 7-6c0-3.1-2.1-8.8-1.8-10.3s2.6-5 3-8.7-.4-13-.4-13" style="fill:url(#a)"/><linearGradient id="b" x1="28.5" x2="25.1" y1="195.2" y2="248.7" gradientUnits="userSpaceOnUse"><stop offset="0" style="stop-color:#484d51"/><stop offset=".4" style="stop-color:#424548"/><stop offset=".9" style="stop-color:#343434"/></linearGradient><path d="m40.3 206-18.7-25s-7.5 3-8 13.9 2.5 17 2.2 21.3c-.3 4.5-4.2 8.7-3.9 15.7s4.2 17.3 4.2 19-.6 11.3 1.6 13.4c2 1.8 6.6 2.3 10.6 2s8.5-1.1 8.5-4.3-5.3-2.7-5.7-4.4c-.3-.8.6-1.2 1-3.2.3-1.1 0-2.7 0-2.7s7.2-10 8.6-16.9-2.5-13.6-2.7-15.8a89 89 0 0 1 2.3-13.2" style="fill:url(#b)"/><linearGradient id="c" x1="70" x2="69.6" y1="143.1" y2="161.3" gradientUnits="userSpaceOnUse"><stop offset=".2" style="stop-color:#a9a9a9"/><stop offset=".3" style="stop-color:#929394"/><stop offset=".4" style="stop-color:#7b7e7f"/><stop offset=".6" style="stop-color:#6a6e71"/><stop offset=".8" style="stop-color:#606568"/><stop offset="1" style="stop-color:#5d6265"/></linearGradient><path d="M28.6 198.3c-1-1.6-5-1.5-7.8-6a12 12 0 0 1-1-12c1.3-2.2 2.8-3 2.8-3l.1-2.2s-2.3-1.4-2.6-4.6c-.2-3.2.9-4.7 3.9-7.1s5.7-4.2 5.7-4.2-.3-2.9.5-4.7 4.3-6 10.6-6 11.2 3.9 15 7.9c3.7 4 4.1 7.5 4 8.5s-3.1 5.5-3.1 5.5l7.3 9.4 16.3 9.4 12.2 16.1 14.9 12.3 4.1 19.3s4.3 4.5 5.6 10.7 1.5 15.3-.7 16.8a24 24 0 0 1-15.4 3.8c-6.7-.3-6.5-1.8-6.4-3 .2-1.5 4.5-5.6 5-6.3.5-.6.3-7.2-1.2-8.2-1.6-1-4.5-1.3-8-5.7-3.7-4.3-4.6-10.5-4.6-10.5s-3.5 1.3-7.7 1.4c-5.8.1-14-2.7-14-2.7s-17.5-7.6-21.6-12.9q-4.4-5.9-4.2-6.1c.2-.2-3.9-1.8-6.7-7.3s-2-7-3-8.6" style="fill:url(#c)"/><path d="M43.2 171.4c.2-1.6 1-2.7-.9-3.9-2-1.1-8.9-.7-11.8-.6s-8.5 0-8 2.3q0 1.1 1 2.5c2.6 2.3 7.5 2.7 7.5 2.7z" style="fill:#44494e"/><path d="M30.5 172.3c1 .2 2-4.3 8-4S46 172 46 172s-4.9 7-6.8 11.6c-2 4.5-3.8 10.2-4.8 10.6-1.1.3-6.7-.1-10.2-3a9 9 0 0 1-3.5-8.7 7 7 0 0 1 1.8-3.3c.3-.4 2.1 2 3.2 1.5q1.4-.7.5-1.6l-2.2-1.6s.9-1.4 2.1-.8c1 .5 2.2 2.1 2.2 2.1s2-2 2.8-2.2c1.4-.3 2.3 1.1 2.3 1.1s-3 1-3.3 1.8c-.4.9.3 2 2.4 1.2l3-1.1s0-3.3-3.1-4.1c-2.2-.7-4 1.6-4 1.6s-1.4-1.4-2.2-1.6q-1.2-.2-1.4 0c-.2.1-1-2.3-1.4-3.3l-.7-2.6s2.2-.9 4.2 0 2.8 2.4 3.7 2.6" style="fill:#aeaeaf"/><path d="M35.7 172.1c-.9 1-1.1 2.5-.2 3.2q1.7 1 3.2-.5c.8-1 1-2.5.2-3q-1.2-1-3.2.3m-7.7 2.7c-.9.8-2 0-2.5-.6-.6-.8-.8-2-.5-2.6.4-.5 1.7-.7 2.5.2 1 .8 1.3 2.3.5 3m-.4 10.8h5.7c.4-.1 1.3-.6 2.3 0s.8 2.2-.6 2.2q-1.9-.1-1.7-.2c.2 0-2 .5-5.8.1-3.4-.2-4.7-1-4.7-1s-1.6.6-2-.6c-.2-1.1.8-1.9 1.8-1.5s2 1 5 1"/><linearGradient id="d" x1="95.7" x2="100.2" y1="195.7" y2="248.5" gradientUnits="userSpaceOnUse"><stop offset=".2" style="stop-color:#a9a9a9"/><stop offset=".3" style="stop-color:#a2a3a3"/><stop offset=".6" style="stop-color:#8f9192"/><stop offset=".9" style="stop-color:#707476"/><stop offset="1" style="stop-color:#5d6265"/></linearGradient><path d="M84.4 214.8c1.3 2.6 4.4 5.6 6.6 5s2.6-1.6 4.3-2.4c1.7-.9 3.3-.7 3.3-.7s-2.7 3.3-3.4 6.6-2 12.5 4.2 16.5 12.2-2.8 12.2-2.8 1.7-11.1.5-18.8-5.3-14.8-9-17c-2.4-1.4-3.7-1-6.9-2-2.6-.9-6.7-2.8-9.5-4.9-2.9-2-6-4.4-6-4.4.2-.6 3 7.8 2.9 13 0 3.5-.4 9.4.8 12" style="fill:url(#d)"/><path d="M81.3 190.4s1.4 9 .9 15.4c-.6 6.7-4.7 10.9-4.9 12.5-.3 2.7-1.8 16.6-4.7 17.4-4 1-12.3-24.3-12.3-24.3z" style="fill:#44494e"/><path d="m54.8 173.5 2.7-1.2c1.1-.6 2-1.8 2-1.8s6.4-1.1 12.8 4.7c6.3 5.8 10.1 13 8.6 24.1s-6.2 18-6.2 18 .6 9.2-1.3 15.7-9.7 19.9-10 23.4 4 4.2 5.2 7.2c1 2.7-.8 4.8-7 5s-13 .2-13.2-2.6c-.5-4.8 3-5.6 2.8-11.4s-4.3-12-4.9-21c-.5-9.2 1.3-12 1.3-12s-.6-12.8 1.1-21.3 7.9-15.3 7.6-19.6-1.5-7.2-1.5-7.2" style="fill:#5d6265"/><radialGradient id="e" cx="56.6" cy="201.5" r="29.2" gradientTransform="rotate(-14 -994.3 330.67)scale(1 2.282)" gradientUnits="userSpaceOnUse"><stop offset=".3" style="stop-color:#959ea1;stop-opacity:0"/><stop offset=".9" style="stop-color:#959ea1"/></radialGradient><path d="M56.4 175.1c1-2.4 1.6-3 4-3.2 4.7-.3 10 4.4 12.3 8.1l-4.7-.4c5.4 3.2 8.3 6.2 9.6 15.5a27 27 0 0 0-5.3-3.5s5.3 10 1.7 18c-.7-1.6-3-8.3-3.8-9.9 1.8 14.7-2.8 18.5-7.2 23.1-.3.3-17.7-19.1-6.6-47.7" style="fill:url(#e)"/><linearGradient id="f" x1="41.3" x2="47.3" y1="212.3" y2="198" gradientUnits="userSpaceOnUse"><stop offset="0" style="stop-color:#484d51"/><stop offset=".4" style="stop-color:#424548"/><stop offset="1" style="stop-color:#343434"/></linearGradient><path d="M52.7 191q-.1-.5-.5-.3c-3.4 4.4-9.6 6.7-15 7.5q-.5 0-.8.3c-1 1.3 5.1 2.5 10.4 1.6-1 2.8 1 6.5 2 9.3 1.5 4-1.1 9.5.4 8.6 1.5-.8 1.7-4.2 2.2-6.5.5-2.4 0-6.5-.1-9-.1-4.6.6-7 1.4-11.6" style="fill:url(#f)"/><linearGradient id="g" x1="56.6" x2="51.7" y1="164.7" y2="176.4" gradientUnits="userSpaceOnUse"><stop offset="0" style="stop-color:#484d51"/><stop offset=".4" style="stop-color:#424548"/><stop offset="1" style="stop-color:#343434"/></linearGradient><path d="m56.4 175.1 1-2c.9-1.4 3.1-2.4 3.1-6 0-3-1.7-6.3-1.7-6.3s-.8 5.7-2.4 7a9 9 0 0 1-5.5 1.9c-.4 0-1.4-.2-1.8.1-.9.5-.3 2 .1 2.6q1 1.1 2 1.9c2 1.9 3 4 3.6 5.5q.6-2.2 1.6-4.7" style="fill:url(#g)"/><linearGradient id="h" x1="74.7" x2="73.4" y1="388" y2="413.8" gradientUnits="userSpaceOnUse"><stop offset="0" style="stop-color:#484d51"/><stop offset=".4" style="stop-color:#424548"/><stop offset=".9" style="stop-color:#343434"/></linearGradient><path d="m84.2 387.8-20.2 6 2.8 15c.7 4 1 7.5.7 8.8-.4 1.2-4 3.7-3.3 6 .7 2.5 6.3 3 12.2 2.3s6.9-2.9 7-6c0-3.2-2.1-8.9-1.8-10.4s2.6-5 3-8.6-.4-13-.4-13" style="fill:url(#h)"/><linearGradient id="i" x1="28.5" x2="25.1" y1="355.7" y2="409.2" gradientUnits="userSpaceOnUse"><stop offset="0" style="stop-color:#484d51"/><stop offset=".4" style="stop-color:#424548"/><stop offset=".9" style="stop-color:#343434"/></linearGradient><path d="m40.3 366.4-18.7-24.8s-7.5 3-8 13.8 2.5 17 2.2 21.4-4.2 8.7-3.9 15.7 4.2 17.2 4.2 19c0 1.6-.6 11.3 1.6 13.3 2 1.9 6.6 2.3 10.6 2s8.5-1.1 8.5-4.2c0-3.2-5.3-2.8-5.7-4.5-.3-.8.6-1.2 1-3.2.3-1 0-2.7 0-2.7s7.2-9.9 8.6-16.8c1.5-7-2.5-13.6-2.7-15.8s2.3-13.2 2.3-13.2" style="fill:url(#i)"/><linearGradient id="j" x1="70" x2="69.6" y1="303.5" y2="321.7" gradientUnits="userSpaceOnUse"><stop offset=".2" style="stop-color:#a9a9a9"/><stop offset=".3" style="stop-color:#929394"/><stop offset=".4" style="stop-color:#7b7e7f"/><stop offset=".6" style="stop-color:#6a6e71"/><stop offset=".8" style="stop-color:#606568"/><stop offset="1" style="stop-color:#5d6265"/></linearGradient><path d="M28.6 358.7c-1-1.6-5-1.4-7.8-6s-2.4-9.3-1-12c1.3-2.2 2.8-3 2.8-3l.1-2.1s-2.3-1.4-2.6-4.7.9-4.7 3.9-7l5.7-4.2s-.3-3 .5-4.8 4.3-6 10.6-6 11.2 4 15 8 4.1 7.5 4 8.4-3.1 5.6-3.1 5.6l7.3 9.3 16.3 9.5 12.2 16 14.9 12.4 4.1 19.2s4.3 4.5 5.6 10.7 1.5 15.3-.7 16.8a24 24 0 0 1-15.4 3.8c-6.7-.2-6.5-1.7-6.4-3 .2-1.5 4.5-5.6 5-6.2s.3-7.3-1.2-8.2c-1.6-1-4.5-1.4-8-5.7-3.7-4.4-4.6-10.5-4.6-10.5s-3.5 1.2-7.7 1.3c-5.8.1-14-2.6-14-2.6s-17.5-7.6-21.6-13q-4.4-5.8-4.2-6c.2-.3-3.9-1.8-6.7-7.4-2.8-5.5-2-7-3-8.6" style="fill:url(#j)"/><path d="M43.2 331.8c.2-1.6 1-2.7-.9-3.8-2-1.2-8.9-.8-11.8-.7s-8.5 0-8 2.4c.1.6.2 1.7 1 2.4 2.6 2.4 7.5 2.7 7.5 2.7z" style="fill:#44494e"/><path d="M30.5 332.7c1 .2 2-4.2 8-4s7.4 3.8 7.4 3.8-4.9 7-6.8 11.6c-2 4.5-3.8 10.3-4.8 10.6-1.1.4-6.7-.1-10.2-3a9 9 0 0 1-3.5-8.6 7 7 0 0 1 1.8-3.4c.3-.3 2.1 2 3.2 1.5q1.4-.7.5-1.5c-.4-.5-2.2-1.7-2.2-1.7s.9-1.3 2.1-.8c1 .5 2.2 2.1 2.2 2.1s2-2 2.8-2.2c1.4-.2 2.3 1.1 2.3 1.1s-3 1-3.3 1.9c-.4.8.3 2 2.4 1.2l3-1.2s0-3.3-3.1-4.1c-2.2-.6-4 1.6-4 1.6s-1.4-1.4-2.2-1.6h-1.4c-.2 0-1-2.2-1.4-3.3l-.7-2.5s2.2-1 4.2-.1c2.1.8 2.8 2.5 3.7 2.6" style="fill:#aeaeaf"/><path d="M35.7 332.6c-.9.8-1.1 2.4-.2 3.1q1.7 1 3.2-.5c.8-1 1-2.5.2-3q-1.2-1-3.2.4m-7.7 2.6c-.9.8-2 0-2.5-.5-.6-.9-.8-2.1-.5-2.6s1.7-.7 2.5 0c1 .9 1.3 2.4.5 3.1m-.4 10.8c3.4.2 4.8 0 5.7 0 .4 0 1.3-.6 2.3 0s.8 2.2-.6 2.3q-1.9-.2-1.7-.3c.2 0-2 .5-5.8.2-3.4-.3-4.7-1-4.7-1s-1.6.6-2-.6c-.2-1.2.8-2 1.8-1.5.9.3 2 .9 5 1"/><linearGradient id="k" x1="95.7" x2="100.2" y1="356.2" y2="409" gradientUnits="userSpaceOnUse"><stop offset=".2" style="stop-color:#a9a9a9"/><stop offset=".3" style="stop-color:#a2a3a3"/><stop offset=".6" style="stop-color:#8f9192"/><stop offset=".9" style="stop-color:#707476"/><stop offset="1" style="stop-color:#5d6265"/></linearGradient><path d="M84.4 375.3c1.3 2.6 4.4 5.5 6.6 5s2.6-1.6 4.3-2.5 3.3-.7 3.3-.7-2.7 3.3-3.4 6.6c-.6 3.4-2 12.5 4.2 16.6 6.2 4 12.2-2.9 12.2-2.9s1.7-11.1.5-18.8-5.3-14.8-9-16.9c-2.4-1.4-3.7-1-6.9-2-2.6-1-6.7-2.8-9.5-5l-6-4.3c.2-.6 3 7.8 2.9 13 0 3.4-.4 9.4.8 11.9" style="fill:url(#k)"/><path d="M81.3 350.9s1.4 9 .9 15.4c-.6 6.6-4.7 10.8-4.9 12.4-.3 2.7-1.8 16.7-4.7 17.4-4 1-12.3-24.2-12.3-24.2z" style="fill:#44494e"/><path d="m54.8 334 2.7-1.3c1.1-.6 2-1.7 2-1.7s6.4-1.2 12.8 4.6c6.3 5.8 10.1 13 8.6 24.2s-6.2 17.9-6.2 17.9.6 9.3-1.3 15.7c-1.9 6.5-9.7 19.9-10 23.4s4 4.3 5.2 7.3c1 2.6-.8 4.7-7 4.8-6.4.2-13 .4-13.2-2.4-.5-4.8 3-5.7 2.8-11.5s-4.3-11.9-4.9-21 1.2-11.9 1.2-11.9-.5-12.8 1.2-21.4 7.9-15.3 7.6-19.6a25 25 0 0 0-1.5-7.2" style="fill:#5d6265"/><linearGradient id="l" x1="41.3" x2="47.3" y1="372.8" y2="358.4" gradientUnits="userSpaceOnUse"><stop offset="0" style="stop-color:#484d51"/><stop offset=".4" style="stop-color:#424548"/><stop offset="1" style="stop-color:#343434"/></linearGradient><path d="M52.7 351.4q-.1-.5-.5-.2c-3.4 4.3-9.6 6.6-15 7.4q-.5 0-.8.4c-1 1.3 5.1 2.5 10.4 1.5-1 2.8 1 6.5 2 9.3 1.5 4.1-1.1 9.5.4 8.7s1.7-4.3 2.2-6.6c.5-2.4 0-6.5-.1-9-.1-4.5.6-7 1.4-11.5" style="fill:url(#l)"/><linearGradient id="m" x1="56.6" x2="51.7" y1="325.1" y2="336.8" gradientUnits="userSpaceOnUse"><stop offset="0" style="stop-color:#484d51"/><stop offset=".4" style="stop-color:#424548"/><stop offset="1" style="stop-color:#343434"/></linearGradient><path d="m56.4 335.6 1-2.1c.9-1.3 3.1-2.4 3.1-6 0-3-1.7-6.3-1.7-6.3s-.8 5.7-2.4 7a9 9 0 0 1-5.5 2c-.4 0-1.4-.2-1.8 0-.9.6-.3 2 .1 2.7l2 1.8q2.9 3 3.6 5.5z" style="fill:url(#m)"/><linearGradient id="n" x1="75.7" x2="74.4" y1="-278.1" y2="-252.3" gradientUnits="userSpaceOnUse"><stop offset="0" style="stop-color:#484d51"/><stop offset=".4" style="stop-color:#424548"/><stop offset=".9" style="stop-color:#343434"/></linearGradient><path d="m85.2-278.3-20.2 6 2.8 15c.7 4 1 7.5.7 8.8-.4 1.2-4 3.7-3.3 6 .7 2.4 6.3 3 12.2 2.3s6.9-2.9 7-6-2.1-8.9-1.8-10.4 2.6-5 3-8.6-.4-13-.4-13" style="fill:url(#n)"/><linearGradient id="o" x1="29.5" x2="26.1" y1="-310.4" y2="-257" gradientUnits="userSpaceOnUse"><stop offset="0" style="stop-color:#484d51"/><stop offset=".4" style="stop-color:#424548"/><stop offset=".9" style="stop-color:#343434"/></linearGradient><path d="m41.3-299.7-18.7-24.9s-7.5 3-8 13.9 2.5 17 2.2 21.4-4.2 8.7-3.9 15.7 4.2 17.2 4.2 19c0 1.6-.6 11.2 1.6 13.3 2 1.8 6.6 2.3 10.6 2s8.5-1.1 8.5-4.3-5.3-2.7-5.7-4.4c-.3-.8.6-1.2 1-3.2.3-1 0-2.7 0-2.7s7.2-10 8.6-16.8c1.5-7-2.5-13.7-2.7-15.9-.3-2.1 2.3-13.1 2.3-13.1" style="fill:url(#o)"/><linearGradient id="p" x1="71" x2="70.6" y1="-362.6" y2="-344.4" gradientUnits="userSpaceOnUse"><stop offset=".2" style="stop-color:#a9a9a9"/><stop offset=".3" style="stop-color:#929394"/><stop offset=".4" style="stop-color:#7b7e7f"/><stop offset=".6" style="stop-color:#6a6e71"/><stop offset=".8" style="stop-color:#606568"/><stop offset="1" style="stop-color:#5d6265"/></linearGradient><path d="M29.6-307.4c-1-1.6-5-1.4-7.8-6a12 12 0 0 1-1-12c1.3-2.2 2.8-3 2.8-3l.1-2.1s-2.3-1.5-2.6-4.7.9-4.7 3.9-7l5.7-4.2s-.3-3 .5-4.8c.8-1.9 4.3-6 10.6-6s11.2 4 15 8 4.1 7.5 4 8.4-3.1 5.6-3.1 5.6L65-326l16.3 9.4 12.2 16.1 14.9 12.4 4.1 19.2s4.3 4.5 5.6 10.7 1.5 15.3-.7 16.8a24 24 0 0 1-15.4 3.8c-6.7-.3-6.5-1.8-6.4-3 .2-1.5 4.5-5.6 5-6.3s.3-7.2-1.2-8.2c-1.6-.9-4.5-1.3-8-5.7-3.7-4.3-4.6-10.4-4.6-10.4s-3.5 1.2-7.7 1.3c-5.8.1-14-2.6-14-2.6s-17.5-7.6-21.6-12.9q-4.4-5.9-4.3-6.1c.1-.2-3.8-1.8-6.6-7.4-2.8-5.5-2-7-3-8.6" style="fill:url(#p)"/><path d="M44.2-334.3c.2-1.6 1-2.7-.9-3.8-2-1.2-8.9-.8-11.8-.7s-8.5 0-8 2.4c.1.5.2 1.6 1 2.4 2.6 2.4 7.5 2.7 7.5 2.7z" style="fill:#44494e"/><path d="M31.5-333.4c1 .2 2-4.3 8-4s7.4 3.8 7.4 3.8-4.9 7-6.8 11.6c-2 4.5-3.8 10.2-4.8 10.6-1.1.4-6.7-.1-10.2-3a9 9 0 0 1-3.5-8.6 7 7 0 0 1 1.8-3.4c.3-.4 2.1 2 3.2 1.5q1.4-.6.5-1.6L25-328s.9-1.3 2.1-.8c1 .5 2.2 2.1 2.2 2.1s2-2 2.8-2.2c1.4-.2 2.3 1.1 2.3 1.1s-3 1-3.3 1.8c-.4.9.3 2 2.4 1.3l3-1.2s0-3.3-3.1-4.1c-2.2-.6-4 1.6-4 1.6s-1.4-1.4-2.2-1.6q-1.2-.2-1.4 0c-.2.1-1-2.2-1.4-3.3l-.7-2.5s2.2-1 4.2-.1c2.1.8 2.8 2.4 3.7 2.6" style="fill:#aeaeaf"/><path d="M36.7-333.5c-.9.8-1.1 2.4-.2 3.1q1.7 1 3.2-.5c.8-1 1-2.5.2-3q-1.2-1-3.2.3M29-331c-.9.9-2 .1-2.5-.4-.6-.9-.8-2.1-.5-2.6s1.7-.8 2.5 0c1 .9 1.3 2.4.5 3m-.4 11 5.7-.1c.4 0 1.3-.6 2.3 0s.8 2.2-.6 2.3q-1.9-.2-1.7-.3c.2 0-2 .5-5.8.2-3.4-.3-4.7-1-4.7-1s-1.6.6-2-.6c-.2-1.2.8-2 1.8-1.5.9.3 2 .9 5 1"/><linearGradient id="q" x1="96.7" x2="101.2" y1="-309.9" y2="-257.2" gradientUnits="userSpaceOnUse"><stop offset=".2" style="stop-color:#a9a9a9"/><stop offset=".3" style="stop-color:#a2a3a3"/><stop offset=".6" style="stop-color:#8f9192"/><stop offset=".9" style="stop-color:#707476"/><stop offset="1" style="stop-color:#5d6265"/></linearGradient><path d="M85.4-290.9c1.3 2.6 4.4 5.6 6.6 5s2.6-1.6 4.3-2.4c1.7-.9 3.3-.7 3.3-.7s-2.7 3.3-3.4 6.6-2 12.5 4.2 16.6 12.2-2.9 12.2-2.9 1.7-11.1.5-18.8-5.3-14.8-9-17c-2.4-1.3-3.7-1-6.9-2-2.6-.9-6.7-2.8-9.5-4.8l-6-4.5c.2-.5 3 7.8 2.9 13 0 3.5-.4 9.4.8 12" style="fill:url(#q)"/><path d="M82.3-315.2s1.4 9 .9 15.3c-.6 6.7-4.7 10.9-4.9 12.5-.3 2.7-1.8 16.7-4.7 17.4-4 1-12.3-24.2-12.3-24.2z" style="fill:#44494e"/><path d="m55.8-332.2 2.7-1.2c1.1-.6 2-1.7 2-1.7s6.4-1.2 12.8 4.6c6.3 5.8 10.1 13 8.6 24.2s-6.2 17.8-6.2 17.8.6 9.4-1.3 15.8-9.7 19.9-10 23.4 4 4.2 5.2 7.2c1 2.7-.8 4.8-7 5s-13 .3-13.2-2.6c-.5-4.7 3-5.6 2.8-11.4s-4.3-11.9-4.9-21c-.5-9.1 1.3-11.9 1.3-11.9s-.6-12.8 1.1-21.4 7.9-15.3 7.6-19.6-1.5-7.2-1.5-7.2" style="fill:#5d6265"/><linearGradient id="r" x1="42.4" x2="49" y1="-293.5" y2="-309.4" gradientUnits="userSpaceOnUse"><stop offset="0" style="stop-color:#484d51"/><stop offset=".4" style="stop-color:#424548"/><stop offset="1" style="stop-color:#343434"/></linearGradient><path d="M54.1-314.6v-.2q.5-1.2.5-2.4 0-.3-.3-.5l-.6.1c-1.2.7-1.6 2.2-2.3 3.3q-1.5 2.4-4 3.9a26 26 0 0 1-9.2 3q-.5 0-.8.2c-1 1.3 5 2.5 10.4 1.6-1 2.8 1 6.5 2 9.3.7 1.9.5 4 .2 5.8 0 .4-.8 3.1.1 3.1.4 0 .8-1.5 1-1.8l1.5-3q1.2-2.9 1-6.1c-.3-2.1-1-4.2-1.1-6.3-.4-3.4.5-6.8 1.6-10" style="fill:url(#r)"/><linearGradient id="s" x1="57.5" x2="51.9" y1="-340.5" y2="-327.3" gradientUnits="userSpaceOnUse"><stop offset="0" style="stop-color:#484d51"/><stop offset=".4" style="stop-color:#424548"/><stop offset="1" style="stop-color:#343434"/></linearGradient><path d="m57.4-330.6 1-2c.9-1.3 3.1-2.4 3.1-6 0-3-1.7-6.3-1.7-6.3s-.8 5.7-2.4 7a9 9 0 0 1-5.5 2c-4.1 0-1.5 3 .1 5q2.7 3.3 3.6 7.5c1-2.2.8-4.9 1.8-7.2" style="fill:url(#s)"/><linearGradient id="t" x1="74.7" x2="73.4" y1="-117.5" y2="-91.7" gradientUnits="userSpaceOnUse"><stop offset="0" style="stop-color:#484d51"/><stop offset=".4" style="stop-color:#424548"/><stop offset=".9" style="stop-color:#343434"/></linearGradient><path d="M84.2-117.7 64-111.8l2.8 15c.7 4 1 7.6.7 8.8s-4 3.7-3.3 6.1 6.3 3 12.2 2.2 6.9-2.8 7-6-2.1-8.8-1.8-10.3c.3-1.6 2.6-5 3-8.7.2-3.7-.4-13-.4-13" style="fill:url(#t)"/><linearGradient id="u" x1="28.5" x2="25.1" y1="-149.9" y2="-96.4" gradientUnits="userSpaceOnUse"><stop offset="0" style="stop-color:#484d51"/><stop offset=".4" style="stop-color:#424548"/><stop offset=".9" style="stop-color:#343434"/></linearGradient><path d="M40.3-139.2 21.6-164s-7.5 3-8 13.8 2.5 17 2.2 21.4-4.2 8.7-3.9 15.7 4.2 17.3 4.2 19-.6 11.3 1.6 13.3c2 1.9 6.6 2.4 10.6 2 4-.2 8.5-1 8.5-4.2s-5.3-2.7-5.7-4.4c-.3-.8.6-1.2 1-3.2.3-1.1 0-2.8 0-2.8s7.2-9.9 8.6-16.8-2.5-13.6-2.7-15.8 2.3-13.2 2.3-13.2" style="fill:url(#u)"/><linearGradient id="v" x1="70" x2="69.6" y1="-202" y2="-183.8" gradientUnits="userSpaceOnUse"><stop offset=".2" style="stop-color:#a9a9a9"/><stop offset=".3" style="stop-color:#929394"/><stop offset=".4" style="stop-color:#7b7e7f"/><stop offset=".6" style="stop-color:#6a6e71"/><stop offset=".8" style="stop-color:#606568"/><stop offset="1" style="stop-color:#5d6265"/></linearGradient><path d="M28.6-146.9c-1-1.6-5-1.4-7.8-5.9a12 12 0 0 1-1-12c1.3-2.3 2.8-3 2.8-3l.1-2.2s-2.3-1.4-2.6-4.6c-.2-3.2.9-4.7 3.9-7.1s5.7-4.2 5.7-4.2-.3-2.9.5-4.8 4.3-5.9 10.6-5.9 11.2 3.9 15 7.9 4.1 7.5 4 8.5-3.1 5.5-3.1 5.5l7.3 9.4 16.3 9.4 12.2 16 14.9 12.4 4.1 19.3s4.3 4.5 5.6 10.7 1.5 15.2-.7 16.7a24 24 0 0 1-15.4 3.9c-6.7-.3-6.5-1.8-6.4-3 .2-1.5 4.5-5.6 5-6.3.5-.6.3-7.3-1.2-8.2-1.6-1-4.5-1.3-8-5.7-3.7-4.4-4.6-10.5-4.6-10.5s-3.5 1.3-7.7 1.4c-5.8 0-14-2.7-14-2.7s-17.5-7.6-21.6-12.9q-4.4-5.9-4.2-6.1c.2-.2-3.9-1.8-6.7-7.4-2.8-5.5-2-7-3-8.6" style="fill:url(#v)"/><path d="M43.2-173.7c.2-1.6 1-2.8-.9-3.9-2-1.1-8.9-.8-11.8-.6-3 .1-8.5 0-8 2.3.1.6.2 1.7 1 2.5 2.6 2.3 7.5 2.6 7.5 2.6z" style="fill:#44494e"/><path d="M30.5-172.8c1 .2 2-4.3 8-4S46-173 46-173s-4.9 7-6.8 11.5c-2 4.6-3.8 10.3-4.8 10.7a16 16 0 0 1-10.2-3 9 9 0 0 1-3.5-8.7 7 7 0 0 1 1.8-3.3c.3-.4 2.1 1.9 3.2 1.5q1.4-.8.5-1.6c-.4-.5-2.2-1.7-2.2-1.7s.9-1.3 2.1-.7c1 .5 2.2 2 2.2 2s2-2 2.8-2.1c1.4-.3 2.3 1 2.3 1s-3 1-3.3 1.9c-.4.9.3 2 2.4 1.2l3-1.2s0-3.2-3.1-4c-2.2-.7-4 1.5-4 1.5s-1.4-1.3-2.2-1.5q-1.2-.3-1.4-.1c-.2.2-1-2.2-1.4-3.2l-.7-2.6s2.2-.9 4.2 0 2.8 2.4 3.7 2.6" style="fill:#aeaeaf"/><path d="M35.7-173c-.9.9-1.1 2.5-.2 3.2q1.7 1 3.2-.6c.8-1 1-2.4.2-3q-1.2-1-3.2.4m-7.7 2.6c-.9.8-2 0-2.5-.5-.6-.8-.8-2-.5-2.6.4-.5 1.7-.7 2.5.1 1 .8 1.3 2.4.5 3m-.4 10.9c3.4.1 4.8 0 5.7-.1.4 0 1.3-.6 2.3 0s.8 2.2-.6 2.3q-1.9-.1-1.7-.2c.2-.1-2 .4-5.8.1-3.4-.3-4.7-1-4.7-1s-1.6.6-2-.6c-.2-1.2.8-2 1.8-1.5s2 1 5 1"/><linearGradient id="w" x1="95.7" x2="100.2" y1="-149.4" y2="-96.6" gradientUnits="userSpaceOnUse"><stop offset=".2" style="stop-color:#a9a9a9"/><stop offset=".3" style="stop-color:#a2a3a3"/><stop offset=".6" style="stop-color:#8f9192"/><stop offset=".9" style="stop-color:#707476"/><stop offset="1" style="stop-color:#5d6265"/></linearGradient><path d="M84.4-130.3c1.3 2.6 4.4 5.5 6.6 5s2.6-1.6 4.3-2.5 3.3-.7 3.3-.7-2.7 3.3-3.4 6.7-2 12.4 4.2 16.5 12.2-2.8 12.2-2.8 1.7-11.2.5-18.9-5.3-14.7-9-16.9c-2.4-1.4-3.7-1-6.9-2a43 43 0 0 1-9.5-4.9c-2.9-2-6-4.4-6-4.4.2-.6 3 7.8 2.9 13 0 3.5-.4 9.4.8 11.9" style="fill:url(#w)"/><path d="M81.3-154.7s1.4 9 .9 15.4c-.6 6.7-4.7 10.9-4.9 12.5-.3 2.7-1.8 16.6-4.7 17.3-4 1-12.3-24.2-12.3-24.2z" style="fill:#44494e"/><path d="m54.8-171.7 2.7-1.2c1.1-.5 2-1.7 2-1.7s6.4-1.1 12.8 4.7c6.3 5.8 10.1 12.9 8.6 24.1s-6.2 17.9-6.2 17.9.6 9.3-1.3 15.8-9.7 19.8-10 23.4 4 4.2 5.2 7.2c1 2.6-.8 4.8-7 4.9s-13 .3-13.2-2.5c-.5-4.8 3-5.6 2.8-11.4s-4.3-12-4.9-21c-.5-9.2 1.3-12 1.3-12s-.6-12.8 1.1-21.3 7.9-15.3 7.6-19.6-1.5-7.3-1.5-7.3" style="fill:#5d6265"/><linearGradient id="x" x1="41.3" x2="47.3" y1="-132.8" y2="-147.1" gradientUnits="userSpaceOnUse"><stop offset="0" style="stop-color:#484d51"/><stop offset=".4" style="stop-color:#424548"/><stop offset="1" style="stop-color:#343434"/></linearGradient><path d="M52.7-154.2q-.1-.4-.5-.2a24 24 0 0 1-15 7.5q-.5 0-.8.3c-1 1.3 5.1 2.5 10.4 1.6-1 2.8 1 6.5 2 9.3 1.5 4-1.1 9.4.4 8.6s1.7-4.2 2.2-6.5c.5-2.5 0-6.6-.1-9-.1-4.6.6-7 1.4-11.6" style="fill:url(#x)"/><linearGradient id="y" x1="56.6" x2="51.7" y1="-180.5" y2="-168.7" gradientUnits="userSpaceOnUse"><stop offset="0" style="stop-color:#484d51"/><stop offset=".4" style="stop-color:#424548"/><stop offset="1" style="stop-color:#343434"/></linearGradient><path d="m56.4-170 1-2c.9-1.4 3.1-2.5 3.1-6 0-3-1.7-6.4-1.7-6.4s-.8 5.8-2.4 7a9 9 0 0 1-5.5 2c-.4 0-1.4-.2-1.8 0-.9.6-.3 2 .1 2.7l2 1.9c2 1.8 3 4 3.6 5.5q.6-2.4 1.6-4.7" style="fill:url(#y)"/><path d="m75.5-161.5 1.8 3-6.8-2.9a26 26 0 0 1 4.3 20.7 40 40 0 0 0-5.4-7.7c.2 4 .2 7.6-1 11.5q-1.8 5.4-4.9 10.2c-.5-5.9-1.2-12-4.4-17a93 93 0 0 1-2.5 10Q52-145 52.9-157.1c.2-4.1 1-14.5 6.5-15.5 6.6-1.3 12.5 5.5 16.1 11.2" style="fill:#757b80"/><linearGradient id="z" x1="75.3" x2="75.3" y1="116.3" y2="89.4" gradientUnits="userSpaceOnUse"><stop offset="0" style="stop-color:#484d51"/><stop offset=".4" style="stop-color:#424548"/><stop offset=".9" style="stop-color:#343434"/></linearGradient><path d="m85.2 82.8-20.2 6 2.8 15c.7 4 1 7.6.7 8.8s-4 3.7-3.3 6c.7 2.5 6.3 3 12.2 2.3s6.9-2.9 7-6-2.1-8.8-1.8-10.4 2.6-5 3-8.6-.4-13-.4-13" style="fill:url(#z)"/><linearGradient id="A" x1="27.5" x2="27.5" y1="118.2" y2="55" gradientUnits="userSpaceOnUse"><stop offset="0" style="stop-color:#484d51"/><stop offset=".4" style="stop-color:#424548"/><stop offset=".9" style="stop-color:#343434"/></linearGradient><path d="M41.3 61.4 22.6 36.6s-7.5 3-8 13.8 2.5 17 2.2 21.4-4.2 8.7-3.9 15.7 4.2 17.2 4.2 19c0 1.7-.6 11.3 1.6 13.3 2 1.9 6.6 2.3 10.6 2s8.5-1 8.5-4.2-5.3-2.8-5.7-4.5c-.3-.8.6-1.2 1-3.1.3-1.2 0-2.8 0-2.8s7.2-9.9 8.6-16.8c1.5-7-2.5-13.6-2.7-15.8s2.3-13.2 2.3-13.2" style="fill:url(#A)"/><linearGradient id="B" x1="71" x2="70.6" y1="-1.5" y2="16.7" gradientUnits="userSpaceOnUse"><stop offset=".2" style="stop-color:#a9a9a9"/><stop offset=".3" style="stop-color:#929394"/><stop offset=".4" style="stop-color:#7b7e7f"/><stop offset=".6" style="stop-color:#6a6e71"/><stop offset=".8" style="stop-color:#606568"/><stop offset="1" style="stop-color:#5d6265"/></linearGradient><path d="M29.6 53.7c-1-1.6-5-1.4-7.8-6s-2.4-9.3-1-12c1.3-2.2 2.8-3 2.8-3l.1-2.1s-2.3-1.4-2.6-4.6.9-4.8 3.9-7.2 5.7-4.1 5.7-4.1-.3-3 .5-4.8S35.5 4 41.8 4s11.2 3.9 15 7.8 4 7.6 4 8.5-3.2 5.6-3.2 5.6l7.4 9.3 16.3 9.5 12.2 16 14.8 12.4 4.2 19.3s4.3 4.4 5.6 10.6c1.4 6.2 1.4 15.3-.7 16.8a24 24 0 0 1-15.4 3.9c-6.7-.3-6.6-1.8-6.4-3 .2-1.5 4.5-5.7 5-6.3s.3-7.3-1.2-8.2c-1.6-1-4.5-1.4-8-5.7C87.6 96 86.7 90 86.7 90s-3.5 1.3-7.7 1.3c-5.8.2-14.1-2.6-14.1-2.6s-17.4-7.6-21.5-13q-4.4-5.8-4.3-6c.1-.2-3.8-1.8-6.6-7.4-2.8-5.5-2-7-3-8.6" style="fill:url(#B)"/><path d="M44.2 26.8c.2-1.6 1-2.7-.9-3.8-2-1.2-8.9-.8-11.8-.7s-8.5 0-8 2.4c.1.6.2 1.7 1 2.4 2.6 2.4 7.5 2.7 7.5 2.7z" style="fill:#44494e"/><path d="M31.5 27.8c1 .1 2-4.3 8-4.1s7.4 3.8 7.4 3.8-4.9 7-6.8 11.6c-2 4.6-3.8 10.3-4.8 10.6-1.1.4-6.7-.1-10.2-3a9 9 0 0 1-3.5-8.6 7 7 0 0 1 1.8-3.4c.3-.3 2.1 2 3.2 1.5q1.4-.7.5-1.5C26.7 34.2 25 33 25 33s.9-1.3 2.1-.8c1 .5 2.2 2.1 2.2 2.1s2-2 2.8-2.2c1.4-.2 2.3 1.1 2.3 1.1s-3 1-3.3 1.9c-.4.8.3 2 2.4 1.2l3-1.2s0-3.2-3.1-4.1c-2.2-.6-4 1.6-4 1.6S27.8 31.2 27 31q-1.2-.2-1.4 0c-.2.2-1-2.2-1.4-3.3l-.7-2.5s2.2-1 4.2-.1c2.1.8 2.8 2.5 3.7 2.6" style="fill:#aeaeaf"/><path d="M36.7 27.6c-.9.8-1.1 2.4-.2 3.1q1.7 1.1 3.2-.5c.8-1 1-2.4.2-3q-1.2-1-3.2.4M29 30.2c-.9.8-2 0-2.5-.5-.6-.8-.8-2.1-.5-2.6s1.7-.7 2.5 0c1 .9 1.3 2.4.5 3.1M28.6 41c3.4.2 4.8 0 5.7 0 .4 0 1.3-.6 2.3 0s.8 2.2-.6 2.3q-1.9-.1-1.7-.2c.2-.2-2 .4-5.8 0-3.4-.2-4.7-1-4.7-1s-1.6.7-2-.5c-.2-1.2.8-2 1.8-1.5.9.3 2 .9 5 1"/><linearGradient id="C" x1="96.7" x2="101.2" y1="51.2" y2="104" gradientUnits="userSpaceOnUse"><stop offset=".2" style="stop-color:#a9a9a9"/><stop offset=".3" style="stop-color:#a2a3a3"/><stop offset=".6" style="stop-color:#8f9192"/><stop offset=".9" style="stop-color:#707476"/><stop offset="1" style="stop-color:#5d6265"/></linearGradient><path d="M85.4 70.3c1.3 2.6 4.4 5.5 6.6 5s2.6-1.6 4.3-2.5 3.3-.7 3.3-.7-2.7 3.3-3.4 6.6c-.6 3.4-2 12.5 4.2 16.6 6.2 4 12.2-2.9 12.2-2.9s1.7-11.1.5-18.8-5.3-14.8-9-16.9c-2.4-1.4-3.7-1-6.9-2-2.6-1-6.7-2.8-9.5-5l-6-4.3c.2-.6 3 7.8 2.9 13 0 3.4-.4 9.4.8 11.9" style="fill:url(#C)"/><path d="M82.3 45.9s1.4 9 .9 15.4c-.6 6.7-4.7 10.8-4.9 12.4-.3 2.7-1.8 16.7-4.7 17.4-4 1-12.3-24.2-12.3-24.2z" style="fill:#44494e"/><path d="m55.8 29 2.7-1.3c1.1-.6 2-1.7 2-1.7s6.4-1.2 12.8 4.6c6.3 5.8 10.1 13 8.6 24.2s-6.2 17.8-6.2 17.8.6 9.4-1.3 15.8-9.7 19.9-10 23.4 4 4.3 5.2 7.3c1 2.6-.8 4.7-7 4.8s-13 .4-13.2-2.5c-.5-4.7 3-5.6 2.8-11.4s-4.3-11.9-4.9-21c-.5-9.1 1.3-11.9 1.3-11.9s-.6-12.8 1.1-21.4 7.9-15.3 7.6-19.6C57 32 55.8 29 55.8 29" style="fill:#5d6265"/><linearGradient id="D" x1="42.4" x2="49" y1="67.6" y2="51.7" gradientUnits="userSpaceOnUse"><stop offset="0" style="stop-color:#484d51"/><stop offset=".4" style="stop-color:#424548"/><stop offset="1" style="stop-color:#343434"/></linearGradient><path d="M54.1 46.5v-.2q.5-1 .5-2.3 0-.4-.3-.6l-.6.1c-1.2.7-1.6 2.3-2.3 3.3q-1.5 2.4-4 4a26 26 0 0 1-9.2 2.8q-.5 0-.8.4c-1 1.3 5 2.5 10.4 1.5-1 2.9 1 6.6 2 9.3.7 1.9.5 4 .2 5.8 0 .4-.8 3.2.1 3.1.4 0 .8-1.5 1-1.8l1.5-2.9q1.2-3 1-6.2c-.3-2.1-1-4.2-1.1-6.3-.4-3.4.5-6.8 1.6-10" style="fill:url(#D)"/><linearGradient id="E" x1="57.5" x2="51.9" y1="20.6" y2="33.8" gradientUnits="userSpaceOnUse"><stop offset="0" style="stop-color:#484d51"/><stop offset=".4" style="stop-color:#424548"/><stop offset="1" style="stop-color:#343434"/></linearGradient><path d="m57.4 30.6 1-2c.9-1.4 3.1-2.5 3.1-6 0-3-1.7-6.4-1.7-6.4s-.8 5.7-2.4 7a9 9 0 0 1-5.5 2c-4.1 0-1.5 3 .1 5q2.7 3.4 3.6 7.5c1-2.1.8-4.9 1.8-7.1" style="fill:url(#E)"/><path d="M21.3 115.2c-.4-3.6 1.8-6.2.4-9.8l-3-5.5c-2.6-5-1.8-10.6-.1-15.8 1-3.4 2.6-7 1.5-10.3l2.3 4.7c1-5.6.6-11.4-1.3-16.6-1.4-3.7-3.4-7.1-4.3-10.9-.7-2.5-.6-7 .7-10a17 17 0 0 0-2.9 9.4c-.4 10.8 2.5 17 2.2 21.4s-4.2 8.7-3.9 15.7 4.2 17.2 4.2 19-.6 11.3 1.6 13.3c1.5 1.4 4.5 2 7.6 2.1a11 11 0 0 1-5-6.7" style="fill:#5d6265"/></svg>