<svg xml:space="preserve" width="16" height="16" viewBox="0 0 128 128"><path d="M19.9 72.1c1 4-.4 8.1-2.5 11.6S12.7 90.3 11 94c-4.7 10.7 0 23.6 2 24.2s21.1-13.7 21.1-13.7" style="fill:none;stroke:#616161;stroke-width:9.79;stroke-miterlimit:10"/><path d="m22 75.2-6.7-.4c0 2.3-1.4 5.3-1.4 5.3s2-1.4 6.1-.2zm-2.8 34c2 0 4.2.7 5.2 2.4a6 6 0 0 1 .2 5.8l7.3-5.2s.1-2-1.5-4a18 18 0 0 0-4.6-3.7z" style="fill:#424242"/><path d="M38.1 61.4c0 8-9.8 14.5-17.8 14.5S9.1 69.4 9.1 61.4 12.3 47 20.3 47s17.8 6.4 17.8 14.4" style="fill:#616161"/><path d="M19.5 53c-.3.7-.7 1.7-1.4 1.9a11 11 0 0 1-5.5-.2c-1.3-.7.4-2.8 1-3.5a6 6 0 0 1 2-1.8c2.3-1.1 4.7-1 6-.9q.8.3.4 1-1.2.8-2.5 3.6M7.8 102a2 2 0 0 1-.8-1q-.4-1-.3-2c.1-1.7 2.6-10.6 5.4-9.2 1.7.8 0 3.7-.3 4.8-.6 2.1-.7 4.5-1.8 6.5q-.5.9-1.4 1l-.8-.2" style="fill:#82aec0"/><path d="M108.1 72.1c-1.1 4 .4 8.1 2.5 11.6s4.7 6.6 6.3 10.3c4.7 10.7-.1 23.6-2 24.2-2 .6-21.2-13.7-21.2-13.7" style="fill:none;stroke:#616161;stroke-width:9.79;stroke-miterlimit:10"/><path d="m106 75.2 6.6-.4c0 2.3 1.5 5.3 1.5 5.3s-2-1.4-6.2-.2zm2.7 34c-2 0-4.1.7-5.2 2.4a6 6 0 0 0-.2 5.8l-7.3-5.2s0-2 1.6-4a18 18 0 0 1 4.5-3.7z" style="fill:#424242"/><path d="M89.8 61.4c0 8 9.8 14.5 17.8 14.5s11.2-6.5 11.2-14.5S115.6 47 107.6 47s-17.8 6.4-17.8 14.4" style="fill:#616161"/><path d="M82.4 52.5H45.5c-10.3 0-16-4.3-17.4-3.7-4.6 1.9-6.5 6.8-6.5 12.6s1.8 10.5 6 12.5c1.5.7 9.2-3.9 18.4-3.9h36c6.8 0 16.5 4.7 17.8 4.1 4.6-2 6.5-6.9 6.5-12.7s-1.9-10.6-6.4-12.6c-1.3-.6-8.9 3.7-17.5 3.7" style="fill:#212121"/><path d="M25 51V18.7c0-4.7 3.8-8.5 8.4-8.5h61.1c4.7 0 8.5 3.9 8.5 8.5V51c0 4.6-3.8 8.5-8.5 8.5h-61a8.5 8.5 0 0 1-8.6-8.5" style="fill:#b9e4ea"/><path d="M52.8 47H35.4q-1.5-.1-1.6-1.6v-24q.1-1.5 1.6-1.6h17.4q1.4.1 1.5 1.6v24q0 1.5-1.5 1.6" style="fill:#fff"/><radialGradient id="a" cx="44.1" cy="93.1" r="11.1" gradientTransform="matrix(1 0 0 -1 0 128.11)" gradientUnits="userSpaceOnUse"><stop offset=".1" style="stop-color:#1e88e5"/><stop offset=".2" style="stop-color:#1e88e5"/></radialGradient><path d="M54.3 46.2v.8H33.9v-.8c0-3.2 4-4.7 8.4-5V41q-3-.9-4.4-4.3c-.8-.3-1.3-3-1-3.4-.2-1.1-1.3-10.2 7.2-10.3 8.4 0 7.4 9.1 7.2 10.3.2.4-.3 3.1-1.1 3.4a7 7 0 0 1-4.3 4.3v.2c4.4.3 8.4 2 8.4 5" style="fill:url(#a)"/><path d="M78.2 23h-17q-1.3-.1-1.5-1.4v-.3q.2-1.4 1.5-1.5h17q1.3.2 1.5 1.5v.3q-.1 1.3-1.5 1.4m6 8h-23q-1.3-.1-1.5-1.5v-.2q.2-1.4 1.5-1.5h23q1.3.2 1.5 1.5v.2q-.1 1.4-1.5 1.5m-8.6 8H61.2q-1.3-.1-1.5-1.5v-.2q.2-1.4 1.5-1.5h14.4q1.4 0 1.5 1.5v.2q0 1.3-1.5 1.5m-3.8 8H61.2q-1.3-.1-1.5-1.5v-.3q.2-1.3 1.5-1.4h10.6q1.3.1 1.5 1.4v.3q-.1 1.4-1.5 1.5" style="fill:#82aec0"/><path d="M105.2 96.8H22.8c-.6 2.1-.6 4.3 1 6l1.7 1.7s.5 1.9 1.6 3.1c1.5 1.9 4 2.3 4 2.3s.6 1.5 1.2 2.5c1 1.4 3 1.7 4.7 1.7h54c1.8 0 3.7-.3 4.7-1.7.7-1 1.2-2.5 1.2-2.5s2.5-.4 4.1-2.3c1-1.2 1.5-3.1 1.5-3.1l1.7-1.7c1.7-1.7 1.7-3.9 1-6" style="fill:#b9e4ea"/><path d="m105.3 96.3-.6-1.7H23.3l-.6 1.7c-1 3.3 2.7 4.3 7 4.3h68.6c4.3 0 7.9-1 7-4.3" style="fill:#82aec0"/><path d="m108.1 91.7-2-4.2H21.9l-2 4.2c-1 3.2 2.4 4 7 4H101c4.5 0 8-.8 7-4" style="fill:#b9e4ea"/><path d="m111.2 83.6-10-16.9q-2.3-3-6.2-3H33a8 8 0 0 0-6.3 3l-10 16.9c-1.4 3.8 3.4 5 7.5 5h79.6c4 0 8.9-1.2 7.4-5" style="fill:#fff"/><path d="M105.4 100.2c-1.3 2.8-6.4 2.9-6.5 2.9H29s-5.1-.1-6.3-2.9l-.2-.1v.2c1 4.1 4 4.8 6.6 4.8h69.8c2.5 0 5.5-.7 6.5-4.8z" style="fill:#82aec0"/><path d="M101.6 106.3h-.4S99.3 108 95 108H33c-4.5 0-6.4-1.7-6.4-1.7h-.3c-.2 0 .4 1 .7 1.3a7 7 0 0 0 4 2.3l2 .2h61.8l1.9-.2s2.5-.4 4.1-2.3c.3-.3.9-1.2.7-1.3" style="opacity:.75;fill:#2f7889"/><path d="m96.4 111-.6.6c-1 1-1.8 1.4-6.5 1.4H38.6c-4.7 0-5.4-.4-6.5-1.4l-.5-.6.2.7c.1.3 1 3.4 7.5 3.4h49.3c6.6 0 7.4-3.1 7.6-3.4z" style="fill:#2f7889"/><path d="M83.5 63.4q-.5 1.1-.6 2.4 0 .5.3.8l.4.2q1.3.2 2.4-.3 2.6-.9 4.3-3m-44.3 0q-.9 1.6-1.2 3.4c1 .5 2.2.1 3.2-.4q2.3-1 4-2.9" style="fill:#b9e4ea"/><path d="M44.8 67a3 3 0 0 1-3.1-3.2v-5.7a3 3 0 0 1 3-3c1.8 0 3.2 1.3 3.2 3v5.7a3 3 0 0 1-3.1 3.1m38.4.1a3 3 0 0 1-3.1-3.2v-5.7a3 3 0 0 1 3-3c1.8 0 3.2 1.3 3.2 3v5.7a3 3 0 0 1-3.1 3.1" style="fill:#616161"/></svg>