<svg xmlns:xlink="http://www.w3.org/1999/xlink" xml:space="preserve" width="16" height="16" viewBox="0 0 128 128"><path d="M64.3 4.9c-41 0-40.7 35.9-40.7 36.5 0 24.6 1.9 59.2 11.7 72.9 4 5.4 11.5 5.7 11.5 5.7h33.9s7.4-.4 11.4-5.7c11.5-15 11.7-48.3 11.7-73 0-.5 1.5-36.4-39.5-36.4" style="fill:#ab872f"/><radialGradient id="a" cx="63.7" cy="57.6" r="47" gradientTransform="matrix(1 0 0 1.19 0 -9.12)" gradientUnits="userSpaceOnUse"><stop offset=".8" style="stop-color:#bfa055;stop-opacity:0"/><stop offset="1" style="stop-color:#bfa055"/></radialGradient><path d="M64.6 4.9c-41 0-41 37.2-41 37.8 0 23.5 2 58.4 11.8 72C39.3 120.3 47 120 47 120h34s7.4-.3 11.4-5.7c11-14.9 11.4-48.3 11.4-73 0-.5 1.8-36.4-39.2-36.4" style="fill:url(#a)"/><path d="M73.6 112.3V89.5H54.4v22.8z" style="fill:#c48e6a"/><radialGradient id="b" cx="64.6" cy="121.2" r="52.5" gradientTransform="matrix(1 0 0 .548 0 57.65)" gradientUnits="userSpaceOnUse"><stop offset=".8" style="stop-color:#212121"/><stop offset="1" style="stop-color:#616161"/></radialGradient><path d="M116.5 124v-3.2c0-9.3-8.4-15.3-15.7-18.4a74 74 0 0 0-24-5.8s-3 19.5-12.6 19.4c-8.4-.1-12-19.4-12-19.4-20.5 2-40.7 9.4-40.7 24.2v3.2z" style="fill:url(#b)"/><path d="m72 124 3.3-18H52.7l3.8 18z" style="fill:#e0e0e0"/><path d="M66.9 113.5h-5.7l-1.8-7.5h9.2zM68 124l-1.2-10.5h-5.6L60 124z" style="fill:#212121"/><path d="m64 106-8.7 7.2-1.6 1.3-3.5-17.8 1.5-.1 2.5-.3s1.8 3 3.7 5.5c3.1 4.1 6 4.2 6 4.2m13.9-9.2-3.5 17.7L64 106s3 0 6.1-4.2l3.7-5.5 2.5.3z" style="fill:#fafafa"/><path d="m55.2 113.2-3.6-16.6-1.5.1-8 1.2-3.2 6.6 7.2 4.3-4.8 6.2 9.3 9h7zm17.6 0 3.6-16.6 1.5.1c3.3.3 8 1 8 1l3.2 6.8-7.2 4.3 4.8 6.2-9.3 9h-7z" style="fill:#424242"/><path d="M92.2 119.8H88q-.3 0-.1.3l.3.2q.5.3 1 .3h3.3q0-.4-.3-.8m-.2-.4-.6-1h-5.3q-.2.1 0 .2v.2q.8.6 1.7.6zm.7 1.7h-2.9v.2q2.6 1 2.7.8h.3zm9.3-1.3h-4.2l-.3.8h3.2l1.1-.3.3-.2q.2-.2 0-.3m1.8-1.4h-5.3l-.6 1h4.2q1 0 1.6-.6l.1-.2zm-3.7 2.7h-2.9l-.1 1h.3s1 0 2.7-.8zm-3.4-3.8-1 .3h-1.5q-.7 0-1-.3-.4-.1-.6.2l-.3.8v.5a5 5 0 0 1 1 2.8l.2.4 1.2.7h.5l1-.7q.3 0 .3-.4c0-1.3.8-2.4 1-2.8q.1-.1 0-.4l-.3-.9q-.1-.3-.5-.2" style="fill:#ffc107"/><path d="M64 16c-17.2 0-33.1 12.8-33.1 40A40 40 0 0 0 56 94.8a24 24 0 0 0 7.9 1.5q3.6 0 7.8-1.5A40 40 0 0 0 97.1 56c0-27.2-15.9-40-33.1-40" style="fill:#e0bb95"/><path d="M67.8 68h-7.6q-1.1.5-.7 1.7c.4 1.2 1.7 2.6 4.5 2.6a5 5 0 0 0 4.5-2.6q.4-1.2-.7-1.7" style="fill:#c48e6a"/><ellipse cx="47.8" cy="58.9" rx="4.9" ry="5" style="fill:#5d4037"/><ellipse cx="80.3" cy="58.9" rx="4.9" ry="5" style="fill:#5d4037"/><path d="M72.3 76.1a25 25 0 0 1-16.6 0c-1.8-1-3.6.6-2.9 2.3s6.4 5.3 11.2 5.3 10.5-3.7 11.2-5.4c.8-1.6-1-3.2-2.9-2.2" style="fill:#6d4c41"/><path d="M55 49.8c-1-1.2-3-3-7.3-3s-6.3 1.8-7.2 3q-.5 1 0 1.6t1.9.4c1.4-.2 2.5-1.2 5.3-1.2 2.9 0 4.5.9 5.4 1.2s1.6 0 1.9-.4q.5-.6 0-1.6m32.5 0c-1-1.2-3-3-7.2-3s-6.4 1.8-7.3 3q-.5 1 0 1.6t1.9.4c1.4-.2 2.5-1.2 5.4-1.2 2.8 0 4.4.9 5.3 1.2s1.6 0 1.9-.4q.5-.6 0-1.6M64.6 4.9c-41 0-40.7 35.9-40.7 36.5q0 11.9.7 25.3h6.8c-.1-3 2-21 8-22.3 22.4-5 35-17 35-17 3.3 7.2 13.6 14.3 17.3 17 3 2.1 4.3 18.5 4.2 22.3h7.4v-.2c.6-8.7.5-17.4.5-25.1 0-.6 1.8-36.5-39.2-36.5" style="fill:#ab872f"/><radialGradient id="c" cx="64.2" cy="60.8" r="49.6" gradientTransform="matrix(1 0 0 1.214 0 -11.15)" gradientUnits="userSpaceOnUse"><stop offset=".8" style="stop-color:#bfa055;stop-opacity:0"/><stop offset="1" style="stop-color:#bfa055"/></radialGradient><path d="M64.6 4.9c-41 0-40.7 35.9-40.7 36.5q0 11.9.7 25.3h6.8c-.1-3 2-21 8-22.3 22.4-5 35-17 35-17 3.3 7.2 13.6 14.3 17.3 17 3 2.1 4.3 18.5 4.2 22.3h7.4v-.2c.6-8.7.5-17.4.5-25.1 0-.6 1.8-36.5-39.2-36.5" style="fill:url(#c)"/><linearGradient id="d" x1="64.1" x2="64.1" y1="25.8" y2="43" gradientTransform="translate(0 2)" gradientUnits="userSpaceOnUse"><stop offset="0" style="stop-color:#666"/><stop offset=".1" style="stop-color:#606060"/><stop offset=".5" style="stop-color:#3f3f3f"/><stop offset=".8" style="stop-color:#333"/></linearGradient><path d="M63.8 24.2c-33.3 0-38.6 11.3-38.6 11.3s10.3 10 38.6 10.1C92 45.4 102.9 35 102.9 35S97 24.2 63.8 24.2" style="fill:url(#d)"/><path d="M20.4 34.4c1.7 6.2 3.3 8.8 3.3 8.8 1.7-2 12-11.4 40.2-11.4h.2c28.3 0 38 9.4 39.7 11.4 0 0 2-2.7 3.8-9C111.5 20 92 4 64 4 36.1 4 16.5 20.1 20.4 34.4" style="fill:#303030"/><defs><path id="e" d="M20.4 34.4c1.7 6.2 3.3 8.8 3.3 8.8 1.7-2 12-11.4 40.2-11.4h.2c28.3 0 38 9.4 39.7 11.4 0 0 2-2.7 3.8-9C111.5 20 92 4 64 4 36.1 4 16.5 20.1 20.4 34.4"/></defs><clipPath id="f"><use xlink:href="#e" style="overflow:visible"/></clipPath><path d="M98.2 35.2q-.3-1.6-1.7-2.7a53 53 0 0 0-32.7-9.7c-18.7 0-29.2 7-32.7 9.7q-1.3 1-1.6 2.7c-.6 3.2 2.2 6 5.4 5.2a128 128 0 0 1 29-3.6c11.7 0 22.3 2 28.9 3.6 3.1.8 6-2 5.4-5.2" style="clip-path:url(#f);fill:#212121"/><path d="M57.3 20.3H47.2q-.6.2-.2.8l.7.4q1.2.9 2.7.9H58zm-.5-1L55.4 17H42.8q-.5.1-.2.5l.4.3q1.6 1.5 3.8 1.5zm1.6 4.1h-6.8q-.4.1-.1.4c4.1 2 6.4 2 6.4 2h.8q0-1.4-.3-2.4m22.4-3H71l-.3-.1-.8 2h7.7q1.6 0 2.7-.8l.7-.5q.4-.4-.2-.6m4.4-3.4H72.6q-.7.8-1.4 2.3h10q2.2 0 3.8-1.4l.4-.4q.2-.4-.2-.5m-8.8 6.4h-6.8q-.3 1.2-.3 2.3h.8s2.3.2 6.4-1.9q.2-.2 0-.4m-8.2-9.1q-1.2.6-2.5.7a12 12 0 0 1-6-.7 1 1 0 0 0-1.3.5l-.8 2q-.3.8 0 1.1a13 13 0 0 1 2.5 6.8q0 .6.5.8l2.7 1.6q.5.5 1.2 0 1.5-1.1 2.6-1.6.6-.2.6-.8a13 13 0 0 1 2.5-6.8q.3-.4 0-.8l-.8-2.3a1 1 0 0 0-1.2-.5" style="fill:#ffc107"/><radialGradient id="g" cx="64.3" cy="34" r="52" gradientTransform="matrix(1 0 0 .665 0 13.88)" gradientUnits="userSpaceOnUse"><stop offset=".6" style="stop-color:#212121;stop-opacity:0"/><stop offset=".9" style="stop-color:#bfbebe"/></radialGradient><path d="M20.4 34.4c1.7 6.2 3.3 8.8 3.3 8.8 1.7-2 12-11.6 40.3-11.6h.1c28.3 0 38 9.6 39.7 11.6 0 0 2.1-3 3.8-9.1 4-14.4-15.3-30.2-43.3-30.2S16.5 20.1 20.4 34.4" style="opacity:.3;fill:url(#g)"/></svg>