<svg xml:space="preserve" width="16" height="16" viewBox="0 0 128 128"><path d="M116 4H12a8 8 0 0 0-8 8v104a8 8 0 0 0 8 8h104a8 8 0 0 0 8-8V12a8 8 0 0 0-8-8" style="fill:#8e24aa"/><path d="M109.7 4H11.5A7.6 7.6 0 0 0 4 11.5v97.9c0 4.1 3.3 7.5 7.5 7.5h98.1c4.1 0 7.5-3.3 7.5-7.5V11.5c0-4-3.1-7.4-7.2-7.5z" style="fill:#ab47bc"/><path d="M39.7 12.9c0-2.3-1.6-3-10.8-2.7-7.7.3-11.5 1.2-13.8 4s-2.9 8.5-3 15.3c0 4.8 0 9.3 2.5 9.3 3.4 0 3.4-7.9 6.2-12.3 5.4-8.7 18.9-10.6 18.9-13.6" style="opacity:.3;fill:#fafafa"/><circle cx="64" cy="64" r="6" style="fill:#fafafa"/><path d="M93.3 64 107 41.5q.4-.8-.4-1.4l-.4-.1H78.7L64.8 16.5a1 1 0 0 0-1.7 0L49.3 40H21.8a1 1 0 0 0-1 1l.1.5L34.7 64 20.9 86.5a1 1 0 0 0 .9 1.5h27.6l13.8 23.5a1 1 0 0 0 1.7 0L78.7 88h27.6q.9 0 1-.9l-.2-.6zm4-18-7.5 12.2L82.3 46zm-11 18-11 18H52.7l-11-18 11-18h22.6zM64 26.6 71.6 40H56.4zM30.7 46h15l-7.5 12.2zm0 36 7.5-12.2L45.7 82zM64 101.4 56.4 88h15.3zm25.8-31.6L97.3 82h-15z" style="fill:#fafafa"/></svg>