<svg xml:space="preserve" width="16" height="16" viewBox="0 0 128 128"><linearGradient id="a" x1="25.9" x2="53.2" y1="43.4" y2="43.4" gradientTransform="matrix(1 0 0 -1 0 128)" gradientUnits="userSpaceOnUse"><stop offset="0" style="stop-color:#a47b62"/><stop offset="1" style="stop-color:#ba8d68"/></linearGradient><path d="M47.6 75c-2.4-1.2-19-8-19-8l-2.7 11.4s11.9 4 16 5.7q1.2.5 1.5 1.7l3.2 16.4H53l.3-17.2c0-6.5-2.7-8.6-5.6-10" style="fill:url(#a)"/><path d="M29.5 66.2a7.4 7.4 0 0 0-9.5 4.4c-1.4 3.8.6 8 4.4 9.5l9.3 3.4 5-13.9z" style="fill:#c62828"/><linearGradient id="b" x1="10.4" x2="36.1" y1="42.6" y2="42.6" gradientTransform="matrix(1 0 0 -1 0 128)" gradientUnits="userSpaceOnUse"><stop offset="0" style="stop-color:#a47b62"/><stop offset="1" style="stop-color:#ba8d68"/></linearGradient><path d="m35.6 83.3-5-12-10.8 4.3 4.2 8.7q.6 1.3-.6 2.2l-13 6.8 3.1 6.3 18.2-7.2a7 7 0 0 0 3.8-9.1" style="fill:url(#b)"/><path d="m75 48.6-3-.1c-.8 0-4.7.6-5.5 2a1 1 0 0 0-.1.9q.3 1.3 1.6 1.3h.3l6.9-1.6c1.2-.4 1.4-1.1 1.4-1.2v-.2c0-.7-1-1-1.5-1" style="fill:#99674f"/><path d="M48.3 36c-.5 1.2 1.6 3 1.6 4.5-.1 1.1-2.4 1.2-2.7 1.4q-.3.3-.6 1l-.6 1.3c-.7 1.4-2.1 2.8-5.7 2.1-2.4-.3-2.6-.5-3.3-.6-1.5-.2-2.7 2-2.7 2s-2.9 5.2-6.5 3c-4.2-2.6-2.2-5.8-2.2-5.8s3.9-5.2 2.7-9.8c-1-4.3-.7-11.2 1.5-13.4 3.5-3.3 9.7-5 14.1-3 5 2 6.8 6.4 6.3 11.3q-.2 2.7-1.2 4.5z" style="fill:#ba8d68"/><path d="m46.6 43-.6 1.2a4 4 0 0 1-2.2-1.2c-.6-.8 0-1.3.8-.7a4 4 0 0 0 2 .7" style="fill:#5d4037"/><ellipse cx="44.4" cy="35.7" rx="1.7" ry="1.1" style="fill:#49362e" transform="rotate(-74.2 44.4 35.73)"/><path d="M42.4 33q-.4-.2.3-.7c.5-.3 1.2-.8 2.4-.5q1.8.5 1.9 1.3c.1.7-.4 1.3-1.3.6-1.1-1-3-.4-3.3-.6" style="fill:#613e31"/><path d="M15 37c2.3-7.3-1-13.6 6.4-17 5-2 11.7 2.4 12.5 4.3 1.4 3.8-3.7 4.5-5.1 5.4-2.2 1.5-2.5 10.7-9 14.7-8.7 5.5-14.2 1.8-14.2 1.8s7.2-2.1 9.4-9.2" style="fill:#543930"/><radialGradient id="c" cx="-36.6" cy="-76.9" r="18.3" gradientTransform="matrix(-.83 -.434 .433 -.818 28.36 -43.64)" gradientUnits="userSpaceOnUse"><stop offset=".5" style="stop-color:#6d4c41;stop-opacity:0"/><stop offset="1" style="stop-color:#6d4c41"/></radialGradient><path d="M15.8 33.5c.7-5.8-.6-10.7 5.6-13.4 5-2.2 11.7 2.3 12.5 4.3 1.4 3.7-3.7 4.4-5.1 5.4-2.2 1.4-13 3.7-13 3.7" style="fill:url(#c)"/><radialGradient id="d" cx="-19.8" cy="-91.2" r="19.5" gradientTransform="matrix(.807 .473 -.501 .802 -22.49 121.98)" gradientUnits="userSpaceOnUse"><stop offset="0" style="stop-color:#6d4c41"/><stop offset=".5" style="stop-color:#6d4c41;stop-opacity:0"/></radialGradient><path d="M15 37a24 24 0 0 0 1-5.6c0-1.8 0-3.3 1.8-4.2 2.7-1.5 6.8-.9 9.6 1.3q1.3 1 .8 2l-.9 1.7-1.4 4a16 16 0 0 1-6 8.3C11 49.9 5.5 46.2 5.5 46.2s7.2-2.1 9.4-9.2" style="fill:url(#d)"/><radialGradient id="e" cx="-28.3" cy="-78.9" r="11.2" gradientTransform="matrix(.806 .475 -1.304 2.068 -62.35 210.17)" gradientUnits="userSpaceOnUse"><stop offset=".5" style="stop-color:#6d4c41;stop-opacity:0"/><stop offset="1" style="stop-color:#6d4c41"/></radialGradient><path d="M11.5 47.4s8-.6 12-6.6q2.3-3.7 3-6.1c.3-1.4 2.4-6.6 4.3-7.5 0 0-13.2 6.3-19.3 20.2" style="fill:url(#e)"/><path d="M29.6 18.3c2.8-2.4 7-3.4 10.9-2.7 3.4.6 7.9 2.5 10.1 6.1a9 9 0 0 1 1.1 7.3c-.5 1.5-1.9 2-1.9 2s-.7-3.8-4.3-3.7c-3.9.1-5.3-1-5.3-1 .6 3.3-.8 4.7-2 5.4L36.5 33q-.2.2-.3-.1l-.2-2c-.4-1.5-1.6-1.2-1.6-1.2-1.6.2-2.8 3.2-.8 5.6v.5c-1.6 3-5.2 2.3-5.4 2.1q-.7-.6-.7-1.5c.2-2.2-.6-3-1-4-.5-1.3-1.1-2.7-.9-6.1a11 11 0 0 1 4-8" style="fill:#543930"/><radialGradient id="f" cx="62.7" cy="68" r="15.9" gradientTransform="matrix(-.765 -.173 .168 -.798 75.16 92.84)" gradientUnits="userSpaceOnUse"><stop offset=".5" style="stop-color:#6d4c41;stop-opacity:0"/><stop offset="1" style="stop-color:#6d4c41"/></radialGradient><path d="M29.6 18.3c2.8-2.4 7-3.4 10.9-2.7 3.4.6 7.9 2.5 10.1 6.1a9 9 0 0 1 1.1 7.3c-.5 1.5-1.9 2-1.9 2s-.7-3.8-4.3-3.7c-3.9.1-5.3-1-5.3-1 .6 3.3-.8 4.7-2 5.4L36.5 33q-.2.2-.3-.1l-.2-2c-.4-1.5-1.6-1.2-1.6-1.2-1.6.2-2.8 3.2-.8 5.6v.5c-1.6 3-5.2 2.3-5.4 2.1q-.7-.6-.7-1.5c.2-2.2-.6-3-1-4-.5-1.3-1.1-2.7-.9-6.1a11 11 0 0 1 4-8" style="fill:url(#f)"/><path d="M66.9 35.5c.4 1.2-1.7 3-1.7 4.5 0 1.1 2.4 1.3 2.6 1.4l.6 1.2.5 1.2c.8 1.4 2.1 2.8 5.7 2.3l3.3-.6c1.5-.2 2.7 2 2.7 2s2.7 5.3 6.4 3.1c4.3-2.4 3.3-4.1 3.3-4.1s-4.7-6.9-3.5-11.4c1.2-4.2 1-11.2-1.2-13.4-3.3-3.4-9.6-5.2-14-3.4-5 2-6.9 6.3-6.6 11.2a13 13 0 0 0 1.8 6" style="fill:#ba8d68"/><path d="m68.4 42.6.5 1.2a4 4 0 0 0 2.3-1.2c.6-.7 0-1.3-.8-.7a4 4 0 0 1-2 .7" style="fill:#5d4037"/><ellipse cx="70.8" cy="35.4" rx="1.1" ry="1.7" style="fill:#49362e" transform="rotate(-14.6 70.75 35.37)"/><path d="M72.8 32.8q.4-.4-.3-.9c-.7-.5-1.2-.7-2.4-.5q-1.8.4-1.9 1.3c-.1.7.4 1.3 1.3.6 1.1-.9 3-.3 3.3-.5" style="fill:#613e31"/><path d="M100 37.3c-2-7.3 1.5-13.6-6-17-4.9-2.3-11.7 2-12.5 4-1.5 3.6 3.6 4.5 5 5.4 2.1 1.5 2.3 10.7 8.6 15 8.6 5.6 14.3 2 14.3 2s-7.2-2.3-9.3-9.4" style="fill:#543930"/><radialGradient id="g" cx="-49.4" cy="-70.5" r="18.3" gradientTransform="matrix(.84 -.416 -.415 -.828 101.97 -43.7)" gradientUnits="userSpaceOnUse"><stop offset=".5" style="stop-color:#6d4c41;stop-opacity:0"/><stop offset="1" style="stop-color:#6d4c41"/></radialGradient><path d="M99.4 33.8c-.6-5.8.9-10.7-5.4-13.6-4.9-2.2-11.7 2.1-12.5 4-1.5 3.7 3.6 4.6 5 5.5 2.1 1.5 13 4 13 4" style="fill:url(#g)"/><radialGradient id="h" cx="-32.7" cy="-84.8" r="19.5" gradientTransform="matrix(-.818 .455 .483 .813 122.1 123.75)" gradientUnits="userSpaceOnUse"><stop offset="0" style="stop-color:#6d4c41"/><stop offset=".5" style="stop-color:#6d4c41;stop-opacity:0"/></radialGradient><path d="M100 37.3q-.6-2.7-.7-5.7c-.1-1.7 0-3.2-1.8-4.2-2.6-1.5-6.8-1-9.6 1.2q-1.3.9-.8 2l.8 1.6 1.4 4c1.1 3.3 2.8 6.4 5.8 8.4 8.6 5.7 14.2 2.1 14.2 2.1s-7.1-2.3-9.2-9.4" style="fill:url(#h)"/><radialGradient id="i" cx="-41.1" cy="-72.5" r="11.2" gradientTransform="matrix(-.816 .457 1.258 2.097 155.1 204.65)" gradientUnits="userSpaceOnUse"><stop offset=".5" style="stop-color:#6d4c41;stop-opacity:0"/><stop offset="1" style="stop-color:#6d4c41"/></radialGradient><path d="M103.4 47.8s-8-.8-11.9-6.9a23 23 0 0 1-2.8-6.2c-.4-1.4-2.3-6.6-4.1-7.6 0 0 13 6.6 18.8 20.7" style="fill:url(#i)"/><path d="M86 18.3a14 14 0 0 0-10.9-3c-3.4.6-8 2.4-10.3 6a9 9 0 0 0-1.2 7.2c.5 1.5 1.8 2 1.8 2s.8-3.8 4.5-3.6 5.3-.9 5.3-.9c-.7 3.3.7 4.7 1.8 5.5l1.7 1.3q.2.3.3-.1c0-.5.1-1.5.3-2 .4-1.5 1.6-1.2 1.6-1.2 1.6.3 2.7 3.3.6 5.7q-.2 0 0 .5c1.5 3 5.2 2.4 5.4 2.2q.7-.6.7-1.5c-.1-2.2.7-3 1.1-4 .6-1.2 1.2-2.6 1-6a11 11 0 0 0-3.7-8.1" style="fill:#543930"/><radialGradient id="j" cx="46.7" cy="71.5" r="15.9" gradientTransform="matrix(.77 -.156 -.15 -.802 51.53 92.08)" gradientUnits="userSpaceOnUse"><stop offset=".5" style="stop-color:#6d4c41;stop-opacity:0"/><stop offset="1" style="stop-color:#6d4c41"/></radialGradient><path d="M86 18.3a14 14 0 0 0-10.9-3c-3.4.6-8 2.4-10.3 6a9 9 0 0 0-1.2 7.2c.5 1.5 1.8 2 1.8 2s.8-3.8 4.5-3.6 5.3-.9 5.3-.9c-.7 3.3.7 4.7 1.8 5.5l1.7 1.3q.2.3.3-.1c0-.5.1-1.5.3-2 .4-1.5 1.6-1.2 1.6-1.2 1.6.3 2.7 3.3.6 5.7q-.2 0 0 .5c1.5 3 5.2 2.4 5.4 2.2q.7-.6.7-1.5c-.1-2.2.7-3 1.1-4 .6-1.2 1.2-2.6 1-6a11 11 0 0 0-3.7-8.1" style="fill:url(#j)"/><path d="M56.5 51.7q0-.6-.4-1c-1.2-1-5-.3-6-.2l-2.8 1.2c-.4.2-1.2.7-1 1.5v.1c0 .1.5.7 1.8.8l7-.7c.9-.1 1.4-1 1.4-1.7" style="fill:#91674d"/><linearGradient id="k" x1="31.5" x2="68.7" y1="74" y2="74" gradientTransform="matrix(1 0 0 -1 0 128)" gradientUnits="userSpaceOnUse"><stop offset=".6" style="stop-color:#ba8d68"/><stop offset="1" style="stop-color:#a47b62"/></linearGradient><path d="M68.6 52c-.3 1-2.4 2-5.2 3.2l-.4.2-2.6 1-1 .3c-4.7 1.6-10 3-12.8 3l-.2-.1h-.5l-.4-.1-.4-.1-6.2-1.2-7.4-1.5 2.7-8.2v-.2l8.3 3 4.3 1.5c2.1-.3 12.8-1.8 14.5-2.2l3.8-.3c2 0 4 .4 3.5 1.8" style="fill:url(#k)"/><linearGradient id="l" x1="56.5" x2="58.5" y1="71.5" y2="73.4" gradientTransform="matrix(1 0 0 -1 0 128)" gradientUnits="userSpaceOnUse"><stop offset="0" style="stop-color:#ba8d68;stop-opacity:0"/><stop offset="1" style="stop-color:#a47b62"/></linearGradient><path d="m63 55.4-5.2 1.8c-1.9-.9-4-3.2-4-3.2l3.4-2.2z" style="fill:url(#l)"/><linearGradient id="m" x1="43.9" x2="38.7" y1="75.8" y2="73.8" gradientTransform="matrix(1 0 0 -1 0 128)" gradientUnits="userSpaceOnUse"><stop offset="0" style="stop-color:#ba8d68;stop-opacity:0"/><stop offset="1" style="stop-color:#a47b62"/></linearGradient><path d="m45 59.4-6-1.2-4.7-9.7v-.2l8.3 3z" style="fill:url(#m)"/><linearGradient id="n" x1="86.6" x2="52" y1="75.7" y2="75.7" gradientTransform="matrix(1 0 0 -1 0 128)" gradientUnits="userSpaceOnUse"><stop offset="0" style="stop-color:#a47b62"/><stop offset=".6" style="stop-color:#ba8d68"/><stop offset="1" style="stop-color:#a47b62"/></linearGradient><path d="M85.6 47.8a5 5 0 0 0-5-1.4l-.2.2-12.1 4.3c-1.9-.3-7.5-1.2-10.4-1.1l-4.6.5-3.4 3.2q-1 1-.4 2c.3.3.7.9 6.1-2q.8-.3 1.5 0l8.1 4a8 8 0 0 0 5.3.8L82.4 56l1.4-.4q1.7-.6 2.6-2.3a5 5 0 0 0-.8-5.6" style="fill:url(#n)"/><path d="M72.7 50.2s-6.3-1.9-8.4 0l6 2.2s2.8 1.3 3.7-.7c.3-.8-.8-1.3-1.3-1.5" style="fill:#91674d"/><linearGradient id="o" x1="65.5" x2="94.2" y1="42.1" y2="42.1" gradientTransform="matrix(1 0 0 -1 0 128)" gradientUnits="userSpaceOnUse"><stop offset="0" style="stop-color:#a47b62"/><stop offset="1" style="stop-color:#ba8d68"/></linearGradient><path d="m94.2 79.2-4.7-11-20.3 11a7 7 0 0 0-3.1 9.3c1.7 4.2 7.1 15 7.1 15l6.7-1.2-4.4-14.8z" style="fill:url(#o)"/><path d="M93.4 72.8a7 7 0 0 0-9.2-3l-9.2 5 6.2 12 9.3-4.7a7 7 0 0 0 2.9-9.2" style="fill:#4300d9"/><linearGradient id="p" x1="107.7" x2="89.6" y1="34.4" y2="53.4" gradientTransform="matrix(1 0 0 -1 0 128)" gradientUnits="userSpaceOnUse"><stop offset="0" style="stop-color:#a47b62"/><stop offset="1" style="stop-color:#ba8d68"/></linearGradient><path d="m100 85.3-5.5-20.7L82.3 69l8.5 21.4q.5 1 1.2 1.8 1 1 2.4 1.5h.2l.8.2 20.3 2.8 2.2-5.2z" style="fill:url(#p)"/><radialGradient id="q" cx="90.5" cy="70.8" r="16.5" gradientTransform="matrix(1 0 0 -1 0 128)" gradientUnits="userSpaceOnUse"><stop offset="0" style="stop-color:#651fff"/><stop offset=".7" style="stop-color:#5914f2"/><stop offset="1" style="stop-color:#530eeb"/></radialGradient><path d="M97.5 71.7q.3-1.2.4-2.8.3-9-3.7-17.8c-.9-2-3.1-6.8-8.2-6.8h-.8c-6.6.7-7.5 6.5-6.5 11.2 1.4 6.7 2.4 10.3 2.7 16.6.2 2.2 1 4.5 2.5 5.4a31 31 0 0 0 4 8.4q6-2.3 12-5z" style="fill:url(#q)"/><radialGradient id="r" cx="24.9" cy="69.8" r="16.3" gradientTransform="matrix(1 0 0 -1 0 128)" gradientUnits="userSpaceOnUse"><stop offset="0" style="stop-color:#ef5350"/><stop offset=".5" style="stop-color:#ea4643"/><stop offset="1" style="stop-color:#e53935"/></radialGradient><path d="M36 55.1c2-4.4 1.1-7.6 0-8.7-2.1-2-4-2-5-2.4h-1.2c-3.8 0-6.6 2.7-8.8 7a46 46 0 0 0-4.3 18.7c0 5.4 5.2 12.9 6.5 15.5q6-2.5 11.8-5.4-.6-1.7-1.9-4.4l.6-2.6c.4-5.5 0-11.9 2.3-17.8" style="fill:url(#r)"/><linearGradient id="s" x1="31.7" x2="51.7" y1="82.8" y2="61.6" gradientTransform="matrix(1 0 0 -1 0 128)" gradientUnits="userSpaceOnUse"><stop offset=".6" style="stop-color:#ba8d68"/><stop offset="1" style="stop-color:#a47b62"/></linearGradient><path d="M67.1 67.4q-.2-.3-1.1-.3.3 0 .4-.4V66c-.2-.8-1.7-.7-3.5-.4l-1.9.1-1.7-.1q1.4-.6 2-1.3c.5-.6.2-1 0-1.1-.5-.8-2.7-.3-4 .3-.7.4-2.7.6-3.4.6h-.3l-9.8-3.4a5 5 0 0 1-2.7-2.3l-4.9-9.2V49H36l-.1-.2a5 5 0 0 0-4.5-2.2 5 5 0 0 0-4.4 3.6q-.5 1.8.4 3.5v.1l.7 1 6 9.2q1.6 2.7 4.8 3.6l14.6 4.1h.2l2.4.8.6.1c1.6.5 3.7.8 5.5.8 1.6 0 2.9-.3 3.1-1v-.6l-1.1-.5c1 0 2-.4 2-1.2l-.1-.5q-.1-.2-.4-.3 1.3-.3 1.5-1.2z" style="fill:url(#s)"/><linearGradient id="t" x1="61.2" x2="84" y1="59.2" y2="76.8" gradientTransform="matrix(1 0 0 -1 0 128)" gradientUnits="userSpaceOnUse"><stop offset=".6" style="stop-color:#ba8d68"/><stop offset="1" style="stop-color:#a47b62"/></linearGradient><path d="M89.4 51a4.9 4.9 0 0 0-9-2.3l-.2.2-.1.3-5.7 10.9-11.7 4h-.2a11 11 0 0 1-3.5-.6c-1.3-.6-3.4-1.1-4-.4q-.5.3 0 1.1t2 1.3q-1 .3-1.8.2l-1.8-.1c-1.8-.3-3.2-.5-3.5.4v.8l.4.4h-.5q-.4 0-.6.3l-.2.6q.3.9 1.5 1.2h-.2l-.2.2q-.2.3-.1.6.2 1 1.9 1.2h.1-.2q-.7.3-.8.5l-.1.5q.5 1.1 3.2 1c1.7 0 3.8-.2 5.4-.7l.6-.1 2.4-.8h.2L78 67.1h.3l.4-.1v-.1h.1q1.3-.6 2-1.8L88 54.9l.8-1.1v-.2a5 5 0 0 0 .5-2.5" style="fill:url(#t)"/><path d="M55.4 67.6q0 .3-.2.3s-3.8-.2-5.4-.7h.5q2.6.3 4.9.2zm-5.1 1.8q2.6.5 5 .5.3 0 .3-.2t-.3-.3l-4.8-.1zm5.6 2.1q0 .3-.3.3-2 0-3.8-.4h3.8q.2-.1.3.1" style="fill:#91674d"/><path d="m45.1 96.9 1.3 6.9h7l.3-7.8z" style="fill:#e0e0e0"/><path d="m59.6 104.4-6.3-2.2h-7.1s-2 2.2-2 4.2v2.8q0 1.1 1.2 1.2h15.8q.9 0 1-1v-1.3a4 4 0 0 0-2.6-3.7" style="fill:#e53935"/><path d="M78.7 96.7 70 98.6l3.3 5.8 7.4-.6z" style="fill:#e0e0e0"/><linearGradient id="u" x1="64.2" x2="82.3" y1="21.6" y2="21.6" gradientTransform="matrix(1 0 0 -1 0 128)" gradientUnits="userSpaceOnUse"><stop offset="0" style="stop-color:#651fff"/><stop offset=".7" style="stop-color:#5914f2"/><stop offset="1" style="stop-color:#530eeb"/></linearGradient><path d="M82.2 106.4c0-2-2-4.1-2-4.1h-7l-6.4 2.1a4 4 0 0 0-2.6 3.8v1.3q.1.9 1 1h15.9q1-.2 1.2-1.2z" style="fill:url(#u)"/><path d="m16.7 89-7.6 4.2 2.5 8 8.6-3.5z" style="fill:#e0e0e0"/><path d="M11.8 92h-1.3q-1.4 0-3 .3l-2.7.9q-1 .3-.7 1.4l4.7 15.1a1 1 0 0 0 1.3.7l1.2-.4a4 4 0 0 0 2.8-3.6l.1-6.7z" style="fill:#e53935"/><path d="m110.8 88-3.3 8.3 9.2 2 2.2-7z" style="fill:#e0e0e0"/><linearGradient id="v" x1="114.4" x2="124.6" y1="29.3" y2="29.3" gradientTransform="matrix(1 0 0 -1 0 128)" gradientUnits="userSpaceOnUse"><stop offset="0" style="stop-color:#651fff"/><stop offset=".7" style="stop-color:#5914f2"/><stop offset="1" style="stop-color:#530eeb"/></linearGradient><path d="m123.8 90.7-2.7-.8a10 10 0 0 0-3-.4h-1.2l-2.5 7.7.1 6.8a4 4 0 0 0 2.8 3.5l1.2.4h.4a1 1 0 0 0 1-.6l4.7-15.1q.2-1.1-.8-1.5" style="fill:url(#v)"/></svg>