<svg xml:space="preserve" width="16" height="16" viewBox="0 0 128 128"><path d="M17.3 95.3c5.5 2.3 26-10.9 30-14C56.2 74.8 58 71 58 71s-4.6 15.7-3.6 25.8 2.9 17.2 7.5 19.8 18.1 1 38-11 26.5-41.2 22.4-55.4c-5-17.2-20.8-26.1-20.8-26.1S94 5.4 82.1 2.7c-13.5-3-31.7 14.5-42.3 20S16.4 34.5 13.7 37 2.3 52.3 4.3 67.2s8.1 26 13 28" style="fill:#f7c876"/><radialGradient id="a" cx="68.5" cy="46.9" r="67.7" gradientTransform="rotate(37 82.25 51.55)scale(1 1.197)" gradientUnits="userSpaceOnUse"><stop offset=".4" style="stop-color:#f7c876;stop-opacity:0"/><stop offset=".5" style="stop-color:#f6c269;stop-opacity:.3283"/><stop offset=".6" style="stop-color:#f3b346;stop-opacity:.9376"/><stop offset=".7" style="stop-color:#f3b142"/></radialGradient><path d="M58 70.9s-4.7 15.7-3.7 25.8 2.9 17.2 7.5 19.8 18.1 1 38-11 26.3-40.6 22.4-55c-5-18.3-20.8-26.5-20.8-26.5S94 5.4 82.1 2.7c-13.5-3-24.2 68.2-24.2 68.2" style="fill:url(#a)"/><radialGradient id="b" cx="27.3" cy="37.3" r="41.4" gradientTransform="rotate(59.2 50.6 50.54)scale(1 1.71)" gradientUnits="userSpaceOnUse"><stop offset=".6" style="stop-color:#f7c876"/><stop offset=".6" style="stop-color:#f6be5f"/><stop offset=".7" style="stop-color:#f5b74d"/><stop offset=".8" style="stop-color:#f4b242"/><stop offset=".9" style="stop-color:#f4b13f"/></radialGradient><path d="M17.3 95.3c5.5 2.3 26-10.9 30-14A37 37 0 0 0 58 71l17.9-38.5s5.9-16 2.7-19.1c-1.9-2-6.2-2.7-9.2 1.5-2.5 3.4-4 12.2-9.8 22-5 9-15.9 18.2-32 21.7-14 3.1-24.6-1-23.2 8.7 2 15 8.1 26 13 28" style="fill:url(#b)"/><linearGradient id="c" x1="54" x2="88.1" y1="52" y2="44.2" gradientUnits="userSpaceOnUse"><stop offset="0" style="stop-color:#f4b13f;stop-opacity:0"/><stop offset="1" style="stop-color:#f4b13f"/></linearGradient><path d="M17.3 95.3c5.5 2.3 26-10.9 30-14A37 37 0 0 0 58 71l17.9-38.5s5.9-16 2.7-19.1c-1.9-2-6.2-2.7-9.2 1.5-2.5 3.4-4 12.2-9.8 22-5 9-15.9 18.2-32 21.7-14 3.1-24.6-1-23.2 8.7 2 15 8.1 26 13 28" style="fill:url(#c)"/><path d="M62.9 111.6c.8 7.8 22.9-1.8 31.9-7.8a53 53 0 0 0 21.3-26C121 66.6 121 57 119.5 57s-1 14-15 28.7c-15.9 16.4-42.7 16.1-41.6 26" style="fill:#cf701e"/><path d="M80.8 105s9-4.4 13-6.8c4.5-2.5 10.8-6.6 10.8-6.6l17.2 11.2-15.2 10.5a45 45 0 0 0-8.2 6.8c-.6 1.3-1.1 5.8-2 5.6s-2.6-1.8-7.5-8.6-8.1-12.2-8.1-12.2" style="fill:#e0e0e0"/><path d="M77.6 16.6c-6-1-6.8 10.5-11.7 25-5 14.4-9.1 28.8-8 29.5.8.6 8.5-13.6 14.3-28.7 5-13.2 9.3-25.1 5.4-25.8" style="fill:#cf701e"/><radialGradient id="d" cx="106.1" cy="32.1" r="13.8" gradientUnits="userSpaceOnUse"><stop offset="0" style="stop-color:#f3b142"/><stop offset=".3" style="stop-color:#f4b54c;stop-opacity:.7178"/><stop offset=".8" style="stop-color:#f6c166;stop-opacity:.2438"/><stop offset="1" style="stop-color:#f7c876;stop-opacity:0"/></radialGradient><path d="m101.4 24 5 8.5c1.5 2.5 6.6 9.8 7.3 11 .8 1.4 6.8-.3 1.4-7.4-6.3-8.3-13.7-12.1-13.7-12.1" style="fill:url(#d)"/></svg>