<svg xml:space="preserve" width="16" height="16" viewBox="0 0 128 128"><radialGradient id="a" cx="66.5" cy="139.7" r="134.9" gradientTransform="rotate(-90.2 46.7 159.55)scale(1 1.285)" gradientUnits="userSpaceOnUse"><stop offset=".3" style="stop-color:#89af7c"/><stop offset=".4" style="stop-color:#649e6e"/><stop offset=".5" style="stop-color:#588f6e"/><stop offset=".6" style="stop-color:#3a676d"/><stop offset=".6" style="stop-color:#3a676d"/><stop offset=".8" style="stop-color:#245379"/><stop offset="1" style="stop-color:#0c3d86"/></radialGradient><path d="M116.6 124.3H11.3a7.5 7.5 0 0 1-7.5-7.6V11.4C3.8 7.3 7.2 4 11.3 4h105.3c4.2 0 7.5 3.4 7.5 7.5v105.3c0 4.2-3.3 7.6-7.5 7.6" style="fill:url(#a)"/><path d="M16.5 121 3.8 108.6v-11s9.8 0 16 1.5c7.7 2 15 6 15 6s10.4-5 22.2-6.7c9.5-1.3 27.6-4 43-1.6a44 44 0 0 1 18.2 7.7l4-1 2-.5v5.5l-9.5 11.6z" style="fill:#2d2d2d"/><path d="M22.4 56.9h48.3v1.5H22.4z" style="fill:#f86e49" transform="rotate(-89.7 46.62 57.7)"/><path d="M35.3 45.2h1.5v35.4h-1.5zm-10 9.3h1.5v25.6h-1.5zm-9.5 6.7h1.5v19.2h-1.5zM4.9 65.9h1.5v13.8H4.9zm73.9-18.1h1.5v33.3h-1.5z" style="fill:#f86e49"/><path d="M88.4 56.5h1.5v24.6h-1.5z" style="fill:#f86e49" transform="rotate(-.5 89.18 68.77)"/><path d="M98.5 65h1.5v15.3h-1.5zm10 6.5h1.5v9.2h-1.5z" style="fill:#f86e49"/><path d="M3.8 64.8c4.8-2.4 14.7-7.9 25.7-17 17.4-14.4 26-27.7 26.2-28l2.1.3c.7 0 2.2-.9 2.6-.3 0 .2 9.8 17 29.9 34.8a109 109 0 0 0 33.8 19.9v4a112 112 0 0 1-36.3-21A161 161 0 0 1 58 22.3 142 142 0 0 1 3.8 69z" style="fill:#a42718"/><path d="M124.2 108.4v8.3c0 4.2-3.4 7.6-7.6 7.6H11.3a7.5 7.5 0 0 1-7.5-7.6v-8.2z" style="fill:#024fac"/><path d="M44 124.3h41.8s.8-.2.7-1.5c-.1-2-3.2-2.3-3.2-2.3s7.2-.3 9-2c1.4-1.4 1-3.6 0-3.8-.8-.2-55.3-1-55.3-1s-1.6.1-1.3 2.6c.2 1.8 2.8 3.2 5.3 3.4l4.6.4s-2 .5-2.2 2.4a2 2 0 0 0 .6 1.8" style="fill:#1a1a1d"/><path d="m60.2 102 10.4-10.9m-10.5.4 9.9 10.7" style="fill:none;stroke:#fe5317;stroke-width:2.3;stroke-miterlimit:10"/><path d="M3.8 79.5h120.3v9.1H3.8z" style="fill:#ff5117"/><path d="M6.7 78h1.5v10.9H6.7zm11.2-5.5h1.5v16.8h-1.5zm9.7-6.3h1.5v23.3h-1.5zM38 57.6h1.5v31.5H38zm10.2-9.8h1.5v41.4h-1.5zm33-17.4h1.5v58.9h-1.5zm9.4 10.8h1.5v47.7h-1.5zm9.8 9.6h1.5v37.9h-1.5zm10.7 7.5h1.5v30h-1.5zm9.7 6.5h1.5v23.9h-1.5z" style="fill:#f86e49"/><path d="M124.2 62.2a108 108 0 0 1-49-42.3L72 21.6c.3.6 7 14.2 25 28.5a109 109 0 0 0 27.2 16.2z" style="fill:#a42718"/><path d="M53.6 101.6 54 42h1.6V19.9H57v-2.2q0-1.6 1.3-1.8c1.9 0 1.9 3.3 1.9 3.3s2 1.7 5.8 1.6 4.7-1.4 4.7-1.4 0-3.7 1.4-3.7q1.5 0 1.7 1.8v2.4h1.5L75 42h1.2l-.4 60-6.1-.4-.1-11.9V86l-.4-60h-8.1l-.6 59.8v4.4l-.1 11.3zM59 63.1h14.6l-3.6-7s-2.6 1.2-5 1.2-5.5-2.6-5.5-2.6zm1.3-17.6s1-1 2-1.5c1.1-.6 4.8-.6 6.1 0a13 13 0 0 1 2.4 2.5l-.6-12s-1 4-4.7 4.4c-1.8.1-5.2-2.1-5.2-2.1z" style="fill:#fe5314"/><path d="M59 20.2c1.3 1.2 4 2 6.1 1.9 3 0 6-1 6.9-1.6.2-.1.1-4.8.1-4.8s-.8-.1-1.2.7c-.5.8-.3 2.8-.3 2.8s-1.7 1.5-5.5 1.5c-3.2-.1-4.7-1.3-4.7-1.3s-.3-2.3-.7-3c-.5-.7-1.3-.5-1.3-.5s.3 4 .6 4.3m2 16.1c-.6-.2-.5.9.3 1.8 1 1.4 6 1.2 7.2.2q1-1 .8-2c0-.3-2 1-4.2 1-2.2-.1-3.5-.8-4.1-1m0 19.1c-.6.2-.2 1.4.8 2.3 1.5 1.3 5.5 1.1 6.6.2 1.1-.8 1.4-2 1-2.4s-2.4 1-4 1c-2.6 0-3.9-1.2-4.4-1" style="fill:#f86e49"/><path d="M124.2 92.9H3.8v-4.4H124z" style="fill:#a42718"/><path d="M57.2 37.2h1.5v51.3h-1.5z" style="fill:#f86e49"/><path d="M3.8 77.6c4.9-2.2 18.5-9 35.8-24 21.6-19 28.6-32.8 29.6-33.6l1.4-.8 1 .4-.1 2A134 134 0 0 1 42 56.5 144 144 0 0 1 3.7 81.8z" style="fill:#a42718"/><path d="M51.4 111.9s-9.6 0-11.9.2c-1.5.2-3.6 1-3.7 2.4-.2 1.7 1.7 3 6.6 3h45.7q5 0 5-2.8c-.2-1.9-3.8-2.2-6.1-2.5-2-.2-9.3-.4-9.3-.4s.2-8.4-.2-9.3c-.4-.8-13.7-.7-13.7-.7s-12.1-.2-12.3.6z" style="fill:#4f838f"/><path d="M52.2 101c-1 .3-.8 2-.8 2h26.2s0-1.7-1-1.9c-1.5-.2-23.4-.4-24.4 0" style="fill:#79aec0"/><circle cx="67.1" cy="8.7" r="1.5" style="fill:#ffbb23"/><ellipse cx="21.9" cy="20" rx="1.8" ry="1.6" style="fill:#fac018" transform="rotate(-67.4 21.88 20.04)"/><circle cx="36.8" cy="19.5" r="1.4" style="fill:#ffbb23"/><circle cx="88.6" cy="23.5" r="1.3" style="fill:#ffbb23"/><path d="M98.4 35.5q-.2 1.5-1.5 1.6-1.2-.1-1.4-1.4-.1-1.8 1.3-1.6c.7 0 1.5.3 1.6 1.4" style="fill:#ffbb23"/><ellipse cx="117.8" cy="26" rx="1.5" ry="1.6" style="fill:#ffbb23" transform="rotate(-15.6 117.81 25.97)"/><ellipse cx="11.8" cy="33.8" rx="1.4" ry="1.5" style="fill:#ffbb23" transform="rotate(-45 11.78 33.76)"/><path d="M30.3 33s-1.5-2.6-2-2.5-.3 3.3-.3 3.3-2.8.6-2.9 1c0 .5 3 1.5 3 1.5s-.2 3.1.2 3.2 2.3-2.4 2.3-2.4 2.6.9 2.9.6c.1-.2-1.5-2.7-1.5-2.7s1.6-2.2 1.4-2.6-3 .6-3 .6m69.4-16.1s1.9-2.3 2.2-2.2c.2.1 0 3 0 3s2.8-.1 2.8.3-2.2 1.7-2.2 1.7l1 2.6c-.2.2-2.7-1-2.7-1s-1.1 2.4-1.5 2.4-.8-2.9-.8-2.9-2.5.1-2.6-.2 2-2 2-2-1.6-2.5-1.2-2.9c.3-.3 3 1.2 3 1.2" style="fill:#ffbb23"/></svg>