<svg xml:space="preserve" width="16" height="16" viewBox="0 0 128 128"><path d="M103.2 74.6a455 455 0 0 0-15.4-56c-3.4-8-7-15.3-23.8-14.5-14.7.6-27.5 2.8-36.5 17.8-6.8 11.5 12.2 66.6 17.3 71.4 2 1.8 6 2.6 10.8 3 2.3 6.8 5.6 16.3 7 19.3 0 0 18.3-1.5 22.2-2.1 6.7-1 7.2-6.9 5.7-12.4-.6-2.2-1.6-5-2.5-7.6 7.2-1.9 11-4.6 13-8.3 1.9-3.2 2.3-7 2.2-10.6" style="fill:#b9e4ea"/><path d="M89.1 84.6c-9.4 1-13.6 0-16.5-2.5Q71 80.7 71 78.5c.5-4.6 1-7.3-1-14.8l-9.6-36.5c-3.6-15.4-16.3-17.1-26.7-11.1-7 4-10.5 11.3-8.5 20.3L38 84.5q2.4 8.9 7.6 10.5a12 12 0 0 0 4.5 1.6l4.4 11.6c2.1 5.4 4.2 7.4 8.2 7.4s8.4-3 6.9-9L66.9 97l11.6-.9c18.2-.8 23.8-9 24.6-17 0 0-3.5 4.3-14 5.4" style="fill:#82aec0"/><ellipse cx="61.6" cy="106.6" rx="4.3" ry="5.6" style="fill:#2f7889" transform="rotate(-10.6 61.6 106.6)"/><path d="M35.4 35.6a2.2 2.2 0 0 0-2.2-3.7l-7.5 4.5 1.1 4.4zm3.6 7.6c-.7-1-2-1.4-3-.8L28.4 47l1.1 4.4 8.7-5.2c1-.6 1.4-2 .8-3m2.7 10.6c-.6-1-2-1.4-3-.8l-7.6 4.6 1.1 4.4 8.8-5.2c1-.7 1.4-2 .7-3m2.8 10.5c-.6-1-2-1.4-3-.7l-7.7 4.6 1.1 4.4 8.9-5.3c1-.6 1.3-2 .7-3m2.8 10.6c-.6-1-2-1.4-3-.8l-7.8 4.7 1.1 4.5 9-5.4c1-.6 1.3-2 .7-3" style="fill:#424242"/><path d="M57.1 19.1c-4.4 1.6-13.7 7.5-13.7 7.5a2.2 2.2 0 0 0 2.3 3.8s8.7-6 13.5-7c3.5-.8 11.9-1 11.9-1L69.9 18s-10.7.3-12.8 1m3.2 11.1c-4.5 1.5-13.8 7.2-13.8 7.2-1 .6-1.4 2-.8 3a2 2 0 0 0 3 .8s8.8-5.8 13.6-6.7c3.6-.8 12-1 12-1L73 29.1s-10.6.3-12.8 1M63.5 41c-4.5 1.5-14 7-14 7a2.2 2.2 0 0 0 1 4.2l1.2-.3s9-5.7 13.7-6.5c3.6-.7 12-1 12-1l-1-4.2s-10.7.2-12.9.9M66.8 52c-4.6 1.4-14.2 6.8-14.2 6.8-1 .6-1.4 1.9-.9 3a2.2 2.2 0 0 0 3 .9s9-5.5 13.8-6.3c3.7-.6 12-.9 12-.9l-.9-4.3s-10.7.3-12.8.9M70 63c-4.6 1.3-14.3 6.5-14.3 6.5a2.2 2.2 0 1 0 2 4s9.1-5.4 14-6c3.6-.6 12-1 12-1l-.9-4.2s-10.7.2-12.8.8m17.7-45h-7l1.2 4.3h7.3c-.3-1.2-1.4-3.8-1.5-4.3M85 33.4l7.7.2-1.2-4.3-7.6-.2zm3.2 11.1 7.7-.1-1.2-4.2H87zm3.2 11h7.5l-1.1-4.3h-7.6zm3.1 11.1h7.2l-1-4.3h-7.3zm-33.6-53c-2-2-2-4.1-6-6-4.2-2.2-9-.7-9-.7s7.9-3.1 12-1.8c3.4 1.2 5.5 3.9 6.3 6.1q.8 2.2-.9 3c-.3.2-1.4.4-2.4-.6m6.9-4.4c-2.4-5.2-7.2-5-7.2-5s5-.7 7.2.3a8 8 0 0 1 4.7 5.3c.4 1.1.6 3-1.4 3.2-1.8.2-2.7-2.4-3.3-3.8m7.9-.3C73.6 4.3 69 4.1 69 4.1s8.4-.4 11 6c.4 1 .3 2.4-.9 2.5-1.8.2-2.9-2.3-3.5-3.7m-8.8 88.2q3.6-2 6-5.4a20 20 0 0 0 4-7.1c.6-2.3.8-6 .6-8.3-.3-2.6 0-4 2-4.3 1.2-.1 2.6.8 3 4 .4 3.5.2 5.8-1.2 9.7a19 19 0 0 1-6 8.2c-3.8 3.2-8 3-8.4 3.2m11.7-.9s11-6.4 9.5-18.5c-.3-2.2-1.3-6.2 1.4-6.5 1.2-.2 3 1 3.2 6 .4 10.5-5 15.2-7.2 16.7-3.1 2-7 2.3-7 2.3m10.1-1.4s5-3.1 7-8.4a21 21 0 0 0 1.3-9c0-2.2-1.6-6.2 1-6.3 2.3 0 3.1 3.7 3.2 5.7.3 4-1.2 8-3.5 11.7-3.2 4.9-9 6.3-9 6.3" style="fill:#2f7889"/><path d="m69 124-1.7-8.8 8-.7s2.2-2.7 2-5c0-2.3-1-5.4-1-5.4l8.2-1s1.3 4.4 1 6.4a9 9 0 0 1-2.2 4.2l2.5 10.3z" style="fill:#82aec0"/><path d="M42.7 29.6a2 2 0 0 0 3 .8s8.7-6 13.5-7v-.1a20 20 0 0 0-2.1-4.2c-4.5 1.7-13.7 7.5-13.7 7.5-1 .6-1.4 2-.7 3m3.8 7.7c-1 .6-1.4 2-.8 3a2 2 0 0 0 3 .8s8.8-5.8 13.6-6.7l-1.1-4.5-.9.2c-4.5 1.5-13.8 7.2-13.8 7.2M49.6 48a2.2 2.2 0 0 0 1 4.2q.5 0 1-.3s8.8-5.6 13.7-6.5L64 41h-.5c-4.6 1.5-14 7-14 7m3.1 10.8c-1 .6-1.4 1.9-.9 3a2.2 2.2 0 0 0 3 .9s8.6-5.3 13.5-6.2L67 52h-.2c-4.6 1.4-14.2 6.8-14.2 6.8M69.9 63c-4.6 1.4-14.2 6.5-14.2 6.5a2.2 2.2 0 1 0 2 4s8-4.7 13-5.9l-.6-3.9z" style="fill:#424242"/><path d="M56 18.6c-3.4-4.8-5.2-3.8-7.6-4.9-2.1-1-1-2.2 0-2.7a7 7 0 0 1 5.9.2c1.7 1 3.5 1.8 4.2 6 .4 1.8-1.6 2.4-2.4 1.4m8 6.6q-1.2-3-4-2-1.5.3-.5 2.7c1 3.3 1.3 4.3 3.1 3.8 1.6-.4 2.1-2.2 1.4-4.5m-.4 8.9c-1.3.3-1.6 1-1 3 .8 2.5 2.2 2.2 2.8 2q1.7-.5 1.6-3c-.2-1-.7-2.7-3.4-2" style="fill:#fff"/><path d="m81.2 85.7.2-.7a21 21 0 0 1-4.6-.7v.3c-.9 3-2.1 4.6-4 7a19 19 0 0 1-6 5.5h.1c1-.1 4.8-.2 8.3-3.2q4.1-3.3 6-8.2M92 84.2l-2.9.4-1.7.2c-2.2 7.5-9 11.4-9 11.4s3.9-.3 7-2.3c1.7-1.1 5-4 6.5-9.7" style="fill:#424242"/><path d="m88.5 94.8 1.8-.6-1.6.5z" style="fill:#2f7889"/><path d="M97.5 88.5q2.3-3.6 3.2-7.4-1.5 1-4.2 2l-1 3.3a19 19 0 0 1-6.8 8.3l1.6-.5c2-.8 5.1-2.6 7.2-5.7" style="fill:#424242"/></svg>