<svg xml:space="preserve" width="16" height="16" viewBox="0 0 128 128"><g style="opacity:.85"><path d="M4 33.8h120v62H4z" style="fill:#b7855f"/></g><linearGradient id="a" x1="18.2" x2="87.2" y1="79" y2="57.9" gradientUnits="userSpaceOnUse"><stop offset="0" style="stop-color:#424242"/><stop offset=".4" style="stop-color:#44545b"/><stop offset=".5" style="stop-color:#455a64"/><stop offset=".7" style="stop-color:#445157"/><stop offset="1" style="stop-color:#424242"/></linearGradient><path d="M124 35V18.2H4V35h12v59.7H4v17h120v-17h-12V35zm-10.7-9q.2-1.5 1.7-1.6h2.2q1.5.1 1.6 1.6v4q-.1 1.6-1.6 1.7H115q-1.5-.2-1.6-1.7zm-98.6 4q-.2 1.6-1.7 1.7h-2.2q-1.5-.2-1.6-1.7v-4q.1-1.5 1.6-1.6H13q1.6.1 1.7 1.6zm0 73.6q-.2 1.6-1.7 1.7h-2.2q-1.5-.2-1.6-1.7v-4q.1-1.6 1.6-1.6H13q1.6.1 1.7 1.6zm98.6-4q.2-1.6 1.7-1.6h2.2q1.5.1 1.6 1.6v4q-.1 1.6-1.6 1.7H115q-1.5-.2-1.6-1.7zM101.9 26q.1-1.5 1.6-1.6h2.2q1.6.1 1.7 1.6v4q-.2 1.6-1.7 1.7h-2.2q-1.5-.2-1.6-1.7zm-11.6 0q.1-1.5 1.7-1.6h2q1.6.1 1.7 1.6v4q-.2 1.6-1.7 1.7h-2q-1.6-.2-1.7-1.7zm-11.6 0q.2-1.5 1.7-1.6h2.2q1.5.1 1.6 1.6v4q-.1 1.6-1.6 1.7h-2.2q-1.6-.2-1.7-1.7zm-11.5 0q.1-1.5 1.6-1.6H71q1.5.1 1.6 1.6v4q-.1 1.6-1.6 1.7h-2.2q-1.5-.2-1.6-1.7zm-11.6 0q.1-1.5 1.6-1.6h2.2q1.6.1 1.7 1.6v4q-.2 1.6-1.7 1.7h-2.2q-1.5-.2-1.6-1.7zM44 26q.1-1.5 1.7-1.6h2.1q1.6.1 1.7 1.6v4q-.2 1.6-1.7 1.7h-2.2Q44 31.5 44 30zm-11.6 0q.2-1.5 1.7-1.6H36q1.6.1 1.7 1.6v4q-.1 1.6-1.6 1.7H34q-1.6-.2-1.7-1.7zm-11.5 0q.1-1.5 1.6-1.6h2.2q1.5.1 1.6 1.6v4q-.1 1.6-1.6 1.7h-2.2q-1.6-.2-1.6-1.7zm5.4 77.6q-.1 1.6-1.6 1.7h-2.2q-1.6-.2-1.6-1.7v-4Q21 98 22.5 98h2.2q1.5.1 1.6 1.6zm11.6 0q-.1 1.6-1.6 1.7H34q-1.6-.2-1.7-1.7v-4Q32.5 98 34 98h2q1.6.1 1.7 1.6zm11.6 0q-.2 1.6-1.7 1.7h-2.1q-1.6-.2-1.7-1.7v-4q0-1.6 1.6-1.6h2.1q1.6.1 1.7 1.6zm11.6 0q-.2 1.6-1.7 1.7h-2.2q-1.5-.2-1.6-1.7v-4q0-1.6 1.4-1.6h2.2q1.6.1 1.7 1.6zm11.5 0q-.1 1.6-1.6 1.7h-2.2q-1.5-.2-1.6-1.7v-4q.1-1.6 1.6-1.6H71q1.5.1 1.6 1.6zm11.6 0q-.1 1.6-1.6 1.7h-2.2q-1.6-.2-1.7-1.7v-4q.2-1.6 1.7-1.6h2.1q1.6.1 1.7 1.6zm11.6 0q-.2 1.6-1.7 1.7H92q-1.6-.2-1.7-1.7v-4q.1-1.6 1.6-1.6H94q1.6.1 1.7 1.6zm11.5 0q-.1 1.6-1.6 1.7h-2.2q-1.5-.2-1.6-1.7v-4q.1-1.6 1.6-1.6h2.2q1.6.1 1.7 1.6zm.8-9H20V35h88z" style="fill:url(#a)"/><path d="M4.7 18.2H124" style="fill:none;stroke:#757575;stroke-width:.9587;stroke-miterlimit:10"/><linearGradient id="b" x1="27" x2="88" y1="80.9" y2="54.9" gradientUnits="userSpaceOnUse"><stop offset="0" style="stop-color:#ffcc80;stop-opacity:0"/><stop offset=".5" style="stop-color:#ffcc80;stop-opacity:.4"/><stop offset="1" style="stop-color:#ffcc80;stop-opacity:0"/></linearGradient><path d="M20.3 35.1h88.1v59.7H20.3z" style="fill:url(#b)"/></svg>