<svg xml:space="preserve" width="16" height="16" viewBox="0 0 128 128"><path d="m114.6 110.7-98.1-2.2c-1.7 0-5.8-2.9-5.8-4.5L5.9 23.5c-.5-4.9 4.6-5.7 8.5-6.2h97.9c9 0 9.8 1.3 9.8 3.7l-2.6 82.1c0 1.7-1 7.6-5 7.6" style="fill:#bdbdbd"/><path d="M119 21.2c.3-1.6 2.1-2.6 2.1-2.6-1.6-1.6-11.1-1.3-12.2-1.3 1 .1 6 1 7 2.4 2 3-.7 63.8.8 63.8.5 0 .6-3.2.7-3.5l.5-9 .4-12.3.3-13.3c0-4 .2-23.1.4-24.2m-2.9 71.7q.5 1.6.8 3.3a26 26 0 0 1 0 6.6q-.2 1.6-.8 3.3l-.8-3.3a24 24 0 0 1 .8-10" style="fill:#919191"/><path d="M114.6 110.7H14.8c-5.6 0-8.8-5.2-8.8-9.5V23.5a3 3 0 0 1 3-3h99.7a3 3 0 0 1 3 3s-.3 71.5 0 77.6c.6 9.1 2.9 9.6 2.9 9.6" style="fill:#eee"/><g style="opacity:.7"><path d="M14.1 65.3h25m-25 7h25" style="fill:none;stroke:#9e9e9e;stroke-width:1.5;stroke-miterlimit:10"/></g><g style="opacity:.7"><path d="M46.7 58.5h25m-25 7h25m-25 6.9h25" style="fill:none;stroke:#9e9e9e;stroke-width:1.5;stroke-miterlimit:10"/></g><path d="M14.1 30.1h90.2M14.1 47.5h90.2" style="fill:none;stroke:#757575;stroke-width:1.5;stroke-linejoin:round;stroke-miterlimit:10"/><g style="opacity:.7"><path d="M79.3 58.5h25m-25 7h25m-25 13.9h25m-25 6.9h25m-25 6.9h25m-25 7h25m-25 6.9h25" style="fill:none;stroke:#9e9e9e;stroke-width:1.5;stroke-miterlimit:10"/></g><path d="M14.1 35.1h32.6v7.4H14.1zm59.5 0h30.7v7.4H73.6zM79.3 70h25.1v4.4H79.3z" style="fill:#9e9e9e"/><path d="m15.8 108.7.5.6z" style="opacity:.2;fill:#424242"/><path d="M14.1 56.3h25.1v4.4H14.1z" style="fill:#9e9e9e"/><path d="M71.8 102.8c0 4.1 2.5 8 2.5 8H18.2s-4.1-2-4.1-8V78.5h57.7z" style="fill:#ccc"/><path d="M66.5 104.9s-1 .7-.7 1c.2.4.3 1.2.7.7s.5-2 0-1.7m-1.3 1.4c-.7 1.4-3.7 2.7-1 1.8 1.9-.6 1.7-1.4 1.5-1.8q-.2-.3-.5 0M30.8 110l3-3.2q.4-.4.4-1t.6-.8l.6-.1q.4 0 .6-.4l1-1.8q.3-.8-.4-1.1l-1.5-.7q-.4-.3-.6-.8l-.5-.6-.7-.6q-.7-.5-1.6-.6l-1-.1a1 1 0 0 0-1 .5l-.4.1-.4-.3V98q0-.3-.4-.3a.4.4 0 0 1-.4-.5V97q.1-.2-.2-.3h-.6q-.4.4-.7 0v-.4l.1-.4q.3-.6.9-.7h.5q.4-.1.6.4t.7.4l.2-.3v-1Q31 93 33 92.3l.7-.3q.8-.4.5-1.2l-1-2.2q-.1-.3-.4-.1t-.5-.2l-.4-.7a.8.8 0 0 0-1.5.3l-.2 1.7a.4.4 0 0 1-.6.3L28 88.3l-.1-.7q.3-1 1.3-1.1h.3q.8-.3.8-1l-.1-1.1q-.1-.8-1-.7l-2.4.4q-1.6.3-2.8-.5l-1-.6h-.7l-.6.2c-1.1.9-5.3 1-5.5 1l-.2.2-.2.4q0 .2.2.3.4.1.2.5l-.4.4.1.3 1.5.7q.7.3 1.6.2l.9.2v.1q1 .6 1.6 1.5l.5.6q.5.8.5 1.7v.8q0 .8.4 1.3l1.8 3q.3.6 1 .9l1.8.7h.1l.8 1 .2.2q.5 0 .3.6-.4.6-.2 1.2l.2 1.3q.2.7.6 1l.3.3q.6.6.4 1.4l-1.3 4.4v1.1h1.5q0-.3.3-.6M38 82.6l-2.5-.5h-1.7l-.6.2-1.9 1.1v.5l.6.4q.3 0 .1.3t.4.5l.2.1q.4 0 .4.4v.4q.1.5 1 .5h.5l.6-.3 3.1-3.1q.1-.3-.2-.5m1.3 2.8a.4.4 0 0 0-.6-.1l-.2.1-.2.5v.3l-.2.5q-.1.4.2.7l.1.1h.3q.1-.3.3 0 0 .3.4.2l.4-.2q.2 0 .3-.3.2-.3 0-.8zm30-.8-.7-.5-6.9-.9-3.9-.6h-.7l-4 1-1.6.1h-5.4l-2.6-.6-.6.1-.8.4-.5.6-.2.5q-.1.5-.5.8-.3.2-.3.6v.6l.2.3h.3l.3-.3.3.1.1.3q.3.6.8.4l.1-.2.3-.7q0-.5-.2-.7v-.3l.7-1.2q0-.1.1 0h.1v.1l-.2.6v.2q-.2 0-.2.2v.2q.3.5.9.5h.1q.2.2 0 .4H44l-.2.1v.4l.2.1v.2h-.6l-.3.7-.2.1h-1l-.3-.2v-.2q-.2-.3-.4-.1v.2q0 .2-.3.4h-.1q-.3 0-.3.2t-.4.5l-.6.3q-.3 0-.2.6l.1.3q.3.5-.4.5t-.8.7v.2q0 .3.4.5h.5q.5 0 .8-.3l.3-.5q.1-.3.6-.5.6-.1.8.2l.4.5q.2.3.5.2.4-.1.1-.5l-.5-.4v-.3h.3l.4.4q.3.2.2.7v.1l.4.4h.4v-.3h.3l.2-.1.2-.4v-.1h-.1v-.3l.5-.8h.3l1.7.8-.3.7-1.6-.1h-.2l-.3.5v.3l.2.1h.7q.3 0 .2.3l-.2.6q0 .2-.2.1l-1.6-.4h-.2l-.4.6h-.3l-.9-.7-.1-.4q-.1-.4-.5-.3l-1.5.2q-.8.3-1.5.9l-.2.2q-.6.8-.8 2v.4q-.1.8.4 1.3l.7.6q.4.3 1 .3h1.3q.7 0 .9.6l.3 1.2v1.2q0 .8.2 1.4l.7 1.9q.2.4.8.4l.2-.1q.8-.2 1.2-.9l.8-1.4.6-.8.2-.6v-1q0-.6.5-1l.6-.6.5-.8v-.3q0-.5-.4-.4-.8.3-1.2-.4l-1-2.2q0-.2.2-.3l.2.1.9 1.8q.4.7 1.1.3l1.2-.7c.4-.2-.3-1-.4-1l-.2.1h-.3l-.2-.7v-.3q.2-.1.4 0 .5.4 1.2.6l1 .1q.3 0 .4.3l.6.6.3.7.4 1q.1.5.6.3l.2-.2v-.2l.1-.2q0-.7.6-1l.8-.6h.3l.4 1q0 .3.4.2l.2.2.2 1 .3.6-.2.1-.5-.3h-.2v.2l1.4 1.7.6.3 1.9.5.1-.1v-.2l-1.4-.4q-.6-.2-.8-.9v-.5L57 98l-.6-.8v-.3q0-.2.3-.1l.4.4h.3l.3-.4q.2-.2 0-.6l-.2-.3v-.8l.4-.1h1q.3 0 .5-.4l.3-.7v-1l-.4-.8V92l.6-.4h.2l.3.3v.1l.2.7q0 .2.3 0l.3-.2v-.2l-.1-.6v-.2l.5-.5h.1l.6-.1.2-.1.6-2q.1-.4-.1-.7l-.3-.2v-.3l.5-.5q.5-.4 1.1-.4h.2q.6 0 1-.3l.3-.2q.4-.4 1-.4h.1l-1.2 1.6-.1.5v.4q.2.5.5.2l.8-1V87q0-.4.4-.5l.7-.1.3-.1 1-.7q.3-.1.2-.5zM48.7 92l-.2.1h-.6l-.1-.3.1-.4v-.2l-.3-.6v-.3l.8-.4.3.1v.3l-.2.1q-.3 0-.1.3l.4.4zm14.9-2 .1-.7q0-.3-.2-.3h-.2v1.3l-.2.5-.4 1-.6.7-.6.5v.5q0 .2.2.1l1.3-.8q.4-.3.4-.7v-.8l.4-.4q.3-.1 0-.4zm-3.1 4.3h-.2l-.1.3v.4l.2.4h.1v-.2l.1-.3v-.6m-.9 3.3h-.3l-1.2.7-.2.4.2.4.2.1.8.2q.4 0 .4-.2l.3-1V98q0-.3-.2-.3m4.3 1.8-1.4-.7h-.7q-.4.1-.1.5l.6.7q.2.2.5.2h.5q.3-.3.6 0l.5.4v-.2l-.1-.5q0-.3-.4-.4m.4 2.7-.8-1.2-.1-.2-.1-.1h-.1l-.1.1v.4q0 .4-.4.3l-.5-.1v-.7l-.7-.1q-.4 0-.6.2l-1 1-.4.2-.8.2q-.3.2-.3.6l.3 1.4v.1q-.1.2 0 .4l.3.2q.4.3.9.1l1-.3.7.1.3.2h.6v.2l.6.5.4.1h.7l.3-.3.2-.4.4-1.7-.2-.6zM48 101.1q0-.2-.3 0l-.3.3-.4.6v.4q0 .7.5.7.3 0 .4-.2l.4-1v-.3zm-16.9-4.7h-.7l-1 .2q-.3.1-.1.2v.1q.3.3.7.2h.8l1.7.2h.2l.1-.2v-.2zm2.5.6-.2.2-.2.2v.1l1.3.4h.3c.2-.2-.7-.7-1.2-.8" style="opacity:.24"/><circle cx="60.3" cy="38.6" r="12.5" style="fill:#eee"/><circle cx="60.2" cy="38.5" r="9.8" style="fill:none;stroke:#757575;stroke-width:2;stroke-linejoin:round;stroke-miterlimit:10"/><path d="M53.7 45.5a10 10 0 0 1 13 0m0-14.1a10 10 0 0 1-12.6.3m-3.7 6.8H70m-9.8-9.8v20.2" style="fill:none;stroke:#757575;stroke-linejoin:round;stroke-miterlimit:10"/><path d="M60.2 29.5s-5.5 2.4-5.5 8.7 5 9.4 5 9.4m.5-18.1s5.3 2.4 5.3 8.7-5 9.4-5 9.4" style="fill:none;stroke:#757575;stroke-width:1.0502;stroke-linejoin:round;stroke-miterlimit:10"/><linearGradient id="a" x1="60.3" x2="60.3" y1="91.1" y2="110.7" gradientUnits="userSpaceOnUse"><stop offset=".2" style="stop-color:#212121;stop-opacity:0"/><stop offset="1" style="stop-color:#212121"/></linearGradient><path d="M111.8 101.1q-.2-2-.2-10H6v10c0 4.4 3 9.6 8.7 9.6h99.9s-2.3-.5-2.8-9.6" style="opacity:.3;fill:url(#a)"/></svg>