<svg xml:space="preserve" width="16" height="16" viewBox="0 0 128 128"><path d="M28.4 53.3s1.7-18.1 23-28c25-11.5 50.8 4.8 57.6 24.6 5.8 16.9-.7 34.4-7.2 40.1s-15.2 20.5-42.3 19.4-36.4-41.5-31-56" style="fill:#a05d43"/><path d="M50 102.5c3.9 4 15.9 7 26.6 3.6S88 99.4 88 99.4s-16 5.2-25.9.8-15.3-23-15.3-23-7 14.7 3.2 25.3" style="fill:#d27856"/><path d="M22.7 50.6c-2.2 1.6-4 4.9-5.2 7-1.2 2.2-1.4 4.5-5.2 6.8-3.7 2.3-6.9 1.3-8 2.3s.5 4.8 5.1 5.4c4.6.5 6.7-.8 6.7-.8s.4 10.7.4 16.4 3.2 28.2 21.3 31.6c14.6 2.7 22.9-1 27-3 6.8-3.8 8.7-6.2 13.6-7.8s8 0 13.2-2c5.8-2.4 6.9-8.1 10.4-10.7 3.4-2.6 6.2-1.9 9.6-4.6 3.3-2.8 2.5-5.6 8-10.4 2-1.8 4.4-3.3 5-4.9.6-1.5-7.8-2-9.8-2l-4.8.1s-1 4.4-2.4 7.1a70 70 0 0 1-13.4 16.4c-2.9 1.3-4.8 1.3-6.3 2-1.5.5-9.4 4.5-12.7 5s-14 2.8-20-3.5c-5-5.2-6.3-12.2-6.6-16.1s-.3-14.1-.3-14.1 1.7 2 7.4 2c3.4 0 6.1-3.6 5.5-4.9-1-1.6-4.8-1.1-6.7-2.2a15 15 0 0 1-5.1-6.5c-.6-1.5-2-5.3-4.3-7.5a16 16 0 0 0-11.5-4c-5.2.2-8 .8-11 3m21.8 3.5L47 28c.3-3.6 1.7-12 1.7-14.5s-.7-6.6-5-7-5.8 4.8-6 8.4c0 3.6-1.6 34.6-1.6 34.6l-6.2-.2S30 30 30.2 26l.1-12.4c0-1.4 0-7.5-5.5-7.2s-4.9 6.6-5 8.6.9 16.6 1 19.4c.1 3 1.4 19 1.4 19z" style="fill:#e9bb91"/><path d="M33.2 60.4s-1.8 3.9-4.4 3.9-2.6-2.2-4-1.4-.5 4.8 3 5.5c3.4.7 5.4-1.2 5.4-1.2s2.1 1.4 4 1.4c2.6 0 5.3-3.6 4.3-5.3s-2.9 1.3-4.6 1.2-3.7-4.1-3.7-4.1m26-34.4c-4.6 1.5-6.5 3.4-8 4.7-1.3 1.4-1.8 4.4-.2 6.1 1.7 1.8 4.6 1.2 6.1.1 1.6-1 3-2.2 5.4-2.9 2.3-.6 5.9-.8 7-1.4s1.8-2.3 1.5-4.1-1.4-2.9-4-3.3q-3-.5-7.8.9m15 2.6c0 1.3.4 2.4 2.9 2.7 2.8.3 3.8-1 3.7-2.5q.2-2.2-2.8-2.7c-2-.4-3.8.5-3.8 2.5" style="fill:#d27856"/><path d="M46.7 16.4c-.5 4-1.8 7.1-3.9 6.9-3-.3-3-3.7-3-7.9 0-3.8 1.2-6.9 4.2-6.5 2.8.3 3.1 3.7 2.7 7.5M28.5 16c0 4.1-1.3 6.9-3.3 7-2.2.2-3.6-3.5-3.7-7.6 0-3.8.7-6.3 3.5-6.5 3.4-.3 3.6 3.2 3.5 7.1" style="fill:#2e2c2f"/><path d="M89 92.6c-6-.3-14.8-6-15-22.6s6-23.8 13.2-22.6c6.7 1.1 7.8 10.2 7 16.4s-2.5 13.3-6.7 11.3c-4-2-1.9-9.7-1-11.5s2-4 .8-5.2-4 .3-5.1 2.6a20 20 0 0 0-1.3 15c2.3 7.4 11.8 8.2 15.6.9 3.7-7.4 4.6-21.3 1.3-27.7s-14-13.6-24.2-1.8c-9.9 11.4-6.2 31.6-3.8 37.5 2.4 6 7.5 13.2 17.5 14.4s18.7-10.6 19.3-11.7 3.3-4.5 1-6.5-4.9 2.6-5.6 3.5c-.6 1-6.1 8.4-13 8" style="fill:#4f352e"/></svg>