<svg xml:space="preserve" width="16" height="16" viewBox="0 0 128 128"><path d="M64.2 30s-8-1.6-13.6 2-12.9 12.4-18 17S7.4 60.6 5 72.3s2.4 22.4 12.6 33.3c10.2 10.7 25 16 34.5 13.1s14.6-16.5 22.5-24.2 14-12.3 17.7-19.7c4.4-9 1.7-14.7 1.7-14.7z" style="fill:#bbced4"/><path d="M75 45.7c-2-2.1-6.6-10-10-10.6-3.4-.7-10.8.1-16.8 6-5 5-10 10.5-14.9 14s-14 8.5-16.7 10.6a16 16 0 0 0-7 12.1c-.3 5.6 1.8 13.5 11.4 23.8 9.9 10.6 20.1 12.4 26.2 12 8.6-.7 12.4-8.2 14-10.5 2-3 8.2-11.7 11.5-14.2a60 60 0 0 0 14.2-15.5c4.4-8.6 2.6-13.4 2.6-13.4z" style="fill:#f5f3e7"/><path d="M41 58.7c1.2 1.8 4 2 7.8-1.1 3.6-3.1 7.4-6 9.9-7.4 2.5-1.3 7.7-4.6 4-9-3.6-4.6-8.3-.4-10.4 1.7s-4.7 6.2-7.1 9.1c-2.3 2.7-6 4.2-4.3 6.7" style="fill:#fff"/><path d="M70.3 20.4c-5.9 4.9-7.6 7.5-7.9 10-.2 2.6 2 10.7 11 20.8s18.2 15 22 14.4c3.7-.6 6.1-3.4 9.6-6.9 1.4-1.4 5.6-6 5.8-8.4.1-2.3-1.5-11.2-10-21C90.4 17.7 82.3 16 80.2 15.8c-3.8-.2-6.8 2-10 4.7" style="fill:#37b4e5"/><path d="M78 20.3c0 4.6 3.6 12.3 10.5 19.8 8.4 9.1 13.6 11.7 17.6 12.7 2 .4 3.9-.2 3.8-1.4 0-1.3-1.1-.7-5.4-2.3-2-.7-7.3-3.5-13.8-10.9-6.5-7.3-9.2-13-9.6-16.8-.4-4 .8-4.6-.7-5-1.4-.6-2.2 1.2-2.3 3.9m-1.7.7c.7 1.4-2 3.7-4.3 5.9-2.7 2.6-4.7 4.5-5.6 3.3-1-1.4 2.3-4 3.9-5.5 2.4-2.5 5.2-5.4 6-3.8m-2.8 13.4c-3.5 3.3-5.1 4.3-4 5.6 1.3 1.3 4.3-1.8 5.6-3 1.2-1.3 5.4-4.4 4.4-5.8-1.3-1.7-3.9 1.3-6 3.2m7 9.4c-3 2.8-5.7 5-4.2 6.4 1.3 1.1 4.3-2.3 6.2-4.2 1.9-1.8 4.8-4.2 3.7-5.5-1.4-1.5-3.5 1-5.7 3.3M85 57.8c1.3 1.3 3.3-1 5.7-3.5 2.1-2.2 5-4.2 3.6-5.6S90.5 50 88.5 52c-2.4 2.3-4.8 4.6-3.6 5.8m12.8-.2c-3.2 3.3-4.6 4.4-3.3 5.5s4-2.3 6-4 4-3.4 2.8-4.5-3.3.8-5.5 3" style="fill:#1e88fe"/><path d="M121.5 19.8c2.5-2.4 4.3-7.8.3-11.3-3.4-3-8.5-2.1-11.2 1.1s-2.4 5.8-5.4 6.4c-3.2.6-6.6-3.2-14.1-1.8a14 14 0 0 0-7.1 4.6c.3 1.2-.2 7.4 8.5 17.4 7.5 8.6 15 11.2 17 10.7 2-1.8 4.5-4.9 5.2-8.7 1.6-8.3-2.5-11-1.1-13.3 1.7-3 4.6-1.9 7.9-5.1" style="fill:#ffa828"/><path d="M111.5 14.7c1.3 1.7 3.3.4 4.8-1.2 1.2-1.4 3-2.8 2-3.9-1.2-1.5-3.5-.8-4.9.2-1.3 1-2.9 3.6-1.9 5m-21.3 4.5c-.5 2.8 3.3 3.2 5 3.4 1.6.2 5.2.4 5.3-2.2.2-2.3-2.5-3.3-4.8-3.6-2.4-.2-5 .3-5.5 2.4" style="fill:#ffcc8a"/></svg>