<svg xml:space="preserve" width="16" height="16" viewBox="0 0 128 128"><path d="M30.3 95.3a51 51 0 0 0 22.6-6q1.1-.5 2-1.3.5-1 .7-2c.9-2.5 3-2.7 3.5-3 1.3-.6 3.8-2.4 3-4.1-.4-1.1-7.7-4.5-6.2-10.8.7-3 3-1.7 10.2-4.3a17 17 0 0 0 7.6-6.2c6.6-8.8 7.2-17.6 4.2-28Q74 17.1 64.9 7.9c-1.6-1.5-.3-4.1 1.8-3.9A60.2 60.2 0 1 1 8.5 95.4c-1.2-1.8.7-4 2.7-3.3a51 51 0 0 0 19.1 3.2m0 0a51 51 0 0 0 22.6-6q1.1-.5 2-1.3.5-1 .7-2c.9-2.5 3-2.7 3.5-3 1.3-.6 3.8-2.4 3-4.1-.4-1.1-7.7-4.5-6.2-10.8.7-3 3-1.7 10.2-4.3a17 17 0 0 0 7.6-6.2c6.6-8.8 7.2-17.6 4.2-28Q74 17.1 64.9 7.9c-1.6-1.5-.3-4.1 1.8-3.9A60.2 60.2 0 1 1 8.5 95.4c-1.2-1.8.7-4 2.7-3.3a51 51 0 0 0 19.1 3.2" style="fill:#ffe558"/><path d="M16.7 103.6a67 67 0 0 0 44.5 15.3 60.4 60.4 0 0 0 56.6-57.2q.5-13.2-4.7-25.6A60.4 60.4 0 0 1 8.5 95.5q-.6-.9-.3-1.8 3.4 5.5 8.5 9.9" style="fill:#fbc02d"/><radialGradient id="a" cx="44.6" cy="28.7" r="40.9" gradientTransform="matrix(-1 0 0 1.055 128 -1.59)" gradientUnits="userSpaceOnUse"><stop offset="0" style="stop-color:#fff7b3"/><stop offset="1" style="stop-color:#fff7b2;stop-opacity:0"/></radialGradient><path d="M66.7 4a62 62 0 0 0 16.6 22.5c3.7 10.1 6.3 30.8-17.7 39.3l17.2 16.7c.6-.5 0-6.8 10.8-12 3.3-1.7 10.7 1.4 14.2.1 16.7-5.9 7.7-29.9 6.5-32C96.6 4.5 66.7 4 66.7 4" style="fill:url(#a)"/><path d="M87.3 69c-3.5.7-6.3-2.2-6.7-5.5-.3-2.6.8-5 2-6 5.1-4.4 15 0 14.8 8.7q0 1-.7 1.5c-.3-.7-1-4-4-5.4h-.8c-.2.2.4 5.9-4.6 6.8M65.9 93.2c6.5 0 10-2.9 11.6-4.9q.7-1.3-.4-2.2-.7-.5-1.6 0a18 18 0 0 1-16.8.2c-1.1-.5-1.9-2-2.6-1.2-.8.7-.5 2.5.3 3.6 1.3 1.8 3.8 4.5 9.5 4.5" style="fill:#5d4037"/><path d="m62.3 79.8-.1-1c-.5-1-7.8-4.4-6.3-10.7q0-.5.3-.8a10 10 0 0 0 4.8 6.5l2.2 1.3q1.1.8 1.3 2.1-.1 1.6-1.8 2.5z" style="fill:#f2a600"/><radialGradient id="b" cx="-2352.9" cy="72.8" r="16.1" gradientTransform="rotate(-23 -1094.71 -5925.05)scale(1 .8)" gradientUnits="userSpaceOnUse"><stop offset="0" style="stop-color:#fbc02d"/><stop offset="1" style="stop-color:#fbc02d;stop-opacity:0"/></radialGradient><path d="M82.8 82.6c1.6 3.7 7.7 4.7 13.6 2.3 6-2.5 9.5-7.5 8-11.3-1.6-3.7-7.7-4.8-13.6-2.3-6 2.5-9.5 7.5-8 11.3" style="fill:url(#b)"/></svg>