<svg xml:space="preserve" width="16" height="16" viewBox="0 0 128 128"><circle cx="64" cy="64" r="60" style="fill:#98c0d0"/><circle cx="64" cy="64" r="48.1" style="fill:#fcebcd"/><path d="M50.3 15a46 46 0 0 0-25 16.3A57 57 0 0 0 13.2 65s-5.5 6.8-5.7 5.5c-2.1-10 2-32.1 13-44A66 66 0 0 1 55.7 7.3c1-.2-3.5 7.3-5.4 7.9" style="fill:#c2e3f0"/><circle cx="64" cy="64" r="45.6" style="fill:#fff"/><path d="M64 64v29" style="fill:none;stroke:#563428;stroke-width:4;stroke-linecap:round;stroke-miterlimit:10"/><circle cx="64" cy="64" r="5.1" style="fill:#563428"/><path d="M84.5 58.2 64 63.8" style="fill:none;stroke:#563428;stroke-width:6;stroke-linecap:round;stroke-miterlimit:10"/><path d="M64 100v5m0-82v5m0 72v5m0-82v5M28 64h-5m82 0h-5m-72 0h-5m82 0h-5" style="fill:none;stroke:#6596a3;stroke-width:5;stroke-miterlimit:10"/><path d="m46 95.2-2.5 4.3m41-71L82 32.8M46 95.2l-2.5 4.3m41-71L82 32.8m0 62.4 2.5 4.3m-41-71 2.5 4.3m36 62.4 2.5 4.3m-41-71 2.5 4.3M95.2 82l4.3 2.5m-71-41 4.3 2.5m62.4 36 4.3 2.5m-71-41 4.3 2.5m0 36-4.3 2.5m71-41L95.2 46M32.8 82l-4.3 2.5m71-41L95.2 46" style="fill:none;stroke:#b0bec5;stroke-width:3;stroke-miterlimit:10"/></svg>