<svg xml:space="preserve" width="16" height="16" viewBox="0 0 128 128"><path d="m5.7 37.7-1.8 2.7s-.1 3 .6 3.8c.9 1 4.6.7 7.2.8 2.6 0 6 .7 6 .7l6.7-5.3zm.8 31c0 1.6-.3 8.3 5 17.4 3.5 6.2 10.9 13 21.2 13.3 25 .4 29.7-25.3 28.2-32.8-1-5.3-17.2 20.6-17.2 20.6s-20.2 2.6-21.2 1c-1-1.5-16-19.5-16-19.5m59.8-2.4s-1.3 11.5 4.5 21c3.8 6.3 10.8 12 22 12.5s19.7-5.4 24.4-14.1c6-11.2 2.7-22.4 2.7-22.4l-11.8 22L89.6 92S70.4 71.8 70.3 71.5s-4-5.2-4-5.2" style="fill:#464c4f"/><path d="M124.2 27.8c-.3-.6-2.4-.6-4.2-.7A68 68 0 0 0 91.3 33S78.6 28 63 28s-28.6 5-28.6 5-9.4-3.5-15.6-4.7c-7.6-1.3-14.3-.9-14.3-.9-.4.7-.6 13.1-.6 13.1s5.5 0 8.6.4c3.3.6 5.9 1.7 5.9 1.7S5.8 55 6.6 69.6c.6 12 11.1 27 28 26.7 17-.3 26-15.4 26.4-28C61.3 53.9 49.2 43 49.2 43l5.4-2.3 18.5-.2 3.2 3.2s-10.6 11.2-10 24.6 11 28.4 27.4 28.6c17.2 0 26.7-15.7 26.7-29.3 0-12.3-11.4-24.8-11.4-24.8l-.3-1.3 15.3-1.7s.4-11.6.2-12M34 85c-9.2.4-15.7-9-14-18.2 2.1-11.3 13.6-18.4 13.6-18.4s12 7.9 14 19.3C48.6 75 45 84.8 34 85m59.5.4c-8.8-.4-13.6-6.7-13.3-16.1a28 28 0 0 1 12.6-20.8s13.5 8 14.4 20.6c.5 8.4-5.3 16.6-13.7 16.3" style="fill:#606265"/><path d="m76.3 43.7 2.8-3c.4-1-19.1-5-35.8.8a35 35 0 0 0-19.4 13.9c-4 6.3-4 12.3-4 12.3S24.4 49.1 46.6 44c19.9-4.7 29.6-.2 29.6-.2M80.8 65s5.5-15.4 20.8-20.6c9.7-3.4 22.2-1 22.3-1.3l.1-3.4s-13.8-3-26.2 3.2a31 31 0 0 0-17 22" style="fill:#464c4f"/><path d="M7.3 30.4c-1.2.9-1 5.4.7 5.7 2.2.4 3.6-1.6 5-1.9s4.3-.3 4.4-2.2c0-1.8-7.5-3.6-10.1-1.6M12.7 58c2.4 1.5 6-7.6 16.3-14.2 8.4-5.4 16.2-7.3 15.8-9-.5-2.3-10.7-.2-19.8 6.5-8.4 6.4-14.8 15.4-12.3 16.8m25 30.7c.8 2.3 5.8 1.1 8.9-2 3-3 4-6.8 2.2-7.4-2.2-.8-3 2.3-5.7 4.5-2.4 2-6 3-5.4 4.9m72.1-12.1c-2.2-.3-2 2.6-4 5.2-1.9 2.4-5 3.6-4.6 5.4.6 2.3 5.5.8 8-2.8 2.3-3.4 3-7.6.6-7.8M83.9 40.6c-10.2 8.3-13 16.3-11.4 17.5s6.3-8.1 14.2-14.4c7.8-6.2 17.3-7.5 16-10.3-1.2-2.9-12 1.6-18.8 7.2" style="fill:#9a9a99"/></svg>