<svg xml:space="preserve" width="16" height="16" viewBox="0 0 128 128"><linearGradient id="a" x1="25.9" x2="53.2" y1="43.3" y2="43.3" gradientTransform="matrix(1 0 0 -1 0 128)" gradientUnits="userSpaceOnUse"><stop offset="0" style="stop-color:#ffd29c"/><stop offset="1" style="stop-color:#f9ddbd"/></linearGradient><path d="m47.6 75-19-8-2.7 11.4s11.9 4.1 16 5.8q1.2.5 1.5 1.7l3.2 16.4H53l.3-17.3c0-6.5-2.7-8.5-5.6-10" style="fill:url(#a)"/><path d="M29.5 66.3a7.4 7.4 0 0 0-9.5 4.3 7.4 7.4 0 0 0 4.4 9.5l9.3 3.4 5-13.9z" style="fill:#0288d1"/><linearGradient id="b" x1="10.4" x2="36.1" y1="42.6" y2="42.6" gradientTransform="matrix(1 0 0 -1 0 128)" gradientUnits="userSpaceOnUse"><stop offset="0" style="stop-color:#ffd29c"/><stop offset="1" style="stop-color:#f9ddbd"/></linearGradient><path d="m35.6 83.3-5-12-10.8 4.3 4.2 8.8c.4.7.2 1.7-.6 2l-13 7 3.1 6.2 18.2-7.2a7 7 0 0 0 3.8-9.1" style="fill:url(#b)"/><path d="M49 34.5q.8-1.9 1.1-4.6c.4-4.6-1.3-8.8-5.8-11l-.6-.3-1.9-.6h-.3l-.6-.1h-2.6l-1.3.2h-.3l-1 .3h-.2l-1.2.5H34l-1 .5-.2.1-2.2 1.4-.1.1-1 .8c-2.1 2.2-3 10.3-2 14.6 1.2 4.5-1.4 10-1.4 10s-1.3.9-.6 2.2q.3 1 2.2 2.1 1 .6 1.8.6c2.8 0 4.7-3.6 4.7-3.6s1-1.9 2.4-2h.3l3.3.7 1.5.1c4.6 0 4.4-4 5.4-4.7.2-.1 2.6-.3 2.6-1.4 0-1.4-2-3.3-1.6-4.5z" style="fill:#f9ddbd"/><path d="M46 44.2q-1.4-.3-2.2-1.3c-.7-.7 0-1.2.8-.6q.8.5 2 .7z" style="fill:#444"/><ellipse cx="44.3" cy="35.7" rx="1.7" ry="1.1" style="fill:#312d2d" transform="rotate(-74.6 44.32 35.72)"/><path d="M45.6 33.7c.9.7 1.4 0 1.3-.6q0-.8-1.9-1.3c-1.2-.3-2 .2-2.4.5q-.7.4-.3.8c.3.2 2.2-.3 3.3.5" style="fill:#454140"/><path d="M89.2 45.2S86.6 41.4 88 37c1-3.5.7-9.8-.6-13.2a6 6 0 0 0-2-2.8h-.1q-1-1-2.3-1.6l-.1-.1q-1.2-.6-2.5-1L80 18l-1.2-.3h-.2l-1.1-.2H77l-1.2-.2H75l-.9.2-1.8.4c-5 2-7 6.2-6.9 11q.2 2.8 1 4.7L67 35v.2q.2.4 0 1l-.3.5-1.3 2.3-.1.6q.1.8 1.2 1.1l.8.3.5.1.2.2.2.3.5 1.4.2.3v.2l.2.3v.1l.2.3.2.2.2.2.1.2.3.2.2.2.2.1.4.2.2.1 1.4.4h2l2-.3.6-.1h.3l.5-.1h.5l.4.2h.1l.4.3c.7.7 1.2 1.6 1.2 1.6s1.8 3.7 4.6 3.7h.6l.3-.1.3-.1.4-.2h.1l1.8-1.4c1.9-2 .6-4.3.6-4.3" style="fill:#f9ddbd"/><path d="M69 43.5q1.2-.2 2.2-1.1c.6-.7 0-1.3-.8-.7q-.8.5-2 .6z" style="fill:#444"/><ellipse cx="71" cy="35.1" rx="1.1" ry="1.7" style="fill:#312d2d" transform="rotate(-13 70.96 35.13)"/><path d="M69.8 33c-1 .7-1.5 0-1.3-.6q0-.8 2-1.3c1.1-.1 1.9.4 2.3.6s.6.7.3.9-2.2-.4-3.3.4" style="fill:#454140"/><path d="m75 48.7-3-.2c-.8 0-4.7.6-5.5 2a1 1 0 0 0-.1.9q.3 1.3 1.6 1.4h.3l6.9-1.7q1.6-.7 1.4-1.2v-.2c0-.7-1-.9-1.5-1" style="fill:#dba689"/><path d="M56.5 51.7q0-.6-.4-1c-1.2-1-5-.3-6-.1l-2.8 1.1c-.4.2-1.2.7-1 1.5v.2s.5.7 1.8.7l7-.6q1.4-.5 1.4-1.8" style="fill:#edbd82"/><linearGradient id="c" x1="31.5" x2="68.7" y1="74" y2="74" gradientTransform="matrix(1 0 0 -1 0 128)" gradientUnits="userSpaceOnUse"><stop offset=".6" style="stop-color:#f9ddbd"/><stop offset="1" style="stop-color:#ffd29c"/></linearGradient><path d="M68.6 52.1c-.3.9-2.4 2-5.2 3.2l-.4.1-2.6 1-1 .3c-4.7 1.6-10 3-12.8 3h-.7l-.4-.2H45l-6.2-1.3-7.4-1.5 2.7-8.2v-.2l8.3 3 4.3 1.5 14.5-2.1 3.8-.4c2 0 4 .4 3.5 1.8" style="fill:url(#c)"/><linearGradient id="d" x1="56.5" x2="58.5" y1="71.4" y2="73.4" gradientTransform="matrix(1 0 0 -1 0 128)" gradientUnits="userSpaceOnUse"><stop offset="0" style="stop-color:#f9ddbd;stop-opacity:0"/><stop offset="1" style="stop-color:#ffd29c"/></linearGradient><path d="M63 55.4c-.8.4-5 1.8-5.2 1.9-1.9-1-4-3.3-4-3.3l3.4-2.1z" style="fill:url(#d)"/><linearGradient id="e" x1="43.9" x2="38.7" y1="75.7" y2="73.8" gradientTransform="matrix(1 0 0 -1 0 128)" gradientUnits="userSpaceOnUse"><stop offset="0" style="stop-color:#f9ddbd;stop-opacity:0"/><stop offset="1" style="stop-color:#ffd29c"/></linearGradient><path d="m45 59.4-6-1.2-4.7-9.7v-.2l8.3 3z" style="fill:url(#e)"/><linearGradient id="f" x1="86.6" x2="52" y1="75.7" y2="75.7" gradientTransform="matrix(1 0 0 -1 0 128)" gradientUnits="userSpaceOnUse"><stop offset="0" style="stop-color:#ffd29c"/><stop offset=".6" style="stop-color:#f9ddbd"/><stop offset="1" style="stop-color:#ffd29c"/></linearGradient><path d="M85.6 47.9a5 5 0 0 0-5-1.4h-.2L68.3 51c-1.9-.3-7.5-1.2-10.4-1l-4.6.5-3.4 3q-1 1-.4 2c.3.5.7 1 6.1-1.8q.8-.4 1.5 0l8.1 4a8 8 0 0 0 5.3.7L82.4 56l1.4-.3q1.7-.8 2.6-2.3a5 5 0 0 0-.8-5.6" style="fill:url(#f)"/><path d="M72.7 50.2s-6.3-1.9-8.4.1l6 2.1s2.8 1.3 3.7-.7c.3-.8-.8-1.3-1.3-1.5" style="fill:#edbd82"/><linearGradient id="g" x1="65.5" x2="94.2" y1="42.1" y2="42.1" gradientTransform="matrix(1 0 0 -1 0 128)" gradientUnits="userSpaceOnUse"><stop offset="0" style="stop-color:#ffd29c"/><stop offset="1" style="stop-color:#f9ddbd"/></linearGradient><path d="m94.2 79.3-4.7-11-20.3 11a7 7 0 0 0-3.1 9.2c1.7 4.3 7.1 15 7.1 15l6.7-1.2-4.4-14.8z" style="fill:url(#g)"/><path d="M93.4 72.8a7 7 0 0 0-9.2-2.9L75 74.7l6.2 12 9.3-4.7a7 7 0 0 0 2.9-9.2" style="fill:#e65100"/><linearGradient id="h" x1="107.7" x2="89.6" y1="34.4" y2="53.3" gradientTransform="matrix(1 0 0 -1 0 128)" gradientUnits="userSpaceOnUse"><stop offset="0" style="stop-color:#ffd29c"/><stop offset="1" style="stop-color:#f9ddbd"/></linearGradient><path d="m100 85.3-5.5-20.7L82.3 69l8.5 21.4q.5 1 1.2 1.9 1 1 2.4 1.4h.2l.8.2 20.3 2.8 2.2-5.2z" style="fill:url(#h)"/><radialGradient id="i" cx="90.5" cy="70.8" r="16.5" gradientTransform="matrix(1 0 0 -1 0 128)" gradientUnits="userSpaceOnUse"><stop offset=".2" style="stop-color:#fb8c00"/><stop offset=".6" style="stop-color:#f67f00"/><stop offset="1" style="stop-color:#ef6c00"/></radialGradient><path d="M97.5 71.8q.3-1.3.4-2.9.3-8.9-3.7-17.8c-.9-2-3.1-6.7-8.2-6.7h-.8c-6.6.6-7.5 6.4-6.5 11.1 1.4 6.7 2.4 10.4 2.7 16.7.2 2 1 4.4 2.5 5.3a31 31 0 0 0 4 8.4q6-2.2 12-4.9z" style="fill:url(#i)"/><radialGradient id="j" cx="27" cy="63.4" r="16.3" gradientTransform="matrix(1 0 0 -1 0 128)" gradientUnits="userSpaceOnUse"><stop offset=".2" style="stop-color:#4fc3f7"/><stop offset=".4" style="stop-color:#42bff6"/><stop offset=".7" style="stop-color:#20b3f5"/><stop offset="1" style="stop-color:#03a9f4"/></radialGradient><path d="M36 55.1c2-4.4 1.1-7.5 0-8.7-2.1-1.9-4-2-5-2.3l-1.2-.1c-3.8 0-6.6 2.8-8.7 7.2a46 46 0 0 0-4.3 18.6c0 5.5 5.2 13 6.5 15.5Q29.3 83 35 80q-.6-1.7-1.9-4.4l.6-2.6c.4-5.4 0-11.8 2.3-17.8" style="fill:url(#j)"/><linearGradient id="k" x1="31.7" x2="51.7" y1="82.8" y2="61.5" gradientTransform="matrix(1 0 0 -1 0 128)" gradientUnits="userSpaceOnUse"><stop offset=".6" style="stop-color:#f9ddbd"/><stop offset="1" style="stop-color:#ffd29c"/></linearGradient><path d="M67.1 67.5Q67 67 66 67q.3 0 .4-.4V66c-.2-.8-1.7-.7-3.5-.4l-1.9.1h-1.7v-.1q1.4-.6 2-1.3c.5-.6.2-1 0-1.1-.5-.8-2.7-.3-4 .3-.7.4-2.7.6-3.4.6h-.3l-9.8-3.4a5 5 0 0 1-2.7-2.2L36.2 49l-.1-.1-.1-.1a5 5 0 0 0-4.5-2.3 5 5 0 0 0-4.4 3.6q-.5 1.8.4 3.5v.1l.7 1 6 9.3q1.6 2.6 4.8 3.5l14.6 4.1h.2l2.4.8.6.1c1.6.5 3.7.8 5.5.8 1.6 0 2.9-.3 3.1-1v-.5q-.2-.4-1.1-.5c1-.2 2-.5 2-1.3l-.1-.5-.4-.3q1.3-.2 1.5-1.2 0-.3-.2-.5" style="fill:url(#k)"/><linearGradient id="l" x1="61.2" x2="84" y1="59.2" y2="76.8" gradientTransform="matrix(1 0 0 -1 0 128)" gradientUnits="userSpaceOnUse"><stop offset=".6" style="stop-color:#f9ddbd"/><stop offset="1" style="stop-color:#ffd29c"/></linearGradient><path d="M89.4 51.1a4.9 4.9 0 0 0-9-2.3l-.2.1v.1l-.1.3L74.4 60l-11.7 4h-.2a11 11 0 0 1-3.5-.6c-1.3-.6-3.4-1-4-.3q-.5.2 0 1t2 1.4q-1 .3-1.8.1l-1.8-.1c-1.8-.2-3.2-.4-3.5.4v.8l.4.4h-.5l-.6.3-.2.6q.3.9 1.5 1.2l-.2.1-.2.2q-.2.2-.1.5.2 1 1.9 1.2h.1l-.2.1q-.7.2-.8.5l-.1.4q.5 1.2 3.2 1.1c1.7 0 3.8-.3 5.4-.8l.6-.1 2.4-.7h.2L78 67.1l.3-.1.4-.1.1-.1q1.3-.6 2-1.8L88 55l.8-1v-.2a5 5 0 0 0 .5-2.6" style="fill:url(#l)"/><path d="M55.4 67.7q0 .2-.2.2s-3.8-.2-5.4-.6h.5q2.6.2 4.9.1.2 0 .2.3m-5.1 1.7q2.6.5 5 .6.3 0 .3-.3t-.3-.2l-4.8-.2zm5.6 2.2-.3.2q-2 0-3.8-.4h3.8q.2 0 .3.2" style="fill:#edbd82"/><path d="m45.1 96.9 1.3 7h7l.3-7.8z" style="fill:#e0e0e0"/><path d="m59.6 104.4-6.3-2.1h-7.1s-2 2.2-2 4.1v2.8q0 1.1 1.2 1.2h15.8q.9 0 1-1v-1.2a4 4 0 0 0-2.6-3.8" style="fill:#039be5"/><path d="M78.7 96.7 70 98.6l3.3 5.9 7.4-.7z" style="fill:#e0e0e0"/><path d="M82.2 106.5c0-2-2-4.2-2-4.2h-7l-6.4 2.2a4 4 0 0 0-2.6 3.7v1.3q.1 1 1 1h15.9q1-.1 1.2-1.2z" style="fill:#fb8c00"/><path d="m16.7 89-7.6 4.2 2.5 8 8.6-3.4z" style="fill:#e0e0e0"/><path d="M11.8 92h-1.3q-1.4 0-3 .3l-2.7.9q-1 .4-.7 1.4l4.7 15.1a1 1 0 0 0 1.3.7l1.2-.4a4 4 0 0 0 2.8-3.6l.1-6.7z" style="fill:#039be5"/><path d="m110.8 88.1-3.3 8.2 9.2 2 2.2-7z" style="fill:#e0e0e0"/><path d="m123.8 90.7-2.7-.8a10 10 0 0 0-3-.4h-1.2l-2.5 7.8.1 6.7a4 4 0 0 0 2.8 3.6l1.2.4h.4a1 1 0 0 0 1-.7l4.7-15.1q.2-1-.8-1.5" style="fill:#fb8c00"/><path d="M89.5 21.6c-2-3-4.7-3.4-5.6-3.5-.7-1-3.5-5-10.6-2.4q-2.4 1-3.8 2.7l-1.3 1q-.5.6-1.4.5c-1.3-.1-1.2-2-1.2-2s-4.2 1.7-1.5 5.5q-1.9 1.7-1.6 4.1c0 2 1.3 3.7 3.4 4.2 0 0-1-3.1 3.6-3.8q2.3-.1 4.1-1.1l1.3-1 .2-.1c2 .6.5 5.1 2.9 7.1q.7.4.7.2l.6-1.3q.5-1.5 1.6-1.7c2.2 0 2.6 4 .2 5.3-.2.2 1.2 4.3 6.5 3.3 2.7-.5 3.3-3 3.3-3s-1.2.5-1.6-.4q-.3-.8.8-2.2c2-2.7.6-5 .1-5.8a7 7 0 0 0-.7-5.6" style="fill:#312d2d"/><radialGradient id="m" cx="88.8" cy="254.8" r="7" gradientTransform="rotate(189 -15.24 192.7)scale(-1 1.44)" gradientUnits="userSpaceOnUse"><stop offset=".5" style="stop-color:#454140;stop-opacity:0"/><stop offset="1" style="stop-color:#454140"/></radialGradient><path d="M90.2 27.3c0-.1-.4 2-4 2.4-1.4.3-2.7 4.2-.1 6 2.2 1.7 4.7 0 4.7 0h-1c-.3 0-.5-.5-.5-.5q-.3-.8.8-2.2c2-2.7.6-5 0-5.7" style="fill:url(#m)"/><radialGradient id="n" cx="89.7" cy="261.9" r="7.1" gradientTransform="rotate(161 22.55 192.97)scale(-1 1.262)" gradientUnits="userSpaceOnUse"><stop offset=".5" style="stop-color:#454140;stop-opacity:0"/><stop offset="1" style="stop-color:#454140"/></radialGradient><path d="M89.5 21.6a8 8 0 0 0-4.3-3.3l-1.3-.2q.5 1 .3 2.4s-.1 1.4-1 2.6q1.4 1.3 2.2 3.3 1 1.6.8 3.3c.7-.2 1.8-.2 2.9-1q1.4-1.2 1.4-3.3t-1-3.8" style="fill:url(#n)"/><radialGradient id="o" cx="81.7" cy="264.3" r="14.7" gradientTransform="rotate(160 12.32 126.08)scale(-1 .752)" gradientUnits="userSpaceOnUse"><stop offset=".5" style="stop-color:#454140;stop-opacity:0"/><stop offset="1" style="stop-color:#454140"/></radialGradient><path d="M84.2 20.5c.4-2.3-1.2-4-3.3-5-2.4-1.2-5.2-.7-7.6.2q-2.4 1-3.8 2.7l-1.3 1.1q-.5.4-1.4.5c-1.3-.2-1.2-2-1.2-2s-4.2 1.6-1.5 5.4q-1.8 1.7-1.7 4.1c0 2 1.4 3.7 3.5 4.2 0 0-1-3 3.6-3.8q2.3-.1 4.1-1.1c1-.7 1.4-1.4 2.7-1.6s3.4 0 4.8-.5c2.8-1 3-4.1 3-4.2" style="fill:url(#o)"/><radialGradient id="p" cx="90.5" cy="253.9" r="7.9" gradientTransform="rotate(183 -3.76 96.36)scale(-1 .643)" gradientUnits="userSpaceOnUse"><stop offset=".5" style="stop-color:#454140;stop-opacity:0"/><stop offset="1" style="stop-color:#454140"/></radialGradient><path d="M86 35.7c-1-.8-1.7-2.4-3.3-3q0 1.6-1.6 2.7c-.2 0 1.2 4.3 6.5 3.2 2.7-.5 3.2-3 3.2-3s-2.5 1.8-4.7.1" style="fill:url(#p)"/><path d="M26.2 21.2c2-2.9 4.9-3.2 5.8-3.2.7-1.1 3.8-5 10.8-2a11 11 0 0 1 3.8 2.9l1.1 1.2q.6.4 1.5.5c1.3-.1 1.3-2 1.3-2s4.1 2 1.3 5.6c1.2 1 1.5 2.7 1.4 4.2 0 2-1.5 3.7-3.6 4.1 0 0 1.1-3-3.5-4-1.4-.3-3-.4-4.1-1.3l-1.3-1.1h-.2c-2 .4-.7 5-3.2 7-.5.4-.7.1-.7.1L36 32q-.5-1.5-1.6-1.7c-2.2 0-2.8 3.9-.4 5.3.2.2-1.4 4.3-6.7 3-2.8-.6-3.2-3.1-3.2-3.1s1.1.5 1.6-.4q.4-.8-.7-2.2c-2-2.8-.4-5.2.1-5.8-.2-.9-.6-3.5 1-5.8" style="fill:#312d2d"/><radialGradient id="q" cx="58" cy="260" r="7.1" gradientTransform="rotate(173.5 54.08 203.24)scale(1 1.44)" gradientUnits="userSpaceOnUse"><stop offset=".5" style="stop-color:#454140;stop-opacity:0"/><stop offset="1" style="stop-color:#454140"/></radialGradient><path d="M25.2 27c0-.2.3 2 3.9 2.6 1.4.3 2.6 4.3 0 6-2.4 1.6-4.9-.2-4.9-.2s.4.2 1 0q.6-.2.6-.4.4-.8-.7-2.3c-2-2.8-.4-5 .1-5.8" style="fill:url(#q)"/><radialGradient id="r" cx="58.9" cy="267.2" r="7.2" gradientTransform="rotate(201.4 15.78 184.4)scale(1 1.262)" gradientUnits="userSpaceOnUse"><stop offset=".5" style="stop-color:#454140;stop-opacity:0"/><stop offset="1" style="stop-color:#454140"/></radialGradient><path d="M26.2 21.2A8 8 0 0 1 32 18q-.6 1-.4 2.4s0 1.4.9 2.6Q31 24.3 30 26.3q-1.1 1.5-1 3.3-1.2-.1-2.8-1Q24.9 27 25 25q0-2 1.2-3.8" style="fill:url(#r)"/><radialGradient id="s" cx="50.8" cy="269.7" r="14.9" gradientTransform="rotate(202.5 27.76 115.4)scale(1 .752)" gradientUnits="userSpaceOnUse"><stop offset=".5" style="stop-color:#454140;stop-opacity:0"/><stop offset="1" style="stop-color:#454140"/></radialGradient><path d="M31.6 20.4c-.3-2.4 1.3-4 3.5-5 2.5-1 5.3-.5 7.7.6a11 11 0 0 1 3.8 2.9l1.1 1.2q.7.4 1.5.5c1.3-.1 1.3-2 1.3-2s4.1 2 1.3 5.6c1.3 1 1.6 2.7 1.5 4.2-.2 2-1.6 3.7-3.7 4.1 0 0 1.2-3-3.5-4-1.4-.3-3-.4-4.1-1.3-1-.7-1.3-1.5-2.6-1.7-1.5-.3-3.5-.2-4.9-.8-2.8-1.1-3-4.3-3-4.3" style="fill:url(#s)"/><radialGradient id="t" cx="59.7" cy="259.1" r="8" gradientTransform="matrix(-1 .01 -.006 -.643 90.07 200.1)" gradientUnits="userSpaceOnUse"><stop offset=".5" style="stop-color:#454140;stop-opacity:0"/><stop offset="1" style="stop-color:#454140"/></radialGradient><path d="M29 35.7c1.2-.8 1.9-2.4 3.6-3q0 1.8 1.5 2.8c.2.2-1.4 4.3-6.7 3-2.8-.6-3.2-3.1-3.2-3.1s2.4 1.8 4.8.3" style="fill:url(#t)"/></svg>