<svg xml:space="preserve" width="16" height="16" viewBox="0 0 128 128"><path d="M90.5 27.2C71 27.2 64 47 64 47s-7-19.8-26.5-19.8c-14.7 0-31.4 11.6-25.2 38s51.8 59.3 51.8 59.3 45.4-32.9 51.5-59.3-9.3-38-25.1-38" style="fill:#ef5592"/><path d="M34.5 29.2c15.2 0 22.7 16.3 25.2 23a1 1 0 0 0 2 0L64 47a27 27 0 0 0-26.5-19.8c-6.1 0-12.6 2-17.6 6.3 4.5-3 9.7-4.3 14.6-4.3m56-2q-7.2 0-12.3 3 3.6-1.1 8-1c14.4 0 27.2 10.9 21.4 36-5 21.5-34 47.7-42.8 57.7-.6.6-.8 1.6-.8 1.6s45.4-32.9 51.6-59.3-9.3-38-25.1-38" style="fill:#da2e75"/><path d="M22.5 41.2c3.3-4.1 9.2-7.5 14.2-3.6 2.7 2.1 1.5 6.5-.9 8.3-3.5 2.7-6.6 4.4-8.7 8.6q-2 3.8-2.5 8a1.2 1.2 0 0 1-2.2.5c-3.7-6.6-4.8-15.7 0-21.8M75.6 50a2.2 2.2 0 0 1-2-3 36 36 0 0 1 4-7.6c2.4-3.4 7-5.3 10-3.3 2.9 2.1 2.5 6.3.4 8.3A20 20 0 0 1 75.6 50" style="fill:#f386ab"/><path d="M85.5 21.2c3.7-2.7 16.7-6 27 1s11 20.5 10 25h-.4a32 32 0 0 0-13.5-21.9c-9-6.2-22-4-23-3.8z" style="fill:#da2e75"/><path d="M94 11c3.2-2 13.2-5.7 22.2-.2s10.8 15.9 10.4 19.7h-.3c-.5-2.6-4.7-11.6-13.1-16s-19.1-3-19.1-3z" style="fill:#f48fb1"/><path d="M42.5 21.2c-3.7-2.7-16.7-6-27 1s-11 20.5-10 25h.3a32 32 0 0 1 13.6-21.9c9-6.2 22-4 23-3.8z" style="fill:#da2e75"/><path d="M34 11c-3.2-2-13.2-5.7-22.2-.2S1 26.8 1.3 30.6h.4C2.2 28 6.4 19 15 14.6s19-3 19-3z" style="fill:#f48fb1"/><path d="M40.9 115.4c-4.3-.5-8.2-2.3-11.7-4.4a44 44 0 0 1-16.4-18.2 31 31 0 0 1-3.4-12l.4-.2 1.4 2.5 1.6 2.5a92 92 0 0 0 19 22.3l2.2 2 2.3 1.7 2.4 1.8L41 115z" style="fill:#da2e75"/><path d="M28.2 118.8a29 29 0 0 1-16.3-9A26 26 0 0 1 5.3 92l.3-.1 4 7.9q2.3 3.9 5.3 7a54 54 0 0 0 10 8.9l3.5 2.6z" style="fill:#f48fb1"/><path d="M118.6 80.8a31 31 0 0 1-3.4 12A45 45 0 0 1 98.8 111a30 30 0 0 1-11.7 4.4l-.2-.4 2.4-1.6 2.4-1.8 2.3-1.8 2.2-1.9A92 92 0 0 0 112 90.5q1.8-2.4 3.3-4.9l1.5-2.5 1.5-2.5z" style="fill:#da2e75"/><path d="M122.7 92.1q.2 5-1.6 9.4-1.6 4.5-5 8.2a29 29 0 0 1-16.3 9l-.2-.3 7-5.4a54 54 0 0 0 11.8-13.1 64 64 0 0 0 4-8z" style="fill:#f48fb1"/></svg>