<svg xml:space="preserve" width="16" height="16" viewBox="0 0 128 128"><path d="M38.3 74.8 7.4 83.6s6 17.5 27.3 17 26.7-15.1 26.7-15.1L72.2 90s3.6 9.7 19.4 11c17.5 1.5 26-12.5 26-12.5S96.9 69.7 94 69.7s-55.7 5.1-55.7 5.1m-6.1 43.8s-.3 1.5-.3 2.7-.4 2 1.4 2.3 60.8.3 62.3.3 1.5-2 1.5-2.7c0-1.4-.5-2.6-.5-2.6l-32.3-8z" style="fill:#606265"/><path d="M64.4 3.2c-19.4 0-28.2 17-28 28.4.4 14.1 9.5 18.7 8.6 20s-6-5.9-19.7-2.8A24.4 24.4 0 0 0 5.6 76c1.4 12.3 9 21.7 28.2 20 12.5-1 17.7-7.3 19.5-9s4.3-5.8 5.2-4c.6 1.3 0 11.6 0 15.1-.1 3-2 6-4.4 8-3.3 2.8-7.8 3.9-10.1 4.6-4.4 1.4-7.7 1.8-9.4 3.5-2 2-2.4 4.3-2.4 4.3h64.4s-1-3-4.8-5.3c-5-2.8-10.3-3.6-13.5-5.3s-5-3.5-5.3-5.7a291 291 0 0 1-.5-18.8c0-1.8 1.5-.8 2.6 1 .8 1.4 8.3 13.1 24 12.7s22.5-9.9 22.4-23.8-9.3-20.7-18.7-22.4c-9.7-1.8-17 2.5-17.8 1.5-.7-1 7.9-7.3 7.8-20.6 0-11.6-8.7-28.7-28.4-28.7" style="fill:#464c4f"/></svg>