<svg xml:space="preserve" width="16" height="16" viewBox="0 0 128 128"><circle cx="63.9" cy="64" r="60" style="fill:#194fa5"/><circle cx="60" cy="63.1" r="56.1" style="fill:#2262dd"/><path d="M24 29.7c4.4-7.1 14-13 24-14.8q3.9-.8 7.1.2c1.6.6 3 2.1 2 3.8-.7 1.4-2.6 2-4 2.5a45 45 0 0 0-23 17.4c-2 3-5 11.3-8.8 9.2-3.9-2.3-3-9.5 2.6-18.3" style="opacity:.65;fill:#68abe6"/><path d="M29.6 34.2h15L61 77.4h.7L78 34.3h15V96H81.7V65.5l.7-10.3h-.7L66 96h-9L41 55.2h-.7l.7 10.3v30.4H29.6z" style="fill:#fbf9f9"/><path d="M24 29.7c4.4-7.1 14-13 24-14.8q3.9-.8 7.1.2c1.6.6 3 2.1 2 3.8-.7 1.4-2.6 2-4 2.5a45 45 0 0 0-23 17.4c-2 3-5 11.3-8.8 9.2-3.9-2.3-3-9.5 2.6-18.3" style="opacity:.3;fill:#68abe6"/></svg>