<svg xml:space="preserve" width="16" height="16" viewBox="0 0 128 128"><path d="M116 4H12a8 8 0 0 0-8 8v104a8 8 0 0 0 8 8h104a8 8 0 0 0 8-8V12a8 8 0 0 0-8-8" style="fill:#f77e00"/><path d="M109.7 4H11.5A7.6 7.6 0 0 0 4 11.5v97.9c0 4.1 3.3 7.5 7.5 7.5h98.1c4.1 0 7.5-3.3 7.5-7.5V11.5c0-4-3.1-7.4-7.2-7.5z" style="fill:#ff9800"/><path d="M39.7 12.9c0-2.3-1.6-3-10.8-2.7-7.7.3-11.5 1.2-13.8 4s-2.9 8.5-3 15.3c0 4.8 0 9.3 2.5 9.3 3.4 0 3.4-7.9 6.2-12.3 5.4-8.7 18.9-10.6 18.9-13.6" style="opacity:.75;fill:#ffbd52"/><path d="M96 95.2c0 5.7-1.5 8.4-5.3 9.9s-9.8 1.8-18.8 1.8a2 2 0 0 1-1.9-1.4l-1.9-5a2 2 0 0 1 1.8-2.8c6.2.2 11.9.1 13.9.1s2.8-.8 2.8-2.8V80.3a2 2 0 0 0-2-2H45.2a2 2 0 0 0-1.9 1.5A52 52 0 0 1 29 105.7a2 2 0 0 1-2.8-.1l-3.7-3.6a2 2 0 0 1-.2-2.8l.1-.1c13.2-12.6 14.5-30.3 14.5-44.6V26.8q.2-1.8 2-2H94a2 2 0 0 1 2 2zm-9.3-27.3V57.8a2 2 0 0 0-2-2H47.9c-1 0-2 .8-2 1.9l-.6 10a2 2 0 0 0 1.7 2l.3.1h37.5c1 0 1.9-.8 1.9-1.9M46 35.3v10.1q.2 1.8 2 2h36.8a2 2 0 0 0 2-2V35.3a2 2 0 0 0-2-2H47.9c-1 0-2 .9-1.9 2" style="fill:#fafafa"/></svg>