<svg xml:space="preserve" width="16" height="16" viewBox="0 0 128 128"><path d="M116.5 4h-104a8 8 0 0 0-8 8v104a8 8 0 0 0 8 8h104a8 8 0 0 0 8-8V12a8 8 0 0 0-8-8" style="fill:#8e24aa"/><path d="M110.2 4H12a7.6 7.6 0 0 0-7.5 7.5v97.9c0 4.1 3.3 7.5 7.4 7.5h98.2c4.1 0 7.4-3.4 7.5-7.5v-98c0-4-3.2-7.3-7.2-7.4z" style="fill:#ab47bc"/><path d="M40.2 12.9c0-2.3-1.6-3-10.8-2.7-7.7.3-11.5 1.2-13.8 4s-3 8.5-3 15.3c0 4.8 0 9.3 2.5 9.3 3.4 0 3.4-8 6.2-12.3 5.4-8.7 18.9-10.6 18.9-13.6" style="opacity:.3;fill:#fafafa"/><path d="m108.2 59.3-.7-.3h-5.2a1 1 0 0 1-1-1 40 40 0 0 0-9-21.4 1 1 0 0 1 .2-1.3l3.7-3.7q.3-.3.3-.7c0-3.7-3.5-4.6-5.3-2.8l-3 3a1 1 0 0 1-1.3 0c-6.2-5-13.7-8-21.5-8.8a1 1 0 0 1-1-1V16q0-.5-.2-.7c-2.6-2.6-5.7-.8-5.7 1.7v4.2q0 .8-1 1c-7.8.7-15.3 3.8-21.4 8.9a1 1 0 0 1-1.3-.1L31 27.3l-.7-.3c-3.7 0-4.6 3.5-2.8 5.3l3 3q.5.6 0 1.3c-5 6-8 13.6-8.8 21.5q-.2.7-1 .9h-5.3q-.5 0-.7.3c-2.6 2.6-.8 5.7 1.7 5.7h4.2q.8 0 1 .9c.7 7.8 3.8 15.3 8.9 21.5q.4.6-.1 1.3l-3.7 3.7q-.4.2-.3.7c0 3.7 3.5 4.6 5.3 2.8l3-3a1 1 0 0 1 1.3-.1c6 5 13.6 8 21.5 8.9q.8.1.9 1v5.2q0 .4.3.7c2.6 2.6 5.7.8 5.7-1.7v-4.2q0-.9.9-1c7.8-.8 15.3-4 21.5-9a1 1 0 0 1 1.3.2l3.7 3.7q.2.3.7.3c3.7 0 4.6-3.5 2.8-5.3l-3-3a1 1 0 0 1-.1-1.3q7.5-9.5 8.9-21.5 0-.9 1-1h4.2c2.6.2 4.4-3 1.8-5.5M64.5 28.2q0-1 1-1 9.9 1.2 17.7 7.3.7.6.1 1.4L71 48.3a1 1 0 0 1-1.2 0q-2.2-1.2-4.5-1.8a1 1 0 0 1-.8-1zm-24.7 6.3q7.6-6 17.5-7.3.9 0 1 .9v17.3q0 .7-.7 1-2.4.5-4.5 1.9a1 1 0 0 1-1.2-.1L39.8 36a1 1 0 0 1-.1-1.5M34 40.3a1 1 0 0 1 1.4-.2l12.3 12.3q.5.5 0 1.2-1.2 2.1-1.8 4.5a1 1 0 0 1-1 .8H27.8a1 1 0 0 1-1-1v-.1Q27.9 48 34 40.3m1.5 43.4a1 1 0 0 1-1.4 0l-.1-.1A35 35 0 0 1 26.7 66q0-1 .9-1.1H45q.7 0 1 .8.5 2.3 1.9 4.5.3.5-.1 1.2zm23 12q-.1 1-1 1h-.1a35 35 0 0 1-17.5-7.2 1 1 0 0 1-.2-1.4V88L52 75.8a1 1 0 0 1 1.2-.1q2.1 1.2 4.5 1.9.7.1.8 1zm3-22.7a11 11 0 1 1 11-11c0 6-5 11-11 11m21.7 16.5a35 35 0 0 1-17.6 7.3 1 1 0 0 1-1.1-1V78.5q0-.9.8-1 2.3-.5 4.5-2a1 1 0 0 1 1.2.2L83.2 88q.6.7 0 1.5m5.8-5.8a1 1 0 0 1-1.4.1h-.1L75.3 71.6a1 1 0 0 1-.1-1.2q1.2-2.2 1.9-4.5a1 1 0 0 1 1-.8h17.2q.9 0 1 1A36 36 0 0 1 89 83.8M95.3 59H78a1 1 0 0 1-1-.8q-.6-2.4-2-4.5a1 1 0 0 1 .2-1.2l12.3-12.2a1 1 0 0 1 1.5 0q6 7.8 7.3 17.6-.1.9-1 1" style="fill:#fafafa"/></svg>