<svg xml:space="preserve" width="16" height="16" viewBox="0 0 128 128"><path d="M116 4H12a8 8 0 0 0-8 8v104a8 8 0 0 0 8 8h104a8 8 0 0 0 8-8V12a8 8 0 0 0-8-8" style="fill:#427687"/><path d="M109.7 4H11.5A7.6 7.6 0 0 0 4 11.5v97.9c0 4.1 3.3 7.5 7.5 7.5h98.1c4.1 0 7.5-3.3 7.5-7.5V11.5c0-4-3.1-7.4-7.2-7.5z" style="fill:#8cafbf"/><path d="M31.6 14.4q0-.5-.4-1.1c-2.4-5.6-13-2.8-16.1 1-2.9 3.5-2.6 8.8-3 13-1 11.9 6.5.5 10.6-3.3 2.9-2.8 10-4.6 8.9-9.6" style="opacity:.5;fill:#b4e1ed"/><path d="M40.4 64.7a3.8 3.8 0 0 0 6.3-2.9V48.5q.1-1.7 1.9-1.9h32.6c4.6 0 11.1 1.4 11.5 11.5l14.2 12.8q1-4.5 1.1-9c0-17-12-30.6-26.8-30.6H48.6a2 2 0 0 1-2-2V15.9a3.8 3.8 0 0 0-6.2-2.8l-23 23a4 4 0 0 0 0 5.8zM83.7 59a3.8 3.8 0 0 0-6.3 2.9v13.4c0 1-.9 1.9-2 1.9H42.8c-4.6 0-11-1.4-11.5-11.5L17.1 52.9q-1 4.5-1.1 9c0 17 12 30.6 26.8 30.6h32.6q1.8.2 2 2v13.4a3.8 3.8 0 0 0 6.3 2.8l23-23a4 4 0 0 0 .3-5.4l-.3-.3z" style="fill:#fafafa"/></svg>