<svg xml:space="preserve" width="16" height="16" viewBox="0 0 128 128"><radialGradient id="a" cx="63.6" cy="1104.9" r="57" gradientTransform="translate(0 -1042)" gradientUnits="userSpaceOnUse"><stop offset=".5" style="stop-color:#fde030"/><stop offset=".9" style="stop-color:#f7c02b"/><stop offset="1" style="stop-color:#f4a223"/></radialGradient><path d="M63.6 118.8c-27.9 0-58-17.5-58-55.9S35.7 7 63.6 7c15.5 0 29.8 5.1 40.4 14.4 11.5 10.2 17.6 24.6 17.6 41.5s-6.1 31.2-17.6 41.4a61 61 0 0 1-40.4 14.5" style="fill:url(#a)"/><path d="M111.5 29.7a57 57 0 0 1 8.1 30.2c0 16.9-6.1 31.2-17.6 41.4a61 61 0 0 1-40.4 14.5 59 59 0 0 1-48.2-23 58 58 0 0 0 50.2 26c15.4 0 29.8-5.2 40.4-14.5a54 54 0 0 0 17.6-41.4q-.1-19.2-10.1-33.2" style="fill:#eb8f00"/><path d="m57.4 66.4-.2-.1-.1-.1c-3.6-2.6-12.5-9.8-16.2-12.3a4 4 0 0 0-5.2.3 4 4 0 0 0 0 5.7q.3 0 .5.3l.3.2 10.9 4.8-2.4.1-3.5.3-3.8.6-4.3 1q-2 .6-3.3 2a5 5 0 0 0-1.6 3q-.2 1.5.7 3.1.7 1.3 2.2 1.8 1.4.5 2.9.3t3-1q2-1.2 3.8-2A32 32 0 0 1 48 72a36 36 0 0 1 8.1-1.1q1.8-.5 2-2.4 0-1.2-.7-2m42.1 5.6a5 5 0 0 0-1.6-3q-1.4-1.3-3.3-1.9l-4.3-1-3.8-.6-3.5-.3h-2.5l10.9-4.9.3-.2a4 4 0 0 0 .5-6 4 4 0 0 0-5.2-.3c-3.6 2.5-12.5 9.7-16.1 12.3h-.1l-.2.2q-.8 1-.7 2 .1 2 2 2.5A51 51 0 0 1 83.4 73l3.5 1.4 3.8 1.9a7 7 0 0 0 5.9.8q1.5-.5 2.2-1.8.9-1.5.7-3.2M64 83.2c10.8 0 17.8 7.9 19.7 11.6q1 2.2.1 3.1a2 2 0 0 1-2.1 0l-.9-.5A29 29 0 0 0 64 91.9a30 30 0 0 0-17.7 5.9 2 2 0 0 1-2.1 0q-1-1 .1-3.1A24 24 0 0 1 64 83.2M27.4 42.8c-2.2.4-2.3 3.6.1 3.7a21 21 0 0 0 18-10 1.8 1.8 0 1 0-3-2.1l-.1.1a26 26 0 0 1-15 8.3m57.1-8.4a1.8 1.8 0 1 0-3 2.1q1.5 2.6 3.7 4.5a21 21 0 0 0 14.3 5.5c2.5-.1 2.3-3.3.1-3.7q-9-1.6-15.1-8.4" style="fill:#422b0d"/></svg>