<svg xml:space="preserve" width="16" height="16" viewBox="0 0 128 128"><linearGradient id="a" x1="79.6" x2="51.1" y1="79" y2="40.8" gradientTransform="matrix(1 0 0 -1 0 128)" gradientUnits="userSpaceOnUse"><stop offset="0" style="stop-color:#a52714"/><stop offset=".5" style="stop-color:#d23f31"/><stop offset="1" style="stop-color:#ed4132"/></linearGradient><path d="M88 32q1-.5 1.8.4c2.1 3 7.7 13.2 5.6 32.5a165 165 0 0 1-11 36.5c-.3.8-1.4 1-2 .4-2.5-2.2-8.4-5.9-19.1-3.4-3.4.8-14 11.5-22.6 1.9-5.3-6-1.5-9.5-1.4-18 0-11-11-14.3-14.6-16.1-1-.5-1-1.8-.2-2.3 4.2-2.8 10.1-4 17.5-10 9.4-7.4 9.5-14.3 11.4-16.8 1-1.2 8.6-4.6 8.6-4.6l5.6 1.5 9.5 4.2q.6.3 1.2-.1z" style="fill:url(#a)"/><radialGradient id="b" cx="74.9" cy="64.6" r="18.6" gradientTransform="rotate(200.6 -5.62 80.71)scale(-1 1.938)" gradientUnits="userSpaceOnUse"><stop offset="0" style="stop-color:#212121"/><stop offset="1" style="stop-color:#212121;stop-opacity:0"/></radialGradient><path d="M90.4 73.7C95.8 56.9 92 43.2 92 43.2s-16 5.6-16 6.2-10.3 25.1-10.3 25.1-7.5 20.3-17 29.7c6.8-.7 12.3-5.3 14.6-5.8 7-1.6 12-.6 15.3 1 1.8-2.9 8-14 11.8-25.7" style="fill:url(#b)"/><linearGradient id="c" x1="44.4" x2="59.1" y1="72.9" y2="47.5" gradientTransform="matrix(1 0 0 -1 0 128)" gradientUnits="userSpaceOnUse"><stop offset="0" style="stop-color:#212121"/><stop offset="1" style="stop-color:#212121;stop-opacity:0"/></linearGradient><path d="m68 43.6-5.1-2.3s-8 18.4-12.1 24.7-11.5 16.3-11.5 16.3c0 8.5-4 12 1.4 18l1 1c3.4-4 9-12 13.2-18 11.4-16 13-39.7 13-39.7" style="fill:url(#c)"/><linearGradient id="d" x1="76" x2="75.8" y1="86.6" y2="66.9" gradientTransform="matrix(1 0 0 -1 0 128)" gradientUnits="userSpaceOnUse"><stop offset="0" style="stop-color:#42a5f5"/><stop offset="1" style="stop-color:#1e88e5"/></linearGradient><path d="M103.5 24.4c-1-2.8-6-10.7-6-10.7L92 16.5l2.2 9.8L84 35q-7.4-1.5-13-.5c-3-.3-11.3-.2-14.4 7.5L52 53l-3.7 1.2c-1 2.2 2.3 4.1 4.5 5.1s4 .3 5.7-2l5.3-8q.7 4.5.7 11.2l8.3 4L83 65a96 96 0 0 0 6.5-19.3l13.2-15.1c1.4-2 2-3.4 1-6.1" style="fill:url(#d)"/><g style="opacity:.29"><path d="M103.5 24.4c-1-2.8-6-10.7-6-10.7L92 16.5l2.2 9.8L84 35q-7.4-1.5-13-.5c-3-.3-11.3-.2-14.4 7.5L52 53l-3.7 1.2c-1 2.2 2.3 4.1 4.5 5.1s4 .3 5.7-2l5.3-8q.7 4.5.7 11.2l8.3 4L83 65a96 96 0 0 0 6.5-19.3l13.2-15.1c1.4-2 2-3.4 1-6.1" style="fill:none"/></g><linearGradient id="e" x1="50.4" x2="43.8" y1="75.4" y2="89.6" gradientTransform="matrix(1 0 0 -1 0 128)" gradientUnits="userSpaceOnUse"><stop offset="0" style="stop-color:#a52714"/><stop offset=".5" style="stop-color:#d23f31"/><stop offset="1" style="stop-color:#db4437"/></linearGradient><path d="M41.6 38.6c.6-1 2.4-1.8 3.8-2.2q1.4-.3 2 1l2 4.6q.2 1-.3 1.8l-1.9 2q1 1.5 2.5 2.3c1.7 1 3.3 1 3.5 1.1 2.1 1.7 3.7 3.7 2.5 7s-5.5 2.3-5.5 2.3-4.3-3-7.1-9.7c-1-2.2-2.7-8-1.5-10.2" style="fill:url(#e)"/><g style="opacity:.29"><path d="M41.6 38.6c.6-1 2.4-1.8 3.8-2.2q1.4-.3 2 1l2 4.6q.2 1-.3 1.8l-1.9 2q1 1.5 2.5 2.3c1.7 1 3.3 1 3.5 1.1 2.1 1.7 3.7 3.7 2.5 7s-5.5 2.3-5.5 2.3-4.3-3-7.1-9.7c-1-2.2-2.7-8-1.5-10.2" style="fill:none"/></g><linearGradient id="f" x1="55.1" x2="50.1" y1="44" y2="36.2" gradientTransform="matrix(1 0 0 -1 0 128)" gradientUnits="userSpaceOnUse"><stop offset="0" style="stop-color:#851f10"/><stop offset=".8" style="stop-color:#a52714"/></linearGradient><path d="M52.7 82.9s-5.6 5.1-6 7.4c-.7 3.8 2.6 7.4 4.3 6 3.6-3 4.6-6.6 6.4-9.3 1.8-2.6-2.3-6.6-4.7-4.2" style="fill:url(#f)"/><linearGradient id="g" x1="69.8" x2="60.6" y1="55.9" y2="35.4" gradientTransform="matrix(1 0 0 -1 0 128)" gradientUnits="userSpaceOnUse"><stop offset="0" style="stop-color:#42a5f5"/><stop offset="1" style="stop-color:#1e88e5"/></linearGradient><path d="m71.4 66.8-.2.6a6 6 0 0 0-3-3.9s-5.8-2-7.2.8c0 0-7 10.9-8 14-1.2 3-1.1 5.5 1.5 7 2 1.4 4.9.7 7.5-2.2 1.1-1.3 3.8-5.3 5.8-8.5.4-.5 1.1 0 1 .5L56.5 107l5.4 3.4S78 84.7 80.4 79.8s3.2-12.2 3.2-12.2z" style="fill:url(#g)"/><g style="opacity:.4"><path d="m61.2 63.9 2-3.3q.6-1 1.6-.5a26 26 0 0 0 17.7 4.3q1.2.1 1.2 1.3l-.3 3.5s-2.7 1.6-11.2-.2c-6-1.2-11-5.1-11-5.1" style="fill:#212121"/></g><linearGradient id="h" x1="62.7" x2="84.3" y1="65.6" y2="60.8" gradientTransform="matrix(1 0 0 -1 0 128)" gradientUnits="userSpaceOnUse"><stop offset="0" style="stop-color:#d32f2f"/><stop offset=".2" style="stop-color:#f44336"/><stop offset=".7" style="stop-color:#f44336"/><stop offset="1" style="stop-color:#d32f2f"/></linearGradient><path d="M83 69c-8.4.4-13.7-1.1-21.1-5q-1-.6-.5-1.7l1.2-2.5q.5-1 1.6-.6a30 30 0 0 0 19 4.4q1.2.1 1.3 1.3l-.3 2.9q-.1 1-1.1 1.1" style="fill:url(#h)"/><path d="m75.6 67-2.3 1.5a1 1 0 0 1-1.4-.3L70.4 66a1 1 0 0 1 .2-1.3L73 63a1 1 0 0 1 1.4.3l1.5 2.3q.5.8-.2 1.4" style="fill:#fdd835"/><path d="M70.5 45c1.3-.5 3.6-1.3 7-1.4h.7c3 0 5 .8 6 1.4l-7 7.4z" style="fill:#e53935"/><path d="M78.2 44.6q2.8 0 4.3.7l-5.3 5.6-5-5.4q2-.6 5.4-1zm0-2h-.7c-5.7.2-8.7 2.2-8.7 2.2l8.4 9.3 8.5-9.1s-2.2-2.4-7.5-2.4" style="fill:#fdd835"/><linearGradient id="i" x1="77.2" x2="77.2" y1="83.3" y2="73.4" gradientTransform="matrix(1 0 0 -1 0 128)" gradientUnits="userSpaceOnUse"><stop offset="0" style="stop-color:#0d47a1;stop-opacity:0"/><stop offset="1" style="stop-color:#0d47a1"/></linearGradient><path d="M68.8 44.7s3-2 8.7-2.2c5.8-.2 8.2 2.3 8.2 2.3L77.2 54z" style="opacity:.42;fill:url(#i)"/><linearGradient id="j" x1="66.1" x2="43.8" y1="27.6" y2="5.3" gradientTransform="matrix(1 0 0 -1 0 128)" gradientUnits="userSpaceOnUse"><stop offset="0" style="stop-color:#a52714"/><stop offset=".5" style="stop-color:#d23f31"/><stop offset="1" style="stop-color:#ed4132"/></linearGradient><path d="M57.9 97.6s-1.6 9.7-5.6 16c-2 2.6-5.1 4.7-6.8 9-.7 2.1 3.7 4 7 2.2 2.1-1.2 5.2-8 5.2-8 2.8-5 11-13 11-13-1.6-7.3-10.8-6.2-10.8-6.2" style="fill:url(#j)"/><path d="M53.4 37.1S59.1 30 69.3 32c7.5 1.5 6 6.4 6 6.4s-3.9 0-7.3-.8c-3.5-.8-6.6-2.4-8.4-2.2zm21.8 1.3s.5-5 3.8-6.1S89.8 30 89.8 30s-2.4 4.5-4.2 6c-3.8 3-10.4 2.4-10.4 2.4" style="fill:#ed4132"/><path d="M57.1 40.5s3.3-3 8.3-1.7c7 1.7 9.8-.4 9.8-.4s5.3 1.9 10.2-.5c3.4-1.7 4.4-8 4.4-8l-1.2 1.4s-4.4 4.8-8.7 6c-3.2 1-4.7 1-4.7 1s-11.7-4-14.4-2.8-3.7 5-3.7 5" style="opacity:.4;fill:#212121"/><linearGradient id="k" x1="98.4" x2="84.6" y1="104.1" y2="125" gradientTransform="matrix(1 0 0 -1 0 128)" gradientUnits="userSpaceOnUse"><stop offset="0" style="stop-color:#a52714"/><stop offset=".5" style="stop-color:#d23f31"/><stop offset="1" style="stop-color:#db4437"/></linearGradient><path d="M92.7 25c-.2-1-2-15.2-5.2-16l-3.6.2q-2.2 0-2.6-1.2t.5-3.9c.6-1.7 1.6-2 2.4-2q2.4 0 8 4.8a49 49 0 0 1 11 15.3c-.2 0-4.8 6.3-10.5 2.7" style="fill:url(#k)"/><g style="opacity:.29"><path d="M92.7 25c-.2-1-2-15.2-5.2-16l-3.6.2q-2.2 0-2.6-1.2t.5-3.9c.6-1.7 1.6-2 2.4-2q2.4 0 8 4.8a49 49 0 0 1 11 15.3c-.2 0-4.8 6.3-10.5 2.7" style="fill:none"/></g><path d="M84.9 29.2q-.5-.9.7-2.1a7 7 0 0 0 1-7.4l-.2-.6H86l-22.7 1-.7.5c-1.1 3.1.3 6 1.6 7.3q1.3 1.1 1 2c-.4.7-1.4.9-1.4.9s.3.6.8 1l1.7.3s1.8 2.3 6.4 2.1H75l2.6-.2c4.5-.2 6.2-2.6 6.2-2.6q.7 0 1.6-.5.8-.8.8-1c0-.2-1 0-1.4-.7" style="fill:#232020"/><radialGradient id="l" cx="99.6" cy="93.2" r="6.7" gradientTransform="matrix(1 -.04 .02 .49 -22.2 -11.66)" gradientUnits="userSpaceOnUse"><stop offset=".7" style="stop-color:#444140;stop-opacity:0"/><stop offset="1" style="stop-color:#444140"/></radialGradient><path d="M75.1 34.1v-2.6l8-1 .8.9s-1.7 2.5-6.2 2.6z" style="fill:url(#l)"/><radialGradient id="m" cx="93" cy="94.2" r="2" gradientTransform="rotate(152.6 94.32 48.45)scale(1 .742)" gradientUnits="userSpaceOnUse"><stop offset=".7" style="stop-color:#444140"/><stop offset="1" style="stop-color:#444140;stop-opacity:0"/></radialGradient><path d="M83.8 30.2c-1.3-1.8 1.4-2.6 1.4-2.6q-.7.9-.3 1.6c.3.6 1.4.7 1.4.7s-1.4 1.3-2.5.3" style="fill:url(#m)"/><radialGradient id="n" cx="98.1" cy="99.7" r="8.6" gradientTransform="rotate(-96.6 62.63 61.23)scale(1 .833)" gradientUnits="userSpaceOnUse"><stop offset=".7" style="stop-color:#444140;stop-opacity:0"/><stop offset="1" style="stop-color:#444140"/></radialGradient><path d="M86.7 19.7c1.3 2.9.2 6-1 7.3-.1.2-.8.9-1 1.4 0 0-2.8-3.6-3.7-5.8l-.4-1.4q0-.6.2-1.1c.3-.4 5.7-.7 5.7-.7z" style="fill:url(#n)"/><radialGradient id="o" cx="68.9" cy="99.7" r="8.6" gradientTransform="rotate(92 28.69 120.18)scale(-1 .833)" gradientUnits="userSpaceOnUse"><stop offset=".7" style="stop-color:#444140;stop-opacity:0"/><stop offset="1" style="stop-color:#444140"/></radialGradient><path d="M62.5 20.7c-1.1 3 .3 6 1.5 7.2.2.1 1 .8 1 1.3 0 0 2.6-3.9 3.4-6.1l.2-1.4q0-.6-.2-1.1-.4-.5-1-.2h-4.7z" style="fill:url(#o)"/><radialGradient id="p" cx="70.4" cy="93.2" r="6.7" gradientTransform="matrix(-1 .04 .02 .49 139.33 -18.12)" gradientUnits="userSpaceOnUse"><stop offset=".7" style="stop-color:#444140;stop-opacity:0"/><stop offset="1" style="stop-color:#444140"/></radialGradient><path d="M75.1 34.1v-2.6l-8.2-.4-.7 1s1.8 2.3 6.4 2.1z" style="fill:url(#p)"/><radialGradient id="q" cx="63.8" cy="94.2" r="2" gradientTransform="rotate(202.8 -3.82 36.87)scale(-1 .742)" gradientUnits="userSpaceOnUse"><stop offset=".7" style="stop-color:#444140"/><stop offset="1" style="stop-color:#444140;stop-opacity:0"/></radialGradient><path d="M66.2 30.9c1.1-2-1.6-2.5-1.6-2.5q.8.8.5 1.6c-.4.6-1.4.8-1.4.8s1.5 1.1 2.5 0" style="fill:url(#q)"/><path d="M75 31.3h-3.2V34c0 3.1 3.4 4.5 3.4 4.5s3.1-1.7 3.1-4.6v-2.6zm7.4-9.8h-2L69 22h-2c-1.7 0-3 1.5-3 3.3s1.4 3.2 3 3.2l2.2-.1 11.2-.3h2.1c1.7-.1 3-1.6 3-3.4s-1.5-3.2-3.2-3.1" style="fill:#3c2b24"/><path d="M74.4 10.3c-5 .1-9.3 5.5-9.1 13s5 11.2 9.7 11 9.4-4 9.2-11.4c-.2-7.6-5-12.7-9.8-12.6" style="fill:#70534a"/><circle cx="70.2" cy="24.5" r="1.4" style="fill:#1a1717" transform="rotate(-1.6 70.15 24.47)"/><circle cx="79.4" cy="24.2" r="1.4" style="fill:#1a1717" transform="rotate(-1.6 79.43 24.22)"/><path d="M77.2 29.4c-.8.6-3.8.7-4.7.2q-1-.3-.8.6c.2.5 1.8 1.5 3.2 1.4 1.4 0 3-1.1 3.2-1.6s-.3-.9-.9-.6" style="fill:#1a1717"/><path d="M75.8 26.9h-2.2q-.3.2-.2.5.1.6 1.3.7c.8 0 1.2-.6 1.3-.8q0-.3-.2-.4" style="fill:#33251f"/><path d="M72.2 21.8q-.4-.8-2-.8c-1.7 0-1.9.5-2.1.9q-.1.3 0 .4t.5.1 1.6-.3q1.1 0 1.5.3.4 0 .5-.2.1-.1 0-.4m9.3-.3q-.5-.6-2.1-.8c-1.2 0-1.8.6-2 1q-.2.2 0 .4h.5l1.5-.3q1.2 0 1.6.3l.5-.1z" style="fill:#1a1717"/><path d="M85.7 13.6c-.7-1-2.3-2.4-3.7-2.4-.3-1.3-1.8-2.4-3.2-2.8-3.8-1-6.2.4-7.5 1.2-.2.1-2 1.2-3.2.5-.8-.4-.8-1.6-.8-1.6s-2.4 1-1.5 3.6c-.8 0-1.9.4-2.4 1.6a4 4 0 0 0-.1 3.2c-.7.6-1.6 2-1 3.6.6 1.2 2.5 1.7 2.5 1.7q.1 3.4.7 4.2.1.2.2 0c.2-1.1 1-5 1-5.8 0 0 3.1-.7 6-3.1q1-.8 2-1.2c3.9-1.7 4.8.9 4.8.9s2.6-.7 3.6 3l.9 5.2h.2q.5-1.1.8-3.1c0-.5 1.2-1.1 1.6-3a8 8 0 0 0-.9-5.7" style="fill:#232020"/><radialGradient id="r" cx="79.6" cy="104.3" r="10.1" gradientTransform="rotate(69.8 10.6 -29.2)scale(1 -.742)" gradientUnits="userSpaceOnUse"><stop offset=".7" style="stop-color:#444140;stop-opacity:0"/><stop offset="1" style="stop-color:#444140"/></radialGradient><path d="M85 22.3c0-.5 1.1-1.1 1.6-3l.1-.6a8 8 0 0 0-1-5.1c-.7-1-2.1-2.2-3.4-2.4H82l-.2 1.1c-.2.6-.9.8-.9.8 3.5 3.3 3.4 6.2 4 9.2" style="fill:url(#r)"/><radialGradient id="s" cx="69.8" cy="115.3" r="2.7" gradientTransform="rotate(26 -245.7 -65.13)scale(1 -1.186)" gradientUnits="userSpaceOnUse"><stop offset=".6" style="stop-color:#444140"/><stop offset="1" style="stop-color:#444140;stop-opacity:0"/></radialGradient><path d="m72.1 9.1-.8.5c-.3.1-2 1.2-3.2.5-.8-.4-.9-1.5-.9-1.6-.3.5-1.2 3.7 1.9 3.8 1.3 0 2.1-1.2 2.6-2.2z" style="fill:url(#s)"/><radialGradient id="t" cx="152" cy="68.1" r="8.2" gradientTransform="matrix(-.953 -.357 -.197 .537 233.68 30.53)" gradientUnits="userSpaceOnUse"><stop offset=".7" style="stop-color:#444140;stop-opacity:0"/><stop offset="1" style="stop-color:#444140"/></radialGradient><path d="M78.4 8.3q3 .8 3.6 2.9c0 .4.3 4.3-7.2.2C72 9.8 72.7 8.8 73 8.7c1.3-.5 3-1 5.4-.4" style="fill:url(#t)"/><radialGradient id="u" cx="68.7" cy="112.9" r="2.4" gradientTransform="rotate(177.7 1.1 75.8)scale(-1 1.223)" gradientUnits="userSpaceOnUse"><stop offset=".7" style="stop-color:#444140;stop-opacity:0"/><stop offset="1" style="stop-color:#444140"/></radialGradient><path d="M67.2 8.5c-.2.1-2.3 1.2-1.4 3.6l2.2.2c-2-1.9-.7-3.8-.8-3.8" style="fill:url(#u)"/><radialGradient id="v" cx="68.4" cy="108.6" r="4.6" gradientTransform="rotate(12.8 386.62 668.43)scale(-1 .936)" gradientUnits="userSpaceOnUse"><stop offset=".7" style="stop-color:#444140;stop-opacity:0"/><stop offset="1" style="stop-color:#444140"/></radialGradient><path d="m67.2 12.2-1.4-.1h-.3q-1.3.2-2.1 1.6a4 4 0 0 0-.3 2.7l.2.5s.6-.7 2.2-.8z" style="fill:url(#v)"/><radialGradient id="w" cx="67.3" cy="104.2" r="4.8" gradientTransform="rotate(185.5 -3.05 79.7)scale(-1 1.405)" gradientUnits="userSpaceOnUse"><stop offset=".6" style="stop-color:#444140;stop-opacity:0"/><stop offset="1" style="stop-color:#444140"/></radialGradient><path d="M63.2 17a3 3 0 0 0-.8 3.5c.6 1.3 2.4 1.7 2.4 1.7l.5.1.2-6.2a4 4 0 0 0-2.2.7z" style="fill:url(#w)"/></svg>