<svg xml:space="preserve" width="16" height="16" viewBox="0 0 128 128"><path d="M80 116.6q-.1 1.7-1.7 2.5c-2 .7-6 1.7-13.6 1.7-7.7 0-12-1-14-1.8q-1.6-.7-1.7-2.4v-15.2h31z" style="fill:#ffca28"/><path d="M80 116.6s-2.5 4.2-15.3 4.2-15.7-4.2-15.7-4.2" style="fill:none;stroke:#ffca28;stroke-width:7;stroke-linecap:round;stroke-miterlimit:10"/><path d="m52.5 104.8-3.5 1.4v1.6s3.7 1.3 15 1.3 16-1.3 16-1.3v-3.6z" style="fill:#ea9843"/><path d="m107.3 40.9 9.7.6q1-.2.9-1.2L105 7a1 1 0 0 0-1.9-.1 74 74 0 0 0-7.7 25C94 46.8 99.6 52 102.1 62c3.4 13.9-9.2 20.9-24.3 23.1a3 3 0 0 1-3.4-2.7l-5.6-49.2 7.1 2a1 1 0 0 0 1-1.2L65 3.6a1 1 0 0 0-1-.6 1 1 0 0 0-1 .6L51 34a.8.8 0 0 0 1 1.1l7.2-2-5.6 49.2a3 3 0 0 1-3.4 2.8c-15-2.2-27.7-9.2-24.3-23.2 2.5-9.9 8.3-15 6.7-30a74 74 0 0 0-7.7-25.1 1 1 0 0 0-2 0L10.2 40.4q-.1 1 .9 1.2l9.7-.6c-1 5.7-13.5 16.9-13.5 34.4C7.2 90.9 25 107 64 107s56.8-16.2 56.8-31.8c0-17.5-14.8-24.5-13.5-34.4" style="fill:#ffca28"/><path d="M10.2 40.3 23 34c.5 1.9-2.2 6.8-2.2 6.8l-9.8.7-.7-.3c-.3-.3-.1-.9-.1-.9" style="fill:#ea9843"/><path d="M62.3 11.6c.2-.6 1-.5 1.1.1.1 2 .2 4.6 0 6.5-.6 5.9-4.5 9-6.6 10.3q-.9.3-.9-.7zm42.2 3.8c0-3.6-.6-5-1.9-2.1a61 61 0 0 0-4 15.3c-.4 3.4 1.8.8 3-1.6 1.2-2.2 2.9-5.8 2.9-11.6m-81.4-1.2c.1-.5.8-.5 1 0a21 21 0 0 1-1.7 14 18 18 0 0 1-7 7.2.5.5 0 0 1-.7-.6 79 79 0 0 0 8.4-20.6" style="fill:#ffecb3"/><path d="m59.1 34.4 1.1-5.7c0-.2-6.8 4.5-9 6q.3.5.9.4zM115 91.6q3-3.8 4.4-7.8 1.5-4.2 1.4-8.5c0-17.5-12.2-28-13.5-34.4l9.8.6q1-.1.8-1.2L102.6 30c-2.2 8.4 1.1 16.4 4.8 24.1 8.9 18.8 5.5 26.7-4.6 33.4-8.2 5.4-24 9.4-33.4 9.1-2.6 0 2.2-5.9 6.3-12a3 3 0 0 1-1.3-2.3l-5.6-49.1 7.1 1.9a1 1 0 0 0 1-1.1l-10.2-7.4a1 1 0 0 0-1.6.8L64 107c25 0 43.7-6.6 51-15.5M68.9 34l-1.1-5.3c0-.2 6.8 4.5 9 6q-.3.5-.9.4zM9.6 85C15.5 97 33 107 64 107c0 0-4.9-8-12-8s-23.2-1-33.1-8.4q-4.5-3.6-7.1-7c-1-1.2-2.9-.1-2.2 1.2" style="fill:#ea9843"/><path d="M13.4 72.2c-1.5-11 8.7-21.5 8.7-21.5.8-1 2.3-.2 1.9 1 0 0-7.2 11-5 21 2.1 9.5 11.6 13.8 11.6 13.8 1 .6.2 2.3-.9 2-5.5-1.7-15.1-7-16.3-16.3m36.5 44.4c-.7 1.3.3 2.8 3.2 3.6 2.1.7 5.2 1.1 5.4-1 0-1-1-1.9-5.2-2.9-.8-.2-2.8-1-3.4.3" style="fill:#ffecb3"/><path d="M49 113.6a31 31 0 0 0 15.7 3.7c10 0 15.3-4.4 15.3-4.4v-11.5l-6.3 2.8s-.2 2.8-.2 6.9-9.3 4-10.5 4c-11.5 0-14-4.4-14-4.4zm25.4 2.2s3.3-1 4.7 1c2 2.8.4 4.7.4 4.7s4.9-2.2 4-5.5c-.8-3.1-3.5-3.1-3.5-3.1l-5 1.6z" style="fill:#ea9843"/></svg>