<svg xml:space="preserve" width="16" height="16" viewBox="0 0 128 128"><path d="M57.2 51.6s-6-7.8-5.3-18.2c.9-12.1 7.4-22.8 20.3-26.7s25.2-.4 25.2-.4L95.3 11s14 3.3 16.1 4.4 7.5 7.3 8.1 15.5-2.7 15-4.3 17.3c-2 3-5.6 5.2-7.1 5.2s1.5-3.2 1.8-7-.5-4.5-.5-4.5-.8 3.4-1.4 5.2c-.4 1-1.8 4.2-2.1 2.9s-.6-10.4-4.5-12.3c-1.6-.9-4.9-2.3-12.3 3.7-8.2 6.6-9.5 19.8-9.5 19.8s2.9 3.4 3.2 4.3 3.8 5 2.3 15.9a137 137 0 0 1-3.4 17.4c-.7 2-1.4 5.4-4.3 6.8-1.8.9-6 1-6.5-1-.5-2.1 1.3-3.9 1-5.7s-2.5-3.2-6.1-.6A22 22 0 0 0 58 107c-1.6 3.5-3.1 8.6-6 12.2-3 3.6-5.4 4.2-9.5 3.6-4.5-.6-2.3-2.8-1.5-4.4.8-1.5.3-4 0-4.7-.6-1.9-2.5-2.1-2.5-2.1s.3 4.8-1.9 6.3-5.2 3.1-8.6 2c-3.5-1.1-1.3-3.1-.3-5.2s.3-3 0-3.7l-2-7.3s-4.4 1.7-10.5-1.3c-3.8-2-4-5.1-3.7-6.7s1.6-2.5 1.6-2.5-.7-7.6.4-11 2.9-4.4 2.9-4.4-2.4-6.5 2-8c5-1.7 7 3.4 7 3.4s2-.5 5.4.7c3.3 1.2 4.7 2.1 5 1.8l5.3-15s5.7-5.7 7.2-6.5c1.3-1 2.8-2 8.9-2.6" style="fill:#4d4d4d"/><path d="M20.3 90.3c.8.5 4.3-3.6 8.8-6.7 4.5-3 7.6-2.6 7.6-2.6s3.4-3 7.4-1 2.6 8 2.6 8 8.1-13.5 13.2-18 11-6.2 15-6.2 7.9 1.7 7.9 1.7-1.5-3.3-6.6-7.6c-5.7-4.8-11.6-3.5-17.4-.6A67 67 0 0 0 41 72.4s.4-5 1.8-8.6c1.2-3.3 4-6.7 6.1-8.3 3-2.4 5-3.5 5-3.5s-3.9 0-9.3 4c-6.5 4.4-8.7 10.5-9.2 11.7S33.6 72 33.6 74c-2-1.4-7.3-1-7.3-1s-2.6 3.7-4.1 7.2c-1.3 3-2.7 9.6-2 10.1m50.6-35.2-5.2-1.5-3.7-1S57 46 56.9 36c-.2-10 4.6-18 4.6-18l2.7 8s3.3-9.2 10-14C82.4 6 91 3.4 99.8 7c9.3 3.8 12 7.6 12.4 8.1l2.4 3.5s-9.3-4.2-15.6-3.2a26 26 0 0 0-15.2 7c-4.8 4.4-6.2 8.3-6.2 8.3s4.3-.6 6-.6c2.6 0 4.5.8 4.5.8s-8.4 3.4-12.3 9.8-5.4 13.8-4.6 14.6z" style="fill:#ddd"/><path d="M14 94.3c-.6.4.8 6.1 1.4 6.3.8.2 4.8-2.8 4.8-3.5s-2.5-1.6-3.4-2-2.4-1.1-2.9-.8" style="fill:#ffa7a6"/><path d="M33.5 90.2a3 3 0 0 1-3.2 3q-2.4-.5-2.5-3c0-2.5 1.3-3.1 3-3.1 1.9 0 2.7 1.5 2.7 3.1m-14.2-6c0 1.6-1.2 3-2.8 2.7q-1.6-.2-1.7-2.7c-.1-2.5.8-2.7 2-2.8 1.9-.2 2.5 1.2 2.5 2.8m-1-7.8c.2.1 1.4-.6 2.6-1q1.8-.6 2.2-1c.1-.4-1-3.5-3.7-2.4-2.5 1.1-1.3 4.1-1 4.4M39 83.3c0-.6 3.6-2.3 5 .5 1.5 2.8-1.6 5-2 4.8-.3 0-.8-1.5-1.6-3-.5-1-1.4-2-1.4-2.3" style="fill:#141414"/></svg>