<svg xml:space="preserve" width="16" height="16" viewBox="0 0 128 128"><linearGradient id="a" x1="31.5" x2="37.5" y1="7.8" y2="35.6" gradientUnits="userSpaceOnUse"><stop offset=".4" style="stop-color:#e0e0e0"/><stop offset=".6" style="stop-color:#c8c8c8"/><stop offset=".8" style="stop-color:#b6b6b6"/></linearGradient><path d="M31.3 36.8s-1.2-6.2 3-10.1 7.6-3.1 12.9-6c5-2.7 8-7.8 7.2-8.4s-1.8 1-5.8 1.5c-4.8.7-11.5.1-18.7.7-7.9.7-13 3-15.3 9.2-2 5.4 1.5 11.6 1.5 11.6z" style="opacity:.7;fill:url(#a)"/><linearGradient id="b" x1="67.7" x2="73.1" y1="9.8" y2="35.1" gradientUnits="userSpaceOnUse"><stop offset=".4" style="stop-color:#e0e0e0"/><stop offset=".6" style="stop-color:#c8c8c8"/><stop offset=".8" style="stop-color:#b6b6b6"/></linearGradient><path d="M52.4 35.2s-2.5-7.9 1.7-13c4-5.1 8.1-6.2 15.7-7 8.6-1 11.7-.5 14.6-1.4 1.4-.4 4-2 4.6-1.2.7.9-2.6 6.8-9.9 10.3-6.2 2.9-8.7 4.4-9.6 8l-1.3 5.2z" style="opacity:.7;fill:url(#b)"/><path d="M32.8 39.4s1.2-.6 1.1-2.9c0-2-1.5-2.6-2.6-2.7l-16-.1c-.7 0-2.2.8-2.2 3.1-.1 2 1.2 2.6 1.2 2.6L11 68l11.2 11.8 14.6.4zm18.4.1s-1.4-.8-1.3-3c0-2.1 1.6-2.8 2.2-2.8l17.3.1c.6 0 1.6 1 1.5 3 0 2-1.4 2.8-1.4 2.8l4.7 41.8-25.5-11.7z" style="fill:#cc1935"/><path d="M13.7 45h19.7l.7 8H12.7zm-2.2 18.2h23.6l.8 8.3H10.4zM50.7 45h19.4l.9 7.8H50zm-1.5 18h22.9l1 8.6H48.4z" style="fill:#f1edec"/><path d="M4.2 85.5V65.3q.2-1.4 1.6-.8c.7.2 2 1 2 1l10.9 17.1 21-1 .1-17.2c0-1 1.2-.8 1.9-.5l1.8 1 5.2 25.7-42.2-1.2z" style="fill:#848486"/><path d="M7.8 85.5v-20l31.9 16v5.6H8zM43 86.9l.5-1.4V64.8L81 83.6V25.1h42.7v94.3L102 121l-28.5.2z" style="fill:#b2b2b2"/><path d="M80.2 119.6h9.3V88q-.1-2 2.1-2h22.5c1.2 0 2 .6 2 2.8v30.6h7.7v3c-.2.9-.3 1.4-2 1.4h-43z" style="fill:#848486"/><path d="M90.2 81.1V26.6l11.5-2.9 13 3.2V81s-24.7 0-24.5.1" style="fill:#f2eeed"/><path d="M93.5 30h18.1v13.8H93.5zm0 17.2h17.9v14.5H93.5zm0 17.9h18.1v12.8H93.5z" style="fill:#a7d0d6"/><path d="M78.9 21.6c-.3.2-.3 5.5.1 5.5s46 .4 46.4 0c.3-.3.2-5.2-.1-5.6-.2-.2-11-.3-22-.2-12 .1-24.2 0-24.4.3" style="fill:#848486"/><path d="M71.9 85.5H81v34.8h-9.1z" style="fill:#f6b99d"/><path d="M4.2 85.5H78v35.1H4.2z" style="fill:#e14536"/><path d="M39.7 85.5h3.8v36.4h-3.8z" style="fill:#f6b99d"/><path d="m81 119.6-76.9.2v2.2c0 .7.2 1.7 1.7 1.8s75.1 0 75.1 0z" style="fill:#a41916"/><path d="M16.5 97v9q0 1.7 2 1.7h9.2c1.2-.1 1.2-1.4 1.1-2.3V97q.1-1.3-1.7-1.5c-1.3 0-8.6-.1-9.3 0-.5 0-1.3.3-1.3 1.5m40.2-1.4c-1.3 0-1.5.9-1.5 1.8v8.2c0 .7.2 2 1.5 2s8.2.1 9.3 0c1.5-.2 1.3-1.5 1.3-2.4l.1-7.8q0-1.8-1.7-1.8z" style="fill:#f1ebee"/><path d="M57.3 97.5h8v8.1h-8zm-38.9 0h8.4v8.1h-8.4z" style="fill:#a7d0d6"/></svg>