<svg xml:space="preserve" width="16" height="16" viewBox="0 0 128 128"><path d="m70 6.3 52.2 52c3 3.2 3 8.1-.2 11.1l-52 52.2a8 8 0 0 1-11.3 0l-52-52.2a8 8 0 0 1-.2-11l52.2-52a8 8 0 0 1 11.3 0" style="fill:#f77e00"/><path d="m65.1 10.4 48.5 48.4a7.3 7.3 0 0 1-.1 10.3L65 117.6a7.4 7.4 0 0 1-10.5 0L6.2 69.1A7.3 7.3 0 0 1 6 58.8l48.6-48.4a7.4 7.4 0 0 1 10.5 0" style="fill:#ff9800"/><path d="M53.3 17.6c-1.6 1.1-33 32.3-33 32.3s-2.7 2.3-.9 4.7c1.7 2.2 4.3 1.1 5.6 0s29.7-29 31-30.5a5 5 0 0 0 .5-5.5q-1.3-2.3-3.2-1" style="fill:#ffbd52"/><circle cx="15.9" cy="60.4" r="3.3" style="fill:#ffbd52"/></svg>