<svg xml:space="preserve" width="16" height="16" viewBox="0 0 128 128"><path d="M116.6 124.3H11.3a7.5 7.5 0 0 1-7.5-7.6V11.4C3.8 7.3 7.2 4 11.3 4h105.3c4.2 0 7.5 3.4 7.5 7.5v105.3c0 4.2-3.3 7.6-7.5 7.6" style="fill:#95c7ec"/><path d="m10.4 117.7.3-108.4 108-.6-.4 108.8z" style="fill:#10203d"/><path d="M49.7 22a38 38 0 0 1-14.9.5c-6.6-.6-13.8 0-17 1.8s-7.2 5.5-7.2 5.5l-.4 52.7 6.7-9.7s-.3 10.5 1.5 25.2a90 90 0 0 0 4.6 19.5h84.7s3.3-14.6 4-22c.9-10.6 0-20.3 0-20.3l6.6 7.7.3-52.1s-3.4-4.4-10.4-6.4c-8.5-2.5-19.6-2.2-24.4-2.3-1.6 0-3.8.2-4.4-.6S79 9.3 79 9.3L50.4 9s.4 12-.7 13" style="fill:#2865ab"/><radialGradient id="a" cx="65.5" cy="68.4" r="75.1" gradientTransform="matrix(1 -.01 .007 .728 -.47 19.25)" gradientUnits="userSpaceOnUse"><stop offset=".6" style="stop-color:#7ac4d9"/><stop offset=".8" style="stop-color:#4fa4c6"/><stop offset=".9" style="stop-color:#3c95bd"/><stop offset="1" style="stop-color:#327db5"/></radialGradient><path d="M55.3 24.9s1-4 1-8.5c.2-4.5 0-7.4 0-7.4l16.4-.2s-.4 4.8-.4 7.3.3 7.2.9 8.1 4.7.3 8.4 2c4.2 2 5.4 6 5.4 6l18.5-.6 6.8 3.2s2.4 2 3 4.8.8 7 .8 7l2.8 3.9-.7 16.3s-7-8.1-8.3-9.4c-1.2-1.2-2.6-4.3-4.2-1.2-1.5 3 3 6.8 2.7 20.8-.4 14-2 24.1-6.2 23.2s-1.6-7.1-2.2-15.5-2.1-20.3-7.5-32-16.2-15.5-18.7-14.9-1.5 18.5-1.2 25 2.9 15 7 20.9c4.2 5.8 9.5 7 11 13s-.1 9.2-.1 9.2 5.7.2 8.5 3 4.8 8.9 4.8 8.9h-78s.3-8.8 7.6-13.8 13-4.1 13-4.1l4.2-5.4L56 76s.4-17.1.4-23 .3-12.7-.2-13.7c-.5-1.1-5.4-2.8-5.4-2.8s-10 4.5-14.5 14.2-6 21.7-6.6 33c-.7 11.3.7 17.8-2.2 17.3s-7.6-9.7-7.4-26c.1-16.5 3.4-20.8 1.5-21.7-1.8-1-4 2.4-7.4 6.6q-3.6 4.5-3.8 4.5V47.2S13 45 13 42.7s.4-6.6 4.8-9S41 31.9 41 31.9s1.7-3.4 6.3-5.7 7.9-1.3 7.9-1.3" style="fill:url(#a)"/><path d="M58.2 9s-.2 4.3.8 4.9 2.7.2 5.7.2 4.3.4 5.2-.2.3-5.3.3-5.3z" style="fill:#fcfdfd"/><path d="m9.6 8.3-.2 110.6 109.8.1.4-111.2zm1.8 108.6-.2-106.7 106.2-.5v107z" style="fill:#004ca5"/><path d="M114.8 7c-.6 1-.4 4.7.3 5.2s4.5 0 5.1-.4.3-4.6-.4-5.2-4.6-.4-5 .3M8 7.6c-1.2 1.2-.7 4.6 0 5.2.8.6 4.5.7 5.3 0 .9-.8.8-4.7-.2-5.5S9 6.6 8 7.6m-.2 107.1c-.6.7-.6 4.6.2 5.3s4.5.7 5 .2.7-4.6 0-5.1-4.8-.9-5.2-.4m106.8.2c-.7.4-.5 5 .2 5.5 1 .8 4.6.5 5.2-.2s.7-4.6.2-5.1-4.5-.8-5.6-.2" style="fill:#daebf5"/><path d="M16.6 34.3c1 2.5 7.4 0 7.4 0s5-.6 11.8.3 20.6 6.2 20.6 6.2-2.1 1.7-5.8.5c-3.6-1.3-5-4-6.2-3.3-1 .6-.6 4.9 4.6 7s9.3.2 9.3.2l.2 6.9s-1.4-1-3.3-1.1-15.5.9-17-3.6 2.8-7 3.8-7.8 1.6-2.2.4-2.8-9 2-9.5 8.8 8.5 10.1 13.6 10.6 9.7.4 10.5.2 1.7-1 1.7-1 .6 18.6 1 21 2 5.3 4.9 5 3.5-3.7 3.8-6l1.5-19.3s1 1.2 2.3 1.2 11.8 1 17.4-1.5q8.3-3.9 6.8-12c-1.5-8.2-7.1-7.4-8.3-6.4s.7 2.7 1.5 3.5c.9.9 4 7-1 9.3-4.8 2.3-15.1 1.2-16.3 1.4-1.2.3-2 1.6-2 1.6l.2-7.7s7.4 1.8 11.4-2 3.2-5.7 2-6-2.2 3.3-5.2 4.1c-3 .9-6.8.5-6.8.5s5.5-3.9 15.4-6.2 18.5-1.2 18.5-1.2 4 3.4 6.9 1.1c2.8-2.3-1.2-6.4-4-6.7S98.4 28 86.9 30.8c-11.9 3-19 7.7-19 7.7s-5 .4-8-1-10.6-5.6-23-7.9c-9-1.6-16-1.4-17.7-.7-1 .4-4 1.8-2.6 5.4" style="fill:#fefefe"/><path d="M45.7 29.7c0 1.2 1.2 2 2.1 2s2.6-1.5 5.2-1.8c2.7-.4 3.3.2 4-.1s1.3-1.6.2-2.5c-1-.8-4.5-.8-6.4-.4s-5 1.8-5 2.8" style="fill:#fdfffe"/><path d="M58.2 32.4c0 1.3 0 3 1.7 3.6 1.1.5 1.7 0 4.5 0 2.8-.2 4 .3 5.5-.7s1.2-4.4.3-5.2-4.5-.5-5.8-.5-6.4-1.1-6.2 2.8m.6-9.8c-.7.6-.6 4.4.3 5.1.9.8 9.2.3 10 .3s1.4-.7 1.4-3-.2-3.1-3.1-3c-3 .1-7.6-.3-8.6.6m.1-6.8c-.5.6-1.2 4-.2 4.7s3.8.1 5.7.1 4.6.6 5.6-.5c1-1 .6-4.4-.4-4.9s-3.2 0-5.3 0c-2.2.1-4.8-.1-5.4.6" style="fill:#fefefe"/><path d="M72.7 28q-.2 1.7 2.1 1.6c2.3-.1 3 0 3.8.5s1 1.2 1.9 1.3 3 0 2.9-1.3-2.6-2.6-4.7-3-6-.8-6 1M32.6 50.7c-1.2-1-3.4 1.3-4.1 2-.7.9-4.5 5.5-.5 10.8s11.8 5.2 17.1 4.8c7.2-.7 13.7-3.7 12.7-7-.7-2.4-8.1 2.8-16.7 2-8-.9-10.6-2.7-10.7-6.7-.1-3.9 4.2-4.4 2.2-5.9M71 61.5c-.9 1.4 0 3.1 3.6 4.6 5.3 2.2 19.3 6 25.7-.6s.3-15.9-2.6-15c-3.7 1 4.4 6.8-1 10.6-4.4 3-11.3 2.2-17 1.3-5.3-.8-7.4-2.8-8.7-.9m-.3 6.7c-1 1 .5 5 6.5 8.3s12.5 5.7 20.3 4c8.3-1.9 8.5-12.9 4.7-13.3-3.1-.4 1.4 6-6.1 7.4A29 29 0 0 1 79 71.4c-2.7-1.4-6.6-5.2-8.3-3.2m-.3 5.9c-1.3 1-1.3 2.5-.2 6 .9 2.7 5 15.8 11.9 23.4 6 6.6 9.7 6.3 9.7 4.6 0-3.2-1.5-2-7-9.6-4-5.5-7.3-12.5-7.3-12.5s3.3 3.1 6.6 5.5c3.3 2.3 6.6 3.4 7.6 3s.6-2.7-.2-4c-.6-1-2-1.3-4.8-3a66 66 0 0 1-10.1-8.3c-3-3-5-6-6.2-5M93 94.6c.6.5 4.9.3 7.5-1.7 4.2-3.4 4.5-6.4 4.5-10 0-2.4-1-4.2-1.8-3.9s-1 5.7-3.5 8.6c-2.8 3-5.3 1.9-6.8 2.6-1.4.7-.9 3.7 0 4.4m-.2 11.9c-.4.5-.2 2.5.4 3.4s6.5 1.2 8.9-2.4c2.6-3.9 2.4-12.8.4-12.6-1.8.1-.9 7.7-3.9 9.8-3 2-4.7.5-5.8 1.8M25.8 64.8c-1.7.3-1.8 5.6-1 9 .8 3.7 4.7 7.8 12.5 7.4 9.4-.4 16.8-6.8 18.2-8 1.5-1.1 3.3-3.4 2.5-4.5-.8-1-2.7-.4-5.1.9-2.5 1.3-11.3 5.9-16.1 5.6s-7-2-8-4.9-1.4-5.7-3-5.5M58 74.7c-1.2-.5-2.4.8-4.2 2.6s-7.5 7.4-11.1 10c-1.8 1.2-3.6 1.6-4 2.8s-.1 3.4.7 3.7c1.6.5 6.1-3 8-4.3s4.2-3.9 4.2-3.9-2 7.2-7.2 13.2c-4.8 5.7-5.5 4.8-6.8 6.6s-1.3 3.2-1.3 3.2-.2 2.5 1.7 1.9c2-.7 6.3-3 10.3-8.6s6.5-11 8.1-15.5 3.4-11 1.7-11.7m-32 4.1c-1.6-.7-3.6 2.4-2.5 7.4 1 5.1 4.3 7.2 7.6 8 4 1.1 6.1 1 6-1.5s-2.4-2.4-4-2.7c-1.4-.3-4.8-1.3-5.8-4.8-1.2-4.3-.2-5.9-1.3-6.4" style="fill:#fdfffe"/><path d="M27.4 94.6c-1-.1-2 1.4-2 5 0 4.2 1.7 8.3 4.6 10.1q3.5 2.1 5.1 1.5c1.5-.3 1.6-4.1.6-4.6s-3 0-5-2.3a9 9 0 0 1-2.3-6.5c.2-1.8-.2-3.2-1-3.2" style="fill:#fefefe"/></svg>