<svg xml:space="preserve" width="16" height="16" viewBox="0 0 128 128"><path d="M97.2 27.3c.2-7.4 4.5-11.9-.2-17.5C93.9 6 87.7 7.6 86.6 9c-2.1 2.8 1.5 5.3 2.3 6.7 1.2 2-1 10.4 2.7 16.4 5 8 10 6.8 10 6.8s-4.7-4.6-4.4-11.6" style="fill:#312d2d"/><radialGradient id="a" cx="90.1" cy="108.2" r="13.5" gradientTransform="rotate(173.6 3 81.31)scale(-1 1.21)" gradientUnits="userSpaceOnUse"><stop offset=".5" style="stop-color:#454140;stop-opacity:0"/><stop offset="1" style="stop-color:#454140"/></radialGradient><path d="M97.6 23.8c1-5.4 3.3-9.3-.6-14C93.9 6 87.7 7.6 86.6 9c-2.1 2.8 1.5 5.3 2.3 6.7 1.2 2 8.6 8.1 8.6 8.1" style="fill:url(#a)"/><radialGradient id="b" cx="104.1" cy="95.8" r="14.4" gradientTransform="rotate(170.2 96.8 -43)scale(1 -1.234)" gradientUnits="userSpaceOnUse"><stop offset="0" style="stop-color:#454140"/><stop offset=".5" style="stop-color:#454140;stop-opacity:0"/></radialGradient><path d="M97.2 27.3q.1-2.8.8-5.5c.4-1.6.8-3-.2-4.4a7 7 0 0 0-7.5-2.3q-1.3.4-1.2 1.5l.2 1.7v4.2q-.2 5.1 2.3 9.6c5 8 10 6.8 10 6.8s-4.7-4.6-4.4-11.6" style="fill:url(#b)"/><radialGradient id="c" cx="98" cy="104.9" r="7.9" gradientTransform="rotate(170 81.49 -155.41)scale(1 -3.19)" gradientUnits="userSpaceOnUse"><stop offset=".5" style="stop-color:#454140;stop-opacity:0"/><stop offset="1" style="stop-color:#454140"/></radialGradient><path d="M97 37.8s-5.9-3.5-7.2-10.3a28 28 0 0 1-.5-6.6c0-1.3.9-5.7-.2-7.2" style="fill:url(#c)"/><path d="M86.8 13.6c-2.5-4-8.2-7.2-13-6.4-5.2.8-8 4.6-8.8 9.4q-.4 2.8 0 4.8l.4 1.5c.2 1.3-2.3 2.6-2.6 4-.2 1.1 2 1.8 2.2 2 .9 1-.5 5.6 5.7 6 2.3.2 1.9 0 2.6.3 1 .5 1 3.4 1 3.4s.6 4.7 4.7 3.5c4.6-1.5 4.8-4.8 4.8-4.8s-1.7-4.6 1-9.4c2.3-3.8 3.6-11.7 2-14.3" style="fill:#f9ddbd"/><path d="M65.6 31.5q1.3 0 2.5-.7c.8-.6.2-1.3-.7-.9q-.9.4-2 .3z" style="fill:#444"/><ellipse cx="69.2" cy="23.6" rx="1.1" ry="1.7" style="fill:#312d2d" transform="rotate(-1.8 69.24 23.63)"/><path d="M68.4 21c-1.2.3-1.4-.4-1-1q.4-.7 2.3-.4c1.2.3 1.6 1 2 1.5s.2.8-.1.9-1.8-1.3-3.2-1" style="fill:#454140"/><path d="M87.3 10.4A14 14 0 0 0 77 5.6c-3.4-.2-8.2.7-11.2 3.6a8 8 0 0 0-2.5 6.6c.2 1.5 1.4 2.3 1.4 2.3s1.5-3.5 5-2.6c3.8 1 5.4.2 5.4.2-1.2 3-.1 4.6.9 5.5l1.3 1.6q.3.2.4 0l.6-1.8c.7-1.4 1.8-.9 1.8-.9 1.5.5 2 3.7-.4 5.5q-.2 0-.2.5a5 5 0 0 0 4.5 3.4q.9-.4 1-1.3c.3-2 1.6-3 2.3-3.9.8-1 1.6-2.2 2.1-5.5q.7-4.7-2.2-8.4" style="fill:#312d2d"/><radialGradient id="d" cx="76.5" cy="112.5" r="12.6" gradientTransform="matrix(1 0 0 -1 0 130)" gradientUnits="userSpaceOnUse"><stop offset=".5" style="stop-color:#454140;stop-opacity:0"/><stop offset="1" style="stop-color:#454140"/></radialGradient><path d="M87.3 10.4A14 14 0 0 0 77 5.6c-3.4-.2-8.2.7-11.2 3.6a8 8 0 0 0-2.5 6.6c.2 1.5 1.4 2.3 1.4 2.3s1.5-3.5 5-2.6c3.8 1 5.4.2 5.4.2-1.2 3-.1 4.6.9 5.5l1.3 1.6q.3.2.4 0l.6-1.8c.7-1.4 1.8-.9 1.8-.9 1.5.5 2 3.7-.4 5.5q-.2 0-.2.5a5 5 0 0 0 4.5 3.4q.9-.4 1-1.3c.3-2 1.6-3 2.3-3.9.8-1 1.6-2.2 2.1-5.5q.7-4.7-2.2-8.4" style="fill:url(#d)"/><linearGradient id="e" x1="52.4" x2="31.5" y1="40.7" y2="15" gradientTransform="rotate(182.5 3.2 60.32)scale(-1 1)" gradientUnits="userSpaceOnUse"><stop offset=".5" style="stop-color:#e0e0e0"/><stop offset="1" style="stop-color:#bdbdbd"/></linearGradient><path d="m23.7 121.2-2.1-2 35.7-37.5 10-10.3 2 2-15.3 16z" style="fill:url(#e)"/><path d="M19.8 112.1h18.4v3H19.8z" style="fill:#ff3d00" transform="rotate(-46.4 28.98 113.54)"/><linearGradient id="f" x1="34.6" x2="30.6" y1="116.6" y2="120.6" gradientTransform="rotate(3.5 -6.66 -50.16)" gradientUnits="userSpaceOnUse"><stop offset=".5" style="stop-color:#e0e0e0"/><stop offset="1" style="stop-color:#bdbdbd"/></linearGradient><circle cx="21.8" cy="121" r="2.9" style="fill:url(#f)"/><path d="m57.3 81.7 2.2 2 11.8-12.3q.6-.7 0-1.4l-.7-.7a1 1 0 0 0-1.5 0z" style="fill:#636262"/><path d="m104.4 108.8-14-16a6 6 0 0 1-1.5-3.6L87.5 67l-15.4 1.7 4.9 23a16 16 0 0 0 5.9 9.4l16.4 12.5z" style="fill:#646464"/><path d="m87.3 63.2-17.5 1.6L65.3 85q-1.2 5.6-.8 11.4l1.6 23.1h6.7l2.9-24.9 5.1-13.3c3.3-1.6 7.4-4 7.4-9.7z" style="fill:#7c7c7c"/><path d="M73.9 124q1 0 1-1.2v-2.7c0-2-1.8-4.1-1.8-4.1h-7l-6.2 2a4 4 0 0 0-2.6 3.7v1.3q.1 1 1 1z" style="fill:#4568ad"/><path d="M108.7 111.9q.7-.8 0-1.6l-2-2c-1.3-1.3-4.2-1.5-4.2-1.5l-4.9 5-3 5.8a4 4 0 0 0 .9 4.4l.9.9q.7.6 1.4 0z" style="fill:#325599"/><radialGradient id="g" cx="73.7" cy="77.4" r="21.2" gradientTransform="matrix(1 0 0 -1 0 130)" gradientUnits="userSpaceOnUse"><stop offset=".4" style="stop-color:#651fff"/><stop offset="1" style="stop-color:#530eeb"/></radialGradient><path d="M86.2 73.8h-14c-2.2 0-4-2.2-4-4.9l2.1-22.4c.4-4 1.9-8 4.7-9.6 4.8-3.4 8.5-1.3 10 .8a12 12 0 0 1 1.6 5.9L89 68.9c0 2.9-.6 4.9-2.8 4.9" style="fill:url(#g)"/><linearGradient id="h" x1="78.2" x2="75.4" y1="63.5" y2="76.5" gradientTransform="matrix(1 0 0 -1 0 130)" gradientUnits="userSpaceOnUse"><stop offset=".6" style="stop-color:#f9ddbd"/><stop offset="1" style="stop-color:#ffd29c"/></linearGradient><path d="m86.1 57.3-1.8-10-8 1 2.5 9.9-9.4 9.7c-2.6 2.6 2.2 5.2 4 4.1l8.4-6.9c1.5-1.3 4.8-3.5 4.3-7.8" style="fill:url(#h)"/><linearGradient id="i" x1="72.5" x2="64.1" y1="61.3" y2="53.9" gradientTransform="matrix(1 0 0 -1 0 130)" gradientUnits="userSpaceOnUse"><stop offset=".6" style="stop-color:#f9ddbd"/><stop offset="1" style="stop-color:#ffd29c"/></linearGradient><path d="M70.6 68.4q.2-.3.1-.6 0-.4-.6-.3l-4.5 1.6c-.4.2-1.9.7-2 2.5v3.6l2.4-2.4-.2 3.6q.2 2 2.4 1c2-1 3.2-1.3 4.1-2.8.3-.5.8-3.6 1-4.2z" style="fill:url(#i)"/><path d="m75.6 53.4 10.9-2-1.8-9.7c-.5-3-3.4-5-6.3-4.4-3 .5-5 3.4-4.5 6.4z" style="fill:#3615af"/><path d="M77.3 73c-1.1-3-5-6.5-8.1-6.2-2.2 0-2.2 1.8-2.2 1.8l2.3-.8c2.3-.3 6 3 7 5.6.4 1 .6 2.4-.7 3.2q-.3.3-.6.1c-.6-.2-1.7-1.8-2.4-3l-.2 1-.4.4a7 7 0 0 0 2.7 2.5l.6.1.8-.2q2.3-1.5 1.2-4.5" style="fill:#504f4f"/></svg>