<svg xml:space="preserve" width="16" height="16" viewBox="0 0 128 128"><path d="M110.5 30.6c1.4-.8 5.8-6.1 2.7-9.9-2-2.5-7.1-4.8-9.6.4-2.6 5.8-4 10.6-14.4 9.6-3.5-.3-7.3-1.5-9.4-3.1-.6-.5-2.1-2-1-3.5L95 11.8c4.7-4.2 14.3-8.2 22.7 1.1 8 8.9 4 15.6-1.5 21.3z" style="fill:#2f7889"/><path d="M109 32.5c-6.4 10.4-48.4 54.8-79.4 78.3.5-1 .1-12.9-12.4-13.5h-1.3c1-1.4 36.8-47 73-72.5l-2.9-4C54.2 43.3 21.3 78.1 7.1 100.3c-6 9.3-2.5 17.7 3 20.7 6.1 3.4 13.7 1.7 20.4-2.6 32.5-21.1 75.8-72 82.7-83.4zm-88.8 70.9c3.8 1.2 4.4 5.2 4.2 7.9s-3.1 5.8-7.2 5.8-7.3-3.2-7.4-7.2c-.3-1.8 1.8-9.2 10.4-6.5" style="fill:#82aec0"/><path d="m32 109-2.4 1.9s-.2 4-3.3 7.5c-3.8 4.3-8.2 4.5-8.2 4.5s4.8 0 10.5-3.2 3.7-11 3.4-10.7M15.9 97.4C8 104.6 9.4 110 9.8 111.3c.2-1.2-.2-6.5 4.8-8 3.5-1 5.6 0 5.6 0-1-2-.7-4.5.9-5l.5-.2q-2.1-.8-4.4-.8zm83.5-52.9 5.8 1.4-5.2 6.4s2-4.1-2-6.2z" style="fill:#2f7889"/><path d="M14.8 92c1.2 3-5.4 8.8-6.6 15.2-1.5 7.9 1.2 10.7 1.2 10.7-2.4-.8-4.5-4.3-3.8-10.7S14.8 92 14.8 92m12.6-13.8c2.3-.6 10.3-9.7 15.1-14.2s21.2-21 18.7-20.4c-2.3.6-10.7 8.2-18.8 16.3-7.7 7.8-17.3 19-15 18.3" style="fill:#94d1e0"/><path d="m101.2 47.5-3-3.4s-1.8-8-2.4-12.2c-.6-4 1.7-3.9 4-3.4 4.4.8 9 1.8 10 1 3.7-2.5 5-6.9 1.8-10.7-2-2.5-5.7-4.8-8.5-.6-3.5 5.3-3.4 10.8-14 9.8-3.4-.3-7.2-1.5-9.3-3.1-.6-.5-1.6-.3-1-.8l6.7-5.6c3.4-2.7 5.7-5.6 9.6-9.4 4.8-4.6 14.9-7 23.3 2.4 7.2 8 7 16.6 2 21.7-2.3 2.2-5 4.6-6.9 6.6-2.8 3-5.6 6.6-7.5 8.1-1 .8-2.9 1.4-4.8-.4" style="fill:#82aec0"/><path d="M101.2 41c3-2.6 9.8-9 13-13.6a8 8 0 0 0 1.5-6.2c-.1-.5.6-.8.9-.3 1.3 2 1.6 5-.7 8.5a55 55 0 0 1-10.5 12.2c-4.3 3.6-6.7 1.7-4.2-.5" style="fill:#94d1e0"/><path d="M78.4 25.2s-.2-1.1 1-1.4c1.3-.4 3.5.9 5.4 2.2 3 2 7.8 2.2 7.8 2.2s-4.9 1-8.5-1-4.3-2-4.7-1.9q-.8.1-1-.1" style="fill:#2f7889"/><path d="M83.8 23c-.5-.2-.7-1-.3-1.3 3-2.4 8-6.6 12-10.8a9 9 0 0 1 8.9-2.8c1 .2 1.1 1.4.2 2-1.6.7-4 1.7-6.2 4.6a31 31 0 0 1-9 8.6 7 7 0 0 1-5.6-.3" style="fill:#b9e4ea"/></svg>