<svg xmlns:xlink="http://www.w3.org/1999/xlink" xml:space="preserve" width="16" height="16" viewBox="0 0 128 128"><path d="M89.7 75.1q.3.6.8.2c3.7-4.5 13.6-17 25-13.7a6 6 0 0 1 3.9 8.2c-2.3 4.9-14.7 13.2-21.1 24-1 1.7-9.6 21.6-24.1 27.4s-39.5 5.1-46.9-23c-3.8-14.5-1.7-17.9-5.6-37.1-.8-3.8-3.6-20-4.1-24.7-.7-6.3 8.2-8.5 10.4-3.1 1 2.6 8.7 27.2 9 28.2.6 1.9 3 1.3 2.9-.4-1.7-19.9-3.8-38.4-3.5-44.7s9.9-7.3 11.2-.8c.8 4.4 5.8 39.2 6 40.7s2.6 1.3 2.8-.3 2-38.8 3.2-46.8c1.1-7 12.4-6.9 12.6 1.1.2 6.4-.9 45.7-1 47-.1 2 2.2 2.2 2.5.1.2-1.4 8.1-36.8 9.2-40.3 1.8-6.1 12.1-5.7 11.8 2.5-.6 11.3-7.1 42.2-5 55.5" style="fill:#a56c43"/><defs><path id="a" d="M89.7 75.1q.3.6.8.2c3.7-4.5 13.6-17 25-13.7a6 6 0 0 1 3.9 8.2c-2.3 4.9-14.7 13.2-21.1 24-1 1.7-9.6 21.6-24.1 27.4s-39.5 5.1-46.9-23c-3.8-14.5-1.7-17.9-5.6-37.1-.8-3.8-3.6-20-4.1-24.7-.7-6.3 8.2-8.5 10.4-3.1 1 2.6 8.7 27.2 9 28.2.6 1.9 3 1.3 2.9-.4-1.7-19.9-3.8-38.4-3.5-44.7s9.9-7.3 11.2-.8c.8 4.4 5.8 39.2 6 40.7s2.6 1.3 2.8-.3 2-38.8 3.2-46.8c1.1-7 12.4-6.9 12.6 1.1.2 6.4-.9 45.7-1 47-.1 2 2.2 2.2 2.5.1.2-1.4 8.1-36.8 9.2-40.3 1.8-6.1 12.1-5.7 11.8 2.5-.6 11.3-7.1 42.2-5 55.5"/></defs><clipPath id="b"><use xlink:href="#a" style="overflow:visible"/></clipPath><g style="clip-path:url(#b)"><path d="M87.8 74c-16.9 1.9-30.1 11.7-29.5 30.9 0 1.6 2.4 1.6 2.5-.1.5-9.1 5.5-23 26.6-27.3 1.1 1.7 3.8 1.3 4.8.1 6.4-7.8 11.8-14.1 20.7-14.1 3.4 0 5.9 3.1 3.7 6.9l2.6 2 4.8-4.5-7.9-10.8-15.2 3.4zM72.2 58.9c1.6.2 3.3-.1 3.7-1.8l8.4-37.7c1.2-4.6 6.2-5.5 8.1-2.5 1.1 1.7 3.3-.3 2.8-1.2s-1.4-3.8-6.4-4.3c-8.9-.9-9.8 9.2-10.8 14.8zm-17.3-1.6c2.2-.2 4-.3 4-3.3 0-2 2.5-39.2 2.7-42.8.2-5.3 7.1-5.7 8.1-1.7.5 1.8 3.8.6 3.5-.8s-1.7-6-7.4-6-7.7 3.2-8 4.8-2.9 49.8-2.9 49.8m-16 5.2c2.1-.9 3.3-1.2 3.1-4.3l-3.3-40.3c-.4-4.9 5.2-5.4 6.3-3.3s3.8-.1 2.8-1.7S45 9 41.9 9.1s-6.4 2.5-7.2 4.5c-.8 2.1 4.2 48.9 4.2 48.9m19.6 60.4a32 32 0 0 1-29-26.1c-2.9-12.9-2.2-22.4-4.3-30.7-.7-2.9-5.2-27-5.2-30.7 0-3 5.1-5 6.7-1.1 1 2.4 3.7.4 2.9-1.2-.7-1.5-2.6-4.8-7-4.5s-6.9 4.1-7 5.8c.1 1.7 11.7 79.6 11.7 79.6l18 10.9 13.2.3z" style="fill:#824624"/></g><defs><path id="c" d="M89.7 75.1q.3.6.8.2c3.7-4.5 13.6-17 25-13.7a6 6 0 0 1 3.9 8.2c-2.3 4.9-14.7 13.2-21.1 24-1 1.7-9.6 21.6-24.1 27.4s-39.5 5.1-46.9-23c-3.8-14.5-1.7-17.9-5.6-37.1-.8-3.8-3.6-20-4.1-24.7-.7-6.3 8.2-8.5 10.4-3.1 1 2.6 8.7 27.2 9 28.2.6 1.9 3 1.3 2.9-.4-1.7-19.9-3.8-38.4-3.5-44.7s9.9-7.3 11.2-.8c.8 4.4 5.8 39.2 6 40.7s2.6 1.3 2.8-.3 2-38.8 3.2-46.8c1.1-7 12.4-6.9 12.6 1.1.2 6.4-.9 45.7-1 47-.1 2 2.2 2.2 2.5.1.2-1.4 8.1-36.8 9.2-40.3 1.8-6.1 12.1-5.7 11.8 2.5-.6 11.3-7.1 42.2-5 55.5"/></defs><clipPath id="d"><use xlink:href="#c" style="overflow:visible"/></clipPath><g style="clip-path:url(#d)"><path d="M119.8 64.1c-.3 1.5-1 3.8-3.4 6.3-8.8 9.1-16 13-22.2 24.9-11.8 22.8-29.8 34.2-57.8 20.9-2.8-1.3-3.4 1.1-1.9 1.8l21.2 8.8 26.5-3.8 40.1-53.1zM89.7 12.5c1 .9 2.9 3.5 2.5 8.1S87.6 51 87.4 53.9c-.3 3-2.2 16.5-.5 22.2.5 1.6 2.5 1.2 2.9 0l.9-2.1 10-60.6-7.1-4.2zM72.2 58.9c-2.3-.3-3.9-.4-3.9-3.2 0-1.9.9-22.4 1.1-46.8 0-1.9-1.3-4.4-3.4-4.8s-1.1-2.6 0-2.5 7.9.5 7.6 8.5zm-17.3-1.6c-1.9.1-4.1.6-4.5-2.6l-5-38.7c-.2-2.1-1.7-4.6-4.1-4.6-1.6 0-1.3-2.9-.2-3s7.4-1.1 8.1 3.7zm-16 5.2c-1.9.5-3.7.4-4.6-1.9s-8-24.8-8.4-26.4-2.4-4.7-6-3.9c-1.4.3-1.9-1.9-.5-2.3s8.6-2.1 10.2 3.2z" style="fill:#422319"/></g></svg>