<svg xml:space="preserve" width="16" height="16" viewBox="0 0 128 128"><path d="M115.3 62.7c-.1-2.4-2.7-4.7-7.2-6a115 115 0 0 0-64.9 0q-6.8 2.1-7.2 6v50.1c0 2.8 3 5.8 10.3 7.8 7.4 2.2 17.6 3.5 29.3 3.5s22-1.4 29.4-3.5c7.6-2.1 10.4-5.3 10.3-8.2z" style="fill:#e2a610"/><path d="M83.6 108.2 79 97.7a7.7 7.7 0 1 0-7.2-.3l-4.2 11c-.5 1.3.5 2.8 2 2.8h12c1.4 0 2.4-1.6 1.8-3" style="fill:#4e342e"/><path d="M83.1 107.3h-15l-.4 1c-.5 1.4.5 2.9 2 2.9h12c1.4 0 2.4-1.6 1.8-3zM72.6 95.4q.3-.8-.4-1.4a6 6 0 0 1-2-2.5c-1.8-4.4.4-6.4.4-6.4a7.6 7.6 0 0 0 1.3 12.3zm8.5-10.1s2.2 4.4-.3 7.3a7 7 0 0 1-2.1 1.7 1 1 0 0 0-.6 1.4l1 2a8 8 0 0 0 4.3-7c0-3.2-2.3-5.4-2.3-5.4" style="fill:#9e740b"/><path d="M106.4 56a113 113 0 0 0-61.5 0c-9.1 2.6-10 9.2 3 12.8 7 1.9 16.6 3.1 27.8 3.1s20.7-1.2 27.8-3.2c13-3.5 12-10.1 2.9-12.7" style="fill:#fdd835"/><path d="M75.7 10.9a29 29 0 0 0-28.2 29.3v22s1.3 1.7 5.1 1.7c3.9 0 6-1.7 6-1.7v-22c0-10 7.6-18.2 17-18.2q2.2 0 4 .5V11.2q-2-.3-4-.3z" style="fill:#84b0c1;stroke:#84b0c1;stroke-width:1.9584;stroke-miterlimit:10"/><path d="M61.5 16.3c-4.8 3-6.6 7-7.4 9-1 2.5.5 3 1.5 2.3 1.4-1 2.2-3 7.4-6 5.4-3.3 13-2.8 13.3-6.3.4-4-6.6-4.2-14.8 1" style="fill:#b9e4ea"/><path d="M8.2 121.6c.2-1.1 1-2 1.5-3.2q1-2 1.7-4c.6-2.2.7-4.5 1.2-6.7.8-3 3.3-6.2 6.8-8 5.6-2.5 8.2-5.5 9.9-7l9 8.7c-1.7 2.2-3.9 5-5 7-.5 1.1-1.7 4.5-3.9 6.6q-2.7 2.7-6.6 3.6l-2.9.5q-3.6.9-6.5 3.3c-.8.6-1.8 1.5-2.8 1.6q-.6 0-1.1-.3-.4-.5-.3-.7c.1-.2-.5.3-.9-.1q-.3-.7-.1-1.3" style="fill:#84b0c1"/><path d="m103.3 11.7-2.7-2.3q-1.5-1.2-3.4-1c-2 .1-2.3.5-3.3 1.6L83.2 21.2c-5 5-16.9 17.4-17.7 18.5-.8 1-.2 1.6-.1 1.7a4 4 0 0 0 5 .5 6 6 0 0 0 2.8-4.5q.1-1.5 1.1-2.5L95.1 14c.5-.5 1.6-1.3 3.1 0l4.8 4.2 3.2-3.8v-.2c0-.2 0-.2-2.9-2.6" style="fill:#ffc107"/><path d="M100.6 14.3a8 8 0 0 0-3-2.5c-1.1-.5-2 0-2.6.6a251 251 0 0 0-11 12.3q-.5.5-.5.9L94.4 15c1.1-1 2-1.8 3.2-1l1.9 1.5z" style="fill:#d89a00"/><path d="M24.5 94.6c2.3-3.2 11.6-14.2 37.9-42.2l.1-2.3c22.7-25 42.4-39.5 44-40.7s5.2.4 7.8 2.8c2.7 2.4 4.4 6 3.3 7.7a328 328 0 0 1-38.4 46.3H77A656 656 0 0 1 36.9 106q-1 .6-2 0l-10.3-9.6q-.8-.9-.2-1.9" style="fill:#424242"/><path d="M113.3 26.9q-.7-.1-1-.7-4.7-6.8-11.7-11.1-.3 0-.4-.8c0-.5 1.5-1.9 2.6-2.5.6-.3 1.9 0 2.6.6q5.2 3.9 9.1 9c.7.9 1.6 1.6 1.1 2.8-.4 1-1.2 2.3-2.3 2.7" style="fill:#ffc107"/><path d="M103.2 13c-.5 0-1.2.4-1.2.9q-.1.7 1 1c1.4.6 2 1.2 3.5 2.7.4.5 1.7.3 1.4-.9q-.2-1.4-1.2-2.2a4 4 0 0 0-3.5-1.5" style="fill:#ffee58"/><path d="M82 39.7c-4 3.7-8.8 7.8-9.6 7s3.1-5.4 5-7.5c1.5-1.6 6.8-8.3 8.9-6.5 1.8 1.6-2.2 5-4.4 7M45.5 74c-1.9 2.2-6.1 7.3-5.6 7.8s2.8-1 3.6-1.6q9-7.4 16.5-16.5c1-1.3 2.2-2.9 2-4.6q0-.9-.7-1c-2-.4-6.4 5.3-7.6 6.6q-4.4 4.4-8.2 9.2" style="fill:#757575"/><path d="M82.4 62.9a47 47 0 0 0-16.6-16.3l-.9.6-.4.8A45 45 0 0 1 81 64.3l.8-.6q.6-.7.5-.8" style="fill:#ffc107"/><path d="M79.3 66.2a48 48 0 0 0-16.6-16l-.5 1.1.1 1.3c5.5 3.2 10.7 8 14.5 13.9q.2.2 1.4.2z" style="fill:#212121"/><path d="M10.4 122.4c-1 .8-1.1 1-1.3.8s0-.5 1.3-2.2 9.6-10 9.6-10l.8.7s-9 9.5-10.4 10.7"/><circle cx="21" cy="110.5" r="1.6"/><path d="M38 105a57 57 0 0 0-6-7 28 28 0 0 0-6.6-4.7l-1 1.3q-.6.9.2 1.8L35 106q.9.8 1.9 0 .5-.3 1.1-1" style="fill:#ffc107"/><path d="M30 97c1.1 1 2.8 3.2 2.2 4.4q-.8.9-2-.5l-1.7-1.8c-1.2-1.1-3.7-2.3-2.8-3.2s3.6.4 4.4 1.2" style="fill:#ffee58"/><path d="M14.5 107.1a9 9 0 0 1 3-4.1q1-1 2.3-.8c.8 0 1.7.7 1.7 1.6-.1 1.6-2 2.8-2.5 3.5-2.5 2.8-3.2 6.3-5.2 7.2-.6.3-1-.4-.7-1.1.8-1.7.8-4.7 1.4-6.3" style="fill:#a8e3f0"/><path d="M78 11v11.2a18 18 0 0 1 14.7 18v22s1 1.7 5.9 1.7c4.8 0 5.2-1.7 5.2-1.7v-22A29 29 0 0 0 78 11z" style="fill:#84b0c1;stroke:#84b0c1;stroke-width:1.9584;stroke-miterlimit:10"/></svg>