<svg xml:space="preserve" width="16" height="16" viewBox="0 0 128 128"><path d="M116 4H12a8 8 0 0 0-8 8v104a8 8 0 0 0 8 8h104a8 8 0 0 0 8-8V12a8 8 0 0 0-8-8" style="fill:#194fa5"/><path d="M109.7 4H11.5A7.6 7.6 0 0 0 4 11.5v97.9c0 4.1 3.3 7.5 7.5 7.5h98.1c4.1 0 7.5-3.3 7.5-7.5V11.5c0-4-3.1-7.4-7.2-7.5z" style="fill:#2262dd"/><path d="M39.7 12.9c0-2.3-1.6-3-10.8-2.7-7.7.3-11.5 1.2-13.8 4-1.9 2.3-2.3 5.6-2.6 8.4-.2 2.2-2.2 14.9 3.5 11.2q1-.6 1.6-1.8c1.2-2.1 1.9-3.5 3.3-5.6 5.3-8.6 18.8-10.5 18.8-13.5" style="fill:#68abe6"/><path d="M53.7 68.6q-.4.2-.4.6l-1 4.5a1 1 0 0 1-1 .8H19.7a1 1 0 0 1-1-.8l-1-4.5q-.1-.4-.4-.6C14.8 67 12.6 69 13 71l7.3 32.9c.7 3 3.3 5.1 6.4 5.1h17.6c3 0 5.7-2.1 6.3-5.1L57.9 71c.5-2-1.7-4-4.2-2.4M21.3 79.5h28.4q1 .1 1 1.1v.1L49 88.2a1 1 0 0 1-1 .8H23a1 1 0 0 1-1-.8l-1.7-7.5a1 1 0 0 1 1-1.2" style="fill:#fafafa"/><path d="m106.1 31.2-2.9 1.5a4 4 0 0 0-2.2 3.6v.7a2 2 0 0 1-2 2H88.1q-1.3 0-1.8-1.1-2.3-5-7.3-7.7V26q.1-.9 1-1h9l1.1.5a2 2 0 0 0 2.9-1.8v-5.5a2 2 0 0 0-2.9-1.8L89 17h-9a1 1 0 0 1-1-1 3 3 0 0 0-3-3h-6a3 3 0 0 0-3 3q0 1-1 1h-9l-1.1-.6a2 2 0 0 0-2.9 1.8v5.5a2 2 0 0 0 2.9 1.8L57 25h9q1 .1 1 1v4.2a17 17 0 0 0-7.3 7.7q-.5 1-1.8 1.1h-8.7C38.1 39 29 48 29 59v3a3 3 0 0 0 3 3h6a3 3 0 0 0 3-3v-2.8c0-4.5 3.7-8.2 8.2-8.2h8.1a2 2 0 0 1 1.9 1.3c2.3 6.1 7.6 10.4 13.8 10.4s11.6-4.3 13.8-10.4a2 2 0 0 1 1.9-1.3H99a2 2 0 0 1 2 2v2.3q.1 2.4 2.2 3.6l2.9 1.5a2 2 0 0 0 2.9-1.8V33a2 2 0 0 0-2.9-1.8" style="fill:#fff"/></svg>