<svg xml:space="preserve" width="16" height="16" viewBox="0 0 128 128"><path d="m56.4 100 5.8 1.4s2.3 5.6 2.8 7.5 2.4 6 1.7 7.2c-.8 1.4-4 2.8-5.6 3.1s-4.4 1.3-4.7.1q-.2-1.6 2.5-2.8c2.7-1.2 3.5-1.2 3.5-2.3s-1.5-4.4-2.6-6.5l-2.8-4.9c-.6-1-.6-2.8-.6-2.8m12.4 1.1s.8 1.6.5 2c-.3.5-3.6.6-3.7 2.3s.9 5.4 1 6.2c.3.9 1 2.2 1.8 2 1.4-.1 1.4-1.7 1.3-3.4q0-1.5 1.2-2.2c.7-.3 2.7-1 2.8-2s-.4-5.7-.4-5.7z" style="fill:#b0b1b0"/><radialGradient id="a" cx="62.9" cy="80.7" r="72.7" gradientUnits="userSpaceOnUse"><stop offset=".2" style="stop-color:#7cd086"/><stop offset=".3" style="stop-color:#78cf84"/><stop offset=".5" style="stop-color:#6ccb7d"/><stop offset=".6" style="stop-color:#59c572"/><stop offset=".7" style="stop-color:#3ebc62"/><stop offset=".8" style="stop-color:#1bb14e"/><stop offset=".9" style="stop-color:#01a93f"/></radialGradient><path d="M62.9 87.4S45 94.7 41.2 96s-19.4 4.6-28.5-8.9-3.3-37.4 6.7-46.6 26.3-29 61.5-20.8 46.2 52 39 66.6S104.7 103 93 100.7 62.9 87.4 62.9 87.4" style="fill:url(#a)"/><path d="M76.7 90.9s.2-5.2 2.5-13.4 8.3-24.2 3.2-29.6c-5-5.3-13.3-4.9-18.4-5-5-.2-13.5.7-14 11.2s2.3 30 2.3 30z" style="fill:#b6d115"/><path d="M73.6 30.8c.8.2 3-2 4.6-3.8 2.5-3 3.3-4.5 3.3-6.4.1-3.4-2.1-5.7-6-6-3.8-.2-7 2-6.7 5.4s1 4.2 2 6.1c.5 1.3 2.2 4.5 2.8 4.7m17 7.5c.6.4 4.3-.3 6.1-.8s3.9-.7 5.6-3.7c1.7-3.1.5-6-1.5-7.5-2.7-2-7-1.8-8.7.7s-1.6 4.7-1.6 5.8a17 17 0 0 0 .1 5.5M77.8 44c.6.6 6.3-1.3 8.2-3.9 1.8-2.3 2.8-5.9-.8-8.4s-8.8-.6-8.9 5.6c0 2.9 1 6.1 1.5 6.7M54.7 31.2c.7-.4 3.5-6 3.5-8.7s-1.1-8-7.5-6.9-5.2 6.7-4 9c1.4 2.8 7.2 7 8 6.6m-17.3 7.7c.6-.4.5-8.4-1.2-10.7-1.7-2.4-5.7-4-9.1-1s-2.8 7.2 1.5 9.7 8.3 2.3 8.8 2m5.8 12.5c.3-1-3.7-5.6-5.8-7.4s-8.1-4-9.8 2.1c-1.5 5.5 4.2 6.9 6.4 7s8.8-.7 9.2-1.7m-17.8.7c.3-.5-2.2-8-5-10s-6.4-1-7.8 2.5c-1.1 2.8 0 8.5 5 8.3 3.7-.2 7.5-.4 7.8-.8m27.1-7.7c.8-.5.2-8.1-1.4-10.7S45.8 29 42 32.2c-3 2.5-2 7.4 1.8 9.8s8 3 8.7 2.4M64 40.9s5.2-4 5.4-7.8c.2-2.4-.9-6.2-5.5-6.3-3.5 0-6.3 2.7-5.9 6.2.5 3.5 4.7 7.9 6 7.9M48.6 60.7S46 57.5 43 56c-2.4-1-8.3-1.2-8.4 4.7s4.8 6.1 7.8 5.1c3.4-1 6.1-5.2 6.1-5.2m-4.2 8.7c-.2-.6-3.6-1.2-8-1.1-2 0-6.5 2.2-4.3 7.2 2 4.4 6.7 3.2 8.5 1 2-2.3 4-6.6 3.8-7.1m-10.3-6c0-.8-3.9-4.2-7.5-6-3.5-1.7-7.5 1.3-7.6 5 0 5.2 4 8.1 8.5 6 4.1-2 6.5-4.5 6.5-5m-15.7.9c0-.6-4.8-5.4-8.3-5.6s-5.7 3-5.6 6.1c.2 2 2.6 6 6.5 5.2 3.7-.8 7.3-4.7 7.3-5.7M31 75.8s-4.5-3.6-9.7-2c-2.7 1-2.7 4.5-1.8 6.4.8 2 3.3 4.6 6.2 2.9s5.4-7.3 5.4-7.3m-12.3 4.7S12.6 77 9.7 78s-3 4.9-2 7 2.7 4.5 5.8 3.3 5.3-8 5.3-8m11.1 9.1s-7-1.9-10.2.3c-3.2 2-2.3 5.5-1.2 7 1.1 1.7 4 3.5 7 1.1 2.3-1.8 4.6-8 4.4-8.4m12.5-6.9s-7.2-.7-9.2 1.3-2.1 5.5-.8 7.2c1.6 2 6 2.7 8.2.2 2.2-2.6 1.8-8.7 1.8-8.7m43.4-31.3s2.8-8 5.8-9.6c2.1-1.2 6.3-2 8.5 1.8 2.4 4-.4 7.3-2.7 8.2a21 21 0 0 1-11.6-.4m7.7 8.3c-.2-.5 5.9-6.1 9.3-6.3s6.2 2.4 6.2 5.4-2.1 5.5-5.5 5.3-9.7-3.5-10-4.4M83.8 64s7-1.6 9.7-.6 3.8 4.9 2.3 7-5.9 2.6-7.8.6-4.4-6-4.2-7m-2 9.5c.4-.3 6.6 2 8.2 3.2 1.6 1.1 3 4.8.3 6.8-2.6 2-5.6-.3-6.5-2-.7-1.2-2.6-7.5-2-8M96.7 71c.1-.5 4.1-1.3 6.3-1.8 3-.6 9.7-.6 8.4 6.2-1 5.7-7 4.3-8.7 3a28 28 0 0 1-6-7.3m10.9-4.8c-.4-.7 5.1-5.1 6-5.8 2.5-1.7 7.8-3.2 8.9 2.4s-2.8 7.4-4.8 7.5-9.6-3-10.1-4.1M93 81.6s7.1-.6 9.3 1c2.1 1.6 3.3 5 1.3 7.3-1.2 1.4-5.4 2.7-7.7-.3-1.5-2-3-7.3-2.8-8m14.3-.1s6.5-2 10-.7c3.4 1.3 4.5 3.3 3.5 6.9s-5.6 3.9-7.8 2.3c-2.8-2-6.3-7.6-5.7-8.5M102.8 92c.7-.7 7 .4 9 2.6 2 2.1 1.3 4.7-.3 6.2-1.9 1.7-5.7 2.3-7.6-.1-1.9-2.5-1.8-8.2-1.1-8.7m-19-3.4c.6-.5 4.3 1.6 6.3 2.6s7.6 6 2.8 9.5c-4.3 3.2-7.6-2.1-8.2-4s-1.4-7.7-.9-8.1m18-39c-.2-.4 3-7.1 7.2-8.7 3-1.1 6 .4 7 3.2 1 2.7.9 6.6-2.5 7.5s-11.6-1.4-11.7-2" style="fill:#06ac48"/><path d="M53.3 51.3c0 .8.5.8 1.8 1 1.4 0 2.5 0 2.5-1 0-1.1-.4-1.8-2.2-1.8-1.7 0-2.1 1-2.1 1.8M73 50c-1.9-.6-2.7.4-2.8 1.3s1 .9 2 1.1 2.3 1 2.7 0q.5-1.8-1.9-2.4m-5.6 9.1c0 1 1 1 2.2 1.1s2.4.3 2.7-.6-.5-2.3-2.3-2.4-2.7.9-2.6 2M78 53.8c-.2.8.6 1.4 1.3 1.7s1.5.8 2 .2c.5-.5.8-1.5-.8-2.5-1.5-1-2.4 0-2.5.6M77 62c-.4 1 .5 1.5 1 2s1.9.9 2.4.3.3-2-.7-2.6-2.4-.6-2.7.3m-7.7 4.8c0 1 1.5 1 2.3 1.6.7.5 2 1.5 2.5.6q1-1.7-1.3-3c-1.7-1-3.5-.3-3.5.8M67 72.7c.3-1 1.8-1 2.8-.2s1.5 2 1.1 2.7-2 .3-2.7-.4-1.4-1.4-1.2-2.1" style="fill:#e9dca7"/><path d="M55.9 21.2c0 2-1.2 3.9-4 3.8-2.5 0-3.7-1.7-3.7-3.6s1.8-3.8 3.8-3.8 3.9 1.7 3.9 3.6m23.1 0c-.6 1.8-2.4 3.6-5.1 2.6-2.3-.8-3-2.9-2.3-4.7a4 4 0 0 1 4.7-2.5c2 .6 3.2 2.7 2.6 4.6m-44.4 9.3c0 1.9-1.2 3.8-3.9 3.7-2.4 0-3.4-1.6-3.4-3.5 0-2 1.6-3.8 3.6-3.8s3.7 1.7 3.7 3.6m1.7 16.9c-.3 1.7-1.6 3.4-4.1 3q-3.2-1-2.8-3.8c.3-1.7 2-3.1 3.9-2.9s3.2 2 3 3.7m-15.8-.8c0 1.8-1.1 3.6-3.7 3.5-2.2-.1-3.2-1.6-3.2-3.3s1.5-3.4 3.4-3.4 3.5 1.5 3.5 3.2m-8 17.4c0 1.7-1 3.5-3.6 3.4-2.3 0-3.3-1.5-3.3-3.3s1.6-3.4 3.5-3.4 3.4 1.5 3.4 3.3m15.3-1.8c0 2-1.2 4-4 3.8-2.3 0-3.4-1.7-3.4-3.6s1.7-3.8 3.6-3.8 3.8 1.7 3.8 3.6" style="fill:#b6d016"/><path d="M25.3 62.4c0 1.4-1 2.8-2.8 2.8q-2.6-.2-2.6-3c0-2 1.5-2.8 2.8-2.8 1.4 0 2.6 1.5 2.6 3" style="fill:#0847b0"/><path d="M43 60.7c0 2-1.2 3.9-4 3.8-2.3 0-3.4-1.7-3.4-3.6s1.7-3.7 3.6-3.7 3.8 1.6 3.8 3.5M39.6 73c0 1.6-1 3.4-3.6 3.3-2.2 0-3.2-1.5-3.2-3.2s1.6-3.3 3.4-3.3 3.4 1.4 3.4 3.1M27 77.8c0 1.6-1 3.3-3.2 3.2-2 0-2.8-1.4-2.8-3s1.4-3.3 3-3.3 3 1.5 3 3m-2.8 13.4c1.3 1 2.1 2.8.6 4.5a3 3 0 0 1-4.2.4c-1.3-1-1.7-3-.7-4.4 1-1.2 3-1.5 4.3-.5M13.6 80.4c1.9 1 2.2 3.1.7 4.8-1 1.2-3.2 1.6-4.5.6s-1.7-3.5-.7-4.8 3-1.4 4.5-.6M38.4 90c-1.3 1-3.3 1.2-4.5-.7-1.2-1.6-.6-3.1.7-4 1.3-1 3.4-.9 4.4.4s.7 3.3-.6 4.3m11.4-54.3c0 2-1.2 3.9-3.9 3.8-2.4 0-3.4-1.7-3.4-3.6s1.6-3.7 3.6-3.7 3.7 1.6 3.7 3.5M67 31.9c0 1.9-1.1 3.5-3.5 3.3q-3.4-.3-3.3-3.3c0-3 1.5-3.4 3.4-3.4 2 0 3.5 1.5 3.5 3.4m17.8 4.2c0 1.7-1.1 3.2-3.2 3q-3-.3-3-3a3 3 0 0 1 6.2 0M97.8 46c0 1.8-1 3.5-3.2 3.5q-3.1-.3-3.3-3.1c0-1.8 1.3-3.4 3-3.5s3.4 1.3 3.5 3.1m2.9-15.2c0 2-1.3 3.7-3.6 3.5q-3.5-.4-3.4-3.5c.1-3.1 1.6-3.6 3.5-3.6 2 0 3.5 1.6 3.5 3.6m13.1 15.5c0 1.6-1 3.5-3 3.3-2-.1-3-1.7-3-3.4s1.4-3 3-3a3 3 0 0 1 3 3M94.5 67.6c0 1.7-1 3.2-3 3q-2.8-.4-2.7-3c0-2.6 1.3-3 2.9-3s2.8 1.4 2.8 3m13.7 6.4c0 1.7-1 3.1-3 3q-2.9-.4-2.8-3c.1-2.6 1.3-3 2.9-3s2.9 1.3 2.9 3m-18.5 5.8c0 1.3-.9 2.5-2.5 2.4q-2.5-.4-2.4-2.4c.1-2 1.1-2.5 2.5-2.5s2.4 1.1 2.4 2.5m12.7 6.8c0 1.6-1 3-3 2.9q-2.9-.4-2.8-2.9c0-2.5 1.3-2.8 2.9-2.8s3 1.2 3 2.8m-9.6 10.2c0 1.6-1 3-3 2.9q-3-.4-2.9-2.9c.1-2.5 1.4-2.9 3-2.9s2.9 1.3 2.9 3m17.9.4c0 1.7-1.1 3.3-3.3 3.1q-3.1-.4-3.1-3.1c0-1.8 1.4-3.2 3.2-3.2s3.2 1.4 3.2 3.2m7.9-12.3c0 1.7-1.2 3.2-3.3 3q-3.2-.3-3.1-3c0-1.7 1.4-3.1 3.2-3.1 1.7 0 3.2 1.4 3.2 3m-11.5-26.1c0 2-1.3 3.8-3.7 3.6s-3.7-1.8-3.7-3.8 1.9-3.4 3.8-3.4c2 0 3.6 1.6 3.6 3.5m13.5 5.8c0 2-1.3 3.8-3.6 3.6s-3.5-1.8-3.5-3.7 1.8-3.3 3.7-3.3 3.4 1.5 3.4 3.4" style="fill:#b6d016"/><path d="M40.5 61.7c-.2 1.5-1.3 2.8-3.1 2.5-1.6-.2-2.6-1.5-2.2-3.3.3-2.1 1.8-2.7 3.1-2.5 1.4.1 2.5 1.5 2.2 3.3m-29.9 2.6c-.2 1.5-1.3 2.8-3.1 2.5q-2.5-.5-2.2-3.3c.3-2 1.8-2.7 3.2-2.5s2.4 1.5 2.1 3.3m23.8-17.1c-.4 1.5-1.7 2.6-3.5 2q-2.4-.7-1.7-3.5c.6-2 2.2-2.4 3.5-2s2.2 1.8 1.7 3.5m-16.4.1c-.7 1.3-2 2.2-3.5 1.5q-2-1.2-.7-3.8c1-1.9 2.5-2 3.5-1.5 1.1.6 1.6 2.2.8 3.8m13.3-15.9c-1.2 1-2.8 1.3-3.8 0q-1.4-1.8.7-3.8c1.6-1.3 3-.9 3.9 0s.6 2.6-.8 3.8m15.1 5.1c-1 .9-2.5 1.1-3.5-.1q-1.5-1.8.5-3.5c1.5-1.2 2.8-.7 3.6.1.8 1 .6 2.5-.6 3.5m5.7-13.8c-1.6.2-3.2-.4-3.5-2.1q-.3-2.6 2.5-3.2c2.2-.3 3.2 1 3.5 2.2s-.8 2.8-2.6 3m22.9-.9c-1.6-.2-3-1.4-2.7-3.3q.5-2.8 3.5-2.5c2.2.4 2.9 2 2.7 3.4S77 22 75 21.7m21.8 10.1c-1.5-1-2.6-2.6-1.6-4.3q1.6-2.4 4.4-.8c2.2 1.2 2.3 3 1.6 4.3s-2.6 1.8-4.4.8m-15.3 4.9c-1.2-.6-2-2-1.2-3.2q1.2-1.9 3.4-.6c1.7 1 1.7 2.3 1.2 3.3s-2 1.3-3.4.5m12.1 9.7c-.5-1.3-.2-2.8 1.3-3.3q2.2-.6 3.1 1.8c.6 1.8-.3 3-1.4 3.3-1 .4-2.5-.2-3-1.8m8.9 11.9c0-1.5.9-2.9 2.7-2.9q2.6.1 2.8 3 0 3.2-3 3c-1.2-.1-2.5-1.4-2.5-3.1m-11 9c.7-1 2-1.5 3.2-.6 1 .7 1.3 2.1.6 3.2q-1.5 2-3.4.7c-1-.6-1.1-2.1-.4-3.3m-4.3 12q1.7-1.2 3.2.4c.7 1 .6 2.5-.5 3.3q-2 1.3-3.4-.5c-.7-.8-.4-2.4.7-3.2m13.1 6.8q1.7-1.2 3.2.4c.7 1 .6 2.5-.5 3.3q-2 1.3-3.4-.5c-.7-.8-.4-2.4.7-3.2m4.8-12.4c.4-1.2 1.5-2.2 3-1.7q2 1 1.3 3.2-.9 2.4-3.1 1.7c-1-.3-1.6-1.8-1.2-3.2m12.4-9.1c0-1.2.8-2.5 2.2-2.4 1.3 0 2.4 1 2.4 2.6q-.1 2.5-2.5 2.6c-1 0-2.1-1.3-2.1-2.8M116 85c.5-1.2 1.8-2 3-1.2 1.2.6 1.7 2 1 3.3q-1.3 2.3-3.4 1.2c-1-.4-1.3-2-.6-3.3M90.5 96.7c1-.5 2.3-.5 2.8.6q.8 1.7-1 2.8-2.1 1-3-.6c-.5-.8 0-2.1 1.2-2.8m18 1c1-.5 2.2-.5 2.8.6q.7 1.7-1 2.8-2.2 1-3-.6c-.5-.8 0-2.1 1.2-2.8m1.3-51.3c-.4-1.5 0-3 1.9-3.6 1.6-.4 3 .3 3.4 2 .5 2-.7 3.2-2 3.6s-2.9-.4-3.3-2M24.7 78.2c.2 1.4-.5 2.8-2.1 3q-2.4.2-2.7-2.3c-.3-2 .9-2.9 2-3 1.2-.3 2.5 1 2.8 2.3M37.4 73c.3 1.5-.4 3-2.1 3.2q-2.5.3-3-2.5c-.1-2 1-3 2.3-3.1s2.6 1 2.8 2.5M13 83.3c.3 1.4-.3 3-2 3.2q-2.5.4-3.1-2.2c-.4-2 .8-3 2-3.3 1.3-.3 2.8.8 3 2.3M23 93.4c.7 1 .8 2.5-.4 3.3q-1.8 1.1-3.3-.8c-1-1.5-.4-2.8.4-3.4s2.4-.2 3.2.9m13.8-6c.7 1 .8 2.4-.4 3.2q-1.8 1.2-3.2-.7c-1-1.5-.4-2.7.4-3.3.9-.7 2.4-.2 3.2.8" style="fill:#0847b0"/><path d="M45.6 43.8c.2.9 3.3.5 4.9.7l5.1 1.3 6 3.6s5.1-.3 5-.5c-.3-.3-1.6-8.1-1.6-8.1l-5.6-2.4-4.2 1.9s-2.4-.5-4.5 0c-2.2.3-5.5 1.5-5 3.5" style="fill:#e3edfc"/><path d="M59 41.8c-1-.2-1.6 1-.8 2.8.7 1.8 3.4 1.5 4.2.6 1-.9.9-2 .4-2.3-1-.4-1.4 1-2.5.8-1-.4-.2-1.7-1.3-1.9m4.4-2.9v-7l1.7-.2.1 5.4.1.7c.2.1.6-.5.6-.5l3.6-4.2 1.2 1-3.3 3.9s-.5.5-.4.6c0 .2 1 0 1.7-.1l2.7-.4.2 1.5-5.3.6zm9.6-6.1q0 1.9-1.8 2c-1.2 0-2.4-.8-2.4-2a2 2 0 0 1 2.1-2.1c1.2 0 2.2 1 2.2 2.1m-6.7-3q.6 1.8-1.1 2.6c-1 .4-2.4 0-2.9-1a2 2 0 0 1 1.2-2.8c1-.4 2.4.2 2.8 1.2m8.1 8q.5 1.6-1 2.5c-1 .4-2.4 0-2.8-1a2 2 0 0 1 1.1-2.6 2 2 0 0 1 2.7 1" style="fill:#010100"/><linearGradient id="b" x1="62.5" x2="62.9" y1="40.8" y2="100.8" gradientUnits="userSpaceOnUse"><stop offset=".5" style="stop-color:#004daf"/><stop offset=".7" style="stop-color:#0054af"/><stop offset="1" style="stop-color:#0267b1"/><stop offset="1" style="stop-color:#026bb1"/></linearGradient><path d="M65.1 38.5c2.8 1.4 5 3.2 3.6 9.6s-5.8 9-5.7 17.5 6 14 10.5 18.3c4.4 4.2 7.4 10 5.8 13.9-1.3 3-7.6 6.3-18.6 4.4-11.1-2-14-10.6-14.6-16.3s.4-11.9 2-16.3c2.4-6.3 6.5-11.5 8.4-14.5 1.3-2 3.6-6.5 3.6-6.5s4.5-.7 4-5.1-6.4-4.6-7.7-1.3c-1 2.5 0 4 0 4l-3.2-1s0-4.2 2.4-6.2c3-2.4 6.6-2 9.5-.5" style="fill:url(#b)"/></svg>