<svg xml:space="preserve" width="16" height="16" viewBox="0 0 128 128"><path d="M41.9 22.4 39 20.7l1.6-2.5s3.9 1.8 4.2 2.4-.4 1.5-.4 1.5c-1 1.4-1.7.8-2.6.3" style="fill:#91674d"/><path d="M63.4 88.8q-1.5-1.4-2-3.5L60 74.2c1.3-3.7-.6-14.4-9.2-14.4q-1.8 0-3.7.6c-2.2.6-4.9 7.8-4.9 7.8l8.5 25.7a7 7 0 0 0 4 4.5l21.8 11.4 3.7-7z" style="fill:#616161"/><path d="m84.4 102.4-2.5-1.6q-1.6-.8-3.4-.8h-1.2l-4 6.1-2 6.6q-.4 2.7 1.8 4.4l1 .7a1 1 0 0 0 1.5-.3l9-13.4q.7-1-.2-1.7" style="fill:#325599"/><path d="m41.2 62.3-4.7 22.2q-1.2 5.6-.4 11l3 22.2h7.3l1.9-24.8 6.2-19 .2-.3c2-2 2.7-6.9 2.7-6.9z" style="fill:#7c7c7c"/><path d="M68.3 28.4 61.4 16l-.5-.2q-.3 0-.4.4L56.1 37l.4.6 9 1.8h.1q.5 0 .5-.4l2.2-10.1z" style="fill:#91674d"/><path d="m68 42.9-14.4-9.4s1.6-1 2.5-1c1 0 12.1 9 12.1 9z" style="opacity:.4;fill:#212121"/><path d="m45 26.5 1.7-2.5-15.2-10.4a1.5 1.5 0 0 0-1.7 2.5zm51.7 32.2s4.7 2.6 5.2 3.8c.4.8.4 3.7.2 5.6s-1 2.3-1 2.3-1.7 1-3.4 1.3-1.8-1.3-1.8-1.3-.3-2.8-.1-3.7.8-2.6 1.7-3.7c.4-.5-.2-1-.2-1l-1.9-1.4z" style="fill:#2e2f2f"/><path d="M47 115h-7.8l-7 2.3a5 5 0 0 0-2.9 4.2v1.4q.1 1 1.1 1.1H48q1.2-.1 1.3-1.3v-3.2c0-2.1-2.1-4.5-2.1-4.5" style="fill:#4568ad"/><path d="M96.7 58.7s4.7 2.6 5.2 3.8c.4.8.4 3.7.2 5.6s-1 2.3-1 2.3-1.7 1-3.4 1.3-1.8-1.3-1.8-1.3-.3-2.8-.1-3.7.8-2.6 1.7-3.7c.4-.5-.2-1-.2-1l-1.9-1.4z" style="fill:#504f4f"/><path d="M82.1 14q-.1.2-1.6.4-.7.1-1.6-.7-1.2-1-2-2.4c-.7-1.4-1-1.8-2-2.3l-.9-.3-1.4.2h-.1q-1-.2-2-1A12 12 0 0 0 65 7c-3.4 0-4.4 2.7-7.4 3.5-2.2.7-5.7 2.2-6 6.7 0 2.8 2.1 5.9 2.1 7 0 1.3-1.3 1.4-1.8 1.4h-.2c.8 2.3 2.3 2.7 3.3 2.7l.9-.1s.3 1.4 1.6 2.4 2.4 1.1 3.1 1.1h.7s.7 1.7 4 2l.7.1c2 0 3.3-1 3.3-1q.8 1.2 2.2 1.2.9 0 1.8-.6s-1.8-2.4 1-4q4.4-2.6 5.3-4.3c1.6-2.6 1-4.5-.2-6.8 1.3-.7 3.1-1.6 2.7-4.3" style="fill:#543930"/><radialGradient id="a" cx="102.2" cy="24.8" r="7.6" gradientTransform="rotate(105.2 -14.8 89.34)scale(-1 .833)" gradientUnits="userSpaceOnUse"><stop offset=".7" style="stop-color:#6d4c41;stop-opacity:0"/><stop offset="1" style="stop-color:#6d4c41"/></radialGradient><path d="M75.7 28.4c-.3.2-5.9-5.2-5.9-8.8l.2-2.2q.2-.9 1-1.4a6 6 0 0 1 8.4 2.2c3.1 5.3-.7 8.4-3.7 10.2" style="fill:url(#a)"/><radialGradient id="b" cx="86.1" cy="48.1" r="11.7" gradientTransform="rotate(60.2 20.98 -26.01)scale(1 -.833)" gradientUnits="userSpaceOnUse"><stop offset=".7" style="stop-color:#6d4c41;stop-opacity:0"/><stop offset="1" style="stop-color:#6d4c41"/></radialGradient><path d="M61.4 25.2c0-.3 6.4-.8 8.6 1.4q.8.7 1.2 1.5.4.7.4 1.4c-1.9 5.3-7 4-7 4-5.2-.8-4-5.4-3.2-8.3" style="fill:url(#b)"/><radialGradient id="c" cx="64" cy="22.2" r="11.7" gradientTransform="rotate(-85.7 66.03 20.3)scale(1 .833)" gradientUnits="userSpaceOnUse"><stop offset=".8" style="stop-color:#6d4c41;stop-opacity:0"/><stop offset="1" style="stop-color:#6d4c41"/></radialGradient><path d="M66.2 25c-2.4-.3-4.8 0-4.8.2-.5 1.9-1.2 4.5-.1 6.4h-1.4l-1-.3c-4.2-1.7-3.4-6-2.7-8.9 0-.3 7-.3 9.2 1.9z" style="fill:url(#c)"/><radialGradient id="d" cx="102.5" cy="22.1" r="10.8" gradientTransform="rotate(254.8 81.9 35.8)scale(1 .833)" gradientUnits="userSpaceOnUse"><stop offset=".7" style="stop-color:#6d4c41;stop-opacity:0"/><stop offset="1" style="stop-color:#6d4c41"/></radialGradient><path d="M57.4 26.9c.3.2 5.3-8.3 5.3-11.9q0-1.1-.2-2.1t-1-1.5c-5.3-2.9-8.7 2.2-8.7 2.2-3.3 5.1 1.7 11.5 4.6 13.3" style="fill:url(#d)"/><radialGradient id="e" cx="100" cy="12.5" r="3.5" gradientTransform="rotate(119.6 88.4 5.57)scale(1 .742)" gradientUnits="userSpaceOnUse"><stop offset=".3" style="stop-color:#6d4c41"/><stop offset="1" style="stop-color:#6d4c41;stop-opacity:0"/></radialGradient><path d="M79.4 18.2c3.5-1.6 2.7-4 2.7-4.3q-1.7.9-2.4.4a8 8 0 0 1-2.4-2.6s-2.3 6.5 2 6.5" style="fill:url(#e)"/><radialGradient id="f" cx="112.9" cy="33.4" r="2.5" gradientTransform="rotate(35.4 5.3 -94.23)scale(1 -.742)" gradientUnits="userSpaceOnUse"><stop offset=".3" style="stop-color:#6d4c41"/><stop offset="1" style="stop-color:#6d4c41;stop-opacity:0"/></radialGradient><path d="M54 27c-2 0-2.2-1.4-2.3-1.5q1 0 1.6-.4c1-.7-.2-2.8-.2-2.8s4.8 3.7 1 4.7" style="fill:url(#f)"/><radialGradient id="g" cx="133" cy="53.1" r="3" gradientTransform="rotate(186.5 103.13 37.13)scale(1 .742)" gradientUnits="userSpaceOnUse"><stop offset=".3" style="stop-color:#6d4c41"/><stop offset="1" style="stop-color:#6d4c41;stop-opacity:0"/></radialGradient><path d="M70.6 32.9c1.6 1.4 2.6.5 2.7.4q-.8-1.3-.4-2.5c.4-1.2 2.4-2.1 2.4-2.1s-7 .9-4.7 4.2" style="fill:url(#g)"/><ellipse cx="66.9" cy="12.7" rx="8.7" ry="10.6" style="fill:#1976d2" transform="rotate(-86 66.91 12.67)"/><radialGradient id="h" cx="67.4" cy="118" r="15.4" gradientTransform="matrix(1 0 0 -1 0 130)" gradientUnits="userSpaceOnUse"><stop offset=".2" style="stop-color:#42a5f5"/><stop offset=".5" style="stop-color:#3798eb"/><stop offset="1" style="stop-color:#1976d2"/></radialGradient><path d="M74.5 10.8c4.9 5.5 3.6 11.5 0 16.2-4 5-14 3.1-18.2-1.8S53 13.8 57.6 9.9s12.6-4 16.9 1" style="fill:url(#h)"/><ellipse cx="66.8" cy="13.3" rx="1.2" ry="1.4" style="fill:#0665b2" transform="rotate(-79.7 66.8 13.28)"/><path d="m37.4 37.9 4.5-8.8-6.8-3.6-5.9 11.3a5 5 0 0 0 0 5q1.7 3.1 5.2 3.8l20.6 4 1.4-9.9z" style="fill:#ed6d23"/><radialGradient id="i" cx="54.7" cy="54.9" r="17.4" gradientUnits="userSpaceOnUse"><stop offset=".4" style="stop-color:#f78c1f"/><stop offset=".7" style="stop-color:#f37f20"/><stop offset="1" style="stop-color:#ed6d23"/></radialGradient><path d="M67.2 37.4q-.9-2.1-2.5-2.7l-5.9-1.9c-4-1.5-8.3 2.6-9.7 6Q44 48 39.6 64.5a5 5 0 0 0 .4 3.9 5 5 0 0 0 3 2.4 54 54 0 0 0 11.9 1.6q3.7 0 5.8-1.1 1.2-.7 1.3-2a84 84 0 0 1 5.5-24.2c1-2.2.8-5.4-.3-7.8" style="fill:url(#i)"/><path d="m67.9 44-15.4-9.7s2.7-1.9 3.7-1.8 11.7 7.1 12 7.5-.3 4-.3 4" style="opacity:.4;fill:#212121"/><path d="m95.4 60.6 1.3-1.9-50-34.7-1.8 2.5z" style="fill:#7c7d7d"/><path d="m45 26.5 1.7-2.5-15.2-10.4a1.5 1.5 0 0 0-1.7 2.5z" style="fill:#504f4f"/><path d="M46.8 21.8q-.7-.7-1.5-.6-.9.3-1.3 1l-.4.7q-.8 0-1.4.3l-3 1.3-.4.5v2.3c.2.6 1.5 1.5 2 1.7l.7.2.3-.1q.2 0 .7-1.3l.6-1.4c1-.5 2-.7 2.1-.7l.3-.2q.3-.1.3-.3l.2-.5v-.3q.6-1.2.9-1.4.2-.5-.1-1.2" style="fill:#91674d"/><linearGradient id="j" x1="39.9" x2="37.1" y1="16.4" y2="23.9" gradientUnits="userSpaceOnUse"><stop offset=".3" style="stop-color:#ba8d68"/><stop offset="1" style="stop-color:#a47b62"/></linearGradient><path d="M44 17.7c-.8-.8-1.1 0-1.7-.2s-.3-.7-.9-1c-.9-.3-1.2.3-1.7.1s-.3-.5-1-.7-1 .4-1.5.2-.4-.5-1-.6q-.8-.3-1.6.9c-1.6 2.3-2.5 7-2.5 7L39 27l5-6.4c.5-.8 1.1-2 .2-2.8" style="fill:url(#j)"/><path d="M59.3 40.6c0 2.8-2.1 4.8-4.2 5.3h-1.4l-23.2-.7q-1.8 0-3.2-1.1a4 4 0 0 1-1.3-4.8l5.5-16.8q0-.3.3-.4h.4l7.6 3.6q.4 0 .3.6L36.6 36l17.1-1h.2l1 .1a5.4 5.4 0 0 1 4.4 5.4" style="fill:#f78c1f"/><path d="m58.8 38.2-5-3H55q2.4.5 3.8 3" style="opacity:.4;fill:#212121"/></svg>