<svg xml:space="preserve" width="16" height="16" viewBox="0 0 128 128"><path d="M85.9 62.7c-.2-2.4-2.8-4.7-7.3-6a115 115 0 0 0-64.8 0q-6.8 2.1-7.2 6v50.1c0 2.8 3 5.8 10.2 7.8 7.5 2.2 17.6 3.5 29.4 3.5s22-1.4 29.4-3.5c7.6-2.1 10.4-5.3 10.3-8.2z" style="fill:#e2a610"/><linearGradient id="a" x1="89.2" x2="79" y1="84.4" y2="84.4" gradientUnits="userSpaceOnUse"><stop offset="0" style="stop-color:#9e740b"/><stop offset=".3" style="stop-color:#9e740b;stop-opacity:.963"/></linearGradient><path d="M85.9 62.7c-.2-2.4-2.8-4.7-7.3-6-9.6-3 11.3 9.4-.8 9.3 0 0-.3 25.1 0 38.4.2 8.8 8.1 8.7 8 8z" style="fill:url(#a)"/><path d="M6.6 63.4h79.3" style="fill:#e2a610"/><path d="m54.1 108.2-4.5-10.5a7.7 7.7 0 1 0-7.1-.3l-4.2 11c-.5 1.3.5 2.8 2 2.8h11.9c1.5 0 2.5-1.6 2-3" style="fill:#4e342e"/><path d="M53.7 107.3h-15l-.4 1c-.5 1.4.5 2.9 2 2.9h11.9c1.5 0 2.5-1.6 2-3zM43.2 95.4q.2-.8-.5-1.4a6 6 0 0 1-2-2.5c-1.8-4.4.4-6.4.4-6.4a7.6 7.6 0 0 0 1.4 12.3zm8.5-10.1s2.2 4.4-.4 7.3a7 7 0 0 1-2 1.7 1 1 0 0 0-.6 1.4l1 2a8 8 0 0 0 4.3-7c0-3.2-2.3-5.4-2.3-5.4" style="fill:#9e740b"/><path d="M77 56a113 113 0 0 0-61.5 0c-9.1 2.6-10 9.2 2.9 12.8 7 1.9 16.7 3.1 27.8 3.1s20.8-1.2 27.9-3.2C87 65.3 86 58.7 77 56" style="fill:#fdd835"/><path d="M74.4 62.2S74 64 69 64s-5.8-1.7-5.8-1.7v-22c0-10-7.7-18.2-17-18.2s-17.1 8.1-17.1 18.2v22S27 64 23.2 64s-5.1-1.7-5.1-1.7v-22C18 24 30.7 10.9 46.2 10.9S74.4 24 74.4 40.2z" style="fill:#84b0c1;stroke:#84b0c1;stroke-width:1.9584;stroke-miterlimit:10"/><path d="M33.5 21.6c-5.1 3-6 5-7.3 6-1.1.7-2.5.2-1.6-2.3.8-2 2.7-6 7.4-9 8.2-5.2 15.2-5 14.9-1-.4 3.5-7.9 3-13.4 6.3" style="fill:#b9e4ea"/><path d="M77 56c-1.4-.4-6.3 7-4.4 8.5 2.1 1.6 4.6 3.2 5.2 3C89 63 86 58.5 77 56" style="fill:#e2a610"/><radialGradient id="b" cx="76.7" cy="49.1" r="37.7" gradientTransform="rotate(-94.4 88.1 36.76)scale(1 .499)" gradientUnits="userSpaceOnUse"><stop offset=".2" style="stop-color:#3d8192"/><stop offset=".3" style="stop-color:#3d8192"/></radialGradient><path d="M72.7 27.7c-4.2 2.8-7.8 7.9-7.5 19.3.3 11.9 6.5 16.6 7.4 17.5 2-.6 3-2 3-2L75.4 40c0-3-.2-7.8-2.6-12.3" style="fill:url(#b)"/><path d="M93.8 20.2c-13.1.4-22 12.3-22 25.5C72 56 78.4 62.5 87.5 66v39.4a6 6 0 0 0 1.8 4.3l3 2.8 2.3 3.3c.7.3 3.6.2 4.2-.1l4.4-3.7a6 6 0 0 0 1.9-4.3v-2.9q0-2.9-2.3-4.6-1.4-1-1.5-2.5.1-1.9 2-2.8a3 3 0 0 0 1.8-2.7v-.4q-.2-2.3-1.7-3-1.9-1.5-2-3.8c-.3-1.2.5-2.6 1.3-3.5 1.6-1.6 2.3-3 2.3-5.3v-7.5a25 25 0 0 0 16.4-23.4c0-14.1-11.5-25.6-27.6-25.2m9.6 19.7a6.7 6.7 0 1 1-13.5 0 6.7 6.7 0 0 1 13.5 0" style="fill:#9e740b"/><path d="M93 20.2a24.8 24.8 0 0 0-9.2 47.9v37a6 6 0 0 0 1.8 4.3l5.6 5.2c1.6-.4 3.4 1.3 3.4 1.3l4.9-4.2a6 6 0 0 0 1.9-4.3v-2.9q0-2.9-2.3-4.6-1.4-1-1.5-2.5.1-1.9 2-2.8a3 3 0 0 0 1.8-2.7v-.4q-.2-2.3-1.7-3-1.9-1.5-2-3.8-.1-2 1.4-3.5a7 7 0 0 0 2.2-5.3v-7.5A24.8 24.8 0 0 0 93 20.2m6.7 19.3a6.7 6.7 0 1 1-13.5 0 6.7 6.7 0 0 1 13.5 0" style="fill:#ffca28"/><path d="M91.2 114.6s1-.1 3.4 1.3l-.4-44c0-1.5-2.8 2-2.9 4z" style="fill:#dba010"/><path d="M74.2 39.5a17 17 0 0 1 11.5-13.7c1-.3 3-.8 3.4 1q.5 2-2.1 2.8c-4 1.2-9.3 4-10.2 10.7q-.4 2-1.7 1.9-1-.3-.9-2.7" style="fill:#fff59d"/></svg>