<svg xml:space="preserve" width="16" height="16" viewBox="0 0 128 128"><path d="M49 111.7s-4.8 5.9-9.3 7.8c-4.5 2-7.6 2-8.4 1.3s-.9-3.5-.9-3.5-1.6 3.7-11.2 4.5-10.6-1.2-10.9-2.5 1.5-2.7 2.8-4.4 4.1-6.5 4.1-6.5-3.1.5-3.4-1 1.5-3.5 2.7-5.4q1.5-3 4.8-5.6c3.3-2.6 22.1-20 22.1-20L53.1 84z" style="fill:#2e7e31"/><path d="M25 107.7c1.2 1.2 3.8-.7 6.8-2.7s5.2-3.5 4.4-5c-1-1.6-4.4-1-7.5 1.8-2.6 2.4-5 4.6-3.7 6" style="fill:#5b9922"/><path d="M84.2 109.2s4.4 3.1 8.8 4.9c4.3 1.8 8.3 3.4 9.8 2.4 1.8-1.3 1.1-4.3 1.1-4.3s2.9 3 8.2 4.1 10.9 1.7 11.2 1.2-.7-7-2.3-10.6-4-6.4-4-6.4 3.6 0 4-1.6-3.9-8.7-9.3-13.3c-4.5-3.8-17.8-7-17.8-7l-13.2 5z" style="fill:#2e7e31"/><path d="M100.8 95.7c-1 1 .4 2.5 4 6 3.8 3.7 5.6 6 6.7 5 1-1-.1-4-4.1-8s-5.5-4.3-6.6-3" style="fill:#5a9821"/><path d="M94.9 42.6c-.8-.9 12.3-8.7 10.9-16.6-1.5-7.8-5.7-7.3-8.3-10s-1.6-5.9-7.8-9.2c-5.6-3-9 .4-11.2.1-4.7-.6-9-3.9-15 .7s-4 15.4-3.9 17 .5 5.5-.2 5.8-3.3-14.2-7-16.4c-8.4-5-10.4.2-10.4.2s-10.4-9.7-19.8-2.9c-8 5.9-3 16.4-3.2 17.6s-4.6 3-3.8 9.4c1 8.6 13.7 10.8 13.7 12.6 0 1.5-15-5-20.8 2.8-3.8 5.2-1 9-1.1 11-.1 1.8-5.6 6.2-2.4 15.3 2.7 7.3 8 6.8 9.2 8.3s1.7 6.1 7.5 8c5.8 1.7 11.3-1.7 14-4s5-4.5 6-4.4c1.2.1-7.1 11.5 1.2 21.2 4.5 5.2 7.9 4.1 9.3 4.5s2.2 5.1 12.7 6.3c10.5 1 11.3-5 14-5.8s10-1.1 12.5-11.6c2-8.6-4.9-16.4-4-17.1s7.6 9.2 20 4.9c6.4-2.3 6.7-8.8 6.7-8.8S124.1 77.4 125 66c.6-8.9-7.3-13.2-7.7-14.3s-.6-5.9-5.7-9.4c-6.4-4.4-15.8 1.4-16.6.4" style="fill:#ea4b8d"/><path d="M67.5 42.8s7.2-11 12-8.2c3.5 2.1-4.7 12.3-4.7 12.3s8.8-6.3 10.5-3.6c2.3 3.6-4.7 9.1-4.7 9.1s11-4 12.7.3c2.1 4.8-13.4 7.1-13.4 7.1s15.4-.4 14.8 5c-.6 4.6-15.3 1.7-15.3 1.7s9.5 8.3 6.3 11.4c-4 3.7-14.7-6.2-14.7-6.2s-.8 14.2-5.4 14.8c-4.8.6-7.8-14.3-7.8-14.3s-6 11.8-10 9C44.4 79 49 70.7 49 70.7s-10.6 8.6-13.4 5C33 72.2 43.8 64 43.8 64s-11.6 1.8-12.2-4c-.6-6 12-7 12-7s-5.2-1.4-4.5-4.7c.6-3.3 11.4.5 11.4.5s-5.3-6.9-3-9.4c4-4 13.6 7.1 13.6 7.1s1.4-13 5.3-12c3.1.7 1.1 8.4 1.1 8.4" style="fill:#c10375"/><path d="M49.8 28.1S54 31 59.6 38.6C67.2 49 68.9 56 68.9 56s-.5 4.5-4.6 5.3c-5 1-6.7-2.6-6.7-2.6s-.8-7.8-5-15.1C49.1 37.5 44.1 33 44.1 33s-2.7 1.8-5.6.7-3.5-4.2-3.5-4.2-4 .4-5.4-3 .6-6 .6-6-5-5-.2-8.4c3.7-2.7 7.1 1.8 7.1 1.8s2.9-1.2 5.5.3 2 5 2 5 3.6.7 4.5 3.4c1 2.7.6 5.5.6 5.5" style="fill:#fdc11e"/><path d="M38.3 25c-1.3 2-.7 4.4 1.7 5.1s3.5-.6 4.1-2-.3-3.5-1.6-4.1-3.1-.7-4.2 1m-3.2-3.4q-2.3-1.7-4 .6c-1 1.6-.2 3.7 1 4.3 1.1.7 3 .8 4-.5q1.3-2.7-1-4.4m-3.9-8.2c-2.2 1-2 4.1-.4 5s4.1.2 4.3-2.1c.2-2-1.4-4-4-2.9m7.2 2.6c-1.9 1-2 3.7-.9 5 1.3 1.5 5 1.4 5.2-1.7s-2.2-4.3-4.3-3.2" style="fill:#fee165"/></svg>