<svg xml:space="preserve" width="16" height="16" viewBox="0 0 128 128"><path d="m16 35.8-4.3 1s-5.9 9-7.2 18.8c-.8 6-.8 14-.2 18A64 64 0 0 0 10 91.9c3 5.7 6 8 9.4 10 1.4.8 2.6 3.7 4.8 5.1 2 1.3 4.8 1.6 4.8 1.6s7.5 11.8 23.8 13.9c19 2.4 28.4-6.3 28.4-6.3s7.7 0 14.9-3c8-3.5 12.4-10.8 12.4-10.8s10.1-8.7 13.3-19.1c2.6-8.4 2.7-24.3.7-31.8s-5.8-13.9-8.8-18C111.3 30.4 84.3 16 81 14.7s-33.6-3.3-34.7-2.4z" style="fill:#ac5811"/><radialGradient id="a" cx="64.2" cy="57.6" r="53.2" gradientUnits="userSpaceOnUse"><stop offset=".5" style="stop-color:#f29f58"/><stop offset=".7" style="stop-color:#f09d56"/><stop offset=".8" style="stop-color:#eb9550"/><stop offset=".9" style="stop-color:#e18745"/><stop offset="1" style="stop-color:#d47436"/><stop offset="1" style="stop-color:#d27133"/></radialGradient><path d="M26.5 19.8c-7 5.7-10.7 8.7-14.3 15.9s-2.5 16.7-1.8 20.2l2.4 13.7A34 34 0 0 0 20 86.1c6.7 7 12.8 9.4 12.8 9.4s5 7.6 16.8 12c15.7 5.7 22.7-2.6 28.7-4.9 6-2.2 13.2-2.3 19.4-6.6 6-4.3 12.9-9.6 17.3-20.5s3.5-15.8 3.7-18.5c.1-2.8-.3-16-5.4-24s-11.2-13-13.5-14.5A157 157 0 0 0 71.2 6c-4.7-.9-21.5.6-28.1 3.3S26.5 19.8 26.5 19.8" style="fill:url(#a)"/><path d="M56.3 71.5c-1.1-.4-2.3-2-2.6-5.6-.4-5 3.3-6.4 3.3-6.4s4.5-1.2 7.6-2.3c2.9-1 5-2.3 5-2.3s.2-5.4 2-7 5-1.5 8.5-1 9.2 2.7 8.4 4.9c-.9 2.1-1.8 4.2-5.2 6.2q-5 3-7.5 5.2-2.5 2.5-10.2 5.4c-7.7 3-7.7 3.4-9.3 2.9m-29.7-45c-3.4-.7-8 6.5-9 8.9a53 53 0 0 0-1.8 10.8c-.1 3.3-.2 6.4 1.2 8.9 1 2 3.6 3 6 1 2.2-2 6.2-7.5 7.3-8.2s4.2-1.8 3-6.9c-.6-2-5.6-6.3-5.9-6.9-.2-.5 1-7.2-.8-7.6M50 17.4c.2 2 1.7 5 3.4 6.7 2.6 2.5 14.3 11 17.4 10.5s6.3-6 7.3-7.5 2.9-3.7 3.7-4.6c.7-1 2.7-3.2 1-5.4-1.6-2.2-5.7-3.7-8.5-3.9s-7-2-10.7-1.8c-3.7 0-14 1-13.6 6m48.3 25.8c.3 2 3.2 2.5 5.6 4s4 3.2 5.3 2.8c1.4-.5 3.2-2.7 2.8-6.5-.5-5-3.6-11.4-8-11.2-2.6.2-2.3 4.7-2.3 4.7s-3.5 5-3.4 6.2" style="fill:#ffc86e"/><path d="M41.5 30.2s-9.5 0-9.3 1 1 4 3.5 4c2.4.2 5.6.4 7.1 0s5.8-4 5.8-5.4-1.7-3.8-1.7-3.8zM55 47.5l-.3.2c-.5.4-1.4 1.3-1 2.3.4 1.4 3.2 4 5.9 4s4.1-2.6 4.6-4.2.2-2.7.2-2.7zm-21 7.7s-1.7.6-1.7 1.6.5 3 2.6 5c2.1 2.2 5.2 2.7 8 2s4.9-3 4.7-5.7-3-5-3-5zM21.8 70.7s-1.8.4-1.6 1.6 2.2 4.9 5.3 4.5 8.2-4 8.2-5.5-2.5-3.3-2.5-3.3zm21.5 14.7s-.6 3.8 4.5 5.1c8.5 2.3 9.4-2.8 9.4-2.8zm33.4 1.7s-2.2 2.3.3 4.1q4 2.6 8.4 2c4.4-.5 4.6-2.4 4.6-2.4zM98 61.8s-4.3 2.2-1 6c2.6 2.8 8.4 2.2 10.7.6 1.6-1 2-3 1.5-3.8-.6-1-11.2-2.8-11.2-2.8M81.4 37s-.3 4.9 6.4 4.7c9.2-.2 8-6 8-6z" style="fill:#cf701e"/><path d="M85.7 30.8s-4.4 2.7-4.9 3.8-1.4 4.7 3.6 4.4 10-.4 11.8-2.4c1.7-2 1.3-4 .6-5.5S92 24 89 24c-2 0-3.3 7-3.3 7" style="fill:#593329"/><path d="M89 23.9s-2.8-.3-5.2 4-3 6.8-3 6.8 4.9 0 7.8-.4c3-.3 5-2.1 5-2.1s-2.4-7.8-4.6-8.3" style="fill:#925849"/><path d="M55.7 43.9s-2.4-.2-2.6.8c-.1.9.4 3.3 1.2 4.3s3.3 3.4 5.7 3c2.5-.5 4-3 4.4-3.7.3-.8.7-1.7 0-2.7s-8.7-1.7-8.7-1.7" style="fill:#593329"/><path d="M59.3 40.1c-2-.2-7 3.7-6.1 5 1 1.5 1.2.6 3.9 2 2.2 1 3.2 2.1 4.6 2s3-2.6 2.7-3.5c-.3-1-2.4-5.2-5.1-5.5" style="fill:#925849"/><path d="m36.2 24.3-4.8 3.3s-.2 2.3.8 3.5 1.3 2 6 2 9-.6 9.9-4c.8-3.3-.6-5.5-1.5-6.7s-10.4 2-10.4 2" style="fill:#593329"/><path d="M36.3 19.1c-1.1.5-3.7 4-4.3 5.5a8 8 0 0 0-.6 3.1c1 .3 6.7.8 9.2.4s4.6-1.6 5.4-3c.6-1.2.6-2.7.6-2.7s-1.7-3.1-4-4c-2.4-1-6 .5-6.4.7" style="fill:#925949"/><path d="M32.2 55.4s-.4.6.4 1.8a8 8 0 0 0 4.5 3.2c2.2.7 3.8 1.5 5.2 1.4s4.4-1.4 4.5-5.4-.7-6-2.5-7.7-3-1.5-3-1.5z" style="fill:#593329"/><path d="M32.7 51.7c-.6 1-1 4.4-.3 5.2.8.7 5.4.8 6.6.6 1.2 0 5.1-2 5.2-3.4 0-1.4-.7-3.2-.7-4s.8-2.3-1.6-2.9-7.9 2.3-9.2 4.5" style="fill:#925849"/><path d="M24.8 66.9s-3.8.9-4 2.2q-.3 2 1.6 3.8c1.3 1.2 2.2 2.5 3.2 2.4s3.7-2.5 4.5-3.2 2-2.1 1.9-3.2-.6-2.3-1.7-3.2c-1-.8-5.5 1.2-5.5 1.2" style="fill:#593329"/><path d="M25.8 63.5c-1.8 0-3.1 2.2-3.7 3s-1.6 2.5-1.2 2.8 2.1.5 3 1c.7.6 2 1.4 3 .6s1.7-2.9 2.2-3.6c.4-.7 1.2-1.5 1.2-1.5s-1.7-2.3-4.5-2.3" style="fill:#925849"/><path d="M47.3 77.6c-.4.5-5.4 4.5-5.4 4.5s.2 3.5 1.3 4.3c1.1.9 4.6 2 6.8 2.5s6.2 1 7.2.6 2-2.6 2.1-5.4-.9-5-2-6.2q-1.8-1.9-2-1.8z" style="fill:#593329"/><path d="M53.9 83c.6-.8 1.4-6.9 1.4-6.9s-4.5-3.4-6.4-3.7c-1.9-.2-4 0-4.7.7s-3.2 3.2-3 4.8l.7 4.2s10.6 2.3 12 .8" style="fill:#925849"/><path d="M75.8 85.8s-.6 3.8 3.6 4.5c4.1.7 7.6 1.7 9.4 1.3s3.6-2.8 3.8-4.6a17 17 0 0 0 0-5c-.7-1.8-4.3-6.8-6-7.3q-1.6-.3-1.8-.2z" style="fill:#593329"/><path d="M78.5 79.1c-2 2.1-2.9 5.1-2.8 6.7.1 1.5 7.2.8 8 .3.9-.5 2.7-2.8 2.8-3.5s-.5-3.2-.6-4.6c-.1-1.5-.2-3.5-1-3.5s-3.8 1.7-6.4 4.6" style="fill:#925849"/><path d="M102.4 53.3s1.7.3 3.7 1.5c2.4 1.4 4.9 5 4.7 8s-2.8 4.3-6 4.3-6.1-.1-6.7-1.7c-.5-1.6 4.3-12 4.3-12" style="fill:#593329"/><path d="M100 54.3c-.6.7-1.8 2.8-2.3 5.5s0 5.7.9 6.2 6.1-4 6.4-4.5-1.7-7.7-2.3-8-2.1 0-2.8.8" style="fill:#925849"/></svg>