<svg xml:space="preserve" width="16" height="16" viewBox="0 0 128 128"><radialGradient id="a" cx="20.4" cy="112.5" r="86.7" gradientTransform="rotate(-17.3 125 96.59)scale(1 .717)" gradientUnits="userSpaceOnUse"><stop offset=".4" style="stop-color:#b0bec5"/><stop offset="1" style="stop-color:#b0bec5;stop-opacity:0"/></radialGradient><path d="M30.5 94.1c-13.6 8-19.6 6.7-7.2-17A157 157 0 0 1 55 38.3l-8.4-5.8c-9.8 9-20 20.7-30.3 36-30.7 45.6 5.4 49.5 20.9 44.3 35.2-11.7 61.4-50 61.4-50L79 45.5S47.2 84.4 30.5 94.1" style="fill:url(#a)"/><linearGradient id="b" x1="64.6" x2="93.6" y1="41.3" y2="-1.1" gradientUnits="userSpaceOnUse"><stop offset="0" style="stop-color:#b0bec5;stop-opacity:0"/><stop offset="1" style="stop-color:#b0bec5"/></linearGradient><path d="M42.8 50.6c13-14.2 29.1-27.4 42-34 15.3-7.6 19.5-6.6 17.7 1.8-1.1 5.3-3.6 10.2-3.6 10.2s6.8-4.6 10.6-14c3.8-9.6-6.3-11.8-18.2-8.3-16.4 4.7-35.9 15-56.7 38.5z" style="fill:url(#b)"/><path d="M112.2 114.7 97.8 66.4a28 28 0 0 0-23.7-19.2l-51.3-4.5c-3.8-.3-7.4-2.7-7.8-6.5q-.4 1-.5 2.3c-.2 4 2.8 7.5 6.9 7.9L71 51c10.7 1 19.7 8.3 22.9 18.6l14.7 48.2c1.2 4 5.3 6.2 9.3 5.2q1.5-.3 2.5-1.2c-4.3.6-7-3.5-8.2-7.1" style="fill:#874d36"/><path d="m123.5 113.9-15-67.6c-1.7-8-8.7-13.7-17-13.8l-69.3-1.2c-3.2 0-6 2-7.2 4.9.4 3.8 4 6.8 7.8 7.2L74 48c10.7 1 19.7 8.3 22.9 18.6l14.7 48.2c1.2 3.7 4.5 7.6 8.9 7a8 8 0 0 0 3-8" style="fill:#a65f3e"/><path d="M15 36.2q-.4 1-.5 2.3c-.2 4 2.9 7.5 6.9 7.9l15.8 1.4q1.3-1 2.2-3l.2-.4L23 42.8c-1.9-.2-4-1.4-5.4-2.7-1.4-1.2-2.6-4-2.6-4" style="fill:#e2a610"/><path d="m39.5 31.6-17.3-.3c-3.2 0-6 2-7.2 4.9.4 3.8 4 6.8 7.8 7.2l16.6 1.5q1.4-2.9 1.4-6.7a16 16 0 0 0-1.3-6.6" style="fill:#ffca28"/><path d="m112.2 114.7-4.8-15.1-.4.2q-1.8 1.4-3 3l4.6 15a7.7 7.7 0 0 0 11.8 4s-2.8-.2-5-2.5a12 12 0 0 1-3.2-4.6" style="fill:#e2a610"/><path d="m123.5 113.9-3.7-16.7q-3-.7-6.8 0a16 16 0 0 0-6 2.6l4.6 15c1.1 3.7 4.5 7.6 8.8 7a8 8 0 0 0 3.1-8" style="fill:#ffca28"/><path d="M24.6 33.3c-2 0-3.7.7-3.7 2 0 1.2.4 2.4 4.5 2.4l69.4-.5c.7 0 1-1 .2-1.2q-2-1-7.3-1.3c-7.2 0-60.3-1.4-63.1-1.4" style="fill:#c87d5e"/><path d="M40.8 37.6q0-2.1-.6-4l-15.6-.3c-2 0-3.7.7-3.7 2 0 1.2.4 2.4 4.5 2.4z" style="fill:#ffe36c"/></svg>