<svg xml:space="preserve" width="16" height="16" viewBox="0 0 128 128"><linearGradient id="a" x1="65.9" x2="65.9" y1="54.4" y2="15.7" gradientTransform="matrix(1 0 0 -1 0 128)" gradientUnits="userSpaceOnUse"><stop offset="0" style="stop-color:#00bfa5"/><stop offset=".5" style="stop-color:#00b29a"/><stop offset="1" style="stop-color:#009e89"/></linearGradient><path d="m114.4 89.1-.2.5c-1.8 4.3-6.7 16.2-9 19.6-1.7 2.6-4.5 3.6-7.2 3.6s-5.4-1-6.8-2.4c-2.8-3-4.7-5.4-4.7-5.4v18.5H40.9v-11.8l.2-10.4-8.7 2.2-2 .2c-4.3 0-8.8-3.5-10-8.6-2-8.5-3-18.3-3-18.3v-1.2l.2-.7c.4-.6 1-.5 1.6-.7l4.9-1.2 1.4-.3q.6-.1 1.3 1l.3.7v.1l.3.7 4 12.3 6.2-5.5c2.2-1.6 4.3-3.8 8.3-5.5l.3-.1 1.2-.5.6-.2 3.8-1q2.8-.5 6.4-.7h.9q2.1-.2 4.5-.2h.2a86 86 0 0 1 11.6 1h.1l1.1.3 1.2.3 3.4 1.3h.2a22 22 0 0 1 10.1 9.9c3.2 5.5 5 9 5 9l5.8-8.6.3-.6.2-.1.7-.3a14 14 0 0 1 4-.4l5.4 1.5q.8.2 1.2.9.3.3.3.7z" style="fill:url(#a)"/><path d="M58.4 69.9V76a5 5 0 0 0 .8 2.5 5 5 0 0 0 2 1.7l1.3.4h1.7a5 5 0 0 0 2.1-.4l.8-.5a5 5 0 0 0 2-3.7v-6.2z" style="fill:#7a4c32"/><path d="m65 77.8 3.5-2.2c1-.6 2.5-1.7 4-1.1 1.3.4.8 2.1.8 4.4 0 2.6.5 4.1-.5 4.5-1.4.6-3.1-.4-4.6-1a13 13 0 0 1-3.6-2.1c-.4-.6-.4-2.1.4-2.5" style="fill:#212121"/><ellipse cx="68.2" cy="78.2" rx="3.1" ry=".3" style="fill:#616161" transform="rotate(-11.7 68.2 78.15)"/><ellipse cx="68.2" cy="80.2" rx=".3" ry="3.1" style="fill:#616161" transform="rotate(-81.8 68.2 80.2)"/><path d="M62.1 77.8q-1.7-1.2-3.5-2.2c-1-.6-2.5-1.7-4-1.1-1.2.4-.8 2.1-.8 4.4 0 2.6-.4 4.1.6 4.5 1.3.6 3-.4 4.6-1 .8-.4 3.2-1.5 3.6-2.1s.4-2.1-.5-2.5" style="fill:#212121"/><ellipse cx="59" cy="78.2" rx=".3" ry="3.1" style="fill:#616161" transform="rotate(-78.3 58.96 78.16)"/><ellipse cx="59" cy="80.2" rx="3.1" ry=".3" style="fill:#616161" transform="rotate(-8.2 58.96 80.21)"/><path d="M66.2 79.3c0 1.6-1.2 2.4-2.6 2.4s-2.7-.8-2.7-2.4.7-2.7 2.7-2.7c1.9 0 2.6 1.2 2.6 2.7" style="fill:#212121"/><path d="M21.5 76.4c-3 0-6.1-1.3-8.3-3.6a12 12 0 0 1-3.1-7.6c0-1-.1-4.3 1.6-5.4a2 2 0 0 1 2.3 0c.5-1 1.3-1.9 2.6-1.9h.3l1.4.5q.5-.4 1.4-.4h.1q1.5.1 1.8.9.4.6.4 1.2l1-.3 1 .3c1.5.7 1.2 2.1 1 3v.7c-.2 1.7.5 3 .7 3.2l.5.5c1.4 1.4 2.6 2.6 1.8 5.4-.6 2-3.2 3.5-6.5 3.5" style="fill:#dbdbdb"/><path d="M21.8 60.4q-.1 2-.4 3.7a6 6 0 0 0 .8 3.3q.1.4-.2.6t-.6-.1q-1.1-1.8-1-3.8l.4-2q.3-1 1-1.7m-3.5-1.6-.6 2.4-.1 2.2q0 2.3 1 4.5.1.4-.2.6-.4 0-.6-.2-1.2-2.3-1.2-4.9 0-1.2.4-2.4a5 5 0 0 1 1.3-2.2m-3.7.7q-.4 2.3-.4 4.5t1.2 4.2q0 .4-.2.7-.4.1-.6-.1a8 8 0 0 1-1.4-4.7q0-1.3.3-2.5t1-2.1" style="fill:#999898"/><path d="M109.4 89.9c-3.3 0-6-1.5-6.5-3.6-.9-2.8.3-4 1.7-5.3l.6-.5c.1-.3.9-1.6.7-3.2v-.7c-.3-1-.5-2.3 1-3q.5-.3 1-.3t1 .3q0-.7.3-1.3.4-.6 1.8-.9h.2q.8 0 1.4.5l1.4-.5h.3c1.3 0 2 1 2.5 1.9q.6-.3 1.3-.4.6 0 1 .3c1.8 1.1 1.8 4.5 1.7 5.5q-.3 4.8-3 7.6a12 12 0 0 1-8.4 3.6" style="fill:#dbdbdb"/><path d="M109.1 73.9q.7.7 1 1.7t.3 2q.3 1.9-1 3.8-.2.3-.6 0l-.1-.6a6 6 0 0 0 .8-3.3zm3.5-1.6a5 5 0 0 1 1.3 2.1q.4 1.3.4 2.5 0 2.6-1.2 4.8-.2.4-.6.2l-.2-.5a12 12 0 0 0 .9-6.8zm3.7.7q.8.9 1.1 2.1l.3 2.4a8 8 0 0 1-1.4 4.7q-.2.3-.6.1l-.2-.6a9 9 0 0 0 1.2-4.2q0-2.2-.4-4.5" style="fill:#999898"/><radialGradient id="b" cx="23.1" cy="41.4" r="8.1" gradientTransform="translate(0 2)" gradientUnits="userSpaceOnUse"><stop offset="0" style="stop-color:#ff3d00"/><stop offset="1" style="stop-color:#dd2c00"/></radialGradient><circle cx="24.6" cy="45.7" r="8.1" style="fill:url(#b)"/><circle cx="22.2" cy="43.2" r="2.4" style="fill:#fff"/><path d="M81 43.8H47c-3.6 0-6.6 3.2-6.6 7 0 4 3 7.2 6.6 7.2h34c3.6 0 6.6-3.2 6.6-7.1 0-4-3-7.1-6.6-7.1" style="fill:#7a4c32"/><path d="M64 19.4c-10.8 0-20.8 11.5-20.8 28.1S53.5 72.2 64 72.2s20.8-8.1 20.8-24.7-10-28.1-20.8-28.1" style="fill:#a56c43"/><ellipse cx="53.8" cy="49" rx="3.1" ry="3.2" style="fill:#42312c"/><ellipse cx="74.2" cy="49" rx="3.1" ry="3.2" style="fill:#42312c"/><path d="M66.4 54.7h-4.8q-.6.4-.4 1a3 3 0 0 0 2.8 1.7 3 3 0 0 0 2.8-1.7q.3-.6-.4-1" style="fill:#875334"/><path d="M69.2 59.8a16 16 0 0 1-10.4 0c-1.1-.7-2.3.3-1.8 1.3s4 3.4 7 3.4 6.6-2.3 7-3.4c.5-1-.6-2-1.8-1.4" style="fill:#473530"/><path d="M63.7 16.2C38.2 16.4 41.6 47 41.6 47l1.5 5.2q.2.4.4 0c.8-3 3.4-13 4.6-16a4 4 0 0 1 4.1-2.4c2.6.5 6.8 1.1 11.4 1.1h.1c4.7 0 8.8-.6 11.4-1.1 1.7-.4 3.5.6 4.2 2.4 1.1 3 3.7 13 4.5 16 0 .2.4.2.4 0l1.6-5.2s3.4-30.5-22.1-30.7" style="fill:#3c2c23"/><radialGradient id="c" cx="63.7" cy="85.9" r="22.9" gradientTransform="matrix(1 0 0 -1.128 0 139.01)" gradientUnits="userSpaceOnUse"><stop offset=".8" style="stop-color:#554138;stop-opacity:0"/><stop offset="1" style="stop-color:#554138"/></radialGradient><path d="M85.8 47s3.4-30.6-22.1-30.8l-3.4.2H60C38.5 19.3 41.6 47 41.6 47l1.5 5.2q.2.3.4 0c.8-3 3.4-13 4.6-16a4 4 0 0 1 4.1-2.4c2.6.5 6.8 1 11.4 1h.1a64 64 0 0 0 11.4-1c1.7-.4 3.5.6 4.1 2.4 1.2 3 3.8 13 4.6 16 0 .2.4.3.4 0z" style="fill:url(#c)"/><path d="M49.1 44c1.9-2.7 6-3 8.5-1q.7.5 1 1.3c.3.8-.5 1.4-1.2 1.2L56 45q-1.2-.4-2.2-.4-1.5 0-3 .6-.5.4-1.2.2c-.6-.2-.8-1-.5-1.4m28.6 1.5-.5-.3a6 6 0 0 0-3-.6q-1.4 0-2.5.5c-.5.1-1.1.6-1.7.4q-1.1-.6-.3-1.7.8-1 2-1.5c1.8-.8 4-.7 5.7.3q1 .5 1.5 1.4c.5.8-.2 1.8-1.2 1.5" style="fill:#42312c"/><radialGradient id="d" cx="103.8" cy="51" r="8.1" gradientTransform="translate(0 2)" gradientUnits="userSpaceOnUse"><stop offset="0" style="stop-color:#00b0ff"/><stop offset="1" style="stop-color:#0091ea"/></radialGradient><circle cx="105.8" cy="55.6" r="8.1" style="fill:url(#d)"/><circle cx="103.3" cy="53" r="2.4" style="fill:#fff"/><path d="M36.2 33.3c0-3 12.5-3.8 27.8-3.8s27.9.7 27.9 3.8-12.5 6.3-27.9 6.3-27.8-3.2-27.8-6.3" style="fill:#212121"/><radialGradient id="e" cx="64" cy="114.1" r="32.6" gradientTransform="matrix(-1 0 0 .683 128.1 -64.04)" gradientUnits="userSpaceOnUse"><stop offset="0" style="stop-color:#787676"/><stop offset=".9" style="stop-color:#3f3f3f"/></radialGradient><path d="M84 28.5c-.4-7.4-3-12-11-15.4a24 24 0 0 0-9.2-1.9q-4.8 0-9.3 1.9c-8 3.4-10.6 8-11 15.4L42.8 40h42z" style="fill:url(#e)"/><path d="M90.8 31.2a21 21 0 0 0-6.8-1s6.2 1.6 6 2.7c-.5 1.6-6.4 4.1-26.2 4.2-19.9-.1-25.7-2.7-26.2-4.2-.3-1.1 6-2.6 6-2.6-1.4-.1-5.4.2-6.9 1-1.3.5-2.1.9-2.1 2.5 0 4.3 5.6 5.7 7.3 6.3 6 2 21.8 2.5 21.8 2.5S79.6 42 85.6 40c1.8-.6 7.4-2 7.4-6.3 0-1.6-.9-2-2.2-2.6" style="fill:#595858"/><path d="M86.6 111.7v11.8H40.8v-11.8h5V76.5l.3-.1 1.2-.5.6-.2 3.8-1v37h23.6V74.8h.1l1.1.3 1.2.3 3.4 1.3h.2v35z" style="fill:#7c7c7c"/><radialGradient id="f" cx="76.9" cy="7.4" r="8.1" gradientTransform="translate(0 2)" gradientUnits="userSpaceOnUse"><stop offset="0" style="stop-color:#00e676"/><stop offset="1" style="stop-color:#00c853"/></radialGradient><circle cx="78.7" cy="12.1" r="8.1" style="fill:url(#f)"/><circle cx="76.3" cy="9.6" r="2.4" style="fill:#fff"/></svg>