<svg xml:space="preserve" width="16" height="16" viewBox="0 0 128 128"><radialGradient id="a" cx="63.6" cy="2288.9" r="57" gradientTransform="translate(0 -2226)" gradientUnits="userSpaceOnUse"><stop offset=".5" style="stop-color:#fde030"/><stop offset=".9" style="stop-color:#f7c02b"/><stop offset="1" style="stop-color:#f4a223"/></radialGradient><path d="M63.6 118.8c-27.9 0-58-17.5-58-55.9S35.7 7 63.6 7c15.5 0 29.8 5.1 40.4 14.4 11.5 10.2 17.6 24.6 17.6 41.5s-6.1 31.2-17.6 41.4a61 61 0 0 1-40.4 14.5" style="fill:url(#a)"/><path d="M111.5 29.7a57 57 0 0 1 8.1 30.2c0 16.9-6.1 31.2-17.6 41.4a61 61 0 0 1-40.4 14.5 59 59 0 0 1-48.2-23 58 58 0 0 0 50.2 26c15.4 0 29.8-5.2 40.4-14.5a54 54 0 0 0 17.6-41.4q-.1-19.2-10.1-33.2" style="fill:#eb8f00"/><path d="m104.8 79.6-11.6-3a4 4 0 0 0-5 3.6l-.6 7.5-6.6-3.8a4 4 0 0 0-5.7 2l-2.7 6.8-5.2-6a4 4 0 0 0-3.1-1.5h-.6a4 4 0 0 0-3 1.4l-5.3 6.1-2.7-6.8a4 4 0 0 0-5.7-2l-6.6 3.8-.6-7.5a4 4 0 0 0-5-3.5l-11.6 3a4 4 0 1 0 2 7.7l7-1.8.7 9a4 4 0 0 0 6 3.2l8-4.6 3.5 8.7a4 4 0 0 0 6.7 1.2l7-8.3.4.8 6.4 7.4a4 4 0 0 0 3.6 1.4 4 4 0 0 0 3-2.5L81 93l8.1 4.6a4 4 0 0 0 6-3.2l.7-9 7 1.8a4 4 0 0 0 2.3-7.6zM34 57.4 46.2 55l-12.5-5.2-.5-.2a4.2 4.2 0 0 1-.7-7 6 6 0 0 1 6.9-.2l21.3 13q.8.4.6 1.2a1 1 0 0 1-.8.7l-23 8.6-.4.2c-3 .8-6.4-1-6.8-3.8-.4-2.2 1.3-4.2 3.7-4.9m62.7-.2-12.2-2.4L97 49.6l.4-.3a4.2 4.2 0 0 0 .7-6.9 6 6 0 0 0-6.8-.3L70 55.1a1 1 0 0 0 .2 2l23 8.6.4.1c3 .9 6.3-.8 6.8-3.7.4-2.2-1.3-4.3-3.7-5" style="fill:#422b0d"/><path d="M57.7 64.6c-16.7 10.7-37.3 13-51.5 16-2 .3-3 3-1.6 7.2 2.7 8 8 7.8 6.5 11.5-4.1 10.8 4.3 15.5 11.6 15.6 9.9.2 9 3.5 13 6.7 4 3 8.7 1 8.7 1C62.7 111.5 69.8 86 69.8 73.9c0-9.5-7-12.5-12.1-9.3" style="fill:#f5f5f5"/><path d="M6.2 80.6Q5 80.9 4.6 82q-.3 1-.3 2 0 2.2 1 4a17 17 0 0 0 5.1 6.7q1 .7 1.7 1.9l.3.7V99l-.1.7-.5 2-.3 2a9 9 0 0 0 .5 3.7 8 8 0 0 0 2 3q1.5 1.2 3.3 1.8a13 13 0 0 0 4.8 1h1l2.3.1q2.5.2 4.9 1a10 10 0 0 1 4 3.3q1.3 1.6 2.8 2.7 1.5 1 3 1H42l.9-.2.7-.2-.2.1q5.8-3.7 10.3-8.8l1.1-1.3 1-1.4 1-1.4 1-1.4 1.9-3 1.7-3A80 80 0 0 0 69.7 74q.5 7.2-1.2 14.3l-.8 3.5-1 3.5-1.3 3.4L64 102l-1.6 3.3-1.8 3.2-1 1.6-1 1.5-1 1.5-1.1 1.4q-4.7 6-11 9.9h-.3a12 12 0 0 1-5.2 1q-1.4-.1-2.6-.6-1.4-.4-2.5-1.3-2-1.5-3.5-3.4l-1.2-1.3-1.4-.9q-1.8-.6-3.7-.8l-2-.2h-1.2l-1.2-.2a18 18 0 0 1-4.7-1.3 13 13 0 0 1-4.2-2.7 11 11 0 0 1-3-9.3q0-1.2.4-2.3l.8-2.2q.3-.5.1-1.2L9 96.1q-1.5-1.5-2.9-3.5-1.2-2-1.9-4.1-.7-2.3-.6-4.5.2-1.2.8-2.2.5-1 1.8-1.2" style="fill:#bdbdbd"/><path d="M30.5 90.8q-4.2 1-8.7 1.5a3 3 0 0 1-2.7-2.6c0-1.3.9-2.5 2.2-2.7a56 56 0 0 0 29.4-10.8q4.2-2.7 8-6.4a36 36 0 0 1-10.8 13 45 45 0 0 1-17.4 8m11.7 13.1q-1.8.4-3-1.1c-.7-1.2-.4-2.9.8-3.7a51 51 0 0 0 19.5-22.2q-.6 4.4-1.8 8.6c-3.5 11-13 17.6-15.5 18.4" style="fill:#b3b3b3"/></svg>