<svg xml:space="preserve" width="16" height="16" viewBox="0 0 128 128"><path d="M102.7 116.6s-4-1.6-6-3.1-3.7-3.4-4.8-4.5q-1.2-1-2-1-1 0-1.6.9l-2.6 3.2c-1 1.8-.2 4.1-.2 4.1s-2.7 2.9 1.8 3.9 10.2 1.5 10.2 1.5l1 .1c1.9 0 4.6-.7 5.4-2.7 0 0 1.3-1.4-1.2-2.4" style="fill:#4568ac"/><path d="M85.3 111.5 70 109.7s5.1-15.8 6.6-23.3c0 0-12.5 3.7-19 3.7l-1 19.8c-.4 8.4 2.2 10.9 6.3 11.8q1.4.3 3.2.3c5.3 0 12.9-1.8 19-2.5 2.4-.2 1.7-6.9 0-8" style="fill:#616161"/><path d="M47 119.6c0-2-2-4.4-2-4.4h-7.6l-6.9 2.3a4 4 0 0 0-2.8 4v1.4q.1 1 1.1 1h17q1.2 0 1.3-1.2z" style="fill:#4568ac"/><path d="M77.4 77.6q0-.5-.5-.5l-18 1.3c-.2 0-10.4 1.4-16.7 2-7.4.6-8.1 8-7.8 15a375 375 0 0 0 2.2 20.2s1.8 1.1 5 1.1c3 0 4.6-1 4.7-1.1l.2-.3L49 94.5c1.3 0 5.4-.2 8.7 0 6.5.2 13-.2 16.8-4.3q3.9-4.2 2.8-12.6" style="fill:#7c7c7c"/><path d="M69 29c1-3.7 1.6-8.3 1.1-11.1q0-1-.5-1.6-.9-1.7-2.4-3.1l-.8-.7-.1-.1-.7-.5-.1-.2-.7-.4-.2-.2-.7-.4-.2-.1-.7-.4-.2-.1-.8-.4h-.1q-2.4-1-4.8-1H56c-5.7.7-9 4.7-10 9.9a14 14 0 0 0-.2 5l.3 1.8c.2 1.4-2.6 2.6-3 4.2-.3 1.1 2.1 2 2.3 2.2.9 1-.9 6 5.8 6.8 2.6.3 2.8.2 3.6.4 1.6.2 1.1 6.6 1.1 6.6l11.5-2.3s-1.5-7.4.2-10.7q.8-1.5 1.3-3.6" style="fill:#e0bb95"/><path d="M46 34.6q1.3.2 2.6-.6c.9-.6.3-1.3-.7-1a4 4 0 0 1-2.2.2z" style="fill:#6d4c41"/><ellipse cx="50.2" cy="26.3" rx="1.9" ry="1.2" style="fill:#5d4037" transform="rotate(-89.2 50.2 26.33)"/><path d="M49.4 23.5c-1.2.2-1.4-.6-1-1.2q.5-.7 2.5-.3 1.8.8 2 1.7.4 1.2 0 1c-.5 0-2-1.5-3.5-1.2" style="fill:#ab872f"/><radialGradient id="a" cx="62" cy="72.2" r="17" gradientTransform="matrix(1 0 0 -1 0 128)" gradientUnits="userSpaceOnUse"><stop offset=".4" style="stop-color:#f58b21"/><stop offset=".7" style="stop-color:#f17e22"/><stop offset="1" style="stop-color:#ec6e24"/></radialGradient><path d="M71.3 48.8c-1.9-6.4-5-8-7.8-8-3 0-5.4 1.7-5.4 1.7C53.3 46 53.3 51 52.9 58s-.8 21-.8 21 5.4 2.2 13.7 2.2h.7C75 81 78.2 78 78.2 78s-4.6-21.4-7-29.3" style="fill:url(#a)"/><linearGradient id="b" x1="53.1" x2="51" y1="47.9" y2="62.3" gradientTransform="matrix(1 0 0 -1 0 128)" gradientUnits="userSpaceOnUse"><stop offset=".5" style="stop-color:#e0bb95"/><stop offset="1" style="stop-color:#cca47a"/></linearGradient><path d="M71.4 66.9c-.4-3-2.7-14.5-2.7-14.6q-.2-.3-.6-.4L58 53a.5.5 0 0 0-.5.6L61 68.7c-1.8 1-10.4 6.2-12.9 6.7-1.6.4-4.5.8-7.8 1.2-2.6.4-5.3 3.8-6.6 5.9a1.7 1.7 0 0 0 2.3 2.3l3.6-2.2q.9.2 4 .2c2.6-.1 5-1.2 5.1-1.2 1-.4 5.3-1.2 9.5-1.9l8.5-1.6C73 76.8 72 69.6 71.4 67" style="fill:url(#b)"/><path d="M69.7 52.9c-.5-3-2.9-6.6-6.8-6.6l-1 .1c-4.6.8-6 5.6-5.4 8.7l2 9.7 13.1-2.3z" style="fill:#ec6e24"/><path d="M73.6 16.6a8 8 0 0 0-5.1-5.2C68 10.1 66 5.1 57.8 6.1q-3 .6-4.8 2l-1.6.8q-.7.4-1.7.1c-1.3-.4-.8-2.4-.8-2.4s-4.8.7-3 5.5c-1.6.6-2.4 2.3-2.8 4a5 5 0 0 0 2.6 5.3s-.2-3.6 4.9-3.2c1.5.1 3.2.4 4.7 0l1.6-.9h.2c2 1.1-.8 5.6 1.3 8.4.4.5.7.3.7.3l1-1.2q1-1.5 2-1.4c2.5.6 1.9 5-1 5.7-.3.1.2 5 6 5.2 3.2 0 4.3-2.4 4.3-2.4s-1.3.3-1.5-.9q-.2-.8 1.4-2.1a5 5 0 0 0 1.6-6.1c.4-.8 1.7-3.4.7-6.2" style="fill:#ab872f"/><radialGradient id="c" cx="65.6" cy="100.1" r="7.7" gradientTransform="rotate(202.4 -11.65 73.2)scale(-1 1.44)" gradientUnits="userSpaceOnUse"><stop offset=".5" style="stop-color:#bfa055;stop-opacity:0"/><stop offset="1" style="stop-color:#bfa055"/></radialGradient><path d="M72.9 22.8s-1 2.2-4.8 1.6c-1.6 0-4 3.8-1.8 6.4 2 2.4 5.1 1.1 5.1 1.1s-.4.1-1-.1q-.6-.5-.5-.7-.1-1 1.4-2.2a5 5 0 0 0 1.6-6" style="fill:url(#c)"/><radialGradient id="d" cx="66.5" cy="107.9" r="7.8" gradientTransform="rotate(174.4 2.8 81.53)scale(-1 1.262)" gradientUnits="userSpaceOnUse"><stop offset=".5" style="stop-color:#bfa055;stop-opacity:0"/><stop offset="1" style="stop-color:#bfa055"/></radialGradient><path d="M73.6 16.6a8 8 0 0 0-5.2-5.2q.4 1.3-.2 2.7s-.5 1.4-1.7 2.5q1.1 1.9 1.5 4c.3 1.3.6 2.7 0 3.8.8 0 2 .3 3.3-.3s2-1.9 2.4-3.2a7 7 0 0 0-.1-4.3" style="fill:url(#d)"/><radialGradient id="e" cx="57.8" cy="110.6" r="16.1" gradientTransform="rotate(173.3 1.96 53.64)scale(-1 .752)" gradientUnits="userSpaceOnUse"><stop offset=".5" style="stop-color:#bfa055;stop-opacity:0"/><stop offset="1" style="stop-color:#bfa055"/></radialGradient><path d="M68.2 14.1c1-2.4-.2-4.7-2.2-6.2C63.7 6 60.6 5.8 57.8 6q-3 .6-4.8 2l-1.6.8q-.7.3-1.7.1c-1.3-.5-.8-2.4-.8-2.4s-4.8.7-3 5.5c-1.6.6-2.4 2.3-2.8 4a5 5 0 0 0 2.6 5.3s-.2-3.6 4.9-3.2c1.5.1 3.2.4 4.7 0 1.3-.6 1.8-1.3 3.2-1.1 1.6.1 3.7.8 5.3.6 3.3-.3 4.4-3.6 4.4-3.6" style="fill:url(#e)"/><radialGradient id="f" cx="67.4" cy="99.2" r="8.7" gradientTransform="rotate(16.4 -255.1 -18.5)scale(1 -.643)" gradientUnits="userSpaceOnUse"><stop offset=".5" style="stop-color:#bfa055;stop-opacity:0"/><stop offset="1" style="stop-color:#bfa055"/></radialGradient><path d="M66.3 30.8c-1-1.2-1.2-3-2.8-4q-.6 1.6-2.4 2.4c-.3 0 .2 4.9 6.1 5 3 .2 4.2-2.3 4.2-2.3s-3 1.2-5-1" style="fill:url(#f)"/></svg>