<svg xml:space="preserve" width="16" height="16" viewBox="0 0 128 128"><radialGradient id="a" cx="33.8" cy="46" r="25.5" gradientTransform="matrix(1 0 0 .722 0 12.8)" gradientUnits="userSpaceOnUse"><stop offset=".3" style="stop-color:#bd3d15"/><stop offset=".7" style="stop-color:#e64a19"/></radialGradient><path d="M26.6 37.5c-4.7-1-10.3-1.7-15.3-2.3-4.8-.5-7 2-7 6.4 0 3.6 1.5 6.2 2.4 7.5q.6 1 1.8 1c2.4.4 7 1 11.8 1 5.7 0 11.8-1.8 17-2.5 2-.3 2 2 2 .3-.6-6-7.6-10.3-12.7-11.4" style="fill:url(#a)"/><linearGradient id="b" x1="21.8" x2="22.2" y1="43" y2="29.4" gradientUnits="userSpaceOnUse"><stop offset=".1" style="stop-color:#ffe082;stop-opacity:0"/><stop offset=".7" style="stop-color:#ffe082"/></linearGradient><path d="M26.6 37.5c-4.7-1-10.3-1.7-15.3-2.3-4.8-.5-7 2-7 6.4 0 3.6 35 7.3 35 7.3-.6-6-7.6-10.3-12.7-11.4" style="fill:url(#b)"/><radialGradient id="c" cx="75" cy="100.1" r="15.6" gradientTransform="matrix(1 0 0 1.432 0 -43.26)" gradientUnits="userSpaceOnUse"><stop offset="0" style="stop-color:#ffe082"/><stop offset="1" style="stop-color:#616161"/></radialGradient><path d="m68.2 106.2-.3.2a43 43 0 0 1 9.7-27.3c-1.2 1.3-8.3-1.4-9.6 0-12.3 13.4-9.8 32.5-8.7 38.2a2 2 0 0 0 2 1.6h6.6q1.2 0 1.6-1.3c1-4.4 3.1-9.3 7.3-11.4-2.3 1.1-6.3-1.2-8.6 0" style="fill:url(#c)"/><path d="M63.9 106.4A24 24 0 0 0 49 116.7c-.5-3.6-.3-8.1 0-9.4 3-18.4 12-25.9 12-25.9l-8.7-1.7a42 42 0 0 0-11.8 27c-.3 3.2-.2 12.7 1.6 13.9 0 0 7.7 4.6 8.9 3.3 5.9-6.5 12.3-13.3 21.7-14.4 3.3-.4-6-3.7-8.8-3.1" style="fill:#616161"/><linearGradient id="d" x1="65.7" x2="56.7" y1="107.7" y2="114.3" gradientUnits="userSpaceOnUse"><stop offset="0" style="stop-color:#212121"/><stop offset="1" style="stop-color:#232323;stop-opacity:0"/></linearGradient><path d="M64.1 106.3c-6.2 1.1-10.6 5-12.5 7.2l8.1 1.8q3.8-3.1 8.4-4.7l3-1.8-3.3-1.2c-2.7-.5-2.5-1.5-3.7-1.3" style="fill:url(#d)"/><radialGradient id="e" cx="66.4" cy="96.5" r="27.3" gradientTransform="matrix(1 0 0 .97 0 3.74)" gradientUnits="userSpaceOnUse"><stop offset=".4" style="stop-color:#f7d881"/><stop offset="1" style="stop-color:#9e9e9e"/></radialGradient><path d="M50.6 124.3h-.3q-.7 0-1.4-1.4c-.9-2.8-1.8-10-.1-20a38 38 0 0 1 10.4-21.6l1.7 1s-7.7 7-10.1 20.9a46 46 0 0 0 0 19l.5-.7c3.4-3.6 12.5-13.4 21.4-13.4v1.9c-8 0-16.7 9.3-20 12.8l-.6.8a2 2 0 0 1-1.5.7" style="fill:url(#e)"/><path d="M87 106.4a24 24 0 0 1 14.7 10.3c.5-3.6.3-8.1 0-9.4-3-18.4-11.9-25.9-11.9-25.9l8.7-1.7a42 42 0 0 1 11.8 27c.3 3.2.2 12.7-1.6 13.9 0 0-7.7 4.6-8.9 3.3-6-6.5-12.3-13.3-21.7-14.4-3.3-.4 6-3.7 8.8-3.1" style="fill:#616161"/><linearGradient id="f" x1="115.8" x2="106.8" y1="107.7" y2="114.3" gradientTransform="matrix(-1 0 0 1 200.87 0)" gradientUnits="userSpaceOnUse"><stop offset="0" style="stop-color:#212121"/><stop offset="1" style="stop-color:#232323;stop-opacity:0"/></linearGradient><path d="M86.7 106.3c6.2 1.1 10.6 5 12.5 7.2l-8.2 1.8q-3.7-3.1-8.3-4.7l-3-1.8 3.2-1.2c2.8-.5 2.6-1.5 3.8-1.3" style="fill:url(#f)"/><radialGradient id="g" cx="116.4" cy="96.5" r="27.3" gradientTransform="matrix(-1 0 0 .97 200.87 3.74)" gradientUnits="userSpaceOnUse"><stop offset=".4" style="stop-color:#f7d881"/><stop offset="1" style="stop-color:#9e9e9e"/></radialGradient><path d="M100.2 124.3h.3q.7 0 1.4-1.4c.8-2.8 1.8-10 0-20a38 38 0 0 0-10.3-21.6l-1.7 1c-.6-.6 7.7 7 10.1 20.8 1.7 9.5.8 16.3 0 19l-.5-.6C96.1 117.8 87 108 78.1 108v2c8 0 16.7 9.3 20 12.8l.6.8q.7.8 1.5.7" style="fill:url(#g)"/><ellipse cx="75.4" cy="97.4" rx="12.6" ry="2.4" style="fill:#424242"/><path d="M75.4 95.5c7 0 11 1.2 12 1.9-1 .7-5 1.9-12 1.9s-11.1-1.2-12-1.9c.9-.7 5-1.9 12-1.9m0-1c-7.3 0-13.2 1.3-13.2 2.9s6 3 13.2 3 13.1-1.4 13.1-3-5.8-3-13.1-3" style="fill:#ffe082"/><radialGradient id="h" cx="75.4" cy="96.6" r="6.3" gradientTransform="matrix(1 0 0 2.1 0 -106.3)" gradientUnits="userSpaceOnUse"><stop offset=".3" style="stop-color:#ff9100"/><stop offset=".7" style="stop-color:#ef6c00"/><stop offset="1" style="stop-color:#dd2c00"/></radialGradient><path d="M82.3 96c-.5-5.5-6.9-15.7-6.9-15.7S69 90.5 68.5 96c-.6 5.7 5 6.5 6.9 6.5s7.5-.7 6.9-6.5" style="fill:url(#h)"/><radialGradient id="i" cx="75.5" cy="97.4" r="4.9" gradientTransform="matrix(1 0 0 1.802 0 -78.16)" gradientUnits="userSpaceOnUse"><stop offset=".4" style="stop-color:#ffee58"/><stop offset=".8" style="stop-color:#ffb604"/><stop offset="1" style="stop-color:#ffb604;stop-opacity:0"/></radialGradient><path d="M79.7 96.8c-.4-4-4.3-9.6-4.3-9.6s-3.9 5.5-4.3 9.6c-.4 3.8 2.7 4.9 4.3 4.9s4.8-1 4.3-4.9" style="fill:url(#i)"/><radialGradient id="j" cx="75.4" cy="97.5" r="2.8" gradientTransform="matrix(1 0 0 1.772 0 -75.24)" gradientUnits="userSpaceOnUse"><stop offset=".4" style="stop-color:#fffde7"/><stop offset=".8" style="stop-color:#ffee58"/><stop offset="1" style="stop-color:#ffee58;stop-opacity:0"/></radialGradient><path d="M78.3 97.7c-.3-2.8-3-6.5-3-6.5s-2.5 3.7-2.8 6.5c-.3 2.5 1.8 3.1 2.9 3.1s3.1-.6 2.9-3.1" style="fill:url(#j)"/><radialGradient id="k" cx="74.9" cy="108.2" r="14.3" gradientTransform="matrix(1 0 0 .83 0 18.43)" gradientUnits="userSpaceOnUse"><stop offset=".1" style="stop-color:#424242"/><stop offset="1" style="stop-color:#616161"/></radialGradient><path d="M88.5 105.9c0 1.8-.6 4.5-13.1 4.5s-13.2-2.6-13.2-4.5v-8.5s2.3 2.5 12.9 2.5 13.4-2.5 13.4-2.5z" style="fill:url(#k)"/><path d="M87.4 97.4c-1 .7-5 1.9-12 1.9s-11.1-1.2-12-1.9h-1.1c0 1.6 5.8 3 13.1 3s13.1-1.4 13.1-3z" style="fill:#ffe082"/><radialGradient id="l" cx="75.1" cy="68.6" r="54.8" gradientTransform="matrix(1 0 0 .269 0 50.17)" gradientUnits="userSpaceOnUse"><stop offset=".2" style="stop-color:#424242"/><stop offset=".9" style="stop-color:#616161"/></radialGradient><path d="M102.8 77.4q0 1.8-1.8 2.6c-3.8 1.3-14.5 3.3-25.7 3.3s-22-2-25.7-3.3a3 3 0 0 1-1.9-2.6v-7.6h55z" style="fill:url(#l)"/><path d="M49.6 80a83 83 0 0 0 12.8 1.8 145 145 0 0 0 38.5-1.9v.1a96 96 0 0 1-38.6 3 71 71 0 0 1-12.8-3" style="fill:#ffe082"/><path d="M75.3 27.6C32 27.6 31.7 33.7 32 38l3 23.1c1.6 10.7 18.2 13.7 40.1 13.4 22 .3 38.5-2.7 40.2-13.4l3-23.1c.4-4.3 0-10.4-43.2-10.4" style="fill:#e64a19"/><linearGradient id="m" x1="63.5" x2="22.1" y1="50.9" y2="52.5" gradientUnits="userSpaceOnUse"><stop offset=".5" style="stop-color:#ffe082;stop-opacity:0"/><stop offset=".9" style="stop-color:#ffe082"/></linearGradient><path d="m32.1 38 3 23.1c1.2 8 11 11.7 25.2 13l-1-46.1q-3 0-5.8.3C32 30.1 31.8 34.6 32 38" style="fill:url(#m)"/><linearGradient id="n" x1="67.3" x2="25.9" y1="50.9" y2="52.5" gradientTransform="matrix(-1 0 0 1 154.28 0)" gradientUnits="userSpaceOnUse"><stop offset=".5" style="stop-color:#ffe082;stop-opacity:0"/><stop offset=".9" style="stop-color:#ffe082"/></linearGradient><path d="m118.4 38-3 23.1c-1.2 8-11 11.7-25.2 13l1-46.1q3 0 5.8.3c21.5 1.8 21.7 6.3 21.4 9.7" style="fill:url(#n)"/><ellipse cx="75.2" cy="36.4" rx="39.6" ry="6.2" style="fill:#424242"/><ellipse cx="75.2" cy="37.4" rx="39.1" ry="5.2" style="fill:#fff9c4"/><linearGradient id="o" x1="35.6" x2="33.5" y1="26.9" y2="29.9" gradientUnits="userSpaceOnUse"><stop offset=".3" style="stop-color:#bdbdbd"/><stop offset=".9" style="stop-color:#9e9e9e"/></linearGradient><path d="m12 14.3 39.2 27 6.2.6-43.6-30z" style="fill:url(#o)"/><linearGradient id="p" x1="90.3" x2="92.2" y1="32.3" y2="35" gradientUnits="userSpaceOnUse"><stop offset=".4" style="stop-color:#bdbdbd"/><stop offset="1" style="stop-color:#9e9e9e"/></linearGradient><path d="M106 23.7q-1-1.1-2.2-.4l-28 19.3 5.4-.1 24.3-16.8q1.1-.8.4-2" style="fill:url(#p)"/><path d="m104 22 15.8-11a2.5 2.5 0 0 1 2.9 4.2L106.9 26c-1.5 1-4.5-3-2.9-4" style="fill:#bf855e"/><linearGradient id="q" x1="80.2" x2="82.4" y1="30.6" y2="32.7" gradientUnits="userSpaceOnUse"><stop offset=".4" style="stop-color:#bdbdbd"/><stop offset="1" style="stop-color:#9e9e9e"/></linearGradient><path d="M92.4 19.8c-.6-.6-1.6-.5-2.1 0L69.2 42.6h4L92.5 22q.8-1-.1-2.1" style="fill:url(#q)"/><path d="m90.2 18.5 13-14c1-1 2.6-1 3.6-.1s1 2.5 0 3.5l-13 14c-1.1 1.3-5-2-3.6-3.4M27.3 26 11.5 15.1a2.5 2.5 0 0 1 2.9-4L30 21.8c1.8 1.2-1 5.2-2.7 4.2" style="fill:#bf855e"/></svg>