<svg xml:space="preserve" width="16" height="16" viewBox="0 0 128 128"><path d="M49.7 13c-.4-1-2-2-3.8-1-1.4 1-1.3 2.6-1 3.6L80 116c.3.5 1.6 1.5 3 1s2.3-2 2.1-2.7z" style="fill:#aeb0b0"/><path d="M81.7 115.5a1 1 0 0 1-1-.7l-35-100.4a1 1 0 1 1 1.9-.6l35 100.4a1 1 0 0 1-1 1.3" style="fill:#c8c8c8"/><path d="M81.6 15.2c.4-1 .5-2.7-1.6-3.5-2-.8-3.2.3-3.5 1L41.4 113.3c-.4 1 .1 3 1.7 3.5s3.2-.2 3.4-.8z" style="fill:#aeb0b0"/><path d="M43.7 114.4h-.4a1 1 0 0 1-.6-1.3l34.8-99.6q.4-.8 1.3-.6c.9.2.8.8.6 1.3l-34.8 99.6a1 1 0 0 1-1 .6" style="fill:#c8c8c8"/><path d="M68.5 52.5s6.8-.3 14.2 5.8c6.2 5.1 12.1 10.3 16.8 12 4.7 1.8 8.3 1.9 9 1.3.8-.5 1-2.7 1-3s-26.9-22-26.9-22l-13 2.9zM58 53s-7.6-.4-14.1 2.2c-7.9 3.2-11.1 8.1-17 11.7a22 22 0 0 1-11 3.4c-.7-.1-1.2-1-1.3-1.6C14.3 67.2 39 49.4 39 49.4l17.6-.2z" style="fill:#9a9a9a"/><path d="m69.5 49.8 12.2-35s7.8-1.8 17.5 4.7c6.8 4.7 8.7 8.1 13.6 10.8 5.4 3 11 3 11.7 4 .5.7-3 6.7-6.9 15.6-3.7 8.6-8.3 20.5-8.3 20.5s-4.9-.1-9.4-2.3c-9.5-4.7-14.2-11.8-21-15.4-6-3.2-9.4-2.9-9.4-2.9m-12.4.6-12.2-35s-5.5-2.1-13.5.7-11.3 7.5-17 10.1-11 3.4-11.1 4.3 1 3.8 2.5 8 3.9 15 5 19.6c1.5 6 3.8 10.6 3.8 10.6s5.5-.2 10.1-3.1 11-9.9 17.2-12.3c8-3.2 15.2-2.9 15.2-2.9" style="fill:#dadada"/><path d="M7.5 32.2c-.2.3 3.8 11.8 4.8 16.6 2 9.7 4.5 16.6 4.5 16.6s4.9-1 8.4-3.6c4.3-3.3 10.4-8.8 16-11.3 7-3 12.9-3 12.9-3l-10.5-30s-6-1.7-12.3 1.7-9.6 6.6-14.4 9c-5.3 2.5-9.3 3.7-9.4 4M83 17.8c-.2.3-10.5 29.3-10.5 29.7.1.4 6.5.8 12.3 5.6 5.6 4.7 10.6 10 14.7 11.8 4 2 7.2 2.1 7.2 2.1s4.6-9.7 6.8-15.3c2.5-6.6 6.9-15.2 7-15.6 0-.3-6.9-1.4-11-4.5-4.7-3.4-6.1-6.9-14.2-11.1-8.5-4.5-12.4-2.7-12.4-2.7" style="fill:#fefefe"/><path d="M102 31.2c-5.6-3.5-13.3-2-15.7 4.3s.2 12.3 5.9 15.5c5.7 3.3 14.5.7 15.5-7.1.6-5.2-.9-9.5-5.8-12.7m-76-2.2c-8.2 3.7-7 12.2-5.4 15.7 2 4 6.7 7.8 15 4.5 8.6-3.3 8.1-11.2 6.1-15.1-2.3-4.7-7.6-8.7-15.7-5" style="fill:#db0d27"/></svg>