<svg xml:space="preserve" width="16" height="16" viewBox="0 0 128 128"><path d="M44.6 93.8s2.6 7.2 1.1 9.8c-1.5 2.5-7.7 2-9.6 3.2-1.4.9-1.4 3.2-.5 4.2s13 .2 15.5-4.5-.9-13.5-.9-13.5zm19.5-.8L59 94s2.3 9.4.4 12.5-8.4 6.5-9.5 9c-1 2.4 1.5 4.3 5.6 1.8s8.7-6.4 9.6-8.2C67 104.7 64 93 64 93" style="fill:#f97d23"/><path d="M28.5 21.9c-11 2.5-19.7 11.8-16.4 26 1.9 8.5 3 11.4 3.8 15.2 1.4 8 1 11.5 4.4 18.9 3.6 7.8 16.8 17.8 33.3 15.4s23-4.7 23-4.7l6-5.2 5.6-1.4.8-4.1s4.3-.2 5.1-1.5q2-3.4-1.8-4.8l-3.8-1.6c-.1 0 23.2-15.3 26-17s7.2-4.6 7.4-5.6c.5-2.7-6.7-8.6-16.1-11.4s-17.5-3.6-18.9-2.6c-1.7 1.4-9.5 16-14.7 15.4-6.8-1-11.4-7.3-12.7-10.9-1.5-4-10.1-24.8-31-20.1" style="fill:#4d4d4d"/><path d="M14.3 43.9c-1.7-.3-6 4.3-6.8 5.4s-2.2 2.7-1.7 4c.7 1.8 4.6 2 6.8 2.1 2.4.2 6.9.6 7.6-.8.8-1.5-.8-5-2.1-7.2-1.3-2-2-3.2-3.8-3.5" style="fill:#f97d23"/><ellipse cx="32.2" cy="43.6" rx="4" ry="4.4" transform="rotate(-6.9 32.2 43.62)"/><path d="M45.4 73.7c-2 .7.6 7.6 3.2 10.7A30 30 0 0 0 68.5 96c7 .7 10-1.3 11.6-3 1.3-1.4 2.6-3 3.5-3.6 1.3-1 2.6-.2 4.8-1.8 1.7-1.2 2-3.1 2.9-3.8s2.2-.6 3-1.3c1.3-1.2 1.1-4.8.2-5s-1 2.6-2 3-2.2.1-4 1.1c-1.5.8-1 2.5-2 3.3s-3-.3-5.5 1.1c-1.3.8-2.5 4.4-6.4 5.3-5 1-12.3-2.6-15.8-5.1-8.2-6-10-13.6-13.3-12.4"/></svg>