<svg xml:space="preserve" width="16" height="16" viewBox="0 0 128 128"><linearGradient id="a" x1="181.2" x2="210.3" y1="182.7" y2="197.9" gradientTransform="rotate(192 137.19 138.74)" gradientUnits="userSpaceOnUse"><stop offset="0" style="stop-color:#80ffee"/><stop offset=".2" style="stop-color:#85fced"/><stop offset=".3" style="stop-color:#93f1e8"/><stop offset=".5" style="stop-color:#abe1e1"/><stop offset=".7" style="stop-color:#ccc9d8"/><stop offset="1" style="stop-color:#f7accb"/><stop offset="1" style="stop-color:#ffa6c9"/></linearGradient><path d="M103.6 85.2C92.6 96.4 56.1 66.8 64 60.6c9.5-7.5 54.8 9.3 39.7 24.6" style="fill:url(#a)"/><path d="M102.7 82.2a60 60 0 0 0-30.2-22.1q-.5-.1-.6-.6c0-.5.7-.3.5 0m20.4 25.2c-2.4-1-20-17.8-27.1-25.5l.4.3m29.2 21.4c-1.8-6.3-4.3-9-6.4-12.5" style="fill:none;stroke:#87cdde;stroke-width:.9563;stroke-linecap:round;stroke-linejoin:round;stroke-miterlimit:10"/><linearGradient id="b" x1="195.2" x2="238.8" y1="252.5" y2="211.4" gradientTransform="rotate(194.3 141.16 147.88)" gradientUnits="userSpaceOnUse"><stop offset="0" style="stop-color:#80ffee"/><stop offset=".2" style="stop-color:#85fced"/><stop offset=".3" style="stop-color:#93f1e8"/><stop offset=".5" style="stop-color:#abe1e1"/><stop offset=".7" style="stop-color:#ccc9d8"/><stop offset="1" style="stop-color:#f7accb"/><stop offset="1" style="stop-color:#ffa6c9"/></linearGradient><path d="M118.5 35.5c6.7 19.8-56 37.5-58.5 26.1-3.6-15.6 50.3-50.5 58.5-26" style="fill:url(#b)"/><path d="M110.5 31.6c-18.3 7-32.7 17.4-46.3 31.1m51.6-25.2A137 137 0 0 1 65 63.8M97.4 31a48 48 0 0 0-10 12.4m26.3-10.1c-4.7 4-8.3 7.5-10.2 13.3m-12.1 6.8c-6 1.2-10.3 1.3-15.6-.6" style="fill:none;stroke:#87cdde;stroke-width:.9563;stroke-linecap:round;stroke-linejoin:round;stroke-miterlimit:10"/><linearGradient id="c" x1="1662.6" x2="1691.8" y1="-134.2" y2="-119" gradientTransform="rotate(168 -830.7 65.38)scale(-1 1)" gradientUnits="userSpaceOnUse"><stop offset="0" style="stop-color:#80ffee"/><stop offset=".2" style="stop-color:#85fced"/><stop offset=".3" style="stop-color:#93f1e8"/><stop offset=".5" style="stop-color:#abe1e1"/><stop offset=".7" style="stop-color:#ccc9d8"/><stop offset="1" style="stop-color:#f7accb"/><stop offset="1" style="stop-color:#ffa6c9"/></linearGradient><path d="M24.4 85.2c11 11.2 47.5-18.4 39.7-24.6-9.5-7.5-54.8 9.3-39.7 24.6" style="fill:url(#c)"/><path d="M25.4 80.4a82 82 0 0 1 30.1-20.3q.5-.1.6-.6c0-.5-.7-.3-.5 0M39.5 80.9a220 220 0 0 0 22.8-21.7l-.5.3m-30.3 22c1-3.7 10.6-12.4 12.6-15.7" style="fill:none;stroke:#87cdde;stroke-width:.9563;stroke-linecap:round;stroke-linejoin:round;stroke-miterlimit:10"/><linearGradient id="d" x1="1664" x2="1707.6" y1="-119" y2="-160" gradientTransform="rotate(165.7 -834.67 61.03)scale(-1 1)" gradientUnits="userSpaceOnUse"><stop offset="0" style="stop-color:#80ffee"/><stop offset=".2" style="stop-color:#85fced"/><stop offset=".3" style="stop-color:#93f1e8"/><stop offset=".5" style="stop-color:#abe1e1"/><stop offset=".7" style="stop-color:#ccc9d8"/><stop offset="1" style="stop-color:#f7accb"/><stop offset="1" style="stop-color:#ffa6c9"/></linearGradient><path d="M9.5 33.3C2.8 53.1 65.5 70.8 68 59.4 71.6 43.8 17.7 8.8 9.5 33.3" style="fill:url(#d)"/><path d="M17.3 29.4c18.2 6.9 33 17.4 46.5 31M13.1 39.1c15.4 12.5 30.6 17 50 22.5M29.4 29.5c4.2 2.8 6 5 7.8 9.6m-20.4-5.3a29 29 0 0 1 9.2 14m5-5.1c7.3 3.4 16.1 9.7 21.2 9.8" style="fill:none;stroke:#87cdde;stroke-width:.9563;stroke-linecap:round;stroke-linejoin:round;stroke-miterlimit:10"/><linearGradient id="e" x1="46.5" x2="57.6" y1="34.2" y2="34.2" gradientTransform="rotate(185.5 1.62 62.52)scale(-1 1)" gradientUnits="userSpaceOnUse"><stop offset="0" style="stop-color:#5c4037"/><stop offset=".6" style="stop-color:#70534a"/></linearGradient><path d="M50.6 88.8a4 4 0 0 0-3.5 3.3q0 1.3.4 2.4l2 6.3c.4 1.2 1 2.5 2.2 2.7q1.3.3 2.2-.7c.9-1 .9-1.3 1.2-2 1.4-3.5 3.1-5 3.2-8.7 0-4.7-4.2-4-7.7-3.3" style="fill:url(#e)"/><linearGradient id="f" x1="62.5" x2="70.5" y1="38.6" y2="37.8" gradientTransform="matrix(1 0 0 -1 0 130)" gradientUnits="userSpaceOnUse"><stop offset="0" style="stop-color:#5c4037"/><stop offset=".6" style="stop-color:#70534a;stop-opacity:0"/></linearGradient><path d="m68.6 85.8-10.3 3.5 1.4 8s7.5-.6 11.8-1.5-2.9-10-2.9-10" style="fill:url(#f)"/><linearGradient id="g" x1="68.9" x2="67.6" y1="64.9" y2="35.8" gradientTransform="matrix(1 0 0 -1 0 130)" gradientUnits="userSpaceOnUse"><stop offset="0" style="stop-color:#5c4037"/><stop offset=".6" style="stop-color:#70534a"/></linearGradient><path d="m55.6 90.2 13-4.4c0-.4-4-11.3-4-11.3l8.2-14.6a189 189 0 0 1 8.8 26.7c.7 3-.5 7-5 8.1-5 1.3-9.8 2-16.2 2.6s-8.6-5.4-4.8-7" style="fill:url(#g)"/><linearGradient id="h" x1="59.6" x2="48.6" y1="61.9" y2="9.6" gradientTransform="matrix(1 0 0 -1 0 130)" gradientUnits="userSpaceOnUse"><stop offset="0" style="stop-color:#5c4037"/><stop offset=".6" style="stop-color:#70534a"/></linearGradient><path d="M65.5 74.4a112 112 0 0 0-2.2-14l-.4-.2L52 69l-1.5 24.5-3.3 15.9c-1.5.2-3.1.8-3.7 2.2q-.5 1.3-.3 2.5l.4 6.6c0 1.2.3 2.6 1.4 3.1q1.1.6 2.3-.1 1-.6 1.7-1.7c1.4-2 3.6-6.3 3.6-6.3s6.2-11.5 8.5-19.4c3.1-10.8 4.3-22 4.5-22" style="fill:url(#h)"/><linearGradient id="i" x1="51.3" x2="19.4" y1="70.1" y2="70.1" gradientTransform="matrix(1 0 0 -1 0 130)" gradientUnits="userSpaceOnUse"><stop offset="0" style="stop-color:#5c4037"/><stop offset=".6" style="stop-color:#70534a"/></linearGradient><path d="M30 75c-2.8-.6-5-1.6-6.5-2.1s-1.6-3.3 1.6-2.4c1.8.5 1-.7-.4-1.5-1.5-.8-5.2 1.1-6.1.3q-.8-1-.2-1.7c1.2-1 4-2 6.3-2 2.2.2 5.6 3.4 7.7 2.8L40 55l5.8-10.5 10.9 4.7S38.2 71 37.2 71.9C35 74 33 76 30 75.1" style="fill:url(#i)"/><linearGradient id="j" x1="76.7" x2="102.6" y1="74.6" y2="74.6" gradientTransform="matrix(1 0 0 -1 0 130)" gradientUnits="userSpaceOnUse"><stop offset="0" style="stop-color:#5c4037"/><stop offset=".6" style="stop-color:#70534a"/></linearGradient><path d="m104.3 49.2-.2-.3a3 3 0 0 0-2.8-.4c-1.3.4-5.7 3.4-6.7 4l-5 3-6-9.7-9.2 4.8 10.7 12.5a4 4 0 0 0 5.4 1.4l.2-.1.7-.5c3.1-2.4 9.6-7.9 10.6-8.8 1.5-1.5 4.3-3.8 2.3-6" style="fill:url(#j)"/><linearGradient id="k" x1="107.3" x2="99.7" y1="82.7" y2="77.7" gradientTransform="matrix(1 0 0 -1 0 130)" gradientUnits="userSpaceOnUse"><stop offset="0" style="stop-color:#5c4037"/><stop offset=".6" style="stop-color:#70534a"/></linearGradient><path d="M106.4 53.6c-1.7 1.4-5.4 1-7-1.5-2.8-4.7 2.7-7.7 4.9-7.5 2.2.1 5.7 6.2 2 9" style="fill:url(#k)"/><linearGradient id="l" x1="98.8" x2="102.1" y1="78" y2="76.8" gradientTransform="rotate(171.1 1.08 73.16)scale(-1 1)" gradientUnits="userSpaceOnUse"><stop offset=".4" style="stop-color:#70534a;stop-opacity:0"/><stop offset="1" style="stop-color:#5c4037"/></linearGradient><path d="m103.6 47.9 1 1.2-1 5.5-1.2.1-4.7 4 1-8.5 1.7-.3c2-.2 3.2-2 3.2-2" style="fill:url(#l)"/><path d="M110.5 21.3h-.1l-9.2 41a.5.5 0 1 0 1 .1z" style="fill:#6d4c41;stroke:#6d4c41;stroke-miterlimit:10"/><path d="m111.4 14.7-2.5 3.4h-4.2l2.5 3.4-1.5 4 4-1.4 3.5 2.6v-4.2l3.5-2.4-4.1-1.3z" style="fill:#ffd600"/><path d="m104.6 50.7.5-.2-.8 3.9h-1.8l.9-4.1q.5.5 1.1.4" style="fill:#6d4c41"/><linearGradient id="m" x1="64" x2="64" y1="100.9" y2="53.2" gradientTransform="matrix(1 0 0 -1 0 130)" gradientUnits="userSpaceOnUse"><stop offset="0" style="stop-color:#ffab00"/><stop offset=".2" style="stop-color:#ff8d00"/><stop offset=".4" style="stop-color:#ff6a00"/><stop offset=".6" style="stop-color:#ff5100"/><stop offset=".8" style="stop-color:#ff4200"/><stop offset="1" style="stop-color:#ff3d00"/></linearGradient><path d="m76.3 53.5.2 15.8-8.5 6.6q-1.2.6-2.6.6t-2.6-.5l-11-6.5V53.7l-7.7-7s1-4 8.4-6.3q4-1.2 10.9-1.4 7.6 0 12 1.5c7 2.2 8.5 5.9 8.5 5.9z" style="fill:url(#m)"/><radialGradient id="n" cx="63.9" cy="112.3" r="14.1" gradientTransform="matrix(1 0 0 -1 0 130)" gradientUnits="userSpaceOnUse"><stop offset="0" style="stop-color:#ff8f00"/><stop offset="1" style="stop-color:#d32f2f"/></radialGradient><path d="M77.5 31.6q-.7-1 1.1-3c1.6-1.7 3.6-6 1.6-10.4h-.4l-.4-.8H48.5l-.3.8h-.7c-1.7 4.3.1 8.6 1.8 10.4q1.7 1.7 1.2 3-.4.8-1 .9l-.9.1.5.8.6.6q1.2.7 2.2.6l.3.3c2 2.2 3.5 3 8.3 3.1h6.9c4.8-.1 6.3-.9 8.3-3.1l.3-.3q1 0 2.2-.6.4-.2.7-.6l.4-.8-.8-.1q-.7-.1-1-1" style="fill:url(#n)"/><linearGradient id="o" x1="63.9" x2="63.9" y1="39.4" y2="48.3" gradientUnits="userSpaceOnUse"><stop offset="0" style="stop-color:#5c4037"/><stop offset=".6" style="stop-color:#70534a"/></linearGradient><path d="M68.2 39.2v-4.6h-8.7v4.6q-4.2.4-7 1.2c.9 3.4 5 7 11.5 7s10.4-3.6 11.4-6.9q-3-.9-7.2-1.3" style="fill:url(#o)"/><path d="M74.1 21.5h-2.7L56.8 21H54c-2.1-.1-4 1.7-4 4s1.7 4.3 3.9 4.3h2.7l14.6.4H74c2.1.1 4-1.8 4-4 0-2.4-1.7-4.3-3.9-4.3" style="fill:#3c2b24"/><path d="M64.4 6.8c-6.4-.1-12.5 6.6-12.7 16.4s5.8 14.8 12 14.9 12.4-4.6 12.6-14.4c.3-9.8-5.5-16.8-12-16.9" style="fill:#70534a"/><path d="M67.8 21.3q.4-.9 2.5-1a3 3 0 0 1 2.5 1.1v.6h-.7l-1.8-.4q-1.4.1-2 .4-.4 0-.6-.2zM55.6 21q.3-.9 2.5-1c1.4 0 2.2.7 2.5 1v.6q-.2.3-.7.2-.5-.4-1.8-.5-1.5.1-2 .4-.4 0-.6-.2z" style="fill:#1a1717"/><ellipse cx="58" cy="24.2" rx="1.9" ry="1.8" style="fill:#1a1717" transform="rotate(-88.8 57.98 24.21)"/><ellipse cx="70" cy="24.5" rx="1.9" ry="1.8" style="fill:#1a1717" transform="rotate(-88.8 70.05 24.46)"/><path d="M65.4 27.8h-.2l-2.6-.1q-.5.2-.3.6c0 .3.6 1 1.6 1s1.6-.7 1.7-1q.1-.3-.2-.5" style="fill:#33251f"/><path d="M67.1 30.8c-1.1.6-5 .6-6.1-.2-.7-.4-1.4.2-1.1.8s2.3 2 4 2.1c1.9 0 4-1.3 4.3-1.9s-.4-1.2-1-.8" style="fill:#1a1717"/><radialGradient id="p" cx="66" cy="126" r="18.6" gradientTransform="matrix(1 0 0 -1 0 130)" gradientUnits="userSpaceOnUse"><stop offset="0" style="stop-color:#ff8f00"/><stop offset="1" style="stop-color:#d32f2f"/></radialGradient><path d="M79.2 12.1c-2.3-4-5.2-3.4-5.4-3.4.1-2-2.5-4.2-4.1-4.8q-1.5-.6-2.9-.5c-3.3 0-5.9 2-7 2.4q-1.4.6-2.4.5c-2.3 0-2.5-1.9-2.5-1.9a3.3 3.3 0 0 0-1.2 4.3s-2.3-.7-4 1.1-.7 4.9-.7 4.9-2 .5-1.7 3.8c0 2.1 3.6 3.9 3.6 3.9s.3 2 1.2 4.7c.5-2.8 1.6-6.7 1.6-6.7s2.8-.7 6-2.7l1.8-1.3q2-1.6 4.5-2.4l1.5-.2a4 4 0 0 1 3.6 2.2h.1c1 0 3.7.5 4.6 5.2.3 1.5.5 4 .3 6.3 3.2-2.6 3.8-7.7 3.8-7.7a12 12 0 0 0-.7-7.7" style="fill:url(#p)"/><linearGradient id="q" x1="104.4" x2="108.7" y1="77.3" y2="77.3" gradientTransform="matrix(1 0 0 -1 0 130)" gradientUnits="userSpaceOnUse"><stop offset="0" style="stop-color:#5c4037"/><stop offset=".6" style="stop-color:#70534a"/></linearGradient><path d="M104 52.2q-.1 1 1 1.5l1.6.4q1.2.1 1.5-1 .2-1-.9-1.4l-1.7-.4q-1-.2-1.5.9" style="fill:url(#q)"/><linearGradient id="r" x1="104.4" x2="108.7" y1="79.5" y2="79.5" gradientTransform="matrix(1 0 0 -1 0 130)" gradientUnits="userSpaceOnUse"><stop offset="0" style="stop-color:#5c4037"/><stop offset=".6" style="stop-color:#70534a"/></linearGradient><path d="M104.1 50.3q0 1.1 1.2 1.4l2.2.2q1.1 0 1.4-1.1 0-1.1-1.2-1.4l-2.2-.2q-1.1 0-1.4 1.1" style="fill:url(#r)"/><linearGradient id="s" x1="104.4" x2="108.7" y1="81.8" y2="81.8" gradientTransform="matrix(1 0 0 -1 0 130)" gradientUnits="userSpaceOnUse"><stop offset="0" style="stop-color:#5c4037"/><stop offset=".6" style="stop-color:#70534a"/></linearGradient><path d="M104 48.2s.5 1.3 1.2 1.3h2.5q1.1-.1 1.2-1.3t-1.2-1.3h-2.5q-1.1.1-1.2 1.3" style="fill:url(#s)"/><linearGradient id="t" x1="104.4" x2="108.7" y1="83.8" y2="83.8" gradientTransform="matrix(1 0 0 -1 0 130)" gradientUnits="userSpaceOnUse"><stop offset="0" style="stop-color:#5c4037"/><stop offset=".6" style="stop-color:#70534a"/></linearGradient><path d="M103.5 46.8q.3 1 1.4 1l2.7-.7.3-.1q.8-.5.6-1.4-.3-1-1.4-.9l-2.7.6q-1 .4-1 1.5" style="fill:url(#t)"/><path d="m107.7 51.9-1.5-.6-1.6.1q.8.5 1.5.6zm.1-2.4q-.7-.4-1.4-.4t-1.5.4q.7.4 1.5.3.8 0 1.4-.3m-3-1.7q.9.1 1.6-.1.7-.1 1.5-.7h-1.6q-.8.3-1.5.8" style="fill:#4a2f27"/><linearGradient id="u" x1="106.2" x2="100.4" y1="83.8" y2="80.5" gradientTransform="matrix(1 0 0 -1 0 130)" gradientUnits="userSpaceOnUse"><stop offset="0" style="stop-color:#5c4037"/><stop offset=".6" style="stop-color:#70534a"/></linearGradient><path d="M107 48c.5.8-.5 1.6-1 1.7q-.9 0-1.3-.9-.7-1.4-1.2-1.5c-.4-.2 0 2-2.2 2.4-1.3.3-2.3-.6-2.3-1.5 0-1.2 2-3.1 4.7-3.6 2.5.2 3 3 3.3 3.5" style="fill:url(#u)"/><path d="M100.4 50c1.4.1 2.9-1 3.3-2.4v-.2l-.1.1-.2-.1.2.5.5.9c.3.5.9 1.3 1.8 1.4s1.7-.7 1.6-1.7q-.3-1-.9-2c-.8-1-1.3-2-2.9-1.9q1.9.3 2.6 2.2l.6 1.8q0 .9-1 1l-.7-.4-.5-.8-.5-.8-.2-.5-.4-.2q-.3 0-.4.2v.3q-.4 1-1 1.6l-.8.5z" style="fill:#4a2f27"/></svg>