<svg xml:space="preserve" width="16" height="16" viewBox="0 0 128 128"><radialGradient id="a" cx="63.6" cy="1104.9" r="57" gradientTransform="translate(0 -1042)" gradientUnits="userSpaceOnUse"><stop offset=".5" style="stop-color:#fde030"/><stop offset=".9" style="stop-color:#f7c02b"/><stop offset="1" style="stop-color:#f4a223"/></radialGradient><path d="M63.6 118.8c-27.9 0-58-17.5-58-55.9S35.7 7 63.6 7c15.5 0 29.8 5.1 40.4 14.4 11.5 10.2 17.6 24.6 17.6 41.5s-6.1 31.2-17.6 41.4a61 61 0 0 1-40.4 14.5" style="fill:url(#a)"/><path d="M111.5 29.7a57 57 0 0 1 8.1 30.2c0 16.9-6.1 31.2-17.6 41.4a61 61 0 0 1-40.4 14.5 59 59 0 0 1-48.2-23 58 58 0 0 0 50.2 26c15.4 0 29.8-5.2 40.4-14.5a54 54 0 0 0 17.6-41.4q-.1-19.2-10.1-33.2" style="fill:#eb8f00"/><path d="M63.9 82c-10.5 0-18 6.3-20.2 9.8a4 4 0 0 0-.5 3.9q.7 1.2 2.2 1.3l1-.2c5.3-1.6 9.9-4.1 17.5-4.1s12.2 2.5 17.5 4.1q.4.3 1 .2 1.4 0 2.2-1.3a4 4 0 0 0-.5-4A25 25 0 0 0 64 82M48.2 55.8a32 32 0 0 0-18.4.7 2 2 0 0 0 1.3 3.9q3.5-.7 7.2-.4v.4c0 4.9 3.2 7.8 6.7 7.8q2.7 0 4.7-2a7 7 0 0 0 1-8.2q-.8-1.5-2.5-2.2m47.8 0a32 32 0 0 0-18.4.7 2 2 0 1 0 1.4 3.9q3.6-.7 7.2-.4v.4c0 4.9 3.2 7.8 6.7 7.8q2.8 0 4.7-2a7 7 0 0 0 1-8.2q-.9-1.5-2.6-2.2M87.7 44a1.8 1.8 0 0 1 0-3.7q2.9-.2 5.7.4c5.2 1 9.8 4 12.9 8.3 1.4 2-1.3 3.8-3 2.3A26 26 0 0 0 87.8 44m-49.9 0a1.8 1.8 0 0 0 0-3.7q-2.9-.2-5.8.4A21 21 0 0 0 19.3 49c-1.4 2 1.3 3.8 3 2.3A24 24 0 0 1 37.8 44" style="fill:#422b0d"/><path d="M45 59.2a3 3 0 0 1 3.9 1.3c.5 1.1.3 2.5-.6 3.3-1.4.7-3.1.1-3.8-1.3-.6-1.1-.3-2.5.6-3.3m47.9 0a3 3 0 0 1 3.9 1.3q.7 2-.6 3.3c-1.5.7-3.2 0-3.8-1.3-.6-1.1-.3-2.5.6-3.3" style="fill:#896024"/></svg>