<svg xml:space="preserve" width="16" height="16" viewBox="0 0 128 128"><linearGradient id="a" x1="132.5" x2="19" y1="67.4" y2="22.5" gradientTransform="matrix(1 0 0 -1 0 128)" gradientUnits="userSpaceOnUse"><stop offset="0" style="stop-color:#0288d1"/><stop offset="1" style="stop-color:#29b6f6"/></linearGradient><path d="M67.5 56.2A308 308 0 0 1 4 82.8V124h120V4a197 197 0 0 1-56.5 52.2" style="fill:url(#a)"/><linearGradient id="b" x1="22.6" x2="121" y1="6.9" y2="75.7" gradientTransform="matrix(1 0 0 -1 0 128)" gradientUnits="userSpaceOnUse"><stop offset="0" style="stop-color:#1c3aa9;stop-opacity:0"/><stop offset=".3" style="stop-color:#1c3aa9;stop-opacity:.9998"/><stop offset=".7" style="stop-color:#1c3aa9;stop-opacity:.9998"/><stop offset=".8" style="stop-color:#1c3aa9;stop-opacity:.9998"/><stop offset="1" style="stop-color:#1c3aa9;stop-opacity:0"/></linearGradient><path d="M117.9 66.8c2.2-2.5 2.3-4.6 1.5-5-.4-.3-1.9-1-3.8-.4-3 1-7.8 3-7.8 3s3.6-5.7 6-11c2.3-5-2-5.9-9.4 1.2l-7.7 7.6s2.7-5.5 3-7.2c.3-1.4-.6-2.3-2.5-1C93 57.3 83 69 81.7 68.7c-1.2-.3.4-5.3-1.4-5-1.7.1-3.4 3.2-4.2 4.4-1.3 2-2.2 3-4.2 4.2q-1.5.7-3.1 1c-3.7.4-5-1.6-7-.9-3.2 1.3-2.4 4.8-4.9 4.6-.5-.1-1.6-.4-2.2-.4-2.5 0-8 6.3-12.7 11.7-18.2 11.3-25.3 22-21 28 5.5 8.1 23.1 3.5 39.1-6.1 5.7-3.4 11.9-8 17.7-12.9l8.9-2.8c5.8-1.9 3.7-2.7 4.8-3.8 2.4-2.2 8 .7 9.7-3.3.4-1-1.3-1.2-.5-2.2.8-1.2 6-2.4 8.2-3.1 10.2-3.3 8.6-6.1 4.3-6.4l-5.9.3s7.2-5.3 10.6-9.2" style="opacity:.65;fill:url(#b)"/><linearGradient id="c" x1="111.5" x2="121.8" y1="76.2" y2="76.2" gradientTransform="matrix(1 0 0 -1 0 128)" gradientUnits="userSpaceOnUse"><stop offset="0" style="stop-color:#1c3aa9"/><stop offset=".9" style="stop-color:#1c3aa9;stop-opacity:.0889"/><stop offset="1" style="stop-color:#1c3aa9;stop-opacity:0"/></linearGradient><path d="M111.5 56.2s4.2-9 8.1-8.7c7.8.8-8.1 8.6-8.1 8.6" style="opacity:.65;fill:url(#c)"/><linearGradient id="d" x1="103.4" x2="118.3" y1="42.5" y2="42.5" gradientTransform="matrix(1 0 0 -1 0 128)" gradientUnits="userSpaceOnUse"><stop offset="0" style="stop-color:#1c3aa9"/><stop offset=".9" style="stop-color:#1c3aa9;stop-opacity:.0889"/><stop offset="1" style="stop-color:#1c3aa9;stop-opacity:0"/></linearGradient><path d="M103.4 85s10.4-2.3 13.4-1c3 1.1 1.2 3.5-3.3 3.4s-10-2.4-10-2.4" style="opacity:.65;fill:url(#d)"/><linearGradient id="e" x1="76.5" x2="112.7" y1="90.7" y2="120" gradientTransform="rotate(178.6 -.5 87.3)scale(-1 1)" gradientUnits="userSpaceOnUse"><stop offset="0" style="stop-color:#e3f2fd"/><stop offset="1" style="stop-color:#90caf9"/></linearGradient><path d="M34 95.1s14-18.6 17.6-18.7l2.5.4c2.4.2 2.6-3.7 5.8-5 1.8-.9 2.2 1.4 5.9.9q1.5-.2 3.1-1.1a11 11 0 0 0 4-4.3c.8-1.2 2.4-4.4 4.1-4.7 1.8-.2.3 4.8 1.5 5 1.3.4 10.8-11.7 15-15 1.9-1.4 2.9-.5 2.6.8a57 57 0 0 1-2.8 7.4l7.5-7.9c7-7.3 11.4-6.6 9.3-1.5-2.2 5.3-5.6 11.3-5.6 11.3s4.7-2.3 7.7-3.4c1.9-.7 3.4 0 3.8.2.8.5.8 2.5-1.3 5-3.4 4-10.3 9.6-10.3 9.6s4.6-.6 5.8-.5c4.4.1 6 2.8-4 6.5-2.2.8-7.3 2.2-8.2 3.4-.7 1 1 1.2.6 2.1-1.6 4.1-7.2 1.4-9.5 3.7-1.1 1.1 1 1.9-4.7 4-6.9 2.4-13.9 4.7-20.3 8z" style="fill:url(#e)"/><path d="M111.8 55.4s3-9.5 6.9-9.7c7.8-.4-6.9 9.7-6.9 9.7M103.5 85s10-3.7 13.2-3 1.6 3.5-2.9 4-10.3-1-10.3-1" style="fill:#e3f2fd"/><linearGradient id="f" x1="36.4" x2="102.2" y1="169.5" y2="196.2" gradientTransform="rotate(-4.5 3553.06 62.1)scale(1 -1)" gradientUnits="userSpaceOnUse"><stop offset="0" style="stop-color:#fff176"/><stop offset="1" style="stop-color:#ffeb3b"/></linearGradient><path d="M17.6 113.2c5.2 8.3 23.3 4.2 40-5A214 214 0 0 0 100.3 75c2.7-3.8 3.2-7.7 2.2-8.9-1.4-1.8-6.9-2.7-12.4-1a460 460 0 0 0-45.3 18.1c-22.3 11.6-31.5 23.2-27.2 30" style="fill:url(#f)"/><linearGradient id="g" x1="54.8" x2="19.5" y1="77.4" y2="61.4" gradientTransform="rotate(178.6 -.5 87.3)scale(-1 1)" gradientUnits="userSpaceOnUse"><stop offset="0" style="stop-color:#00bfa5"/><stop offset=".5" style="stop-color:#65eeae"/><stop offset="1" style="stop-color:#b9f6ca"/></linearGradient><path d="M103 68.3q0-1.5-.4-2.2-1.2-1.2-4-1.7a4545 4545 0 0 1-77.7 37.5q-2.1.7-3.2 3.2c-1.4 3.3-1.7 5.6-.1 8 2 3.2 6.3 5 12.3 4.5 0 0 .4-1.3 1.6-2z" style="fill:url(#g)"/><linearGradient id="h" x1="94.8" x2="30.8" y1="105.5" y2="68.2" gradientTransform="rotate(178.6 -.5 87.3)scale(-1 1)" gradientUnits="userSpaceOnUse"><stop offset="0" style="stop-color:#b9f6ca"/><stop offset="1" style="stop-color:#fffde7"/></linearGradient><path d="M100.5 64.9 19.2 107c-1.2.6-2.7 2.2-2.7 2.2s-.2 2 1 3.9a9 9 0 0 0 4 3.3s.8-1.5 1.5-2L102.6 66q-.7-.8-2.1-1.2" style="fill:url(#h)"/><linearGradient id="i" x1="-1.1" x2="55.3" y1="598.4" y2="620" gradientTransform="matrix(.952 -.235 -.083 -.814 95.16 586.6)" gradientUnits="userSpaceOnUse"><stop offset="0" style="stop-color:#1c3aa9;stop-opacity:.1"/><stop offset="1" style="stop-color:#1c3aa9"/></linearGradient><path d="M85.6 76.2c-2-3.7-13-1.6-24.3 4.7s-19 14.5-16.9 18.2c2 3.7 13 1.6 24.4-4.7s18.9-14.5 16.8-18.2" style="opacity:.53;fill:url(#i)"/><linearGradient id="j" x1="267.2" x2="270.3" y1="855.2" y2="863.9" gradientTransform="rotate(-26.5 2187.03 75.95)scale(1 -1)" gradientUnits="userSpaceOnUse"><stop offset=".6" style="stop-color:#e0bb95"/><stop offset="1" style="stop-color:#cca47a"/></linearGradient><path d="M50 87.7c-.2.7-1.5 2.1-1.4 4.2.2 2.4.4 7.2.6 7.6q.5 1 1.1.7c.6-.2.4-1.3.4-1.3s0 1.5.9 1.3c1-.3.4-1.6.4-1.7 0 .2.6 1.8 1.1 1.7 1-.3.5-2 .5-2s.2 2.1 1.2 1.8c1.2-.4.6-2 .6-2l.7 1.8c.5.7 1.8 0 1.8-.8 0-.6-.8-1.8-1.1-3-.8-3.2-1.4-5.3-1-6.7" style="fill:url(#j)"/><linearGradient id="k" x1="64.3" x2="64" y1="189.9" y2="179.4" gradientTransform="rotate(175.9 -1.62 133.5)scale(-1 1)" gradientUnits="userSpaceOnUse"><stop offset=".6" style="stop-color:#e0bb95"/><stop offset="1" style="stop-color:#cca47a"/></linearGradient><path d="M55.7 90.2c.2-3 7.3-10.6 7.3-10.6a9 9 0 0 0 2-7L63.6 58l-11.4.8 2.3 16.6C50.8 81 52 84 49.4 89" style="fill:url(#k)"/><path d="M85 64.2q1.5-2.7.6-5a5 5 0 0 0-2.6-3c-1.4-.6-11.7-4-12.1-4q-.3-.1-.5.1l-4.7 8.2v.3l.2.2 10.7 3.6L72.4 75q-.5 1.5.1 2.9.5.7 1.3 1l4.2.5 5.6.6q1 0 1.1-.2l.2-.4q0-.7-.3-1l.2-.6q-.2-.7-.7-1v-.2c0-.3 0-.7-5.5-2.8l2.6-3.8c1.5-2 3-4.2 3.9-5.8" style="fill:#ba8f63"/><path d="M53.1 50s-3 4.3-2.1 11.4c.4 2.7 2.8 12 2.8 12s10.6-.3 13.8-5c0 0-2.9-4.2-2.6-7l9.2 2.3s5.6-5.7 4.2-10.9c0 0-5.5-.3-8.4-3.7-1-1.2-16.9.8-16.9.8" style="fill:#7c7c7c"/><linearGradient id="l" x1="28.8" x2="59.1" y1="80.1" y2="80.1" gradientTransform="matrix(1 0 0 -1 0 128)" gradientUnits="userSpaceOnUse"><stop offset=".6" style="stop-color:#e0bb95"/><stop offset="1" style="stop-color:#cca47a"/></linearGradient><path d="m57.5 39.5-.3.3-13.3 5.5-3 5-2.4 4.2v1.8l.3 1.3c0 1.2-.9 3.6-1.5 3.8q-.4.1-1-.1-.5-.4-.6-1V59l.2-.5-2 2.4q-.4.6-.7 1.7-.4 1.7-1.2 2.2-.3.3-.8.2h-.5l-.3-.3-.4-.6h-.1l-.7-.8q-.2-.3-.3-1V61c0-.3 0-1.7 1-3.5q.6-1.4 1.7-2.7l1.7-2.6 2.4-6 1.3-3.4a8 8 0 0 1 3-3.8l8.8-6c1.6-1 7-2.5 9.3-2.2q.5 0 .9.6c1 1.8-1 7-1.4 8" style="fill:url(#l)"/><path d="M33 58.2C31.5 60 31.1 63 31 65h-.4q-.2 0-.3-.3c.1-2.2.6-5.2 2-7h.5zm-1.5-.5c-1 1-1.5 4.6-1.6 6.3q-.3-.1-.7-.7c.2-1.7.7-5 1.8-6.1h.5q.3.3 0 .5M101.8 39c-1-.4-2.8-.8-3.9-1l-2.8.3c-1.4.2-3 .4-3.6.3l-1-.2c-1.7-.3-6.2-1-7-1.3-.5-.4-4.3-3.8-6-5a7 7 0 0 0-5.8-.9q-.4 0-.3.5 0 .2.4.3l.5 6.3q-.2 0-.3.2t.1.5l7.2 3.6c2.3 1 3.5 1 5.5.8 1 0 4.4-.3 7-.7q.4.4 2.3.9h.1c.9 0 3.6-.4 4-.5.5 0 1-.6 1-1q0-.8-1-1h-.5l.8-.3h2.3q1.1.2 1.5-.7 0-1-.5-1.1" style="fill:#ba8f63"/><linearGradient id="m" x1="59.1" x2="71.7" y1="150.5" y2="155.7" gradientTransform="rotate(178 -.91 97.86)scale(-1 1)" gradientUnits="userSpaceOnUse"><stop offset="0" style="stop-color:#00bfa5"/><stop offset=".5" style="stop-color:#00b29a"/><stop offset="1" style="stop-color:#009e89"/></linearGradient><path d="M81.4 33.8s-4.1-3.7-8.5-4.3c-1.3-.1-4-.8-5-.9 0 0 1.4 1.6.7 3.2-.7 1.5-2.5 3.4-5.3 1.8-2.7-1.7 1.4-5.3 1.4-5.3-1.7.2-7.1 1.4-9.4 1.9L46 32.8c-1 5 4 10 4 10l3.4-.9c.2 3.8-1.4 10-2.5 13.3 0 0 2.9 3 12-.7 4.4-1.8 7.6-5 9-7.2s2.6-4.2 3.5-7.5c4.8-1 6.1-6 6.1-6" style="fill:url(#m)"/><path d="M74.4 12.6C71.9 9 66.6 6.5 62.6 7.4c-4.7 1-7 4.5-7.5 8.8q-.2 2.6.3 4.2l.3 1.4c.3 1.2-1.9 2.4-2.1 3.7-.1 1 1.9 1.5 2 1.7.9.8-.4 4.6 5 5.3l1.5.1s1 2.8 4.5 1.6c2-.7 2.6-2.7 2.8-4 .3-1.9 1.3-3.2 2-4.2 2.3-3.3 4.5-11.2 3-13.4" style="fill:#e0bb95"/><path d="M56.3 29.4q1.2 0 2.2-.7c.6-.5.1-1.1-.7-.7q-.7.4-1.7.3z" style="fill:#6d4c41"/><ellipse cx="59.2" cy="22.3" rx="1" ry="1.6" style="fill:#5d4037" transform="rotate(-4.7 59.19 22.3)"/><path d="M58.4 20.2c-1 .5-1.3-.1-1-.7q.2-.7 1.8-.8c1.1 0 1.7.6 2 .9q.5.6.2.7c-.3.1-1.9-.6-3 0m7.6 1.3.7-1.4q.7-1.4 1.6-1.4c2.2.2 2.2 3.9-.1 5 0 0 .3 2.5 2 3 1.4.4 2-1 2.3-1.7 1.3-3.5 3.4-3.2 3.7-8.2.5-7-6-10.8-11.9-10.5-2.2 0-3.7.5-5.6 1.7-.9.5-3.8 2.5-4.3 4-.6 2 .4 3.3.9 3.3s5-.9 7.8-.6q.6 0 1 .5l.2 1.2c.4 2 .3 3.4 1.1 4.7.1.2.6.4.6.4" style="fill:#ab872f"/><radialGradient id="n" cx="132.5" cy="224.3" r="11.7" gradientTransform="matrix(1.03 -.13 -.132 -.992 -42.07 256.68)" gradientUnits="userSpaceOnUse"><stop offset=".7" style="stop-color:#bfa055;stop-opacity:0"/><stop offset="1" style="stop-color:#bfa055"/></radialGradient><path d="m66 21.6.7-1.4q.7-1.4 1.6-1.4c2.2.2 2.2 3.9-.1 5 0 0 .3 2.5 2 3 1.4.4 2-1 2.3-1.7 1.3-3.5 3.4-3.2 3.7-8.2.5-7-6-10.8-11.9-10.5-2.2 0-3.7.5-5.6 1.7-.9.5-3.8 2.5-4.3 4-.6 2 .4 3.3.9 3.3s5-.9 7.8-.6q.6 0 1 .5l.2 1.2c.4 2 .3 3.4 1.1 4.7.1.2.6.4.6.4" style="fill:url(#n)"/><path d="M56.5 29.4q1.2 0 2.2-.7c.6-.5.1-1.1-.7-.7q-.7.4-1.8.3z" style="fill:#6d4c41"/><ellipse cx="59.4" cy="22.3" rx="1" ry="1.6" style="fill:#5d4037" transform="rotate(-4.7 59.38 22.3)"/><path d="M58.6 20.2c-1 .5-1.3-.1-1-.7q.2-.7 1.8-.8c1.1 0 1.7.6 2 .9q.5.6.2.7c-.3.1-1.9-.6-3 0" style="fill:#ab872f"/><path d="M102.6 66.1q-1-1.2-3.7-1.7s2 .8 2.5 2.7c.3 2 0 3.2-2.7 6.7a224 224 0 0 1-42 32.7 66 66 0 0 1-28.4 9.2c-4.5 0-8-1.6-9.5-4a10 10 0 0 1-1-6.6q-2.4 4.6-.2 8 3.2 4.7 10.7 4.6c8 0 19-3.8 29.3-9.5A214 214 0 0 0 100.3 75c2.7-3.8 3.2-7.7 2.3-8.9" style="opacity:.28;fill:#0d47a1"/></svg>