<svg xml:space="preserve" width="16" height="16" viewBox="0 0 128 128"><path d="M89.5 22.4 78.8 32.6l10 55.5c8.5-3 14.3-8.6 19-11.5 2.6-1.7 5.5-2.6 5.5-2.6z" style="fill:#00796b"/><path d="m93 30.1 7 15.2s-7.4-6.7-8.2 1.4C90.8 55 89 63 89 63l-9.2-34.6z" style="fill:#00695c"/><path d="M112.4 72.2c-3.9.9-7 3.2-10.4 5.6a47 47 0 0 1-13.6 7.4l.8 3.8a50 50 0 0 0 16.4-8.4q4.5-3.5 8.5-4.7z" style="fill:#e2a610"/><path d="M104.5 24.1c-2.5-3.2-7.5-10-12.7-13.3a76 76 0 0 0-13.1-6.1s-5 8.5-12.5 9.9-13.4-3.1-14.8-5C50 7.4 49.1 5 47.6 5.5c-2.5.9-6.4 2-10.6 5A98 98 0 0 0 24.3 24c-.6.7-.5 1.8.2 2.4L33 35c.7.7 1.9.7 2.6 0l6.1-5.8 1 4.3a34 34 0 0 1 1.5 9.4h40.4a34 34 0 0 1 1.5-9.4l1-4.3 6 5.8c.8.7 2 .7 2.7 0l8.5-8.5c.7-.6.8-1.7.2-2.4" style="fill:#c62828"/><path d="m34.3 91.7-3.1 25.4c6.4 4.1 14 1.2 18.3 2.2s8.5 4.1 16 4.1 9.7-3.1 14-4.1 10.2 2 19.3-3.4l-14-76.3s-9 18-22 31.4C50.7 83.7 34.4 91.7 34.4 91.7" style="fill:#26a69a"/><path d="M44.4 92.9c.8-.5 4.5-2.5 4.1 2.8-.5 8.3-2.3 24-2.3 24s2 0 3.3.4l5.3 1.8s2.1-19 3.4-28.4c1.9-13.4 7-17.2 8.6-18.2s4-1 5.5 2.2c3 7 5.6 25.8 6 29.8s1.6 3.5 1.6-.2c.1-12.2.4-40.9 1.4-48.5C83 44.2 85.4 43 85.4 43l-.6-3.5h-1.3c-3.5 7.3-11 21.2-22.3 32.6-17.2 17.2-27 19.5-27 19.5l-.7 6.6s2.8-.5 10.9-5.4" style="fill:#00796b"/><path d="M65.5 124c-7.6 0-11-2.6-16.7-4.2-5.5-.6-12.2 1.6-17.8-2.2l.7-5c5.5 3.8 12.5 1.7 18.3 2.7 5.4 1.4 8.9 4 15.4 4 6.5.1 7.7-3.2 13.4-4 6.9-.8 11.1 1.7 19.2-4l1 5.3c-8.8 5.2-12.5 2.7-19 3.4-5.1 1.5-6.7 4-14.5 4" style="fill:#ffca28"/><path d="M60.3 13.8c-6.5-1-8.9-6-9.9-8q-.5-1-1.7-.8l-3.3 1.3s2 5.4 5.1 8a18 18 0 0 0 20.6 2l.8-6.4c-4.3 3.3-6 4.6-11.6 3.9" style="fill:#ff7555"/><path d="M78 4.4a476 476 0 0 1-37 32.2l1.9 8.6-2.6 5.4V62l-2.7 6-3.3 23.6s25-11.3 38.5-33C87.6 35.3 89.2 24 91.5 10.3c0 0-8-4.8-13.5-6" style="fill:#80ddd2"/><path d="m41 36.6 1.5 8.8c0 .8-2.7 4.3-2.7 5.7v10.5c0 1-2.5 5.3-2.6 6.2l-3 24s3.3-.5 7.1-2.7c1-16.5-.8-22 2.5-24.8S53.6 57.1 62 43c.3-.6.8-1.9 0-2-.7-.2-1.5 1.3-1.7 1.5a36 36 0 0 1-13.6 12c-3.2 1.7-3-6.1-1.6-7C47.7 46 55 40 60.3 33.4c.1-.3 1-1.3.7-1.7s-1.5.6-1.5.6-7 6.6-10.1 7.8c-3.6 1.6-3.2-2-3.5-7.4z" style="fill:#29b3a6"/><path d="m46.5 80.3-3-3.6 3-3.6 3 3.6z" style="fill:#ffe36c"/><path d="M38.4 85 36 82l2.4-2.9 2.3 3z" style="fill:#ffca28"/><path d="m62 66-3.5-4.2 3.5-4.2 3.4 4.3zm14.3-20.2-3.5-4.2 3.5-4.2 3.4 4.3zm5-9.8-3-3.7 3-3.6 2.9 3.7zM54.6 74l-3.3-4 3.2-4 3.3 4z" style="fill:#ffe36c"/><path d="m41.9 108.4-3.5-4.2 3.5-4.2 3.4 4.2zm45.2 0-3.5-4.2 3.5-4.2 3.5 4.2z" style="fill:#ffca28"/><path d="m98.8 72-3.5-4.2 3.5-4.2 3.5 4.2z" style="fill:#e2a610"/><path d="m65.5 114.5-3.5-4.2 3.5-4.2 3.5 4.2z" style="fill:#ffe36c"/><path d="M37.9 33 26.4 21.2 24.3 24c-.7.7-.6 1.8.1 2.4L33 35c.7.7 1.9.7 2.6 0zm53-.2 11.4-11.5 2.2 2.8q.9 1.4-.2 2.4l-8.5 8.6c-.7.6-2 .6-2.6 0z" style="fill:#ff7555"/><path d="M53.6 16.6q-3.2-1.6-5.3-4.7a1 1 0 0 1 .3-1.2l2-1.1q.6-.3 1 .2c1.1 1.3 2 2.3 3.6 3.1q.6.5.3 1.1l-.8 2.1c-.1.5-.7.7-1 .5M30 30.8 27.3 28a1 1 0 0 1 0-1.3l1.3-1.7a1 1 0 0 1 1.4 0l3.2 3.1q.6.8-.1 1.5l-1.8 1.3a1 1 0 0 1-1.3-.1" style="fill:#ffa996"/><path d="M84.6 27.3 82 24.1l2.5-3 2.7 3zm2.7-8.8-2.2-2.8 2.2-2.6 2.2 2.7zM69.8 56 66 51.6l3.6-4.4 3.6 4.4z" style="fill:#ffe36c"/><path d="m62 120.1-.2 2.3q0 .8.8 1c1.4.2 4.4.3 7.4-.2q.7-.3.7-1l-.4-2.5q-.3-.9-1-.7c-3 .6-5.1.4-6.3.3q-.9 0-1 .8" style="fill:#fff59d"/><path d="m99.7 29.8 2.8-2.8a1 1 0 0 0 0-1.3l-1.4-1.7a1 1 0 0 0-1.4-.1L96.5 27a1 1 0 0 0 .2 1.4l1.8 1.4q.6.3 1.2-.1" style="fill:#ffa996"/><path d="M79.4 4.7 77.1 4c-14.2 14-35 29.7-35 29.7q-1.7 1.4-1.1 4c16.2-9.8 38.2-33 38.2-33m11.9 5.6s-.2 19-19.5 47.5a94 94 0 0 1-37.2 32l-.4 3.7s23.8-9 40.2-34.2c18.1-27.8 19-47.8 19-47.8zm-4.6-2.6L85.1 7a137 137 0 0 1-48.7 67v.3l-.6 3.7c10.5-7 37.7-28.7 50.7-70.3" style="fill:#ffe36c"/><path d="M51 26.9c-5.3 4.1-9.4 7-9.4 7-1.3 1-.8 2-.5 3.9q4.9-3 10.1-7.2 0-2-.3-3.7M41.5 86l-7 3.8-.5 3.7s3.4-1.4 7.5-3.6zm-5.1-12v.3l-.6 3.7 5.8-4.2.1-4zM71.2 9.7c.7.2 3 .3 3 .3l5.1-5.3-2.1-.7zM82 15.5l1.7.5 2.8-8.3-1.4-.7zm7.5 4.4 2 1c1.4-4.6 1.6-9.4 1.6-9.4l-2-1.4s-.2 4.5-1.6 9.8" style="fill:#ffca28"/><path d="M55.4 117.2c-4.2-2.3-7.5-2.2-8.6-2.2l-.5 4.7c3 0 4 .9 8.5 2.2zm29-2c-1.6 0-3.9 0-5.6.2l-.8.1.3 5c.3 0 1.8-.8 7-.6z" style="fill:#e2a610"/></svg>