<svg xml:space="preserve" width="16" height="16" viewBox="0 0 128 128"><path d="M64.6 2.9c-41 0-40.7 37.9-40.7 38.5 0 24.6 1.9 59.2 11.7 72.9C39.5 119.7 47 120 47 120h34s7.5-.3 11.4-5.7c9.8-13.7 11.7-48.3 11.7-73 0-.5 1.5-38.4-39.5-38.4" style="fill:#ab872f"/><radialGradient id="a" cx="64" cy="69.6" r="47.5" gradientTransform="matrix(1 0 0 -1.19 0 141.22)" gradientUnits="userSpaceOnUse"><stop offset=".8" style="stop-color:#bfa055;stop-opacity:0"/><stop offset="1" style="stop-color:#bfa055"/></radialGradient><path d="M64.6 2.9c-41 0-40.7 37.9-40.7 38.5 0 24.6 1.9 59.2 11.7 72.9C39.5 119.7 47 120 47 120h34s7.5-.3 11.4-5.7c9.8-13.7 11.7-48.3 11.7-73 0-.5 1.5-38.4-39.5-38.4" style="fill:url(#a)"/><linearGradient id="b" x1="64" x2="64" y1="32.4" y2="5.6" gradientTransform="matrix(1 0 0 -1 0 128)" gradientUnits="userSpaceOnUse"><stop offset="0" style="stop-color:#e3f2fd"/><stop offset=".2" style="stop-color:#d6ecfc"/><stop offset=".6" style="stop-color:#b4dbfb"/><stop offset="1" style="stop-color:#90caf9"/></linearGradient><path d="M64.1 96c-25.6 0-52 7.1-52 25v3h104v-3c0-16.9-26.1-25-51.9-25" style="fill:url(#b)"/><linearGradient id="c" x1="64" x2="64" y1="15.9" y2="36.5" gradientTransform="matrix(1 0 0 -1 0 128)" gradientUnits="userSpaceOnUse"><stop offset=".5" style="stop-color:#f5f5f5"/><stop offset="1" style="stop-color:#dadada"/></linearGradient><path d="M75.7 90.8H52.4l-7 7.5 8.2 12.7a2.4 2.4 0 0 0 4 .2l6.4-8 6.5 8c1 1.3 3 1.2 3.9-.2l8.2-12.7z" style="fill:url(#c)"/><circle cx="64" cy="111.3" r="1.7" style="fill:#64b5f6"/><circle cx="64" cy="119.3" r="1.7" style="fill:#64b5f6"/><path d="M64 84.3h-9v10c0 4.5 3.6 8.2 8.2 8.2h1.6c4.6 0 8.3-3.7 8.3-8.2v-10z" style="fill:#c48e6a"/><path d="M64 16c-17.2 0-33.1 12.8-33.1 40A40 40 0 0 0 56 94.8a24 24 0 0 0 7.9 1.5q3.6 0 7.8-1.5A40 40 0 0 0 97.1 56c0-27.2-15.9-40-33.1-40" style="fill:#e0bb95"/><path d="M67.8 68h-7.6q-1.1.5-.7 1.7a5 5 0 0 0 4.5 2.6c2.8 0 4.2-2 4.5-2.6q.4-1.2-.7-1.6" style="fill:#c48e6a"/><ellipse cx="47.8" cy="58.9" rx="4.9" ry="5" style="fill:#5d4037"/><ellipse cx="80.3" cy="58.9" rx="4.9" ry="5" style="fill:#5d4037"/><path d="M55 49.8c-1-1.2-3-3-7.2-3s-6.3 1.8-7.3 3q-.5 1 0 1.6t2 .4c1.4-.2 2.4-1.2 5.3-1.2 2.8 0 4.5.9 5.3 1.2q1.4.3 2-.4.4-.6-.1-1.6m32.5 0c-1-1.2-3-3-7.2-3s-6.4 1.8-7.3 3q-.5 1 0 1.6t1.9.4c1.4-.2 2.5-1.2 5.4-1.2 2.8 0 4.4.9 5.3 1.2q1.4.3 1.9-.4t0-1.6" style="fill:#ab872f"/><path d="M72.3 76.1a25 25 0 0 1-16.6 0c-1.8-1-3.6.6-2.9 2.3s6.4 5.3 11.2 5.3 10.5-3.7 11.2-5.4c.8-1.6-1-3.2-2.9-2.2" style="fill:#6d4c41"/><path d="M64.6 2.9c-41 0-40.7 37.9-40.7 38.5q0 11.9.7 25.3h6.8c-.1-3 2-21 8-22.3 22.4-5 35-17 35-17 3.3 7.2 13.6 14.3 17.3 17 3 2.1 4.3 18.5 4.2 22.3h7.4v-.2c.6-8.7.8-17.4.8-25.1 0-.6 1.5-38.5-39.5-38.5" style="fill:#ab872f"/><radialGradient id="d" cx="64.3" cy="65.5" r="49.8" gradientTransform="matrix(1 0 0 -1.214 0 142)" gradientUnits="userSpaceOnUse"><stop offset=".8" style="stop-color:#bfa055;stop-opacity:0"/><stop offset="1" style="stop-color:#bfa055"/></radialGradient><path d="M64.6 2.9c-41 0-40.7 37.9-40.7 38.5q0 11.9.7 25.3h6.8c-.1-3 2-21 8-22.3 22.4-5 35-17 35-17 3.3 7.2 13.6 14.3 17.3 17 3 2.1 4.3 18.5 4.2 22.3h7.4v-.2c.6-8.7.8-17.4.8-25.1 0-.6 1.5-38.5-39.5-38.5" style="fill:url(#d)"/></svg>