<svg xml:space="preserve" width="16" height="16" viewBox="0 0 128 128"><path d="M116.5 4h-104a8 8 0 0 0-8 8v104a8 8 0 0 0 8 8h104a8 8 0 0 0 8-8V12a8 8 0 0 0-8-8" style="fill:#427687"/><path d="M122.2 6.3a8 8 0 0 0-5.7-2.3h-104a8 8 0 0 0-8 8v104q0 3.1 2.3 5.7l16.8-16.8h76a6 6 0 0 0 5.9-6V23z" style="fill:#8cafbf"/><path d="M85 47.5q.1 4.6-2.4 8.8a18 18 0 0 1-7 6q5 2.3 8.2 6.8 2.7 4.3 2.8 9.6 0 8.9-6 14c-6 5.2-9.3 5.3-16 5.3s-12-1.7-16-5.2-6-8.2-6-14q0-5.4 2.9-9.7 3-4.6 8-6.6a18 18 0 0 1-7-6.1 16 16 0 0 1-2.4-8.8Q44 39 49.6 34c5.5-5 8.7-5 14.9-5q9.4 0 15 5C85 39 85 41.8 85 47.5M75.4 78c0-3-1-6-3-8.1s-5-3.2-7.8-3q-4.7-.2-7.8 3-3 3-3 8 0 4.6 3 8 2.9 3 8 3 4.5 0 7.9-3 2.7-2.7 2.7-8M74 47.7q0-4.1-2.5-7.2a9 9 0 0 0-6.8-2.8q-4-.2-6.8 2.7-2.7 3.2-2.5 7.4c-.2 2.6.7 5.3 2.5 7.3a9 9 0 0 0 6.7 2.7q4 0 6.8-2.7 2.7-3.2 2.6-7.4" style="fill:#fafafa"/><path d="M40.2 12.9c0-2.3-1.6-3-10.8-2.7-7.7.3-11.5 1.2-13.8 4s-3 8.5-3 15.3c0 4.8 0 9.3 2.5 9.3 3.4 0 3.4-8 6.2-12.3 5.4-8.7 18.9-10.6 18.9-13.6" style="opacity:.5;fill:#b4e1ed"/></svg>