<svg xml:space="preserve" width="16" height="16" viewBox="0 0 128 128"><path d="m67.5 48.2-1.1 18.5A69 69 0 0 0 69 92c-1 14.3-4.8 21.5-5.9 24-1 2.5-4 5.7 0 6.9s10.7.6 13.6-.4 4.4-6.9 4.8-9.2a81 81 0 0 0-.5-27.5c-1.5-8.2-5-22.5-5-22.5zm-.7-2.8S71 32 80.9 21.8c9.4-9.8 19-13 26.8-14 8.5-1 12-.9 13.4.2s1 2.7 1 4.1c.2 10.5.6 24-11.7 36.4C97.3 61.7 87.9 64 77.7 65s-9-3.6-9-3.6zM3 37a51 51 0 0 0 28 30.1c20 7.3 39 0 39 0l1.5-19.3-4.7-2.4S56.7 34.3 45.5 30.2c-11.6-4.3-24.7-4.6-33.6.2-5.6 3-8.7 5.7-9 6.6" style="fill:#99c23b"/><path d="M86.7 30.7c-9.3 11-14 22.1-14.5 25s1.1 2.8 2 1.6c1.7-2.3 7.4-12.4 15.9-22 7.3-8.4 18.5-17.5 20.2-19.4 1-1.2-.1-2.7-1.7-2-1.5.6-12.4 5.5-22 16.8M41.4 41A52 52 0 0 0 16 37.6c-2 .7-2 3 .4 3.2s12.3 1.3 24.6 5.7c13 4.8 22.4 12 24 12.9s2.7-1 1.2-2.7A62 62 0 0 0 41.4 41" style="fill:#e6dc9f"/></svg>