<svg xml:space="preserve" width="16" height="16" viewBox="0 0 128 128"><linearGradient id="a" x1="64" x2="64" y1="108.1" y2="5.7" gradientTransform="matrix(1 0 0 -1 0 128)" gradientUnits="userSpaceOnUse"><stop offset=".2" style="stop-color:#bcaaa4"/><stop offset="1" style="stop-color:#8d6e63"/></linearGradient><path d="M91 19c-4.8 0-9.6 1.6-13.4 4.5a257 257 0 0 0-15.1 16.7c-4 4.7-8.8 9.7-15 9.8-8 0-14.5-8.2-22.1-8.2l-2 .2C15.6 43.5 8.3 56.3 4 65.5V124h120V47.5c-6.6-10-20.4-28.4-33-28.4" style="fill:url(#a)"/><path d="m80.3 81-1.6-2.4c-1.1-1.5-4-2.2-4-2.2l-5.9 4-4 5.4a4 4 0 0 0 0 4.6l.7 1a1 1 0 0 0 1.4.3l13-9q1-.9.4-1.7" style="fill:#4568ad"/><path d="M51.7 10.4C48.4 7 42.3 5 38 6.8c-5 1.9-6.9 6-6.6 10.8q.1 2.7 1 4.5l.7 1.4c.4 1.2-1.7 3-1.7 4.4 0 1 2.3 1.3 2.5 1.4 1 .8.6 5.4 6.6 4.6 2-.2 2.2-.4 2.9-.5 1.9-.1 7.3 1.6 7.3 1.6l2-4.4s-1.7-.8 0-6.2c1.3-4 1-11.9-1-14" style="fill:#a56c43"/><path d="M35 31.6q1.3-.1 2.2-1.1c.6-.7 0-1.2-.8-.7q-.8.5-1.9.6z" style="fill:#473530"/><ellipse cx="36.9" cy="23.4" rx="1.1" ry="1.7" style="fill:#42312c" transform="rotate(-14 36.88 23.43)"/><path d="M35.7 21.3c-1 .7-1.4 0-1.3-.6q.1-.7 2-1.2a3 3 0 0 1 2.2.7q.8.6.3.8c-.3.2-2.1-.4-3.2.3" style="fill:#42312c"/><path d="M53.1 12.2q-.6-1-1.4-1.6-1.1-1-2.6-1.7-3.8-1.7-7.8-1c-4 .8-5.1 2-6.8 4.2-1.3 1.7-2 4-1.2 5.8 1-.3 1.7-1.1 2.8-1.3q2.2-.2 4-1.1l1.4-1 .1-.1c2 .5.5 5 3 7l1 .7s-.4-3.2 1.6-3.2c2.1 0 2.3 2 1.7 4-.6 1.8-1.7 1.1-1.3 1.8.6 1 3.8 1.3 4.8 1.1 1.3-.3 2.2-1.7 3-2.8 1-1.3.8-2.8.7-4.4q-.4-2.7-2-4.9z" style="fill:#3c2c23"/><path d="M83.6 49.6 77.4 38 53.3 52a5.6 5.6 0 0 0-1.8 8.4l.2.2 16.9 20.3 7-5.2L64.3 59z" style="fill:#875334"/><path d="M87.5 40A8 8 0 0 0 77 36.8l-17 9.8L67 60l17.4-9.2c3.8-2 5.3-6.8 3.2-10.7" style="fill:#646464"/><path d="m71.3 69.3-7.6 5.6 4.9 5.9 7-5.2z" style="fill:#e0e0e0"/><radialGradient id="b" cx="97.5" cy="28.3" r="23.3" gradientTransform="matrix(1 0 0 -1 0 128)" gradientUnits="userSpaceOnUse"><stop offset="0" style="stop-color:#78909c"/><stop offset=".6" style="stop-color:#617a86"/><stop offset="1" style="stop-color:#546e7a"/></radialGradient><path d="M97.5 76.4a23.4 23.4 0 1 0 0 46.7 23.4 23.4 0 0 0 0-46.7m0 38.3a15 15 0 0 1 0-30 15 15 0 0 1 0 30" style="fill:url(#b)"/><radialGradient id="c" cx="30.5" cy="28.3" r="23.3" gradientTransform="matrix(1 0 0 -1 0 128)" gradientUnits="userSpaceOnUse"><stop offset="0" style="stop-color:#78909c"/><stop offset=".6" style="stop-color:#617a86"/><stop offset="1" style="stop-color:#546e7a"/></radialGradient><path d="M30.5 76.4a23.4 23.4 0 1 0 0 46.7 23.4 23.4 0 0 0 0-46.7m0 38.3a15 15 0 0 1 0-30 15 15 0 0 1 0 30" style="fill:url(#c)"/><linearGradient id="d" x1="34.7" x2="99.1" y1="48.2" y2="48.2" gradientTransform="matrix(1 0 0 -1 0 128)" gradientUnits="userSpaceOnUse"><stop offset="0" style="stop-color:#d8eb21"/><stop offset=".4" style="stop-color:#d6e921"/><stop offset=".6" style="stop-color:#b8c721"/><stop offset=".8" style="stop-color:#adba21"/></linearGradient><path d="m100 98-.4-.6-9.2-12.3-10.2-13.8 3.7-8.1.3-1v-.6l-.4-1a3 3 0 0 0-1.8-1.2h-.2l-.3-.1h-.8l-.1.1-.6.3-.6.4v.2l-.5.6-3.6 7.9-32-4.7 1.1-4c.4-1.5-.5-3-2-3.4h-.7q-2 .1-2.6 2l-2.3 8.5-8.5 32.2a2.8 2.8 0 0 0 2.7 3.4q2-.1 2.6-2L41.3 72l21 28.7v.2l.3.2.1.2h.1l.2.1v.1h.2v.1h.2l.3.1.1.1h33.6q1.7 0 2.4-1.4.6-1.1.1-2.2M46.7 70.3l16.5 2.4 9.6 1.4-9 19.6zm22 26L77.5 77l14.3 19.3z" style="fill:url(#d)"/><path d="M71 99.5q-.7-1.6-2.2-2c-1.2-.1-6 1.5-6.8 1.8-1.7.8-3.9 3-2.9 5.3q1 2 2.4 1.9 1.2 0 2.3-.6l.6-.2 1.3-.4c2-.6 4.4-1.3 5.4-3a3 3 0 0 0 0-2.8" style="fill:#504f4f"/><path d="m43.2 56.3-8.6-2.1H34a2.7 2.7 0 0 0-.7 5.3l8.6 2a2.7 2.7 0 1 0 1.3-5.2" style="fill:#405966"/><path d="m88.4 56.8-.4-.3c-1.1-.7-2.4-.5-3.7-.6l-4.9-.2h-5.6l-2.4-.1h-.2A4 4 0 0 0 68 58c-.8 1.9.5 3 2.1 4q3 1.4 6.3 2 3.4 1 7 1.6h1c2 0 4.1-.8 5.3-2.5 1.4-2 .8-4.8-1.2-6.3" style="fill:#504f4f"/><path d="M116.4 124H11.1v-.7q1-.7 2.5-2.1l2.5-2 .5-.3q2-1.2 4-1.4h.4q1.5.2 2.8.8l3.1 1 4.8 1q2.5-.1 4.9-1 .6 0 1-.3l2-.6a39 39 0 0 1 6.5-1.5q1.1 0 2.3.6l1 .3q2.2.8 4.6 1.2l2.9.8q1.8.5 3.7.5 3.9-.2 7-1.4l.4-.2 3.4-1h.8q1.8.1 3.7.7l1.5.4a33 33 0 0 0 5.4 1l1.4.2h.2q1 0 1.9-.4l.3-.1 5-2 1-.5 1-.3q.9 0 1.8.5 1.5.7 2.8 1l1.5.6 1.2.5a10 10 0 0 0 3.2 1q1.3-.1 2.4-.8l1.3-.5.7-.1q1.5.1 3 1.2l1.5.8 2 1.2a5 5 0 0 1 1.3 1.9" style="fill:#6d4c41"/><linearGradient id="e" x1="102" x2="36.2" y1="1.2" y2="138.9" gradientTransform="translate(0 2)" gradientUnits="userSpaceOnUse"><stop offset=".2" style="stop-color:#8d5738"/><stop offset=".7" style="stop-color:#a56c43"/></linearGradient><path d="m86.5 46.7-11.2-7L61.5 64q-1.1 1.9-.7 3.9l2.8 25.8h6.8l1.4-25z" style="fill:url(#e)"/><path d="m62.6 86 1 7.6h6.8l.5-7.7z" style="fill:#e0e0e0"/><path d="M85.1 36.4a8 8 0 0 0-10.8 2.5L64.2 56.4l12.7 7.8s9.6-14.8 10.8-17c2-3.6 1.1-8.5-2.6-10.8" style="fill:#7c7c7c"/><path d="m74.1 97.5-.8-2.7c-.5-2-3-3.5-3-3.5l-6.8 1.9-5.6 3.7q-2.2 1.7-1.5 4.4l.3 1.2q.3.8 1 .8h.3L73.3 99q1-.5.8-1.5" style="fill:#4568ad"/><radialGradient id="f" cx="67.5" cy="92.1" r="15.7" gradientTransform="matrix(1 0 0 -1 0 128)" gradientUnits="userSpaceOnUse"><stop offset=".4" style="stop-color:#00bfa5"/><stop offset=".8" style="stop-color:#00b29a"/><stop offset="1" style="stop-color:#00ab94"/></radialGradient><path d="m61.1 23.5-3.5-.4c-2.5 0-4.6.8-5.5 2.9l-2.3 4.9c-1.4 3-.2 7.6 3.3 8.7 9 2.9 8.8 5.6 14 8q2.3 1 4.4 1c6.7 0 11.4-7.4 14.2-12.1a48 48 0 0 0-24.6-13" style="fill:url(#f)"/><linearGradient id="g" x1="27.9" x2="57.5" y1="83.2" y2="83.2" gradientTransform="matrix(1 0 0 -1 0 128)" gradientUnits="userSpaceOnUse"><stop offset=".5" style="stop-color:#a56c43"/><stop offset="1" style="stop-color:#8d5738"/></linearGradient><path d="M57.5 31.3 49.7 29 45 46.2l-8.3 7a16 16 0 0 0-4.7-.7h-1l-.5.2-1.4 1.2q-1.4 1.3-1.2 3v.8q0 .6 1 1.2l.1.1q.8.4 1.5 0c.7-.5 0-1.8.3-2.3l1-1.3s2-.1 2.4.2q1.2.8.6 2.4c-.3.8-1 1.7-.7 2l.4.3.3.2h.2l.3.1q.7 0 1.8-1c1-1 2-.7 2.7-1.5l10-6.6v-.1l.6-.3q.9-.7 1.3-1.9z" style="fill:url(#g)"/><radialGradient id="h" cx="32.9" cy="71.5" r="2.8" gradientTransform="matrix(1 0 0 -1 0 128)" gradientUnits="userSpaceOnUse"><stop offset="0" style="stop-color:#78909c"/><stop offset=".6" style="stop-color:#617a86"/><stop offset="1" style="stop-color:#546e7a"/></radialGradient><path d="M33 53.7a2.8 2.8 0 1 0 0 5.7 2.8 2.8 0 0 0 0-5.7" style="fill:url(#h)"/><path d="m55.1 26.2-1.5-.2a5 5 0 0 0-5.1 3.8l-2.6 9.5 9.8 2.9 3-9.4c.8-2.8-.8-5.7-3.6-6.6" style="fill:#04a287"/><linearGradient id="i" x1="72" x2="72" y1="19.4" y2="27.3" gradientTransform="rotate(5 21.92 -266.96)" gradientUnits="userSpaceOnUse"><stop offset="0" style="stop-color:#646464"/><stop offset="1" style="stop-color:#262626"/></linearGradient><path d="M46 27.8c0 1.7-2.9 5.4-3 5.7s1.5.4 1.8 0 3.6-3.5 5.7-7.5c.9-1.7 3-6.5 3-6.5l-3-1.4s-.8 8.2-2.9 8.2-2-8-2-8l-4.7 2s5 6.5 5 7.5" style="fill:url(#i)"/><radialGradient id="j" cx="38.9" cy="115.9" r="11.8" gradientTransform="matrix(1 0 0 -1 0 128)" gradientUnits="userSpaceOnUse"><stop offset="0" style="stop-color:#81d4fa"/><stop offset=".4" style="stop-color:#5eb3e7"/><stop offset=".8" style="stop-color:#3c92d3"/><stop offset="1" style="stop-color:#2f85cc"/></radialGradient><path d="M53.6 7.6A14 14 0 0 0 44.1 4q-2.5 0-5 .8c-1.3.5-5.9 2.7-7.8 6.6q-1.3 2.4-1.6 5.1c-.1 1-.1 2.8.7 3.6q.5.6 1.1.5h.7c1-.3 3.7-1.4 4.4-1.5h.4c1.6 0 2.9 1.2 3.2 1.4q1 .9 2.1 1 1 0 2.4-1c1.2-1 1.4-1.7 2.5-2h.4c.8 0 1.8.4 3 2.2q1.5 2.3 3 2.2.9 0 1.5-.6c1.5-1.4 4.4-9.2-1.5-14.7" style="fill:url(#j)"/></svg>