<svg xml:space="preserve" width="16" height="16" viewBox="0 0 128 128"><path d="M19.3 17.5h92.5V20H19.3zm0 19.9h92.5v2.5H19.3zm0 19.6h92.5v2.5H19.3zm0 19.4h92.5v2.5H19.3zm0 19.3h92.5v2.5H19.3z" style="fill:#ad7146"/><path d="M19.3 114.9h-4.1a2 2 0 0 1-2-2V6c0-1 .9-2 2-2h4c1.2 0 2 1 2 2v106.8q-.1 1.8-2 2m93.6.1h-4a2 2 0 0 1-2-2V6c0-1 .8-2 2-2h4c1.1 0 2 1 2 2v106.8q-.2 1.8-2 2" style="fill:#d99b61"/><path d="M13.2 108v4.8q.2 1.8 2 2h4q1.9-.2 2-2v-4.7zm93.5 0v4.8c0 1.1 1 2 2 2h4.1q1.8-.2 2-2v-4.7z" style="fill:#bf7c4e"/><path d="M119 124H9a2 2 0 0 1-2-2v-8.2c0-1 1-2 2-2h110c1 0 2 1 2 2v8.2c0 1-1 2-2 2" style="fill:#d99b61"/><path d="M19.3 17.5h92.5V20H19.3zm0 19.9h92.5v2.5H19.3zm0 19.6h92.5v2.5H19.3zm0 19.4h92.5v2.5H19.3zm0 19.3h92.5v2.5H19.3z" style="fill:#ad7146"/><path d="M19.3 114.9h-4.1a2 2 0 0 1-2-2V6c0-1 .9-2 2-2h4c1.2 0 2 1 2 2v106.8q-.1 1.8-2 2m93.6.1h-4a2 2 0 0 1-2-2V6c0-1 .8-2 2-2h4c1.1 0 2 1 2 2v106.8q-.2 1.8-2 2" style="fill:#d99b61"/><path d="M13.2 108v4.8q.2 1.8 2 2h4q1.9-.2 2-2v-4.7zm93.5 0v4.8c0 1.1 1 2 2 2h4.1q1.8-.2 2-2v-4.7z" style="fill:#bf7c4e"/><path d="M119 124H9a2 2 0 0 1-2-2v-8.2c0-1 1-2 2-2h110c1 0 2 1 2 2v8.2c0 1-1 2-2 2" style="fill:#d99b61"/><path d="M24.9 90.4c-2 0-3.6 1.6-3.6 3.5v6.1a3.6 3.6 0 1 0 7.1 0v-6c0-2-1.6-3.6-3.5-3.6m8.1 0c-2 0-3.6 1.6-3.6 3.5v6.1a3.6 3.6 0 1 0 7.1 0v-6c0-2-1.6-3.6-3.5-3.6m8.1 0c-2 0-3.5 1.6-3.5 3.5v6.1c0 2 1.6 3.6 3.5 3.6 2 0 3.6-1.6 3.6-3.6v-6c0-2-1.6-3.6-3.6-3.6m10.2 0c-2 0-3.6 1.6-3.6 3.5v6.1a3.6 3.6 0 1 0 7.1 0v-6c0-2-1.6-3.6-3.5-3.6m8.1 0c-2 0-3.5 1.6-3.5 3.5v6.1c0 2 1.6 3.6 3.5 3.6 2 0 3.6-1.6 3.6-3.6v-6c0-2-1.6-3.6-3.6-3.6m8.2 0c-2 0-3.6 1.6-3.6 3.5v6.1a3.6 3.6 0 1 0 7.1 0v-6c0-2-1.6-3.6-3.5-3.6m11.7 0c-2 0-3.6 1.6-3.6 3.5v6.1c0 2 1.6 3.6 3.5 3.6 2 0 3.6-1.6 3.6-3.6v-6c0-2-1.6-3.6-3.5-3.6m7.6 0c-2 0-3.6 1.6-3.6 3.5v6.1a3.6 3.6 0 1 0 7.1 0v-6c0-2-1.6-3.6-3.5-3.6m7.6 0c-2 0-3.5 1.6-3.5 3.5v6.1c0 2 1.6 3.6 3.5 3.6 2 0 3.6-1.6 3.6-3.6v-6c0-2-1.6-3.6-3.6-3.6m7.6 0c-2 0-3.5 1.6-3.5 3.5v6.1c0 2 1.6 3.6 3.5 3.6 2 0 3.6-1.6 3.6-3.6v-6c0-2-1.6-3.6-3.6-3.6" style="fill:#1976d2"/><path d="M24.9 71.1c-2 0-3.6 1.6-3.6 3.6v6a3.6 3.6 0 1 0 7.1 0v-6c0-2-1.6-3.6-3.5-3.6m8.1 0c-2 0-3.6 1.6-3.6 3.6v6a3.6 3.6 0 1 0 7.1 0v-6c0-2-1.6-3.6-3.5-3.6m8.1 0c-2 0-3.5 1.6-3.5 3.6v6c0 2 1.6 3.6 3.5 3.6 2 0 3.6-1.6 3.6-3.5v-6.1c0-2-1.6-3.6-3.6-3.6m8.2 0c-2 0-3.6 1.6-3.6 3.6v6c0 2 1.6 3.6 3.5 3.6 2 0 3.6-1.6 3.6-3.5v-6.1c0-2-1.6-3.6-3.5-3.6m13.2 0c-2 0-3.6 1.6-3.6 3.6v6a3.6 3.6 0 1 0 7.1 0v-6c0-2-1.6-3.6-3.5-3.6m7.9 0c-2 0-3.6 1.6-3.6 3.6v6a3.6 3.6 0 1 0 7.1 0v-6c0-2-1.5-3.6-3.5-3.6m7.9 0c-2 0-3.5 1.6-3.5 3.6v6c0 2 1.6 3.6 3.5 3.6 2 0 3.6-1.6 3.6-3.5v-6.1c0-2-1.6-3.6-3.6-3.6m8 0c-2 0-3.6 1.6-3.6 3.6v6a3.6 3.6 0 1 0 7.1 0v-6c0-2-1.6-3.6-3.5-3.6m7.9 0c-2 0-3.6 1.6-3.6 3.6v6a3.6 3.6 0 1 0 7.1 0v-6c0-2-1.5-3.6-3.5-3.6m7.9 0c-2 0-3.5 1.6-3.5 3.6v6c0 2 1.6 3.6 3.5 3.6 2 0 3.6-1.6 3.6-3.5v-6.1c0-2-1.6-3.6-3.6-3.6" style="fill:#689f38"/><path d="M24.9 51.7c-2 0-3.6 1.6-3.6 3.6v6a3.6 3.6 0 1 0 7.1 0v-6c0-2-1.6-3.6-3.5-3.6m8.1 0c-2 0-3.6 1.6-3.6 3.6v6a3.6 3.6 0 1 0 7.1 0v-6c0-2-1.6-3.6-3.5-3.6m8.1 0c-2 0-3.5 1.6-3.5 3.6v6c0 2 1.6 3.6 3.5 3.6 2 0 3.6-1.6 3.6-3.5v-6.1c0-2-1.6-3.6-3.6-3.6m8.2 0c-2 0-3.6 1.6-3.6 3.6v6c0 2 1.6 3.6 3.5 3.6 2 0 3.6-1.6 3.6-3.5v-6.1c0-2-1.6-3.6-3.5-3.6m8.1 0c-2 0-3.6 1.6-3.6 3.6v6a3.6 3.6 0 1 0 7.1 0v-6c0-2-1.6-3.6-3.5-3.6m8.1 0c-2 0-3.5 1.6-3.5 3.6v6c0 2 1.6 3.6 3.5 3.6 2 0 3.6-1.6 3.6-3.5v-6.1c0-2-1.6-3.6-3.6-3.6m8.2 0c-2 0-3.6 1.6-3.6 3.6v6a3.6 3.6 0 1 0 7.1 0v-6c0-2-1.6-3.6-3.5-3.6m8.1 0c-2 0-3.6 1.6-3.6 3.6v6a3.6 3.6 0 1 0 7.1 0v-6c0-2-1.5-3.6-3.5-3.6m8.2 0c-2 0-3.6 1.6-3.6 3.6v6c0 2 1.6 3.6 3.5 3.6 2 0 3.6-1.6 3.6-3.5v-6.1c0-2-1.6-3.6-3.6-3.6m12.2 0c-2 0-3.5 1.6-3.5 3.6v6c0 2 1.6 3.6 3.5 3.6 2 0 3.6-1.6 3.6-3.5v-6.1c0-2-1.6-3.6-3.6-3.6" style="fill:#ffca28"/><path d="M24.9 32.1c-2 0-3.6 1.6-3.6 3.6v6a3.6 3.6 0 1 0 7.1 0v-6c0-2-1.6-3.6-3.5-3.6m8 0c-2 0-3.6 1.6-3.6 3.6v6a3.6 3.6 0 1 0 7.1 0v-6c0-2-1.5-3.6-3.5-3.6m10.1 0a3.6 3.6 0 0 0-3.5 3.6v6a3.6 3.6 0 1 0 7.1 0v-6c0-2-1.6-3.6-3.5-3.6m13.3 0c-2 0-3.6 1.6-3.6 3.6v6a3.6 3.6 0 1 0 7.1 0v-6c0-2-1.6-3.6-3.5-3.6m7.8 0c-2 0-3.6 1.6-3.6 3.6v6a3.6 3.6 0 1 0 7.1 0v-6c0-2-1.6-3.6-3.5-3.6m7.8 0c-2 0-3.6 1.6-3.6 3.6v6a3.6 3.6 0 1 0 7.1 0v-6c0-2-1.6-3.6-3.5-3.6m7.8 0c-2 0-3.6 1.6-3.6 3.6v6a3.6 3.6 0 1 0 7.1 0v-6c0-2-1.6-3.6-3.5-3.6m7.8 0c-2 0-3.6 1.6-3.6 3.6v6a3.6 3.6 0 1 0 7.1 0v-6c0-2-1.6-3.6-3.5-3.6m7.8 0c-2 0-3.6 1.6-3.6 3.6v6a3.6 3.6 0 1 0 7.1 0v-6c0-2-1.6-3.6-3.5-3.6m7.8 0c-2 0-3.6 1.6-3.6 3.6v6a3.6 3.6 0 1 0 7.1 0v-6c0-2-1.6-3.6-3.5-3.6" style="fill:#f57c00"/><path d="M24.9 12.2c-2 0-3.6 1.6-3.6 3.5v6.1a3.6 3.6 0 1 0 7.1 0v-6c0-2-1.6-3.6-3.5-3.6m7.6 0c-2 0-3.6 1.6-3.6 3.5v6.1a3.6 3.6 0 1 0 7.1 0v-6c0-2-1.6-3.6-3.5-3.6m7.6 0c-2 0-3.6 1.6-3.6 3.5v6.1a3.6 3.6 0 1 0 7.1 0v-6c0-2-1.6-3.6-3.5-3.6m7.6 0c-2 0-3.5 1.6-3.5 3.5v6.1c0 2 1.6 3.6 3.5 3.6 2 0 3.6-1.6 3.6-3.6v-6c0-2-1.6-3.6-3.6-3.6m7.7 0c-2 0-3.6 1.6-3.6 3.5v6.1a3.6 3.6 0 1 0 7.1 0v-6c0-2-1.6-3.6-3.5-3.6m10.1 0c-2 0-3.5 1.6-3.5 3.5v6.1c0 2 1.6 3.6 3.5 3.6 2 0 3.6-1.6 3.6-3.6v-6c0-2-1.6-3.6-3.6-3.6m8.2 0c-2 0-3.6 1.6-3.6 3.5v6.1a3.6 3.6 0 1 0 7.1 0v-6c0-2-1.6-3.6-3.5-3.6m13.2 0c-2 0-3.6 1.6-3.6 3.5v6.1a3.6 3.6 0 1 0 7.1 0v-6c0-2-1.6-3.6-3.5-3.6m8.1 0c-2 0-3.5 1.6-3.5 3.5v6.1c0 2 1.6 3.6 3.5 3.6 2 0 3.6-1.6 3.6-3.6v-6c0-2-1.6-3.6-3.6-3.6m8.2 0c-2 0-3.6 1.6-3.6 3.5v6.1a3.6 3.6 0 1 0 7.1 0v-6c0-2-1.6-3.6-3.5-3.6" style="fill:#d82521"/><path d="M22.5 93.7c0 .7-.4 3.8 2.3 3.8s2.2-3 2.2-3.8q.1-.8-.4-1.6a2 2 0 0 0-2.6-.8c-1.3.4-1.5 1.9-1.5 2.4m8.2.5c0 .7.1 3.3 2.3 3 2.7-.3 2.5-2.7 2.5-3.5q0-.8-.7-2c-.4-.4-1.5-1-2.8-.4s-1.3 2.4-1.4 2.9m8.1-.2c0 .7.1 2.9 2.3 3.1 2.5.3 2.6-2.3 2.5-3.5 0-.5-.7-2.7-2.8-2.4-2 .2-2 2.3-2 2.8m26.6-.3c0 .7-.4 3.8 2.3 3.8s2.2-3 2.2-3.8q.1-.8-.4-1.6a2 2 0 0 0-2.6-.8c-1.2.4-1.5 1.9-1.5 2.4m19.3 0c0 .7-.3 3.8 2.4 3.8s2.1-3 2.1-3.8q.1-.8-.4-1.6a2 2 0 0 0-2.6-.8c-1.2.4-1.4 1.9-1.5 2.4m-27.6.5c0 .7.2 2.8 2.5 3 2.5.3 2.4-2.7 2.4-3.5q0-.8-.6-2c-.4-.4-1.6-1-2.8-.4S57 93.7 57 94.2m19.9 0c0 .7.1 2.8 2.3 3 2.5.3 2.5-2.7 2.5-3.5q0-.8-.7-2c-.4-.4-1.5-1-2.8-.4s-1.3 2.4-1.4 2.9" style="fill:#2196f3"/><path d="M46.9 74.8c0 .6.1 2.6 2.3 2.8 2.5.2 2.5-2.5 2.5-3.2q0-1-.7-1.8c-.4-.5-1.5-1-2.8-.4s-1.3 2.1-1.4 2.5" style="fill:#8bc34a"/><path d="M48.9 94c0 .7.1 2.9 2.3 3.1 2.5.3 2.6-2.3 2.5-3.5 0-.5-.7-2.7-2.8-2.4s-2 2.3-2 2.8" style="fill:#2196f3"/><path d="M38.9 74.3c-.2 1-.1 3.6 2.3 3.6 2.6 0 2.2-2.8 2.1-3.5-.2-2.2-1.7-2.8-3-2.4-1.2.4-1.3 1.9-1.4 2.3" style="fill:#8bc34a"/><path d="M38.9 55c-.2 1-.1 3.5 2.3 3.5 2.7 0 2.3-2.8 2.2-3.5-.3-2.1-1.8-2.7-3-2.3-1.3.3-1.4 1.8-1.5 2.2m8.1.1c-.2 1 0 3.5 2.3 3.5 2.7 0 2.3-2.8 2.2-3.5q-.4-2.5-2.2-2.5c-2 0-2.2 2-2.3 2.4" style="fill:#ffeb3b"/><path d="M30.6 75c0 .7.2 3 2.4 3 2.5 0 2.5-2.7 2.5-3.4q0-1-.7-2c-.4-.4-1.5-1-2.8-.4s-1.3 2.3-1.4 2.8m-8.2-.2c0 .7.2 2.9 2.4 3.1 2.4.3 2.6-2.3 2.4-3.5 0-.5-.6-2.7-2.7-2.4-2 .2-2 2.3-2 2.8" style="fill:#8bc34a"/><path d="M45.3 16c0 .6.2 2.5 2.4 2.8 2.5.2 2.5-2.5 2.4-3.2q0-1-.6-1.9c-.4-.4-1.6-1-2.8-.4s-1.4 2.2-1.4 2.6m17.8.1c0 .6.2 2.5 2.4 2.8 2.5.2 2.5-2.5 2.4-3.2q0-1-.6-1.9c-.4-.4-1.6-1-2.8-.4S63 15.5 63 16m13.5 0c0 .6-.2 2.5-2.5 2.8-2.6.2-2.5-2.5-2.5-3.2q-.1-1 .7-1.9c.4-.4 1.6-1 2.9-.4s1.4 2.2 1.4 2.6m-38.8-.4c-.3 1-.1 3.6 2.3 3.6 2.6 0 2.2-2.9 2.1-3.6-.3-2-1.7-2.7-3-2.3-1.2.4-1.4 1.9-1.5 2.3m-7.6.7c0 .7.1 3 2.4 3 2.5 0 2.5-2.7 2.4-3.4q0-1-.6-2c-.4-.5-1.6-1-2.8-.4S30 15.7 30 16.2m62.9-.9c-.4 1-.6 3.5 1.8 3.8 2.7.3 2.6-2.6 2.6-3.3 0-2.2-1.4-3-2.7-2.6-1.3.2-1.6 1.6-1.7 2m-8.6 1c0 .7.2 3 2.4 3 2.5 0 2.5-2.7 2.5-3.4q0-1-.7-2c-.4-.5-1.5-1-2.8-.4s-1.3 2.3-1.4 2.8m16.7.1c0 .7.3 3 2.6 3 2.4-.2 2.2-3 2.2-3.7q0-.9-.9-1.9c-.4-.4-1.6-1-2.8-.3-1 .7-1.1 2.4-1.1 3m-47.7.1c0 .6.5 3 2.7 2.7 2.5-.2 2.1-3 2-3.7q0-1-1-1.9c-.4-.4-1.6-.9-2.8 0-1 .6-1 2.3-1 2.8M22.4 16c0 .7.2 2.8 2.4 3 2.4.4 2.6-2.2 2.4-3.4 0-.6-.6-2.7-2.7-2.5-2 .3-2 2.4-2 3" style="fill:#f44336"/><path d="M30.4 55.5c0 .7.1 3 2.4 3 2.5 0 2.5-2.7 2.4-3.4q0-1-.6-2c-.4-.5-1.6-1-2.8-.4s-1.4 2.3-1.4 2.8m49.2-.5c-.2 1-.1 3.5 2.3 3.5 2.7 0 2.3-2.8 2.2-3.5-.3-2.1-1.8-2.7-3-2.3-1.3.3-1.4 1.8-1.5 2.2m-8.5.6c0 .7.2 3 2.4 3 2.5 0 2.5-2.7 2.4-3.4q0-1-.6-2c-.4-.5-1.6-1-2.8-.4S71.2 55 71 55.5m16.5 0c0 .7.2 3 2.4 3 2.5 0 2.5-2.7 2.4-3.4q.1-1-.6-2c-.4-.5-1.6-1-2.8-.4s-1.3 2.3-1.4 2.8m-32.5.2c0 .6.4 2.8 2.6 2.8s2.2-2.9 2.2-3.6q0-1-.9-2c-.4-.4-1.6-.9-2.8-.1-1.1.6-1.1 2.4-1.1 2.9m-32.5-.3c0 .7.1 2.9 2.3 3.1 2.5.3 2.6-2.3 2.5-3.5 0-.6-.7-2.7-2.7-2.5s-2.1 2.4-2.1 3m40.6-.1c0 .7.1 3.1 2.4 3.1 2.5 0 2.6-2.3 2.4-3.5 0-.6-.6-2.7-2.7-2.5s-2 2.4-2.1 3m36.6-.1c0 .7.1 3.1 2.4 3.1 2.5 0 2.6-2.3 2.4-3.5 0-.6-.6-2.7-2.7-2.5s-2 2.4-2 3" style="fill:#ffeb3b"/><path d="M62 35c-.3 1-.2 3.6 2.2 3.6 2.7 0 2.3-2.8 2.2-3.5-.3-2.1-1.7-2.7-3-2.3-1.2.4-1.4 1.8-1.5 2.3m15.5.6c0 .7 0 3 2.3 3 2.5.1 2.5-2.6 2.5-3.4q0-1-.7-2c-.4-.4-1.5-1-2.8-.4s-1.3 2.3-1.3 2.8m15.6 0c-.1.7 0 3 2.3 3 2.5.1 2.5-2.6 2.4-3.4q0-1-.6-2c-.4-.4-1.6-1-2.8-.4s-1.3 2.3-1.4 2.8m-7.8 0c0 .7.1 3 2.4 3 2.4.1 2.4-2.6 2.4-3.4q0-1-.6-2c-.4-.4-1.6-1-2.8-.4S85 35.2 85 35.7m-31-.1c0 .6 0 3 2.3 3 2.6 0 2.6-2.3 2.5-3.5-.1-.5-.7-2.7-2.8-2.4s-2 2.3-2 2.8m-13.4.1c0 .7.2 3.1 2.4 3.1 2.5 0 2.6-2.3 2.5-3.5-.1-.6-.7-2.7-2.8-2.5s-2 2.4-2 3m28.8-.1c0 .6.2 3 2.4 3 2.5 0 2.6-2.3 2.5-3.5-.1-.5-.7-2.7-2.8-2.4s-2 2.3-2 2.8m31.1.1c0 .6.2 3 2.4 3 2.5 0 2.6-2.3 2.5-3.5-.1-.5-.7-2.7-2.8-2.4s-2 2.3-2 2.8m-78.4.2c0 .7.2 3 2.4 3 2.5.1 2.5-2.6 2.4-3.4q.1-1-.6-2c-.4-.4-1.6-1-2.8-.4s-1.3 2.3-1.4 2.8m8.1-.5c-.1.7-.4 3 1.8 3.4 2.6.3 3-2 3-3.1 0-.6-.1-2.8-2.2-2.9-2.2 0-2.5 2.1-2.6 2.6" style="fill:#ff9800"/><path d="M68 74.8c0 .6.2 2.6 2.4 2.8 2.5.2 2.4-2.5 2.4-3.2q0-1-.6-1.8c-.4-.5-1.6-1-2.8-.4S68 74.3 68 74.7m15.9.1c0 .6.1 2.6 2.3 2.8 2.5.2 2.5-2.5 2.5-3.2q0-1-.7-1.8c-.4-.5-1.5-1-2.8-.4-1.1.5-1.3 2.1-1.3 2.5m-7.9-.5c-.1 1 0 3.5 2.4 3.6 2.7 0 2.3-2.9 2.2-3.6-.3-2.1-1.7-2.7-3-2.3s-1.4 1.8-1.5 2.3m15.7.8c0 .7.1 3 2.4 3 2.4 0 2.4-2.7 2.4-3.4q0-1-.6-2c-.4-.4-1.6-1-2.8-.4s-1.4 2.3-1.4 2.8m-31.6-.2c0 .7.1 2.9 2.3 3.1 2.5.3 2.6-2.3 2.5-3.5 0-.5-.7-2.7-2.8-2.4-2 .2-2 2.3-2 2.8m39.5 0c0 .7.2 2.9 2.4 3.1 2.4.3 2.6-2.3 2.4-3.5 0-.5-.6-2.7-2.7-2.4-2 .2-2 2.3-2 2.8" style="fill:#8bc34a"/><path d="M92 94c0 .7 0 3.8 2.5 3.5s2.5-2.7 2.4-3.9c0-.5-.6-2.7-2.7-2.4s-2 2.3-2.1 2.8m7.6 0c0 .8.2 2.9 2.4 3.1 2.4.3 2.6-2.2 2.4-3.4 0-.6-.6-2.8-2.7-2.5-2 .2-2 2.4-2 2.9" style="fill:#2196f3"/></svg>