<svg width="16" height="16" viewBox="0 0 128 128"><path fill="currentColor" d="M-49.5 109.1c7.3-9.2 8-22 8-36.2 0-28-24-50.7-53.5-50.7S-148.5 45-148.5 73c0 14.2.6 27 8 36.3h.2a91 91 0 0 1 3.5-24.7c3-.5 5.2-3 5.2-6q0-1.6-1-3l2.4.4c2.9 0 5.3-2 6-4.6a6 6 0 0 0 5.5 3.3c3.3 0 6-2.5 6.2-5.6.5 3 3 5.2 6.3 5.2q3.8-.2 5.6-3.4c1 2.1 3.1 3.6 5.7 3.6a6 6 0 0 0 5.5-3.3q1.7 3 5.5 3.1a6 6 0 0 0 6.1-5.2c.3 3.1 3 5.6 6.3 5.6q3.8-.1 5.5-3.3a6.2 6.2 0 0 0 9 3.8 6 6 0 0 0-.8 3c0 2.9 2 5.2 4.6 6 2 8.3 3.8 18.3 3.7 25"/><path d="m-141.7 99.6-.2-3.7c-.2-1.4 0-2.3-1.3-3.3q-1.7-1.1-3.8-.8-1.6.5-2.4 2a4 4 0 0 0-.2 3.2 4 4 0 0 0 2.3 2.4q.7.3 1.6.2c-.8 0-1.3 2-1.3 2.5q0 1.6 1.2 2.5l2.3 1.3q1.1.6 1.8 1.8c-.4-1 0-2.7 0-3.6zm94.2 0 .2-3.7c.1-1.4 0-2.3 1.2-3.3q1.7-1.1 3.8-.8 1.7.5 2.4 2a4 4 0 0 1 .2 3.2 4 4 0 0 1-2.3 2.4q-.7.3-1.5.2c.7 0 1.2 2 1.2 2.5q0 1.6-1.2 2.5l-2.2 1.3c-1.2.6-3.5 2.5-3.8 3.2.4-.9 1-5.9 1-6.8-.2-1.5.9-1.2 1-2.7m-99.8-7.2a5 5 0 0 0 4.2-5.2c-.2-2-1.8-3.6-3.8-4a5 5 0 0 0 3.3-5c-.3-2.5-2.7-4.4-5.4-4.1s-4.6 2.5-4.2 5.2q.5 3.1 3.5 4c-2 .7-3.3 2.6-3 4.9a4.7 4.7 0 0 0 5.4 4.2m-1.2-18.4q2 0 3.4-1.3 1.6-1.2 1.6-3 0-.8-.3-1.7-.2-.7-.8-1.5t-1.8-1.3a5 5 0 0 0 3.7-2.2q.4-.7.6-1.6a5 5 0 0 0-3.8-5.5 5 5 0 0 0-3.7.6 5 5 0 0 0-2 3.3 5 5 0 0 0 0 2q.3 1 1 1.7.5.8 1.4 1.2a4.5 4.5 0 0 0-4 4.3 5 5 0 0 0 1.3 3.7q1.3 1.3 3.4 1.3m12.1-33.9q-1.7-1.1-3.6-.8-1.9.5-3.2 2.3a5 5 0 0 0-.4 3.8q.3 1 1 1.7-1.3-.3-2.4 0a5 5 0 0 0-3 2.5q-.4 1-.5 2t.4 1.9a5 5 0 0 0 2.7 2.6q2 .6 3.7 0 .8-.3 1.4-1 .7-.5 1-1.2.8-1.6.2-3.4a5 5 0 0 0-1.1-2q1.3.4 2.7 0 1.6-.4 2.7-1.9.9-1.6.4-3.4-.4-1.9-2-3m11.4-13.5q-2.2-.4-3.8 1a5 5 0 0 0-1.8 3.4q0 1 .3 1.9c-1.7-1.2-4-1-5.8.5-2 2-2 5.2 0 6.9 2.1 1.7 5 1.8 6.7.1 1.4-1.2 1.7-3.4.9-5.3 1.8 1.3 4.3 1.4 5.8 0q1.3-1 1.6-3 .2-1.7-.9-3.6a5 5 0 0 0-3-2m18.1-6.9a5 5 0 0 0-5.5.8 5 5 0 0 0-1.4 3.5q-.7-1-1.8-1.5-.9-.4-1.9-.4a5 5 0 0 0-4.6 3.2q-.6 2 .4 3.7c1 1.7 1.6 2 2.7 2.4q1.8.7 3.4 0l1.4-1q.6-.7 1-1.5.4-1 .3-2.2a5 5 0 0 0 5.4 2q1.8-.8 2.5-2.4 1-1.6.4-3.7a5 5 0 0 0-2.3-3m19.5-.6-1.6-1q-1-.4-2-.4-2.2.1-3.4 1.6-.6.6-1 1.6a4.7 4.7 0 0 0-8.2-1.3q-1 1.6-.9 3.6.5 2 1.9 3.2a5 5 0 0 0 3.2 1c2 0 3.5-1.6 4-3.6a6 6 0 0 0 1.5 2.3 4 4 0 0 0 3.1 1.3l.9-.2.8-.2q.8-.4 1.4-1 1.4-1.2 1.6-3.4 0-2-1.3-3.5m15.8 3a4 4 0 0 0-2-.1q-1 0-1.9.6a4 4 0 0 0-1.3 1.3c0-2.1-1.4-4.1-3.6-4.6a5 5 0 0 0-3.8.6q-1.6 1.1-2 3.2c-.4 2 .1 2.6.8 3.5q.9 1.6 2.7 2.1 1.7.4 3.3-.6 1-.5 1.7-1.5 0 1.5.5 2.6.5.8 1.1 1.3t1.5 1q1.7.4 3.4-.4t2.6-2.7c1-2.5-.3-5.3-3-6.2m18.6 14a5 5 0 0 0-1.8-3.3 5 5 0 0 0-3.7-1q-1 .2-1.7.8a4.8 4.8 0 0 0-5.7-6.1 5 5 0 0 0-3 2.3 5 5 0 0 0-.4 3.6q.3 1.8 1.9 2.8c1.5 1 3.7.9 5.4-.4q-.5 1.5-.3 2.8a4 4 0 0 0 1.6 2.8c1.8 1.5 4.8 1.2 6.6-.7q1.4-1.6 1.2-3.6m2 17.6q.6.7 1.3 1.2t1.5.8q1.8.5 3.7-.4a4.6 4.6 0 0 0 1.7-6.7 4.4 4.4 0 0 0-5-2q.8-1 1-2.2.4-2-.9-3.7a5 5 0 0 0-3.3-2q-2 0-3.5 1.2-1.5 1.5-1.7 3.3-.4 1.9.8 3.3a5 5 0 0 0 5.1 1.5 5 5 0 0 0-1.2 2.4q-.4 1.8.5 3.3m6.1 1.8a5 5 0 0 0-2.8 2.4 5 5 0 0 0-.4 3.4q.5 1.6 2.1 2.6 1 .5 2.1.7-1.2.6-2 1.7l-.7 1.6v1.7q.3 1.6 1.9 2.8t3.5 1q2.1-.1 3.2-1.8 1.2-1.5 1-3.7-.2-1.2-.9-2l-1.4-1.2q-.8-.6-1.7-.7 1-.4 1.7-1.5 1.1-1.7.5-3.8a4.6 4.6 0 0 0-6.1-3.2m4.5 27.2c2-.5 3.5-2.3 3.6-4.5 0-2.6-2.2-4.7-4.8-4.7-2.7 0-4.9 2-5 4.6 0 2 1.4 3.8 3.4 4.5A5 5 0 0 0-47 87c0 2.4 2.1 4.5 4.8 4.7s5-2 5-4.7c0-2.1-1.4-3.8-3.2-4.4"/><path fill="none" stroke="currentColor" stroke-dasharray="0.9,7" stroke-linecap="round" stroke-miterlimit="10" stroke-width="8" d="M-204.5 109.2c-7.3-9.2-8-22-8-36.3 0-28 24-50.7 53.5-50.7S-105.5 45-105.5 73c0 14-.7 26.6-7.7 35.8"/><path fill="currentColor" d="M-263.4 82.7c2-.5 3.5-2.3 3.5-4.5 0-2.6-2.1-4.7-4.8-4.7h.5q2-.3 3.2-1.8 1.1-1.6.9-3.8-.1-1-.8-2l-1.4-1.2q-.8-.6-1.8-.6 1.1-.6 1.8-1.6 1-1.6.5-3.8a5 5 0 0 0-2.4-3 5 5 0 0 0-3.7-.2l.4-.2a4.6 4.6 0 0 0 1.7-6.7 4.4 4.4 0 0 0-5-2q.7-1 1-2.1.4-2-.9-3.8t-3.3-2c-2-.2-2.6.4-3.5 1.3q0-.2.3-.4 1.4-1.5 1.1-3.5a5 5 0 0 0-1.8-3.3 5 5 0 0 0-3.8-1q-1 .3-1.7.8a4.8 4.8 0 0 0-5.7-6.1 5 5 0 0 0-2.9 2.2l.2-.4c1.1-2.5-.3-5.2-3-6.2a4 4 0 0 0-2-.2l-1.8.6q-.9.5-1.4 1.3c0-2-1.3-4-3.5-4.6a5 5 0 0 0-3.8.6q-1.6 1.1-2 3.2v-.5q.2-2-1.2-3.4a5 5 0 0 0-1.6-1.2q-1-.3-2-.3-2.2.1-3.5 1.6-.6.7-.9 1.6a4.7 4.7 0 0 0-8.2-1.3q-1.2 1.6-.9 3.6v-.4a5 5 0 0 0-2.4-3 5 5 0 0 0-5.6.9 5 5 0 0 0-1.3 3.4q-.8-.9-1.8-1.5-1-.4-2-.4a5 5 0 0 0-4.5 3.2q-.6 2 .3 3.7l-.2-.3a5 5 0 0 0-3.1-2q-2-.3-3.8 1a5 5 0 0 0-1.7 3.4q0 1 .3 1.9c-1.7-1.1-4-1-5.8.5-2 2-2 5.2 0 7l-.3-.4q-1.7-1.2-3.6-.7t-3.2 2.2a5 5 0 0 0-.4 3.9q.2.9.9 1.6-1.2-.3-2.4 0a5 5 0 0 0-2.9 2.5q-.5 1-.5 2t.4 2q.7 1.6 2.6 2.5l-.4-.2a5 5 0 0 0-3.7.6 5 5 0 0 0-2 3.3 5 5 0 0 0 0 2q.3 1 .9 1.7.6.8 1.5 1.2a4.5 4.5 0 0 0-4 4.3 5 5 0 0 0 1.2 3.7q1.4 1.4 3.5 1.4h-.5a4.7 4.7 0 0 0-4.3 5.2c.2 2 1.7 3.6 3.5 4a5 5 0 0 0-3 4.9 5 5 0 0 0 4.6 4.2q-.8.6-1.2 1.4a4 4 0 0 0-.2 3.2 4 4 0 0 0 2.3 2.4q.8.3 1.5.2c-.7 0-1.2 2-1.2 2.5q0 1.5 1.2 2.5l2.2 1.3c1.2.6 1.5 1 1.8 1.8v-.3l1.3 1.8h.1a91 91 0 0 1 3.6-24.7 6 6 0 0 0 5.1-6q0-1.6-.8-3 1 .4 2.2.4c3 0 5.4-2 6-4.5q1.8 3 5.6 3.2c3.3 0 6-2.5 6.2-5.6a6.3 6.3 0 0 0 11.8 1.9c1 2 3.2 3.5 5.8 3.5q3.8-.2 5.5-3.3 1.6 3 5.4 3.2c3.2 0 5.8-2.3 6.2-5.3.3 3.1 3 5.6 6.3 5.6q3.7-.2 5.5-3.2a6.2 6.2 0 0 0 9 3.7 6 6 0 0 0-.8 3c0 2.9 2 5.2 4.6 6 2 8.3 3.8 18.3 3.7 25l.3-.4c.8-1 2.8-2.4 3.5-2.8l2.2-1.3q1.1-1 1.2-2.5c0-.6-.5-2.4-1.3-2.5q.9 0 1.6-.2a4 4 0 0 0 2.3-2.4q.6-1.7-.2-3.2-.7-1.5-2.4-2h-.3.4c2.7.2 5-2 5-4.7q-.2-3.3-3.1-4.4m4.8-4.9q0-2.7-1.6-4.7a8 8 0 0 0 1.3-5.8q-.2-1.5-1.3-3.1l-.8-1q1-2.3.3-5.2-.8-3-3.2-4.5l.3-1.4v-.2a8 8 0 0 0-1.3-4.5q-1.3-2-3.3-3 0-2.8-1.6-5a8 8 0 0 0-4.6-2.8 7 7 0 0 0-3-5.4 8 8 0 0 0-4.2-1.5q-.7-2.4-3-4a8 8 0 0 0-5.4-1.2 8 8 0 0 0-6.8-4.4l-2.2.3a7 7 0 0 0-4.4-2.8l-1.9-.2q-1.8 0-3.4.8a8 8 0 0 0-2.4-1.6h-.1q-1.4-.6-2.9-.6h-.3q-2.4 0-4.1 1.4A8 8 0 0 0-323 16h-.4a7 7 0 0 0-3.3 1l-1.7 1.4a8 8 0 0 0-6-.4h-.1a7 7 0 0 0-3.6 2.6l-1.9-.3h-.2a8 8 0 0 0-6.9 4.5 8 8 0 0 0-6 1.8 8 8 0 0 0-2.3 3.6 8 8 0 0 0-4.7 2l-.2.1a8 8 0 0 0-2.2 4.8 8 8 0 0 0-5 3.5l-.1.2q-1 2-1 4.3a8 8 0 0 0-4.5 6.8q0 1.1.3 2.3a8 8 0 0 0-3.2 8.3v.2l.4 1.2-1.2 1.5q-.7 1.5-.9 3.2a8 8 0 0 0 1.4 5.1 7 7 0 0 0-1.5 5.5q.3 2.1 1.6 3.8-1.3 2.1-1 4.7a8 8 0 0 0 3 5.4q-.6 1.9.2 3.9v.1a7 7 0 0 0 2.4 3.1v.7q0 2.9 2.1 4.7l2.1 1.3.6.3.6.5c1.2 2.1 2.6 2.8 2.6 2.8v-4.2q-.5-1.1-1.8-1.7a7 7 0 0 1-2.1-1.3 3 3 0 0 1-1.2-2.4c0-1.3 1-2.4 1-2.4l-1.3-.2q-1.6-.6-2.2-2.3a4 4 0 0 1 .2-3.2q.5-.8 1.1-1.3a4.5 4.5 0 0 1-4.4-4.1q-.1-3.5 3-4.7a4.6 4.6 0 0 1 .7-9s-1.6-.2-2.9-1.3a5 5 0 0 1-1.2-3.6q0-1 .5-1.9t1.3-1.4q1-.7 2-.9-.8-.3-1.4-1.1-.6-.7-.9-1.7a5 5 0 0 1 0-2q.5-2 2-3.1a5 5 0 0 1 3.6-.6c.1 0-1.5-.8-2.2-2.3q-.3-.9-.3-1.9t.5-1.9a5 5 0 0 1 2.8-2.5 4 4 0 0 1 2.3 0q-.6-.7-1-1.5-.5-1.9.5-3.8a5 5 0 0 1 4-2.3q1.4 0 2.6.9s-2.2-3.5.3-6.4a5 5 0 0 1 3.2-1.3q1.3 0 2.4.8l-.3-1.8q.1-1.9 1.7-3.3a4 4 0 0 1 3.6-1q1.9.3 3 1.9c.1.1-.4-2 0-3.3a5 5 0 0 1 4.5-3.1l1.7.4q1 .6 1.8 1.5 0-1 .3-1.8.4-1 1-1.6t1.7-1q.7-.3 1.6-.3 1.2 0 2 .5 1.8.9 2.3 2.8c0 .2 0-1.7 1-3a5 5 0 0 1 3.3-1.8h.2c2.2 0 3.9 1.3 4.5 3l.8-1.5q1.3-1.4 3.4-1.5h.2q1 0 1.7.3l1.6 1q1.3 1.5 1.2 3.5c0 .1.9-2 1.9-2.7a4 4 0 0 1 2.4-.7l1.2.2c2.3.4 3.6 2.4 3.5 4.4q.6-.8 1.4-1.2a5 5 0 0 1 3.7-.5c2.6 1 4 3.6 2.9 6-.1.2.8-1 2.6-1.7q.5-.2 1.1-.2 1.4 0 2.6.8a5 5 0 0 1 1.8 5.3 4 4 0 0 1 2.4-.8q1.5 0 2.8 1 1.8 1.3 1.9 3.3.2 1.9-1.2 3.4s1.7-1 2.7-1l.4.1q1.9.2 3.3 1.9a4.4 4.4 0 0 1-.2 5.6 4 4 0 0 1 1.9 0q1.9.3 3 2a5 5 0 0 1 .8 2.8q0 .6-.2 1a5 5 0 0 1-2.3 2.8l1.3-.2a4.4 4.4 0 0 1 4.3 3.4q.5 2.1-.5 3.7-.6 1-1.7 1.5a4 4 0 0 1 3 1.9q.7.7.8 1.8a5 5 0 0 1-.8 3.7c-.7 1-3.2 1.7-3.3 1.7s4.4.8 4.4 4.7c0 2.1-1.5 3.8-3.5 4.3q2.8 1.1 3 4.3c0 2.5-2 4.6-4.4 4.6-.2 0 1.3.4 1.8 1.9q.7 1.5.2 3.1-.6 1.8-2.2 2.3-.6.3-1.3.2s1.7 2.7-.2 4.8c-1 1.2-3.8 2-4.5 2.5l-.2 5.4s.7-1.3 1.5-2a39 39 0 0 1 5.1-3.5 6 6 0 0 0 2.2-5.5q1.6-1.1 2.4-3V97q.9-2.5 0-4.8l.4-.5a7.6 7.6 0 0 0 1-9.4q1.6-1.9 1.8-4.5"/><path d="M128 0h-4q-.9.1-1 1 0 1.2 1 1h4zm-12 0h-4q-.9.1-1 1 0 1.2 1 1h4q1 0 1-1c0-1-.4-1-1-1m-12 0h-4q-.9.1-1 1 0 1.2 1 1h4q1 0 1-1c0-1-.4-1-1-1M92 0h-4q-.9.1-1 1 0 1.2 1 1h4q1 0 1-1c0-1-.4-1-1-1M80 0h-4q-.9.1-1 1 0 1.2 1 1h4q1 0 1-1c0-1-.4-1-1-1M68 0h-4q-.9.1-1 1c-.1.9.5 1 1 1h4q1 0 1-1c0-1-.4-1-1-1M56 0h-4q-.9.1-1 1c-.1.9.5 1 1 1h4q1 0 1-1c0-1-.4-1-1-1M44 0h-4q-.9.1-1 1c-.1.9.5 1 1 1h4q1 0 1-1c0-1-.4-1-1-1M32 0h-4q-.9.1-1 1c-.1.9.5 1 1 1h4q1 0 1-1c0-1-.4-1-1-1M20 0h-4q-.9.1-1 1 0 1.2 1 1h4q1 0 1-1c0-1-.4-1-1-1M8 0H4q-.9.1-1 1c-.1.9.5 1 1 1h4q1 0 1-1c0-1-.4-1-1-1M1 3a1 1 0 0 0-1 1v4q.1 1 1 1 1.2 0 1-1V4q0-.9-1-1m0 12a1 1 0 0 0-1 1v4q.1 1 1 1 1.2 0 1-1v-4q0-.9-1-1m0 12a1 1 0 0 0-1 1v4q.1 1 1 1 1.2 0 1-1v-4q0-.9-1-1m0 12a1 1 0 0 0-1 1v4q.1 1 1 1 1.2 0 1-1v-4q0-.9-1-1m0 12a1 1 0 0 0-1 1v4q.1 1 1 1 1.2 0 1-1v-4q0-.9-1-1m0 12a1 1 0 0 0-1 1v4q.1 1 1 1 1.2 0 1-1v-4q0-.9-1-1m0 12a1 1 0 0 0-1 1v4q.1 1 1 1 1.2 0 1-1v-4q0-.9-1-1m0 12a1 1 0 0 0-1 1v4q.1 1 1 1 1.2 0 1-1v-4q0-.9-1-1m0 12a1 1 0 0 0-1 1v4q.1 1 1 1 1.2 0 1-1v-4q0-.9-1-1m0 12a1 1 0 0 0-1 1v4q.1 1 1 1 1.2 0 1-1v-4q0-.9-1-1m0 12a1 1 0 0 0-1 1v4h2v-4q0-.9-1-1m11 3H8q-.9.1-1 1 0 1.2 1 1h4q1 0 1-1c0-1-.4-1-1-1m12 0h-4q-.9.1-1 1c-.1.9.5 1 1 1h4q1 0 1-1c0-1-.4-1-1-1m12 0h-4q-.9.1-1 1c-.1.9.5 1 1 1h4q1 0 1-1c0-1-.4-1-1-1m12 0h-4q-.9.1-1 1c-.1.9.5 1 1 1h4q1 0 1-1c0-1-.4-1-1-1m12 0h-4q-.9.1-1 1c-.1.9.5 1 1 1h4q1 0 1-1c0-1-.4-1-1-1m12 0h-4q-.9.1-1 1 0 1.2 1 1h4q1 0 1-1c0-1-.4-1-1-1m12 0h-4q-.9.1-1 1 0 1.2 1 1h4q1 0 1-1c0-1-.4-1-1-1m12 0h-4q-.9.1-1 1 0 1.2 1 1h4q1 0 1-1c0-1-.4-1-1-1m12 0h-4q-.9.1-1 1 0 1.2 1 1h4q1 0 1-1c0-1-.4-1-1-1m12 0h-4q-.9.1-1 1 0 1.2 1 1h4q1 0 1-1c0-1-.4-1-1-1m7-3a1 1 0 0 0-1 1v4h2v-4q0-.9-1-1m0-12a1 1 0 0 0-1 1v4q.1 1 1 1 1.2 0 1-1v-4q0-.9-1-1m0-12a1 1 0 0 0-1 1v4q.1 1 1 1 1.2 0 1-1v-4q0-.9-1-1m0-12a1 1 0 0 0-1 1v4q.1 1 1 1 1.2 0 1-1v-4q0-.9-1-1m0-12a1 1 0 0 0-1 1v4q.1 1 1 1 1.2 0 1-1v-4q0-.9-1-1m0-12a1 1 0 0 0-1 1v4q.1 1 1 1 1.2 0 1-1v-4q0-.9-1-1m0-12a1 1 0 0 0-1 1v4q.1 1 1 1 1.2 0 1-1v-4q0-.9-1-1m0-12a1 1 0 0 0-1 1v4q.1 1 1 1 1.2 0 1-1v-4q0-.9-1-1m0-12a1 1 0 0 0-1 1v4q.1 1 1 1 1.2 0 1-1v-4q0-.9-1-1m0-12a1 1 0 0 0-1 1v4q.1 1 1 1 1.2 0 1-1v-4q0-.9-1-1m0-12a1 1 0 0 0-1 1v4q.1 1 1 1 1.2 0 1-1V4q0-.9-1-1"/><path fill="currentColor" d="M122.8 80.8v-1.1a4.5 4.5 0 0 0-4.3-4.6V75a4.5 4.5 0 0 0 4-5l-.1-1a4.6 4.6 0 0 0-4.5-4v-.2c2-.9 3.1-3.1 2.5-5.3l-.3-1c-.6-2-2.7-3.4-4.9-3.2l-.1-.3a4.4 4.4 0 0 0 1.3-5.6l-.5-1a5 5 0 0 0-5.4-2.2l-.3-.4a4 4 0 0 0 .2-5.6l-.7-.9a5 5 0 0 0-5.8-1.2l-.3-.3c1-1.8.7-4.1-1-5.5l-1-.7a5 5 0 0 0-5.8-.1l-.4-.3c.6-2-.3-4.1-2.3-5.1l-1-.5c-1.9-1-4.2-.5-5.6 1q-.2-.3-.5-.3c0-2-1.3-3.8-3.3-4.4l-1.1-.3c-2-.6-4.1.2-5.2 1.8l-.7-.2c-.4-2-2-4-4-4.2l-1.2-.1a5 5 0 0 0-5.1 3.3H65a5 5 0 0 0-5-3.3l-1 .1c-2.2.2-4.1 2.2-4.6 4.2l-.8.2a5 5 0 0 0-5.2-1.8l-1 .3a5 5 0 0 0-3.4 4.4l-.5.2a5 5 0 0 0-5.7-1l-1 .6c-2 1-2.8 3.2-2.2 5.2l-.4.2a5 5 0 0 0-5.9 0l-.9.8a4.4 4.4 0 0 0-1 5.6l-.3.3c-2-1-4.4-.6-5.8 1.1l-.7.9a4.4 4.4 0 0 0 .2 5.7l-.2.3c-2.1-.6-4.5.3-5.5 2.3l-.5 1c-1 1.9-.4 4.2 1.4 5.5l-.1.3c-2.2-.2-4.4 1-5 3.2l-.3 1c-.7 2.2.5 4.5 2.6 5.3v.3a4.6 4.6 0 0 0-4.6 4l-.1 1a4.5 4.5 0 0 0 4 4.9 4.6 4.6 0 0 0-4.3 4.7v1A4.6 4.6 0 0 0 12 85v.1c-2.4.5-4 2.7-3.7 5 0 .4.8 4.4 4.5 4.9-2.4 1-2.4 3.8-1.3 5.9 1 1.8 6.3 6 7 6.7l1.2 1.6h.1a91 91 0 0 1 3.6-24.7 6 6 0 0 0 5.1-6q0-1.6-.8-3 1 .3 2.2.4c3 0 5.4-2 6-4.6q1.8 3.2 5.6 3.3c3.3 0 6-2.5 6.2-5.6a6.3 6.3 0 0 0 11.8 1.9c1 2 3.2 3.5 5.7 3.5q3.8-.2 5.6-3.3 1.6 3 5.4 3.2c3.2 0 5.8-2.3 6.2-5.3.3 3.1 3 5.6 6.3 5.6q3.7-.1 5.5-3.3a6.2 6.2 0 0 0 9 3.8 6 6 0 0 0-.8 3c0 2.9 2 5.2 4.6 6 2 8.3 3.8 18.3 3.6 25l1.6-2c1.5-1.5 5.4-4.7 6.3-6.2 1.2-2 1-4.8-1.2-6 2.2 0 4.1-1.5 4.5-3.7l.1-1a4.5 4.5 0 0 0-3.6-5V85c2.4 0 4.4-1.9 4.6-4.3"/><path d="M203.8 105.1a5 5 0 0 1-4.3 1.1 6 6 0 0 1-4-3.1q-.6-1.2-.6-2.6-.1-1.2.4-2.3a5 5 0 0 1 3.3-3 7 7 0 0 1 6.1 1.1q.8.6 1.2 1.4a5 5 0 0 1 .2 3.7q-.4 2-2.3 3.7m-4.5-9.6q-2.2 1-4.5 0-2.1-1-3-3.6c-.9-2.6-.2-3.4.6-4.7a6 6 0 0 1 3.8-2.5q2.3-.3 4.3.9 2 1 2.6 3.2a5 5 0 0 1-.5 3.8 7 7 0 0 1-3.3 3m-2.6-10.9c-3.2.3-6-2.2-6.2-5.5a5.7 5.7 0 0 1 5.8-5.8c3.2 0 5.8 2.5 5.9 5.5 0 2.9-2.3 5.4-5.5 5.8m.1-10.7q-2.4 0-4.3-1.3a6 6 0 0 1-1.8-4.3c-.1-1.8.8-3.4 1.9-4.4a5 5 0 0 1 4.2-1.3q2.5.4 4 2t1.4 3.7q.1 2.1-1.4 3.5-1.6 1.7-4 2m.5-11.1a5 5 0 0 1-3.5-2.7 6 6 0 0 1-.6-3.5q0-.6.4-1.3.5-1.2 1.3-2.1c.8-.9 1.2-1 2-1.3q2.2-.7 4.4.3c2.2 1 2.4 2 3 3.3l.4 2a4 4 0 0 1-.7 2.8l-.6.8-1.6 1.1q-2 1.1-4.5.6m4.3-9.8a5.4 5.4 0 0 1-2.7-7.9q.7-1.1 1.6-2 1-.6 2.2-.9 2.3-.5 4.3 1a7 7 0 0 1 2.6 5.7l-.2 1-.4.9a4 4 0 0 1-1.3 1.5l-1.8.9q-2 .6-4.3-.2m5.8-9.5a5 5 0 0 1-1.8-4 6 6 0 0 1 2-4.4q2.1-1.6 4.4-1.4t3.8 2.3 1.2 4.2a5 5 0 0 1-1.7 3.6 5 5 0 0 1-3.8 1.3 7 7 0 0 1-4-1.6m8.2-6.8a5.4 5.4 0 0 1-.6-6.4q.6-1 1.6-1.8 2.3-1.5 4.7-1 2.3.7 3.5 2.8c1.2 2 1 3 .6 4.4q-.2 1-.7 1.9c-.5.9-.8 1-1.4 1.5q-.9.6-1.9.7-1 .3-2 0-2-.2-3.8-2m9.5-6q-1-2.3 0-4.5c1-2.2 1.9-2.5 3.5-3a5.5 5.5 0 0 1 7.2 4.1q.4 2.4-.7 4.4-1 1.8-3 2.6-2 .5-4-.5a6 6 0 0 1-3-3.1m10.3-2.8q-.7-2.3.4-4.4a6 6 0 0 1 3.8-2.6l1.3-.2 1.2.2a6 6 0 0 1 2.1 1q2 1.3 2.2 3.8.2 2.4-1.1 4.3t-3.4 2.2q-2 .5-3.9-.7l-1.5-1.5q-.8-1-1-2m11-1.8q0-2.5 1.7-4a6 6 0 0 1 4.4-1.5q2.6.4 4.1 2.2t1 4.4a7 7 0 0 1-2.4 3.8 5 5 0 0 1-3.8 1.1 5 5 0 0 1-3.5-1.8 7 7 0 0 1-1.5-4.2m10.6 1.5q.3-2.5 2-3.9a6 6 0 0 1 4.6-1q2.5.7 3.9 2.7 1.2 2.1.5 4.4a6 6 0 0 1-2.7 3.5 5 5 0 0 1-4 .8q-2-.4-3.3-2.2a7 7 0 0 1-1-4.3m10.8 2.7a5.5 5.5 0 0 1 7.9-2.6q1.1.6 1.9 1.6.6 1 1 2.1.5 2.3-1 4.4c-1.5 2-2.3 2.1-3.6 2.5q-1 .3-2 .1a4 4 0 0 1-3.5-1.9q-.6-.7-1-1.8-.5-2 .3-4.4m9 5.7q1.3-2.2 3.6-2.8 1.2-.3 2.3 0 1.2.2 2.3 1 2.2 1.6 2.4 4 .3 2.4-1.3 4.2c-1.6 1.8-2.6 1.9-4 2q-2.2.4-4-.8-1.5-1.2-2-3.4-.4-2 .8-4.2m8.8 6.8q1.9-1.5 4.2-1.3a6 6 0 0 1 3.2 1.4l.8 1q1.5 2.3 1 4.6t-2.8 3.6c-2.2 1.3-3 .9-4.3.6s-2.6-1-3.3-2l-.5-1a5 5 0 0 1-.4-3q.3-2.1 2-3.9m5.8 9a5.4 5.4 0 0 1 6.5.2q.9.9 1.5 2c.6 1.1.6 1.6.7 2.4q0 1.4-.4 2.4-1 2.3-3.2 3c-2.2.8-3.1.5-4.5 0a6 6 0 0 1-3-2.6 4 4 0 0 1-.4-2.9l.2-1a7 7 0 0 1 2.6-3.4m4.6 10.1q2.4-.6 4.4.8 1.9 1.5 2.3 4.1.2 2.8-1.4 4.6a6 6 0 0 1-4 1.7q-2.6-.1-4.2-1.6-1.7-1.4-2-3.4 0-2 1.2-3.7 1.4-1.8 3.7-2.5m.7 10.7a5.6 5.6 0 1 1 .7 11.2q-2.4 0-4.2-1.5-1.6-1.5-1.9-3.8c-.2-3 2.2-5.6 5.4-6m.1 11.3q2.5.3 4 2 1.5 2 1 4.6c-.4 2.6-1.2 3.1-2.5 4q-2.1 1.2-4.4.5a7 7 0 0 1-3.6-2.7q-1.1-1.7-.9-3.8c.2-2 1-2.5 2.2-3.4a6 6 0 0 1 4.2-1.2m-2.3 10.4q2.5.6 3.6 2.6 1.3 2 .4 4.8a7 7 0 0 1-1.5 2.3q-1 .9-2 1.3a5 5 0 0 1-4.6-.5 7 7 0 0 1-3-6.4l.2-.9a5 5 0 0 1 2.5-2.6q2-1 4.4-.6"/><path fill="currentColor" d="M124.8 80.9c.3-2.2-.5-4.3-1.5-5.5a1 1 0 0 1 0-1q1.3-2 1.2-4.5a7 7 0 0 0-2.4-5.3 1 1 0 0 1-.2-1c.7-1.3 1.1-3.4.6-5a7 7 0 0 0-3.5-4.4 1 1 0 0 1-.4-1c.5-1.5.4-3.7-.3-5.2-1.1-2.4-2.8-3.1-4.4-3.6a1 1 0 0 1-.5-.9 8 8 0 0 0-1.3-5c-1.3-2-3.5-2.6-5.2-2.8a1 1 0 0 1-.7-.7 8 8 0 0 0-2-4.6c-1.5-1.6-4.4-2-6-1.8a1 1 0 0 1-.9-.6 8 8 0 0 0-3-4 7 7 0 0 0-6.3-.6q-.5 0-.9-.4c-.8-1.4-1.3-2.5-3.6-3.4-3-1.2-4.7-.2-6.2.5q-.5.2-1-.3a7 7 0 0 0-4-3c-3.8-.8-5.1.6-6.6 1.7q-.3.3-1 0c-1.6-1.1-3-2.2-6-2-3.4.4-3.6 1.9-4.9 3.4q-.4.4-1 .3a8 8 0 0 0-6.2-.8c-2.3.7-2.9 2.2-3.7 3.6q-.4.5-1 .4a8 8 0 0 0-5.7.4q-2.9 1.8-3.5 4.2-.2.6-.8.6c-1.7-.2-3.9 0-5.2 1a8 8 0 0 0-2.9 5.4q0 .6-.7.7c-1.6.2-3.9.9-4.9 2.3a9 9 0 0 0-1.6 5.6q0 .5-.5.8c-1.6.5-3.1 1-4.2 3-.9 1.8-1 4.3-.5 5.9q.1.5-.4.9a7 7 0 0 0-3.4 3.7 8 8 0 0 0 .5 5.8q.3.5-.2 1a6 6 0 0 0-2.3 4V70q-.4 2.5 1.2 4.5.3.5 0 1a6 6 0 0 0-1.6 4.4v1q.2 2.5 1.9 4.2.4.5.1 1a6 6 0 0 0-1 4.5 9 9 0 0 0 3 5.2l-.2.6q-1 2.6.7 5.6a31 31 0 0 0 6 5.9l2.8 2.7c.5.6 1.4.2 1.4-.6v-2.8l-.2-.4c-1.7-3.5-6-3.5-7-7.7a4 4 0 0 1 1-3.4q.3-.8-.4-1.3C10 93 10.2 90 10.2 89.9c0-1.7 1.5-3.2 2.6-4 .5-.4.4-1.2-.1-1.4-1.3-.8-3.2-2.3-3.3-4.4-.1-2 1.5-3.4 2.7-4.2a.8.8 0 0 0 0-1.4c-1.2-.7-2.8-2.1-2.7-4.4.1-2.1 2.2-3.3 3.7-3.8q1-.6.2-1.4a5 5 0 0 1-1.6-4.9c.6-2.5 2.7-3.3 4.3-3.5.6-.1.9-.9.5-1.4a5 5 0 0 1-.8-5.1c1-2.4 3-2.6 4.3-2.4q1 0 .9-1c-.3-1.5-.6-4 1-5.9 1.3-1.7 3.7-1.4 5.2-1a.8.8 0 0 0 1-1c-.3-1.5-.3-4 1.5-5.3 1.5-1.1 3.8-.5 5 0a.8.8 0 0 0 1.2-.7c.1-1.6.6-4.2 2.5-5s4 .4 5.1 1.2q.8.3 1.3-.4c.5-1.5 1-3.9 3.7-4.7 2.6-.8 4.3.7 5.5 1.7q.7.5 1.3-.3c.5-1.5 1.5-3.6 4-4 2.4-.6 4.3 1.4 5.2 2.7q.6.7 1.3 0c1-1.2 2.9-3.1 5.2-2.9 2.5.3 3.8 2.8 4.4 4.3q.4.8 1.3.4c1.2-1 3.4-2.4 5.5-1.8 2 .6 3 2.7 3.4 4.1q.3 1 1.3.4c1.1-.9 3.3-2 5.7-.8 2 1 2.3 3.4 2.3 4.8q.2 1 1.1.8c1.4-.4 3.8-1 5.4.5s1.5 3.8 1.2 5.3q0 .9 1 .9c1.5-.3 4-.4 5.5 1.7 1.4 1.8.8 4 .3 5.3q-.4.9.6 1.1c1.5.2 3.7.7 4.5 2.5.8 1.7-.1 3.6-1 4.9q-.3.9.7 1.2c1.5.3 3.8 1 4.2 3s-1 4-2.1 5.3a.8.8 0 0 0 .3 1.3c1.5.5 3.7 1.7 3.9 3.7s-1.5 3.7-2.7 4.7a1 1 0 0 0 .1 1.3c1.5.8 3.5 2.3 3.6 4.3 0 2.1-2 3.8-3.4 4.6q-.7.7 0 1.4c1 .8 2.4 2.2 2 4.4-.2 2.1-1.7 3.1-3.6 3.4q-1 .3-.5 1.3c.6 1.1 1.4 3 .8 4.7-.6 1.4-4.2 4.2-6 5.6l-.2.6v6.5c0 .8.8 1.2 1.3.6 2.1-2.2 6-6.5 8.4-9.7 2-2.7 1.2-5.8.7-7q-.1-.5.3-1 2-1.5 2.6-5 .2-2.6-1-4.5a1 1 0 0 1 0-1 7 7 0 0 0 2-4.2m317.5 0v-1.1q0-3-2-4.9a6 6 0 0 0 1.7-5l-.2-1.1a7 7 0 0 0-2.8-4.6q1.6-2.4.8-5.2 0-.6-.3-1.1-1-2.8-3.6-4 1.1-2.7-.2-5.4l-.5-1a7 7 0 0 0-4.5-3.3q.6-2.9-1.2-5.3l-.8-.9a7 7 0 0 0-5-2.4q0-2.8-2.4-4.9l-.9-.7a7 7 0 0 0-5.4-1.4 7 7 0 0 0-3.4-4.3l-1-.5c-1.8-1-4-1-5.7-.2q-1.3-2.6-4.2-3.6l-1.1-.4a7 7 0 0 0-5.4.8 7 7 0 0 0-4.9-3.4l-1.1-.1q-3.1-.2-5.5 2a7 7 0 0 0-5.3-2l-1.2.2q-3.2.4-5.3 3.4a7 7 0 0 0-5.5-.9l-1.1.4q-3 .9-4.2 3.6a7 7 0 0 0-5.6.2l-1 .5q-2.7 1.5-3.5 4.4-2.9-.6-5.4 1.3l-1 .7a6 6 0 0 0-2.3 5q-3.1 0-5 2.3l-.8 1a6 6 0 0 0-1.3 5.2 7 7 0 0 0-4.4 3.3l-.5 1q-1.4 2.7-.2 5.4-2.6 1.2-3.6 4l-.4 1q-.7 3 .9 5.3a7 7 0 0 0-2.9 4.6l-.1 1q-.3 3 1.7 5.1-2 2-2 4.9v1q.2 3 2.4 4.7a6 6 0 0 0-1.4 5 9 9 0 0 0 3 5.2l-.2.6q-.9 2.7.7 5.6a31 31 0 0 0 5.9 6c.5.3 4.3 4 4.3 4l-.1-5c-1.7-3.7-6.2-3.6-7.1-7.9-.6-2.3 1.7-4.3 1.7-4.3-4.5-1.2-4.2-4.8-4.2-4.8 0-2.7 3.7-5 3.7-5s-4.4-1.6-4.5-4.9 4.2-5 4.2-5-4.4-1.2-4.2-5c.2-3.4 5.4-4.3 5.4-4.3s-4.2-1.7-3.1-5.8 6-3.6 6-3.6-3.7-2.6-2-6.4 5.6-2 5.6-2-1.8-4.5.5-7.3c2.2-2.6 6.7-.5 6.7-.5s-1.7-4.7 1-6.7c2.4-1.8 6.3.4 6.3.4s-.3-5 2.5-6.2 6 1.8 6 1.8 1.3-4.8 4.1-5.7 6.1 3 6.1 3 1-4.9 4.6-5.6 5.9 3.8 5.9 3.8 2.5-4.3 6-4 4.7 5.4 4.7 5.4c.1 0 3.5-3.3 6.4-2.5 3 1 3.7 5.5 3.7 5.5s3-3.6 6.7-1.7c3 1.5 2.2 6 2.2 6s4.2-2.1 6.6 0c2.5 2.3.9 6.6.9 6.6s4.5-1.8 6.8 1.3c2 2.7-.3 6.4-.3 6.4s4.6-.2 5.7 2.5c1.2 2.6-1.7 6-1.7 6s5 0 5.6 3.1-3 6.2-3 6.2 4.8 1.1 5 4.1c.4 3.2-3.8 5.5-3.8 5.5s4.8 1.7 4.9 4.9-4.6 5.2-4.6 5.2 3.8 1.6 3.3 5c-.4 2.7-2.4 3.6-5 3.7 0 0 2.6 3 1.5 5.8-.5 1.5-4.6 4.5-6.1 5.8l-.1 9s6.4-6.6 9.8-11.1c2.6-3.5.5-7.5.5-7.7a7 7 0 0 0 3-5.4q.4-2.9-1.3-5a7 7 0 0 0 2.4-4.7"/></svg>