<svg xml:space="preserve" width="16" height="16" viewBox="0 0 128 128"><path d="M63.1 84.2h18.3V124H63.1z" style="fill:#c87d5e"/><path d="M81.5 94.2q-2.6-4-6.6-6.4-2.6-1.3-5.5-1.6h-3.2q-1.5 0-3 .6v20.1a7 7 0 0 1 4-2.7c2.7-.7 5.7.4 8 2.2q3.2 2.7 5.5 6.4l.8 1z" style="fill:#874d36"/><path d="M97.6 25H28.8s23.7 3 23.7 23l.1 50.5h66.6c2.6 0 4.8-2.2 4.8-4.9v-42a26.4 26.4 0 0 0-26.4-26.4" style="fill:#1976d2"/><ellipse cx="74.2" cy="54.1" rx="8.1" ry="9.2" style="fill:#0d47a1"/><path d="M107.8 50H70.2v8.2h28.2v14.1c0 3.3 1.4 3.7 7.6 3.7s8-.4 8-3.7V56.2c0-3.4-2.8-6.2-6.2-6.2" style="fill:#0d47a1"/><path d="M110.4 46.9H72.8v8.2h28.3v14c0 3.3 1.4 3.7 7.5 3.7 6.2 0 8-.4 8-3.6V53c0-3.4-2.8-6.1-6.2-6.1" style="fill:#c62828"/><path d="M112.8 46.9H71.2v8.2h32.2v14c0 3.3 1.4 3.7 7.5 3.7 6.2 0 8-.4 8-3.6V53c0-3.4-2.8-6.1-6.1-6.1" style="fill:#f44336"/><path d="m112 52.2-23.4-1.7c-4.1-.2-4.5-2.6-.8-2.6h24.4c3.9 0 4.1 4.4-.2 4.3" style="fill:#ff7555"/><path d="m72.7 42.4.1 18.3h-3.5c-4 0-7.3-4-7.3-9.1s3.3-9.2 7.3-9.2z" style="fill:#82aec0"/><ellipse cx="73.4" cy="51.6" rx="7.3" ry="9.2" style="fill:#e0e0e0"/><path d="M69 51.9q.8.3 1.4-.4c1.1-1 1.6-2.6 2.6-3.6s2.4-1.9 1.3-3.3c-.8-1-2.2-.9-3.3-.3-2.5 1.2-4.2 6.4-2 7.6" style="fill:#fff"/><path d="M29 29c11.8 0 21.5 8 21.5 17.9v47.6h-43V46.9c0-10 9.6-18 21.4-18" style="fill:#4e342e"/><path d="M29 29.2c11.7 0 21.3 8 21.3 17.8v47.2H7.6V47c0-9.8 9.6-17.8 21.3-17.8m0-4.1C14 25 4 35.3 4 47.9v48.3c0 1.2 1 2.1 2.1 2.1h48.1c1.2 0 2.2-1 2.2-2V47.8C56.4 35.3 44 25 28.9 25" style="fill:#4fc3f7"/></svg>