<svg xmlns:xlink="http://www.w3.org/1999/xlink" xml:space="preserve" width="16" height="16" viewBox="0 0 128 128"><path d="M60.3 47.1c-2.2-7-5.9-10.8-6.8-14.1-1.1-3.8 3.3-6.4 5.7-3.3-1.2-3-5-5.6-5.4-10.8-.1-1.6.5-4.4 4.2-4.9-.7-4.1.7-6 2-6.8 1.7-1 3.5-.5 4.6.3a98 98 0 0 1 32.6 55.7c.1 1.8.3 3.9.3 8.3 0 7.8-.8 17.3-1.8 32.6q0 1.2.3 2.3.6.8-.2 2A65 65 0 0 1 66.5 123q-1.4 0-1.8-.7c-4.7-4.2-11.5-4.3-17.9-9.1a46 46 0 0 1-18.7-30.7c-.5-2.8 2.1-7 6.9-5.6 10.8 3.3 5.5 14.7 18.8 18.5 10.1 2.9 19.9-5.7 19.8-14-.1-6.8-2.4-14.2-11.4-16.3-11.7-2.8-18.8 11.3-25.6 10.8-4.4-.4-6.2-2.4-6.6-4.7-.5-2.9 2.9-7.2 12.2-15.2a42 42 0 0 1 18.1-8.9" style="fill:#e0bb95"/><defs><path id="a" d="M60.3 47.1c-2.2-7-5.9-10.8-6.8-14.1-1.1-3.8 3.3-6.4 5.7-3.3-1.2-3-5-5.6-5.4-10.8-.1-1.6.5-4.4 4.2-4.9-.7-4.1.7-6 2-6.8 1.7-1 3.5-.5 4.6.3a98 98 0 0 1 32.6 55.7c.1 1.8.3 3.9.3 8.3 0 7.8-.8 17.3-1.8 32.6q0 1.2.3 2.3.6.8-.2 2A65 65 0 0 1 66.5 123q-1.4 0-1.8-.7c-4.7-4.2-11.5-4.3-17.9-9.1a46 46 0 0 1-18.7-30.7c-.5-2.8 2.1-7 6.9-5.6 10.8 3.3 5.5 14.7 18.8 18.5 10.1 2.9 19.9-5.7 19.8-14-.1-6.8-2.4-14.2-11.4-16.3-11.7-2.8-18.8 11.3-25.6 10.8-4.4-.4-6.2-2.4-6.6-4.7-.5-2.9 2.9-7.2 12.2-15.2a42 42 0 0 1 18.1-8.9"/></defs><clipPath id="b"><use xlink:href="#a" style="overflow:visible"/></clipPath><g style="clip-path:url(#b)"><path d="M89.7 34.3c-.9.5-3.8 2.4-5-.1S82 29.8 79 25.9 69.7 14.6 64 9.4c-.9-.8-2.4-.9-3.2-.3s-2.3 2.6-.9 5.3l4.5 9.2c3 5.6 7.6 10.8 11.7 26.9.6 2.3-2.6-.5-2.6-.5s-5.4-4.5-12.8-2c-3.2 1.1-3.8-2.5-3.8-2.5l-9.1-26c0-.2 10.6-16.6 10.7-16.5l8.1.4zM65.8 96.1c-1.9 1.1-18.5 6.1-24.3-8.8q-1.6-3.7-3.2-5.9c-1.1-1.3-4-2.9-5.7-2.5 0 0-2.5.3-2.2 3.4.1 1.2.2 2.9 1.9 7.7 1.6 4.4-2.1 4.1-2.8 2.1l-3.8-12.6 4.3-5-2.8-4.9 19.9-19.1c.6 1 1.6 2.8.6 3.7-2.2 1.9-7.3 5.7-14.3 13.9-1.1 1.3-1.8 4.2 1.6 5.5s1.8 2.9 1 2.8l-1.9-.4 5.9 3 26.5 13.1c.6.8.9 3.1-.7 4" style="fill:#d19661"/></g><defs><path id="c" d="M60.3 47.1c-2.2-7-5.9-10.8-6.8-14.1-1.1-3.8 3.3-6.4 5.7-3.3-1.2-3-5-5.6-5.4-10.8-.1-1.6.5-4.4 4.2-4.9-.7-4.1.7-6 2-6.8 1.7-1 3.5-.5 4.6.3a98 98 0 0 1 32.6 55.7c.1 1.8.3 3.9.3 8.3 0 7.8-.8 17.3-1.8 32.6q0 1.2.3 2.3.6.8-.2 2A65 65 0 0 1 66.5 123q-1.4 0-1.8-.7c-4.7-4.2-11.5-4.3-17.9-9.1a46 46 0 0 1-18.7-30.7c-.5-2.8 2.1-7 6.9-5.6 10.8 3.3 5.5 14.7 18.8 18.5 10.1 2.9 19.9-5.7 19.8-14-.1-6.8-2.4-14.2-11.4-16.3-11.7-2.8-18.8 11.3-25.6 10.8-4.4-.4-6.2-2.4-6.6-4.7-.5-2.9 2.9-7.2 12.2-15.2a42 42 0 0 1 18.1-8.9"/></defs><clipPath id="d"><use xlink:href="#c" style="overflow:visible"/></clipPath><g style="clip-path:url(#d)"><path d="M30.6 75c0 4.7 4.5 8.4 11.2 6.9 2.7-.6 10.8 1.7 11.2 10.3.1 2.9 0 4.4 2.4 4.9 6.6 1.2 13.3-1 17.2-5.9s6.1-13.7 1.8-21.2a18 18 0 0 0-20.2-7.3c-3.7 1.1-6.9 3.9-8.4 5.1-3.2 2.8-7.1 8-12.6 5.3-1.1-.5-2.6-.1-2.6 1.9m-3.8 5c.9 0 2.9 0 3.3 2.4.2 1.2 2.1 10.2 7.3 17.1 14.1 18.4 25.4 15.2 30.3 21.1 1 1.2 2.6 3.8 2.6 3.8l-5.5 2.1s-26.8-7.6-33.2-23S26.8 80 26.8 80m11.1-21.9c1 .5 2.7 1.5 5.5-.4 3.8-2.6 10.3-8 21.8-8.9 2.1-.2 6.2.3 17.2 9 1.4 1.1 3.4-1.1 1.6-2.4l-5.4-3.6a2 2 0 0 1-.8-1.2C72.5 28.4 59.7 17.2 57.9 14c-1.5 4.1 13 16.5 16.6 35.6q-2.9-2.2-5.9-3.1-.6-.2-.9-.8a55 55 0 0 0-6.4-12.8c-.6-.7-.9-.1-.8.2.3 1 3.4 6.7 4.6 13.2q-2.4 0-4.9.9L54.8 45zM76.1 17c-1 1.7-.8 4.4.5 6 8.5 9.9 14.8 26.9 16.5 33 .5 1.8 1.4 5.4 1.6 8.7.5 9.8-.5 26.5-1.6 41-.1 1.8 1 4.5 1.7 5.7l5.7-4 1.4-49.5-16.4-35.2z" style="fill:#8d542e"/></g></svg>