<svg xml:space="preserve" width="16" height="16" viewBox="0 0 128 128"><path d="m7.2 20.7 6.9-.6L27 120.3s-.5 2.7-3 3c-3.1.3-3.9-2.6-3.9-2.6z" style="fill:#fbc219"/><path d="M2.7 17.5c.6 5.1 5.2 6.7 8.3 6.5 3.4-.3 7.9-2.9 7.3-8.5-.7-6.5-6.4-7.7-9.6-7a8 8 0 0 0-6 9" style="fill:#e07f16"/><path d="M11.4 10.8c-2.6-1.8-5.8.5-6.7 2.8s-.2 4.1 1 5.1 4 .7 5.6-1.2 2.4-5 0-6.7" style="fill:#ffc020"/><path d="M30.4 32s4.1-6.6 12.3-12 17-9.3 32.7-9c10.8.1 17 1 23.5 1 10.6 0 17.2-4 18.8-1.3 2.3 3.7-6.3 14-6.2 17 .3 4 11.6 2.8 11.7 7 0 2.9-6.3 10-16 12.5s-21.7 1.8-29.4 3c-7.6 1-21.1 5.4-25.5 6.8-6.4 2-21.9-25-21.9-25" style="fill:#016ba2"/><path d="m26 38 5-7s1.4 1 3.5 1.6c2 .7 11.7 2.7 16.3 9.5 5 7.4 2 14.9 2 14.9s-4.1 2-11.5 3c-4.7.7-7.8-.1-7.8-.1l-6-10.5z" style="fill:#dde2e1"/><path d="M42.6 39c-1-.3-2.7.7-2.8 3.6C39.5 47.8 45 49 45 49s.7 2.8 2.6 4c3.4 2.1 4.7.1 4.4-.7-.2-.9-1.4-.8-2.5-2.2-.7-1-1-3.1-1.4-3.5s-2.5-.2-4.2-3.1c-1.2-2-.9-4.2-1.4-4.4M27.2 37c-2.5.7-3.1 6.6-1 13.4C28 55.6 32 61 35.6 59.8c3.1-1 4-6.7 1.2-13.9-2.9-7.2-6.5-9.8-9.6-8.9" style="fill:#016ba2"/><path d="M28.7 39.9c-1 .2-.6 6.7.7 9.8s3.9 7.4 5.4 6.7c.7-.3.6-5.4-.7-9.3-1.4-4-4.5-7.5-5.5-7.2" style="fill:#dde2e1"/><path d="M53.6 25.4c-3.6 2.1-4.3 7.3-2.1 11 1.8 3.3 5.3 4.9 8.8 3.6 3.4-1.3 4.8-6.4 3-10.7-1.9-4-6.5-5.7-9.7-4" style="fill:#fff"/><path d="M55.2 28.6c-2.3 1.3-2.3 4-1.2 6 1.3 2.2 4 2.2 5.5 1.3 1.7-1 2.1-3.3 1.2-5.3a4 4 0 0 0-5.5-2" style="fill:#2d2d2e"/><path d="M37.9 75s4.4-6.9 14.4-10.5C67.6 59 82 60.1 92.5 59.8c18.5-.4 22-6.6 24.7-4.1 2.4 2-4.4 12-4 15.8.4 2.1 1.3 4 4.2 4.8s6.4 1.3 6.8 2.8c.4 1.9-5.1 7.9-15.6 12-8.6 3.3-18.6 3.6-27.2 5C74 97 66.3 99.6 62 101c-5.6 1.8-10.3 2-10.3 2s-9.5-24.6-9.8-25z" style="fill:#f26d31"/><path d="M38.1 74.5s6.1-.4 11.6 3.6c5 3.6 10.9 10.8 10.6 17.5 0 3.8-2.4 6.5-2.4 6.5s-3.6 1.5-9.4 1.2c-7.2-.4-9.2-3-9.2-3l-5.8-15.1s.5-5 1.8-7 2.8-3.7 2.8-3.7" style="fill:#dde2e1"/><path d="M33 91.3c1.3 5.5 5.5 10.7 9 10 3-.8 4.1-5.5 2.3-12.7-1.8-7-5-11.3-9-10.4-3.8 1-3.5 8.1-2.3 13" style="fill:#f26d31"/><path d="M36.2 81.5c-1.5.4-1.1 4.8-.1 8.9.7 3 2.5 7.8 4.2 7.4 1.6-.4 1-5.6.3-8.7-.8-3-2.7-8.1-4.4-7.6" style="fill:#dde2e1"/><path d="M48.7 82c-2.1 0-1.6 4.3-.3 6.5 1.9 3 4.1 3.6 4.1 3.6s.5 2.7 2.2 4.6c.9 1 2.2 1.7 2.8 1.4s-.1-2.1-.6-4.1q-1-4.2-.8-4.3c.2-.1-2.5-1.5-3.8-3.3s-1.5-4.5-3.6-4.5" style="fill:#f26d31"/><path d="M59.3 72.2c-3.5 2.1-3.6 7.1-1 11.1 2.8 4 7.2 3.8 9.5 2.5 2.3-1.4 3.9-6.1 1.2-10.7a7 7 0 0 0-9.7-2.9" style="fill:#f8fffd"/><path d="M61.6 74.8c-1.9.8-2.3 4.3-.7 6.4s3.8 2.2 5 1.3c1.9-1.5 1.6-4.1.7-5.8s-3.3-2.7-5-2" style="fill:#2d2d2e"/><path d="M14 56.4c-2.6 0-3.8-1-4-1q-1-1-.3-2.2c.5-.6 1.5-.7 2.1-.2 0 0 .9.5 2.7.4 2.2-.2 3.6-1 3.6-1l.3-.2 12.7-5q1.4-.4 2 .8.4 1.4-.9 2l-12.6 5a11 11 0 0 1-5.6 1.4m6.3 41.8c-2.6 0-4.4-1-4.6-1q-1.1-.8-.6-2 .8-1.2 2-.7s1.3.7 3.2.7a4 4 0 0 0 2.9-1.5l.2-.3.4-.1 14-4.6q1.4-.4 2 .9.3 1.3-1 1.9L25 96a7 7 0 0 1-4.8 2.2" style="fill:#b6ced5"/><path d="M73.1 35.3c-1.4.8.5 2.6 0 8-.6 4.7-4.2 8.8-4.2 8.8l3.7-1 3.5-.6s1.2-2.6 1.2-7c.1-4.1-2-9.5-4.2-8.2m2.3-14.1c-.2.3.4 1.9.8 3.4.4 1.6.6 3.7 1.1 3.9.7.3 4-1.6 3-5.1-1.1-3.8-4.6-2.8-5-2.2m8.5 4.3c-.8.9.3 2 .7 3.6.4 1.5.5 3.2 1 3.3.6.3 3.8-1.3 3.2-4.4-.7-3.9-4.5-3-5-2.5m-2.4-9.6c-.5 1 .5 2 1 4 .2 1.6.5 3.6 1 3.8.6.3 4.1-2 3.1-5.5-1-3.8-4.8-3-5-2.3m9.6 4.3c-.2.3.4 1.9.8 3.4.4 1.6.6 3.7 1 4 .7.2 4-1.7 3-5.2-1-3.7-4.5-2.8-4.9-2.2m5.3-4.6c-.2.3.5 2.5.9 4 .4 1.6.7 3.3 1.2 3.5.7.3 3.9-1.7 3-5.5s-4.7-3-5.1-2m2.8 9c-.1.3.7 2.4 1.1 4s.6 3.4 1.1 3.7c1 .4 4.5-1.7 3.3-5.4-1.1-3.3-5-3-5.5-2.3m-6 5c-.2.3.7 1.8 1.2 3.7.4 1.7.6 4 1 4.2.7.3 4.2-1.4 3.2-5.2-1-4.1-5-3.4-5.4-2.7m-15 1c-.2.3.4 2.2.7 3.8.4 1.5.7 3.3 1.1 3.5.7.3 3.9-1.5 3-5-.8-3.1-4.5-2.9-4.8-2.3m8.2 4.9c-.5.8.4 1.9.8 3.4.4 1.6.7 3.6 1.1 3.9 1 .4 4-1.7 3.3-4.9-.8-3.8-4.9-3-5.2-2.4m15-.5c-.1.4.5 2.3 1 3.7s1 3.2 1.5 3.4c.7.2 4.1-2.4 3-5.8-1.1-3-5-2-5.5-1.2" style="fill:#39bde3"/><path d="M80.7 77.1c-.2.4.5 2 1 3.6.4 1.5.9 3.3 1.3 3.5.7.3 3.9-1.7 2.8-5.2-1.1-3.7-4.8-2.5-5.1-1.9m5.6-5.4c-.2.3.8 2 1.3 3.4.5 1.5.6 3.7 1 3.9.8.3 3.5-1.3 2.7-4.9-.9-3.6-4.7-3-5-2.4m-8.2-4.2c-.2.4.6 2 1 3.7.5 1.6.7 3 1.2 3.4 1 .9 4.3-.7 3.3-4.7s-5.1-3-5.5-2.4m6.1-5.4c-.7.5.3 1.9.6 3.5.2 1.5.3 3.4.7 3.6 1.4.5 4.3-.3 3.6-4.5-.7-3.9-4.4-3-5-2.6m8.1 4.8c-.2 1 1 1.5 1.7 3.6.6 1.8.5 3 1 3.2 1.4.4 4.6-2.1 3.4-5.1-1.4-3.6-6-2.4-6-1.7m6.4-4.6q-.2.5 1 3.3c.5 1.5.6 3.6 1 3.8.7.3 3.9-1.5 3-5-1.2-3.8-4.7-2.7-5-2.1m2.8 9.3c-.2.3.5 1.8 1 3 .4 1.6.3 3.2 1 3.7 1.1.7 4.2-1.5 3-5-1-3.2-4.6-2.3-5-1.7M95.6 76c-.2.4.4 2 .6 3.5.3 1.8.3 3.4.8 3.6 1 .5 4.6-.8 3.7-4.6s-4.8-3-5.1-2.5m8.3 4.7c-.2.3.4 1.8.8 3.4s.7 3 1 3.3c1 .7 4.1-1 3.3-4.6-.9-3.8-4.8-2.7-5.1-2.1m-15 .3c-.5.7.6 2.2.8 3.8.2 1.8.2 3.3.7 3.5 1.3.6 4.8-1.4 3.6-5s-4.7-2.8-5.1-2.2M72.8 97.9s3.5-4 3.4-6.8c-.1-4.3-1.4-6.5.3-7 1.4-.6 3 1.7 3.5 4 1.4 5.9 0 8.2 0 8.2l-3.7.8c-1.4.2-3.5.8-3.5.8" style="fill:#fec516"/></svg>