<svg xml:space="preserve" width="16" height="16" viewBox="0 0 128 128"><path d="M99.7 65.4q2.2 2.7 4.7 11.3c2.5 8.6 4 11.4 8.4 11.3s4-3.4 4.7-4.8c.4-.8 1.1-2.8 5.3-.5s2.5 4.3 1.8 6c-.8 1.7-4.2 8-12.2 7.7-7.5-.2-10.6-3.9-13.4-9.4-3-5.6.7-21.6.7-21.6" style="fill:#fe6a1f"/><path d="M102.2 92s1.8-.5 3.8-2.4c1.7-1.5 3-3.2 3-3.2s-1-1.2-1.7-2.4l-1.7-3.4-7.4 5.2s1.2 1.9 1.8 3.2c.9 1.7 2.2 3 2.2 3" style="fill:#323130"/><path d="M21.3 40.2s-.2-7.4 5.2-8.6c6-1.3 8 5.2 8 5.2L31 41.2zm49.2 51.1s2.7 7 3 9.8c.5 5.2-4.1 6.1-3.6 9.8.3 2.5 2.4 3.1 7.3 3.1 6.1 0 9.1-2.9 9.1-2.9l2.2-26.3L70 87zm-42.1-7.5s-2.8 7-5.6 10.6c-2.9 3.5-7.8 7.8-7.4 14 .2 3.6 2.4 5.3 5 5.8s5.6-.2 7-3.4c1.3-3.3 1.3-5.8 1.3-5.8l8-8.5c1.8-2 5.3-5 5.3-5z" style="fill:#fe6a1f"/><path d="M26.3 100c1-1.6-.3-3-1.3-4q-2.1-1.5-2.3-1.5l-2.2 2.6s1.3.8 2.3 1.7c.8.8 2.5 2.5 3.5 1.1m-2-7.6 2 1.5c.3.4 2 1.5 2.6.7 1-1-.2-2.7-1-3.6-.6-.8-1.8-1.9-1.8-1.9z" style="fill:#333132"/><path d="M22.8 108.6q-2.5 1.5-1.7 4c.5 1.3 3 2 5.4 0 1.1-1 1.5-3.3.8-4s-2.7-1-4.5 0m-3.8 2.1c-1 0-2.4.6-2 2 .4 1 3.2 1.8 3.7.1.3-1.2-1-2.1-1.7-2.1" style="fill:#bb5d42"/><path d="m27 79.8-5.4-3s-7.3.5-11.8-2.2q-6.5-4-7.6-10.1c-1-6.1-.5-7.8.2-9.1s2-1.6 3.8-2.3 4.4-2.3 4.4-2.3.4-3.2 2.3-5.8c2.8-4 4.8-4.3 5.7-4.8s10.8-1 10.8-1l2.4-.2 3-5.1s3.8-2.8 8.5-.5 4.8 8 4.5 9.9-1 3.6-.9 4.3c0 .3 2.1 2 4 4 1.8 1.7 3.1 3.3 3.9 3.8S65 54.2 76.2 55c11.3.8 18.7 3 23 9 4 5.8 4.1 12.3 3 19.3s-5 13.8-5.4 14.9-.4 8.8-.4 10.8.7 10.4-5.8 10.5c-3.6 0-7.2.6-8.7-2.4-1.5-3.1-.2-6.8-.2-6.8l3-3.2-.5-5.6-6-5.8-1-4.3-11.4.5s-9.3 1.5-9.9 2.2-2 10.1-2.5 15c-.5 4.8-2.8 9.5-4.4 10.2s-4.6 1.8-8.8.9c-3.8-.9-4.5-4.5-2.2-7.5 1.4-1.9 2.8-2.6 2.8-2.6l-.4-10.4c0-3.7 0-7.1-.3-7.6L31.8 81z" style="fill:#ff9613"/><path d="M111 87.7s-.2 3.2-.5 4.5c-.6 2.4-1.5 3.8-1.5 3.8s2 .6 5 .5c2.6-.2 4.5-1.3 4.5-1.3l-1.7-4-1.6-3.8-1.9.5c-1.3.2-2.4-.2-2.4-.2m5.8-2s2 .6 3.8 1.4l4 2s2-4 2.3-6.7c.2-2-.4-4.6-2.5-5.4-2.6-1-5.2 1-6.1 3.9z" style="fill:#323130"/><path d="M43.7 45s2.4-5.7-1.1-7.6c-3.6-2-5.7 3.4-5.7 3.4z" style="fill:#fd6a1f"/><path d="M11 52.8S7 54 5 55.3q-1.8 1.5-1.6 4.3c-.2 6 3.5 12.3 9.1 14.2 6.7 2.2 10.4.6 10.4.6s-2.7-4.3-4.3-6.1-2.9-3.1-3.4-4.1-1.1-5.3-2-7.2c-.7-2-2.1-4.2-2.1-4.2" style="fill:#fff"/><path d="M10.2 58.7S4 60.7 4 60.9s0 3.2.4 3.6 1.6 1 2.6 1.2 2.3 0 3 .6c.3.2.5 2.3-2.4 3S2 66.6 1.5 64.4c-.7-2.2-.7-7 1-9.3 1.2-1.6 6.3 1.3 7.7 3.5" style="fill:#323332"/><path d="M43.5 114.3c-1.1-.1-1.8.6-1.9 3q.1 3.3 1.7 3.4c1.5.2.7-2 .7-2.8.1-1.5 1.3-3.4-.5-3.6m-4.9-.6c-.7-.4-2 .1-2 3 0 2.3 1.5 3.4 2.5 3.2.6-.2-.2-2.2-.5-3-.4-1.2 1.4-2.3 0-3.2" style="fill:#fe6a1f"/><path d="M46.7 119.9c-.2.7 4.5-.2 6.1-3.9s2.4-12 2.7-15c.4-3.3 1.3-6 1.6-6.2s3.9-1 9.5-1.6c4.9-.6 9.2-.9 9.2-.9s.3 3 2.7 5.5 4.9 4.3 5 4.7c.3.3.3 4.3 0 5.2 0 .2-3.9 3-3.8 6.8.1 3.4 3 4.9 4.8 5q2.7.5 1.4-.4c-1.1-.7-4-1.1-4-4.7 0-4.7 3.6-5.9 3.7-6.8s-.1-6-.3-6.4c-.1-.3-3.7-3.5-4.9-5-2.1-2.7-1.5-5.5-2-5.9a63 63 0 0 0-12.1.4c-2.8.4-10 1.2-11.6 3-.5.6-1.7 11.9-1.9 13.3-.3 2.3-.4 6.2-2 8.8-1.2 2.2-3.8 3-4 4" style="fill:#bb5d42"/><path d="M84.7 116.7q0 3.1 2.2 3.1c1.5-.1.2-2.2.1-3-.1-1.2 1-3 .2-3.2-1.5-.3-2.5 1.3-2.5 3.1" style="fill:#fe6a1f"/><path d="M22.7 54c.1 1.9-.6 3.6-2.1 4-1.5.2-3-.5-3.4-3-.4-2.3.7-3.6 2.2-3.9s3 .7 3.3 2.9" style="fill:#313130"/><path d="M23 47.2c1.9-.3 1.5-2.3 1.2-3.7s-.8-2.3-.8-2.3 1.6-.3 2.5 0q.5.3.9 1c1.8 2 1.1 5.5 2.8 5.7 1.8.2 1.8-2.5 1.7-4.2q-.3-2.3-.1-3c.3-.4 1.5 0 1.6-.4.4-1 1-3.4 2.2-4.7a7 7 0 0 1 5.1-2.6c1.5 0 3.3.5 3 .2-1.1-.8-6.2-2.6-9.6 0-2.9 2-3.3 5-3.3 5s-2-.2-5.6 0q-4.1.5-6.1 1.7a12 12 0 0 0-3.7 2.6l2.6-1q2.1-.6 3.2 2.2c.5 1.1.8 3.7 2.3 3.5m6.6 5.2c-.9-.1-.9 1.3-1 2.7-.2 2.3-.3 4.8-.5 5l-2.7 3.7c-.5.5-2 1.8-1.6 2.5 1 1.6 7-2.3 7.5-5.6.5-3.1.3-8.2-1.7-8.4m3.7 11.1c-.1.5-2 2.3-4 3.8-2.2 1.5-4.4 2.1-3.7 3.1.8 1.3 4.4 0 6.3-.8 1.5-.7 4.3-2.9 4.9-4.4.5-1.3.2-5.7-.5-8.1s-1.9-5.2-2.8-4.2c-.5.5 0 2.3.1 4.9s-.2 5.4-.3 5.7" style="fill:#33312f"/><path d="M40.6 104.4s2.6-.8 4.2-.7c1.5.1 5 .5 5.6.2 1-.5-2.5-3.2-5.5-3.5s-4.5 0-4.5 0zm-.2-8s.8-1 3.8-.9 6.3.5 6.2-.5-4.6-3.2-6.5-3.3l-4 .3z" style="fill:#333132"/><path d="M27.8 78.5s3.4-3.5 5.3-5c2.7-2.3 7.1-6 7.2-11.6.1-5.7-2.6-10.3-3-11.2-.6-.9-2-3.9-.4-5s3.9-1 7.6 3a72 72 0 0 1 8 12.2s-2.2 6.3-7 10c-1.8 1.3-3.7 2-5 3a10 10 0 0 0-3.5 6.8c-.7 7.6 1.7 7.5 2.7 9.4.7 1.4.8 5.2.7 5.3-.9.7-3.7-2.4-4.2-2.9L34 90.4s0 1.6-.7 1.6c-1 0-3.5-2.5-4.8-5.2s-2.7-5.1-4.1-7.1c-.6-.9-3-3-3-3s1-.9 2.6-.6 3.8 2.3 3.8 2.3" style="fill:#fdedcc"/><path d="M42.2 54.5c-1.5.7.8 8.2-.3 11-.6 1.4-2.4 5-1.1 5.7s5.3-3.2 5.8-5.6-2.4-12.1-4.4-11.1m-1 28c0 2.2 7.2 2 7.2 2s4.5 4 5.5 3.3c1.2-.9.7-2-.2-3.6-1.5-2.3-2.4-3.6-4-4.3-1.5-.6-4.4.2-6 .6q-2.7.8-2.5 2m9.6-15c-.8 1.1.4 2 1.5 3.8 1 1.7 3.4 4.8 3.4 4.8s-.4 7 .5 7.6c1 .8 2.4-1.3 3-3.1s.7-4 .6-5.5c-.2-1.3-1.1-3.6-4.5-6q-3.8-2.5-4.5-1.6m4.7-12.1s2 3.1 3.2 6c1 3 2.1 6.3 2.5 8.6.2 1.3.9 4 1.8 4.2s1.7-2.6 2-5.7c.3-3.3 0-7.9-.6-10L63.2 55h-4zm13.9-.6s1.1 4 1.3 9.9c.2 3.8.7 10.4 1.8 10.4 1.5 0 2.8-5 3.4-10.7s.5-9.4.5-9.4l-3.4-.3zm13.2 20.4c2 .2 3.9-5.7 4.7-9.3s1.5-8.8 1.5-8.8l-3.2-.8-3.6-.6s.4 3.4.3 9c0 3-1 10.3.3 10.5m11.7-15.7s-.7 7.4-1.1 9-4.3 7-3.5 7.9c1 1.1 6-3 7.5-6.2s1.7-6.6 1.7-6.6-.5-1-2.2-2.4zM57 94.9s4.6-6.5 5.7-9.4c1.1-2.8 3-7.5 4.7-8s1.2 4.1.2 7.7c-1 3.4-3 8.2-3 8.2l-3.4.5c-3.2.5-4.1 1-4.1 1m12.3-2s3.4-6.5 4.3-9.1c.6-1.7 1.8-6.2 3.3-6.2s1.4 3.9 1 6.2l-2.2 8.5-2.8.3zm11.3-3.6c.3.8 7 .4 9.3-1.1 4.2-2.8 6.4-10.4 5-10.3S89 83 87.4 84s-7.2 3.5-6.7 5.2M77 95.6s6.3 1.1 10 .2c3.4-.8 6.3-4.5 7.4-3.9 1 .6-.3 5.7-5 7.3s-8.2.9-8.2.9-1.6-1.1-2.4-2z" style="fill:#33312f"/></svg>