<svg xml:space="preserve" width="16" height="16" viewBox="0 0 128 128"><radialGradient id="a" cx="48.4" cy="86.8" r="81" gradientUnits="userSpaceOnUse"><stop offset=".3" style="stop-color:#afe4fe"/><stop offset=".7" style="stop-color:#84d4f9"/><stop offset="1" style="stop-color:#67c9f6"/></radialGradient><path d="M116.6 124.3H11.3a7.5 7.5 0 0 1-7.5-7.6V11.4C3.8 7.3 7.2 4 11.3 4h105.3c4.2 0 7.5 3.4 7.5 7.5v105.3c0 4.2-3.3 7.6-7.5 7.6" style="fill:url(#a)"/><path d="M124.2 76v41c0 4.2-3.4 7.5-7.6 7.5H11.3a7.5 7.5 0 0 1-7.5-7.5V75.7s38-1 64.1-1.4a755 755 0 0 1 56.3 1.8" style="fill:#b4d218"/><path d="M106.1 124.5H11.3c-3.8 0-7-2.9-7.4-6.5 0 0 5.1-2.6 10.1-4s19.3-5.2 18.8-11.8S19 96 19.8 88.8c.4-3.3 6-7 12.6-9.1A77 77 0 0 1 50.7 76c0 .2-3.3 4.8-1.8 10 1.4 5.1 7.8 8.4 19.9 11s24 5.3 31 14.2c7 8.7 6.3 13.2 6.3 13.2" style="fill:#00c1ed"/><radialGradient id="b" cx="55.3" cy="66.7" r="114.3" gradientUnits="userSpaceOnUse"><stop offset=".3" style="stop-color:#8cdbfc"/><stop offset=".4" style="stop-color:#54d1f5"/><stop offset=".5" style="stop-color:#23c7ee"/><stop offset=".6" style="stop-color:#10c4ec"/></radialGradient><path d="M7.7 123.6q1.7.9 3.6.9h88.3S98.5 118 88.3 110c-6.8-5.4-13.4-6.8-20.8-8.5-12-2.8-20.3-4.6-23-13.2-1.5-5.1.7-8 .4-8.4s-19.8 3.7-20 8.7c-.1 5.3 12.9 4.3 12.8 13.5 0 8.6-12 12.8-16.3 14.3a44 44 0 0 0-13.7 7" style="fill:url(#b)"/><path d="M3.8 75.4h49.3l-5.3-8s-2.4-.8-6.3-5.2-14.4-20-17.2-24.5-7-9.4-10.9-9.2S3.8 31 3.8 31z" style="fill:#79a5ab"/><path d="M3.8 26.3s2.3-.6 4.9-.5c3.5.2 7.6 3.3 7.6 3.3s-4.7 0-7.5 2.6c-2.4 2.2-5 6-5 6z" style="fill:#e0e0e0"/><path d="m64 42.8-12.9 28 2 4 18.3-1.5 11.7-38-9-2.4z" style="fill:#86b4bb"/><path d="m74.5 48.8-3 9.1L70 68.8l34 3s14.5-33.2 14.4-33.4l-15.7-22.7-12 4.2L81 32.4z" style="fill:#3e727b"/><path d="M124.1 20.6S119 16 116 14.9c-3-1-14.6-1.6-14.6-1.6L91.1 17l-8.8 10.2L77.1 39l-2.7 10.1s1.7 2 2.5-1.7c.7-2.9 1.6-6.6 5.3-14.7S93.4 17.2 99.7 18c5 .6 7.3 7.8 8.4 13 1.1 5.1 1.7 15.3 1.7 15.3l-7.3 3.9L98 62.6l-.6 4.2c-.3 2.5-.3 5.2-.3 5.2l20.2.7 6.7-4.9z" style="fill:#79a5ab"/><path d="m51.2 68.2 3.1.5 3.6-9.1c1.2-2.8 2-5.1 2.9-6s3-1.1 3.7-2.1c.6-1 2.8-8.2 4.5-11 1.6-2.7 3.6-5 5.4-5.7 1.7-.7 3-.3 3-.3s-2 5.8-3.1 10.4l-2.9 13s1.8-.8 2.6-1.9 1-2.7 1.1-4.1c1-7.1 2.3-10.6 3.2-13.6 1.2-4 4-9.7 5.4-11.9 3-5 5.2-6.8 8-8.7 2.6-1.9 7.5-4 13-3.6s14 2.4 14 2.4-6.1-4.9-14.6-4.8-14.1 3.5-18.6 8.7-7 12.3-7 12.3-2.6-1.7-6-1-6.3 2-9.6 7.6S55.5 57 55.5 57zM111.7 51s-4.7-1.2-7.2.6c-1.7 1.3-3.2 4-4.7 9-1.4 4.5-2 5-2.1 5a67 67 0 0 1 1.5-12.2c.7-2.7 2.5-7 6.7-7.9 4.6-1 5.6 3 5.8 5.5" style="fill:#e0e0df"/><path d="M93.7 26.7c-1.3-.1-1.6 1.2-1.6 5 0 4.1-.4 7.7-.4 7.7s-3 4.4-4 7.2Q86 51 85.3 55c-.4 2-1 4.7.3 5.1 1.5.6 3.1-6.5 4.5-11a33 33 0 0 1 4.8-8.7v-8.2c0-1.3.1-5.4-1.2-5.5m-7.4 4c-1.1.2-1.5 2-1.6 4.2v3.8s-1.6 3.4-2 5 .8 2.1 1.9.8 3.3-5.5 3.3-5.5v-4.2c0-1.2.3-4.3-1.6-4" style="fill:#79a5ab"/><path d="M14.2 41.4 15 44q.7 3 .9 13.4c0 7 .4 14.6.4 14.6l5.2-1.5s-.2-10.6-.8-16.2-1.4-8.3-3-10.7c-.6-1.1-2.5-2.4-3.4-2.3" style="fill:#ace4fe"/><path d="M16.8 50.6c1-.1.9 1.8 1 4.8q.2 4.1-.5 4.4c-.9 0-.7-.7-1-5 0-2.7-.2-4 .5-4.2m2.1 1.9c-.6.1-.3 2-.2 5.3.2 3.5 0 5.7 1 5.7s.6-2.1.5-6c-.1-3.3-.3-5.3-1.3-5m-3.3 19.9s1.1-1.7 2.5-2h2s.7-2.4 3.8-2.3c3.1 0 4.2 4.3 4.2 4.3L15.7 74z" style="fill:#fcfdfe"/><path d="M17.2 76.2s24.9-.6 40-.5l31.2.1s-8.6-17.2-9.3-17c-.6 0-5.7 9-5.7 9s-5.6-9.7-6-10-6.4 13-6.4 13L58.4 67l-3 4.7-3.8-8.4-7 9.7s-1.3-.5-3-.6c-2.6 0-5.6 1.3-5.6 1.3S30.6 72 26.8 72 12 75 12 75z" style="fill:#0a7e1d"/><path d="M50.5 61.5c.6.2 1.6 2.8 1.6 2.8L48 74l-3.4-1s5.1-11.6 5.8-11.5m5.1 10.3 1 2 2.8-5.5s-.8-1.6-1-1.6c-.4 0-2.8 5-2.8 5m11.9-14C66.3 57.7 61 71 61 71l1.5 2c.8.1 6-13.5 6-13.5s-.9-1.7-1.1-1.7" style="fill:#02ab47"/><path d="M82.6 78.8s-.4 1.2.3 1.3 6.3 1 15.2.7l26-.7V67.8s-7.3-17-8.2-16.8c-1 .2-7.3 15.2-7.3 15.2s-2.6-4.8-3-5c-.5-.1-7.7 8.8-7.7 8.8s-4.7-13.3-5.4-13.4-9.9 22.2-9.9 22.2" style="fill:#0a7e1d"/><path d="M91.4 54.3c-.8 0-6.8 14-7.7 16.1-.8 2-3.6 8.6-3.3 9.1s3.8.9 3.8.9 4-11.4 5.6-15c1.6-3.7 3.5-7.4 3.5-7.4s-1-3.7-1.9-3.7m12.7 5.5c.5-.3 2.1 2.4 2.1 2.4s-6.1 10.6-6.6 10.8-1.7-3-1.7-3 5.1-9.7 6.2-10.2" style="fill:#02ab47"/><path d="M3.8 112.8s4 .6 7-1.6c4.5-3 4.8-6.3 4.8-6.3s1.1 1.6 5.7 1.7 6.5-3.8 6.4-4.3c0-.2-4.5-5.7-4.5-5.7L17.9 86l.6-2.6-7.7-10.3-3-17.9S7 53.5 6.4 54s-2.6 4.5-2.6 4.5z" style="fill:#0a7e1d"/><path d="M11.5 87.5c-1.8-.2-3.5-2.7-3.8-9-.4-6.3.3-16.5-.1-19.2L6.4 54s.4-1 1 0 4.6 7.6 6.4 12c1.7 4.5 7.8 15.3 8.7 16.9 1.7 2.8 2.9 5.1.8 5.2-2.2.1-5.2-1.8-5.2-1.8s3.6 7.4 4.7 9l4.1 6s-.5 1.7-3.4 1c-2.8-.9-6.2-8.3-7-10.2q-1-3.1-.7-4.5a2 2 0 0 1 1.5-1.8S15.8 84.2 15 83l-1.5-2.8s.6 7.4-2 7.2" style="fill:#00aa48"/><path d="M117.4 76.9S99 82.3 98.3 83.2s-.9 2.3.9 3 2.5.2 4.2 1.3c.6.4-.9 4.8-.9 4.8s-7.7 2.5-7.9 3.6q0 2.2 2.7 3.6c1.6.8 3.9 1 3.9 1s-9 6.8-8.6 8.5 2.4 4.5 6.7 4.4c4 0 4.6-1.5 6.7.1s2.1 5.3 8 5c4-.3 5-2.9 7-4a13 13 0 0 1 3.2-.9V80z" style="fill:#0a7e1d"/><path d="M115.3 62.6c-2 0-3 5.2-7.2 10.3s-9.9 10.3-9.9 10.3.5 1.2 2 1.2c2 0 3.6-1.9 5.2-1.2s1.3 3.4 3.9 3.5 5.9-3 8.1-3.2c2.2 0 2.2 2.3 4.4 2.2 2.1-.1 2.3-1.1 2.3-1.1v-6.8s-3.3-4.4-4.6-8.2c-1.4-3.9-2.6-7.1-4.2-7m-5.9 27.8c3 0 5.8-2.8 9.5-2.4s4 4.5 3.5 6.3-1.5 4.6-4.3 4.6-2.8-1.6-4.5-1.4-2.9 1.9-5 1.6-3.2-2.3-4.8-2.6-4.2 1.2-6.3 1.1-2.9-1.8-2.9-1.8.4-1.5 1.9-2.3 2.6-1.3 4.4-3 2.4-3 2.4-3 2.7 2.8 6 3m-4.3 18.2c3.2 0 2.6 4.4 6.4 5.1 3.8.8 9-7 6.3-11s-6.3.8-10-.1c-3.6-1-3.6-2.6-6.4-2.6-2.8.1-8.5 5.5-8.7 8.5 0 1.7 2.8 2.6 5.6 2.2s5.4-2.1 6.8-2.1" style="fill:#02ab47"/><path d="M20.3 16.1c.1 3.5 5.7 4.4 15 4.5s15.1-.7 15-4.2-10.7-4.1-16.2-4.3-13.8.4-13.8 4m22.1 13.7c.5 2.7 4.4 2.4 10 2.5 6.1.1 11 .6 11.3-2.7s-7.7-3-11-3c-3.2.1-10.8 0-10.3 3.2" style="fill:#fffffe"/></svg>