<svg xml:space="preserve" width="16" height="16" viewBox="0 0 128 128"><path d="M29.3 97.3c-6-1.5-19.7-9-23.6-20-3.1-8.7-1.3-19.4 4.3-24.9 3.7-3.6 8.5-4.6 13.5-2.7 10.4 3.8 15 25.1 15 25.3v.6c.3 6.2 0 17-4.2 20.5a6 6 0 0 1-5 1.2m-9.7-38.9c-2.9-1.8-4.5-.8-4.5-.8-3.5 3.4-4.3 9.6-1.5 16.3A25 25 0 0 0 29.7 87c1-2.2.4-3.4.3-9-1.4-6-6.3-17.1-10.4-19.7" style="fill:#ee5a46"/><path d="M46.8 109.7q.7-.8 1.6-1.3c1.2-.6 8.8-1.5 17.2-2.4 8.5.9 16.1 1.8 17.3 2.4a4 4 0 0 1 1.5 1.3c1.4 1.8 2.2 4.6.2 5.6-2.9 1.5-8.7 3.4-19 3.4s-16-2-19-3.4c-1.9-1-1.1-3.8.2-5.6" style="fill:#cc3f27"/><path d="M47.5 45.3s12.8-4.2 18.1-4.2 18.2 4.2 18.2 4.2c10.3 8.4 21.7 21.5 21.7 34 0 13-7.8 25.4-20.2 31.2-5.7 2.7-12.8 3.2-19.7 3.2s-14-.5-19.6-3.2a35 35 0 0 1-20.2-31.3c0-12.4 11.4-25.5 21.7-33.9m75.9 5.7-.1-1.4-9.5-.7s-3.4 2.8-5.5 8.3c-1.9 5.2-3.4 10.5-5.9 10.9l-2.4.4s-5.7 1.2-6 12.5c-.2 11.2 6 13 6 13s7.4 1 13.1-9.9 3.7-18.3 5.6-23.8 4.7-9.3 4.7-9.3" style="fill:#ee5a46"/><ellipse cx="118.5" cy="50" rx="5.3" ry="2.8" style="fill:#ee5a46"/><ellipse cx="118.5" cy="49.9" rx="3.7" ry="1.7" style="fill:#af2c1b"/><path d="M44.2 46.8A70 70 0 0 1 65 44c8 0 15.2 1 20.3 2.6l5.4 5c.7.7-1.4 9.6-25.8 9.6s-26.3-8.8-25.6-9.5z" style="fill:#cc3f27"/><ellipse cx="65.1" cy="50.9" rx="25.7" ry="8.4" style="fill:#ffa726"/><path d="M86.6 47.4s-8-8.6-21.6-8.6-21.6 8.6-21.6 8.6c0 3.8 9.7 6.9 21.6 6.9s21.6-3.1 21.6-7" style="fill:#ee5a46"/><circle cx="65" cy="34.9" r="7.3" style="fill:#ee5a46"/><path d="M59.2 39.4q1.5.9 2.9 1.4a9 9 0 0 0 5.8 0q1.4-.5 3-1.4a5 5 0 0 1-2.3 2.8q-1.6 1-3.6 1t-3.6-1-2.2-2.9M21.9 59.8q-3-2-6-2.6a6 6 0 0 0-5.3 2q-1 1-1.6 2.5t-1 3a56 56 0 0 0-.9 6.7 19 19 0 0 1 0-10.4 9 9 0 0 1 5.3-5.2 7 7 0 0 1 3.8 0q3.6 1 5.7 4" style="fill:#cc3f27"/><path d="M33.6 68.1c2.5-6.4 8.4-8 10.6-5.7 3.6 3.8-2 11.2-4.6 15-2 3-2.4 8.9-2.6 9.7-1 3.4-3.6 1.2-4.4-2-1.2-5-1.5-10.6 1-17" style="fill:#ff8e5c"/></svg>