<svg xml:space="preserve" width="16" height="16" viewBox="0 0 128 128"><path d="M64.7 5.4C23.7 5.4 24 43.4 24 44c0 24.5 1.9 59.2 11.7 72.9 3.9 5.4 11.4 5.7 11.4 5.7h34s7.5-.3 11.4-5.7c9.8-13.7 11.7-48.4 11.7-73 0-.5 1.5-38.5-39.5-38.5" style="fill:#ab872f"/><radialGradient id="a" cx="64.1" cy="67" r="47.5" gradientTransform="matrix(1 0 0 -1.19 0 140.73)" gradientUnits="userSpaceOnUse"><stop offset=".8" style="stop-color:#bfa055;stop-opacity:0"/><stop offset="1" style="stop-color:#bfa055"/></radialGradient><path d="M64.7 5.4C23.7 5.4 24 43.4 24 44c0 24.5 1.9 59.2 11.7 72.9 3.9 5.4 11.4 5.7 11.4 5.7h34s7.5-.3 11.4-5.7c9.8-13.7 11.7-48.4 11.7-73 0-.5 1.5-38.5-39.5-38.5" style="fill:url(#a)"/><linearGradient id="b" x1="64" x2="64" y1="32.1" y2="-3.4" gradientTransform="matrix(1 0 0 -1 0 128)" gradientUnits="userSpaceOnUse"><stop offset="0" style="stop-color:#651fff"/><stop offset=".7" style="stop-color:#5914f2"/><stop offset="1" style="stop-color:#530eeb"/></linearGradient><path d="M64.1 96c-25.5 0-52 7.3-52 25v3h104v-3c0-16.7-26.3-25-51.9-25" style="fill:url(#b)"/><path d="M55 90v10c0 4.6 3.6 8.2 8.2 8.2h1.6c4.6 0 8.3-3.6 8.3-8.1V90z" style="fill:#c48e6a"/><path d="M64 11c-17.4 0-33.5 18.7-33.5 45.5C30.5 83 47 96.3 64 96.3S97.5 83 97.5 56.5C97.5 29.7 81.5 11 64 11" style="fill:#e0bb95"/><path d="M55 51.8c-1-1.2-3-3-7.2-3s-6.3 1.8-7.3 3q-.5 1 0 1.6t2 .4c1.4-.2 2.4-1.2 5.3-1.2 2.8 0 4.5.9 5.3 1.2q1.4.3 2-.4.4-.6-.1-1.6m32.5 0c-1-1.2-3-3-7.2-3s-6.4 1.8-7.3 3q-.5 1 0 1.6t1.9.4c1.4-.2 2.5-1.2 5.4-1.2 2.8 0 4.4.9 5.3 1.2q1.4.3 1.9-.4t0-1.6" style="fill:#ab872f"/><path d="M67.8 68h-7.6q-1.1.5-.7 1.7a5 5 0 0 0 4.5 2.6c2.8 0 4.2-2 4.5-2.6q.4-1.2-.7-1.6" style="fill:#c48e6a"/><path d="M47.7 60.3q-3.2 0-5.2-1.3-.8-.4-.8.5c.4 2.5 3 4.4 6 4.4s5.6-2 6-4.4q0-1-.8-.5a10 10 0 0 1-5.2 1.3m32.6 0q-3.1 0-5.2-1.3-.8-.4-.7.5c.3 2.5 2.9 4.4 6 4.4s5.5-2 5.9-4.4q0-1-.8-.5a10 10 0 0 1-5.2 1.3" style="fill:#5d4037"/><path d="M74 81.8c0 1-4.5 1.2-10 1.2s-10-.2-10-1.2S58.6 80 64 80s10 .6 10 1.7" style="fill:#6d4c41"/><path d="M64.7 5.4C23.7 5.4 24 43.4 24 44c0 7.7.2 16.5.7 25.3h6.8c-.1-3 2-21 8-22.4a78 78 0 0 0 35-16.9c3.3 7.2 13.6 14.2 17.3 16.9 3 2.2 4.3 18.6 4.3 22.4h7.3V69c.6-8.7.8-17.4.8-25.1 0-.6 1.5-38.6-39.5-38.6" style="fill:#ab872f"/><radialGradient id="c" cx="64.4" cy="63" r="49.8" gradientTransform="matrix(1 0 0 -1.214 0 141.45)" gradientUnits="userSpaceOnUse"><stop offset=".8" style="stop-color:#bfa055;stop-opacity:0"/><stop offset="1" style="stop-color:#bfa055"/></radialGradient><path d="M64.7 5.4C23.7 5.4 24 43.4 24 44c0 7.7.2 16.5.7 25.3h6.8c-.1-3 2-21 8-22.4a78 78 0 0 0 35-16.9c3.3 7.2 13.6 14.2 17.3 16.9 3 2.2 4.3 18.6 4.3 22.4h7.3V69c.6-8.7.8-17.4.8-25.1 0-.6 1.5-38.6-39.5-38.6" style="fill:url(#c)"/><linearGradient id="d" x1="70" x2="57.5" y1="42.7" y2="36.8" gradientTransform="matrix(1 0 0 -1 0 128)" gradientUnits="userSpaceOnUse"><stop offset=".5" style="stop-color:#000"/><stop offset="1" style="stop-color:#000;stop-opacity:0"/></linearGradient><path d="M81.8 74.2c1.8-4.4 1.5-6.5.2-10.6-.3-1-.5-3.3-.6-4.1-.3-3 .8-6.8 1.4-7.5a6 6 0 0 0 1.4-4.4c-.2-2.2-3.9-5-8-.8A15 15 0 0 0 74 51l-5.4-12.9V38a6 6 0 0 0-3.4-3.4 5 5 0 0 0-4 .3q-1.4.8-2 2.1a5 5 0 0 0-5-1.1 5 5 0 0 0-3 2.8q-.4 1.3-.3 2.8-1.6-.3-3.2.6c-1 .6-3.8 2.7-1.5 7.2l.2.4q-1.4.1-2 .5a5 5 0 0 0-2.5 3.3q-.6 2.3 1 4.4l6.2 9 5.4 8.4a19 19 0 0 0 4.3 4.7q-.5 1.5.1 3L74 124h34.4z" style="opacity:.2;fill:url(#d)"/><linearGradient id="e" x1="57.8" x2="74.5" y1="91.6" y2="53.3" gradientTransform="matrix(1 0 0 -1 0 128)" gradientUnits="userSpaceOnUse"><stop offset=".5" style="stop-color:#e0bb95"/><stop offset="1" style="stop-color:#cca47a"/></linearGradient><path d="M81.2 45.9c-1-.5-2.8 0-4.4 1.8s-1 4.5-1.6 6c-.2.6-1 .6-1.2 0l-6.7-16c-.7-1.6-2.3-2.6-3.9-1.7-1.2.7-1.4 2.3-.9 3.7l4.3 11.5-.1.4-.4-.2L59.4 39c-.7-1.3-2-2.2-3.3-1.8-1.7.6-2 2.4-1.2 4L61.1 54q.2.5-.2.8-.5.2-.8-.2l-6.3-10c-.8-1.2-2.2-2.3-3.7-1.4s-1.3 2.4-.6 3.9c.7 1.2 4.6 8 5.8 9.8q.1.5-.2.9-.5.1-.8-.2l-4.2-5c-1-1.3-2.2-2-3.4-1.2-1.6.8-1.7 2.6-.6 4l6.2 9.1 5.4 8.4c4.2 6.4 8.7 6.2 9.6 6.2 2.3 0 7.2-2 8.8-2.8 8.8-4.2 4.4-11.9 4-16.5-.3-2.8.8-8 2.2-10 1.4-1.8-.2-3.5-1.1-3.9" style="fill:url(#e)"/><linearGradient id="f" x1="67.1" x2="83.6" y1="19.1" y2="25.6" gradientTransform="matrix(1 0 0 -1 0 128)" gradientUnits="userSpaceOnUse"><stop offset="0" style="stop-color:#651fff"/><stop offset=".7" style="stop-color:#5914f2"/><stop offset="1" style="stop-color:#530eeb"/></linearGradient><path d="M78.1 124 62.4 80.9v-.1q-.4-.6-.1-1.2.3-.8.8-.8l16.5-7.3.6-.2q1 0 1.4.8l29.8 51.9z" style="fill:url(#f)"/></svg>