<svg xml:space="preserve" width="16" height="16" viewBox="0 0 128 128"><path d="M117.4 124H10.6C7 124 4 121 4 117.4V16h120v101.4c0 3.6-3 6.6-6.6 6.6" style="fill:#82aec0"/><path d="M27.7 116.4H12.9a5 5 0 0 1-5-5.1V25.5h24.9v85.8a5 5 0 0 1-5.1 5m29.1.1H42a5 5 0 0 1-5-5.1V25.5h24.9v85.8a5 5 0 0 1-5 5m29.1.1H71.2a5 5 0 0 1-5.1-5.1V25.5h25v85.8a5 5 0 0 1-5.1 5m29.1.1h-14.8a5 5 0 0 1-5-5.1V25.5h24.9v85.8a5 5 0 0 1-5 5" style="fill:#fff"/><path d="M124 8.5c0-2.5-2-4.5-4.5-4.5H8.5C6 4 4 6 4 8.5V28h22.5v52.4c0 1.2 1.2 2.2 2.6 2.2h11.5c1.4 0 2.6-1 2.6-2.2V28h12.5v52.4q.2 2 2.5 2.2h11.6q2.3-.2 2.5-2.2V28h12.5v52.4c0 1.2 1.2 2.2 2.6 2.2h11.5c1.4 0 2.5-1 2.5-2.2V28H124z"/><path d="M4 4h120v6.7H4zm93.4 76.3H89q-1.5-.1-1.6-1.6v-7.2q.1-1.3 1.6-1.5h8.5q1.4.2 1.5 1.5v7.2q-.2 1.4-1.5 1.5m-29.2.1h-8.6q-1.4-.1-1.5-1.6v-7.2q.2-1.3 1.5-1.5h8.6q1.4.2 1.5 1.5v7.2q-.2 1.4-1.5 1.5m-29.2.1h-8.5q-1.4-.1-1.5-1.6v-7.2q0-1.3 1.5-1.5H39q1.5.2 1.6 1.5v7.2q-.1 1.4-1.6 1.5" style="fill:#757575"/></svg>