<svg xml:space="preserve" width="16" height="16" viewBox="0 0 128 128"><path d="m21 18.8 87.8-2.3V105c0 6.3-19.7 11.4-44 11.4S21 111.3 21 105" style="fill:#b7d5e5"/><ellipse cx="64" cy="16.9" rx="44.9" ry="11.4" style="fill:#e0e0e0"/><ellipse cx="64" cy="16.9" rx="18.6" ry="4.7" style="fill:#82aec0"/><ellipse cx="64" cy="16.7" rx="15.3" ry="3.5" style="fill:#2f7889"/><path d="m64 5.5-6.2.1c-1 0-1 .6 0 .7s14.8.7 22.4 1.6a67 67 0 0 1 23.3 5.8c1.2.7 4.5 2 2.9 5.4-.4.8-1.5 2.5-7 4.8-2.1.9 7.3 1.5 9.4-.6l.1-6.4C109 10.6 88.8 5.5 64 5.5" style="fill:#b7d5e5"/><path d="M84.1 39.9s-12.3-5.1-36.4-8.7-27.4-11.6-27.4-11.6v84.1c3 13 40.2 13.6 51.5 14.9a53 53 0 0 1 14.5 5c3-6-3.4-24.3-3.7-29-.6-7.7 2.7-7.5 2.7-15S82.5 69.2 81.6 60s2.7-10.7 2.5-20.1" style="fill:#fff"/><path d="M46.3 33.5C69.6 37.3 84 39.9 84 39.9c-.5-.2-12.1-5.6-36.2-9.2C25.4 27.4 22.3 20.5 19 17.4c0 0 .7 11.7 27.2 16" style="fill:#eee"/><path d="M82 47.3a25 25 0 0 0-2.4 12.6A53 53 0 0 0 82 70.8a21 21 0 0 1 .3 15.4 30 30 0 0 0 1 22.5 57 57 0 0 1 3.3 15.8s2-5.7.7-12.1c-1.7-8.3-3.6-9.3-3.9-15-.3-8 3-9.7 3.2-17.6.3-8.9-3-10.6-3.9-20.2-.9-9.2 3-10.8 1.5-19.7-.5 2.4-1 4.4-2.1 7.4" style="fill:#81b6cc"/><path d="M72.9 117.4q-2.7-.5-7-.6c-7.8-.6-18.6-1.5-27.7-3.5-11.8-2.7-15.3-6.2-16-8.7 0 0 .2-70.8 0-75-.2-5.6-3.1-12.2-3.1-12.2V105c3.1 13.4 41.7 14 53.5 15.4 6.1.7 10.8 2.5 14 4.1 0 0-.6-4.8-13.7-7.1" style="fill:#b7d5e5"/><path d="M106.7 27.1c-.2 4-1 77.9-1 77.9 0 .5-11 7.8-20.6.2l1.4 9.7c13.3-2 22.3-5.7 22.3-10l.1-88s-2 4-2.2 10.2" style="fill:#81b6cc"/></svg>