<svg xml:space="preserve" width="16" height="16" viewBox="0 0 128 128"><path d="M66.9 22.9s1.7-1 1.8-3.5c0-2.6-2.1-3.4-2.1-3.4s1.3-.6 1.3-2.2-2.2-2.2-2.2-2.2 1-1.3 1-3.6-2-5-2.6-5c-.3 0-.2 9-.2 9l-.4 10.5 3 3.7z" style="fill:#ffa72b"/><path d="M61.3 22.8s-2-1.3-2-3.6c.3-2.7 2.8-3.3 2.8-3.3s-1.9-.6-1.8-2.1c.2-2 2.5-2.3 2.5-2.3s-1.1-1.1-1-3.4C62 4.5 64.1 3 64.1 3l.1 20.7z" style="fill:#ffc020"/><path d="M51 28.5s2.6-7 12.9-7C75.2 21.6 77 29 77 29l-16.8 3z" style="fill:#8c1b0d"/><path d="M51.7 33.3v4.5l12.9 1.3 11.8-.4v-5.3z" style="fill:#513630"/><path d="M47.6 31.4c0 2 1.6 3 3.7 3l26.6-.2c2 0 2.4-2 2.4-3.1q-.1-2.5-2.6-2.8l-27.2.1a3 3 0 0 0-2.9 3" style="fill:#d35113"/><path d="m24.9 116.4.2-19.6 2.4-.4-.1-10.4 2.7-.2v-9l2-1.5-.1-7.5 1.8-.7.1-7.7 5.8-.6-1.5 59.6zm64.6-55.5 4.1.5v6.3l1.8 1.3-.1 8 1.8 1.2v8l2 2v8.2l2 1.7-.1 19.2-13.2.3z" style="fill:#a62714"/><path d="m89.9 62.4 3.8.1s2.4-1 2.3-3.5c-.2-4-4.9-6-4.9-6s1.1-.3 1-2.1q-.2-2-2.2-2c-1-.1-2 .8-2 1.8s2 11.7 2 11.7m-49.9-9-.8-1.1s.7-.4.7-2c0-.9-.7-2-2.1-2a2 2 0 0 0-2.2 2.2c0 1.2 1 2 1 2s-5 2.2-5 5.8c0 2.2 2 2.6 2 2.6l5.4.1zm-2.3 12.2h-6c-.5 0-1.4.7-1.4 1.7q.1 1.5 1.6 1.7c1.5.2 6 .1 6 .1zm-.7 8.6-7.6-.3S28 74 28 75.8s1.7 1.7 1.7 1.7l7.8.3zm-.1 9.9L26 83.8q-1.5.2-1.5 1.8t1.7 1.7l10.5.3zm.1 11.3-13-.3c-.6 0-1.4.5-1.5 1.7s.5 1.9 1.6 2l13.5.3zM90.2 67h5.3q1.5.4 1.6 1.7c0 .7-.6 1.8-1.8 1.8H89zm-.2 8.3 7.4.3q2 .2 1.9 1.7c-.1 1.5-.8 1.7-2 1.7l-9-.1zm0 9.7 8.9.1c.5 0 2.4.3 2.4 1.8 0 1.4-1.3 1.8-2.3 1.8h-9.6zm-.2 10.9h12.5c1.3 0 1.8 1 1.8 1.7s-.3 1.6-2 1.6H89z" style="fill:#503730"/><path d="M51.4 37.7H76s5.5 1.8 11.1 11.2c4.8 7.9 4 18 4 29.6s-.4 37.5-.4 37.5l-26.9 4-27.5-3.7-.1-38.2C36.2 66 38 53.8 42 47.5a31 31 0 0 1 9.3-9.9" style="fill:#d55113"/><path d="M77.7 40.1h-5.2q-1.2-.2-1.3-1.4.1-1.2 1.3-1.3l5.2.1q1.2.1 1.3 1.3-.1 1.2-1.3 1.3m-21.3-.4H51q-1.2-.1-1.3-1.3.1-1.2 1.3-1.3h5.5q1.2 0 1.3 1.3-.1 1.2-1.3 1.3m-6.9 7-5.4-.1q-1.2-.1-1.3-1.4.2-1.2 1.4-1.2h4.1l.1-1.1q.1-1.1 1.4-1.2l7.7.2q1.2.1 1.3 1.3-.1 1.2-1.4 1.3l-6.5-.1-.1 1q-.1 1.2-1.3 1.3m34.9.1h-6q-1-.1-1.3-1.3v-.9l-6.7-.1q-1.2-.1-1.3-1.4.1-1.2 1.4-1.2l7.8.1q1.1 0 1.3 1.2v1h4.8a1.3 1.3 0 0 1 0 2.6m-14.8-4.1-11-.1q-1.2-.1-1.3-1.3.1-1.2 1.4-1.3h10.9q1.2.3 1.3 1.4-.1 1.2-1.3 1.3M46 54h-5.6a1.3 1.3 0 1 1 0-2.7l4.3.1v-1q.1-1.2 1.3-1.3l8 .3a1.3 1.3 0 1 1 0 2.6l-6.7-.2v1q-.2 1.2-1.4 1.3m-2.6 8.4-5.7-.1q-1.2-.2-1.3-1.4.2-1.2 1.4-1.3l4.3.1v-.7q.2-1.2 1.4-1.2l7.9.2a1.3 1.3 0 1 1 0 2.6l-6.7-.2v.8q-.1 1.1-1.3 1.2m-1.4 8.9h-5.2q-1.2-.1-1.3-1.3c0-1.2.6-1.3 1.3-1.3h3.8v-1q.1-1.3 1.3-1.4h8.3q1.2.1 1.3 1.3-.1 1.2-1.3 1.3h-7v1.1q0 1.2-1.2 1.3m.1 9h-5.7Q35 80.1 35 79q0-1.2 1.3-1.3h4.3v-1q0-.4.4-.9l1-.4 11.8.2a1.3 1.3 0 0 1 0 2.6l-10.6-.1v1a1.3 1.3 0 0 1-1.3 1.3M83 54.6q-1.2-.1-1.4-1.3v-1l-7.2-.1a1.3 1.3 0 0 1 0-2.7l8.5.2q1.2 0 1.3 1.3v1h4.2a1.3 1.3 0 0 1 0 2.6zm7.2 8.4-5.6-.1q-1.2-.1-1.3-1.3v-.8h-6.6q-1.2-.1-1.3-1.3.1-1.2 1.3-1.3h7.9q1.2.1 1.3 1.4v.7h4.3q1.2.2 1.3 1.4-.1 1.2-1.3 1.3m.3 8.9-5.2-.1q-1.2-.2-1.3-1.4v-1l-6.9-.3a1.3 1.3 0 0 1 0-2.6l8.4.2q1.1.2 1.2 1.4v1l3.8.2a1.3 1.3 0 0 1 0 2.6M91 81l-5.6-.2q-1.2-.1-1.3-1.3v-1H73.6q-1.2-.1-1.3-1.3.1-1.2 1.3-1.3h11.9q.5 0 1 .4.3.3.3 1v1H91q1.1.3 1.2 1.4Q92.1 81 91 81M73.6 50.1l-18.7-.4q-1.2-.1-1.3-1.3.1-1.2 1.4-1.3l18.6.4q1.2.1 1.3 1.3-.1 1.2-1.4 1.3m3.4 17.5-26.5-.4q-1.2-.2-1.3-1.4.1-1.2 1.3-1.3L77 65q1.2.1 1.3 1.3-.1 1.2-1.4 1.3m13.6 36.5-54-.7q-1.2-.1-1.3-1.3.1-1.2 1.3-1.3l54 .7q1.2.1 1.3 1.3-.1 1.3-1.3 1.3m-.5 11.3-54.4-.4q-1.2-.1-1.3-1.3.1-1.2 1.3-1.3l54.5.4q1.2 0 1.3 1.3-.1 1.2-1.3 1.3" style="fill:#fa8960"/><path d="M61.2 59.7 46.1 89l-.6 28.4 35.5.4.6-26.2L67 59.7z" style="fill:#ee6d33"/><path d="M58.8 63c-.3.2-3.4 5-3.1 5.5 0 .2 3.9.3 8 .3H72c.1-.3-2.4-5.4-2.6-5.5C69 63 59 63 58.7 63m-4.8 8.3c-.4.2-4.8 7.7-4.5 8 .2.4 6.9.3 13.7.4 7 0 14.3.3 14.4.2.3-.3-3.7-8.1-4.2-8.3l-9.4-.3z" style="fill:#fdbba0"/><path d="m45 91.2-.5 25H47l.3-26.2zm35.1.6V117l2.7-.7v-25z" style="fill:#8b200d"/><path d="M47.7 82.8a40 40 0 0 0-4.6 8.8c.1.2 10 .2 20.1.4 10.5 0 21 .3 21.2.1s-4.9-8.5-5.2-8.8a755 755 0 0 0-31.6-.5" style="fill:#fdbba0"/><path d="M15.8 115c-1 .4-1 8.6-.6 9.3s94.4.7 95.1.4.3-8.7-.1-9.3c-.2-.1-24 0-47.8-.2-23.3-.1-46.4-.4-46.6-.3" style="fill:#ee6d33"/><path d="m53 97.2-.4 18.9H74s.4-18.2.2-18.5c0-.3-21-.7-21.2-.4" style="fill:#51362f"/><path d="M51.8 115.9v3.8s-1.2 0-1.2.2c-.2.3 0 3.3 0 3.3l24.9 1.2-.1-4.3h-1s.2-4-.1-4c-.9 0-6 0-11.7-.2z" style="fill:#fa8960"/><path d="m50.6 124.9 24.9.1v-2.5l-25-.2zm1.2-7 22.7.2-.1 2-22.6-.3z" style="fill:#d05314"/><path d="m76.4 58.8-25.3-.5q-1.2-.1-1.3-1.3.1-1.2 1.4-1.3l25.3.5q1.2.1 1.3 1.3-.2 1.2-1.4 1.3" style="fill:#fa8960"/><path d="M59.8 58.4s1.2-2.7 4.3-2.7c3.3 0 4.6 2.8 4.6 2.8s1.5.4 1.8 1.5q.3 1.2-1.6 1.3h-4.8l-4.7-.2q-1.9 0-1.6-1.4c.3-1.3 2-1.4 2-1.4m4.4-6.5q-2 .2-2 2.2c0 2 .8 2 2.1 2s2-1 2-2.1c0-1-.9-2-2-2" style="fill:#fdbba0"/></svg>