<svg xml:space="preserve" width="16" height="16" viewBox="0 0 128 128"><path d="M29 111.7s-3-4.7 0-8.6l68.7-1.7s5.4 3 1.6 10.3c-2.3 4.4-15.8 7.4-35.2 7.4s-33.3-4-35.2-7.4" style="fill:#e6a467"/><path d="M28.8 103.1c0-1.6 10.1-10 10.1-10 6.4-3 44.3-2.3 50.2 0 0 0 10 8.1 10 10 0 3.2-15.8 7.3-35.2 7.3s-35-4-35-7.3" style="fill:#f7cf92"/><linearGradient id="a" x1="77.5" x2="89.2" y1="63.3" y2="63.3" gradientUnits="userSpaceOnUse"><stop offset="0" style="stop-color:#0091ea"/><stop offset="1" style="stop-color:#01579b"/></linearGradient><path d="M39 29.2v62.3a3 3 0 0 0 1.7 2.6c2.7 1.3 9.3 3.2 23.3 3.2s20.6-2 23.3-3.2a3 3 0 0 0 1.8-2.6V29.2z" style="fill:url(#a)"/><path d="M39 31v-2l50 2c0 3.5-11.2 6.3-25 6.3S39 34.5 39 31" style="fill:#0d47a1"/><radialGradient id="b" cx="43.6" cy="105.5" r="9" gradientTransform="matrix(.86 -.466 .985 1.82 -97.4 -67.04)" gradientUnits="userSpaceOnUse"><stop offset=".6" style="stop-color:#784d30;stop-opacity:0"/><stop offset=".8" style="stop-color:#784d30"/></radialGradient><path d="M38.8 93.3c-1.8 4.8-.7 9.7 2 14A47 47 0 0 0 51 118.6q-3.8 0-7.2-2.2a23 23 0 0 1-11-17.9" style="opacity:.32;fill:url(#b)"/><path d="M73.8 125a67 67 0 0 1-20.9-3c-10.4-3.5-17.6-9.6-20.3-17.4-4.3-12.5 5.1-35.6 10.1-48l2.8-7a1.5 1.5 0 1 1 2.8.8l-2.8 7.3c-5 12-14 34.5-10 46 4.3 12.6 24.2 23.7 58.6 16.7.8-.1 1.8-.1 2.1.6.4.8-.3 1.6-1.1 1.7Q83.9 125 73.8 125" style="fill:#0091ea"/><path d="M39 29.2s-5.9-3-10.1-7.4l69.4 1c-2.7 4-9.3 8-9.3 8s-4.5 2.3-25.4 2.3-24.7-3.9-24.7-3.9" style="fill:#c87d5e"/><path d="M28.9 21.8c-2.9-2.3-1.3-10 .5-11C35 7.7 88.3 6.7 98 10.4c3.5 1.3 3 8.6 1.1 11.4-2.5 3.6-15.7 5.8-35.2 5.8S33.2 25.5 29 21.8" style="fill:#e6a467"/><ellipse cx="64" cy="12" rx="35.2" ry="7" style="fill:#f7cf92"/><ellipse cx="64" cy="10.8" rx="8.1" ry="2.5" style="fill:#784d30"/><linearGradient id="c" x1="39.3" x2="60.9" y1="38.5" y2="38.5" gradientUnits="userSpaceOnUse"><stop offset="0" style="stop-color:#40c4ff;stop-opacity:0"/><stop offset=".5" style="stop-color:#40c4ff"/><stop offset="1" style="stop-color:#40c4ff;stop-opacity:1.624770e-05"/></linearGradient><path d="M39.3 37.8v-3.4c4.5 2.9 10 4.9 21.6 5l-.4 3q-15.8.6-21.2-4.6" style="fill:url(#c)"/><linearGradient id="d" x1="39.2" x2="60.9" y1="46.9" y2="46.9" gradientUnits="userSpaceOnUse"><stop offset="0" style="stop-color:#40c4ff;stop-opacity:0"/><stop offset=".5" style="stop-color:#40c4ff"/><stop offset="1" style="stop-color:#40c4ff;stop-opacity:1.624770e-05"/></linearGradient><path d="M39.3 46.3v-3.5c4.3 2.9 10 5 21.6 5l-.3 3.2c-10.8.5-17.7-1.5-21.3-4.7" style="fill:url(#d)"/><linearGradient id="e" x1="39.2" x2="60.9" y1="55.4" y2="55.4" gradientUnits="userSpaceOnUse"><stop offset="0" style="stop-color:#40c4ff;stop-opacity:0"/><stop offset=".5" style="stop-color:#40c4ff"/><stop offset="1" style="stop-color:#40c4ff;stop-opacity:1.624770e-05"/></linearGradient><path d="m39.3 54.9-.1-3.6c4.1 2.8 10 4.9 21.7 5l-.2 3.1c-11.1.6-18-1.7-21.4-4.5" style="fill:url(#e)"/><linearGradient id="f" x1="39.1" x2="60.9" y1="63.9" y2="63.9" gradientUnits="userSpaceOnUse"><stop offset="0" style="stop-color:#40c4ff;stop-opacity:0"/><stop offset=".5" style="stop-color:#40c4ff"/><stop offset="1" style="stop-color:#40c4ff;stop-opacity:1.624770e-05"/></linearGradient><path d="m39.3 63.4-.2-3.7c4 2.8 10 5 21.8 5l-.2 3.2c-11.3.7-18-1.9-21.4-4.5" style="fill:url(#f)"/><linearGradient id="g" x1="39.1" x2="60.9" y1="72.3" y2="72.3" gradientUnits="userSpaceOnUse"><stop offset="0" style="stop-color:#40c4ff;stop-opacity:0"/><stop offset=".5" style="stop-color:#40c4ff"/><stop offset="1" style="stop-color:#40c4ff;stop-opacity:1.624770e-05"/></linearGradient><path d="m39.3 72-.2-3.8c3.7 2.8 9.9 4.9 21.8 5l-.1 3.1c-11.5 1-18.2-2-21.5-4.3" style="fill:url(#g)"/><linearGradient id="h" x1="39" x2="60.9" y1="80.8" y2="80.8" gradientUnits="userSpaceOnUse"><stop offset="0" style="stop-color:#40c4ff;stop-opacity:0"/><stop offset=".5" style="stop-color:#40c4ff"/><stop offset="1" style="stop-color:#40c4ff;stop-opacity:1.624770e-05"/></linearGradient><path d="m39.3 80.5-.3-3.9c3.6 2.8 9.9 5 21.9 5v3.2a34 34 0 0 1-21.6-4.3" style="fill:url(#h)"/><linearGradient id="i" x1="38.9" x2="60.9" y1="89.3" y2="89.3" gradientUnits="userSpaceOnUse"><stop offset="0" style="stop-color:#40c4ff;stop-opacity:0"/><stop offset=".5" style="stop-color:#40c4ff"/><stop offset="1" style="stop-color:#40c4ff;stop-opacity:1.624770e-05"/></linearGradient><path d="m39.3 89-.4-4c3.4 2.8 9.8 5 22 5v3.2A34 34 0 0 1 39.3 89" style="fill:url(#i)"/><linearGradient id="j" x1="68.2" x2="89.2" y1="38.4" y2="38.4" gradientUnits="userSpaceOnUse"><stop offset="0" style="stop-color:#01579b;stop-opacity:0"/><stop offset="1" style="stop-color:#01579b"/></linearGradient><path d="M89 37.4v-3c-4.5 2.9-10.1 4.9-21.6 5l.3 3c11.2.3 17.4-1 21.4-5" style="fill:url(#j)"/><linearGradient id="k" x1="68.4" x2="89.1" y1="46.9" y2="46.9" gradientUnits="userSpaceOnUse"><stop offset="0" style="stop-color:#01579b;stop-opacity:0"/><stop offset="1" style="stop-color:#01579b"/></linearGradient><path d="M89 46v-3.2c-4.4 2.8-10 4.9-21.6 5l.3 3.1c11 .4 17.5-1.3 21.3-4.9" style="fill:url(#k)"/><linearGradient id="l" x1="68.6" x2="89" y1="55.4" y2="55.4" gradientUnits="userSpaceOnUse"><stop offset="0" style="stop-color:#01579b;stop-opacity:0"/><stop offset="1" style="stop-color:#01579b"/></linearGradient><path d="M89 54.6v-3.3c-4.3 2.7-10 4.9-21.6 5l.3 3.1c10.8.5 17.6-1.5 21.3-4.8" style="fill:url(#l)"/><linearGradient id="m" x1="68.8" x2="88.9" y1="63.9" y2="63.9" gradientUnits="userSpaceOnUse"><stop offset="0" style="stop-color:#01579b;stop-opacity:0"/><stop offset="1" style="stop-color:#01579b"/></linearGradient><path d="M89 63.2v-3.5a38 38 0 0 1-21.6 5l.3 3.1c10.6.7 17.8-1.6 21.3-4.6" style="fill:url(#m)"/><linearGradient id="n" x1="69" x2="88.8" y1="72.3" y2="72.3" gradientUnits="userSpaceOnUse"><stop offset="0" style="stop-color:#01579b;stop-opacity:0"/><stop offset="1" style="stop-color:#01579b"/></linearGradient><path d="M89 71.9v-3.7a39 39 0 0 1-21.7 5l.4 3.1c10.5.9 17.9-1.8 21.3-4.5" style="fill:url(#n)"/><linearGradient id="o" x1="69.1" x2="88.7" y1="80.8" y2="80.8" gradientUnits="userSpaceOnUse"><stop offset="0" style="stop-color:#01579b;stop-opacity:0"/><stop offset="1" style="stop-color:#01579b"/></linearGradient><path d="M89 80.5v-3.9a39 39 0 0 1-21.6 5l.3 3.2c10.3 1 18-2 21.3-4.3" style="fill:url(#o)"/><linearGradient id="p" x1="69.3" x2="88.6" y1="89.3" y2="89.3" gradientUnits="userSpaceOnUse"><stop offset="0" style="stop-color:#01579b;stop-opacity:0"/><stop offset="1" style="stop-color:#01579b"/></linearGradient><path d="M89 89v-3.9a40 40 0 0 1-21.7 5l.4 3.1A34 34 0 0 0 89 89" style="fill:url(#p)"/></svg>