<svg xml:space="preserve" width="16" height="16" viewBox="0 0 128 128"><linearGradient id="a" x1="63.8" x2="63.8" y1="4.4" y2="35.7" gradientTransform="matrix(1 0 0 -1 0 128)" gradientUnits="userSpaceOnUse"><stop offset="0" style="stop-color:#b3b3b3"/><stop offset="0" style="stop-color:#b7b7b7"/><stop offset=".4" style="stop-color:#d9d9d9"/><stop offset=".6" style="stop-color:#e6e6e6"/></linearGradient><path d="M64.4 92.2h-.2c-25.8 0-52.2 9.3-52.2 31.4v.4h103.6v-.4c0-20.8-25.3-31.4-51.2-31.4" style="fill:url(#a)"/><path d="M89 124v-8.7a4 4 0 0 0-4-4H44.7a4 4 0 0 0-4 4v8.7z" style="fill:#a6a6a6"/><path d="M116.1 124v-.4c0-5.1-2.2-8.3-3.4-11.2l-8 2.8 3.2 8.8zm-95.6 0 .2-3.2q-.1-6-4.4-10.8a20 20 0 0 0-4.2 12.3v1.7z" style="fill:#757575"/><linearGradient id="b" x1="63.9" x2="63.9" y1="36.1" y2="18.1" gradientTransform="matrix(1 0 0 -1 0 128)" gradientUnits="userSpaceOnUse"><stop offset="0" style="stop-color:#e6e6e6"/><stop offset=".3" style="stop-color:#d9d9d9"/><stop offset=".9" style="stop-color:#b7b7b7"/><stop offset="1" style="stop-color:#b3b3b3"/></linearGradient><path d="M97.4 102.5a85 85 0 0 1-63.6 1.3c-2.7-1-5.4-2-7.4-4.2a8 8 0 0 1-2.2-7.2 9 9 0 0 1 5-5.8 11 11 0 0 1 8.5.2 68 68 0 0 0 50 1q2.4-1 5-1.8a10 10 0 0 1 8.5 2 8 8 0 0 1 2.3 8.3 11 11 0 0 1-6.1 6.2" style="fill:url(#b)"/><ellipse cx="64" cy="53" rx="49.2" ry="48.7" style="fill:#4c4c4c"/><path d="M110.4 53a45 45 0 0 1-19.5 37.3 46 46 0 0 1-38 7.3 46 46 0 0 1-26.2-17.2l-1-1.4a45 45 0 0 1 4.1-57 46.6 46.6 0 0 1 80.6 31" style="fill:#212121"/><path d="M102.9 45.3a359 359 0 0 1-1.6 35 42 42 0 0 1-10.4 10 46 46 0 0 1-38 7.3 46 46 0 0 1-26.2-17.2 343 343 0 0 1-1.6-35.1c0-.4 0-10 5.7-19 5.2-8 15-15.5 33.8-15.5 20.4 0 30 9 34.4 17.8 4.2 8.3 3.9 16.4 3.9 16.7" style="fill:#543930"/><radialGradient id="c" cx="64" cy="60.7" r="41.7" gradientTransform="matrix(1 0 0 -1.19 0 139.54)" gradientUnits="userSpaceOnUse"><stop offset=".8" style="stop-color:#6d4c41;stop-opacity:0"/><stop offset="1" style="stop-color:#6d4c41"/></radialGradient><path d="M102.9 45.3a359 359 0 0 1-1.6 35 42 42 0 0 1-10.4 10 46 46 0 0 1-38 7.3 46 46 0 0 1-26.2-17.2 343 343 0 0 1-1.6-35.1c0-.3 0-10 5.7-19 5.2-8 15-15.5 33.8-15.5 20.4 0 30 9 34.4 17.8 4.2 8.3 3.9 16.4 3.9 16.7" style="fill:url(#c)"/><path d="M74.9 91.8v5.8L73 98a47 47 0 0 1-20.1-.4v-5.8z" style="fill:#99674f"/><path d="M96 56.3A39 39 0 0 1 71.4 94q-4.1 1.5-7.6 1.4-3.6 0-7.6-1.4a39 39 0 0 1-24.5-37.7c0-15.3 5.2-25.9 12.8-32A54 54 0 0 1 83 24c7.8 6.2 13 16.9 13 32.3" style="fill:#ba8d68"/><path d="M67.5 68h-7.4q-1 .6-.6 1.6c.3.7 1.6 2.6 4.3 2.6s4.1-2 4.4-2.6q.4-1.1-.7-1.5" style="fill:#99674f"/><ellipse cx="48.1" cy="59.1" rx="4.7" ry="4.9" style="fill:#49362e"/><ellipse cx="79.6" cy="59.1" rx="4.7" ry="4.9" style="fill:#49362e"/><path d="M55 50.4c-.8-1.2-2.9-3-7-3s-6 1.8-7 3q-.5.8 0 1.5t1.9.3c.8-.2 2.4-1.1 5.2-1.1 2.7 0 4.3.8 5.2 1.1q1.4.3 1.8-.3t0-1.5m31.5 0c-.9-1.2-3-3-7-3s-6.1 1.8-7 3q-.5.8 0 1.5t1.8.3c.8-.2 2.5-1.1 5.2-1.1s4.4.8 5.2 1.1q1.4.3 1.9-.3t0-1.5" style="fill:#613e31"/><path d="M72 75.9a25 25 0 0 1-16.2 0c-1.8-1-3.6.6-2.8 2.2.7 1.5 6.1 5.2 10.9 5.2s10-3.7 10.8-5.2c.7-1.6-1-3.2-2.8-2.2" style="fill:#5d4037"/><path d="M64.6 8.8C24.8 8.8 25 42.7 25 43.2q0 11.5.7 24.6h6.5c0-2.9 2-20.4 7.9-21.7a79 79 0 0 0 34-16.4c3.1 7 13 13.8 16.7 16.4 3 2.1 3.8 18 3.8 21.7h7.4v-.2c.6-8.4.8-16.9.8-24.4 0-.6 1.4-34.4-38.4-34.4" style="fill:#543930"/><radialGradient id="d" cx="64.1" cy="67.9" r="42.9" gradientTransform="matrix(1 0 0 -1.214 0 142.5)" gradientUnits="userSpaceOnUse"><stop offset=".8" style="stop-color:#6d4c41;stop-opacity:0"/><stop offset="1" style="stop-color:#6d4c41"/></radialGradient><path d="M64.6 8.8C24.8 8.8 25 42.7 25 43.2q0 11.5.7 24.6h6.5c0-2.9 2-20.4 7.9-21.7a79 79 0 0 0 34-16.4c3.1 7 13 13.8 16.7 16.4 3 2.1 3.8 18 3.8 21.7h7.4v-.2c.6-8.4.8-16.9.8-24.4 0-.6 1.4-34.4-38.4-34.4" style="fill:url(#d)"/><radialGradient id="e" cx="64.7" cy="120.5" r="26" gradientTransform="matrix(1 0 0 -1 0 128)" gradientUnits="userSpaceOnUse"><stop offset="0" style="stop-color:#f2f2f2"/><stop offset=".4" style="stop-color:#e5e5e5"/><stop offset="1" style="stop-color:#ccc"/></radialGradient><path d="M113.1 53.2v.7a54.4 54.4 0 0 0-98.3 0v-.7a49.2 49.2 0 1 1 98.4 0" style="fill:url(#e)"/></svg>