<svg xml:space="preserve" width="16" height="16" viewBox="0 0 128 128"><path d="M63.4 41.8C83.4 42 90 54 94.5 61.4S103.1 81 99.2 90s-10.8 18.8-35 19.3c-23.4.5-33.8-12.2-35.8-20.7-2.4-9.7-1.1-19.5 7.8-31.3 10-13 16.8-15.5 27.2-15.5m59.4 2.5c0 12.8-7.4 24.6-23.1 25-12.8.3-23.6-12.4-22.9-25 .7-12.8 10-21.6 22.8-21.6s23.2 8.8 23.2 21.6M51.3 44c0 12.9-7.9 24.7-23.5 25.1-12.9.3-23.5-11-23-25 .6-12.8 10-21 22.9-21.5 13-.7 23.6 8.6 23.6 21.4" style="fill:#b0b0b0"/><path d="M84.7 50.4s-1.3-8.1 6-14.5c8-6.8 26.1-.4 22 15.4-3.5 13.7-20.2 9.9-20.2 9.9l-4.2-6zm-40.9-.3s2.4-10.3-8-15.4-22.4 3.1-20.4 15C17.2 60 27 61 30.1 61c2.5 0 5.3-.7 5.3-.7l4-5.1z" style="fill:#ffa8a7"/><path d="M90.9 83.7q-1.2 0-1.4-1.2 0-1.3 1.2-1.6l8.4-1 7.5-1a1.4 1.4 0 0 1 .5 2.7l-7.7 1-8.3 1zm15.7 6.3h-.3s-3.2-.6-7.9-.9l-7.7-.3a1.4 1.4 0 0 1 .1-2.8s3 0 7.8.4c4.8.2 8 .8 8.2.8.8.1 1.3.9 1.1 1.6 0 .7-.7 1.2-1.3 1.2m-2.8 7.8-.4-.1L96 95l-6.3-2q-1.3-.5-1-1.7.5-1.2 1.7-1l6.6 2.1 7.3 2.5a1.4 1.4 0 0 1-.5 2.8M38 84.8h-.3s-3.6-.9-8.5-1.8l-8.4-1.5a1.4 1.4 0 0 1 .5-2.8l8.5 1.5 8.6 1.8q1.2.5 1 1.7-.2 1-1.4 1.1m-17.2 5q-1.2 0-1.4-1.2 0-1.3 1.2-1.6c.1 0 3.4-.4 8-.6s9.3-.2 9.3-.2q1.3.1 1.5 1.3-.1 1.3-1.4 1.5l-17 .8zm3.2 8q-.8 0-1.2-.9-.4-1.2.7-1.8s2.3-1 6.4-2.2l8.3-2.4q1.2-.2 1.7 1 .2 1.3-1 1.7A283 283 0 0 0 24 97.8" style="fill:#5d6265"/><path d="M86.3 76c.4 3.6-1 5.8-3.4 6.1-3 .4-4.8-1.7-5.1-5.5-.3-3 1.4-5.5 3.7-5.7s4.4 1.7 4.8 5m-35.7.5q-.1 5.4-4 5.6c-3.3 0-5-2.4-4.9-6 .1-3 2.3-5.2 4.6-5.1 2.4 0 4.3 2 4.3 5.5" style="fill:#2f2f2f"/><path d="M58.5 93.8s0 7.7 3.6 8c1.7 0 2.3-1.2 2.3-1.2s.9 1.1 2.2 1.2c2.8.1 3.3-6 3.3-7.8s-6-2.6-6-2.6z" style="fill:#fff"/><path d="M64.2 77c-3.3 0-5 3-5 6.5.1 4.6 3.1 4.9 3 6 0 1-1.3 1.9-3.2 1.8-2.7 0-3.2-2-4.4-1.4-1.3.5-.6 2 0 2.6 1.2 1 2.3 2 4.6 2 3.3.2 4.5-1.5 5.2-1.6.7 0 2 1.4 5.5 1.5 3.8.2 5-2 5.4-2.5q.6-1 0-2c-.8-.8-1.6-.4-2.4.2a6 6 0 0 1-3 1.2c-.8 0-3.7-.8-3.7-1.9.1-1.5 3-1.2 3-6.3 0-4-2.1-6-5-6" style="fill:#2f2f2f"/></svg>