<svg xml:space="preserve" width="16" height="16" viewBox="0 0 128 128"><path d="M42 113s-.4 4.3.4 5.6c.7 1.4 4.6 5.8 21.2 6.1s21.2-4.4 21.8-5.3c.6-1 0-5.9 0-5.9z" style="fill:#5f989e"/><path d="M64.8 31.8C38.3 31 25.4 42 25 48.3c-.2 4.7.3 32.4.7 41s2.1 15.1 6.7 20.2c4.2 4.6 12.1 10.2 31.7 10.3 19 .2 26.4-6.4 30.1-10.1 3.7-3.8 6-9.2 6.9-18.4.8-8.2.6-39 .4-42.8-.2-6.3-11.6-16-36.8-16.7" style="fill:#bacdd2"/><path d="M33.4 64.8c-4.6-.5-3.8 21.2-1.6 29.7 1.8 7.1 5.9 13 9.2 11.3 2.6-1.3-1.9-9.8-3-19.3-1.7-13-.2-21.2-4.6-21.7" style="fill:#dcedf6"/><path d="M31.6 49.6c-1 6 9 14.3 31.3 14.5 21.1.2 33-8 33-13.7 0-6-10-12.9-32.8-13-22.6 0-30.7 7-31.5 12.2" style="fill:#eef9ff"/><path d="M34.8 56.4c4.5 4.1 13.7 7.6 28 7.7 14 .1 23.8-3.3 29-7.4C89.5 53 81.6 48.5 63 48c-17.5-.5-26.1 5.6-28.2 8.4" style="fill:#7db240"/><path d="M78.2 62.6q6.8-1.6 11-4.2c1-.5-3.8-7-22.2-7.5-4.4 0-7.3.5-7.4 1.7 0 2.8 7.4 1.4 12 3.9 4 2.1 5.7 4.3 6.6 6" style="fill:#aad876"/><path d="M61.2 16c-.5-.3-4.3 1.5-7.9 3.6-4.8 2.8-9.5 7.2-8.2 15 1.5 9 15.1 11.4 16 10.7s-6.5-8-5.6-15c1-7.5 7.7-13 5.7-14.3M71.3 2C68.7 5 76 6.8 73 13s-12.5 9.8-12.5 18.9 10.9 14.8 12 14c1.2-1-2.2-7.8 3.2-14 6-6.7 11.6-13.1 8.2-22.1C80.9 1.9 72.8.4 71.3 2" style="opacity:.6;fill:#dcedf6"/></svg>