<svg xml:space="preserve" width="16" height="16" viewBox="0 0 128 128"><path d="M57.2 2.8c-41 0-40.7 38-40.7 38.6 0 24.5 1.8 59.2 11.7 72.9 3.9 5.4 11.4 5.7 11.4 5.7h34s7.5-.3 11.4-5.8c9.8-13.6 11.7-48.3 11.7-72.9 0-.6 1.5-38.5-39.6-38.5" style="fill:#543930"/><radialGradient id="a" cx="56.6" cy="69.6" r="47.5" gradientTransform="matrix(1 0 0 -1.19 0 141.23)" gradientUnits="userSpaceOnUse"><stop offset=".8" style="stop-color:#6d4c41;stop-opacity:0"/><stop offset="1" style="stop-color:#6d4c41"/></radialGradient><path d="M57.2 2.8c-41 0-40.7 38-40.7 38.6 0 24.5 1.8 59.2 11.7 72.9 3.9 5.4 11.4 5.7 11.4 5.7h34s7.5-.3 11.4-5.8c9.8-13.6 11.7-48.3 11.7-72.9 0-.6 1.5-38.5-39.6-38.5" style="fill:url(#a)"/><linearGradient id="b" x1="4.1" x2="108.1" y1="18.2" y2="18.2" gradientTransform="matrix(1 0 0 -1 0 128)" gradientUnits="userSpaceOnUse"><stop offset="0" style="stop-color:#e3e3e3"/><stop offset="1" style="stop-color:#c9c9c9"/></linearGradient><path d="M56.3 95.7H56c-25.5 0-52 7.3-52 25v3.2h104v-3.2c0-16.7-26.2-25-51.8-25" style="fill:url(#b)"/><path d="M64.9 90H46.7v10c0 4.6 3.7 8.2 8.3 8.2h1.6c4.6 0 8.3-3.6 8.3-8.1z" style="fill:#99674f"/><linearGradient id="c" x1="67.6" x2="64.1" y1="36.4" y2="21.7" gradientTransform="matrix(1 0 0 -1 0 128)" gradientUnits="userSpaceOnUse"><stop offset="0" style="stop-color:#0053ab"/><stop offset=".4" style="stop-color:#0068bf"/><stop offset="1" style="stop-color:#008ee3"/></linearGradient><path d="M71.5 95.2c1.5 2.1 1.7 7-2.6 11.1-2.5 2.4-6.7 2.7-10 2.7q-1.1 0-1.8-.9-.3-1.2.8-2 1-.6 2.1-.8c1.6-.5 4-3.3 4.5-7.5.4-2.6.1-3.9.2-4.7 0-.7 5.7.4 6.8 2" style="fill:url(#c)"/><linearGradient id="d" x1="38.4" x2="59.1" y1="31.7" y2="17.7" gradientTransform="matrix(1 0 0 -1 0 128)" gradientUnits="userSpaceOnUse"><stop offset="0" style="stop-color:#008ee3"/><stop offset="1" style="stop-color:#0053ab"/></linearGradient><path d="M41.4 106.6a21 21 0 0 0 17.7 3.6c.9-.2 1.9-.7 2-1.5 0-1.2-1.6-2.4-2.8-2.6-3-.4-6.3-2-8.2-4.3-1.7-2-2.5-3.6-2.4-7.3 0-1.5-6.7-.2-8.4.7-2.6 1.3-4 7 2 11.4" style="fill:url(#d)"/><linearGradient id="e" x1="-317.8" x2="-317.8" y1="47.3" y2="32.5" gradientTransform="matrix(.812 -.008 .008 -.812 317.57 146.42)" gradientUnits="userSpaceOnUse"><stop offset="0" style="stop-color:#0053ab"/><stop offset="1" style="stop-color:#008ee3"/></linearGradient><path d="M56.9 113.5c.2 4.4 2.5 5.9 1.1 9.5 2.3-1.5 3.8-3.9 4.4-6.4q.9-4-.3-7.8a4 4 0 0 0-1.1-2c-2.7-2.4-4.2 5-4.1 6.7" style="fill:url(#e)"/><linearGradient id="f" x1="62.8" x2="72.1" y1="20.5" y2="14.2" gradientTransform="matrix(1 0 0 -1 0 128)" gradientUnits="userSpaceOnUse"><stop offset="0" style="stop-color:#0053ab"/><stop offset="1" style="stop-color:#008ee3"/></linearGradient><path d="M66 114c4.3 2 6.7.4 9.5 5 .3-3.2-1-6.5-3-9s-5-4.1-8.1-5.1q-1.3-.5-2.7-.3c-4.4 1 .3 7.7 4.2 9.4" style="fill:url(#f)"/><ellipse cx="59.4" cy="107.4" rx="5.3" ry="3.4" style="fill:#1565c0" transform="rotate(-11.8 59.4 107.4)"/><path d="M56.1 16C39 16 23 28.8 23 56a40 40 0 0 0 25.2 38.8 24 24 0 0 0 8 1.5q3.5 0 7.8-1.5A40 40 0 0 0 89.3 56c0-27.2-16-40-33.2-40" style="fill:#ba8d68"/><path d="M60.2 68h-7.7q-1 .5-.6 1.7c.4 1.2 1.7 2.6 4.5 2.6s4.1-2 4.4-2.6q.4-1.2-.6-1.7" style="fill:#99674f"/><ellipse cx="40.1" cy="58.9" rx="4.9" ry="5" style="fill:#49362e"/><ellipse cx="72.6" cy="58.9" rx="4.9" ry="5" style="fill:#49362e"/><path d="M47.4 49.8c-1-1.2-3.1-3-7.3-3s-6.3 1.8-7.2 3q-.5 1 0 1.6t1.9.4c1.5-.2 2.5-1.2 5.3-1.2s4.5.9 5.4 1.2 1.6 0 1.9-.4q.5-.6 0-1.6m32.5 0c-1-1.2-3.1-3-7.3-3s-6.3 1.8-7.2 3q-.5 1 0 1.6t1.9.4c1.5-.2 2.5-1.2 5.3-1.2s4.5.9 5.4 1.2 1.6 0 1.9-.4q.4-.6 0-1.6" style="fill:#613e31"/><path d="M64.4 76.1a25 25 0 0 1-16.6 0c-1.8-1-3.6.6-2.9 2.3s6.4 5.3 11.3 5.3 10.4-3.7 11.1-5.4c.8-1.6-1-3.2-2.9-2.2" style="fill:#5d4037"/><path d="m109.3 66.8-3.5 12.6 1 .2 3 1.2 1 .4 1 .4 4-12.9z" style="fill:#a7a9ac"/><path d="m111.6 79.4-1-.5q-1.4-.8-3.4-1.2l-1-.2-13 46.3h5.7l13.5-44.1z" style="fill:#603913"/><linearGradient id="g" x1="100.3" x2="99.8" y1="39" y2="-6.5" gradientTransform="matrix(1 0 0 -1 0 128)" gradientUnits="userSpaceOnUse"><stop offset="0" style="stop-color:#ffdbb5"/><stop offset="1" style="stop-color:#a97c50"/></linearGradient><path d="M105.5 89.1q-4.6 0-10 2.1a32 32 0 0 0-16.3 17.6 35 35 0 0 0-3 15.1h43.1c10.3-16.7 2.2-34.8-13.8-34.8" style="fill:url(#g)"/><path d="M99 99c-.4-1.7-1.9-3.3-3.7-3.4-2.1-.2-3.2 1.6-3.7 3.4s-.5 3.8.7 5.2a3.2 3.2 0 0 0 5 0 6 6 0 0 0 1-2q1-1.5.7-3.2" style="fill:#00aeef"/><path d="M110.3 94c-1.7-1.2-4.3-.2-5.8.9-1.7 1.2-3 3.5-2 5.5s3.4 2.7 5.3 1.9c1.7-.7 3.7-2.6 3.6-4.6q1-2.3-1-3.8" style="fill:#00c853"/><path d="M115.5 103.2q-2.7 0-4.8 1.8c-1.4 1-2.4 2.8-1.5 4.6.9 1.6 2.8 2.1 4.5 2q2.5-.4 4-2.5.5-.7.6-1.6l.3-1c.2-1.9-1.3-3.2-3.1-3.3" style="fill:#fff200"/><path d="M111.9 116.5c-.8-1.2-2.4-1.7-3.8-2-1.6-.2-3.5-.1-4.7 1a3 3 0 0 0 .4 4.8l1.2.5c1.5 1.2 3.4.8 5 .2 1.2-.5 2.3-1.6 2.3-2.8q.2-1.1-.4-1.7" style="fill:#ef4136"/><path d="M119.5 68.2a7 7 0 0 1-1.3 2.5 7 7 0 0 1-5.6 2.9q-1 0-2-.3a6.4 6.4 0 0 1-4.6-6q0-1.5.8-3.7.8-1.8 2-3.3l1.4-2.4 1.9-4.8q.3-1 1.2-1 .8-.3 1.4.5c2.6 3.2 6.9 8.4 4.8 15.6" style="fill:#00aeef"/><path d="M118.2 70.7a7 7 0 0 1-5.6 2.9q-1 0-2-.3a6 6 0 0 1-4.4-4.8c4.2 2.8 4.7-5.3 9.2-5.3 3.9 0 0 6.6 2.8 7.5" style="fill:#d1d3d4"/><path d="M57.2 2.8c-41 0-40.7 38-40.7 38.6 0 7.7.2 16.5.7 25.3H24c0-3 2-21 8.1-22.4 22.4-5 35-16.9 35-16.9 3.3 7.2 13.6 14.2 17.3 16.9 3 2.2 4 18.5 3.9 22.4H96v-.2c.6-8.7.8-17.5.8-25.2 0-.6 1.5-38.5-39.6-38.5" style="fill:#543930"/><radialGradient id="h" cx="56.9" cy="65.6" r="49.8" gradientTransform="matrix(1 0 0 -1.214 0 142)" gradientUnits="userSpaceOnUse"><stop offset=".8" style="stop-color:#6d4c41;stop-opacity:0"/><stop offset="1" style="stop-color:#6d4c41"/></radialGradient><path d="M57.2 2.8c-41 0-40.7 38-40.7 38.6 0 7.7.2 16.5.7 25.3H24c0-3 2-21 8.1-22.4 22.4-5 35-16.9 35-16.9 3.3 7.2 13.6 14.2 17.3 16.9 3 2.2 4 18.5 3.9 22.4H96v-.2c.6-8.7.8-17.5.8-25.2 0-.6 1.5-38.5-39.6-38.5" style="fill:url(#h)"/></svg>