<svg xml:space="preserve" width="16" height="16" viewBox="0 0 128 128"><path d="M4.5 58.4s-2.9 21 9.3 39.4c10 15.1 26 25.3 48.1 25.8 21 .4 36.4-6.9 48.2-21.3 16-19.5 13.5-41 13.5-43.7 0-4.6-8.6 21-8.6 21l-24.3 31.7-35.6 6.5s-28.5-12.5-28.6-13.2zm39 31.7v5c.2.4 3.6.5 6.2.5 2.7 0 6.4.1 6.4-.6.2-1.1.1-5 .1-5l-7.6-4.7zm10.2-20.9 1.5 4.2s10.8 1.6 18-1.1 11.7-6.5 14-12.4c3-7.8-.3-16-.3-16L76.6 60.4l-18.4 6.8zm10.4-34c-.8.2-11.8.6-11.8.6l1.4 6.6 2.8-.3c1.5-.1 9.9-1 13.5 1.2 5.3 3.2 5.5 8.1 5.5 8.1s8.2-3.2 7.2-5-6.6-9.7-6.6-9.7zm11.3 54.3s2.8 4.5 3.3 4.7 7.2.1 9.3.2c4.2 0 4.3-1.7 2.9-4.4-1.7-3-3.4-5-3.4-5z" style="fill:#464c4f"/><path d="M64.8 4.4A58 58 0 0 0 4.5 62.9c1.1 28 23 57.6 59.6 57.2 36.8-.5 58.7-31 59.5-58S101.3 4.5 64.8 4.3m.5 105.4c-21.6 1-48.8-16.2-48.1-45.6a46 46 0 0 1 45.6-46.5c17.2-.4 47.6 11.8 47.6 47.2 0 28.5-24.9 44.1-45.1 45m24.8-21-14.3-21s11.4-6 12-16.7c.1-3 0-12.1-8.9-17.8s-27.3-3.7-31.3-3.5-4.1 2-4.3 3.6c-.1 1.7.2 57.8.2 57.8s3 .2 6.4.2h6.3V70.7l6.5.1L76 90.5h13.2q2 0 .8-1.7M64.1 60l-8.2-.1-.1-20.9s4.2-.2 8.8 0c5.6.4 11 3.3 10.8 10.7-.2 7.9-5 10.1-11.4 10.3" style="fill:#606265"/><path d="M47.1 33.6c-1.3 1.1-1.5 8.5.3 8.9s3.5-3.9 4.9-5c1.4-1 5.5-2.4 5.4-3.8-.2-2-8.7-1.8-10.6-.1m32.1 18.7c-1.7-.1-3 4.4-4.4 5.9-1.4 1.4-4.8 2.9-4.4 4.6.5 2.2 6.8 1.6 8.9-.8 2.6-3 3-9.3 0-9.7M10 45.4c-.3 1.7-.5 3.5 1.1 4.1s2.5-1.8 3-3.4 6.9-15 16.4-22.8c10.3-8.5 23.2-11.4 25-11.9s3-1.8 2.7-2.9c-.3-1.3-2.2-1.3-3.7-1-1.3.3-14.1 1.4-27.4 12.2a52 52 0 0 0-17 25.7" style="fill:#9a9a9a"/></svg>