<svg xml:space="preserve" width="16" height="16" viewBox="0 0 128 128"><path d="M116 4H12a8 8 0 0 0-8 8v104a8 8 0 0 0 8 8h104a8 8 0 0 0 8-8V12a8 8 0 0 0-8-8" style="fill:#194fa5"/><path d="M109.7 4H11.5A7.6 7.6 0 0 0 4 11.5v97.9c0 4.1 3.3 7.5 7.5 7.5h98.1c4.1 0 7.5-3.3 7.5-7.5V11.5c0-4-3.1-7.4-7.2-7.5z" style="fill:#2262dd"/><path d="M39.7 12.9c0-2.3-1.6-3-10.8-2.7-7.7.3-11.5 1.2-13.8 4-1.9 2.3-2.3 5.6-2.6 8.4-.2 2.2-2.2 14.9 3.5 11.2q1-.6 1.6-1.8c1.2-2.1 1.9-3.5 3.3-5.6 5.3-8.6 18.8-10.5 18.8-13.5" style="fill:#68abe6"/><circle cx="62" cy="28" r="15" style="fill:#fff"/><path d="M103.3 48.2a5.5 5.5 0 0 0-7.3-.6l-6.6 4.9q-1.3.9-2.7.3l-14.4-6.2-.7-.3A42 42 0 0 0 60.9 45c-2.7.2-6 .6-8.5 1.3l-.7.3-14.4 6.2q-1.4.6-2.7-.3l-6.6-5a5.5 5.5 0 0 0-7.3.6 5.4 5.4 0 0 0 .8 8l10.4 7.7q1.5 1 3.1 1c2.6 0 9.8-2.7 9.8-2.7a1 1 0 0 1 1.1.9v5q.1 1 1 1h30.2q.9 0 1-1v-5q.2-1 1.1-.9S86.4 65 89 65q1.6 0 3-1.1l10.5-7.7c2.5-2 3-5.6.8-8M78.8 78l.5-.8q.6-.7.5-1.5v-1.6q-.1-1.5-1.4-1.8H45.6q-1.3.3-1.4 1.8v1.6q0 .6.2 1.1l9.4 13q1 1.5 2.9 1.5h10.6q1.8 0 2.9-1.5zM36 85a8.5 8.5 0 0 0 0 12l10 10.1a6.4 6.4 0 0 0 9.3-.1 6.6 6.6 0 0 0-.4-9.1L48.2 91l.8-1q.5-.7 0-1.3L42.8 80a1 1 0 0 0-1.5 0zm52 0a8.5 8.5 0 0 1 0 12l-10 10.1a6.4 6.4 0 0 1-9.3-.1 6.6 6.6 0 0 1 .4-9.1l6.7-6.8-.8-1a1 1 0 0 1 0-1.3l6.3-8.8a1 1 0 0 1 1.5 0z" style="fill:#fff"/></svg>