<svg xml:space="preserve" width="16" height="16" viewBox="0 0 128 128"><path d="m12.2 64-4.4 8.2 8.8 6.6-3.2 9 9.3 4-.2 12.8 12.3-.3 3.2 12.5 11.2-3.2 5.1 6.2 8.8-7.3 8.6 7.1 4.6-5.5 12 2.7 4.2-12.6 13.4.4-1-13.3 9.4-3.9-4.6-8.6 10.3-6.6-4.3-9 5.3-7.6-9.7-5.5 4-11.8-12.3-4.8.7-10.2L92 25.8l-2.5-13.2-9.2 3.7-7-7.5-8.7 7.5-11-6.4-5.5 7.4-8.7-3.5-3.5 10.6-12.4-1.8L25 32.9l-13 4.8 5.2 11.7-9.9 7.3z" style="fill:#fff"/><path d="M78 14.5s5.4-2.8 7.6-3.6c2.3-.9 5-1.8 5.7-1.3a28 28 0 0 1 1.7 8.2c.3 3 .7 5.2.7 5.2l5.9-1c3-.5 6.1-1 6.5-.8s.4 4.5.4 6.5l-.2 8.6-4.8-1.3s.5-4 .5-5.5v-2.7s-11.5 2-11.8 1.7-2.3-13.1-2.3-13.1l-6.7 2.9c-.4.2-3.3-3.8-3.3-3.8m39.8 49.4-3.2 3 3.2 5s-10.6 5.6-11 6.3c-.3.9 4.3 8.5 4.3 8.5l-6 2.9 1.2 4.3 6.3-2.5c1-.4 4.4-1.6 4.8-2.5s-4.3-9.3-4.3-9.3 10-5.7 10.2-6.2-1.8-3.9-3-5.7zm-70.4 51.3s2.5 2.9 3.7 4 3.7 3.7 4.3 3.7 8.2-7.3 8.2-7.3 7.3 6.9 8.2 6.8c1-.1 8-8.4 8-8.4l-4-2.2-4.4 5.5s-7.6-7.2-8-7.1c-.5 0-8.3 7.2-8.3 7.2l-4.2-4.6zM10.8 62.9s-6.2 8.7-6.2 9.3 9.6 7.2 9.6 7.2-4.5 9-4.2 10 11.3 4.4 11.3 4.4l1.3-4.2-7-2.4s4-8.5 4-9c-.2-.6-9-6.6-9-6.6s4.2-6 4-6-3.8-2.7-3.8-2.7m11.7-29.2c0-.5-1.7-12.3-.7-13 1.3-1 12.8 1.5 12.8 1.5s2.6-10.4 3.7-11.1 12 5 12 5l-1.5 4-7.9-3.6s-2.6 10.7-3 10.9-11.4-2.2-11.4-2.2l.8 8.5zm27.5 17c-2.4 0-4.8 1.8-4.7 5.2s3 4.4 4.6 4.4c2 0 5-.9 5-4.8 0-4-3.2-4.8-5-4.8m9.4 4.6c0 2.9 1.8 5 5.2 5 3 0 4.6-2.3 4.7-4.7a5 5 0 0 0-5.1-5.3 5 5 0 0 0-4.8 5M73 55c.1 2.8 2.2 4.4 5 4.5s4.5-2.4 4.6-4.6-1.8-4.8-4.8-4.8-5 2.3-4.8 4.9m.5 13.8c-.1 3.2 2.3 4.9 5 4.8 2.6-.1 4.3-2.2 4.2-5s-2-4.6-4.5-4.6a5 5 0 0 0-4.7 4.8m-9.2-4.1c-2.9-.1-4.9 2.3-4.8 5.1s2.3 4.4 4.7 4.5S69 73 69 69.8c0-3.1-2-5-4.7-5M50.1 64c-2.7 0-4.7 2.6-4.6 5.1.1 2.6 1.7 4.8 4.7 4.9 3 0 5-2 5.1-5s-2.2-5-5.2-5m13.7 15.3c-2.4 0-4.7 2-4.6 4.9.1 3.2 2.8 4.3 4.6 4.3 2.2 0 4.6-1.3 4.6-4.2 0-3.4-2-5-4.6-5M113.2 49s5.7-9.5 5.5-10.7c-.2-1-7-4.5-14.4-6.2-7.3-1.8-16.7 0-16.7 0s-1-5.2-4-13.2c-3-8.1-9.4-13.2-10.1-13.2s-3 1.8-4.4 3-4.6 4.4-4.6 4.4l-3.8-3.5c-1-1-4.7-4-6.1-3.8-1.4.1-6.1 6-9.1 12.4s-4 14.5-4 14.5-9.1-1.7-16.5-1c-7.3.7-16 5.2-16.2 5.8s1 3 2 5l3.4 5.8L9.5 51c-1.7 1-5.6 3.6-5.6 4.4s1.5 6 8.4 12.5 16 8.7 16 8.7-6 5.6-7.8 13.5a42 42 0 0 0 0 18c.6.4 3.4.1 6.1-.2S34 106 34 106l.4 6.5c.3 2 1.8 7.2 2.7 7.5s7.6-1 14.2-4.8 11.5-11 11.5-11 4 5.4 10.7 9.5a40 40 0 0 0 17.5 5.4c.7-.3 2-4 2.3-5.8.4-1.8 1-6.4 1-6.4l6.6.6c1.9.1 5.8 0 6.3-.6s1.1-9.9.3-15.8c-.9-5.8-6-14.4-6-14.4s7.2-3.7 13.1-8.4c6-4.6 9.6-10.8 9.6-12.7s-11-6.8-11-6.8m-6.7 18.4C98.9 71.9 93 73.9 93 73.9s5.3 5.7 8 14.1c2.7 8.5 2 14.7 2 14.7l-6.8-.6-6.2-.9s-.8 5.5-1.2 7.3c-.3 1.9-1 5.4-1.5 5.7s-8.9-1.9-15-6.9c-6.2-5-9.3-11.5-9.3-11.5s-5.2 7.7-11.1 12a33 33 0 0 1-11.7 6c-.6-.1-1.1-12.4-1.7-12.8s-12.6 2-13.2 1.5c-.7-.5 0-10 2.8-15.5 3-5.5 9.3-12 9.3-12s-10-2.3-17-7S9.5 57.2 9.5 57.2 21 50.7 21 50.4c0-.4-6.2-10.8-6.2-10.8s6.8-3.5 15.8-3 16.3 3.3 16.3 3.3.7-10.3 3-16.5c2.3-6 5.4-10.7 5.4-10.7s2.4 1.7 4.6 3.8l5 4.7s3-3.5 4.9-5.3c1.9-1.9 4-3.5 4-3.5s3.8 4 6.6 12.5 3.2 12.6 3.2 12.6 8.3-1.8 15.8-.6c7.5 1.1 12.7 3.7 12.7 3.7s-1.6 3.4-2.6 5.1l-3.6 6a100 100 0 0 0 12 5.1s-3.6 6-11.4 10.6" style="fill:#ff99b7"/></svg>