<svg xml:space="preserve" width="16" height="16" viewBox="0 0 128 128"><path d="M32.6 3.7h63c2.2 0 4.2 1.3 5.1 3.2l4.2 10.5H23l4.5-10.6q1.7-3 5-3" style="fill:#c62828"/><path d="M52.9 87.1h22.2V124H52.9z" style="fill:#78a3ac"/><path d="M75 95.4H52.9v19s3.4-2.3 10.7-1.3c7.8 1 11.4 6.4 11.4 6.4z" style="fill:#4b727b"/><path d="M101.8 107.9H26.2c-2 0-3.5-1.6-3.5-3.5V19c0-1.9 1.5-3.4 3.5-3.4h75.6c2 0 3.5 1.5 3.5 3.4v85.4c0 2-1.6 3.5-3.5 3.5" style="fill:#f44336"/><path d="M94.5 99.6h-61a3.4 3.4 0 0 1-3.4-3.4V65.1c0-1.9 1.5-3.4 3.4-3.4h61c1.9 0 3.4 1.5 3.4 3.4v31.1c0 1.9-1.5 3.4-3.4 3.4z" style="fill:none;stroke:#c62828;stroke-width:1.8609;stroke-miterlimit:10"/><path d="M45.2 82.5q.1 1.2 1.4 1.4h49.6q1.5-.2 1.3-1.6l-6.7-37.2s5.6-.2 5.9-2.6c.2-2.3-.1-2.7-.2-5.2 0-2.4-7.3-8-7.3-8l-53 2.5 4.6 10.9 7.2.1.4 12.3z" style="fill:#c62828"/><path d="M85.2 43.6H42.9a2 2 0 0 1-2.1-2v-6h46.4v6c0 1-.9 2-2 2" style="fill:#4e342e"/><path d="m82 31.6 9.7 39.8c.2 1.2-.8 1.4-1.8 1.4H38.6c-1 0-2-.3-1.8-1.4L46 31.6q.1-1.3 1.8-1.4h32.6q1.4-.1 1.8 1.4" style="fill:#fff"/><path d="M84.7 42.3H43.5l2-8.9 36.7-1z" style="fill:#e0e0e0"/><path d="M89.8 70.7 63.8 55l3.4-2.6c2-1.7 2-4.4-.1-6.1l-3.5-3 16.8-11.8q.5-.3.2-.6H80L62 42 48.7 31c-.2-.3-1-.2-.4.4l16.4 15.7q2.3 2-.4 4.6L38.8 70.8q-.6.4-.4.8.5.4.9 0l21.6-14.9 28.5 14.6s.6.4.8.1-.4-.7-.4-.7z" style="fill:#6fbff0;stroke:#6fbff0;stroke-miterlimit:10"/><path d="M88.4 35.6h-50c-1.1 0-2.1-1-2.1-2.2v-1.6L90 27l.8 6.1q-.2 2.3-2.4 2.5" style="fill:#f44336"/><path d="M86.9 33.4H40c-1.9 0-3.3-1.5-2.8-3 0 0 1-3.7 2.2-3.7h48.3c1.3 0 1.3 3.9 1.3 3.9.4 1.5-.4 2.8-2.2 2.8" style="fill:#ff7555"/><path d="M38.7 26.9c.7-.4 4-.7 3.8.5 0 .5-.6 3.7-1 4.4-.1.6 0 1.6-1.4 1.6-.5 0-2.7 0-3-.2-.8-.4-.4-1.3-.2-1.9.7-2.1 1.3-4.2 1.8-4.4" style="fill:#ff9d83"/><g style="opacity:.3"><path d="M94 62.6h-4.3l-.5-1.8h4.4z" style="fill:#4e342e"/></g></svg>