<svg xml:space="preserve" width="16" height="16" viewBox="0 0 128 128"><path d="M116 4H12a8 8 0 0 0-8 8v104a8 8 0 0 0 8 8h104a8 8 0 0 0 8-8V12a8 8 0 0 0-8-8" style="fill:#c33"/><path d="M109.7 4H11.5A7.6 7.6 0 0 0 4 11.5v97.9c0 4.1 3.3 7.5 7.5 7.5h98.1c4.1 0 7.5-3.3 7.5-7.5V11.5c0-4-3.1-7.4-7.2-7.5z" style="fill:#f44336"/><path d="M39.7 12.9c0-2.3-1.6-3-10.8-2.7-7.7.3-11.5 1.2-13.8 4s-2.9 8.5-3 15.3c0 4.8 0 9.3 2.5 9.3 3.4 0 3.4-7.9 6.2-12.3 5.4-8.7 18.9-10.6 18.9-13.6" style="fill:#ff8a80"/><path d="M102.8 66.4q0 13.8-4.8 24.1A36 36 0 0 1 64.1 112a36 36 0 0 1-33.9-21.4q-5-11.3-4.9-23.7v-5.3a57 57 0 0 1 4.8-24.1A36 36 0 0 1 64 16q10.8-.2 20.2 5.5 9.1 5.9 13.6 15.8a58 58 0 0 1 4.9 24zm-16.3-4.8q0-15.6-5.9-23.8c-5.9-8.2-9.5-8.3-16.7-8.3a20 20 0 0 0-16.5 8.2q-6 8.2-6.1 23.3v5.4q0 15.4 6 23.8c6 8.4 9.5 8.4 16.6 8.4s12.7-2.7 16.6-8.2 5.8-13.5 5.8-24z" style="fill:#fafafa"/></svg>