<svg xml:space="preserve" width="16" height="16" viewBox="0 0 128 128"><path d="M106.9 96.8c-1.5-2.6.4-5.3 3.6-8.7 5-5.3 10.5-17.6 5.4-30.1 0-.1-1.4-3.3-3.3-4.5l-97.5-.3C13 55 12 58 12 58a30 30 0 0 0 5.4 30.2c3.2 3.4 5 6 3.6 8.7s-5.6 3-5.6 3 1 2.7 3.3 4c2.2 1.4 5.9 1.7 7.7 1.7 0 0 12.8 10 37.5 10s37.5-10 37.5-10c1.8 0 5.5-.3 7.7-1.6 2.3-1.5 3.3-4.1 3.3-4.1s-4.2-.4-5.6-3" style="fill:#ab872f"/><radialGradient id="a" cx="84.5" cy="95.8" r="8.2" gradientTransform="rotate(-164.8 61.9 19.4)scale(1 -.688)" gradientUnits="userSpaceOnUse"><stop offset=".6" style="stop-color:#bfa055"/><stop offset="1" style="stop-color:#bfa055;stop-opacity:0"/></radialGradient><path d="M19.5 90.3s11.1 2.8 6 10.4c-4.3 4.2-10-.9-10-.9s4.2-.4 5.6-3l.2-.3v-.2l.3-.7v-1.5l-.3-.7v-.2l-.8-1.5-.1-.1z" style="fill:url(#a)"/><radialGradient id="b" cx="72.2" cy="74.2" r="21.7" gradientTransform="rotate(-176.4 54.19 -22)scale(1 -1.611)" gradientUnits="userSpaceOnUse"><stop offset=".6" style="stop-color:#bfa055;stop-opacity:0"/><stop offset=".6" style="stop-color:#bfa055;stop-opacity:.0812"/><stop offset="1" style="stop-color:#bfa055"/></radialGradient><path d="M36 68.8C32.5 78 21.3 93.6 21.3 93.6v-.3a17 17 0 0 0-3.9-5.2A30 30 0 0 1 12.1 58c0-.1 1.4-3.3 3.3-4.5h22.2c.7 1.9-1 13.6-1.7 15.3" style="fill:url(#b)"/><radialGradient id="c" cx="48.5" cy="95.8" r="8.2" gradientTransform="matrix(.965 -.262 .18 .664 46.13 44.9)" gradientUnits="userSpaceOnUse"><stop offset=".6" style="stop-color:#bfa055"/><stop offset="1" style="stop-color:#bfa055;stop-opacity:0"/></radialGradient><path d="M108.5 90.3s-11.1 2.8-6 10.4c4.3 4.2 10-.9 10-.9s-4.2-.4-5.6-3l-.2-.3v-.2l-.3-.7v-1.5l.3-.7v-.2l.8-1.5.1-.1z" style="fill:url(#c)"/><radialGradient id="d" cx="36.2" cy="74.2" r="21.7" gradientTransform="rotate(-3.6 -654.7 -884.82)scale(1 1.611)" gradientUnits="userSpaceOnUse"><stop offset=".6" style="stop-color:#bfa055;stop-opacity:0"/><stop offset=".6" style="stop-color:#bfa055;stop-opacity:.0812"/><stop offset="1" style="stop-color:#bfa055"/></radialGradient><path d="M92 68.8c3.4 9.2 14.6 24.8 14.6 24.8v-.3a17 17 0 0 1 3.9-5.2c5-5.3 10.5-17.6 5.4-30.1 0-.1-1.4-3.3-3.3-4.5H90.4c-.7 1.9 1 13.6 1.7 15.3" style="fill:url(#d)"/><radialGradient id="e" cx="11.1" cy="60.7" r=".7" gradientUnits="userSpaceOnUse"><stop offset=".7" style="stop-color:#bfa055;stop-opacity:0"/><stop offset="1" style="stop-color:#bfa055"/></radialGradient><path d="m11 61.4.1-.7z" style="fill:url(#e)"/><radialGradient id="f" cx="17.3" cy="87.7" r=".2" gradientUnits="userSpaceOnUse"><stop offset=".7" style="stop-color:#bfa055;stop-opacity:0"/><stop offset="1" style="stop-color:#bfa055"/></radialGradient><path d="M17.3 87.8h-.2z" style="fill:url(#f)"/><radialGradient id="g" cx="13.7" cy="82.4" r=".4" gradientUnits="userSpaceOnUse"><stop offset=".7" style="stop-color:#bfa055;stop-opacity:0"/><stop offset="1" style="stop-color:#bfa055"/></radialGradient><path d="m13.8 82.8-.2-.3z" style="fill:url(#g)"/><path d="M98 58.6H30c-8 0-14.5 7-14.5 15.5S22 89.6 30 89.6h68.2c8 0 14.6-7 14.6-15.5S106 58.6 98 58.6" style="fill:#c48e6a"/><path d="M64.2 11.3c-53.3.3-44 63.8-44 63.8s3.1 47.3 42 48.9h4c38.8-1.6 41.4-48.2 41.4-48.2s11.8-64.2-43.4-64.5" style="fill:#ab872f"/><radialGradient id="h" cx="77.1" cy="67.3" r="62.1" gradientTransform="matrix(0 -.903 -1.257 0 148.24 129.62)" gradientUnits="userSpaceOnUse"><stop offset=".8" style="stop-color:#bfa055;stop-opacity:0"/><stop offset="1" style="stop-color:#bfa055"/></radialGradient><path d="M64.2 11.3c-53.3.3-44 63.8-44 63.8s3.3 48.9 44 48.9 43.4-48.1 43.4-48.1 11.8-64.3-43.4-64.6" style="fill:url(#h)"/><path d="M98.7 89.2q-2.4 7-8.8 8.2c-7 1.8-9.2-7.8-26-7.8s-20.1 9.4-27 7.8c-5.6-1.2-7.5-7.2-8.7-11.6-3-10.7 0-36.3 1-39 1.3-3.7 6.3-16 35.3-16s33.8 12.3 35.2 16c1 3 4 28.2-1 42.4" style="fill:#e0bb95"/><path d="M69.4 85.8H59q-1.5.7-1 2.2c.4 1 2.3 3.7 6.2 3.7 3.8 0 5.7-2.7 6.1-3.7q.6-1.5-.9-2.2" style="fill:#c48e6a"/><ellipse cx="43" cy="73.3" rx="6.7" ry="6.9" style="fill:#5d4037"/><ellipse cx="85.4" cy="73.3" rx="6.7" ry="6.9" style="fill:#5d4037"/><path d="M52 62.5c-1.1-1.5-3.9-3.8-9.2-3.8s-8 2.3-9.3 3.8q-.7 1.1 0 2 .6 1 2.4.5c1.1-.4 3.3-1.5 6.9-1.5s5.8 1.1 6.9 1.5q1.6.4 2.4-.5t0-2m42.4 0c-1.2-1.5-4-3.8-9.3-3.8s-8 2.3-9.3 3.8q-.6 1.1 0 2 .7 1 2.5.5c1-.4 3.2-1.5 6.8-1.5s5.8 1.1 6.9 1.5q1.7.4 2.4-.5t0-2m16.2-34.1c-2.8-4.3-9.2-10.1-15-10.5C95 12.4 89 7.8 83.4 6a36 36 0 0 0-30.9 3.6c-1 .6-8.3 4.6-13.4 1.7-3.2-1.8-3-6.7-3-6.7S26 8.3 29.3 19c-3.4.1-8 1.5-10.3 6.3a16 16 0 0 0-1 12.8 13 13 0 0 0-4 14.7c1.8 5.2 9.4 7.6 9.4 7.6-.5 9.3 1.2 15 2.2 17.4.1.4.7.4.8 0 1.2-4.7 5-20.8 4.7-23.6 0 0 13.2-2.6 25.8-12q4-2.7 8.3-4.6C81.1 31.3 84.4 42 84.4 42s11-2 14.3 13.2c1.2 5.7 2 14.8 2.8 21.2 0 .5.6.6.8.2 1.1-2.6 3.3-7.6 3.9-12.7.2-1.9 5-4.2 7.1-12a32 32 0 0 0-2.7-23.4" style="fill:#ab872f"/><radialGradient id="i" cx="88.1" cy="86.4" r="41.5" gradientTransform="rotate(72 8.68 -9.54)scale(1 -.742)" gradientUnits="userSpaceOnUse"><stop offset=".7" style="stop-color:#bfa055;stop-opacity:0"/><stop offset="1" style="stop-color:#bfa055"/></radialGradient><path d="M106.2 63.8c.2-1.8 5.1-4.2 7.2-12l.6-2.5c1.7-9.4-1.4-18-3.3-21-2.6-4-8.2-9.1-13.6-10.2l-1.3-.1s.3 2.5-.7 4.5c-1.3 2.6-4 3.2-4 3.2 14 14 13 25.6 15.1 38" style="fill:url(#i)"/><radialGradient id="j" cx="44.2" cy="124.2" r="10.9" gradientTransform="matrix(.881 .473 .56 -1.045 -64 112.87)" gradientUnits="userSpaceOnUse"><stop offset=".6" style="stop-color:#bfa055"/><stop offset="1" style="stop-color:#bfa055;stop-opacity:0"/></radialGradient><path d="m55.8 7.7-3.4 1.8c-1 .6-8.3 4.6-13.4 1.7-3.1-1.7-3-6.5-3-6.6-1.5 1.8-5.9 14.9 6.8 15.7 5.5.4 8.9-4.4 10.9-8.4z" style="fill:url(#j)"/><radialGradient id="k" cx="160.1" cy="65.9" r="33.5" gradientTransform="matrix(-.938 -.394 -.218 .528 233.43 52.1)" gradientUnits="userSpaceOnUse"><stop offset=".7" style="stop-color:#bfa055;stop-opacity:0"/><stop offset="1" style="stop-color:#bfa055"/></radialGradient><path d="M81.7 5.5c8.5 2.3 12.7 6.6 14 12.4.5 1.7 1 17.6-29.3-.4-11.3-6.7-8.2-11-7-11.4a36 36 0 0 1 22.3-.6" style="fill:url(#k)"/><radialGradient id="l" cx="40.2" cy="116" r="10" gradientTransform="matrix(1 0 0 -1.223 0 155.88)" gradientUnits="userSpaceOnUse"><stop offset=".7" style="stop-color:#bfa055;stop-opacity:0"/><stop offset="1" style="stop-color:#bfa055"/></radialGradient><path d="M35.9 4.6h-.1c-1.1.5-9.6 4.4-6.4 14.3l9 1.4C30.4 12.2 36 4.5 36 4.5" style="fill:url(#l)"/><radialGradient id="m" cx="46.8" cy="104.4" r="18.7" gradientTransform="rotate(15 246.1 388.3)scale(-1 .936)" gradientUnits="userSpaceOnUse"><stop offset=".7" style="stop-color:#bfa055;stop-opacity:0"/><stop offset="1" style="stop-color:#bfa055"/></radialGradient><path d="m35 19.8-5.6-1-1.4.2a11 11 0 0 0-8.9 6.2 17 17 0 0 0-1.5 11L18 38s2.8-2.6 9.4-2.8z" style="fill:url(#m)"/><radialGradient id="n" cx="35.1" cy="81.3" r="19.7" gradientTransform="rotate(187.8 -2.57 79.58)scale(-1 1.405)" gradientUnits="userSpaceOnUse"><stop offset=".6" style="stop-color:#bfa055;stop-opacity:0"/><stop offset="1" style="stop-color:#bfa055"/></radialGradient><path d="M17.8 38.2A13 13 0 0 0 14.1 53c2 5.1 9.4 7.4 9.4 7.4s1.5.4 2.3.4l1.7-25.5c-3.5 0-7 1-9.1 2.6z" style="fill:url(#n)"/><path d="M64.2 107.4c5.2 0 10.9-3 13.7-5.5a1 1 0 0 0-.7-1.8h-26a1 1 0 0 0-.7 1.8c2.9 2.4 8.6 5.5 13.7 5.5" style="fill:#e0bb95"/></svg>