<svg xml:space="preserve" width="16" height="16" viewBox="0 0 128 128"><path d="M10 67.2s3.5-5.7 9-11.7c2-2.2 5-5.5 5.1-6.8.2-1.3-2-8-3.2-13.7-1-4.7-1.4-10.7.3-12.5s11.2 0 16.9 2.8c5.8 2.8 8.7 5.3 9.5 5.3 1 0 7-4.6 16.1-4.5s15.6 4.4 16.9 4.4 5.3-3 11-6c6.6-3.4 14.3-3.7 15.9-2.6s.5 9.3-.6 13.5c-1.4 5.4-3.9 11.5-3.7 12.6s2.6 2.3 7.5 7.8a93 93 0 0 1 8.7 12.8L66.7 79.5z" style="fill:#b0b0b0"/><path d="M5.7 75.1c0 .9 8.7 5.7 8.7 5.7S4 84.6 4 85.3a83 83 0 0 0 31.6 22c13 4.5 40.2 10 61.9-1.2 18.9-9.7 25-17.2 25-18.3s-8.4-5.7-8.4-5.7 8.9-6 8.9-6.9c0-.8-3.5-7-4.7-8.8s-4.5-7.2-5.9-7.8S84.7 47.1 76 53.1a11 11 0 0 0-5.3 10.3c0 6.2.6 11.6.6 11.6s-2.1-2.4-5.8-2.4c-3.4 0-5.4 1.9-5.4 1.9s1-8.7 1-12c-.2-3.2-1-7.2-6.5-10.3-8.1-4.5-28.2 3.6-34.4 7-4.2 2.5-8.9 5.6-10.4 8s-4 7-4 8" style="fill:#dedede"/><path d="M30.6 44.3c.3 0 2.8-2.5 5.5-4.7s5.9-4.5 5.9-4.8c0-.4-11.7-9-15-6.4s2.9 16 3.6 16m56.1-9.7c0 .3 3.2 2.2 5.7 4.5s5 4.6 5.3 4.6c.7-.1 6.3-12.9 3.7-15.1s-14.7 5-14.7 6" style="fill:#5d6268"/><path d="M43 102.5c1.8-.7 1.5-7.6 4.6-14.3 3.1-6.6 6.7-9.9 8.8-11.3 2-1.4 3.6-1.9 4.7-3.4s1-8.5 0-11c-1.5-3.2-5.7-7.8-13.8-7.3s-15 9.1-18.7 12.7c-3.8 3.6-9.5 7.4-9.4 14.7s6.2 12.4 10 15.1c3.7 2.8 11.2 5.8 13.8 4.8M71.2 75c-1.7-1.1-1-6.2-1-8.5.1-2.4 1-8.4 7.4-10s9.8.8 13.7 3.4 7.7 6.2 10.5 8c6 4.4 11.2 9.8 10 15.7-1.4 5.8-5.2 9.4-11 13.6-6.2 4.3-11.8 7.8-13.8 6.6s-1.3-11.2-5.7-18.2-8.1-9.3-10.1-10.6" style="fill:#464c4f"/><path d="M64.8 82.2c-5.6.1-8.2 3.8-8.3 7-.1 4.5 2 5.4 2.9 6 1.2.7 2.9 1.2 2 2.8s-1.6 2.2-5 2c-2.2-.2-3-2.3-5.2-1.7-2.9.8-.3 5.6 6 5.8 6 .3 8-2.8 8-2.8s2.2 3 7.6 2.7c5.5-.3 8.4-5.2 5.2-6.1-2.3-.7-2 2.1-5.1 2.3q-3.2 0-4.4-1.7c-.5-.6-.4-2 .2-2.5s3.9-1.7 4-6.1c0-3.8-2.7-7.9-7.9-7.7" style="fill:#2f2f2f"/><path d="M54.5 67.5c0 3.4-1.5 6.3-4.6 6.2-2.5-.2-4.7-2.5-4.6-6.2.1-3.4 2-5.7 4.6-5.7s4.6 2.3 4.6 5.7m31.3.5c-.2 3.5-.8 6.8-4.4 6.5-2.5-.2-4.3-2.5-4-6.2.2-3.4 2-5.8 4.5-5.7q3.9.1 3.9 5.5" style="fill:#000101"/><path d="M47.2 64.5c-.5 1-.5 2.2.2 2.5.9.5 2.2-.2 2.6-1.2s.1-2-.6-2.3c-.7-.4-1.8 0-2.2 1m31.8 1q-.7 1.6.2 2.4c.9.5 2 0 2.4-1q.7-1.7-.4-2.3-1.5-.7-2.2 1" style="fill:#b0b0b0"/></svg>