<svg xml:space="preserve" width="16" height="16" viewBox="0 0 128 128"><path d="M31.4 26.5 31.5 8 40 5.4l9.8 16.8z" style="fill:#c62828"/><path d="M36.8 20.5s-2.6-12 .3-13C42.3 5.2 46.4 19 46.4 19z" style="opacity:.59;fill:#37474f"/><path d="M20.6 32.8c-.1-1.6-2.3-14.6 1-21.9 1.6-3.3 7.8-5.5 13.5-6.7 1.4-.3 5-.5 7.2 2 2 2.3 5 7.4 7.9 15L48 25.8s-3-7.7-5.8-14.1c-2.4-5.3-5.5-3.5-5.8-2.3a75 75 0 0 0 2.3 14.5c-4.2 1.8-18.2 9-18.2 9" style="fill:#f44336"/><path d="M42.4 17.4 44 8.9l6.9-4h8.3l6.9 5.6L68 21.4l-8.3-2.8-1.2-7.8-7.6-.2-1 6.2z" style="fill:#455a64"/><path d="M35 4.2c-5.6 1.2-11.2 3-13.4 6.7-1.2 2.2-2 7.8-1.8 13a26 26 0 0 1 8.9-6.1c3.3-1.5 3.7-2.9 3.7-3.5.3-2.9 0-5.3.9-7.3 1-2.5 2.5-2.9 3.4-3q-1 0-1.6.2m4.5.3q-.7-.3-1.6-.4z" style="fill:#ff7555"/><path d="M90 109.2c14.9-4 19.3-20.7 23.5-22.1" style="fill:none;stroke:#784d30;stroke-width:9.8158;stroke-miterlimit:10"/><path d="M104.5 74.9c1 7 3.2 7.6 7 7.4 5.6-.2 6.2-1.5 7.5-11.2 1.5-12-3-28.8-6.9-40.3-2-6-1.8-10.2-6.4-14.9-2.5-2.5-12.3-6.3-15.2-1.4-2 3.4-1 6.8.9 9.5 5.4 7.8 10.4 33.8 13 50.9" style="fill:#c62828"/><path d="M93 27q1.7 3.1 3 8c8.9-.4 18.5 3.9 18.5 3.6s-.7-6-3.2-11.7c-1-2.5-4.3-9.3-8.3-8.6-5 .8-10 8.6-10 8.6" style="opacity:.59;fill:#37474f"/><path d="M86 39.2c2.6-5.6 12.2-19.8 17.8-20.3 2.7-.2 5.8 5.5 7 8.6 3.1 8.8 6.6 22.5 7.6 36.8.6 8.9-1 16-4.4 19 12.9-2.5 7.9-30.6 6.8-36.4C117 27.4 112.3 20 108.6 16c-2.8-3-15.1-9.3-21.6-9-5 .2-15.9 9.5-18.9 14.7C67.2 23.3 86 39.2 86 39.2" style="fill:#f44336"/><path d="M68.7 123.7c16.9-1.3 27.5-10.8 28.7-19.8 3.8-31.2-3.8-76.2-34.2-85-3.4-.9-9.3-2.2-14.5-2.2-6 0-15.3 1.3-22 5.9a38 38 0 0 0-16.3 26.1c-3 21.7 37 76.7 58.3 75" style="fill:#ff7555"/><path d="M97.4 103.9c2-16.2.9-36.2-5-52.8-3-4-6.3-5.8-9-4.9-3.4 1.1-6.3 5.6-5.3 10 0 0 8.1 32.5 2.6 53-3.6 13.6-13.2 14.6-13.2 14.6h1.2c16.9-1.4 27.6-11 28.7-20" style="fill:#c62828"/><path d="M18.6 120.4C23.7 122 37.1 124 61 124c21.3 0 21.2-7.6 23-16.5 3.5-18.4-1.4-78.3-38.6-79.5C12.8 26.8 9.6 45.9 7.1 66.6c-2.5 21.7-2 29.8-.7 38.6 1.6 11.6 8.7 14 12.2 15.2" style="fill:#f44336"/><path d="M90 59.8q-1.1-7-4-14.3h-2.5q2.7 6.2 4.4 14.7c3.5 18.2 3.9 30.5 3.7 37-.1 4 2 4 2.2-.2.2-6.8-.3-19-3.7-37.2" style="fill:#37474f"/><path d="M92.5 95.2c-1.2.4-2 1.7-1.7 3l1.3 7.5a2.2 2.2 0 0 0 3.2 1.6l3.6-1.8c1.2-.6 1.5-2.1.8-3.2l-4.2-6.1c-.6-1-1.9-1.4-3-1" style="fill:#e2a610"/><path d="M94.2 105.8c-.1-.3-1.1-5.4-1.4-7.8-.3-2.6.8-2.8 1-2.9l-1.3.1c-1.2.4-2 1.7-1.7 3l1.3 7.5a2.2 2.2 0 0 0 3.2 1.6l.8-.4s-1.3 0-1.9-1" style="fill:#ffca28"/><path d="m120 92.1-9.4.9q-1.4 0-1.7-1.5l-.7-7.9q.1-1.4 1.4-1.7l9.4-.8q1.4 0 1.7 1.4l.7 8q0 1.3-1.5 1.6" style="fill:#546e7a"/><path d="m117.4 92.4-8.8.8q-1.5 0-1.7-1.4l-.8-8.1q0-1.5 1.5-1.7l8.8-.8q1.5.1 1.7 1.4l.7 8.1q0 1.5-1.4 1.7" style="fill:#37474f"/><path d="m111.3 101.6-2.7-14.3q0-.5.3-.5l7.2-.7q.4 0 .4.3l3.5 13.2q.3 1.4-1.1 2l-5.7 1.2q-1.5.2-2-1.2" style="fill:#a06841"/><path d="M49.5 58.8 34 58.4a2.5 2.5 0 0 1-2.4-2.5l.2-8c0-1.3 1-2.4 2.4-2.4l15.2.4q2.3.2 2.6 2.4v8c0 1.4-1.1 2.5-2.5 2.5" style="opacity:.65;fill:#fff59d"/><path d="M87 7c-3.8.2-11 5.7-15.6 10.5 2.4-.2 7.8 2.4 12.4 6 1 .6 3.2.5 4.6-1l4-4c7.8-8.3 14-4.2 14-4.2A40 40 0 0 0 87 7" style="fill:#ff7555"/><path d="M86.3 46.2c-5-12.3-15-24.1-36.6-26.1-15.2-1.4-25.3 5.6-29.5 8.2a9 9 0 0 0-2.6 2.2q-1.2 2-1 2.2c.2.2 13-12.2 32.9-10.5 11.3 1 26 4.8 34.3 24q1.1-.3 2.5 0" style="fill:#546e7a"/><path d="M69.4 114.3s-16 1-34 0c-9.5-.4-16.4-1.8-17.8-3.6-1.8-2.3-3.8-4.5-3.8-16.1 0-7.8 2.9-14.1 8.5-14.3l45.8-.6c-3.4 0-6.5 7.4-6.2 15.5.8 19.6 7.4 19 7.4 19M53.7 94.6c.3-.1 3.5.2 6-1.6q1.5-1 2.4-1.9c.6-6 3-10.9 5.6-11.3h.2c-3.9 0-36-1.2-46-1-4.6 0-8.2 5.5-7.9 12 .7 1.1 1.8 2.4 3.4 2.6 3.3.5 36 1.3 36.3 1.2" style="fill:#ff7555"/><path d="M53.7 94.6c.3-.1 3.5.2 6-1.6q1.5-1 2.4-1.9c.6-6 3-10.9 5.6-11.3h.2c-3.9 0-36-1.2-46-1-4.6 0-8.2 5.5-7.9 12 .7 1.1 1.8 2.4 3.4 2.6 3.3.5 36 1.3 36.3 1.2" style="opacity:.45;fill:#fff59d"/><path d="M74.4 89.7c-.3-5.2-1.6-7.7-2.7-8.9q-1.5-1.4-4.9-1c-1.4 0-4 1.4-5.1 9.4-.9 2-3.1 3.9-6.8 3.9L19 91.9c-3.6-.2-4.9-3.6-5-4 0 0-.6 2.5 0 4 .5 2 2.8 3 5 3l36 1.3c2.8 0 5-1.1 6.4-2.2l-.1 4c0 15.5 4.4 16.6 7.3 16.5s5.6-1.2 6-3.7c.6-3.6.6-11 0-21" style="fill:#c62828"/></svg>