<svg xml:space="preserve" width="16" height="16" viewBox="0 0 128 128"><ellipse cx="101.2" cy="63.9" rx="6.1" ry="6.4" style="fill:#874d36" transform="rotate(-1.5 101.15 63.83)"/><ellipse cx="100.6" cy="63.2" rx="5.2" ry="5.5" style="fill:#d1593f" transform="rotate(-1.5 100.57 63.14)"/><path d="M101 60.5c.5 1.6-1 2.9-2.4 2.7a2 2 0 0 1-1.4-3 2 2 0 0 1 3.9.3" style="fill:#ff7759"/><ellipse cx="110.8" cy="56.6" rx="6.1" ry="6.3" style="fill:#874d36" transform="rotate(-3 110.78 56.6)"/><ellipse cx="110.1" cy="56" rx="5.2" ry="5.4" style="fill:#d1593f" transform="rotate(-3 110.08 56)"/><path d="M110.1 53.1c.8 1.3-.5 3-1.8 3.2-1.2.2-2.6-.7-2.1-2.3.6-2.2 3.2-2.1 4-.9" style="fill:#ff7759"/><ellipse cx="118" cy="34.9" rx="6" ry="6.2" style="fill:#874d36"/><ellipse cx="117.2" cy="34.5" rx="5.1" ry="5.3" style="fill:#d1593f"/><path d="M117.3 32.4c.5 1.6-1 3-2.4 2.8a2 2 0 0 1-1.5-3 2 2 0 0 1 3.9.2" style="fill:#ff7759"/><ellipse cx="112.9" cy="24" rx="6" ry="6.2" style="fill:#874d36"/><ellipse cx="112.3" cy="23.5" rx="5.1" ry="5.3" style="fill:#d1593f"/><path d="M112.3 21.8c.6 1.6-.8 3-2.1 3-1.2 0-2.4-1.3-1.7-3 .9-2.2 3.3-1.5 3.8 0" style="fill:#ff7759"/><ellipse cx="103.5" cy="16.5" rx="5.9" ry="6.2" style="fill:#874d36"/><ellipse cx="103" cy="16" rx="5" ry="5.3" style="fill:#d1593f"/><path d="M102.7 14c.7 1.4-.6 3-1.9 3.1a2 2 0 0 1-2-2.7c.7-2.2 3.2-1.9 4-.5" style="fill:#ff7759"/><ellipse cx="92.6" cy="12.3" rx="5.9" ry="6.1" style="fill:#874d36"/><ellipse cx="92.1" cy="11.8" rx="5" ry="5.2" style="fill:#d1593f"/><path d="M92 10c.4 1.6-.7 2.7-2.3 2.7-1.3 0-2.3-1.7-1.3-3.2 1.1-1.8 3.4-1.2 3.7.5" style="fill:#ff7759"/><ellipse cx="81" cy="10.8" rx="5.9" ry="6.1" style="fill:#874d36"/><ellipse cx="80.2" cy="10.2" rx="5" ry="5.2" style="fill:#d1593f"/><path d="M80.3 8.4c.5 1.6-1 3-2.3 2.9a2 2 0 0 1-1.6-3 2 2 0 0 1 3.9.1" style="fill:#ff7759"/><ellipse cx="69.3" cy="10.8" rx="5.9" ry="6.1" style="fill:#874d36"/><ellipse cx="68.8" cy="10.1" rx="5" ry="5.2" style="fill:#d1593f"/><path d="M68.7 8c.6 1.5-.7 3-2 3.2-1.2 0-2.5-1-2-2.7a2 2 0 0 1 4-.4" style="fill:#ff7759"/><ellipse cx="58" cy="12.2" rx="5.8" ry="6.1" style="fill:#874d36"/><ellipse cx="57.3" cy="11.7" rx="5" ry="5.2" style="fill:#d1593f"/><path d="M57.5 9.7c.4 1.5-1.1 2.9-2.4 2.8a2 2 0 0 1-1.5-3 2 2 0 0 1 3.9.2" style="fill:#ff7759"/><ellipse cx="46.9" cy="14.5" rx="5.8" ry="6.1" style="fill:#874d36"/><ellipse cx="46.5" cy="13.7" rx="5" ry="5.2" style="fill:#d1593f"/><path d="M42.5 13.3c-.3-1.7 1.4-2.8 2.6-2.7s2.2 1.5 1.2 3c-1.3 2.2-3.4 1.2-3.8-.3" style="fill:#ff7759"/><ellipse cx="36.4" cy="19.3" rx="5.8" ry="6.1" style="fill:#874d36"/><ellipse cx="35.8" cy="18.5" rx="5" ry="5.2" style="fill:#d1593f"/><path d="M36.4 16.8c0 1.7-1.6 2.8-2.9 2.4-1.1-.3-2.1-1.8-1-3.2 1.3-1.8 3.8-.7 3.9.8" style="fill:#ff7759"/><ellipse cx="27" cy="26.4" rx="5.9" ry="6.1" style="fill:#874d36"/><ellipse cx="26.5" cy="25.8" rx="5" ry="5.2" style="fill:#d1593f"/><path d="M28 23.1c.3 1.7-1.7 2.6-3 2.4s-2.3-1.6-1-3c1.6-1.8 3.8-.8 4 .6" style="fill:#ff7759"/><ellipse cx="19.4" cy="35.6" rx="5.9" ry="6.1" style="fill:#874d36" transform="rotate(-16.5 19.35 35.56)"/><ellipse cx="18.9" cy="34.8" rx="5" ry="5.2" style="fill:#d1593f" transform="rotate(-16.5 18.87 34.76)"/><path d="M20.2 32.4q0 1.4-1.2 2.2-1.1.7-2.4.4a2 2 0 0 1-.8-3.1c1-1.7 4.1-2 4.4.5" style="fill:#ff7759"/><ellipse cx="13.8" cy="46.1" rx="5.9" ry="6.1" style="fill:#874d36" transform="rotate(-16.1 13.82 46.15)"/><ellipse cx="13.4" cy="45.3" rx="5" ry="5.2" style="fill:#d1593f" transform="rotate(-16.1 13.37 45.34)"/><path d="M15.2 43.6q-.4 1.3-1.8 1.7t-2.5-.4a2 2 0 0 1 .3-3.2c1.5-1.2 4.5-.5 4 1.9" style="fill:#ff7759"/><ellipse cx="10.6" cy="57.7" rx="5.9" ry="6.2" style="fill:#874d36" transform="rotate(-10 10.56 57.7)"/><ellipse cx="10.2" cy="56.9" rx="5" ry="5.3" style="fill:#d1593f" transform="rotate(-10 10.18 56.92)"/><path d="M12.5 55.1q-.7 1.2-2.2 1.4-1.3 0-2.2-1c-.4-.4-1-2.1.8-3s4.6.4 3.6 2.6" style="fill:#ff7759"/><ellipse cx="9.9" cy="70.1" rx="6" ry="6.2" style="fill:#874d36"/><ellipse cx="9.9" cy="69.1" rx="5.1" ry="5.3" style="fill:#d1593f"/><path d="M12.2 67.4q-.5 1.4-2 1.6a3 3 0 0 1-2.3-.6c-.5-.4-1.2-2.2.5-3.3s4.5-.1 3.8 2.3" style="fill:#ff7759"/><ellipse cx="12.4" cy="82" rx="6" ry="6.2" style="fill:#874d36"/><ellipse cx="12.5" cy="81" rx="5.1" ry="5.3" style="fill:#d1593f"/><path d="M14.4 78.6c-.3 1.4-1.4 1.7-2.2 2-2.1.4-4-1.4-2.1-3.2 1.1-1.1 4.9-1.4 4.3 1.2" style="fill:#ff7759"/><ellipse cx="18.3" cy="91.7" rx="6" ry="6.3" style="fill:#874d36"/><ellipse cx="18.4" cy="90.8" rx="5.2" ry="5.4" style="fill:#d1593f"/><path d="M20.8 88.6q-.2 1.5-1.7 1.9c-1.5.3-4.2-.3-2.5-3.1 1-1.7 4.5-1.7 4.2 1.2" style="fill:#ff7759"/><ellipse cx="28.3" cy="98.8" rx="6.1" ry="6.3" style="fill:#874d36"/><ellipse cx="28.1" cy="97.9" rx="5.2" ry="5.4" style="fill:#d1593f"/><path d="M30 95.6q-.5 1.4-1.8 2c-1.2.4-4.2 0-2.7-3.2.8-1.6 4.8-1.5 4.4 1.2" style="fill:#ff7759"/><ellipse cx="39.6" cy="101.1" rx="6.1" ry="6.4" style="fill:#874d36"/><ellipse cx="39.5" cy="100.1" rx="5.2" ry="5.5" style="fill:#d1593f"/><path d="M41.5 97.6q-.2 1.1-1.7 1.9c-1.6.9-4.3-.7-3-3.1 1-1.7 5-1.7 4.7 1.1" style="fill:#ff7759"/><ellipse cx="51.1" cy="98.9" rx="6.2" ry="6.5" style="fill:#874d36"/><ellipse cx="50.8" cy="97.9" rx="5.3" ry="5.5" style="fill:#d1593f"/><path d="M53.1 95.9c0 .8-.8 1.6-1.6 1.9a3 3 0 0 1-2.5-.3q-1.1-.6-1.2-1.8c0-.4.3-1 .5-1 1-1.9 5.2-1.8 4.8 1.1" style="fill:#ff7759"/><ellipse cx="63" cy="95.7" rx="6.3" ry="6.5" style="fill:#874d36"/><ellipse cx="62.6" cy="95" rx="5.3" ry="5.6" style="fill:#d1593f"/><path d="M64.3 92.6q-.2 1.4-1.4 2.1-1.3.5-2.6 0c-.7-.3-1.4-1.5-1.2-2.4.7-2.5 5.2-2.8 5.2.3" style="fill:#ff7759"/><ellipse cx="74.8" cy="95.5" rx="6.3" ry="6.6" style="fill:#874d36"/><ellipse cx="74.5" cy="94.6" rx="5.4" ry="5.6" style="fill:#d1593f"/><path d="M76.5 92.4q-.3 1.5-1.6 2c-1.3.4-1.9.4-2.8-.3-.7-.5-1.3-1.6-.8-2.6 1.1-2.2 5.7-2 5.2.9" style="fill:#ff7759"/><ellipse cx="87.1" cy="82.4" rx="6.3" ry="6.5" style="fill:#874d36"/><ellipse cx="86.4" cy="81.8" rx="5.6" ry="5.3" style="fill:#d1593f" transform="rotate(-71.1 86.4 81.78)"/><path d="M86.7 80.4c-.4 1.7-2.3 2.3-3.4 1.6-.9-.6-1.2-2.4.2-3.6 1.9-1.6 3.5.3 3.2 2" style="fill:#ff7759"/><ellipse cx="117.8" cy="46.8" rx="6" ry="6.3" style="fill:#874d36"/><ellipse cx="117.2" cy="46.5" rx="5.2" ry="5.4" style="fill:#d1593f"/><path d="M117 44.2c.4 1.6-1 3.3-2.3 3.2a2 2 0 0 1-1.5-3c1-2 3.3-1.7 3.7-.2" style="fill:#ff7759"/><ellipse cx="86.6" cy="94.7" rx="6.3" ry="6.6" style="fill:#874d36"/><ellipse cx="86.1" cy="93.7" rx="5.4" ry="5.6" style="fill:#d1593f"/><path d="M87 90.7q.4 1.5-.6 2.5-1.1 1-2.4 1c-.8 0-1.9-.6-1.8-2.1 0-2.5 3.7-4.3 4.8-1.4" style="fill:#ff7759"/><path d="M82.5 98c.5.4 1.7.8 2.4.6C86 98 86 96.9 88 95.7c1.3-.7 1.8-.6 2.9-1 .7-.4.5-1.3.5-2 0 0 2.3 3.7-2.2 6.5s-6.7-1.3-6.7-1.3" style="fill:#874d36"/><ellipse cx="92.6" cy="71.8" rx="6.2" ry="6.5" style="fill:#874d36"/><ellipse cx="91.8" cy="71.3" rx="5.3" ry="5.5" style="fill:#d1593f"/><path d="M92.2 68.5c.2 1.6-1.1 2.8-2.4 2.8s-2.5-1.5-1.5-3c1.4-2 3.6-1.3 3.9.2" style="fill:#ff7759"/><path d="M91.2 96c-2.4-.4-4.6 1.9-4.8 4.2-.5 4.7 4.8 6.4 4.8 6.4.4.2 1.6.8 2.9 2.8 4.5 7.3 11.8 13 20.3 14 2.8.2 9.4-14.5 4.2-16.4-1.6-.6-3.3-.3-5-.1q-4.5.7-9 .1c-2.3-.3-7.1-2.6-8.2-4.9 0 0-.3-5.7-5.2-6.2" style="fill:#ffca28"/><path d="M94.4 103.3a16 16 0 0 0 12.7 2.2c4-1 8-3.7 12-2.8M93 107c.2 4.5.8 9.2 4.5 12 3.3 2.6 7.8 3.3 12 1.3" style="fill:none;stroke:#ffca28;stroke-width:2.5229;stroke-linecap:round;stroke-miterlimit:10"/><path d="M116.6 107.4c-1.5.8-1 5.3-1.1 6.2-.3 3.4-2.7 2.5-3.7 5.5-.5 1.5-.3 4 1.6 4.2 6.4.7 7.6-6.3 7.7-8 .7-6.4-2-9.3-4.5-8m-1 7.1c-7 0-13.9-2.3-18.6-7-2-2-.8-2.7-.3-2.2 5.5 5 13.7 7.7 21.3 7l.2 2zm.1 5.9c-5-.8-11-3.4-13.8-5.8-1.9-1.5-2.2-2.4-2.2-2.4a37 37 0 0 0 16.2 6.5zM91.8 107s.5-1.3 2.1-2.6c2-1.6 3-1.6 3-1.6-.4-.5-.5-2.1-1.2-3.5 0 0 .2 2.1-2.6 4-1.8 1.4-5 1.4-5 1.4 1.3 1.4 3.7 2.3 3.7 2.3" style="fill:#e2a610"/></svg>