<svg xml:space="preserve" width="16" height="16" viewBox="0 0 128 128"><path d="m121.4 116-6.7 5.8a6 6 0 0 1-8.7-.6L27 25.6l10-7.5 84.8 89.3a6 6 0 0 1-.5 8.6" style="fill:#a06841"/><path d="M34.2 34.4 53 57.2c3-4.5 4.4-9.8 5.6-16.5L40.5 21.6a17 17 0 0 0-3.7 4.3 19 19 0 0 0-2.6 8.5" style="fill:#7d5133"/><path d="M71.5 4.7c-17.3-.2-23.7 1.4-33.3 9.7l-8.6 7.4c-3.2 2.7-7.4 5.1-6.7 9.8.2 1.7.8 3.4.5 5.1a2.3 2.3 0 0 1-3.5 1.5c-1.3-.8-2.7-1.9-4.2-2q-2.3-.3-4 1.2l-6.7 6s-1 3.8 6.5 12.3 12.3 7.9 12.3 7.9l6.3-5.6q1.5-1.4 1.6-3.7c0-1.6-1-2.9-1.6-4.3 0-.3-.7-1.3.4-2.2 1-.9 3-.6 4.1-.3l3.4 1.1c2.3.6 3.3-.4 4.9-1.8L55.4 36c5.5-4.8-3-13.2-3-13.2C48.5 18.3 72.8 7 72.8 7c1.7-.7 1.2-2.2-1.2-2.3" style="fill:#82aec0"/><path d="M38 48.6q.7.3 1.3.2v-.2q-.3-1.5-1.3-3a65 65 0 0 0-15-16q-.3 1 0 2c.2 1.7.7 3.4.4 5.1-.4 1.8-2.2 2.3-3.6 1.6q5.6 3.6 9 9.2l1 1.5q0-.8.7-1.2c1-.9 3-.6 4.1-.3zm-20.6 2.1c5.3 5.5 8.2 11.2 6.6 12.8-1.6 1.5-7.1-1.7-12.4-7.2S3.4 45 5 43.3s7.2 2 12.4 7.4" style="fill:#2f7889"/><path d="M37.9 22.4c4.1-1.8 7.8-5.6 12.7-9.8q2.1-1.8 5-3.2c.6-.3.4-1.3-.4-1.3q-3.7.2-6.9 1.8-4.5 2.1-8.4 5.4l-8.6 7.2q-.6 1 .5 1.1c1.9 0 3 .1 6-1.2M11.6 39.8c-1.8 2 .5 2.5 4.4 5.8 2.8 2.3 5.8.2 5.8-2 0-2-.5-3-3.3-4.8s-5.3-.8-7 1" style="fill:#b9e4ea"/></svg>