<svg xml:space="preserve" width="16" height="16" viewBox="0 0 128 128"><path d="M116 4H12a8 8 0 0 0-8 8v104a8 8 0 0 0 8 8h104a8 8 0 0 0 8-8V12a8 8 0 0 0-8-8" style="fill:#c33"/><path d="M109.7 4H11.5A7.6 7.6 0 0 0 4 11.5v97.9c0 4.1 3.3 7.5 7.5 7.5h98.1c4.1 0 7.5-3.3 7.5-7.5V11.5c0-4-3.1-7.4-7.2-7.5z" style="fill:#f44336"/><path d="M39.7 12.9c0-2.3-1.6-3-10.8-2.7-7.7.3-11.5 1.2-13.8 4s-2.9 8.5-3 15.3c0 4.8 0 9.3 2.5 9.3 3.4 0 3.4-7.9 6.2-12.3 5.4-8.7 18.9-10.6 18.9-13.6" style="fill:#ff8a80"/><path d="M84 78.8v-45a2 2 0 0 0-2-2h-2.9a2 2 0 0 0-2 2v45q.2 1.8 2 2H82a2 2 0 0 0 2-2m14.4-58.7h-3.3a2 2 0 0 0-2 2v70c0 1.6-.6 2-2 2h-8.2a2 2 0 0 0-1.3 2.6q.3 1.8 1 3.6a2 2 0 0 0 2 1.6q8.7.1 12.1-1.6c2.6-1.3 3.7-3.5 3.7-8.2v-70a2 2 0 0 0-2-2M64.6 75.3H30.8q-1.8.2-2.1 2v23.5q.2 1.8 2 2h2.9a2 2 0 0 0 2-2v-2.1q0-.9 1-1h21.9q.9.1 1 1v1.3q.2 1.8 2 2h3.1a2 2 0 0 0 2-2V77.3a2 2 0 0 0-2-2m-5.2 15.6q0 1-1 1H36.6a1 1 0 0 1-1-1v-7.4q.1-.9 1-1h21.8q1 .1 1 1zM69 62.8H52.4a1 1 0 0 1-1-1v-2.9q.1-.9 1-1h10.5a2 2 0 0 0 2-2v-2a2 2 0 0 0-2-2H52.6a1 1 0 0 1-1-1v-3.2q0-.9.9-1c3.6-.4 6.5-.4 9.6-.7.4 0 1.4 0 1.7-.4q1-1.4-.1-2.8l-2-1.8q-.8-.7-1.8-.6c-2.5 0-3.6.2-7.3.2a1 1 0 0 1-1-1v-1.9q-.2-.9-1-1h-6a1 1 0 0 0-1 1v2.9q0 .9-.9 1l-10.4.6c-.3 0-1 0-1.3.5s-.9 2.6-.7 3.8a2 2 0 0 0 2 1.4l10.2-.4h.1q1 0 1 1V51q0 .9-1 1h-9.9a2 2 0 0 0-2 2v2c0 1.1 1 2 2 2h10q.8.1 1 1v2.8q-.2.9-1 1h-17a2 2 0 0 0-2 2v2.1q.2 1.8 2 2H69a2 2 0 0 0 2-2v-2.1a2 2 0 0 0-2-2m.6-34.7H53.1a1 1 0 0 1-.9-.6q-1.5-3.8-3.8-7.3a2 2 0 0 0-2.5-.8l-2.7 1H43a2 2 0 0 0-.8 2.8l1.8 3.5v.4q0 .9-.9 1H25.6a2 2 0 0 0-2 2v10.6c0 1.2 1 2 2.2 2h3.5q.8 0 .9-.9v-6.6q.1-.9 1-1h32.6q1 .1 1 1v5.1c0 1.1 1 2 2 2h2.8a2 2 0 0 0 2-2V30.1q-.2-1.8-2-2" style="fill:#fafafa"/></svg>