<svg xml:space="preserve" width="16" height="16" viewBox="0 0 128 128"><path d="m102.3 125.4-76-.3a6.3 6.3 0 0 1-6.3-6.3V10.3c0-3.4 2.8-6.2 6.2-6.2l76.3.4c3.5 0 6.5 2.5 6.5 6l-.4 108.7c0 3.4-2.8 6.2-6.2 6.2" style="fill:#5e6367"/><path d="M24.4 91.3s0-75.2.2-77.8c0-2.6 1.9-4.5 4.4-4.6S97 9 99 9s4.9.6 5 4.1c.2 3.6-.5 70.2-.5 70.2s-13-7.9-29.3-8c-25 0-49.8 16-49.8 16" style="fill:#ee534e"/><path d="M53.4 19c-13.9 0-22.5 9.5-22.2 23a21 21 0 0 0 21.7 21.6c12 0 21.7-8.5 22-22A21 21 0 0 0 53.3 19" style="fill:#f5f5f5"/></svg>