<svg xml:space="preserve" width="16" height="16" viewBox="0 0 128 128"><path d="M93.2 51h28.3v2H93.2z" style="fill:#504f4f" transform="rotate(-83.9 107.36 52.05)"/><circle cx="41.8" cy="64" r="21.8" style="fill:#504f4f"/><radialGradient id="a" cx="88" cy="75.2" r="21.4" gradientTransform="matrix(-1 0 0 -1 129.84 128)" gradientUnits="userSpaceOnUse"><stop offset="0" style="stop-color:#eee"/><stop offset="1" style="stop-color:#bdbdbd"/></radialGradient><circle cx="41.8" cy="64" r="10" style="fill:url(#a)"/><circle cx="41.8" cy="64" r="18" style="opacity:.2;fill:none;stroke:#eee;stroke-width:.9412;stroke-miterlimit:10"/><circle cx="41.8" cy="64" r="14.6" style="opacity:.2;fill:none;stroke:#eee;stroke-miterlimit:10"/><circle cx="89.8" cy="64" r="17.1" style="fill:#504f4f"/><radialGradient id="b" cx="39.7" cy="74.7" r="21" gradientTransform="matrix(-1 0 0 -1 129.84 128)" gradientUnits="userSpaceOnUse"><stop offset="0" style="stop-color:#eee"/><stop offset="1" style="stop-color:#bdbdbd"/></radialGradient><circle cx="89.8" cy="64" r="10" style="fill:url(#b)"/><circle cx="89.8" cy="64" r="13.5" style="opacity:.2;fill:none;stroke:#eee;stroke-miterlimit:10"/><path d="M4 32v64a4 4 0 0 0 4 4h112a4 4 0 0 0 4-4V32a4 4 0 0 0-4-4H8a4 4 0 0 0-4 4m36 46a2 2 0 0 1-2 2H20c-2.2 0-8-7.2-8-16s5.8-16 8-16h18a2 2 0 0 1 2 2zm68 2H90a2 2 0 0 1-2-2V50q.2-1.8 2-2h18c2.2 0 8 7.2 8 16s-5.8 16-8 16" style="fill:#595858"/><path d="M11.8 38.1h104v2h-104zm0 4h104v2h-104zM12 88h104v2H12zm0 4h104v2H12zm0-8h104v2H12z" style="fill:#787676"/><g style="opacity:.2"><path d="M82 48a2 2 0 0 1 2 2v28a2 2 0 0 1-2 2H46a2 2 0 0 1-2-2V50q.2-1.8 2-2zm0-2H46a4 4 0 0 0-4 4v28a4 4 0 0 0 4 4h36a4 4 0 0 0 4-4V50a4 4 0 0 0-4-4" style="fill:#424242"/></g><radialGradient id="c" cx="63.5" cy="79.5" r="21.8" gradientTransform="matrix(1 0 0 -1 0 128)" gradientUnits="userSpaceOnUse"><stop offset="0" style="stop-color:#ef5350"/><stop offset="1" style="stop-color:#e53935"/></radialGradient><path d="M84 50a2 2 0 0 0-2-2H46a2 2 0 0 0-2 2v6h40z" style="fill:url(#c)"/><radialGradient id="d" cx="63.3" cy="72.8" r="28.4" gradientTransform="matrix(1 0 0 -1 0 128)" gradientUnits="userSpaceOnUse"><stop offset="0" style="stop-color:#fafafa"/><stop offset="1" style="stop-color:#eee"/></radialGradient><path d="M44 56v22q.2 1.8 2 2h36a2 2 0 0 0 2-2V56z" style="fill:url(#d)"/><path d="M77 66H51a1 1 0 0 1-1-1v-2q.1-.9 1-1h26q1 .1 1 1v2q-.1.9-1 1m0 8H51a1 1 0 0 1-1-1v-2q.1-.9 1-1h26q1 .1 1 1v2q-.1.9-1 1" style="fill:#bdbdbd"/><path d="M64 28H7.9A4 4 0 0 0 4 31.9v12.3h4.7v-8h110.6v8h4.7V31.9c0-2.2-1.7-3.9-3.9-3.9z" style="fill:#424242"/></svg>