<svg xml:space="preserve" width="16" height="16" viewBox="0 0 128 128"><path d="m10.8 56.6-.6-.1-5.8-4.1a1 1 0 0 1 1-1.9l6 4.1q.7.6.3 1.5-.3.5-1 .5m-8.9.9a1 1 0 0 1-1.1-1q0-1.1 1-1.2l8.6 1.2q1 0 1.1 1 0 1-1 1zm1 5.7a1 1 0 0 1 .1-2l7.7-2.3a1 1 0 1 1 .6 2l-7.6 2.3z" style="fill:#6ba3ab"/><path d="M86.9 97.6s-5.9-1.3-10.4 0-6.5 4.5-5.7 6.4c.8 1.8 6.2-.1 11.8-.1s15.3-.3 17-1.3.2-7.2.2-7.2zm-47.6-.2S38 98 36.6 99s-3.1 2.9-2 4.3 3.4.6 3.4.6-.3 1.2 2 1.6 7.1-2.4 7.1-2.4zM107 81.7s4.7.4 10.5 4.5c5.4 3.8 11.7 11 9 21.4-2.5 10.7-14.3 16.7-28.8 15.9-14-.8-28.3-9.4-35.9-8.8-12.1.9-15.7 7.8-16.8 7.3-1-.5.5-9 10.6-12 8.4-2.5 15.5-1 24.9 2 9.4 2.9 29.2 7.9 36-2.9 7.4-11.7-4.9-16.3-8.6-18.2-3.8-1.8-1-9.2-1-9.2" style="fill:#fdd3b1"/><path d="M53.9 34.2s.1-2.5-1.3-5.2a9 9 0 0 0-8-5.4c-11.2-1-14 11.5-14 14.7a36 36 0 0 0 .9 8.4l16.7-1.8zM42.5 77.7l-.5 12c-.3 5.1-3.9 5.5-4 7.8-.2 3.6 5.4 1.8 5.4 1.8l10.7-13.5zm14.4 13.9s-14.5 9.4-13.2 10.5c1 .8 2.6 1.6 5 1.4 3-.3 10-3 12.5-5.5 1.7-1.5 3.3-4.2 3.3-4.2s4.6 1.4 7.8 1.5 7.8-.2 7.8-.2 7.5 9 18.7 6.4 11.3-12.8 11.3-12.8L99.3 67.5l-22.2-9.4-20.2 20.8z" style="fill:#6da3af"/><path d="M60.3 55s4.3-2.7 7-6.9c2.1-3.6 2.9-8.3.2-12.8A10 10 0 0 0 56 30.7c-7.2 2-8.3 9.6-8.3 9.6s-2.2-1.8-7-1.7c-4.9 0-11 2.1-16.3 5.3s-6.3 4.9-10 6.7-5.8 1.9-6 3.9c0 2 .7 4.7 3.6 7.7s8.9 4.8 11 5.5 4.8 1.9 7.7 2.1l5.1.2s1 3.1 4.2 7.1 9 8.9 9 8.9-.9 5.6-2 7c-1 1.6-6.4 5.2-4.3 8s7.2.8 11.1-1 5.5-2.2 7.3-4.5c1-1.3 2.4-4.2 2.4-4.2s2.7 1 7 1.6 7.7.4 7.7.4-7.4-8.7-6.9-16.4 5.1-13.5 9.4-14.1-2 4.8-3.1 7.2c-1.5 3-4.1 10 .5 17.4s12.8 13.3 20.8 12c7.7-1.3 11.4-6.3 11.7-13.2.2-4.7-.2-18.9-5.6-26.4a25 25 0 0 0-24.8-11 66 66 0 0 0-19.8 6.1" style="fill:#b5c2c8"/><path d="M62 37.2c-3.5-3-8.8 0-10 4.7-1.3 4.9.4 9 7 6.4 5.4-2.3 6.1-8.6 3-11.1M9.6 59.4l4-4s-.7-1.6-2.9-2.3-2.7.8-2.5 3c.1 2.2.9 3.1 1.4 3.3" style="fill:#ffd3b0"/><path d="M37.4 54.8c-1 1.8-2.7 2.5-4.2 2-1.3-.5-1.4-2.8-.4-4.6q1.5-2.8 4.2-2c1.4.5 1.4 2.8.4 4.6" style="fill:#2d2b2e"/><path d="M51.3 64c1 1.6-3 4.3-5.8 5.5-5.3 2.3-9.8 2.6-17.7 1a36 36 0 0 1-15.3-6.6c-2-1.6-3-3.3-2.8-4 .7-1.6 2.8 1.4 4 2.4 3 2.3 6.2 3.1 7.8 3.2 3.2.1 6.4-2.1 7.5-1 1.9 2-3.9 3-3.9 3s6.4 1.8 10.6 1.3 8.6-2 10.8-3.5c2.2-1.4 4.1-2.5 4.8-1.4" style="fill:#6ba3ab"/><path d="M14.4 55.5c.8 1-1.3 2.7-2.2 3.5s-2 2.1-2.5 1-.3-1.5 1.4-3c1.7-1.6 2.4-2.7 3.3-1.5" style="fill:#2d2b2e"/></svg>