<svg xml:space="preserve" width="16" height="16" viewBox="0 0 128 128"><path d="M99 80.4c-1.3-2.3.2-4.6 3-7.5a25 25 0 0 0 4.6-25.7l-.8-2H104a3374 3374 0 0 0-80 0l-2.6 2a25 25 0 0 0 4.7 25.7c2.7 2.9 4.3 5.2 3 7.5s-4.8 2.5-4.8 2.5.8 2.2 2.8 3.5a12 12 0 0 0 5.7 1.4s6.2 8.5 22.3 8.5H73c16 0 22.2-8.5 22.2-8.5 1.6 0 3.9-.3 5.7-1.4 2-1.3 2.8-3.5 2.8-3.5s-3.6-.3-4.8-2.5" style="fill:#543930"/><radialGradient id="a" cx="99.6" cy="45.3" r="23.4" gradientTransform="matrix(1 0 0 .491 -21.03 60.4)" gradientUnits="userSpaceOnUse"><stop offset=".7" style="stop-color:#6d4c41;stop-opacity:0"/><stop offset="1" style="stop-color:#6d4c41"/></radialGradient><path d="M64 96.3V87l28.6-2.3 2.6 3.2s-6.2 8.5-22.3 8.5z" style="fill:url(#a)"/><radialGradient id="b" cx="76.6" cy="48.8" r="6.9" gradientTransform="rotate(155 84.33 60.49)scale(1 .742)" gradientUnits="userSpaceOnUse"><stop offset=".7" style="stop-color:#6d4c41"/><stop offset="1" style="stop-color:#6d4c41;stop-opacity:0"/></radialGradient><path d="M95.1 83.7c-4.3-6.5 5.2-9 5.2-9-1.6 2.1-2.4 3.9-1.4 5.7 1.2 2.2 4.8 2.5 4.8 2.5s-4.9 4.4-8.6.8" style="fill:url(#b)"/><radialGradient id="c" cx="94.5" cy="68.4" r="30.4" gradientTransform="rotate(-94.3 90.32 63.3)scale(1 .833)" gradientUnits="userSpaceOnUse"><stop offset=".7" style="stop-color:#6d4c41;stop-opacity:0"/><stop offset="1" style="stop-color:#6d4c41"/></radialGradient><path d="M106.6 47.2c4.3 10.3-.2 21-4.4 25.5-.6.6-3 3-3.6 4.9 0 0-9.5-13.3-12.3-21.1q-1-2.4-1.2-5-.2-2 .9-3.7a111 111 0 0 1 20-1.8z" style="fill:url(#c)"/><radialGradient id="d" cx="44.3" cy="68.4" r="30.4" gradientTransform="rotate(94.3 -1.2 99.43)scale(-1 .833)" gradientUnits="userSpaceOnUse"><stop offset=".7" style="stop-color:#6d4c41;stop-opacity:0"/><stop offset="1" style="stop-color:#6d4c41"/></radialGradient><path d="M21.4 47.2c-4.2 10.3.2 21 4.4 25.5.6.6 3 3 3.6 4.9 0 0 9.5-13.3 12.4-21.1q.9-2.4 1.2-5 .1-2-1-3.7c-.8-1.4-1.8-1-3.3-1-3 0-15.5-.7-16.5-.7z" style="fill:url(#d)"/><radialGradient id="e" cx="49.5" cy="45.3" r="23.4" gradientTransform="matrix(-1 0 0 .491 98.9 60.4)" gradientUnits="userSpaceOnUse"><stop offset=".7" style="stop-color:#6d4c41;stop-opacity:0"/><stop offset="1" style="stop-color:#6d4c41"/></radialGradient><path d="M64 96.3V87l-28.5-2.3-2.6 3.2S39 96.3 55 96.3z" style="fill:url(#e)"/><radialGradient id="f" cx="26.4" cy="48.8" r="6.9" gradientTransform="rotate(205 4.78 51.83)scale(-1 .742)" gradientUnits="userSpaceOnUse"><stop offset=".7" style="stop-color:#6d4c41"/><stop offset="1" style="stop-color:#6d4c41;stop-opacity:0"/></radialGradient><path d="M33 83.7c4.2-6.5-5.3-9-5.3-9q2.7 3 1.4 5.7c-1.2 2.2-4.8 2.5-4.8 2.5s5 4.4 8.6.8" style="fill:url(#f)"/><linearGradient id="g" x1="60.2" x2="60.2" y1="43.8" y2="10.9" gradientTransform="matrix(1 0 0 -1 0 128)" gradientUnits="userSpaceOnUse"><stop offset="0" style="stop-color:#f78c1f"/><stop offset=".5" style="stop-color:#f37f20"/><stop offset="1" style="stop-color:#ed6d23"/></linearGradient><path d="M115.2 124a28 28 0 0 0-13.8-21A81 81 0 0 0 64 96c-8.9 0-16 2.6-24.3 0-4.5-1.4-7.6-3.7-9-8.2l-1.3-4-24.2 6s5 21.9 7.6 34.2z" style="fill:url(#g)"/><path d="M64 90h-9v10c0 4.6 3.6 8.2 8.2 8.2h1.6c4.6 0 8.3-3.6 8.3-8.1V90zm27.3-39.6H36.7c-6 0-10.7 5.2-10.7 11.4s4.8 11.5 10.7 11.5h54.6c6 0 10.7-5.2 10.7-11.5s-4.8-11.4-10.7-11.4" style="fill:#e59600"/><path d="M64 11c-17.4 0-33.5 18.7-33.5 45.5C30.5 83 47 96.3 64 96.3S97.5 83 97.5 56.5C97.5 29.7 81.4 11 64 11" style="fill:#ffca28"/><ellipse cx="47.6" cy="58.8" rx="4.9" ry="5.1" style="fill:#404040"/><ellipse cx="80.4" cy="58.8" rx="4.9" ry="5.1" style="fill:#404040"/><path d="M55 49.8c-1-1.2-3-3-7.2-3s-6.3 1.8-7.3 3q-.5 1 0 1.6t2 .4c1.4-.2 2.4-1.2 5.3-1.2 2.8 0 4.5.9 5.3 1.2q1.4.3 2-.4.4-.6-.1-1.6m32.5 0c-1-1.2-3-3-7.2-3s-6.4 1.8-7.3 3q-.5 1 0 1.6t1.9.4c1.4-.2 2.5-1.2 5.4-1.2 2.8 0 4.4.9 5.3 1.2q1.4.3 1.9-.4t0-1.6" style="fill:#6d4c41"/><path d="M72.4 76.1a26 26 0 0 1-16.8 0c-1.8-1-3.7.6-3 2.3s6.5 5.4 11.4 5.4 10.6-3.8 11.3-5.4-1-3.4-2.9-2.3" style="fill:#795548"/><path d="M67.9 68H60q-1 .5-.6 1.7c.3.7 1.7 2.7 4.5 2.7s4.3-2 4.6-2.7q.3-1.2-.7-1.6" style="fill:#e59600"/><path d="M104.8 25.7c-2.4-3.7-7.7-8.6-12.7-9-.7-4.6-5.6-8.6-10.5-10.2a31 31 0 0 0-26.5 3c-1 .6-7.3 4-11.6 1.6C40.8 9.5 41 5.3 41 5.3s-8.6 3.3-6 12.3c-2.9.1-6.8 1.4-8.9 5.5-2.5 4.8-1.7 9-1 10.9a11 11 0 0 0-3.7 12.6c1.5 4.4 8 6.4 8 6.4-.6 8 .8 13 1.6 15q.4.5.7-.1c1-4 4.7-17.7 4.4-20.2 0 0 11.4-2.2 22.3-10.1q3.5-2.5 7.2-4C79.3 28.1 82 37.4 82 37.4s9.5-1.9 12 11.2c1 4.9 1.7 12.7 2.2 18.2q.2.7.7.1c1-2.2 3-6.5 3.5-10.9.2-1.5 4.4-3.6 6.3-10.2 2.5-8.9-.3-17.4-2-20" style="fill:#543930"/><radialGradient id="h" cx="82" cy="84.4" r="35.6" gradientTransform="matrix(.291 .95 .71 -.228 -1.4 -15.01)" gradientUnits="userSpaceOnUse"><stop offset=".7" style="stop-color:#6d4c41;stop-opacity:0"/><stop offset="1" style="stop-color:#6d4c41"/></radialGradient><path d="M100.4 56c.2-1.5 4.4-3.5 6.3-10.2l.6-2.1c1.6-8.1-1-15.5-2.5-18-2.2-3.4-7-7.9-11.5-8.8H92s.3 2-.6 3.8c-1.2 2.2-3.5 2.7-3.5 2.7 11.8 12 10.8 22 12.4 32.7" style="fill:url(#h)"/><radialGradient id="i" cx="47.3" cy="123.3" r="9.3" gradientTransform="matrix(.873 .471 .578 -1.042 -64.2 111.1)" gradientUnits="userSpaceOnUse"><stop offset=".6" style="stop-color:#6d4c41"/><stop offset="1" style="stop-color:#6d4c41;stop-opacity:0"/></radialGradient><path d="m58 8-3 1.6c-.9.5-7.2 4-11.5 1.5C41 9.5 41 5.5 41 5.3c-1.3 1.6-5.2 12.8 5.7 13.5 4.7.4 7.6-3.7 9.4-7.2z" style="fill:url(#i)"/><radialGradient id="j" cx="159.6" cy="63.1" r="28.7" gradientTransform="matrix(-.931 -.393 -.227 .527 231.87 51.32)" gradientUnits="userSpaceOnUse"><stop offset=".7" style="stop-color:#6d4c41;stop-opacity:0"/><stop offset="1" style="stop-color:#6d4c41"/></radialGradient><path d="M80.2 6.1c7.3 2 10.8 5.7 12 10.7.3 1.4.4 15-25.3-.4-9.6-5.7-6.9-9.3-5.7-9.8a31 31 0 0 1 19-.5" style="fill:url(#j)"/><radialGradient id="k" cx="43.5" cy="114.8" r="8.6" gradientTransform="matrix(1 0 .02 -1.22 -1.45 153.41)" gradientUnits="userSpaceOnUse"><stop offset=".7" style="stop-color:#6d4c41;stop-opacity:0"/><stop offset="1" style="stop-color:#6d4c41"/></radialGradient><path d="M41 5.3h-.1c-1 .4-8.4 3.8-5.8 12.3l7.8 1.2c-6.8-7-2-13.5-2-13.5" style="fill:url(#k)"/><radialGradient id="l" cx="42.4" cy="99.6" r="16.1" gradientTransform="matrix(-.961 -.26 -.259 .901 109.5 -50.36)" gradientUnits="userSpaceOnUse"><stop offset=".7" style="stop-color:#6d4c41;stop-opacity:0"/><stop offset="1" style="stop-color:#6d4c41"/></radialGradient><path d="m40 18.4-4.9-.8-1.1.1a10 10 0 0 0-7.8 5.4 14 14 0 0 0-1 10.9s2.4-2.3 8-2.4z" style="fill:url(#l)"/><radialGradient id="m" cx="38.5" cy="84.1" r="16.9" gradientTransform="matrix(.988 .136 .215 -1.389 -17.23 155.51)" gradientUnits="userSpaceOnUse"><stop offset=".6" style="stop-color:#6d4c41;stop-opacity:0"/><stop offset="1" style="stop-color:#6d4c41"/></radialGradient><path d="M25 34.2c-2.4 2-5.7 6.8-3.5 12.6 1.7 4.3 8 6.2 8 6.2s1.3.4 2 .4l1.8-21.8c-3 0-6 .9-7.9 2.2z" style="fill:url(#m)"/><linearGradient id="n" x1="32.6" x2="24.6" y1="118" y2="83.7" gradientTransform="matrix(1 0 0 -1 0 128)" gradientUnits="userSpaceOnUse"><stop offset=".5" style="stop-color:#ffca28"/><stop offset="1" style="stop-color:#ffb300"/></linearGradient><path d="M44.3 31.4c-2.3 0-6.6 3.6-8.4 5.8-2.8 3.6-4.8 11.2-14.2 8.3-1.6-.5-8.3-1.6-9.5-2.3-.7-.4-2.8-4.1-1.5-11.7l1.7-9.8L14 10.8c.2-1.8 1.5-3 3.2-2.5q2 .6 1.7 3.2l-.4 6.5q0 .6.5.7t.7-.5L22.3 7c.4-1.5 1.2-2.8 3-2.4s2 2.2 1.7 3.7l-2 11.4q-.2.6.4.8.5 0 .7-.5l4.2-13.5c.5-1.8 2-2.9 3.6-2.2Q35.7 5.5 35 8l-3.5 13.8q0 .4.2.4t.3-.2l4.7-11.3c.6-1.4 1.8-2.4 3.2-2 1.8.4 2.3 2.1 1.6 3.9l-5.9 16v.2a.6.6 0 0 0 .5.9h.3l.3-.2v-.1c1.5-.9 2.8-2.8 5-3.1 2.4-.3 4 .6 4.5 1.6s.4 3.6-1.9 3.6" style="fill:url(#n)"/><linearGradient id="o" x1="17.6" x2="17.6" y1="45" y2="-28" gradientTransform="matrix(1 0 0 -1 0 128)" gradientUnits="userSpaceOnUse"><stop offset="0" style="stop-color:#f78c1f"/><stop offset=".5" style="stop-color:#f37f20"/><stop offset="1" style="stop-color:#ed6d23"/></linearGradient><path d="M29.1 83q-.6-2.9-.5-5.9l.6-29.1a2 2 0 0 0-1-2l-.8-.2-16-3.7a2 2 0 0 0-2.2 1.5L4.8 77c-.3 2.4-1 5.4-.3 9.2l.7 3.5L31 89z" style="fill:url(#o)"/><path d="M35.9 29.5c-3.2.2-6.3.5-9 2q-2.1 1-3.6 2.8a16 16 0 0 0-2.2 3.2v-.1s.8-2.6 1.6-3.6q1.4-2.1 3.7-3.4 2.1-1.2 4.7-1.6 2.3-.4 4.5-.3v.2q-.2.6.3.8" style="fill:#eda600"/></svg>