<svg xml:space="preserve" width="16" height="16" viewBox="0 0 128 128"><path d="M31.1 110.6c0-4.3 6-19.5 6-19.5 5.8-1.8 47.6-.3 54-.3 0 0 5.8 12.3 5.8 19.8S79.2 124 64 124s-33-6-33-13.5" style="fill:#8b5738"/><ellipse cx="64.1" cy="93.5" rx="27.1" ry="11.8" style="fill:#ffb17a"/><path d="M38.7 106.2c3 1.7 7.8 1.5 11.5 2.2 4.7.9 7.4 4.5 16.5 4.3 3.2 0 10.8-.4 10.4-.4q-.4-.8-4.6-1.5c-2.7-.4-4.6-.4-7.6-.4A19 19 0 0 1 56 108c-1.5-.8-3.8-1.7-6-2.1-3.5-.7-6 0-10.8-2.3a8 8 0 0 1-4.6-6l-1.1 3.3a12 12 0 0 0 5 5.4m49.9-2.8c-7.7 4.9-14.2 4.3-14.2 4.3-.6.4 4 1.4 7.3.8a18 18 0 0 0 13.2-8.8l-1.2-3.3c-.7 1.8-1.6 4.8-5 7" style="fill:#cc8552"/><path d="M74.5 117.4c-4.3.8-8.4-.5-12.6-1.5-5.7-1.4-16.6-1.2-16.6-1.2-.6.3 5.1 2.4 8 2.7 2.5.2 5.2 0 7.6 1q5 2 10 2c6.3 0 14.5-3.7 16.4-8.6l-6.3 3.5q-3 1.5-6.5 2.1m-38.7-5.9q1.2 2 2.9 3.7c2 2 4.3 3 6 2.8 0 0-5.6-4.5-5-5.7.2-.6 11.8.4 11.8.4s-3.5-1.9-7-2.5c-2.1-.5-6.2.4-9.9-2.2-2-1.4-2.3-3.1-2.3-3.1l-.9 3.4c2.2 2.2 4.1 2.7 4.4 3.2m58.5-5c-2 1.9-5.2 5.5-5.2 7.4 0 0 3.6-3.5 6-5l1.5-1.5-.6-3q-.3 1-1.7 2.1" style="fill:#a86d44"/><radialGradient id="a" cx="77.1" cy="66.7" r="76.2" gradientTransform="rotate(-3.7 -608.33 2.58)" gradientUnits="userSpaceOnUse"><stop offset=".1" style="stop-color:#ce93d8"/><stop offset="1" style="stop-color:#ab47bc"/></radialGradient><circle cx="64" cy="52.8" r="48.8" style="fill:url(#a)"/><radialGradient id="b" cx="53.3" cy="46.1" r="69.4" gradientUnits="userSpaceOnUse"><stop offset=".3" style="stop-color:#81d4fa;stop-opacity:0"/><stop offset="1" style="stop-color:#81d4fa;stop-opacity:.9"/></radialGradient><circle cx="64" cy="52.8" r="48.8" style="fill:url(#b)"/><linearGradient id="c" x1="74.7" x2="35.9" y1="10.7" y2="111" gradientUnits="userSpaceOnUse"><stop offset="0" style="stop-color:#673ab7"/><stop offset=".9" style="stop-color:#673ab7;stop-opacity:0"/></linearGradient><path d="M46 22.4c4.4.4 13.7 3.8 7 12.5-4.5 5.7-10 11-12 15.7-5.7 13.3 8.6 18.7 13 20.1 3.8 1.2 11.2 4 13.3 7.4C75.3 91.4 51 95 51 95s18 6.6 32.8-3.5C89.3 87.8 94.2 79 89.4 71c-2.3-3.9-8.8-7.3-10.4-8.6-6.7-5.3-10.9-10.8-7.5-17 1.3-2.5 4.2-3.8 7-4.6 7.6-2.1 17.2-1.7 19.7-11.2C100.4 21.4 84.6 3 60 6a47 47 0 0 0-26.9 12.5c-13.8 13-12.7 23.7-12.7 23.7S29.5 21 46 22.4" style="opacity:.7;fill:url(#c)"/><linearGradient id="d" x1="80.9" x2="80.9" y1="24.9" y2="108.1" gradientUnits="userSpaceOnUse"><stop offset=".2" style="stop-color:#1d44b3"/><stop offset=".9" style="stop-color:#2044b3;stop-opacity:.074"/><stop offset=".9" style="stop-color:#2144b3;stop-opacity:0"/></linearGradient><path d="M99.8 24.2c-3.5-5-8.3-9-13.4-12.5-8-5.6-18.5-6-18.5-6 12.8 6.1 11.4 14.3 7.2 20-5.1 7.2-15.4 12-18 20.6-1.6 5-.6 10.3 4.3 13.6S84 71.6 84.6 81.8A16 16 0 0 1 79 94.2c7-1.6 22-12 17.6-22.7-2.2-5.2-12-8.7-7-14.6 1.8-2.2 14.5-3.4 15.7-16.3.6-6-2.7-12.2-5.5-16.4" style="opacity:.39;fill:url(#d)"/><linearGradient id="e" x1="-2575.4" x2="-2575.4" y1="437.5" y2="471.2" gradientTransform="rotate(165 -1301.12 -38.63)scale(1 -1)" gradientUnits="userSpaceOnUse"><stop offset=".2" style="stop-color:#fff"/><stop offset="1" style="stop-color:#fff;stop-opacity:0"/></linearGradient><path d="M24.7 61.7s-7.3-19.4 7.7-37.3c12.4-14.8 23.5-8.8 21.8-2.5C52.4 28.2 47 30 39 36.4a50 50 0 0 0-14.3 25.3" style="opacity:.85;fill:url(#e)"/><linearGradient id="f" x1="85.9" x2="85.9" y1="29" y2="52.4" gradientUnits="userSpaceOnUse"><stop offset=".3" style="stop-color:#fff"/><stop offset="1" style="stop-color:#fff;stop-opacity:0"/></linearGradient><path d="M93 34.8q-3.1-1.3-4.2-4.3l-3-9.6-2.8 9.6q-1.2 2.9-4.2 4.3l-4.8 2 5 2.1q2.9 1.4 4 4.4l2.9 9.5 2.9-9.5q1-3 4-4.4l5-2z" style="fill:url(#f)"/><linearGradient id="g" x1="76.2" x2="76.2" y1="58.2" y2="85.2" gradientUnits="userSpaceOnUse"><stop offset="0" style="stop-color:#fff"/><stop offset="1" style="stop-color:#fff;stop-opacity:0"/></linearGradient><path d="M83.3 69.4q-3-1.3-4.2-4.3l-2.9-9.6-2.9 9.6q-1 2.9-4.1 4.3l-4.9 2 5 2.1q3 1.4 4 4.4l3 9.5 2.8-9.5q1.1-3 4-4.4l5-2z" style="fill:url(#g)"/><path d="M106.3 54q-2.2-1-3.1-3.2l-2.2-7.3-2.2 7.3q-.9 2.1-3.2 3.2L92 55.6l3.7 1.5q2.3 1 3.1 3.3l2.2 7.2 2.2-7.2a6 6 0 0 1 3-3.3l3.8-1.5z" style="fill:#fff"/></svg>