<svg xml:space="preserve" width="16" height="16" viewBox="0 0 128 128"><path d="M116 4H12a8 8 0 0 0-8 8v104a8 8 0 0 0 8 8h104a8 8 0 0 0 8-8V12a8 8 0 0 0-8-8" style="fill:#427687"/><path d="M121.7 6.3A8 8 0 0 0 116 4H12a8 8 0 0 0-8 8v104q0 3.3 2.3 5.7l16.8-16.8h76A6 6 0 0 0 105 99V23z" style="fill:#8cafbf"/><path d="M99.5 68.7q0 14.4-5.4 21.7c-5.4 7.3-9.1 7.3-16.4 7.3S65 95.3 61.4 90.6s-5.5-11.8-5.6-21.1V57.9q0-14.4 5.4-21.6t16.5-7.2 16.4 7c5.4 7 5.4 11.7 5.5 21zM88.3 56.2q0-9.5-2.6-13.8c-2.6-4.3-4.4-4.4-8.2-4.4q-5.4 0-8 4.2c-2.6 4.2-2.6 7.1-2.7 13v15.1q0 9.4 2.6 13.9c1.6 3 4.8 4.8 8.2 4.6 3.2.2 6.3-1.4 7.9-4.2q2.5-4.2 2.7-13.3zM46.4 97.9h-8.9q-1.1 0-1.2-1.2V44.5a1.2 1.2 0 0 0-1.6-1.2l-9.9 3.3a1.2 1.2 0 0 1-1.6-1.2v-7q0-.8.8-1.2L46.1 29l.4-.1q1 .1 1.2 1.1v66.4q0 1.3-1.2 1.5z" style="fill:#fafafa"/><path d="M39.7 12.9c0-2.3-1.6-3-10.8-2.7-7.7.3-11.5 1.2-13.8 4s-2.9 8.5-3 15.3c0 4.8 0 9.3 2.5 9.3 3.4 0 3.4-7.9 6.2-12.3 5.4-8.7 18.9-10.6 18.9-13.6" style="opacity:.5;fill:#b4e1ed"/></svg>