<svg xml:space="preserve" width="16" height="16" viewBox="0 0 128 128"><path d="M94 9C72 9 64 31.3 64 31.3S56 9 34 9C17.4 9-1.5 22 5.5 52S64 119 64 119s51.3-37.2 58.3-67C129.4 22 112 9 94 9" style="fill:#ef5592"/><path d="M30.6 11.2c17.2 0 25.7 18.5 28.5 26 .4 1 1.9 1 2.3 0l2.6-5.8A30.6 30.6 0 0 0 34 9c-7 0-14.2 2.2-19.9 7 5-3.2 11-4.8 16.5-4.8M94 9q-8 .2-13.6 3.8 4-1.6 8.8-1.6c16.2 0 30.7 12.3 24.2 40.7-5.6 24.4-38.5 54-48.5 65.3-.6.7-.9 1.8-.9 1.8s51.4-37.2 58.4-67c7-30-11.9-43-28.4-43" style="fill:#da2e75"/><path d="M17 24.8c3.8-4.7 10.5-8.5 16.1-4 3.1 2.3 1.8 7.3-1 9.4-4 3-7.5 4.8-10 9.6a29 29 0 0 0-2.7 9.2 1.3 1.3 0 0 1-2.5.4c-4.2-7.5-5.4-17.8.1-24.6" style="fill:#f386ab"/><circle cx="74" cy="88.5" r="3.6" style="fill:#fdd835"/><circle cx="77.6" cy="44.3" r="4.3" style="fill:#fff891"/><path d="M85.1 69.3h9.8v9.8h-9.8z" style="fill:#fff891" transform="rotate(-45 90.03 74.25)"/><path d="m65.4 74.9-7.8-2.5c-5-1.7-7.9-5.7-9.3-10.8L45 44.9q0-.6-1-.6-.8 0-1 .6l-3.4 16.7c-1.4 5-4.3 9.1-9.3 10.8l-7.8 2.5c-1.1.4-1.1 2 0 2.3l7.9 2.7c5 1.6 7.8 5.7 9.2 10.7l3.5 16.6q0 .5 1 .5c1 0 .8-.2 1-.5l3.3-16.6c1.4-5 4.3-9 9.3-10.7l7.9-2.7c1-.4 1-2 0-2.3" style="fill:#fdd835"/><path d="M66.2 75.6q-.2-.5-.8-.7l-7.8-2.5c-5-1.7-7.9-5.7-9.3-10.8L45 44.9q0-.3-.4-.5l1 16.6c.9 7.7 1.6 11.3 7.7 12.4z" style="fill:#fff176"/><path d="m66.2 76.5-13.6 3c-4.7 1.3-7.4 4-7.4 11.3l-1 17q.6-.2.7-.6l3.4-16.6c1.4-5 4.3-9 9.3-10.7l7.9-2.7q.5-.2.7-.7" style="fill:#f4b400"/><path d="M109.6 25.2c-6.1-2-6.7-4.3-7.7-8.1L99.3 5c-.1-.6-1.6-.6-1.8 0l-1.7 11.3c-1 3.8-3.2 6.8-7 8L82.1 27c-.8.2-.8 1.4 0 1.7l6.7 2.1c3.8 1.2 6 4.3 7 8l1.7 11c.2.6 1.7.6 1.8 0l2-11c1-3.7 2.7-6.8 7.7-8l6.4-2.1a1 1 0 0 0 0-1.8z" style="fill:#fdd835"/><path d="M99.8 17c.6 5.7 1 7.3 5.6 8.5l10.4 1.9-.4-.4-5.9-1.8c-5.3-1.9-6.7-4-7.8-8.8L99.3 5q0-.3-.3-.4z" style="fill:#fff176"/><path d="M100 37c0-5.4 3-8.1 7.7-8.1l8-.3-.8.4-5.3 1.8c-4.5 1.2-6.4 2.6-7.7 8L99.3 50q0 .3-.3.4z" style="fill:#f4b400"/></svg>