<svg xml:space="preserve" width="16" height="16" viewBox="0 0 128 128"><path d="M116 4H12a8 8 0 0 0-8 8v104a8 8 0 0 0 8 8h104a8 8 0 0 0 8-8V12a8 8 0 0 0-8-8" style="fill:#c33"/><path d="M109.7 4H11.5A7.6 7.6 0 0 0 4 11.5v97.9c0 4.1 3.3 7.5 7.5 7.5h98.1c4.1 0 7.5-3.3 7.5-7.5V11.5c0-4-3.1-7.4-7.2-7.5z" style="fill:#f44336"/><path d="M39.7 12.9c0-2.3-1.6-3-10.8-2.7-7.7.3-11.5 1.2-13.8 4s-2.9 8.5-3 15.3c0 4.8 0 9.3 2.5 9.3 3.4 0 3.4-7.9 6.2-12.3 5.4-8.7 18.9-10.6 18.9-13.6" style="fill:#ff8a80"/><g style="opacity:.2"><path d="M88.3 22c1 0 1.9.9 1.9 1.9v4.8a2 2 0 0 0 1.9 1.9h9c1 0 1.9.8 1.9 1.9v3.6q-.1 1.7-1.9 1.9h-9q-1.7.2-1.9 1.9v4.8q.2 1.7 1.9 1.9h11.6q1.7.1 1.9 1.9v3.8q-.1 1.7-1.9 1.9H80.8q-1.7.1-1.9 1.9v2.8q.1 1.7 1.9 1.9H101c1 0 1.9.8 1.9 1.9v34.5c0 3.9-.7 6.1-3.5 7.3q-3.6 1.3-11.8 1.1a2 2 0 0 1-1.9-1.5l-.8-3a2 2 0 0 1 1.8-2.5h.1l6.6.1q1.7 0 1.6-1.5V70.4a2 2 0 0 0-1.9-1.9H79.8a2 2 0 0 0-1.9 1.9v12.9c0 1 .8 1.9 1.9 1.9h2.4q1.7-.1 1.9-1.9v-8.5a2 2 0 0 1 1.9-1.9h1.5c1 0 1.9.9 1.9 1.9v18.6q-.1 1.7-1.9 1.9H86c-1 0-1.9-.8-1.9-1.9s-.8-1.9-1.9-1.9H67.5a2 2 0 0 0-1.9 1.9v1.7c0 1-.8 1.9-1.9 1.9h-1.5c-1 0-1.9-.8-1.9-1.9V74.8a2 2 0 0 1 1.9-1.9h1.5c1 0 1.9.8 1.9 1.9v8.5a2 2 0 0 0 1.9 1.9h2c1 0 1.9-.8 1.9-1.9V70.4c0-1-.8-1.9-1.9-1.9H57a2 2 0 0 0-1.9 1.9V104c0 1-.8 1.9-1.9 1.9h-3.8q-1.7-.1-1.9-1.9V62.9q.2-1.7 1.9-1.9h19.2c1 0 1.9-.8 1.9-1.9v-2.8q-.1-1.7-1.9-1.9H46.1q-1.7-.1-1.9-1.9v-3.8q.2-1.7 1.9-1.9h11.5q1.7-.1 1.9-1.9V40q-.1-1.7-1.9-1.9H49q-1.7-.1-1.9-1.9v-3.6a2 2 0 0 1 1.9-1.9h8.6q1.7-.1 1.9-1.9V24q.2-1.7 1.9-1.9h4.1c1 0 1.9.9 1.9 1.9v4.8a2 2 0 0 0 1.9 1.9h10.6c1 0 1.9-.8 1.9-1.9V24a2 2 0 0 1 1.9-1.9zM69.5 46.6h10.6c1 0 1.9-.8 1.9-1.9V40q-.1-1.7-1.9-1.9H69.5a2 2 0 0 0-1.9 1.9v4.8a2 2 0 0 0 1.9 1.8M31.4 23.4q.5 0 .8.2a67 67 0 0 1 12.9 7.8c.8.7 1 1.9.3 2.7l-2.8 3.6a2 2 0 0 1-2.7.2q-5.6-4.5-11.9-7.8a2 2 0 0 1-.6-2.9l2.6-3.1q.5-.7 1.4-.7m-4.8 24.5.7.1q7.2 2.6 13.7 6.6a2 2 0 0 1 .5 2.7l-2.7 4a2 2 0 0 1-1.6.8q-.6 0-1.1-.4-6-4-12.6-6.8a2 2 0 0 1-1-2.7l.1-.1 2.3-3.4q.6-.8 1.7-.8m12.7 23.8q.7 0 1.2.4l3.6 2.7q1.1 1 .6 2.3c-3.7 8.6-8.2 18-12.3 25.9q-.5 1-1.7 1-.6 0-1.1-.3l-4.3-2.9a2 2 0 0 1-.6-2.6c3.8-6.6 8.8-16.3 12.9-25.4q.5-1 1.7-1.1" style="fill:#424242"/></g><path d="M36.2 61.8q-6-4-12.6-6.8a2 2 0 0 1-1-2.7l.1-.1 2.3-3.4a2 2 0 0 1 2.3-.7q7.2 2.6 13.7 6.6a2 2 0 0 1 .5 2.7l-2.7 4c-.6.8-1.8 1-2.6.4M24.7 98.3q7-12.3 12.8-25.4a2 2 0 0 1 2.9-.8l3.6 2.7q1.1 1 .6 2.3c-3.7 8.6-8.2 18-12.3 25.9a2 2 0 0 1-2.7.7h-.1l-4.3-2.9a2 2 0 0 1-.5-2.5m15.1-60.4q-5.6-4.5-11.9-7.8a2 2 0 0 1-.6-2.9l2.6-3.1q1-1 2.3-.5a67 67 0 0 1 12.9 7.8c.8.7 1 1.9.3 2.7l-2.8 3.6c-.7.8-2 .8-2.8.2m39 18.4v2.8a2 2 0 0 0 1.9 1.9H101c1 0 1.9.8 1.9 1.9v34.5c0 3.9-.7 6.1-3.5 7.3q-3.6 1.3-11.8 1.1a2 2 0 0 1-1.9-1.5l-.8-3a2 2 0 0 1 1.9-2.5l6.6.1q1.7 0 1.6-1.5v-27c0-1-.8-1.9-1.9-1.9H79.8q-1.7.1-1.9 1.9v12.9c0 1 .8 1.9 1.9 1.9h2.4a2 2 0 0 0 1.9-1.9v-8.5a2 2 0 0 1 1.9-1.9h1.5q1.7.1 1.9 1.9v18.6q-.1 1.7-1.9 1.9H86c-1 0-1.9-.9-1.9-1.9s-.8-1.9-1.9-1.9H67.5c-1 0-1.9.8-1.9 1.9v1.7q-.1 1.7-1.9 1.9h-1.5a2 2 0 0 1-1.9-1.9V74.8a2 2 0 0 1 1.9-1.9h1.5c1 0 1.9.8 1.9 1.9v8.5a2 2 0 0 0 1.9 1.9h2c1 0 1.9-.8 1.9-1.9V70.4c0-1-.8-1.9-1.9-1.9H57a2 2 0 0 0-1.9 1.9V104c0 1-.8 1.9-1.9 1.9h-3.8q-1.7-.1-1.9-1.9V62.9q.2-1.7 1.9-1.9h19.2c1 0 1.9-.8 1.9-1.9v-2.8q-.1-1.7-1.9-1.9H46.1q-1.7-.1-1.9-1.9v-3.8q.2-1.7 1.9-1.9h11.5q1.7-.1 1.9-1.9V40q-.1-1.7-1.9-1.9H49q-1.7-.1-1.9-1.9v-3.6a2 2 0 0 1 1.9-1.9h8.6q1.7-.1 1.9-1.9V24q.2-1.7 1.9-1.9h4.1c1 0 1.9.9 1.9 1.9v4.8a2 2 0 0 0 1.9 1.9h10.6c1 0 1.9-.8 1.9-1.9V24a2 2 0 0 1 1.9-1.9H88c1 0 1.9.9 1.9 1.9v4.8q.2 1.7 1.9 1.9h9c1 0 1.9.9 1.9 1.9v3.6c0 1-.8 1.9-1.9 1.9h-9q-1.7.2-1.9 1.9v4.8a2 2 0 0 0 1.9 1.9h11.6q1.7.1 1.9 1.9v3.8q-.1 1.7-1.9 1.9H80.7a2 2 0 0 0-1.9 2m-9.3-9.7h10.6c1 0 1.9-.8 1.9-1.9v-4.8q-.1-1.7-1.9-1.9H69.5a2 2 0 0 0-1.9 1.9v4.8q.2 1.7 1.8 1.9z" style="fill:#fafafa"/></svg>