<svg xml:space="preserve" width="16" height="16" viewBox="0 0 128 128"><path d="M62 29.2c16.4 0 29.6 8.6 43.8 33.7 11.8 20.8 9.6 43.5-3 50.4S85.5 119 80 118.7c-5.2-.3-17-22.8-17-22.8s-11 22.4-18.5 22.3c-2.8 0-18 .2-25.9-9.8s-7.5-26.8 0-41.8 23.3-37.4 43.6-37.4m55.1 3.6c.4 11.3-8.2 18-17.5 18s-15.2-8-15.2-17.3 8.2-16.3 17.5-16.3 14.8 6.4 15.2 15.6M23.6 47.6C12.9 44.1 9.6 36 12.6 27s12.6-13.5 21.3-10.7 12.5 12.5 9.6 21.6-11.8 12.3-20 9.7" style="fill:#f2a159"/><path d="M36.7 32.2c0 4.8-3.7 8-8.2 8s-8-3.6-8-8.4 3.5-8.6 8-8.6c5.8 0 8.2 4.3 8.2 9m63.4 9.4c-4.7-.4-7.7-4.4-7.3-8.9s5-7.8 9.8-7.4 7.6 4.4 7.2 8.9c-.5 5.8-5 7.8-9.7 7.4" style="fill:#ffa7aa"/><path d="M88.7 69.5c.5 3.4-.5 7-3.9 7-3.5.2-4.7-3-5-6.4s1-5.4 3.6-5.8c3.2-.4 5 2.4 5.3 5.2" style="fill:#2e3030"/><path d="M48.3 69.8c0 3.5-1.3 7.3-5 7-3.5-.3-4.6-4.5-4.1-8.2.4-3.4 1.9-4.6 4.5-4.8 3.2-.1 4.5 3.2 4.5 6" style="fill:#2e2d31"/><path d="M63.4 112.3s9 5.9 16.6 6.5 16.5-2.4 17-13.5c.7-12.7-8.8-19.6-11.2-21.4l-8.7-6.2L74.4 57c-.7-5-1.2-13-11-13-9.3-.2-10.4 9.3-10.5 12.4l-1.6 21.3s-5.3 3.5-9 6.4c-3.2 2.4-11.6 8.7-11.3 19.4.3 9 5.1 14.9 15.2 14.6 12.2-.3 17.2-6 17.2-6" style="fill:#ffd2b1"/><path d="M57.4 99.9s-.7 9.2 2.5 10.6c2.6 1.3 4-2.6 4-2.6s.9 2.2 3 2.6c4 .8 3.1-11.5 3.1-11.5l-6-3.2z" style="fill:#fffefd"/><path d="M60 94.5c0-1.4-2-2-3.7-3.2-1-.7-2.4-1.6-2-3.1s3.1-1.7 8.7-1.8c5.5 0 9.4.5 9.2 2s-1.9 2.5-3.1 3.4c-.6.5-2.7 1.6-2.6 2.5C66.5 95 69 97 71 97c3.3 0 4.8-1.9 5.5-2.7s1.7-1.8 3-1.3 0 3.9-2.4 6.1c-2.4 2.3-6.8 2.9-9.6 1.6s-4-3-4-3-3.1 4.4-8 3.7c-3.9-.6-6.3-3-7.4-5q-1.5-3 .2-3.3c1.2-.2 2 1.3 3.4 2s2.4 1.4 4.7 1.3c2.2-.1 3.5-1.1 3.5-2" style="fill:#2f302d"/><path d="M25.5 107q-.8 0-1.2-.7-.6-1.1.4-2c.2-.1 5.4-3.5 8.4-5l8-4.4s1-.8 1.8.4-.5 2-.5 2l-8 4.4c-2.8 1.5-8.1 5-8.2 5zm5.8 7q-.6 0-1-.4-.8-1 0-2c0-.1 2.6-3.1 5.6-5.7l5.6-5.1q1-.7 2 0 .8 1.2-.1 2l-5.7 5.1-5.4 5.5q-.4.6-1 .5m71.3-6.2q-.5 0-1-.3s-1.8-1.6-7.3-5c-5.7-3.5-9-5.1-9-5.1a1.4 1.4 0 0 1 1.1-2.6c.1.1 3.5 1.7 9.3 5.3s7.8 5.2 7.8 5.3a1.4 1.4 0 0 1-.9 2.4m-6.4 5.6q-.6 0-1-.5a100 100 0 0 0-12.7-11q-1-.8-.4-2 .8-1 2-.4c0 .1 3.5 2.3 6.8 5.2s6.2 6.2 6.3 6.3a1.4 1.4 0 0 1-1 2.4" style="fill:#5f646d"/></svg>