<svg xml:space="preserve" width="16" height="16" viewBox="0 0 128 128"><path d="M117.6 102.3H10.4c-2.8 0-3.9-1.7-3.9-3.8v-69c0-2.1 1.7-3.8 3.9-3.8h107.2c2.2 0 3.9 1.7 3.9 3.8v69c0 2.1-1.7 3.8-3.9 3.8" style="fill:#fff"/><path d="M121 28.1q-1-1-2-.2L82.1 59v6.3l3.8-3.5 32.3 38.8q.9 1 1.8.4.6-.4-.3-1.3L90.3 57.9 120.8 30q1-1 .1-2zM47 59.9l-38-32q-1-.7-2 .2-.7 1 .2 2L37.9 58 8.1 99.6q-.8.9-.3 1.3.9.6 1.9-.4L42 61.7l5 4.6z" style="fill:#6fbff0;stroke:#6fbff0;stroke-width:.5;stroke-miterlimit:10"/><path d="M117.6 102.3H10.4c-2.8 0-3.9-1.7-3.9-3.8v-69c0-2.1 1.7-3.8 3.9-3.8h107.2c2.2 0 3.9 1.7 3.9 3.8v69c0 2.1-1.7 3.8-3.9 3.8z" style="fill:none;stroke:#6fbff0;stroke-width:4;stroke-miterlimit:10"/><path d="M51.5 42 77 39.7h1.4q.5 0 .8.3l1.4 1.9.1.2V50q0 .4-.4.4h-20q-.3 0-.3.4v10q0 .4.4.4l15.2-2.3h.7q.5 0 .8.4l1.4 1.8.1.2v7.9q0 .3-.4.3H60.4q-.4 0-.4.4v10q0 .4.4.4L73.5 78h4.9q.5 0 .8.4l1.4 1.8.1.3v7.8q0 .3-.4.4h-29l-.2-.2-1.6-2-.1-.3 1.8-43.8q0-.3.3-.3" style="fill:#0d47a1"/><path d="M50 39.7h28.3q.5 0 .6.6v7q0 .7-.7.7H58.9q-.5 0-.6.6v9.5q0 .7.6.7h17.4q.5 0 .6.6v7q0 .7-.6.7H58.8q-.5 0-.6.7v9.4q0 .7.6.7h19.5q.5 0 .6.6v7q0 .6-.7.7H50a1 1 0 0 1-.6-.7V40.3q0-.5.6-.6" style="fill:#2196f3"/></svg>