<svg xml:space="preserve" width="16" height="16" viewBox="0 0 128 128"><path d="m39.6 89.7-12.5.5s1.8 20.7 2.1 22.7 1 6.1 6.7 6 5.4-5.7 5.3-7l-.5-10 8.8 2.2s0 12.6.2 14.4 1.3 5.5 6.5 5.3 5.8-4.3 5.8-5.3l.6-14.5 11-1s-.2 4 0 6.7c0 1.7 2.7 4.5 7.3 4.3 4.7-.3 6.4-2.6 6.3-3.9l.4-12 5 .7s-.3 11.6-.2 12.5 2.2 4.4 7.3 4.3c5.2-.1 6.5-2.5 6.6-3.6l1.2-16c.3-2.9.4-13.8.4-13.8zm67.1-47.2s1.2-.3 3 .4 5.7 6.9 7.5 7.9 4.7 1.6 5.4 2.2c1.7 1.4 1.4 8.9-2.3 11.3s-8.2 3-8.2 3l-9.4-17z" style="fill:#b1b1b1"/><path d="M47.5 4.6C31.1 1.3 25 15.9 25 15.9s-11.8-4.6-15.8 9c-3.2 11 9 17.1 9 17.1S4.6 43.3 5 57.8c.3 9.1 6.5 11.4 6.5 11.4s-5.7 7.4-.8 17.6c5 10.6 16.6 10 16.6 10s1.4 9.5 14.5 13.2c11.8 3.4 17.7-1.5 17.7-1.5s5 4.3 13.5 2c7-2 8.2-8 8.2-8s8.1 3.9 17-.3c8.3-4 9.3-12.4 9.3-12.4S119 86 119.3 71c.3-13.7-8.3-19-8.3-19s4.4-10.7-5.5-18.7c-8-6.6-15.2-3.5-15.2-3.5s-1-5.5-7.1-7-9.5 2-9.5 2-.6-3.6-4-6c-4-2.7-7.7-1.1-7.7-1.1s.2-10.2-14.5-13.1" style="fill:#868686"/><path d="M48.4 7.7C32.5 4.7 27.2 19 26 19s-9-6-13.9 6c-4 10.4 10.7 16.2 10.2 17.9-.4 1.5-14.8 1-14.4 14.3.2 8.4 6.9 10.4 7 11.7.2 1-6.3 7-1.6 16.3 4.4 8.8 15 8 16.6 9 1.6 1.1-.2 7.5 10.3 11.9 12.8 5.4 17.6-1.3 19-1.5 1.9-.3 2.7 5 12.2 3.4 7.9-1.4 7.1-8 8.6-8.8 1.4-.7 6 5 16.1 1 7.9-3.2 8-10.3 8.8-11.4 1.1-1.5 10.7-4.4 11.2-18.2.5-14.3-7.9-17.2-8-18.4-.2-1.1 3.3-9.6-4.6-16.1-7.3-6.1-13-1.9-14-2.7-.5-.3-.2-6-7-7.6-5.8-1.2-9.5 3-10 2.7-1.4-.7-1.1-4-4.3-6.2-3.7-2.5-7-.5-7.9-1.1-.8-.5 1.7-11-12-13.5" style="fill:#fff"/><path d="M28.5 33.8s-5 3.3-10.2 4c-5.5.9-13.9-1.5-14.4.4s2.8 7.2 8.2 9c5 1.6 7.2 0 7.2 0s1 2 .4 4.8-2.7 7.2-2.3 11.5c.5 4.8 4.3 11.7 13.4 13.6 11.3 2.4 19.4-3.5 21.7-8.7 2.9-6.5 1-11 4.5-14.1 3.4-3.1 7.9-3.5 11.7-3.3 3.9.2 7.6-2 8.8-3 1-1 1.7-3 1.4-3.4s-3-.2-5.7-1.5-7.3-4-7.3-4-3.2 3.4-8 2.8-6.3-5.8-6.3-5.8-5 7.6-13.7 5.6c-7.5-1.7-9.4-7.9-9.4-7.9" style="fill:#b1b1b1"/><path d="M53.3 48.7c-.6 2.6-3.2 3.5-5.3 2.5S45.2 48 46 46s3.2-3.3 5.1-2.6c2 .8 2.7 3.2 2.2 5.4m-23.6-4.3c-.7 2.4-3 3.9-4.8 3s-2.5-3-1.7-5c.9-2.2 2.9-3 4.6-2.3s2.4 2.1 1.9 4.3m2.2 16.9s6.3-3.1 7-1.3c.7 2-1.9 3.4-3 4-1 .7-3.3 1.3-3.3 1.3s.2 3.6 2 3.7c2 .1 3.3-2.5 4.5-1.2s-.4 4-3.4 4-4.5-2-4.5-2-1.9 1.1-3.5.7c-2.6-.6-3-3.5-2.2-4.2s1.5 1.4 3 1.3c1.4 0 1.8-2.7 1.8-2.7s-1.7-.8-3.1-2.4c-.8-1-2.6-3.4-1.7-4.4 1.5-1.5 6.4 3.2 6.4 3.2" style="fill:#2b2b2b"/></svg>