<svg xml:space="preserve" width="16" height="16" viewBox="0 0 128 128"><path d="m118 95.4-7.7-2.8-5.4-2L106 81c.3-1.9 2-3.2 4-3l8.5.6c2 .1 3.6 1.9 3.5 3.8l-.6 7.7c-.2 1.4-.7 3.5-1.8 4.5z" style="fill:#455a64"/><path d="M3.2 85.6s4.3 16.2 25.3 25.4c30 13 87.2 13 87.2 13s4-.1 5-3c0-.5 4.2-18.4 4.2-18.4S90.6 98.8 64 95.4 3.2 85.6 3.2 85.6" style="fill:#f4511e"/><path d="M122.2 96.4 97 82.5s-37.5-1.5-61.2-2a98 98 0 0 0-32 3.8c-.9.3-.8 1.6 0 1.8 8.3 1.9 32 7.3 45.1 9.3 14.7 2.2 67.6 6.8 76 7.1z" style="fill:#ffca28"/><path d="M78.5 110.5c0 .2 7.1-5.8 7.1-5.8-49-1.6-73-12.2-73-12.2s8.4 9 45.2 13.5l15.5 1.8-5.5 5.6c11.4 2.5 53.4 4.6 53.4 4.6l1.6-6.6c-30.5.8-44.3-1-44.3-1" style="fill:#a12524"/><path d="M114.6 76.5c5 .3 7.4 3.2 7.2 4.4 0 .1-3.2.6-7.7.2a21 21 0 0 1-7.6-1.6s1-3.3 8.1-3" style="fill:#82aec0"/><path d="m74.7 91.3 27.8 2.2c.9 0 1.3-1.2.5-1.6L92.5 86q-1.3-.7-2.7-.7L66 84z" style="fill:#ef6c00"/><path d="m90.6 85.4-.5 7-15.4-1.1L66 84z" style="fill:#bf360c"/><path d="m47.1 81 9.3-5.8S68.8 80 75 88.1c1.3 1.6 3.6 5 1.7 4.6a129 129 0 0 1-18.3-5.8C50 83 47 81 47 81" style="fill:#82aec0"/><path d="M44.4 81.7c.2-.4 3.5-1.2 3.5-1.2S59.5 89 77.7 91.8v1.5s-13.6-1-22.4-5-10.9-6.6-10.9-6.6" style="fill:#ffca28"/><path d="M45 82q1.9-.6 2.6 0c.6.6 3.5 2.5 5.7 3.5 2.8 1.3 3.4 4-3 2.1a17 17 0 0 1-5.6-2.8c-1.2-1-1.1-2.3.4-2.9" style="fill:#fce8b2"/><path d="m51 82.4 10-5s3.5 1.7 4.5 2.5l-9.6 5-4.8-2.5" style="fill:#94d1e0"/></svg>